<?xml version="1.0" encoding="UTF-8" standalone="no"?>
<!-- Created with Inkscape (http://www.inkscape.org/) -->

<svg
   xmlns:dc="http://purl.org/dc/elements/1.1/"
   xmlns:cc="http://creativecommons.org/ns#"
   xmlns:rdf="http://www.w3.org/1999/02/22-rdf-syntax-ns#"
   xmlns:svg="http://www.w3.org/2000/svg"
   xmlns="http://www.w3.org/2000/svg"
   xmlns:sodipodi="http://sodipodi.sourceforge.net/DTD/sodipodi-0.dtd"
   xmlns:inkscape="http://www.inkscape.org/namespaces/inkscape"
   width="468.95602"
   height="266.76309"
   id="svg22718"
   version="1.1"
   inkscape:version="0.48.0 r9654"
   sodipodi:docname="BadPredictor.pdf">
  <defs
     id="defs22720" />
  <sodipodi:namedview
     inkscape:document-units="mm"
     pagecolor="#ffffff"
     bordercolor="#666666"
     borderopacity="1.0"
     inkscape:pageopacity="0.0"
     inkscape:pageshadow="2"
     inkscape:zoom="0.7176508"
     inkscape:cx="388.89719"
     inkscape:cy="155.94063"
     inkscape:current-layer="layer1"
     id="namedview22722"
     showgrid="false"
     fit-margin-top="0"
     fit-margin-left="0"
     fit-margin-right="0"
     fit-margin-bottom="0"
     inkscape:window-width="1280"
     inkscape:window-height="752"
     inkscape:window-x="0"
     inkscape:window-y="0"
     inkscape:window-maximized="0" />
  <metadata
     id="metadata22724">
    <rdf:RDF>
      <cc:Work
         rdf:about="">
        <dc:format>image/svg+xml</dc:format>
        <dc:type
           rdf:resource="http://purl.org/dc/dcmitype/StillImage" />
        <dc:title></dc:title>
      </cc:Work>
    </rdf:RDF>
  </metadata>
  <g
     inkscape:label="Layer 1"
     inkscape:groupmode="layer"
     id="layer1"
     transform="translate(-243.45169,-261.22478)">
    <path
       style="fill:#000000;fill-opacity:1;fill-rule:nonzero;stroke:none"
       id="path23855"
       d="m 342.569,460.76491 c 23.59013,0.34613 47.17675,0.89853 70.76759,1.22334 49.50848,0.298 99.0178,0.48953 148.5271,0.59024 47.29184,0.17045 94.58151,-0.38306 141.86959,-0.88941 2.95575,-0.0317 3.00051,4.14842 0.0447,4.18007 l 0,0 c -47.30583,0.50653 -94.61324,1.06013 -141.92283,0.88964 -49.52566,-0.10076 -99.05135,-0.29224 -148.57617,-0.59062 -23.51527,-0.32388 -47.02634,-0.86647 -70.54073,-1.22638 -2.9535,0.1197 -3.1228,-4.05716 -0.1693,-4.17688 z"
       inkscape:connector-curvature="0" />
    <path
       inkscape:connector-curvature="0"
       d="m 351.83191,265.50669 c -0.13725,13.60937 -0.4808,27.21777 -0.59673,40.82745 0.14035,28.55973 0.38717,57.11941 0.72481,85.67861 0.24826,27.28045 1.22044,54.55595 2.14545,81.83077 0.0579,1.70481 -4.12169,1.75198 -4.17951,0.0471 l 0,0 c -0.92535,-27.28506 -1.89777,-54.5708 -2.14616,-81.86148 -0.33773,-28.56864 -0.58474,-57.13776 -0.72486,-85.70692 0.11567,-13.56608 0.45008,-27.13085 0.60179,-40.69661 -0.14585,-1.70307 4.02935,-1.82206 4.17521,-0.11899 z"
       id="path23857"
       style="fill:#000000;fill-opacity:1;fill-rule:nonzero;stroke:none" />
    <path
       style="fill:#000000;fill-opacity:1;fill-rule:nonzero;stroke:none"
       id="path23861"
       d="m 339.5306,288.66091 c 1.21467,-4.23782 2.49551,-8.45655 3.8936,-12.63872 1.22025,-3.64013 2.64282,-7.19831 3.73431,-10.88204 0.35261,-1.69365 0.87863,-3.08609 2.58327,-3.7932 1.23674,-0.42277 2.41347,0.30678 3.01907,1.34177 0.0905,0.15459 0.3454,1.77344 0.38721,1.10529 0.91374,1.5103 1.00596,3.26872 1.43921,4.93031 0.63308,3.4138 1.53001,6.76149 2.45032,10.10668 0.93685,2.36131 1.49572,4.96167 2.8907,7.11113 0.19736,0.29049 0.42345,0.55663 0.67127,0.80415 2.04685,2.13258 -0.96906,5.02726 -3.01592,2.89469 l 0,0 c -0.4331,-0.45953 -0.84667,-0.93513 -1.19049,-1.46775 -1.57,-2.53297 -2.38666,-5.44461 -3.38612,-8.23338 -0.92979,-3.37977 -1.8387,-6.76243 -2.47772,-10.2116 -0.32876,-1.37854 -0.40617,-2.81449 -1.12235,-4.06898 -0.87591,-2.23341 -0.44247,-0.82723 -0.0355,-0.68371 0.524,0.18479 1.08365,0.24615 1.62548,0.36923 0.0297,-0.0132 0.0594,-0.0264 0.0891,-0.0396 0.44733,-0.29709 0.31033,-0.53326 0.6169,-0.96772 0.39633,-0.56166 -0.87922,2.58716 -0.53663,1.9912 -1.10699,3.7296 -2.53517,7.33695 -3.77793,11.02028 -1.36662,4.07798 -2.61332,8.194 -3.80226,12.3258 -0.71692,2.86766 -4.77241,1.85379 -4.0555,-1.01388 z"
       inkscape:connector-curvature="0" />
    <path
       inkscape:connector-curvature="0"
       d="m 685.07855,453.46585 c 4.22587,1.25562 8.43201,2.57721 12.60046,4.0157 3.62815,1.25541 7.1724,2.71234 10.8454,3.83942 1.69016,0.36898 3.07744,0.90845 3.76803,2.61985 0.41078,1.24078 -0.33012,2.41039 -1.37092,3.00595 -0.15546,0.089 -1.7767,0.32823 -1.10899,0.3765 -1.51907,0.89908 -3.2783,0.97428 -4.944,1.39144 -3.41977,0.60002 -6.77598,1.46452 -10.12992,2.35242 -2.37026,0.91396 -4.9759,1.44764 -7.13876,2.82176 -0.29239,0.19454 -0.5607,0.41804 -0.81061,0.66346 -2.15228,2.02612 -5.01765,-1.01766 -2.86537,-3.04379 l 0,0 c 0.4637,-0.42863 0.94328,-0.83758 1.4792,-1.17623 2.54804,-1.54542 5.46744,-2.33387 8.26575,-3.3063 3.38861,-0.89705 6.77991,-1.77319 10.2351,-2.37881 1.38165,-0.3154 2.81829,-0.37891 4.07965,-1.08292 2.24178,-0.85426 0.83147,-0.43445 0.68402,-0.0289 -0.18985,0.52219 -0.25662,1.08122 -0.38494,1.62183 0.0129,0.0298 0.0258,0.0597 0.0387,0.0895 0.29275,0.45019 0.53024,0.31548 0.96171,0.62624 0.5578,0.40174 -2.57853,-0.90421 -1.98591,-0.55587 -3.71872,-1.14303 -7.31208,-2.60604 -10.98322,-3.88438 -4.06456,-1.40601 -8.16833,-2.69248 -12.28843,-3.92134 -2.86059,-0.74463 -1.80753,-4.79012 1.05307,-4.0455 z"
       id="path23863"
       style="fill:#000000;fill-opacity:1;fill-rule:nonzero;stroke:none" />
    <g
       transform="matrix(0.87478112,0,0,0.6662681,-215.92611,242.07302)"
       id="g23921">
      <path
         style="fill:#000000;fill-opacity:1;fill-rule:nonzero;stroke:none"
         id="path23923"
         d="m 645.95842,343.51669 c 0.0912,-0.33175 0.12794,-0.67485 0.16754,-1.01561 0.0817,-0.90008 0.19738,-1.79694 0.32419,-2.69172 0.23593,-1.66958 0.40649,-3.34752 0.59616,-5.02282 0.27084,-2.60514 0.59757,-5.20402 0.951,-7.79913 0.41885,-3.21592 0.94187,-6.4161 1.48668,-9.61259 0.65133,-3.69048 1.39508,-7.36437 2.17371,-11.0299 0.89373,-4.06119 1.80642,-8.11818 2.77027,-12.16334 1.01725,-4.34433 2.20337,-8.64451 3.43136,-12.93305 1.31061,-4.47519 2.71585,-8.92246 4.16969,-13.35302 1.46499,-4.42192 2.9789,-8.82692 4.55245,-13.21133 1.59037,-4.44572 3.31681,-8.84075 5.10319,-13.21082 1.76562,-4.26373 3.6223,-8.48798 5.56698,-12.67279 1.91761,-4.12353 4.00734,-8.16364 6.12134,-12.189 2.037,-3.80672 4.15806,-7.568 6.35046,-11.28721 2.02726,-3.53332 4.24499,-6.94984 6.52091,-10.3264 2.14424,-3.14243 4.36202,-6.23267 6.62579,-9.28974 2.00899,-2.76643 4.10474,-5.46828 6.21967,-8.15408 1.94252,-2.50353 3.97564,-4.9326 6.0726,-7.30757 1.99005,-2.27328 4.14571,-4.39242 6.29736,-6.51062 2.06567,-2.0391 4.26632,-3.93336 6.46696,-5.82359 2.08254,-1.79758 4.26517,-3.46972 6.47254,-5.10929 2.10109,-1.60413 4.30364,-3.0641 6.51908,-4.50313 2.09199,-1.37504 4.23255,-2.67314 6.37817,-3.96206 1.98252,-1.15977 3.9718,-2.3088 5.97705,-3.42892 1.8981,-1.07137 3.84733,-2.04682 5.78519,-3.04298 1.81662,-0.95559 3.66239,-1.85335 5.51233,-2.74209 1.658,-0.7993 3.33578,-1.5567 5.01085,-2.31934 1.53887,-0.69417 3.09723,-1.34398 4.6643,-1.97152 1.42587,-0.57203 2.86337,-1.11355 4.30483,-1.64476 1.32273,-0.49137 2.65808,-0.94766 3.99836,-1.38852 1.29098,-0.39494 2.60595,-0.70511 3.9204,-1.01042 1.21111,-0.28175 2.42815,-0.53706 3.64696,-0.78302 1.20453,-0.21235 2.4208,-0.34918 3.63552,-0.48805 1.06264,-0.11882 2.12513,-0.23913 3.1884,-0.35218 0.96558,-0.1 1.93106,-0.20101 2.8972,-0.29544 0.87694,-0.0841 1.75411,-0.16564 2.63126,-0.2475 0.8083,-0.0725 1.617,-0.14032 2.42564,-0.20878 0.74226,-0.0635 1.48519,-0.11894 2.22802,-0.17547 0.54327,-0.0413 1.08655,-0.0824 1.62983,-0.12362 2.94747,-0.22337 3.26337,3.94498 0.3159,4.16836 l 0,0 c -0.54284,0.0411 -1.08568,0.0823 -1.62852,0.12351 -0.731,0.0556 -1.46212,0.11009 -2.19257,0.17262 -0.79671,0.0675 -1.59347,0.13433 -2.38984,0.20559 -0.87115,0.0813 -1.74233,0.1623 -2.61327,0.24579 -0.95435,0.0932 -1.90804,0.19315 -2.86184,0.29184 -1.0523,0.1118 -2.10381,0.23104 -3.15549,0.34855 -1.09671,0.12533 -2.19465,0.24868 -3.28342,0.4325 -1.17911,0.23788 -2.35653,0.48471 -3.52818,0.75725 -1.19298,0.27698 -2.38651,0.55742 -3.55999,0.90953 -1.29355,0.42536 -2.58236,0.86558 -3.85889,1.3399 -1.40529,0.51785 -2.8068,1.04552 -4.19685,1.60327 -1.5071,0.60299 -3.00553,1.22818 -4.48559,1.89511 -1.64893,0.75074 -3.30066,1.49609 -4.93283,2.28285 -1.81611,0.87245 -3.62825,1.75348 -5.41145,2.69194 -1.89514,0.97408 -3.8017,1.92733 -5.65802,2.97482 -1.96701,1.09822 -3.91768,2.22598 -5.86267,3.36264 -2.1037,1.2637 -4.20277,2.53589 -6.25373,3.88431 -2.14211,1.39132 -4.27289,2.80117 -6.30359,4.35334 -2.12827,1.58065 -4.23382,3.19118 -6.24145,4.92461 -2.12902,1.82832 -4.25914,3.6594 -6.25796,5.63138 -2.08238,2.04991 -4.17059,4.09895 -6.09675,6.29885 -2.0456,2.31549 -4.02734,4.68507 -5.9216,7.12656 -2.08946,2.6533 -4.16006,5.32238 -6.14447,8.05562 -2.22717,3.0074 -4.40914,6.04738 -6.51896,9.1386 -2.2292,3.30652 -4.4016,6.65205 -6.38614,10.11281 -2.15813,3.65998 -4.24494,7.36199 -6.25058,11.10787 -2.08269,3.96536 -4.14197,7.94503 -6.03135,12.00705 -1.91735,4.12537 -3.74745,8.2898 -5.48845,12.4929 -1.76373,4.31387 -3.46802,8.65248 -5.03808,13.0411 -1.56074,4.34831 -3.062,8.71713 -4.51512,13.10263 -1.43749,4.37989 -2.8265,8.77646 -4.1228,13.20036 -1.21086,4.22829 -2.38108,8.46786 -3.3837,12.75127 -0.95609,4.01179 -1.8609,8.03543 -2.74767,12.06307 -0.76716,3.61024 -1.49963,7.22879 -2.14187,10.86353 -0.537,3.15059 -1.05304,6.30474 -1.46552,9.47455 -0.34945,2.56377 -0.67177,5.13136 -0.93928,7.70508 -0.1942,1.71523 -0.3691,3.43313 -0.61144,5.14241 -0.12352,0.86082 -0.23196,1.72403 -0.31097,2.59006 -0.0614,0.51776 -0.12788,1.0367 -0.26375,1.54126 -0.71691,2.86767 -4.7724,1.85379 -4.05549,-1.01387 z"
         inkscape:connector-curvature="0" />
      <path
         inkscape:connector-curvature="0"
         d="m 968.50116,343.51669 c -0.0912,-0.33175 -0.12794,-0.67485 -0.16754,-1.01561 -0.0817,-0.90008 -0.19738,-1.79694 -0.32419,-2.69172 -0.23593,-1.66958 -0.40649,-3.34752 -0.59616,-5.02282 -0.27084,-2.60514 -0.59757,-5.20402 -0.951,-7.79913 -0.41885,-3.21592 -0.94187,-6.4161 -1.48668,-9.61259 -0.65133,-3.69048 -1.39508,-7.36437 -2.17371,-11.0299 -0.89373,-4.06119 -1.80642,-8.11818 -2.77027,-12.16334 -1.01725,-4.34433 -2.20337,-8.64451 -3.43136,-12.93305 -1.31061,-4.47519 -2.71585,-8.92246 -4.16969,-13.35302 -1.46499,-4.42192 -2.9789,-8.82692 -4.55245,-13.21133 -1.59037,-4.44572 -3.31681,-8.84075 -5.10319,-13.21082 -1.76562,-4.26373 -3.6223,-8.48798 -5.56698,-12.67279 -1.91761,-4.12353 -4.00734,-8.16364 -6.12134,-12.189 -2.037,-3.80672 -4.15806,-7.568 -6.35046,-11.28721 -2.02726,-3.53332 -4.24499,-6.94984 -6.52091,-10.3264 -2.14424,-3.14243 -4.36202,-6.23267 -6.62579,-9.28974 -2.00899,-2.76643 -4.10474,-5.46828 -6.21967,-8.15408 -1.94252,-2.50353 -3.97564,-4.9326 -6.0726,-7.30757 -1.99005,-2.27328 -4.14571,-4.39242 -6.29736,-6.51062 -2.06567,-2.0391 -4.26632,-3.93336 -6.46696,-5.82359 -2.08254,-1.79758 -4.26517,-3.46972 -6.47254,-5.10929 -2.10109,-1.60413 -4.30364,-3.0641 -6.51908,-4.50313 -2.09199,-1.37504 -4.23255,-2.67314 -6.37817,-3.96206 -1.98252,-1.15977 -3.9718,-2.3088 -5.97705,-3.42892 -1.8981,-1.07137 -3.84733,-2.04682 -5.78519,-3.04298 -1.81662,-0.95559 -3.66239,-1.85335 -5.51233,-2.74209 -1.658,-0.7993 -3.33578,-1.5567 -5.01085,-2.31934 -1.53887,-0.69417 -3.09723,-1.34398 -4.6643,-1.97152 -1.42587,-0.57203 -2.86337,-1.11355 -4.30483,-1.64476 -1.32273,-0.49137 -2.65808,-0.94766 -3.99836,-1.38852 -1.29098,-0.39494 -2.60595,-0.70511 -3.9204,-1.01042 -1.21111,-0.28175 -2.42815,-0.53706 -3.64696,-0.78302 -1.20453,-0.21235 -2.4208,-0.34918 -3.63552,-0.48805 -1.06264,-0.11882 -2.12513,-0.23913 -3.1884,-0.35218 -0.96558,-0.1 -1.93106,-0.20101 -2.8972,-0.29544 -0.87694,-0.0841 -1.75411,-0.16564 -2.63126,-0.2475 -0.8083,-0.0725 -1.617,-0.14032 -2.42564,-0.20878 -0.74226,-0.0635 -1.48519,-0.11894 -2.22802,-0.17547 -0.54327,-0.0413 -1.08655,-0.0824 -1.62983,-0.12362 -2.94747,-0.22337 -3.26337,3.94498 -0.3159,4.16836 l 0,0 c 0.54284,0.0411 1.08568,0.0823 1.62852,0.12351 0.731,0.0556 1.46212,0.11009 2.19257,0.17262 0.79671,0.0675 1.59347,0.13433 2.38984,0.20559 0.87115,0.0813 1.74233,0.1623 2.61327,0.24579 0.95435,0.0932 1.90804,0.19315 2.86184,0.29184 1.0523,0.1118 2.10381,0.23104 3.15549,0.34855 1.09671,0.12533 2.19465,0.24868 3.28342,0.4325 1.17911,0.23788 2.35653,0.48471 3.52818,0.75725 1.19298,0.27698 2.38651,0.55742 3.55999,0.90953 1.29355,0.42536 2.58236,0.86558 3.85889,1.3399 1.40529,0.51785 2.8068,1.04552 4.19685,1.60327 1.5071,0.60299 3.00553,1.22818 4.48559,1.89511 1.64893,0.75074 3.30066,1.49609 4.93283,2.28285 1.81611,0.87245 3.62825,1.75348 5.41145,2.69194 1.89514,0.97408 3.8017,1.92733 5.65802,2.97482 1.96701,1.09822 3.91768,2.22598 5.86267,3.36264 2.1037,1.2637 4.20277,2.53589 6.25373,3.88431 2.14211,1.39132 4.27289,2.80117 6.30359,4.35334 2.12827,1.58065 4.23382,3.19118 6.24145,4.92461 2.12902,1.82832 4.25914,3.6594 6.25796,5.63138 2.08238,2.04991 4.17059,4.09895 6.09675,6.29885 2.0456,2.31549 4.02734,4.68507 5.9216,7.12656 2.08946,2.6533 4.16006,5.32238 6.14447,8.05562 2.22717,3.0074 4.40914,6.04738 6.51896,9.1386 2.2292,3.30652 4.4016,6.65205 6.38614,10.11281 2.15813,3.65998 4.24494,7.36199 6.25058,11.10787 2.08269,3.96536 4.14197,7.94503 6.03135,12.00705 1.91735,4.12537 3.74745,8.2898 5.48845,12.4929 1.76373,4.31387 3.46802,8.65248 5.03808,13.0411 1.56074,4.34831 3.062,8.71713 4.51512,13.10263 1.43749,4.37989 2.8265,8.77646 4.1228,13.20036 1.21086,4.22829 2.38108,8.46786 3.3837,12.75127 0.95609,4.01179 1.8609,8.03543 2.74767,12.06307 0.76716,3.61024 1.49963,7.22879 2.14187,10.86353 0.537,3.15059 1.05304,6.30474 1.46552,9.47455 0.34945,2.56377 0.67177,5.13136 0.93928,7.70508 0.1942,1.71523 0.3691,3.43313 0.61144,5.14241 0.12352,0.86082 0.23196,1.72403 0.31097,2.59006 0.0614,0.51776 0.12788,1.0367 0.26375,1.54126 0.71691,2.86767 4.7724,1.85379 4.05549,-1.01387 z"
         id="path23925"
         style="fill:#000000;fill-opacity:1;fill-rule:nonzero;stroke:none" />
    </g>
    <g
       id="g23927"
       transform="matrix(0.87478112,0,0,0.6662681,-188.0574,242.07302)">
      <path
         inkscape:connector-curvature="0"
         d="m 645.95842,343.51669 c 0.0912,-0.33175 0.12794,-0.67485 0.16754,-1.01561 0.0817,-0.90008 0.19738,-1.79694 0.32419,-2.69172 0.23593,-1.66958 0.40649,-3.34752 0.59616,-5.02282 0.27084,-2.60514 0.59757,-5.20402 0.951,-7.79913 0.41885,-3.21592 0.94187,-6.4161 1.48668,-9.61259 0.65133,-3.69048 1.39508,-7.36437 2.17371,-11.0299 0.89373,-4.06119 1.80642,-8.11818 2.77027,-12.16334 1.01725,-4.34433 2.20337,-8.64451 3.43136,-12.93305 1.31061,-4.47519 2.71585,-8.92246 4.16969,-13.35302 1.46499,-4.42192 2.9789,-8.82692 4.55245,-13.21133 1.59037,-4.44572 3.31681,-8.84075 5.10319,-13.21082 1.76562,-4.26373 3.6223,-8.48798 5.56698,-12.67279 1.91761,-4.12353 4.00734,-8.16364 6.12134,-12.189 2.037,-3.80672 4.15806,-7.568 6.35046,-11.28721 2.02726,-3.53332 4.24499,-6.94984 6.52091,-10.3264 2.14424,-3.14243 4.36202,-6.23267 6.62579,-9.28974 2.00899,-2.76643 4.10474,-5.46828 6.21967,-8.15408 1.94252,-2.50353 3.97564,-4.9326 6.0726,-7.30757 1.99005,-2.27328 4.14571,-4.39242 6.29736,-6.51062 2.06567,-2.0391 4.26632,-3.93336 6.46696,-5.82359 2.08254,-1.79758 4.26517,-3.46972 6.47254,-5.10929 2.10109,-1.60413 4.30364,-3.0641 6.51908,-4.50313 2.09199,-1.37504 4.23255,-2.67314 6.37817,-3.96206 1.98252,-1.15977 3.9718,-2.3088 5.97705,-3.42892 1.8981,-1.07137 3.84733,-2.04682 5.78519,-3.04298 1.81662,-0.95559 3.66239,-1.85335 5.51233,-2.74209 1.658,-0.7993 3.33578,-1.5567 5.01085,-2.31934 1.53887,-0.69417 3.09723,-1.34398 4.6643,-1.97152 1.42587,-0.57203 2.86337,-1.11355 4.30483,-1.64476 1.32273,-0.49137 2.65808,-0.94766 3.99836,-1.38852 1.29098,-0.39494 2.60595,-0.70511 3.9204,-1.01042 1.21111,-0.28175 2.42815,-0.53706 3.64696,-0.78302 1.20453,-0.21235 2.4208,-0.34918 3.63552,-0.48805 1.06264,-0.11882 2.12513,-0.23913 3.1884,-0.35218 0.96558,-0.1 1.93106,-0.20101 2.8972,-0.29544 0.87694,-0.0841 1.75411,-0.16564 2.63126,-0.2475 0.8083,-0.0725 1.617,-0.14032 2.42564,-0.20878 0.74226,-0.0635 1.48519,-0.11894 2.22802,-0.17547 0.54327,-0.0413 1.08655,-0.0824 1.62983,-0.12362 2.94747,-0.22337 3.26337,3.94498 0.3159,4.16836 l 0,0 c -0.54284,0.0411 -1.08568,0.0823 -1.62852,0.12351 -0.731,0.0556 -1.46212,0.11009 -2.19257,0.17262 -0.79671,0.0675 -1.59347,0.13433 -2.38984,0.20559 -0.87115,0.0813 -1.74233,0.1623 -2.61327,0.24579 -0.95435,0.0932 -1.90804,0.19315 -2.86184,0.29184 -1.0523,0.1118 -2.10381,0.23104 -3.15549,0.34855 -1.09671,0.12533 -2.19465,0.24868 -3.28342,0.4325 -1.17911,0.23788 -2.35653,0.48471 -3.52818,0.75725 -1.19298,0.27698 -2.38651,0.55742 -3.55999,0.90953 -1.29355,0.42536 -2.58236,0.86558 -3.85889,1.3399 -1.40529,0.51785 -2.8068,1.04552 -4.19685,1.60327 -1.5071,0.60299 -3.00553,1.22818 -4.48559,1.89511 -1.64893,0.75074 -3.30066,1.49609 -4.93283,2.28285 -1.81611,0.87245 -3.62825,1.75348 -5.41145,2.69194 -1.89514,0.97408 -3.8017,1.92733 -5.65802,2.97482 -1.96701,1.09822 -3.91768,2.22598 -5.86267,3.36264 -2.1037,1.2637 -4.20277,2.53589 -6.25373,3.88431 -2.14211,1.39132 -4.27289,2.80117 -6.30359,4.35334 -2.12827,1.58065 -4.23382,3.19118 -6.24145,4.92461 -2.12902,1.82832 -4.25914,3.6594 -6.25796,5.63138 -2.08238,2.04991 -4.17059,4.09895 -6.09675,6.29885 -2.0456,2.31549 -4.02734,4.68507 -5.9216,7.12656 -2.08946,2.6533 -4.16006,5.32238 -6.14447,8.05562 -2.22717,3.0074 -4.40914,6.04738 -6.51896,9.1386 -2.2292,3.30652 -4.4016,6.65205 -6.38614,10.11281 -2.15813,3.65998 -4.24494,7.36199 -6.25058,11.10787 -2.08269,3.96536 -4.14197,7.94503 -6.03135,12.00705 -1.91735,4.12537 -3.74745,8.2898 -5.48845,12.4929 -1.76373,4.31387 -3.46802,8.65248 -5.03808,13.0411 -1.56074,4.34831 -3.062,8.71713 -4.51512,13.10263 -1.43749,4.37989 -2.8265,8.77646 -4.1228,13.20036 -1.21086,4.22829 -2.38108,8.46786 -3.3837,12.75127 -0.95609,4.01179 -1.8609,8.03543 -2.74767,12.06307 -0.76716,3.61024 -1.49963,7.22879 -2.14187,10.86353 -0.537,3.15059 -1.05304,6.30474 -1.46552,9.47455 -0.34945,2.56377 -0.67177,5.13136 -0.93928,7.70508 -0.1942,1.71523 -0.3691,3.43313 -0.61144,5.14241 -0.12352,0.86082 -0.23196,1.72403 -0.31097,2.59006 -0.0614,0.51776 -0.12788,1.0367 -0.26375,1.54126 -0.71691,2.86767 -4.7724,1.85379 -4.05549,-1.01387 z"
         id="path23929"
         style="fill:#000000;fill-opacity:1;fill-rule:nonzero;stroke:none" />
      <path
         style="fill:#000000;fill-opacity:1;fill-rule:nonzero;stroke:none"
         id="path23931"
         d="m 968.50116,343.51669 c -0.0912,-0.33175 -0.12794,-0.67485 -0.16754,-1.01561 -0.0817,-0.90008 -0.19738,-1.79694 -0.32419,-2.69172 -0.23593,-1.66958 -0.40649,-3.34752 -0.59616,-5.02282 -0.27084,-2.60514 -0.59757,-5.20402 -0.951,-7.79913 -0.41885,-3.21592 -0.94187,-6.4161 -1.48668,-9.61259 -0.65133,-3.69048 -1.39508,-7.36437 -2.17371,-11.0299 -0.89373,-4.06119 -1.80642,-8.11818 -2.77027,-12.16334 -1.01725,-4.34433 -2.20337,-8.64451 -3.43136,-12.93305 -1.31061,-4.47519 -2.71585,-8.92246 -4.16969,-13.35302 -1.46499,-4.42192 -2.9789,-8.82692 -4.55245,-13.21133 -1.59037,-4.44572 -3.31681,-8.84075 -5.10319,-13.21082 -1.76562,-4.26373 -3.6223,-8.48798 -5.56698,-12.67279 -1.91761,-4.12353 -4.00734,-8.16364 -6.12134,-12.189 -2.037,-3.80672 -4.15806,-7.568 -6.35046,-11.28721 -2.02726,-3.53332 -4.24499,-6.94984 -6.52091,-10.3264 -2.14424,-3.14243 -4.36202,-6.23267 -6.62579,-9.28974 -2.00899,-2.76643 -4.10474,-5.46828 -6.21967,-8.15408 -1.94252,-2.50353 -3.97564,-4.9326 -6.0726,-7.30757 -1.99005,-2.27328 -4.14571,-4.39242 -6.29736,-6.51062 -2.06567,-2.0391 -4.26632,-3.93336 -6.46696,-5.82359 -2.08254,-1.79758 -4.26517,-3.46972 -6.47254,-5.10929 -2.10109,-1.60413 -4.30364,-3.0641 -6.51908,-4.50313 -2.09199,-1.37504 -4.23255,-2.67314 -6.37817,-3.96206 -1.98252,-1.15977 -3.9718,-2.3088 -5.97705,-3.42892 -1.8981,-1.07137 -3.84733,-2.04682 -5.78519,-3.04298 -1.81662,-0.95559 -3.66239,-1.85335 -5.51233,-2.74209 -1.658,-0.7993 -3.33578,-1.5567 -5.01085,-2.31934 -1.53887,-0.69417 -3.09723,-1.34398 -4.6643,-1.97152 -1.42587,-0.57203 -2.86337,-1.11355 -4.30483,-1.64476 -1.32273,-0.49137 -2.65808,-0.94766 -3.99836,-1.38852 -1.29098,-0.39494 -2.60595,-0.70511 -3.9204,-1.01042 -1.21111,-0.28175 -2.42815,-0.53706 -3.64696,-0.78302 -1.20453,-0.21235 -2.4208,-0.34918 -3.63552,-0.48805 -1.06264,-0.11882 -2.12513,-0.23913 -3.1884,-0.35218 -0.96558,-0.1 -1.93106,-0.20101 -2.8972,-0.29544 -0.87694,-0.0841 -1.75411,-0.16564 -2.63126,-0.2475 -0.8083,-0.0725 -1.617,-0.14032 -2.42564,-0.20878 -0.74226,-0.0635 -1.48519,-0.11894 -2.22802,-0.17547 -0.54327,-0.0413 -1.08655,-0.0824 -1.62983,-0.12362 -2.94747,-0.22337 -3.26337,3.94498 -0.3159,4.16836 l 0,0 c 0.54284,0.0411 1.08568,0.0823 1.62852,0.12351 0.731,0.0556 1.46212,0.11009 2.19257,0.17262 0.79671,0.0675 1.59347,0.13433 2.38984,0.20559 0.87115,0.0813 1.74233,0.1623 2.61327,0.24579 0.95435,0.0932 1.90804,0.19315 2.86184,0.29184 1.0523,0.1118 2.10381,0.23104 3.15549,0.34855 1.09671,0.12533 2.19465,0.24868 3.28342,0.4325 1.17911,0.23788 2.35653,0.48471 3.52818,0.75725 1.19298,0.27698 2.38651,0.55742 3.55999,0.90953 1.29355,0.42536 2.58236,0.86558 3.85889,1.3399 1.40529,0.51785 2.8068,1.04552 4.19685,1.60327 1.5071,0.60299 3.00553,1.22818 4.48559,1.89511 1.64893,0.75074 3.30066,1.49609 4.93283,2.28285 1.81611,0.87245 3.62825,1.75348 5.41145,2.69194 1.89514,0.97408 3.8017,1.92733 5.65802,2.97482 1.96701,1.09822 3.91768,2.22598 5.86267,3.36264 2.1037,1.2637 4.20277,2.53589 6.25373,3.88431 2.14211,1.39132 4.27289,2.80117 6.30359,4.35334 2.12827,1.58065 4.23382,3.19118 6.24145,4.92461 2.12902,1.82832 4.25914,3.6594 6.25796,5.63138 2.08238,2.04991 4.17059,4.09895 6.09675,6.29885 2.0456,2.31549 4.02734,4.68507 5.9216,7.12656 2.08946,2.6533 4.16006,5.32238 6.14447,8.05562 2.22717,3.0074 4.40914,6.04738 6.51896,9.1386 2.2292,3.30652 4.4016,6.65205 6.38614,10.11281 2.15813,3.65998 4.24494,7.36199 6.25058,11.10787 2.08269,3.96536 4.14197,7.94503 6.03135,12.00705 1.91735,4.12537 3.74745,8.2898 5.48845,12.4929 1.76373,4.31387 3.46802,8.65248 5.03808,13.0411 1.56074,4.34831 3.062,8.71713 4.51512,13.10263 1.43749,4.37989 2.8265,8.77646 4.1228,13.20036 1.21086,4.22829 2.38108,8.46786 3.3837,12.75127 0.95609,4.01179 1.8609,8.03543 2.74767,12.06307 0.76716,3.61024 1.49963,7.22879 2.14187,10.86353 0.537,3.15059 1.05304,6.30474 1.46552,9.47455 0.34945,2.56377 0.67177,5.13136 0.93928,7.70508 0.1942,1.71523 0.3691,3.43313 0.61144,5.14241 0.12352,0.86082 0.23196,1.72403 0.31097,2.59006 0.0614,0.51776 0.12788,1.0367 0.26375,1.54126 0.71691,2.86767 4.7724,1.85379 4.05549,-1.01387 z"
         inkscape:connector-curvature="0" />
    </g>
    <path
       style="fill:#000000;fill-opacity:1;fill-rule:nonzero;stroke:none"
       id="path23939"
       d="m 292.47142,274.88512 c -1.38828,-0.64066 -2.21495,-1.14079 -3.32654,0.15872 -1.83173,3.23817 -2.28818,7.04213 -2.6877,10.72276 -0.37044,4.39826 0.0686,8.79102 0.18159,13.1876 0.1967,2.05066 0.27065,4.115 0.97735,6.05274 0.086,0.2193 0.18313,0.43275 0.30496,0.6319 1.129,1.97389 -1.49924,3.66971 -2.62824,1.69582 l 0,0 c -0.20968,-0.37542 -0.40367,-0.75933 -0.5516,-1.16809 -0.80719,-2.28999 -0.9933,-4.69996 -1.17655,-7.12388 -0.11529,-4.55135 -0.56989,-9.09992 -0.16224,-13.65237 0.491,-4.47193 1.08445,-9.16003 3.74699,-12.83174 2.46476,-2.01647 3.74227,-1.96639 6.50187,-0.68972 2.00808,0.88613 0.8282,3.9024 -1.17989,3.01626 z"
       inkscape:connector-curvature="0" />
    <path
       style="fill:#000000;fill-opacity:1;fill-rule:nonzero;stroke:none"
       id="path23941"
       d="m 280.70706,291.82618 c 2.05628,-0.20698 4.09389,-0.55615 6.16066,-0.67772 1.46614,0.0388 2.90856,-0.26629 4.36683,-0.37905 2.16906,-0.16335 2.38656,3.09471 0.21749,3.25805 l 0,0 c -1.47515,0.10753 -2.93437,0.42979 -4.41798,0.38245 -2.02383,0.11347 -4.01743,0.47122 -6.03168,0.66741 -2.16444,0.2218 -2.45977,-3.02935 -0.29532,-3.25114 z"
       inkscape:connector-curvature="0" />
    <path
       style="fill:#000000;fill-opacity:1;fill-rule:nonzero;stroke:none"
       id="path23943"
       d="m 307.04621,279.45469 c -1.93534,2.80784 -3.06286,6.13298 -4.0507,9.41836 -1.2797,4.09536 -1.72026,8.31555 -1.63051,12.60396 0.0952,2.28938 1.07533,3.95669 2.6256,5.44407 0.72712,0.51123 0.36314,0.27681 1.08958,0.70739 1.8885,1.14493 0.36403,3.98159 -1.52448,2.83665 l 0,0 c -1.07299,-0.66068 -0.52104,-0.28712 -1.64515,-1.13832 -2.14393,-2.11676 -3.49097,-4.59819 -3.62006,-7.77992 -0.0903,-4.64982 0.39394,-9.23167 1.77678,-13.67151 1.14469,-3.7746 2.45835,-7.61613 4.8195,-10.74614 1.54817,-1.62182 3.70762,0.70364 2.15944,2.32546 z"
       inkscape:connector-curvature="0" />
    <path
       style="fill:#000000;fill-opacity:1;fill-rule:nonzero;stroke:none"
       id="path23945"
       d="m 321.64027,288.13146 c -1.81596,2.42375 -4.27775,4.21271 -6.59438,6.0586 -1.49722,1.39651 -3.18917,2.51346 -4.56868,4.04832 -0.1646,0.18586 -0.31837,0.38204 -0.45347,0.59233 -1.19429,1.93006 -3.76417,0.13615 -2.56988,-1.79391 l 0,0 c 0.23971,-0.37741 0.51087,-0.72969 0.80536,-1.06086 1.50327,-1.65465 3.2976,-2.91213 4.94138,-4.39875 2.05935,-1.64049 4.25775,-3.22225 5.92339,-5.32338 1.25005,-1.88982 3.76634,-0.0122 2.51628,1.87765 z"
       inkscape:connector-curvature="0" />
    <path
       style="fill:#000000;fill-opacity:1;fill-rule:nonzero;stroke:none"
       id="path23947"
       d="m 310.93988,285.49081 c 1.52438,2.19008 3.04877,4.38016 4.57316,6.57025 1.37771,2.00186 2.88398,3.93558 4.69214,5.51458 0.42017,0.31221 0.88071,0.54617 1.34644,0.76813 1.97754,0.96054 0.69859,3.9309 -1.27894,2.97037 l 0,0 c -0.70758,-0.34812 -1.40456,-0.71621 -2.02821,-1.22224 -1.99132,-1.75983 -3.68584,-3.86483 -5.20427,-6.08916 -1.52439,-2.19009 -3.04877,-4.38018 -4.57316,-6.57027 -1.29267,-1.85717 1.18017,-3.79885 2.47284,-1.94166 z"
       inkscape:connector-curvature="0" />
    <path
       style="fill:#000000;fill-opacity:1;fill-rule:nonzero;stroke:none"
       id="path23955"
       d="m 327.81766,276.06799 c 1.51112,1.48924 2.73154,3.14027 3.63168,5.10851 1.35414,3.57169 1.56727,7.43952 1.86436,11.23118 0.2613,3.99022 0.42446,8.00195 -0.60299,11.87882 -0.79014,2.92924 -2.49262,4.92682 -5.07691,6.14484 -0.33912,0.0997 -0.67824,0.19939 -1.01735,0.29908 -2.10541,0.57759 -2.87447,-2.58487 -0.76907,-3.16245 l 0,0 c 0.18982,-0.0454 0.37965,-0.0908 0.56948,-0.13625 1.76595,-0.7714 2.81815,-2.06609 3.34164,-4.05973 0.99544,-3.46096 0.65322,-7.12527 0.49058,-10.69344 -0.26701,-3.4081 -0.42677,-6.89141 -1.58685,-10.12174 -0.74392,-1.81271 -2.04789,-3.13547 -3.31742,-4.54716 -1.29267,-1.85718 1.18017,-3.79885 2.47285,-1.94166 z"
       inkscape:connector-curvature="0" />
    <path
       style="fill:#000000;fill-opacity:1;fill-rule:nonzero;stroke:none"
       id="path23961"
       d="m 689.55387,484.61934 c -1.36949,1.4055 -2.4679,3.08041 -3.67085,4.65108 -1.86636,2.28387 -3.97739,4.31596 -6.0163,6.41308 -0.7351,0.65508 -1.38037,1.41897 -1.93044,2.2628 -0.0606,0.093 -0.19144,0.39702 -0.17468,0.28427 0.0251,-0.16896 0.13425,-0.30919 0.20137,-0.46378 -0.78124,-0.52277 -1.56248,-1.04554 -2.34372,-1.56831 1.35777,-1.68369 3.53117,0.42 2.17339,2.10368 l 0,0 c -0.89108,-0.38655 -1.78217,-0.7731 -2.67327,-1.15965 0.53618,-1.53372 1.65672,-2.70365 2.76367,-3.77679 1.95729,-2.00789 3.97664,-3.96228 5.77867,-6.13801 1.25741,-1.64052 2.40913,-3.38748 3.84146,-4.85504 1.45006,-1.58865 3.50076,0.65803 2.0507,2.24667 z"
       inkscape:connector-curvature="0" />
    <path
       style="fill:#000000;fill-opacity:1;fill-rule:nonzero;stroke:none"
       id="path23963"
       d="m 676.15574,482.76052 c 2.33736,0.81738 4.18665,2.66971 5.86375,4.55875 1.71349,2.1213 3.41705,4.28338 4.52639,6.85883 0.30098,0.72202 0.90045,1.84334 1.26066,2.22107 0.003,-0.0173 0.006,-0.0344 0.009,-0.0517 1.97338,0.61111 1.18453,3.66858 -0.78884,3.05748 l 0,0 c -0.23159,-0.0899 -0.46319,-0.1798 -0.69478,-0.2697 -1.20605,-0.85923 -1.78199,-2.25311 -2.41943,-3.62543 -0.92777,-2.27206 -2.52891,-4.1022 -3.98074,-5.98486 -1.28237,-1.4717 -2.71059,-2.96087 -4.47971,-3.68205 -1.98947,-0.5449 -1.28609,-3.62731 0.70338,-3.08241 z"
       inkscape:connector-curvature="0" />
    <path
       style="fill:#000000;fill-opacity:1;fill-rule:nonzero;stroke:none"
       id="path23965"
       d="m 481.83525,334.49638 c 0.17246,0.72568 0.10684,1.51659 -0.2335,2.18632 -0.091,0.179 -0.20711,0.34384 -0.31068,0.51576 -0.51579,0.68915 -1.18724,1.08702 -1.98166,1.36006 -1.21794,0.35253 -2.21672,0.0158 -3.03378,-0.97983 -0.34527,-0.42076 -0.40435,-0.80552 -0.52567,-1.28664 -0.15168,-0.77063 -0.0816,-1.54278 0.0896,-2.30146 0.0529,-0.15358 0.0932,-0.31221 0.15878,-0.46072 0.3446,-0.78022 0.99015,-1.49512 1.8338,-1.73631 0.34007,-0.0972 0.70255,-0.0797 1.05383,-0.11963 0.27256,0.0659 0.54697,0.12445 0.81771,0.19762 0.0562,0.0152 0.10819,0.0431 0.1612,0.067 0.41191,0.18643 0.76621,0.4274 1.11096,0.72038 0.62812,0.62404 1.027,1.42508 1.07707,2.32023 0.0109,0.19507 -0.0123,0.39056 -0.0184,0.58584 -0.0967,0.72857 -0.34145,1.44795 -0.85347,1.99357 -0.15718,0.1675 -0.34937,0.29769 -0.52405,0.44654 -0.1783,0.0934 -0.34994,0.20114 -0.53492,0.28034 -0.56385,0.24146 -1.20023,0.26223 -1.79257,0.12888 -0.22668,-0.051 -0.43027,-0.14125 -0.63913,-0.23097 -0.57814,-0.26551 -1.13089,-0.64505 -1.49727,-1.17989 -0.11796,-0.17222 -0.20866,-0.36186 -0.31301,-0.54278 -0.37372,-0.8936 -0.38297,-1.74224 -0.0305,-2.64477 0.0583,-0.1493 0.14657,-0.28492 0.21985,-0.42738 0.31024,-0.47707 0.66474,-0.95314 1.13511,-1.28389 0.15656,-0.1101 0.32612,-0.20014 0.48917,-0.3002 0.14268,-0.0599 0.2803,-0.13372 0.42802,-0.17943 1.04348,-0.32298 2.06773,-0.16285 2.92154,0.56 0.20954,0.17741 0.35964,0.41578 0.53947,0.62366 0.10196,0.1975 0.2189,0.38786 0.30588,0.5925 0.25237,0.59376 0.32669,1.29312 0.25391,1.93043 -0.0193,0.16836 -0.061,0.33334 -0.0914,0.50001 -0.1608,0.61434 -0.40611,1.24148 -0.84668,1.71174 -0.14315,0.1528 -0.30358,0.28815 -0.45538,0.43223 -0.65292,0.49053 -1.41893,0.7279 -2.23513,0.67835 -0.50978,-0.0309 -0.67045,-0.12824 -1.16715,-0.30008 -0.7354,-0.34785 -1.33523,-0.90518 -1.745,-1.6111 -0.0675,-0.11631 -0.12308,-0.23927 -0.18463,-0.3589 -0.35631,-0.79006 -0.43639,-1.659 -0.17961,-2.49396 0.0506,-0.16439 0.12941,-0.31856 0.19411,-0.47784 0.32244,-0.61769 0.77841,-1.16698 1.37991,-1.52713 0.1478,-0.0885 0.30568,-0.15862 0.45853,-0.23791 0.78563,-0.32719 1.49354,-0.35485 2.3148,-0.1326 0.38512,0.10421 0.61141,0.26249 0.95933,0.45845 0.74482,0.52849 1.27303,1.26643 1.54174,2.14222 0.0424,0.13827 0.0696,0.28085 0.10438,0.42125 0.0822,0.51554 0.15003,1.04753 0.1001,1.57094 -0.0153,0.16021 -0.0465,0.31845 -0.0698,0.47767 -0.17855,0.88424 -0.6868,1.67966 -1.46701,2.14394 -0.17339,0.10318 -0.36385,0.17401 -0.54577,0.261 -0.86044,0.29853 -1.76671,0.25469 -2.59652,-0.12088 -0.13827,-0.0626 -0.2667,-0.14523 -0.40005,-0.21785 -0.73192,-0.43962 -1.18635,-1.13513 -1.5079,-1.90556 -0.16696,-0.44456 -0.23608,-0.91316 -0.25773,-1.3853 0.0119,-0.18187 0.005,-0.36609 0.0356,-0.54558 0.12307,-0.70598 0.43675,-1.23816 0.90046,-1.77187 0.46551,-0.48876 1.06052,-0.78458 1.66429,-1.0565 0.83305,-0.37716 1.83134,-0.46768 2.65332,0.0239 0.31754,0.18991 0.55905,0.48618 0.83857,0.72927 0.40887,0.51823 0.51676,1.11101 0.69773,1.71667 0.13307,0.43829 0.20328,0.89106 0.24529,1.34631 0.0674,0.76488 -0.11447,1.54606 -0.59259,2.1584 -0.13335,0.17077 -0.3027,0.30957 -0.45404,0.46436 -0.52239,0.41033 -1.11093,0.62092 -1.75359,0.74201 -0.488,0.0803 -0.97997,0.0591 -1.46811,-0.005 -0.61599,-0.0873 -1.16119,-0.36486 -1.66923,-0.70998 -0.19221,-0.15004 -0.37364,-0.27604 -0.58914,-0.44914 -0.31725,-0.24964 -0.58624,-0.54672 -0.8217,-0.87487 -0.34185,-0.52184 -0.47258,-1.11095 -0.49452,-1.72447 -0.0305,-0.45944 0.051,-0.90621 0.16147,-1.34925 0.16988,-0.53745 0.44609,-1.01924 0.78802,-1.46283 0.29981,-0.3628 0.55643,-0.57767 0.7593,-0.75748 0.0619,-0.0541 0.69828,-0.56129 0.30685,-0.24524 0.35393,-0.30516 0.75758,-0.55812 1.21221,-0.67988 0.11375,-0.0304 0.23013,-0.0499 0.3452,-0.0748 0.0851,-0.009 0.33714,-0.054 0.25538,-0.0283 -0.0928,0.0291 -0.19247,0.0274 -0.28898,0.0388 -0.0121,6.8e-4 0.0236,-0.006 0.0356,-0.009 0.0497,-0.0112 0.0994,-0.0228 0.14941,-0.0328 0.17747,-0.0352 0.19644,-0.0353 0.37646,-0.0607 0.42546,-0.0698 0.85342,-0.0207 1.27331,0.0573 0.35924,0.0888 0.73251,0.1919 1.05048,0.38983 0.14033,0.0874 0.2781,0.17883 0.41716,0.26824 0.53365,0.36079 0.84986,0.92061 1.09092,1.49928 -0.0752,-0.19328 -0.0498,-0.12141 0.008,-2.9e-4 0.008,0.0175 -0.032,-0.0707 -0.023,-0.0535 0.0754,0.14538 0.0704,0.14673 0.13356,0.27956 0.01,0.0201 -0.0182,-0.0406 -0.0272,-0.061 0.23398,0.42729 0.35458,0.89494 0.41924,1.37498 0.0294,0.27456 0.0293,0.55082 0.0292,0.82658 -0.008,0.58426 -0.16771,1.14007 -0.39924,1.67061 -0.22569,0.43705 -0.0996,0.18636 -0.31094,0.60017 -0.22016,0.44405 -0.55036,0.78711 -0.87428,1.08883 -0.49256,0.38033 -0.31746,0.27813 -0.87427,0.59741 -0.22797,0.10125 -0.56405,0.28839 -0.99648,0.3554 -0.178,0.0276 -0.35816,0.0383 -0.53724,0.0574 -0.34334,0.006 -0.69119,-0.0317 -1.02191,-0.1277 -0.17745,-0.0515 -0.34161,-0.12246 -0.51668,-0.17406 -0.37922,-0.15428 -0.56226,-0.23243 -0.93478,-0.44169 0.005,0.003 0.0196,0.0135 0.0146,0.0103 -0.45491,-0.27775 -0.73044,-0.51671 -1.08605,-0.90718 -0.30854,-0.35996 -0.50737,-0.78751 -0.67972,-1.2253 -0.15913,-0.45046 -0.21954,-0.92396 -0.24644,-1.39857 -0.0242,-0.32481 -0.002,-0.64575 0.0242,-0.96971 0.0775,-0.47267 0.24535,-0.91947 0.42801,-1.35881 0.20053,-0.43111 0.45863,-0.84494 0.81369,-1.16584 0.13195,-0.11924 0.28149,-0.2171 0.42224,-0.32564 0.5092,-0.31799 1.06929,-0.47599 1.65703,-0.56134 0.40413,-0.0464 0.8114,-0.0472 1.21758,-0.0491 0.63356,-0.01 1.30962,0.0674 1.84866,0.43872 0.25015,0.17232 0.45911,0.39861 0.68866,0.59792 2.33609,2.71296 -1.47225,6.0413 -3.80833,3.32834 l 0,0 c 0.18733,0.15026 0.36014,0.32101 0.56199,0.4508 0.25462,0.16372 0.54808,0.21849 0.83957,0.26076 0.0522,0.008 0.10573,-0.002 0.15833,0.003 0.0884,0.007 -0.36491,-0.008 -0.26608,6e-5 -0.20338,6.9e-4 -0.40679,0.002 -0.61006,0.009 0.0733,-0.0214 0.14366,-0.045 0.21548,-0.0728 0.0113,-0.004 0.0439,-0.0203 0.0326,-0.0159 -0.13324,0.0523 -0.26953,0.14392 0.21634,-0.13345 0.24475,-0.20205 0.50136,-0.40558 0.6228,-0.70934 0.006,-0.0186 0.0255,-0.0736 0.0184,-0.0555 -0.0112,0.0284 -0.0778,0.21722 -0.0866,0.23778 -0.005,0.0115 0.0117,-0.0484 0.008,-0.0367 -0.0483,0.14171 -0.0643,0.2884 0.0205,-0.17983 0.0202,-0.51408 0.003,-0.0731 0.0121,0.0451 0.004,0.13782 -0.0201,-0.0294 -0.047,-0.0653 -0.0169,-0.0371 -0.0701,-0.14705 -0.0508,-0.11118 0.0204,0.0379 0.0788,0.15254 0.0541,0.1173 -0.14906,-0.21296 -0.12313,-0.2681 -0.19669,-0.31179 -0.11812,-0.12029 -0.15255,-0.16458 -0.28487,-0.24592 -0.0495,-0.0304 -0.20569,-0.10726 -0.15184,-0.0856 0.0606,0.0244 0.11486,0.0625 0.17229,0.0938 -0.14862,-0.0732 0.0572,0.0278 0.0442,0.0238 -0.0571,-0.0181 -0.22149,-0.0913 -0.16515,-0.071 0.0707,0.0255 0.13909,0.057 0.20819,0.0866 0.0263,0.0112 0.10568,0.0421 0.0778,0.0358 -0.047,-0.0106 -0.0906,-0.0326 -0.1359,-0.049 0.0598,0.0209 0.11978,0.0415 0.17941,0.0631 0.0245,0.009 0.0986,0.0314 0.0729,0.0279 -0.17169,-0.0233 -0.34165,-0.0957 -0.5209,-0.0576 -0.1542,0.0234 -0.28704,0.0278 -0.42738,0.0795 -0.0252,0.009 -0.54832,0.23874 -0.0536,0.0112 0.0293,-0.0135 -0.0577,0.0288 -0.0866,0.0432 -0.0644,0.0397 -0.12979,0.0778 -0.19328,0.119 -0.0201,0.013 -0.0768,0.057 -0.0571,0.0433 0.76364,-0.53048 -0.13232,0.0893 0.12277,-0.0847 -0.04,0.0397 -0.12919,0.175 -0.11982,0.11925 0.01,-0.057 0.15438,-0.17067 0.1206,-0.12389 -0.10363,0.14347 -0.24403,0.257 -0.31395,0.42288 0.0102,-0.0196 0.11173,-0.21613 0.11562,-0.21787 0.0397,-0.0178 -0.0749,0.15765 -0.0557,0.11848 0.0397,-0.081 0.0768,-0.16336 0.11718,-0.24404 0.0207,-0.0413 0.0291,-0.0944 0.0661,-0.12191 0.0325,-0.0242 -0.034,0.0738 -0.051,0.11071 -0.0318,0.11967 -0.0597,0.21253 -0.0525,0.42907 4e-5,-0.0761 -2e-5,-0.15209 -3.6e-4,-0.22815 -7e-5,-0.0147 -0.008,-0.0568 -3.7e-4,-0.0441 0.005,0.008 0.003,0.0175 0.005,0.0264 0.0276,0.1543 0.0659,0.30763 0.14502,0.44392 -0.12909,-0.25448 -0.25688,-0.50969 -0.36506,-0.77426 0.124,0.26739 0.23723,0.42591 0.45758,0.64876 0.072,0.0727 0.1601,0.12727 0.23723,0.1944 0.0272,0.0238 -0.0583,-0.0426 -0.0874,-0.064 0.35924,0.21784 0.41775,0.24335 0.26377,0.16452 -0.12228,-0.0626 -0.12091,-0.0576 0.21824,0.0767 0.0191,0.008 -0.0392,-0.0128 -0.0588,-0.019 0.0674,0.0152 0.1349,0.0304 0.20235,0.0455 -0.0333,-0.006 -0.0668,-0.0122 -0.10007,-0.019 -0.005,-6.8e-4 0.009,5.2e-4 0.0132,6.8e-4 0.0282,0.002 0.0564,0.008 0.0847,0.008 0.11615,6.5e-4 0.23228,-0.003 0.34842,-0.005 0.0147,-2.2e-4 -0.10867,2.3e-4 -0.0442,0.003 0.0349,-0.015 -0.0743,0.0158 -0.11169,0.0225 -0.13874,0.0246 -0.27857,0.0431 -0.41734,0.0677 -0.049,0.009 0.0986,-0.0132 0.14794,-0.0199 0.3753,-0.0885 0.74758,-0.21773 1.02974,-0.49417 -0.17713,0.1568 -0.14337,0.13196 -0.36299,0.29882 -0.0335,0.0254 0.11878,-0.11632 0.0979,-0.0797 -0.0347,0.0609 -0.13196,0.0955 -0.181,0.14837 0.16307,-0.15699 -0.0199,0.02 -0.11867,0.10792 -0.0263,0.0233 0.10067,-0.0987 0.0755,-0.0741 -0.0407,0.0399 -0.11654,0.17654 -0.12207,0.11962 -0.006,-0.0586 0.17861,-0.16223 0.11598,-0.13233 -0.0358,0.0315 0.0252,-0.0429 0.0658,-0.13439 0.14964,-0.33715 -0.22162,0.52269 0.0263,-0.10918 0.0554,-0.27597 0.0272,-0.115 0.0455,-0.42381 0.004,-0.0616 -0.009,0.24637 -1.4e-4,0.18524 -0.0434,-0.35085 -0.16318,-0.68155 -0.36541,-0.97428 -0.046,-0.0608 -0.44254,-0.49503 -0.20495,-0.24821 0.12341,0.10112 0.25566,0.19054 0.38178,0.28825 0.0133,0.0103 -0.028,-0.0187 -0.042,-0.028 -0.17265,-0.1036 -0.35655,-0.14483 -0.57756,-0.17375 0.1374,0.0186 0.12821,0.013 -0.0494,0.0209 -0.0363,0.002 0.1297,-0.009 0.0714,0.003 -0.29959,0.0759 -0.42757,0.1678 -0.67585,0.36516 -0.11266,0.12245 -0.23947,0.23308 -0.33797,0.36735 -0.23242,0.31685 -0.40974,0.73413 -0.42133,1.132 -0.003,0.0933 0.004,0.18672 0.005,0.28009 1.5e-4,0.0181 -0.002,-0.0363 -0.003,-0.0545 -0.008,-0.13852 -0.0288,-0.27453 -0.0749,-0.40623 -0.0229,-0.0836 -0.0458,-0.16721 -0.0686,-0.25081 -0.005,-0.0246 -0.01,-0.0497 -0.0162,-0.0742 -0.0778,-0.29618 -0.0581,-0.1715 -0.0242,-0.11086 0.004,0.006 -0.004,-0.0134 -0.005,-0.0201 0.10456,0.17023 0.20911,0.34047 0.31367,0.51071 0.24521,0.19935 0.45984,0.44453 0.73563,0.59807 0.50629,0.28189 0.94869,0.28004 1.49737,0.21939 0.10959,-0.0122 0.21233,-0.0599 0.31782,-0.0922 0.008,-0.002 0.0269,-0.0136 0.0198,-0.011 -0.0252,0.009 -0.0494,0.0204 -0.0742,0.0307 -0.19613,0.0832 0.12453,-0.0541 -0.22792,0.10588 -0.0153,0.007 -0.0595,0.0275 -0.0478,0.0155 0.0914,-0.094 0.23239,-0.13391 0.28544,-0.27034 0.29429,-0.39696 0.41463,-0.82639 0.39446,-1.32953 -0.002,0.0423 -0.0488,-0.25841 -0.0797,-0.24781 -0.13079,-0.26068 -0.35212,-0.47314 -0.60459,-0.61598 -0.46268,-0.21201 -0.91729,-0.24075 -1.39627,-0.0445 -0.10689,0.058 -0.21931,0.10672 -0.32069,0.17404 -0.39247,0.26065 -0.74383,0.72058 -0.81097,1.19783 -0.005,0.061 -0.0114,0.12192 -0.0131,0.18307 -5.2e-4,0.0199 0.005,0.0793 0.007,0.0594 0.004,-0.0391 -0.0209,-0.22471 0.002,-0.23751 0.11892,0.28726 0.32696,0.49662 0.59697,0.64973 0.46817,0.20782 1.00174,0.2398 1.47081,0.007 0.2797,-0.16933 0.52635,-0.36833 0.64914,-0.68369 0.15777,-0.46484 0.21847,-0.95941 -0.0198,-1.41044 -0.15038,-0.23498 -0.36763,-0.40702 -0.63066,-0.5021 -0.10707,-0.0284 -0.21236,-0.0648 -0.32122,-0.0851 -0.50879,-0.0949 -1.02894,0.10106 -1.42164,0.41765 -0.15433,0.16355 -0.45208,0.44262 -0.46339,0.70385 -3.6e-4,0.009 0.007,-0.0157 0.0107,-0.0236 -0.0356,0.41273 0.0583,0.64933 0.2972,0.9966 0.12669,0.13034 0.23454,0.28247 0.38006,0.39103 0.64418,0.48059 1.48942,0.60641 2.20497,0.22566 0.12689,-0.0882 0.33111,-0.19783 0.41779,-0.3466 0.008,-0.0134 -0.0214,0.0225 -0.0321,0.0338 -0.002,-6.8e-4 -0.005,-6.8e-4 -0.004,-0.003 0.009,-0.0219 0.0217,-0.0425 0.0326,-0.0637 0.23595,-0.54994 0.26719,-1.10973 -0.002,-1.65482 -0.23449,-0.36442 -0.38392,-0.5881 -0.77195,-0.77281 -0.004,-0.002 0.006,0.005 0.009,0.008 0.3044,0.13099 -0.023,-0.0155 -0.22154,-0.0502 -0.41309,-0.0721 -0.86378,-0.0559 -1.24876,0.12851 -0.13041,0.0625 -0.25139,0.14316 -0.37709,0.21474 -0.12783,0.11674 -0.26916,0.22007 -0.38349,0.35026 -0.21849,0.24879 -0.4063,0.57448 -0.42173,0.91464 0.003,0.0999 -0.002,0.20041 0.009,0.29963 0.0524,0.43909 0.27923,0.80373 0.60669,1.09152 0.37595,0.26944 0.29704,0.13216 0.90178,0.27985 0.2992,-0.0435 0.60923,-0.0393 0.8976,-0.13064 0.6349,-0.20123 1.1377,-0.73316 1.29555,-1.37622 0.003,-0.10742 0.002,0.009 -0.0127,0.0242 -0.0108,0.011 -0.0155,-0.059 -0.0163,-0.0435 -0.005,0.0824 0.0194,0.12516 -0.008,0.0657 -0.0931,-0.27969 -0.15324,-0.50095 -0.38272,-0.75051 -0.66658,-0.72497 -1.51177,-1.12972 -2.49514,-0.82136 -0.26814,0.1101 -0.47372,0.30961 -0.63412,0.55203 -0.0514,0.0979 -0.10931,0.19253 -0.15426,0.29357 -0.15711,0.3532 -0.18176,0.8035 -0.0801,1.17436 -0.86462,-3.4843 4.02647,-4.71618 4.89111,-1.23189 z"
       inkscape:connector-curvature="0" />
    <path
       inkscape:connector-curvature="0"
       d="m 529.82351,325.13535 c 0.17246,0.72568 0.10684,1.51659 -0.2335,2.18632 -0.091,0.179 -0.20711,0.34384 -0.31068,0.51576 -0.51579,0.68915 -1.18724,1.08702 -1.98166,1.36006 -1.21794,0.35253 -2.21672,0.0158 -3.03378,-0.97983 -0.34527,-0.42076 -0.40435,-0.80552 -0.52567,-1.28664 -0.15168,-0.77063 -0.0816,-1.54278 0.0896,-2.30146 0.0529,-0.15358 0.0932,-0.31221 0.15878,-0.46072 0.3446,-0.78022 0.99015,-1.49512 1.8338,-1.73631 0.34007,-0.0972 0.70255,-0.0797 1.05383,-0.11963 0.27256,0.0659 0.54697,0.12445 0.81771,0.19762 0.0562,0.0152 0.10819,0.0431 0.1612,0.067 0.41191,0.18643 0.76621,0.4274 1.11096,0.72038 0.62812,0.62404 1.027,1.42508 1.07707,2.32023 0.0109,0.19507 -0.0123,0.39056 -0.0184,0.58584 -0.0967,0.72857 -0.34145,1.44795 -0.85347,1.99357 -0.15718,0.1675 -0.34937,0.29769 -0.52405,0.44654 -0.1783,0.0934 -0.34994,0.20114 -0.53492,0.28034 -0.56385,0.24146 -1.20023,0.26223 -1.79257,0.12888 -0.22668,-0.051 -0.43027,-0.14125 -0.63913,-0.23097 -0.57814,-0.26551 -1.13089,-0.64505 -1.49727,-1.17989 -0.11796,-0.17222 -0.20866,-0.36186 -0.31301,-0.54278 -0.37372,-0.8936 -0.38297,-1.74224 -0.0305,-2.64477 0.0583,-0.1493 0.14657,-0.28492 0.21985,-0.42738 0.31024,-0.47707 0.66474,-0.95314 1.13511,-1.28389 0.15656,-0.1101 0.32612,-0.20014 0.48917,-0.3002 0.14268,-0.0599 0.2803,-0.13372 0.42802,-0.17943 1.04348,-0.32298 2.06773,-0.16285 2.92154,0.56 0.20954,0.17741 0.35964,0.41578 0.53947,0.62366 0.10196,0.1975 0.2189,0.38786 0.30588,0.5925 0.25237,0.59376 0.32669,1.29312 0.25391,1.93043 -0.0193,0.16836 -0.061,0.33334 -0.0914,0.50001 -0.1608,0.61434 -0.40611,1.24148 -0.84668,1.71174 -0.14315,0.1528 -0.30358,0.28815 -0.45538,0.43223 -0.65292,0.49053 -1.41893,0.7279 -2.23513,0.67835 -0.50978,-0.0309 -0.67045,-0.12824 -1.16715,-0.30008 -0.7354,-0.34785 -1.33523,-0.90518 -1.745,-1.6111 -0.0675,-0.11631 -0.12308,-0.23927 -0.18463,-0.3589 -0.35631,-0.79006 -0.43639,-1.659 -0.17961,-2.49396 0.0506,-0.16439 0.12941,-0.31856 0.19411,-0.47784 0.32244,-0.61769 0.77841,-1.16698 1.37991,-1.52713 0.1478,-0.0885 0.30568,-0.15862 0.45853,-0.23791 0.78563,-0.32719 1.49354,-0.35485 2.3148,-0.1326 0.38512,0.10421 0.61141,0.26249 0.95933,0.45845 0.74482,0.52849 1.27303,1.26643 1.54174,2.14222 0.0424,0.13827 0.0696,0.28085 0.10438,0.42125 0.0822,0.51554 0.15003,1.04753 0.1001,1.57094 -0.0153,0.16021 -0.0465,0.31845 -0.0698,0.47767 -0.17855,0.88424 -0.6868,1.67966 -1.46701,2.14394 -0.17339,0.10318 -0.36385,0.17401 -0.54577,0.261 -0.86044,0.29853 -1.76671,0.25469 -2.59652,-0.12088 -0.13827,-0.0626 -0.2667,-0.14523 -0.40005,-0.21785 -0.73192,-0.43962 -1.18635,-1.13513 -1.5079,-1.90556 -0.16696,-0.44456 -0.23608,-0.91316 -0.25773,-1.3853 0.0119,-0.18187 0.005,-0.36609 0.0356,-0.54558 0.12307,-0.70598 0.43675,-1.23816 0.90046,-1.77187 0.46551,-0.48876 1.06052,-0.78458 1.66429,-1.0565 0.83305,-0.37716 1.83134,-0.46768 2.65332,0.0239 0.31754,0.18991 0.55905,0.48618 0.83857,0.72927 0.40887,0.51823 0.51676,1.11101 0.69773,1.71667 0.13307,0.43829 0.20328,0.89106 0.24529,1.34631 0.0674,0.76488 -0.11447,1.54606 -0.59259,2.1584 -0.13335,0.17077 -0.3027,0.30957 -0.45404,0.46436 -0.52239,0.41033 -1.11093,0.62092 -1.75359,0.74201 -0.488,0.0803 -0.97997,0.0591 -1.46811,-0.005 -0.61599,-0.0873 -1.16119,-0.36486 -1.66923,-0.70998 -0.19221,-0.15004 -0.37364,-0.27604 -0.58914,-0.44914 -0.31725,-0.24964 -0.58624,-0.54672 -0.8217,-0.87487 -0.34185,-0.52184 -0.47258,-1.11095 -0.49452,-1.72447 -0.0305,-0.45944 0.051,-0.90621 0.16147,-1.34925 0.16988,-0.53745 0.44609,-1.01924 0.78802,-1.46283 0.29981,-0.3628 0.55643,-0.57767 0.7593,-0.75748 0.0619,-0.0541 0.69828,-0.56129 0.30685,-0.24524 0.35393,-0.30516 0.75758,-0.55812 1.21221,-0.67988 0.11375,-0.0304 0.23013,-0.0499 0.3452,-0.0748 0.0851,-0.009 0.33714,-0.054 0.25538,-0.0283 -0.0928,0.0291 -0.19247,0.0274 -0.28898,0.0388 -0.0121,6.8e-4 0.0236,-0.006 0.0356,-0.009 0.0497,-0.0112 0.0994,-0.0228 0.14941,-0.0328 0.17747,-0.0352 0.19644,-0.0353 0.37646,-0.0607 0.42546,-0.0698 0.85342,-0.0207 1.27331,0.0573 0.35924,0.0888 0.73251,0.1919 1.05048,0.38983 0.14033,0.0874 0.2781,0.17883 0.41716,0.26824 0.53365,0.36079 0.84986,0.92061 1.09092,1.49928 -0.0752,-0.19328 -0.0498,-0.12141 0.008,-2.9e-4 0.008,0.0175 -0.032,-0.0707 -0.023,-0.0535 0.0754,0.14538 0.0704,0.14673 0.13356,0.27956 0.01,0.0201 -0.0182,-0.0406 -0.0272,-0.061 0.23398,0.42729 0.35458,0.89494 0.41924,1.37498 0.0294,0.27456 0.0293,0.55082 0.0292,0.82658 -0.008,0.58426 -0.16771,1.14007 -0.39924,1.67061 -0.22569,0.43705 -0.0996,0.18636 -0.31094,0.60017 -0.22016,0.44405 -0.55036,0.78711 -0.87428,1.08883 -0.49256,0.38033 -0.31746,0.27813 -0.87427,0.59741 -0.22797,0.10125 -0.56405,0.28839 -0.99648,0.3554 -0.178,0.0276 -0.35816,0.0383 -0.53724,0.0574 -0.34334,0.006 -0.69119,-0.0317 -1.02191,-0.1277 -0.17745,-0.0515 -0.34161,-0.12246 -0.51668,-0.17406 -0.37922,-0.15428 -0.56226,-0.23243 -0.93478,-0.44169 0.005,0.003 0.0196,0.0135 0.0146,0.0103 -0.45491,-0.27775 -0.73044,-0.51671 -1.08605,-0.90718 -0.30854,-0.35996 -0.50737,-0.78751 -0.67972,-1.2253 -0.15913,-0.45046 -0.21954,-0.92396 -0.24644,-1.39857 -0.0242,-0.32481 -0.002,-0.64575 0.0242,-0.96971 0.0775,-0.47267 0.24535,-0.91947 0.42801,-1.35881 0.20053,-0.43111 0.45863,-0.84494 0.81369,-1.16584 0.13195,-0.11924 0.28149,-0.2171 0.42224,-0.32564 0.5092,-0.31799 1.06929,-0.47599 1.65703,-0.56134 0.40413,-0.0464 0.8114,-0.0472 1.21758,-0.0491 0.63356,-0.01 1.30962,0.0674 1.84866,0.43872 0.25015,0.17232 0.45911,0.39861 0.68866,0.59792 2.33609,2.71296 -1.47225,6.0413 -3.80833,3.32834 l 0,0 c 0.18733,0.15026 0.36014,0.32101 0.56199,0.4508 0.25462,0.16372 0.54808,0.21849 0.83957,0.26076 0.0522,0.008 0.10573,-0.002 0.15833,0.003 0.0884,0.007 -0.36491,-0.008 -0.26608,6e-5 -0.20338,6.9e-4 -0.40679,0.002 -0.61006,0.009 0.0733,-0.0214 0.14366,-0.045 0.21548,-0.0728 0.0113,-0.004 0.0439,-0.0203 0.0326,-0.0159 -0.13324,0.0523 -0.26953,0.14392 0.21634,-0.13345 0.24475,-0.20205 0.50136,-0.40558 0.6228,-0.70934 0.006,-0.0186 0.0255,-0.0736 0.0184,-0.0555 -0.0112,0.0284 -0.0778,0.21722 -0.0866,0.23778 -0.005,0.0115 0.0117,-0.0484 0.008,-0.0367 -0.0483,0.14171 -0.0643,0.2884 0.0205,-0.17983 0.0202,-0.51408 0.003,-0.0731 0.0121,0.0451 0.004,0.13782 -0.0201,-0.0294 -0.047,-0.0653 -0.0169,-0.0371 -0.0701,-0.14705 -0.0508,-0.11118 0.0204,0.0379 0.0788,0.15254 0.0541,0.1173 -0.14906,-0.21296 -0.12313,-0.2681 -0.19669,-0.31179 -0.11812,-0.12029 -0.15255,-0.16458 -0.28487,-0.24592 -0.0495,-0.0304 -0.20569,-0.10726 -0.15184,-0.0856 0.0606,0.0244 0.11486,0.0625 0.17229,0.0938 -0.14862,-0.0732 0.0572,0.0278 0.0442,0.0238 -0.0571,-0.0181 -0.22149,-0.0913 -0.16515,-0.071 0.0707,0.0255 0.13909,0.057 0.20819,0.0866 0.0263,0.0112 0.10568,0.0421 0.0778,0.0358 -0.047,-0.0106 -0.0906,-0.0326 -0.1359,-0.049 0.0598,0.0209 0.11978,0.0415 0.17941,0.0631 0.0245,0.009 0.0986,0.0314 0.0729,0.0279 -0.17169,-0.0233 -0.34165,-0.0957 -0.5209,-0.0576 -0.1542,0.0234 -0.28704,0.0278 -0.42738,0.0795 -0.0252,0.009 -0.54832,0.23874 -0.0536,0.0112 0.0293,-0.0135 -0.0577,0.0288 -0.0866,0.0432 -0.0644,0.0397 -0.12979,0.0778 -0.19328,0.119 -0.0201,0.013 -0.0768,0.057 -0.0571,0.0433 0.76364,-0.53048 -0.13232,0.0893 0.12277,-0.0847 -0.04,0.0397 -0.12919,0.175 -0.11982,0.11925 0.01,-0.057 0.15438,-0.17067 0.1206,-0.12389 -0.10363,0.14347 -0.24403,0.257 -0.31395,0.42288 0.0102,-0.0196 0.11173,-0.21613 0.11562,-0.21787 0.0397,-0.0178 -0.0749,0.15765 -0.0557,0.11848 0.0397,-0.081 0.0768,-0.16336 0.11718,-0.24404 0.0207,-0.0413 0.0291,-0.0944 0.0661,-0.12191 0.0325,-0.0242 -0.034,0.0738 -0.051,0.11071 -0.0318,0.11967 -0.0597,0.21253 -0.0525,0.42907 4e-5,-0.0761 -2e-5,-0.15209 -3.6e-4,-0.22815 -7e-5,-0.0147 -0.008,-0.0568 -3.7e-4,-0.0441 0.005,0.008 0.003,0.0175 0.005,0.0264 0.0276,0.1543 0.0659,0.30763 0.14502,0.44392 -0.12909,-0.25448 -0.25688,-0.50969 -0.36506,-0.77426 0.124,0.26739 0.23723,0.42591 0.45758,0.64876 0.072,0.0727 0.1601,0.12727 0.23723,0.1944 0.0272,0.0238 -0.0583,-0.0426 -0.0874,-0.064 0.35924,0.21784 0.41775,0.24335 0.26377,0.16452 -0.12228,-0.0626 -0.12091,-0.0576 0.21824,0.0767 0.0191,0.008 -0.0392,-0.0128 -0.0588,-0.019 0.0674,0.0152 0.1349,0.0304 0.20235,0.0455 -0.0333,-0.006 -0.0668,-0.0122 -0.10007,-0.019 -0.005,-6.8e-4 0.009,5.2e-4 0.0132,6.8e-4 0.0282,0.002 0.0564,0.008 0.0847,0.008 0.11615,6.5e-4 0.23228,-0.003 0.34842,-0.005 0.0147,-2.2e-4 -0.10867,2.3e-4 -0.0442,0.003 0.0349,-0.015 -0.0743,0.0158 -0.11169,0.0225 -0.13874,0.0246 -0.27857,0.0431 -0.41734,0.0677 -0.049,0.009 0.0986,-0.0132 0.14794,-0.0199 0.3753,-0.0885 0.74758,-0.21773 1.02974,-0.49417 -0.17713,0.1568 -0.14337,0.13196 -0.36299,0.29882 -0.0335,0.0254 0.11878,-0.11632 0.0979,-0.0797 -0.0347,0.0609 -0.13196,0.0955 -0.181,0.14837 0.16307,-0.15699 -0.0199,0.02 -0.11867,0.10792 -0.0263,0.0233 0.10067,-0.0987 0.0755,-0.0741 -0.0407,0.0399 -0.11654,0.17654 -0.12207,0.11962 -0.006,-0.0586 0.17861,-0.16223 0.11598,-0.13233 -0.0358,0.0315 0.0252,-0.0429 0.0658,-0.13439 0.14964,-0.33715 -0.22162,0.52269 0.0263,-0.10918 0.0554,-0.27597 0.0272,-0.115 0.0455,-0.42381 0.004,-0.0616 -0.009,0.24637 -1.4e-4,0.18524 -0.0434,-0.35085 -0.16318,-0.68155 -0.36541,-0.97428 -0.046,-0.0608 -0.44254,-0.49503 -0.20495,-0.24821 0.12341,0.10112 0.25566,0.19054 0.38178,0.28825 0.0133,0.0103 -0.028,-0.0187 -0.042,-0.028 -0.17265,-0.1036 -0.35655,-0.14483 -0.57756,-0.17375 0.1374,0.0186 0.12821,0.013 -0.0494,0.0209 -0.0363,0.002 0.1297,-0.009 0.0714,0.003 -0.29959,0.0759 -0.42757,0.1678 -0.67585,0.36516 -0.11266,0.12245 -0.23947,0.23308 -0.33797,0.36735 -0.23242,0.31685 -0.40974,0.73413 -0.42133,1.132 -0.003,0.0933 0.004,0.18672 0.005,0.28009 1.5e-4,0.0181 -0.002,-0.0363 -0.003,-0.0545 -0.008,-0.13852 -0.0288,-0.27453 -0.0749,-0.40623 -0.0229,-0.0836 -0.0458,-0.16721 -0.0686,-0.25081 -0.005,-0.0246 -0.01,-0.0497 -0.0162,-0.0742 -0.0778,-0.29618 -0.0581,-0.1715 -0.0242,-0.11086 0.004,0.006 -0.004,-0.0134 -0.005,-0.0201 0.10456,0.17023 0.20911,0.34047 0.31367,0.51071 0.24521,0.19935 0.45984,0.44453 0.73563,0.59807 0.50629,0.28189 0.94869,0.28004 1.49737,0.21939 0.10959,-0.0122 0.21233,-0.0599 0.31782,-0.0922 0.008,-0.002 0.0269,-0.0136 0.0198,-0.011 -0.0252,0.009 -0.0494,0.0204 -0.0742,0.0307 -0.19613,0.0832 0.12453,-0.0541 -0.22792,0.10588 -0.0153,0.007 -0.0595,0.0275 -0.0478,0.0155 0.0914,-0.094 0.23239,-0.13391 0.28544,-0.27034 0.29429,-0.39696 0.41463,-0.82639 0.39446,-1.32953 -0.002,0.0423 -0.0488,-0.25841 -0.0797,-0.24781 -0.13079,-0.26068 -0.35212,-0.47314 -0.60459,-0.61598 -0.46268,-0.21201 -0.91729,-0.24075 -1.39627,-0.0445 -0.10689,0.058 -0.21931,0.10672 -0.32069,0.17404 -0.39247,0.26065 -0.74383,0.72058 -0.81097,1.19783 -0.005,0.061 -0.0114,0.12192 -0.0131,0.18307 -5.2e-4,0.0199 0.005,0.0793 0.007,0.0594 0.004,-0.0391 -0.0209,-0.22471 0.002,-0.23751 0.11892,0.28726 0.32696,0.49662 0.59697,0.64973 0.46817,0.20782 1.00174,0.2398 1.47081,0.007 0.2797,-0.16933 0.52635,-0.36833 0.64914,-0.68369 0.15777,-0.46484 0.21847,-0.95941 -0.0198,-1.41044 -0.15038,-0.23498 -0.36763,-0.40702 -0.63066,-0.5021 -0.10707,-0.0284 -0.21236,-0.0648 -0.32122,-0.0851 -0.50879,-0.0949 -1.02894,0.10106 -1.42164,0.41765 -0.15433,0.16355 -0.45208,0.44262 -0.46339,0.70385 -3.6e-4,0.009 0.007,-0.0157 0.0107,-0.0236 -0.0356,0.41273 0.0583,0.64933 0.2972,0.9966 0.12669,0.13034 0.23454,0.28247 0.38006,0.39103 0.64418,0.48059 1.48942,0.60641 2.20497,0.22566 0.12689,-0.0882 0.33111,-0.19783 0.41779,-0.3466 0.008,-0.0134 -0.0214,0.0225 -0.0321,0.0338 -0.002,-6.8e-4 -0.005,-6.8e-4 -0.004,-0.003 0.009,-0.0219 0.0217,-0.0425 0.0326,-0.0637 0.23595,-0.54994 0.26719,-1.10973 -0.002,-1.65482 -0.23449,-0.36442 -0.38392,-0.5881 -0.77195,-0.77281 -0.004,-0.002 0.006,0.005 0.009,0.008 0.3044,0.13099 -0.023,-0.0155 -0.22154,-0.0502 -0.41309,-0.0721 -0.86378,-0.0559 -1.24876,0.12851 -0.13041,0.0625 -0.25139,0.14316 -0.37709,0.21474 -0.12783,0.11674 -0.26916,0.22007 -0.38349,0.35026 -0.21849,0.24879 -0.4063,0.57448 -0.42173,0.91464 0.003,0.0999 -0.002,0.20041 0.009,0.29963 0.0524,0.43909 0.27923,0.80373 0.60669,1.09152 0.37595,0.26944 0.29704,0.13216 0.90178,0.27985 0.2992,-0.0435 0.60923,-0.0393 0.8976,-0.13064 0.6349,-0.20123 1.1377,-0.73316 1.29555,-1.37622 0.003,-0.10742 0.002,0.009 -0.0127,0.0242 -0.0108,0.011 -0.0155,-0.059 -0.0163,-0.0435 -0.005,0.0824 0.0194,0.12516 -0.008,0.0657 -0.0931,-0.27969 -0.15324,-0.50095 -0.38272,-0.75051 -0.66658,-0.72497 -1.51177,-1.12972 -2.49514,-0.82136 -0.26814,0.1101 -0.47372,0.30961 -0.63412,0.55203 -0.0514,0.0979 -0.10931,0.19253 -0.15426,0.29357 -0.15711,0.3532 -0.18176,0.8035 -0.0801,1.17436 -0.86462,-3.4843 4.02647,-4.71618 4.89111,-1.23189 z"
       id="path23967"
       style="fill:#000000;fill-opacity:1;fill-rule:nonzero;stroke:none" />
    <path
       style="fill:#000000;fill-opacity:1;fill-rule:nonzero;stroke:none"
       id="path23969"
       d="m 481.87401,325.41638 c 0.17246,0.72568 0.10684,1.51659 -0.2335,2.18632 -0.091,0.179 -0.20711,0.34384 -0.31068,0.51576 -0.51579,0.68915 -1.18724,1.08702 -1.98166,1.36006 -1.21794,0.35253 -2.21672,0.0158 -3.03378,-0.97983 -0.34527,-0.42076 -0.40435,-0.80552 -0.52567,-1.28664 -0.15168,-0.77063 -0.0816,-1.54278 0.0896,-2.30146 0.0529,-0.15358 0.0932,-0.31221 0.15878,-0.46072 0.3446,-0.78022 0.99015,-1.49512 1.8338,-1.73631 0.34007,-0.0972 0.70255,-0.0797 1.05383,-0.11963 0.27256,0.0659 0.54697,0.12445 0.81771,0.19762 0.0562,0.0152 0.10819,0.0431 0.1612,0.067 0.41191,0.18643 0.76621,0.4274 1.11096,0.72038 0.62812,0.62404 1.027,1.42508 1.07707,2.32023 0.0109,0.19507 -0.0123,0.39056 -0.0184,0.58584 -0.0967,0.72857 -0.34145,1.44795 -0.85347,1.99357 -0.15718,0.1675 -0.34937,0.29769 -0.52405,0.44654 -0.1783,0.0934 -0.34994,0.20114 -0.53492,0.28034 -0.56385,0.24146 -1.20023,0.26223 -1.79257,0.12888 -0.22668,-0.051 -0.43027,-0.14125 -0.63913,-0.23097 -0.57814,-0.26551 -1.13089,-0.64505 -1.49727,-1.17989 -0.11796,-0.17222 -0.20866,-0.36186 -0.31301,-0.54278 -0.37372,-0.8936 -0.38297,-1.74224 -0.0305,-2.64477 0.0583,-0.1493 0.14657,-0.28492 0.21985,-0.42738 0.31024,-0.47707 0.66474,-0.95314 1.13511,-1.28389 0.15656,-0.1101 0.32612,-0.20014 0.48917,-0.3002 0.14268,-0.0599 0.2803,-0.13372 0.42802,-0.17943 1.04348,-0.32298 2.06773,-0.16285 2.92154,0.56 0.20954,0.17741 0.35964,0.41578 0.53947,0.62366 0.10196,0.1975 0.2189,0.38786 0.30588,0.5925 0.25237,0.59376 0.32669,1.29312 0.25391,1.93043 -0.0193,0.16836 -0.061,0.33334 -0.0914,0.50001 -0.1608,0.61434 -0.40611,1.24148 -0.84668,1.71174 -0.14315,0.1528 -0.30358,0.28815 -0.45538,0.43223 -0.65292,0.49053 -1.41893,0.7279 -2.23513,0.67835 -0.50978,-0.0309 -0.67045,-0.12824 -1.16715,-0.30008 -0.7354,-0.34785 -1.33523,-0.90518 -1.745,-1.6111 -0.0675,-0.11631 -0.12308,-0.23927 -0.18463,-0.3589 -0.35631,-0.79006 -0.43639,-1.659 -0.17961,-2.49396 0.0506,-0.16439 0.12941,-0.31856 0.19411,-0.47784 0.32244,-0.61769 0.77841,-1.16698 1.37991,-1.52713 0.1478,-0.0885 0.30568,-0.15862 0.45853,-0.23791 0.78563,-0.32719 1.49354,-0.35485 2.3148,-0.1326 0.38512,0.10421 0.61141,0.26249 0.95933,0.45845 0.74482,0.52849 1.27303,1.26643 1.54174,2.14222 0.0424,0.13827 0.0696,0.28085 0.10438,0.42125 0.0822,0.51554 0.15003,1.04753 0.1001,1.57094 -0.0153,0.16021 -0.0465,0.31845 -0.0698,0.47767 -0.17855,0.88424 -0.6868,1.67966 -1.46701,2.14394 -0.17339,0.10318 -0.36385,0.17401 -0.54577,0.261 -0.86044,0.29853 -1.76671,0.25469 -2.59652,-0.12088 -0.13827,-0.0626 -0.2667,-0.14523 -0.40005,-0.21785 -0.73192,-0.43962 -1.18635,-1.13513 -1.5079,-1.90556 -0.16696,-0.44456 -0.23608,-0.91316 -0.25773,-1.3853 0.0119,-0.18187 0.005,-0.36609 0.0356,-0.54558 0.12307,-0.70598 0.43675,-1.23816 0.90046,-1.77187 0.46551,-0.48876 1.06052,-0.78458 1.66429,-1.0565 0.83305,-0.37716 1.83134,-0.46768 2.65332,0.0239 0.31754,0.18991 0.55905,0.48618 0.83857,0.72927 0.40887,0.51823 0.51676,1.11101 0.69773,1.71667 0.13307,0.43829 0.20328,0.89106 0.24529,1.34631 0.0674,0.76488 -0.11447,1.54606 -0.59259,2.1584 -0.13335,0.17077 -0.3027,0.30957 -0.45404,0.46436 -0.52239,0.41033 -1.11093,0.62092 -1.75359,0.74201 -0.488,0.0803 -0.97997,0.0591 -1.46811,-0.005 -0.61599,-0.0873 -1.16119,-0.36486 -1.66923,-0.70998 -0.19221,-0.15004 -0.37364,-0.27604 -0.58914,-0.44914 -0.31725,-0.24964 -0.58624,-0.54672 -0.8217,-0.87487 -0.34185,-0.52184 -0.47258,-1.11095 -0.49452,-1.72447 -0.0305,-0.45944 0.051,-0.90621 0.16147,-1.34925 0.16988,-0.53745 0.44609,-1.01924 0.78802,-1.46283 0.29981,-0.3628 0.55643,-0.57767 0.7593,-0.75748 0.0619,-0.0541 0.69828,-0.56129 0.30685,-0.24524 0.35393,-0.30516 0.75758,-0.55812 1.21221,-0.67988 0.11375,-0.0304 0.23013,-0.0499 0.3452,-0.0748 0.0851,-0.009 0.33714,-0.054 0.25538,-0.0283 -0.0928,0.0291 -0.19247,0.0274 -0.28898,0.0388 -0.0121,6.8e-4 0.0236,-0.006 0.0356,-0.009 0.0497,-0.0112 0.0994,-0.0228 0.14941,-0.0328 0.17747,-0.0352 0.19644,-0.0353 0.37646,-0.0607 0.42546,-0.0698 0.85342,-0.0207 1.27331,0.0573 0.35924,0.0888 0.73251,0.1919 1.05048,0.38983 0.14033,0.0874 0.2781,0.17883 0.41716,0.26824 0.53365,0.36079 0.84986,0.92061 1.09092,1.49928 -0.0752,-0.19328 -0.0498,-0.12141 0.008,-2.9e-4 0.008,0.0175 -0.032,-0.0707 -0.023,-0.0535 0.0754,0.14538 0.0704,0.14673 0.13356,0.27956 0.01,0.0201 -0.0182,-0.0406 -0.0272,-0.061 0.23398,0.42729 0.35458,0.89494 0.41924,1.37498 0.0294,0.27456 0.0293,0.55082 0.0292,0.82658 -0.008,0.58426 -0.16771,1.14007 -0.39924,1.67061 -0.22569,0.43705 -0.0996,0.18636 -0.31094,0.60017 -0.22016,0.44405 -0.55036,0.78711 -0.87428,1.08883 -0.49256,0.38033 -0.31746,0.27813 -0.87427,0.59741 -0.22797,0.10125 -0.56405,0.28839 -0.99648,0.3554 -0.178,0.0276 -0.35816,0.0383 -0.53724,0.0574 -0.34334,0.006 -0.69119,-0.0317 -1.02191,-0.1277 -0.17745,-0.0515 -0.34161,-0.12246 -0.51668,-0.17406 -0.37922,-0.15428 -0.56226,-0.23243 -0.93478,-0.44169 0.005,0.003 0.0196,0.0135 0.0146,0.0103 -0.45491,-0.27775 -0.73044,-0.51671 -1.08605,-0.90718 -0.30854,-0.35996 -0.50737,-0.78751 -0.67972,-1.2253 -0.15913,-0.45046 -0.21954,-0.92396 -0.24644,-1.39857 -0.0242,-0.32481 -0.002,-0.64575 0.0242,-0.96971 0.0775,-0.47267 0.24535,-0.91947 0.42801,-1.35881 0.20053,-0.43111 0.45863,-0.84494 0.81369,-1.16584 0.13195,-0.11924 0.28149,-0.2171 0.42224,-0.32564 0.5092,-0.31799 1.06929,-0.47599 1.65703,-0.56134 0.40413,-0.0464 0.8114,-0.0472 1.21758,-0.0491 0.63356,-0.01 1.30962,0.0674 1.84866,0.43872 0.25015,0.17232 0.45911,0.39861 0.68866,0.59792 2.33609,2.71296 -1.47225,6.0413 -3.80833,3.32834 l 0,0 c 0.18733,0.15026 0.36014,0.32101 0.56199,0.4508 0.25462,0.16372 0.54808,0.21849 0.83957,0.26076 0.0522,0.008 0.10573,-0.002 0.15833,0.003 0.0884,0.007 -0.36491,-0.008 -0.26608,6e-5 -0.20338,6.9e-4 -0.40679,0.002 -0.61006,0.009 0.0733,-0.0214 0.14366,-0.045 0.21548,-0.0728 0.0113,-0.004 0.0439,-0.0203 0.0326,-0.0159 -0.13324,0.0523 -0.26953,0.14392 0.21634,-0.13345 0.24475,-0.20205 0.50136,-0.40558 0.6228,-0.70934 0.006,-0.0186 0.0255,-0.0736 0.0184,-0.0555 -0.0112,0.0284 -0.0778,0.21722 -0.0866,0.23778 -0.005,0.0115 0.0117,-0.0484 0.008,-0.0367 -0.0483,0.14171 -0.0643,0.2884 0.0205,-0.17983 0.0202,-0.51408 0.003,-0.0731 0.0121,0.0451 0.004,0.13782 -0.0201,-0.0294 -0.047,-0.0653 -0.0169,-0.0371 -0.0701,-0.14705 -0.0508,-0.11118 0.0204,0.0379 0.0788,0.15254 0.0541,0.1173 -0.14906,-0.21296 -0.12313,-0.2681 -0.19669,-0.31179 -0.11812,-0.12029 -0.15255,-0.16458 -0.28487,-0.24592 -0.0495,-0.0304 -0.20569,-0.10726 -0.15184,-0.0856 0.0606,0.0244 0.11486,0.0625 0.17229,0.0938 -0.14862,-0.0732 0.0572,0.0278 0.0442,0.0238 -0.0571,-0.0181 -0.22149,-0.0913 -0.16515,-0.071 0.0707,0.0255 0.13909,0.057 0.20819,0.0866 0.0263,0.0112 0.10568,0.0421 0.0778,0.0358 -0.047,-0.0106 -0.0906,-0.0326 -0.1359,-0.049 0.0598,0.0209 0.11978,0.0415 0.17941,0.0631 0.0245,0.009 0.0986,0.0314 0.0729,0.0279 -0.17169,-0.0233 -0.34165,-0.0957 -0.5209,-0.0576 -0.1542,0.0234 -0.28704,0.0278 -0.42738,0.0795 -0.0252,0.009 -0.54832,0.23874 -0.0536,0.0112 0.0293,-0.0135 -0.0577,0.0288 -0.0866,0.0432 -0.0644,0.0397 -0.12979,0.0778 -0.19328,0.119 -0.0201,0.013 -0.0768,0.057 -0.0571,0.0433 0.76364,-0.53048 -0.13232,0.0893 0.12277,-0.0847 -0.04,0.0397 -0.12919,0.175 -0.11982,0.11925 0.01,-0.057 0.15438,-0.17067 0.1206,-0.12389 -0.10363,0.14347 -0.24403,0.257 -0.31395,0.42288 0.0102,-0.0196 0.11173,-0.21613 0.11562,-0.21787 0.0397,-0.0178 -0.0749,0.15765 -0.0557,0.11848 0.0397,-0.081 0.0768,-0.16336 0.11718,-0.24404 0.0207,-0.0413 0.0291,-0.0944 0.0661,-0.12191 0.0325,-0.0242 -0.034,0.0738 -0.051,0.11071 -0.0318,0.11967 -0.0597,0.21253 -0.0525,0.42907 4e-5,-0.0761 -2e-5,-0.15209 -3.6e-4,-0.22815 -7e-5,-0.0147 -0.008,-0.0568 -3.7e-4,-0.0441 0.005,0.008 0.003,0.0175 0.005,0.0264 0.0276,0.1543 0.0659,0.30763 0.14502,0.44392 -0.12909,-0.25448 -0.25688,-0.50969 -0.36506,-0.77426 0.124,0.26739 0.23723,0.42591 0.45758,0.64876 0.072,0.0727 0.1601,0.12727 0.23723,0.1944 0.0272,0.0238 -0.0583,-0.0426 -0.0874,-0.064 0.35924,0.21784 0.41775,0.24335 0.26377,0.16452 -0.12228,-0.0626 -0.12091,-0.0576 0.21824,0.0767 0.0191,0.008 -0.0392,-0.0128 -0.0588,-0.019 0.0674,0.0152 0.1349,0.0304 0.20235,0.0455 -0.0333,-0.006 -0.0668,-0.0122 -0.10007,-0.019 -0.005,-6.8e-4 0.009,5.2e-4 0.0132,6.8e-4 0.0282,0.002 0.0564,0.008 0.0847,0.008 0.11615,6.5e-4 0.23228,-0.003 0.34842,-0.005 0.0147,-2.2e-4 -0.10867,2.3e-4 -0.0442,0.003 0.0349,-0.015 -0.0743,0.0158 -0.11169,0.0225 -0.13874,0.0246 -0.27857,0.0431 -0.41734,0.0677 -0.049,0.009 0.0986,-0.0132 0.14794,-0.0199 0.3753,-0.0885 0.74758,-0.21773 1.02974,-0.49417 -0.17713,0.1568 -0.14337,0.13196 -0.36299,0.29882 -0.0335,0.0254 0.11878,-0.11632 0.0979,-0.0797 -0.0347,0.0609 -0.13196,0.0955 -0.181,0.14837 0.16307,-0.15699 -0.0199,0.02 -0.11867,0.10792 -0.0263,0.0233 0.10067,-0.0987 0.0755,-0.0741 -0.0407,0.0399 -0.11654,0.17654 -0.12207,0.11962 -0.006,-0.0586 0.17861,-0.16223 0.11598,-0.13233 -0.0358,0.0315 0.0252,-0.0429 0.0658,-0.13439 0.14964,-0.33715 -0.22162,0.52269 0.0263,-0.10918 0.0554,-0.27597 0.0272,-0.115 0.0455,-0.42381 0.004,-0.0616 -0.009,0.24637 -1.4e-4,0.18524 -0.0434,-0.35085 -0.16318,-0.68155 -0.36541,-0.97428 -0.046,-0.0608 -0.44254,-0.49503 -0.20495,-0.24821 0.12341,0.10112 0.25566,0.19054 0.38178,0.28825 0.0133,0.0103 -0.028,-0.0187 -0.042,-0.028 -0.17265,-0.1036 -0.35655,-0.14483 -0.57756,-0.17375 0.1374,0.0186 0.12821,0.013 -0.0494,0.0209 -0.0363,0.002 0.1297,-0.009 0.0714,0.003 -0.29959,0.0759 -0.42757,0.1678 -0.67585,0.36516 -0.11266,0.12245 -0.23947,0.23308 -0.33797,0.36735 -0.23242,0.31685 -0.40974,0.73413 -0.42133,1.132 -0.003,0.0933 0.004,0.18672 0.005,0.28009 1.5e-4,0.0181 -0.002,-0.0363 -0.003,-0.0545 -0.008,-0.13852 -0.0288,-0.27453 -0.0749,-0.40623 -0.0229,-0.0836 -0.0458,-0.16721 -0.0686,-0.25081 -0.005,-0.0246 -0.01,-0.0497 -0.0162,-0.0742 -0.0778,-0.29618 -0.0581,-0.1715 -0.0242,-0.11086 0.004,0.006 -0.004,-0.0134 -0.005,-0.0201 0.10456,0.17023 0.20911,0.34047 0.31367,0.51071 0.24521,0.19935 0.45984,0.44453 0.73563,0.59807 0.50629,0.28189 0.94869,0.28004 1.49737,0.21939 0.10959,-0.0122 0.21233,-0.0599 0.31782,-0.0922 0.008,-0.002 0.0269,-0.0136 0.0198,-0.011 -0.0252,0.009 -0.0494,0.0204 -0.0742,0.0307 -0.19613,0.0832 0.12453,-0.0541 -0.22792,0.10588 -0.0153,0.007 -0.0595,0.0275 -0.0478,0.0155 0.0914,-0.094 0.23239,-0.13391 0.28544,-0.27034 0.29429,-0.39696 0.41463,-0.82639 0.39446,-1.32953 -0.002,0.0423 -0.0488,-0.25841 -0.0797,-0.24781 -0.13079,-0.26068 -0.35212,-0.47314 -0.60459,-0.61598 -0.46268,-0.21201 -0.91729,-0.24075 -1.39627,-0.0445 -0.10689,0.058 -0.21931,0.10672 -0.32069,0.17404 -0.39247,0.26065 -0.74383,0.72058 -0.81097,1.19783 -0.005,0.061 -0.0114,0.12192 -0.0131,0.18307 -5.2e-4,0.0199 0.005,0.0793 0.007,0.0594 0.004,-0.0391 -0.0209,-0.22471 0.002,-0.23751 0.11892,0.28726 0.32696,0.49662 0.59697,0.64973 0.46817,0.20782 1.00174,0.2398 1.47081,0.007 0.2797,-0.16933 0.52635,-0.36833 0.64914,-0.68369 0.15777,-0.46484 0.21847,-0.95941 -0.0198,-1.41044 -0.15038,-0.23498 -0.36763,-0.40702 -0.63066,-0.5021 -0.10707,-0.0284 -0.21236,-0.0648 -0.32122,-0.0851 -0.50879,-0.0949 -1.02894,0.10106 -1.42164,0.41765 -0.15433,0.16355 -0.45208,0.44262 -0.46339,0.70385 -3.6e-4,0.009 0.007,-0.0157 0.0107,-0.0236 -0.0356,0.41273 0.0583,0.64933 0.2972,0.9966 0.12669,0.13034 0.23454,0.28247 0.38006,0.39103 0.64418,0.48059 1.48942,0.60641 2.20497,0.22566 0.12689,-0.0882 0.33111,-0.19783 0.41779,-0.3466 0.008,-0.0134 -0.0214,0.0225 -0.0321,0.0338 -0.002,-6.8e-4 -0.005,-6.8e-4 -0.004,-0.003 0.009,-0.0219 0.0217,-0.0425 0.0326,-0.0637 0.23595,-0.54994 0.26719,-1.10973 -0.002,-1.65482 -0.23449,-0.36442 -0.38392,-0.5881 -0.77195,-0.77281 -0.004,-0.002 0.006,0.005 0.009,0.008 0.3044,0.13099 -0.023,-0.0155 -0.22154,-0.0502 -0.41309,-0.0721 -0.86378,-0.0559 -1.24876,0.12851 -0.13041,0.0625 -0.25139,0.14316 -0.37709,0.21474 -0.12783,0.11674 -0.26916,0.22007 -0.38349,0.35026 -0.21849,0.24879 -0.4063,0.57448 -0.42173,0.91464 0.003,0.0999 -0.002,0.20041 0.009,0.29963 0.0524,0.43909 0.27923,0.80373 0.60669,1.09152 0.37595,0.26944 0.29704,0.13216 0.90178,0.27985 0.2992,-0.0435 0.60923,-0.0393 0.8976,-0.13064 0.6349,-0.20123 1.1377,-0.73316 1.29555,-1.37622 0.003,-0.10742 0.002,0.009 -0.0127,0.0242 -0.0108,0.011 -0.0155,-0.059 -0.0163,-0.0435 -0.005,0.0824 0.0194,0.12516 -0.008,0.0657 -0.0931,-0.27969 -0.15324,-0.50095 -0.38272,-0.75051 -0.66658,-0.72497 -1.51177,-1.12972 -2.49514,-0.82136 -0.26814,0.1101 -0.47372,0.30961 -0.63412,0.55203 -0.0514,0.0979 -0.10931,0.19253 -0.15426,0.29357 -0.15711,0.3532 -0.18176,0.8035 -0.0801,1.17436 -0.86462,-3.4843 4.02647,-4.71618 4.89111,-1.23189 z"
       inkscape:connector-curvature="0" />
    <path
       style="fill:none;stroke:#000000;stroke-width:2.06220484;stroke-linecap:butt;stroke-linejoin:miter;stroke-miterlimit:4;stroke-opacity:1;stroke-dasharray:2.06220472, 4.12440945;stroke-dashoffset:0"
       d="m 478.64505,326.06387 -129.58949,0"
       id="path23971"
       inkscape:connector-curvature="0" />
    <path
       style="fill:none;stroke:#000000;stroke-width:2.06220484;stroke-linecap:butt;stroke-linejoin:miter;stroke-miterlimit:4;stroke-opacity:1;stroke-dasharray:2.06220472, 4.12440945;stroke-dashoffset:0"
       d="m 479.34176,335.81792 -129.58948,0"
       id="path23973"
       inkscape:connector-curvature="0" />
    <path
       style="fill:none;stroke:#000000;stroke-width:2.06220484;stroke-linecap:butt;stroke-linejoin:miter;stroke-miterlimit:4;stroke-opacity:1;stroke-dasharray:2.06220472, 4.12440945;stroke-dashoffset:0"
       d="m 479.34176,326.06387 0,137.25339"
       id="path23975"
       inkscape:connector-curvature="0" />
    <path
       style="fill:none;stroke:#000000;stroke-width:2.06220484;stroke-linecap:butt;stroke-linejoin:miter;stroke-miterlimit:4;stroke-opacity:1;stroke-dasharray:2.06220472, 4.12440945;stroke-dashoffset:0"
       d="m 526.71857,325.36716 0,138.64681"
       id="path23977"
       inkscape:connector-curvature="0" />
    <path
       style="fill:#000000;fill-opacity:1;fill-rule:nonzero;stroke:none"
       id="path24001"
       d="m 345.28856,324.7324 c 0.95211,0.19322 1.9322,0.0795 2.89485,0.0383 1.16649,-0.0313 2.3355,-0.12909 3.50108,-0.0485 0.4702,0.0185 0.91443,0.16483 1.35617,0.31148 1.4007,0.47161 0.73374,2.45249 -0.66696,1.98088 l 0,0 c -0.28251,-0.097 -0.54487,-0.20613 -0.85095,-0.20848 -1.07872,-0.098 -2.16936,0.0486 -3.24995,0.0529 -1.1301,0.0484 -2.27763,0.16176 -3.39416,-0.077 -1.44926,-0.28986 -1.03934,-2.33942 0.40992,-2.04957 z"
       inkscape:connector-curvature="0" />
    <path
       style="fill:#000000;fill-opacity:1;fill-rule:nonzero;stroke:none"
       id="path24003"
       d="m 346.34048,334.84572 c 1.02163,0.19619 2.07249,0.2214 3.10954,0.19488 1.47138,-0.0803 2.94189,-0.17174 4.41456,-0.22555 0.19256,-0.006 0.38511,-0.0112 0.57767,-0.0168 1.47734,-0.0428 1.53785,2.04648 0.0605,2.08927 l 0,0 c -0.18732,0.005 -0.37464,0.0108 -0.56196,0.0163 -1.4825,0.054 -2.96268,0.14818 -4.44401,0.22642 -1.22299,0.0241 -2.46186,-0.003 -3.66325,-0.25677 -1.43383,-0.35845 -0.9269,-2.3862 0.50694,-2.02774 z"
       inkscape:connector-curvature="0" />
    <path
       style="fill:#000000;fill-opacity:1;fill-rule:nonzero;stroke:none"
       id="path24011"
       d="m 480.04895,460.4436 c 0.16104,0.65402 0.24089,1.32139 0.29531,1.99141 0.0497,0.74854 0.0435,1.49943 0.0449,2.24921 -0.006,1.01133 -0.0285,2.01753 0.0906,3.0228 0.0757,0.54665 0.13493,1.09517 0.18766,1.64443 0.14102,1.47121 -1.93959,1.67065 -2.08062,0.19943 l 0,0 c -0.0512,-0.53494 -0.10936,-1.06907 -0.18309,-1.60146 -0.12515,-1.08503 -0.11758,-2.17019 -0.10469,-3.26141 -10e-4,-0.69497 0.005,-1.39094 -0.0381,-2.0849 -0.0445,-0.55588 -0.10669,-1.10969 -0.23968,-1.65258 -0.35846,-1.43383 1.66929,-1.94077 2.02775,-0.50693 z"
       inkscape:connector-curvature="0" />
    <path
       style="fill:#000000;fill-opacity:1;fill-rule:nonzero;stroke:none"
       id="path24015"
       d="m 527.41528,460.39038 c 0,1.05909 0,2.11819 0,3.17728 -0.0568,1.23799 0.099,2.46604 0.20592,3.69645 0.0661,0.79414 0.0954,1.59041 0.11944,2.3867 0.0444,1.47729 -2.04484,1.54005 -2.08921,0.0627 l 0,0 c -0.0226,-0.75688 -0.0501,-1.51377 -0.11254,-2.26864 -0.11194,-1.29039 -0.27032,-2.57904 -0.21376,-3.87726 0,-1.05909 0,-2.11819 0,-3.17728 0,-1.47797 2.09015,-1.47797 2.09015,0 z"
       inkscape:connector-curvature="0" />
    <path
       style="fill:#000000;fill-opacity:1;fill-rule:nonzero;stroke:none"
       id="path24103"
       d="m 260.70696,332.37288 c 0.48365,3.07523 0.49354,6.19394 0.56264,9.29282 0.0196,3.69846 0.34557,7.38873 0.57252,11.08036 0.0842,1.43738 0.14965,2.87572 0.18584,4.31466 10e-4,0.0647 0.002,0.12929 0.004,0.19393 0.0489,2.53304 -4.03969,2.59359 -4.08856,0.0606 l 0,0 c -9.8e-4,-0.0586 -0.002,-0.11716 -0.003,-0.17575 -0.0351,-1.40095 -0.0992,-2.80129 -0.18092,-4.20071 -0.22939,-3.73255 -0.55775,-7.46374 -0.57765,-11.2032 -0.0641,-2.88758 -0.079,-5.79027 -0.48401,-8.66002 -0.56706,-2.4842 3.44267,-3.18684 4.00973,-0.70264 z"
       inkscape:connector-curvature="0" />
    <path
       style="fill:#000000;fill-opacity:1;fill-rule:nonzero;stroke:none"
       id="path24105"
       d="m 253.85654,344.273 c 2.02592,-0.24923 4.0338,-0.58918 6.06062,-0.83602 1.65498,-0.13161 3.30643,0.043 4.95192,0.17923 2.8786,0.23863 2.49344,3.80547 -0.38517,3.56684 l 0,0 c -1.33115,-0.11046 -2.66526,-0.25835 -4.00521,-0.19725 -1.94646,0.23577 -3.87379,0.56715 -5.82021,0.80039 -2.83532,0.49684 -3.63726,-3.01635 -0.80195,-3.51319 z"
       inkscape:connector-curvature="0" />
    <path
       style="fill:#000000;fill-opacity:1;fill-rule:nonzero;stroke:none"
       id="path24107"
       d="m 274.15305,346.22407 c -0.34151,1.71902 -0.43819,3.47118 -0.38137,5.21258 0.10793,1.6955 0.27099,3.38796 0.43537,5.07987 0.0341,0.34416 0.0125,0.21577 0.0439,0.38745 0.37985,2.51144 -3.67385,2.98211 -4.0537,0.47066 l 0,0 c -0.0475,-0.33473 -0.0246,-0.15011 -0.0646,-0.55424 -0.17134,-1.76382 -0.34219,-3.52825 -0.44888,-5.29613 -0.0497,-2.06217 0.046,-4.14004 0.50224,-6.16913 0.70128,-2.45776 4.66834,-1.58882 3.96705,0.86894 z"
       inkscape:connector-curvature="0" />
    <path
       style="fill:#000000;fill-opacity:1;fill-rule:nonzero;stroke:none"
       id="path24109"
       d="m 269.71474,334.13388 c 1.18548,0.7559 2.17142,1.72118 2.98356,2.78442 0.5269,1.04072 0.93122,2.69741 -0.30147,3.55435 -0.34978,0.24317 -0.77749,0.38492 -1.16624,0.57739 -0.64774,-0.14608 -1.36387,-0.14538 -1.94322,-0.43823 -1.11188,-0.56204 -1.06609,-2.37887 -1.00293,-3.30726 0.11425,-0.91049 0.47457,-1.5994 1.04035,-2.35157 1.94241,-1.87663 4.97146,0.53018 3.02905,2.40681 l 0,0 c 0.59877,-1.0356 0.003,0.0392 -0.004,0.3281 -0.1363,0.15844 0.0132,0.39022 0.015,0.57192 0.003,0.34393 -2.30822,-2.96701 -2.17178,-0.67535 -0.85517,0.50804 -0.97432,0.44176 -1.08788,1.24959 -0.008,0.0555 0.1936,0.003 0.17991,0.0576 -0.53683,-0.72976 -1.22051,-1.38077 -2.02409,-1.89157 -2.31317,-1.52004 0.14032,-4.38626 2.45349,-2.86622 z"
       inkscape:connector-curvature="0" />
    <path
       style="fill:#000000;fill-opacity:1;fill-rule:nonzero;stroke:none"
       id="path24111"
       d="m 283.19725,346.10684 c 0.39376,2.06642 0.4779,4.16675 0.56178,6.25686 0.0475,1.35954 0.0746,2.71964 0.0824,4.0798 -0.003,1.48767 0.19302,0.32231 -3.47832,-0.90192 -0.0566,-0.0189 -0.14485,0.1628 -0.13005,0.11132 0.041,-0.14251 0.14192,-0.26631 0.21287,-0.39947 0.48157,-1.32539 0.77481,-2.69273 1.13222,-4.04577 0.61998,-1.93831 1.51361,-3.79029 2.63632,-5.54318 0.67831,-1.08913 1.50854,-2.58043 3.18813,-2.62619 0.53433,-0.0146 1.02659,0.26174 1.53989,0.39261 0.31554,0.33939 0.6757,0.65037 0.94663,1.01816 0.79538,1.07975 1.04893,3.0086 1.37163,4.26146 0.30173,1.77581 0.67865,3.52137 1.39496,5.20743 0.4764,0.74643 0.90742,1.77788 1.73464,2.3032 0.17214,0.1039 0.0893,0.0579 0.24702,0.13995 2.40638,1.40457 0.13927,4.38628 -2.2671,2.98171 l 0,0 c -0.537,-0.32337 -0.25846,-0.14201 -0.82906,-0.55171 -1.16423,-1.0512 -2.09871,-2.27955 -2.72579,-3.64237 -0.75573,-1.83439 -1.24373,-3.71791 -1.54365,-5.65007 -0.20821,-0.80962 -0.39822,-1.62917 -0.63545,-2.43252 -0.0538,-0.18215 -0.12188,-0.36087 -0.1885,-0.53973 -0.0447,-0.12 -0.28846,-0.34201 -0.14536,-0.35663 0.20754,-0.0212 0.33995,0.21293 0.50993,0.3194 0.33862,0.0375 0.68039,0.16749 1.01586,0.11241 0.33542,-0.0551 1.09971,-0.69375 0.87029,-0.4724 -0.39033,0.37657 -0.65632,0.8494 -0.92142,1.29387 -0.9391,1.45365 -1.67714,2.99077 -2.21581,4.59502 -0.42397,1.59375 -0.7496,3.21688 -1.41134,4.75321 -0.0985,0.1841 -0.53467,1.01674 -0.59744,1.01244 -3.95958,-0.27139 -3.79808,0.0944 -3.8002,-1.32225 -0.008,-1.32435 -0.0339,-2.64864 -0.08,-3.97239 -0.0755,-1.89663 -0.14795,-3.80206 -0.48488,-5.67962 -0.56706,-2.4842 3.44268,-3.18684 4.00974,-0.70263 z"
       inkscape:connector-curvature="0" />
    <path
       style="fill:#000000;fill-opacity:1;fill-rule:nonzero;stroke:none"
       id="path24113"
       d="m 298.77768,345.5856 c 0.87348,1.77198 0.97508,3.71935 1.3189,5.59978 0.22273,0.60416 0.49333,2.39262 1.59367,2.27703 0.90459,-0.35302 1.34905,-1.17036 1.82269,-1.88523 0.91301,-1.65298 1.18358,-3.49175 1.38319,-5.29945 0.0541,-0.61544 0.10388,-1.23268 0.0913,-1.85026 -0.0118,1.73738 4.07716,-1.4352 4.06198,0.43289 -0.0708,1.04585 0.14216,2.06841 0.35924,3.09264 0.70529,3.13382 1.18803,6.28701 1.31969,9.47941 0.0464,4.12479 -0.98605,7.09857 -3.52205,10.53509 -1.65722,1.83138 -4.08448,3.89438 -7.03809,3.46302 -0.55508,-0.0811 -1.05819,-0.33589 -1.58728,-0.50383 -2.46835,-1.527 -2.52771,-3.8299 -2.2161,-6.22508 0.36122,-2.51356 4.41833,-2.06598 4.05711,0.44758 l 0,0 c -0.13746,0.83239 -0.23896,1.6953 -0.10706,2.53279 0.38344,1.17311 3.21326,-1.2764 3.47164,-1.67878 2.01319,-2.64286 2.92879,-5.23895 2.85507,-8.44839 -0.11008,-3.0176 -0.59678,-5.99457 -1.2552,-8.95654 -0.25696,-1.24428 -0.49856,-2.49538 -0.426,-3.76499 1.7e-4,-0.0186 0.003,-0.47676 0.008,-0.47762 3.17129,-0.64169 4.0008,-1.67234 4.10671,-0.0364 0.0233,0.77055 -0.0424,1.54107 -0.10904,2.3088 -0.26533,2.33541 -0.6771,4.69042 -1.94575,6.79161 -1.61833,2.31455 -3.36015,3.92392 -6.70311,3.41737 -0.41584,-0.15692 -0.86071,-0.26457 -1.24751,-0.47076 -1.8486,-0.9854 -2.57232,-2.87795 -3.01162,-4.62099 -0.2721,-1.52297 -0.36875,-3.08809 -0.93745,-4.55743 -1.2931,-2.26595 2.36434,-3.86821 3.65745,-1.60226 z"
       inkscape:connector-curvature="0" />
    <path
       style="fill:#000000;fill-opacity:1;fill-rule:nonzero;stroke:none"
       id="path24115"
       d="m 247.61362,379.08777 c 0.54024,0.32512 1.60841,0.95096 2.2412,0.56297 0.78885,-0.60872 1.03274,-1.62323 1.12467,-2.4986 -0.044,-0.54575 -0.0889,-1.16651 -0.4689,-1.63219 -0.11072,-0.1357 -0.60409,-0.39318 -0.28651,0.0361 0.0658,0.25853 0.0832,0.14166 -0.19699,0.44062 -1.0286,1.09761 -1.49131,2.17245 -1.9467,3.53608 -0.61196,2.0979 -0.91339,4.18864 0.34271,6.12722 0.93232,1.11351 2.35643,1.79768 3.91686,1.94448 0.43029,-10e-4 0.67884,-0.14967 1.00992,-0.35586 2.55017,-1.19403 4.47745,1.96585 1.92728,3.15988 l 0,0 c -1.16921,0.4997 -2.24593,0.8683 -3.58673,0.73326 -2.85412,-0.46379 -5.33848,-1.63077 -6.90756,-3.84968 -0.24124,-0.43748 -0.52933,-0.8574 -0.72373,-1.31244 -1.03971,-2.43366 -0.5691,-5.03391 0.10692,-7.48322 0.83292,-2.35815 2.02679,-5.195 4.90424,-6.2101 0.53023,-0.18705 1.12278,-0.18849 1.68416,-0.28274 0.52607,0.12145 1.08668,0.16008 1.57821,0.36437 2.23686,0.92967 2.73012,3.35742 2.69738,5.27521 -0.45257,2.4557 -1.55861,4.74686 -4.49484,5.54042 -0.47366,0.0421 -0.94495,0.13393 -1.42096,0.12639 -1.62365,-0.0258 -3.19088,-0.79708 -4.39209,-1.68879 -2.04457,-1.79139 0.84689,-4.32479 2.89146,-2.5334 z"
       inkscape:connector-curvature="0" />
    <path
       style="fill:#000000;fill-opacity:1;fill-rule:nonzero;stroke:none"
       id="path24117"
       d="m 262.22709,376.04199 c 0.99242,2.15524 1.02218,4.5251 1.33002,6.80461 0.16412,1.78446 0.40874,3.5207 1.24617,5.16227 -0.29918,-0.30194 0.42974,0.61758 0.29423,0.48011 -0.1067,-0.10827 -0.12396,-0.32578 -0.28506,-0.34897 -0.87187,-0.12547 -1.78776,-0.24492 -2.64933,-0.0733 -0.65582,0.13061 -0.53605,1.09975 -0.58275,0.58114 0.0863,-1.6995 -0.20876,-3.39156 -0.37535,-5.08229 -0.24763,-2.06138 -0.32661,-4.08473 0.27368,-6.09731 0.84963,-1.985 2.46849,-3.28073 4.67068,-4.05633 2.24215,-0.55773 3.97139,0.365 5.4714,1.731 0.48939,0.53059 0.26696,0.32197 0.63821,0.64877 1.98692,1.84051 -0.98383,4.30248 -2.97075,2.46197 l 0,0 c -0.52703,-0.49977 -0.31062,-0.26913 -0.66884,-0.67746 -0.21222,-0.22203 -0.6966,-0.77707 -1.02278,-0.81341 -1.01609,0.28893 -1.72866,0.83637 -2.18908,1.69881 -0.61555,1.5334 -0.18424,3.21349 -0.12851,4.79599 0.18543,1.88428 0.50809,3.77107 0.37837,5.66579 -0.0636,0.51592 -0.10033,1.58441 -0.76716,1.81297 -2.4228,0.83043 -3.05571,0.12781 -3.83066,-1.28622 -0.97795,-1.97367 -1.3909,-4.04236 -1.56359,-6.18473 -0.25061,-1.87495 -0.29905,-3.8049 -0.92634,-5.62111 -1.2931,-2.26594 2.36434,-3.86821 3.65744,-1.60227 z"
       inkscape:connector-curvature="0" />
    <path
       style="fill:#000000;fill-opacity:1;fill-rule:nonzero;stroke:none"
       id="path24125"
       d="m 296.87573,377.44127 c -1.22876,1.01891 -2.3976,2.05549 -3.20206,3.3686 -0.8074,1.8761 -1.49321,3.87898 -0.43432,5.77382 1.312,1.4482 2.73708,1.2577 4.4699,0.54726 1.88791,-1.10945 2.88444,-2.60037 2.54721,-4.60853 -0.57532,-1.74713 -2.03151,-2.9064 -3.84645,-3.67022 -0.67813,-0.21263 -1.41128,-0.50649 -2.14967,-0.52192 -0.0693,-0.001 0.13191,0.0565 0.20048,0.0479 0.23809,-0.03 0.46523,-0.10738 0.69784,-0.16107 0.0527,-0.0216 0.10535,-0.0432 0.15803,-0.0648 -1.82325,1.96628 -4.997,-0.29287 -3.17375,-2.25915 l 0,0 c 0.21873,-0.20074 0.4375,-0.40147 0.65627,-0.60221 0.40047,-0.15758 0.77722,-0.37352 1.20137,-0.47275 1.38551,-0.32414 3.00682,0.4817 4.2543,0.83666 3.20158,1.4622 5.29853,3.42813 6.07981,6.60608 0.0254,0.56784 0.13074,1.1373 0.0756,1.7035 -0.27355,2.80804 -2.45111,5.16007 -5.16823,6.48811 -0.59504,0.19425 -1.16787,0.45209 -1.78511,0.58275 -3.32473,0.70376 -6.33668,-0.59734 -8.01893,-3.13107 -0.21006,-0.51655 -0.48669,-1.01589 -0.6302,-1.54965 -0.66389,-2.46935 0.24059,-5.04921 1.30834,-7.31117 1.04549,-1.56436 2.33206,-2.91792 3.86811,-4.13546 2.04457,-1.79139 4.93601,0.74202 2.89144,2.5334 z"
       inkscape:connector-curvature="0" />
    <path
       inkscape:connector-curvature="0"
       d="m 277.90215,376.04199 c 0.99242,2.15524 1.02217,4.5251 1.33001,6.80461 0.16413,1.78446 0.40874,3.5207 1.24617,5.16227 -0.29918,-0.30194 0.42974,0.61758 0.29424,0.48011 -0.10671,-0.10827 -0.12396,-0.32578 -0.28507,-0.34897 -0.87187,-0.12547 -1.78775,-0.24492 -2.64933,-0.0733 -0.65582,0.13061 -0.53605,1.09975 -0.58274,0.58114 0.0863,-1.6995 -0.20877,-3.39156 -0.37536,-5.08229 -0.24762,-2.06138 -0.32661,-4.08473 0.27369,-6.09731 0.84962,-1.985 2.46849,-3.28073 4.67067,-4.05633 2.24216,-0.55773 3.97141,0.365 5.47142,1.731 0.48939,0.53059 0.26695,0.32197 0.63818,0.64877 1.98695,1.84051 -0.98382,4.30248 -2.97073,2.46197 l 0,0 c -0.52705,-0.49977 -0.31062,-0.26913 -0.66884,-0.67746 -0.21221,-0.22203 -0.69662,-0.77707 -1.02279,-0.81341 -1.0161,0.28893 -1.72867,0.83637 -2.18908,1.69881 -0.61554,1.5334 -0.18424,3.21349 -0.12851,4.79599 0.18542,1.88428 0.50808,3.77107 0.37837,5.66579 -0.0636,0.51592 -0.10031,1.58441 -0.76715,1.81297 -2.42281,0.83043 -3.05572,0.12781 -3.83067,-1.28622 -0.97794,-1.97367 -1.3909,-4.04236 -1.56359,-6.18473 -0.2506,-1.87495 -0.29905,-3.8049 -0.92633,-5.62111 -1.29311,-2.26594 2.36434,-3.86821 3.65744,-1.60227 z"
       id="path24127"
       style="fill:#000000;fill-opacity:1;fill-rule:nonzero;stroke:none" />
    <path
       style="fill:#000000;fill-opacity:1;fill-rule:nonzero;stroke:none"
       id="path24129"
       d="m 309.25226,376.04199 c 0.99243,2.15524 1.02216,4.5251 1.33,6.80461 0.16414,1.78446 0.40874,3.5207 1.24617,5.16227 -0.29918,-0.30194 0.42972,0.61758 0.29424,0.48011 -0.10672,-0.10827 -0.12394,-0.32578 -0.28505,-0.34897 -0.87191,-0.12547 -1.78779,-0.24492 -2.64933,-0.0733 -0.65583,0.13061 -0.53605,1.09975 -0.58276,0.58114 0.0863,-1.6995 -0.20875,-3.39156 -0.37533,-5.08229 -0.24763,-2.06138 -0.32662,-4.08473 0.27365,-6.09731 0.84966,-1.985 2.46851,-3.28073 4.67067,-4.05633 2.24216,-0.55773 3.97141,0.365 5.47142,1.731 0.48939,0.53059 0.26695,0.32197 0.63822,0.64877 1.98691,1.84051 -0.98386,4.30248 -2.97077,2.46197 l 0,0 c -0.52705,-0.49977 -0.31062,-0.26913 -0.66884,-0.67746 -0.21221,-0.22203 -0.69662,-0.77707 -1.02279,-0.81341 -1.01605,0.28893 -1.72867,0.83637 -2.18905,1.69881 -0.61558,1.5334 -0.18424,3.21349 -0.12854,4.79599 0.18542,1.88428 0.50813,3.77107 0.37837,5.66579 -0.0636,0.51592 -0.10032,1.58441 -0.76715,1.81297 -2.42279,0.83043 -3.05573,0.12781 -3.83065,-1.28622 -0.97795,-1.97367 -1.39089,-4.04236 -1.56359,-6.18473 -0.25061,-1.87495 -0.29903,-3.8049 -0.92635,-5.62111 -1.29307,-2.26594 2.36434,-3.86821 3.65746,-1.60227 z"
       inkscape:connector-curvature="0" />
    <path
       style="fill:#000000;fill-opacity:1;fill-rule:nonzero;stroke:none"
       id="path24131"
       d="m 451.46487,486.09332 c 0.53033,2.13208 0.5231,4.33553 0.58376,6.50686 0.0731,4.07311 0.38793,8.13951 0.57405,12.20963 0.16658,2.05756 0.43039,4.10836 0.72678,6.15438 0.36391,2.51326 -3.69272,2.96418 -4.05663,0.45092 l 0,0 c -0.31092,-2.14809 -0.58771,-4.30128 -0.75601,-6.46192 -0.18683,-4.08887 -0.5032,-8.17398 -0.57612,-12.26587 -0.0526,-1.90823 -0.0352,-3.84584 -0.46288,-5.72505 -0.70129,-2.45776 3.26577,-3.32671 3.96705,-0.86895 z"
       inkscape:connector-curvature="0" />
    <path
       style="fill:#000000;fill-opacity:1;fill-rule:nonzero;stroke:none"
       id="path24137"
       d="m 465.87899,497.85268 c -1.19626,0.009 -1.96877,0.59362 -2.71547,1.35367 -1.65856,1.78827 -2.21227,4.05131 -2.62432,6.27106 -0.0175,0.65042 -0.23432,1.94101 0.77544,2.11778 0.0505,-0.0435 -0.0134,-0.12849 0.0297,-0.17291 0.29407,-0.30327 0.59355,-0.52218 0.85777,-0.87511 0.98462,-1.38313 1.18404,-3.0322 1.36827,-4.61927 0.13234,-1.40544 0.16184,-2.81636 0.16165,-4.22596 -0.002,-0.19443 -0.004,-0.38886 -0.008,-0.58326 4.5404,-0.22909 4.07688,-0.86501 4.07678,1.35136 -0.13475,1.30536 0.39331,2.49054 0.88012,3.70091 0.66756,1.65007 1.80204,2.97898 3.54301,3.8334 0.46318,0.21611 0.81562,0.3001 1.30611,0.18591 2.88846,-0.11546 3.07482,3.46358 0.18636,3.57904 l 0,0 c -1.29045,-0.003 -2.44071,-0.0807 -3.58119,-0.68484 -2.59587,-1.39659 -4.27695,-3.19819 -5.31354,-5.72913 -0.63004,-1.58424 -1.25302,-3.18152 -1.11001,-4.88542 9e-5,-2.24024 -0.43592,-1.60214 4.08494,-1.67341 0.0261,0.30119 0.02,0.60369 0.0248,0.90548 -2.4e-4,1.53345 -0.0343,3.06835 -0.18363,4.59694 -0.26979,2.22708 -0.66899,4.48132 -2.14337,6.37345 -1.66578,1.88701 -3.51961,2.89833 -6.27013,2.00194 -2.63168,-1.5372 -2.93976,-3.1139 -2.71933,-5.7806 0.56042,-2.93628 1.42361,-5.85486 3.70159,-8.16178 0.4141,-0.36048 0.78657,-0.76184 1.24229,-1.08146 1.78181,-1.24968 4.10894,-1.66094 6.25915,-1.00232 2.58621,1.13297 0.75749,4.3375 -1.82872,3.20453 z"
       inkscape:connector-curvature="0" />
    <path
       style="fill:#000000;fill-opacity:1;fill-rule:nonzero;stroke:none"
       id="path24143"
       d="m 481.37864,495.28071 c 1.07879,2.13035 1.45114,4.43081 1.74401,6.72626 0.17864,2.27945 0.56542,4.54038 0.84343,6.81126 0.0664,0.58994 0.14172,1.17939 0.1908,1.77073 4.9e-4,0.01 0.0104,0.14264 0.008,0.14257 -4.48892,-0.0981 -4.09147,0.80596 -4.09506,-1.38319 -10e-4,-1.89521 -9.8e-4,-3.79041 -9.8e-4,-5.68561 -0.12084,-2.32996 0.32958,-4.26325 1.94434,-6.13545 1.61399,-1.46011 3.82464,-1.63987 6.01285,-1.74539 1.591,-0.0959 2.38827,0.15217 3.59242,1.00814 1.9448,1.87473 -1.08119,4.2845 -3.02599,2.40977 l 0,0 c 0.88151,0.46546 0.27044,0.0657 -0.34795,0.15974 -1.00633,0.0456 -2.13604,0.0264 -3.05337,0.42234 -1.13763,0.99968 -1.03027,2.57704 -1.03316,3.88088 -2e-5,1.89348 -3.9e-4,3.78696 9.8e-4,5.68044 0.003,2.16758 0.17914,1.33663 -4.0802,1.50271 -0.0484,-0.54943 -0.11433,-1.09755 -0.17802,-1.64574 -0.27728,-2.26695 -0.66411,-4.52399 -0.84198,-6.79951 -0.23395,-1.87753 -0.5056,-3.75856 -1.33707,-5.51768 -1.2931,-2.26594 2.36434,-3.86821 3.65744,-1.60227 z"
       inkscape:connector-curvature="0" />
    <path
       style="fill:#000000;fill-opacity:1;fill-rule:nonzero;stroke:none"
       id="path24145"
       d="m 503.79914,494.93386 c 0.69777,0.30568 1.39553,0.61136 2.0933,0.91704 1.42125,0.62217 0.65709,0.21567 -0.78767,3.52532 -0.0346,0.0792 -0.71303,-0.0198 -1.28493,-0.0856 -1.00438,-0.16919 -2.04388,-0.47427 -3.07559,-0.36885 -1.11951,0.36014 -1.63337,1.45107 -2.02168,2.35615 -0.44919,1.58262 -1.18542,3.68938 -0.0601,5.18118 0.18057,0.11321 0.54054,0.53369 0.82414,0.3392 0.0435,-0.0298 0.0228,-0.10196 0.0643,-0.13381 0.80759,-0.61842 -0.11735,0.29908 0.53902,-0.39045 1.18327,-1.23231 1.39398,-2.88397 1.61877,-4.42388 0.0202,-0.88148 0.39134,-1.90427 -0.0808,-2.74932 0.0753,0.18915 0.2649,0.37829 0.4571,0.49054 1.62195,0.94729 1.07444,-0.61914 2.47856,-2.8466 1.37511,0.99473 1.90628,2.56184 2.43335,3.99738 1.10129,2.9394 1.32935,6.03285 1.52418,9.09882 0.13171,2.71611 0.1791,5.48031 -0.52045,8.14838 -0.46115,1.75884 -0.73879,2.13267 -1.53504,3.77197 -1.49332,2.34492 -3.36924,4.83885 -6.38157,5.8394 -0.5693,0.1891 -1.1815,0.2581 -1.77225,0.38714 -0.62847,-0.0225 -1.26589,0.0278 -1.88543,-0.0675 -2.39575,-0.36835 -4.52162,-1.84255 -5.64473,-3.70667 -0.28859,-0.479 -0.45195,-1.0083 -0.67793,-1.51245 -0.59718,-2.54889 0.13379,-3.9725 1.71746,-6.03818 1.66544,-2.07096 5.00816,-0.007 3.34273,2.06361 l 0,0 c -0.73438,0.839 -1.36547,1.64307 -1.21533,2.75478 0.53291,1.53372 1.61961,2.74988 3.53293,2.99826 2.56868,-0.24149 4.03822,-2.3548 5.23173,-4.14218 0.63857,-1.26401 0.88458,-1.59978 1.25917,-2.96412 0.65801,-2.39663 0.57454,-4.8921 0.46581,-7.33454 -0.17362,-2.76804 -0.3507,-5.5662 -1.34199,-8.22166 -0.25313,-0.72838 -0.5845,-1.408 -0.92135,-2.10353 -0.0107,-0.0222 0.0935,-0.04 0.0814,-0.011 0.5565,-1.08649 0.92317,-2.26418 1.6695,-3.25947 0.2921,-0.38955 1.45325,1.17111 1.52779,1.39231 0.59023,1.45316 0.54691,2.96425 0.30969,4.47961 -0.38792,2.54802 -0.99243,5.08557 -3.29125,6.87095 -0.42349,0.23515 -0.81428,0.52322 -1.27049,0.70544 -2.46141,0.98317 -4.82405,-0.009 -6.21573,-1.86436 -0.20469,-0.41282 -0.46298,-0.80829 -0.61408,-1.23848 -0.78943,-2.24747 -0.18214,-4.69937 0.5696,-6.87469 1.13948,-2.30699 2.57619,-4.14954 5.60035,-4.57064 1.36294,-0.0303 2.70418,0.11643 4.02462,0.42464 1.26084,0.16919 0.90099,4.13307 -0.50255,3.28736 -0.69777,-0.30568 -1.39554,-0.61136 -2.09331,-0.91704 -2.58619,-1.13297 -0.75747,-4.3375 1.82873,-3.20453 z"
       inkscape:connector-curvature="0" />
    <path
       style="fill:#000000;fill-opacity:1;fill-rule:nonzero;stroke:none"
       id="path24147"
       d="m 515.52812,499.82727 c 0.33306,0.61792 0.80174,0.82786 1.50234,1.02526 0.96573,0.23711 1.99033,0.36032 2.76006,-0.29033 0.86694,-0.86506 0.93396,-2.08082 0.79872,-3.17175 -0.19476,-0.82057 -0.53903,-1.86559 -1.68378,-1.86337 -1.23795,1.04911 -1.88349,2.4293 -2.48696,3.82323 -1.00323,2.81983 -1.34486,5.80156 -0.1885,8.6118 0.94687,1.51625 2.6022,1.89962 4.45225,1.83061 1.0702,-0.0779 2.04647,-0.41753 3.02398,-0.77586 2.68056,-0.9498 4.21363,2.37164 1.53307,3.32144 l 0,0 c -1.4679,0.50769 -2.92955,0.97602 -4.52994,1.03711 -0.55581,-0.007 -1.11471,0.0321 -1.66741,-0.0196 -3.02781,-0.28349 -5.40143,-1.86865 -6.68892,-4.25461 -0.19587,-0.53768 -0.44198,-1.06324 -0.58759,-1.61304 -0.82925,-3.13102 -0.20539,-6.42342 0.84533,-9.44398 1.08183,-2.36512 2.50557,-5.40614 5.75676,-5.94967 0.52138,-0.0872 1.06133,-0.0194 1.59199,-0.0291 0.41546,0.11793 0.84999,0.19322 1.24639,0.3538 2.15149,0.87155 3.11006,2.76472 3.4611,4.70426 0.15465,2.40451 -0.33481,4.75051 -2.54377,6.38135 -0.3719,0.20588 -0.72112,0.44722 -1.1157,0.61763 -1.70789,0.73757 -3.66517,0.5482 -5.4208,0.0821 -2.0113,-0.70843 -3.32172,-1.66845 -4.02567,-3.50835 -0.70128,-2.45776 3.26577,-3.32671 3.96705,-0.86895 z"
       inkscape:connector-curvature="0" />
    <path
       inkscape:connector-curvature="0"
       d="m 546.50347,500.11788 c 0.54024,0.32511 1.6084,0.95095 2.24119,0.56297 0.78885,-0.60872 1.03274,-1.62323 1.12467,-2.49861 -0.044,-0.54574 -0.0889,-1.1665 -0.4689,-1.63219 -0.11072,-0.13569 -0.60409,-0.39318 -0.28651,0.0361 0.0658,0.25852 0.0832,0.14165 -0.19699,0.44061 -1.02859,1.09761 -1.49131,2.17246 -1.94669,3.53609 -0.61196,2.0979 -0.91339,4.18864 0.3427,6.12721 0.93233,1.11352 2.35644,1.79769 3.91686,1.94448 0.4303,-0.001 0.67885,-0.14966 1.00993,-0.35585 2.55017,-1.19403 4.47744,1.96585 1.92727,3.15988 l 0,0 c -1.1692,0.4997 -2.24592,0.8683 -3.58673,0.73326 -2.85412,-0.46379 -5.33847,-1.63077 -6.90755,-3.84968 -0.24125,-0.43748 -0.52934,-0.85741 -0.72374,-1.31244 -1.0397,-2.43366 -0.5691,-5.03391 0.10693,-7.48323 0.83291,-2.35814 2.02678,-5.19499 4.90423,-6.21009 0.53024,-0.18705 1.12278,-0.1885 1.68417,-0.28275 0.52607,0.12146 1.08668,0.16008 1.5782,0.36437 2.23687,0.92968 2.73013,3.35743 2.69738,5.27522 -0.45256,2.4557 -1.55861,4.74686 -4.49484,5.54041 -0.47365,0.0421 -0.94494,0.13394 -1.42096,0.12639 -1.62364,-0.0257 -3.19087,-0.79707 -4.39208,-1.68879 -2.04458,-1.79138 0.84689,-4.32478 2.89146,-2.5334 z"
       id="path24149"
       style="fill:#000000;fill-opacity:1;fill-rule:nonzero;stroke:none" />
    <path
       inkscape:connector-curvature="0"
       d="m 561.11694,497.0721 c 0.99242,2.15524 1.02218,4.5251 1.33001,6.80461 0.16413,1.78446 0.40875,3.5207 1.24617,5.16227 -0.29918,-0.30194 0.42974,0.61758 0.29424,0.4801 -0.10671,-0.10826 -0.12396,-0.32578 -0.28507,-0.34896 -0.87187,-0.12547 -1.78775,-0.24492 -2.64933,-0.0733 -0.65581,0.13061 -0.53604,1.09975 -0.58274,0.58113 0.0863,-1.69949 -0.20876,-3.39156 -0.37536,-5.08228 -0.24762,-2.06138 -0.32661,-4.08473 0.27369,-6.09731 0.84962,-1.98501 2.46849,-3.28073 4.67067,-4.05633 2.24215,-0.55773 3.9714,0.365 5.47141,1.731 0.48939,0.53059 0.26695,0.32197 0.6382,0.64877 1.98693,1.8405 -0.98382,4.30248 -2.97075,2.46197 l 0,0 c -0.52703,-0.49978 -0.31061,-0.26913 -0.66884,-0.67746 -0.21222,-0.22203 -0.6966,-0.77707 -1.02277,-0.81341 -1.01609,0.28893 -1.72867,0.83636 -2.18909,1.6988 -0.61554,1.5334 -0.18424,3.2135 -0.12851,4.796 0.18543,1.88428 0.5081,3.77106 0.37838,5.66578 -0.0636,0.51593 -0.10034,1.58441 -0.76716,1.81297 -2.42281,0.83044 -3.05572,0.12782 -3.83067,-1.28621 -0.97794,-1.97368 -1.3909,-4.04236 -1.56359,-6.18474 -0.2506,-1.87495 -0.29905,-3.80489 -0.92633,-5.6211 -1.29311,-2.26595 2.36434,-3.86821 3.65744,-1.60227 z"
       id="path24151"
       style="fill:#000000;fill-opacity:1;fill-rule:nonzero;stroke:none" />
    <path
       inkscape:connector-curvature="0"
       d="m 595.76558,498.47138 c -1.22874,1.01891 -2.39762,2.05548 -3.20204,3.36859 -0.80745,1.87611 -1.49326,3.87899 -0.43435,5.77383 1.31202,1.44819 2.73707,1.25769 4.4699,0.54726 1.8879,-1.10945 2.88447,-2.60037 2.54722,-4.60854 -0.57533,-1.74712 -2.03152,-2.9064 -3.84644,-3.67022 -0.67814,-0.21262 -1.41128,-0.50649 -2.1497,-0.52191 -0.0693,-10e-4 0.13195,0.0565 0.20051,0.0479 0.2381,-0.03 0.46523,-0.10739 0.69785,-0.16108 0.0527,-0.0216 0.10533,-0.0432 0.15799,-0.0648 -1.82323,1.96627 -4.99699,-0.29287 -3.17375,-2.25915 l 0,0 c 0.21876,-0.20074 0.43752,-0.40147 0.65628,-0.60221 0.40046,-0.15758 0.77724,-0.37352 1.20137,-0.47275 1.38551,-0.32414 3.00683,0.4817 4.25431,0.83666 3.20156,1.4622 5.29854,3.42813 6.07982,6.60608 0.0252,0.56783 0.13073,1.13729 0.0756,1.7035 -0.27352,2.80804 -2.45107,5.16006 -5.16818,6.48811 -0.59505,0.19425 -1.16789,0.45209 -1.78513,0.58275 -3.32474,0.70375 -6.33669,-0.59734 -8.01891,-3.13107 -0.21008,-0.51655 -0.48673,-1.01589 -0.63024,-1.54965 -0.66388,-2.46936 0.24061,-5.04921 1.30834,-7.31117 1.04552,-1.56436 2.33207,-2.91792 3.86811,-4.13546 2.04457,-1.79139 4.93603,0.74201 2.89146,2.5334 z"
       id="path24153"
       style="fill:#000000;fill-opacity:1;fill-rule:nonzero;stroke:none" />
    <path
       style="fill:#000000;fill-opacity:1;fill-rule:nonzero;stroke:none"
       id="path24155"
       d="m 576.79199,497.0721 c 0.99242,2.15524 1.02218,4.5251 1.33002,6.80461 0.16412,1.78446 0.40874,3.5207 1.24617,5.16227 -0.29918,-0.30194 0.42973,0.61758 0.29423,0.4801 -0.10671,-0.10826 -0.12396,-0.32578 -0.28506,-0.34896 -0.87187,-0.12547 -1.78776,-0.24492 -2.64933,-0.0733 -0.65582,0.13061 -0.53605,1.09975 -0.58275,0.58113 0.0863,-1.69949 -0.20876,-3.39156 -0.37535,-5.08228 -0.24763,-2.06138 -0.32661,-4.08473 0.27368,-6.09731 0.84963,-1.98501 2.46849,-3.28073 4.67068,-4.05633 2.24214,-0.55773 3.97139,0.365 5.4714,1.731 0.48939,0.53059 0.26696,0.32197 0.6382,0.64877 1.98693,1.8405 -0.98382,4.30248 -2.97074,2.46197 l 0,0 c -0.52703,-0.49978 -0.31062,-0.26913 -0.66885,-0.67746 -0.21221,-0.22203 -0.69659,-0.77707 -1.02277,-0.81341 -1.01609,0.28893 -1.72867,0.83636 -2.18908,1.6988 -0.61555,1.5334 -0.18424,3.2135 -0.12851,4.796 0.18543,1.88428 0.50809,3.77106 0.37837,5.66578 -0.0637,0.51593 -0.10033,1.58441 -0.76716,1.81297 -2.42281,0.83044 -3.05572,0.12782 -3.83066,-1.28621 -0.97795,-1.97368 -1.39091,-4.04236 -1.56359,-6.18474 -0.25061,-1.87495 -0.29905,-3.80489 -0.92634,-5.6211 -1.2931,-2.26595 2.36434,-3.86821 3.65744,-1.60227 z"
       inkscape:connector-curvature="0" />
    <path
       inkscape:connector-curvature="0"
       d="m 608.1421,497.0721 c 0.99242,2.15524 1.02217,4.5251 1.33001,6.80461 0.16413,1.78446 0.40874,3.5207 1.24617,5.16227 -0.29918,-0.30194 0.42974,0.61758 0.29424,0.4801 -0.10671,-0.10826 -0.12396,-0.32578 -0.28507,-0.34896 -0.87187,-0.12547 -1.78775,-0.24492 -2.64933,-0.0733 -0.65582,0.13061 -0.53605,1.09975 -0.58274,0.58113 0.0863,-1.69949 -0.20877,-3.39156 -0.37536,-5.08228 -0.24762,-2.06138 -0.32661,-4.08473 0.27369,-6.09731 0.84962,-1.98501 2.46849,-3.28073 4.67067,-4.05633 2.24215,-0.55773 3.9714,0.365 5.47141,1.731 0.48939,0.53059 0.26695,0.32197 0.6382,0.64877 1.98693,1.8405 -0.98382,4.30248 -2.97075,2.46197 l 0,0 c -0.52703,-0.49978 -0.31061,-0.26913 -0.66884,-0.67746 -0.21222,-0.22203 -0.6966,-0.77707 -1.02277,-0.81341 -1.01609,0.28893 -1.72867,0.83636 -2.18909,1.6988 -0.61554,1.5334 -0.18424,3.2135 -0.12851,4.796 0.18543,1.88428 0.5081,3.77106 0.37838,5.66578 -0.0636,0.51593 -0.10034,1.58441 -0.76716,1.81297 -2.42281,0.83044 -3.05572,0.12782 -3.83067,-1.28621 -0.97794,-1.97368 -1.3909,-4.04236 -1.56359,-6.18474 -0.2506,-1.87495 -0.29905,-3.80489 -0.92633,-5.6211 -1.29311,-2.26595 2.36434,-3.86821 3.65744,-1.60227 z"
       id="path24157"
       style="fill:#000000;fill-opacity:1;fill-rule:nonzero;stroke:none" />
    <path
       style="fill:#000000;fill-opacity:1;fill-rule:nonzero;stroke:none"
       id="path24159"
       d="m 324.67782,348.75959 c 2.96768,-3.22123 5.80515,-6.5648 8.77784,-9.78684 3.91798,-4.18543 8.1852,-7.84768 13.76328,-9.44165 0.78161,-0.0526 1.56321,-0.10514 2.34482,-0.15772 0.98351,-0.0595 1.06766,1.33139 0.0842,1.3909 l 0,0 c -0.684,0.0361 -1.36801,0.0722 -2.05201,0.1083 -5.33804,1.47183 -9.36611,5.08851 -13.11613,9.04508 -2.98551,3.23562 -5.83317,6.59495 -8.81664,9.82723 -0.69672,0.69672 -1.68203,-0.28859 -0.98531,-0.9853 z"
       inkscape:connector-curvature="0" />
    <path
       style="fill:#000000;fill-opacity:1;fill-rule:nonzero;stroke:none"
       id="path24161"
       d="m 505.52107,468.66922 c 1.75051,3.72028 2.86023,7.72778 3.91681,11.6939 0.61846,2.56891 0.8289,5.20372 1.24972,7.80601 0.15693,0.97273 -1.21872,1.19466 -1.37565,0.22192 l 0,0 c -0.41153,-2.55678 -0.62332,-5.14399 -1.2206,-7.66947 -1.02197,-3.84174 -2.10013,-7.71943 -3.76514,-11.33545 -0.50694,-0.84489 0.68792,-1.56181 1.19486,-0.71691 z"
       inkscape:connector-curvature="0" />
  </g>
</svg>
