<?xml version="1.0" encoding="UTF-8" standalone="no"?>
<!-- Created with Inkscape (http://www.inkscape.org/) -->

<svg
   xmlns:dc="http://purl.org/dc/elements/1.1/"
   xmlns:cc="http://creativecommons.org/ns#"
   xmlns:rdf="http://www.w3.org/1999/02/22-rdf-syntax-ns#"
   xmlns:svg="http://www.w3.org/2000/svg"
   xmlns="http://www.w3.org/2000/svg"
   xmlns:sodipodi="http://sodipodi.sourceforge.net/DTD/sodipodi-0.dtd"
   xmlns:inkscape="http://www.inkscape.org/namespaces/inkscape"
   width="443.74927"
   height="223.84273"
   id="svg29733"
   version="1.1"
   inkscape:version="0.48.0 r9654"
   sodipodi:docname="BallOnHill.pdf">
  <defs
     id="defs29735" />
  <sodipodi:namedview
     inkscape:document-units="mm"
     pagecolor="#ffffff"
     bordercolor="#666666"
     borderopacity="1.0"
     inkscape:pageopacity="0.0"
     inkscape:pageshadow="2"
     inkscape:zoom="1.0149115"
     inkscape:cx="284.3565"
     inkscape:cy="31.425461"
     inkscape:current-layer="layer1"
     id="namedview29737"
     showgrid="false"
     fit-margin-top="0"
     fit-margin-left="0"
     fit-margin-right="0"
     fit-margin-bottom="0"
     inkscape:window-width="1280"
     inkscape:window-height="752"
     inkscape:window-x="0"
     inkscape:window-y="0"
     inkscape:window-maximized="1" />
  <metadata
     id="metadata29739">
    <rdf:RDF>
      <cc:Work
         rdf:about="">
        <dc:format>image/svg+xml</dc:format>
        <dc:type
           rdf:resource="http://purl.org/dc/dcmitype/StillImage" />
        <dc:title></dc:title>
      </cc:Work>
    </rdf:RDF>
  </metadata>
  <g
     inkscape:label="Layer 1"
     inkscape:groupmode="layer"
     id="layer1"
     transform="translate(-241.78495,-147.54768)">
    <path
       style="fill:#000000;fill-opacity:1;fill-rule:nonzero;stroke:none"
       id="path30262"
       d="m 681.40271,245.52274 c -2.3342,-8.14501 -6.1806,-15.54322 -10.66081,-22.68444 -5.69588,-8.22102 -12.531,-15.64879 -20.84408,-21.28596 -1.75353,-1.18909 -3.61245,-2.21483 -5.41868,-3.32224 -10.35718,-5.5112 -21.88958,-8.26706 -33.60752,-8.40912 -2.5292,-0.0307 -5.0563,0.15803 -7.58444,0.23705 -11.08222,0.6976 -21.85429,3.54719 -31.92559,8.20376 -6.71752,3.10593 -9.58544,5.07472 -15.9519,8.90911 -16.99777,11.4471 -32.2252,25.26068 -47.88205,38.42795 -12.67767,10.48056 -25.61467,20.81407 -39.87911,29.08855 -2.39664,1.39024 -4.87009,2.64364 -7.30512,3.96546 -9.73468,4.76803 -20.28581,8.59597 -31.30536,7.5351 -1.87799,-0.18079 -3.72132,-0.62447 -5.58197,-0.9367 -11.89381,-2.85072 -22.02967,-9.83635 -32.22707,-16.25302 -10.8305,-7.01667 -21.36981,-14.48071 -32.25927,-21.40405 -10.39595,-7.03527 -21.74308,-11.20633 -33.89282,-13.98481 -13.85133,-2.87883 -27.76602,-1.1806 -41.51357,1.26123 -10.73181,2.05214 -21.35868,5.11359 -31.10986,10.1354 -2.53733,1.30671 -4.94266,2.85521 -7.41398,4.28281 -2.56126,1.47563 -4.6481,-2.14653 -2.08685,-3.62215 l 0,0 c 2.59175,-1.4894 5.11524,-3.10445 7.77526,-4.4682 10.07025,-5.16292 21.03133,-8.32781 32.10558,-10.44395 14.30214,-2.53175 28.77828,-4.23978 43.17918,-1.21936 12.87906,2.97023 24.13456,7.13233 35.20043,14.53167 10.88186,6.92296 21.42053,14.37534 32.24225,21.39329 9.73285,6.12438 19.3894,12.84503 30.70727,15.67097 4.3309,0.76044 5.70297,1.23936 10.14516,1.05819 8.49777,-0.34657 16.49089,-3.55257 24.04269,-7.2111 2.36875,-1.28347 4.7751,-2.49985 7.10624,-3.8504 14.0913,-8.16382 26.85868,-18.38178 39.38032,-28.72824 15.82462,-13.30833 31.21511,-27.27204 48.41771,-38.8107 6.60354,-3.96823 9.54136,-5.98484 16.52312,-9.19574 10.53545,-4.84523 21.80117,-7.7967 33.38319,-8.51347 2.65101,-0.0773 5.30119,-0.27078 7.95304,-0.23192 12.40989,0.18185 24.60693,3.14752 35.55511,9.0217 1.91331,1.18034 3.88228,2.2749 5.73993,3.54103 8.72196,5.94474 15.90483,13.75725 21.87545,22.40877 4.68545,7.49133 8.71025,15.25981 11.14954,23.79778 0.78188,2.85064 -3.24954,3.95639 -4.03142,1.10575 z"
       inkscape:connector-curvature="0" />
    <path
       style="fill:#000000;fill-opacity:1;fill-rule:nonzero;stroke:none"
       id="path30280"
       d="m 327.12917,356.91186 c 9.16036,0.14381 18.31909,0.54072 27.47816,0.81534 23.3953,0.63495 46.79752,0.11701 70.19324,-0.22479 30.67935,-0.84752 61.36069,-1.44461 92.0442,-1.91955 2.15527,-0.0334 2.18967,4.14667 0.0344,4.18004 l 0,0 c -30.68415,0.47494 -61.36613,1.07224 -92.04613,1.91959 -23.42875,0.34227 -46.86401,0.86048 -70.29236,0.22401 -9.10865,-0.27319 -18.21689,-0.66374 -27.32675,-0.81595 -2.15459,0.0822 -2.23934,-4.09649 -0.0848,-4.17869 z"
       inkscape:connector-curvature="0" />
    <path
       style="fill:#000000;fill-opacity:1;fill-rule:nonzero;stroke:none"
       id="path30292"
       d="m 344.67076,371.20863 c -3.80437,-1.87513 -7.52102,-3.92982 -11.2891,-5.88279 -2.93548,-1.39482 -5.9477,-2.61876 -8.90223,-3.97583 -0.68093,-0.2585 -1.38294,-0.46862 -2.10538,-0.56662 0.27627,-4.71369 -0.2665,-3.84967 2.62308,-4.52838 2.89418,-0.85595 5.72407,-1.90008 8.37153,-3.35494 2.50896,-1.45072 5.2734,-2.44707 7.75382,-3.9421 0.90672,-0.55936 1.8463,-1.03392 2.81684,-1.46838 2.70808,-1.18479 4.38364,2.64502 1.67556,3.82982 l 0,0 c -0.82772,0.34917 -1.60253,0.78452 -2.37563,1.24331 -2.55094,1.47097 -5.29175,2.58934 -7.87234,4.00911 -2.98739,1.61273 -6.15207,2.82688 -9.41862,3.75384 -3.70027,0.86067 -3.2025,1.35728 -3.51014,-3.71465 -0.009,-0.1442 0.44672,0.15261 0.43285,0.0217 1.15431,0.14711 2.27556,0.48502 3.35341,0.91859 3.01466,1.38496 6.09089,2.62844 9.0811,4.06321 3.63171,1.88291 7.22455,3.8405 10.8686,5.69348 2.75815,1.06302 1.25481,4.96364 -1.50335,3.90062 z"
       inkscape:connector-curvature="0" />
    <path
       inkscape:connector-curvature="0"
       d="m 501.51902,345.89058 c 3.71663,2.04352 7.3376,4.26249 11.0145,6.38215 2.8701,1.5248 5.82453,2.88233 8.71536,4.37027 0.66868,0.28872 1.36058,0.53005 2.07791,0.66028 -0.48696,4.6966 0.0939,3.85774 -2.82312,4.40644 -2.92958,0.72556 -5.80338,1.642 -8.51329,2.97691 -2.57138,1.33697 -5.37764,2.2086 -7.92249,3.59112 -0.93084,0.51822 -1.89072,0.95025 -2.87974,1.34083 -2.75839,1.06241 -4.26087,-2.83855 -1.50247,-3.90097 l 0,0 c 0.84252,-0.31177 1.63604,-0.71201 2.4289,-1.13573 2.61422,-1.35533 5.40234,-2.34992 8.04388,-3.65277 3.05657,-1.47741 6.27243,-2.5487 9.57719,-3.32853 3.73508,-0.6942 3.26003,-1.2126 3.34037,3.86802 0.002,0.14446 -0.43945,-0.17245 -0.43144,-0.0411 -1.14657,-0.19862 -2.25158,-0.58638 -3.30894,-1.06776 -2.94966,-1.51849 -5.96715,-2.8984 -8.89015,-4.46557 -3.5438,-2.04356 -7.04543,-4.15999 -10.60289,-6.1742 -2.70781,-1.1854 -1.0314,-5.01483 1.67642,-3.82943 z"
       id="path30294"
       style="fill:#000000;fill-opacity:1;fill-rule:nonzero;stroke:none" />
    <path
       style="fill:#000000;fill-opacity:1;fill-rule:nonzero;stroke:none"
       id="path30330"
       d="m 562.24956,163.62781 c -0.68708,0.29746 -1.35351,0.63506 -2.01104,0.99261 -0.9647,0.51452 -1.83722,1.147 -2.65576,1.86662 -1.09845,0.98798 -1.88426,2.2409 -2.60123,3.51719 -0.88687,1.50674 -1.41772,3.12844 -1.70592,4.84226 -0.19234,1.71566 0.16917,3.3911 0.73386,5.00167 0.67715,1.73504 1.68923,3.29947 2.81226,4.77413 1.20799,1.53385 2.61088,2.88459 4.10408,4.13521 1.37342,1.10498 2.89679,1.96016 4.53676,2.59269 1.41138,0.49921 2.8683,0.61688 4.34761,0.49148 1.44841,-0.12931 2.83938,-0.60569 4.18268,-1.14084 1.22143,-0.51163 2.32273,-1.23233 3.36046,-2.04611 0.98705,-0.81755 1.79466,-1.81086 2.56258,-2.82902 0.78939,-1.06574 1.43986,-2.21976 2.04063,-3.3992 0.6198,-1.27367 1.10557,-2.60576 1.59221,-3.93418 0.362,-1.12282 0.63081,-2.26831 0.72948,-3.44448 0.0887,-1.0271 -0.0722,-2.0574 -0.29393,-3.0585 -0.24091,-0.90726 -0.6764,-1.73546 -1.17376,-2.5253 -0.5584,-0.82348 -1.26105,-1.52308 -1.99079,-2.19221 -0.72364,-0.6982 -1.5744,-1.23515 -2.43136,-1.75129 -0.84318,-0.4993 -1.78523,-0.79093 -2.71362,-1.08628 -0.95274,-0.34798 -1.9568,-0.47983 -2.95634,-0.61402 -0.966,-0.16971 -1.94346,-0.16993 -2.92039,-0.17215 -0.84007,0.0303 -1.6875,-0.0413 -2.52509,0.0389 -0.78243,0.0926 -1.56255,0.20375 -2.34391,0.30508 -0.63549,0.0418 -1.24303,0.17886 -1.85498,0.34101 -0.63106,0.1674 -1.26203,0.3351 -1.89302,0.50277 -0.48834,0.12977 -0.97668,0.25954 -1.46503,0.38931 -0.0691,0.0184 -0.13813,0.0367 -0.2072,0.0551 -0.0267,0.009 -0.0534,0.0181 -0.0801,0.0272 -2.82085,0.88335 -4.07009,-3.10593 -1.24924,-3.98928 l 0,0 c 0.32407,-0.0988 0.16959,-0.0551 0.46291,-0.13304 0.48837,-0.12978 0.97674,-0.25956 1.46511,-0.38934 0.63193,-0.16792 1.26385,-0.33587 1.89586,-0.50352 0.78608,-0.20829 1.57572,-0.37801 2.38811,-0.44575 0.85275,-0.11057 1.70385,-0.23506 2.55881,-0.32731 0.95126,-0.0651 1.90477,-0.0441 2.85795,-0.0514 1.16001,0.003 2.3213,0.0172 3.46886,0.20964 1.23986,0.16785 2.48283,0.35207 3.66695,0.77387 1.23986,0.39572 2.48438,0.81255 3.6043,1.49019 1.09528,0.66213 2.17196,1.3649 3.10092,2.25319 1.00784,0.92887 1.96356,1.91574 2.71576,3.06922 0.73761,1.20528 1.38022,2.46725 1.70735,3.85214 0.29544,1.41756 0.50875,2.86559 0.36844,4.31646 -0.15027,1.53362 -0.46946,3.03724 -0.96691,4.49792 -0.5449,1.48699 -1.0937,2.97623 -1.795,4.39845 -0.71468,1.39449 -1.48918,2.75852 -2.42784,4.0171 -0.99079,1.30898 -2.04929,2.57178 -3.33189,3.60897 -1.3581,1.04908 -2.79702,1.98255 -4.39258,2.63467 -1.73644,0.67947 -3.52843,1.27008 -5.39877,1.42028 -2.10825,0.14817 -4.19025,-0.0303 -6.19003,-0.7674 -2.05602,-0.81481 -3.98237,-1.87981 -5.7011,-3.28443 -1.72796,-1.45581 -3.35382,-3.02598 -4.74725,-4.81173 -1.38469,-1.83624 -2.62666,-3.78487 -3.43692,-5.95005 -0.76291,-2.28614 -1.23296,-4.6482 -0.8953,-7.06657 0.38901,-2.17978 1.05784,-4.26149 2.185,-6.18225 0.95635,-1.68395 2.02633,-3.31429 3.48969,-4.60807 1.0552,-0.9179 2.17868,-1.73345 3.41497,-2.39433 0.69837,-0.37738 1.40332,-0.74319 2.1332,-1.05623 2.64386,-1.32193 4.51335,2.41705 1.86949,3.73898 z"
       inkscape:connector-curvature="0" />
    <path
       style="fill:#000000;fill-opacity:1;fill-rule:nonzero;stroke:none"
       id="path30336"
       d="m 422.46559,338.46722 c -2.66825,0.87211 -4.11636,2.70172 -5.23975,4.81777 -0.67676,2.0464 -2.13061,5.20359 -0.13564,7.03496 0.16501,0.0509 0.31933,0.1554 0.49504,0.15275 0.11313,-0.002 0.18319,-0.11198 0.27766,-0.16441 1.73747,-0.96415 2.65149,-2.28465 3.63712,-3.80197 2.62123,-4.57122 3.3845,-9.66003 3.61801,-14.67701 -0.17141,-2.89707 0.0218,-6.15467 -1.32,-8.90197 -0.69111,-1.00549 -0.68236,-0.38304 0.293,-0.18002 0.23564,0.049 0.51143,-0.18336 0.72175,-0.0813 0.1366,0.0663 -0.24191,0.1703 -0.36287,0.25545 -0.7179,0.98194 -1.13692,2.14196 -1.52072,3.24818 -0.88269,3.20504 -0.37129,6.46113 0.2601,9.65747 1.04806,4.21971 2.63287,8.4295 5.31408,12.12499 0.53451,0.48079 1.13175,1.82203 2.17162,1.79899 0.24132,-0.005 0.35786,-0.27317 0.54416,-0.40246 2.13875,-0.78213 3.45223,1.76495 1.31348,2.54707 l 0,0 c -0.52826,0.15568 -1.02913,0.41071 -1.5848,0.46703 -2.52006,0.25544 -4.04802,-1.40638 -5.26608,-2.97357 -2.86117,-4.01848 -4.65106,-8.52739 -5.74598,-13.1098 -0.70266,-3.61074 -1.22562,-7.29011 -0.16872,-10.89727 0.57279,-1.61479 1.17587,-3.34619 2.57422,-4.59558 2.15775,-1.50529 3.55008,-0.60343 4.54153,1.15955 1.34955,3.16815 1.48814,6.66816 1.53002,9.99641 -0.27369,5.45561 -1.1305,10.97321 -4.03851,15.9249 -1.63067,2.39025 -4.51821,6.3889 -8.5919,4.93047 -0.5358,-0.19182 -0.92943,-0.59068 -1.39415,-0.88603 -0.32142,-0.43334 -0.72374,-0.83095 -0.96426,-1.30002 -1.37765,-2.68662 -0.17344,-5.88453 0.80573,-8.48664 1.62115,-2.907 3.80548,-5.3691 7.58915,-6.38087 2.28644,-0.38508 2.93313,2.33787 0.64671,2.72296 z"
       inkscape:connector-curvature="0" />
    <path
       style="fill:#cccccc;stroke:none"
       d="m 418.18985,301.69134 c -4.59834,-1.77041 -20.20657,-10.90302 -34.68496,-20.29469 -14.47839,-9.39167 -29.2275,-18.54691 -32.7758,-20.34497 -17.26921,-8.75096 -37.02077,-11.99137 -56.39971,-9.25283 -15.40802,2.17738 -31.2839,6.31473 -39.57042,10.31228 l -7.04923,3.40066 -1.39652,-7.83442 c -1.61763,-9.07478 -1.26229,-9.57836 10.52179,-14.91136 12.98221,-5.87523 29.23469,-9.32555 47.09315,-9.99764 27.2196,-1.02439 36.257,2.22339 72.45864,26.03955 13.02862,8.5712 28.3625,17.89856 34.07529,20.72746 9.69048,4.79861 11.23201,5.14111 22.99168,5.10833 10.26759,-0.0286 14.02585,-0.66317 20.26869,-3.42222 17.97713,-7.94506 30.88619,-17.03254 67.63858,-47.61493 12.29356,-10.22972 26.24848,-21.30668 31.01092,-24.61548 38.20369,-26.54273 81.65084,-25.77495 108.40365,1.91567 12.7969,13.24548 21.55744,30.55327 21.40537,42.28958 l -0.0649,5.00724 -3.61261,-6.96717 c -15.30985,-29.52632 -40.24164,-43.65921 -74.28996,-42.11224 -24.84817,1.12897 -42.34147,9.16614 -71.37117,32.79097 -8.18304,6.65948 -22.27833,18.14716 -31.3229,25.52819 -40.96022,33.42658 -62.4853,42.27328 -83.32955,34.24802 z"
       id="path30344"
       inkscape:connector-curvature="0" />
    <g
       id="g30346">
      <path
         inkscape:connector-curvature="0"
         d="m 439.82305,276.0686 c -1.32831,3.27746 -3.67816,5.8248 -5.86352,8.46719 -1.89342,2.02948 -3.77138,4.06407 -5.47644,6.27483 -0.10018,0.13469 -0.20036,0.26939 -0.30054,0.40408 -1.32485,1.77951 -3.70551,-0.20109 -2.38066,-1.98059 l 0,0 c 0.11128,-0.14934 0.22256,-0.29868 0.33384,-0.44801 1.72799,-2.23738 3.61725,-4.31174 5.54313,-6.3583 2.01648,-2.43765 4.21487,-4.76199 5.4345,-7.7914 0.95802,-2.02545 3.6677,-0.59324 2.70969,1.4322 z"
         id="path30268"
         style="fill:#000000;fill-opacity:1;fill-rule:nonzero;stroke:none" />
      <path
         inkscape:connector-curvature="0"
         d="m 425.73264,274.73241 c 2.67871,1.49995 4.98008,3.55904 7.20715,5.7058 2.26341,2.36628 4.56582,4.67496 7.1963,6.58002 0.26258,0.15093 0.52517,0.30188 0.78775,0.45281 1.87392,1.09725 0.40599,3.8987 -1.46793,2.80145 l 0,0 c -0.34507,-0.20487 -0.69014,-0.40973 -1.0352,-0.6146 -2.74069,-1.99505 -5.16848,-4.37498 -7.52333,-6.85438 -2.0197,-1.95093 -4.09346,-3.83313 -6.51958,-5.20669 -1.91604,-1.01272 -0.56119,-3.87712 1.35484,-2.86441 z"
         id="path30270"
         style="fill:#000000;fill-opacity:1;fill-rule:nonzero;stroke:none" />
    </g>
    <path
       style="fill:none;stroke:#000000;stroke-width:2.41653538;stroke-linecap:butt;stroke-linejoin:miter;stroke-miterlimit:4;stroke-opacity:1;stroke-dasharray:2.41653543, 4.83307087;stroke-dashoffset:0"
       d="m 526.71856,231.88745 0,134.02088"
       id="path30274"
       inkscape:connector-curvature="0"
       sodipodi:nodetypes="cc" />
    <path
       style="fill:none;stroke:#000000;stroke-width:2.41653538;stroke-linecap:butt;stroke-linejoin:miter;stroke-miterlimit:4;stroke-opacity:1;stroke-dasharray:2.41653543, 4.83307087;stroke-dashoffset:0"
       d="m 319.09669,232.70369 0,135.16323"
       id="path30272"
       inkscape:connector-curvature="0" />
    <path
       style="fill:#000000;fill-opacity:1;fill-rule:nonzero;stroke:none"
       id="path30350"
       d="m 252.76436,163.04205 c 0.99588,0.2364 1.99176,0.47279 2.98764,0.70919 0.15453,0.0367 0.30905,0.0734 0.46358,0.11004 -0.44173,3.16256 -0.12984,2.72704 -2.34014,2.72441 -1.3895,-0.13325 -2.63046,0.22512 -3.8949,0.7157 -0.91288,0.48963 -1.7108,1.01353 -2.19116,1.90887 -0.1704,0.53454 0.79027,0.82367 1.2304,1.02126 1.82549,0.50738 3.59378,1.08732 5.29826,1.89442 1.52773,0.86406 2.6715,2.00133 2.58099,3.76247 -0.70655,1.8852 -2.66638,2.24187 -4.52384,2.52296 -0.96985,0.0119 -1.85388,0.1898 -2.66368,0.60258 -0.0345,0.0407 -0.069,0.0814 -0.10346,0.12212 -1.46759,1.37719 -3.51884,-0.59347 -2.05124,-1.97066 l 0,0 c 0.15383,-0.13601 0.30767,-0.27203 0.46151,-0.40805 1.19193,-0.7086 2.49342,-1.04256 3.904,-1.08312 0.39673,-0.0581 2.13525,-0.64107 2.08857,-0.1817 0.0329,0.099 0.19554,0.36689 0.17028,0.26595 -0.13389,-0.53516 -0.75967,-0.84565 -1.16569,-1.15321 -1.7363,-0.82259 -3.56179,-1.3304 -5.38897,-1.93928 -1.89214,-1.04163 -3.45309,-2.57067 -2.40215,-4.77682 0.84995,-1.44089 2.10241,-2.41882 3.65546,-3.15382 1.60901,-0.62044 3.24192,-1.05155 4.99928,-0.92037 2.18887,0.003 2.03412,-0.48634 1.62874,2.73425 -0.15453,-0.0367 -0.30905,-0.0733 -0.46358,-0.11003 -0.99587,-0.2364 -1.99175,-0.47279 -2.98763,-0.70919 -2.00179,-0.47517 -1.29405,-3.16314 0.70773,-2.68797 z"
       inkscape:connector-curvature="0" />
    <path
       style="fill:#000000;fill-opacity:1;fill-rule:nonzero;stroke:none"
       id="path30352"
       d="m 266.13718,157.16772 c 0.5377,2.73234 0.65726,5.51883 0.77408,8.29016 0.0963,2.71144 0.11063,5.42471 0.11705,8.13745 -1.6e-4,1.01831 0.001,2.03665 -0.004,3.05496 -0.011,1.95916 -2.92899,1.94446 -2.91804,-0.0147 l 0,0 c 0.006,-1.01134 0.004,-2.02271 0.004,-3.03406 -0.006,-2.67797 -0.0202,-5.35646 -0.11474,-8.03317 -0.11007,-2.62601 -0.21751,-5.26709 -0.71974,-7.85726 -0.40466,-1.92114 2.45676,-2.46451 2.86142,-0.54338 z"
       inkscape:connector-curvature="0" />
    <path
       style="fill:#000000;fill-opacity:1;fill-rule:nonzero;stroke:none"
       id="path30354"
       d="m 261.28109,164.73735 c 1.76744,0 3.53488,0 5.30231,0 1.07819,0 2.15637,0 3.23455,0 0.20696,0 0.41391,0 0.62086,0 2.0634,0 2.0634,2.77069 0,2.77069 l 0,0 c -0.20695,0 -0.4139,0 -0.62086,0 -1.07818,0 -2.15636,0 -3.23455,0 -1.76743,0 -3.53487,0 -5.30231,0 -2.06339,0 -2.06339,-2.77069 0,-2.77069 z"
       inkscape:connector-curvature="0" />
    <path
       style="fill:#000000;fill-opacity:1;fill-rule:nonzero;stroke:none"
       id="path30356"
       d="m 280.54417,166.58448 c -1.89095,0.17876 -2.97285,1.38166 -3.71575,2.92864 -0.76397,2.18566 -1.11478,4.48264 -0.54689,6.74089 0.001,0.0579 0.55977,1.08963 0.85006,0.85672 0.0994,-0.0798 -0.19728,-0.24837 -0.12513,-0.35124 0.12472,-0.17784 0.33208,-0.28842 0.49812,-0.43262 1.46192,-1.79506 1.71858,-4.0714 1.98156,-6.25347 0.16215,-1.71377 0.21682,-3.43557 0.21073,-5.15576 -0.0117,-1.27082 -0.31697,-1.07656 2.65665,0.22919 0.12007,0.0527 -0.0721,0.24192 -0.0989,0.36491 -0.0507,0.23237 -0.089,0.46702 -0.13355,0.70053 -0.59065,2.57694 -0.0235,4.98527 0.76352,7.44668 0.24961,0.79714 1.75009,3.89933 3.04662,3.43355 0.25861,-0.24952 0.12008,-0.10985 0.41143,-0.42267 1.67586,-1.14299 3.37828,1.10732 1.70242,2.25032 l 0,0 c -1.48863,0.88992 -0.67478,0.57291 -2.45292,0.92428 -0.44137,-0.0851 -0.90283,-0.10422 -1.32411,-0.25545 -2.25921,-0.81103 -3.41339,-3.1419 -4.17643,-5.12749 -0.91759,-2.88724 -1.51169,-5.75582 -0.83719,-8.76706 0.11733,-0.56552 0.31837,-1.64991 0.4296,-1.66656 3.07694,-0.4608 2.90849,-0.46923 2.93095,0.88098 0.006,1.82956 -0.0531,3.66085 -0.23008,5.48325 -0.35776,2.90263 -0.83536,5.84216 -3.01727,8.06731 -2.81137,2.10229 -4.62477,1.40299 -5.93663,-1.61285 -0.62689,-2.89289 -0.32131,-5.78457 0.77826,-8.55495 1.40173,-2.58797 3.1509,-4.22774 6.33495,-4.47783 2.0634,0 2.0634,2.7707 0,2.7707 z"
       inkscape:connector-curvature="0" />
    <path
       style="fill:#000000;fill-opacity:1;fill-rule:nonzero;stroke:none"
       id="path30358"
       d="m 291.41788,154.86226 c 1.28739,3.08515 1.43141,6.46289 1.64508,9.73718 0.18687,3.56113 0.22089,7.12732 0.23455,10.69218 0.001,1.19572 0.001,2.39148 -0.009,3.58717 -0.36434,-1.65303 -0.95692,-1.40449 -2.23143,-0.93154 -0.0257,0.01 -10e-4,-0.19307 0.11357,-1.27215 0.0826,-2.44907 0.73631,-4.75848 1.86277,-6.94828 1.15957,-2.11349 2.97204,-3.60822 5.2481,-4.54125 3.45055,-0.75176 4.14186,2.63178 4.49144,5.08529 0.39824,2.90698 0.31628,5.23853 -1.41308,7.73118 -1.99876,1.90208 -4.58843,2.32724 -7.30088,2.15139 -1.50795,-0.0892 -2.89237,-0.63706 -4.01126,-1.58948 -0.15592,-0.38128 -0.31184,-0.76256 -0.46776,-1.14384 0.006,-1.95917 2.92371,-1.95161 2.91807,0.008 l 0,0 c -0.15616,-0.29914 -0.31231,-0.59827 -0.46847,-0.8974 0.58967,0.57277 1.4237,0.80876 2.24486,0.86001 1.66066,0.12862 3.28944,0.001 4.68659,-0.96587 1.36279,-1.70894 1.15967,-3.75634 0.91854,-5.79385 -0.11366,-0.85917 -0.40883,-1.70552 -0.52562,-2.5463 -0.0223,-0.16064 0.21422,-0.25408 0.30456,-0.30942 -0.0106,-0.0765 -0.16042,-0.0249 -0.24063,-0.0373 -1.64562,0.64028 -2.93207,1.70736 -3.77,3.21989 -1.00192,1.88324 -1.50233,3.89154 -1.57501,6.0061 -0.0838,0.73881 -0.0662,1.91358 -0.59627,2.53261 -1.08079,1.26216 -2.71974,0.97909 -3.10607,-0.64028 0.0103,-1.18469 0.01,-2.36945 0.009,-3.55417 -0.0134,-3.51131 -0.0464,-7.0239 -0.22903,-10.53158 -0.18815,-2.90651 -0.29965,-5.90108 -1.34255,-8.66877 -0.92278,-1.75234 1.68723,-2.99143 2.61001,-1.23909 z"
       inkscape:connector-curvature="0" />
    <path
       style="fill:#000000;fill-opacity:1;fill-rule:nonzero;stroke:none"
       id="path30360"
       d="m 309.8932,157.91651 c 0.57067,3.11088 0.67576,6.2789 0.78961,9.42844 0.0805,2.79338 0.1083,5.58782 0.11674,8.38213 0.11133,0.54505 0.65941,0.89595 -0.39482,-0.027 1.9482,0.64545 0.98684,3.26146 -0.96137,2.61601 l 0,0 c -1.16124,-0.81749 -1.40021,-1.1984 -1.56188,-2.5811 -0.008,-2.76534 -0.0357,-5.53081 -0.11504,-8.29523 -0.1064,-2.95618 -0.20805,-5.92611 -0.7042,-8.85129 -0.50045,-1.90069 2.33051,-2.57268 2.83096,-0.672 z"
       inkscape:connector-curvature="0" />
    <path
       style="fill:#000000;fill-opacity:1;fill-rule:nonzero;stroke:none"
       id="path30362"
       d="m 313.80659,167.50804 c 1.90381,-0.054 3.83191,0.2137 5.6748,-0.32175 1.25652,-0.58075 2.12878,-1.45455 2.67526,-2.65241 0.26029,-0.91855 0.48792,-0.96142 -0.34525,-1.21893 -1.40925,-0.3629 -2.93644,0.03 -4.05554,0.87679 -1.71129,1.97727 -1.61475,4.44561 -1.15771,6.82156 0.88926,2.59715 2.89195,4.20145 5.5035,5.12538 1.00277,0.25919 1.90571,0.22194 2.86052,-0.11832 1.9564,-0.62271 2.88389,2.0043 0.9275,2.62701 l 0,0 c -1.62774,0.48606 -3.18051,0.56986 -4.83901,0.0761 -3.70919,-1.39545 -6.12717,-3.52593 -7.32804,-7.23871 -0.60132,-3.46371 -0.44029,-6.93483 2.344,-9.55223 2.21311,-1.40156 4.63969,-2.00641 7.20265,-1.01769 2.05879,1.26901 2.37905,2.62729 1.54764,4.75776 -0.94393,1.93881 -2.43517,3.36359 -4.54582,4.18103 -2.1285,0.53659 -4.27447,0.45409 -6.4645,0.42514 -2.06339,0 -2.06339,-2.7707 0,-2.7707 z"
       inkscape:connector-curvature="0" />
    <path
       style="fill:#000000;fill-opacity:1;fill-rule:nonzero;stroke:none"
       id="path30364"
       d="m 354.23142,157.19699 c -1.22139,-0.0517 -2.20538,0.4229 -3.06412,1.19307 -1.20259,1.48242 -1.28042,3.4992 -1.25187,5.29536 0.14538,2.80827 1.2298,5.27369 2.56203,7.72612 0.67281,1.41907 1.47548,2.80646 1.93513,4.3066 0.03,0.14027 0.06,0.28054 0.09,0.4208 0.39232,1.92344 -2.47253,2.45025 -2.86485,0.52681 l 0,0 c -0.0135,-0.0733 -0.0272,-0.14653 -0.0407,-0.21979 -0.31735,-1.3258 -1.21718,-2.50356 -1.71319,-3.76476 -1.54167,-2.84042 -2.73827,-5.73424 -2.88638,-8.97846 0.002,-2.61767 0.268,-5.34993 2.21629,-7.37085 1.62008,-1.34711 3.53055,-2.12007 5.72545,-1.82288 2.0018,0.47518 1.29405,3.16315 -0.70773,2.68798 z"
       inkscape:connector-curvature="0" />
    <path
       style="fill:#000000;fill-opacity:1;fill-rule:nonzero;stroke:none"
       id="path30366"
       d="m 344.24626,166.72185 c 2.53639,0.44031 5.08396,0.59335 7.65194,0.42256 1.26385,-0.11166 2.5232,-0.2624 3.7856,-0.38683 2.0524,-0.20198 2.35325,2.55395 0.30085,2.75594 l 0,0 c -1.29613,0.12736 -2.5889,0.284 -3.88686,0.39509 -2.82644,0.18042 -5.63397,0.0214 -8.42381,-0.46987 -2.02333,-0.38422 -1.45105,-3.10111 0.57228,-2.71689 z"
       inkscape:connector-curvature="0" />
    <path
       style="fill:#000000;fill-opacity:1;fill-rule:nonzero;stroke:none"
       id="path30368"
       d="m 364.41964,167.08412 c 0.82659,2.05182 1.26758,4.21332 1.58451,6.38178 0.15173,1.10958 0.22328,2.22799 0.2452,3.34627 3.7e-4,0.0628 7e-4,0.12552 0.001,0.18828 0.01,1.95915 -2.90807,1.97256 -2.91804,0.0134 l 0,0 c -2.2e-4,-0.0504 -4.3e-4,-0.10084 -6.5e-4,-0.15126 -0.0188,-1.00863 -0.0829,-2.01751 -0.21836,-3.01839 -0.28033,-1.94615 -0.6699,-3.8873 -1.40313,-5.73107 -0.76632,-1.81905 1.94305,-2.84806 2.70938,-1.02901 z"
       inkscape:connector-curvature="0" />
    <path
       style="fill:#000000;fill-opacity:1;fill-rule:nonzero;stroke:none"
       id="path30370"
       d="m 364.48759,160.96875 c -0.76234,0.69451 -2.01792,1.91069 -3.23799,1.5146 -0.38589,-0.12528 -0.70689,-0.38639 -1.06034,-0.57958 -0.94294,-1.08162 -0.72856,-2.36266 0.4001,-3.20787 0.56253,-0.37721 1.25799,-0.4168 1.92141,-0.43306 0.99774,-0.0837 1.71559,0.85793 1.78102,1.723 0.0122,0.21123 0.0109,0.42275 0.002,0.63402 -10e-4,0.0526 -0.01,0.10469 -0.0154,0.15694 -0.28535,1.94035 -3.1754,1.55719 -2.89005,-0.38317 l 0,0 c -0.003,0.0293 -0.008,0.0585 -0.009,0.088 0.003,-0.10717 0.006,-0.21442 -2.4e-4,-0.32162 0.41571,0.27039 1.70377,0.88769 1.20012,0.87274 -0.16897,0.003 -0.78745,0.10784 -0.26217,-0.10425 0.17092,-0.33062 0.25563,-0.90188 -0.0764,-0.99486 -1.42098,-0.43752 -1.14809,0.44427 0.18312,-0.92408 1.45904,-1.38535 3.52243,0.57383 2.06339,1.95918 z"
       inkscape:connector-curvature="0" />
    <path
       style="fill:#000000;fill-opacity:1;fill-rule:nonzero;stroke:none"
       id="path30372"
       d="m 380.0507,165.58657 c -1.69735,1.81197 -3.09776,3.8368 -4.37511,5.93002 -0.99623,1.73051 -2.01983,3.43173 -3.29,4.99642 -0.18863,0.23155 -0.39212,0.45104 -0.6024,0.66478 -1.41581,1.42522 -3.53859,-0.47591 -2.12278,-1.90112 l 0,0 c 0.14727,-0.14531 0.28429,-0.2994 0.41601,-0.45762 1.19652,-1.46637 2.13464,-3.07353 3.07619,-4.69462 1.40929,-2.2963 2.94936,-4.52253 4.83469,-6.49703 1.45905,-1.38535 3.52244,0.57383 2.0634,1.95917 z"
       inkscape:connector-curvature="0" />
    <path
       style="fill:#000000;fill-opacity:1;fill-rule:nonzero;stroke:none"
       id="path30374"
       d="m 372.13009,162.96269 c 1.24542,1.87347 2.91053,3.43231 4.26927,5.23023 1.18798,1.52404 2.54249,2.91978 3.92582,4.28361 0.38995,0.28679 0.79582,0.55125 1.27892,0.59371 2.04565,0.25645 1.66368,3.00331 -0.38196,2.74686 l 0,0 c -1.15834,-0.16155 -2.12979,-0.67294 -2.99906,-1.41884 -1.48181,-1.46163 -2.9297,-2.95996 -4.19878,-4.5956 -1.33489,-1.78646 -3.01062,-3.31193 -4.22867,-5.17756 -1.23805,-1.56734 1.09642,-3.22976 2.33446,-1.66241 z"
       inkscape:connector-curvature="0" />
    <path
       style="fill:#000000;fill-opacity:1;fill-rule:nonzero;stroke:none"
       id="path30376"
       d="m 385.0508,166.73631 c 1.55034,0.41513 3.15622,0.55385 4.75562,0.67203 1.67044,0.15771 1.58526,0.22342 2.59361,-0.72957 0.37479,-0.55578 1.14684,-1.50363 0.65385,-2.15743 -0.39624,-0.63117 -1.47635,-0.57584 -2.16697,-0.64578 -1.853,0.0964 -2.99984,1.48188 -3.81703,2.92114 -1.15247,2.16698 -1.01341,4.22128 -0.15332,6.42097 0.70265,1.32269 2.17452,1.55076 3.62078,1.51467 0.8433,0.0188 1.58579,-0.27343 2.36531,-0.52751 1.95421,-0.62884 2.89083,1.99526 0.93661,2.6241 l 0,0 c -1.08372,0.34508 -2.16405,0.69962 -3.32728,0.674 -2.70233,-0.0743 -5.15707,-0.8256 -6.33851,-3.34021 -1.16718,-3.10992 -1.20896,-5.71763 0.36242,-8.74003 1.49601,-2.39586 3.5456,-4.35502 6.68019,-4.30014 1.95691,0.2205 3.85925,0.65713 4.63108,2.59717 0.45857,1.86457 -0.0646,3.47582 -1.39141,4.9255 -1.54137,1.4492 -2.74249,1.7844 -4.87654,1.5254 -1.76134,-0.13105 -3.52815,-0.29333 -5.23615,-0.74634 -2.00179,-0.47517 -1.29405,-3.16314 0.70774,-2.68797 z"
       inkscape:connector-curvature="0" />
    <path
       style="fill:#000000;fill-opacity:1;fill-rule:nonzero;stroke:none"
       id="path30380"
       d="m 410.88521,164.73735 c -2.0532,-0.14735 -3.87626,0.10812 -5.62425,1.14847 -1.75081,1.08992 -2.35144,2.75467 -2.46487,4.64378 0.0616,1.28185 0.80397,1.92167 2.01152,2.30757 1.48938,-0.21433 2.53427,-1.55357 3.51851,-2.51677 1.432,-1.78075 2.2838,-3.92187 2.97195,-6.04811 0.54636,-1.84785 0.61182,-3.76801 0.65954,-5.67331 0.0297,-1.94623 0.0159,-3.89274 0.007,-5.83907 -0.31621,-1.74122 -0.83874,-0.83133 0.63103,-0.57338 -1.30936,1.64134 -1.67901,3.93264 -2.02656,5.92811 -0.47441,3.20094 -0.0496,6.55867 1.61007,9.40368 0.91189,1.61115 2.18851,2.87189 3.98848,3.52895 0.70831,0.28135 1.40451,0.58882 2.09711,0.90311 1.86156,0.8451 0.60284,3.34478 -1.25873,2.49968 l 0,0 c -0.63555,-0.28865 -1.27436,-0.57112 -1.92374,-0.83088 -2.42384,-0.94664 -4.24008,-2.5961 -5.48041,-4.80149 -1.86812,-3.44631 -2.53311,-7.31106 -1.91068,-11.16127 0.52745,-2.95013 1.13322,-6.16209 3.83227,-8.04678 0.44624,-0.0583 0.89306,-0.23684 1.33873,-0.17477 1.57565,0.21943 1.84691,2.16722 2.02049,3.31339 0.009,1.97242 0.0227,3.94504 -0.008,5.91736 -0.0554,2.16101 -0.15249,4.33561 -0.7895,6.42689 -0.8353,2.54044 -1.87182,5.08172 -3.66728,7.15957 -1.84312,1.79571 -3.77571,3.74273 -6.66277,3.16935 -2.36408,-0.92461 -3.84467,-2.54829 -3.8705,-5.08082 0.23555,-2.91769 1.23343,-5.13992 3.86747,-6.82644 2.22977,-1.24614 4.54087,-1.7407 7.13294,-1.54752 2.0634,0 2.0634,2.7707 0,2.7707 z"
       inkscape:connector-curvature="0" />
    <path
       style="fill:#000000;fill-opacity:1;fill-rule:nonzero;stroke:none"
       id="path30384"
       d="m 432.00508,162.8211 c 1.74566,-0.62896 3.48431,-1.27946 5.25192,-1.85137 2.63048,-0.64589 4.63494,0.48377 6.29426,2.32899 1.54695,2.12433 1.36064,3.71494 -0.27868,5.7068 -1.52359,1.49446 -3.44523,2.55025 -5.45467,3.34168 -1.97017,0.71021 -3.2127,0.91257 -4.89667,-0.48614 -0.94611,-1.18452 -1.38923,-2.6246 -2.23218,-3.86144 -0.21164,-0.29821 -0.4508,-0.59459 -0.70968,-0.85028 0.0344,0.025 0.16281,0.15411 0.17847,0.12949 1.45745,-2.29207 0.80172,-3.1717 2.76471,-1.73141 1.57561,1.61387 2.22155,3.80224 2.93154,5.84564 0.77266,2.61203 1.49302,5.23223 2.00956,7.90177 0.1334,0.74661 0.21951,1.49923 0.29868,2.2523 0.20393,1.94959 -2.69987,2.22342 -2.9038,0.27384 l 0,0 c -0.0705,-0.67743 -0.14721,-1.35444 -0.26508,-2.02628 -0.49095,-2.54584 -1.18081,-5.04314 -1.91117,-7.5354 -0.555,-1.60502 -1.03104,-3.35275 -2.15909,-4.69372 0.532,0.0177 -0.1635,-0.0673 -0.16232,-0.0733 0.49017,-2.48109 0.23909,-3.13987 1.201,-2.37603 0.45735,0.41265 0.83079,0.9 1.18669,1.39231 0.72103,1.08286 1.24575,2.25966 1.84646,3.40324 0.007,0.0274 -6.2e-4,0.28443 0.0463,0.28221 0.57079,-0.027 1.13722,-0.25551 1.67383,-0.41205 1.57789,-0.59823 3.08476,-1.43226 4.31644,-2.55104 0.75925,-0.7478 0.94326,-1.21995 0.28288,-2.15284 -0.83431,-0.97271 -1.69313,-1.77912 -3.11899,-1.48486 -1.84493,0.59279 -3.64786,1.29649 -5.48265,1.91584 -2.00179,0.47517 -2.70953,-2.2128 -0.70774,-2.68797 z"
       inkscape:connector-curvature="0" />
    <path
       style="fill:#000000;fill-opacity:1;fill-rule:nonzero;stroke:none"
       id="path30386"
       d="m 453.97547,161.89232 c -1.2157,1.27355 -2.05096,2.71311 -2.58789,4.34425 -0.28542,1.14523 -0.71401,2.68028 0.30754,3.6225 0.9459,0.67417 0.51331,0.25707 0.82069,-0.0499 0.74312,-1.08277 1.38427,-2.25388 1.79544,-3.48948 0.37362,-1.18464 0.10631,-1.5906 -0.63227,-2.42035 -0.57619,-0.52868 -1.28767,-0.7834 -2.04615,-0.9742 -0.44051,-0.0719 -0.28921,-0.0407 0.12904,-0.0151 -1.73084,1.06657 -3.31943,-1.25757 -1.58859,-2.32413 l 0,0 c 0.69945,-0.37519 1.43482,-0.59005 2.22546,-0.3344 1.32918,0.34912 2.55581,0.89229 3.51463,1.86566 1.41032,1.60205 1.79111,3.02021 1.17218,5.06146 -0.60758,1.73023 -1.46725,3.45358 -2.76745,4.80953 -1.87581,1.27742 -3.38201,1.11777 -4.9589,-0.4686 -1.35671,-1.89671 -1.4635,-3.95169 -0.75047,-6.12872 0.70213,-2.04111 1.75233,-3.87583 3.30334,-5.4578 1.45904,-1.38534 3.52244,0.57383 2.0634,1.95919 z"
       inkscape:connector-curvature="0" />
    <path
       style="fill:#000000;fill-opacity:1;fill-rule:nonzero;stroke:none"
       id="path30388"
       d="m 462.60621,161.61077 c 0.50273,2.14549 0.65735,4.34812 0.78815,6.53732 0.072,1.33006 0.10753,2.66179 0.11817,3.99351 5.7e-4,0.25795 7e-4,0.14115 -1.5e-4,0.35041 -0.009,1.95915 -2.92723,1.94683 -2.91805,-0.0123 l 0,0 c 6.9e-4,-0.18627 6.7e-4,-0.0805 2e-4,-0.31722 -0.0101,-1.28654 -0.0444,-2.57308 -0.11361,-3.85803 -0.11951,-2.01555 -0.25591,-4.04404 -0.70567,-6.02167 -0.50044,-1.90068 2.33051,-2.57267 2.83096,-0.67199 z"
       inkscape:connector-curvature="0" />
    <path
       style="fill:#000000;fill-opacity:1;fill-rule:nonzero;stroke:none"
       id="path30390"
       d="m 461.63939,151.168 c 0.99351,1.64646 1.39557,3.36579 1.05955,5.23102 -0.34827,1.04624 -1.21048,2.70253 -2.67174,2.55058 -0.45219,-0.0471 -0.84525,-0.31959 -1.26787,-0.47938 -0.9148,-1.06164 -1.0135,-2.3638 -1.08329,-3.67575 0.12331,-1.36303 0.83887,-2.29228 2.1698,-2.7971 0.57565,-0.20464 1.18996,-0.2109 1.79599,-0.20745 1.42006,0.3864 1.76139,1.21117 1.85737,2.48001 0.14636,1.7636 -1.53879,2.40946 -2.97171,1.54001 -0.59483,-0.8503 -0.40428,-0.44655 -0.66499,-1.16751 -0.62079,-1.8684 2.16209,-2.70199 2.78289,-0.83358 l 0,0 c 0.0468,0.22026 0.0524,0.13544 -0.23801,-0.11805 -1.26953,-0.53419 -1.47246,0.1938 -1.80934,1.06685 -0.0361,0.0935 0.0397,-0.44676 -0.0101,-0.29858 -0.0464,-0.6973 0.0726,-0.01 1.03348,0.10149 -0.25077,-0.002 -0.50805,-0.0238 -0.75182,0.0314 -0.31957,0.0842 0.11485,-0.3108 -0.27886,0.0687 0.009,0.17667 0.26628,1.73264 0.21604,1.76662 -0.0704,0.0476 -0.15038,-0.0809 -0.22556,-0.12141 -1.58734,-0.23625 -1.16904,0.56949 -0.73741,-0.47919 0.40967,-1.17961 -0.27261,-2.38212 -0.81441,-3.41959 -0.92278,-1.75234 1.68723,-2.99143 2.61001,-1.2391 z"
       inkscape:connector-curvature="0" />
    <path
       style="fill:#000000;fill-opacity:1;fill-rule:nonzero;stroke:none"
       id="path30392"
       d="m 468.44238,157.91651 c 0.52895,2.14454 0.67146,4.35047 0.78862,6.54322 0.0879,2.0281 0.11098,4.05805 0.11773,6.08765 -0.0267,2.42792 0.69917,1.82656 -2.92276,1.51645 -0.003,-1.60537 -0.002,-3.21075 -0.002,-4.81612 0.0853,-2.34739 0.78859,-4.55121 1.78595,-6.6775 0.7833,-1.09224 1.47002,-2.2865 2.40302,-3.27207 1.31999,-1.1541 2.56891,-0.34858 3.7534,0.45322 0.97844,0.78048 1.48377,1.761 1.70258,2.93434 0.1955,0.99913 0.57852,1.9606 0.77767,2.97244 0.0666,1.86895 0.50214,3.6492 1.07623,5.42706 0.29796,0.99057 0.7976,2.06522 1.75442,2.63775 0.33848,0.14002 0.34695,0.052 0.69787,0.003 2.05948,-0.12085 2.23946,2.64458 0.18,2.76542 l 0,0 c -0.95493,0.0283 -1.81429,-0.008 -2.63234,-0.55392 -1.37735,-1.04686 -2.35028,-2.39832 -2.79003,-4.04011 -0.60534,-1.87747 -1.09164,-3.76829 -1.15695,-5.74196 -0.19139,-1.03307 -0.62182,-2.0028 -0.78918,-3.03666 -0.0523,-0.44686 -0.19137,-0.7667 -0.51441,-1.11089 -0.98752,-0.66868 -0.97988,-0.31063 -0.41038,-0.55151 0.13599,-0.0575 0.76366,-0.36952 0.40975,-0.19395 -0.6038,0.75058 -1.19536,1.63888 -1.79663,2.437 -0.8329,1.77024 -1.44786,3.59027 -1.53289,5.54882 3e-5,1.60066 -5.1e-4,3.20132 0.002,4.80197 -3.5138,0.25786 -2.89006,0.81602 -2.91335,-1.49355 -0.006,-1.98596 -0.0288,-3.97227 -0.11405,-5.9568 -0.10626,-2.01334 -0.22904,-4.03986 -0.70519,-6.01078 -0.50045,-1.90068 2.3305,-2.57268 2.83095,-0.67199 z"
       inkscape:connector-curvature="0" />
    <path
       style="fill:#000000;fill-opacity:1;fill-rule:nonzero;stroke:none"
       id="path30394"
       d="m 487.89627,148.68085 c 0.6153,2.99161 0.68377,6.0548 0.78967,9.09219 0.1924,3.52992 -0.0611,7.07737 0.22889,10.60089 0.17389,1.4648 0.44936,2.91693 0.72374,4.36728 0.0317,0.16871 0.0652,0.33709 0.10004,0.50523 0.40792,1.92052 -2.45258,2.46825 -2.86049,0.54775 l 0,0 c -0.0387,-0.18746 -0.0765,-0.37509 -0.11168,-0.5632 -0.29188,-1.54327 -0.58451,-3.08864 -0.76139,-4.64827 -0.27521,-3.56472 -0.0629,-7.14753 -0.2356,-10.71821 -0.0987,-2.84249 -0.15989,-5.70735 -0.70415,-8.51167 -0.50044,-1.90068 2.33052,-2.57267 2.83097,-0.67199 z"
       inkscape:connector-curvature="0" />
    <path
       style="fill:#000000;fill-opacity:1;fill-rule:nonzero;stroke:none"
       id="path30396"
       d="m 482.32024,158.42422 c 1.79531,0.50655 3.58817,0.41443 5.42272,0.25527 1.87131,-0.25158 3.809,-0.0585 5.62973,-0.57922 0.4691,-0.17166 0.25846,-0.0848 0.6355,-0.25266 1.87883,-0.80993 3.08516,1.71293 1.20634,2.52286 l 0,0 c -0.63175,0.26714 -0.28855,0.13339 -1.0335,0.39208 -2.01568,0.53538 -4.10279,0.47293 -6.17397,0.67627 -2.15633,0.18513 -4.28678,0.24985 -6.39457,-0.32662 -2.00178,-0.47518 -1.29404,-3.16314 0.70775,-2.68798 z"
       inkscape:connector-curvature="0" />
    <path
       style="fill:#000000;fill-opacity:1;fill-rule:nonzero;stroke:none"
       id="path30406"
       d="m 402.15198,187.21807 c 0.75114,4.5607 1.19906,9.16537 1.88088,13.73927 1.47577,8.95473 3.73313,17.75418 6.11992,26.50194 2.3296,7.76911 4.60877,15.5575 7.0242,23.30061 1.05088,3.29151 2.0533,6.59834 2.77892,9.97829 0.09,0.39611 0.15169,0.79681 0.20264,1.19916 0.0933,0.98088 -1.29386,1.11284 -1.38717,0.13197 l 0,0 c -0.0432,-0.34877 -0.10256,-0.69521 -0.17791,-1.03884 -0.71578,-3.33885 -1.70988,-6.60414 -2.74672,-9.85569 -2.41958,-7.75934 -4.70507,-15.56324 -7.03826,-23.34874 -2.40097,-8.80089 -4.67107,-17.65397 -6.15384,-26.66336 -0.67452,-4.5295 -1.12719,-9.08777 -1.85449,-13.60665 -0.23897,-0.95589 1.11286,-1.29384 1.35183,-0.33796 z"
       inkscape:connector-curvature="0" />
    <path
       style="fill:#bdd9ff;fill-opacity:1;stroke:none"
       d="m 563.21178,190.37396 c -3.91431,-2.27176 -8.86722,-8.32728 -9.81343,-11.99808 -1.23534,-4.7925 3.06994,-12.71102 7.4362,-13.67709 2.01631,-0.44612 4.73251,-1.09884 6.03602,-1.45049 4.25627,-1.14823 13.57119,2.26272 15.90461,5.82397 3.15883,4.82099 1.48473,11.9855 -4.21202,18.02582 -4.90143,5.19702 -10.12176,6.311 -15.35138,3.27587 z"
       id="path30408"
       inkscape:connector-curvature="0" />
  </g>
</svg>
