<?xml version="1.0" encoding="UTF-8" standalone="no"?>
<!-- Created with Inkscape (http://www.inkscape.org/) -->

<svg
   xmlns:dc="http://purl.org/dc/elements/1.1/"
   xmlns:cc="http://creativecommons.org/ns#"
   xmlns:rdf="http://www.w3.org/1999/02/22-rdf-syntax-ns#"
   xmlns:svg="http://www.w3.org/2000/svg"
   xmlns="http://www.w3.org/2000/svg"
   xmlns:sodipodi="http://sodipodi.sourceforge.net/DTD/sodipodi-0.dtd"
   xmlns:inkscape="http://www.inkscape.org/namespaces/inkscape"
   width="276.81876"
   height="251.49979"
   id="svg4855"
   version="1.1"
   inkscape:version="0.48.0 r9654"
   sodipodi:docname="Bounce.svg">
  <defs
     id="defs4857">
    <inkscape:path-effect
       is_visible="true"
       id="path-effect5422"
       effect="spiro" />
    <inkscape:path-effect
       effect="spiro"
       id="path-effect5418"
       is_visible="true" />
    <inkscape:path-effect
       effect="spiro"
       id="path-effect5412"
       is_visible="true" />
    <inkscape:path-effect
       effect="spiro"
       id="path-effect5408"
       is_visible="true" />
    <inkscape:path-effect
       effect="spiro"
       id="path-effect5404"
       is_visible="true" />
  </defs>
  <sodipodi:namedview
     inkscape:document-units="mm"
     pagecolor="#ffffff"
     bordercolor="#666666"
     borderopacity="1.0"
     inkscape:pageopacity="0.0"
     inkscape:pageshadow="2"
     inkscape:zoom="0.7176508"
     inkscape:cx="196.40832"
     inkscape:cy="21.950431"
     inkscape:current-layer="layer1"
     id="namedview4859"
     showgrid="false"
     inkscape:window-width="1280"
     inkscape:window-height="752"
     inkscape:window-x="0"
     inkscape:window-y="0"
     inkscape:window-maximized="0"
     fit-margin-top="0"
     fit-margin-left="0"
     fit-margin-right="0"
     fit-margin-bottom="0" />
  <metadata
     id="metadata4861">
    <rdf:RDF>
      <cc:Work
         rdf:about="">
        <dc:format>image/svg+xml</dc:format>
        <dc:type
           rdf:resource="http://purl.org/dc/dcmitype/StillImage" />
        <dc:title />
      </cc:Work>
    </rdf:RDF>
  </metadata>
  <g
     inkscape:label="Layer 1"
     inkscape:groupmode="layer"
     id="layer1"
     transform="translate(-329.77277,-142.4979)">
    <path
       style="fill:#000000;fill-opacity:1;fill-rule:nonzero;stroke:none"
       id="path5372"
       d="m 356.93923,148.17178 c -2.71785,-0.58627 -5.48878,-0.98155 -8.26983,-0.8426 -3.50341,-0.0203 -5.84229,1.80345 -8.30663,4.0413 -2.657,3.01853 -4.2036,6.70201 -5.33752,10.51269 -0.97422,3.68497 -1.31255,7.45398 -0.9186,11.23533 0.49804,3.42966 2.43828,6.22236 4.49152,8.90601 1.80661,2.51742 4.13006,4.24901 6.93417,5.49188 2.87423,0.96464 5.91494,1.17522 8.92229,1.30169 2.40701,0.16536 4.69001,-0.6653 6.85908,-1.61933 2.28171,-1.36543 3.96831,-3.41121 5.40313,-5.60927 1.2569,-1.91596 2.29609,-3.90462 2.86658,-6.12866 0.4584,-1.85483 1.10092,-3.64737 1.44718,-5.53322 0.28263,-2.0221 0.30345,-4.06967 0.32626,-6.10789 -0.17141,-2.18093 -1.17429,-4.04784 -2.14802,-5.95083 -0.67127,-1.88903 -1.86754,-3.44343 -3.20044,-4.90457 -1.15596,-1.33682 -2.72869,-2.06857 -4.39432,-2.55161 -3.09552,-0.92362 -6.13408,-1.99256 -9.15282,-3.14261 -0.54378,-0.24053 -1.08755,-0.48106 -1.63133,-0.7216 -2.7012,-1.20039 -1.00359,-5.02048 1.69762,-3.82008 l 0,0 c 0.47402,0.21177 0.94804,0.42354 1.42206,0.6353 2.9275,1.1155 5.87207,2.15837 8.87634,3.0482 2.37834,0.74177 4.60937,1.8316 6.27759,3.74258 1.56793,1.73408 3.00297,3.59383 3.82685,5.81044 1.28253,2.50732 2.48811,5.02428 2.60651,7.90203 -0.026,2.28013 -0.0553,4.57118 -0.39745,6.83023 -0.37768,1.98545 -1.01918,3.88457 -1.51542,5.83527 -0.71989,2.65138 -1.89534,5.07645 -3.42054,7.36314 -1.90969,2.85768 -4.14953,5.49016 -7.2279,7.13893 -2.75972,1.18141 -5.64974,2.16834 -8.69909,1.96006 -3.53937,-0.15289 -7.11317,-0.43654 -10.46688,-1.66936 -3.40996,-1.56637 -6.31767,-3.68792 -8.53456,-6.76461 -2.51859,-3.30761 -4.77255,-6.79915 -5.3273,-11.01952 -0.43059,-4.33183 -0.0644,-8.64984 1.07501,-12.8642 1.38094,-4.53272 3.26171,-8.89817 6.53814,-12.40877 3.1848,-2.86276 6.47931,-5.10303 10.93962,-5.11585 3.18202,-0.10575 6.34683,0.24947 9.45257,0.96401 2.86767,0.71692 1.8538,4.77241 -1.01387,4.05549 z"
       inkscape:connector-curvature="0" />
    <path
       style="fill:none;stroke:#000000;stroke-width:2.06220484;stroke-linecap:butt;stroke-linejoin:miter;stroke-miterlimit:4;stroke-opacity:1;stroke-dasharray:2.06220472, 4.12440945;stroke-dashoffset:0"
       d="m 377.62098,181.14659 c 14.23703,4.24069 27.59828,11.39851 39.0162,20.90154 12.00346,9.99037 21.80732,22.50647 29.26213,36.22931 6.40563,11.7915 11.11377,24.50346 13.93436,37.62276"
       id="path5416"
       inkscape:path-effect="#path-effect5418"
       inkscape:original-d="m 377.62098,181.14659 c 0,0 29.26215,12.54093 39.0162,20.90154 9.75404,8.36061 23.68839,25.08183 29.26213,36.22931 5.57374,11.14749 13.93436,37.62276 13.93436,37.62276"
       inkscape:connector-curvature="0"
       sodipodi:nodetypes="cssc" />
    <path
       sodipodi:nodetypes="cssc"
       inkscape:connector-curvature="0"
       inkscape:original-d="m 558.16421,182.54003 c 0,0 -30.03932,12.54093 -40.05243,20.90154 -10.0131,8.36061 -24.31753,25.08183 -30.03931,36.22931 -5.72177,11.14749 -14.30444,37.62276 -14.30444,37.62276"
       inkscape:path-effect="#path-effect5422"
       id="path5420"
       d="m 558.16421,182.54003 c -14.57158,4.1878 -28.2834,11.34338 -40.05243,20.90154 -12.25111,9.94968 -22.35114,22.44607 -30.03931,36.22931 -6.55888,11.75867 -11.3944,24.47678 -14.30444,37.62276"
       style="fill:none;stroke:#000000;stroke-width:2.07637787;stroke-linecap:butt;stroke-linejoin:miter;stroke-miterlimit:4;stroke-opacity:1;stroke-dasharray:2.07637795, 4.15275591;stroke-dashoffset:0" />
    <path
       style="fill:#000000;fill-opacity:1;fill-rule:nonzero;stroke:none"
       id="path5514"
       d="m 468.66191,331.41783 c -0.46165,2.96342 -1.87563,5.55309 -3.30797,8.13285 -1.53617,2.61619 -3.0162,5.25708 -4.58656,7.85224 -0.61557,1.04545 -1.23077,2.09214 -1.80033,3.16366 -0.0158,0.0306 -0.0315,0.0612 -0.0473,0.0918 -1.35804,2.62549 -5.07104,0.70493 -3.713,-1.92056 l 0,0 c 0.0233,-0.045 0.0466,-0.09 0.07,-0.13493 0.6068,-1.13931 1.25855,-2.25413 1.91494,-3.36534 1.54485,-2.54915 2.9965,-5.14587 4.50765,-7.71621 1.25683,-2.26314 2.5333,-4.50419 2.90714,-7.11734 0.71692,-2.86767 4.77241,-1.85379 4.05549,1.01387 z"
       inkscape:connector-curvature="0" />
    <path
       style="fill:#000000;fill-opacity:1;fill-rule:nonzero;stroke:none"
       id="path5516"
       d="m 468.77884,329.26626 c 2.09408,2.75567 3.80956,5.84301 5.44412,8.89624 1.57727,2.96693 3.37337,5.79845 4.84276,8.82313 0.25431,0.52729 0.48797,1.06387 0.71252,1.60431 1.13113,2.73094 -2.73101,4.33059 -3.86213,1.59965 l 0,0 c -0.19178,-0.46492 -0.39355,-0.9256 -0.61134,-1.37907 -1.44358,-2.97899 -3.23123,-5.756 -4.7718,-8.68361 -1.42961,-2.70286 -2.99531,-5.37938 -4.71006,-7.90472 -2.09015,-2.09016 0.86577,-5.04608 2.95593,-2.95593 z"
       inkscape:connector-curvature="0" />
    <path
       style="fill:#000000;fill-opacity:1;fill-rule:nonzero;stroke:none"
       id="path5526"
       d="m 468.99526,331.7974 c 0.9755,5.11052 0.99851,10.34898 1.13171,15.53286 0.16255,9.04048 0.15959,18.08294 0.16671,27.12458 0.002,4.81948 -6e-5,9.63897 -0.006,14.45844 -3.3e-4,0.21663 -6.7e-4,0.43325 -0.001,0.64988 -0.005,2.95592 -4.18487,2.94947 -4.1803,-0.006 l 0,0 c 3.3e-4,-0.21626 6.6e-4,-0.43252 10e-4,-0.64877 0.006,-4.8166 0.008,-9.63321 0.006,-14.44981 -0.007,-9.00701 -0.004,-18.01484 -0.16533,-27.02071 -0.12489,-4.87983 -0.14418,-9.80739 -1.00827,-14.62615 -0.71692,-2.86766 3.33858,-3.88154 4.05549,-1.01387 z"
       inkscape:connector-curvature="0" />
    <path
       style="fill:#000000;fill-opacity:1;fill-rule:nonzero;stroke:none"
       id="path5530"
       d="m 493.97283,364.52002 c 0.0231,5.02894 -0.10211,10.05756 0.16386,15.08068 0.27385,4.00167 0.61085,7.99866 0.96871,11.99357 0.26372,2.94414 -3.89991,3.31709 -4.16363,0.37296 l 0,0 c -0.36247,-4.04675 -0.70396,-8.0956 -0.97974,-12.1493 -0.26082,-5.09609 -0.15483,-10.19619 -0.1695,-15.29791 0,-2.95592 4.1803,-2.95592 4.1803,0 z"
       inkscape:connector-curvature="0" />
    <path
       style="fill:#000000;fill-opacity:1;fill-rule:nonzero;stroke:none"
       id="path5532"
       d="m 490.26946,361.82556 c 2.53452,0.57558 5.12767,0.8228 7.71502,1.01328 2.34083,0.14171 4.68693,0.1531 7.03125,0.16033 2.9559,0.009 2.94293,4.18946 -0.013,4.18029 l 0,0 c -2.44292,-0.008 -4.8877,-0.0208 -7.32682,-0.17172 -2.82489,-0.21012 -5.65537,-0.48678 -8.42034,-1.12669 -2.86767,-0.71692 -1.85379,-4.77241 1.01387,-4.05549 z"
       inkscape:connector-curvature="0" />
    <path
       style="fill:#000000;fill-opacity:1;fill-rule:nonzero;stroke:none"
       id="path5534"
       d="m 493.05633,372.97304 c 2.92248,0.6718 5.92721,0.8464 8.91223,1.01077 1.99515,-0.0199 3.93877,0.1733 5.88479,0.59786 2.8852,0.64272 1.97624,4.72301 -0.90896,4.08029 l 0,0 c -1.72194,-0.39402 -3.43717,-0.51125 -5.20657,-0.50422 -3.24893,-0.18028 -6.51752,-0.38354 -9.69536,-1.12921 -2.86767,-0.71691 -1.85379,-4.77241 1.01387,-4.05549 z"
       inkscape:connector-curvature="0" />
    <path
       style="fill:#000000;fill-opacity:1;fill-rule:nonzero;stroke:none"
       id="path5536"
       d="m 488.87603,350.67808 c 2.34472,0.53241 4.73228,0.81604 7.12509,1.0148 1.84539,0.12908 3.69597,0.14956 5.54513,0.15882 0.86976,0.002 1.73952,-3.7e-4 2.60926,-0.006 0.64574,-0.004 1.29151,-0.003 1.93726,-0.003 0.35846,-9e-5 0.71693,-1.4e-4 1.0754,-9e-5 -1.68412,2.22071 -1.36014,3.68008 -2.80767,1.76239 -1.50212,-2.08695 -2.6711,-4.33641 -3.63682,-6.71175 -1.10877,-2.7401 2.76631,-4.30813 3.87508,-1.56803 l 0,0 c 0.8212,2.04066 1.8149,3.96604 3.09824,5.76132 1.30551,1.72957 1.12043,2.15205 -0.52967,4.93638 -0.35772,-5e-5 -0.71545,-10e-6 -1.07318,9e-5 -0.63688,2.1e-4 -1.27378,-6.1e-4 -1.91066,0.003 -0.88609,0.006 -1.77221,0.008 -2.65832,0.006 -1.95799,-0.01 -3.91746,-0.0334 -5.87127,-0.17322 -2.61727,-0.21885 -5.22878,-0.53478 -7.79175,-1.12517 -2.86766,-0.71692 -1.85379,-4.77241 1.01388,-4.05549 z"
       inkscape:connector-curvature="0" />
    <path
       style="fill:#000000;fill-opacity:1;fill-rule:nonzero;stroke:none"
       id="path5538"
       d="m 492.8548,311.92006 c 0.52578,2.01313 0.58965,4.10105 0.76428,6.1557 0.14069,2.32312 0.41371,4.63804 0.61966,6.95714 0.035,0.40466 0.0689,0.80937 0.0995,1.21429 0.007,0.0921 0.12224,0.27744 0.0195,0.27633 -0.50954,-0.005 -1.01554,-0.0807 -1.52331,-0.12098 -0.0181,-0.99788 0.15042,-1.9738 0.40805,-2.94036 0.48802,-1.48719 1.61837,-2.59027 3.1233,-3.29292 1.78477,-0.49916 2.99049,-0.0495 4.01296,1.31389 0.7103,1.58288 -0.0311,3.0697 -1.06191,4.36325 -1.33281,1.40195 -2.5057,2.06961 -4.59774,1.82783 -1.15234,-0.29434 -1.76735,-1.04434 -2.15593,-2.00748 -0.35119,-0.92362 1.10171,-1.36359 1.45289,-0.43996 l 0,0 c 0.16012,0.47347 0.39748,0.8908 0.93638,1.0861 1.29219,0.2484 2.33045,-0.41065 3.12407,-1.28396 0.67161,-0.79801 1.27279,-1.77212 1.00944,-2.80739 -0.4911,-0.75949 -1.03896,-1.03291 -2.03027,-0.81815 -1.12149,0.46854 -1.94453,1.32711 -2.32106,2.38989 -0.24623,0.89335 -0.38286,1.79432 -0.36891,2.71712 -0.51356,0.0298 -1.02589,0.092 -1.54066,0.0893 -0.01,-2.7e-4 -0.0853,-1.46027 -0.11685,-1.46342 -0.20604,-2.32068 -0.47928,-4.63716 -0.62007,-6.96184 -0.16916,-1.99137 -0.22622,-4.0164 -0.73371,-5.96776 -0.23055,-0.95331 1.26987,-1.23993 1.50043,-0.28662 z"
       inkscape:connector-curvature="0" />
    <path
       style="fill:#000000;fill-opacity:1;fill-rule:nonzero;stroke:none"
       id="path5542"
       d="m 506.51738,321.30044 c -0.76324,0.10671 -1.35283,0.37055 -1.73939,0.97655 -0.47294,1.0169 -0.5834,2.10879 -0.50399,3.19906 0.11775,0.78931 0.85075,1.0488 1.64884,1.11629 1.06754,-0.0279 1.55134,-0.71026 1.93084,-1.51243 0.37293,-0.95813 0.25594,-1.92516 -0.45593,-2.72304 -0.466,-0.36295 -1.06256,-0.58157 -1.66894,-0.66652 -0.0614,-0.005 -0.12272,-0.0117 -0.18407,-0.0176 -1.07926,-0.11056 -0.91193,-1.47997 0.16732,-1.36941 l 0,0 c 0.0916,0.01 0.18318,0.0196 0.27479,0.0294 0.99739,0.16629 1.93887,0.53127 2.64448,1.20844 0.98122,1.24966 1.2331,2.6524 0.62631,4.10256 -0.73655,1.44578 -1.66068,2.31964 -3.53869,2.3139 -1.53063,-0.22463 -2.77787,-0.90523 -2.97745,-2.4027 -0.0907,-1.38448 0.0685,-2.77268 0.74915,-4.0343 0.67133,-0.86735 1.51427,-1.4097 2.70068,-1.56833 1.06096,-0.20268 1.38702,1.14549 0.32606,1.34817 z"
       inkscape:connector-curvature="0" />
    <path
       style="fill:#000000;fill-opacity:1;fill-rule:nonzero;stroke:none"
       id="path5546"
       d="m 513.52781,321.31238 c 0.25612,1.18905 0.27262,2.4044 0.29072,3.61022 0.11929,0.6612 -0.0858,1.96335 0.86004,2.18945 1.0518,-0.10924 1.78077,-1.03499 2.30522,-1.76912 0.61722,-0.99547 0.89072,-2.11595 1.07106,-3.23456 0.0525,-0.23633 0.0507,-0.46905 -0.13577,-0.65249 1.29549,-0.0485 1.21025,-0.36941 1.17362,0.42507 0.12976,1.15789 0.57292,2.25879 1.00638,3.3482 0.29217,0.59486 0.57339,1.24462 1.26561,1.52929 -0.021,-0.018 -0.0419,-0.036 -0.0628,-0.0539 1.08131,0.0922 0.94295,1.46433 -0.13836,1.37212 l 0,0 c -0.16362,-0.0302 -0.32725,-0.0603 -0.49088,-0.0905 -1.03464,-0.49565 -1.60284,-1.33157 -2.01932,-2.29848 -0.49909,-1.2545 -1.00524,-2.53078 -1.09474,-3.87067 0.0272,-0.57087 0.21892,-2.27056 1.56463,-1.21128 0.41406,0.49761 0.57069,1.09217 0.45102,1.70759 -0.21529,1.31759 -0.55687,2.63003 -1.30732,3.79192 -0.9822,1.31028 -2.34567,2.6706 -4.28958,2.23029 -0.21761,-0.11761 -0.46103,-0.20321 -0.65286,-0.35276 -0.96067,-0.7487 -0.93486,-2.01584 -1.04128,-3.04787 -0.0163,-1.11369 -0.0269,-2.2365 -0.25583,-3.33577 -0.23056,-0.9533 1.26987,-1.23993 1.50042,-0.28662 z"
       inkscape:connector-curvature="0" />
    <path
       style="fill:#000000;fill-opacity:1;fill-rule:nonzero;stroke:none"
       id="path5550"
       d="m 524.78735,321.75825 c 0.21263,1.23099 0.25593,2.47791 0.27879,3.72056 0.0595,0.53272 -0.14823,1.17924 0.20601,1.66286 -1.42658,-0.10334 -1.0727,0.12057 -0.87382,-0.736 0.14015,-1.00262 0.35783,-1.9956 0.67811,-2.96391 0.29415,-1.06886 0.98426,-1.96237 1.72576,-2.81566 0.73894,-0.67022 1.36264,-1.15468 2.36044,-0.43614 0.71251,0.65117 1.01899,1.55013 1.26976,2.4111 0.24402,1.01881 0.51234,2.02795 0.67103,3.06116 -0.0145,0.40071 0.19884,0.60268 0.40685,0.91472 0.0269,0.0589 0.0539,0.11778 0.081,0.17667 0.39164,0.91057 -1.04041,1.40197 -1.43208,0.49141 l 0,0 c -0.004,-0.0127 -0.008,-0.0254 -0.0114,-0.0381 -0.23265,-0.30007 -0.57568,-0.86777 -0.56549,-1.36313 -0.14959,-0.98057 -0.40726,-1.9374 -0.6367,-2.90456 -0.16787,-0.59591 -0.35677,-1.2405 -0.80183,-1.72229 0.82557,-0.12943 0.25749,-0.1571 -0.12979,0.26098 -0.62745,0.71935 -1.22658,1.46039 -1.46695,2.36715 -0.31978,0.93487 -0.50162,1.90094 -0.65024,2.86865 -0.17356,0.66148 -0.82818,2.49868 -1.96968,1.08696 -0.41905,-0.72137 -0.42581,-1.50846 -0.39591,-2.30539 -0.0213,-1.17375 -0.0597,-2.35168 -0.25778,-3.51474 -0.17984,-0.96187 1.3344,-1.18404 1.51423,-0.22218 z"
       inkscape:connector-curvature="0" />
    <path
       style="fill:#000000;fill-opacity:1;fill-rule:nonzero;stroke:none"
       id="path5554"
       d="m 537.72314,322.29511 c -0.70415,0.12485 -1.53484,0.19526 -1.96555,0.76677 -0.33613,0.69175 -0.39543,1.4691 -0.21065,2.20063 0.27241,0.68503 0.91722,0.89069 1.6443,1.04249 0.38071,0.0759 0.76916,0.10078 1.15658,0.12738 1.08278,0.076 0.96993,1.45013 -0.1129,1.37412 l 0,0 c -0.47091,-0.0337 -0.94276,-0.0672 -1.40478,-0.16332 -1.31911,-0.3032 -2.37909,-0.87273 -2.78861,-2.11535 -0.23419,-1.14037 -0.1566,-2.32739 0.52482,-3.3404 0.74932,-0.76643 1.70769,-1.10903 2.83071,-1.2405 1.06097,-0.20267 1.38702,1.14551 0.32606,1.34818 z"
       inkscape:connector-curvature="0" />
    <path
       style="fill:#000000;fill-opacity:1;fill-rule:nonzero;stroke:none"
       id="path5558"
       d="m 542.94267,322.85234 c 0.84706,-0.15029 1.70472,-0.23789 2.5661,-0.28829 0.54065,0.0378 0.99939,-0.0483 1.50593,-0.18286 0.21844,-0.15359 0.18928,-0.40845 0.23239,-0.65518 0.052,-0.3984 0.17951,-0.69637 -0.27172,-0.83333 -0.72003,-0.23225 -1.44228,-0.18484 -2.1679,-0.0182 -0.93451,0.31606 -1.19959,0.9648 -1.4414,1.76967 -0.31104,1.09225 -0.004,2.13704 0.54074,3.12489 0.5963,0.6216 1.48116,0.76693 2.33972,0.87945 0.14668,0.014 0.2934,0.0279 0.4401,0.0419 1.07999,0.10434 0.92247,1.47473 -0.15753,1.37039 l 0,0 c -0.16803,-0.0164 -0.33609,-0.0328 -0.50413,-0.0494 -1.38315,-0.19103 -2.68171,-0.54457 -3.50159,-1.65008 -0.68159,-1.30164 -1.0577,-2.66924 -0.63625,-4.09367 0.43514,-1.36178 1.00365,-2.2448 2.55727,-2.73392 1.11252,-0.22716 2.22489,-0.27153 3.29187,0.16476 1.02694,0.59443 1.21124,1.20962 1.02619,2.25578 -0.14648,0.78147 -0.42571,1.44092 -1.30672,1.7488 -0.60655,0.1606 -1.20323,0.26848 -1.8408,0.2363 -0.78752,0.0455 -1.5715,0.12503 -2.34618,0.26105 -1.06096,0.20266 -1.38703,-1.14551 -0.32607,-1.34819 z"
       inkscape:connector-curvature="0" />
    <path
       style="fill:#000000;fill-opacity:1;fill-rule:nonzero;stroke:none"
       id="path5560"
       d="m 558.92665,311.7278 c 0.34967,1.20012 0.19529,2.33925 -0.16685,3.51429 -0.5851,1.62488 -1.08835,3.27043 -1.61654,4.91097 -0.2959,0.90027 -0.4982,1.82156 -0.63679,2.75157 -0.14483,0.96529 -1.66656,0.77526 -1.5217,-0.19004 l 0,0 c 0.15052,-0.99674 0.36562,-1.98466 0.68327,-2.94972 0.52727,-1.63763 1.02982,-3.2803 1.61378,-4.90229 0.30841,-0.96002 0.43948,-1.86355 0.14441,-2.84816 -0.23056,-0.95331 1.26987,-1.23991 1.50042,-0.28661 z"
       inkscape:connector-curvature="0" />
    <path
       style="fill:#000000;fill-opacity:1;fill-rule:nonzero;stroke:none"
       id="path5566"
       d="m 555.74317,326.20998 c -0.18468,0.53037 -0.31832,1.07253 -0.43608,1.61778 -0.0527,0.66649 -1.04833,1.09568 -1.59708,0.57111 -0.11161,-0.10665 -0.18798,-0.2391 -0.28195,-0.35866 -0.16385,-0.36564 -0.17585,-0.76469 -0.18402,-1.15318 -0.0357,-0.47525 0.0912,-0.86439 0.53399,-1.16704 0.21865,-0.10476 0.45725,-0.15882 0.70365,-0.1706 0.84186,-0.008 1.09075,0.72981 1.21632,1.32562 0.0861,0.55261 0.10638,1.09269 -0.052,1.63017 -0.37433,0.63757 -1.02798,0.8381 -1.75926,0.48193 -0.30442,-0.20124 -0.53966,-0.47092 -0.78391,-0.72694 -0.0735,-0.0769 -0.14602,-0.15458 -0.21808,-0.23258 -0.68952,-0.75561 0.49652,-1.62614 1.18605,-0.87054 l 0,0 c 0.0649,0.0703 0.13033,0.14005 0.19641,0.20937 0.1471,0.15423 0.29862,0.30561 0.44368,0.4611 -0.16599,-0.0178 -0.4821,-0.029 -0.49556,0.17148 0.0357,0.31581 0.004,-0.79413 -0.0272,-0.88146 -0.0964,-0.49677 -0.15469,-0.27685 0.35621,-0.19074 0.0357,-0.0304 -0.009,0.0302 0.0282,-0.0239 0.33472,-0.3164 0.19591,-0.72602 0.20713,-0.0343 0.004,0.1932 0.0188,0.38564 0.0318,0.57843 -0.33306,-0.27721 -0.63584,-0.2442 -0.98739,0.0791 -0.049,0.0451 -0.0166,0.12973 -0.0546,0.18271 -0.0306,0.0425 0.0205,-0.0996 0.0307,-0.14946 0.12623,-0.58323 0.26982,-1.16319 0.46609,-1.73086 0.29587,-0.93651 1.77321,-0.55498 1.47735,0.38155 z"
       inkscape:connector-curvature="0" />
    <path
       style="fill:#000000;fill-opacity:1;fill-rule:nonzero;stroke:none"
       id="path5582"
       d="m 556.13259,182.51961 c -1.12573,-0.40028 -2.27481,-0.72251 -3.41848,-1.06553 -1.32292,-0.4161 -2.66213,-0.75375 -4.00566,-1.09227 -0.8942,-0.30334 -0.46075,-0.1519 -1.30078,-0.45307 -0.98372,-0.3528 -0.48478,-1.744 0.49894,-1.39119 l 0,0 c 0.78232,0.28067 0.3943,0.14362 1.16399,0.41136 1.36414,0.3459 2.72505,0.68773 4.06888,1.10974 1.22366,0.36852 2.45807,0.70524 3.65407,1.15903 0.93475,0.46737 0.27378,1.7893 -0.66096,1.32193 z"
       inkscape:connector-curvature="0" />
    <path
       style="fill:#000000;fill-opacity:1;fill-rule:nonzero;stroke:none"
       id="path5584"
       d="m 557.85714,183.89404 c -0.46577,1.58972 -1.18115,3.09747 -1.92197,4.57475 -0.52839,1.17459 -1.11396,2.32093 -1.60861,3.51042 -0.40164,0.96481 -1.7661,0.39681 -1.36445,-0.56801 l 0,0 c 0.50894,-1.22137 1.10724,-2.40023 1.65226,-3.60562 0.68364,-1.35958 1.33729,-2.74673 1.79351,-4.20139 0.20496,-1.02479 1.65422,-0.73493 1.44926,0.28985 z"
       inkscape:connector-curvature="0" />
    <path
       inkscape:connector-curvature="0"
       d="m 460.30551,274.25263 c 0.51046,-1.08024 0.9456,-2.19149 1.40088,-3.29528 0.54586,-1.27487 1.01528,-2.57377 1.486,-3.87687 0.39094,-0.85952 0.19706,-0.44332 0.58044,-1.24916 0.44908,-0.94367 1.78363,-0.30858 1.33455,0.63509 l 0,0 c -0.35724,0.75046 -0.1822,0.37803 -0.52531,1.1172 -0.48012,1.32288 -0.95586,2.64296 -1.50969,3.93804 -0.48862,1.18085 -0.94667,2.37556 -1.51739,3.52038 -0.5582,0.88353 -1.80768,0.0941 -1.24948,-0.7894 z"
       id="path5588"
       style="fill:#000000;fill-opacity:1;fill-rule:nonzero;stroke:none" />
    <path
       inkscape:connector-curvature="0"
       d="m 458.76606,275.83163 c -1.53539,-0.62186 -2.96435,-1.48394 -4.36045,-2.36828 -1.11608,-0.64281 -2.19836,-1.3397 -3.33265,-1.95043 -0.91998,-0.49578 -0.21884,-1.79684 0.70116,-1.30105 l 0,0 c 1.16457,0.62812 2.27795,1.34092 3.42302,2.00334 1.28469,0.81573 2.5998,1.60436 4.00175,2.20326 0.99926,0.30606 0.56643,1.71922 -0.43283,1.41316 z"
       id="path5590"
       style="fill:#000000;fill-opacity:1;fill-rule:nonzero;stroke:none" />
    <path
       style="fill:#000000;fill-opacity:1;fill-rule:nonzero;stroke:none"
       id="path5600"
       d="m 339.12315,166.68665 c -0.38261,2.18586 -0.23031,4.06615 0.18153,6.23289 0.94717,3.37927 2.81101,5.76667 5.41357,8.03902 1.80273,1.50331 3.93428,2.4526 6.15773,3.13574 0.99838,0.30893 0.56148,1.72084 -0.43689,1.41191 l 0,0 c -2.41957,-0.75354 -4.73703,-1.79159 -6.69586,-3.43693 -0.45439,-0.40083 -0.93165,-0.77712 -1.36315,-1.20249 -2.14734,-2.11676 -3.72655,-4.769 -4.52774,-7.67327 -0.4379,-2.33763 -0.59833,-4.39557 -0.18704,-6.74985 0.17181,-1.03086 1.62966,-0.78788 1.45785,0.24298 z"
       inkscape:connector-curvature="0" />
    <path
       inkscape:connector-curvature="0"
       d="m 470.74226,284.14423 c -2.71785,-0.58627 -5.48878,-0.98155 -8.26983,-0.8426 -3.50341,-0.0203 -5.84229,1.80345 -8.30663,4.0413 -2.657,3.01853 -4.2036,6.70201 -5.33752,10.51269 -0.97422,3.68497 -1.31255,7.45398 -0.9186,11.23533 0.49804,3.42966 2.43828,6.22236 4.49152,8.90601 1.80661,2.51742 4.13006,4.24901 6.93417,5.49188 2.87423,0.96464 5.91494,1.17522 8.92229,1.30169 2.40701,0.16536 4.69001,-0.6653 6.85908,-1.61933 2.28171,-1.36543 3.96831,-3.41121 5.40313,-5.60927 1.2569,-1.91596 2.29609,-3.90462 2.86658,-6.12866 0.4584,-1.85483 1.10092,-3.64737 1.44718,-5.53322 0.28263,-2.0221 0.30345,-4.06967 0.32626,-6.10789 -0.17141,-2.18093 -1.17429,-4.04784 -2.14802,-5.95083 -0.67127,-1.88903 -1.86754,-3.44343 -3.20044,-4.90457 -1.15596,-1.33682 -2.72869,-2.06857 -4.39432,-2.55161 -3.09552,-0.92362 -6.13408,-1.99256 -9.15282,-3.14261 -0.54378,-0.24053 -1.08755,-0.48106 -1.63133,-0.7216 -2.7012,-1.20039 -1.00359,-5.02048 1.69762,-3.82008 l 0,0 c 0.47402,0.21177 0.94804,0.42354 1.42206,0.6353 2.9275,1.1155 5.87207,2.15837 8.87634,3.0482 2.37834,0.74177 4.60937,1.8316 6.27759,3.74258 1.56793,1.73408 3.00297,3.59383 3.82685,5.81044 1.28253,2.50732 2.48811,5.02428 2.60651,7.90203 -0.026,2.28013 -0.0553,4.57118 -0.39745,6.83023 -0.37768,1.98545 -1.01918,3.88457 -1.51542,5.83527 -0.71989,2.65138 -1.89534,5.07645 -3.42054,7.36314 -1.90969,2.85768 -4.14953,5.49016 -7.2279,7.13893 -2.75972,1.18141 -5.64974,2.16834 -8.69909,1.96006 -3.53937,-0.15289 -7.11317,-0.43654 -10.46688,-1.66936 -3.40996,-1.56637 -6.31767,-3.68792 -8.53456,-6.76461 -2.51859,-3.30761 -4.77255,-6.79915 -5.3273,-11.01952 -0.43059,-4.33183 -0.0644,-8.64984 1.07501,-12.8642 1.38094,-4.53272 3.26171,-8.89817 6.53814,-12.40877 3.1848,-2.86276 6.47931,-5.10303 10.93962,-5.11585 3.18202,-0.10575 6.34683,0.24947 9.45257,0.96401 2.86767,0.71692 1.8538,4.77241 -1.01387,4.05549 z"
       id="path5606"
       style="fill:#000000;fill-opacity:1;fill-rule:nonzero;stroke:none" />
    <path
       inkscape:connector-curvature="0"
       d="m 452.92618,302.6591 c -0.38261,2.18586 -0.23031,4.06615 0.18153,6.23289 0.94717,3.37927 2.81101,5.76667 5.41357,8.03902 1.80273,1.50331 3.93428,2.4526 6.15773,3.13574 0.99838,0.30893 0.56148,1.72084 -0.43689,1.41191 l 0,0 c -2.41957,-0.75354 -4.73703,-1.79159 -6.69586,-3.43693 -0.45439,-0.40083 -0.93165,-0.77712 -1.36315,-1.20249 -2.14734,-2.11676 -3.72655,-4.769 -4.52774,-7.67327 -0.4379,-2.33763 -0.59833,-4.39557 -0.18704,-6.74985 0.17181,-1.03086 1.62966,-0.78788 1.45785,0.24298 z"
       id="path5608"
       style="fill:#000000;fill-opacity:1;fill-rule:nonzero;stroke:none" />
    <path
       style="fill:#000000;fill-opacity:1;fill-rule:nonzero;stroke:none"
       id="path5610"
       d="m 587.99386,149.15709 c -2.71785,-0.58627 -5.48878,-0.98155 -8.26983,-0.8426 -3.50341,-0.0203 -5.84229,1.80345 -8.30663,4.0413 -2.657,3.01853 -4.2036,6.70201 -5.33752,10.51269 -0.97422,3.68497 -1.31255,7.45398 -0.9186,11.23533 0.49804,3.42966 2.43828,6.22236 4.49152,8.90601 1.80661,2.51742 4.13006,4.24901 6.93417,5.49188 2.87423,0.96464 5.91494,1.17522 8.92229,1.30169 2.40701,0.16536 4.69001,-0.6653 6.85908,-1.61933 2.28171,-1.36543 3.96831,-3.41121 5.40313,-5.60927 1.2569,-1.91596 2.29609,-3.90462 2.86658,-6.12866 0.4584,-1.85483 1.10092,-3.64737 1.44718,-5.53322 0.28263,-2.0221 0.30345,-4.06967 0.32626,-6.10789 -0.17141,-2.18093 -1.17429,-4.04784 -2.14802,-5.95083 -0.67127,-1.88903 -1.86754,-3.44343 -3.20044,-4.90457 -1.15596,-1.33682 -2.72869,-2.06857 -4.39432,-2.55161 -3.09552,-0.92362 -6.13408,-1.99256 -9.15282,-3.14261 -0.54378,-0.24053 -1.08755,-0.48106 -1.63133,-0.7216 -2.7012,-1.20039 -1.00359,-5.02048 1.69762,-3.82008 l 0,0 c 0.47402,0.21177 0.94804,0.42354 1.42206,0.6353 2.9275,1.1155 5.87207,2.15837 8.87634,3.0482 2.37834,0.74177 4.60937,1.8316 6.27759,3.74258 1.56793,1.73408 3.00297,3.59383 3.82685,5.81044 1.28253,2.50732 2.48811,5.02428 2.60651,7.90203 -0.026,2.28013 -0.0553,4.57118 -0.39745,6.83023 -0.37768,1.98545 -1.01918,3.88457 -1.51542,5.83527 -0.71989,2.65138 -1.89534,5.07645 -3.42054,7.36314 -1.90969,2.85768 -4.14953,5.49016 -7.2279,7.13893 -2.75972,1.18141 -5.64974,2.16834 -8.69909,1.96006 -3.53937,-0.15289 -7.11317,-0.43654 -10.46688,-1.66936 -3.40996,-1.56637 -6.31767,-3.68792 -8.53456,-6.76461 -2.51859,-3.30761 -4.77255,-6.79915 -5.3273,-11.01952 -0.43059,-4.33183 -0.0644,-8.64984 1.07501,-12.8642 1.38094,-4.53272 3.26171,-8.89817 6.53814,-12.40877 3.1848,-2.86276 6.47931,-5.10303 10.93962,-5.11585 3.18202,-0.10575 6.34683,0.24947 9.45257,0.96401 2.86767,0.71692 1.8538,4.77241 -1.01387,4.05549 z"
       inkscape:connector-curvature="0" />
    <path
       style="fill:#000000;fill-opacity:1;fill-rule:nonzero;stroke:none"
       id="path5612"
       d="m 570.17778,167.67196 c -0.38261,2.18586 -0.23031,4.06615 0.18153,6.23289 0.94717,3.37927 2.81101,5.76667 5.41357,8.03902 1.80273,1.50331 3.93428,2.4526 6.15773,3.13574 0.99838,0.30893 0.56148,1.72084 -0.43689,1.41191 l 0,0 c -2.41957,-0.75354 -4.73703,-1.79159 -6.69586,-3.43693 -0.45439,-0.40083 -0.93165,-0.77712 -1.36315,-1.20249 -2.14734,-2.11676 -3.72655,-4.769 -4.52774,-7.67327 -0.4379,-2.33763 -0.59833,-4.39557 -0.18704,-6.74985 0.17181,-1.03086 1.62966,-0.78788 1.45785,0.24298 z"
       inkscape:connector-curvature="0" />
    <path
       style="fill:#000000;fill-opacity:1;fill-rule:nonzero;stroke:none"
       id="path7150"
       d="m 255.84106,64.25719 c 0.6269,4.423821 0.88016,8.887163 1.08871,13.346555 0.0814,2.09151 0.14894,4.183963 0.16822,6.277082 0.003,0.168496 -2.8e-4,0.336964 -0.002,0.505428 -0.0639,2.955231 -4.24325,2.864822 -4.17932,-0.09041 l 0,0 c 0.002,-0.125588 0.004,-0.25122 10e-4,-0.376834 -0.0185,-2.040784 -0.0851,-4.080904 -0.16383,-6.120132 -0.20203,-4.326894 -0.44422,-8.657932 -1.05126,-12.950506 -0.41803,-2.926214 3.72026,-3.517399 4.13829,-0.591184 z"
       inkscape:connector-curvature="0"
       transform="translate(329.77277,142.4979)" />
    <path
       style="fill:#000000;fill-opacity:1;fill-rule:nonzero;stroke:none"
       id="path7152"
       d="m 246.98558,70.070267 c 4.23781,1.061323 8.58468,1.588979 12.91929,2.07245 0.90512,0.102362 1.81301,0.173406 2.71784,0.277635 2.93618,0.340994 2.45394,4.493392 -0.48224,4.152397 l 0,0 c -0.89843,-0.105362 -1.80076,-0.16999 -2.69928,-0.275522 -4.56581,-0.50991 -9.144,-1.072664 -13.60402,-2.207495 -2.84219,-0.812055 -1.69378,-4.831519 1.14841,-4.019465 z"
       inkscape:connector-curvature="0"
       transform="translate(329.77277,142.4979)" />
    <path
       style="fill:#000000;fill-opacity:1;fill-rule:nonzero;stroke:none"
       id="path7156"
       d="m 19.114733,73.836795 c 3.402551,0 6.805103,0 10.207655,0 1.248394,0 2.496788,0 3.745182,0 2.955923,0 2.955923,4.180306 0,4.180306 l 0,0 c -1.248394,0 -2.496788,0 -3.745182,0 -3.402552,0 -6.805104,0 -10.207655,0 -2.955923,0 -2.955923,-4.180306 0,-4.180306 z"
       inkscape:connector-curvature="0"
       transform="translate(329.77277,142.4979)" />
  </g>
</svg>
