<?xml version="1.0" encoding="UTF-8" standalone="no"?>
<!-- Created with Inkscape (http://www.inkscape.org/) -->

<svg
   xmlns:dc="http://purl.org/dc/elements/1.1/"
   xmlns:cc="http://creativecommons.org/ns#"
   xmlns:rdf="http://www.w3.org/1999/02/22-rdf-syntax-ns#"
   xmlns:svg="http://www.w3.org/2000/svg"
   xmlns="http://www.w3.org/2000/svg"
   xmlns:sodipodi="http://sodipodi.sourceforge.net/DTD/sodipodi-0.dtd"
   xmlns:inkscape="http://www.inkscape.org/namespaces/inkscape"
   width="383.17871"
   height="321.29962"
   id="svg4102"
   version="1.1"
   inkscape:version="0.48.0 r9654"
   sodipodi:docname="BounceEnergy.svg">
  <defs
     id="defs4104">
    <inkscape:path-effect
       is_visible="true"
       id="path-effect4667"
       effect="spiro" />
    <inkscape:path-effect
       effect="spiro"
       id="path-effect4663"
       is_visible="true" />
  </defs>
  <sodipodi:namedview
     inkscape:document-units="mm"
     pagecolor="#ffffff"
     bordercolor="#666666"
     borderopacity="1.0"
     inkscape:pageopacity="0.0"
     inkscape:pageshadow="2"
     inkscape:zoom="1.4353016"
     inkscape:cx="303.22344"
     inkscape:cy="164.03118"
     inkscape:current-layer="layer1"
     id="namedview4106"
     showgrid="false"
     fit-margin-top="0"
     fit-margin-left="0"
     fit-margin-right="0"
     fit-margin-bottom="0"
     inkscape:window-width="1280"
     inkscape:window-height="752"
     inkscape:window-x="0"
     inkscape:window-y="0"
     inkscape:window-maximized="1" />
  <metadata
     id="metadata4108">
    <rdf:RDF>
      <cc:Work
         rdf:about="">
        <dc:format>image/svg+xml</dc:format>
        <dc:type
           rdf:resource="http://purl.org/dc/dcmitype/StillImage" />
        <dc:title />
      </cc:Work>
    </rdf:RDF>
  </metadata>
  <g
     inkscape:label="Layer 1"
     inkscape:groupmode="layer"
     id="layer1"
     transform="translate(-222.95765,-212.38815)">
    <path
       style="fill:#000000;fill-opacity:1;fill-rule:nonzero;stroke:none"
       id="path4647"
       d="m 313.82213,363.28771 c 3.22857,8.2157 6.45715,16.4314 9.68572,24.6471 5.74607,15.25136 10.70452,30.77951 16.0191,46.18295 3.52785,10.14493 7.23287,20.22682 11.04358,30.26854 0.221,0.57883 0.44116,1.15798 0.66178,1.73695 1.05229,2.76228 -2.8541,4.25048 -3.90644,1.48819 l 0,0 c -0.22169,-0.5805 -0.44245,-1.16136 -0.66367,-1.74204 -3.8257,-10.08144 -7.54529,-20.2032 -11.08696,-30.38827 -5.29525,-15.34792 -10.23669,-30.81968 -15.95805,-46.01743 -3.22857,-8.2157 -6.45713,-16.43141 -9.6857,-24.6471 -1.08113,-2.75112 2.80955,-4.28006 3.89067,-1.52894 z"
       inkscape:connector-curvature="0" />
    <path
       style="fill:#000000;fill-opacity:1;fill-rule:nonzero;stroke:none"
       id="path4649"
       d="m 313.58262,362.45196 c -0.66235,4.4756 -0.6466,9.00704 -1.0277,13.50996 -0.037,3.25988 -0.42822,6.46741 -1.07186,9.65657 -0.58908,2.89664 -4.68554,2.06356 -4.09646,-0.83307 l 0,0 c 0.62156,-3.03047 0.96457,-6.07877 1.00307,-9.178 0.39027,-4.55885 0.36581,-9.14846 1.04564,-13.67964 0.37065,-2.9326 4.51796,-2.40842 4.14731,0.52418 z"
       inkscape:connector-curvature="0" />
    <path
       inkscape:connector-curvature="0"
       d="m 310.95336,363.37589 c 3.40962,3.04469 6.29769,6.5668 9.49366,9.81272 2.11737,2.50284 4.49236,4.73831 7.06302,6.79795 2.33855,1.86786 5.17183,-1.40035 2.83329,-3.2682 l 0,0 c -2.45092,-1.95079 -4.68435,-4.09372 -6.7001,-6.47108 -3.23931,-3.28341 -6.15747,-6.85616 -9.61704,-9.93275 -2.18206,-2.03557 -5.25489,1.02579 -3.07283,3.06136 z"
       id="path4651"
       style="fill:#000000;fill-opacity:1;fill-rule:nonzero;stroke:none" />
    <path
       style="fill:none;stroke:#000000;stroke-width:3.41525197;stroke-linecap:butt;stroke-linejoin:miter;stroke-miterlimit:4;stroke-opacity:1;stroke-dasharray:6.83050402, 6.83050402;stroke-dashoffset:0"
       d="m 224.66528,310.63968 c 25.34727,21.64784 54.83509,38.43005 86.3917,49.16755 42.00547,14.29284 87.46614,17.77097 131.38735,11.47243 35.59027,-5.10384 70.50162,-16.68322 100.79031,-36.05619 24.02684,-15.36782 44.96004,-35.55083 61.19411,-59.00108"
       id="path4661"
       inkscape:path-effect="#path-effect4663"
       inkscape:original-d="m 224.66528,310.63968 c 0,0 41.39602,40.97297 86.3917,49.16755 44.99566,8.1946 97.19065,16.38918 131.38735,11.47243 34.19673,-4.91676 84.59188,-26.22269 100.79031,-36.05619 16.19844,-9.83351 48.59533,-39.33406 61.19411,-59.00108"
       inkscape:connector-curvature="0"
       sodipodi:nodetypes="csssc" />
    <path
       sodipodi:nodetypes="csc"
       inkscape:connector-curvature="0"
       inkscape:original-d="m 312.45042,359.80723 c 44.99566,8.1946 97.19065,16.38918 131.38735,11.47243 34.19673,-4.91676 84.59188,-26.22269 100.79031,-36.05619"
       inkscape:path-effect="#path-effect4667"
       id="path4665"
       d="m 312.45042,359.80723 c 42.05494,14.17758 87.51167,18.14675 131.38735,11.47243 35.49503,-5.39947 69.92459,-17.71612 100.79031,-36.05619"
       style="fill:none;stroke:#000000;stroke-width:4.47874022;stroke-linecap:round;stroke-linejoin:miter;stroke-miterlimit:4;stroke-opacity:1;stroke-dasharray:none;stroke-dashoffset:0" />
    <path
       inkscape:connector-curvature="0"
       d="m 433.65757,374.43519 c 3.22857,8.2157 6.45715,16.4314 9.68572,24.6471 5.74607,15.25136 10.70452,30.77951 16.0191,46.18295 3.52785,10.14493 7.23287,20.22682 11.04358,30.26854 0.221,0.57883 0.44116,1.15798 0.66178,1.73695 1.05229,2.76228 -2.8541,4.25048 -3.90644,1.48819 l 0,0 c -0.22169,-0.5805 -0.44245,-1.16136 -0.66367,-1.74204 -3.8257,-10.08144 -7.54529,-20.2032 -11.08696,-30.38827 -5.29525,-15.34792 -10.23669,-30.81968 -15.95805,-46.01743 -3.22857,-8.2157 -6.45713,-16.43141 -9.6857,-24.6471 -1.08113,-2.75112 2.80955,-4.28006 3.89067,-1.52894 z"
       id="path4669"
       style="fill:#000000;fill-opacity:1;fill-rule:nonzero;stroke:none" />
    <path
       inkscape:connector-curvature="0"
       d="m 433.41806,373.59944 c -0.66235,4.4756 -0.6466,9.00704 -1.0277,13.50996 -0.037,3.25988 -0.42822,6.46741 -1.07186,9.65657 -0.58908,2.89664 -4.68554,2.06356 -4.09646,-0.83307 l 0,0 c 0.62156,-3.03047 0.96457,-6.07877 1.00307,-9.178 0.39027,-4.55885 0.36581,-9.14846 1.04564,-13.67964 0.37065,-2.9326 4.51796,-2.40842 4.14731,0.52418 z"
       id="path4671"
       style="fill:#000000;fill-opacity:1;fill-rule:nonzero;stroke:none" />
    <path
       style="fill:#000000;fill-opacity:1;fill-rule:nonzero;stroke:none"
       id="path4673"
       d="m 430.7888,374.52337 c 3.40962,3.04469 6.29769,6.5668 9.49366,9.81272 2.11737,2.50284 4.49236,4.73831 7.06302,6.79795 2.33855,1.86786 5.17183,-1.40035 2.83329,-3.2682 l 0,0 c -2.45092,-1.95079 -4.68435,-4.09372 -6.7001,-6.47108 -3.23931,-3.28341 -6.15747,-6.85616 -9.61704,-9.93275 -2.18206,-2.03557 -5.25489,1.02579 -3.07283,3.06136 z"
       inkscape:connector-curvature="0" />
    <path
       style="fill:#000000;fill-opacity:1;fill-rule:nonzero;stroke:none"
       id="path4675"
       d="m 549.3127,335.419 c 3.22857,8.2157 6.45715,16.4314 9.68572,24.6471 5.74607,15.25136 10.70452,30.77951 16.0191,46.18295 3.52785,10.14493 7.23287,20.22682 11.04358,30.26854 0.221,0.57883 0.44116,1.15798 0.66178,1.73695 1.05229,2.76228 -2.8541,4.25048 -3.90644,1.48819 l 0,0 c -0.22169,-0.5805 -0.44245,-1.16136 -0.66367,-1.74204 -3.8257,-10.08144 -7.54529,-20.2032 -11.08696,-30.38827 -5.29525,-15.34792 -10.23669,-30.81968 -15.95805,-46.01743 -3.22857,-8.2157 -6.45713,-16.43141 -9.6857,-24.6471 -1.08113,-2.75112 2.80955,-4.28006 3.89067,-1.52894 z"
       inkscape:connector-curvature="0" />
    <path
       style="fill:#000000;fill-opacity:1;fill-rule:nonzero;stroke:none"
       id="path4677"
       d="m 549.07319,334.58325 c -0.66235,4.4756 -0.6466,9.00704 -1.0277,13.50996 -0.037,3.25988 -0.42822,6.46741 -1.07186,9.65657 -0.58908,2.89664 -4.68554,2.06356 -4.09646,-0.83307 l 0,0 c 0.62156,-3.03047 0.96457,-6.07877 1.00307,-9.178 0.39027,-4.55885 0.36581,-9.14846 1.04564,-13.67964 0.37065,-2.9326 4.51796,-2.40842 4.14731,0.52418 z"
       inkscape:connector-curvature="0" />
    <path
       inkscape:connector-curvature="0"
       d="m 546.44393,335.50718 c 3.40962,3.04469 6.29769,6.5668 9.49366,9.81272 2.11737,2.50284 4.49236,4.73831 7.06302,6.79795 2.33855,1.86786 5.17183,-1.40035 2.83329,-3.2682 l 0,0 c -2.45092,-1.95079 -4.68435,-4.09372 -6.7001,-6.47108 -3.23931,-3.28341 -6.15747,-6.85616 -9.61704,-9.93275 -2.18206,-2.03557 -5.25489,1.02579 -3.07283,3.06136 z"
       id="path4679"
       style="fill:#000000;fill-opacity:1;fill-rule:nonzero;stroke:none" />
    <path
       style="fill:none;stroke:#000000;stroke-width:2.06220484;stroke-linecap:butt;stroke-linejoin:miter;stroke-miterlimit:4;stroke-opacity:1;stroke-dasharray:2.06220472, 4.12440945;stroke-dashoffset:0"
       d="M 469.58772,477.94833 413.8503,326.06387"
       id="path4681"
       inkscape:connector-curvature="0" />
    <path
       inkscape:connector-curvature="0"
       id="path4683"
       d="M 583.84942,436.14527 528.112,284.26081"
       style="fill:none;stroke:#000000;stroke-width:2.06220484;stroke-linecap:butt;stroke-linejoin:miter;stroke-miterlimit:4;stroke-opacity:1;stroke-dasharray:2.06220472, 4.12440945;stroke-dashoffset:0" />
    <path
       style="fill:#000000;fill-opacity:1;fill-rule:nonzero;stroke:none"
       id="path4731"
       d="m 306.11726,358.21166 c -0.30498,-1.86841 0.0349,-3.68488 0.70707,-5.41421 1.04747,-2.35134 2.42533,-4.52279 4.03514,-6.51263 1.64131,-1.89998 3.38598,-3.66178 5.4816,-5.04103 2.23419,-1.33564 4.68481,-2.24298 7.0955,-3.19853 3.69215,-1.31973 7.25121,-2.9319 10.78675,-4.61801 3.29374,-1.50924 5.90422,-4.00691 8.58762,-6.37613 1.68053,-1.57088 3.43684,-3.2178 4.30349,-5.40819 0.48174,-1.63122 0.82516,-3.33791 0.94142,-5.04311 0.003,-0.65578 0.002,-1.27954 -0.22401,-1.8978 -0.50581,-1.72661 1.90332,-2.42561 2.40913,-0.699 l 0,0 c 0.24533,0.93921 0.39109,1.83118 0.32111,2.80896 -0.15249,1.9741 -0.52348,3.95526 -1.12889,5.83323 -1.08132,2.52291 -2.93579,4.52168 -4.95851,6.32592 -2.8566,2.52141 -5.65352,5.1541 -9.16074,6.75507 -3.58574,1.71001 -7.19639,3.34424 -10.93998,4.68483 -2.25737,0.89428 -4.55351,1.73952 -6.65573,2.97089 -1.8915,1.21964 -3.42248,2.83913 -4.90952,4.52529 -1.45634,1.7876 -2.69182,3.74483 -3.65046,5.85516 -0.53678,1.31796 -0.79133,2.7028 -0.55025,4.13612 0.23642,1.78226 -2.25431,2.09545 -2.49074,0.31317 z"
       inkscape:connector-curvature="0" />
    <path
       inkscape:connector-curvature="0"
       d="m 411.11011,317.06752 c -1.04575,-1.57812 -2.52952,-2.67995 -4.19796,-3.49206 -2.36658,-1.01345 -4.85342,-1.67042 -7.38709,-2.03654 -2.49573,-0.27877 -4.97344,-0.38592 -7.4488,0.0261 -2.54742,0.53816 -4.96269,1.53764 -7.38138,2.47461 -3.60673,1.54052 -7.3145,2.77604 -11.05524,3.94134 -3.44308,1.13075 -7.0563,1.07199 -10.63575,1.15704 -2.30091,-0.0107 -4.7091,-0.0256 -6.83359,-1.04384 -1.46201,-0.86952 -2.87378,-1.88839 -4.11781,-3.06052 -0.44764,-0.47927 -0.87114,-0.93726 -1.12514,-1.54467 -0.80199,-1.61055 -3.04521,-0.4864 -2.24323,1.12414 l 0,0 c 0.45814,0.85582 0.95725,1.60932 1.67302,2.27918 1.45334,1.34482 3.07183,2.54634 4.79228,3.51287 2.50801,1.11634 5.22732,1.32275 7.93795,1.27211 3.81002,-0.0911 7.65182,-0.0599 11.31392,-1.26845 3.79383,-1.18186 7.55445,-2.43626 11.21312,-3.99643 2.26453,-0.87775 4.5242,-1.81782 6.90391,-2.3428 2.21707,-0.39042 4.44124,-0.24248 6.67846,-0.0158 2.28361,0.32201 4.52038,0.91855 6.65797,1.81554 1.28956,0.60226 2.41741,1.44538 3.21441,2.66084 1.03752,1.46834 3.07847,0.006 2.04095,-1.46268 z"
       id="path4733"
       style="fill:#000000;fill-opacity:1;fill-rule:nonzero;stroke:none" />
    <path
       inkscape:connector-curvature="0"
       d="m 412.02878,320.48547 c -0.3332,-2.03076 0.0382,-4.00507 0.77251,-5.88466 1.14442,-2.55564 2.6498,-4.91577 4.4086,-7.07851 1.79321,-2.06507 3.69935,-3.97996 5.98892,-5.47905 2.44096,-1.4517 5.11839,-2.43788 7.75219,-3.47645 4.03386,-1.43441 7.92232,-3.18665 11.78507,-5.01928 3.59858,-1.64038 6.45066,-4.35506 9.38241,-6.93015 1.83606,-1.70738 3.75493,-3.49739 4.70178,-5.87811 0.52632,-1.77296 0.90153,-3.62795 1.02855,-5.48131 0.003,-0.71276 0.002,-1.39072 -0.24474,-2.0627 -0.55263,-1.87664 2.07947,-2.63638 2.63209,-0.75973 l 0,0 c 0.26804,1.02081 0.42729,1.99029 0.35083,3.05303 -0.1666,2.14562 -0.57192,4.29893 -1.23337,6.34008 -1.18139,2.74213 -3.20749,4.91457 -5.41742,6.87558 -3.12098,2.7405 -6.17676,5.60195 -10.00858,7.34203 -3.91759,1.85859 -7.86241,3.63481 -11.95247,5.09189 -2.46629,0.97199 -4.97494,1.89066 -7.27173,3.22903 -2.06656,1.32561 -3.73923,3.08583 -5.36389,4.9185 -1.59112,1.94293 -2.94095,4.07022 -3.98831,6.36391 -0.58646,1.43248 -0.86458,2.93765 -0.60118,4.49552 0.2583,1.93712 -2.46294,2.27752 -2.72126,0.34038 z"
       id="path4735"
       style="fill:#000000;fill-opacity:1;fill-rule:nonzero;stroke:none" />
    <path
       style="fill:#000000;fill-opacity:1;fill-rule:nonzero;stroke:none"
       id="path4737"
       d="m 526.73877,275.76629 c -1.14253,-1.71525 -2.76362,-2.91281 -4.58648,-3.79549 -2.58561,-1.10151 -5.30261,-1.81556 -8.07077,-2.2135 -2.72671,-0.30299 -5.43373,-0.41945 -8.13819,0.0283 -2.78318,0.58492 -5.42199,1.67125 -8.06453,2.68964 -3.94053,1.67437 -7.99146,3.01724 -12.07841,4.2838 -3.76174,1.229 -7.70936,1.16513 -11.62009,1.25758 -2.51386,-0.0116 -5.14493,-0.0279 -7.46604,-1.13455 -1.59732,-0.94506 -3.13976,-2.05246 -4.49892,-3.32644 -0.48907,-0.52092 -0.95176,-1.01871 -1.22927,-1.6789 -0.87622,-1.75049 -3.32705,-0.52866 -2.45084,1.22183 l 0,0 c 0.50054,0.93018 1.04584,1.74915 1.82786,2.47721 1.58784,1.46167 3.35612,2.7676 5.2358,3.81811 2.74013,1.21333 5.71111,1.43769 8.67261,1.38264 4.16264,-0.099 8.36,-0.0651 12.36104,-1.37866 4.14495,-1.28456 8.25361,-2.64795 12.25089,-4.34369 2.47411,-0.95402 4.94292,-1.97577 7.54287,-2.54636 2.42226,-0.42434 4.85228,-0.26355 7.29656,-0.0172 2.49495,0.35 4.93874,0.99837 7.27417,1.9733 1.40891,0.65459 2.64114,1.57097 3.5119,2.89204 1.13355,1.59592 3.36338,0.007 2.22984,-1.58977 z"
       inkscape:connector-curvature="0" />
    <path
       style="fill:#000000;fill-opacity:1;fill-rule:nonzero;stroke:none"
       id="path4739"
       d="m 301.68516,289.4013 c 0.80395,-0.0929 1.6079,-0.18585 2.41186,-0.27877 0.12475,-0.0144 0.24947,-0.0288 0.37424,-0.0432 0.33916,2.92443 0.42045,1.72835 -1.80027,2.79877 -1.39921,0.82106 -2.21934,1.97719 -2.57871,3.38407 -0.223,1.91778 0.18369,3.77782 1.16062,5.43961 0.27792,0.44221 1.8397,1.84653 2.28195,0.83653 1.1798,-1.9048 1.15537,-4.05142 1.04626,-6.108 -0.17794,-1.69451 -0.57133,-3.35412 -1.09963,-4.97399 -0.0328,-0.0917 -0.0578,-0.18617 -0.0973,-0.2756 -0.0507,-0.11396 0.0646,0.29266 0.20025,0.32034 0.60858,0.12421 0.97382,0.17729 1.35582,-0.27684 0.0389,0.0398 -0.008,0.002 0.0161,-0.004 -0.1732,-0.70414 0.40739,0.90552 0.41485,0.92459 0.94299,1.82433 2.0644,3.56708 3.45046,5.14302 0.58608,0.49293 1.24371,1.51758 2.16692,1.63262 0.0994,0.0124 0.17459,-0.0989 0.26785,-0.13743 -0.16485,-0.10539 -0.26711,0.12063 -0.2506,-0.11833 0.4706,-1.39132 2.66518,-0.89534 2.19458,0.49597 l 0,0 c -0.29459,0.74618 -0.64716,1.31082 -1.54841,1.60223 -2.20929,0.33379 -3.38242,-0.81501 -4.66942,-2.18695 -1.51678,-1.74566 -2.77535,-3.65795 -3.78202,-5.68599 -0.19303,-0.49236 -0.44155,-0.99046 -0.53634,-1.50966 -0.005,-0.28852 0.0467,-0.57634 0.1615,-0.85261 0.80275,-1.41494 2.48703,-1.07011 2.86188,0.28172 0.57473,1.76908 1.00204,3.58171 1.18447,5.43339 0.13032,2.6904 0.0891,5.55386 -1.92943,7.83551 -0.36894,0.21932 -0.6954,0.51553 -1.10677,0.65802 -1.94885,0.67475 -3.70201,-0.81846 -4.63998,-2.05284 -1.17688,-2.10755 -1.7132,-4.4148 -1.32681,-6.82595 0.60064,-1.99281 1.75841,-3.64615 3.80781,-4.76501 0.17873,-0.0816 2.22847,-0.91682 2.26108,-0.86506 0.3594,0.57053 0.48297,1.24196 0.72489,1.86279 -4.7e-4,4e-5 -9.6e-4,1.1e-4 -9.6e-4,10e-6 -0.12476,0.0144 -0.24949,0.0288 -0.37425,0.0432 -0.80395,0.0929 -1.6079,0.18584 -2.41185,0.27877 -1.616,0.18676 -1.80615,-1.82513 -0.19015,-2.01191 z"
       inkscape:connector-curvature="0" />
    <path
       style="fill:#000000;fill-opacity:1;fill-rule:nonzero;stroke:none"
       id="path4743"
       d="m 309.04827,279.29562 c 1.78389,1.98709 2.88141,4.37816 3.97586,6.7187 1.44694,2.94686 2.38206,6.06601 3.29419,9.18576 0.32031,1.09456 0.64065,2.18912 0.96223,3.28335 0.42587,0.88407 -1.93145,1.40074 -2.36051,0.28976 -0.46996,-1.49179 -0.80485,-3.04101 -1.07953,-4.58061 -0.3828,-1.78362 -0.43955,-3.60486 -0.0587,-5.41977 0.46983,-1.57174 1.47954,-2.54537 3.28904,-2.83052 1.60369,-0.19105 2.73607,0.24652 3.70135,1.3225 0.79875,1.15965 1.36768,2.44885 1.71285,3.78385 0.28944,1.78185 -0.60978,3.31964 -1.79313,4.75273 -0.90602,0.88209 -1.84783,1.73507 -2.79151,2.58567 -0.73978,0.72039 -1.15866,0.41 -2.05415,0.13366 -1.16499,-0.94795 0.43016,-2.47121 1.59517,-1.52325 l 0,0 c -0.27969,-0.0385 -0.5547,-0.14935 -0.83904,-0.11556 -0.22108,0.0262 -0.73746,0.5109 -0.30057,0.1191 0.86462,-0.7793 1.7203,-1.5662 2.571,-2.35736 0.78267,-0.91565 1.48887,-1.91065 1.37014,-3.07494 -0.24256,-1.07068 -0.75034,-2.08392 -1.32564,-3.03405 -0.44884,-0.58943 -0.82086,-0.67545 -1.6824,-0.57755 -0.7523,-0.10271 -0.97254,0.58085 -1.20159,1.10604 -0.35763,1.58026 -0.24774,3.17244 0.0736,4.72489 0.24731,1.42765 0.56608,2.86371 0.98706,4.24848 0.45151,1.1694 -1.92875,2.01614 -2.03475,1.04403 -0.32181,-1.09505 -0.6424,-2.19042 -0.96294,-3.28583 -0.88636,-3.03258 -1.78928,-6.06617 -3.19771,-8.93012 -1.00048,-2.14271 -1.99267,-4.33639 -3.59166,-6.17688 -1.05516,-1.04393 0.68619,-2.43603 1.74135,-1.39209 z"
       inkscape:connector-curvature="0" />
    <path
       style="fill:#000000;fill-opacity:1;fill-rule:nonzero;stroke:none"
       id="path4749"
       d="m 327.63947,283.24163 c -0.96115,0.53383 -2.09657,0.95304 -2.78095,1.79273 -0.33451,0.41721 -0.79888,0.75214 -0.86729,1.26305 0.11687,0.354 -0.29598,-0.22018 0.0775,-0.21389 1.70314,0.29607 3.4347,0.34953 5.11327,0.74008 1.94808,0.51445 3.54836,1.52919 4.82478,2.88392 1.21222,1.88536 -0.39876,2.89497 -2.39119,3.2498 -1.42418,0.22757 -2.81717,0.18277 -4.17474,-0.16407 0.0485,0.0145 0.0972,0.029 0.14576,0.0435 -1.62098,0.029 -1.55839,-1.99973 0.0625,-2.02876 l 0,0 c 0.17833,0.0121 0.35669,0.0244 0.53504,0.0365 1.02904,0.27686 2.07353,0.28442 3.15692,0.11198 0.14423,-0.0122 0.74003,-0.0932 0.76056,-0.071 0.0813,0.0879 0.0328,0.37166 0.15101,0.31564 0.0556,-0.0267 -0.0284,-0.10567 -0.0425,-0.15853 -0.97868,-1.06365 -2.21961,-1.85315 -3.7312,-2.26024 -1.64429,-0.42172 -3.39197,-0.37068 -5.05819,-0.7274 -1.10451,-0.29255 -1.89766,-0.88855 -1.68928,-2.00773 0.18763,-0.87677 0.71253,-1.56775 1.37424,-2.24618 1.04203,-1.07836 2.37747,-1.81468 3.79504,-2.44726 1.53513,-0.52623 2.27389,1.36153 0.73876,1.88776 z"
       inkscape:connector-curvature="0" />
    <path
       style="fill:#000000;fill-opacity:1;fill-rule:nonzero;stroke:none"
       id="path4751"
       d="m 335.78925,281.62497 c -0.3337,1.43494 -0.45759,2.93187 0.19528,4.25992 0.71011,0.9584 1.75879,1.18061 3.01137,0.91135 1.20158,-0.72994 1.03419,-1.95742 0.91318,-3.0576 -0.15082,-1.22923 -0.76374,-2.30142 -1.91566,-2.97466 -0.3379,-0.20649 -0.66707,-0.13645 -1.04288,-0.0332 -0.45173,0.1691 0.0954,-0.0784 0.15269,-0.0769 0.14377,0.004 -0.18927,0.20027 -0.28277,0.30119 -1.05351,1.13384 -2.79688,-0.1097 -1.74336,-1.24353 l 0,0 c 0.36312,-0.38989 0.7525,-0.80991 1.33499,-0.92829 1.04151,-0.25623 2.05343,-0.23087 2.95303,0.29885 1.64182,1.04663 2.61669,2.55761 2.82852,4.38416 0.20377,2.23617 -0.1944,4.35987 -2.88098,5.32424 -2.34454,0.32763 -4.30344,-0.20777 -5.46477,-2.0795 -0.71214,-1.67929 -0.79101,-3.46186 -0.33083,-5.26452 0.21929,-1.42928 2.4915,-1.25067 2.27219,0.17859 z"
       inkscape:connector-curvature="0" />
    <path
       style="fill:#000000;fill-opacity:1;fill-rule:nonzero;stroke:none"
       id="path4753"
       d="m 344.31414,277.25062 c 1.18777,1.08375 1.95319,2.43891 2.85725,3.70474 0.74532,1.01506 1.44017,2.05971 2.1112,3.11621 0.11232,0.18313 0.23403,0.36202 0.32741,0.55413 -0.73809,0.21218 -1.45794,0.49787 -2.21421,0.6368 -0.005,9e-4 -0.71444,-1.80996 -0.7509,-1.90313 -0.6257,-1.53304 -1.25037,-3.05254 -1.58064,-4.67015 -0.29327,-1.95299 0.71201,-3.56408 2.2209,-4.9812 1.46781,-1.24493 3.20038,-1.60576 4.95412,-0.87439 0.64591,0.38484 1.1787,0.88878 1.5516,1.49407 0.0859,0.1652 0.0475,0.0826 0.11589,0.24757 0.50542,1.34059 -1.67358,2.06393 -2.17899,0.72343 l 0,0 c 0.007,0.0111 0.007,0.0371 0.024,0.043 -0.17156,-0.27886 -0.41266,-0.51521 -0.68745,-0.71761 -0.62306,-0.5384 -1.63527,0.0274 -2.16391,0.45477 -1.00197,0.89302 -1.73843,1.88632 -1.57826,3.16288 0.30171,1.5172 0.918,2.93202 1.49271,4.37195 0.18146,0.46225 0.36284,0.92455 0.5456,1.38636 0.0656,0.16625 0.3717,0.39865 0.1981,0.49835 -0.65749,0.37804 -1.39308,0.62943 -2.08963,0.94416 -0.0671,-0.10423 -0.13486,-0.20808 -0.19885,-0.3139 -0.6533,-1.02894 -1.32997,-2.04624 -2.0562,-3.03446 -0.89074,-1.25595 -1.65982,-2.58404 -2.82707,-3.66349 -0.87911,-1.16737 1.0479,-2.34721 1.92701,-1.17984 z"
       inkscape:connector-curvature="0" />
    <path
       style="fill:#000000;fill-opacity:1;fill-rule:nonzero;stroke:none"
       id="path4755"
       d="m 354.84746,262.22108 c 1.06871,1.49619 1.81134,3.15788 2.54699,4.80666 0.89661,2.37753 2.13632,4.61714 3.28653,6.89341 0.69091,1.2104 1.57589,2.31445 2.33394,3.48884 0.36145,0.54076 0.61686,1.13076 0.85934,1.72269 0.0756,0.18791 0.14937,0.37646 0.2159,0.56737 -2.47857,0.83644 -2.10313,0.92242 -2.63783,-0.44307 -0.48512,-1.30801 -0.62521,-2.71291 -0.7325,-4.09468 -0.14542,-1.30532 0.0267,-2.61069 0.62201,-3.84252 0.51588,-0.92891 1.44064,-1.47131 2.45669,-1.90232 1.31187,-0.62719 2.45536,-0.39856 3.59728,0.27827 1.26423,0.99215 2.14116,2.25836 2.94618,3.56233 0.59261,1.22632 0.82243,2.37802 -0.063,3.57255 -1.29107,0.975 -2.98173,1.41127 -4.53132,1.94095 -0.90566,0.30663 -1.81217,0.61116 -2.72136,0.90849 -1.26938,0.41926 -1.64052,-0.52511 -1.82634,-1.2947 -0.1742,-1.41759 2.1058,-1.73118 2.27999,-0.31357 l 0,0 c -0.62847,-0.31187 -0.0437,-0.1326 -1.25904,-0.25825 -0.0351,-0.004 0.0677,-0.0223 0.10172,-0.033 0.89824,-0.29366 1.79375,-0.59461 2.68846,-0.89759 1.17329,-0.40124 2.35073,-0.8039 3.49639,-1.26509 0.0971,0.37246 0.10633,-1.29302 -0.19089,-1.32416 -0.65169,-1.05931 -1.343,-2.0914 -2.32368,-2.93569 -0.47141,-0.3711 -0.6909,-0.40538 -1.29678,-0.11315 -0.49034,0.20041 -1.00441,0.40991 -1.27754,0.84736 -0.52222,0.86273 -0.46329,1.91252 -0.4108,2.83583 0.0934,1.20744 0.19886,2.44006 0.61544,3.58432 0.52924,1.35152 0.7913,1.04638 -1.73148,1.85684 -0.0562,-0.15662 -0.116,-0.31207 -0.17851,-0.46658 -0.19949,-0.48887 -0.40429,-0.97881 -0.70383,-1.42484 -0.79172,-1.22908 -1.72706,-2.37951 -2.42987,-3.65619 -1.16313,-2.30237 -2.4154,-4.56861 -3.32415,-6.97255 -0.67878,-1.52303 -1.35831,-3.06067 -2.33522,-4.44806 -0.87911,-1.16737 1.0479,-2.34721 1.92701,-1.17984 z"
       inkscape:connector-curvature="0" />
    <path
       style="fill:#000000;fill-opacity:1;fill-rule:nonzero;stroke:none"
       id="path4757"
       d="m 295.47001,312.15298 c -1.00087,1.26046 -1.93734,2.46332 -2.29812,3.96711 -0.2387,1.46903 0.11025,2.7707 1.14701,3.86841 1.0844,1.06258 2.46897,1.08936 4.01801,0.9066 0.95828,-0.23296 1.75263,-0.65482 2.37897,-1.3446 1.08106,-1.11371 2.79036,0.16569 1.7093,1.27939 l 0,0 c -1.07129,1.06478 -2.33409,1.78289 -3.91344,2.07885 -2.32944,0.24076 -4.43913,-0.0138 -6.01479,-1.61273 -1.39736,-1.60987 -1.95741,-3.44208 -1.56038,-5.53467 0.46928,-1.74898 1.43449,-3.21057 2.63982,-4.67205 0.91468,-1.22191 2.8083,-0.15821 1.89362,1.06369 z"
       inkscape:connector-curvature="0" />
    <path
       style="fill:#000000;fill-opacity:1;fill-rule:nonzero;stroke:none"
       id="path4759"
       d="m 304.19724,312.60095 c -0.3016,1.07577 -0.58291,2.24942 0.24326,3.13145 0.90951,0.62856 1.9856,0.66407 3.1162,0.55016 0.90277,-0.21834 1.04653,-0.79649 0.84656,-1.50101 -0.58167,-1.15765 -1.85129,-1.6861 -3.09124,-2.1775 0.0571,-0.062 -2.13241,-0.65478 -1.59092,-0.501 -0.19323,0.0758 -0.39498,0.14495 -0.59149,0.21739 0.95688,-0.44738 0.59925,-0.92534 0.01,-1.49204 1.54664,0.36564 0.85754,2.32783 -0.68907,1.96219 l 0,0 c -0.30166,-0.19888 -0.71699,-0.30749 -0.90495,-0.59665 -0.48267,-0.74254 0.21262,-1.33201 0.78382,-1.73928 0.45684,-0.16952 0.91452,-0.34505 1.40883,-0.37911 0.92594,0.0455 1.75857,0.35903 2.59845,0.67209 1.93667,0.77817 3.71257,1.74724 4.3398,3.66977 0.21409,2.11187 -0.55053,3.3346 -2.99608,3.88394 -1.95639,0.1604 -3.77798,-0.0795 -5.14826,-1.36495 -1.13078,-1.57917 -1.09827,-3.04292 -0.51479,-4.87269 0.50317,-1.38362 2.68322,-0.84636 2.18007,0.5373 z"
       inkscape:connector-curvature="0" />
    <path
       style="fill:#000000;fill-opacity:1;fill-rule:nonzero;stroke:none"
       id="path4761"
       d="m 310.97978,307.57797 c 0.52357,1.37362 1.00954,2.7478 1.79045,4.01668 0.4138,0.65602 0.83798,1.30685 1.28324,1.94575 0.51252,0.4665 -1.62674,-0.0655 -0.93521,-0.32144 0.0367,-0.0145 0.14073,-0.0664 0.11102,-0.0418 -0.56179,0.45749 -0.61747,0.60499 -0.60685,0.0809 0.0138,-0.68276 0.0261,-0.76699 0.0676,-1.5123 0.0332,-1.74714 0.19321,-3.49362 0.46019,-5.23423 0.0883,-0.85212 0.26741,-1.59686 1.03885,-2.19318 1.03597,-0.68423 2.02865,-0.29514 2.76265,0.42677 0.72318,1.0945 1.18208,2.2986 1.86609,3.41551 0.63731,1.01216 1.23651,2.04242 1.76105,3.10752 0.15632,0.32323 0.30685,0.64889 0.44213,0.9802 -1.36013,-0.86928 -0.52448,-0.74053 -1.78004,-0.34265 -0.0839,0.0269 0.0148,-0.15623 0.0356,-0.23263 0.20482,-0.75004 0.11222,-0.19076 0.19737,-0.96148 0.25046,-1.66648 0.0325,-3.32796 0.16345,-4.99722 0.12901,-1.05004 0.19855,-2.07085 0.75579,-3.03906 0.60063,-0.75042 1.30122,-1.06029 2.28033,-1.17988 1.30044,0.0567 1.61997,1.09362 2.26247,1.86206 0.83208,0.86633 1.23867,1.97525 1.93312,2.9155 0.51696,0.65628 1.05341,1.29584 1.50791,1.98969 0.12775,0.19642 0.24662,0.39731 0.34925,0.60561 0.01,0.0239 0.0193,0.0479 0.0291,0.0716 0.49474,1.34409 -1.68917,2.0543 -2.18392,0.7102 l 0,0 c 0.008,0.0172 0.0145,0.0345 0.0213,0.0519 -0.0213,-0.0386 -0.15911,-0.28567 -0.21498,-0.36188 -0.43917,-0.67379 -0.97395,-1.28475 -1.46546,-1.92748 -0.65047,-0.93505 -1.09767,-1.98088 -1.87911,-2.84341 -0.092,-0.12105 -0.94997,-1.04123 -0.48347,-1.04456 0.59071,-0.22018 -0.10707,0.0814 -0.13873,0.0286 -0.44074,0.6852 -0.31438,1.46974 -0.48685,2.21484 -0.15293,1.69877 0.11942,3.39267 -0.1736,5.08998 -0.10766,0.71329 -0.33628,2.85016 -1.70138,2.77219 -0.47211,-0.0269 -0.79832,-0.42181 -1.19748,-0.63272 -0.11616,-0.28638 -0.24948,-0.56648 -0.38277,-0.84627 -0.49904,-1.01543 -1.07333,-1.99568 -1.68014,-2.96054 -0.62246,-1.01956 -1.10991,-2.08296 -1.65627,-3.1349 -0.0337,-0.16595 0.50462,0.0362 0.44248,-0.18094 0.15313,-0.61219 -0.1965,0.73319 -0.15278,0.81567 -0.25902,1.68259 -0.41083,3.37074 -0.4419,5.05966 -0.0591,1.04565 0.29699,2.7656 -1.06613,3.33657 -0.63636,0.23448 -1.53645,0.12015 -1.82882,-0.42272 -0.46625,-0.66948 -0.91111,-1.35107 -1.34399,-2.0387 -0.83,-1.36436 -1.38295,-2.82539 -1.9327,-4.30277 -0.52239,-1.33485 1.64862,-2.07906 2.17101,-0.74421 z"
       inkscape:connector-curvature="0" />
    <path
       style="fill:#000000;fill-opacity:1;fill-rule:nonzero;stroke:none"
       id="path4763"
       d="m 330.3685,300.91904 c 0.5757,-1.23216 1.66624,-2.13156 2.86426,-2.90262 1.81533,-0.91204 3.35965,-0.26434 4.79643,0.71409 1.40123,1.00583 2.21821,2.30076 2.44543,3.89906 -0.23556,1.60567 -1.53392,2.81021 -2.86242,3.86657 -1.16657,0.9101 -2.50744,0.96307 -3.88379,0.63662 -0.74864,-0.27341 -1.3922,-0.70721 -2.11727,-1.027 -0.53885,-0.29978 -0.9066,-0.73038 -1.17226,-1.23341 -0.10433,-0.22638 -0.19213,-0.45882 -0.27604,-0.69231 -0.0484,-0.14201 -0.10507,-0.28153 -0.15985,-0.4215 -0.0302,-0.0781 -0.0607,-0.15601 -0.0911,-0.23398 2.21757,-0.54066 1.94776,-1.06484 2.65978,-0.0174 0.40501,0.5958 0.38536,0.59202 0.77111,1.25768 1.11263,1.99854 2.25683,3.97783 3.2737,6.02088 0.88901,1.62117 1.89613,3.18483 2.78769,4.80465 0.86821,1.70044 1.18664,1.06633 -1.60752,1.77297 -0.22213,-0.57021 -0.10121,-0.2601 -0.36375,-0.92999 -0.52329,-1.33455 1.64691,-2.08009 2.17035,-0.7459 l 0,0 c 0.26592,0.67803 0.14288,0.36252 0.37002,0.94621 -2.53888,1.51212 -1.74802,1.54012 -2.64066,-0.0868 -0.90209,-1.64238 -1.93008,-3.22382 -2.82241,-4.87099 -0.99949,-2.00967 -2.12558,-3.95602 -3.22034,-5.92145 -0.30153,-0.5251 -0.62543,-1.01991 -0.96832,-1.52236 -0.11113,-0.16282 -0.48953,-0.35653 -0.32566,-0.4927 0.57428,-0.47722 1.38898,-0.64535 2.08346,-0.96801 9.6e-4,0.003 0.002,0.005 0.003,0.007 0.0313,0.08 0.0626,0.16009 0.0936,0.2402 0.0618,0.15928 0.12547,0.31802 0.18139,0.47919 0.0593,0.16729 0.12233,0.33346 0.19381,0.49659 0.0407,0.0935 0.17362,0.21914 0.16174,0.28693 0.61551,0.27293 1.18883,0.60358 1.77414,0.90626 0.58361,0.20723 1.12872,0.21515 1.64233,-0.17623 0.7855,-0.61703 1.49139,-1.30587 2.06278,-2.08672 -0.0567,-1.07379 -0.74159,-1.89238 -1.6204,-2.56833 -0.59136,-0.40821 -1.22466,-0.99765 -2.06157,-0.71115 -0.88019,0.54855 -1.67932,1.17927 -2.08453,2.08187 -0.71613,1.31599 -2.77365,0.50737 -2.05754,-0.80861 z"
       inkscape:connector-curvature="0" />
    <path
       style="fill:#000000;fill-opacity:1;fill-rule:nonzero;stroke:none"
       id="path4775"
       d="m 343.2338,295.46276 c 0.9722,1.32386 1.5819,2.82644 2.40582,4.22321 0.71394,1.09016 1.38922,2.20007 2.03159,3.32645 0.12602,0.22489 0.2546,0.44877 0.36827,0.67921 0.0116,0.0287 0.0688,0.0773 0.0346,0.0859 -2.94015,0.74739 -2.19042,0.7349 -2.95946,-1.23885 -0.59338,-1.28996 -0.96241,-2.61331 -1.05075,-4.02226 -0.0658,-1.10015 0.0838,-2.1738 0.51299,-3.22786 0.20763,-0.52584 0.53938,-0.89769 1.13772,-1.14009 0.68716,-0.2346 1.37808,-0.45939 2.06674,-0.69012 0.43469,-0.14613 0.86939,-0.29228 1.30343,-0.44011 0.0325,-0.0111 0.065,-0.0221 0.0975,-0.0332 1.5285,-0.54289 2.29435,1.33541 0.76592,1.87829 l 0,0 c -0.0438,0.0151 -0.0878,0.0303 -0.13185,0.0452 -0.43765,0.14812 -0.8753,0.29624 -1.31328,0.44349 -0.65371,0.21932 -1.30887,0.43482 -1.96299,0.65302 0.15279,-0.152 0.42946,-0.5099 0.18614,-0.0997 -0.33603,0.7929 -0.41869,1.58932 -0.37153,2.41982 0.0494,1.22533 0.43272,2.3513 0.932,3.47203 0.20444,0.52499 0.67971,1.65984 0.6591,1.67375 -0.62483,0.4216 -1.38922,0.64113 -2.06314,0.9958 -0.0265,0.0138 0.0203,0.0493 0.0309,0.0737 -0.0698,-0.1353 -0.20966,-0.38957 -0.29968,-0.54649 -0.63859,-1.12015 -1.31249,-2.22246 -2.02061,-3.30746 -0.78052,-1.3392 -1.38113,-2.76596 -2.28624,-4.04387 -0.87912,-1.16738 1.0479,-2.34722 1.92701,-1.17986 z"
       inkscape:connector-curvature="0" />
    <path
       style="fill:#000000;fill-opacity:1;fill-rule:nonzero;stroke:none"
       id="path4777"
       d="m 353.70919,294.40519 c 1.29094,-0.116 2.54915,-0.43704 3.79354,-0.78183 0.86196,-0.2274 1.71131,-0.62383 2.27461,-1.26752 0.28233,-0.39302 0.16297,-0.12576 0.0255,-0.55469 -0.18481,-0.55188 -0.41081,-1.09049 -0.63184,-1.63023 -0.392,-0.99383 -0.19703,-0.17906 0.41168,-0.0107 -0.52872,0.14758 -1.04827,0.3207 -1.56601,0.49924 -0.86754,0.29356 -0.45987,0.0758 -0.68575,0.53832 -0.25576,0.8487 -0.50058,1.69937 -0.73077,2.5528 -0.002,0.20914 0.0149,0.41584 0.0796,0.6134 0.13992,0.45701 0.32244,0.85079 0.65379,1.21028 0.47176,0.49703 0.77363,1.13515 1.42982,1.46738 0.43918,0.32934 0.87819,0.59967 1.44531,0.6515 0.65544,-0.107 1.28805,-0.35242 1.91377,-0.56433 0.83704,-0.28789 1.67241,-0.57999 2.50792,-0.87175 0.32487,-0.11423 0.65073,-0.22594 0.97626,-0.33849 0.0928,-0.032 0.18552,-0.0637 0.27832,-0.0955 0.005,-0.002 0.008,-0.003 0.0126,-0.004 1.5384,-0.5178 2.26416,1.37371 0.72594,1.89212 l 0,0 c -8.9e-4,3.1e-4 0.0161,-0.005 -0.003,9e-4 -0.0908,0.0311 -0.18158,0.0621 -0.27232,0.0934 -0.32194,0.11073 -0.64378,0.22165 -0.96484,0.33457 -0.8431,0.29475 -1.68634,0.58916 -2.53112,0.8797 -0.92316,0.31264 -1.86346,0.68039 -2.85168,0.70067 -1.00175,-0.0839 -1.85509,-0.42143 -2.60725,-0.99599 -0.77346,-0.51011 -1.35653,-1.14016 -1.88795,-1.85005 -0.48737,-0.56065 -0.82159,-1.16768 -1.02949,-1.85852 -0.16312,-0.5335 -0.21112,-1.08666 -0.10469,-1.64672 0.26858,-0.99554 0.53323,-1.99436 0.89738,-2.97032 0.45207,-0.8044 1.0143,-1.38067 2.00509,-1.62551 0.71533,-0.24713 1.43403,-0.50116 2.18501,-0.63183 1.00543,0.009 1.62818,0.39693 1.87371,1.2602 0.24444,0.59798 0.49472,1.19472 0.6934,1.80789 0.23761,0.86458 0.2018,1.65294 -0.50462,2.38935 -0.90603,0.94723 -2.09355,1.61468 -3.4303,1.95883 -1.37507,0.37957 -2.76596,0.72844 -4.1915,0.85936 -1.61599,0.18678 -1.80615,-1.82513 -0.19015,-2.0119 z"
       inkscape:connector-curvature="0" />
    <path
       style="fill:#000000;fill-opacity:1;fill-rule:nonzero;stroke:none"
       id="path4779"
       d="m 370.48582,286.27856 c -1.04641,0.1604 -2.26918,0.35519 -3.10479,1.01717 -0.1178,-0.1747 -0.15636,0.45198 -0.15064,0.42593 0.0194,-0.0886 -0.0326,-0.20353 0.0414,-0.26762 0.0472,-0.0408 0.0754,0.0892 0.11308,0.13388 0.42124,0.46917 0.9565,0.87309 1.54987,1.1684 0.51757,0.39967 0.92342,0.48361 1.58202,0.3683 1.48212,-0.32237 2.98263,-0.55053 4.46614,-0.87611 1.89272,-0.35644 2.98626,0.60053 3.79866,1.93047 0.72088,1.20881 0.7259,2.52904 0.32732,3.86046 -0.60548,1.29628 -1.9069,2.01678 -3.26174,2.61714 -1.20962,0.54058 -2.50227,0.64705 -3.78856,0.48891 -0.4762,-0.0648 -0.95128,-0.13592 -1.42162,-0.22384 -1.56954,-0.29421 -0.99321,-2.28028 0.57632,-1.98606 l 0,0 c 0.42036,0.0767 0.84348,0.14329 1.26889,0.2001 0.82181,0.10307 1.64532,0.0767 2.4253,-0.28854 0.73216,-0.31762 1.53066,-0.667 2.00081,-1.28557 0.31182,-0.80415 0.25418,-1.63468 -0.16604,-2.36982 -0.32118,-0.55837 -0.48347,-1.11192 -1.30841,-0.9749 -1.54618,0.33881 -3.10871,0.57707 -4.65445,0.91027 -1.13457,0.14549 -2.17946,0.0519 -3.06386,-0.60286 -0.8854,-0.46247 -1.70195,-1.0675 -2.29759,-1.81154 -0.69618,-1.0662 -0.48019,-2.14198 0.625,-3.00682 1.26968,-0.80745 2.72345,-1.28071 4.25271,-1.43926 1.616,-0.18678 1.80616,1.82512 0.19016,2.0119 z"
       inkscape:connector-curvature="0" />
    <path
       style="fill:#000000;fill-opacity:1;fill-rule:nonzero;stroke:none"
       id="path4781"
       d="m 382.51291,280.84572 c -0.98824,0.39375 -2.20553,0.55734 -2.95091,1.32364 -0.38385,0.37672 -0.27065,0.52845 -0.1565,0.97445 0.19696,0.63643 0.6004,1.26599 1.37335,1.40212 0.83243,0.31629 1.67223,0.33529 2.56769,0.19756 1.14357,-0.34563 2.19868,-0.35231 3.31215,-0.0416 1.14292,0.49709 1.84974,1.35914 2.41046,2.3379 0.49513,0.88799 0.41037,1.89377 0.18195,2.86045 -0.40882,1.20561 -1.45308,1.81731 -2.66358,2.35166 -1.32323,0.63163 -2.65104,0.80162 -4.06502,0.5303 -0.99868,-0.24833 -1.74768,-0.78791 -2.3336,-1.51652 -0.90743,-1.14965 0.99315,-2.36377 1.90058,-1.21411 l 0,0 c 0.28119,0.37001 0.59292,0.63245 1.09748,0.76276 0.83388,0.2647 1.68208,-0.0302 2.46556,-0.37387 0.52237,-0.22487 1.07221,-0.39969 1.35721,-0.87476 0.12856,-0.51176 0.25483,-1.07807 1.8e-4,-1.54731 -0.30396,-0.54174 -0.64697,-1.0509 -1.21692,-1.4032 -0.68893,-0.3083 -1.45276,-0.0219 -2.17356,0.12931 -1.26706,0.18215 -2.49331,0.14731 -3.67193,-0.27463 -1.45935,-0.50539 -2.43857,-1.45216 -2.79161,-2.83786 -0.22545,-1.07132 -0.1033,-2.03248 0.83325,-2.87156 1.09535,-0.90123 2.39129,-1.388 3.785,-1.8025 1.53512,-0.52624 2.27389,1.36153 0.73877,1.88776 z"
       inkscape:connector-curvature="0" />
    <path
       style="fill:#000000;fill-opacity:1;fill-rule:nonzero;stroke:none"
       id="path4785"
       d="m 401.4477,254.69837 c -1.06784,0.24213 -2.3757,0.21986 -3.25765,0.93827 -0.22881,0.70009 0.1314,1.53497 0.52432,2.11303 0.6457,0.77727 1.56289,1.15059 2.59464,1.11295 0.58374,-0.0117 1.06619,-0.43455 1.16237,-0.99593 0.30428,-0.99575 0.12188,-1.99682 -0.0807,-2.97717 -0.14887,-0.60713 -0.32329,-1.20839 -0.53632,-1.79589 -0.31626,-0.61068 1.70899,-1.30339 2.05856,-0.31816 1.01668,1.80308 2.00427,3.62508 2.93995,5.47136 1.5619,2.94048 2.57129,6.08556 3.28987,9.32343 0.14453,1.42382 0.73703,3.60551 -0.66933,4.73238 -0.27967,0.22409 -0.64072,0.32752 -0.96107,0.49134 -2.17124,0.43997 -4.14957,-0.50917 -5.97921,-1.4732 -1.46516,-0.7574 -2.53416,-1.8193 -3.02292,-3.36478 -0.0245,-0.24773 -0.0488,-0.49552 -0.0732,-0.74329 -0.0939,-1.39678 1.95353,-1.58159 2.0474,-0.18479 l 0,0 c -3.4e-4,0.11009 -6.8e-4,0.22019 -0.001,0.33029 0.27908,1.06056 1.10945,1.7024 2.07648,2.21726 1.29096,0.69222 2.69636,1.41589 4.22803,1.38305 0.99362,0.26898 0.37422,-2.60836 0.34809,-2.92003 -0.68208,-3.08423 -1.63983,-6.07894 -3.13071,-8.87838 -0.97169,-1.91947 -2.02153,-3.79709 -3.03558,-5.69471 -0.40976,-1.16021 1.63181,-2.1013 1.8236,-1.07367 0.24233,0.67388 0.44445,1.36216 0.61042,2.05917 0.26799,1.31824 0.44419,2.66043 0.014,3.98929 -0.53562,1.35795 -1.58647,2.36515 -3.16085,2.40641 -1.75397,-0.0266 -3.27003,-0.65607 -4.31179,-2.04394 -0.87871,-1.50226 -1.32818,-3.3514 0.088,-4.7719 1.27758,-0.81703 2.73483,-1.09775 4.2237,-1.3017 1.44448,-0.17031 1.63538,1.799 0.1909,1.96931 z"
       inkscape:connector-curvature="0" />
    <path
       style="fill:#000000;fill-opacity:1;fill-rule:nonzero;stroke:none"
       id="path4789"
       d="m 409.2522,250.65912 c 1.09698,-0.12754 2.1431,-0.33812 3.13245,-0.83736 0.31896,-0.25897 0.45955,-0.42249 0.43876,-0.7487 -0.0152,-0.13818 -0.0458,-0.17064 -0.10066,-0.30667 0.0775,0.10956 -0.22075,-0.48644 -0.15027,-0.37236 0.17518,0.28446 0.10783,0.23224 -0.0798,0.1519 -0.47736,-0.10876 -0.96462,-0.0675 -1.45128,-0.0115 -0.0733,0.0259 -0.34166,0.0269 -0.39649,0.0952 -0.03,0.0373 0.2125,-0.0366 0.20501,-0.0182 -0.0466,0.11597 -0.14028,0.20961 -0.21043,0.31442 -0.3102,0.63435 -0.66239,1.24193 -0.97427,1.87218 -0.0557,0.20664 -0.59198,0.7876 -0.32405,0.67222 0.11836,0.50325 0.2638,0.95554 0.59839,1.34907 0.40104,0.55023 1.10966,0.82284 1.76475,1.00979 0.96927,0.10145 2.0263,0.34403 2.98441,0.0117 0.69061,-0.22865 0.95036,-0.88745 1.30116,-1.46505 0.10592,-0.17846 0.20847,-0.35882 0.30241,-0.54324 0.65138,-1.271 2.48464,-0.43114 1.83327,0.83986 l 0,0 c -0.11739,0.22813 -0.24281,0.45245 -0.37512,0.67316 -0.63255,1.03725 -1.28334,2.0526 -2.55941,2.40423 -1.38709,0.33315 -2.78442,0.25667 -4.16165,-0.0293 -1.02567,-0.33179 -2.07516,-0.77703 -2.71865,-1.6504 -0.54594,-0.69174 -0.85772,-1.46533 -1.0094,-2.33097 -0.0391,-0.66602 0.12584,-1.21962 0.52726,-1.77431 0.36831,-0.69289 0.72492,-1.39024 1.09789,-2.08318 0.48035,-0.71757 1.02079,-1.26791 1.93624,-1.31798 0.88066,-0.0968 1.76404,-0.11773 2.59205,0.20409 0.54651,0.27824 1.00976,0.63125 1.18269,1.23293 0.13655,0.33938 0.24522,0.68175 0.23736,1.05536 -0.0489,1.11284 -0.62639,1.91096 -1.59606,2.52605 -1.21807,0.59544 -2.49152,0.90041 -3.83553,1.0463 -1.44448,0.17033 -1.63538,-1.79898 -0.1909,-1.9693 z"
       inkscape:connector-curvature="0" />
    <path
       style="fill:#000000;fill-opacity:1;fill-rule:nonzero;stroke:none"
       id="path4791"
       d="m 420.11419,244.88058 c 0.74736,1.11661 1.34001,2.32153 1.89332,3.53998 0.44478,0.729 0.94916,1.42184 1.43726,2.12364 0.92194,0.67523 -1.39533,1.76985 -1.71377,0.86159 -0.23685,-0.65317 -0.4812,-1.30359 -0.7218,-1.95538 -0.41516,-1.05312 -0.26053,-2.21978 -0.19005,-3.33071 0.16925,-1.3973 0.49618,-2.72762 1.32708,-3.91255 1.03184,-1.26729 2.36339,-0.88603 3.48623,-0.0824 0.829,0.68344 1.26233,1.67251 1.84511,2.54384 0.55991,1.02894 1.29344,1.94073 1.98328,2.88583 0.23745,0.32794 0.47258,0.65749 0.70042,0.99188 0.0276,0.0386 0.0502,0.0801 0.0746,0.12068 0.66733,1.22675 -1.15443,2.18924 -1.82177,0.96249 l 0,0 c 0.006,0.011 0.0257,0.0437 0.0186,0.0331 -0.21437,-0.31487 -0.43634,-0.6247 -0.65955,-0.93363 -0.70471,-0.96583 -1.45266,-1.90061 -2.028,-2.94984 -0.46477,-0.69514 -0.82022,-1.47703 -1.40575,-2.07879 -0.45677,-0.39466 0.1084,0.0691 -0.44557,-0.30057 -0.1493,-0.0997 0.39501,-0.42578 -0.0734,-0.0926 -0.63794,0.85358 -0.79185,1.86522 -0.95367,2.87836 -0.0538,0.83923 -0.21659,1.75178 0.0762,2.54949 0.24554,0.66232 0.49295,1.32395 0.7338,1.988 0.31866,0.91493 -1.63222,1.97889 -1.94465,0.96038 -0.55344,-0.79578 -1.13289,-1.57798 -1.60718,-2.42256 -0.50531,-1.11435 -1.04381,-2.21761 -1.72334,-3.24099 -0.79886,-1.14854 0.91376,-2.28781 1.71262,-1.13927 z"
       inkscape:connector-curvature="0" />
    <path
       style="fill:#000000;fill-opacity:1;fill-rule:nonzero;stroke:none"
       id="path4793"
       d="m 432.73383,242.71929 c 1.3443,-0.30063 2.75699,-0.47835 4.02397,-1.04361 0.65622,-0.4608 0.98584,-1.19099 0.80357,-1.94709 -0.4529,-0.52057 -1.12782,-0.73996 -1.82157,-0.57495 -1.10136,0.27233 -1.67413,1.14899 -2.07537,2.11068 -0.33989,1.0624 -0.51825,2.08221 -0.38331,3.17434 0.18386,1.31818 1.18089,2.18228 2.28888,2.83682 1.59851,0.65728 3.12844,0.51921 4.6024,-0.40027 0.95744,-0.74578 1.68048,-1.66471 2.213,-2.72373 -0.021,0.0261 -0.042,0.0524 -0.063,0.0786 0.21294,-1.393 2.24242,-1.15791 2.02948,0.23509 l 0,0 c -0.0435,0.17364 -0.0871,0.34728 -0.13056,0.52091 -0.72119,1.40512 -1.70474,2.62724 -3.01822,3.57547 -2.32084,1.3165 -4.35264,1.46115 -6.77033,0.396 -1.5964,-1.01227 -2.94436,-2.30897 -3.19117,-4.24643 -0.15321,-1.43508 0.0539,-2.79969 0.54041,-4.18376 0.7508,-1.63248 1.86004,-2.97166 3.7594,-3.3421 1.82636,-0.14367 3.44976,0.47008 4.05659,2.2477 0.1439,1.6884 -0.46973,3.16118 -2.06154,4.05607 -1.44524,0.59261 -2.9869,0.88962 -4.51483,1.18592 -1.43642,0.23636 -1.72427,-1.71926 -0.28785,-1.95563 z"
       inkscape:connector-curvature="0" />
    <path
       style="fill:#000000;fill-opacity:1;fill-rule:nonzero;stroke:none"
       id="path4795"
       d="m 444.40368,235.25333 c 1.0353,1.12577 1.82973,2.43116 2.71485,3.6679 0.5653,0.86208 1.12393,1.68377 1.85852,2.41239 0.70865,0.64275 1.17404,1.03893 0.38599,2.09004 -1.10851,0.83947 -1.90322,-0.12289 -2.33359,-1.03117 -0.50985,-1.21079 -0.95878,-2.44598 -1.41323,-3.67821 -0.47578,-1.55148 0.22146,-2.77205 1.42218,-3.80853 0.85441,-0.62898 1.72852,-1.11618 2.80616,-1.12333 0.77272,0.0437 1.30121,0.53523 1.67988,1.13056 0.1018,0.16249 0.16983,0.33833 0.21398,0.5237 0.26572,1.37126 -1.75128,1.79011 -2.01698,0.41884 l 0,0 c 0.0105,0.0374 0.046,0.14838 0.0345,0.11127 -0.23878,-0.39348 0.15488,-0.0579 -0.0316,-0.20135 -0.45577,-0.0967 -0.95391,0.41194 -1.35984,0.61701 -0.56183,0.4607 -1.02205,0.85822 -0.81337,1.61836 0.43675,1.18262 0.8681,2.36796 1.35235,3.53226 0.47494,1.03696 -0.20137,-0.27803 -0.88574,0.43035 -0.0735,0.12141 -0.22783,0.22562 -0.22054,0.36414 0.0519,0.98734 0.66616,1.30777 -0.30986,0.41053 -0.80916,-0.80481 -1.44912,-1.70518 -2.06655,-2.65681 -0.89052,-1.24431 -1.69253,-2.55199 -2.7296,-3.68881 -0.79886,-1.14853 0.91377,-2.28781 1.71263,-1.13927 z"
       inkscape:connector-curvature="0" />
    <path
       style="fill:#000000;fill-opacity:1;fill-rule:nonzero;stroke:none"
       id="path4797"
       d="m 456.50537,229.78964 c 0.902,-0.10009 1.79831,-0.25823 2.68212,-0.47122 0.28349,-0.0719 0.56691,-0.14527 0.84565,-0.23439 -0.87059,1.97194 -0.0766,1.6267 -0.55243,1.72535 -0.69948,0.11936 -1.25472,0.29017 -1.63787,0.89511 -0.67601,1.11864 -0.75028,2.38802 -0.66734,3.62965 0.1104,0.54305 -0.0909,1.37475 0.63804,1.29358 0.84387,-0.0542 1.61369,-0.29197 2.32528,-0.7381 0.4908,-0.56369 0.43051,-1.25914 0.35738,-1.93281 -0.16413,-0.98027 -0.48208,-1.92367 -0.81283,-2.85677 -0.082,-0.22885 -0.16744,-0.45647 -0.26088,-0.68087 1.34343,-1.52704 1.27041,-1.75653 2.51498,-0.6847 0.92478,0.99263 1.85757,1.96971 2.84473,2.90559 0.71747,0.6149 1.54415,1.25279 2.53323,1.3728 0.51669,-0.0569 -0.2202,0.0745 -0.31542,0.12231 1.02497,-1.02071 2.47698,0.34037 1.452,1.36107 l 0,0 c -0.46697,0.34919 -0.90034,0.59829 -1.50926,0.47731 -1.40262,-0.23292 -2.59951,-0.96824 -3.61814,-1.89742 -0.96522,-0.91553 -1.8915,-1.8607 -2.77942,-2.84641 -0.51628,-0.44864 -0.15097,-0.31921 0.7651,-1.63924 0.11525,0.26924 0.21658,0.54408 0.31616,0.81941 0.38221,1.08003 0.74536,2.17399 0.91321,3.31294 0.1211,1.45437 -0.0673,2.84442 -1.34104,3.83595 -1.15914,0.6954 -2.42679,1.07861 -3.7855,1.02528 -1.82224,-0.41254 -2.16493,-1.39244 -2.28586,-3.07847 -0.094,-1.71552 0.0789,-3.44166 1.07661,-4.94858 0.84131,-1.02758 1.83839,-1.57556 3.17773,-1.7255 0.29535,-0.0121 0.62875,-0.0548 0.91795,0.0357 0.69061,0.21599 2.29404,1.23068 0.3446,2.09345 -0.3352,0.10625 -0.67453,0.19846 -1.01577,0.28275 -0.96652,0.23153 -1.9459,0.40638 -2.93206,0.51583 -1.44449,0.17033 -1.63537,-1.79899 -0.19092,-1.9693 z"
       inkscape:connector-curvature="0" />
    <path
       style="fill:#000000;fill-opacity:1;fill-rule:nonzero;stroke:none"
       id="path4799"
       d="m 467.0695,219.21535 c 1.06057,1.61617 1.773,3.4221 2.50489,5.19863 0.7399,1.8359 1.43779,3.68821 2.12548,5.5441 0.16247,0.4409 0.32511,0.88175 0.48343,1.32415 0.007,0.0188 0.013,0.0382 0.019,0.0575 0.43531,1.3257 -1.52191,1.97469 -1.95719,0.64895 l 0,0 c -0.002,-0.006 0.0256,0.0726 -0.005,-0.015 -0.15622,-0.43376 -0.31526,-0.86654 -0.4743,-1.2993 -0.68056,-1.83444 -1.36973,-3.66592 -2.10081,-5.48102 -0.67952,-1.65014 -1.33521,-3.33049 -2.30841,-4.83842 -0.79886,-1.14855 0.91377,-2.28782 1.71263,-1.13928 z"
       inkscape:connector-curvature="0" />
    <path
       style="fill:#000000;fill-opacity:1;fill-rule:nonzero;stroke:none"
       id="path4801"
       d="m 466.06522,226.16116 c 1.57541,-0.57897 3.1508,-1.15793 4.7262,-1.7369 0.61079,-0.22447 1.22159,-0.44894 1.83239,-0.67341 0.16296,-0.0599 0.32592,-0.11978 0.48889,-0.17967 0.0564,-0.0207 0.11295,-0.0415 0.16944,-0.0623 1.3686,-0.50297 2.04925,1.34912 0.68065,1.85209 l 0,0 c -0.0565,0.0208 -0.11296,0.0415 -0.16944,0.0623 -0.16296,0.0599 -0.32593,0.11978 -0.48889,0.17967 -0.6108,0.22447 -1.2216,0.44894 -1.83239,0.67341 -1.5754,0.57896 -3.15079,1.15793 -4.72619,1.73689 -1.36862,0.50298 -2.04927,-1.34911 -0.68066,-1.85208 z"
       inkscape:connector-curvature="0" />
    <path
       style="fill:#000000;fill-opacity:1;fill-rule:nonzero;stroke:none"
       id="path4803"
       d="m 478.17929,223.5414 c 0.75001,1.11245 1.3486,2.30817 1.89009,3.52942 0.56077,1.30875 1.05659,2.6437 1.55141,3.97824 0.17509,0.47601 0.35085,0.9518 0.52205,1.42923 0.28448,0.69233 -1.95258,-0.13823 -2.00276,0.61933 -0.88645,-1.08567 0.73772,-2.34222 1.62416,-1.25656 l 0,0 c 0.68757,1.0187 0.23088,0.59434 -1.56234,1.33356 -0.16782,-0.47114 -0.34221,-0.93989 -0.51473,-1.40931 -0.48035,-1.29838 -0.96283,-2.59673 -1.50738,-3.87006 -0.49156,-1.1117 -1.03332,-2.20062 -1.71301,-3.21463 -0.79886,-1.14854 0.91377,-2.28781 1.71264,-1.13926 z"
       inkscape:connector-curvature="0" />
    <path
       style="fill:#000000;fill-opacity:1;fill-rule:nonzero;stroke:none"
       id="path4805"
       d="m 474.7742,218.8125 c 0.38969,-0.84645 0.96606,-1.60166 1.55335,-2.33216 0.044,-0.0528 0.0712,-0.18895 0.13181,-0.15845 2.05738,1.03524 1.9262,0.95911 1.18361,2.52443 -0.17331,0.33525 -0.3604,0.66575 -0.58561,0.97236 -0.0622,0.0788 -0.0295,0.0393 -0.0984,0.11829 -0.97335,1.06672 -2.49477,-0.22185 -1.52142,-1.28858 l 0,0 c -0.0114,0.0138 -0.0247,0.0271 -0.0344,0.0425 0.14697,-0.20211 0.2677,-0.42052 0.38408,-0.63958 0.64121,-1.30195 -0.12574,-1.46305 2.25517,-0.51174 0.0525,0.021 -0.0731,0.0876 -0.10958,0.13136 -0.4924,0.61083 -0.98567,1.23836 -1.30886,1.94824 -0.62745,1.2817 -2.47735,0.47503 -1.84991,-0.80666 z"
       inkscape:connector-curvature="0" />
    <path
       style="fill:#000000;fill-opacity:1;fill-rule:nonzero;stroke:none"
       id="path4807"
       d="m 485.20609,221.68402 c 0.029,0.97226 -0.20288,2.12392 0.19497,3.03793 0.48805,0.20599 1.14304,0.021 1.64725,-0.0799 0.9307,-0.33777 2.18826,-0.38895 2.89522,-1.1405 0.27813,-0.75954 -0.11353,-1.55655 -0.43677,-2.22558 -0.59751,-0.66491 -1.23703,-0.75861 -2.10844,-0.70061 -0.66771,0.0947 -1.2639,0.49357 -1.6814,1.00448 -0.54214,0.75781 -0.0158,0.31763 -0.16594,-0.2376 -0.0602,-0.22223 -0.2866,-0.36263 -0.42988,-0.54395 1.28523,0.61505 0.33351,2.3982 -0.95172,1.78316 l 0,0 c -0.19481,-0.20596 -0.48716,-0.3536 -0.58443,-0.6179 -0.23195,-0.63025 0.23314,-1.16492 0.57407,-1.63116 0.82903,-0.93044 1.91148,-1.60626 3.18532,-1.73806 1.71238,-0.0757 3.06889,0.40762 4.0337,1.81667 0.6899,1.49119 1.10658,3.12933 -0.0891,4.55072 -1.13002,0.90845 -2.49889,1.29153 -3.90074,1.6267 -1.55453,0.28413 -3.12397,0.30055 -3.94029,-1.20554 -0.37495,-1.25073 -0.36398,-2.58622 -0.27735,-3.89098 0.18158,-1.3963 2.21714,-1.20423 2.03556,0.19207 z"
       inkscape:connector-curvature="0" />
    <path
       style="fill:#000000;fill-opacity:1;fill-rule:nonzero;stroke:none"
       id="path4809"
       d="m 494.21444,215.67478 c 1.58564,0.80683 2.54106,2.29103 3.37879,3.76434 0.64808,1.21815 1.1736,2.49438 1.6646,3.78123 1.01562,1.42866 -1.71465,1.71546 -1.71259,0.60189 0.15455,-1.37438 -0.11962,-2.74065 -0.2604,-4.09945 -0.16415,-1.79057 -0.10906,-3.45829 0.85788,-5.05877 0.74276,-0.95624 1.76161,-1.58515 2.86591,-2.06979 1.22288,-0.57871 2.1284,0.14791 2.70994,1.10696 0.52711,1.07844 0.91473,2.21797 1.32537,3.34378 0.28495,0.87507 0.50434,1.74094 1.4015,2.16647 0.5926,0.12038 1.14305,-0.0876 1.67038,-0.34726 1.32055,-0.61711 2.17012,1.16463 0.84958,1.78174 l 0,0 c -1.17467,0.53152 -2.38693,0.7907 -3.60242,0.28009 -1.23169,-0.75681 -1.89393,-1.79943 -2.25606,-3.17391 -0.37288,-1.02332 -0.72916,-2.05599 -1.18625,-3.0458 -0.35089,-0.6791 0.50182,-0.41097 -0.11762,-0.30555 -0.71736,0.30646 -1.3969,0.69185 -1.92358,1.27025 -0.80893,1.14437 -0.59956,2.49797 -0.55389,3.7987 0.14814,1.42988 0.42877,2.86983 0.27047,4.31586 -0.0211,1.33751 -2.303,1.41121 -2.26645,0.16791 -0.45694,-1.19841 -0.94425,-2.38758 -1.5436,-3.52397 -0.62314,-1.10755 -1.30528,-2.28331 -2.4597,-2.94187 -1.30807,-0.5704 -0.42075,-2.383 0.88731,-1.8126 z"
       inkscape:connector-curvature="0" />
    <path
       style="fill:#000000;fill-opacity:1;fill-rule:nonzero;stroke:none"
       id="path4843"
       d="m 408.64076,277.37667 c 0.87798,1.6393 2.0631,3.08937 3.10885,4.62435 0.82724,1.05052 1.67917,2.08 2.43293,3.18287 0.73172,1.13729 0.70456,0.65035 -1.53159,1.27918 -0.47568,-1.3674 -1.23835,-2.61219 -1.88027,-3.90807 -0.84908,-1.94792 -1.1803,-4.03571 -1.25053,-6.15361 0.0969,-1.08248 0.2668,-2.56606 1.45369,-3.12103 0.26383,-0.12338 0.56673,-0.1338 0.8501,-0.20065 1.21012,0.0302 2.32191,0.47896 3.40834,0.92846 0.32386,0.14027 0.17462,0.074 0.4483,0.19761 1.29947,0.58771 0.38717,2.3892 -0.91229,1.80151 l 0,0 c -0.23487,-0.10642 -0.10529,-0.0488 -0.38904,-0.17196 -0.76299,-0.3166 -1.53648,-0.61552 -2.35369,-0.78761 0.0401,-0.7492 -0.6503,1.21393 -0.45469,1.23641 0.0555,1.84666 0.33271,3.66739 1.05506,5.3729 0.67248,1.35853 1.46881,2.66543 1.96295,4.1014 -2.02217,1.24632 -1.44566,1.58598 -2.12831,0.55119 -0.75337,-1.10453 -1.61773,-2.12618 -2.4348,-3.18564 -1.06923,-1.5745 -2.28525,-3.05932 -3.18228,-4.7412 -0.69973,-1.20911 1.09753,-2.21522 1.79727,-1.00611 z"
       inkscape:connector-curvature="0" />
    <path
       style="fill:#000000;fill-opacity:1;fill-rule:nonzero;stroke:none"
       id="path4845"
       d="m 420.13411,275.13388 c 0.80439,0.40708 1.70422,0.48735 2.60625,0.38501 0.61228,-0.2704 0.72225,-1.08272 0.75871,-1.65568 -0.0238,-0.89946 -0.0354,-2.11944 -1.06814,-2.44616 -1.03326,-0.18363 -1.4552,0.46607 -1.96251,1.2298 -0.86129,1.65556 -0.89574,3.56736 -0.27104,5.25546 0.92822,1.91705 2.75762,2.4217 4.81051,2.52103 1.39709,-0.008 2.67861,-0.43395 3.73222,-1.34753 1.12427,-0.9173 2.42099,0.58379 1.29671,1.5011 l 0,0 c -1.52297,1.1979 -3.24278,1.86049 -5.20928,1.82697 -3.03851,-0.19767 -5.25216,-1.04874 -6.58207,-3.8368 -0.77436,-2.44342 -0.75358,-4.64035 0.52816,-6.99115 1.23319,-1.73271 2.47467,-2.578 4.6393,-1.92718 1.78559,1.00762 2.17473,2.41617 2.12583,4.37264 -0.2191,1.58654 -0.85456,3.08363 -2.64637,3.47108 -1.25908,0.11357 -2.5166,0.0119 -3.64558,-0.54594 -1.30808,-0.5704 -0.42077,-2.38299 0.88731,-1.8126 z"
       inkscape:connector-curvature="0" />
    <path
       style="fill:#000000;fill-opacity:1;fill-rule:nonzero;stroke:none"
       id="path4847"
       d="m 432.1964,268.62492 c -1.00785,0.3022 -1.63816,1.10971 -2.20211,1.923 -0.24889,0.31805 -0.0826,1.03931 -0.16059,0.46573 -0.0994,-0.73166 -0.12658,-0.12818 -0.1104,-0.3955 1.16364,0.0686 2.32823,-0.054 3.49396,10e-4 1.64148,-0.004 3.0257,0.56486 4.24923,1.55311 1.29527,1.25516 1.22333,2.49832 0.0336,3.84452 -1.18242,1.06929 -2.68634,1.22886 -4.20358,1.25212 -0.42125,0.001 -0.84159,-0.0159 -1.2604,-0.0483 -1.44209,-0.11331 -1.21814,-2.09081 0.22395,-1.97751 l 0,0 c 0.354,0.0284 0.70949,0.0419 1.06557,0.042 0.93078,-0.0113 1.91806,0.004 2.69277,-0.59926 0.0948,-0.0756 0.25635,-0.0784 0.3165,-0.18183 0.18571,-0.31918 0.0201,-0.58026 -0.22123,-0.80348 -0.88184,-0.73912 -1.8617,-1.12051 -3.06829,-1.10048 -1.33204,-0.0828 -2.68157,0.157 -4.00258,-0.0924 -1.70401,-0.71929 -1.41915,-1.65711 -0.73655,-3.04065 0.92324,-1.30626 2.04105,-2.46801 3.6992,-2.81158 1.44448,-0.17032 1.63538,1.79899 0.19091,1.96931 z"
       inkscape:connector-curvature="0" />
    <path
       style="fill:#000000;fill-opacity:1;fill-rule:nonzero;stroke:none"
       id="path4849"
       d="m 437.2079,257.51866 c 1.1246,1.80003 1.85971,3.79666 2.77349,5.70133 1.12904,2.33019 2.2084,4.70925 3.67386,6.85874 0.39875,0.4985 0.7756,1.04527 1.29855,1.43286 -0.0143,-0.01 -0.028,-0.02 -0.0421,-0.03 -0.0508,-0.0223 -0.10168,-0.0448 -0.15258,-0.0672 1.37044,0.42234 0.69722,2.3143 -0.67321,1.89195 l 0,0 c -0.2669,-0.10758 -0.14731,-0.0473 -0.36271,-0.17395 -0.7231,-0.52174 -1.26391,-1.23952 -1.79469,-1.93497 -1.50269,-2.23745 -2.65829,-4.67807 -3.81326,-7.10181 -0.86763,-1.81464 -1.57632,-3.70967 -2.61998,-5.43767 -0.79886,-1.14854 0.91377,-2.2878 1.71263,-1.13926 z"
       inkscape:connector-curvature="0" />
    <path
       style="fill:#000000;fill-opacity:1;fill-rule:nonzero;stroke:none"
       id="path4867"
       d="m 435.91613,264.50672 c 1.47544,-0.74936 2.89616,-1.56708 4.30269,-2.43421 0.78462,-0.49332 1.59901,-0.94018 2.43007,-1.35295 1.30542,-0.6478 2.20052,1.11201 0.89509,1.7598 l 0,0 c -0.77244,0.38296 -1.52897,0.79862 -2.25772,1.25735 -1.41295,0.87094 -2.8394,1.69742 -4.32311,2.44664 -1.24764,0.75004 -2.29466,-0.92659 -1.04702,-1.67663 z"
       inkscape:connector-curvature="0" />
    <path
       style="fill:#000000;fill-opacity:1;fill-rule:nonzero;stroke:none"
       id="path4869"
       d="m 448.47881,262.2711 c 1.1419,1.19997 1.96585,2.63219 2.73069,4.079 0.35822,0.71761 0.69481,1.44651 0.98895,2.19245 0.0406,0.10168 0.0755,0.20505 0.10358,0.31084 0.32554,1.35759 -1.67384,1.85775 -1.99938,0.50016 l 0,0 c -0.008,-0.0197 -0.0176,-0.0391 -0.0249,-0.0591 -0.26775,-0.68132 -0.57672,-1.34608 -0.90159,-2.00221 -0.66085,-1.2528 -1.36462,-2.49463 -2.32464,-3.55636 -1.04254,-0.94644 0.38423,-2.41093 1.42677,-1.4645 z"
       inkscape:connector-curvature="0" />
    <path
       style="fill:#000000;fill-opacity:1;fill-rule:nonzero;stroke:none"
       id="path4871"
       d="m 445.17725,256.20897 c 0.60247,-0.40077 1.20494,-0.80154 1.80741,-1.20232 0.35731,-0.0221 0.75954,-0.22597 1.07194,-0.0664 1.33926,0.68387 0.11857,2.08354 -0.392,2.80259 -0.67769,0.98432 -0.58909,1.01711 -1.77651,1.54385 -1.27761,-0.38036 -1.35694,-1.52477 -1.19118,-2.65782 0.13674,-0.54038 0.35163,-1.06237 0.64767,-1.54319 1.19671,-1.46314 1.97292,0.15539 2.22539,0.84246 0.0583,0.16146 0.11277,0.32425 0.16364,0.48818 -0.44535,1.11107 -0.47031,1.20888 -1.26723,1.48126 -1.02235,-0.16579 -1.20094,-0.27186 -1.48983,-0.99118 -0.51569,-1.29652 1.40212,-2.05428 1.91774,-0.75773 l 0,0 c 0.17273,0.42826 -0.31505,-0.18381 -1.03194,-0.12971 0.5805,-0.20268 0.5353,-0.42067 -0.10073,0.99916 -0.0404,-0.12747 -0.0821,-0.25455 -0.12773,-0.38032 -0.30538,-0.83677 -0.34492,-0.46163 1.45809,-0.561 -0.16253,0.26833 -0.287,0.55547 -0.37676,0.85283 -0.26633,0.78189 0.38188,0.70667 -0.71427,0.37375 -1.56631,0.84177 -0.39832,0.0937 -0.0169,-0.65173 1.35625,-1.90908 -0.30805,0.60606 2.13045,-0.0207 -0.60247,0.40077 -1.20495,0.80154 -1.80741,1.20231 -1.21101,0.80559 -2.34078,-0.81869 -1.12976,-1.62427 z"
       inkscape:connector-curvature="0" />
    <path
       style="fill:#000000;fill-opacity:1;fill-rule:nonzero;stroke:none"
       id="path4873"
       d="m 452.90347,250.29737 c 1.50373,1.91384 2.23664,4.30496 3.08025,6.55164 1.00817,2.73458 1.99935,5.47542 2.99334,8.21519 0.1354,0.69377 0.60009,1.32074 0.73108,2.0154 0.0285,0.15145 -0.15642,-0.27225 -0.27499,-0.37283 -0.46771,-0.21409 -0.95007,0.17481 -1.09518,0.66064 0.04,-1.4029 2.09093,-1.40476 2.05092,-0.002 l 0,0 c -0.11836,0.96356 -0.89338,1.43688 -1.78756,1.17705 -1.0307,-0.59788 -1.16396,-1.73581 -1.56242,-2.77445 -0.99167,-2.73317 -1.9794,-5.46782 -2.9861,-8.19551 -0.75725,-2.01731 -1.40823,-4.17004 -2.69361,-5.92699 -0.95515,-1.02915 0.58912,-2.37743 1.54428,-1.34827 z"
       inkscape:connector-curvature="0" />
    <path
       style="fill:#000000;fill-opacity:1;fill-rule:nonzero;stroke:none"
       id="path4875"
       d="m 452.32006,259.85064 c 1.57714,-1.19611 3.12253,-2.43076 4.68561,-3.64474 0.79317,-0.58514 1.60387,-1.15075 2.45358,-1.65528 0.83585,-0.47216 0.28351,-0.11857 0.90953,1.72049 -1.36164,0.5215 -2.06964,-1.32038 -0.70799,-1.84184 l 0,0 c 1.00152,1.91104 1.45566,1.45543 0.83387,1.8049 -0.77373,0.45741 -1.50883,0.97536 -2.23223,1.50464 -1.53098,1.18899 -3.04321,2.40049 -4.59157,3.56729 -1.09196,0.95337 -2.44277,-0.50209 -1.35079,-1.45546 z"
       inkscape:connector-curvature="0" />
    <path
       style="fill:#000000;fill-opacity:1;fill-rule:nonzero;stroke:none"
       id="path4877"
       d="m 463.28219,254.72857 c 1.22197,1.15758 2.01715,2.63575 2.74817,4.11723 0.49293,0.85561 0.81699,2.43241 1.96656,2.68744 0.91779,-0.58768 1.44322,-1.57606 1.82725,-2.54271 0.6069,-1.46742 0.66591,-2.9703 0.47149,-4.49371 -0.1406,-0.47216 -0.31906,-0.81396 -0.81527,-0.94476 -0.43666,0.0326 0.71204,-0.51017 1.07138,-0.76076 0.31821,0.9847 0.95715,1.82991 1.6349,2.60614 0.94596,1.23009 2.09181,2.28849 3.46027,3.06613 0.30792,0.16255 0.62469,0.31132 0.9591,0.41861 1.35958,0.45183 0.64368,2.33011 -0.71591,1.87829 l 0,0 c -0.46079,-0.15601 -0.90469,-0.35061 -1.32801,-0.5837 -1.5523,-0.89966 -2.88659,-2.07917 -3.96754,-3.48454 -0.85817,-1.0081 -1.66305,-2.09979 -2.03713,-3.38019 -0.23177,-1.09547 0.57764,-2.0461 1.6753,-1.62575 1.17243,0.44418 1.84142,1.3192 2.09994,2.51771 0.22758,1.85996 0.12793,3.70314 -0.61131,5.4892 -0.83823,1.91596 -2.09256,3.94304 -4.5228,3.68894 -1.67796,-0.73064 -2.34114,-2.05046 -3.02564,-3.64276 -0.62175,-1.26801 -1.28545,-2.54487 -2.31751,-3.54632 -1.04255,-0.94643 0.38422,-2.41093 1.42676,-1.46449 z"
       inkscape:connector-curvature="0" />
    <path
       style="fill:#000000;fill-opacity:1;fill-rule:nonzero;stroke:none"
       id="path4879"
       d="m 477.04282,242.51718 c 0.72644,2.22514 1.27532,4.50777 1.94877,6.75176 0.60162,2.12839 1.60645,4.1106 2.56721,6.09486 0.24361,0.49792 0.48617,0.99644 0.73997,1.4894 0.0294,0.054 0.001,0.002 0.002,0.005 0.70139,1.2082 -1.09456,2.21654 -1.79598,1.00835 l 0,0 c -0.0151,-0.0265 -0.0305,-0.0527 -0.0441,-0.08 -0.26443,-0.5082 -0.51112,-1.02526 -0.76476,-1.53875 -1.00451,-2.07469 -2.04763,-4.14974 -2.67633,-6.37518 -0.66215,-2.20751 -1.20559,-4.45211 -1.91251,-6.64304 -0.48129,-1.30964 1.45421,-2.02094 1.93551,-0.71131 z"
       inkscape:connector-curvature="0" />
    <path
       style="fill:#000000;fill-opacity:1;fill-rule:nonzero;stroke:none"
       id="path4881"
       d="m 474.54069,251.7074 c 1.77064,-0.84114 3.42064,-1.89277 5.12901,-2.84544 0.763,-0.41461 1.52792,-0.82691 2.30833,-1.20907 0.30779,-0.004 0.6255,-0.0801 0.92336,-0.0132 0.31791,0.0714 1.26394,1.38106 0.37476,0.35368 1.2916,0.60299 0.35725,2.39436 -0.93435,1.79137 l 0,0 c -1.37578,-1.24863 -0.41999,-0.2955 -0.19349,-0.27951 0.23797,0.0168 0.47608,-0.0582 0.71411,-0.0872 -0.74625,0.36492 -1.47685,0.76028 -2.20663,1.15589 -1.70747,0.95117 -3.3558,2.00375 -5.12552,2.8435 -1.27086,0.71143 -2.26045,-0.99853 -0.98958,-1.70996 z"
       inkscape:connector-curvature="0" />
    <path
       style="fill:#000000;fill-opacity:1;fill-rule:nonzero;stroke:none"
       id="path4883"
       d="m 487.25465,248.23595 c 0.72115,1.08791 1.31195,2.25259 1.85445,3.43495 0.37541,0.82756 0.7017,1.67571 1.01882,2.52672 0.17923,0.48914 0.36128,0.97728 0.53629,1.46797 -0.66429,0.18553 -1.3286,0.37102 -1.99288,0.55652 -0.48599,-1.3079 1.44813,-2.02492 1.93341,-0.71693 l 0,0 c -0.62723,0.28537 -1.25444,0.57078 -1.88169,0.85617 -0.17213,-0.48289 -0.35086,-0.96342 -0.5277,-1.4446 -0.30025,-0.8083 -0.61005,-1.6136 -0.9661,-2.39951 -0.49437,-1.08082 -1.03303,-2.14545 -1.6873,-3.14216 -0.79887,-1.14853 0.91377,-2.2878 1.71263,-1.13926 z"
       inkscape:connector-curvature="0" />
    <path
       style="fill:#000000;fill-opacity:1;fill-rule:nonzero;stroke:none"
       id="path4885"
       d="m 483.12069,242.43224 c 0.85718,-0.1006 1.69236,-0.26437 2.54467,-0.16066 1.32994,0.72651 0.93354,1.99636 0.035,2.92931 -1.00339,0.79279 -1.53339,1.10531 -2.73863,0.48789 -0.98922,-1.01104 -0.68847,-2.20001 0.0913,-3.26523 0.71768,-0.79167 1.55501,-1.42575 2.6554,-1.45824 1.0739,0.14512 1.55886,0.95858 1.3241,1.96885 -0.33587,0.87981 -0.0709,-0.0189 -0.0989,0.32629 -0.19177,1.39529 -2.22546,1.18924 -2.03368,-0.20607 l 0,0 c 0.0263,-0.16993 0.0858,-0.58508 0.17959,-0.6741 0.01,0.30452 0.12225,0.59821 0.47118,0.5667 0.52385,-0.25687 -0.84353,0.41746 -0.88167,0.65385 -0.1626,0.16374 -0.29559,0.47048 -0.42523,0.50435 -0.6273,-0.13377 -0.81494,0.29998 -8.5e-4,-0.26004 0.46021,-0.4249 0.0892,0.10397 0.88988,0.35636 0.0474,-0.01 0.18967,-0.0313 0.1416,-0.0314 -0.65181,-0.001 -1.31062,0.21727 -1.96292,0.23145 -1.44447,0.17032 -1.63537,-1.79898 -0.1909,-1.96931 z"
       inkscape:connector-curvature="0" />
    <path
       style="fill:#000000;fill-opacity:1;fill-rule:nonzero;stroke:none"
       id="path4887"
       d="m 493.3659,246.31251 c -0.72312,0.60004 -1.21615,1.16077 -1.30722,2.07957 0.004,1.29474 0.55185,2.08267 1.73976,2.60623 1.35905,0.39752 2.21838,0.41875 3.03445,-0.80409 0.2852,-0.71671 0.6575,-2.05605 -0.17338,-2.53537 -0.62541,-0.10374 -1.25488,0.0225 -1.867,0.17394 0.29937,0.22993 -2.24687,-0.076 -1.76103,-0.27637 0.0883,-0.0367 0.16134,0.093 0.24202,0.13942 0.005,0.006 0.012,0.009 0.0185,0.014 -1.44539,-0.0807 -1.26896,-2.06142 0.17644,-1.9807 l 0,0 c 0.10266,0.01 0.20529,0.0201 0.30792,0.0301 0.17264,0.0664 0.3454,0.13249 0.51789,0.19922 0.0825,0.0319 -0.3554,0.058 -0.26695,0.041 0.1085,-0.0207 0.21279,-0.0601 0.31917,-0.0901 1.31892,-0.31598 2.63788,-0.44732 3.79249,0.33452 1.45083,1.61396 1.28882,3.19259 0.33173,5.09975 -1.72009,2.10701 -3.17551,2.21539 -5.65953,1.42029 -2.07576,-1.1192 -2.80628,-2.25618 -2.78381,-4.59389 0.25056,-1.47389 0.97722,-2.55592 2.20888,-3.48182 1.21101,-0.80558 2.34076,0.8187 1.12975,1.62428 z"
       inkscape:connector-curvature="0" />
    <path
       style="fill:#000000;fill-opacity:1;fill-rule:nonzero;stroke:none"
       id="path4889"
       d="m 501.22146,242.40235 c 0.86267,1.28107 1.48899,2.69464 2.10145,4.10341 0.2698,0.63383 0.53278,1.27057 0.78497,1.91156 0.0274,0.0689 0.13224,0.26097 0.0813,0.20686 -0.0769,-0.0803 -0.10691,-0.19351 -0.16018,-0.29032 -0.86533,-0.62561 -1.16215,0.46439 -0.77821,-0.68252 0.24251,-0.62046 0.0334,-1.23552 -0.13751,-1.83654 -0.3862,-1.57236 0.0461,-3.14866 0.55347,-4.66734 0.32051,-1.08155 0.83515,-1.98957 1.75967,-2.69163 1.10317,-0.56424 2.12457,-0.26346 3.10956,0.29605 0.8832,0.5975 1.30434,1.51558 1.70109,2.45245 0.33851,1.08896 0.84207,2.0707 1.44392,3.03426 0.438,0.54957 1.10681,0.31939 1.73289,0.185 0.46308,-0.10467 0.91321,-0.25699 1.36328,-0.40673 1.38386,-0.45914 1.99971,1.41566 0.61589,1.87472 l 0,0 c -0.53241,0.17627 -1.06544,0.35362 -1.61388,0.47339 -1.50808,0.29276 -2.93146,0.25307 -3.86257,-1.06571 -0.65382,-1.04722 -1.20914,-2.12175 -1.58248,-3.30122 -0.23035,-0.54879 -0.43611,-1.12433 -0.89042,-1.53732 -0.28331,-0.17039 -0.74056,-0.29668 -0.80316,-0.43972 -0.59658,0.4127 -0.81116,1.02871 -1.02447,1.69137 -0.38758,1.14168 -0.77646,2.3407 -0.52146,3.53263 0.27036,0.97541 0.48695,1.97316 0.10504,2.97261 -0.37458,1.10341 -1.09409,2.40989 -2.51781,1.64912 -0.6233,-0.74716 -0.86959,-1.66056 -1.25307,-2.54887 -0.56206,-1.29458 -1.13222,-2.59609 -1.91911,-3.7766 -0.79886,-1.14853 0.91377,-2.2878 1.71263,-1.13927 z"
       inkscape:connector-curvature="0" />
    <path
       style="fill:#000000;fill-opacity:1;fill-rule:nonzero;stroke:none"
       id="path4897"
       d="m 374.10079,271.57112 c 0.90391,1.20508 1.61949,2.52567 2.1014,3.9195 0.42929,1.14891 0.35384,2.24863 -0.0134,3.41646 -0.48932,1.40048 -2.67918,0.8577 -2.18984,-0.54278 l 0,0 c 0.31841,-0.75066 0.26312,-1.46744 5.4e-4,-2.21697 -0.38535,-1.21366 -1.06167,-2.34221 -1.82321,-3.38999 -0.88616,-1.18538 1.03836,-2.37158 1.92453,-1.18622 z"
       inkscape:connector-curvature="0" />
    <path
       style="fill:#000000;fill-opacity:1;fill-rule:nonzero;stroke:none"
       id="path4899"
       d="m 514.08687,214.53293 c 1.09767,0.97943 2.02723,2.08517 2.57987,3.39797 0.61723,1.64677 0.0935,3.23335 -1.08441,4.74526 -0.57352,0.68569 -1.32749,1.20998 -2.10741,1.69707 -1.41917,0.87955 -2.62046,-0.75028 -1.20129,-1.62984 l 0,0 c 0.53026,-0.32519 1.05543,-0.66395 1.45166,-1.12313 0.77103,-0.8919 1.08934,-1.83013 0.72005,-2.83273 -0.36494,-1.05881 -1.24388,-1.88112 -2.04863,-2.67987 -1.14334,-0.9284 0.5468,-2.50313 1.69016,-1.57473 z"
       inkscape:connector-curvature="0" />
    <path
       style="color:#000000;fill:#000000;fill-opacity:1;fill-rule:nonzero;stroke:none;stroke-width:1px;marker:none;visibility:visible;display:inline;overflow:visible;enable-background:accumulate"
       id="path3063"
       d="m 371.55498,517.41116 c 9.79424,-3.63564 19.74204,-6.84537 29.66613,-10.10755 20.50968,-6.65789 41.06779,-13.16179 61.57811,-19.81815 24.84783,-7.98763 49.65339,-16.10815 74.41217,-24.37014 15.38674,-5.07799 30.70613,-10.35523 45.97653,-15.76882 1.64909,-0.58464 2.36098,1.38074 0.71197,1.96533 l 0,0 c -15.28761,5.41947 -30.62403,10.703 -46.02808,15.78658 -24.76644,8.26451 -49.57964,16.38765 -74.43517,24.37769 -20.50681,6.65517 -41.06138,13.15812 -61.5676,19.81471 -9.91675,3.25936 -19.8567,6.46749 -29.64367,10.1001 -1.6579,0.55943 -2.3281,-1.41995 -0.67076,-1.97963 z"
       inkscape:connector-curvature="0" />
    <path
       inkscape:connector-curvature="0"
       id="path3065"
       d="M 367.17022,512.78421 311.4328,360.89975"
       style="fill:none;stroke:#000000;stroke-width:2.06220484;stroke-linecap:butt;stroke-linejoin:miter;stroke-miterlimit:4;stroke-opacity:1;stroke-dasharray:2.06220472, 4.12440945;stroke-dashoffset:0" />
    <path
       style="color:#000000;fill:#000000;fill-opacity:1;fill-rule:nonzero;stroke:none;stroke-width:1px;marker:none;visibility:visible;display:inline;overflow:visible;enable-background:accumulate"
       id="path3071"
       d="m 400.58066,523.434 c -1.65363,0.86685 -2.64145,2.26552 -3.19617,4.00869 -0.40176,1.52768 -0.1252,2.97706 1.23974,3.86665 1.5854,0.78785 2.97439,-0.10959 4.33685,-0.91762 0.26062,-0.18998 0.52122,-0.37995 0.78182,-0.56993 1.19833,-0.8651 2.42176,0.82958 1.22345,1.69468 l 0,0 c -0.31447,0.22518 -0.62893,0.45037 -0.94339,0.67556 -2.24366,1.31702 -4.1818,2.17487 -6.65795,0.78556 -2.22896,-1.80798 -2.58451,-3.42767 -1.96154,-6.20146 0.7877,-2.25172 2.07528,-4.09869 4.2484,-5.21458 1.32402,-0.65676 2.25282,1.21568 0.92879,1.87245 z"
       inkscape:connector-curvature="0" />
    <path
       style="color:#000000;fill:#000000;fill-opacity:1;fill-rule:nonzero;stroke:none;stroke-width:1px;marker:none;visibility:visible;display:inline;overflow:visible;enable-background:accumulate"
       id="path3073"
       d="m 408.00574,522.33513 c -0.0184,2.02361 -0.12921,4.04601 0.52504,5.98523 0.77058,1.4347 0.90506,1.14476 1.65848,0.12515 0.83506,-1.48703 1.2536,-3.31533 0.71422,-4.96747 -0.49642,-0.93823 -1.3509,-0.98044 -2.30327,-0.95659 -0.60615,0.0643 -1.20978,0.17757 -1.78967,0.36768 -0.029,-3e-5 -0.0509,0.0196 -0.0758,0.0304 -1.36735,0.561 -2.16073,-1.37271 -0.79339,-1.93372 l 0,0 c 0.14078,-0.0564 0.0654,-0.0272 0.22684,-0.0851 0.77955,-0.24949 1.58754,-0.40728 2.40404,-0.46871 1.92937,-0.0106 3.53452,0.57581 4.34127,2.47262 0.62597,2.38854 0.20925,4.85001 -1.15688,6.92444 -0.2745,0.28656 -0.50641,0.6211 -0.8235,0.85967 -1.85296,1.39409 -3.6373,0.0946 -4.39142,-1.72637 -0.67993,-2.18246 -0.69359,-4.41035 -0.62518,-6.68194 0.0391,-1.47743 2.12847,-1.4222 2.08942,0.0553 z"
       inkscape:connector-curvature="0" />
    <path
       style="color:#000000;fill:#000000;fill-opacity:1;fill-rule:nonzero;stroke:none;stroke-width:1px;marker:none;visibility:visible;display:inline;overflow:visible;enable-background:accumulate"
       id="path3075"
       d="m 415.46856,519.53979 c 0.73446,1.508 1.37443,3.05946 1.97781,4.62376 0.65714,1.80541 0.97025,1.15777 -1.59768,1.63616 -0.21763,-1.33109 -0.23824,-2.67685 -0.13664,-4.01876 0.13886,-1.25711 0.41652,-2.48944 0.79199,-3.6943 0.21693,-0.91407 0.6221,-1.71472 1.23177,-2.42467 0.95898,-0.92424 2.13234,-0.6742 3.1282,0.007 0.75566,0.57555 0.94763,1.50475 1.39767,2.27948 0.60393,1.27909 1.35466,2.46117 2.23858,3.56281 0.77039,0.97734 1.66874,0.95363 2.80906,0.83561 0.77421,-0.19852 1.43492,-0.65997 2.02076,-1.18795 1.11974,-0.96465 2.48396,0.6189 1.36422,1.58355 l 0,0 c -0.94187,0.78842 -1.95083,1.47065 -3.18973,1.68541 -1.82786,0.15846 -3.43002,-0.0894 -4.63645,-1.61092 -0.95683,-1.19916 -1.78333,-2.48006 -2.44178,-3.86839 -0.28323,-0.539 -0.46125,-1.14932 -0.84255,-1.62739 -0.16676,-0.36571 -0.36934,0.0214 -0.18298,-0.33142 0.0157,-0.0297 -0.0597,0.0303 -0.0895,0.0453 -0.43329,0.48432 -0.6631,1.0374 -0.81191,1.67358 -0.32988,1.0564 -0.57689,2.13506 -0.70378,3.23802 -0.0923,1.08785 -0.0545,2.16677 0.0551,3.25196 -2.34541,1.35242 -1.6638,1.47825 -2.35449,-0.28351 -0.57994,-1.50434 -1.19465,-2.9965 -1.90007,-4.44698 -0.65677,-1.32404 1.21568,-2.25284 1.87244,-0.9288 z"
       inkscape:connector-curvature="0" />
    <path
       style="color:#000000;fill:#000000;fill-opacity:1;fill-rule:nonzero;stroke:none;stroke-width:1px;marker:none;visibility:visible;display:inline;overflow:visible;enable-background:accumulate"
       id="path3077"
       d="m 429.0284,506.50986 c 1.54625,2.32181 2.45539,4.97635 3.54419,7.52424 1.02767,2.30515 1.9902,4.63864 2.86816,7.00481 0.68946,2.0578 1.25235,1.54546 -1.50075,1.98138 -0.42154,-1.41657 1.58243,-2.01223 2.00353,-0.59551 l 0,0 c -2.51563,1.25972 -1.69711,1.33633 -2.46245,-0.65897 -0.86571,-2.33476 -1.81699,-4.63639 -2.83069,-6.9108 -1.02938,-2.41184 -1.88609,-4.92544 -3.32666,-7.13567 -0.85522,-1.2054 0.84945,-2.41487 1.70467,-1.20947 z"
       inkscape:connector-curvature="0" />
    <path
       style="color:#000000;fill:#000000;fill-opacity:1;fill-rule:nonzero;stroke:none;stroke-width:1px;marker:none;visibility:visible;display:inline;overflow:visible;enable-background:accumulate"
       id="path3079"
       d="m 428.00516,514.39245 c 1.7248,-0.23214 3.42676,-0.59743 5.11608,-1.01036 1.29269,-0.22419 2.32898,-0.91343 3.33088,-1.70982 1.15805,-0.91829 2.45673,0.71943 1.29868,1.63774 l 0,0 c -1.23708,0.97891 -2.55379,1.80509 -4.13363,2.10254 -1.76349,0.43041 -3.54022,0.81084 -5.34067,1.05238 -1.46548,0.19184 -1.73679,-1.88062 -0.27134,-2.07248 z"
       inkscape:connector-curvature="0" />
    <path
       style="color:#000000;fill:#000000;fill-opacity:1;fill-rule:nonzero;stroke:none;stroke-width:1px;marker:none;visibility:visible;display:inline;overflow:visible;enable-background:accumulate"
       id="path3083"
       d="m 445.32633,510.58663 c -0.98748,1.47274 -1.40684,3.10332 -1.5074,4.85135 -0.11274,1.00818 0.14168,1.81947 0.6523,2.66074 0.0155,-0.2121 0.32808,-0.15249 0.55943,-0.31701 0.67438,-0.37751 0.99731,-1.17396 1.34956,-1.83194 0.16245,-0.66351 0.676,-1.21833 0.68569,-1.91831 -0.0101,-0.61182 -0.21025,-1.20781 -0.37872,-1.79147 -0.10992,-0.37846 -0.23225,-0.75308 -0.35075,-1.12887 -0.27964,-0.77353 0.0562,-0.22764 0.59765,0.31661 -0.12423,0.0357 -0.0243,0.004 0.0361,-0.0193 0.4376,-0.2387 -0.29464,0.1813 0.59301,-1.01054 0.0421,-0.0566 0.0268,0.14053 0.0597,0.20306 0.0908,0.17494 0.39562,0.49815 0.53515,0.66016 0.98612,1.10308 1.85584,2.31175 2.88222,3.37859 0.60235,0.6917 1.36481,1.42728 2.34716,1.11861 0.3815,-0.24497 0.20853,-0.10003 0.51807,-0.43588 1.1145,-0.97069 2.48728,0.60546 1.37276,1.57615 l 0,0 c -0.94147,0.75303 -0.42597,0.44393 -1.54974,0.92187 -1.72466,0.20176 -3.08945,-0.38488 -4.202,-1.73946 -1.04948,-1.11147 -1.96621,-2.33911 -2.97676,-3.4849 -0.57766,-0.71203 -1.82336,-2.23078 -0.49409,-3.06707 0.24116,-0.10828 0.49761,-0.16852 0.76167,-0.18802 0.70829,-0.0241 1.38784,0.45488 1.51275,1.14129 0.12357,0.39244 0.25183,0.78347 0.36594,1.17884 0.24135,0.83837 0.50281,1.69404 0.45031,2.57653 -0.12415,0.9717 -0.54923,1.80507 -0.92377,2.70026 -0.57608,1.07198 -1.16859,2.19448 -2.31795,2.74278 -1.17557,0.47557 -2.35505,0.57128 -3.22681,-0.50917 -0.70992,-1.19973 -1.08063,-2.45309 -0.94438,-3.86561 0.14429,-2.12006 0.6651,-4.11761 1.86917,-5.90065 0.8354,-1.21919 2.55962,-0.0377 1.72421,1.18146 z"
       inkscape:connector-curvature="0" />
    <path
       style="color:#000000;fill:#000000;fill-opacity:1;fill-rule:nonzero;stroke:none;stroke-width:1px;marker:none;visibility:visible;display:inline;overflow:visible;enable-background:accumulate"
       id="path3085"
       d="m 458.32052,505.96123 c -0.94855,1.17778 -2.04083,2.29216 -2.40984,3.79461 -0.11514,1.15519 0.16424,2.09827 1.13969,2.75056 1.18295,0.37247 2.23042,0.12868 3.1923,-0.6083 0.49622,-0.56898 0.95286,-1.16913 1.39211,-1.78255 0.86132,-1.20103 2.55985,0.0171 1.69851,1.21811 l 0,0 c -0.57336,0.79841 -1.15971,1.59275 -1.87984,2.26819 -1.76413,1.19863 -3.69187,1.5581 -5.66516,0.57065 -1.68174,-1.3521 -2.1905,-2.82557 -1.89418,-4.96637 0.51445,-1.77793 1.60516,-3.18803 2.81103,-4.57127 0.93788,-1.14225 2.55327,0.18414 1.61538,1.32637 z"
       inkscape:connector-curvature="0" />
    <path
       style="color:#000000;fill:#000000;fill-opacity:1;fill-rule:nonzero;stroke:none;stroke-width:1px;marker:none;visibility:visible;display:inline;overflow:visible;enable-background:accumulate"
       id="path3087"
       d="m 463.48652,495.29883 c 1.34676,2.04782 2.29872,4.31275 3.17661,6.59065 0.77962,2.08837 1.44903,4.21542 2.10653,6.34466 0.18708,0.6162 0.37775,1.23139 0.55655,1.85006 0.0537,0.48126 -1.48877,-0.56654 -0.90183,-0.76606 1.40348,-0.46324 2.05862,1.52158 0.65514,1.98482 l 0,0 c -0.70303,0.22527 -1.01532,0.0979 -1.76191,-0.64065 -0.17393,-0.60613 -0.36227,-1.20802 -0.54483,-1.81156 -0.6434,-2.084 -1.298,-4.16599 -2.06,-6.21033 -0.814,-2.1164 -1.69165,-4.22264 -2.93071,-6.13219 -0.85523,-1.20539 0.84946,-2.41485 1.70467,-1.20947 z"
       inkscape:connector-curvature="0" />
    <path
       style="color:#000000;fill:#000000;fill-opacity:1;fill-rule:nonzero;stroke:none;stroke-width:1px;marker:none;visibility:visible;display:inline;overflow:visible;enable-background:accumulate"
       id="path3089"
       d="m 461.1402,504.21021 c 1.52987,-0.46541 3.05975,-0.93083 4.58962,-1.39624 1.25484,-0.38176 2.50969,-0.76351 3.76455,-1.14525 0.36337,-0.11055 0.72675,-0.22109 1.09013,-0.33163 1.41397,-0.43016 2.02231,1.56951 0.60833,1.99967 l 0,0 c -0.36338,0.11054 -0.72676,0.22109 -1.09013,0.33164 -1.25485,0.38175 -2.5097,0.76349 -3.76455,1.14524 -1.52987,0.46541 -3.05975,0.93083 -4.58962,1.39624 -1.41398,0.43016 -2.02232,-1.56951 -0.60833,-1.99967 z"
       inkscape:connector-curvature="0" />
    <path
       style="color:#000000;fill:#000000;fill-opacity:1;fill-rule:nonzero;stroke:none;stroke-width:1px;marker:none;visibility:visible;display:inline;overflow:visible;enable-background:accumulate"
       id="path3091"
       d="m 481.2548,498.79819 c 0.7935,1.58497 1.71459,3.10003 2.51145,4.68554 0.3714,0.78163 0.72213,1.57408 1.02521,2.38491 0.56536,0.94692 -1.77801,1.30614 -2.08323,0.35648 -0.28741,-0.93447 -0.56815,-1.871 -0.85078,-2.80692 -0.5115,-1.3467 -0.68006,-2.71164 -0.51704,-4.13637 0.26124,-1.25615 1.03746,-2.02447 2.15379,-2.56036 0.77059,-0.3147 1.57028,-0.54869 2.36909,-0.77894 0.32601,-0.0898 0.65091,-0.18318 0.97491,-0.27997 0.0736,-0.0221 0.14724,-0.0442 0.22089,-0.0664 1.41541,-0.42537 2.01712,1.57616 0.60162,2.00169 l 0,0 c -0.0748,0.0226 -0.14971,0.045 -0.22456,0.0675 -0.33046,0.0984 -0.66166,0.19398 -0.99408,0.28559 -0.69681,0.2008 -1.39406,0.40435 -2.07044,0.66749 -0.46498,0.2002 -0.79806,0.39939 -0.95611,0.9126 -0.14573,1.13913 0.0289,2.20606 0.44245,3.28201 0.27923,0.92474 0.55655,1.85008 0.84057,2.77337 0.28411,0.88719 -1.78398,1.55525 -1.86529,1.01273 -0.27563,-0.74043 -0.59795,-1.46285 -0.93462,-2.17723 -0.79782,-1.58888 -1.72414,-3.1051 -2.51617,-4.69502 -0.65676,-1.32401 1.21569,-2.25282 1.87244,-0.9288 z"
       inkscape:connector-curvature="0" />
    <path
       style="color:#000000;fill:#000000;fill-opacity:1;fill-rule:nonzero;stroke:none;stroke-width:1px;marker:none;visibility:visible;display:inline;overflow:visible;enable-background:accumulate"
       id="path3093"
       d="m 492.61287,497.54864 c 1.03601,-0.51129 2.58456,-0.3947 3.4207,-1.25517 0.38201,-0.43078 0.51632,-0.9414 0.57816,-1.49644 -0.0272,-0.18044 -0.0582,-0.89103 -0.15949,-0.64208 -0.36739,-0.24602 -0.72171,-0.26961 -1.15021,-0.22065 -0.42411,0.0928 -0.89746,0.109 -1.30317,0.27709 -0.0329,0.0131 0.11591,-0.0331 0.10637,7.7e-4 -0.0165,0.0602 -0.0937,0.0823 -0.14053,0.12355 -0.31231,0.33125 -0.39098,1.17178 -0.44986,1.73073 -0.091,1.4792 -0.11887,2.94546 0.062,4.41799 0.14601,0.44531 -0.003,1.37419 0.51611,1.65015 0.1563,0.0831 0.35237,0.0366 0.52703,0.0654 1.21156,0.12954 2.34201,-0.18655 3.43265,-0.67528 0.66509,-0.39766 1.13237,-1.01929 1.71985,-1.50957 0.44995,-0.3469 0.0414,-0.0565 -0.0359,0.0675 0.0503,-1.4771 2.13882,-1.40661 2.08894,0.0709 l 0,0 c -0.0731,0.58959 -0.18055,1.11544 -0.72202,1.4736 -0.73834,0.59988 -1.30167,1.4119 -2.20422,1.80901 -1.53701,0.67463 -3.144,1.06141 -4.83062,0.78039 -1.9181,-0.60899 -2.36226,-1.58362 -2.56688,-3.48122 -0.19486,-1.63949 -0.17554,-3.2738 -0.0619,-4.9199 0.14402,-1.0921 0.30765,-2.32213 1.189,-3.08687 0.73154,-0.59184 1.58862,-0.78061 2.51188,-0.87753 1.04577,-0.0623 1.99385,0.12712 2.80249,0.83976 0.61518,0.6845 0.78856,1.45642 0.74315,2.36069 -0.14143,1.09546 -0.51897,2.09048 -1.33814,2.86754 -1.22112,0.90744 -2.6926,1.18311 -4.12707,1.62995 -1.41398,0.43015 -2.02231,-1.56952 -0.60834,-1.99968 z"
       inkscape:connector-curvature="0" />
    <path
       style="color:#000000;fill:#000000;fill-opacity:1;fill-rule:nonzero;stroke:none;stroke-width:1px;marker:none;visibility:visible;display:inline;overflow:visible;enable-background:accumulate"
       id="path3095"
       d="m 506.10975,490.69465 c -0.97961,1.30641 -1.93877,2.57113 -2.25431,4.19964 -0.0909,0.37432 -0.0802,1.25738 0.31998,1.21913 0.77846,-0.1234 1.46129,-0.30318 2.11181,-0.76386 0.4995,-0.48865 0.87045,-1.00899 0.96336,-1.70243 -0.0354,-0.52299 -0.25179,-1.0486 -0.40721,-1.55125 -0.22743,-0.72353 -0.45572,-1.44678 -0.68276,-2.17042 -0.0577,-0.18265 -0.11531,-0.36529 -0.17105,-0.54852 -0.0519,-0.17036 -0.10368,-0.34077 -0.15543,-0.51117 -0.26831,-0.74489 1.39813,-0.26627 2.11842,-0.36688 0.76482,1.1499 1.40907,2.38902 2.02031,3.62808 1.11426,2.34523 1.91947,4.8011 2.49446,7.3276 0.51921,2.48042 0.14528,4.81058 -1.02652,7.0269 -1.04807,1.89924 -2.67087,3.19106 -4.65922,3.98401 -2.19503,0.50282 -3.42058,0.0559 -4.72247,-1.77617 -0.61369,-1.154 -0.34227,-0.53411 -0.7912,-1.86958 -0.45135,-1.40736 1.539,-2.04563 1.99031,-0.63831 l 0,0 c 0.27769,0.93345 0.099,0.48855 0.53197,1.33649 0.65352,1.05624 0.96735,1.18352 2.24654,0.99458 1.5422,-0.54745 2.75605,-1.60123 3.56576,-3.02576 0.97209,-1.74179 1.22427,-3.60172 0.82654,-5.56943 -0.53626,-2.36805 -1.29025,-4.6682 -2.33151,-6.86737 -0.5734,-1.16791 -1.17652,-2.33789 -1.9011,-3.4176 -0.62971,-1.138 -0.47859,-1.17708 1.63774,-1.37375 0.0514,0.16931 0.10282,0.33859 0.1544,0.50784 0.0543,0.178 0.1112,0.35523 0.16633,0.53299 0.22833,0.72651 0.45742,1.45276 0.68556,2.17932 0.24997,0.80794 0.57701,1.639 0.4741,2.49848 -0.2204,1.27575 -0.88182,2.28683 -1.87747,3.11776 -1.21599,0.76787 -2.58124,1.25286 -4.03322,0.96089 -1.41946,-0.71939 -1.88863,-2.03512 -1.59357,-3.59296 0.43418,-1.95004 1.45632,-3.53742 2.68409,-5.09468 0.9379,-1.14226 2.55328,0.18414 1.61538,1.32637 z"
       inkscape:connector-curvature="0" />
    <path
       style="color:#000000;fill:#000000;fill-opacity:1;fill-rule:nonzero;stroke:none;stroke-width:1px;marker:none;visibility:visible;display:inline;overflow:visible;enable-background:accumulate"
       id="path3097"
       d="m 515.71292,487.58717 c 0.61382,1.49756 1.4824,2.85911 2.28167,4.26016 0.11968,0.006 1.13432,2.30662 0.83743,1.60728 -0.35621,-0.59185 -1.1708,1.01143 -1.34691,0.25078 -0.21291,-1.46255 1.85543,-1.76367 2.06836,-0.30113 l 0,0 c 0.19784,1.66894 -0.88637,2.55631 -2.18843,1.53919 -0.49451,-0.63288 -0.76901,-1.37155 -1.18597,-2.06047 -0.81896,-1.43575 -1.70608,-2.83418 -2.3386,-4.36701 -0.65676,-1.32402 1.21569,-2.25282 1.87245,-0.9288 z"
       inkscape:connector-curvature="0" />
    <path
       style="color:#000000;fill:#000000;fill-opacity:1;fill-rule:nonzero;stroke:none;stroke-width:1px;marker:none;visibility:visible;display:inline;overflow:visible;enable-background:accumulate"
       id="path3103"
       d="m 512.61302,479.79128 c 0.41789,1.07163 0.71426,2.18603 0.98074,3.30351 0.011,0.0601 0.0928,0.16689 0.0333,0.18008 -2.53708,0.5629 -2.04567,0.52868 -2.56461,-1.15388 -0.12846,-0.41936 -0.256,-0.83901 -0.382,-1.25911 -0.18987,-0.62757 0.004,-0.20549 0.86689,-1.46294 0.1407,-0.0375 0.28089,-0.0771 0.42077,-0.11755 1.41793,-0.41694 2.00754,1.58837 0.58955,2.00529 l 0,0 c -0.16069,0.0468 -0.32167,0.0926 -0.48355,0.13518 0.44401,-0.94071 0.46632,-1.67021 0.60886,-1.15871 0.12402,0.41451 0.24995,0.82848 0.37684,1.24214 0.52187,1.69139 0.90643,1.23804 -1.49919,2.07411 -0.2296,-0.96468 -0.48821,-1.92401 -0.81993,-2.85911 -0.65677,-1.32401 1.21569,-2.25282 1.87244,-0.9288 z"
       inkscape:connector-curvature="0" />
    <path
       style="color:#000000;fill:#000000;fill-opacity:1;fill-rule:nonzero;stroke:none;stroke-width:1px;marker:none;visibility:visible;display:inline;overflow:visible;enable-background:accumulate"
       id="path3105"
       d="m 522.97179,484.70792 c -0.38257,1.62272 -0.74522,3.35821 -0.44954,5.02306 0.40463,1.02703 1.53096,1.10895 2.50411,1.1648 1.06304,-0.16531 1.45723,-0.5236 1.61587,-1.55288 0.0428,-1.37921 -0.31033,-2.5682 -1.17658,-3.63015 -0.70138,-0.70356 -1.46185,-1.0148 -2.43912,-0.96442 -0.40177,-0.002 -0.34219,0.0525 -0.45506,0.31174 -0.69954,1.30193 -2.54075,0.31264 -1.8412,-0.9893 l 0,0 c 0.48517,-0.85436 1.2245,-1.39483 2.2482,-1.41205 1.64283,-0.0121 3.00519,0.53658 4.13426,1.76724 1.20545,1.588 1.76171,3.3461 1.57289,5.35648 -0.51291,2.09274 -1.6495,3.03237 -3.81111,3.19797 -2.00195,-0.16712 -3.83332,-0.80678 -4.41876,-2.93567 -0.27027,-1.98993 -0.004,-4.0061 0.51474,-5.93986 0.42643,-1.41511 2.4277,-0.81203 2.00128,0.60305 z"
       inkscape:connector-curvature="0" />
    <path
       style="color:#000000;fill:#000000;fill-opacity:1;fill-rule:nonzero;stroke:none;stroke-width:1px;marker:none;visibility:visible;display:inline;overflow:visible;enable-background:accumulate"
       id="path3107"
       d="m 532.11458,482.22841 c 0.19483,1.47577 0.4745,2.93695 0.78785,4.39145 -0.0784,0.29698 0.86005,2.42151 0.15176,1.14028 -0.13714,-0.12403 -0.25816,-0.17371 -0.42158,-0.17744 -0.62071,0.1651 -0.56376,1.14287 -0.53507,0.10498 -0.099,-1.11577 -0.17659,-2.23941 -0.13036,-3.35969 0.13536,-1.21182 0.53401,-2.3671 0.78715,-3.5517 0.0767,-0.76155 0.2227,-1.4299 0.75488,-2.00839 0.34264,-0.34884 0.80973,-0.48249 1.26432,-0.61667 1.07549,-0.16622 1.74875,0.50951 2.41863,1.23163 0.72675,1.04008 1.34266,2.16175 1.97183,3.2663 0.5998,0.97311 1.28736,1.86545 2.22888,2.5228 0.42291,0.16763 0.88822,0.25959 1.1989,-0.13727 0.0653,-0.0892 0.13072,-0.17864 0.19609,-0.26798 0.95848,-1.12501 2.5495,0.2305 1.59102,1.35552 l 0,0 c -0.17513,0.19295 -0.35025,0.3859 -0.52538,0.57883 -1.20211,0.80424 -2.39699,0.90497 -3.67368,0.17303 -1.17685,-0.85065 -2.08781,-1.94642 -2.83264,-3.19152 -0.55216,-0.97223 -1.1127,-1.94292 -1.69955,-2.89146 -0.2883,-0.32513 -0.7559,-0.53773 -0.28337,-0.63494 -0.093,0.0274 -0.42438,0.16234 -0.36571,0.0782 -0.11359,-0.41734 -0.0928,0.90081 -0.20316,0.99229 -0.24167,1.07026 -0.5755,2.11849 -0.74074,3.20723 -0.0731,1.12674 0.0864,2.25633 0.12916,3.38124 -0.0492,0.64045 -0.15798,1.51803 -0.87559,1.74552 -0.53343,0.16959 -1.04199,0.14192 -1.53867,-0.15173 -0.58431,-0.77449 -0.72931,-1.38935 -0.91043,-2.349 -0.32515,-1.51037 -0.61473,-3.02781 -0.817,-4.56018 -0.19183,-1.46545 1.88063,-1.73676 2.07247,-0.27131 z"
       inkscape:connector-curvature="0" />
    <path
       style="color:#000000;fill:#000000;fill-opacity:1;fill-rule:nonzero;stroke:none;stroke-width:1px;marker:none;visibility:visible;display:inline;overflow:visible;enable-background:accumulate"
       id="path3109"
       d="m 553.08414,469.07406 c 2.25467,1.56796 4.15868,3.52992 5.88465,5.65042 1.26418,1.75202 2.4247,3.57975 3.56472,5.41519 0.34346,0.45007 0.70806,0.89927 1.1576,1.24919 -1.22853,-0.59264 -1.48022,2.11645 -1.64959,0.28811 -0.0173,-0.18713 -0.0324,-0.37444 -0.0486,-0.56167 -0.15481,-1.34267 -0.46814,-2.64476 -0.54778,-3.99593 -0.054,-0.95196 -0.17431,-1.89975 -0.36764,-2.83323 -0.21387,-0.74666 0.0542,-1.44644 0.57763,-1.97526 0.25479,-0.24624 0.55014,-0.32347 0.88704,-0.38747 0.0841,-0.0214 0.16516,-0.0524 0.2464,-0.0822 1.2715,-0.123 1.76609,0.71283 2.45493,1.61294 0.85679,1.08389 1.85891,2.02886 2.87439,2.9611 0.5808,0.43531 1.02636,1.13193 1.76541,1.29593 0.27652,-0.0131 -0.14796,0.0502 -0.20082,0.0684 -0.21743,0.31835 -0.38106,0.68109 -0.65227,0.9551 -0.12798,0.12935 -0.1206,-0.34489 -0.15311,-0.52391 -0.10689,-0.58743 -0.13217,-1.19891 -0.2037,-1.79152 -0.24421,-1.99226 -0.30378,-4.01085 -0.39336,-6.01747 -0.077,-1.66119 -0.23273,-3.31648 -0.46456,-4.9629 -0.21201,-0.84394 0.085,-1.55562 0.83958,-1.97505 0.27267,-0.12885 0.55957,-0.17441 0.85728,-0.14893 1.4647,0.19761 1.18524,2.269 -0.27946,2.07138 l 0,0 c 0.12036,0.008 0.24177,0.0156 0.34851,-0.0487 0.39498,-0.40356 0.12672,-1.26183 0.3039,-0.18966 0.24054,1.71244 0.4031,3.43404 0.4829,5.1618 0.0852,1.95426 0.14224,3.92041 0.38047,5.86037 0.055,0.45931 0.0492,0.98877 0.13086,1.44151 0.038,0.21029 0.23105,0.40867 0.17796,0.6159 -0.12764,0.50184 -0.3503,0.97458 -0.52546,1.46187 -0.39685,0.14132 -0.79312,0.14334 -1.20319,0.0375 -1.06052,-0.31197 -1.83506,-1.02448 -2.62586,-1.77256 -1.10431,-1.01649 -2.19176,-2.05017 -3.12197,-3.23257 -0.57947,-0.76346 -1.07839,-0.90763 -0.01,-0.94217 -0.18961,0.0732 -0.38228,0.13876 -0.58055,0.18498 -0.50645,0.0995 -0.004,2.1e-4 0.0972,-0.13241 0.0464,-0.16175 -0.11518,-0.57445 0.0364,0.0317 0.21219,1.03321 0.34812,2.08129 0.40722,3.13476 0.075,1.33016 0.41483,2.61022 0.54348,3.93633 0.0864,0.99903 -0.0872,3.20426 -1.68825,2.08716 -0.62847,-0.50778 -1.16393,-1.12084 -1.62912,-1.77992 -1.09372,-1.76115 -2.20801,-3.51379 -3.41219,-5.20095 -1.59301,-1.9699 -3.35762,-3.78588 -5.44306,-5.2432 -1.2192,-0.83541 -0.0378,-2.55963 1.18145,-1.72421 z"
       inkscape:connector-curvature="0" />
    <path
       style="color:#000000;fill:#000000;fill-opacity:1;fill-rule:nonzero;stroke:none;stroke-width:1px;marker:none;visibility:visible;display:inline;overflow:visible;enable-background:accumulate"
       id="path3119"
       d="m 575.06286,445.55572 c 2.33607,0.0934 4.66981,-0.0398 7.00562,0.0452 1.55852,0.0242 3.1097,0.19699 4.66543,0.29062 0.11583,0.009 0.55705,0.0283 0.59825,0.03 0.023,0.70572 0.0461,1.41144 0.0691,2.11716 0.0657,-0.0134 0.22106,-0.10238 0.19681,-0.04 -0.0155,0.0398 -1.45768,1.80019 -1.51709,1.88143 -1.2119,1.77762 -2.44961,3.53247 -3.78125,5.22333 -0.51936,0.71771 -1.19034,1.29915 -1.76242,1.96964 -0.96642,1.11822 -2.54782,-0.2485 -1.5814,-1.36672 l 0,0 c 0.55923,-0.64091 1.19014,-1.21445 1.70242,-1.89697 1.31807,-1.66999 2.5357,-3.40821 3.73594,-5.1637 0.09,-0.12295 2.15783,-3.00408 2.4357,-2.61756 0.39994,0.55635 0.36031,1.32215 0.54047,1.98321 -0.25433,-0.002 -0.5082,-0.0202 -0.76214,-0.0334 -1.53974,-0.0928 -3.07476,-0.26417 -4.61719,-0.28827 -2.29494,-0.0867 -4.58824,0.0536 -6.88346,-0.0443 -1.47763,0.0316 -1.52238,-2.05804 -0.0448,-2.08968 z"
       inkscape:connector-curvature="0" />
    <path
       inkscape:connector-curvature="0"
       d="m 380.75754,522.19082 c -2.32365,-0.25811 -4.66097,-0.28993 -6.98496,-0.53959 -1.55292,-0.13417 -3.08803,-0.41599 -4.63328,-0.6192 -0.11488,-0.0175 -0.55366,-0.0675 -0.59464,-0.0722 0.0269,-0.70558 0.0537,-1.41117 0.0805,-2.11675 -0.0664,0.009 -0.22773,0.0865 -0.19914,0.026 0.0183,-0.0386 1.58111,-1.6928 1.64611,-1.76964 1.33435,-1.68765 2.69284,-3.35076 4.14051,-4.94341 0.56872,-0.67926 1.27907,-1.21188 1.89705,-1.84033 1.04293,-1.04722 2.52392,0.42772 1.48099,1.47494 l 0,0 c -0.60309,0.59984 -1.2729,1.12741 -1.83208,1.77208 -1.43266,1.57278 -2.76994,3.22072 -4.0911,4.88711 -0.0985,0.11629 -2.36449,2.84427 -2.61438,2.43911 -0.35967,-0.5832 -0.26609,-1.34428 -0.39914,-2.01642 0.25355,0.02 0.50551,0.056 0.75787,0.0871 1.52935,0.20122 3.04845,0.48054 4.58533,0.61346 2.2831,0.24847 4.58058,0.27043 6.86317,0.53001 1.47618,0.0727 1.37331,2.16036 -0.10286,2.08763 z"
       id="path3121"
       style="color:#000000;fill:#000000;fill-opacity:1;fill-rule:nonzero;stroke:none;stroke-width:1px;marker:none;visibility:visible;display:inline;overflow:visible;enable-background:accumulate" />
  </g>
</svg>
