<?xml version="1.0" encoding="UTF-8" standalone="no"?>
<!-- Created with Inkscape (http://www.inkscape.org/) -->

<svg
   xmlns:dc="http://purl.org/dc/elements/1.1/"
   xmlns:cc="http://creativecommons.org/ns#"
   xmlns:rdf="http://www.w3.org/1999/02/22-rdf-syntax-ns#"
   xmlns:svg="http://www.w3.org/2000/svg"
   xmlns="http://www.w3.org/2000/svg"
   xmlns:sodipodi="http://sodipodi.sourceforge.net/DTD/sodipodi-0.dtd"
   xmlns:inkscape="http://www.inkscape.org/namespaces/inkscape"
   width="347.5184"
   height="298.24957"
   id="svg17038"
   version="1.1"
   inkscape:version="0.48.0 r9654"
   sodipodi:docname="New document 42">
  <defs
     id="defs17040" />
  <sodipodi:namedview
     inkscape:document-units="mm"
     pagecolor="#ffffff"
     bordercolor="#666666"
     borderopacity="1.0"
     inkscape:pageopacity="0.0"
     inkscape:pageshadow="2"
     inkscape:zoom="0.7176508"
     inkscape:cx="213.76304"
     inkscape:cy="221.63555"
     inkscape:current-layer="layer1"
     id="namedview17042"
     showgrid="false"
     fit-margin-top="0"
     fit-margin-left="0"
     fit-margin-right="0"
     fit-margin-bottom="0"
     inkscape:window-width="1280"
     inkscape:window-height="752"
     inkscape:window-x="0"
     inkscape:window-y="0"
     inkscape:window-maximized="0" />
  <metadata
     id="metadata17044">
    <rdf:RDF>
      <cc:Work
         rdf:about="">
        <dc:format>image/svg+xml</dc:format>
        <dc:type
           rdf:resource="http://purl.org/dc/dcmitype/StillImage" />
        <dc:title></dc:title>
      </cc:Work>
    </rdf:RDF>
  </metadata>
  <g
     inkscape:label="Layer 1"
     inkscape:groupmode="layer"
     id="layer1"
     transform="translate(-301.14789,-345.05186)">
    <path
       style="fill:#000000;fill-opacity:1;fill-rule:nonzero;stroke:none"
       id="path17559"
       d="m 372.26702,502.10435 c -2.6414,-0.55397 -5.33501,-0.98808 -8.03658,-0.84273 -4.03237,0.21525 -7.19664,2.82086 -9.82357,5.66383 -4.84516,6.21716 -6.40774,13.09216 -6.86745,20.81646 0.32226,7.96218 2.73279,15.86289 7.86854,22.09482 0.97112,1.1784 2.15315,2.16581 3.22973,3.24872 6.3458,4.87876 14.40133,6.37244 22.049,3.75932 1.53045,-0.52294 2.95291,-1.32034 4.42937,-1.98051 6.6822,-3.93246 11.30792,-10.12481 13.28338,-17.6275 0.36974,-1.40426 0.53699,-2.85416 0.80548,-4.28124 0.58964,-7.56898 -2.16839,-14.59911 -7.70772,-19.81958 -1.17433,-1.10673 -2.51674,-2.02031 -3.77512,-3.03046 -6.70629,-4.58814 -14.29352,-7.88311 -22.51507,-7.51143 -2.58004,0.78307 -1.45336,0.20994 -3.43669,1.60313 -2.50337,1.57182 -4.72625,-1.96849 -2.22288,-3.5403 l 0,0 c 3.40533,-1.99657 1.57557,-1.23557 5.50681,-2.24034 1.10694,-0.0327 2.2148,-0.15392 3.32082,-0.0981 8.0094,0.40404 15.44841,4.17004 21.98264,8.5423 1.42283,1.16771 2.946,2.22289 4.26848,3.50314 6.41708,6.21218 9.47931,14.52437 8.68317,23.38446 -0.31974,1.61825 -0.52451,3.26352 -0.9592,4.85475 -2.35573,8.62324 -7.8107,15.65742 -15.55628,20.09001 -1.72264,0.7417 -3.38276,1.64991 -5.16792,2.2251 -7.09033,2.28456 -15.0838,1.72824 -21.65374,-1.87728 -1.54194,-0.8462 -2.88015,-2.01973 -4.32022,-3.0296 -1.23335,-1.27426 -2.58308,-2.44538 -3.70006,-3.82279 -5.67393,-6.9968 -8.30251,-15.82688 -8.58427,-24.71388 0.11097,-1.62967 0.11622,-3.27 0.33292,-4.88901 0.9019,-6.73844 3.44028,-13.19616 7.66434,-18.52749 3.44891,-3.60147 7.50124,-6.73005 12.69031,-6.97315 3.10593,-0.10345 6.19365,0.27361 9.22566,0.96388 2.86766,0.71692 1.85379,4.77241 -1.01388,4.05549 z"
       inkscape:connector-curvature="0" />
    <path
       inkscape:connector-curvature="0"
       d="m 585.32153,558.66303 c 2.61924,0.6507 5.29507,1.18355 8.00016,1.13762 4.03756,-0.0668 7.29549,-2.55436 10.02516,-5.29883 5.07046,-6.03482 6.88475,-12.84773 7.62813,-20.5499 -0.0293,-7.96865 -2.14773,-15.95264 -7.05089,-22.36917 -0.92714,-1.21331 -2.07207,-2.24351 -3.10811,-3.36527 -6.16214,-5.10877 -14.15731,-6.8976 -21.89588,-4.56742 -1.54864,0.46632 -2.99945,1.21088 -4.49919,1.81633 -6.82226,3.68412 -11.67252,9.70222 -13.92248,17.12721 -0.42112,1.38972 -0.64156,2.83249 -0.96234,4.24873 -0.86751,7.54219 1.63019,14.66896 6.97384,20.08956 1.13285,1.14916 2.44076,2.11147 3.66115,3.1672 6.53307,4.8316 13.99403,8.40329 22.22369,8.33413 2.60708,-0.68768 1.46009,-0.15636 3.4933,-1.47569 2.55947,-1.47872 4.65069,2.14092 2.09122,3.61963 l 0,0 c -3.47643,1.87002 -1.61993,1.17681 -5.58545,2.03636 -1.1074,-0.008 -2.21896,0.0724 -3.32218,-0.024 -7.98913,-0.69824 -15.28466,-4.73519 -21.65372,-9.34473 -1.37894,-1.21923 -2.86228,-2.3297 -4.1368,-3.6577 -6.18435,-6.44391 -8.93891,-14.86306 -7.81756,-23.68789 0.37902,-1.6054 0.64414,-3.24203 1.13704,-4.81621 2.67117,-8.5308 8.38107,-15.35967 16.28438,-19.50449 1.74874,-0.67787 3.44113,-1.52443 5.24623,-2.0336 7.16953,-2.02233 15.13714,-1.17251 21.57008,2.67212 1.50979,0.90232 2.80395,2.12426 4.20591,3.18639 1.18567,1.31874 2.49143,2.53869 3.55702,3.95624 5.41285,7.20067 7.71501,16.12142 7.66985,25.01277 -0.17081,1.62449 -0.23637,3.26352 -0.51244,4.87347 -1.14903,6.70072 -3.92312,13.06075 -8.34033,18.23318 -3.57899,3.47223 -7.7436,6.44971 -12.9381,6.50187 -3.10764,-0.0108 -6.17941,-0.50114 -9.18399,-1.30241 -2.83936,-0.82187 -1.67708,-4.83734 1.1623,-4.01547 z"
       id="path17561"
       style="fill:#000000;fill-opacity:1;fill-rule:nonzero;stroke:none" />
    <path
       style="fill:#000000;fill-opacity:1;fill-rule:nonzero;stroke:none"
       id="path17615"
       d="m 631.92294,534.24578 c 0.09,-3.97424 3.3e-4,-7.91995 -0.38687,-11.87496 -0.60008,-5.63474 -3.38065,-10.33266 -6.53091,-14.88958 -5.06206,-6.79889 -11.54702,-12.14008 -18.41677,-16.99462 -4.83587,-2.95801 -9.98723,-5.57616 -15.55371,-6.84532 -3.50667,-0.79953 -4.67225,-0.69166 -8.25276,-0.85498 -9.33229,0.38152 -15.33502,3.40002 -22.66707,8.83639 -5.85263,5.05738 -11.44439,10.76717 -14.77431,17.85557 -0.68223,1.45225 -1.18343,2.98283 -1.77514,4.47424 -3.01087,8.58567 -2.34145,17.34564 -0.74028,26.10969 0.52561,2.90882 -3.58807,3.65215 -4.11369,0.74334 l 0,0 c -1.76374,-9.86186 -2.36404,-18.7386 0.97345,-28.40755 0.66555,-1.6471 1.23118,-3.33819 1.99667,-4.9413 3.63369,-7.60977 9.61163,-13.78069 15.94998,-19.19674 8.31573,-6.11828 14.82351,-9.24312 25.355,-9.64893 1.55136,0.0807 3.11006,0.0712 4.65408,0.24221 7.71417,0.85428 14.83901,4.16713 21.36174,8.2205 7.26574,5.14373 14.11064,10.82256 19.44399,18.03406 3.54382,5.14919 6.58972,10.50839 7.25025,16.8567 0.3985,4.09016 0.50027,8.17182 0.40665,12.28128 0,2.95592 -4.1803,2.95592 -4.1803,0 z"
       inkscape:connector-curvature="0" />
    <path
       inkscape:connector-curvature="0"
       d="m 417.3091,542.35974 c 0.70471,-3.91229 1.22749,-7.82424 1.45779,-11.79148 0.28025,-5.65967 -1.73882,-10.73169 -4.14495,-15.7217 -3.94746,-7.50113 -9.5265,-13.78264 -15.56109,-19.64299 -4.31914,-3.67159 -9.00261,-7.0563 -14.30521,-9.17264 -3.34043,-1.33322 -4.50865,-1.40726 -8.02061,-2.12339 -9.2787,-1.0691 -15.67664,0.98285 -23.76249,5.21749 -6.56557,4.08945 -12.97451,8.86386 -17.36253,15.35069 -0.89902,1.32901 -1.63132,2.76344 -2.44697,4.14516 -4.30483,8.01545 -5.00082,16.77335 -4.77695,25.67965 0.0686,2.95513 -4.11062,3.05209 -4.17919,0.097 l 0,0 c -0.21437,-10.01604 0.568,-18.87859 5.36335,-27.91363 0.91272,-1.52409 1.73355,-3.10711 2.73819,-4.57225 4.76892,-6.95484 11.63082,-12.12497 18.73182,-16.4935 9.16331,-4.7559 16.07667,-6.83464 26.54385,-5.60373 1.52012,0.3201 3.06147,0.55223 4.56034,0.96042 7.48864,2.03924 14.01412,6.41605 19.83002,11.43114 6.38099,6.20741 12.2633,12.87825 16.41485,20.82904 2.70317,5.63611 4.88189,11.40253 4.5508,17.77652 -0.24007,4.10251 -0.77197,8.15064 -1.50121,12.19597 -0.45801,2.92022 -4.58782,2.2725 -4.12981,-0.64773 z"
       id="path17617"
       style="fill:#000000;fill-opacity:1;fill-rule:nonzero;stroke:none" />
    <path
       style="fill:#000000;fill-opacity:1;fill-rule:nonzero;stroke:none"
       id="path17623"
       d="m 420.38048,539.22139 c 12.69379,1.34638 25.5116,0.79904 38.25186,0.67034 21.91535,-0.4889 43.83569,-0.38434 65.75433,-0.30949 12.33057,-0.006 6.35866,0.0126 17.91575,-0.0511 2.95589,-0.0163 2.97891,4.16396 0.023,4.18024 l 0,0 c -11.58345,0.0638 -5.5991,0.0448 -17.95307,0.0512 -21.89981,-0.0748 -43.8013,-0.17937 -65.69783,0.30932 -12.97675,0.13108 -26.03496,0.69035 -38.96124,-0.72371 -2.91803,-0.47176 -2.25087,-4.59848 0.66716,-4.12673 z"
       inkscape:connector-curvature="0" />
    <path
       style="fill:#000000;fill-opacity:1;fill-rule:nonzero;stroke:none"
       id="path17627"
       d="m 323.11722,534.48673 c -1.65217,0.22078 -3.32486,0.13407 -4.97894,-0.0173 -0.89885,-0.0183 -1.66656,-0.44392 -2.31881,-1.065 -0.48813,-0.32465 -1.38422,-1.13702 -2.03843,-1.90753 0.0258,0.52502 -1.1035,-2.57919 -0.88833,-2.19827 0.22686,0.7368 0.0816,0.47917 0.30718,0.83248 -1.15779,-0.83765 -1.43401,-2.19262 -1.65734,-3.5385 -0.11288,-0.62207 -0.11935,-1.25263 -0.11999,-1.88251 0.005,-0.59259 0.007,-1.1852 0.008,-1.77782 10e-4,-0.93426 0.002,-1.86853 0.002,-2.8028 7e-5,-0.46994 10e-6,-0.93988 0,-1.40983 -2e-5,-0.52911 -3e-5,-1.05823 -4e-5,-1.58735 0,-0.32742 0,-0.65483 0,-0.98225 0,-0.87086 0,-1.74172 0,-2.61258 0.25007,-1.1641 0.6892,-1.85217 1.70119,-2.40891 0.2454,-0.135 0.99769,-0.48776 0.78067,-0.31072 -0.30456,0.24846 -0.65996,0.42709 -0.98995,0.64064 -0.18728,0.34416 -0.0969,0.01 -0.0843,-0.10978 -4.27143,-0.1386 3.36291,-2.32638 2.77656,-2.04289 -1.49706,0.7238 -0.8427,0.0967 -1.38174,0.6618 0.39457,-1.10007 1.12295,-1.59263 2.16722,-1.90101 -0.54739,0.15267 -0.90516,0.66072 -0.72963,0.13653 -0.20871,1.23778 -0.35695,0.62944 2.31882,-1.69618 1.39642,0.0571 1.79935,-0.48185 -0.91815,1.19427 -0.0215,0.0515 -0.0272,0.11297 -0.0644,0.15461 -0.0468,0.0524 -0.0219,-0.14726 0.008,-0.21069 0.248,-0.51954 0.44858,-1.07182 0.78785,-1.53692 0.21421,-0.29367 0.80119,-0.52233 1.14203,-0.67505 0.42834,-0.16371 0.87496,-0.27126 1.33096,-0.31528 0.006,-2.6e-4 0.34478,-0.0193 0.32574,-0.003 -2.67724,2.25203 -2.17922,2.25872 -2.18744,0.45975 -0.16134,-1.33421 0.23968,-2.50849 0.87987,-3.66211 0.38887,-0.6015 0.3967,-1.34317 0.45961,-2.03943 -0.1068,-1.32428 0.35633,-2.4901 0.82376,-3.69751 0.45648,-1.1648 1.28015,-2.09916 1.69988,-3.2816 0.66632,-1.40514 1.06803,-2.90918 1.63499,-4.35474 0.51262,-1.76461 1.56721,-3.18498 2.72725,-4.56993 1.91524,-2.25153 5.09937,0.45703 3.18413,2.70855 l 0,0 c -0.902,1.03766 -1.67303,2.06329 -2.03418,3.42416 -0.58344,1.38774 -0.94831,2.86943 -1.58764,4.2317 -0.45899,1.22626 -1.18227,2.27003 -1.73712,3.37932 -0.40424,1.00767 -0.63778,1.31437 -0.5485,2.54462 -0.11966,1.27337 -0.2806,2.57391 -0.96836,3.68574 -1.00891,1.81177 -0.12776,-1.33754 -0.35343,1.61251 0.01,2.16948 -0.0335,1.30275 -2.22457,3.73285 -0.0139,0.0155 0.2188,-0.003 0.24111,-0.004 -0.0268,0.005 -0.0536,0.0114 -0.0805,0.0164 0.77305,-0.80449 0.84557,-2.39 0.45614,-0.13583 -1.95007,1.44373 -1.42029,1.54607 -2.90877,1.52101 2.27186,-2.69555 1.87159,-2.60852 1.56984,-1.19626 -0.39187,1.17434 -0.9733,2.05776 -2.15893,2.6126 0.85842,-0.80347 1.10621,-1.99889 0.39677,-0.10213 -0.85287,1.25695 -4.07105,2.70634 -0.88401,-0.27754 -0.0702,0.71934 -0.23694,1.42045 -0.60095,2.05422 -2.08823,1.72438 -0.96114,1.07952 -0.78989,-0.23973 0,0.87086 0,1.74172 0,2.61258 0,0.3274 0,0.65479 0,0.98219 10e-6,0.5291 2e-5,1.05819 3e-5,1.58729 2e-5,0.47037 8e-5,0.94073 10e-6,1.4111 -2.6e-4,0.93661 -7.7e-4,1.87322 -0.002,2.80983 -0.001,0.58887 -0.003,1.17772 -0.008,1.76656 1.7e-4,0.4057 -0.0106,0.81127 0.0654,1.21215 0.0315,0.19795 0.25603,0.81694 0.18693,0.98937 -0.0751,0.18729 -0.67165,-0.44749 -0.50187,-0.33846 0.15769,0.10128 0.31395,0.20477 0.47093,0.30715 0.38963,0.36347 1.66465,2.50894 1.01551,1.7522 -0.0472,-0.0551 0.0902,0.11369 0.13527,0.17053 0.52514,0.62702 1.05196,1.14585 1.74449,1.5937 0.58064,0.57144 -1.39788,-0.39179 -0.1971,-0.0869 1.19031,0.1109 2.38547,0.15765 3.58094,0.12448 2.86767,-0.71692 3.88154,3.33857 1.01387,4.05549 z"
       inkscape:connector-curvature="0" />
    <path
       style="fill:#000000;fill-opacity:1;fill-rule:nonzero;stroke:none"
       id="path17633"
       d="m 634.84648,531.59559 c 1.83887,0 3.67774,0 5.51661,0 0.76562,0 1.53124,0 2.29686,0 -0.59419,0.35211 -0.78389,0.0577 -0.83855,0.0359 -0.45389,1.11914 0.86873,-0.88005 1.2576,-1.3606 0.4394,-0.68437 -0.0857,0.51661 -0.0153,-0.17282 0.42375,-1.22205 0.94729,-1.47077 1.38607,-2.34537 -0.0677,-0.0605 0.0153,-0.88474 0.0213,-1.21177 0.006,-0.84663 -2.3e-4,-1.69332 -0.003,-2.53997 -10e-4,-0.51659 -0.004,-1.03319 -0.004,-1.54978 -3.5e-4,-0.72449 -2.4e-4,-1.44899 -2.2e-4,-2.17348 2e-5,-0.71762 4e-5,-1.43524 5e-5,-2.15287 1e-5,-0.91021 0,-1.82041 0,-2.73062 0,-0.90646 0,-1.81291 0,-2.71936 0,-0.61585 0,-1.2317 0,-1.84755 -0.0327,0.50902 0.0517,-2.03766 0,-1.53021 -0.0421,0.41347 0.082,0.52506 -0.12202,0.22869 -0.60473,-0.75629 -0.90113,-1.67211 -1.12493,-2.59933 -0.0862,-0.34728 -0.13217,-0.70026 -0.15575,-1.05623 0.002,-0.0666 -0.0386,-0.25055 0.005,-0.19993 3.68122,4.29596 0.062,1.78199 -0.84673,0.4261 -0.43419,-1.00409 -1.28956,-1.80028 0.89824,0.42153 -1.53972,0.1777 -2.44339,-1.91308 -2.25453,-1.22974 -0.94254,-0.50746 -0.19857,-0.14817 -0.38855,-0.15872 -0.25343,-0.0178 -0.50737,-0.0191 -0.76121,-0.0171 -0.77316,-0.30193 -2.20478,-1.75426 -2.20258,-3.09897 -0.003,-0.74338 -0.008,-1.48673 -0.011,-2.23011 -0.002,-0.68149 -0.003,-1.36299 -0.003,-2.04449 -10e-5,-0.23256 -2e-5,-0.46513 -10e-6,-0.69769 3e-5,-0.63445 4e-5,-1.26889 5e-5,-1.90333 0,-0.6711 0,-1.3422 0,-2.0133 0,-0.72501 0,-1.45001 0,-2.17501 0.1258,0.31228 -0.0963,-1.3326 0,-1.01 0.085,0.28461 0.0846,0.58993 0.16733,0.8752 0.0273,0.0941 0.22648,0.31803 0.15817,0.24779 -0.19425,-0.19971 -0.35913,-0.42601 -0.5387,-0.63902 -0.69965,-0.90944 -0.95167,-2.01163 -1.1133,-3.12255 -0.0735,-0.46102 -0.0774,-0.92581 -0.0759,-1.39111 0.0903,-0.86321 -0.0522,-0.93166 -0.4037,-1.62287 -0.23665,-0.1185 -1.12442,-3.24051 -0.58639,-1.53032 -0.80559,-0.59012 -1.24486,-1.41892 -1.58334,-2.33816 -0.0574,-0.08 -0.0537,-0.009 -0.66766,-0.67 -0.69726,-0.71312 -0.84292,-1.70473 -0.92287,-2.64453 1.63752,2.86748 -0.31565,0.29165 -0.77497,-0.36203 -0.46009,-0.52893 -0.88529,-2.77031 -0.36529,-0.8959 -0.75986,-0.64324 -1.15026,-1.49645 -1.46148,-2.41643 -0.11263,-0.32519 -0.17768,-0.65897 -0.2017,-1.00124 -0.2489,-0.85436 1.00414,1.34857 -0.17812,0.46223 -0.0179,-0.0116 -0.0305,-0.0299 -0.0458,-0.0448 -1.29464,-1.5659 -1.17426,-2.17793 -1.1661,-3.85918 0.004,-0.59584 0.005,-1.1917 0.005,-1.78755 5.9e-4,-1.08962 4.8e-4,-2.17924 4.7e-4,-3.26885 0,-0.8621 -4e-5,-1.72419 -5e-5,-2.58628 -10e-6,-0.66958 -10e-6,-1.33916 -10e-6,-2.00873 0,-0.72388 0,-1.44776 0,-2.17164 0,-0.86909 0,-1.73819 0,-2.60728 0.0668,-0.84971 0.0419,-0.80258 -0.39406,-1.31604 -0.67327,-0.61787 -0.85347,-1.51202 -0.96496,-2.36684 1.2332,2.40908 -0.46828,-0.0887 -0.83261,-0.63545 0.13823,0.13217 -0.26723,-0.35036 -0.18112,-0.28004 2.22485,1.8169 -0.20011,0.25656 -0.73499,-0.28832 -0.65293,-0.9225 -1.01996,-1.45371 -0.1018,-0.26427 -0.28616,-0.0537 -0.57886,-0.0323 -0.86868,-0.0325 -1.51019,-0.33485 -2.27849,-1.20173 -2.74838,-2.57094 -0.75591,-1.62467 2.46268,1.21513 1.23448,1.18064 -0.48672,-0.006 -0.97355,-1.8e-4 -1.4603,0.003 -0.53558,0.004 -1.07118,0.004 -1.60677,0.004 -0.8215,3.2e-4 -1.64299,2.6e-4 -2.46448,2.4e-4 -0.70869,-3e-5 -1.41738,-4e-5 -2.12606,-5e-5 -0.82546,0 -1.65092,-1e-5 -2.47638,-1e-5 -1.98951,-0.0186 -0.50171,0.1633 0.34277,-0.57035 -0.61795,0.95298 -1.49498,1.45439 -2.52864,1.80939 -0.58105,0.11044 -1.95546,0.56345 0.36983,-0.24991 -0.34472,0.33802 -0.68518,0.68035 -1.02521,1.02307 -0.0437,0.0442 -0.0873,0.0885 -0.13095,0.13276 -1.11716,0.66706 -1.62081,0.65193 -2.66571,0.644 -0.087,-6.3e-4 -0.17407,-0.001 -0.2611,-0.002 -0.37753,3.6e-4 -0.75506,2.1e-4 -1.13258,1.9e-4 -0.48881,-2e-5 -0.97762,-4e-5 -1.46644,-7e-5 -0.0588,0 -0.11758,0 -0.17637,0 -0.37633,0 -0.75266,0 -1.12899,0 -0.0849,0 -0.16989,0 -0.25483,0 -0.27539,0 -0.55077,0 -0.82615,0 -0.84117,0.0707 -1.51549,-0.10042 -2.34608,-0.32518 -0.76003,-0.36681 -1.46262,-0.83943 -2.12609,-1.35826 -1.14318,-0.78432 1.40103,0.28628 0.67833,0.28052 -1.27864,0.14026 -2.43027,-0.72465 -2.87258,-1.91075 0.76151,1.34536 -0.58335,0.2158 -1.17338,-0.24636 -0.78942,-0.55988 -1.65907,-0.95555 -2.33566,-1.77697 -0.27974,-0.0222 -1.01026,-0.53274 -1.31722,-0.7418 -0.5705,-0.54841 -1.34884,-0.64089 -2.10021,-0.77959 -1.17707,-0.16617 -2.19185,-0.85169 -3.12649,-1.54358 -0.61854,-0.45751 0.18029,0.10393 0.13467,0.0789 -0.64383,-0.3531 -1.10065,-0.81204 -1.72052,-1.12883 -0.91281,-0.15541 -1.77973,-0.34014 -2.65961,-0.63073 -0.79471,-0.50259 -1.27511,-0.8965 -1.6708,-1.00693 -0.45547,-0.0224 -0.91073,-0.0612 -1.36765,-0.0682 -0.41939,8.9e-4 -0.83877,0.004 -1.25815,0.007 -1.24926,0.14903 -2.38588,-0.36786 -3.55153,-0.72303 -1.04354,-0.35046 -2.12623,-0.51594 -3.21629,-0.63362 -0.40439,-0.0533 -0.81146,-0.0442 -1.21814,-0.0428 -0.78707,0.006 -1.57417,0.006 -2.36126,0.008 -0.76127,8.5e-4 -1.52255,10e-4 -2.28382,10e-4 -0.75073,10e-6 -1.50145,-3e-5 -2.25218,-4e-5 -0.88662,-10e-6 -1.77324,-2e-5 -2.65986,-2e-5 -0.72205,0 -1.4441,0 -2.16616,0 -1.20864,0 -2.41728,0 -3.62592,0 -1.35434,0.16224 -2.51547,-0.46865 -3.64679,-1.11535 -0.57664,-0.17689 -1.16638,-0.22511 -1.76556,-0.26435 -1.03595,-0.0393 -2.07367,-0.0236 -3.11026,-0.0212 -0.95859,0.003 -1.91718,0.005 -2.87578,0.007 -0.22428,5.2e-4 -0.44857,8.2e-4 -0.67286,8.3e-4 -0.56267,-2e-5 -1.12534,-4e-5 -1.68801,-5e-5 -0.29124,-10e-6 -0.58247,-10e-6 -0.8737,-2e-5 -0.60679,0 -1.21358,0 -1.82037,0 -0.32138,0 -0.64275,0 -0.96413,0 -0.0185,0 -0.0371,0 -0.0556,0 -2.95593,0 -2.95593,-4.1803 -10e-6,-4.1803 l 0,0 c 0.0186,0 0.0371,0 0.0556,0 0.32138,0 0.64275,0 0.96413,0 0.60681,0 1.21361,0 1.82042,0 0.29125,0 0.5825,1e-5 0.87375,1e-5 0.56256,2e-5 1.12512,4e-5 1.68769,6e-5 0.22172,-2e-5 0.44344,-3.2e-4 0.66515,-8.3e-4 0.95804,-0.002 1.91608,-0.004 2.87411,-0.007 1.13361,-0.003 2.26863,-0.0209 3.40132,0.0307 1.22864,0.0848 2.44113,0.25429 3.56023,0.80686 0.60006,0.34375 1.0814,0.56004 1.05462,0.58523 -0.12208,0.11479 -0.35782,0.0631 -0.50224,-0.0219 -0.29253,-0.17214 1.43063,0.20478 1.01828,0 1.20864,0 2.41728,0 3.62592,0 0.72206,0 1.44412,0 2.16617,0 0.88664,0 1.77328,10e-6 2.65992,3e-5 0.75046,10e-6 1.50091,5e-5 2.25137,3e-5 0.75919,-1.3e-4 1.51837,-4.9e-4 2.27756,-10e-4 0.78481,-0.001 1.56963,-0.002 2.35443,-0.008 0.56253,-0.002 1.12565,-0.003 1.68495,0.0674 1.35821,0.14922 2.70749,0.36981 4.00921,0.79899 1.31039,0.41611 1.08937,0.59733 2.27528,0.53316 0.45311,-0.003 0.90624,-0.008 1.35936,-0.007 0.8436,0.0153 1.69135,0.0623 2.51674,0.24955 0.77907,0.24601 1.56032,0.55621 2.12309,1.17401 -0.86249,0.11453 3.73193,0.4551 2.9752,0.78457 1.40929,0.78161 0.97461,0.9067 2.09482,1.37458 0.46803,0.35182 0.88266,0.74041 1.40325,0.78823 1.36351,0.26043 2.75695,0.60183 3.83102,1.54061 0.69652,0.46095 1.60315,0.87274 2.16335,1.58906 -1.2374,-0.41012 1.54411,0.62317 1.61761,1.02947 0.80429,0.71557 2.14536,0.95945 2.56295,2.35426 -0.55288,-1.0043 -2.88702,-1.17427 -1.0871,-1.12967 0.67141,0.0126 1.8393,0.57955 1.84238,0.61257 0.36529,0.28155 0.74285,0.54604 1.13983,0.7817 -0.95675,0.0198 0.47492,0.003 0.74929,0.008 0.27538,0 0.55076,0 0.82614,0 0.085,0 0.16989,0 0.25484,0 0.37643,0 0.75286,0 1.12929,0 0.0588,0 0.11752,10e-6 0.17628,10e-6 0.4888,2e-5 0.97761,5e-5 1.46641,7e-5 0.39128,1e-5 0.78419,-2e-5 1.17457,2e-5 0.0838,7.2e-4 0.16757,0.001 0.25135,0.002 0.79882,0.006 2.16012,-0.22195 -0.39847,0.65809 0.0641,-0.0657 0.12778,-0.13182 0.19285,-0.19659 0.3663,-0.36918 0.73298,-0.73803 1.10499,-1.10148 3.21256,-1.56702 1.64873,-0.71359 1.19172,-0.69334 0.37733,-0.12602 0.562,-0.31592 0.0736,0.37664 0.71258,-1.34483 1.93405,-1.98298 3.44079,-1.8324 0.82547,0 1.65094,0 2.47641,1e-5 0.70871,0 1.41742,10e-6 2.12614,4e-5 0.82067,3e-5 1.64135,8e-5 2.46203,-2.3e-4 0.52799,-3e-4 1.05599,-3e-5 1.58397,-0.004 0.54435,-0.003 1.08885,-0.0105 1.63315,-2.2e-4 1.06803,0.0419 3.22433,1.6186 2.58961,1.69333 -0.39528,-0.13915 -0.81879,-0.18284 -1.21944,-0.30563 0.62712,7.7e-4 1.25753,-9.6e-4 1.8699,0.15518 0.89937,0.23989 1.80142,0.64552 2.22681,1.55125 -2.01025,-0.63993 0.9264,0.0936 1.2658,1.02274 0.53088,0.79864 1.11941,1.53887 1.50114,2.43658 0.11217,0.9351 -0.78049,-0.88129 0.10625,0.30272 0.8731,1.1444 1.42414,2.42399 1.28464,3.89532 0,0.86909 0,1.73819 0,2.60728 0,0.72388 0,1.44776 0,2.17163 0,0.66956 0,1.33912 1e-5,2.00867 10e-6,0.86211 4e-5,1.72421 5e-5,2.58632 10e-6,1.09082 1.2e-4,2.18164 -4.7e-4,3.27246 -5.2e-4,0.60143 -10e-4,1.20286 -0.005,1.80427 -0.006,1.32142 0.47366,3.04672 -1.14944,0.0975 0.24814,0.13642 0.489,0.28425 0.7125,0.45948 0.97983,0.75144 1.60757,1.40996 1.82532,2.74642 -0.003,-0.0351 -0.0693,-0.49721 -0.01,-0.19867 0.3992,1.17055 -0.46951,-0.23142 0.34774,0.67935 0.46023,0.48412 1.5297,2.89448 0.80142,1.35394 -0.0337,-0.0714 0.20428,0.33864 0.13265,0.19619 0.59072,0.84376 1.03579,1.39108 1.51944,2.42496 0.0867,0.98344 -0.3303,-0.28707 -0.17893,0.13954 0.59537,0.64255 1.19621,1.27289 1.53655,2.09834 0.31395,0.86843 -0.59235,-0.28475 0.33989,0.55307 0.87419,0.83163 1.20127,1.80106 1.63719,2.86461 0.54395,1.10486 0.97214,2.24963 0.84292,3.50224 -9.3e-4,0.26359 -0.01,0.52605 0.0341,0.78741 0.0639,0.46375 0.0574,0.83682 0.31945,1.20455 0.59947,0.69114 1.21029,1.85304 1.04884,3.03367 0,0.725 0,1.45 0,2.175 0,0.67112 0,1.34224 0,2.01336 -10e-6,0.63451 -10e-6,1.26903 -4e-5,1.90355 -2e-5,0.23166 -10e-5,0.46332 1e-5,0.69497 3.9e-4,0.67676 10e-4,1.35352 0.003,2.03028 0.003,0.75206 0.008,1.50411 0.011,2.25618 -0.008,2.82483 -3.14299,-1.35975 -2.07367,-1.08964 0.41224,-0.006 0.82471,8.9e-4 1.23597,0.0332 0.89901,0.0925 1.67545,0.37776 2.40986,0.8992 0.18146,0.13398 1.92028,1.35179 0.96968,0.91203 -1.82506,-0.84429 -1.42718,-0.39558 -0.63603,-0.4124 0.84193,0.1251 2.19211,1.16021 2.14303,1.4771 -1.19146,-0.13968 -3.04473,-1.18059 1.4976,2.10115 10e-4,-0.0578 0.002,-0.11554 0.003,-0.17331 0.0148,0.0641 0.0342,0.12727 0.0443,0.19225 0.14351,0.62566 0.2441,0.95763 0.68815,1.49171 0.58666,1.08577 0.76058,2.16106 0.67149,3.37322 0,0.61585 0,1.2317 0,1.84755 0,0.90645 0,1.8129 0,2.71936 0,0.91022 0,1.82045 -10e-6,2.73067 0,0.71764 -3e-5,1.43527 -5e-5,2.15291 -10e-6,0.72325 -1.2e-4,1.4465 2.2e-4,2.16975 4.4e-4,0.51329 0.003,1.02658 0.004,1.53986 0.003,0.87845 0.01,1.75696 0.002,2.63539 -0.0212,1.03063 -0.0859,2.0594 -0.4766,3.02865 -0.30132,0.58556 -1.81777,3.04166 -0.96112,0.95609 -0.15064,1.14558 -0.56503,2.15703 -1.48213,2.89498 -2.07073,1.54929 0.93889,-2.2472 -0.14926,-0.0443 -0.62189,1.23323 -1.4961,2.05599 -2.92151,2.31769 -0.76562,0 -1.53124,0 -2.29686,0 -1.83887,0 -3.67774,0 -5.51661,0 -2.95592,0 -2.95592,-4.1803 0,-4.1803 z"
       inkscape:connector-curvature="0" />
    <path
       style="fill:#000000;fill-opacity:1;fill-rule:nonzero;stroke:none"
       id="path17667"
       d="m 531.49132,431.80518 c -1.04275,-2.73479 -2.05495,-5.48213 -3.1332,-8.20359 -1.23019,-3.18625 -2.64144,-6.32391 -4.32091,-9.30022 -1.34537,-2.60762 -2.87669,-5.10991 -4.70206,-7.40795 -1.45257,-1.78402 -3.11173,-3.3691 -4.90308,-4.80603 -1.39425,-1.40208 -3.0749,-2.4712 -4.77213,-3.47118 -1.21918,-0.94646 -2.56069,-1.61959 -3.91082,-2.33468 -1.09443,-0.75655 -2.38847,-0.95804 -3.67787,-1.12584 -1.01547,-0.094 -2.03525,-0.12972 -3.05472,-0.13157 -0.74267,0.004 -1.48532,0.01 -2.22801,0.0118 -0.92383,0.002 -1.84766,0.003 -2.77149,0.003 -0.24829,8e-5 -0.49658,8e-5 -0.74488,10e-6 -0.2683,-1.5e-4 -0.53661,-10e-5 -0.80492,-9e-5 -1.17175,-0.002 -2.08837,-0.79919 -2.92405,-1.50682 -0.45392,-0.48676 -1.45546,-0.9869 0.59061,0.10784 -0.97354,-0.008 -1.94716,-0.002 -2.92072,-2.6e-4 -2.38341,0.005 -4.76683,0.005 -7.15025,0.005 -4.83349,0.36817 -9.60642,1.2894 -14.29909,2.48037 -7.11085,1.67081 -14.32107,2.89826 -21.53317,4.04443 -8.02476,1.33974 -15.9689,3.18354 -23.8379,5.24394 -6.79466,1.90452 -13.56011,3.83601 -20.15505,6.35782 -5.64994,2.06945 -10.81727,5.17022 -16.24196,7.72238 -4.43877,1.93764 -8.65176,4.31013 -12.7989,6.79858 -2.2924,1.39688 -4.71238,2.53503 -7.27898,3.318 -0.16466,0.0441 -0.5253,0.29985 -0.49399,0.13229 0.0324,-0.1732 0.34198,-0.0928 0.50085,-0.16901 0.0873,-0.0419 0.2901,-0.25441 0.22771,-0.18036 -0.36681,0.43539 -0.88633,0.97204 -1.28696,1.36931 -1.326,1.25366 -2.83287,2.29171 -4.21312,3.47288 -0.91667,0.97873 -1.86487,1.80659 -3.12132,2.31236 0.33894,-0.1204 0.49871,-0.33051 0.42114,-0.022 0.3833,-1.67635 -1.35881,1.68981 -2.60766,1.7201 -0.29541,0.006 -0.59085,0.003 -0.88604,-0.009 -0.81612,0.0669 2.13461,-3.48185 2.16177,-1.06791 0.20092,2.32856 -4.16898,2.99062 -1.56231,2.13291 0.93229,-1.05032 -0.42129,2.1491 -0.52325,2.49428 -0.98131,2.15797 -1.47672,4.44123 -1.81666,6.77211 -0.22133,1.71983 -0.26851,3.4533 -0.28459,5.18494 -0.23077,1.51282 -0.78258,2.95129 -1.21732,4.41496 -0.0902,0.50595 -0.13893,1.01728 -0.16896,1.5298 0.085,0.76315 -0.43701,1.62488 -0.97606,2.23507 -0.39183,0.39006 -0.83554,0.71852 -1.29584,1.02146 -0.60328,0.42429 0.39142,-1.11047 0.88188,-1.24871 0.42892,-0.1209 -0.35838,0.81922 -0.5923,1.19852 -0.29809,0.48337 -0.91627,0.90531 -1.33207,1.28375 -0.90335,0.90829 -2.42237,1.4583 -3.20296,2.45334 -0.93246,0.91526 -1.87842,1.79786 -2.73925,2.79001 -1.43827,1.37721 -2.88398,2.73318 -4.15182,4.27286 -0.86229,0.86006 -1.39337,1.87949 -1.99638,2.9137 -0.64242,1.48548 -1.30365,2.95034 -1.99682,4.41592 -0.94424,1.57345 -1.61235,3.27291 -2.43637,4.90734 -0.59706,1.52741 -0.88702,3.10098 -1.5671,4.59916 -0.87659,1.87901 -2.0743,3.57765 -3.15345,5.34115 -1.03392,1.51336 -1.8364,3.16287 -2.7504,4.74752 -1.47948,2.55903 -5.09849,0.46673 -3.61901,-2.0923 l 0,0 c 0.93598,-1.61467 1.75032,-3.30061 2.80752,-4.84335 0.99414,-1.61285 2.09542,-3.16874 2.90982,-4.88305 0.69794,-1.53268 0.88777,-3.2203 1.64088,-4.75303 0.80909,-1.60079 1.45618,-3.27204 2.38934,-4.81116 0.74841,-1.58154 1.43929,-3.16494 2.17466,-4.75147 0.72306,-1.20671 1.38801,-2.42681 2.37383,-3.45203 1.29362,-1.56309 2.73436,-2.97974 4.22167,-4.35527 0.96917,-1.11114 2.04538,-2.08925 3.073,-3.13197 1.02604,-0.87004 2.15281,-1.63682 3.2096,-2.4594 2.5584,-2.3269 -1.34599,2.47034 1.62927,-1.67959 0.17657,-0.11753 0.34889,-0.24125 0.50913,-0.38094 -0.30295,1.57426 -0.17148,1.03057 -0.1859,0.45459 0.0436,-0.84465 0.13938,-1.68869 0.33686,-2.51232 0.32532,-1.09496 0.64446,-2.1934 1.04443,-3.26395 0.0184,-1.92158 0.0769,-3.84504 0.32873,-5.7527 0.37315,-2.52714 0.88733,-5.02954 1.94998,-7.37067 0.46413,-1.51879 0.83329,-3.2177 1.80815,-4.46485 2.1131,-1.03178 1.62958,-0.9939 0.10429,1.33349 -0.0445,0.068 0.0567,-0.37169 -0.004,-0.24378 -0.0158,-1.4431 1.08817,-2.53103 2.22628,-3.15356 0.19404,0.005 0.38817,0.01 0.58233,0.005 1.32323,-0.0279 -2.17346,3.68728 -1.29499,1.23924 0.36616,-1.1397 0.9933,-2.06275 2.07367,-2.65868 0.80445,-0.26919 1.2361,-1.07665 1.9461,-1.62103 1.34901,-1.1078 2.7535,-2.14488 4.04672,-3.32632 0.92801,-0.65344 1.17091,-1.82897 2.6853,-2.09023 2.24227,-0.67365 4.3407,-1.6871 6.34145,-2.90249 4.26946,-2.55846 8.60559,-5.00084 13.17238,-6.99756 5.522,-2.58579 10.77092,-5.75759 16.5264,-7.84327 6.73835,-2.57204 13.64629,-4.5566 20.5888,-6.49696 8.00236,-2.09224 16.07953,-3.9694 24.24027,-5.32832 7.08825,-1.12521 14.1745,-2.33124 21.16401,-3.9686 5.02747,-1.26719 10.14161,-2.26242 15.32312,-2.60796 2.38055,-5e-4 4.7611,-5e-4 7.14165,-0.005 1.09898,-0.002 2.19901,-0.0205 3.29743,0.0164 1.3463,0.57405 1.1497,0.32056 1.74831,0.87014 0.43147,0.36802 1.33883,0.7379 0.0429,0.51269 -0.0575,-0.01 0.11663,-10e-6 0.17494,-10e-6 0.26913,0 0.53827,-5e-5 0.8074,10e-5 0.24705,7e-5 0.4941,6e-5 0.74115,-2e-5 0.92008,-2.8e-4 1.84017,-6.1e-4 2.76025,-0.003 0.75003,-0.002 1.50002,-0.008 2.25004,-0.0118 1.20019,0.003 2.40104,0.0461 3.5956,0.16795 1.7822,0.2405 3.5802,0.59111 5.1129,1.59101 1.3777,0.76614 2.80346,1.42687 4.05275,2.41489 1.86649,1.10655 3.72957,2.29425 5.27833,3.82325 2.01381,1.64768 3.91642,3.42352 5.54839,5.45938 1.95191,2.47723 3.62638,5.14763 5.06806,7.95406 1.76042,3.14761 3.27049,6.44614 4.56414,9.81165 1.13939,2.89321 2.24447,5.80085 3.30063,8.7253 0.71692,2.86766 -3.33858,3.88154 -4.05549,1.01387 z"
       inkscape:connector-curvature="0" />
    <path
       style="fill:#000000;fill-opacity:1;fill-rule:nonzero;stroke:none"
       id="path17681"
       d="m 373.22089,526.25093 c 2.5892,0.89874 4.63729,2.29197 5.41325,5.00636 0.3649,2.34271 -1.09795,3.82341 -3.21039,4.37021 -2.09948,0.43603 -3.86651,-0.23076 -5.3705,-1.69971 -0.93579,-1.00871 -1.29804,-2.33202 -1.47732,-3.65987 -0.17113,-1.96272 1.6572,-2.94806 3.11479,-3.56547 2.24843,-0.79373 3.68353,-0.74045 5.52502,0.84636 1.09285,1.50785 1.19354,3.05842 0.78861,4.80084 -1.42288,1.86918 -3.53071,1.92383 -5.68394,2.02951 -1.95301,0.46719 -4.08048,-1.70281 -2.55158,-3.8995 0.22659,-0.32019 0.11971,-0.17027 0.32028,-0.45 1.72282,-2.40194 5.11969,0.0345 3.39686,2.43645 l 0,0 c -0.17943,0.25006 -0.0837,0.11589 -0.28687,0.40273 -0.8602,1.23403 -3.87469,-3.20223 -1.07998,-2.66514 0.73558,-0.0347 3.03658,-0.7894 2.04181,0.50186 -0.0275,1.47785 -0.033,-0.0742 -0.10113,-0.4154 0.17691,0.0718 0.76299,0.034 0.57214,0.0279 -0.47299,-0.0152 -0.97667,0.1725 -1.42886,0.28157 -1.22585,0.32658 -1.50901,1.60091 -0.48114,-0.86607 0.0514,0.44253 0.0872,0.94391 0.33545,1.28737 0.40211,0.50334 0.68168,0.66953 1.41515,0.53596 0.26074,-0.0369 -0.0536,1.03187 0.0876,0.6372 0.0119,-0.10194 0.19383,-0.19378 0.13402,-0.27718 -0.58734,-0.81901 -1.63691,-1.17171 -2.48714,-1.61045 -2.86767,-0.71691 -1.85379,-4.77241 1.01387,-4.05549 z"
       inkscape:connector-curvature="0" />
    <path
       style="fill:#000000;fill-opacity:1;fill-rule:nonzero;stroke:none"
       id="path17683"
       d="m 587.43728,528.27178 c 0.31965,2.14791 0.20068,4.15338 -1.02045,5.9899 -2.00803,1.84618 -4.26644,2.10951 -5.59972,-0.79104 -0.42752,-1.52998 -0.44697,-3.13655 -0.4672,-4.71515 -0.18635,-1.9046 0.54029,-3.14354 2.30043,-3.90505 1.68659,-0.43301 3.15242,0.49149 4.42272,1.47158 1.04653,0.99884 1.46918,2.2237 1.61714,3.62958 -0.15034,2.02866 -1.20541,3.3501 -3.06162,4.10374 -2.00058,0.67683 -1.6735,0.20064 -3.80127,-1.68101 -0.31622,-1.50101 0.12155,-2.82413 1.17592,-3.91976 0.83467,-0.78527 1.96591,-0.96578 3.05982,-1.0448 2.65317,0.76779 3.06298,2.66599 1.74489,4.92917 -0.79286,0.99715 -1.86805,1.55288 -3.05732,1.91634 -2.90939,-0.59896 -2.94658,-1.42586 -3.00526,-3.88207 -0.005,-0.2312 -0.003,-0.46242 7.9e-4,-0.69361 0.0485,-2.95552 4.22823,-2.88696 4.17974,0.0686 l 0,0 c -0.002,0.17651 -0.006,0.35303 -10e-4,0.52956 0.031,1.43952 0.0992,0.59382 -0.36105,0.41861 -0.63966,-0.24351 -1.33589,-0.29876 -2.00383,-0.44813 0.23025,-0.0703 0.9186,-0.49639 0.65632,-0.0477 0.0703,-0.11279 0.19089,-0.45914 0.22335,-0.33027 0.35384,1.40469 0.0405,1.24658 1.90733,1.71023 -0.41563,0.0248 -0.84147,0.14743 -0.42896,-0.12909 -0.009,-0.76764 -0.0212,-0.58027 0.0141,0.13075 -2.67491,-1.67669 -2.89743,-1.13324 -1.80505,-1.428 0.3689,-0.11638 0.19293,-0.11198 0.1212,0.21856 -0.0373,0.17205 0.1015,-0.53669 0.27896,-0.0436 -0.0328,-0.58074 0.0934,-0.38433 -0.25812,-0.90679 -0.31041,-0.20487 -1.6752,-0.40043 -0.22378,-0.58572 0.0663,-0.008 -0.13302,0.0131 -0.19952,0.0197 1.04923,-0.86604 0.60482,-2.35351 0.68435,-0.1521 0.0125,1.07375 0.0578,2.1466 0.169,3.21517 -0.90362,-0.41349 -0.72039,-0.38722 -1.78,-0.31568 -0.006,3.9e-4 0.78967,-0.109 0.0795,0.252 0.6364,-0.71857 0.35003,-1.65994 0.38341,-2.56998 -0.71691,-2.86767 3.33858,-3.88154 4.0555,-1.01387 z"
       inkscape:connector-curvature="0" />
    <g
       id="g17703"
       transform="translate(-30.544535,275.88613)">
      <path
         inkscape:connector-curvature="0"
         d="m 398.33642,336.58539 c 0.625,-5.86101 0.48117,-11.77319 0.38068,-17.65658 -0.16471,-9.05074 -0.10253,-18.1004 -0.0642,-27.15182 0.009,-2.09013 2.96476,-2.07761 2.9559,0.0125 l 0,0 c -0.0383,9.03045 -0.10081,18.05914 0.0638,27.08891 0.10674,6.27624 0.39685,12.67907 -0.6274,18.89017 -0.83666,1.9154 -3.54545,0.73219 -2.70878,-1.18321 z"
         id="path17691"
         style="fill:#000000;fill-opacity:1;fill-rule:nonzero;stroke:none" />
      <path
         inkscape:connector-curvature="0"
         d="m 392.38,304.9499 c 0.73509,-3.14838 1.7025,-6.23415 2.76939,-9.28392 0.84582,-2.5507 1.61013,-5.12248 2.75454,-7.55881 0.29831,-0.58359 0.58,-1.18741 1.00332,-1.69324 1.91718,-1.55336 3.19461,1.63558 3.62598,2.74823 1.22744,2.77499 2.11577,5.67903 3.17523,8.51989 1.09738,2.04333 1.19337,4.79648 2.32951,6.78827 0.0539,0.0655 0.10777,0.13101 0.16173,0.1965 1.21288,1.70227 -1.19449,3.41752 -2.40735,1.71526 l 0,0 c -0.13256,-0.19616 -0.26505,-0.39232 -0.39757,-0.58849 -1.06247,-2.25607 -1.45507,-4.78952 -2.45592,-7.07872 -1.05747,-2.83585 -1.94476,-5.73416 -3.16945,-8.50448 -0.18848,-0.51309 -0.37722,-0.96241 -0.65834,-1.42898 -0.10608,-0.17604 -0.52511,-0.50428 -0.32079,-0.52655 2.92587,-0.31892 1.47511,0.90209 2.31497,0.1355 -0.1872,0.319 -0.35754,0.64772 -0.5272,0.97639 -1.1064,2.34156 -1.81204,4.82709 -2.63886,7.27621 -1.01747,2.9022 -1.93513,5.83896 -2.65024,8.83176 -0.3711,2.05694 -3.28007,1.53211 -2.90895,-0.52482 z"
         id="path17701"
         style="fill:#000000;fill-opacity:1;fill-rule:nonzero;stroke:none" />
    </g>
    <g
       id="g17707"
       transform="translate(189.17906,276.87143)">
      <path
         style="fill:#000000;fill-opacity:1;fill-rule:nonzero;stroke:none"
         id="path17709"
         d="m 398.33642,336.58539 c 0.625,-5.86101 0.48117,-11.77319 0.38068,-17.65658 -0.16471,-9.05074 -0.10253,-18.1004 -0.0642,-27.15182 0.009,-2.09013 2.96476,-2.07761 2.9559,0.0125 l 0,0 c -0.0383,9.03045 -0.10081,18.05914 0.0638,27.08891 0.10674,6.27624 0.39685,12.67907 -0.6274,18.89017 -0.83666,1.9154 -3.54545,0.73219 -2.70878,-1.18321 z"
         inkscape:connector-curvature="0" />
      <path
         style="fill:#000000;fill-opacity:1;fill-rule:nonzero;stroke:none"
         id="path17711"
         d="m 392.38,304.9499 c 0.73509,-3.14838 1.7025,-6.23415 2.76939,-9.28392 0.84582,-2.5507 1.61013,-5.12248 2.75454,-7.55881 0.29831,-0.58359 0.58,-1.18741 1.00332,-1.69324 1.91718,-1.55336 3.19461,1.63558 3.62598,2.74823 1.22744,2.77499 2.11577,5.67903 3.17523,8.51989 1.09738,2.04333 1.19337,4.79648 2.32951,6.78827 0.0539,0.0655 0.10777,0.13101 0.16173,0.1965 1.21288,1.70227 -1.19449,3.41752 -2.40735,1.71526 l 0,0 c -0.13256,-0.19616 -0.26505,-0.39232 -0.39757,-0.58849 -1.06247,-2.25607 -1.45507,-4.78952 -2.45592,-7.07872 -1.05747,-2.83585 -1.94476,-5.73416 -3.16945,-8.50448 -0.18848,-0.51309 -0.37722,-0.96241 -0.65834,-1.42898 -0.10608,-0.17604 -0.52511,-0.50428 -0.32079,-0.52655 2.92587,-0.31892 1.47511,0.90209 2.31497,0.1355 -0.1872,0.319 -0.35754,0.64772 -0.5272,0.97639 -1.1064,2.34156 -1.81204,4.82709 -2.63886,7.27621 -1.01747,2.9022 -1.93513,5.83896 -2.65024,8.83176 -0.3711,2.05694 -3.28007,1.53211 -2.90895,-0.52482 z"
         inkscape:connector-curvature="0" />
    </g>
    <g
       transform="matrix(0.00791066,0.99996871,-0.99996871,0.00791066,636.71854,152.84187)"
       id="g17713">
      <path
         style="fill:#000000;fill-opacity:1;fill-rule:nonzero;stroke:none"
         id="path17715"
         d="m 398.33642,336.58539 c 0.625,-5.86101 0.48117,-11.77319 0.38068,-17.65658 -0.16471,-9.05074 -0.10253,-18.1004 -0.0642,-27.15182 0.009,-2.09013 2.96476,-2.07761 2.9559,0.0125 l 0,0 c -0.0383,9.03045 -0.10081,18.05914 0.0638,27.08891 0.10674,6.27624 0.39685,12.67907 -0.6274,18.89017 -0.83666,1.9154 -3.54545,0.73219 -2.70878,-1.18321 z"
         inkscape:connector-curvature="0" />
      <path
         style="fill:#000000;fill-opacity:1;fill-rule:nonzero;stroke:none"
         id="path17717"
         d="m 392.38,304.9499 c 0.73509,-3.14838 1.7025,-6.23415 2.76939,-9.28392 0.84582,-2.5507 1.61013,-5.12248 2.75454,-7.55881 0.29831,-0.58359 0.58,-1.18741 1.00332,-1.69324 1.91718,-1.55336 3.19461,1.63558 3.62598,2.74823 1.22744,2.77499 2.11577,5.67903 3.17523,8.51989 1.09738,2.04333 1.19337,4.79648 2.32951,6.78827 0.0539,0.0655 0.10777,0.13101 0.16173,0.1965 1.21288,1.70227 -1.19449,3.41752 -2.40735,1.71526 l 0,0 c -0.13256,-0.19616 -0.26505,-0.39232 -0.39757,-0.58849 -1.06247,-2.25607 -1.45507,-4.78952 -2.45592,-7.07872 -1.05747,-2.83585 -1.94476,-5.73416 -3.16945,-8.50448 -0.18848,-0.51309 -0.37722,-0.96241 -0.65834,-1.42898 -0.10608,-0.17604 -0.52511,-0.50428 -0.32079,-0.52655 2.92587,-0.31892 1.47511,0.90209 2.31497,0.1355 -0.1872,0.319 -0.35754,0.64772 -0.5272,0.97639 -1.1064,2.34156 -1.81204,4.82709 -2.63886,7.27621 -1.01747,2.9022 -1.93513,5.83896 -2.65024,8.83176 -0.3711,2.05694 -3.28007,1.53211 -2.90895,-0.52482 z"
         inkscape:connector-curvature="0" />
    </g>
    <path
       style="fill:#000000;fill-opacity:1;fill-rule:nonzero;stroke:none"
       id="path17721"
       d="m 481.12391,524.94285 c 2.66031,-2.20226 4.659,-5.08563 6.75493,-7.80262 3.20653,-4.29757 5.88526,-8.9217 8.43767,-13.62463 1.35687,-2.35798 2.33576,-4.93082 3.68241,-7.28796 0.38607,-0.66515 0.76973,-1.33174 1.14548,-2.00279 0.15903,-0.74833 0.30615,2.29011 -0.17138,0.49286 -0.0452,-0.39261 -0.0141,-0.78658 0.0708,-1.17101 0.32985,0.58699 0.6597,1.17397 0.98955,1.76096 0.11375,0.0166 0.37565,-0.0598 0.34125,0.0498 -0.002,0.007 -2.21352,0.61588 -2.48242,0.70115 -1.33689,0.31705 -2.57777,0.86005 -3.7782,1.51562 -0.18551,0.10842 -0.37133,0.21645 -0.55335,0.33064 -0.21969,-0.86342 -0.43938,-1.72685 -0.65906,-2.59027 -0.0772,-0.0109 -0.28924,0.0197 -0.2316,-0.0328 0.42907,-0.39078 1.47619,-0.48376 2.01163,-0.7006 1.39864,-0.53527 2.72914,-1.21753 4.13069,-1.75176 0.72994,-0.29563 1.51215,-0.42519 2.29346,-0.48601 1.06128,-0.0759 0.87681,0.27087 1.92311,1.42804 0.62882,1.76492 0.62786,3.65753 0.91306,5.48938 0.31704,1.77293 0.62329,3.54713 0.87926,5.33002 0.29694,2.06896 -2.62901,2.48888 -2.92594,0.41993 l 0,0 c -0.25456,-1.77446 -0.56162,-3.53978 -0.8755,-5.30457 -0.25488,-1.70323 -0.26225,-3.46155 -0.82748,-5.10342 0.25498,0.16162 1.51423,0.77491 1.13345,0.68834 -0.49771,0.0344 -0.99939,0.106 -1.4619,0.30086 -1.39463,0.53 -2.71404,1.21818 -4.10894,1.74339 -0.28622,0.10873 -2.81214,1.15242 -2.9946,0.93172 -0.6034,-0.72982 -0.74452,-1.74145 -1.11678,-2.61217 0.3258,-0.26433 0.69356,-0.46952 1.05701,-0.67681 1.37326,-0.7458 2.79827,-1.37095 4.32156,-1.7445 0.29472,-0.0888 3.30061,-0.95928 3.46104,-0.84755 0.63698,0.4436 0.95984,1.22018 1.43976,1.83027 -0.01,0.0148 -0.021,0.0599 -0.0295,0.0443 -0.39315,-0.95014 0.2354,0.96733 -0.16994,1.40836 -0.38528,0.68796 -0.77851,1.37145 -1.17443,2.05333 -1.39264,2.2817 -2.23238,4.91678 -3.63457,7.20317 -2.62759,4.84134 -5.39228,9.59813 -8.6953,14.02028 -2.17252,2.81542 -4.25416,5.79937 -7.00511,8.08713 -1.47796,1.47796 -3.56811,-0.6122 -2.09015,-2.09016 z"
       inkscape:connector-curvature="0" />
    <path
       style="fill:#000000;fill-opacity:1;fill-rule:nonzero;stroke:none"
       id="path17723"
       d="m 498.11154,447.92856 c 2.81737,3.42819 5.2733,7.10152 7.5216,10.92063 2.30776,3.94872 4.13411,8.16467 5.39995,12.5572 0.45891,1.6561 0.78223,3.34537 0.87365,5.06217 0.0575,1.73867 -0.13465,-0.44965 -0.98564,-0.8238 0.0589,-0.002 0.11759,-0.009 0.17628,-0.015 0.0737,2.86075 0.61665,3.36827 -1.5504,2.52718 -1.49921,-0.66796 -2.85772,-1.58053 -4.26151,-2.41752 -0.98984,-0.6769 -1.90193,-1.46503 -2.71444,-2.34646 -1.28961,-1.01543 0.79757,-3.34663 2.36186,-1.93005 0.88972,0.85632 1.77006,1.75584 2.84419,2.38015 0.88989,0.66243 1.85633,1.21336 2.84165,1.71957 0.338,0.1876 0.59271,0.1959 -0.20748,0.0466 0.0744,-0.003 0.2934,-0.0337 0.22329,-0.009 -1.36945,0.49166 -0.96468,0.59204 -0.8397,-0.81565 0.24068,-1.41274 0.69303,-2.77874 0.93789,-4.19054 0.0727,-0.88972 0.48114,-1.66225 0.92385,-2.41406 1.09617,-1.77965 3.61298,-0.22943 2.5168,1.55022 l 0,0 c -0.28967,0.42743 -0.50513,0.85411 -0.53039,1.38141 -0.24082,1.32934 -0.61523,2.62792 -0.90491,3.94657 -0.12861,1.33653 -0.28193,3.43948 -2.10617,3.49831 -0.5681,-0.0579 -0.89621,-0.0867 -1.36566,-0.36588 -1.04796,-0.54 -2.08142,-1.12077 -3.02911,-1.82482 -1.22363,-0.76873 -2.30898,-1.72369 -3.32695,-2.74776 -0.8504,-0.87155 1.75153,-2.59214 1.83931,-2.22339 0.61535,0.67607 1.31529,1.27264 2.05477,1.80852 1.25902,0.75695 2.47952,1.5767 3.81508,2.19886 0.23328,0.0911 4.64717,1.92774 0.96801,3.14239 -0.26754,0.0387 -0.53703,0.063 -0.8079,0.0525 -1.03081,-0.0768 -1.90364,-0.8652 -1.82475,-1.97715 -0.0729,-1.49274 -0.37019,-2.95853 -0.76294,-4.39867 -1.18632,-4.15633 -2.93094,-8.13801 -5.10639,-11.87348 -2.1203,-3.60688 -4.43907,-7.0661 -7.064,-10.32927 -1.47796,-1.47797 0.6122,-3.56812 2.09016,-2.09016 z"
       inkscape:connector-curvature="0" />
    <path
       style="fill:#000000;fill-opacity:1;fill-rule:nonzero;stroke:none"
       id="path17725"
       d="m 560.82954,477.64846 c -2.76846,1.13655 -5.56602,2.19306 -8.35684,3.27524 -4.11149,1.67601 -8.17023,3.47767 -12.25338,5.22081 -2.84783,1.30598 -5.72342,2.55111 -8.61733,3.75132 -1.83964,0.74656 -0.98715,0.75511 -2.05958,-2.37317 -0.13375,0.14762 0.12916,-0.0912 0.11017,-0.0548 -0.74097,1.41901 -0.76446,2.25701 -0.98114,0.99377 -0.12133,-0.70733 -0.0455,-0.73425 0.0577,-1.54627 0.43175,-1.24765 0.56082,-2.56564 0.94337,-3.82203 0.28872,-0.73313 0.67067,-1.43055 1.19104,-2.02438 0.88655,-0.89507 1.3072,-0.52804 2.69005,1.06258 0.12448,0.14319 -0.26072,1.15596 -0.34965,1.40819 -0.31071,1.23923 -0.81876,2.41446 -1.26169,3.61061 -0.1663,0.57157 -0.29871,1.15439 -0.37591,1.74495 0.0113,0.65677 -0.99405,-0.89592 -1.31089,-1.47131 -0.0821,-0.14917 0.34052,-0.006 0.51078,-0.009 1.8666,-0.0517 3.62969,0.65213 5.36822,1.24153 1.08824,0.31982 2.07942,0.87971 3.02985,1.48607 1.75996,1.1275 0.16542,3.61647 -1.59454,2.48896 l 0,0 c -0.74716,-0.48122 -1.52202,-0.93448 -2.38448,-1.17564 -1.41562,-0.48004 -2.85591,-1.10584 -4.37266,-1.08536 -1.02038,0.0129 -2.43705,-0.77419 -2.17602,-1.86754 0.10969,-0.80623 0.28636,-1.60349 0.53369,-2.37893 0.43864,-1.18441 0.94213,-2.34349 1.24743,-3.57126 0.52872,-1.48356 1.58506,1.64911 2.64165,0.49522 -0.23661,0.29671 -0.43542,0.62123 -0.58082,0.97483 -0.42946,1.08401 -0.35589,2.34635 -0.84227,3.42748 -0.38703,0.72871 0.44435,2.55831 -0.76926,2.7151 -1.50856,-2.9505 -2.14165,-2.28002 -0.39741,-2.99977 2.88457,-1.19618 5.75035,-2.43828 8.58918,-3.73947 4.11369,-1.7559 8.20236,-3.57185 12.34538,-5.25827 2.70477,-1.04842 5.4163,-2.07402 8.10341,-3.16305 1.86949,-0.93474 3.19141,1.70912 1.32192,2.64386 z"
       inkscape:connector-curvature="0" />
    <path
       style="fill:#000000;fill-opacity:1;fill-rule:nonzero;stroke:none"
       id="path17727"
       d="m 449.95491,523.54099 c 0.25219,-1.00879 0.50439,-2.01758 0.75659,-3.02638 0.0391,-0.15652 0.0783,-0.31305 0.1174,-0.46958 -0.0146,0.0778 0.0178,0.28333 -0.0437,0.23343 -0.0697,-0.0566 -4.4e-4,-0.1796 -6.3e-4,-0.2694 -0.003,-1.33596 -0.13244,-2.61319 -0.27622,-3.94412 -0.5532,-4.8572 -1.06131,-9.71164 -1.36291,-14.59262 -0.25075,-4.49448 -0.3139,-8.99619 -0.34307,-13.49662 -0.009,-2.06813 -0.008,-4.13629 -3.4e-4,-6.20441 10e-4,-0.28161 0.002,-0.56323 0.006,-0.84482 0.87013,0.33615 1.77063,0.60234 2.61038,1.00846 0.0351,0.017 -0.28373,0.48467 -0.43986,0.76093 -0.3753,0.66407 -0.71977,1.33021 -1.02035,2.0315 -1.03323,2.17287 -1.74805,4.48922 -2.3835,6.80634 -0.31486,1.34159 -0.57247,2.69845 -0.73469,4.06734 -0.005,0.0548 0.0388,0.16702 -0.0162,0.16441 -4.01844,-0.19075 -3.12064,-0.0673 -2.4763,-3.18399 0.35352,-1.99685 0.93672,-3.94799 1.54954,-5.87892 0.44903,-1.25928 0.73026,-2.56146 0.89234,-3.88552 0.0314,-0.18417 0.0557,-0.65899 0.0607,-0.76931 1.32882,-1.35915 1.67821,-2.07303 3.38481,-1.01407 1.35576,1.07253 2.57317,2.26464 3.6706,3.59932 1.37006,1.6774 2.55477,3.49884 3.76757,5.29157 0.20451,0.30253 0.40763,0.606 0.61003,0.90995 1.15845,1.73975 -1.30192,3.37805 -2.46038,1.63831 l 0,0 c -0.19838,-0.29795 -0.39749,-0.59542 -0.59796,-0.89198 -1.16217,-1.71795 -2.29468,-3.46551 -3.60558,-5.0743 -0.90553,-1.10932 -1.89875,-2.07297 -2.99497,-2.99433 -0.19807,-0.15075 -0.17793,-0.10519 0.27102,-0.0498 0.10927,0.0135 -0.38955,0.0873 -0.33024,-0.006 0.3678,-0.57527 0.79542,-1.1113 1.22924,-1.63857 0.0281,-0.0341 0.007,0.0881 0.0102,0.13215 0.008,0.41106 -0.0396,0.82081 -0.0814,1.22904 -0.18725,1.50382 -0.50342,2.98521 -1.00853,4.41726 -0.58222,1.8345 -1.14284,3.68623 -1.47255,5.58459 -0.54041,2.60185 0.16359,2.40711 -3.35939,2.2902 -0.0739,-0.002 0.0149,-0.14706 0.0223,-0.22058 0.18175,-1.51525 0.4637,-3.01796 0.81987,-4.50168 0.6778,-2.45411 1.43586,-4.90832 2.52783,-7.21234 0.0824,-0.18382 1.59843,-3.18331 1.66548,-3.17862 0.96942,0.0679 1.89673,0.42417 2.84509,0.63625 -0.003,0.2505 -0.004,0.53134 -0.005,0.78798 -0.008,2.05801 -0.009,4.11605 2.9e-4,6.17405 0.0288,4.44608 0.0905,8.89344 0.33752,13.33368 0.29808,4.83581 0.80306,9.64504 1.35142,14.45725 0.17963,1.6631 0.41586,3.34039 0.24937,5.01446 -0.0391,0.15652 -0.0783,0.31305 -0.11739,0.46958 -0.2522,1.00879 -0.5044,2.01759 -0.7566,3.02638 -0.50693,2.02774 -3.3746,1.31083 -2.86766,-0.71692 z"
       inkscape:connector-curvature="0" />
    <path
       style="fill:#000000;fill-opacity:1;fill-rule:nonzero;stroke:none"
       id="path17729"
       d="m 440.01953,434.51837 c 1.31298,3.04059 1.83266,6.34166 2.25088,9.60353 0.45877,4.79021 1.00002,9.56971 1.3358,14.37115 0.12651,2.11026 0.23546,4.22223 0.28233,6.33595 0.37653,1.46888 -2.49983,1.78476 -3.10794,0.55131 -0.64356,-0.78205 -1.39785,-1.50464 -2.08635,-2.26412 -0.62191,-0.77049 -1.2429,-1.54091 -1.88525,-2.29471 -0.14082,-0.16482 -0.2826,-0.32881 -0.42691,-0.49057 3.57428,-1.01532 2.14087,-0.98653 3.39351,1.30694 0.72791,1.39408 1.63051,2.69065 2.44717,4.03626 0.17233,0.28741 0.34688,0.57361 0.51046,0.86612 -1.17329,-0.82098 -1.82173,-0.74322 -0.64774,-0.78452 0.62899,-0.70523 -0.78476,0.32986 -0.65929,0.14322 0.45154,-0.67167 1.11348,-1.3356 1.62293,-1.96841 1.00671,-1.34546 1.85828,-2.77319 2.44731,-4.34695 0.73931,-1.95503 3.50414,-0.90949 2.76483,1.04555 l 0,0 c -0.70987,1.86182 -1.70405,3.56844 -2.91038,5.15596 -0.91392,1.13332 -1.69196,2.5082 -3.1615,2.92473 -0.783,0.0275 -1.60477,-0.18239 -2.0529,-0.75734 -0.14295,-0.25055 -0.29179,-0.49778 -0.44073,-0.74483 -0.84601,-1.39422 -1.77905,-2.73962 -2.53192,-4.18552 -0.14174,-0.27313 -1.43385,-3.06507 -1.17101,-3.31122 0.70676,-0.66186 1.69518,-0.9363 2.54277,-1.40445 0.009,0.01 0.0188,0.0201 0.0282,0.0301 0.16727,0.18733 0.33248,0.37647 0.49512,0.56786 0.62624,0.73506 1.23587,1.48316 1.83661,2.23903 0.85503,0.96978 1.8339,1.83241 2.53692,2.93112 0.61337,1.24751 -2.84174,2.15837 -2.49915,0.81971 -0.0455,-2.06676 -0.1529,-4.13178 -0.27585,-6.19518 -0.3313,-4.74551 -0.86789,-9.46912 -1.3193,-14.20365 -0.37125,-2.93458 -0.82368,-5.90436 -1.96251,-8.65514 -0.93475,-1.86949 1.70911,-3.19142 2.64386,-1.32193 z"
       inkscape:connector-curvature="0" />
    <path
       style="fill:#000000;fill-opacity:1;fill-rule:nonzero;stroke:none"
       id="path17731"
       d="m 394.70485,437.96327 c 0.68658,4.39172 1.30043,8.79536 2.04268,13.17858 0.75928,4.17881 1.32367,8.38778 1.66598,12.62065 0.0709,1.13402 0.16288,2.26935 0.16259,3.40645 -0.46624,4.00616 -3.05584,0.44579 -3.58933,-0.28783 -0.90659,-1.25258 -1.93082,-2.41375 -2.97695,-3.55023 -0.7468,-0.85854 -1.44833,-1.73536 -2.29756,-2.4988 -1.3192,-0.61176 1.98408,-1.93273 1.92923,-0.70927 0.003,0.77516 0.51264,1.5452 0.85633,2.25869 0.83918,1.52426 2.3159,2.60328 3.64677,3.68283 0.9855,0.94419 1.95767,1.87999 3.12117,2.60171 0.80314,0.46422 1.12416,0.27966 -1.67975,0.8667 -0.0923,0.0193 0.007,-0.18847 0.009,-0.28274 0.005,-0.17897 0.008,-0.35796 0.0126,-0.53695 -0.0238,-1.76987 0.67479,-3.43789 1.38713,-5.02376 0.55787,-1.6049 1.40766,-3.06983 2.11863,-4.60539 0.16689,-0.38308 0.3415,-0.76446 0.47618,-1.16047 -0.003,0.008 -0.005,0.0154 -0.008,0.0231 0.44902,-0.35981 0.89804,-0.71961 1.34706,-1.07941 2.07162,-0.27768 2.46432,2.65204 0.39269,2.92972 l 0,0 c 0.36831,-0.34898 0.73661,-0.69797 1.10491,-1.04695 -0.009,0.0305 -0.018,0.0609 -0.0271,0.0914 -0.1688,0.50815 -0.38961,0.99738 -0.60477,1.48701 -0.71058,1.52767 -1.55737,2.98256 -2.10824,4.58276 -0.56126,1.22023 -1.1463,2.51595 -1.12389,3.8823 -0.0534,1.77527 -0.71028,3.72533 -2.86366,2.37914 -1.2613,-0.79292 -2.36679,-1.76755 -3.42145,-2.81662 -1.66724,-1.36364 -3.4519,-2.73486 -4.44402,-4.69433 -0.55955,-1.16819 -1.21869,-2.36175 -1.14337,-3.70206 0.0858,-1.39269 2.11334,-2.50576 3.00264,-1.32182 0.91362,0.82712 1.69333,1.76064 2.49258,2.69199 1.12661,1.22551 2.2285,2.4783 3.20398,3.82936 1.15355,1.646 1.12104,1.04017 -1.7691,2.00501 0.004,-1.05607 -0.0927,-2.11056 -0.15302,-3.16385 -0.33386,-4.14749 -0.89043,-8.27093 -1.63414,-12.36528 -0.7361,-4.35445 -1.35107,-8.72839 -2.02669,-13.09198 -0.40991,-2.04956 2.48861,-2.62926 2.89852,-0.5797 z"
       inkscape:connector-curvature="0" />
    <path
       style="fill:#000000;fill-opacity:1;fill-rule:nonzero;stroke:none"
       id="path17735"
       d="m 509.11022,417.38571 c -2.40413,2.06566 -4.97743,3.92286 -7.51789,5.81509 -2.59255,1.9032 -5.39437,3.48952 -8.04469,5.30814 -1.00662,0.6079 -1.82612,1.39668 -2.59683,2.25269 -0.39602,0.40738 -0.8133,0.79579 -1.26549,1.14037 -2.6213,1.59034 -2.49084,-1.76493 -2.30817,-2.88909 0.33091,-1.88559 0.95923,-3.68124 1.73384,-5.4258 0.44634,-0.87358 0.79502,-1.79472 1.0688,-2.73597 0.18113,-0.67123 0.0974,-0.0158 2.95748,0.5058 -0.0376,1.53038 -0.55877,2.99645 -1.08914,4.41424 -0.44551,1.05515 -0.70259,2.16539 -0.81525,3.30138 -0.0445,0.52169 -0.0673,1.04495 -0.0681,1.56844 0.11293,-0.26138 -2.19897,-1.32156 -0.93101,-1.34473 1.5591,0.10359 3.07022,-0.15008 4.5965,-0.43046 0.77002,-0.15204 1.54152,-0.30059 2.30402,-0.48769 0.0184,-0.005 0.0367,-0.01 0.0551,-0.0144 2.02323,-0.52468 2.76525,2.33659 0.74202,2.86128 l 0,0 c -0.0316,0.008 -0.0631,0.0163 -0.0947,0.0244 -0.81881,0.19986 -1.6463,0.36232 -2.47331,0.52389 -1.68192,0.30793 -3.36088,0.57727 -5.07756,0.47848 -0.91529,0.0154 -2.15189,-0.61235 -2.07695,-1.59121 -0.003,-0.6321 0.0314,-1.26398 0.0838,-1.89374 0.14888,-1.3837 0.44764,-2.74239 0.98677,-4.03127 0.42751,-1.14278 0.88934,-2.31997 0.90698,-3.55396 2.91074,-0.21932 3.23944,-1.05146 2.83016,0.49984 -0.3138,1.06727 -0.70295,2.11494 -1.2056,3.10855 -0.6872,1.53694 -1.24425,3.11633 -1.53115,4.78074 -0.72655,2.69329 1.68579,-2.30579 -2.37706,-0.0268 0.30805,-0.23818 0.59536,-0.502 0.86863,-0.77936 0.94725,-1.00301 1.90108,-1.97409 3.10413,-2.69324 2.61946,-1.79597 5.38322,-3.36978 7.95095,-5.24112 2.42624,-1.80714 4.87752,-3.5862 7.19345,-5.53464 1.47796,-1.47796 3.56811,0.61219 2.09015,2.09015 z"
       inkscape:connector-curvature="0" />
    <path
       style="fill:#000000;fill-opacity:1;fill-rule:nonzero;stroke:none"
       id="path17737"
       d="m 476.55821,464.42253 c 0.51284,-2.38945 0.60498,-4.84699 0.71396,-7.28119 0.0948,-2.42296 0.10975,-4.84794 0.11591,-7.27243 0.002,-1.12866 -0.002,-2.25731 -0.004,-3.38597 -10e-4,-0.45207 -0.002,-0.90415 -0.002,-1.35622 -9e-5,-0.18219 -9e-5,-0.36437 -7e-5,-0.54655 -0.0104,-0.88077 1.79754,1.2879 1.97597,1.41946 -1.02538,0.53472 -1.6921,1.48404 -2.44109,2.3367 -0.57999,0.65965 -1.16034,1.31898 -1.74137,1.97772 -0.77734,0.8825 -0.12953,0.19875 -2.73807,-1.06334 0.23414,-1.37629 1.17682,-2.37639 2.07854,-3.37515 0.7276,-0.79099 1.49096,-1.54809 2.2518,-2.30685 0.47538,-0.72883 1.14325,-1.32511 1.8062,-1.88318 0.98811,-0.81383 0.72351,-0.32202 2.71014,0.45057 0.51837,0.88239 0.75172,1.86074 0.90258,2.86195 0.39746,1.15661 0.71142,2.32864 1.1278,3.48015 0.43662,0.94028 0.21005,0.43701 0.67483,1.512 0.82887,1.91878 -1.8847,3.09097 -2.71357,1.17219 l 0,0 c -0.47193,-1.09356 -0.22537,-0.53364 -0.74107,-1.67913 -0.48288,-1.33571 -0.86511,-2.6925 -1.27213,-4.05291 -0.0981,-0.68126 -0.23058,-1.33553 -0.6005,-1.92959 1.27753,0.24013 2.44438,-0.004 1.81174,0.44932 -0.60504,0.50522 -1.17518,1.05511 -1.61874,1.71166 -0.72476,0.72276 -1.45225,1.44358 -2.14635,2.19609 -0.34643,0.38264 -0.68604,0.76321 -1.0016,1.17179 -0.10409,0.13477 -0.11753,0.38721 -0.28359,0.42492 -0.053,0.012 -0.0203,-0.10684 -0.0305,-0.16026 -2.7016,-0.80202 -3.1646,-0.10556 -2.43434,-0.93555 0.5797,-0.65722 1.15873,-1.31505 1.73739,-1.9732 0.84279,-0.95943 1.63948,-2.05003 2.77948,-2.66495 0.98294,-0.75085 1.48904,-0.41865 2.86235,0.86043 -2e-5,0.18146 -1e-5,0.36291 7e-5,0.54437 2e-4,0.45007 6.8e-4,0.90015 0.002,1.35022 0.003,1.13361 0.006,2.26722 0.004,3.40083 -0.006,2.46619 -0.0219,4.93289 -0.11888,7.3975 -0.11846,2.63097 -0.22663,5.28624 -0.79923,7.86552 -0.50694,2.02775 -3.3746,1.31083 -2.86767,-0.71692 z"
       inkscape:connector-curvature="0" />
    <path
       style="fill:#000000;fill-opacity:1;fill-rule:nonzero;stroke:none"
       id="path17739"
       d="m 447.47674,412.93023 c 3.11356,1.81764 5.93105,4.0682 8.86042,6.15338 2.63053,1.99436 5.32364,3.93436 7.52061,6.41754 0.67566,0.38949 0.7457,1.64836 1.45758,1.92041 0.61924,0.47044 0.97089,1.10718 1.17097,1.83968 0.55112,1.54102 -2.44194,2.05613 -3.11383,0.19501 -0.51359,-1.38525 -1.23927,-2.67539 -1.77585,-4.05477 -0.5695,-1.11989 -1.09533,-2.2616 -1.61339,-3.40604 -0.27089,-0.55619 -0.33424,-1.1793 -0.35268,-1.78913 -0.01,-1.33922 0.34091,-0.5842 2.74007,-1.13171 0.77434,0.85854 1.48225,1.7918 2.15703,2.73553 0.44747,0.82118 0.73345,1.68397 1.232,2.47568 0.41353,0.58638 0.60454,1.2899 0.7367,1.98567 0.19901,1.15628 -0.18303,0.80967 -1.61284,2.04017 1.41076,-0.44512 -0.24078,0.5112 -0.61643,0.6799 -1.32353,0.37395 -2.73415,0.29216 -4.09805,0.30139 -1.77958,0.005 -3.55918,0.001 -5.33876,-10e-4 -0.46707,-7.3e-4 -0.93415,-0.002 -1.40123,-0.002 -2.09015,-0.004 -2.08427,-2.96007 0.006,-2.95591 l 0,0 c 0.4666,9.3e-4 0.9332,0.002 1.3998,0.002 1.77148,0.003 3.54297,0.007 5.31445,0.001 0.97373,-0.006 1.97512,-0.0265 2.93538,-0.0546 0.44398,-0.17949 -0.13419,0.30088 0.0793,0.0836 0.50951,-0.51856 0.8102,-0.89124 1.62,-1.00868 -0.19948,0.2384 -1.17733,1.88915 -1.19378,1.45342 -0.0605,-0.34161 -0.1157,-0.68248 -0.33604,-0.95683 -0.461,-0.74004 -0.83255,-1.51105 -1.13352,-2.32833 -0.55723,-0.785 -1.14348,-1.5595 -1.76268,-2.28633 0.74642,-0.36228 2.37169,-1.92752 2.22765,-1.11042 0.009,0.25673 -0.015,0.45598 0.0907,0.64762 0.5414,1.19622 1.09978,2.38473 1.6791,3.5631 0.53362,1.40497 1.30321,2.70244 1.80051,4.1212 0.54718,1.54931 -2.82423,0.18284 -2.53056,1.54306 -0.0451,-0.17685 -0.092,-0.23376 0.1838,-0.039 -0.99147,-0.62604 -1.51494,-1.58139 -2.17662,-2.51818 -2.01196,-2.33779 -4.59846,-4.06756 -7.0108,-5.95595 -2.803,-2.00004 -5.50554,-4.14453 -8.46678,-5.91665 -1.86949,-0.93475 -0.54756,-3.57861 1.32193,-2.64386 z"
       inkscape:connector-curvature="0" />
    <path
       style="fill:#000000;fill-opacity:1;fill-rule:nonzero;stroke:none"
       id="path17741"
       d="m 367.66682,627.72728 c 1.68253,0.80574 3.43914,1.13484 5.28692,1.07708 1.27415,-0.21275 2.22664,-0.50423 2.56986,-1.80406 0.28353,-1.52098 0.71067,-3.25683 -0.23875,-4.61504 -0.96545,-1.21813 -2.43614,-1.55687 -3.89122,-1.11263 -2.70998,1.1772 -3.46282,4.3248 -4.21093,6.92356 -0.68607,3.7574 -0.2653,7.11205 1.85148,10.30679 1.82188,1.87152 3.57909,2.34317 5.99627,1.40428 1.04665,-0.46996 1.87275,-1.26074 2.74584,-1.9815 1.61275,-1.32958 3.49306,0.95118 1.88032,2.28076 l 0,0 c -1.14261,0.94085 -2.25222,1.93205 -3.64912,2.49052 -3.99265,1.30562 -6.61703,0.52043 -9.45936,-2.59498 -2.58478,-4.11013 -3.11335,-7.96111 -2.20321,-12.7332 1.09306,-3.70828 2.42288,-7.6307 6.42413,-8.98541 2.94323,-0.51827 5.25225,0.0177 7.08085,2.53279 1.19581,2.28055 1.1298,4.65368 0.44614,7.10927 -1.06371,2.56421 -2.56665,3.37419 -5.26754,3.73383 -2.33288,0.0481 -4.56727,-0.36249 -6.68361,-1.3882 -1.86949,-0.93474 -0.54756,-3.5786 1.32193,-2.64386 z"
       inkscape:connector-curvature="0" />
    <path
       style="fill:#000000;fill-opacity:1;fill-rule:nonzero;stroke:none"
       id="path17743"
       d="m 399.15047,621.07813 c -1.78094,2.85786 -3.91331,5.46909 -5.66948,8.34232 -1.62564,2.89389 -3.08088,5.88948 -4.16587,9.02876 -0.24102,0.76886 -0.49683,1.53785 -0.65261,2.32993 -0.4129,2.04897 -3.31057,1.46503 -2.89767,-0.58393 l 0,0 c 0.1884,-0.92101 0.46676,-1.82067 0.7573,-2.71383 1.15997,-3.33943 2.69897,-6.53228 4.43965,-9.60726 1.72195,-2.79458 3.74861,-5.37186 5.54482,-8.11792 0.93475,-1.86949 3.57861,-0.54756 2.64386,1.32193 z"
       inkscape:connector-curvature="0" />
    <path
       style="fill:#000000;fill-opacity:1;fill-rule:nonzero;stroke:none"
       id="path17745"
       d="m 388.62454,620.23953 c 2.18527,2.61951 4.07988,5.46605 5.99858,8.2827 1.74107,2.53203 2.80309,5.45114 4.47839,8.01355 1.8844,2.59933 0.0506,-0.91281 -1.49198,1.3296 0.43397,-2.0446 3.32548,-1.43088 2.89151,0.61372 l 0,0 c -0.99284,2.75286 -3.02048,1.17058 -3.87811,-0.33269 -1.65194,-2.55517 -2.75471,-5.41962 -4.44278,-7.96003 -1.81557,-2.66528 -3.61374,-5.34951 -5.64577,-7.85669 -1.47796,-1.47796 0.61219,-3.56812 2.09016,-2.09016 z"
       inkscape:connector-curvature="0" />
    <path
       style="fill:#000000;fill-opacity:1;fill-rule:nonzero;stroke:none"
       id="path17747"
       d="m 408.48372,609.22032 c 0.65699,3.5626 0.70018,7.20903 0.80016,10.82043 0.10165,4.82546 0.11194,9.65219 0.11796,14.47852 8.4e-4,1.92783 6.6e-4,3.85567 -0.004,5.78349 0.13902,1.25766 -2.95596,0.93397 -2.95776,-0.30954 -0.003,-2.09015 2.95291,-2.09441 2.95592,-0.004 l 0,0 c 0.002,1.24016 -3.10243,1.55944 -2.95407,0.30604 0.005,-1.92401 0.005,-3.84803 0.004,-5.77204 -0.006,-4.80035 -0.0161,-9.6011 -0.11683,-14.40058 -0.0937,-3.39853 -0.13478,-6.82679 -0.71303,-10.18514 -0.50694,-2.02775 2.36073,-2.74467 2.86766,-0.71692 z"
       inkscape:connector-curvature="0" />
    <path
       style="fill:#000000;fill-opacity:1;fill-rule:nonzero;stroke:none"
       id="path17749"
       d="m 401.60948,624.37961 c 1.97838,0 3.95675,0 5.93512,0 1.93925,0 3.87849,0 5.81774,0 0.66294,0 1.32589,0 1.98883,0 2.09016,0 2.09016,2.95592 0,2.95592 l 0,0 c -0.66294,0 -1.32589,0 -1.98883,0 -1.93925,0 -3.87849,0 -5.81774,0 -1.97837,0 -3.95674,0 -5.93512,0 -2.09015,0 -2.09015,-2.95592 0,-2.95592 z"
       inkscape:connector-curvature="0" />
    <path
       style="fill:#000000;fill-opacity:1;fill-rule:nonzero;stroke:none"
       id="path17751"
       d="m 419.58562,629.46813 c 1.42246,0.30964 2.2747,0.68609 3.62008,0.0984 0.70292,-0.62226 0.82149,-1.7145 0.75792,-2.59859 -0.29407,-1.05976 -0.77546,-1.83205 -1.79872,-2.27231 -1.07508,-0.41873 -1.50005,-0.0104 -2.26766,0.71185 -1.1568,1.45115 -2.12743,3.05407 -2.75925,4.80014 -0.58245,2.3816 0.26105,4.15625 1.5942,6.06368 1.78322,1.90039 4.00276,3.01276 6.57321,3.32246 0.99726,0.15546 1.84114,-0.0541 2.76029,-0.39048 1.98418,-0.65709 2.91345,2.14896 0.92927,2.80605 l 0,0 c -1.35864,0.4219 -2.65287,0.74023 -4.09382,0.51257 -3.39136,-0.51055 -6.33571,-1.93508 -8.60374,-4.57451 -1.94715,-2.86311 -2.83352,-5.30888 -1.92804,-8.77522 0.83314,-2.17526 1.99834,-4.22021 3.55502,-5.96589 1.6929,-1.47321 3.44062,-2.09696 5.58589,-1.14265 1.93653,1.05809 3.08948,2.63563 3.40884,4.85398 -0.0209,2.16478 -0.55583,4.2511 -2.58152,5.37954 -1.85334,0.74363 -3.57183,0.57142 -5.46889,0.0387 -2.02774,-0.50694 -1.31083,-3.3746 0.71692,-2.86767 z"
       inkscape:connector-curvature="0" />
    <path
       style="fill:#000000;fill-opacity:1;fill-rule:nonzero;stroke:none"
       id="path17753"
       d="m 435.08703,625.97055 c 0.53676,2.61811 0.67701,5.29396 0.79918,7.95699 0.20235,1.88082 0.5499,3.74311 0.90011,5.60117 0.27305,1.46363 0.56106,1.21298 -2.75727,0.54372 -0.13624,-0.0275 0.008,-0.27785 0.01,-0.41681 0.003,-0.19053 0.003,-0.38108 0.005,-0.57162 0.0661,-2.18199 -0.0218,-4.33993 -0.28084,-6.5058 -0.47169,-3.03216 -0.26403,-5.99118 1.05599,-8.76844 1.3129,-2.26303 3.39024,-3.60927 5.93886,-4.00135 1.47671,0.048 2.44788,0.66963 3.33868,1.79038 1.24522,1.67875 -1.12888,3.43975 -2.3741,1.761 l 0,0 c -0.17526,-0.30165 -0.26484,-0.48054 -0.63102,-0.61434 -1.52708,0.0115 -2.82622,1.17053 -3.62347,2.37601 -1.16014,2.20115 -1.10213,4.68938 -0.76976,7.10713 0.27179,2.29028 0.37006,4.57411 0.30147,6.88072 -0.004,0.39591 -0.008,1.16069 -0.0213,1.16572 -3.08673,1.14445 -2.79698,1.32316 -3.09649,-0.19892 -0.37569,-1.99396 -0.74956,-3.99284 -0.94816,-6.0135 -0.11252,-2.46737 -0.23783,-4.94573 -0.71401,-7.37514 -0.50693,-2.02775 2.36073,-2.74467 2.86767,-0.71692 z"
       inkscape:connector-curvature="0" />
    <path
       style="fill:#000000;fill-opacity:1;fill-rule:nonzero;stroke:none"
       id="path17755"
       d="m 449.79291,623.60881 c 0,3.35297 0,6.70595 0,10.05892 0,2.09924 0,4.19847 0,6.29771 0,0.0672 0.0671,0.20564 0,0.20168 -0.99152,-0.0585 -2.00885,-0.0767 -2.95592,-0.376 -0.14487,-0.0458 0,-3.30656 0,-3.50804 -0.11734,-3.21475 0.53328,-6.32337 1.65438,-9.31613 0.84056,-1.83455 1.5779,-4.5256 3.62885,-5.43007 0.37653,-0.16605 0.80317,-0.17977 1.20475,-0.26965 0.49806,0.1697 1.04384,0.23699 1.49419,0.5091 1.88562,1.13933 2.98412,4.73088 3.77304,6.6731 1.21454,2.65949 1.46401,5.56838 2.01177,8.39633 0.27596,1.37024 0.56828,2.73731 0.88581,4.09855 0.0139,0.0581 0.0277,0.11616 0.0416,0.17424 0.48526,2.03304 -2.3899,2.7193 -2.87516,0.68626 l 0,0 c -0.015,-0.0631 -0.0301,-0.12612 -0.0451,-0.18918 -0.32631,-1.39956 -0.6271,-2.80504 -0.91031,-4.21394 -0.50049,-2.64013 -0.72753,-5.35526 -1.8472,-7.83984 -0.3706,-0.91236 -0.69774,-1.84323 -1.10481,-2.73991 -0.0926,-0.20397 -1.31356,-2.19393 -1.33748,-2.44649 -0.009,-0.0976 0.15989,-0.11356 0.23984,-0.17035 -0.0675,-1.19678 -2.65944,4.12062 -2.39533,3.80845 -1.01628,2.65125 -1.57015,5.4159 -1.4629,8.26953 0,0.20148 0.14487,3.46226 0,3.50804 -0.94707,0.29933 -1.9644,0.31753 -2.95592,0.376 -0.0671,0.004 0,-0.13445 0,-0.20168 0,-2.09924 0,-4.19847 0,-6.29771 0,-3.35297 0,-6.70595 0,-10.05892 0,-2.09016 2.95592,-2.09016 2.95592,0 z"
       inkscape:connector-curvature="0" />
    <path
       style="fill:#000000;fill-opacity:1;fill-rule:nonzero;stroke:none"
       id="path17757"
       d="m 473.78585,623.98786 c -1.61557,-0.7226 -2.96602,-0.75095 -4.42864,0.26081 -1.69954,1.66111 -2.30747,4.05029 -2.4406,6.35499 0.0458,1.00209 0.85002,4.03578 2.29097,3.74883 1.26951,-0.99729 1.91912,-2.51045 2.46049,-3.98879 0.84535,-2.05878 1.33097,-4.22969 1.62691,-6.4278 -0.006,-0.23332 -0.2839,-1.9288 -0.41872,-1.57322 -0.73519,-0.0505 1.69187,-1.03502 1.27073,-0.28067 -0.58636,1.63925 -0.48239,3.40519 -0.22279,5.09117 0.51383,2.87761 1.64073,5.43865 3.19889,7.87784 0.52664,0.55668 0.95724,1.31258 1.60504,1.75473 0.0493,0.0337 0.19434,-0.0963 0.13756,-0.11473 -0.11987,-0.039 -0.24947,-0.0364 -0.3742,-0.0546 -0.10961,0.0334 -0.21921,0.0668 -0.32881,0.10016 1.31185,-1.6272 3.61306,0.22804 2.3012,1.85524 l 0,0 c -0.29626,0.26492 -0.59252,0.52983 -0.88878,0.79475 -0.36863,0.0779 -0.72932,0.22112 -1.10588,0.23368 -1.73824,0.058 -2.88242,-1.84923 -3.83794,-2.97913 -1.78164,-2.79479 -3.05201,-5.75512 -3.63248,-9.04426 -0.32519,-2.36146 -0.4281,-4.87365 0.64041,-7.0796 0.84191,-1.2991 2.16295,-1.2017 3.18471,-0.3781 1.15467,1.1245 1.41531,2.62057 1.40021,4.19368 -0.32929,2.41609 -0.86481,4.80263 -1.7881,7.06813 -1.05211,2.75829 -2.58094,5.76296 -5.92357,5.82457 -0.48018,-0.16189 -0.9948,-0.2446 -1.44052,-0.48566 -2.23055,-1.20636 -2.96165,-4.04577 -3.10364,-6.34813 0.26883,-3.27207 1.20629,-6.48967 3.83332,-8.65654 2.47389,-1.4393 4.68139,-1.60463 7.30616,-0.39119 1.86949,0.93474 0.54756,3.5786 -1.32193,2.64386 z"
       inkscape:connector-curvature="0" />
    <path
       style="fill:#000000;fill-opacity:1;fill-rule:nonzero;stroke:none"
       id="path17759"
       d="m 486.24929,609.8145 c 0.01,3.71474 -0.0617,7.42833 0.11621,11.13946 0.21353,4.49977 0.59466,8.97687 1.19143,13.44111 0.0835,1.11952 0.30956,2.21414 0.68362,3.27097 0.0682,0.19279 0.40043,0.7077 0.26785,0.55198 -0.13289,-0.15611 -0.27836,-0.30106 -0.41753,-0.45159 -0.2873,-0.0332 -0.57459,-0.0664 -0.86188,-0.0996 1.91381,-0.84027 3.10214,1.86627 1.18832,2.70654 l 0,0 c -0.47084,0.0474 -0.94168,0.0948 -1.41253,0.1422 -0.32051,-0.22217 -0.67921,-0.39747 -0.96154,-0.6665 -1.06598,-1.01575 -1.12328,-3.7668 -1.4162,-5.06255 -0.60739,-4.54785 -0.99649,-9.10914 -1.21416,-13.69304 -0.17519,-3.75792 -0.11444,-7.51758 -0.11951,-11.27901 0,-2.09015 2.95592,-2.09015 2.95592,0 z"
       inkscape:connector-curvature="0" />
    <path
       style="fill:#000000;fill-opacity:1;fill-rule:nonzero;stroke:none"
       id="path17761"
       d="m 381.88638,360.6203 c 1.08538,2.59979 1.40729,5.41226 1.66307,8.19237 0.15442,1.97226 0.22159,3.94991 0.24087,5.92771 2.5e-4,0.24634 0.005,0.49258 -0.006,0.73869 -0.15474,2.08442 -3.10255,1.86559 -2.94781,-0.21883 l 0,0 c -7.5e-4,-0.16376 -10e-4,-0.32752 -10e-4,-0.49128 -0.0182,-1.89744 -0.0822,-3.79474 -0.22872,-5.68698 -0.2197,-2.416 -0.47875,-4.85986 -1.3633,-7.13975 -0.93475,-1.86949 1.70911,-3.19142 2.64386,-1.32193 z"
       inkscape:connector-curvature="0" />
    <path
       style="fill:#000000;fill-opacity:1;fill-rule:nonzero;stroke:none"
       id="path17763"
       d="m 382.792,348.59012 c 0.11563,1.6942 -0.15286,3.33951 -0.66418,4.94856 -0.48729,1.34189 -0.37947,1.34298 -3.09244,0.41404 -0.23483,-0.0804 -0.21543,-1.54949 -0.22422,-1.80889 -0.0606,-1.16447 -0.0247,-2.13483 0.79543,-3.04552 1.48469,-1.10052 2.85177,-0.0109 3.62812,1.25924 0.62918,1.06998 0.53453,1.92669 0.19548,3.05862 -1.01638,1.0998 -2.41892,1.19996 -3.64029,0.39085 -1.6744,-2.12812 0.0228,-3.46006 2.02878,-4.0316 2.02096,-0.53335 2.77522,2.32472 0.75426,2.85807 l 0,0 c -1.45841,0.31819 0.19026,-0.35226 -0.92997,-1.12943 -0.39012,-0.1402 0.0363,-0.01 -0.66544,-0.0649 -0.1184,-0.009 0.39168,-0.15082 0.35424,-0.0381 -0.0599,0.1802 -0.42586,0.14998 -0.38819,0.41691 -0.2496,1.61404 -0.0346,0.41984 -0.24994,0.0497 -0.2546,-0.45776 -0.002,-0.1425 0.89361,-0.57517 0.29934,-0.50797 -0.0972,0.222 0.19493,-0.69569 0.14709,-0.46204 -0.14935,1.92091 -0.0165,1.45456 0.006,0.22866 0.039,0.45707 0.0293,0.68561 -0.0382,0.89671 -3.33644,1.07889 -2.4817,-0.10141 0.42907,-1.32031 0.63241,-2.65176 0.52283,-4.04545 0,-2.09015 2.95593,-2.09015 2.95593,0 z"
       inkscape:connector-curvature="0" />
    <path
       style="fill:#000000;fill-opacity:1;fill-rule:nonzero;stroke:none"
       id="path17765"
       d="m 389.68915,359.42851 c -0.0496,2.59025 -0.0231,5.16067 0.2711,7.73518 0.15213,1.81028 0.6378,3.57377 1.27174,5.27046 0.49725,1.19687 0.33117,0.3392 -2.5212,0.82854 0.007,-1.94256 -0.0388,-3.87838 0.12253,-5.8152 0.17308,-2.84072 1.20539,-5.46654 2.50025,-7.96344 0.9184,-1.34861 2.0831,-3.08562 4.00515,-2.51427 0.36194,0.1076 0.6455,0.39198 0.96825,0.58796 1.67233,2.08435 2.22432,4.8118 2.69859,7.38536 0.41189,2.89022 0.93682,5.75842 1.24755,8.66341 0.13527,1.51129 0.23598,3.02622 0.28037,4.54303 0.0865,1.32295 -2.94874,1.07707 -2.95389,-0.39899 -0.007,-2.09014 2.94862,-2.10045 2.95591,-0.0103 l 0,0 c 0.004,1.28655 -2.86158,1.76549 -2.95669,0.49518 -0.0416,-1.4408 -0.13831,-2.87975 -0.26495,-4.31542 -0.30114,-2.83204 -0.8176,-5.6274 -1.21602,-8.44522 -0.34547,-1.90604 -0.83485,-3.75297 -1.56135,-5.55 0.15991,-0.27586 -0.0938,0.11234 0.50057,-0.23341 0.057,-0.0332 0.15024,-0.20747 0.0929,-0.17481 -0.50077,0.28525 -0.80072,0.92856 -1.17426,1.332 -1.12356,2.15066 -2.03766,4.40182 -2.17766,6.85605 -0.17379,1.88456 -0.085,3.77303 -0.11323,5.664 -2.75682,1.184 -2.4898,1.86683 -3.20322,0.0962 -0.71277,-1.92274 -1.25884,-3.9186 -1.43836,-5.96736 -0.30366,-2.68567 -0.34511,-5.3674 -0.29,-8.06898 0,-2.09016 2.95592,-2.09016 2.95592,0 z"
       inkscape:connector-curvature="0" />
    <path
       style="fill:#000000;fill-opacity:1;fill-rule:nonzero;stroke:none"
       id="path17767"
       d="m 403.55719,348.11381 c 0.50087,2.60843 0.89892,5.24011 1.23509,7.87581 0.45283,4.27066 1.01379,8.52442 1.34541,12.80788 0.16245,2.34739 0.26321,4.69904 0.30817,7.05157 0.007,0.30087 0.009,0.60167 -0.003,0.90229 -0.14994,2.08477 -3.09824,1.87273 -2.9483,-0.21204 l 0,0 c 0.002,-0.21131 -10e-4,-0.42264 -0.004,-0.63395 -0.0436,-2.29527 -0.14209,-4.58969 -0.2999,-6.87998 -0.32709,-4.23496 -0.884,-8.44025 -1.33056,-12.66262 -0.31999,-2.52054 -0.70464,-5.03549 -1.17049,-7.53205 -0.50694,-2.02774 2.36073,-2.74466 2.86767,-0.71691 z"
       inkscape:connector-curvature="0" />
    <path
       style="fill:#000000;fill-opacity:1;fill-rule:nonzero;stroke:none"
       id="path17769"
       d="m 399.75673,361.30248 c 3.04958,0.12633 6.07422,-0.13387 9.10425,-0.43878 1.77615,-0.19251 3.55474,-0.36279 5.3353,-0.50902 0.1923,-0.0164 0.38481,-0.0298 0.57742,-0.0419 2.08705,-0.11373 2.24789,2.83781 0.16083,2.95154 l 0,0 c -0.16559,0.0103 -0.33103,0.0227 -0.49638,0.0363 -1.76255,0.14466 -3.52312,0.31351 -5.28129,0.50409 -3.12794,0.31461 -6.25233,0.57839 -9.40013,0.45362 -2.09015,0 -2.09015,-2.95592 0,-2.95592 z"
       inkscape:connector-curvature="0" />
    <path
       style="fill:#000000;fill-opacity:1;fill-rule:nonzero;stroke:none"
       id="path17771"
       d="m 416.21315,365.04486 c 1.02325,0.83864 2.14656,1.66967 3.51409,1.72799 1.0501,-0.0362 2.16082,-0.43349 2.63083,-1.4239 0.57733,-1.24619 0.2668,-2.4549 -0.82158,-3.25402 -1.15571,-0.58599 -2.55946,-0.96173 -3.63518,-0.0638 -1.70235,1.47721 -2.08771,3.72909 -1.94018,5.87132 0.39873,2.53875 2.30698,3.67646 4.54041,4.47404 1.8389,0.42357 4.20081,0.87605 5.75988,-0.47817 1.68842,-1.23206 3.43081,1.15574 1.74239,2.38779 l 0,0 c -2.68058,1.81018 -5.47553,1.70947 -8.52646,0.8632 -3.53337,-1.33823 -5.86337,-3.16474 -6.46856,-7.10129 -0.11673,-3.2685 0.63419,-6.47047 3.36717,-8.54885 0.44295,-0.23492 0.85691,-0.53543 1.32884,-0.70477 1.96182,-0.70394 4.11987,0.0359 5.78539,1.08234 2.17729,2.06556 2.7036,4.34268 1.33771,7.09627 -1.39183,1.90817 -3.02473,2.78586 -5.42544,2.73791 -2.03555,-0.28588 -3.76808,-1.17733 -5.27946,-2.57586 -1.47797,-1.47796 0.61219,-3.56812 2.09015,-2.09016 z"
       inkscape:connector-curvature="0" />
    <path
       style="fill:#000000;fill-opacity:1;fill-rule:nonzero;stroke:none"
       id="path17773"
       d="m 431.1458,361.90811 c 0.87014,2.25711 1.36375,4.63317 2.10151,6.93395 0.72667,2.13386 1.28166,4.32525 1.61718,6.55436 0.11533,0.40016 0.31128,0.76255 0.57029,1.07996 -0.80264,0.10329 -1.59944,0.27434 -2.40792,0.30987 -0.068,0.003 0.0137,-0.1373 7.7e-4,-0.20409 -0.17745,-0.91751 -0.39188,-1.85494 -0.62807,-2.76329 -0.7922,-2.86635 -1.15466,-5.7483 -0.7884,-8.70055 0.61771,-2.99777 2.03905,-5.74843 4.21144,-7.8988 2.32603,-1.80724 4.37711,-0.43727 5.82724,1.62295 0.59311,1.04205 0.99011,2.18089 1.21582,3.35575 0.38565,2.05427 -2.51952,2.59966 -2.90517,0.5454 l 0,0 c -0.13909,-0.77213 -0.40411,-1.51832 -0.74461,-2.22385 -0.22194,-0.33287 -0.67529,-0.77509 -0.83957,-1.13618 -0.0115,-0.0252 0.15858,-0.29215 -0.0792,-0.2463 -0.15596,0.0301 -0.28406,0.14222 -0.42609,0.21332 -1.74957,1.6053 -2.77833,3.87794 -3.32959,6.15644 -0.37008,2.56853 0.0631,5.08511 0.72243,7.58149 0.12966,0.51675 0.98633,4.30111 0.59899,4.53122 -0.781,0.46399 -1.71817,0.59068 -2.57725,0.88601 -0.68543,-0.75533 -1.11326,-1.68364 -1.34492,-2.67492 -0.3032,-2.07303 -0.83824,-4.10644 -1.50925,-6.08982 -0.75142,-2.36315 -1.27634,-4.7936 -2.15328,-7.116 -0.50693,-2.02775 2.36073,-2.74466 2.86767,-0.71692 z"
       inkscape:connector-curvature="0" />
    <path
       style="fill:#000000;fill-opacity:1;fill-rule:nonzero;stroke:none"
       id="path17775"
       d="m 447.91146,359.13866 c 0.53844,2.87477 0.65865,5.80641 0.78393,8.72211 0.17009,1.85342 -0.19357,3.78791 0.47866,5.56335 0.3914,0.54504 -0.25525,-0.0729 -0.47937,-0.17869 -0.6163,0.33067 -1.18948,0.75894 -1.84891,0.99201 -0.1071,0.0378 0.005,-0.22713 0.006,-0.34071 0.007,-0.6254 0.006,-1.07256 0.005,-1.72099 -10e-4,-1.84244 -0.0358,-0.82581 0.1167,-2.89107 0.28018,-2.97189 0.60642,-5.97479 1.52526,-8.82597 1.20725,-2.30043 2.44355,-3.28007 5.08151,-2.64013 2.2798,1.50876 3.11616,3.97645 3.65421,6.53039 0.36618,2.13099 0.43488,4.29637 0.46233,6.45369 -0.0781,0.91151 0.32642,1.72892 0.6184,2.57216 0.0809,0.23318 0.16266,0.46604 0.24557,0.69851 0.70526,1.96757 -2.0773,2.96497 -2.78257,0.9974 l 0,0 c -0.0865,-0.24255 -0.17191,-0.48548 -0.25624,-0.72879 -0.3931,-1.13543 -0.87086,-2.27354 -0.78085,-3.50207 -0.0245,-1.96923 -0.0812,-3.94591 -0.40149,-5.89312 -0.42163,-2.0938 -0.6993,-2.37342 -1.68102,-4.12402 -0.0322,-0.0573 -0.003,-0.13147 -0.005,-0.1972 -0.43524,-0.62479 -1.14831,0.41706 -1.34941,0.76397 -0.89788,2.60124 -1.07755,5.4054 -1.38354,8.12112 -0.0327,0.4092 -0.0428,4.95745 -0.13873,5.06137 -0.55069,0.5965 -1.2722,1.00885 -1.90829,1.51328 -0.76077,-0.3395 -1.19317,-0.88098 -1.48369,-1.6659 -0.72048,-2.0831 -0.57706,-4.256 -0.64853,-6.43193 -0.11831,-2.76361 -0.22616,-5.54308 -0.72925,-8.26907 -0.40992,-2.04956 2.4886,-2.62927 2.89852,-0.5797 z"
       inkscape:connector-curvature="0" />
    <path
       style="fill:#000000;fill-opacity:1;fill-rule:nonzero;stroke:none"
       id="path17777"
       d="m 465.89508,358.50854 c 0.84533,0.0235 1.69043,-0.01 2.53211,-0.088 1.18367,-0.13266 0.26517,-0.21023 0.20364,2.87909 -1.46573,-0.009 -2.93153,-0.003 -4.39728,-8.6e-4 -1.31405,-0.11077 -2.23533,0.31619 -2.78095,1.52278 -1.06594,2.14043 -1.38069,4.41799 -1.07544,6.76952 0.33892,1.37848 1.27339,2.24236 2.70749,2.24866 1.51997,-0.27408 2.24991,-1.59376 3.07158,-2.74625 1.02447,-1.45982 1.15035,-3.23331 1.29311,-4.95664 0.1656,-1.4225 0.0999,-2.79655 -0.40439,-4.13834 0.27904,0.0818 -0.25349,-0.29601 -0.14409,-0.2949 2.91877,0.0296 2.62786,-0.56621 2.58484,1.28007 -0.17345,2.15127 0.37347,4.221 0.84197,6.29786 0.54612,2.42491 1.49883,4.66782 2.71956,6.81976 0.26186,0.80752 1.35125,1.2975 0.26573,0.82416 2.09014,0.006 2.0819,2.96174 -0.008,2.95592 l 0,0 c -1.5662,-0.35226 -2.08584,-0.9273 -2.82999,-2.32415 -1.35841,-2.40516 -2.41881,-4.92016 -3.03054,-7.62527 -0.52166,-2.31284 -1.09453,-4.62715 -0.91352,-7.02089 0.007,-0.25727 -0.0637,-2.14862 0.23171,-2.26014 2.53587,-0.95738 2.51084,-0.94814 3.05927,0.33395 0.62629,1.74835 0.78996,3.55247 0.57314,5.40051 -0.19343,2.2559 -0.47246,4.53153 -1.83182,6.42421 -1.47529,2.06872 -3.0212,3.89683 -5.7794,3.97069 -2.81558,-0.40137 -4.75302,-1.96262 -5.34233,-4.84588 -0.32067,-2.98117 0.0398,-5.87257 1.438,-8.56725 1.23195,-1.99763 2.90663,-3.19588 5.3504,-3.0243 1.49001,-0.002 2.98008,-0.009 4.47006,0.002 0.66041,2.94005 1.54964,2.84971 -8.9e-4,3.01945 -1.16962,0.10707 -2.35239,0.16839 -3.52065,0.0123 -2.02774,-0.50694 -1.31083,-3.3746 0.71692,-2.86767 z"
       inkscape:connector-curvature="0" />
    <path
       style="fill:#000000;fill-opacity:1;fill-rule:nonzero;stroke:none"
       id="path17779"
       d="m 480.33745,346.61951 c 0,3.98187 0,7.96373 0,11.9456 0,5.09223 0,10.18446 0,15.27669 0.31672,1.796 -0.5603,4.00756 0.32192,5.70477 -0.049,-0.62774 -2.38364,1.27279 -2.3174,0.0412 0.23523,-2.07688 3.17238,-1.74421 2.93715,0.33266 l 0,0 c -0.28535,2.09215 -2.61419,2.66433 -3.32712,0.81254 -0.90169,-2.19148 -0.49744,-4.5793 -0.57047,-6.89121 0,-5.09223 0,-10.18446 0,-15.27669 0,-3.98187 0,-7.96373 0,-11.9456 0,-2.09015 2.95592,-2.09015 2.95592,0 z"
       inkscape:connector-curvature="0" />
    <path
       style="fill:#000000;fill-opacity:1;fill-rule:nonzero;stroke:none"
       id="path17781"
       d="m 504.58365,350.31754 c -1.87224,-0.26954 -3.66372,-0.86856 -5.47916,-1.37599 -0.22139,-0.0501 -0.43886,-0.12278 -0.66417,-0.15032 -0.10335,-0.0126 -0.21686,-0.0137 -0.31078,0.0312 -0.10331,0.0494 0.27284,10e-4 0.32824,0.10128 0.0662,0.1198 -0.0298,0.27219 -0.048,0.40785 -0.0414,0.30753 -0.0874,0.61444 -0.13103,0.92166 -0.29395,4.53095 0.5916,9.08601 1.44261,13.52091 0.98118,4.09902 2.03093,8.17907 2.87484,12.30942 0.13799,0.79327 0.33318,1.57999 0.42269,2.38145 -2.7424,1.20705 -2.35638,1.59898 -3.56892,0.0134 -1.23139,-1.68891 1.15709,-3.43036 2.38848,-1.74145 l 0,0 c 0.81699,1.25878 1.2956,0.23373 -1.75975,2.03266 -0.0881,-0.7039 -0.25606,-1.39654 -0.37863,-2.09455 -0.84581,-4.14232 -1.90615,-8.2322 -2.88186,-12.34493 -0.91211,-4.77082 -1.85449,-9.67327 -1.45798,-14.5457 0.47775,-2.75901 1.43298,-4.56849 4.5402,-3.68964 1.74447,0.48785 3.46256,1.07107 5.26296,1.32422 2.04956,0.40992 1.46986,3.30844 -0.5797,2.89853 z"
       inkscape:connector-curvature="0" />
    <path
       style="fill:#000000;fill-opacity:1;fill-rule:nonzero;stroke:none"
       id="path17783"
       d="m 494.92386,365.15455 c 2.98977,-0.38256 5.95313,-0.93745 8.93706,-1.36396 1.12095,-0.16743 2.24872,-0.27893 3.37651,-0.38687 2.08068,-0.1988 2.36181,2.74373 0.28114,2.94252 l 0,0 c -1.08214,0.10319 -2.16431,0.20952 -3.2398,0.37059 -2.92983,0.41792 -5.83871,0.96791 -8.77521,1.33624 -2.04956,0.40991 -2.62926,-2.48861 -0.5797,-2.89852 z"
       inkscape:connector-curvature="0" />
    <path
       style="fill:#000000;fill-opacity:1;fill-rule:nonzero;stroke:none"
       id="path17785"
       d="m 513.05145,366.14971 c -1.60387,1.71391 -2.21301,3.92979 -2.67503,6.16737 -0.19771,2.16405 0.14575,3.7342 2.06479,4.86267 1.84289,0.52398 2.75966,-1.29216 3.34635,-2.72141 0.76871,-2.10533 0.66606,-4.25076 -0.80758,-5.98876 -0.6693,-0.55176 -2.01917,-1.24701 -2.87335,-0.63888 -0.0567,0.0437 -0.24064,0.1198 -0.16998,0.13104 0.52754,0.0839 0.37031,-1.04548 0.29746,-1.57465 1.32495,1.61656 -0.96122,3.49031 -2.28616,1.87375 l 0,0 c -0.56555,-1.87349 -0.61203,-2.27315 1.18493,-3.22107 2.31104,-0.66367 4.47261,-0.13686 6.1832,1.6187 2.00933,2.72582 2.40875,5.80269 1.17447,8.99627 -1.5877,3.4207 -3.70999,5.53557 -7.66291,4.00167 -3.01997,-2.07828 -3.71124,-4.35061 -3.34437,-7.94528 0.59359,-2.79994 1.44703,-5.53395 3.47802,-7.65157 1.47797,-1.47796 3.56812,0.61219 2.09016,2.09015 z"
       inkscape:connector-curvature="0" />
    <path
       style="fill:#000000;fill-opacity:1;fill-rule:nonzero;stroke:none"
       id="path17787"
       d="m 525.73533,366.83465 c 0.33495,2.02668 0.77829,4.02356 1.21344,6.03091 0.38427,1.86886 0.55917,3.77258 0.65558,5.67564 0.0601,2.46904 0.66896,1.84764 -2.92064,1.57943 -0.15126,-1.73746 -0.56471,-3.46526 -0.96288,-5.16671 -0.53946,-2.26654 -1.0172,-4.47621 -0.5072,-6.77497 1.00759,-2.6412 3.21038,-3.74869 5.79255,-4.42998 1.89921,-0.44975 3.86221,-0.36941 5.45457,0.81918 0.50521,0.5319 0.28691,0.26403 0.66769,0.793 1.17356,1.7296 -1.27247,3.38926 -2.44602,1.65966 l 0,0 c -0.13629,-0.2461 0.12684,0.18265 -0.0895,-0.16169 -0.55121,-0.72434 -2.11167,-0.35923 -2.8518,-0.24704 -1.51548,0.3746 -2.8984,0.80037 -3.6598,2.28386 -0.54405,1.76602 0.24137,3.62531 0.51775,5.3846 0.44675,1.91 0.89983,3.84785 1.0404,5.80549 -3.52094,0.29039 -2.8903,0.88759 -2.98729,-1.39686 -0.0863,-1.74256 -0.2444,-3.48616 -0.59233,-5.19798 -0.42756,-1.97648 -0.8712,-3.9428 -1.19214,-5.93962 -0.50694,-2.02775 2.36073,-2.74466 2.86766,-0.71692 z"
       inkscape:connector-curvature="0" />
    <path
       style="fill:#000000;fill-opacity:1;fill-rule:nonzero;stroke:none"
       id="path17789"
       d="m 544.30513,364.31639 c -2.03147,1.46953 -3.12294,3.66779 -3.91851,5.9756 -0.8048,2.20343 -0.35236,3.96639 1.35169,5.51824 1.78303,0.98295 3.87396,1.34204 5.86127,0.89842 0.29989,-0.089 0.59979,-0.17794 0.89968,-0.2669 2.00771,-0.58125 2.82971,2.25808 0.822,2.83933 l 0,0 c -0.38755,0.11005 -0.77509,0.2201 -1.16264,0.33015 -2.97296,0.51712 -5.97157,0.0782 -8.48413,-1.68484 -2.54332,-2.58334 -3.24154,-5.10959 -2.07765,-8.61144 1.01248,-2.8537 2.42535,-5.53927 4.93474,-7.3633 1.67212,-1.25409 3.44567,1.11065 1.77355,2.36474 z"
       inkscape:connector-curvature="0" />
    <path
       style="fill:#000000;fill-opacity:1;fill-rule:nonzero;stroke:none"
       id="path17791"
       d="m 552.90466,367.60608 c 1.0645,0.36265 2.39227,1.42439 3.57223,1.24003 0.65319,-0.0524 0.90126,-0.34193 1.31647,-0.86465 0.1585,-0.61687 0.51197,-1.44181 0.27292,-2.06281 -0.17436,-0.98158 -0.73723,-1.67864 -1.54959,-2.20595 -0.81367,-0.34887 -1.53648,0.64706 -2.00293,1.2054 -1.20386,1.83966 -0.98482,3.97648 -0.31405,5.95816 1.26266,2.29727 3.26923,3.88764 5.80705,4.52233 1.16983,0.26241 2.06865,-0.14575 3.02566,-0.73242 1.78817,-1.08221 3.31865,1.44664 1.53048,2.52885 l 0,0 c -1.6684,0.99998 -3.38167,1.4997 -5.34043,1.05355 -3.4935,-1.01883 -6.26015,-3.14769 -7.84328,-6.48792 -0.93142,-3.14104 -1.06859,-6.03484 0.92903,-8.81057 1.57723,-1.70284 3.59235,-2.99496 5.87554,-1.67835 1.46805,1.03119 2.48867,2.40189 2.80492,4.20303 0.15713,1.53651 -0.0625,3.07856 -0.92426,4.39873 -0.97602,1.14284 -2.1285,1.90739 -3.68072,1.92707 -1.7002,-0.13009 -3.28959,-0.77811 -4.80097,-1.55063 -1.86949,-0.93474 -0.54756,-3.5786 1.32193,-2.64385 z"
       inkscape:connector-curvature="0" />
    <path
       style="fill:#000000;fill-opacity:1;fill-rule:nonzero;stroke:none"
       id="path17793"
       d="m 571.17896,361.39164 c -0.4011,0.0556 -2.95512,0.59073 -2.55907,1.35159 0.78932,0.97706 1.96145,1.59868 3.04545,2.19517 2.00875,0.93681 3.82063,2.08189 5.39007,3.65118 1.52579,2.07448 2.30381,3.4741 0.16021,5.55762 -2.09805,1.31873 -4.57175,1.60534 -6.98598,1.83195 -0.74977,0.0636 -1.50123,0.10277 -2.25336,0.1212 -2.08955,0.0501 -2.1604,-2.90497 -0.0709,-2.95507 l 0,0 c 0.68421,-0.016 1.36777,-0.0525 2.04988,-0.1093 1.80654,-0.16709 3.64244,-0.36106 5.31572,-1.115 0.4779,-0.27422 0.14221,-0.19372 0.34092,0.28482 0.0956,0.2301 -0.6168,-1.89872 -0.66632,-1.54589 -1.34194,-1.40706 -2.98411,-2.29176 -4.71896,-3.13932 -2.28389,-1.28516 -4.74888,-2.76018 -4.39858,-5.7486 1.05571,-2.32964 2.36576,-2.78006 4.77116,-3.27887 2.04957,-0.40992 2.62927,2.48861 0.57971,2.89852 z"
       inkscape:connector-curvature="0" />
    <path
       inkscape:connector-curvature="0"
       d="m 517.39265,611.42405 c -1.87224,-0.26954 -3.66372,-0.86856 -5.47916,-1.37599 -0.22139,-0.0501 -0.43886,-0.12278 -0.66417,-0.15032 -0.10335,-0.0126 -0.21686,-0.0137 -0.31078,0.0312 -0.10331,0.0494 0.27284,10e-4 0.32824,0.10128 0.0662,0.1198 -0.0298,0.27219 -0.048,0.40785 -0.0414,0.30753 -0.0874,0.61444 -0.13103,0.92166 -0.29395,4.53095 0.5916,9.08601 1.44261,13.52091 0.98118,4.09902 2.03093,8.17907 2.87484,12.30942 0.13799,0.79327 0.33318,1.57999 0.42269,2.38145 -2.7424,1.20705 -2.35638,1.59898 -3.56892,0.0134 -1.23139,-1.68891 1.15709,-3.43036 2.38848,-1.74145 l 0,0 c 0.81699,1.25878 1.2956,0.23373 -1.75975,2.03266 -0.0881,-0.7039 -0.25606,-1.39654 -0.37863,-2.09455 -0.84581,-4.14232 -1.90615,-8.2322 -2.88186,-12.34493 -0.91211,-4.77082 -1.85449,-9.67327 -1.45798,-14.5457 0.47775,-2.75901 1.43298,-4.56849 4.5402,-3.68964 1.74447,0.48785 3.46256,1.07107 5.26296,1.32422 2.04956,0.40992 1.46986,3.30844 -0.5797,2.89853 z"
       id="path17795"
       style="fill:#000000;fill-opacity:1;fill-rule:nonzero;stroke:none" />
    <path
       inkscape:connector-curvature="0"
       d="m 507.73286,626.26106 c 2.98977,-0.38256 5.95313,-0.93745 8.93706,-1.36396 1.12095,-0.16743 2.24872,-0.27893 3.37651,-0.38687 2.08068,-0.1988 2.36181,2.74373 0.28114,2.94252 l 0,0 c -1.08214,0.10319 -2.16431,0.20952 -3.2398,0.37059 -2.92983,0.41792 -5.83871,0.96791 -8.77521,1.33624 -2.04956,0.40991 -2.62926,-2.48861 -0.5797,-2.89852 z"
       id="path17797"
       style="fill:#000000;fill-opacity:1;fill-rule:nonzero;stroke:none" />
    <path
       inkscape:connector-curvature="0"
       d="m 525.86045,627.25622 c -1.60387,1.71391 -2.21301,3.92979 -2.67503,6.16737 -0.19771,2.16405 0.14575,3.7342 2.06479,4.86267 1.84289,0.52398 2.75966,-1.29216 3.34635,-2.72141 0.76871,-2.10533 0.66606,-4.25076 -0.80758,-5.98876 -0.6693,-0.55176 -2.01917,-1.24701 -2.87335,-0.63888 -0.0567,0.0437 -0.24064,0.1198 -0.16998,0.13104 0.52754,0.0839 0.37031,-1.04548 0.29746,-1.57465 1.32495,1.61656 -0.96122,3.49031 -2.28616,1.87375 l 0,0 c -0.56555,-1.87349 -0.61203,-2.27315 1.18493,-3.22107 2.31104,-0.66367 4.47261,-0.13686 6.1832,1.6187 2.00933,2.72582 2.40875,5.80269 1.17447,8.99627 -1.5877,3.4207 -3.70999,5.53557 -7.66291,4.00167 -3.01997,-2.07828 -3.71124,-4.35061 -3.34437,-7.94528 0.59359,-2.79994 1.44703,-5.53395 3.47802,-7.65157 1.47797,-1.47796 3.56812,0.61219 2.09016,2.09015 z"
       id="path17799"
       style="fill:#000000;fill-opacity:1;fill-rule:nonzero;stroke:none" />
    <path
       inkscape:connector-curvature="0"
       d="m 538.54433,627.94116 c 0.33495,2.02668 0.77829,4.02356 1.21344,6.03091 0.38427,1.86886 0.55917,3.77258 0.65558,5.67564 0.0601,2.46904 0.66896,1.84764 -2.92064,1.57943 -0.15126,-1.73746 -0.56471,-3.46526 -0.96288,-5.16671 -0.53946,-2.26654 -1.0172,-4.47621 -0.5072,-6.77497 1.00759,-2.6412 3.21038,-3.74869 5.79255,-4.42998 1.89921,-0.44975 3.86221,-0.36941 5.45457,0.81918 0.50521,0.5319 0.28691,0.26403 0.66769,0.793 1.17356,1.7296 -1.27247,3.38926 -2.44602,1.65966 l 0,0 c -0.13629,-0.2461 0.12684,0.18265 -0.0895,-0.16169 -0.55121,-0.72434 -2.11167,-0.35923 -2.8518,-0.24704 -1.51548,0.3746 -2.8984,0.80037 -3.6598,2.28386 -0.54405,1.76602 0.24137,3.62531 0.51775,5.3846 0.44675,1.91 0.89983,3.84785 1.0404,5.80549 -3.52094,0.29039 -2.8903,0.88759 -2.98729,-1.39686 -0.0863,-1.74256 -0.2444,-3.48616 -0.59233,-5.19798 -0.42756,-1.97648 -0.8712,-3.9428 -1.19214,-5.93962 -0.50694,-2.02775 2.36073,-2.74466 2.86766,-0.71692 z"
       id="path17801"
       style="fill:#000000;fill-opacity:1;fill-rule:nonzero;stroke:none" />
    <path
       inkscape:connector-curvature="0"
       d="m 557.11413,625.4229 c -2.03147,1.46953 -3.12294,3.66779 -3.91851,5.9756 -0.8048,2.20343 -0.35236,3.96639 1.35169,5.51824 1.78303,0.98295 3.87396,1.34204 5.86127,0.89842 0.29989,-0.089 0.59979,-0.17794 0.89968,-0.2669 2.00771,-0.58125 2.82971,2.25808 0.822,2.83933 l 0,0 c -0.38755,0.11005 -0.77509,0.2201 -1.16264,0.33015 -2.97296,0.51712 -5.97157,0.0782 -8.48413,-1.68484 -2.54332,-2.58334 -3.24154,-5.10959 -2.07765,-8.61144 1.01248,-2.8537 2.42535,-5.53927 4.93474,-7.3633 1.67212,-1.25409 3.44567,1.11065 1.77355,2.36474 z"
       id="path17803"
       style="fill:#000000;fill-opacity:1;fill-rule:nonzero;stroke:none" />
    <path
       inkscape:connector-curvature="0"
       d="m 565.71366,628.71259 c 1.0645,0.36265 2.39227,1.42439 3.57223,1.24003 0.65319,-0.0524 0.90126,-0.34193 1.31647,-0.86465 0.1585,-0.61687 0.51197,-1.44181 0.27292,-2.06281 -0.17436,-0.98158 -0.73723,-1.67864 -1.54959,-2.20595 -0.81367,-0.34887 -1.53648,0.64706 -2.00293,1.2054 -1.20386,1.83966 -0.98482,3.97648 -0.31405,5.95816 1.26266,2.29727 3.26923,3.88764 5.80705,4.52233 1.16983,0.26241 2.06865,-0.14575 3.02566,-0.73242 1.78817,-1.08221 3.31865,1.44664 1.53048,2.52885 l 0,0 c -1.6684,0.99998 -3.38167,1.4997 -5.34043,1.05355 -3.4935,-1.01883 -6.26015,-3.14769 -7.84328,-6.48792 -0.93142,-3.14104 -1.06859,-6.03484 0.92903,-8.81057 1.57723,-1.70284 3.59235,-2.99496 5.87554,-1.67835 1.46805,1.03119 2.48867,2.40189 2.80492,4.20303 0.15713,1.53651 -0.0625,3.07856 -0.92426,4.39873 -0.97602,1.14284 -2.1285,1.90739 -3.68072,1.92707 -1.7002,-0.13009 -3.28959,-0.77811 -4.80097,-1.55063 -1.86949,-0.93474 -0.54756,-3.5786 1.32193,-2.64385 z"
       id="path17805"
       style="fill:#000000;fill-opacity:1;fill-rule:nonzero;stroke:none" />
    <path
       inkscape:connector-curvature="0"
       d="m 583.98796,622.49815 c -0.4011,0.0556 -2.95512,0.59073 -2.55907,1.35159 0.78932,0.97706 1.96145,1.59868 3.04545,2.19517 2.00875,0.93681 3.82063,2.08189 5.39007,3.65118 1.52579,2.07448 2.30381,3.4741 0.16021,5.55762 -2.09805,1.31873 -4.57175,1.60534 -6.98598,1.83195 -0.74977,0.0636 -1.50123,0.10277 -2.25336,0.1212 -2.08955,0.0501 -2.1604,-2.90497 -0.0709,-2.95507 l 0,0 c 0.68421,-0.016 1.36777,-0.0525 2.04988,-0.1093 1.80654,-0.16709 3.64244,-0.36106 5.31572,-1.115 0.4779,-0.27422 0.14221,-0.19372 0.34092,0.28482 0.0956,0.2301 -0.6168,-1.89872 -0.66632,-1.54589 -1.34194,-1.40706 -2.98411,-2.29176 -4.71896,-3.13932 -2.28389,-1.28516 -4.74888,-2.76018 -4.39858,-5.7486 1.05571,-2.32964 2.36576,-2.78006 4.77116,-3.27887 2.04957,-0.40992 2.62927,2.48861 0.57971,2.89852 z"
       id="path17807"
       style="fill:#000000;fill-opacity:1;fill-rule:nonzero;stroke:none" />
    <path
       style="fill:#000000;fill-opacity:1;fill-rule:nonzero;stroke:none"
       id="path17809"
       d="m 410.36671,381.24125 c -0.4896,4.17559 -1.43576,8.27064 -1.98626,12.4393 -1.07417,6.19442 0.75288,11.83275 3.58024,17.26746 3.9017,6.20894 8.3479,9.64611 15.21316,11.96854 3.51551,1.03605 7.16074,1.35061 10.80359,1.49053 0.98457,0.038 0.93082,1.43041 -0.0537,1.3924 l 0,0 c -3.77726,-0.14653 -7.556,-0.48058 -11.19875,-1.56378 -7.21646,-2.46952 -11.91588,-6.09887 -16.00125,-12.6462 -2.94344,-5.69332 -4.84036,-11.61204 -3.72464,-18.09167 0.54431,-4.10823 1.45536,-8.14654 1.97423,-12.25658 0,-0.98531 1.39343,-0.98531 1.39343,0 z"
       inkscape:connector-curvature="0" />
  </g>
</svg>
