<?xml version="1.0" encoding="UTF-8" standalone="no"?>
<!-- Created with Inkscape (http://www.inkscape.org/) -->

<svg
   xmlns:dc="http://purl.org/dc/elements/1.1/"
   xmlns:cc="http://creativecommons.org/ns#"
   xmlns:rdf="http://www.w3.org/1999/02/22-rdf-syntax-ns#"
   xmlns:svg="http://www.w3.org/2000/svg"
   xmlns="http://www.w3.org/2000/svg"
   xmlns:sodipodi="http://sodipodi.sourceforge.net/DTD/sodipodi-0.dtd"
   xmlns:inkscape="http://www.inkscape.org/namespaces/inkscape"
   width="429.84686"
   height="261.24118"
   id="svg2985"
   version="1.1"
   inkscape:version="0.48.0 r9654"
   sodipodi:docname="New document 2">
  <defs
     id="defs2987" />
  <sodipodi:namedview
     inkscape:document-units="mm"
     pagecolor="#ffffff"
     bordercolor="#666666"
     borderopacity="1.0"
     inkscape:pageopacity="0.0"
     inkscape:pageshadow="2"
     inkscape:zoom="0.7176508"
     inkscape:cx="283.361"
     inkscape:cy="132.01403"
     inkscape:current-layer="layer1"
     id="namedview2989"
     showgrid="false"
     fit-margin-top="0"
     fit-margin-left="0"
     fit-margin-right="0"
     fit-margin-bottom="0"
     inkscape:window-width="1280"
     inkscape:window-height="752"
     inkscape:window-x="0"
     inkscape:window-y="0"
     inkscape:window-maximized="0" />
  <metadata
     id="metadata2991">
    <rdf:RDF>
      <cc:Work
         rdf:about="">
        <dc:format>image/svg+xml</dc:format>
        <dc:type
           rdf:resource="http://purl.org/dc/dcmitype/StillImage" />
        <dc:title></dc:title>
      </cc:Work>
    </rdf:RDF>
  </metadata>
  <g
     inkscape:label="Layer 1"
     inkscape:groupmode="layer"
     id="layer1"
     transform="translate(-242.82009,-242.82009)">
    <path
       style="fill:none;stroke:#000000;stroke-width:2.06220484;stroke-linecap:butt;stroke-linejoin:miter;stroke-miterlimit:4;stroke-opacity:1;stroke-dasharray:8.2488189, 2.06220472;stroke-dashoffset:0"
       d="M 243.85119,470.98115 671.63584,296.80173"
       id="path3860"
       inkscape:connector-curvature="0" />
    <path
       style="fill:none;stroke:#000000;stroke-width:2.06220484;stroke-linecap:butt;stroke-linejoin:miter;stroke-miterlimit:4;stroke-opacity:1;stroke-dasharray:8.2488189, 2.06220472;stroke-dashoffset:0"
       d="M 246.63806,298.19517 668.84897,470.98115"
       id="path3862"
       inkscape:connector-curvature="0" />
    <path
       style="fill:none;stroke:#000000;stroke-width:2.06220484;stroke-linecap:butt;stroke-linejoin:miter;stroke-miterlimit:4;stroke-opacity:1;stroke-dasharray:8.2488189, 2.06220472;stroke-dashoffset:0"
       d="M 457.0468,383.19472 599.1772,243.85119"
       id="path3864"
       inkscape:connector-curvature="0" />
    <path
       style="fill:none;stroke:#000000;stroke-width:2.06220484;stroke-linecap:butt;stroke-linejoin:miter;stroke-miterlimit:4;stroke-opacity:1;stroke-dasharray:8.2488189, 2.06220472;stroke-dashoffset:0"
       d="m 455.65336,383.19473 47.3768,119.83544"
       id="path3866"
       inkscape:connector-curvature="0" />
    <path
       style="fill:#000000;fill-opacity:1;fill-rule:nonzero;stroke:none"
       id="path3868"
       d="m 457.44729,385.36477 c 0.38721,1.33313 0.60133,2.07053 -0.28882,3.27911 -1.36645,1.13576 -2.93545,1.12041 -4.50237,0.44746 -1.5497,-0.88202 -2.14144,-2.07071 -1.85627,-3.81502 0.8458,-1.70117 2.51019,-2.61763 4.22546,-3.25753 0.84125,-0.26452 1.69987,-0.50191 2.58127,-0.5758 1.74335,0.27585 2.2677,2.1023 2.70992,3.57789 0.41567,1.88243 0.8301,3.21982 -0.22578,4.9586 -1.7148,1.47498 -3.80696,1.11208 -5.71606,0.25379 -2.03404,-1.01372 -3.06786,-2.68461 -3.63951,-4.81007 -0.40881,-2.45085 0.85374,-4.3619 2.45903,-6.06692 2.19589,-2.06039 3.36661,-1.98601 5.07447,0.55932 1.11372,2.2103 1.52072,4.67383 1.79952,7.10895 0.0737,2.71011 -1.78517,3.30196 -4.12142,3.1299 -2.60412,-0.69067 -4.59734,-2.53994 -6.0976,-4.70352 -0.92284,-1.54389 -1.40834,-3.53638 -0.35006,-5.16752 0.20116,-0.31007 0.48895,-0.55441 0.73342,-0.83161 2.37247,-1.69023 4.88498,-0.81778 7.12609,0.60146 2.06984,1.62088 3.12036,3.47802 3.08645,6.11144 -0.33031,1.74071 -1.62692,3.25507 -3.38791,3.71167 -0.3812,0.0988 -0.78222,0.092 -1.17333,0.13796 -2.48326,-0.19313 -4.14003,-1.77026 -5.24916,-3.87754 -0.85601,-2.53404 -0.0777,-4.29837 1.84293,-6.0029 2.6484,-1.61796 4.35069,-0.69398 6.23595,1.42637 1.37867,1.81233 2.01577,3.94432 1.79733,6.19698 -0.56257,2.40396 -2.0425,3.40679 -4.37096,3.80312 -2.0313,0.0132 -3.8767,-1.03395 -4.68408,-2.95678 -0.16942,-0.40347 -0.23903,-0.84192 -0.35855,-1.26287 -0.18134,-3.36261 2.14603,-5.70171 4.62443,-7.60734 1.95416,-1.25917 4.53708,-2.34189 6.52736,-0.49405 0.32578,0.30247 0.54245,0.70442 0.81368,1.05663 0.91697,1.9214 1.43723,4.24254 0.66383,6.31807 -0.14379,0.38588 -0.37561,0.73297 -0.56342,1.09946 -1.92519,2.40196 -4.81957,2.53893 -7.64425,2.11534 -1.9347,-0.52714 -3.92504,-1.20868 -5.10526,-2.9149 -0.058,-0.30436 -0.18758,-0.60356 -0.17387,-0.91309 0.0775,-1.7511 2.21426,-2.76076 3.51004,-3.48328 1.76903,-0.81069 3.46367,-1.87639 5.45248,-1.88922 0.32036,0.14143 0.68641,0.20705 0.96108,0.42429 1.42173,1.12443 1.34122,3.62751 1.31321,5.23172 -0.19946,1.58788 -0.9718,3.48642 -2.80182,3.73803 -0.41093,0.0565 -0.82844,-0.0437 -1.24266,-0.0656 -2.84059,-0.89796 -4.68016,-3.25415 -6.1729,-5.70308 -0.78542,-1.55253 -1.79879,-3.62217 -0.54845,-5.24449 0.22807,-0.29592 0.55693,-0.49816 0.83539,-0.74724 2.80979,-1.33518 5.21726,-0.70237 7.80662,0.74973 2.27874,1.66239 3.3104,3.19884 2.86835,6.04963 -0.98019,2.36838 -3.32836,3.18976 -5.64779,3.71018 -2.63705,0.42103 -3.95739,0.33374 -5.3868,-2.09575 -0.79257,-2.45148 0.21403,-4.73098 1.44592,-6.83042 1.066,-1.5575 2.61632,-2.94733 4.65196,-2.28817 0.40332,0.1306 0.75269,0.39032 1.12904,0.58548 2.334,1.83725 3.45674,4.60903 3.98349,7.4523 0.17397,2.21216 -0.47289,4.42413 -2.52974,5.5731 -0.40091,0.22395 -0.85415,0.33755 -1.28122,0.50633 -3.42803,0.60767 -5.96811,-0.95146 -8.17126,-3.42911 -1.495,-2.11288 -1.68155,-4.61796 0.0841,-6.66442 0.35648,-0.41318 0.80952,-0.73201 1.21427,-1.09802 2.14238,-1.48042 4.81621,-2.67723 7.49652,-2.25771 0.44874,0.0702 0.87251,0.25286 1.30876,0.37928 0.3703,0.24989 0.78394,0.44526 1.1109,0.74966 1.27809,1.18992 1.8281,3.17554 1.61922,4.87456 -0.0568,0.46197 -0.21891,0.9048 -0.32837,1.3572 -0.80378,1.99688 -2.23458,3.94777 -4.39548,4.60227 -0.41345,0.12523 -0.85157,0.14606 -1.27735,0.2191 -2.9682,0.0518 -4.7307,-1.96364 -5.89057,-4.45688 -0.78301,-2.11126 -1.20482,-3.55842 0.33214,-5.41035 1.58257,-1.27265 3.53852,-0.75038 5.34203,-0.34869 1.33852,0.25876 1.26533,0.31316 1.96666,1.56306 0.18126,1.4668 -1.89312,1.72314 -2.07437,0.25634 l 0,0 c 1.03786,0.97061 0.3025,0.26002 -0.34718,0.22065 -1.04133,-0.23248 -2.31983,-0.69305 -3.34966,-0.27541 -0.98995,0.77255 -0.27373,2.1809 0.035,3.13343 0.70927,1.63273 1.74319,3.16502 3.6884,3.24898 1.93159,-0.1875 3.22365,-1.53461 3.94997,-3.28779 0.47868,-1.58906 0.38503,-3.35352 -1.0161,-4.4547 -2.35101,-0.86546 -4.82479,0.12397 -6.80135,1.46631 -1.79287,1.45956 -2.42605,2.71884 -1.08998,4.8119 1.48571,1.76192 3.47263,3.1382 5.88066,2.8356 1.819,-0.5635 2.60784,-1.83175 2.46617,-3.74893 -0.3758,-2.23354 -1.24195,-4.45834 -2.96236,-6.00316 -1.42972,-0.98206 -1.97828,-0.33891 -2.94546,0.95229 -0.86227,1.4424 -1.70596,3.04076 -1.40383,4.77598 0.63835,1.4669 1.66282,1.28371 3.09808,1.04409 1.48219,-0.31604 3.12542,-0.73681 4.04046,-2.04928 0.3989,-1.64156 -0.51346,-2.92691 -1.848,-3.85293 -1.73358,-1.00773 -3.50852,-1.61743 -5.4928,-0.91256 -1.35524,0.59155 -0.16977,2.37256 0.22242,3.25663 1.14333,1.9065 2.53399,3.80273 4.63725,4.71019 1.21438,0.40718 1.51343,-0.62514 1.70225,-1.64813 0.0365,-1.11257 -0.13796,-2.10498 -0.30997,-3.19288 -0.0232,-0.14654 0.0101,-0.20021 0.0544,-0.32369 -1.42875,-0.20205 -3.04763,1.20867 -4.36764,1.62799 -0.57176,0.31536 -1.01727,0.53814 -1.54502,0.9092 -0.27522,0.1935 -0.50158,0.45285 -0.78416,0.63542 -0.10297,0.0665 -0.16696,-0.0237 -0.244,-0.0765 0.40831,1.10109 2.70839,1.5854 3.65272,1.95057 1.91148,0.31751 4.00658,0.42552 5.48556,-1.05264 0.9841,-1.62085 0.7572,-3.50991 0.0296,-5.20526 -1.24539,-2.06817 -2.59324,-1.1112 -4.36966,-0.11051 -1.79978,1.35836 -3.70827,3.01316 -3.86729,5.42464 0.31177,1.46034 1.11443,2.59634 2.72497,2.67067 1.26499,-0.1139 2.26251,-0.68448 2.58814,-1.97515 0.24267,-1.63945 -0.34774,-3.24583 -1.29498,-4.58003 -0.89964,-1.05318 -1.87454,-2.07655 -3.30103,-1.2156 -1.11861,0.91027 -1.7915,1.99622 -1.33921,3.47265 0.65187,1.36828 1.67615,2.46505 3.22906,2.73718 1.16596,0.022 2.28572,-0.69967 2.62775,-1.84177 0.13697,-1.76233 -0.78614,-3.20094 -2.13542,-4.28156 -1.33714,-0.89621 -2.91586,-1.72 -4.4926,-0.89488 -1.10942,0.87654 -0.8057,2.27697 -0.15363,3.3596 1.12051,1.66902 2.64289,3.12507 4.57162,3.8025 0.26902,0.0359 1.68305,0.31745 1.81916,-0.23474 0.0462,-0.18736 0.0173,-0.38554 0.026,-0.57831 -0.23969,-2.1222 -0.57842,-4.27236 -1.48685,-6.22415 -0.73536,-1.27165 -0.32133,-1.56114 -1.79865,-0.23696 -1.10954,1.14111 -2.13777,2.41183 -1.94864,4.09461 0.38576,1.53182 1.02712,2.70157 2.49933,3.44401 1.03444,0.50566 1.98942,0.72169 3.12188,0.44243 0.81794,-0.63278 -0.0129,-2.36161 -0.0666,-3.16804 -0.21391,-0.73839 -0.4841,-1.35808 -0.82519,-2.03267 -0.0418,-0.0826 0.55743,-0.20624 0.2726,-0.0525 -0.68878,0.0347 -1.35632,0.27769 -2.01591,0.45416 -1.0915,0.38884 -2.07898,0.9421 -2.90739,1.76671 -0.33935,0.56481 0.24156,1.18054 0.70559,1.44958 0.68908,0.38261 1.31884,0.40172 2.04233,0.0713 0.46618,0.0339 -0.16032,-0.98576 -0.16435,-1.3976 -0.35846,-1.43383 1.66929,-1.94077 2.02775,-0.50693 z"
       inkscape:connector-curvature="0" />
    <path
       style="fill:#000000;fill-opacity:1;fill-rule:nonzero;stroke:none"
       id="path3878"
       d="m 461.26521,392.86504 c 1.34009,4.09673 2.82272,8.14234 4.33455,12.17898 3.83311,10.11607 8.02596,20.08977 12.10035,30.1097 2.66217,6.81846 5.27059,13.65814 7.8493,20.50859 0.42028,1.12791 0.83691,2.25723 1.24089,3.3911 0.0583,0.16387 0.11346,0.32891 0.17343,0.49219 0.0187,0.0519 0.11781,0.14282 0.0635,0.15302 -0.89596,0.16814 -1.80865,0.22992 -2.71298,0.34488 -0.21554,-1.95879 2.55461,-2.26359 2.77015,-0.3048 l 0,0 c -0.88008,0.33535 -1.73021,0.76347 -2.64023,1.00608 -0.0597,0.0162 -1.39228,-4.11786 -1.50305,-4.1007 -2.56995,-6.82775 -5.17013,-13.64451 -7.82269,-20.44061 -4.08412,-10.04392 -8.28693,-20.04153 -12.12859,-30.18206 -1.50424,-4.01702 -2.98581,-8.04156 -4.31202,-12.1208 -0.73225,-1.82951 1.85507,-2.86508 2.58732,-1.03557 z"
       inkscape:connector-curvature="0" />
    <path
       style="fill:#000000;fill-opacity:1;fill-rule:nonzero;stroke:none"
       id="path3888"
       d="m 460.53103,393.59684 c -0.12228,2.39274 -0.27432,4.78272 -0.45038,7.17205 -0.23015,1.75742 -0.42836,3.51754 -0.54696,5.28614 -0.0143,0.21805 -0.025,0.43628 -0.0324,0.65467 -0.0685,1.96942 -2.85367,1.87257 -2.78519,-0.0969 l 0,0 c 0.009,-0.2484 0.0205,-0.49669 0.037,-0.74472 0.11953,-1.77441 0.31103,-3.54152 0.54824,-5.30405 0.16983,-2.30444 0.31241,-4.60979 0.44329,-6.91659 -0.0358,-1.97029 2.7506,-2.02093 2.78642,-0.0504 z"
       inkscape:connector-curvature="0" />
    <path
       style="fill:#000000;fill-opacity:1;fill-rule:nonzero;stroke:none"
       id="path3896"
       d="m 460.89424,392.04014 c 1.30778,0.98314 2.72437,1.78439 4.14642,2.58539 1.71589,0.96386 3.36598,2.0373 5.00469,3.12536 0.89765,0.66632 1.79144,1.32737 2.63749,2.05873 1.48903,1.29077 -0.3364,3.39658 -1.82544,2.1058 l 0,0 c -0.7543,-0.65602 -1.55653,-1.24064 -2.35371,-1.8429 -1.58195,-1.0506 -3.1743,-2.08805 -4.83075,-3.01881 -1.49389,-0.84147 -2.98054,-1.68834 -4.35706,-2.71674 -1.62411,-1.11608 -0.0457,-3.4129 1.57836,-2.29683 z"
       inkscape:connector-curvature="0" />
    <path
       inkscape:connector-curvature="0"
       d="m 444.82488,381.00527 c -3.8871,-1.86267 -7.83576,-3.587 -11.7981,-5.28401 -9.96056,-4.22076 -20.06684,-8.08312 -30.12466,-12.06304 -6.76795,-2.7881 -13.51408,-5.62972 -20.24746,-8.50026 -1.10567,-0.47572 -2.20983,-0.95507 -3.30854,-1.44671 -0.15873,-0.0711 -0.31613,-0.1453 -0.4756,-0.2148 -0.0504,-0.0224 -0.18463,-0.0136 -0.15447,-0.0598 0.49767,-0.76376 1.08378,-1.46612 1.62566,-2.19918 1.56471,1.19793 -0.12944,3.41074 -1.69414,2.21281 l 0,0 c 0.36584,-0.86786 0.64393,-1.77817 1.09749,-2.60356 0.0295,-0.0544 3.93844,1.83955 4.00259,1.74764 6.71093,2.86117 13.4348,5.6929 20.17994,8.47249 10.08188,3.98948 20.21233,7.86117 30.19647,12.09265 3.94294,1.68894 7.87562,3.39947 11.74048,5.26008 1.82836,0.73513 0.78874,3.32082 -1.03961,2.5857 z"
       id="path3898"
       style="fill:#000000;fill-opacity:1;fill-rule:nonzero;stroke:none" />
    <path
       inkscape:connector-curvature="0"
       d="m 444.80335,379.96889 c -1.64487,-1.74199 -3.26718,-3.5036 -4.87243,-5.2821 -1.11114,-1.38089 -2.24631,-2.74056 -3.44262,-4.04857 -0.14771,-0.16102 -0.29804,-0.31957 -0.45078,-0.47585 -1.37608,-1.41057 0.61874,-3.35665 1.99487,-1.94605 l 0,0 c 0.17332,0.17817 0.34483,0.35807 0.51269,0.5414 1.19987,1.31269 2.34472,2.67234 3.45468,4.06186 1.54819,1.71534 3.11587,3.41161 4.69269,5.10044 1.44879,1.33578 -0.44028,3.38468 -1.88926,2.04874 z"
       id="path3900"
       style="fill:#000000;fill-opacity:1;fill-rule:nonzero;stroke:none" />
    <path
       inkscape:connector-curvature="0"
       d="m 445.67746,381.30724 c -1.61437,0.26576 -3.17249,0.73587 -4.7342,1.21012 -1.88249,0.57405 -3.79871,1.02482 -5.71762,1.45727 -1.10195,0.18829 -2.19743,0.37744 -3.31073,0.48349 -1.96198,0.18418 -2.22243,-2.59051 -0.26043,-2.77467 l 0,0 c 0.99543,-0.0918 1.97239,-0.26759 2.95862,-0.42754 1.85261,-0.41732 3.70291,-0.85123 5.52039,-1.4052 1.64061,-0.49819 3.28011,-0.98742 4.9747,-1.27159 1.92909,-0.40253 2.4983,2.32561 0.56927,2.72812 z"
       id="path3902"
       style="fill:#000000;fill-opacity:1;fill-rule:nonzero;stroke:none" />
    <path
       style="fill:#000000;fill-opacity:1;fill-rule:nonzero;stroke:none"
       id="path3904"
       d="m 514.50151,328.82587 c -3.24456,2.83757 -6.38626,5.78627 -9.50828,8.75832 -7.80659,7.48899 -15.34127,15.25321 -22.96489,22.92655 -5.23104,5.12004 -10.50266,10.19893 -15.79582,15.2547 -0.87319,0.82846 -1.74911,1.65413 -2.63417,2.46993 -0.12794,0.11781 -0.25819,0.23321 -0.38493,0.35234 -0.0404,0.0376 -0.0853,0.16434 -0.11593,0.11836 -0.50563,-0.75853 -0.91994,-1.5741 -1.37991,-2.36115 1.71788,-0.96551 3.08331,1.46394 1.36542,2.42945 l 0,0 c -0.65325,-0.67843 -1.38013,-1.29296 -1.95979,-2.03524 -0.0383,-0.0486 3.24357,-2.89388 3.1844,-2.98908 5.2757,-5.03882 10.52946,-10.10115 15.74369,-15.20358 7.64189,-7.69169 15.19468,-15.47444 23.02041,-22.98087 3.10694,-2.95739 6.22967,-5.89686 9.46358,-8.71482 1.39655,-1.3903 3.36275,0.58472 1.96619,1.97503 z"
       inkscape:connector-curvature="0" />
    <path
       style="fill:#000000;fill-opacity:1;fill-rule:nonzero;stroke:none"
       id="path3906"
       d="m 513.54064,328.43695 c -2.24948,0.82465 -4.50807,1.62083 -6.77547,2.39465 -1.70716,0.47655 -3.40429,0.98357 -5.07804,1.56713 -0.20624,0.0722 -0.41122,0.14788 -0.61506,0.2266 -1.83891,0.70832 -2.84065,-1.89227 -1.0017,-2.60062 l 0,0 c 0.23207,-0.0891 0.46504,-0.17568 0.69971,-0.25764 1.67947,-0.58499 3.3804,-1.10091 5.09502,-1.57297 2.18686,-0.74631 4.36387,-1.51804 6.53763,-2.30111 1.79887,-0.80464 2.93679,1.73932 1.13772,2.54407 z"
       inkscape:connector-curvature="0" />
    <path
       style="fill:#000000;fill-opacity:1;fill-rule:nonzero;stroke:none"
       id="path3908"
       d="m 515.11521,328.16145 c -0.39238,1.58836 -0.57478,3.20559 -0.75483,4.82775 -0.2148,1.95632 -0.55619,3.89501 -0.91549,5.82895 -0.26152,1.08691 -0.51969,2.16821 -0.86126,3.23311 -0.60445,1.87562 -3.25696,1.02079 -2.65251,-0.85483 l 0,0 c 0.30817,-0.95098 0.53187,-1.91809 0.7738,-2.88747 0.34706,-1.86704 0.67797,-3.73852 0.88559,-5.62717 0.18911,-1.70412 0.38609,-3.40368 0.79319,-5.07301 0.3908,-1.93149 3.12234,-1.37876 2.73151,0.55267 z"
       inkscape:connector-curvature="0" />
    <path
       inkscape:connector-curvature="0"
       d="m 369.36338,421.49945 c -4.08125,1.38652 -8.10977,2.91497 -12.129,4.47252 -10.07191,3.94769 -19.99737,8.25348 -29.97041,12.44133 -6.7878,2.73939 -13.59743,5.42528 -20.41817,8.08159 -1.12307,0.43305 -2.24759,0.86247 -3.3768,1.2793 -0.1632,0.0601 -0.3276,0.11718 -0.49019,0.179 -0.0517,0.0193 -0.14148,0.11943 -0.15229,0.0652 -0.17829,-0.89399 -0.25043,-1.80592 -0.37564,-2.70888 1.95621,-0.23776 2.29243,2.52875 0.33622,2.76651 l 0,0 c -0.34532,-0.87622 -0.78306,-1.72144 -1.03599,-2.62865 -0.0169,-0.0595 4.10179,-1.43892 4.08338,-1.5495 6.79813,-2.64728 13.58494,-5.32466 20.3505,-8.05419 9.99692,-4.19786 19.94618,-8.51389 30.04245,-12.4704 3.99969,-1.54974 8.00715,-3.0769 12.07108,-4.44932 1.82107,-0.75297 2.88594,1.82243 1.06487,2.57539 z"
       id="path3910"
       style="fill:#000000;fill-opacity:1;fill-rule:nonzero;stroke:none" />
    <path
       inkscape:connector-curvature="0"
       d="m 368.6233,420.77364 c -2.39398,-0.0951 -4.78553,-0.22002 -7.1767,-0.36895 -1.75993,-0.21013 -3.52218,-0.38841 -5.29201,-0.48693 -0.2182,-0.0119 -0.43654,-0.02 -0.65499,-0.025 -1.97008,-0.0461 -1.90484,-2.83222 0.0653,-2.78611 l 0,0 c 0.24848,0.006 0.49689,0.0148 0.74509,0.0285 1.77566,0.0994 3.54483,0.2708 5.30994,0.488 2.30622,0.14365 4.61303,0.26006 6.92118,0.36475 1.96975,-0.0582 2.05202,2.72748 0.082,2.78566 z"
       id="path3912"
       style="fill:#000000;fill-opacity:1;fill-rule:nonzero;stroke:none" />
    <path
       inkscape:connector-curvature="0"
       d="m 370.18402,421.11915 c -0.96824,1.31885 -1.75335,2.74445 -2.53816,4.17549 -0.94433,1.72672 -1.99897,3.38889 -3.06835,5.03985 -0.65609,0.90516 -1.30695,1.80639 -2.02866,2.66068 -1.27379,1.50359 -3.40019,-0.29782 -2.12639,-1.80141 l 0,0 c 0.64742,-0.7617 1.2229,-1.57051 1.81607,-2.37448 1.03257,-1.59377 2.05189,-3.1978 2.96378,-4.8647 0.82446,-1.50335 1.6544,-2.99952 2.66711,-4.38762 1.09757,-1.63667 3.41216,-0.0844 2.3146,1.55219 z"
       id="path3914"
       style="fill:#000000;fill-opacity:1;fill-rule:nonzero;stroke:none" />
    <path
       style="fill:#000000;fill-opacity:1;fill-rule:nonzero;stroke:none"
       id="path3916"
       d="m 394.88082,326.0253 c 1.73732,1.89236 3.09283,4.0614 4.40962,6.25409 1.91827,3.27638 3.41634,6.76459 4.95792,10.22574 0.61519,1.36235 1.13489,2.78701 1.70004,4.1597 -0.84387,0.0199 -1.70456,0.22835 -2.53163,0.0596 -0.0124,-0.003 0.89509,-4.11674 0.95183,-4.36651 0.93348,-3.52326 1.93105,-7.02478 2.75064,-10.57772 0.51466,-2.31979 0.84057,-4.67164 1.12658,-7.02805 0.23747,-1.95626 3.00404,-1.62042 2.76656,0.33583 l 0,0 c -0.29795,2.45425 -0.64055,4.90337 -1.1777,7.31915 -0.82018,3.54948 -1.80948,7.05006 -2.74853,10.56851 -0.2898,1.27401 -0.56552,2.55009 -0.82787,3.82954 -0.0312,0.15207 0.0366,0.39275 -0.1063,0.4534 -0.84589,0.35902 -1.77387,0.4807 -2.66081,0.72105 -0.69275,-1.39987 -1.08083,-2.94459 -1.78864,-4.34072 -1.49529,-3.35806 -2.94484,-6.74394 -4.80147,-9.92511 -1.1995,-1.99886 -2.42211,-3.97993 -3.99086,-5.71786 -1.39344,-1.39344 0.57718,-3.36405 1.97062,-1.97062 z"
       inkscape:connector-curvature="0" />
    <path
       style="fill:#000000;fill-opacity:1;fill-rule:nonzero;stroke:none"
       id="path3920"
       d="m 416.61177,320.61508 c 1.70816,0.33384 3.45147,0.40924 5.18558,0.4951 1.16637,0.0501 2.33378,0.0741 3.50116,0.0813 0.0765,0.002 0.3237,-5.7e-4 0.36758,-0.001 1.96881,-0.0843 2.08808,2.69999 0.11927,2.78432 l 0,0 c -0.16799,0.005 -0.33604,0.005 -0.5041,0.004 -1.20766,-0.008 -2.41535,-0.0324 -3.62195,-0.0847 -1.91502,-0.0951 -3.84097,-0.18364 -5.72345,-0.57489 -1.91178,-0.47795 -1.23587,-3.18161 0.67591,-2.70366 z"
       inkscape:connector-curvature="0" />
    <path
       style="fill:#000000;fill-opacity:1;fill-rule:nonzero;stroke:none"
       id="path3928"
       d="m 469.60729,323.68392 c 1.06754,2.48462 2.29269,4.90009 3.63037,7.24925 1.44823,2.2641 2.6927,4.65354 4.13964,6.91676 0.25127,0.39089 0.60386,0.89151 0.87347,1.21654 -0.64158,-0.62091 0.51462,0.45341 -2.24734,0.29116 -0.16815,-0.01 0.0623,-0.33121 0.10142,-0.49505 0.0662,-0.27723 0.14687,-0.55083 0.21441,-0.82773 0.24928,-1.02199 0.20242,-0.87379 0.3899,-1.98319 0.46366,-2.93014 0.71913,-5.88719 1.12001,-8.82464 0.22748,-2.16682 0.72698,-4.2629 1.4385,-6.3161 0.47104,-1.10667 0.93995,-2.21425 1.40249,-3.32451 0.0573,-0.13732 0.11403,-0.27487 0.17048,-0.41254 0.74457,-1.82454 3.32486,-0.77156 2.58029,1.05298 l 0,0 c -0.059,0.14393 -0.1183,0.28775 -0.17822,0.43131 -0.44078,1.058 -0.88304,2.11551 -1.34198,3.16578 -0.65225,1.87983 -1.10892,3.79569 -1.31056,5.78192 -0.40949,2.96711 -0.66022,5.95614 -1.13407,8.91585 -0.11975,0.69226 -0.76735,6.65833 -3.2219,4.46833 -0.46179,-0.49917 -0.82245,-1.08231 -1.20599,-1.64063 -1.46955,-2.30552 -2.74324,-4.73256 -4.21346,-7.03923 -1.3581,-2.39393 -2.61744,-4.84798 -3.70012,-7.37994 -0.88128,-1.76257 1.61137,-3.0089 2.49266,-1.24632 z"
       inkscape:connector-curvature="0" />
    <path
       style="fill:#000000;fill-opacity:1;fill-rule:nonzero;stroke:none"
       id="path3930"
       d="m 493.31785,309.33805 c 0.44896,2.31459 0.49729,4.6859 0.57583,7.03568 0.0568,2.00108 0.0773,4.00298 0.0838,6.00478 4.9e-4,0.2964 8.7e-4,0.5928 -0.002,0.88919 -0.0177,1.97054 -2.80443,1.94555 -2.78676,-0.025 l 0,0 c 0.003,-0.28506 0.002,-0.57013 0.002,-0.8552 -0.006,-1.97386 -0.0265,-3.9478 -0.0823,-5.92095 -0.0716,-2.15412 -0.11455,-4.32592 -0.49416,-6.4526 -0.47794,-1.91178 2.22572,-2.5877 2.70366,-0.67592 z"
       inkscape:connector-curvature="0" />
    <path
       style="fill:#000000;fill-opacity:1;fill-rule:nonzero;stroke:none"
       id="path3932"
       d="m 487.97333,315.54873 c 2.44731,-0.34344 4.9213,-0.44662 7.38806,-0.55267 0.78752,-0.03 1.5753,-0.0532 2.36321,-0.07 0.45757,-0.01 0.56819,0.0417 0.35211,-0.0375 1.8881,-0.56429 2.68613,2.10587 0.79804,2.67017 l 0,0 c -1.11582,0.24408 -2.25535,0.15512 -3.39375,0.22169 -2.35344,0.10103 -4.71367,0.19777 -7.04951,0.51732 -1.9438,0.32397 -2.40196,-2.42498 -0.45816,-2.74895 z"
       inkscape:connector-curvature="0" />
    <path
       style="fill:#000000;fill-opacity:1;fill-rule:nonzero;stroke:none"
       id="path3936"
       d="m 483.99477,361.42846 c 1.53655,1.17701 2.99651,2.43589 4.20825,3.9487 1.4178,1.91187 1.85854,4.25572 2.3189,6.53646 0.46954,2.79072 0.57243,5.62458 0.64086,8.4483 0.0375,2.48407 -0.5254,4.84249 -1.46432,7.12271 -0.41837,1.20081 -1.34901,2.13718 -1.80271,3.31524 -0.12964,0.32617 -0.16175,0.67574 -0.18768,1.02231 -0.17079,1.9632 -2.94717,1.72167 -2.77639,-0.24153 l 0,0 c 0.0594,-0.63097 0.14485,-1.26174 0.39137,-1.85215 0.50308,-1.16351 1.28027,-2.1617 1.80262,-3.31503 0.80804,-1.9144 1.27313,-3.892 1.25105,-5.98431 -0.064,-2.66201 -0.15656,-5.33354 -0.58699,-7.96618 -0.36971,-1.84651 -0.67507,-3.78271 -1.77432,-5.35926 -1.03779,-1.34209 -2.36726,-2.3983 -3.69276,-3.44576 -1.57649,-1.18237 0.0956,-3.41187 1.67212,-2.2295 z"
       inkscape:connector-curvature="0" />
    <path
       style="fill:#000000;fill-opacity:1;fill-rule:nonzero;stroke:none"
       id="path3940"
       d="m 509.30522,379.05615 c -1.57358,0.23532 -2.76368,1.12103 -3.70348,2.36029 -1.30765,2.06921 -1.57569,4.33467 -1.1933,6.70286 0.50098,2.04377 1.59389,3.05051 3.66934,3.27476 2.43383,0.0238 3.81315,-1.58462 4.86982,-3.57724 0.82485,-2.45788 0.3797,-4.40903 -1.18256,-6.40796 -0.8017,-0.84516 -1.76673,-1.43663 -2.89052,-1.7256 -0.18496,-0.0331 -0.10648,-0.0246 -0.23428,-0.0344 -1.95526,-0.24553 -1.60802,-3.01069 0.34724,-2.76515 l 0,0 c 0.38694,0.0537 0.18149,0.019 0.61545,0.10954 1.71934,0.47922 3.20583,1.39324 4.3922,2.74426 2.24733,3.0861 2.73712,5.77589 1.39368,9.42359 -1.85262,3.27511 -3.79874,5.04891 -7.73976,4.98663 -0.50205,-0.0918 -1.01892,-0.12354 -1.50617,-0.27546 -2.46416,-0.76832 -3.95695,-2.91359 -4.49051,-5.33978 -0.45974,-3.25431 -0.0639,-6.06165 1.77339,-8.85726 1.44693,-1.74736 2.91888,-2.91355 5.20355,-3.32276 1.91178,-0.47794 2.58769,2.22572 0.67591,2.70366 z"
       inkscape:connector-curvature="0" />
    <path
       style="fill:#000000;fill-opacity:1;fill-rule:nonzero;stroke:none"
       id="path3942"
       d="m 509.99734,372.54728 c -0.002,3.16231 0.0358,6.32339 -0.0844,9.48373 -0.22478,4.14246 -0.41257,8.28635 -0.53456,12.43312 -0.0441,1.67887 -0.074,3.35819 -0.0824,5.03764 -0.003,1.29913 0.1679,0.42441 -2.78467,0.20237 0.0117,-1.97058 2.79848,-1.95409 2.78682,0.0165 l 0,0 c -2.91871,0.23139 -2.78946,1.10147 -2.78899,-0.23283 0.009,-1.70212 0.0388,-3.40412 0.0836,-5.10566 0.12235,-4.15516 0.30973,-8.30749 0.53542,-12.45831 0.12179,-3.12449 0.078,-6.25005 0.0823,-9.37655 0,-1.97062 2.78687,-1.97062 2.78687,0 z"
       inkscape:connector-curvature="0" />
    <path
       style="fill:#000000;fill-opacity:1;fill-rule:nonzero;stroke:none"
       id="path3944"
       d="m 523.26738,381.90359 c 1.68035,0.27519 3.37767,0.41388 5.07578,0.51869 0.53897,0.0314 1.07827,0.0567 1.61783,0.0753 1.96943,0.0683 1.87285,2.85348 -0.0966,2.78519 l 0,0 c -0.5647,-0.0196 -1.12915,-0.0459 -1.69324,-0.0789 -1.79394,-0.11112 -3.5869,-0.25981 -5.36195,-0.5513 -1.94381,-0.32397 -1.48565,-3.07292 0.45816,-2.74895 z"
       inkscape:connector-curvature="0" />
    <path
       style="fill:#000000;fill-opacity:1;fill-rule:nonzero;stroke:none"
       id="path3946"
       d="m 524.1915,387.68882 c 1.09832,0.56972 2.30658,0.51942 3.50847,0.50331 0.92691,-0.0233 1.85288,-0.073 2.77962,-0.10125 0.7196,-0.0609 1.38403,0.25077 2.05027,0.47078 1.87101,0.61858 0.99622,3.26459 -0.8748,2.64601 l 0,0 c -0.40857,-0.13521 -0.755,-0.34569 -1.09118,-0.3312 -0.94335,0.0284 -1.88585,0.0804 -2.82941,0.10232 -1.64384,0.0189 -3.29543,-0.0151 -4.7893,-0.79732 -1.76257,-0.88129 -0.51624,-3.37394 1.24633,-2.49265 z"
       inkscape:connector-curvature="0" />
    <path
       style="fill:#000000;fill-opacity:1;fill-rule:nonzero;stroke:none"
       id="path3948"
       d="m 548.32141,381.14631 c -1.60487,0.4401 -2.62928,1.75989 -3.45761,3.11864 -1.06942,2.20349 -1.34506,4.62156 -0.73588,6.983 1.04263,2.234 2.80824,3.05136 5.1808,3.21658 2.94738,-0.31514 4.64745,-1.95351 5.98036,-4.4745 1.00102,-2.53195 0.4508,-4.88456 -1.2096,-6.95494 -1.06682,-1.1116 -2.43876,-1.67135 -3.92742,-1.92721 -0.0989,-0.0409 -1.29276,-0.10352 -0.85373,-0.041 -1.8791,0.59353 -2.71848,-2.06393 -0.83938,-2.65746 l 0,0 c 0.74314,-0.15735 1.43083,-0.19953 2.18472,-0.0448 2.1791,0.402 4.14715,1.30019 5.65294,2.98188 2.50333,3.40324 2.93472,5.97623 1.43376,9.98759 -0.31125,0.54909 -0.57427,1.12847 -0.93375,1.64727 -1.80899,2.61067 -4.62133,4.10518 -7.76739,4.25589 -0.60336,-0.0731 -1.21756,-0.0841 -1.81008,-0.21936 -2.74436,-0.62666 -4.80043,-2.54565 -5.80317,-5.12816 -0.11865,-0.53434 -0.28322,-1.06053 -0.35594,-1.60303 -0.34414,-2.56741 0.32425,-5.21223 1.44375,-7.50407 1.25497,-1.95606 2.79806,-3.73267 5.14171,-4.34009 1.91178,-0.47794 2.58769,2.22572 0.67591,2.70367 z"
       inkscape:connector-curvature="0" />
    <path
       style="fill:#000000;fill-opacity:1;fill-rule:nonzero;stroke:none"
       id="path3950"
       d="m 549.75198,372.04264 c 0.49679,2.57961 0.50885,5.22469 0.57614,7.84199 0.0766,4.14878 0.0797,8.29847 0.0835,12.44782 10e-4,2.60725 -10e-4,5.2145 -0.003,7.82175 -0.0252,0.57189 -0.0147,1.19556 0.30057,1.69548 -0.76684,-0.0454 -1.53368,-0.0908 -2.30052,-0.13614 1.00553,-1.69477 3.40229,-0.27274 2.39677,1.42203 l 0,0 c -0.82582,0.054 -1.65163,0.10804 -2.47745,0.16206 -0.55286,-0.95564 -0.76278,-2.04439 -0.70624,-3.14553 0.002,-2.6057 0.004,-5.2114 0.003,-7.8171 -0.004,-4.12639 -0.007,-8.2531 -0.0825,-12.37893 -0.0618,-2.41461 -0.0714,-4.8524 -0.49385,-7.23751 -0.47794,-1.91178 2.22572,-2.5877 2.70366,-0.67592 z"
       inkscape:connector-curvature="0" />
    <path
       style="fill:#000000;fill-opacity:1;fill-rule:nonzero;stroke:none"
       id="path3952"
       d="m 561.11754,375.84462 c 1.4714,0.6242 3.09722,0.77246 4.67318,0.92988 0.87026,0.0721 1.74195,0.1409 2.61534,0.15935 0.11477,4.8e-4 0.0499,5e-4 0.19456,-5.6e-4 1.97058,-0.0125 1.98824,2.77433 0.0177,2.78682 l 0,0 c -0.19456,0.001 -0.1035,0.001 -0.27316,-5e-5 -0.94623,-0.0213 -1.89075,-0.0923 -2.83351,-0.1727 -1.91227,-0.19383 -3.87267,-0.40459 -5.6404,-1.21009 -1.76257,-0.88129 -0.51625,-3.37394 1.24633,-2.49265 z"
       inkscape:connector-curvature="0" />
    <path
       style="fill:#000000;fill-opacity:1;fill-rule:nonzero;stroke:none"
       id="path3954"
       d="m 580.3854,384.29835 c 0.80006,1.77572 1.09182,3.72598 1.13364,5.65784 -0.0593,1.49587 -0.21954,2.98579 -0.37655,4.474 -0.0264,0.24622 -0.0533,0.49238 -0.0829,0.73824 -0.23557,1.95649 -3.00246,1.62334 -2.76689,-0.33314 l 0,0 c 0.028,-0.23229 0.0532,-0.46491 0.0783,-0.69754 0.14557,-1.37935 0.29187,-2.76006 0.36139,-4.14566 -7.4e-4,-1.51097 -0.25557,-3.04748 -0.83966,-4.44741 -0.88128,-1.76257 1.61137,-3.0089 2.49266,-1.24633 z"
       inkscape:connector-curvature="0" />
    <path
       style="fill:#000000;fill-opacity:1;fill-rule:nonzero;stroke:none"
       id="path3956"
       d="m 574.76668,387.49997 c 1.82374,0.5121 3.6799,0.80972 5.56166,1.00592 1.64523,0.14852 3.29561,0.22922 4.94684,0.26631 0.21147,0.005 0.4232,0.006 0.63462,0.003 1.96888,-0.0827 2.08581,2.70173 0.11693,2.78442 l 0,0 c -0.27136,0.01 -0.54301,0.002 -0.81442,-0.002 -1.72748,-0.0391 -3.45408,-0.12386 -5.17516,-0.28086 -2.01103,-0.21278 -3.9959,-0.53261 -5.94638,-1.07386 -1.91178,-0.47795 -1.23586,-3.18161 0.67591,-2.70367 z"
       inkscape:connector-curvature="0" />
    <path
       style="fill:#000000;fill-opacity:1;fill-rule:nonzero;stroke:none"
       id="path3958"
       d="m 600.25685,381.36437 c -1.37581,1.74965 -2.69682,3.46931 -3.63451,5.50026 -1.15109,3.19399 -1.54224,5.35181 -0.0693,8.48266 1.87067,2.33926 3.89344,2.80154 6.74024,2.16563 3.10671,-1.12419 3.89951,-3.46879 4.18516,-6.52874 -0.10537,-3.06329 -1.46317,-5.26602 -3.69157,-7.24701 -0.95302,-0.75103 -2.05831,-1.1579 -3.25103,-1.29252 -0.62864,0.0492 0.27998,-0.0829 0.39613,-0.13433 -1.50827,1.26824 -3.30184,-0.86478 -1.79357,-2.13302 l 0,0 c 0.53761,-0.35006 1.06062,-0.63139 1.73293,-0.49926 1.76293,0.22349 3.39177,0.85288 4.78173,1.98936 2.97145,2.70926 4.52076,5.49798 4.59654,9.61224 -0.0774,0.66296 -0.0967,1.33532 -0.23228,1.98888 -0.70353,3.39228 -2.86394,5.94983 -6.18731,6.9791 -0.62475,0.11119 -1.241,0.29271 -1.87426,0.33358 -3.29343,0.21259 -6.15544,-1.39795 -7.94656,-4.09571 -0.24363,-0.56499 -0.54251,-1.10924 -0.7309,-1.69498 -0.98147,-3.05146 -0.28013,-6.2037 0.82173,-9.11103 0.96698,-2.02925 2.16072,-3.88262 3.66418,-5.56143 0.88129,-1.76257 3.37394,-0.51625 2.49265,1.24632 z"
       inkscape:connector-curvature="0" />
    <path
       style="fill:#000000;fill-opacity:1;fill-rule:nonzero;stroke:none"
       id="path3962"
       d="m 602.02036,376.37097 c 0.41244,2.96353 0.52321,5.96221 0.7562,8.94487 0.31427,4.07211 0.45448,8.15444 0.5402,12.23686 0.031,1.7317 0.0486,3.46365 0.0472,5.19563 -0.002,0.24923 2.8e-4,0.49856 -0.007,0.74773 -0.0802,1.96898 -2.86472,1.85563 -2.78457,-0.11335 l 0,0 c 0.002,-0.13855 0.004,-0.46243 0.004,-0.63666 0.001,-1.71174 -0.0161,-3.42343 -0.0466,-5.13489 -0.0845,-4.0295 -0.22235,-8.05894 -0.53236,-12.07829 -0.22438,-2.87243 -0.34021,-5.75839 -0.71055,-8.61535 -0.38647,-1.93235 2.34629,-2.4789 2.73276,-0.54655 z"
       inkscape:connector-curvature="0" />
    <path
       style="fill:#000000;fill-opacity:1;fill-rule:nonzero;stroke:none"
       id="path3964"
       d="m 617.29186,371.76722 c -0.09,1.98632 0.097,3.95313 0.30763,5.92487 0.17488,1.55424 0.28459,3.11461 0.36427,4.6763 0.014,0.2764 0.025,0.55291 0.0297,0.82961 0.0141,1.97056 -2.77268,1.99053 -2.7868,0.02 l 0,0 c -0.004,-0.23607 -0.0155,-0.47192 -0.0262,-0.70775 -0.0769,-1.51023 -0.1827,-3.01919 -0.35212,-4.52217 -0.22097,-2.06957 -0.41157,-4.13635 -0.32339,-6.22083 0,-1.97061 2.78687,-1.97061 2.78687,0 z"
       inkscape:connector-curvature="0" />
    <path
       style="fill:#000000;fill-opacity:1;fill-rule:nonzero;stroke:none"
       id="path3966"
       d="m 611.97793,375.1479 c 1.27,0.5917 2.64907,0.79528 4.02904,0.92975 1.83165,0.13086 3.66882,0.14954 5.50437,0.15917 -0.51893,0.2959 1.70454,-0.20424 1.06059,-0.002 -0.86197,0.27104 -0.21189,-0.13215 -0.8396,0.32786 1.22187,-1.54607 3.40835,0.18192 2.18647,1.72799 l 0,0 c -0.79743,0.73856 -1.40668,0.78542 -2.42215,0.73274 -1.92293,-0.0102 -3.84768,-0.0305 -5.76621,-0.17288 -1.71695,-0.17454 -3.42705,-0.45657 -4.99884,-1.21022 -1.76257,-0.88128 -0.51624,-3.37394 1.24633,-2.49265 z"
       inkscape:connector-curvature="0" />
    <path
       style="fill:#000000;fill-opacity:1;fill-rule:nonzero;stroke:none"
       id="path3968"
       d="m 415.97903,373.97928 c -0.63238,0.76124 -1.1044,1.63799 -1.54509,2.52015 -0.68959,1.1776 -1.12749,2.47867 -1.48978,3.78825 -0.41176,1.55965 -0.80339,3.10448 -0.99136,4.70938 -0.26658,1.60647 -0.0463,3.14599 0.37176,4.6976 0.34576,1.03017 0.44153,2.13026 0.86475,3.13145 0.14696,0.68452 0.50989,1.06904 0.93256,1.58677 0.27457,0.35898 0.13587,0.24671 0.35677,0.39914 1.43951,1.34579 -0.46371,3.38156 -1.90323,2.03578 l 0,0 c -0.49922,-0.49831 -0.30155,-0.26282 -0.62047,-0.68247 -0.56008,-0.70234 -1.1179,-1.38426 -1.34296,-2.27903 -0.45366,-1.12249 -0.6369,-2.31412 -0.98001,-3.47289 -0.50103,-1.89181 -0.7529,-3.79255 -0.44643,-5.74638 0.21139,-1.74566 0.62225,-3.43271 1.07449,-5.12906 0.41728,-1.48209 0.91184,-2.95749 1.68675,-4.2958 0.58176,-1.14072 1.19607,-2.27831 2.06163,-3.2335 1.39344,-1.39344 3.36405,0.57718 1.97062,1.97061 z"
       inkscape:connector-curvature="0" />
    <path
       style="fill:#000000;fill-opacity:1;fill-rule:nonzero;stroke:none"
       id="path3970"
       d="m 382.35458,376.98054 c -1.41712,0.19083 -2.31558,0.82374 -3.25751,1.8444 -1.03647,1.54467 -1.29672,3.45228 -1.30413,5.2745 0.15618,2.14796 0.98978,3.30577 2.84126,4.32155 2.26837,1.03412 4.42389,0.25378 6.42552,-0.96903 1.77541,-1.34234 3.04716,-2.79907 3.15063,-5.08163 -0.17998,-1.94857 -1.46795,-3.46927 -2.89682,-4.69796 -1.11485,-0.84463 -2.31368,-1.32318 -3.70024,-1.03302 -0.4885,0.12776 -0.81589,0.39875 -1.14485,0.75903 -1.43773,1.34768 -3.34365,-0.68557 -1.90592,-2.03326 l 0,0 c 0.78768,-0.69276 1.54606,-1.26768 2.60856,-1.47733 2.23957,-0.30663 4.20429,0.25698 5.98161,1.69075 2.08572,1.86109 3.75836,4.11141 3.83529,7.01865 -0.0482,0.46634 -0.0471,0.94043 -0.14444,1.39903 -0.5298,2.49501 -2.38121,4.39468 -4.36363,5.8536 -3.14271,1.8184 -5.79237,2.54812 -9.2508,0.9779 -2.87309,-1.74389 -3.95806,-3.3875 -4.22276,-6.76828 0.0558,-2.53016 0.47233,-5.09042 2.06243,-7.1457 1.31604,-1.3759 2.80938,-2.39636 4.73925,-2.66595 1.93235,-0.38647 2.4789,2.34629 0.54655,2.73275 z"
       inkscape:connector-curvature="0" />
    <path
       style="fill:#000000;fill-opacity:1;fill-rule:nonzero;stroke:none"
       id="path3972"
       d="m 383.94772,370.79723 c 0.44497,2.67883 0.48934,5.40416 0.56156,8.11258 0.0515,3.68406 0.38543,7.35694 0.58633,11.0349 0.0925,1.82987 0.16148,3.66111 0.18938,5.49315 0.0122,1.70489 0.2789,0.93518 -2.78366,0.74567 -0.016,-1.97055 2.77074,-1.99323 2.78677,-0.0227 l 0,0 c -3.08824,0.19888 -2.76816,0.98098 -2.78966,-0.68069 -0.0272,-1.79547 -0.0951,-3.59015 -0.18556,-5.3835 -0.20217,-3.70389 -0.53829,-7.40265 -0.58948,-11.11274 -0.0677,-2.55009 -0.10575,-5.11573 -0.50843,-7.64014 -0.38647,-1.93235 2.34628,-2.4789 2.73275,-0.54655 z"
       inkscape:connector-curvature="0" />
    <path
       style="fill:#000000;fill-opacity:1;fill-rule:nonzero;stroke:none"
       id="path3974"
       d="m 394.06219,372.04724 c 1.72896,0 3.45792,0 5.18688,0 0.87229,0 1.74458,0 2.61686,0 0.0597,0 0.11944,0 0.17916,0 1.97062,0 1.97062,2.78687 0,2.78687 l 0,0 c -0.0597,0 -0.11944,0 -0.17916,0 -0.87228,0 -1.74457,0 -2.61686,0 -1.72896,0 -3.45792,0 -5.18688,0 -1.97062,0 -1.97062,-2.78687 0,-2.78687 z"
       inkscape:connector-curvature="0" />
    <path
       style="fill:#000000;fill-opacity:1;fill-rule:nonzero;stroke:none"
       id="path3986"
       d="m 530.91844,319.50361 c 0.61166,0.82726 1.23297,1.66813 2.01925,2.33795 1.39925,1.28645 2.49215,2.85637 3.65019,4.35276 2.14263,2.90007 4.00571,5.96999 5.51508,9.24295 1.08219,2.36875 1.89818,4.84438 2.51978,7.37022 0.16553,0.61334 0.24789,1.23961 0.24018,1.87398 -0.005,0.21798 -0.0126,0.43591 -0.02,0.65383 -0.0668,1.96949 -2.85205,1.87505 -2.78527,-0.0944 l 0,0 c 0.007,-0.20249 0.0136,-0.40499 0.0188,-0.60754 0.0115,-0.39537 -0.0572,-0.77927 -0.16019,-1.16124 -0.57699,-2.35527 -1.33781,-4.66309 -2.34583,-6.87161 -1.41081,-3.08527 -3.17934,-5.96552 -5.18664,-8.70066 -1.05139,-1.35892 -2.03774,-2.78976 -3.29361,-3.97178 -1.02748,-0.93091 -1.9235,-2.00443 -2.66441,-3.1781 -0.88129,-1.76258 1.61137,-3.0089 2.49265,-1.24633 z"
       inkscape:connector-curvature="0" />
    <path
       style="fill:#000000;fill-opacity:1;fill-rule:nonzero;stroke:none"
       id="path3990"
       d="m 556.00611,312.00458 c -1.14398,-0.0409 -1.69501,1.07599 -2.2015,1.9477 -1.2129,2.00912 -1.41134,4.08687 -0.85026,6.32304 0.85373,2.03819 2.92361,2.76687 4.91149,3.28218 2.18302,0.35982 3.02862,-0.33406 4.1912,-2.0547 1.25299,-2.39854 0.76336,-5.01672 0.0556,-7.49904 -0.40369,-0.92442 -1.44403,-3.4672 -2.66567,-3.5916 -0.62643,-0.0299 -1.25192,0.079 -1.86911,0.17555 0.0632,-0.006 0.12645,-0.0111 0.18967,-0.0167 -1.74905,0.90782 -3.0329,-1.56571 -1.28385,-2.47353 l 0,0 c 0.22166,-0.0878 0.44332,-0.1756 0.66499,-0.26341 1.10539,-0.17175 2.226,-0.34189 3.32335,-0.0134 0.31382,0.14619 0.64789,0.25508 0.94147,0.43855 1.73652,1.08521 2.65339,3.19224 3.3831,4.99418 0.91275,3.31906 1.34192,6.72939 -0.45842,9.85032 -2.00165,2.77917 -3.72459,3.7261 -7.19274,3.14595 -3.01318,-0.82603 -5.80717,-2.18116 -6.90369,-5.33513 -0.69147,-3.07627 -0.43813,-5.65442 1.18334,-8.41299 1.22148,-1.94199 2.75115,-3.61948 5.25691,-3.20062 1.91177,0.47795 1.23586,3.18161 -0.67592,2.70367 z"
       inkscape:connector-curvature="0" />
    <path
       style="fill:#000000;fill-opacity:1;fill-rule:nonzero;stroke:none"
       id="path3992"
       d="m 558.1126,303.06759 c 0.49678,2.57961 0.50884,5.22469 0.57614,7.84199 0.077,4.1835 0.0796,8.36791 0.0835,12.55198 10e-4,2.2819 -8.9e-4,4.56381 -0.003,6.84572 -4.7e-4,0.44958 -9e-4,0.89917 -10e-4,1.34876 -0.003,1.97061 -2.78963,1.9667 -2.78687,-0.004 l 0,0 c 6e-4,-0.44919 10e-4,-0.89837 10e-4,-1.34756 0.002,-2.28015 0.004,-4.56029 0.003,-6.84044 -0.004,-4.16111 -0.006,-8.32255 -0.0826,-12.4831 -0.0617,-2.41461 -0.0714,-4.8524 -0.49384,-7.23751 -0.47795,-1.91178 2.22571,-2.5877 2.70366,-0.67592 z"
       inkscape:connector-curvature="0" />
    <path
       style="fill:#000000;fill-opacity:1;fill-rule:nonzero;stroke:none"
       id="path3994"
       d="m 569.19294,303.19713 c 1.33173,0.3057 2.69548,0.4195 4.05641,0.49562 1.18022,0.0163 2.37395,0.20589 3.53024,-0.0815 0.25853,-0.0741 0.51494,-0.16047 0.75214,-0.28768 1.72906,-0.94533 3.06597,1.49994 1.3369,2.44527 l 0,0 c -0.46149,0.24553 -0.95325,0.42539 -1.45916,0.55717 -1.42686,0.3171 -2.86573,0.22571 -4.31773,0.14919 -1.5355,-0.088 -3.07368,-0.22193 -4.57471,-0.57436 -1.91178,-0.47795 -1.23586,-3.18161 0.67591,-2.70367 z"
       inkscape:connector-curvature="0" />
    <path
       style="fill:#000000;fill-opacity:1;fill-rule:nonzero;stroke:none"
       id="path3996"
       d="m 575.4888,299.39192 c 0,2.18076 0,4.36152 0,6.54229 0,1.38514 0,2.77028 0,4.15542 0,1.97061 -2.78687,1.97061 -2.78687,0 l 0,0 c 0,-1.38514 0,-2.77028 0,-4.15542 0,-2.18077 0,-4.36153 0,-6.54229 0,-1.97061 2.78687,-1.97061 2.78687,0 z"
       inkscape:connector-curvature="0" />
    <path
       style="fill:#000000;fill-opacity:1;fill-rule:nonzero;stroke:none"
       id="path4032"
       d="m 436.88372,402.0015 c 0.79617,2.42681 1.7736,4.78677 2.75917,7.14131 1.15425,2.91855 2.62398,5.69166 3.94384,8.5344 0.28882,0.65965 0.60707,1.30879 0.85667,1.98508 0.55735,1.35424 -2.8311,1.22041 -2.59381,1.07833 2.41748,-1.44749 1.89296,-2.1695 2.46201,-1.335 0.006,0.008 0.0115,0.0169 0.0173,0.0254 -0.40234,-0.20872 -0.82746,-0.37842 -1.20703,-0.62615 -0.17116,-0.11171 0.37445,-0.16398 0.5629,-0.24312 0.86612,-0.36374 0.94195,-0.38577 1.90523,-0.76313 3.46997,-1.43996 6.85829,-3.0632 10.36511,-4.41329 1.49412,-0.62278 2.9946,-1.24637 4.42291,-2.01204 0.03,-0.0178 0.0607,-0.0344 0.091,-0.0516 1.58642,-1.16902 3.23966,1.07452 1.65324,2.24354 l 0,0 c -0.1387,0.0965 -0.27981,0.18848 -0.43047,0.26579 -1.53147,0.81677 -3.13354,1.49403 -4.73651,2.15548 -3.50255,1.34506 -6.88169,2.97636 -10.34931,4.40716 -0.34089,0.13338 -2.57878,1.20596 -2.93437,1.14329 -0.56859,-0.10022 -1.09766,-0.35848 -1.64649,-0.53773 -0.005,-0.008 -0.0107,-0.0157 -0.016,-0.0236 -0.3577,-0.52456 6.1872,-3.90346 -0.18413,-0.35921 -0.22851,-0.5997 -0.50648,-1.17952 -0.7661,-1.76597 -1.33415,-2.87514 -2.82051,-5.67969 -3.98676,-8.63169 -1.03953,-2.48364 -2.07454,-4.97405 -2.89207,-7.54144 -0.47795,-1.91177 2.22572,-2.58769 2.70366,-0.67591 z"
       inkscape:connector-curvature="0" />
    <path
       style="fill:#000000;fill-opacity:1;fill-rule:nonzero;stroke:none"
       id="path4034"
       d="m 344.22027,448.68159 c 0.37327,1.56849 0.49401,3.17729 0.57487,4.78251 0.0538,2.39937 0.0517,4.78895 0.27701,7.1795 0.23257,2.05274 1.04123,3.09509 2.83034,4.00431 1.26546,0.41304 2.42414,0.22146 3.64459,-0.19293 1.87257,-0.61385 2.74069,2.03436 0.86813,2.64821 l 0,0 c -1.96389,0.62759 -3.8618,0.79277 -5.82567,0.003 -2.69,-1.48339 -3.89422,-3.10634 -4.29205,-6.2019 -0.22763,-2.43134 -0.23871,-4.86114 -0.28577,-7.30135 -0.0702,-1.42425 -0.1701,-2.8523 -0.49511,-4.24537 -0.47795,-1.91178 2.22571,-2.58769 2.70366,-0.67591 z"
       inkscape:connector-curvature="0" />
    <path
       style="fill:#000000;fill-opacity:1;fill-rule:nonzero;stroke:none"
       id="path4036"
       d="m 341.38492,456.46048 c 1.6095,0.31584 3.24654,0.42573 4.88133,0.50979 0.78929,0.052 1.56679,0.0673 2.35296,-0.0109 1.96336,-0.16899 2.20236,2.60761 0.239,2.77661 l 0,0 c -0.91488,0.0704 -1.81882,0.0921 -2.73572,0.0175 -1.77,-0.0918 -3.54197,-0.21614 -5.28412,-0.5602 -1.93235,-0.38647 -1.3858,-3.11922 0.54655,-2.73275 z"
       inkscape:connector-curvature="0" />
    <path
       style="fill:#000000;fill-opacity:1;fill-rule:nonzero;stroke:none"
       id="path4038"
       d="m 344.34655,441.49499 c -0.84447,1.07382 -1.68471,2.15188 -2.45619,3.28001 -0.42806,0.51497 -0.9207,0.9478 -1.26,1.52881 -0.12442,0.24872 -0.48917,-0.29119 -2.4569,-1.26167 0.25125,-0.63384 0.51567,-1.26887 0.76822,-1.90604 0.43697,-0.6907 0.80358,-1.41981 1.21804,-2.11887 0.42,-0.61783 0.77436,-1.23964 1.29291,-1.78959 0.28995,-0.31632 0.5636,-0.64758 0.8207,-0.99109 0.0801,-0.11443 0.037,-0.0517 -0.0113,0.0315 0.50111,-0.23994 1.00223,-0.47987 1.50334,-0.71981 1.39237,0.36069 2.36421,1.52182 3.43936,2.40889 1.01788,0.92995 2.07079,1.81999 3.05043,2.79064 1.3942,1.39267 -0.57534,3.36437 -1.96953,1.9717 l 0,0 c -0.90953,-0.91833 -1.91388,-1.73429 -2.85832,-2.61585 -1.30905,-1.08737 -0.20873,-0.15464 -1.25758,-1.0862 -0.67884,-0.60293 -0.18533,-0.15706 -0.7361,-0.61494 -0.0313,-0.026 -0.11874,-0.0564 -0.0887,-0.0839 0.0428,-0.0392 0.11609,0.004 0.17413,0.006 1.75254,-1.08751 1.35729,-0.99385 0.98339,-0.41496 -0.34816,0.46307 -0.71756,0.91097 -1.11952,1.32858 -0.32853,0.37725 -0.56575,0.87493 -0.88151,1.2905 -0.43938,0.38861 -0.47389,1.25742 -0.96927,1.63558 -0.3038,0.76496 -0.60923,1.52994 -0.94843,2.27737 -2.44325,-0.83557 -3.08363,-0.22435 -2.34598,-1.56635 0.37497,-0.62068 0.82888,-1.17504 1.35367,-1.6751 0.79571,-1.15941 1.65582,-2.27274 2.5257,-3.37695 1.18237,-1.57649 3.41187,0.0956 2.2295,1.67212 z"
       inkscape:connector-curvature="0" />
    <path
       style="fill:#000000;fill-opacity:1;fill-rule:nonzero;stroke:none"
       id="path4040"
       d="m 494.01457,426.38662 c 0.44721,2.00799 0.50269,4.07789 0.57572,6.12593 0.0786,2.99182 0.0798,5.98502 0.0839,8.97767 5e-4,1.1791 6.3e-4,2.35821 -0.003,3.53731 -1.96233,0.72211 -2.53712,1.11827 -2.9313,-0.18945 -0.54854,-1.89273 2.12818,-2.66848 2.67672,-0.77575 l 0,0 c 0.29602,1.1039 -1.1068,1.11737 -2.53227,0.95636 0.004,-1.17488 0.004,-2.34976 0.003,-3.52463 -0.004,-2.96101 -0.005,-5.92254 -0.0821,-8.88274 -0.0653,-1.85368 -0.10739,-3.72815 -0.49426,-5.54878 -0.47795,-1.91178 2.22572,-2.5877 2.70366,-0.67592 z"
       inkscape:connector-curvature="0" />
    <path
       style="fill:#000000;fill-opacity:1;fill-rule:nonzero;stroke:none"
       id="path4042"
       d="m 492.9961,424.30107 c 2.09062,-0.0839 4.16371,0.0812 6.23773,0.32507 1.13857,0.14265 2.27909,0.26682 3.42339,0.35253 -0.20353,-0.028 -0.15519,-0.0406 -0.0489,-0.11481 1.71791,-0.96545 3.08327,1.46405 1.36535,2.4295 l 0,0 c -0.49014,0.26206 -0.94886,0.46071 -1.52505,0.46437 -1.18349,-0.089 -2.36325,-0.21616 -3.54084,-0.36385 -1.96631,-0.23199 -3.92929,-0.39068 -5.91173,-0.30594 -1.97062,0 -1.97062,-2.78687 0,-2.78687 z"
       inkscape:connector-curvature="0" />
    <path
       style="fill:#000000;fill-opacity:1;fill-rule:nonzero;stroke:none"
       id="path4044"
       d="m 493.26937,432.77208 c 1.7584,0.40709 3.53972,0.31992 5.32218,0.19576 1.41179,-0.11503 2.82376,-0.22287 4.23932,-0.27749 0.2724,-0.0425 0.55129,0.01 0.82426,-0.0225 0.0471,-0.006 -0.094,-0.0117 -0.14108,-0.0175 1.86998,-0.62168 2.74918,2.02287 0.87919,2.64456 l 0,0 c -0.50356,0.11916 -0.93878,0.20955 -1.45553,0.18027 -1.38696,0.0529 -2.77019,0.16122 -4.1535,0.27287 -2.02897,0.13993 -4.06086,0.21152 -6.06139,-0.24321 -1.93235,-0.38647 -1.38579,-3.11922 0.54655,-2.73275 z"
       inkscape:connector-curvature="0" />
    <path
       style="fill:#000000;fill-opacity:1;fill-rule:nonzero;stroke:none"
       id="path4054"
       d="m 508.02048,433.3554 c 0.38434,-1.63917 1.1611,-3.10575 1.96783,-4.57351 0.67999,-1.18705 1.49925,-2.22734 2.76115,-2.82724 1.66814,-0.41905 2.52026,0.85318 3.16639,2.14244 0.70783,1.64623 1.27845,3.34697 1.86232,5.03919 0.7794,2.15252 1.57075,4.30359 2.44928,6.41933 0.79833,1.73821 1.51325,3.51869 2.45331,5.18967 0.30756,0.49406 0.59804,1.00594 0.96824,1.4591 0.0528,0.0147 -0.0791,-0.0751 -0.11995,-0.11119 1.23935,0.93705 -0.10823,2.66063 -1.34757,1.72359 l 0,0 c -0.0955,-0.0822 -0.19023,-0.16235 -0.26618,-0.26326 -0.44083,-0.55203 -0.80962,-1.15606 -1.17132,-1.75975 -0.97454,-1.7483 -1.73897,-3.59765 -2.56356,-5.41681 -0.89418,-2.15674 -1.7028,-4.34818 -2.49597,-6.54236 -0.55458,-1.60855 -1.0972,-3.22421 -1.7598,-4.79272 -0.15282,-0.32148 -0.33618,-0.61213 -0.49844,-0.92623 -0.0119,-0.0229 -0.0474,-0.0589 -0.0256,-0.0731 0.57847,-0.37472 -0.0597,0.20582 0.27454,-0.11351 -0.83893,0.3372 -1.275,1.16996 -1.74191,1.88665 -0.71938,1.3088 -1.43229,2.60105 -1.76791,4.06703 -0.37917,1.49145 -2.52402,0.96414 -2.14486,-0.52731 z"
       inkscape:connector-curvature="0" />
    <path
       style="fill:#000000;fill-opacity:1;fill-rule:nonzero;stroke:none"
       id="path4058"
       d="m 516.51588,436.79947 c -0.81965,1.55838 -1.67217,3.10181 -2.43138,4.69011 -0.6689,1.28419 -1.30397,2.58268 -1.95291,3.87661 -0.14802,0.30008 -0.29745,0.59962 -0.43645,0.90388 -0.006,0.0164 0.009,-0.0208 0.0129,-0.0312 -0.54509,1.44086 -2.61721,0.68279 -2.07212,-0.75807 l 0,0 c 0.0643,-0.16137 -0.0163,0.0394 0.037,-0.0894 0.15003,-0.33293 0.31549,-0.65893 0.47596,-0.98703 0.64336,-1.28233 1.27274,-2.56926 1.9359,-3.84195 0.77003,-1.60185 1.62321,-3.16347 2.45369,-4.73527 0.69913,-1.37504 2.67659,-0.40274 1.97746,0.9723 z"
       inkscape:connector-curvature="0" />
    <path
       style="fill:#000000;fill-opacity:1;fill-rule:nonzero;stroke:none"
       id="path4062"
       d="m 508.99619,421.5012 c 0.91009,-0.8519 1.77127,-1.74282 2.5009,-2.75041 0.50916,-0.61296 1.01908,-1.21743 1.40254,-1.91587 0.19654,-0.41056 0.14799,-0.12189 1.30702,-0.88505 1.10115,0.2942 1.75241,1.30323 2.33428,2.20028 0.67927,1.11005 1.48673,2.13486 2.33253,3.12532 0.2825,0.32435 0.56703,0.64735 0.86683,0.95642 0.003,0.003 0.006,0.006 0.01,0.009 1.11254,1.08003 -0.44066,2.62726 -1.5532,1.54723 l 0,0 c -0.0145,-0.0142 -0.029,-0.0284 -0.0435,-0.0425 -0.33889,-0.34456 -0.65502,-0.71009 -0.97352,-1.07267 -0.90912,-1.06607 -1.77621,-2.16953 -2.5086,-3.3625 -0.16825,-0.2659 -0.30803,-0.51001 -0.5081,-0.75108 -0.13987,-0.16853 -0.37305,-0.27808 -0.44563,-0.48357 -0.0305,-0.0865 0.37352,0.21009 0.27665,0.0381 1.60183,-1.2355 1.16889,-1.00823 0.84676,-0.2387 -0.4317,0.77407 -0.97001,1.47186 -1.54907,2.14505 -0.80803,1.09602 -1.73028,2.09007 -2.7324,3.01826 -1.10543,1.08706 -2.66875,-0.45028 -1.56331,-1.53735 z"
       inkscape:connector-curvature="0" />
  </g>
</svg>
