<?xml version="1.0" encoding="UTF-8" standalone="no"?>
<!-- Created with Inkscape (http://www.inkscape.org/) -->

<svg
   xmlns:dc="http://purl.org/dc/elements/1.1/"
   xmlns:cc="http://creativecommons.org/ns#"
   xmlns:rdf="http://www.w3.org/1999/02/22-rdf-syntax-ns#"
   xmlns:svg="http://www.w3.org/2000/svg"
   xmlns="http://www.w3.org/2000/svg"
   xmlns:sodipodi="http://sodipodi.sourceforge.net/DTD/sodipodi-0.dtd"
   xmlns:inkscape="http://www.inkscape.org/namespaces/inkscape"
   width="307.12631"
   height="135.15073"
   id="svg36803"
   version="1.1"
   inkscape:version="0.48.0 r9654"
   sodipodi:docname="New document 149">
  <defs
     id="defs36805" />
  <sodipodi:namedview
     inkscape:document-units="mm"
     pagecolor="#ffffff"
     bordercolor="#666666"
     borderopacity="1.0"
     inkscape:pageopacity="0.0"
     inkscape:pageshadow="2"
     inkscape:zoom="0.7176508"
     inkscape:cx="192.20035"
     inkscape:cy="-26.900437"
     inkscape:current-layer="layer1"
     id="namedview36807"
     showgrid="false"
     fit-margin-top="0"
     fit-margin-left="0"
     fit-margin-right="0"
     fit-margin-bottom="0"
     inkscape:window-width="1280"
     inkscape:window-height="752"
     inkscape:window-x="0"
     inkscape:window-y="0"
     inkscape:window-maximized="0" />
  <metadata
     id="metadata36809">
    <rdf:RDF>
      <cc:Work
         rdf:about="">
        <dc:format>image/svg+xml</dc:format>
        <dc:type
           rdf:resource="http://purl.org/dc/dcmitype/StillImage" />
        <dc:title></dc:title>
      </cc:Work>
    </rdf:RDF>
  </metadata>
  <g
     inkscape:label="Layer 1"
     inkscape:groupmode="layer"
     id="layer1"
     transform="translate(-333.98074,-209.99608)">
    <path
       style="fill:#000000;fill-opacity:1;fill-rule:nonzero;stroke:none"
       id="path37320"
       d="m 435.26086,294.08377 c -0.8557,8.57996 -0.90967,17.21893 -1.04925,25.83331 0.0259,7.33299 -0.19775,14.65379 -0.55322,21.97667 -0.14341,2.95244 -4.3188,2.74963 -4.17539,-0.20281 l 0,0 c 0.35374,-7.27793 0.57501,-14.5536 0.54885,-21.84163 0.14258,-8.78912 0.19673,-17.60442 1.09072,-26.35672 0.41803,-2.92622 4.55632,-2.33503 4.13829,0.59118 z"
       inkscape:connector-curvature="0" />
    <path
       style="fill:#000000;fill-opacity:1;fill-rule:nonzero;stroke:none"
       id="path37322"
       d="m 433.98005,291.63239 c 11.67402,-0.17338 23.34481,-0.54373 35.01602,-0.86663 13.99604,-0.38347 27.99735,-0.33235 41.99532,-0.12482 2.9556,0.0438 2.89359,4.22369 -0.062,4.17985 l 0,0 c -13.93877,-0.20686 -27.88086,-0.25807 -41.81771,0.12367 -11.78545,0.32602 -23.57031,0.71057 -35.35912,0.86204 -2.95154,-0.16086 -2.72405,-4.33497 0.22749,-4.17411 z"
       inkscape:connector-curvature="0" />
    <path
       inkscape:connector-curvature="0"
       d="m 508.04422,341.15581 c 0.79892,-8.58543 0.79573,-17.22457 0.87832,-25.83968 -0.0744,-7.33266 0.1008,-14.65478 0.40782,-21.97985 0.12387,-2.95333 4.30051,-2.77814 4.17664,0.17518 l 0,0 c -0.30558,7.28011 -0.47872,14.55709 -0.40434,21.84478 -0.0844,8.78987 -0.0803,17.60534 -0.91633,26.36336 -0.39867,2.92892 -4.54078,2.36512 -4.14211,-0.56379 z"
       id="path37324"
       style="fill:#000000;fill-opacity:1;fill-rule:nonzero;stroke:none" />
    <path
       inkscape:connector-curvature="0"
       d="m 508.84203,343.59217 c -11.67262,0.25061 -23.34071,0.69816 -35.00952,1.09826 -13.9932,0.47606 -27.99454,0.51756 -41.99358,0.40264 -2.95583,-0.0242 -2.92147,-4.20445 0.0343,-4.18016 l 0,0 c 13.93983,0.11464 27.88195,0.0736 41.81597,-0.40032 11.78304,-0.40398 23.5651,-0.86649 35.35265,-1.09594 2.95254,0.14133 2.75267,4.31685 -0.19987,4.17552 z"
       id="path37326"
       style="fill:#000000;fill-opacity:1;fill-rule:nonzero;stroke:none" />
    <path
       style="fill:#000000;fill-opacity:1;fill-rule:nonzero;stroke:none"
       id="path37340"
       d="m 433.04736,291.00388 c 9.0205,-3.79576 17.14937,-9.34012 25.53424,-14.30181 21.24274,-12.82789 42.799,-25.12386 64.34753,-37.42877 11.97126,-6.73565 23.9138,-13.52119 35.83895,-20.33733 2.19351,-1.2537 4.27904,2.3691 2.08555,3.62287 l 0,0 c -11.92555,6.81633 -23.86841,13.60214 -35.8401,20.33796 -21.53507,12.29673 -43.07748,24.58515 -64.30666,37.40502 -8.60831,5.09348 -16.94844,10.81468 -26.25841,14.61265 -2.4504,0.69859 -3.85153,-3.21199 -1.40111,-3.91057 z"
       inkscape:connector-curvature="0"
       inkscape:transform-center-x="-65.318378"
       inkscape:transform-center-y="-37.829993" />
    <path
       inkscape:connector-curvature="0"
       d="m 562.8582,221.17101 c -0.8557,8.57996 -0.90967,17.21893 -1.04925,25.83331 0.0259,7.33299 -0.19775,14.65379 -0.55322,21.97667 -0.14341,2.95244 -4.3188,2.74963 -4.17539,-0.20281 l 0,0 c 0.35374,-7.27793 0.57501,-14.5536 0.54885,-21.84163 0.14258,-8.78912 0.19673,-17.60442 1.09072,-26.35672 0.41803,-2.92622 4.55632,-2.33503 4.13829,0.59118 z"
       id="path37344"
       style="fill:#000000;fill-opacity:1;fill-rule:nonzero;stroke:none" />
    <path
       inkscape:connector-curvature="0"
       d="m 561.57739,218.71963 c 11.67402,-0.17338 23.34481,-0.54373 35.01602,-0.86663 13.99604,-0.38347 27.99735,-0.33235 41.99532,-0.12482 2.9556,0.0438 2.89359,4.22369 -0.062,4.17985 l 0,0 c -13.93877,-0.20686 -27.88086,-0.25807 -41.81771,0.12367 -11.78545,0.32602 -23.57031,0.71057 -35.35912,0.86204 -2.95154,-0.16086 -2.72405,-4.33497 0.22749,-4.17411 z"
       id="path37346"
       style="fill:#000000;fill-opacity:1;fill-rule:nonzero;stroke:none" />
    <path
       style="fill:#000000;fill-opacity:1;fill-rule:nonzero;stroke:none"
       id="path37348"
       d="m 635.64156,268.24305 c 0.79892,-8.58543 0.79573,-17.22457 0.87832,-25.83968 -0.0744,-7.33266 0.1008,-14.65478 0.40782,-21.97985 0.12387,-2.95333 4.30051,-2.77814 4.17664,0.17518 l 0,0 c -0.30558,7.28011 -0.47872,14.55709 -0.40434,21.84478 -0.0844,8.78987 -0.0803,17.60534 -0.91633,26.36336 -0.39867,2.92892 -4.54078,2.36512 -4.14211,-0.56379 z"
       inkscape:connector-curvature="0" />
    <path
       style="fill:#000000;fill-opacity:1;fill-rule:nonzero;stroke:none"
       id="path37350"
       d="m 636.43937,270.67941 c -11.67262,0.25061 -23.34071,0.69816 -35.00952,1.09826 -13.9932,0.47606 -27.99454,0.51756 -41.99358,0.40264 -2.95583,-0.0242 -2.92147,-4.20445 0.0343,-4.18016 l 0,0 c 13.93983,0.11464 27.88195,0.0736 41.81597,-0.40032 11.78304,-0.40398 23.5651,-0.86649 35.35265,-1.09594 2.95254,0.14133 2.75267,4.31685 -0.19987,4.17552 z"
       inkscape:connector-curvature="0" />
    <path
       inkscape:transform-center-y="-37.829993"
       inkscape:transform-center-x="-65.318378"
       inkscape:connector-curvature="0"
       d="m 510.394,339.28396 c 9.0205,-3.79576 17.14937,-9.34012 25.53424,-14.30181 21.24274,-12.82789 42.799,-25.12386 64.34753,-37.42877 11.97126,-6.73565 23.9138,-13.52119 35.83895,-20.33733 2.19351,-1.2537 4.27904,2.3691 2.08555,3.62287 l 0,0 c -11.92555,6.81633 -23.86841,13.60214 -35.8401,20.33796 -21.53507,12.29673 -43.07748,24.58515 -64.30666,37.40502 -8.60831,5.09348 -16.94844,10.81468 -26.25841,14.61265 -2.4504,0.69859 -3.85153,-3.21199 -1.40111,-3.91057 z"
       id="path37352"
       style="fill:#000000;fill-opacity:1;fill-rule:nonzero;stroke:none" />
    <path
       style="fill:#a0a0a0;stroke:none"
       d="m 512.42149,336.00901 c 0.16299,-1.44252 0.44476,-11.87205 0.62616,-23.17674 0.26111,-16.27174 0.19958,-20.71092 -0.29535,-21.30727 -0.54543,-0.65721 -3.49263,-0.74686 -23.10377,-0.70282 -12.36322,0.0278 -28.13179,0.20447 -35.04126,0.39268 -6.90947,0.18821 -12.61865,0.31273 -12.68707,0.27673 -0.0684,-0.036 2.70276,-1.73053 6.15818,-3.76557 3.45541,-2.03506 14.04186,-8.31542 23.52545,-13.95636 15.89899,-9.45691 86.5782,-50.06472 86.76135,-49.84761 0.0441,0.0523 -0.0972,5.63742 -0.31396,12.41141 -0.80389,25.11853 -0.80025,34.71962 0.0134,35.23458 1.28265,0.81184 50.16583,0.32339 68.14466,-0.68091 1.84838,-0.10325 3.17854,-0.0125 2.95592,0.20161 -0.22262,0.21414 -14.1498,8.23662 -30.9493,17.82774 -29.8587,17.04685 -48.87743,28.13861 -68.23255,39.79331 -5.28371,3.18158 -11.46331,6.71559 -13.73244,7.85334 l -4.1257,2.06863 0.29633,-2.62275 0,0 z"
       id="path37354"
       inkscape:connector-curvature="0" />
    <path
       style="fill:#a0a0a0;stroke:none"
       d="m 433.78777,332.52411 c 0.17576,-10.49291 1.08317,-36.46726 1.28089,-36.66498 0.36954,-0.36954 37.09396,-1.13485 54.71466,-1.14022 l 19.65745,-0.006 -0.32861,17.8587 c -0.18074,9.82229 -0.4647,19.88738 -0.63103,22.36687 l -0.30242,4.50818 -7.44906,0.31225 c -16.19417,0.67884 -40.64075,1.2536 -53.52422,1.2584 l -13.56,0.005 0.14234,-8.49828 z"
       id="path37356"
       inkscape:connector-curvature="0" />
    <path
       style="fill:#a0a0a0;stroke:none"
       d="m 561.38511,259.61135 c 0.17576,-10.49291 1.08317,-36.46726 1.28088,-36.66498 0.36954,-0.36954 37.09397,-1.13486 54.71466,-1.14022 l 19.65745,-0.006 -0.32861,17.8587 c -0.18074,9.82228 -0.4647,19.88738 -0.63103,22.36687 l -0.30241,4.50818 -7.44907,0.31225 c -16.19417,0.67884 -40.64074,1.2536 -53.52421,1.2584 l -13.56001,0.005 0.14235,-8.49828 z"
       id="path37358"
       inkscape:connector-curvature="0" />
    <path
       style="fill:#000000;fill-opacity:1;fill-rule:nonzero;stroke:none"
       id="path37364"
       d="m 543.90719,287.99153 c 0.57608,-0.44985 1.2483,-0.69078 1.94412,-0.84059 1.03846,-0.1566 2.06384,0.16547 2.82733,0.92652 0.14106,0.14062 0.25895,0.30474 0.38842,0.45711 0.36258,0.47649 0.59956,1.02297 0.77525,1.5985 0.1667,0.64533 0.12955,1.30403 10e-4,1.95235 -0.15983,0.64672 -0.41908,1.26882 -0.85267,1.76921 -0.11447,0.1321 -0.24315,0.24986 -0.36473,0.3748 -0.40762,0.35887 -0.87733,0.62001 -1.37513,0.81103 -0.1704,0.0654 -0.34476,0.10906 -0.20583,0.0734 -0.48267,0.20516 -0.99618,0.28456 -1.51183,0.32533 -0.3608,0.0202 -0.72222,0.0207 -1.08343,0.0206 -0.46216,0.02 -0.91813,-0.0908 -1.34837,-0.26095 -0.0269,-0.0106 0.053,0.0235 0.0795,0.0352 -0.0447,0.0163 0.16721,0.055 0.12536,0.0413 -0.43081,-0.14015 -0.77542,-0.28671 -1.16157,-0.56063 -0.5505,-0.38182 -0.87518,-0.95449 -1.17659,-1.5447 -0.25842,-0.52186 -0.38834,-1.0885 -0.45531,-1.66806 -0.055,-0.81159 0.14481,-1.56917 0.48654,-2.28921 0.14087,-0.3114 0.30429,-0.61425 0.48561,-0.90436 0.21845,-0.34188 -0.0613,0.10851 -0.0448,0.0822 0.0821,-0.13059 0.27967,-0.48348 0.4184,-0.61469 0.011,-0.0104 -0.67144,0.87324 0.12165,-0.15535 -0.36933,0.44935 0.22445,-0.31313 0.2582,-0.3543 0.26272,-0.34969 0.61283,-0.58235 0.9745,-0.7974 0.0468,-0.0279 -0.0952,0.0529 -0.14177,0.0812 0.53052,-0.31374 0.1447,-0.10675 0.75555,-0.37306 0.0834,-0.0364 -0.16617,0.0757 -0.25306,0.10155 -0.048,0.0143 0.0896,-0.0463 0.13559,-0.0666 0.32027,-0.14119 0.26945,-0.11449 0.61217,-0.22236 0.39141,-0.10338 0.79419,-0.14102 1.19635,-0.15683 0.40414,-0.0224 0.80821,0.0263 1.19979,0.13477 0.26508,0.039 0.58576,0.16678 0.86047,0.28528 -0.0147,-0.005 0.0607,0.0233 0.0454,0.0179 -0.58388,-0.20504 0.19091,0.0758 0.44011,0.203 0.52943,0.38531 0.41732,0.25182 0.81137,0.58654 0.48727,0.52766 0.29971,0.27901 0.60483,0.73167 0.007,0.01 0.0501,0.0755 0.048,0.0728 -0.0878,-0.11139 -0.18451,-0.21629 -0.25976,-0.33738 -0.0443,-0.0712 0.11067,0.12435 0.16601,0.18652 0.15884,0.18814 0.30385,0.38045 0.43867,0.59036 0.0817,0.12718 0.17543,0.32899 0.11959,0.20973 0.27048,0.46441 0.42495,0.97948 0.50922,1.51305 0.0422,0.30239 0.0449,0.60804 0.0451,0.91291 -5.9e-4,0.21607 -10e-4,0.43214 -10e-4,0.64821 -2.7e-4,0.17624 -3e-4,0.35249 -3e-4,0.52873 0.0197,0.52139 -0.13532,0.98969 -0.33966,1.44744 -0.0246,0.0551 0.0981,-0.22078 0.0738,-0.16547 -0.0444,0.10107 -0.0894,0.20184 -0.13406,0.30275 -0.1757,0.35842 -0.26931,0.44855 -0.46889,0.77708 -0.32172,0.42465 -0.20062,0.29512 -0.51061,0.61265 -0.0802,0.0821 0.30633,-0.3433 0.22975,-0.25747 -0.47974,0.53768 -0.18915,0.26559 -0.60615,0.62617 0.10518,-0.0982 0.18916,-0.22937 0.31555,-0.29453 0.11222,-0.0579 -0.1726,0.19109 -0.27123,0.27168 -0.37982,0.31038 -0.70477,0.47079 -1.14912,0.63179 -0.0982,0.0356 0.19549,-0.0735 0.29323,-0.11026 -0.41373,0.22044 -0.86423,0.32727 -1.32204,0.38462 0.0722,-0.0104 -0.40363,0.0442 -0.30386,0.0242 0.80349,-0.16113 0.52309,-0.081 0.20998,0.009 -0.33531,0.0929 -0.67912,0.13342 -1.02478,0.14799 -0.20568,0.006 -0.41147,0.005 -0.61721,0.004 -0.47323,0.0236 -0.93543,-0.0814 -1.37994,-0.24523 0.0388,-0.0179 0.89341,0.43311 -0.38833,-0.1577 -0.10312,-0.0475 -0.19611,-0.1163 -0.29541,-0.17207 -0.0368,-0.0207 0.072,0.0445 0.10802,0.0668 -1.49864,-1.11025 0.12893,0.13409 -0.57482,-0.39262 -0.037,-0.0277 -0.1483,-0.11027 -0.10955,-0.0853 0.0576,0.0372 0.11084,0.0812 0.16625,0.12186 0.26047,0.15987 -0.1849,-0.11215 -0.38044,-0.26113 -0.0926,-0.0705 -0.17343,-0.15652 -0.25906,-0.23608 -0.0952,-0.0884 0.39361,0.33802 0.29637,0.25205 -0.15714,-0.13892 -0.31869,-0.27226 -0.47804,-0.4084 -0.15636,-0.0561 -0.9843,-1.5082 -0.46365,-0.61266 -0.32651,-0.4462 -0.50759,-0.96428 -0.62357,-1.50763 -0.60516,-0.43529 0.43111,0.8236 0.22327,0.70552 -0.0833,-0.0473 -0.30393,-0.80298 -0.31993,-0.8568 -0.0209,-0.11752 -0.0446,-0.23454 -0.0627,-0.35258 -0.0983,-0.64202 0.13811,0.57722 0.004,0.0655 -0.0198,-0.0756 -0.0383,-0.15147 -0.0575,-0.22721 -0.0772,-0.32162 -0.11281,-0.65151 -0.12859,-0.98205 -0.006,-0.14891 -0.005,-0.298 -0.005,-0.44701 3e-4,-0.14471 5.9e-4,-0.28942 5.9e-4,-0.43413 -0.0108,-0.41756 0.0565,-0.83812 0.1875,-1.2327 -0.0236,0.0762 0.1017,-0.30215 0.079,-0.22564 -0.0359,0.12096 -0.0737,0.22767 -0.0968,0.34963 0.36086,-0.95351 0.23957,-0.96691 0.82324,-1.58356 0.0981,-0.10363 0.41939,-0.38169 0.32718,-0.27231 -0.48545,0.57589 -0.52415,0.40411 -0.80987,0.96927 2.12551,-2.73242 -0.714,0.70417 0.81762,-1.06564 0.0761,-0.088 -0.1701,0.15745 -0.24734,0.24432 -0.14601,0.17825 -0.40774,0.49613 0.44785,-0.45506 0.35265,-0.39207 -0.34938,0.33286 -0.26558,0.25344 0.49639,-0.47049 0.23357,-0.25736 0.51849,-0.48078 0.2783,-0.248 1.76357,-0.98723 0.3229,-0.19213 0.13045,-0.0964 0.11519,-0.0873 0.22776,-0.16422 0.022,-0.015 0.0876,-0.0603 0.0662,-0.0444 -0.12623,0.0934 -0.54165,0.38379 0.22851,-0.16241 0.38857,-0.24327 0.82414,-0.3771 1.26957,-0.44309 0.17178,-0.0245 0.34524,-0.0286 0.51834,-0.027 0.4545,0.006 -0.17811,-0.005 -1.19207,0.30665 -0.0793,0.0244 -0.28443,0.17673 -0.2121,0.13475 0.232,-0.13463 0.42782,-0.2605 0.66907,-0.36344 0.36834,-0.14875 0.75289,-0.21002 1.14463,-0.2274 0.12013,-0.004 0.24036,-0.003 0.36054,-0.003 0.45688,0.002 0.13361,-0.003 1.25804,0.32881 0.009,0.003 0.14637,0.0859 0.1725,0.10184 0.017,0.0103 0.0685,0.0401 0.0508,0.0312 -0.11679,-0.0582 -0.23209,-0.11961 -0.34814,-0.17941 -0.23835,-0.0654 -0.68085,-0.3073 0.34746,0.144 0.15989,0.0702 0.31148,0.18132 0.45568,0.28211 0.75549,0.31114 -0.73462,-0.40267 -0.55408,-0.29592 0.24696,0.14603 0.51393,0.25494 0.75305,0.41466 0.27235,0.18192 0.48229,0.47063 0.66965,0.74028 0.0318,0.0529 0.13921,0.20135 0.0955,0.15875 -0.30754,-0.29985 -0.56906,-0.65108 -0.89077,-0.93412 -0.11009,-0.0969 -0.25742,-0.13466 -0.39005,-0.19276 -0.0642,-0.0281 -0.26283,-0.0949 -0.19921,-0.0654 0.20349,0.0944 0.41647,0.16531 0.61965,0.26044 0.0678,0.0317 0.12762,0.0796 0.19143,0.11932 -0.11713,-0.0702 -0.2337,-0.15015 -0.36339,-0.19439 0.45304,0.34825 0.95237,0.63855 1.35912,1.04474 0.18218,0.18194 0.33711,0.67821 0.40842,0.96598 0.0185,0.0748 0.0303,0.15124 0.0424,0.22745 0.009,0.0565 0.0488,0.2196 0.0207,0.17049 -0.34661,-0.60504 -0.65514,-1.23317 -0.9827,-1.84975 0.27884,0.22376 0.49727,0.49589 0.69125,0.79608 0.37318,0.58054 0.60738,1.49027 -1.534,-1.09734 -0.25391,-0.30683 0.7104,0.32814 1.04777,0.528 0.10825,0.0641 0.28925,0.27858 0.3899,0.3929 -0.0741,-0.10049 0.18805,0.2391 0.13993,0.1803 -0.16361,-0.19994 -0.09,-0.11662 -0.0515,-0.0737 -0.0155,0.0871 1.26347,2.06867 0.21813,0.28327 -0.0537,-0.0918 -0.16697,-0.20274 -0.24706,-0.28482 0.41565,0.41995 0.67718,0.90746 0.83156,1.4766 0.1515,0.59612 0.0835,1.05368 -0.0765,1.68919 -0.0488,0.19361 -0.1685,0.35944 -0.25275,0.53916 -1.85511,3.24405 -6.23278,0.49461 -4.37767,-2.74944 l 0,0 c -0.0567,0.13161 -0.14022,0.25387 -0.17021,0.39482 -0.12444,0.58506 -0.19001,0.9771 -0.0514,1.51544 0.12138,0.43605 0.35792,0.78705 0.67761,1.10492 -0.11223,-0.11156 -0.28076,-0.2711 -0.35867,-0.39743 -0.15042,-0.2439 -0.60349,-0.96516 -0.40856,-0.75874 1.19128,1.26151 0.72468,1.12423 0.4893,0.84192 -0.054,-0.0606 -0.43479,-0.5192 -0.19801,-0.23336 0.0796,0.088 0.21175,0.23959 0.29497,0.28646 0.32269,0.18171 1.24752,0.76533 0.99644,0.48578 -2.157,-2.40158 -1.97026,-1.72956 -1.59678,-1.14299 0.1265,0.19173 0.30328,0.34118 0.47043,0.49107 -0.33969,-0.62618 -0.66482,-1.26128 -1.01907,-1.87853 -0.052,-0.0907 0.0258,0.21058 0.0523,0.31269 0.0673,0.2592 0.21096,0.69593 0.37573,0.85526 0.40055,0.38733 0.88564,0.66597 1.32846,0.99895 -0.30292,-0.0988 -0.59784,-0.22194 -0.86917,-0.39735 0.34836,0.20667 -0.28293,-0.16041 0.64507,0.27774 0.0805,0.038 -0.17161,-0.0456 -0.25353,-0.08 -0.15224,-0.0639 -0.32006,-0.1061 -0.44749,-0.21429 -0.75314,-0.6395 -1.20035,-1.38751 -0.86817,-0.84623 0.14747,0.20701 0.31605,0.42768 0.52974,0.5633 0.21637,0.1373 0.45947,0.22362 0.67809,0.35696 0.23224,0.14165 -1.47339,-0.6589 -0.72718,-0.36463 0.20824,0.13815 0.41368,0.18111 0.6535,0.27826 0.12395,0.0502 -0.64491,-0.19824 -0.38189,-0.11996 -0.14774,-0.0723 -0.29582,-0.14378 -0.4432,-0.21687 -0.32939,-0.16333 1.60106,0.29415 1.08799,0.27669 -0.0498,-1.9e-4 -0.0998,9e-5 -0.14952,-9.3e-4 0.188,-0.0226 0.36453,-0.0645 0.54097,-0.14409 0.13427,-0.0622 0.47246,-0.35091 0.38193,-0.2298 -0.33765,0.45169 -1.44519,0.0933 -1.57402,0.52688 -0.0653,-9.3e-4 0.15915,-0.007 0.18717,-0.0171 0.23387,-0.0392 0.46244,-0.12345 0.66492,-0.25292 0.79483,-0.59787 -0.28736,0.23059 -0.0502,0.041 -1.44419,0.83569 -0.55692,0.33891 -0.26798,0.15212 0.0309,-0.0199 -0.11694,0.0841 -0.0886,0.0662 -0.002,0.001 -0.004,0.002 -0.006,0.004 0.10006,-0.10204 0.20011,-0.20408 0.30017,-0.30611 0.0528,-0.0479 -0.0914,0.11114 -0.14146,0.16219 -0.11957,0.12179 -0.80489,0.76773 0.10334,-0.14349 0.0335,-0.0337 -0.0583,0.0758 -0.0874,0.11372 -0.19552,0.23301 -0.88104,0.88111 -0.0403,0.0225 0.0192,-0.0195 -0.5503,0.72708 -0.39562,0.45913 0.16969,-0.29396 0.38864,-0.55342 0.58296,-0.83012 -0.33142,0.67667 -0.34962,0.51167 -0.91918,1.15942 -0.0801,0.0911 0.19294,-0.14537 0.27482,-0.23466 0.5197,-0.56672 0.40688,-0.57822 0.7252,-1.45983 -0.0454,0.27241 -0.10918,0.54098 -0.20752,0.7982 -0.0984,0.25848 -0.0185,0.052 0.10437,-0.7639 0.0232,-0.15361 -0.0236,0.34589 -7e-5,0.21867 -1.3e-4,0.14763 -3e-4,0.29525 -5.9e-4,0.44288 -1.6e-4,0.0644 -6e-4,0.12877 -2.9e-4,0.19314 -0.004,-0.0238 -0.01,-0.0474 -0.0175,-0.07 -0.004,-0.0126 -0.0159,-0.0507 -0.0125,-0.0379 0.0103,0.0386 0.0609,0.20558 0.0672,0.23545 0.0381,0.18134 0.0697,0.36415 0.10558,0.54601 0.003,0.0147 -0.004,-0.0296 -0.007,-0.0444 -0.0143,-0.0692 -0.0286,-0.13837 -0.0429,-0.20755 -0.168,-0.52301 -0.0428,-0.17316 -0.0879,-0.27025 -0.0211,-0.0454 -0.0872,-0.18021 -0.0668,-0.13447 0.26194,0.58504 0.0922,0.11245 0.33064,0.94345 -0.0659,-0.27377 -0.14246,-0.54966 -0.31321,-0.76463 0.0845,0.13687 0.17423,0.27029 0.25336,0.41061 0.0632,0.11214 -0.13836,-0.21644 -0.20563,-0.32597 -0.0698,-0.11372 0.20857,0.25581 0.0992,0.13484 -0.058,-0.0641 -0.11364,-0.1305 -0.17046,-0.19575 -0.96139,-0.78386 -0.0253,-0.0341 0.0983,0.0712 0.0565,0.0482 -0.10823,-0.10287 -0.16849,-0.14572 -0.1072,-0.0762 -0.2273,-0.13164 -0.33267,-0.21065 -0.0625,-0.0469 0.13568,0.0759 0.20353,0.11381 0.10221,0.0693 1.1189,0.76981 0.26731,0.21165 0.0769,0.0443 0.15755,0.082 0.23068,0.13283 0.0577,0.0401 -0.11994,-0.0737 -0.18427,-0.10059 -0.13058,-0.0546 -0.27189,-0.0802 -0.39899,-0.14317 -0.17014,-0.0843 0.3722,0.11903 0.38874,0.12547 0.0501,0.0195 0.0998,0.04 0.14976,0.0599 -0.45445,-0.15377 -0.11015,-0.0552 -0.84308,-0.15733 -0.0201,-0.003 0.0405,7e-5 0.0608,1.1e-4 0.0771,1.4e-4 0.15417,2.9e-4 0.23125,6.2e-4 0.14053,3e-4 0.28106,6.2e-4 0.42158,-6.2e-4 0.0776,-0.002 -0.10449,0.0134 -0.11852,0.0329 0.22393,-0.06 0.60207,-0.21163 0.86362,-0.18512 -0.0344,0.009 -0.58959,0.20186 -0.29374,0.0931 0.14516,-0.0601 0.29051,-0.1198 0.43548,-0.18047 0.0811,-0.034 -0.16405,0.0633 -0.24396,0.10032 -0.172,0.0796 -0.36769,0.23868 -0.49517,0.34801 -0.0641,0.055 -0.23764,0.24186 -0.17518,0.18481 0.13462,-0.12298 0.26129,-0.25521 0.39193,-0.38281 -0.0538,0.0487 -0.11218,0.0923 -0.16131,0.14606 -0.0932,0.10203 -0.16879,0.22102 -0.2646,0.32033 -0.0576,0.0597 0.0962,-0.13693 0.14944,-0.20096 0.0809,-0.0974 0.16849,-0.18843 0.25266,-0.28271 0.036,-0.0403 -0.0751,0.0777 -0.108,0.12067 -0.0589,0.077 -0.11146,0.15917 -0.16718,0.23875 0.0274,-0.043 0.19411,-0.30818 0.21181,-0.32137 0.0505,-0.0376 -0.12996,0.22088 -0.0983,0.16511 0.25013,-0.44097 0.12709,-0.21697 0.0647,-0.0971 -0.0882,0.21846 -0.10925,0.26876 0.0539,-0.12403 0.0188,-0.0454 -0.0409,0.0893 -0.057,0.13583 -0.0293,0.0845 -0.0641,0.16813 -0.0791,0.25664 -0.0739,0.43641 -0.0716,0.86655 -0.0716,0.56884 2e-5,-0.17919 8e-5,-0.35838 2.9e-4,-0.53757 3e-4,-0.21237 8.9e-4,-0.42473 10e-4,-0.6371 10e-6,-0.0244 -0.008,-0.30824 0.0122,-0.11544 0.0353,0.16875 0.088,0.33444 0.1825,0.47739 -0.23547,-0.41541 -0.0738,-0.12622 -0.0429,-0.0824 0.0887,0.12594 0.24785,0.32163 0.0986,0.13879 -0.0241,-0.0295 -0.048,-0.0591 -0.072,-0.0887 0.003,0.002 0.005,0.005 0.008,0.007 0.25876,0.267 -0.26373,-0.3153 -0.36645,-0.47489 -0.0238,-0.0369 -0.0992,-0.14434 -0.0708,-0.11118 0.5596,0.65309 -0.69748,-0.66816 0.44669,0.50338 0.02,0.0141 0.0798,0.0568 0.06,0.0424 -0.20929,-0.15247 -0.78572,-0.60549 0.12128,0.0394 -0.19923,-0.10248 -0.56587,-0.36125 0.29787,0.0916 0.1853,0.0971 -0.37252,-0.12099 -0.523,-0.18834 -0.05,-0.0226 -0.19368,-0.0336 -0.15008,-0.0678 0.0449,-0.0353 0.10364,0.0459 0.15763,0.0619 0.0976,0.029 0.20052,0.038 0.29641,0.0729 0.31818,0.11554 -0.87621,-0.21254 -0.52579,-0.1208 0.80464,0.0806 0.5754,0.0434 0.3222,0.0511 -0.0688,0.002 -0.23491,0.0204 -0.0531,-0.022 0.037,-0.014 0.0745,-0.0266 0.11091,-0.0421 0.0344,-0.0147 0.0676,-0.0321 0.1012,-0.0486 0.01,-0.005 -0.0199,0.009 -0.0298,0.0137 -0.13438,0.0598 -0.26778,0.12196 -0.40327,0.17889 -0.0893,0.0375 0.17892,-0.0748 0.26461,-0.12062 0.0741,-0.0396 0.14259,-0.09 0.21389,-0.13501 -0.18846,0.12874 -0.0982,0.0704 -0.35432,0.22408 -0.0415,0.0249 0.0841,-0.048 0.12401,-0.0756 0.0255,-0.0177 0.66831,-0.55947 0.4301,-0.38627 -0.0947,0.11243 -0.23787,0.34145 -0.35531,0.46865 0.41316,-0.56841 0.0549,-0.0763 -0.0487,0.0701 -0.0292,0.0413 0.0632,-0.079 0.0902,-0.12186 0.0542,-0.0859 0.20157,-0.3538 0.15319,-0.26412 -0.15226,0.28219 -0.12104,0.23705 -0.20631,0.3569 0.005,-0.0137 0.0235,-0.0542 0.0165,-0.0412 -0.0207,0.0383 -0.0396,0.0777 -0.0597,0.11639 -0.27111,0.52136 0.24067,-0.52491 -0.12508,0.25603 -0.0133,0.0275 -0.0467,0.11236 -0.0398,0.0824 0.0571,-0.24798 0.11986,-0.31899 0.0641,-0.74787 -0.0254,-0.0924 -0.035,-0.14871 -0.082,-0.21716 0.0277,0.057 0.066,0.1097 0.0831,0.17116 0.0128,0.046 -0.0466,-0.0825 -0.0699,-0.12376 -0.009,-0.0162 0.0193,0.0319 0.0275,0.0487 0.10964,0.2229 -0.5168,-0.6956 -0.54079,-0.53302 0.21303,0.1512 0.0787,0.0507 -0.32378,-0.15896 -0.091,-0.0474 -0.53713,-0.16455 0.0778,0.0221 0.0449,0.0137 0.0888,0.031 0.13316,0.0465 0.56694,0.22608 0.10114,0.0389 0.0806,0.0349 -1.29895,-0.25276 -0.85088,-0.0986 -0.52286,-0.11919 0.2494,9e-5 0.49889,7e-5 0.74817,-0.009 0.15499,6.2e-4 -0.18286,0.0664 0.0313,0.0127 0.50326,-0.18971 0.14659,-0.0573 0.0176,0.10535 -0.25865,0.30293 -0.39623,0.59223 -0.39681,0.75395 0.0418,-0.18708 -0.0176,0.46881 0.0713,0.58267 0.005,0.0155 0.16919,0.46458 0.12581,0.27511 0.50459,0.51944 1.0263,0.71073 1.74814,0.57507 0.0521,-0.0473 0.12229,-0.0828 0.17258,-0.13654 -2.88704,2.2692 -5.94921,-2.00964 -3.06217,-4.27885 z"
       inkscape:connector-curvature="0" />
    <path
       style="fill:#000000;fill-opacity:1;fill-rule:nonzero;stroke:none"
       id="path37370"
       d="m 537.03266,259.87569 c -3.42385,0.0571 -6.85932,-0.29082 -10.21339,0.51176 -3.09668,1.71699 -3.84584,5.29711 -4.18567,8.55135 -0.0502,5.42092 2.12063,7.33441 6.90238,9.09897 2.83921,0.69644 5.70581,0.43029 8.51184,-0.23487 2.88357,-0.65003 3.80285,3.42795 0.91929,4.07798 l 0,0 c -3.63642,0.78784 -7.29252,1.10386 -10.93427,0.0576 -6.84314,-2.72235 -9.61138,-5.87764 -9.5509,-13.48828 0.65062,-5.09258 2.26243,-10.05442 7.41345,-12.13969 3.67885,-0.79962 7.38839,-0.64371 11.13727,-0.61512 2.95592,0 2.95592,4.1803 0,4.1803 z"
       inkscape:connector-curvature="0" />
    <path
       style="fill:#000000;fill-opacity:1;fill-rule:nonzero;stroke:none"
       id="path37372"
       d="m 362.40627,213.38348 c -1.53831,0.85298 -3.30162,1.10048 -4.91132,1.77779 -1.85536,0.56747 -2.74351,1.76052 -3.37021,3.47472 -0.40705,2.01539 0.56063,3.54541 2.13441,4.7446 2.01467,1.35135 4.06246,1.14523 6.2351,0.34332 0.35324,-0.17966 0.70648,-0.35931 1.05972,-0.53896 1.73732,-0.86478 2.98956,1.53478 1.25224,2.39956 l 0,0 c -0.45701,0.22368 -0.91403,0.44735 -1.37104,0.67103 -3.285,1.12941 -5.9698,1.19818 -8.93888,-0.80387 -2.53732,-2.1436 -3.74376,-4.43014 -2.95534,-7.75687 0.92974,-2.36205 2.33407,-4.18438 4.88104,-5.01456 1.56672,-0.63637 3.24461,-0.9296 4.75102,-1.70568 1.7441,-0.85168 2.97736,1.55724 1.23326,2.40892 z"
       inkscape:connector-curvature="0" />
    <path
       style="fill:#000000;fill-opacity:1;fill-rule:nonzero;stroke:none"
       id="path37374"
       d="m 372.48194,215.69456 c -1.0132,2.01159 -1.83422,4.12335 -1.69512,6.38766 0.55846,1.38013 1.88186,1.63573 3.17268,1.06476 1.66137,-1.138 2.86051,-3.01057 2.84684,-5.02105 -0.34316,-1.64986 -1.80131,-2.17203 -3.27381,-2.65947 -0.88399,-0.23383 -1.79177,-0.35729 -2.70472,-0.40325 -1.94813,-0.0824 -1.82885,-2.77311 0.11929,-2.69074 l 0,0 c 1.18024,0.0512 2.35249,0.23387 3.48953,0.54959 2.67536,0.92297 4.85746,2.35836 5.12308,5.35381 -0.3016,3.32482 -1.71945,5.74925 -4.7387,7.42956 -0.50664,0.13739 -0.99779,0.35143 -1.51989,0.41216 -2.66763,0.31033 -4.70071,-1.52185 -5.26975,-3.92776 -0.0716,-2.64901 0.64692,-5.13881 1.89015,-7.49552 0.7242,-1.76821 3.28461,-0.76796 2.56042,1.00025 z"
       inkscape:connector-curvature="0" />
    <path
       style="fill:#000000;fill-opacity:1;fill-rule:nonzero;stroke:none"
       id="path37376"
       d="m 383.89986,212.96494 c 0.17269,2.14644 0.04,4.30785 -0.006,6.45868 -0.16057,1.57362 0.0665,3.0863 0.45289,4.60669 1.12473,1.64663 -2.39203,1.85547 -2.35542,0.59385 0.34932,-1.5399 0.66408,-3.08301 1.06682,-4.61204 0.60268,-2.0629 1.72253,-3.80798 3.16038,-5.39647 1.41101,-1.36926 2.52485,-2.0847 4.52102,-1.51513 1.51395,0.6611 1.96961,1.93528 2.18112,3.43974 0.1457,1.69974 0.1214,3.4082 0.11892,5.11239 0.0631,1.13807 0.39085,2.11855 1.195,2.94273 0.29666,0.14505 0.13864,0.0699 0.47468,0.22431 1.7299,0.87886 0.45728,3.26818 -1.27262,2.38931 l 0,0 c -0.81872,-0.43434 -0.39966,-0.17529 -1.24151,-0.80082 -1.23196,-1.35638 -1.84747,-2.93705 -1.9132,-4.75938 0.003,-1.58804 0.0237,-3.17943 -0.0963,-4.76423 -0.0682,-0.57357 0.0359,-0.99165 -0.47601,-1.28569 0.40944,-0.35775 -1.59429,0.48351 -1.42519,0.80078 -1.14798,1.26777 -2.07011,2.62722 -2.55561,4.28353 -0.35733,1.35625 -0.60709,2.72858 -0.98347,4.07897 -0.1372,2.12357 -3.2464,1.65461 -3.07583,-0.0861 -0.43966,-1.74629 -0.69747,-3.50439 -0.53272,-5.3086 0.041,-1.91617 0.10619,-3.83252 0.0876,-5.7493 -0.47294,-1.84756 2.20239,-2.50077 2.67531,-0.65321 z"
       inkscape:connector-curvature="0" />
    <path
       style="fill:#000000;fill-opacity:1;fill-rule:nonzero;stroke:none"
       id="path37378"
       d="m 398.6129,211.79156 c 1.0703,1.98944 1.88859,4.09746 2.85959,6.13896 0.77261,1.4273 1.43543,2.90554 2.46413,4.17845 0.64136,0.75668 0.90959,0.50495 -0.9892,0.3213 -0.0782,0.0468 -0.14309,0.14706 -0.23458,0.14056 -0.0299,-0.002 0.036,-0.11784 0.11536,-0.54062 0.11672,-0.62213 0.16505,-1.25158 0.21909,-1.88097 0.0886,-1.32952 0.0907,-2.6627 0.0943,-3.99447 0.13942,-1.10668 0.56077,-2.14531 0.77193,-3.23848 0.21593,-0.76972 0.58448,-1.48264 0.9906,-2.17058 0.97725,-1.64799 3.36359,-0.29822 2.38633,1.34977 l 0,0 c -0.25409,0.42586 -0.48271,0.8657 -0.66798,1.32473 -0.18278,0.92998 -0.4555,1.83278 -0.72324,2.74171 -0.004,1.40507 -0.007,2.81167 -0.10408,4.21417 -0.13281,1.52346 -0.17654,3.17256 -1.34862,4.31472 -1.71058,0.0409 -1.77911,0.18835 -2.6813,-0.92164 -1.14922,-1.44268 -1.94542,-3.08193 -2.79378,-4.70413 -0.95977,-2.01843 -1.76474,-4.10398 -2.82506,-6.06902 -0.87204,-1.70336 1.59448,-2.90782 2.46652,-1.20446 z"
       inkscape:connector-curvature="0" />
    <path
       style="fill:#000000;fill-opacity:1;fill-rule:nonzero;stroke:none"
       id="path37380"
       d="m 411.08523,216.36107 c 1.35708,0.6288 2.79489,1.01427 4.27103,1.25571 0.1205,-0.0133 0.24731,-2e-5 0.36151,-0.0399 0.10242,-0.0358 -0.0417,-0.32718 -0.034,-0.3894 0.0543,-0.44124 0.15652,-0.87588 0.21528,-1.31658 0.0624,-0.98349 0.24555,-2.44929 -0.8031,-3.00036 -0.0611,0.0156 -0.16696,-0.0127 -0.1832,0.0468 -0.0185,0.0679 0.14138,0.10526 0.12318,0.17329 -0.0879,0.32847 -0.47882,0.49397 -0.69024,0.76345 -0.66288,0.8449 -0.67339,0.93346 -1.23883,1.87923 -0.89479,1.99369 -1.66562,4.15504 -1.26704,6.34383 0.54639,1.5053 2.18722,1.58763 3.60311,1.60163 0.67151,-0.0332 1.15966,-0.3414 1.7039,-0.6789 1.67328,-0.97785 3.08924,1.33326 1.41596,2.31112 l 0,0 c -1.00303,0.56586 -1.98547,1.04447 -3.18074,1.06039 -2.83848,-0.085 -5.45533,-0.94484 -6.26967,-3.89666 -0.38141,-2.83349 0.34241,-5.55411 1.6205,-8.1118 1.33019,-2.17629 3.10964,-4.98147 6.08381,-3.59699 1.76555,1.5271 2.07001,3.23621 1.81393,5.47448 -0.34084,2.30035 -0.9276,4.17847 -3.73776,4.03129 -1.74159,-0.29418 -3.44197,-0.75059 -5.04084,-1.50174 -1.7441,-0.85168 -0.51084,-3.26061 1.23326,-2.40892 z"
       inkscape:connector-curvature="0" />
    <path
       style="fill:#000000;fill-opacity:1;fill-rule:nonzero;stroke:none"
       id="path37382"
       d="m 432.86321,214.09953 c -1.6863,2.0223 -3.14125,4.20139 -4.54805,6.41315 -0.9542,1.67408 -1.93681,3.33259 -2.93083,4.98438 -0.7854,1.34674 -1.0793,0.65251 -2.79331,0.0663 -0.79037,-1.74097 1.73059,-2.83262 2.52096,-1.09166 l 0,0 c -0.6549,-0.14122 -1.29431,-0.40465 -1.96471,-0.42365 -0.1078,-0.003 -0.57152,0.79669 -0.14037,0.0843 1.00547,-1.67075 1.99739,-3.34937 2.9658,-5.04091 1.44931,-2.27851 2.94994,-4.52269 4.68439,-6.60791 1.16997,-1.52354 3.37609,0.0924 2.20612,1.61596 z"
       inkscape:connector-curvature="0" />
    <path
       style="fill:#000000;fill-opacity:1;fill-rule:nonzero;stroke:none"
       id="path37384"
       d="m 423.95428,211.87231 c 2.07908,1.22444 3.65115,3.04022 5.24502,4.79096 1.34844,1.70222 2.66359,3.46139 4.40267,4.80795 0.38829,0.28802 0.80773,0.52796 1.23539,0.75401 1.71026,0.91479 0.38562,3.27698 -1.32464,2.36219 l 0,0 c -0.57022,-0.30759 -1.131,-0.6309 -1.64632,-1.02324 -1.82953,-1.4693 -3.32492,-3.25553 -4.72805,-5.11144 -1.36291,-1.49739 -2.68784,-3.05779 -4.41733,-4.1715 -1.74409,-0.85169 -0.51083,-3.26061 1.23326,-2.40893 z"
       inkscape:connector-curvature="0" />
    <path
       style="fill:#000000;fill-opacity:1;fill-rule:nonzero;stroke:none"
       id="path37386"
       d="m 336.71184,232.94111 c 0.61959,2.78425 0.6525,5.65746 0.7463,8.49394 0.0986,3.9926 0.10487,7.98666 0.11024,11.9802 0.001,1.84832 -6.6e-4,3.69664 -0.004,5.54495 -5.2e-4,0.28372 -0.001,0.56743 -0.002,0.85115 -0.76788,-0.35862 -1.57178,-0.65142 -2.30362,-1.07588 -0.038,-0.022 1.22454,-2.79898 1.31145,-2.99794 0.88057,-1.91875 1.79058,-3.80971 3.00699,-5.55004 0.59469,-0.85735 1.17995,-1.7211 1.74669,-2.59636 0.92185,-0.91805 1.92029,-1.08279 3.0775,-0.39846 1.35863,1.22581 1.29328,3.10051 1.37996,4.77716 0.11524,1.86019 -0.16896,3.79447 0.51583,5.57349 0.34701,0.86103 0.77825,0.612 1.5492,0.37711 0.19163,-0.0674 0.38325,-0.13484 0.57488,-0.20227 1.84155,-0.62611 2.74819,1.91743 0.90663,2.54354 l 0,0 c -0.27788,0.0922 -0.55575,0.1844 -0.83362,0.27661 -2.11077,0.43427 -3.99546,0.0465 -4.80756,-2.12686 -0.67464,-2.05427 -0.65056,-4.16709 -0.65959,-6.30754 -0.008,-0.16466 -0.32588,-2.62863 -0.23654,-2.67729 0.0349,-0.019 0.0774,0.0196 0.11613,0.0294 0.28134,-0.0285 0.47357,0.0263 0.74778,-0.42521 -0.58699,0.90622 -1.19274,1.8008 -1.80895,2.68829 -1.13504,1.57692 -1.91352,3.33467 -2.73966,5.07711 -0.40526,0.92418 -0.80679,1.85333 -1.23855,2.76563 -0.1065,0.22503 -0.0662,0.65546 -0.31926,0.67518 -0.92356,0.072 -1.82889,-0.29094 -2.74333,-0.43642 6.6e-4,-0.28172 0.001,-0.56344 0.002,-0.84516 0.003,-1.84555 0.005,-3.6911 0.004,-5.53664 -0.005,-3.96581 -0.0114,-7.93212 -0.10881,-11.897 -0.0871,-2.64581 -0.10987,-5.3267 -0.66539,-7.92747 -0.47294,-1.84756 2.20238,-2.50077 2.67531,-0.6532 z"
       inkscape:connector-curvature="0" />
    <path
       style="fill:#000000;fill-opacity:1;fill-rule:nonzero;stroke:none"
       id="path37388"
       d="m 352.33855,247.30514 c 0.44836,1.86911 0.62067,3.78428 0.7443,5.69556 0.0331,1.43576 0.008,2.87801 0.75857,4.1504 0.55807,0.40301 0.76507,0.10066 1.27505,-0.2153 1.16722,-1.1176 1.74137,-2.75769 2.17699,-4.2679 0.19575,-0.76896 0.36271,-1.54629 0.47001,-2.33209 0.0243,-0.17804 -0.0138,0.3658 0.0405,0.53739 1.21295,1.7176 2.00071,-1.11187 1.87915,0.19551 -0.12345,1.15242 -0.0683,2.26568 0.37521,3.3464 0.54279,0.85314 1.15834,1.54966 2.08553,1.99048 0.41912,0.11118 0.20239,0.0588 0.65062,0.15529 1.898,0.43665 1.26571,3.05816 -0.6323,2.6215 l 0,0 c -0.81456,-0.1947 -0.38838,-0.0731 -1.27422,-0.37905 -1.52642,-0.78397 -2.63217,-1.95068 -3.4168,-3.45595 -0.53699,-1.49441 -0.72804,-3.01131 -0.5271,-4.59087 0.23003,-1.73365 1.49207,-3.0667 3.08603,-1.4729 0.76502,1.34917 0.2722,2.70307 -0.086,4.12719 -0.65378,2.19247 -1.55371,4.47168 -3.48928,5.87979 -2.01591,1.02337 -3.5606,0.96944 -5.0329,-0.84721 -0.89701,-1.65191 -1.1121,-3.41767 -1.09133,-5.27377 -0.11183,-1.74813 -0.26371,-3.50037 -0.66739,-5.21125 -0.47293,-1.84756 2.20239,-2.50077 2.67532,-0.65322 z"
       inkscape:connector-curvature="0" />
    <path
       style="fill:#000000;fill-opacity:1;fill-rule:nonzero;stroke:none"
       id="path37390"
       d="m 368.81568,234.27286 c 0,3.03145 0,6.06289 0,9.09434 0,3.69018 0,7.38036 0,11.07053 0.0991,0.77935 -0.15029,1.5919 0.0892,2.35557 0.0224,0.0712 0.11933,0.27407 0.0938,0.20386 -0.2845,-0.78259 -0.31477,-0.32748 -1.76627,-0.59888 -0.1434,0.12194 -0.28679,0.24387 -0.43018,0.36581 0.64691,-1.79656 3.24838,-0.90305 2.60147,0.89351 l 0,0 c -0.21836,0.3301 -0.43671,0.6602 -0.65506,0.99031 -0.63841,-0.0434 -1.30723,0.065 -1.91522,-0.13002 -0.90847,-0.29138 -0.78386,-3.41266 -0.77542,-4.08016 0,-3.69017 0,-7.38035 0,-11.07053 0,-3.03145 0,-6.06289 0,-9.09434 0,-1.90442 2.75765,-1.90442 2.75765,0 z"
       inkscape:connector-curvature="0" />
    <path
       style="fill:#000000;fill-opacity:1;fill-rule:nonzero;stroke:none"
       id="path37392"
       d="m 374.39977,233.83886 c 0.5238,2.12675 0.64605,4.31322 0.74566,6.48979 -0.0149,3.21705 0.19078,6.41017 0.52023,9.6088 0.16321,1.6261 0.32193,3.25264 0.46999,4.88013 0.0146,0.15955 0.0295,0.31905 0.0395,0.47893 0.0712,1.90315 -2.68459,2.00152 -2.75581,0.0984 l 0,0 c -0.0103,-0.11297 -0.0208,-0.22594 -0.0305,-0.33896 -0.14709,-1.6171 -0.30484,-3.23326 -0.46697,-4.84897 -0.33439,-3.2482 -0.5458,-6.49203 -0.53135,-9.75874 -0.0903,-1.99667 -0.1923,-4.00354 -0.66603,-5.95613 -0.47294,-1.84757 2.20238,-2.50077 2.67531,-0.65322 z"
       inkscape:connector-curvature="0" />
    <path
       style="fill:#000000;fill-opacity:1;fill-rule:nonzero;stroke:none"
       id="path37394"
       d="m 391.98163,250.27207 c -1.45879,1.21915 -2.05655,2.9234 -2.50928,4.68617 -0.38281,1.33249 -0.0166,2.03811 1.35468,2.12851 1.80341,-0.55262 2.85966,-2.01306 3.78139,-3.52572 0.47752,-0.88864 0.69244,-1.68696 -0.41617,-1.92117 -1.17498,-0.38751 -2.30056,-0.26482 -3.46465,0.0586 -0.44606,0.10856 -0.90237,0.52748 0.21866,-0.35151 -0.98629,1.64285 -3.36518,0.2806 -2.3789,-1.36224 l 0,0 c 0.57005,-0.50327 0.74176,-0.71611 1.4231,-0.8815 1.78895,-0.47604 3.57092,-0.56825 5.34041,0.0837 0.37508,0.19378 0.78805,0.32975 1.12524,0.58132 1.74114,1.299 1.43239,3.52484 0.51466,5.18225 -1.53548,2.46665 -3.48723,4.65271 -6.65146,4.7835 -3.17892,-0.73144 -4.17535,-2.29451 -3.51868,-5.44284 0.5898,-2.21867 1.41746,-4.36914 3.23105,-5.92347 1.37882,-1.34662 3.32878,0.55779 1.94995,1.90442 z"
       inkscape:connector-curvature="0" />
    <path
       style="fill:#000000;fill-opacity:1;fill-rule:nonzero;stroke:none"
       id="path37396"
       d="m 407.3507,233.33988 c -1.93464,1.30311 -3.29144,3.06326 -4.22923,5.14508 -1.18302,2.9544 -0.24606,5.8872 0.63108,8.77961 0.69666,2.18193 1.2914,4.39246 1.68774,6.6454 0.136,0.84515 0.16688,1.69912 0.16397,2.55287 -0.004,0.2777 -0.001,0.1484 -0.007,0.38793 -0.043,1.90396 -2.80003,1.8445 -2.75698,-0.0595 l 0,0 c 0.005,-0.20759 0.003,-0.0948 0.006,-0.33843 0.003,-0.6981 -0.0168,-1.3964 -0.12439,-2.08812 -0.37583,-2.14912 -0.95099,-4.25547 -1.61418,-6.33662 -1.06632,-3.52853 -1.99981,-7.0838 -0.49955,-10.65231 1.16866,-2.47453 2.76464,-4.62256 5.08761,-6.19056 1.55996,-1.14266 3.21455,1.01195 1.65459,2.1546 z"
       inkscape:connector-curvature="0" />
    <path
       style="fill:#000000;fill-opacity:1;fill-rule:nonzero;stroke:none"
       id="path37398"
       d="m 397.62606,246.00317 c 1.92788,0.43282 3.91004,0.54531 5.87919,0.6512 1.09399,0.10013 2.14074,0.13185 3.18036,-0.2326 1.84677,-0.61128 2.73192,1.93948 0.88514,2.55075 l 0,0 c -1.37978,0.44154 -2.77306,0.52521 -4.21772,0.37101 -2.14324,-0.11616 -4.29946,-0.24711 -6.39581,-0.72752 -1.89173,-0.46189 -1.2229,-3.07473 0.66884,-2.61284 z"
       inkscape:connector-curvature="0" />
    <path
       style="fill:#000000;fill-opacity:1;fill-rule:nonzero;stroke:none"
       id="path37400"
       d="m 427.55545,233.28705 c -1.56881,-0.10464 -2.93982,0.0236 -4.16842,1.02979 -1.30976,2.15104 -1.03561,4.86919 -0.95295,7.26537 0.37898,3.75574 1.27471,7.44016 1.92948,11.15713 0.21123,1.34183 0.4141,2.68712 0.5264,4.04095 0.003,0.0528 0.007,0.10571 0.0101,0.15856 0.11875,1.90089 -2.63378,2.0649 -2.75253,0.16402 l 0,0 c -0.002,-0.0356 -0.004,-0.0712 -0.007,-0.10677 -0.10383,-1.27331 -0.29972,-2.53801 -0.49535,-3.8002 -0.67588,-3.83822 -1.60982,-7.64241 -1.9679,-11.52517 -0.10738,-3.26338 -0.33664,-6.87575 2.02437,-9.48608 1.77475,-1.27733 3.64644,-1.77079 5.85316,-1.59086 1.94996,0 1.94996,2.69326 0,2.69326 z"
       inkscape:connector-curvature="0" />
    <path
       style="fill:#000000;fill-opacity:1;fill-rule:nonzero;stroke:none"
       id="path37402"
       d="m 418.5436,246.75333 c 2.23135,0 4.46271,0 6.69405,0 1.15013,0 2.30026,0 3.45038,0 1.94997,0 1.94997,2.69325 0,2.69325 l 0,0 c -1.15012,0 -2.30025,0 -3.45038,0 -2.23134,0 -4.4627,0 -6.69405,0 -1.94995,0 -1.94995,-2.69325 0,-2.69325 z"
       inkscape:connector-curvature="0" />
    <path
       style="fill:#000000;fill-opacity:1;fill-rule:nonzero;stroke:none"
       id="path37404"
       d="m 433.75776,248.90577 c 1.19073,0.61821 2.49692,1.0052 3.8151,1.26432 0.0635,-0.016 0.15729,0.007 0.19032,-0.0481 0.0878,-0.14693 -0.3187,0.0837 -0.24467,-0.27388 0.21716,-1.04889 -0.0164,0.36715 0.16503,-0.81047 0.15081,-0.81054 -0.25153,-1.51647 -1.05548,-1.79251 -1.07985,-0.38003 -2.16939,0.1884 -3.04102,0.81303 -0.88084,1.24494 -1.30946,2.80614 -1.0622,4.2987 0.57185,2.08605 2.31331,3.03964 4.25922,3.71104 0.96939,0.31057 1.85095,0.43874 2.73904,-0.0839 1.77037,-0.79831 2.92634,1.6469 1.15598,2.4452 l 0,0 c -1.64047,0.65903 -3.13515,0.78233 -4.84036,0.16876 -2.94653,-1.0755 -5.35934,-2.77535 -6.05581,-5.95396 -0.20134,-2.51874 0.35151,-4.97436 2.24878,-6.80983 1.82235,-1.1664 3.83761,-1.88271 5.94572,-0.93784 1.69594,1.04454 2.78699,2.53841 2.42505,4.59113 -0.33764,1.82387 -1.16866,3.533 -3.38671,3.32036 -1.55018,-0.31808 -3.08722,-0.76418 -4.49125,-1.49313 -1.74409,-0.85168 -0.51083,-3.2606 1.23326,-2.40892 z"
       inkscape:connector-curvature="0" />
    <path
       style="fill:#000000;fill-opacity:1;fill-rule:nonzero;stroke:none"
       id="path37406"
       d="m 444.2817,249.44658 c 1.84774,0.18995 3.37077,-0.18579 4.97045,-1.041 0.81266,-0.58646 1.35782,-1.53068 0.97723,-2.50552 -0.75572,-0.79949 -1.84295,-0.64041 -2.78118,-0.30214 -2.19454,1.31009 -3.05389,3.6278 -3.46295,5.98882 -0.2246,2.36445 1.26602,3.17609 3.32906,3.76025 1.16891,0.0427 3.17941,0.32143 4.08391,-0.67132 1.56408,-1.13728 3.21089,1.02301 1.64681,2.16028 l 0,0 c -1.94601,1.27599 -4.25306,1.49285 -6.53865,1.08611 -3.60738,-1.12149 -5.54333,-2.8742 -5.23424,-6.81745 0.66034,-3.36468 2.04824,-6.49998 5.3684,-8.08184 2.67385,-0.71684 5.03329,-0.37842 6.28223,2.29922 0.39127,2.25034 -0.35397,4.17557 -2.35953,5.45298 -1.99645,1.04306 -3.99801,1.57071 -6.28154,1.36487 -1.94995,0 -1.94995,-2.69326 0,-2.69326 z"
       inkscape:connector-curvature="0" />
    <path
       style="fill:#000000;fill-opacity:1;fill-rule:nonzero;stroke:none"
       id="path37408"
       d="m 461.65668,236.17575 c 0,3.65835 0,7.3167 0,10.97506 0,2.99419 0,5.98839 0,8.98259 -0.0625,1.98111 0.62212,1.90769 -2.11261,0.38247 1.40829,-1.31722 3.31567,0.62789 1.90738,1.94511 l 0,0 c -2.92272,-0.87812 -2.56573,-0.19422 -2.55243,-2.32758 0,-2.9942 0,-5.9884 0,-8.98259 0,-3.65836 0,-7.31671 0,-10.97506 0,-1.90443 2.75766,-1.90443 2.75766,0 z"
       inkscape:connector-curvature="0" />
    <path
       style="fill:#000000;fill-opacity:1;fill-rule:nonzero;stroke:none"
       id="path37410"
       d="m 456.45599,247.79867 c 1.87582,0.52712 3.77782,0.39711 5.6932,0.2469 0.86562,-0.12325 1.70603,-0.356 2.54305,-0.59624 1.87175,-0.53392 2.64488,2.05133 0.77313,2.58525 l 0,0 c -1.01813,0.28886 -2.04072,0.56663 -3.09641,0.69568 -2.21138,0.17194 -4.41828,0.27835 -6.58179,-0.31875 -1.89174,-0.46189 -1.22291,-3.07473 0.66882,-2.61284 z"
       inkscape:connector-curvature="0" />
    <path
       style="fill:#000000;fill-opacity:1;fill-rule:nonzero;stroke:none"
       id="path37412"
       d="m 466.57417,222.25294 c 6.2023,-0.19322 12.18648,1.17197 17.82435,3.66709 6.05323,3.16877 10.57887,7.25528 13.83684,13.25081 2.22841,4.99606 2.57147,10.46627 2.76564,15.85377 0.0354,0.98467 -1.35717,1.03469 -1.39253,0.05 l 0,0 c -0.18516,-5.17263 -0.49203,-10.43214 -2.599,-15.24131 -3.07743,-5.72861 -7.42627,-9.60244 -13.17695,-12.63998 -5.45157,-2.43451 -11.25557,-3.73057 -17.25835,-3.54697 -0.98531,0 -0.98531,-1.39343 0,-1.39343 z"
       inkscape:connector-curvature="0" />
  </g>
</svg>
