<?xml version="1.0" encoding="UTF-8" standalone="no"?>
<!-- Created with Inkscape (http://www.inkscape.org/) -->

<svg
   xmlns:dc="http://purl.org/dc/elements/1.1/"
   xmlns:cc="http://creativecommons.org/ns#"
   xmlns:rdf="http://www.w3.org/1999/02/22-rdf-syntax-ns#"
   xmlns:svg="http://www.w3.org/2000/svg"
   xmlns="http://www.w3.org/2000/svg"
   xmlns:xlink="http://www.w3.org/1999/xlink"
   xmlns:sodipodi="http://sodipodi.sourceforge.net/DTD/sodipodi-0.dtd"
   xmlns:inkscape="http://www.inkscape.org/namespaces/inkscape"
   width="274.08951"
   height="269.88947"
   id="svg14495"
   version="1.1"
   inkscape:version="0.48.0 r9654"
   sodipodi:docname="EnergyAccounting.pdf">
  <defs
     id="defs14497" />
  <sodipodi:namedview
     inkscape:document-units="mm"
     pagecolor="#ffffff"
     bordercolor="#666666"
     borderopacity="1.0"
     inkscape:pageopacity="0.0"
     inkscape:pageshadow="2"
     inkscape:zoom="0.7176508"
     inkscape:cx="223.30753"
     inkscape:cy="18.547593"
     inkscape:current-layer="layer1"
     id="namedview14499"
     showgrid="false"
     fit-margin-top="0"
     fit-margin-left="0"
     fit-margin-right="0"
     fit-margin-bottom="0"
     inkscape:window-width="1280"
     inkscape:window-height="752"
     inkscape:window-x="0"
     inkscape:window-y="0"
     inkscape:window-maximized="0" />
  <metadata
     id="metadata14501">
    <rdf:RDF>
      <cc:Work
         rdf:about="">
        <dc:format>image/svg+xml</dc:format>
        <dc:type
           rdf:resource="http://purl.org/dc/dcmitype/StillImage" />
        <dc:title></dc:title>
      </cc:Work>
    </rdf:RDF>
  </metadata>
  <g
     inkscape:label="Layer 1"
     inkscape:groupmode="layer"
     id="layer1"
     transform="translate(-302.87356,-120.70538)">
    <path
       style="fill:#000000;fill-opacity:1;fill-rule:nonzero;stroke:none"
       id="path15026"
       d="m 496.62303,241.76104 c -3.19365,-0.008 -6.361,-0.18514 -9.49284,0.51696 -4.2617,1.24321 -7.70341,3.21615 -10.39948,6.77229 -3.64173,5.34426 -4.2857,11.68466 -4.14404,17.97534 0.72649,6.41028 3.08693,12.71886 7.92096,17.19129 0.93225,0.86251 2.01061,1.55227 3.01591,2.3284 5.71209,3.56642 12.34343,4.16851 18.6994,1.9288 1.25516,-0.44229 2.42267,-1.10224 3.634,-1.65335 7.02036,-4.1563 10.66656,-9.25262 12.76388,-17.04347 0.83902,-7.46481 -2.55671,-12.46523 -7.33965,-17.76919 -5.69385,-5.26556 -11.12564,-8.04842 -18.85159,-8.72834 -3.65523,0.20672 -1.92386,-0.089 -5.20714,0.80731 -2.86443,0.72972 -3.89642,-3.3212 -1.03198,-4.05093 l 0,0 c 4.31239,-1.04027 2.10173,-0.72451 6.6361,-0.91779 1.24584,0.12655 2.50477,0.15952 3.73751,0.37965 6.83786,1.22104 12.83233,5.05062 17.83194,9.72214 5.76682,6.48574 9.51408,12.66151 8.2529,21.67494 -0.36052,1.26739 -0.62203,2.56722 -1.08155,3.80217 -2.56163,6.88433 -7.66767,12.37267 -14.00969,15.94221 -1.44139,0.63032 -2.83364,1.38777 -4.32419,1.89097 -7.62235,2.5733 -15.54228,1.62943 -22.29276,-2.69818 -1.18461,-0.94466 -2.45753,-1.78811 -3.55381,-2.83397 -5.49024,-5.23771 -8.21283,-12.47939 -8.97977,-19.89193 -0.11969,-7.2726 0.74844,-14.52573 5.0404,-20.64369 0.64945,-0.80121 1.22792,-1.66559 1.94836,-2.40363 2.91383,-2.985 6.95992,-4.64578 10.8576,-5.86839 3.43374,-0.71111 6.87325,-0.67942 10.36953,-0.60992 2.95592,0 2.95592,4.18031 0,4.18031 z"
       inkscape:connector-curvature="0" />
    <path
       style="fill:#000000;fill-opacity:1;fill-rule:nonzero;stroke:none"
       id="path15028"
       d="m 495.36627,243.29115 c 0,4.78206 0,9.56412 0,14.34618 0,6.36142 0,12.72284 0,19.08425 0,3.82022 0,7.64043 0,11.46064 0,0.38766 0,0.77533 0,1.16299 0,2.95592 -4.1803,2.95592 -4.1803,0 l 0,0 c 0,-0.38766 0,-0.77533 0,-1.16299 0,-3.82021 0,-7.64042 0,-11.46064 0,-6.36141 0,-12.72283 0,-19.08425 0,-4.78206 0,-9.56412 0,-14.34618 0,-2.95592 4.1803,-2.95592 4.1803,0 z"
       inkscape:connector-curvature="0" />
    <path
       style="fill:#000000;fill-opacity:1;fill-rule:nonzero;stroke:none"
       id="path15034"
       d="m 471.98123,264.056 c 6.48898,0.16985 12.94627,-0.55744 19.38903,-1.22497 7.22614,-0.74527 14.4765,-1.20874 21.73578,-1.45211 2.21296,0.067 4.40442,-0.22375 6.59279,-0.49732 2.93332,-0.36487 3.44932,3.78347 0.516,4.14833 l 0,0 c -2.31309,0.28638 -4.63117,0.58501 -6.96896,0.52696 -7.16213,0.23929 -14.31538,0.69736 -21.44482,1.43218 -6.5858,0.68229 -13.18695,1.41692 -19.81982,1.24724 -2.95593,0 -2.95593,-4.18031 0,-4.18031 z"
       inkscape:connector-curvature="0" />
    <path
       style="fill:#a0a0a0;stroke:none"
       d="m 484.33972,285.79394 c -4.36718,-3.00228 -7.18856,-6.79782 -9.25357,-12.44863 l -1.62799,-4.45491 8.24935,-0.46639 8.24934,-0.46639 -0.003,10.10241 c -10e-4,5.55632 -0.49006,10.10241 -1.08592,10.10241 -0.59587,0 -2.63377,-1.06583 -4.52867,-2.3685 z"
       id="path15036"
       inkscape:connector-curvature="0" />
    <path
       style="fill:#a0a0a0;stroke:none"
       d="m 495.52551,253.32655 c 0,-5.42243 0.5691,-8.36061 1.61937,-8.36061 3.09489,0 13.54321,7.00167 16.36781,10.96845 l 2.8415,3.99052 -6.42851,0.88113 c -3.53569,0.48462 -8.22214,0.88112 -10.41434,0.88112 -3.94261,0 -3.98583,-0.0907 -3.98583,-8.36061 z"
       id="path15038"
       inkscape:connector-curvature="0" />
    <path
       style="fill:none;stroke:#000000;stroke-width:3.83385825;stroke-linecap:butt;stroke-linejoin:miter;stroke-miterlimit:4;stroke-opacity:1;stroke-dasharray:none"
       d="m 344.17854,220.16278 0,153.27789 158.85163,0"
       id="path15040"
       inkscape:connector-curvature="0" />
    <path
       style="fill:#000000;fill-opacity:1;fill-rule:nonzero;stroke:none"
       id="path15054"
       d="m 333.2524,240.53694 c 2.01422,-3.04626 3.37738,-6.44702 4.75552,-9.81041 1.26317,-2.94017 1.8816,-6.08806 3.05392,-9.05574 0.39038,-0.89999 0.78118,-1.80919 1.31391,-2.63643 2.3818,-3.15141 4.00555,0.59033 4.70492,2.04866 1.27415,2.73209 2.1911,5.59194 3.10833,8.45927 0.8188,2.7264 2.28948,5.1637 3.39458,7.76799 0.72133,1.13574 1.50155,2.1955 2.03141,3.44152 0.18258,0.48987 0.10223,0.25837 0.24475,0.6932 0.90563,2.81378 -3.07365,4.09452 -3.97927,1.28075 l 0,0 c -0.067,-0.21661 -0.0275,-0.0962 -0.12177,-0.36026 -0.50848,-1.25006 -1.48006,-2.19737 -2.02918,-3.43619 -1.12963,-2.72441 -2.70227,-5.25707 -3.52236,-8.11424 -0.85775,-2.6856 -1.70007,-5.36748 -2.89603,-7.92498 -1.48723,-3.10368 0.38863,1.09207 2.55631,-1.55722 -0.37572,0.58896 -0.63181,1.24829 -0.92064,1.88133 -1.18964,2.97428 -1.76211,6.15915 -3.07077,9.09749 -1.51261,3.6906 -3.02631,7.41744 -5.27938,10.73345 -1.77355,2.36474 -5.1178,-0.14345 -3.34425,-2.50819 z"
       inkscape:connector-curvature="0" />
    <path
       inkscape:connector-curvature="0"
       d="m 487.43886,362.72999 c 3.17499,1.80451 6.65982,2.93557 10.10838,4.08409 3.01856,1.0623 6.20095,1.46735 9.24084,2.43716 0.92424,0.32889 1.85769,0.65758 2.71893,1.13339 3.30464,2.16417 -0.31926,4.03621 -1.72718,4.8322 -2.64009,1.45524 -5.4317,2.56269 -8.23075,3.67093 -2.66507,1.00054 -4.9978,2.63201 -7.52176,3.90997 -1.08459,0.79618 -2.08941,1.64599 -3.29692,2.25856 -0.47646,0.21515 -0.25089,0.11939 -0.67514,0.29087 -2.74641,1.09306 -4.29221,-2.79094 -1.54581,-3.88399 l 0,0 c 0.21161,-0.0814 0.0941,-0.0339 0.35124,-0.14575 1.21298,-0.59151 2.09272,-1.62467 3.29175,-2.25597 2.64215,-1.31053 5.06316,-3.05015 7.85862,-4.06079 2.62174,-1.03665 5.24081,-2.05766 7.71197,-3.42313 2.99648,-1.69285 -1.06342,0.46129 1.72583,2.44565 -0.61293,-0.33521 -1.28801,-0.54632 -1.93906,-0.79186 -3.04764,-0.98665 -6.26383,-1.34335 -9.28363,-2.45117 -3.78408,-1.26065 -7.60439,-2.51994 -11.0646,-4.5446 -2.4788,-1.61028 -0.20151,-5.11584 2.27729,-3.50556 z"
       id="path15056"
       style="fill:#000000;fill-opacity:1;fill-rule:nonzero;stroke:none" />
    <path
       style="fill:#000000;fill-opacity:1;fill-rule:nonzero;stroke:none"
       id="path15064"
       d="m 342.51707,371.23782 c 6.99959,-3.39956 12.96227,-8.73433 19.02531,-13.5412 16.38934,-13.18235 33.25668,-25.74695 50.09554,-38.34472 16.92085,-12.94994 34.32774,-25.23063 51.73943,-37.50453 2.41599,-1.70309 4.82451,1.71363 2.40853,3.41672 l 0,0 c -17.37948,12.25119 -34.75459,24.50855 -51.64377,37.43505 -16.80762,12.57437 -33.64413,25.11505 -50.00279,38.27328 -6.29005,4.9862 -12.4838,10.48977 -19.75276,14.00438 -2.64386,1.32193 -4.51335,-2.41705 -1.86949,-3.73898 z"
       inkscape:connector-curvature="0" />
    <path
       inkscape:connector-curvature="0"
       d="m 446.17678,282.12892 c 3.64837,0.16188 7.26615,-0.41693 10.85958,-0.96369 3.1713,-0.42782 6.18936,-1.51546 9.33757,-2.03535 0.97265,-0.12776 1.95342,-0.2599 2.93684,-0.22817 3.92751,0.42313 1.5526,3.7393 0.66119,5.08883 -1.68856,2.4973 -3.67032,4.75389 -5.65836,7.01455 -1.91774,2.1038 -3.25241,4.61815 -4.91825,6.90476 -0.60342,1.20254 -1.1114,2.41654 -1.90783,3.51153 -0.32635,0.40842 -0.16908,0.2205 -0.4688,0.56626 -1.94806,2.2232 -5.09212,-0.53178 -3.14406,-2.75496 l 0,0 c 0.15136,-0.16881 0.0684,-0.073 0.24643,-0.28964 0.81089,-1.07872 1.12405,-2.39906 1.90441,-3.50687 1.75626,-2.3694 3.12032,-5.02023 5.14957,-7.19235 1.86273,-2.11623 3.73019,-4.21732 5.30918,-6.55781 1.89778,-2.87109 -0.73698,0.89471 2.64976,1.39228 -0.69832,-0.0195 -1.39551,0.0997 -2.08698,0.17736 -3.16277,0.50843 -6.18893,1.65449 -9.38205,2.04236 -3.94322,0.5996 -7.91809,1.2169 -11.92061,0.9888 -2.94007,-0.30575 -2.50766,-4.46364 0.43241,-4.15789 z"
       id="path15066"
       style="fill:#000000;fill-opacity:1;fill-rule:nonzero;stroke:none" />
    <path
       style="fill:none;stroke:#000000;stroke-width:3.83385825;stroke-linecap:round;stroke-linejoin:miter;stroke-miterlimit:4;stroke-opacity:1;stroke-dasharray:none"
       d="m 345.57196,122.62231 0,64.09803 61.31116,0"
       id="path15072"
       inkscape:connector-curvature="0" />
    <path
       style="fill:#000000;fill-opacity:1;fill-rule:nonzero;stroke:none"
       id="path15110"
       d="m 357.90722,189.36687 c -1.18641,2.76131 -2.5281,5.45143 -3.73661,8.20366 -0.6226,1.18212 -1.17094,2.40035 -1.71855,3.61817 -1.21289,2.69563 -5.02508,0.98035 -3.81219,-1.71528 l 0,0 c 0.54305,-1.20621 1.08288,-2.415 1.70343,-3.58417 1.23723,-2.81536 2.60682,-5.56857 3.82494,-8.39187 1.32193,-2.64385 5.06091,-0.77436 3.73898,1.86949 z"
       inkscape:connector-curvature="0" />
    <path
       inkscape:connector-curvature="0"
       d="m 367.31291,189.36687 c -1.18641,2.76131 -2.5281,5.45143 -3.73661,8.20366 -0.6226,1.18212 -1.17094,2.40035 -1.71855,3.61817 -1.21289,2.69563 -5.02508,0.98035 -3.81219,-1.71528 l 0,0 c 0.54305,-1.20621 1.08288,-2.415 1.70343,-3.58417 1.23723,-2.81536 2.60682,-5.56857 3.82494,-8.39187 1.32193,-2.64385 5.06091,-0.77436 3.73898,1.86949 z"
       id="path15112"
       style="fill:#000000;fill-opacity:1;fill-rule:nonzero;stroke:none" />
    <path
       inkscape:connector-curvature="0"
       d="m 377.06696,189.71523 c -1.18641,2.76131 -2.5281,5.45143 -3.73661,8.20366 -0.6226,1.18212 -1.17094,2.40035 -1.71855,3.61817 -1.21289,2.69563 -5.02508,0.98035 -3.81219,-1.71528 l 0,0 c 0.54305,-1.20621 1.08288,-2.415 1.70343,-3.58417 1.23723,-2.81536 2.60682,-5.56857 3.82494,-8.39187 1.32193,-2.64385 5.06091,-0.77436 3.73898,1.86949 z"
       id="path15114"
       style="fill:#000000;fill-opacity:1;fill-rule:nonzero;stroke:none" />
    <path
       style="fill:#000000;fill-opacity:1;fill-rule:nonzero;stroke:none"
       id="path15116"
       d="m 386.47265,189.71523 c -1.18641,2.76131 -2.5281,5.45143 -3.73661,8.20366 -0.6226,1.18212 -1.17094,2.40035 -1.71855,3.61817 -1.21289,2.69563 -5.02508,0.98035 -3.81219,-1.71528 l 0,0 c 0.54305,-1.20621 1.08288,-2.415 1.70343,-3.58417 1.23723,-2.81536 2.60682,-5.56857 3.82494,-8.39187 1.32193,-2.64385 5.06091,-0.77436 3.73898,1.86949 z"
       inkscape:connector-curvature="0" />
    <path
       style="fill:#000000;fill-opacity:1;fill-rule:nonzero;stroke:none"
       id="path15118"
       d="m 396.2267,190.06359 c -1.18641,2.76131 -2.5281,5.45143 -3.73661,8.20366 -0.6226,1.18212 -1.17094,2.40035 -1.71855,3.61817 -1.21289,2.69563 -5.02508,0.98035 -3.81219,-1.71528 l 0,0 c 0.54305,-1.20621 1.08288,-2.415 1.70343,-3.58417 1.23723,-2.81536 2.60682,-5.56857 3.82494,-8.39187 1.32193,-2.64385 5.06091,-0.77436 3.73898,1.86949 z"
       inkscape:connector-curvature="0" />
    <path
       inkscape:connector-curvature="0"
       d="m 405.63239,190.06359 c -1.18641,2.76131 -2.5281,5.45143 -3.73661,8.20366 -0.6226,1.18212 -1.17094,2.40035 -1.71855,3.61817 -1.21289,2.69563 -5.02508,0.98035 -3.81219,-1.71528 l 0,0 c 0.54305,-1.20621 1.08288,-2.415 1.70343,-3.58417 1.23723,-2.81536 2.60682,-5.56857 3.82494,-8.39187 1.32193,-2.64385 5.06091,-0.77436 3.73898,1.86949 z"
       id="path15120"
       style="fill:#000000;fill-opacity:1;fill-rule:nonzero;stroke:none" />
    <path
       style="fill:#000000;fill-opacity:1;fill-rule:nonzero;stroke:none"
       id="path15124"
       d="m 413.37825,184.10319 c 0.0941,1.14312 -0.0909,2.31567 -0.59864,3.35729 -0.1285,0.26363 -0.29245,0.50937 -0.43868,0.76405 -0.79993,1.09935 -1.88508,2.10078 -3.29107,2.3729 -0.32528,0.063 -0.66122,0.0502 -0.99183,0.0754 -0.35176,-0.0707 -0.71679,-0.0949 -1.05529,-0.21204 -1.25854,-0.43552 -2.1592,-1.50988 -2.58419,-2.71445 -0.0981,-0.27815 -0.14794,-0.57038 -0.22191,-0.85556 -0.17709,-1.31666 0.0945,-2.57167 0.94199,-3.63323 0.55525,-0.69552 0.87107,-0.82068 1.61635,-1.31903 0.31809,-0.14222 0.62758,-0.3044 0.95427,-0.42663 1.20757,-0.45186 2.69982,-0.71666 3.97506,-0.38432 0.38184,0.0995 0.73419,0.28584 1.10129,0.42876 0.30341,0.23326 0.64437,0.42629 0.91021,0.69976 0.80768,0.83088 1.16167,1.96616 1.06573,3.09642 -0.073,0.85993 -0.26494,1.14995 -0.59206,1.91318 -0.18798,0.27281 -0.34734,0.56667 -0.56395,0.81844 -0.81551,0.94789 -2.06742,1.63453 -3.35323,1.66542 -0.36359,0.009 -0.72395,-0.0691 -1.08593,-0.10369 -0.32964,-0.11674 -0.67391,-0.19984 -0.98891,-0.35023 -1.07894,-0.5151 -1.93633,-1.42558 -2.49447,-2.44829 -0.11378,-0.20848 -0.19775,-0.43121 -0.29663,-0.64682 -0.36912,-1.08861 -0.47953,-2.2854 0.15285,-3.31964 0.49094,-0.80292 0.7968,-0.87629 1.55649,-1.34463 0.2672,-0.093 0.52575,-0.21438 0.8016,-0.27898 1.28,-0.29976 2.62552,-0.0645 3.73944,0.61378 0.27618,0.16817 0.51617,0.38727 0.77426,0.58091 0.95241,0.89729 1.59338,2.02011 1.59751,3.34284 0.003,0.83447 -0.15391,1.05794 -0.43315,1.81811 -0.16427,0.25166 -0.30136,0.52232 -0.4928,0.75496 -0.62484,0.75932 -1.51983,1.24461 -2.51761,1.33741 -0.81296,0.0756 -1.13482,-0.0813 -1.88404,-0.28705 -1.09819,-0.49769 -2.14206,-1.23368 -2.8396,-2.21968 -0.13108,-0.18528 -0.2367,-0.38655 -0.35504,-0.57982 -0.0912,-0.30199 -0.24871,-0.59206 -0.27356,-0.90596 -0.10542,-1.33133 0.52182,-2.19339 1.6866,-2.79964 0.59137,-0.30781 1.07285,-0.3083 1.72803,-0.39553 1.21769,-0.0246 2.44395,0.25907 3.43078,0.98816 0.71537,0.52852 0.78458,0.74539 1.28146,1.44953 0.12477,0.29708 0.28462,0.58234 0.37431,0.89126 0.34001,1.17118 0.15559,2.47432 -0.50208,3.5098 -0.14927,0.23501 -0.34247,0.44056 -0.5137,0.66083 -0.21513,0.17927 -0.40711,0.38901 -0.64538,0.53779 -0.91946,0.57416 -1.97535,0.70171 -3.01481,0.37653 -0.76741,-0.24007 -0.99691,-0.49114 -1.61865,-0.95393 -1.09471,-1.04857 -1.80651,-2.40863 -1.80961,-3.93054 -5.6e-4,-0.30382 0.0513,-0.60557 0.077,-0.90835 0.0765,-0.28546 0.12577,-0.57927 0.22963,-0.85638 0.40034,-1.06809 1.18515,-2.06653 2.20389,-2.63791 0.27691,-0.15531 0.58295,-0.25482 0.87442,-0.38223 0.32656,-0.0605 0.64766,-0.166 0.97967,-0.18138 1.22285,-0.0566 2.27568,0.40522 3.13138,1.24341 0.5923,0.58018 0.7639,1.02814 1.14403,1.73695 0.6065,1.48881 0.9029,3.16596 0.32948,4.71767 -0.11407,0.30866 -0.28823,0.59288 -0.43234,0.88932 -0.19264,0.24589 -0.35434,0.51814 -0.57792,0.73767 -0.8731,0.85727 -2.0154,1.23909 -3.24736,1.02456 -0.93736,-0.16323 -1.28982,-0.49434 -2.04952,-0.98337 -1.22263,-1.09591 -2.14195,-2.50695 -2.5463,-4.08995 -0.0747,-0.29263 -0.11061,-0.59344 -0.16592,-0.89016 -10e-4,-0.30581 -0.0405,-0.61375 -0.003,-0.91741 0.13321,-1.09382 0.67141,-2.03919 1.56416,-2.7177 0.69527,-0.52842 1.03948,-0.57186 1.84824,-0.8418 1.35232,-0.28216 2.76623,-0.14628 3.93396,0.63445 0.84125,0.56246 0.90991,0.8065 1.48324,1.60037 0.13629,0.31607 0.30929,0.61935 0.40885,0.94821 0.39923,1.31856 0.22344,2.76343 -0.3467,4.00683 -0.1372,0.29921 -0.32182,0.57549 -0.48272,0.86324 -0.76228,1.10322 -1.77752,2.08852 -3.18317,2.32853 -1.046,0.1786 -1.3585,-0.0105 -2.33321,-0.2664 -0.3342,-0.183 -0.69095,-0.33135 -1.00258,-0.54899 -1.14098,-0.79688 -1.97981,-2.1227 -2.26907,-3.45783 -0.0787,-0.36328 -0.0864,-0.73782 -0.12965,-1.10672 0.0401,-0.37048 0.0359,-0.74812 0.12031,-1.11144 0.27194,-1.17064 0.9516,-2.17143 1.91563,-2.90887 0.77852,-0.59553 1.15949,-0.66204 2.06541,-0.99969 0.37245,-0.0661 0.73995,-0.16939 1.11733,-0.19836 1.61898,-0.12433 3.24466,0.47862 4.23128,1.77442 0.24915,0.32722 0.40428,0.71356 0.60643,1.07033 0.0979,0.35267 0.23946,0.69647 0.2937,1.058 0.2134,1.42248 -0.22191,2.89137 -1.05989,4.05749 -0.19027,0.26478 -0.42455,0.49666 -0.63683,0.74499 -1.02603,0.96133 -2.28313,1.54825 -3.72973,1.49588 -0.88279,-0.032 -1.16929,-0.2139 -1.97787,-0.51666 -0.26349,-0.1552 -0.54305,-0.28697 -0.79047,-0.46559 -0.90874,-0.65605 -1.72941,-1.69239 -1.95969,-2.79613 -0.0708,-0.33922 -0.0646,-0.68949 -0.0969,-1.03423 0.098,-0.38765 0.13175,-0.79638 0.29386,-1.16295 0.60893,-1.37698 2.06108,-2.14199 3.46606,-2.52405 0.3243,-0.0882 0.65864,-0.13644 0.98796,-0.20467 1.74676,-0.19958 3.64353,0.0819 4.79519,1.52842 0.23169,0.29099 0.37034,0.64236 0.55551,0.96355 0.0768,0.3833 0.20958,0.75986 0.23047,1.14989 0.0543,1.01455 -0.37352,2.04955 -1.00143,2.83887 -0.53749,0.67566 -0.78273,0.77206 -1.48146,1.25734 -0.32847,0.13461 -0.64216,0.3108 -0.98543,0.40382 -1.50209,0.40709 -2.98929,-0.0399 -4.2488,-0.85826 -0.27329,-0.17756 -0.52071,-0.39041 -0.78106,-0.58561 -0.76648,-0.66804 -1.49432,-1.43389 -1.91034,-2.36642 -0.0914,-0.2049 -0.1891,-0.41274 -0.22503,-0.63347 -0.0555,-0.34119 -0.031,-0.69028 -0.0466,-1.03542 0.19832,-0.41304 0.39664,-0.82609 0.59496,-1.23914 1.93749,-2.31779 5.29541,0.35691 3.35791,2.67469 l 0,0 c 0.11745,-0.3163 0.2349,-0.63261 0.35235,-0.94892 -0.0317,-0.20873 -0.0494,-0.41996 -0.0951,-0.6262 -0.008,-0.0338 -0.0447,-0.11422 -0.0623,-0.0842 -0.0665,0.11295 0.63615,0.89208 0.73072,0.947 0.1152,0.0961 0.22676,0.19656 0.34557,0.28839 0.15609,0.12064 0.35373,0.19147 0.49048,0.33271 0.0374,0.0387 0.004,0.1777 0.11033,0.19054 0.10098,-0.0359 0.19449,-0.0627 0.28607,-0.11868 0.27157,-0.16608 0.18497,-0.14321 0.39618,0.16997 0.0432,0.0261 0.46074,0.22517 0.31138,0.0514 -0.19378,-0.22546 -0.64274,-0.12779 -0.88551,-0.1487 -0.16129,0.0257 -0.32415,0.0433 -0.48386,0.0771 -0.1463,0.031 -0.2887,0.0775 -0.43283,0.11695 -0.17392,0.0476 -0.3076,0.10834 -0.32628,0.0442 -0.0484,-0.16595 0.15643,-0.35535 -0.005,-0.51757 -0.031,-0.0617 -0.0446,-0.13515 -0.093,-0.18506 -0.1643,-0.16952 0.36664,1.00765 0.33918,0.62279 0.0658,0.0586 0.15054,0.0974 0.20805,0.16384 0.0159,0.0184 -0.003,0.0594 0.0186,0.0699 0.1598,0.0753 0.3865,-0.0672 0.50309,-0.13979 0.36356,-0.32686 0.69163,-0.76934 0.72119,-1.26535 0.0788,-0.10284 0.0632,-0.0486 0.051,-0.19054 -0.0286,-0.3301 -0.41622,-0.26103 -0.66489,-0.24746 -0.47904,0.10797 -0.99243,0.23164 -1.19282,0.71957 -0.0784,0.54944 0.19854,0.94622 0.45725,1.40421 0.0658,0.21286 -0.27069,0.14729 -0.1972,0.29751 0.0787,0.16093 0.5915,-0.4999 0.58416,-0.46899 0.2958,-0.42341 0.54719,-0.92089 0.5011,-1.44774 -0.001,-0.0381 -0.007,-0.0763 -0.004,-0.11441 0.002,-0.0259 0.026,-0.0511 0.018,-0.0759 -0.0701,-0.21627 -0.34258,-0.25906 -0.53083,-0.23828 -0.006,1.4e-4 -0.20267,0.0197 -0.23951,-0.0182 -0.0543,-0.0559 0.0372,-0.35841 -0.0723,-0.31555 -0.0368,0.0144 -0.0294,0.0718 -0.0441,0.10774 0.0533,0.81618 0.49696,1.5483 0.97208,2.20053 0.0425,0.0497 0.11168,0.0863 0.12758,0.14913 0.0163,0.0645 -0.71516,0.22389 -0.68028,0.50057 0.003,0.0215 0.0443,-0.003 0.0665,-0.005 0.46668,-0.25607 0.14572,-1.38298 0.0276,-1.74607 -0.0417,-0.10433 -0.0814,-0.20944 -0.12502,-0.31302 -0.0278,-0.066 -0.0931,-0.12439 -0.0892,-0.19569 5.7e-4,-0.0111 0.41507,-0.0784 0.40654,-0.19991 -0.13359,-0.18366 -0.50503,0.30712 -0.5585,0.42715 -0.14462,0.44424 -0.0687,0.71006 0.20876,1.09324 0.0124,0.0279 0.0422,0.0536 0.0373,0.0836 -0.007,0.0436 -0.83003,0.16216 -0.83797,0.45891 -1.7e-4,0.0242 -0.0228,0.062 -4.9e-4,0.0725 0.0226,0.0107 0.0383,-0.0324 0.0603,-0.0442 0.0811,-0.0434 0.17353,-0.009 0.19559,-0.12161 0.003,-0.0488 0.031,-0.10005 0.0141,-0.14613 -0.081,-0.22156 -0.47259,-0.27801 -0.66616,-0.30249 -0.073,-0.0479 -0.10117,-0.0661 -0.10027,-0.0672 0.0862,-0.10917 0.22058,-0.17988 0.29403,-0.29758 0.35606,-0.57058 0.46078,-1.16304 0.10624,-1.75532 -0.22784,-0.0913 0.23735,0.32548 0.49003,0.55233 0.21511,0.19312 0.10852,0.0884 0.25603,0.23891 0.0123,0.0184 0.0512,0.0384 0.0368,0.0553 -0.0313,0.0367 -0.0908,0.0359 -0.13394,0.0585 -0.17616,0.0919 -0.41726,0.2118 -0.36527,0.44344 0.30216,0.27177 0.21929,-0.12597 0.053,-0.25709 -0.141,-0.17885 -0.30497,-0.35916 -0.52961,-0.42094 0.19553,-0.24787 0.32987,-0.48128 0.33513,-0.80427 5.3e-4,-0.0327 -0.0109,-0.0738 -0.0401,-0.0899 -0.0474,-0.0263 -0.023,0.22766 -0.0288,0.15728 0.0768,0.20957 0.13207,0.39557 0.27362,0.57439 0.055,0.0695 0.19155,0.1888 0.23733,0.2874 0.01,0.0208 0.006,0.0453 0.01,0.0679 -0.25879,0.21811 0.25435,0.12351 0.33581,0.0232 0.34294,-0.50031 0.18571,-0.11426 0.64984,-0.14208 0.10981,-0.0755 0.17971,-0.0899 -0.11444,-0.13096 -0.58011,-0.0809 -1.16706,0.11715 -1.7066,0.29518 -0.0738,0.0284 -0.14758,0.0569 -0.22137,0.0854 -0.0575,0.0363 -0.10894,0.0841 -0.17258,0.10878 -0.0218,0.008 -0.046,-0.0215 -0.0686,-0.0152 -0.11836,0.0329 -0.13847,0.20021 -0.16635,0.2911 0.025,0.51833 0.14488,0.35231 -0.3921,0.45127 -0.0911,0.0534 -0.24925,0.13419 -0.13208,0.12821 0.27948,-0.0143 0.54425,-0.34526 0.71503,-0.51884 0.30723,-0.39507 0.42997,-0.86104 0.46551,-1.35007 -0.4334,-2.96144 3.85703,-3.55974 4.29043,-0.5983 z"
       inkscape:connector-curvature="0" />
    <path
       inkscape:connector-curvature="0"
       d="m 359.87783,376.57532 c -1.18641,2.76131 -2.5281,5.45143 -3.73661,8.20366 -0.6226,1.18212 -1.17094,2.40035 -1.71855,3.61817 -1.21289,2.69563 -5.02508,0.98035 -3.81219,-1.71528 l 0,0 c 0.54305,-1.20621 1.08288,-2.415 1.70343,-3.58417 1.23723,-2.81536 2.60682,-5.56857 3.82494,-8.39187 1.32193,-2.64385 5.06091,-0.77436 3.73898,1.86949 z"
       id="path15126"
       style="fill:#000000;fill-opacity:1;fill-rule:nonzero;stroke:none" />
    <path
       style="fill:#000000;fill-opacity:1;fill-rule:nonzero;stroke:none"
       id="path15128"
       d="m 369.28352,376.57532 c -1.18641,2.76131 -2.5281,5.45143 -3.73661,8.20366 -0.6226,1.18212 -1.17094,2.40035 -1.71855,3.61817 -1.21289,2.69563 -5.02508,0.98035 -3.81219,-1.71528 l 0,0 c 0.54305,-1.20621 1.08288,-2.415 1.70343,-3.58417 1.23723,-2.81536 2.60682,-5.56857 3.82494,-8.39187 1.32193,-2.64385 5.06091,-0.77436 3.73898,1.86949 z"
       inkscape:connector-curvature="0" />
    <path
       style="fill:#000000;fill-opacity:1;fill-rule:nonzero;stroke:none"
       id="path15130"
       d="m 379.03757,376.92368 c -1.18641,2.76131 -2.5281,5.45143 -3.73661,8.20366 -0.6226,1.18212 -1.17094,2.40035 -1.71855,3.61817 -1.21289,2.69563 -5.02508,0.98035 -3.81219,-1.71528 l 0,0 c 0.54305,-1.20621 1.08288,-2.415 1.70343,-3.58417 1.23723,-2.81536 2.60682,-5.56857 3.82494,-8.39187 1.32193,-2.64385 5.06091,-0.77436 3.73898,1.86949 z"
       inkscape:connector-curvature="0" />
    <path
       inkscape:connector-curvature="0"
       d="m 388.44326,376.92368 c -1.18641,2.76131 -2.5281,5.45143 -3.73661,8.20366 -0.6226,1.18212 -1.17094,2.40035 -1.71855,3.61817 -1.21289,2.69563 -5.02508,0.98035 -3.81219,-1.71528 l 0,0 c 0.54305,-1.20621 1.08288,-2.415 1.70343,-3.58417 1.23723,-2.81536 2.60682,-5.56857 3.82494,-8.39187 1.32193,-2.64385 5.06091,-0.77436 3.73898,1.86949 z"
       id="path15132"
       style="fill:#000000;fill-opacity:1;fill-rule:nonzero;stroke:none" />
    <path
       inkscape:connector-curvature="0"
       d="m 398.19731,377.27204 c -1.18641,2.76131 -2.5281,5.45143 -3.73661,8.20366 -0.6226,1.18212 -1.17094,2.40035 -1.71855,3.61817 -1.21289,2.69563 -5.02508,0.98035 -3.81219,-1.71528 l 0,0 c 0.54305,-1.20621 1.08288,-2.415 1.70343,-3.58417 1.23723,-2.81536 2.60682,-5.56857 3.82494,-8.39187 1.32193,-2.64385 5.06091,-0.77436 3.73898,1.86949 z"
       id="path15134"
       style="fill:#000000;fill-opacity:1;fill-rule:nonzero;stroke:none" />
    <path
       style="fill:#000000;fill-opacity:1;fill-rule:nonzero;stroke:none"
       id="path15136"
       d="m 407.603,377.27204 c -1.18641,2.76131 -2.5281,5.45143 -3.73661,8.20366 -0.6226,1.18212 -1.17094,2.40035 -1.71855,3.61817 -1.21289,2.69563 -5.02508,0.98035 -3.81219,-1.71528 l 0,0 c 0.54305,-1.20621 1.08288,-2.415 1.70343,-3.58417 1.23723,-2.81536 2.60682,-5.56857 3.82494,-8.39187 1.32193,-2.64385 5.06091,-0.77436 3.73898,1.86949 z"
       inkscape:connector-curvature="0" />
    <path
       style="fill:#000000;fill-opacity:1;fill-rule:nonzero;stroke:none"
       id="path15140"
       d="m 418.50363,377.06797 c -1.18641,2.76131 -2.5281,5.45143 -3.73661,8.20366 -0.6226,1.18212 -1.17094,2.40035 -1.71855,3.61817 -1.21289,2.69563 -5.02508,0.98035 -3.81219,-1.71528 l 0,0 c 0.54305,-1.20621 1.08288,-2.415 1.70343,-3.58417 1.23723,-2.81536 2.60682,-5.56857 3.82494,-8.39187 1.32193,-2.64385 5.06091,-0.77436 3.73898,1.86949 z"
       inkscape:connector-curvature="0" />
    <path
       inkscape:connector-curvature="0"
       d="m 427.90932,377.06797 c -1.18641,2.76131 -2.5281,5.45143 -3.73661,8.20366 -0.6226,1.18212 -1.17094,2.40035 -1.71855,3.61817 -1.21289,2.69563 -5.02508,0.98035 -3.81219,-1.71528 l 0,0 c 0.54305,-1.20621 1.08288,-2.415 1.70343,-3.58417 1.23723,-2.81536 2.60682,-5.56857 3.82494,-8.39187 1.32193,-2.64385 5.06091,-0.77436 3.73898,1.86949 z"
       id="path15142"
       style="fill:#000000;fill-opacity:1;fill-rule:nonzero;stroke:none" />
    <path
       inkscape:connector-curvature="0"
       d="m 437.66337,377.41633 c -1.18641,2.76131 -2.5281,5.45143 -3.73661,8.20366 -0.6226,1.18212 -1.17094,2.40035 -1.71855,3.61817 -1.21289,2.69563 -5.02508,0.98035 -3.81219,-1.71528 l 0,0 c 0.54305,-1.20621 1.08288,-2.415 1.70343,-3.58417 1.23723,-2.81536 2.60682,-5.56857 3.82494,-8.39187 1.32193,-2.64385 5.06091,-0.77436 3.73898,1.86949 z"
       id="path15144"
       style="fill:#000000;fill-opacity:1;fill-rule:nonzero;stroke:none" />
    <path
       style="fill:#000000;fill-opacity:1;fill-rule:nonzero;stroke:none"
       id="path15146"
       d="m 447.56171,376.92368 c -1.18641,2.76131 -2.5281,5.45143 -3.73661,8.20366 -0.6226,1.18212 -1.17094,2.40035 -1.71855,3.61817 -1.21289,2.69563 -5.02508,0.98035 -3.81219,-1.71528 l 0,0 c 0.54305,-1.20621 1.08288,-2.415 1.70343,-3.58417 1.23723,-2.81536 2.60682,-5.56857 3.82494,-8.39187 1.32193,-2.64385 5.06091,-0.77436 3.73898,1.86949 z"
       inkscape:connector-curvature="0" />
    <path
       style="fill:#000000;fill-opacity:1;fill-rule:nonzero;stroke:none"
       id="path15148"
       d="m 457.31576,377.27204 c -1.18641,2.76131 -2.5281,5.45143 -3.73661,8.20366 -0.6226,1.18212 -1.17094,2.40035 -1.71855,3.61817 -1.21289,2.69563 -5.02508,0.98035 -3.81219,-1.71528 l 0,0 c 0.54305,-1.20621 1.08288,-2.415 1.70343,-3.58417 1.23723,-2.81536 2.60682,-5.56857 3.82494,-8.39187 1.32193,-2.64385 5.06091,-0.77436 3.73898,1.86949 z"
       inkscape:connector-curvature="0" />
    <path
       inkscape:connector-curvature="0"
       d="m 466.72145,377.27204 c -1.18641,2.76131 -2.5281,5.45143 -3.73661,8.20366 -0.6226,1.18212 -1.17094,2.40035 -1.71855,3.61817 -1.21289,2.69563 -5.02508,0.98035 -3.81219,-1.71528 l 0,0 c 0.54305,-1.20621 1.08288,-2.415 1.70343,-3.58417 1.23723,-2.81536 2.60682,-5.56857 3.82494,-8.39187 1.32193,-2.64385 5.06091,-0.77436 3.73898,1.86949 z"
       id="path15150"
       style="fill:#000000;fill-opacity:1;fill-rule:nonzero;stroke:none" />
    <path
       inkscape:connector-curvature="0"
       d="m 475.54395,377.27204 c -1.18641,2.76131 -2.5281,5.45143 -3.73661,8.20366 -0.6226,1.18212 -1.17094,2.40035 -1.71855,3.61817 -1.21289,2.69563 -5.02508,0.98035 -3.81219,-1.71528 l 0,0 c 0.54305,-1.20621 1.08288,-2.415 1.70343,-3.58417 1.23723,-2.81536 2.60682,-5.56857 3.82494,-8.39187 1.32193,-2.64385 5.06091,-0.77436 3.73898,1.86949 z"
       id="path15152"
       style="fill:#000000;fill-opacity:1;fill-rule:nonzero;stroke:none" />
    <path
       style="fill:#000000;fill-opacity:1;fill-rule:nonzero;stroke:none"
       id="path15154"
       d="m 484.94964,377.27204 c -1.18641,2.76131 -2.5281,5.45143 -3.73661,8.20366 -0.6226,1.18212 -1.17094,2.40035 -1.71855,3.61817 -1.21289,2.69563 -5.02508,0.98035 -3.81219,-1.71528 l 0,0 c 0.54305,-1.20621 1.08288,-2.415 1.70343,-3.58417 1.23723,-2.81536 2.60682,-5.56857 3.82494,-8.39187 1.32193,-2.64385 5.06091,-0.77436 3.73898,1.86949 z"
       inkscape:connector-curvature="0" />
    <path
       style="fill:#000000;fill-opacity:1;fill-rule:nonzero;stroke:none"
       id="path15166"
       d="m 445.38854,249.46682 c 0.1857,1.12959 -0.333,2.21841 -1.52522,2.4955 -0.24892,0.0579 -0.51031,0.0285 -0.76547,0.0427 -1.42395,-0.27389 -2.31473,-1.09988 -2.79675,-2.43388 -0.15195,-1.14901 0.51675,-1.83323 1.47253,-2.30134 1.26076,-0.59343 2.09999,1.18955 0.83923,1.78298 l 0,0 c -0.40642,0.17397 -0.16719,0.10462 -0.41756,-0.0251 -0.0832,0.41545 0.6313,0.82154 0.92366,1.00683 0.22382,0.0842 0.36237,0.31573 0.35781,-0.0898 -0.33796,-1.35183 1.57382,-1.82977 1.91177,-0.47794 z"
       inkscape:connector-curvature="0" />
    <path
       style="fill:#000000;fill-opacity:1;fill-rule:nonzero;stroke:none"
       id="path15168"
       d="m 462.98277,233.18522 c 0.51449,0.46632 0.96177,0.9724 1.30121,1.57932 0.61341,1.50373 -0.41635,2.12202 -1.7444,2.23433 -0.85831,-0.0542 -1.89789,-0.31312 -2.35846,-1.13347 -0.11658,-0.20765 -0.16304,-0.4475 -0.24456,-0.67125 -0.0802,-1.49486 0.93238,-2.27238 2.21952,-2.72232 1.31027,-0.26223 1.90805,0.37575 2.26744,1.54843 0.36244,1.34547 -1.54035,1.85804 -1.90279,0.51257 l 0,0 c -0.0645,-0.42374 0.51148,-0.0177 0.26796,-0.19468 -0.32198,0.10359 -0.65101,0.22951 -0.93781,0.38835 -0.32786,-0.14306 0.42588,0.46572 0.65146,0.30211 0.0452,0.026 0.15433,-0.01 0.15063,0.0424 -0.0161,0.22664 -0.24628,0.32777 -0.092,0.69581 0.007,0.0159 -0.002,-0.0343 -0.003,-0.0515 -0.24138,-0.45028 -0.59776,-0.78741 -0.96858,-1.13666 -0.9853,-0.98531 0.40813,-2.37875 1.39344,-1.39344 z"
       inkscape:connector-curvature="0" />
    <path
       style="fill:#000000;fill-opacity:1;fill-rule:nonzero;stroke:none"
       id="path15170"
       d="m 484.28193,229.30078 c -0.78234,0.10068 -1.9608,0.1112 -2.36108,-0.76125 -0.11653,-0.25399 -0.11797,-0.5463 -0.17696,-0.81944 0.20047,-1.31814 1.34863,-1.70465 2.52043,-1.759 1.13529,0.0284 1.98873,0.6263 2.58179,1.55521 0.49144,1.24495 -0.32295,2.45815 -1.71013,2.32531 -0.23026,-0.0221 -0.44549,-0.12472 -0.66824,-0.18708 -1.08081,-0.50181 -1.99827,-1.30837 -2.62154,-2.3216 -0.44808,-1.10862 -0.0725,-1.14117 0.78905,-1.80425 1.36032,-0.30196 1.78737,1.62183 0.42704,1.92379 l 0,0 c 0.64993,-0.69596 0.60285,-0.36583 0.50282,-1.08322 0.17293,0.55384 1.07641,1.11369 1.53785,1.41985 0.31524,0.20672 -0.38883,0.44368 0.0612,0.75403 -0.19574,-0.36155 -0.45199,-0.6001 -0.89036,-0.61145 -0.4652,-0.065 -0.4579,0.22718 -0.55975,-0.1697 -0.0622,-0.12121 -0.10499,-0.25457 -0.18665,-0.36363 -0.11474,-0.15325 -0.48315,0.007 0.27658,-0.009 1.35183,-0.33796 1.82978,1.57382 0.47794,1.91178 z"
       inkscape:connector-curvature="0" />
    <path
       style="fill:#000000;fill-opacity:1;fill-rule:nonzero;stroke:none"
       id="path15172"
       d="m 451.45459,200.91923 c 1.36572,0.8759 1.8362,1.65815 1.61891,3.29759 -0.58991,1.60111 -1.75602,2.13939 -3.37298,2.17079 -1.72809,-0.44905 -2.15966,-1.66423 -2.00276,-3.30849 0.28027,-0.80676 1.13746,-2.41871 2.21303,-2.34499 0.33398,0.0229 0.63868,0.20088 0.95802,0.30132 1.15205,0.78387 0.0435,2.41311 -1.10855,1.62925 l 0,0 c 0.20159,0.002 0.78411,-0.004 0.59901,-0.0835 -0.24261,-0.10468 -0.57858,0.63799 -0.70717,0.75066 -0.0817,0.37383 -0.14521,0.79864 0.15061,1.0878 0.39428,0.19018 1.11051,-0.2118 1.33344,-0.56337 0.21105,-0.53453 -0.11201,-0.87265 -0.56285,-1.17448 -1.24633,-0.62317 -0.36504,-2.38574 0.88129,-1.76257 z"
       inkscape:connector-curvature="0" />
    <use
       id="use16720"
       xlink:href="#path15168"
       x="0"
       y="0"
       width="1052.3622"
       height="744.09448"
       transform="matrix(0.99963787,-0.02690976,0.02690976,0.99963787,18.84285,-23.796518)" />
    <use
       id="use16722"
       xlink:href="#path15172"
       x="0"
       y="0"
       width="1052.3622"
       height="744.09448"
       transform="matrix(0.97602144,-0.21767442,0.21767442,0.97602144,41.217035,133.21201)" />
    <use
       id="use16724"
       xlink:href="#path15172"
       x="0"
       y="0"
       width="1052.3622"
       height="744.09448"
       transform="matrix(0.9780961,0.20815383,-0.20815383,0.9780961,131.12698,-84.433382)" />
    <use
       id="use16726"
       xlink:href="#path15166"
       x="0"
       y="0"
       width="1052.3622"
       height="744.09448"
       transform="matrix(0.99903192,-0.04399118,0.04399118,0.99903192,32.820074,-14.619055)" />
    <use
       id="use16728"
       xlink:href="#path15172"
       x="0"
       y="0"
       width="1052.3622"
       height="744.09448"
       transform="matrix(0.96841064,0.24936083,-0.24936083,0.96841064,118.19648,-80.418198)" />
    <use
       id="use16730"
       xlink:href="#path15168"
       x="0"
       y="0"
       width="1052.3622"
       height="744.09448"
       transform="matrix(0.94908802,-0.31501101,0.31501101,0.94908802,-13.289253,157.36108)" />
    <use
       id="use16732"
       xlink:href="#path15170"
       x="0"
       y="0"
       width="1052.3622"
       height="744.09448"
       transform="matrix(0.87814726,-0.47839041,0.47839041,0.87814726,-19.984444,254.21659)" />
    <use
       id="use16734"
       xlink:href="#path15168"
       x="0"
       y="0"
       width="1052.3622"
       height="744.09448"
       transform="matrix(0.85973671,-0.5107375,0.5107375,0.85973671,35.940242,258.48634)" />
    <use
       id="use16736"
       xlink:href="#path15168"
       x="0"
       y="0"
       width="1052.3622"
       height="744.09448"
       transform="matrix(0.92379632,0.38288425,-0.38288425,0.92379632,199.82232,-181.84071)" />
    <use
       id="use16738"
       xlink:href="#path15166"
       x="0"
       y="0"
       width="1052.3622"
       height="744.09448"
       transform="matrix(0.74650994,0.66537427,-0.66537427,0.74650994,368.09272,-246.42968)" />
    <use
       id="use16740"
       xlink:href="#path15172"
       x="0"
       y="0"
       width="1052.3622"
       height="744.09448"
       transform="matrix(0.99996281,-0.0086238,0.0086238,0.99996281,57.042342,31.401003)" />
    <use
       id="use16742"
       xlink:href="#path15170"
       x="0"
       y="0"
       width="1052.3622"
       height="744.09448"
       transform="matrix(0.99966146,0.02601852,-0.02601852,0.99966146,55.390693,-18.655013)" />
    <use
       id="use16744"
       xlink:href="#path15168"
       x="0"
       y="0"
       width="1052.3622"
       height="744.09448"
       transform="matrix(0.99898632,-0.0450148,0.0450148,0.99898632,53.370353,35.815569)" />
    <use
       id="use16746"
       xlink:href="#path15166"
       x="0"
       y="0"
       width="1052.3622"
       height="744.09448"
       transform="matrix(0.99129026,-0.1316952,0.1316952,0.99129026,74.044557,66.162335)" />
    <use
       id="use16748"
       xlink:href="#path15168"
       x="0"
       y="0"
       width="1052.3622"
       height="744.09448"
       transform="matrix(0.74946123,0.66204824,-0.66204824,0.74946123,344.53187,-221.94422)" />
    <use
       id="use16750"
       xlink:href="#path15166"
       x="0"
       y="0"
       width="1052.3622"
       height="744.09448"
       transform="matrix(0.7821733,-0.62306093,0.62306093,0.7821733,26.356,326.85885)" />
    <use
       id="use16752"
       xlink:href="#path15170"
       x="0"
       y="0"
       width="1052.3622"
       height="744.09448"
       transform="matrix(0.96850882,0.24897926,-0.24897926,0.96850882,137.18842,-102.6503)" />
    <use
       id="use16754"
       xlink:href="#path15170"
       x="0"
       y="0"
       width="1052.3622"
       height="744.09448"
       transform="matrix(0.71291454,-0.70125092,0.70125092,0.71291454,55.3151,417.26807)" />
    <use
       id="use16756"
       xlink:href="#path15168"
       x="0"
       y="0"
       width="1052.3622"
       height="744.09448"
       transform="matrix(0.74032803,-0.6722458,0.6722458,0.74032803,30.639705,366.32756)" />
    <use
       id="use16758"
       xlink:href="#path15168"
       x="0"
       y="0"
       width="1052.3622"
       height="744.09448"
       transform="matrix(0.99769448,-0.06786548,0.06786548,0.99769448,74.56955,16.371773)" />
    <use
       id="use16760"
       xlink:href="#path15168"
       x="0"
       y="0"
       width="1052.3622"
       height="744.09448"
       transform="matrix(0.90983073,-0.41497958,0.41497958,0.90983073,32.085615,248.48192)" />
    <use
       id="use16762"
       xlink:href="#path15168"
       x="0"
       y="0"
       width="1052.3622"
       height="744.09448"
       transform="matrix(0.99603347,-0.08897931,0.08897931,0.99603347,61.729181,68.716241)" />
    <use
       id="use16764"
       xlink:href="#path15170"
       x="0"
       y="0"
       width="1052.3622"
       height="744.09448"
       transform="matrix(0.83913867,0.54391754,-0.54391754,0.83913867,286.45314,-182.22242)" />
    <use
       id="use16766"
       xlink:href="#path15172"
       x="0"
       y="0"
       width="1052.3622"
       height="744.09448"
       transform="matrix(0.78859963,-0.614907,0.614907,0.78859963,88.224592,362.58234)" />
    <use
       id="use16768"
       xlink:href="#path15166"
       x="0"
       y="0"
       width="1052.3622"
       height="744.09448"
       transform="matrix(0.85608988,-0.51682698,0.51682698,0.85608988,46.417798,290.12619)" />
    <use
       id="use16770"
       xlink:href="#path15172"
       x="0"
       y="0"
       width="1052.3622"
       height="744.09448"
       transform="matrix(0.78196589,-0.62332123,0.62332123,0.78196589,75.392643,401.60861)" />
    <use
       id="use16772"
       xlink:href="#path15168"
       x="0"
       y="0"
       width="1052.3622"
       height="744.09448"
       transform="matrix(0.84409968,0.53618629,-0.53618629,0.84409968,310.27624,-205.90433)" />
    <use
       id="use16774"
       xlink:href="#path15170"
       x="0"
       y="0"
       width="1052.3622"
       height="744.09448"
       transform="matrix(0.89666201,-0.44271575,0.44271575,0.89666201,25.270845,256.13799)" />
    <use
       id="use16776"
       xlink:href="#path15166"
       x="0"
       y="0"
       width="1052.3622"
       height="744.09448"
       transform="matrix(0.77813844,0.6280928,-0.6280928,0.77813844,348.33746,-206.95456)" />
    <use
       id="use16778"
       xlink:href="#path15168"
       x="0"
       y="0"
       width="1052.3622"
       height="744.09448"
       transform="matrix(0.66655183,-0.74545869,0.74545869,0.66655183,61.693635,465.77098)" />
    <use
       id="use16780"
       xlink:href="#path15172"
       x="0"
       y="0"
       width="1052.3622"
       height="744.09448"
       transform="matrix(0.81867053,0.57426349,-0.57426349,0.81867053,313.73746,-125.00961)" />
    <use
       id="use16782"
       xlink:href="#path15166"
       x="0"
       y="0"
       width="1052.3622"
       height="744.09448"
       transform="matrix(0.9955504,-0.09423053,0.09423053,0.9955504,78.222204,83.822173)" />
    <use
       id="use16784"
       xlink:href="#path15170"
       x="0"
       y="0"
       width="1052.3622"
       height="744.09448"
       transform="matrix(0.69963931,-0.71449621,0.71449621,0.69963931,56.011369,476.43885)" />
    <use
       id="use16786"
       xlink:href="#path15170"
       x="0"
       y="0"
       width="1052.3622"
       height="744.09448"
       transform="matrix(0.98167767,0.1905491,-0.1905491,0.98167767,124.17494,-29.249953)" />
    <use
       id="use16788"
       xlink:href="#path15170"
       x="0"
       y="0"
       width="1052.3622"
       height="744.09448"
       transform="matrix(0.93897752,0.3439785,-0.3439785,0.93897752,174.9391,-112.32485)" />
    <use
       id="use16790"
       xlink:href="#path15168"
       x="0"
       y="0"
       width="1052.3622"
       height="744.09448"
       transform="matrix(0.89150647,-0.45300795,0.45300795,0.89150647,26.723643,303.4291)" />
    <use
       id="use16792"
       xlink:href="#path15172"
       x="0"
       y="0"
       width="1052.3622"
       height="744.09448"
       transform="matrix(0.87804804,0.47857249,-0.47857249,0.87804804,238.17067,-95.162802)" />
    <use
       id="use16794"
       xlink:href="#path15170"
       x="0"
       y="0"
       width="1052.3622"
       height="744.09448"
       transform="matrix(0.94639915,-0.32299947,0.32299947,0.94639915,39.36852,233.59962)" />
    <use
       id="use16796"
       xlink:href="#path15166"
       x="0"
       y="0"
       width="1052.3622"
       height="744.09448"
       transform="matrix(0.67935334,0.73381131,-0.73381131,0.67935334,407.02582,-210.59021)" />
    <use
       id="use16798"
       xlink:href="#path15172"
       x="0"
       y="0"
       width="1052.3622"
       height="744.09448"
       transform="matrix(0.99990494,0.01378781,-0.01378781,0.99990494,106.82827,100.5366)" />
    <use
       id="use16800"
       xlink:href="#path15172"
       x="0"
       y="0"
       width="1052.3622"
       height="744.09448"
       transform="matrix(0.82867005,-0.55973739,0.55973739,0.82867005,77.453192,379.1956)" />
    <use
       id="use16802"
       xlink:href="#path15168"
       x="0"
       y="0"
       width="1052.3622"
       height="744.09448"
       transform="matrix(0.88463132,0.46629114,-0.46629114,0.88463132,247.94885,-106.73919)" />
    <use
       id="use16804"
       xlink:href="#path15166"
       x="0"
       y="0"
       width="1052.3622"
       height="744.09448"
       transform="matrix(0.84777441,0.530357,-0.530357,0.84777441,298.13096,-120.77698)" />
    <use
       id="use16806"
       xlink:href="#path15168"
       x="0"
       y="0"
       width="1052.3622"
       height="744.09448"
       transform="matrix(0.70932919,0.70487737,-0.70487737,0.70932919,388.53625,-175.94669)" />
    <use
       id="use16808"
       xlink:href="#path15166"
       x="0"
       y="0"
       width="1052.3622"
       height="744.09448"
       transform="matrix(0.99296522,-0.1184064,0.1184064,0.99296522,52.06183,110.17376)" />
    <use
       id="use16810"
       xlink:href="#path15168"
       x="0"
       y="0"
       width="1052.3622"
       height="744.09448"
       transform="matrix(0.64552031,0.7637431,-0.7637431,0.64552031,394.63214,-190.72203)" />
    <use
       id="use16812"
       xlink:href="#path15168"
       x="0"
       y="0"
       width="1052.3622"
       height="744.09448"
       transform="matrix(0.72201557,0.69187681,-0.69187681,0.72201557,362.52573,-159.7935)" />
    <use
       id="use16814"
       xlink:href="#path15170"
       x="0"
       y="0"
       width="1052.3622"
       height="744.09448"
       transform="matrix(0.9412399,0.33773872,-0.33773872,0.9412399,166.14513,-40.725041)" />
    <use
       id="use16816"
       xlink:href="#path15166"
       x="0"
       y="0"
       width="1052.3622"
       height="744.09448"
       transform="matrix(0.92506533,-0.37980803,0.37980803,0.92506533,-6.928855,241.64304)" />
    <use
       id="use16818"
       xlink:href="#path15170"
       x="0"
       y="0"
       width="1052.3622"
       height="744.09448"
       transform="matrix(0.92212689,-0.38688757,0.38688757,0.92212689,-32.32038,314.16268)" />
    <use
       id="use16820"
       xlink:href="#path15166"
       x="0"
       y="0"
       width="1052.3622"
       height="744.09448"
       transform="matrix(0.98257361,0.18587389,-0.18587389,0.98257361,110.11507,-7.2267887)" />
    <use
       id="use16822"
       xlink:href="#path15172"
       x="0"
       y="0"
       width="1052.3622"
       height="744.09448"
       transform="matrix(0.94379228,-0.33053915,0.33053915,0.94379228,-0.2237056,277.81197)" />
    <use
       id="use16824"
       xlink:href="#path15166"
       x="0"
       y="0"
       width="1052.3622"
       height="744.09448"
       transform="matrix(0.66523229,-0.74663646,0.74663646,0.66523229,16.456261,491.38942)" />
    <use
       id="use16826"
       xlink:href="#path15168"
       x="0"
       y="0"
       width="1052.3622"
       height="744.09448"
       transform="matrix(0.98273761,0.18500485,-0.18500485,0.98273761,96.849036,24.954518)" />
    <use
       id="use16828"
       xlink:href="#path15168"
       x="0"
       y="0"
       width="1052.3622"
       height="744.09448"
       transform="matrix(0.82459131,-0.56572888,0.56572888,0.82459131,-3.0213747,409.01299)" />
    <use
       id="use16830"
       xlink:href="#path15168"
       x="0"
       y="0"
       width="1052.3622"
       height="744.09448"
       transform="matrix(0.99826411,0.05889621,-0.05889621,0.99826411,17.465134,82.345137)" />
    <use
       id="use16832"
       xlink:href="#path15172"
       x="0"
       y="0"
       width="1052.3622"
       height="744.09448"
       transform="matrix(0.72530178,-0.68843106,0.68843106,0.72530178,37.301531,464.28599)" />
    <use
       id="use16834"
       xlink:href="#path15172"
       x="0"
       y="0"
       width="1052.3622"
       height="744.09448"
       transform="matrix(0.99692045,-0.07841946,0.07841946,0.99692045,16.333314,149.96121)" />
    <use
       id="use16836"
       xlink:href="#path15172"
       x="0"
       y="0"
       width="1052.3622"
       height="744.09448"
       transform="matrix(0.99822394,0.05957319,-0.05957319,0.99822394,59.826505,113.18023)" />
    <use
       id="use16838"
       xlink:href="#path15168"
       x="0"
       y="0"
       width="1052.3622"
       height="744.09448"
       transform="matrix(0.98392167,-0.17860053,0.17860053,0.98392167,-18.733021,182.45334)" />
    <use
       id="use16840"
       xlink:href="#path15168"
       x="0"
       y="0"
       width="1052.3622"
       height="744.09448"
       transform="matrix(0.90915603,-0.41645565,0.41645565,0.90915603,-56.33134,282.20054)" />
    <use
       id="use16842"
       xlink:href="#path15166"
       x="0"
       y="0"
       width="1052.3622"
       height="744.09448"
       transform="matrix(0.89114597,0.45371672,-0.45371672,0.89114597,188.07791,-75.851483)" />
    <use
       id="use16844"
       xlink:href="#path15168"
       x="0"
       y="0"
       width="1052.3622"
       height="744.09448"
       transform="matrix(0.91867977,0.39500314,-0.39500314,0.91867977,136.64042,-76.860838)" />
    <use
       id="use16846"
       xlink:href="#path15166"
       x="0"
       y="0"
       width="1052.3622"
       height="744.09448"
       transform="matrix(0.82478414,-0.56544771,0.56544771,0.82478414,-27.274167,382.51537)" />
    <use
       id="use16848"
       xlink:href="#path15168"
       x="0"
       y="0"
       width="1052.3622"
       height="744.09448"
       transform="matrix(0.73547759,-0.67754905,0.67754905,0.73547759,-35.58223,475.25358)" />
    <use
       id="use16850"
       xlink:href="#path15166"
       x="0"
       y="0"
       width="1052.3622"
       height="744.09448"
       transform="matrix(0.83633322,0.54822144,-0.54822144,0.83633322,249.6555,-118.23595)" />
    <use
       id="use16852"
       xlink:href="#path15172"
       x="0"
       y="0"
       width="1052.3622"
       height="744.09448"
       transform="matrix(0.65692378,0.75395699,-0.75395699,0.65692378,311.40942,-145.06032)" />
    <use
       id="use16854"
       xlink:href="#path15170"
       x="0"
       y="0"
       width="1052.3622"
       height="744.09448"
       transform="matrix(0.83826317,0.54526585,-0.54526585,0.83826317,157.76591,-137.87519)" />
    <use
       id="use16856"
       xlink:href="#path15170"
       x="0"
       y="0"
       width="1052.3622"
       height="744.09448"
       transform="matrix(0.87845288,-0.47782899,0.47782899,0.87845288,-84.536415,346.73555)" />
    <use
       id="use16858"
       xlink:href="#path15166"
       x="0"
       y="0"
       width="1052.3622"
       height="744.09448"
       transform="matrix(0.73518631,0.6778651,-0.6778651,0.73518631,293.16783,-181.50665)" />
    <use
       id="use16860"
       xlink:href="#path15168"
       x="0"
       y="0"
       width="1052.3622"
       height="744.09448"
       transform="matrix(0.99863775,-0.05217895,0.05217895,0.99863775,14.390271,115.22793)" />
    <use
       id="use16862"
       xlink:href="#path15172"
       x="0"
       y="0"
       width="1052.3622"
       height="744.09448"
       transform="matrix(0.99527053,0.09714199,-0.09714199,0.99527053,34.964001,42.305097)" />
    <use
       id="use16864"
       xlink:href="#path15168"
       x="0"
       y="0"
       width="1052.3622"
       height="744.09448"
       transform="matrix(0.72344555,-0.69038144,0.69038144,0.72344555,-47.440441,437.97014)" />
    <use
       id="use16866"
       xlink:href="#path15172"
       x="0"
       y="0"
       width="1052.3622"
       height="744.09448"
       transform="matrix(0.90300875,0.42962216,-0.42962216,0.90300875,147.69293,-66.725307)" />
    <use
       id="use16868"
       xlink:href="#path15172"
       x="0"
       y="0"
       width="1052.3622"
       height="744.09448"
       transform="matrix(0.93216955,-0.36202201,0.36202201,0.93216955,-61.159398,265.02121)" />
    <use
       id="use16870"
       xlink:href="#path15166"
       x="0"
       y="0"
       width="1052.3622"
       height="744.09448"
       transform="matrix(0.66495136,0.74688666,-0.74688666,0.66495136,350.05283,-191.00761)" />
    <use
       id="use16872"
       xlink:href="#path15168"
       x="0"
       y="0"
       width="1052.3622"
       height="744.09448"
       transform="matrix(0.89106507,0.45387557,-0.45387557,0.89106507,141.05308,-150.20846)" />
    <use
       id="use16874"
       xlink:href="#path15170"
       x="0"
       y="0"
       width="1052.3622"
       height="744.09448"
       transform="matrix(0.99976607,-0.02162871,0.02162871,0.99976607,-37.339181,96.806801)" />
    <use
       id="use16876"
       xlink:href="#path15170"
       x="0"
       y="0"
       width="1052.3622"
       height="744.09448"
       transform="matrix(0.81258067,0.58284875,-0.58284875,0.81258067,203.00553,-194.46752)" />
    <use
       id="use16878"
       xlink:href="#path15166"
       x="0"
       y="0"
       width="1052.3622"
       height="744.09448"
       transform="matrix(0.94855509,-0.31661214,0.31661214,0.94855509,-55.283409,166.95113)" />
    <use
       id="use16880"
       xlink:href="#path15168"
       x="0"
       y="0"
       width="1052.3622"
       height="744.09448"
       transform="matrix(0.99940771,-0.03441255,0.03441255,0.99940771,-27.571976,55.188191)" />
    <use
       id="use16882"
       xlink:href="#path15166"
       x="0"
       y="0"
       width="1052.3622"
       height="744.09448"
       transform="matrix(0.97822312,-0.20755609,0.20755609,0.97822312,-57.241066,145.71496)" />
    <use
       id="use16884"
       xlink:href="#path15166"
       x="0"
       y="0"
       width="1052.3622"
       height="744.09448"
       transform="matrix(0.85386884,0.52048823,-0.52048823,0.85386884,203.17575,-166.62985)" />
    <use
       id="use16886"
       xlink:href="#path15172"
       x="0"
       y="0"
       width="1052.3622"
       height="744.09448"
       transform="matrix(0.96577615,-0.259377,0.259377,0.96577615,-42.924781,194.16363)" />
    <use
       id="use16888"
       xlink:href="#path15166"
       x="0"
       y="0"
       width="1052.3622"
       height="744.09448"
       transform="matrix(0.99998709,0.00508061,-0.00508061,0.99998709,-8.5797801,-3.9597301)" />
    <use
       id="use16890"
       xlink:href="#path15166"
       x="0"
       y="0"
       width="1052.3622"
       height="744.09448"
       transform="matrix(0.85909331,-0.51181899,0.51181899,0.85909331,-56.149023,291.74021)" />
    <use
       id="use16892"
       xlink:href="#path15170"
       x="0"
       y="0"
       width="1052.3622"
       height="744.09448"
       transform="matrix(0.99335768,0.11506742,-0.11506742,0.99335768,5.2239238,-23.548219)" />
    <use
       id="use16894"
       xlink:href="#path15170"
       x="0"
       y="0"
       width="1052.3622"
       height="744.09448"
       transform="matrix(0.99999071,-0.00431084,0.00431084,0.99999071,-62.644085,18.025542)" />
    <use
       id="use16896"
       xlink:href="#path15172"
       x="0"
       y="0"
       width="1052.3622"
       height="744.09448"
       transform="matrix(0.99667912,-0.08142936,0.08142936,0.99667912,-42.569726,88.341093)" />
    <use
       id="use16898"
       xlink:href="#path15170"
       x="0"
       y="0"
       width="1052.3622"
       height="744.09448"
       transform="matrix(0.95302065,0.30290533,-0.30290533,0.95302065,67.606663,-132.95546)" />
    <use
       id="use16900"
       xlink:href="#path15170"
       x="0"
       y="0"
       width="1052.3622"
       height="744.09448"
       transform="matrix(0.99837476,0.0569899,-0.0569899,0.99837476,-21.1344,-12.9248)" />
    <use
       id="use16902"
       xlink:href="#path15172"
       x="0"
       y="0"
       width="1052.3622"
       height="744.09448"
       transform="matrix(0.93880095,-0.34446013,0.34446013,0.93880095,-56.917211,216.02848)" />
    <use
       id="use16904"
       xlink:href="#path15166"
       x="0"
       y="0"
       width="1052.3622"
       height="744.09448"
       transform="matrix(0.91790007,-0.39681161,0.39681161,0.91790007,-79.735408,195.98076)" />
    <use
       id="use16906"
       xlink:href="#path15166"
       x="0"
       y="0"
       width="1052.3622"
       height="744.09448"
       transform="matrix(0.98401113,-0.17810698,0.17810698,0.98401113,-27.737941,68.835115)" />
    <use
       id="use16908"
       xlink:href="#path15168"
       x="0"
       y="0"
       width="1052.3622"
       height="744.09448"
       transform="matrix(0.76135863,-0.64833096,0.64833096,0.76135863,-68.160546,365.11276)" />
    <use
       id="use16910"
       xlink:href="#path15166"
       x="0"
       y="0"
       width="1052.3622"
       height="744.09448"
       transform="matrix(0.7825515,-0.62258586,0.62258586,0.7825515,-56.493293,317.99427)" />
    <use
       id="use16912"
       xlink:href="#path15170"
       x="0"
       y="0"
       width="1052.3622"
       height="744.09448"
       transform="matrix(0.94425212,-0.32922322,0.32922322,0.94425212,-71.920755,193.95533)" />
    <use
       id="use16914"
       xlink:href="#path15168"
       x="0"
       y="0"
       width="1052.3622"
       height="744.09448"
       transform="matrix(0.91688606,-0.39914903,0.39914903,0.91688606,-56.071136,182.73495)" />
    <use
       id="use16916"
       xlink:href="#path15168"
       x="0"
       y="0"
       width="1052.3622"
       height="744.09448"
       transform="matrix(0.819202,0.57350509,-0.57350509,0.819202,209.19645,-258.50365)" />
    <use
       id="use16918"
       xlink:href="#path15168"
       x="0"
       y="0"
       width="1052.3622"
       height="744.09448"
       transform="matrix(0.86402432,0.50345007,-0.50345007,0.86402432,189.80433,-232.1108)" />
    <use
       id="use16920"
       xlink:href="#path15172"
       x="0"
       y="0"
       width="1052.3622"
       height="744.09448"
       transform="matrix(0.83582497,0.548996,-0.548996,0.83582497,203.92246,-201.19517)" />
    <use
       id="use16922"
       xlink:href="#path15172"
       x="0"
       y="0"
       width="1052.3622"
       height="744.09448"
       transform="matrix(0.86525842,0.5013261,-0.5013261,0.86525842,203.17738,-179.10008)" />
    <use
       id="use16924"
       xlink:href="#path15172"
       x="0"
       y="0"
       width="1052.3622"
       height="744.09448"
       transform="matrix(0.91257447,0.40891054,-0.40891054,0.91257447,171.53671,-150.62417)" />
    <use
       id="use16926"
       xlink:href="#path15166"
       x="0"
       y="0"
       width="1052.3622"
       height="744.09448"
       transform="matrix(0.7594158,0.6506056,-0.6506056,0.7594158,324.13274,-242.18683)" />
    <use
       id="use16928"
       xlink:href="#path15166"
       x="0"
       y="0"
       width="1052.3622"
       height="744.09448"
       transform="matrix(0.9891796,-0.14670963,0.14670963,0.9891796,17.977872,50.835059)" />
    <use
       id="use16930"
       xlink:href="#path15172"
       x="0"
       y="0"
       width="1052.3622"
       height="744.09448"
       transform="matrix(0.85155261,0.52426917,-0.52426917,0.85155261,235.79388,-215.59159)" />
    <use
       id="use16932"
       xlink:href="#path15170"
       x="0"
       y="0"
       width="1052.3622"
       height="744.09448"
       transform="matrix(0.93933753,0.34299419,-0.34299419,0.93933753,106.71445,-156.64255)" />
    <use
       id="use16934"
       xlink:href="#path15166"
       x="0"
       y="0"
       width="1052.3622"
       height="744.09448"
       transform="matrix(0.99540605,0.0957434,-0.0957434,0.99540605,65.589742,-77.039222)" />
    <use
       id="use16936"
       xlink:href="#path15168"
       x="0"
       y="0"
       width="1052.3622"
       height="744.09448"
       transform="matrix(0.88133983,-0.47248292,0.47248292,0.88133983,-9.4375196,220.4269)" />
    <use
       id="use16938"
       xlink:href="#path15166"
       x="0"
       y="0"
       width="1052.3622"
       height="744.09448"
       transform="matrix(0.9938951,-0.11032917,0.11032917,0.9938951,57.545153,34.529383)" />
    <use
       id="use16940"
       xlink:href="#path15168"
       x="0"
       y="0"
       width="1052.3622"
       height="744.09448"
       transform="matrix(0.74212611,-0.67026028,0.67026028,0.74212611,38.223379,365.28754)" />
    <use
       id="use16942"
       xlink:href="#path15168"
       x="0"
       y="0"
       width="1052.3622"
       height="744.09448"
       transform="matrix(0.72309939,-0.690744,0.690744,0.72309939,37.34936,396.88946)" />
    <use
       id="use16944"
       xlink:href="#path15166"
       x="0"
       y="0"
       width="1052.3622"
       height="744.09448"
       transform="matrix(0.63751721,0.77043611,-0.77043611,0.63751721,415.62781,-293.76102)" />
    <use
       id="use16946"
       xlink:href="#path15168"
       x="0"
       y="0"
       width="1052.3622"
       height="744.09448"
       transform="matrix(0.69318373,-0.72076093,0.72076093,0.69318373,29.205318,402.64974)" />
    <path
       style="fill:#000000;fill-opacity:1;fill-rule:nonzero;stroke:none"
       id="path16952"
       d="m 529.47871,288.84361 c -1.8579,-0.39457 -3.75368,-0.59694 -5.64935,-0.73026 -1.53853,-0.18899 -2.69927,-0.14722 -3.83132,0.89697 -1.48575,1.39465 -2.26846,3.25511 -2.77581,5.14995 -0.61587,2.83353 0.20461,5.71082 1.12048,8.40401 1.22199,2.46336 2.91743,4.68041 5.39462,6.07271 1.72145,0.88618 2.51572,-0.01 3.66676,-1.17546 1.20799,-1.684 1.65385,-3.68419 1.93174,-5.67467 0.0885,-0.77675 0.1545,-1.55777 0.13861,-2.33949 -0.0247,1.44657 3.85555,1.12591 4.25866,0.28086 0.58255,2.0361 1.02866,4.10781 1.61746,6.14288 0.55794,1.86953 1.10323,3.7459 1.42008,5.66858 0.077,0.15024 0.32098,0.43694 0.37476,0.48432 -0.11897,-0.12117 -0.27017,-0.1921 -0.41987,-0.27249 2.74371,1.21616 0.94694,4.93035 -1.79677,3.71419 l 0,0 c -0.25913,-0.13386 -0.51232,-0.26857 -0.72347,-0.46968 -0.82707,-0.78201 -1.38772,-1.7469 -1.66091,-2.83377 -0.27454,-1.77007 -0.82364,-3.48683 -1.31758,-5.20865 -0.5866,-2.0647 -1.05083,-4.16019 -1.63964,-6.2235 -0.15347,-0.88174 -0.32708,-1.62988 -0.13728,-1.67123 3.50118,-0.76277 4.1809,-1.54929 4.2982,0.25197 0.0309,1.01372 -0.0614,2.02731 -0.17617,3.03409 -0.4213,2.86454 -1.17574,5.6814 -3.11388,7.9815 -2.76146,2.63514 -5.29276,3.62801 -8.95958,1.79774 -3.30151,-1.99829 -5.69876,-4.85815 -7.22729,-8.30936 -1.14577,-3.45956 -2.06,-7.09572 -1.17955,-10.71283 0.77861,-2.702 1.95195,-5.29308 4.15423,-7.22424 2.08325,-1.58316 4.2394,-2.20783 6.90015,-1.84625 2.13819,0.1534 4.27644,0.38448 6.3698,0.84123 2.93333,0.70196 1.89624,4.67284 -1.03708,3.97088 z"
       inkscape:connector-curvature="0" />
    <path
       style="fill:#000000;fill-opacity:1;fill-rule:nonzero;stroke:none"
       id="path16954"
       d="m 525.57946,296.09545 c 2.68201,-0.28443 5.30306,-0.89459 7.9471,-1.39162 1.32241,-0.22349 2.65151,-0.4167 3.9881,-0.5437 0.0615,-0.005 0.12298,-0.01 0.18448,-0.015 3.01311,-0.24087 3.36898,3.83801 0.35587,4.07889 l 0,0 c -0.0402,0.003 -0.0804,0.007 -0.12065,0.009 -1.20121,0.11249 -2.39511,0.28974 -3.58397,0.48679 -2.68387,0.5043 -5.34606,1.12078 -8.06796,1.41262 -2.98246,0.47581 -3.68542,-3.56158 -0.70297,-4.03739 z"
       inkscape:connector-curvature="0" />
    <path
       style="fill:#000000;fill-opacity:1;fill-rule:nonzero;stroke:none"
       id="path16956"
       d="m 380.93947,296.77081 c 0.35424,2.93047 1.02019,5.80155 1.74975,8.66342 0.42154,2.36193 1.1563,4.63814 1.85394,6.93185 -0.0485,-0.0891 0.518,1.89841 0.48281,1.8424 -0.1661,-0.26434 -0.0952,-0.86152 -0.4163,-0.8352 -1.34037,0.10988 -2.56101,0.7895 -3.84151,1.18425 -1.24063,-2.28517 -1.84254,-4.86399 -2.33763,-7.37796 -0.65921,-3.65676 -0.80125,-7.3279 -0.13499,-10.98418 1.37608,-4.25394 3.48528,-5.41404 8.03345,-4.69175 3.027,0.86631 5.50477,2.7545 7.84505,4.71184 1.19117,1.01923 2.39449,1.88893 1.92215,3.71619 -0.12593,0.48717 -0.64859,0.78868 -0.97288,1.18302 -2.42391,1.7301 -4.98,-1.55117 -2.55608,-3.28128 l 0,0 c -0.18491,0.29485 -0.51985,0.54228 -0.55474,0.88455 -0.15737,1.54374 1.23293,2.18393 -0.65467,0.5775 -1.77286,-1.48816 -3.62581,-2.97277 -5.85965,-3.77674 -1.8005,-0.46282 -2.33827,-0.51661 -2.99522,1.40698 -0.62869,3.15721 -0.39813,6.34261 0.13125,9.50412 0.48803,2.54145 1.25454,4.97425 2.3314,7.34671 -4.73419,2.90992 -3.56161,2.94552 -4.52912,-0.26999 -0.70963,-2.35091 -1.4663,-4.68364 -1.9014,-7.10207 -0.7434,-2.91667 -1.43167,-5.8437 -1.78858,-8.83094 -0.59298,-2.83804 3.6,-3.64075 4.19297,-0.80272 z"
       inkscape:connector-curvature="0" />
    <path
       style="fill:#000000;fill-opacity:1;fill-rule:nonzero;stroke:none"
       id="path16968"
       d="m 374.40013,285.4877 c 2.41015,0.0817 4.78462,-0.24243 7.14727,-0.66497 3.02275,-0.62086 6.08449,-1.04027 9.15157,-1.39856 0.63014,-0.0608 1.2588,-0.15153 1.89209,-0.17946 1.50313,0.0162 2.88398,-0.0353 0.29171,4.09493 -1.34291,2.13965 -2.63589,-2.02083 -2.64808,-2.06893 -0.0453,-0.17875 0.0331,-0.69017 0.0652,-0.93026 -0.57597,0.20306 0.48527,0.95999 0.2167,0.99628 -0.16706,0.0226 -1.03336,-0.97436 -1.23406,-1.12098 -1.27096,-0.87899 -2.61399,-1.72013 -4.01015,-2.41096 -0.85666,-0.43844 -1.48485,-1.03164 -2.13,-1.70898 -1.93269,-2.22579 1.35574,-4.84209 3.28843,-2.6163 l 0,0 c 0.14238,0.34555 0.57307,0.47409 0.84695,0.71024 1.63552,0.84563 3.24001,1.79292 4.72146,2.86516 1.26648,1.032 2.5371,2.08279 2.54169,3.8081 -0.0746,0.55157 7.7e-4,0.12103 -0.0529,-0.0128 -0.0209,-0.0518 -1.53376,-3.64173 -2.42936,-1.52693 -1.71914,4.05947 -0.79783,4.00726 0.69094,4.0117 -0.40781,0.0299 -1.07313,0.0983 -1.53303,0.15216 -2.98061,0.3477 -5.9559,0.75528 -8.89295,1.36066 -2.95108,0.51601 -5.95769,0.95243 -8.96064,0.61077 -2.93331,-0.70196 -1.89623,-4.67283 1.0371,-3.97087 z"
       inkscape:connector-curvature="0" />
    <path
       style="fill:#000000;fill-opacity:1;fill-rule:nonzero;stroke:none"
       id="path16974"
       d="m 398.27319,311.1738 c -1.4358,-0.0153 -2.83713,-0.16934 -4.12413,0.54276 -0.98138,1.19027 -1.07771,2.79193 -1.22888,4.25903 -0.0833,1.52282 -0.18925,3.35202 0.89214,4.57586 0.81812,0.53765 1.90441,0.75686 2.87354,0.62969 0.98932,-0.35323 1.4282,-1.13572 1.74381,-2.06691 0.37054,-1.07325 0.17942,-2.08969 -0.0843,-3.15486 -0.0632,-0.21889 -0.12678,-0.43803 -0.20457,-0.6523 5.35121,-0.83084 2.20148,-0.80812 3.41513,1.51073 0.70909,1.42609 1.33999,2.88846 2.02916,4.32536 0.53382,1.11011 0.87467,2.28594 1.08917,3.49259 0.41166,2.34484 -2.94487,2.92 -3.35652,0.57515 l 0,0 c -0.15678,-0.90904 -0.40847,-1.79184 -0.81162,-2.62751 -0.71992,-1.50337 -1.38225,-3.03152 -2.11757,-4.52655 -0.11191,-0.30875 -0.25298,-0.60866 -0.33574,-0.92625 -0.047,-0.18067 -0.20426,-2.36141 -0.1144,-2.40111 1.02683,-0.45365 2.15323,-0.6437 3.22985,-0.96556 0.22158,0.44733 0.36106,0.92785 0.48923,1.40815 0.41197,1.71289 0.57515,3.41928 -0.0361,5.11873 -0.86483,2.17085 -2.2833,3.81396 -4.71553,4.24894 -2.18123,0.0803 -4.29578,-0.37396 -5.84563,-2.00472 -1.42296,-2.07068 -1.79951,-4.42976 -1.52816,-6.90983 0.28665,-2.64414 0.74121,-5.2734 3.09011,-6.91725 1.8224,-0.8529 3.65036,-1.02573 5.65102,-0.89975 2.40886,0 2.40886,3.36561 0,3.36561 z"
       inkscape:connector-curvature="0" />
    <path
       style="fill:#000000;fill-opacity:1;fill-rule:nonzero;stroke:none"
       id="path16976"
       d="m 394.51863,314.48903 c 2.05791,-0.7292 4.12456,-1.42012 6.24691,-1.94513 1.15473,-0.29274 2.33642,-0.43859 3.52337,-0.516 2.40381,-0.1538 2.62395,3.2048 0.22013,3.35858 l 0,0 c -0.98382,0.0615 -1.96343,0.17927 -2.92028,0.42329 -2.12376,0.51929 -4.17569,1.24816 -6.2439,1.94439 -2.33693,0.5772 -3.16317,-2.68793 -0.82623,-3.26513 z"
       inkscape:connector-curvature="0" />
    <path
       style="fill:#000000;fill-opacity:1;fill-rule:nonzero;stroke:none"
       id="path16984"
       d="m 342.46888,367.78979 c 1.24177,1.25616 2.56215,2.42114 3.59427,3.85696 1.5099,2.65368 -0.0922,4.89969 -2.30176,6.32875 -2.7995,1.25416 -4.2194,1.28307 -6.64732,-0.70087 -1.47946,-2.41388 -1.48542,-4.9012 -0.52797,-7.49824 1.30979,-2.78368 3.81821,-4.06506 6.74986,-4.33139 3.41254,0.49848 5.08148,2.75686 5.97335,5.89918 0.63701,2.72797 0.60271,4.67942 -0.93888,7.07579 -1.90992,1.66868 -4.0354,2.09696 -6.46932,1.74893 -2.4194,-0.86455 -3.05483,-3.04769 -3.26504,-5.34777 -0.31325,-2.54249 0.68385,-4.32995 2.69886,-5.80144 2.3383,-1.27666 4.56808,-1.14365 6.86522,0.0669 2.62921,2.05742 3.42136,4.68999 0.84378,7.29422 -2.93105,1.61396 -5.76297,1.07447 -8.45845,-0.67123 -2.09098,-1.73333 -3.29256,-3.94024 -2.76111,-6.64895 0.88784,-1.56136 1.92376,-2.12673 3.5459,-2.49352 3.85786,-0.80635 4.99821,4.64949 1.14035,5.45584 l 0,0 c -0.56295,0.0249 1.29334,-0.70759 0.61606,-1.24413 0.0662,-2.18859 -0.54354,-0.67666 0.71146,0.40452 0.73561,0.85216 1.65555,0.47956 1.86342,0.623 0.0977,0.0674 -0.14335,0.18907 -0.21503,0.2836 -0.68791,1.19391 0.20467,2.69344 -0.26335,1.70879 0.41875,-0.12514 -0.13121,0.072 -0.13012,-0.14902 5e-4,-0.0999 0.38095,-0.0965 0.28129,-0.1036 -0.36465,-0.0262 -0.80432,0.15857 -1.1559,0.24348 0.26244,-0.86939 -0.26061,-0.20429 -0.0273,0.57536 0.0823,1.27972 0.14859,0.61406 -0.85828,0.41724 -1.39169,0.15965 1.27353,-0.43898 0.70057,0.13682 -0.18357,0.90397 0.13227,0.0915 0.13599,0.0321 0.0446,-0.71331 -0.16942,-1.43722 -0.23761,-2.14098 -0.0444,-0.17583 -0.15211,-1.274 -0.31566,-1.44277 -0.0927,-0.0957 -0.26982,-0.10282 -0.33406,-0.21957 -0.0309,-0.0561 0.0946,-0.0865 0.14188,-0.12968 -0.47909,-0.01 -1.39765,0.19398 -1.71649,0.95797 -0.58356,0.67257 0.16414,2.13306 -0.41584,1.6088 -1.27009,-0.65406 -1.6927,-0.002 -0.25539,-0.47143 0.19561,0.004 -0.0864,1.59462 0.31708,1.51395 -0.58942,-0.72999 -1.9553,-1.99778 -2.82565,-2.89632 -2.78687,-2.78687 1.15436,-6.7281 3.94123,-3.94123 z"
       inkscape:connector-curvature="0" />
    <path
       style="fill:#000000;fill-opacity:1;fill-rule:nonzero;stroke:none"
       id="path16988"
       d="m 316.83315,359.29351 c -1.6181,1.00419 -2.75696,2.38592 -3.58928,4.02658 -0.9677,2.54874 -1.14916,5.19814 -0.18429,7.75243 1.18431,2.91556 3.48141,4.68417 6.47664,5.70517 2.56311,0.8626 4.52694,0.46735 6.05872,-1.68508 1.30896,-2.68754 1.49203,-5.67145 1.08901,-8.56796 -0.72366,-2.46648 -1.13021,-5.4618 -3.37772,-7.12965 -1.56798,-0.932 -3.08601,-1.13385 -4.76155,-0.44287 -0.74146,0.31551 -1.46082,0.75058 -1.85231,1.45028 -1.74865,2.36112 -5.23702,-0.006 -3.48837,-2.36718 l 0,0 c 1.02959,-1.28968 2.22133,-2.33123 3.84332,-2.91702 3.43578,-1.13908 6.10954,-0.76574 9.11867,1.23379 0.4485,0.41274 0.94497,0.7825 1.34548,1.23822 2.06143,2.34553 2.64462,5.56681 3.41641,8.4339 0.4811,3.98179 0.17338,8.03196 -1.95745,11.58114 -3.33891,3.85543 -5.9528,4.39412 -10.93458,3.00527 -4.48406,-1.66479 -7.19889,-3.92268 -9.04038,-8.26548 -1.27027,-3.97165 -1.1151,-6.98298 0.43019,-10.8676 1.29668,-2.40164 3.01898,-4.46449 5.4952,-5.8449 2.70438,-1.29435 4.61667,2.36661 1.91229,3.66096 z"
       inkscape:connector-curvature="0" />
    <path
       style="fill:#000000;fill-opacity:1;fill-rule:nonzero;stroke:none"
       id="path16992"
       d="m 305.65947,348.19229 c 2.92012,0.07 5.79311,-0.5076 8.65481,-0.98991 3.55842,-0.56271 7.06112,-1.38048 10.63182,-1.87819 1.03685,-0.25783 2.14834,-0.45777 3.08692,-0.98389 -1.33217,0.59243 0.331,3.46167 0.35542,3.5782 -1.50333,-0.37991 -2.99146,-0.76125 -4.41771,-1.36553 -1.60445,-0.62356 -3.01863,-1.60371 -4.30742,-2.69666 -0.20353,-0.17269 -0.39111,-0.36056 -0.57352,-0.55319 -2.00689,-2.16479 1.1914,-4.88154 3.19829,-2.71675 l 0,0 c 0.0697,0.0741 0.1382,0.14969 0.21956,0.21371 0.96585,0.83031 2.0256,1.57891 3.24386,2.03164 0.26454,0.12291 4.08076,1.22683 2.70792,0.99426 0.0368,10e-4 1.04185,0.0185 1.08773,0.10645 1.38708,2.65945 2.22587,3.01714 0.53769,3.99895 -1.41028,0.72181 -2.9635,1.1421 -4.52512,1.44352 -3.52848,0.48751 -6.98638,1.31233 -10.50398,1.85856 -3.43732,0.57929 -6.9271,1.30935 -10.43335,0.92971 -2.93332,-0.70196 -1.89623,-4.67283 1.03708,-3.97088 z"
       inkscape:connector-curvature="0" />
    <path
       style="fill:#000000;fill-opacity:1;fill-rule:nonzero;stroke:none"
       id="path16998"
       d="m 428.55006,163.67923 c -1.73288,0.33565 -3.51277,0.67265 -5.02252,1.59266 -1.69143,1.06196 -1.94625,2.82502 -2.21176,4.61171 -0.20003,2.97163 1.05869,5.47418 2.94907,7.73695 1.47237,1.23552 3.32654,2.19929 5.32254,1.74403 0.93773,-0.39326 1.6251,-1.1787 2.38281,-1.81843 2.26782,-1.91422 5.09594,1.15576 2.82811,3.06999 l 0,0 c -1.38635,1.16985 -2.68195,2.41721 -4.57033,2.79533 -3.61972,0.40915 -6.77909,-0.74813 -9.33482,-3.2736 -2.5613,-3.2011 -4.19755,-6.73888 -3.8059,-10.86266 0.49427,-3.02498 1.39137,-5.81898 4.266,-7.52776 1.91687,-1.03991 3.98367,-1.69192 6.15972,-2.0391 2.93332,-0.70196 3.97041,3.26892 1.03708,3.97088 z"
       inkscape:connector-curvature="0" />
  </g>
</svg>
