<?xml version="1.0" encoding="UTF-8" standalone="no"?>
<!-- Created with Inkscape (http://www.inkscape.org/) -->

<svg
   xmlns:dc="http://purl.org/dc/elements/1.1/"
   xmlns:cc="http://creativecommons.org/ns#"
   xmlns:rdf="http://www.w3.org/1999/02/22-rdf-syntax-ns#"
   xmlns:svg="http://www.w3.org/2000/svg"
   xmlns="http://www.w3.org/2000/svg"
   xmlns:sodipodi="http://sodipodi.sourceforge.net/DTD/sodipodi-0.dtd"
   xmlns:inkscape="http://www.inkscape.org/namespaces/inkscape"
   width="344.70334"
   height="393.11435"
   id="svg4038"
   version="1.1"
   inkscape:version="0.48.0 r9654"
   sodipodi:docname="New document 6">
  <defs
     id="defs4040" />
  <sodipodi:namedview
     inkscape:document-units="mm"
     pagecolor="#ffffff"
     bordercolor="#666666"
     borderopacity="1.0"
     inkscape:pageopacity="0.0"
     inkscape:pageshadow="2"
     inkscape:zoom="0.7176508"
     inkscape:cx="292.07407"
     inkscape:cy="108.69706"
     inkscape:current-layer="layer1"
     id="namedview4042"
     showgrid="false"
     fit-margin-top="0"
     fit-margin-left="0"
     fit-margin-right="0"
     fit-margin-bottom="0"
     inkscape:window-width="1280"
     inkscape:window-height="752"
     inkscape:window-x="0"
     inkscape:window-y="0"
     inkscape:window-maximized="0" />
  <metadata
     id="metadata4044">
    <rdf:RDF>
      <cc:Work
         rdf:about="">
        <dc:format>image/svg+xml</dc:format>
        <dc:type
           rdf:resource="http://purl.org/dc/dcmitype/StillImage" />
        <dc:title></dc:title>
      </cc:Work>
    </rdf:RDF>
  </metadata>
  <g
     inkscape:label="Layer 1"
     inkscape:groupmode="layer"
     id="layer1"
     transform="translate(-234.10702,-87.629951)">
    <path
       style="fill:#000000;fill-opacity:1;fill-rule:nonzero;stroke:none"
       id="path4557"
       d="m 281.96339,91.816607 c -0.98029,4.35018 -3.1879,8.233843 -5.30296,12.106623 -0.20627,0.32767 -2.84068,5.43738 -3.01415,5.33493 -1.23416,-0.7289 -2.15198,-1.89387 -3.22797,-2.8408 1.46886,-3.5711 3.24214,-6.995313 4.94141,-10.462133 1.04353,-2.06059 1.97352,-4.1694 2.57015,-6.40362 0.425,-1.64552 -0.80681,-0.0949 4.03335,-1.49795 1.74822,1.79705 3.54127,3.54229 5.19871,5.42434 2.98125,3.31725 5.35387,7.082803 7.08617,11.181053 1.14171,2.72653 -2.7142,4.34114 -3.8559,1.61461 l 0,0 c -1.52944,-3.69387 -3.70589,-7.055513 -6.37345,-10.039693 -1.62334,-1.8608 -3.41262,-3.55813 -5.12194,-5.33917 3.79329,-2.06434 3.56788,-2.66401 3.06956,-0.25617 -0.67527,2.49095 -1.6825,4.85915 -2.8535,7.15746 -1.68014,3.423233 -3.44074,6.800673 -4.88085,10.333163 -1.27409,-0.5056 -2.54773,-1.01235 -3.82228,-1.5168 -0.25116,-0.0994 0.28973,-0.45651 0.41772,-0.69437 0.71813,-1.33461 1.43956,-2.66745 2.16416,-3.99856 1.91283,-3.502353 3.94835,-6.997973 4.87264,-10.922733 0.57971,-2.89852 4.67883,-2.0787 4.09913,0.81982 z"
       inkscape:connector-curvature="0" />
    <path
       style="fill:#000000;fill-opacity:1;fill-rule:nonzero;stroke:none"
       id="path4559"
       d="m 283.66838,90.296921 c 1.16988,10.978229 1.02118,22.225419 1.13214,33.321909 0.17758,28.89703 0.15993,57.79608 0.16628,86.69416 0.13107,18.63718 -0.28095,37.268 -0.63536,55.89363 -0.0877,4.60895 -4.26617,4.41548 -4.17847,-0.19347 l 0,0 c 0.3532,-18.56042 0.76474,-37.12599 0.63352,-55.69794 -0.006,-28.86495 0.0113,-57.73089 -0.16577,-86.59482 -0.10576,-10.60315 0.0227,-21.33526 -1.00783,-31.841933 -0.71692,-4.473305 3.33857,-6.054854 4.05549,-1.581536 z"
       inkscape:connector-curvature="0" />
    <path
       inkscape:connector-curvature="0"
       d="m 559.57943,260.14707 c -4.30493,-1.16302 -8.09195,-3.53258 -11.87201,-5.80922 -0.31867,-0.21991 -5.31264,-3.06764 -5.20295,-3.23663 0.78034,-1.2023 1.98301,-2.07013 2.97451,-3.10519 3.50592,1.61827 6.85223,3.5345 10.24424,5.37858 2.01471,1.12957 4.08239,2.14774 6.28944,2.83814 1.62611,0.49407 0.12886,-0.80209 1.32638,4.09298 -1.86924,1.67081 -3.6886,3.3886 -5.63893,4.96513 -3.44013,2.83858 -7.30246,5.05015 -11.47018,6.60793 -2.77229,1.02562 -4.22271,-2.895 -1.45042,-3.92061 l 0,0 c 3.75513,-1.37217 7.20564,-3.40479 10.29975,-5.94402 1.92766,-1.54336 3.69899,-3.2594 5.55059,-4.89203 1.9024,3.87704 2.51105,3.67714 0.12639,3.07764 -2.46023,-0.7798 -4.78381,-1.88609 -7.03065,-3.15305 -3.34926,-1.82313 -6.64938,-3.72471 -10.11794,-5.31264 0.55892,-1.25161 1.11898,-2.50273 1.67677,-3.75485 0.10991,-0.24674 0.44388,0.30874 0.67612,0.44665 1.30311,0.77382 2.60432,1.55087 3.90366,2.331 3.41849,2.05895 6.82508,4.2402 10.70733,5.32932 2.87147,0.70153 1.87937,4.7624 -0.9921,4.06087 z"
       id="path4573"
       style="fill:#000000;fill-opacity:1;fill-rule:nonzero;stroke:none"
       inkscape:transform-center-x="-10.418175" />
    <path
       inkscape:connector-curvature="0"
       d="m 553.72892,262.08616 c -17.25318,1.11148 -34.90167,0.903 -52.31894,0.95497 -45.35505,0.024 -90.70932,-0.14731 -136.06256,-0.29457 -29.25213,0.032 -58.48325,-0.47905 -87.70744,-0.93246 -7.23158,-0.11219 -6.84308,-4.28949 0.38848,-4.17729 l 0,0 c 29.12184,0.45185 58.25057,0.96206 87.40034,0.92957 45.30124,0.14744 90.60353,0.31818 135.90663,0.29455 16.64293,-0.0494 33.48347,0.13612 49.9937,-0.83853 7.03505,-0.69311 9.43482,3.37064 2.39979,4.06376 z"
       id="path4575"
       style="fill:#000000;fill-opacity:1;fill-rule:nonzero;stroke:none" />
    <path
       inkscape:connector-curvature="0"
       d="m 281.96339,282.71725 c -0.98029,4.35018 -3.1879,8.23384 -5.30296,12.10662 -0.20627,0.32767 -2.84068,5.43738 -3.01415,5.33493 -1.23416,-0.7289 -2.15198,-1.89387 -3.22797,-2.8408 1.46886,-3.5711 3.24214,-6.99531 4.94141,-10.46213 1.04353,-2.06059 1.97352,-4.1694 2.57015,-6.40362 0.425,-1.64552 -0.80681,-0.0949 4.03335,-1.49795 1.74822,1.79705 3.54127,3.54229 5.19871,5.42434 2.98125,3.31725 5.35387,7.0828 7.08617,11.18105 1.14171,2.72653 -2.7142,4.34114 -3.8559,1.61461 l 0,0 c -1.52944,-3.69387 -3.70589,-7.05551 -6.37345,-10.03969 -1.62334,-1.8608 -3.41262,-3.55813 -5.12194,-5.33917 3.79329,-2.06434 3.56788,-2.66401 3.06956,-0.25617 -0.67527,2.49095 -1.6825,4.85915 -2.8535,7.15746 -1.68014,3.42323 -3.44074,6.80067 -4.88085,10.33316 -1.27409,-0.5056 -2.54773,-1.01235 -3.82228,-1.5168 -0.25116,-0.0994 0.28973,-0.45651 0.41772,-0.69437 0.71813,-1.33461 1.43956,-2.66745 2.16416,-3.99856 1.91283,-3.50235 3.94835,-6.99797 4.87264,-10.92273 0.57971,-2.89852 4.67883,-2.0787 4.09913,0.81982 z"
       id="path4577"
       style="fill:#000000;fill-opacity:1;fill-rule:nonzero;stroke:none" />
    <path
       inkscape:connector-curvature="0"
       d="m 283.66838,281.19757 c 1.16988,10.97822 1.02118,22.22541 1.13214,33.3219 0.17758,28.89703 0.15993,57.79608 0.16628,86.69416 0.13107,18.63718 -0.28095,37.268 -0.63536,55.89363 -0.0877,4.60895 -4.26617,4.41548 -4.17847,-0.19347 l 0,0 c 0.3532,-18.56042 0.76474,-37.12599 0.63352,-55.69794 -0.006,-28.86495 0.0113,-57.73089 -0.16577,-86.59482 -0.10576,-10.60315 0.0227,-21.33526 -1.00783,-31.84193 -0.71692,-4.4733 3.33857,-6.05485 4.05549,-1.58153 z"
       id="path4579"
       style="fill:#000000;fill-opacity:1;fill-rule:nonzero;stroke:none" />
    <path
       inkscape:transform-center-x="-10.418175"
       style="fill:#000000;fill-opacity:1;fill-rule:nonzero;stroke:none"
       id="path4581"
       d="m 559.57943,451.04771 c -4.30493,-1.16302 -8.09195,-3.53258 -11.87201,-5.80922 -0.31867,-0.21991 -5.31264,-3.06764 -5.20295,-3.23663 0.78034,-1.2023 1.98301,-2.07013 2.97451,-3.10519 3.50592,1.61827 6.85223,3.5345 10.24424,5.37858 2.01471,1.12957 4.08239,2.14774 6.28944,2.83814 1.62611,0.49407 0.12886,-0.80209 1.32638,4.09298 -1.86924,1.67081 -3.6886,3.3886 -5.63893,4.96513 -3.44013,2.83858 -7.30246,5.05015 -11.47018,6.60793 -2.77229,1.02562 -4.22271,-2.895 -1.45042,-3.92061 l 0,0 c 3.75513,-1.37217 7.20564,-3.40479 10.29975,-5.94402 1.92766,-1.54336 3.69899,-3.2594 5.55059,-4.89203 1.9024,3.87704 2.51105,3.67714 0.12639,3.07764 -2.46023,-0.7798 -4.78381,-1.88609 -7.03065,-3.15305 -3.34926,-1.82313 -6.64938,-3.72471 -10.11794,-5.31264 0.55892,-1.25161 1.11898,-2.50273 1.67677,-3.75485 0.10991,-0.24674 0.44388,0.30874 0.67612,0.44665 1.30311,0.77382 2.60432,1.55087 3.90366,2.331 3.41849,2.05895 6.82508,4.2402 10.70733,5.32932 2.87147,0.70153 1.87937,4.7624 -0.9921,4.06087 z"
       inkscape:connector-curvature="0" />
    <path
       style="fill:#000000;fill-opacity:1;fill-rule:nonzero;stroke:none"
       id="path4583"
       d="m 553.72892,452.9868 c -17.25318,1.11148 -34.90167,0.903 -52.31894,0.95497 -45.35505,0.024 -90.70932,-0.14731 -136.06256,-0.29457 -29.25213,0.032 -58.48325,-0.47905 -87.70744,-0.93246 -7.23158,-0.11219 -6.84308,-4.28949 0.38848,-4.17729 l 0,0 c 29.12184,0.45185 58.25057,0.96206 87.40034,0.92957 45.30124,0.14744 90.60353,0.31818 135.90663,0.29455 16.64293,-0.0494 33.48347,0.13612 49.9937,-0.83853 7.03505,-0.69311 9.43482,3.37064 2.39979,4.06376 z"
       inkscape:connector-curvature="0" />
    <path
       style="fill:#000000;fill-opacity:1;fill-rule:nonzero;stroke:none"
       id="path4585"
       d="m 241.87373,98.665886 c 1.73792,3.768834 2.06553,7.939014 2.35549,12.020174 0.31734,6.174 0.32144,12.35885 0.33719,18.5394 -0.0711,2.29203 0.0853,4.59387 -0.0177,6.88536 -4.81711,-0.3128 -4.17694,0.37013 -4.17958,-2.70548 -0.003,-2.95592 4.17777,-2.9595 4.18031,-0.004 l 0,0 c 0.003,3.05412 0.66427,2.41129 -4.1705,2.41238 0.001,-1.68711 0.0155,-4.55889 0.007,-6.57804 -0.0155,-6.08625 -0.0191,-12.17666 -0.3269,-18.25665 -0.24585,-3.53114 -0.47448,-7.16087 -1.92446,-10.44408 -1.32193,-2.643854 2.41705,-4.513344 3.73897,-1.869484 z"
       inkscape:connector-curvature="0" />
    <path
       style="fill:#000000;fill-opacity:1;fill-rule:nonzero;stroke:none"
       id="path4587"
       d="m 237.71741,96.843756 c 3.78064,0 7.56127,0 11.34191,0 3.66553,0 7.33105,0 10.99657,0 0.2549,0 0.50979,0 0.76469,0 2.95592,0 2.95592,4.180304 0,4.180304 l 0,0 c -0.2549,0 -0.50979,0 -0.76469,0 -3.66552,0 -7.33104,0 -10.99657,0 -3.78064,0 -7.56127,0 -11.34191,0 -2.95593,0 -2.95593,-4.180304 0,-4.180304 z"
       inkscape:connector-curvature="0" />
    <path
       style="fill:#000000;fill-opacity:1;fill-rule:nonzero;stroke:none"
       id="path4589"
       d="m 239.4511,112.40063 c 2.61835,0.74108 5.3177,0.35047 7.98533,0.17285 3.15908,-0.21369 6.32404,-0.31404 9.48928,-0.37383 1.45781,0.0903 2.86415,0.47619 4.25343,0.89851 2.82681,0.86408 1.60481,4.86179 -1.22199,3.99771 l 0,0 c -0.96876,-0.29814 -1.94712,-0.57192 -2.95266,-0.71665 -3.09888,0.0583 -6.1975,0.15618 -9.29034,0.36533 -3.0999,0.2064 -6.237,0.58169 -9.27692,-0.28843 -2.86766,-0.71691 -1.85379,-4.7724 1.01387,-4.05549 z"
       inkscape:connector-curvature="0" />
    <path
       inkscape:connector-curvature="0"
       d="m 240.48029,296.53371 c 1.73792,3.76883 2.06553,7.93901 2.35549,12.02017 0.31734,6.174 0.32144,12.35885 0.33719,18.5394 -0.0711,2.29203 0.0853,4.59387 -0.0177,6.88536 -4.81711,-0.3128 -4.17694,0.37013 -4.17958,-2.70548 -0.003,-2.95592 4.17777,-2.9595 4.18031,-0.004 l 0,0 c 0.003,3.05412 0.66427,2.41129 -4.1705,2.41238 0.001,-1.68711 0.0155,-4.55889 0.007,-6.57804 -0.0155,-6.08625 -0.0191,-12.17666 -0.3269,-18.25665 -0.24585,-3.53114 -0.47448,-7.16087 -1.92446,-10.44408 -1.32193,-2.64385 2.41705,-4.51334 3.73897,-1.86948 z"
       id="path4593"
       style="fill:#000000;fill-opacity:1;fill-rule:nonzero;stroke:none" />
    <path
       inkscape:connector-curvature="0"
       d="m 236.32397,294.71158 c 3.78064,0 7.56127,0 11.34191,0 3.66553,0 7.33105,0 10.99657,0 0.2549,0 0.50979,0 0.76469,0 2.95592,0 2.95592,4.1803 0,4.1803 l 0,0 c -0.2549,0 -0.50979,0 -0.76469,0 -3.66552,0 -7.33104,0 -10.99657,0 -3.78064,0 -7.56127,0 -11.34191,0 -2.95593,0 -2.95593,-4.1803 0,-4.1803 z"
       id="path4595"
       style="fill:#000000;fill-opacity:1;fill-rule:nonzero;stroke:none" />
    <path
       inkscape:connector-curvature="0"
       d="m 238.05766,310.26845 c 2.61835,0.74108 5.3177,0.35047 7.98533,0.17285 3.15908,-0.21369 6.32404,-0.31404 9.48928,-0.37383 1.45781,0.0903 2.86415,0.47619 4.25343,0.89851 2.82681,0.86408 1.60481,4.86179 -1.22199,3.99771 l 0,0 c -0.96876,-0.29814 -1.94712,-0.57192 -2.95266,-0.71665 -3.09888,0.0583 -6.1975,0.15618 -9.29034,0.36533 -3.0999,0.2064 -6.237,0.58169 -9.27692,-0.28843 -2.86766,-0.71691 -1.85379,-4.7724 1.01387,-4.05549 z"
       id="path4597"
       style="fill:#000000;fill-opacity:1;fill-rule:nonzero;stroke:none" />
    <path
       style="fill:#000000;fill-opacity:1;fill-rule:nonzero;stroke:none"
       id="path4599"
       d="m 257.43885,127.46037 c 0.34105,2.73545 0.63673,5.47786 0.84917,8.23294 0.0814,1.19707 0.16035,2.39514 0.19955,3.59564 0.005,0.11206 0.003,0.22422 0.003,0.33634 -0.0613,2.7207 -3.19696,2.61425 -3.13561,-0.10645 l 0,0 c -5.9e-4,-0.0258 -0.002,-0.0515 -0.002,-0.0772 -0.0362,-1.13077 -0.11277,-2.2591 -0.18814,-3.38671 -0.22045,-2.87584 -0.56672,-5.73009 -0.86304,-8.59449 0,-2.72173 3.13681,-2.72173 3.13681,0 z"
       inkscape:connector-curvature="0" />
    <path
       style="fill:#000000;fill-opacity:1;fill-rule:nonzero;stroke:none"
       id="path4603"
       d="m 251.84827,325.91467 c 1.8464,-0.99729 3.70651,-1.94616 5.69894,-2.7013 1.82991,-0.64831 3.41664,-0.68986 4.89843,0.56141 1.44601,1.39239 1.7065,3.27378 1.62388,5.07678 -0.25571,2.31536 -1.70488,4.17014 -3.33504,5.91705 -1.23237,1.2754 -2.56449,2.47209 -3.91519,3.65044 -0.28939,0.24989 -0.57788,0.50078 -0.87811,0.74072 0.45235,-0.83858 1.20834,-1.07814 0.10401,-1.95214 1.37371,0.0945 2.75146,0.1016 4.12861,0.10822 1.47129,0.003 2.94258,-0.002 4.41386,-0.006 0.87131,-0.002 0.44529,-8.1e-4 1.27808,-0.002 2.73505,-0.004 2.74116,3.38648 0.006,3.39027 l 0,0 c -0.83065,8.1e-4 -0.4059,5e-4 -1.27425,0.002 -1.48176,0.003 -2.96353,0.009 -4.44528,0.006 -1.78183,-0.009 -3.59044,0.0318 -5.3432,-0.28595 -2.13462,-0.86325 -2.3953,-2.11296 -1.43488,-3.79644 0.23297,-0.19 0.48482,-0.40677 0.71664,-0.60774 1.26014,-1.09899 2.5044,-2.21385 3.65677,-3.40143 1.12196,-1.18657 2.24062,-2.42154 2.46365,-4.00322 0.13835,-0.81427 0.0194,-1.84393 -0.57888,-2.50975 1.67346,-8.1e-4 0.23247,-0.10299 -0.55401,0.22514 -1.92847,0.72608 -3.69957,1.68021 -5.50036,2.62034 -2.44629,1.0721 -4.17608,-1.96025 -1.72979,-3.03235 z"
       inkscape:connector-curvature="0" />
    <path
       inkscape:connector-curvature="0"
       d="m 575.73453,447.73344 c -1.03244,3.65179 -2.52273,7.17057 -3.88861,10.71704 -1.84887,4.64064 -3.27799,9.41623 -4.31521,14.27823 -0.11114,1.39057 -0.55489,3.40527 0.57896,4.58719 0.2558,0.26663 0.87873,0.41707 1.18569,0.51888 2.58566,0.31649 4.99637,-1.16153 7.09846,-2.43174 1.82297,-1.09042 3.4394,1.36908 1.61644,2.45951 l 0,0 c -3.01492,1.78815 -6.32846,3.57093 -9.97554,2.61435 -0.49339,-0.23855 -1.03244,-0.4058 -1.48018,-0.71564 -2.52048,-1.74422 -2.36806,-5.00644 -2.00537,-7.61259 1.07167,-5.00434 2.53668,-9.92204 4.44054,-14.69939 1.31204,-3.4066 2.73547,-6.7871 3.76101,-10.28516 0.42197,-2.01284 3.40578,-1.44353 2.98381,0.56932 z"
       id="path4635"
       style="fill:#000000;fill-opacity:1;fill-rule:nonzero;stroke:none" />
    <path
       inkscape:connector-curvature="0"
       d="m 562.08307,462.01263 c 2.56747,0.41432 5.17795,0.70054 7.78296,0.6 1.47498,-0.10491 2.94672,-0.24458 4.42021,-0.36655 2.1436,-0.17741 2.40658,2.7147 0.26298,2.8921 l 0,0 c -1.52553,0.12621 -3.04911,0.27275 -4.57666,0.37563 -2.84232,0.083 -5.68666,-0.17923 -8.48625,-0.65459 -2.10987,-0.40256 -1.51312,-3.24916 0.59676,-2.84659 z"
       id="path4637"
       style="fill:#000000;fill-opacity:1;fill-rule:nonzero;stroke:none" />
    <path
       style="fill:#000000;fill-opacity:1;fill-rule:nonzero;stroke:none"
       id="path4639"
       d="m 574.34109,259.61966 c -1.03244,3.65179 -2.52273,7.17057 -3.88861,10.71704 -1.84887,4.64064 -3.27799,9.41623 -4.31521,14.27823 -0.11114,1.39057 -0.55489,3.40527 0.57896,4.58719 0.2558,0.26663 0.87873,0.41707 1.18569,0.51888 2.58566,0.31649 4.99637,-1.16153 7.09846,-2.43174 1.82297,-1.09042 3.4394,1.36908 1.61644,2.45951 l 0,0 c -3.01492,1.78815 -6.32846,3.57093 -9.97554,2.61435 -0.49339,-0.23855 -1.03244,-0.4058 -1.48018,-0.71564 -2.52048,-1.74422 -2.36806,-5.00644 -2.00537,-7.61259 1.07167,-5.00434 2.53668,-9.92204 4.44054,-14.69939 1.31204,-3.4066 2.73547,-6.7871 3.76101,-10.28516 0.42197,-2.01284 3.40578,-1.44353 2.98381,0.56932 z"
       inkscape:connector-curvature="0" />
    <path
       style="fill:#000000;fill-opacity:1;fill-rule:nonzero;stroke:none"
       id="path4641"
       d="m 560.68963,273.89885 c 2.56747,0.41432 5.17795,0.70054 7.78296,0.6 1.47498,-0.10491 2.94672,-0.24458 4.42021,-0.36655 2.1436,-0.17741 2.40658,2.7147 0.26298,2.8921 l 0,0 c -1.52553,0.12621 -3.04911,0.27275 -4.57666,0.37563 -2.84232,0.083 -5.68666,-0.17923 -8.48625,-0.65459 -2.10987,-0.40256 -1.51312,-3.24916 0.59676,-2.84659 z"
       inkscape:connector-curvature="0" />
    <path
       style="fill:#000000;fill-opacity:1;fill-rule:nonzero;stroke:none"
       id="path4689"
       d="m 277.25883,159.60757 c 2.828,-0.59625 5.72757,-0.76263 8.6176,-0.82658 2.975,-0.0253 5.9484,0.1013 8.91997,0.23402 2.65582,0.12405 5.31129,0.2553 7.96692,0.38346 3.47246,0.16677 6.94501,0.33134 10.41759,0.49581 3.03926,0.47326 6.02985,1.15863 8.90129,2.22322 2.52287,0.67492 4.89239,1.76355 7.3922,2.49919 2.8483,0.958 5.56379,2.22781 8.22415,3.58353 2.44878,1.28531 4.65555,2.92094 6.85122,4.5585 2.56857,2.10982 4.77243,4.62653 6.9025,7.13656 2.15239,2.7537 3.65951,5.86711 5.24217,8.92812 1.50928,3.10866 2.896,6.269 4.40671,9.37676 1.43229,3.25303 2.99044,6.46143 4.24241,9.78282 0.97524,2.85081 2.34221,5.52455 3.72945,8.20576 1.41565,2.07807 2.54566,4.30527 3.84847,6.44833 1.57762,2.68994 3.40599,5.16884 5.38591,7.59715 1.88629,2.27068 3.75032,4.55342 5.49784,6.92107 1.58901,1.89402 3.66835,3.31702 5.49346,4.98966 1.43319,1.4098 2.86618,2.83473 4.56436,3.9615 2.12016,1.37468 4.04651,3.01281 6.35506,4.1022 1.77656,0.85747 3.14279,2.31469 4.8869,3.19892 1.70524,0.87305 3.37325,1.75543 5.25156,2.23392 1.67427,0.31713 3.28879,0.55335 4.85403,1.23227 2.02497,0.75463 4.22025,0.92479 6.36317,1.12738 2.33103,0.1952 4.66731,0.31907 7.00373,0.43023 1.7645,0.0804 3.5291,0.15884 5.29349,0.24125 1.92396,0.09 3.84791,0.17992 5.77181,0.27087 1.03653,0.0489 2.07307,0.098 3.1096,0.14702 1.64541,0.0778 3.29081,0.1556 4.93622,0.2334 0.65829,0.0311 1.31658,0.0623 1.97488,0.0934 3.396,0.16055 3.18008,4.72758 -0.21592,4.56703 l 0,0 c -0.65829,-0.0311 -1.31659,-0.0623 -1.97489,-0.0934 -1.64542,-0.0778 -3.29085,-0.15559 -4.93629,-0.2334 -1.03631,-0.049 -2.07262,-0.0981 -3.10893,-0.14698 -1.92236,-0.0907 -3.84474,-0.18116 -5.76715,-0.27065 -1.76674,-0.0815 -3.53352,-0.16205 -5.30034,-0.24158 -2.41597,-0.11503 -4.8318,-0.24365 -7.24204,-0.44728 -2.67185,-0.25551 -5.39272,-0.51461 -7.89326,-1.52207 -1.23833,-0.54331 -2.70549,-0.6291 -4.14116,-0.98392 -2.25326,-0.61554 -4.30931,-1.58683 -6.3525,-2.67205 -1.64318,-0.92806 -3.06629,-2.12428 -4.68447,-3.09468 -2.49942,-1.23902 -4.68684,-2.89682 -6.96938,-4.4579 -1.87093,-1.29591 -3.53973,-2.80952 -5.1255,-4.40825 -2.01467,-1.89712 -4.40671,-3.43875 -6.08395,-5.6512 -1.68767,-2.3145 -3.52916,-4.5178 -5.35483,-6.73623 -2.11331,-2.5948 -4.05713,-5.2528 -5.75262,-8.11656 -1.3526,-2.23391 -2.54119,-4.54474 -4.00007,-6.71866 -1.4649,-2.84045 -2.90376,-5.67667 -3.94471,-8.69081 -1.18717,-3.19656 -2.71494,-6.2688 -4.07783,-9.39898 -1.48952,-3.07577 -2.87048,-6.19733 -4.35577,-9.27504 -1.42396,-2.75691 -2.76557,-5.56545 -4.66593,-8.06891 -1.9001,-2.24231 -3.85751,-4.49559 -6.12314,-6.40509 -1.97802,-1.47797 -3.95538,-2.96213 -6.15894,-4.12727 -2.38401,-1.22992 -4.83027,-2.35931 -7.37866,-3.24436 -2.60066,-0.78452 -5.08043,-1.88058 -7.70392,-2.60347 -2.391,-0.89065 -4.86878,-1.43833 -7.38679,-1.91436 -3.47404,-0.16458 -6.94808,-0.32918 -10.42202,-0.49603 -2.6496,-0.12787 -5.29908,-0.25883 -7.94888,-0.38261 -2.86084,-0.12784 -5.72334,-0.25107 -8.58748,-0.23011 -2.61292,0.0524 -5.23583,0.1988 -7.79196,0.74079 -3.33163,0.62748 -4.28697,-3.85825 -0.95534,-4.48573 z"
       inkscape:connector-curvature="0" />
    <path
       inkscape:connector-curvature="0"
       d="m 454.21368,349.11477 c -2.828,-0.59625 -5.72757,-0.76263 -8.6176,-0.82658 -2.975,-0.0253 -5.9484,0.1013 -8.91997,0.23402 -2.65582,0.12405 -5.31129,0.2553 -7.96692,0.38346 -3.47246,0.16677 -6.94501,0.33134 -10.41759,0.49581 -3.03926,0.47326 -6.02985,1.15863 -8.90129,2.22322 -2.52287,0.67492 -4.89239,1.76355 -7.3922,2.49919 -2.8483,0.958 -5.56379,2.22781 -8.22415,3.58353 -2.44878,1.28531 -4.65555,2.92094 -6.85122,4.5585 -2.56857,2.10982 -4.77243,4.62653 -6.9025,7.13656 -2.15239,2.7537 -3.65951,5.86711 -5.24217,8.92812 -1.50928,3.10866 -2.896,6.269 -4.40671,9.37676 -1.43229,3.25303 -2.99044,6.46143 -4.24241,9.78282 -0.97524,2.85081 -2.34221,5.52455 -3.72945,8.20576 -1.41565,2.07807 -2.54566,4.30527 -3.84847,6.44833 -1.57762,2.68994 -3.40599,5.16884 -5.38591,7.59715 -1.88629,2.27068 -3.75032,4.55342 -5.49784,6.92107 -1.58901,1.89402 -3.66835,3.31702 -5.49346,4.98966 -1.43319,1.4098 -2.86618,2.83473 -4.56436,3.9615 -2.12016,1.37468 -4.04651,3.01281 -6.35506,4.1022 -1.77656,0.85747 -3.14279,2.31469 -4.8869,3.19892 -1.70524,0.87305 -3.37325,1.75543 -5.25156,2.23392 -1.67427,0.31713 -3.28879,0.55335 -4.85403,1.23227 -2.02497,0.75463 -4.22025,0.92479 -6.36317,1.12738 -2.33103,0.1952 -4.66731,0.31907 -7.00373,0.43023 -1.7645,0.0804 -3.5291,0.15884 -5.29349,0.24125 -1.92396,0.09 -3.84791,0.17992 -5.77181,0.27087 -1.03653,0.0489 -2.07307,0.098 -3.1096,0.14702 -1.64541,0.0778 -3.29081,0.1556 -4.93622,0.2334 -0.65829,0.0311 -1.31658,0.0623 -1.97488,0.0934 -3.396,0.16055 -3.18008,4.72758 0.21592,4.56703 l 0,0 c 0.65829,-0.0311 1.31659,-0.0623 1.97489,-0.0934 1.64542,-0.0778 3.29085,-0.15559 4.93629,-0.2334 1.03631,-0.049 2.07262,-0.0981 3.10893,-0.14698 1.92236,-0.0907 3.84474,-0.18116 5.76715,-0.27065 1.76674,-0.0815 3.53352,-0.16205 5.30034,-0.24158 2.41597,-0.11503 4.8318,-0.24365 7.24204,-0.44728 2.67185,-0.25551 5.39272,-0.51461 7.89326,-1.52207 1.23833,-0.54331 2.70549,-0.6291 4.14116,-0.98392 2.25326,-0.61554 4.30931,-1.58683 6.3525,-2.67205 1.64318,-0.92806 3.06629,-2.12428 4.68447,-3.09468 2.49942,-1.23902 4.68684,-2.89682 6.96938,-4.4579 1.87093,-1.29591 3.53973,-2.80952 5.1255,-4.40825 2.01467,-1.89712 4.40671,-3.43875 6.08395,-5.6512 1.68767,-2.3145 3.52916,-4.5178 5.35483,-6.73623 2.11331,-2.5948 4.05713,-5.2528 5.75262,-8.11656 1.3526,-2.23391 2.54119,-4.54474 4.00007,-6.71866 1.4649,-2.84045 2.90376,-5.67667 3.94471,-8.69081 1.18717,-3.19656 2.71494,-6.2688 4.07783,-9.39898 1.48952,-3.07577 2.87048,-6.19733 4.35577,-9.27504 1.42396,-2.75691 2.76557,-5.56545 4.66593,-8.06891 1.9001,-2.24231 3.85751,-4.49559 6.12314,-6.40509 1.97802,-1.47797 3.95538,-2.96213 6.15894,-4.12727 2.38401,-1.22992 4.83027,-2.35931 7.37866,-3.24436 2.60066,-0.78452 5.08043,-1.88058 7.70392,-2.60347 2.391,-0.89065 4.86878,-1.43833 7.38679,-1.91436 3.47404,-0.16458 6.94808,-0.32918 10.42202,-0.49603 2.6496,-0.12787 5.29908,-0.25883 7.94888,-0.38261 2.86084,-0.12784 5.72334,-0.25107 8.58748,-0.23011 2.61292,0.0524 5.23583,0.1988 7.79196,0.74079 3.33163,0.62748 4.28697,-3.85825 0.95534,-4.48573 z"
       id="path4691"
       style="fill:#000000;fill-opacity:1;fill-rule:nonzero;stroke:none" />
  </g>
</svg>
