<?xml version="1.0" encoding="UTF-8" standalone="no"?>
<!-- Created with Inkscape (http://www.inkscape.org/) -->

<svg
   xmlns:dc="http://purl.org/dc/elements/1.1/"
   xmlns:cc="http://creativecommons.org/ns#"
   xmlns:rdf="http://www.w3.org/1999/02/22-rdf-syntax-ns#"
   xmlns:svg="http://www.w3.org/2000/svg"
   xmlns="http://www.w3.org/2000/svg"
   xmlns:sodipodi="http://sodipodi.sourceforge.net/DTD/sodipodi-0.dtd"
   xmlns:inkscape="http://www.inkscape.org/namespaces/inkscape"
   width="457.73996"
   height="264.24744"
   id="svg24201"
   version="1.1"
   inkscape:version="0.48.0 r9654"
   sodipodi:docname="ForceOptimization.svg">
  <defs
     id="defs24203">
    <inkscape:path-effect
       effect="spiro"
       id="path-effect24992"
       is_visible="true" />
  </defs>
  <sodipodi:namedview
     inkscape:document-units="mm"
     pagecolor="#ffffff"
     bordercolor="#666666"
     borderopacity="1.0"
     inkscape:pageopacity="0.0"
     inkscape:pageshadow="2"
     inkscape:zoom="0.7176508"
     inkscape:cx="197.9184"
     inkscape:cy="277.52076"
     inkscape:current-layer="layer1"
     id="namedview24205"
     showgrid="false"
     fit-margin-top="0"
     fit-margin-left="0"
     fit-margin-right="0"
     fit-margin-bottom="0"
     inkscape:window-width="1280"
     inkscape:window-height="752"
     inkscape:window-x="0"
     inkscape:window-y="0"
     inkscape:window-maximized="0" />
  <metadata
     id="metadata24207">
    <rdf:RDF>
      <cc:Work
         rdf:about="">
        <dc:format>image/svg+xml</dc:format>
        <dc:type
           rdf:resource="http://purl.org/dc/dcmitype/StillImage" />
        <dc:title></dc:title>
      </cc:Work>
    </rdf:RDF>
  </metadata>
  <g
     inkscape:label="Layer 1"
     inkscape:groupmode="layer"
     id="layer1"
     transform="translate(-328.26269,-606.90604)">
    <path
       style="fill:#000000;fill-opacity:1;fill-rule:nonzero;stroke:none"
       id="path24722"
       d="m 418.7979,823.09822 c 0.43498,-14.53018 0.54451,-29.06302 0.60552,-43.59512 0.0403,-26.25502 -0.3598,-52.50863 -0.32045,-78.76396 0.17499,-25.29482 0.43095,-50.58946 0.60298,-75.88435 0.0291,-3.62396 0.0583,-7.24791 0.0875,-10.87187 0.0136,-1.69703 4.19391,-1.68594 4.18026,0.0111 l 0,0 c -0.0292,3.62339 -0.0583,7.24678 -0.0874,10.87016 -0.17203,25.29247 -0.42794,50.58466 -0.60295,75.87705 -0.0394,26.25657 0.36087,52.51141 0.32043,78.76768 -0.061,14.51849 -0.16832,29.03778 -0.60595,43.55432 0.0431,1.69686 -4.13674,1.73186 -4.17986,0.035 z"
       inkscape:connector-curvature="0" />
    <path
       inkscape:connector-curvature="0"
       d="m 412.03214,809.77312 c 25.30884,0.43627 50.62234,0.54709 75.93456,0.60941 45.73137,0.0426 91.46029,-0.35514 137.19219,-0.31346 44.05887,0.17724 88.11742,0.43545 132.17641,0.60973 6.31226,0.0295 12.62452,0.0589 18.93678,0.0885 2.9559,0.0138 2.93638,4.19407 -0.0195,4.18026 l 0,0 c -6.31127,-0.0296 -12.62254,-0.0589 -18.9338,-0.0884 -44.05477,-0.17428 -88.10906,-0.43243 -132.16368,-0.60969 -45.73407,-0.0417 -91.46515,0.3562 -137.19869,0.31342 -25.28851,-0.0623 -50.5784,-0.17089 -75.86349,-0.60978 -2.95562,0.043 -3.01638,-4.13689 -0.0608,-4.17986 z"
       id="path24724"
       style="fill:#000000;fill-opacity:1;fill-rule:nonzero;stroke:none" />
    <path
       style="fill:#000000;fill-opacity:1;fill-rule:nonzero;stroke:none"
       id="path24728"
       d="m 410.57399,632.76979 c 1.2501,-4.05681 3.0719,-7.90676 4.54651,-11.88858 1.29918,-3.95331 3.17603,-7.63144 5.15283,-11.27155 1.81296,-3.38835 0.23254,-2.8075 5.34946,-2.35925 0.91502,2.15188 1.19408,4.50954 1.69018,6.78458 1.24089,3.90828 2.87053,7.68631 4.33801,11.51616 0.88465,2.47895 1.98678,4.86242 3.0616,7.26106 1.20859,2.69755 -2.60633,4.40676 -3.81492,1.7092 l 0,0 c -1.10609,-2.46913 -2.23713,-4.92449 -3.15038,-7.47491 -1.54177,-4.02613 -3.27554,-7.99289 -4.51885,-12.12184 -0.41502,-1.9077 -0.69271,-3.861 -1.29754,-5.71343 1.16713,-0.19422 2.32336,-0.47242 3.5014,-0.58265 0.0971,-0.009 -0.08,0.17792 -0.1212,0.26635 -0.42709,0.91742 -0.89255,1.81653 -1.36501,2.7112 -1.88462,3.46384 -3.67671,6.96055 -4.90591,10.72807 -1.40117,3.77639 -3.08018,7.4425 -4.36706,11.25541 -0.5797,2.89852 -4.67883,2.0787 -4.09912,-0.81982 z"
       inkscape:connector-curvature="0" />
    <path
       inkscape:connector-curvature="0"
       d="m 755.30759,801.74587 c 4.07962,1.17351 7.96318,2.92252 11.97205,4.32192 3.97707,1.22454 7.68987,3.03182 11.36655,4.93975 3.42187,1.74886 2.81138,0.17966 2.45952,5.30411 -2.13427,0.95536 -4.48626,1.27875 -6.75156,1.81759 -3.88423,1.31423 -7.63092,3.0147 -11.43247,4.55401 -2.46185,0.93115 -4.82416,2.07795 -7.20214,3.19773 -2.67432,1.25915 -4.45504,-2.52292 -1.78071,-3.78207 l 0,0 c 2.44788,-1.15237 4.88151,-2.32943 7.41429,-3.29052 3.9964,-1.61729 7.92982,-3.42542 12.03463,-4.74622 1.89955,-0.45086 3.84728,-0.76527 5.688,-1.40486 0.21615,1.16327 0.51607,2.31406 0.64845,3.48981 0.0108,0.0969 -0.17939,-0.0766 -0.26858,-0.11616 -0.9253,-0.40975 -1.83301,-0.8582 -2.73642,-1.31374 -3.4987,-1.81908 -7.02852,-3.54504 -10.81851,-4.7031 -3.8021,-1.32984 -7.49916,-2.93955 -11.33562,-4.15443 -2.90892,-0.52503 -2.1664,-4.63887 0.74252,-4.11382 z"
       id="path24730"
       style="fill:#000000;fill-opacity:1;fill-rule:nonzero;stroke:none" />
    <path
       style="fill:#000000;fill-opacity:1;fill-rule:nonzero;stroke:none"
       id="path24886"
       d="m 334.68659,645.16267 c 0,5.60883 0,11.21765 0,16.82648 -0.009,5.20207 -0.21994,10.39694 0.60516,15.5492 0.23512,1.16313 0.11531,0.64112 0.34492,1.56931 0.70148,2.87148 -3.3594,3.86353 -4.06089,0.99205 l 0,0 c -0.27914,-1.15402 -0.13706,-0.51973 -0.41262,-1.90589 -0.8462,-5.37139 -0.69247,-10.7814 -0.65688,-16.20467 0,-5.60883 0,-11.21765 0,-16.82648 0,-2.95592 4.18031,-2.95592 4.18031,0 z"
       inkscape:connector-curvature="0" />
    <path
       style="fill:#000000;fill-opacity:1;fill-rule:nonzero;stroke:none"
       id="path24888"
       d="m 330.64296,642.07244 c 4.37128,0 8.74256,0 13.11384,0 3.46259,0 6.92519,0 10.38779,0 0.56094,0 1.12188,0 1.68282,0 2.95592,0 2.95592,4.18031 0,4.18031 l 0,0 c -0.56094,0 -1.12188,0 -1.68282,0 -3.4626,0 -6.9252,0 -10.38779,0 -4.37128,0 -8.74256,0 -13.11384,0 -2.95592,0 -2.95592,-4.18031 0,-4.18031 z"
       inkscape:connector-curvature="0" />
    <path
       style="fill:#000000;fill-opacity:1;fill-rule:nonzero;stroke:none"
       id="path24894"
       d="m 331.41103,657.95425 c 2.33035,1.17898 4.83617,1.62893 7.40123,1.93435 2.92785,0.28719 5.87248,0.30304 8.81152,0.31703 0.47208,4.1e-4 0.94415,8.1e-4 1.41623,10e-4 2.95592,0.003 2.95229,4.18287 -0.004,4.1803 l 0,0 c -0.47755,-4.2e-4 -0.95509,-8.4e-4 -1.43263,-10e-4 -3.09957,-0.0149 -6.20506,-0.0354 -9.29211,-0.34706 -3.03819,-0.37067 -6.01257,-0.95144 -8.7701,-2.3456 -2.64386,-1.32193 -0.77437,-5.06091 1.86949,-3.73898 z"
       inkscape:connector-curvature="0" />
    <path
       style="fill:#000000;fill-opacity:1;fill-rule:nonzero;stroke:none"
       id="path24896"
       d="m 368.72458,646.07137 c -2.04308,3.63409 -3.80377,7.30227 -4.82721,11.35096 -1.61282,5.55105 -2.15016,11.22957 -1.69802,16.97507 0.59509,3.98012 1.69271,7.18137 5.17217,9.38577 2.45635,1.64434 0.13091,5.11814 -2.32544,3.4738 l 0,0 c -4.67081,-3.23858 -6.20522,-6.98992 -7.01512,-12.5442 -0.45266,-6.20156 0.072,-12.33944 1.81804,-18.33241 1.1572,-4.42842 3.02423,-8.48751 5.29099,-12.45974 1.52082,-2.53469 5.1054,-0.38394 3.58459,2.15075 z"
       inkscape:connector-curvature="0" />
    <path
       style="fill:#000000;fill-opacity:1;fill-rule:nonzero;stroke:none"
       id="path24898"
       d="m 379.27652,653.3566 c 0.12801,4.51492 -0.47685,9.00216 -0.84639,13.49366 -0.16581,3.28689 -0.68189,7.14566 1.34694,9.98389 1.25086,1.49558 2.93353,2.34689 4.87964,2.24756 2.95566,-0.0397 3.01186,4.14019 0.0562,4.17993 l 0,0 c -3.42536,-0.0189 -6.35762,-1.42074 -8.45865,-4.177 -2.30733,-3.83545 -2.43016,-8.19676 -1.99034,-12.57736 0.3606,-4.37761 0.9571,-8.75044 0.8323,-13.15068 0,-2.95592 4.18031,-2.95592 4.18031,0 z"
       inkscape:connector-curvature="0" />
    <path
       style="fill:#000000;fill-opacity:1;fill-rule:nonzero;stroke:none"
       id="path24900"
       d="m 371.39285,663.20306 c 3.45495,0.75605 6.95224,0.76838 10.43288,0.23245 1.58941,-0.28759 3.14775,-0.71142 4.681,-1.21398 2.81016,-0.91677 4.10668,3.05739 1.29652,3.97417 l 0,0 c -1.75747,0.57106 -3.54226,1.05642 -5.36485,1.37498 -4.02577,0.57738 -8.07158,0.5965 -12.05943,-0.31213 -2.86766,-0.71691 -1.85379,-4.77241 1.01388,-4.05549 z"
       inkscape:connector-curvature="0" />
    <path
       style="fill:#000000;fill-opacity:1;fill-rule:nonzero;stroke:none"
       id="path24902"
       d="m 394.49216,645.97154 c 2.9258,4.20598 4.90366,9.01271 6.92857,13.69826 1.43707,3.99413 3.16119,8.14317 3.30697,12.45666 0.0852,2.52098 -0.28476,3.32464 -0.87543,5.72169 -0.71234,2.48673 -2.15773,4.50654 -3.69295,6.52863 -1.80126,2.34371 -5.11576,-0.20365 -3.3145,-2.54736 l 0,0 c 1.21563,-1.55769 2.37673,-3.09644 2.95964,-5.02539 0.4232,-1.54767 0.8115,-2.52227 0.7761,-4.15207 -0.0852,-3.92095 -1.71859,-7.69404 -2.99726,-11.32412 -1.82309,-4.22029 -3.65546,-8.4643 -6.04706,-12.40037 -2.09016,-2.09016 0.86577,-5.04608 2.95592,-2.95593 z"
       inkscape:connector-curvature="0" />
    <path
       style="fill:#000000;fill-opacity:1;fill-rule:nonzero;stroke:none"
       id="path24906"
       d="m 382.26892,765.80347 c -0.6035,3.87782 -1.34379,7.73096 -1.86553,11.62256 -0.64974,3.65786 -0.0321,7.20551 0.8901,10.73653 0.67702,2.02522 2.17949,1.87128 4.00966,1.57158 1.78132,-0.44803 3.49476,-1.07557 5.19525,-1.75997 2.74528,-1.09587 4.29507,2.78654 1.5498,3.88241 l 0,0 c -2.03489,0.80653 -4.08052,1.56746 -6.22919,2.02592 -4.23441,0.4302 -7.07946,-0.37924 -8.57046,-4.66478 -1.05668,-4.05534 -1.70143,-8.15527 -0.98826,-12.3482 0.54429,-4.04481 1.30123,-8.05325 1.95314,-12.07992 0.71691,-2.86767 4.77241,-1.85379 4.05549,1.01387 z"
       inkscape:connector-curvature="0"
       transform="translate(392.51416,71.826854)" />
    <path
       style="fill:#000000;fill-opacity:1;fill-rule:nonzero;stroke:none"
       id="path24910"
       d="m 371.82746,773.91623 c 3.18436,0.69533 6.45598,0.84949 9.70197,1.01016 2.95262,0.11622 5.9077,0.14327 8.86224,0.16003 2.95588,0.0168 2.93211,4.19704 -0.0238,4.18024 l 0,0 c -3.01575,-0.0172 -6.03205,-0.0452 -9.04579,-0.16511 -3.51767,-0.17519 -7.06176,-0.35449 -10.50854,-1.12982 -2.86766,-0.71692 -1.85379,-4.77241 1.01388,-4.0555 z"
       inkscape:connector-curvature="0"
       transform="translate(392.51416,71.826854)" />
    <path
       style="fill:#000000;fill-opacity:1;fill-rule:nonzero;stroke:none"
       id="path24914"
       d="m 705.46649,836.88016 c 0.82658,5.51806 0.94958,11.11188 1.10971,16.6801 0.12066,4.71562 0.15661,9.43275 0.16688,14.14971 2.1e-4,0.40851 4.2e-4,0.81702 6.2e-4,1.22553 10e-4,2.95592 -4.1788,2.95804 -4.1803,0.002 l 0,0 c -2.1e-4,-0.40619 -4.1e-4,-0.81238 -6.2e-4,-1.21856 -0.0102,-4.67999 -0.0457,-9.36014 -0.16516,-14.03879 -0.153,-5.33397 -0.27012,-10.69052 -1.03026,-15.98029 -0.5797,-2.89852 3.51942,-3.71834 4.09913,-0.81982 z"
       inkscape:connector-curvature="0" />
    <path
       style="fill:#000000;fill-opacity:1;fill-rule:nonzero;stroke:none"
       id="path24916"
       d="m 689.09611,834.59561 c 4.36033,0.7532 8.8085,0.86 13.22235,1.00877 4.62346,0.12726 9.24881,0.15518 13.87377,0.16483 1.83053,7.9e-4 0.96113,9.8e-4 2.60822,-2.5e-4 2.95592,-0.002 2.95903,4.1781 0.003,4.1803 l 0,0 c -1.65431,10e-4 -0.78095,10e-4 -2.62007,2.5e-4 -4.66909,-0.01 -9.33857,-0.0382 -14.00615,-0.16721 -4.70647,-0.15929 -9.45388,-0.2722 -14.09511,-1.1312 -2.86766,-0.71692 -1.85379,-4.77241 1.01388,-4.05549 z"
       inkscape:connector-curvature="0" />
    <path
       style="fill:#000000;fill-opacity:1;fill-rule:nonzero;stroke:none"
       id="path24944"
       d="m 27.648924,589.98277 c 3.512731,0.49038 7.124636,0.12746 10.663485,-8.4e-4 2.769876,-0.10061 5.540465,-0.17808 8.311906,-0.21631 1.99071,-0.0698 3.863921,0.70597 5.809087,1.02351 2.130293,0.64078 4.253421,1.27842 6.230921,2.30391 2.492494,1.23924 4.656255,3.07373 6.635241,5.01128 2.356276,1.70994 4.118688,3.97443 5.964415,6.1817 1.829391,2.31518 3.394331,4.81048 4.588093,7.50765 1.14517,2.64522 2.398894,5.24718 3.337117,7.97604 1.062677,2.42796 1.645165,5.0152 2.392435,7.5484 0.729845,2.88325 1.549757,5.73339 2.543126,8.53536 1.002453,2.76913 1.315019,5.68964 1.490153,8.608 -0.12487,2.41503 0.51025,4.72451 0.909391,7.08226 0.368585,2.40604 0.48489,4.83878 0.548562,7.26875 0.03862,2.26795 0.027,4.53642 0.02421,6.80459 -0.0037,2.21162 -0.0055,4.42324 -0.0066,6.63486 0.373574,1.76086 0.857737,3.48724 1.119012,5.27105 0.302191,1.54805 0.583616,3.27227 1.285606,4.69948 0.824668,1.80049 1.299275,3.72546 1.91326,5.60206 0.50068,1.72909 1.391557,3.29481 2.29803,4.83331 0.648454,1.18601 1.615548,2.14476 2.525586,3.12746 1.197241,1.08701 2.357437,2.23587 3.744813,3.08889 1.514447,1.21236 3.272117,2.10962 5.044497,2.88664 1.88432,1.07659 3.91951,1.77585 5.95611,2.49752 2.34579,0.52554 4.64725,1.23819 6.99259,1.76452 2.83363,0.92267 5.72471,1.55806 8.68137,1.90421 2.74873,0.26511 5.51303,0.27338 8.27184,0.2855 2.99344,0.002 5.98687,-0.007 8.9803,-0.0114 2.95635,-0.004 5.9127,-0.005 8.86905,-0.005 2.86554,-3.1e-4 5.73109,-2.1e-4 8.59664,-1.6e-4 2.92624,5e-5 5.85249,6e-5 8.77873,7e-5 3.46857,10e-6 6.93714,10e-6 10.40572,10e-6 3.03841,0 6.07682,0 9.11523,0 3.55567,-0.18774 7.05321,0.14709 10.56532,0.65233 3.26594,0.312 6.4619,1.05566 9.69942,1.55939 3.23307,0.42019 6.49533,0.51016 9.75118,0.56598 3.27821,0.0354 6.55672,0.022 9.83506,0.018 4.05769,-0.005 8.11538,-0.007 12.17307,-0.008 3.66016,-8.3e-4 7.32031,-7.9e-4 10.98047,-7.9e-4 3.69869,2e-5 7.39739,5e-5 11.09608,7e-5 2.44128,10e-6 4.88256,2e-5 7.32383,2e-5 2.12836,0 4.25672,0 6.38507,0 2.50608,0 5.01216,0 7.51823,0 1.89495,0 3.78989,0 5.68484,0 2.37545,0 4.75089,0 7.12634,0 1.57142,0.17915 2.8807,-0.0302 4.32939,-0.52072 1.39366,-0.52029 2.87029,-0.6994 4.34277,-0.81986 0.82019,-0.061 1.64351,-0.0648 2.46558,-0.0618 0.19642,8e-4 0.39275,0.007 0.58909,0.008 0.73187,10e-4 1.46374,10e-4 2.19562,10e-4 2.95592,3.8e-4 2.95538,4.18069 -5.4e-4,4.1803 l 0,0 c -0.73753,-9e-5 -1.47505,1.6e-4 -2.21258,-10e-4 -0.19732,-0.002 -0.38633,-0.005 -0.58752,-0.008 -0.70419,-0.003 -1.40957,-0.002 -2.11228,0.0482 -1.1316,0.0905 -2.271,0.2027 -3.34007,0.61289 -1.87063,0.63268 -3.68373,0.91691 -5.66946,0.74132 -2.37545,0 -4.75089,0 -7.12634,0 -1.89495,0 -3.78989,0 -5.68484,0 -2.50607,0 -5.01215,0 -7.51823,0 -2.12835,0 -4.25671,10e-6 -6.38507,0 -2.44128,0 -4.88257,0 -7.32385,-10e-6 -3.69869,-2e-5 -7.39738,-5e-5 -11.09606,-8e-5 -3.65978,0 -7.31955,-3e-5 -10.97933,8e-4 -4.05636,10e-4 -8.11272,0.003 -12.16908,0.008 -3.30404,0.004 -6.60827,0.0176 -9.91218,-0.0186 -3.44737,-0.0596 -6.90151,-0.15982 -10.32355,-0.61531 -3.22121,-0.50378 -6.40083,-1.24103 -9.65046,-1.55206 -3.3165,-0.47736 -6.61056,-0.80064 -9.96992,-0.60971 -3.03841,0 -6.07682,0 -9.11523,0 -3.46858,0 -6.93716,0 -10.40573,0 -2.92626,-10e-6 -5.85252,-3e-5 -8.77878,-8e-5 -2.8653,-4e-5 -5.73059,-1.4e-4 -8.59589,1.7e-4 -2.95459,4.9e-4 -5.90919,10e-4 -8.86378,0.005 -3.00158,0.004 -6.00317,0.0135 -9.00475,0.0114 -2.91674,-0.013 -5.83928,-0.0254 -8.74466,-0.31444 -3.10162,-0.37059 -6.1492,-1.00106 -9.12069,-1.98014 -2.50093,-0.57915 -4.96535,-1.30121 -7.461,-1.90067 -2.13541,-0.75995 -4.27948,-1.49638 -6.25913,-2.61867 -1.95048,-0.88029 -3.916266,-1.84746 -5.595752,-3.18372 -1.668869,-1.09409 -3.145889,-2.41439 -4.580642,-3.79351 -1.079835,-1.21483 -2.257558,-2.37685 -3.039145,-3.8236 -1.057045,-1.79837 -2.073779,-3.64092 -2.668592,-5.65429 -0.574317,-1.75728 -1.015901,-3.56056 -1.779593,-5.24833 -0.741665,-1.83529 -1.282419,-3.8061 -1.584108,-5.75997 -0.275286,-1.98121 -0.956742,-3.87236 -1.161217,-5.86562 0.0011,-2.21266 0.0029,-4.42531 0.0066,-6.63795 0.0027,-2.23014 0.01412,-4.46055 -0.02279,-6.69048 -0.05795,-2.23367 -0.159239,-4.47011 -0.491801,-6.68269 -0.419982,-2.502 -1.076878,-4.96883 -0.960252,-7.52999 -0.147642,-2.5265 -0.390934,-5.0593 -1.257198,-7.45847 -1.018495,-2.87289 -1.866326,-5.79323 -2.612625,-8.74956 -0.730948,-2.47845 -1.297798,-5.00843 -2.339923,-7.38308 -0.883694,-2.6241 -2.128946,-5.10684 -3.211144,-7.65125 -1.007147,-2.34806 -2.408873,-4.48491 -3.968271,-6.50401 -1.753431,-2.10991 -3.43169,-4.25006 -5.683652,-5.87691 -1.686092,-1.66526 -3.529693,-3.24992 -5.666474,-4.30101 -1.5605,-0.86032 -3.290751,-1.25664 -4.956786,-1.87197 -1.700441,-0.28831 -3.347446,-0.9275 -5.06395,-0.96698 -2.740141,0.0377 -5.47943,0.11455 -8.218024,0.21396 -3.927726,0.1424 -7.939098,0.55045 -11.82882,-0.12123 -2.867667,-0.71692 -1.853793,-4.77241 1.013873,-4.05549 z"
       inkscape:connector-curvature="0"
       transform="translate(392.51416,71.826854)" />
    <path
       style="fill:none;stroke:#000000;stroke-width:3.47952747;stroke-linecap:butt;stroke-linejoin:miter;stroke-miterlimit:4;stroke-opacity:1;stroke-dasharray:3.47952756, 3.47952756;stroke-dashoffset:0"
       d="m 27.868707,717.25302 c 52.59456,2.01656 105.372913,-0.78583 157.458193,-8.36061 7.14075,-1.03848 14.29491,-2.17232 21.20592,-4.24757 6.91101,-2.07524 13.60875,-5.12991 19.20371,-9.68679 7.13904,-5.81448 12.20354,-13.851 15.76836,-22.34017 3.56482,-8.48918 5.73025,-17.48697 7.92004,-26.43006 2.30236,-9.40282 4.66903,-18.85682 8.68132,-27.66678 4.01228,-8.80997 9.80481,-17.02996 17.79395,-22.4969 10.84109,-7.41852 25.41764,-9.03813 37.62276,-4.1803"
       id="path24990"
       inkscape:path-effect="#path-effect24992"
       inkscape:original-d="m 27.868707,717.25302 c 20.901531,0 139.343533,-2.78687 157.458193,-8.36061 18.11466,-5.57374 30.65558,-4.18031 40.40963,-13.93436 9.75405,-9.75404 18.11465,-36.22932 23.6884,-48.77023 5.57374,-12.54092 16.72122,-47.37681 26.47527,-50.16368 9.75405,-2.78687 29.26215,-4.1803 37.62276,-4.1803"
       inkscape:connector-curvature="0"
       transform="translate(392.51416,71.826854)"
       sodipodi:nodetypes="cssssc" />
    <path
       style="fill:none;stroke:#000000;stroke-width:2.41653538;stroke-linecap:butt;stroke-linejoin:miter;stroke-miterlimit:4;stroke-opacity:1;stroke-dasharray:2.41653543, 7.2496063;stroke-dashoffset:0"
       d="m 704.64369,814.1617 0,-183.93347"
       id="path24994"
       inkscape:connector-curvature="0"
       sodipodi:nodetypes="cc" />
    <path
       style="fill:#000000;fill-opacity:1;fill-rule:nonzero;stroke:none"
       id="path24996"
       d="m 314.32395,732.74058 c 0.61955,2.29714 0.92756,4.66121 1.12529,7.02729 0.14824,2.2894 0.16421,4.58482 0.17311,6.87822 0.002,0.61465 2.7e-4,1.2293 -0.002,1.84394 -0.01,2.95591 -4.19008,2.94206 -4.18029,-0.0139 l 0,0 c 0.002,-0.60466 0.003,-1.20933 0.002,-1.81399 -0.008,-2.18389 -0.0226,-4.36964 -0.15893,-6.54997 -0.17475,-2.14077 -0.45199,-4.2803 -1.01469,-6.35776 -0.71691,-2.86767 3.33858,-3.88154 4.0555,-1.01388 z"
       inkscape:connector-curvature="0"
       transform="translate(392.51416,71.826854)" />
  </g>
</svg>
