<?xml version="1.0" encoding="UTF-8" standalone="no"?>
<!-- Created with Inkscape (http://www.inkscape.org/) -->

<svg
   xmlns:dc="http://purl.org/dc/elements/1.1/"
   xmlns:cc="http://creativecommons.org/ns#"
   xmlns:rdf="http://www.w3.org/1999/02/22-rdf-syntax-ns#"
   xmlns:svg="http://www.w3.org/2000/svg"
   xmlns="http://www.w3.org/2000/svg"
   xmlns:sodipodi="http://sodipodi.sourceforge.net/DTD/sodipodi-0.dtd"
   xmlns:inkscape="http://www.inkscape.org/namespaces/inkscape"
   width="295.70178"
   height="307.34988"
   id="svg21338"
   version="1.1"
   inkscape:version="0.48.0 r9654"
   sodipodi:docname="ForcePlate.svg">
  <defs
     id="defs21340" />
  <sodipodi:namedview
     inkscape:document-units="mm"
     pagecolor="#ffffff"
     bordercolor="#666666"
     borderopacity="1.0"
     inkscape:pageopacity="0.0"
     inkscape:pageshadow="2"
     inkscape:zoom="1.0149115"
     inkscape:cx="181.14121"
     inkscape:cy="140.32221"
     inkscape:current-layer="layer1"
     id="namedview21342"
     showgrid="false"
     showguides="true"
     inkscape:guide-bbox="true"
     fit-margin-top="0"
     fit-margin-left="0"
     fit-margin-right="0"
     fit-margin-bottom="0"
     inkscape:window-width="1280"
     inkscape:window-height="752"
     inkscape:window-x="0"
     inkscape:window-y="0"
     inkscape:window-maximized="1" />
  <metadata
     id="metadata21344">
    <rdf:RDF>
      <cc:Work
         rdf:about="">
        <dc:format>image/svg+xml</dc:format>
        <dc:type
           rdf:resource="http://purl.org/dc/dcmitype/StillImage" />
        <dc:title />
      </cc:Work>
    </rdf:RDF>
  </metadata>
  <g
     inkscape:label="Layer 1"
     inkscape:groupmode="layer"
     id="layer1"
     transform="translate(-331.76697,-222.74034)">
    <path
       style="fill:#000000;fill-opacity:1;fill-rule:nonzero;stroke:none"
       id="path21865"
       d="m 524.19972,251.62778 c -2.37712,1.43637 -4.82115,2.75366 -7.33484,3.9346 -1.80145,0.96858 -3.78751,1.63815 -5.50125,2.7587 -1.93344,1.14941 -3.92747,2.19657 -5.82932,3.40258 -1.51609,1.0807 -3.00604,2.23317 -4.3955,3.47281 -1.30536,1.17423 -2.84048,2.13888 -3.95089,3.51027 -0.86423,1.13636 -1.60876,2.3192 -2.56738,3.3812 -1.27689,1.46031 -2.45934,2.99758 -3.6674,4.51785 -0.87084,0.88009 -1.00129,2.03237 -1.3919,3.14877 -0.671,1.59519 -1.4613,3.14637 -2.32588,4.64594 -0.82822,1.21341 -1.24036,2.5973 -1.80585,3.92842 -0.66266,1.29893 -1.05359,2.68657 -1.65903,4.01325 -0.47345,1.41049 -1.34274,2.64762 -1.84423,4.0449 -0.41856,1.14918 -0.45379,2.36516 -0.72003,3.54981 -0.59306,1.52856 -0.78463,3.15693 -1.3628,4.6814 -0.44491,0.92081 -0.94062,1.7869 -1.07995,2.80872 -0.11852,0.85856 -0.1255,1.72641 -0.13065,2.59147 -0.23107,1.11911 -0.86982,1.95797 -1.47411,2.87935 0.28293,-0.5604 0.0967,0.30258 0.0837,0.50082 -0.003,0.062 0.003,0.26488 0.005,0.52 0.10198,0.54751 -0.29982,1.68018 -0.43792,-0.84836 -0.0282,-0.51672 0.4822,0.58988 0.90564,1.19592 0.58185,0.80148 0.76834,1.79145 0.89465,2.75166 0.16811,1.0558 -0.11241,2.02756 -0.4944,3.0103 -1.07101,2.75507 -4.96727,1.24042 -3.89625,-1.51465 l 0,0 c 0.55226,-1.42048 0.13816,0.52744 0.24425,-0.96427 -0.0619,-0.50708 -0.0411,-0.70869 -0.17704,-0.89173 -0.55995,-0.80471 -1.29726,-1.68853 -1.21915,-2.71213 -0.002,-0.2616 -0.009,-0.52313 0.002,-0.78461 0.0532,-0.88451 0.17519,-1.75734 0.59425,-2.55553 0.28594,-0.43598 1.38226,-2.46815 0.78946,-0.61271 0.007,-1.08633 0.0255,-2.17581 0.18737,-3.25232 0.24437,-1.3515 0.71951,-2.59196 1.37444,-3.79933 0.66739,-0.71401 0.4391,-3.13282 1.14082,-4.03572 0.43377,-1.27615 0.20359,-2.76734 0.8644,-4.00582 0.57926,-1.47222 1.4121,-2.8055 1.94799,-4.29302 0.59798,-1.30976 0.96975,-2.68902 1.6409,-3.97299 0.69703,-1.43941 1.06746,-3.04763 2.03351,-4.36894 0.78721,-1.25564 1.39754,-2.62369 2.00204,-3.96955 0.62642,-1.46452 0.77836,-3.12983 2.03637,-4.28989 1.26944,-1.59722 2.52431,-3.20054 3.85834,-4.7415 0.93076,-0.99224 1.56904,-2.18145 2.43648,-3.23136 1.28537,-1.51816 2.89689,-2.69827 4.4082,-3.97934 1.57525,-1.36333 3.20271,-2.68881 4.92326,-3.86643 1.91066,-1.19647 3.89471,-2.26733 5.83645,-3.40707 1.8971,-1.15784 3.96204,-2.00316 5.94596,-3.00127 2.48422,-1.16412 4.88588,-2.48334 7.24111,-3.88918 2.64385,-1.32193 4.51334,2.41705 1.86948,3.73898 z"
       inkscape:connector-curvature="0" />
    <path
       style="fill:#000000;fill-opacity:1;fill-rule:nonzero;stroke:none"
       id="path21871"
       d="m 478.74932,316.46961 c 0.52002,3.03968 2.14586,5.69427 3.94447,8.14093 3.68753,4.23758 7.76957,8.13573 11.92358,11.91584 3.34172,2.97201 6.65902,5.99213 9.59838,9.36924 0.73453,0.91145 1.51412,1.80662 2.08859,2.83274 5.82861,12.5274 -13.43596,-4.81338 -1.12945,-0.93145 -0.35229,1.00375 -3.74327,9.25769 -0.12624,-0.0392 2.95777,1.09312 0.72381,4.09496 -0.22226,5.31866 -2.88817,3.50589 -5.62745,7.10486 -8.17312,10.87376 -3.43255,5.05947 -6.06651,10.59722 -8.43909,16.2161 -1.39467,3.65282 -3.18082,7.14148 -4.67844,10.74779 -0.48559,1.58422 -1.0033,2.94496 -2.49846,3.81823 -0.68577,0.32666 -1.40025,0.42285 -2.14139,0.2913 -4.33967,-2.01492 1.1499,-2.23092 2.50595,-2.52505 -5.05724,-1.9709 -0.83843,-1.47721 0.35403,-0.6862 0.0831,0.0551 1.4905,1.27059 1.72639,1.4738 1.80868,1.67146 3.76935,3.17116 5.87084,4.45539 1.15796,0.719 2.45867,1.16798 3.78185,1.47082 1.47121,-0.002 1.1526,4.23054 -0.64109,4.20585 -2.95564,-0.0411 -2.89755,-4.22098 0.0581,-4.1799 l 0,0 c 2.10752,0.0295 1.77602,5.17199 -0.36575,4.04527 -1.7615,-0.41556 -3.48554,-1.02715 -5.03004,-1.98558 -2.27776,-1.41902 -4.43881,-3.01864 -6.40611,-4.84799 -3.09959,-2.68236 2.32385,0.29341 -3.27884,-2.52841 0.69023,-0.30519 6.50575,-1.64408 2.37792,-2.96817 -0.25508,-0.0402 -0.50704,-0.0828 -0.7309,0.0651 -1.0189,1.5223 0.71437,-1.36027 0.5604,-1.71615 1.51503,-3.60687 3.27836,-7.11032 4.68582,-10.76534 2.48703,-5.86406 5.23465,-11.64711 8.82544,-16.92776 2.59925,-3.84306 5.39329,-7.51555 8.33379,-11.09547 0.2036,-0.26128 0.41234,-0.51864 0.61081,-0.78384 0.15031,-0.20085 0.26808,-0.80097 0.43529,-0.61395 2.8894,3.23185 2.29334,2.96233 1.23202,2.63179 2.22392,-9.28863 0.51091,-1.43443 0.11554,0.0358 -0.5272,-0.1663 3.31424,-9.75357 -1.28914,-1.06501 -0.46323,-0.7301 -1.01002,-1.41763 -1.56843,-2.08165 -2.82524,-3.26004 -6.04386,-6.14861 -9.25619,-9.01902 -4.36312,-3.97189 -8.65803,-8.06677 -12.4937,-12.55295 -2.07895,-2.89775 -3.9879,-6.01178 -4.61605,-9.58147 -0.71692,-2.86767 3.33857,-3.88154 4.05549,-1.01387 z"
       inkscape:connector-curvature="0" />
    <path
       style="fill:#000000;fill-opacity:1;fill-rule:nonzero;stroke:none"
       id="path21875"
       d="m 476.13938,321.0747 c -3.23596,2.62546 -6.3394,5.39993 -9.38504,8.24237 -4.05556,3.7676 -7.65511,7.98501 -11.54119,11.91936 -2.85678,2.62751 -5.58616,5.36987 -8.05081,8.36969 -0.094,-0.0477 -1.12231,1.61944 -0.81794,1.03745 -4.15274,-3.95915 -3.08989,-3.65747 -0.66267,0.83639 0.0364,0.0674 -0.79547,0.31202 -1.17781,0.44214 -0.55862,0.0687 -1.11491,0.008 -1.66576,-0.0824 -0.91884,-0.12477 -1.45946,-0.89527 -1.93919,-1.60686 -1.71918,-3.00674 -4.00961,-5.61703 -6.15084,-8.32157 -3.30113,-3.76517 -6.5355,-7.58771 -9.86038,-11.33217 -1.84632,-2.01417 -2.91462,-4.29871 -3.31856,-6.97575 -0.15057,-1.27742 -0.13515,-2.56503 -0.0963,-3.84815 0.01,-0.30053 0.0233,-0.6009 0.0505,-0.90035 0.006,-0.0415 0.0116,-0.083 0.0174,-0.12447 0.73446,0.8296 1.65367,1.52677 2.20339,2.48878 0.11439,0.20018 -0.44286,0.1313 -0.65612,0.21892 -0.22213,0.0913 -0.43752,0.19942 -0.64717,0.31654 -0.77228,0.43145 -1.09491,0.69707 -1.84488,1.23197 -2.30006,1.6172 -4.37245,3.47648 -6.34849,5.47015 -0.53186,0.5555 -1.07436,1.10322 -1.56904,1.69276 0.006,-0.007 0.0116,-0.0136 0.0174,-0.0204 0.0311,-0.0447 0.0623,-0.0894 0.0934,-0.13417 -1.56328,2.50871 -5.11113,0.2979 -3.54785,-2.21081 l 0,0 c 0.4172,-0.61379 -0.10308,0.14405 0.20109,-0.28103 0.57437,-0.69696 1.21434,-1.33712 1.83695,-1.99008 2.14851,-2.16488 4.41194,-4.17853 6.90578,-5.94154 0.44206,-0.30948 3.81813,-2.576 4.29713,-2.33761 1.13727,0.56599 3.06774,3.49727 3.19661,2.0749 -10e-4,0.0204 -0.0284,0.46858 -0.0277,0.57407 -0.0322,1.04486 -0.0522,2.09339 0.057,3.13485 0.23785,1.88002 1.0101,3.37412 2.3054,4.78591 3.37701,3.80343 6.66431,7.68426 10.01216,11.51315 2.26659,2.86388 4.67757,5.63637 6.49195,8.82346 -0.29297,-0.14694 -0.58492,-0.34478 -0.91551,-0.41035 0.0686,0.0114 0.35178,0.0239 0.25462,0.0624 -0.20457,0.0963 -0.4052,0.20148 -0.61369,0.28896 -0.0476,0.02 0.0954,-0.12474 0.12914,-0.0857 4.13627,4.78509 2.97393,3.75953 -0.86131,0.98072 0.36791,-0.74339 0.91491,-1.37498 1.42263,-2.02534 2.54813,-3.09564 5.35329,-5.94391 8.30735,-8.65402 3.93058,-3.96848 7.55609,-8.23924 11.66139,-12.03613 3.01029,-2.80846 6.06234,-5.57172 9.28107,-8.14193 2.09015,-2.09015 5.04608,0.86577 2.95592,2.95593 z"
       inkscape:connector-curvature="0" />
    <path
       style="fill:#000000;fill-opacity:1;fill-rule:nonzero;stroke:none"
       id="path21877"
       d="m 512.08749,256.16542 c -0.46357,6.56326 -1.51104,13.06557 -2.39603,19.58063 -0.80939,6.85778 -1.95721,13.66765 -2.70351,20.53361 -0.18687,2.00792 -0.40531,4.01589 -0.49553,6.03142 0.33039,1.33193 -2.71602,-0.39518 -4.07538,-0.58315 1.35365,0.3439 2.72113,0.63731 4.06093,1.03169 0.41142,0.12111 -4.67839,2.34938 -4.07221,-0.96933 13.84317,3.33838 -2.85455,0.45381 2.54476,-1.52077 3.97567,-1.80118 8.18455,-3.02054 12.29887,-4.46533 4.95655,-1.95948 10.05232,-3.54512 15.25583,-4.69294 1.95281,-0.40571 3.93802,-0.59544 5.92976,-0.62671 0.69405,-10e-4 1.38809,0.0125 2.0817,0.0367 1.33685,-0.13513 -1.96797,2.76271 -1.93249,1.40882 0.0912,-2.95452 4.2695,-2.82558 4.17832,0.12894 l 0,0 c -0.0407,1.20505 -1.12801,2.75534 -2.39221,2.63998 -0.62429,-0.022 -1.24896,-0.0341 -1.87364,-0.0346 -1.71047,0.0233 -3.41495,0.1852 -5.09271,0.52942 -5.04012,1.10713 -9.97031,2.65753 -14.76982,4.55468 -4.14081,1.45337 -8.36938,2.68621 -12.37356,4.49076 -0.31599,0.0988 -0.65364,0.44816 -0.94799,0.29656 -6.76471,-3.48404 -1.19516,-2.30719 1.20545,-1.99438 -0.67469,3.69375 -4.60264,-0.55745 -4.15271,-0.53086 1.39581,0.0825 2.78346,0.26961 4.17518,0.40442 -0.29328,1.68865 -4.66862,1.51732 -4.22408,-0.29352 0.0966,-2.10316 0.31686,-4.19889 0.51575,-6.29399 0.75185,-6.90275 1.90033,-13.74989 2.71704,-20.64419 0.86001,-6.3293 1.86673,-12.64564 2.35798,-19.01787 0,-2.95592 4.1803,-2.95592 4.1803,0 z"
       inkscape:connector-curvature="0" />
    <path
       style="fill:#000000;fill-opacity:1;fill-rule:nonzero;stroke:none"
       id="path21879"
       d="m 506.03682,256.85974 c -4.62275,-0.61606 -9.3698,-0.0113 -13.99471,0.39111 -5.76389,0.45173 -11.52239,0.74024 -17.22485,1.72991 -1.02206,0.24069 -2.1933,0.37166 -3.15871,0.71898 0.0693,-0.0312 0.2135,-0.0178 0.20777,-0.0935 -0.77827,-10.29171 0.0125,0.39577 -1.3083,0.23233 0.68682,-3.76308 0.93976,-7.03528 1.82276,-0.16524 0.027,0.21003 -0.20574,0.37018 -0.30862,0.55528 -2.21206,4.97015 -4.39052,9.95525 -6.60914,14.92372 -2.73727,5.77037 -4.95125,11.74829 -7.29368,17.68191 -0.64919,1.59722 -1.27396,3.20555 -1.96888,4.78381 -0.52159,1.42646 -3.17629,1.0895 -4.10784,0.0146 -1.93064,-2.23833 1.23483,-4.96867 3.16547,-2.73034 l 0,0 c 1.15619,1.3452 -2.73487,1.3962 -2.88281,1.02966 0.67431,-1.52771 1.27502,-3.08705 1.90581,-4.63279 2.36522,-5.9904 4.60449,-12.02436 7.36489,-17.8513 2.29511,-5.13968 4.51334,-10.31437 6.87361,-15.42247 3.87641,-5.94628 1.61868,10.84845 2.55177,-2.33548 0.44678,0.0553 -0.0485,10.75527 -1.23248,0.2606 0.10071,-0.0486 0.20141,-0.0972 0.30212,-0.14585 1.27538,-0.4731 2.64043,-0.65585 3.96307,-0.94288 5.8195,-1.00539 11.69328,-1.32585 17.57585,-1.77548 5.08078,-0.44172 10.3027,-1.09928 15.37078,-0.28201 2.86766,0.71691 1.85379,4.77241 -1.01388,4.05549 z"
       inkscape:connector-curvature="0" />
    <path
       style="fill:#000000;fill-opacity:1;fill-rule:nonzero;stroke:none"
       id="path21905"
       d="m 540.8727,228.99103 c -3.06632,-0.75526 -5.87864,0.50052 -8.58328,1.82661 -4.16732,2.46274 -5.62256,5.27109 -6.7321,9.82699 -1.14955,5.53663 0.30301,10.13998 3.79776,14.46347 4.32281,4.16657 8.00229,5.18384 13.69221,3.29407 5.25372,-2.96963 7.33748,-8.19122 8.29202,-13.86795 0.58626,-5.82036 -1.79025,-10.58307 -5.80352,-14.59592 -2.75428,-2.02008 -6.02884,-3.55613 -9.48965,-2.94755 -1.28092,0.5775 -0.65555,0.23162 -1.86882,1.05077 -2.50441,1.57016 -4.72495,-1.97161 -2.22054,-3.54177 l 0,0 c 2.20954,-1.325 1.03932,-0.77022 3.51743,-1.65 4.85382,-0.56362 9.25585,1.08449 13.04246,4.15779 5.09445,5.25299 7.65346,10.77445 6.93955,18.25198 -1.37863,7.54007 -4.07206,13.46018 -11.18019,17.1383 -1.07819,0.3127 -2.12766,0.75102 -3.23459,0.93812 -5.74046,0.97027 -11.0905,-1.55462 -14.97512,-5.64734 -0.66859,-0.87179 -1.42124,-1.68514 -2.00578,-2.61539 -2.89824,-4.61234 -3.6539,-10.1727 -2.55811,-15.44484 1.53748,-5.99467 3.5325,-9.36346 8.96321,-12.57222 3.61027,-1.73408 7.37234,-3.14836 11.42093,-2.12061 2.86767,0.71692 1.85379,4.77241 -1.01387,4.05549 z"
       inkscape:connector-curvature="0" />
    <path
       style="fill:#000000;fill-opacity:1;fill-rule:nonzero;stroke:none"
       id="path21907"
       d="m 441.81352,410.26035 c 7.00446,1.26699 14.30236,0.40367 21.37056,0.0296 10.78755,-0.93548 21.61288,-1.22107 32.43257,-1.49992 7.47795,-0.18485 14.95666,0.0348 22.42479,0.41149 1.59744,0.10903 3.20167,0.15466 4.7949,0.32239 2.60389,0.30544 -0.57912,4.7104 -0.56529,4.1943 0.11366,-4.24132 -1.22477,-4.12869 0.32637,-4.19893 0.38249,0.0168 0.76552,0.0614 1.14729,0.0981 0.39118,0.0354 0.78271,0.0669 1.17415,0.0993 0.18135,0.0149 0.36273,0.0298 0.54411,0.0446 1.43283,2.38148 1.81835,1.96481 2.1017,3.5704 0.50913,3.2179 0.34514,6.4926 0.20596,9.73307 -0.12322,2.46462 -0.30052,4.9261 -0.50077,7.38554 -0.0368,0.4194 -0.0676,0.83942 -0.11331,1.25797 -1.15599,0.48622 -2.28504,1.04229 -3.46798,1.45866 -0.42977,0.15127 -7.51688,-0.55043 -8.07261,-0.58867 -8.66537,-0.70824 -17.3269,-1.31363 -26.01543,-1.6336 -11.36484,-0.46747 -22.74827,-0.45495 -34.11598,-0.10481 -6.7294,0.26073 -13.46009,0.48567 -20.19363,0.60313 -0.8984,-0.0172 -1.80103,0.0626 -2.69915,0.009 0.286,-5.00004 0.81261,-6.17514 0.46747,-0.003 -10e-6,1e-4 -0.16039,0.009 -0.20405,0.0119 2.4384,-12.79636 -2.11989,4.48122 -1.91592,-4.2161 0.19597,-2.58453 0.47117,-5.16254 0.71457,-7.74299 0.18519,-1.98368 0.35974,-3.96831 0.52999,-5.95331 0.0487,-0.56376 0.0945,-1.12778 0.14123,-1.69171 0.0466,-0.56687 0.0936,-1.13372 0.14046,-1.70058 0.0115,-0.13901 0.023,-0.27802 0.0345,-0.41703 2.71199,-1.7817 2.13479,-1.79638 4.05507,-1.66931 1.90719,0.18558 3.68322,0.99429 5.55132,1.42235 1.35194,0.25395 0.7317,0.21757 1.85433,0.18883 2.95557,0.0458 2.89086,4.22556 -0.0647,4.1798 l 0,0 c -1.89192,-0.0691 -0.98198,0.0379 -2.73269,-0.29605 -1.65214,-0.38594 -3.24489,-1.05905 -4.88927,-1.32404 -1.98261,-0.13554 -3.6124,0.20298 0.39196,-2.15623 -0.0115,0.13879 -0.023,0.27757 -0.0345,0.41635 -0.0468,0.56635 -0.0937,1.13271 -0.14034,1.69908 -0.0468,0.56867 -0.0936,1.13735 -0.1424,1.70585 -0.17153,1.99672 -0.34684,3.99313 -0.53312,5.98854 -0.23541,2.4962 -0.49703,4.99029 -0.69837,7.48947 -0.14675,2.97377 -4.06268,7.68908 -2.5033,-0.0962 0.77583,-0.0451 0.91094,10.86357 0.33404,-3.1e-4 0.1187,-0.001 1.85898,-0.0103 2.27005,-0.0234 6.71505,-0.11702 13.42726,-0.342 20.13819,-0.60178 11.46184,-0.35091 22.93929,-0.3665 34.39822,0.10567 8.73299,0.32195 17.43915,0.9278 26.14877,1.64064 2.17782,0.15001 4.36143,0.26599 6.53704,0.44713 1.43763,0.11964 2.76323,0.28674 2.71976,0.39927 -0.34921,0.90397 -1.43576,1.30195 -2.15363,1.95294 0.0335,-0.33102 0.0679,-0.74681 0.0969,-1.09613 0.19646,-2.40636 0.36971,-4.81479 0.49086,-7.22626 0.12711,-2.93784 0.29324,-5.90873 -0.1466,-8.82869 -0.31645,-1.80359 -1.04736,-4.43902 1.67629,-0.12821 -0.18268,-0.0149 -0.36536,-0.0299 -0.54803,-0.0449 -0.41022,-0.0338 -0.8206,-0.066 -1.23046,-0.104 -0.35043,-0.0341 -1.35019,-0.14754 -0.55888,-0.0834 -0.79069,0.0358 -0.59733,-10.93305 -0.39474,-0.0148 -1.51689,-0.14541 -3.04039,-0.21148 -4.56103,-0.30402 -7.36213,-0.37169 -14.73467,-0.58949 -22.10651,-0.40756 -10.78204,0.27741 -21.5695,0.56284 -32.31948,1.49548 -7.64582,0.40384 -15.72575,1.4293 -23.23627,-0.36105 -2.71744,-1.16321 -1.07243,-5.00623 1.64501,-3.84303 z"
       inkscape:connector-curvature="0" />
    <path
       style="fill:#000000;fill-opacity:1;fill-rule:nonzero;stroke:none"
       id="path21915"
       d="m 484.38813,441.49766 c -2.8508,-1.61912 -6.01246,-2.47662 -9.27135,-2.62884 -5.30249,-0.23529 -10.08694,1.90766 -14.79428,4.06116 -5.86287,2.81917 -9.94236,6.88372 -13.01723,12.55161 -3.14566,7.4577 -3.40806,15.585 -2.73882,23.53294 1.10065,7.67014 3.94939,14.92023 9.46754,20.49709 0.99962,1.01025 2.13167,1.88024 3.19751,2.82036 5.71506,3.79269 12.48386,6.30556 19.4432,5.71916 1.34158,-0.11304 2.6572,-0.43562 3.98581,-0.65342 8.93516,-2.53195 15.65873,-7.92911 21.80942,-14.65393 5.10248,-5.7409 8.18979,-12.6191 9.90052,-20.02742 0.84944,-6.05479 0.12514,-12.10844 -2.50021,-17.61991 -3.38308,-6.09293 -8.86165,-10.08911 -14.99227,-13.09259 -4.8598,-1.87146 -10.0555,-3.10142 -15.29215,-3.10054 -3.21475,5.4e-4 -5.1064,0.43431 -8.27686,0.94124 -5.44237,1.67217 -2.77383,0.68184 -8.00458,2.97382 -2.71131,1.17742 -4.37643,-2.65695 -1.66512,-3.83437 l 0,0 c 5.86499,-2.52639 2.85956,-1.43457 9.01872,-3.26876 3.67038,-0.5711 5.47629,-1.00165 9.21297,-0.9825 5.78349,0.0296 11.51113,1.40886 16.86103,3.52443 6.96607,3.47745 13.14862,8.07418 16.92626,15.07121 0.47385,1.03253 1.02331,2.03361 1.42154,3.09759 2.03453,5.43576 2.0493,11.56652 1.36175,17.23974 -1.9065,8.10386 -5.29227,15.62853 -10.89187,21.90476 -6.93347,7.52964 -14.17684,13.21001 -24.2396,15.95676 -1.54842,0.23473 -3.08314,0.59253 -4.64527,0.70419 -7.99391,0.5714 -15.7154,-2.3084 -22.21248,-6.77679 -1.19744,-1.0742 -2.47118,-2.069 -3.59232,-3.22261 -6.08207,-6.25825 -9.26881,-14.33175 -10.45994,-22.87675 -0.69826,-8.77489 -0.36462,-17.71169 3.24498,-25.893 0.603,-1.0779 1.13205,-2.20064 1.80901,-3.2337 3.20418,-4.88977 7.96977,-8.50014 13.13157,-11.10099 5.33374,-2.43293 10.77964,-4.73416 16.77598,-4.43191 4.07275,0.27543 8.03405,1.27969 11.53473,3.45772 2.36474,1.77356 -0.14345,5.1178 -2.50819,3.34425 z"
       inkscape:connector-curvature="0" />
    <path
       style="fill:#000000;fill-opacity:1;fill-rule:nonzero;stroke:none"
       id="path21917"
       d="m 481.96886,495.47055 c -2.4056,0.29764 -4.89041,-0.32122 -6.9636,-1.54106 -2.82947,-2.38431 -0.91533,-4.71234 1.95501,-5.32656 1.67724,-0.37613 3.19108,-0.16696 4.57753,0.87658 1.50313,1.37906 1.5317,3.29077 0.3005,4.83953 -1.28028,0.94027 -2.77894,0.99443 -4.2996,1.05232 -2.19215,0.22082 -3.78511,-2.54455 -2.19005,-4.21699 0.31073,-0.32581 0.7403,-0.51263 1.11046,-0.76895 0.22793,-0.0791 0.45587,-0.15819 0.68381,-0.23729 -0.0426,-0.004 -0.0852,-0.008 -0.12779,-0.0124 2.46146,-1.63667 4.77606,1.84436 2.3146,3.48103 l 0,0 c -0.96811,0.5415 -0.57594,0.45101 -1.07748,0.54485 1.70093,-1.8825 0.49816,-2.44756 -1.15018,-2.96176 -0.0895,-0.0279 0.18741,-0.004 0.28111,-0.006 0.37853,-0.0137 2.34379,-0.4107 1.49563,0.17273 -0.47115,0.88247 -0.35203,1.16851 0.0283,1.36162 0.65486,-0.35457 -0.7848,-0.0255 -1.12174,-0.0273 -0.96486,0.16979 0.40799,-1.26136 -0.54671,-2.38754 -0.0385,-0.0454 0.067,0.0986 0.10042,0.14789 1.044,0.51222 2.37576,0.96499 3.61587,0.95371 2.86766,-0.71691 3.88154,3.33858 1.01387,4.0555 z"
       inkscape:connector-curvature="0" />
    <path
       style="fill:#000000;fill-opacity:1;fill-rule:nonzero;stroke:none"
       id="path21941"
       d="m 478.50224,491.39932 c 0.80301,-4.4091 2.07436,-8.72181 3.21655,-13.05214 2.96709,-9.82587 5.43626,-19.77785 7.61692,-29.80422 0.29611,-1.50974 0.59222,-3.01947 0.88832,-4.52921 0.28453,-1.45032 2.33558,-1.04795 2.05106,0.40237 l 0,0 c -0.299,1.5237 -0.59798,3.0474 -0.89698,4.57109 -2.1875,10.05599 -4.66217,20.03811 -7.63829,29.89305 -1.1043,4.18668 -2.30504,8.35571 -3.14919,12.60472 -0.0606,1.47673 -2.14896,1.39106 -2.08839,-0.0857 z"
       inkscape:connector-curvature="0"
       inkscape:transform-center-x="-6.0730092"
       inkscape:transform-center-y="-25.147658" />
    <path
       style="fill:#000000;fill-opacity:1;fill-rule:nonzero;stroke:none"
       id="path21947"
       d="m 480.66385,449.27889 c 0.45421,-0.98083 0.76922,-2.00948 0.98016,-3.06711 0.0189,-0.13617 0.0377,-0.27234 0.0566,-0.40851 0.20883,-1.46313 2.27802,-1.16778 2.06918,0.29535 l 0,0 c -0.0256,0.17505 -0.0511,0.35011 -0.0767,0.52517 -0.25063,1.23808 -0.62135,2.44397 -1.15981,3.58985 -0.66096,1.32192 -2.53045,0.38718 -1.86949,-0.93475 z"
       inkscape:connector-curvature="0" />
    <path
       style="fill:#000000;fill-opacity:1;fill-rule:nonzero;stroke:none"
       id="path21949"
       d="m 474.06425,449.99973 c -0.13104,-0.9684 -0.39856,-1.85272 -0.792,-2.73863 -0.59911,-1.35109 1.31161,-2.19836 1.91073,-0.84728 l 0,0 c 0.43964,0.99282 0.75918,1.99877 0.90901,3.07898 0.35846,1.43383 -1.66929,1.94076 -2.02774,0.50693 z"
       inkscape:connector-curvature="0" />
    <path
       style="fill:#000000;fill-opacity:1;fill-rule:nonzero;stroke:none"
       id="path21951"
       d="m 467.902,451.2653 c -0.14001,-0.17062 -0.28002,-0.34124 -0.42002,-0.51186 -0.92713,-1.15101 0.70064,-2.46216 1.62776,-1.31116 l 0,0 c 0.0901,0.11502 0.18015,0.23004 0.27022,0.34506 1.04508,1.04508 -0.43288,2.52304 -1.47796,1.47796 z"
       inkscape:connector-curvature="0" />
    <path
       style="fill:#000000;fill-opacity:1;fill-rule:nonzero;stroke:none"
       id="path21957"
       d="m 499.08368,450.66645 c -0.41073,1.24755 -1.13759,2.32175 -1.88003,3.38786 -0.25888,0.31387 -0.41951,0.67922 -0.58284,1.04635 -0.60948,1.34643 -2.51363,0.48449 -1.90415,-0.86195 l 0,0 c 0.22003,-0.48013 0.44448,-0.96057 0.7723,-1.37963 0.59897,-0.85856 1.19937,-1.70894 1.56697,-2.69957 0.35846,-1.43383 2.3862,-0.9269 2.02775,0.50694 z"
       inkscape:connector-curvature="0" />
    <path
       style="fill:#000000;fill-opacity:1;fill-rule:nonzero;stroke:none"
       id="path21959"
       d="m 502.4048,456.45409 c -0.63732,1.17243 -1.51819,2.11194 -2.47492,3.01992 -0.30999,0.30249 -0.61335,0.61199 -0.90265,0.93438 -0.98801,1.09918 -2.54249,-0.29808 -1.55448,-1.39726 l 0,0 c 0.32745,-0.36379 0.66927,-0.71441 1.02049,-1.05529 0.7819,-0.73804 1.51626,-1.47928 2.04207,-2.43649 0.66096,-1.32193 2.53045,-0.38719 1.86949,0.93474 z"
       inkscape:connector-curvature="0" />
    <path
       style="fill:#000000;fill-opacity:1;fill-rule:nonzero;stroke:none"
       id="path21961"
       d="m 504.55762,463.72196 c -0.93771,0.46484 -1.91661,0.86788 -2.92699,1.14522 -1.42831,0.37985 -1.9655,-1.64009 -0.53719,-2.01995 l 0,0 c 0.87717,-0.22126 1.71612,-0.60704 2.52943,-0.99476 1.32193,-0.66096 2.25667,1.20853 0.93475,1.86949 z"
       inkscape:connector-curvature="0" />
    <path
       style="fill:#000000;fill-opacity:1;fill-rule:nonzero;stroke:none"
       id="path21965"
       d="m 477.01527,430.92892 c -0.43691,1.6928 -0.74038,3.4173 -1.03818,5.13913 -0.11174,0.44755 -0.13012,0.89091 -0.1356,1.34726 -0.003,0.20037 10e-4,0.4007 0.005,0.601 -4.67727,0.0271 -4.1746,0.76795 -4.17474,-1.97214 -3.4e-4,-1.32032 -7.4e-4,-2.64064 -10e-4,-3.96096 -0.1469,-1.20861 0.48373,-2.27263 1.10729,-3.14746 0.13476,-0.30912 0.24697,-0.62728 0.33389,-0.9529 -0.46066,1.64402 4.15524,-0.79681 4.12983,1.02909 -0.004,1.10936 -8.6e-4,2.21875 4.4e-4,3.32811 -0.0463,0.50525 0.29258,0.87191 0.64421,1.37335 0.27702,0.32065 0.0152,0.0488 -0.13132,-0.0693 -1.09674,0.43683 -2.1504,1.0031 -3.29021,1.31048 -0.22594,0.0609 0.83029,-3.41378 0.92329,-3.73057 0.20465,-0.90559 0.35508,-1.8233 0.45768,-2.74591 0.071,-0.85145 0.44773,0.009 4.18085,0.2885 -0.0124,1.29419 -0.004,2.5885 -9.5e-4,3.88272 0.002,0.82992 0.004,1.65984 0.005,2.48976 0.002,1.60278 0.0809,0.22795 -4.18,-0.13945 -0.0166,-1.23328 0.8061,-2.20666 1.08256,-3.36775 0.1451,-0.62667 0.24729,-1.26201 0.31957,-1.90079 1.13945,-1.75941 1.64001,-2.0963 3.14136,-2.0963 1.39264,0.014 0.9697,0.39309 2.42982,2.14511 0.0218,1.15715 0.005,2.31506 9.8e-4,3.47244 -0.004,0.99588 -0.006,1.99177 -0.007,2.98766 -2.6e-4,0.16772 -3.3e-4,0.33543 -3.7e-4,0.50315 0.004,2.95592 -4.17607,2.9619 -4.1803,0.006 l 0,0 c 3e-5,-0.17151 9e-5,-0.34301 3.7e-4,-0.51451 10e-4,-0.99924 0.003,-1.99848 0.007,-2.99771 0.004,-1.05343 0.0103,-2.10686 0.01,-3.1603 0.57506,0.57923 2.5309,1.86387 1.72439,1.73846 -1.85545,0.009 1.38132,-2.84858 1.03211,-1.65179 -0.0912,0.86254 -0.24207,1.71851 -0.44278,2.56227 -0.0392,0.13652 -0.91004,2.35949 -0.92349,2.34004 -0.0711,-0.10274 0.0112,-0.25209 -0.0135,-0.37457 -0.0203,-0.10057 2e-5,0.2052 3e-5,0.3078 -4.26202,0.36956 -4.17745,1.74667 -4.18059,0.14802 -0.002,-0.82931 -0.003,-1.65862 -0.005,-2.48792 -0.003,-1.34429 -0.013,-2.68872 0.003,-4.03294 3.9826,-0.39209 4.34455,-1.68674 4.1513,0.31848 -0.13156,1.16336 -0.32074,2.32157 -0.60137,3.45882 -0.19841,0.6738 -0.64153,1.49904 -0.75057,2.16139 -0.0273,0.16566 0.12977,0.40284 -0.004,0.50366 -1.02831,0.77225 -2.2057,1.32291 -3.30855,1.98437 -0.34949,-0.27625 -0.64512,-0.60034 -0.89387,-0.97165 -0.75456,-1.10999 -1.43312,-2.34933 -1.37932,-3.73609 -10e-4,-1.13085 -0.005,-2.26172 -10e-6,-3.39257 0.0265,-1.81837 4.88712,-1.75843 4.09744,0.0763 -0.17774,0.67508 -0.42114,1.33267 -0.73732,1.95569 -0.15039,0.23855 -0.29306,0.48214 -0.45118,0.71564 -0.0725,0.10699 -0.11437,-0.23953 -0.11991,-0.36863 -6e-5,-0.001 1.3e-4,0.71147 1.4e-4,0.75084 3.4e-4,1.3206 7.5e-4,2.64121 10e-4,3.96181 1.4e-4,2.74111 0.25634,2.15721 -4.18342,2.11537 -0.006,-0.26617 -0.0109,-0.53239 -0.007,-0.79866 0.009,-0.67442 0.0533,-1.34417 0.19644,-2.00528 0.31551,-1.82293 0.63977,-3.64796 1.1018,-5.44034 0.71692,-2.86766 4.77241,-1.85379 4.05549,1.01388 z"
       inkscape:connector-curvature="0" />
    <path
       style="fill:#000000;fill-opacity:1;fill-rule:nonzero;stroke:none"
       id="path21973"
       d="m 410.1142,523.16571 c 8.34566,1.72522 17.01701,1.55584 25.50324,1.66343 19.44661,-0.037 38.88943,-0.27557 58.33637,-0.24875 16.49437,0.24214 32.99146,0.60887 49.47278,1.33059 2.95309,0.12935 2.77016,4.30566 -0.18293,4.1763 l 0,0 c -16.4223,-0.71958 -32.86034,-1.08412 -49.29561,-1.32659 -19.46277,-0.0268 -38.92141,0.21295 -58.38385,0.24841 -8.89289,-0.11381 -17.99151,0.0696 -26.71775,-1.85996 -2.81672,-0.89643 -1.54897,-4.87987 1.26775,-3.98343 z"
       inkscape:connector-curvature="0" />
    <path
       style="fill:#000000;fill-opacity:1;fill-rule:nonzero;stroke:none"
       id="path21985"
       d="m 406.95329,521.06462 c 5.53493,0.0204 10.88635,-1.74283 16.16451,-3.22869 10.2361,-2.87602 19.83841,-7.4889 29.47447,-11.89625 1.57576,-0.76504 3.15151,-1.53008 4.72727,-2.29513 2.65922,-1.29073 4.4846,2.46998 1.82537,3.76071 l 0,0 c -1.60463,0.77865 -3.20926,1.55731 -4.81389,2.33596 -9.83223,4.49705 -19.6349,9.19047 -30.08114,12.11881 -5.57286,1.5668 -11.22663,3.39037 -17.0692,3.37871 -2.95154,0.16079 -3.17894,-4.01333 -0.22739,-4.17412 z"
       inkscape:connector-curvature="0" />
    <path
       inkscape:connector-curvature="0"
       d="m 542.82799,525.83518 c -5.5109,-0.51567 -10.66638,-2.78896 -15.77582,-4.77902 -9.90945,-3.85386 -19.01988,-9.37502 -28.1838,-14.69488 -1.49424,-0.91406 -2.9885,-1.8281 -4.48275,-2.74217 -2.52172,-1.54221 -4.70274,2.02403 -2.18102,3.56625 l 0,0 c 1.52168,0.93038 3.04335,1.86079 4.56502,2.79119 9.35049,5.42815 18.65253,11.04888 28.76605,14.97515 5.39493,2.09916 10.8455,4.46171 16.66174,5.01595 2.92209,0.4459 3.55269,-3.68658 0.63058,-4.13247 z"
       id="path21991"
       style="fill:#000000;fill-opacity:1;fill-rule:nonzero;stroke:none" />
    <path
       style="fill:#000000;fill-opacity:1;fill-rule:nonzero;stroke:none"
       id="path21997"
       d="m 534.21142,410.52167 c 9.61926,-0.39566 19.2464,-0.46313 28.87303,-0.60926 17.93486,-0.40231 35.8474,0.30627 53.73959,1.46715 2.51075,0.2209 5.0215,0.4418 7.53226,0.6627 2.94453,0.25928 2.57785,4.42347 -0.36668,4.16419 l 0,0 c -2.47877,-0.21845 -4.95754,-0.43691 -7.4363,-0.65536 -17.78097,-1.15422 -35.58202,-1.85965 -53.40545,-1.45886 -9.63862,0.14617 -19.27758,0.21482 -28.9089,0.60965 -2.95586,0.0195 -2.9834,-4.16073 -0.0275,-4.18021 z"
       inkscape:connector-curvature="0" />
    <path
       style="fill:#000000;fill-opacity:1;fill-rule:nonzero;stroke:none"
       id="path22007"
       d="m 533.97089,411.44437 c 0.25747,2.89475 0.69851,5.77784 0.78358,8.68586 -0.16178,2.40171 -0.47988,4.73389 -0.44475,7.1426 0.0104,0.88373 0.02,1.76751 0.0208,2.65131 0.39027,1.21322 -4.70933,-2.43756 -0.36289,-1.71366 6.27997,0.71753 12.68381,0.33126 18.99509,0.15411 12.62074,-0.26788 25.24358,-0.30793 37.86657,-0.38801 10.20165,-0.12487 20.4122,-0.14661 30.60781,0.27458 1.6177,0.0848 2.28168,0.12995 3.76016,0.17798 2.08662,0.0678 0.44731,1.01092 -0.34675,3.70187 -0.33328,-0.0575 0.0265,-0.0114 0.1418,-0.0102 0.84765,0.21451 -1.4503,-0.23901 -1.70824,-0.31805 -0.17778,-0.0527 -0.35162,-0.11674 -0.5251,-0.18172 -1.25465,-2.54283 -1.40812,-2.72478 -1.24838,-5.39923 0.22065,-2.56951 0.25819,-5.14282 0.54733,-7.71164 0.11192,-0.93964 0.24547,-1.87649 0.39633,-2.81063 0.47206,-2.91798 4.59872,-2.25038 4.12665,0.6676 l 0,0 c -0.14073,0.86815 -0.26438,1.73897 -0.36909,2.61224 -0.28355,2.50091 -0.31531,5.00726 -0.52947,7.50989 -0.10989,1.56982 0.71727,6.05096 -1.36399,1.2532 0.0652,0.0215 0.13054,0.0436 0.19601,0.0647 0.93695,0.28233 -0.43131,0.0833 0.28295,0.13748 0.55001,-0.004 1.08422,0.10417 1.59881,0.30193 1.66287,0.6949 1.11581,0.28995 0.21281,4.30467 -0.0362,0.16152 -5.16891,-0.088 -5.34448,-0.12366 -10.12919,-0.41954 -20.27338,-0.39433 -30.40856,-0.2711 -12.59287,0.0797 -25.1856,0.11963 -37.77623,0.38647 -6.63378,0.18471 -13.37149,0.60487 -19.96569,-0.24058 -1.1707,-0.42449 -3.02829,-1.37321 -2.96363,-2.37514 -6.8e-4,-0.86465 -0.0103,-1.72927 -0.0203,-2.59386 -0.0347,-2.39136 0.21561,-4.71763 0.44579,-7.09293 -0.0618,-2.68198 -0.51403,-5.33629 -0.71028,-8.00914 -0.55666,-2.90305 3.54886,-3.69027 4.10551,-0.78724 z"
       inkscape:connector-curvature="0" />
    <path
       inkscape:connector-curvature="0"
       d="m 336.16459,409.53636 c 9.61926,-0.39566 19.2464,-0.46313 28.87303,-0.60926 17.93486,-0.40231 35.8474,0.30627 53.73959,1.46715 2.51075,0.2209 5.0215,0.4418 7.53226,0.6627 2.94453,0.25928 2.57785,4.42347 -0.36668,4.16419 l 0,0 c -2.47877,-0.21845 -4.95754,-0.43691 -7.4363,-0.65536 -17.78097,-1.15422 -35.58202,-1.85965 -53.40545,-1.45886 -9.63862,0.14617 -19.27758,0.21482 -28.9089,0.60965 -2.95586,0.0195 -2.9834,-4.16073 -0.0275,-4.18021 z"
       id="path22009"
       style="fill:#000000;fill-opacity:1;fill-rule:nonzero;stroke:none" />
    <path
       inkscape:connector-curvature="0"
       d="m 335.92406,410.45906 c 0.25747,2.89475 0.69851,5.77784 0.78358,8.68586 -0.16178,2.40171 -0.47988,4.73389 -0.44475,7.1426 0.0104,0.88373 0.02,1.76751 0.0208,2.65131 0.39027,1.21322 -4.70933,-2.43756 -0.36289,-1.71366 6.27997,0.71753 12.68381,0.33126 18.99509,0.15411 12.62074,-0.26788 25.24358,-0.30793 37.86657,-0.38801 10.20165,-0.12487 20.4122,-0.14661 30.60781,0.27458 1.6177,0.0848 2.28168,0.12995 3.76016,0.17798 2.08662,0.0678 0.44731,1.01092 -0.34675,3.70187 -0.33328,-0.0575 0.0265,-0.0114 0.1418,-0.0102 0.84765,0.21451 -1.4503,-0.23901 -1.70824,-0.31805 -0.17778,-0.0527 -0.35162,-0.11674 -0.5251,-0.18172 -1.25465,-2.54283 -1.40812,-2.72478 -1.24838,-5.39923 0.22065,-2.56951 0.25819,-5.14282 0.54733,-7.71164 0.11192,-0.93964 0.24547,-1.87649 0.39633,-2.81063 0.47206,-2.91798 4.59872,-2.25038 4.12665,0.6676 l 0,0 c -0.14073,0.86815 -0.26438,1.73897 -0.36909,2.61224 -0.28355,2.50091 -0.31531,5.00726 -0.52947,7.50989 -0.10989,1.56982 0.71727,6.05096 -1.36399,1.2532 0.0652,0.0215 0.13054,0.0436 0.19601,0.0647 0.93695,0.28233 -0.43131,0.0833 0.28295,0.13748 0.55001,-0.004 1.08422,0.10417 1.59881,0.30193 1.66287,0.6949 1.11581,0.28995 0.21281,4.30467 -0.0362,0.16152 -5.16891,-0.088 -5.34448,-0.12366 -10.12919,-0.41954 -20.27338,-0.39433 -30.40856,-0.2711 -12.59287,0.0797 -25.1856,0.11963 -37.77623,0.38647 -6.63378,0.18471 -13.37149,0.60487 -19.96569,-0.24058 -1.1707,-0.42449 -3.02829,-1.37321 -2.96363,-2.37514 -6.8e-4,-0.86465 -0.0103,-1.72927 -0.0203,-2.59386 -0.0347,-2.39136 0.21561,-4.71763 0.44579,-7.09293 -0.0618,-2.68198 -0.51403,-5.33629 -0.71028,-8.00914 -0.55666,-2.90305 3.54886,-3.69027 4.10551,-0.78724 z"
       id="path22011"
       style="fill:#000000;fill-opacity:1;fill-rule:nonzero;stroke:none" />
    <path
       style="fill:#a0a0a0;stroke:none"
       d="m 336.49381,420.52466 0.0836,-6.86415 18.97806,-0.37101 c 10.43793,-0.20406 24.9638,-0.22225 32.2797,-0.0404 13.021,0.3236 35.64479,1.54166 36.04372,1.94059 0.11075,0.11075 0.0521,2.83534 -0.13024,6.05464 l -0.3316,5.85328 -43.50346,0.14562 -43.50346,0.14562 0.0836,-6.86415 z"
       id="path22013"
       inkscape:connector-curvature="0" />
    <path
       style="fill:#a0a0a0;stroke:none"
       d="m 534.54064,421.50997 0.0836,-6.86415 18.97805,-0.37101 c 10.43793,-0.20406 24.9638,-0.22225 32.27971,-0.0404 13.021,0.3236 35.64479,1.54166 36.04372,1.94058 0.11074,0.11076 0.0521,2.83535 -0.13024,6.05465 l -0.3316,5.85328 -43.50347,0.14562 -43.50346,0.14562 0.0837,-6.86415 z"
       id="path22015"
       inkscape:connector-curvature="0" />
    <path
       style="color:#000000;fill:#000000;fill-opacity:1;fill-rule:nonzero;stroke:none;stroke-width:1px;marker:none;visibility:visible;display:inline;overflow:visible;enable-background:accumulate"
       id="path3014"
       d="m 346.90127,431.52429 c -0.74542,3.78106 -2.97009,6.96193 -4.95477,10.18295 -1.65321,2.41436 -3.15389,4.93089 -4.58568,7.48138 -1.02394,1.82217 -3.60087,0.37411 -2.57694,-1.44806 l 0,0 c 1.4533,-2.58384 2.96968,-5.13731 4.64608,-7.58396 1.78348,-2.89437 3.8298,-5.73651 4.5556,-9.11826 0.34362,-2.06171 3.25933,-1.57576 2.91571,0.48595 z"
       inkscape:connector-curvature="0" />
    <path
       style="color:#000000;fill:#000000;fill-opacity:1;fill-rule:nonzero;stroke:none;stroke-width:1px;marker:none;visibility:visible;display:inline;overflow:visible;enable-background:accumulate"
       id="path3016"
       d="m 360.32393,432.92759 c -1.63192,3.03488 -3.56182,5.88511 -5.66006,8.61317 -1.86917,2.34626 -3.48954,4.87416 -4.9646,7.48219 -1.03073,1.81834 -3.60224,0.36067 -2.57152,-1.45766 l 0,0 c 1.54815,-2.72556 3.23768,-5.37341 5.19394,-7.82777 1.98536,-2.57604 3.80812,-5.26853 5.35838,-8.13186 0.93475,-1.86949 3.57861,-0.54756 2.64386,1.32193 z"
       inkscape:connector-curvature="0" />
    <path
       inkscape:connector-curvature="0"
       d="m 372.51926,431.52429 c -0.74542,3.78106 -2.97008,6.96193 -4.95477,10.18295 -1.65321,2.41436 -3.15389,4.93089 -4.58568,7.48138 -1.02393,1.82217 -3.60087,0.37411 -2.57694,-1.44806 l 0,0 c 1.4533,-2.58384 2.96969,-5.13731 4.64608,-7.58396 1.78348,-2.89437 3.8298,-5.73651 4.55561,-9.11826 0.34362,-2.06171 3.25932,-1.57576 2.9157,0.48595 z"
       id="path3020"
       style="color:#000000;fill:#000000;fill-opacity:1;fill-rule:nonzero;stroke:none;stroke-width:1px;marker:none;visibility:visible;display:inline;overflow:visible;enable-background:accumulate" />
    <path
       inkscape:connector-curvature="0"
       d="m 385.94192,432.92759 c -1.63192,3.03488 -3.56181,5.88511 -5.66005,8.61317 -1.86918,2.34626 -3.48954,4.87416 -4.96461,7.48219 -1.03072,1.81834 -3.60224,0.36067 -2.57152,-1.45766 l 0,0 c 1.54815,-2.72556 3.23768,-5.37341 5.19394,-7.82777 1.98536,-2.57604 3.80813,-5.26853 5.35839,-8.13186 0.93474,-1.86949 3.5786,-0.54756 2.64385,1.32193 z"
       id="path3022"
       style="color:#000000;fill:#000000;fill-opacity:1;fill-rule:nonzero;stroke:none;stroke-width:1px;marker:none;visibility:visible;display:inline;overflow:visible;enable-background:accumulate" />
    <path
       inkscape:connector-curvature="0"
       d="m 397.15195,431.52429 c -0.74542,3.78106 -2.97008,6.96193 -4.95476,10.18295 -1.65321,2.41436 -3.1539,4.93089 -4.58569,7.48138 -1.02393,1.82217 -3.60087,0.37411 -2.57693,-1.44806 l 0,0 c 1.4533,-2.58384 2.96968,-5.13731 4.64607,-7.58396 1.78349,-2.89437 3.8298,-5.73651 4.55561,-9.11826 0.34362,-2.06171 3.25932,-1.57576 2.9157,0.48595 z"
       id="path3024"
       style="color:#000000;fill:#000000;fill-opacity:1;fill-rule:nonzero;stroke:none;stroke-width:1px;marker:none;visibility:visible;display:inline;overflow:visible;enable-background:accumulate" />
    <path
       inkscape:connector-curvature="0"
       d="m 410.57462,432.92759 c -1.63193,3.03488 -3.56182,5.88511 -5.66006,8.61317 -1.86918,2.34626 -3.48954,4.87416 -4.96461,7.48219 -1.03072,1.81834 -3.60224,0.36067 -2.57152,-1.45766 l 0,0 c 1.54816,-2.72556 3.23769,-5.37341 5.19395,-7.82777 1.98536,-2.57604 3.80812,-5.26853 5.35838,-8.13186 0.93474,-1.86949 3.5786,-0.54756 2.64386,1.32193 z"
       id="path3026"
       style="color:#000000;fill:#000000;fill-opacity:1;fill-rule:nonzero;stroke:none;stroke-width:1px;marker:none;visibility:visible;display:inline;overflow:visible;enable-background:accumulate" />
    <path
       style="color:#000000;fill:#000000;fill-opacity:1;fill-rule:nonzero;stroke:none;stroke-width:1px;marker:none;visibility:visible;display:inline;overflow:visible;enable-background:accumulate"
       id="path3028"
       d="m 422.76995,431.52429 c -0.74542,3.78106 -2.97008,6.96193 -4.95477,10.18295 -1.65321,2.41436 -3.15389,4.93089 -4.58568,7.48138 -1.02393,1.82217 -3.60087,0.37411 -2.57694,-1.44806 l 0,0 c 1.4533,-2.58384 2.96969,-5.13731 4.64608,-7.58396 1.78348,-2.89437 3.8298,-5.73651 4.55561,-9.11826 0.34362,-2.06171 3.25932,-1.57576 2.9157,0.48595 z"
       inkscape:connector-curvature="0" />
    <path
       inkscape:connector-curvature="0"
       d="m 544.94809,430.53898 c -0.74541,3.78106 -2.97008,6.96193 -4.95476,10.18295 -1.65321,2.41436 -3.15389,4.93089 -4.58569,7.48138 -1.02393,1.82217 -3.60087,0.37411 -2.57693,-1.44806 l 0,0 c 1.4533,-2.58384 2.96968,-5.13731 4.64607,-7.58396 1.78349,-2.89437 3.8298,-5.73651 4.55561,-9.11826 0.34362,-2.06171 3.25932,-1.57576 2.9157,0.48595 z"
       id="path3032"
       style="color:#000000;fill:#000000;fill-opacity:1;fill-rule:nonzero;stroke:none;stroke-width:1px;marker:none;visibility:visible;display:inline;overflow:visible;enable-background:accumulate" />
    <path
       inkscape:connector-curvature="0"
       d="m 558.37076,431.94228 c -1.63192,3.03488 -3.56182,5.88511 -5.66006,8.61317 -1.86918,2.34626 -3.48954,4.87416 -4.96461,7.48219 -1.03072,1.81834 -3.60224,0.36067 -2.57151,-1.45766 l 0,0 c 1.54815,-2.72556 3.23768,-5.37341 5.19394,-7.82777 1.98536,-2.57604 3.80812,-5.26853 5.35838,-8.13186 0.93474,-1.86949 3.5786,-0.54756 2.64386,1.32193 z"
       id="path3034"
       style="color:#000000;fill:#000000;fill-opacity:1;fill-rule:nonzero;stroke:none;stroke-width:1px;marker:none;visibility:visible;display:inline;overflow:visible;enable-background:accumulate" />
    <path
       style="color:#000000;fill:#000000;fill-opacity:1;fill-rule:nonzero;stroke:none;stroke-width:1px;marker:none;visibility:visible;display:inline;overflow:visible;enable-background:accumulate"
       id="path3036"
       d="m 570.56609,430.53898 c -0.74542,3.78106 -2.97008,6.96193 -4.95477,10.18295 -1.65321,2.41436 -3.15389,4.93089 -4.58568,7.48138 -1.02393,1.82217 -3.60087,0.37411 -2.57694,-1.44806 l 0,0 c 1.4533,-2.58384 2.96969,-5.13731 4.64608,-7.58396 1.78348,-2.89437 3.8298,-5.73651 4.55561,-9.11826 0.34362,-2.06171 3.25932,-1.57576 2.9157,0.48595 z"
       inkscape:connector-curvature="0" />
    <path
       style="color:#000000;fill:#000000;fill-opacity:1;fill-rule:nonzero;stroke:none;stroke-width:1px;marker:none;visibility:visible;display:inline;overflow:visible;enable-background:accumulate"
       id="path3038"
       d="m 583.98875,431.94228 c -1.63192,3.03488 -3.56181,5.88511 -5.66005,8.61317 -1.86918,2.34626 -3.48954,4.87416 -4.96461,7.48219 -1.03072,1.81834 -3.60224,0.36067 -2.57152,-1.45766 l 0,0 c 1.54815,-2.72556 3.23768,-5.37341 5.19394,-7.82777 1.98536,-2.57604 3.80813,-5.26853 5.35839,-8.13186 0.93474,-1.86949 3.5786,-0.54756 2.64385,1.32193 z"
       inkscape:connector-curvature="0" />
    <path
       style="color:#000000;fill:#000000;fill-opacity:1;fill-rule:nonzero;stroke:none;stroke-width:1px;marker:none;visibility:visible;display:inline;overflow:visible;enable-background:accumulate"
       id="path3040"
       d="m 595.19878,430.53898 c -0.74542,3.78106 -2.97008,6.96193 -4.95476,10.18295 -1.65321,2.41436 -3.1539,4.93089 -4.58569,7.48138 -1.02393,1.82217 -3.60087,0.37411 -2.57693,-1.44806 l 0,0 c 1.4533,-2.58384 2.96968,-5.13731 4.64607,-7.58396 1.78349,-2.89437 3.8298,-5.73651 4.55561,-9.11826 0.34362,-2.06171 3.25932,-1.57576 2.9157,0.48595 z"
       inkscape:connector-curvature="0" />
    <path
       style="color:#000000;fill:#000000;fill-opacity:1;fill-rule:nonzero;stroke:none;stroke-width:1px;marker:none;visibility:visible;display:inline;overflow:visible;enable-background:accumulate"
       id="path3042"
       d="m 608.62145,431.94228 c -1.63193,3.03488 -3.56182,5.88511 -5.66006,8.61317 -1.86918,2.34626 -3.48954,4.87416 -4.96461,7.48219 -1.03072,1.81834 -3.60224,0.36067 -2.57152,-1.45766 l 0,0 c 1.54816,-2.72556 3.23769,-5.37341 5.19395,-7.82777 1.98536,-2.57604 3.80812,-5.26853 5.35838,-8.13186 0.93474,-1.86949 3.5786,-0.54756 2.64386,1.32193 z"
       inkscape:connector-curvature="0" />
    <path
       inkscape:connector-curvature="0"
       d="m 620.81678,430.53898 c -0.74542,3.78106 -2.97008,6.96193 -4.95477,10.18295 -1.65321,2.41436 -3.15389,4.93089 -4.58568,7.48138 -1.02393,1.82217 -3.60087,0.37411 -2.57694,-1.44806 l 0,0 c 1.4533,-2.58384 2.96969,-5.13731 4.64608,-7.58396 1.78348,-2.89437 3.8298,-5.73651 4.55561,-9.11826 0.34362,-2.06171 3.25932,-1.57576 2.9157,0.48595 z"
       id="path3044"
       style="color:#000000;fill:#000000;fill-opacity:1;fill-rule:nonzero;stroke:none;stroke-width:1px;marker:none;visibility:visible;display:inline;overflow:visible;enable-background:accumulate" />
    <path
       style="color:#000000;fill:#000000;fill-opacity:1;fill-rule:nonzero;stroke:none;stroke-width:1px;marker:none;visibility:visible;display:inline;overflow:visible;enable-background:accumulate"
       id="path3046"
       d="m 192.72538,251.65153 c 0.51502,3.52668 0.65638,7.09315 0.77588,10.6508 -0.0271,2.73491 0.11386,5.44875 0.68015,8.12715 0.0644,0.29045 0.14054,0.57787 0.23652,0.85936 0.65635,1.98442 -2.15006,2.91263 -2.8064,0.92821 l 0,0 c -0.12621,-0.38802 -0.23847,-0.78011 -0.32288,-1.17976 -0.59475,-2.84613 -0.77513,-5.73001 -0.74165,-8.63592 -0.11472,-3.42811 -0.24792,-6.86474 -0.73732,-10.26388 -0.34362,-2.06172 2.57209,-2.54767 2.9157,-0.48596 z"
       inkscape:connector-curvature="0"
       transform="translate(331.76697,222.74034)" />
    <path
       style="color:#000000;fill:#000000;fill-opacity:1;fill-rule:nonzero;stroke:none;stroke-width:1px;marker:none;visibility:visible;display:inline;overflow:visible;enable-background:accumulate"
       id="path3048"
       d="m 192.09981,248.86205 c 2.27778,0.36346 4.60784,0.13961 6.90071,0.0243 0.64921,-0.005 1.404,-0.0416 1.90805,-0.50983 -0.0141,0.01 -0.0282,0.0198 -0.0422,0.0297 1.40276,-1.54951 3.5941,0.43429 2.19134,1.98381 l 0,0 c -0.0733,0.0753 -0.14661,0.15067 -0.21991,0.22601 -1.04645,0.85442 -2.34058,1.22942 -3.68884,1.22247 -2.50507,0.12592 -5.04717,0.35129 -7.53508,-0.0608 -2.06172,-0.34362 -1.57577,-3.25933 0.48595,-2.91571 z"
       inkscape:connector-curvature="0"
       transform="translate(331.76697,222.74034)" />
    <path
       style="color:#000000;fill:#000000;fill-opacity:1;fill-rule:nonzero;stroke:none;stroke-width:1px;marker:none;visibility:visible;display:inline;overflow:visible;enable-background:accumulate"
       id="path3060"
       d="m 192.09981,258.71513 c 2.37209,0.51236 4.73653,0.48982 7.13654,0.29508 0.94844,-0.15024 1.87067,-0.42087 2.79746,-0.66501 2.02122,-0.53234 2.77406,2.32611 0.75283,2.85845 l 0,0 c -1.09521,0.28838 -2.18611,0.60477 -3.31242,0.75289 -2.63974,0.2121 -5.25197,0.22244 -7.86036,-0.32571 -2.06172,-0.34362 -1.57577,-3.25932 0.48595,-2.9157 z"
       inkscape:connector-curvature="0"
       transform="translate(331.76697,222.74034)" />
    <path
       style="color:#000000;fill:#000000;fill-opacity:1;fill-rule:nonzero;stroke:none;stroke-width:1px;marker:none;visibility:visible;display:inline;overflow:visible;enable-background:accumulate"
       id="path3070"
       d="m 213.01566,254.94749 c 2.18423,0.71139 4.41893,1.24261 6.71519,0.88662 0.90216,-0.16792 1.78054,-0.43255 2.64471,-0.73665 1.97287,-0.69029 2.9491,2.09977 0.97623,2.79007 l 0,0 c -1.05322,0.36679 -2.12355,0.68597 -3.22487,0.87584 -2.75653,0.33666 -5.42596,-0.10317 -8.046,-1.01164 -1.98289,-0.66097 -1.04815,-3.4652 0.93474,-2.80424 z"
       inkscape:connector-curvature="0"
       transform="translate(331.76697,222.74034)" />
    <path
       style="color:#000000;fill:#000000;fill-opacity:1;fill-rule:nonzero;stroke:none;stroke-width:1px;marker:none;visibility:visible;display:inline;overflow:visible;enable-background:accumulate"
       id="path3072"
       d="m 214.51891,261.53308 c 2.1567,-0.0983 4.3458,0.18096 6.48913,-0.10717 0.51621,-0.0822 1.01378,-0.23364 1.50517,-0.40624 1.97687,-0.67875 2.93678,2.11697 0.9599,2.79572 l 0,0 c -0.68978,0.23317 -1.38634,0.44201 -2.11021,0.54507 -2.27087,0.25338 -4.56215,0.0783 -6.84399,0.12854 -2.09016,0 -2.09016,-2.95592 0,-2.95592 z"
       inkscape:connector-curvature="0"
       transform="translate(331.76697,222.74034)" />
    <path
       style="color:#000000;fill:#000000;fill-opacity:1;fill-rule:nonzero;stroke:none;stroke-width:1px;marker:none;visibility:visible;display:inline;overflow:visible;enable-background:accumulate"
       id="path3074"
       d="m 233.123,252.63684 c 0.41429,2.53542 0.63087,5.09591 0.7744,7.65905 0.0549,1.16721 0.10493,2.33504 0.11958,3.50356 1.8e-4,0.0443 0.0447,0.13655 5.4e-4,0.13291 -3.83925,-0.316 -2.96022,-0.003 -2.96245,-2.86465 -0.1188,-1.71154 0.13038,-3.37257 0.47653,-5.0423 0.19324,-1.3484 0.39907,-2.59384 1.33631,-3.63311 0.7141,-0.69642 1.66894,-0.74264 2.6016,-0.74532 0.34269,0.002 0.68525,0.012 1.02749,0.0291 1.08848,0.0539 1.48138,0.9855 1.81501,1.81727 0.621,1.28797 1.03235,2.65462 1.36024,4.04181 0.26245,0.64791 0.0396,1.47467 0.38577,2.02497 0.39955,0.78874 0.63653,1.62258 0.77271,2.49219 0.0463,0.30865 0.0745,0.61927 0.084,0.93103 -3.86308,-0.44459 -2.96612,0.06 -2.96545,-3.07091 0.15832,-1.88774 0.86625,-3.68171 1.66757,-5.38164 0.59762,-1.35672 1.50544,-2.55031 2.7314,-3.37934 0.59232,-0.30022 1.23382,-0.46936 1.89613,-0.48762 0.78697,-0.033 1.40528,0.50982 1.92381,1.06655 0.89408,0.90019 1.27398,2.08401 1.49439,3.29961 0.1927,1.82095 0.15181,3.65881 0.15404,5.48761 0.13337,0.75787 0.17519,1.55666 0.4087,2.29506 0.0367,0.11604 0.22414,0.43198 0.17272,0.32167 -0.29649,-0.63609 -0.13051,-0.42751 -0.74253,-0.75549 0.027,-0.0794 0.054,-0.15875 0.081,-0.23812 1.65285,-1.27938 3.46217,1.05811 1.80931,2.33749 l 0,0 c -0.41319,0.26134 -0.82637,0.52269 -1.23956,0.78404 -0.52177,-0.007 -1.07447,0.15721 -1.5653,-0.0199 -1.76367,-0.63641 -1.63275,-3.27521 -1.88026,-4.72117 -0.002,-1.6643 0.0287,-3.33456 -0.11196,-4.99418 -0.0998,-0.65774 -0.25692,-1.3112 -0.75013,-1.78901 -0.29466,-0.32137 -0.42958,-0.43288 0.39462,-0.10457 0.0883,0.0352 -0.18935,-0.0158 -0.28403,-0.0238 0.43319,0.0422 -0.0993,-0.006 0.16355,0.01 -0.0511,0.005 -0.31733,0.0311 -0.4255,0.0795 -0.64171,0.46819 -1.24275,1.31619 -1.56917,2.11829 -0.64295,1.28075 -1.15469,2.67792 -1.37288,4.09568 -6.6e-4,3.08904 0.90719,2.57451 -2.94631,3.09233 -0.007,-0.10392 -0.0247,-0.36541 -0.0497,-0.50358 -0.0855,-0.57008 -0.22779,-1.10571 -0.49642,-1.62254 -0.40324,-0.86602 -0.47506,-1.73927 -0.61771,-2.66646 -0.29855,-1.27281 -0.68642,-2.51819 -1.25719,-3.69885 -0.158,-0.59174 0.52993,0.13713 0.79633,0.11354 -0.28661,-0.0146 -0.57353,-0.0224 -0.86051,-0.0246 -0.25106,-1.1e-4 -0.93031,0.12754 -0.47854,-0.15819 -0.59341,0.39675 -0.26871,1.58474 -0.56943,2.18199 -0.30729,1.47552 -0.5369,2.92357 -0.41473,4.43871 0.001,1.64787 0.60534,4.6785 -2.9497,2.77061 -0.0137,-1.12577 -0.063,-2.25086 -0.11522,-3.37537 -0.13663,-2.45559 -0.34293,-4.9087 -0.73878,-7.33786 -0.34362,-2.06171 2.57209,-2.54766 2.91571,-0.48595 z"
       inkscape:connector-curvature="0"
       transform="translate(331.76697,222.74034)" />
    <path
       style="color:#000000;fill:#000000;fill-opacity:1;fill-rule:nonzero;stroke:none;stroke-width:1px;marker:none;visibility:visible;display:inline;overflow:visible;enable-background:accumulate"
       id="path3076"
       d="m 256.16302,251.57017 c -0.87291,1.72101 -1.76982,3.43573 -1.83485,5.38922 0.21398,0.78669 0.54671,1.88803 1.29798,2.33447 0.35165,0.26254 0.6567,0.2779 1.07084,0.29175 0.82146,0.088 1.11643,-0.65946 1.38995,-1.31667 0.42346,-1.05486 0.50199,-2.20172 0.56558,-3.3253 0.0101,-0.0958 0.0296,-1.72496 -0.005,-0.96495 -0.35102,-0.6036 -0.57751,-1.27823 -0.80063,-1.9387 -0.0647,-0.18667 -0.12001,-0.37593 -0.16577,-0.56795 1.8148,1.46004 1.50955,1.16525 0.59594,1.18809 -0.10993,0.005 -0.25708,0.005 -0.41492,0.005 -0.21184,2.1e-4 -0.42367,2.3e-4 -0.63551,1.9e-4 -1.34694,-1.03745 -1.571,-1.18319 -1.55171,-2.40876 -0.16214,-1.11053 2.38909,1.41087 0.77258,1.40973 -0.57414,0.003 -1.14826,0.008 -1.7224,0.011 -0.16247,9.5e-4 -0.32494,0.002 -0.4874,0.003 -2.09013,0.0102 -2.1045,-2.94573 -0.0144,-2.95589 l 0,0 c 0.16155,-8.3e-4 0.32311,-0.002 0.48466,-0.003 0.58152,-0.003 1.16304,-0.008 1.74455,-0.011 1.29678,0.003 0.85928,0.0581 2.17764,1.60875 0.005,0.84912 0.35623,0.82362 -1.40263,-0.60974 0.21021,5e-5 0.42041,3e-5 0.63061,-1.8e-4 0.11263,-1.5e-4 0.22355,0.004 0.33592,-0.004 1.10471,-0.027 1.13018,0.0116 2.38329,1.17573 0.0235,0.0715 0.0487,0.14245 0.0705,0.21449 0.20274,0.60268 0.4121,1.20909 0.734,1.76027 0.2137,0.76656 0.30578,1.46256 0.22169,2.25789 -0.0879,1.50182 -0.23636,3.02128 -0.84318,4.41624 -0.8525,1.70452 -2.12429,3.1578 -4.20785,3.00801 -1.06396,-0.0611 -2.01724,-0.32169 -2.86108,-1.00933 -1.33532,-1.25892 -2.18427,-2.85114 -2.3159,-4.70896 0.13455,-2.37199 1.02884,-4.48928 2.14362,-6.57147 0.93474,-1.86949 3.5786,-0.54756 2.64386,1.32193 z"
       inkscape:connector-curvature="0"
       transform="translate(331.76697,222.74034)" />
    <path
       style="color:#000000;fill:#000000;fill-opacity:1;fill-rule:nonzero;stroke:none;stroke-width:1px;marker:none;visibility:visible;display:inline;overflow:visible;enable-background:accumulate"
       id="path3078"
       d="m 260.71161,251.65153 c 0.51607,3.16149 0.54265,6.3707 0.88619,9.54869 0.42894,3.22233 0.71362,6.45878 0.88042,9.70452 0.012,2.29527 -0.49774,4.48343 -1.37224,6.58936 -0.679,1.85999 -1.83017,3.41538 -3.19958,4.81689 -2.7918,2.46643 -4.75045,0.84437 -6.74127,-1.58387 -0.31165,-0.52276 -0.62331,-1.04551 -0.93496,-1.56827 -1.05452,-1.80463 1.49762,-3.29596 2.55214,-1.49132 l 0,0 c 0.22944,0.40322 0.45888,0.80645 0.68831,1.20967 0.24722,0.31742 0.49444,0.63484 0.74166,0.95225 0.16828,0.18103 0.35038,0.35013 0.50484,0.54309 0.0918,0.11466 0.0494,0.41012 0.19548,0.39488 0.25141,-0.0262 0.70562,-0.39731 0.88359,-0.52633 1.11676,-1.13323 2.05317,-2.37512 2.58663,-3.89671 0.72704,-1.68475 1.1187,-3.4457 1.14336,-5.28828 -0.16324,-3.19148 -0.4458,-6.37341 -0.86756,-9.54179 -0.33007,-3.12171 -0.37257,-6.2705 -0.86272,-9.37682 -0.34361,-2.06172 2.57209,-2.54767 2.91571,-0.48596 z"
       inkscape:connector-curvature="0"
       transform="translate(331.76697,222.74034)" />
    <path
       style="color:#000000;fill:#000000;fill-opacity:1;fill-rule:nonzero;stroke:none;stroke-width:1px;marker:none;visibility:visible;display:inline;overflow:visible;enable-background:accumulate"
       id="path3080"
       d="m 349.03832,344.45749 c -1.92228,0.55599 -3.88901,1.11094 -5.52063,2.30649 -0.9477,0.6691 -1.25224,1.52376 -1.3781,2.61719 -0.0621,0.80832 -0.007,1.97641 0.91598,2.23171 1.37609,0.55286 2.56458,0.45907 3.69029,-0.4988 0.96765,-1.26404 1.46888,-2.8118 1.8808,-4.33122 0.24543,-0.80825 0.38212,-2.00015 0.32606,-2.63703 -0.26628,-0.39696 -0.47292,-0.90868 -0.67982,-1.369 -0.0543,-0.1187 -0.10547,-0.23873 -0.15518,-0.35938 3.54033,-0.38018 2.86785,-0.59972 2.86522,1.75489 0.19166,2.65072 0.76877,5.2935 1.25139,7.91046 0.95234,5.14159 1.3082,10.36478 1.55522,15.57991 0.0332,3.13804 -0.47804,6.9637 -3.59417,8.6078 -0.53977,0.28479 -1.16177,0.37429 -1.74266,0.56144 -4.60233,-0.008 -7.01473,-3.63034 -8.67571,-7.44782 -0.80378,-2.65871 -0.49952,-1.31944 -0.92254,-4.01559 -0.30915,-2.06716 2.61426,-2.50436 2.92341,-0.4372 l 0,0 c 0.30609,2.18108 0.0739,1.08229 0.71755,3.29189 1.02108,2.44791 2.39093,5.11279 5.20344,5.75054 2.92163,-0.38289 3.16717,-3.7941 3.13806,-6.17145 -0.23988,-5.08228 -0.5826,-10.17295 -1.50957,-15.18379 -0.51472,-2.79483 -1.13244,-5.61235 -1.30034,-8.44949 0.003,-2.40246 -0.59265,-1.84029 2.84774,-2.81751 0.0313,0.0713 0.0629,0.1425 0.0944,0.21372 0.27641,0.61529 0.57486,1.22011 0.84481,1.83829 0.24575,1.39979 0.0292,2.78741 -0.33577,4.15804 -0.58955,2.14536 -1.35013,4.30884 -2.95626,5.91537 -2.20733,1.56057 -4.52895,1.85701 -7.01355,0.65457 -1.968,-1.39959 -2.49077,-2.73583 -2.29984,-5.1328 0.26799,-1.90973 0.99357,-3.49468 2.60919,-4.65291 2.03642,-1.39307 4.3463,-2.21311 6.73468,-2.80402 2.06171,-0.34362 2.54766,2.57208 0.48595,2.9157 z"
       inkscape:connector-curvature="0" />
    <path
       style="color:#000000;fill:#000000;fill-opacity:1;fill-rule:nonzero;stroke:none;stroke-width:1px;marker:none;visibility:visible;display:inline;overflow:visible;enable-background:accumulate"
       id="path3084"
       d="m 338.62895,333.65933 c 2.16206,0.3625 4.34024,0.58846 6.52602,0.74004 1.18988,0.0736 2.3815,0.10623 3.57344,0.11387 0.53571,0.002 1.07141,-0.003 1.60711,-0.004 0.5435,-0.002 1.08699,-0.002 1.63049,-0.002 0.16378,-7e-5 0.32755,-9e-5 0.49132,-6e-5 0.19948,4e-5 0.39895,3e-5 0.59842,3e-5 0.12497,0 0.24993,0 0.37489,0 0.0996,0 0.19926,0 0.29888,0 -0.54443,0.0274 -0.89542,0.43044 -0.68336,0.006 -0.0525,0.0482 -0.0883,0.58973 -0.0897,0.60704 -0.13439,-1.1444 0.1128,0.0788 0.25413,0.34347 -0.70085,-0.56158 -1.30936,-1.18511 -1.90378,-1.90431 -0.46254,-0.68866 -1.19862,-1.13896 -1.84582,-1.64669 -0.69737,-0.49881 -1.20319,-1.20764 -1.64616,-1.93099 -0.23182,-0.39325 -0.43963,-0.79968 -0.62931,-1.21462 -0.17032,-0.34884 -0.14981,-0.75062 -0.14628,-1.13054 2.5e-4,-0.0466 5e-4,-0.0932 7.5e-4,-0.1398 0.0114,-2.09012 2.96723,-2.07406 2.95588,0.0161 l 0,0 c -2.8e-4,0.0507 -5.6e-4,0.10132 -8.4e-4,0.15198 -0.005,0.55933 -0.002,0.24044 -0.10538,-0.0915 0.13559,0.30009 0.28966,0.59146 0.45352,0.87707 0.46914,0.78781 0.38611,0.71376 0.94234,1.13669 0.8253,0.64748 1.73055,1.25252 2.33116,2.12788 0.0768,0.10385 2.10733,2.18347 0.82076,1.05946 0.7143,0.34126 1.52145,0.9268 1.43296,1.84935 0.007,0.4914 0.0412,0.80892 -0.18486,1.22033 -0.43701,0.85025 -0.94844,1.3993 -1.956,1.61926 -0.0996,0 -0.19921,-1e-5 -0.29882,0 -0.12499,0 -0.24999,0 -0.37498,0 -0.19986,0 -0.39972,10e-6 -0.59959,-4e-5 -0.16295,-2e-5 -0.3259,0 -0.48886,7e-5 -0.54059,2.3e-4 -1.08118,4e-4 -1.62178,0.002 -0.54541,0.002 -1.09082,0.006 -1.63625,0.004 -1.25389,-0.008 -2.50746,-0.0429 -3.75914,-0.12092 -2.27989,-0.15869 -4.55195,-0.39519 -6.80711,-0.77315 -2.06171,-0.34362 -1.57576,-3.25932 0.48595,-2.9157 z"
       inkscape:connector-curvature="0" />
    <path
       style="color:#000000;fill:#000000;fill-opacity:1;fill-rule:nonzero;stroke:none;stroke-width:1px;marker:none;visibility:visible;display:inline;overflow:visible;enable-background:accumulate"
       id="path3086"
       d="m 375.71091,339.40474 c 0.45691,2.72525 0.64993,5.48149 0.7752,8.23868 0.12299,3.79833 0.11433,7.59954 0.1189,11.39944 0.001,3.68278 -0.002,7.36557 -0.004,11.04835 -9.4e-4,1.62144 -0.002,3.24288 -0.002,4.86433 0.13964,1.1103 -1.04032,1.95522 -2.08055,1.97438 -0.29544,0.001 -0.58539,-0.04 -0.86707,-0.12671 -2.47607,-4.51514 0.20593,0.50033 -1.36314,-1.9669 -0.27991,-0.70992 -0.84073,-1.26199 -1.30662,-1.87804 -0.77393,-1.41578 -1.58391,-2.81234 -2.25021,-4.28276 -0.39179,-0.41301 -0.61628,-2.64954 -0.95585,-2.79332 -0.51035,-0.38885 -0.74475,-0.94276 -0.92171,-1.54058 -0.0736,-0.26129 -0.11377,-0.52841 -0.11563,-0.79942 1.00963,0.0322 2.02371,-0.003 3.02889,0.0966 0.0908,0.009 0.10931,0.14616 0.16154,0.22098 0.52779,0.75601 1.15126,1.43003 1.71776,2.15803 1.36039,1.60501 2.43818,3.40077 3.50125,5.20806 0.65266,1.03283 1.11012,2.14742 1.37604,3.33652 0.30398,1.35663 -0.2291,0.0885 0.22296,0.49157 0.51586,0.31306 -1.88149,0.77959 -2.1186,0.87394 0.33567,-1.23638 0.9842,-2.36015 1.51236,-3.52439 1.13826,-2.43544 2.03631,-4.97025 3.10895,-7.43415 0.34807,-0.82888 0.65701,-1.67298 0.96041,-2.51888 0.70619,-1.96724 3.48829,-0.96854 2.7821,0.9987 l 0,0 c -0.32587,0.90707 -0.6577,1.81219 -1.0325,2.70056 -1.07952,2.47713 -1.97885,5.02768 -3.12715,7.47511 -0.36669,0.80806 -0.78512,1.85541 -1.25619,2.51968 -1.98874,1.40019 -1.70073,2.06939 -2.85985,1.0576 -0.57003,-0.55252 -1.02627,-1.18078 -1.07975,-2.00633 -0.18949,-0.89103 -0.54637,-1.70416 -1.03824,-2.47403 -0.9961,-1.70246 -2.00701,-3.38963 -3.29078,-4.89658 -0.65271,-0.85217 -1.45182,-1.61505 -1.97852,-2.55872 -0.15083,-0.27024 -0.66267,-0.65618 -0.40903,-0.8335 0.79006,-0.55231 1.84894,-0.54626 2.77341,-0.8194 -0.002,-0.0551 -0.0187,-0.2651 0.004,-0.0807 0.0126,0.0495 0.0642,0.18141 0.0228,0.15153 -0.0761,-0.0549 -0.29154,-0.23681 -0.21815,-0.17823 0.3948,0.31509 0.23717,0.17918 0.62542,0.58489 0.72098,1.03327 0.82863,2.22708 1.30123,3.37427 0.56821,1.28218 1.30711,2.47512 1.92699,3.73127 0.48646,0.67675 1.09616,1.29918 1.42735,2.0536 0.48751,0.76679 1.69962,3.33769 -0.15983,0.76125 -0.0266,-0.008 -0.31181,-0.0703 -0.12293,-0.0374 0.77106,0.0223 -1.11577,2.29517 -0.85675,0.98066 4.5e-4,-1.62174 0.001,-3.24348 0.002,-4.86522 0.002,-3.68103 0.006,-7.36205 0.004,-11.04308 -0.005,-3.75654 0.004,-7.51435 -0.11589,-11.26938 -0.11891,-2.63919 -0.3013,-5.27761 -0.73799,-7.88635 -0.34362,-2.06171 2.57208,-2.54766 2.9157,-0.48595 z"
       inkscape:connector-curvature="0" />
  </g>
</svg>
