<?xml version="1.0" encoding="UTF-8" standalone="no"?>
<!-- Created with Inkscape (http://www.inkscape.org/) -->

<svg
   xmlns:dc="http://purl.org/dc/elements/1.1/"
   xmlns:cc="http://creativecommons.org/ns#"
   xmlns:rdf="http://www.w3.org/1999/02/22-rdf-syntax-ns#"
   xmlns:svg="http://www.w3.org/2000/svg"
   xmlns="http://www.w3.org/2000/svg"
   xmlns:sodipodi="http://sodipodi.sourceforge.net/DTD/sodipodi-0.dtd"
   xmlns:inkscape="http://www.inkscape.org/namespaces/inkscape"
   width="441.19537"
   height="798.552"
   id="svg8644"
   version="1.1"
   inkscape:version="0.48.0 r9654"
   sodipodi:docname="FourMotorCurves.pdf">
  <defs
     id="defs8646" />
  <sodipodi:namedview
     inkscape:document-units="mm"
     pagecolor="#ffffff"
     bordercolor="#666666"
     borderopacity="1.0"
     inkscape:pageopacity="0.0"
     inkscape:pageshadow="2"
     inkscape:zoom="0.7176508"
     inkscape:cx="451.28032"
     inkscape:cy="389.31991"
     inkscape:current-layer="layer1"
     id="namedview8648"
     showgrid="false"
     fit-margin-top="0"
     units="in"
     fit-margin-left="0"
     fit-margin-right="0"
     fit-margin-bottom="0"
     inkscape:window-width="1280"
     inkscape:window-height="752"
     inkscape:window-x="0"
     inkscape:window-y="0"
     inkscape:window-maximized="0" />
  <metadata
     id="metadata8650">
    <rdf:RDF>
      <cc:Work
         rdf:about="">
        <dc:format>image/svg+xml</dc:format>
        <dc:type
           rdf:resource="http://purl.org/dc/dcmitype/StillImage" />
        <dc:title></dc:title>
      </cc:Work>
    </rdf:RDF>
  </metadata>
  <g
     inkscape:label="Layer 1"
     inkscape:groupmode="layer"
     id="layer1"
     transform="translate(99.175139,-13.777843)">
    <path
       style="fill:#000000;fill-opacity:1;fill-rule:nonzero;stroke:none"
       id="path9217"
       d="m 11.004782,36.021295 c 1.62895,-2.69605 2.94819,-5.54136 4.25592,-8.39971 1.23524,-2.17918 1.61969,-4.65442 2.56366,-6.94572 0.33693,-0.92805 0.7362,-1.85881 0.95365,-2.81703 0.35214,-1.1497 1.10135,-1.99568 2.03866,-2.69968 1.25248,-1.10338 3.37734,0.23828 3.62995,1.78433 0.006,-0.0657 -0.0457,-0.21878 0.0166,-0.19715 0.5283,0.18339 2.6371,3.62808 3.08344,4.2255 1.81483,2.47422 2.95273,5.33515 4.32687,8.05376 0.86037,1.56872 1.63103,3.20974 2.07212,4.94812 0.14008,0.71398 0.22158,1.44024 0.21642,2.16814 -0.0211,1.56763 0.0618,0.14687 -0.46021,-0.57648 7.5e-4,1.7e-4 0.001,-7.4e-4 0.002,-0.001 -0.449,-0.0315 0.36374,0.004 -0.29357,-0.0206 2.95563,-0.0416 3.01453,4.13825 0.0589,4.17989 l 0,0 c -0.26891,-0.008 -0.14212,0.001 -0.3806,-0.0245 -0.49753,-0.0842 -0.97564,-0.24823 -1.42322,-0.48296 -1.13045,-0.68634 -1.83922,-1.76802 -1.68324,-3.13071 -0.008,-0.38932 -0.0347,-0.77819 -0.1075,-1.16199 -0.25412,-1.42879 -1.13099,-2.72928 -1.73544,-4.01904 -1.25589,-2.50638 -2.3065,-5.13643 -3.94318,-7.43289 -1.42725,-1.91575 -3.09167,-3.85412 -3.9081,-6.10318 0.38327,1.06031 2.22703,1.71396 3.00813,1.15651 -0.19977,0.14667 -0.54655,0.62327 -0.39707,0.0356 -0.25781,1.28355 -0.75285,2.50054 -1.21557,3.72243 -0.98073,2.32255 -1.31893,4.87649 -2.6218,7.07877 -1.32882,2.9009 -2.66215,5.79401 -4.31789,8.52918 -1.32193,2.64386 -5.0609001,0.77437 -3.73898,-1.86949 z"
       inkscape:connector-curvature="0" />
    <path
       style="fill:#000000;fill-opacity:1;fill-rule:nonzero;stroke:none"
       id="path9219"
       d="m 21.702522,15.487565 c 1.63551,4.07383 1.94838,8.4963 2.26772,12.82686 0.45545,9.09368 0.41078,18.20421 0.42993,27.30673 0.009,13.46125 -0.003,26.92251 -0.008,40.38376 -0.20548,15.827195 0.14246,31.642145 0.62294,47.460155 0.14796,12.25515 0.88497,24.48476 1.55325,36.71862 0.22819,4.22836 0.44265,8.45782 0.59254,12.68979 0.0138,0.33901 0.0213,0.67814 0.0235,1.01735 -0.0374,2.95569 -4.21735,2.90283 -4.17997,-0.0529 l 0,0 c -0.005,-0.24129 -0.009,-0.56773 -0.0213,-0.81659 -0.14881,-4.20526 -0.36234,-8.40801 -0.58893,-12.60969 -0.67009,-12.26752 -1.40823,-24.53087 -1.55755,-36.8197 -0.48177,-15.86081 -0.83015,-31.71864 -0.62486,-47.588625 0.005,-13.45781 0.0172,-26.91562 0.008,-40.37342 -0.0189,-9.00375 0.0251,-18.01528 -0.41879,-27.01053 -0.29749,-4.10151 -0.59692,-8.26278 -2.15405,-12.11797 -0.71692,-2.86767 3.33857,-3.88154 4.05549,-1.01388 z"
       inkscape:connector-curvature="0" />
    <path
       inkscape:connector-curvature="0"
       d="m 274.87938,177.79205 c 2.66142,1.68495 5.47853,3.06337 8.30892,4.43056 2.15289,1.28052 4.61955,1.71662 6.89062,2.70828 0.92081,0.35625 1.84302,0.77489 2.79648,1.01232 1.14209,0.37609 1.97223,1.14282 2.65648,2.09464 1.07696,1.27527 -0.30882,3.37162 -1.85981,3.59186 0.0656,0.007 0.21969,-0.0411 0.19676,0.0207 -0.19439,0.52435 -3.6824,2.56069 -4.28902,2.99445 -2.51162,1.76272 -5.3957,2.84057 -8.14244,4.15759 -1.58636,0.82739 -3.24313,1.56358 -4.99035,1.96824 -0.71675,0.12513 -1.44456,0.19143 -2.17219,0.17106 -1.56685,-0.0539 -0.14813,0.0587 0.58597,-0.44806 -1.8e-4,7.4e-4 7.2e-4,0.001 9.6e-4,0.002 0.0409,-0.44825 -0.0116,0.36357 0.0267,-0.29308 -0.0202,2.95585 -4.20035,2.92738 -4.18021,-0.0285 l 0,0 c 0.0136,-0.26868 0.002,-0.14211 0.0325,-0.38 0.0946,-0.49566 0.26857,-0.97024 0.51261,-1.41282 0.70981,-1.11585 1.80607,-1.80186 3.1652,-1.61743 0.38941,1.4e-4 0.77875,-0.0184 1.16399,-0.0832 1.43379,-0.2242 2.75232,-1.0737 4.05443,-1.65106 2.53208,-1.20323 5.18352,-2.19864 7.51369,-3.78696 1.94516,-1.3869 3.91789,-3.01044 6.18353,-3.77968 -1.06809,0.36102 -1.76014,2.19072 -1.21913,2.9833 -0.14247,-0.20279 -0.61171,-0.55946 -0.0273,-0.39773 -1.27788,-0.28458 -2.48425,-0.80495 -3.69621,-1.29311 -2.30154,-1.02906 -4.84785,-1.42056 -7.02242,-2.76918 -2.87249,-1.38916 -5.7371,-2.78267 -8.43707,-4.49522 -2.61565,-1.3769 -0.66842,-5.07598 1.94723,-3.69909 z"
       id="path9221"
       style="fill:#000000;fill-opacity:1;fill-rule:nonzero;stroke:none" />
    <path
       inkscape:connector-curvature="0"
       d="m 288.78487,191.70351 c -6.04411,1.55001 -12.56047,1.77037 -18.94182,1.99913 -13.39347,0.26528 -26.79635,0.0302 -40.18941,-0.14092 -19.80572,-0.27236 -39.61079,-0.56572 -59.41608,-0.85207 -23.28011,-0.53625 -46.55922,-0.51894 -69.84692,-0.36919 -18.035468,-0.10822 -36.051468,0.37301 -54.071608,0.78544 -6.22818,0.13976 -12.45755,0.26577 -18.68863,0.32718 -0.4992,0.007 -0.99838,0.007 -1.49754,0.002 -4.34753,-0.0992 -4.14118,-4.2771 0.20641,-4.17795 l 0,0 c 0.35516,4e-5 0.83557,0.003 1.2021,-0.004 6.19174,-0.0609 12.38178,-0.18652 18.57065,-0.32524 18.06973,-0.41354 36.13541,-0.89519 54.220458,-0.78763 23.35072,-0.15015 46.69294,-0.167 70.03601,0.36995 19.80021,0.28629 39.60022,0.57977 59.40086,0.85186 13.24774,0.1693 26.50498,0.40164 39.75327,0.14586 6.04367,-0.21169 12.17533,-0.42408 17.89534,-1.90029 4.24124,-0.65683 5.60819,3.41897 1.36697,4.07579 z"
       id="path9223"
       style="fill:#000000;fill-opacity:1;fill-rule:nonzero;stroke:none" />
    <path
       inkscape:connector-curvature="0"
       d="m 11.004786,221.3482 c 1.62895,-2.69605 2.94819,-5.54136 4.25592,-8.39971 1.23524,-2.17918 1.61969,-4.65442 2.56366,-6.94572 0.33693,-0.92805 0.7362,-1.85881 0.95365,-2.81703 0.35214,-1.1497 1.10135,-1.99568 2.03866,-2.69968 1.25248,-1.10338 3.37734,0.23828 3.62995,1.78433 0.006,-0.0657 -0.0457,-0.21878 0.0166,-0.19715 0.5283,0.18339 2.6371,3.62808 3.08344,4.2255 1.81483,2.47422 2.95273,5.33515 4.32687,8.05376 0.86037,1.56872 1.63103,3.20974 2.07212,4.94812 0.14008,0.71398 0.22158,1.44024 0.21642,2.16814 -0.0211,1.56763 0.0618,0.14687 -0.46021,-0.57648 7.5e-4,1.7e-4 10e-4,-7.4e-4 0.002,-0.001 -0.449,-0.0315 0.36374,0.004 -0.29357,-0.0206 2.95563,-0.0416 3.01453,4.13825 0.0589,4.17989 l 0,0 c -0.26891,-0.008 -0.14212,0.001 -0.3806,-0.0245 -0.49753,-0.0842 -0.97564,-0.24823 -1.42322,-0.48296 -1.13045,-0.68634 -1.83922,-1.76802 -1.68324,-3.13071 -0.008,-0.38932 -0.0347,-0.77819 -0.1075,-1.16199 -0.25412,-1.42879 -1.13099,-2.72928 -1.73544,-4.01904 -1.25589,-2.50638 -2.3065,-5.13643 -3.94318,-7.43289 -1.42725,-1.91575 -3.09167,-3.85412 -3.9081,-6.10318 0.38327,1.06031 2.22703,1.71396 3.00813,1.15651 -0.19977,0.14667 -0.54655,0.62327 -0.39707,0.0356 -0.25781,1.28355 -0.75285,2.50054 -1.21557,3.72243 -0.98073,2.32255 -1.31893,4.87649 -2.6218,7.07877 -1.32882,2.9009 -2.66215,5.79401 -4.31789,8.52918 -1.32193,2.64386 -5.0609001,0.77437 -3.73898,-1.86949 z"
       id="path9225"
       style="fill:#000000;fill-opacity:1;fill-rule:nonzero;stroke:none" />
    <path
       inkscape:connector-curvature="0"
       d="m 21.702526,200.81447 c 1.63551,4.07383 1.94838,8.4963 2.26772,12.82686 0.45545,9.09368 0.41078,18.20421 0.42993,27.30673 0.009,13.46125 -0.003,26.92251 -0.008,40.38376 -0.20548,15.82719 0.14246,31.64214 0.62294,47.46015 0.14796,12.25515 0.88497,24.48476 1.55325,36.71862 0.22819,4.22836 0.44265,8.45782 0.59254,12.68979 0.0138,0.33901 0.0213,0.67814 0.0235,1.01735 -0.0374,2.95569 -4.21735,2.90283 -4.17997,-0.0529 l 0,0 c -0.005,-0.24129 -0.009,-0.56773 -0.0213,-0.81659 -0.14881,-4.20526 -0.36234,-8.40801 -0.58893,-12.60969 -0.67009,-12.26752 -1.40823,-24.53087 -1.55755,-36.8197 -0.48177,-15.86081 -0.83015,-31.71864 -0.62486,-47.58862 0.005,-13.45781 0.0172,-26.91562 0.008,-40.37342 -0.0189,-9.00375 0.0251,-18.01528 -0.41879,-27.01053 -0.29749,-4.10151 -0.59692,-8.26278 -2.15405,-12.11797 -0.71692,-2.86767 3.33857,-3.88154 4.05549,-1.01388 z"
       id="path9227"
       style="fill:#000000;fill-opacity:1;fill-rule:nonzero;stroke:none" />
    <path
       style="fill:#000000;fill-opacity:1;fill-rule:nonzero;stroke:none"
       id="path9229"
       d="m 274.87938,363.11895 c 2.66142,1.68495 5.47853,3.06337 8.30892,4.43056 2.15289,1.28052 4.61955,1.71662 6.89062,2.70828 0.92081,0.35625 1.84302,0.77489 2.79648,1.01232 1.14209,0.37609 1.97223,1.14282 2.65648,2.09464 1.07696,1.27527 -0.30882,3.37162 -1.85981,3.59186 0.0656,0.007 0.21969,-0.0411 0.19676,0.0207 -0.19439,0.52435 -3.6824,2.56069 -4.28902,2.99445 -2.51162,1.76272 -5.3957,2.84057 -8.14244,4.15759 -1.58636,0.82739 -3.24313,1.56358 -4.99035,1.96824 -0.71675,0.12513 -1.44456,0.19143 -2.17219,0.17106 -1.56685,-0.0539 -0.14813,0.0587 0.58597,-0.44806 -1.8e-4,7.4e-4 7.2e-4,0.001 9.6e-4,0.002 0.0409,-0.44825 -0.0116,0.36357 0.0267,-0.29308 -0.0202,2.95585 -4.20035,2.92738 -4.18021,-0.0285 l 0,0 c 0.0136,-0.26868 0.002,-0.14211 0.0325,-0.38 0.0946,-0.49566 0.26857,-0.97024 0.51261,-1.41282 0.70981,-1.11585 1.80607,-1.80186 3.1652,-1.61743 0.38941,1.4e-4 0.77875,-0.0184 1.16399,-0.0832 1.43379,-0.2242 2.75232,-1.0737 4.05443,-1.65106 2.53208,-1.20323 5.18352,-2.19864 7.51369,-3.78696 1.94516,-1.3869 3.91789,-3.01044 6.18353,-3.77968 -1.06809,0.36102 -1.76014,2.19072 -1.21913,2.9833 -0.14247,-0.20279 -0.61171,-0.55946 -0.0273,-0.39773 -1.27788,-0.28458 -2.48425,-0.80495 -3.69621,-1.29311 -2.30154,-1.02906 -4.84785,-1.42056 -7.02242,-2.76918 -2.87249,-1.38916 -5.7371,-2.78267 -8.43707,-4.49522 -2.61565,-1.3769 -0.66842,-5.07598 1.94723,-3.69909 z"
       inkscape:connector-curvature="0" />
    <path
       style="fill:#000000;fill-opacity:1;fill-rule:nonzero;stroke:none"
       id="path9231"
       d="m 288.78487,377.03041 c -6.04411,1.55001 -12.56047,1.77037 -18.94182,1.99913 -13.39347,0.26528 -26.79635,0.0302 -40.18941,-0.14092 -19.80572,-0.27236 -39.61079,-0.56572 -59.41608,-0.85207 -23.28011,-0.53625 -46.55922,-0.51894 -69.84692,-0.36919 -18.035464,-0.10822 -36.051464,0.37301 -54.071604,0.78544 -6.22818,0.13976 -12.45755,0.26577 -18.68863,0.32718 -0.4992,0.007 -0.99838,0.007 -1.49754,0.002 -4.34753,-0.0992 -4.14118,-4.2771 0.20641,-4.17795 l 0,0 c 0.35516,4e-5 0.83557,0.003 1.2021,-0.004 6.19174,-0.0609 12.38178,-0.18652 18.57065,-0.32524 18.06973,-0.41354 36.13541,-0.89519 54.220454,-0.78763 23.35072,-0.15015 46.69294,-0.167 70.03601,0.36995 19.80021,0.28629 39.60022,0.57977 59.40086,0.85186 13.24774,0.1693 26.50498,0.40164 39.75327,0.14586 6.04367,-0.21169 12.17533,-0.42408 17.89534,-1.90029 4.24124,-0.65683 5.60819,3.41897 1.36697,4.07579 z"
       inkscape:connector-curvature="0" />
    <path
       inkscape:connector-curvature="0"
       d="m 11.004785,405.28166 c 1.62895,-2.69605 2.94819,-5.54136 4.25592,-8.39971 1.23524,-2.17918 1.61969,-4.65442 2.56366,-6.94572 0.33693,-0.92805 0.7362,-1.85881 0.95365,-2.81703 0.35214,-1.1497 1.10135,-1.99568 2.03866,-2.69968 1.25248,-1.10338 3.37734,0.23828 3.62995,1.78433 0.006,-0.0657 -0.0457,-0.21878 0.0166,-0.19715 0.5283,0.18339 2.6371,3.62808 3.08344,4.2255 1.81483,2.47422 2.95273,5.33515 4.32687,8.05376 0.86037,1.56872 1.63103,3.20974 2.07212,4.94812 0.14008,0.71398 0.22158,1.44024 0.21642,2.16814 -0.0211,1.56763 0.0618,0.14687 -0.46021,-0.57648 7.5e-4,1.7e-4 0.001,-7.4e-4 0.002,-10e-4 -0.449,-0.0315 0.36374,0.004 -0.29357,-0.0206 2.95563,-0.0416 3.01453,4.13825 0.0589,4.17989 l 0,0 c -0.26891,-0.008 -0.14212,10e-4 -0.3806,-0.0245 -0.49753,-0.0842 -0.97564,-0.24823 -1.42322,-0.48296 -1.13045,-0.68634 -1.83922,-1.76802 -1.68324,-3.13071 -0.008,-0.38932 -0.0347,-0.77819 -0.1075,-1.16199 -0.25412,-1.42879 -1.13099,-2.72928 -1.73544,-4.01904 -1.25589,-2.50638 -2.3065,-5.13643 -3.94318,-7.43289 -1.42725,-1.91575 -3.09167,-3.85412 -3.9081,-6.10318 0.38327,1.06031 2.22703,1.71396 3.00813,1.15651 -0.19977,0.14667 -0.54655,0.62327 -0.39707,0.0356 -0.25781,1.28355 -0.75285,2.50054 -1.21557,3.72243 -0.98073,2.32255 -1.31893,4.87649 -2.6218,7.07877 -1.32882,2.9009 -2.66215,5.79401 -4.31789,8.52918 -1.32193,2.64386 -5.0608997,0.77437 -3.73898,-1.86949 z"
       id="path9233"
       style="fill:#000000;fill-opacity:1;fill-rule:nonzero;stroke:none" />
    <path
       inkscape:connector-curvature="0"
       d="m 21.702525,384.74793 c 1.63551,4.07383 1.94838,8.4963 2.26772,12.82686 0.45545,9.09368 0.41078,18.20421 0.42993,27.30673 0.009,13.46125 -0.003,26.92251 -0.008,40.38376 -0.20548,15.82719 0.14246,31.64214 0.62294,47.46015 0.14796,12.25515 0.88497,24.48476 1.55325,36.71862 0.22819,4.22836 0.44265,8.45782 0.59254,12.68979 0.0138,0.33901 0.0213,0.67814 0.0235,1.01735 -0.0374,2.95569 -4.21735,2.90283 -4.17997,-0.0529 l 0,0 c -0.005,-0.24129 -0.009,-0.56773 -0.0213,-0.81659 -0.14881,-4.20526 -0.36234,-8.40801 -0.58893,-12.60969 -0.67009,-12.26752 -1.40823,-24.53087 -1.55755,-36.8197 -0.48177,-15.86081 -0.83015,-31.71864 -0.62486,-47.58862 0.005,-13.45781 0.0172,-26.91562 0.008,-40.37342 -0.0189,-9.00375 0.0251,-18.01528 -0.41879,-27.01053 -0.29749,-4.10151 -0.59692,-8.26278 -2.15405,-12.11797 -0.71692,-2.86767 3.33857,-3.88154 4.05549,-1.01388 z"
       id="path9235"
       style="fill:#000000;fill-opacity:1;fill-rule:nonzero;stroke:none" />
    <path
       style="fill:#000000;fill-opacity:1;fill-rule:nonzero;stroke:none"
       id="path9237"
       d="m 274.87938,547.05241 c 2.66142,1.68495 5.47853,3.06337 8.30892,4.43056 2.15289,1.28052 4.61955,1.71662 6.89062,2.70828 0.92081,0.35625 1.84302,0.77489 2.79648,1.01232 1.14209,0.37609 1.97223,1.14282 2.65648,2.09464 1.07696,1.27527 -0.30882,3.37162 -1.85981,3.59186 0.0656,0.007 0.21969,-0.0411 0.19676,0.0207 -0.19439,0.52435 -3.6824,2.56069 -4.28902,2.99445 -2.51162,1.76272 -5.3957,2.84057 -8.14244,4.15759 -1.58636,0.82739 -3.24313,1.56358 -4.99035,1.96824 -0.71675,0.12513 -1.44456,0.19143 -2.17219,0.17106 -1.56685,-0.0539 -0.14813,0.0587 0.58597,-0.44806 -1.8e-4,7.4e-4 7.2e-4,10e-4 9.6e-4,0.002 0.0409,-0.44825 -0.0116,0.36357 0.0267,-0.29308 -0.0202,2.95585 -4.20035,2.92738 -4.18021,-0.0285 l 0,0 c 0.0136,-0.26868 0.002,-0.14211 0.0325,-0.38 0.0946,-0.49566 0.26857,-0.97024 0.51261,-1.41282 0.70981,-1.11585 1.80607,-1.80186 3.1652,-1.61743 0.38941,1.4e-4 0.77875,-0.0184 1.16399,-0.0832 1.43379,-0.2242 2.75232,-1.0737 4.05443,-1.65106 2.53208,-1.20323 5.18352,-2.19864 7.51369,-3.78696 1.94516,-1.3869 3.91789,-3.01044 6.18353,-3.77968 -1.06809,0.36102 -1.76014,2.19072 -1.21913,2.9833 -0.14247,-0.20279 -0.61171,-0.55946 -0.0273,-0.39773 -1.27788,-0.28458 -2.48425,-0.80495 -3.69621,-1.29311 -2.30154,-1.02906 -4.84785,-1.42056 -7.02242,-2.76918 -2.87249,-1.38916 -5.7371,-2.78267 -8.43707,-4.49522 -2.61565,-1.3769 -0.66842,-5.07598 1.94723,-3.69909 z"
       inkscape:connector-curvature="0" />
    <path
       style="fill:#000000;fill-opacity:1;fill-rule:nonzero;stroke:none"
       id="path9239"
       d="m 288.78487,560.96387 c -6.04411,1.55001 -12.56047,1.77037 -18.94182,1.99913 -13.39347,0.26528 -26.79635,0.0302 -40.18941,-0.14092 -19.80572,-0.27236 -39.61079,-0.56572 -59.41608,-0.85207 -23.28011,-0.53625 -46.55922,-0.51894 -69.84692,-0.36919 -18.035465,-0.10822 -36.051465,0.37301 -54.071605,0.78544 -6.22818,0.13976 -12.45755,0.26577 -18.68863,0.32718 -0.4992,0.007 -0.99838,0.007 -1.49754,0.002 -4.34753,-0.0992 -4.14118,-4.2771 0.20641,-4.17795 l 0,0 c 0.35516,4e-5 0.83557,0.003 1.2021,-0.004 6.19174,-0.0609 12.38178,-0.18652 18.57065,-0.32524 18.06973,-0.41354 36.13541,-0.89519 54.220455,-0.78763 23.35072,-0.15015 46.69294,-0.167 70.03601,0.36995 19.80021,0.28629 39.60022,0.57977 59.40086,0.85186 13.24774,0.1693 26.50498,0.40164 39.75327,0.14586 6.04367,-0.21169 12.17533,-0.42408 17.89534,-1.90029 4.24124,-0.65683 5.60819,3.41897 1.36697,4.07579 z"
       inkscape:connector-curvature="0" />
    <path
       style="fill:#000000;fill-opacity:1;fill-rule:nonzero;stroke:none"
       id="path9241"
       d="m 13.79166,593.39544 c 1.62895,-2.69605 2.94819,-5.54136 4.25592,-8.39971 1.23524,-2.17918 1.61969,-4.65442 2.56366,-6.94572 0.33693,-0.92805 0.7362,-1.85881 0.95365,-2.81703 0.35214,-1.1497 1.10135,-1.99568 2.03866,-2.69968 1.25248,-1.10338 3.37734,0.23828 3.62995,1.78433 0.006,-0.0657 -0.0457,-0.21878 0.0166,-0.19715 0.5283,0.18339 2.6371,3.62808 3.08344,4.2255 1.81483,2.47422 2.95273,5.33515 4.32687,8.05376 0.86037,1.56872 1.63103,3.20974 2.07212,4.94812 0.14008,0.71398 0.22158,1.44024 0.21642,2.16814 -0.0211,1.56763 0.0618,0.14687 -0.46021,-0.57648 7.5e-4,1.7e-4 10e-4,-7.4e-4 0.002,-10e-4 -0.449,-0.0315 0.36374,0.004 -0.29357,-0.0206 2.95563,-0.0416 3.01453,4.13825 0.0589,4.17989 l 0,0 c -0.26891,-0.008 -0.14212,10e-4 -0.3806,-0.0245 -0.49753,-0.0842 -0.97564,-0.24823 -1.42322,-0.48296 -1.13045,-0.68634 -1.83922,-1.76802 -1.68324,-3.13071 -0.008,-0.38932 -0.0347,-0.77819 -0.1075,-1.16199 -0.25412,-1.42879 -1.13099,-2.72928 -1.73544,-4.01904 -1.25589,-2.50638 -2.3065,-5.13643 -3.94318,-7.43289 -1.42725,-1.91575 -3.09167,-3.85412 -3.9081,-6.10318 0.38327,1.06031 2.22703,1.71396 3.00813,1.15651 -0.19977,0.14667 -0.54655,0.62327 -0.39707,0.0356 -0.25781,1.28355 -0.75285,2.50054 -1.21557,3.72243 -0.98073,2.32255 -1.31893,4.87649 -2.6218,7.07877 -1.32882,2.9009 -2.66215,5.79401 -4.31789,8.52918 -1.32193,2.64386 -5.0609,0.77437 -3.73898,-1.86949 z"
       inkscape:connector-curvature="0" />
    <path
       style="fill:#000000;fill-opacity:1;fill-rule:nonzero;stroke:none"
       id="path9243"
       d="m 24.4894,572.86171 c 1.63551,4.07383 1.94838,8.4963 2.26772,12.82686 0.45545,9.09368 0.41078,18.20421 0.42993,27.30673 0.009,13.46125 -0.003,26.92251 -0.008,40.38376 -0.20548,15.82719 0.14246,31.64214 0.62294,47.46015 0.14796,12.25515 0.88497,24.48476 1.55325,36.71862 0.22819,4.22836 0.44265,8.45782 0.59254,12.68979 0.0138,0.33901 0.0213,0.67814 0.0235,1.01735 -0.0374,2.95569 -4.21735,2.90283 -4.17997,-0.0529 l 0,0 c -0.005,-0.24129 -0.009,-0.56773 -0.0213,-0.81659 -0.14881,-4.20526 -0.36234,-8.40801 -0.58893,-12.60969 -0.67009,-12.26752 -1.40823,-24.53087 -1.55755,-36.8197 -0.48177,-15.86081 -0.83015,-31.71864 -0.62486,-47.58862 0.005,-13.45781 0.0172,-26.91562 0.008,-40.37342 -0.0189,-9.00375 0.0251,-18.01528 -0.41879,-27.01053 -0.29749,-4.10151 -0.59692,-8.26278 -2.15405,-12.11797 -0.71692,-2.86767 3.33857,-3.88154 4.05549,-1.01388 z"
       inkscape:connector-curvature="0" />
    <path
       inkscape:connector-curvature="0"
       d="m 277.66625,735.16619 c 2.66142,1.68495 5.47853,3.06337 8.30892,4.43056 2.15289,1.28052 4.61955,1.71662 6.89062,2.70828 0.92081,0.35625 1.84302,0.77489 2.79648,1.01232 1.14209,0.37609 1.97223,1.14282 2.65648,2.09464 1.07696,1.27527 -0.30882,3.37162 -1.85981,3.59186 0.0656,0.007 0.21969,-0.0411 0.19676,0.0207 -0.19439,0.52435 -3.6824,2.56069 -4.28902,2.99445 -2.51162,1.76272 -5.3957,2.84057 -8.14244,4.15759 -1.58636,0.82739 -3.24313,1.56358 -4.99035,1.96824 -0.71675,0.12513 -1.44456,0.19143 -2.17219,0.17106 -1.56685,-0.0539 -0.14813,0.0587 0.58597,-0.44806 -1.8e-4,7.4e-4 7.2e-4,10e-4 9.6e-4,0.002 0.0409,-0.44825 -0.0116,0.36357 0.0267,-0.29308 -0.0202,2.95585 -4.20035,2.92738 -4.18021,-0.0285 l 0,0 c 0.0136,-0.26868 0.002,-0.14211 0.0325,-0.38 0.0946,-0.49566 0.26857,-0.97024 0.51261,-1.41282 0.70981,-1.11585 1.80607,-1.80186 3.1652,-1.61743 0.38941,1.4e-4 0.77875,-0.0184 1.16399,-0.0832 1.43379,-0.2242 2.75232,-1.0737 4.05443,-1.65106 2.53208,-1.20323 5.18352,-2.19864 7.51369,-3.78696 1.94516,-1.3869 3.91789,-3.01044 6.18353,-3.77968 -1.06809,0.36102 -1.76014,2.19072 -1.21913,2.9833 -0.14247,-0.20279 -0.61171,-0.55946 -0.0273,-0.39773 -1.27788,-0.28458 -2.48425,-0.80495 -3.69621,-1.29311 -2.30154,-1.02906 -4.84785,-1.42056 -7.02242,-2.76918 -2.87249,-1.38916 -5.7371,-2.78267 -8.43707,-4.49522 -2.61565,-1.3769 -0.66842,-5.07598 1.94723,-3.69909 z"
       id="path9245"
       style="fill:#000000;fill-opacity:1;fill-rule:nonzero;stroke:none" />
    <path
       inkscape:connector-curvature="0"
       d="m 291.57174,749.07765 c -6.04411,1.55001 -12.56047,1.77037 -18.94182,1.99913 -13.39347,0.26528 -26.79635,0.0302 -40.18941,-0.14092 -19.80572,-0.27236 -39.61079,-0.56572 -59.41608,-0.85207 -23.28011,-0.53625 -46.55922,-0.51894 -69.84692,-0.36919 -18.03546,-0.10822 -36.05146,0.37301 -54.0716,0.78544 -6.22818,0.13976 -12.45755,0.26577 -18.68863,0.32718 -0.4992,0.007 -0.99838,0.007 -1.49754,0.002 -4.34753,-0.0992 -4.14118,-4.2771 0.20641,-4.17795 l 0,0 c 0.35516,4e-5 0.83557,0.003 1.2021,-0.004 6.19174,-0.0609 12.38178,-0.18652 18.57065,-0.32524 18.06973,-0.41354 36.13541,-0.89519 54.22045,-0.78763 23.35072,-0.15015 46.69294,-0.167 70.03601,0.36995 19.80021,0.28629 39.60022,0.57977 59.40086,0.85186 13.24774,0.1693 26.50498,0.40164 39.75327,0.14586 6.04367,-0.21169 12.17533,-0.42408 17.89534,-1.90029 4.24124,-0.65683 5.60819,3.41897 1.36697,4.07579 z"
       id="path9247"
       style="fill:#000000;fill-opacity:1;fill-rule:nonzero;stroke:none" />
    <path
       style="fill:#000000;fill-opacity:1;fill-rule:nonzero;stroke:none"
       id="path9249"
       d="m -85.710754,86.435377 c 0.53912,4.11625 0.58785,8.27615 0.68042,12.41902 -0.0619,4.160173 0.20713,8.302203 0.61746,12.439903 0.0879,0.75598 0.14658,1.51554 0.24347,2.27061 0.008,0.0616 0.0951,0.17316 0.0318,0.18363 -0.85966,0.14226 -1.73633,0.16141 -2.60449,0.24211 -0.45592,-1.7141 2.0532,-2.33702 2.50911,-0.62291 l 0,0 c -0.82106,0.25781 -1.6154,0.61576 -2.46317,0.77344 -0.0146,0.002 -0.0433,-0.24516 -0.10771,-0.83122 -0.0856,-0.77906 -0.0997,-0.92923 -0.18783,-1.77699 -0.41626,-4.19901 -0.6892,-8.40293 -0.62866,-12.624603 -0.0897,-4.02336 -0.13653,-8.06261 -0.64577,-12.06152 -0.30115,-1.74572 2.25423,-2.15719 2.55538,-0.41147 z"
       inkscape:connector-curvature="0" />
    <path
       style="fill:#000000;fill-opacity:1;fill-rule:nonzero;stroke:none"
       id="path9251"
       d="m -98.055364,86.383987 c 4.40874,-0.77987 8.88039,-1.0384 13.34888,-1.26776 5.0551,-0.27479 10.1042,-0.35219 15.15101,0.0527 1.17331,0.13696 2.36736,0.19807 3.52217,0.45783 0.91176,0.24704 0.57291,0.56734 0.94276,1.79517 -0.64743,1.65558 -3.07087,0.77099 -2.42344,-0.88458 l 0,0 c 0.57585,1.41364 0.10865,1.21908 0.87663,1.52329 -1.03065,-0.21296 -2.08794,-0.28293 -3.13312,-0.39747 -4.92954,-0.39773 -9.86096,-0.31415 -14.79874,-0.0477 -4.34389,0.22241 -8.69172,0.46756 -12.97809,1.22268 -1.79628,0.34708 -2.30434,-2.10718 -0.50806,-2.45427 z"
       inkscape:connector-curvature="0" />
    <path
       style="fill:#000000;fill-opacity:1;fill-rule:nonzero;stroke:none"
       id="path9253"
       d="m -84.818914,277.97146 c 1.09269,3.59265 1.43105,7.37978 1.80387,11.09562 0.47326,5.65304 0.5792,11.32678 0.65564,16.99537 0.0175,1.97081 0.0406,3.94183 0.0265,5.91274 -0.40199,1.65182 -2.01034,1.40218 -2.8558,0.28129 -1.05195,-1.44888 1.06894,-2.88617 2.12089,-1.43729 l 0,0 c 0.71398,1.07365 -2.48363,-0.90535 -1.85565,1.13853 0.0142,-1.95423 -0.009,-3.90856 -0.0263,-5.86269 -0.0754,-5.59902 -0.17906,-11.20311 -0.64383,-16.78696 -0.34804,-3.48309 -0.67193,-7.02441 -1.63062,-10.40708 -0.68033,-1.64321 1.72501,-2.57275 2.40535,-0.92953 z"
       inkscape:connector-curvature="0" />
    <path
       style="fill:#000000;fill-opacity:1;fill-rule:nonzero;stroke:none"
       id="path9255"
       d="m -97.698024,277.5201 c 3.55659,-0.32535 7.10093,-0.7486 10.65941,-1.05594 5.38079,-0.58657 10.77956,-0.98959 16.18596,-1.26984 1.73513,-0.075 3.47053,-0.16325 5.20749,-0.18839 0.0129,-1.5e-4 0.0257,-3e-4 0.0386,-4.5e-4 1.83173,-0.0209 1.86235,2.48177 0.0306,2.50269 l 0,0 c -0.0103,1.2e-4 -0.0206,2.3e-4 -0.0309,3.5e-4 -1.7035,0.0241 -3.40543,0.11238 -5.10715,0.18508 -5.37586,0.27836 -10.74395,0.68031 -16.09431,1.26351 -3.63503,0.31311 -7.25413,0.75926 -10.88979,1.06586 -1.83185,0 -1.83185,-2.50287 0,-2.50287 z"
       inkscape:connector-curvature="0" />
    <path
       style="fill:#000000;fill-opacity:1;fill-rule:nonzero;stroke:none"
       id="path9261"
       d="m -96.726904,310.19455 c 3.33044,0.6139 6.74539,0.33067 10.10945,0.2261 5.08415,-0.34693 10.16363,-0.7452 15.25333,-1.01142 1.61543,-0.0735 3.23091,-0.1563 4.84785,-0.19284 0.21918,-0.005 0.43678,0.007 0.65584,0.008 0.88893,10e-4 1.77785,-2.1e-4 2.66678,-0.001 0.36693,-2.9e-4 0.73387,-5.6e-4 1.1008,-6e-4 0.0209,-2e-5 0.0418,-3e-5 0.0627,-5e-5 1.83185,-6e-4 1.83293,2.50213 0.001,2.50287 l 0,0 c -0.0206,10e-6 -0.0413,2e-5 -0.0619,4e-5 -0.36689,2.6e-4 -0.73377,5.5e-4 -1.10066,6e-4 -0.89489,6e-4 -1.78981,0.002 -2.68471,6e-4 -0.28272,-0.002 -0.39831,-0.0136 -0.5797,-0.009 -1.59035,0.0356 -3.17925,0.11812 -4.76813,0.18986 -5.10862,0.26701 -10.2067,0.67001 -15.31004,1.01379 -3.60263,0.11192 -7.26068,0.40149 -10.82107,-0.29955 -1.77715,-0.42923 -1.14883,-2.85738 0.62833,-2.42814 z"
       inkscape:connector-curvature="0" />
    <path
       style="fill:#000000;fill-opacity:1;fill-rule:nonzero;stroke:none"
       id="path9263"
       d="m 35.962362,486.25584 c -0.10148,4.34616 0.17219,8.68315 0.38954,13.02192 0.30778,3.9586 0.75399,7.9054 1.14658,11.85667 0.17146,1.8379 0.55741,1.05432 -2.40241,1.06811 0.12412,-1.76572 2.7088,-1.59614 2.58467,0.16959 l 0,0 c -3.09621,0.67834 -2.52692,1.15263 -2.76104,-0.99854 -0.39649,-3.99057 -0.84803,-7.97659 -1.15541,-11.97484 -0.21935,-4.37902 -0.49366,-8.75645 -0.39257,-13.14291 0,-1.76979 2.59064,-1.76979 2.59064,0 z"
       inkscape:connector-curvature="0" />
    <path
       style="fill:#000000;fill-opacity:1;fill-rule:nonzero;stroke:none"
       id="path9265"
       d="m 32.213582,485.34132 c 2.25247,-2.50323 5.55112,-3.65911 8.72259,-4.66649 2.61794,-0.66384 5.84197,-0.62419 7.392,1.92953 0.27607,0.45483 0.39202,0.98416 0.58803,1.47625 0.5668,3.38295 -0.90684,6.17514 -3.31142,8.51551 -2.7819,2.09379 -6.17109,2.44975 -9.57821,2.37671 -0.30888,0.004 -4.3683,-0.33252 -4.38549,-0.44577 -0.12366,-0.81502 0.0145,-1.6474 0.0218,-2.4711 1.72844,-0.58623 2.58655,1.77535 0.85811,2.36157 l 0,0 c -0.1195,-0.7807 -0.31686,-1.55394 -0.3585,-2.34212 -0.004,-0.0781 0.15742,0.0376 0.2374,0.05 0.19453,0.0301 0.3901,0.0537 0.58559,0.0774 1.03091,0.12492 2.06609,0.21727 3.10391,0.26786 2.6909,0.0692 5.42861,-0.10514 7.70112,-1.66121 1.74102,-1.58988 2.86773,-3.54823 2.67044,-5.93033 -0.60499,-2.41561 -2.51527,-2.31533 -4.71887,-1.82566 -2.66474,0.83867 -5.49445,1.75603 -7.456,3.78954 -1.09911,1.41584 -3.17162,-0.0859 -2.0725,-1.50172 z"
       inkscape:connector-curvature="0" />
    <path
       style="fill:#000000;fill-opacity:1;fill-rule:nonzero;stroke:none"
       id="path9267"
       d="m 43.027762,508.62852 c -0.60864,0.88511 -1.02962,1.82328 -0.68557,2.86875 0.49802,0.79872 1.36517,0.638 2.15629,0.38338 1.25089,-0.49404 1.75823,-1.63953 2.08558,-2.8156 0.15484,-1.0533 -0.62602,-1.4859 -1.52597,-1.85786 -0.73832,-0.22925 -1.50495,-0.37836 -2.27959,-0.42792 -0.032,-10e-4 -0.0642,-0.002 -0.0963,-0.002 -0.0135,4.4e-4 -0.027,0.001 -0.0405,0.001 -1.38394,0.0141 -1.40474,-1.86256 -0.0208,-1.87666 l 0,0 c 0.18257,-4.5e-4 0.0843,-0.002 0.29475,0.005 1.00951,0.0704 2.00947,0.26213 2.96153,0.59555 1.76502,0.81179 2.98372,2.06135 2.59291,4.06419 -0.54012,1.81479 -1.47654,3.42333 -3.42462,4.11578 -2.04351,0.52156 -3.66943,0.26511 -4.60353,-1.73564 -0.38464,-1.72175 0.0555,-3.26221 1.20181,-4.64555 0.97865,-0.93838 2.36266,0.38869 1.38402,1.32707 z"
       inkscape:connector-curvature="0" />
    <path
       style="fill:#000000;fill-opacity:1;fill-rule:nonzero;stroke:none"
       id="path9269"
       d="m 50.020312,505.42468 c 1.08448,1.35472 1.45684,3.05988 1.77348,4.70441 0.0863,0.52272 0.0701,1.46454 0.77755,1.58287 0.88723,-0.18769 1.36549,-0.71149 1.85107,-1.44164 0.55046,-1.14908 0.7347,-2.41278 0.86114,-3.66014 0.0979,-1.13469 -0.29922,-0.83114 1.61205,0.0377 -0.26237,0.53715 -0.24043,1.18769 -0.27139,1.76977 0.0733,0.81165 0.25429,1.62006 0.89244,2.19481 0.42654,0.38928 0.98097,0.50131 1.5472,0.55691 0.0949,0.006 0.18977,0.0122 0.28465,0.0182 1.38063,0.0928 1.2438,1.96494 -0.13683,1.87218 l 0,0 c -0.12375,-0.009 -0.24751,-0.0173 -0.37127,-0.0259 -1.02947,-0.12124 -1.99799,-0.41118 -2.75041,-1.13652 -0.94285,-1.01788 -1.39344,-2.20781 -1.42041,-3.57742 0.0541,-0.97571 0.0818,-2.00716 0.69051,-2.83586 2.08712,0.35564 1.98018,-0.0831 1.8714,1.30942 -0.16037,1.55423 -0.41427,3.12268 -1.18295,4.5214 -1.01833,1.412 -2.33117,2.50106 -4.23171,2.12883 -1.28642,-0.59067 -1.84837,-1.61732 -1.94809,-2.97533 -0.24352,-1.2767 -0.50993,-2.59791 -1.23244,-3.71659 -0.97864,-0.93839 0.40537,-2.26545 1.38401,-1.32707 z"
       inkscape:connector-curvature="0" />
    <path
       style="fill:#000000;fill-opacity:1;fill-rule:nonzero;stroke:none"
       id="path9271"
       d="m 63.174202,496.98516 c 0.84353,1.94228 0.96132,4.06575 1.10321,6.1389 0.13222,2.44727 0.14884,4.89847 0.15754,7.34845 1e-4,0.74329 0.002,1.48662 -0.006,2.22987 -0.0109,0.69297 0.0209,0.0657 -1.95908,-0.14289 -0.006,-1.32706 1.95101,-1.33554 1.95727,-0.009 l 0,0 c -0.65208,0.0621 -1.30417,0.12424 -1.95625,0.18636 3e-4,-0.0184 4.7e-4,-0.0369 10e-4,-0.0553 0.008,-0.73436 0.006,-1.4688 0.006,-2.20318 -0.008,-2.41133 -0.0245,-4.82384 -0.15339,-7.23255 -0.12366,-1.82497 -0.20944,-3.6957 -0.90074,-5.42188 -0.61895,-1.18697 1.13171,-2.02628 1.75066,-0.83932 z"
       inkscape:connector-curvature="0" />
    <path
       style="fill:#000000;fill-opacity:1;fill-rule:nonzero;stroke:none"
       id="path9273"
       d="m 59.923282,504.92534 c 1.83303,0 3.66606,0 5.4991,0 1.00971,0 2.01942,0 3.02913,0 -0.49302,0.0881 -0.29644,-0.01 -0.61722,0.23677 0.77209,-1.10139 2.39651,-0.0544 1.62442,1.04697 l 0,0 c -0.51496,0.53268 -0.19321,0.31467 -1.0072,0.59302 -1.00971,0 -2.01942,0 -3.02913,0 -1.83304,0 -3.66607,0 -5.4991,0 -1.38402,0 -1.38402,-1.87676 0,-1.87676 z"
       inkscape:connector-curvature="0" />
    <path
       style="fill:#000000;fill-opacity:1;fill-rule:nonzero;stroke:none"
       id="path9275"
       d="m -83.068819,658.80342 c 0.432,3.33309 0.88306,6.66375 1.20294,10.00987 0.38438,2.92318 0.80686,5.84085 1.13961,8.77016 0.0609,0.57148 0.12695,1.14264 0.17284,1.7155 0.14046,1.76458 -2.44255,1.9565 -2.58301,0.19192 l 0,0 c -0.0431,-0.54585 -0.10796,-1.08988 -0.16501,-1.63444 -0.33424,-2.94367 -0.76178,-5.87525 -1.14411,-8.81322 -0.31078,-3.25886 -0.75535,-6.50133 -1.16358,-9.74893 -0.35926,-1.73543 2.18107,-2.22628 2.54032,-0.49086 z"
       inkscape:connector-curvature="0" />
    <path
       style="fill:#000000;fill-opacity:1;fill-rule:nonzero;stroke:none"
       id="path9277"
       d="m -84.608379,653.89381 c 2.00721,-1.21394 4.32518,-1.70422 6.62803,-2.07932 3.1881,-0.2713 4.99758,1.01622 6.23163,3.74839 0.74181,2.88608 -0.38882,4.82715 -2.51569,6.76105 -2.37014,1.73538 -5.32219,2.11538 -8.19701,2.38357 -0.85641,0.0661 -1.71468,0.10904 -2.57359,0.12747 -0.30417,0.007 -0.6828,0.007 -0.68274,0.004 0.0203,-0.84159 0.18772,-1.67384 0.28158,-2.51076 1.83112,-0.05 1.9043,2.45188 0.0732,2.50187 l 0,0 c -0.11174,-0.8313 -0.27969,-1.65734 -0.33522,-2.49391 -1.1e-4,-0.002 0.12926,0.006 0.58859,-0.003 0.80153,-0.0167 1.60247,-0.0565 2.40174,-0.11715 2.30215,-0.21015 4.71873,-0.44499 6.68302,-1.72824 1.22256,-1.07101 2.22206,-2.2616 1.88359,-3.96499 -0.64767,-1.63879 -1.48136,-2.38514 -3.41165,-2.2397 -2.0536,0.32901 -4.11529,0.75156 -5.89689,1.84939 -1.63846,0.79148 -2.79702,-1.44716 -1.15857,-2.23863 z"
       inkscape:connector-curvature="0" />
    <path
       style="fill:#000000;fill-opacity:1;fill-rule:nonzero;stroke:none"
       id="path9279"
       d="m -73.874229,676.66285 c -0.80598,1.16902 -1.40489,2.41371 -1.61686,3.74918 -0.012,0.73237 0.24488,1.61919 1.29341,1.65105 1.27959,-0.10039 1.77496,-1.13562 2.14346,-2.01151 0.28732,-0.95354 0.60552,-2.00728 -0.25265,-2.81298 -0.497,-0.32939 -1.09389,-0.45941 -1.71295,-0.52879 -0.0727,-0.004 -0.14514,-0.01 -0.21788,-0.0125 -1.29055,0.17239 -1.58632,-1.3319 -0.29577,-1.50428 l 0,0 c 0.25815,-0.0279 0.51758,-0.0201 0.77572,0.008 1.10915,0.13528 2.13397,0.43828 2.92975,1.12269 1.18117,1.3952 1.05725,2.65555 0.51361,4.24336 -0.73045,1.62996 -1.93154,3.08816 -4.28308,2.98363 -0.30221,-0.071 -0.62059,-0.10565 -0.90663,-0.21288 -1.46533,-0.54936 -1.86341,-1.94402 -1.81772,-3.13924 0.28697,-1.58388 0.95049,-3.0811 1.96845,-4.45032 0.78443,-0.86205 2.26357,0.0523 1.47914,0.91435 z"
       inkscape:connector-curvature="0" />
    <path
       style="fill:#000000;fill-opacity:1;fill-rule:nonzero;stroke:none"
       id="path9281"
       d="m -66.026359,676.52885 c 0.32171,1.30104 0.4169,2.63015 0.49962,3.95327 0.14699,0.58792 0.11235,1.35585 0.62355,1.7806 0.15002,0.18132 -0.43366,-0.17983 -0.32942,-0.27618 0.50138,-0.46343 1.17094,-0.83639 1.70014,-1.33439 0.74045,-0.67052 1.29027,-1.44364 1.66125,-2.2928 0.13643,-0.40259 0.13297,-0.82116 0.13359,-1.23542 -0.001,-0.19642 -0.006,-0.39285 -0.0157,-0.58909 -3e-4,-0.004 -4.4e-4,-0.008 -6e-4,-0.0119 0.61532,0.0434 1.24621,0.009 1.84595,0.13003 0.0157,0.004 -0.001,0.90534 -0.001,1.34815 -0.0882,1.08579 0.33521,2.07353 0.83076,3.05579 -0.20762,-0.21868 0.95158,1.24514 0.91193,0.96392 -0.0813,-0.57658 -0.16536,0.1726 -0.11518,-0.17697 0.0424,-0.0434 0.0849,-0.0868 0.1273,-0.13013 1.00387,-0.69033 2.18835,0.47981 1.18447,1.17014 l 0,0 c -0.19655,0.12095 -0.39311,0.24191 -0.58966,0.36288 -0.25095,0.0646 -0.4905,0.17975 -0.75285,0.19393 -1.30566,0.0706 -1.95671,-1.00611 -2.47348,-1.79916 -0.58758,-1.16696 -1.05776,-2.35593 -0.97222,-3.6406 8e-5,-0.42469 -0.0248,-1.35119 10e-4,-1.35774 0.59556,-0.14807 1.2324,-0.14047 1.8486,-0.21071 6.1e-4,0.01 0.001,0.0193 0.002,0.029 0.0115,0.22159 0.017,0.44336 0.0178,0.66516 -0.002,0.5912 -0.0204,1.18582 -0.24507,1.7539 -0.4571,1.02672 -1.11922,1.96832 -2.01465,2.78211 -0.62703,0.57822 -2.02353,1.89847 -3.04159,1.9249 -0.32392,0.008 -0.63001,-0.12558 -0.94502,-0.18837 -0.918,-0.77858 -1.09912,-1.78645 -1.23818,-2.83881 -0.0762,-1.22512 -0.16208,-2.45535 -0.44687,-3.66189 -0.31709,-1.04539 1.47663,-1.415 1.79372,-0.3696 z"
       inkscape:connector-curvature="0" />
    <path
       style="fill:#000000;fill-opacity:1;fill-rule:nonzero;stroke:none"
       id="path9283"
       d="m -54.316499,669.92521 c 0.42179,1.91761 0.43606,3.88092 0.5005,5.82391 0.0237,1.85728 -2.3e-4,3.70536 0.34227,5.54431 0.0883,0.3378 0.12887,0.69324 0.26683,1.02073 0.4553,1.01012 -1.27788,1.54083 -1.73318,0.53072 l 0,0 c -0.18386,-0.42626 -0.25839,-0.87903 -0.36137,-1.32128 -0.35102,-1.90177 -0.3462,-3.81221 -0.36279,-5.7329 -0.0606,-1.83314 -0.0754,-3.68355 -0.44598,-5.49589 -0.31709,-1.04539 1.47662,-1.415 1.79372,-0.3696 z"
       inkscape:connector-curvature="0" />
    <path
       style="fill:#000000;fill-opacity:1;fill-rule:nonzero;stroke:none"
       id="path9285"
       d="m -57.233219,674.77621 c 1.55331,0.25165 3.13917,0.30889 4.71666,0.3681 1.28748,0.0418 2.57594,0.0556 3.86429,0.0598 0.27792,-0.18432 -0.0488,0.0457 0.0662,-0.062 1.16542,-0.48835 2.00335,0.87008 0.83794,1.35844 l 0,0 c -0.55272,0.20238 -0.25125,0.12059 -0.91129,0.22746 -1.31407,-0.004 -2.62825,-0.0184 -3.94142,-0.0613 -1.69995,-0.0641 -3.40944,-0.12855 -5.08077,-0.41202 -1.26835,-0.26135 -0.81992,-1.73976 0.44843,-1.47841 z"
       inkscape:connector-curvature="0" />
    <path
       style="fill:#000000;fill-opacity:1;fill-rule:nonzero;stroke:none"
       id="path9287"
       d="m -76.160459,695.51216 c 0.53156,2.68599 0.54176,5.42969 0.78672,8.14588 0.28217,3.56685 0.67099,7.11635 1.15093,10.66279 0.20058,1.56862 0.39092,3.1387 0.54795,4.71202 0.006,0.0623 0.0117,0.12453 0.0175,0.1868 0.16524,1.76258 -2.41483,1.98835 -2.58008,0.22577 l 0,0 c -0.006,-0.0575 -0.0108,-0.11498 -0.0162,-0.17246 -0.15406,-1.54516 -0.34138,-3.08709 -0.53804,-4.62765 -0.48482,-3.58249 -0.87725,-7.16835 -1.16314,-10.77133 -0.23388,-2.62432 -0.24848,-5.27427 -0.74606,-7.87097 -0.35926,-1.73543 2.18106,-2.22628 2.54032,-0.49085 z"
       inkscape:connector-curvature="0" />
    <path
       style="fill:#000000;fill-opacity:1;fill-rule:nonzero;stroke:none"
       id="path9289"
       d="m -79.225599,693.0628 c 2.78904,-0.94252 5.72338,-1.17571 8.65495,-1.13305 2.73947,0.37918 4.73506,1.32418 5.952,3.77006 0.71005,2.79271 -1.65543,4.6319 -3.66869,6.20832 -2.28467,1.52712 -4.78479,2.62255 -7.45009,3.34548 -0.83416,0.19378 -1.67435,0.40306 -2.53337,0.46144 -0.0496,6e-4 -0.0992,10e-4 -0.14883,0.002 -1.8318,-0.0141 -1.81124,-2.51683 0.0206,-2.50279 l 0,0 c -0.0107,10e-4 -0.0212,0.002 -0.0318,0.003 0.67655,-0.0547 1.33817,-0.2236 1.99684,-0.37402 2.32993,-0.62456 4.50856,-1.57661 6.52183,-2.88411 1.03418,-0.79871 2.74751,-1.87325 2.92889,-3.23682 -0.58089,-1.47506 -2.10023,-2.03573 -3.62951,-2.28972 -2.58906,-0.0443 -5.17861,0.14576 -7.65057,0.95437 -1.70083,0.65728 -2.66297,-1.66657 -0.96214,-2.32385 z"
       inkscape:connector-curvature="0" />
    <path
       style="fill:#000000;fill-opacity:1;fill-rule:nonzero;stroke:none"
       id="path9291"
       d="m -68.377979,713.96319 c 0.63779,1.21554 0.91407,2.51664 1.10677,3.81485 0.10885,0.78929 0.15267,1.5829 0.16308,2.37638 -0.01,0.72931 0.0985,0.11751 -0.26014,-0.12181 -0.008,-0.003 -0.0157,-0.006 -0.0236,-0.009 1.35471,0.25826 0.88965,1.76287 -0.46506,1.50461 l 0,0 c -0.0608,-0.0132 -0.12165,-0.0263 -0.18247,-0.0395 -0.71883,-0.23157 -1.11256,-0.69557 -1.04011,-1.3183 -0.009,-0.73928 -0.0495,-1.47869 -0.15011,-2.2141 -0.16378,-1.12053 -0.3949,-2.24202 -0.9117,-3.30042 -0.62345,-0.97923 1.13991,-1.67166 1.76334,-0.69242 z"
       inkscape:connector-curvature="0" />
    <path
       style="fill:#000000;fill-opacity:1;fill-rule:nonzero;stroke:none"
       id="path9293"
       d="m -70.798489,709.85659 c 0.33641,-0.5284 0.67283,-1.05681 1.00924,-1.58521 0.0522,-0.082 0.1044,-0.16398 0.1566,-0.24596 2.03896,0.94067 1.88701,0.58936 1.07647,1.772 -0.20154,0.30124 -0.39836,0.6045 -0.58603,0.91123 0.0946,-0.21845 0.0464,0.10047 0.0465,0.16846 0.005,0.0581 -3.6e-4,-10e-4 -0.005,-0.0205 0.20041,1.08345 -1.75059,1.30604 -1.95101,0.2226 l 0,0 c -0.009,-0.063 -0.0169,-0.12592 -0.0159,-0.18942 -0.002,-0.28913 0.0156,-0.57772 0.14814,-0.85193 0.20116,-0.32847 0.4117,-0.65337 0.62798,-0.97585 0.78211,-1.13499 0.11887,-1.11257 2.42173,-0.34409 -0.0522,0.082 -0.10439,0.16398 -0.15659,0.24597 -0.33641,0.5284 -0.67283,1.0568 -1.00924,1.58521 -0.62344,0.97923 -2.38678,0.28681 -1.76335,-0.69242 z"
       inkscape:connector-curvature="0" />
    <path
       style="fill:#000000;fill-opacity:1;fill-rule:nonzero;stroke:none"
       id="path9301"
       d="m -63.781829,714.12164 c 0.35014,1.15215 0.45051,2.33566 0.5326,3.51444 0.0525,0.9255 0.0731,1.85195 0.0797,2.77829 10e-5,0.14739 0.003,0.29485 -0.006,0.4421 -0.6567,-0.086 -1.33984,-0.0896 -1.97013,-0.25807 -0.0695,-0.0186 0.0666,-1.9971 0.0859,-2.126 0.20113,-1.04222 0.58858,-2.05732 1.02696,-3.05171 0.37141,-0.87697 0.90489,-1.70143 1.32016,-2.56577 0.55249,-0.81759 1.11506,-1.08811 2.28643,-1.04308 1.12617,0.25646 1.87591,0.89766 2.42923,1.67572 0.59641,1.19102 0.93612,2.44049 1.18941,3.70031 0.23569,0.68357 0.42868,1.38158 0.83562,2.01651 0.0637,0.1858 0.71337,0.77805 0.13334,0.29136 -0.4031,-0.0642 -0.42375,-0.0241 -0.0799,-0.11366 1.32629,-0.33715 1.93344,1.1359 0.60714,1.47306 l 0,0 c -0.59097,0.14775 -0.23113,0.0831 -1.09631,0.12301 -0.68993,-0.198 -1.02223,-0.58994 -1.33089,-1.08644 -0.48602,-0.7794 -0.75811,-1.6217 -1.01654,-2.46305 -0.21971,-1.09945 -0.51398,-2.18574 -0.99656,-3.23516 -0.19968,-0.38564 -0.57511,-0.66079 -1.03987,-0.86016 0.29313,-0.0848 0.1063,-0.12918 -0.0768,0.0687 -0.4103,0.8523 -0.93126,1.66685 -1.30349,2.52974 -0.40138,0.89076 -0.74193,1.80472 -0.93262,2.73845 -0.10857,0.58593 -0.041,1.9132 -0.0698,1.91926 -0.63644,0.13359 -1.31142,0.0998 -1.96713,0.14966 -2e-5,-0.10536 1.9e-4,-0.21073 1.1e-4,-0.31609 -0.006,-0.90114 -0.0263,-1.8024 -0.0769,-2.70273 -0.0746,-1.08061 -0.16038,-2.16609 -0.47665,-3.22313 -0.3381,-1.06213 1.57452,-1.43765 1.91262,-0.37552 z"
       inkscape:connector-curvature="0" />
    <path
       style="fill:#000000;fill-opacity:1;fill-rule:nonzero;stroke:none"
       id="path9303"
       d="m -91.674289,689.74851 c 6.11971,-0.95903 12.28451,-1.62806 18.44309,-2.30834 8.08212,-0.87947 16.20223,-1.35021 24.32684,-1.65149 2.2326,-0.0599 4.46586,-0.15172 6.69983,-0.1442 1.23716,-0.29578 1.16142,2.45164 0.0195,2.53198 -0.014,-2.91531 -0.80673,-2.8453 1.13789,-2.0284 1.25228,1.29167 -0.63848,3.00267 -1.89076,1.711 l 0,0 c 1.79569,0.55248 1.02264,0.62339 0.5797,-2.17986 0.94108,-0.0663 0.41992,2.9084 0.14419,2.46813 -2.19766,-0.008 -4.39465,0.0849 -6.59097,0.14238 -8.05948,0.29858 -16.11452,0.76498 -24.13187,1.63712 -6.13451,0.67762 -12.27539,1.34309 -18.371,2.29939 -1.81344,0.25029 -2.17982,-2.22742 -0.36637,-2.47771 z"
       inkscape:connector-curvature="0" />
    <path
       inkscape:connector-curvature="0"
       d="m 312.9044,737.05717 c -2.24532,3.5045 -4.10213,7.15308 -5.6782,10.96497 -1.29423,3.70857 -2.96014,7.84574 -1.34225,11.68221 1.60337,1.61932 3.50421,-0.16534 4.86721,-1.20062 1.9013,-1.7706 3.17706,-3.96457 4.66404,-6.01904 4.26535,-3.45956 3.62126,3.27416 3.89149,4.74288 0.10246,0.55682 0.28912,1.09707 0.43368,1.64561 1.41015,4.02947 3.82669,5.91502 8.26149,6.56503 5.36941,-0.31564 7.7996,-2.83169 9.98822,-7.15834 1.71658,-4.74826 -0.57304,-8.87753 -3.2598,-12.81724 -1.48225,-1.80417 -3.10927,-3.55903 -5.09613,-4.891 -1.78639,-1.03446 -0.57729,-1.83641 0.63861,-3.19767 0.22671,-0.25381 1.41031,0.39782 1.80217,0.56228 1.76998,1.58638 -0.61978,3.93627 -2.38976,2.34989 l 0,0 c 1.51426,0.43227 1.83511,0.83401 2.28999,-1.81981 0.0551,-0.32103 -0.5022,-0.46079 -0.67127,-0.74457 -0.069,-0.11587 0.23756,0.144 0.35635,0.216 2.32822,1.59087 4.27879,3.61699 5.9897,5.7806 3.46454,5.13833 5.73104,9.88354 3.45076,15.9855 -3.14403,5.92727 -6.39679,8.73469 -13.72773,8.92913 -0.91048,-0.17508 -1.84964,-0.24963 -2.73143,-0.52524 -4.17416,-1.30471 -7.06102,-4.62036 -8.26834,-8.48429 -0.0679,-0.27783 -1.22754,-5.33051 -0.63095,-5.33077 2.66777,-7.8e-4 1.85943,0.9305 2.52606,0.0308 -1.70741,2.30157 -3.12066,4.80965 -5.37031,6.72848 -3.73346,2.72424 -7.13324,4.06719 -10.27194,-0.25168 -1.75128,-4.89948 -0.39324,-9.22203 1.37457,-13.95525 1.61857,-3.90312 3.50597,-7.65245 5.8084,-11.24075 1.09437,-2.05477 4.18975,-0.60183 3.09537,1.45294 z"
       id="path9311"
       style="fill:#000000;fill-opacity:1;fill-rule:nonzero;stroke:none" />
    <path
       style="fill:none;stroke:#000000;stroke-width:2.06220484;stroke-linecap:round;stroke-linejoin:miter;stroke-miterlimit:4;stroke-opacity:1;stroke-dasharray:2.06220484, 12.37322903;stroke-dashoffset:0"
       d="m 313.52296,100.33381 2.78687,741.30761"
       id="path9315"
       inkscape:connector-curvature="0"
       transform="translate(-79.27391,-76.222157)" />
    <path
       style="fill:#000000;fill-opacity:1;fill-rule:nonzero;stroke:none"
       id="path9317"
       d="m 230.81662,765.91392 c -1.98857,2.92381 -3.63305,5.96781 -5.0289,9.14807 -1.14622,3.09406 -2.62164,6.54572 -1.18875,9.74649 1.42002,1.35099 3.10349,-0.13798 4.31064,-1.00168 1.68387,-1.47723 2.81376,-3.30764 4.13069,-5.02169 3.77761,-2.88631 3.20717,2.73162 3.4465,3.95698 0.0908,0.46456 0.25606,0.9153 0.3841,1.37293 1.24889,3.36178 3.38909,4.93491 7.31678,5.47722 4.75541,-0.26335 6.9077,-2.3625 8.84605,-5.97221 1.5203,-3.96148 -0.50751,-7.40654 -2.88704,-10.69344 -1.31276,-1.50521 -2.75372,-2.96931 -4.51338,-4.08056 -1.58212,-0.86304 -0.51127,-1.53211 0.56559,-2.66783 0.20078,-0.21175 1.24903,0.33191 1.59608,0.46913 1.56758,1.3235 -0.5489,3.28401 -2.11648,1.96051 l 0,0 c 1.34111,0.36063 1.62525,0.69581 2.02813,-1.51826 0.0489,-0.26784 -0.44478,-0.38445 -0.59451,-0.6212 -0.061,-0.0966 0.21039,0.1201 0.3156,0.18021 2.06197,1.32726 3.78951,3.01764 5.30476,4.82275 3.06837,4.2869 5.07569,8.24584 3.05618,13.33671 -2.78451,4.94512 -5.66532,7.28736 -12.15796,7.44959 -0.80637,-0.14602 -1.63813,-0.20828 -2.41909,-0.43822 -3.69684,-1.08851 -6.25359,-3.85477 -7.32285,-7.07844 -0.0601,-0.23181 -1.08717,-4.44726 -0.5588,-4.44746 2.36271,-7.1e-4 1.6468,0.77632 2.2372,0.0256 -1.51216,1.92019 -2.76381,4.01269 -4.7562,5.61357 -3.30655,2.27284 -6.31755,3.39325 -9.09734,-0.20996 -1.55102,-4.08765 -0.34828,-7.69395 1.21739,-11.6429 1.43348,-3.25637 3.10505,-6.38442 5.14419,-9.37816 0.96924,-1.71428 3.71066,-0.50212 2.74142,1.2122 z"
       inkscape:connector-curvature="0" />
    <path
       style="fill:#000000;fill-opacity:1;fill-rule:nonzero;stroke:none"
       id="path9327"
       d="m 265.25669,793.02445 c -0.87078,-0.89939 -2.176,-1.64135 -3.69951,-2.18904 -1.62854,-0.43939 -1.28743,-0.35796 -2.23983,0.25592 -1.60625,1.3134 -2.00235,2.95119 -2.36022,4.49745 -0.6347,2.98545 0.22418,5.97545 1.03051,8.92179 0.64691,1.95365 1.43775,3.89037 2.10156,5.8421 0.10583,0.32988 0.22496,0.65875 0.30528,0.99104 0.23808,1.18032 -2.71456,1.37066 -2.95265,0.19035 l 0,0 c -0.073,-0.26879 -0.17817,-0.58631 -0.27098,-0.86422 -0.6704,-1.9718 -1.47294,-3.92803 -2.12007,-5.90247 -0.84919,-3.10473 -1.72452,-6.25479 -1.03959,-9.39971 0.44965,-1.88972 1.01167,-3.85622 3.11551,-5.41158 2.02454,-1.21435 3.50416,-1.31817 6.05952,-0.5258 1.9388,0.73322 3.63164,1.6648 4.72852,2.84283 0.93976,1.06256 -1.71829,1.81389 -2.65805,0.75134 z"
       inkscape:connector-curvature="0" />
    <path
       style="fill:#000000;fill-opacity:1;fill-rule:nonzero;stroke:none"
       id="path9329"
       d="m 252.84763,800.56022 c 2.2521,0.25954 4.45508,0.62079 6.72762,0.83066 1.06396,0.0861 2.13072,0.16861 3.20348,0.21087 0.16626,0.006 0.31114,8e-4 0.55427,-0.001 0.15745,-10e-4 0.3149,-0.002 0.47234,-0.003 0.4753,0.004 -1.11305,-0.29332 1.19779,0.30068 1.51607,0.82262 -0.54176,2.0347 -2.05782,1.21209 l 0,0 c 0.64165,0.11598 1.25203,0.16751 0.89702,0.16715 -0.15696,0.001 -0.31391,0.002 -0.47087,0.003 -0.26723,0.002 -0.53497,0.008 -0.80185,-0.003 -1.16402,-0.0469 -2.32204,-0.13373 -3.47632,-0.22895 -2.30575,-0.21542 -4.54522,-0.5725 -6.82848,-0.84104 -2.06056,-0.23298 -1.47774,-1.8804 0.58282,-1.64742 z"
       inkscape:connector-curvature="0" />
    <path
       style="fill:none;stroke:#000000;stroke-width:3.18897629;stroke-linecap:butt;stroke-linejoin:miter;stroke-miterlimit:4;stroke-opacity:1;stroke-dasharray:none"
       d="M 100.32735,146.31717 312.12952,266.15261"
       id="path9331"
       inkscape:connector-curvature="0"
       transform="translate(-79.27391,-76.222157)" />
    <path
       style="fill:none;stroke:#000000;stroke-width:3.18897629;stroke-linecap:butt;stroke-linejoin:miter;stroke-miterlimit:4;stroke-opacity:1;stroke-dasharray:none"
       d="M 101.72078,331.64408 312.12952,451.47952"
       id="path9333"
       inkscape:connector-curvature="0"
       transform="translate(-79.27391,-76.222157)" />
    <path
       style="fill:none;stroke:#000000;stroke-width:3.18897629;stroke-linecap:butt;stroke-linejoin:miter;stroke-miterlimit:4;stroke-opacity:1;stroke-dasharray:none"
       d="M 101.72078,510.0038 316.30983,636.80642"
       id="path9335"
       inkscape:connector-curvature="0"
       transform="translate(-79.27391,-76.222157)" />
    <path
       style="fill:#000000;fill-opacity:1;fill-rule:nonzero;stroke:none"
       id="path9345"
       d="m 103.33557,632.09874 c 1.26365,-1.85873 2.52683,-3.71642 3.77313,-5.59053 0.96093,-1.2612 2.11513,-2.33865 3.12968,-3.54906 1.59679,-1.29718 3.26192,-2.49839 4.91218,-3.73577 2.25436,-1.57499 4.55372,-3.10855 6.88899,-4.56432 2.07278,-1.48935 4.3004,-2.70164 6.47759,-4.01442 2.33719,-1.33578 4.65151,-2.69924 7.13787,-3.74109 2.00263,-0.95878 3.94446,-2.03293 5.9462,-2.99195 2.12454,-0.74516 4.12108,-1.78283 6.17652,-2.68801 2.0657,-0.62143 4.0519,-1.46732 6.12408,-2.06834 2.31035,-0.81744 4.62041,-1.65017 6.97003,-2.35148 2.34047,-0.73707 4.78406,-0.95103 7.22067,-1.07007 2.68172,-0.60256 5.40712,-0.94421 8.14221,-1.18076 2.31109,-0.41778 4.57101,-1.04891 6.89897,-1.37484 2.50919,-0.26891 5.03731,-0.26201 7.55774,-0.27485 2.76909,-0.005 5.53818,0.002 8.30726,0.005 2.79032,0.003 5.58064,0.004 8.37096,0.004 2.31852,2.6e-4 4.63703,2.2e-4 6.95555,1.9e-4 1.64198,-3e-5 3.28395,-5e-5 4.92593,-6e-5 1.84966,-10e-6 3.69932,0 5.54897,0 2.30502,0.32302 4.54736,0.90271 6.86568,1.15334 2.4419,0.47629 4.77477,1.32332 7.11939,2.13206 2.26074,0.56293 4.47601,1.28494 6.76435,1.73918 2.42605,0.41688 4.78005,1.17184 7.05094,2.10886 2.0379,0.59932 3.98008,1.45553 6.01314,2.07386 1.76474,0.75775 3.56851,1.41713 5.2538,2.34355 1.55312,0.83867 3.08083,1.72442 4.62292,2.59254 1.5914,0.76966 3.1265,1.67869 4.65337,2.57702 1.59603,0.86441 3.11591,1.8607 4.67965,2.78252 1.85993,1.16282 3.72911,2.34131 5.70991,3.29029 1.8924,0.77628 3.64167,1.85012 5.48815,2.71966 1.72386,0.67874 3.46516,1.47628 5.01368,2.50139 0.86388,0.72341 1.7806,1.49006 2.79398,1.99617 1.35901,0.96169 2.95652,1.43108 4.3575,2.30061 1.03291,0.62518 1.99646,1.33751 2.92188,2.11132 0.79907,0.68231 1.54303,1.42664 2.28746,2.16742 0.7095,0.70939 1.41718,1.42058 2.12569,2.13096 1.14613,0.74064 2.25332,1.70779 3.25525,2.68776 0.80847,0.70366 1.66492,1.35221 2.55869,1.94354 0.0413,0.0262 0.16759,0.10069 0.12397,0.0785 -0.13016,-0.0713 -0.26032,-0.14258 -0.39049,-0.21386 0.0236,-10e-4 0.0472,-0.002 0.0708,-0.004 0.40158,0.17862 0.82783,0.30978 1.20475,0.53586 0.34206,0.20516 0.64287,0.62867 0.89001,0.94124 0.29368,0.41167 0.52858,0.85974 0.68608,1.33979 0.0152,0.059 0.0305,0.11807 0.0457,0.17711 0.64678,2.88429 -3.43222,3.79899 -4.07901,0.9147 l 0,0 c 0.0114,0.0418 0.0228,0.0837 0.0341,0.12549 -0.011,-0.0172 -0.0245,-0.033 -0.0331,-0.0515 1.88348,0.41781 -0.36751,0.0566 -0.86407,-0.36047 -1.12551,-0.74847 -2.20707,-1.56604 -3.20803,-2.47555 -0.97424,-1.02218 -2.12237,-1.85356 -3.25447,-2.68698 -0.70487,-0.70673 -1.40893,-1.41426 -2.11476,-2.12004 -0.65945,-0.65643 -1.31716,-1.31754 -2.02226,-1.92524 -0.83281,-0.69842 -1.70218,-1.32802 -2.63396,-1.89077 -1.27893,-0.65135 -2.74803,-1.2209 -3.98232,-2.06676 -1.12794,-0.64999 -2.24828,-1.40092 -3.21902,-2.26543 -1.03793,-1.07643 -3.09612,-1.39391 -4.36614,-2.11783 -1.85087,-0.88988 -3.62127,-1.94428 -5.52021,-2.7351 -2.07452,-1.02237 -4.06633,-2.21428 -6.01632,-3.45561 -1.55817,-0.93292 -3.08088,-1.92228 -4.68073,-2.78317 -1.48854,-0.89996 -3.00828,-1.77535 -4.57228,-2.52999 -1.52925,-0.8669 -3.03812,-1.76257 -4.59019,-2.57424 -1.42601,-0.79562 -2.96998,-1.31733 -4.45051,-2.00314 -2.15979,-0.66146 -4.22543,-1.55886 -6.3877,-2.20799 -2.02229,-0.83519 -4.11393,-1.51526 -6.27831,-1.87429 -2.46971,-0.50017 -4.86847,-1.25656 -7.30504,-1.88597 -2.05324,-0.70826 -4.08935,-1.44661 -6.21165,-1.92845 -2.165,-0.24006 -4.28274,-0.67404 -6.41027,-1.12846 -1.84966,0 -3.69931,0 -5.54896,1e-5 -1.64196,10e-6 -3.28393,2e-5 -4.92589,5e-5 -2.31875,4e-5 -4.6375,8e-5 -6.95626,-1.8e-4 -2.79183,-4.4e-4 -5.58367,-0.001 -8.37551,-0.004 -2.76029,-0.003 -5.52059,-0.0108 -8.28088,-0.006 -2.33706,0.0118 -4.68088,0.003 -7.00884,0.23585 -2.39945,0.32339 -4.71503,1.04941 -7.11086,1.39852 -2.79057,0.23854 -5.55158,0.64901 -8.29948,1.1913 -2.10197,0.0994 -4.21312,0.26325 -6.23224,0.90215 -2.36535,0.69734 -4.6814,1.55468 -7.00997,2.36311 -1.89698,0.5324 -3.6981,1.34917 -5.59675,1.87845 -2.01606,0.87671 -3.96294,1.91664 -6.04903,2.62962 -2.06978,0.98886 -4.07217,2.10892 -6.15038,3.08302 -2.30923,0.94304 -4.42684,2.2555 -6.59898,3.47076 -2.16967,1.27975 -4.35169,2.51018 -6.41246,3.97482 -2.24047,1.38262 -4.43257,2.86606 -6.59496,4.36407 -1.40344,1.0382 -2.73755,2.15435 -4.21696,3.08169 -0.92216,1.0852 -1.94417,2.06065 -2.84307,3.1676 -1.29132,1.9385 -2.59982,3.85824 -3.90882,5.78247 -1.77355,2.36473 -5.1178,-0.14345 -3.34424,-2.50819 z"
       inkscape:connector-curvature="0"
       transform="translate(-79.27391,-76.222157)" />
    <path
       style="fill:none;stroke:#000000;stroke-width:3.18897629;stroke-linecap:butt;stroke-linejoin:miter;stroke-miterlimit:4;stroke-opacity:1;stroke-dasharray:none"
       d="M 108.68796,822.13332 314.91639,692.54383"
       id="path9349"
       inkscape:connector-curvature="0"
       transform="translate(-79.27391,-76.222157)" />
    <path
       style="fill:none;stroke:#000000;stroke-width:2.41653538;stroke-linecap:butt;stroke-linejoin:miter;stroke-miterlimit:4;stroke-opacity:1;stroke-dasharray:7.24960613, 7.24960613;stroke-dashoffset:0"
       d="M 103.11422,692.54383 316.30983,691.1504"
       id="path9351"
       inkscape:connector-curvature="0"
       transform="translate(-79.27391,-76.222157)" />
    <path
       inkscape:connector-curvature="0"
       d="m 78.510866,427.97257 c 0.53156,2.68599 0.54176,5.42969 0.78672,8.14588 0.28217,3.56685 0.67099,7.11635 1.15093,10.66279 0.20058,1.56862 0.39092,3.1387 0.54795,4.71202 0.006,0.0623 0.0117,0.12453 0.0175,0.1868 0.16524,1.76258 -2.41483,1.98835 -2.58008,0.22577 l 0,0 c -0.006,-0.0575 -0.0108,-0.11498 -0.0162,-0.17246 -0.15406,-1.54516 -0.34138,-3.08709 -0.53804,-4.62765 -0.48482,-3.58249 -0.87725,-7.16835 -1.16314,-10.77133 -0.23388,-2.62432 -0.24848,-5.27427 -0.74606,-7.87097 -0.35926,-1.73543 2.18106,-2.22628 2.54032,-0.49085 z"
       id="path9353"
       style="fill:#000000;fill-opacity:1;fill-rule:nonzero;stroke:none" />
    <path
       inkscape:connector-curvature="0"
       d="m 75.445726,425.52321 c 2.78904,-0.94252 5.72338,-1.17571 8.65495,-1.13305 2.73947,0.37918 4.73506,1.32418 5.952,3.77006 0.71005,2.79271 -1.65543,4.6319 -3.66869,6.20832 -2.28467,1.52712 -4.78479,2.62255 -7.45009,3.34548 -0.83416,0.19378 -1.67435,0.40306 -2.53337,0.46144 -0.0496,6e-4 -0.0992,0.001 -0.14883,0.002 -1.8318,-0.0141 -1.81124,-2.51683 0.0206,-2.50279 l 0,0 c -0.0107,0.001 -0.0212,0.002 -0.0318,0.003 0.67655,-0.0547 1.33817,-0.2236 1.99684,-0.37402 2.32993,-0.62456 4.50856,-1.57661 6.52183,-2.88411 1.03418,-0.79871 2.74751,-1.87325 2.92889,-3.23682 -0.58089,-1.47506 -2.10023,-2.03573 -3.62951,-2.28972 -2.58906,-0.0443 -5.17861,0.14576 -7.65057,0.95437 -1.70083,0.65728 -2.66297,-1.66657 -0.96214,-2.32385 z"
       id="path9355"
       style="fill:#000000;fill-opacity:1;fill-rule:nonzero;stroke:none" />
    <path
       inkscape:connector-curvature="0"
       d="m 86.293346,446.4236 c 0.63779,1.21554 0.91407,2.51664 1.10677,3.81485 0.10885,0.78929 0.15267,1.5829 0.16308,2.37638 -0.01,0.72931 0.0985,0.11751 -0.26014,-0.12181 -0.008,-0.003 -0.0157,-0.006 -0.0236,-0.009 1.35471,0.25826 0.88965,1.76287 -0.46506,1.50461 l 0,0 c -0.0608,-0.0132 -0.12165,-0.0263 -0.18247,-0.0395 -0.71883,-0.23157 -1.11256,-0.69557 -1.04011,-1.3183 -0.009,-0.73928 -0.0495,-1.47869 -0.15011,-2.2141 -0.16378,-1.12053 -0.3949,-2.24202 -0.9117,-3.30042 -0.62345,-0.97923 1.13991,-1.67166 1.76334,-0.69242 z"
       id="path9357"
       style="fill:#000000;fill-opacity:1;fill-rule:nonzero;stroke:none" />
    <path
       inkscape:connector-curvature="0"
       d="m 83.872836,442.317 c 0.33641,-0.5284 0.67283,-1.05681 1.00924,-1.58521 0.0522,-0.082 0.1044,-0.16398 0.1566,-0.24596 2.03896,0.94067 1.88701,0.58936 1.07647,1.772 -0.20154,0.30124 -0.39836,0.6045 -0.58603,0.91123 0.0946,-0.21845 0.0464,0.10047 0.0465,0.16846 0.005,0.0581 -3.6e-4,-10e-4 -0.005,-0.0205 0.20041,1.08345 -1.75059,1.30604 -1.95101,0.2226 l 0,0 c -0.009,-0.063 -0.0169,-0.12592 -0.0159,-0.18942 -0.002,-0.28913 0.0156,-0.57772 0.14814,-0.85193 0.20116,-0.32847 0.4117,-0.65337 0.62798,-0.97585 0.78211,-1.13499 0.11887,-1.11257 2.42173,-0.34409 -0.0522,0.082 -0.10439,0.16398 -0.15659,0.24597 -0.33641,0.5284 -0.67283,1.0568 -1.00924,1.58521 -0.62344,0.97923 -2.38678,0.28681 -1.76335,-0.69242 z"
       id="path9359"
       style="fill:#000000;fill-opacity:1;fill-rule:nonzero;stroke:none" />
    <path
       inkscape:connector-curvature="0"
       d="m 90.889496,446.58205 c 0.35014,1.15215 0.45051,2.33566 0.5326,3.51444 0.0525,0.9255 0.0731,1.85195 0.0797,2.77829 1e-4,0.14739 0.003,0.29485 -0.006,0.4421 -0.6567,-0.086 -1.33984,-0.0896 -1.97013,-0.25807 -0.0695,-0.0186 0.0666,-1.9971 0.0859,-2.126 0.20113,-1.04222 0.58858,-2.05732 1.02696,-3.05171 0.37141,-0.87697 0.90489,-1.70143 1.32016,-2.56577 0.55249,-0.81759 1.11506,-1.08811 2.28643,-1.04308 1.12617,0.25646 1.87591,0.89766 2.42923,1.67572 0.59641,1.19102 0.93612,2.44049 1.18941,3.70031 0.23569,0.68357 0.42868,1.38158 0.83562,2.01651 0.0637,0.1858 0.71337,0.77805 0.13334,0.29136 -0.4031,-0.0642 -0.42375,-0.0241 -0.0799,-0.11366 1.326294,-0.33715 1.933444,1.1359 0.60714,1.47306 l 0,0 c -0.59097,0.14775 -0.23113,0.0831 -1.09631,0.12301 -0.68993,-0.198 -1.02223,-0.58994 -1.33089,-1.08644 -0.48602,-0.7794 -0.75811,-1.6217 -1.01654,-2.46305 -0.21971,-1.09945 -0.51398,-2.18574 -0.99656,-3.23516 -0.19968,-0.38564 -0.57511,-0.66079 -1.03987,-0.86016 0.29313,-0.0848 0.1063,-0.12918 -0.0768,0.0687 -0.4103,0.8523 -0.93126,1.66685 -1.30349,2.52974 -0.40138,0.89076 -0.74193,1.80472 -0.93262,2.73845 -0.10857,0.58593 -0.041,1.9132 -0.0698,1.91926 -0.63644,0.13359 -1.31142,0.0998 -1.96713,0.14966 -2e-5,-0.10536 1.9e-4,-0.21073 1.1e-4,-0.31609 -0.006,-0.90114 -0.0263,-1.8024 -0.0769,-2.70273 -0.0746,-1.08061 -0.16038,-2.16609 -0.47665,-3.22313 -0.3381,-1.06213 1.57452,-1.43765 1.91262,-0.37552 z"
       id="path9361"
       style="fill:#000000;fill-opacity:1;fill-rule:nonzero;stroke:none" />
    <path
       style="fill:#000000;fill-opacity:1;fill-rule:nonzero;stroke:none"
       id="path9367"
       d="m 149.99328,509.45296 c -3.03433,0.57404 -6.089,1.11154 -9.03321,2.06338 -1.65306,0.64171 -3.32829,1.2255 -5.01532,1.77124 -0.21914,0.0501 -0.20077,0.55293 -0.62992,1.28401 -0.48507,1.1124 -0.65513,2.33464 -0.77372,3.53364 -0.0485,0.62667 -0.0284,0.3312 -0.0622,0.88629 -0.0601,0.98347 -1.45091,0.89852 -1.39084,-0.085 l 0,0 c 0.0361,-0.58816 0.0146,-0.275 0.0664,-0.93937 0.14013,-1.39908 0.35126,-2.82371 0.96083,-4.10478 0.4099,-0.68721 0.51864,-1.65405 1.40056,-1.90064 1.68788,-0.54586 3.36309,-1.13193 5.01767,-1.77199 2.97628,-0.9519 6.05406,-1.52141 9.12173,-2.08865 0.95589,-0.23897 1.29385,1.11286 0.33796,1.35183 z"
       inkscape:connector-curvature="0"
       transform="translate(-79.27391,-76.222157)" />
    <path
       style="fill:#000000;fill-opacity:1;fill-rule:nonzero;stroke:none"
       id="path9371"
       d="m 152.72015,572.19916 c 2.46966,0.56162 4.98385,0.86791 7.50669,1.05102 1.65156,0.10731 3.30673,0.15049 4.96149,0.16421 1.09942,-5e-4 2.17553,-0.0789 3.24635,0.18711 1.52638,0.47269 2.94655,1.26637 4.2536,2.17402 1.07359,0.81035 2.15596,1.46523 2.97783,2.55436 0.95887,1.1241 1.39829,2.5275 1.74611,3.93453 0.47281,0.7184 0.8837,1.47802 1.31316,2.22364 0.29541,0.73627 0.32761,1.52304 0.34128,2.3049 0.005,0.3944 0.002,0.78883 -0.006,1.18316 4.1e-4,0.0454 -0.004,0.0906 -0.006,0.13589 -0.0868,0.98148 -1.47482,0.85872 -1.38802,-0.12275 l 0,0 c 4e-4,-0.0155 5.8e-4,-0.031 0.001,-0.0465 0.008,-0.37528 0.01,-0.75066 0.006,-1.12601 -0.009,-0.54926 -0.031,-1.09533 -0.15552,-1.63324 -0.49392,-0.85753 -1.0032,-1.70714 -1.4587,-2.58589 -0.30113,-1.22774 -0.66218,-2.45819 -1.50905,-3.43329 -0.72416,-0.97989 -1.72205,-1.50342 -2.66588,-2.25073 -1.16143,-0.83861 -2.4678,-1.5278 -3.83148,-1.97202 -0.90506,-0.32384 -1.92802,-0.0505 -2.87606,-0.13382 -1.68464,-0.0141 -3.3697,-0.0582 -5.05106,-0.16783 -2.60254,-0.18997 -5.19635,-0.50664 -7.74349,-1.08895 -0.95589,-0.23897 -0.61793,-1.59081 0.33796,-1.35183 z"
       inkscape:connector-curvature="0"
       transform="translate(-79.27391,-76.222157)" />
    <path
       style="fill:#000000;fill-opacity:1;fill-rule:nonzero;stroke:none"
       id="path9375"
       d="m 77.439935,681.55613 c 0.582572,3.41787 1.147929,6.83923 1.733468,10.25965 0.580852,3.17662 0.585232,6.40918 1.26345,9.56551 0.08689,0.4009 0.17378,0.8018 0.260669,1.2027 0.626079,2.88886 -3.459385,3.77427 -4.085463,0.88541 l 0,0 c -0.08807,-0.40639 -0.176135,-0.81278 -0.264202,-1.21917 -0.676903,-3.21576 -0.749408,-6.49053 -1.294872,-9.72938 -0.567295,-3.31673 -1.127689,-6.6326 -1.668543,-9.95085 -0.716917,-2.86766 3.338576,-3.88154 4.055493,-1.01387 z"
       inkscape:connector-curvature="0"
       transform="translate(-79.27391,-76.222157)" />
    <path
       style="fill:#000000;fill-opacity:1;fill-rule:nonzero;stroke:none"
       id="path9379"
       d="m 95.586999,507.91365 c 2.25216,0 4.504321,0 6.756481,0 0.70594,0 1.41187,0 2.11781,0 2.95592,0 2.95592,4.18031 0,4.18031 l 0,0 c -0.70594,0 -1.41187,0 -2.11781,0 -2.25216,0 -4.504321,0 -6.756481,0 -2.955923,0 -2.955923,-4.18031 0,-4.18031 z"
       inkscape:connector-curvature="0"
       transform="translate(-79.27391,-76.222157)" />
    <path
       style="fill:#000000;fill-opacity:1;fill-rule:nonzero;stroke:none"
       id="path9381"
       d="m -35.16829,425.50667 c 0.935114,3.01512 1.25784,6.20482 1.565472,9.34801 0.29086,3.35363 0.384468,6.72173 0.431252,10.08761 -0.0103,0.84152 -0.135236,1.66102 -0.33319,2.47188 -0.377916,1.48066 -2.359241,0.91582 -1.981325,-0.56484 l 0,0 c 0.167445,-0.61112 0.237241,-1.23916 0.262594,-1.87524 -0.04576,-3.30213 -0.136686,-6.60647 -0.420628,-9.8967 -0.281799,-2.89082 -0.594236,-5.80066 -1.35967,-8.60079 -0.648953,-1.37168 1.186542,-2.34161 1.835495,-0.96993 z"
       inkscape:connector-curvature="0" />
    <path
       style="fill:#000000;fill-opacity:1;fill-rule:nonzero;stroke:none"
       id="path9393"
       d="m -44.531973,423.94592 c 2.726906,0.32572 5.497149,0.0591 8.222225,-0.1916 2.442567,-0.33123 4.864488,-0.80625 7.302921,-1.16745 0.528986,-0.0685 1.056645,-0.15658 1.588277,-0.2008 0.321262,-0.007 0.642706,3.2e-4 0.964021,0.003 0.151155,9e-4 0.302309,0.003 0.45347,0.004 0.0069,6e-5 0.01396,8e-5 0.02097,1.3e-4 0.341191,0.41254 0.68239,0.82508 1.023581,1.23763 0.02639,1.53334 -2.025417,1.57277 -2.051807,0.0394 l 0,0 c 0.43518,0.38134 1.46574,0.90371 0.994514,0.89158 -0.152306,-8.9e-4 -0.304604,-0.002 -0.45691,-0.004 -0.263875,-0.002 -0.52788,-0.003 -0.791663,-0.009 -0.488303,0.0451 -0.973723,0.12036 -1.459761,0.18612 -2.473983,0.36615 -4.930668,0.85215 -7.409876,1.18027 -2.917355,0.26783 -5.885896,0.54826 -8.80245,0.15763 -1.422906,-0.30076 -1.020454,-2.42745 0.402453,-2.1267 z"
       inkscape:connector-curvature="0" />
    <path
       style="fill:#000000;fill-opacity:1;fill-rule:nonzero;stroke:none"
       id="path9395"
       d="m -43.365101,446.24951 c 1.872715,0.0507 3.729497,-0.26457 5.59232,-0.4316 2.188409,-0.17501 4.382409,-0.24569 6.576271,-0.28162 1.292147,-0.1156 2.527541,0.039 3.782399,0.34082 0.815331,0.17817 1.644779,0.27391 2.473335,0.35248 0.09937,0.007 0.198534,0.0169 0.297778,0.0256 -0.06079,0.008 -0.121508,0.0164 -0.182258,0.0247 1.402115,-0.39503 1.930728,1.7006 0.528605,2.09563 l 0,0 c -0.08659,0.0155 -0.173173,0.031 -0.259764,0.0466 -0.189854,2.9e-4 -0.379098,-0.0134 -0.568197,-0.0324 -0.919853,-0.0877 -1.840361,-0.19635 -2.744898,-0.39784 -1.097565,-0.264 -2.16041,-0.40304 -3.295263,-0.287 -2.146636,0.035 -4.293416,0.10372 -6.434773,0.27413 -1.920217,0.17167 -3.834767,0.49353 -5.765555,0.43934 -1.451089,0 -1.451089,-2.16881 0,-2.16881 z"
       inkscape:connector-curvature="0" />
    <path
       style="fill:#000000;fill-opacity:1;fill-rule:nonzero;stroke:none"
       id="path9397"
       d="m -23.541109,415.8435 c 0.868369,-0.74177 1.807244,-1.37859 2.846941,-1.81188 1.705171,-0.63294 2.282665,0.6788 2.494378,2.18728 0.106887,1.2598 0.09536,2.52677 0.09156,3.79044 0.01663,0.77137 0.02319,1.50673 -0.157996,2.25279 -0.237989,0.63237 -0.590209,1.1843 -0.940735,1.75116 -0.17489,0.25278 -0.230995,0.56841 -0.283218,0.87246 -0.01411,0.37163 -0.681482,-0.77869 -0.909907,-1.04358 0.561806,3.7e-4 1.123611,-0.002 1.685424,-0.002 1.051443,-8.9e-4 2.102886,-8.9e-4 3.15433,-0.002 0.553835,-6e-5 1.107677,-7e-5 1.661512,-5e-5 0.07429,0 0.148538,10e-6 0.222804,10e-6 1.451088,1.8e-4 1.450852,2.169 -2.29e-4,2.16883 l 0,0 c -0.07421,-2e-5 -0.148424,-2e-5 -0.222636,-2e-5 -0.55372,-2e-5 -1.107441,-2e-5 -1.661162,5e-5 -1.050657,1.5e-4 -2.101315,3.1e-4 -3.151972,0.002 -0.575298,8.9e-4 -1.150596,0.003 -1.725886,0.002 -0.967407,-0.91429 -1.211544,-0.66971 -1.069023,-1.52599 0.105719,-0.58192 0.25926,-1.16663 0.583016,-1.65925 0.281318,-0.45347 0.555749,-0.79714 0.733454,-1.31698 0.06735,0.46548 -0.0023,-1.44434 0.03013,-1.50598 0.0038,-1.16297 0.0135,-2.32845 -0.07253,-3.4887 -0.02227,-0.19693 -0.198229,-0.45157 -0.06483,-0.59101 0.02959,-0.0309 1.045845,0.18901 0.330758,0.13696 -0.872107,0.32351 -1.616018,0.93264 -2.342912,1.51889 -1.160861,0.92015 -2.392152,-0.8149 -1.231283,-1.73506 z"
       inkscape:connector-curvature="0" />
    <path
       style="fill:#000000;fill-opacity:1;fill-rule:nonzero;stroke:none"
       id="path9401"
       d="m -9.1744446,421.16903 c 0.862931,2.09676 1.2682662,4.34898 1.5614753,6.60126 0.4638962,3.73861 0.3262115,7.49346 0.1239253,11.24311 -0.142894,2.35393 -0.2630972,4.70914 -0.3440438,7.06636 -0.011517,0.42974 -0.029669,0.85945 -0.032568,1.28941 -1.0063131,-0.53195 -2.0523871,0.59585 -2.0444781,-0.3765 0.0148,-1.53351 2.0668102,-1.51142 2.0520442,0.0221 l 0,0 c -0.00969,0.89748 -1.5694612,1.1503 -2.0597172,0.3565 0.0038,-0.45689 0.02059,-0.91354 0.03394,-1.37019 0.08152,-2.37217 0.202187,-4.74233 0.346019,-7.1112 0.195018,-3.6107 0.33644,-7.22563 -0.108412,-10.82637 -0.258307,-2.01909 -0.6131511,-4.03621 -1.3636661,-5.92453 -0.648945,-1.37169 1.1865501,-2.34161 1.8354951,-0.96993 z"
       inkscape:connector-curvature="0" />
    <path
       style="fill:#000000;fill-opacity:1;fill-rule:nonzero;stroke:none"
       id="path9403"
       d="m -10.051861,421.00481 c 1.2678634,-1.27443 2.8328701,-1.96993 4.4911949,-2.46681 1.5587911,-0.47526 3.0310677,-0.41441 4.5213825,0.22704 1.09234716,0.50959 1.93251169,1.34875 2.759466,2.22577 0.6981249,0.8903 1.2452633,1.90139 1.6414308,2.97796 0.3076853,0.93884 0.3805928,1.92437 0.4085767,2.90909 -0.1105016,1.19269 -0.6702782,2.2503 -1.0216821,3.37499 -0.4402064,1.13697 -1.1557058,1.97653 -2.18313873,2.53064 -0.95386181,0.51351 -1.99863877,0.76665 -2.98814977,1.18421 -0.8260467,0.42365 -1.7280899,0.58011 -2.6326503,0.6723 -0.5408995,0.0392 -1.0832787,0.0535 -1.625368,0.05 -0.1619312,-0.004 -0.3238472,-0.005 -0.485847,-0.006 -0.1117448,-5.2e-4 -0.2235049,-8.9e-4 -0.3352573,-8.9e-4 0.0061,-2.44023 -0.3253268,-2.16881 1.0785803,-2.16878 0.9922034,1e-5 1.9844069,1e-5 2.9766102,1e-5 1.1151905,-0.0832 2.182559,0.1602 3.20465296,0.61418 1.04201598,0.54338 1.81923394,1.4684 2.72875174,2.20138 0.934756,0.85165 1.7748136,1.80131 2.4774155,2.8727 0.4440123,0.85963 0.9545407,1.6743 1.2840548,2.594 0.2586277,0.73774 0.5560698,1.43958 0.7320425,2.21264 0.1132169,0.63068 0.1767583,1.2704 0.208243,1.91112 -0.061703,-0.4818 -0.1892362,-0.59946 -0.4300013,-0.82064 -0.042254,-0.005 -0.084386,0.006 -0.1259922,0.0119 1.4220063,-0.3055 1.8308195,1.81984 0.4088132,2.12535 l 0,0 c -0.1160694,0.0212 -0.2328176,0.0357 -0.3509997,0.0304 -0.7890095,-0.0401 -1.2882344,-0.37609 -1.5512935,-1.23639 -0.024025,-0.50939 -0.074822,-1.01761 -0.1553795,-1.52055 -0.1535719,-0.69504 -0.4380098,-1.31262 -0.6666477,-1.9803 -0.2275625,-0.75785 -0.7345518,-1.37929 -1.0427253,-2.09703 -0.5774639,-0.8924 -1.2807294,-1.67034 -2.0448592,-2.3891 -0.77051367,-0.6389 -1.45354444,-1.3966 -2.2996427,-1.93111 -0.747518,-0.38138 -1.5542833,-0.47929 -2.3764326,-0.42971 -0.9922186,0 -1.9844221,0 -2.9766407,-10e-6 -1.4043114,-3e-5 -1.0762846,0.26438 -1.0759108,-2.16886 0.1143304,2.3e-4 0.2286531,5.2e-4 0.3429759,8.9e-4 0.1629075,9e-4 0.3258073,0.002 0.4886538,0.006 0.4730106,0.004 0.9462118,-0.009 1.4183453,-0.0404 0.7133411,-0.0701 1.4207099,-0.18104 2.0681297,-0.52847 0.9535872,-0.39943 1.95476,-0.6527 2.87736596,-1.13359 0.5388859,-0.19747 0.84686866,-0.73565 1.1041769,-1.24772 0.27983874,-0.89094 0.64774774,-1.74032 0.91851784,-2.63035 -0.019449,-0.73967 -0.058424,-1.48184 -0.2723947,-2.19271 -0.2889302,-0.8037 -0.69222141,-1.54725 -1.18367434,-2.23029 -0.6300528,-0.67449 -1.2524022,-1.34035 -2.08479466,-1.74783 -1.0590626,-0.46975 -2.0635684,-0.49641 -3.1859363,-0.14326 -1.3242038,0.38495 -2.5713891,0.90717 -3.5928805,1.91174 -1.0260682,1.08441 -2.4771566,-0.44917 -1.4510816,-1.53358 z"
       inkscape:connector-curvature="0" />
    <path
       style="fill:#000000;fill-opacity:1;fill-rule:nonzero;stroke:none"
       id="path9407"
       d="m 93.140386,329.78301 c 2.48722,0.57091 5.033525,0.79979 7.571004,1.01508 1.1816,0.0807 2.3651,0.14219 3.54949,0.15874 0.3036,-6.4e-4 0.6072,-0.005 0.91085,-0.006 0.39691,0.0492 1.87427,-0.1285 0.25393,0.10036 2.57419,-1.45292 4.62894,2.18754 2.05474,3.64047 l 0,0 c -0.86826,0.28716 -1.42836,0.50902 -2.28563,0.43942 -0.33129,0.002 -0.66254,0.006 -0.99381,0.006 -1.28249,-0.0188 -2.56407,-0.0836 -3.84344,-0.17331 -2.759834,-0.23476 -5.528151,-0.49317 -8.231007,-1.12489 -2.867667,-0.71692 -1.853793,-4.77241 1.013873,-4.05549 z"
       inkscape:connector-curvature="0"
       transform="translate(-79.27391,-76.222157)" />
    <path
       style="fill:#000000;fill-opacity:1;fill-rule:nonzero;stroke:none"
       id="path9409"
       d="m -13.493398,241.00663 c 1.761419,3.23936 3.492564,6.49435 5.0964121,9.79536 1.2298919,2.39364 2.3914171,4.81446 3.2277094,7.33609 0.049875,0.16595 0.09975,0.33191 0.1496458,0.49786 0.031383,0.11679 0.060336,0.23406 0.094255,0.35029 0.022613,0.0775 0.00528,-0.17809 -0.060336,-0.2341 -0.2381738,-0.20352 -0.4813563,-0.46733 -0.811228,-0.51065 -0.9618671,-0.12632 -1.3990862,0.64542 -0.9980581,0.0436 0.9258451,-1.68635 1.5410922,-3.47821 2.1913785,-5.25413 0.9865193,-3.32372 1.9599252,-6.65149 2.7534328,-10.01484 0.593448,-2.33173 1.28044307,-4.62619 2.21771086,-6.87011 0.24433419,-0.55298 0.47317757,-1.11272 0.75632334,-1.65201 0.1635411,-0.26636 -0.12932607,0.19046 0.1087843,-0.17719 1.0820846,-1.53592 3.5750796,-0.20258 2.4929844,1.33335 l 0,0 c 0.016907,-0.0269 0.033919,-0.0538 0.050826,-0.0806 0.00106,-0.004 0.00317,-0.006 0.00423,-0.008 -0.244778,0.47728 -0.4509875,0.96885 -0.6642661,1.45721 -0.8895696,2.12704 -1.5364323,4.30118 -2.1011705,6.51172 -0.81593018,3.45103 -1.80999407,6.86718 -2.831785,10.27579 -0.7284272,1.98927 -1.4127912,4.00756 -2.5245049,5.86703 -1.5057994,1.9339 -3.2840616,1.00838 -3.63867,-0.82853 -0.8002175,-2.42508 -1.9337093,-4.74686 -3.1111169,-7.04926 -1.608698,-3.31741 -3.358504,-6.58305 -5.118232,-9.8416 -0.7682,-1.67331 1.947784,-2.61988 2.715974,-0.94657 z"
       inkscape:connector-curvature="0" />
    <path
       style="fill:#000000;fill-opacity:1;fill-rule:nonzero;stroke:none"
       id="path9417"
       d="m -16.213514,263.62514 c 2.923282,0.47033 5.909458,0.52477 8.8726187,0.6151 2.9709697,0.075 5.9432709,0.0938 8.915308,0.10048 0.6268176,-1.5e-4 1.2536669,0.002 1.8804635,-0.004 0.241143,-0.002 0.4823072,-0.002 0.7234608,-0.002 0.079779,-9e-5 0.1595468,-5e-5 0.239315,-6e-5 2.0684348,0.001 2.0659728,2.55024 -0.00317,2.54872 l 0,0 c -0.078088,1e-5 -0.1562078,-4e-5 -0.2343064,6e-5 -0.2284313,1.7e-4 -0.4568943,-2.6e-4 -0.6852939,0.002 -0.6428473,0.006 -1.2857581,0.005 -1.9286265,0.004 -3.0037161,-0.007 -6.0076857,-0.0259 -9.0103134,-0.10203 -3.1669718,-0.0969 -6.3605088,-0.15772 -9.4796238,-0.68964 -2.006683,-0.43709 -1.297212,-2.90972 0.70946,-2.47262 z"
       inkscape:connector-curvature="0" />
    <path
       style="fill:#000000;fill-opacity:1;fill-rule:nonzero;stroke:none"
       id="path9419"
       d="m -10.696842,275.46282 c 0.370564,2.74845 0.9861067,5.46123 1.3747507,8.20886 0.3613288,2.86368 0.4925992,5.74364 0.5661435,8.62221 0.00951,0.74009 0.034342,1.48061 0.017118,2.22078 -7.08e-4,0.023 -0.00211,0.046 -0.00317,0.0688 -0.9755194,-0.14551 -1.9510382,-0.29104 -2.9265472,-0.43656 -0.01152,-1.80218 2.9136452,-1.81636 2.9251629,-0.0142 l 0,0 c -0.9738498,0.11656 -1.9476889,0.23312 -2.9215279,0.34968 4.12e-4,-0.007 7.08e-4,-0.014 0.0011,-0.0212 0.01152,-0.70359 -0.0042,-1.40729 -0.01712,-2.1108 -0.07111,-2.79354 -0.196773,-5.58847 -0.544999,-8.36778 -0.401282,-2.8505 -1.073103,-5.66187 -1.396624,-8.5199 0,-1.80223 2.925205,-1.80223 2.925205,0 z"
       inkscape:connector-curvature="0" />
    <path
       style="fill:#000000;fill-opacity:1;fill-rule:nonzero;stroke:none"
       id="path9421"
       d="m -13.818832,273.74872 c 1.628014,-1.4752 3.630006,-2.58604 5.7575296,-3.42678 2.2303697,-0.75652 3.5802995,-1.19644 5.6462406,0.15217 1.3638567,1.69588 1.3865751,3.79507 1.47129906,5.79057 0.16434415,1.86368 -0.45026896,3.33511 -2.24593456,4.37792 -1.5650786,0.88089 -3.4260043,1.01616 -5.1659833,1.45678 -0.6925109,0.20274 -1.3874839,0.41468 -2.0389324,0.70595 -0.438107,-2.6447 -1.241241,-2.31121 0.8233584,-2.30889 2.3285769,-0.0568 4.6109771,-0.0579 6.8972343,0.35635 2.80753435,0.4215 5.1102861,1.62952 7.2033942,3.25073 1.3659806,1.03049 2.4296052,2.21458 3.0235603,3.70323 0.3050717,0.82661 0.3113589,1.6974 0.3077873,2.55637 -0.00317,0.27076 -0.010778,0.54148 -0.030009,0.81172 -0.9746317,-0.0864 -1.9492528,-0.17291 -2.9238845,-0.25935 -0.025571,-1.80209 2.899338,-1.83367 2.9249728,-0.0315 l 0,0 c -0.9728881,0.0357 -1.9457869,0.0714 -2.9186751,0.10715 0.01342,-0.21262 0.020711,-0.4255 0.022401,-0.63846 0.00317,-0.57815 0.025888,-1.17032 -0.1546017,-1.73185 -0.3950789,-1.07786 -1.2365383,-1.87144 -2.2004131,-2.61654 -1.71013853,-1.33898 -3.54969826,-2.33131 -5.8690503,-2.65959 -2.077332,-0.40526 -4.1679675,-0.32159 -6.2870064,-0.29948 -1.2312762,-0.002 -5.8061782,-0.31472 -2.1414612,-2.51326 0.823802,-0.36114 1.691256,-0.64187 2.5689061,-0.88595 1.5032106,-0.35984 3.1005072,-0.48538 4.4663716,-1.1956 0.9671716,-0.28133 0.8225026,-1.35937 0.8146833,-2.09287 -0.055053,-1.33739 -0.1532597,-2.67532 -0.493191,-3.97978 -0.03635,-0.72779 -2.168808,0.19779 -2.5074819,0.27113 -1.8126568,0.6924 -3.5029301,1.6578 -4.8827001,2.90211 -1.462603,1.27436 -3.531038,-0.52785 -2.068435,-1.80221 z"
       inkscape:connector-curvature="0" />
    <path
       style="fill:#000000;fill-opacity:1;fill-rule:nonzero;stroke:none"
       id="path9425"
       d="m 93.519948,146.90962 c 2.141011,-0.49864 4.314977,-0.82543 6.492492,-1.11427 0.62058,-0.0822 1.24023,-0.1645 1.866,-0.18388 0.78137,-5.4e-4 1.56275,0.004 2.34413,0.006 0.49572,0.001 0.99144,0.002 1.48717,0.003 2.95592,0.005 2.94945,4.18487 -0.006,4.1803 l 0,0 c -0.49695,-7.7e-4 -0.9939,-0.002 -1.49085,-0.003 -0.75576,-0.002 -1.51152,-0.006 -2.26728,-0.006 -0.46173,0.0262 -0.92375,0.0886 -1.38342,0.14817 -2.021254,0.26769 -4.039525,0.56755 -6.027899,1.0257 -2.867666,0.71692 -3.881539,-3.33857 -1.013873,-4.05549 z"
       inkscape:connector-curvature="0"
       transform="translate(-79.27391,-76.222157)" />
    <path
       style="fill:#000000;fill-opacity:1;fill-rule:nonzero;stroke:none"
       id="path9427"
       d="m -30.088239,52.124697 c 1.72399,2.94494 3.23298,6.01399 4.85118,9.02011 1.71261,3.11973 3.42094,6.24259 5.19426,9.32621 0.34725,0.59821 0.69726,1.19474 1.0546,1.78661 0.0525,0.0869 0.25033,0.29877 0.15842,0.26006 -1.34542,-0.56661 -0.28609,-0.73259 -1.51865,-0.29891 0.67289,-2.65477 0.95012,-5.4073 1.40729,-8.11043 0.61043,-3.2138 1.49858,-6.36013 2.15418,-9.56288 0.18729,-0.97313 0.36321,-1.94922 0.49403,-2.93231 0.21171,-1.58573 2.38658,-1.277 2.17487,0.30872 l 0,0 c -0.13878,1.03643 -0.32225,2.0659 -0.52098,3.09173 -0.65201,3.17628 -1.52605,6.29829 -2.13944,9.48406 -0.4989,2.94316 -0.73081,5.98123 -1.65087,8.82052 -0.35077,0.30465 -0.60041,0.83327 -1.05231,0.91395 -1.29901,0.23193 -1.91979,-1.85305 -2.44952,-2.60659 -1.78381,-3.10233 -3.50289,-6.24375 -5.22556,-9.38244 -1.60535,-2.98429 -3.10409,-6.02996 -4.81403,-8.95374 -0.79868,-1.37257 1.08384,-2.53724 1.88253,-1.16467 z"
       inkscape:connector-curvature="0" />
    <path
       style="fill:#000000;fill-opacity:1;fill-rule:nonzero;stroke:none"
       id="path9429"
       d="m -7.4540694,48.569417 c 0.41643,2.87234 0.66939,5.77682 0.92169,8.67104 0.33678,3.7872 0.99205,7.52985 1.49743,11.29424 0.25238,1.42652 0.53889,2.85544 0.99389,4.23019 0.28905,0.78035 0.0908,0.12855 -1.98707,0.0422 0.43344,-1.53702 2.54151,-0.90497 2.10807,0.63205 l 0,0 c -2.19612,0.25846 -1.87872,0.94033 -2.19991,0.0533 -0.49538,-1.51183 -0.82127,-3.07784 -1.08964,-4.6474 -0.50979,-3.80024 -1.17157,-7.57853 -1.50935,-11.40204 -0.24176,-2.7783 -0.49657,-5.56272 -0.86494,-8.3245 -0.3765,-1.55289 1.75333,-2.10191 2.12983,-0.54902 z"
       inkscape:connector-curvature="0" />
    <path
       style="fill:#000000;fill-opacity:1;fill-rule:nonzero;stroke:none"
       id="path9431"
       d="m 3.6157506,54.081427 c -1.66638,1.74002 -3.58494001,3.19116 -5.43788,4.70814 -1.34708,1.01966 -2.72981,1.98751 -4.08767,2.99195 -0.19286,0.14331 -0.40339,0.29948 -0.58909,0.44263 -0.26654,-0.67545 -0.62583,-1.31948 -0.79963,-2.02634 -0.0498,-0.20268 0.40485,-0.0807 0.60603,-0.0545 0.66705,0.0868 1.25215,0.39585 1.86844,0.6508 2.14713,0.85775 4.16922999,1.99407 6.11224,3.25967 1.62345,1.0508 2.93759,2.49589 4.36313,3.7957 0.31869,0.28029 0.63491,0.565 0.97139,0.82274 1.24374,0.95787 -0.07,2.77152 -1.31375,1.81365 l 0,0 c -0.38399,-0.29678 -0.74957,-0.6179 -1.11261,-0.94123 -1.33704,-1.2211 -2.56753,-2.58015 -4.08233001,-3.57812 -1.82800999,-1.19568 -3.73411999,-2.26356 -5.75624999,-3.07179 -1.53344,-0.63564 -1.16818,-0.41885 -2.20917,-2.45368 0.21739,-0.1708 0.44088,-0.33319 0.66192,-0.4989 1.3289,-0.98297 2.68074,-1.93213 4.00227,-2.92547 1.78741,-1.4632 3.64123999,-2.85981 5.25059,-4.53594 1.09769,-1.13185 2.65006,0.46883 1.55237,1.60069 z"
       inkscape:connector-curvature="0" />
    <path
       style="fill:#000000;fill-opacity:1;fill-rule:nonzero;stroke:none"
       id="path9435"
       d="m -27.107929,80.552057 c 3.76549,-0.41419 7.55268,-0.5165 11.33542,-0.61744 5.22089,-0.14739 10.4398596,0.20128 15.65539959,0.40738 2.45812001,0.0935 4.91696001,0.16776 7.37648001,0.20651 0.3174,0.004 0.68009,0.009 0.98563,0.007 1.55142,-0.0559 1.62805,2.20645 0.0766,2.26232 l 0,0 c -0.36524,0.007 -0.73059,-0.004 -1.09582,-0.006 -2.47637,-0.0391 -4.95205,-0.11372 -7.42700001,-0.2079 -5.16861999,-0.20427 -10.34066959,-0.55091 -15.51457959,-0.40648 -3.80216,0.10128 -7.60636,0.21554 -11.39216,0.6182 -1.55237,0 -1.55237,-2.26371 0,-2.26371 z"
       inkscape:connector-curvature="0" />
    <path
       style="fill:#000000;fill-opacity:1;fill-rule:nonzero;stroke:none"
       id="path9437"
       d="m -14.826759,89.106837 c 0.0953,2.94245 0.28904,5.89817 0.61095,8.82547 0.27244,2.04664 0.5355,4.094393 0.76196,6.147023 0.0505,0.54977 0.092,1.10122 0.0985,1.65365 0.0169,1.60058 -2.17841,1.62513 -2.19525,0.0245 l 0,0 c -0.009,-0.47509 -0.0394,-0.94946 -0.0846,-1.42237 -0.22649,-2.05348 -0.49072,-4.10192 -0.76224,-6.149543 -0.32678,-3.01199 -0.53217,-6.05124 -0.62474,-9.07877 0,-1.60068 2.19538,-1.60068 2.19538,0 z"
       inkscape:connector-curvature="0" />
    <path
       style="fill:#000000;fill-opacity:1;fill-rule:nonzero;stroke:none"
       id="path9439"
       d="m -17.304129,86.532137 c 2.0451,-0.3937 4.1313,-0.58704 6.21017,-0.52228 2.0818096,0.18959 3.8299696,0.93544 5.3000796,2.45822 1.33913,1.72972 1.13148,3.18442 -0.0514,4.91539 -1.52197,1.48927 -3.50948,2.29143 -5.4636096,2.98735 -0.92107,0.29697 -1.85129,0.57445 -2.8007,0.75816 -0.9315,0.1462 -0.72635,0.0875 0.37479,-1.98312 0.0162,-0.0305 0.31975,0.11603 0.85182,0.35998 2.01427,0.95986 3.8918096,2.17087 5.7034396,3.48415 1.87091,1.403263 3.5992,2.992593 5.28216,4.625433 0.79712,0.83152 1.40100999,1.75765 1.66626999,2.89682 0.0761,0.36536 0.0982,0.73296 0.028,1.09944 -0.3759,1.55305 -2.50593999,1.0049 -2.13003999,-0.54814 l 0,0 c -0.0451,0.26625 10e-4,0.14003 -0.038,-0.0461 -0.14029,-0.70204 -0.56208,-1.23281 -1.03083,-1.75349 -1.60719,-1.55993 -3.25625,-3.08001 -5.0414,-4.42293 -1.6968496,-1.233673 -3.4561696,-2.369483 -5.3433696,-3.272143 -0.539,-0.25665 -3.97279,-1.7392 -0.72445,-2.66536 0.84442,-0.16009 1.66958,-0.41535 2.48948,-0.67372 1.54534,-0.54319 3.0892696,-1.17862 4.4082096,-2.18799 0.52752,-0.68424 0.83921,-1.20792 0.25007,-1.99095 -1.04384,-1.12946 -2.29712,-1.6161 -3.8060496,-1.77859 -1.87412,-0.0764 -3.75511,0.12995 -5.60217,0.45603 -1.50602,0.38822 -2.03848,-1.80789 -0.53246,-2.19612 z"
       inkscape:connector-curvature="0" />
    <path
       style="fill:#000000;fill-opacity:1;fill-rule:nonzero;stroke:none"
       id="path9449"
       d="m -85.047656,474.86193 c -0.17625,5.18641 0.20625,10.34753 0.66606,15.51191 0.66461,5.50286 1.43298,11.03303 2.94391,16.39999 0.3499,1.16769 0.73285,2.32707 1.16127,3.4722 0.0707,0.18892 0.13769,0.37928 0.21926,0.5644 0.0209,0.0476 0.14224,0.13889 0.0873,0.13136 -0.69993,-0.0959 -1.38485,-0.26935 -2.07728,-0.40403 -0.10508,0.0552 -0.21017,0.11047 -0.31526,0.1657 0.20534,-1.77418 2.91763,-1.50555 2.71229,0.26863 l 0,0 c -0.15013,0.44446 -0.30026,0.88892 -0.4504,1.33338 -0.76372,-0.0675 -1.55147,-0.0141 -2.29116,-0.20246 -0.30002,-0.0764 -1.55045,-4.35356 -1.68655,-4.69604 -1.53701,-5.51 -2.35441,-11.17685 -3.02196,-16.82603 -0.46577,-5.23318 -0.85088,-10.46365 -0.67526,-15.71901 0,-1.78432 2.72779,-1.78432 2.72779,0 z"
       inkscape:connector-curvature="0" />
    <path
       style="fill:#000000;fill-opacity:1;fill-rule:nonzero;stroke:none"
       id="path9451"
       d="m -88.086666,478.6456 c -0.93094,-0.2153 -1.86187,-0.43059 -2.7928,-0.64589 -0.32942,-0.28947 -0.84138,-0.47068 -0.98826,-0.86842 -0.72733,-1.96977 2.80639,-3.45697 4.05442,-4.16028 3.41387,-1.52401 7.05934,-3.06124 10.92985,-3.10846 0.75036,-0.009 1.49613,0.10986 2.24421,0.16478 3.77564,0.87734 5.86482,3.26353 6.20342,6.87485 0.0653,0.69671 -0.0335,1.39832 -0.0503,2.09747 -0.78317,4.79671 -2.7114,7.33358 -7.01352,9.95568 -3.25276,1.78677 -6.89633,1.9818 -10.5736,1.90757 -0.93873,0.0142 -1.78404,-0.0864 -2.67219,-0.34061 -1.80093,-0.63898 -0.8241,-2.99505 0.97683,-2.35607 l 0,0 c 0.19667,0.30343 1.52203,0.018 1.75698,0.17391 3.12481,0.0678 6.23554,-0.0117 9.02405,-1.49976 3.52352,-2.08997 5.07026,-4.02494 5.77555,-7.93452 0.18298,-2.9315 -0.32257,-5.42 -3.6718,-6.36526 -0.57833,-0.0555 -1.15355,-0.16685 -1.73498,-0.16653 -3.46197,0.002 -6.71416,1.42708 -9.77673,2.75273 -0.17656,0.0992 -1.8339,1.01801 -2.20316,1.26219 -0.54037,0.35733 -0.6285,0.59091 -0.65141,0.54385 -0.74049,-1.52118 0.84364,-0.14231 -0.96782,-1.38119 0.93094,0.2153 1.86188,0.43059 2.79282,0.64589 1.87124,0.43276 1.20966,2.88083 -0.66159,2.44807 z"
       inkscape:connector-curvature="0" />
  </g>
</svg>
