<?xml version="1.0" encoding="UTF-8" standalone="no"?>
<!-- Created with Inkscape (http://www.inkscape.org/) -->

<svg
   xmlns:dc="http://purl.org/dc/elements/1.1/"
   xmlns:cc="http://creativecommons.org/ns#"
   xmlns:rdf="http://www.w3.org/1999/02/22-rdf-syntax-ns#"
   xmlns:svg="http://www.w3.org/2000/svg"
   xmlns="http://www.w3.org/2000/svg"
   xmlns:sodipodi="http://sodipodi.sourceforge.net/DTD/sodipodi-0.dtd"
   xmlns:inkscape="http://www.inkscape.org/namespaces/inkscape"
   width="473.30838"
   height="428.23898"
   id="svg10615"
   version="1.1"
   inkscape:version="0.48.0 r9654"
   sodipodi:docname="New document 25">
  <defs
     id="defs10617" />
  <sodipodi:namedview
     inkscape:document-units="mm"
     pagecolor="#ffffff"
     bordercolor="#666666"
     borderopacity="1.0"
     inkscape:pageopacity="0.0"
     inkscape:pageshadow="2"
     inkscape:zoom="0.7176508"
     inkscape:cx="289.84252"
     inkscape:cy="180.05102"
     inkscape:current-layer="layer1"
     id="namedview10619"
     showgrid="false"
     fit-margin-top="0"
     fit-margin-left="0"
     fit-margin-right="0"
     fit-margin-bottom="0"
     inkscape:window-width="1280"
     inkscape:window-height="752"
     inkscape:window-x="0"
     inkscape:window-y="0"
     inkscape:window-maximized="0" />
  <metadata
     id="metadata10621">
    <rdf:RDF>
      <cc:Work
         rdf:about="">
        <dc:format>image/svg+xml</dc:format>
        <dc:type
           rdf:resource="http://purl.org/dc/dcmitype/StillImage" />
        <dc:title></dc:title>
      </cc:Work>
    </rdf:RDF>
  </metadata>
  <g
     inkscape:label="Layer 1"
     inkscape:groupmode="layer"
     id="layer1"
     transform="translate(-236.33857,-123.85928)">
    <path
       style="fill:#000000;fill-opacity:1;fill-rule:nonzero;stroke:none"
       id="path11134"
       d="m 494.0554,127.1405 c 0.65845,5.90883 0.69646,11.87475 0.91968,17.81337 0.46782,15.67242 0.5983,31.35083 1.1082,47.02199 0.75692,24.46844 1.0145,48.94626 0.89194,73.42509 -0.47396,28.72901 -0.96935,57.45651 -1.39078,86.18666 -0.38779,28.68089 -0.78506,57.36532 -0.91994,86.04889 -0.23895,22.13193 -0.0452,44.25881 0.55492,66.38268 0.23549,12.95132 0.99095,25.884 1.34756,38.83178 0.0856,4.91481 0.12131,2.54049 -0.0773,7.12336 -0.13152,2.95299 -4.3077,2.76699 -4.17617,-0.18598 l 0,0 c 0.19755,-4.30993 0.15781,-2.03604 0.0747,-6.82231 -0.35633,-12.94835 -1.113,-25.88157 -1.3476,-38.83348 -0.60121,-22.16819 -0.79561,-44.33943 -0.55641,-66.51569 0.13529,-28.69746 0.53219,-57.39576 0.92035,-86.09053 0.42124,-28.71671 0.91611,-57.43075 1.39037,-86.1463 0.1226,-24.42655 -0.13468,-48.85208 -0.88977,-73.26826 -0.50913,-15.66416 -0.64115,-31.33547 -1.10746,-47.00087 -0.21649,-5.76227 -0.26227,-11.54891 -0.86609,-17.28513 -0.48453,-2.91594 3.63923,-3.60118 4.12376,-0.68524 z"
       inkscape:connector-curvature="0" />
    <path
       inkscape:connector-curvature="0"
       d="m 707.77772,330.41587 c -5.90721,0.67277 -11.87302,0.72525 -17.81108,0.96287 -15.67124,0.50582 -31.34929,0.67432 -47.01917,1.22222 -24.46653,0.81625 -48.94365,1.13318 -73.42271,1.06998 -28.73007,-0.4043 -57.45869,-0.83003 -86.18978,-1.18179 -28.68174,-0.31825 -57.36705,-0.64596 -86.05087,-0.71129 -22.13244,-0.18528 -44.25879,0.0621 -66.38114,0.71589 -12.95071,0.26689 -25.88152,1.05371 -38.82839,1.44171 -4.91459,0.0975 -2.54019,0.12747 -7.12353,-0.06 -2.9533,-0.12436 -2.77743,-4.30098 0.17585,-4.17661 l 0,0 c 4.3104,0.1871 2.03642,0.15287 6.82247,0.0582 12.94745,-0.38772 25.8788,-1.17575 38.8301,-1.44176 22.16667,-0.65496 44.33737,-0.90312 66.51415,-0.71769 28.6977,0.0657 57.39688,0.39301 86.09251,0.71159 28.71764,0.35161 57.4328,0.77685 86.14941,1.18148 24.42678,0.0634 48.85161,-0.25314 73.26589,-1.06743 15.66288,-0.54711 31.33382,-0.71713 46.99805,-1.22143 5.76173,-0.23046 11.54824,-0.29027 17.28298,-0.908 2.91475,-0.4916 3.60999,3.63049 0.69523,4.12209 z"
       id="path11136"
       style="fill:#000000;fill-opacity:1;fill-rule:nonzero;stroke:none" />
    <path
       style="fill:#000000;fill-opacity:1;fill-rule:nonzero;stroke:none"
       id="path11144"
       d="m 492.35031,126.58283 c -0.38752,2.43125 -1.03136,4.78238 -1.72333,7.14008 -0.85048,2.38817 -1.97483,4.68006 -3.22631,6.88175 -0.67903,1.64583 -1.93759,2.98347 -2.71486,4.56294 -0.21079,0.46867 -0.40422,0.94929 -0.51846,1.45133 0.0127,-0.0369 0.0134,-0.0769 0.02,-0.11489 -0.28804,2.94185 -4.44845,2.53449 -4.16041,-0.40736 l 0,0 c 0.0303,-0.24557 0.0119,-0.12421 0.0552,-0.36413 0.19743,-0.87635 0.52309,-1.71846 0.91237,-2.52682 0.87904,-1.59488 2.02231,-3.03355 2.78933,-4.69707 1.12544,-1.88794 2.03996,-3.91745 2.83235,-5.96399 0.6775,-2.30431 1.29746,-4.59874 1.67867,-6.97571 0.71692,-2.86766 4.77241,-1.85379 4.05549,1.01387 z"
       inkscape:connector-curvature="0" />
    <path
       style="fill:#000000;fill-opacity:1;fill-rule:nonzero;stroke:none"
       id="path11146"
       d="m 492.46724,125.82469 c 1.68326,1.9524 3.01883,4.1553 4.71298,6.09545 1.39349,1.49801 2.57575,3.16926 4.08736,4.55517 0.77479,0.63929 1.56155,1.25929 2.31385,1.92586 0.56178,0.59738 0.44564,0.20368 1.47555,1.1712 2.11732,2.06262 -0.79966,5.05697 -2.91699,2.99435 l 0,0 c -0.15987,-0.175 -0.883,-0.59027 -1.33172,-1.03752 -0.77402,-0.68665 -1.59216,-1.31368 -2.37918,-1.98502 -1.61274,-1.50169 -2.92972,-3.2541 -4.40525,-4.8832 -1.6211,-1.87562 -2.96892,-3.94189 -4.51252,-5.88036 -2.09015,-2.09016 0.86577,-5.04608 2.95592,-2.95593 z"
       inkscape:connector-curvature="0" />
    <path
       style="fill:#000000;fill-opacity:1;fill-rule:nonzero;stroke:none"
       id="path11150"
       d="m 705.29808,329.31838 c -1.95473,-0.51808 -3.80529,-1.47908 -5.58102,-2.44444 -0.90859,-0.63783 -1.85791,-1.12463 -2.91335,-1.4552 -0.988,-0.6931 -1.95824,-1.29771 -2.98932,-1.91036 -2.52741,-1.53286 -0.35963,-5.10717 2.16779,-3.57431 l 0,0 c 0.18839,0.11579 3.78176,2.26985 2.08924,1.50122 1.30596,0.42001 2.53812,0.99143 3.66626,1.77913 1.44357,0.81531 2.98364,1.59942 4.57427,2.04847 2.86767,0.71692 1.8538,4.77241 -1.01387,4.05549 z"
       inkscape:connector-curvature="0" />
    <path
       style="fill:#000000;fill-opacity:1;fill-rule:nonzero;stroke:none"
       id="path11160"
       d="m 708.00786,330.45221 c -1.59578,2.72262 -4.07849,4.69766 -6.42906,6.73285 -1.37572,0.97488 -2.41982,2.25935 -3.62504,3.40371 -0.13769,0.12129 -0.27537,0.24257 -0.41306,0.36386 -2.22288,1.9484 -4.97834,-1.19523 -2.75546,-3.14363 l 0,0 c 0.1006,-0.0876 0.20119,-0.17515 0.30179,-0.26272 1.25649,-1.17089 2.33829,-2.51544 3.75549,-3.52155 1.93671,-1.67682 4.00644,-3.27607 5.42636,-5.44201 1.32193,-2.64386 5.06091,-0.77437 3.73898,1.86949 z"
       inkscape:connector-curvature="0" />
    <path
       style="fill:#000000;fill-opacity:1;fill-rule:nonzero;stroke:none"
       id="path11162"
       d="m 460.25024,133.57876 c 0.62224,4.12508 0.72665,8.30598 0.84739,12.46872 0.0924,3.8536 0.11944,7.70833 0.12744,11.5629 5.9e-4,1.26369 7.6e-4,0.67401 -2e-4,1.76902 -0.002,2.24109 -3.19411,2.23833 -3.19214,-0.003 l 0,0 c 7.6e-4,-1.08908 7.6e-4,-0.5025 1.9e-4,-1.75973 -0.008,-3.82637 -0.0347,-7.65289 -0.12612,-11.47831 -0.11526,-3.98518 -0.21458,-7.98627 -0.78673,-11.93826 -0.44267,-2.19757 2.68749,-2.81915 3.13017,-0.62157 z"
       inkscape:connector-curvature="0" />
    <path
       style="fill:#000000;fill-opacity:1;fill-rule:nonzero;stroke:none"
       id="path11164"
       d="m 456.12939,131.67299 c 2.87046,0 5.74092,0 8.61138,0 2.21036,-0.13535 4.19357,0.38273 5.94044,1.7158 1.49699,1.38974 1.93821,3.17839 2.15085,5.12519 0.38195,2.49333 -1.02052,4.26426 -2.67776,5.92877 -1.82585,1.55973 -4.00976,2.64826 -6.2651,3.45334 -1.26292,0.21947 -2.37996,0.76162 -3.55871,1.2229 -2.10071,0.81992 -3.26857,-2.12975 -1.16786,-2.94967 l 0,0 c 1.20825,-0.47014 2.3733,-1.02488 3.66045,-1.26064 1.81364,-0.62584 3.56622,-1.50785 5.06821,-2.70124 1.00339,-0.99359 2.02346,-1.83317 1.76584,-3.36463 -0.10831,-1.0869 -0.21401,-2.11903 -0.96539,-2.97546 -1.12286,-0.95319 -2.49855,-1.10268 -3.95097,-1.02497 -2.87046,0 -5.74092,0 -8.61138,0 -2.25719,0 -2.25719,-3.16939 0,-3.16939 z"
       inkscape:connector-curvature="0" />
    <path
       style="fill:#000000;fill-opacity:1;fill-rule:nonzero;stroke:none"
       id="path11166"
       d="m 469.22732,157.80877 c 0.41997,1.38748 0.62877,2.81539 0.7628,4.2445 0.0789,0.94876 0.10774,1.90029 0.1173,2.85141 0.004,0.18158 0.002,0.3628 -0.0124,0.54387 -0.88964,0.17082 -1.77927,0.34165 -2.66892,0.51248 -1.37228,-1.30096 0.69257,-3.0302 2.06486,-1.72923 l 0,0 c -0.73771,0.31485 -1.47543,0.6297 -2.21314,0.94454 -0.003,-0.0831 -0.005,-0.1662 -0.004,-0.24931 -0.009,-0.88917 -0.0351,-1.77875 -0.10778,-2.66577 -0.11846,-1.29302 -0.30639,-2.5853 -0.68783,-3.8401 -0.48598,-1.73208 2.26313,-2.34446 2.74911,-0.61239 z"
       inkscape:connector-curvature="0" />
    <path
       style="fill:#000000;fill-opacity:1;fill-rule:nonzero;stroke:none"
       id="path11168"
       d="m 467.34388,150.81726 c 0.48354,0.8617 0.96709,1.7234 1.45063,2.58511 0.075,0.13369 0.15005,0.2674 0.22509,0.40111 2.7e-4,4.9e-4 5.5e-4,0.002 6.7e-4,0.002 0.8961,1.59689 -1.63845,2.72607 -2.53455,1.12917 l 0,0 c -2.9e-4,-5e-4 -5.6e-4,-0.002 -6.8e-4,-0.002 -0.0751,-0.13372 -0.15006,-0.26741 -0.22509,-0.40112 -0.48353,-0.8617 -0.96708,-1.7234 -1.45063,-2.5851 -0.89609,-1.5969 1.63846,-2.72608 2.53456,-1.12918 z"
       inkscape:connector-curvature="0" />
    <path
       style="fill:#000000;fill-opacity:1;fill-rule:nonzero;stroke:none"
       id="path11172"
       d="m 474.89475,156.96713 c 0.37752,1.26431 0.61227,2.55679 0.76054,3.85699 0.11093,1.05928 0.11427,2.12433 0.11961,3.18727 0.002,0.61538 -0.002,1.23078 -0.004,1.84616 -4e-4,0.10092 -0.002,0.20184 -0.002,0.30276 -0.94456,-0.0751 -1.904,-0.0584 -2.83368,-0.22507 -0.0689,-0.0124 0,-1.92363 0,-2.04975 -0.12015,-1.31981 0.22379,-2.58757 0.62257,-3.84607 0.12306,-0.37781 0.25617,-0.75305 0.41596,-1.1198 0.84126,-0.77054 2.35474,-0.96265 0.87589,-0.67409 0.0194,-0.0319 0.0391,-0.0638 0.0586,-0.0957 0.50894,-0.62488 1.16364,-0.86731 2.02856,-0.86368 0.17356,0.003 0.34708,0.005 0.52068,0.005 0.20546,4.4e-4 0.41093,6e-4 0.6164,6e-4 0.16371,0 0.32743,-1e-5 0.49114,-1e-5 0.16,-1e-5 0.32001,-2e-5 0.48001,-2e-5 1.13763,0.33132 1.45556,1.01112 1.45213,1.79016 -0.002,0.41453 -0.004,0.82907 -0.005,1.24361 -0.0184,-0.20062 0.0133,0.8048 -6.3e-4,0.60388 -0.018,-0.26117 -0.0538,-0.33691 0.0989,-0.19786 0.45148,0.40402 0.64071,0.98004 0.77997,1.52052 0.0923,0.36844 0.0726,0.75006 0.0717,1.12512 -0.002,0.32478 -0.003,0.64956 -0.005,0.97434 -0.002,0.20388 -6.8e-4,0.40776 -6.8e-4,0.61163 -2e-5,0.0998 0,0.19957 10e-6,0.29936 5.3e-4,1.78539 -2.83318,1.78605 -2.8337,6e-4 l 0,0 c -3e-5,-0.10014 -5e-5,-0.20028 -3e-5,-0.30042 4e-5,-0.20892 -4e-4,-0.41784 6.8e-4,-0.62675 0.002,-0.32149 0.004,-0.64299 0.005,-0.96447 5e-4,-0.19672 0.0117,-0.40645 -0.003,-0.56676 -0.11849,-0.45242 0.0779,-0.16891 -0.1913,-0.45618 -0.53255,-0.59251 -0.84241,-1.25918 -0.75569,-2.02724 6.8e-4,-0.41654 0.003,-0.83305 0.005,-1.24958 0.005,-0.98359 1.05735,0.57218 1.38163,0.7449 -0.15998,1e-5 -0.31997,1e-5 -0.47996,1e-5 -0.16422,0 -0.32844,3e-5 -0.49266,3e-5 -0.20777,-1.2e-4 -0.41554,-3.4e-4 -0.6233,-6.1e-4 -0.17559,-4.6e-4 -0.35114,-0.002 -0.52669,-0.005 -0.1446,-6e-4 -0.53814,0.0907 -0.4338,0.002 1.1751,-1.00446 1.26574,-1.3025 1.08317,-0.80111 -0.11269,0.26356 -0.26591,0.51124 -0.44897,0.74145 -0.61916,0.70497 -2.91068,1.54439 -0.52834,0.12682 -0.11649,0.27838 -0.21715,0.5619 -0.3102,0.84729 -0.33175,1.04144 -0.63871,2.06325 -0.51545,3.15849 -1e-5,0.12479 0.0646,2.03811 0,2.04896 -0.93087,0.15639 -1.88902,0.12899 -2.83352,0.19348 6.8e-4,-0.094 0.002,-0.18807 0.002,-0.28211 0.003,-0.60775 0.005,-1.21552 0.004,-1.82329 -0.005,-0.98252 -0.005,-1.96707 -0.10547,-2.94639 -0.13081,-1.17915 -0.34782,-2.3506 -0.69009,-3.49667 -0.48598,-1.73209 2.26312,-2.34447 2.7491,-0.61239 z"
       inkscape:connector-curvature="0" />
    <path
       style="fill:#000000;fill-opacity:1;fill-rule:nonzero;stroke:none"
       id="path11174"
       d="m 670.7153,338.5429 c 0.58122,2.89414 1.01741,5.81637 1.54858,8.72055 0.54608,3.7514 1.36744,7.45138 1.93065,11.19948 0.26364,1.81658 0.44687,3.64549 0.54645,5.47896 0.0661,1.76396 0.082,0.87847 -3.07306,0.2833 -0.043,-2.21541 3.03427,-2.27731 3.07726,-0.0619 l 0,0 c -3.14219,0.22552 -3.0325,1.19013 -3.07742,-0.0493 -0.093,-1.73279 -0.26762,-3.4612 -0.51583,-5.17805 -0.55596,-3.71509 -1.37537,-7.38155 -1.91413,-11.10002 -0.51749,-2.84173 -0.94989,-5.69956 -1.50846,-8.53296 -0.52785,-2.14968 2.45811,-2.90971 2.98596,-0.76002 z"
       inkscape:connector-curvature="0" />
    <path
       style="fill:#000000;fill-opacity:1;fill-rule:nonzero;stroke:none"
       id="path11176"
       d="m 666.85035,336.77181 c 1.68258,-0.76821 3.4469,-1.30539 5.16983,-1.96645 1.60933,-0.61409 3.29379,-0.88761 4.99813,-1.0244 1.41285,-0.13982 2.76998,-0.10047 4.1396,0.2882 1.19297,0.27331 2.21348,0.97614 3.09719,1.81049 0.74934,0.66054 0.76676,1.6238 0.7729,2.5474 -10e-4,0.92846 -0.0139,1.85686 -0.0204,2.78529 -0.003,0.47214 -0.005,0.94429 -0.006,1.41644 0.0752,1.24854 -0.52686,2.26505 -1.29245,3.17876 -0.64466,0.95281 -1.5689,1.67234 -2.42568,2.41915 -1.0447,0.68593 -2.24375,1.07506 -3.32463,1.70417 -1.45999,0.82877 -3.07269,1.19753 -4.71277,1.41619 -0.71953,0.14974 -1.4671,0.0517 -2.18981,0.14081 -0.0789,0.01 0.2476,-0.0688 0.23804,0.0115 -0.0115,0.0963 -0.17002,0.0875 -0.25503,0.13123 -0.35474,0.1864 -0.70161,0.38768 -1.04302,0.59814 -0.0728,0.049 -0.025,0.0223 0.0133,-0.0119 -1.74241,1.32772 -3.58664,-1.18111 -1.84423,-2.50883 l 0,0 c 0.0728,-0.0519 0.14502,-0.10492 0.22193,-0.15071 0.42221,-0.26312 0.85495,-0.50868 1.29504,-0.73942 1.02386,-0.50338 2.05754,-0.50371 3.16913,-0.57864 1.25396,-0.16251 2.49301,-0.41346 3.61175,-1.04719 0.91044,-0.50603 1.86024,-0.95702 2.8187,-1.34591 0.74826,-0.65209 1.56373,-1.26276 2.11397,-2.10567 0.50945,-0.55775 0.55651,-0.50716 0.52787,-1.11493 5e-4,-0.47853 0.003,-0.95706 0.006,-1.43558 0.007,-0.91517 0.0182,-1.8303 0.0204,-2.7455 -7.4e-4,-0.20938 -0.1063,-0.80163 0.009,-0.62808 0.52299,0.78907 0.33791,0.5089 0.18922,0.3476 -0.52433,-0.51359 -1.11171,-0.94659 -1.84125,-1.0833 -1.00459,-0.30888 -2.00561,-0.26166 -3.05164,-0.17534 -1.41521,0.10847 -2.81271,0.32456 -4.1501,0.83255 -1.62448,0.62274 -3.28267,1.13826 -4.87833,1.83677 -1.94661,0.99096 -3.32308,-1.81189 -1.37646,-2.80285 z"
       inkscape:connector-curvature="0" />
    <path
       style="fill:#000000;fill-opacity:1;fill-rule:nonzero;stroke:none"
       id="path11180"
       d="m 681.93898,359.72411 c -0.97706,0.14989 -1.73524,0.5669 -2.15605,1.26456 -0.56165,1.03407 -0.23522,2.04268 0.30294,3.03465 0.31952,0.36027 1.27335,1.29553 1.97054,1.08016 0.47302,-0.35346 0.72345,-1.04379 0.88753,-1.54542 0.35475,-1.05645 0.10376,-2.05336 -0.34512,-3.0599 -0.24892,-0.29922 -0.5643,-0.76751 -0.97415,-0.82665 -0.2865,-0.0118 -0.57221,-0.0232 -0.85931,-0.0179 -1.68356,0.0262 -1.73093,-1.83459 -0.0474,-1.86077 l 0,0 c 0.56699,-0.008 1.13697,0.008 1.68898,0.12082 1.18653,0.3551 1.90896,1.09577 2.44425,1.98028 0.59016,1.36032 0.86988,2.73369 0.39147,4.15016 -0.49801,1.38642 -1.32412,2.68207 -3.32954,2.91712 -1.79507,-0.18128 -3.17763,-0.97256 -4.03294,-2.23624 -0.76983,-1.52164 -1.12141,-3.07586 -0.19533,-4.61676 0.82207,-1.1257 2.01066,-1.92415 3.67654,-2.18969 1.63362,-0.31918 2.21119,1.48639 0.57758,1.80557 z"
       inkscape:connector-curvature="0" />
    <path
       style="fill:#000000;fill-opacity:1;fill-rule:nonzero;stroke:none"
       id="path11182"
       d="m 688.83667,358.19788 c 0.39053,1.10231 0.43046,2.25294 0.71826,3.36747 0.39446,0.98263 0.4163,2.03918 0.7806,3.02208 0.1895,0.53464 0.19741,0.55905 0.76218,0.62689 0.84093,0.092 1.57301,-0.26087 2.16589,-0.69218 0.73967,-0.77599 0.87913,-1.80773 1.01923,-2.74527 0.0563,-0.53945 0.0874,-1.08131 0.0708,-1.62259 0.1011,0.61325 0.97714,0.73916 0.50588,0.74367 -0.26241,0.003 -0.52472,0.009 -0.78696,0.0163 -0.0185,7.5e-4 -0.0369,7.5e-4 -0.0553,0.001 0.20267,-0.56846 0.40534,-1.13693 0.60801,-1.70539 0.95072,0.56972 1.28192,1.48171 1.8974,2.25332 0.64401,0.8045 1.44649,1.51901 2.26149,2.21855 0.40532,0.29202 0.65027,0.66532 1.06158,0.94918 0.0334,0.0213 0.0667,0.0426 0.10009,0.0639 1.29558,0.84065 -0.22561,2.27258 -1.52117,1.43194 l 0,0 c -0.0584,-0.0382 -0.11679,-0.0765 -0.17518,-0.11472 -0.48621,-0.34754 -0.77825,-0.72314 -1.22653,-1.07761 -0.91403,-0.78529 -1.80784,-1.59092 -2.52769,-2.49491 -0.0119,-0.0152 -1.67435,-1.99865 -0.82917,-1.52616 0.17276,-1.82596 -0.59774,-1.82894 0.31649,-1.85957 0.29026,-0.008 0.58058,-0.0152 0.87102,-0.0176 0.84945,10e-4 1.84871,0.16692 1.88083,1.07501 0.0176,0.62863 -0.0157,1.25793 -0.0867,1.88417 -0.21626,1.40725 -0.53347,2.8681 -1.82927,3.93585 -1.23292,0.79658 -2.6358,1.33859 -4.27963,1.0916 -1.33591,-0.28398 -2.18633,-0.87676 -2.50411,-1.95623 -0.33619,-1.03719 -0.44821,-2.11336 -0.81755,-3.14761 -0.2612,-1.08612 -0.33652,-2.19584 -0.69071,-3.27035 -0.4084,-1.27673 1.90189,-1.72812 2.31029,-0.45139 z"
       inkscape:connector-curvature="0" />
    <path
       style="fill:#000000;fill-opacity:1;fill-rule:nonzero;stroke:none"
       id="path11198"
       d="m 702.3312,349.51259 c 0.33881,0.96599 0.51946,1.9561 0.63985,2.95118 0.11112,1.25178 0.0965,2.50825 0.0998,3.76237 0.001,1.55218 -10e-4,3.10435 -0.004,4.65652 -5.7e-4,0.78006 -0.001,1.56011 -0.001,2.34016 -7e-5,0.1887 -6e-5,0.3774 -5e-5,0.56611 1e-5,0.15989 2e-5,0.31977 2e-5,0.47967 0,0.0222 0,0.0443 0,0.0665 0,1.31603 -2.38138,1.31603 -2.38138,0 l 0,0 c 0,-0.0221 0,-0.0442 0,-0.0664 -10e-6,-0.15989 -2e-5,-0.31976 -3e-5,-0.47963 -10e-6,-0.1889 -10e-6,-0.3778 5e-5,-0.56669 2.6e-4,-0.78045 5.8e-4,-1.56088 0.001,-2.34133 10e-4,-1.55035 0.004,-3.1007 0.004,-4.65105 -0.003,-1.19724 0.011,-2.39664 -0.0894,-3.59186 -0.10798,-0.90182 -0.26949,-1.79913 -0.57922,-2.67413 -0.40841,-1.27672 1.90188,-1.72811 2.31029,-0.45138 z"
       inkscape:connector-curvature="0" />
    <path
       style="fill:#000000;fill-opacity:1;fill-rule:nonzero;stroke:none"
       id="path11200"
       d="m 698.81822,356.20207 c 1.2804,0.45988 2.6216,0.72151 4.02795,0.67828 0.83339,-0.0564 1.66324,-0.14196 2.48924,-0.24465 0.28453,-0.043 0.29609,-0.0371 0.60782,-0.0615 0.28018,-0.002 0.56036,1.8e-4 0.84055,7.5e-4 0.2011,3.3e-4 0.40218,4.4e-4 0.60327,7.5e-4 0.012,1e-5 0.0409,3e-5 0.0501,3e-5 1.68389,-0.002 1.68771,1.85902 0.004,1.86114 l 0,0 c -0.0191,-2e-5 -0.0381,-10e-6 -0.0572,-5e-5 -0.20181,-2.2e-4 -0.40362,-4.4e-4 -0.60543,-7.5e-4 -0.26401,-4.4e-4 -0.52801,-10e-4 -0.79202,-7.5e-4 0.40812,-0.0636 -0.20146,0.0359 -0.27725,0.0387 -0.92612,0.11485 -1.85671,0.21134 -2.79198,0.26689 -1.80162,0.0322 -3.52962,-0.26884 -5.16386,-0.87394 -1.50612,-0.58854 -0.44113,-2.25319 1.06499,-1.66464 z"
       inkscape:connector-curvature="0" />
    <path
       style="fill:#000000;fill-opacity:1;fill-rule:nonzero;stroke:none"
       id="path11214"
       d="m 338.54619,477.9668 c 2.52264,-3.17908 5.07362,-6.34297 7.70482,-9.43533 4.65424,-5.34987 9.94788,-10.08199 14.92138,-15.12253 7.48211,-7.79143 15.26399,-15.28343 23.10741,-22.7079 9.59037,-8.73492 18.71086,-17.95963 27.99384,-27.01561 10.25298,-9.9431 20.72894,-19.65205 31.21978,-29.34257 10.56034,-9.73022 21.15025,-19.42829 31.73662,-29.13016 10.314,-9.45133 20.62665,-18.90413 30.93863,-28.35766 9.4777,-8.6889 18.95486,-17.37837 28.43203,-26.06784 8.61238,-7.83495 17.22044,-15.66162 25.46491,-23.88424 7.33439,-7.1397 14.46918,-14.46717 21.55782,-21.84886 5.9621,-6.21624 12.19448,-12.1627 18.47569,-18.05323 4.87388,-4.54763 9.79175,-9.04779 14.70789,-13.54962 4.21717,-3.59889 8.05924,-7.55251 11.79037,-11.64203 3.04907,-3.14067 6.01884,-6.30779 8.6972,-9.77076 1.10549,-1.44761 2.21336,-2.90153 3.44956,-4.24144 0.41969,-0.44274 0.85881,-0.86626 1.31123,-1.27523 0.18827,-0.15147 0.35834,-0.31473 0.53784,-0.47808 0.26875,-0.24561 0.53659,-0.49239 0.80479,-0.73864 0.4421,-0.40594 0.88442,-0.8115 1.32677,-1.21716 0.40242,-0.36902 0.80487,-0.73801 1.20731,-1.10701 0.0978,-0.0897 0.19563,-0.17934 0.29336,-0.26896 0.0956,-0.0877 0.1912,-0.17531 0.28687,-0.26302 2.17871,-1.99764 5.00383,1.08355 2.8251,3.08119 l 0,0 c -0.0956,0.0877 -0.19134,0.17545 -0.28694,0.26309 -0.0977,0.0896 -0.19555,0.17929 -0.29328,0.2689 -0.40237,0.36893 -0.80467,0.73778 -1.20703,1.10673 -0.44168,0.40506 -0.88341,0.81007 -1.32484,1.21541 -0.27262,0.25031 -0.54484,0.5009 -0.81789,0.75061 -0.14089,0.12825 -0.62258,0.5717 -0.57747,0.51373 -0.35312,0.31834 -0.69359,0.65046 -1.02293,0.9934 -1.16093,1.23792 -2.16576,2.6168 -3.20598,3.95427 -2.74807,3.55183 -5.78498,6.81225 -8.91559,10.03055 -3.81531,4.18146 -7.74722,8.22363 -12.0553,11.90743 -4.90381,4.49081 -9.80962,8.97964 -14.67145,13.51593 -6.2281,5.84056 -12.40834,11.73598 -18.32008,17.89947 -7.10949,7.40335 -14.26561,14.75215 -21.62106,21.9133 -8.28635,8.26349 -16.93517,16.13217 -25.59171,24.00553 -9.47726,8.68953 -18.9545,17.37907 -28.43227,26.06803 -10.31214,9.4537 -20.62495,18.90665 -30.93912,28.35812 -10.58207,9.69847 -21.16821,19.39254 -31.72458,29.11899 -10.46298,9.66472 -20.91122,19.3477 -31.13714,29.26413 -9.29807,9.07054 -18.43362,18.30991 -28.03924,27.05923 -7.80922,7.39187 -15.55714,14.85102 -23.00615,22.60873 -4.90387,4.96544 -10.11551,9.63394 -14.7135,14.89586 -2.52392,2.96205 -4.95395,6.00443 -7.39961,9.02925 -1.62918,2.46644 -5.11723,0.16243 -3.48805,-2.304 z"
       inkscape:connector-curvature="0" />
    <path
       style="fill:#000000;fill-opacity:1;fill-rule:nonzero;stroke:none"
       id="path11264"
       d="m 308.39854,148.24212 c 1.89952,9.67989 3.37064,19.46043 4.93818,29.218 2.7921,18.51914 5.85486,37.04616 10.5426,55.06099 1.07868,4.14534 2.33398,8.22511 3.50098,12.33766 5.00957,15.8873 10.84901,31.61338 18.82707,45.81906 4.77943,8.5102 6.70522,10.60065 12.35335,18.21366 10.62654,12.58482 23.18805,22.73921 36.71773,30.60431 2.43155,1.41352 4.93922,2.64076 7.40883,3.96114 9.05581,4.36284 18.54171,8.01527 28.38905,8.74277 5.94554,0.43926 7.99865,-0.0535 13.9,-0.69316 13.91807,-2.15064 26.19595,-8.69013 38.1783,-16.89504 10.10375,-7.50519 19.79366,-15.98637 27.82489,-26.43315 1.62205,-2.10991 3.10786,-4.35754 4.6618,-6.53632 9.68156,-14.88858 16.86708,-31.70881 23.78713,-48.49261 5.63134,-13.34467 10.74536,-26.93822 15.42039,-40.77199 3.79638,-11.82006 6.63036,-24.02176 9.60393,-36.14878 1.76282,-6.71947 3.31176,-13.51123 4.41773,-20.42041 0.49561,-3.0894 4.23505,-2.27045 3.73944,0.81893 l 0,0 c -1.13257,7.04466 -2.69894,13.97423 -4.49978,20.82587 -3.00822,12.26491 -5.87508,24.60535 -9.72263,36.55691 -4.70911,13.93421 -9.86049,27.62673 -15.53159,41.06888 -7.05731,17.1116 -14.39505,34.25371 -24.2936,49.41134 -1.61724,2.26096 -3.16412,4.59322 -4.8517,6.78287 -8.27253,10.73367 -18.23406,19.46533 -28.63417,27.17479 -2.05279,1.40205 -4.06838,2.88129 -6.15838,4.20616 -10.44472,6.62097 -21.818,11.32784 -33.59548,13.27925 -6.26831,0.65983 -8.38357,1.16924 -14.70449,0.67926 -10.23695,-0.79356 -20.10137,-4.56115 -29.51557,-9.1144 -2.54175,-1.36228 -5.1224,-2.62957 -7.62526,-4.08687 -13.93969,-8.11645 -26.86697,-18.61111 -37.79324,-31.61065 -5.86368,-7.92656 -7.78381,-9.99846 -12.74877,-18.85476 -8.1179,-14.48042 -14.0686,-30.49976 -19.1665,-46.68909 -1.18554,-4.18395 -2.46013,-8.33489 -3.55663,-12.55186 -4.71548,-18.13496 -7.80404,-36.78304 -10.61469,-55.42475 -1.56472,-9.74034 -3.0337,-19.50339 -4.92961,-29.16625 -0.52758,-3.08216 3.2031,-3.95392 3.73069,-0.87176 z"
       inkscape:connector-curvature="0" />
    <path
       inkscape:connector-curvature="0"
       d="m 241.28006,148.34387 c 2.48211,10.19254 4.40444,20.49107 6.45277,30.76541 3.64845,19.49991 7.65057,39.00814 13.77608,57.97704 1.40951,4.36488 3.04982,8.66071 4.57476,12.99107 6.54603,16.7287 14.17646,33.28763 24.60145,48.24565 6.24532,8.96091 8.76175,11.16208 16.14221,19.17827 13.88578,13.25132 30.3,23.94348 47.97932,32.22513 3.17732,1.48837 6.45411,2.78061 9.68117,4.17091 11.83329,4.5939 24.22858,8.43977 37.09615,9.2058 7.76909,0.46253 10.45191,-0.0563 18.16324,-0.72988 18.18682,-2.26453 34.23043,-9.15035 49.88784,-17.7898 13.20265,-7.90268 25.86452,-16.833 36.35899,-27.83305 2.11954,-2.22166 4.06106,-4.58833 6.09158,-6.8825 12.65099,-15.67708 22.04036,-33.38813 31.08284,-51.06079 7.35849,-14.05141 14.04103,-28.36489 20.14993,-42.93129 4.96076,-12.44607 8.66392,-25.29397 12.54951,-38.06324 2.3035,-7.07535 4.3275,-14.22681 5.77268,-21.5019 0.64763,-3.25301 5.53398,-2.39069 4.88635,0.86232 l 0,0 c -1.47993,7.41773 -3.52672,14.71429 -5.87989,21.92881 -3.93085,12.91446 -7.677,25.90846 -12.70462,38.49298 -6.15344,14.67217 -12.88478,29.08985 -20.29524,43.2439 -9.22184,18.01784 -18.81012,36.0678 -31.74462,52.02818 -2.11325,2.38072 -4.13457,4.8365 -6.33976,7.1421 -10.80976,11.30213 -23.82656,20.49623 -37.41646,28.61399 -2.6824,1.4763 -5.31617,3.03387 -8.0472,4.42891 -13.6482,6.97162 -28.50973,11.92777 -43.89943,13.98253 -8.19086,0.69478 -10.95488,1.23117 -19.21447,0.71524 -13.37669,-0.83558 -26.26661,-4.80271 -38.5682,-9.59711 -3.32133,-1.43443 -6.69349,-2.76883 -9.96399,-4.3033 -18.21508,-8.54631 -35.10725,-19.59677 -49.38468,-33.28477 -7.66212,-8.34637 -10.17117,-10.52798 -16.65892,-19.85332 -10.60771,-15.24731 -18.38354,-32.11505 -25.04498,-49.16177 -1.54917,-4.40554 -3.21468,-8.77631 -4.64748,-13.21661 -6.16175,-19.09539 -10.19758,-38.73108 -13.87029,-58.36007 -2.04464,-10.2562 -3.96416,-20.53629 -6.44154,-30.7109 -0.68941,-3.2454 4.1855,-4.16333 4.8749,-0.91794 z"
       id="path11266"
       style="fill:#000000;fill-opacity:1;fill-rule:nonzero;stroke:none" />
    <path
       style="fill:#000000;fill-opacity:1;fill-rule:nonzero;stroke:none"
       id="path11276"
       d="m 238.82589,352.25822 c 0.57957,3.1304 1.03781,6.28187 1.49343,9.43411 0.39592,4.01019 0.95194,8.00112 1.3787,12.00783 0.17436,1.67806 0.31117,3.36074 0.38772,5.04651 0.0377,0.77809 -0.1015,0.92385 -2.4905,0.0292 -0.1091,-0.0409 0.50379,-2.5059 0.50901,-2.52771 0.8566,-2.78383 2.14651,-5.42246 3.90237,-7.72352 2.24915,-2.33606 4.3193,-3.20328 7.47355,-2.5011 2.17244,0.83395 3.46662,2.86521 2.91373,5.25504 -0.11306,0.48866 -0.34953,0.9388 -0.52429,1.40821 -1.71514,2.89841 -4.77203,4.40066 -7.73405,5.65995 -2.03885,0.72368 -4.15041,1.56285 -6.18644,0.48983 -0.76405,-0.64506 -0.92306,-1.17492 -1.06175,-2.13084 -0.0148,-1.80357 2.48748,-1.82491 2.50229,-0.0214 l 0,0 c -0.26497,-0.47047 0.0243,-0.0956 -0.17606,-0.0489 0.70996,0.75583 3.13332,-0.46746 3.96323,-0.64482 2.34441,-0.98497 4.85801,-2.13064 6.38173,-4.28206 0.59825,-1.26235 0.79532,-2.5344 -0.66916,-3.20645 -1.90175,-0.55445 -3.56528,0.16561 -4.92079,1.60571 -1.57315,1.9797 -2.63735,4.34376 -3.43444,6.74968 -0.5828,2.39165 0.27036,1.95277 -2.9325,2.32183 -0.10254,0.0118 0.15038,-0.41699 -0.0156,-0.31515 -0.0737,-1.63315 -0.20731,-3.26323 -0.37578,-4.88891 -0.42282,-3.97453 -0.97618,-7.93315 -1.3666,-11.91134 -0.44904,-3.1092 -0.89883,-6.21812 -1.47154,-9.30551 -0.34702,-1.7686 2.10677,-2.26884 2.45378,-0.50024 z"
       inkscape:connector-curvature="0" />
    <path
       style="fill:#000000;fill-opacity:1;fill-rule:nonzero;stroke:none"
       id="path11282"
       d="m 261.13468,367.17 c -0.33135,1.6552 -0.49984,3.33391 -0.60575,5.01756 -0.0612,1.07704 -0.0885,2.15588 -0.0968,3.2346 -4e-4,0.20811 -6e-4,0.11495 1.8e-4,0.27948 0.008,1.80361 -2.49421,1.81533 -2.50235,0.0117 l 0,0 c -6e-4,-0.18658 -6e-4,-0.0828 -1.2e-4,-0.31145 0.009,-1.12673 0.0375,-2.25358 0.10193,-3.37854 0.11688,-1.83655 0.30294,-3.66852 0.67527,-5.47201 0.42916,-1.74978 2.85682,-1.13113 2.42767,0.61864 z"
       inkscape:connector-curvature="0" />
    <path
       style="fill:#000000;fill-opacity:1;fill-rule:nonzero;stroke:none"
       id="path11284"
       d="m 259.31102,357.86442 c 0.85401,0.43525 1.70802,0.8705 2.56202,1.30575 0.13251,0.0675 0.26503,0.13508 0.39754,0.20261 -2.02924,1.29446 -1.79685,1.52788 -1.82796,0.44976 -0.004,-0.291 -0.005,-0.58203 -0.005,-0.87306 -2.1e-4,-0.0545 3e-5,-0.10912 1.2e-4,-0.16368 8e-5,-0.005 1.6e-4,-0.0112 2.4e-4,-0.0168 0.0352,-1.80327 2.53709,-1.75251 2.50187,0.0508 l 0,0 c 7e-5,-0.005 1.3e-4,-0.01 2e-4,-0.0143 -2e-5,0.043 -2.3e-4,0.0951 -5e-5,0.14012 5.3e-4,0.26685 10e-4,0.53369 0.004,0.80053 0.0335,1.15999 0.0635,0.7312 -1.7924,1.90817 -0.13251,-0.0675 -0.26502,-0.13507 -0.39753,-0.20261 -0.85401,-0.43525 -1.70802,-0.8705 -2.56202,-1.30575 -1.58264,-0.80661 -0.46355,-3.08804 1.11909,-2.28143 z"
       inkscape:connector-curvature="0" />
    <path
       style="fill:#000000;fill-opacity:1;fill-rule:nonzero;stroke:none"
       id="path11290"
       d="m 270.1617,369.28992 c -0.74548,-0.0231 -1.55147,-0.002 -2.24714,0.1198 -0.27841,0.25791 -0.52506,0.5513 -0.77018,0.84183 -0.43983,0.38749 -0.62514,0.80647 -0.75684,1.3632 -0.1079,0.6211 -0.15921,1.19394 0.0527,1.77913 0.13191,0.2806 0.55182,0.58594 0.86135,0.91327 0.35727,0.1878 0.81426,0.18401 1.21524,0.21464 0.45149,0.0273 0.90421,0.0197 1.35626,0.0166 -0.0826,-10e-5 -0.27005,0.0807 -0.24771,-3e-4 0.0281,-0.10203 0.19653,-0.0741 0.284,-0.13141 0.27302,-0.17875 0.56089,-0.64923 0.77823,-0.89821 0.26007,-0.42553 0.49088,-0.85864 0.56799,-1.3535 0.0556,-0.51564 0.04,-1.03734 0.0371,-1.55546 -0.003,-0.47057 -0.006,-0.94116 -0.01,-1.41173 0.0318,-0.3045 -0.12375,-1.00399 0.12408,0.1482 0.12904,0.16963 -0.0477,0.0428 -0.11161,0.0134 2.79749,0.3479 -1.53309,-3.25261 1.40771,-2.18969 1.13351,0.96799 1.61068,2.515 2.06297,3.90717 0.41965,1.84076 0.70921,3.71328 1.02741,5.57676 0.30269,1.81653 0.41165,3.65696 0.47308,5.49585 0.0312,1.05991 0.0284,2.12038 0.0259,3.18063 0.0985,1.3597 -0.33394,2.42047 -1.25265,3.38439 -1.21333,1.04792 -2.72649,1.51913 -4.2632,1.79696 -1.61099,0.26991 -3.15752,0.23959 -4.67207,-0.3974 -1.48638,-0.70897 -2.11001,-2.16475 -2.74455,-3.6001 -0.52619,-1.11282 -0.92864,-2.28103 -1.14881,-3.49553 -0.31572,-1.77468 2.1465,-2.2298 2.46222,-0.45511 l 0,0 c 0.17528,1.01162 0.53341,1.97767 0.96812,2.90291 0.3683,0.83343 0.64674,1.8496 1.48062,2.31753 1.00219,0.53627 2.1477,0.32432 3.22993,0.21396 1.06472,-0.17921 2.1394,-0.4706 3.00016,-1.1666 0.54831,-0.23244 0.42612,-1.02915 0.43785,-1.50727 0.002,-1.0294 0.005,-2.05902 -0.0244,-3.08811 -0.0567,-1.72136 -0.15571,-3.44445 -0.43752,-5.14516 -0.29705,-1.74331 -0.57862,-3.49177 -0.94026,-5.22029 -0.2707,-0.85562 -0.64359,-1.67455 -0.95795,-2.50472 1.84105,0.30983 -0.56379,-3.07669 0.8594,-2.34708 0.44797,0.2028 0.85529,0.47563 1.16928,0.86704 0.19851,0.53428 0.35768,0.79768 0.32666,1.29243 0.004,0.47244 0.007,0.94488 0.01,1.41731 0.004,0.67352 0.0213,1.35222 -0.0765,2.02027 -0.17823,0.95819 -0.58551,1.81925 -1.16251,2.59963 -0.75221,0.85985 -1.48833,1.69397 -2.66614,1.88394 -0.52192,0.004 -1.04462,0.0111 -1.56575,-0.0241 -0.92059,-0.0741 -1.85722,-0.19033 -2.61195,-0.78758 -0.64107,-0.59234 -1.33009,-1.23679 -1.64436,-2.07186 -0.33587,-1.07175 -0.34083,-2.12129 -0.10551,-3.21953 0.2351,-0.91354 0.59952,-1.74194 1.28643,-2.39959 0.54157,-0.63947 1.09499,-1.2838 1.88743,-1.60087 1.1802,-0.31447 2.4217,-0.29669 3.63238,-0.17015 1.71662,0.43744 1.1097,2.912 -0.60692,2.47455 z"
       inkscape:connector-curvature="0" />
    <path
       style="fill:#000000;fill-opacity:1;fill-rule:nonzero;stroke:none"
       id="path11292"
       d="m 298.05516,354.12542 c 1.06751,0 2.13502,0 3.20253,0 0.16564,0 0.33128,0 0.49692,0 -0.0588,2.90965 0.32378,2.55071 -1.44374,2.55071 -1.49078,-0.0849 -2.92899,0.20834 -4.30834,0.76967 -2.0477,0.95646 -3.24489,2.78869 -4.17509,4.79551 -0.98731,2.3717 -1.19908,4.94298 -1.33581,7.48543 0.0943,1.40257 0.2621,3.25435 1.56646,4.04965 1.33838,0.92993 2.90315,1.2551 4.47623,1.48363 0.79176,0.0104 1.29429,-0.18921 1.69673,-0.87631 0.41646,-1.16386 0.52156,-2.40524 0.83318,-3.60446 0.27203,-1.01409 0.4583,-2.03796 0.53855,-3.08472 0.0407,-0.59893 0.0473,-1.19975 0.0458,-1.79993 -10e-4,-0.0627 -2.7e-4,-0.12537 -4.1e-4,-0.18805 0.83203,0.0647 1.67506,0.0421 2.49608,0.19403 0.0942,0.0175 0.0554,0.18695 0.0768,0.28207 0.26356,1.17228 0.58907,2.32028 0.94622,3.46745 0.73647,2.03149 1.26845,4.14188 1.98831,6.17639 0.37453,0.88067 0.7077,1.77944 1.01136,2.6879 0.0435,0.12575 0.0803,0.25362 0.11623,0.38173 0.45143,1.74394 -1.96813,2.39471 -2.41957,0.65077 l 0,0 c -0.002,-0.006 -0.0554,-0.1899 -0.0656,-0.21056 -0.29966,-0.89828 -0.63433,-1.78441 -1.00069,-2.65663 -0.71175,-2.07041 -1.28053,-4.1956 -2.01581,-6.25991 -0.3817,-1.23229 -0.78887,-2.48176 -1.01784,-3.75542 -0.046,-0.25599 -0.35078,-0.6556 -0.12184,-0.77081 0.75688,-0.38091 1.66517,-0.28327 2.49776,-0.4249 0.009,0.13984 0.0119,0.27985 0.0113,0.42003 0.001,0.66942 -0.007,1.33952 -0.0536,2.00746 -0.0945,1.19936 -0.30314,2.37548 -0.61445,3.53741 -0.38825,1.48792 -0.43811,3.07675 -1.21603,4.43341 -1.04257,1.39333 -2.33285,2.04872 -4.0894,1.9177 -1.9995,-0.29644 -3.96592,-0.77253 -5.64399,-1.98567 -0.30682,-0.26379 -0.64877,-0.49022 -0.92047,-0.79139 -1.27987,-1.41876 -1.52763,-3.60251 -1.61992,-5.42178 0.15758,-2.87824 0.43284,-5.77877 1.57994,-8.45153 1.23983,-2.58324 2.85516,-4.87732 5.5248,-6.06667 1.67551,-0.64775 3.40916,-1.04097 5.21307,-0.94221 1.76752,0 1.38491,-0.35894 1.44374,2.55071 -0.16564,0 -0.33128,0 -0.49692,0 -1.06751,0 -2.13502,0 -3.20253,0 -1.76945,0 -1.76945,-2.55071 0,-2.55071 z"
       inkscape:connector-curvature="0" />
    <path
       style="fill:#000000;fill-opacity:1;fill-rule:nonzero;stroke:none"
       id="path11294"
       d="m 295.30741,366.80205 c 2.15643,-0.38286 4.33507,-0.55492 6.49709,-0.90404 1.67921,-0.26887 3.36169,-0.52639 5.05665,-0.66608 1.65016,-0.01 0.88049,-0.32308 0.3768,0.23544 -0.32711,0.68097 0.43798,-0.89621 1.183,-1.08948 0.28255,-0.0381 0.15003,-0.024 0.39727,-0.0448 1.76431,-0.1374 1.95493,2.4059 0.19062,2.54329 l 0,0 c -0.039,0.002 -0.0779,0.005 -0.11687,0.007 0.31388,-0.1398 1.27201,-2.15299 0.56079,-0.22846 -0.55626,0.92238 -1.38714,1.14088 -2.39201,1.11997 -1.63103,0.13143 -3.24904,0.38733 -4.86495,0.64282 -2.12898,0.34336 -4.27278,0.52084 -6.39763,0.88589 -1.73509,0.35372 -2.22585,-2.14746 -0.49076,-2.50118 z"
       inkscape:connector-curvature="0" />
    <path
       style="fill:#000000;fill-opacity:1;fill-rule:nonzero;stroke:none"
       id="path11296"
       d="m 320.56221,353.53675 c 0.96736,2.64383 1.51448,5.42501 1.90325,8.21179 0.48391,3.50376 1.06479,6.99072 1.57862,10.48962 0.32749,2.3834 1.10677,4.6506 1.744,6.95568 0.19254,0.7503 0.38878,1.50143 0.52624,2.26478 0.0224,0.1084 0.0276,0.21803 0.0335,0.32825 0.0129,1.80359 -2.48947,1.82211 -2.50231,0.0185 l 0,0 c 0.002,0.0366 0.0105,0.14623 0.007,0.10976 -0.12059,-0.68502 -0.3047,-1.35706 -0.47319,-2.03073 -0.66313,-2.40845 -1.47334,-4.77835 -1.80994,-7.26903 -0.51379,-3.50587 -1.09678,-6.99959 -1.58155,-10.51019 -0.34638,-2.51929 -0.8477,-5.01907 -1.66365,-7.42773 -0.79132,-1.61322 1.44687,-2.75393 2.23819,-1.14072 z"
       inkscape:connector-curvature="0" />
    <path
       style="fill:#000000;fill-opacity:1;fill-rule:nonzero;stroke:none"
       id="path11298"
       d="m 331.20125,356.1169 c -0.56912,2.03902 -1.54806,3.85728 -2.72957,5.58659 -1.30721,1.78498 -2.82079,3.39745 -4.34289,4.99062 -0.49048,0.50497 -0.97773,1.01365 -1.48223,1.5042 -0.0348,0.0619 -0.13273,0.20829 -0.15754,0.14157 -0.92746,-2.49429 -1.41479,-2.32151 0.12907,-2.3542 1.67933,-0.045 3.20147,0.73409 4.71254,1.37345 2.19483,0.9186 4.05099,2.3604 5.69759,4.07393 1.28636,1.43725 2.43634,2.99583 3.72472,4.43236 0.58396,0.77896 1.15924,1.53386 1.95759,2.09082 0.0496,0.0502 0.1165,0.0661 0.17385,0.0986 1.59977,0.77069 0.5305,3.07682 -1.06927,2.30612 l 0,0 c -0.18491,-0.0926 -0.36631,-0.19143 -0.53555,-0.31219 -0.94025,-0.67552 -1.70395,-1.52095 -2.37895,-2.46833 -1.26028,-1.42189 -2.41251,-2.93825 -3.66387,-4.36646 -1.40305,-1.47387 -2.98504,-2.71214 -4.8657,-3.4991 -1.18811,-0.50297 -2.39466,-1.18431 -3.7117,-1.1788 -1.17026,0.0123 -1.84643,-0.71624 -1.73939,-2.184 0.48247,-0.46838 0.94694,-0.95569 1.41622,-1.43763 1.42824,-1.49454 2.85078,-3.00482 4.08515,-4.67317 1.01451,-1.4702 1.85482,-3.00684 2.35227,-4.74298 0.42915,-1.74978 2.85682,-1.13114 2.42766,0.61863 z"
       inkscape:connector-curvature="0" />
    <path
       style="fill:#000000;fill-opacity:1;fill-rule:nonzero;stroke:none"
       id="path11300"
       d="m 316.18699,378.2231 c -0.55689,1.80456 -1.31788,3.51815 -2.16453,5.19656 -0.39195,0.8484 -0.89609,1.63398 -1.40988,2.40908 -0.99171,1.49373 -3.06412,0.0641 -2.07242,-1.42958 l 0,0 c 0.45884,-0.68989 0.91173,-1.38759 1.25687,-2.14587 0.75922,-1.50509 1.44692,-3.03581 1.96229,-4.64883 0.42916,-1.74978 2.85682,-1.13113 2.42767,0.61864 z"
       inkscape:connector-curvature="0" />
    <path
       style="fill:#000000;fill-opacity:1;fill-rule:nonzero;stroke:none"
       id="path11310"
       d="m 250.72071,413.30404 c -1.34972,-0.84202 -2.7629,-1.52855 -4.30292,-1.90396 -1.04988,-0.24556 -2.12656,-0.30408 -3.19962,-0.32375 -0.25537,0.23196 -0.62663,0.88067 -0.79407,1.36941 -0.0953,0.8142 -0.55717,1.87562 -0.26515,2.68403 0.21951,0.66284 0.66496,0.6966 1.25969,0.82413 1.75692,0.25979 3.54182,0.24319 5.31353,0.25456 1.63784,-0.088 3.18298,0.051 4.58906,0.95718 1.34169,1.23116 1.27729,2.79072 0.75135,4.40533 -0.6099,1.5537 -1.53979,2.88971 -2.7501,4.00876 -1.59486,1.25034 -3.53013,1.48315 -5.47071,1.62049 -1.98676,0.1506 -3.94913,-0.16306 -5.63455,-1.26564 -1.45482,-1.02664 -0.0304,-3.12382 1.42439,-2.09716 l 0,0 c 1.07032,0.91648 2.73325,0.83529 4.04027,0.81797 1.37744,-0.0933 2.80335,-0.17303 3.98366,-0.98711 0.92355,-0.79756 1.56961,-1.82345 2.04936,-2.95209 0.2043,-0.51628 0.34638,-0.89705 0.22085,-1.42647 -0.921,-0.70218 -2.13127,-0.51417 -3.21945,-0.53059 -1.96244,-0.0128 -3.94234,0.007 -5.88317,-0.32532 -1.55764,-0.40983 -2.72996,-1.17403 -3.13633,-2.84854 -0.18416,-1.37214 0.0113,-2.74928 0.39935,-4.07516 0.59269,-1.44773 1.51168,-2.80507 3.16862,-2.98406 1.25815,0.0246 2.5194,0.10323 3.74903,0.39672 1.71538,0.4371 3.32163,1.14611 4.82601,2.09984 1.58264,0.80661 0.46354,3.08804 -1.1191,2.28143 z"
       inkscape:connector-curvature="0" />
    <path
       style="fill:#000000;fill-opacity:1;fill-rule:nonzero;stroke:none"
       id="path11312"
       d="m 258.83689,411.35295 c 0.72877,1.97788 1.27419,4.02097 1.94789,6.01826 0.55851,1.5687 0.95294,3.18659 1.2117,4.83242 -0.0649,0.34846 0.44944,2.89124 -0.0833,1.08836 -0.39116,-0.56319 -1.16821,-0.25357 -1.53429,0.22174 0.0867,-1.0928 0.0619,-2.1947 0.0643,-3.29065 0.0436,-1.9279 -0.1071,-3.86368 0.10542,-5.78209 0.37133,-1.69364 1.21212,-3.11674 2.52881,-4.20299 1.13983,-0.87239 2.30047,-0.95975 3.57406,-0.369 1.53986,1.07115 2.47067,2.70538 3.125,4.44186 0.32804,1.34834 0.88351,2.62259 1.24155,3.96179 0.12003,0.51679 0.22229,1.03976 0.2674,1.56942 0.0527,1.08557 -0.26845,0.70293 -2.34154,-0.50234 -0.0681,-0.0396 0.21241,-0.49555 0.50088,-0.99437 0.74494,-1.22471 1.25845,-2.5552 2.02866,-3.76372 0.69905,-1.32882 1.6761,-2.44218 2.59866,-3.60469 0.78206,-1.10807 0.71398,-0.97178 2.30267,-1.38318 1.17508,0.61956 1.75482,1.90558 2.40373,3.01606 0.97344,1.89534 1.46308,4.02931 1.91078,6.10999 0.34106,1.73594 0.50158,3.50032 0.58858,5.26622 0.0171,0.40633 0.0321,0.81306 0.0194,1.21965 -0.0864,0.95125 0.0234,0.10378 -2.5049,-0.23927 -0.0221,-1.80348 2.48007,-1.83536 2.50218,-0.0318 l 0,0 c -0.8303,0.0223 -1.66061,0.0447 -2.4909,0.067 -0.002,0.0218 -0.004,0.0437 -0.005,0.0655 0.005,-0.30457 -0.006,-0.6419 -0.02,-0.95377 -0.0793,-1.62582 -0.22395,-3.25046 -0.53411,-4.84942 -0.38686,-1.81498 -0.8045,-3.68075 -1.61604,-5.34906 -0.32892,-0.56317 -0.64737,-1.11168 -1.00513,-1.65437 -0.069,-0.10461 -0.24531,-0.18108 -0.21997,-0.30445 0.01,-0.0475 0.091,0.0282 0.13651,0.0423 2.19034,-0.85221 1.05114,-0.36488 0.47724,0.58348 -0.87245,1.09792 -1.79975,2.14144 -2.45389,3.40293 -0.77307,1.17409 -1.22892,2.51789 -1.9907,3.70313 -0.0931,0.13708 -0.0828,0.43314 -0.24635,0.43265 -2.53594,-0.008 -2.51922,-1.05639 -2.53468,-0.0693 -0.0351,-0.37793 -0.107,-0.75127 -0.1912,-1.12083 -0.32051,-1.26227 -0.88238,-2.44986 -1.1666,-3.72324 -0.4183,-1.17393 -1.01756,-2.29729 -1.98244,-3.09998 -0.0175,-0.0485 0.0754,-0.14208 0.0258,-0.15268 -0.27502,-0.0588 -0.63729,0.14943 -0.85024,0.28649 -0.81878,0.62773 -1.30892,1.51031 -1.59451,2.51112 -0.24398,1.80791 0.002,3.6571 -0.0867,5.47655 -0.003,1.28639 0.0491,2.58858 -0.12971,3.8646 -0.47178,1.46851 -1.65194,1.86472 -2.79265,0.8705 -0.36577,-0.84152 -0.48612,-1.44548 -0.49783,-2.35825 -0.23391,-1.5022 -0.59681,-2.97737 -1.10808,-4.40822 -0.6328,-1.8919 -1.17524,-3.81527 -1.81857,-5.70361 -0.79132,-1.61321 1.44687,-2.75392 2.2382,-1.14071 z"
       inkscape:connector-curvature="0" />
    <path
       style="fill:#000000;fill-opacity:1;fill-rule:nonzero;stroke:none"
       id="path11314"
       d="m 287.64242,411.87799 c 0.85401,-0.21762 1.70802,-0.43525 2.56203,-0.65288 0.1325,-0.0337 0.26501,-0.0675 0.39753,-0.1013 0.11142,3.23935 0.36058,2.52452 -1.88647,2.52232 -1.33172,0.23242 -2.32238,1.22046 -3.22701,2.16768 -0.64455,1.10156 -1.69948,2.6526 -1.26965,4.00014 0.42074,0.88297 1.06271,1.11109 1.9383,1.33561 0.85762,-0.0796 1.17779,-0.84819 1.43392,-1.57798 0.62293,-1.2624 0.92625,-2.63266 1.08842,-4.02567 0.0679,-0.72726 0.12442,-1.45702 0.13071,-2.18793 -0.11536,-0.20872 1.29638,-1.75039 2.41368,-0.89442 0.67364,0.56059 0.82762,1.37169 0.89218,2.20753 0.1026,1.4738 0.47951,2.92929 0.82959,4.36305 0.25923,1.67923 0.92555,3.19178 1.65512,4.6962 0.21257,0.4129 0.7143,0.87361 0.9206,0.96488 0.27626,0.0395 0.21977,0.0195 -0.0242,-0.0467 1.53638,-0.89472 2.77773,1.32002 1.24135,2.21475 l 0,0 c -0.64919,0.33549 -1.31034,0.50904 -2.01876,0.2482 -1.08341,-0.41246 -1.77747,-1.25404 -2.36265,-2.25178 -0.80719,-1.66797 -1.5359,-3.35583 -1.83974,-5.20964 -0.38395,-1.57303 -0.77939,-3.16985 -0.89663,-4.78834 -0.0503,-0.73944 0.10585,-0.19678 0.004,-0.43626 1.34729,-1.17318 1.69246,-2.17297 1.6877,-1.04207 -0.009,0.8252 -0.0686,1.6492 -0.14885,2.4701 -0.19542,1.60868 -0.53955,3.19879 -1.24816,4.66287 -0.80491,1.94548 -2.16363,3.37542 -4.39679,3.09945 -1.821,-0.50527 -3.15454,-1.4386 -3.76155,-3.34415 -0.30604,-2.30016 0.57271,-4.42668 1.94537,-6.24444 1.39426,-1.43867 2.95473,-2.75755 5.01545,-2.93183 2.20015,0.002 1.81157,-0.61199 2.49097,2.50295 -0.13251,0.0337 -0.26502,0.0675 -0.39753,0.1013 -0.85401,0.21763 -1.70802,0.43525 -2.56203,0.65288 -1.71661,0.43744 -2.32353,-2.03711 -0.60691,-2.47456 z"
       inkscape:connector-curvature="0" />
    <path
       style="fill:#000000;fill-opacity:1;fill-rule:nonzero;stroke:none"
       id="path11316"
       d="m 300.53814,400.56089 c 0.53865,2.89261 0.52573,5.85165 0.77309,8.77682 0.41795,3.19256 0.42916,6.43015 0.83424,9.62091 0.21261,1.28369 0.44959,2.56336 0.71819,3.83613 0.0215,0.10931 0.0483,0.21753 0.0738,0.32587 0.45917,1.74184 -1.95749,2.40374 -2.41666,0.6619 l 0,0 c -0.0371,-0.14992 -0.0728,-0.30016 -0.10364,-0.4516 -0.28333,-1.34382 -0.53433,-2.69479 -0.75415,-4.05091 -0.39557,-3.22783 -0.43669,-6.49551 -0.84507,-9.72471 -0.23294,-2.79117 -0.23607,-5.61035 -0.70749,-8.37577 -0.42915,-1.74978 1.99851,-2.36841 2.42766,-0.61864 z"
       inkscape:connector-curvature="0" />
    <path
       style="fill:#000000;fill-opacity:1;fill-rule:nonzero;stroke:none"
       id="path11318"
       d="m 307.98286,402.77409 c -0.052,2.9815 -0.002,5.9495 0.23347,8.92142 0.18313,3.01355 0.42201,6.00651 0.90756,8.98559 0.17054,1.07492 0.33868,2.15031 0.49253,3.22786 0.0143,0.094 0.0259,0.18829 0.0368,0.2827 0.17346,1.79495 -2.31687,2.045 -2.49033,0.25006 l 0,0 c -0.008,-0.0552 -0.0151,-0.11032 -0.0227,-0.16547 -0.1514,-1.06077 -0.31709,-2.11938 -0.48486,-3.17756 -0.49597,-3.04963 -0.74728,-6.11364 -0.93324,-9.19839 -0.23976,-3.04009 -0.29526,-6.07649 -0.24155,-9.12621 0,-1.80362 2.50238,-1.80362 2.50238,0 z"
       inkscape:connector-curvature="0" />
    <path
       style="fill:#000000;fill-opacity:1;fill-rule:nonzero;stroke:none"
       id="path11320"
       d="m 318.89395,407.10176 c 0.6842,1.17944 0.94106,2.48282 0.91009,3.83671 -0.0448,1.27954 -1.04401,1.78088 -2.12614,1.87127 -0.53466,0.0187 -1.06988,0.01 -1.60446,-0.008 -0.83411,-0.0248 -0.35491,-0.11247 -1.42961,-1.46906 -0.002,-0.7545 0.55746,-1.28256 0.75007,-1.95353 0.0477,-0.16978 0.0827,-0.34273 0.10788,-0.51718 -0.10703,0.67829 0.91318,-1.16937 1.59113,-1.18274 1.76918,-0.0319 1.81343,2.51842 0.0442,2.55031 l 0,0 c -0.82163,0.0129 1.03451,-1.89302 0.8503,-1.07347 -0.0456,0.33606 -0.1113,0.66885 -0.2082,0.99395 -0.0243,0.0754 -0.60481,1.67587 -0.63337,1.14309 -1.17613,-1.07412 -1.64346,-1.06836 -0.99369,-1.04082 0.44951,0.0145 0.89939,0.0217 1.34909,0.0126 0.0512,-0.002 0.10445,-0.0215 0.15377,-0.007 0.11516,0.0336 -0.19487,0.1592 -0.24066,0.27203 -0.0638,0.15728 -0.0747,0.33243 -0.12899,0.49339 -0.0174,0.0516 0.0116,-0.10842 0.0174,-0.16263 0.0391,-0.94344 -0.15432,-1.8038 -0.64706,-2.6186 -0.79132,-1.61322 1.44687,-2.75393 2.23819,-1.14072 z"
       inkscape:connector-curvature="0" />
    <path
       style="fill:#000000;fill-opacity:1;fill-rule:nonzero;stroke:none"
       id="path11322"
       d="m 316.58074,419.525 c 1.06097,-0.55953 2.18987,-0.97252 3.31689,-1.37029 0.24869,-0.0869 0.49807,-0.17192 0.7524,-0.2398 1.66576,1.54791 1.81201,1.48284 1.34779,3.44274 -0.2517,0.46791 -0.47065,0.9527 -0.67072,1.44547 -0.21142,0.6936 -0.91949,1.0102 -1.56934,1.04942 -0.2463,0.009 -0.49267,-4.9e-4 -0.73901,-0.003 -0.18926,-0.002 -0.37853,-0.003 -0.5678,-0.004 -0.013,-9e-5 -0.0262,-1.2e-4 -0.0392,-1.9e-4 -0.41801,-0.47257 -0.83602,-0.94515 -1.25403,-1.41773 -0.0847,-1.80156 2.41482,-1.92364 2.49951,-0.12208 l 0,0 c -0.54973,-0.45 -1.77626,-1.02985 -1.19224,-1.01067 0.19329,10e-4 0.38657,0.002 0.57985,0.004 0.1954,0.002 0.39076,0.008 0.58616,0.006 -1.22141,1.32709 -0.7739,0.98399 -0.61556,0.52131 0.17853,-0.43843 0.36047,-0.9053 0.61288,-1.28891 0.0951,0.27761 -0.0447,-1.25347 0.0476,-1.20743 0.55773,0.2782 1.02602,0.71314 1.53903,1.06971 -0.16711,0.0527 -0.33323,0.10851 -0.49899,0.16541 -1.02428,0.36104 -2.05253,0.73164 -3.01609,1.24124 -1.58265,0.8066 -2.70175,-1.47483 -1.1191,-2.28143 z"
       inkscape:connector-curvature="0" />
    <path
       style="fill:#000000;fill-opacity:1;fill-rule:nonzero;stroke:none"
       id="path11324"
       d="m 333.00664,401.82216 c -0.36304,2.52514 -0.56142,5.06276 -0.68449,7.61056 -0.23657,3.03074 -0.0729,6.04144 0.21861,9.05828 0.10311,1.80593 0.57996,3.5564 1.00369,5.30455 0.08,0.32803 0.16131,0.65572 0.24702,0.98224 0.46457,1.74036 -1.95002,2.41004 -2.41459,0.66969 l 0,0 c -0.0907,-0.34582 -0.17732,-0.69272 -0.26177,-1.04017 -0.45247,-1.86707 -0.95074,-3.73833 -1.0647,-5.66649 -0.30307,-3.14133 -0.46856,-6.2785 -0.22759,-9.43389 0.12165,-2.50441 0.28656,-5.00691 0.68144,-7.48477 0,-1.80364 2.50238,-1.80364 2.50238,0 z"
       inkscape:connector-curvature="0" />
    <path
       style="fill:#000000;fill-opacity:1;fill-rule:nonzero;stroke:none"
       id="path11326"
       d="m 332.00895,400.81158 c 2.00264,-0.71195 4.09227,-1.06998 6.18617,-1.36206 2.16732,-0.41828 3.84668,0.39383 5.21019,2.0758 0.9886,1.57047 1.17216,3.41451 1.27728,5.231 0.21676,1.78394 -0.34067,3.06167 -1.7305,4.14546 -1.73365,1.07581 -3.71853,1.47163 -5.70328,1.72342 -0.93724,0.0962 -1.87799,0.17309 -2.82039,0.18256 -0.27677,-0.003 -0.55352,-0.008 -0.83027,-0.0126 -0.0669,-0.001 -0.13386,-0.002 -0.20078,-0.004 0.0432,-2.85295 -0.193,-2.81105 1.71969,-2.25996 1.72385,0.33088 3.39789,0.80383 5.03438,1.447 2.21612,0.77108 4.24414,1.98503 6.14567,3.36052 1.6325,1.1591 2.54529,2.95913 3.60401,4.61559 0.74518,1.02713 1.37218,2.13793 1.94926,3.27019 0.10503,0.20951 0.20796,0.42035 0.28866,0.64095 0.58531,1.7021 -1.7762,2.54583 -2.3615,0.84374 l 0,0 c -0.0484,-0.10381 -0.0984,-0.2068 -0.14831,-0.30988 -0.53812,-1.05849 -1.12576,-2.09504 -1.82481,-3.0527 -0.8877,-1.38903 -1.62132,-2.93428 -2.96288,-3.93308 -1.72111,-1.26629 -3.5804,-2.35384 -5.59495,-3.05721 -1.56177,-0.62156 -3.16725,-1.042 -4.81134,-1.37091 -1.4217,-0.4112 -0.92851,0.0303 -0.99156,-2.74453 0.0655,10e-4 0.13089,0.002 0.19634,0.004 0.25537,0.004 0.51075,0.009 0.76614,0.0124 0.84789,-0.007 1.69418,-0.0807 2.53759,-0.16364 1.57632,-0.19434 3.16366,-0.4748 4.56735,-1.27708 0.79591,-0.44458 0.76048,-1.02045 0.67326,-1.91326 -0.0713,-1.294 -0.15056,-2.63554 -0.74968,-3.80581 -0.73432,-1.07067 -1.63114,-1.38232 -2.90099,-1.12058 -2.04519,0.28404 -4.07555,0.65096 -6.034,1.33598 -1.73508,0.35373 -2.22584,-2.14746 -0.49075,-2.50118 z"
       inkscape:connector-curvature="0" />
    <path
       style="fill:#000000;fill-opacity:1;fill-rule:nonzero;stroke:none"
       id="path11328"
       d="m 279.07395,364.46806 c 0.85401,0.21762 1.70802,0.43525 2.56202,0.65287 1.12149,0.49626 1.30989,1.49613 1.34481,2.61404 -0.15449,1.20366 -0.81384,1.95639 -1.91109,2.37115 -0.55023,0.14835 -1.12018,0.18471 -1.68689,0.1867 -1.5438,-0.0174 -1.5096,-1.17693 -1.18861,-2.27803 0.28399,-0.29328 0.44775,-0.64044 0.61697,-1.0077 0.46863,-0.65937 1.04478,-0.89266 1.79013,-0.97669 0.16436,-0.0198 0.32774,-0.0104 0.491,0.0121 1.74254,0.31333 1.30782,2.82526 -0.43473,2.51193 l 0,0 c 0.0382,0.005 0.17771,0.0234 0.19735,0.0135 -0.34799,0.0395 0.1054,-0.16507 0.2185,-0.47058 -0.0609,0.13069 -0.82818,1.62511 -0.68041,1.1351 0.12339,-1.10296 -0.0246,-0.5613 -1.01403,-1.49039 0.28769,4.4e-4 0.57372,-0.026 0.86028,-0.0422 0.22482,-0.0671 0.1313,-0.08 0.0805,0.12079 -0.0288,0.11387 0.074,-0.31252 0.15953,-0.0166 -0.0159,-0.82071 -0.13165,-0.42716 0.54974,-0.20858 -0.85401,-0.21762 -1.70802,-0.43525 -2.56202,-0.65288 -1.71662,-0.43745 -1.1097,-2.912 0.60691,-2.47455 z"
       inkscape:connector-curvature="0" />
    <path
       style="fill:#000000;fill-opacity:1;fill-rule:nonzero;stroke:none"
       id="path11330"
       d="m 281.35829,374.79271 c 0.56754,1.06552 1.11248,2.08129 1.02765,3.32327 -0.10456,0.67881 -0.4423,1.15732 -1.03803,1.45942 -1.65335,-0.97943 -1.72022,-0.80191 -1.73072,-1.99089 0.001,-0.29585 0.004,-0.5917 0.004,-0.88756 5.6e-4,-0.26692 6e-4,-0.53384 10e-4,-0.80075 1e-5,-0.0178 0,-0.0838 0,-0.0911 -0.01,-1.8036 2.49283,-1.81731 2.50235,-0.0137 l 0,0 c 0,0.0353 10e-5,0.0707 2e-5,0.10606 -1.6e-4,0.26887 -4e-4,0.53774 -10e-4,0.8066 -6e-4,0.29471 -0.003,0.58941 -0.004,0.88412 0.005,0.95545 0.35288,0.81968 -1.64266,-0.40398 -0.2624,0.13949 -0.55999,0.31702 -0.57791,0.64899 0.22247,-0.57196 -0.6759,-1.34255 -0.7789,-1.89975 -0.79132,-1.61321 1.44687,-2.75393 2.23819,-1.14071 z"
       inkscape:connector-curvature="0" />
    <path
       inkscape:connector-curvature="0"
       d="m 334.40393,172.83636 c 0.57957,3.1304 1.03781,6.28187 1.49343,9.43411 0.39593,4.01019 0.95195,8.00112 1.37871,12.00783 0.17435,1.67806 0.31117,3.36074 0.38772,5.04651 0.0377,0.77809 -0.10151,0.92385 -2.4905,0.0292 -0.1091,-0.0409 0.50379,-2.5059 0.50901,-2.52771 0.8566,-2.78383 2.1465,-5.42246 3.90236,-7.72352 2.24915,-2.33606 4.31931,-3.20328 7.47356,-2.5011 2.17244,0.83395 3.46661,2.86521 2.91372,5.25504 -0.11305,0.48866 -0.34952,0.9388 -0.52429,1.40821 -1.71513,2.89841 -4.77203,4.40066 -7.73404,5.65995 -2.03885,0.72368 -4.15042,1.56285 -6.18645,0.48983 -0.76404,-0.64506 -0.92305,-1.17492 -1.06175,-2.13084 -0.0148,-1.80357 2.48748,-1.82491 2.50229,-0.0214 l 0,0 c -0.26496,-0.47047 0.0243,-0.0956 -0.17605,-0.0489 0.70995,0.75583 3.13331,-0.46746 3.96323,-0.64482 2.34441,-0.98497 4.858,-2.13064 6.38173,-4.28206 0.59825,-1.26235 0.79532,-2.5344 -0.66917,-3.20645 -1.90174,-0.55445 -3.56527,0.16561 -4.92079,1.60571 -1.57314,1.9797 -2.63734,4.34376 -3.43444,6.74968 -0.5828,2.39165 0.27036,1.95277 -2.9325,2.32183 -0.10254,0.0118 0.15039,-0.41699 -0.0156,-0.31515 -0.0736,-1.63315 -0.2073,-3.26323 -0.37578,-4.88891 -0.42281,-3.97453 -0.97618,-7.93315 -1.3666,-11.91134 -0.44904,-3.1092 -0.89882,-6.21812 -1.47153,-9.30551 -0.34702,-1.7686 2.10676,-2.26884 2.45378,-0.50024 z"
       id="path11332"
       style="fill:#000000;fill-opacity:1;fill-rule:nonzero;stroke:none" />
    <path
       inkscape:connector-curvature="0"
       d="m 356.71272,187.74814 c -0.33134,1.6552 -0.49983,3.33391 -0.60574,5.01756 -0.0612,1.07704 -0.0885,2.15588 -0.0968,3.2346 -4e-4,0.20811 -6e-4,0.11495 1.8e-4,0.27948 0.008,1.80361 -2.49422,1.81533 -2.50235,0.0117 l 0,0 c -6e-4,-0.18658 -6e-4,-0.0828 -1.3e-4,-0.31145 0.009,-1.12673 0.0375,-2.25358 0.10194,-3.37854 0.11687,-1.83655 0.30293,-3.66852 0.67527,-5.47201 0.42915,-1.74978 2.85682,-1.13113 2.42766,0.61864 z"
       id="path11334"
       style="fill:#000000;fill-opacity:1;fill-rule:nonzero;stroke:none" />
    <path
       inkscape:connector-curvature="0"
       d="m 354.88906,178.44256 c 0.85401,0.43525 1.70802,0.8705 2.56203,1.30575 0.13251,0.0675 0.26502,0.13508 0.39753,0.20261 -2.02924,1.29446 -1.79684,1.52788 -1.82795,0.44976 -0.004,-0.291 -0.005,-0.58203 -0.005,-0.87306 -2.2e-4,-0.0545 3e-5,-0.10912 1.1e-4,-0.16368 8e-5,-0.005 1.6e-4,-0.0112 2.4e-4,-0.0168 0.0352,-1.80327 2.53709,-1.75251 2.50188,0.0508 l 0,0 c 6e-5,-0.005 1.2e-4,-0.01 1.9e-4,-0.0143 -2e-5,0.043 -2.3e-4,0.0951 -5e-5,0.14012 5.3e-4,0.26685 0.001,0.53369 0.004,0.80053 0.0335,1.15999 0.0635,0.7312 -1.7924,1.90817 -0.1325,-0.0675 -0.26502,-0.13507 -0.39753,-0.20261 -0.85401,-0.43525 -1.70801,-0.8705 -2.56202,-1.30575 -1.58264,-0.80661 -0.46354,-3.08804 1.11909,-2.28143 z"
       id="path11336"
       style="fill:#000000;fill-opacity:1;fill-rule:nonzero;stroke:none" />
    <path
       inkscape:connector-curvature="0"
       d="m 365.73974,189.86806 c -0.74548,-0.0231 -1.55147,-0.002 -2.24713,0.1198 -0.27842,0.25791 -0.52506,0.5513 -0.77019,0.84183 -0.43982,0.38749 -0.62514,0.80647 -0.75684,1.3632 -0.1079,0.6211 -0.15921,1.19394 0.0527,1.77913 0.1319,0.2806 0.55182,0.58594 0.86135,0.91327 0.35726,0.1878 0.81426,0.18401 1.21523,0.21464 0.45149,0.0273 0.90421,0.0197 1.35626,0.0166 -0.0826,-1e-4 -0.27004,0.0807 -0.24771,-3e-4 0.0281,-0.10203 0.19653,-0.0741 0.284,-0.13141 0.27303,-0.17875 0.56089,-0.64923 0.77823,-0.89821 0.26008,-0.42553 0.49088,-0.85864 0.568,-1.3535 0.0556,-0.51564 0.04,-1.03734 0.0371,-1.55546 -0.003,-0.47057 -0.006,-0.94116 -0.01,-1.41173 0.0318,-0.3045 -0.12375,-1.00399 0.12408,0.1482 0.12905,0.16963 -0.0476,0.0428 -0.11161,0.0134 2.7975,0.3479 -1.53308,-3.25261 1.40771,-2.18969 1.13351,0.96799 1.61069,2.515 2.06297,3.90717 0.41965,1.84076 0.70921,3.71328 1.02742,5.57676 0.30268,1.81653 0.41164,3.65696 0.47307,5.49585 0.0312,1.05991 0.0284,2.12038 0.0259,3.18063 0.0985,1.3597 -0.33394,2.42047 -1.25264,3.38439 -1.21333,1.04792 -2.7265,1.51913 -4.26321,1.79696 -1.61098,0.26991 -3.15752,0.23959 -4.67206,-0.3974 -1.48638,-0.70897 -2.11002,-2.16475 -2.74455,-3.6001 -0.52619,-1.11282 -0.92864,-2.28103 -1.14882,-3.49553 -0.31571,-1.77468 2.14651,-2.2298 2.46223,-0.45511 l 0,0 c 0.17527,1.01162 0.53341,1.97767 0.96811,2.9029 0.3683,0.83344 0.64675,1.84961 1.48062,2.31754 1.0022,0.53627 2.1477,0.32432 3.22993,0.21396 1.06472,-0.17921 2.13941,-0.4706 3.00017,-1.1666 0.5483,-0.23244 0.42611,-1.02915 0.43785,-1.50727 0.002,-1.0294 0.005,-2.05902 -0.0244,-3.08811 -0.0567,-1.72136 -0.1557,-3.44445 -0.43751,-5.14516 -0.29706,-1.74331 -0.57862,-3.49177 -0.94026,-5.22029 -0.27071,-0.85562 -0.64359,-1.67455 -0.95796,-2.50472 1.84106,0.30983 -0.56378,-3.07669 0.8594,-2.34708 0.44798,0.2028 0.85529,0.47563 1.16928,0.86704 0.19852,0.53428 0.35768,0.79768 0.32666,1.29243 0.004,0.47244 0.007,0.94488 0.01,1.41731 0.004,0.67352 0.0212,1.35222 -0.0764,2.02027 -0.17823,0.95819 -0.58551,1.81925 -1.16251,2.59963 -0.75222,0.85985 -1.48834,1.69397 -2.66614,1.88394 -0.52192,0.004 -1.04463,0.0111 -1.56576,-0.0241 -0.92058,-0.0741 -1.85722,-0.19033 -2.61195,-0.78758 -0.64107,-0.59234 -1.33009,-1.23679 -1.64436,-2.07186 -0.33586,-1.07175 -0.34083,-2.12129 -0.1055,-3.21953 0.23509,-0.91354 0.59951,-1.74194 1.28642,-2.39959 0.54158,-0.63947 1.095,-1.2838 1.88743,-1.60087 1.18021,-0.31447 2.42171,-0.29669 3.63239,-0.17015 1.71661,0.43744 1.1097,2.912 -0.60692,2.47455 z"
       id="path11338"
       style="fill:#000000;fill-opacity:1;fill-rule:nonzero;stroke:none" />
    <path
       inkscape:connector-curvature="0"
       d="m 432.83713,220.61642 c 1.06751,0 2.13502,0 3.20253,0 0.16564,0 0.33128,0 0.49692,0 -0.0588,2.90965 0.32378,2.55071 -1.44375,2.55071 -1.49077,-0.0849 -2.92898,0.20834 -4.30834,0.76968 -2.0477,0.95646 -3.24489,2.78868 -4.17509,4.7955 -0.98731,2.3717 -1.19908,4.94298 -1.3358,7.48543 0.0943,1.40257 0.26209,3.25436 1.56645,4.04965 1.33838,0.92994 2.90315,1.2551 4.47624,1.48364 0.79176,0.0104 1.29428,-0.18922 1.69673,-0.87631 0.41645,-1.16387 0.52156,-2.40525 0.83318,-3.60447 0.27203,-1.01408 0.4583,-2.03796 0.53854,-3.08472 0.0407,-0.59892 0.0473,-1.19975 0.0458,-1.79993 -0.001,-0.0627 -2.8e-4,-0.12537 -4.2e-4,-0.18805 0.83203,0.0647 1.67506,0.0421 2.49609,0.19403 0.0942,0.0175 0.0554,0.18696 0.0768,0.28207 0.26356,1.17229 0.58908,2.32029 0.94623,3.46746 0.73646,2.03149 1.26845,4.14187 1.98831,6.17638 0.37452,0.88068 0.7077,1.77944 1.01136,2.6879 0.0435,0.12575 0.0803,0.25362 0.11622,0.38173 0.45144,1.74395 -1.96812,2.39471 -2.41957,0.65077 l 0,0 c -0.002,-0.006 -0.0554,-0.1899 -0.0656,-0.21056 -0.29966,-0.89828 -0.63434,-1.7844 -1.00069,-2.65662 -0.71175,-2.07042 -1.28054,-4.19561 -2.01581,-6.25991 -0.38171,-1.23229 -0.78888,-2.48177 -1.01785,-3.75543 -0.046,-0.25598 -0.35077,-0.65559 -0.12183,-0.77081 0.75688,-0.3809 1.66517,-0.28326 2.49775,-0.4249 0.009,0.13984 0.0119,0.27985 0.0113,0.42003 10e-4,0.66943 -0.007,1.33952 -0.0536,2.00746 -0.0945,1.19937 -0.30314,2.37549 -0.61445,3.53741 -0.38825,1.48792 -0.43812,3.07675 -1.21604,4.43342 -1.04257,1.39333 -2.33284,2.04871 -4.08939,1.91769 -1.9995,-0.29644 -3.96593,-0.77253 -5.64399,-1.98567 -0.30683,-0.26379 -0.64878,-0.49021 -0.92047,-0.79138 -1.27987,-1.41877 -1.52764,-3.60251 -1.61992,-5.42178 0.15758,-2.87824 0.43284,-5.77877 1.57994,-8.45154 1.23982,-2.58324 2.85516,-4.87732 5.5248,-6.06667 1.67551,-0.64774 3.40916,-1.04097 5.21306,-0.94221 1.76753,0 1.38491,-0.35894 1.44374,2.55071 -0.16564,0 -0.33127,0 -0.49692,0 -1.06751,0 -2.13501,0 -3.20252,0 -1.76945,0 -1.76945,-2.55071 0,-2.55071 z"
       id="path11340"
       style="fill:#000000;fill-opacity:1;fill-rule:nonzero;stroke:none" />
    <path
       inkscape:connector-curvature="0"
       d="m 430.08937,233.29306 c 2.15643,-0.38286 4.33508,-0.55493 6.4971,-0.90405 1.67921,-0.26887 3.36168,-0.52638 5.05665,-0.66608 1.65016,-0.01 0.88049,-0.32307 0.37679,0.23544 -0.3271,0.68098 0.43799,-0.89621 1.183,-1.08947 0.28255,-0.0381 0.15003,-0.024 0.39728,-0.0448 1.7643,-0.1374 1.95493,2.4059 0.19062,2.5433 l 0,0 c -0.039,0.002 -0.0779,0.005 -0.11687,0.007 0.31387,-0.13981 1.272,-2.153 0.56079,-0.22846 -0.55627,0.92238 -1.38714,1.14087 -2.39202,1.11996 -1.63103,0.13144 -3.24904,0.38733 -4.86494,0.64282 -2.12899,0.34336 -4.27279,0.52084 -6.39764,0.8859 -1.73508,0.35371 -2.22584,-2.14747 -0.49076,-2.50119 z"
       id="path11342"
       style="fill:#000000;fill-opacity:1;fill-rule:nonzero;stroke:none" />
    <path
       inkscape:connector-curvature="0"
       d="m 455.34417,220.02776 c 0.96737,2.64383 1.51448,5.425 1.90326,8.21178 0.48391,3.50377 1.06478,6.99072 1.57861,10.48962 0.3275,2.3834 1.10678,4.6506 1.74401,6.95569 0.19253,0.7503 0.38878,1.50142 0.52624,2.26477 0.0224,0.1084 0.0276,0.21803 0.0335,0.32826 0.0129,1.80358 -2.48947,1.8221 -2.50232,0.0185 l 0,0 c 0.002,0.0366 0.0105,0.14623 0.007,0.10975 -0.12059,-0.68501 -0.3047,-1.35706 -0.47319,-2.03073 -0.66313,-2.40845 -1.47335,-4.77834 -1.80994,-7.26903 -0.51379,-3.50586 -1.09678,-6.99959 -1.58155,-10.51019 -0.34638,-2.51928 -0.84771,-5.01907 -1.66366,-7.42773 -0.79132,-1.61322 1.44688,-2.75393 2.2382,-1.14071 z"
       id="path11344"
       style="fill:#000000;fill-opacity:1;fill-rule:nonzero;stroke:none" />
    <path
       inkscape:connector-curvature="0"
       d="m 465.98322,222.60791 c -0.56912,2.03902 -1.54807,3.85727 -2.72957,5.58658 -1.30721,1.78498 -2.82079,3.39746 -4.34289,4.99063 -0.49049,0.50496 -0.97773,1.01364 -1.48223,1.5042 -0.0348,0.0619 -0.13274,0.20828 -0.15755,0.14156 -0.92746,-2.49429 -1.41479,-2.32151 0.12907,-2.35419 1.67934,-0.045 3.20147,0.73408 4.71255,1.37344 2.19483,0.9186 4.05099,2.3604 5.69759,4.07394 1.28635,1.43724 2.43634,2.99583 3.72471,4.43235 0.58397,0.77896 1.15924,1.53386 1.95759,2.09082 0.0496,0.0502 0.11651,0.0661 0.17385,0.0986 1.59978,0.77069 0.5305,3.07681 -1.06927,2.30612 l 0,0 c -0.1849,-0.0926 -0.36631,-0.19144 -0.53555,-0.31219 -0.94025,-0.67553 -1.70394,-1.52095 -2.37895,-2.46834 -1.26028,-1.42189 -2.4125,-2.93825 -3.66386,-4.36646 -1.40306,-1.47387 -2.98504,-2.71213 -4.86571,-3.49909 -1.1881,-0.50297 -2.39466,-1.18431 -3.71169,-1.1788 -1.17026,0.0123 -1.84643,-0.71624 -1.73939,-2.18401 0.48246,-0.46838 0.94693,-0.95569 1.41621,-1.43762 1.42825,-1.49455 2.85079,-3.00483 4.08515,-4.67317 1.01452,-1.47021 1.85482,-3.00684 2.35227,-4.74299 0.42916,-1.74978 2.85682,-1.13113 2.42767,0.61864 z"
       id="path11346"
       style="fill:#000000;fill-opacity:1;fill-rule:nonzero;stroke:none" />
    <path
       inkscape:connector-curvature="0"
       d="m 450.96895,244.7141 c -0.55688,1.80456 -1.31788,3.51815 -2.16453,5.19656 -0.39194,0.8484 -0.89608,1.63398 -1.40987,2.40908 -0.99171,1.49373 -3.06413,0.0641 -2.07242,-1.42958 l 0,0 c 0.45883,-0.68989 0.91173,-1.38759 1.25687,-2.14587 0.75922,-1.50509 1.44691,-3.03581 1.96229,-4.64883 0.42915,-1.74977 2.85681,-1.13113 2.42766,0.61864 z"
       id="path11348"
       style="fill:#000000;fill-opacity:1;fill-rule:nonzero;stroke:none" />
    <path
       inkscape:connector-curvature="0"
       d="m 346.29875,233.88218 c -1.34972,-0.84202 -2.76289,-1.52855 -4.30292,-1.90396 -1.04987,-0.24556 -2.12656,-0.30408 -3.19961,-0.32375 -0.25538,0.23196 -0.62663,0.88067 -0.79407,1.36941 -0.0953,0.8142 -0.55717,1.87562 -0.26516,2.68403 0.21951,0.66284 0.66496,0.6966 1.25969,0.82413 1.75692,0.25979 3.54183,0.24319 5.31354,0.25456 1.63783,-0.088 3.18298,0.051 4.58905,0.95718 1.34169,1.23116 1.27729,2.79072 0.75136,4.40533 -0.6099,1.5537 -1.5398,2.88971 -2.75011,4.00876 -1.59486,1.25034 -3.53013,1.48315 -5.4707,1.62049 -1.98677,0.1506 -3.94914,-0.16306 -5.63455,-1.26564 -1.45483,-1.02664 -0.0304,-3.12382 1.42439,-2.09716 l 0,0 c 1.07032,0.91648 2.73325,0.83529 4.04027,0.81797 1.37743,-0.0933 2.80334,-0.17303 3.98366,-0.98711 0.92354,-0.79756 1.5696,-1.82345 2.04936,-2.95209 0.2043,-0.51628 0.34637,-0.89705 0.22085,-1.42647 -0.921,-0.70218 -2.13127,-0.51417 -3.21945,-0.53059 -1.96245,-0.0128 -3.94234,0.007 -5.88317,-0.32532 -1.55765,-0.40983 -2.72997,-1.17403 -3.13634,-2.84854 -0.18416,-1.37214 0.0113,-2.74928 0.39935,-4.07516 0.5927,-1.44773 1.51169,-2.80507 3.16862,-2.98406 1.25816,0.0246 2.51941,0.10323 3.74903,0.39672 1.71538,0.4371 3.32163,1.14611 4.82601,2.09984 1.58265,0.80661 0.46355,3.08804 -1.1191,2.28143 z"
       id="path11350"
       style="fill:#000000;fill-opacity:1;fill-rule:nonzero;stroke:none" />
    <path
       inkscape:connector-curvature="0"
       d="m 354.41494,231.93109 c 0.72876,1.97788 1.27418,4.02097 1.94789,6.01826 0.5585,1.5687 0.95293,3.18659 1.21169,4.83242 -0.0649,0.34846 0.44945,2.89124 -0.0833,1.08836 -0.39115,-0.56319 -1.16821,-0.25357 -1.53429,0.22174 0.0867,-1.0928 0.0619,-2.1947 0.0643,-3.29065 0.0436,-1.9279 -0.1071,-3.86368 0.10542,-5.78209 0.37133,-1.69364 1.21213,-3.11674 2.52881,-4.20299 1.13984,-0.87239 2.30047,-0.95975 3.57406,-0.369 1.53987,1.07115 2.47067,2.70538 3.125,4.44186 0.32804,1.34834 0.88351,2.62259 1.24155,3.96179 0.12003,0.51679 0.22229,1.03976 0.2674,1.56942 0.0527,1.08557 -0.26844,0.70293 -2.34153,-0.50234 -0.0681,-0.0396 0.2124,-0.49555 0.50088,-0.99437 0.74493,-1.22471 1.25844,-2.5552 2.02866,-3.76372 0.69905,-1.32882 1.67609,-2.44218 2.59865,-3.60469 0.78207,-1.10807 0.71399,-0.97178 2.30267,-1.38318 1.17509,0.61956 1.75482,1.90558 2.40373,3.01606 0.97344,1.89534 1.46308,4.02931 1.91078,6.10999 0.34106,1.73594 0.50159,3.50032 0.58858,5.26622 0.0171,0.40633 0.0321,0.81306 0.0194,1.21965 -0.0864,0.95125 0.0233,0.10378 -2.50491,-0.23927 -0.0221,-1.80348 2.48007,-1.83536 2.50218,-0.0319 l 0,0 c -0.8303,0.0223 -1.6606,0.0447 -2.4909,0.067 -0.002,0.0218 -0.004,0.0437 -0.005,0.0655 0.005,-0.30457 -0.006,-0.6419 -0.02,-0.95377 -0.0793,-1.62582 -0.22395,-3.25046 -0.53411,-4.84942 -0.38686,-1.81498 -0.80451,-3.68075 -1.61605,-5.34906 -0.32892,-0.56317 -0.64736,-1.11168 -1.00512,-1.65437 -0.069,-0.10461 -0.24532,-0.18108 -0.21998,-0.30445 0.01,-0.0475 0.091,0.0282 0.13651,0.0423 2.19035,-0.85221 1.05114,-0.36488 0.47725,0.58348 -0.87245,1.09792 -1.79975,2.14144 -2.4539,3.40293 -0.77307,1.17409 -1.22892,2.51789 -1.99069,3.70313 -0.0932,0.13708 -0.0828,0.43314 -0.24635,0.43265 -2.53595,-0.008 -2.51923,-1.05639 -2.53468,-0.0693 -0.0351,-0.37793 -0.10701,-0.75127 -0.1912,-1.12083 -0.32051,-1.26227 -0.88239,-2.44986 -1.1666,-3.72324 -0.41831,-1.17393 -1.01756,-2.29729 -1.98245,-3.09998 -0.0175,-0.0485 0.0754,-0.14208 0.0258,-0.15268 -0.27502,-0.0588 -0.63728,0.14943 -0.85023,0.28649 -0.81878,0.62773 -1.30893,1.51031 -1.59451,2.51112 -0.24398,1.80791 0.002,3.6571 -0.0867,5.47655 -0.003,1.28639 0.0491,2.58858 -0.12971,3.8646 -0.47178,1.46851 -1.65194,1.86472 -2.79264,0.8705 -0.36577,-0.84152 -0.48613,-1.44548 -0.49783,-2.35825 -0.23392,-1.5022 -0.59682,-2.97737 -1.10809,-4.40822 -0.6328,-1.8919 -1.17524,-3.81527 -1.81856,-5.70361 -0.79133,-1.61321 1.44687,-2.75392 2.23819,-1.14071 z"
       id="path11352"
       style="fill:#000000;fill-opacity:1;fill-rule:nonzero;stroke:none" />
    <path
       inkscape:connector-curvature="0"
       d="m 383.22046,232.45613 c 0.85401,-0.21762 1.70802,-0.43525 2.56203,-0.65288 0.13251,-0.0337 0.26502,-0.0675 0.39753,-0.1013 0.11143,3.23935 0.36059,2.52452 -1.88646,2.52232 -1.33173,0.23242 -2.32239,1.22046 -3.22701,2.16768 -0.64456,1.10156 -1.69949,2.6526 -1.26966,4.00014 0.42074,0.88297 1.06272,1.11109 1.9383,1.33561 0.85762,-0.0796 1.17779,-0.84819 1.43392,-1.57798 0.62294,-1.2624 0.92625,-2.63266 1.08842,-4.02567 0.0679,-0.72726 0.12442,-1.45702 0.13072,-2.18793 -0.11536,-0.20872 1.29637,-1.75039 2.41367,-0.89442 0.67365,0.56059 0.82762,1.37169 0.89219,2.20753 0.1026,1.4738 0.4795,2.92929 0.82958,4.36305 0.25924,1.67923 0.92556,3.19178 1.65513,4.6962 0.21256,0.4129 0.71429,0.87361 0.92059,0.96488 0.27627,0.0395 0.21977,0.0195 -0.0242,-0.0467 1.53638,-0.89472 2.77774,1.32002 1.24135,2.21475 l 0,0 c -0.64919,0.33549 -1.31033,0.50904 -2.01875,0.2482 -1.08341,-0.41246 -1.77748,-1.25404 -2.36266,-2.25178 -0.80719,-1.66797 -1.53589,-3.35583 -1.83973,-5.20964 -0.38396,-1.57303 -0.77939,-3.16985 -0.89664,-4.78834 -0.0503,-0.73944 0.10585,-0.19678 0.004,-0.43626 1.3473,-1.17318 1.69247,-2.17297 1.68771,-1.04207 -0.009,0.8252 -0.0686,1.6492 -0.14886,2.4701 -0.19542,1.60868 -0.53955,3.19879 -1.24816,4.66287 -0.80491,1.94548 -2.16362,3.37542 -4.39679,3.09945 -1.82099,-0.50527 -3.15454,-1.4386 -3.76155,-3.34415 -0.30603,-2.30016 0.57271,-4.42668 1.94537,-6.24444 1.39427,-1.43867 2.95473,-2.75755 5.01545,-2.93183 2.20015,0.002 1.81157,-0.61199 2.49097,2.50295 -0.13251,0.0337 -0.26502,0.0675 -0.39753,0.1013 -0.85401,0.21763 -1.70802,0.43525 -2.56202,0.65288 -1.71662,0.43744 -2.32354,-2.03711 -0.60692,-2.47456 z"
       id="path11354"
       style="fill:#000000;fill-opacity:1;fill-rule:nonzero;stroke:none" />
    <path
       inkscape:connector-curvature="0"
       d="m 396.11619,221.13903 c 0.53865,2.89261 0.52573,5.85165 0.77308,8.77682 0.41796,3.19256 0.42917,6.43015 0.83425,9.62091 0.2126,1.28369 0.44959,2.56336 0.71818,3.83613 0.0216,0.10931 0.0483,0.21753 0.0738,0.32587 0.45917,1.74184 -1.95749,2.40374 -2.41665,0.6619 l 0,0 c -0.0371,-0.14992 -0.0728,-0.30016 -0.10364,-0.4516 -0.28334,-1.34382 -0.53433,-2.69479 -0.75416,-4.05091 -0.39556,-3.22783 -0.43668,-6.49551 -0.84507,-9.72471 -0.23294,-2.79117 -0.23607,-5.61035 -0.70748,-8.37577 -0.42916,-1.74978 1.99851,-2.36841 2.42766,-0.61864 z"
       id="path11356"
       style="fill:#000000;fill-opacity:1;fill-rule:nonzero;stroke:none" />
    <path
       inkscape:connector-curvature="0"
       d="m 403.5609,223.35223 c -0.052,2.9815 -0.002,5.9495 0.23347,8.92142 0.18313,3.01355 0.42201,6.00651 0.90756,8.98559 0.17054,1.07492 0.33868,2.15031 0.49254,3.22786 0.0142,0.094 0.0259,0.18829 0.0367,0.2827 0.17346,1.79495 -2.31686,2.045 -2.49032,0.25006 l 0,0 c -0.008,-0.0552 -0.0151,-0.11032 -0.0227,-0.16547 -0.15139,-1.06077 -0.31708,-2.11938 -0.48486,-3.17756 -0.49597,-3.04963 -0.74727,-6.11364 -0.93324,-9.19839 -0.23976,-3.04009 -0.29526,-6.07649 -0.24154,-9.12621 0,-1.80362 2.50238,-1.80362 2.50238,0 z"
       id="path11358"
       style="fill:#000000;fill-opacity:1;fill-rule:nonzero;stroke:none" />
    <path
       inkscape:connector-curvature="0"
       d="m 414.472,227.6799 c 0.68419,1.17944 0.94106,2.48282 0.91009,3.83671 -0.0448,1.27954 -1.04401,1.78088 -2.12615,1.87127 -0.53466,0.0187 -1.06988,0.01 -1.60445,-0.008 -0.83412,-0.0248 -0.35492,-0.11247 -1.42962,-1.46906 -0.002,-0.7545 0.55746,-1.28256 0.75007,-1.95353 0.0477,-0.16978 0.0827,-0.34273 0.10789,-0.51718 -0.10704,0.67829 0.91318,-1.16937 1.59113,-1.18274 1.76917,-0.0319 1.81342,2.51842 0.0442,2.55031 l 0,0 c -0.82164,0.0129 1.0345,-1.89302 0.8503,-1.07347 -0.0456,0.33606 -0.1113,0.66885 -0.20821,0.99395 -0.0243,0.0754 -0.60481,1.67587 -0.63336,1.14309 -1.17613,-1.07412 -1.64347,-1.06836 -0.9937,-1.04082 0.44951,0.0145 0.89939,0.0217 1.34909,0.0126 0.0512,-0.002 0.10445,-0.0215 0.15378,-0.007 0.11515,0.0336 -0.19488,0.1592 -0.24066,0.27203 -0.0638,0.15728 -0.0747,0.33243 -0.129,0.49339 -0.0174,0.0516 0.0116,-0.10842 0.0174,-0.16263 0.0392,-0.94344 -0.15432,-1.8038 -0.64706,-2.6186 -0.79132,-1.61322 1.44688,-2.75393 2.2382,-1.14072 z"
       id="path11360"
       style="fill:#000000;fill-opacity:1;fill-rule:nonzero;stroke:none" />
    <path
       inkscape:connector-curvature="0"
       d="m 412.15878,240.10314 c 1.06097,-0.55953 2.18987,-0.97252 3.3169,-1.37029 0.24869,-0.0869 0.49806,-0.17192 0.7524,-0.2398 1.66575,1.54791 1.812,1.48284 1.34778,3.44274 -0.2517,0.46791 -0.47065,0.9527 -0.67072,1.44547 -0.21141,0.6936 -0.91949,1.0102 -1.56934,1.04942 -0.2463,0.009 -0.49267,-4.9e-4 -0.739,-0.003 -0.18927,-0.002 -0.37853,-0.003 -0.5678,-0.004 -0.0131,-9e-5 -0.0262,-1.2e-4 -0.0392,-1.9e-4 -0.41801,-0.47257 -0.83602,-0.94515 -1.25404,-1.41773 -0.0847,-1.80156 2.41482,-1.92364 2.49951,-0.12208 l 0,0 c -0.54973,-0.45 -1.77625,-1.02985 -1.19223,-1.01067 0.19328,0.001 0.38656,0.002 0.57984,0.004 0.19541,0.002 0.39076,0.008 0.58616,0.006 -1.2214,1.32709 -0.77389,0.98399 -0.61555,0.52131 0.17852,-0.43843 0.36046,-0.9053 0.61288,-1.28891 0.0951,0.27761 -0.0447,-1.25347 0.0476,-1.20743 0.55772,0.2782 1.02601,0.71314 1.53902,1.06971 -0.1671,0.0527 -0.33323,0.10851 -0.49899,0.16541 -1.02427,0.36104 -2.05252,0.73164 -3.01609,1.24124 -1.58264,0.8066 -2.70174,-1.47483 -1.1191,-2.28143 z"
       id="path11362"
       style="fill:#000000;fill-opacity:1;fill-rule:nonzero;stroke:none" />
    <path
       inkscape:connector-curvature="0"
       d="m 387.71251,177.33767 c -0.36304,2.52515 -0.56142,5.06277 -0.68448,7.61056 -0.23657,3.03075 -0.0729,6.04145 0.2186,9.05829 0.10311,1.80593 0.57997,3.5564 1.00369,5.30455 0.08,0.32803 0.16132,0.65572 0.24703,0.98224 0.46457,1.74036 -1.95003,2.41004 -2.41459,0.66969 l 0,0 c -0.0907,-0.34582 -0.17733,-0.69272 -0.26177,-1.04018 -0.45248,-1.86706 -0.95075,-3.73832 -1.0647,-5.66648 -0.30308,-3.14133 -0.46856,-6.2785 -0.22759,-9.43389 0.12165,-2.50441 0.28656,-5.00691 0.68143,-7.48478 0,-1.80363 2.50238,-1.80363 2.50238,0 z"
       id="path11364"
       style="fill:#000000;fill-opacity:1;fill-rule:nonzero;stroke:none" />
    <path
       inkscape:connector-curvature="0"
       d="m 386.71483,176.3271 c 2.00263,-0.71195 4.09227,-1.06998 6.18616,-1.36206 2.16732,-0.41829 3.84668,0.39383 5.2102,2.0758 0.9886,1.57047 1.17215,3.41451 1.27728,5.23099 0.21676,1.78395 -0.34067,3.06167 -1.7305,4.14547 -1.73365,1.07581 -3.71854,1.47163 -5.70328,1.72341 -0.93724,0.0962 -1.87799,0.1731 -2.82039,0.18257 -0.27677,-0.003 -0.55352,-0.008 -0.83027,-0.0126 -0.0669,-0.001 -0.13386,-0.002 -0.20078,-0.004 0.0432,-2.85295 -0.193,-2.81105 1.71969,-2.25997 1.72385,0.33089 3.39789,0.80384 5.03437,1.44701 2.21613,0.77107 4.24415,1.98503 6.14568,3.36052 1.6325,1.15909 2.54529,2.95913 3.60401,4.61559 0.74518,1.02712 1.37217,2.13793 1.94926,3.27018 0.10503,0.20951 0.20796,0.42036 0.28866,0.64096 0.58531,1.70209 -1.7762,2.54583 -2.36151,0.84374 l 0,0 c -0.0484,-0.10382 -0.0984,-0.2068 -0.1483,-0.30988 -0.53812,-1.05849 -1.12576,-2.09504 -1.82482,-3.05271 -0.88769,-1.38903 -1.62131,-2.93427 -2.96288,-3.93308 -1.7211,-1.26628 -3.5804,-2.35383 -5.59494,-3.0572 -1.56177,-0.62156 -3.16726,-1.04201 -4.81135,-1.37091 -1.42169,-0.41121 -0.9285,0.0303 -0.99155,-2.74453 0.0654,10e-4 0.13089,0.002 0.19633,0.004 0.25538,0.004 0.51076,0.009 0.76614,0.0124 0.84789,-0.007 1.69419,-0.0807 2.53759,-0.16365 1.57633,-0.19433 3.16366,-0.47479 4.56736,-1.27707 0.79591,-0.44459 0.76048,-1.02045 0.67326,-1.91326 -0.0713,-1.294 -0.15056,-2.63555 -0.74969,-3.80581 -0.73431,-1.07067 -1.63113,-1.38232 -2.90099,-1.12059 -2.04519,0.28405 -4.07554,0.65097 -6.03399,1.33599 -1.73509,0.35373 -2.22584,-2.14746 -0.49075,-2.50118 z"
       id="path11366"
       style="fill:#000000;fill-opacity:1;fill-rule:nonzero;stroke:none" />
    <path
       inkscape:connector-curvature="0"
       d="m 374.652,185.0462 c 0.854,0.21762 1.70801,0.43525 2.56202,0.65287 1.12148,0.49626 1.30988,1.49613 1.3448,2.61404 -0.15449,1.20366 -0.81383,1.95639 -1.91109,2.37115 -0.55022,0.14835 -1.12017,0.18471 -1.68689,0.1867 -1.54379,-0.0174 -1.5096,-1.17693 -1.1886,-2.27803 0.28399,-0.29328 0.44774,-0.64044 0.61696,-1.0077 0.46864,-0.65937 1.04478,-0.89266 1.79013,-0.97669 0.16436,-0.0198 0.32775,-0.0104 0.491,0.0121 1.74254,0.31333 1.30782,2.82526 -0.43472,2.51193 l 0,0 c 0.0382,0.005 0.1777,0.0234 0.19734,0.0135 -0.34798,0.0395 0.1054,-0.16507 0.21851,-0.47058 -0.0609,0.13069 -0.82819,1.62511 -0.68042,1.1351 0.1234,-1.10296 -0.0246,-0.5613 -1.01402,-1.49039 0.28769,4.4e-4 0.57372,-0.026 0.86028,-0.0422 0.22482,-0.0671 0.13129,-0.08 0.0805,0.12079 -0.0288,0.11387 0.074,-0.31252 0.15953,-0.0167 -0.0159,-0.82071 -0.13164,-0.42716 0.54974,-0.20858 -0.854,-0.21762 -1.70801,-0.43525 -2.56202,-0.65288 -1.71661,-0.43745 -1.1097,-2.912 0.60692,-2.47455 z"
       id="path11368"
       style="fill:#000000;fill-opacity:1;fill-rule:nonzero;stroke:none" />
    <path
       inkscape:connector-curvature="0"
       d="m 376.93633,195.37085 c 0.56755,1.06552 1.11249,2.08129 1.02766,3.32327 -0.10457,0.67881 -0.4423,1.15732 -1.03804,1.45942 -1.65334,-0.97943 -1.72022,-0.80191 -1.73072,-1.99089 0.001,-0.29585 0.004,-0.5917 0.004,-0.88756 5.7e-4,-0.26692 6e-4,-0.53384 10e-4,-0.80075 2e-5,-0.0178 1e-5,-0.0838 1e-5,-0.0911 -0.01,-1.8036 2.49283,-1.81731 2.50234,-0.0137 l 0,0 c 10e-6,0.0353 10e-5,0.0707 2e-5,0.10606 -1.5e-4,0.26887 -4e-4,0.53774 -0.001,0.8066 -6e-4,0.29471 -0.003,0.58941 -0.004,0.88412 0.005,0.95545 0.35287,0.81968 -1.64267,-0.40398 -0.2624,0.13949 -0.55999,0.31702 -0.57791,0.64899 0.22248,-0.57196 -0.67589,-1.34255 -0.7789,-1.89975 -0.79132,-1.61321 1.44688,-2.75393 2.2382,-1.14071 z"
       id="path11370"
       style="fill:#000000;fill-opacity:1;fill-rule:nonzero;stroke:none" />
    <path
       style="fill:#000000;fill-opacity:1;fill-rule:nonzero;stroke:none"
       id="path11374"
       d="m 372.88984,252.70954 c 0.93848,3.24654 0.6716,6.5528 0.45833,9.87256 -0.61718,4.63578 -1.34694,9.25169 -2.50945,13.78412 -1.15856,4.15752 -3.67575,7.57937 -6.43601,10.80559 -2.71436,2.77155 -6.04174,4.82827 -9.11957,7.16425 -2.22073,1.50504 -4.61237,2.79005 -7.10257,3.79226 -0.91429,0.36731 -1.43374,-0.92568 -0.51946,-1.29299 l 0,0 c 2.37661,-0.95299 4.65659,-2.18183 6.77973,-3.60931 2.99967,-2.27567 6.2378,-4.2836 8.90341,-6.96047 2.62368,-3.06195 5.03565,-6.29905 6.14489,-10.24617 1.14532,-4.4473 1.85228,-8.97861 2.46846,-13.52665 0.20433,-3.17785 0.48287,-6.33662 -0.4196,-9.44524 -0.23897,-0.95588 1.11286,-1.29384 1.35184,-0.33795 z"
       inkscape:connector-curvature="0" />
    <path
       style="fill:#000000;fill-opacity:1;fill-rule:nonzero;stroke:none"
       id="path11376"
       d="m 355.82375,396.28648 c 2.6171,-0.43232 4.92672,-1.44845 6.95345,-3.13534 2.29554,-1.90095 3.51209,-4.62492 4.85413,-7.20872 1.06268,-2.11263 2.03532,-4.29485 2.84239,-6.52105 0.70778,-1.88273 0.77937,-3.89762 0.859,-5.88345 0.0349,-1.2996 0.046,-2.59991 0.031,-3.8999 -0.007,-0.6525 -0.0106,-1.30502 -0.0121,-1.95755 -0.001,-0.76922 -0.001,-1.53843 -0.001,-2.30765 0,-0.1352 1e-5,-0.2704 1e-5,-0.4056 4e-5,-0.9853 1.39347,-0.98525 1.39344,5e-5 l 0,0 c -1e-5,0.13518 -1e-5,0.27036 -2e-5,0.40554 10e-6,0.76812 -1e-4,1.53624 10e-4,2.30435 0.002,0.64832 0.005,1.29662 0.012,1.9449 0.0151,1.32399 0.004,2.6483 -0.0321,3.97189 -0.086,2.12981 -0.18055,4.28663 -0.94203,6.30435 -0.8344,2.28059 -1.82216,4.52096 -2.91511,6.68645 -1.42893,2.75063 -2.75009,5.62677 -5.20296,7.64044 -2.19737,1.80484 -4.67823,2.94457 -7.50322,3.41312 -0.95589,0.23898 -1.29385,-1.11285 -0.33796,-1.35183 z"
       inkscape:connector-curvature="0" />
    <path
       style="fill:#000000;fill-opacity:1;fill-rule:nonzero;stroke:none"
       id="path11384"
       d="m 549.87308,370.47104 c -2.18739,0.69423 -4.33798,1.4587 -6.42229,2.42172 -0.11883,-0.006 -2.55476,1.7757 -1.33086,1.58281 2.6519,1.70766 5.72305,2.69782 8.5476,4.10633 2.42664,1.5386 5.31087,3.67593 5.23553,6.90864 -0.0131,0.55941 -0.21604,1.0981 -0.32406,1.64715 -1.7787,3.67601 -4.79068,4.94413 -8.67345,5.32518 -3.07607,-0.18039 -5.67794,-1.53323 -7.1264,-4.27792 -0.25904,-1.36409 -0.26857,-0.67654 0.049,-2.06228 0.59453,-1.63332 2.90507,-0.79278 2.31054,0.84054 l 0,0 c -0.17064,-0.13176 -0.10205,-0.13125 -0.15268,0.13793 0.79412,1.88581 2.78452,2.6766 4.70322,2.91322 2.65042,-0.20025 5.09487,-1.03403 6.50046,-3.45677 0.97181,-2.87114 -1.54283,-4.35024 -3.62236,-5.77745 -1.81655,-0.91163 -3.67949,-1.65608 -5.53094,-2.49032 -0.65199,-0.29379 -2.33083,-1.07621 -2.94537,-1.51019 -0.36796,-0.25984 -0.66492,-0.60783 -0.99738,-0.91174 -0.21627,-0.43126 -0.53852,-0.82413 -0.64882,-1.29378 -0.43217,-1.84025 1.70002,-3.16531 2.9757,-3.9132 2.22431,-1.02474 4.5193,-1.84563 6.85622,-2.57452 1.6867,-0.42155 2.28304,1.9631 0.59634,2.38465 z"
       inkscape:connector-curvature="0" />
    <path
       style="fill:#000000;fill-opacity:1;fill-rule:nonzero;stroke:none"
       id="path11386"
       d="m 560.32008,366.75626 c 0.97463,2.9872 1.15494,6.16114 1.34437,9.27598 0.0228,3.13455 0.32938,6.24581 0.68336,9.35664 0.0727,0.6334 0.15036,1.26619 0.2299,1.89876 0.2168,1.72453 -2.22278,2.03104 -2.43958,0.30651 l 0,0 c -0.0807,-0.64214 -0.15959,-1.2845 -0.23333,-1.92748 -0.35875,-3.15357 -0.66953,-6.30835 -0.69462,-9.48577 -0.17238,-2.85434 -0.32679,-5.762 -1.17301,-8.51175 -0.64571,-1.61378 1.63721,-2.52667 2.28291,-0.91289 z"
       inkscape:connector-curvature="0" />
    <path
       style="fill:#000000;fill-opacity:1;fill-rule:nonzero;stroke:none"
       id="path11388"
       d="m 569.39283,380.17595 c -1.25473,1.15095 -1.82623,2.77704 -2.23907,4.38388 -0.0136,0.20843 -0.0701,0.41845 -0.041,0.62529 0.12599,0.89624 2.25787,1.12177 2.83748,1.25135 1.82102,0.15223 3.86639,-0.1241 4.98035,-1.71178 0.52743,-1.78444 -1.56813,-3.20336 -2.78683,-4.14028 -1.54762,-1.03649 -3.18621,-1.93553 -4.88249,-2.70384 -0.14741,-0.0716 -0.30192,-0.12579 -0.45486,-0.18341 -1.63856,-0.58112 -0.81648,-2.89771 0.82208,-2.31658 l 0,0 c 0.21953,0.0791 0.43645,0.16497 0.64896,0.2617 1.87179,0.85061 3.68183,1.84272 5.37937,3.00461 2.39554,1.89252 4.91786,4.42155 3.17927,7.63125 -0.29076,0.33162 -0.54204,0.7025 -0.87227,0.99485 -1.7665,1.5639 -4.33874,1.7891 -6.56828,1.55815 -2.71086,-0.64465 -5.15011,-1.57884 -4.62045,-4.89367 0.53825,-2.02515 1.30591,-4.03935 2.8791,-5.49961 1.22939,-1.22903 2.96801,0.50907 1.73862,1.73809 z"
       inkscape:connector-curvature="0" />
    <path
       style="fill:#000000;fill-opacity:1;fill-rule:nonzero;stroke:none"
       id="path11390"
       d="m 577.10751,376.08385 c 1.86914,-0.43846 3.79166,-0.55797 5.70262,-0.66398 2.38899,-0.19137 4.02764,0.22934 5.36893,2.28882 0.80551,2.17969 -0.0123,4.05569 -1.38763,5.76367 -1.07547,1.27464 -2.39772,2.13116 -4.05582,2.30256 -1.7986,-0.35616 -2.87431,-1.85913 -3.70115,-3.38082 -0.33051,-0.70105 -0.61245,-1.42979 -0.77288,-2.18956 -0.1784,-1.11011 0.15545,-1.05452 2.46299,-0.31553 0.0608,0.0195 0.0572,0.9898 0.0618,1.51589 0.23124,2.93675 0.63239,5.85354 0.96695,8.77932 0.3023,2.80255 0.4635,5.61714 0.56289,8.43332 0.02,1.93593 0.53385,1.67188 -2.09586,0.55361 0.0291,-0.11098 0.0582,-0.22198 0.0873,-0.33296 0.4833,-1.6696 2.84517,-0.9863 2.36187,0.68328 l 0,0 c -0.0617,0.20275 -0.12341,0.4055 -0.18511,0.60825 -0.6291,1.27123 -0.11692,0.71338 -2.59285,-0.0166 -0.0274,-0.008 -0.007,-0.49281 -0.0149,-0.7909 -0.005,-0.20604 -0.0118,-0.41205 -0.0177,-0.61809 -0.0969,-2.75189 -0.25378,-5.50223 -0.54853,-8.24085 -0.34416,-3.01262 -0.76215,-6.01599 -0.98278,-9.04157 -0.008,-1.73543 -0.28582,-0.81809 2.35311,-1.56142 0.0399,-0.0112 -0.0222,-0.16338 -0.0103,-0.14842 0.11841,0.52993 0.31009,1.0402 0.5375,1.53302 0.25976,0.51247 0.55698,1.00163 0.94149,1.43367 0.17393,0.19543 0.44682,0.31684 0.55492,0.55506 0.0131,0.0289 -0.0294,0.0563 -0.0441,0.0844 0.46974,0.2951 1.96571,-1.07866 2.23091,-1.40556 0.74415,-0.88057 1.29625,-1.7415 1.17712,-2.94306 -0.58183,-1.2383 -1.89532,-1.19267 -3.12248,-1.09524 -1.75573,0.0967 -3.52305,0.19931 -5.242,0.59433 -1.6867,0.42156 -2.28303,-1.9631 -0.59633,-2.38465 z"
       inkscape:connector-curvature="0" />
    <path
       style="fill:#000000;fill-opacity:1;fill-rule:nonzero;stroke:none"
       id="path11392"
       d="m 592.70811,379.74832 c 1.31771,0.61899 2.70012,0.94282 4.14331,0.67388 0.88121,-0.41589 0.92433,-1.51713 0.89641,-2.38292 -0.26795,-1.2504 -1.11887,-1.93385 -2.2831,-2.30433 -1.77326,-0.24758 -2.9908,1.06557 -4.03666,2.31638 -1.33499,2.07541 -1.31276,3.28994 0.41803,5.04754 2.00735,1.71735 4.59272,2.26677 7.12861,2.68732 1.21693,0.14388 0.63708,0.0858 1.73897,0.18003 1.73216,0.14961 1.52052,2.59853 -0.21164,2.44892 l 0,0 c -1.22023,-0.10634 -0.57585,-0.0405 -1.93242,-0.2045 -3.08883,-0.51902 -6.17323,-1.28006 -8.54594,-3.46169 -0.35802,-0.41604 -0.7743,-0.78835 -1.07407,-1.24812 -1.54125,-2.36381 -0.91327,-4.88634 0.60914,-7.04627 1.77906,-2.04722 3.87628,-3.69688 6.74538,-3.02997 2.13012,0.82823 3.62339,2.26094 3.90241,4.63246 -0.0622,2.1576 -0.70212,4.13814 -2.9802,4.79445 -1.95996,0.26592 -3.83395,-0.02 -5.61783,-0.90464 -1.55506,-0.7773 -0.45547,-2.97584 1.0996,-2.19854 z"
       inkscape:connector-curvature="0" />
    <path
       style="fill:#000000;fill-opacity:1;fill-rule:nonzero;stroke:none"
       id="path11406"
       d="m 605.56992,374.64117 c 1.28769,0.4577 2.55951,0.36023 3.88775,0.22745 1.30803,-0.12984 2.61764,-0.25422 3.93025,-0.32775 0.35696,-0.018 0.7142,-0.0292 1.07153,-0.0362 1.73828,-0.0338 1.786,2.42384 0.0477,2.45757 l 0,0 c -0.32778,0.006 -0.65549,0.0166 -0.98294,0.0329 -1.27696,0.0701 -2.55078,0.19442 -3.82328,0.31947 -1.60083,0.15831 -3.17557,0.23345 -4.72737,-0.28878 -1.6867,-0.42155 -1.09036,-2.8062 0.59635,-2.38465 z"
       inkscape:connector-curvature="0" />
    <path
       style="fill:#000000;fill-opacity:1;fill-rule:nonzero;stroke:none"
       id="path11408"
       d="m 607.00897,379.42255 c 1.51494,0 3.02988,0 4.54483,0 0.57862,0.008 1.60653,0.01 1.94067,-0.0394 0.35003,-0.14981 0.70475,-0.27604 1.0663,-0.39533 1.65542,-0.53121 2.40688,1.80922 0.75147,2.34043 l 0,0 c -0.36449,0.11151 -0.71011,0.2634 -1.06762,0.39574 -0.89045,0.20474 -1.7775,0.16985 -2.69082,0.15661 -1.51495,0 -3.02989,0 -4.54483,0 -1.73861,0 -1.73861,-2.45804 0,-2.45804 z"
       inkscape:connector-curvature="0" />
    <path
       style="fill:#000000;fill-opacity:1;fill-rule:nonzero;stroke:none"
       id="path11412"
       d="m 624.13998,366.39336 c 0.0267,2.19289 -0.0785,4.38845 0.0945,6.57588 0.35776,3.15713 0.52009,6.32996 0.63212,9.50373 0.0758,2.51339 0.0928,5.02799 0.0984,7.54234 0.004,1.73809 -2.45485,1.74362 -2.45876,0.005 l 0,0 c -0.005,-2.48734 -0.0222,-4.97491 -0.0969,-7.46129 -0.11059,-3.14051 -0.27232,-6.27987 -0.62657,-9.40386 -0.16548,-2.2508 -0.0868,-4.50645 -0.10158,-6.76234 0,-1.73809 2.45878,-1.73809 2.45878,0 z"
       inkscape:connector-curvature="0" />
    <path
       style="fill:#000000;fill-opacity:1;fill-rule:nonzero;stroke:none"
       id="path11414"
       d="m 539.91819,416.766 c -2.58616,0.31178 -5.03864,1.16028 -7.38433,2.22482 -2.04091,0.97295 -3.64167,2.53143 -4.2443,4.67353 -0.17833,1.7685 0.89929,2.67318 2.43703,3.3416 1.68558,0.68617 2.75107,0.079 3.67128,-1.30765 0.8283,-1.66697 1.2837,-3.59229 1.18442,-5.44598 -0.10831,-0.83936 -0.32784,-1.66176 -0.54164,-2.48101 -0.029,-0.1069 -0.0577,-0.21385 -0.0871,-0.32065 0.79027,-0.0305 1.59236,-0.22628 2.37081,-0.0913 0.17081,0.0296 -0.0121,0.33562 0.002,0.50262 0.0158,0.19026 0.0472,0.37949 0.0873,0.56639 0.22518,1.04822 0.63056,2.0403 1.01972,3.03861 1.02212,2.41453 2.00681,4.91139 4.01842,6.7221 0.79417,0.50033 0.4065,0.33422 1.13139,0.56211 1.60152,0.60935 0.70888,2.79582 -0.89266,2.18648 l 0,0 c -1.3201,-0.54574 -0.67405,-0.20301 -1.92402,-1.0526 -2.23089,-2.10876 -3.50425,-4.80455 -4.61258,-7.59287 -0.55723,-1.43904 -1.13624,-2.87603 -1.26204,-4.42216 -0.0131,-0.16115 -0.15017,-0.41022 -0.002,-0.48493 0.7312,-0.36793 1.57591,-0.46912 2.36386,-0.70368 0.0558,0.17016 0.10226,0.34293 0.14748,0.51602 0.25579,0.98106 0.51727,1.96703 0.614,2.97682 0.0515,2.37071 -0.43598,4.78054 -1.62343,6.87219 -1.8918,2.47701 -3.63027,3.19769 -6.71285,2.08103 -2.78283,-1.3287 -4.14477,-3.03269 -3.71973,-6.14365 0.92221,-2.76014 2.8105,-4.85553 5.54311,-6.12183 2.52522,-1.13487 5.15891,-2.05979 7.93824,-2.4005 1.688,-0.32591 2.16544,1.97862 0.47743,2.30453 z"
       inkscape:connector-curvature="0" />
    <path
       style="fill:#000000;fill-opacity:1;fill-rule:nonzero;stroke:none"
       id="path11416"
       d="m 548.75885,407.14082 c 0.55501,3.14685 0.99816,6.3102 1.45426,9.4723 0.41877,3.14648 0.81831,6.30702 1.63902,9.38271 0.16868,0.61759 0.36299,1.22797 0.56529,1.83587 0.52586,1.58239 -1.79224,2.30031 -2.31809,0.71792 l 0,0 c -0.21637,-0.65193 -0.42471,-1.30636 -0.60501,-1.96867 -0.84054,-3.16263 -1.26706,-6.40813 -1.69241,-9.64373 -0.44942,-3.11625 -0.88471,-6.23415 -1.43024,-9.3355 -0.3376,-1.62955 2.04959,-2.09045 2.38718,-0.4609 z"
       inkscape:connector-curvature="0" />
    <path
       style="fill:#000000;fill-opacity:1;fill-rule:nonzero;stroke:none"
       id="path11418"
       d="m 541.70035,418.37842 c 2.19163,0.45203 4.44448,0.20873 6.66165,0.10814 2.11279,-0.0332 4.20343,-0.37223 6.29152,-0.65594 1.70462,-0.2316 2.0439,2.09564 0.33928,2.32724 l 0,0 c -2.1627,0.29381 -4.32839,0.63986 -6.51651,0.67628 -2.41553,0.10958 -4.86693,0.35084 -7.25337,-0.15119 -1.688,-0.32591 -1.21056,-2.63045 0.47743,-2.30453 z"
       inkscape:connector-curvature="0" />
    <path
       style="fill:#000000;fill-opacity:1;fill-rule:nonzero;stroke:none"
       id="path11420"
       d="m 572.21855,408.24837 c 0,3.11797 0,6.23594 0,9.35391 0.18399,2.89862 0.29416,5.81308 0.87309,8.66817 0.12041,0.56892 0.27791,1.12888 0.44947,1.68495 0.48918,1.59332 -1.84492,2.26116 -2.33409,0.66785 l 0,0 c -0.19219,-0.62861 -0.37047,-1.26106 -0.50505,-1.90403 -0.60197,-3.0042 -0.74001,-6.06676 -0.91788,-9.11694 0,-3.11797 0,-6.23594 0,-9.35391 0,-1.66183 2.43446,-1.66183 2.43446,0 z"
       inkscape:connector-curvature="0" />
    <path
       style="fill:#000000;fill-opacity:1;fill-rule:nonzero;stroke:none"
       id="path11422"
       d="m 568.94916,405.64993 c 2.85149,-0.35274 5.73198,-0.66991 8.60156,-0.42468 3.28066,0.57333 4.99947,2.23335 6.20362,5.1272 0.75728,3.61018 -0.51111,5.21057 -3.64936,6.97958 -2.84451,1.20729 -5.96117,1.49845 -9.02806,1.69228 -0.56224,0.0297 -1.12487,0.0502 -1.68786,0.0583 -1.72125,0.0236 -1.75586,-2.32631 -0.0345,-2.34994 l 0,0 c 0.52177,-0.007 1.04318,-0.027 1.56428,-0.0536 2.70588,-0.16913 5.46044,-0.40349 7.99618,-1.39731 1.75933,-0.89453 3.00812,-2.00668 2.57153,-4.07497 -0.75142,-1.93683 -1.94873,-3.27859 -4.16979,-3.64229 -2.65033,-0.27365 -5.32952,0.11927 -7.96727,0.40358 -1.698,0.27321 -2.09823,-2.04498 -0.40023,-2.31819 z"
       inkscape:connector-curvature="0" />
    <path
       style="fill:#000000;fill-opacity:1;fill-rule:nonzero;stroke:none"
       id="path11424"
       d="m 579.83463,426.9378 c -0.93722,0.19331 -1.88524,0.5992 -2.34833,1.44799 -0.38714,0.86675 0.30075,1.28028 1.00568,1.65317 1.09225,0.39861 2.43925,0.99996 3.38431,0.0903 0.84407,-1.11845 0.42114,-1.64329 -0.4099,-2.59923 -0.90685,-0.82807 -2.10865,-1.15671 -3.30108,-1.39472 -0.19452,-0.0365 -0.39074,-0.0614 -0.58831,-0.074 -1.71626,-0.12862 -1.52786,-2.47174 0.18841,-2.34313 l 0,0 c 0.30223,0.0243 0.60338,0.0579 0.90086,0.11726 1.76147,0.36227 3.46296,0.94163 4.72158,2.2515 1.63755,2.12467 1.93234,3.90013 -0.0598,5.92888 -0.31873,0.20509 -0.60704,0.46319 -0.9562,0.61528 -1.68982,0.73605 -3.57924,0.0821 -5.15646,-0.59103 -1.96489,-1.2381 -2.86721,-2.71533 -1.78398,-4.91448 0.91583,-1.29702 2.19326,-2.16028 3.81278,-2.46781 1.67003,-0.40305 2.26047,1.87695 0.59044,2.28 z"
       inkscape:connector-curvature="0" />
    <path
       style="fill:#000000;fill-opacity:1;fill-rule:nonzero;stroke:none"
       id="path11426"
       d="m 587.69754,423.44375 c 0.3672,1.44264 0.54716,2.91427 0.65643,4.39308 0.37927,0.84775 0.21145,2.08296 0.75157,2.85166 0.29808,0.45389 0.7016,0.58788 1.20497,0.72872 0.73729,-0.38134 1.09263,-1.17669 1.4305,-1.87266 0.48286,-1.18976 0.6597,-2.45927 0.7597,-3.72491 -0.006,-0.64578 -0.0358,0.003 0.21964,0.19448 0.68124,0.20998 0.87501,-0.30897 1.38925,-0.82521 0.0681,0.95342 0.30445,1.91723 0.55839,2.84655 0.31567,1.2493 0.90715,2.41765 1.45921,3.5839 0.0381,-0.0201 0.0762,0.0115 0.11022,0.0166 1.32726,1.05826 -0.22303,2.8703 -1.55029,1.81204 l 0,0 c -0.5478,-0.47554 -0.28189,-0.19832 -0.77424,-0.85205 -0.61096,-1.29126 -1.25309,-2.58861 -1.60189,-3.97237 -0.3238,-1.22949 -0.67448,-2.51549 -0.60781,-3.79045 0.72486,-0.88401 0.83943,-1.32769 1.8729,-1.01923 0.92732,0.38524 1.48005,1.17909 1.35185,2.18672 -0.12617,1.55926 -0.36654,3.11874 -0.99765,4.57175 -0.88854,1.7198 -2.09691,3.37869 -4.33181,3.09221 -1.16473,-0.35489 -2.12263,-0.92939 -2.70812,-2.00133 -0.49129,-1.1642 -0.69178,-2.43509 -0.96478,-3.66058 -0.0975,-1.34274 -0.25768,-2.67874 -0.58982,-3.98895 -0.41751,-1.6122 1.94427,-2.1822 2.36178,-0.56999 z"
       inkscape:connector-curvature="0" />
    <path
       style="fill:#000000;fill-opacity:1;fill-rule:nonzero;stroke:none"
       id="path11428"
       d="m 600.68133,417.17664 c 0.39867,1.94447 0.56053,3.92056 0.87607,5.87931 0.33234,1.95785 0.51414,3.9337 0.63691,5.91271 0.0341,0.69692 0.0587,1.39459 0.0568,2.09237 -0.004,0.3048 9.1e-4,-0.0736 -0.003,0.15248 -0.0484,1.66117 -2.48182,1.59521 -2.43351,-0.0659 l 0,0 c 5.9e-4,-0.0312 0.004,-0.0623 0.002,-0.0935 0.003,-0.64866 -0.0218,-1.29721 -0.0525,-1.9451 -0.11781,-1.9051 -0.29171,-3.80721 -0.61234,-5.69186 -0.30424,-1.88882 -0.47118,-3.7921 -0.83229,-5.67045 -0.41751,-1.6122 1.94427,-2.1822 2.36177,-0.56999 z"
       inkscape:connector-curvature="0" />
    <path
       style="fill:#000000;fill-opacity:1;fill-rule:nonzero;stroke:none"
       id="path11430"
       d="m 596.02944,423.09102 c 1.53441,0.41327 3.11886,0.20464 4.68206,0.0975 1.27498,-0.22441 2.51317,-0.59558 3.78613,-0.83127 0.74304,-0.11725 1.49374,-0.17074 2.24574,-0.18402 0.18582,-0.003 0.37165,-0.002 0.55746,-5.6e-4 1.72139,0.0121 1.70368,2.36219 -0.0177,2.3501 l 0,0 c -0.16552,-10e-4 -0.33105,-0.002 -0.49657,4.2e-4 -0.61331,0.0101 -1.22535,0.0521 -1.83214,0.14265 -1.36677,0.2509 -2.69084,0.67897 -4.07072,0.86712 -1.81841,0.12437 -3.66128,0.32372 -5.44471,-0.1618 -1.67002,-0.40306 -1.07957,-2.68306 0.59045,-2.28 z"
       inkscape:connector-curvature="0" />
    <path
       style="fill:#000000;fill-opacity:1;fill-rule:nonzero;stroke:none"
       id="path11438"
       d="m 612.87251,416.69511 c 1.85084,0 3.70168,0 5.55252,0 1.14038,0 2.28076,0 3.42114,0 0.44669,0 0.89338,0 1.34007,0 1.72143,0 1.72143,2.35017 0,2.35017 l 0,0 c -0.44669,0 -0.89338,0 -1.34007,0 -1.14038,0 -2.28076,0 -3.42114,0 -1.85084,0 -3.70168,0 -5.55252,0 -1.72142,0 -1.72142,-2.35017 0,-2.35017 z"
       inkscape:connector-curvature="0" />
    <path
       style="fill:#000000;fill-opacity:1;fill-rule:nonzero;stroke:none"
       id="path11440"
       d="m 613.88216,420.74085 c 1.4052,0.30467 2.84007,0.45306 4.27303,0.57071 0.84929,0.0734 1.70212,0.0851 2.55419,0.0891 0.38466,10e-4 0.76933,-1.4e-4 1.154,-0.001 1.72142,-0.004 1.72709,2.3463 0.005,2.35016 l 0,0 c -0.39054,10e-4 -0.78108,0.002 -1.17162,10e-4 -0.91712,-0.004 -1.83498,-0.0186 -2.74908,-0.0976 -1.56214,-0.12891 -3.12604,-0.29423 -4.65664,-0.63238 -1.67003,-0.40305 -1.07959,-2.68305 0.59044,-2.28 z"
       inkscape:connector-curvature="0" />
    <path
       style="fill:#000000;fill-opacity:1;fill-rule:nonzero;stroke:none"
       id="path11444"
       d="m 637.30131,411.14833 c -1.06595,1.17051 -1.91709,2.47018 -2.73457,3.80663 -0.98669,1.84979 -1.21005,3.93281 -1.38758,5.97434 0.0412,1.42481 0.0516,2.85023 0.99972,3.99698 0.99886,0.94412 2.19965,1.43031 3.54701,1.69196 1.39023,0.11945 2.36334,-0.68126 3.1934,-1.65927 0.807,-1.15043 0.95659,-2.52114 1.06201,-3.86948 -0.0357,-1.7071 -0.6446,-3.29238 -1.26087,-4.86704 -0.59142,-1.03744 -1.14066,-2.19 -2.01678,-3.04077 -0.69287,-0.66633 -1.57251,-1.09137 -2.40596,-1.56991 -0.41087,-0.17741 -0.83731,-0.32832 -1.27881,-0.41686 -1.68256,-0.3511 -1.16824,-2.64822 0.51433,-2.29713 l 0,0 c 0.69678,0.14827 1.37384,0.37881 2.00894,0.69409 1.03641,0.5951 2.11641,1.14579 2.95523,2.00086 1.03155,1.12846 1.83786,2.43987 2.50044,3.7992 0.74224,1.89709 1.43189,3.82058 1.41065,5.87928 -0.15208,1.85061 -0.45381,3.68309 -1.63688,5.21282 -1.46739,1.61817 -3.22291,2.73815 -5.55203,2.43299 -1.91949,-0.40957 -3.64405,-1.15187 -4.99131,-2.5846 -1.24852,-1.67739 -1.51571,-3.55757 -1.47488,-5.60151 0.21191,-2.3947 0.52026,-4.81968 1.71711,-6.97095 0.92107,-1.50577 1.89493,-2.96667 3.1094,-4.27346 1.21723,-1.17508 2.93866,0.48674 1.72143,1.66183 z"
       inkscape:connector-curvature="0" />
    <path
       style="fill:#000000;fill-opacity:1;fill-rule:nonzero;stroke:none"
       id="path11448"
       d="m 501.19982,334.77962 c 1.1269,2.42395 1.78645,5.0157 2.57876,7.55903 0.57209,3.20955 1.75953,6.13394 3.22843,9.02492 2.29843,4.74153 5.63733,8.83136 9.04871,12.80274 2.78462,3.01528 5.46814,6.16527 8.57281,8.86113 2.47007,2.35788 5.32295,3.29236 8.67095,3.42202 0.66482,-0.0221 1.32964,-0.0442 1.99447,-0.0663 0.98479,-0.0317 1.0297,1.36096 0.0449,1.39272 l 0,0 c -0.70016,0.0219 -1.40032,0.0438 -2.10048,0.0657 -3.65697,-0.17732 -6.81988,-1.18638 -9.52477,-3.76312 -3.14913,-2.74793 -5.89218,-5.93117 -8.715,-9.00427 -3.48323,-4.05666 -6.88609,-8.23799 -9.23407,-13.07977 -1.50131,-2.95905 -2.72861,-5.95817 -3.31635,-9.24134 -0.76989,-2.47189 -1.40927,-4.99069 -2.4947,-7.35028 -0.44064,-0.88128 0.80568,-1.50445 1.24633,-0.62316 z"
       inkscape:connector-curvature="0" />
  </g>
</svg>
