<?xml version="1.0" encoding="UTF-8" standalone="no"?>
<!-- Created with Inkscape (http://www.inkscape.org/) -->

<svg
   xmlns:dc="http://purl.org/dc/elements/1.1/"
   xmlns:cc="http://creativecommons.org/ns#"
   xmlns:rdf="http://www.w3.org/1999/02/22-rdf-syntax-ns#"
   xmlns:svg="http://www.w3.org/2000/svg"
   xmlns="http://www.w3.org/2000/svg"
   xmlns:sodipodi="http://sodipodi.sourceforge.net/DTD/sodipodi-0.dtd"
   xmlns:inkscape="http://www.inkscape.org/namespaces/inkscape"
   width="646.91913"
   height="254.6985"
   id="svg2985"
   version="1.1"
   inkscape:version="0.48.0 r9654"
   sodipodi:docname="New document 2">
  <defs
     id="defs2987" />
  <sodipodi:namedview
     inkscape:document-units="mm"
     pagecolor="#ffffff"
     bordercolor="#666666"
     borderopacity="1.0"
     inkscape:pageopacity="0.0"
     inkscape:pageshadow="2"
     inkscape:zoom="1.0149115"
     inkscape:cx="354.51541"
     inkscape:cy="85.965694"
     inkscape:current-layer="layer1"
     id="namedview2989"
     showgrid="false"
     fit-margin-top="0"
     fit-margin-left="0"
     fit-margin-right="0"
     fit-margin-bottom="0"
     inkscape:window-width="1280"
     inkscape:window-height="752"
     inkscape:window-x="0"
     inkscape:window-y="0"
     inkscape:window-maximized="0" />
  <metadata
     id="metadata2991">
    <rdf:RDF>
      <cc:Work
         rdf:about="">
        <dc:format>image/svg+xml</dc:format>
        <dc:type
           rdf:resource="http://purl.org/dc/dcmitype/StillImage" />
        <dc:title></dc:title>
      </cc:Work>
    </rdf:RDF>
  </metadata>
  <g
     inkscape:label="Layer 1"
     inkscape:groupmode="layer"
     id="layer1"
     transform="translate(-157.53863,-184.94869)">
    <path
       sodipodi:type="arc"
       style="fill:none;stroke:#000000;stroke-width:3.54330707;stroke-linecap:round;stroke-linejoin:round;stroke-miterlimit:4;stroke-opacity:1;stroke-dasharray:none;stroke-dashoffset:0"
       id="path3764"
       sodipodi:cx="387.37503"
       sodipodi:cy="300.28531"
       sodipodi:rx="126.80262"
       sodipodi:ry="131.67966"
       d="m 514.17765,300.28531 c 0,72.72467 -56.77147,131.67966 -126.80262,131.67966 -70.03115,0 -126.80262,-58.95499 -126.80262,-131.67966 0,-72.72467 56.77147,-131.67966 126.80262,-131.67966 70.03115,0 126.80262,58.95499 126.80262,131.67966 z"
       transform="matrix(1,0,0,0.95381709,196.47438,25.901359)" />
    <path
       transform="matrix(0.59883137,0,0,0.5780886,353.27053,138.7271)"
       d="m 514.17765,300.28531 c 0,72.72467 -56.77147,131.67966 -126.80262,131.67966 -70.03115,0 -126.80262,-58.95499 -126.80262,-131.67966 0,-72.72467 56.77147,-131.67966 126.80262,-131.67966 70.03115,0 126.80262,58.95499 126.80262,131.67966 z"
       sodipodi:ry="131.67966"
       sodipodi:rx="126.80262"
       sodipodi:cy="300.28531"
       sodipodi:cx="387.37503"
       id="path3770"
       style="fill:none;stroke:#000000;stroke-width:3.54330707;stroke-linecap:round;stroke-linejoin:round;stroke-miterlimit:4;stroke-opacity:1;stroke-dasharray:none;stroke-dashoffset:0"
       sodipodi:type="arc" />
    <path
       sodipodi:type="arc"
       style="fill:none;stroke:#000000;stroke-width:3.54330707;stroke-linecap:round;stroke-linejoin:round;stroke-miterlimit:4;stroke-opacity:1;stroke-dasharray:none;stroke-dashoffset:0"
       id="path3772"
       sodipodi:cx="268.2363"
       sodipodi:cy="341.39166"
       sodipodi:rx="124.71246"
       sodipodi:ry="125.40918"
       d="m 392.94876,341.39166 c 0,69.26158 -55.83567,125.40918 -124.71246,125.40918 -68.87679,0 -124.71247,-56.1476 -124.71247,-125.40918 0,-69.26157 55.83568,-125.40918 124.71247,-125.40918 68.87679,0 124.71246,56.14761 124.71246,125.40918 z"
       transform="translate(117.04857,-29.262142)" />
    <path
       style="fill:#000000;fill-opacity:1;fill-rule:nonzero;stroke:none"
       id="path3808"
       d="m 382.99084,307.03126 c -0.75659,0.75659 -1.51319,1.51319 -2.26978,2.26978 -0.1174,0.1174 -0.23479,0.2348 -0.35219,0.35219 -2.73356,-1.34175 -2.48062,-0.71527 -2.48934,-2.47011 0.14076,-0.88982 0.57646,-1.68421 0.88589,-2.52367 0.0459,-0.11982 0.1161,-0.33042 0.14824,-0.42793 0.40159,-0.63271 1.45224,-1.01462 2.31712,-1.03531 0.30899,-0.008 0.61798,-0.0155 0.92697,-0.0236 0.14375,-0.005 0.28762,-0.003 0.43143,-0.004 0.21161,-2e-5 0.42321,6e-5 0.63482,1.8e-4 0.0597,7e-5 0.11947,6e-5 0.17921,6e-5 0.90168,-0.0967 1.68934,0.38987 2.11622,1.18598 0.14226,0.36357 0.20099,0.7468 0.23268,1.13288 0.004,0.25123 -5.1e-4,0.50266 -0.002,0.75395 -0.001,0.39072 -0.002,0.78144 -0.002,1.17216 -9e-5,0.0653 -6e-5,0.13054 -7e-5,0.1958 3e-5,0.21504 3e-5,0.476 3e-5,0.70939 0,0.0891 0,0.17816 0,0.26725 -1.17258,1.38287 -1.0976,1.48644 -2.10066,1.47915 -0.39732,-10e-4 -0.79465,-3.1e-4 -1.19197,0 -0.34459,2.4e-4 -0.68919,4.1e-4 -1.03378,5.6e-4 -0.0401,3e-5 -0.0802,2e-5 -0.12024,3e-5 -0.41384,0 -0.82767,0 -1.2415,0 -0.22927,0 -0.45854,0 -0.68781,0 -0.0134,0 -0.0269,0 -0.0403,0 -0.4874,-0.5992 -0.97479,-1.1984 -1.46219,-1.7976 0.11867,-2.08678 3.06983,-1.91895 2.95116,0.16783 l 0,0 c -0.58387,-0.52001 -2.16758,-1.34249 -1.44866,-1.32615 0.22927,0 0.45854,0 0.68781,0 0.41498,0 0.82995,-10e-6 1.24493,0 0.034,-10e-6 0.0795,-10e-6 0.11559,-3e-5 0.34423,-1.5e-4 0.68846,-3.2e-4 1.03269,-5.6e-4 0.40533,-3.2e-4 0.81066,-10e-4 1.21598,7e-5 1.00551,0.007 0.46264,0.011 -0.87696,1.47665 0,-0.0891 0,-0.17811 0,-0.26717 0,-0.23481 0,-0.46963 -3e-5,-0.70445 1e-5,-0.0678 -3e-5,-0.13557 7e-5,-0.20335 3.4e-4,-0.3959 8.3e-4,-0.7918 0.002,-1.18769 7.4e-4,-0.12177 -9.8e-4,-0.70508 0.006,-0.5745 -0.003,-0.025 -0.0181,-0.12415 -0.006,-0.14916 0.47169,0.6345 1.95815,0.64116 0.60878,0.62488 -0.0603,0 -0.12055,10e-6 -0.18082,-6e-5 -0.2108,-1.1e-4 -0.42159,-1.9e-4 -0.63238,-1.8e-4 -0.11825,3e-5 -0.23652,-0.002 -0.3547,0.003 -0.31128,0.008 -0.62255,0.0161 -0.93384,0.0238 -1.25686,0.03 -1.40365,0.0102 0.45044,-1.09361 -0.0646,0.21054 -0.13754,0.41835 -0.21325,0.62515 -0.1559,0.42202 -0.42632,1.39804 -0.70312,1.48577 0.009,1.81516 0.37439,1.74015 -2.5567,0.39448 0.11739,-0.1174 0.23479,-0.23479 0.35218,-0.35219 0.7566,-0.75659 1.51319,-1.51319 2.26979,-2.26978 1.47796,-1.47796 3.56811,0.61219 2.09015,2.09015 z"
       inkscape:connector-curvature="0" />
    <path
       style="fill:#000000;fill-opacity:1;fill-rule:nonzero;stroke:none"
       id="path3810"
       d="m 365.05646,315.88169 c 0,-1.59252 0,-3.18504 0,-4.77755 -0.066,-1.23149 0.46295,-2.37179 0.75973,-3.543 0.16118,-0.53917 0.20775,-1.09471 0.22467,-1.65397 0.18031,-0.84428 0.66218,-1.52323 0.85011,-2.36166 0.20357,-0.95155 0.72002,-1.8326 1.23799,-2.64564 0.47536,-0.83003 0.92862,-1.66876 1.37765,-2.51652 0.39482,-0.72234 0.96298,-1.33965 1.43662,-2.01573 0.28731,-0.45243 0.66661,-0.83567 1.03519,-1.22144 0.60315,-0.72058 1.41678,-1.16194 2.26583,-1.52723 -0.76989,0.43133 1.05717,-0.93384 1.19476,-1.0504 0.60793,-0.56594 1.39244,-0.87471 2.17671,-1.10748 -0.34458,-0.095 1.62621,-0.79236 1.76353,-0.88973 0.95235,-0.48675 1.98948,-0.77942 3.02147,-1.04475 0.52153,-0.15539 1.06709,-0.15808 1.6062,-0.16108 0.5287,9.5e-4 1.05738,0.005 1.58607,0.007 0.44734,0.002 0.8947,0.002 1.34205,0.002 0.3373,1e-4 0.67461,5e-5 1.01191,2e-5 0.32716,-2e-5 0.65433,-2e-5 0.98149,-3e-5 0.28805,0 0.57609,0 0.86414,0 0.82045,-0.10056 1.54813,0.24488 2.23349,0.66001 0.74663,0.38078 0.91832,0.65621 1.46868,1.40446 0.43247,1.06429 -0.46332,-0.32288 0.10575,-0.009 0.57553,0.20508 1.27133,2.35993 0.6828,0.90555 0.82281,0.26595 1.10786,1.05149 1.26136,1.7872 0.26439,0.72681 -0.77189,-0.83746 -0.47732,-0.79984 1.19081,0.64213 1.42981,0.90175 1.51406,1.96104 0.14425,0.88753 -0.3062,-0.28207 0.14565,0.12817 0.57996,0.42862 0.73592,1.10976 0.82086,1.77015 0.0426,0.38569 0.0314,0.77478 0.0289,1.16213 -0.14684,-1.13659 0.64097,0.91675 0.72595,1.16794 0.19051,0.50657 0.24112,1.03741 0.25757,1.57389 0.10143,0.8785 -0.28943,-0.17983 0.17216,0.26314 0.53227,0.68884 0.72694,1.46391 0.79287,2.31248 0.0296,0.46071 0.0243,0.92248 0.0221,1.38383 -9.3e-4,0.2286 -0.004,0.45719 -0.005,0.6858 0.26577,1.52381 -1.11803,-1.56704 0.16506,0.19726 0.44709,0.5355 0.66768,1.16891 0.77179,1.85144 0.0606,0.40923 0.0555,0.8229 0.0543,1.23531 -0.003,0.37704 -0.004,0.75409 -0.005,1.13114 -0.001,0.33334 -9e-4,0.66668 -9.5e-4,1.00002 -1e-5,0.22367 2e-5,0.44733 3e-5,0.671 0,0.21791 10e-6,0.43583 10e-6,0.65375 0,0.29073 0,0.58145 0,0.87218 0,0.29688 0,0.59375 0,0.89062 0,0.35794 0,0.71587 0,1.0738 0,0.25972 0,0.51943 0,0.77915 0,0.12457 0,0.24913 0,0.3737 0,0.15336 0,0.30673 0,0.46009 0.0844,1.04755 -0.44733,-0.73437 -0.76038,-0.95014 0.0457,0.01 0.20043,0.0135 0.20619,0.0138 2.08975,-0.041 2.14773,2.91436 0.058,2.95536 l 0,0 c -0.27022,-8.1e-4 -0.54023,-0.016 -0.80693,-0.0635 -0.92494,-0.19358 -1.74172,-0.92961 -1.65278,-1.95552 0,-0.15336 0,-0.30673 0,-0.46009 0,-0.12457 0,-0.24913 0,-0.3737 0,-0.25972 0,-0.51943 0,-0.77915 0,-0.35793 0,-0.71587 0,-1.0738 0,-0.29687 0,-0.59375 0,-0.89062 0,-0.29071 0,-0.58142 0,-0.87213 0,-0.2179 -10e-6,-0.43579 -2e-5,-0.65369 0,-0.22385 -3e-5,-0.44769 -2e-5,-0.67153 5e-5,-0.33613 -1.1e-4,-0.67226 9.6e-4,-1.00838 10e-4,-0.37721 0.002,-0.75443 0.005,-1.13162 8.7e-4,-0.2671 0.0108,-0.53538 -0.0236,-0.80101 -0.0284,-0.21867 0.12855,-0.0483 -0.2414,-0.54375 -0.40967,-0.57033 -0.81433,-1.21608 -0.72617,-1.93736 6.5e-4,-0.23098 0.004,-0.46194 0.005,-0.69291 0.002,-0.38491 0.008,-0.77018 -0.0143,-1.15468 -0.01,-0.15339 -0.1861,-0.75693 0.0412,-0.46114 -0.59137,-0.61878 -1.0742,-1.3402 -1.01283,-2.24317 -0.008,-0.27893 0.006,-0.44515 -0.10661,-0.72358 -0.24439,-0.74699 -0.77882,-1.30802 -0.87809,-2.1233 0.002,-0.2614 0.0102,-0.5238 -0.007,-0.78469 -0.0685,-0.59861 0.72629,0.74861 0.071,0.008 -0.56683,-0.55225 -1.08173,-1.19801 -1.05132,-2.04757 -0.0308,-0.53063 1.96497,1.01372 0.98655,0.74324 -1.01133,-0.16401 -1.52125,-0.49582 -1.97562,-1.55103 -0.0292,-0.2465 1.24742,0.81706 0.23963,0.24555 -0.59199,-0.33825 -2.05547,-2.13195 -0.73062,-0.93182 -0.68458,-0.39226 -1.27269,-0.93983 -1.45154,-1.60016 1.17147,1.27485 0.2729,0.3443 -0.20721,0.15564 -1.54886,-0.93815 1.0572,-0.0328 -0.70211,-0.23239 -0.28802,0 -0.57605,0 -0.86408,0 -0.3271,1e-5 -0.65419,1e-5 -0.98129,4e-5 -0.33795,3e-5 -0.6759,8e-5 -1.01385,-3e-5 -0.45095,-2.6e-4 -0.9019,-4.5e-4 -1.35284,-0.002 -0.51989,-0.002 -1.03976,-0.006 -1.55965,-0.007 -0.30304,0.001 -0.5968,-0.0228 -0.88586,0.0685 -0.82302,0.21043 -1.65601,0.43146 -2.41651,0.81661 -0.77326,0.35842 -1.566,0.59697 -2.2739,1.09194 -0.39766,0.11274 -0.80393,0.22589 -1.09699,0.5273 -0.62832,0.53049 -1.29261,1.01112 -1.9443,1.51245 -0.50289,0.21132 -0.94773,0.40322 -1.28817,0.85056 -0.26698,0.27913 -0.55132,0.54408 -0.7519,0.87628 -0.41208,0.5869 -0.90595,1.11036 -1.24536,1.70356 -0.50612,0.95278 -1.01455,1.89479 -1.5642,2.82194 -0.37921,0.34162 -0.63524,1.13659 -0.78345,1.62387 -0.0345,0.14535 -0.61049,2.3437 -0.77515,1.79328 -0.0283,0.77036 -0.10086,1.53859 -0.31435,2.28285 -0.23889,0.93436 -0.6805,1.84781 -0.66834,2.81364 0,1.59251 0,3.18503 0,4.77755 0,2.09015 -2.95592,2.09015 -2.95592,0 z"
       inkscape:connector-curvature="0" />
    <path
       style="fill:#000000;fill-opacity:1;fill-rule:nonzero;stroke:none"
       id="path3818"
       d="m 356.28533,316.96364 c 4.52386,0 9.04771,0 13.57156,0 8.12366,-0.0803 16.25052,0.15591 24.35496,0.71489 4.53606,0.35265 9.06404,0.80183 13.60156,1.1358 0.72501,0.0446 1.44946,0.10824 2.17563,0.13209 -0.0169,-1.3e-4 -0.0337,-2.6e-4 -0.0506,-3.9e-4 -0.11461,0.97267 -0.22923,1.94534 -0.34384,2.91801 -2.0737,-0.26174 -1.70353,-3.1944 0.37017,-2.93265 l 0,0 c 0.0627,3.00238 1.05186,2.95862 -0.0375,2.97031 -0.77798,-0.0263 -1.55431,-0.0884 -2.33092,-0.13943 -4.53313,-0.33382 -9.05681,-0.78143 -13.5884,-1.13486 -8.03642,-0.55693 -16.09556,-0.78629 -24.15109,-0.70784 -4.52385,0 -9.0477,0 -13.57156,0 -2.09015,0 -2.09015,-2.95593 0,-2.95593 z"
       inkscape:connector-curvature="0" />
    <path
       style="fill:#000000;fill-opacity:1;fill-rule:nonzero;stroke:none"
       id="path3820"
       d="m 359.14462,319.14876 c -0.22147,2.94064 -1.34324,5.70889 -2.17528,8.51486 -0.23605,0.8435 -0.42446,1.69868 -0.60562,2.55518 -0.43338,2.04473 -3.32506,1.43185 -2.89169,-0.61288 l 0,0 c 0.19811,-0.93293 0.40409,-1.86442 0.66339,-2.78277 0.7521,-2.53559 1.75516,-5.03469 2.05327,-7.67439 0,-2.09015 2.95593,-2.09015 2.95593,0 z"
       inkscape:connector-curvature="0" />
    <path
       style="fill:#000000;fill-opacity:1;fill-rule:nonzero;stroke:none"
       id="path3822"
       d="m 369.07142,315.59866 c 0.58846,2.3021 0.0882,4.62794 -0.53259,6.86183 -0.55731,2.12793 -1.49743,4.12936 -2.13999,6.22961 -0.14351,0.49678 -0.26282,1.00004 -0.3567,1.5084 -0.38407,2.05457 -3.28966,1.51141 -2.90559,-0.54315 l 0,0 c 0.11681,-0.61932 0.26003,-1.23333 0.4382,-1.83816 0.64621,-2.07331 1.54717,-4.06017 2.11861,-6.1572 0.49404,-1.73062 0.95384,-3.55235 0.5104,-5.34441 -0.50694,-2.02775 2.36073,-2.74467 2.86766,-0.71692 z"
       inkscape:connector-curvature="0" />
    <path
       style="fill:#000000;fill-opacity:1;fill-rule:nonzero;stroke:none"
       id="path3824"
       d="m 377.86546,319.0309 c -0.20555,2.74484 -0.82964,5.39175 -1.59171,8.02667 -0.49164,2.09897 -1.07217,4.15578 -2.01505,6.0996 -0.91608,1.87871 -3.57297,0.58318 -2.65689,-1.29553 l 0,0 c 0.87794,-1.78871 1.36528,-3.69514 1.83246,-5.62557 0.68598,-2.3702 1.2593,-4.73867 1.47527,-7.20517 0,-2.09015 2.95592,-2.09015 2.95592,0 z"
       inkscape:connector-curvature="0" />
    <path
       style="fill:#000000;fill-opacity:1;fill-rule:nonzero;stroke:none"
       id="path3826"
       d="m 389.68915,321.98682 c -0.0771,2.58369 -0.33908,5.20389 -0.86426,7.73838 -0.32282,1.59167 -0.80906,3.09492 -1.66467,4.47689 -1.10795,1.77233 -3.61441,0.20545 -2.50646,-1.56689 l 0,0 c 0.68552,-1.08148 1.01535,-2.27436 1.27995,-3.52527 0.51129,-2.32388 0.70603,-4.75137 0.79952,-7.12311 0,-2.09015 2.95592,-2.09015 2.95592,0 z"
       inkscape:connector-curvature="0" />
    <path
       style="fill:#000000;fill-opacity:1;fill-rule:nonzero;stroke:none"
       id="path3828"
       d="m 399.54223,321.00152 c -0.22999,2.44584 -0.85993,4.84157 -1.58538,7.18266 -0.51418,1.55219 -0.92461,3.13697 -1.28772,4.73063 -0.0192,0.0884 -0.0384,0.17689 -0.0576,0.26534 -0.44396,2.04246 -3.33244,1.41461 -2.88848,-0.62785 l 0,0 c 0.0214,-0.0982 0.0428,-0.19646 0.0641,-0.29468 0.38092,-1.66909 0.81101,-3.32885 1.34827,-4.95505 0.64822,-2.05441 1.18263,-4.16178 1.45084,-6.30105 0,-2.09016 2.95593,-2.09016 2.95593,0 z"
       inkscape:connector-curvature="0" />
    <path
       style="fill:#000000;fill-opacity:1;fill-rule:nonzero;stroke:none"
       id="path3830"
       d="m 406.52854,321.69697 c 0.12522,3.05369 -0.45231,6.10033 -0.74216,9.13914 -0.14191,1.62873 -0.0774,0.85831 -0.1951,2.31112 -0.16882,2.08332 -3.11508,1.84457 -2.94627,-0.23875 l 0,0 c 0.11988,-1.47883 0.0542,-0.69435 0.19882,-2.35329 0.26352,-2.75774 0.71994,-5.51166 0.78619,-8.27851 -0.40991,-2.04957 2.48861,-2.62927 2.89852,-0.57971 z"
       inkscape:connector-curvature="0" />
    <path
       inkscape:connector-curvature="0"
       d="m 583.26303,311.15885 c -0.58659,0.5115 -1.17319,1.023 -1.75979,1.5345 -0.091,0.0794 -0.18203,0.15874 -0.27305,0.2381 -2.11937,-0.9071 -1.92326,-0.48356 -1.93002,-1.66993 0.10913,-0.60157 0.44693,-1.13862 0.68684,-1.70615 0.0356,-0.081 0.09,-0.22338 0.11493,-0.2893 0.31136,-0.42775 1.12594,-0.68594 1.7965,-0.69993 0.23956,-0.005 0.47912,-0.0105 0.71869,-0.016 0.11145,-0.003 0.22299,-0.002 0.33449,-0.003 0.16406,-1e-5 0.32812,4e-5 0.49218,1.2e-4 0.0463,5e-5 0.0926,4e-5 0.13895,4e-5 0.69908,-0.0654 1.30977,0.26358 1.64073,0.80179 0.1103,0.2458 0.15583,0.50488 0.1804,0.76589 0.003,0.16985 -3.9e-4,0.33983 -0.002,0.50972 -7.7e-4,0.26415 -0.002,0.5283 -0.002,0.79244 -7e-5,0.0442 -5e-5,0.0883 -5e-5,0.13238 2e-5,0.14538 2e-5,0.3218 2e-5,0.47958 0,0.0602 0,0.12045 0,0.18068 -0.90912,0.9349 -0.85098,1.00492 -1.62867,0.99999 -0.30805,-6.8e-4 -0.6161,-2.1e-4 -0.92415,0 -0.26716,1.6e-4 -0.53434,2.8e-4 -0.8015,3.8e-4 -0.0311,2e-5 -0.0622,10e-6 -0.0932,2e-5 -0.32085,0 -0.6417,0 -0.96255,0 -0.17775,0 -0.35551,0 -0.53327,0 -0.0104,0 -0.0208,0 -0.0312,0 -0.37789,-0.40509 -0.75577,-0.81019 -1.13366,-1.21528 0.092,-1.41078 2.38008,-1.29732 2.28808,0.11346 l 0,0 c -0.45268,-0.35155 -1.68056,-0.9076 -1.12317,-0.89655 0.17776,0 0.35551,0 0.53327,0 0.32174,0 0.64347,-10e-6 0.96521,0 0.0264,-10e-6 0.0616,-10e-6 0.0896,-2e-5 0.26689,-10e-5 0.53377,-2.2e-4 0.80066,-3.8e-4 0.31425,-2.2e-4 0.62851,-6.8e-4 0.94276,5e-5 0.77959,0.005 0.35869,0.007 -0.67992,0.9983 0,-0.0602 0,-0.12042 0,-0.18063 0,-0.15874 0,-0.31749 -2e-5,-0.47624 10e-6,-0.0458 -2e-5,-0.0917 5e-5,-0.13748 2.7e-4,-0.26765 6.5e-4,-0.5353 0.002,-0.80295 5.7e-4,-0.0823 -7.6e-4,-0.47667 0.005,-0.38839 -0.002,-0.0169 -0.014,-0.0839 -0.005,-0.10084 0.3657,0.42896 1.51817,0.43346 0.47199,0.42245 -0.0467,0 -0.0935,1e-5 -0.14019,-4e-5 -0.16344,-7e-5 -0.32687,-1.3e-4 -0.49029,-1.2e-4 -0.0917,2e-5 -0.18338,-10e-4 -0.27501,0.002 -0.24134,0.005 -0.48267,0.0109 -0.72402,0.0161 -0.97446,0.0203 -1.08826,0.007 0.34924,-0.73934 -0.0501,0.14233 -0.10664,0.28282 -0.16534,0.42263 -0.12087,0.28531 -0.33053,0.94516 -0.54514,1.00447 0.007,1.22715 0.29027,1.17644 -1.98224,0.26669 0.091,-0.0794 0.18204,-0.15873 0.27305,-0.2381 0.5866,-0.5115 1.1732,-1.023 1.7598,-1.5345 1.14588,-0.99919 2.7664,0.41387 1.62052,1.41306 z"
       id="path3832"
       style="fill:#000000;fill-opacity:1;fill-rule:nonzero;stroke:none" />
    <path
       inkscape:connector-curvature="0"
       d="m 569.35828,317.14225 c 0,-1.07664 0,-2.15327 0,-3.2299 -0.0512,-0.83256 0.35893,-1.60346 0.58902,-2.39527 0.12497,-0.36451 0.16108,-0.74009 0.17419,-1.11818 0.1398,-0.57078 0.5134,-1.02979 0.65911,-1.59661 0.15783,-0.64331 0.55824,-1.23895 0.95982,-1.78861 0.36856,-0.56114 0.71998,-1.12817 1.06811,-1.70131 0.30611,-0.48834 0.74662,-0.90568 1.11383,-1.36275 0.22276,-0.30586 0.51684,-0.56496 0.8026,-0.82576 0.46763,-0.48715 1.09845,-0.78554 1.75673,-1.03249 -0.59691,0.2916 0.81964,-0.63133 0.92631,-0.71013 0.47134,-0.38261 1.07958,-0.59136 1.68763,-0.74872 -0.26715,-0.0642 1.26082,-0.53568 1.36729,-0.60151 0.73837,-0.32907 1.54247,-0.52693 2.34259,-0.70631 0.40434,-0.10505 0.82732,-0.10687 1.2453,-0.1089 0.40991,6.4e-4 0.8198,0.003 1.2297,0.005 0.34683,10e-4 0.69368,10e-4 1.04051,10e-4 0.26152,7e-5 0.52304,4e-5 0.78455,2e-5 0.25365,-2e-5 0.50731,-2e-5 0.76096,-2e-5 0.22333,0 0.44665,0 0.66998,0 0.63611,-0.068 1.20029,0.16555 1.73165,0.4462 0.57888,0.25743 0.71199,0.44364 1.13869,0.9495 0.3353,0.71952 -0.35922,-0.21829 0.082,-0.006 0.44622,0.13865 0.98568,1.59545 0.52938,0.6122 0.63794,0.1798 0.85894,0.71087 0.97795,1.20825 0.20499,0.49137 -0.59845,-0.56617 -0.37007,-0.54073 0.92325,0.43411 1.10855,0.60963 1.17387,1.32577 0.11184,0.60002 -0.2374,-0.19069 0.11292,0.0866 0.44965,0.28977 0.57057,0.75026 0.63643,1.19672 0.033,0.26075 0.0243,0.5238 0.0224,0.78567 -0.11384,-0.7684 0.49696,0.61977 0.56284,0.78959 0.14771,0.34247 0.18695,0.70135 0.1997,1.06404 0.0786,0.59392 -0.2244,-0.12157 0.13348,0.1779 0.41267,0.4657 0.5636,0.98969 0.61472,1.56337 0.0229,0.31146 0.0188,0.62365 0.0171,0.93555 -7.2e-4,0.15454 -0.003,0.30908 -0.004,0.46364 0.20605,1.03018 -0.86683,-1.05941 0.12797,0.13336 0.34664,0.36202 0.51766,0.79025 0.59838,1.25167 0.047,0.27667 0.043,0.55633 0.0421,0.83514 -0.002,0.2549 -0.003,0.50981 -0.004,0.76472 -7.7e-4,0.22536 -7e-4,0.45071 -7.3e-4,0.67607 -10e-6,0.15121 10e-6,0.30242 2e-5,0.45363 0,0.14732 10e-6,0.29465 10e-6,0.44198 0,0.19655 0,0.39309 0,0.58964 0,0.20071 0,0.40141 0,0.60211 0,0.24199 0,0.48397 0,0.72595 0,0.17558 0,0.35116 0,0.52675 0,0.0842 0,0.16842 0,0.25264 0,0.10368 0,0.20737 0,0.31105 0.0654,0.7082 -0.34682,-0.49648 -0.58954,-0.64235 0.0354,0.007 0.1554,0.009 0.15987,0.009 1.62021,-0.0277 1.66516,1.97027 0.045,1.99799 l 0,0 c -0.2095,-5.5e-4 -0.41884,-0.0108 -0.62562,-0.0429 -0.71712,-0.13087 -1.35038,-0.62847 -1.28142,-1.32204 0,-0.10368 0,-0.20737 0,-0.31105 0,-0.0842 0,-0.16842 0,-0.25264 0,-0.17559 0,-0.35117 0,-0.52675 0,-0.24198 0,-0.48397 0,-0.72595 0,-0.2007 0,-0.40141 0,-0.60211 0,-0.19654 0,-0.39307 0,-0.58961 0,-0.14731 -10e-6,-0.29462 -2e-5,-0.44193 0,-0.15134 -2e-5,-0.30267 -10e-6,-0.45399 4e-5,-0.22725 -9e-5,-0.45449 7.4e-4,-0.68173 7.8e-4,-0.25501 0.002,-0.51003 0.004,-0.76504 6.7e-4,-0.18057 0.008,-0.36194 -0.0183,-0.54152 -0.022,-0.14784 0.0997,-0.0327 -0.18716,-0.36761 -0.31762,-0.38558 -0.63136,-0.82214 -0.56301,-1.30977 5.1e-4,-0.15615 0.003,-0.31229 0.004,-0.46844 0.002,-0.26022 0.006,-0.52069 -0.0111,-0.78063 -0.008,-0.1037 -0.14428,-0.51173 0.0319,-0.31176 -0.4585,-0.41833 -0.83285,-0.90605 -0.78527,-1.51651 -0.006,-0.18857 0.005,-0.30095 -0.0827,-0.48918 -0.18948,-0.50501 -0.60383,-0.8843 -0.6808,-1.43547 0.002,-0.17672 0.008,-0.35412 -0.005,-0.5305 -0.0531,-0.40469 0.5631,0.50611 0.055,0.005 -0.43947,-0.37335 -0.83867,-0.80992 -0.8151,-1.38427 -0.0239,-0.35874 1.52347,0.68533 0.76489,0.50247 -0.7841,-0.11088 -1.17945,-0.3352 -1.53173,-1.04859 -0.0226,-0.16664 0.96714,0.55238 0.18579,0.16601 -0.45898,-0.22868 -1.59363,-1.44132 -0.56646,-0.62996 -0.53076,-0.26519 -0.98673,-0.63538 -1.1254,-1.0818 0.90826,0.86187 0.21159,0.23276 -0.16065,0.10522 -1.20085,-0.63424 0.81966,-0.0222 -0.54435,-0.15711 -0.22331,0 -0.44662,0 -0.66994,0 -0.2536,10e-6 -0.5072,10e-6 -0.7608,3e-5 -0.26202,2e-5 -0.52404,5e-5 -0.78605,-2e-5 -0.34963,-1.8e-4 -0.69926,-3.1e-4 -1.04888,-10e-4 -0.40307,-0.001 -0.80614,-0.004 -1.20921,-0.005 -0.23495,6.8e-4 -0.46271,-0.0154 -0.68682,0.0463 -0.6381,0.14227 -1.28393,0.29169 -1.87355,0.55208 -0.59952,0.24231 -1.21414,0.40358 -1.76299,0.73821 -0.30831,0.0762 -0.6233,0.15272 -0.85051,0.35649 -0.48714,0.35864 -1.00218,0.68357 -1.50744,1.0225 -0.3899,0.14286 -0.73479,0.2726 -0.99873,0.57503 -0.207,0.1887 -0.42745,0.36782 -0.58296,0.59241 -0.31949,0.39678 -0.7024,0.75067 -0.96555,1.1517 -0.3924,0.64414 -0.78659,1.28099 -1.21274,1.9078 -0.29401,0.23095 -0.49251,0.7684 -0.60742,1.09782 -0.0267,0.0983 -0.47332,1.58448 -0.60098,1.21236 -0.0219,0.52081 -0.0782,1.04018 -0.24372,1.54334 -0.18522,0.63168 -0.5276,1.24923 -0.51818,1.90218 0,1.07663 0,2.15326 0,3.2299 0,1.41306 -2.29176,1.41306 -2.29176,0 z"
       id="path3834"
       style="fill:#000000;fill-opacity:1;fill-rule:nonzero;stroke:none" />
    <path
       inkscape:connector-curvature="0"
       d="m 562.55791,317.87371 c 3.5074,0 7.0148,0 10.5222,0 6.29838,-0.0543 12.59924,0.1054 18.88272,0.4833 3.51686,0.23841 7.02746,0.54209 10.54546,0.76787 0.56211,0.0301 1.12379,0.0732 1.6868,0.0893 -0.0131,-9e-5 -0.0261,-1.8e-4 -0.0392,-2.7e-4 -0.0889,0.65759 -0.17773,1.31517 -0.26659,1.97275 -1.60776,-0.17696 -1.32077,-2.1596 0.287,-1.98264 l 0,0 c 0.0486,2.02978 0.81552,2.00019 -0.0291,2.0081 -0.60318,-0.0178 -1.20508,-0.0598 -1.8072,-0.0943 -3.51459,-0.22568 -7.02186,-0.52829 -10.53526,-0.76723 -6.23074,-0.37651 -12.4791,-0.53157 -18.72465,-0.47854 -3.5074,0 -7.0148,0 -10.52221,0 -1.62052,0 -1.62052,-1.99837 0,-1.99837 z"
       id="path3836"
       style="fill:#000000;fill-opacity:1;fill-rule:nonzero;stroke:none" />
    <path
       inkscape:connector-curvature="0"
       d="m 564.77475,319.35097 c -0.17171,1.98804 -1.04143,3.85954 -1.68652,5.75653 -0.18302,0.57026 -0.32909,1.14841 -0.46955,1.72745 -0.336,1.38235 -2.57796,0.96801 -2.24196,-0.41434 l 0,0 c 0.15359,-0.63072 0.31329,-1.26046 0.51433,-1.88131 0.58312,-1.71421 1.3608,-3.40374 1.59193,-5.18833 0,-1.41306 2.29177,-1.41306 2.29177,0 z"
       id="path3838"
       style="fill:#000000;fill-opacity:1;fill-rule:nonzero;stroke:none" />
    <path
       inkscape:connector-curvature="0"
       d="m 572.47113,316.9509 c 0.45624,1.55635 0.0684,3.12875 -0.41293,4.63899 -0.43209,1.4386 -1.16097,2.79168 -1.65916,4.21157 -0.11126,0.33585 -0.20377,0.67608 -0.27655,1.01977 -0.29778,1.389 -2.55052,1.02179 -2.25275,-0.36721 l 0,0 c 0.0906,-0.41869 0.20161,-0.8338 0.33975,-1.2427 0.50101,-1.40167 1.19954,-2.7449 1.64258,-4.16261 0.38304,-1.17 0.73953,-2.40159 0.39572,-3.61313 -0.39303,-1.37087 1.83031,-1.85555 2.22334,-0.48468 z"
       id="path3840"
       style="fill:#000000;fill-opacity:1;fill-rule:nonzero;stroke:none" />
    <path
       inkscape:connector-curvature="0"
       d="m 579.28926,319.27129 c -0.15937,1.85567 -0.64323,3.64513 -1.23407,5.42649 -0.38118,1.41902 -0.83127,2.80954 -1.5623,4.12367 -0.71025,1.27012 -2.77017,0.39427 -2.05992,-0.87585 l 0,0 c 0.68068,-1.20927 1.05852,-2.49812 1.42073,-3.8032 0.53185,-1.60239 0.97635,-3.20361 1.1438,-4.87111 0,-1.41306 2.29176,-1.41306 2.29176,0 z"
       id="path3842"
       style="fill:#000000;fill-opacity:1;fill-rule:nonzero;stroke:none" />
    <path
       inkscape:connector-curvature="0"
       d="m 588.45632,321.26966 c -0.0598,1.74672 -0.26289,3.51813 -0.67007,5.23159 -0.25029,1.07606 -0.62728,2.09234 -1.29064,3.02663 -0.85901,1.1982 -2.8023,0.1389 -1.94329,-1.05931 l 0,0 c 0.53149,-0.73114 0.78721,-1.53759 0.99236,-2.38328 0.39641,-1.57108 0.54739,-3.2122 0.61988,-4.81563 0,-1.41306 2.29176,-1.41306 2.29176,0 z"
       id="path3844"
       style="fill:#000000;fill-opacity:1;fill-rule:nonzero;stroke:none" />
    <path
       inkscape:connector-curvature="0"
       d="m 596.09554,320.60354 c -0.17831,1.65353 -0.66672,3.27318 -1.22917,4.85589 -0.39865,1.04937 -0.71686,2.12077 -0.99838,3.19818 -0.0149,0.0598 -0.0298,0.11958 -0.0447,0.17938 -0.34421,1.38082 -2.58368,0.95636 -2.23948,-0.42446 l 0,0 c 0.0166,-0.0664 0.0332,-0.13282 0.0497,-0.19922 0.29533,-1.1284 0.62879,-2.25049 1.04533,-3.3499 0.50258,-1.3889 0.91691,-2.8136 1.12486,-4.25987 0,-1.41306 2.29177,-1.41306 2.29177,0 z"
       id="path3846"
       style="fill:#000000;fill-opacity:1;fill-rule:nonzero;stroke:none" />
    <path
       inkscape:connector-curvature="0"
       d="m 601.51212,321.07371 c 0.0971,2.06447 -0.35069,4.12417 -0.57541,6.17858 -0.11002,1.10111 -0.06,0.58026 -0.15126,1.56244 -0.13089,1.40845 -2.41517,1.24704 -2.28428,-0.1614 l 0,0 c 0.0929,-0.99978 0.042,-0.46942 0.15414,-1.59096 0.20431,-1.86439 0.55818,-3.7262 0.60955,-5.59675 -0.31781,-1.38562 1.92945,-1.77753 2.24726,-0.39191 z"
       id="path3848"
       style="fill:#000000;fill-opacity:1;fill-rule:nonzero;stroke:none" />
    <path
       style="fill:#000000;fill-opacity:1;fill-rule:nonzero;stroke:none"
       id="path3850"
       d="m 255.76663,400.91363 c -1.30537,-1.17813 -2.11136,-2.66211 -2.63577,-4.316 -0.68588,-1.71975 -1.14874,-3.51738 -1.71831,-5.2775 -1.43624,-3.37326 -2.96684,-6.70377 -4.35346,-10.09929 -2.43323,-5.92861 -4.73889,-11.90379 -6.86359,-17.95065 -2.92062,-8.07528 -5.71976,-16.19161 -8.25945,-24.39487 -2.71892,-8.68545 -4.15521,-17.68305 -5.32781,-26.68515 -1.44449,-10.12786 -1.02211,-20.30063 0.005,-30.43391 1.20838,-10.22617 3.92834,-20.1296 7.52679,-29.74862 2.86661,-7.18862 6.19814,-14.19055 10.36148,-20.71884 3.20974,-4.52423 7.32548,-8.27773 11.2586,-12.15363 1.87855,-1.63848 3.64956,-3.39363 5.37104,-5.19473 0.36129,-0.67121 0.67612,-1.2637 1.12663,-1.88896 0.50987,-0.36988 1.08873,-0.52545 1.70759,-0.53628 1.2882,0.0479 0.63949,0.53721 0.17845,2.97621 -0.0465,0.24621 -0.49967,0.0425 -0.75018,0.0476 0.0729,0.005 0.26687,-0.0394 0.2187,0.0156 -0.12829,0.14639 -3.87254,1.89368 -4.2548,2.11396 -3.10001,1.85894 -6.21107,3.69905 -9.2945,5.58549 -1.24962,0.65166 -2.45914,1.41156 -3.49464,2.37428 -0.269,0.26945 0.051,-0.008 0.0248,-0.0721 -0.91688,-2.2438 -1.87361,-2.17366 -0.83331,-2.17828 0.0587,-3.1e-4 0.23451,-0.007 0.17614,-9.4e-4 -0.18924,0.0205 -0.66959,0.23519 -0.56605,0.0755 0.4143,-0.6391 1.41084,-1.27843 1.96604,-1.73283 2.97526,-2.44818 6.09466,-4.71313 9.14217,-7.06938 1.5107,-1.16303 3.08108,-2.28316 4.18679,-3.86142 0.32157,-0.54963 -0.12933,0.15526 0.019,0.32367 0.469,0.53264 1.0655,0.93776 1.59824,1.40664 -0.38706,-3.51757 -1.04253,-3.86345 1.43923,-1.02119 -0.1102,1.57908 -0.11917,3.16297 -0.1343,4.74511 0.0464,3.56756 -0.6703,7.08043 -1.19542,10.59311 -0.29545,2.15849 -0.55816,4.32187 -0.76558,6.49069 -0.008,0.0915 -0.0162,0.183 -0.0243,0.2745 -0.18429,2.08202 -3.1287,1.8214 -2.94441,-0.26061 l 0,0 c 0.009,-0.0985 0.0175,-0.197 0.0262,-0.29549 0.21268,-2.22082 0.4812,-4.43615 0.78465,-6.64632 0.50529,-3.37709 1.20471,-6.75464 1.16304,-10.18423 0.0158,-1.64682 0.0264,-3.29542 0.14254,-4.93897 5.24433,3.65988 -2.18689,-0.91503 0.95111,-1.65953 1.9907,1.40266 2.40232,1.20365 1.34733,2.88794 -1.29574,1.79844 -3.0156,3.17244 -4.7862,4.48467 -3.02822,2.34082 -6.12749,4.59145 -9.08411,7.02333 -1.01871,0.82372 -2.04769,2.22768 -3.42897,2.32167 -1.57639,0.007 -2.37884,-2.09638 -1.20665,-2.88022 1.18484,-1.08351 2.52879,-1.98426 3.95407,-2.72106 3.1077,-1.90107 6.2429,-3.75606 9.36768,-5.62881 1.73683,-0.98992 3.5304,-2.00921 5.47581,-2.52046 1.26665,0.0175 -0.65577,2.94831 0.60438,2.88787 0.0452,-0.0372 0.16121,-0.10391 0.22088,-0.18201 0.96185,-1.80594 -0.59526,1.66279 -0.92137,1.69388 -1.74199,1.82203 -3.53145,3.60076 -5.43296,5.2576 -3.77593,3.72098 -7.7316,7.3193 -10.84216,11.63923 -4.06041,6.3483 -7.28465,13.17358 -10.08451,20.16446 -3.51613,9.37933 -6.16762,19.03816 -7.35419,29.01068 -1.0081,9.90688 -1.42904,19.8514 -0.0148,29.75374 1.14879,8.83545 2.55333,17.66759 5.22033,26.19252 2.52813,8.16807 5.31703,16.24877 8.2246,24.28936 2.10717,6.00103 4.39682,11.92982 6.81137,17.81306 1.41378,3.46432 2.99228,6.85483 4.42957,10.30777 0.57119,1.77072 1.03995,3.57641 1.72766,5.30694 0.36656,1.20572 0.93685,2.26136 1.9038,3.10513 1.47796,1.47796 -0.61219,3.56811 -2.09015,2.09015 z"
       inkscape:connector-curvature="0" />
    <path
       style="fill:#000000;fill-opacity:1;fill-rule:nonzero;stroke:none"
       id="path3852"
       d="m 709.53445,389.80267 c 2.10242,-0.69406 3.75672,-2.11782 5.31882,-3.62707 2.41843,-2.43523 4.0884,-5.37567 5.73249,-8.34779 2.56308,-4.87903 4.538,-10.03961 6.52084,-15.17345 2.91274,-8.07493 5.17866,-16.37484 7.03668,-24.75074 1.74729,-8.37279 2.57803,-16.86558 3.03442,-25.39262 0.54901,-8.94704 0.11245,-17.89327 -0.51306,-26.82051 -0.67315,-7.23821 -1.80973,-14.47116 -3.63228,-21.51218 -1.65851,-5.71627 -3.7012,-11.31 -5.97499,-16.80745 -1.71008,-4.19683 -3.79408,-8.21381 -5.94673,-12.19519 -1.76196,-3.07736 -3.29203,-6.27572 -5.06454,-9.34843 -1.16142,-1.4887 -1.91619,-3.21928 -2.85832,-4.83053 -0.6202,-0.72347 -0.58218,-1.865 -1.19941,-2.54601 -0.37274,-0.54741 -0.67368,-1.13994 -0.92658,-1.75099 -0.75597,-1.25088 2.7568,-1.86157 2.81548,-0.21101 0.0128,1.80728 0.019,3.60875 -0.13812,5.40963 -0.31355,3.6953 -0.76035,7.37084 -1.21549,11.05085 -0.30718,2.50708 -0.49204,5.0268 -0.61478,7.549 -0.0175,0.23372 -0.0326,0.948 -0.0349,1.06945 -0.9836,-0.0577 -1.97926,-0.009 -2.95081,-0.17314 -0.10669,-0.018 0.002,-0.21638 0.002,-0.32458 0.004,-0.93291 0.003,-1.86585 0.003,-2.79877 5.1e-4,-2.32591 3.3e-4,-4.65182 2.7e-4,-6.97773 -0.17106,-2.2294 0.27892,-4.4031 0.61007,-6.59196 0.25377,-1.77701 0.3199,-3.57263 0.36246,-5.36486 0.0127,-0.75067 0.0242,-1.50153 0.018,-2.25234 -0.0524,-0.74259 0.0186,-1.4199 0.18852,-2.144 0.30741,-0.64036 0.53487,-1.31487 0.75107,-1.99031 0.0256,-0.0856 0.0528,-0.17074 0.0791,-0.25613 0.56371,-0.38966 1.05055,-0.92553 1.69112,-1.16897 0.82589,-0.31387 3.58837,2.32429 4.14082,2.78153 3.01067,2.74011 5.72,5.79233 8.43911,8.81704 1.97757,2.27861 4.02656,4.48789 6.38461,6.37612 1.62777,1.31115 -0.22647,3.61316 -1.85424,2.30201 l 0,0 c -2.47063,-2.0002 -4.65667,-4.29329 -6.72864,-6.702 -2.62278,-2.91766 -5.23531,-5.86117 -8.12693,-8.51717 -3.39693,-2.81822 0.67146,0.57885 -1.82994,-1.56327 -0.98662,-0.84491 -0.56826,-0.36734 0.77555,-1.71131 -0.0443,0.18357 -0.0973,0.36471 -0.15572,0.54434 -0.21955,0.68423 -0.44015,1.37687 -0.76095,2.02055 -0.092,-0.25286 -0.0209,0.96599 -0.0377,1.18749 0.006,0.78237 -0.005,1.5648 -0.0187,2.34703 -0.0461,1.91679 -0.12065,3.8369 -0.39497,5.73701 -0.3101,2.04416 -0.74893,4.0659 -0.57672,6.14912 6e-5,2.32633 2.4e-4,4.65267 -2.7e-4,6.979 -3.1e-4,0.78414 -1.5e-4,1.56827 -0.002,2.35241 -6.4e-4,0.26827 0.25854,0.74804 -0.004,0.8048 -0.96808,0.20959 -1.97094,0.1996 -2.95641,0.2994 -0.0105,-0.45841 0.0158,-0.91664 0.034,-1.37464 0.12665,-2.59539 0.31736,-5.18821 0.63364,-7.76805 0.45149,-3.64854 0.89616,-7.29225 1.20533,-10.95619 0.16126,-1.68216 0.12566,-3.36786 0.12712,-5.05685 -0.0195,-1.20774 2.88897,-1.10377 2.87321,-0.99729 0.1568,0.37055 0.33101,0.73371 0.53993,1.07824 0.65166,0.89642 0.89292,1.93402 1.42909,2.89459 0.8949,1.63225 1.71861,3.29786 2.84199,4.80185 1.78517,3.09675 3.3309,6.3172 5.10408,9.41923 2.20109,4.0712 4.32885,8.18057 6.07816,12.47158 2.32504,5.62508 4.41532,11.34831 6.10562,17.19874 1.85508,7.21865 3.04182,14.62369 3.7187,22.04378 0.63372,9.04865 1.07149,18.11676 0.51605,27.18532 -0.46661,8.68918 -1.3168,17.34376 -3.10045,25.8751 -1.89346,8.51949 -4.19534,16.96307 -7.16495,25.17506 -2.03154,5.25929 -4.0585,10.54458 -6.69167,15.53923 -1.78704,3.23041 -3.63316,6.41051 -6.26924,9.04671 -1.94045,1.86124 -4.03197,3.56821 -6.65171,4.36499 -2.02774,0.50693 -2.74466,-2.36073 -0.71691,-2.86767 z"
       inkscape:connector-curvature="0" />
    <path
       style="fill:#000000;fill-opacity:1;fill-rule:nonzero;stroke:none"
       id="path3854"
       d="m 762.22458,249.76952 c 0.54262,3.75654 1.03368,7.51777 1.37291,11.29954 0.34174,4.21118 0.44515,8.43635 0.50189,12.65942 0.0154,1.66532 0.0248,3.33078 0.0141,4.99616 -0.53215,1.482 -0.0357,0.82659 -1.83511,1.64804 -2.08759,-0.10344 -1.9413,-3.05574 0.14629,-2.9523 l 0,0 c -1.32996,0.79806 -1.07704,0.25226 -1.26704,1.28508 0.0107,-1.64577 0.001,-3.29162 -0.0139,-4.93733 -0.0556,-4.14829 -0.15604,-8.29868 -0.49037,-12.4354 -0.32868,-3.67602 -0.80872,-7.3309 -1.32729,-10.98351 -0.40991,-2.04956 2.48861,-2.62927 2.89852,-0.5797 z"
       inkscape:connector-curvature="0" />
    <path
       style="fill:#000000;fill-opacity:1;fill-rule:nonzero;stroke:none"
       id="path3856"
       d="m 747.96144,250.8743 c 2.6352,-0.62901 5.35626,-0.65516 8.04035,-0.91195 4.74394,-0.49835 9.46334,-1.17317 14.21709,-1.58904 1.96489,-0.1527 3.93076,-0.30609 5.90024,-0.38689 0.24379,-0.007 0.13473,-0.005 0.32716,-0.008 2.08998,-0.0272 2.12842,2.92848 0.0385,2.95567 l 0,0 c -0.0249,2.5e-4 -0.0498,5e-4 -0.0747,7.6e-4 -0.0567,0.002 -0.11345,0.003 -0.17017,0.005 -1.9239,0.0783 -3.84416,0.22996 -5.7636,0.37814 -4.74632,0.41445 -9.4578,1.09258 -14.19465,1.58699 -2.53726,0.23986 -5.10885,0.26614 -7.60324,0.83697 -2.02775,0.50693 -2.74466,-2.36073 -0.71692,-2.86767 z"
       inkscape:connector-curvature="0" />
    <path
       style="fill:#000000;fill-opacity:1;fill-rule:nonzero;stroke:none"
       id="path3862"
       d="m 772.32306,276.31406 c 0,1.62201 0,3.24402 0,4.86603 0,0.95747 0,1.91495 0,2.87243 0,1.04527 -1.69615,1.04527 -1.69615,0 l 0,0 c 0,-0.95748 0,-1.91496 0,-2.87243 0,-1.62201 0,-3.24402 0,-4.86603 0,-1.04527 1.69615,-1.04527 1.69615,0 z"
       inkscape:connector-curvature="0" />
    <path
       style="fill:#000000;fill-opacity:1;fill-rule:nonzero;stroke:none"
       id="path3866"
       d="m 771.79998,269.67013 c 0.18747,0.63382 0.31904,1.27919 0.44706,1.92382 0.0263,0.13662 0.0535,0.27317 0.0741,0.41056 0.002,0.0155 0.003,0.031 0.005,0.0464 0.0689,1.04355 -1.62449,1.12843 -1.69336,0.0849 l 0,0 c 10e-4,0.013 0.003,0.0259 0.004,0.0388 -0.0144,-0.0837 -0.0405,-0.23202 -0.0606,-0.32868 -0.12083,-0.60888 -0.24396,-1.2187 -0.42124,-1.81731 -0.29088,-1.01407 1.35462,-1.37259 1.64551,-0.35853 z"
       inkscape:connector-curvature="0" />
    <path
       style="fill:#000000;fill-opacity:1;fill-rule:nonzero;stroke:none"
       id="path3868"
       d="m 776.88845,275.09036 c 0.3196,1.35642 0.39152,2.74388 0.45871,4.12358 0.0477,1.17533 0.0634,2.35141 0.0681,3.5274 0,0.23354 10e-4,0.4671 -0.003,0.70063 -0.47025,-0.20185 -0.99767,-0.32431 -1.41077,-0.60554 -0.0845,-0.0576 0.12404,-0.15281 0.17855,-0.23332 0.0542,-0.0801 0.0996,-0.16448 0.14716,-0.24774 0.26466,-0.46375 0.47663,-0.94285 0.69885,-1.423 0.46051,-1.44528 1.23573,-2.78008 1.9587,-4.13247 0.46154,-0.6755 0.96687,-1.80745 2.11088,-1.67343 0.2391,0.028 0.43918,0.17416 0.65878,0.26123 0.92217,0.87913 1.5262,2.00679 2.08041,3.08909 0.39959,1.12818 0.92734,2.1811 1.60385,3.19845 0.40073,0.53254 0.95844,0.90749 1.70033,0.73607 0.11722,-0.0455 0.23444,-0.091 0.35166,-0.13645 1.12006,-0.37379 1.72659,1.00671 0.60653,1.3805 l 0,0 c -0.23738,0.0729 -0.47476,0.1457 -0.71215,0.21855 -1.55974,0.13948 -2.55,-0.31491 -3.4139,-1.45745 -0.70703,-1.06326 -1.27562,-2.16164 -1.68739,-3.34147 -0.42431,-0.84416 -0.95317,-1.64121 -1.45589,-2.44909 0.1873,-0.0292 0.25722,-0.027 0.44199,-0.14857 0.0182,-0.012 0.009,-0.0733 -0.007,-0.0593 -0.31976,0.27949 -0.48731,0.68873 -0.7408,1.0065 -0.71131,1.32879 -1.47052,2.64024 -1.92299,4.06083 -0.0911,0.19689 -1.05,2.19273 -1.20238,2.19171 -0.56921,-0.004 -1.12012,-0.17728 -1.68019,-0.26592 0.004,-0.22152 0.002,-0.4431 0.002,-0.66464 -0.005,-1.1569 -0.02,-2.31388 -0.0666,-3.47013 -0.0619,-1.28014 -0.12586,-2.56707 -0.40958,-3.82752 -0.29089,-1.01406 1.35463,-1.37259 1.64551,-0.35852 z"
       inkscape:connector-curvature="0" />
    <path
       inkscape:connector-curvature="0"
       d="m 788.08799,332.47659 c 0,1.62201 0,3.24402 0,4.86603 0,0.95747 0,1.91495 0,2.87243 0,1.04527 -1.69615,1.04527 -1.69615,0 l 0,0 c 0,-0.95748 0,-1.91496 0,-2.87243 0,-1.62201 0,-3.24402 0,-4.86603 0,-1.04527 1.69615,-1.04527 1.69615,0 z"
       id="path3870"
       style="fill:#000000;fill-opacity:1;fill-rule:nonzero;stroke:none" />
    <path
       inkscape:connector-curvature="0"
       d="m 787.56491,325.83266 c 0.18747,0.63382 0.31904,1.27919 0.44706,1.92382 0.0263,0.13662 0.0535,0.27317 0.0741,0.41056 0.002,0.0155 0.003,0.031 0.005,0.0464 0.0689,1.04355 -1.62449,1.12843 -1.69336,0.0849 l 0,0 c 0.001,0.013 0.003,0.0259 0.004,0.0388 -0.0144,-0.0837 -0.0405,-0.23202 -0.0606,-0.32868 -0.12083,-0.60888 -0.24396,-1.2187 -0.42124,-1.81731 -0.29088,-1.01407 1.35462,-1.37259 1.64551,-0.35853 z"
       id="path3872"
       style="fill:#000000;fill-opacity:1;fill-rule:nonzero;stroke:none" />
    <path
       inkscape:connector-curvature="0"
       d="m 792.65338,331.25289 c 0.3196,1.35642 0.39152,2.74388 0.45871,4.12358 0.0477,1.17533 0.0634,2.35141 0.0681,3.5274 0,0.23354 10e-4,0.4671 -0.003,0.70063 -0.47025,-0.20185 -0.99767,-0.32431 -1.41077,-0.60554 -0.0845,-0.0576 0.12404,-0.15281 0.17855,-0.23332 0.0542,-0.0801 0.0996,-0.16448 0.14716,-0.24774 0.26466,-0.46375 0.47663,-0.94285 0.69885,-1.423 0.46051,-1.44528 1.23573,-2.78008 1.9587,-4.13247 0.46154,-0.6755 0.96687,-1.80745 2.11088,-1.67343 0.2391,0.028 0.43918,0.17416 0.65878,0.26123 0.92217,0.87913 1.5262,2.00679 2.08041,3.08909 0.39959,1.12818 0.92734,2.1811 1.60385,3.19845 0.40073,0.53254 0.95844,0.90749 1.70033,0.73607 0.11722,-0.0455 0.23444,-0.091 0.35166,-0.13645 1.12006,-0.37379 1.72659,1.00671 0.60653,1.3805 l 0,0 c -0.23738,0.0729 -0.47476,0.1457 -0.71215,0.21855 -1.55974,0.13948 -2.55,-0.31491 -3.4139,-1.45745 -0.70703,-1.06326 -1.27562,-2.16164 -1.68739,-3.34147 -0.42431,-0.84416 -0.95317,-1.64121 -1.45589,-2.44909 0.1873,-0.0292 0.25722,-0.027 0.44199,-0.14857 0.0182,-0.012 0.009,-0.0733 -0.007,-0.0593 -0.31976,0.27949 -0.48731,0.68873 -0.7408,1.0065 -0.71131,1.32879 -1.47052,2.64024 -1.92299,4.06083 -0.0911,0.19689 -1.05,2.19273 -1.20238,2.19171 -0.56921,-0.004 -1.12012,-0.17728 -1.68019,-0.26592 0.004,-0.22152 0.002,-0.4431 0.002,-0.66464 -0.005,-1.1569 -0.02,-2.31388 -0.0666,-3.47013 -0.0619,-1.28014 -0.12586,-2.56707 -0.40958,-3.82752 -0.29089,-1.01406 1.35463,-1.37259 1.64551,-0.35852 z"
       id="path3874"
       style="fill:#000000;fill-opacity:1;fill-rule:nonzero;stroke:none" />
    <path
       style="fill:#000000;fill-opacity:1;fill-rule:nonzero;stroke:none"
       id="path3884"
       d="m 768.42694,307.18429 c -2.68875,0.96816 -4.48291,3.34952 -5.98977,5.65063 -2.0278,3.73304 -3.76224,7.89875 -3.40485,12.21518 0.34776,1.40864 1.29807,4.54449 3.27829,3.59155 2.25401,-1.44334 3.26941,-3.93266 4.11555,-6.35627 0.61263,-1.88965 0.20422,-3.76797 3.57515,-1.60688 0.11418,0.0732 -0.20735,2.46575 -0.21451,2.52465 -0.23663,2.12311 -0.64698,4.55036 0.85965,6.27393 1.94369,1.30801 3.91236,0.70381 5.82731,-0.27652 2.56717,-1.61532 3.95273,-4.08366 5.09782,-6.79619 1.17969,-3.11686 1.11333,-6.28008 0.43222,-9.4859 -0.72357,-2.84717 -2.0348,-5.47062 -3.63229,-7.91762 0.60429,0.11222 -1.4331,-1.4785 -0.84192,-1.146 0.20675,0.11628 0.32284,0.4551 0.55954,0.43966 0.59954,-0.0391 1.13605,-0.39157 1.70407,-0.58735 -0.89228,1.89013 -3.56532,0.62826 -2.67305,-1.26187 l 0,0 c 0.62705,-0.32082 1.18548,-0.85216 1.88114,-0.96244 0.72891,-0.11556 1.49634,1.51389 1.84714,1.90481 1.79305,2.7589 3.2551,5.7196 4.0497,8.93052 0.7727,3.8041 0.81976,7.56563 -0.60678,11.24391 -1.44057,3.36016 -3.27493,6.36971 -6.51012,8.2895 -3.41684,1.63891 -6.41502,2.04928 -9.47929,-0.5743 -0.28759,-0.40025 -0.62986,-0.7664 -0.86277,-1.20075 -1.17422,-2.18984 -0.83067,-4.87007 -0.58649,-7.23169 0.0668,-0.54442 0.186,-1.63886 0.23756,-1.65339 3.94374,-1.11118 2.68361,-0.1556 2.12424,2.07512 -1.21409,3.42667 -2.82688,6.78724 -6.37201,8.28276 -0.60344,0.0609 -1.20807,0.25442 -1.81031,0.18269 -3.10227,-0.36953 -4.40336,-3.92017 -4.94965,-6.4919 -0.0373,-0.73245 -0.14615,-1.46474 -0.11202,-2.19735 0.1951,-4.18906 2.07316,-8.21912 4.00534,-11.84471 1.95595,-2.90387 4.26396,-5.7811 7.7342,-6.88144 2.02774,-0.50694 2.74466,2.36073 0.71691,2.86766 z"
       inkscape:connector-curvature="0" />
    <path
       inkscape:connector-curvature="0"
       d="m 173.01064,252.72545 c 0.54262,3.75654 1.03368,7.51777 1.37291,11.29954 0.34174,4.21118 0.44515,8.43635 0.50189,12.65942 0.0154,1.66532 0.0248,3.33078 0.0141,4.99616 -0.53215,1.482 -0.0357,0.82659 -1.83511,1.64804 -2.08759,-0.10344 -1.9413,-3.05574 0.14629,-2.9523 l 0,0 c -1.32996,0.79806 -1.07704,0.25226 -1.26704,1.28508 0.0107,-1.64577 0.001,-3.29162 -0.0139,-4.93733 -0.0556,-4.14829 -0.15604,-8.29868 -0.49037,-12.4354 -0.32868,-3.67602 -0.80872,-7.3309 -1.32729,-10.98351 -0.40991,-2.04956 2.48861,-2.62927 2.89852,-0.5797 z"
       id="path3886"
       style="fill:#000000;fill-opacity:1;fill-rule:nonzero;stroke:none" />
    <path
       inkscape:connector-curvature="0"
       d="m 158.7475,253.83023 c 2.6352,-0.62901 5.35626,-0.65516 8.04035,-0.91195 4.74394,-0.49835 9.46334,-1.17317 14.21709,-1.58904 1.96489,-0.1527 3.93076,-0.30609 5.90024,-0.38689 0.24379,-0.007 0.13473,-0.005 0.32716,-0.008 2.08998,-0.0272 2.12842,2.92848 0.0385,2.95567 l 0,0 c -0.0249,2.5e-4 -0.0498,5e-4 -0.0747,7.6e-4 -0.0567,0.002 -0.11345,0.003 -0.17017,0.005 -1.9239,0.0783 -3.84416,0.22996 -5.7636,0.37814 -4.74632,0.41445 -9.4578,1.09258 -14.19465,1.58699 -2.53726,0.23986 -5.10885,0.26614 -7.60324,0.83697 -2.02775,0.50693 -2.74466,-2.36073 -0.71692,-2.86767 z"
       id="path3888"
       style="fill:#000000;fill-opacity:1;fill-rule:nonzero;stroke:none" />
    <path
       inkscape:connector-curvature="0"
       d="m 175.27176,311.12554 c -2.68875,0.96816 -4.48291,3.34952 -5.98977,5.65063 -2.0278,3.73304 -3.76224,7.89875 -3.40485,12.21518 0.34776,1.40864 1.29807,4.54449 3.27829,3.59155 2.25401,-1.44334 3.26941,-3.93266 4.11555,-6.35627 0.61263,-1.88965 0.20422,-3.76797 3.57515,-1.60688 0.11418,0.0732 -0.20735,2.46575 -0.21451,2.52465 -0.23663,2.12311 -0.64698,4.55036 0.85965,6.27393 1.94369,1.30801 3.91236,0.70381 5.82731,-0.27652 2.56717,-1.61532 3.95273,-4.08366 5.09782,-6.79619 1.17969,-3.11686 1.11333,-6.28008 0.43222,-9.4859 -0.72357,-2.84717 -2.0348,-5.47062 -3.63229,-7.91762 0.60429,0.11222 -1.4331,-1.4785 -0.84192,-1.146 0.20675,0.11628 0.32284,0.4551 0.55954,0.43966 0.59954,-0.0391 1.13605,-0.39157 1.70407,-0.58735 -0.89228,1.89013 -3.56532,0.62826 -2.67305,-1.26187 l 0,0 c 0.62705,-0.32082 1.18548,-0.85216 1.88114,-0.96244 0.72891,-0.11556 1.49634,1.51389 1.84714,1.90481 1.79305,2.7589 3.2551,5.7196 4.0497,8.93052 0.7727,3.8041 0.81976,7.56563 -0.60678,11.24391 -1.44057,3.36016 -3.27493,6.36971 -6.51012,8.2895 -3.41684,1.63891 -6.41502,2.04928 -9.47929,-0.5743 -0.28759,-0.40025 -0.62986,-0.7664 -0.86277,-1.20075 -1.17422,-2.18984 -0.83067,-4.87007 -0.58649,-7.23169 0.0668,-0.54442 0.186,-1.63886 0.23756,-1.65339 3.94374,-1.11118 2.68361,-0.1556 2.12424,2.07512 -1.21409,3.42667 -2.82688,6.78724 -6.37201,8.28276 -0.60344,0.0609 -1.20807,0.25442 -1.81031,0.18269 -3.10227,-0.36953 -4.40336,-3.92017 -4.94965,-6.4919 -0.0373,-0.73245 -0.14615,-1.46474 -0.11202,-2.19735 0.1951,-4.18906 2.07316,-8.21912 4.00534,-11.84471 1.95595,-2.90387 4.26396,-5.7811 7.7342,-6.88144 2.02774,-0.50694 2.74466,2.36073 0.71691,2.86766 z"
       id="path3890"
       style="fill:#000000;fill-opacity:1;fill-rule:nonzero;stroke:none" />
    <path
       inkscape:connector-curvature="0"
       d="m 183.78596,280.68634 c -1.06948,0.55393 -1.79292,1.29309 -2.27498,2.25509 -0.45599,0.98781 -0.34867,1.96206 0.51176,2.75064 0.76266,0.48197 1.74402,0.63156 2.68019,0.56757 1.00067,-0.45639 1.2369,-1.27158 1.47068,-2.1393 0.25104,-1.16526 0.0505,-2.40625 -0.53054,-3.48648 -0.15449,-0.17411 -0.2537,-0.44161 -0.47138,-0.57912 -0.0267,-0.0169 -0.053,0.044 -0.0863,0.0426 -1.2629,-0.27772 -0.79412,-1.77404 0.46878,-1.49633 l 0,0 c 0.89015,0.21721 1.40215,0.7371 1.78823,1.42765 0.68628,1.40533 0.99353,2.93937 0.62943,4.44318 -0.44209,1.54779 -1.17967,2.90152 -3.17374,3.33276 -1.5401,0.0438 -3.0397,-0.21126 -4.19707,-1.12536 -1.22507,-1.30569 -1.53133,-2.79099 -0.78047,-4.36025 0.69049,-1.27552 1.67185,-2.30761 3.13963,-3.01632 1.16783,-0.4892 1.99361,0.89448 0.82578,1.38369 z"
       id="path3900"
       style="fill:#000000;fill-opacity:1;fill-rule:nonzero;stroke:none" />
    <path
       inkscape:connector-curvature="0"
       d="m 191.97683,280.17955 c 0,1.53102 0,3.06205 0,4.59308 0.12882,0.77738 -0.32912,2.40225 0.67276,2.90305 0.35238,-0.14739 -0.15659,0.0976 0.0909,-0.15528 0.19185,-0.19598 0.48541,-0.30741 0.68916,-0.49476 0.54782,-0.50373 0.51186,-0.52304 0.94555,-1.12443 0.74211,-1.16734 1.03603,-2.47887 1.25168,-3.77618 0.0287,-0.21183 0.055,-0.4241 0.0687,-0.63699 0.611,0.0361 1.24147,-0.0249 1.83299,0.10828 0.0297,0.007 -0.0297,0.41032 -0.008,0.70954 0.04,0.54297 0.17709,1.04445 0.37979,1.55843 0.53528,1.14027 1.51015,2.08551 2.92048,2.47147 0.76539,0.0796 0.95838,-0.3509 1.19249,-0.87703 0.52924,-1.00001 2.21726,-0.37295 1.68802,0.62706 l 0,0 c -0.77201,1.34488 -1.64695,2.01359 -3.52385,1.70005 -1.92266,-0.64162 -3.32493,-1.81388 -4.0401,-3.46148 -0.29062,-0.8161 -0.46959,-1.58971 -0.45992,-2.44392 0.001,-0.11027 -0.11826,-0.29229 0.005,-0.33082 0.58382,-0.18238 1.23053,-0.16491 1.84581,-0.24737 0.0365,0.34643 -0.03,0.69353 -0.0732,1.03736 -0.2538,1.51034 -0.62013,3.02879 -1.51117,4.37702 -0.8006,1.06024 -2.00235,2.5995 -3.78189,2.38418 -0.27358,-0.0331 -0.50509,-0.18829 -0.75764,-0.28244 -1.3875,-1.1854 -1.25979,-2.47001 -1.27454,-4.04574 0,-1.53103 0,-3.06206 0,-4.59308 0,-1.0939 1.84651,-1.0939 1.84651,0 z"
       id="path3902"
       style="fill:#000000;fill-opacity:1;fill-rule:nonzero;stroke:none" />
    <path
       inkscape:connector-curvature="0"
       d="m 205.59907,272.6729 c 0.98461,1.89907 1.40621,3.9648 1.78312,5.99865 0.39336,2.50066 0.51775,5.02313 0.58782,7.54241 0.11369,0.60717 -0.20159,1.38827 0.23845,1.93518 -0.009,-0.0136 -0.0176,-0.0272 -0.0264,-0.0408 0.89393,0.79731 -0.45193,1.85646 -1.34586,1.05915 l 0,0 c -0.0576,-0.0571 -0.11519,-0.11419 -0.17278,-0.17129 -0.6039,-0.83564 -0.54484,-1.79952 -0.53938,-2.74631 -0.0679,-2.45218 -0.1874,-4.90748 -0.56661,-7.34188 -0.35288,-1.91848 -0.74231,-3.87009 -1.67276,-5.6606 -0.48491,-1.01567 1.22952,-1.59021 1.71444,-0.57455 z"
       id="path3904"
       style="fill:#000000;fill-opacity:1;fill-rule:nonzero;stroke:none" />
    <path
       inkscape:connector-curvature="0"
       d="m 201.42002,280.21374 c 1.4587,0.29339 2.97716,0.12884 4.45833,0.0633 1.56188,-0.0758 3.12551,-0.11698 4.68967,-0.13775 0.21863,-0.002 0.43725,-0.004 0.65587,-0.006 1.30561,-0.0114 1.32486,1.53552 0.0192,1.54692 l 0,0 c -0.21531,0.002 -0.43061,0.004 -0.64591,0.006 -1.54145,0.0204 -3.08237,0.061 -4.62157,0.13579 -1.66476,0.0736 -3.3665,0.23831 -5.0035,-0.10737 -1.26669,-0.26531 -0.81885,-1.76613 0.44785,-1.50082 z"
       id="path3906"
       style="fill:#000000;fill-opacity:1;fill-rule:nonzero;stroke:none" />
    <path
       style="fill:#000000;fill-opacity:1;fill-rule:nonzero;stroke:none"
       id="path3908"
       d="m 194.62435,335.86357 c -1.06948,0.55393 -1.79292,1.29309 -2.27498,2.25509 -0.45599,0.98781 -0.34867,1.96206 0.51176,2.75064 0.76266,0.48197 1.74402,0.63156 2.68019,0.56757 1.00067,-0.45639 1.2369,-1.27158 1.47068,-2.1393 0.25104,-1.16526 0.0505,-2.40625 -0.53054,-3.48648 -0.15449,-0.17411 -0.2537,-0.44161 -0.47138,-0.57912 -0.0267,-0.0169 -0.053,0.044 -0.0863,0.0426 -1.2629,-0.27772 -0.79412,-1.77404 0.46878,-1.49633 l 0,0 c 0.89015,0.21721 1.40215,0.7371 1.78823,1.42765 0.68628,1.40533 0.99353,2.93937 0.62943,4.44318 -0.44209,1.54779 -1.17967,2.90152 -3.17374,3.33276 -1.5401,0.0438 -3.0397,-0.21126 -4.19707,-1.12536 -1.22507,-1.30569 -1.53133,-2.79099 -0.78047,-4.36025 0.69049,-1.27552 1.67185,-2.30761 3.13963,-3.01632 1.16783,-0.4892 1.99361,0.89448 0.82578,1.38369 z"
       inkscape:connector-curvature="0" />
    <path
       style="fill:#000000;fill-opacity:1;fill-rule:nonzero;stroke:none"
       id="path3910"
       d="m 202.81522,335.35678 c 0,1.53102 0,3.06205 0,4.59308 0.12882,0.77738 -0.32912,2.40225 0.67276,2.90305 0.35238,-0.14739 -0.15659,0.0976 0.0909,-0.15528 0.19185,-0.19598 0.48541,-0.30741 0.68916,-0.49476 0.54782,-0.50373 0.51186,-0.52304 0.94555,-1.12443 0.74211,-1.16734 1.03603,-2.47887 1.25168,-3.77618 0.0287,-0.21183 0.055,-0.4241 0.0687,-0.63699 0.611,0.0361 1.24147,-0.0249 1.83299,0.10828 0.0297,0.007 -0.0297,0.41032 -0.008,0.70954 0.04,0.54297 0.17709,1.04445 0.37979,1.55843 0.53528,1.14027 1.51015,2.08551 2.92048,2.47147 0.76539,0.0796 0.95838,-0.3509 1.19249,-0.87703 0.52924,-1.00001 2.21726,-0.37295 1.68802,0.62706 l 0,0 c -0.77201,1.34488 -1.64695,2.01359 -3.52385,1.70005 -1.92266,-0.64162 -3.32493,-1.81388 -4.0401,-3.46148 -0.29062,-0.8161 -0.46959,-1.58971 -0.45992,-2.44392 0.001,-0.11027 -0.11826,-0.29229 0.005,-0.33082 0.58382,-0.18238 1.23053,-0.16491 1.84581,-0.24737 0.0365,0.34643 -0.03,0.69353 -0.0732,1.03736 -0.2538,1.51034 -0.62013,3.02879 -1.51117,4.37702 -0.8006,1.06024 -2.00235,2.5995 -3.78189,2.38418 -0.27358,-0.0331 -0.50509,-0.18829 -0.75764,-0.28244 -1.3875,-1.1854 -1.25979,-2.47001 -1.27454,-4.04574 0,-1.53103 0,-3.06206 0,-4.59308 0,-1.0939 1.84651,-1.0939 1.84651,0 z"
       inkscape:connector-curvature="0" />
    <path
       style="fill:#000000;fill-opacity:1;fill-rule:nonzero;stroke:none"
       id="path3912"
       d="m 216.43746,327.85013 c 0.98461,1.89907 1.40621,3.9648 1.78312,5.99865 0.39336,2.50066 0.51775,5.02313 0.58782,7.54241 0.11369,0.60717 -0.20159,1.38827 0.23845,1.93518 -0.009,-0.0136 -0.0176,-0.0272 -0.0264,-0.0408 0.89393,0.79731 -0.45193,1.85646 -1.34586,1.05915 l 0,0 c -0.0576,-0.0571 -0.11519,-0.11419 -0.17278,-0.17129 -0.6039,-0.83564 -0.54484,-1.79952 -0.53938,-2.74631 -0.0679,-2.45218 -0.1874,-4.90748 -0.56661,-7.34188 -0.35288,-1.91848 -0.74231,-3.87009 -1.67276,-5.6606 -0.48491,-1.01567 1.22952,-1.59021 1.71444,-0.57455 z"
       inkscape:connector-curvature="0" />
    <path
       style="fill:#000000;fill-opacity:1;fill-rule:nonzero;stroke:none"
       id="path3914"
       d="m 212.25841,335.39097 c 1.4587,0.29339 2.97716,0.12884 4.45833,0.0633 1.56188,-0.0758 3.12551,-0.11698 4.68967,-0.13775 0.21863,-0.002 0.43725,-0.004 0.65587,-0.006 1.30561,-0.0114 1.32486,1.53552 0.0192,1.54692 l 0,0 c -0.21531,0.002 -0.43061,0.004 -0.64591,0.006 -1.54145,0.0204 -3.08237,0.061 -4.62157,0.13579 -1.66476,0.0736 -3.3665,0.23831 -5.0035,-0.10737 -1.26669,-0.26531 -0.81885,-1.76613 0.44785,-1.50082 z"
       inkscape:connector-curvature="0" />
  </g>
</svg>
