<?xml version="1.0" encoding="UTF-8" standalone="no"?>
<!-- Created with Inkscape (http://www.inkscape.org/) -->

<svg
   xmlns:dc="http://purl.org/dc/elements/1.1/"
   xmlns:cc="http://creativecommons.org/ns#"
   xmlns:rdf="http://www.w3.org/1999/02/22-rdf-syntax-ns#"
   xmlns:svg="http://www.w3.org/2000/svg"
   xmlns="http://www.w3.org/2000/svg"
   xmlns:sodipodi="http://sodipodi.sourceforge.net/DTD/sodipodi-0.dtd"
   xmlns:inkscape="http://www.inkscape.org/namespaces/inkscape"
   width="542.02698"
   height="512.40155"
   id="svg9838"
   version="1.1"
   inkscape:version="0.48.0 r9654"
   sodipodi:docname="GearboxCurves.pdf">
  <defs
     id="defs9840" />
  <sodipodi:namedview
     inkscape:document-units="mm"
     pagecolor="#ffffff"
     bordercolor="#666666"
     borderopacity="1.0"
     inkscape:pageopacity="0.0"
     inkscape:pageshadow="2"
     inkscape:zoom="0.7176508"
     inkscape:cx="253.94733"
     inkscape:cy="210.03565"
     inkscape:current-layer="layer1"
     id="namedview9842"
     showgrid="false"
     showguides="true"
     inkscape:guide-bbox="true"
     fit-margin-top="0"
     fit-margin-left="0"
     fit-margin-right="0"
     fit-margin-bottom="0"
     inkscape:window-width="1280"
     inkscape:window-height="752"
     inkscape:window-x="0"
     inkscape:window-y="0"
     inkscape:window-maximized="0" />
  <metadata
     id="metadata9844">
    <rdf:RDF>
      <cc:Work
         rdf:about="">
        <dc:format>image/svg+xml</dc:format>
        <dc:type
           rdf:resource="http://purl.org/dc/dcmitype/StillImage" />
        <dc:title></dc:title>
      </cc:Work>
    </rdf:RDF>
  </metadata>
  <g
     inkscape:label="Layer 1"
     inkscape:groupmode="layer"
     id="layer1"
     transform="translate(-272.23376,-69.681343)">
    <path
       style="fill:#000000;fill-opacity:1;fill-rule:nonzero;stroke:none"
       id="path10365"
       d="m 345.46337,550.65617 c 0.55964,-2.91879 1.13385,-5.84191 1.57378,-8.77686 0.64884,-5.11058 0.68202,-10.25633 0.71908,-15.38944 0.0113,-6.09374 -0.0626,-12.1873 -0.12418,-18.28075 -0.0748,-7.27404 -0.14651,-14.5481 -0.21696,-21.82218 -0.0754,-7.87692 -0.14991,-15.75385 -0.22436,-23.63079 -0.47443,-7.99061 -1.04145,-15.97502 -1.36673,-23.97138 -0.30683,-8.63036 -0.40554,-17.26445 -0.50379,-25.89776 -0.0903,-8.70841 -0.16662,-17.4169 -0.24593,-26.12538 -0.0779,-8.56237 -0.15786,-17.12472 -0.23879,-25.68707 -0.14367,-9.05236 0.47445,-18.0996 1.15553,-27.13067 0.75117,-9.01553 0.94776,-18.05118 1.02679,-27.08482 0.049,-9.41122 -0.72579,-18.80998 -1.16737,-28.21163 -0.61631,-9.06546 -0.11052,-18.13581 0.18811,-27.20117 0.27724,-8.79045 0.29448,-17.58434 0.27421,-26.37713 -0.24389,-8.17614 0.31141,-16.34213 0.64088,-24.51059 0.29384,-7.86893 0.32108,-15.74201 0.3045,-23.61391 -0.0335,-7.52115 -0.11418,-15.04207 -0.18816,-22.563 -0.083,-8.36189 -0.16407,-16.72379 -0.24411,-25.0857 0.11437,-6.03473 -0.15471,-12.04145 -0.79575,-18.05018 -0.33739,-2.9289 -0.60304,-5.86289 -0.80377,-8.80026 -0.0272,-0.47359 -0.067,-0.94707 -0.0701,-1.4213 0.005,-0.0645 0.0104,-0.12904 0.0157,-0.19356 0.25424,-2.4349 4.41906,-2.13762 4.16482,0.29728 l 0,0 c -3.2e-4,-0.0116 -6.5e-4,-0.0231 -9.7e-4,-0.0346 0.007,0.16034 0.0411,0.89038 0.0643,1.1573 0.19807,2.90112 0.46089,5.79886 0.79426,8.6916 0.6503,6.10048 0.92604,12.19971 0.81178,18.32635 0.08,8.36167 0.16107,16.72332 0.2441,25.08496 0.0741,7.5283 0.15481,15.05661 0.18837,22.58511 0.0166,7.91233 -0.0112,15.82581 -0.30681,23.73514 -0.32794,8.12791 -0.88237,16.25324 -0.63857,24.38879 0.0203,8.82635 0.003,17.65381 -0.27574,26.47781 -0.29613,8.98933 -0.80197,17.98354 -0.18972,26.97297 0.44396,9.45466 1.22299,18.9064 1.17041,28.37076 -0.0798,9.09704 -0.27878,18.19608 -1.03478,27.27489 -0.67507,8.95054 -1.29041,17.91707 -1.14756,26.88871 0.0805,8.56264 0.16087,17.12527 0.2388,25.68793 0.0793,8.7063 0.15458,17.41263 0.24487,26.11886 0.0979,8.60544 0.19618,17.21165 0.50162,25.81416 0.32618,8.02607 0.90119,16.03987 1.36897,24.06048 0.0745,7.87672 0.14891,15.75345 0.22434,23.63015 0.0707,7.27368 0.1415,14.54733 0.21695,21.82096 0.0617,6.10998 0.1358,12.22008 0.12425,18.33035 -0.0383,5.26883 -0.0764,10.55059 -0.75103,15.79568 -0.4632,3.06375 -1.04939,6.11799 -1.65877,9.16194 -0.69448,2.37555 -4.75778,1.5635 -4.06329,-0.81204 z"
       inkscape:connector-curvature="0" />
    <path
       inkscape:connector-curvature="0"
       d="m 325.78168,524.32623 c 2.92018,0.55232 5.84473,1.1192 8.78078,1.55177 5.11219,0.63603 10.25801,0.65631 15.39119,0.68049 6.09375,-0.004 12.18711,-0.0931 18.28038,-0.17001 7.27383,-0.093 14.54769,-0.18299 21.82157,-0.27167 7.87671,-0.0952 15.75343,-0.18941 23.63015,-0.28361 7.9894,-0.49447 15.97236,-1.0815 23.96788,-1.42683 8.62957,-0.32847 17.26338,-0.44883 25.89642,-0.56872 8.70815,-0.11214 17.41643,-0.21029 26.12468,-0.31144 8.56215,-0.0994 17.12427,-0.20079 25.68639,-0.30319 9.05197,-0.16637 18.10073,0.42906 27.13348,1.0875 9.01739,0.72856 18.0535,0.9025 27.08731,0.95888 9.41131,0.0254 18.8081,-0.77295 28.20862,-1.23811 9.06388,-0.63903 18.13547,-0.15599 27.20155,0.11991 8.79112,0.2552 17.58502,0.25039 26.37774,0.20808 8.1755,-0.26439 16.34286,0.27043 24.51212,0.57942 7.86964,0.27411 15.74276,0.28161 23.6146,0.24529 7.52104,-0.0524 15.04173,-0.1519 22.56245,-0.24473 8.36166,-0.10397 16.72333,-0.206 25.08501,-0.30701 6.035,0.0992 12.04103,-0.1849 18.04813,-0.841 2.92804,-0.34474 5.86136,-0.61774 8.79822,-0.82584 0.47352,-0.0284 0.9469,-0.0694 1.42112,-0.0737 0.0645,0.005 0.12906,0.0101 0.1936,0.0152 2.43553,0.24814 2.14869,4.41369 -0.28684,4.16556 l 0,0 c 0.0116,-3.5e-4 0.0231,-7.1e-4 0.0346,-10e-4 -0.16033,0.007 -0.89028,0.0433 -1.15714,0.0672 -2.90061,0.20535 -5.79769,0.47543 -8.68958,0.81605 -6.09883,0.6656 -12.19735,0.95663 -18.32426,0.85773 -8.36144,0.10096 -16.72286,0.203 -25.08427,0.30699 -7.52809,0.093 -15.05617,0.19256 -22.58456,0.245 -7.91227,0.0364 -15.82579,0.0285 -23.73584,-0.2473 -8.1287,-0.30756 -16.2554,-0.84161 -24.39031,-0.57741 -8.82627,0.0424 -17.65375,0.0473 -26.47842,-0.20936 -8.99004,-0.27359 -17.98549,-0.75687 -26.97336,-0.12209 -9.45352,0.46767 -18.90328,1.27039 -28.36774,1.24155 -9.09721,-0.057 -18.19672,-0.23316 -27.2774,-0.9664 -8.9522,-0.65262 -17.92025,-1.24548 -26.8915,-1.08013 -8.56241,0.10197 -17.12481,0.2038 -25.68725,0.3032 -8.70607,0.10113 -17.41219,0.19824 -26.11816,0.31036 -8.60517,0.11948 -17.21111,0.23933 -25.81282,0.56634 -8.02523,0.34631 -16.03756,0.94141 -24.05698,1.4293 -7.8765,0.0942 -15.75302,0.1884 -23.62951,0.28358 -7.27348,0.0889 -14.54693,0.17798 -21.82035,0.27166 -6.1098,0.077 -12.2197,0.16644 -18.32998,0.17021 -5.26891,-0.0251 -10.55075,-0.0499 -15.79751,-0.71142 -3.0649,-0.45552 -6.1206,-1.03405 -9.16607,-1.63579 -2.37729,-0.68852 -1.57543,-4.75385 0.80185,-4.06532 z"
       id="path10367"
       style="fill:#000000;fill-opacity:1;fill-rule:nonzero;stroke:none" />
    <path
       style="fill:#000000;fill-opacity:1;fill-rule:nonzero;stroke:none"
       id="path10369"
       d="m 347.45485,100.17722 c -1.04781,3.84369 -2.2673,7.6336 -3.51088,11.41787 -0.89243,2.51671 -2.10583,4.83325 -3.74253,6.93684 -1.82445,2.3257 -5.11348,-0.25445 -3.28904,-2.58015 l 0,0 c 1.3561,-1.70988 2.31425,-3.60804 3.06022,-5.66179 1.1915,-3.62554 2.35676,-7.25707 3.38311,-10.932598 0.5797,-2.898521 4.67883,-2.078695 4.09912,0.819828 z"
       inkscape:connector-curvature="0" />
    <path
       style="fill:#000000;fill-opacity:1;fill-rule:nonzero;stroke:none"
       id="path10371"
       d="m 349.15983,99.093689 c 0.80075,2.874851 2.34949,5.366991 3.85024,7.908911 1.51638,2.6343 3.57589,4.88332 5.53369,7.19102 0.93365,0.85555 0.448,0.488 1.443,1.12082 2.44448,1.66192 0.0942,5.11894 -2.35031,3.45703 l 0,0 c -1.6287,-1.1489 -0.8703,-0.52197 -2.28081,-1.87399 -2.11004,-2.4887 -4.31659,-4.92571 -5.94551,-7.76994 -1.70416,-2.88774 -3.41579,-5.75165 -4.30579,-9.01998 -0.71692,-2.867664 3.33857,-3.881537 4.05549,-1.013871 z"
       inkscape:connector-curvature="0" />
    <path
       style="fill:#000000;fill-opacity:1;fill-rule:nonzero;stroke:none"
       id="path10379"
       d="m 770.78954,525.79276 c -2.66819,-0.45897 -5.27237,-1.23278 -7.82235,-2.1358 -2.00719,-0.61683 -3.79404,-1.51165 -5.57097,-2.59467 -0.88066,-0.59296 -1.40704,-1.3344 -1.96555,-2.21169 -1.46522,-2.56722 2.16538,-4.63936 3.6306,-2.07214 l 0,0 c 0.0706,0.31917 0.33334,0.49169 0.53936,0.73199 1.51409,0.95108 3.03835,1.68286 4.77494,2.2106 2.41631,0.87567 4.89631,1.5738 7.42784,2.01622 2.86767,0.71692 1.85379,4.77241 -1.01387,4.05549 z"
       inkscape:connector-curvature="0" />
    <path
       style="fill:#000000;fill-opacity:1;fill-rule:nonzero;stroke:none"
       id="path10385"
       d="m 774.33455,527.30313 c -2.12152,1.80282 -4.41258,3.3821 -6.81805,4.77852 -2.16414,1.44351 -4.35767,2.83361 -6.53364,4.25695 -1.1823,0.73979 -0.62002,0.39421 -1.68515,1.03951 -2.52852,1.53104 -4.69373,-2.04482 -2.16522,-3.57586 l 0,0 c 0.99091,-0.59965 0.46874,-0.27915 1.565,-0.96394 2.24284,-1.46133 4.49491,-2.902 6.72986,-4.37749 2.0989,-1.20215 4.07195,-2.59087 5.95128,-4.11361 2.09015,-2.09016 5.04607,0.86577 2.95592,2.95592 z"
       inkscape:connector-curvature="0" />
    <path
       style="fill:#000000;fill-opacity:1;fill-rule:nonzero;stroke:none"
       id="path10387"
       d="m 322.70637,71.488687 c 0.81486,5.44083 0.95159,10.95526 1.10971,16.445755 0.11287,4.81648 0.15384,9.6343 0.16688,14.451968 7.3e-4,1.03973 0.001,0.59731 -2.5e-4,1.32728 -0.006,2.95592 -4.18634,2.94736 -4.18029,-0.009 l 0,0 c 0.001,-0.71572 9.6e-4,-0.27991 2.5e-4,-1.30743 -0.0129,-4.781378 -0.0535,-9.562908 -0.16517,-14.343098 -0.15092,-5.256305 -0.281,-10.533575 -1.03026,-15.746105 -0.5797,-2.89852 3.51943,-3.71834 4.09913,-0.81982 z"
       inkscape:connector-curvature="0" />
    <path
       style="fill:#000000;fill-opacity:1;fill-rule:nonzero;stroke:none"
       id="path10389"
       d="m 310.5163,70.597567 c 4.51256,0.78046 9.1177,0.85825 13.68505,1.00872 4.02303,0.1042 8.04351,-0.0966 11.97962,0.85653 1.06367,0.32808 0.54696,0.11651 1.54843,0.63881 2.50208,1.57389 0.27627,5.11235 -2.2258,3.53847 l 0,0 c 0.40046,0.1021 0.28858,0.0783 -0.32214,-0.11822 -3.64279,-0.91663 -7.39583,-0.56724 -11.11794,-0.73756 -4.86105,-0.16057 -9.76678,-0.24247 -14.5611,-1.13125 -2.86766,-0.71692 -1.85379,-4.77241 1.01388,-4.0555 z"
       inkscape:connector-curvature="0" />
    <path
       style="fill:#000000;fill-opacity:1;fill-rule:nonzero;stroke:none"
       id="path10393"
       d="m 788.2689,531.48344 c -1.93866,2.03893 -2.96,4.4281 -3.68254,7.10236 -0.42135,2.21818 -1.07223,4.58959 -0.13575,6.75249 0.2765,0.73597 1.18724,1.60265 1.96013,0.95237 1.73985,-1.0687 2.72393,-2.86971 3.5428,-4.67173 0.40641,-1.16293 0.72877,-2.36525 0.85708,-3.59313 -0.008,-0.35692 0.0256,0.1729 0.0252,0.16705 -0.0534,-0.9304 -0.0266,-0.0995 -0.0432,-0.71593 -0.007,-0.29755 -0.0125,-0.59513 -0.0171,-0.89273 -10e-4,-0.0437 -8e-4,-0.0874 -10e-4,-0.13108 1.39345,0.11462 2.7869,0.22923 4.18035,0.34385 -0.14696,1.56947 0.23583,3.0458 0.57967,4.56339 0.52577,1.18781 0.90214,2.77421 2.02648,3.56338 0.91321,1.10428 2.12957,1.54309 3.49705,1.7828 2.11004,0.47885 3.22304,-0.25566 4.7184,-1.65109 1.85515,-2.07196 3.25896,-4.43517 3.97638,-7.12309 0.67208,-2.43237 0.28794,-4.69245 -0.54256,-7.00473 -0.3717,-1.45788 -1.41202,-1.95011 -2.47909,-2.83391 -0.47425,-0.39925 -0.93626,-0.81274 -1.37962,-1.24595 -0.0233,-0.0242 -0.0466,-0.0484 -0.0699,-0.0726 -2.0361,-2.14284 0.99433,-5.02233 3.03044,-2.87949 l 0,0 c -8.9e-4,-6.2e-4 -0.002,-10e-4 -0.003,-0.002 0.34915,0.34361 0.71971,0.66469 1.09161,0.98328 1.5961,1.32823 3.19424,2.5035 3.74783,4.64977 1.10466,3.13167 1.51931,6.27593 0.62768,9.53873 -1.00054,3.42729 -2.71535,6.49828 -5.19841,9.0923 -2.64736,2.33743 -4.78212,3.32833 -8.30982,2.65367 -2.08313,-0.4228 -4.07993,-1.1616 -5.52758,-2.80218 -1.61889,-1.59398 -2.64188,-3.54558 -3.2835,-5.72648 -0.40892,-1.80949 -0.82336,-3.61656 -0.68274,-5.48508 1.39341,-0.10817 2.78681,-0.21634 4.18022,-0.3245 2.6e-4,0.0166 6.3e-4,0.0332 7.9e-4,0.0498 0.004,0.28108 0.009,0.56214 0.0161,0.84318 0.005,0.19854 0.041,0.65387 -0.006,1.1185 -0.19072,1.67193 -0.60865,3.31319 -1.21516,4.88286 -1.37065,2.94517 -3.17096,5.68701 -6.29485,6.97061 -3.2701,0.59342 -5.55034,-0.42309 -6.92692,-3.55299 -1.05048,-3.08855 -0.76554,-6.16852 0.0273,-9.30918 0.93796,-3.35535 2.30858,-6.40549 4.75695,-8.94859 2.09015,-2.09015 5.04608,0.86577 2.95592,2.95593 z"
       inkscape:connector-curvature="0" />
    <path
       style="fill:none;stroke:#000000;stroke-width:3.54330707;stroke-linecap:butt;stroke-linejoin:miter;stroke-miterlimit:4;stroke-opacity:1;stroke-dasharray:none"
       d="M 349.75228,339.99823 539.25949,523.9317"
       id="path10395"
       inkscape:connector-curvature="0"
       sodipodi:nodetypes="cc" />
    <path
       style="fill:none;stroke:#000000;stroke-width:3.54330707;stroke-linecap:butt;stroke-linejoin:miter;stroke-miterlimit:4;stroke-opacity:1;stroke-dasharray:none"
       d="m 348.35884,149.09758 87.78643,376.22755"
       id="path10397"
       inkscape:connector-curvature="0"
       sodipodi:nodetypes="cc" />
    <path
       style="fill:none;stroke:#000000;stroke-width:3.54330707;stroke-linecap:butt;stroke-linejoin:miter;stroke-miterlimit:4;stroke-opacity:1;stroke-dasharray:none;stroke-dashoffset:0"
       d="M 731.55356,526.71857 349.75228,438.93214"
       id="path10399"
       inkscape:connector-curvature="0"
       sodipodi:nodetypes="cc" />
    <path
       style="fill:#000000;fill-opacity:1;fill-rule:nonzero;stroke:none"
       id="path10401"
       d="m 342.56532,155.59713 c 2.4601,0.54795 4.97076,0.82835 7.48125,1.01332 1.01203,0.0742 2.02636,0.10343 3.04037,0.13347 2.95461,0.088 2.83021,4.26642 -0.1244,4.17846 l 0,0 c -1.07577,-0.0322 -2.15186,-0.0641 -3.22551,-0.1431 -2.74758,-0.20548 -5.49528,-0.5152 -8.18559,-1.12666 -2.86766,-0.71692 -1.85379,-4.77241 1.01388,-4.05549 z"
       inkscape:connector-curvature="0" />
    <path
       style="fill:#000000;fill-opacity:1;fill-rule:nonzero;stroke:none"
       id="path10411"
       d="m 318.87257,326.11101 c 0.50832,2.64524 0.90894,5.30902 1.42955,7.95302 0.73986,4.24663 1.44343,8.5029 2.02534,12.77421 0.17668,1.17805 0.26701,2.36684 0.4249,3.54706 0.10212,0.76337 -1.55615,-0.0756 -2.33486,-0.0759 0.002,-0.17435 0.003,-0.3487 0.005,-0.52305 0.0214,-1.67349 2.41474,-1.64355 2.39333,0.0299 l 0,0 c -0.003,0.21597 -0.007,0.43194 -0.01,0.64792 -0.7871,0.16572 -1.55964,0.42762 -2.36132,0.49717 -0.0341,0.003 -0.077,-0.3313 -0.12128,-0.71673 -0.11844,-1.03066 -0.22531,-2.06271 -0.36796,-3.09057 -0.57512,-4.22584 -1.27225,-8.43657 -2.00271,-12.63815 -0.51156,-2.60327 -0.91496,-5.22417 -1.40212,-7.83088 -0.41049,-1.62365 1.91157,-2.19771 2.32206,-0.57405 z"
       inkscape:connector-curvature="0" />
    <path
       style="fill:#000000;fill-opacity:1;fill-rule:nonzero;stroke:none"
       id="path10413"
       d="m 308.71004,325.62606 c 4.33973,-0.3091 8.66292,-0.78933 13.00156,-1.11775 3.53164,-0.35363 7.08176,-0.27355 10.45116,0.88589 0.76641,0.29967 1.51826,0.64987 2.16035,1.16612 1.29348,1.07935 -0.25015,2.88823 -1.54363,1.80888 l 0,0 c -0.41938,-0.32957 -0.92025,-0.53923 -1.41211,-0.74264 -3.04445,-1.0768 -6.28205,-1.05997 -9.47316,-0.75829 -4.39933,0.33272 -8.78236,0.82878 -13.18417,1.12466 -1.69248,0 -1.69248,-2.36687 0,-2.36687 z"
       inkscape:connector-curvature="0" />
    <path
       style="fill:#000000;fill-opacity:1;fill-rule:nonzero;stroke:none"
       id="path10417"
       d="m 334.52425,345.41374 c -1.15585,0.50608 -2.25623,1.11773 -3.38359,1.68365 -0.49521,0.12346 -1.62235,1.09184 -0.42698,-0.0615 0.11599,-0.31003 -0.0385,0.60582 0.0783,0.26226 0.20889,0.52686 0.64063,0.83744 1.03799,1.2114 0.58226,0.59042 1.31921,1.01201 1.97907,1.51644 0.0492,0.0135 1.56765,1.30322 1.01666,0.84601 0.51543,0.27153 0.901,0.69039 1.23897,1.15015 0.26757,0.33053 0.30583,0.77009 0.30838,1.17952 -0.002,0.51139 -0.004,1.02279 -0.006,1.53418 0.0679,1.27178 -1.05513,1.8905 -2.03565,2.39867 -0.98239,0.51247 -1.98001,0.77155 -3.08404,0.69118 -0.99166,-0.17023 -1.75532,-0.80295 -2.3898,-1.5358 -0.15819,-0.20245 -0.0863,-0.10503 -0.21733,-0.29097 -0.95358,-1.3827 1.02389,-2.71624 1.97747,-1.33354 l 0,0 c 0.12005,0.17057 -0.18093,-0.23983 0.0686,0.0975 0.2479,0.29837 0.52671,0.63236 0.91203,0.72152 0.49582,0.0218 1.13613,-0.18798 1.64474,-0.45795 0.65552,-0.31633 0.0117,0.0112 0.67981,-0.38412 0.10122,-0.0599 0.0273,0.46089 0.05,0.34642 0.0169,-0.0856 4.1e-4,-0.17439 5.7e-4,-0.26158 0.002,-0.5045 0.004,-1.00899 0.006,-1.51349 -0.002,-0.39479 -0.0483,-0.43781 0.14271,0.19143 -0.0668,-0.09 -0.40986,-0.41701 -0.19556,-0.33955 -0.58984,-0.31899 -1.07732,-0.73368 -1.58617,-1.17055 -0.72422,-0.55998 -1.53671,-1.02148 -2.17342,-1.68306 -0.65361,-0.63902 -1.32577,-1.23124 -1.63156,-2.1243 -0.16561,-0.64079 -0.25732,-1.2202 -0.0685,-1.86801 0.57653,-0.68569 0.79839,-0.91466 1.59033,-1.23279 1.13129,-0.56776 2.23874,-1.17813 3.39653,-1.6901 1.5138,-0.74846 2.58421,1.36852 1.07041,2.11699 z"
       inkscape:connector-curvature="0" />
    <path
       style="fill:#000000;fill-opacity:1;fill-rule:nonzero;stroke:none"
       id="path10445"
       d="m 295.4144,153.21436 c 1.21577,-1.5412 2.53997,-3.02009 4.10006,-4.22605 1.38906,-0.88879 2.96786,-1.36945 4.6164,-1.29002 1.47205,0.24903 2.21588,0.68277 2.61033,2.18875 0.19407,1.68 0.1886,3.38589 0.0344,5.06784 -0.18394,2.06859 -0.65992,4.0636 -1.54169,5.9468 -0.83911,1.75161 -1.90166,3.39768 -3.01789,4.98851 -0.89726,1.29557 -2.06588,2.37501 -2.9406,3.68331 -0.17099,0.25828 -0.3689,0.61439 -0.47931,0.87037 0.20224,-0.84653 -0.13794,0.0528 -1.18656,-1.5351 -0.0686,-0.10392 0.25042,-0.0179 0.37586,-0.0221 0.18942,-0.006 0.86282,-0.004 0.98859,-0.004 1.84629,0.006 3.69259,0.0101 5.53888,0.0125 1.75553,0.002 3.51105,0.002 5.26658,0.003 0.0289,-0.0705 1.86382,0.0983 1.31498,-0.0373 1.42461,-0.90359 2.71687,1.08867 1.29227,1.99225 l 0,0 c -0.83765,0.45341 -1.67048,0.45646 -2.60759,0.41196 -1.75646,-2.5e-4 -3.51291,-5.7e-4 -5.26937,-0.003 -1.84543,-0.002 -3.69086,-0.006 -5.53629,-0.0125 -0.91437,-3e-4 -2.86845,-0.14568 -2.43644,-1.58751 0.18464,-0.49704 0.4656,-0.9522 0.74647,-1.40059 0.89285,-1.3172 2.03233,-2.43416 2.96737,-3.7222 1.04312,-1.48 2.03302,-3.01465 2.81731,-4.64505 0.78945,-1.62482 1.15067,-3.37429 1.32475,-5.1641 0.14789,-1.44042 0.11938,-2.89744 0.009,-4.34089 -0.0273,-0.44068 0.55911,0.25542 0.27211,-0.074 -0.15522,-0.17813 -0.56898,-0.15405 -0.76059,-0.25962 -0.97036,-0.22432 -2.10341,0.40425 -2.93935,0.80861 -1.40764,1.04855 -2.54597,2.41888 -3.64505,3.77049 -1.01549,1.3389 -2.93031,-0.0812 -1.91483,-1.42012 z"
       inkscape:connector-curvature="0" />
    <path
       inkscape:connector-curvature="0"
       d="m 318.88371,146.50283 c 0.50832,2.64524 0.90894,5.30902 1.42955,7.95302 0.73986,4.24663 1.44343,8.5029 2.02534,12.77421 0.17668,1.17805 0.26701,2.36684 0.4249,3.54706 0.10212,0.76337 -1.55615,-0.0756 -2.33486,-0.0759 0.002,-0.17435 0.003,-0.3487 0.005,-0.52305 0.0214,-1.67349 2.41474,-1.64355 2.39334,0.0299 l 0,0 c -0.003,0.21597 -0.007,0.43194 -0.01,0.64792 -0.7871,0.16572 -1.55964,0.42762 -2.36132,0.49717 -0.0341,0.003 -0.077,-0.33129 -0.12128,-0.71673 -0.11844,-1.03066 -0.22531,-2.06271 -0.36796,-3.09057 -0.57512,-4.22584 -1.27225,-8.43657 -2.00271,-12.63815 -0.51156,-2.60327 -0.91496,-5.22417 -1.40212,-7.83088 -0.41049,-1.62365 1.91157,-2.19771 2.32206,-0.57405 z"
       id="path10447"
       style="fill:#000000;fill-opacity:1;fill-rule:nonzero;stroke:none" />
    <path
       inkscape:connector-curvature="0"
       d="m 308.72118,146.01788 c 4.33973,-0.30909 8.66292,-0.78933 13.00156,-1.11775 3.53164,-0.35363 7.08176,-0.27355 10.45116,0.88589 0.76641,0.29967 1.51826,0.64987 2.16035,1.16612 1.29348,1.07935 -0.25015,2.88823 -1.54363,1.80888 l 0,0 c -0.41938,-0.32957 -0.92025,-0.53923 -1.41211,-0.74264 -3.04445,-1.0768 -6.28205,-1.05996 -9.47316,-0.75829 -4.39933,0.33272 -8.78236,0.82878 -13.18417,1.12466 -1.69247,0 -1.69247,-2.36687 0,-2.36687 z"
       id="path10449"
       style="fill:#000000;fill-opacity:1;fill-rule:nonzero;stroke:none" />
    <path
       inkscape:connector-curvature="0"
       d="m 334.53539,165.80556 c -1.15585,0.50608 -2.25623,1.11773 -3.38359,1.68365 -0.49521,0.12346 -1.62235,1.09184 -0.42698,-0.0615 0.11599,-0.31003 -0.0385,0.60582 0.0783,0.26226 0.20888,0.52686 0.64062,0.83744 1.03798,1.2114 0.58226,0.59042 1.31921,1.01201 1.97907,1.51644 0.0492,0.0135 1.56766,1.30322 1.01666,0.84601 0.51543,0.27153 0.901,0.69039 1.23897,1.15015 0.26757,0.33053 0.30583,0.77009 0.30838,1.17952 -0.002,0.51139 -0.004,1.02279 -0.006,1.53418 0.0679,1.27178 -1.05513,1.8905 -2.03565,2.39867 -0.98239,0.51247 -1.98001,0.77155 -3.08404,0.69118 -0.99166,-0.17023 -1.75532,-0.80295 -2.3898,-1.53579 -0.15819,-0.20246 -0.0863,-0.10504 -0.21733,-0.29098 -0.95358,-1.38269 1.02389,-2.71623 1.97747,-1.33354 l 0,0 c 0.12005,0.17057 -0.18093,-0.23983 0.0686,0.0975 0.2479,0.29838 0.52671,0.63236 0.91203,0.72152 0.49582,0.0218 1.13613,-0.18798 1.64474,-0.45795 0.65552,-0.31633 0.0117,0.0112 0.67981,-0.38412 0.10122,-0.0599 0.0273,0.46089 0.05,0.34642 0.017,-0.0856 4.1e-4,-0.17439 5.7e-4,-0.26158 0.002,-0.5045 0.004,-1.00899 0.006,-1.51349 -0.002,-0.39479 -0.0483,-0.43781 0.14271,0.19143 -0.0669,-0.09 -0.40986,-0.41701 -0.19556,-0.33955 -0.58984,-0.31899 -1.07732,-0.73368 -1.58617,-1.17055 -0.72422,-0.55997 -1.53671,-1.02148 -2.17342,-1.68306 -0.65361,-0.63902 -1.32577,-1.23124 -1.63156,-2.1243 -0.1656,-0.64079 -0.25732,-1.2202 -0.0685,-1.86801 0.57653,-0.68569 0.79839,-0.91466 1.59034,-1.23279 1.13128,-0.56776 2.23873,-1.17813 3.39652,-1.6901 1.5138,-0.74846 2.58421,1.36852 1.07041,2.11699 z"
       id="path10451"
       style="fill:#000000;fill-opacity:1;fill-rule:nonzero;stroke:none" />
    <path
       inkscape:connector-curvature="0"
       d="m 283.66564,425.15038 c 0.50832,2.64525 0.90894,5.30903 1.42956,7.95303 0.73986,4.24662 1.44342,8.5029 2.02533,12.77421 0.17668,1.17805 0.26701,2.36684 0.4249,3.54705 0.10213,0.76338 -1.55615,-0.0756 -2.33485,-0.0759 0.002,-0.17435 0.003,-0.34869 0.005,-0.52305 0.0214,-1.67349 2.41475,-1.64355 2.39334,0.0299 l 0,0 c -0.003,0.21598 -0.007,0.43195 -0.01,0.64792 -0.78711,0.16573 -1.55965,0.42763 -2.36132,0.49717 -0.0341,0.003 -0.077,-0.33129 -0.12128,-0.71673 -0.11845,-1.03066 -0.22532,-2.06271 -0.36796,-3.09056 -0.57513,-4.22584 -1.27225,-8.43657 -2.00272,-12.63815 -0.51155,-2.60328 -0.91496,-5.22417 -1.40212,-7.83088 -0.41049,-1.62366 1.91157,-2.19771 2.32206,-0.57405 z"
       id="path10453"
       style="fill:#000000;fill-opacity:1;fill-rule:nonzero;stroke:none" />
    <path
       inkscape:connector-curvature="0"
       d="m 273.50312,424.66544 c 4.33972,-0.3091 8.66291,-0.78933 13.00156,-1.11776 3.53163,-0.35363 7.08176,-0.27354 10.45115,0.88589 0.76641,0.29968 1.51826,0.64988 2.16036,1.16612 1.29347,1.07936 -0.25016,2.88824 -1.54363,1.80888 l 0,0 c -0.41938,-0.32956 -0.92026,-0.53922 -1.41212,-0.74263 -3.04445,-1.07681 -6.28205,-1.05997 -9.47315,-0.75829 -4.39934,0.33271 -8.78237,0.82877 -13.18417,1.12465 -1.69248,0 -1.69248,-2.36686 0,-2.36686 z"
       id="path10455"
       style="fill:#000000;fill-opacity:1;fill-rule:nonzero;stroke:none" />
    <path
       inkscape:connector-curvature="0"
       d="m 299.31732,444.45312 c -1.15585,0.50608 -2.25623,1.11772 -3.38359,1.68365 -0.49521,0.12346 -1.62235,1.09183 -0.42698,-0.0615 0.116,-0.31004 -0.0385,0.60581 0.0783,0.26225 0.20889,0.52687 0.64062,0.83744 1.03798,1.2114 0.58226,0.59043 1.31922,1.01202 1.97908,1.51645 0.0492,0.0135 1.56765,1.30321 1.01666,0.84601 0.51542,0.27153 0.901,0.69038 1.23897,1.15015 0.26757,0.33052 0.30582,0.77009 0.30838,1.17952 -0.002,0.51139 -0.004,1.02278 -0.006,1.53417 0.0679,1.27178 -1.05513,1.89051 -2.03565,2.39867 -0.98239,0.51247 -1.98001,0.77156 -3.08403,0.69119 -0.99167,-0.17023 -1.75533,-0.80296 -2.38981,-1.5358 -0.15818,-0.20245 -0.0863,-0.10503 -0.21732,-0.29097 -0.95358,-1.3827 1.02388,-2.71624 1.97746,-1.33354 l 0,0 c 0.12006,0.17056 -0.18093,-0.23984 0.0686,0.0975 0.24791,0.29837 0.52672,0.63236 0.91203,0.72152 0.49583,0.0218 1.13613,-0.18798 1.64474,-0.45796 0.65552,-0.31633 0.0117,0.0112 0.67981,-0.38412 0.10122,-0.0599 0.0273,0.46089 0.05,0.34642 0.0169,-0.0856 4e-4,-0.17438 5.7e-4,-0.26158 0.002,-0.50449 0.004,-1.00898 0.006,-1.51348 -0.002,-0.39479 -0.0483,-0.43782 0.14271,0.19143 -0.0668,-0.09 -0.40986,-0.41702 -0.19556,-0.33956 -0.58984,-0.31898 -1.07732,-0.73367 -1.58617,-1.17055 -0.72421,-0.55997 -1.53671,-1.02147 -2.17341,-1.68306 -0.65362,-0.63902 -1.32577,-1.23124 -1.63157,-2.12429 -0.1656,-0.6408 -0.25731,-1.2202 -0.0685,-1.86801 0.57652,-0.68569 0.79839,-0.91467 1.59033,-1.2328 1.13128,-0.56775 2.23874,-1.17812 3.39653,-1.69009 1.51379,-0.74847 2.58421,1.36852 1.07041,2.11699 z"
       id="path10457"
       style="fill:#000000;fill-opacity:1;fill-rule:nonzero;stroke:none" />
    <path
       inkscape:connector-curvature="0"
       d="m 317.64096,432.65087 c 1.21578,-1.5412 2.53997,-3.02009 4.10006,-4.22605 1.38906,-0.88879 2.96786,-1.36944 4.6164,-1.29002 1.47205,0.24903 2.21589,0.68277 2.61033,2.18876 0.19407,1.68 0.1886,3.38589 0.0344,5.06783 -0.18393,2.0686 -0.65991,4.0636 -1.54169,5.9468 -0.83911,1.75162 -1.90166,3.39768 -3.01789,4.98851 -0.89726,1.29557 -2.06588,2.37501 -2.94059,3.68331 -0.171,0.25828 -0.36891,0.61439 -0.47932,0.87037 0.20224,-0.84652 -0.13794,0.0528 -1.18655,-1.5351 -0.0686,-0.10392 0.25042,-0.0179 0.37585,-0.0221 0.18942,-0.006 0.86283,-0.004 0.98859,-0.004 1.84629,0.006 3.69259,0.0101 5.53889,0.0125 1.75552,0.002 3.51104,0.002 5.26657,0.003 0.0289,-0.0705 1.86382,0.0983 1.31498,-0.0373 1.42461,-0.90359 2.71687,1.08867 1.29227,1.99226 l 0,0 c -0.83765,0.4534 -1.67048,0.45645 -2.60759,0.41195 -1.75645,-2.4e-4 -3.51291,-5.7e-4 -5.26937,-0.003 -1.84543,-0.002 -3.69086,-0.006 -5.53629,-0.0125 -0.91437,-2.9e-4 -2.86845,-0.14568 -2.43643,-1.5875 0.18463,-0.49704 0.46559,-0.95221 0.74646,-1.40059 0.89285,-1.31721 2.03233,-2.43417 2.96737,-3.7222 1.04312,-1.48001 2.03303,-3.01466 2.81731,-4.64505 0.78945,-1.62482 1.15067,-3.37429 1.32475,-5.1641 0.14789,-1.44042 0.11938,-2.89745 0.009,-4.3409 -0.0273,-0.44068 0.55912,0.25542 0.27211,-0.0739 -0.15521,-0.17812 -0.56898,-0.15405 -0.76059,-0.25962 -0.97036,-0.22432 -2.10341,0.40425 -2.93935,0.80861 -1.40763,1.04855 -2.54596,2.41888 -3.64505,3.77049 -1.01549,1.3389 -2.93031,-0.0812 -1.91482,-1.42012 z"
       id="path10459"
       style="fill:#000000;fill-opacity:1;fill-rule:nonzero;stroke:none" />
    <path
       style="fill:#000000;fill-opacity:1;fill-rule:nonzero;stroke:none"
       id="path10469"
       d="m 319.05198,419.04005 c -1.66083,2.81317 -2.9263,5.82962 -4.14927,8.84715 -1.9871,5.14152 -3.60868,10.41616 -5.22262,15.68174 -1.48253,5.11535 -2.98968,10.23174 -4.29635,15.39507 -0.40551,1.79252 -0.80648,3.5917 -1.04624,5.41483 -0.0753,0.57223 0.17104,0.0149 -2.2682,-0.3882 2.16388,0.85838 2.47508,0.17729 2.17152,1.02378 -0.56442,1.57782 -2.82094,0.7885 -2.25652,-0.78932 l 0,0 c 0.29416,-0.82025 2.61368,-0.29965 2.3527,0.52285 -1.65477,0.0549 -2.60473,0.73908 -2.37282,-0.67599 0.25416,-1.91305 0.6678,-3.80227 1.09771,-5.68281 1.31741,-5.20052 2.83319,-10.35458 4.32759,-15.5068 1.6343,-5.33118 3.27681,-10.67137 5.29162,-15.87597 1.27109,-3.13367 2.58959,-6.26446 4.31845,-9.18407 0.87077,-1.43512 2.9232,-0.21738 2.05243,1.21774 z"
       inkscape:connector-curvature="0" />
    <path
       style="fill:#000000;fill-opacity:1;fill-rule:nonzero;stroke:none"
       id="path10479"
       d="m 538.025,538.37236 c -2.67119,0.99625 -4.52075,2.87619 -6.2528,5.04643 -2.58411,3.71033 -3.68213,8.01654 -3.80518,12.46564 0.16939,2.21205 1.01392,4.90871 3.76756,4.67215 0.48358,-0.0416 0.95197,-0.18817 1.42796,-0.28225 3.65624,-1.33899 5.43575,-4.54013 6.82931,-7.91421 0.83301,1.43041 -0.085,-1.96895 0.0707,-1.49457 0.0584,0.17781 -0.0143,0.4129 0.11511,0.54919 0.19726,0.20773 0.58019,0.17219 0.77192,0.38493 0.0574,0.0637 -0.36401,1.1252 -0.44215,1.33707 -0.56842,1.95384 -1.15597,4.53838 0.75422,5.98425 0.33114,0.25065 0.72155,0.41364 1.08233,0.62045 3.64303,1.20516 7.02083,-0.2692 9.93225,-2.41042 2.67071,-2.64653 3.14234,-5.25341 2.36621,-8.80429 -0.74351,-2.76446 -2.3755,-5.12924 -3.83937,-7.55257 -0.0945,-0.19038 -1.0925,-1.77421 -0.67482,-1.15804 -1.27448,-1.10122 0.30043,-2.88354 1.57491,-1.78231 l 0,0 c 0.47581,0.51948 0.80255,1.11719 1.15476,1.7266 1.60246,2.65287 3.36263,5.25314 4.13016,8.29523 0.13096,0.67138 0.32399,1.33379 0.39286,2.01415 0.36253,3.58145 -1.08582,6.73949 -3.69036,9.17068 -3.1472,2.25045 -6.53552,3.91687 -10.5663,3.15493 -0.71132,-0.13446 -1.37863,-0.43918 -2.06795,-0.65877 -0.54022,-0.36179 -1.1423,-0.6466 -1.62065,-1.08536 -2.43252,-2.2312 -2.04952,-5.56532 -1.15064,-8.39342 0.29528,-0.6896 0.77015,-2.20416 1.60218,-2.57913 2.80815,-1.26557 2.85323,1.98611 2.31851,3.58105 -1.73529,4.15266 -4.09253,7.89855 -8.66062,9.351 -1.72584,0.23316 -2.55026,0.57358 -4.24909,-0.10655 -2.75655,-1.10358 -3.51343,-4.08036 -3.72136,-6.69336 0.17533,-5.03816 1.37797,-9.67345 4.32407,-13.86512 2.00245,-2.47403 4.1803,-4.62859 7.23735,-5.77096 1.57143,-0.62157 2.46036,1.57601 0.88893,2.19758 z"
       inkscape:connector-curvature="0" />
    <path
       style="fill:#000000;fill-opacity:1;fill-rule:nonzero;stroke:none"
       id="path10487"
       d="m 563.46955,556.88948 c -1.1158,-0.51129 -2.2273,-0.92447 -3.46489,-0.86275 -0.94544,0.40744 -1.12337,1.77041 -1.19174,2.66349 0.11377,1.81719 0.66841,3.54446 1.23145,5.26284 0.44984,1.33083 0.62887,2.72262 0.72492,4.11597 0.13742,1.22354 0.0204,2.24542 -0.7301,3.24655 -0.14308,0.11417 -0.28616,0.22832 -0.42924,0.34248 -1.36142,0.99429 -2.78339,-0.90962 -1.42196,-1.9039 l 0,0 c 0.0256,-0.009 0.0512,-0.0181 0.0769,-0.0271 0.0241,0.33207 0.31038,-1.36065 0.11635,-1.49866 -0.0809,-1.19985 -0.22519,-2.39994 -0.61391,-3.54602 -0.66566,-2.03309 -1.31027,-4.08914 -1.33378,-6.24877 0.27993,-2.13608 1.05869,-4.36101 3.48906,-4.77231 1.64245,-0.0389 3.14361,0.40158 4.6174,1.11124 1.5138,0.74846 0.44338,2.86545 -1.07042,2.11698 z"
       inkscape:connector-curvature="0" />
    <path
       style="fill:#000000;fill-opacity:1;fill-rule:nonzero;stroke:none"
       id="path10489"
       d="m 554.25703,562.65446 c 1.99419,-0.43695 3.97723,-0.89546 6.00198,-1.18819 0.99621,-0.16521 1.98233,-0.20061 2.98748,-0.1609 1.69026,0.0857 1.56774,2.44943 -0.12252,2.36376 l 0,0 c -0.84792,-0.0572 -1.67804,0.0165 -2.52004,0.13931 -1.98335,0.28438 -3.92376,0.74078 -5.87749,1.16692 -1.65961,0.32823 -2.12902,-1.99267 -0.46941,-2.3209 z"
       inkscape:connector-curvature="0" />
    <path
       inkscape:connector-curvature="0"
       d="m 736.89292,543.06658 c -2.6712,0.99626 -4.52076,2.8762 -6.25281,5.04644 -2.5841,3.71033 -3.68213,8.01654 -3.80518,12.46564 0.16939,2.21205 1.01392,4.90871 3.76756,4.67215 0.48358,-0.0416 0.95198,-0.18817 1.42796,-0.28225 3.65625,-1.339 5.43575,-4.54013 6.82931,-7.91421 0.83301,1.43041 -0.085,-1.96895 0.0707,-1.49457 0.0584,0.17781 -0.0143,0.4129 0.11511,0.54919 0.19727,0.20773 0.58019,0.17219 0.77192,0.38493 0.0574,0.0637 -0.364,1.1252 -0.44215,1.33707 -0.56841,1.95384 -1.15597,4.53838 0.75422,5.98425 0.33114,0.25065 0.72156,0.41364 1.08233,0.62045 3.64303,1.20516 7.02084,-0.2692 9.93225,-2.41042 2.67072,-2.64653 3.14234,-5.25341 2.36622,-8.80429 -0.74352,-2.76446 -2.37551,-5.12924 -3.83937,-7.55257 -0.0945,-0.19038 -1.09251,-1.77422 -0.67482,-1.15804 -1.27449,-1.10123 0.30042,-2.88354 1.57491,-1.78232 l 0,0 c 0.4758,0.51949 0.80254,1.11719 1.15475,1.72661 1.60246,2.65286 3.36263,5.25314 4.13017,8.29523 0.13095,0.67138 0.32399,1.33379 0.39285,2.01415 0.36253,3.58145 -1.08582,6.73949 -3.69036,9.17068 -3.1472,2.25044 -6.53552,3.91687 -10.56629,3.15493 -0.71133,-0.13446 -1.37864,-0.43918 -2.06796,-0.65877 -0.54021,-0.36179 -1.1423,-0.6466 -1.62065,-1.08536 -2.43252,-2.2312 -2.04952,-5.56532 -1.15064,-8.39342 0.29528,-0.6896 0.77015,-2.20416 1.60218,-2.57913 2.80815,-1.26557 2.85324,1.98611 2.31852,3.58105 -1.7353,4.15266 -4.09254,7.89855 -8.66063,9.351 -1.72584,0.23316 -2.55026,0.57358 -4.24909,-0.10655 -2.75655,-1.10359 -3.51342,-4.08036 -3.72135,-6.69336 0.17532,-5.03816 1.37796,-9.67345 4.32406,-13.86512 2.00245,-2.47403 4.1803,-4.6286 7.23736,-5.77097 1.57142,-0.62157 2.46036,1.57601 0.88893,2.19758 z"
       id="path10491"
       style="fill:#000000;fill-opacity:1;fill-rule:nonzero;stroke:none" />
    <path
       inkscape:connector-curvature="0"
       d="m 762.33747,561.58371 c -1.11581,-0.51129 -2.22731,-0.92447 -3.4649,-0.86275 -0.94544,0.40744 -1.12336,1.77041 -1.19173,2.66349 0.11377,1.81719 0.66841,3.54446 1.23144,5.26283 0.44984,1.33084 0.62888,2.72263 0.72493,4.11598 0.13741,1.22354 0.0204,2.24542 -0.73011,3.24655 -0.14308,0.11416 -0.28615,0.22832 -0.42923,0.34248 -1.36143,0.99428 -2.7834,-0.90962 -1.42197,-1.9039 l 0,0 c 0.0256,-0.009 0.0512,-0.0181 0.0769,-0.0271 0.0241,0.33207 0.31038,-1.36065 0.11635,-1.49866 -0.0809,-1.19985 -0.22519,-2.39994 -0.61391,-3.54602 -0.66566,-2.03309 -1.31027,-4.08914 -1.33377,-6.24877 0.27993,-2.13608 1.05868,-4.36101 3.48905,-4.77231 1.64246,-0.0389 3.14362,0.40158 4.6174,1.11124 1.5138,0.74846 0.44339,2.86545 -1.07041,2.11698 z"
       id="path10493"
       style="fill:#000000;fill-opacity:1;fill-rule:nonzero;stroke:none" />
    <path
       inkscape:connector-curvature="0"
       d="m 753.12494,567.34869 c 1.9942,-0.43695 3.97724,-0.89546 6.00198,-1.18819 0.99622,-0.16521 1.98233,-0.20061 2.98748,-0.1609 1.69026,0.0857 1.56774,2.44943 -0.12252,2.36376 l 0,0 c -0.84792,-0.0572 -1.67804,0.0165 -2.52004,0.13931 -1.98335,0.28438 -3.92376,0.74078 -5.87748,1.16692 -1.65962,0.32823 -2.12903,-1.99267 -0.46942,-2.3209 z"
       id="path10495"
       style="fill:#000000;fill-opacity:1;fill-rule:nonzero;stroke:none" />
    <path
       style="fill:#000000;fill-opacity:1;fill-rule:nonzero;stroke:none"
       id="path10497"
       d="m 414.81824,540.18914 c -2.67119,0.99626 -4.52075,2.8762 -6.2528,5.04644 -2.58411,3.71033 -3.68213,8.01654 -3.80518,12.46564 0.16939,2.21205 1.01392,4.90871 3.76756,4.67215 0.48358,-0.0416 0.95197,-0.18817 1.42796,-0.28225 3.65624,-1.33899 5.43575,-4.54013 6.8293,-7.91421 0.83302,1.43041 -0.085,-1.96895 0.0707,-1.49457 0.0584,0.17782 -0.0143,0.4129 0.11511,0.54919 0.19726,0.20773 0.58019,0.17219 0.77192,0.38493 0.0574,0.0637 -0.36401,1.1252 -0.44215,1.33707 -0.56842,1.95384 -1.15597,4.53838 0.75422,5.98425 0.33114,0.25065 0.72155,0.41364 1.08233,0.62045 3.64302,1.20516 7.02083,-0.2692 9.93225,-2.41041 2.67071,-2.64654 3.14234,-5.25341 2.36621,-8.8043 -0.74352,-2.76446 -2.3755,-5.12924 -3.83937,-7.55257 -0.0945,-0.19038 -1.0925,-1.77422 -0.67482,-1.15804 -1.27448,-1.10122 0.30043,-2.88354 1.57491,-1.78232 l 0,0 c 0.47581,0.51949 0.80255,1.1172 1.15476,1.72661 1.60246,2.65287 3.36263,5.25314 4.13016,8.29523 0.13096,0.67138 0.32399,1.33379 0.39286,2.01415 0.36253,3.58145 -1.08582,6.73949 -3.69036,9.17068 -3.1472,2.25045 -6.53552,3.91687 -10.5663,3.15494 -0.71132,-0.13447 -1.37863,-0.43919 -2.06795,-0.65878 -0.54022,-0.36179 -1.1423,-0.6466 -1.62065,-1.08536 -2.43252,-2.2312 -2.04952,-5.56532 -1.15064,-8.39342 0.29528,-0.6896 0.77015,-2.20416 1.60218,-2.57913 2.80815,-1.26557 2.85323,1.98611 2.31851,3.58105 -1.73529,4.15266 -4.09254,7.89855 -8.66062,9.351 -1.72584,0.23316 -2.55026,0.57358 -4.24909,-0.10655 -2.75655,-1.10358 -3.51343,-4.08036 -3.72136,-6.69336 0.17533,-5.03816 1.37797,-9.67345 4.32407,-13.86512 2.00245,-2.47403 4.1803,-4.6286 7.23735,-5.77097 1.57143,-0.62156 2.46036,1.57602 0.88893,2.19758 z"
       inkscape:connector-curvature="0" />
    <path
       style="fill:#000000;fill-opacity:1;fill-rule:nonzero;stroke:none"
       id="path10499"
       d="m 440.26279,558.70627 c -1.1158,-0.51129 -2.2273,-0.92447 -3.46489,-0.86275 -0.94545,0.40744 -1.12337,1.77041 -1.19174,2.66349 0.11377,1.81719 0.66841,3.54446 1.23144,5.26284 0.44985,1.33083 0.62888,2.72262 0.72493,4.11597 0.13742,1.22354 0.0204,2.24542 -0.7301,3.24655 -0.14308,0.11417 -0.28616,0.22832 -0.42924,0.34248 -1.36142,0.99429 -2.78339,-0.90962 -1.42196,-1.9039 l 0,0 c 0.0256,-0.009 0.0512,-0.0181 0.0769,-0.0271 0.0241,0.33207 0.31038,-1.36065 0.11635,-1.49866 -0.0809,-1.19985 -0.2252,-2.39994 -0.61391,-3.54601 -0.66566,-2.0331 -1.31027,-4.08915 -1.33378,-6.24878 0.27993,-2.13608 1.05869,-4.36101 3.48906,-4.77231 1.64245,-0.0389 3.14361,0.40158 4.6174,1.11124 1.5138,0.74846 0.44338,2.86545 -1.07042,2.11698 z"
       inkscape:connector-curvature="0" />
    <path
       style="fill:#000000;fill-opacity:1;fill-rule:nonzero;stroke:none"
       id="path10501"
       d="m 431.05027,564.47125 c 1.99419,-0.43695 3.97723,-0.89546 6.00198,-1.18819 0.99621,-0.1652 1.98233,-0.20061 2.98748,-0.1609 1.69026,0.0857 1.56774,2.44943 -0.12252,2.36376 l 0,0 c -0.84792,-0.0572 -1.67804,0.0165 -2.52004,0.13931 -1.98335,0.28438 -3.92376,0.74078 -5.87749,1.16693 -1.65961,0.32822 -2.12902,-1.99268 -0.46941,-2.32091 z"
       inkscape:connector-curvature="0" />
    <path
       inkscape:connector-curvature="0"
       d="m 703.543,548.58105 c 1.21578,-1.5412 2.53997,-3.02009 4.10006,-4.22605 1.38906,-0.88879 2.96786,-1.36945 4.6164,-1.29002 1.47205,0.24903 2.21589,0.68277 2.61033,2.18875 0.19407,1.68 0.1886,3.3859 0.0344,5.06784 -0.18394,2.06859 -0.65992,4.0636 -1.5417,5.9468 -0.83911,1.75162 -1.90165,3.39768 -3.01788,4.98851 -0.89727,1.29557 -2.06589,2.37501 -2.9406,3.68331 -0.17099,0.25828 -0.3689,0.61439 -0.47932,0.87037 0.20225,-0.84653 -0.13794,0.0528 -1.18655,-1.5351 -0.0686,-0.10392 0.25042,-0.0179 0.37585,-0.0221 0.18942,-0.006 0.86283,-0.004 0.98859,-0.004 1.84629,0.006 3.69259,0.0101 5.53889,0.0125 1.75552,0.002 3.51104,0.002 5.26657,0.003 0.0289,-0.0705 1.86382,0.0983 1.31498,-0.0373 1.42461,-0.90359 2.71687,1.08867 1.29227,1.99226 l 0,0 c -0.83765,0.4534 -1.67047,0.45645 -2.60759,0.41195 -1.75645,-2.5e-4 -3.51291,-5.7e-4 -5.26936,-0.003 -1.84544,-0.002 -3.69087,-0.006 -5.53629,-0.0125 -0.91437,-2.9e-4 -2.86846,-0.14568 -2.43644,-1.58751 0.18463,-0.49704 0.46559,-0.9522 0.74646,-1.40058 0.89285,-1.31721 2.03233,-2.43417 2.96737,-3.7222 1.04312,-1.48001 2.03303,-3.01466 2.81731,-4.64506 0.78945,-1.62481 1.15067,-3.37429 1.32475,-5.16409 0.14789,-1.44042 0.11938,-2.89745 0.009,-4.3409 -0.0272,-0.44068 0.55912,0.25542 0.27211,-0.074 -0.15521,-0.17813 -0.56898,-0.15405 -0.76059,-0.25962 -0.97036,-0.22432 -2.1034,0.40425 -2.93935,0.80861 -1.40763,1.04855 -2.54596,2.41888 -3.64505,3.77049 -1.01548,1.3389 -2.93031,-0.0812 -1.91482,-1.42012 z"
       id="path10503"
       style="fill:#000000;fill-opacity:1;fill-rule:nonzero;stroke:none" />
    <path
       style="fill:#000000;fill-opacity:1;fill-rule:nonzero;stroke:none"
       id="path10505"
       d="m 456.46548,548.85943 c 1.21578,-1.5412 2.53997,-3.02009 4.10006,-4.22605 1.38906,-0.88879 2.96786,-1.36945 4.6164,-1.29002 1.47205,0.24903 2.21589,0.68277 2.61033,2.18875 0.19407,1.68 0.1886,3.3859 0.0344,5.06784 -0.18394,2.06859 -0.65992,4.0636 -1.5417,5.9468 -0.83911,1.75162 -1.90165,3.39768 -3.01788,4.98851 -0.89727,1.29557 -2.06589,2.37501 -2.9406,3.68331 -0.17099,0.25828 -0.3689,0.61439 -0.47932,0.87037 0.20225,-0.84653 -0.13794,0.0528 -1.18655,-1.5351 -0.0686,-0.10392 0.25042,-0.0179 0.37585,-0.0221 0.18942,-0.006 0.86283,-0.004 0.9886,-0.004 1.84628,0.006 3.69258,0.0101 5.53888,0.0125 1.75552,0.002 3.51105,0.002 5.26657,0.003 0.0289,-0.0705 1.86382,0.0983 1.31498,-0.0373 1.42462,-0.90359 2.71688,1.08867 1.29227,1.99226 l 0,0 c -0.83765,0.4534 -1.67047,0.45645 -2.60758,0.41195 -1.75646,-2.5e-4 -3.51292,-5.7e-4 -5.26937,-0.003 -1.84544,-0.002 -3.69086,-0.006 -5.53629,-0.0125 -0.91437,-2.9e-4 -2.86846,-0.14568 -2.43644,-1.58751 0.18463,-0.49704 0.46559,-0.9522 0.74646,-1.40058 0.89285,-1.31721 2.03233,-2.43417 2.96737,-3.7222 1.04312,-1.48001 2.03303,-3.01466 2.81732,-4.64506 0.78945,-1.62481 1.15066,-3.37429 1.32474,-5.16409 0.14789,-1.44042 0.11939,-2.89745 0.009,-4.3409 -0.0272,-0.44068 0.55912,0.25542 0.27211,-0.074 -0.15521,-0.17813 -0.56897,-0.15405 -0.76059,-0.25962 -0.97036,-0.22432 -2.1034,0.40425 -2.93935,0.80861 -1.40763,1.04855 -2.54596,2.41888 -3.64505,3.77049 -1.01548,1.3389 -2.93031,-0.0812 -1.91482,-1.42012 z"
       inkscape:connector-curvature="0" />
    <path
       inkscape:connector-curvature="0"
       d="m 457.8765,535.24861 c -1.66083,2.81317 -2.9263,5.82962 -4.14927,8.84715 -1.98709,5.14152 -3.60868,10.41615 -5.22262,15.68174 -1.48253,5.11535 -2.98968,10.23174 -4.29634,15.39507 -0.40552,1.79251 -0.80648,3.5917 -1.04625,5.41483 -0.0753,0.57223 0.17104,0.0149 -2.26819,-0.3882 2.16388,0.85837 2.47508,0.17729 2.17151,1.02378 -0.56442,1.57782 -2.82093,0.7885 -2.25651,-0.78932 l 0,0 c 0.29415,-0.82025 2.61367,-0.29965 2.3527,0.52284 -1.65478,0.0549 -2.60474,0.73909 -2.37283,-0.67598 0.25417,-1.91305 0.6678,-3.80227 1.09771,-5.68281 1.31742,-5.20052 2.83319,-10.35458 4.32759,-15.5068 1.63431,-5.33118 3.27682,-10.67138 5.29162,-15.87597 1.2711,-3.13367 2.5896,-6.26446 4.31845,-9.18407 0.87077,-1.43512 2.9232,-0.21738 2.05243,1.21774 z"
       id="path10507"
       style="fill:#000000;fill-opacity:1;fill-rule:nonzero;stroke:none" />
    <path
       style="fill:#000000;fill-opacity:1;fill-rule:nonzero;stroke:none"
       id="path10509"
       d="m 342.99312,337.06866 c 2.24751,1.00902 4.66595,1.53887 7.0834,1.94906 0.831,0.12589 1.66404,0.2506 2.50328,0.30514 0.1317,-0.1176 1.60846,0.53366 2.22797,0.86661 0.43744,0.12616 0.19308,0.0553 0.73293,0.21313 2.83044,0.85209 1.62541,4.85495 -1.20504,4.00286 l 0,0 c -0.96491,-0.29596 -0.45876,-0.1214 -1.51363,-0.53743 -2.76398,-1.49721 1.11446,-0.10625 -0.46014,-0.37055 -1.00228,-0.0557 -1.99636,-0.21164 -2.98816,-0.35895 -2.82155,-0.48341 -5.63866,-1.12422 -8.2501,-2.33089 -2.64385,-1.32193 -0.77436,-5.06091 1.86949,-3.73898 z"
       inkscape:connector-curvature="0" />
    <path
       style="fill:#000000;fill-opacity:1;fill-rule:nonzero;stroke:none"
       id="path10511"
       d="m 340.83162,436.84199 c 2.4434,0 4.88679,0 7.33018,0 0.82114,0 1.64227,0 2.46341,0 0.38667,0 0.77334,0 1.16001,0 0.22514,0 0.45027,0 0.6754,0 2.95592,0 2.95592,4.1803 0,4.1803 l 0,0 c -0.22513,0 -0.45026,0 -0.6754,0 -0.38667,0 -0.77334,0 -1.16001,0 -0.82114,0 -1.64227,0 -2.46341,0 -2.44339,0 -4.88678,0 -7.33018,0 -2.95592,0 -2.95592,-4.1803 0,-4.1803 z"
       inkscape:connector-curvature="0" />
    <path
       style="fill:#000000;fill-opacity:1;fill-rule:nonzero;stroke:none"
       id="path10515"
       d="m 438.23542,520.58478 c 0,2.78599 0,5.57198 0,8.35796 0,1.41892 0,2.83785 0,4.25677 0,0.17653 0,0.35306 0,0.52959 0,2.95592 -4.18031,2.95592 -4.18031,0 l 0,0 c 0,-0.17653 0,-0.35306 0,-0.52959 0,-1.41892 0,-2.83785 0,-4.25677 0,-2.78598 0,-5.57197 0,-8.35796 0,-2.95592 4.18031,-2.95592 4.18031,0 z"
       inkscape:connector-curvature="0" />
    <path
       style="fill:#000000;fill-opacity:1;fill-rule:nonzero;stroke:none"
       id="path10519"
       d="m 541.45391,519.91117 c 0.50302,1.95303 0.87105,3.93886 1.11696,5.93987 0.10672,0.85711 0.17164,1.71669 0.18134,2.58 0.002,0.67783 -0.002,1.35565 -0.006,2.03347 -7.8e-4,0.14878 -0.002,0.29756 -0.003,0.44635 -0.0236,2.95583 -4.20378,2.92245 -4.18017,-0.0334 l 0,0 c 10e-4,-0.14537 0.002,-0.29074 0.003,-0.43611 0.004,-0.65537 0.008,-1.31075 0.006,-1.96613 -0.007,-0.70854 -0.0634,-1.41351 -0.15071,-2.11708 -0.22233,-1.8307 -0.5629,-3.64678 -1.02301,-5.43312 -0.71692,-2.86766 3.33857,-3.88154 4.05549,-1.01387 z"
       inkscape:connector-curvature="0" />
    <path
       style="fill:#000000;fill-opacity:1;fill-rule:nonzero;stroke:none"
       id="path10521"
       d="m 735.03715,521.97822 c 0,2.44339 0,4.88679 0,7.33018 0,1.0102 0,2.0204 0,3.0306 0,0.80733 0,1.61466 0,2.42199 0,0.10645 0,0.2129 0,0.31934 0,2.95593 -4.1803,2.95593 -4.1803,0 l 0,0 c 0,-0.10644 0,-0.21289 0,-0.31934 0,-0.80733 0,-1.61466 0,-2.42199 0,-1.0102 0,-2.0204 0,-3.0306 0,-2.44339 0,-4.88679 0,-7.33018 0,-2.95592 4.1803,-2.95592 4.1803,0 z"
       inkscape:connector-curvature="0" />
    <path
       style="fill:#000000;fill-opacity:1;fill-rule:nonzero;stroke:none"
       id="path10523"
       d="m 383.69246,262.51669 c 3.24418,-1.34702 5.8747,-3.95017 8.59421,-6.13182 3.99691,-3.58562 8.56358,-6.32238 13.35879,-8.68148 6.22956,-2.83298 12.55359,-5.49474 18.97221,-7.87311 2.02552,-0.75166 4.12495,-1.24987 6.2269,-1.7266 0.96097,-0.21767 1.2688,1.14133 0.30784,1.35901 l 0,0 c -2.04245,0.46203 -4.08265,0.94414 -6.05072,1.67425 -6.37464,2.36059 -12.65402,5.00626 -18.84155,7.81699 -4.70584,2.31097 -9.1825,4.99799 -13.10153,8.51786 -2.87442,2.30587 -5.65215,5.05953 -9.12819,6.39673 -0.95589,0.23897 -1.29385,-1.11286 -0.33796,-1.35183 z"
       inkscape:connector-curvature="0" />
    <path
       style="fill:#000000;fill-opacity:1;fill-rule:nonzero;stroke:none"
       id="path10525"
       d="m 453.22163,424.04126 c 2.60828,-1.75931 4.78498,-4.05551 7.18795,-6.0689 3.09778,-2.64348 6.42239,-4.99103 9.73783,-7.34812 4.10099,-2.97729 8.59347,-5.30166 13.14716,-7.49034 0.88808,-0.4268 1.49166,0.82913 0.60359,1.25592 l 0,0 c -4.48269,2.15413 -8.90671,4.43862 -12.94335,7.3701 -3.28561,2.33586 -6.58126,4.66093 -9.65089,7.281 -2.4871,2.0792 -4.72654,4.47476 -7.45913,6.24667 -0.88129,0.44064 -1.50445,-0.80568 -0.62316,-1.24633 z"
       inkscape:connector-curvature="0" />
    <path
       style="fill:#000000;fill-opacity:1;fill-rule:nonzero;stroke:none"
       id="path10527"
       d="m 607.24801,486.72408 c 1.06721,-2.7172 1.93794,-5.52646 2.72314,-8.34034 1.11022,-3.68613 2.07629,-7.42459 2.80736,-11.2053 1.00253,-4.54514 1.95778,-9.13691 1.97884,-13.80556 -0.35201,-2.44997 -0.13608,-1.2455 -0.6425,-3.61436 -0.20506,-0.96373 1.15787,-1.25372 1.36292,-0.28999 l 0,0 c 0.53629,2.53201 0.30758,1.2284 0.67299,3.91312 -0.0379,4.75503 -0.96818,9.43294 -2.00425,14.06181 -0.74083,3.81711 -1.71149,7.59319 -2.83332,11.31524 -0.81079,2.89841 -1.70281,5.79536 -2.81885,8.58855 -0.44064,0.88128 -1.68697,0.25812 -1.24633,-0.62317 z"
       inkscape:connector-curvature="0" />
    <path
       style="fill:#000000;fill-opacity:1;fill-rule:nonzero;stroke:none"
       id="path10533"
       d="m 456.28173,227.3973 c -2.29788,-0.70856 -4.65997,-1.04098 -7.08298,-0.87457 -3.93044,0.44683 -5.41293,2.58712 -6.90649,5.58254 -1.85168,4.63817 -1.54613,7.942 0.85627,12.31553 1.96182,2.75078 4.73728,4.65887 8.53533,4.60713 2.34529,-0.3048 3.51893,-1.68523 4.29323,-3.5285 0.52181,-1.5209 0.62163,-3.11301 0.65243,-4.69147 -3.5e-4,-0.42888 0.005,-0.85882 -0.0316,-1.28681 0.004,0.0249 -0.0167,0.0827 0.0138,0.0846 3.11735,0.18837 2.38601,-0.45563 3.01567,1.49502 0.68262,2.33946 1.48741,4.65707 2.35563,6.94833 0.51217,1.21957 0.97624,2.45498 1.39115,3.70297 0.51834,1.56007 -1.98163,2.20699 -2.49997,0.64692 l 0,0 c -0.40543,-1.22114 -0.86196,-2.42908 -1.36254,-3.62239 -0.87735,-2.32678 -1.69986,-4.67721 -2.39177,-7.05204 -0.21523,-0.67988 -0.2715,-0.79478 -0.40849,-1.41408 -0.30904,-1.39715 -0.30304,-0.74894 2.45135,-1.17127 0.008,-0.001 0.0282,0.1647 0.0303,0.18068 0.0484,0.50823 0.0396,1.0194 0.0412,1.52884 -0.0381,1.84713 -0.17738,3.70728 -0.8264,5.47776 -1.30388,2.90205 -3.11736,4.58222 -6.76772,5.0003 -0.63822,-0.0214 -1.2842,0.0257 -1.91466,-0.0644 -3.86865,-0.55303 -6.98325,-2.98102 -8.92883,-5.85247 -0.37386,-0.70256 -0.81059,-1.38163 -1.12159,-2.10766 -1.70591,-3.9824 -1.43744,-8.19533 0.24134,-12.14043 2.08472,-4.01437 3.90047,-6.26442 9.10064,-6.93268 2.69577,-0.15117 5.33784,0.13571 7.89648,0.93762 1.78717,0.39431 1.15531,2.62482 -0.63186,2.23052 z"
       inkscape:connector-curvature="0" />
    <path
       style="fill:#000000;fill-opacity:1;fill-rule:nonzero;stroke:none"
       id="path10535"
       d="m 451.55757,236.71994 c 2.6695,0 5.33899,0 8.00848,0 1.38924,0 2.77847,0 4.1677,0 0.0495,0 0.0989,0 0.1484,0 1.84217,0 1.84217,2.29917 0,2.29917 l 0,0 c -0.0495,0 -0.0989,0 -0.1484,0 -1.38923,0 -2.77846,0 -4.1677,0 -2.66949,0 -5.33898,0 -8.00848,0 -1.84217,0 -1.84217,-2.29917 0,-2.29917 z"
       inkscape:connector-curvature="0" />
    <path
       style="fill:#000000;fill-opacity:1;fill-rule:nonzero;stroke:none"
       id="path10537"
       d="m 474.13616,231.35523 c 2.08045,-0.0132 4.14548,-0.0715 6.2022,0.23479 0.9351,0.22407 1.91991,0.29465 2.838,0.57088 1.69979,0.62672 0.69548,2.74818 -1.00431,2.12146 l 0,0 c 0.65426,0.13359 -3.00403,-0.56154 -2.27441,-0.42631 -1.90787,-0.295 -3.83054,-0.19536 -5.76148,-0.20166 -1.84217,0 -1.84217,-2.29916 0,-2.29916 z"
       inkscape:connector-curvature="0" />
    <path
       style="fill:#000000;fill-opacity:1;fill-rule:nonzero;stroke:none"
       id="path10539"
       d="m 473.37593,238.37872 c 1.36438,0.42811 2.71196,0.33694 4.1193,0.21275 1.24177,-0.13589 2.48704,-0.23908 3.73588,-0.30622 0.95797,-0.0931 1.75552,-0.0414 2.52791,0.52668 0.39587,0.62869 0.19632,0.44173 0.44589,0.66246 0.96992,1.38217 -1.24495,2.5927 -2.21488,1.21054 l 0,0 c -0.31722,-0.49263 -0.40461,-0.54167 -0.0902,-0.26238 0.43128,0.20255 -0.18182,-0.0617 0.61496,0.12736 0.3625,0.086 -1.49377,-0.0343 -1.1256,0.0302 -1.21561,0.0651 -2.42748,0.16718 -3.6362,0.29917 -1.69619,0.14808 -3.36472,0.21836 -5.00894,-0.27011 -1.78717,-0.3943 -1.15531,-2.62482 0.63186,-2.23052 z"
       inkscape:connector-curvature="0" />
    <path
       style="fill:#000000;fill-opacity:1;fill-rule:nonzero;stroke:none"
       id="path10547"
       d="m 492.0084,224.51943 c 1.36432,-1.21801 2.70046,-2.45138 4.23367,-3.50531 2.08343,-1.2821 3.53074,-0.59454 5.09749,0.88485 1.67738,1.83019 2.24544,3.30573 2.40211,5.65187 -0.22353,3.07778 -1.08756,6.10956 -2.08552,9.05756 -0.5765,2.17297 -1.8226,4.07413 -3.1224,5.9541 -0.54196,0.93513 -1.21927,1.74698 -2.22524,2.31989 -0.57631,0.43956 0.23561,-0.53088 0.20901,-0.0172 -0.008,0.18954 -0.008,0.37927 2.9e-4,0.56876 -1.26461,-1.21021 -1.34289,-1.00839 -0.0241,-1.25367 2.52577,-0.3971 5.10072,-0.44778 7.65899,-0.515 1.77914,-0.0384 3.55887,-0.0524 5.33851,-0.0533 0.60595,4e-4 1.2119,0.003 1.81786,0.004 0.10393,1.3e-4 0.20786,2.6e-4 0.31179,3.9e-4 1.84217,0.002 1.8384,2.30152 -0.004,2.29916 l 0,0 c -0.10435,-1.3e-4 -0.20869,-2.6e-4 -0.31304,-3.9e-4 -0.60378,-0.001 -1.20756,-0.004 -1.81135,-0.004 -1.75435,0.001 -3.50877,0.0146 -5.26263,0.0523 -2.40401,0.0629 -4.8237,0.10655 -7.19929,0.46663 -0.96899,0.18011 -2.93812,0.67982 -3.11557,-0.893 -0.0109,-0.26726 -0.0126,-0.53479 10e-4,-0.80205 0.0553,-0.77691 0.24877,-1.32852 1.0126,-1.80308 0.69236,-0.34372 0.98656,-0.98843 1.381,-1.56737 1.18469,-1.71211 2.34016,-3.43006 2.8506,-5.41651 0.91945,-2.69599 1.69494,-5.4667 1.97947,-8.27495 -0.0945,-1.80689 -0.44078,-2.77357 -1.72045,-4.22002 -0.68564,-0.67811 -0.66648,-1.13812 -1.58042,-0.62262 -1.45135,0.98966 -2.69337,2.17265 -3.9887,3.31468 -1.30261,1.14958 -3.14478,-0.47618 -1.84217,-1.62576 z"
       inkscape:connector-curvature="0" />
    <path
       inkscape:connector-curvature="0"
       d="m 510.10068,384.85539 c -2.29788,-0.70855 -4.65997,-1.04097 -7.08298,-0.87457 -3.93044,0.44683 -5.41293,2.58713 -6.90649,5.58255 -1.85168,4.63816 -1.54613,7.94199 0.85627,12.31552 1.96182,2.75078 4.73728,4.65887 8.53533,4.60713 2.34529,-0.3048 3.51893,-1.68523 4.29323,-3.5285 0.52181,-1.5209 0.62163,-3.113 0.65243,-4.69146 -3.5e-4,-0.42889 0.005,-0.85883 -0.0316,-1.28681 0.004,0.0249 -0.0167,0.0827 0.0138,0.0846 3.11735,0.18838 2.38601,-0.45563 3.01567,1.49502 0.68262,2.33947 1.48741,4.65707 2.35563,6.94834 0.51217,1.21956 0.97624,2.45497 1.39115,3.70296 0.51834,1.56007 -1.98163,2.20699 -2.49997,0.64692 l 0,0 c -0.40543,-1.22114 -0.86196,-2.42908 -1.36254,-3.62238 -0.87735,-2.32679 -1.69986,-4.67721 -2.39177,-7.05204 -0.21523,-0.67989 -0.2715,-0.79479 -0.40849,-1.41409 -0.30904,-1.39715 -0.30304,-0.74894 2.45135,-1.17127 0.008,-10e-4 0.0282,0.1647 0.0303,0.18068 0.0484,0.50823 0.0396,1.0194 0.0412,1.52885 -0.0381,1.84712 -0.17738,3.70728 -0.8264,5.47775 -1.30388,2.90205 -3.11736,4.58223 -6.76772,5.0003 -0.63822,-0.0215 -1.2842,0.0257 -1.91466,-0.0644 -3.86865,-0.55303 -6.98325,-2.98103 -8.92883,-5.85248 -0.37386,-0.70255 -0.81059,-1.38163 -1.12159,-2.10766 -1.70591,-3.9824 -1.43744,-8.19533 0.24134,-12.14042 2.08472,-4.01438 3.90047,-6.26443 9.10065,-6.93269 2.69576,-0.15116 5.33783,0.13571 7.89647,0.93762 1.78717,0.39431 1.15531,2.62482 -0.63186,2.23052 z"
       id="path10549"
       style="fill:#000000;fill-opacity:1;fill-rule:nonzero;stroke:none" />
    <path
       inkscape:connector-curvature="0"
       d="m 505.37652,394.17804 c 2.6695,0 5.33899,0 8.00848,0 1.38924,0 2.77847,0 4.1677,0 0.0495,0 0.0989,0 0.1484,0 1.84217,0 1.84217,2.29916 0,2.29916 l 0,0 c -0.0495,0 -0.0989,0 -0.1484,0 -1.38923,0 -2.77846,0 -4.1677,0 -2.66949,0 -5.33898,0 -8.00848,0 -1.84217,0 -1.84217,-2.29916 0,-2.29916 z"
       id="path10551"
       style="fill:#000000;fill-opacity:1;fill-rule:nonzero;stroke:none" />
    <path
       inkscape:connector-curvature="0"
       d="m 527.95511,388.81333 c 2.08045,-0.0133 4.14548,-0.0715 6.2022,0.23478 0.9351,0.22408 1.91991,0.29466 2.838,0.57088 1.69979,0.62672 0.69548,2.74818 -1.00431,2.12146 l 0,0 c 0.65426,0.13359 -3.00403,-0.56154 -2.27441,-0.42631 -1.90787,-0.29499 -3.83054,-0.19536 -5.76148,-0.20165 -1.84217,0 -1.84217,-2.29916 0,-2.29916 z"
       id="path10553"
       style="fill:#000000;fill-opacity:1;fill-rule:nonzero;stroke:none" />
    <path
       inkscape:connector-curvature="0"
       d="m 527.19488,395.83681 c 1.36438,0.42812 2.71196,0.33694 4.1193,0.21275 1.24177,-0.13589 2.48704,-0.23908 3.73588,-0.30621 0.95797,-0.0931 1.75552,-0.0414 2.52791,0.52667 0.39587,0.6287 0.19632,0.44174 0.44589,0.66247 0.96992,1.38216 -1.24495,2.5927 -2.21488,1.21053 l 0,0 c -0.31722,-0.49263 -0.40461,-0.54167 -0.0902,-0.26238 0.43128,0.20255 -0.18182,-0.0617 0.61496,0.12736 0.3625,0.086 -1.49377,-0.0343 -1.1256,0.0303 -1.21561,0.0651 -2.42748,0.16718 -3.6362,0.29918 -1.69619,0.14807 -3.36472,0.21835 -5.00894,-0.27012 -1.78717,-0.3943 -1.15531,-2.62482 0.63186,-2.23051 z"
       id="path10555"
       style="fill:#000000;fill-opacity:1;fill-rule:nonzero;stroke:none" />
    <path
       style="fill:#000000;fill-opacity:1;fill-rule:nonzero;stroke:none"
       id="path10557"
       d="m 615.82012,417.392 c -2.29788,-0.70855 -4.65997,-1.04097 -7.08297,-0.87457 -3.93045,0.44683 -5.41294,2.58713 -6.9065,5.58255 -1.85167,4.63817 -1.54612,7.94199 0.85627,12.31552 1.96182,2.75078 4.73729,4.65887 8.53533,4.60713 2.34529,-0.30479 3.51893,-1.68523 4.29324,-3.5285 0.5218,-1.52089 0.62162,-3.113 0.65242,-4.69146 -3.4e-4,-0.42889 0.005,-0.85882 -0.0316,-1.28681 0.004,0.0249 -0.0167,0.0827 0.0138,0.0846 3.11735,0.18838 2.386,-0.45563 3.01566,1.49503 0.68262,2.33946 1.48741,4.65707 2.35564,6.94833 0.51216,1.21956 0.97623,2.45497 1.39115,3.70297 0.51833,1.56007 -1.98164,2.20699 -2.49997,0.64692 l 0,0 c -0.40543,-1.22114 -0.86197,-2.42909 -1.36255,-3.62239 -0.87734,-2.32679 -1.69986,-4.67721 -2.39177,-7.05204 -0.21523,-0.67989 -0.2715,-0.79479 -0.40848,-1.41409 -0.30904,-1.39715 -0.30304,-0.74893 2.45134,-1.17127 0.008,-10e-4 0.0282,0.16471 0.0303,0.18069 0.0484,0.50822 0.0396,1.01939 0.0412,1.52884 -0.0381,1.84713 -0.17738,3.70728 -0.8264,5.47775 -1.30389,2.90205 -3.11737,4.58223 -6.76773,5.0003 -0.63822,-0.0214 -1.28419,0.0257 -1.91465,-0.0644 -3.86865,-0.55303 -6.98326,-2.98102 -8.92883,-5.85247 -0.37386,-0.70256 -0.81059,-1.38164 -1.12159,-2.10766 -1.70592,-3.98241 -1.43745,-8.19533 0.24134,-12.14043 2.08471,-4.01437 3.90046,-6.26442 9.10064,-6.93268 2.69576,-0.15117 5.33783,0.13571 7.89648,0.93762 1.78716,0.3943 1.1553,2.62482 -0.63187,2.23051 z"
       inkscape:connector-curvature="0" />
    <path
       style="fill:#000000;fill-opacity:1;fill-rule:nonzero;stroke:none"
       id="path10559"
       d="m 611.09596,426.71465 c 2.6695,0 5.33899,0 8.00849,0 1.38923,0 2.77846,0 4.1677,0 0.0495,0 0.0989,0 0.1484,0 1.84216,0 1.84216,2.29917 0,2.29917 l 0,0 c -0.0495,0 -0.0989,0 -0.1484,0 -1.38924,0 -2.77847,0 -4.1677,0 -2.6695,0 -5.33899,0 -8.00849,0 -1.84216,0 -1.84216,-2.29917 0,-2.29917 z"
       inkscape:connector-curvature="0" />
    <path
       style="fill:#000000;fill-opacity:1;fill-rule:nonzero;stroke:none"
       id="path10561"
       d="m 633.67455,421.34994 c 2.08046,-0.0133 4.14548,-0.0715 6.2022,0.23479 0.9351,0.22407 1.91991,0.29465 2.838,0.57088 1.69979,0.62672 0.69548,2.74818 -1.00431,2.12145 l 0,0 c 0.65426,0.13359 -3.00403,-0.56154 -2.27441,-0.42631 -1.90787,-0.29499 -3.83054,-0.19536 -5.76148,-0.20165 -1.84217,0 -1.84217,-2.29916 0,-2.29916 z"
       inkscape:connector-curvature="0" />
    <path
       style="fill:#000000;fill-opacity:1;fill-rule:nonzero;stroke:none"
       id="path10563"
       d="m 632.91432,428.37343 c 1.36439,0.42811 2.71196,0.33694 4.11931,0.21275 1.24176,-0.1359 2.48704,-0.23908 3.73587,-0.30622 0.95798,-0.0931 1.75552,-0.0414 2.52792,0.52668 0.39586,0.62869 0.19631,0.44173 0.44589,0.66246 0.96992,1.38216 -1.24496,2.5927 -2.21488,1.21054 l 0,0 c -0.31722,-0.49264 -0.40461,-0.54168 -0.0902,-0.26239 0.43127,0.20256 -0.18183,-0.0617 0.61495,0.12737 0.3625,0.086 -1.49376,-0.0343 -1.1256,0.0303 -1.2156,0.0651 -2.42747,0.16718 -3.63619,0.29917 -1.6962,0.14808 -3.36472,0.21835 -5.00895,-0.27012 -1.78717,-0.3943 -1.1553,-2.62482 0.63186,-2.23051 z"
       inkscape:connector-curvature="0" />
    <path
       style="fill:#000000;fill-opacity:1;fill-rule:nonzero;stroke:none"
       id="path10567"
       d="m 555.55508,382.7574 c 0,2.64063 0,5.28127 0,7.9219 0,3.71626 0,7.43251 0,11.14877 0,1.11503 0,2.23006 0,3.34509 0.15408,0.81413 -1.86214,-0.92501 -0.8575,-0.99201 1.83735,-0.11751 2.02564,2.17565 0.18829,2.29315 l 0,0 c -0.84011,0.0522 -2.00973,-0.48777 -1.93601,-1.30114 0,-1.11503 0,-2.23006 0,-3.34509 0,-3.71626 0,-7.43251 0,-11.14877 0,-2.64063 0,-5.28127 0,-7.9219 0,-1.62576 2.60522,-1.62576 2.60522,0 z"
       inkscape:connector-curvature="0" />
    <path
       style="fill:#000000;fill-opacity:1;fill-rule:nonzero;stroke:none"
       id="path10571"
       d="m 657.86588,412.62436 c 0.47224,1.77956 0.59947,3.61008 0.70407,5.42966 0.076,1.48086 0.0976,2.96333 0.1051,4.44551 10e-4,0.26536 6.2e-4,0.53072 -0.003,0.79605 -0.0345,1.62547 -2.63929,1.58238 -2.60477,-0.0431 l 0,0 c 0.004,-0.24754 0.004,-0.49513 0.003,-0.7427 -0.007,-1.44699 -0.028,-2.89426 -0.10182,-4.33997 -0.0949,-1.6707 -0.20449,-3.35233 -0.62959,-4.98783 -0.4468,-1.57722 2.08064,-2.13484 2.52743,-0.55763 z"
       inkscape:connector-curvature="0" />
    <path
       style="fill:#000000;fill-opacity:1;fill-rule:nonzero;stroke:none"
       id="path10573"
       d="m 671.12325,419.72402 c -1.96165,2.15468 -4.04838,4.21871 -6.21268,6.2161 -2.16627,1.92463 -4.37102,3.80575 -6.32188,5.90555 -0.57412,0.6531 -1.16494,1.29473 -1.76754,1.92751 -0.30842,0.27566 -0.51675,0.74608 0.0928,-0.40747 0.0443,0.86923 -0.0721,-0.21488 -0.56355,-0.52181 1.71395,0.59591 0.75903,2.73505 -0.95493,2.13915 l 0,0 c -0.733,-0.32441 -1.16527,-0.9507 -1.08615,-1.66622 0.38889,-0.92756 0.14054,-0.63343 0.51752,-1.02302 0.59612,-0.6258 1.17964,-1.261 1.74793,-1.90667 1.9947,-2.14338 4.23531,-4.07471 6.45323,-6.03633 2.09342,-1.93054 4.1097,-3.92643 6.01106,-6.00629 1.1053,-1.3006 3.18948,0.0789 2.08417,1.3795 z"
       inkscape:connector-curvature="0" />
    <path
       style="fill:#000000;fill-opacity:1;fill-rule:nonzero;stroke:none"
       id="path10575"
       d="m 667.17812,427.54272 c 1.265,-0.98753 2.78971,-1.63414 4.39595,-2.05661 1.45168,-0.23436 2.66975,0.22924 3.7138,1.08744 1.20238,1.45201 0.0409,3.14913 -0.73959,4.53257 -1.10084,1.85345 -2.4039,3.59992 -3.59902,5.40463 -0.82887,0.94198 -1.29548,2.07843 -2.05358,3.0515 -0.42637,0.43742 -0.94997,0.76842 -1.57684,0.93117 -0.0153,0.002 -0.42622,0.0754 -0.42653,0.0391 -0.0231,-2.68455 -0.21588,-2.33629 1.77661,-2.3377 2.41296,0.006 4.82593,0.01 7.2389,0.0127 1.48789,0.002 2.97578,0.003 4.46366,0.003 1.07484,0.16705 1.71155,0.80095 1.79263,1.73514 0.0672,1.62467 -2.53629,1.70854 -2.60349,0.0839 l 0,0 c 0.0977,0.34188 0.39833,0.50145 0.80994,0.48016 -1.48869,-4.7e-4 -2.97738,-0.002 -4.46608,-0.003 -2.41123,-0.003 -4.82247,-0.007 -7.2337,-0.0127 -2.03953,0.001 -1.07061,0.34363 -1.69809,-2.25953 -0.007,-0.0288 -0.26451,0.025 -0.29959,0.0315 -0.23632,0.0897 0.11173,-0.0331 0.14442,-0.0903 0.62364,-0.42952 1.14269,-2.32914 1.88269,-2.82537 1.16698,-1.76091 2.43788,-3.46538 3.51739,-5.27153 0.20519,-0.36131 0.58714,-1.00844 0.77329,-1.41599 0.0684,-0.14966 0.12238,-0.30428 0.17433,-0.45898 0.0276,-0.0823 -0.0331,-0.24933 0.0641,-0.25105 0.13802,-0.002 0.085,0.29098 0.26023,0.28433 -0.3552,-0.31544 -0.66194,-0.54182 -1.18927,-0.54296 -1.19197,0.29349 -2.31942,0.7795 -3.27998,1.47433 -1.30261,1.14959 -3.14478,-0.47616 -1.84217,-1.62575 z"
       inkscape:connector-curvature="0" />
  </g>
</svg>
