<?xml version="1.0" encoding="UTF-8" standalone="no"?>
<!-- Created with Inkscape (http://www.inkscape.org/) -->

<svg
   xmlns:dc="http://purl.org/dc/elements/1.1/"
   xmlns:cc="http://creativecommons.org/ns#"
   xmlns:rdf="http://www.w3.org/1999/02/22-rdf-syntax-ns#"
   xmlns:svg="http://www.w3.org/2000/svg"
   xmlns="http://www.w3.org/2000/svg"
   xmlns:sodipodi="http://sodipodi.sourceforge.net/DTD/sodipodi-0.dtd"
   xmlns:inkscape="http://www.inkscape.org/namespaces/inkscape"
   width="881.52155"
   height="172.06082"
   id="svg29050"
   version="1.1"
   inkscape:version="0.48.0 r9654"
   sodipodi:docname="New document 110">
  <defs
     id="defs29052" />
  <sodipodi:namedview
     inkscape:document-units="mm"
     pagecolor="#ffffff"
     bordercolor="#666666"
     borderopacity="1.0"
     inkscape:pageopacity="0.0"
     inkscape:pageshadow="2"
     inkscape:zoom="0.7176508"
     inkscape:cx="415.22974"
     inkscape:cy="371.4323"
     inkscape:current-layer="layer1"
     id="namedview29054"
     showgrid="false"
     fit-margin-top="0"
     fit-margin-left="0"
     fit-margin-right="0"
     fit-margin-bottom="0"
     inkscape:window-width="1280"
     inkscape:window-height="752"
     inkscape:window-x="0"
     inkscape:window-y="0"
     inkscape:window-maximized="0" />
  <metadata
     id="metadata29056">
    <rdf:RDF>
      <cc:Work
         rdf:about="">
        <dc:format>image/svg+xml</dc:format>
        <dc:type
           rdf:resource="http://purl.org/dc/dcmitype/StillImage" />
        <dc:title></dc:title>
      </cc:Work>
    </rdf:RDF>
  </metadata>
  <g
     inkscape:label="Layer 1"
     inkscape:groupmode="layer"
     id="layer1"
     transform="translate(-110.95135,-571.41872)">
    <path
       style="fill:none;stroke:#000000;stroke-width:3.83385825;stroke-linecap:butt;stroke-linejoin:miter;stroke-miterlimit:4;stroke-opacity:1;stroke-dasharray:none"
       d="m 197.86783,627.04591 -84.99955,103.11422 242.45775,-43.1965 z"
       id="path29569"
       inkscape:connector-curvature="0" />
    <path
       inkscape:connector-curvature="0"
       id="path29571"
       d="M 781.75234,579.86697 669.04683,731.35572 990.53468,667.89421 z"
       style="fill:none;stroke:#000000;stroke-width:3.87637806;stroke-linecap:butt;stroke-linejoin:miter;stroke-miterlimit:4;stroke-opacity:1;stroke-dasharray:none" />
    <path
       inkscape:connector-curvature="0"
       id="path29573"
       d="m 487.65028,639.3857 -47.52583,65.89372 135.56548,-27.60413 z"
       style="fill:none;stroke:#000000;stroke-width:3.78779531;stroke-linecap:butt;stroke-linejoin:miter;stroke-miterlimit:4;stroke-opacity:1;stroke-dasharray:none" />
    <path
       style="fill:#000000;fill-opacity:1;fill-rule:nonzero;stroke:none"
       id="path29575"
       d="m 135.00346,647.35499 c -3.377,1.31769 -5.93109,4.07631 -8.2181,6.78462 -2.88691,4.35793 -4.26208,9.42174 -4.0083,14.61983 0.17024,1.94381 1.74701,5.74189 3.89641,3.35204 3.3562,-3.58442 3.94177,-8.65158 4.5373,-13.31945 0.40561,-3.86898 0.53201,-7.76011 0.53245,-11.64814 -0.002,-0.25522 -0.004,-0.51045 -0.007,-0.76566 -0.004,-0.27356 -0.0101,-0.56345 -0.0202,-0.83917 -0.002,-0.0605 -0.0687,-0.18576 -0.008,-0.18136 4.49853,0.328 4.17612,-0.86736 4.16013,1.48208 0.23942,4.93302 1.46746,9.57769 3.39687,14.097 2.31517,4.53477 3.61693,7.12737 8.7868,4.84077 2.76186,-1.0534 4.25158,2.85245 1.48973,3.90585 l 0,0 c -0.97007,0.33597 -1.8989,0.83138 -2.91021,1.00793 -5.69502,0.99422 -9.12661,-3.52047 -11.21512,-8.12309 -2.12725,-5.05058 -3.50639,-10.25279 -3.72828,-15.75768 0.0172,-2.39738 -0.3381,-1.26615 4.19615,-1.64112 0.005,-4.5e-4 0.0266,0.71925 0.0327,1.169 0.004,0.26878 0.005,0.53758 0.008,0.80638 -0.001,4.06635 -0.13592,8.13598 -0.56677,12.18181 -0.77788,5.97483 -1.75453,12.23397 -6.56143,16.38661 -0.84357,0.39941 -1.6162,1.01169 -2.53072,1.19824 -4.7814,0.97534 -7.20199,-4.18858 -7.6647,-7.98989 -0.19397,-6.26231 1.37558,-12.30585 5.00022,-17.48924 2.86986,-3.35753 6.10166,-6.67736 10.38947,-8.13285 2.86767,-0.71692 3.88154,3.33858 1.01387,4.05549 z"
       inkscape:connector-curvature="0" />
    <path
       style="fill:#000000;fill-opacity:1;fill-rule:nonzero;stroke:none"
       id="path29577"
       d="m 273.93615,594.02694 c 0.93304,5.87365 2.01692,11.7159 3.26809,17.53061 1.89312,8.02122 3.59703,16.08489 5.60112,24.07985 0.71455,2.75428 1.29038,5.55078 1.97836,8.30778 -1.32263,-0.0164 -2.65092,0.0739 -3.9679,-0.0493 -0.21094,-0.0197 -0.31901,-1.45526 -0.38074,-1.96153 -0.31342,-2.57092 -0.45763,-5.07139 -0.47245,-7.66226 0.0329,-6.25103 0.61196,-11.09079 4.89663,-15.8634 5.42502,-3.97117 8.69083,0.23747 11.23539,4.84748 2.14022,4.21912 2.06662,8.74522 -1.46535,12.23018 -0.75306,0.74303 -1.67566,1.29185 -2.51349,1.93778 -4.85549,2.69866 -10.32409,4.59353 -15.87345,5.14161 -2.49506,-0.43015 -1.2393,0.17514 -3.07392,-2.83563 0.0449,-2.95558 4.22469,-2.89214 4.17983,0.0634 l 0,0 c -1.62961,-1.5827 -2.02144,-2.13404 -1.4768,-1.39163 4.78825,-0.36094 9.52117,-2.19559 13.76144,-4.34085 3.69108,-2.55222 4.83396,-4.52626 2.78844,-8.80944 -0.34465,-0.64757 -2.40488,-4.71823 -3.54473,-4.47919 -0.34884,0.0732 -0.6365,0.321 -0.95476,0.4815 -3.43468,3.50889 -3.76703,8.28619 -3.77895,13.00366 0.003,2.97231 0.3688,5.81217 0.65411,8.75829 0.0562,0.5798 0.61551,1.45679 0.10881,1.74414 -1.19411,0.67718 -2.72427,0.34103 -4.0864,0.51155 -0.87734,-2.81572 -1.20322,-5.79645 -2.06896,-8.61789 -2.01492,-8.04067 -3.73048,-16.14983 -5.63306,-24.21709 -1.2545,-5.83452 -2.3476,-11.69579 -3.28038,-17.58983 -0.57971,-2.89852 3.51942,-3.71834 4.09912,-0.81982 z"
       inkscape:connector-curvature="0" />
    <path
       style="fill:#000000;fill-opacity:1;fill-rule:nonzero;stroke:none"
       id="path29579"
       d="m 235.33081,719.81364 c -4.24952,0.47902 -7.76127,2.35742 -11.08605,4.93873 -2.46562,2.78084 -5.31316,6.39466 -4.44503,10.4166 0.11084,0.51351 0.44887,0.94995 0.67331,1.42492 3.87365,3.56997 9.67015,2.80519 14.49742,2.26078 0.92931,-0.20019 1.85861,-0.40038 2.78792,-0.60057 2.89186,-0.61206 3.75743,3.47765 0.86557,4.08971 l 0,0 c -1.06583,0.22207 -2.13166,0.44415 -3.19749,0.66622 -5.46251,0.58472 -12.27752,1.31238 -16.83441,-2.53812 -0.80042,-0.67635 -1.35307,-1.60052 -2.0296,-2.40078 -0.31425,-0.95105 -0.78408,-1.86416 -0.94274,-2.85313 -0.86203,-5.3732 2.61259,-10.15054 6.08079,-13.78251 3.78667,-2.87529 7.81032,-5.11476 12.61644,-5.67735 2.86766,-0.71691 3.88153,3.33858 1.01387,4.0555 z"
       inkscape:connector-curvature="0" />
    <path
       style="fill:#000000;fill-opacity:1;fill-rule:nonzero;stroke:none"
       id="path29581"
       d="m 692.43621,616.41376 c -2.26028,4.97055 -2.58389,10.60672 -2.74649,15.98816 0.004,6.00424 0.31972,12.00234 0.57115,17.99982 -0.20705,2.88282 0.0233,6.09563 -4.69959,3.28521 -0.24766,-0.14738 -0.37182,-3.10057 -0.43147,-4.08233 -0.30535,-8.14131 -0.38583,-16.27752 0.31201,-24.39775 0.92854,-4.19427 1.05825,-12.63316 4.3586,-15.86465 0.6013,-0.58875 1.4217,-0.90084 2.13254,-1.35126 0.9433,0.0185 1.9216,-0.19961 2.8299,0.0556 4.50914,1.26704 9.19289,8.87713 11.47891,12.56551 3.76177,6.78065 6.7383,13.95124 10.15789,20.9023 1.04278,2.35206 2.44005,4.49964 4.02831,6.51122 1.82549,2.32488 -1.46238,4.90651 -3.28787,2.58164 l 0,0 c -1.75683,-2.2478 -3.32265,-4.63414 -4.49175,-7.24824 -3.35809,-6.83225 -6.29617,-13.87168 -9.9633,-20.55041 -2.51512,-4.08862 -5.23198,-7.94452 -8.93628,-11.0523 -0.84558,-0.17403 -0.61802,-0.27607 -1.28918,1.04472 -1.98992,3.916 -2.01593,8.55419 -2.85305,12.76652 -0.6912,7.91752 -0.5894,15.8519 -0.3037,23.79053 0.0376,0.65729 0.0815,1.31426 0.1128,1.97189 0.0124,0.26096 0.26946,0.71078 0.0185,0.78357 -4.60575,1.33611 -3.5072,0.91084 -3.34995,-1.53669 -0.25573,-6.10022 -0.57798,-12.20121 -0.57268,-18.30843 0.20431,-6.08957 0.61561,-12.4457 3.34007,-18.0054 1.52081,-2.53469 5.1054,-0.38394 3.58459,2.15075 z"
       inkscape:connector-curvature="0" />
    <path
       style="fill:#000000;fill-opacity:1;fill-rule:nonzero;stroke:none"
       id="path29583"
       d="m 687.96372,631.92293 c 5.69773,0.0224 11.36006,-0.72897 16.83242,-2.29234 2.84478,-0.80294 3.98031,3.22019 1.13553,4.02313 l 0,0 c -5.85154,1.63377 -11.88064,2.49033 -17.96795,2.44952 -2.95592,0 -2.95592,-4.18031 0,-4.18031 z"
       inkscape:connector-curvature="0" />
    <path
       style="fill:#000000;fill-opacity:1;fill-rule:nonzero;stroke:none"
       id="path29585"
       d="m 885.61018,581.8686 c 2.64937,5.14774 4.31604,10.7392 5.80359,16.31388 1.08209,4.77811 2.01941,9.62112 2.10429,14.52945 0.0369,2.95569 -4.14305,3.00792 -4.17998,0.0522 l 0,0 c -0.03,-4.56184 -1.01002,-9.06283 -1.96401,-13.50661 -1.34672,-5.07481 -2.90348,-10.10389 -5.10813,-14.88077 -1.77355,-2.36474 1.57069,-4.87292 3.34424,-2.50818 z"
       inkscape:connector-curvature="0" />
    <path
       style="fill:#000000;fill-opacity:1;fill-rule:nonzero;stroke:none"
       id="path29587"
       d="m 881.81791,573.39864 c 4.81652,-0.48921 9.52899,-1.66118 14.36716,-1.97992 5.65545,0.12905 7.64271,3.60003 8.31737,8.71541 0.0119,5.17209 -3.45656,8.55089 -7.25303,11.51898 -1.96595,1.42771 -4.17712,2.51318 -6.33528,3.56529 -0.18097,-1.33802 -0.78107,-2.68503 -0.5429,-4.01406 0.0809,-0.45157 0.88275,-0.2506 1.32739,-0.36354 3.04836,-0.77429 5.86085,-1.13486 9.00623,-0.98171 6.31856,1.29955 8.06755,5.70277 9.26839,11.44383 0.44987,5.62672 -1.66366,10.44945 -6.56567,13.46004 -1.04236,0.64017 -2.19967,1.07086 -3.2995,1.60629 -1.24515,0.33463 -2.49029,0.66926 -3.73543,1.00389 -2.86192,0.73951 -3.90775,-3.30786 -1.04582,-4.04737 l 0,0 c 0.99717,-0.24478 1.99435,-0.48955 2.99152,-0.73433 5.03151,-2.30034 7.7524,-4.57355 7.5587,-10.4542 -0.68686,-3.48636 -1.49633,-7.15614 -5.40997,-8.10461 -2.68235,-0.18198 -5.07428,0.18574 -7.67622,0.84326 -0.52922,0.13374 -1.14941,0.75714 -1.58177,0.42393 -1.16498,-0.89784 -1.69675,-2.40297 -2.54512,-3.60445 1.97155,-1.16196 4.19755,-1.9027 6.01731,-3.34069 2.59746,-2.0129 5.43243,-4.21911 5.6666,-7.75745 -0.20584,-2.62041 -0.87561,-4.99643 -3.90161,-5.00638 -4.92604,0.28934 -9.71059,1.62589 -14.62835,1.9881 -2.95593,0 -2.95593,-4.18031 0,-4.18031 z"
       inkscape:connector-curvature="0" />
    <path
       style="fill:#000000;fill-opacity:1;fill-rule:nonzero;stroke:none"
       id="path29589"
       d="m 841.41518,703.21722 c 1.42665,0.35667 2.8533,0.71333 4.27995,1.06999 -0.12541,0.2056 0.476,-0.0378 0.44293,0.11073 -1.21533,5.46018 -0.56547,4.17285 -4.94743,4.18007 -5.27526,-0.0754 -9.55735,-0.38299 -14.56088,1.60682 -4.28367,2.28756 -6.88944,6.32313 -7.09347,11.23306 -0.0472,1.13592 0.17389,2.26715 0.26084,3.40072 1.51318,6.25815 5.78744,11.20117 11.90735,13.39824 1.17803,0.42291 2.42671,0.61442 3.64006,0.92164 3.5822,0.65018 6.35115,-0.37476 9.50446,-1.8576 2.69606,-1.21192 4.40997,2.60088 1.71391,3.8128 l 0,0 c -4.43448,1.92374 -7.31949,2.92658 -12.28659,2.08631 -1.46614,-0.40101 -2.97852,-0.66058 -4.39843,-1.20303 -7.51784,-2.87206 -12.59645,-9.12503 -14.2537,-16.91026 -0.0674,-1.46282 -0.29967,-2.92733 -0.20225,-4.38846 0.42548,-6.38151 4.10692,-11.54003 9.70939,-14.39594 1.00381,-0.37476 1.98023,-0.83327 3.01144,-1.12428 4.24704,-1.19854 8.69776,-0.64174 13.04105,-0.76032 4.35767,-0.007 3.78516,-1.33579 3.94038,4.05573 0.004,0.15212 -0.525,-0.35946 -0.44293,-0.11074 -1.42665,-0.35666 -2.8533,-0.71332 -4.27995,-1.06998 -2.86766,-0.71692 -1.85379,-4.77241 1.01387,-4.0555 z"
       inkscape:connector-curvature="0" />
    <path
       style="fill:#000000;fill-opacity:1;fill-rule:nonzero;stroke:none"
       id="path29591"
       d="m 129.02946,707.16844 c 3.68163,0.14031 6.78276,1.35646 9.6251,3.64981 2.61843,2.40731 3.54249,5.61153 4.0016,9.01461 -0.0531,2.23406 0.0344,1.17315 -0.22983,3.18525 -0.40431,2.92814 -4.54533,2.35635 -4.14101,-0.57179 l 0,0 c 0.20293,-1.37621 0.12774,-0.68623 0.22602,-2.06989 -0.29517,-2.33437 -0.76617,-4.61036 -2.51034,-6.32808 -2.05543,-1.73155 -4.25923,-2.5591 -6.97154,-2.6996 -2.95592,0 -2.95592,-4.18031 0,-4.18031 z"
       inkscape:connector-curvature="0" />
    <path
       style="fill:#000000;fill-opacity:1;fill-rule:nonzero;stroke:none"
       id="path29599"
       d="m 184.14151,643.62444 c 2.26661,1.53855 4.66619,2.91279 7.25838,3.81296 4.01059,1.2276 7.70823,-0.12865 11.23776,-2.01432 3.70481,-2.07047 6.63776,-5.03203 9.40212,-8.1881 1.3374,-1.78765 0.67094,-0.87936 1.99844,-2.72557 1.72634,-2.39942 5.11963,0.042 3.39329,2.44142 l 0,0 c -1.44255,2.00379 -0.69425,0.98988 -2.24798,3.03947 -3.10341,3.53876 -6.43639,6.8255 -10.59713,9.13107 -4.60568,2.39899 -9.43768,3.89672 -14.59232,2.25286 -2.72901,-0.99496 -5.35116,-2.32214 -7.72205,-4.01082 -2.64386,-1.32192 -0.77437,-5.0609 1.86949,-3.73897 z"
       inkscape:connector-curvature="0" />
    <path
       style="fill:#000000;fill-opacity:1;fill-rule:nonzero;stroke:none"
       id="path29601"
       d="m 324.4491,676.34352 c -1.60953,1.86543 -2.35824,4.12076 -2.83502,6.49168 -0.43095,2.27791 -0.43654,4.60277 -0.45504,6.91211 0.051,0.90245 0.27631,1.25449 1.06361,1.53787 2.50497,1.56927 0.28568,5.11183 -2.21929,3.54256 l 0,0 c -1.85078,-1.30508 -2.97095,-2.74701 -3.02449,-5.11442 0.0213,-2.5816 0.0449,-5.17863 0.54109,-7.72258 0.62323,-2.96238 1.59986,-5.80371 3.5849,-8.15541 1.77355,-2.36473 5.1178,0.14345 3.34424,2.50819 z"
       inkscape:connector-curvature="0" />
    <path
       style="fill:#000000;fill-opacity:1;fill-rule:nonzero;stroke:none"
       id="path29603"
       d="m 688.13729,704.61066 c 2.58809,0.46779 4.94562,1.65361 6.93574,3.34496 1.86426,1.76514 2.81189,4.13985 3.73202,6.47709 0.8353,2.48714 1.34877,5.08121 1.16037,7.7031 -0.0723,0.39032 -0.14451,0.78063 -0.21677,1.17095 -0.55918,2.90255 -4.664,2.11176 -4.10483,-0.7908 l 0,0 c 0.054,-0.26485 0.10792,-0.52971 0.16189,-0.79456 0.31558,-1.91331 -0.42683,-3.93274 -0.89338,-5.76497 -0.66974,-1.72279 -1.31198,-3.52844 -2.62091,-4.8803 -1.36881,-1.35092 -3.32028,-2.03122 -5.168,-2.40998 -2.86767,-0.71692 -1.85379,-4.77241 1.01387,-4.05549 z"
       inkscape:connector-curvature="0" />
    <path
       style="fill:#000000;fill-opacity:1;fill-rule:nonzero;stroke:none"
       id="path29605"
       d="m 771.15433,599.59271 c 1.3663,1.605 3.23524,2.22176 5.22758,2.64723 2.5084,0.33214 5.08774,0.61484 7.60851,0.29482 2.85656,-0.71723 5.13401,-2.54279 7.11689,-4.64337 1.89594,-2.17285 2.74838,-4.79782 3.66221,-7.45947 0.15093,-0.421 0.30185,-0.84199 0.45278,-1.26299 0.9979,-2.78238 4.93279,-1.37113 3.93488,1.41125 l 0,0 c -0.1448,0.40357 -0.28961,0.80714 -0.43441,1.21071 -1.11365,3.23529 -2.26027,6.39476 -4.59983,8.99549 -2.70121,2.77776 -5.78046,5.12978 -9.66906,5.90291 -2.98786,0.30211 -6.01235,0.11262 -8.97595,-0.36796 -2.7495,-0.6254 -5.36084,-1.59757 -7.27953,-3.77269 -2.09015,-2.09016 0.86577,-5.04608 2.95593,-2.95593 z"
       inkscape:connector-curvature="0" />
    <path
       style="fill:#000000;fill-opacity:1;fill-rule:nonzero;stroke:none"
       id="path29609"
       d="m 953.57743,656.08827 c -1.25296,2.55249 -1.81241,5.28912 -2.16549,8.08868 -0.54385,3.22849 -0.13783,6.32812 0.74922,9.43503 0.46491,1.48211 0.18102,0.84949 0.76689,1.93366 1.31905,2.6453 -2.42196,4.51071 -3.74101,1.86542 l 0,0 c -0.83077,-1.74409 -0.48479,-0.85726 -1.04712,-2.6569 -1.03194,-3.64995 -1.48336,-7.32569 -0.87428,-11.10932 0.38256,-2.93676 0.88482,-5.90836 2.2563,-8.57044 0.71691,-2.86767 4.7724,-1.8538 4.05549,1.01387 z"
       inkscape:connector-curvature="0" />
    <path
       style="fill:#000000;fill-opacity:1;fill-rule:nonzero;stroke:none"
       id="path29619"
       d="m 166.22904,685.27448 c -2.14433,0.61289 -3.27361,2.24259 -4.20064,4.09545 -1.42726,3.36468 -1.39186,6.8748 -0.27597,10.29894 1.44461,2.76516 3.28067,3.85035 6.45425,3.27371 3.18734,-1.10051 3.99598,-3.94521 4.6201,-6.85712 0.48572,-3.24741 -0.88562,-6.00173 -3.31181,-8.16409 -1.96321,-1.23056 -3.56233,-1.8771 -5.57659,-0.48742 -1.66069,1.02271 -3.15788,-1.24604 -1.4972,-2.26876 l 0,0 c 3.56254,-2.05754 5.68943,-1.33203 8.9901,0.8037 3.19986,2.9914 4.74519,6.30679 4.12026,10.67401 -0.95444,4.27185 -2.28377,7.52523 -6.9382,8.96141 -0.66362,0.0784 -1.32232,0.23907 -1.99087,0.23512 -3.60572,-0.0213 -6.13866,-2.38628 -7.53506,-5.38874 -1.31383,-4.30476 -1.33,-8.08087 0.45058,-12.28545 1.34702,-2.53151 3.04369,-4.70819 6.01554,-5.50098 1.91063,-0.46143 2.58614,2.14879 0.67551,2.61022 z"
       inkscape:connector-curvature="0" />
    <path
       style="fill:#000000;fill-opacity:1;fill-rule:nonzero;stroke:none"
       id="path29621"
       d="m 165.94077,677.68696 c 0.63522,2.79031 0.62897,5.66682 0.86122,8.50358 0.34944,5.51418 0.95116,11.00335 1.64121,16.4859 0.43945,3.46539 0.76842,6.94186 1.01018,10.42492 0.13168,1.89826 -2.64729,2.07814 -2.77896,0.17988 l 0,0 c -0.23807,-3.43468 -0.56279,-6.86281 -0.99605,-10.28006 -0.69479,-5.52026 -1.30021,-11.04732 -1.65297,-16.59935 -0.21839,-2.68842 -0.2156,-5.41373 -0.78667,-8.06231 -0.47765,-1.84571 2.22438,-2.49827 2.70204,-0.65256 z"
       inkscape:connector-curvature="0" />
    <path
       style="fill:#000000;fill-opacity:1;fill-rule:nonzero;stroke:none"
       id="path29631"
       d="m 718.43135,683.4353 c -2.69856,0.68136 -3.75063,3.31098 -4.65644,5.46764 -1.2641,4.18251 -2.02722,8.67265 -1.08806,12.98713 0.16973,0.77977 0.46239,1.53296 0.69358,2.29943 1.05747,2.4213 3.03104,5.1111 6.33556,4.32794 0.49437,-0.11716 0.93499,-0.37576 1.40248,-0.56365 4.17702,-3.15218 5.25131,-8.25918 5.68983,-12.94675 -0.0617,-4.45933 -0.50468,-8.40676 -4.87238,-11.0096 -2.37507,-0.53609 -4.33465,0.56857 -5.9217,2.08395 -0.93333,1.02959 -0.5102,0.50374 -1.27802,1.57169 -1.12103,1.53246 -3.49352,0.0842 -2.3725,-1.44822 l 0,0 c 0.99958,-1.34843 0.46002,-0.69588 1.62121,-1.95589 2.65771,-2.40014 5.87254,-3.74391 9.57284,-2.39615 0.5759,0.3778 1.20647,0.69432 1.7277,1.13336 3.70297,3.11901 4.4076,7.90219 4.3648,12.25457 -0.48905,4.74893 -1.52578,10.11979 -5.40097,13.65982 -0.62941,0.57496 -1.41006,0.99271 -2.1151,1.48907 -0.77464,0.24431 -1.51603,0.60722 -2.32389,0.73295 -4.68922,0.7298 -7.69641,-2.67716 -9.18477,-6.25405 -0.25675,-0.88546 -0.58254,-1.75658 -0.77024,-2.65638 -0.99031,-4.74728 -0.17692,-9.67171 1.26277,-14.25994 1.32204,-3.03033 2.96388,-6.23379 6.75369,-7.07287 1.9785,-0.36146 2.53812,2.19448 0.55961,2.55595 z"
       inkscape:connector-curvature="0" />
    <path
       style="fill:#000000;fill-opacity:1;fill-rule:nonzero;stroke:none"
       id="path29639"
       d="m 710.26916,694.58679 c 2.75685,-0.49063 5.57555,-0.59651 8.37528,-0.70492 2.66582,-0.0918 5.33382,-0.0999 8.00117,-0.10472 0.37003,-0.0329 0.74007,-0.0659 1.11011,-0.0989 2.00917,-0.16925 2.2712,2.42631 0.26203,2.59556 l 0,0 c -0.45549,0.0366 -0.91098,0.0732 -1.36648,0.10976 -2.62903,0.005 -5.25869,0.0124 -7.88624,0.10242 -2.60781,0.1006 -5.23158,0.19739 -7.80381,0.62943 -1.95745,0.44702 -2.64951,-2.08173 -0.69206,-2.52874 z"
       inkscape:connector-curvature="0" />
    <path
       style="fill:#000000;fill-opacity:1;fill-rule:nonzero;stroke:none"
       id="path29641"
       d="m 180.12524,698.5447 c 0.66586,2.08576 0.69715,4.288 0.94074,6.44388 0.14694,1.29093 0.21174,2.58489 0.21022,3.88269 -0.005,1.9025 -2.78997,1.89597 -2.78518,-0.007 l 0,0 c 0.005,-1.19817 -0.0602,-2.39231 -0.19379,-3.5842 -0.22101,-1.95602 -0.24896,-3.95311 -0.8036,-5.85475 -0.64494,-1.7976 1.98668,-2.67869 2.63161,-0.88109 z"
       inkscape:connector-curvature="0" />
    <path
       style="fill:#000000;fill-opacity:1;fill-rule:nonzero;stroke:none"
       id="path29647"
       d="m 229.14147,663.49886 c 1.46605,-0.40297 2.83967,-1.04586 4.28757,-1.51084 1.66922,-0.44938 2.6322,-0.24279 3.54263,1.19571 0.33872,1.63825 -0.57294,3.223 -1.27028,4.67162 -0.50416,1.40247 -1.43211,2.60373 -2.10614,3.92277 -0.43773,1.07624 -1.33144,1.68051 -2.47731,1.87504 0.25478,-0.027 -0.008,0.1467 -0.0823,0.22889 0.67782,-0.64494 -1.62269,-2.1418 -0.42877,-1.97516 0.7897,0.10235 1.58054,0.1964 2.37094,0.29364 1.14858,0.2221 2.22286,0.25755 3.35964,-0.0134 1.04477,-0.2358 0.53336,-0.11946 1.53431,-0.3488 1.91626,-0.43907 2.55902,2.17886 0.64276,2.61792 l 0,0 c -1.01624,0.23283 -0.49569,0.11443 -1.56172,0.35494 -1.45098,0.29995 -2.86661,0.35011 -4.32736,0.0583 -0.80841,-0.0995 -1.6173,-0.19553 -2.42489,-0.30111 -1.07172,-0.15497 -2.15214,-1.58757 -1.31397,-2.39804 0.49038,-0.56068 1.08388,-0.98976 1.83237,-1.18027 -0.1011,0.29412 0.42112,-0.1407 0.3903,-0.42546 0.68195,-1.28425 1.55309,-2.47801 2.06666,-3.84412 0.2554,-0.53048 0.88462,-2.2818 1.20999,-2.53718 0.51895,0.50963 1.02233,0.13367 -0.0796,0.35802 -1.43624,0.45965 -2.79719,1.10318 -4.25284,1.49945 -1.86084,0.62302 -2.77291,-1.91918 -0.91207,-2.54221 z"
       inkscape:connector-curvature="0" />
    <path
       style="fill:#000000;fill-opacity:1;fill-rule:nonzero;stroke:none"
       id="path29651"
       d="m 279.45634,680.84818 c 1.47542,-0.53604 2.89179,-1.17714 4.42891,-1.54016 1.1233,-0.20073 2.61773,-0.52357 3.4577,0.51967 0.25763,0.31995 0.3335,0.74394 0.50024,1.11592 0.081,2.04301 -1.29508,3.6566 -2.79059,4.94493 -1.02443,0.82007 -2.27005,1.27408 -3.56389,1.50659 -1.17414,0.15104 -0.066,0.0894 0.18859,-2.55108 0.006,-0.0653 -0.23743,-0.0756 -0.17477,-0.10074 0.15768,-0.0632 0.60321,-0.19274 0.77901,-0.24528 0.99864,-0.24437 2.02482,-0.18801 3.04001,-0.10657 1.69824,0.33333 2.61955,1.3693 2.97504,2.95703 0.15205,1.16883 -0.0128,2.34296 -0.16308,3.50327 -0.48841,2.20949 -2.38919,2.84159 -4.47774,3.00333 -1.82547,-0.0348 -3.40162,-0.71303 -4.78441,-1.82069 -1.50679,-1.22508 0.28665,-3.2836 1.79345,-2.05854 l 0,0 c 0.81688,0.68063 1.71412,1.11563 2.81018,1.19434 0.65628,-0.0256 1.62509,0.0586 1.89493,-0.65288 0.11646,-0.8952 0.25465,-1.79993 0.18337,-2.7039 -0.0125,-0.42346 -0.0557,-0.52645 -0.46432,-0.7408 -0.66114,-0.0541 -1.3282,-0.11091 -1.98724,-0.003 -2.34768,0.69552 -2.0733,1.12771 -2.21782,-2.31058 -0.002,-0.036 0.0742,-0.008 0.11136,-0.0116 0.80548,-0.1318 1.59516,-0.39363 2.23669,-0.89472 0.80031,-0.63273 1.47363,-1.43763 1.88402,-2.36267 0.76469,0.71392 1.02003,0.0701 -0.58907,0.43645 -1.45172,0.31624 -2.75642,1.00234 -4.15849,1.46419 -1.86084,0.62302 -2.77291,-1.91918 -0.91208,-2.5422 z"
       inkscape:connector-curvature="0" />
    <path
       inkscape:connector-curvature="0"
       d="m 733.47474,699.79036 c 0.68217,2.02064 0.71423,4.15414 0.96378,6.24272 0.15053,1.25062 0.21693,2.5042 0.21537,3.76148 -0.005,1.84311 -2.85833,1.83679 -2.85343,-0.007 l 0,0 c 0.005,-1.16075 -0.0617,-2.31763 -0.19853,-3.4723 -0.22643,-1.89496 -0.25506,-3.82971 -0.8233,-5.67199 -0.66074,-1.74148 2.03537,-2.59506 2.69611,-0.85358 z"
       id="path29653"
       style="fill:#000000;fill-opacity:1;fill-rule:nonzero;stroke:none" />
    <path
       inkscape:connector-curvature="0"
       d="m 811.17176,623.1642 c 1.50198,-0.39039 2.90925,-1.01321 4.39263,-1.46367 1.71012,-0.43536 2.69669,-0.23523 3.62944,1.15839 0.34702,1.58709 -0.58699,3.12238 -1.30141,4.52577 -0.51651,1.35869 -1.4672,2.52245 -2.15775,3.80031 -0.44845,1.04265 -1.36406,1.62806 -2.53799,1.81652 0.261,-0.0262 -0.009,0.14211 -0.0843,0.22175 0.69442,-0.62482 -1.66246,-2.07494 -0.43929,-1.91351 0.80905,0.0991 1.61927,0.19027 2.42904,0.28448 1.17672,0.21516 2.27732,0.2495 3.44195,-0.0129 1.07038,-0.22843 0.54644,-0.11573 1.57191,-0.33791 1.96322,-0.42536 2.62173,2.11084 0.65851,2.53619 l 0,0 c -1.04114,0.22557 -0.50783,0.11091 -1.59998,0.34386 -1.48654,0.2906 -2.93686,0.33919 -4.4334,0.0565 -0.82821,-0.0964 -1.65692,-0.18943 -2.4843,-0.29171 -1.09797,-0.15015 -2.20488,-1.53802 -1.34616,-2.32319 0.50239,-0.54318 1.11044,-0.95886 1.87726,-1.14342 -0.10353,0.28493 0.43143,-0.13631 0.39987,-0.41218 0.69866,-1.24416 1.59115,-2.40065 2.11729,-3.72412 0.26166,-0.51392 0.90629,-2.21056 1.23964,-2.45798 0.53166,0.49373 1.04738,0.1295 -0.0816,0.34685 -1.47143,0.4453 -2.86572,1.06874 -4.35704,1.45264 -1.90644,0.60357 -2.84086,-1.85927 -0.93442,-2.46285 z"
       id="path29655"
       style="fill:#000000;fill-opacity:1;fill-rule:nonzero;stroke:none" />
    <path
       inkscape:connector-curvature="0"
       d="m 916.65691,665.19522 c 1.51158,-0.51932 2.96265,-1.1404 4.53745,-1.49209 1.15081,-0.19446 2.68185,-0.50722 3.5424,0.50345 0.26395,0.30997 0.34167,0.72072 0.5125,1.08108 0.0829,1.97923 -1.32682,3.54245 -2.85897,4.79057 -1.04951,0.79447 -2.32566,1.2343 -3.65121,1.45955 -1.20291,0.14633 -0.0676,0.0866 0.19322,-2.47144 0.006,-0.0632 -0.24325,-0.0732 -0.17905,-0.0976 0.16154,-0.0612 0.61797,-0.18672 0.79808,-0.23761 1.02311,-0.23675 2.07445,-0.18214 3.11451,-0.10323 1.73985,0.32293 2.68373,1.32657 3.04794,2.86472 0.15577,1.13234 -0.0132,2.26983 -0.16708,3.39392 -0.50038,2.14051 -2.44774,2.75288 -4.58746,2.90957 -1.87019,-0.0337 -3.48496,-0.69077 -4.90163,-1.76386 -1.54372,-1.18683 0.29367,-3.18109 1.83739,-1.99427 l 0,0 c 0.83688,0.65938 1.75611,1.08081 2.87903,1.15706 0.67237,-0.0249 1.66491,0.0567 1.94136,-0.63251 0.11926,-0.86725 0.26089,-1.74374 0.18786,-2.61949 -0.0128,-0.41024 -0.0571,-0.51001 -0.47569,-0.71767 -0.67734,-0.0525 -1.36075,-0.10746 -2.03594,-0.003 -2.4052,0.67381 -2.1241,1.0925 -2.27215,-2.23846 -0.002,-0.0349 0.0761,-0.008 0.11413,-0.0114 0.82521,-0.12769 1.63424,-0.38135 2.29149,-0.86681 0.81992,-0.61297 1.50975,-1.39275 1.93019,-2.28891 0.78343,0.69163 1.04502,0.0679 -0.6035,0.42284 -1.4873,0.30636 -2.82397,0.97104 -4.26039,1.41847 -1.90642,0.60357 -2.84086,-1.85927 -0.93442,-2.46284 z"
       id="path29657"
       style="fill:#000000;fill-opacity:1;fill-rule:nonzero;stroke:none" />
    <path
       inkscape:connector-curvature="0"
       d="m 217.81128,650.90514 c -2.14432,0.61289 -3.27361,2.24259 -4.20064,4.09545 -1.42725,3.36469 -1.39185,6.8748 -0.27596,10.29894 1.44461,2.76517 3.28066,3.85035 6.45425,3.27372 3.18734,-1.10052 3.99597,-3.94522 4.6201,-6.85713 0.48572,-3.24741 -0.88562,-6.00172 -3.31182,-8.16409 -1.9632,-1.23056 -3.56232,-1.8771 -5.57659,-0.48742 -1.66068,1.02271 -3.15788,-1.24604 -1.4972,-2.26875 l 0,0 c 3.56254,-2.05755 5.68944,-1.33204 8.99011,0.80369 3.19985,2.9914 4.74519,6.30679 4.12026,10.67401 -0.95444,4.27186 -2.28378,7.52523 -6.93821,8.96141 -0.66362,0.0784 -1.32232,0.23908 -1.99086,0.23512 -3.60572,-0.0213 -6.13866,-2.38627 -7.53506,-5.38874 -1.31384,-4.30475 -1.33,-8.08087 0.45057,-12.28545 1.34702,-2.53151 3.04369,-4.70818 6.01555,-5.50098 1.91063,-0.46143 2.58613,2.1488 0.6755,2.61022 z"
       id="path29659"
       style="fill:#000000;fill-opacity:1;fill-rule:nonzero;stroke:none" />
    <path
       inkscape:connector-curvature="0"
       d="m 217.52302,643.31763 c 0.63521,2.7903 0.62896,5.66682 0.86122,8.50357 0.34943,5.51418 0.95116,11.00336 1.6412,16.4859 0.43945,3.46539 0.76843,6.94186 1.01019,10.42492 0.13167,1.89826 -2.64729,2.07814 -2.77896,0.17988 l 0,0 c -0.23807,-3.43468 -0.56279,-6.86281 -0.99606,-10.28006 -0.69478,-5.52026 -1.30021,-11.04732 -1.65296,-16.59934 -0.2184,-2.68843 -0.21561,-5.41374 -0.78667,-8.06232 -0.47766,-1.84571 2.22438,-2.49826 2.70204,-0.65255 z"
       id="path29661"
       style="fill:#000000;fill-opacity:1;fill-rule:nonzero;stroke:none" />
    <path
       style="fill:#000000;fill-opacity:1;fill-rule:nonzero;stroke:none"
       id="path29663"
       d="m 268.90503,667.78275 c -2.14433,0.61289 -3.27361,2.24259 -4.20064,4.09545 -1.42726,3.36468 -1.39186,6.8748 -0.27597,10.29894 1.44461,2.76516 3.28067,3.85034 6.45425,3.27371 3.18734,-1.10051 3.99598,-3.94521 4.6201,-6.85712 0.48572,-3.24741 -0.88562,-6.00173 -3.31181,-8.1641 -1.96321,-1.23055 -3.56233,-1.8771 -5.5766,-0.48742 -1.66068,1.02271 -3.15788,-1.24604 -1.49719,-2.26875 l 0,0 c 3.56254,-2.05755 5.68943,-1.33204 8.9901,0.80369 3.19985,2.99141 4.74519,6.3068 4.12026,10.67402 -0.95444,4.27185 -2.28377,7.52522 -6.9382,8.96141 -0.66363,0.0784 -1.32232,0.23907 -1.99087,0.23511 -3.60572,-0.0213 -6.13866,-2.38627 -7.53506,-5.38873 -1.31383,-4.30476 -1.33,-8.08087 0.45058,-12.28545 1.34701,-2.53151 3.04369,-4.70819 6.01554,-5.50098 1.91063,-0.46143 2.58614,2.14879 0.67551,2.61022 z"
       inkscape:connector-curvature="0" />
    <path
       style="fill:#000000;fill-opacity:1;fill-rule:nonzero;stroke:none"
       id="path29665"
       d="m 268.61676,660.19523 c 0.63522,2.79031 0.62897,5.66682 0.86122,8.50357 0.34944,5.51418 0.95116,11.00336 1.64121,16.4859 0.43945,3.4654 0.76842,6.94187 1.01018,10.42493 0.13168,1.89825 -2.64729,2.07813 -2.77896,0.17988 l 0,0 c -0.23807,-3.43468 -0.56279,-6.86282 -0.99605,-10.28006 -0.69479,-5.52026 -1.30021,-11.04733 -1.65297,-16.59935 -0.21839,-2.68842 -0.2156,-5.41373 -0.78667,-8.06232 -0.47765,-1.84571 2.22438,-2.49826 2.70204,-0.65255 z"
       inkscape:connector-curvature="0" />
    <path
       inkscape:connector-curvature="0"
       d="m 799.81568,604.22175 c -2.69857,0.68136 -3.75063,3.31098 -4.65644,5.46764 -1.26411,4.1825 -2.02722,8.67265 -1.08807,12.98713 0.16974,0.77978 0.4624,1.53295 0.69359,2.29944 1.05747,2.42129 3.03104,5.11108 6.33556,4.32794 0.49437,-0.11718 0.93499,-0.37577 1.40248,-0.56366 4.17704,-3.15218 5.25131,-8.25917 5.68984,-12.94675 -0.0617,-4.45933 -0.50469,-8.40676 -4.87239,-11.00961 -2.37507,-0.53609 -4.33465,0.56857 -5.92169,2.08396 -0.93334,1.02958 -0.5102,0.50375 -1.27803,1.57168 -1.12103,1.53247 -3.49352,0.0842 -2.3725,-1.4482 l 0,0 c 0.99958,-1.34845 0.46002,-0.69589 1.62121,-1.95591 2.6577,-2.40013 5.87254,-3.7439 9.57284,-2.39614 0.57589,0.37779 1.20647,0.69431 1.72771,1.13335 3.70296,3.11901 4.4076,7.9022 4.36479,12.25457 -0.48905,4.74894 -1.52577,10.11979 -5.40097,13.65983 -0.62941,0.57496 -1.41007,0.99271 -2.1151,1.48907 -0.77463,0.24431 -1.51603,0.60721 -2.3239,0.73294 -4.68921,0.72981 -7.6964,-2.67715 -9.18476,-6.25405 -0.25675,-0.88546 -0.58254,-1.75657 -0.77024,-2.65637 -0.99031,-4.74729 -0.17692,-9.6717 1.26276,-14.25994 1.32205,-3.03033 2.96389,-6.2338 6.75371,-7.07287 1.97849,-0.36147 2.53811,2.19448 0.5596,2.55595 z"
       id="path29667"
       style="fill:#000000;fill-opacity:1;fill-rule:nonzero;stroke:none" />
    <path
       inkscape:connector-curvature="0"
       d="m 791.65349,615.37323 c 2.75685,-0.49063 5.57555,-0.59649 8.37529,-0.70492 2.66581,-0.0918 5.33381,-0.0998 8.00116,-0.10472 0.37003,-0.0329 0.74007,-0.0659 1.11011,-0.0988 2.00917,-0.16926 2.27121,2.42629 0.26203,2.59556 l 0,0 c -0.45549,0.0365 -0.91099,0.0732 -1.36648,0.10975 -2.62903,0.005 -5.25869,0.0124 -7.88624,0.10232 -2.60781,0.10047 -5.23158,0.19739 -7.80381,0.62942 -1.95745,0.44702 -2.64951,-2.08172 -0.69206,-2.52874 z"
       id="path29669"
       style="fill:#000000;fill-opacity:1;fill-rule:nonzero;stroke:none" />
    <path
       style="fill:#000000;fill-opacity:1;fill-rule:nonzero;stroke:none"
       id="path29671"
       d="m 904.1965,645.79577 c -2.69857,0.68136 -3.75064,3.31098 -4.65644,5.46764 -1.26411,4.1825 -2.02722,8.67265 -1.08807,12.98713 0.16974,0.77978 0.46239,1.53296 0.69359,2.29944 1.05746,2.42129 3.03103,5.11109 6.33555,4.32794 0.49438,-0.11716 0.93498,-0.37577 1.40249,-0.56366 4.17702,-3.15218 5.2513,-8.25917 5.68983,-12.94675 -0.0617,-4.45933 -0.5047,-8.40676 -4.87238,-11.0096 -2.37507,-0.53608 -4.33465,0.56857 -5.92171,2.08395 -0.93332,1.02959 -0.51019,0.50375 -1.27801,1.57169 -1.12103,1.53246 -3.49353,0.0842 -2.3725,-1.44821 l 0,0 c 0.99957,-1.34844 0.46002,-0.69589 1.62119,-1.9559 2.65772,-2.40013 5.87256,-3.74391 9.57285,-2.39615 0.5759,0.37779 1.20646,0.69432 1.7277,1.13335 3.70296,3.11902 4.40761,7.90221 4.36481,12.25458 -0.48905,4.74893 -1.52578,10.11979 -5.40099,13.65982 -0.6294,0.57496 -1.41006,0.99271 -2.11508,1.48907 -0.77464,0.24431 -1.51604,0.60721 -2.3239,0.73294 -4.68922,0.72981 -7.69641,-2.67715 -9.18476,-6.25404 -0.25675,-0.88545 -0.58254,-1.75658 -0.77025,-2.65638 -0.9903,-4.74728 -0.17691,-9.6717 1.26277,-14.25994 1.32205,-3.03032 2.96388,-6.23379 6.75369,-7.07287 1.97851,-0.36146 2.53812,2.19448 0.55962,2.55595 z"
       inkscape:connector-curvature="0" />
    <path
       style="fill:#000000;fill-opacity:1;fill-rule:nonzero;stroke:none"
       id="path29673"
       d="m 896.03431,656.94726 c 2.75684,-0.49063 5.57555,-0.5965 8.37527,-0.70492 2.66583,-0.0918 5.33383,-0.0998 8.00118,-0.10472 0.37003,-0.0329 0.74007,-0.0659 1.11011,-0.0989 2.00916,-0.16926 2.27119,2.4263 0.26203,2.59555 l 0,0 c -0.45549,0.0367 -0.91099,0.0732 -1.36648,0.10988 -2.62903,0.005 -5.25869,0.0124 -7.88624,0.10231 -2.60781,0.10059 -5.23159,0.19739 -7.80382,0.62944 -1.95744,0.44701 -2.6495,-2.08174 -0.69205,-2.52875 z"
       inkscape:connector-curvature="0" />
    <path
       style="fill:#000000;fill-opacity:1;fill-rule:nonzero;stroke:none"
       id="path29677"
       d="m 439.74155,630.95818 c 2.01887,5.55439 2.98138,11.41337 4.12813,17.19081 0.75361,4.86532 1.96135,9.63493 3.10534,14.41726 0.68769,2.87481 -3.37791,3.84735 -4.0656,0.97254 l 0,0 c -1.15657,-4.83495 -2.3751,-9.65778 -3.14006,-14.57594 -1.07501,-5.41614 -1.99752,-10.89109 -3.76679,-16.13518 -1.32193,-2.64386 2.41705,-4.51335 3.73898,-1.86949 z"
       inkscape:connector-curvature="0" />
    <path
       style="fill:#000000;fill-opacity:1;fill-rule:nonzero;stroke:none"
       id="path29683"
       d="m 527.55352,617.94831 c 0.73723,5.23916 1.85836,10.41398 2.71192,15.63502 0.82916,4.06848 1.65829,8.13634 2.39832,12.22217 0.37971,2.11506 0.67898,1.76929 -3.84366,1.22467 -0.21466,-0.0258 0.007,-0.43237 0.008,-0.64857 0.003,-0.39047 0.003,-0.78096 0.004,-1.17143 -0.1111,-3.73287 0.96273,-7.35247 2.62513,-10.65565 2.49829,-3.56442 4.62203,-5.25283 9.01729,-3.91416 3.17503,1.73753 4.42494,4.90168 4.65698,8.35061 -0.46418,4.3134 -4.4473,5.81938 -8.06433,7.01267 -2.2116,0.59936 -4.47279,1.01549 -6.75287,1.2403 -0.11732,0.009 -0.23465,0.0175 -0.35197,0.0263 -2.94812,0.21465 -3.25167,-3.95463 -0.30355,-4.16927 l 0,0 c 0.0832,-0.006 0.16643,-0.0117 0.24965,-0.0175 1.97936,-0.19057 3.941,-0.55626 5.86541,-1.05495 1.67679,-0.53614 4.41403,-1.13683 5.18082,-2.86726 0.0246,-1.69998 -0.57819,-3.4836 -1.91335,-4.59387 -1.71427,-1.00041 -2.84994,0.58187 -3.86415,1.89432 -1.41451,2.69244 -2.25643,5.70442 -2.16479,8.76418 -0.003,0.68277 -0.004,2.10589 -0.0238,2.11483 -4.39055,1.94343 -3.98203,1.69899 -4.43849,-0.79019 -0.74417,-4.10959 -1.58232,-8.20015 -2.41059,-12.29339 -0.85091,-5.2168 -1.97401,-10.38667 -2.70968,-15.6215 -0.48595,-2.9157 3.63747,-3.60294 4.12342,-0.68724 z"
       inkscape:connector-curvature="0" />
    <path
       style="fill:#000000;fill-opacity:1;fill-rule:nonzero;stroke:none"
       id="path29685"
       d="m 564.48402,618.89332 c -2.26693,4.04223 -4.72161,7.96865 -7.00665,12.00078 -2.9774,5.21139 -5.43382,10.69027 -8.02898,16.09673 -1.05439,2.45685 -0.57079,1.27936 -1.46086,3.52829 -1.08918,2.74794 -4.97535,1.20761 -3.88617,-1.54033 l 0,0 c 0.95805,-2.41379 0.43578,-1.14643 1.57854,-3.79722 2.63695,-5.4915 5.13354,-11.05658 8.16081,-16.34893 2.25024,-3.96868 4.65784,-7.83848 6.90433,-11.80881 1.32193,-2.64386 5.06091,-0.77437 3.73898,1.86949 z"
       inkscape:connector-curvature="0" />
    <path
       style="fill:#000000;fill-opacity:1;fill-rule:nonzero;stroke:none"
       id="path29687"
       d="m 570.13485,630.30041 c -2.3896,-0.18306 -3.73561,1.5712 -4.72858,3.50637 -1.20345,3.19461 -1.76103,6.58016 -1.00108,9.93503 -0.2806,1.10116 0.91611,0.83821 0.74501,0.67177 -0.14759,-0.14358 -0.4315,-0.12767 -0.5377,-0.30407 -0.20283,-0.33694 0.29868,-0.72764 0.44764,-1.09162 1.0022,-3.06827 1.19372,-6.31213 1.34722,-9.51297 0.0604,-1.51734 0.0752,-3.03654 0.0483,-4.55481 -0.34389,-1.91186 4.16351,-1.8421 4.15713,0.63891 0.50619,2.69339 1.54281,5.24715 2.61123,7.76181 1.31652,2.60449 3.3004,3.96412 6.08266,4.58783 2.86248,0.73738 1.81967,4.78553 -1.0428,4.04815 l 0,0 c -4.22994,-1.17994 -6.86613,-3.0094 -8.88973,-7.00705 -1.27642,-3.02799 -2.55058,-6.11298 -2.94165,-9.40156 0.007,-2.52694 4.54652,-2.80238 4.20282,-0.7014 0.028,1.60992 0.0127,3.22079 -0.0525,4.8297 -0.18618,3.83244 -0.43351,7.73058 -1.86508,11.33549 -0.35536,0.57774 -0.62217,1.2204 -1.06609,1.73324 -2.70138,3.12073 -6.32766,1.20641 -7.34109,-2.19147 -0.83864,-4.37006 -0.3146,-8.70502 1.44343,-12.81062 2.18671,-3.74089 4.7976,-6.12926 9.39474,-5.52822 2.86767,0.71691 1.85379,4.7724 -1.01387,4.05549 z"
       inkscape:connector-curvature="0" />
    <path
       style="fill:#000000;fill-opacity:1;fill-rule:nonzero;stroke:none"
       id="path29689"
       d="m 507.77051,701.59469 c -2.53071,0.008 -5.05633,-0.37066 -7.31352,0.94792 -1.78185,1.49413 -1.91928,3.95116 -2.16468,6.11522 -0.2702,2.5986 -0.053,4.26711 2.38763,5.45906 2.0379,0.97031 4.08885,0.57167 6.19416,0.10232 2.89381,-0.60282 3.74631,3.48964 0.8525,4.09245 l 0,0 c -3.15035,0.62243 -6.18207,0.96108 -9.15365,-0.58429 -4.0292,-2.54905 -4.8372,-4.87908 -4.43281,-9.5537 0.42925,-3.59825 1.11142,-7.17142 4.34725,-9.31828 2.97275,-1.50861 5.99332,-1.61218 9.28312,-1.441 2.95592,0 2.95592,4.1803 0,4.1803 z"
       inkscape:connector-curvature="0" />
    <path
       style="fill:#000000;fill-opacity:1;fill-rule:nonzero;stroke:none"
       id="path29691"
       d="m 530.48336,697.30223 c -2.24853,2.95177 -4.11786,6.16858 -6.15092,9.26782 -3.34969,5.11842 -6.71948,10.20044 -9.73312,15.525 -0.78572,2.44089 -3.09893,4.72588 -3.39024,7.33544 -0.62477,2.88914 -4.71063,2.00558 -4.08586,-0.88356 l 0,0 c 0.76259,-3.02665 2.50158,-5.7159 3.83819,-8.51114 3.05945,-5.40424 6.47503,-10.5658 9.87649,-15.75989 2.1899,-3.33306 4.1715,-6.82681 6.68954,-9.92959 2.09015,-2.09015 5.04607,0.86577 2.95592,2.95592 z"
       inkscape:connector-curvature="0" />
    <path
       style="fill:#000000;fill-opacity:1;fill-rule:nonzero;stroke:none"
       id="path29693"
       d="m 537.03265,708.56187 c -3.22537,0.16047 -4.91081,2.40907 -6.56587,4.90074 -1.54105,2.83241 -2.5647,5.99489 -1.36583,9.1296 0.12346,0.13716 0.56598,0.73055 0.8603,0.69812 0.18001,-0.0198 -0.0278,-0.39883 0.0908,-0.53563 1.29404,-1.49179 -0.33888,0.86162 0.96168,-1.12717 1.7686,-2.31934 2.54157,-5.06705 3.0677,-7.88338 0.19436,-1.37226 0.33435,-2.75673 0.33978,-4.14389 4.65996,-0.0589 4.14942,-0.32417 4.14066,2.72919 -0.15697,1.54575 0.94579,1.99243 2.14523,2.63988 1.79881,0.75933 3.6622,1.36733 5.51349,1.98946 2.8016,0.94264 1.46851,4.90468 -1.33309,3.96205 l 0,0 c -2.09771,-0.70663 -4.21851,-1.38265 -6.23075,-2.30857 -2.43369,-1.40714 -4.47672,-3.22771 -4.27516,-6.29488 0.002,-0.85021 -0.37552,-9.35288 4.21985,-2.6924 -0.0121,1.63879 -0.16695,3.27476 -0.41223,4.89448 -0.66789,3.50756 -1.71886,6.90234 -3.94829,9.76516 -3.22137,3.57596 -6.41685,4.26978 -9.11109,-0.38646 -1.35096,-4.47998 -0.50714,-8.7605 1.87202,-12.77426 2.47727,-3.62394 5.35958,-6.5988 10.03076,-6.74234 2.95593,0 2.95593,4.1803 0,4.1803 z"
       inkscape:connector-curvature="0" />
  </g>
</svg>
