<?xml version="1.0" encoding="UTF-8" standalone="no"?>
<!-- Created with Inkscape (http://www.inkscape.org/) -->

<svg
   xmlns:dc="http://purl.org/dc/elements/1.1/"
   xmlns:cc="http://creativecommons.org/ns#"
   xmlns:rdf="http://www.w3.org/1999/02/22-rdf-syntax-ns#"
   xmlns:svg="http://www.w3.org/2000/svg"
   xmlns="http://www.w3.org/2000/svg"
   xmlns:sodipodi="http://sodipodi.sourceforge.net/DTD/sodipodi-0.dtd"
   xmlns:inkscape="http://www.inkscape.org/namespaces/inkscape"
   width="432.75839"
   height="380.62027"
   id="svg2985"
   version="1.1"
   inkscape:version="0.48.0 r9654"
   sodipodi:docname="Hodograph.svg">
  <defs
     id="defs2987">
    <inkscape:path-effect
       effect="spiro"
       id="path-effect3796"
       is_visible="true" />
  </defs>
  <sodipodi:namedview
     inkscape:document-units="mm"
     pagecolor="#ffffff"
     bordercolor="#666666"
     borderopacity="1.0"
     inkscape:pageopacity="0.0"
     inkscape:pageshadow="2"
     inkscape:zoom="1.4029731"
     inkscape:cx="209.08377"
     inkscape:cy="190.31015"
     inkscape:current-layer="layer1"
     id="namedview2989"
     showgrid="false"
     fit-margin-top="0"
     fit-margin-left="0"
     fit-margin-right="0"
     fit-margin-bottom="0"
     inkscape:window-width="1280"
     inkscape:window-height="752"
     inkscape:window-x="0"
     inkscape:window-y="0"
     inkscape:window-maximized="1" />
  <metadata
     id="metadata2991">
    <rdf:RDF>
      <cc:Work
         rdf:about="">
        <dc:format>image/svg+xml</dc:format>
        <dc:type
           rdf:resource="http://purl.org/dc/dcmitype/StillImage" />
        <dc:title />
      </cc:Work>
    </rdf:RDF>
  </metadata>
  <g
     inkscape:label="Layer 1"
     inkscape:groupmode="layer"
     id="layer1"
     transform="translate(-320.09099,-173.18111)">
    <path
       style="fill:#000000;fill-opacity:1;fill-rule:nonzero;stroke:none"
       id="path3764"
       d="m 331.79739,371.24625 c 7.40547,-3.8785 14.71053,-7.94355 22.1198,-11.81897 26.40317,-13.87792 53.34403,-26.69821 80.35539,-39.33908 31.03021,-14.05247 61.93789,-28.37025 92.78838,-42.81219 15.57343,-7.51335 31.58373,-14.18932 46.70768,-22.60129 1.77822,-1.15209 3.74117,-2.07404 5.42967,-3.37135 0.0699,-0.0537 0.21091,-0.28264 0.15619,-0.2135 -0.75573,0.95484 -0.41517,0.37537 -0.23312,2.2508 0.48868,0.58558 0.70601,0.66783 1.23112,0.82522 -0.27084,0.0877 -0.85377,0.10801 -1.23445,0.12157 -2.95411,0.1035 -3.10047,-4.07425 -0.14636,-4.17774 l 0,0 c 0.6653,-0.0228 0.0566,0.0547 0.3526,0.004 1.24503,-0.29879 2.20691,-0.1204 3.21264,0.81648 0.12533,0.67442 0.42304,1.33891 0.37599,2.02326 -0.14254,2.07343 -5.92095,4.37317 -7.113,5.37458 -15.21192,8.4538 -31.3006,15.188 -46.96664,22.73368 -30.85065,14.44199 -61.75835,28.76015 -92.78883,42.8124 -26.95573,12.61454 -53.84121,25.408 -80.18995,39.25716 -7.69584,4.0244 -15.23525,8.38078 -23.04323,12.17017 -2.86767,0.71692 -3.88154,-3.33857 -1.01388,-4.05549 z"
       inkscape:connector-curvature="0" />
    <path
       style="fill:#000000;fill-opacity:1;fill-rule:nonzero;stroke:none"
       id="path3772"
       d="m 578.66904,252.90852 c -4.28344,0 -8.56688,0 -12.85031,0 -2.84553,0 -5.69105,0 -8.53658,0 -0.45588,0 -0.91176,0 -1.36764,0 -0.003,0 -0.005,0 -0.008,0 0.1157,-1.39344 0.2314,-2.78687 0.3471,-4.18031 2.95593,0 2.95593,4.18031 0,4.18031 l 0,0 c -0.1157,-1.39344 -0.2314,-2.78687 -0.3471,-4.18031 0.003,0 0.005,0 0.008,0 0.45588,0 0.91176,0 1.36764,0 2.84553,0 5.69105,0 8.53658,0 4.28343,0 8.56687,0 12.85031,0 2.95592,0 2.95592,4.18031 0,4.18031 z"
       inkscape:connector-curvature="0" />
    <path
       style="fill:#000000;fill-opacity:1;fill-rule:nonzero;stroke:none"
       id="path3774"
       d="m 581.53018,251.99202 c -0.72811,3.98624 -2.40365,7.70855 -3.57838,11.57438 -1.02703,3.02046 -2.0019,6.05849 -2.94231,9.10695 -0.0969,0.31864 -0.1912,0.63808 -0.29195,0.95551 -0.59912,2.89457 -4.69266,2.04728 -4.09354,-0.84729 l 0,0 c 0.11221,-0.45187 0.25663,-0.89481 0.39096,-1.34054 0.93899,-3.04355 1.91054,-6.07734 2.93782,-9.09233 1.15852,-3.79737 2.79887,-7.45667 3.5219,-11.37056 0.71692,-2.86766 4.77241,-1.85379 4.0555,1.01388 z"
       inkscape:connector-curvature="0" />
    <path
       inkscape:connector-curvature="0"
       d="m 334.14838,373.63066 c 7.71136,3.22781 15.5023,6.25927 23.21371,9.49197 27.53201,11.47659 54.59268,24.04201 81.56018,36.77619 30.61856,14.92814 61.36324,29.59266 92.16704,44.13393 15.72158,7.19819 31.0771,15.26705 47.20386,21.5458 2.02167,0.63421 3.98399,1.5575 6.06024,2.02997 0.086,0.0196 0.3522,-0.0179 0.26405,-0.0159 -1.21741,0.0273 -0.55393,-0.0802 -1.88189,1.25655 -0.13913,0.7499 -0.0638,0.96973 0.15004,1.47449 -0.24033,-0.1526 -0.62789,-0.5885 -0.88122,-0.87298 -1.96447,-2.20869 1.1591,-4.98688 3.12357,-2.77818 l 0,0 c 0.44203,0.49774 -0.006,0.0785 0.22188,0.27406 1.02443,0.76806 1.50076,1.62255 1.42102,2.99473 -0.43935,0.5268 -0.76108,1.18 -1.31806,1.58039 -1.68753,1.21313 -7.14511,-1.76908 -8.67677,-2.04806 -16.21509,-6.3198 -31.66545,-14.41186 -47.47102,-21.66074 -30.80394,-14.54136 -61.54892,-29.20566 -92.16749,-44.13415 -26.91173,-12.70814 -53.91641,-25.24803 -81.39155,-36.70106 -8.00896,-3.35831 -16.17375,-6.38435 -24.0733,-9.97895 -2.38167,-1.75076 0.0943,-5.11894 2.47593,-3.36819 z"
       id="path3776"
       style="fill:#000000;fill-opacity:1;fill-rule:nonzero;stroke:none" />
    <path
       inkscape:connector-curvature="0"
       d="m 582.77973,488.22509 c -2.73292,-3.29834 -5.46584,-6.59667 -8.19875,-9.895 -1.8155,-2.19112 -3.631,-4.38223 -5.4465,-6.57334 -0.29086,-0.35104 -0.58172,-0.70208 -0.87258,-1.05311 -0.002,-0.002 -0.003,-0.004 -0.005,-0.006 1.1468,-0.79995 2.29359,-1.5999 3.44038,-2.39985 1.88594,2.27613 -1.33298,4.94325 -3.21892,2.66712 l 0,0 c 0.99916,-0.97813 1.99831,-1.95626 2.99747,-2.93439 0.002,0.002 0.003,0.004 0.005,0.006 0.29086,0.35104 0.58172,0.70207 0.87258,1.05311 1.8155,2.19112 3.631,4.38222 5.4465,6.57334 2.73292,3.29833 5.46583,6.59666 8.19875,9.895 1.88594,2.27612 -1.33299,4.94324 -3.21892,2.66712 z"
       id="path3778"
       style="fill:#000000;fill-opacity:1;fill-rule:nonzero;stroke:none" />
    <path
       inkscape:connector-curvature="0"
       d="m 585.31091,489.84348 c -3.53403,1.98264 -7.46931,3.06734 -11.19558,4.62925 -2.98108,1.13628 -5.94241,2.32393 -8.88979,3.54477 -0.30718,0.12869 -0.61332,0.25988 -0.92203,0.38483 -2.61113,1.38546 -4.57045,-2.30724 -1.95933,-3.6927 l 0,0 c 0.41955,-0.20189 0.85276,-0.37329 1.28169,-0.55424 2.94269,-1.2188 5.89863,-2.4063 8.87566,-3.5389 3.66321,-1.53071 7.52752,-2.60231 11.0026,-4.5427 2.66557,-1.27758 4.47235,2.4921 1.80678,3.76969 z"
       id="path3780"
       style="fill:#000000;fill-opacity:1;fill-rule:nonzero;stroke:none" />
    <path
       style="fill:#000000;fill-opacity:1;fill-rule:nonzero;stroke:none"
       id="path3786"
       d="m 339.58272,383.77929 c -2.49782,2.26015 -5.58538,3.33292 -8.88148,3.64952 -3.28178,0.14357 -6.72088,-0.93965 -8.50353,-3.93154 -0.38083,-0.63917 -0.57794,-1.37123 -0.86691,-2.05684 -1.34594,-5.1498 1.28182,-9.35548 4.67291,-12.98534 2.89778,-2.33045 6.8758,-5.08919 10.87063,-4.47253 0.74153,0.11446 1.42533,0.46933 2.138,0.70399 4.29408,3.30952 4.22393,8.42027 3.18779,13.27074 -1.73563,4.83487 -5.40241,7.34303 -10.31967,8.12426 -4.01243,-0.23487 -7.29119,-2.73831 -8.02995,-6.82144 -0.14845,-0.82049 -0.0865,-1.66538 -0.12977,-2.49807 0.49985,-5.43407 2.91334,-8.65977 7.73767,-10.98226 5.26471,-1.52259 8.23869,0.46344 10.54023,5.14111 1.64198,4.30174 1.36546,8.3905 -0.75274,12.42258 -2.12777,2.97244 -5.84401,4.68341 -9.39003,3.00892 -0.73573,-0.34743 -1.3361,-0.9289 -2.00416,-1.39335 -3.35486,-3.88421 -4.31543,-7.8846 -3.10056,-12.82664 1.364,-3.42457 4.74024,-5.79688 8.52957,-4.67526 0.72843,0.21561 1.36878,0.65944 2.05317,0.98917 2.07978,1.83416 4.42897,4.69947 4.2609,7.71648 -0.0395,0.70911 -0.30256,1.38783 -0.45384,2.08175 -1.75732,3.52 -5.29301,5.05726 -8.81477,6.28889 -3.51418,1.35071 -5.24895,-0.38523 -5.35536,-3.88184 0.2838,-2.96533 2.52833,-4.48716 4.8344,-5.95048 1.44044,-0.63763 3.50779,-2.14101 5.19275,-1.36192 0.49807,0.2303 0.90076,0.62696 1.35113,0.94043 1.25329,2.00672 0.94629,4.00227 0.26153,6.13673 -0.78879,1.57065 -2.33278,3.35004 -4.32893,3.11493 -0.53419,-0.0629 -1.01647,-0.35221 -1.5247,-0.52831 -2.26768,-1.82361 -2.8995,-4.54676 -2.64006,-7.32912 0.36717,-3.11532 3.01454,-4.06274 5.77519,-4.0652 2.62089,0.19548 3.99713,1.78576 4.60251,4.22254 0.18767,3.34571 -2.38498,4.94534 -5.18074,5.94959 -3.18343,0.63586 -5.40869,-0.89282 -6.60518,-3.75665 -0.56054,-2.74445 0.52525,-4.82401 2.96873,-6.07291 0.80644,-0.34013 1.65562,-0.57461 2.52992,-0.63258 1.92711,-0.0853 2.33676,1.94537 2.32994,3.36443 -0.004,0.49273 -0.0106,0.98542 -0.0198,1.47807 0.0969,1.23821 -2.99376,-1.99575 -1.49889,-2.01915 0.6697,-0.008 0.32462,-0.0278 -0.96383,0.38248 2.17274,-2.00417 5.00706,1.06855 2.83432,3.07272 l 0,0 c -1.64487,0.75392 -0.99754,0.71516 -1.80549,0.7246 -1.19629,0.0185 -2.80236,-1.08736 -2.74558,-2.24392 0.009,-0.47183 0.0156,-0.94371 0.0191,-1.41562 0.0109,-2.10922 0.40305,0.82468 2.06076,0.83139 -0.23208,0.0223 -0.66818,0.11587 -0.93801,0.22938 -0.56477,0.21365 -0.62342,0.13409 -0.88334,0.76477 0.26104,0.752 0.35758,1.36345 1.33225,1.34885 0.86753,-0.29467 1.71583,-0.62747 2.48382,-1.10464 -0.0323,-0.22189 -0.21708,-0.45164 -0.1328,-0.65942 0.0489,-0.12056 0.703,0.0389 -0.58119,-0.28811 -0.64258,-0.14541 -0.14467,-0.0823 -0.97212,0.0103 -0.46207,0.0517 -0.20471,-0.81235 -0.45388,0.33286 -0.15559,1.11609 0.0505,2.14236 0.42238,3.1714 -1.38525,0.17322 -0.62093,0.44151 -0.0619,-0.16848 0.10127,-0.3103 0.45266,-1.04301 0.48214,-1.34007 0.0283,-0.28495 -0.30436,-0.66805 -0.0871,-0.85462 0.0736,-0.0632 0.15887,0.11143 0.2383,0.16714 0.25609,0.10133 0.50259,0.23141 0.76825,0.30399 0.0936,0.0256 0.34292,-0.1745 0.24873,-0.15122 -0.78663,0.19448 -1.50273,0.66793 -2.24189,0.9773 -1.09409,0.69094 -2.58595,1.27095 -2.8964,2.64494 -0.098,0.0544 -0.002,0.32624 -0.11324,0.31671 -0.22655,-0.0193 -0.39037,-0.26504 -0.61603,-0.29289 -1.79796,-0.22191 -0.50511,0.29254 0.53793,-0.31693 2.24624,-0.77519 4.63428,-1.62729 6.18018,-3.53109 1.02817,-1.57556 -0.85022,-3.76817 -1.82275,-4.94916 -1.67914,-1.29484 -3.62245,-0.86333 -4.52099,1.10568 -0.91339,3.02656 -0.24069,5.86743 1.60879,8.43409 1.6805,1.61093 3.6697,1.58707 5.18125,-0.31019 1.61775,-2.76247 1.67989,-5.61239 0.63574,-8.6341 -1.01912,-2.33436 -2.24417,-3.86393 -5.01592,-3.12006 -3.12284,1.31855 -4.94278,3.63248 -5.30029,7.07402 -0.0469,2.51721 0.67335,4.72157 3.40977,5.28637 3.1688,-0.32777 5.54712,-1.88931 6.81018,-4.89105 0.67956,-2.90227 1.00409,-5.83635 -0.67528,-8.48774 -2.56685,-1.74274 -6.43694,1.32807 -8.41769,2.7808 -2.31745,2.35512 -4.47153,5.17705 -3.76945,8.66327 0.57954,2.46747 2.74669,3.38721 5.12882,3.2547 2.29304,-0.0945 4.46821,-0.96652 6.24079,-2.43704 2.09015,-2.09016 5.04607,0.86577 2.95592,2.95592 z"
       inkscape:connector-curvature="0" />
    <path
       style="fill:none;stroke:#000000;stroke-width:3.12519693;stroke-linecap:butt;stroke-linejoin:miter;stroke-miterlimit:4;stroke-opacity:1;stroke-dasharray:6.2503937, 3.12519685;stroke-dashoffset:0"
       d="M 583.84942,486.30894 501.63673,294.01486"
       id="path3788"
       inkscape:connector-curvature="0"
       sodipodi:nodetypes="cc" />
    <path
       style="fill:none;stroke:#000000;stroke-width:3.12519693;stroke-linecap:butt;stroke-linejoin:miter;stroke-miterlimit:4;stroke-opacity:1;stroke-dasharray:6.2503937, 3.12519685;stroke-dashoffset:0"
       d="m 578.27568,253.60524 c 20.93133,36.72488 32.09637,78.9579 32.049,121.22887 -0.045,40.17272 -10.19641,80.29489 -29.26213,115.65514"
       id="path3794"
       inkscape:path-effect="#path-effect3796"
       inkscape:original-d="m 578.27568,253.60524 c 0,0 34.83587,50.16367 32.049,121.22887 -2.78687,71.06521 -29.26213,115.65514 -29.26213,115.65514"
       inkscape:connector-curvature="0"
       sodipodi:nodetypes="csc" />
    <path
       style="fill:#000000;fill-opacity:1;fill-rule:nonzero;stroke:none"
       id="path3802"
       d="m 583.30183,200.86186 c 3.65439,4.92953 6.63702,10.2612 9.44074,15.70467 2.53136,5.12044 5.30372,10.12284 7.39788,15.44504 0.13318,0.0919 1.11411,3.41696 1.08265,3.4134 -1.30352,-0.14737 -2.57756,-0.48965 -3.86635,-0.73447 0.63137,-3.3178 1.30646,-6.62621 1.99738,-9.93706 1.49495,-6.52507 2.59416,-13.131 3.9217,-19.68924 0.61963,-2.8081 1.24777,-5.61898 2.05536,-8.38036 0.0648,-0.23123 0.14501,-0.45694 0.23246,-0.68031 1.12876,-2.73191 4.99228,-1.1356 3.86351,1.59632 l 0,0 c -0.0281,0.0864 -0.0577,0.17231 -0.0843,0.2592 -0.77687,2.64698 -1.37174,5.34431 -1.9701,8.03569 -1.33298,6.56544 -2.42736,13.18089 -3.92668,19.71343 -0.72152,3.45117 -1.39383,6.90642 -2.10709,10.35373 -5.40529,0.42208 -3.72374,1.24745 -5.08958,-2.42223 -2.03539,-5.19342 -4.76802,-10.0598 -7.22352,-15.05963 -2.7613,-5.36553 -5.71495,-10.6046 -9.30868,-15.46743 -1.52081,-2.53469 2.06377,-4.68544 3.58458,-2.15075 z"
       inkscape:connector-curvature="0" />
    <path
       style="fill:#000000;fill-opacity:1;fill-rule:nonzero;stroke:none"
       id="path3804"
       d="m 615.69526,195.04065 c 2.9113,0.50424 5.91395,0.17334 8.85055,0.0224 1.19691,-0.0666 2.39417,-0.12937 3.59006,-0.21283 0.0323,-0.002 0.0646,-0.005 0.0969,-0.007 2.93914,-0.31451 3.38393,3.84206 0.44479,4.15658 l 0,0 c -0.0837,0.007 -0.1671,0.0169 -0.251,0.0209 -1.22128,0.085 -2.44389,0.14969 -3.6662,0.21743 -3.28336,0.16869 -6.6321,0.50811 -9.88495,-0.098 -2.89852,-0.5797 -2.07869,-4.67883 0.81983,-4.09912 z"
       inkscape:connector-curvature="0" />
    <path
       inkscape:connector-curvature="0"
       d="m 595.25357,518.31403 c 3.65439,4.92953 6.63702,10.2612 9.44074,15.70467 2.53136,5.12044 5.30372,10.12284 7.39788,15.44504 0.13318,0.0919 1.11411,3.41696 1.08265,3.4134 -1.30352,-0.14737 -2.57756,-0.48965 -3.86635,-0.73447 0.63137,-3.3178 1.30646,-6.62621 1.99738,-9.93706 1.49495,-6.52507 2.59416,-13.131 3.9217,-19.68924 0.61963,-2.8081 1.24777,-5.61898 2.05536,-8.38036 0.0648,-0.23123 0.14501,-0.45694 0.23246,-0.68031 1.12876,-2.73191 4.99228,-1.1356 3.86351,1.59632 l 0,0 c -0.0281,0.0864 -0.0577,0.17231 -0.0843,0.2592 -0.77687,2.64698 -1.37174,5.34431 -1.9701,8.03569 -1.33298,6.56544 -2.42736,13.18089 -3.92668,19.71343 -0.72152,3.45117 -1.39383,6.90642 -2.10709,10.35373 -5.40529,0.42208 -3.72374,1.24745 -5.08958,-2.42223 -2.03539,-5.19342 -4.76802,-10.0598 -7.22352,-15.05963 -2.7613,-5.36553 -5.71495,-10.6046 -9.30868,-15.46743 -1.52081,-2.53469 2.06377,-4.68544 3.58458,-2.15075 z"
       id="path3806"
       style="fill:#000000;fill-opacity:1;fill-rule:nonzero;stroke:none" />
    <path
       inkscape:connector-curvature="0"
       d="m 629.04044,512.49282 c 2.9113,0.50424 5.91395,0.17334 8.85055,0.0224 1.19691,-0.0666 2.39417,-0.12937 3.59006,-0.21283 0.0323,-0.002 0.0646,-0.005 0.0969,-0.007 2.93914,-0.31451 3.38393,3.84206 0.44479,4.15658 l 0,0 c -0.0837,0.007 -0.1671,0.0169 -0.251,0.0209 -1.22128,0.085 -2.44389,0.14969 -3.6662,0.21743 -3.28336,0.16869 -6.6321,0.50811 -9.88495,-0.098 -2.89852,-0.5797 -2.07869,-4.67883 0.81983,-4.09912 z"
       id="path3808"
       style="fill:#000000;fill-opacity:1;fill-rule:nonzero;stroke:none" />
    <path
       style="fill:#000000;fill-opacity:1;fill-rule:nonzero;stroke:none"
       id="path3814"
       d="m 622.02262,188.99131 c 0.73788,2.82335 0.76039,5.75958 1.26875,8.61665 0.41742,2.11331 0.90935,4.20815 1.24147,6.33732 0.0765,0.50678 0.14604,1.01473 0.18232,1.526 5.4e-4,0.0528 10e-4,0.1056 0.002,0.15839 -0.0544,2.95542 -4.23399,2.87849 -4.17959,-0.0769 l 0,0 c 7.9e-4,0.0389 0.002,0.0779 0.002,0.11683 -0.0246,-0.23497 -0.0847,-0.78325 -0.1373,-1.08145 -0.3271,-2.10717 -0.82775,-4.17741 -1.23055,-6.2707 -0.46312,-2.76198 -0.54492,-5.57986 -1.20458,-8.31224 -0.71692,-2.86766 3.33858,-3.88153 4.05549,-1.01387 z"
       inkscape:connector-curvature="0" />
    <path
       style="fill:#000000;fill-opacity:1;fill-rule:nonzero;stroke:none"
       id="path3816"
       d="m 574.87572,189.25964 c 5.14773,0.0345 10.13464,-1.60022 15.08759,-2.81661 5.19135,-1.24855 10.46897,-2.05954 15.77771,-2.58968 1.09469,-0.0726 2.19188,-0.22577 3.29148,-0.19825 0.0897,0.009 0.26449,-0.063 0.26907,0.027 0.0704,1.38527 0.003,2.77499 -0.0561,4.16079 -0.0245,0.57608 -3.88251,-3.44889 -2.23549,-0.63083 -2.30336,-0.92073 -4.35006,-2.27419 -6.42919,-3.60747 -1.10103,-0.70967 -1.98582,-1.92205 -3.21713,-2.42773 -2.62563,-1.35777 -0.70545,-5.07097 1.92018,-3.7132 l 0,0 c 1.29378,0.7153 2.45697,1.62942 3.55355,2.62202 1.98128,1.27056 3.91159,2.56427 6.11693,3.42577 0.48465,0.43288 2.06506,1.07771 1.45395,1.29862 -2.98154,1.07779 -3.24305,-6.03499 -1.72357,3.00657 0.0108,0.0642 0.12969,0.0106 0.19454,0.0159 -0.89214,0.0177 -1.82514,0.0984 -2.7235,0.18044 -5.11281,0.50885 -10.19555,1.2886 -15.19549,2.48968 -5.28074,1.29669 -10.59391,2.99997 -16.08452,2.93722 -2.95592,0 -2.95592,-4.1803 0,-4.1803 z"
       inkscape:connector-curvature="0" />
    <path
       inkscape:connector-curvature="0"
       d="m 588.22089,506.71181 c 5.14773,0.0345 10.13464,-1.60022 15.08759,-2.81661 5.19135,-1.24855 10.46897,-2.05954 15.77771,-2.58968 1.09469,-0.0726 2.19188,-0.22577 3.29148,-0.19825 0.0897,0.009 0.26449,-0.063 0.26907,0.027 0.0704,1.38527 0.003,2.77499 -0.0561,4.16079 -0.0245,0.57608 -3.88251,-3.44889 -2.23549,-0.63083 -2.30336,-0.92073 -4.35006,-2.27419 -6.42919,-3.60747 -1.10103,-0.70967 -1.98582,-1.92205 -3.21713,-2.42773 -2.62563,-1.35777 -0.70545,-5.07097 1.92018,-3.7132 l 0,0 c 1.29378,0.7153 2.45697,1.62942 3.55355,2.62202 1.98128,1.27056 3.91159,2.56427 6.11693,3.42577 0.48465,0.43288 2.06506,1.07771 1.45395,1.29862 -2.98154,1.07779 -3.24305,-6.03499 -1.72357,3.00657 0.0108,0.0642 0.12969,0.0106 0.19454,0.0159 -0.89214,0.0177 -1.82514,0.0984 -2.7235,0.18044 -5.11281,0.50885 -10.19555,1.2886 -15.19549,2.48968 -5.28074,1.29669 -10.59391,2.99997 -16.08452,2.93722 -2.95592,0 -2.95592,-4.1803 0,-4.1803 z"
       id="path3818"
       style="fill:#000000;fill-opacity:1;fill-rule:nonzero;stroke:none" />
    <path
       style="fill:none;stroke:#000000;stroke-width:3.12519693;stroke-linecap:butt;stroke-linejoin:miter;stroke-miterlimit:4;stroke-opacity:1;stroke-dasharray:6.2503937, 3.12519685;stroke-dashoffset:0"
       d="m 581.06255,254.99868 51.5571,111.47482 -45.98336,118.44201"
       id="path3820"
       inkscape:connector-curvature="0"
       sodipodi:nodetypes="ccc" />
    <path
       style="fill:#000000;fill-opacity:1;fill-rule:nonzero;stroke:none"
       id="path3832"
       d="m 611.48001,366.22902 c 2.63402,0 5.26805,0 7.90208,0 2.35234,0 4.70469,0 7.05703,0 1.00271,0 2.00543,0 3.00814,0 1.01899,0.001 1.57071,-0.0901 -0.83173,2.54626 -0.21785,0.23906 -0.36975,-0.53075 -0.55462,-0.79612 0.83476,1.23242 -1.47374,-0.43844 -1.81118,-0.60458 -1.64795,-0.84448 -3.33602,-1.58832 -4.94978,-2.50096 -0.47748,-0.28331 -0.96334,-0.55625 -1.41718,-0.8772 -3.46149,-4.90443 2.35162,-2.04953 2.87888,-1.72965 1.45119,0.70228 2.91535,1.37819 4.40963,1.99366 1.42761,0.3896 2.76592,0.93358 3.95112,1.82735 1.31139,1.09018 0.7531,1.13149 -0.27678,3.08374 -1.33102,0.69411 -2.66465,1.35991 -3.93007,2.1802 -1.35359,0.75477 -2.6484,1.5611 -3.71654,2.69227 -0.0936,0.0896 -0.16365,0.19603 -0.23751,0.30017 -1.1796,1.72549 -3.6198,0.0573 -2.44021,-1.66819 l 0,0 c 0.16546,-0.23544 0.33965,-0.46398 0.53906,-0.67247 1.23723,-1.28731 2.6881,-2.28258 4.25357,-3.13619 1.49169,-0.9571 3.05863,-1.76328 4.65473,-2.51863 -0.22283,0.66044 -0.48988,1.30757 -0.66848,1.98132 -0.0314,0.11853 0.36482,0.40319 0.0254,0.10488 -0.96932,-0.76226 -2.12018,-1.0759 -3.28267,-1.44238 -1.64177,-0.67975 -3.24817,-1.42331 -4.83787,-2.21289 -3.48459,-2.23624 2.3829,1.99328 0.39684,-3.18781 0.37085,0.25794 0.76666,0.47829 1.15425,0.70945 1.57659,0.89339 3.2309,1.61079 4.83934,2.4415 1.08764,0.56984 2.54032,1.11936 3.20689,2.13095 -1.63789,-1.82096 0.19591,2.46816 -1.35508,2.31124 -1.00271,0 -2.00543,0 -3.00814,0 -2.35234,0 -4.70469,0 -7.05703,0 -2.63403,0 -5.26806,0 -7.90208,0 -2.09016,0 -2.09016,-2.95592 0,-2.95592 z"
       inkscape:connector-curvature="0" />
    <path
       style="fill:#000000;fill-opacity:1;fill-rule:nonzero;stroke:none"
       id="path3846"
       d="m 582.88913,258.14831 c 1.13052,3.03136 0.92968,6.40297 0.95514,9.59343 0.01,2.49423 -0.0129,4.9884 -0.0347,7.48251 -0.005,0.59957 -0.0102,1.19915 -0.0147,1.79873 -3.3037,-0.23185 -2.9564,0.62252 -2.95621,-1.40101 1.4e-4,-1.80644 1.5e-4,-3.61288 1.6e-4,-5.41932 10e-6,-1.31622 10e-6,-2.63244 10e-6,-3.94866 0,-1.08829 0,-2.17657 0,-3.26486 0,-0.28048 0,-0.56096 0,-0.84144 0,-0.44951 0,-0.89902 0,-1.34853 0,-0.16158 0,-0.32315 0,-0.48472 1.63358,-1.5463 1.5566,-1.73142 3.03046,-1.01382 1.52549,0.87296 2.91708,1.92188 4.26233,3.04965 1.68236,1.43916 3.39993,2.86732 5.22122,4.12978 0.88833,0.61659 1.78025,1.22797 2.67301,1.83811 1.72563,1.17938 0.0577,3.61979 -1.66789,2.44042 l 0,0 c -0.90085,-0.61569 -1.80086,-1.23262 -2.69722,-1.85484 -1.88583,-1.3244 -3.68549,-2.78628 -5.43,-4.28982 -1.16516,-0.98023 -2.36505,-1.90193 -3.68166,-2.66858 -0.80377,-0.42083 0.72602,-1.0846 1.24567,-1.6309 0,0.16157 0,0.32314 0,0.48472 0,0.44951 0,0.89902 0,1.34853 0,0.28048 0,0.56096 0,0.84144 0,1.08829 0,2.17657 0,3.26486 0,1.31623 0,2.63246 -10e-6,3.94868 -1e-5,1.80653 -2e-5,3.61306 -1.5e-4,5.41959 -2e-4,2.03046 0.34176,1.18239 -2.95556,1.37909 0.005,-0.601 0.01,-1.20201 0.0147,-1.80301 0.0217,-2.47767 0.0442,-4.95541 0.0347,-7.43322 -0.0215,-2.74566 0.15773,-5.64682 -0.64317,-8.29488 -0.93474,-1.86949 1.70911,-3.19142 2.64386,-1.32193 z"
       inkscape:connector-curvature="0" />
    <path
       style="fill:#000000;fill-opacity:1;fill-rule:nonzero;stroke:none"
       id="path3850"
       d="m 502.99953,295.38352 c 0,2.4353 0,4.87061 0,7.30592 0,2.38189 0,4.76379 0,7.14569 0,0.57401 0,1.14802 0,1.72203 -3.65255,-0.15003 -2.95593,0.33007 -2.95593,-2.26316 0,-2.00647 0,-4.01295 0,-6.01943 0,-1.13758 0,-2.27517 0,-3.41275 0,-0.7383 0,-1.4766 0,-2.2149 0,-0.28694 0,-0.57389 0,-0.86083 1.77022,-1.68141 1.65337,-1.56991 3.32115,-1.1179 1.79109,0.50168 3.20503,1.72472 4.82472,2.56833 1.36756,0.81061 2.83218,1.40297 4.36298,1.81514 0.80732,0.12191 1.38373,0.61902 1.86861,1.23243 1.21905,1.69784 -1.18206,3.42184 -2.40111,1.724 l 0,0 c 0.2078,0.007 0.63925,0.0575 -0.24075,-0.10343 -1.73939,-0.47403 -3.41185,-1.13867 -4.97039,-2.05448 -1.42218,-0.75949 -2.68172,-1.79603 -4.21752,-2.32906 -1.44625,-0.39221 -1.00279,-0.23227 0.40824,-1.73503 0,0.28694 0,0.57389 0,0.86083 0,0.7383 0,1.4766 0,2.2149 0,1.13758 0,2.27517 0,3.41275 0,2.00648 0,4.01296 0,6.01943 0,2.59323 0.69662,2.11313 -2.95593,2.26316 0,-0.57401 0,-1.14802 0,-1.72203 0,-2.3819 0,-4.7638 0,-7.14569 0,-2.43531 0,-4.87062 0,-7.30592 0,-2.09015 2.95593,-2.09015 2.95593,0 z"
       inkscape:connector-curvature="0" />
    <path
       style="fill:#000000;fill-opacity:1;fill-rule:nonzero;stroke:none"
       id="path3852"
       d="m 502.57776,343.88996 c 0,2.30398 0,4.60794 0,6.91191 0,1.57171 0,3.14341 0,4.71512 0,0.19902 0,0.39804 0,0.59707 0,1.79478 -2.68743,1.79478 -2.68743,0 l 0,0 c 0,-0.19903 0,-0.39805 0,-0.59707 0,-1.57171 0,-3.14341 0,-4.71512 0,-2.30397 0,-4.60793 0,-6.91191 0,-1.79478 2.68743,-1.79478 2.68743,0 z"
       inkscape:connector-curvature="0" />
    <path
       style="fill:#000000;fill-opacity:1;fill-rule:nonzero;stroke:none"
       id="path3858"
       d="m 500.2045,336.70203 c -1.22759,-0.61294 -2.51898,-1.09928 -3.91134,-0.83683 -2.27644,1.13425 -3.24688,3.36901 -3.99591,5.56388 -1.21924,4.64665 -1.40306,9.41259 -0.75367,14.14035 0.6652,3.18768 1.44129,6.69792 4.0865,9.01024 0.4023,0.35168 0.88417,0.61224 1.32626,0.91836 2.88266,1.42147 6.25192,1.62286 9.24505,0.32725 0.68438,-0.29624 1.30727,-0.70554 1.96091,-1.05832 3.60544,-2.41779 6.16868,-5.9891 6.97268,-10.13656 0.1758,-0.90686 0.18109,-1.8359 0.27163,-2.75386 -0.27665,-4.56368 -2.12553,-9.00434 -5.79946,-12.09379 -0.63296,-0.53226 -1.36139,-0.95362 -2.04209,-1.43043 -2.80574,-1.69011 -6.00632,-2.68742 -9.28201,-1.83839 -0.16754,0.0958 -0.33507,0.1916 -0.5026,0.28739 -1.68221,0.83484 -2.93226,-1.41207 -1.25004,-2.2469 l 0,0 c 0.35985,-0.16594 0.7197,-0.33187 1.07955,-0.4978 4.23026,-0.98937 7.94297,0.0738 11.57296,2.26896 0.79565,0.57445 1.64743,1.08551 2.38695,1.72335 4.21189,3.63277 6.2919,8.78049 6.5107,14.08141 -0.12054,1.06585 -0.14361,2.1456 -0.36162,3.19754 -0.99579,4.80488 -4.02749,8.89636 -8.24825,11.65616 -0.80893,0.41716 -1.57999,0.9078 -2.42676,1.25148 -3.85643,1.5652 -8.10357,1.20043 -11.71637,-0.71857 -0.5805,-0.42979 -1.2106,-0.80575 -1.74151,-1.28937 -2.97293,-2.70812 -3.97562,-6.64916 -4.70822,-10.3364 -0.68127,-5.1058 -0.49368,-10.25327 0.86866,-15.26127 1.11369,-3.09849 2.66467,-6.12629 6.1549,-7.2758 1.96894,-0.22438 3.76878,0.15442 5.50496,1.07767 1.69967,0.80265 0.49782,3.07289 -1.20186,2.27025 z"
       inkscape:connector-curvature="0" />
    <path
       inkscape:connector-curvature="0"
       d="m 635.39696,320.56288 c -1.14582,-0.54569 -2.3512,-0.97867 -3.65082,-0.74502 -2.12483,1.00981 -3.03063,2.99939 -3.72977,4.95345 -1.13803,4.13685 -1.30961,8.37991 -0.70347,12.58897 0.6209,2.83795 1.3453,5.96307 3.81432,8.0217 0.3755,0.3131 0.82528,0.54507 1.23792,0.8176 2.69066,1.26552 5.83552,1.44481 8.62929,0.29135 0.63879,-0.26374 1.2202,-0.62814 1.8303,-0.94221 3.3653,-2.15253 5.75781,-5.33201 6.50827,-9.02444 0.16409,-0.80737 0.16902,-1.63449 0.25353,-2.45173 -0.25822,-4.06299 -1.98395,-8.01645 -5.41319,-10.76694 -0.59079,-0.47387 -1.27071,-0.849 -1.90607,-1.2735 -2.61886,-1.50468 -5.60627,-2.39258 -8.66379,-1.63669 -0.15637,0.0853 -0.31274,0.17057 -0.46912,0.25586 -1.57016,0.74325 -2.73695,-1.25715 -1.16678,-2.00039 l 0,0 c 0.33588,-0.14773 0.67177,-0.29546 1.00765,-0.44319 3.9485,-0.88082 7.41393,0.0657 10.80214,2.02003 0.74266,0.51143 1.5377,0.96641 2.22797,1.53428 3.93136,3.23421 5.87282,7.81716 6.07705,12.53649 -0.11251,0.94891 -0.13404,1.9102 -0.33753,2.84673 -0.92946,4.27772 -3.75924,7.92031 -7.69888,10.37733 -0.75504,0.37139 -1.47475,0.8082 -2.26512,1.11418 -3.59957,1.39347 -7.56384,1.06872 -10.936,-0.63974 -0.54184,-0.38264 -1.12997,-0.71735 -1.62552,-1.14791 -2.77492,-2.411 -3.71082,-5.91966 -4.39463,-9.20236 -0.63589,-4.54563 -0.4608,-9.12835 0.81081,-13.58691 1.0395,-2.75854 2.48718,-5.45416 5.74495,-6.47755 1.8378,-0.19977 3.51776,0.13748 5.1383,0.95943 1.58647,0.71459 0.46466,2.73576 -1.12181,2.02118 z"
       id="path3860"
       style="fill:#000000;fill-opacity:1;fill-rule:nonzero;stroke:none" />
    <path
       style="fill:#000000;fill-opacity:1;fill-rule:nonzero;stroke:none"
       id="path3864"
       d="m 634.13011,328.65263 c -0.37922,0.91733 -0.9122,1.77491 -1.46429,2.61534 -0.11734,0.17709 -0.23569,0.3537 -0.37837,0.51521 -0.73664,-0.3349 -1.59108,-0.51303 -2.20992,-1.0047 -0.18165,-0.14433 0.0644,-0.4346 0.13603,-0.64305 0.3627,-1.05554 1.2339,-2.01206 1.91893,-2.90737 1.2458,-1.27982 2.41376,-2.82904 4.26913,-3.36858 0.37924,0.0894 0.80667,0.0792 1.1377,0.26832 1.64271,0.93864 1.49627,3.72033 1.61716,5.20195 0.16877,2.69437 -0.70806,5.17587 -1.74323,7.65625 -0.6668,1.72255 -1.75644,3.24437 -2.72533,4.82934 -0.18579,0.30789 -0.36432,0.61947 -0.52461,0.93868 -1.68586,-2.34005 -1.05555,-1.34483 0.9996,-1.63958 1.95889,-0.31267 3.93883,-0.47277 5.92263,-0.58188 0.88347,-0.0475 1.76826,-0.0683 2.65299,-0.0843 1.77338,-0.0319 1.82342,2.22741 0.0501,2.25929 l 0,0 c -0.8506,0.0152 -1.70127,0.035 -2.55066,0.0806 -1.92006,0.10491 -3.83591,0.26094 -5.73159,0.56478 -0.83422,0.0941 -4.30147,0.56785 -3.66459,-1.45471 0.18679,-0.40378 0.4249,-0.78663 0.64942,-1.17378 0.91246,-1.48969 1.94721,-2.91359 2.57423,-4.53387 0.9081,-2.17443 1.72685,-4.32898 1.5893,-6.69656 -0.0639,-0.7972 -0.0937,-1.34893 -0.21083,-2.13538 -0.0603,-0.40535 -0.32441,-0.80147 -0.25374,-1.20546 0.0343,-0.19597 0.89927,0.36872 0.65613,-0.0697 0.056,-0.0446 0.23882,-0.15546 0.16795,-0.13398 -0.62412,0.1892 -1.76545,1.46644 -2.20165,1.90619 -0.2118,0.21353 -0.41043,0.43738 -0.61564,0.65607 -0.47485,0.6188 -0.95244,1.23921 -1.38338,1.88418 -0.0825,0.12343 -0.0698,0.4045 -0.22755,0.38048 -0.74506,-0.11349 -1.4729,-0.3048 -2.20935,-0.45719 -0.16935,0.20059 0.13603,-0.18077 0.13091,-0.20278 0.43028,-0.65383 0.83362,-1.32213 1.18903,-2.01185 0.4302,-1.55016 2.86374,-1.0021 2.43354,0.54807 z"
       inkscape:connector-curvature="0" />
    <path
       style="fill:#000000;fill-opacity:1;fill-rule:nonzero;stroke:none"
       id="path3866"
       d="m 335.4235,355.77031 c -0.52496,-2.1996 -0.67545,-4.45908 -0.79853,-6.70954 -0.0954,-2.04955 -0.11388,-4.10148 -0.11958,-6.1529 0.009,-1.75866 0.38455,-3.54529 0.91051,-5.22149 0.45949,-1.45112 1.33717,-2.69354 2.26771,-3.87297 1.31623,-1.3113 2.78143,-2.45784 4.27403,-3.55946 1.72556,-1.37447 3.606,-2.52633 5.55888,-3.54453 1.45417,-0.5177 2.77401,-1.30647 4.17813,-1.92998 1.30962,-0.85483 2.76154,-1.37848 4.28651,-1.67749 1.75993,-0.0997 3.47525,-0.35639 5.20907,-0.66492 1.41583,-0.48508 2.83391,-0.97011 4.29707,-1.29198 1.02058,-0.28864 2.09958,-0.12159 3.12172,-0.34552 1.80924,-0.44089 3.65761,-0.64214 5.51129,-0.76958 1.36935,0.0408 2.63123,-0.13302 3.93367,-0.50607 1.20039,-0.25408 2.30613,-0.77399 3.48596,-1.10115 1.19498,-0.47328 2.43276,-0.81523 3.58043,-1.39718 1.05328,-0.3483 1.96533,-0.97413 2.956,-1.45048 0.65492,-0.54289 1.22242,-1.1825 1.80639,-1.79886 0.42834,-0.65762 1.0848,-1.23846 1.47261,-1.91266 0.58862,-0.8567 0.97414,-1.82113 1.43584,-2.75178 0.57997,-1.03043 0.69365,-2.20109 0.78701,-3.35712 0.0704,-1.21074 0.067,-2.42398 0.0641,-3.63625 -0.003,-0.87146 -0.008,-1.74291 -0.0103,-2.61437 -7.5e-4,-0.25246 -0.001,-0.50491 -0.002,-0.75737 -8e-5,-0.0131 3e-5,-0.0261 4e-5,-0.0392 0.98535,0.0943 1.9707,0.18853 2.95606,0.28279 8e-5,0.39545 -0.0246,0.45417 0.0343,0.18797 0.3383,0.84688 1.11369,1.45032 1.78679,2.04955 0.86658,0.88325 1.90661,1.54592 2.81076,2.37986 0.74883,0.54702 1.53386,0.9182 2.42859,1.15044 1.67099,0.33421 3.38383,0.35076 5.08141,0.3811 1.96577,0.0208 3.93171,0.0114 5.89755,0.008 2.42207,-0.0605 4.54051,-1.10637 6.7243,-2.01913 2.7679,-1.26903 5.54227,-2.52099 8.20421,-4.00297 3.03722,-1.65091 5.93926,-3.52983 8.90477,-5.30138 2.78969,-1.45561 5.36586,-3.25736 7.91973,-5.08383 2.9811,-2.05823 5.9479,-4.13579 8.89214,-6.2466 2.92324,-2.1958 6.06868,-4.04815 9.13966,-6.01982 2.18736,-1.48371 4.36933,-2.9739 6.56977,-4.43821 1.78365,-1.1158 3.54685,-2.20365 5.54546,-2.88261 1.42023,-0.65666 2.90066,-1.0715 4.44567,-1.28577 1.3989,-0.16671 2.80998,-0.17342 4.21678,-0.1798 1.19589,-0.1119 2.2348,0.36289 3.21839,0.98159 1.1617,0.90904 2.19717,1.95924 3.30932,2.92421 1.02006,1.10693 2.10044,2.15305 3.2253,3.15241 0.74577,0.74416 1.59744,1.38633 2.3037,2.16859 0.84669,0.71208 1.21551,1.68355 1.49171,2.71712 0.47569,2.0353 -2.40266,2.70803 -2.87835,0.67273 l 0,0 c -0.0959,-0.6448 -0.40688,-1.09068 -0.90449,-1.52218 -0.62741,-0.60262 -1.33027,-1.2344 -1.99011,-1.83926 -1.10311,-1.00242 -2.20497,-2.01049 -3.19638,-3.12672 -1.01869,-0.90018 -1.98697,-1.8546 -3.04,-2.71433 -0.46107,-0.48858 -0.92759,-0.45943 -1.52585,-0.45827 -1.2792,0.006 -2.56244,0.008 -3.83506,0.15332 -1.36324,0.17698 -2.64512,0.5894 -3.89879,1.15822 -1.75635,0.58246 -3.27519,1.58423 -4.84978,2.54165 -2.21416,1.47325 -4.40945,2.97294 -6.61094,4.46511 -3.02938,1.94282 -6.13137,3.7686 -9.0138,5.93442 -2.94541,2.11131 -5.91283,4.19023 -8.89521,6.24878 -2.62034,1.8728 -5.26385,3.7211 -8.12367,5.21729 -2.99275,1.78545 -5.91918,3.6833 -8.98423,5.34716 -2.76032,1.53111 -5.62981,2.83858 -8.50085,4.14677 -2.54356,1.0613 -5.03816,2.2111 -7.85749,2.24743 -1.98556,0.004 -3.97123,0.0134 -5.95672,-0.008 -1.9428,-0.0353 -3.90371,-0.0635 -5.80935,-0.48571 -1.34306,-0.38091 -2.57138,-0.95444 -3.66183,-1.83805 -0.87742,-0.82858 -1.92533,-1.45688 -2.76401,-2.33726 -1.04685,-0.93549 -2.11342,-1.92247 -2.60767,-3.27489 -0.47913,-1.96161 -0.27098,-1.26759 2.75412,-1.41568 4.3e-4,0.25076 9.9e-4,0.50153 0.002,0.7523 0.003,0.87195 0.007,1.7439 0.0103,2.61585 0.003,1.29642 0.006,2.59396 -0.0743,3.88851 -0.13004,1.52676 -0.33386,3.06392 -1.08584,4.4279 -0.54185,1.08803 -1.00292,2.2159 -1.71615,3.20704 -0.5772,0.72509 -1.11969,1.44152 -1.69347,2.17464 -0.83765,0.88404 -1.64286,1.83222 -2.7102,2.44817 -0.97659,0.41668 -1.83558,1.1082 -2.87128,1.40961 -1.32842,0.66224 -2.74406,1.09263 -4.13347,1.60859 -1.16794,0.30664 -2.25615,0.85358 -3.44565,1.08991 -1.49904,0.42935 -2.98022,0.64625 -4.54642,0.61348 -1.74757,0.1182 -3.48803,0.31193 -5.19295,0.73042 -1.00669,0.15943 -2.01666,0.13386 -3.01873,0.32524 -1.50215,0.31416 -2.92991,0.88975 -4.40183,1.31258 -1.72092,0.30608 -3.42981,0.58173 -5.17803,0.65923 -1.31804,0.23539 -2.51504,0.76893 -3.64924,1.48048 -1.34921,0.58015 -2.5991,1.37271 -3.999,1.84423 -1.8182,0.9454 -3.56619,2.01844 -5.16892,3.30119 -1.28544,0.94841 -2.5288,1.94008 -3.71152,3.01567 -0.7183,0.90487 -1.42773,1.84232 -1.77789,2.96331 -0.48105,1.34857 -0.72362,2.86386 -0.76207,4.28833 0.006,2.00053 0.0231,4.00156 0.11522,6.00031 0.11187,2.06302 0.24046,4.13535 0.71465,6.15339 0.50694,2.02774 -2.36073,2.74466 -2.86767,0.71691 z"
       inkscape:connector-curvature="0" />
    <path
       style="fill:#000000;fill-opacity:1;fill-rule:nonzero;stroke:none"
       id="path3868"
       d="m 338.91763,234.19099 c -1.50303,1.22112 -3.06834,2.27316 -4.12973,3.92338 -0.91167,1.8258 -1.10553,3.87709 -0.78527,5.86865 0.47584,1.97461 1.52862,3.45671 3.34153,4.34781 0.63656,0.11659 0.34824,0.1415 0.86797,-0.002 2.08589,-0.13353 2.27472,2.81635 0.18883,2.94988 l 0,0 c -1.68067,0.0103 -0.87246,0.12855 -2.4282,-0.32935 -2.62038,-1.42559 -4.26439,-3.58889 -4.89572,-6.54401 -0.36259,-2.72992 -0.1099,-5.48065 1.25101,-7.93008 1.31953,-1.93391 3.07199,-3.31562 4.91973,-4.72337 1.72469,-1.18077 3.39455,1.25831 1.66985,2.43907 z"
       inkscape:connector-curvature="0" />
    <path
       style="fill:#000000;fill-opacity:1;fill-rule:nonzero;stroke:none"
       id="path3870"
       d="m 345.49908,239.68595 c -0.59703,1.98808 -0.77443,4.01914 -0.69946,6.08155 0.14345,0.81802 0.70474,3.04192 1.87782,2.96711 0.66757,-0.79575 0.9901,-1.79294 1.26111,-2.79031 0.18297,-1.42456 0.13264,-2.95443 -0.95362,-4.01484 -0.44606,-0.40289 -1.04823,-0.56938 -1.63348,-0.65768 -0.0392,-0.0224 -0.0812,-0.004 -0.12124,-0.006 -2.08772,-0.1009 -1.94499,-3.05341 0.14275,-2.95248 l 0,0 c 0.29406,0.0177 0.13853,0.005 0.46624,0.0434 1.26732,0.22204 2.47446,0.69323 3.38304,1.64123 1.59462,1.97744 2.05696,4.26325 1.55739,6.76273 -0.752,2.52149 -2.02023,5.15641 -5.10581,4.75458 -2.51293,-1.12266 -3.46166,-2.95744 -3.82837,-5.64633 -0.077,-2.38017 0.13088,-4.73018 0.8196,-7.02265 0.59399,-2.00398 3.42804,-1.16396 2.83407,0.84002 z"
       inkscape:connector-curvature="0" />
    <path
       style="fill:#000000;fill-opacity:1;fill-rule:nonzero;stroke:none"
       id="path3874"
       d="m 359.96064,237.08825 c -0.68,0.3927 -2.97426,0.19005 -3.40986,0.64497 -0.0866,0.051 -0.2501,0.32254 -0.0876,0.0881 0.17492,-0.65341 0.1116,-0.11373 0.1028,0.23432 -0.0414,0.1905 -0.007,2.3521 -0.0755,1.07668 0.33623,0.72263 0.37903,0.37638 1.30552,0.80351 1.41982,0.6274 2.89537,1.1322 4.24616,1.90261 1.6236,0.96244 2.06723,2.37998 1.93875,4.1848 -0.27415,1.62086 -0.73788,2.99662 -2.00313,4.08206 -1.69202,0.90559 -3.48665,0.62117 -5.2484,0.11348 -0.70664,-0.25475 -1.33134,-0.6574 -1.95087,-1.07068 -1.73387,-1.16723 -0.0832,-3.61931 1.65071,-2.45207 l 0,0 c 0.36396,0.24816 0.73091,0.49288 1.1286,0.6853 0.89115,0.2646 1.74119,0.48247 2.67127,0.34078 0.53448,-0.37454 0.61245,-1.3487 0.81702,-2.05145 0.2066,-0.68145 0.0773,-0.90678 -0.51359,-1.29087 -1.22904,-0.78706 -2.71312,-1.11744 -4.01078,-1.7768 -1.12187,-0.57139 -2.28562,-0.91571 -2.72198,-2.24698 -0.21607,-0.81788 -0.27492,-1.53628 -0.18872,-2.37607 0.0125,-0.47544 -0.0269,-0.96878 0.17551,-1.41281 0.3687,-0.71491 0.95687,-1.2356 1.68292,-1.585 1.26519,-0.41916 2.60526,-0.4611 3.89867,-0.78983 2.04773,-0.41896 2.64021,2.47698 0.59247,2.89592 z"
       inkscape:connector-curvature="0" />
    <path
       style="fill:#000000;fill-opacity:1;fill-rule:nonzero;stroke:none"
       id="path3876"
       d="m 369.85864,229.1722 c 0.32115,2.76522 0.60272,5.53672 0.87451,8.30874 0.25949,2.90703 0.29554,5.82597 0.26079,8.74218 -0.0191,0.86193 -0.0284,1.72469 -0.0766,2.58569 -0.002,0.053 -0.009,0.10547 -0.0129,0.15821 -0.21484,2.07909 -3.1551,1.77525 -2.94027,-0.30384 l 0,0 c 6.3e-4,-0.007 -0.008,0.10684 0.002,-0.0214 0.0468,-0.81711 0.0522,-1.63614 0.0721,-2.45412 0.0338,-2.80819 10e-4,-5.61902 -0.24693,-8.41853 -0.26143,-2.67018 -0.54423,-5.33795 -0.8286,-8.0045 -0.41895,-2.04773 2.47698,-2.64021 2.89593,-0.59248 z"
       inkscape:connector-curvature="0" />
    <path
       style="fill:#000000;fill-opacity:1;fill-rule:nonzero;stroke:none"
       id="path3880"
       d="m 365.67244,235.28875 c 2.33903,0.22191 4.67046,-0.0696 6.99826,-0.27874 0.99315,-0.0869 1.9863,-0.17396 2.98016,-0.25238 0.0824,-0.008 0.16489,-0.0114 0.24741,-0.0165 2.08926,-0.061 2.1755,2.8937 0.0862,2.95467 l 0,0 c -0.0337,0.003 -0.0674,0.006 -0.10121,0.009 -0.98319,0.0775 -1.96569,0.16376 -2.94817,0.24969 -2.45765,0.22072 -4.92084,0.51488 -7.39027,0.28782 -2.0882,-0.0902 -1.96063,-3.04337 0.12758,-2.95317 z"
       inkscape:connector-curvature="0" />
    <path
       style="fill:#000000;fill-opacity:1;fill-rule:nonzero;stroke:none"
       id="path3884"
       d="m 384.80616,238.91185 c -1.18255,-0.36031 -2.39155,-0.62734 -3.59884,-0.89025 -1.87437,0.0219 2.12825,-1.58679 0.21452,-0.0133 0.0264,0.13478 -0.15394,0.96125 -0.19383,1.3103 -0.0861,0.86276 -0.12956,1.72924 -0.16627,2.59533 -0.0453,0.67564 0.20971,0.41222 -0.50508,-0.86884 -0.0971,-0.17403 -0.49757,-0.19635 0.006,-0.15996 0.82326,0.0416 1.64736,0.0642 2.47113,0.093 1.35813,0.19784 2.219,1.19674 2.96875,2.25302 -0.37714,-0.72833 1.19945,2.16146 0.65939,1.42433 -0.10449,-0.14264 -0.37654,-0.34073 -0.25232,-0.46653 0.11902,-0.12057 0.22622,0.25225 0.33933,0.37839 0.48781,0.57464 0.81442,1.17917 0.94383,1.92939 0.0465,0.34414 0.0547,0.69104 0.0451,1.03749 -0.0214,0.5872 -0.40566,1.10842 -0.69868,1.60347 -0.69155,0.87734 -1.55163,1.41927 -2.63948,1.64035 -0.86337,0.0998 -1.73432,0.0522 -2.59998,0.0129 -1.00775,-0.0237 -0.76251,-0.12693 -1.96132,-1.04013 -0.066,-0.13491 -0.13209,-0.26983 -0.19814,-0.40475 -0.90998,-1.88166 1.75112,-3.16856 2.6611,-1.28689 l 0,0 c 0.0414,0.0874 0.0829,0.17492 0.12447,0.26239 -1.61742,-0.79694 -1.182,-0.47924 -0.49176,-0.48348 0.64245,0.0298 1.28596,0.0576 1.92906,0.0332 0.16355,-0.0205 0.38811,-0.11537 0.63537,-0.24427 1.12605,-1.88722 -0.0805,0.48681 0.28667,-0.23074 0.004,-0.15317 5.3e-4,-0.30653 -0.0153,-0.45922 0.27934,0.28638 -0.0917,-0.18448 -0.28541,-0.46982 -0.40365,-0.54208 -0.71619,-0.99026 -0.95099,-1.61089 -0.23036,-0.49469 -0.79311,-0.71645 -0.60398,-0.92406 -0.86795,-0.0305 -1.73632,-0.0531 -2.60354,-0.10076 -1.15666,-0.0989 -2.3365,-0.56404 -2.21737,-2.043 0.0401,-0.94205 0.0884,-1.88453 0.18471,-2.82272 0.14886,-1.19609 0.37692,-2.36249 1.26297,-3.2503 0.53347,-0.4261 1.4751,-0.88672 2.2803,-0.5822 1.27818,0.27853 2.55757,0.56328 3.80969,0.94439 2.00398,0.59398 1.16397,3.42803 -0.84002,2.83405 z"
       inkscape:connector-curvature="0" />
    <path
       style="fill:#000000;fill-opacity:1;fill-rule:nonzero;stroke:none"
       id="path3888"
       d="m 322.93847,269.11644 c 0.92512,2.33322 1.30611,4.82252 1.56185,7.30462 0.13901,1.68379 0.1791,3.37431 0.17675,5.06329 -0.002,0.31126 6.7e-4,0.62281 -0.0393,0.9318 -0.9772,-0.20708 -2.01192,-0.23139 -2.93163,-0.62121 -0.0853,-0.0358 0.039,-3.13597 0.0556,-4.37657 -0.11487,-2.45763 0.25861,-4.8302 1.04283,-7.15154 0.37926,-1.42241 0.97829,-2.69912 2.04125,-3.72824 1.12261,-0.76565 2.20301,-0.78092 3.43772,-0.25366 1.81921,1.06367 2.10409,3.06932 2.28914,4.99025 0.12807,2.09226 0.0996,4.19003 0.0725,6.28482 0.0825,0.5069 -0.25041,1.15265 0.17825,1.51815 -0.0386,-0.0714 -0.10472,-0.1028 -0.17199,-0.14603 1.86897,0.9358 0.54555,3.5789 -1.32341,2.64311 l 0,0 c -0.26697,-0.15008 -0.51901,-0.3102 -0.72357,-0.54426 -0.84229,-1.02375 -1.03941,-2.20632 -0.91495,-3.50934 0.0259,-1.99198 0.0534,-3.98656 -0.0604,-5.97648 -0.0724,-0.84404 -0.11435,-1.78095 -0.51804,-2.5468 -0.50827,-0.22335 -0.35045,-0.092 -0.0491,-0.16644 0.52518,-0.12979 -0.51415,0.21683 -0.19003,-0.14104 -0.75432,0.65951 -0.9756,1.60261 -1.26947,2.52946 -0.6975,2.02549 -0.99321,4.08928 -0.88508,6.2374 -0.0189,1.41795 0.0159,4.34371 -0.0553,4.36087 -0.9527,0.22821 -1.95824,0.0645 -2.93738,0.0967 -0.0483,0.39444 0.0263,-0.42251 -0.003,-0.4354 0.003,-1.58718 -0.0342,-3.17581 -0.16145,-4.75834 -0.21692,-2.14233 -0.53478,-4.28784 -1.28253,-6.31866 -0.90966,-1.88183 1.75165,-3.16827 2.6613,-1.28643 z"
       inkscape:connector-curvature="0" />
    <path
       style="fill:#000000;fill-opacity:1;fill-rule:nonzero;stroke:none"
       id="path3890"
       d="m 337.46147,270.33028 c -0.3641,1.77783 -0.7736,3.60055 -0.66924,5.42336 0.23617,1.22554 1.13804,1.63264 2.22377,1.94216 1.12732,-0.0565 2.00771,-1.00136 2.65891,-1.84518 0.64166,-1.08277 0.79755,-2.12076 0.1608,-3.20892 -0.88502,-1 -1.90999,-1.85655 -3.16436,-2.33517 -0.99081,-0.19865 -2.09782,-0.52862 -3.07566,-0.15733 -0.38771,0.23868 0.0409,-0.1295 0.0515,0.18893 -0.41357,2.04883 -3.31105,1.46398 -2.89749,-0.58485 l 0,0 c 0.27743,-1.10806 0.81044,-2.04515 1.97453,-2.4286 1.68053,-0.47451 3.40882,-0.26621 5.06557,0.2457 1.89379,0.80425 3.51794,2.05126 4.6946,3.75909 1.01474,2.22056 0.87675,4.34436 -0.52067,6.39166 -1.49961,1.77601 -3.34284,3.21551 -5.80747,2.8028 -2.31238,-0.73086 -3.97535,-2.12359 -4.3177,-4.65556 -0.057,-2.12168 0.28563,-4.22871 0.76511,-6.29331 0.53402,-2.02079 3.39183,-1.26557 2.85781,0.75522 z"
       inkscape:connector-curvature="0" />
    <path
       style="fill:#000000;fill-opacity:1;fill-rule:nonzero;stroke:none"
       id="path3902"
       d="m 350.66963,258.64813 c 1.16276,3.19136 1.38708,6.6432 1.80246,9.99283 0.4238,3.65381 0.638,7.32635 0.7412,11.00177 0.0143,0.95947 0.0477,1.91974 0.0246,2.87941 -10e-4,0.0309 -0.003,0.0618 -0.004,0.0928 -0.0981,2.08785 -3.05085,1.949 -2.95267,-0.13882 l 0,0 c 4.1e-4,-0.009 7.8e-4,-0.0189 10e-4,-0.0281 0.0152,-0.90749 -0.006,-1.81518 -0.0244,-2.72246 -0.10012,-3.58162 -0.30805,-7.16041 -0.71992,-10.72107 -0.37565,-3.034 -0.59168,-6.14784 -1.53028,-9.06989 -0.90966,-1.88183 1.75165,-3.16827 2.66131,-1.28644 z"
       inkscape:connector-curvature="0" />
    <path
       style="fill:#000000;fill-opacity:1;fill-rule:nonzero;stroke:none"
       id="path3904"
       d="m 346.49414,268.04531 c 2.57593,-0.27666 5.11937,-0.76766 7.66514,-1.23932 1.17441,-0.18306 2.34914,-0.39966 3.53705,-0.47368 0.1086,-0.004 0.21724,-0.006 0.32585,-0.01 2.08933,-0.0586 2.17218,2.89618 0.0829,2.95477 l 0,0 c -0.0805,0.002 -0.16089,0.004 -0.24128,0.006 -1.06373,0.0503 -2.11361,0.28522 -3.16599,0.42897 -2.57607,0.47724 -5.15035,0.97323 -7.7567,1.25478 -2.06612,0.31602 -2.51303,-2.60592 -0.4469,-2.92193 z"
       inkscape:connector-curvature="0" />
    <path
       style="fill:#000000;fill-opacity:1;fill-rule:nonzero;stroke:none"
       id="path3906"
       d="m 362.35318,257.31704 c 1.90837,2.30827 2.60704,5.30081 3.15747,8.17443 0.54955,3.5937 0.48713,7.23062 0.88501,10.83891 0.20376,1.58836 0.39793,3.17794 0.58146,4.76876 0.55471,1.39913 -2.90269,1.45319 -2.88643,0.071 0.0151,-1.42713 0.0332,-2.85423 0.0513,-4.28132 0.21943,-2.57828 1.34635,-4.90071 2.4921,-7.17374 0.6649,-0.66071 0.86138,-2.42369 1.55017,-3.04197 0.33038,-0.29653 0.71044,-0.53254 1.06566,-0.7988 0.52448,0.12988 1.08558,0.15739 1.57338,0.38977 0.74423,0.35452 1.61219,2.37443 2.01345,3.10456 0.76849,1.69327 1.34496,3.46533 1.69633,5.29083 0.22298,1.63786 0.66899,3.23795 1.07593,4.83833 0.0814,0.31867 0.16382,0.6371 0.25088,0.95426 -0.003,-0.008 -0.005,-0.017 -0.008,-0.0256 0.63208,1.9923 -2.18544,2.88618 -2.81752,0.89388 l 0,0 c -0.005,-0.0166 -0.0102,-0.0331 -0.0152,-0.0496 -0.0972,-0.34674 -0.18519,-0.69598 -0.27538,-1.04457 -0.42229,-1.66105 -0.88009,-3.32304 -1.11647,-5.02215 -0.2758,-1.52387 -0.7799,-2.98756 -1.38151,-4.41178 -0.29894,-0.54398 -0.56289,-1.12447 -0.88054,-1.65588 -0.10379,-0.17366 -0.5255,-0.4987 -0.32372,-0.51341 0.37765,-0.0276 0.75629,0.0389 1.13444,0.0583 0.21234,-0.21911 0.39333,-0.47374 0.63704,-0.65733 0.0867,-0.0653 -0.0992,0.19292 -0.1487,0.28945 -0.4664,0.90936 -0.92971,1.82032 -1.39113,2.73221 -0.94418,1.87307 -1.91703,3.76731 -2.17596,5.88095 -0.0182,1.42615 -0.0362,2.85231 -0.0512,4.27849 -0.016,1.34656 -3.1928,1.65927 -3.00574,0.23285 -0.1841,-1.59602 -0.37936,-3.19077 -0.58322,-4.7844 -0.38751,-3.53316 -0.34808,-7.09029 -0.8511,-10.61194 -0.43115,-2.30596 -0.93922,-4.74375 -2.3711,-6.6625 -1.45806,-1.4976 0.65986,-3.5596 2.11793,-2.062 z"
       inkscape:connector-curvature="0" />
    <path
       style="fill:#000000;fill-opacity:1;fill-rule:nonzero;stroke:none"
       id="path3908"
       d="m 380.11075,267.22775 c 0.4644,2.42866 0.60763,4.90025 0.70033,7.36606 0.0395,1.36287 0.0691,2.72635 0.0645,4.08987 -5.3e-4,0.0544 -0.001,0.10884 -0.002,0.16322 -0.022,2.09003 -2.97774,2.05896 -2.95576,-0.0316 l 0,0 c 5.5e-4,-0.0474 10e-4,-0.0949 0.002,-0.1423 0.005,-1.32332 -0.0247,-2.64658 -0.0625,-3.96927 -0.0846,-2.27502 -0.21289,-4.55433 -0.62348,-6.79803 -0.47975,-2.03434 2.39724,-2.71283 2.87701,-0.67848 z"
       inkscape:connector-curvature="0" />
    <path
       style="fill:#000000;fill-opacity:1;fill-rule:nonzero;stroke:none"
       id="path3910"
       d="m 376.81627,258.62108 c 1.2281,-0.29822 2.39813,-0.66938 3.66237,-0.60923 2.27941,0.90628 1.58416,2.69857 -0.13301,3.66918 -1.03746,0.5801 -1.82874,0.77174 -3.006,0.73638 -1.52289,-0.61279 -1.87201,-1.52555 -1.87898,-3.05745 0.41104,-1.34796 1.57983,-1.95832 2.82939,-2.35655 1.48222,-0.43148 1.16998,-0.20305 2.79333,1.14045 0.0742,0.35334 0.0777,0.712 0.0724,1.0708 -0.0395,2.08977 -2.99483,2.034 -2.9554,-0.0557 l 0,0 c 0.004,-0.1243 0.009,-0.24867 -0.002,-0.37279 2.04035,1.1917 1.98981,0.75634 0.97207,1.03918 -0.2909,0.0874 -0.80708,0.29675 -0.83306,0.2156 -0.1962,-1.19365 0.24808,-0.32334 -0.25367,-0.55758 -0.0298,-0.0135 0.17442,0.0915 0.0476,0.086 -1.5404,0.25373 0.51555,-0.22763 0.8345,-0.50227 0.13448,-0.0562 0.42499,-0.35168 0.38218,-0.21238 -0.0591,0.19279 -0.30007,0.32716 -0.294,0.52875 0.0317,1.06029 0.10226,1.34717 0.84808,1.52747 1.29103,-0.23399 -2.33642,0.53589 -2.40694,0.58714 -2.03435,0.47976 -2.71284,-2.39723 -0.67849,-2.877 z"
       inkscape:connector-curvature="0" />
    <path
       style="fill:#000000;fill-opacity:1;fill-rule:nonzero;stroke:none"
       id="path3912"
       d="m 385.06002,266.00604 c 1.0099,2.18946 1.30636,4.59298 1.56527,6.96397 0.14128,1.45936 0.1876,2.92518 0.18688,4.39064 1.2e-4,0.28979 -0.004,0.57945 -0.0284,0.86819 -0.98156,-0.18171 -2.01736,-0.17559 -2.94468,-0.54515 -0.29555,-0.11817 0.55872,-4.44368 0.66975,-4.87892 0.53995,-2.4235 1.73787,-4.57796 3.16166,-6.58196 1.09193,-1.57371 2.62781,-2.66598 4.41805,-1.32959 1.33312,1.38076 1.47512,3.29594 1.60835,5.11443 0.15646,2.4036 -0.0849,4.81716 0.12602,7.21513 0.1886,1.03056 0.20557,2.71166 1.18356,3.37742 0.33474,0.0196 0.69497,0.0689 1.04375,0.082 2.08817,0.0912 1.95917,3.04433 -0.12902,2.9531 l 0,0 c -1.02754,-0.049 -1.99529,-0.20705 -2.86341,-0.81243 -1.49039,-1.39629 -2.00211,-3.36593 -2.1809,-5.35814 -0.18675,-2.4119 -0.0115,-4.8296 -0.12841,-7.24618 -0.0707,-1.01811 -0.13185,-2.05469 -0.5055,-3.0163 -0.3085,-0.32855 -0.0508,2.9e-4 0.70423,-0.12277 0.0684,-0.0112 0.2141,-0.16883 0.14909,-0.14492 -0.10059,0.0369 -0.53694,0.38602 -0.5941,0.44934 -0.15598,0.1728 -0.28302,0.36967 -0.42455,0.55451 -1.22147,1.70734 -2.25841,3.53521 -2.70796,5.61011 -0.23933,0.89952 -0.48055,1.82767 -0.55892,2.75966 -0.0469,0.55721 0.0354,1.36931 -0.0155,1.38303 -0.95055,0.25515 -1.96435,0.126 -2.94651,0.18899 0.003,-0.17382 0.005,-0.34765 0.008,-0.52148 0.001,-1.35805 -0.0406,-2.71643 -0.16955,-4.06899 -0.22047,-2.03533 -0.44274,-4.10823 -1.28798,-5.99719 -0.90964,-1.88184 1.75166,-3.16827 2.66131,-1.28644 z"
       inkscape:connector-curvature="0" />
    <path
       style="fill:#000000;fill-opacity:1;fill-rule:nonzero;stroke:none"
       id="path3914"
       d="m 402.09455,264.12202 c 0.77439,0.27152 1.59144,0.20757 2.38454,0.0576 1.73873,-0.26172 1.07224,2.59976 -0.53014,2.98815 -1.36078,0.51537 -2.46699,1.51889 -3.45244,2.56427 -0.62541,0.84553 -0.73365,1.87988 -0.82295,2.89453 0.22565,0.44529 0.002,0.0409 0.50682,0.13941 0.72096,0.0917 1.33105,-0.33355 1.71576,-0.91619 0.66641,-0.99593 0.69099,-2.23367 0.77665,-3.39112 0.0478,-0.90461 0.0707,-1.8107 0.0643,-2.71657 -0.0263,-0.88314 0.26233,-0.08 2.93548,0.13869 0.98593,2.30693 1.63417,4.74117 2.35027,7.1407 1.59952,4.73741 2.8449,9.55272 3.60536,14.49425 0.66781,3.43661 0.17019,6.6489 -1.496,9.69151 -2.55413,3.12048 -5.71413,2.35608 -8.86254,0.68196 -1.68438,-1.33508 -4.16634,-2.73201 -4.82425,-4.96729 -0.12505,-0.42486 -0.10846,-0.87911 -0.16269,-1.31866 -0.0891,-2.08826 2.86418,-2.21422 2.95325,-0.12598 l 0,0 c -0.47048,1.10803 2.75655,3.25969 3.46682,3.82667 1.4206,0.83713 3.45897,1.8276 4.84944,0.46062 1.40548,-2.44222 1.6949,-5.02439 1.15418,-7.80097 -0.73397,-4.80857 -1.96219,-9.48762 -3.51604,-14.09682 -0.80395,-2.69394 -1.75241,-5.36002 -2.47276,-8.06146 2.90252,-0.56567 2.95116,-1.497 2.97532,-0.0837 0.007,0.98663 -0.0174,1.97351 -0.0725,2.95865 -0.13522,1.77395 -0.31875,3.57029 -1.4327,5.03665 -1.22299,1.39317 -2.7785,2.28558 -4.69528,1.92379 -1.67972,-0.43283 -2.73297,-1.46927 -2.76266,-3.28139 0.15719,-1.69039 0.49321,-3.32754 1.62423,-4.66375 1.38812,-1.45102 2.96208,-2.79049 4.90937,-3.40318 0.15471,-0.0364 1.52517,-0.38532 1.59216,-0.2725 1.59484,2.68605 1.51258,2.76307 0.15037,3.06826 -1.2152,0.2143 -2.47543,0.271 -3.66653,-0.10846 -2.02077,-0.53402 -1.26556,-3.39184 0.75523,-2.85782 z"
       inkscape:connector-curvature="0" />
    <path
       style="fill:#000000;fill-opacity:1;fill-rule:nonzero;stroke:none"
       id="path3922"
       d="m 498.62713,273.87642 c 0.36068,-2.68376 0.56871,-5.38872 1.11486,-8.04249 0.48305,-1.87628 0.92792,-3.75585 1.80517,-5.48961 0.52569,-1.13647 1.2805,-2.06867 2.2974,-2.78566 1.20258,-0.63003 2.57729,-0.39907 3.88136,-0.57832 1.39611,-0.22721 2.80343,-0.24218 4.21184,-0.16945 1.90216,0.15164 3.79532,0.4007 5.68882,0.63399 1.42543,0.0921 2.65737,-0.18329 3.91461,-0.81259 1.06809,-0.69549 1.64855,-1.7366 2.33687,-2.75486 0.65809,-0.95384 1.13051,-2.00689 1.73649,-2.99057 0.63215,-1.11389 0.83449,-2.39815 1.06422,-3.64091 0.17754,-0.70417 0.11461,-1.41597 -0.19878,-2.07032 0.36299,0.56775 1.13274,0.23639 2.21305,0.092 -0.50793,-3.31317 0.76046,-1.10184 1.33885,-0.0836 0.26981,0.79595 0.84312,1.38585 1.40716,1.99135 0.68452,0.65154 1.42891,1.02337 2.33013,1.24953 1.33611,0.23303 2.68752,0.56213 4.04924,0.50594 1.74514,0.0345 3.03254,-0.88287 4.37965,-1.8682 2.06294,-1.87027 4.08175,-3.78688 6.16568,-5.63463 1.56515,-1.37639 3.43605,-2.23117 5.2682,-3.16749 2.12521,-1.08038 4.42147,-1.59641 6.76947,-1.88256 1.39107,-0.13715 2.78548,-0.10421 4.17347,0.0355 1.83872,0.0937 3.46688,0.81183 5.00603,1.77229 1.71172,1.00202 3.21028,2.23683 4.38697,3.83303 0.51704,0.7068 0.83422,1.39551 0.8081,2.28659 -0.0142,0.13174 -0.0284,0.26348 -0.0426,0.39523 -0.23701,2.07667 -3.17387,1.74148 -2.93687,-0.33514 l 0,0 c 0.009,-0.0719 0.0183,-0.14384 0.0274,-0.21576 0.27077,0.59123 -0.0722,-0.19435 -0.24443,-0.38898 -0.94237,-1.31165 -2.20029,-2.26232 -3.58722,-3.08207 -1.13669,-0.74612 -2.3411,-1.26619 -3.71654,-1.32441 -1.17082,-0.12038 -2.34654,-0.15083 -3.52083,-0.0416 -2.00452,0.2386 -3.96398,0.65908 -5.78013,1.58107 -1.61142,0.82047 -3.26422,1.5481 -4.65029,2.74609 -2.15479,1.91031 -4.22946,3.9062 -6.38688,5.81254 -1.83763,1.33247 -3.71601,2.46256 -6.06826,2.43398 -1.63712,0.005 -3.25411,-0.26007 -4.85407,-0.60309 -1.43566,-0.39062 -2.67258,-1.03466 -3.73977,-2.0934 -0.73987,-0.79485 -1.47486,-1.62782 -1.87286,-2.65442 -0.3474,-1.37276 -2.02249,-0.50384 -1.05009,-3.07344 1.73155,-0.39888 2.16569,-0.85224 2.83546,0.52941 0.50855,1.20295 0.68968,2.50572 0.3969,3.7935 -0.29817,1.6039 -0.60689,3.23721 -1.45659,4.65681 -0.63326,1.01919 -1.11148,2.12338 -1.81102,3.10506 -0.9922,1.42578 -1.8916,2.85795 -3.46899,3.73672 -1.78327,0.86954 -3.58836,1.24809 -5.58344,1.09525 -1.82536,-0.22489 -3.65035,-0.46425 -5.48354,-0.61596 -1.22538,-0.0666 -2.44794,-0.0551 -3.66246,0.14732 -0.90911,0.11965 -1.83162,0.15048 -2.73163,0.16993 -0.47773,0.36644 -0.93463,0.97596 -1.20517,1.60356 -0.76412,1.49577 -1.10616,3.13882 -1.54714,4.75611 -0.54843,2.56811 -0.70489,5.20029 -1.07433,7.79828 -0.25558,2.07446 -3.18932,1.71301 -2.93373,-0.36146 z"
       inkscape:connector-curvature="0" />
    <path
       style="fill:#000000;fill-opacity:1;fill-rule:nonzero;stroke:none"
       id="path3924"
       d="m 424.71972,183.28858 c 0.70802,2.97717 1.18459,5.98555 1.51125,9.02734 0.25999,2.83238 0.35564,5.67627 0.39961,8.51913 -0.80852,-0.77747 0.32287,1.09113 0.009,0.98993 -0.89999,-0.29004 -1.83913,-0.56597 -2.60748,-1.11709 -0.0789,-0.0565 0.38765,-2.66155 0.51583,-3.51442 0.4017,-3.52561 1.25426,-6.96433 2.19465,-10.37733 0.39111,-1.39029 0.86494,-4.12518 3.05884,-3.52692 0.49666,0.13544 0.77944,0.67268 1.16916,1.00902 0.97519,2.41939 1.35378,5.06757 1.86888,7.62523 0.19908,1.02902 0.38787,2.06011 0.55825,3.09428 0.0181,0.10937 0.11103,0.42281 0.0529,0.32843 -0.0765,-0.1242 -0.0741,-0.28215 -0.11126,-0.42322 -0.28554,-0.20111 -0.57104,-0.4023 -0.85652,-0.6035 -0.24492,0.0297 -0.53275,0.23083 -0.73476,0.0892 -0.003,-0.002 0.25299,-0.31259 0.7636,-1.1696 0.46837,-0.78609 0.91915,-1.58259 1.38706,-2.36895 1.24668,-2.00196 2.19117,-4.18617 3.4218,-6.19158 2.05896,-2.91808 4.17127,-0.72917 5.40862,1.47211 1.05253,2.39534 1.70551,4.927 2.248,7.47773 0.13715,0.68724 0.27298,1.37564 0.36387,2.07081 0.26748,2.07298 -2.66414,2.45124 -2.93162,0.37827 l 0,0 c -0.0779,-0.61639 -0.20593,-1.22542 -0.32367,-1.83499 -0.48354,-2.28009 -1.06065,-4.54026 -1.96251,-6.69663 -0.11643,-0.23727 -0.21414,-0.48468 -0.34929,-0.7118 -0.10143,-0.17046 -0.33871,-0.27829 -0.3574,-0.47576 -0.0101,-0.10448 0.20969,-0.035 0.30481,-0.0795 0.17141,-0.0802 0.54183,-0.52738 0.396,-0.40678 -0.12292,0.10169 -0.19555,0.25212 -0.29342,0.37813 -1.26598,1.94709 -2.10657,4.18278 -3.38522,6.13176 -0.73182,1.22928 -2.32701,4.81851 -4.042,4.89217 -0.52653,0.0226 -0.96932,-0.414 -1.45399,-0.62094 -0.63771,-1.30125 -0.70819,-2.72967 -1.00108,-4.14672 -0.43555,-2.16718 -0.88606,-4.33385 -1.37452,-6.48758 1.96144,0.52023 1.88016,-1.40458 1.31166,0.57432 -0.0964,0.33579 -0.19098,0.67214 -0.28647,1.00819 -0.90955,3.29959 -1.73789,6.62262 -2.12138,10.03217 -0.0536,0.3551 -0.55807,4.16486 -0.71318,4.21815 -3.39655,1.16722 -3.06148,0.60186 -3.08249,-0.97116 -0.0424,-2.75295 -0.13384,-5.50693 -0.38316,-8.24993 -0.31033,-2.9058 -0.76099,-5.78009 -1.43942,-8.62366 -0.50801,-2.02748 2.35927,-2.74593 2.86728,-0.71845 z"
       inkscape:connector-curvature="0"
       inkscape:transform-center-x="51.264138"
       inkscape:transform-center-y="-13.872269" />
    <path
       style="fill:#000000;fill-opacity:1;fill-rule:nonzero;stroke:none"
       id="path3926"
       d="m 449.35346,185.24606 c 0.36759,2.49584 0.72828,4.98116 1.22249,7.4576 -0.13416,0.0291 0.56082,3.31408 0.88428,2.42405 1.50289,-0.76365 2.35001,-2.15109 3.16055,-3.57555 0.74402,-1.63879 1.47414,-3.42072 1.23612,-5.24687 -0.0299,-0.45759 -0.19363,-0.62229 -0.5635,-0.81285 4.8e-4,0.004 9.4e-4,0.005 5.2e-4,0.008 0.51227,-0.0587 1.04195,-0.0312 1.53683,-0.17592 0.61925,-0.18111 0.098,-1.1282 0.4322,0.58975 0.46147,2.17867 1.58728,4.0371 2.69605,5.92888 0.71856,0.83052 1.28792,2.27221 2.46754,2.56181 0.23926,0.0674 0.48481,0.0987 0.73123,0.12323 2.07666,0.23701 1.74148,3.17387 -0.33519,2.93686 l 0,0 c -0.49952,-0.0608 -0.9957,-0.13674 -1.47267,-0.30721 -1.77593,-0.77039 -2.91226,-2.21119 -3.94117,-3.82013 -1.30231,-2.22235 -2.57742,-4.43948 -3.07228,-7.00728 -0.17217,-1.46204 -0.17613,-4.55616 2.4564,-3.38562 1.10685,0.68563 1.85909,1.71934 2.00317,3.04497 0.23177,2.47174 -0.51598,4.83818 -1.61574,7.04096 -1.42909,2.44362 -3.16217,4.90677 -6.25939,5.00304 -2.87744,-0.85937 -2.75933,-2.13439 -3.24368,-4.75202 -0.48441,-2.4288 -0.86131,-4.8648 -1.19097,-7.31747 -0.50803,-2.02748 2.35926,-2.74592 2.86728,-0.71845 z"
       inkscape:connector-curvature="0"
       inkscape:transform-center-x="29.347587"
       inkscape:transform-center-y="-15.788829" />
    <path
       style="fill:#000000;fill-opacity:1;fill-rule:nonzero;stroke:none"
       id="path3928"
       d="m 472.58997,185.45135 c -1.37232,-0.29682 -2.84182,-0.2564 -4.1695,0.20919 -1.51402,0.65089 -0.2192,0.4219 -0.24328,-0.48466 -0.008,-0.32454 -0.2188,-0.61131 -0.32821,-0.91697 1.63665,0.66128 3.27898,1.27922 4.89276,2.0113 2.28757,1.14107 3.50822,3.19776 3.80799,5.66286 -0.41667,3.26689 -2.20895,4.4818 -5.37663,4.64563 -2.34233,-0.13654 -4.47335,-0.96719 -6.05902,-2.70187 -1.00307,-1.62064 -0.30671,-2.88647 0.96241,-4.0219 1.64735,-1.28644 3.46667,1.04328 1.8193,2.32973 l 0,0 c -0.34288,0.10408 -0.28255,-0.17159 -0.52854,-0.22119 0.80326,1.17796 2.45942,1.4762 3.76855,1.65949 1.1521,0.0875 2.10483,-0.249 2.46826,-1.44436 0.0146,-1.37743 -0.89845,-2.5892 -2.08355,-3.2166 -1.74868,-0.79336 -3.55377,-1.40453 -5.28336,-2.22536 -0.33634,-0.45329 -0.84899,-0.81859 -1.00902,-1.35986 -0.41553,-1.40539 1.30772,-2.1405 2.26033,-2.52141 1.87524,-0.6018 3.88845,-0.71729 5.81692,-0.27213 2.02802,0.50587 1.31264,3.37392 -0.71539,2.86806 z"
       inkscape:connector-curvature="0"
       inkscape:transform-center-x="14.246829"
       inkscape:transform-center-y="-16.702671" />
    <path
       style="fill:#000000;fill-opacity:1;fill-rule:nonzero;stroke:none"
       id="path3930"
       d="m 483.83343,174.38927 c 0.74337,2.46089 1.14781,4.98985 1.61244,7.5147 0.64733,3.03672 1.07747,6.15799 1.94776,9.14245 0.54068,1.45363 1.05637,2.45603 1.00073,4.00713 -0.69852,1.96998 -3.48448,0.98213 -2.78596,-0.98784 l 0,0 c 0.0126,0.29239 0.0787,0.58743 0.0376,0.87719 -0.0163,0.11469 -0.077,-0.21855 -0.11562,-0.32778 -0.32481,-0.9193 -0.65347,-1.83721 -0.97884,-2.75629 -0.86805,-3.08659 -1.36922,-6.28286 -2.01293,-9.42073 -0.45183,-2.46323 -0.83622,-4.93183 -1.57245,-7.33036 -0.50803,-2.02749 2.35927,-2.74594 2.86727,-0.71847 z"
       inkscape:connector-curvature="0"
       inkscape:transform-center-x="0.18727478"
       inkscape:transform-center-y="-21.494902" />
    <path
       style="fill:#000000;fill-opacity:1;fill-rule:nonzero;stroke:none"
       id="path3932"
       d="m 479.44474,185.53595 c 2.1486,-0.90226 4.44856,-1.29462 6.74445,-1.59856 1.50909,-0.1623 3.02436,-0.27182 4.54162,-0.31445 0.0722,-0.001 0.14468,-0.002 0.21699,-0.003 2.08992,-0.0315 2.13443,2.92411 0.0445,2.95559 l 0,0 c -0.0598,9.1e-4 -0.11957,0.002 -0.17934,0.002 -1.41591,0.0389 -2.82982,0.14235 -4.23835,0.29037 -2.18935,0.28584 -4.36128,0.68282 -6.41143,1.53514 -2.02747,0.50802 -2.74592,-2.35927 -0.71843,-2.86727 z"
       inkscape:connector-curvature="0"
       inkscape:transform-center-x="-0.54755645"
       inkscape:transform-center-y="-20.107276" />
    <path
       style="fill:#000000;fill-opacity:1;fill-rule:nonzero;stroke:none"
       id="path3934"
       d="m 509.46695,174.56206 c 0.50607,3.42375 1.02444,6.84218 1.37674,10.28676 0.27585,2.92119 0.4225,5.85257 0.50777,8.78492 0.0371,2.14093 0.42688,1.42846 -2.9417,1.17297 0.0223,-1.28997 0.62321,-2.50625 1.09077,-3.68498 0.87913,-1.63322 2.0319,-3.12055 3.28672,-4.48271 1.42814,-1.57846 3.33242,-1.90987 5.36388,-1.86625 2.7053,0.34924 4.56469,1.99429 5.95001,4.23226 1.40823,3.57175 -1.43824,4.85103 -4.26801,5.94784 -2.43551,0.81394 -4.98395,1.18134 -7.53079,1.42644 -0.54234,0.036 -1.08778,0.10386 -1.6318,0.0631 -2.0794,-0.21178 -1.77987,-3.15249 0.29952,-2.9407 l 0,0 c 0.35051,-0.0128 0.70055,-0.0376 1.05024,-0.0649 2.28496,-0.21807 4.57311,-0.53662 6.76384,-1.24755 0.86668,-0.3201 1.93965,-0.68188 2.74047,-1.09792 0.19962,-0.10371 0.0665,-0.43777 0.0514,-0.54968 -0.82686,-1.39206 -1.87131,-2.52217 -3.54467,-2.81547 -1.16313,-0.0856 -2.26546,0.0221 -3.08411,0.93061 -1.02676,1.07759 -1.91158,2.29664 -2.69966,3.55615 -0.32568,0.81869 -0.78641,1.69265 -0.88229,2.54875 -3.38461,0.22721 -2.91521,1.00803 -2.96856,-1.04225 -0.0829,-2.86075 -0.22548,-5.72058 -0.49373,-8.57053 -0.34134,-3.35055 -0.84883,-6.67458 -1.3343,-10.00568 -0.41102,-2.04933 2.48718,-2.6306 2.8982,-0.58124 z"
       inkscape:connector-curvature="0"
       inkscape:transform-center-x="-30.661369"
       inkscape:transform-center-y="-21.278601" />
    <path
       style="fill:#000000;fill-opacity:1;fill-rule:nonzero;stroke:none"
       id="path3936"
       d="m 530.71614,187.94468 c 1.51759,0.59488 3.10566,1.26608 4.75937,1.23702 0.91716,-0.18739 1.18412,-0.57449 1.37969,-1.42727 -0.14687,-1.07274 -0.6063,-1.53988 -1.48653,-2.14011 -0.36969,-0.28884 -1.7679,-1.08151 -1.71043,-0.0699 -0.61499,2.1264 -0.6642,4.41543 -0.52202,6.61095 0.29851,2.46312 1.715,3.9212 4.06965,4.46475 2.32533,0.16695 4.20227,-0.9945 5.77169,-2.5931 0.14713,-0.17572 0.29413,-0.3515 0.44126,-0.52722 1.353,-1.59315 3.60605,0.32028 2.25305,1.91344 l 0,0 c -0.20173,0.23495 -0.4034,0.46991 -0.60509,0.70486 -2.36615,2.33072 -5.21825,3.81768 -8.63427,3.35497 -3.88185,-1.14836 -5.63584,-3.08977 -6.24701,-7.14236 -0.15542,-2.8239 -0.14174,-5.82739 1.02999,-8.45073 0.29864,-0.35979 0.53475,-0.78237 0.8959,-1.07934 1.53358,-1.26102 3.5673,-0.54866 5.00078,0.42673 1.80559,1.36964 2.89688,3.00441 2.57863,5.36183 -0.67331,2.09086 -2.0146,3.33817 -4.26954,3.54796 -2.10146,-0.0807 -4.10819,-0.68925 -6.02563,-1.54789 -1.87001,-0.93369 -0.54947,-3.5783 1.32058,-2.64453 z"
       inkscape:connector-curvature="0"
       inkscape:transform-center-x="-52.450528"
       inkscape:transform-center-y="-15.307954" />
    <path
       style="fill:#000000;fill-opacity:1;fill-rule:nonzero;stroke:none"
       id="path3938"
       d="m 428.67619,211.86039 c 0.48465,2.30514 0.67784,4.65202 1.06504,6.97513 0.3586,2.09323 0.6114,4.20192 0.77732,6.31859 0.0965,1.55524 0.43536,1.77341 -2.88622,0.43398 -0.23338,-0.0941 7.3e-4,-0.50328 6e-4,-0.75493 -6e-5,-0.3338 -6.8e-4,-0.66761 -10e-4,-1.00143 -0.0782,-2.7268 0.4928,-5.40361 1.34319,-7.97811 0.65755,-1.99541 1.76106,-3.63635 3.80552,-4.27826 2.389,-0.12658 3.13107,1.91159 3.48871,3.88396 0.23422,2.09827 0.23115,4.21413 0.23866,6.32282 -0.0194,-0.0506 0.009,1.64114 -0.008,1.59861 -0.56082,-1.39399 0.25502,-0.70274 -1.60022,-1.36162 -0.26109,0.15036 -0.49401,0.53542 -0.78322,0.45106 -0.2092,-0.061 0.16002,-0.40585 0.22361,-0.61426 0.0916,-0.30072 0.1692,-0.60576 0.24157,-0.91171 0.2845,-1.20243 0.46761,-2.4221 0.74158,-3.62759 0.42347,-1.73588 0.74638,-3.46135 1.77727,-4.95101 1.49115,-1.55248 3.15548,-0.66851 4.50736,0.50299 1.29246,1.46759 1.56327,3.31528 1.70983,5.19131 0.10541,2.1294 0.0924,4.26273 0.0877,6.39413 -0.0795,2.32724 0.68039,2.46237 -1.95739,0.50642 -0.2994,0.14921 -0.29696,0.22298 -0.22079,0.0167 1.00328,-1.83362 3.59642,-0.41468 2.5931,1.41891 l 0,0 c -0.4539,0.77196 -0.15613,0.36356 -0.96924,1.16611 -2.9987,-1.47891 -2.39393,-0.63253 -2.40161,-3.11457 0.005,-2.05466 0.0169,-4.11103 -0.0792,-6.16397 -0.0816,-1.11336 -0.15321,-2.25862 -0.75794,-3.23438 -1.26462,-1.33027 -0.29888,0.1138 -0.10377,-0.96931 -0.85024,1.12621 -0.87695,2.58913 -1.30396,3.89653 -0.32345,1.4002 -0.61713,4.62363 -1.39656,5.71573 -0.31292,0.43845 -0.74076,0.78223 -1.11114,1.17335 -0.55043,-0.12743 -1.19027,-0.0557 -1.65131,-0.3823 -0.75161,-0.53241 -0.45208,-1.94495 -0.49292,-2.69067 -0.007,-1.94393 -0.006,-3.89308 -0.19544,-5.82957 -0.0794,-0.49391 -0.47094,-1.26323 -0.004,-1.48755 0.0397,-0.0434 0.17624,-0.14284 0.11903,-0.12991 -0.97308,0.21844 -1.36031,1.72635 -1.69294,2.44543 -0.7686,2.26538 -1.25923,4.63439 -1.19062,7.03782 5.4e-4,0.53507 0.002,1.77883 1.9e-4,1.77987 -3.2539,1.63292 -2.89671,1.37673 -3.01657,-0.224 -0.15857,-2.03126 -0.40181,-4.05471 -0.74613,-6.06338 -0.3739,-2.24532 -0.57241,-4.51081 -1.01659,-6.74241 -0.508,-2.02749 2.35928,-2.74591 2.86729,-0.71844 z"
       inkscape:connector-curvature="0"
       inkscape:transform-center-x="49.941201"
       inkscape:transform-center-y="12.95857" />
    <path
       style="fill:#000000;fill-opacity:1;fill-rule:nonzero;stroke:none"
       id="path3940"
       d="m 453.31687,216.367 c -0.79949,-0.64414 -1.32455,0.57349 -1.80235,1.16439 -1.33291,2.16905 -1.796,4.65189 -1.76345,7.16017 0.0146,0.43794 0.45298,1.93488 1.12105,1.96572 0.0875,0.004 -0.0964,-0.17903 -0.0556,-0.25643 0.0541,-0.10364 0.19494,-0.12906 0.29242,-0.19359 1.91692,-1.61549 2.76486,-4.20067 3.67148,-6.46412 0.26565,-1.25537 1.48436,-2.84037 0.97187,-4.18071 0.012,0.2386 0.49999,0.4541 0.8201,0.53962 0.52305,-0.30959 1.00894,-0.69296 1.56913,-0.92872 0.0827,-0.0348 -8.9e-4,0.17946 -0.002,0.26919 -0.01,0.8446 -0.0102,0.3757 -0.008,1.40513 0.003,1.48717 -0.0286,0.77384 0.12159,2.32449 0.17743,2.4013 0.93302,4.71028 2.38059,6.64317 0.70356,0.47271 1.29343,-0.15576 1.79503,-0.65521 1.53223,-1.42163 3.54271,0.74526 2.01048,2.16689 l 0,0 c -1.90844,1.70699 -4.22597,2.17883 -6.2013,0.21969 -1.69754,-2.40668 -2.73287,-5.1465 -2.92828,-8.10351 -0.0395,-0.44798 -0.37713,-4.44147 -0.0726,-4.81647 0.46628,-0.57415 1.11295,-0.97447 1.66942,-1.4617 0.90465,0.21784 1.44347,0.78937 1.71489,1.68425 0.45346,2.09128 -0.34918,4.05916 -1.0975,5.99556 -1.25071,3.10635 -2.46587,6.57361 -5.61258,8.20753 -0.47108,0.0958 -0.93301,0.30819 -1.41326,0.28716 -2.44624,-0.10706 -3.48106,-2.53821 -3.70224,-4.62411 -0.013,-3.21836 0.63417,-6.38223 2.46289,-9.09349 1.76961,-2.0304 3.71477,-3.41852 6.14779,-1.34617 1.47873,1.47717 -0.61031,3.56843 -2.08906,2.09127 z"
       inkscape:connector-curvature="0"
       inkscape:transform-center-x="28.948285"
       inkscape:transform-center-y="15.104306" />
    <path
       style="fill:#000000;fill-opacity:1;fill-rule:nonzero;stroke:none"
       id="path3942"
       d="m 469.38208,216.2333 c -1.49084,1.27692 -2.19585,3.07579 -2.5279,4.96168 -0.015,1.20654 0.0414,3.65907 1.77849,3.61086 1.96713,-1.49628 2.928,-3.72152 3.781,-5.96477 0.98473,-3.36779 1.62235,-6.89339 1.11786,-10.39025 -0.52588,-2.27606 -1.92325,-4.1323 -3.41887,-5.86571 -0.464,-0.57102 -1.0563,-1.04946 -1.76671,-1.2716 0.35233,-0.007 0.72301,0.092 1.057,-0.0204 0.80652,-0.27147 0.53495,-0.95621 0.7173,-0.78509 0.34926,0.32779 0.37162,2.16274 0.42035,2.53657 0.55759,3.79732 1.90756,7.41901 3.27324,10.98654 1.29408,3.14901 2.83641,6.21175 4.944,8.89632 0.40405,0.89627 2.04995,1.3171 0.61606,1.09311 -0.80889,0.33952 0.24419,-0.24595 0.35012,-0.30873 1.8,-1.06243 3.3025,1.48315 1.5025,2.54558 l 0,0 c -0.35895,0.21067 -0.71265,0.42981 -1.08483,0.61761 -2.08913,0.0695 -2.42659,-0.6399 -3.71325,-2.12785 -2.27609,-2.92601 -3.984,-6.23013 -5.37546,-9.66 -1.44727,-3.78668 -2.86572,-7.63255 -3.44403,-11.66459 -0.16824,-1.32181 -1.15229,-3.82978 0.36958,-4.71955 0.39059,-0.22836 0.89697,-0.11934 1.34546,-0.17899 1.18412,0.43101 2.22839,1.15241 3.02937,2.13312 1.86653,2.17482 3.5274,4.53095 4.10754,7.39827 0.51099,4.00234 -0.0905,8.00678 -1.2896,11.84998 -1.0667,2.72912 -2.54777,6.5286 -5.64902,7.56676 -0.51904,0.17375 -1.08694,0.13015 -1.63039,0.19522 -0.46104,-0.15541 -0.95684,-0.23168 -1.38309,-0.46624 -2.36335,-1.3005 -2.69827,-4.1746 -2.55582,-6.57236 0.61331,-2.94069 1.83685,-5.90043 4.71067,-7.26281 2.02747,-0.50802 2.74591,2.35926 0.71843,2.86727 z"
       inkscape:connector-curvature="0"
       inkscape:transform-center-x="11.857849"
       inkscape:transform-center-y="6.9470443" />
    <path
       style="fill:#000000;fill-opacity:1;fill-rule:nonzero;stroke:none"
       id="path3944"
       d="m 483.85603,216.75748 c 0.40985,0.94525 1.19352,1.70736 2.26608,1.50736 1.60175,-0.51291 2.33084,-2.09661 2.89563,-3.55466 0.1147,-0.88102 0.28012,-2.78996 -0.99436,-2.79006 -1.42942,-0.21317 -2.49297,0.60849 -3.28059,1.71452 -0.94555,1.93862 -0.78948,3.8615 -0.17775,5.85564 0.92134,2.43668 2.40629,4.51299 4.94038,5.3392 2.44833,0.38564 4.48338,-0.68151 6.08103,-2.46736 0.14912,-0.20617 0.29815,-0.41237 0.44723,-0.61856 1.24571,-1.67837 3.6193,0.0833 2.37358,1.76171 l 0,0 c -0.22078,0.29207 -0.4415,0.58418 -0.66225,0.87629 -2.50654,2.60283 -5.60836,4.03731 -9.27262,3.21745 -0.57192,-0.22983 -1.17458,-0.39448 -1.71568,-0.68966 -2.51811,-1.37363 -4.02048,-4.01222 -5.02718,-6.58395 -0.83494,-2.92579 -0.91206,-5.78661 0.67472,-8.49871 1.69774,-2.10047 3.90102,-3.36001 6.66917,-2.66969 0.42854,0.20196 0.90385,0.32579 1.28498,0.60713 1.86056,1.37358 1.86303,4.03483 1.40311,6.04567 -1.06938,2.60446 -2.61582,4.94332 -5.60504,5.41073 -2.71303,-0.11645 -4.18956,-1.19978 -5.16769,-3.74461 -0.50803,-2.02749 2.35925,-2.74592 2.86727,-0.71846 z"
       inkscape:connector-curvature="0"
       inkscape:transform-center-x="-5.0039879"
       inkscape:transform-center-y="12.249663" />
    <path
       style="fill:#000000;fill-opacity:1;fill-rule:nonzero;stroke:none"
       id="path3948"
       d="m 512.42838,213.78632 c 0.53532,2.3833 0.67996,4.83176 0.80278,7.26442 0.20907,1.01921 -0.48373,3.23314 0.86299,3.64789 0.0244,-0.0702 0.0138,-0.1667 0.074,-0.21029 0.15492,-0.11224 0.3518,-0.1504 0.52771,-0.22559 0.22818,-0.15977 0.46986,-0.30182 0.68458,-0.47928 0.91981,-0.76021 1.53694,-1.70231 2.17022,-2.69745 0.88018,-2.00387 1.67936,-4.27029 1.53931,-6.49465 0.15185,-0.18968 -0.48564,-1.17392 -0.23194,-0.85038 1.99206,1.55877 2.36965,-2.70845 2.35342,0.51499 -0.0465,2.14088 0.2314,4.29065 0.68998,6.37953 0.37536,0.73468 0.4045,3.07131 1.07963,3.53916 -0.0214,-0.35567 -0.6843,-0.10951 0.0237,-0.43062 1.91268,-0.84284 3.10464,1.8621 1.19196,2.70494 l 0,0 c -1.22527,0.53047 -2.34962,0.62358 -3.4222,-0.30745 -1.13071,-1.38585 -1.30984,-3.2009 -1.76327,-4.88618 -0.48412,-2.30167 -0.81284,-4.65819 -0.75566,-7.01491 0.008,-1.42337 0.2627,-4.3293 2.65094,-2.63046 0.74175,0.7918 1.02978,1.82333 1.13794,2.88868 0.0383,2.84469 -0.72634,5.66473 -2.0129,8.19441 -1.32164,2.01221 -3.20102,4.65124 -5.90864,4.75083 -0.53566,0.0197 -1.06048,-0.15717 -1.59072,-0.23576 -2.28788,-1.62021 -2.23006,-3.4055 -2.25317,-6.00892 -0.11227,-2.2407 -0.23811,-4.49668 -0.71788,-6.69446 -0.50801,-2.02748 2.35927,-2.74592 2.86728,-0.71844 z"
       inkscape:connector-curvature="0"
       inkscape:transform-center-x="-32.494292"
       inkscape:transform-center-y="13.120197" />
    <path
       style="fill:#000000;fill-opacity:1;fill-rule:nonzero;stroke:none"
       id="path3950"
       d="m 527.4365,212.10768 c 1.91571,-0.83729 3.9546,-1.46118 6.04865,-1.55423 2.60147,0.34232 3.1917,2.55149 3.44625,4.79839 0.33001,2.30676 -0.77155,4.22688 -2.07267,6.0255 -0.64676,0.89599 -1.28155,1.80069 -1.89992,2.71652 -0.45316,0.21955 -0.85823,0.61053 -1.35946,0.65864 -1.42478,0.1367 -2.82645,-2.01736 -3.59147,-2.94945 -0.63001,-0.67955 -1.30611,-1.31831 -2.03329,-1.89318 -1.10779,-0.79578 -0.80764,-2.10722 -0.12698,-3.0111 0.21104,-0.29581 0.22938,-0.6274 0.28101,-0.98179 0.009,-0.0829 0.0194,-0.16557 0.028,-0.24844 -0.008,1.07426 1.98151,0.14262 2.93895,0.38692 0.0998,0.0255 -10e-4,3.46459 -1.2e-4,3.53913 0.24681,4.1164 0.76628,8.20326 1.26052,12.29488 0.29557,2.50906 0.52898,5.02552 0.70188,7.54599 0.75594,1.61852 -2.90484,1.90648 -2.91648,0.35564 -7.7e-4,-0.11352 -0.001,-0.22699 -0.002,-0.3405 -0.0136,-2.0901 2.94229,-2.10927 2.95586,-0.0192 l 0,0 c 7.2e-4,0.11249 10e-4,0.22501 0.002,0.33753 0.011,1.47352 -3.47561,1.43791 -2.98836,-0.13139 -0.1691,-2.4696 -0.39813,-4.93522 -0.68747,-7.39364 -0.50808,-4.20658 -1.04323,-8.40907 -1.28184,-12.64227 -0.004,-1.47351 -0.91238,-6.46716 2.97282,-3.99346 -0.003,0.25021 -0.0217,0.4995 -0.0601,0.74714 -0.11952,0.78257 -0.29811,1.55899 -0.76654,2.21525 -0.58896,0.77988 -0.18484,0.17723 -0.18747,-0.60113 -7.7e-4,-0.21634 -0.29652,-0.31581 -0.43107,-0.48522 -0.0378,-0.0476 0.097,0.0735 0.14535,0.11022 0.89258,0.71042 1.7272,1.49394 2.48898,2.34346 1.00162,1.24633 -0.16632,-0.17683 1.05485,1.20118 0.1143,0.12898 0.20601,0.27698 0.32194,0.40446 0.0884,0.0973 0.37388,0.16709 0.28934,0.26781 -0.34028,0.40532 -1.60955,-1.07479 -1.45809,0.6282 0.64145,-0.94975 1.29968,-1.88818 1.97094,-2.8171 0.89923,-1.18468 1.73296,-2.40733 1.51252,-3.95295 -0.0624,-0.61664 -0.0498,-1.72481 -0.44049,-2.16092 -1.64602,-0.0331 -3.27635,0.67596 -4.79228,1.24222 -1.86899,0.93574 -3.19231,-1.70744 -1.32333,-2.64316 z"
       inkscape:connector-curvature="0"
       inkscape:transform-center-x="-46.275119"
       inkscape:transform-center-y="19.55063" />
    <path
       style="fill:#000000;fill-opacity:1;fill-rule:nonzero;stroke:none"
       id="path3952"
       d="m 652.72407,365.21369 c 0.52884,-2.50916 1.716,-4.4832 3.71877,-6.06755 2.88808,-1.80948 4.83068,-0.41652 6.46074,2.13035 1.30546,2.65041 1.41825,4.95364 0.71363,7.7741 -0.57393,1.77539 -1.68881,3.25628 -2.73089,4.77352 -1.66068,2.02714 -3.85266,1.21885 -5.65554,-0.11388 -1.42574,-1.21618 -2.55786,-2.69179 -3.26447,-4.42527 -0.22478,-0.67386 -0.38279,-1.37272 -0.40443,-2.08418 0.0405,-1.40598 0.63365,-0.93645 2.98864,-0.0757 0.0288,0.0105 0.0278,0.89014 0.0306,1.36593 0.32085,2.65757 0.80052,5.28892 1.21004,7.93353 0.34707,2.28671 0.38657,4.59712 1.07965,6.81577 0.17604,0.47671 0.09,0.26543 0.25027,0.63691 0.81403,1.92513 -1.90851,3.07633 -2.72253,1.15121 l 0,0 c -0.23261,-0.55722 -0.1128,-0.25249 -0.35236,-0.91692 -0.7209,-2.36122 -0.85211,-4.79829 -1.17618,-7.23487 -0.43132,-2.78839 -0.95291,-5.56213 -1.24477,-8.37037 -10e-4,-0.23082 -0.002,-0.46165 -0.003,-0.69247 -6.3e-4,-0.10288 -0.10525,-0.29678 -0.003,-0.30863 1.87648,-0.21754 2.84834,0.9104 2.89818,-0.35853 0.0267,0.3639 0.092,0.72383 0.20606,1.07246 0.43178,1.25838 1.37073,2.2633 2.32187,3.15767 0.385,0.32985 1.0277,1.07738 1.40452,0.77387 0.84597,-1.23168 1.7687,-2.41727 2.30249,-3.82767 0.5257,-2.02847 0.52853,-3.56854 -0.38508,-5.5285 -0.32612,-0.62589 -0.74928,-0.91339 -1.13322,-1.4487 -0.0369,-0.0515 0.0624,-0.16909 0.003,-0.19004 -0.26534,-0.093 -0.86263,0.27325 -0.99859,0.33881 -1.49829,1.08059 -2.20457,2.51116 -2.61542,4.2989 -0.40992,2.04956 -3.30844,1.46985 -2.89852,-0.57971 z"
       inkscape:connector-curvature="0" />
    <path
       style="fill:#000000;fill-opacity:1;fill-rule:nonzero;stroke:none"
       id="path3954"
       d="m 669.92129,363.28402 c -1.0029,1.6886 -1.90399,3.49314 -2.05371,5.47476 0.1345,1.36604 1.16926,1.99367 2.46859,1.89262 1.68077,-0.37017 2.71768,-1.46934 3.37168,-2.99459 0.27691,-1.76549 -1.14112,-3.01273 -2.33796,-4.08723 -0.9251,-0.74201 -1.88436,-1.4647 -2.94601,-2.00265 0.009,-0.41982 -0.0582,-0.0236 -0.0873,-0.0354 -1.94807,-0.75749 -0.87681,-3.51246 1.07125,-2.75497 l 0,0 c 0.23419,0.095 0.11194,0.0421 0.3659,0.16064 1.29192,0.66863 2.47751,1.52647 3.59456,2.45433 2.18003,2.03299 3.98154,4.36828 3.02515,7.50017 -1.24053,2.58855 -3.19663,4.37643 -6.15198,4.71409 -3.30867,-0.25328 -5.10246,-1.7217 -5.31446,-5.14796 0.27735,-2.33041 1.09984,-4.50346 2.35042,-6.49576 0.93475,-1.86949 3.57861,-0.54756 2.64386,1.32193 z"
       inkscape:connector-curvature="0" />
    <path
       style="fill:#000000;fill-opacity:1;fill-rule:nonzero;stroke:none"
       id="path3956"
       d="m 683.32088,357.63842 c -0.9407,1.11942 -1.97872,2.12333 -2.81885,3.32628 0.2662,-0.0552 -0.0393,0.0411 0.21575,-0.3509 0.0353,-0.0543 1.43761,0.78506 1.6833,0.89911 2.10955,0.8842 4.11867,1.89046 5.82095,3.43686 0.81365,1.09247 2.00833,2.7072 1.63572,4.20325 -0.11314,0.45424 -0.3955,0.8486 -0.59325,1.2729 -1.77033,1.71476 -4.31923,1.84169 -6.65526,2.01783 -0.91294,-0.15557 -2.99665,-0.0621 -3.58581,-1.08412 -0.22846,-0.39633 -0.27262,-0.87336 -0.40894,-1.31004 0.17321,-0.36734 0.34641,-0.73468 0.51961,-1.10202 1.31749,-1.62264 3.61225,0.24057 2.29476,1.86321 l 0,0 c 0.0463,-0.21099 0.0925,-0.42199 0.13877,-0.63298 -0.73365,-1.51259 -0.0376,-0.50187 -0.79705,-1.09118 -0.008,-0.006 1.68756,0.50372 1.61951,0.40935 1.48878,-0.10892 2.97922,-0.26199 4.41193,-0.70519 0.34543,0.75224 -0.17891,-1.60935 -0.59807,-1.68119 -1.43694,-1.40605 -3.31527,-2.11738 -5.11096,-2.94595 -1.94082,-0.99394 -4.11618,-2.40914 -3.01103,-4.89621 0.94294,-1.33986 2.08623,-2.47939 3.14877,-3.71916 1.47796,-1.47796 3.56812,0.61219 2.09015,2.09015 z"
       inkscape:connector-curvature="0" />
    <path
       style="fill:#000000;fill-opacity:1;fill-rule:nonzero;stroke:none"
       id="path3958"
       d="m 695.93104,361.7556 c -0.11722,2.42711 0.075,4.81699 0.4303,7.21454 0.12438,0.77578 0.25432,1.55113 0.41472,2.32041 0.0138,0.0661 0.11053,0.19723 0.043,0.1979 -0.95348,0.009 -1.90368,-0.1133 -2.85552,-0.16994 0.40547,-2.05045 3.30524,-1.47704 2.89977,0.57341 l 0,0 c -0.97771,0.0742 -1.95262,0.22729 -2.93313,0.22255 -0.0124,-6e-5 -0.47331,-2.4781 -0.493,-2.71192 -0.37478,-2.53986 -0.57949,-5.07666 -0.46209,-7.64695 0,-2.09015 2.95592,-2.09015 2.95592,0 z"
       inkscape:connector-curvature="0" />
    <path
       style="fill:#000000;fill-opacity:1;fill-rule:nonzero;stroke:none"
       id="path3962"
       d="m 696.75436,352.14313 c -0.2681,1.29006 -0.94942,2.43973 -1.6908,3.51136 -2.08804,1.79918 -3.00936,-0.14074 -3.07763,-2.00299 -0.012,-0.43724 -0.0114,-0.87466 -0.002,-1.31191 2.68853,0.3697 3.03054,0.79241 2.88333,-0.4647 0.16242,0.0645 -0.0369,-0.007 -0.0815,-0.0211 0.37897,0.47248 0.75794,0.94496 1.13691,1.41743 0.1964,2.08091 -2.74644,2.35866 -2.94285,0.27776 l 0,0 c 0.37146,0.3929 0.74292,0.7858 1.11438,1.17869 -0.29784,-0.0812 -0.57799,-0.20879 -0.83876,-0.37501 -1.53158,-1.03241 -2.50779,-3.29065 1.68331,-1.93265 -0.008,0.37598 -0.008,0.75212 10e-4,1.12811 0.0663,2.01712 -0.71364,-1.70081 -2.30381,0.41944 0.54264,-0.7761 1.07041,-1.59914 1.25045,-2.54139 0.50694,-2.02775 3.37461,-1.31083 2.86767,0.71692 z"
       inkscape:connector-curvature="0" />
    <path
       style="fill:#000000;fill-opacity:1;fill-rule:nonzero;stroke:none"
       id="path3964"
       d="m 704.79881,345.99068 c 0,3.59601 0,7.19203 0,10.78804 0,3.50953 0,7.01907 0,10.52861 0,1.14111 0,2.28222 0,3.42333 0,0.10964 0,0.21928 0,0.32891 0,2.09015 -2.95592,2.09015 -2.95592,0 l 0,0 c 0,-0.10963 0,-0.21927 0,-0.32891 0,-1.14111 0,-2.28222 0,-3.42333 0,-3.50954 0,-7.01908 0,-10.52861 0,-3.59601 0,-7.19203 0,-10.78804 0,-2.09015 2.95592,-2.09015 2.95592,0 z"
       inkscape:connector-curvature="0" />
    <path
       style="fill:#000000;fill-opacity:1;fill-rule:nonzero;stroke:none"
       id="path3966"
       d="m 699.4926,358.6293 c 2.25408,-0.33626 4.48659,-0.71814 6.71266,-1.21187 1.17368,-0.24243 2.35218,-0.46377 3.53735,-0.64252 0.14026,-0.0238 0.28165,-0.0373 0.42312,-0.0504 2.08625,-0.12769 2.26683,2.82271 0.18058,2.9504 l 0,0 c -0.0545,0.008 -0.10897,0.0158 -0.16355,0.023 -1.11828,0.16809 -2.23,0.37808 -3.33762,0.60538 -2.19948,0.48756 -4.40467,0.88486 -6.63563,1.19371 -2.02774,0.50694 -2.74466,-2.36073 -0.71691,-2.86767 z"
       inkscape:connector-curvature="0" />
    <path
       style="fill:#000000;fill-opacity:1;fill-rule:nonzero;stroke:none"
       id="path3970"
       d="m 717.60781,359.90285 c 0,2.4602 0,4.92039 0,7.38059 0,0.89429 0,1.78858 0,2.68287 10e-4,0.89021 -0.0343,0.14894 -1.83447,1.57545 -2.08316,-0.17081 -1.84159,-3.11685 0.24157,-2.94603 l 0,0 c -1.46721,1.60641 -1.36085,2.15184 -1.36303,1.37058 0,-0.89429 0,-1.78858 0,-2.68287 0,-2.4602 0,-4.92039 0,-7.38059 0,-2.09016 2.95593,-2.09016 2.95593,0 z"
       inkscape:connector-curvature="0" />
    <path
       style="fill:#000000;fill-opacity:1;fill-rule:nonzero;stroke:none"
       id="path3972"
       d="m 715.4752,351.15782 c -0.0901,0.20241 -0.65786,3.33793 -1.09155,3.05746 -0.8472,-0.54788 -1.33033,-1.5172 -1.9955,-2.2758 0.67041,-0.94235 1.42119,-1.82562 2.09094,-2.77327 0.46261,-1.33546 3.03368,-0.72771 3.14574,0.64087 0.0282,1.49781 0.11006,0.91105 -1.96278,-0.89403 -0.14255,0.0378 -0.1315,0.0338 -0.0483,-0.36461 2.68492,-4.48598 2.98954,0.55242 2.98888,1.39972 0.76477,2.15011 -3.01263,0.64309 -2.44522,-0.24827 1.13768,-1.75341 3.61737,-0.1445 2.4797,1.60891 l 0,0 c -0.86185,1.31339 -3.53801,0.13464 -2.9904,-1.36307 5e-5,-0.055 -0.0146,-1.06386 -0.005,-1.06501 3.03149,-0.36269 3.09581,-0.98447 2.859,0.30253 -0.21397,0.9481 -0.5798,1.83589 -1.46298,2.34607 -4.23012,-2.64924 -2.26051,-0.79799 -2.3601,-1.49491 -0.0656,-0.95522 3.8108,-0.3962 2.21477,0.83862 -0.65577,0.92663 -1.38971,1.79068 -2.04659,2.70878 -0.8415,-0.49472 -1.60302,-1.16209 -2.52451,-1.48415 -0.18137,-0.0634 -0.16199,0.35203 -0.27927,0.50422 -0.0557,0.0722 0.0653,-0.17057 0.0898,-0.25838 0.17606,-0.6293 0.30301,-1.27234 0.47565,-1.9026 0.50693,-2.02775 3.3746,-1.31083 2.86766,0.71692 z"
       inkscape:connector-curvature="0" />
    <path
       style="fill:#000000;fill-opacity:1;fill-rule:nonzero;stroke:none"
       id="path3974"
       d="m 724.63497,357.26547 c 1.26646,2.57354 2.62313,5.11401 4.09031,7.57892 1.08101,1.62231 1.68552,3.48753 2.63031,5.17926 0.71768,1.26409 1.64319,1.62898 -1.89788,1.07963 -0.16668,-0.0259 0.12346,-0.31395 0.18519,-0.47093 0.5462,-1.59391 0.59972,-3.29652 0.68302,-4.96338 0.0868,-2.31949 0.0953,-4.64105 0.0987,-6.96188 -3.1e-4,-0.78797 -2.5e-4,-1.57595 -0.006,-2.36389 -4e-4,-0.0218 2.5e-4,-0.0436 3.8e-4,-0.0655 -0.11279,-2.0871 2.83882,-2.24662 2.95162,-0.15951 l 0,0 c 0.002,0.068 0.005,0.13593 0.004,0.20397 0.006,0.7964 0.006,1.59284 0.006,2.38926 -0.004,2.36913 -0.0125,4.73902 -0.10249,7.10672 -0.10155,1.98817 -0.19645,4.01076 -0.88596,5.90011 -1.09426,2.75514 -3.01492,1.10054 -3.62041,-0.25901 -0.9252,-1.67229 -1.54483,-3.49528 -2.58851,-5.10647 -1.53843,-2.59997 -2.98346,-5.26679 -4.29273,-7.98954 -0.77627,-1.94065 1.96824,-3.03846 2.7445,-1.0978 z"
       inkscape:connector-curvature="0" />
    <path
       style="fill:#000000;fill-opacity:1;fill-rule:nonzero;stroke:none"
       id="path3976"
       d="m 740.19058,359.4895 c 1.03876,0.78927 2.25461,1.72593 3.62407,1.44436 1.09957,-0.15841 1.93413,-0.78909 1.93466,-1.95548 -0.23978,-0.94298 -0.66732,-1.53976 -1.56723,-1.92337 -0.97,-0.33868 -1.63626,-0.3753 -2.43974,0.24257 -1.66977,1.38615 -2.31025,3.52074 -2.78414,5.55645 -0.6139,2.80782 -0.0181,4.60451 2.39772,6.14685 2.37644,1.15663 4.94246,1.30296 7.47835,0.70627 0.45406,-0.20798 1.12087,-0.16575 1.37306,-0.65541 1.40319,-1.54914 3.59399,0.43526 2.19081,1.9844 l 0,0 c -0.82675,0.83706 -1.75036,1.30785 -2.90872,1.55342 -3.36007,0.74319 -6.73157,0.49409 -9.8135,-1.15659 -0.50791,-0.36815 -1.0643,-0.67733 -1.52374,-1.10444 -2.28832,-2.12731 -2.72559,-5.23939 -2.06929,-8.16015 0.67408,-2.77223 1.66649,-5.5332 4.0192,-7.32988 1.78156,-1.11381 3.48833,-1.23489 5.43166,-0.41226 1.96599,1.08388 3.11693,2.70225 3.13547,5.01213 -0.54978,2.62418 -1.88251,4.02075 -4.59126,4.43966 -2.31329,0.10775 -4.25629,-0.75196 -5.97754,-2.29838 -1.47796,-1.47796 0.61219,-3.56811 2.09016,-2.09015 z"
       inkscape:connector-curvature="0" />
    <path
       style="fill:#000000;fill-opacity:1;fill-rule:nonzero;stroke:none"
       id="path3982"
       d="m 669.32774,387.49146 c 0,2.7375 0,5.47499 0,8.21248 -0.27712,-0.89549 0.1453,3.07933 0.46682,2.33907 0.0815,-0.18761 -0.36427,-0.44555 -0.43105,-0.49391 0.77372,-1.0617 1.19399,-2.57723 1.70348,-3.82061 0.332,-0.33313 0.90863,-2.84865 1.62102,-2.83475 0.78853,0.0154 1.52313,0.41 2.2847,0.61499 0.50877,1.23506 -0.18642,2.85009 0.8302,3.85012 1.16895,0.76882 2.46272,0.099 3.50818,-0.57958 1.39132,-1.25889 3.01063,-2.7381 2.93145,-4.75307 -0.48542,-1.72921 -2.18755,-2.81131 -3.5601,-3.83925 -0.52379,-0.36504 -1.04018,-0.74998 -1.60569,-1.04958 0.29049,-0.93767 0.58098,-1.87533 0.87148,-2.813 2.08568,-0.13652 2.27876,2.81309 0.19307,2.94961 l 0,0 c 0.0903,-0.92456 0.18058,-1.84912 0.27088,-2.77368 0.72253,0.3728 1.38197,0.85611 2.04502,1.32282 2.18696,1.64559 4.45622,3.39969 4.73861,6.32828 -0.26609,3.34275 -1.85013,5.1085 -4.3766,7.17012 -2.45692,1.38006 -5.17001,2.01672 -7.3795,-0.18707 -0.21267,-0.31227 -0.4657,-0.60058 -0.63801,-0.93681 -0.12599,-0.24585 -0.92818,-3.41992 -0.4305,-3.28547 4.57206,0.68763 1.2002,0.82071 2.40363,-0.0569 0.0876,-0.0639 -0.10416,0.19021 -0.15447,0.28625 -0.29385,0.56101 -0.56666,1.13289 -0.8204,1.71314 -0.91684,2.21036 -1.56334,4.71655 -4.05203,5.62524 -0.45965,-0.0202 -0.94066,0.0794 -1.37897,-0.0605 -1.89974,-0.60638 -2.02773,-3.11915 -1.99715,-4.71548 0,-2.73749 0,-5.47498 0,-8.21248 0,-2.09015 2.95593,-2.09015 2.95593,0 z"
       inkscape:connector-curvature="0" />
    <path
       style="fill:#000000;fill-opacity:1;fill-rule:nonzero;stroke:none"
       id="path3984"
       d="m 689.87264,387.66345 c -0.34557,2.23918 -0.82115,4.53127 -0.35425,6.77876 0.89622,1.32477 2.54733,1.47726 4.00634,1.23902 1.23666,-0.47182 2.65921,-1.4695 2.84147,-2.88971 -0.57079,-1.35923 -2.02373,-2.10548 -3.28505,-2.70638 -1.0899,-0.40925 -2.22158,-0.73021 -3.38002,-0.86723 -0.81697,0.008 0.10888,0.0248 0.37201,-0.26967 -0.005,0.0402 -0.0106,0.0804 -0.0159,0.12056 -0.44739,2.04171 -3.3348,1.40901 -2.88741,-0.6327 l 0,0 c 0.0368,-0.15185 0.0735,-0.3037 0.11031,-0.45555 0.54271,-1.16752 1.40487,-1.896 2.78153,-1.6965 1.47989,0.18641 2.9287,0.58167 4.3107,1.14208 2.51582,1.23957 5.02379,3.03957 4.84089,6.16035 -0.84491,2.55322 -2.67928,4.35331 -5.32886,5.02871 -3.09147,0.30715 -6.02563,-0.50922 -7.27236,-3.63413 -0.45108,-2.6406 -0.12301,-5.2754 0.36212,-7.89731 0.40991,-2.04956 3.30843,-1.46986 2.89852,0.5797 z"
       inkscape:connector-curvature="0" />
    <path
       style="fill:#000000;fill-opacity:1;fill-rule:nonzero;stroke:none"
       id="path3986"
       d="m 703.90266,388.06906 c 0.4168,2.29739 0.57643,4.61729 1.03696,6.90659 0.28952,1.21879 0.49399,2.45892 0.73517,3.68544 -0.70464,-1.4125 0.16112,-0.0977 -2.84981,0.0513 -0.14757,0.007 0.006,-0.29545 0.007,-0.44319 0.002,-0.26304 0.004,-0.5261 0.004,-0.78916 0.002,-0.6988 0.001,-1.62297 8.7e-4,-2.31288 -0.002,-2.34612 -0.005,-4.69223 -0.008,-7.03835 -0.19733,-2.47068 0.93123,-3.25663 3.25642,-3.6548 1.9563,-0.19293 3.92559,-0.18983 5.88944,-0.18076 1.53026,-0.11412 2.46194,0.69111 2.69193,2.1896 0.26345,2.07348 -2.6689,2.44605 -2.93235,0.37257 l 0,0 c -0.003,-0.25674 0.29581,0.264 0.47475,0.32543 0.16247,0.0558 0.34804,0.0191 0.50941,0.078 0.23721,0.0866 -1.21403,-0.14012 -0.75753,-0.01 -1.81087,-0.009 -3.62592,-0.0108 -5.43127,0.14719 -0.31628,0.0374 -0.82963,0.1141 -0.83488,0.0669 -0.15358,-1.37873 0.39269,0.30839 0.09,0.66227 0.003,2.34683 0.005,4.69366 0.008,7.04049 4e-4,1.05381 0.008,2.10812 -0.006,3.16188 -0.003,0.19584 0.15107,0.48113 -0.0134,0.58742 -0.79983,0.51678 -1.6907,0.95298 -2.62829,1.11945 -0.22227,0.0395 -0.215,-0.39702 -0.3225,-0.59553 -0.32118,-1.27887 -0.43237,-2.60784 -0.78167,-3.88211 -0.45858,-2.29088 -0.63924,-4.60766 -1.03733,-6.90842 -0.40991,-2.04956 2.48861,-2.62927 2.89852,-0.5797 z"
       inkscape:connector-curvature="0" />
    <path
       style="fill:#000000;fill-opacity:1;fill-rule:nonzero;stroke:none"
       id="path3988"
       d="m 720.64342,373.78578 c 1.23739,2.92551 1.48194,6.1783 1.93449,9.29774 0.46678,3.45051 0.72109,6.92395 0.88937,10.40025 0.0214,0.74619 0.0754,1.49298 0.0634,2.23994 -0.002,0.0337 -0.003,0.0673 -0.005,0.10101 -0.14093,2.0854 -3.09013,1.88609 -2.9492,-0.19931 l 0,0 c -3.5e-4,0.0136 -7e-4,0.0272 -10e-4,0.0408 0.004,-0.68025 -0.0376,-1.36013 -0.0605,-2.03972 -0.16338,-3.38222 -0.40955,-6.7617 -0.86226,-10.11901 -0.40674,-2.80882 -0.62295,-5.74001 -1.65299,-8.39982 -0.93474,-1.86949 1.70911,-3.19142 2.64386,-1.32193 z"
       inkscape:connector-curvature="0" />
    <path
       style="fill:#000000;fill-opacity:1;fill-rule:nonzero;stroke:none"
       id="path3990"
       d="m 730.61565,384.24173 c -1.44733,1.4634 -3.18517,2.62307 -4.91711,3.72512 -0.64591,0.39148 -1.29074,0.78958 -1.96952,1.12267 -0.49417,0.31631 -1.45959,-0.15808 0.74171,-1.08365 0.20581,-0.0865 -0.75317,1.31269 -0.92772,1.47174 0.27244,-0.27238 -0.003,0.3084 -0.0426,0.45186 0.35315,-0.58418 -0.77638,-1.1243 -1.20168,-1.65825 0.80486,-0.0694 1.54412,0.0885 2.30186,0.36371 1.32713,0.37753 2.55931,0.95171 3.77634,1.59386 1.76682,0.99429 3.29501,2.34358 4.79304,3.69524 0.65301,0.49906 1.33872,0.96904 2.08606,1.3167 0.85672,0.60367 1.08489,1.17459 1.09994,2.12195 0.0143,2.09011 -2.94152,2.11038 -2.95585,0.0203 l 0,0 c 0.0254,-0.3 1.18951,0.92992 0.59139,0.52956 -1.00363,-0.47968 -1.9379,-1.0953 -2.80224,-1.79434 -1.31547,-1.18809 -2.65006,-2.38467 -4.19184,-3.27511 -1.09844,-0.57967 -2.2022,-1.10034 -3.40627,-1.42992 -0.44194,-0.16065 -0.55529,-0.25093 -1.34579,-0.18649 -1.38033,-1.25287 -1.88342,-0.94921 -1.6014,-2.05763 0.187,-0.69093 0.44255,-1.35353 0.92989,-1.89597 0.0359,-0.0305 0.12631,-0.12727 0.11563,-0.0814 -0.0489,0.20994 -0.32229,0.7754 -0.16861,0.62427 0.40503,-0.39832 0.64223,-0.93723 0.96335,-1.40584 -0.0165,0.007 -0.0811,0.0324 -0.0496,0.0219 0.57625,-0.28963 1.12881,-0.62388 1.67874,-0.96016 1.55164,-0.98419 3.11578,-2.01192 4.41211,-3.32032 1.47796,-1.47797 3.56811,0.61219 2.09015,2.09015 z"
       inkscape:connector-curvature="0" />
    <path
       sodipodi:nodetypes="cc"
       inkscape:connector-curvature="0"
       id="path4771"
       d="m 583.84942,486.30894 -5.57375,-204.835"
       style="fill:none;stroke:#000000;stroke-width:3.12519693;stroke-linecap:butt;stroke-linejoin:miter;stroke-miterlimit:4;stroke-opacity:1;stroke-dasharray:6.2503937, 3.12519685;stroke-dashoffset:0" />
    <path
       inkscape:connector-curvature="0"
       d="m 580.01202,280.24131 c -1.29517,2.06234 -2.59033,4.12469 -3.8855,6.18704 -1.26676,2.0171 -2.53352,4.03422 -3.80029,6.05134 -0.30527,0.4861 -0.61055,0.9722 -0.91582,1.4583 -3.01338,-2.06959 -2.67878,-1.29253 -1.29962,-3.48861 1.0671,-1.69918 2.1342,-3.39837 3.2013,-5.09757 0.605,-0.96336 1.21001,-1.92673 1.815,-2.89009 0.39265,-0.62523 0.7853,-1.25046 1.17795,-1.87569 0.1526,-0.243 0.30521,-0.486 0.45782,-0.729 2.39333,-0.48245 2.23508,-0.45017 3.40705,0.81959 1.24998,1.3774 1.79693,3.16511 2.71991,4.74092 0.72701,1.41378 1.6523,2.69435 2.72945,3.85752 0.61885,0.53259 0.8426,1.26012 0.927,2.03746 0.12939,2.08615 -2.82087,2.26914 -2.95026,0.183 l 0,0 c 0.17225,0.11644 0.51077,0.38866 -0.14887,-0.21563 -1.22091,-1.32649 -2.28376,-2.77881 -3.11656,-4.38324 -0.80045,-1.39953 -1.31583,-2.94719 -2.33295,-4.21537 -1.01617,-1.1013 -0.72568,-0.73001 1.26846,-1.2522 -0.1526,0.243 -0.30521,0.486 -0.45781,0.729 -0.39265,0.62523 -0.7853,1.25046 -1.17795,1.87569 -0.605,0.96336 -1.21,1.92673 -1.815,2.89009 -1.06711,1.69919 -2.13421,3.39839 -3.20131,5.09757 -1.37915,2.19608 -0.53389,2.15999 -3.70685,0.34451 0.30528,-0.4861 0.61055,-0.9722 0.91583,-1.4583 1.26676,-2.01712 2.53352,-4.03424 3.80028,-6.05134 1.29517,-2.06235 2.59034,-4.1247 3.8855,-6.18704 1.11161,-1.77004 3.61484,-0.19799 2.50324,1.57205 z"
       id="path4775"
       style="fill:#000000;fill-opacity:1;fill-rule:nonzero;stroke:none"
       inkscape:transform-center-x="-8.8216168"
       inkscape:transform-center-y="8.0225043" />
    <path
       style="fill:#000000;fill-opacity:1;fill-rule:nonzero;stroke:none"
       id="path4783"
       d="m 648.84627,438.15555 c -0.64858,0.63006 -1.29718,1.26012 -1.94577,1.8902 -0.3012,0.29259 -0.60239,0.58518 -0.90359,0.87777 -0.64899,0.62967 -0.0542,0.13612 -1.27202,-1.96426 1.72784,-1.23974 3.55861,-2.35145 5.47144,-3.30024 1.37876,-0.48944 3.09311,-1.51663 4.61522,-0.90913 0.30498,0.12173 0.55183,0.3507 0.82775,0.52605 1.44473,1.8902 0.80614,3.85134 -0.0697,5.8177 -0.73749,1.53636 -2.06675,2.48166 -3.63026,3.12095 -1.32631,0.42711 -1.80741,0.71463 -0.76036,-2.06497 0.0719,-0.19077 0.41824,-0.004 0.62736,-0.005 1.88754,0.047 3.84953,-0.20926 5.69468,0.31356 0.45638,0.12932 0.88141,0.34638 1.32211,0.51957 1.94369,1.13012 3.26887,3.13932 2.96685,5.41589 -0.0619,0.46694 -0.25068,0.90956 -0.37603,1.36434 -1.49571,2.95018 -4.45152,4.07603 -7.66377,4.20481 -2.42739,-0.27325 -4.08255,-0.94963 -4.75017,-3.36151 -0.3433,-1.62074 2.01614,-2.09237 2.35945,-0.47164 l 0,0 c -0.0701,1.1282 1.50241,1.34184 2.32566,1.49392 2.14315,-0.0138 4.26284,-0.67387 5.42423,-2.54667 0.59034,-1.52971 0.21083,-3.01758 -1.23529,-3.94833 -1.90478,-0.86576 -3.99392,-0.65567 -6.04844,-0.64394 -0.21089,0.002 -0.53713,0.18756 -0.6327,0.005 -1.33521,-2.55186 -1.22725,-2.09366 -0.17515,-2.43713 0.99461,-0.39021 1.86239,-0.91429 2.34208,-1.89051 0.45399,-1.01287 0.96231,-1.9701 0.74705,-3.08056 0.69502,-0.59759 -3.13671,0.61401 -2.81933,0.66376 -1.79107,0.87922 -3.49575,1.92983 -5.11309,3.08299 -2.00514,-1.50605 -2.54521,-0.91367 -1.8809,-1.55938 0.3012,-0.29259 0.6024,-0.58518 0.90359,-0.87778 0.64858,-0.63007 1.29718,-1.26013 1.94577,-1.89019 1.20444,-1.17005 2.90778,0.48464 1.70334,1.65468 z"
       inkscape:connector-curvature="0" />
    <path
       style="fill:#000000;fill-opacity:1;fill-rule:nonzero;stroke:none"
       id="path4801"
       d="m 652.62028,428.07799 c -1.60292,-0.0497 -3.18028,-0.004 -4.76696,0.21095 -1.95087,0.3642 -3.62753,1.32831 -5.05203,2.6412 -2.00135,2.34665 -2.28406,5.35316 -2.61211,8.2682 -0.58395,4.33108 0.13955,8.48679 1.76409,12.51574 2.0479,4.27251 4.69345,6.42332 9.07131,8.26832 4.60785,1.56158 8.49871,0.8683 12.78546,-1.14443 3.34939,-2.01774 4.90641,-3.77887 5.92627,-7.44714 0.74324,-4.22712 -1.22081,-7.95724 -3.50758,-11.40151 -2.57056,-3.49054 -5.6825,-6.6149 -9.4333,-8.89801 -1.56229,-0.95449 -3.28292,-1.53476 -5.02534,-2.07826 -1.62036,-0.51018 -0.87764,-2.73625 0.74272,-2.22607 l 0,0 c 1.93089,0.61302 3.83951,1.26405 5.57098,2.32706 4.02858,2.49895 7.42156,5.81287 10.1724,9.61163 2.71834,4.13561 4.73834,8.259 3.80062,13.29325 -1.30911,4.45158 -3.13116,6.49858 -7.21067,8.93162 -0.74233,0.3393 -1.46156,0.73114 -2.22701,1.01791 -4.05757,1.52015 -8.4822,1.59873 -12.56504,0.15573 -0.75736,-0.32792 -1.53999,-0.60556 -2.27209,-0.98375 -3.6556,-1.88846 -6.38421,-4.93824 -8.07436,-8.57951 -1.73924,-4.38761 -2.54828,-8.91067 -1.91282,-13.6192 0.39906,-3.48402 0.85956,-7.00851 3.36622,-9.72537 1.81526,-1.6144 3.90208,-2.82408 6.36063,-3.24521 1.69681,-0.22837 3.3856,-0.28655 5.09861,-0.23324 1.70333,0 1.70333,2.34009 0,2.34009 z"
       inkscape:connector-curvature="0" />
    <path
       style="fill:#000000;fill-opacity:1;fill-rule:nonzero;stroke:none"
       id="path4809"
       d="m 555.87426,327.06086 c 0.98212,1.94848 1.25809,4.09805 1.47821,6.22129 0.0345,1.74397 -0.18999,3.48237 -0.52456,5.19428 -0.3265,1.25987 0.0268,1.30699 -1.24625,-0.83046 -0.064,-0.007 -0.2414,0.0179 -0.19197,-0.0213 0.22152,-0.17566 2.68448,-0.93708 3.06527,-1.07911 1.75579,-0.59114 3.45198,-1.33106 5.23161,-1.85956 0.64797,-0.17027 1.30297,-0.33007 1.97181,-0.40602 0.14869,-0.0208 0.29472,-0.007 0.44352,0.004 1.83801,0.26268 1.44628,2.72778 -0.39172,2.46509 l 0,0 c 0.14956,0.01 0.13958,0.0153 0.2467,0.008 -0.50563,0.0623 -1.00125,0.18245 -1.49229,0.31046 -1.72109,0.49901 -3.34886,1.24154 -5.04822,1.79852 -1.26547,0.47123 -2.52981,0.96433 -3.85121,1.2731 -1.61294,-1.94142 -1.56742,-0.98045 -1.32163,-2.11821 0.29181,-1.4824 0.4877,-2.98655 0.4927,-4.49633 -0.18574,-1.81929 -0.39107,-3.67048 -1.21313,-5.34858 -0.83126,-1.57666 1.5199,-2.69154 2.35116,-1.11487 z"
       inkscape:connector-curvature="0" />
    <path
       style="fill:#000000;fill-opacity:1;fill-rule:nonzero;stroke:none"
       id="path4811"
       d="m 564.68129,327.25477 c 1.05922,3.11336 1.22799,6.42757 1.43723,9.67105 0.14118,2.68568 0.19544,5.37465 0.21122,8.06336 -4.4e-4,0.46127 0.004,0.92268 -0.006,1.38388 -0.0426,1.7623 -2.67064,1.70511 -2.62799,-0.0572 l 0,0 c 0.008,-0.43757 0.007,-0.87522 0.006,-1.31285 -0.0154,-2.64269 -0.0685,-5.28563 -0.20638,-7.92538 -0.19113,-2.97981 -0.33662,-6.0233 -1.25411,-8.89701 -0.69032,-1.63668 1.75035,-2.56253 2.44068,-0.92585 z"
       inkscape:connector-curvature="0" />
    <path
       style="fill:#000000;fill-opacity:1;fill-rule:nonzero;stroke:none"
       id="path4817"
       d="m 559.22236,319.32643 c -1.91166,-0.0704 -3.71975,0.37446 -5.41259,1.18522 -2.10297,1.16943 -3.263,3.36235 -4.23267,5.40362 -1.42995,3.70521 -1.49172,7.58641 -0.76799,11.42562 1.09223,4.90956 3.18709,7.76219 7.16412,10.93723 3.20951,2.07996 6.96105,3.61206 10.93012,3.10365 0.72271,-0.0926 1.42129,-0.31062 2.13193,-0.46594 4.81682,-2.17668 5.57946,-5.07781 5.72673,-9.82963 -0.30804,-5.37641 -3.24856,-9.80263 -6.64727,-13.9192 -2.89181,-3.304 -5.75196,-5.29031 -10.09032,-6.43974 -0.52345,-0.0971 -1.04691,-0.1943 -1.57036,-0.29145 -1.82318,-0.34327 -1.31129,-2.78847 0.51188,-2.44521 l 0,0 c 0.59276,0.11301 1.18553,0.22601 1.77829,0.33902 4.98107,1.36648 8.10178,3.51185 11.4423,7.30302 3.77402,4.59439 6.94193,9.55398 7.2024,15.5448 -0.0417,0.92531 -2.8e-4,1.85739 -0.12526,2.77594 -0.59818,4.39608 -3.30983,7.78951 -7.66376,9.3972 -0.86936,0.17423 -1.72545,0.42544 -2.60809,0.52271 -4.63131,0.51037 -8.99709,-1.22178 -12.71835,-3.69353 -4.52398,-3.65926 -6.7855,-6.81679 -8.05415,-12.41165 -0.79916,-4.46483 -0.71518,-8.59548 0.96569,-12.88645 1.24701,-2.5708 2.75641,-5.19083 5.45896,-6.60437 2.06749,-0.95484 4.25651,-1.52435 6.57839,-1.44379 1.85876,0 1.85876,2.49293 0,2.49293 z"
       inkscape:connector-curvature="0" />
    <path
       style="fill:#000000;fill-opacity:1;fill-rule:nonzero;stroke:none"
       id="path4837"
       d="m 285.95869,219.23505 c -1.01423,0.57678 -2.0548,1.1072 -3.07396,1.67542 -0.89845,0.43031 -1.8221,0.81157 -2.51813,1.54215 -1.08482,1.14391 -1.86415,2.51967 -2.51624,3.94379 -0.86839,2.18809 -0.7346,4.51071 -0.5014,6.80273 0.47487,3.74231 2.05691,7.15187 3.98563,10.34599 2.60266,4.03718 6.05195,6.85296 10.04759,9.41082 5.76723,3.2309 12.32601,4.53893 18.7122,5.9649 3.35274,0.63617 6.64327,1.53196 9.92525,2.45449 1.45554,0.40939 0.87658,2.46783 -0.57896,2.05845 l 0,0 c -3.24435,-0.91308 -6.49748,-1.79831 -9.81236,-2.42603 -6.6307,-1.48109 -13.43113,-2.85975 -19.40086,-6.25209 -4.31062,-2.7717 -7.91589,-5.74773 -10.72497,-10.10792 -2.08287,-3.47159 -3.78183,-7.17378 -4.28129,-11.23644 -0.26178,-2.67426 -0.36377,-5.37412 0.68736,-7.9103 0.76797,-1.65546 1.68239,-3.25143 2.95908,-4.57334 0.87504,-0.82881 1.86952,-1.41953 2.98103,-1.88775 1.04872,-0.57773 2.11103,-1.12915 3.15375,-1.71744 1.35239,-0.67619 2.30867,1.23637 0.95628,1.91257 z"
       inkscape:connector-curvature="0"
       transform="translate(320.09099,173.18111)" />
  </g>
</svg>
