<?xml version="1.0" encoding="UTF-8" standalone="no"?>
<!-- Created with Inkscape (http://www.inkscape.org/) -->

<svg
   xmlns:dc="http://purl.org/dc/elements/1.1/"
   xmlns:cc="http://creativecommons.org/ns#"
   xmlns:rdf="http://www.w3.org/1999/02/22-rdf-syntax-ns#"
   xmlns:svg="http://www.w3.org/2000/svg"
   xmlns="http://www.w3.org/2000/svg"
   xmlns:sodipodi="http://sodipodi.sourceforge.net/DTD/sodipodi-0.dtd"
   xmlns:inkscape="http://www.inkscape.org/namespaces/inkscape"
   width="728.54932"
   height="207.58217"
   id="svg5690"
   version="1.1"
   inkscape:version="0.48.0 r9654"
   sodipodi:docname="New document 19">
  <defs
     id="defs5692" />
  <sodipodi:namedview
     inkscape:document-units="mm"
     pagecolor="#ffffff"
     bordercolor="#666666"
     borderopacity="1.0"
     inkscape:pageopacity="0.0"
     inkscape:pageshadow="2"
     inkscape:zoom="0.7176508"
     inkscape:cx="340.63506"
     inkscape:cy="77.66091"
     inkscape:current-layer="layer1"
     id="namedview5694"
     showgrid="false"
     fit-margin-top="0"
     fit-margin-left="0"
     fit-margin-right="0"
     fit-margin-bottom="0"
     inkscape:window-width="1280"
     inkscape:window-height="752"
     inkscape:window-x="0"
     inkscape:window-y="0"
     inkscape:window-maximized="0" />
  <metadata
     id="metadata5696">
    <rdf:RDF>
      <cc:Work
         rdf:about="">
        <dc:format>image/svg+xml</dc:format>
        <dc:type
           rdf:resource="http://purl.org/dc/dcmitype/StillImage" />
        <dc:title></dc:title>
      </cc:Work>
    </rdf:RDF>
  </metadata>
  <g
     inkscape:label="Layer 1"
     inkscape:groupmode="layer"
     id="layer1"
     transform="translate(-185.54603,-242.12598)">
    <path
       style="fill:#000000;fill-opacity:1;fill-rule:nonzero;stroke:none"
       id="path6219"
       d="m 187.56074,443.78254 c 5.74114,0.0667 11.48228,0.13335 17.22343,0.20002 10.69402,0.12419 21.38803,0.24838 32.08205,0.37258 18.24032,0.21183 36.48064,0.42366 54.72098,0.63549 25.99339,0.38537 51.9847,0.62171 77.98017,0.50904 31.95365,-0.14528 63.90514,-0.68378 95.85546,-1.19958 34.67239,-0.34379 69.33681,-1.26041 104.00626,-1.82082 34.6615,-0.46313 69.3212,-0.93273 103.98551,-1.00083 30.6362,-0.005 61.27135,0.30814 91.90579,0.63796 24.68691,0.27619 49.37361,0.57424 74.06035,0.86708 16.30093,0.19331 32.60189,0.38461 48.90287,0.57492 7.97484,0.32343 15.98764,-0.17292 23.95115,0.44908 2.65327,0.21129 2.38437,4.3809 -0.26889,4.16962 l 0,0 c -7.88452,-0.64105 -15.82562,-0.0898 -23.72176,-0.43862 -16.3012,-0.19025 -32.60239,-0.38162 -48.90357,-0.57493 -24.68549,-0.29268 -49.37093,-0.59116 -74.05659,-0.86704 -30.62008,-0.3297 -61.24088,-0.6423 -91.86269,-0.63776 -34.64832,0.068 -69.29198,0.53753 -103.93745,1.00038 -34.66949,0.56034 -69.33392,1.4771 -104.00633,1.82082 -31.96364,0.51602 -63.92848,1.05466 -95.89543,1.2 -26.01347,0.1127 -52.02278,-0.12358 -78.03417,-0.50924 -18.24032,-0.21183 -36.48065,-0.42366 -54.72098,-0.63549 -10.69401,-0.12419 -21.38803,-0.24839 -32.08203,-0.37258 -5.74116,-0.0667 -11.4823,-0.13335 -17.22345,-0.20002 -2.65991,-0.0309 -2.6206,-4.21097 0.0393,-4.18008 z"
       inkscape:connector-curvature="0" />
    <path
       style="fill:#000000;fill-opacity:1;fill-rule:nonzero;stroke:none"
       id="path6279"
       d="m 243.01779,389.46519 c -2.66559,0 -5.33117,0 -7.99676,0 -1.99375,-0.0728 -3.93477,0.52049 -5.7671,1.25789 -1.98685,0.9423 -3.78537,2.12941 -5.37403,3.65037 -1.77082,1.8124 -3.01722,4.06963 -4.16909,6.30791 -1.67938,3.11289 -2.92717,6.45215 -4.05378,9.80041 -1.03227,3.55153 -1.69049,7.27294 -1.52133,10.9778 0.13715,3.27336 1.4625,6.284 3.0984,9.06919 1.75817,2.9205 4.26152,5.15743 6.81837,7.34767 2.23287,1.76052 4.92291,2.82872 7.61785,3.66794 2.62503,0.75894 5.37227,0.67961 8.05383,1.0584 2.58544,0.51755 5.19599,0.86623 7.82359,1.07103 2.10754,0.21708 4.22798,-0.0287 6.2214,-0.74942 1.64295,-0.69544 3.28243,-1.46575 4.79178,-2.42484 1.77096,-0.93837 3.38222,-2.12526 4.90607,-3.4188 1.2818,-1.07541 2.24049,-2.45423 3.22434,-3.79521 0.82544,-1.20508 1.24148,-2.53446 1.42041,-3.96695 0.49976,-1.68238 1.04294,-3.32083 1.31211,-5.0579 0.20695,-1.64803 0.20406,-3.31104 0.21534,-4.96896 0.005,-1.77011 -0.002,-3.54022 -0.005,-5.31033 0.10577,-1.29527 0.0159,-2.4047 -0.48032,-3.58812 -0.33259,-1.27839 -0.78927,-2.43064 -1.32237,-3.63071 -0.6987,-1.11581 -1.46975,-2.14643 -1.95569,-3.37784 -0.42824,-0.98391 -1.02352,-1.39623 -1.70849,-2.18869 -0.78948,-0.98306 -1.66384,-1.8929 -2.5332,-2.80457 -0.56029,-0.95379 -1.4004,-1.65021 -2.20889,-2.37863 -0.57468,-0.60175 -0.82753,-0.79397 -1.32117,-0.92402 -1.02851,-0.18299 -1.90353,-0.83686 -2.86605,-1.23614 -0.92092,-0.2074 -1.74043,-0.8167 -2.43048,-1.32584 -0.89335,-0.27646 -1.73388,-0.69141 -2.58446,-1.09564 -0.57531,-0.35275 -1.17889,-0.46616 -1.83342,-0.55436 -1.1604,-0.17676 -2.18041,-0.80246 -3.30876,-1.11739 -0.61019,-0.20081 -1.22761,-0.2674 -1.8633,-0.29515 -1.1931,0.0121 -2.39479,-0.11077 -3.5674,0.13345 -2.91582,0.48529 -3.60212,-3.63829 -0.68631,-4.12358 l 0,0 c 1.47891,-0.21536 2.9509,-0.24124 4.4445,-0.18582 0.95604,0.0451 1.89755,0.16702 2.81582,0.45018 1.19057,0.343 2.55906,1.07285 2.74213,0.99797 1.06211,0.15102 2.10509,0.39446 3.05189,0.91946 1.03661,0.49317 1.74611,0.81798 2.87503,1.24808 1.06103,0.68622 0.82271,0.79251 1.9552,1.09099 0.96518,0.40487 1.68259,0.98983 2.42996,1.08183 1.15486,0.35177 2.12136,0.94721 2.94583,1.83108 0.87642,0.79059 1.8386,1.56631 2.43532,2.5988 0.91845,0.96333 1.84088,1.9259 2.67676,2.96305 0.92494,1.08191 1.94873,2.04932 2.44666,3.42868 0.40526,1.16081 1.40095,2.0191 1.86884,3.16702 0.54464,1.22605 1.04373,2.4481 1.37278,3.74904 0.67152,1.67587 0.92686,3.35514 0.78989,5.15912 0.003,1.78224 0.0103,3.56448 0.005,5.34672 -0.0129,1.86501 -0.0168,3.73577 -0.26571,5.58796 -0.26956,1.70199 -0.68727,3.35685 -1.29935,4.97051 -0.30159,2.12053 -0.94668,4.11002 -2.19334,5.88064 -1.17801,1.60334 -2.36071,3.22508 -3.89444,4.51303 -1.69252,1.4271 -3.47207,2.75197 -5.43075,3.79703 -1.80129,1.06945 -3.66741,2.0535 -5.62242,2.81313 -2.55092,0.8318 -5.20702,1.2576 -7.89287,0.95862 -2.72166,-0.21514 -5.42848,-0.56447 -8.10654,-1.10298 -2.89018,-0.45081 -5.88069,-0.28238 -8.70022,-1.20695 -3.22756,-1.02731 -6.4273,-2.32875 -9.0813,-4.48058 -2.91179,-2.49577 -5.72505,-5.08995 -7.71243,-8.42121 -1.95632,-3.39447 -3.51289,-7.04478 -3.66185,-11.0178 -0.12384,-4.21623 0.50354,-8.43204 1.73856,-12.46829 1.20294,-3.54591 2.5221,-7.08352 4.30182,-10.3841 1.38216,-2.65595 2.88069,-5.31509 5.02521,-7.43837 1.99646,-1.83851 4.1973,-3.36619 6.68183,-4.48091 2.32736,-0.9211 4.78898,-1.62764 7.31544,-1.55521 2.66559,0 5.33117,0 7.99676,0 2.95593,0 2.95593,4.18031 0,4.18031 z"
       inkscape:connector-curvature="0" />
    <path
       inkscape:connector-curvature="0"
       d="m 542.6064,388.07176 c -2.66559,0 -5.33117,0 -7.99676,0 -1.99375,-0.0728 -3.93477,0.52049 -5.7671,1.25789 -1.98685,0.9423 -3.78537,2.12941 -5.37403,3.65037 -1.77082,1.8124 -3.01722,4.06963 -4.16909,6.30791 -1.67938,3.11289 -2.92717,6.45215 -4.05378,9.80041 -1.03227,3.55153 -1.69049,7.27294 -1.52133,10.9778 0.13715,3.27336 1.4625,6.284 3.0984,9.06919 1.75817,2.9205 4.26152,5.15743 6.81837,7.34767 2.23287,1.76052 4.92291,2.82872 7.61785,3.66794 2.62503,0.75894 5.37227,0.67961 8.05383,1.0584 2.58544,0.51755 5.19599,0.86623 7.82359,1.07103 2.10754,0.21708 4.22798,-0.0287 6.2214,-0.74942 1.64295,-0.69544 3.28243,-1.46575 4.79178,-2.42484 1.77096,-0.93837 3.38222,-2.12526 4.90607,-3.4188 1.2818,-1.07541 2.24049,-2.45423 3.22434,-3.79521 0.82544,-1.20508 1.24148,-2.53446 1.42041,-3.96695 0.49976,-1.68238 1.04294,-3.32083 1.31211,-5.0579 0.20695,-1.64803 0.20406,-3.31104 0.21534,-4.96896 0.005,-1.77011 -0.002,-3.54022 -0.005,-5.31033 0.10577,-1.29527 0.0159,-2.4047 -0.48032,-3.58812 -0.33259,-1.27839 -0.78927,-2.43064 -1.32237,-3.63071 -0.6987,-1.11581 -1.46975,-2.14643 -1.95569,-3.37784 -0.42824,-0.98391 -1.02352,-1.39623 -1.70849,-2.18869 -0.78948,-0.98306 -1.66384,-1.8929 -2.5332,-2.80457 -0.56029,-0.95379 -1.4004,-1.65021 -2.20889,-2.37863 -0.57468,-0.60175 -0.82753,-0.79397 -1.32117,-0.92402 -1.02851,-0.18299 -1.90353,-0.83686 -2.86605,-1.23614 -0.92092,-0.2074 -1.74043,-0.8167 -2.43048,-1.32584 -0.89335,-0.27646 -1.73388,-0.69141 -2.58446,-1.09564 -0.57531,-0.35275 -1.17889,-0.46616 -1.83342,-0.55436 -1.1604,-0.17676 -2.18041,-0.80246 -3.30876,-1.11739 -0.61019,-0.20081 -1.22761,-0.2674 -1.8633,-0.29515 -1.1931,0.0121 -2.39479,-0.11077 -3.5674,0.13345 -2.91582,0.48529 -3.60212,-3.63829 -0.68631,-4.12358 l 0,0 c 1.47891,-0.21536 2.9509,-0.24124 4.4445,-0.18582 0.95604,0.0451 1.89755,0.16702 2.81582,0.45018 1.19057,0.343 2.55906,1.07285 2.74213,0.99797 1.06211,0.15102 2.10509,0.39446 3.05189,0.91946 1.03661,0.49317 1.74611,0.81798 2.87503,1.24808 1.06103,0.68622 0.82271,0.79251 1.9552,1.09099 0.96518,0.40487 1.68259,0.98983 2.42996,1.08183 1.15486,0.35177 2.12136,0.94721 2.94583,1.83108 0.87642,0.79059 1.8386,1.56631 2.43532,2.5988 0.91845,0.96333 1.84088,1.9259 2.67676,2.96305 0.92494,1.08191 1.94873,2.04932 2.44666,3.42868 0.40526,1.16081 1.40095,2.0191 1.86884,3.16702 0.54464,1.22605 1.04373,2.4481 1.37278,3.74904 0.67152,1.67587 0.92686,3.35514 0.78989,5.15912 0.003,1.78224 0.0103,3.56448 0.005,5.34672 -0.0129,1.86501 -0.0168,3.73577 -0.26571,5.58796 -0.26956,1.70199 -0.68727,3.35685 -1.29935,4.97051 -0.30159,2.12053 -0.94668,4.11002 -2.19334,5.88064 -1.17801,1.60334 -2.36071,3.22508 -3.89444,4.51303 -1.69252,1.4271 -3.47207,2.75197 -5.43075,3.79703 -1.80129,1.06945 -3.66741,2.0535 -5.62242,2.81313 -2.55092,0.8318 -5.20702,1.2576 -7.89287,0.95862 -2.72166,-0.21514 -5.42848,-0.56447 -8.10654,-1.10298 -2.89018,-0.45081 -5.88069,-0.28238 -8.70022,-1.20695 -3.22756,-1.02731 -6.4273,-2.32875 -9.0813,-4.48058 -2.91179,-2.49577 -5.72505,-5.08995 -7.71243,-8.42121 -1.95632,-3.39447 -3.51289,-7.04478 -3.66185,-11.0178 -0.12384,-4.21623 0.50354,-8.43204 1.73856,-12.46829 1.20294,-3.54591 2.5221,-7.08352 4.30182,-10.3841 1.38216,-2.65595 2.88069,-5.31509 5.02521,-7.43837 1.99646,-1.83851 4.1973,-3.36619 6.68183,-4.48091 2.32736,-0.9211 4.78898,-1.62764 7.31544,-1.55521 2.66559,0 5.33117,0 7.99676,0 2.95593,0 2.95593,4.18031 0,4.18031 z"
       id="path6281"
       style="fill:#000000;fill-opacity:1;fill-rule:nonzero;stroke:none" />
    <path
       style="fill:#000000;fill-opacity:1;fill-rule:nonzero;stroke:none"
       id="path6283"
       d="m 851.94905,388.07176 c -2.66559,0 -5.33117,0 -7.99676,0 -1.99375,-0.0728 -3.93477,0.52049 -5.7671,1.25789 -1.98685,0.9423 -3.78537,2.12941 -5.37403,3.65037 -1.77082,1.8124 -3.01722,4.06963 -4.16909,6.30791 -1.67938,3.11289 -2.92717,6.45215 -4.05378,9.80041 -1.03227,3.55153 -1.69049,7.27294 -1.52133,10.9778 0.13715,3.27336 1.4625,6.284 3.0984,9.06919 1.75817,2.9205 4.26152,5.15743 6.81837,7.34767 2.23287,1.76052 4.92291,2.82872 7.61785,3.66794 2.62503,0.75894 5.37227,0.67961 8.05383,1.0584 2.58544,0.51755 5.19599,0.86623 7.82359,1.07103 2.10754,0.21708 4.22798,-0.0287 6.2214,-0.74942 1.64295,-0.69544 3.28243,-1.46575 4.79178,-2.42484 1.77096,-0.93837 3.38222,-2.12526 4.90607,-3.4188 1.2818,-1.07541 2.24049,-2.45423 3.22434,-3.79521 0.82544,-1.20508 1.24148,-2.53446 1.42041,-3.96695 0.49976,-1.68238 1.04294,-3.32083 1.31211,-5.0579 0.20695,-1.64803 0.20406,-3.31104 0.21534,-4.96896 0.005,-1.77011 -0.002,-3.54022 -0.005,-5.31033 0.10577,-1.29527 0.0159,-2.4047 -0.48032,-3.58812 -0.33259,-1.27839 -0.78927,-2.43064 -1.32237,-3.63071 -0.6987,-1.11581 -1.46975,-2.14643 -1.95569,-3.37784 -0.42824,-0.98391 -1.02352,-1.39623 -1.70849,-2.18869 -0.78948,-0.98306 -1.66384,-1.8929 -2.5332,-2.80457 -0.56029,-0.95379 -1.4004,-1.65021 -2.20889,-2.37863 -0.57468,-0.60175 -0.82753,-0.79397 -1.32117,-0.92402 -1.02851,-0.18299 -1.90353,-0.83686 -2.86605,-1.23614 -0.92092,-0.2074 -1.74043,-0.8167 -2.43048,-1.32584 -0.89335,-0.27646 -1.73388,-0.69141 -2.58446,-1.09564 -0.57531,-0.35275 -1.17889,-0.46616 -1.83342,-0.55436 -1.1604,-0.17676 -2.18041,-0.80246 -3.30876,-1.11739 -0.61019,-0.20081 -1.22761,-0.2674 -1.8633,-0.29515 -1.1931,0.0121 -2.39479,-0.11077 -3.5674,0.13345 -2.91582,0.48529 -3.60212,-3.63829 -0.68631,-4.12358 l 0,0 c 1.47891,-0.21536 2.9509,-0.24124 4.4445,-0.18582 0.95604,0.0451 1.89755,0.16702 2.81582,0.45018 1.19057,0.343 2.55906,1.07285 2.74213,0.99797 1.06211,0.15102 2.10509,0.39446 3.05189,0.91946 1.03661,0.49317 1.74611,0.81798 2.87503,1.24808 1.06103,0.68622 0.82271,0.79251 1.9552,1.09099 0.96518,0.40487 1.68259,0.98983 2.42996,1.08183 1.15486,0.35177 2.12136,0.94721 2.94583,1.83108 0.87642,0.79059 1.8386,1.56631 2.43532,2.5988 0.91845,0.96333 1.84088,1.9259 2.67676,2.96305 0.92494,1.08191 1.94873,2.04932 2.44666,3.42868 0.40526,1.16081 1.40095,2.0191 1.86884,3.16702 0.54464,1.22605 1.04373,2.4481 1.37278,3.74904 0.67152,1.67587 0.92686,3.35514 0.78989,5.15912 0.003,1.78224 0.0103,3.56448 0.005,5.34672 -0.0129,1.86501 -0.0168,3.73577 -0.26571,5.58796 -0.26956,1.70199 -0.68727,3.35685 -1.29935,4.97051 -0.30159,2.12053 -0.94668,4.11002 -2.19334,5.88064 -1.17801,1.60334 -2.36071,3.22508 -3.89444,4.51303 -1.69252,1.4271 -3.47207,2.75197 -5.43075,3.79703 -1.80129,1.06945 -3.66741,2.0535 -5.62242,2.81313 -2.55092,0.8318 -5.20702,1.2576 -7.89287,0.95862 -2.72166,-0.21514 -5.42848,-0.56447 -8.10654,-1.10298 -2.89018,-0.45081 -5.88069,-0.28238 -8.70022,-1.20695 -3.22756,-1.02731 -6.4273,-2.32875 -9.0813,-4.48058 -2.91179,-2.49577 -5.72505,-5.08995 -7.71243,-8.42121 -1.95632,-3.39447 -3.51289,-7.04478 -3.66185,-11.0178 -0.12384,-4.21623 0.50354,-8.43204 1.73856,-12.46829 1.20294,-3.54591 2.5221,-7.08352 4.30182,-10.3841 1.38216,-2.65595 2.88069,-5.31509 5.02521,-7.43837 1.99646,-1.83851 4.1973,-3.36619 6.68183,-4.48091 2.32736,-0.9211 4.78898,-1.62764 7.31544,-1.55521 2.66559,0 5.33117,0 7.99676,0 2.95593,0 2.95593,4.18031 0,4.18031 z"
       inkscape:connector-curvature="0" />
    <path
       style="fill:#000000;fill-opacity:1;fill-rule:nonzero;stroke:none"
       id="path6317"
       d="m 249.28004,376.1738 c 0.51407,-0.69731 0.94381,-1.44861 1.37426,-2.19863 0.70034,-1.23485 1.45375,-2.43696 2.20223,-3.64276 0.87386,-1.49982 1.77319,-2.98348 2.71855,-4.43929 1.18284,-1.90606 2.41493,-3.78101 3.69886,-5.62039 1.61663,-2.27304 3.24063,-4.54059 4.94417,-6.74952 2.00213,-2.62371 4.15684,-5.12721 6.36786,-7.57588 2.59063,-2.86186 5.34833,-5.56572 8.15621,-8.21246 2.94947,-2.8265 6.01856,-5.52462 9.12051,-8.18162 3.12784,-2.6695 6.39826,-5.16379 9.71105,-7.59744 3.42768,-2.52337 6.97977,-4.86793 10.58333,-7.13042 3.6876,-2.26632 7.48188,-4.34965 11.27743,-6.42746 3.93066,-2.14605 7.93292,-4.15097 11.9906,-6.04429 3.94094,-1.8644 7.99988,-3.45098 12.07615,-4.989 4.04326,-1.52876 8.14716,-2.88838 12.26516,-4.19962 3.92306,-1.27395 7.92493,-2.27461 11.95525,-3.14049 3.97658,-0.85982 8.0066,-1.4318 12.0481,-1.87787 3.79509,-0.42863 7.60715,-0.63965 11.42268,-0.7625 3.64843,-0.13069 7.28985,0.0503 10.92615,0.32807 3.58934,0.29473 7.14968,0.85856 10.68662,1.52501 3.49129,0.65869 6.89537,1.67538 10.28548,2.72158 3.3015,1.03408 6.55621,2.20555 9.76836,3.48883 3.19353,1.28896 6.29308,2.79126 9.35832,4.35676 3.16505,1.59548 6.18493,3.45141 9.17702,5.3456 3.07863,1.92784 5.98352,4.11246 8.87505,6.30588 2.91126,2.19654 5.73579,4.50383 8.50745,6.87313 2.81621,2.42807 5.58229,4.91257 8.30633,7.44333 2.82398,2.56346 5.49525,5.28403 8.12963,8.03961 2.53715,2.66966 5.02838,5.38349 7.48934,8.12349 2.33868,2.5972 4.52635,5.32008 6.6675,8.0803 1.96288,2.59169 3.86923,5.22576 5.7694,7.86364 1.62265,2.241 3.18154,4.52727 4.74754,6.80795 1.31904,1.955 2.66023,3.89451 3.97222,5.85435 1.08439,1.62372 2.16558,3.24957 3.24713,4.87518 0.87165,1.31326 1.74233,2.62703 2.63308,3.92743 0.76893,1.11796 1.5416,2.23334 2.31385,3.349 0.62034,0.8961 1.24074,1.79216 1.86114,2.68822 0.47437,0.67553 0.93638,1.35954 1.40316,2.04025 1.67034,2.43874 -1.77856,4.80096 -3.4489,2.36222 l 0,0 c -0.46212,-0.67538 -0.92132,-1.35277 -1.39119,-2.02287 -0.62049,-0.8962 -1.24099,-1.79238 -1.86141,-2.68862 -0.77615,-1.1213 -1.55273,-2.24231 -2.32551,-3.36594 -0.90129,-1.31595 -1.78271,-2.64513 -2.66462,-3.97413 -1.07935,-1.62232 -2.15835,-3.24487 -3.24053,-4.8653 -1.30282,-1.9462 -2.63472,-3.87217 -3.94455,-5.81354 -1.54822,-2.2548 -3.08914,-4.5153 -4.69333,-6.73088 -1.87126,-2.59777 -3.74851,-5.19183 -5.68057,-7.74482 -2.07952,-2.68104 -4.20285,-5.32684 -6.4746,-7.84929 -2.43167,-2.70798 -4.89391,-5.38951 -7.40085,-8.02799 -2.57719,-2.69606 -5.18963,-5.35865 -7.95329,-7.86576 -2.68179,-2.49179 -5.40519,-4.93778 -8.17763,-7.32861 -2.70922,-2.31707 -5.47122,-4.57223 -8.31732,-6.71994 -2.7975,-2.12241 -5.6062,-4.23894 -8.58479,-6.10442 -2.88332,-1.82594 -5.79208,-3.6174 -8.84255,-5.15482 -2.95067,-1.50786 -5.93404,-2.95558 -9.00809,-4.19771 -3.10702,-1.24259 -6.25604,-2.37465 -9.44957,-3.37613 -3.23976,-0.99997 -6.49134,-1.97739 -9.82773,-2.60815 -3.38579,-0.63968 -6.79434,-1.18005 -10.23033,-1.4647 -3.48559,-0.2668 -6.97573,-0.44418 -10.47314,-0.31807 -3.70751,0.11891 -7.41164,0.32278 -11.09928,0.73954 -3.90075,0.42872 -7.7903,0.98093 -11.62834,1.80988 -3.89876,0.83631 -7.76979,1.80406 -11.56446,3.03659 -4.04832,1.28878 -8.08289,2.62481 -12.05772,4.12752 -3.9776,1.50064 -7.93921,3.04633 -11.78452,4.86617 -3.97669,1.85477 -7.89848,3.81998 -11.75057,5.92275 -3.72266,2.03786 -7.44461,4.08014 -11.06238,6.30126 -3.518,2.20754 -6.98504,4.49628 -10.33106,6.95895 -3.22927,2.37148 -6.41733,4.80201 -9.46644,7.4033 -3.05197,2.61355 -6.07134,5.26794 -8.97275,8.04885 -2.72696,2.56928 -5.40509,5.19422 -7.92117,7.9724 -2.13973,2.36768 -4.22363,4.78977 -6.16041,7.32755 -1.66429,2.15536 -3.24667,4.37118 -4.8263,6.58902 -1.25801,1.80075 -2.46217,3.63834 -3.62084,5.5046 -0.93053,1.43133 -1.81081,2.893 -2.67248,4.36674 -0.72328,1.16469 -1.45227,2.3252 -2.12806,3.51857 -0.49268,0.85843 -0.99018,1.71491 -1.57525,2.51506 -1.69511,2.42158 -5.11975,0.0243 -3.42464,-2.39725 z"
       inkscape:connector-curvature="0" />
    <path
       inkscape:connector-curvature="0"
       d="m 557.22925,378.96067 c 0.51407,-0.69731 0.94381,-1.44861 1.37426,-2.19863 0.70034,-1.23485 1.45375,-2.43696 2.20223,-3.64276 0.87386,-1.49982 1.77319,-2.98348 2.71855,-4.43929 1.18284,-1.90606 2.41493,-3.78101 3.69886,-5.62039 1.61663,-2.27304 3.24063,-4.54059 4.94417,-6.74952 2.00213,-2.62371 4.15684,-5.12721 6.36786,-7.57588 2.59063,-2.86186 5.34833,-5.56572 8.15621,-8.21246 2.94947,-2.8265 6.01856,-5.52462 9.12051,-8.18162 3.12784,-2.6695 6.39826,-5.16379 9.71105,-7.59744 3.42768,-2.52337 6.97977,-4.86793 10.58333,-7.13042 3.6876,-2.26632 7.48188,-4.34965 11.27743,-6.42746 3.93066,-2.14605 7.93292,-4.15097 11.9906,-6.04429 3.94094,-1.8644 7.99988,-3.45098 12.07615,-4.989 4.04326,-1.52876 8.14716,-2.88838 12.26516,-4.19962 3.92306,-1.27395 7.92493,-2.27461 11.95525,-3.14049 3.97658,-0.85982 8.0066,-1.4318 12.0481,-1.87787 3.79509,-0.42863 7.60715,-0.63965 11.42268,-0.7625 3.64843,-0.13069 7.28985,0.0503 10.92615,0.32807 3.58934,0.29473 7.14968,0.85856 10.68662,1.52501 3.49129,0.65869 6.89537,1.67538 10.28548,2.72158 3.3015,1.03408 6.55621,2.20555 9.76836,3.48883 3.19353,1.28896 6.29308,2.79126 9.35832,4.35676 3.16505,1.59548 6.18493,3.45141 9.17702,5.3456 3.07863,1.92784 5.98352,4.11246 8.87505,6.30588 2.91126,2.19654 5.73579,4.50383 8.50745,6.87313 2.81621,2.42807 5.58229,4.91257 8.30633,7.44333 2.82398,2.56346 5.49525,5.28403 8.12963,8.03961 2.53715,2.66966 5.02838,5.38349 7.48934,8.12349 2.33868,2.5972 4.52635,5.32008 6.6675,8.0803 1.96288,2.59169 3.86923,5.22576 5.7694,7.86364 1.62265,2.241 3.18154,4.52727 4.74754,6.80795 1.31904,1.955 2.66023,3.89451 3.97222,5.85435 1.08439,1.62372 2.16558,3.24957 3.24713,4.87518 0.87165,1.31326 1.74233,2.62703 2.63308,3.92743 0.76893,1.11796 1.5416,2.23334 2.31385,3.349 0.62034,0.8961 1.24074,1.79216 1.86114,2.68822 0.47437,0.67553 0.93638,1.35954 1.40316,2.04025 1.67034,2.43874 -1.77856,4.80096 -3.4489,2.36222 l 0,0 c -0.46212,-0.67538 -0.92132,-1.35277 -1.39119,-2.02287 -0.62049,-0.8962 -1.24099,-1.79238 -1.86141,-2.68862 -0.77615,-1.1213 -1.55273,-2.24231 -2.32551,-3.36594 -0.90129,-1.31595 -1.78271,-2.64513 -2.66462,-3.97413 -1.07935,-1.62232 -2.15835,-3.24487 -3.24053,-4.8653 -1.30282,-1.9462 -2.63472,-3.87217 -3.94455,-5.81354 -1.54822,-2.2548 -3.08914,-4.5153 -4.69333,-6.73088 -1.87126,-2.59777 -3.74851,-5.19183 -5.68057,-7.74482 -2.07952,-2.68104 -4.20285,-5.32684 -6.4746,-7.84929 -2.43167,-2.70798 -4.89391,-5.38951 -7.40085,-8.02799 -2.57719,-2.69606 -5.18963,-5.35865 -7.95329,-7.86576 -2.68179,-2.49179 -5.40519,-4.93778 -8.17763,-7.32861 -2.70922,-2.31707 -5.47122,-4.57223 -8.31732,-6.71994 -2.7975,-2.12241 -5.6062,-4.23894 -8.58479,-6.10442 -2.88332,-1.82594 -5.79208,-3.6174 -8.84255,-5.15482 -2.95067,-1.50786 -5.93404,-2.95558 -9.00809,-4.19771 -3.10702,-1.24259 -6.25604,-2.37465 -9.44957,-3.37613 -3.23976,-0.99997 -6.49134,-1.97739 -9.82773,-2.60815 -3.38579,-0.63968 -6.79434,-1.18005 -10.23033,-1.4647 -3.48559,-0.2668 -6.97573,-0.44418 -10.47314,-0.31807 -3.70751,0.11891 -7.41164,0.32278 -11.09928,0.73954 -3.90075,0.42872 -7.7903,0.98093 -11.62834,1.80988 -3.89876,0.83631 -7.76979,1.80406 -11.56446,3.03659 -4.04832,1.28878 -8.08289,2.62481 -12.05772,4.12752 -3.9776,1.50064 -7.93921,3.04633 -11.78452,4.86617 -3.97669,1.85477 -7.89848,3.81998 -11.75057,5.92275 -3.72266,2.03786 -7.44461,4.08014 -11.06238,6.30126 -3.518,2.20754 -6.98504,4.49628 -10.33106,6.95895 -3.22927,2.37148 -6.41733,4.80201 -9.46644,7.4033 -3.05197,2.61355 -6.07134,5.26794 -8.97275,8.04885 -2.72696,2.56928 -5.40509,5.19422 -7.92117,7.9724 -2.13973,2.36768 -4.22363,4.78977 -6.16041,7.32755 -1.66429,2.15536 -3.24667,4.37118 -4.8263,6.58902 -1.25801,1.80075 -2.46217,3.63834 -3.62084,5.5046 -0.93053,1.43133 -1.81081,2.893 -2.67248,4.36674 -0.72328,1.16469 -1.45227,2.3252 -2.12806,3.51857 -0.49268,0.85843 -0.99018,1.71491 -1.57525,2.51506 -1.69511,2.42158 -5.11975,0.0243 -3.42464,-2.39725 z"
       id="path6319"
       style="fill:#000000;fill-opacity:1;fill-rule:nonzero;stroke:none" />
    <path
       style="fill:#000000;fill-opacity:1;fill-rule:nonzero;stroke:none"
       id="path6335"
       d="m 471.54119,294.71159 c -2.66559,0 -5.33117,0 -7.99676,0 -1.99375,-0.0728 -3.93477,0.52049 -5.7671,1.25789 -1.98685,0.9423 -3.78537,2.12941 -5.37403,3.65037 -1.77082,1.8124 -3.01722,4.06963 -4.16909,6.30791 -1.67938,3.11289 -2.92717,6.45215 -4.05378,9.80041 -1.03227,3.55153 -1.69049,7.27294 -1.52133,10.9778 0.13715,3.27336 1.4625,6.284 3.0984,9.06919 1.75817,2.9205 4.26152,5.15743 6.81837,7.34767 2.23287,1.76052 4.92291,2.82872 7.61785,3.66794 2.62503,0.75894 5.37227,0.67961 8.05383,1.0584 2.58544,0.51755 5.19599,0.86623 7.82359,1.07103 2.10754,0.21708 4.22798,-0.0287 6.2214,-0.74942 1.64295,-0.69544 3.28243,-1.46575 4.79178,-2.42484 1.77096,-0.93837 3.38222,-2.12526 4.90607,-3.4188 1.2818,-1.07541 2.24049,-2.45423 3.22434,-3.79521 0.82544,-1.20508 1.24148,-2.53446 1.42041,-3.96695 0.49976,-1.68238 1.04294,-3.32083 1.31211,-5.0579 0.20695,-1.64803 0.20406,-3.31104 0.21534,-4.96896 0.005,-1.77011 -0.002,-3.54022 -0.005,-5.31033 0.10577,-1.29527 0.0159,-2.4047 -0.48032,-3.58812 -0.33259,-1.27839 -0.78927,-2.43064 -1.32237,-3.63071 -0.6987,-1.11581 -1.46975,-2.14643 -1.95569,-3.37784 -0.42824,-0.98391 -1.02352,-1.39623 -1.70849,-2.18869 -0.78948,-0.98306 -1.66384,-1.8929 -2.5332,-2.80457 -0.56029,-0.95379 -1.4004,-1.65021 -2.20889,-2.37863 -0.57468,-0.60175 -0.82753,-0.79397 -1.32117,-0.92402 -1.02851,-0.18299 -1.90353,-0.83686 -2.86605,-1.23614 -0.92092,-0.2074 -1.74043,-0.8167 -2.43048,-1.32584 -0.89335,-0.27646 -1.73388,-0.69141 -2.58446,-1.09564 -0.57531,-0.35275 -1.17889,-0.46616 -1.83342,-0.55436 -1.1604,-0.17676 -2.18041,-0.80246 -3.30876,-1.11739 -0.61019,-0.20081 -1.22761,-0.2674 -1.8633,-0.29515 -1.1931,0.0121 -2.39479,-0.11077 -3.5674,0.13345 -2.91582,0.48529 -3.60212,-3.63829 -0.68631,-4.12358 l 0,0 c 1.47891,-0.21536 2.9509,-0.24124 4.4445,-0.18582 0.95604,0.0451 1.89755,0.16702 2.81582,0.45018 1.19057,0.343 2.55906,1.07285 2.74213,0.99797 1.06211,0.15102 2.10509,0.39446 3.05189,0.91946 1.03661,0.49317 1.74611,0.81798 2.87503,1.24808 1.06103,0.68622 0.82271,0.79251 1.9552,1.09099 0.96518,0.40487 1.68259,0.98983 2.42996,1.08183 1.15486,0.35177 2.12136,0.94721 2.94583,1.83108 0.87642,0.79059 1.8386,1.56631 2.43532,2.5988 0.91845,0.96333 1.84088,1.9259 2.67676,2.96305 0.92494,1.08191 1.94873,2.04932 2.44666,3.42868 0.40526,1.16081 1.40095,2.0191 1.86884,3.16702 0.54464,1.22605 1.04373,2.4481 1.37278,3.74904 0.67152,1.67587 0.92686,3.35514 0.78989,5.15912 0.003,1.78224 0.0103,3.56448 0.005,5.34672 -0.0129,1.86501 -0.0168,3.73577 -0.26571,5.58796 -0.26956,1.70199 -0.68727,3.35685 -1.29935,4.97051 -0.30159,2.12053 -0.94668,4.11002 -2.19334,5.88064 -1.17801,1.60334 -2.36071,3.22508 -3.89444,4.51303 -1.69252,1.4271 -3.47207,2.75197 -5.43075,3.79703 -1.80129,1.06945 -3.66741,2.0535 -5.62242,2.81313 -2.55092,0.8318 -5.20702,1.2576 -7.89287,0.95862 -2.72166,-0.21514 -5.42848,-0.56447 -8.10654,-1.10298 -2.89018,-0.45081 -5.88069,-0.28238 -8.70022,-1.20695 -3.22756,-1.02731 -6.4273,-2.32875 -9.0813,-4.48058 -2.91179,-2.49577 -5.72505,-5.08995 -7.71243,-8.42121 -1.95632,-3.39447 -3.51289,-7.04478 -3.66185,-11.0178 -0.12384,-4.21623 0.50354,-8.43204 1.73856,-12.46829 1.20294,-3.54591 2.5221,-7.08352 4.30182,-10.3841 1.38216,-2.65595 2.88069,-5.31509 5.02521,-7.43837 1.99646,-1.83851 4.1973,-3.36619 6.68183,-4.48091 2.32736,-0.9211 4.78898,-1.62764 7.31544,-1.55521 2.66559,0 5.33117,0 7.99676,0 2.95593,0 2.95593,4.18031 0,4.18031 z"
       inkscape:connector-curvature="0" />
    <path
       style="fill:#cccccc;stroke:none"
       d="m 464.26219,346.60123 c -7.86266,-1.31589 -12.6203,-4.39649 -17.28188,-11.19012 -2.6966,-3.92994 -3.15878,-6.07056 -2.68005,-12.41279 1.18971,-15.76121 10.79835,-27.86871 22.1169,-27.86871 9.03046,0 20.08232,5.02926 25.1711,11.45436 3.77524,4.76663 4.62308,7.17015 5.08429,14.41322 0.79298,12.4536 -1.4739,18.10733 -9.23322,23.02814 -6.74668,4.27862 -10.50638,4.69647 -23.17714,2.5759 l 0,0 z"
       id="path6337"
       inkscape:connector-curvature="0" />
    <path
       style="fill:#000000;fill-opacity:1;fill-rule:nonzero;stroke:none"
       id="path6343"
       d="m 469.94682,348.52815 c 0.74655,5.53098 0.59589,11.1388 0.53499,16.70537 0.0279,7.30918 0.54705,14.58798 1.1433,21.8672 0.2924,3.81139 0.4902,7.6293 0.57061,11.45097 -8.5e-4,0.60857 0.0402,1.21988 -0.0245,1.82633 -5.08428,0.92298 -3.57627,0.53997 -6.09591,-2.22851 -1.66634,-2.07435 -3.22759,-4.23842 -4.57675,-6.53275 -1.25687,-2.60158 -2.71042,-5.09671 -3.92349,-7.72086 -0.54045,-1.27182 -1.37188,-2.39533 -2.07807,-3.58499 -0.15644,-0.26546 -0.31277,-0.53108 -0.45773,-0.80302 1.33813,-0.34832 2.63615,-0.93383 4.01441,-1.04497 0.004,-2.7e-4 0.25339,0.93874 0.54619,1.66645 0.59949,1.48998 1.35022,2.92876 1.99527,4.39997 1.38244,3.66108 3.03439,7.19735 4.63964,10.7633 0.88233,1.4732 1.7315,2.96609 2.57881,4.45964 -0.13324,-0.12005 0.40269,0.58248 0.2639,0.46888 -0.37047,-0.30323 -0.70025,-0.65303 -1.05038,-0.97955 1.7164,-0.15175 -0.40778,0.60807 0.31136,-0.15976 1.15907,-2.69805 2.88745,-5.17243 4.32778,-7.74157 1.94423,-3.08407 3.32701,-6.46321 4.95217,-9.71454 0.90807,-1.92538 0.43874,-0.93239 1.4083,-2.97881 1.26561,-2.67128 5.04336,-0.88145 3.77776,1.78983 l 0,0 c -0.981,2.07055 -0.4982,1.0501 -1.44849,3.06129 -1.66053,3.30685 -3.0611,6.75118 -5.0447,9.88886 -1.63399,2.90603 -3.36902,5.75557 -5.0175,8.65147 -0.97611,0.94784 -2.08316,1.55734 -3.48264,1.37796 -1.07987,-0.0671 -2.1743,-0.56474 -2.63353,-1.60136 -0.9112,-1.60623 -1.83808,-3.20342 -2.75478,-4.8065 -1.6108,-3.57891 -3.26756,-7.12935 -4.65705,-10.80252 -0.21969,-0.50252 -2.94879,-6.36362 -2.71726,-6.54563 1.11212,-0.87425 2.47446,-1.37169 3.7117,-2.05752 0.031,0.0549 0.2576,0.45536 0.33167,0.57464 0.77786,1.31101 1.68327,2.56077 2.27863,3.96646 1.15384,2.5036 2.55032,4.87807 3.73746,7.36407 1.20312,2.07554 2.63066,4.01004 4.11547,5.89125 0.76933,0.90288 1.42648,1.86257 2.15436,2.79101 0.13954,0.178 0.59147,0.46119 0.38681,0.55749 -1.16537,0.54832 -2.48542,0.67643 -3.72813,1.01465 -0.05,0.52323 -0.0197,-1.12014 -0.0202,-1.12303 -0.0781,-3.73705 -0.27234,-7.47034 -0.55758,-11.19736 -0.60678,-7.40789 -1.13125,-14.81606 -1.157,-22.25437 0.058,-5.26198 0.19424,-10.5563 -0.44407,-15.7912 -0.61397,-2.89145 3.47517,-3.75973 4.08913,-0.86827 z"
       inkscape:connector-curvature="0" />
    <path
       style="fill:#000000;fill-opacity:1;fill-rule:nonzero;stroke:none"
       id="path6361"
       d="m 246.2951,286.78464 c 1.84254,5.54946 1.66696,11.56028 1.71375,17.33892 -0.17395,12.15215 -0.61766,24.2908 -0.62861,36.44538 -0.11193,9.25002 0.47267,18.48793 0.86633,27.72539 0.12043,1.99196 0.16869,3.95334 -0.009,5.93803 -0.29372,2.94129 -4.45334,2.5259 -4.15961,-0.41539 l 0,0 c 0.20588,-1.78305 0.0436,-3.55218 -0.008,-5.34467 -0.39617,-9.29802 -0.98301,-18.59651 -0.87014,-27.90717 0.0113,-12.14231 0.45006,-24.26877 0.62875,-36.40855 -0.0401,-5.20404 0.12525,-10.59876 -1.33961,-15.64304 -1.22252,-2.69127 2.58351,-4.42017 3.80603,-1.7289 z"
       inkscape:connector-curvature="0" />
    <path
       style="fill:#000000;fill-opacity:1;fill-rule:nonzero;stroke:none"
       id="path6363"
       d="m 244.50738,288.16068 c -1.32776,3.40112 -2.43424,6.88142 -3.65975,10.32284 -0.98085,3.36194 -2.17735,6.65731 -3.44837,9.91921 -0.32809,0.82058 -0.12641,0.40694 -0.62211,1.23247 -1.71891,2.40476 -5.11975,-0.0262 -3.40084,-2.4309 l 0,0 c -0.16719,0.41837 -0.12463,0.31177 0.12803,-0.31965 1.25673,-3.22347 2.43441,-6.48149 3.40526,-9.80358 1.19739,-3.362 2.27673,-6.76642 3.58287,-10.08464 0.82326,-2.83897 4.83816,-1.67472 4.01491,1.16425 z"
       inkscape:connector-curvature="0" />
    <path
       style="fill:#000000;fill-opacity:1;fill-rule:nonzero;stroke:none"
       id="path6365"
       d="m 242.54103,285.05054 c 4.31957,2.04268 7.33976,5.7744 10.09232,9.54908 2.38904,3.10745 4.24414,6.57202 6.45927,9.79118 1.669,2.43964 -1.78118,4.79998 -3.45019,2.36033 l 0,0 c -2.17754,-3.19887 -4.04216,-6.60686 -6.39135,-9.69487 -2.21431,-3.06216 -4.57869,-6.02409 -7.8743,-7.9908 -2.83897,-0.82326 -1.67471,-4.83816 1.16425,-4.01492 z"
       inkscape:connector-curvature="0" />
    <path
       inkscape:connector-curvature="0"
       d="m 319.55309,375.8744 c -4.67334,1.94032 -9.76772,1.871 -14.66209,2.0199 -10.29666,0.0408 -20.58592,-0.18828 -30.8822,0.0156 -7.83735,0.0516 -15.654,0.79932 -23.47313,1.35617 -1.68558,0.15561 -3.34634,0.23853 -5.03022,0.0959 -2.49597,-0.24169 -2.20637,-4.408 0.28959,-4.1663 l 0,0 c 1.5135,0.17434 3.0097,-0.0192 4.52733,-0.10245 7.8704,-0.56043 15.73834,-1.3115 23.62707,-1.36319 10.28588,-0.20329 20.56475,0.0211 30.85099,-0.0148 4.40773,-0.13206 8.98006,-0.0621 13.23113,-1.61585 2.26146,-1.26989 3.78299,2.50499 1.52153,3.77488 z"
       id="path6367"
       style="fill:#000000;fill-opacity:1;fill-rule:nonzero;stroke:none" />
    <path
       inkscape:connector-curvature="0"
       d="m 318.36068,374.11128 c -2.90095,-1.26745 -5.86567,-2.31225 -8.79924,-3.47675 -2.86258,-0.92129 -5.67199,-2.05936 -8.45416,-3.27254 -0.70003,-0.31353 -0.34661,-0.1192 -1.05335,-0.60023 -2.0628,-1.67614 -0.0545,-5.11941 2.00829,-3.44327 l 0,0 c -0.3569,-0.15977 -0.26596,-0.1191 0.2727,0.12236 2.7494,1.19957 5.5269,2.31949 8.35557,3.23148 2.86587,1.13779 5.7659,2.15679 8.59632,3.40409 2.4172,0.77296 1.49109,4.80781 -0.92613,4.03486 z"
       id="path6369"
       style="fill:#000000;fill-opacity:1;fill-rule:nonzero;stroke:none" />
    <path
       inkscape:connector-curvature="0"
       d="m 320.96584,372.09027 c -1.66568,4.35499 -4.78159,7.44066 -7.9379,10.2595 -2.59654,2.44358 -5.50359,4.35962 -8.19737,6.63129 -2.04162,1.71186 -4.09271,-1.69607 -2.05108,-3.40793 l 0,0 c 2.67715,-2.23374 5.53613,-4.15829 8.1168,-6.56169 2.56079,-2.26808 5.03444,-4.68443 6.65109,-8.01429 0.65487,-2.85307 4.07332,-1.75995 3.41846,1.09312 z"
       id="path6371"
       style="fill:#000000;fill-opacity:1;fill-rule:nonzero;stroke:none" />
    <path
       inkscape:connector-curvature="0"
       d="m 316.77706,286.81782 c -2.37468,6.96877 -7.22698,12.89805 -11.66545,18.75903 -9.61986,12.12225 -19.51253,24.02976 -28.96311,36.27601 -7.30097,9.24252 -13.86108,18.99216 -20.62135,28.59897 -1.42046,2.0981 -2.89295,4.11158 -4.62084,5.98008 -2.59262,2.74646 -6.63831,-0.7736 -4.04568,-3.52005 l 0,0 c 1.6009,-1.6442 2.80436,-3.54885 4.1422,-5.39453 6.80466,-9.66975 13.40946,-19.48212 20.75852,-28.7851 9.44142,-12.2336 19.31942,-24.13251 28.93465,-36.23876 3.99927,-5.27667 8.36238,-10.59243 10.74136,-16.77028 0.80615,-3.62483 6.14574,-2.53029 5.33958,1.09455 z"
       id="path6373"
       style="fill:#000000;fill-opacity:1;fill-rule:nonzero;stroke:none" />
    <path
       inkscape:connector-curvature="0"
       d="m 313.83105,286.8723 c -4.03563,2.43912 -7.90036,5.12305 -11.85989,7.67903 -3.64089,2.65827 -7.45655,5.08863 -11.32447,7.42969 -0.98179,0.5827 -0.44877,0.31603 -1.61044,0.77877 -3.67262,1.14294 -5.35621,-3.84353 -1.68361,-4.98642 l 0,0 c -0.50049,0.29716 -0.373,0.22142 0.38267,-0.22681 3.82308,-2.31298 7.58997,-4.71971 11.1894,-7.34526 3.86833,-2.49687 7.64564,-5.12452 11.59418,-7.49618 3.06925,-2.2485 6.3814,1.91868 3.31216,4.16718 z"
       id="path6375"
       style="fill:#000000;fill-opacity:1;fill-rule:nonzero;stroke:none" />
    <path
       inkscape:connector-curvature="0"
       d="m 314.18135,282.27058 c 2.94993,5.27998 3.22362,11.29409 3.18289,17.15198 0.0957,4.91416 -0.64671,9.79027 -0.82042,14.68739 -0.14187,3.70402 -5.59812,3.51142 -5.45625,-0.19263 l 0,0 c 0.19743,-4.84863 0.88587,-9.67481 0.81694,-14.53965 0.0526,-4.73822 -0.13009,-9.48727 -2.06373,-13.92722 -2.34205,-2.94667 1.99853,-6.1265 4.34057,-3.17987 z"
       id="path6377"
       style="fill:#000000;fill-opacity:1;fill-rule:nonzero;stroke:none" />
    <path
       style="fill:#000000;fill-opacity:1;fill-rule:nonzero;stroke:none"
       id="path6391"
       d="m 417.68225,375.33415 c -0.0491,2.39673 0.24738,4.7818 0.41705,7.16964 0.0935,2.22799 0.46809,4.43053 0.76593,6.63725 0.25809,2.236 0.58845,1.06201 -1.87624,1.2603 0.008,-1.45124 0.002,-2.90255 1.7e-4,-4.3538 -0.0531,-2.42283 0.3046,-4.82941 0.93747,-7.1624 0.47291,-1.59479 0.95933,-3.25661 2.20553,-4.41082 1.65896,-1.06032 3.11835,-0.10322 4.31435,1.12343 1.09839,1.61739 1.60553,3.53031 1.94831,5.43224 0.27116,1.76 0.32503,3.5418 0.3526,5.31913 -0.0126,0.70842 0.0317,1.41975 -0.005,2.12787 -0.69647,-0.0845 -1.41694,-0.0535 -2.08939,-0.25352 -0.1215,-0.0361 0.1768,-2.95738 0.20359,-3.16064 0.41769,-2.50649 1.43877,-4.85292 2.42014,-7.17972 0.60689,-1.56057 1.14306,-3.158 2.45593,-4.26229 1.32877,-0.78417 2.36049,-0.60119 3.34336,0.56869 0.81445,1.35352 1.31045,2.88126 1.77732,4.38264 0.58663,2.01327 0.78094,4.10702 0.89731,6.19192 -0.0276,0.75133 0.18867,1.758 0.45858,2.31845 0.2239,0.3142 0.11373,0.16063 0.33038,0.4608 0.86487,1.19848 -0.83004,2.4216 -1.69491,1.22311 l 0,0 c -0.22907,-0.31748 -0.1116,-0.15363 -0.35224,-0.49168 -0.59701,-1.02085 -0.80653,-2.21829 -0.82876,-3.39493 -0.10549,-1.91475 -0.27527,-3.83928 -0.8072,-5.6901 -0.39783,-1.29425 -0.82678,-2.60732 -1.48733,-3.79382 0.17366,-0.19123 -0.1332,-0.25099 -0.32509,-0.14752 -1.08025,0.78851 -1.2709,2.3236 -1.84178,3.4477 -0.91029,2.15381 -1.86485,4.32442 -2.27353,6.64026 -0.0906,0.68527 -0.18902,1.3343 -0.18795,2.02438 2.5e-4,0.16227 5.4e-4,0.32454 9.7e-4,0.48681 3.2e-4,0.11922 0.11736,0.33049 10e-4,0.35765 -0.67837,0.15877 -1.39069,0.0868 -2.08604,0.13027 0.01,-0.53006 0.004,-1.34372 6e-5,-1.95406 -0.0256,-1.66558 -0.0724,-3.33546 -0.32059,-4.98559 -0.26425,-1.51086 -0.66317,-3.00971 -1.40846,-4.36128 -0.33722,-0.37387 -0.88633,-1.10674 -1.45127,-0.96033 -0.88458,0.51075 -1.16326,2.49891 -1.53477,3.36348 -0.59606,2.14881 -0.90904,4.37416 -0.86312,6.60733 0.002,1.4711 0.009,2.94227 -9.5e-4,4.41335 -2.70202,0.99472 -1.94055,1.06113 -2.2845,-1.03775 -0.30371,-2.2504 -0.68334,-4.4967 -0.77947,-6.76875 -0.17296,-2.43704 -0.47315,-4.87146 -0.42229,-7.3177 0,-1.47797 2.09015,-1.47797 2.09015,0 z"
       inkscape:connector-curvature="0" />
    <path
       style="fill:#000000;fill-opacity:1;fill-rule:nonzero;stroke:none"
       id="path6393"
       d="m 445.61929,373.09231 c 0.89166,0 1.78331,0 2.67497,0 0.13835,0 0.27671,0 0.41506,0 -0.0838,0.69672 -0.0577,1.41563 -0.25124,2.09016 -0.0137,0.0478 -2.27416,0.0523 -2.45491,0.0761 -1.80857,0.3878 -2.68255,2.02867 -3.41934,3.56918 -0.6816,1.84945 -1.32225,3.95554 -0.12721,5.70541 1.30659,1.05449 2.54304,-0.47381 3.33236,-1.45131 1.29822,-2.08931 1.71414,-4.50523 1.51248,-6.92502 -0.24164,-1.38236 -0.75147,-2.65176 -1.65292,-3.72753 -0.35971,-0.34994 -0.24536,-0.1856 0.14874,-0.0863 0.39362,-0.35334 0.72225,-0.79648 1.18086,-1.06003 0.0979,-0.0562 0.06,0.21811 0.10159,0.32304 0.0442,0.11137 0.10994,0.21325 0.15508,0.32422 0.31638,0.7777 0.58951,1.57493 0.89922,2.35571 1.36675,3.48124 2.74829,6.95122 3.84939,10.52708 1.28413,4.16038 2.23444,8.11178 1.82708,12.47872 -0.57843,2.69197 -2.40909,4.49062 -5.26619,4.37159 -0.55347,-0.0231 -1.0961,-0.16127 -1.64414,-0.24191 -3.20202,-0.8699 -5.95576,-2.74885 -8.37414,-4.96582 -0.7837,-0.69994 -1.40502,-1.41543 -1.76876,-2.39891 -0.40945,-1.42011 1.59889,-1.99916 2.00834,-0.57905 l 0,0 c -0.19613,0.34393 1.09054,1.22175 1.17519,1.4394 2.10892,1.94587 4.50879,3.61362 7.28724,4.44011 2.38389,0.41545 3.77687,0.36784 4.50219,-2.26848 0.4102,-3.99449 -0.58012,-7.85707 -1.74479,-11.66179 -1.08028,-3.52441 -2.45196,-6.93957 -3.79449,-10.37073 -0.0607,-0.15315 -1.24063,-3.1821 -1.2264,-3.21267 0.26582,-0.57115 0.69061,-1.05382 1.03592,-1.58074 0.53314,0.12238 0.91262,0.41309 1.26101,0.83721 1.15936,1.42287 1.84948,3.08062 2.1243,4.90081 0.20256,2.975 -0.31234,5.90766 -1.99815,8.42758 -1.4645,1.6876 -3.48998,3.50172 -5.83329,2.0211 -0.34079,-0.21534 -0.58794,-0.55169 -0.88191,-0.82753 -0.19441,-0.33993 -0.43526,-0.65723 -0.58321,-1.0198 -0.88991,-2.18086 -0.15804,-4.60218 0.6158,-6.69023 1.08687,-2.19591 2.46239,-4.26909 5.05182,-4.7289 0.13235,-0.0145 2.6799,-0.16501 2.70124,-0.0906 0.1935,0.67453 0.16749,1.39344 0.25124,2.09016 -0.13835,0 -0.27671,0 -0.41506,0 -0.89166,0 -1.78331,0 -2.67497,0 -1.47796,0 -1.47796,-2.09016 0,-2.09016 z"
       inkscape:connector-curvature="0" />
    <path
       style="fill:#000000;fill-opacity:1;fill-rule:nonzero;stroke:none"
       id="path6405"
       d="m 318.10797,261.13512 c 1.22646,3.16655 2.59839,6.27381 3.92477,9.40055 1.35194,3.36852 2.67239,6.76215 3.75202,10.22998 0.23756,0.86951 0.51572,1.73658 0.64533,2.63142 -0.69316,-0.0172 -1.42123,0.16641 -2.07948,-0.0515 -0.0304,-0.01 0.13616,-0.71835 0.20654,-1.2086 0.15768,-1.09824 0.23342,-2.2092 0.36929,-3.31062 0.39367,-3.72981 0.82288,-7.45611 1.13278,-11.19441 0.0868,-2.68263 0.40353,-5.33847 0.7813,-7.99232 0.092,-0.65349 0.18524,-1.3068 0.27418,-1.96071 0.003,-0.0189 0.005,-0.0378 0.008,-0.0568 0.16832,-1.46835 2.24488,-1.23031 2.07656,0.23804 l 0,0 c -0.004,0.0335 -0.008,0.0671 -0.013,0.10045 -0.0895,0.65819 -0.18336,1.31579 -0.27597,1.97355 -0.37204,2.61356 -0.68405,5.22838 -0.76759,7.87055 -0.31264,3.76633 -0.74426,7.52068 -1.14146,11.27843 -0.1413,1.13698 -0.22048,2.28233 -0.38507,3.416 -0.0221,0.15207 -0.13598,0.84431 -0.17494,0.85405 -0.68143,0.17031 -1.38726,0.22118 -2.08088,0.33177 -0.12627,-0.78013 -0.35814,-1.53936 -0.57106,-2.29894 -1.05583,-3.40236 -2.35763,-6.72907 -3.68027,-10.03419 -1.30924,-3.08664 -2.67158,-6.15104 -3.87006,-9.28202 -0.66097,-1.32193 1.20852,-2.25667 1.86949,-0.93474 z"
       inkscape:connector-curvature="0" />
    <path
       style="fill:#000000;fill-opacity:1;fill-rule:nonzero;stroke:none"
       id="path6407"
       d="m 331.70896,278.79108 c -0.59879,1.38382 -0.79951,2.90033 -0.96626,4.38713 10e-4,0.84249 -0.0344,1.60394 0.83197,1.90048 0.57849,0.0623 1.67149,0.5549 2.1576,0.0773 0.80981,-0.8074 0.72111,-2.11864 0.70653,-3.16895 -0.16624,-1.17143 -0.49741,-2.52366 -1.449,-3.31809 -0.4631,-0.23892 -0.93185,0.21809 -1.28456,0.52335 -0.39002,0.3056 -0.80034,0.58342 -1.21591,0.85265 -1.24087,0.80286 -2.3763,-0.952 -1.13542,-1.75487 l 0,0 c 0.34927,-0.22565 0.69421,-0.45835 1.02383,-0.71224 1.22299,-0.97727 2.67722,-1.46656 4.05061,-0.42524 1.29173,1.29586 1.95088,2.99556 2.10051,4.81446 0.0114,1.90694 -0.14917,3.93619 -1.89945,5.07675 -1.31043,0.5247 -2.62917,0.37892 -3.95295,-0.0778 -1.75422,-0.92342 -2.0683,-2.12038 -2.01069,-4.02256 0.19693,-1.72989 0.44912,-3.48757 1.1737,-5.0871 0.66097,-1.32193 2.53046,-0.38718 1.86949,0.93474 z"
       inkscape:connector-curvature="0" />
    <path
       style="fill:#000000;fill-opacity:1;fill-rule:nonzero;stroke:none"
       id="path6409"
       d="m 230.96191,251.7951 c 0,-0.89165 0,-1.78331 0,-2.67496 0.002,-1.06172 -0.13944,-0.42265 2.09015,-0.16331 0.57044,1.90387 1.5758,3.63219 2.48834,5.38765 1.69025,3.19848 3.08198,6.52026 4.37263,9.89367 0.45122,1.164 0.90014,2.32905 1.36938,3.48595 0.25332,0.62286 0.10725,-0.0326 -1.38162,-0.38473 -0.26823,-0.0634 -0.26779,0.45376 -0.12648,-0.51791 0.18876,-2.91473 0.23568,-5.83207 0.43863,-8.74735 0.23359,-3.03654 0.37723,-6.07868 0.46193,-9.12271 -0.0683,-1.21614 0.0651,-2.32586 0.55817,-3.43102 0.0817,-0.18951 0.15922,-0.38089 0.2271,-0.57578 0.47618,-1.39915 2.45488,-0.72574 1.9787,0.67341 l 0,0 c -0.0905,0.25713 -0.19006,0.51093 -0.29991,0.76046 -0.38395,0.84717 -0.42972,1.68292 -0.37471,2.63113 -0.0857,3.07306 -0.23049,6.14424 -0.46618,9.20975 -0.20751,2.97718 -0.23972,5.95784 -0.45989,8.93273 -0.0733,0.43081 -0.13055,1.0104 -0.35317,1.40739 -0.451,0.80424 -1.69581,0.91391 -2.1395,-0.0498 -0.47436,-1.16978 -0.92852,-2.34766 -1.38462,-3.52463 -1.26218,-3.29927 -2.62053,-6.54875 -4.27501,-9.67649 -1.05925,-2.03772 -2.29329,-4.06589 -2.72394,-6.35169 2.22959,-0.25934 2.0884,-0.89841 2.09015,0.16331 0,0.89165 0,1.78331 0,2.67496 0,1.47796 -2.09015,1.47796 -2.09015,0 z"
       inkscape:connector-curvature="0" />
    <path
       style="fill:#000000;fill-opacity:1;fill-rule:nonzero;stroke:none"
       id="path6427"
       d="m 246.98642,263.77598 c -0.042,1.68117 0.38585,3.31816 0.78937,4.93599 0.21611,0.67207 0.48739,1.3262 0.81231,1.9529 0.0375,0.0722 0.17938,0.26627 0.11659,0.2145 -0.126,-0.1039 -0.20885,-0.25112 -0.31328,-0.37668 0.6089,-0.7348 -0.74537,0.0934 -0.69816,-0.13915 0.0716,-0.35253 0.38706,-0.60921 0.53601,-0.93664 0.22909,-0.50358 0.26088,-0.67062 0.42346,-1.2024 0.32736,-0.97266 0.68692,-1.9344 1.07202,-2.88561 0.0338,-0.27986 0.1773,-0.14905 0.0212,0.28459 -0.0197,0.0548 -0.0384,-0.11248 -0.0747,-0.15807 -0.009,-0.0112 -0.0273,0.008 -0.041,0.0127 -0.0845,-0.11098 -0.16898,-0.22196 -0.25347,-0.33294 -0.50348,-0.74678 -0.74631,-1.60489 -0.92015,-2.47721 -0.0441,-0.24043 -0.0838,-0.48251 -0.0852,-0.72739 0.70198,0.065 1.41014,0.0817 2.10593,0.19508 0.0438,0.007 0.14485,0.55445 0.18583,0.71398 0.24022,0.93496 0.54667,1.85402 0.80127,2.78557 0.79723,2.91912 1.50797,5.85859 2.00344,8.8445 0.21515,2.86303 0.20803,4.68452 -2.26085,6.45536 -1.64652,0.87155 -3.39547,0.98838 -5.16372,0.49232 -1.30828,-0.52046 -1.78425,-1.61788 -2.1726,-2.87089 -0.41078,-1.41973 1.59702,-2.00066 2.0078,-0.58093 l 0,0 c 0.14033,0.54898 0.23638,1.15508 0.76727,1.45037 1.13757,0.38431 2.3008,0.26425 3.39483,-0.22529 1.67504,-0.98963 1.47752,-2.62682 1.3652,-4.37947 -0.48185,-2.91598 -1.18075,-5.7852 -1.95784,-8.63587 -0.0592,-0.21731 -1.11382,-3.86874 -1.055,-3.89436 0.63918,-0.27834 1.37882,-0.20735 2.06822,-0.31103 0.0147,0.0945 0.0321,0.18854 0.046,0.28313 0.10988,0.56315 0.24232,1.12313 0.53748,1.6224 0.49351,0.66065 1.04181,1.36995 0.61744,2.23808 -0.36389,0.89813 -0.70327,1.80633 -1.01422,2.72416 -0.33563,1.05694 -0.89496,3.01811 -2.06534,3.49703 -0.32311,0.13222 -0.69686,0.0437 -1.04529,0.0656 -0.22372,-0.17898 -0.46767,-0.33526 -0.67116,-0.53694 -0.58146,-0.5763 -0.74578,-1.96661 -1.11833,-2.65585 -0.44431,-1.78337 -0.89569,-3.58908 -0.85144,-5.44155 0,-1.47796 2.09016,-1.47796 2.09016,0 z"
       inkscape:connector-curvature="0" />
    <path
       style="fill:#000000;fill-opacity:1;fill-rule:nonzero;stroke:none"
       id="path6429"
       d="m 257.16017,263.4633 c -0.50749,1.32329 -0.80945,2.69239 -0.76165,4.10865 0.0857,0.55676 0.60994,0.96465 1.1871,0.84302 0.69141,-0.40477 0.87771,-1.48177 1.03829,-2.20902 0.0469,-0.86726 -0.26569,-1.78139 -1.07095,-2.19422 -0.53106,-0.35836 -0.80116,-0.0765 -0.3433,-0.16637 0.0401,-0.0153 0.0584,-0.0544 0.0876,-0.0817 -0.78978,1.24924 -2.55648,0.13232 -1.7667,-1.11693 l 0,0 c 0.18181,-0.26085 0.0781,-0.13078 0.31617,-0.38604 0.90431,-0.69722 1.88931,-0.56759 2.8419,-0.004 1.48229,1.04015 2.20154,2.58702 1.97219,4.41793 -0.41856,1.76409 -1.13624,3.58035 -3.17652,3.82774 -1.68891,-0.18143 -2.9742,-1.07523 -3.17512,-2.87418 -0.0385,-1.75882 0.30903,-3.47026 0.98155,-5.09993 0.66097,-1.32193 2.53046,-0.38718 1.86949,0.93475 z"
       inkscape:connector-curvature="0" />
    <path
       style="fill:#000000;fill-opacity:1;fill-rule:nonzero;stroke:none"
       id="path6431"
       d="m 328.55452,360.28293 c 0.84515,2.72579 1.90252,5.37784 2.907,8.04718 1.27784,3.43224 2.69207,6.80955 4.33947,10.08067 0.56585,1.16568 1.13147,2.33313 1.63128,3.52912 0.31806,0.80516 0.42176,1.01999 -1.94172,0.38824 -0.0362,-0.01 0.19512,-1.07795 0.20694,-1.13462 0.37847,-2.10029 0.66879,-4.20709 0.84636,-6.33452 0.25675,-3.8535 0.59883,-7.69976 0.82131,-11.55605 0.0888,-1.62323 0.16311,-3.24759 0.19832,-4.87296 0.006,-1.28624 0.8672,-1.17262 1.69218,-1.09622 1.33673,0.63049 0.44508,2.52092 -0.89165,1.89042 l 0,0 c 1.1959,-0.0373 0.37578,0.18179 1.29221,-0.95166 0.0425,-0.0526 -0.002,0.13523 -0.003,0.20284 -0.0359,1.6504 -0.11091,3.29979 -0.2013,4.94801 -0.22369,3.87442 -0.56706,7.73879 -0.82516,11.6104 -0.18657,2.21185 -0.48759,4.40307 -0.88308,6.58656 -0.18177,0.87123 -1.27598,2.85186 -2.24014,1.1248 -0.47988,-1.15079 -1.0266,-2.27265 -1.56943,-3.39456 -1.67955,-3.33797 -3.12578,-6.78222 -4.42875,-10.28434 -1.03258,-2.74406 -2.12213,-5.4702 -2.9785,-8.27637 -0.35846,-1.43384 1.66928,-1.94077 2.02774,-0.50694 z"
       inkscape:connector-curvature="0" />
    <path
       style="fill:#000000;fill-opacity:1;fill-rule:nonzero;stroke:none"
       id="path6437"
       d="m 347.19922,376.81437 c -0.47708,1.57876 -1.23264,3.04052 -2.02161,4.48146 -0.47207,0.90578 -0.91979,1.82456 -1.33434,2.75812 -0.19843,0.59311 -0.74253,0.85138 -1.31169,0.91055 -1.47369,0.1123 -1.6325,-1.97181 -0.15881,-2.08411 l 0,0 c -0.25764,0.13569 -0.71931,0.8997 -0.43961,0.32491 0.4386,-0.9867 0.9114,-1.95817 1.41199,-2.91488 0.70558,-1.28309 1.38417,-2.58192 1.82632,-3.98298 0.35846,-1.43384 2.38621,-0.9269 2.02775,0.50693 z"
       inkscape:connector-curvature="0" />
    <path
       style="fill:#000000;fill-opacity:1;fill-rule:nonzero;stroke:none"
       id="path6439"
       d="m 342.01332,376.67954 c 1.94005,0.71204 3.2589,2.25994 4.57922,3.76566 0.65231,0.85405 1.25411,1.73622 2.07946,2.43433 0.14016,0.10697 0.14112,0.11346 0.0197,-3.7e-4 1.38223,0.52327 0.6422,2.47804 -0.74002,1.95476 l 0,0 c -0.5237,-0.25527 -0.32129,-0.11729 -0.63759,-0.36543 -0.89394,-0.76944 -1.6044,-1.69261 -2.29313,-2.64532 -1.02391,-1.16786 -2.0032,-2.37182 -3.41755,-3.09407 -1.44926,-0.28985 -1.03934,-2.33941 0.40992,-2.04956 z"
       inkscape:connector-curvature="0" />
    <path
       style="fill:#000000;fill-opacity:1;fill-rule:nonzero;stroke:none"
       id="path6443"
       d="m 354.42154,377.21655 c -0.89263,1.10575 -1.10043,2.57782 -1.31149,3.94048 0.0201,0.4617 -0.60134,2.16776 0.28715,2.14064 1.2856,-10e-4 2.07998,-0.96381 2.71444,-1.96301 0.60317,-1.18895 1.03335,-2.46127 0.43533,-3.72028 -0.49913,-0.64817 -1.31486,-0.85466 -2.08083,-1.01906 -0.26616,-0.0426 -0.14538,-0.0272 -0.36181,-0.0503 -1.46811,-0.17034 -1.22722,-2.24656 0.2409,-2.07622 l 0,0 c 0.35554,0.0431 0.16458,0.0159 0.57228,0.0857 1.45719,0.32906 2.80636,0.89935 3.56634,2.27427 0.77125,2.07247 0.41027,3.74232 -0.62925,5.65952 -1.26502,1.85816 -3.00933,3.32559 -5.39422,2.67785 -0.27452,-0.16816 -0.58404,-0.28938 -0.82356,-0.50448 -1.08434,-0.9738 -0.74658,-2.57491 -0.59171,-3.82827 0.2861,-1.80637 0.6402,-3.68551 1.89847,-5.09479 1.04508,-1.04507 2.52304,0.43289 1.47796,1.47797 z"
       inkscape:connector-curvature="0" />
    <path
       style="fill:#000000;fill-opacity:1;fill-rule:nonzero;stroke:none"
       id="path6445"
       d="m 699.73837,299.47871 c -0.54941,1.83776 -1.16068,3.65584 -1.74138,5.48377 -0.54656,1.84073 -1.29006,3.60976 -1.9353,5.41546 -0.0537,0.15604 -0.1081,0.31184 -0.16112,0.46812 -0.0639,0.18838 -0.12807,0.38389 -0.18824,0.57433 -0.0158,0.0501 0.003,0.16768 -0.0464,0.15057 -2.29057,-0.78895 -2.17538,-0.22174 -1.77214,-1.62943 0.60821,-1.67337 1.26239,-3.33005 1.92684,-4.98191 0.46051,-1.05134 0.85649,-2.13051 1.19995,-3.22546 0.0681,-0.32857 0.23995,-0.59227 0.3933,-0.88442 0.21152,-0.60579 0.56062,-1.13227 0.96958,-1.62456 0.15742,-0.18442 0.32576,-0.35919 0.52096,-0.50349 0.47297,0.0667 0.9864,-0.003 1.41891,0.20017 0.20448,0.0958 1.15754,2.89006 1.31601,3.24717 0.78659,1.66645 1.63907,3.25841 2.87575,4.63119 0.52498,0.49572 0.98127,1.05602 1.44438,1.60791 0.94968,1.13246 -0.65186,2.47551 -1.60155,1.34305 l 0,0 c -0.44868,-0.53539 -0.88968,-1.07915 -1.40099,-1.5578 -1.37265,-1.54491 -2.36136,-3.30724 -3.22913,-5.17893 -0.20452,-0.46383 -1.06381,-2.12758 -0.96911,-2.6441 0.008,-0.0429 0.0779,0.0394 0.11688,0.0591 0.4068,0.003 0.81359,0.006 1.22039,0.01 0.16917,-0.13593 -0.10408,0.0935 -0.10971,0.1278 -0.3396,0.40106 -0.57416,0.81133 -0.75164,1.30947 -0.65277,1.04116 0.18246,-0.64643 -0.21991,0.48424 -0.36062,1.14688 -0.77355,2.27812 -1.25523,3.37996 -0.64601,1.60216 -1.27724,3.21072 -1.87305,4.83212 -0.3708,0.96775 -0.0792,0.53347 -2.21764,0.38187 -0.008,-5.5e-4 0.13603,-0.43691 0.25555,-0.78888 0.0557,-0.164 0.11282,-0.32751 0.16924,-0.49126 0.6375,-1.78215 1.37192,-3.5279 1.91145,-5.34482 0.56783,-1.78621 1.16293,-3.56361 1.70562,-5.35768 0.35846,-1.43383 2.38621,-0.92689 2.02775,0.50694 z"
       inkscape:connector-curvature="0" />
    <path
       style="fill:#000000;fill-opacity:1;fill-rule:nonzero;stroke:none"
       id="path6453"
       d="m 699.92299,300.37278 c 0.4921,3.05128 0.38364,6.16949 0.37607,9.24933 -0.13176,11.60728 -0.4342,23.21126 -0.54906,34.81873 -0.12358,16.43498 0.003,32.87131 0.22163,49.30499 0.14812,10.08489 0.18259,20.17088 0.10425,30.25645 -0.0289,3.25666 -0.0781,6.51312 -0.14965,9.76912 -0.0217,0.96047 -0.0455,1.92089 -0.0672,2.88135 -0.007,0.29064 -0.013,0.58127 -0.0189,0.87192 -0.0312,1.47763 -2.12089,1.4335 -2.08969,-0.0439 l 0,0 c 0.006,-0.29197 0.0127,-0.58394 0.019,-0.87591 0.0217,-0.95973 0.0454,-1.91941 0.0672,-2.87914 0.0717,-3.2461 0.12033,-6.49268 0.14925,-9.73946 0.0783,-10.0709 0.0438,-20.14221 -0.10413,-30.21243 -0.21857,-16.44983 -0.34547,-32.90232 -0.22171,-49.35345 0.11494,-11.60232 0.41669,-23.20114 0.54896,-34.80325 0.007,-2.92282 0.10892,-5.87928 -0.32365,-8.77895 -0.32893,-1.4409 1.70881,-1.90606 2.03772,-0.46517 z"
       inkscape:connector-curvature="0" />
    <path
       inkscape:connector-curvature="0"
       d="m 698.33948,436.31704 c 0.69911,-1.78619 1.45824,-3.54766 2.18772,-5.32147 0.69652,-1.78938 1.58338,-3.49106 2.37535,-5.23739 0.0664,-0.15108 0.13345,-0.30186 0.19918,-0.45324 0.0792,-0.18247 0.15929,-0.37202 0.23497,-0.55685 0.0199,-0.0486 0.0108,-0.16735 0.0587,-0.14623 2.21769,0.97518 2.14968,0.4004 1.63171,1.77004 -0.74415,1.61751 -1.53273,3.21459 -2.33116,4.80602 -0.54565,1.00978 -1.02928,2.05261 -1.46188,3.11551 -0.095,0.32183 -0.28798,0.57046 -0.4649,0.84896 -0.26076,0.58629 -0.6521,1.08218 -1.10027,1.53906 -0.17209,0.17081 -0.35427,0.3311 -0.56071,0.45881 -0.46585,-0.10548 -0.98328,-0.0784 -1.39756,-0.31651 -0.19589,-0.11234 -0.91524,-2.97568 -1.04372,-3.34465 -0.64647,-1.72564 -1.36475,-3.38249 -2.48399,-4.85259 -0.48231,-0.53732 -0.89083,-1.13335 -1.30685,-1.72155 -0.85304,-1.20693 0.85381,-2.41332 1.70686,-1.20639 l 0,0 c 0.403,0.57057 0.79765,1.14885 1.26774,1.66804 1.24056,1.65286 2.08055,3.49073 2.791,5.42761 0.16556,0.47912 0.88471,2.20807 0.74773,2.71502 -0.0115,0.0421 -0.0744,-0.0457 -0.11161,-0.0685 -0.40516,-0.0365 -0.81032,-0.0731 -1.2154,-0.11062 -0.17981,0.12152 0.11143,-0.0846 0.11987,-0.11831 0.37152,-0.37169 0.63912,-0.76122 0.85708,-1.24302 0.73642,-0.98378 -0.23515,0.62918 0.2591,-0.46445 0.45398,-1.11323 0.9588,-2.20656 1.52972,-3.26492 0.77594,-1.54343 1.53769,-3.09444 2.26519,-4.66118 0.44936,-0.93387 0.12293,-0.52512 2.24158,-0.19767 0.008,0.001 -0.1716,0.4242 -0.31974,0.76512 -0.069,0.15884 -0.13945,0.31708 -0.20918,0.47562 -0.78231,1.7235 -1.65821,3.40274 -2.34575,5.16897 -0.71322,1.73329 -1.45288,3.45555 -2.14169,5.19875 -0.47549,1.39938 -2.45452,0.72693 -1.97903,-0.67245 z"
       id="path6455"
       style="fill:#000000;fill-opacity:1;fill-rule:nonzero;stroke:none" />
    <path
       inkscape:connector-curvature="0"
       d="m 854.72595,275.59656 c -1.84089,-0.53884 -3.66245,-1.13965 -5.49369,-1.70985 -1.84385,-0.53597 -3.61711,-1.2693 -5.42649,-1.90415 -0.15635,-0.0528 -0.31246,-0.1063 -0.46904,-0.15843 -0.18874,-0.0628 -0.38462,-0.12586 -0.5754,-0.18493 -0.0502,-0.0156 -0.16766,0.004 -0.15084,-0.0456 0.77578,-2.29507 0.20925,-2.17661 1.61922,-1.78147 1.67685,0.59859 3.33725,1.24324 4.9929,1.89818 1.05397,0.45447 2.1354,0.84424 3.2323,1.1814 0.32896,0.0662 0.59365,0.23654 0.88667,0.38822 0.60699,0.20803 1.13547,0.5541 1.6301,0.96023 0.18532,0.15636 0.36106,0.32369 0.50648,0.51806 -0.064,0.47335 0.009,0.98636 -0.19202,1.42003 -0.0946,0.20503 -2.88336,1.17413 -3.23955,1.33465 -1.6619,0.79614 -3.24895,1.65776 -4.61459,2.9023 -0.49269,0.52783 -1.05037,0.98732 -1.59959,1.4536 -1.12698,0.95617 -2.47922,-0.63763 -1.35223,-1.59381 l 0,0 c 0.5328,-0.45174 1.07402,-0.89586 1.54973,-1.40991 1.537,-1.38151 3.29362,-2.38033 5.16029,-3.25884 0.46265,-0.20717 2.12143,-1.07601 2.63849,-0.98428 0.0429,0.008 -0.0389,0.0781 -0.0584,0.11722 -6.3e-4,0.40681 -0.001,0.81361 -0.003,1.22043 0.13691,0.16838 -0.0941,-0.10355 -0.12842,-0.10898 -0.40301,-0.33728 -0.81462,-0.56948 -1.31378,-0.7441 -1.04488,-0.64678 0.64747,0.17874 -0.48548,-0.21712 -1.14894,-0.35403 -2.28253,-0.76046 -3.38712,-1.2358 -1.60585,-0.63679 -3.21801,-1.25877 -4.8428,-1.84526 -0.96987,-0.36523 -0.53392,-0.0761 -0.39461,-2.2154 5.1e-4,-0.008 0.43769,0.13351 0.79033,0.25101 0.16432,0.0548 0.32816,0.11094 0.49223,0.16641 1.78578,0.62726 3.53573,1.35164 5.35572,1.88071 1.78944,0.55756 3.57023,1.14244 5.36738,1.67482 1.43587,0.35021 0.94058,2.38084 -0.49527,2.03063 z"
       id="path6457"
       style="fill:#000000;fill-opacity:1;fill-rule:nonzero;stroke:none" />
    <path
       inkscape:connector-curvature="0"
       d="m 852.05186,275.78631 c -6.84928,0.50962 -13.85672,0.41907 -20.77662,0.4292 -26.08101,-0.0651 -52.15684,-0.30084 -78.23808,-0.34902 -36.92784,-0.0291 -73.85548,0.19186 -110.77597,0.5049 -22.65689,0.20606 -45.31774,0.29847 -67.97908,0.27808 -7.31746,-0.0102 -14.63473,-0.0407 -21.95127,-0.0935 -2.15827,-0.0161 -4.31646,-0.0345 -6.47471,-0.0506 -0.65309,-0.006 -1.30618,-0.01 -1.95927,-0.0139 -3.32036,-0.0227 -3.2482,-2.11261 0.0717,-2.08991 l 0,0 c 0.65606,0.005 1.31216,0.009 1.96824,0.014 2.15661,0.0162 4.31316,0.0344 6.46975,0.0507 7.29429,0.0531 14.58937,0.083 21.88462,0.0933 22.62838,0.0204 45.25625,-0.0719 67.88018,-0.2777 36.95678,-0.31308 73.92072,-0.5345 110.88485,-0.50525 26.06967,0.0483 52.1339,0.28339 78.2033,0.349 6.56712,-0.01 13.21102,0.0751 19.72045,-0.37408 3.23316,-0.33721 4.30459,1.69783 1.07145,2.03501 z"
       id="path6459"
       style="fill:#000000;fill-opacity:1;fill-rule:nonzero;stroke:none" />
    <path
       style="fill:#000000;fill-opacity:1;fill-rule:nonzero;stroke:none"
       id="path6461"
       d="m 541.61226,274.98386 c 1.79017,0.68884 3.55598,1.43783 5.33395,2.15711 1.79335,0.68623 3.50009,1.56329 5.25094,2.34522 0.15146,0.0656 0.30263,0.13172 0.45438,0.19657 0.18293,0.0781 0.37293,0.15715 0.55819,0.23177 0.0487,0.0196 0.16742,0.01 0.14657,0.0579 -0.96242,2.22325 -0.38804,2.15195 -1.76064,1.64186 -1.62176,-0.73485 -3.22334,-1.51424 -4.81933,-2.30352 -1.0129,-0.53983 -2.05849,-1.01747 -3.12386,-1.44396 -0.32237,-0.0931 -0.5721,-0.28469 -0.85161,-0.46001 -0.58779,-0.25739 -1.08592,-0.64588 -1.54536,-1.09141 -0.17179,-0.17111 -0.33313,-0.35236 -0.46202,-0.55806 0.10279,-0.46646 0.0727,-0.98372 0.30847,-1.39936 0.11121,-0.19653 2.97037,-0.93232 3.3386,-1.06292 1.7219,-0.65637 3.37459,-1.38416 4.83823,-2.51182 0.53455,-0.4854 1.12822,-0.89733 1.71402,-1.31672 1.20201,-0.85996 2.41818,0.83992 1.21618,1.6999 l 0,0 c -0.56825,0.40627 -1.14425,0.80423 -1.66073,1.2773 -1.64571,1.25004 -3.47872,2.10056 -5.41149,2.82213 -0.47815,0.16831 -2.20295,0.89738 -2.71068,0.76332 -0.0422,-0.0113 0.0452,-0.0746 0.0679,-0.112 0.0341,-0.40536 0.0685,-0.81073 0.10363,-1.21601 -0.12255,-0.17911 0.0852,0.11094 0.119,0.11918 0.37382,0.36938 0.76488,0.63474 1.24793,0.84993 0.98799,0.73075 -0.63052,-0.23154 0.46593,0.25642 1.11582,0.44758 2.21203,0.94611 3.27365,1.51094 1.54786,0.76706 3.10322,1.51989 4.67412,2.23838 0.93643,0.44398 0.52582,0.1199 0.21055,2.2404 -9.6e-4,0.008 -0.42519,-0.16916 -0.76695,-0.31534 -0.15923,-0.068 -0.31787,-0.13762 -0.47681,-0.20644 -1.72797,-0.7724 -3.41222,-1.63863 -5.18237,-2.31601 -1.73736,-0.70325 -3.46384,-1.433 -5.21096,-2.1118 -1.40209,-0.46744 -0.74103,-2.4503 0.66107,-1.98285 z"
       inkscape:connector-curvature="0" />
    <path
       style="fill:#000000;fill-opacity:1;fill-rule:nonzero;stroke:none"
       id="path6467"
       d="m 698.50208,258.75824 c -1.85092,-0.10851 -3.46173,0.84807 -4.81066,2.013 -1.0934,1.19918 -2.38416,2.78668 -2.02937,4.52088 0.80037,0.88022 1.57944,0.37043 2.42696,-0.19262 2.00546,-1.63525 3.45474,-3.78924 4.68177,-6.03897 1.50393,-2.99313 2.14702,-6.19462 2.22527,-9.51664 -0.12156,-1.18418 -0.21356,-4.84102 -1.10669,-5.72681 0.66059,0.73251 -0.0743,0.077 0.81241,0.40744 0.0253,0.01 -0.65742,2.65162 -0.69434,2.81168 -0.91613,3.41728 -0.73629,6.80148 0.16841,10.18424 0.8373,2.8562 2.49338,5.22884 4.44057,7.42466 0.15937,0.1676 0.31875,0.3352 0.47812,0.50281 1.01747,1.07197 -0.4985,2.5109 -1.51599,1.43893 l 0,0 c -0.17574,-0.18546 -0.35148,-0.37091 -0.52722,-0.55638 -2.15928,-2.44346 -3.97674,-5.10454 -4.89674,-8.27784 -1.00098,-3.85547 -1.17926,-7.29875 -0.18337,-11.18817 0.30687,-1.31921 0.65774,-4.58211 2.6847,-4.43356 0.3557,0.0261 0.63308,0.32871 0.94961,0.49307 1.27895,2.05576 1.3144,4.62815 1.47997,6.97433 -0.10327,3.65451 -0.8114,7.18167 -2.48226,10.46765 -1.41465,2.56466 -3.08084,5.02213 -5.43402,6.82295 -0.37512,0.21345 -0.72569,0.47743 -1.12536,0.64035 -1.95113,0.79531 -3.7094,-0.0681 -4.45502,-1.97158 -0.24688,-2.65509 0.95115,-4.52911 2.75662,-6.38552 1.86013,-1.53517 4.02272,-2.7218 6.52039,-2.47216 1.45542,0.25722 1.09165,2.31548 -0.36376,2.05826 z"
       inkscape:connector-curvature="0" />
    <path
       style="fill:#000000;fill-opacity:1;fill-rule:nonzero;stroke:none"
       id="path6469"
       d="m 712.39383,355.74271 c -0.0645,3.27296 0.30151,6.53268 0.61328,9.78557 0.30908,3.72766 0.79934,7.43753 1.22398,11.15337 0.12987,0.59358 0.08,1.2249 0.20479,1.81939 0.0151,0.072 0.0278,-0.17971 -0.0351,-0.21775 -0.23107,-0.13969 -0.49056,-0.22577 -0.73585,-0.33866 -0.25269,0.1267 -0.47561,0.39077 -0.75809,0.38009 -0.14426,-0.005 0.11438,-0.26554 0.15929,-0.40274 0.057,-0.17425 0.0919,-0.35514 0.1461,-0.53028 0.27118,-0.87553 0.54085,-1.75081 0.80916,-2.62763 0.75842,-2.37823 2.25946,-4.38511 3.80719,-6.3032 0.75794,-0.82534 1.59231,-1.59806 2.5661,-2.162 0.32018,-0.0149 0.66996,-0.17985 0.96054,-0.0446 0.94347,0.43919 1.26502,3.25523 1.48871,4.14012 0.70108,2.3181 1.33389,4.83293 3.27736,6.41651 1.20079,0.86604 2.41091,0.66619 3.73013,0.25907 1.41676,-0.42088 2.01198,1.58272 0.59522,2.00361 l 0,0 c -2.02142,0.58325 -3.92054,0.65317 -5.69015,-0.67962 -0.33927,-0.30362 -0.71304,-0.57263 -1.01783,-0.91086 -1.62244,-1.80043 -2.18163,-4.34654 -2.92136,-6.57732 -0.24799,-0.98448 -0.33159,-1.26172 -0.5223,-2.20211 -0.04,-0.19741 -0.0618,-0.39837 -0.10534,-0.59505 -0.0262,-0.11842 -0.22114,-0.37828 -0.10349,-0.34882 1.8651,0.467 -0.77346,0.67295 1.34368,0.35487 -0.75613,0.41782 -1.37664,1.04906 -1.97521,1.65945 -1.38108,1.70839 -2.74702,3.48532 -3.43466,5.60181 -0.16101,0.52563 -0.90634,3.43741 -1.18898,3.76507 -0.2862,0.33179 -0.64813,0.58984 -0.9722,0.88475 -0.3284,-0.10514 -0.68485,-0.14604 -0.9852,-0.31543 -0.80703,-0.45517 -0.52378,-2.09147 -0.71913,-2.79138 -0.42607,-3.72845 -0.91769,-7.45096 -1.22795,-11.19126 -0.31812,-3.31916 -0.6876,-6.64539 -0.62282,-9.98499 0,-1.47796 2.09015,-1.47796 2.09015,0 z"
       inkscape:connector-curvature="0" />
  </g>
</svg>
