<?xml version="1.0" encoding="UTF-8" standalone="no"?>
<!-- Created with Inkscape (http://www.inkscape.org/) -->

<svg
   xmlns:dc="http://purl.org/dc/elements/1.1/"
   xmlns:cc="http://creativecommons.org/ns#"
   xmlns:rdf="http://www.w3.org/1999/02/22-rdf-syntax-ns#"
   xmlns:svg="http://www.w3.org/2000/svg"
   xmlns="http://www.w3.org/2000/svg"
   xmlns:sodipodi="http://sodipodi.sourceforge.net/DTD/sodipodi-0.dtd"
   xmlns:inkscape="http://www.inkscape.org/namespaces/inkscape"
   width="364.37936"
   height="481.40851"
   id="svg2985"
   version="1.1"
   inkscape:version="0.48.0 r9654"
   sodipodi:docname="HumanLeg.pdf">
  <defs
     id="defs2987" />
  <sodipodi:namedview
     inkscape:document-units="mm"
     pagecolor="#ffffff"
     bordercolor="#666666"
     borderopacity="1.0"
     inkscape:pageopacity="0.0"
     inkscape:pageshadow="2"
     inkscape:zoom="0.7176508"
     inkscape:cx="271.40811"
     inkscape:cy="220.97355"
     inkscape:current-layer="layer1"
     id="namedview2989"
     showgrid="false"
     fit-margin-top="0"
     fit-margin-left="0"
     fit-margin-right="0"
     fit-margin-bottom="0"
     inkscape:window-width="1280"
     inkscape:window-height="752"
     inkscape:window-x="0"
     inkscape:window-y="0"
     inkscape:window-maximized="0" />
  <metadata
     id="metadata2991">
    <rdf:RDF>
      <cc:Work
         rdf:about="">
        <dc:format>image/svg+xml</dc:format>
        <dc:type
           rdf:resource="http://purl.org/dc/dcmitype/StillImage" />
        <dc:title></dc:title>
      </cc:Work>
    </rdf:RDF>
  </metadata>
  <g
     inkscape:label="Layer 1"
     inkscape:groupmode="layer"
     id="layer1"
     transform="translate(-254.77298,-111.61229)">
    <path
       style="fill:#000000;fill-opacity:1;fill-rule:nonzero;stroke:none"
       id="path3766"
       d="m 403.83484,117.18376 c -1.70515,0.61493 -3.10681,1.85382 -4.18054,3.2898 -1.18862,2.09305 -0.12468,3.79465 1.3214,5.38528 2.49366,1.93993 4.64465,1.4185 6.89624,-0.52691 2.34661,-2.95174 3.29982,-5.47657 1.31939,-8.88311 -1.79494,-2.1236 -4.31032,-2.16673 -6.78956,-1.39829 -0.77171,-0.007 -2.37381,1.72773 -1.581,0.6578 -0.69479,2.04254 -3.57367,1.05664 -2.87888,-0.9859 l 0,0 c 0.7569,-1.45756 2.12002,-2.05841 3.62519,-2.60696 3.93582,-1.06543 7.72556,-0.59076 10.31095,2.90198 0.32829,0.66001 0.74924,1.2813 0.98488,1.98002 1.31606,3.90238 -0.48662,7.86147 -3.09401,10.72049 -0.60763,0.46265 -1.16059,1.00827 -1.82289,1.38793 -3.10287,1.77868 -6.67971,1.04728 -9.25828,-1.23564 -2.50774,-2.95362 -3.5473,-5.70547 -1.43939,-9.26435 1.53627,-1.95061 3.44348,-3.62307 5.84872,-4.38321 2.08676,-0.52345 2.82454,2.43763 0.73778,2.96107 z"
       inkscape:connector-curvature="0" />
    <path
       style="fill:#000000;fill-opacity:1;fill-rule:nonzero;stroke:none"
       id="path3776"
       d="m 410.91675,127.95153 c 1.39658,3.09391 3.31207,5.92506 4.94822,8.89798 4.40426,7.3097 8.43046,14.83725 12.73104,22.20811 7.34853,12.49574 14.24985,25.24585 21.12292,38.00869 8.6027,15.99253 17.38035,31.89104 26.2462,47.7381 7.70507,13.51494 14.71778,27.40256 21.72984,41.28604 3.61725,6.77426 6.65145,13.90291 10.62501,20.48293 0.3949,0.7573 1.63558,2.2805 2.04235,2.66127 -0.75711,-0.56257 -2.24122,0.27702 -2.23368,1.16644 -0.176,-2.15099 2.85575,-2.40071 3.03174,-0.24971 l 0,0 c 0.0342,1.10435 -1.40289,2.37517 -2.39004,1.68411 -1.33057,-0.90891 -2.1438,-2.39792 -3.05403,-3.68378 -3.99683,-6.6555 -7.09973,-13.82933 -10.73478,-20.68156 -6.99258,-13.84494 -13.98498,-27.69446 -21.66901,-41.17172 -8.87377,-15.86141 -17.65944,-31.77421 -26.26985,-47.78118 -6.85656,-12.73226 -13.74086,-25.45205 -21.07193,-37.91774 -4.31302,-7.39369 -8.35349,-14.9429 -12.76944,-22.27592 -1.7396,-3.16837 -3.82953,-6.16878 -5.20541,-9.51942 -0.60089,-2.07232 2.31994,-2.92497 2.92083,-0.85265 z"
       inkscape:connector-curvature="0" />
    <path
       inkscape:connector-curvature="0"
       d="m 515.98197,311.81088 c -1.43316,-1.11244 -3.22768,-1.63276 -5.01163,-1.76968 -2.39795,0.11895 -3.25643,1.93365 -3.81629,4.01206 -0.29051,3.15258 1.30365,4.69251 4.14874,5.55236 3.74196,0.39949 6.37634,-0.1507 8.17534,-3.6571 0.82036,-2.66002 -0.49509,-4.81167 -2.47325,-6.49664 -0.40856,-0.65694 -2.7278,-1.08026 -1.40247,-0.98434 -2.09014,0.50969 -2.80852,-2.45618 -0.71839,-2.96587 l 0,0 c 1.63184,-0.14277 2.86936,0.6878 4.13926,1.66669 3.01051,2.7579 4.64806,6.21981 3.1017,10.28444 -0.37833,0.63246 -0.67432,1.32253 -1.13499,1.89741 -2.57277,3.21066 -6.86914,3.81277 -10.67331,3.1428 -0.71538,-0.26556 -1.47113,-0.44027 -2.14615,-0.79668 -3.1624,-1.6698 -4.46975,-5.08951 -3.93659,-8.49824 1.13495,-3.70922 2.88928,-6.06766 7.01329,-6.19642 2.46506,0.25177 4.89567,0.96689 6.82709,2.5937 1.56133,1.4845 -0.53102,3.70001 -2.09235,2.21551 z"
       id="path3778"
       style="fill:#000000;fill-opacity:1;fill-rule:nonzero;stroke:none"
       inkscape:transform-center-x="0.045773721"
       inkscape:transform-center-y="0.54930024" />
    <path
       inkscape:connector-curvature="0"
       d="m 508.5267,323.07124 c -1.79978,2.98784 -3.11342,6.28859 -4.68902,9.42107 -3.67466,8.04102 -7.7251,15.86896 -11.50398,23.85234 -6.37606,13.58551 -13.19392,26.91711 -20.03696,40.23077 -8.57974,16.67418 -16.99112,33.4508 -25.31434,50.27677 -7.02306,14.47777 -14.71284,28.55047 -22.39956,42.62025 -3.64828,7.03922 -7.89115,13.76022 -11.19431,21.00651 -0.41279,0.77849 -1.0097,2.74112 -1.10841,3.31763 0.0642,-0.99054 -1.39821,-1.83579 -2.12155,-1.32703 1.66686,-1.37063 3.45604,1.18324 1.78916,2.55387 l 0,0 c -0.88515,0.65379 -2.67561,0.0937 -2.6266,-1.17379 0.0476,-1.69578 0.84002,-3.25914 1.41562,-4.79407 3.35271,-7.30957 7.59662,-14.11714 11.29934,-21.2162 7.6654,-14.03072 15.33463,-28.06386 22.33789,-42.50164 8.3308,-16.84112 16.74969,-33.63293 25.33719,-50.32212 6.82667,-13.28173 13.62863,-26.58107 19.98925,-40.1341 3.79104,-8.00733 7.85173,-15.86018 11.53934,-23.92475 1.68135,-3.33476 3.0422,-6.88612 5.06273,-10.00048 1.3804,-1.7039 3.60461,0.41105 2.22421,2.11495 z"
       id="path3780"
       style="fill:#000000;fill-opacity:1;fill-rule:nonzero;stroke:none"
       inkscape:transform-center-x="52.038093"
       inkscape:transform-center-y="105.27511" />
    <path
       style="fill:#000000;fill-opacity:1;fill-rule:nonzero;stroke:none"
       id="path3782"
       d="m 406.76655,514.24964 c -1.1509,-0.34718 -2.32356,-0.58696 -3.50181,-0.7934 -0.20372,0.31241 -0.11691,0.26029 -0.71207,0.84133 -0.17387,0.33249 -0.30855,0.63553 -0.35468,0.99998 -0.045,0.72801 -0.0401,1.45826 -0.0369,2.18749 0.002,0.56009 0.007,1.12016 0.009,1.68026 -0.008,0.28067 0.0199,1.75607 -0.0118,0.71731 0.24059,0.45402 0.53647,0.66609 0.91837,0.96242 -0.0592,-0.21263 1.09056,0.83329 1.3012,0.92616 0.6303,0.42796 1.21873,0.8463 1.92599,1.09447 0.55438,0.10587 1.11625,0.11251 1.67726,0.11869 0.76251,0.004 1.52503,-0.002 2.28754,-0.005 -0.67309,-0.0791 1.08561,-0.7074 0.65968,-0.61801 0.20202,-0.40265 0.45164,-0.76918 0.71855,-1.1244 0.31375,-0.51168 0.51354,-1.1626 0.84115,-1.73579 0.12338,-0.19181 1.07688,-1.71297 0.52888,-0.74672 0.0141,-0.41611 0.0145,-0.83451 0.0142,-1.25151 -7.1e-4,-0.44492 -0.004,-0.88984 -0.007,-1.33475 -1.19793,0.0146 0.46007,0.71612 0.22552,0.88891 -0.0895,0.0659 -1.04703,-0.72824 -1.51822,-0.98034 -0.88913,-0.36398 -1.69425,-0.90014 -2.47227,-1.48444 -0.36416,-0.16248 -1.10511,-0.50933 -1.58129,-1.08863 0.0221,0.13554 -0.36861,-0.15169 -0.5149,-0.22463 -0.0112,-0.005 -0.0223,-0.01 -0.0335,-0.0144 0.0805,0.0312 0.16102,0.0625 0.24153,0.0937 -2.08018,-0.24681 -1.75801,-3.43393 0.32217,-3.18711 l 0,0 c 0.61124,0.14197 0.39283,0.0509 0.68157,0.18273 0.60528,0.29732 1.18437,0.65566 1.64366,1.18761 -0.16225,-0.11258 -0.37575,-0.11682 -0.5376,-0.23008 -0.2583,-0.18076 1.52187,0.50148 1.46704,0.64785 0.67738,0.51141 1.37277,0.96136 2.15084,1.27391 1.20919,0.70252 2.51089,1.36947 2.88476,2.90774 0.004,0.45307 0.006,0.90614 0.007,1.35922 4.7e-4,0.69505 0.0217,1.39869 -0.11452,2.08218 -0.24669,0.60495 -0.49881,1.10742 -0.88048,1.62173 -0.39405,0.66783 -0.55068,1.46719 -1.0593,2.06464 -0.37562,0.49212 -0.62754,1.08494 -1.07665,1.52203 -0.78496,0.61134 -1.61315,1.19188 -2.5794,1.39469 -0.77697,0.003 -1.55396,0.01 -2.33094,0.005 -0.86459,-0.0106 -1.73412,-0.0338 -2.57471,-0.28071 -0.81135,-0.29472 -1.56233,-0.695 -2.25783,-1.238 -0.69841,-0.37287 -1.12677,-0.93764 -1.77584,-1.2299 -0.64139,-0.50679 -1.16364,-1.08635 -1.55351,-1.64046 -0.49777,-0.82375 -0.64279,-1.6607 -0.57655,-2.62445 -0.002,-0.55882 -0.007,-1.11763 -0.009,-1.67645 -0.004,-0.90816 -0.0145,-1.8195 0.0762,-2.72366 0.17766,-1.09047 0.60251,-2.03923 1.2962,-2.86339 0.95614,-0.92865 1.78227,-1.7014 3.16371,-1.62201 1.26031,0.22136 2.51481,0.47921 3.74651,0.84789 2.03014,0.54985 1.31237,3.66029 -0.71776,3.11044 z"
       inkscape:connector-curvature="0" />
    <path
       style="fill:#000000;fill-opacity:1;fill-rule:nonzero;stroke:none"
       id="path3824"
       d="m 407.82812,523.54861 c 0.48131,2.08291 0.60207,4.2454 0.70583,6.39553 0.10194,2.88029 0.10152,5.76411 0.10607,8.64654 8.9e-4,2.39631 -0.002,4.79261 -0.004,7.18891 -6.2e-4,1.01885 -8.8e-4,2.0377 -0.002,3.05655 -0.002,1.24467 0.10529,0.32853 -2.24267,-0.86214 0.23707,-0.19738 0.44668,-0.45704 0.71118,-0.59214 0.75215,-0.38424 2.6274,-0.0262 3.43616,0.002 3.21238,0.15718 6.41475,-0.31305 9.61801,-0.55516 4.20149,-0.57431 8.40949,-1.03256 12.63214,-1.2822 5.07975,-0.22481 10.16412,-0.21128 15.24645,-0.22094 5.04805,-0.004 10.0961,0.003 15.14414,0.006 5.01806,0.0656 10.02987,0.0864 15.02201,-0.5982 3.19747,-0.51848 6.39065,-1.07236 9.60751,-1.37506 2.09137,-0.15861 4.18747,-0.16932 6.28202,-0.17427 1.52509,0.002 3.05017,0.008 4.57526,0.0107 0.60944,0.002 1.21887,0.002 1.82831,0.003 0.12478,1.8e-4 0.17644,-1.3e-4 0.33047,-2.3e-4 1.84834,-7.6e-4 1.84927,3.20536 6.2e-4,3.20617 l 0,0 c -0.11144,2e-5 -0.22287,3.9e-4 -0.33431,2.3e-4 -0.61002,-7.6e-4 -1.22004,-0.002 -1.83007,-0.003 -1.52186,-0.003 -3.04372,-0.009 -4.56558,-0.0107 -2.02972,0.005 -4.06091,0.0141 -6.08764,0.16493 -3.18726,0.29814 -6.35013,0.85564 -9.51846,1.36483 -5.08907,0.68841 -10.19643,0.69418 -15.31176,0.61778 -5.04625,-0.003 -10.09252,-0.01 -15.13878,-0.006 -5.0418,0.01 -10.08562,-0.004 -15.12491,0.21724 -4.21108,0.24791 -8.4067,0.71298 -12.59706,1.27984 -3.28082,0.24761 -6.56095,0.72511 -9.85133,0.55998 -0.15891,-0.005 -2.52431,-0.0373 -2.59565,-0.11995 -0.18192,-0.21093 1.66525,0.0131 0.60101,-0.55234 -2.49319,-0.81445 -2.45274,0.213 -2.45132,-1.08125 4.3e-4,-1.01946 8.9e-4,-2.03891 0.002,-3.05837 0.002,-2.39309 0.005,-4.78618 0.004,-7.17927 -0.004,-2.82168 -0.004,-5.64468 -0.10156,-8.46436 -0.0931,-1.95152 -0.1916,-3.91636 -0.6323,-5.80629 -0.44829,-2.19941 2.08762,-2.97702 2.53591,-0.77761 z"
       inkscape:connector-curvature="0" />
    <path
       style="fill:#000000;fill-opacity:1;fill-rule:nonzero;stroke:none"
       id="path3828"
       d="m 470.52832,352.58452 c -1.62617,1.69043 -3.28139,3.32983 -4.89984,5.03565 -1.84921,1.80187 -3.74872,3.47917 -5.56149,5.3581 -1.4299,1.31057 -2.81515,2.70276 -4.24875,4.00006 -1.39552,1.56656 -2.88,3.00513 -4.39904,4.32334 -1.39341,1.54884 -3.05114,2.58626 -4.47203,4.04111 -1.31135,1.16443 -2.39829,2.68248 -3.53069,4.12704 -1.57782,2.23614 -3.37202,4.22103 -5.0064,6.38391 -1.17306,1.34079 -2.17355,2.86119 -3.20726,4.36196 -1.41627,2.22278 -2.93978,4.35621 -4.51752,6.41799 -1.73141,2.19134 -3.47546,4.36397 -5.18048,6.59056 -1.40985,1.83588 -2.74172,3.75087 -3.9679,5.76467 -1.14988,1.62912 -2.02375,3.46568 -2.96497,5.24103 -0.78103,1.7148 -1.72662,3.39487 -2.39845,5.15241 -0.81801,2.20103 -1.74551,4.36302 -2.65893,6.53327 -0.7539,1.63834 -1.35197,3.29796 -1.96624,4.97347 -0.62899,1.59444 -1.16,3.2072 -1.76425,4.80674 -0.50922,1.58747 -1.21622,3.1216 -1.69751,4.71143 -0.31682,1.18091 -0.8827,2.30175 -1.07228,3.48751 -0.58689,1.92099 -1.03729,3.84566 -1.61122,5.76874 -0.60271,2.38542 -1.16168,4.78184 -1.65623,7.16798 -0.32524,1.99778 -0.91411,4.00052 -1.1779,5.99459 -0.42161,2.3489 -0.96427,4.70584 -1.38633,7.05414 -0.33561,2.27814 -0.4133,4.47931 -0.72665,6.75292 -0.32478,2.10568 -0.41985,4.14524 -0.42093,6.15833 0.0159,1.55773 0.0697,3.09968 0.13742,4.63522 0.18841,1.06538 -0.12694,2.53575 0.24944,3.46965 0.0971,0.18941 0.5474,1.46394 0.3842,0.67167 1.22022,-0.41337 2.44048,-0.99306 3.65849,-1.54093 2.53666,-1.32487 4.80196,-3.39866 6.97067,-5.78963 2.82838,-2.92498 5.13064,-6.52334 7.52183,-9.97271 2.83042,-4.32575 5.63528,-8.66764 8.45375,-13.00449 3.12157,-4.66508 6.15116,-9.38716 9.04245,-14.24065 2.93313,-4.95744 5.68751,-10.02714 8.59797,-15.00123 2.01309,-3.6167 3.9812,-7.3752 5.65566,-11.17227 1.47213,-3.51925 3.27944,-6.90345 4.85387,-10.38212 1.45253,-3.02091 2.68818,-6.10837 3.87518,-9.2181 0.83021,-2.4139 2.0414,-4.72724 2.85913,-7.13745 0.89662,-2.47673 1.42554,-5.00057 2.0511,-7.50124 0.42575,-2.50321 1.26306,-4.99718 1.91085,-7.49507 0.16102,-0.69571 0.35231,-1.39729 0.35799,-2.06261 0.21267,-1.16976 0.55668,-2.33371 0.79253,-3.50819 0.16487,-0.76908 0.89622,-1.71762 0.97477,-2.15731 0.0121,-1.09108 0.0968,-2.13585 0.41205,-3.29051 0.25663,-0.83744 0.39331,-1.64282 0.45684,-2.4579 0.074,-1.17977 0.52142,-2.40334 0.7258,-3.60692 0.1358,-0.68186 0.14497,-1.32973 0.14294,-1.97434 -0.10067,-0.99093 0.004,-1.98737 0.29075,-3.0814 0.24186,-0.78841 0.45173,-1.52892 0.47975,-2.29201 0.0283,-0.78701 -0.004,-1.55098 -0.0366,-2.31366 -0.007,-0.1946 -0.0186,-0.38777 -0.03,-0.58061 -0.006,-0.0991 -0.0219,-0.45086 -0.0295,-0.63102 -0.1161,-2.61002 3.01246,-4.01531 3.12855,-1.40514 l 0,0 c 0.007,0.16789 0.0139,0.33649 0.0227,0.50365 0.0146,0.23831 0.0283,0.47725 0.0382,0.71798 0.0381,0.90939 0.0741,1.82155 0.0329,2.76248 -0.0738,1.10889 -0.28328,2.20887 -0.64959,3.34405 -0.0443,0.16704 -0.0364,0.35471 -0.13281,0.50114 -0.0527,0.0803 -0.0258,-0.33425 -0.0366,-0.24385 -0.0607,0.5151 0.11433,0.9807 0.0561,1.49841 0.001,0.92122 -0.033,1.85721 -0.21719,2.82774 -0.20027,1.14605 -0.59889,2.30274 -0.66683,3.14296 -0.0962,1.16679 -0.29992,2.33876 -0.65696,3.53228 -0.33371,0.98123 -0.0455,1.88342 -0.31426,2.90494 -0.0377,0.14374 -1.31577,3.88167 -0.95881,2.08088 -0.15541,0.77082 -0.38812,2.15707 -0.69128,2.60849 -0.028,1.07313 -0.24568,2.16911 -0.53395,3.28419 -0.65785,2.47713 -1.46402,4.94644 -1.89387,7.42886 -0.66778,2.66834 -1.2417,5.3606 -2.20103,8.00354 -0.86991,2.4657 -2.03499,4.84541 -2.9224,7.31108 -1.23176,3.2268 -2.51734,6.43051 -4.02051,9.56634 -1.57546,3.46405 -3.36416,6.84086 -4.83715,10.34495 -1.79766,3.99697 -3.82132,7.96891 -5.96653,11.77768 -2.91877,4.98788 -5.67933,10.07295 -8.62262,15.043 -2.93253,4.92144 -6.0031,9.71238 -9.16853,14.44315 -2.85233,4.3859 -5.68852,8.77906 -8.55369,13.15331 -2.5389,3.66084 -4.99442,7.4637 -7.99589,10.56888 -2.61167,2.84997 -5.35271,5.32278 -8.40043,6.86064 -1.53787,0.69163 -3.09451,1.47745 -4.62611,1.79463 -1.43967,-0.035 -2.19087,-0.88159 -2.60591,-2.46375 -0.27614,-1.32777 -0.29709,-2.77116 -0.35455,-4.21805 -0.0706,-1.60121 -0.12637,-3.20927 -0.14167,-4.83415 0.004,-2.22934 0.11232,-4.48985 0.46786,-6.81945 0.32432,-2.3451 0.37965,-4.61369 0.76171,-6.97274 0.41334,-2.27265 0.925,-4.55134 1.34999,-6.82499 0.29539,-2.12193 0.8752,-4.24493 1.24269,-6.36971 0.53555,-2.54574 1.11891,-5.10008 1.77772,-7.64505 0.52174,-1.72372 0.89751,-3.46025 1.46649,-5.1741 0.27776,-1.39817 0.7729,-2.73049 1.22546,-4.11009 0.53225,-1.72777 1.26743,-3.39943 1.8392,-5.12119 0.62529,-1.55997 1.10062,-3.15942 1.73144,-4.7199 0.65453,-1.75915 1.28084,-3.5116 2.06928,-5.23413 0.89891,-2.12588 1.8025,-4.24598 2.60581,-6.40325 0.79232,-1.96337 1.78626,-3.85704 2.68613,-5.77626 1.00225,-1.8895 1.93991,-3.84058 3.15817,-5.57911 1.3469,-2.17811 2.77706,-4.27815 4.31528,-6.27052 1.70653,-2.22794 3.45251,-4.40256 5.18465,-6.59598 1.52256,-1.97561 2.97487,-4.03835 4.33877,-6.17224 1.08571,-1.57607 2.15067,-3.17758 3.37581,-4.59439 1.66602,-2.16699 3.44699,-4.20194 5.05344,-6.44472 1.2859,-1.63848 2.53734,-3.34746 4.02254,-4.6752 1.54008,-1.45572 3.18519,-2.68118 4.68778,-4.23877 1.50292,-1.28816 2.93404,-2.74875 4.32803,-4.26085 1.35009,-1.19761 2.63928,-2.53643 3.98585,-3.74641 1.80451,-1.86673 3.68466,-3.55591 5.53311,-5.32848 1.613,-1.69279 3.2558,-3.33157 4.87566,-5.01005 1.92783,-2.05412 3.4711,0.62175 1.54328,2.67591 z"
       inkscape:connector-curvature="0" />
    <path
       style="fill:#000000;fill-opacity:1;fill-rule:nonzero;stroke:none"
       id="path3932"
       d="m 470.10874,348.74958 c 0.53686,-0.39837 1.02515,-0.82803 1.454,-1.33996 -0.51599,0.10287 0.71324,-0.98161 0.79863,-1.04424 1.20374,-0.62753 -0.14884,0.0493 -0.39124,0.67355 0.53601,-1.04113 1.29259,-1.56448 0.57411,-1.11074 0.44163,-0.69586 -0.69368,1.45474 0.22698,-0.37299 -0.19921,0.27761 0.44951,-0.56967 0.37348,-0.40304 -0.06,0.13141 -0.21312,0.27781 -0.16845,0.12704 0.006,-0.0109 0.006,-0.0232 0.009,-0.0348 0.25423,-0.31218 0.47014,-0.65994 0.76267,-0.93655 0.0523,-0.0494 1.68215,-0.69034 -0.0211,0.0846 -0.48077,0.54707 0.20061,-0.35042 0.31666,-0.49973 0.2302,-0.32629 0.57964,-0.52898 0.94323,-0.66574 0.0761,-0.0286 0.30267,-0.11281 0.23386,-0.0695 -0.82801,0.52146 -0.26387,0.0153 -0.63628,0.36788 -0.11073,0.12331 -0.11949,0.24906 -0.1535,0.41414 -0.0461,-0.82166 0.46951,-1.37397 1.13505,-1.68718 0.55923,-0.25178 1.83727,-0.28857 -0.58212,0.727 -0.20157,0.0846 0.2399,-0.36552 0.35985,-0.54827 1.12893,-1.2749 -0.56567,0.98308 0.43917,-0.52118 0.31377,-0.37011 0.67798,-0.49522 1.10484,-0.69263 0.0805,-0.0372 -0.26888,0.17697 -0.25025,0.0903 0.0211,-0.0983 0.17515,-0.0989 0.26273,-0.14838 -0.12658,0.0604 0.3685,-0.45422 0.44768,-0.62868 0.28796,-0.47562 0.68444,-0.85783 1.1509,-1.15338 0.67362,-0.43101 -0.41316,0.38896 0.13169,-0.13566 0.15536,-0.15103 0.30778,-0.30505 0.46085,-0.45838 0.25229,-0.28695 0.54092,-0.50417 0.85267,-0.72607 -0.13115,0.048 0.3706,-0.45385 0.45006,-0.5412 0.22504,-0.28277 0.54089,-0.46051 0.86026,-0.61278 0.09,-0.0429 -0.3385,0.20727 -0.26339,0.1417 0.11465,-0.10009 0.23256,-0.19638 0.34885,-0.29457 0.0823,-0.0528 0.16535,-0.10435 0.2469,-0.15827 0.054,-0.0357 -0.20584,0.15346 -0.16436,0.1037 0.27259,-0.32701 0.72374,-0.55281 1.09088,-0.74034 -0.43126,0.1747 1.28936,-0.49032 0.84425,-0.23505 -0.92879,0.53267 -0.5492,0.11327 -0.9443,0.62911 0.2543,-0.45618 0.68545,-0.70176 1.07246,-1.01812 0.81056,-0.43552 0.38554,-0.24615 1.13244,-0.70116 0.32856,-0.24543 0.65782,-0.48042 1.03685,-0.65489 0.23857,-0.0858 0.48548,-0.19961 0.74303,-0.21413 0.10032,-0.006 -0.20065,0.11086 -0.29293,0.0711 -0.004,-0.002 0.3981,-0.19345 0.40867,-0.19852 0.54587,-0.12782 1.01608,-0.38047 1.53225,-0.58886 0.44598,-0.20026 0.92448,-0.27783 1.40804,-0.3105 -1.04745,0.21825 0.52434,-0.32176 0.66599,-0.36424 0.0861,-0.0178 0.3284,-0.10639 0.25825,-0.0534 -0.0806,0.0608 -0.19659,0.0471 -0.29233,0.0792 -0.18787,0.0628 -0.74825,0.57882 0.32119,-0.30073 0.28294,-0.16256 0.56716,-0.24845 0.88788,-0.30376 0.0951,-0.0164 -0.20103,0.1179 -0.28211,0.0655 -0.003,-0.002 0.40999,-0.19379 0.42129,-0.19905 0.39877,-0.21193 0.83631,-0.31514 1.2799,-0.37882 -0.73011,0.22979 0.25203,-0.29551 0.31718,-0.3387 0.497,-0.36133 1.08471,-0.46312 1.66497,-0.59814 0.0491,-0.0114 -0.10015,0.012 -0.15022,0.018 0.11144,-0.13365 1.70454,-0.62745 0.90857,-0.3774 0.37847,-0.24687 0.77125,-0.43679 1.1926,-0.59512 0.092,0.0108 0.45896,-0.20758 0.98806,-0.38947 0.36381,-0.13912 0.74981,-0.18661 1.13597,-0.20871 0.0335,-0.001 0.13275,-0.0121 0.10033,-0.004 -1.09698,0.28082 -0.23145,-0.0863 0.003,-0.24725 0.4016,-0.2861 0.82282,-0.49005 1.28332,-0.65699 1.39991,-0.22217 -0.16851,-0.0527 -0.54176,0.60678 0.0294,-0.058 -0.053,0.11254 -0.0343,0.0875 0.55496,-0.74341 0.64251,-1.04056 1.45343,-1.22085 0.8655,-0.0626 0.36712,-0.21745 -0.27219,0.17974 7.4e-4,-0.003 -0.003,-0.006 -0.004,-0.009 0.32801,-0.21873 0.65601,-0.43746 0.98402,-0.6562 0.0831,-0.0123 0.32509,-0.0733 0.24932,-0.037 -0.4647,0.22269 -0.55106,0.11256 -0.8262,0.3826 -0.0391,0.0557 -0.0573,0.12511 -0.0779,0.18943 -0.18149,0.75738 -0.0348,0.0361 1.50396,-1.08213 0.0525,-0.0381 0.27793,-0.002 0.35179,-6.4e-4 -0.96155,0.44129 -1.19256,0.36237 -1.41619,1.0275 0.11128,-0.56498 0.24692,-0.81399 0.56418,-1.19306 0.18722,-0.2237 -0.18715,0.37186 -0.0836,0.0416 0.008,-0.0313 0.018,-0.0623 0.027,-0.0934 -0.21357,0.88379 1.57218,-1.58184 0.71905,-1.05709 -0.002,0.002 -0.004,0.003 -0.007,0.005 -0.0724,0.12402 -0.14474,0.24805 -0.21711,0.37207 0.61591,-1.99735 3.44058,-1.12632 2.82467,0.87103 l 0,0 c -0.30457,0.62848 -0.14624,0.41355 -0.38124,0.70427 -0.25098,0.27468 -0.8913,1.17486 -0.67888,0.5721 0.7455,-2.11552 0.72236,-1.52712 0.65928,-1.00171 -0.0347,0.20207 -0.0879,0.40035 -0.15275,0.59482 -0.12906,0.36242 -0.84468,1.75401 -0.31962,0.28353 -0.0427,1.03879 -0.42937,1.35286 -1.57517,1.8293 -1.13228,-0.0106 1.35123,-1.80418 1.02489,-1.06564 -0.0618,0.19746 -0.14486,0.38654 -0.25453,0.56264 -0.14022,0.21722 -0.31828,0.51028 -0.54476,0.6413 -0.25598,0.1481 -0.5443,0.23162 -0.81327,0.35454 -0.0238,0.0109 0.0509,-0.0119 0.0764,-0.0178 0.28263,-0.20846 0.56525,-0.41692 0.84788,-0.62538 -0.15074,0.22863 -0.3258,0.4405 -0.5273,0.62662 -0.13246,0.10366 -1.34464,0.87129 -1.08938,0.49743 0.53649,-0.21525 1.07681,-1.62679 0.72243,-0.63618 -0.29573,0.62486 -0.80997,1.04631 -1.45451,1.12928 0.57315,-0.26648 -0.27095,0.1518 -0.37408,0.24968 -0.56288,0.3573 -0.837,0.62238 -1.58959,0.74727 -0.23863,0.0114 -0.092,-0.0233 -0.3403,0.0543 -0.38874,0.13157 -0.76301,0.32945 -1.13685,0.43596 0.54861,-0.27127 -0.3954,0.21664 -0.45274,0.27043 -0.42798,0.20535 -0.8429,0.35775 -1.26887,0.56581 -0.36783,0.12856 -0.75437,0.18832 -1.09727,0.35569 -0.53092,0.31869 -0.7776,0.57549 -1.51434,0.78352 -0.23749,0.0303 -0.17151,-0.002 -0.43901,0.13076 -0.1889,0.0879 -1.27258,0.57283 -0.7283,0.27678 0.0915,-0.0895 0.17164,-0.19237 0.27449,-0.26858 0.0615,-0.0456 -0.0959,0.11962 -0.14856,0.17527 -0.32376,0.3424 -0.73603,0.63418 -1.21347,0.70936 -0.3038,0.0867 -0.83479,0.46704 -1.24425,0.45513 -0.20874,0.004 -0.26678,0.0116 -0.47517,0.10277 -0.44844,0.1782 -0.87283,0.44151 -1.35598,0.51139 -0.33799,0.16174 -0.77895,0.35406 -0.95532,0.38567 0.11543,-0.18334 -0.50688,0.41949 -0.68212,0.47095 -0.14784,0.0895 -1.04513,0.70679 -0.79819,0.46491 -0.20895,0.17036 -0.90169,0.78492 -0.30703,0.0685 -0.31735,0.47979 -0.73944,0.91279 -1.35056,0.97413 0.28542,-0.23257 -0.52028,0.36187 -0.59327,0.45824 0.20681,-0.24652 -0.0469,0.0607 -0.1677,0.15757 -0.86003,0.6891 -0.43256,0.26699 -0.2527,0.11211 0.0386,-0.0333 -0.0685,0.0754 -0.10279,0.11315 -0.3573,0.39282 -0.69845,0.80716 -1.14499,1.10416 0.38008,-0.35732 -0.15404,0.1572 -0.25253,0.26259 -0.16712,0.16739 -0.33354,0.33552 -0.5034,0.50015 -0.11244,0.1081 -0.9642,0.79669 -0.63836,0.5269 -0.0216,0.0127 -0.0759,0.0287 -0.0752,0.004 -0.40048,0.73544 -0.95283,1.36548 -1.64155,1.847 -0.61537,0.31202 -0.78083,0.49335 -0.31533,0.10498 0.46913,-0.88902 -0.2571,0.58133 -0.47391,0.56025 0.85416,-1.55339 -1.58922,0.96149 -0.8423,0.5705 0.67313,-0.37966 0.73127,-1.88985 0.68828,-0.86668 -0.0637,0.43965 -0.16296,0.82291 -0.43657,1.18641 -0.32417,0.36781 -1.52552,1.22934 -0.50957,0.32897 0.0236,-0.0209 -0.0391,0.0494 -0.0587,0.0742 -0.22712,0.29157 -0.4064,0.57345 -0.65025,0.86177 -0.26555,0.14387 -0.53316,0.28402 -0.79666,0.43162 -0.0899,0.0503 0.21443,-0.0481 0.28244,-0.12548 0.23392,-0.26615 0.40684,-0.58073 0.62639,-0.85885 0.0489,-0.0619 -0.1293,0.32566 -0.0675,0.22681 -0.0762,0.21462 -0.1538,0.44647 -0.28001,0.63747 -0.10204,0.15442 -0.40309,0.61268 -0.3408,0.43839 0.007,-0.0191 0.0208,-0.0347 0.0312,-0.0521 0.41334,-1.04982 -0.11688,0.40855 -0.39162,0.5838 -0.0528,0.0594 -0.099,0.12553 -0.15837,0.17836 -1.40654,1.25029 0.62755,-1.82101 0.25662,-0.51414 -0.0271,0.14309 -0.0792,0.46861 -0.15622,0.55962 -0.81425,0.96193 -1.22266,1.03909 -0.72734,0.74797 0.18688,-0.16905 0.16315,-0.33471 0.32074,-0.53624 0.30318,-0.38774 -0.63314,1.44275 -0.50316,1.02966 -0.48182,0.5678 -1.00227,1.10459 -1.62252,1.52333 -1.47797,1.47796 -3.56812,-0.61219 -2.09016,-2.09015 z"
       inkscape:connector-curvature="0" />
    <path
       style="fill:#000000;fill-opacity:1;fill-rule:nonzero;stroke:none"
       id="path3936"
       d="m 399.93182,493.43522 c -0.15508,0.6021 -0.27067,1.21417 -0.34508,1.83132 -0.0411,0.33776 -0.0456,0.67851 -0.0478,1.01832 -2.3e-4,0.46495 10e-4,0.92989 0.002,1.39483 5.1e-4,0.3229 8.5e-4,0.64579 0.001,0.96868 0.0384,0.5132 -0.1085,1.00555 -0.36872,1.44774 -0.16834,0.27245 -0.0575,0.0329 -0.14495,0.36345 0.0304,-0.2074 0.0177,0.13932 0.0175,0.27491 10e-4,0.34293 0.002,0.68587 0.003,1.02881 0.0297,0.58097 -0.29494,1.05859 -0.58836,1.51852 0.20791,-0.46991 0.10394,0.0661 0.0955,0.24486 0.0398,0.57101 -0.2177,1.06816 -0.5709,1.49554 0.0835,-0.0395 0.10196,-0.18006 0.10047,0.008 -0.0836,0.49805 -0.32792,0.9025 -0.60949,1.30531 -0.0301,0.043 0.0655,-0.082 0.0983,-0.12304 -0.0207,0.1494 -0.14157,0.53016 -0.30557,0.85748 -0.14699,0.40439 -0.27568,0.81209 -0.48149,1.19921 -0.0956,0.19058 -0.46916,0.71025 -0.20439,0.3467 0.0526,0.48396 -0.1896,1.02304 -0.4428,1.45552 0.0126,0.0107 -0.1199,0.43001 -0.0432,0.17259 -0.008,0.19204 -0.007,0.38438 -0.006,0.57656 0.0367,0.45172 -0.052,0.82688 -0.15563,1.27797 -0.16908,0.26457 -0.26497,0.48373 -0.29413,0.78157 -0.006,0.53442 -0.0985,0.98766 -0.24195,1.51084 -0.15499,0.24694 -0.24842,0.48091 -0.25673,0.56916 -0.0332,0.26154 -0.0347,0.52559 -0.0371,0.78881 0.0369,0.55836 -0.0467,1.09037 -0.23573,1.61802 -0.11245,0.2987 -0.20451,0.59719 -0.22986,0.9155 -0.0303,0.41527 -0.0268,0.83223 -0.0272,1.24836 0.0344,0.65756 -0.012,1.28652 -0.20593,1.91924 -0.12909,0.42469 -0.21919,0.86059 -0.25882,1.30278 -0.0278,0.31289 -0.0276,0.6272 -0.0279,0.94104 8.9e-4,0.40065 0.002,0.80129 0.003,1.20194 6.4e-4,0.40587 6.8e-4,0.81173 7.3e-4,1.2176 2e-5,0.39301 1e-5,0.78602 0,1.17903 -10e-6,0.38087 -10e-6,0.76174 -10e-6,1.14261 0,0.41136 0,0.82271 0,1.23407 0,0.47515 0,0.9503 0,1.42545 0,0.42151 0,0.84301 0,1.26452 0,0.29304 0,0.58607 0,0.87911 0.0786,0.2046 -0.14775,0.61772 -0.0259,-0.0183 0.01,-0.0522 0.04,0.0985 0.0604,0.14754 0.12815,0.30841 0.0401,0.0755 0.19177,0.52513 0.17173,0.51727 0.2088,1.11655 0.27597,1.61752 0.22522,0.63477 0.34618,1.29298 0.4217,1.96028 0.0462,0.44353 0.0616,0.88897 0.065,1.33458 1.2e-4,0.39506 -0.002,0.79011 -0.002,1.18517 0.003,0.16307 -0.008,1.12785 0.004,0.48645 0.28399,0.59343 0.38126,1.23871 0.44838,1.88614 -0.2015,-0.51236 0.2196,1.42582 0.0379,0.75218 -0.20412,-0.75687 -0.0365,-0.35698 0.053,-0.19128 0.28633,0.48019 0.36848,1.03244 0.41967,1.57862 -0.0657,-0.54814 0.32423,0.69646 0.35463,0.78893 0.12034,0.32308 0.14979,0.66717 0.16141,1.00875 1.84863,0.9602 -0.8965,-1.38672 -0.58225,-1.11095 0.48087,0.422 0.66958,0.66948 0.91291,1.24863 -0.18307,-0.58398 0.39449,0.62288 0.44914,0.75092 0.0372,0.12725 0.0798,0.25305 0.11167,0.38175 0.0355,0.14333 0.12459,0.57422 0.0684,0.43766 -0.0715,-0.17372 -0.0928,-0.36575 -0.16767,-0.53803 -0.0273,-0.0629 -0.58004,-0.70432 0.12942,0.13343 0.20141,0.24938 0.27688,0.52783 0.4032,0.81866 0.0209,0.048 -0.0605,-0.18529 -0.0169,-0.15623 0.29296,0.3694 0.47269,0.79926 0.59714,1.24902 0.18315,0.90314 -0.0984,-0.20101 -0.1248,-0.26592 0.34283,0.35385 0.50783,0.6557 0.6116,1.10581 0.0118,0.0512 0.0564,0.20023 0.0302,0.15469 -0.13718,-0.23841 -0.28666,-0.47609 -0.36659,-0.73928 -0.0321,-0.10575 0.1453,0.16655 0.21794,0.24983 0.18405,0.0938 0.6704,1.30484 0.42458,0.64445 0.16291,0.13537 0.31708,0.28081 0.47217,0.42501 0.30748,0.40651 0.34313,0.4265 0.52778,0.57764 0.97575,1.07311 -0.005,0.12696 0.49079,0.49718 0.11974,0.10338 0.88732,0.7583 0.31117,0.29349 0.36431,0.0897 0.68169,0.35854 0.97486,0.56226 0.34462,0.29003 0.65629,0.46822 1.04947,0.73404 0.31828,0.20601 0.57328,0.32404 0.94728,0.58848 0.32375,0.0708 0.77712,0.27881 1.12938,0.46219 0.38508,0.0857 0.76387,0.19016 1.1398,0.31861 0.58266,0.1266 1.09203,0.45989 1.65416,0.63991 0.34125,0.11256 0.70447,0.12429 1.06068,0.13648 0.5391,0.0105 1.07835,0.007 1.61752,0.005 0.60043,-0.002 1.20086,-0.003 1.80129,-0.003 0.53999,-0.008 1.07306,0.053 1.59254,-0.0941 0.64308,-0.11714 1.25208,-0.30562 1.86951,-0.51307 0.5207,-0.21444 1.10899,-0.18552 1.61732,-0.40331 0.5893,-0.21139 1.17033,-0.44033 1.74839,-0.68394 0.73241,-0.23152 1.4013,-0.60495 2.10859,-0.897 0.29663,-0.13424 0.61397,-0.20604 0.93003,-0.27615 0.0663,-0.0147 -0.17923,0.10869 -0.19907,0.0437 -0.0392,-0.12847 0.23819,-0.12426 0.35717,-0.18661 0.47348,-0.21494 0.95598,-0.50923 1.55388,-0.70989 0.23894,-0.12548 0.47613,-0.25398 0.70399,-0.39883 0.35032,-0.25726 0.76302,-0.30564 1.17429,-0.31889 0.68064,-0.0391 -0.31125,0.13361 0.11026,-0.0538 0.11062,-0.0492 0.22342,-0.0933 0.33514,-0.13999 0.39785,-0.15188 0.80615,-0.24851 1.23004,-0.28416 -0.079,0.009 -0.25069,0.10411 -0.23691,0.0259 0.0148,-0.0838 1.53291,-0.39712 1.69723,-0.42389 -0.0205,-0.004 -0.0786,9.2e-4 -0.0616,-0.0111 0.32173,-0.22643 0.77464,-0.31276 1.13037,-0.48911 0.49406,-0.27127 1.03381,-0.43941 1.58485,-0.54361 -0.55354,0.10227 1.16055,-0.18762 0.55079,-0.0479 -0.87492,0.20052 -0.12664,-0.0459 0.0499,-0.11788 0.32656,-0.14774 0.68491,-0.17659 1.02664,-0.26431 0.11718,-0.0301 0.20099,-0.13676 0.311,-0.18712 0.46722,-0.2295 0.96108,-0.34768 1.47656,-0.39702 -0.71862,0.11014 0.96014,-0.38311 0.96407,-0.38408 0.63582,0.007 0.82802,-0.32368 0.22582,0.0111 0.45118,-0.43403 0.94576,-0.48907 1.51794,-0.60845 0.0521,-0.0109 -0.10612,0.007 -0.15918,0.0111 0.38001,-0.1335 0.76101,-0.26419 1.1423,-0.39399 0.40383,-0.10369 1.37034,-0.3498 -0.0718,0.0784 -0.15415,0.13403 -0.0976,0.0637 -0.0618,0.0108 -0.4256,0.68594 0.79873,-0.70445 1.38156,-0.7165 0.1225,-10e-4 0.245,2.5e-4 0.36748,0.002 0.0219,7.9e-4 0.0439,5.2e-4 0.0659,7.8e-4 0.14437,7e-5 0.28874,4e-5 0.43311,2e-5 0.14559,-1e-5 0.29118,-1e-5 0.43677,-2e-5 0.0656,0 0.13124,0 0.19686,0 0.75203,0.014 0.63326,-0.2206 -1.05908,0.88046 -0.21855,0.65504 0.10903,-0.34716 0.43587,-0.81717 0.11936,-0.17163 0.44309,-0.3011 0.6396,-0.39104 0.29896,-0.1228 0.6092,-0.16303 0.93032,-0.16806 0.7051,-0.004 0.0264,-0.01 -0.30266,0.13096 0.004,-0.0187 -0.0285,0.0259 -0.0405,0.0408 0.31744,-0.20284 0.63488,-0.40568 0.95232,-0.60852 0.23864,-0.0471 0.48182,-0.0574 0.72433,-0.0559 0.0712,-0.005 0.41404,0.033 0.10737,0.003 0.12329,3.3e-4 0.24658,4e-4 0.36987,4.6e-4 0.15347,10e-6 0.30694,0 0.46041,-10e-6 0.0114,0 0.0227,0 0.034,0 2.09016,-1.7e-4 2.09039,2.95576 2.4e-4,2.95592 l 0,0 c -0.0114,0 -0.0227,0 -0.0341,0 -0.15389,10e-6 -0.30778,2e-5 -0.46167,2e-5 -0.12725,-6e-5 -0.2545,-1.4e-4 -0.38175,-4.9e-4 -0.50931,-0.0273 -0.21801,-0.0105 -0.1217,-0.003 -0.0426,3e-5 -0.21445,0.009 -0.0442,-0.017 1.57221,-1.11385 0.66682,-0.45961 0.34997,-0.0633 -0.4511,0.36323 -0.97655,0.62087 -1.57468,0.57276 -0.17371,0.001 0.10811,-0.0105 0.1488,-0.0507 0.67236,-0.37482 0.87935,-1.96891 0.56073,-0.45161 -1.25089,0.89237 -0.89671,1.00986 -1.6936,0.99832 -0.0656,0 -0.13116,0 -0.19674,0 -0.14555,10e-6 -0.2911,2e-5 -0.43666,3e-5 -0.14549,1e-5 -0.29097,5e-5 -0.43646,-3e-5 -0.5407,-0.0116 -0.0414,-8.5e-4 -0.11975,-10e-4 -0.0893,-0.001 -0.17854,-0.003 -0.26783,-0.002 -0.0108,-1.2e-4 -0.0216,-2.3e-4 -0.0324,-3.5e-4 0.40324,-0.2833 0.80648,-0.56659 1.20972,-0.84989 0.0797,-0.0525 -0.2212,0.30058 -0.14092,0.24906 -0.19279,0.28559 -0.41408,0.55086 -0.68886,0.7624 -3.01681,1.13457 0.0868,-0.0119 -0.68562,0.30875 -0.36609,0.12461 -0.73188,0.25011 -1.09681,0.37809 -0.79149,0.21628 -0.62627,0.22394 -0.25865,-0.1028 -0.45091,0.43026 -0.98977,0.75778 -1.63331,0.78088 -0.4851,0.10832 -0.91107,0.39864 -1.41503,0.45617 -0.16647,0.004 -0.2568,0.0304 -0.50428,0.14686 -0.46745,0.20238 -0.92512,0.41639 -1.43399,0.49271 -0.40007,0.16293 -0.81083,0.34328 -1.24922,0.34723 -0.23809,0.0424 -0.52597,0.14564 -0.74967,0.27843 -0.61422,0.29931 -1.25129,0.55717 -1.90204,0.76506 -0.58338,0.092 -1.13921,0.26106 -1.70541,0.42697 -0.0118,5.8e-4 -0.22396,0.0205 -0.38181,0.0914 -0.44988,0.20586 -0.92096,0.43135 -1.43554,0.39395 -0.25191,0.002 0.78196,-0.38575 0.32162,-0.13638 -0.43407,0.27292 -0.88449,0.52299 -1.3634,0.7089 -0.39232,0.12105 -0.72993,0.35004 -1.10035,0.5185 -0.42966,0.22515 -0.87206,0.40626 -1.33723,0.53515 -0.70675,0.28816 -1.37348,0.66725 -2.10527,0.89564 -0.59481,0.24154 -1.19,0.48223 -1.79282,0.70182 -0.57441,0.21808 -1.16474,0.3085 -1.75779,0.4545 -0.68336,0.22957 -1.36774,0.43588 -2.07569,0.57409 -0.76964,0.18843 -1.53624,0.21687 -2.32572,0.18701 -0.59764,4e-4 -1.19529,9.6e-4 -1.79294,0.003 -0.57974,0.002 -1.15961,0.006 -1.73926,-0.007 -0.65762,-0.0264 -1.31865,-0.0835 -1.94353,-0.3066 -0.54875,-0.20405 -1.04692,-0.48721 -1.61578,-0.6265 -0.49834,-0.17032 -1.05311,-0.25167 -1.5577,-0.49841 -0.41953,-0.22315 -0.8761,-0.32053 -1.29386,-0.55535 -0.4125,-0.26911 -0.62904,-0.40964 -1.11225,-0.69673 -0.27946,-0.20066 -0.60458,-0.3863 -1.04048,-0.72772 -0.20567,-0.14444 -1.2619,-0.6249 -0.5285,-0.40766 1.32622,0.39284 0.49878,0.33911 0.23326,0.19953 -0.39868,-0.16077 -0.76232,-0.38028 -1.05709,-0.69538 -0.15161,-0.11343 -1.4231,-1.30629 -0.63392,-0.6103 -0.18793,-0.15992 -1.14464,-1.32239 -0.55143,-0.59424 0.0247,0.0303 -0.0571,-0.0534 -0.0857,-0.0802 -0.22852,-0.21257 -0.46772,-0.41379 -0.68197,-0.64107 -0.56278,-0.68041 -0.21886,-0.3847 -0.50196,-0.73644 0.72268,0.56738 -1.3437,-1.88521 -0.0505,-0.32821 -0.55049,-0.45395 -0.62735,-0.7138 -0.90729,-1.41401 -0.0189,-0.0472 0.0234,0.0988 0.0351,0.14824 -0.0225,-0.0802 -0.10711,-0.26712 0.0547,-0.0454 -0.12249,-0.14074 -0.26806,-0.29767 -0.3617,-0.45778 -0.0914,-0.15629 -0.165,-0.3224 -0.2433,-0.48565 -0.0219,-0.0457 0.0485,0.0889 0.074,0.13274 0.0126,0.0217 -0.0352,-0.0611 -0.0315,-0.0684 0.32055,0.29353 -0.13636,-0.11875 -0.21385,-0.25406 -0.13446,-0.2348 -0.43014,-0.98432 -0.27198,-0.7648 -0.14889,-0.35951 -0.35265,-0.58691 -0.53737,-0.98738 0.0902,0.1578 0.53016,0.49695 0.39097,0.38006 -0.74652,-0.62694 -0.27787,1.6e-4 -0.86507,-1.339 -0.008,-0.31031 0.0573,0.13127 -0.0158,-0.18087 -0.15839,-0.4849 -0.38839,-0.93953 -0.48957,-1.44222 -0.0241,-0.28017 0.0111,-0.30045 -0.0813,-0.45002 -0.27532,-0.51654 -0.44588,-1.06717 -0.42606,-1.65686 -0.0325,-0.32493 -0.0493,-0.65041 -0.19259,-0.94971 -0.23762,-0.5608 -0.31414,-1.1262 -0.27477,-1.72923 8.2e-4,-0.38587 0.002,-0.77175 0.003,-1.15762 -0.002,-0.346 -0.0125,-0.69183 -0.0477,-1.03632 -0.055,-0.54005 -0.17433,-1.05947 -0.35326,-1.57292 -0.0939,-0.47503 -0.11723,-0.95086 -0.22062,-1.42203 -0.13671,-0.51274 -0.44647,-0.9997 -0.36732,-1.55684 0,-0.29304 0,-0.58607 0,-0.87911 0,-0.42151 0,-0.84301 0,-1.26452 0,-0.47515 0,-0.9503 0,-1.42545 0,-0.41136 0,-0.82272 1e-5,-1.23408 0,-0.38089 0,-0.76178 10e-6,-1.14266 0,-0.39288 2e-5,-0.78576 -10e-6,-1.17864 -4e-5,-0.4041 -9e-5,-0.8082 -7.2e-4,-1.2123 -7.7e-4,-0.40376 -0.002,-0.80751 -0.003,-1.21126 5.9e-4,-0.41155 0.004,-0.82362 0.0428,-1.23369 0.0685,-0.64225 0.1861,-1.27831 0.38074,-1.8953 0.0186,-0.0558 0.006,-0.13556 0.0558,-0.16738 0.0344,-0.0221 0.0108,0.16227 0.0152,0.12164 0.0355,-0.32513 -0.0295,-0.6612 -0.002,-0.98724 4.9e-4,-0.5187 -0.002,-1.03853 0.0435,-1.55568 0.0661,-0.57164 0.19727,-1.12624 0.40908,-1.66275 0.0109,-0.0207 0.0239,-0.0838 0.0327,-0.0621 0.0207,0.0508 -0.0117,0.2152 0.009,0.16434 0.0797,-0.19707 -0.0571,-0.48382 -0.001,-0.69088 0.004,-0.41882 0.0136,-0.83878 0.0782,-1.25348 0.0924,-0.47255 0.23149,-0.92485 0.49549,-1.33258 -0.21047,1.25039 -0.01,-0.47079 -0.007,-0.685 0.0857,-0.52868 0.2125,-1.0503 0.49367,-1.51394 0.0176,-0.029 -0.0214,0.0644 -0.0321,0.0965 -0.0922,0.86996 -0.0175,1.4e-4 -0.0432,-0.20314 -9.3e-4,-0.32224 -0.004,-0.64546 0.031,-0.96626 0.0841,-0.46955 0.21977,-0.92083 0.4564,-1.33993 0.0188,0.5944 0.004,-0.33511 0.0684,-0.51659 0.0937,-0.41778 0.25146,-0.81007 0.50442,-1.15762 0.14067,-0.23508 0.23374,-0.76704 0.43759,-1.11596 0.0349,-0.0684 0.10673,-0.28189 0.10478,-0.20514 -0.004,0.16053 -0.0483,0.32104 -0.11148,0.46865 -0.10203,0.23827 0.17923,-1.01957 0.15884,-0.76118 0.0523,-0.13896 0.4141,-1.04303 0.36588,-0.5552 0.0904,-0.65067 0.28867,-1.24493 0.73766,-1.74084 -0.27303,0.39535 -0.31979,1.39145 -0.28444,0.4425 0.0294,-0.58119 0.0723,-1.17065 0.36504,-1.68977 0.72129,-1.12986 -0.0348,0.69557 0.12422,0.0777 -7.2e-4,-0.34644 -0.002,-0.69289 -0.003,-1.03933 6.1e-4,-0.3526 -0.005,-0.71093 0.0883,-1.05431 0.11264,-0.40349 0.24733,-0.81617 0.49609,-1.15844 -0.1571,0.9568 -0.0663,0.4553 -0.0882,0.13298 -2.1e-4,-0.3216 -5.5e-4,-0.64319 -0.001,-0.96479 -9.3e-4,-0.47372 -0.003,-0.94745 -0.002,-1.42117 0.003,-0.4528 0.0139,-0.90646 0.0696,-1.35638 0.0911,-0.73757 0.22608,-1.46967 0.41151,-2.18964 0.50693,-2.02775 3.3746,-1.31083 2.86766,0.71691 z"
       inkscape:connector-curvature="0" />
    <path
       style="fill:#000000;fill-opacity:1;fill-rule:nonzero;stroke:none"
       id="path3938"
       d="m 458.65807,373.9698 c -1.32835,1.32825 -2.66769,2.64475 -3.9546,4.01337 -2.53969,2.70319 -4.83822,5.62082 -7.18091,8.49338 -1.29842,1.60634 -2.54632,3.25237 -3.8113,4.88492 -0.21337,0.27537 -0.6028,-0.0264 -0.38943,-0.30175 l 0,0 c 1.26749,-1.63579 2.51788,-3.28507 3.81895,-4.89454 2.35002,-2.88152 4.65593,-5.8081 7.20381,-8.51953 1.2906,-1.37206 2.63299,-2.6926 3.96513,-4.02421 0.24632,-0.24633 0.59468,0.10203 0.34835,0.34836 z"
       inkscape:connector-curvature="0" />
    <path
       style="fill:#000000;fill-opacity:1;fill-rule:nonzero;stroke:none"
       id="path3940"
       d="m 454.73973,387.304 c -1.57433,1.9994 -2.88037,4.19624 -4.28471,6.31573 -2.83084,4.1961 -5.85956,8.25326 -8.77262,12.39144 -2.30399,3.27656 -1.15146,1.64232 -3.45757,4.90274 -0.20116,0.28441 -0.60338,-8e-5 -0.40221,-0.28449 l 0,0 c 2.30538,-3.25937 1.15305,-1.62544 3.45693,-4.90184 2.91051,-4.13431 5.9362,-8.18794 8.76479,-12.37997 1.40968,-2.12747 2.72098,-4.33224 4.30126,-6.33921 0.20902,-0.27868 0.60314,0.0169 0.39413,0.2956 z"
       inkscape:connector-curvature="0" />
    <path
       style="fill:#000000;fill-opacity:1;fill-rule:nonzero;stroke:none"
       id="path3942"
       d="m 436.42972,402.10999 c -1.90192,2.1018 -3.20686,4.64108 -4.52244,7.12783 -2.51529,5.05359 -5.05097,10.09364 -7.7741,15.03893 -0.46294,0.83229 -0.92589,1.66459 -1.38883,2.49688 -0.16934,0.30443 -0.59987,0.065 -0.43054,-0.23947 l 0,0 c 0.46261,-0.83169 0.92521,-1.66337 1.38782,-2.49505 2.7219,-4.94284 5.25578,-9.98074 7.77019,-15.0317 1.3388,-2.52981 2.66918,-5.11195 4.60954,-7.24578 0.24633,-0.24632 0.59469,0.10204 0.34836,0.34836 z"
       inkscape:connector-curvature="0" />
    <path
       style="fill:#000000;fill-opacity:1;fill-rule:nonzero;stroke:none"
       id="path3944"
       d="m 449.79031,409.93352 c -1.38911,2.03158 -2.74205,4.08875 -4.08015,6.15448 -2.77211,4.34008 -5.68357,8.58475 -8.65279,12.79131 -2.14346,3.00962 -1.0675,1.52705 -3.22657,4.44866 -0.20704,0.28015 -0.60324,-0.0127 -0.3962,-0.29281 l 0,0 c 2.1536,-2.91402 1.0797,-1.43438 3.22028,-4.43994 2.96545,-4.20122 5.87327,-8.44045 8.64179,-12.77507 1.35666,-2.09431 2.72176,-4.18589 4.14528,-6.23499 0.24632,-0.24632 0.59468,0.10204 0.34836,0.34836 z"
       inkscape:connector-curvature="0" />
    <path
       style="fill:#000000;fill-opacity:1;fill-rule:nonzero;stroke:none"
       id="path3946"
       d="m 433.07712,421.33498 c -1.51278,2.80115 -2.848,5.69737 -4.22312,8.56825 -2.24002,4.77893 -4.53419,9.53229 -6.62492,14.37916 -0.35147,0.85104 -0.70295,1.70209 -1.05443,2.55313 -0.13298,0.32198 -0.58833,0.13392 -0.45535,-0.18806 l 0,0 c 0.35248,-0.8534 0.70495,-1.70681 1.05743,-2.56021 2.09356,-4.8527 4.38991,-9.61217 6.63296,-14.39684 1.38177,-2.88473 2.72293,-5.79526 4.24498,-8.6089 0.17923,-0.29872 0.60168,-0.0452 0.42245,0.25347 z"
       inkscape:connector-curvature="0" />
    <path
       style="fill:#000000;fill-opacity:1;fill-rule:nonzero;stroke:none"
       id="path3948"
       d="m 416.31273,432.62814 c -1.30463,2.13471 -2.12042,4.51026 -2.93431,6.86151 -1.49844,5.23194 -3.17291,10.40609 -4.88893,15.57001 -1.33112,3.98269 -0.67987,1.99685 -1.95439,5.95731 -0.10672,0.33161 -0.57569,0.18069 -0.46897,-0.15092 l 0,0 c 1.27617,-3.96543 0.62441,-1.97812 1.95585,-5.96176 1.71667,-5.16586 3.39113,-10.34212 4.8909,-15.57581 0.83056,-2.39874 1.66438,-4.82388 3.00573,-6.99593 0.20901,-0.27868 0.60314,0.0169 0.39412,0.29559 z"
       inkscape:connector-curvature="0" />
    <path
       style="fill:#000000;fill-opacity:1;fill-rule:nonzero;stroke:none"
       id="path3950"
       d="m 429.48869,444.08694 c -2.23334,2.90109 -4.05407,6.10727 -5.95145,9.23373 -2.69024,4.40553 -5.17201,8.93885 -8.12818,13.17478 -0.1994,0.28565 -0.60336,0.004 -0.40396,-0.28199 l 0,0 c 2.95123,-4.22652 5.42474,-8.75281 8.11098,-13.14838 1.91009,-3.14739 3.74317,-6.37489 5.99415,-9.29353 0.22301,-0.26762 0.60148,0.0478 0.37846,0.31539 z"
       inkscape:connector-curvature="0" />
    <path
       style="fill:#000000;fill-opacity:1;fill-rule:nonzero;stroke:none"
       id="path3952"
       d="m 417.52409,448.79685 c -0.1156,2.12435 -0.73306,4.14753 -1.41777,6.1466 -1.16241,3.49009 -2.7778,6.80047 -4.43303,10.07698 -1.80334,3.53722 -3.42951,7.14333 -4.60621,10.93784 -0.10326,0.33271 -0.57377,0.18668 -0.47052,-0.14602 l 0,0 c 1.18653,-3.82014 2.81995,-7.45278 4.63701,-11.01397 1.64512,-3.2563 3.25148,-6.54595 4.40672,-10.01458 0.66826,-1.94767 1.27242,-3.91735 1.39115,-5.98685 0,-0.34835 0.49265,-0.34835 0.49265,0 z"
       inkscape:connector-curvature="0" />
    <path
       style="fill:#ffd5d5;stroke:none"
       d="m 400.71023,490.7883 c -0.58723,-0.58722 -0.34662,-11.63395 0.37955,-17.42582 0.85224,-6.79734 3.68244,-20.52344 5.65398,-27.42107 2.20957,-7.73038 7.32019,-21.2408 11.26337,-29.77578 2.27939,-4.93374 4.11027,-7.74014 11.84776,-18.16046 15.96704,-21.50327 13.11767,-18.25344 31.10026,-35.47107 8.1853,-7.8371 9.96575,-9.33449 9.66541,-8.12879 -0.2025,0.81288 -0.54922,3.14067 -0.77049,5.17287 -0.61069,5.60863 -1.52465,10.88928 -2.21694,12.809 -0.342,0.94836 -1.65364,6.00019 -2.91476,11.22631 -4.7293,19.59837 -16.96123,45.27766 -35.01541,73.51014 -14.91047,23.31645 -19.69285,29.44422 -25.32052,32.44374 -3.17384,1.69164 -3.1946,1.69854 -3.67221,1.22093 l 0,0 z m 7.48932,-17.10091 c 0.54527,-1.45736 2.4228,-5.72497 4.1723,-9.48359 3.53877,-7.6027 4.65922,-10.63993 5.09323,-13.80643 0.43452,-3.17018 -0.51189,-2.59968 -1.1467,0.69125 -0.30054,1.55802 -1.43321,4.82801 -2.51705,7.26664 -7.15129,16.09037 -7.89641,17.98187 -7.08363,17.98187 0.26975,0 0.93659,-1.19239 1.48185,-2.64974 z m 8.93191,-9.29712 c 0.89357,-1.42253 3.49546,-5.6782 5.78197,-9.45704 2.28651,-3.77883 4.80427,-7.81095 5.59501,-8.96027 0.79075,-1.14931 1.22695,-2.21992 0.96934,-2.37914 -0.54018,-0.33385 -2.87242,3.02789 -7.67752,11.06654 -1.86261,3.11604 -4.22918,6.97463 -5.25903,8.57466 -1.02986,1.60003 -1.87247,3.09646 -1.87247,3.32541 0,1.05632 0.97652,0.19579 2.4627,-2.17016 z m -8.12558,-10.0994 c 3.97196,-12.70651 5.77403,-18.05468 6.71639,-19.93285 1.06174,-2.11609 1.10276,-2.35973 0.39734,-2.35973 -0.85894,0 -2.60451,4.54184 -6.5612,17.07171 -2.06658,6.54437 -3.75742,12.0313 -3.75742,12.19318 0,0.16188 0.21001,0.29433 0.4667,0.29433 0.25668,0 1.48887,-3.26999 2.73819,-7.26664 z m 13.54206,-9.85308 c 0.63984,-1.55801 3.35812,-7.4527 6.04062,-13.09931 2.6825,-5.64661 4.74928,-10.39456 4.59283,-10.551 -0.15644,-0.15645 -0.37004,-0.19207 -0.47465,-0.0792 -0.97601,1.05329 -12.12614,24.93929 -12.12614,25.97682 0,1.39247 0.89016,0.37563 1.96734,-2.24733 z m 18.79328,-21.43044 c 8.77401,-12.92626 8.94499,-13.19633 8.58344,-13.55788 -0.41949,-0.41948 -0.48,-0.33829 -7.44258,9.98614 -3.47187,5.14824 -6.93798,10.16826 -7.70248,11.15561 -1.39368,1.79994 -1.75745,2.88503 -0.96719,2.88503 0.23254,0 3.62051,-4.711 7.52881,-10.4689 l 0,0 z m -12.67705,-6.83724 c 3.05349,-5.84787 6.17271,-11.44655 6.9316,-12.44151 1.78321,-2.3379 1.11856,-3.05952 -0.73107,-0.79374 -1.25059,1.53196 -12.80613,23.09613 -12.80613,23.89793 0,1.43244 1.84592,-1.54722 6.6056,-10.66268 z m 15.45386,-13.11523 c 7.80456,-11.034 10.94834,-15.64139 10.94834,-16.04541 0,-1.16194 -1.34137,0.232 -3.93488,4.0891 -1.63624,2.43344 -5.22359,7.58783 -7.97188,11.4542 -4.5637,6.42034 -5.94054,8.75406 -5.16469,8.75406 0.15749,0 2.91289,-3.71338 6.12311,-8.25195 z m 4.00011,-16.76551 c 2.21328,-2.78574 5.6013,-6.7253 7.52893,-8.75459 1.92762,-2.02929 3.34278,-3.8514 3.14481,-4.04912 -0.7378,-0.73685 -15.5492,16.05487 -15.5492,17.62816 0,1.07928 0.86488,0.22344 4.87546,-4.82445 z"
       id="path3954"
       inkscape:connector-curvature="0" />
    <path
       style="fill:#000000;fill-opacity:1;fill-rule:nonzero;stroke:none"
       id="path3960"
       d="m 388.46851,343.17576 c 1.11864,0 2.23729,0 3.35593,0 0.0348,0 0.10805,-0.0283 0.10444,0 -0.0916,0.71729 -0.0931,1.45879 -0.37791,2.14142 -0.0193,0.0462 -2.17073,0 -3.13095,0 -2.24192,0.0868 -4.33128,0.48894 -6.18808,1.53317 -1.95018,1.307 -2.1911,3.34116 -2.44507,5.26206 0.0902,2.38088 1.08861,3.57522 3.68945,4.54245 1.7555,0.45445 3.4842,0.13557 5.22496,-0.16839 1.81434,-0.31231 2.35518,1.78307 0.54084,2.09538 l 0,0 c -2.32162,0.39462 -4.60321,0.70391 -6.90404,0.002 -3.83225,-1.56682 -5.02541,-3.19632 -5.15768,-6.70614 0.35433,-2.58019 0.91278,-5.14076 3.60182,-6.81194 2.32933,-1.22877 4.85632,-1.82428 7.6378,-1.89018 0.96022,0 3.1117,-0.0462 3.13095,0 0.28484,0.68263 0.2863,1.42412 0.37791,2.14142 0.004,0.0283 -0.0696,0 -0.10444,0 -1.11864,0 -2.23729,0 -3.35593,0 -1.8542,0 -1.8542,-2.14142 0,-2.14142 z"
       inkscape:connector-curvature="0" />
    <path
       style="fill:#000000;fill-opacity:1;fill-rule:nonzero;stroke:none"
       id="path3962"
       d="m 404.69113,347.34125 c -1.21685,-0.24409 -2.39863,-0.46065 -3.61746,-0.14522 -1.33087,0.60395 -1.70395,1.76523 -2.13328,2.87974 -0.34062,1.48222 -1.02322,3.0531 -0.81078,4.58011 0.0918,0.66987 0.77177,0.53586 1.49968,0.60118 1.2422,-0.0456 2.4333,-0.36429 3.49717,-0.88266 0.86269,-0.62292 1.20392,-1.49501 1.4828,-2.37733 0.27347,-0.90401 0.35377,-1.83393 0.39103,-2.76129 0.0115,-0.402 0.006,-0.8042 -0.003,-1.2062 -0.0106,-0.59343 -0.1541,-0.31232 1.0647,0.84664 -0.17958,-0.003 -0.35912,5.1e-4 -0.53858,0.006 1.86735,-1.53473 1.09522,-0.63426 1.30244,0.69067 0.20454,1.80831 0.8632,3.51856 1.83327,5.14179 0.65822,0.92962 1.36464,1.85959 2.44929,2.48851 0.35247,0.17556 0.18593,0.0992 0.4968,0.2331 1.6308,0.72058 0.38295,2.60399 -1.24785,1.88341 l 0,0 c -0.50848,-0.22808 -0.24068,-0.10004 -0.79948,-0.38955 -1.41137,-0.86189 -2.42283,-2.01945 -3.25767,-3.28018 -1.09057,-1.84262 -1.84197,-3.78232 -2.07913,-5.83032 -0.22656,-1.71879 -0.46875,-1.68972 1.18555,-3.07672 0.2384,-0.007 0.47699,-0.0104 0.71556,-0.007 1.42221,0.97925 1.48419,0.53461 1.49693,1.25611 0.01,0.43849 0.0149,0.87719 10e-4,1.31567 -0.0451,1.08934 -0.15041,2.18057 -0.47793,3.24114 -0.48077,1.44029 -1.16694,2.79204 -2.71202,3.68369 -1.58093,0.72218 -3.30145,1.19463 -5.13583,1.14908 -1.91721,-0.21987 -3.57865,-0.78979 -3.78053,-2.56448 -0.12256,-1.8221 0.39722,-3.63532 0.92887,-5.3953 0.72935,-1.82574 1.60076,-3.53578 3.94023,-4.29124 1.67799,-0.34262 3.27911,-0.25102 4.94326,0.13375 1.79884,0.36725 1.16285,2.44473 -0.63599,2.07748 z"
       inkscape:connector-curvature="0" />
    <path
       style="fill:#000000;fill-opacity:1;fill-rule:nonzero;stroke:none"
       id="path3964"
       d="m 416.42404,334.11586 c 1.26175,3.17105 1.29499,6.58985 1.47944,9.89389 0.0966,3.5763 0.55633,7.13648 0.84031,10.70448 0.34459,1.04126 0.28467,3.23218 0.94926,4.16858 -0.14193,-0.4161 0.007,-0.11944 -1.01794,-0.48311 1.83023,-0.24271 2.25053,1.87103 0.4203,2.11373 l 0,0 c -1.59701,-0.34784 -1.06804,0.008 -1.81457,-0.79087 -0.72483,-1.54236 -0.84442,-3.25028 -1.15378,-4.8695 -0.28483,-3.58184 -0.7465,-7.15581 -0.84311,-10.746 -0.16758,-3.01518 -0.22265,-6.10643 -1.20531,-9.03352 -0.82923,-1.35435 1.51618,-2.31203 2.3454,-0.95768 z"
       inkscape:connector-curvature="0" />
    <path
       style="fill:#000000;fill-opacity:1;fill-rule:nonzero;stroke:none"
       id="path3966"
       d="m 435.31421,334.6678 c -1.55989,0.78073 -3.22738,1.47347 -4.40643,2.64034 -1.33853,1.70773 -1.28648,3.84281 -1.40193,5.80047 -0.0121,2.83331 0.66321,5.61174 1.39512,8.36696 0.58356,2.30976 1.21183,4.61375 1.95702,6.89268 0.28847,0.8677 0.57683,1.7355 0.88152,2.59952 0.0137,0.0425 0.0307,0.0843 0.046,0.1264 0.55714,1.44424 -1.94393,2.08767 -2.50107,0.64343 l 0,0 c -0.022,-0.059 -0.0445,-0.11787 -0.0648,-0.1773 -0.30931,-0.87737 -0.60237,-1.75851 -0.89514,-2.63963 -0.75574,-2.31161 -1.39334,-4.64859 -1.98622,-6.99125 -0.77997,-2.93808 -1.48535,-5.90345 -1.45158,-8.9249 0.1476,-2.45305 0.1993,-5.03713 2.04277,-7.10197 1.47148,-1.33565 3.2995,-2.27591 5.21203,-3.1501 1.65845,-0.67717 2.83115,1.23817 1.1727,1.91535 z"
       inkscape:connector-curvature="0" />
    <path
       style="fill:#000000;fill-opacity:1;fill-rule:nonzero;stroke:none"
       id="path3968"
       d="m 426.05397,348.88622 c 3.29617,-0.0498 6.58511,-0.43571 9.8269,-0.90931 1.79371,-0.27381 3.5789,-0.58268 5.36002,-0.90616 1.81001,-0.32867 2.37917,1.7617 0.56917,2.09037 l 0,0 c -1.81739,0.32995 -3.63892,0.64503 -5.46923,0.92401 -3.39449,0.49201 -6.83552,0.89621 -10.28686,0.94252 -1.8542,0 -1.8542,-2.14143 0,-2.14143 z"
       inkscape:connector-curvature="0" />
    <path
       style="fill:#000000;fill-opacity:1;fill-rule:nonzero;stroke:none"
       id="path3970"
       d="m 267.64316,479.41338 c 1.06187,0.22382 2.14363,0.37928 3.2237,0.53183 0.17148,0.0253 0.43452,0.0583 0.58304,0.0765 -0.94467,-0.10761 -0.21176,1.44438 -0.48548,2.13169 -0.0447,0.11226 -0.28978,-0.0131 -0.43365,-0.002 -0.15023,0.0119 -0.29595,0.0486 -0.44429,0.0714 -1.12461,0.17276 -0.42569,0.0418 -1.63252,0.30155 -2.69345,0.42446 -5.20419,1.28852 -7.58774,2.37456 -2.08609,1.03556 -3.19107,2.62828 -3.50102,4.56758 0.17159,1.87362 1.56575,3.17301 3.46458,4.09794 1.84612,0.23688 2.79202,-1.27474 3.47855,-2.42696 1.01177,-2.05264 1.1127,-4.20565 0.89562,-6.37676 -0.0919,-0.64298 -0.17203,-1.29285 -0.37818,-1.91965 0.0137,0.0285 6.3e-4,0.16342 0.0564,0.11724 0.57636,-0.47822 0.9503,-1.13753 1.63891,-1.50359 0.59202,-0.31471 1.3154,1.16592 1.40841,1.38607 0.68253,1.89439 1.40265,3.77845 2.20798,5.64259 1.08767,2.41174 2.39717,4.75261 3.85819,7.02777 0.48646,0.55201 0.24213,0.30677 0.7191,0.74478 1.21215,1.14584 -0.77215,2.54576 -1.98431,1.39992 l 0,0 c -0.71127,-0.68506 -0.35246,-0.30552 -1.05731,-1.15052 -1.51831,-2.36651 -2.87976,-4.80112 -4.00871,-7.30993 -0.82086,-1.90258 -1.5519,-3.82575 -2.25321,-5.7576 0.0124,-0.33393 0.31967,0.31082 0.53464,0.10618 1.28438,-1.22268 1.0105,-2.19256 1.39649,-1.30459 0.26689,0.76504 0.36219,1.56283 0.47541,2.34998 0.24838,2.56622 0.0737,5.11177 -1.17189,7.51848 -1.57536,2.45394 -3.53639,4.29352 -7.19551,3.27779 -2.77731,-1.43871 -4.67049,-3.44739 -4.67738,-6.2424 0.55486,-2.69531 1.90859,-4.65295 4.82008,-6.11641 2.58109,-1.16577 5.29243,-2.11142 8.20257,-2.57531 0.31409,-0.0657 3.14662,-0.59657 3.19689,-0.43975 0.22238,0.69371 0.15862,1.42831 0.23793,2.14246 -0.0275,-0.002 -0.0549,-0.004 -0.0824,-0.006 -0.24372,-0.026 -0.48594,-0.0603 -0.7283,-0.0936 -1.1435,-0.16163 -2.2883,-0.32773 -3.41264,-0.56441 -1.79884,-0.36725 -1.16286,-2.44474 0.63599,-2.07749 z"
       inkscape:connector-curvature="0" />
    <path
       style="fill:#000000;fill-opacity:1;fill-rule:nonzero;stroke:none"
       id="path3976"
       d="m 285.4005,482.74772 c -1.06385,-0.0584 -2.44321,-0.71417 -3.46276,-0.27728 -0.99984,0.4292 -1.85614,1.30412 -2.35869,2.14105 -0.94573,1.40934 -1.47245,2.90208 -1.22567,4.50286 0.43837,1.34797 1.47672,2.46476 2.87884,3.24185 1.17126,0.38837 2.37022,0.73659 3.59867,0.99217 0.90316,0.0612 1.97393,0.38382 2.86758,0.15821 0.54754,-0.086 0.97879,-0.30563 1.45852,-0.51823 1.62971,-0.72223 2.88042,1.15991 1.25072,1.88214 l 0,0 c -0.72004,0.3191 -1.43523,0.6177 -2.24899,0.74427 -1.32868,0.15133 -2.66664,0.0331 -3.97847,-0.19193 -1.532,-0.32195 -3.05552,-0.74213 -4.4676,-1.32142 -1.98547,-1.18657 -3.45958,-2.76202 -3.96742,-4.76526 -0.22329,-2.03593 0.28603,-3.93613 1.51858,-5.7301 0.88845,-1.30332 2.15093,-2.59739 3.88385,-3.17752 1.66355,-0.35612 3.23886,-0.0854 4.88884,0.2417 1.79883,0.36725 1.16285,2.44474 -0.636,2.07749 z"
       inkscape:connector-curvature="0" />
    <path
       style="fill:#000000;fill-opacity:1;fill-rule:nonzero;stroke:none"
       id="path3978"
       d="m 298.88998,470.59037 c 0.53085,2.58238 0.60563,5.20772 0.69613,7.81936 0.0993,3.80661 0.10018,7.6143 0.10466,11.42159 0.001,2.45531 -6.2e-4,4.91063 -0.004,7.36594 -0.008,0.99885 0.15708,0.0956 -0.24877,-0.022 -1.41884,-0.41122 -1.87157,0.37062 -1.20768,-0.56913 0.95036,-1.83973 1.77012,-3.71972 2.66771,-5.57769 0.88329,-1.85405 2.23742,-3.50423 3.75002,-5.04894 1.17991,-0.97399 1.90161,-1.53512 3.60767,-1.58267 1.80341,0.52591 2.95474,1.68552 3.71464,3.07631 1.05608,1.85071 1.32889,3.8893 1.54016,5.89876 0.11803,1.19743 0.18639,2.49438 0.90833,3.5693 0.0565,0.0693 0.11301,0.13866 0.16952,0.208 1.00083,1.27469 -1.2066,2.43056 -2.20744,1.15587 l 0,0 c -0.0956,-0.12442 -0.19126,-0.24885 -0.28689,-0.37327 -0.83967,-1.35337 -1.10139,-2.87369 -1.19628,-4.378 -0.1846,-1.78182 -0.39723,-3.59709 -1.33801,-5.23785 -0.36127,-0.73891 -0.70428,-1.03734 -1.43621,-1.55417 -0.27757,-0.19599 -0.29985,-0.14856 -0.10619,-0.23239 0.50848,-0.28759 -1.35381,0.59256 -1.32263,0.78883 -1.35175,1.37575 -2.56987,2.84191 -3.35744,4.49615 -0.94733,1.96065 -1.79193,3.9526 -2.84632,5.8769 -0.067,0.0918 -0.67961,0.99094 -0.87881,1.04284 -2.0456,0.53305 -2.55629,-0.1309 -2.54762,-1.53909 0.003,-2.45389 0.005,-4.90778 0.004,-7.36166 -0.004,-3.78782 -0.005,-7.57605 -0.10362,-11.3632 -0.0859,-2.49113 -0.15328,-4.99511 -0.64625,-7.45984 -0.36364,-1.48481 2.20768,-1.90478 2.57132,-0.41997 z"
       inkscape:connector-curvature="0" />
    <path
       style="fill:#000000;fill-opacity:1;fill-rule:nonzero;stroke:none"
       id="path3980"
       d="m 317.9703,486.29006 c 1.15157,1.02476 1.93835,2.19918 2.36098,3.53864 0.33439,1.5263 0.33322,3.08416 0.34899,4.62976 0.006,0.75101 -0.004,1.50198 -0.0117,2.25295 -0.004,0.341 -0.004,0.68202 -0.005,1.02303 -0.003,1.51422 -2.62553,1.51042 -2.62224,-0.004 l 0,0 c 6.3e-4,-0.3459 10e-4,-0.69181 0.005,-1.03771 0.008,-0.7389 0.0175,-1.47782 0.0117,-2.21677 -0.0139,-1.38298 -0.0105,-2.77566 -0.27588,-4.14499 -0.25304,-0.96474 -0.88547,-1.7801 -1.66614,-2.5269 -1.31112,-1.07072 0.54308,-2.58493 1.8542,-1.51422 z"
       inkscape:connector-curvature="0" />
    <path
       style="fill:#000000;fill-opacity:1;fill-rule:nonzero;stroke:none"
       id="path3982"
       d="m 318.98014,478.30717 c 0.11559,0.79723 0.2711,2.59828 -1.15064,2.82317 -0.46873,0.0742 -0.94721,-0.0986 -1.42082,-0.14792 -1.02298,-0.67478 -1.40624,-1.6434 -1.71352,-2.64451 -0.0788,-1.27302 0.6697,-2.05991 2.13943,-2.43897 1.07525,-0.23329 2.09891,0.0366 3.0001,0.51233 1.06436,0.51217 0.65321,1.63362 0.0505,2.29989 -0.68083,0.52686 -1.5178,0.87352 -2.38007,1.15598 -1.80876,0.55268 -2.08824,-0.9719 -2.11474,-1.85999 0.004,-1.09166 -0.0601,-0.43386 2.63736,-0.22368 0.0563,1.51352 -2.56467,1.5786 -2.62103,0.0651 l 0,0 c 2.87946,-0.18678 2.61064,-0.85012 2.60529,0.11181 0.0191,0.85618 0.35235,0.74533 -1.60288,-0.0475 0.214,-0.0599 -0.2745,0.0817 0.12601,-0.0353 0.45646,-0.14671 0.884,-0.33898 1.31891,-0.52083 0.779,-0.39814 -0.20318,-2.38288 0.52952,0.83811 -0.25718,-0.15164 -0.50634,-0.30027 -0.80906,-0.24153 -0.41704,0.0816 -0.1066,0.008 -0.13373,-0.181 -0.0796,-0.55497 0.0151,0.51788 -0.2008,0.049 0.10467,0.34768 0.51668,0.98697 0.54537,1.27487 0.004,0.0349 -0.0858,0.002 -0.12876,0.003 -0.30199,0.0265 -0.62523,-0.0151 -0.90599,0.0796 -0.63177,0.213 -0.27467,0.90321 -0.31437,-0.35204 -0.44971,-1.469 2.09424,-1.98837 2.54394,-0.51937 z"
       inkscape:connector-curvature="0" />
    <path
       style="fill:#000000;fill-opacity:1;fill-rule:nonzero;stroke:none"
       id="path3984"
       d="m 331.21727,468.31386 c 0.16475,2.95051 -0.019,5.90423 0.0986,8.8578 0.29051,4.65365 0.49141,9.30995 0.61365,13.96845 0.0571,2.55325 0.0912,5.10683 0.10147,7.66049 -0.007,1.50376 0.35857,0.96431 -2.62572,0.65536 -10e-4,-0.42328 -10e-4,-0.84655 -10e-4,-1.26983 -6.3e-4,-1.51421 2.62134,-1.51525 2.62224,-10e-4 l 0,0 c 2.5e-4,0.42122 3.5e-4,0.84243 0.001,1.26364 -2.98722,0.26957 -2.60863,0.83502 -2.61874,-0.64114 -0.0102,-2.5407 -0.0441,-5.08132 -0.10088,-7.62161 -0.12194,-4.65095 -0.32329,-9.29964 -0.6129,-13.94576 -0.10841,-2.80302 -0.0234,-5.6031 -0.0216,-8.40698 -0.44972,-1.469 2.09423,-1.98838 2.54394,-0.51937 z"
       inkscape:connector-curvature="0" />
    <path
       style="fill:#000000;fill-opacity:1;fill-rule:nonzero;stroke:none"
       id="path3986"
       d="m 339.084,469.02767 c 0.16275,2.90014 0.0255,5.81259 -0.006,8.71633 -0.056,4.35966 0.34069,8.7138 0.57432,13.06781 0.12954,2.49965 0.20139,5.0009 0.23729,7.50252 0.004,0.46272 0.0128,0.92552 0.006,1.38825 -0.0373,1.51391 -2.65903,1.4708 -2.62171,-0.0431 l 0,0 c 0.007,-0.43999 -0.004,-0.88008 -0.006,-1.32007 -0.0355,-2.47872 -0.10666,-4.95708 -0.23496,-7.43385 -0.23559,-4.39141 -0.63488,-8.78294 -0.57673,-13.18011 0.029,-2.72611 0.0868,-5.45219 0.0836,-8.17839 -0.44971,-1.46901 2.09423,-1.98838 2.54394,-0.51938 z"
       inkscape:connector-curvature="0" />
    <path
       style="fill:#000000;fill-opacity:1;fill-rule:nonzero;stroke:none"
       id="path3988"
       d="m 346.3104,487.97908 c 1.42319,0.32658 2.89693,0.43688 4.36588,0.51867 1.51263,0.10765 3.01667,0.0897 4.36924,-0.51836 0.99925,-0.57574 1.191,-1.43006 1.36878,-2.36307 0.16407,-0.73234 0.194,-1.17727 -0.61883,-1.54669 -1.28861,-0.52793 -2.39286,-0.0383 -3.58101,0.44545 -2.23815,0.9255 -3.45033,2.22854 -4.62281,3.97195 -0.88572,1.35726 -1.4,2.65399 -0.30698,3.99958 1.35004,1.46659 3.38732,2.33567 5.28598,3.24881 1.31418,0.61726 2.69044,1.11195 4.18114,1.34399 0.1243,0.0151 0.2486,0.0301 0.3729,0.0451 1.83331,0.22673 1.44068,2.34401 -0.39262,2.11729 l 0,0 c -0.16069,-0.0202 -0.32138,-0.0404 -0.48207,-0.0606 -1.78054,-0.28834 -3.4406,-0.8549 -5.01007,-1.60064 -2.29242,-1.10259 -4.69163,-2.18627 -6.22686,-4.02426 -1.56844,-2.39733 -1.14373,-3.73863 0.28235,-6.10342 1.44407,-2.13073 3.05264,-3.73894 5.77,-4.86275 2.09314,-0.81893 4.13534,-1.311 6.26491,-0.25682 1.49366,0.95814 2.05368,2.09111 1.67176,3.62894 -0.33404,1.60797 -0.96806,3.03171 -2.7612,3.92307 -1.819,0.7284 -3.72893,0.92522 -5.74447,0.74875 -1.62261,-0.0918 -3.24928,-0.21974 -4.822,-0.57756 -1.79885,-0.36726 -1.16286,-2.44474 0.63598,-2.07749 z"
       inkscape:connector-curvature="0" />
    <path
       style="fill:#000000;fill-opacity:1;fill-rule:nonzero;stroke:none"
       id="path3990"
       d="m 371.65874,480.12719 c 1.06187,0.22382 2.14362,0.37928 3.2237,0.53183 0.17148,0.0254 0.43452,0.0583 0.58304,0.0765 -0.56926,2.77195 -0.0608,2.12676 -2.83129,2.12741 -1.24833,5.1e-4 -2.49667,0.002 -3.74499,0.002 -0.17285,0.0963 -0.20896,0.30972 -0.52576,0.71921 -0.32018,0.50487 -0.40507,1.05915 -0.46731,1.61673 -0.004,0.22414 -0.17357,1.02064 0.29655,0.98225 1.06931,0.58293 2.34991,0.72777 3.598,0.84966 1.70634,0.0284 3.32051,0.22818 4.83243,0.89334 1.06622,0.64223 1.80096,1.52019 2.44931,2.44639 0.70208,1.19066 1.23571,2.42584 1.58924,3.71451 0.38548,1.41401 0.43331,2.25889 -0.83124,3.38288 -1.39427,0.85179 -3.16256,0.89484 -4.79125,1.24194 -1.23708,0.26332 -2.49994,0.43774 -3.77243,0.53146 -1.62545,-0.0636 -2.71034,-1.02296 -3.82692,-1.86971 -0.73767,-0.52662 -1.50466,-0.97525 -1.95712,-1.69991 -0.0528,-0.15571 -0.1056,-0.31142 -0.1584,-0.46713 -0.40244,-1.47812 2.15729,-1.9429 2.55974,-0.46478 l 0,0 c -0.008,0.01 -0.0154,0.0199 -0.0231,0.0298 0.11246,0.12449 0.97168,0.77481 1.36603,1.03491 0.57779,0.44055 1.22922,0.95657 1.80665,1.30384 1.12891,-0.0813 2.24892,-0.23823 3.34626,-0.47115 1.21024,-0.25568 2.46627,-0.35748 3.63638,-0.71552 0.63842,-0.21049 0.0939,-0.91572 0.0849,-1.37491 -0.28838,-1.08622 -0.74504,-2.11999 -1.31558,-3.12845 -0.39456,-0.59107 -0.86461,-1.14072 -1.43414,-1.62146 -1.18946,-0.56564 -2.53189,-0.57672 -3.87884,-0.64048 -1.69143,-0.17188 -3.39071,-0.42657 -4.81818,-1.24104 -1.13137,-0.78408 -1.56098,-1.705 -1.36904,-2.91629 0.10474,-0.89341 0.30272,-1.77241 0.8613,-2.56077 0.67707,-0.87499 1.35041,-1.64573 2.74133,-1.71678 1.24849,-4.8e-4 2.49698,-0.002 3.74547,-0.002 0.77096,-1.9e-4 2.3667,-0.0175 2.37341,0.003 0.2247,0.69364 0.15948,1.42907 0.23921,2.14361 -0.0275,-0.002 -0.0549,-0.004 -0.0824,-0.006 -0.24371,-0.026 -0.48593,-0.0604 -0.72829,-0.0936 -1.1435,-0.16163 -2.28831,-0.32773 -3.41264,-0.56441 -1.79884,-0.36725 -1.16286,-2.44474 0.63599,-2.07749 z"
       inkscape:connector-curvature="0" />
    <path
       style="fill:#000000;fill-opacity:1;fill-rule:nonzero;stroke:none"
       id="path3992"
       d="m 523.98654,344.77555 c -1.47026,0.68152 -2.78253,1.51569 -3.651,2.70914 -1.07672,2.02422 -1.25124,4.23876 -0.93793,6.40442 0.36406,1.18858 0.93177,3.27251 2.78605,3.52846 0.26283,0.0363 0.53228,-0.0246 0.79842,-0.037 3.07183,-0.44408 5.47673,-2.25912 7.45381,-4.12032 1.49502,-1.94134 2.63786,-3.55625 1.57968,-5.81731 -0.96609,-1.40688 -2.70964,-2.05172 -4.53431,-2.45593 -1.43371,-0.25344 -2.90362,-0.29843 -4.36537,-0.30355 -0.18932,-0.0792 -1.14624,0.11882 -0.43294,0.007 -1.33341,1.0522 -3.15554,-0.48777 -1.82213,-1.53996 l 0,0 c 0.73761,-0.44309 1.34229,-0.68481 2.26738,-0.60881 1.69615,0.007 3.40119,0.0688 5.06009,0.38283 2.66964,0.62504 5.05482,1.69012 6.30759,3.82306 0.15776,0.40351 0.37592,0.79447 0.47328,1.21051 0.56587,2.41803 -0.96434,4.78394 -2.56309,6.71496 -2.56075,2.35634 -5.62439,4.54241 -9.62557,4.84224 -0.60477,-0.0672 -1.23374,-0.0477 -1.81434,-0.20148 -2.65387,-0.70264 -3.66454,-3.21645 -4.17464,-5.18776 -0.34419,-2.64992 -0.11884,-5.34238 1.3217,-7.77843 1.18881,-1.49834 2.76635,-2.64106 4.70062,-3.48778 1.65845,-0.67718 2.83115,1.23816 1.1727,1.91534 z"
       inkscape:connector-curvature="0" />
    <path
       style="fill:#000000;fill-opacity:1;fill-rule:nonzero;stroke:none"
       id="path3994"
       d="m 540.94969,344.6972 c 0.40545,2.04382 1.01218,4.06792 1.76435,6.04527 0.66274,1.73232 1.16213,3.50109 1.50651,5.29313 0.19347,1.19468 0.50612,1.18721 -2.46983,0.558 -0.16146,-0.0341 0.0172,-0.27287 0.003,-0.40858 -0.0156,-0.15101 -0.0613,-0.29893 -0.0919,-0.4484 -0.27544,-1.59801 -0.85563,-3.13742 -1.20388,-4.72501 -0.54095,-1.99669 -0.26605,-3.77312 1.00931,-5.52639 1.22341,-1.43777 3.00471,-2.2686 5.03624,-2.70355 1.841,-0.19058 3.33156,0.58571 4.53328,1.64109 -0.0403,-0.006 1.26215,1.12979 1.13049,0.98916 1.70377,0.59746 0.66912,2.56514 -1.03465,1.96768 l 0,0 c -0.8415,-0.36148 -1.5462,-0.87868 -2.06274,-1.54063 -0.453,-0.47652 -1.17818,-0.92373 -1.92682,-0.98055 -1.37424,0.26413 -2.59735,0.8085 -3.44749,1.75566 -1.02669,1.25862 -1.02976,2.56471 -0.65604,4.02185 0.34987,1.61276 0.95301,3.17545 1.21874,4.80102 0.072,0.46683 0.2061,1.17976 0.11367,1.21327 -2.87616,1.04282 -2.52134,0.95525 -2.74218,-0.28343 -0.32315,-1.69034 -0.79623,-3.35805 -1.42108,-4.99185 -0.78052,-2.07097 -1.42317,-4.18609 -1.84565,-6.32569 -0.30483,-1.49361 2.28174,-1.84566 2.58657,-0.35205 z"
       inkscape:connector-curvature="0" />
    <path
       style="fill:#000000;fill-opacity:1;fill-rule:nonzero;stroke:none"
       id="path3996"
       d="m 561.92,345.29166 c 0.812,1.98443 1.14617,4.06387 1.40558,6.13619 0.19146,1.71986 0.25071,3.44684 0.27286,5.1729 0.004,0.33866 0.003,0.67734 10e-4,1.016 -0.01,1.51419 -2.63215,1.50271 -2.6222,-0.0115 l 0,0 c 0.002,-0.3274 0.003,-0.6548 -6.3e-4,-0.98219 -0.0211,-1.6611 -0.0769,-3.32311 -0.25952,-4.97835 -0.24901,-2.00629 -0.58553,-4.0115 -1.36814,-5.9331 -0.36364,-1.48482 2.20768,-1.90478 2.57132,-0.41997 z"
       inkscape:connector-curvature="0" />
    <path
       style="fill:#000000;fill-opacity:1;fill-rule:nonzero;stroke:none"
       id="path3998"
       d="m 561.84091,337.64976 c 0.0551,1.06359 -0.2787,2.10503 -0.70935,3.09965 -0.56285,1.17681 -1.28718,0.85703 -2.64686,0.13165 -0.16918,-0.0903 -0.14406,-0.76583 -0.15243,-0.94442 -0.007,-0.20624 -0.004,-0.41254 0.009,-0.61852 0.12999,-0.85944 1.50458,-1.18079 2.33387,-1.40648 0.40255,-0.10641 0.8088,-0.20307 1.21813,-0.29036 0.0195,-0.004 0.039,-0.008 0.0585,-0.0115 0.48242,0.53174 1.15658,0.97747 1.44725,1.59522 0.19783,0.42044 -1.5775,1.27269 -1.87339,1.41081 -0.46057,0.19407 -0.93648,0.36724 -1.43394,0.48782 -1.97756,-1.08755 -1.79078,-1.02026 -1.76885,-2.47195 0.004,-0.23147 0.0107,-0.46291 0.0196,-0.6943 6.3e-4,-0.022 0.003,-0.0439 0.003,-0.0659 0.0999,-1.51202 2.71829,-1.39669 2.61844,0.11533 l 0,0 c -3.6e-4,0.007 -6.3e-4,0.0147 -10e-4,0.022 -0.008,0.21652 -0.0143,0.43309 -0.0183,0.64969 -0.0166,1.07021 0.46792,1.35957 -1.58225,0.38818 0.30602,-0.0752 0.59784,-0.18464 0.88385,-0.30019 1.26488,-0.55455 0.49267,-0.61725 2.29071,0.95068 -0.34828,0.0739 -0.69339,0.15738 -1.03612,0.24694 -0.76808,0.20711 -1.77075,0.85166 -0.54295,-0.48857 -0.007,0.135 -0.0101,0.27016 -0.006,0.40531 0.0294,0.76793 -0.21099,-0.26848 -1.84115,-0.20564 -0.27127,0.0104 -0.32773,0.35523 -0.51764,0.51376 -0.0423,0.0353 0.0447,-0.0918 0.0671,-0.13765 0.33592,-0.76384 0.61426,-1.56259 0.55751,-2.38152 0,-1.51421 2.62223,-1.51421 2.62223,0 z"
       inkscape:connector-curvature="0" />
    <path
       style="fill:#000000;fill-opacity:1;fill-rule:nonzero;stroke:none"
       id="path4000"
       d="m 575.25129,341.26614 c 0.89491,0.1827 1.78983,0.36541 2.68474,0.54812 0.13886,0.0283 0.27772,0.0567 0.41658,0.085 -0.21139,0.70307 -0.32302,1.43131 -0.63416,2.10921 -0.0442,0.0963 -2.36007,-0.39983 -2.68358,-0.46121 -1.25894,-0.28239 -1.48198,0.54245 -2.02844,1.30974 -0.97111,1.71148 -1.25241,3.60467 -1.45166,5.4642 0.0426,0.0277 0.0252,1.47308 0.29076,1.37317 0.0946,-0.0356 -0.0281,-0.16868 -0.0361,-0.25351 -0.0194,-0.20568 -0.0109,-0.1342 0.188,-0.32217 1.74683,-1.0738 3.11438,-2.52839 4.37009,-3.97752 0.56703,-0.75406 1.08825,-1.53361 1.21052,-2.42208 -0.31806,-0.40917 -0.48929,-1.05041 -0.65488,-1.56849 -0.10779,-0.13686 -0.24161,-1.24262 -0.17448,-0.56272 -0.0561,-0.05 -0.1979,-0.1302 -0.23506,-0.1515 0.76908,0.34221 -0.20452,-0.23606 1.98291,-0.9898 0.13227,-0.0456 0.0785,0.22598 0.13199,0.3348 0.62475,1.27201 -0.50807,-1.39598 0.52394,1.13965 1.30448,3.13234 2.1533,6.38058 2.94319,9.62146 1.06006,5.04911 1.52634,10.16938 1.16918,15.28345 -0.40425,3.31707 -1.2529,6.64474 -4.15168,9.10583 -3.29192,1.80436 -5.38104,-0.0302 -7.16699,-2.26631 -1.64001,-2.23009 -2.41938,-4.72556 -2.87765,-7.27281 -0.22502,-1.62047 0.30908,-2.99499 1.306,-4.36828 0.96227,-1.29435 3.20375,-0.18303 2.24149,1.11132 l 0,0 c -0.71592,0.93069 -1.09214,1.82452 -0.95262,2.94835 0.39715,2.24911 1.06108,4.45674 2.49544,6.43221 0.65235,0.86734 1.61227,2.49653 3.09524,1.9053 2.53406,-1.97526 2.96096,-5.02031 3.39293,-7.71967 0.35685,-4.93225 -0.11463,-9.87136 -1.12328,-14.74199 -0.76773,-3.15993 -1.59408,-6.32718 -2.86654,-9.38062 -0.0962,-0.25346 -2.4257,-4.51383 1.21096,-2.9765 0.33684,0.17051 0.64003,0.38121 0.90393,0.62299 0.38779,0.41866 0.5732,0.87755 0.68865,1.38501 0.25334,0.79601 0.68052,1.55741 0.71701,2.38856 -0.21587,1.23249 -0.83426,2.34057 -1.67114,3.38047 -1.53244,1.76166 -3.21238,3.55035 -5.48111,4.70888 -0.44204,0.11616 -0.86308,0.31995 -1.32612,0.34849 -2.40236,0.14808 -2.79706,-1.84139 -2.75668,-3.30439 0.23734,-2.17543 0.60035,-4.38084 1.80293,-6.3607 1.19593,-1.64808 2.3297,-2.80283 4.88355,-2.31052 0.5589,0.10636 1.14454,0.19088 1.68457,0.35325 0.12895,0.0388 0.39009,-0.0591 0.40725,0.0522 0.10757,0.69772 -0.003,1.40647 -0.004,2.1097 -0.13886,-0.0283 -0.27772,-0.0567 -0.41657,-0.085 -0.89492,-0.1827 -1.78984,-0.36541 -2.68475,-0.54812 -1.79884,-0.36724 -1.16285,-2.44473 0.63599,-2.07748 z"
       inkscape:connector-curvature="0" />
    <path
       style="fill:#000000;fill-opacity:1;fill-rule:nonzero;stroke:none"
       id="path4002"
       d="m 590.75625,343.50981 c 0.93826,1.67606 1.23009,3.52034 1.47308,5.33404 0.14108,1.23855 0.2012,2.48252 0.21594,3.72607 0.003,0.29856 4.1e-4,0.59713 -0.004,0.89567 -0.0242,1.51408 -2.64623,1.48611 -2.62201,-0.028 l 0,0 c 0.004,-0.28244 0.006,-0.56491 0.004,-0.84736 -0.0134,-1.17287 -0.0698,-2.34616 -0.20063,-3.51446 -0.20739,-1.56133 -0.43307,-3.15595 -1.21167,-4.60831 -0.82922,-1.35435 1.51618,-2.31203 2.34541,-0.95767 z"
       inkscape:connector-curvature="0" />
    <path
       style="fill:#000000;fill-opacity:1;fill-rule:nonzero;stroke:none"
       id="path4004"
       d="m 589.00809,335.65793 c 0.71631,1.05687 0.95875,2.17996 0.52924,3.3379 -1.04863,1.90931 -2.85423,0.87722 -3.58694,-0.478 -0.23123,-0.5572 -0.39212,-1.13283 -0.49159,-1.71518 -0.14005,-0.97525 0.88966,-1.4897 1.80483,-1.81258 0.59231,-0.16169 1.21342,-0.23029 1.83408,-0.26521 1.35838,-0.053 1.57853,0.89587 1.60068,1.65187 -0.17966,1.00896 -1.05628,1.48143 -2.15414,1.78187 -1.32962,0.30922 -2.32391,-0.16346 -2.85004,-1.17826 -0.35339,-0.88011 -0.2195,-1.68867 0.26842,-2.51161 0.48442,-0.57861 1.17848,-0.91843 1.98094,-1.1175 1.02795,-0.21834 0.82688,0.16389 1.87176,1.11918 0.1048,1.51179 -2.51325,1.63283 -2.61806,0.12103 l 0,0 c 0.67968,0.44606 0.85642,0.92956 1.47871,0.81598 -0.1329,0.0308 -0.44838,0.21077 -0.36475,0.0137 -0.21667,0.33929 -0.27502,0.33113 -0.16823,0.79329 -0.008,-0.003 -0.49167,-0.0698 -0.69375,-0.0746 -0.0931,-0.002 0.2702,-0.0218 0.27859,-0.0162 0.50032,-0.12794 0.35714,-0.12017 0.34869,0.28954 -0.002,-0.47316 0.29783,0.44692 1.19599,0.44837 -0.33107,0.0172 -0.65823,0.0579 -0.98558,0.10019 -0.56006,0.18711 -0.2551,-0.0437 -0.23024,-0.45018 0.0675,0.41279 0.1839,0.81987 0.33188,1.21818 0.15692,0.53564 -0.88094,0.061 -1.41666,0.69584 -0.031,0.0368 0.0544,-0.0776 0.0817,-0.11643 0.31698,-0.54515 -0.0824,-1.19019 -0.39089,-1.69352 -0.82923,-1.35435 1.51618,-2.31203 2.3454,-0.95767 z"
       inkscape:connector-curvature="0" />
    <path
       style="fill:#000000;fill-opacity:1;fill-rule:nonzero;stroke:none"
       id="path4006"
       d="m 597.60786,342.43235 c 1.57065,1.64238 2.03076,3.73922 2.61066,5.7196 0.51697,1.86573 0.75739,3.77205 0.91396,5.67762 0.0225,0.43359 0.0704,0.86815 0.0529,1.30256 -0.0798,0.78308 -0.0288,0.64689 -2.49142,-0.6169 -0.17401,-0.0893 0.1025,-0.3252 0.14389,-0.48959 0.1787,-0.70962 0.2659,-1.42715 0.35216,-2.14711 0.0936,-2.12008 0.79887,-4.16392 1.86771,-6.0843 0.73637,-1.27392 1.78194,-2.38654 3.35402,-2.9995 0.97994,-0.28612 2.01904,-0.26307 3.04316,-0.25095 1.49131,0.14088 2.45992,0.81538 3.03186,1.91988 0.41301,1.27406 0.31705,2.62093 0.32138,3.92854 0.21655,1.71983 0.50035,3.42948 0.92386,5.12317 0.25962,1.03012 0.41554,2.00246 1.72838,2.3684 1.07016,0.27028 2.08105,0.23298 3.04857,-0.21962 0.14721,-0.18553 0.0688,-0.0869 0.23548,-0.29569 1.12452,-1.20397 3.20949,0.0947 2.08497,1.2987 l 0,0 c -0.60356,0.6119 -0.2505,0.30925 -1.08621,0.88637 -1.7139,0.71822 -3.49859,0.82327 -5.3319,0.29281 -2.13233,-0.83267 -2.84773,-2.04148 -3.24862,-3.90294 -0.45717,-1.83188 -0.77048,-3.6832 -0.97677,-5.5455 -0.003,-1.04534 0.0368,-2.1021 -0.13435,-3.14 -0.13608,-0.32645 -0.18377,-0.45929 -0.63527,-0.57293 -0.64187,-0.008 -1.28867,-0.0256 -1.92445,0.0611 -1.00741,0.32068 -1.57666,1.20234 -2.05172,1.94289 -0.9698,1.69761 -1.56011,3.52127 -1.6406,5.40046 -0.0295,0.24115 -0.42757,2.8857 -0.55001,2.90573 -0.87751,0.14359 -2.66956,-0.74036 -2.68417,0.0495 1.5e-4,-0.35754 -0.0228,-0.71512 -0.0492,-1.07208 -0.14594,-1.7864 -0.3669,-3.57403 -0.84822,-5.32365 -0.46641,-1.60045 -0.82543,-3.29247 -1.91422,-4.70232 -1.31112,-1.07071 0.54309,-2.58493 1.85421,-1.51422 z"
       inkscape:connector-curvature="0" />
    <path
       style="fill:#000000;fill-opacity:1;fill-rule:nonzero;stroke:none"
       id="path4008"
       d="m 442.62753,578.41114 c 0.76092,1.93946 1.31165,3.93208 1.79684,5.92855 0.41853,1.95638 0.62798,3.9381 0.7392,5.92059 0.0418,1.95815 0.70407,1.56899 -2.59247,1.36902 -0.0344,-1.51396 2.58742,-1.55366 2.62179,-0.0397 l 0,0 c -3.30295,0.22207 -2.54567,0.64499 -2.64885,-1.23192 -0.10389,-1.87555 -0.30123,-3.75041 -0.69193,-5.60185 -0.47518,-1.96256 -1.02137,-3.91894 -1.76853,-5.82533 -0.44971,-1.469 2.09424,-1.98837 2.54395,-0.51937 z"
       inkscape:connector-curvature="0" />
    <path
       style="fill:#000000;fill-opacity:1;fill-rule:nonzero;stroke:none"
       id="path4010"
       d="m 437.25223,573.96459 c -0.15264,-1.1687 -0.0632,-2.34784 0.007,-3.51888 0.13849,-1.62927 1.57018,-1.96325 3.10841,-1.0951 0.66272,0.50111 1.03875,1.11045 1.23377,1.82214 0.10099,0.3785 0.0985,0.76686 0.0966,1.15212 0.0782,0.65375 -0.64786,1.26314 -1.42973,1.35618 -1.00882,0.1167 -1.67014,-0.46079 -1.95893,-1.16463 -0.10905,-0.38759 -0.12156,-0.78616 -0.1238,-1.182 -6.2e-4,-0.0656 0.003,-0.13121 0.006,-0.19677 0.10031,-1.51199 2.71871,-1.39615 2.6184,0.11585 l 0,0 c -5.4e-4,0.0243 -0.002,0.0485 -0.002,0.0728 0.002,0.17081 0.0273,0.43022 0.002,0.54401 -0.0773,-0.0496 -1.46842,-0.37238 -0.81846,-0.31869 -0.49749,0.53713 -0.98109,1.46068 -0.91513,0.76385 10e-4,-0.23062 0.0144,-0.46399 -0.0378,-0.69162 -0.0659,-0.27072 -0.12007,-0.43666 -0.38766,-0.65493 1.47197,0.17256 1.26842,-1.1155 1.22799,-0.41857 -0.0578,0.96417 -0.1038,1.92932 -0.0821,2.89486 0.44971,1.469 -2.09424,1.98837 -2.54395,0.51937 z"
       inkscape:connector-curvature="0" />
    <path
       style="fill:#000000;fill-opacity:1;fill-rule:nonzero;stroke:none"
       id="path4012"
       d="m 450.49426,578.41114 c 0.48295,1.92589 0.60708,3.89438 0.70915,5.85343 0.0448,2.01941 0.42079,4.0235 0.72853,6.025 0.0764,0.48954 0.1516,0.97923 0.23304,1.46824 -0.70592,-0.7439 -0.62688,-1.0949 -1.66518,-0.77368 -0.1317,0.0407 -0.20183,0.24712 -0.33516,0.21009 -0.11278,-0.0313 0.0386,-0.19207 0.052,-0.28873 0.0254,-0.1831 0.0429,-0.36688 0.0644,-0.55031 0.0602,-2.13312 0.22357,-4.24788 0.67195,-6.3519 0.66986,-2.48499 2.06247,-4.79123 3.66677,-6.95587 0.90968,-0.84643 2.01672,-2.33218 3.6041,-2.40043 0.3657,-0.0157 0.72519,0.0838 1.08779,0.12564 1.7089,0.77832 2.21448,2.37724 2.72684,3.82 0.75249,1.74319 1.10541,3.55706 1.32579,5.38857 0.347,1.5916 0.67964,3.18337 0.8956,4.79065 0.0814,0.55465 -0.045,1.13025 0.40934,1.58181 0.0107,-0.0205 -0.076,-0.0655 -0.10049,-0.0809 1.58231,0.78938 0.21531,2.61679 -1.36701,1.82742 l 0,0 c -0.22202,-0.12262 -0.43168,-0.25156 -0.59778,-0.42699 -0.72104,-0.79075 -0.93748,-1.69303 -0.95071,-2.66823 -0.21618,-1.61586 -0.56498,-3.21379 -0.89879,-4.81575 -0.20196,-1.703 -0.52982,-3.38673 -1.23648,-5.00592 -0.26837,-0.77375 -0.79889,-1.59844 -0.93077,-2.35257 0.27565,-0.13751 0.20427,-0.22763 -0.16137,-0.009 -0.61065,0.36511 -1.09012,0.86862 -1.56644,1.33956 -1.44892,1.92898 -2.69369,3.99966 -3.32391,6.21355 -0.44892,2.0531 -0.56693,4.11859 -0.646,6.19987 -0.14965,1.12504 -0.25358,2.16171 -1.85843,2.43196 -0.13811,0.0233 -0.30886,0.0243 -0.41901,-0.0476 -0.39716,-0.25927 -0.69636,-0.60519 -1.04455,-0.90779 -0.0829,-0.49787 -0.15964,-0.99641 -0.23734,-1.49485 -0.31671,-2.05996 -0.69923,-4.12272 -0.7466,-6.20112 -0.0938,-1.81491 -0.20476,-3.63786 -0.63322,-5.42472 -0.44971,-1.469 2.09424,-1.98837 2.54395,-0.51937 z"
       inkscape:connector-curvature="0" />
    <path
       style="fill:#000000;fill-opacity:1;fill-rule:nonzero;stroke:none"
       id="path4014"
       d="m 474.56629,574.34993 c 0.89491,-0.1827 1.78982,-0.36541 2.68474,-0.54811 -1.16363,0.38208 0.16819,-0.16025 -0.14079,2.04349 -0.018,0.12854 -0.31662,-0.0104 -0.47501,-0.0132 -0.82578,-0.0145 -1.65214,-0.0111 -2.47803,-0.0115 -1.29552,-0.0357 -2.60327,0.16578 -3.68423,0.77039 -0.60931,0.49647 -0.37984,0.80544 -0.0131,1.39848 0.94397,1.28823 2.21934,2.37548 3.7697,3.17562 1.90992,0.71436 3.81557,1.37775 5.62556,2.25203 1.65873,0.88066 2.56986,2.09457 2.71145,3.68599 -0.72725,2.27467 -3.44061,3.12724 -5.87093,3.94112 -1.81665,0.5602 -3.70426,0.93107 -5.62306,1.15784 -0.25726,-0.021 -0.51452,-0.042 -0.77179,-0.063 -1.81882,-0.29442 -1.30894,-2.39498 0.50987,-2.10055 l 0,0 c -0.0371,0.0147 -0.0743,0.0292 -0.11148,0.0439 1.70786,-0.19926 3.38727,-0.5282 5.00614,-1.02107 1.06569,-0.35279 2.18939,-0.69362 3.15529,-1.21587 2.12579,-1.14941 -0.44999,0.17299 0.92337,-0.66966 0.0436,-0.0267 0.10736,-0.0157 0.16104,-0.0235 0.14315,-0.80356 -0.70492,-1.4559 -1.42498,-1.89218 -1.84268,-0.89025 -3.80768,-1.52508 -5.72461,-2.30233 -1.94599,-1.06256 -3.60587,-2.4073 -4.73342,-4.10166 -0.79434,-1.57165 -0.72376,-2.96675 1.01701,-4.07902 1.54867,-0.75806 3.25736,-1.16872 5.07998,-1.09803 0.75024,4.3e-4 3.15517,0.0146 3.16942,0.0322 0.48633,0.5993 0.84973,1.28219 1.03101,1.98574 0.0359,0.13918 -0.31494,0.1215 -0.47241,0.18225 -0.89491,0.18271 -1.78982,0.36541 -2.68474,0.54812 -1.79884,0.36725 -2.43483,-1.71024 -0.63598,-2.07749 z"
       inkscape:connector-curvature="0" />
    <path
       style="fill:#000000;fill-opacity:1;fill-rule:nonzero;stroke:none"
       id="path4016"
       d="m 487.70775,579.6838 c 1.54177,0.58065 3.21516,0.82196 4.88676,0.99156 1.04598,0.0131 1.96764,-0.13463 2.51146,-0.91691 0.57648,-0.93302 0.52577,-1.94602 -0.0227,-2.87571 -0.86567,-0.87876 -1.76238,-0.89656 -2.98355,-0.54579 -1.94253,1.15152 -2.39958,3.11455 -2.78411,4.92876 -0.50357,2.52959 -0.27292,4.9937 1.68944,7.05592 1.69639,1.27844 3.76307,1.51018 5.93747,1.07248 0.89131,-0.13975 1.64812,-0.4952 2.41278,-0.86848 1.59899,-0.76664 2.92662,1.08004 1.32763,1.84668 l 0,0 c -1.00256,0.4742 -2.01465,0.92238 -3.16654,1.11131 -3.23439,0.55292 -6.2403,0.11415 -8.62091,-1.89005 -0.33962,-0.38922 -0.72979,-0.75209 -1.01886,-1.16764 -1.59734,-2.29622 -1.57795,-4.99993 -1.14288,-7.53457 0.58555,-2.63662 1.48554,-5.29277 4.62755,-6.60917 2.74387,-0.5896 4.54343,-0.22303 6.13631,1.76488 0.81377,1.68373 0.89492,3.39775 -0.29109,4.99324 -1.29477,1.2935 -2.85378,1.89429 -4.93897,1.75976 -1.96515,-0.20374 -3.92735,-0.50428 -5.73247,-1.20092 -1.65845,-0.67718 -0.48575,-2.59252 1.1727,-1.91535 z"
       inkscape:connector-curvature="0" />
    <path
       style="fill:#000000;fill-opacity:1;fill-rule:nonzero;stroke:none"
       id="path4018"
       d="m 506.44068,577.47818 c 0.98697,1.71455 1.62625,3.53522 2.30537,5.34119 0.32646,1.13747 0.83511,2.24105 1.53951,3.25859 -0.24462,-0.0269 0.21152,0.15101 0.1327,0.16627 -0.82722,0.16013 -1.65129,0.49743 -2.49678,0.42494 -0.11631,-0.01 -0.40121,-2.33591 -0.42901,-2.58056 -0.14179,-2.22544 -0.3457,-4.46377 -0.1382,-6.68918 0.15144,-1.69993 0.7742,-3.14311 2.60896,-4.03953 2.04647,-0.75294 3.9851,-0.0739 5.80695,0.75981 1.45578,0.60208 2.78053,1.34383 3.89226,2.32051 0.27239,0.24013 0.49543,0.50405 0.65196,0.8044 0.6315,1.42369 -1.83397,2.15302 -2.46547,0.72933 l 0,0 c 0.15995,0.283 0.004,-0.0127 -0.11472,-0.0825 -0.91926,-0.82482 -2.05012,-1.40365 -3.26147,-1.91083 -0.97814,-0.46436 -2.05452,-1.02548 -3.22524,-0.75373 -1.08296,0.41788 -1.14984,1.45085 -1.27948,2.34466 -0.22171,2.10004 0.0286,4.21941 0.13564,6.32059 0.0518,0.46265 0.42495,2.16226 0.35237,2.22784 -1.94737,1.75976 -1.79963,1.88218 -2.45734,1.00579 -0.78798,-1.15336 -1.38671,-2.3918 -1.75942,-3.678 -0.63621,-1.69317 -1.22911,-3.401 -2.14399,-5.01194 -0.82923,-1.35435 1.51618,-2.31202 2.3454,-0.95767 z"
       inkscape:connector-curvature="0" />
    <path
       style="fill:#000000;fill-opacity:1;fill-rule:nonzero;stroke:none"
       id="path4020"
       d="m 530.04086,561.77441 c 1.25488,2.89621 1.30516,6.02507 1.47936,9.06126 0.19294,4.62787 0.19986,9.25925 0.20971,13.88928 0.002,2.20178 -3e-5,4.40357 -0.008,6.60535 0.49842,1.18604 -2.33317,1.15115 -2.70432,0.15422 -0.36883,-1.48396 2.20101,-1.90992 2.56984,-0.42597 l 0,0 c 0.0437,0.21088 0.37324,0.55119 0.13107,0.63262 -2.88903,0.97152 -2.61655,0.68387 -2.61882,-0.36704 0.008,-2.19848 0.01,-4.39698 0.008,-6.59546 -0.01,-4.59796 -0.0165,-9.19724 -0.20686,-13.79307 -0.15655,-2.74475 -0.20579,-5.55621 -1.20538,-8.20351 -0.82923,-1.35436 1.51618,-2.31203 2.34541,-0.95768 z"
       inkscape:connector-curvature="0" />
    <path
       style="fill:#000000;fill-opacity:1;fill-rule:nonzero;stroke:none"
       id="path4022"
       d="m 525.02485,575.94831 c 2.86435,0.40359 5.78761,0.44294 8.68663,0.51667 2.62581,0.0536 5.25238,0.0776 7.87895,0.0845 0.34182,4.8e-4 0.74877,10e-4 1.07399,-0.003 -0.0786,0.71287 -0.15718,1.42574 -0.23576,2.1386 -1.85414,-0.0135 -1.83069,-2.15487 0.0235,-2.14133 l 0,0 c 0.10406,0.7142 0.20812,1.4284 0.31218,2.1426 -0.39403,0.008 -0.7883,0.003 -1.18239,0.004 -2.65099,-0.007 -5.30197,-0.0312 -7.95218,-0.0856 -3.0848,-0.0787 -6.19826,-0.12013 -9.24085,-0.57957 -1.79884,-0.36725 -1.16285,-2.44473 0.63599,-2.07748 z"
       inkscape:connector-curvature="0" />
    <path
       style="fill:#000000;fill-opacity:1;fill-rule:nonzero;stroke:none"
       id="path4024"
       d="m 549.31527,577.64475 c 0.9696,2.0923 1.2146,4.34048 1.43199,6.55248 0.0696,1.92238 0.46413,3.82324 0.8299,5.71941 0.091,0.45955 0.0397,0.27925 0.12323,0.54613 0.42399,1.4741 -2.12878,1.96376 -2.55276,0.48967 l 0,0 c -0.11538,-0.41853 -0.0583,-0.18489 -0.16077,-0.70261 -0.3761,-1.95013 -0.77796,-3.90541 -0.85353,-5.88221 -0.19412,-1.9976 -0.39553,-4.03309 -1.25275,-5.92757 -0.68864,-1.40591 1.74605,-2.20122 2.43469,-0.7953 z"
       inkscape:connector-curvature="0" />
    <path
       style="fill:#000000;fill-opacity:1;fill-rule:nonzero;stroke:none"
       id="path4026"
       d="m 546.7214,572.0176 c 0.22372,-0.73081 0.44745,-1.46164 0.67118,-2.19246 0.0139,-0.0455 0.0279,-0.091 0.0418,-0.13654 0.44971,-1.469 2.99366,-0.94963 2.54395,0.51938 l 0,0 c -0.0139,0.0455 -0.0279,0.091 -0.0418,0.13653 -0.22373,0.73082 -0.44746,1.46165 -0.67119,2.19247 -0.4497,1.469 -2.99366,0.94963 -2.54394,-0.51938 z"
       inkscape:connector-curvature="0" />
    <path
       style="fill:#000000;fill-opacity:1;fill-rule:nonzero;stroke:none"
       id="path4028"
       d="m 558.23893,578.59944 c -1.2629,1.37171 -1.95266,2.91535 -2.41904,4.57004 -0.27614,1.95298 0.75993,3.07649 2.80776,3.9265 2.6662,0.81448 4.00274,0.84959 6.41846,-0.32286 1.63678,-1.14433 2.2024,-2.69244 2.01883,-4.39732 -0.37501,-1.51784 -1.17266,-2.92512 -2.61537,-3.94274 -0.66088,-0.30761 -1.53301,-0.61349 -2.30189,-0.42238 -0.42602,0.0943 -0.83521,0.23213 -1.21252,0.41834 -1.5716,0.80353 -2.96312,-1.0115 -1.39153,-1.81503 l 0,0 c 0.68331,-0.34309 1.43633,-0.58221 2.2203,-0.72168 1.61158,-0.13736 3.10853,0.13098 4.42705,0.93971 1.93279,1.42871 3.06564,3.30253 3.49075,5.40569 0.15966,2.66102 -0.70417,4.69681 -3.32633,6.3908 -3.29428,1.51511 -5.47964,1.50482 -8.98486,0.34676 -3.27432,-1.52871 -4.52105,-3.15061 -4.10433,-6.29223 0.56026,-1.93942 1.39519,-3.76025 2.87493,-5.36845 1.11252,-1.21137 3.21032,0.0735 2.09779,1.28485 z"
       inkscape:connector-curvature="0" />
    <path
       style="fill:#000000;fill-opacity:1;fill-rule:nonzero;stroke:none"
       id="path4030"
       d="m 571.99672,576.05056 c 0.89899,1.43175 1.50153,2.95032 2.14636,4.46397 0.62111,1.38183 0.97132,2.82519 1.18206,4.2828 0.003,0.14395 0.26225,2.48794 0.0343,1.33432 -0.0924,-0.1555 -0.18521,-0.24133 -0.36925,-0.28734 -0.89064,-0.11301 -1.31709,1.58732 -1.31022,0.43767 -0.005,-1.44643 -0.038,-2.88863 0.10535,-4.33088 0.60354,-2.14029 2.02832,-4.09361 3.62551,-5.84289 0.93702,-0.93163 1.80278,-1.7527 3.402,-1.45065 1.01436,0.5218 1.79341,1.31604 2.65829,1.99868 0.89488,0.78561 1.64334,1.5838 2.0795,2.6034 0.3199,1.33739 0.56018,2.68984 0.96674,4.01369 0.41334,1.29923 0.65835,2.61328 1.32409,3.84714 0.49987,0.62252 0.0675,0.0573 0.0717,0.0519 0.0432,-0.0551 0.15166,-0.0423 0.22748,-0.0634 0.35433,-0.10945 0.18378,-0.0528 0.51222,-0.16893 1.70699,-0.59131 2.73097,1.38009 1.02398,1.97139 l 0,0 c -0.52941,0.18091 -0.24589,0.091 -0.85276,0.26495 -1.46629,0.29218 -2.76425,0.0102 -3.38606,-1.19949 -0.71492,-1.34851 -1.04284,-2.76826 -1.46649,-4.19035 -0.38,-1.2742 -0.66082,-2.5687 -0.91382,-3.86263 -0.23804,-0.70055 -0.86191,-1.17508 -1.40904,-1.72789 -0.57092,-0.45071 -1.37542,-0.94962 -1.70097,-1.51688 0.46736,-0.0231 -0.0597,0.0247 0.74787,-0.24128 0.0448,-0.0147 -1.19863,0.96146 -1.19252,0.9613 -1.32772,1.41027 -2.4691,3.0306 -3.10485,4.73275 -0.15093,1.38466 -0.088,2.77215 -0.096,4.16141 -0.005,0.73709 -0.41532,1.78024 -1.51394,1.68612 -0.68961,-0.0585 -1.263,-0.30009 -1.6895,-0.76269 -0.30478,-0.7245 -0.33909,-1.40378 -0.37797,-2.17001 -0.18571,-1.30394 -0.49652,-2.59509 -1.05508,-3.83034 -0.60462,-1.42713 -1.16256,-2.86024 -2.01435,-4.20811 -0.82922,-1.35435 1.51618,-2.31202 2.34541,-0.95767 z"
       inkscape:connector-curvature="0" />
    <path
       style="fill:#000000;fill-opacity:1;fill-rule:nonzero;stroke:none"
       id="path4032"
       d="m 411.76015,364.52002 c -0.0941,3.49209 -0.68847,6.95804 -1.0128,10.43846 -0.51153,3.15375 -0.055,6.13645 0.82994,9.15793 0.98142,2.60659 2.54028,4.98313 4.2611,7.16007 1.43002,2.12519 3.28307,3.90774 5.13579,5.66013 0.71513,0.67781 -0.24344,1.68915 -0.95857,1.01134 l 0,0 c -1.89767,-1.80215 -3.80329,-3.62969 -5.2724,-5.80994 -1.82116,-2.32523 -3.48547,-4.84271 -4.50331,-7.63038 -0.93162,-3.18845 -1.406,-6.35361 -0.87997,-9.67851 0.32068,-3.43748 0.90574,-6.86114 1.00678,-10.3091 0,-0.9853 1.39344,-0.9853 1.39344,0 z"
       inkscape:connector-curvature="0" />
    <path
       style="fill:#000000;fill-opacity:1;fill-rule:nonzero;stroke:none"
       id="path4036"
       d="m 357.56205,503.5279 c 0.39768,2.38637 0.86076,4.71539 1.68079,6.99513 0.55897,1.47605 0.80656,3.01664 0.92157,4.58177 0.31819,1.59425 1.092,2.98934 1.75969,4.4473 0.37512,1.52172 1.10398,2.87856 1.79402,4.27339 0.56988,1.03136 1.37346,1.78534 2.31559,2.46753 0.9907,0.55271 1.77534,1.36248 2.68779,2.02989 0.81669,0.40831 1.46545,1.05852 2.33805,1.36807 1.04237,0.65235 2.10616,1.23141 3.24686,1.69439 0.48788,0.23805 1.02129,0.21665 1.55212,0.22424 1.07995,0.22796 2.08448,0.70664 3.06027,1.20934 0.38717,0.19011 0.88071,0.16707 1.31153,0.17616 0.68251,0.007 1.36508,0.001 2.04761,-0.002 0.42739,-0.003 0.85478,-0.004 1.28218,-0.004 0.65335,-3.2e-4 1.3067,-2.6e-4 1.96005,-2.3e-4 0.15675,0 0.3135,3e-5 0.47025,5e-5 0.92562,10e-6 1.85125,10e-6 2.77688,10e-6 0.98531,0 0.98531,1.39343 0,1.39343 l 0,0 c -0.92575,0 -1.8515,0 -2.77724,-1e-5 -0.15665,-2e-5 -0.3133,-4e-5 -0.46995,-4e-5 -0.65296,-3e-5 -1.30592,-9e-5 -1.95887,2.3e-4 -0.42573,3.4e-4 -0.85146,0.002 -1.27718,0.004 -0.69537,0.003 -1.39079,0.009 -2.08615,10e-4 -0.64297,-0.0161 -1.33688,-0.0253 -1.91778,-0.33077 -0.78887,-0.40727 -1.59922,-0.77506 -2.44301,-1.05452 -0.69943,-0.0114 -1.4102,-0.0206 -2.05546,-0.32666 -1.12868,-0.45948 -2.20587,-1.0058 -3.21966,-1.68366 -0.98213,-0.39367 -1.74417,-1.04971 -2.66374,-1.5454 -0.91669,-0.67194 -1.69446,-1.48104 -2.69205,-2.03302 -1.10195,-0.82546 -2.08189,-1.73554 -2.73705,-2.97078 -0.6948,-1.40445 -1.43657,-2.7807 -1.8127,-4.31269 -0.73117,-1.60797 -1.58063,-3.15489 -1.88179,-4.92447 -0.10423,-1.43942 -0.32624,-2.85502 -0.84324,-4.21216 -0.83323,-2.32325 -1.32486,-4.69542 -1.72121,-7.12818 -0.23898,-0.95589 1.11285,-1.29385 1.35183,-0.33796 z"
       inkscape:connector-curvature="0" />
    <path
       style="fill:#000000;fill-opacity:1;fill-rule:nonzero;stroke:none"
       id="path4042"
       d="m 509.5966,330.25156 c 1.71618,1.4331 3.65101,2.6131 5.20361,4.22976 1.05379,1.37373 1.57123,3.14213 2.08273,4.78975 0.33484,1.69748 0.14195,0.84289 0.58238,2.56295 0.24358,0.95473 -1.10661,1.29919 -1.35019,0.34447 l 0,0 c -0.44518,-1.75101 -0.2632,-0.91746 -0.56371,-2.49668 -0.44355,-1.44818 -0.89431,-3.00666 -1.76332,-4.24273 -1.51493,-1.63076 -3.51529,-2.73033 -5.17681,-4.20221 -0.69672,-0.69672 0.28859,-1.68202 0.98531,-0.98531 z"
       inkscape:connector-curvature="0" />
    <path
       style="fill:#000000;fill-opacity:1;fill-rule:nonzero;stroke:none"
       id="path4044"
       d="m 428.3424,578.78491 c -1.97123,-0.35341 -3.80512,-1.2228 -5.5722,-2.13698 -0.79818,-0.61474 -1.20743,-1.4453 -1.29713,-2.42504 -0.79728,-1.19526 -0.92381,-2.75461 -1.11025,-4.16472 -0.29797,-2.27626 0.42335,-4.47784 1.2016,-6.58206 0.71904,-1.53464 0.35113,-0.79402 1.09899,-2.22419 0.45704,-0.87289 1.6915,-0.22654 1.23446,0.64635 l 0,0 c -0.70361,1.34203 -0.36069,0.6553 -1.02657,2.0613 -0.69939,1.8902 -1.39044,3.86954 -1.127,5.91649 0.19378,1.47452 0.41228,2.92098 1.11884,4.24998 0.0114,0.48583 0.22812,0.92087 0.54772,1.28447 1.67086,0.86579 3.40286,1.69631 5.26949,2.02257 0.95589,0.23897 0.61794,1.5908 -0.33795,1.35183 z"
       inkscape:connector-curvature="0" />
  </g>
</svg>
