<?xml version="1.0" encoding="UTF-8" standalone="no"?>
<!-- Created with Inkscape (http://www.inkscape.org/) -->

<svg
   xmlns:dc="http://purl.org/dc/elements/1.1/"
   xmlns:cc="http://creativecommons.org/ns#"
   xmlns:rdf="http://www.w3.org/1999/02/22-rdf-syntax-ns#"
   xmlns:svg="http://www.w3.org/2000/svg"
   xmlns="http://www.w3.org/2000/svg"
   xmlns:sodipodi="http://sodipodi.sourceforge.net/DTD/sodipodi-0.dtd"
   xmlns:inkscape="http://www.inkscape.org/namespaces/inkscape"
   width="208.94649"
   height="132.16397"
   id="svg4939"
   version="1.1"
   inkscape:version="0.48.0 r9654"
   sodipodi:docname="Impulse.pdf">
  <defs
     id="defs4941" />
  <sodipodi:namedview
     inkscape:document-units="mm"
     pagecolor="#ffffff"
     bordercolor="#666666"
     borderopacity="1.0"
     inkscape:pageopacity="0.0"
     inkscape:pageshadow="2"
     inkscape:zoom="0.7176508"
     inkscape:cx="137.40433"
     inkscape:cy="42.937631"
     inkscape:current-layer="layer1"
     id="namedview4943"
     showgrid="false"
     inkscape:window-width="1280"
     inkscape:window-height="752"
     inkscape:window-x="0"
     inkscape:window-y="0"
     inkscape:window-maximized="0"
     fit-margin-top="0"
     fit-margin-left="0"
     fit-margin-right="0"
     fit-margin-bottom="0" />
  <metadata
     id="metadata4945">
    <rdf:RDF>
      <cc:Work
         rdf:about="">
        <dc:format>image/svg+xml</dc:format>
        <dc:type
           rdf:resource="http://purl.org/dc/dcmitype/StillImage" />
        <dc:title></dc:title>
      </cc:Work>
    </rdf:RDF>
  </metadata>
  <g
     inkscape:label="Layer 1"
     inkscape:groupmode="layer"
     id="layer1"
     transform="translate(-388.77676,-282.8209)">
    <path
       style="fill:none;stroke:#000000;stroke-width:2.21811032;stroke-linecap:butt;stroke-linejoin:miter;stroke-miterlimit:4;stroke-opacity:1;stroke-dasharray:8.87244129, 2.21811032;stroke-dashoffset:0"
       d="m 389.88582,362.56927 163.5841,-60.46988"
       id="path5456"
       inkscape:connector-curvature="0" />
    <path
       style="fill:#000000;fill-opacity:1;fill-rule:nonzero;stroke:none"
       id="path5466"
       d="m 504.65249,308.43337 c 2.5226,-0.56615 5.1706,0.0373 6.97817,2.00796 0.47682,0.51985 0.81206,1.15625 1.2181,1.73437 1.72629,3.49002 2.06201,7.23653 1.26319,11.00966 -1.00856,3.181 -3.67968,5.50025 -7.14157,5.10353 -0.70573,-0.0809 -1.37072,-0.3771 -2.05609,-0.56565 -3.07822,-1.59412 -5.22428,-4.58085 -5.5829,-8.11514 -0.0728,-0.71769 0.0116,-1.44287 0.0175,-2.1643 0.54647,-3.71072 3.01812,-6.58945 6.60329,-7.63668 0.64677,-0.18893 1.32693,-0.23077 1.9904,-0.34615 4.85863,-0.0639 7.07545,2.02405 8.67833,6.44312 0.67552,3.08306 0.009,6.41019 -2.35438,8.6224 -0.45723,0.4279 -1.00853,0.73977 -1.51279,1.10965 -0.61865,0.24064 -1.2077,0.5822 -1.85595,0.72191 -2.82164,0.60809 -5.67362,-0.55512 -7.70394,-2.52836 -0.47054,-0.45732 -0.84976,-1.00199 -1.27463,-1.50298 -1.74524,-2.92187 -2.61041,-5.69466 -2.10177,-9.09191 1.01587,-2.90741 3.76159,-4.18364 6.63938,-3.06044 0.53343,0.20821 1.0142,0.53443 1.5213,0.80165 1.85884,1.41884 3.61834,3.43633 3.92949,5.88126 0.0633,0.49697 0.006,1.00211 0.009,1.50316 -0.29239,0.64843 -0.43898,1.38725 -0.87719,1.94528 -1.81865,2.31595 -5.03575,2.02294 -7.46639,1.30099 -2.0722,-0.80264 -4.49957,-2.53207 -4.27439,-5.13186 0.0609,-0.70348 0.40024,-1.35306 0.60036,-2.02959 2.06034,-2.85887 5.50516,-3.4792 8.74958,-4.01963 3.84829,-0.29876 6.1368,1.40923 5.50887,5.57504 -0.68085,2.44191 -2.08866,4.28979 -4.23181,5.56348 -2.8009,1.19944 -4.55037,0.95577 -6.82703,-1.12781 -1.94673,-2.87393 -1.89711,-5.30312 -0.27688,-8.29096 3.03781,-3.43372 5.81669,-2.50805 8.63678,0.54788 1.2379,1.89382 2.83792,4.15702 2.9039,6.54499 0.0169,0.61181 -0.11784,1.21828 -0.17676,1.82743 -0.28291,0.53959 -0.45961,1.15177 -0.84873,1.61877 -1.77768,2.13345 -4.73267,2.08529 -7.08012,1.10303 -0.58348,-0.24416 -1.11697,-0.59608 -1.67546,-0.89412 -1.9861,-1.50124 -4.30285,-3.6122 -4.49689,-6.32783 -0.0427,-0.59828 0.13256,-1.19215 0.19884,-1.78823 0.37854,-0.59858 0.64478,-1.28746 1.13562,-1.79575 2.16467,-2.24163 5.83955,-1.54032 8.49916,-0.96824 2.71806,0.62883 5.71732,2.12839 5.22727,5.55501 -0.10219,0.71451 -0.60835,1.30614 -0.91252,1.95921 -1.87833,2.07774 -4.33779,3.56224 -6.94366,4.51257 -2.76327,0.0609 -1.35454,0.4015 -4.07547,-1.52468 -2.40521,-3.26674 2.16092,-6.70826 4.56613,-3.44152 l 0,0 c -1.80184,-0.8005 -1.02146,-0.85336 -2.29419,-0.498 1.48087,-0.3828 2.69389,-1.47471 3.99912,-2.2279 0.006,0.76315 0.10623,1.66453 0.89892,1.99888 0.48954,0.20648 -2.56239,-1.55501 -1.71053,-0.71211 -0.35961,-0.0885 -3.01914,-0.43664 -3.09223,-0.54016 -0.19355,-0.27413 0.9713,-0.83247 0.24087,-0.98086 -0.057,-0.22718 -0.3779,-0.85172 -0.31781,-0.62535 0.25715,0.96875 1.17432,1.75988 1.87281,2.38622 1.73089,1.14423 1.59669,0.18722 1.24058,1.98796 0.0447,0.11825 0.0637,0.4595 0.13407,0.35478 0.32758,-0.48779 -1.23468,-3.24568 -1.56797,-3.71903 -0.77146,-1.05571 -0.27584,-0.39322 0.33839,-0.96011 0.27794,-0.25652 0.27256,-0.2218 0.12294,-0.33104 -0.5774,0.0976 -0.0715,0.96462 -0.49186,1.18433 -0.39495,0.27167 -1.04,0.24025 0.0934,0.0895 0.73325,-0.14217 0.95543,-1.02159 1.32324,-1.58646 0.24656,-0.41713 -0.0679,0.0347 0.42499,0.6726 0.28127,0.36405 0.66457,0.68425 1.13599,0.64282 0.03,-0.002 -0.01,-0.0601 -0.0145,-0.0902 -0.18385,-0.003 -0.36771,-0.005 -0.55157,-0.008 -0.80856,0.13169 -1.37109,0.21073 -2.1785,0.39638 -0.62844,0.14449 -1.65632,0.68216 -2.31973,0.65534 -0.0471,-0.002 -0.06,-0.0737 -0.09,-0.11049 0.004,-0.28411 0.0555,-0.572 0.01,-0.85233 -0.15228,-0.93277 -1.16834,-0.72126 0.36003,-0.0681 0.34119,0.15201 0.69372,0.33638 1.07603,0.35197 0.0946,0.004 0.28462,-0.11837 0.2831,-0.0226 -0.008,0.50411 -1.02564,0.73676 -0.46411,1.43777 0.0369,0.0726 0.0316,0.23335 0.11078,0.21781 0.37271,-0.0731 -0.98585,-2.1064 -1.23273,-2.15939 -0.0973,-0.0879 -0.1887,-0.18308 -0.29201,-0.2637 -0.0728,-0.0568 -0.24303,-0.0545 -0.23431,-0.14703 0.0114,-0.1216 1.11717,-0.60508 0.80089,-1.14643 -0.5892,0.65766 0.62507,3.55906 0.9542,4.30503 0.72686,1.05396 1.88183,2.29426 3.26849,2.12319 1.19617,-0.54924 1.7797,-1.74924 1.61538,-3.06622 -0.40848,-1.45212 -0.80133,-2.57926 -2.49868,-2.59661 -1.65616,0.10767 -3.27864,0.76346 -3.69626,2.54482 -0.25417,1.69631 0.36061,3.43214 1.67408,4.54572 0.8129,0.5055 1.4301,0.7764 1.85544,-0.37582 0.58818,-2.22256 0.30261,-4.47198 -0.5197,-6.61023 -0.45233,-1.15114 -1.04338,-1.53119 -2.2772,-1.1882 -3.94796,0.79888 -5.06461,-4.85009 -1.11665,-5.64897 z"
       inkscape:connector-curvature="0" />
    <path
       style="fill:#000000;fill-opacity:1;fill-rule:nonzero;stroke:none"
       id="path5468"
       d="m 514.93951,330.31623 c 2.74042,8.43322 6.04417,16.66294 9.19567,24.94732 4.81776,12.7333 9.38192,25.56022 13.89009,38.40573 1.85437,5.29816 3.68757,10.60367 5.50035,15.91619 0.28292,0.83363 0.56868,1.66631 0.84688,2.50155 0.005,0.0149 0.009,0.0298 0.0145,0.0448 0.90079,2.8153 -3.08075,4.08918 -3.9815,1.27384 l 0,0 c -5.7e-4,-0.002 -9.6e-4,-0.004 -0.002,-0.006 -0.27394,-0.82283 -0.55642,-1.6428 -0.83417,-2.46434 -1.80836,-5.30123 -3.63814,-10.59513 -5.48848,-15.88187 -4.49616,-12.81133 -9.048,-25.60423 -13.85281,-38.30373 -3.16831,-8.32867 -6.48817,-16.60308 -9.24398,-25.08116 -0.95635,-2.79695 2.99913,-4.14942 3.95548,-1.35247 z"
       inkscape:connector-curvature="0" />
    <path
       style="fill:#000000;fill-opacity:1;fill-rule:nonzero;stroke:none"
       id="path5470"
       d="m 514.37127,329.29494 c 0.78539,4.06138 0.18188,8.18078 -0.3537,12.22962 -0.96315,4.7964 -1.74989,9.62667 -2.32206,14.48529 -0.34602,2.9356 -4.49759,2.44625 -4.15157,-0.48934 l 0,0 c 0.57553,-4.87816 1.35355,-9.73084 2.32953,-14.54499 0.4889,-3.68413 1.08378,-7.43413 0.3539,-11.13011 -0.38926,-2.93019 3.75466,-3.48064 4.1439,-0.55047 z"
       inkscape:connector-curvature="0" />
    <path
       style="fill:#000000;fill-opacity:1;fill-rule:nonzero;stroke:none"
       id="path5474"
       d="m 514.19345,328.48089 c 4.4131,2.65586 8.34915,6.03305 12.24905,9.37654 2.11383,1.8543 4.33255,3.58162 6.55029,5.30804 2.33232,1.81596 -0.23585,5.11436 -2.56817,3.29839 l 0,0 c -2.26942,-1.76733 -4.53931,-3.53624 -6.70342,-5.43319 -3.63394,-3.11736 -7.30025,-6.25228 -11.36836,-8.7965 -2.65396,-1.3015 -0.81336,-5.05478 1.84061,-3.75328 z"
       inkscape:connector-curvature="0" />
    <path
       inkscape:connector-curvature="0"
       d="m 494.94957,316.0822 c -8.25569,-3.23614 -16.71176,-5.90783 -25.11342,-8.73185 -12.89693,-4.36082 -25.70522,-8.97702 -38.49232,-13.64829 -5.27088,-1.93056 -10.53399,-3.88215 -15.78956,-5.85396 -0.82371,-0.3106 -1.6485,-0.61841 -2.47046,-0.93368 -0.0147,-0.006 -0.0287,-0.012 -0.0438,-0.0172 -2.74711,-1.0912 -1.20384,-4.97626 1.54328,-3.88501 l 0,0 c 0.002,8.3e-4 0.004,0.002 0.006,0.002 0.80967,0.31069 1.62255,0.61296 2.43365,0.91988 5.24403,1.96806 10.49601,3.91492 15.7555,5.84134 12.75307,4.65885 25.52725,9.26297 38.38985,13.61234 8.44654,2.83915 16.94737,5.52676 25.2475,8.77949 2.7682,1.03661 1.3022,4.95144 -1.46601,3.91482 z"
       id="path5476"
       style="fill:#000000;fill-opacity:1;fill-rule:nonzero;stroke:none" />
    <path
       inkscape:connector-curvature="0"
       d="m 496.09941,316.29147 c -3.63665,-1.97139 -6.43643,-5.05277 -9.22482,-8.03687 -3.09458,-3.78902 -6.32731,-7.46325 -9.71816,-10.98968 -2.04856,-2.13093 0.96503,-5.02804 3.01359,-2.89712 l 0,0 c 3.40381,3.54143 6.65939,7.22315 9.75953,11.03336 2.53623,2.7165 5.05607,5.55671 8.37516,7.33903 2.51115,1.55937 0.30583,5.11065 -2.2053,3.55128 z"
       id="path5478"
       style="fill:#000000;fill-opacity:1;fill-rule:nonzero;stroke:none" />
    <path
       inkscape:connector-curvature="0"
       d="m 496.84128,316.67085 c -4.85359,1.72385 -9.96169,2.62119 -15.02081,3.51199 -2.77464,0.45613 -5.51776,1.07392 -8.25956,1.69152 -2.88372,0.64929 -3.80195,-3.42892 -0.91822,-4.0782 l 0,0 c 2.80622,-0.63157 5.61395,-1.26249 8.45347,-1.7304 4.71556,-0.82885 9.46523,-1.67157 14.01356,-3.19973 2.6904,-1.2244 4.42197,2.58041 1.73156,3.80482 z"
       id="path5480"
       style="fill:#000000;fill-opacity:1;fill-rule:nonzero;stroke:none" />
    <path
       style="fill:#000000;fill-opacity:1;fill-rule:nonzero;stroke:none"
       id="path5486"
       d="m 479.92633,339.0203 c 2.79127,3.24208 3.94462,7.47304 5.48109,11.37795 1.95244,5.43739 4.16036,10.75244 6.47145,16.04407 0.66768,1.58702 1.35697,3.16725 1.95141,4.78387 1.29962,2.03183 -7.04879,-0.5324 -1.16866,-1.53098 3.29568,-0.93586 6.44321,-2.39184 9.56255,-3.79571 4.02319,-1.75373 8.22349,-3.09697 12.5273,-3.95475 0.72906,-0.0286 1.22567,-0.17266 1.81051,-0.52478 2.62863,-1.35196 4.54058,2.36548 1.91195,3.71744 l 0,0 c -0.9267,0.44946 -1.86614,0.8465 -2.91247,0.90842 -3.99562,0.78079 -7.88794,2.05249 -11.62327,3.66642 -3.56907,1.60276 -7.19036,3.36836 -11.03967,4.15654 2.71734,-1.25409 -3.20412,-1.6111 -2.99268,-1.20255 -0.56324,-1.539 -1.22641,-3.03982 -1.85802,-4.55118 -2.33078,-5.33964 -4.55902,-10.70289 -6.53114,-16.18804 -1.3244,-3.37505 -2.30385,-7.03855 -4.54628,-9.95079 -2.09015,-2.09016 0.86577,-5.04608 2.95593,-2.95593 z"
       inkscape:connector-curvature="0" />
    <path
       style="fill:#000000;fill-opacity:1;fill-rule:nonzero;stroke:none"
       id="path5488"
       d="m 563.7573,356.45142 c 1.86349,5.14925 2.31723,10.71402 3.13468,16.10167 0.89608,7.3472 1.99476,14.66687 2.96344,22.00469 0.0892,0.71118 0.18007,1.42215 0.2676,2.13354 0.0653,0.53073 0.12437,1.06222 0.19086,1.5928 0.0387,0.30909 0.0763,0.61846 0.12478,0.92617 0.009,0.0601 0.10978,0.17577 0.049,0.17575 -4.27631,-0.002 -4.05541,1.14374 -4.04941,-0.8508 0.0863,-2.95466 4.26485,-2.83257 4.17852,0.12209 l 0,0 c -0.10635,2.43047 0.32355,1.76996 -4.2045,1.65934 -0.11316,-0.003 -0.29902,-1.98309 -0.43703,-3.10519 -0.0864,-0.70245 -0.1761,-1.40448 -0.26415,-2.10672 -0.96473,-7.31114 -2.06051,-14.60403 -2.95208,-21.92463 -0.75315,-4.96471 -1.20618,-10.06283 -2.74065,-14.85922 -1.32193,-2.64386 2.41705,-4.51334 3.73898,-1.86949 z"
       inkscape:connector-curvature="0" />
    <path
       style="fill:#000000;fill-opacity:1;fill-rule:nonzero;stroke:none"
       id="path5490"
       d="m 563.53008,355.96821 c 3.10024,-2.41908 7.11786,-4.38628 11.15848,-3.36599 0.8771,0.22148 1.66502,0.70789 2.49753,1.06184 4.52765,3.46404 5.66818,9.09394 5.50153,14.51446 -0.70801,4.58678 -3.54748,8.40297 -8.18331,9.6093 -0.92406,0.24046 -1.89234,0.25656 -2.83851,0.38485 -3.22525,0.003 -6.34129,-0.78162 -9.33782,-1.90762 -2.76466,-1.04601 -1.28539,-4.95583 1.47928,-3.90983 l 0,0 c 2.36902,0.90383 4.83633,1.54827 7.38177,1.66442 4.04548,-0.33719 6.47634,-1.8642 7.32271,-6.03333 0.24977,-3.6684 -0.47893,-7.80394 -3.10615,-10.54008 -3.25288,-1.8309 -6.07847,-0.57318 -8.91959,1.4779 -2.09016,2.09016 -5.04608,-0.86577 -2.95592,-2.95592 z"
       inkscape:connector-curvature="0" />
    <path
       style="fill:#000000;fill-opacity:1;fill-rule:nonzero;stroke:none"
       id="path5538"
       d="m 595.89017,350.68601 c -1.00846,1.10675 -2.07228,2.16396 -3.10343,3.25104 -1.16122,1.19745 -2.23727,2.47437 -3.1998,3.82965 -0.48375,0.61492 -0.93589,1.25446 -1.34188,1.92112 -0.15195,0.51217 -1.29921,0.19718 -1.29206,-0.34875 0.0119,-0.87744 1.28153,-0.86101 1.26965,0.0165 l 0,0 c -0.008,0.59808 -1.63894,0.22117 -1.06836,-0.30296 0.42193,-0.69119 0.88785,-1.35674 1.39024,-1.99444 0.99897,-1.401 2.10772,-2.72611 3.31103,-3.96475 1.04209,-1.09855 2.11683,-2.16698 3.13675,-3.28484 0.63488,-0.62049 1.53275,0.25702 0.89786,0.87751 z"
       inkscape:connector-curvature="0" />
    <path
       style="fill:#000000;fill-opacity:1;fill-rule:nonzero;stroke:none"
       id="path5540"
       d="m 588.69427,349.14243 c 0.58309,1.11404 1.38923,2.08053 2.16777,3.06529 1.11889,1.36992 2.29064,2.70049 3.49043,4.00308 0.50833,0.59087 1.05569,1.15629 1.62339,1.69215 0.24219,0.18293 0.35744,0.4534 0.61117,0.61486 0.17877,0.10104 -0.0433,-0.0233 0.0859,0.0462 0.79134,0.41457 0.19146,1.50834 -0.59988,1.09377 l 0,0 c -0.12934,-0.069 -0.0612,-0.0307 -0.20372,-0.11624 -0.31271,-0.21412 -0.52243,-0.49874 -0.78663,-0.75653 -0.57453,-0.56434 -1.15881,-1.12519 -1.67435,-1.74439 -1.21965,-1.32668 -2.41409,-2.67874 -3.55107,-4.07415 -0.82877,-1.04832 -1.68072,-2.08197 -2.2987,-3.26906 -0.40154,-0.78486 0.73417,-1.33984 1.1357,-0.55499 z"
       inkscape:connector-curvature="0" />
    <path
       style="fill:#000000;fill-opacity:1;fill-rule:nonzero;stroke:none"
       id="path5542"
       d="m 592.46934,349.10524 c 0.0371,1.37115 -0.15012,2.73397 -0.2568,4.09891 -0.11038,1.64583 -0.14078,3.29542 -0.16088,4.94424 -0.004,0.5876 -0.0108,1.17524 -0.008,1.76286 -5.8e-4,0.0253 6.1e-4,0.0507 9e-4,0.076 0.0291,0.87706 -1.2401,0.91715 -1.26911,0.0401 l 0,0 c -6.1e-4,-0.0367 -0.002,-0.0734 -0.002,-0.11005 -0.003,-0.59458 0.003,-1.18917 0.008,-1.78372 0.0205,-1.67545 0.0517,-3.35167 0.16448,-5.02404 0.10438,-1.33353 0.28897,-2.66481 0.25311,-4.00432 0,-0.87752 1.26977,-0.87752 1.26977,0 z"
       inkscape:connector-curvature="0" />
    <path
       style="fill:#000000;fill-opacity:1;fill-rule:nonzero;stroke:none"
       id="path5544"
       d="m 586.68864,353.63348 c 1.3243,0.23864 2.67752,0.25934 4.01974,0.2994 1.61034,0.0578 3.24749,0.10531 4.83301,0.41057 0.52411,0.12265 1.04667,0.26289 1.54555,0.46423 0.24297,0.11444 0.18929,0.0963 -0.0164,0.004 0.89739,0.0286 0.85599,1.26894 -0.0413,1.24033 l 0,0 c -0.16419,-0.008 -0.4455,-0.0994 -0.43003,-0.0984 -0.42149,-0.17341 -0.86738,-0.28475 -1.30967,-0.39367 -1.51033,-0.3089 -3.08505,-0.31627 -4.61996,-0.3865 -1.43255,-0.043 -2.87775,-0.0665 -4.28887,-0.33588 -0.87105,-0.21283 -0.56309,-1.41676 0.30797,-1.20393 z"
       inkscape:connector-curvature="0" />
    <path
       style="fill:#000000;fill-opacity:1;fill-rule:nonzero;stroke:none"
       id="path5550"
       d="m 559.18428,346.9654 c 2.59767,0 5.19535,0 7.79302,0 3.21625,-0.16082 6.42761,-0.40037 9.64368,-0.56763 0.98102,-0.0463 1.96189,-0.0989 2.94353,-0.13088 1.53513,-0.30551 -1.73415,4.00557 -1.96601,1.87437 -0.021,-0.20016 -0.0275,-0.40111 -0.0191,-0.60207 0.005,-0.0489 -0.002,-0.19321 0.0139,-0.1467 0.87793,2.5837 0.36338,1.50808 -0.60633,0.54034 -1.06807,-1.06087 -2.18845,-2.05796 -3.24205,-3.13524 -0.8732,-0.90092 -1.74137,-1.80667 -2.61599,-2.70621 -0.0727,-0.0746 -0.14537,-0.1492 -0.21805,-0.2238 -2.06279,-2.11716 0.93133,-5.03438 2.99412,-2.91722 l 0,0 c 0.0737,0.0756 0.14738,0.15127 0.22108,0.22691 0.87199,0.89685 1.73767,1.79977 2.60811,2.69812 1.0409,1.06532 2.15172,2.0475 3.20569,3.09851 1.36379,1.36101 0.89576,0.69066 1.79991,2.94926 0.0169,0.0421 0.008,-0.0903 0.0125,-0.1355 10e-4,-0.0285 10e-4,-0.22148 0.004,-0.0763 0.11176,1.2182 -2.43273,2.77813 -2.05662,2.73362 -0.95446,0.0308 -1.90812,0.0829 -2.86198,0.12745 -3.28833,0.17092 -6.57154,0.42233 -9.86074,0.57327 -2.59767,0 -5.19535,0 -7.79302,0 -2.95593,0 -2.95593,-4.18031 0,-4.18031 z"
       inkscape:connector-curvature="0" />
    <path
       style="fill:#000000;fill-opacity:1;fill-rule:nonzero;stroke:none"
       id="path5552"
       d="m 454.8109,306.69936 c -0.66643,1.87581 -1.504,3.68569 -2.19204,5.55364 -0.93343,2.30146 -1.52466,4.67934 -1.37492,7.16569 0.24334,2.50906 1.50116,4.55725 3.0403,6.47597 0.26952,0.30431 0.53903,0.60861 0.80854,0.91291 1.95483,2.21724 -1.18082,4.98178 -3.13564,2.76454 l 0,0 c -0.31544,-0.35916 -0.63087,-0.71833 -0.9463,-1.07749 -2.06919,-2.62583 -3.66847,-5.47941 -3.94282,-8.88464 -0.10966,-3.05059 0.45562,-5.98214 1.63097,-8.80945 0.64145,-1.72235 1.36656,-3.41158 2.05642,-5.11505 0.71691,-2.86766 4.77241,-1.85379 4.05549,1.01388 z"
       inkscape:connector-curvature="0" />
    <path
       style="fill:#000000;fill-opacity:1;fill-rule:nonzero;stroke:none"
       id="path5554"
       d="m 408.45014,311.45374 c -1.7856,0.21425 -3.28366,1.07662 -4.70681,2.12443 -1.98456,1.99521 -2.58563,3.91534 -2.26127,6.68402 1.2382,3.67917 3.78755,4.64106 7.36921,5.31035 2.89531,0.22819 6.3017,-0.009 8.3611,-2.36764 0.2876,-0.32944 0.48828,-0.72564 0.73242,-1.08847 1.04525,-3.38553 -0.70608,-5.76467 -3.03539,-8.034 -2.086,-1.73381 -4.55746,-2.77477 -7.20394,-3.26309 -0.88297,-0.11622 -0.47007,-0.0724 -1.23785,-0.1393 -2.94375,-0.26793 -2.56484,-4.43103 0.37892,-4.1631 l 0,0 c 1.02667,0.0964 0.47812,0.0341 1.6445,0.19657 3.47061,0.68154 6.69706,2.07049 9.38466,4.4234 0.57854,0.59666 1.21106,1.14534 1.73562,1.78996 2.11158,2.59488 3.37521,6.02289 2.58612,9.37752 -0.18828,0.80043 -0.59532,1.53302 -0.89298,2.29954 -0.47149,0.60372 -0.87435,1.26797 -1.41447,1.81116 -3.12025,3.13804 -7.69574,3.69645 -11.8843,3.25134 -0.90135,-0.19895 -1.82538,-0.31408 -2.70404,-0.59684 -4.20062,-1.35181 -6.9635,-4.17843 -7.98534,-8.45901 -0.0453,-0.71525 -0.16323,-1.42958 -0.13603,-2.14576 0.12222,-3.21878 1.75534,-6.17427 4.12135,-8.27973 1.85721,-1.31486 3.83542,-2.48147 6.13465,-2.78685 2.86766,-0.71691 3.88154,3.33858 1.01387,4.0555 z"
       inkscape:connector-curvature="0" />
    <path
       style="fill:#000000;fill-opacity:1;fill-rule:nonzero;stroke:none"
       id="path5566"
       d="m 409.69093,299.41502 c 0.52397,2.39346 0.53028,4.86624 0.59663,7.30467 0.3503,5.16808 0.5333,10.34386 0.65367,15.52169 0.083,4.0748 0.11412,8.15044 0.12661,12.226 -0.003,0.71946 0.008,1.43909 -0.002,2.15854 -6e-4,0.0212 -10e-4,0.0423 -0.002,0.0635 -0.10637,2.954 -4.28397,2.80357 -4.1776,-0.15043 l 0,0 c -1.5e-4,0.009 -3e-4,0.0173 -4.5e-4,0.026 0.007,-0.69489 0.001,-1.38986 0.002,-2.08476 -0.0124,-4.04746 -0.0432,-8.09501 -0.1255,-12.14173 -0.12001,-5.17258 -0.30651,-10.34271 -0.65326,-15.50569 -0.0574,-2.13526 -0.0518,-4.30187 -0.47335,-6.40385 -0.71692,-2.86767 3.33857,-3.88154 4.05549,-1.01388 z"
       inkscape:connector-curvature="0" />
    <path
       style="fill:#000000;fill-opacity:1;fill-rule:nonzero;stroke:none"
       id="path5568"
       d="m 420.96106,301.12778 c 1.32522,0.30702 2.68339,0.40262 4.0376,0.4757 0.81556,0.0391 1.63194,0.0526 2.44821,0.0663 2.9555,0.05 2.88475,4.22974 -0.0707,4.17971 l 0,0 c -0.86867,-0.0148 -1.73746,-0.0295 -2.60534,-0.0719 -1.61905,-0.0893 -3.24165,-0.21672 -4.8236,-0.59429 -2.86766,-0.71692 -1.85379,-4.77241 1.01388,-4.0555 z"
       inkscape:connector-curvature="0" />
  </g>
</svg>
