<?xml version="1.0" encoding="UTF-8" standalone="no"?>
<!-- Created with Inkscape (http://www.inkscape.org/) -->

<svg
   xmlns:dc="http://purl.org/dc/elements/1.1/"
   xmlns:cc="http://creativecommons.org/ns#"
   xmlns:rdf="http://www.w3.org/1999/02/22-rdf-syntax-ns#"
   xmlns:svg="http://www.w3.org/2000/svg"
   xmlns="http://www.w3.org/2000/svg"
   xmlns:sodipodi="http://sodipodi.sourceforge.net/DTD/sodipodi-0.dtd"
   xmlns:inkscape="http://www.inkscape.org/namespaces/inkscape"
   width="654.52893"
   height="161.59746"
   id="svg33904"
   version="1.1"
   inkscape:version="0.48.0 r9654"
   sodipodi:docname="New document 132">
  <defs
     id="defs33906" />
  <sodipodi:namedview
     inkscape:document-units="mm"
     pagecolor="#ffffff"
     bordercolor="#666666"
     borderopacity="1.0"
     inkscape:pageopacity="0.0"
     inkscape:pageshadow="2"
     inkscape:zoom="0.7176508"
     inkscape:cx="320.64598"
     inkscape:cy="126.72914"
     inkscape:current-layer="layer1"
     id="namedview33908"
     showgrid="false"
     fit-margin-top="0"
     fit-margin-left="0"
     fit-margin-right="0"
     fit-margin-bottom="0"
     inkscape:window-width="1280"
     inkscape:window-height="752"
     inkscape:window-x="0"
     inkscape:window-y="0"
     inkscape:window-maximized="0" />
  <metadata
     id="metadata33910">
    <rdf:RDF>
      <cc:Work
         rdf:about="">
        <dc:format>image/svg+xml</dc:format>
        <dc:type
           rdf:resource="http://purl.org/dc/dcmitype/StillImage" />
        <dc:title></dc:title>
      </cc:Work>
    </rdf:RDF>
  </metadata>
  <g
     inkscape:label="Layer 1"
     inkscape:groupmode="layer"
     id="layer1"
     transform="translate(-205.53511,-337.17892)">
    <path
       style="fill:#000000;fill-opacity:1;fill-rule:nonzero;stroke:none"
       id="path34427"
       d="m 391.87163,494.50735 c 0.33245,-5.79419 0.38212,-11.5926 0.34643,-17.38971 -0.44546,-15.37316 -0.42876,-30.74666 -0.43029,-46.1212 0.20823,-20.7593 -0.0955,-41.51822 -0.47665,-62.27618 -0.25312,-13.62673 -0.16891,-6.87558 -0.25711,-20.25343 -0.011,-1.6827 4.16918,-1.69162 4.18026,-0.009 l 0,0 c 0.088,13.36171 0.004,6.61588 0.25692,20.23749 0.38131,20.7662 0.68511,41.53338 0.4769,62.30091 10e-4,15.37184 -0.015,30.74261 0.43024,46.11306 0.0352,5.80986 -0.0136,11.62103 -0.34678,17.42797 -0.037,1.68257 -4.21721,1.65259 -4.17997,-0.03 z"
       inkscape:connector-curvature="0" />
    <path
       inkscape:connector-curvature="0"
       d="m 266.8755,474.14791 c 10.17628,0.3917 20.3616,0.50067 30.54514,0.52427 27.00743,-0.28823 54.01274,-0.1143 81.02001,0.0414 36.46503,0.42054 72.93237,0.32912 109.39848,0.16027 23.9385,-0.11375 12.07879,-0.0986 35.57913,-0.05 2.95592,0.006 2.94725,4.18641 -0.009,4.18028 l 0,0 c -23.47198,-0.0487 -11.62162,-0.0637 -35.55112,0.0499 -36.48058,0.16892 -72.96243,0.26032 -109.44192,-0.16028 -27.00251,-0.15621 -54.00306,-0.32941 -81.00572,-0.0414 -10.20594,-0.0242 -20.41367,-0.13245 -30.61233,-0.52501 -2.95542,-0.0542 -2.87844,-4.23404 0.077,-4.17959 z"
       id="path34429"
       style="fill:#000000;fill-opacity:1;fill-rule:nonzero;stroke:none" />
    <path
       style="fill:none;stroke:#000000;stroke-width:9.14881897;stroke-linecap:round;stroke-linejoin:miter;stroke-miterlimit:4;stroke-opacity:1;stroke-dasharray:none"
       d="m 278.68708,476.5549 115.65513,0 0,-55.73741 124.01575,0"
       id="path34431"
       inkscape:connector-curvature="0" />
    <path
       style="fill:#000000;fill-opacity:1;fill-rule:nonzero;stroke:none"
       id="path34435"
       d="m 510.25533,468.28295 c 2.51164,1.66918 5.38267,2.47559 8.2617,3.2613 2.94216,0.87869 5.92717,1.63404 8.9211,2.31843 1.06086,0.21319 2.12365,0.43788 3.20038,0.55742 -0.55214,3.53109 1.44905,3.98269 -1.0621,4.30805 -1.69236,0.25422 -3.25817,1.03128 -4.92834,1.51723 -3.69316,1.36677 -7.48394,2.41162 -11.32034,3.28419 -1.54995,0.47127 -3.0577,1.06452 -4.5526,1.68509 -2.73052,1.13212 -4.3316,-2.72944 -1.60107,-3.86155 l 0,0 c 1.71359,-0.70971 3.44241,-1.38904 5.22779,-1.90003 3.75931,-0.85256 7.46707,-1.89033 11.08696,-3.22405 1.86048,-0.53191 3.62715,-1.40811 5.55186,-1.64671 0.0267,-0.003 1.03329,-0.13562 1.03595,-0.12599 1.05919,3.83638 1.87296,4.27735 0.09,4.11735 -1.23266,-0.14164 -2.45161,-0.38437 -3.66544,-0.63706 -3.04872,-0.70495 -6.09211,-1.46337 -9.08929,-2.36081 -3.1911,-0.8783 -6.38273,-1.80717 -9.1802,-3.63504 -2.58649,-1.43092 -0.56284,-5.08877 2.02366,-3.65782 z"
       inkscape:connector-curvature="0" />
    <path
       inkscape:connector-curvature="0"
       d="m 384.62669,365.8327 c 1.58613,-2.5649 2.29819,-5.46078 2.9893,-8.36397 0.78198,-2.96932 1.43928,-5.97744 2.02536,-8.99216 0.17837,-1.06727 0.36819,-2.13684 0.45244,-3.2169 3.54726,0.43634 3.93315,-1.57856 4.34049,0.9206 0.30945,1.68314 1.13731,3.2227 1.67764,4.87608 1.48684,3.64647 2.65513,7.40104 3.65273,11.20685 0.52172,1.5337 1.16397,3.02124 1.83311,4.49504 1.22083,2.69203 -2.58628,4.41856 -3.80711,1.72653 l 0,0 c -0.76538,-1.68945 -1.5009,-3.39513 -2.07002,-5.16284 -0.97508,-3.72941 -2.13358,-7.40124 -3.585,-10.97557 -0.59248,-1.84207 -1.52601,-3.57913 -1.82744,-5.49501 -0.004,-0.0267 -0.16934,-1.02831 -0.15981,-1.03128 3.79968,-1.18411 4.21379,-2.01188 4.1122,-0.22461 -0.10173,1.23659 -0.30398,2.46287 -0.51681,3.68432 -0.60484,3.07014 -1.2633,6.13671 -2.06222,9.16165 -0.77344,3.21812 -1.59741,6.43843 -3.33279,9.29419 -1.34555,2.63191 -5.06764,0.729 -3.72207,-1.90292 z"
       id="path34437"
       style="fill:#000000;fill-opacity:1;fill-rule:nonzero;stroke:none" />
    <path
       style="fill:#000000;fill-opacity:1;fill-rule:nonzero;stroke:none"
       id="path34593"
       d="m 295.99232,352.11046 c -1.0865,-2.18449 -2.45147,-4.27304 -4.17964,-6.00149 -1.86931,-1.80222 -4.26078,-2.96444 -6.7203,-3.72878 -3.08434,-0.81912 -6.28481,-0.90289 -9.45512,-0.98433 -2.94689,-0.2378 -5.66637,0.74006 -8.20764,2.13973 -2.8978,2.23827 -4.9808,5.27908 -6.79897,8.41429 -3.22944,5.57212 -4.35656,11.93984 -5.49932,18.18613 -1.63467,9.58878 -2.5916,19.26737 -3.51502,28.9448 -1.24809,11.96713 -2.31625,23.95583 -3.20713,35.95509 -0.85754,10.45773 -2.17337,20.87068 -4.44854,31.11667 -1.40825,7.16675 -3.23721,13.69975 -7.07134,19.94732 -2.53364,3.94535 -5.66539,7.13465 -9.99256,8.98065 -3.44397,1.28121 -6.78171,0.87261 -10.09882,-0.50143 -3.55171,-2.27129 -5.13521,-6.00499 -6.20667,-9.91475 -0.48641,-2.45661 -0.28289,-1.20538 -0.60379,-3.7548 -0.36147,-2.93374 3.78747,-3.44492 4.14893,-0.51118 l 0,0 c 0.25969,2.16274 0.0937,1.10406 0.49086,3.17713 0.70436,2.66227 1.65057,5.32521 3.81831,7.16169 2.23861,1.01008 4.48547,1.31411 6.85132,0.48129 3.54474,-1.40594 5.9542,-4.18014 8.03616,-7.31587 3.54855,-5.69904 5.25724,-12.10136 6.54699,-18.65754 2.23799,-10.04767 3.51295,-20.26318 4.36033,-30.5188 0.89365,-12.02842 1.96335,-24.04639 3.21456,-36.04266 0.93527,-9.79652 1.90635,-19.59409 3.56444,-29.3004 1.23199,-6.72511 2.50847,-13.55298 6.00125,-19.54108 2.22059,-3.78108 4.77613,-7.4379 8.41931,-9.98297 3.19809,-1.70732 6.62046,-2.91303 10.30555,-2.64221 3.56821,0.0931 7.16705,0.21596 10.62767,1.18396 3.09654,1.0222 6.09108,2.46643 8.43271,4.78985 1.99071,2.07821 3.6693,4.4541 4.92545,7.0502 1.32193,2.64385 -2.41705,4.51334 -3.73898,1.86949 z"
       inkscape:connector-curvature="0" />
    <path
       inkscape:connector-curvature="0"
       d="m 210.24003,483.99337 c 1.10171,2.17686 2.48122,4.25584 4.2214,5.97219 1.88184,1.78913 4.28137,2.93464 6.74616,3.6818 3.08997,0.79757 6.29095,0.85902 9.46176,0.91833 2.94847,0.21723 5.66107,-0.77958 8.19251,-2.19694 2.88211,-2.25843 4.94385,-5.3137 6.7401,-8.46152 3.19048,-5.59452 4.27314,-11.96995 5.37229,-18.22406 1.56773,-9.59995 2.45711,-19.28498 3.31299,-28.96862 1.16457,-11.97554 2.14906,-23.97141 2.95619,-35.97659 0.78455,-10.46346 2.02771,-20.88534 4.23133,-31.14695 1.35821,-7.1764 3.14155,-13.722 6.932,-19.99617 2.50604,-3.96294 5.61546,-7.17401 9.92965,-9.05016 3.43495,-1.3052 6.77546,-0.9199 10.10207,0.43097 3.56748,2.24645 5.17698,5.96901 6.2757,9.8712 0.50354,2.45316 0.2913,1.20337 0.62997,3.75049 0.38193,2.93115 -3.76334,3.47126 -4.14526,0.54012 l 0,0 c -0.27477,-2.16087 -0.1014,-1.10338 -0.51301,-3.17363 -0.72292,-2.65729 -1.68769,-5.31357 -3.86819,-7.13487 -2.2456,-0.99444 -4.49453,-1.28278 -6.85451,-0.43348 -3.53485,1.43064 -5.92489,4.22158 -7.98492,7.37176 -3.5087,5.72366 -5.17269,12.13775 -6.41666,18.70277 -2.16783,10.06304 -3.37149,20.28719 -4.14729,30.54848 -0.80971,12.03435 -1.79553,24.0595 -2.96301,36.06421 -0.8669,9.80281 -1.7696,19.60691 -3.35992,29.32456 -1.18504,6.73354 -2.41385,13.57014 -5.86477,19.58247 -2.19415,3.79648 -4.72412,7.47104 -8.34945,10.04146 -3.1861,1.7296 -6.59998,2.95916 -10.28686,2.71405 -3.56877,-0.0682 -7.16838,-0.16594 -10.63568,-1.10977 -3.1036,-1.00057 -6.10814,-2.42388 -8.46592,-4.7309 -2.00516,-2.06428 -3.70028,-4.42839 -4.97452,-7.01567 -1.34035,-2.63456 2.3855,-4.53009 3.72585,-1.89553 z"
       id="path34597"
       style="fill:#000000;fill-opacity:1;fill-rule:nonzero;stroke:none" />
    <path
       style="fill:#000000;fill-opacity:1;fill-rule:nonzero;stroke:none"
       id="path34601"
       d="m 212.66293,476.21982 c 1.12446,-0.0139 2.28977,0.24898 3.23112,0.97354 0.28685,0.22079 0.53879,0.49346 0.80819,0.74019 0.22009,0.31509 0.46862,0.60777 0.66028,0.94527 0.58909,1.03729 0.86842,2.35965 0.87102,3.58037 6.7e-4,0.3184 -0.0357,0.63556 -0.0536,0.95334 -0.2798,1.83354 -1.09824,3.44987 -2.5007,4.49733 -0.26602,0.19869 -0.56112,0.34376 -0.84169,0.51564 -1.54136,0.70677 -3.23752,0.82089 -4.79526,0.0849 -0.30811,-0.14557 -0.59409,-0.34387 -0.89113,-0.51581 -0.28455,-0.25054 -0.58862,-0.47563 -0.85366,-0.75162 -0.89044,-0.92726 -1.56315,-2.32595 -1.66904,-3.69385 -0.0351,-0.45399 0.01,-0.9113 0.0143,-1.36695 0.10146,-0.42507 0.1642,-0.86413 0.30439,-1.27523 0.51404,-1.50736 1.61886,-2.69448 2.87215,-3.44461 0.29906,-0.17901 0.61846,-0.31188 0.92768,-0.46782 1.8012,-0.74245 3.82126,-0.71536 5.45969,0.51626 0.34798,0.26158 0.63765,0.60898 0.95648,0.91346 1.25442,1.62135 1.81136,3.64163 1.51997,5.7705 -0.0498,0.36404 -0.15826,0.71499 -0.23739,1.07249 -0.52605,1.61561 -1.5002,2.97302 -2.90549,3.72991 -0.96668,0.52067 -1.27475,0.48612 -2.30669,0.65916 -1.78352,0.0432 -3.49937,-0.60457 -4.91866,-1.81289 -0.26017,-0.2215 -0.49687,-0.47548 -0.74531,-0.71322 -1.0577,-1.17775 -1.98517,-2.67483 -2.03308,-4.41125 -0.0131,-0.47403 0.0699,-0.94528 0.10485,-1.41792 0.16456,-0.47255 0.27693,-0.97218 0.49366,-1.41767 0.73441,-1.50958 2.11982,-2.55257 3.5086,-3.1841 0.32221,-0.14651 0.65872,-0.25015 0.98808,-0.37522 2.00828,-0.58808 4.19988,-0.40031 5.77557,1.28058 0.32744,0.34931 0.56753,0.78833 0.8513,1.18249 0.17562,0.43441 0.40612,0.84602 0.52687,1.30322 0.47729,1.80711 0.16773,3.84117 -0.79087,5.38861 -0.24051,0.38825 -0.54637,0.72046 -0.81956,1.08069 -1.24461,1.19798 -2.73689,1.89698 -4.40246,1.803 -1.07421,-0.0606 -1.27305,-0.23274 -2.27003,-0.63294 -1.36189,-0.76678 -2.41085,-1.97404 -2.85893,-3.63327 -0.10696,-0.39606 -0.12674,-0.81521 -0.1901,-1.2228 -0.45438,-5.11057 6.01195,-5.82878 6.46633,-0.71822 l 0,0 c -0.14205,-0.45359 -0.38224,-1.055 -0.8763,-1.11044 -0.20208,0.01 -0.33472,0.0828 -0.47788,0.25288 -0.0107,0.0127 0.0223,0.0245 0.0335,0.0368 -0.0323,0.0592 -0.0645,0.11839 -0.0967,0.17758 -0.0245,0.0726 -0.0605,0.14163 -0.0735,0.21788 -0.004,0.0239 0.0195,0.0438 0.025,0.0673 0.0879,0.37712 0.13987,0.76755 0.41536,1.04757 0.248,0.21913 0.31904,0.32891 0.63118,0.42195 0.46961,0.13997 0.66971,-0.11454 0.10777,-0.024 -0.34157,0.0982 -0.27095,0.07 -0.57037,0.18207 -0.072,0.027 -0.2358,0.13801 -0.22263,0.0544 0.0467,-0.29646 0.32285,-0.52272 0.21802,-0.86956 -0.01,-0.1996 -0.002,-0.40134 -0.0294,-0.5988 -0.0287,-0.20292 -0.1253,-0.43527 -0.24262,-0.5967 -0.0807,-0.11096 0.24268,0.80036 0.18017,0.34222 0.13074,0.22672 0.60567,0.45289 0.66265,0.61252 0.008,0.0219 -0.0206,0.0412 -0.0309,0.0618 -0.0429,0.14251 0.0106,-1.4e-4 -0.15019,0.1936 -0.13545,0.16323 -0.24241,0.41659 -0.22304,0.63891 0.0132,-0.002 0.0317,-0.0177 0.0395,-0.006 0.0263,0.0404 0.0231,0.0983 0.0478,0.13989 0.0538,0.0908 0.26487,0.0951 0.31241,0.19695 0.20627,0.1113 0.27854,0.17664 0.50983,0.19982 0.0908,0.009 0.24744,-0.0267 0.3274,-0.0842 0.0179,-0.0129 0.0509,-0.0623 0.0296,-0.0632 -0.0776,-0.003 -0.15177,0.0369 -0.22765,0.0553 -0.0802,0.0135 -0.15696,0.0565 -0.23806,0.0562 -0.10942,-3.7e-4 0.27892,-0.83345 0.10707,-0.84245 -0.0784,-0.64312 -0.14072,-0.94503 -0.69559,-1.20384 -0.16537,-0.0216 -0.35417,-0.005 -0.43156,0.18981 -0.14642,0.18121 -0.26898,0.3764 -0.308,0.62434 -0.002,0.0117 0.0209,-0.004 0.0313,-0.006 0.003,0.0588 0.006,0.11764 0.009,0.17646 0.10712,0.17639 -0.0224,-0.18106 0.0959,-0.0117 0.27099,0.38786 0.006,0.0684 0.41733,0.51357 0.10451,0.0717 0.20457,0.15214 0.31354,0.21496 0.33459,0.1929 0.75088,0.0633 0.12277,0.0686 -4.59491,0 -4.59491,-7.26302 0,-7.26302 z"
       inkscape:connector-curvature="0" />
    <path
       inkscape:connector-curvature="0"
       d="m 294.1789,346.63032 c 1.12446,-0.0139 2.28977,0.24898 3.23112,0.97354 0.28685,0.22079 0.53879,0.49346 0.80819,0.74019 0.22009,0.31509 0.46862,0.60777 0.66028,0.94527 0.58909,1.03729 0.86842,2.35965 0.87102,3.58037 6.7e-4,0.3184 -0.0357,0.63556 -0.0536,0.95334 -0.2798,1.83354 -1.09824,3.44987 -2.5007,4.49733 -0.26602,0.19869 -0.56112,0.34376 -0.84169,0.51564 -1.54136,0.70677 -3.23752,0.82089 -4.79526,0.0849 -0.30811,-0.14557 -0.59409,-0.34387 -0.89113,-0.51581 -0.28455,-0.25054 -0.58862,-0.47563 -0.85366,-0.75162 -0.89044,-0.92726 -1.56315,-2.32595 -1.66904,-3.69385 -0.0351,-0.45399 0.01,-0.9113 0.0143,-1.36695 0.10146,-0.42507 0.1642,-0.86413 0.30439,-1.27523 0.51404,-1.50736 1.61886,-2.69448 2.87215,-3.44461 0.29906,-0.17901 0.61846,-0.31188 0.92768,-0.46782 1.8012,-0.74245 3.82126,-0.71536 5.45969,0.51626 0.34798,0.26158 0.63765,0.60898 0.95648,0.91346 1.25442,1.62135 1.81136,3.64163 1.51997,5.7705 -0.0498,0.36404 -0.15826,0.71499 -0.23739,1.07249 -0.52605,1.61561 -1.5002,2.97302 -2.90549,3.72991 -0.96668,0.52067 -1.27475,0.48612 -2.30669,0.65916 -1.78352,0.0432 -3.49937,-0.60457 -4.91866,-1.81289 -0.26017,-0.2215 -0.49687,-0.47548 -0.74531,-0.71322 -1.0577,-1.17775 -1.98517,-2.67483 -2.03308,-4.41125 -0.0131,-0.47403 0.0699,-0.94528 0.10485,-1.41792 0.16456,-0.47255 0.27693,-0.97218 0.49366,-1.41767 0.73441,-1.50958 2.11982,-2.55257 3.5086,-3.1841 0.32221,-0.14651 0.65872,-0.25015 0.98808,-0.37522 2.00828,-0.58808 4.19988,-0.40031 5.77557,1.28058 0.32744,0.34931 0.56753,0.78833 0.8513,1.18249 0.17562,0.43441 0.40612,0.84602 0.52687,1.30322 0.47729,1.80711 0.16773,3.84117 -0.79087,5.38861 -0.24051,0.38825 -0.54637,0.72046 -0.81956,1.08069 -1.24461,1.19798 -2.73689,1.89698 -4.40246,1.803 -1.07421,-0.0606 -1.27305,-0.23274 -2.27003,-0.63294 -1.36189,-0.76678 -2.41085,-1.97404 -2.85893,-3.63327 -0.10696,-0.39606 -0.12674,-0.81521 -0.1901,-1.2228 -0.45438,-5.11057 6.01195,-5.82878 6.46633,-0.71822 l 0,0 c -0.14205,-0.45359 -0.38224,-1.055 -0.8763,-1.11044 -0.20208,0.01 -0.33472,0.0828 -0.47788,0.25288 -0.0107,0.0127 0.0223,0.0245 0.0335,0.0368 -0.0323,0.0592 -0.0645,0.11839 -0.0967,0.17758 -0.0245,0.0726 -0.0605,0.14163 -0.0735,0.21788 -0.004,0.0239 0.0195,0.0438 0.025,0.0673 0.0879,0.37712 0.13987,0.76755 0.41536,1.04757 0.248,0.21913 0.31904,0.32891 0.63118,0.42195 0.46961,0.13997 0.66971,-0.11454 0.10777,-0.024 -0.34157,0.0982 -0.27095,0.07 -0.57037,0.18207 -0.072,0.027 -0.2358,0.13801 -0.22263,0.0544 0.0467,-0.29646 0.32285,-0.52272 0.21802,-0.86956 -0.01,-0.1996 -0.002,-0.40134 -0.0294,-0.5988 -0.0287,-0.20292 -0.1253,-0.43527 -0.24262,-0.5967 -0.0807,-0.11096 0.24268,0.80036 0.18017,0.34222 0.13074,0.22672 0.60567,0.45289 0.66265,0.61252 0.008,0.0219 -0.0206,0.0412 -0.0309,0.0618 -0.0429,0.14251 0.0106,-1.4e-4 -0.15019,0.1936 -0.13545,0.16323 -0.24241,0.41659 -0.22304,0.63891 0.0132,-0.002 0.0317,-0.0177 0.0395,-0.006 0.0263,0.0404 0.0231,0.0983 0.0478,0.13989 0.0538,0.0908 0.26487,0.0951 0.31241,0.19695 0.20627,0.1113 0.27854,0.17664 0.50983,0.19982 0.0908,0.009 0.24744,-0.0267 0.3274,-0.0842 0.0179,-0.0129 0.0509,-0.0623 0.0296,-0.0632 -0.0776,-0.003 -0.15177,0.0369 -0.22765,0.0553 -0.0802,0.0135 -0.15696,0.0565 -0.23806,0.0562 -0.10942,-3.7e-4 0.27892,-0.83345 0.10707,-0.84245 -0.0784,-0.64312 -0.14072,-0.94503 -0.69559,-1.20384 -0.16537,-0.0216 -0.35417,-0.005 -0.43156,0.18981 -0.14642,0.18121 -0.26898,0.3764 -0.308,0.62434 -0.002,0.0117 0.0209,-0.004 0.0313,-0.006 0.003,0.0588 0.006,0.11764 0.009,0.17646 0.10712,0.17639 -0.0224,-0.18106 0.0959,-0.0117 0.27099,0.38786 0.006,0.0684 0.41733,0.51357 0.10451,0.0717 0.20457,0.15214 0.31354,0.21496 0.33459,0.1929 0.75088,0.0633 0.12277,0.0686 -4.59491,0 -4.59491,-7.26302 0,-7.26302 z"
       id="path34605"
       style="fill:#000000;fill-opacity:1;fill-rule:nonzero;stroke:none" />
    <path
       inkscape:connector-curvature="0"
       d="m 720.72238,495.90079 c 0.33245,-5.79419 0.38212,-11.5926 0.34643,-17.38971 -0.44546,-15.37316 -0.42876,-30.74666 -0.43029,-46.1212 0.20823,-20.7593 -0.0955,-41.51822 -0.47665,-62.27618 -0.25312,-13.62673 -0.16891,-6.87558 -0.25711,-20.25343 -0.011,-1.6827 4.16918,-1.69162 4.18026,-0.009 l 0,0 c 0.088,13.36171 0.004,6.61588 0.25692,20.23749 0.38131,20.7662 0.68511,41.53338 0.4769,62.30091 10e-4,15.37184 -0.015,30.74261 0.43024,46.11306 0.0352,5.80986 -0.0136,11.62103 -0.34678,17.42797 -0.037,1.68257 -4.21721,1.65259 -4.17997,-0.03 z"
       id="path34607"
       style="fill:#000000;fill-opacity:1;fill-rule:nonzero;stroke:none" />
    <path
       style="fill:#000000;fill-opacity:1;fill-rule:nonzero;stroke:none"
       id="path34609"
       d="m 595.72625,475.54135 c 10.17628,0.3917 20.3616,0.50067 30.54514,0.52427 27.00743,-0.28823 54.01274,-0.1143 81.02001,0.0414 36.46503,0.42054 72.93237,0.32912 109.39848,0.16027 23.9385,-0.11375 12.07879,-0.0986 35.57913,-0.05 2.95592,0.006 2.94725,4.18641 -0.009,4.18028 l 0,0 c -23.47198,-0.0487 -11.62162,-0.0637 -35.55112,0.0499 -36.48058,0.16892 -72.96243,0.26032 -109.44192,-0.16028 -27.00251,-0.15621 -54.00306,-0.32941 -81.00572,-0.0414 -10.20594,-0.0242 -20.41367,-0.13245 -30.61233,-0.52501 -2.95542,-0.0542 -2.87844,-4.23404 0.077,-4.17959 z"
       inkscape:connector-curvature="0" />
    <path
       inkscape:connector-curvature="0"
       id="path34611"
       d="m 607.53783,477.94834 115.65513,0 c 106.84712,-102.09145 3.26433,-2.78687 108.68796,-104.50765"
       style="fill:none;stroke:#000000;stroke-width:9.14881897;stroke-linecap:round;stroke-linejoin:miter;stroke-miterlimit:4;stroke-opacity:1;stroke-dasharray:none"
       sodipodi:nodetypes="ccc" />
    <path
       inkscape:connector-curvature="0"
       d="m 839.10608,469.67639 c 2.51164,1.66918 5.38267,2.47559 8.2617,3.2613 2.94216,0.87869 5.92717,1.63404 8.9211,2.31843 1.06086,0.21319 2.12365,0.43788 3.20038,0.55742 -0.55214,3.53109 1.44905,3.98269 -1.0621,4.30805 -1.69236,0.25422 -3.25817,1.03128 -4.92834,1.51723 -3.69316,1.36677 -7.48394,2.41162 -11.32034,3.28419 -1.54995,0.47127 -3.0577,1.06452 -4.5526,1.68509 -2.73052,1.13212 -4.3316,-2.72944 -1.60107,-3.86155 l 0,0 c 1.71359,-0.70971 3.44241,-1.38904 5.22779,-1.90003 3.75931,-0.85256 7.46707,-1.89033 11.08696,-3.22405 1.86048,-0.53191 3.62715,-1.40811 5.55186,-1.64671 0.0267,-0.003 1.03329,-0.13562 1.03595,-0.12599 1.05919,3.83638 1.87296,4.27735 0.09,4.11735 -1.23266,-0.14164 -2.45161,-0.38437 -3.66544,-0.63706 -3.04872,-0.70495 -6.09211,-1.46337 -9.08929,-2.36081 -3.1911,-0.8783 -6.38273,-1.80717 -9.1802,-3.63504 -2.58649,-1.43092 -0.56284,-5.08877 2.02366,-3.65782 z"
       id="path34613"
       style="fill:#000000;fill-opacity:1;fill-rule:nonzero;stroke:none" />
    <path
       style="fill:#000000;fill-opacity:1;fill-rule:nonzero;stroke:none"
       id="path34615"
       d="m 713.47744,367.22614 c 1.58613,-2.5649 2.29819,-5.46078 2.9893,-8.36397 0.78198,-2.96932 1.43928,-5.97744 2.02536,-8.99216 0.17837,-1.06727 0.36819,-2.13684 0.45244,-3.2169 3.54726,0.43634 3.93315,-1.57856 4.34049,0.9206 0.30945,1.68314 1.13731,3.2227 1.67764,4.87608 1.48684,3.64647 2.65513,7.40104 3.65273,11.20685 0.52172,1.5337 1.16397,3.02124 1.83311,4.49504 1.22083,2.69203 -2.58628,4.41856 -3.80711,1.72653 l 0,0 c -0.76538,-1.68945 -1.5009,-3.39513 -2.07002,-5.16284 -0.97508,-3.72941 -2.13358,-7.40124 -3.585,-10.97557 -0.59248,-1.84207 -1.52601,-3.57913 -1.82744,-5.49501 -0.004,-0.0267 -0.16934,-1.02831 -0.15981,-1.03128 3.79968,-1.18411 4.21379,-2.01188 4.1122,-0.22461 -0.10173,1.23659 -0.30398,2.46287 -0.51681,3.68432 -0.60484,3.07014 -1.2633,6.13671 -2.06222,9.16165 -0.77344,3.21812 -1.59741,6.43843 -3.33279,9.29419 -1.34555,2.63191 -5.06764,0.729 -3.72207,-1.90292 z"
       inkscape:connector-curvature="0" />
    <path
       style="fill:#000000;fill-opacity:1;fill-rule:nonzero;stroke:none"
       id="path34639"
       d="m 559.41489,407.86324 c 6.47481,1.41463 13.09589,1.43548 19.6502,1.65561 6.66736,0.18188 13.33632,0.24993 20.00513,0.27136 3.89699,0.0131 3.88276,6.87622 -0.0142,6.86369 l 0,0 c -6.71366,-0.0217 -13.42749,-0.0903 -20.13968,-0.27384 -6.95244,-0.23417 -13.98159,-0.25584 -20.83807,-1.85804 -3.78065,-1.17712 -2.44398,-7.8359 1.33666,-6.65878 z"
       inkscape:connector-curvature="0" />
    <path
       style="fill:#000000;fill-opacity:1;fill-rule:nonzero;stroke:none"
       id="path34643"
       d="m 560.80337,425.79035 c 7.30015,0.16519 14.57499,-0.79364 21.85344,-1.3712 4.92241,-0.37143 9.85057,-0.59214 14.77957,-0.76732 3.89543,-0.13825 4.05249,6.7226 0.15707,6.86092 l 0,0 c -4.86453,0.17258 -9.72823,0.39018 -14.58629,0.75623 -7.39498,0.58648 -14.78659,1.55411 -22.20379,1.38508 -3.897,0 -3.897,-6.86371 0,-6.86371 z"
       inkscape:connector-curvature="0" />
  </g>
</svg>
