<?xml version="1.0" encoding="UTF-8" standalone="no"?>
<!-- Created with Inkscape (http://www.inkscape.org/) -->

<svg
   xmlns:dc="http://purl.org/dc/elements/1.1/"
   xmlns:cc="http://creativecommons.org/ns#"
   xmlns:rdf="http://www.w3.org/1999/02/22-rdf-syntax-ns#"
   xmlns:svg="http://www.w3.org/2000/svg"
   xmlns="http://www.w3.org/2000/svg"
   xmlns:sodipodi="http://sodipodi.sourceforge.net/DTD/sodipodi-0.dtd"
   xmlns:inkscape="http://www.inkscape.org/namespaces/inkscape"
   width="351.61813"
   height="328.81876"
   id="svg6509"
   version="1.1"
   inkscape:version="0.48.0 r9654"
   sodipodi:docname="LegDiagram.pdf">
  <defs
     id="defs6511">
    <inkscape:path-effect
       effect="spiro"
       id="path-effect7189"
       is_visible="true" />
  </defs>
  <sodipodi:namedview
     inkscape:document-units="mm"
     pagecolor="#ffffff"
     bordercolor="#666666"
     borderopacity="1.0"
     inkscape:pageopacity="0.0"
     inkscape:pageshadow="2"
     inkscape:zoom="0.7176508"
     inkscape:cx="160.95821"
     inkscape:cy="61.981707"
     inkscape:current-layer="layer1"
     id="namedview6513"
     showgrid="false"
     fit-margin-top="0"
     fit-margin-left="0"
     fit-margin-right="0"
     fit-margin-bottom="0"
     inkscape:window-width="1280"
     inkscape:window-height="752"
     inkscape:window-x="0"
     inkscape:window-y="0"
     inkscape:window-maximized="0" />
  <metadata
     id="metadata6515">
    <rdf:RDF>
      <cc:Work
         rdf:about="">
        <dc:format>image/svg+xml</dc:format>
        <dc:type
           rdf:resource="http://purl.org/dc/dcmitype/StillImage" />
        <dc:title></dc:title>
      </cc:Work>
    </rdf:RDF>
  </metadata>
  <g
     inkscape:label="Layer 1"
     inkscape:groupmode="layer"
     id="layer1"
     transform="translate(-365.22288,-105.21019)">
    <path
       style="fill:#000000;fill-opacity:1;fill-rule:nonzero;stroke:none"
       id="path7177"
       d="m 367.47503,429.74145 c 8.42715,0.27855 16.85305,-0.0563 25.27949,-0.20451 23.37287,-0.73526 46.75962,-0.83537 70.14138,-1.07459 36.76054,-0.58199 73.51864,-1.20145 110.284,-1.34525 37.20022,0.0463 74.40573,0.23621 111.59562,1.15922 20.3471,0.62148 10.37482,0.30554 29.91694,0.94518 2.95434,0.0967 2.81757,4.27477 -0.13682,4.17807 l 0,0 c -19.52503,-0.63909 -9.56374,-0.32349 -29.88391,-0.94424 -37.14986,-0.92262 -74.31537,-1.11106 -111.47554,-1.15795 -36.75655,0.14364 -73.50584,0.7635 -110.25758,1.34506 -23.37152,0.23909 -46.74802,0.33916 -70.11066,1.07416 -8.47433,0.14893 -16.94824,0.48401 -25.42329,0.20457 -2.95551,-0.0497 -2.88519,-4.22946 0.0704,-4.17972 z"
       inkscape:connector-curvature="0" />
    <path
       style="fill:#000000;fill-opacity:1;fill-rule:nonzero;stroke:none"
       id="path7179"
       d="m 495.56844,212.95363 c 4.95715,7.5846 9.38228,15.48602 13.81039,23.38553 8.51134,15.12904 17.28383,30.11866 25.51398,45.40329 5.03974,8.95208 8.70016,18.52445 12.65319,27.96985 0.75658,1.98702 1.60856,3.95516 2.14992,6.01692 0.0105,0.0496 0.12762,0.5661 0.0916,0.57914 -7.3184,2.64907 -3.24539,0.39711 -0.47343,-1.22439 1.33019,1.54349 -5.92938,2.90968 -1.86927,3.2676 0.29001,0.0256 0.79404,-0.50621 0.84534,-0.21963 0.0705,0.394 -0.47434,0.64486 -0.71151,0.96729 -4.52605,6.57965 -9.23045,13.03307 -13.82952,19.56129 -7.28885,10.18987 -14.53597,20.39758 -21.04074,31.11061 -4.42815,7.58325 -8.6614,15.27643 -12.74799,23.04832 -2.18701,4.04975 -4.33618,8.11725 -6.65408,12.09451 -0.40356,0.64521 -0.75396,1.32789 -1.2023,1.94464 -3.18965,-2.18169 -5.97584,-4.26947 0.30125,-0.53275 9e-5,5e-5 -0.0694,0.15345 -0.0865,0.19128 -3.77181,-5.75293 0.50563,-1.66784 1.91671,-0.50187 3.29404,2.75985 6.14212,6.01757 9.10262,9.12505 2.40569,2.5033 4.8917,4.94275 7.63095,7.08253 0.74571,0.55734 1.52757,1.04664 2.22691,1.66271 0.34726,0.31312 0.68386,0.63769 1.01405,0.96866 0.0684,0.0665 0.13019,0.13914 0.19331,0.21054 1.88847,2.27401 -1.32748,4.94472 -3.21595,2.6707 l 0,0 c 0.0156,0.0182 0.0632,0.0724 0.0469,0.0547 -0.26425,-0.26547 -0.53458,-0.52484 -0.81173,-0.77685 -0.62616,-0.56075 -1.37726,-0.9589 -2.02958,-1.49827 -2.89548,-2.26909 -5.53783,-4.83862 -8.08149,-7.49128 -2.85191,-2.99351 -5.59142,-6.13794 -8.75849,-8.80241 -0.3631,-0.30672 -0.73466,-0.60369 -1.0893,-0.92015 -0.22489,-0.20067 -0.92226,-0.6511 -0.62092,-0.65733 0.19422,-0.004 0.65217,0.29793 0.56988,0.12196 -0.49826,-1.06552 -2.45063,-1.93121 -1.90241,-2.97207 0.40541,-0.89667 9.89361,4.46539 0.26438,-0.46304 0.0606,-0.0972 0.75785,-1.22126 0.9201,-1.52185 2.28775,-3.9245 4.40672,-7.93921 6.56572,-11.93502 4.1269,-7.84791 8.40157,-15.61658 12.87514,-23.27299 6.55774,-10.79148 13.84816,-21.08388 21.19619,-31.34797 4.617,-6.55305 9.33753,-13.03254 13.88325,-19.6358 0.64645,-0.87358 1.36852,-2.06863 2.51605,-2.38447 0.60909,-0.16764 1.99319,-0.32428 1.87201,0.29573 -1.05079,5.37608 -1.82833,4.17113 -2.66823,3.01643 3.49255,-2.78017 5.33222,-3.76109 -0.31943,-0.97469 -0.062,0.0306 0.0285,0.29905 0.0331,0.20474 -0.46954,-1.87282 -1.30419,-3.64045 -1.95877,-5.44881 -3.89989,-9.32035 -7.50339,-18.76903 -12.47769,-27.60196 -8.21685,-15.2648 -16.98194,-30.2315 -25.4797,-45.34089 -4.40796,-7.8638 -8.81374,-15.7286 -13.74848,-23.27881 -1.52081,-2.53468 2.06377,-4.68543 3.58458,-2.15075 z"
       inkscape:connector-curvature="0" />
    <path
       inkscape:connector-curvature="0"
       d="m 576.54543,212.39456 c 2.31486,8.76018 4.02497,17.65343 5.73852,26.5458 3.31087,17.04021 6.91352,34.03039 9.9085,51.12967 1.96237,10.08404 2.42023,20.32217 3.19581,30.53199 0.092,2.1242 0.28041,4.26053 0.14457,6.38785 -0.006,0.0504 -0.0572,0.57747 -0.0955,0.5785 -7.78031,0.20822 -3.20521,-0.64569 -0.0635,-1.31119 0.7761,1.88399 -6.54416,0.89321 -2.80363,2.51218 0.26717,0.11567 0.91309,-0.23024 0.87148,0.0579 -0.0572,0.39614 -0.65336,0.46255 -0.98004,0.69383 -6.36866,4.81842 -12.86681,9.46084 -19.28856,14.20744 -10.12825,7.37423 -20.22252,14.77854 -29.77148,22.89633 -6.59196,5.80174 -13.03359,11.76923 -19.36082,17.85762 -3.35163,3.15438 -6.67294,6.33752 -10.12594,9.38186 -0.5863,0.48519 -1.13396,1.02269 -1.75379,1.46676 -2.33976,-3.07557 -4.32621,-5.93489 0.45377,-0.41069 7e-5,7e-5 -0.11422,0.12376 -0.14237,0.15428 -1.76702,-6.64834 1.00539,-1.42357 1.97722,0.12762 2.25666,3.65717 3.93321,7.64634 5.7638,11.52835 1.4944,3.13378 3.08515,6.23228 5.01066,9.12616 0.53211,0.76392 1.11998,1.47465 1.58958,2.27969 0.23091,0.40658 0.4481,0.82068 0.65719,1.23883 0.044,0.0847 0.0797,0.17307 0.11712,0.26072 1.07578,2.75321 -2.81787,4.27459 -3.89363,1.52137 l 0,0 c 0.009,0.0222 0.0372,0.0886 0.0273,0.0667 -0.16714,-0.33521 -0.34198,-0.66654 -0.52561,-0.99304 -0.41758,-0.72948 -1.00497,-1.34401 -1.45412,-2.06144 -2.03304,-3.06584 -3.73117,-6.33705 -5.30946,-9.65606 -1.76343,-3.73962 -3.37264,-7.58707 -5.53885,-11.11371 -0.24797,-0.40551 -0.50703,-0.80442 -0.74389,-1.21651 -0.15021,-0.2613 -0.67014,-0.90852 -0.38218,-0.81949 0.18559,0.0574 0.52508,0.48825 0.50242,0.29531 -0.13715,-1.16824 -1.71731,-2.60499 -0.86905,-3.4201 0.66729,-0.72326 7.98269,7.35526 0.39681,-0.35615 0.0881,-0.0732 1.10405,-0.92027 1.35274,-1.15443 3.40777,-3.00376 6.68378,-6.14632 9.99183,-9.25833 6.38945,-6.14784 12.89417,-12.17392 19.55229,-18.03079 9.62394,-8.17555 19.78599,-15.64659 29.9938,-23.07262 6.44659,-4.76451 12.96826,-9.42659 19.36303,-14.26122 0.88877,-0.62539 1.9506,-1.53206 3.1392,-1.47024 0.63088,0.0328 1.99384,0.32026 1.68347,0.87051 -2.69118,4.77115 -3.04946,3.38258 -3.48275,2.02206 4.19064,-1.53811 6.24568,-1.88941 0.004,-1.02569 -0.0685,0.01 -0.0672,0.2928 -0.0331,0.20474 0.14447,-1.92537 -0.0907,-3.86595 -0.14216,-5.78844 -0.76455,-10.0744 -1.20736,-20.17721 -3.14517,-30.12755 -2.9886,-17.07627 -6.59145,-34.04236 -9.89563,-51.05965 -1.70567,-8.85213 -3.40896,-17.70452 -5.71338,-26.425 -0.64471,-2.88476 3.43495,-3.79651 4.07966,-0.91176 z"
       id="path7181"
       style="fill:#000000;fill-opacity:1;fill-rule:nonzero;stroke:none" />
    <path
       style="fill:none;stroke:#000000;stroke-width:2.41653538;stroke-linecap:butt;stroke-linejoin:miter;stroke-miterlimit:4;stroke-opacity:1;stroke-dasharray:2.41653543, 4.83307087;stroke-dashoffset:0"
       inkscape:path-effect="#path-effect7189"
       inkscape:original-d="m 431.96496,185.32691 c 25.40854,13.70319 51.67489,27.46697 80.7647,30.97931 10.97344,1.41942 21.92984,4.63929 33.06168,2.72868 11.37009,-1.52386 23.08681,-2.36036 33.51889,-7.60586 14.42241,-6.29649 28.73515,-12.94337 41.80277,-21.80456 5.21748,-3.30857 10.40324,-6.66854 15.68696,-9.87131"
       id="path7187"
       d="m 431.96496,185.32691 c 24.7889,15.02745 52.2849,25.57423 80.7647,30.97931 10.89222,2.0672 21.99484,3.39105 33.06168,2.72868 11.48093,-0.68716 22.77142,-3.51004 33.51889,-7.60586 14.70796,-5.60514 28.39853,-13.55422 41.80277,-21.80456 5.26146,-3.23844 10.49079,-6.5291 15.68696,-9.87131"
       inkscape:connector-curvature="0" />
    <path
       style="fill:#000000;fill-opacity:1;fill-rule:nonzero;stroke:none"
       id="path7197"
       d="m 675.7505,154.06959 c -3.77441,3.5596 -7.77939,6.8465 -11.89645,10.00062 -6.11251,4.53214 -12.44358,8.75775 -18.79258,12.9484 -1.76895,1.29687 -3.55856,2.34942 -5.75816,2.48359 -2.94731,-0.22539 -2.62857,-4.39351 0.31874,-4.16815 l 0,0 c -1.5862,0.48158 3.32781,-1.15292 3.13663,-1.8043 6.26753,-4.13672 12.51779,-8.30729 18.55381,-12.77848 3.93807,-3.01435 7.76334,-6.15683 11.38946,-9.54198 2.02252,-2.15565 5.07108,0.70464 3.04855,2.8603 z"
       inkscape:connector-curvature="0" />
    <path
       style="fill:#000000;fill-opacity:1;fill-rule:nonzero;stroke:none"
       id="path7201"
       d="m 675.55128,150.48633 c -3.70688,0.81567 -7.49489,1.19027 -11.24074,1.80885 -2.06174,0.20056 -4.12285,0.40738 -6.18334,0.62034 -2.94027,0.30386 -3.37004,-3.85427 -0.42979,-4.15815 l 0,0 c 1.97686,-0.20429 3.95378,-0.40858 5.93319,-0.58683 3.5223,-0.57966 7.07181,-0.97914 10.57677,-1.6426 2.79901,-0.95028 4.1429,3.00813 1.34389,3.95839 z"
       inkscape:connector-curvature="0" />
    <path
       style="fill:#000000;fill-opacity:1;fill-rule:nonzero;stroke:none"
       id="path7203"
       d="m 679.48165,149.68305 c -0.33913,3.60601 -1.37528,7.11023 -2.2339,10.61937 -0.63933,1.79846 -0.61635,3.6651 -0.73115,5.53514 -0.18315,2.95025 -4.35541,2.69123 -4.17227,-0.25903 l 0,0 c 0.13288,-2.11407 0.1517,-4.23481 0.8429,-6.26967 0.80276,-3.28084 1.77877,-6.55696 2.12472,-9.92332 0.21037,-2.94842 4.38008,-2.65091 4.1697,0.29751 z"
       inkscape:connector-curvature="0" />
    <path
       inkscape:connector-curvature="0"
       d="m 421.37822,180.6343 c -3.978,-3.33054 -7.71224,-6.92204 -11.32778,-10.64045 -5.21824,-5.53832 -10.15774,-11.32967 -15.0646,-17.14293 -1.49553,-1.60451 -2.75085,-3.25821 -3.14226,-5.42686 -0.1221,-2.95339 4.05462,-3.12607 4.17675,-0.17268 l 0,0 c -0.66442,-1.51871 1.53553,3.16948 2.15998,2.90318 4.84375,5.73868 9.71909,11.45623 14.86782,16.92575 3.45573,3.55706 7.02546,6.98705 10.81281,10.19079 2.37814,1.75554 -0.10457,5.11873 -2.48272,3.3632 z"
       id="path7205"
       style="fill:#000000;fill-opacity:1;fill-rule:nonzero;stroke:none" />
    <path
       inkscape:connector-curvature="0"
       d="m 424.91334,180.01589 c -1.24511,-3.58553 -2.06172,-7.30339 -3.11568,-10.95075 -0.44116,-2.02394 -0.88847,-4.04654 -1.34179,-6.06779 -0.64687,-2.88429 3.43208,-3.79913 4.07896,-0.91487 l 0,0 c 0.4349,1.93923 0.86981,3.87851 1.27916,5.82331 0.98907,3.42992 1.80239,6.90801 2.87264,10.31088 1.27223,2.66813 -2.50108,4.46732 -3.7733,1.7992 z"
       id="path7207"
       style="fill:#000000;fill-opacity:1;fill-rule:nonzero;stroke:none" />
    <path
       inkscape:connector-curvature="0"
       d="m 426.17238,183.82481 c -3.62089,0.0864 -7.22251,-0.53124 -10.80817,-0.97207 -1.86107,-0.42383 -3.71211,-0.1819 -5.5827,-0.0764 -2.95136,0.16438 -3.18382,-4.00944 -0.23246,-4.17384 l 0,0 c 2.11505,-0.11617 4.22335,-0.34639 6.32527,0.1012 3.35238,0.41214 6.72041,0.99688 10.10411,0.94533 2.95273,-0.13715 3.14668,4.03867 0.19395,4.1758 z"
       id="path7209"
       style="fill:#000000;fill-opacity:1;fill-rule:nonzero;stroke:none" />
    <path
       style="fill:#000000;fill-opacity:1;fill-rule:nonzero;stroke:none"
       id="path7219"
       d="m 494.07711,209.17508 c 0.46202,1.79238 0.78628,3.61741 1.10179,5.44034 -0.0822,3.06062 -2.78861,3.59551 -5.24357,3.2861 -1.74264,-0.40611 -3.06648,-1.24331 -3.90648,-2.84727 -0.59068,-1.31244 -0.48046,-2.60888 -0.14697,-3.95702 0.81066,-1.81863 2.55489,-2.37456 4.36306,-2.67209 1.81398,-0.33809 3.34053,0.33596 4.75,1.40228 1.23088,1.14167 1.58947,2.64056 1.73476,4.24713 -0.17928,2.81235 -2.3572,3.58913 -4.80586,3.89165 -2.66947,0.35256 -4.60554,-0.76367 -5.73393,-3.16288 -0.99247,-2.65264 -0.17591,-4.9718 1.56679,-7.04795 1.59076,-1.39848 3.56163,-1.9156 5.60639,-2.18829 3.56653,0.37957 3.31899,4.26442 3.40861,6.99184 0.008,1.00893 0.0514,2.0203 0.008,3.02908 -0.1524,2.95199 -4.32714,2.73648 -4.17475,-0.21551 l 0,0 c 0.0167,-0.89245 0.0101,-1.78577 -0.0113,-2.67833 -0.026,-0.81817 -0.0366,-1.40137 -0.0952,-2.21942 -0.0679,-0.94743 -0.15413,-1.2456 -0.0947,-1.23654 3.14339,0.47921 -0.54224,0.59478 1.4993,0.47418 -1.05996,0.1334 -2.11188,0.32534 -3.05409,0.85606 -0.82602,0.70101 -1.11655,1.51846 -0.82867,2.56046 0.0381,0.11103 0.11312,0.2157 0.11436,0.33308 8.7e-4,0.0822 -0.26377,0.0985 -0.19767,0.14738 0.41123,0.3039 1.04176,0.25589 1.49242,0.20589 1.69503,-0.19159 0.93111,-0.39131 1.13552,0.61846 -0.0445,-0.55649 0.009,-1.04813 -0.32887,-1.46574 -0.74641,-0.5207 -0.29563,-0.49413 -1.33114,-0.41494 -0.4797,0.0732 -1.21041,0.31627 -1.10532,0.003 -0.0956,-0.81752 -9.9e-4,0.56159 -0.0185,0.65564 0.0108,0.0821 -0.29463,0.0258 -0.23423,0.0824 0.30037,0.28143 0.8472,0.30246 1.19188,0.50543 1.52364,0.20675 -0.002,0.12046 0.32116,1.52897 -0.29779,-1.72183 -0.60126,-3.44633 -1.03818,-5.13913 -0.71691,-2.86767 3.33858,-3.88154 4.0555,-1.01388 z"
       inkscape:connector-curvature="0" />
    <path
       inkscape:connector-curvature="0"
       d="m 576.2898,210.56852 c 0.46202,1.79238 0.78628,3.61741 1.10179,5.44034 -0.0822,3.06062 -2.78861,3.59551 -5.24357,3.2861 -1.74264,-0.40611 -3.06648,-1.24331 -3.90648,-2.84727 -0.59068,-1.31244 -0.48046,-2.60888 -0.14697,-3.95702 0.81066,-1.81863 2.55489,-2.37456 4.36306,-2.67209 1.81398,-0.33809 3.34053,0.33596 4.75,1.40228 1.23088,1.14167 1.58947,2.64056 1.73476,4.24713 -0.17928,2.81235 -2.3572,3.58913 -4.80586,3.89165 -2.66947,0.35256 -4.60554,-0.76367 -5.73393,-3.16288 -0.99247,-2.65264 -0.17591,-4.9718 1.56679,-7.04795 1.59076,-1.39848 3.56163,-1.9156 5.60639,-2.18829 3.56653,0.37957 3.31899,4.26442 3.40861,6.99184 0.008,1.00893 0.0514,2.0203 0.008,3.02908 -0.1524,2.95199 -4.32714,2.73648 -4.17475,-0.21551 l 0,0 c 0.0167,-0.89245 0.0101,-1.78577 -0.0113,-2.67833 -0.026,-0.81817 -0.0366,-1.40137 -0.0952,-2.21942 -0.0679,-0.94743 -0.15413,-1.2456 -0.0947,-1.23654 3.14339,0.47921 -0.54224,0.59478 1.4993,0.47418 -1.05996,0.1334 -2.11188,0.32534 -3.05409,0.85606 -0.82602,0.70101 -1.11655,1.51846 -0.82867,2.56046 0.0381,0.11103 0.11312,0.2157 0.11436,0.33308 8.7e-4,0.0822 -0.26377,0.0985 -0.19767,0.14738 0.41123,0.3039 1.04176,0.25589 1.49242,0.20589 1.69503,-0.19159 0.93111,-0.39131 1.13552,0.61846 -0.0445,-0.55649 0.009,-1.04813 -0.32887,-1.46574 -0.74641,-0.5207 -0.29563,-0.49413 -1.33114,-0.41494 -0.4797,0.0732 -1.21041,0.31627 -1.10532,0.003 -0.0956,-0.81752 -9.9e-4,0.56159 -0.0185,0.65564 0.0108,0.0821 -0.29463,0.0258 -0.23423,0.0824 0.30037,0.28143 0.8472,0.30246 1.19188,0.50543 1.52364,0.20675 -0.002,0.12046 0.32116,1.52897 -0.29779,-1.72183 -0.60126,-3.44633 -1.03818,-5.13913 -0.71691,-2.86767 3.33858,-3.88154 4.0555,-1.01388 z"
       id="path7221"
       style="fill:#000000;fill-opacity:1;fill-rule:nonzero;stroke:none" />
    <path
       style="fill:#000000;fill-opacity:1;fill-rule:nonzero;stroke:none"
       id="path7223"
       d="m 402.36415,130.20289 c 1.9432,3.45776 3.85184,6.92902 5.716,10.41796 1.84293,3.50709 3.76246,6.98011 5.75206,10.42953 1.16017,2.09435 1.16044,1.08332 -0.46756,0.90608 -0.21337,-0.0233 -0.49736,0.31738 -0.61449,0.16588 -0.17542,-0.22689 0.0802,-0.53676 0.12027,-0.80514 0.3159,-4.3814 0.57774,-8.76773 1.09407,-13.13703 0.28489,-2.17951 0.62208,-4.35381 0.94106,-6.5299 0.25784,-1.75887 3.22122,-1.45281 2.96339,0.30606 l 0,0 c -0.31616,2.15681 -0.65025,4.31185 -0.93338,6.47197 -0.52498,4.41494 -0.76616,8.84821 -1.11482,13.27376 -0.17015,0.81931 -0.22145,2.15331 -1.37842,2.59162 -2.00185,0.75838 -2.70847,-1.14124 -3.29746,-2.15119 -2.00231,-3.47144 -3.93404,-6.96676 -5.78901,-10.49607 -1.84701,-3.45686 -3.73706,-6.89675 -5.66223,-10.32273 -0.94418,-1.58505 1.72635,-2.70585 2.67052,-1.1208 z"
       inkscape:connector-curvature="0" />
    <path
       style="fill:#000000;fill-opacity:1;fill-rule:nonzero;stroke:none"
       id="path7225"
       d="m 425.82637,130.23536 c 2.86801,0.38286 5.78627,-0.11399 8.62657,-0.46128 0.52125,-0.0607 1.04249,-0.12147 1.56374,-0.1822 2.09119,-0.24362 2.50164,2.23877 0.41046,2.48238 l 0,0 c -0.51463,0.0599 -1.02925,0.11989 -1.54388,0.17983 -3.34849,0.4093 -6.81687,0.99419 -10.16577,0.3082 -1.96023,-0.65816 -0.85135,-2.98508 1.10888,-2.32693 z"
       inkscape:connector-curvature="0" />
    <path
       style="fill:#000000;fill-opacity:1;fill-rule:nonzero;stroke:none"
       id="path7227"
       d="m 637.3813,129.98957 c 2.0539,2.86696 3.58179,6.07913 5.2133,9.18386 1.45012,2.84682 3.09186,5.59617 4.49667,8.46427 0.58966,1.31324 0.41745,0.27724 -0.52932,0.13251 -1.01944,-0.15584 -1.27872,0.95571 -0.74721,-0.67048 0.86764,-3.44951 1.53975,-6.93642 2.04674,-10.44993 0.46154,-3.53856 0.66871,-7.10104 0.79356,-10.66311 0.007,-0.26101 0.0141,-0.52201 0.0211,-0.78301 0.0472,-1.75021 2.6361,-1.68635 2.58886,0.0639 l 0,0 c -0.007,0.26739 -0.0144,0.53478 -0.0217,0.80217 -0.12817,3.64772 -0.3418,7.29579 -0.81651,10.91921 -0.52868,3.64807 -1.22222,7.2711 -2.14025,10.8494 -0.0551,0.16852 -0.47797,1.52332 -0.60046,1.64018 -1.48103,1.41303 -2.36186,0.57878 -2.94031,-0.7911 -1.39366,-2.84775 -3.02905,-5.57462 -4.46531,-8.40244 -1.5113,-2.87619 -2.97209,-5.80187 -4.73039,-8.5446 -1.29488,-1.23799 0.53634,-2.98879 1.83121,-1.75079 z"
       inkscape:connector-curvature="0" />
    <path
       style="fill:#000000;fill-opacity:1;fill-rule:nonzero;stroke:none"
       id="path7229"
       d="m 657.39008,126.8548 c 2.17007,0 4.34014,0 6.5102,0 1.21149,0 2.42298,0 3.63448,0 0.0769,0 0.1537,0 0.23055,0 1.83121,0 1.83121,2.476 0,2.476 l 0,0 c -0.0769,0 -0.1537,0 -0.23055,0 -1.2115,0 -2.42299,0 -3.63448,0 -2.17006,0 -4.34013,0 -6.5102,0 -1.83121,0 -1.83121,-2.476 0,-2.476 z"
       inkscape:connector-curvature="0" />
    <path
       style="fill:#000000;fill-opacity:1;fill-rule:nonzero;stroke:none"
       id="path7231"
       d="m 663.34813,121.15842 c -0.0639,2.21008 -0.008,4.4036 0.46789,6.57194 0.35361,1.36983 0.82201,2.71075 1.10867,4.09562 0.0239,0.16834 0.0478,0.33667 0.0717,0.50501 0.23733,1.73603 -2.33056,2.05693 -2.5679,0.3209 l 0,0 c -0.015,-0.11621 -0.03,-0.23242 -0.045,-0.34863 -0.28081,-1.37899 -0.77295,-2.70842 -1.10466,-4.07648 -0.48968,-2.33477 -0.60399,-4.68993 -0.52047,-7.06836 0,-1.75079 2.58973,-1.75079 2.58973,0 z"
       inkscape:connector-curvature="0" />
    <path
       style="fill:#000000;fill-opacity:1;fill-rule:nonzero;stroke:none"
       id="path7235"
       d="m 488.28575,185.67526 c 4.93636,0.004 9.87171,0.0269 14.807,-0.0831 9.38839,-0.19708 18.77177,-0.52918 28.15644,-0.85015 8.70269,-0.29555 17.41017,-0.38929 26.11714,-0.44179 5.59035,0.0715 11.17588,0.331 16.76193,0.5468 1.17824,0.0447 2.35641,0.0912 3.53471,0.13444 0.77993,-0.0282 0.52624,2.11263 -0.24938,2.08133 -1.47677,-0.0592 -1.393,-2.14771 0.0838,-2.08847 l 0,0 c 0.78005,0.0315 0.87295,2.18844 0.089,2.09589 -1.17964,-0.0433 -2.35917,-0.0898 -3.53876,-0.1346 -5.55497,-0.21459 -11.10943,-0.47245 -16.66864,-0.54528 -8.68735,0.0524 -17.37521,0.14576 -26.0583,0.44061 -9.39301,0.32125 -18.78474,0.65353 -28.18147,0.85086 -4.95078,0.1096 -9.90157,0.0877 -14.85341,0.0836 -1.47796,0 -1.47796,-2.09015 0,-2.09015 z"
       inkscape:connector-curvature="0" />
    <path
       style="fill:#000000;fill-opacity:1;fill-rule:nonzero;stroke:none"
       id="path7237"
       d="m 487.2174,185.61221 c 1.86888,-0.50432 3.43228,-1.65905 4.98256,-2.76822 1.48545,-1.0519 2.77724,-2.34361 4.27451,-3.37645 0.18749,-0.0995 0.37498,-0.19896 0.56248,-0.29844 1.31467,-0.67527 2.26965,1.18396 0.95498,1.85923 l 0,0 c -0.1113,0.054 -0.22259,0.10798 -0.33388,0.16197 -1.49003,1.01874 -2.75511,2.32767 -4.24276,3.35419 -1.79187,1.27933 -3.61617,2.57929 -5.78798,3.11729 -1.44926,0.28985 -1.85917,-1.75971 -0.40991,-2.04957 z"
       inkscape:connector-curvature="0" />
    <path
       style="fill:#000000;fill-opacity:1;fill-rule:nonzero;stroke:none"
       id="path7239"
       d="m 487.96606,186.1343 c 1.56301,1.06252 3.20217,1.9856 4.89121,2.82978 1.35731,0.6859 2.80818,1.12343 4.06469,1.9953 0.32317,0.25575 0.17688,0.13096 0.44229,0.37032 1.08799,1.00032 -0.32667,2.53897 -1.41467,1.53865 l 0,0 c -0.12388,-0.1191 -0.0494,-0.0514 -0.22817,-0.198 -1.15891,-0.82649 -2.56116,-1.14909 -3.79916,-1.83692 -1.80029,-0.90113 -3.5481,-1.88768 -5.21028,-3.02701 -1.18237,-0.88678 0.0717,-2.5589 1.25409,-1.67212 z"
       inkscape:connector-curvature="0" />
    <path
       inkscape:connector-curvature="0"
       d="m 578.44732,186.71841 c -1.87946,0.46335 -3.46772,1.58364 -5.04187,2.65867 -1.50809,1.01918 -2.8278,2.28235 -4.34728,3.28222 -0.18962,0.0954 -0.37924,0.19072 -0.56887,0.28608 -1.32911,0.64637 -2.24323,-1.23328 -0.91412,-1.87966 l 0,0 c 0.11245,-0.0516 0.2249,-0.10309 0.33734,-0.15464 1.51194,-0.98593 2.80532,-2.2669 4.31505,-3.26066 1.8194,-1.23986 3.67168,-2.49964 5.85473,-2.99005 1.45525,-0.25811 1.82027,1.79992 0.36502,2.05804 z"
       id="path7241"
       style="fill:#000000;fill-opacity:1;fill-rule:nonzero;stroke:none" />
    <path
       inkscape:connector-curvature="0"
       d="m 577.71025,186.18008 c -1.53942,-1.09642 -3.15801,-2.05511 -4.8282,-2.936 -1.342,-0.7154 -2.78296,-1.18453 -4.02011,-2.08366 -0.31751,-0.26275 -0.17398,-0.13479 -0.4341,-0.37989 -1.06586,-1.02386 0.38209,-2.53123 1.44796,-1.50737 l 0,0 c 0.12125,0.12178 0.0483,0.0525 0.22379,0.20294 1.14057,0.85162 2.53544,1.20479 3.75811,1.91951 1.78017,0.94026 3.506,1.96477 5.14288,3.14016 1.16271,0.91241 -0.12761,2.55672 -1.29033,1.64431 z"
       id="path7243"
       style="fill:#000000;fill-opacity:1;fill-rule:nonzero;stroke:none" />
    <path
       style="fill:#000000;fill-opacity:1;fill-rule:nonzero;stroke:none"
       id="path7245"
       d="m 456.02399,211.54683 c 0.0897,4.51443 0.17941,9.02886 0.26911,13.54329 0.45039,12.59414 0.10833,25.1898 -0.1842,37.78192 -0.40191,16.8709 -0.27231,33.74833 -0.0725,50.62112 0.31898,15.95198 0.48322,31.90387 0.54476,47.85923 0.079,11.38938 -0.0252,22.78102 -0.37311,34.16425 -0.0701,4.84882 -0.49501,9.67667 -0.89121,14.50237 -0.10971,1.30878 -0.15824,2.6222 -0.15643,3.9362 -0.0412,0.74251 0.0602,1.43483 0.2198,2.15061 0.26801,1.01878 0.41374,2.0683 0.53796,3.11806 0.01,0.0879 0.0191,0.17606 0.0285,0.26409 7.2e-4,-0.002 0.002,-0.004 0.002,-0.008 0.29282,1.59751 -1.75589,2.05416 -2.04871,0.45666 l 0,0 c -0.0418,-0.25569 -0.0226,-0.11729 -0.0547,-0.41579 -0.11381,-0.96592 -0.24584,-1.93182 -0.49567,-2.86838 -0.19671,-0.8918 -0.31854,-1.77482 -0.27957,-2.69486 -10e-4,-1.38439 0.0494,-2.76822 0.16493,-4.14712 0.39268,-4.7824 0.81556,-9.56683 0.88388,-14.3722 0.34719,-11.35409 0.45081,-22.71656 0.37196,-34.07679 -0.0615,-15.94861 -0.22621,-31.89371 -0.5446,-47.83894 -0.20013,-16.90249 -0.32967,-33.80964 0.073,-50.71024 0.29168,-12.55562 0.63377,-25.11475 0.18402,-37.67239 -0.0897,-4.51445 -0.17941,-9.02886 -0.26912,-13.54328 -0.0324,-1.62943 2.05727,-1.67992 2.08965,-0.0504 z"
       inkscape:connector-curvature="0" />
    <path
       style="fill:#000000;fill-opacity:1;fill-rule:nonzero;stroke:none"
       id="path7249"
       d="m 454.33128,211.90619 c -0.78344,1.56471 -1.63926,3.10195 -2.35792,4.69989 -0.41948,0.81774 -0.58755,1.74571 -1.02355,2.55103 -0.8597,1.2022 -2.55987,-0.0136 -1.70016,-1.2158 l 0,0 c -0.38239,0.85442 0.55044,-1.59354 0.81881,-2.19553 0.73483,-1.62106 1.59858,-3.18411 2.39333,-4.77434 0.66096,-1.32193 2.53045,-0.38718 1.86949,0.93475 z"
       inkscape:connector-curvature="0" />
    <path
       style="fill:#000000;fill-opacity:1;fill-rule:nonzero;stroke:none"
       id="path7255"
       d="m 454.36394,208.94396 c 1.36211,0.78221 2.5101,1.81765 3.55481,2.97997 1.37115,1.60758 2.50749,3.39535 3.94862,4.94425 0.78226,0.66432 0.39402,0.35928 1.15971,0.92149 1.18757,0.8798 -0.0566,2.55928 -1.24422,1.67948 l 0,0 c -0.9489,-0.70809 -0.46235,-0.31794 -1.45026,-1.18209 -1.44072,-1.56694 -2.61635,-3.33692 -3.97402,-4.97223 -0.85988,-0.97425 -1.81144,-1.83087 -2.92938,-2.50138 -1.32193,-0.66097 -0.38719,-2.53046 0.93474,-1.86949 z"
       inkscape:connector-curvature="0" />
    <path
       inkscape:connector-curvature="0"
       d="m 454.68448,419.37768 c 0.79774,-1.55746 1.6676,-3.0868 2.40087,-4.67809 0.42695,-0.81386 0.60352,-1.74026 1.04687,-2.54155 0.87068,-1.19427 2.55964,0.037 1.68896,1.23133 l 0,0 c 0.3902,-0.85089 -0.56502,1.58843 -0.83889,2.18793 -0.74965,1.61426 -1.62768,3.16934 -2.43696,4.75222 -0.67305,1.31582 -2.53389,0.36398 -1.86085,-0.95184 z"
       id="path7257"
       style="fill:#000000;fill-opacity:1;fill-rule:nonzero;stroke:none" />
    <path
       inkscape:connector-curvature="0"
       d="m 454.62468,422.33949 c -1.35488,-0.79465 -2.49334,-1.84057 -3.52736,-3.01241 -1.35637,-1.62007 -2.47628,-3.41817 -3.90316,-4.98021 -0.77615,-0.67146 -0.39072,-0.36288 -1.15122,-0.93208 -1.17947,-0.89064 0.08,-2.55865 1.25955,-1.66801 l 0,0 c 0.94237,0.71675 0.45942,0.32216 1.43937,1.19533 1.4263,1.58007 2.58567,3.36074 3.92831,5.00842 0.85091,0.98209 1.79459,1.84739 2.90634,2.52811 1.31582,0.67305 0.36399,2.5339 -0.95183,1.86085 z"
       id="path7259"
       style="fill:#000000;fill-opacity:1;fill-rule:nonzero;stroke:none" />
    <path
       style="fill:#000000;fill-opacity:1;fill-rule:nonzero;stroke:none"
       id="path7261"
       d="m 432.01555,339.04384 c 1.44104,-2.87199 2.82101,-5.77323 3.95173,-8.78246 1.3849,-3.53994 2.06278,-7.2541 2.42402,-11.01936 0.23627,-2.19805 0.0347,-4.40662 -0.27277,-6.58599 -0.16853,-1.28577 -0.63015,-1.17154 1.29286,-0.27539 -0.69191,1.29248 -1.11009,2.69206 -1.54007,4.08646 -1.02271,3.53307 -1.17112,7.15784 -0.60793,10.77339 0.6692,2.67246 1.84392,5.14535 4.53147,6.17482 0.23361,0.0206 0.46722,0.0411 0.70083,0.0617 1.4641,0.20192 1.17854,2.27248 -0.28556,2.07056 l 0,0 c -0.40661,-0.0677 -0.81322,-0.13545 -1.21983,-0.20317 -3.70589,-1.6297 -4.75505,-4.01252 -5.79334,-7.78987 -0.60812,-4.09191 -0.45207,-7.7114 0.67717,-11.70388 0.54527,-1.76502 1.02335,-3.69114 2.25375,-5.11966 2.18468,0.48482 1.79194,0.01 2.06041,1.63371 0.32891,2.34243 0.53568,4.71585 0.28351,7.07789 -0.38241,3.94811 -1.09813,7.84337 -2.54857,11.55566 -1.17989,3.12417 -2.60271,6.14483 -4.11539,9.12096 -0.76041,1.26734 -2.5527,0.19197 -1.79229,-1.07538 z"
       inkscape:connector-curvature="0" />
    <path
       style="fill:#000000;fill-opacity:1;fill-rule:nonzero;stroke:none"
       id="path7267"
       d="m 525.77458,164.30438 c 1.35331,2.24355 2.51876,4.57998 3.56138,6.98108 0.8282,2.22859 1.52928,4.50521 2.19415,6.7879 0.0497,0.17503 0.0999,0.34994 0.14908,0.52511 0.0346,0.12313 0.0558,0.25067 0.10234,0.3698 0.0554,0.14189 -0.12921,-0.32591 -0.2768,-0.36365 -0.76646,-0.19596 -1.19654,0.27987 -0.80194,-0.10439 0.32633,-0.78327 0.5913,-1.60143 0.81719,-2.42137 0.26405,-1.10787 0.35659,-2.24775 0.41076,-3.38266 0.10361,-0.71939 0.38269,-1.38604 0.85456,-1.93752 0.20329,-0.1861 0.34371,-0.28351 0.51632,-0.44773 0.10008,-0.0957 0.19602,-0.19545 0.2906,-0.29648 1.49105,-0.17276 1.4715,-0.23164 2.07486,0.71695 0.67156,1.40599 1.45466,2.74791 2.37485,4.00556 0.85113,1.11081 1.74391,2.17567 2.77108,3.12777 -0.28312,-0.10227 0.45395,0.30959 0.31865,0.27361 -0.22746,-0.0605 -0.43087,-0.29228 -0.6617,-0.24634 -1.07728,0.21437 -0.88557,1.26805 -0.84522,-0.36288 0.0304,-2.45209 -0.0601,-4.90374 0.0778,-7.35278 0.16322,-1.71805 0.29676,-3.44301 0.53404,-5.15319 0.20482,-1.4637 2.27481,-1.17403 2.06998,0.28967 l 0,0 c -0.23369,1.65325 -0.35375,3.32295 -0.51733,4.98375 -0.14332,2.42671 -0.0359,4.85753 -0.0751,7.28747 -0.003,0.0962 -0.0201,1.26218 -0.0811,1.36133 -0.73879,1.2019 -1.36444,1.26421 -2.24261,0.45076 -1.1239,-1.04591 -2.10915,-2.21046 -3.03945,-3.43051 -0.93746,-1.29775 -1.77903,-2.66098 -2.45049,-4.11703 -0.79901,-1.26924 1.69093,-0.84844 1.23549,-0.42511 -0.12959,0.13986 -0.26271,0.27643 -0.40055,0.40823 -0.12608,0.11818 -0.82765,0.69729 -0.38922,0.31695 -0.1504,0.19208 -0.26559,0.40779 -0.32783,0.64862 -0.0633,1.28989 -0.17353,2.58467 -0.48473,3.84158 -0.32749,1.16829 -0.64663,2.42647 -1.40622,3.39072 -1.39931,1.27509 -2.36943,-0.0699 -2.60417,-1.37182 -0.64016,-2.19857 -1.31616,-4.39056 -2.10472,-6.54018 -1.00541,-2.31784 -2.12996,-4.57243 -3.43632,-6.73784 -0.7604,-1.26735 1.03189,-2.34272 1.7923,-1.07538 z"
       inkscape:connector-curvature="0" />
    <path
       style="fill:#000000;fill-opacity:1;fill-rule:nonzero;stroke:none"
       id="path7269"
       d="m 501.55684,116.05563 c -1.39964,0.43226 -2.17576,1.55137 -2.88687,2.74928 -0.93354,1.87183 -1.36315,3.97578 -0.45334,5.92549 1.15088,1.33954 2.89482,1.50252 4.54994,1.48071 1.18389,-0.0743 0.59684,-0.0306 1.76122,-0.13062 1.47258,-0.12601 1.65078,1.95653 0.1782,2.08254 l 0,0 c -1.25222,0.10673 -0.61108,0.0599 -1.92359,0.13817 -2.54183,0.008 -4.9986,-0.50249 -6.49409,-2.76436 -0.15933,-0.40899 -0.36791,-0.80206 -0.47799,-1.22696 -0.58071,-2.2414 0.0727,-4.5749 1.06856,-6.58234 1.01593,-1.67093 2.21321,-3.13857 4.17102,-3.69966 1.43384,-0.35846 1.94077,1.66929 0.50694,2.02775 z"
       inkscape:connector-curvature="0" />
    <path
       style="fill:#000000;fill-opacity:1;fill-rule:nonzero;stroke:none"
       id="path7271"
       d="m 509.18995,118.00897 c -0.91895,1.37794 -1.18821,3.04198 -1.40565,4.65088 -0.14975,1.59194 0.65573,2.36019 2.13787,2.60948 1.77759,0.0401 3.26257,-0.99852 4.35292,-2.32048 0.85719,-1.28954 0.3938,-1.95712 -0.58586,-2.9352 -1.00762,-0.72305 -2.17974,-1.19607 -3.31397,-1.68943 -0.24086,-0.10333 -0.48237,-0.20531 -0.72757,-0.29792 -1.38772,-0.50851 -0.66858,-2.47105 0.71915,-1.96254 l 0,0 c 0.28461,0.10499 0.56315,0.22563 0.8424,0.34389 1.38854,0.60443 2.82819,1.18485 3.99687,2.16801 1.69331,1.84915 2.19359,3.54307 0.6595,5.72928 -1.65166,1.89278 -3.79203,3.23573 -6.39929,3.00423 -0.40995,-0.10455 -0.83723,-0.15608 -1.22986,-0.31366 -1.92569,-0.77288 -2.69142,-2.66224 -2.52294,-4.61958 0.27251,-1.9626 0.64783,-3.96239 1.80431,-5.62105 0.88677,-1.18237 2.5589,0.0717 1.67212,1.25409 z"
       inkscape:connector-curvature="0" />
    <path
       style="fill:#000000;fill-opacity:1;fill-rule:nonzero;stroke:none"
       id="path7273"
       d="m 520.16279,117.26031 c 0.32955,1.8904 0.45295,3.80633 0.55384,5.71983 0.11194,0.80739 -0.0218,1.64452 0.0784,2.45137 0.0181,0.14567 -0.0979,-0.27799 -0.16744,-0.40727 -1.41137,-0.6209 0.3089,8.6e-4 -1.15929,-0.10086 -0.0643,-0.004 0.0431,-0.12139 0.0639,-0.18237 0.0424,-0.12452 0.0826,-0.24978 0.12549,-0.37412 0.35359,-1.02456 0.12005,-0.29754 0.4515,-1.37682 0.54453,-1.70888 1.04786,-3.42903 1.57877,-5.14258 0.2503,-1.13901 0.43443,-2.12304 1.35613,-2.89396 0.97583,-0.53396 1.90783,-0.39126 2.75826,0.27774 0.89924,1.04109 1.2344,2.402 1.64748,3.68163 0.48375,1.67663 0.80684,3.39343 1.21863,5.09019 0.18221,0.8202 0.34463,1.64546 0.46503,2.47716 0.1329,0.74155 -0.912,-0.97655 -1.5304,-0.68268 0.89638,-1.1751 2.55823,0.0926 1.66184,1.26768 l 0,0 c -0.50451,0.51459 -1.77785,1.47354 -2.20017,-0.28652 -0.11015,-0.76645 -0.26149,-1.52659 -0.42749,-2.28269 -0.39971,-1.647 -0.71569,-3.31289 -1.1769,-4.94222 -0.29906,-0.93004 -0.55524,-1.86668 -1.01637,-2.73396 -0.18784,-0.24407 0.4494,-0.0833 -0.24284,-0.12566 0.13636,-0.31782 -0.0813,0.0245 -0.0884,0.0469 -0.17792,0.56226 -0.21497,1.17121 -0.42825,1.72496 -0.53063,1.71257 -1.03436,3.43147 -1.57787,5.13963 -0.33908,1.09653 -0.63486,2.99982 -2.03105,3.26257 -0.27231,0.0513 -0.52951,-0.16351 -0.79426,-0.24526 -0.1462,-0.19268 -0.33016,-0.36184 -0.43858,-0.57804 -0.43709,-0.87161 0.0181,-2.04436 -0.21328,-2.95493 -0.0953,-1.81286 -0.20956,-3.62797 -0.51614,-5.41984 -0.28985,-1.44926 1.75971,-1.85917 2.04956,-0.40991 z"
       inkscape:connector-curvature="0" />
    <path
       style="fill:#000000;fill-opacity:1;fill-rule:nonzero;stroke:none"
       id="path7275"
       d="m 532.70979,106.22931 c 0.55425,3.04662 0.79244,6.13147 1.13117,9.20592 0.25885,2.95673 0.68743,5.88859 1.21771,8.80754 0.12604,0.61159 0.11811,1.24454 0.53667,1.7343 0.004,-0.0393 -0.16667,-0.11275 -0.21518,-0.13521 1.39884,0.47709 0.72414,2.45535 -0.6747,1.97827 l 0,0 c -0.26824,-0.11334 -0.50497,-0.25723 -0.69689,-0.48258 -0.64693,-0.78809 -0.87763,-1.72372 -1.00642,-2.72129 -0.53867,-2.96696 -0.97451,-5.94726 -1.2388,-8.9524 -0.3337,-3.03607 -0.56659,-6.08261 -1.11528,-9.09093 -0.24297,-1.45785 1.81874,-1.80147 2.06172,-0.34362 z"
       inkscape:connector-curvature="0" />
    <path
       style="fill:#000000;fill-opacity:1;fill-rule:nonzero;stroke:none"
       id="path7277"
       d="m 530.12709,117.50056 c 1.66488,0.30637 3.35787,0.41711 5.04535,0.51651 0.65354,0.0319 1.30718,0.0701 1.96153,0.0814 1.47773,0.0261 1.44088,2.11589 -0.0368,2.08983 l 0,0 c -0.68311,-0.0123 -1.36551,-0.0505 -2.04776,-0.0847 -1.78375,-0.10535 -3.57297,-0.2257 -5.33218,-0.55347 -1.44926,-0.28986 -1.03935,-2.33942 0.40991,-2.04957 z"
       inkscape:connector-curvature="0" />
    <path
       style="fill:#000000;fill-opacity:1;fill-rule:nonzero;stroke:none"
       id="path7279"
       d="m 544.27052,117.45328 c -1.42333,0.77466 -2.45604,1.9815 -3.17336,3.40945 -0.41128,1.17051 -0.96024,2.61773 -0.45384,3.84415 0.43299,0.33287 0.75986,-0.39977 1.01555,-0.7104 1.14252,-1.25112 1.59001,-2.82111 1.92439,-4.43813 0.16032,-0.93686 0.22097,-1.88851 0.22812,-2.83812 -0.0118,-0.87406 -0.12289,-0.22083 2.06711,-0.10607 -0.0598,0.90975 0.0327,1.79376 0.1816,2.68944 0.34069,1.50485 0.78776,2.97965 1.53138,4.33526 0.0524,0.0929 0.59022,0.99105 0.5633,0.76916 1.34431,0.61417 0.47573,2.51531 -0.86858,1.90113 l 0,0 c -0.72806,-0.37603 -1.1488,-0.95862 -1.53125,-1.67233 -0.84435,-1.56583 -1.38433,-3.25445 -1.75703,-4.99239 -0.16866,-1.02587 -0.27037,-2.0454 -0.20883,-3.08594 2.12896,-0.41687 2.09778,-1.01402 2.11238,0.17901 -0.01,1.08707 -0.0812,2.17622 -0.27208,3.24763 -0.41657,1.98225 -1.02786,3.89342 -2.42726,5.421 -1.57398,1.63119 -3.2126,2.17759 -4.55062,-0.0657 -0.51797,-1.84224 -0.16942,-3.69632 0.58766,-5.43509 0.94977,-1.80854 2.26428,-3.34965 4.09662,-4.32156 1.32193,-0.66097 2.25667,1.20852 0.93474,1.86949 z"
       inkscape:connector-curvature="0" />
    <path
       style="fill:#000000;fill-opacity:1;fill-rule:nonzero;stroke:none"
       id="path7281"
       d="m 554.37952,117.34085 c -0.89632,1.01257 -1.52507,2.20018 -2.10566,3.41171 -0.54565,1.11964 -0.64241,2.03925 0.0656,3.06462 0.75898,0.84312 1.84648,1.03214 2.91843,1.17149 0.80574,0.026 1.41557,-0.18856 2.0178,-0.69435 1.15681,-0.91987 2.45771,0.7161 1.3009,1.63597 l 0,0 c -1.07895,0.83176 -2.22028,1.22052 -3.59849,1.12972 -1.70235,-0.23681 -3.30754,-0.6986 -4.40489,-2.12519 -1.07942,-1.79216 -1.05433,-3.20004 -0.18247,-5.08918 0.68677,-1.41992 1.43796,-2.81084 2.51085,-3.98275 1.04507,-1.04508 2.52303,0.43288 1.47796,1.47796 z"
       inkscape:connector-curvature="0" />
    <path
       style="fill:#000000;fill-opacity:1;fill-rule:nonzero;stroke:none"
       id="path7283"
       d="m 561.99474,105.92965 c 0.8402,2.7473 0.9789,5.6435 1.14301,8.4933 0.0385,2.30507 0.39964,4.58579 0.66564,6.87127 0.0226,0.68356 0.12536,1.29267 0.47257,1.8794 0.0192,0.0519 0.0641,0.0864 0.0954,0.12853 0.95198,1.13054 -0.64683,2.47684 -1.59881,1.3463 l 0,0 c -0.11286,-0.13815 -0.22074,-0.27989 -0.30978,-0.43514 -0.46896,-0.83207 -0.70433,-1.72026 -0.73549,-2.6776 -0.27037,-2.32592 -0.63596,-4.64712 -0.6762,-6.9929 -0.15049,-2.62679 -0.27392,-5.29201 -0.99696,-7.83689 -0.5489,-1.37226 1.39176,-2.14852 1.94066,-0.77627 z"
       inkscape:connector-curvature="0" />
    <path
       style="fill:#000000;fill-opacity:1;fill-rule:nonzero;stroke:none"
       id="path7285"
       d="m 560.74784,116.11804 c 1.32777,0.30596 2.68763,0.42108 4.04429,0.50584 0.9036,0.0509 1.80862,0.074 2.71355,0.081 0.80528,0.0807 0.6755,-0.23302 0.0566,0.1607 0.9666,-1.11805 2.54777,0.24893 1.58117,1.36698 l 0,0 c -0.47893,0.45129 -1.00753,0.62473 -1.65402,0.56241 -0.94322,-0.007 -1.88652,-0.0316 -2.82833,-0.085 -1.48328,-0.0937 -2.96959,-0.2243 -4.42015,-0.56414 -1.43383,-0.35846 -0.92689,-2.3862 0.50694,-2.02774 z"
       inkscape:connector-curvature="0" />
    <path
       style="fill:#000000;fill-opacity:1;fill-rule:nonzero;stroke:none"
       id="path7287"
       d="m 504.12737,143.60373 c 0.26219,1.32965 0.8857,2.55569 1.40889,3.79847 0.17898,0.42424 0.35802,0.84845 0.53889,1.27188 -0.66359,0.0431 -1.32788,0.1821 -1.99075,0.12926 -0.0956,-0.008 0.0152,-0.1924 0.004,-0.28763 -0.009,-0.0755 -0.0475,-0.14476 -0.0639,-0.21902 -0.14455,-0.65498 -0.32156,-1.27835 -0.51461,-1.92224 -0.56553,-2.07375 -0.78407,-4.19212 -0.47957,-6.31934 0.47439,-1.84967 1.48018,-3.28789 3.20126,-4.11315 1.45406,-0.41375 2.82984,0.025 4.15755,0.6152 0.54512,0.20199 0.9085,0.56863 1.18948,1.06936 0.63886,1.33275 -1.24593,2.23624 -1.8848,0.90349 l 0,0 c 0.46051,0.27316 0.0386,0.0214 -0.15852,-0.0651 -0.77687,-0.35069 -1.57633,-0.67671 -2.44563,-0.61711 -1.09334,0.43036 -1.64816,1.43295 -1.99295,2.52155 -0.29756,1.8133 -0.0387,3.63299 0.4153,5.40483 0.0797,0.26591 0.87426,3.05339 0.65876,3.15401 -0.63295,0.29555 -1.3447,0.3791 -2.01705,0.56865 -0.18254,-0.42737 -0.36327,-0.85551 -0.5439,-1.2837 -0.5646,-1.34114 -1.22541,-2.66777 -1.51023,-4.10252 -0.35846,-1.43384 1.66929,-1.94077 2.02774,-0.50694 z"
       inkscape:connector-curvature="0" />
    <path
       style="fill:#000000;fill-opacity:1;fill-rule:nonzero;stroke:none"
       id="path7289"
       d="m 513.58494,142.05906 c 1.04898,0.46923 2.12187,0.87204 3.23035,0.41795 0.94786,-0.71365 0.98601,-2.13868 1.11099,-3.22576 0.24455,-0.20409 -0.44396,-2.45831 -0.53904,-1.71059 -1.08651,0.73248 -1.63821,2.04056 -2.07363,3.22494 -0.68629,1.82558 -0.2225,3.56269 0.4657,5.30135 0.78207,1.52593 2.166,2.11739 3.75902,2.45999 0.70496,0.11547 1.28355,-0.0468 1.92411,-0.30332 1.39092,-0.49969 2.09759,1.46738 0.70667,1.96707 l 0,0 c -1.03218,0.34641 -1.98804,0.58725 -3.09077,0.37516 -2.27408,-0.53128 -4.19637,-1.53575 -5.24654,-3.74001 -0.85622,-2.22586 -1.35199,-4.48207 -0.47347,-6.79888 0.77683,-2.01384 1.86371,-4.25303 4.23709,-4.56606 0.3208,0.0726 0.66557,0.0762 0.96241,0.2179 1.40694,0.67159 1.43688,2.50381 1.44426,3.8169 -0.23463,1.95279 -0.573,3.99855 -2.51456,4.96041 -1.69446,0.51994 -3.25461,0.25663 -4.83734,-0.52756 -1.32192,-0.66097 -0.38718,-2.53046 0.93475,-1.86949 z"
       inkscape:connector-curvature="0" />
    <path
       style="fill:#000000;fill-opacity:1;fill-rule:nonzero;stroke:none"
       id="path7291"
       d="m 529.29369,137.66478 c -1.40369,0.43073 -2.43743,1.37692 -3.28084,2.54087 -0.7171,1.38209 -0.89208,1.98822 -0.20183,3.33088 0.46566,0.67073 0.99004,0.6789 1.59033,0.21099 0.96438,-1.05877 1.60264,-2.35649 2.03712,-3.70948 0.0917,-0.4759 0.55344,-1.36331 0.0608,-1.69475 -0.25924,-0.29649 -0.56597,-0.52032 -0.90165,-0.72644 -0.0475,-0.0251 -0.0924,-0.0547 -0.13856,-0.0821 0.46261,-0.23452 0.9119,-0.49741 1.38782,-0.70355 0.0554,-0.024 1.10245,3.18471 1.15261,3.33299 1.05232,3.37623 1.63182,6.84738 2.00587,10.35539 0.17509,2.37028 0.56606,5.24728 -1.14337,7.20646 -0.29478,0.33785 -0.68355,0.58047 -1.02533,0.8707 -2.90165,1.62254 -5.27049,0.72238 -7.86356,-0.95231 -1.87933,-1.63296 -3.16866,-3.39998 -3.14645,-5.95173 0.35119,-1.24209 0.10023,-0.65945 0.74482,-1.75138 0.79695,-1.24469 2.5572,-0.11764 1.76026,1.12705 l 0,0 c -0.33748,0.44192 -0.19733,0.20157 -0.41725,0.7229 -0.2215,1.61892 1.13229,3.07032 2.20222,4.10361 1.66737,1.10593 3.46027,2.05429 5.4232,1.06261 2.11218,-1.46062 1.52576,-3.96552 1.38702,-6.21694 -0.35572,-3.35587 -0.90571,-6.67576 -1.90747,-9.90692 -0.38387,-1.13607 -0.83832,-2.29296 -1.15467,-3.45001 -0.0547,-0.20013 -0.22755,-0.44415 -0.10717,-0.61313 0.35761,-0.50193 0.93493,-0.80324 1.40239,-1.20486 0.18886,0.0723 0.36617,0.16972 0.53882,0.27466 0.51782,0.323 0.9725,0.708 1.39179,1.14785 0.88772,1.14501 0.78638,2.37738 0.33432,3.69993 -0.60459,1.82036 -1.48012,3.58572 -2.95696,4.85693 -1.93117,1.02726 -3.27894,0.74866 -4.52778,-1.07635 -1.03348,-2.12017 -0.74845,-3.48088 0.3943,-5.50881 1.17942,-1.56096 2.61787,-2.82518 4.54925,-3.34464 1.44926,-0.28985 1.85917,1.75971 0.40991,2.04956 z"
       inkscape:connector-curvature="0" />
    <path
       style="fill:#000000;fill-opacity:1;fill-rule:nonzero;stroke:none"
       id="path7293"
       d="m 536.8731,138.02999 c 0.3601,1.61851 0.47085,3.28013 0.56454,4.93161 0.0421,0.75169 0.0597,1.50431 0.0825,2.25671 0.0445,1.47729 -2.04469,1.54025 -2.0892,0.063 l 0,0 c -0.022,-0.73406 -0.0393,-1.46834 -0.0801,-2.20172 -0.0856,-1.52049 -0.1833,-3.05074 -0.50545,-4.54262 -0.35846,-1.43383 1.66929,-1.94077 2.02774,-0.50693 z"
       inkscape:connector-curvature="0" />
    <path
       style="fill:#000000;fill-opacity:1;fill-rule:nonzero;stroke:none"
       id="path7295"
       d="m 534.27257,130.05239 c 0.95035,0.18203 1.8169,0.44649 2.56864,1.07262 0.77791,1.13657 0.23577,2.11261 -0.83751,2.71963 -0.30686,0.17768 -0.61702,0.24924 -0.96455,0.28197 -0.2037,0.003 -0.4074,-0.001 -0.61103,-0.006 -0.0368,-5.2e-4 -0.0736,-0.003 -0.11044,-0.004 -1.47545,-0.0862 -1.35361,-2.17275 0.12183,-2.0866 l 0,0 c 0.0142,4.1e-4 0.0283,7.6e-4 0.0424,0.001 0.1651,0.004 0.33023,0.007 0.49539,0.006 -0.22441,0.052 -0.0714,0.0251 0.021,-0.0252 0.41865,-0.21106 -0.0552,0.47773 0.47864,0.69632 -0.46974,-0.4417 -1.1086,-0.45746 -1.7113,-0.62838 -1.43383,-0.35845 -0.9269,-2.3862 0.50694,-2.02774 z"
       inkscape:connector-curvature="0" />
    <path
       style="fill:#000000;fill-opacity:1;fill-rule:nonzero;stroke:none"
       id="path7297"
       d="m 543.32911,138.21378 c -0.83458,1.33709 -1.06759,2.74764 -0.88816,4.2843 0.23209,1.01728 1.14945,1.19243 2.08913,1.19534 0.97021,-0.13507 1.72938,-0.5986 2.29427,-1.39304 0.44501,-0.83694 0.39244,-1.70539 0.26647,-2.60865 -0.22461,-1.15843 -1.08192,-1.85059 -1.95723,-2.54133 -0.61691,-0.40414 -1.24944,-0.86052 -1.98807,-0.52691 -0.28697,0.25865 -0.54887,0.537 -0.76865,0.85491 -0.85528,1.20534 -2.5599,-0.004 -1.70461,-1.20956 l 0,0 c 0.5001,-0.69471 1.08996,-1.29581 1.88652,-1.65146 1.46047,-0.35937 2.67751,-0.0176 3.87204,0.89413 1.30474,1.03547 2.43969,2.18266 2.73142,3.90101 0.19269,1.47011 0.13587,2.87615 -0.68475,4.16687 -1.04789,1.29834 -2.35023,2.10486 -4.05495,2.20141 -1.97696,-0.15261 -3.6674,-0.92829 -4.05957,-3.05747 -0.21078,-2.06586 0.13859,-3.99998 1.29402,-5.76364 0.88678,-1.18237 2.5589,0.0717 1.67212,1.25409 z"
       inkscape:connector-curvature="0" />
    <path
       style="fill:#000000;fill-opacity:1;fill-rule:nonzero;stroke:none"
       id="path7299"
       d="m 552.20089,135.24312 c 0.33984,1.45055 0.47044,2.93686 0.56414,4.42014 0.0972,-0.64285 0.0125,3.23621 0.0988,2.46151 -0.0353,-0.19568 -0.15852,-0.27347 -0.34026,-0.3099 -0.81403,-0.15898 -1.24484,1.7027 -0.95497,0.10981 0.32705,-1.63448 0.65769,-3.27016 1.03458,-4.89476 0.41749,-1.6246 1.12883,-3.1337 2.00025,-4.55855 0.69528,-0.97634 1.63773,-1.11521 2.68858,-0.66474 0.52386,0.39354 1.08633,0.7074 1.61463,1.08765 0.93242,1.23471 1.03622,2.9087 1.37035,4.38121 0.3328,1.58374 0.49196,3.27291 1.48144,4.61184 0.39497,0.52434 1.00058,0.56206 1.61012,0.61422 0.283,0.0201 0.5668,0.0152 0.85022,0.0125 1.4779,-0.013 1.4963,2.07706 0.0184,2.09007 l 0,0 c -0.35367,0.003 -0.70779,0.007 -1.06075,-0.0213 -1.23108,-0.1195 -2.3745,-0.45007 -3.13647,-1.50574 -1.07503,-1.61313 -1.49366,-3.44639 -1.80184,-5.34149 -0.22919,-1.02063 -0.45987,-2.03192 -0.705,-3.04647 -0.14925,-0.61771 -5.6e-4,0.002 0.0558,-0.17242 -0.35884,-0.21687 -0.80893,-0.47396 -1.14063,-0.7978 -0.58069,-0.27228 0.62809,-0.52535 -0.063,-0.15505 -0.75758,1.23203 -1.37896,2.53419 -1.74638,3.93976 -0.376,1.61048 -0.70158,3.23285 -1.02545,4.8537 -0.20301,0.69296 -0.34405,1.64159 -1.29661,1.53744 -0.63197,-0.0928 -1.10723,-0.44562 -1.40402,-1.02005 -0.26675,-1.00504 -0.14414,-2.04678 -0.23389,-3.08038 -0.0848,-1.35667 -0.19988,-2.71653 -0.50584,-4.0443 -0.35846,-1.43383 1.66929,-1.94077 2.02774,-0.50693 z"
       inkscape:connector-curvature="0" />
  </g>
</svg>
