<?xml version="1.0" encoding="UTF-8" standalone="no"?>
<!-- Created with Inkscape (http://www.inkscape.org/) -->

<svg
   xmlns:dc="http://purl.org/dc/elements/1.1/"
   xmlns:cc="http://creativecommons.org/ns#"
   xmlns:rdf="http://www.w3.org/1999/02/22-rdf-syntax-ns#"
   xmlns:svg="http://www.w3.org/2000/svg"
   xmlns="http://www.w3.org/2000/svg"
   xmlns:sodipodi="http://sodipodi.sourceforge.net/DTD/sodipodi-0.dtd"
   xmlns:inkscape="http://www.inkscape.org/namespaces/inkscape"
   width="629.89032"
   height="365.51764"
   id="svg8062"
   version="1.1"
   inkscape:version="0.48.0 r9654"
   sodipodi:docname="New document 24">
  <defs
     id="defs8064" />
  <sodipodi:namedview
     inkscape:document-units="mm"
     pagecolor="#ffffff"
     bordercolor="#666666"
     borderopacity="1.0"
     inkscape:pageopacity="0.0"
     inkscape:pageshadow="2"
     inkscape:zoom="0.7176508"
     inkscape:cx="351.37084"
     inkscape:cy="83.887269"
     inkscape:current-layer="layer1"
     id="namedview8066"
     showgrid="false"
     fit-margin-top="0"
     fit-margin-left="0"
     fit-margin-right="0"
     fit-margin-bottom="0"
     inkscape:window-width="1280"
     inkscape:window-height="752"
     inkscape:window-x="0"
     inkscape:window-y="0"
     inkscape:window-maximized="0" />
  <metadata
     id="metadata8068">
    <rdf:RDF>
      <cc:Work
         rdf:about="">
        <dc:format>image/svg+xml</dc:format>
        <dc:type
           rdf:resource="http://purl.org/dc/dcmitype/StillImage" />
        <dc:title></dc:title>
      </cc:Work>
    </rdf:RDF>
  </metadata>
  <g
     inkscape:label="Layer 1"
     inkscape:groupmode="layer"
     id="layer1"
     transform="translate(-174.81025,-90.416867)">
    <path
       style="fill:#000000;fill-opacity:1;fill-rule:nonzero;stroke:none"
       id="path9135"
       d="m 492.68367,94.913383 c 1.12734,8.422487 0.41008,17.070337 0.29285,25.551677 -0.50913,32.96359 0.14444,65.92907 1.03264,98.87983 1.23191,39.82063 2.02141,79.65202 2.48057,119.48849 0.20827,22.61036 0.64737,45.25493 -1.11327,67.81622 -0.27129,2.11159 -0.54258,4.22318 -0.81387,6.33478 -0.37788,2.93167 -4.52389,2.39727 -4.14601,-0.5344 l 0,0 c 0.2641,-2.04211 0.5282,-4.08421 0.7923,-6.12632 1.75853,-22.43616 1.29854,-44.95711 1.10082,-67.4421 -0.45886,-39.81498 -1.24805,-79.62489 -2.47933,-119.42405 -0.88948,-33.00755 -1.54385,-66.02983 -1.03376,-99.05024 0.11237,-8.12777 0.75307,-16.39685 -0.16843,-24.480013 -0.71692,-2.867667 3.33858,-3.88154 4.05549,-1.013874 z"
       inkscape:connector-curvature="0" />
    <path
       style="fill:#000000;fill-opacity:1;fill-rule:nonzero;stroke:none"
       id="path9139"
       d="m 490.95688,93.140386 c -0.69428,2.677408 -1.832,5.228363 -3.02015,7.719514 -1.37,3.03059 -2.68297,6.08743 -3.91905,9.17543 -0.34979,1.7603 -2.02795,3.12882 -2.46466,4.82482 -0.085,0.23033 -0.12309,0.56224 -0.1478,0.76725 0.13697,-2.06315 -4.17765,1.19276 -4.15413,-1.00385 0.0322,-2.95575 4.21221,-2.91028 4.18006,0.0455 l 0,0 c -0.0211,1.91215 -4.50522,2.93358 -4.20367,0.81205 0.036,-0.74873 0.19885,-1.48429 0.4509,-2.19002 0.72531,-1.64717 1.79473,-3.12715 2.45855,-4.80966 1.27088,-3.17275 2.6193,-6.31436 4.02966,-9.427302 1.07493,-2.233328 2.10183,-4.527344 2.7348,-6.927565 0.71691,-2.867667 4.77241,-1.853793 4.05549,1.013873 z"
       inkscape:connector-curvature="0" />
    <path
       style="fill:#000000;fill-opacity:1;fill-rule:nonzero;stroke:none"
       id="path9147"
       d="m 489.30384,91.824037 c 2.47548,1.557475 4.40393,3.797564 6.31783,5.974639 2.18192,2.621554 4.64615,4.962754 7.08331,7.335574 2.01734,1.28628 3.10525,3.37545 4.56898,5.1382 0.18897,0.25214 0.68559,0.66088 0.8562,0.77041 -0.51633,-0.22785 0.62433,0.23071 -0.31138,-0.13741 2.82299,0.8765 1.58344,4.8688 -1.23955,3.99231 l 0,0 c -0.36036,-0.13414 -0.19265,-0.0607 -0.50532,-0.21528 -0.81419,-0.48077 -1.50223,-1.13759 -2.1107,-1.8578 -1.26432,-1.69939 -2.35206,-3.47803 -4.17646,-4.69729 -2.51032,-2.45124 -5.05418,-4.86494 -7.30477,-7.56877 -1.56268,-1.777809 -3.1155,-3.607833 -5.04763,-4.995603 -2.64386,-1.321929 -0.77437,-5.060909 1.86949,-3.73898 z"
       inkscape:connector-curvature="0" />
    <path
       inkscape:connector-curvature="0"
       d="m 800.17369,401.02947 c -8.43136,1.05896 -17.0731,0.27154 -25.55321,0.0855 -32.95838,-0.77661 -65.92807,-0.39057 -98.88496,0.2302 -39.82931,0.90873 -79.6658,1.37497 -119.50468,1.51085 -22.61131,0.0248 -45.25869,0.28011 -67.80495,-1.66356 -2.10932,-0.28842 -4.21864,-0.57683 -6.32797,-0.86525 -2.92851,-0.40166 -2.36048,-4.54319 0.56803,-4.14154 l 0,0 c 2.0399,0.28067 4.07978,0.56133 6.11968,0.84199 22.42116,1.94054 44.9451,1.66332 67.43095,1.64808 39.81739,-0.13575 79.6324,-0.60186 119.44024,-1.51013 33.01368,-0.6216 66.04018,-1.00797 99.05537,-0.22994 8.12659,0.17832 16.39019,0.8861 24.48058,0.0302 2.87338,-0.69363 3.85431,3.36997 0.98092,4.06358 z"
       id="path9149"
       style="fill:#000000;fill-opacity:1;fill-rule:nonzero;stroke:none" />
    <path
       inkscape:connector-curvature="0"
       d="m 801.96065,399.31713 c -2.67169,-0.71599 -5.21333,-1.87437 -7.69476,-3.0827 -3.01937,-1.39455 -6.06546,-2.73228 -9.14333,-3.99338 -1.7574,-0.36406 -3.11226,-2.05327 -4.80466,-2.50373 -0.22963,-0.0869 -0.56122,-0.12765 -0.76602,-0.15402 2.06197,0.15371 -1.15882,-4.18719 1.03753,-4.14585 2.95539,0.0562 2.876,4.23569 -0.0794,4.17955 l 0,0 c -1.91192,-0.0366 -2.89693,-4.52887 -0.77791,-4.21012 0.74841,0.0421 1.48262,0.21089 2.18629,0.46866 1.64123,0.73865 3.11248,1.82005 4.78955,2.4975 3.16233,1.29658 6.29289,2.67045 9.3943,4.10603 2.22452,1.09302 4.51013,2.1385 6.90513,2.79093 2.86176,0.74015 1.81501,4.78729 -1.04674,4.04712 z"
       id="path9151"
       style="fill:#000000;fill-opacity:1;fill-rule:nonzero;stroke:none" />
    <path
       inkscape:connector-curvature="0"
       d="m 803.29036,397.67482 c -1.57751,2.46276 -3.83317,4.37297 -6.0257,6.26914 -2.63918,2.16057 -5.0003,4.60572 -7.39282,7.02355 -1.30261,2.00683 -3.40054,3.07775 -5.17511,4.52713 -0.25367,0.18692 -0.66642,0.68021 -0.77733,0.84992 0.23203,-0.51446 -0.23577,0.62244 0.13993,-0.31025 -0.89938,2.81578 -4.88149,1.54388 -3.98212,-1.27191 l 0,0 c 0.13706,-0.35926 0.0623,-0.19215 0.21937,-0.50356 0.48736,-0.81026 1.14975,-1.49294 1.87487,-2.09555 1.70959,-1.25049 3.497,-2.32376 4.73103,-4.1382 2.47153,-2.49035 4.90579,-5.01454 7.6278,-7.24311 1.79043,-1.54821 3.633,-3.08612 5.0364,-5.00693 1.34334,-2.63304 5.06702,-0.73327 3.72368,1.89977 z"
       id="path9153"
       style="fill:#000000;fill-opacity:1;fill-rule:nonzero;stroke:none" />
    <path
       style="fill:#000000;fill-opacity:1;fill-rule:nonzero;stroke:none"
       id="path9155"
       d="m 183.66635,399.13887 c 8.42586,-1.10183 17.0715,-0.35838 25.55245,-0.21547 32.96189,0.60895 65.9292,0.0552 98.8825,-0.73321 39.82418,-1.11132 79.65778,-1.7802 119.49545,-2.11872 22.61089,-0.1398 45.25669,-0.51033 67.81254,1.31863 2.11076,0.27768 4.22152,0.55536 6.33229,0.83305 2.93051,0.38675 2.38356,4.53113 -0.54696,4.14437 l 0,0 c -2.0413,-0.27028 -4.08259,-0.54057 -6.12389,-0.81085 -22.43073,-1.82646 -44.95297,-1.43467 -67.43846,-1.30504 -39.81618,0.33829 -79.6283,1.00692 -119.43101,2.11767 -33.01009,0.78953 -66.0342,1.34389 -99.05291,0.73381 -8.12739,-0.13698 -16.3945,-0.80272 -24.48042,0.0943 -2.86982,0.70824 -3.87141,-3.35032 -1.00158,-4.05854 z"
       inkscape:connector-curvature="0" />
    <path
       style="fill:#000000;fill-opacity:1;fill-rule:nonzero;stroke:none"
       id="path9157"
       d="m 181.88813,400.86028 c 2.67529,0.70239 5.22279,1.84783 7.71033,3.04352 3.02643,1.37917 6.07928,2.70139 9.16352,3.94681 1.75924,0.35512 3.12267,2.03742 4.81734,2.47926 0.23007,0.0857 0.56186,0.12479 0.7668,0.15013 -2.06273,-0.14322 1.1801,4.18124 -1.01643,4.15107 -2.95564,-0.0412 -2.89751,-4.22101 0.0582,-4.17991 l 0,0 c 1.91208,0.0269 2.91992,4.51409 0.79932,4.20611 -0.74862,-0.0383 -1.48368,-0.20334 -2.18865,-0.45753 -1.64496,-0.73029 -3.1217,-1.80419 -4.80219,-2.4731 -3.16889,-1.28048 -6.3064,-2.63841 -9.41506,-4.05819 -2.23006,-1.08169 -4.52096,-2.11553 -6.91925,-2.75577 -2.86548,-0.72559 -1.83933,-4.778 1.02615,-4.0524 z"
       inkscape:connector-curvature="0" />
    <path
       style="fill:#000000;fill-opacity:1;fill-rule:nonzero;stroke:none"
       id="path9159"
       d="m 180.56678,402.50933 c 1.56497,-2.47075 3.81089,-4.39241 5.99374,-6.29971 2.62815,-2.17397 4.97681,-4.6311 7.357,-7.06106 1.29238,-2.01344 3.38483,-3.09502 5.15201,-4.5534 0.25271,-0.18821 0.66295,-0.68359 0.773,-0.85387 -0.22942,0.51564 0.2326,-0.62362 -0.13836,0.31097 0.88505,-2.82033 4.87358,-1.56869 3.98854,1.25163 l 0,0 c -0.13523,0.35995 -0.0613,0.19247 -0.21681,0.50467 -0.48323,0.81273 -1.14213,1.49878 -1.86418,2.10506 -1.70321,1.25917 -3.48514,2.34152 -4.70992,4.16222 -2.45883,2.50288 -4.88022,5.03942 -7.59085,7.28181 -1.78253,1.55729 -3.61726,3.10457 -5.01087,5.03248 -1.32993,2.63985 -5.06323,0.75904 -3.7333,-1.8808 z"
       inkscape:connector-curvature="0" />
    <path
       style="fill:#000000;fill-opacity:1;fill-rule:nonzero;stroke:none"
       id="path9169"
       d="m 211.26457,233.87397 c 4.547,0.86027 9.27569,0.30192 13.87514,0.1691 11.73115,-0.38543 23.45009,-1.03887 35.18454,-1.37936 14.97689,-0.36144 29.9591,-0.3846 44.93948,-0.41422 16.0579,-0.018 32.11581,-0.009 48.17372,-0.005 12.94083,0.28666 25.87318,0.83825 38.8136,1.14766 6.9831,0.15555 13.96759,0.23319 20.95228,0.25822 3.04134,0.008 6.08269,0.003 9.12403,-0.002 1.15607,-0.002 2.31215,-0.003 3.46822,-0.004 0.44293,-3.5e-4 0.88585,-2.7e-4 1.32877,-2.4e-4 0.11171,0 0.22343,2e-5 0.33514,4e-5 2.95593,7.5e-4 2.95486,4.18106 -0.001,4.18031 l 0,0 c -0.11144,-2e-5 -0.22288,-5e-5 -0.33432,-5e-5 -0.44148,-2e-5 -0.88296,-1e-4 -1.32444,2.4e-4 -1.15535,0.001 -2.31071,0.003 -3.46606,0.004 -3.04842,0.005 -6.09685,0.009 -9.14527,0.002 -7.01301,-0.0252 -14.02582,-0.10312 -21.03723,-0.25938 -12.90749,-0.30875 -25.80697,-0.85689 -38.71477,-1.14647 -16.05478,-0.004 -32.10957,-0.0135 -48.16435,0.005 -14.94273,0.0295 -29.88728,0.0525 -44.82654,0.41246 -11.73464,0.34024 -23.45371,0.9948 -35.18509,1.37939 -4.98098,0.14379 -10.09455,0.73226 -15.00966,-0.29218 -2.86767,-0.71691 -1.85379,-4.77241 1.01387,-4.05549 z"
       inkscape:connector-curvature="0" />
    <path
       style="fill:#000000;fill-opacity:1;fill-rule:nonzero;stroke:none"
       d="m 417.17756,233.81793 c 22.37391,-2.00837 36.95827,7.55009 49.87712,20.3108 17.58101,14.92094 29.26708,51.99603 39.63465,64.98513 22.83854,37.28369 54.10408,60.37107 103.90195,74.1792 11.97341,3.44242 23.85397,2.93401 16.33992,8.81612 -28.41516,-8.1259 -74.86858,-19.49495 -99.28185,-50.16281 -21.16378,-21.86672 -29.80255,-38.66468 -41.03062,-61.82864 -7.50463,-15.63424 -18.80945,-38.18913 -42.02712,-48.09968 -18.07327,-5.83368 -27.07261,-4.01958 -27.41405,-8.20012 z"
       id="path9177"
       inkscape:connector-curvature="0"
       sodipodi:nodetypes="ccccccccc" />
    <path
       style="fill:none;stroke:#000000;stroke-width:2.41653538;stroke-linecap:butt;stroke-linejoin:miter;stroke-miterlimit:4;stroke-opacity:1;stroke-dasharray:2.41653543, 4.83307087;stroke-dashoffset:0"
       d="m 427.97174,234.76574 77.11966,-1e-5"
       id="path9180"
       inkscape:connector-curvature="0"
       sodipodi:nodetypes="cc" />
    <path
       style="fill:none;stroke:#000000;stroke-width:2.41653538;stroke-linecap:butt;stroke-linejoin:miter;stroke-miterlimit:4;stroke-opacity:1;stroke-dasharray:2.41653543, 4.83307087;stroke-dashoffset:0"
       d="M 493.22684,299.17337 627.97438,399.17468"
       id="path9182"
       inkscape:connector-curvature="0" />
    <path
       style="fill:#000000;fill-opacity:1;fill-rule:nonzero;stroke:none"
       id="path9184"
       d="m 443.80916,95.753678 c 0,5.575832 0,11.151672 0,16.727512 0,5.51494 0,11.02988 0,16.54482 0,1.49292 0,2.98583 0,4.47875 0,2.95592 -4.1803,2.95592 -4.1803,0 l 0,0 c 0,-1.49292 0,-2.98583 0,-4.47875 0,-5.51494 0,-11.02988 0,-16.54482 0,-5.57584 0,-11.15168 0,-16.727512 0,-2.955923 4.1803,-2.955923 4.1803,0 z"
       inkscape:connector-curvature="0" />
    <path
       style="fill:#000000;fill-opacity:1;fill-rule:nonzero;stroke:none"
       id="path9186"
       d="m 428.78473,94.056887 c 5.26623,0 10.53247,0 15.7987,0 4.03444,0 8.06888,0 12.10333,0 0.61796,0 1.23592,0 1.85387,0 0.003,0 0.005,0 0.008,0 2.95592,0 2.95592,4.180306 0,4.180306 l 0,0 c -0.003,0 -0.005,0 -0.008,0 -0.61795,0 -1.23591,0 -1.85387,0 -4.03445,0 -8.06889,0 -12.10333,0 -5.26623,0 -10.53247,0 -15.7987,0 -2.95592,0 -2.95592,-4.180306 0,-4.180306 z"
       inkscape:connector-curvature="0" />
    <path
       style="fill:#000000;fill-opacity:1;fill-rule:nonzero;stroke:none"
       id="path9198"
       d="m 746.21597,452.03825 c 3.70225,-1.93781 6.18495,-5.39648 8.55869,-8.68361 3.44562,-5.15546 5.79511,-10.88188 7.8517,-16.67907 1.31211,-3.9009 2.30893,-7.8893 2.19809,-12.01207 -0.14376,-2.01357 -0.96738,-3.69319 -2.0702,-5.33584 -0.0993,-0.16641 -1.03431,-1.5489 -1.48344,-1.27785 -0.0746,0.045 0.15678,0.0769 0.23516,0.11529 0.19662,-0.0289 0.40888,-0.16777 0.58983,-0.0868 0.18053,0.0808 -0.30218,0.26829 -0.38682,0.44475 -0.23092,0.48144 -0.40717,0.98944 -0.63536,1.47425 -0.87977,2.51134 -1.2928,5.18728 -1.90777,7.78037 -1.54236,6.72078 -2.33204,13.55364 -2.85666,20.41352 -0.30716,4.98352 -0.96204,10.0091 2.63251,14.01117 1.82208,1.23361 3.37462,0.39736 4.89862,-0.82894 1.75863,-1.32526 3.66353,1.12174 1.9049,2.447 l 0,0 c -3.20638,2.31641 -5.85605,2.93319 -9.20952,0.35594 -0.46702,-0.57318 -1.00516,-1.09671 -1.40108,-1.71956 -2.74571,-4.31943 -2.24815,-9.66608 -1.94933,-14.49725 0.53839,-7.01753 1.35004,-14.00754 2.92977,-20.88237 0.66407,-2.79927 1.09221,-5.69618 2.12089,-8.38584 0.76269,-1.58331 1.27119,-3.05749 3.15896,-3.60659 1.7645,0.15603 3.0606,1.02611 3.97364,2.54457 1.42766,2.1282 2.41884,4.37181 2.5878,6.96167 0.096,4.49518 -0.91855,8.84912 -2.37237,13.10072 -2.15571,6.07129 -4.63273,12.06251 -8.25799,17.45156 -2.82672,3.89277 -5.84372,8.04457 -10.49563,9.91738 -2.17218,0.42744 -2.78656,-2.59498 -0.61439,-3.02241 z"
       inkscape:connector-curvature="0" />
    <path
       style="fill:#000000;fill-opacity:1;fill-rule:nonzero;stroke:none"
       id="path9224"
       d="m 729.79829,421.75591 c -1.26334,-0.91636 -2.43959,-0.78984 -3.88997,-0.31754 -2.48054,1.30642 -3.71406,3.58515 -4.45694,5.91371 -0.11813,0.66499 -0.37601,1.67516 0.31047,2.23219 0.51715,0.41964 1.52203,0.0419 2.0201,-0.0969 2.83486,-1.4293 4.73901,-3.87957 5.98119,-6.45276 0.32286,-0.66882 0.55751,-1.36672 0.83627,-2.05008 1.20598,-3.60735 1.75178,-7.35793 1.0571,-11.07723 -0.10483,-0.29726 -0.18338,-0.60236 -0.31451,-0.89178 -0.27026,-0.5965 -0.76425,-1.18802 -0.85424,-0.99677 -0.0247,0.0525 0.095,0.0882 0.10422,0.14433 0.0102,0.0617 -0.0337,0.12134 -0.0507,0.182 -1.5462,2.2636 -1.66388,5.0313 -1.91939,7.58306 -0.0531,3.1876 0.14858,6.49088 1.41091,9.52381 0.18021,0.433 0.43115,0.8417 0.64673,1.26255 0.59946,0.77265 1.50343,2.10768 2.82586,1.99866 0.3856,-0.0318 0.77936,-0.32947 1.06496,-0.50242 0.20725,-0.16005 0.41451,-0.32009 0.62176,-0.48015 0.81493,-0.61379 1.82325,0.37836 1.00832,0.99215 l 0,0 c -0.27473,0.20299 -0.54946,0.40597 -0.8242,0.60895 -0.83754,0.41281 -1.15819,0.70333 -2.18467,0.67176 -1.8518,-0.057 -3.05971,-1.55583 -3.91555,-2.76175 -0.23779,-0.47362 -0.51318,-0.93454 -0.71336,-1.4209 -1.31316,-3.19027 -1.53548,-6.65588 -1.46638,-10.0063 0.28867,-2.86193 0.42691,-6.0072 2.40711,-8.4387 0.27417,-0.17031 0.50101,-0.42088 0.82251,-0.51094 1.80953,-0.50695 2.5227,1.85137 2.84311,2.83662 0.71209,3.93984 0.1764,7.90426 -1.12584,11.72235 -0.30152,0.73005 -0.55566,1.47591 -0.90457,2.19015 -1.17469,2.40472 -2.95416,4.84238 -5.44748,6.39356 -0.47492,0.29547 -1.0154,0.50368 -1.52311,0.75551 -1.11622,0.21343 -1.6746,0.49345 -2.78132,0.0729 -1.78057,-0.67656 -1.71743,-2.47107 -1.41034,-3.83806 0.92072,-2.8032 2.36547,-5.31792 5.42335,-6.80294 0.42284,-0.12138 0.83227,-0.28553 1.26855,-0.36413 1.58123,-0.28481 3.22486,0.16213 4.35505,1.13415 0.64969,0.74572 -0.57537,1.53669 -1.22504,0.79096 z"
       inkscape:connector-curvature="0" />
    <path
       style="fill:#000000;fill-opacity:1;fill-rule:nonzero;stroke:none"
       id="path9226"
       d="m 719.57851,433.56619 c 2.64766,0.79352 5.5478,0.56017 8.29743,0.49534 3.99816,-0.20403 7.99064,-0.48049 11.98666,-0.71325 0.76716,-0.0695 1.5435,-0.0614 2.31058,-0.1309 1.07769,-0.0905 1.22637,1.22154 0.14868,1.31205 l 0,0 c -0.78338,0.063 -1.57234,0.0723 -2.35589,0.13411 -4.01653,0.23396 -8.02946,0.51258 -12.04829,0.71577 -2.72397,0.0637 -6.13296,0.37064 -8.73064,-0.54187 -0.24556,-0.0863 -0.46089,-0.22607 -0.69134,-0.3391 -0.76565,-0.65913 0.31715,-1.5913 1.08281,-0.93215 z"
       inkscape:connector-curvature="0" />
    <path
       style="fill:#000000;fill-opacity:1;fill-rule:nonzero;stroke:none"
       id="path9228"
       d="m 725.91954,446.90984 c 0.41149,0.0897 0.82397,0.17596 1.23538,0.26589 0.0434,0.01 -0.11082,-0.0623 -0.13038,-0.0276 -0.20301,0.35971 -0.32546,0.74916 -0.48819,1.12374 -0.95719,-0.15592 -1.95691,0.0214 -2.87258,0.29072 -1.83639,0.7282 -2.90368,2.1104 -3.68777,3.65282 -0.21717,0.21379 -1.00561,2.945 0.13095,2.4304 2.7918,-1.05129 4.10799,-3.76518 5.3447,-5.97946 1.58231,-3.2144 2.49138,-6.62257 2.28074,-10.11506 0.0944,-0.10285 -0.74706,-3.06924 -1.30851,-2.1154 -1.3221,1.50076 -1.54403,3.47668 -1.81431,5.28215 -0.25284,2.74408 -0.0267,5.53851 1.1176,8.13154 0.19664,0.44562 0.45516,0.86913 0.68274,1.30369 0.66352,0.84121 1.45336,2.3081 2.88493,2.33106 0.37649,0.006 0.61106,-0.24712 0.86181,-0.432 0.17644,-0.17251 0.35289,-0.34502 0.52933,-0.51751 0.73777,-0.6823 1.85862,0.21591 1.12085,0.89821 l 0,0 c -0.27029,0.24063 -0.54058,0.48127 -0.81086,0.72191 -0.3441,0.16996 -0.65405,0.40688 -1.03228,0.50986 -2.33009,0.63442 -3.9791,-1.55866 -4.95167,-2.97332 -0.2483,-0.48149 -0.53006,-0.95119 -0.74491,-1.44446 -1.20947,-2.77676 -1.45542,-5.76425 -1.17611,-8.69871 0.27786,-1.82994 0.5527,-4.28289 2.00614,-5.76739 0.21774,-0.22239 0.51049,-0.3811 0.76574,-0.57165 0.30674,-0.0681 0.60351,-0.20903 0.92023,-0.20411 1.88545,0.0293 2.26261,2.33394 2.47874,3.48131 0.20826,3.83094 -0.711,7.21819 -2.43093,10.75256 -1.24565,2.21696 -2.93666,5.52657 -5.83807,6.49861 -0.38205,0.12799 -0.80562,0.13125 -1.20842,0.19687 -0.34849,-0.10963 -0.741,-0.14632 -1.04544,-0.32888 -1.38,-0.82748 -0.60369,-2.88487 -0.16258,-3.92513 0.98257,-1.88243 2.33535,-3.52829 4.61013,-4.37054 1.37564,-0.37621 2.81614,-0.60157 4.2044,-0.13197 -0.0716,0.42731 -0.0248,0.88242 -0.21492,1.28195 -0.046,0.0968 -1.47415,-0.23736 -1.62787,-0.27111 -1.05048,-0.22608 -0.67908,-1.505 0.37139,-1.27892 z"
       inkscape:connector-curvature="0" />
    <path
       style="fill:#000000;fill-opacity:1;fill-rule:nonzero;stroke:none"
       id="path9230"
       d="m 739.95315,437.76009 c -0.69171,1.85136 -1.20586,3.73699 -1.62297,5.6473 -0.47626,2.52922 -0.86647,5.08638 -0.38218,7.63159 0.4819,1.29063 1.31494,1.84653 2.89262,1.66316 0.92531,-0.24525 0.47876,-0.0825 1.338,-0.49148 0.95872,-0.43329 1.67049,0.73391 0.71178,1.1672 l 0,0 c -1.24267,0.541 -0.60091,0.33024 -1.92273,0.63801 -0.35417,0.0162 -0.70907,0.074 -1.06249,0.0485 -1.85329,-0.13378 -3.01084,-1.36829 -3.46926,-2.81712 -0.49119,-2.69897 -0.13672,-5.40289 0.38942,-8.08389 0.42427,-1.93507 0.9391,-3.84778 1.64222,-5.72301 0.26261,-0.90432 1.74821,-0.5846 1.48559,0.31973 z"
       inkscape:connector-curvature="0" />
    <path
       style="fill:#000000;fill-opacity:1;fill-rule:nonzero;stroke:none"
       id="path9232"
       d="m 735.64336,443.82699 c 1.58039,0.2466 3.17635,0.27249 4.77464,0.20039 0.86385,-0.009 1.71306,-0.14402 2.56164,-0.26666 1.06793,-0.15394 1.32082,1.14623 0.25288,1.30017 l 0,0 c -0.90607,0.13027 -1.81357,0.27052 -2.73533,0.283 -1.72523,0.0761 -3.44923,0.0449 -5.15415,-0.22422 -1.06177,-0.18282 -0.76146,-1.47549 0.30032,-1.29268 z"
       inkscape:connector-curvature="0" />
    <path
       style="fill:#000000;fill-opacity:1;fill-rule:nonzero;stroke:none"
       id="path9242"
       d="m 488.87603,301.90784 c 2.0107,0.55479 4.07089,0.84902 6.14569,1.01438 2.31831,0.14118 4.64208,0.15106 6.9639,0.15924 1.0256,8e-4 0.51661,9e-4 1.52697,-2.7e-4 2.95592,-0.003 2.96074,4.1769 0.005,4.18031 l 0,0 c -1.02232,10e-4 -0.5068,10e-4 -1.54657,2.4e-4 -2.42927,-0.009 -4.86064,-0.02 -7.28599,-0.17281 -2.3025,-0.18849 -4.59006,-0.51344 -6.82269,-1.1256 -2.86767,-0.71691 -1.8538,-4.77241 1.01387,-4.05549 z"
       inkscape:connector-curvature="0" />
    <path
       style="fill:#000000;fill-opacity:1;fill-rule:nonzero;stroke:none"
       id="path9244"
       d="m 466.11266,291.53114 c -0.57763,4.09297 -0.77955,8.22392 -0.68647,12.34357 0.18037,3.70543 0.44155,7.40768 0.70625,11.10932 0.0631,0.86518 0.034,0.47201 0.0868,1.17954 0.14726,1.97634 -3.12491,2.15422 -3.27217,0.17787 l 0,0 c -0.0531,-0.71236 -0.0238,-0.31681 -0.0873,-1.18668 -0.26751,-3.74122 -0.53194,-7.48305 -0.71178,-11.22821 -0.0893,-4.29087 0.11016,-8.59421 0.73053,-12.85583 0.38115,-1.95339 3.61532,-1.49297 3.23417,0.46042 z"
       inkscape:connector-curvature="0" />
    <path
       style="fill:#000000;fill-opacity:1;fill-rule:nonzero;stroke:none"
       id="path9246"
       d="m 453.38846,291.0977 c 4.49384,-0.52351 8.97823,-1.07349 13.49807,-1.43479 3.33637,-0.32585 6.67039,-0.37205 9.97629,0.15185 0.20035,0.04 0.4007,0.08 0.60104,0.11995 2.25611,0.45618 1.50082,3.18148 -0.75529,2.7253 l 0,0 c -0.1502,-0.0309 -0.3004,-0.0618 -0.4506,-0.0927 -3.00478,-0.48852 -6.03347,-0.40489 -9.06624,-0.11595 -4.62168,0.36868 -9.20121,0.9655 -13.80327,1.44695 -2.31845,0 -2.31845,-2.80062 0,-2.80062 z"
       inkscape:connector-curvature="0" />
    <path
       style="fill:#000000;fill-opacity:1;fill-rule:nonzero;stroke:none"
       id="path9248"
       d="m 476.52323,313.57255 c -1.6959,0.55424 -2.42291,1.8525 -3.01565,3.22499 -0.5526,1.32129 -0.2351,2.51371 0.93849,3.4824 0.99594,0.60515 1.42358,0.27217 2.271,-0.36625 1.48385,-1.37872 2.01733,-3.13277 2.06294,-4.95856 -0.11577,-0.94463 -0.90664,-1.16256 -1.85733,-1.37502 -0.31626,-0.0654 -0.63844,-0.0975 -0.9619,-0.11964 -2.30915,-0.17723 -2.01572,-2.96661 0.29344,-2.78938 l 0,0 c 0.52945,0.0431 1.05704,0.099 1.57257,0.21697 2.39419,0.61545 4.08772,1.89379 4.23032,4.15691 -0.12454,2.66539 -1.01915,5.17606 -3.32353,7.07706 -2.42996,1.52532 -4.31869,1.76011 -6.71396,0.0415 -1.86127,-1.85406 -2.59127,-3.99389 -1.57389,-6.36776 1.02243,-2.22088 2.48006,-4.17761 5.28228,-4.94021 2.24923,-0.48031 3.04446,2.2367 0.79522,2.717 z"
       inkscape:connector-curvature="0" />
    <path
       style="fill:#000000;fill-opacity:1;fill-rule:nonzero;stroke:none"
       id="path9250"
       d="m 179.94132,302.30584 c 0.49335,3.58303 0.56616,7.22373 0.66564,10.8441 0.0606,2.69041 0.0922,5.38158 0.10024,8.07287 6e-4,0.81518 0.0439,0.33816 -0.25255,1.40869 -0.84737,1.81243 -3.05049,0.41825 -2.20312,-1.39419 l 0,0 c -0.0692,0.6447 -0.0518,0.64575 -0.0523,-0.004 -0.008,-2.6636 -0.0392,-5.32711 -0.099,-7.98986 -0.0949,-3.45985 -0.16234,-6.93849 -0.61822,-10.36501 -0.34778,-2.02313 2.11146,-2.59535 2.45925,-0.57222 z"
       inkscape:connector-curvature="0" />
    <path
       style="fill:#000000;fill-opacity:1;fill-rule:nonzero;stroke:none"
       id="path9252"
       d="m 179.1984,294.63747 c -0.75577,0.85589 -1.41833,1.80763 -2.32708,2.43774 -0.49507,-0.14769 -1.05866,-0.11552 -1.4852,-0.44308 -0.76645,-0.58859 -0.54302,-2.9064 -0.5529,-3.81051 0.0952,-1.05354 0.48609,-1.96012 1.18769,-2.62611 1.99294,0.59067 1.85104,0.21577 2.63823,1.85516 0.0981,0.2056 0.18976,0.41509 0.2725,0.62957 -1.68938,0.72654 -2.42633,1.21456 -2.41483,-0.26246 -2e-4,-0.0705 0.003,-0.14087 0.005,-0.21128 0.0955,-2.0602 2.59976,-1.90315 2.50431,0.15705 l 0,0 c -5.8e-4,0.0274 -0.001,0.0547 -0.002,0.0821 -0.006,1.40678 -0.691,0.74368 -2.40063,1.37731 -0.0159,-0.0381 -0.1158,-0.27584 -0.15572,-0.3521 -0.56228,-1.1781 -1.79103,-1.97016 1.07634,-0.95776 -0.0814,0.0741 -0.14508,0.17303 -0.20366,0.27214 0.006,0.5916 0.0176,1.18177 0.0426,1.77275 0.004,0.10422 0.10477,0.31434 0.0151,0.31253 -0.51833,-0.0104 -0.19235,-2.53725 -1.49816,-0.48558 -0.81663,0.81823 1.49162,-1.70896 1.52451,-1.81061 1.25397,-1.4589 3.02736,0.6043 1.77338,2.06319 z"
       inkscape:connector-curvature="0" />
    <path
       style="fill:#000000;fill-opacity:1;fill-rule:nonzero;stroke:none"
       id="path9254"
       d="m 187.93937,304.28185 c -0.71762,-0.22689 -1.49969,-0.39791 -1.99455,0.3052 -0.11593,0.46703 -0.25753,0.83555 0.082,1.20795 0.57305,0.82646 1.38479,1.1636 2.2478,1.3645 1.42997,0.41434 2.71774,1.17839 3.93033,2.13349 1.15271,0.89098 1.96368,2.04179 2.44267,3.54412 0.49158,1.49936 -0.0211,2.65364 -1.03257,3.60879 -1.53332,0.91809 -3.25693,1.33936 -4.912,1.89122 -1.37801,0.46078 -1.69766,0.69566 -3.10438,0.34879 -0.20528,-0.34921 -0.41055,-0.69842 -0.61583,-1.04763 -0.55982,-1.95769 1.81988,-2.87879 2.3797,-0.92109 l 0,0 c -0.15584,-0.17636 -0.31168,-0.3527 -0.46753,-0.52906 -1.97232,-0.21486 0.56273,-0.2487 1.11825,-0.65627 1.35308,-0.44944 2.71045,-0.88774 4.05048,-1.3786 0.083,-0.0715 0.14685,-0.19642 0.24892,-0.21449 0.0506,-0.009 -0.0372,0.11686 -0.0282,0.17542 0.0134,0.0874 0.08,0.15173 0.11258,0.23205 0.0662,0.16329 -0.18962,-0.79551 -0.11074,-0.52611 -0.26799,-0.93375 -0.78273,-1.5659 -1.49178,-2.11449 -0.94325,-0.75057 -1.93469,-1.35813 -3.04909,-1.69404 -1.58919,-0.41819 -3.00386,-1.20192 -3.9293,-2.83875 -0.66102,-1.65364 -0.62623,-3.20391 0.379,-4.67615 1.24512,-1.3165 2.73837,-1.60026 4.35254,-1.04552 1.72044,0.50039 1.11218,3.33107 -0.60826,2.83067 z"
       inkscape:connector-curvature="0" />
    <path
       style="fill:#000000;fill-opacity:1;fill-rule:nonzero;stroke:none"
       id="path9256"
       d="m 200.21539,302.65645 c 0.85591,0.24895 1.71182,0.49789 2.56773,0.74683 0.1328,0.0386 0.26561,0.0773 0.39841,0.11589 -0.16904,0.95797 -0.25159,1.94223 -0.50712,2.8739 -0.009,0.0311 -0.81347,-0.11713 -0.98531,0.45313 -0.6362,1.60913 -0.84147,3.4763 -0.76642,5.23368 0.26759,1.55283 1.74077,1.70212 2.88077,1.91805 1.46622,0.0946 2.64578,-0.18571 3.59016,-1.5193 0.77189,-1.36998 0.77351,-2.75764 0.2449,-4.23024 -0.51521,-1.62401 -1.33566,-2.74791 -2.71646,-3.36458 -0.78446,-0.33418 -1.60753,-0.45423 -2.43716,-0.48206 -0.19485,3.7e-4 -0.1081,-0.002 -0.26029,0.004 -1.77266,0.0591 -1.84449,-2.85752 -0.0718,-2.9166 l 0,0 c 0.25334,-0.007 0.11627,-0.006 0.41125,-0.004 1.13255,0.0443 2.25492,0.23052 3.32001,0.70378 1.99414,1.00799 3.34816,2.63238 4.10383,5.03807 0.76456,2.54916 0.69834,4.96892 -0.72814,7.20074 -1.61543,2.00017 -3.52022,2.70755 -5.8795,2.44589 -2.39549,-0.49511 -4.61481,-1.52647 -4.964,-4.69357 -0.0512,-2.49691 0.20893,-5.1252 1.39437,-7.26728 0.25841,-0.29293 0.48413,-0.63082 0.77524,-0.8788 0.24089,-0.2052 2.07559,-0.83595 2.09222,-0.55896 0.0575,0.95672 -0.0698,1.91639 -0.10478,2.87458 -0.13281,-0.0386 -0.26561,-0.0773 -0.39842,-0.11588 -0.85591,-0.24895 -1.71182,-0.4979 -2.56773,-0.74684 -1.72044,-0.5004 -1.11217,-3.33108 0.60827,-2.83068 z"
       inkscape:connector-curvature="0" />
    <path
       style="fill:#000000;fill-opacity:1;fill-rule:nonzero;stroke:none"
       id="path9258"
       d="m 218.32088,303.56455 c 0,2.57606 0,5.15212 0,7.72817 0,1.82483 0,3.64965 0,5.47448 0,0.28274 0,0.56548 0,0.84822 0,0.001 0,0.003 0,0.004 -0.83599,-0.12326 -1.73491,0.0204 -2.50795,-0.36978 -0.004,-0.002 0.37412,-2.17382 0.5176,-3.28663 0.43058,-2.27335 0.72257,-4.56868 1.27947,-6.8058 0.36492,-1.60595 0.88926,-3.19477 1.82264,-4.46734 1.31834,-1.19068 2.45705,-0.37864 3.73586,0.33409 0.8359,0.36596 1.43725,1.0825 1.94334,1.91267 0.76534,1.83983 1.085,3.82638 1.31472,5.83525 0.13422,1.46344 0.22065,2.93293 0.25918,4.40396 0.0119,1.48011 0.1322,0.76684 -2.10541,-0.65448 0.80615,-1.42669 1.35756,-3.0211 1.91137,-4.59644 0.84729,-2.27793 2.04007,-4.35782 3.209,-6.42631 0.55961,-0.83579 1.41493,-2.60356 2.52025,-2.62045 0.38827,-0.006 0.75745,0.19946 1.13618,0.29919 1.37889,1.3101 1.33859,3.33809 1.67992,5.19804 0.30157,1.67769 0.72548,3.31258 1.09505,4.96998 0.19852,0.94758 0.38522,1.89907 0.53903,2.858 0.0215,0.12561 0.0365,0.25216 0.0473,0.37954 0.12818,2.0578 -2.37321,2.26868 -2.50138,0.21088 l 0,0 c -0.004,-0.0187 -0.009,-0.0371 -0.0115,-0.0562 -0.14267,-0.89325 -0.31795,-1.77912 -0.50161,-2.662 -0.37691,-1.70318 -0.81242,-3.38415 -1.12253,-5.10727 -0.0425,-0.2439 -0.58709,-3.05113 -0.53617,-3.2177 0.0157,-0.0512 0.0934,0.004 0.14016,0.006 2.09962,-0.12146 -0.28888,0.13921 0.84356,-0.2372 0.0899,-0.0299 -0.15273,0.12568 -0.22503,0.19459 -0.41185,0.39252 -0.74971,0.83823 -1.00783,1.38734 -1.08095,1.91172 -2.19016,3.83026 -2.98389,5.92977 -0.61596,1.74456 -1.23697,3.50512 -2.13216,5.0853 -2.74777,-0.69103 -2.47409,0.28604 -2.50114,-0.8529 -0.0354,-1.37303 -0.11662,-2.74453 -0.2388,-4.11078 -0.1734,-1.54599 -0.40653,-3.09988 -0.88724,-4.55062 -0.41096,-0.71262 -0.32935,-0.61011 -0.96883,-0.94775 -0.23176,-0.12943 -0.93917,-0.35879 -1.05787,-0.63619 -0.0298,-0.0695 0.43244,-0.24542 0.28635,-0.39749 -0.72679,0.88971 -0.99054,2.20714 -1.29394,3.34909 -0.52789,2.11239 -0.79062,4.28317 -1.20822,6.42823 -0.42313,3.24284 0.29612,2.82649 -2.99746,3.21666 0,-0.28274 0,-0.56549 0,-0.84823 0,-1.82482 0,-3.64964 0,-5.47447 0,-2.57606 0,-5.15212 0,-7.72817 0,-2.0632 2.50795,-2.0632 2.50795,0 z"
       inkscape:connector-curvature="0" />
    <path
       style="fill:#000000;fill-opacity:1;fill-rule:nonzero;stroke:none"
       id="path9260"
       d="m 242.46277,306.05515 c 0.90871,0.82701 1.93891,1.66501 3.14034,1.39891 1.02229,-0.48293 1.85406,-1.48163 2.34115,-2.62044 0.40707,-1.24084 0.0173,-2.55659 -0.47108,-3.68989 -0.45085,-0.72173 -1.04363,-1.3056 -1.80667,-1.49666 -0.19135,-0.0149 -1.05516,-0.28359 -0.94449,0.0295 -1.12585,1.35568 -1.54384,3.25415 -2.02458,5.00156 -0.58658,2.39867 -0.90081,4.82921 -0.47286,7.28887 0.43228,1.71414 1.45627,2.85903 2.82779,3.56186 1.57495,0.80882 3.26999,1.15664 4.96338,1.42829 0.8424,0.15124 0.67013,0.019 1.03424,-0.54482 0.049,-0.11283 0.0981,-0.22566 0.14712,-0.33849 0.86392,-1.80181 3.05414,-0.38037 2.19022,1.42144 l 0,0 c -0.11582,0.23101 -0.23164,0.46201 -0.34746,0.693 -0.85537,1.27997 -1.93166,1.98378 -3.36801,1.65911 -1.9415,-0.3138 -3.88002,-0.73619 -5.68108,-1.67503 -2.09005,-1.17798 -3.62823,-2.98323 -4.23075,-5.66491 -0.45292,-2.95099 -0.19401,-5.85047 0.5497,-8.72193 0.65221,-2.35317 1.28759,-4.83857 2.96891,-6.49508 1.01675,-0.68781 1.93953,-0.80447 3.07154,-0.45066 1.44351,0.51956 2.60709,1.51079 3.38659,3.0477 0.80387,2.0249 1.24776,4.20462 0.41454,6.3319 -0.95427,1.96999 -2.35969,3.59508 -4.30337,4.13854 -1.86426,0.13361 -3.45685,-0.55437 -4.88994,-1.96854 -1.4187,-1.23791 0.0861,-3.57215 1.50477,-2.33423 z"
       inkscape:connector-curvature="0" />
    <path
       style="fill:#000000;fill-opacity:1;fill-rule:nonzero;stroke:none"
       id="path9262"
       d="m 261.01854,292.39578 c 0.56349,3.01637 0.59341,6.12913 0.67873,9.2021 0.0809,3.67896 0.0945,7.35932 0.10025,11.03929 6e-4,1.25665 6e-4,2.51331 -0.004,3.76995 -0.006,1.17195 0.0624,0.21838 -2.50939,-0.11174 -0.002,-2.06319 2.50526,-2.0676 2.50795,-0.004 l 0,0 c -2.58502,0.31535 -2.51124,1.26746 -2.50648,0.10414 0.004,-1.25087 0.004,-2.50175 0.004,-3.75262 -0.006,-3.65042 -0.0191,-7.30122 -0.099,-10.95065 -0.0792,-2.8664 -0.0999,-5.7708 -0.60514,-8.5884 -0.43012,-2.00158 2.00296,-2.70926 2.43306,-0.70766 z"
       inkscape:connector-curvature="0" />
    <path
       style="fill:#000000;fill-opacity:1;fill-rule:nonzero;stroke:none"
       id="path9264"
       d="m 256.22622,302.65645 c 1.79009,0.44972 3.62622,0.58611 5.45064,0.7056 1.35632,0.0758 2.7141,0.10494 4.07184,0.11358 0.17436,0.003 0.46966,-7e-4 0.61381,-0.003 0.17948,-0.005 0.35904,-0.004 0.53856,-0.004 1.77339,-0.002 1.77569,2.9159 0.002,2.9178 l 0,0 c -0.14162,1.4e-4 -0.28324,6.6e-4 -0.42486,10e-4 -0.24778,0.009 -0.49574,0.006 -0.74361,0.006 -1.40033,-0.009 -2.80071,-0.0394 -4.19956,-0.11819 -1.9816,-0.13077 -3.97536,-0.28539 -5.91738,-0.78806 -1.72044,-0.5004 -1.11217,-3.33108 0.60826,-2.83068 z"
       inkscape:connector-curvature="0" />
    <path
       style="fill:#000000;fill-opacity:1;fill-rule:nonzero;stroke:none"
       id="path9266"
       d="m 271.87296,304.51807 c 1.19039,1.94028 1.77499,4.20153 2.15489,6.51314 0.24188,1.77132 0.30043,3.5661 0.32041,5.3565 0.002,0.42842 0.004,0.85706 -0.0135,1.28508 -3.21721,-0.26227 -2.51076,0.17398 -2.51136,-2.63776 -0.0964,-1.76961 0.25927,-3.49675 0.52307,-5.2268 0.35633,-1.79197 1.12099,-3.3665 2.12583,-4.76558 0.8358,-1.14899 1.90557,-1.95143 3.13935,-2.37112 1.02552,-0.31607 2.03053,-0.22176 3.02983,0.15448 0.53149,0.27182 1.09163,0.45707 1.65374,0.62078 0.0767,0.0362 0.32067,0.0628 0.0705,0.0322 1.76991,0.12896 1.61315,3.04106 -0.15677,2.91209 l 0,0 c -0.1777,-0.0204 -0.35197,-0.0618 -0.52478,-0.11449 -0.62587,-0.18344 -1.25163,-0.38692 -1.84475,-0.68608 -0.51034,-0.21613 -1.00957,-0.26714 -1.55059,-0.10964 -0.75654,0.22695 -1.39799,0.7556 -1.90376,1.44882 -0.7351,0.9877 -1.28214,2.11662 -1.56922,3.38815 -0.23846,1.56374 -0.57918,3.11687 -0.48453,4.71639 5.9e-4,2.76964 0.72393,2.39154 -2.49971,2.45778 0.0111,-0.35545 0.0117,-0.71127 0.009,-1.06697 -0.0176,-1.62176 -0.0666,-3.24755 -0.27721,-4.85336 -0.29861,-1.8746 -0.74703,-3.7181 -1.69671,-5.303 -1.06403,-1.65056 0.94232,-3.40123 2.00636,-1.75068 z"
       inkscape:connector-curvature="0" />
    <path
       style="fill:#000000;fill-opacity:1;fill-rule:nonzero;stroke:none"
       id="path9268"
       d="m 289.44196,304.06697 c 0.4454,2.17124 0.57308,4.40158 0.67751,6.62301 0.0859,2.39164 0.0962,4.78576 0.10145,7.17912 4.4e-4,0.84294 0.001,1.6859 -0.004,2.52882 -0.88332,1.73302 -0.22574,1.26366 -2.01664,1.32122 -1.61138,-0.86152 -0.56415,-3.51277 1.04723,-2.65125 l 0,0 c -1.43849,0.25368 -0.9331,-0.19478 -1.53848,1.31067 0.005,-0.83401 0.004,-1.66803 0.004,-2.50205 -0.005,-2.34291 -0.0149,-4.68657 -0.0978,-7.02784 -0.0949,-2.03641 -0.20402,-4.08202 -0.60635,-6.07402 -0.43011,-2.0016 2.00296,-2.70927 2.43307,-0.70768 z"
       inkscape:connector-curvature="0" />
    <path
       style="fill:#000000;fill-opacity:1;fill-rule:nonzero;stroke:none"
       id="path9270"
       d="m 285.86676,295.76664 c 1.03919,-1.04949 2.25541,-1.62974 3.62916,-1.41026 1.43584,0.46887 1.17109,0.65313 0.19135,3.15799 -0.0161,0.0412 -0.69368,0.11376 -0.76287,0.12201 0.12647,0.0397 0.27471,-0.0401 0.37081,-0.0781 0.35015,-1.3127 -0.66522,0.99827 -1.42162,1.08087 -0.25423,0.0196 -0.50767,-6.6e-4 -0.75941,-0.0396 -0.35139,-0.4431 -0.75604,-0.83618 -1.05415,-1.32929 -0.29035,-0.48027 0.16192,-2.37371 0.31921,-2.81206 0.23037,-0.52703 0.53271,-1.00275 0.92765,-1.37547 0.80155,-0.71811 1.65485,-0.0217 2.39226,0.42885 0.60614,0.48888 0.98891,1.18084 1.24651,1.96704 0.42967,1.05085 -0.67343,2.1463 -1.59791,2.16515 -0.37824,0.003 -0.75651,7e-4 -1.13471,-0.006 -0.77359,-0.0142 -0.27235,-0.15159 -1.34466,-1.74841 10e-4,-0.0967 0.002,-0.19332 0.004,-0.28999 0.0264,-2.06297 2.53407,-2.01953 2.50767,0.0434 l 0,0 c -0.002,0.11757 -0.003,0.23513 -0.005,0.35271 -0.41375,-0.44575 -1.70774,-1.31512 -1.11962,-1.27514 0.35129,0.006 0.70263,0.01 1.05397,0.006 1.02273,-0.0151 -1.01941,1.04658 -0.71567,1.76418 -0.0405,-0.12786 -0.26519,-0.48363 -0.0609,-0.39609 -1.74377,-1.06685 -0.45744,-0.0237 0.30183,-0.69738 -0.0606,0.0852 -0.1156,0.1756 -0.17072,0.26568 -0.50533,0.97225 0.64926,2.13397 -1.14817,0.0566 0.058,0.005 0.11605,0.01 0.17418,0.01 -0.83216,1.40654 -0.99912,1.85608 -0.70026,0.68177 0.33661,-0.85801 0.88523,-1.4459 1.69368,-1.6789 1.34967,-0.13663 0.15096,0.7277 0.39125,2.5005 -0.51934,-0.22315 -1.01597,0.29107 -1.43405,0.5972 -1.25398,1.45891 -3.02737,-0.60429 -1.77339,-2.06319 z"
       inkscape:connector-curvature="0" />
    <path
       style="fill:#000000;fill-opacity:1;fill-rule:nonzero;stroke:none"
       id="path9274"
       d="m 300.32917,301.52396 c 1.06988,0 2.13977,0 3.20966,0 0.16601,0 0.33201,0 0.49802,0 -0.0331,3.61635 0.26587,2.73457 -1.14627,2.97457 -0.95759,0.30519 -1.86765,0.73754 -2.7936,1.1503 -1.09771,0.47547 -1.25626,1.26973 -1.6109,2.5054 -0.48131,1.93713 -0.62486,3.95356 -0.71716,5.95813 -0.18206,0.11223 0.13212,2.93931 -0.0405,1.8203 0.83313,0.69036 1.88698,0.82652 2.87231,0.99309 0.90595,0.12745 1.81771,0.16645 2.72937,0.17399 -0.63135,0.0522 0.58609,-0.45143 0.76324,-0.55656 1.58801,-0.91838 2.70436,1.69442 1.11635,2.61279 l 0,0 c -0.61407,0.34902 -1.22117,0.70775 -1.89795,0.86148 -1.02753,-0.009 -2.05522,-0.056 -3.07578,-0.20493 -1.55327,-0.2683 -3.14151,-0.60649 -4.33939,-1.88701 -0.91447,-1.5056 -0.68141,-2.24744 -0.63196,-3.97075 0.10682,-2.27695 0.28229,-4.56563 0.85263,-6.75887 0.59612,-1.93921 1.3202,-3.54804 3.08254,-4.27177 0.98675,-0.4397 1.96446,-0.88818 2.98147,-1.22426 2.04788,-0.51922 1.69575,-0.42408 1.85557,2.74189 -0.16601,0 -0.33201,0 -0.49802,0 -1.06989,0 -2.13977,0 -3.20966,0 -1.77338,0 -1.77338,-2.91779 0,-2.91779 z"
       inkscape:connector-curvature="0" />
    <path
       style="fill:#000000;fill-opacity:1;fill-rule:nonzero;stroke:none"
       id="path9276"
       d="m 333.17263,294.78854 c -1.51382,0.26216 -2.81394,0.95862 -4.05394,1.95479 -0.51429,0.40384 -1.06513,0.77464 -1.26263,1.45981 -0.032,0.0718 0.29041,0.69884 0.61019,1.1166 0.938,1.50118 2.34907,2.52177 3.63152,3.59293 1.91407,1.61947 3.8344,3.26126 5.49547,5.23004 1.50188,2.12668 1.77088,3.98306 0.28972,6.22209 -1.7379,1.52554 -3.92353,1.61272 -6.01487,1.736 -1.38369,0.1427 -2.71594,0.0362 -3.94786,-0.74585 -0.67574,-0.44124 -0.85704,-1.21651 -0.9443,-2.03283 -0.15842,-2.05495 2.3395,-2.3156 2.49792,-0.26066 l 0,0 c -0.10291,-0.0833 -0.34124,-0.10025 -0.31308,-0.24236 0.77503,0.58105 1.70864,0.38785 2.58211,0.36754 1.43375,-0.0821 2.88526,-0.16182 4.24822,-0.73732 0.77618,-0.62402 0.28743,-1.58106 -0.19628,-2.27295 -1.53917,-1.86563 -3.38328,-3.35696 -5.1611,-4.89468 -1.45353,-1.21753 -3.02876,-2.40011 -4.09786,-4.09923 -0.75075,-1.09188 -1.3836,-2.41848 -1.06877,-3.86736 0.42475,-1.31432 1.19549,-2.24451 2.22805,-2.97397 1.48755,-1.19151 3.06866,-2.04258 4.86922,-2.38327 1.72043,-0.5004 2.32871,2.33028 0.60827,2.83068 z"
       inkscape:connector-curvature="0" />
    <path
       style="fill:#000000;fill-opacity:1;fill-rule:nonzero;stroke:none"
       id="path9278"
       d="m 344.6299,294.52504 c 0.46032,3.20156 0.56251,6.45354 0.66543,9.69158 0.0156,2.48037 0.0293,4.92643 0.45425,7.36141 0.0928,0.95619 0.46667,1.75094 0.82554,2.59904 0.16642,0.43722 0.2667,0.89902 0.36283,1.36162 0.41091,2.00705 -2.02878,2.68312 -2.43969,0.67608 l 0,0 c -0.0505,-0.25205 -0.10295,-0.50361 -0.17338,-0.74939 -0.44916,-1.06229 -0.89419,-2.12246 -1.0337,-3.31025 -0.44676,-2.59054 -0.49756,-5.19278 -0.50209,-7.83087 -0.0977,-3.08227 -0.19187,-6.17754 -0.61844,-9.22699 -0.34779,-2.02313 2.11145,-2.59536 2.45925,-0.57223 z"
       inkscape:connector-curvature="0" />
    <path
       style="fill:#000000;fill-opacity:1;fill-rule:nonzero;stroke:none"
       id="path9280"
       d="m 339.86627,302.64122 c 2.10243,0.55412 4.26334,0.25965 6.39309,0.13451 1.71899,-0.20759 3.40659,-0.65136 5.1015,-1.02998 0.31484,-0.0694 0.62943,-0.14049 0.94479,-0.20668 0.2745,-0.0358 0.55134,-0.0223 0.827,-0.0185 1.77326,0.0246 1.74337,2.94218 -0.0299,2.91759 l 0,0 c -0.0829,-10e-4 -0.6354,0.009 -0.36052,-0.0258 -0.30311,0.0646 -0.60584,0.13141 -0.90847,0.19889 -1.80906,0.4041 -3.61066,0.8785 -5.44792,1.07861 -2.33666,0.13728 -4.70543,0.42625 -7.01142,-0.18746 -1.73895,-0.40463 -1.24711,-3.26576 0.49184,-2.86114 z"
       inkscape:connector-curvature="0" />
    <path
       style="fill:#000000;fill-opacity:1;fill-rule:nonzero;stroke:none"
       id="path9282"
       d="m 357.99253,304.06697 c 0.51639,2.18733 0.97247,4.38059 1.27064,6.62617 0.30601,1.609 0.66908,3.20229 0.99389,4.80647 0.0565,0.28624 0.11599,0.57178 0.16686,0.85949 -0.82921,0.0182 -1.66611,0.18695 -2.48765,0.0547 -0.0578,-0.009 0.0386,-0.52405 -0.004,-1.18632 -0.0637,-0.9988 -0.25229,-2.01408 -0.36922,-3.00601 -0.27127,-2.26371 -0.46966,-4.51224 -0.19058,-6.78122 0.4313,-2.1827 1.51005,-3.86649 3.15451,-4.9823 1.48777,-0.81821 2.97249,-0.87083 4.54357,-0.41801 0.88564,0.41142 1.54425,1.14444 1.94012,2.141 0.0889,0.29062 0.0515,0.14559 0.11335,0.43465 0.36097,2.02 -2.09448,2.61391 -2.45545,0.5939 l 0,0 c 0.0139,0.0445 0.0185,0.0933 0.0416,0.13358 -0.0633,-0.16462 -0.16673,-0.31939 -0.25776,-0.47533 -0.95177,-0.29234 -1.78679,-0.32655 -2.71743,0.1472 -0.99061,0.55597 -1.57737,1.63815 -1.8812,2.84896 -0.25913,1.9919 -0.0248,3.97087 0.1939,5.96123 0.0478,0.40556 0.58275,4.47887 0.39593,4.55195 -0.79773,0.31204 -1.65497,0.35726 -2.48245,0.5359 -0.041,-0.22201 -0.0983,-0.5094 -0.14564,-0.74437 -0.33987,-1.67877 -0.72522,-3.34481 -1.03161,-5.03228 -0.28329,-2.15708 -0.72701,-4.26133 -1.22486,-6.36168 -0.43011,-2.00159 2.00296,-2.70926 2.43307,-0.70767 z"
       inkscape:connector-curvature="0" />
    <path
       style="fill:#000000;fill-opacity:1;fill-rule:nonzero;stroke:none"
       id="path9284"
       d="m 370.53227,306.01218 c 0.36169,1.00885 0.99817,1.64091 1.87002,1.97404 0.71566,0.13638 1.8503,0.70843 2.48994,0.1091 0.49945,-1.06614 0.40291,-2.29737 0.31745,-3.45907 -0.0657,-0.5936 -0.9941,-3.62181 -1.60588,-3.48959 0.0214,0.0651 0.11435,0.29331 0.0627,0.3706 -0.33491,0.50084 -0.80509,0.85707 -1.18953,1.3072 -0.99107,1.16046 -0.74418,0.8699 -1.63421,2.09739 -1.39859,1.98376 -2.25632,4.27024 -2.65153,6.77436 0.0922,2.48088 1.7011,3.80877 3.41615,4.91242 1.87478,0.95507 3.89778,1.14452 5.74269,0.0544 0.62124,-0.49058 0.99392,-1.13466 1.2981,-1.90831 0.77377,-1.85644 3.0304,-0.58333 2.25663,1.27311 l 0,0 c -0.58964,1.36871 -1.32842,2.48673 -2.49012,3.27706 -2.65335,1.3756 -5.39629,1.29764 -8.04369,-0.1577 -2.80279,-1.88203 -4.72235,-3.98148 -4.64358,-7.99593 0.50259,-2.99421 1.51393,-5.74575 3.2023,-8.11619 1.08456,-1.4821 2.98621,-4.36536 4.76489,-4.63477 0.37257,-0.0565 0.74365,0.12545 1.11548,0.18818 1.72589,1.32215 2.55603,3.4766 2.89963,5.81541 0.15386,2.37507 0.0674,4.87086 -1.78025,6.34798 -1.46247,0.65987 -2.91515,0.53251 -4.40257,-0.0314 -1.63358,-0.75222 -2.84862,-2.01758 -3.42765,-4.00064 -0.43011,-2.00159 2.00296,-2.70926 2.43307,-0.70766 z"
       inkscape:connector-curvature="0" />
    <path
       style="fill:#000000;fill-opacity:1;fill-rule:nonzero;stroke:none"
       id="path9286"
       d="m 383.07706,302.79577 c 0.70254,2.30914 1.38721,4.63135 1.88474,7.01424 0.3109,1.64121 0.47293,3.31161 0.55368,4.98746 0.0135,0.35854 0.031,0.71814 -0.003,1.07554 -0.83289,-0.18119 -1.74119,-0.10183 -2.49868,-0.54357 -0.0365,-0.0213 0.81663,-4.4311 0.87305,-4.70581 0.46642,-1.89857 0.46633,-3.903 0.88563,-5.80504 0.34728,-1.36529 1.18562,-2.0852 2.34736,-2.32476 0.81195,-0.0667 1.62706,-0.0376 2.44011,-0.0176 0.57858,-0.0303 0.8716,0.11073 1.46737,0.36101 1.04176,1.34032 1.18799,3.32959 1.4874,5.05507 0.36027,1.6568 0.83107,3.26269 1.45161,4.81049 0.21393,0.60497 0.2897,1.21996 0.76317,1.60846 0.0307,0.0151 -0.0585,-0.0374 -0.0894,-0.0522 1.68691,0.63641 0.9133,3.41193 -0.77361,2.77551 l 0,0 c -0.25371,-0.10901 -0.49272,-0.24772 -0.70522,-0.44629 -0.7314,-0.70536 -1.20067,-1.59381 -1.46886,-2.65467 -0.70126,-1.75759 -1.23861,-3.58273 -1.63639,-5.46575 -0.1845,-1.07083 -0.14109,-0.87305 -0.35729,-1.91777 -0.21026,-1.01608 -0.25814,-1.42334 -0.24971,-1.42169 0.093,0.0182 0.15945,0.11727 0.23918,0.17591 1.10617,0.24037 0.0672,0.0486 -0.1812,0.0891 -0.68174,-0.0168 -1.36405,-0.0345 -2.04578,-0.009 -0.31761,-0.019 0.0738,-0.48503 -0.27401,0.22217 -0.51863,1.80616 -0.28361,3.88515 -0.8611,5.69504 -0.21241,1.03429 -0.41981,2.06047 -0.59924,3.10257 -0.30166,1.75204 -0.2176,0.91069 -2.69579,1.04517 -0.0291,0.34761 0.0125,-0.48356 -0.0194,-0.48999 -0.071,-1.4997 -0.2135,-2.99455 -0.4874,-4.46421 -0.44832,-2.17223 -1.09109,-4.27476 -1.69011,-6.39457 -0.79309,-1.84538 1.45009,-3.15026 2.24318,-1.30488 z"
       inkscape:connector-curvature="0" />
    <path
       style="fill:#000000;fill-opacity:1;fill-rule:nonzero;stroke:none"
       id="path9288"
       d="m 401.07893,301.45118 c 1.07533,-0.32249 2.17024,-0.54882 3.2639,-0.76905 1.22994,-0.21874 0.79948,-0.4609 -0.28931,2.0683 -0.58321,-0.53785 -1.17471,-1.48536 -1.96977,-1.51677 -1.11968,0.39552 -1.74799,1.70527 -2.21585,2.8534 -0.69985,2.11021 -0.93803,4.36136 -0.73211,6.60023 0.1512,0.47464 0.26151,1.04351 0.55051,1.44467 0.0461,0.064 0.25459,0.137 0.20513,0.0764 -0.0682,-0.0835 -0.1587,-0.13763 -0.23805,-0.20645 -0.11436,-0.18985 -0.10364,-0.1 0.11549,-0.3795 0.86087,-1.09806 1.56489,-2.04115 2.1712,-3.36526 0.62538,-1.53889 0.96975,-3.17779 1.11798,-4.86267 0.0398,-0.70008 0.0559,-1.40271 0.0344,-2.10403 -0.0731,-0.68007 1.55408,-0.17162 2.48958,0.20556 0.20387,0.0822 -10e-4,0.50206 -0.002,0.75309 0.38968,3.26515 1.18725,6.44609 1.86975,9.64086 0.8759,3.74194 1.80071,7.50042 1.97819,11.38901 -0.1293,3.31876 -1.06053,5.19025 -3.65059,6.59887 -2.7902,0.85188 -5.23565,-0.39819 -7.40581,-2.36759 -1.8287,-2.1357 -2.74983,-3.67166 -1.94103,-6.70114 0.17626,-0.36865 0.35251,-0.73729 0.52877,-1.10593 0.89161,-1.78346 3.05952,-0.31646 2.1679,1.467 l 0,0 c -0.11193,0.20781 -0.22386,0.41562 -0.3358,0.62343 -0.61241,1.45062 0.30955,2.35599 1.13657,3.42869 1.40224,1.31592 2.98184,2.32681 4.8495,1.97967 1.52712,-0.66667 2.07389,-1.89637 2.14536,-3.78468 -0.12841,-3.69791 -1.11791,-7.26292 -1.90699,-10.82375 -0.73108,-3.42418 -1.60733,-6.83798 -1.94376,-10.35252 6e-4,-0.25647 -0.19537,-0.65483 0.002,-0.76944 2.36673,-1.37532 2.46806,-1.5443 2.52474,-0.28145 0.0241,0.83605 0.007,1.67364 -0.0466,2.50782 -0.18893,2.06561 -0.62212,4.07499 -1.40844,5.95175 -0.84162,1.77629 -2.03112,4.07312 -3.69579,4.98699 -0.30004,0.16471 -0.64437,0.18411 -0.96656,0.27617 -0.32183,-0.0882 -0.65797,-0.12325 -0.96549,-0.26455 -1.19169,-0.54755 -1.57581,-2.42687 -1.87541,-3.66591 -0.23396,-2.79335 0.0593,-5.5934 0.98533,-8.2033 1.05773,-2.36666 2.51224,-4.52178 5.02481,-4.38771 1.29173,0.43356 2.33324,1.27149 3.26236,2.40134 -0.61257,2.81928 0.1303,2.52283 -1.14282,2.76445 -1.033,0.20785 -2.0676,0.41968 -3.08318,0.72463 -1.72044,0.5004 -2.32871,-2.33028 -0.60828,-2.83067 z"
       inkscape:connector-curvature="0" />
    <path
       style="fill:#000000;fill-opacity:1;fill-rule:nonzero;stroke:none"
       id="path9290"
       d="m 413.16738,290.45059 c 0.91141,3.1062 1.13853,6.40374 1.35996,9.65363 0.0503,3.09244 0.35461,6.15001 0.74819,9.20437 0.12276,1.0264 0.23878,2.05433 0.32474,3.0859 0.0906,1.21745 6e-4,0.27245 -2.48962,0.009 -0.006,-2.06317 2.50207,-2.07282 2.50793,-0.01 l 0,0 c -2.5556,0.4242 -2.43855,1.3684 -2.51461,0.28149 -0.0813,-0.98094 -0.19275,-1.95823 -0.30869,-2.9343 -0.40194,-3.12127 -0.71424,-6.24738 -0.76811,-9.40714 -0.20889,-3.0903 -0.41817,-6.22437 -1.29285,-9.17566 -0.43011,-2.00159 2.00295,-2.70926 2.43306,-0.70766 z"
       inkscape:connector-curvature="0" />
    <path
       style="fill:#000000;fill-opacity:1;fill-rule:nonzero;stroke:none"
       id="path9292"
       d="m 409.94289,298.60616 c 2.17542,-0.0353 4.33769,-0.44391 6.50202,-0.6975 1.28109,-0.13894 2.56507,-0.23314 3.85117,-0.27285 0.27121,-0.007 0.54253,-0.0132 0.81375,-0.005 0.0221,10e-4 0.0441,0.003 0.0662,0.005 -0.10011,0.97139 -0.20022,1.94278 -0.30032,2.91417 -1.77335,0.0141 -1.79046,-2.90365 -0.0171,-2.91773 l 0,0 c 0.0353,0.97032 0.0705,1.94063 0.10581,2.91095 0.0149,7e-4 0.0298,0.002 0.0446,0.003 -0.20884,-0.003 -0.4342,7e-4 -0.64681,0.006 -1.22438,0.0374 -2.44665,0.12765 -3.66628,0.25922 -2.24768,0.26295 -4.49287,0.68594 -6.75314,0.71215 -1.77338,0 -1.77338,-2.9178 0,-2.9178 z"
       inkscape:connector-curvature="0" />
    <path
       style="fill:#000000;fill-opacity:1;fill-rule:nonzero;stroke:none"
       id="path9294"
       d="m 424.87114,289.47798 c 0.4793,3.2701 0.61282,6.59437 0.91055,9.89307 0.15146,3.07177 0.601,6.08638 1.12858,9.0944 0.11854,0.65459 0.23325,1.31036 0.36671,1.96112 -0.92454,-0.89886 -1.67264,-0.6785 -1.03413,-1.51503 1.02646,-1.59083 1.9034,-3.30068 2.82239,-4.97628 0.31534,-0.57445 0.63077,-1.14882 0.94736,-1.72232 0.79586,-0.79596 1.20701,-0.74051 2.09613,-0.71445 0.94899,-0.0785 1.57618,0.41734 2.16284,1.23392 0.53797,1.42253 0.93517,2.9022 1.34867,4.3779 0.57195,1.86648 1.29934,3.6412 2.11441,5.37584 0.43239,0.84122 0.94204,1.38234 1.74582,1.6201 0.49469,0.0852 0.99643,0.0896 1.49544,0.0978 1.77318,0.0312 1.73522,2.94869 -0.038,2.91746 l 0,0 c -0.71512,-0.0133 -1.43586,-0.0241 -2.13741,-0.20679 -1.44605,-0.49775 -2.50006,-1.50427 -3.2665,-3.02906 -0.88937,-1.89287 -1.67792,-3.8346 -2.29846,-5.87184 -0.34212,-1.22339 -0.7085,-2.4769 -1.05528,-3.67089 0.53881,0.34482 0.53893,-0.0177 -0.13487,0.0724 -0.759,-0.0223 -1.0709,0.13974 0.0767,-0.62434 -0.31502,0.57064 -0.62887,1.14216 -0.94265,1.71375 -0.99735,1.81849 -1.9436,3.68109 -3.08977,5.38083 -0.69689,0.86462 -2.51882,2.64395 -3.24823,0.23707 -0.14084,-0.68835 -0.26415,-1.38135 -0.3885,-2.07393 -0.54351,-3.09982 -1.00456,-6.20846 -1.1655,-9.37299 -0.28551,-3.16369 -0.4285,-6.34771 -0.84938,-9.49008 -0.43011,-2.0016 2.00296,-2.70927 2.43307,-0.70768 z"
       inkscape:connector-curvature="0" />
    <path
       style="fill:#000000;fill-opacity:1;fill-rule:nonzero;stroke:none"
       id="path9296"
       d="m 449.02172,299.15225 c 0.85704,1.94388 0.0222,3.55577 -1.58118,4.77776 -1.46526,0.93312 -3.62124,0.77662 -4.0743,-1.18918 -0.0847,-0.36742 0.0122,-0.75301 0.0184,-1.12952 0.49396,-1.86479 1.86611,-3.20815 3.33269,-4.40896 2.14542,-1.42522 3.37098,-0.0463 3.81639,2.00099 0.29897,2.00836 -0.0685,3.34439 -1.94352,4.36532 -1.00264,0.39605 -2.08814,0.49396 -3.16002,0.52004 -0.29806,0.0119 -0.58971,-0.01 -0.87871,-0.0788 -1.79525,-0.54022 -1.01033,-3.01136 0.78492,-2.47115 l 0,0 c -0.32901,-0.0755 -0.19766,-0.0248 0.0322,-0.0359 0.69222,-0.014 1.39701,-0.0599 2.06104,-0.26104 0.72195,-0.11864 0.55326,-0.93272 0.49537,-1.54549 -0.0622,-0.37434 -0.10455,-0.58383 -0.0745,-0.59096 0.24331,-0.0577 0.47544,0.41826 0.74893,0.0581 0.0397,-0.0101 0.11204,-0.10261 0.0713,-0.0976 -0.0912,0.0113 -0.16464,0.0795 -0.24696,0.11926 -0.94987,0.77048 -1.88507,1.59854 -2.39872,2.71807 -0.2174,0.1233 -0.2945,-0.0845 -0.53968,-0.0117 -0.0548,0.0163 -0.14709,0.0341 -0.14504,0.0898 0.002,0.0495 0.0999,0.0421 0.14947,0.0306 0.12308,-0.0284 0.23249,-0.0971 0.34873,-0.14567 0.6076,-0.41718 1.12881,-0.75903 0.80632,-1.55731 -0.84036,-1.63588 1.53652,-2.79261 2.37688,-1.15674 z"
       inkscape:connector-curvature="0" />
    <path
       style="fill:#000000;fill-opacity:1;fill-rule:nonzero;stroke:none"
       id="path9298"
       d="m 446.11389,312.7513 c 0.73698,-0.60797 1.62647,-2.08519 2.80906,-1.8385 0.44933,0.0937 0.79371,0.45101 1.19057,0.67652 0.96851,1.7662 -0.002,3.37329 -1.47463,4.47221 -0.72656,0.42546 -1.51782,0.73776 -2.34694,0.909 -0.43981,-0.15631 -0.95299,-0.18525 -1.31941,-0.46895 -0.61544,-0.4765 -0.47012,-1.83609 -0.47204,-2.50893 5.5e-4,-0.3041 0.006,-0.60818 0.0179,-0.91204 2.07832,-1.2729 2.17261,-1.47546 3.71741,-0.11075 0.35887,0.45484 0.58832,0.97919 0.70041,1.53887 -0.76749,1.77398 -1.12227,1.62166 -2.66773,1.63133 -0.15567,10e-4 -0.31129,-0.002 -0.46684,-0.008 -1.87703,-0.0854 -1.75288,-2.66916 0.12415,-2.58372 l 0,0 c 0.1089,0.003 0.21784,0.006 0.32682,0.005 1.23596,-0.007 0.86501,-0.23346 0.0681,1.41292 -0.0203,-0.0775 -0.0564,-0.19033 -0.0719,-0.27903 0.0566,0.0228 0.20947,0.11395 0.17,0.0683 -0.71101,-0.82271 -1.98005,0.74753 0.75416,-1.55619 -0.0111,0.26212 -0.0139,0.52451 -0.0151,0.78684 0.003,1.54679 0.25631,0.97463 -0.25429,0.73829 -0.3557,-0.16464 -0.76261,-0.19219 -1.14392,-0.28828 0.4731,-0.10229 0.92819,-0.26923 1.35532,-0.4939 0.39488,-0.19281 0.55267,-0.81097 0.95947,-0.69442 0.99578,0.30305 0.56655,0.36832 1.32949,0.0282 0.0425,-0.0189 -0.0928,0.0255 -0.12816,0.0553 -0.45633,0.38387 -0.83217,0.8584 -1.28285,1.24863 -1.32871,1.29327 -3.20781,-0.53569 -1.87909,-1.82896 z"
       inkscape:connector-curvature="0" />
    <path
       style="fill:#000000;fill-opacity:1;fill-rule:nonzero;stroke:none"
       id="path9304"
       d="m 515.33262,230.91611 c 0.79951,-2.25931 2.05138,-4.16177 3.3885,-5.92728 1.11415,-1.40655 1.92552,-2.33831 3.52362,-2.46897 1.46891,0.4725 2.37499,2.22443 3.47827,3.456 1.34096,1.60456 2.96153,2.75965 4.65953,3.62039 1.57509,0.85155 2.68612,-0.0986 3.96064,-1.20999 0.17105,-0.20112 0.34212,-0.40225 0.51318,-0.60338 1.45062,-1.64937 3.27241,0.97731 1.82179,2.62669 l 0,0 c -0.26495,0.29463 -0.5299,0.58925 -0.79484,0.88387 -2.03207,1.75866 -4.10086,2.83479 -6.52445,1.56201 -1.97532,-1.02968 -3.87093,-2.35911 -5.44038,-4.23346 -0.46313,-0.51847 -2.02108,-2.0149 -1.94822,-2.60686 0.11852,-0.0488 0.23648,-0.0999 0.35557,-0.14639 0.12158,-0.0475 -0.253,0.074 -0.35944,0.16296 -0.4717,0.39415 -0.85359,0.95967 -1.28492,1.41483 -1.15252,1.48827 -2.21403,3.11708 -2.89488,5.04059 -0.86761,2.22175 -3.32159,0.65074 -2.45397,-1.57101 z"
       inkscape:connector-curvature="0" />
    <path
       style="fill:#000000;fill-opacity:1;fill-rule:nonzero;stroke:none"
       id="path9306"
       d="m 518.27477,235.10166 c 1.29579,-0.29106 2.50317,-0.9353 3.72462,-1.53909 1.28017,-0.77956 2.0547,-0.65618 3.11838,0.59513 0.78881,0.97924 1.34304,2.18023 1.97544,3.31577 0.7336,1.11076 1.39756,2.27231 2.22548,3.27349 0.47979,0.29476 1.01642,0.28794 1.53877,0.31241 1.47914,0.17547 2.86925,-0.36268 4.25462,-0.9518 0.24883,-0.11152 0.49767,-0.22304 0.7465,-0.33456 1.83125,-0.82011 2.73709,2.49578 0.90584,3.3159 l 0,0 c -0.26308,0.11773 -0.52617,0.23546 -0.78924,0.35319 -1.6971,0.71871 -3.42155,1.31629 -5.22873,1.12727 -1.19874,-0.0667 -2.35491,-0.25936 -3.3167,-1.27467 -0.9575,-1.16849 -1.7498,-2.50377 -2.58642,-3.81076 -0.57417,-1.06898 -1.09266,-2.17506 -1.8336,-3.07785 0.74125,0.42351 1.46605,-0.41976 -0.0223,0.43367 -1.32503,0.65483 -2.64496,1.33795 -4.04724,1.6699 -1.88211,0.60245 -2.54754,-2.80554 -0.66542,-3.408 z"
       inkscape:connector-curvature="0" />
    <path
       style="fill:#000000;fill-opacity:1;fill-rule:nonzero;stroke:none"
       id="path9308"
       d="m 547.96652,219.15608 c 1.10722,3.12411 1.32394,6.60104 1.54462,9.97723 0.1569,2.7984 0.20784,5.60346 0.22261,8.40815 6.6e-4,0.61123 0.004,1.22263 -0.009,1.8337 -0.21497,-1.06089 -0.39959,-1.25686 -0.12182,-0.90787 1.34142,1.79452 -0.64067,4.22346 -1.98209,2.42894 l 0,0 c -0.47483,-0.65009 -0.17738,-0.17097 -0.63803,-1.64439 0.0121,-0.56208 0.007,-1.12458 0.007,-1.68681 -0.0142,-2.71543 -0.0627,-5.43121 -0.21324,-8.14066 -0.18894,-2.9304 -0.34683,-5.96502 -1.2644,-8.69728 -0.86762,-2.22175 1.58636,-3.79276 2.45397,-1.57101 z"
       inkscape:connector-curvature="0" />
    <path
       style="fill:#000000;fill-opacity:1;fill-rule:nonzero;stroke:none"
       id="path9310"
       d="m 555.52192,236.55276 c 0.93634,0.29972 1.87268,0.59943 2.80902,0.89915 1.41447,0.18358 0.97815,3.58318 -0.69922,3.60511 -1.73676,0.0364 -1.83832,-0.092 -2.17719,-2.56902 0.55607,-1.4031 1.44717,-2.2517 2.54866,-2.86819 1.63639,-0.89991 2.4968,0.87224 2.66351,2.65321 0.14848,1.40123 0.005,1.99025 -0.5066,3.29374 -1.08036,1.08203 -2.32654,0.4086 -2.88895,-1.04909 -0.0997,-0.28129 -0.16994,-0.57626 -0.21603,-0.87883 -0.33847,-2.44589 2.36308,-3.05876 2.70155,-0.61287 l 0,0 c -1.3e-4,8.4e-4 -5.9e-4,0.003 -3.9e-4,0.003 -0.34421,-0.27863 -1.08518,-0.6316 -1.46495,-0.0344 -0.64939,2.2631 -0.20298,0.44553 -0.35407,-0.36495 -0.0366,-0.80929 0.26959,0.21298 0.69878,0.24906 0.21358,0.018 0.4217,-0.10367 0.63543,-0.11852 0.0658,-0.004 -0.12372,0.0582 -0.18558,0.0873 -0.17412,0.0929 -0.43623,0.17879 -0.58645,0.32459 -0.16603,0.16114 -0.24141,0.61338 -0.4457,0.56104 -0.0794,-0.0203 0.0297,-0.2038 0.0445,-0.30569 -0.1114,-0.47837 -0.0823,-1.05414 -0.33419,-1.43511 -0.41085,-0.62129 -1.58814,-0.42955 -0.15704,-0.44816 1.60793,-0.0155 1.29088,4.08409 0.0585,3.31563 -0.93634,-0.29972 -1.87268,-0.59944 -2.80902,-0.89916 -1.88212,-0.60245 -1.21669,-4.01045 0.66542,-3.40799 z"
       inkscape:connector-curvature="0" />
    <path
       style="fill:#000000;fill-opacity:1;fill-rule:nonzero;stroke:none"
       id="path9312"
       d="m 560.34375,218.70821 c 2.08569,-0.62662 4.23094,-0.79742 6.36328,-0.94892 1.95983,-0.11922 3.92218,-0.135 5.88383,-0.14219 0.73004,-7.6e-4 1.46009,-8.4e-4 2.19011,0.005 0.87318,-0.0747 1.49289,1.43212 1.46727,2.49132 -0.36237,1.98231 -1.0265,3.79029 -1.33518,5.79656 -0.57788,2.77336 -1.01153,5.57984 -1.24727,8.43347 -0.13081,1.64968 -0.16749,3.30773 -0.17759,4.96475 0.10463,1.26087 -0.31581,2.42817 -1.31858,2.87085 -1.89131,0.55322 -2.50236,-2.87143 -0.61105,-3.42465 l 0,0 c -0.98873,0.63009 -0.79638,2.83922 -0.81392,0.52599 0.0111,-1.7721 0.0522,-3.54521 0.19297,-5.30933 0.24835,-2.96148 0.68206,-5.88021 1.28635,-8.75809 0.28979,-1.79384 0.69443,-3.56644 1.28254,-5.23026 0.0528,-1.63524 1.93718,1.29158 1.25536,1.15219 -0.72104,-0.007 -1.44213,-0.006 -2.16319,-0.005 -1.91375,0.007 -3.8282,0.0217 -5.74021,0.13685 -1.95913,0.13812 -3.93121,0.28484 -5.8493,0.84939 -1.88211,0.60245 -2.54753,-2.80554 -0.66542,-3.408 z"
       inkscape:connector-curvature="0" />
    <path
       style="fill:#000000;fill-opacity:1;fill-rule:nonzero;stroke:none"
       id="path9314"
       d="m 566.27312,229.33448 c 2.04747,0.14699 4.06141,-0.35789 6.08266,-0.69099 1.80646,-0.28759 3.62563,-0.4004 5.4441,-0.4638 0.47289,-0.0147 0.94588,-0.0231 1.4189,-0.0244 1.94003,-0.005 1.94595,3.50752 0.006,3.51287 l 0,0 c -0.45018,8.4e-4 -0.90033,0.009 -1.3504,0.0232 -1.72634,0.0597 -3.45346,0.16456 -5.16851,0.43639 -2.13671,0.35162 -4.26835,0.86881 -6.43267,0.71969 -1.94003,0 -1.94003,-3.51288 0,-3.51288 z"
       inkscape:connector-curvature="0" />
    <path
       style="fill:#000000;fill-opacity:1;fill-rule:nonzero;stroke:none"
       id="path9316"
       d="m 592.70516,217.73972 c 0.029,3.75983 -0.0869,7.5226 0.10658,11.27589 0.21842,2.91784 0.46805,5.83166 0.69813,8.74806 0.0369,0.47944 0.076,0.9586 0.11057,1.43832 0.17098,2.47431 -2.56197,2.78392 -2.73296,0.3096 l 0,0 c -0.0344,-0.46514 -0.0709,-0.93 -0.10735,-1.39488 -0.23344,-2.95891 -0.48794,-5.91507 -0.70638,-8.87584 -0.18746,-3.82943 -0.0927,-7.66551 -0.11222,-11.50115 0,-2.48398 2.74363,-2.48398 2.74363,0 z"
       inkscape:connector-curvature="0" />
    <path
       style="fill:#000000;fill-opacity:1;fill-rule:nonzero;stroke:none"
       id="path9318"
       d="m 584.12187,217.53724 c 1.56006,-0.32034 3.06594,-0.84132 4.57831,-1.41065 1.22626,-0.55543 2.49756,-0.73261 3.78752,-0.81086 2.08811,-0.0631 4.17717,-0.0466 6.2657,-0.0429 1.1039,0.003 2.2078,0.005 3.3117,0.009 0.0983,2.3e-4 0.19667,7.8e-4 0.29501,8.4e-4 1.93998,0.0182 1.91986,3.53101 -0.0201,3.5128 l 0,0 c -0.0941,-4.2e-4 -0.18817,-8.4e-4 -0.28225,-8.4e-4 -1.10272,-0.004 -2.20544,-0.007 -3.30817,-0.009 -2.04504,-0.003 -4.09054,-0.0191 -6.1352,0.0392 -1.0734,0.0617 -2.12253,0.19359 -3.14088,0.67218 -1.54742,0.5815 -3.09052,1.12253 -4.6862,1.44819 -1.88211,0.60245 -2.54754,-2.80555 -0.66543,-3.408 z"
       inkscape:connector-curvature="0" />
    <path
       style="fill:#000000;fill-opacity:1;fill-rule:nonzero;stroke:none"
       id="path9320"
       d="m 602.40152,234.77861 c -0.50717,1.459 -1.214,3.099 -1.15072,4.74242 -2.1e-4,0.56074 0.56929,1.35323 0.66507,1.44995 0.44542,0.1316 0.92253,0.0946 1.37971,0.10083 0.7367,0.0495 1.56514,-0.34608 2.15696,-0.70994 0.20711,-0.47689 0.0542,0.0314 0.0703,-0.55968 0.003,-0.16394 0.006,-0.32788 0.007,-0.49184 0.003,-0.27953 0.034,-2.20467 -0.0468,-1.95961 -0.18649,-0.36604 -0.40053,-0.61327 -0.67897,-0.88794 -0.43918,-0.50277 -0.91429,-0.97498 -1.50594,-1.12491 -0.3848,-0.11826 -0.77568,-0.15405 -1.16937,-0.16116 -0.13554,-0.0141 -0.77175,0.0265 -0.0203,-0.02 -1.76051,1.04358 -2.91319,-2.14424 -1.15267,-3.18782 l 0,0 c 0.52354,-0.19715 0.74339,-0.3453 1.21615,-0.30463 0.62776,0.0137 1.25151,0.0888 1.86196,0.2894 0.91801,0.35821 1.76922,0.89719 2.47183,1.75352 0.67267,0.69061 1.20575,1.5127 1.57488,2.51267 0.24106,1.26164 0.22236,2.52484 0.17909,3.82227 -0.0857,1.32584 -0.41916,2.41555 -1.27711,3.23529 -1.11621,0.82779 -2.42044,1.32134 -3.71887,1.30703 -1.0056,-0.0158 -2.02668,-0.0101 -2.90824,-0.7237 -1.06331,-1.11428 -1.78832,-2.61891 -1.84786,-4.4277 0.0944,-2.18819 0.64864,-4.28423 1.43951,-6.22546 0.86762,-2.22173 3.32159,-0.65072 2.45398,1.57101 z"
       inkscape:connector-curvature="0" />
    <path
       style="fill:#000000;fill-opacity:1;fill-rule:nonzero;stroke:none"
       id="path9322"
       d="m 487.48259,232.23607 c 2.23046,0.49919 4.50045,0.78251 6.77138,1.01884 0.6657,0.044 1.33056,0.15426 1.99897,0.15497 1.06407,2.5e-4 2.12813,-0.003 3.1922,-0.005 2.95592,-0.005 2.96281,4.17542 0.007,4.1803 l 0,0 c -1.08569,0.002 -2.17138,0.006 -3.25707,0.005 -0.79402,-0.0157 -1.58403,-0.10322 -2.37431,-0.17708 -2.46634,-0.25739 -4.93141,-0.56995 -7.35193,-1.12113 -2.86767,-0.71692 -1.85379,-4.77241 1.01387,-4.0555 z"
       inkscape:connector-curvature="0" />
    <path
       style="fill:#000000;fill-opacity:1;fill-rule:nonzero;stroke:none"
       id="path9324"
       d="m 625.06669,295.86412 c -0.4705,2.87716 -1.18877,5.71861 -1.73296,8.58585 -0.16833,1.79105 -0.59286,4.58776 1.75867,5.48151 2.03864,0.16294 3.48346,-1.70058 4.47896,-2.98324 0.0669,1.13868 2.02326,-4.53811 1.71485,-3.39315 0.74374,0.31337 1.60935,0.46988 2.23121,0.94011 0.17354,0.13123 -0.18321,0.36538 -0.25511,0.55418 -0.0903,0.23705 -0.16293,0.47898 -0.23071,0.7215 -0.21428,0.76683 -0.29158,1.35985 -0.1397,2.13034 0.60525,1.25216 2.10738,1.56903 3.54381,1.5234 2.40908,-0.30458 3.82216,-1.73476 4.72125,-3.5607 1.0704,-2.64024 0.19834,-4.61405 -1.51473,-6.83248 -1.14648,-1.371 -2.61802,-2.51483 -4.24914,-3.44693 -0.0813,-0.042 -0.16165,-0.0854 -0.24391,-0.12593 -0.36027,-0.17772 -0.0563,0.0263 0.04,-0.0161 0.53697,-0.23613 1.03334,-0.53496 1.55002,-0.80244 -0.0753,1.62333 -2.74666,1.53182 -2.67137,-0.0915 l 0,0 c 1.71668,-1.49206 1.28402,-1.6731 2.81157,-0.87388 1.92464,1.11138 3.65868,2.46619 5.00111,4.10022 2.19557,2.92606 3.15827,5.61235 1.72003,9.02116 -1.48395,2.77824 -3.50779,4.53601 -7.17817,4.92607 -3.04594,-0.0774 -5.20144,-0.87475 -6.18184,-3.52614 -0.17595,-1.41255 0.003,-2.65939 0.54385,-4.00915 0.10188,-0.25421 0.0566,-0.67236 0.35755,-0.74579 0.90198,-0.22006 1.87513,-0.0185 2.81269,-0.0277 -0.11122,1.73133 -1.22732,3.35038 -2.17566,4.83082 -1.90122,2.34858 -4.45528,4.73804 -8.08595,3.64494 -0.43425,-0.25825 -0.92255,-0.45977 -1.30275,-0.77474 -2.16717,-1.79536 -1.95118,-4.70448 -1.69505,-7.03473 0.54589,-2.86958 1.2629,-5.71375 1.73438,-8.59329 0.3108,-1.60252 2.9479,-1.2248 2.63711,0.37772 z"
       inkscape:connector-curvature="0" />
    <path
       style="fill:#000000;fill-opacity:1;fill-rule:nonzero;stroke:none"
       id="path9328"
       d="m 650.22464,283.87051 c 0.56249,2.92344 0.61813,5.89728 0.70979,8.85272 0.0928,3.88178 0.10147,7.76453 0.10665,11.64697 -0.0808,1.75203 0.16585,3.50123 0.60997,5.20879 0.30982,1.01667 0.2964,0.37024 -2.20721,0.2346 0.37077,-0.95227 0.89181,-1.83786 1.18611,-2.81311 0.29142,-1.12183 0.81846,-2.18014 1.0706,-3.31097 0.32188,-1.51055 1.26242,-2.76536 2.2302,-4.02219 0.69269,-0.95723 1.42739,-1.87354 2.33527,-2.69096 1.00678,-0.7399 2.10624,-0.76506 3.25139,-0.22943 1.06685,0.77622 1.50654,1.86471 1.80953,3.00373 0.57731,1.65589 0.90594,3.36087 1.1213,5.07629 -0.0175,1.4188 0.61044,2.68863 1.15306,3.9932 0.3947,0.75229 0.94589,1.37109 1.83018,1.71657 0.1926,-0.0559 0.12898,-0.004 0.21203,-0.1344 1.84405,-0.35767 2.43263,1.88353 0.58857,2.2412 l 0,0 c -1.37056,0.16171 -0.69249,0.18594 -2.03441,-0.0685 -1.446,-0.68391 -2.49562,-1.65154 -3.11453,-2.98312 -0.60951,-1.47278 -1.29014,-2.92499 -1.29318,-4.52025 -0.20216,-1.63557 -0.52616,-3.25735 -1.07618,-4.83563 -0.0926,-0.405 -0.17578,-0.78681 -0.41109,-1.15149 -0.0847,-0.13128 -0.43499,-0.37255 -0.26154,-0.39023 0.057,-0.006 0.1072,0.0352 0.1608,0.0529 -0.47736,-0.25627 0.53932,-0.12788 -0.006,-0.18072 -0.80346,0.71598 -1.42398,1.53032 -2.03707,2.37077 -0.78131,1.00993 -1.57124,1.97972 -1.83514,3.19637 -0.27582,1.1788 -0.78251,2.29182 -1.11001,3.45744 -0.32973,1.04568 -0.85007,2.00901 -1.26543,3.02681 -2.62966,0.43231 -2.47934,0.94012 -2.90692,-0.54023 -0.48169,-1.8709 -0.75492,-3.78574 -0.67369,-5.70475 -0.005,-3.86295 -0.0136,-7.72621 -0.1057,-11.5885 -0.0873,-2.82491 -0.13689,-5.6671 -0.65882,-8.46324 -0.37074,-1.59307 2.25083,-2.04366 2.62157,-0.45058 z"
       inkscape:connector-curvature="0" />
    <path
       style="fill:#000000;fill-opacity:1;fill-rule:nonzero;stroke:none"
       id="path9330"
       d="m 672.9708,297.74879 c 0.9124,-0.19602 1.82481,-0.39205 2.73721,-0.58808 0.94102,-0.30551 -0.50484,0.55085 -0.58557,0.60979 0.29518,1.00944 1.08068,0.88364 -0.29758,0.82337 -1.33271,0.25514 -2.34863,1.08911 -3.19063,1.96176 -1.30934,1.57208 -1.55223,3.53464 -1.77314,5.40594 0.0593,0.66291 -0.53493,2.11409 0.29152,2.56908 0.4333,-0.10781 0.98253,-0.3416 1.43676,-0.58076 1.32245,-0.94325 1.73879,-2.42544 2.12644,-3.79936 0.31146,-1.2918 0.45852,-2.60649 0.5047,-3.92354 0.009,-0.38953 0.0109,-0.77928 -0.005,-1.16868 2.38396,0.0329 2.53892,-0.43393 2.88758,1.00839 0.57145,1.80126 1.4537,3.49329 2.48135,5.1313 0.59938,0.85385 1.43177,1.51149 2.57245,1.73765 0.12205,0.0177 0.24409,0.0354 0.36612,0.0531 -0.0159,-0.0189 -0.0318,-0.0378 -0.0477,-0.0567 1.86921,-0.24284 2.26881,2.02893 0.39961,2.27176 l 0,0 c -1.03201,0.056 -0.55908,0.09 -1.42246,-0.0518 -1.83462,-0.46323 -3.25598,-1.4248 -4.22142,-2.86391 -1.14919,-1.83281 -2.12605,-3.73538 -2.7457,-5.75466 -0.4344,-1.80148 -0.7074,-1.33556 2.38426,-1.74827 0.003,-3.5e-4 0.0179,0.16579 0.0171,0.17744 0.021,0.44491 0.015,0.89046 0.006,1.33553 -0.0546,1.47801 -0.22115,2.95344 -0.58093,4.40161 -0.5789,1.99542 -1.33011,3.99796 -3.37821,5.23616 -1.55083,0.75072 -3.18454,1.20401 -4.73339,0.16427 -1.25882,-1.2665 -1.22004,-2.78374 -0.99857,-4.37343 0.28309,-2.34207 0.68521,-4.73833 2.39943,-6.66303 1.41791,-1.39795 3.12062,-2.63512 5.37025,-2.76399 1.18914,0.0591 2.87799,0.17454 2.82013,1.604 -0.061,0.70143 -0.57648,1.37788 -1.435,1.48593 -0.9124,0.19603 -1.8248,0.39205 -2.73721,0.58808 -1.83399,0.39403 -2.4824,-1.83494 -0.64841,-2.22897 z"
       inkscape:connector-curvature="0" />
    <path
       style="fill:#000000;fill-opacity:1;fill-rule:nonzero;stroke:none"
       id="path9332"
       d="m 688.54458,287.69979 c 0.99684,3.01419 1.20885,6.16334 1.43729,9.27448 0.1879,2.99863 0.25109,6.00147 0.27398,9.00392 0,0.69653 0.006,1.39312 0,2.08963 -0.0217,1.62451 -2.69499,1.59815 -2.6733,-0.0264 l 0,0 c 0.009,-0.6827 0.006,-1.36548 0.003,-2.04821 -0.0225,-2.95932 -0.0843,-5.91902 -0.26878,-8.8746 -0.2199,-3.0091 -0.41996,-6.05402 -1.39064,-8.96826 -0.37074,-1.59307 2.25082,-2.04366 2.62157,-0.45058 z"
       inkscape:connector-curvature="0" />
    <path
       style="fill:#000000;fill-opacity:1;fill-rule:nonzero;stroke:none"
       id="path9334"
       d="m 682.80443,296.57889 c 1.31561,0.64259 2.78707,0.89356 4.268,1.0656 2.12451,0.16925 4.26137,0.16381 6.39303,0.1718 1.20439,0.001 0.60993,0.001 1.7835,-2.9e-4 1.89042,-0.002 1.89387,2.29549 0,2.29757 l 0,0 c -1.18245,0.001 -0.58288,0.001 -1.79859,2.6e-4 -2.2494,-0.008 -4.50472,-0.003 -6.74555,-0.19319 -1.76805,-0.21197 -3.52371,-0.52983 -5.09943,-1.28674 -1.69086,-0.72656 -0.49524,-2.78157 1.19562,-2.05501 z"
       inkscape:connector-curvature="0" />
    <path
       style="fill:#000000;fill-opacity:1;fill-rule:nonzero;stroke:none"
       id="path9336"
       d="m 715.50379,296.4003 c 1.0397,0.24879 2.0991,0.42062 3.16349,0.56855 1.24289,0.16444 0.82437,-0.0577 0.1785,2.35819 -0.0141,0.0536 -1.18494,0.0233 -1.23867,0.0234 -1.81214,-0.0753 -3.41643,0.73389 -4.923,1.5035 -2.10378,1.01058 -3.34315,2.40183 -4.07421,4.33636 -0.32924,1.36107 -0.64492,3.08674 0.54834,4.20411 1.22722,-10e-4 2.34284,-1.51729 2.96978,-2.26841 1.44511,-1.85005 2.273,-3.94547 2.85761,-6.09659 0.10546,-0.36623 0.22333,-1.0008 0.24968,-1.30456 0.006,0.0423 -0.039,0.12187 0.0102,0.12704 0.87656,0.0924 1.78196,-0.0144 2.64342,0.15272 0.0435,0.008 -0.0473,0.46152 -0.0134,0.92125 0.0454,0.61048 0.13488,0.78144 0.3176,1.3938 0.61473,1.80718 1.72945,3.39607 3.47252,4.54318 0.90668,0.5057 1.76885,0.7698 2.83036,0.66027 1.88294,-0.14495 2.12143,2.14346 0.23855,2.28841 l 0,0 c -1.76494,0.1107 -3.26646,-0.27402 -4.72961,-1.14815 -2.17112,-1.51428 -3.66196,-3.46824 -4.40926,-5.79957 -0.0499,-0.18321 -0.64223,-2.87763 -0.37784,-2.95746 2.69682,-0.81425 2.59034,-1.14014 2.69068,-0.21652 -0.006,0.6302 -0.1815,1.24934 -0.32003,1.86444 -0.67286,2.45424 -1.64356,4.8383 -3.31142,6.93858 -1.73815,1.97243 -4.38049,4.31466 -7.23796,2.30231 -1.57552,-1.90109 -1.65763,-4.10962 -0.96386,-6.33547 1.01835,-2.54725 2.51469,-4.21081 5.25052,-5.58463 1.92439,-0.96936 3.97489,-1.90941 6.27513,-1.82217 0.32092,-5.5e-4 0.95592,-0.0178 0.9572,-0.0101 0.40234,2.45447 0.96392,2.35756 -0.3181,2.19407 -1.13852,-0.15864 -2.27185,-0.34341 -3.38453,-0.60761 -1.83402,-0.39404 -1.18558,-2.623 0.64843,-2.22897 z"
       inkscape:connector-curvature="0" />
    <path
       style="fill:#000000;fill-opacity:1;fill-rule:nonzero;stroke:none"
       id="path9338"
       d="m 626.16328,324.46091 c 0.32314,2.27967 0.69383,4.5498 1.09843,6.82061 0.19445,1.11394 0.38762,2.22811 0.56713,3.34392 0.006,0.0394 0.0647,0.12046 0.0186,0.11796 -0.88759,-0.048 -1.81664,0.004 -2.65076,-0.26048 -0.21124,-0.0671 0.003,-0.38711 0.004,-0.58066 0.004,-1.00782 0.0162,-1.98771 0.11019,-2.99385 0.17416,-2.06846 0.85778,-4.04124 1.83923,-5.9233 1.34365,-1.96451 2.96838,-1.78961 4.99627,-0.72817 1.64376,0.66654 2.99272,1.46495 3.90746,2.8309 0.52739,1.43348 0.88453,2.92599 1.25599,4.40017 0.43466,2.11546 0.79275,1.33678 -1.91656,0.82727 0.5645,-1.07223 1.08234,-2.24059 1.68558,-3.32569 0.71705,-1.30512 1.45534,-2.62162 2.68541,-3.6245 0.96339,-0.72319 2.11227,-0.83675 3.31536,-0.64103 1.75927,0.799 2.39181,2.42243 2.99997,3.94342 0.79812,2.05271 1.08519,4.20904 1.2889,6.35523 0.12335,0.68522 0.31464,1.36161 0.58276,2.01571 0.0297,0.0725 0.15724,0.27102 0.095,0.2158 -0.088,-0.0781 -0.11798,-0.19235 -0.17696,-0.28852 1.26774,1.20517 -0.71548,2.74594 -1.98323,1.54077 l 0,0 c -0.749,-0.97412 -0.95824,-2.16207 -1.18222,-3.29761 -0.18429,-1.95578 -0.43183,-3.92354 -1.15307,-5.79595 -0.33824,-0.84916 -0.71014,-1.77206 -1.26004,-2.49359 0.41321,-0.079 -0.58883,-0.0364 -0.71511,0.13567 -1.01542,0.75828 -1.46498,1.93941 -2.0891,2.93342 -0.7055,1.23997 -1.19466,2.56711 -2.00769,3.76443 -3.17135,-0.19638 -2.29714,0.15711 -2.78233,-1.78036 -0.31692,-1.26808 -0.68373,-2.53068 -0.99722,-3.79645 -0.55154,-1.04029 -1.85404,-1.41651 -2.94785,-1.95909 -0.25203,-0.13315 -0.61315,-0.20564 -0.7238,-0.44145 -0.13322,-0.28391 0.0432,-0.32273 -0.43935,0.15224 -0.8637,1.64268 -1.46454,3.36344 -1.6132,5.17239 -0.0966,0.94498 -0.0969,1.86961 -0.10093,2.81725 -6.4e-4,0.20602 0.21012,0.52697 -0.005,0.61807 -2.62159,1.11065 -2.55358,1.26507 -2.68888,0.40462 -0.17769,-1.10477 -0.36908,-2.20789 -0.56154,-3.31082 -0.39835,-2.23625 -0.77157,-4.47135 -1.0773,-6.71773 -0.37075,-1.59308 2.25082,-2.04368 2.62157,-0.4506 z"
       inkscape:connector-curvature="0" />
    <path
       style="fill:#000000;fill-opacity:1;fill-rule:nonzero;stroke:none"
       id="path9340"
       d="m 657.20336,327.71959 c -1.17149,1.16061 -1.90468,2.65371 -2.10896,4.1755 -0.0627,0.47591 0.8582,1.77855 1.44387,1.19175 1.73836,-0.81562 2.35668,-2.49433 2.85362,-4.03074 0.24541,-0.97797 0.72856,-2.28052 -0.63788,-2.6821 -0.81771,-0.29354 -1.52018,-0.24887 -2.31956,0.005 -0.19708,0.0617 -0.3846,0.15169 -0.55804,0.24695 -1.52777,0.95686 -3.10238,-0.89992 -1.57462,-1.85678 l 0,0 c 0.38425,-0.23307 0.80542,-0.41387 1.24509,-0.55743 1.50577,-0.44231 2.9651,-0.44789 4.43953,0.12348 2.58695,1.29359 2.63838,3.00689 1.9772,5.34887 -0.81982,2.43689 -2.05047,4.84913 -5.08896,5.68216 -0.47209,0.007 -0.95182,0.0954 -1.41625,0.0223 -2.03972,-0.32102 -2.99701,-2.24349 -3.01139,-3.81355 0.38695,-2.12092 1.32241,-4.17793 3.15226,-5.69338 1.51235,-0.97477 3.11644,0.86328 1.60409,1.83806 z"
       inkscape:connector-curvature="0" />
    <path
       style="fill:#000000;fill-opacity:1;fill-rule:nonzero;stroke:none"
       id="path9342"
       d="m 668.93902,318.33406 c 0.39135,2.68866 0.92144,5.35696 1.47969,8.02336 0.3409,2.29955 0.93456,4.55133 1.55093,6.80442 0.12454,0.45514 0.24915,0.91027 0.37389,1.36538 0.43344,1.58134 -2.16882,2.10813 -2.60226,0.52678 l 0,0 c -0.12483,-0.45542 -0.24953,-0.91087 -0.37415,-1.36634 -0.62711,-2.29234 -1.22963,-4.58441 -1.57965,-6.9234 -0.55513,-2.65165 -1.08925,-5.30474 -1.47001,-7.97961 -0.37075,-1.59308 2.25082,-2.04367 2.62156,-0.45059 z"
       inkscape:connector-curvature="0" />
    <path
       style="fill:#000000;fill-opacity:1;fill-rule:nonzero;stroke:none"
       id="path9344"
       d="m 665.48775,325.37694 c 2.51333,-0.35259 4.99967,-0.8339 7.52081,-1.1686 1.32046,-0.15439 2.64541,-0.28795 3.97554,-0.36252 0.16475,-0.0112 0.32931,-0.0128 0.49421,-0.006 1.88458,0.12779 1.67429,2.41824 -0.2103,2.29045 l 0,0 c -0.037,0.003 -0.0738,0.008 -0.11093,0.008 -1.25157,0.0693 -2.49802,0.19708 -3.74066,0.34043 -2.65549,0.35201 -5.2683,0.89788 -7.92867,1.19551 -1.89044,0 -1.89044,-2.29757 0,-2.29757 z"
       inkscape:connector-curvature="0" />
    <path
       style="fill:#000000;fill-opacity:1;fill-rule:nonzero;stroke:none"
       id="path9346"
       d="m 683.65381,325.87421 c -0.65596,1.57367 -1.11755,3.23526 -1.12103,4.91147 0.14184,1.39684 1.29071,1.72233 2.69737,2.02931 1.77018,0.3996 2.86583,-0.41477 3.80968,-1.61399 1.07315,-1.8373 0.95643,-3.02012 -0.30381,-4.70866 -0.71896,-0.60527 -2.0598,-1.88179 -3.23435,-1.69843 -0.37936,0.045 -0.43318,0.33794 -0.49649,0.63822 -0.0958,0.44718 -0.0182,0.17511 -0.30111,0.79955 -0.76711,1.48486 -3.21059,0.55255 -2.44349,-0.93232 l 0,0 c 0.18943,-0.18456 0.0623,-0.0383 0.18289,-0.52464 0.51347,-1.31837 1.52918,-2.25622 3.25351,-2.27224 2.17415,0.23652 3.98648,1.30728 5.31807,2.78867 1.76533,2.55172 1.88794,4.61004 0.1998,7.24586 -1.75796,2.04109 -3.65059,3.10044 -6.68281,2.49584 -2.57688,-0.62432 -4.51593,-1.79499 -4.67245,-4.28157 0.0574,-2.02003 0.52843,-4.02454 1.40298,-5.90457 0.84543,-1.45312 3.23667,-0.42561 2.39124,1.0275 z"
       inkscape:connector-curvature="0" />
    <path
       style="fill:#000000;fill-opacity:1;fill-rule:nonzero;stroke:none"
       id="path9348"
       d="m 698.33341,325.84769 c 0.492,1.65644 0.95842,3.322 1.56125,4.95341 0.25639,0.89342 0.70183,1.74635 1.36267,2.47305 0.47262,0.40523 -0.45529,0.61763 -2.18289,0.92066 -0.1799,0.0315 -0.0725,-0.30986 -0.12554,-0.46094 -0.0582,-0.16565 -0.1382,-0.32502 -0.20727,-0.48754 -0.66666,-1.79011 -1.13103,-3.64532 -1.12272,-5.52835 0.34606,-2.61525 2.86093,-3.44818 5.43368,-4.17539 2.13102,-0.43787 4.30745,-1.1022 6.52174,-1.06986 1.19684,0.41927 0.70554,0.12779 1.52205,0.81148 1.22466,1.23761 -0.81197,2.72606 -2.03663,1.48846 l 0,0 c 0.19481,0.0259 0.0749,0.0182 0.36064,-0.006 -1.2865,-0.23194 -4.20422,0.79861 -5.53588,0.95962 -1.37758,0.38566 -3.22669,0.61809 -3.5925,2.02859 -0.0648,1.60711 0.45171,3.20015 0.97229,4.73084 0.11998,0.30219 0.47474,1.14172 0.41635,1.19708 -1.71673,1.62737 -1.67605,1.87142 -2.54609,0.98824 -0.833,-0.94622 -1.44959,-2.02262 -1.78842,-3.17549 -0.6176,-1.67727 -1.09777,-3.38836 -1.6064,-5.09044 -0.45849,-1.57611 2.13518,-2.13336 2.59367,-0.55724 z"
       inkscape:connector-curvature="0" />
    <path
       style="fill:#000000;fill-opacity:1;fill-rule:nonzero;stroke:none"
       id="path9350"
       d="m 622.16367,354.97676 c -0.8834,1.76078 -1.0368,3.71573 -1.23282,5.60415 -0.0448,0.77161 -0.43649,3.11337 1.02968,3.26813 0.004,-0.058 -0.0174,-0.12155 0.012,-0.17383 0.15033,-0.26794 0.48023,-0.4313 0.68143,-0.67334 0.58976,-0.70941 0.99649,-1.5685 1.40585,-2.35917 0.15421,-0.28548 1.16855,-2.99433 1.57135,-2.93471 0.8012,0.11859 1.4527,0.62773 2.17905,0.94159 0.15652,1.17834 -0.18792,2.4365 0.64916,3.45923 1.01173,0.67689 2.4261,0.72296 3.62868,0.48712 1.8678,-0.52549 2.24281,-2.09737 2.5924,-3.57483 0.23321,-1.89638 -0.65588,-3.54138 -1.95055,-5.0155 -0.70197,-0.70174 -1.4617,-1.36665 -2.30914,-1.93956 -0.0306,-0.0192 -0.0613,-0.0384 -0.092,-0.0575 -0.0114,-0.006 -0.0227,-0.0123 -0.0341,-0.0185 -1.56734,-0.90836 -0.0725,-2.81324 1.4948,-1.90488 l 0,0 c 0.18283,0.10777 0.0857,0.0485 0.29033,0.17927 1.0265,0.70114 1.95672,1.50319 2.7947,2.36939 1.73545,2.02588 2.81916,4.29371 2.42243,6.85907 -0.60815,2.43072 -1.66213,4.63854 -4.70912,5.36014 -2.34851,0.34033 -4.80801,0.0928 -6.4275,-1.5715 -0.85071,-1.33127 -1.05367,-2.67665 -0.97217,-4.18331 3.40753,0.72355 1.34304,0.87226 2.39407,0.0216 0.0747,-0.0605 -0.0839,0.16123 -0.11898,0.24416 -0.31379,0.74211 -0.58376,1.49888 -0.96439,2.21957 -0.86588,1.64575 -1.97435,4.00694 -4.34638,4.38405 -0.4751,0.0755 -0.96384,-0.0595 -1.44577,-0.0893 -0.34275,-0.18617 -0.7254,-0.32682 -1.02824,-0.55852 -1.60661,-1.22924 -1.57556,-3.27127 -1.41039,-4.94392 0.22782,-2.17484 0.4388,-4.41411 1.50439,-6.42655 0.84543,-1.45311 3.23667,-0.42561 2.39124,1.0275 z"
       inkscape:connector-curvature="0" />
    <path
       style="fill:#000000;fill-opacity:1;fill-rule:nonzero;stroke:none"
       id="path9352"
       d="m 644.52286,356.07315 c -1.77823,0.83544 -2.70707,2.50939 -3.20955,4.12726 -0.14539,1.45224 0.18443,2.15332 1.91478,2.29938 2.29447,-0.053 3.60555,-1.44507 4.60816,-3.05868 0.74584,-1.67501 1.40534,-3.61317 -0.38978,-4.92806 -0.86599,-0.50797 -1.69813,-0.49263 -2.57331,-0.0672 -0.14378,0.058 -0.24586,0.16394 -0.35151,0.25434 -1.23747,1.22818 -3.25856,-0.27581 -2.02109,-1.50398 l 0,0 c 0.33238,-0.31538 0.70842,-0.58577 1.14533,-0.79154 1.96724,-0.83617 3.93136,-0.7011 5.69231,0.48487 0.319,0.29606 0.69341,0.55429 0.957,0.8882 1.6167,2.04807 0.90537,4.67774 -0.12225,6.77971 -1.7388,2.61193 -3.76408,4.30596 -7.46874,4.19537 -0.46681,-0.0985 -0.95438,-0.14162 -1.40043,-0.29557 -2.37422,-0.81941 -2.9231,-2.92231 -2.5611,-4.88799 0.77753,-2.23421 2.0813,-4.42315 4.58457,-5.55111 1.69086,-0.72655 2.88647,1.32846 1.19561,2.05501 z"
       inkscape:connector-curvature="0" />
    <path
       style="fill:#000000;fill-opacity:1;fill-rule:nonzero;stroke:none"
       id="path9354"
       d="m 655.60856,352.59626 c 0.89152,1.91872 1.07284,3.99124 1.54482,5.99654 0.0756,0.31825 0.7743,2.75393 1.41069,2.38844 0.85689,-0.0756 1.42021,-1.05921 1.82924,-1.6186 0.96069,-1.20655 1.56378,-2.57138 2.05975,-3.95949 0.0663,-0.2084 0.13267,-0.41684 0.1931,-0.62656 0.88219,0.14069 1.79569,0.17739 2.64656,0.42208 0.0241,0.007 -0.0122,1.86971 -0.01,2.65861 0.0833,1.32865 0.48244,2.49544 1.49094,3.51185 0.59556,0.45338 1.15377,0.51393 1.80967,0.1852 0.004,-0.0282 0.008,-0.0564 0.0114,-0.0845 1.37309,-1.11668 3.21069,0.55213 1.8376,1.6688 l 0,0 c -0.23019,0.16213 -0.46037,0.32425 -0.69055,0.48638 -1.84857,0.7084 -3.60781,0.44491 -5.0511,-0.81553 -1.32295,-1.46136 -2.0195,-3.07892 -2.08148,-4.94563 -6.4e-4,-0.20558 0.0101,-2.81711 0.0155,-2.81827 0.8723,-0.18477 1.79352,-0.0936 2.69028,-0.14047 -0.0411,0.40132 -0.18099,0.78839 -0.30746,1.1746 -0.57104,1.58797 -1.27552,3.1458 -2.36867,4.52919 -1.15814,1.51218 -2.56975,2.96797 -4.90543,2.55637 -0.34775,-0.12989 -0.72481,-0.21278 -1.04325,-0.38967 -1.40575,-0.7809 -1.76763,-2.46126 -2.15879,-3.73197 -0.43123,-1.86988 -0.60804,-3.79896 -1.40558,-5.59404 -0.70209,-1.50843 1.78018,-2.36173 2.48227,-0.8533 z"
       inkscape:connector-curvature="0" />
    <path
       style="fill:#000000;fill-opacity:1;fill-rule:nonzero;stroke:none"
       id="path9356"
       d="m 674.27204,342.69654 c 0.57898,2.69662 0.62929,5.45624 0.72363,8.19015 0.0863,2.8984 0.21309,5.83077 0.9728,8.66507 0.22331,0.68031 0.2555,1.43925 0.86939,1.95862 1.25207,1.2172 -0.75095,2.73894 -2.00303,1.52174 l 0,0 c -0.84773,-0.86228 -1.23885,-1.8645 -1.47281,-2.96909 -0.78581,-2.98285 -0.96056,-6.0583 -1.03866,-9.10838 -0.0883,-2.56992 -0.13617,-5.1616 -0.64498,-7.70087 -0.4585,-1.57612 2.13517,-2.13336 2.59366,-0.55724 z"
       inkscape:connector-curvature="0" />
    <path
       style="fill:#000000;fill-opacity:1;fill-rule:nonzero;stroke:none"
       id="path9358"
       d="m 686.13385,354.53681 c -1.8,0.24558 -2.55871,1.4885 -3.30694,2.78616 -0.80474,1.73374 -1.46142,3.65568 -0.96019,5.5209 0.10557,0.14207 0.20507,0.42267 0.49214,0.37675 0.32878,-0.0526 2.08712,-1.62605 2.17859,-1.70227 2.74168,-2.96266 3.9751,-6.53589 4.81612,-10.18426 0.68778,-3.87571 0.74873,-7.86832 -0.201,-11.71363 -0.33405,-1.58684 -1.17851,-1.51384 -0.29795,-0.92254 0.18722,0.12573 0.62734,0.0217 0.66371,0.22343 0.0582,0.32398 -0.33193,0.59169 -0.46124,0.90012 -0.21413,0.51074 -0.37843,1.0359 -0.56764,1.55386 -1.06082,4.02022 -1.67947,8.19963 -1.01224,12.31339 0.12234,0.75432 0.35831,1.49177 0.53746,2.23765 0.93377,3.12923 2.46701,5.54002 5.81808,7.08531 0.72166,0.20164 1.40917,0.32454 2.15251,0.19423 1.87815,-0.18513 2.18276,2.09747 0.30468,2.2826 l 0,0 c -1.33083,0.0892 -2.50074,0.0143 -3.75207,-0.46673 -4.14053,-2.0156 -5.95033,-4.70568 -7.14344,-8.63919 -0.19412,-0.83745 -0.44876,-1.66621 -0.58235,-2.51236 -0.6966,-4.41214 -0.0357,-8.8963 1.13333,-13.20117 0.26792,-0.69656 0.90547,-2.7232 1.63762,-3.33285 2.47629,-2.06199 3.68183,-0.0356 4.18694,1.81621 0.9888,4.15512 0.98343,8.44678 0.20536,12.63151 -0.96136,4.10851 -2.40494,8.12314 -5.59266,11.39701 -2.40961,1.94923 -5.30944,3.73422 -7.13847,0.10942 -0.50096,-2.40488 0.058,-4.78613 1.20107,-7.01124 1.12461,-1.85473 2.47012,-3.58497 5.04017,-3.97128 1.83399,-0.39403 2.4824,1.83494 0.64841,2.22897 z"
       inkscape:connector-curvature="0" />
    <path
       style="fill:#000000;fill-opacity:1;fill-rule:nonzero;stroke:none"
       id="path9360"
       d="m 711.97754,355.30267 c -2.07615,0.67447 -3.3569,2.45212 -4.51153,3.98251 -0.517,1.22717 -2.38818,3.35734 -1.33715,4.69646 0.32284,0.20063 0.34676,-0.0256 0.62931,-0.15078 1.05543,-0.46783 1.69498,-0.83594 2.55043,-1.58181 2.765,-2.81099 4.2834,-6.28118 5.36448,-9.79351 0.81254,-3.75205 1.60967,-7.61242 1.06938,-11.43137 0.0454,-0.33476 -0.65866,-2.96014 -1.64452,-2.23499 -1.46666,1.78902 -1.67234,3.96925 -1.97753,6.10121 -0.50281,4.3475 -0.6506,8.70231 0.23171,13.01395 0.47422,2.11802 1.74704,3.45536 4.07632,4.11977 0.52903,0.0415 0.9141,0.007 1.30677,-0.2842 1.57808,-0.89451 3.05011,1.02343 1.47204,1.91795 l 0,0 c -1.17119,0.61156 -2.29276,0.80307 -3.65671,0.53643 -3.39444,-1.04606 -5.04574,-2.84228 -5.83251,-5.89673 -0.907,-4.53848 -0.79974,-9.11666 -0.25057,-13.69136 0.35827,-2.4406 0.53319,-6.01613 3.16702,-7.60236 0.37407,-0.2253 0.82565,-0.33606 1.23847,-0.50409 0.38942,10e-4 0.78658,-0.0639 1.16813,0.003 2.31239,0.40479 3.03949,2.53464 3.35708,4.25669 0.53319,4.11278 -0.20989,8.25206 -1.14196,12.28861 -1.22383,3.91001 -2.93787,7.76024 -6.08519,10.84948 -2.1284,1.72214 -5.19341,3.65945 -7.50727,0.97357 -0.13021,-0.31574 -0.31574,-0.61847 -0.39057,-0.94721 -0.46719,-2.05175 0.99813,-4.12739 1.95393,-5.89425 1.54629,-2.02484 3.2861,-4.1889 6.10201,-4.95581 1.83401,-0.39403 2.48245,1.83494 0.64843,2.22897 z"
       inkscape:connector-curvature="0" />
    <path
       style="fill:#000000;fill-opacity:1;fill-rule:nonzero;stroke:none"
       id="path9362"
       d="m 724.9316,355.29043 c -1.55185,1.21922 -2.69656,2.69801 -3.48787,4.35993 -0.13104,0.53232 -0.71072,1.41889 -0.33877,1.99966 0.0262,0.0407 0.78677,0.18485 0.9473,0.22883 1.41275,0.27868 2.87026,0.39141 4.28832,0.10949 0.49942,-0.43427 0.39575,-1.42667 0.43854,-2.00428 -0.0435,-1.40997 -0.5486,-2.70087 -1.33012,-3.92335 -0.39313,-0.50344 -0.84318,-0.63472 -1.48777,-0.75804 -1.83651,-0.38535 -1.20241,-2.61735 0.6341,-2.23201 l 0,0 c 1.36914,0.3018 2.43717,0.83409 3.20226,1.89236 1.01124,1.61097 1.64682,3.32405 1.64906,5.17417 -0.13833,1.71212 -0.38763,3.44667 -2.53662,4.096 -1.95137,0.3507 -3.94681,0.24915 -5.86461,-0.22593 -2.9834,-1.14547 -3.11035,-2.7787 -2.06962,-5.24044 0.99769,-2.02896 2.40155,-3.85866 4.35177,-5.31444 1.51232,-0.97478 3.11643,0.86328 1.60403,1.83805 z"
       inkscape:connector-curvature="0" />
    <path
       style="fill:#000000;fill-opacity:1;fill-rule:nonzero;stroke:none"
       id="path9364"
       d="m 615.06274,308.45845 c -4.14968,-0.25749 -8.27943,0.20921 -12.36739,0.88026 -5.66023,1.22187 -11.27636,2.71361 -16.53388,5.16781 -4.74296,2.60852 -7.15635,7.06681 -9.01462,11.94138 -1.6824,4.93115 -3.23809,9.91857 -4.32846,15.017 -0.40697,2.38788 -0.16422,1.23898 -0.71252,3.44997 -0.23829,0.95606 -1.59036,0.61907 -1.35207,-0.33699 l 0,0 c 0.53302,-2.12701 0.2896,-0.99408 0.70203,-3.40472 1.10783,-5.16807 2.67969,-10.22548 4.3896,-15.22324 2.00206,-5.21381 4.63849,-9.94448 9.7276,-12.70649 5.37647,-2.5 11.10893,-4.04286 16.89718,-5.27985 4.27054,-0.69737 8.59811,-1.19987 12.93049,-0.85696 0.95588,0.23897 0.61793,1.5908 -0.33796,1.35183 z"
       inkscape:connector-curvature="0" />
  </g>
</svg>
