<?xml version="1.0" encoding="UTF-8" standalone="no"?>
<!-- Created with Inkscape (http://www.inkscape.org/) -->

<svg
   xmlns:dc="http://purl.org/dc/elements/1.1/"
   xmlns:cc="http://creativecommons.org/ns#"
   xmlns:rdf="http://www.w3.org/1999/02/22-rdf-syntax-ns#"
   xmlns:svg="http://www.w3.org/2000/svg"
   xmlns="http://www.w3.org/2000/svg"
   xmlns:sodipodi="http://sodipodi.sourceforge.net/DTD/sodipodi-0.dtd"
   xmlns:inkscape="http://www.inkscape.org/namespaces/inkscape"
   width="278.52957"
   height="233.09323"
   id="svg34683"
   version="1.1"
   inkscape:version="0.48.0 r9654"
   sodipodi:docname="LogisticFunction.pdf">
  <defs
     id="defs34685">
    <inkscape:path-effect
       effect="spiro"
       id="path-effect35280"
       is_visible="true" />
  </defs>
  <sodipodi:namedview
     inkscape:document-units="mm"
     pagecolor="#ffffff"
     bordercolor="#666666"
     borderopacity="1.0"
     inkscape:pageopacity="0.0"
     inkscape:pageshadow="2"
     inkscape:zoom="0.7176508"
     inkscape:cx="198.11749"
     inkscape:cy="-76.405884"
     inkscape:current-layer="layer1"
     id="namedview34687"
     showgrid="false"
     inkscape:window-width="1280"
     inkscape:window-height="752"
     inkscape:window-x="0"
     inkscape:window-y="0"
     inkscape:window-maximized="0"
     fit-margin-top="0"
     fit-margin-left="0"
     fit-margin-right="0"
     fit-margin-bottom="0" />
  <metadata
     id="metadata34689">
    <rdf:RDF>
      <cc:Work
         rdf:about="">
        <dc:format>image/svg+xml</dc:format>
        <dc:type
           rdf:resource="http://purl.org/dc/dcmitype/StillImage" />
        <dc:title></dc:title>
      </cc:Work>
    </rdf:RDF>
  </metadata>
  <g
     inkscape:label="Layer 1"
     inkscape:groupmode="layer"
     id="layer1"
     transform="translate(-328.0636,-62.548119)">
    <path
       style="fill:#000000;fill-opacity:1;fill-rule:nonzero;stroke:none"
       id="path35238"
       d="m 461.11673,280.20908 c -0.14807,-10.29565 0.0471,-20.5921 0.17209,-30.88781 0.32862,-24.14574 0.11885,-48.29186 -0.0825,-72.43758 -0.0115,-15.80242 -0.25016,-31.60277 -0.87405,-47.40115 -0.0656,-1.66104 4.1137,-1.71317 4.17927,-0.0521 l 0,0 c 0.62406,15.81208 0.86379,31.62613 0.87504,47.44226 0.20144,24.15473 0.41121,48.30986 0.0825,72.46461 -0.12485,10.2878 -0.3204,20.57635 -0.17202,30.86409 0.01,1.66144 -4.17058,1.66915 -4.18028,0.008 z"
       inkscape:connector-curvature="0" />
    <path
       inkscape:connector-curvature="0"
       d="m 330.2773,258.69665 c 18.31737,-0.11746 36.6356,0.10824 54.95265,0.26379 42.95748,0.40031 85.91653,0.26223 128.87485,0.13257 28.11433,0.0354 56.22536,-0.15633 84.3335,-0.73332 2.95531,-0.0606 3.04107,4.11878 0.0857,4.17942 l 0,0 c -28.13254,0.57711 -56.26793,0.76989 -84.40667,0.73418 -42.97436,0.12973 -85.94943,0.26779 -128.92295,-0.13264 -18.30295,-0.15539 -36.60712,-0.38149 -54.91044,-0.26366 -2.95591,0.005 -2.96265,-4.17552 -0.007,-4.18028 z"
       id="path35240"
       style="fill:#000000;fill-opacity:1;fill-rule:nonzero;stroke:none" />
    <path
       style="fill:#000000;fill-opacity:1;fill-rule:nonzero;stroke:none"
       id="path35248"
       d="m 587.10984,250.03553 c 2.89283,1.36644 5.8641,2.54536 8.74453,3.94018 2.60471,1.21211 5.25849,2.28195 7.79038,3.64477 0.70634,0.40262 1.42724,0.78791 2.09157,1.25904 3.15263,2.89948 -3.3239,4.93899 -4.47738,5.3517 -3.79085,1.35405 -7.53171,2.83228 -11.28334,4.2903 -2.2555,0.75054 -1.17321,0.41264 -3.24349,1.02429 -2.83543,0.83537 -4.01684,-3.17453 -1.18141,-4.0099 l 0,0 c 1.86994,-0.54924 0.89879,-0.24823 2.91101,-0.91094 3.79751,-1.47499 7.58377,-2.97134 11.42101,-4.34103 1.58409,-0.5324 0.80856,-0.21456 2.23311,-0.90465 0.89705,-0.43456 1.34306,-0.65688 1.34737,-0.5996 0.0872,1.16193 -1.16566,2.81258 -0.17068,3.49143 -0.52785,-0.34888 -1.07619,-0.66625 -1.63107,-0.97076 -2.47795,-1.3374 -5.08647,-2.3631 -7.63137,-3.5634 -2.74122,-1.33182 -5.57818,-2.43858 -8.32146,-3.76294 -2.78492,-0.9908 -1.38373,-4.92927 1.4012,-3.93849 z"
       inkscape:connector-curvature="0" />
    <path
       inkscape:connector-curvature="0"
       d="m 453.17341,145.79324 c 1.29717,-2.92455 2.40501,-5.92305 3.73085,-8.83587 1.14974,-2.63283 2.15609,-5.31133 3.45824,-7.87496 0.38568,-0.71572 0.7537,-1.44559 1.20888,-2.12095 2.82359,-3.22078 5.01673,3.20535 5.45679,4.34868 1.44393,3.75753 3.01081,7.46213 4.55775,11.17798 0.80403,2.23699 0.44046,1.16306 1.10123,3.21819 0.90265,2.81473 -3.07798,4.09128 -3.98063,1.27655 l 0,0 c -0.59361,-1.85633 -0.26956,-0.89262 -0.98,-2.88849 -1.56499,-3.76132 -3.15107,-7.51087 -4.61174,-11.31441 -0.56997,-1.57097 -0.23375,-0.80322 -0.95757,-2.21094 -0.45579,-0.88645 -0.68867,-1.32704 -0.63151,-1.33271 1.15953,-0.1148 2.83954,1.09836 3.4945,0.0875 -0.33621,0.53601 -0.64043,1.09175 -0.93164,1.65372 -1.27802,2.50909 -2.24132,5.1413 -3.38068,7.71405 -1.26617,2.77216 -2.30507,5.63467 -3.56373,8.4087 -0.92421,2.80773 -4.89493,1.50071 -3.97074,-1.30702 z"
       id="path35250"
       style="fill:#000000;fill-opacity:1;fill-rule:nonzero;stroke:none" />
    <path
       style="fill:none;stroke:#000000;stroke-width:3.12519693;stroke-linecap:round;stroke-linejoin:miter;stroke-miterlimit:4;stroke-opacity:1;stroke-dasharray:none"
       d="m 330.24418,254.99867 32.04901,0 c 10.48385,0 20.9632,0.33606 31.4405,0.70657 10.4773,0.3705 21.13088,0.58868 31.26409,-2.10001 13.15034,-3.48924 24.86479,-12.13447 32.04902,-23.6884 8.14088,-13.09245 10.46629,-29.31579 19.50809,-41.80306 3.45127,-4.76641 7.96308,-8.85977 13.35574,-11.21543 5.39266,-2.35565 11.41512,-2.71892 17.29984,-2.71892 l 89.17987,0"
       id="path35278"
       inkscape:path-effect="#path-effect35280"
       inkscape:original-d="m 330.24418,254.99867 c 29.26214,0 15.32779,0 32.04901,0 16.72123,0 32.04902,0 62.70459,-1.39344 15.87123,-0.72142 27.86871,-16.72122 32.04902,-23.6884 4.1803,-6.96717 11.14748,-33.44244 19.50809,-41.80306 8.36062,-8.36061 12.48741,-13.93435 30.65558,-13.93435 62.70459,0 89.17987,0 89.17987,0"
       inkscape:connector-curvature="0"
       sodipodi:nodetypes="csssssc" />
    <path
       style="fill:#000000;fill-opacity:1;fill-rule:nonzero;stroke:none"
       id="path35282"
       d="m 458.22045,172.31835 c 2.79918,0.63916 5.67505,0.83028 8.53307,1.01182 1.48352,0.0932 2.96909,0.13802 4.45517,0.15853 2.95564,0.0411 2.89757,4.22097 -0.0581,4.17991 l 0,0 c -1.55542,-0.0217 -3.11031,-0.069 -4.66305,-0.16661 -3.11003,-0.19894 -6.2379,-0.41809 -9.28099,-1.12815 -2.86767,-0.71692 -1.8538,-4.77241 1.01387,-4.0555 z"
       inkscape:connector-curvature="0" />
    <path
       style="fill:#000000;fill-opacity:1;fill-rule:nonzero;stroke:none"
       id="path35286"
       d="m 446.70031,165.97859 c 0.67966,2.90111 0.94086,5.87372 1.12827,8.84029 0.31688,3.35517 0.0872,6.64774 -0.49239,9.9534 -0.0708,0.37541 -0.14166,0.75082 -0.21249,1.12623 -0.54847,2.90459 -4.65619,2.12894 -4.10772,-0.77565 l 0,0 c 0.0676,-0.35792 0.13529,-0.71583 0.20293,-1.07375 0.52475,-2.98205 0.73876,-5.93822 0.4376,-8.96806 -0.16953,-2.71334 -0.39976,-5.43306 -1.0117,-8.08859 -0.71691,-2.86767 3.33858,-3.88154 4.0555,-1.01387 z"
       inkscape:connector-curvature="0" />
    <path
       style="fill:#000000;fill-opacity:1;fill-rule:nonzero;stroke:none"
       id="path35288"
       d="m 405.32992,85.800546 c -2.14101,0.498643 -4.31498,0.825432 -6.49249,1.114272 -0.31278,1.052413 -0.52169,2.251052 -0.6732,3.370919 -0.0503,3.72129 0.76411,7.350656 1.38265,10.996083 0.55796,3.38978 0.85138,6.8145 1.01619,10.24357 0.0942,2.37557 0.42347,2.77062 -1.6823,4.48447 -2.66352,1.28183 -4.47632,-2.48496 -1.81279,-3.7668 l 0,0 c -1.29246,1.68867 -0.3856,2.06709 -0.68043,-0.51764 -0.15572,-3.26204 -0.43283,-6.5201 -0.96218,-9.74497 -0.68869,-4.066924 -1.59886,-8.128902 -1.39967,-12.284178 0.42981,-2.904779 1.03335,-6.038332 4.26245,-6.925517 2.02125,-0.267694 4.03952,-0.567545 6.02789,-1.025701 2.86767,-0.716917 3.88154,3.338576 1.01388,4.055492 z"
       inkscape:connector-curvature="0" />
    <path
       style="fill:#000000;fill-opacity:1;fill-rule:nonzero;stroke:none"
       id="path35290"
       d="m 388.54869,99.859714 c 3.24895,0.755016 6.59711,0.865346 9.91567,1.009566 3.1167,-0.1219 6.21524,-0.52862 9.30243,-0.957043 0.21317,-0.03105 0.42633,-0.06211 0.6395,-0.09316 2.92508,-0.42589 3.52738,3.710803 0.6023,4.136693 l 0,0 c -0.22248,0.0324 -0.44496,0.0648 -0.66743,0.0971 -3.33695,0.46268 -6.68763,0.90554 -10.05887,0.99272 -3.599,-0.15739 -7.22755,-0.29493 -10.74747,-1.13041 -2.86767,-0.71692 -1.8538,-4.772414 1.01387,-4.055497 z"
       inkscape:connector-curvature="0" />
    <path
       style="fill:#000000;fill-opacity:1;fill-rule:nonzero;stroke:none"
       id="path35292"
       d="m 424.58228,86.977555 c -3.03683,2.56882 -4.51385,5.225778 -5.68677,8.982592 -1.31516,5.420213 -1.66106,10.916893 -0.42856,16.362943 0.92571,2.79825 2.5813,5.63245 5.83864,5.61291 2.94526,0.25086 2.59049,4.41609 -0.35476,4.16523 l 0,0 c -0.71863,-0.0908 -1.45741,-0.0805 -2.15587,-0.2723 -4.0391,-1.10935 -6.22458,-4.89401 -7.41068,-8.60764 -1.32756,-6.1811 -1.0403,-12.39813 0.52885,-18.53221 1.41287,-4.348041 3.20353,-7.670802 6.71323,-10.667448 2.09015,-2.090153 5.04607,0.86577 2.95592,2.955923 z"
       inkscape:connector-curvature="0" />
    <path
       style="fill:#000000;fill-opacity:1;fill-rule:nonzero;stroke:none"
       id="path35294"
       d="m 441.86171,92.174758 c -1.83741,3.956868 -4.76396,7.255612 -7.36069,10.721742 -2.21434,2.9353 -4.64674,5.69457 -6.91271,8.59147 -0.5376,0.82454 -0.92647,1.0405 -1.81186,1.63316 -2.79527,0.9612 -4.15462,-2.99192 -1.35934,-3.95312 l 0,0 c -1.79667,1.43969 -0.34042,0.23138 -0.12129,-0.25579 2.24858,-2.87393 4.65893,-5.61375 6.85998,-8.52261 2.44785,-3.265519 5.22571,-6.362695 6.96693,-10.084341 1.32193,-2.643858 5.06091,-0.774368 3.73898,1.869489 z"
       inkscape:connector-curvature="0" />
    <path
       style="fill:#000000;fill-opacity:1;fill-rule:nonzero;stroke:none"
       id="path35296"
       d="m 423.38457,95.679407 c 2.99114,1.013001 5.59582,2.712007 8.0871,4.612743 2.59668,2.26021 5.31495,4.38489 7.82541,6.74157 1.22558,1.04322 0.61087,0.48113 1.8352,1.69599 2.08809,2.09222 -0.87076,5.04521 -2.95885,2.95299 l 0,0 c -1.02741,-1.04287 -0.45198,-0.49872 -1.74704,-1.61021 -2.38898,-2.27439 -5.02673,-4.27484 -7.49571,-6.46095 -2.03603,-1.56449 -4.14,-2.97071 -6.55998,-3.87664 -2.86767,-0.716917 -1.85379,-4.772409 1.01387,-4.055493 z"
       inkscape:connector-curvature="0" />
    <path
       style="fill:#000000;fill-opacity:1;fill-rule:nonzero;stroke:none"
       id="path35298"
       d="m 446.48388,84.021632 c 2.16861,2.531925 3.9742,5.348516 5.59631,8.253426 2.02236,4.148446 2.71795,8.561342 2.18548,13.113072 -0.6858,3.70904 -2.67974,6.61646 -5.35664,9.16017 -2.16358,2.01405 -5.01187,-1.04572 -2.84829,-3.05977 l 0,0 c 2.00711,-1.81461 3.48854,-3.92914 4.0579,-6.62681 0.51226,-3.64687 -0.1434,-7.207426 -1.69193,-10.555161 -1.42451,-2.57428 -3.03029,-5.052407 -4.89875,-7.329004 -2.09015,-2.090153 0.86577,-5.046076 2.95592,-2.955923 z"
       inkscape:connector-curvature="0" />
    <path
       style="fill:#000000;fill-opacity:1;fill-rule:nonzero;stroke:none"
       id="path35300"
       d="m 462.93256,93.040409 c 2.34864,0.491994 4.74111,0.540624 7.12647,0.409605 1.30028,-0.10156 2.58763,-0.305037 3.86633,-0.555675 2.90102,-0.567047 3.70295,3.535619 0.80192,4.102668 l 0,0 c -1.46935,0.286496 -2.94914,0.517337 -4.44356,0.62727 -2.80082,0.148039 -5.61167,0.07246 -8.36387,-0.528086 -2.86787,-0.716098 -1.85516,-4.77188 1.01271,-4.055782 z"
       inkscape:connector-curvature="0" />
    <path
       style="fill:#000000;fill-opacity:1;fill-rule:nonzero;stroke:none"
       id="path35302"
       d="m 466.98072,100.37183 c 2.59904,0.0113 5.18397,-0.31062 7.75092,-0.686689 2.92487,-0.427331 3.52921,3.709059 0.60434,4.136389 l 0,0 c -2.80309,0.40849 -5.62609,0.75324 -8.46403,0.72919 -2.95492,-0.0769 -2.84615,-4.25581 0.10877,-4.17889 z"
       inkscape:connector-curvature="0" />
    <path
       style="fill:#000000;fill-opacity:1;fill-rule:nonzero;stroke:none"
       id="path35304"
       d="m 526.12612,64.257805 c 0.72018,3.03548 0.95883,6.148525 1.12929,9.254194 0.13055,2.898771 0.15921,5.800882 0.16912,8.702185 10e-4,0.607392 10e-4,1.214786 -0.002,1.822172 -0.0143,2.955888 -4.19453,2.9357 -4.18025,-0.02019 l 0,0 c 0.003,-0.595918 0.003,-1.191844 0.002,-1.787769 -0.01,-2.830046 -0.037,-5.660879 -0.16293,-8.488511 -0.15423,-2.840827 -0.36104,-5.689457 -1.01069,-8.468209 -0.71691,-2.867666 3.33858,-3.881539 4.05549,-1.013873 z"
       inkscape:connector-curvature="0" />
    <path
       style="fill:#000000;fill-opacity:1;fill-rule:nonzero;stroke:none"
       id="path35308"
       d="m 493.49234,94.539739 c 8.14087,1.51818 16.64397,0.68448 24.86021,0.186795 12.33288,-0.904776 24.68442,-1.475534 37.04397,-1.838378 5.45511,-0.12948 2.85225,-0.07508 7.80848,-0.167066 2.95542,-0.05483 3.03295,4.12476 0.0775,4.179587 l 0,0 c -4.92678,0.09136 -2.33896,0.03732 -7.76338,0.165986 -12.31637,0.361358 -24.62471,0.930725 -36.91448,1.832566 -8.80735,0.530888 -17.98553,1.480991 -26.66486,-0.478173 -2.74451,-1.097802 -1.19198,-4.979119 1.55252,-3.881317 z"
       inkscape:connector-curvature="0" />
    <path
       style="fill:#000000;fill-opacity:1;fill-rule:nonzero;stroke:none"
       id="path35310"
       d="m 492.68367,106.06087 c 0.77533,3.44677 0.95464,6.99086 1.12982,10.50853 -0.11351,3.21747 -0.60803,6.40643 -0.98685,9.6005 -0.11749,1.00022 -0.0635,0.53841 -0.16212,1.38541 -0.34178,2.93611 -4.49405,2.45277 -4.15227,-0.48334 l 0,0 c 0.0993,-0.85289 0.045,-0.38808 0.16318,-1.39441 0.35142,-2.96304 0.7932,-5.92066 0.9629,-8.90085 -0.16067,-3.24598 -0.31482,-6.5176 -1.01015,-9.70197 -0.71692,-2.86767 3.33858,-3.88154 4.05549,-1.01387 z"
       inkscape:connector-curvature="0" />
    <path
       style="fill:#000000;fill-opacity:1;fill-rule:nonzero;stroke:none"
       id="path35312"
       d="m 512.21359,111.89831 c 0.59076,3.10463 0.88779,6.25423 1.10563,9.40388 0.0757,1.22342 0.13553,2.44791 0.16684,3.6733 0.075,2.95498 -4.10399,3.061 -4.17896,0.10602 l 0,0 c -0.0293,-1.16489 -0.0871,-2.32889 -0.1583,-3.49193 -0.20396,-2.97101 -0.4813,-5.94226 -1.03434,-8.87144 -0.57971,-2.89852 3.51942,-3.71835 4.09913,-0.81983 z"
       inkscape:connector-curvature="0" />
    <path
       style="fill:#000000;fill-opacity:1;fill-rule:nonzero;stroke:none"
       id="path35314"
       d="m 505.97682,116.24758 c 2.1697,-0.59475 4.3936,-0.91187 6.62866,-1.1232 1.66316,-0.13475 3.33191,-0.16612 4.99972,-0.17519 0.48035,-0.002 0.9607,-2.2e-4 1.44104,0.002 2.9559,0.0122 2.93868,4.19245 -0.0172,4.18028 l 0,0 c -0.46717,-0.002 -0.93433,-0.003 -1.4015,-0.002 -1.54455,0.008 -3.08998,0.0354 -4.63047,0.15686 -2.0256,0.18954 -4.04103,0.47307 -6.00636,1.01677 -2.86767,0.71691 -3.88154,-3.33858 -1.01387,-4.0555 z"
       inkscape:connector-curvature="0" />
    <path
       style="fill:#000000;fill-opacity:1;fill-rule:nonzero;stroke:none"
       id="path35316"
       d="m 533.89377,112.72557 c 1.62639,0.60253 3.4887,1.82197 5.27343,1.17036 0.49516,-0.67522 0.72829,-1.45567 0.55954,-2.30868 -0.10931,-0.92906 -0.54426,-1.75731 -1.49881,-1.9759 -1.43999,-0.30727 -2.82412,-0.29348 -4.23803,0.0695 -1.08073,0.43937 -1.94794,0.9695 -2.11014,2.16906 -0.49677,2.9921 -0.27455,5.99744 0.0601,8.98898 0.40012,3.31703 1.90554,5.70747 4.63232,7.52894 2.11764,1.14899 4.35557,1.05146 6.63328,0.59897 2.90403,-0.55148 3.68393,3.55543 0.77991,4.10691 l 0,0 c -3.40705,0.62472 -6.71298,0.53685 -9.79373,-1.26961 -3.83807,-2.72614 -5.75437,-5.78077 -6.40641,-10.50252 -0.38942,-3.5112 -0.617,-7.05626 0.0618,-10.55252 0.84345,-2.64058 2.46715,-4.2747 5.14981,-5.12884 2.28585,-0.54055 4.5811,-0.55691 6.84728,0.13584 2.34996,1.10161 3.82235,2.94632 4.05691,5.60662 0.0323,2.95932 -0.93557,5.42734 -3.83625,6.61601 -2.87896,0.50638 -5.44615,-0.22342 -8.04048,-1.51419 -2.64386,-1.32193 -0.77437,-5.0609 1.86949,-3.73898 z"
       inkscape:connector-curvature="0" />
    <path
       style="fill:#000000;fill-opacity:1;fill-rule:nonzero;stroke:none"
       id="path35318"
       d="m 551.24036,105.20437 c 2.33025,0 4.6605,0 6.99074,0 0.89655,0 1.7931,0 2.68965,0 2.95592,0 2.95592,4.18031 0,4.18031 l 0,0 c -0.89655,0 -1.7931,0 -2.68965,0 -2.33024,0 -4.66049,0 -6.99074,0 -2.95592,0 -2.95592,-4.18031 0,-4.18031 z"
       inkscape:connector-curvature="0" />
    <path
       style="fill:#000000;fill-opacity:1;fill-rule:nonzero;stroke:none"
       id="path35320"
       d="m 578.02649,103.0537 c -2.0877,2.40252 -4.05224,4.90684 -6.12494,7.32271 -0.96574,1.22435 -1.89226,2.48603 -2.69236,3.82612 -0.34697,0.29976 -0.69394,0.59953 -1.04092,0.89929 -2.58185,1.43928 -4.61729,-2.21202 -2.03543,-3.65129 l 0,0 c -0.16975,0.20097 -0.33949,0.40194 -0.50924,0.60291 0.92564,-1.5398 1.98289,-2.99792 3.10561,-4.39938 2.03025,-2.36526 3.95203,-4.81961 5.99954,-7.16939 1.81658,-2.331853 5.11432,0.23718 3.29774,2.56903 z"
       inkscape:connector-curvature="0" />
    <path
       style="fill:#000000;fill-opacity:1;fill-rule:nonzero;stroke:none"
       id="path35326"
       d="m 567.14916,98.759017 c 2.86414,1.10271 4.98554,3.407023 7.13923,5.502823 1.68321,1.72806 3.56417,3.27527 5.09784,5.1421 0.16969,0.25958 0.33936,0.51916 0.50905,0.77875 1.58922,2.49235 -1.9355,4.73986 -3.52473,2.2475 l 0,0 c -0.0887,-0.14562 -0.1774,-0.29125 -0.26609,-0.43688 -1.30169,-1.79948 -3.28696,-3.06013 -4.73305,-4.73711 -1.823,-1.77793 -3.58256,-3.79608 -6.01472,-4.72068 -2.67039,-1.26747 -0.87792,-5.043972 1.79247,-3.776503 z"
       inkscape:connector-curvature="0" />
    <path
       style="fill:#000000;fill-opacity:1;fill-rule:nonzero;stroke:none"
       id="path35328"
       d="m 603.50021,276.10823 c -1.85617,3.35413 -4.25348,6.3639 -6.246,9.62923 -1.66061,2.78475 -3.55254,5.42205 -5.30231,8.1523 -0.48715,0.7696 -0.18213,0.36346 -0.96785,1.17691 -2.27332,1.88931 -4.9452,-1.32565 -2.67188,-3.21496 l 0,0 c -0.33162,0.48071 -0.28056,0.41539 0.12028,-0.21771 1.73549,-2.70747 3.61139,-5.32274 5.25919,-8.08356 1.94604,-3.15348 4.22106,-6.09429 6.06959,-9.3117 1.32193,-2.64386 5.06091,-0.77437 3.73898,1.86949 z"
       inkscape:connector-curvature="0" />
    <path
       style="fill:#000000;fill-opacity:1;fill-rule:nonzero;stroke:none"
       id="path35330"
       d="m 590.00772,274.92228 c 2.1264,1.97179 4.20272,3.99737 6.42381,5.86735 1.87618,1.53657 3.33467,3.51989 5.21469,5.04009 0.64263,0.45749 1.15265,1.05561 1.7718,1.54609 2.30424,1.85148 -0.31415,5.11016 -2.61839,3.25869 l 0,0 c -0.62882,-0.51001 -1.15401,-1.09946 -1.80209,-1.57068 -1.88252,-1.55595 -3.40575,-3.48295 -5.25933,-5.07716 -2.31087,-1.94793 -4.47224,-4.05614 -6.68641,-6.10846 -2.09016,-2.09015 0.86577,-5.04608 2.95592,-2.95592 z"
       inkscape:connector-curvature="0" />
  </g>
</svg>
