<?xml version="1.0" encoding="UTF-8" standalone="no"?>
<!-- Created with Inkscape (http://www.inkscape.org/) -->

<svg
   xmlns:dc="http://purl.org/dc/elements/1.1/"
   xmlns:cc="http://creativecommons.org/ns#"
   xmlns:rdf="http://www.w3.org/1999/02/22-rdf-syntax-ns#"
   xmlns:svg="http://www.w3.org/2000/svg"
   xmlns="http://www.w3.org/2000/svg"
   xmlns:sodipodi="http://sodipodi.sourceforge.net/DTD/sodipodi-0.dtd"
   xmlns:inkscape="http://www.inkscape.org/namespaces/inkscape"
   width="629.81781"
   height="353.3508"
   id="svg7019"
   version="1.1"
   inkscape:version="0.48.0 r9654"
   sodipodi:docname="MetabolicCost.pdf">
  <defs
     id="defs7021" />
  <sodipodi:namedview
     inkscape:document-units="mm"
     pagecolor="#ffffff"
     bordercolor="#666666"
     borderopacity="1.0"
     inkscape:pageopacity="0.0"
     inkscape:pageshadow="2"
     inkscape:zoom="0.7176508"
     inkscape:cx="304.40717"
     inkscape:cy="155.33846"
     inkscape:current-layer="layer1"
     id="namedview7023"
     showgrid="false"
     fit-margin-top="0"
     fit-margin-left="0"
     fit-margin-right="0"
     fit-margin-bottom="0"
     inkscape:window-width="1280"
     inkscape:window-height="752"
     inkscape:window-x="0"
     inkscape:window-y="0"
     inkscape:window-maximized="0" />
  <metadata
     id="metadata7025">
    <rdf:RDF>
      <cc:Work
         rdf:about="">
        <dc:format>image/svg+xml</dc:format>
        <dc:type
           rdf:resource="http://purl.org/dc/dcmitype/StillImage" />
        <dc:title></dc:title>
      </cc:Work>
    </rdf:RDF>
  </metadata>
  <g
     inkscape:label="Layer 1"
     inkscape:groupmode="layer"
     id="layer1"
     transform="translate(-221.77393,-174.0349)">
    <path
       style="fill:#000000;fill-opacity:1;fill-rule:nonzero;stroke:none"
       id="path7808"
       d="m 539.94875,179.85809 c 0.86714,3.07535 1.10079,6.27997 1.3033,9.45412 0.23046,8.58037 -0.64588,17.15583 -1.00641,25.72778 -0.95421,21.26078 -1.39461,42.54427 -1.70673,63.82333 -0.70727,28.24112 -0.79504,56.4894 -0.63229,84.73707 0.22359,27.49762 0.71682,54.99205 1.20918,82.48588 0.21943,16.81784 0.80672,33.63179 0.76782,50.45172 -0.007,2.95591 -4.1873,2.94599 -4.1803,-0.01 l 0,0 c 0.0408,-16.79164 -0.55041,-33.57737 -0.76715,-50.36695 -0.49262,-27.51075 -0.98615,-55.02211 -1.20979,-82.53666 -0.16282,-28.27612 -0.0752,-56.55289 0.63268,-84.82247 0.31288,-21.31725 0.75412,-42.63894 1.70998,-63.93788 0.35525,-8.4254 1.20837,-16.85459 1.01107,-25.28756 -0.18214,-2.89571 -0.37874,-5.82438 -1.16764,-8.63063 -0.76922,-2.85409 3.26707,-3.94191 4.03628,-1.08783 z"
       inkscape:connector-curvature="0" />
    <path
       style="fill:#000000;fill-opacity:1;fill-rule:nonzero;stroke:none"
       id="path7810"
       d="m 539.47334,177.18251 c -2.0558,4.28679 -4.25177,8.50571 -6.40068,12.74651 -1.35046,2.54429 -2.53228,5.17175 -3.73149,7.78893 -1.23146,2.68719 -5.03172,0.94565 -3.80027,-1.74154 l 0,0 c 1.22229,-2.66684 2.42829,-5.34346 3.80286,-7.9369 2.09329,-4.13103 4.22246,-8.24495 6.24827,-12.40953 1.0978,-2.74451 4.97911,-1.19198 3.88131,1.55253 z"
       inkscape:connector-curvature="0" />
    <path
       style="fill:#000000;fill-opacity:1;fill-rule:nonzero;stroke:none"
       id="path7818"
       d="m 540.0382,174.98547 c 2.76177,3.21644 5.21821,6.66402 7.49101,10.2396 1.64649,2.59372 3.28424,5.23281 5.39612,7.47751 2.00788,2.1693 -1.05998,5.00888 -3.06786,2.83957 l 0,0 c -2.25116,-2.46244 -4.10737,-5.24187 -5.85809,-8.0776 -2.20876,-3.48856 -4.61834,-6.83368 -7.30542,-9.9709 -1.77356,-2.36473 1.57069,-4.87292 3.34424,-2.50818 z"
       inkscape:connector-curvature="0" />
    <path
       inkscape:connector-curvature="0"
       d="m 847.16012,486.79177 c -3.07588,0.86528 -6.28064,1.09698 -9.45491,1.29756 -8.58051,0.22525 -17.15544,-0.6563 -25.72717,-1.02204 -21.26019,-0.96713 -42.54341,-1.42046 -63.82228,-1.7455 -28.24068,-0.72443 -56.4889,-0.82936 -84.73667,-0.68377 -27.49775,0.20688 -54.99247,0.68341 -82.4866,1.15907 -16.81797,0.20921 -33.63227,0.78628 -50.45217,0.73717 -2.95591,-0.009 -2.94345,-4.18909 0.0125,-4.1803 l 0,0 c 16.79162,0.051 33.5777,-0.53001 50.36741,-0.73655 27.51105,-0.47591 55.0227,-0.95272 82.53738,-1.15965 28.27622,-0.14564 56.55293,-0.0408 84.82207,0.68421 21.31706,0.32584 42.63848,0.78003 63.93683,1.74883 8.42518,0.36037 16.85385,1.21861 25.28694,1.02643 2.89582,-0.18038 5.82461,-0.3752 8.63134,-1.1624 2.85456,-0.76748 3.93992,3.26947 1.08538,4.03694 z"
       id="path7820"
       style="fill:#000000;fill-opacity:1;fill-rule:nonzero;stroke:none" />
    <path
       inkscape:connector-curvature="0"
       d="m 848.44339,484.92371 c -4.28554,-2.0584 -8.50312,-4.25693 -12.74262,-6.40842 -2.54347,-1.352 -5.17021,-2.53542 -7.78666,-3.73622 -2.68644,-1.23309 -0.94259,-5.03229 1.74385,-3.79921 l 0,0 c 2.6661,1.22391 5.34198,2.43153 7.93459,3.80768 4.12976,2.0958 8.24238,4.22747 12.40573,6.25581 2.74384,1.09946 1.18895,4.97983 -1.55489,3.88036 z"
       id="path7822"
       style="fill:#000000;fill-opacity:1;fill-rule:nonzero;stroke:none" />
    <path
       inkscape:connector-curvature="0"
       d="m 850.64009,485.48991 c -3.21812,2.75981 -6.66719,5.21416 -10.24415,7.48479 -2.59472,1.64491 -5.2348,3.28106 -7.48079,5.39157 -2.17052,2.00656 -5.00823,-1.06302 -2.8377,-3.06958 l 0,0 c 2.4638,-2.24967 5.24436,-4.10419 8.08115,-5.85318 3.48991,-2.20664 6.83649,-4.61419 9.97534,-7.29937 2.36581,-1.77212 4.87197,1.57365 2.50615,3.34577 z"
       id="path7824"
       style="fill:#000000;fill-opacity:1;fill-rule:nonzero;stroke:none" />
    <path
       style="fill:#000000;fill-opacity:1;fill-rule:nonzero;stroke:none"
       id="path7826"
       d="m 226.17673,484.44652 c 3.06759,-0.89424 6.27002,-1.15614 9.44226,-1.38664 8.57801,-0.30612 17.16087,0.49456 25.73566,0.77948 21.26837,0.76668 42.55492,1.01936 63.83591,1.1438 28.24625,0.45819 56.4942,0.29683 84.73935,-0.11503 27.49458,-0.46608 54.98358,-1.20176 82.47201,-1.9366 16.81524,-0.36773 33.62336,-1.10329 50.44297,-1.21276 2.95587,-0.0189 2.98281,4.16115 0.0269,4.18023 l 0,0 c -16.79136,0.10729 -33.57121,0.84654 -50.35822,1.21133 -27.50535,0.73522 -55.01128,1.47135 -82.52279,1.93766 -28.27359,0.41218 -56.55003,0.5739 -84.82475,0.1154 -21.31918,-0.12489 -42.64394,-0.37806 -63.95047,-1.14605 -8.42821,-0.28094 -16.8646,-1.05969 -25.2955,-0.78802 -2.89399,0.20767 -5.82081,0.43009 -8.62,1.24371 -2.8472,0.79436 -3.97057,-3.23219 -1.12339,-4.02652 z"
       inkscape:connector-curvature="0" />
    <path
       style="fill:#000000;fill-opacity:1;fill-rule:nonzero;stroke:none"
       id="path7828"
       d="m 224.91113,486.32659 c 4.30476,2.01791 8.54287,4.17658 12.80247,6.28802 2.55609,1.32796 5.19388,2.48657 7.82154,3.66265 2.69794,1.2077 0.98997,5.02318 -1.70796,3.81548 l 0,0 c -2.67753,-1.19872 -5.36468,-2.38107 -7.97014,-3.73272 -4.14933,-2.05677 -8.28186,-4.14959 -12.46415,-6.13859 -2.75407,-1.07354 -1.23583,-4.9684 1.51824,-3.89484 z"
       inkscape:connector-curvature="0" />
    <path
       style="fill:#000000;fill-opacity:1;fill-rule:nonzero;stroke:none"
       id="path7830"
       d="m 222.7092,485.78112 c 3.19196,-2.79002 6.61774,-5.27678 10.17314,-7.58102 2.57909,-1.6693 5.20363,-3.33026 7.42963,-5.46185 2.1515,-2.02693 5.01803,1.01576 2.86651,3.04269 l 0,0 c -2.44249,2.27279 -5.20545,4.15345 -8.02562,5.9291 -3.46895,2.23943 -6.79269,4.67843 -9.90609,7.39308 -2.34899,1.79434 -4.88658,-1.52766 -2.53757,-3.322 z"
       inkscape:connector-curvature="0" />
    <path
       style="fill:#000000;fill-opacity:1;fill-rule:nonzero;stroke:none"
       id="path7832"
       d="m 535.32276,484.57244 c -2.79244,-3.24676 -5.27389,-6.73836 -8.01458,-10.0311 -5.37887,-6.41136 -10.98379,-12.61482 -16.62278,-18.79989 -10.91447,-12.09962 -22.46288,-23.60629 -33.81278,-35.29323 -19.46725,-20.67905 -38.6023,-41.66617 -58.1955,-62.22675 -25.30865,-26.47324 -51.6807,-51.89345 -77.41532,-77.94725 -21.61593,-22.09982 -42.95984,-44.46493 -64.34541,-66.78754 -2.04486,-2.13447 0.97373,-5.02636 3.0186,-2.89189 l 0,0 c 21.37085,22.30726 42.70008,44.65697 64.30091,66.7418 25.75196,26.07177 52.1427,51.50864 77.4675,78.00103 19.58374,20.55139 38.71164,41.52712 58.16808,62.19823 11.38049,11.71848 22.95953,23.25662 33.90307,35.38921 5.68174,6.23198 11.32581,12.48561 16.74785,18.94351 2.80876,3.38084 5.36505,6.95292 8.217,10.29523 1.70316,2.41593 -1.71347,4.82457 -3.41664,2.40864 z"
       inkscape:connector-curvature="0" />
    <path
       style="fill:#000000;fill-opacity:1;fill-rule:nonzero;stroke:none"
       id="path7836"
       d="m 533.19629,482.27876 c 1.48649,-5.22191 3.64899,-10.21158 5.77891,-15.19397 4.20088,-10.27779 8.3137,-20.58204 12.12759,-31.01019 6.80921,-18.83645 14.31762,-37.4085 21.73645,-56.0103 10.22744,-24.74915 19.41403,-49.90526 28.78725,-74.98458 9.89225,-26.4834 20.32179,-52.76222 29.42948,-79.52986 5.43745,-16.41115 2.78958,-8.24838 7.94801,-24.48686 0.89496,-2.81718 4.87906,-1.55151 3.9841,1.26567 l 0,0 c -5.17787,16.29825 -2.52105,8.1085 -7.97466,24.56787 -9.12298,26.80614 -19.56168,53.12552 -29.47117,79.64667 -9.38388,25.1078 -18.58139,50.29229 -28.82012,75.06968 -7.40394,18.56446 -14.8979,37.09901 -21.69341,55.89767 -3.84002,10.49771 -7.97931,20.87146 -12.20972,31.21746 -2.01776,4.71975 -4.05775,9.44218 -5.52358,14.37057 -0.5797,2.89852 -4.67883,2.07869 -4.09913,-0.81983 z"
       inkscape:connector-curvature="0" />
    <path
       style="fill:#000000;fill-opacity:1;fill-rule:nonzero;stroke:none"
       id="path7838"
       d="m 645.3901,283.46338 c 0.88491,0 1.76982,0 2.65474,0 1.895,2.10112 -0.59862,1.88866 -1.40013,1.92621 -0.83351,0.039 -1.06623,0.10516 -1.92725,0.24565 -3.32208,0.54356 -6.43666,1.69336 -9.32518,3.28827 -0.74707,0.56501 -2.59802,1.54645 -2.29659,2.728 0.0794,0.31119 0.68273,0.82916 0.84404,0.98915 3.01165,1.98304 6.60448,2.95744 9.86693,4.52246 2.36971,1.38794 4.84252,3.39796 4.8083,6.24615 -0.006,0.48966 -0.16946,0.96666 -0.25419,1.44999 -1.06349,2.51217 -3.54689,4.29017 -6.4681,4.59339 -0.62052,0.0644 -1.24873,-0.008 -1.87309,-0.0123 -2.20244,-0.36568 -5.07929,-0.90599 -6.43637,-2.80146 -0.18159,-0.25364 -0.25994,-0.5593 -0.38991,-0.83895 -0.45218,-1.2957 1.52113,-1.88951 1.97331,-0.59381 l 0,0 c -0.35847,0.97884 4.15134,2.30772 4.8999,2.30851 0.46131,0.0187 0.92341,0.0875 1.38392,0.0561 2.07531,-0.14134 3.98609,-1.34979 4.87341,-3.07563 0.0762,-0.29308 0.20126,-0.5788 0.22875,-0.87922 0.19851,-2.16947 -1.99042,-3.69558 -3.70023,-4.74249 -3.5063,-1.6924 -7.45883,-2.65668 -10.53602,-5.03362 -0.30847,-0.39363 -0.70477,-0.73928 -0.92541,-1.18089 -1.16532,-2.33237 1.08181,-4.21369 2.94527,-5.39326 3.11295,-1.70178 6.45503,-2.95071 10.02931,-3.52865 0.18518,-0.0291 3.3933,-0.44362 3.46299,-0.27359 0.79994,1.95152 0.97795,1.92621 0.21634,1.92621 -0.88492,0 -1.76983,0 -2.65474,0 -1.46677,0 -1.46677,-1.92621 0,-1.92621 z"
       inkscape:connector-curvature="0" />
    <path
       style="fill:#000000;fill-opacity:1;fill-rule:nonzero;stroke:none"
       id="path7840"
       d="m 657.6776,284.51829 c -0.53549,4.22738 -0.82015,8.47236 -1.02504,12.72324 -0.10805,3.86901 -0.21081,7.79052 0.30561,11.64122 0.19701,0.98508 0.0827,0.55751 0.30749,1.29039 0.3908,1.3128 -1.60856,1.82601 -1.99936,0.51321 l 0,0 c -0.2725,-0.93628 -0.14113,-0.41499 -0.36709,-1.56953 -0.51401,-3.95949 -0.44523,-7.98354 -0.31892,-11.96149 0.20769,-4.30193 0.497,-8.59781 1.03899,-12.87595 0.18194,-1.35152 2.24026,-1.1126 2.05832,0.23891 z"
       inkscape:connector-curvature="0" />
    <path
       style="fill:#000000;fill-opacity:1;fill-rule:nonzero;stroke:none"
       id="path7842"
       d="m 666.99379,296.41032 c 0.89166,0.21392 1.75147,0.36368 2.6596,0.19073 -0.0267,0.0258 -0.0491,-0.12203 -0.0642,-0.0892 -0.26556,0.57661 -0.21655,0.94502 0.38122,1.2956 -1.60059,1.34954 -2.58085,3.20757 -3.43938,5.03012 -0.53809,1.70206 -2.06886,4.70608 -0.80444,6.40167 0.13816,0.18528 0.36235,0.2999 0.54353,0.44985 2.68574,0.79803 4.50896,-1.94181 5.70294,-3.72609 1.14824,-2.30065 1.46354,-4.96491 -0.34065,-7.06801 -0.26833,-0.31278 -0.61406,-0.56085 -0.92109,-0.84128 -1.44529,-0.81998 -3.32827,-1.37382 -5.00175,-0.82876 -0.0322,0.0313 -0.13535,0.11811 -0.0966,0.094 0.46782,-0.29065 0.4928,-0.74664 0.2318,-1.20594 1.32613,0.58199 0.43976,2.3235 -0.88637,1.7415 l 0,0 c -0.23658,-0.15114 -0.57306,-0.21891 -0.70976,-0.45343 -0.60642,-1.04032 -0.0397,-1.61846 0.88475,-2.02658 2.49047,-0.60109 4.9865,-0.0722 7.06441,1.33572 0.40522,0.39912 0.86514,0.75583 1.21566,1.19735 2.18853,2.75668 1.83984,6.14829 0.31282,9.08484 -0.38738,0.56067 -0.72621,1.15298 -1.16217,1.68201 -1.46042,1.77223 -3.80842,3.58638 -6.41217,2.97702 -0.51173,-0.11976 -0.94205,-0.44197 -1.41307,-0.66295 -0.31806,-0.35731 -0.71369,-0.6657 -0.95416,-1.07195 -1.44705,-2.44461 0.0337,-5.47793 0.84841,-7.85642 0.93766,-1.95906 2.27583,-4.80681 4.43407,-5.89166 0.28488,-0.1432 0.61421,-0.19145 0.92132,-0.28717 0.30125,0.0654 0.65805,0.0217 0.90374,0.19633 1.27209,0.90399 0.17675,2.06745 -0.84833,2.41511 -1.20718,0.20564 -2.37212,0.085 -3.55323,-0.2138 -1.42298,-0.33034 -0.91988,-2.19903 0.5031,-1.86869 z"
       inkscape:connector-curvature="0" />
    <path
       style="fill:#000000;fill-opacity:1;fill-rule:nonzero;stroke:none"
       id="path7846"
       d="m 680.82566,297.8103 c 1.26168,-2.17539 2.98971,-3.06233 5.56253,-3.4345 2.91464,0.0724 4.39254,1.58181 5.22387,4.03605 0.37544,2.59031 -0.72378,4.46576 -2.81353,6.08858 -2.28276,1.37082 -4.24751,1.1628 -6.54779,0.0196 -1.23611,-0.78284 -2.50388,-1.59551 -3.33131,-2.77441 -0.32499,-0.47545 -0.44093,-0.9863 -0.44209,-1.54114 0.0113,-0.22375 0.023,-0.44699 0.0286,-0.67097 0.003,-0.11079 0.004,-0.22158 0.006,-0.33238 2.45948,0.0525 1.97621,-0.29558 2.15113,1.14746 0.51399,3.96405 0.81696,7.94317 1.03635,11.92977 0.0833,2.95971 0.37582,5.91148 0.76618,8.84882 0.0215,0.12385 0.0429,0.24769 0.0644,0.37153 0.2307,1.34508 -1.81782,1.64804 -2.04852,0.30296 l 0,0 c -0.0249,-0.14623 -0.0497,-0.29247 -0.0746,-0.43871 -0.39599,-2.98306 -0.69336,-5.98066 -0.77909,-8.98636 -0.21724,-3.95268 -0.51732,-7.89794 -1.02785,-11.82819 -0.16977,-1.60819 -0.37901,-1.30249 1.98626,-1.3293 -10e-4,0.11984 -0.003,0.23968 -0.006,0.35951 -0.005,0.2109 -0.0141,0.42152 -0.0281,0.63204 -0.003,0.20554 -0.0202,0.29631 0.12091,0.50538 0.59199,0.92179 1.68692,1.47369 2.5763,2.11544 1.40854,0.74323 2.7906,1.04247 4.24878,0.16854 1.3968,-0.98409 2.28409,-2.37884 2.1235,-4.04736 -0.39235,-1.41015 -1.27886,-2.57427 -2.96342,-2.66703 -1.63332,0.13797 -3.09474,0.88531 -3.90611,2.24 -0.54475,1.26462 -2.47072,0.54925 -1.92598,-0.71537 z"
       inkscape:connector-curvature="0" />
    <path
       style="fill:#000000;fill-opacity:1;fill-rule:nonzero;stroke:none"
       id="path7848"
       d="m 698.32117,297.84418 c 1.18607,0.4691 2.45827,0.81244 3.75328,0.80771 1.54943,-0.49336 1.93463,-2.08402 2.29548,-3.39914 0.17752,-0.91574 -0.0398,-2.87273 -1.47355,-2.60722 -2.56211,1.29812 -3.81453,4.0257 -4.82463,6.42576 -0.58179,1.92029 -1.0447,4.05359 -0.14523,5.97004 0.39081,0.83268 0.91666,1.23193 1.57458,1.87606 1.91214,1.42969 4.09565,1.69009 6.45865,1.51519 1.46312,-0.0962 1.60962,1.82521 0.1465,1.9214 l 0,0 c -3.13304,0.18498 -5.64891,-0.20639 -8.13469,-2.13544 -0.38652,-0.40219 -0.82329,-0.76717 -1.15958,-1.20657 -1.98122,-2.58875 -1.60733,-5.77484 -0.66977,-8.64775 1.0762,-2.51059 2.70487,-6.00931 5.52101,-7.26386 0.44767,-0.19943 0.95647,-0.24795 1.4347,-0.37193 0.43202,0.0743 0.89028,0.0663 1.29605,0.22275 1.95341,0.75314 2.27369,3.12674 1.9834,4.78679 -0.63477,2.22522 -1.60197,4.4295 -4.33674,4.83987 -1.60752,-0.0441 -3.18081,-0.38648 -4.64713,-1.01081 -1.31193,-0.60912 -0.38426,-2.33197 0.92767,-1.72285 z"
       inkscape:connector-curvature="0" />
    <path
       style="fill:#000000;fill-opacity:1;fill-rule:nonzero;stroke:none"
       id="path7850"
       d="m 714.15834,294.3305 c 1.79811,-0.28474 3.60314,-0.54179 5.4076,-0.80122 1.40222,-0.19369 2.8124,-0.32912 4.22671,-0.41583 1.4636,-0.0895 1.59997,1.8325 0.13636,1.92204 l 0,0 c -1.3538,0.0826 -2.7036,0.21239 -4.04587,0.39735 -1.74205,0.25016 -3.48365,0.50377 -5.2217,0.76636 -1.42299,0.33034 -1.92609,-1.53835 -0.5031,-1.8687 z"
       inkscape:connector-curvature="0" />
    <path
       style="fill:#000000;fill-opacity:1;fill-rule:nonzero;stroke:none"
       id="path7852"
       d="m 715.35288,300.26273 c 1.80082,0.34341 3.62494,0.38845 5.45188,0.28324 1.55185,-0.1179 3.10207,-0.24924 4.65607,-0.34106 1.46382,-0.0865 1.59548,1.83587 0.13166,1.92232 l 0,0 c -1.55578,0.0918 -3.10762,0.22461 -4.66135,0.34137 -2.03774,0.1138 -4.07602,0.0578 -6.08136,-0.33717 -1.42298,-0.33035 -0.91988,-2.19904 0.5031,-1.8687 z"
       inkscape:connector-curvature="0" />
    <path
       inkscape:connector-curvature="0"
       d="m 283.30172,407.07506 c 0.98368,0 1.96735,0 2.95103,0 2.10651,2.29645 -0.66542,2.06424 -1.5564,2.10528 -0.92653,0.0426 -1.18523,0.11494 -2.14234,0.26849 -3.69286,0.59409 -7.15506,1.85078 -10.36598,3.59396 -0.83045,0.61754 -2.88798,1.69022 -2.55291,2.98162 0.0883,0.34011 0.75894,0.90624 0.93825,1.0811 3.34778,2.1674 7.3416,3.23238 10.96818,4.94289 2.63419,1.51698 5.383,3.71386 5.34496,6.82683 -0.007,0.53519 -0.18838,1.05653 -0.28257,1.5848 -1.18218,2.74572 -3.94275,4.689 -7.19,5.02041 -0.68978,0.0704 -1.3881,-0.009 -2.08215,-0.0134 -2.44826,-0.39968 -5.64619,-0.99022 -7.15473,-3.0619 -0.20187,-0.27722 -0.28896,-0.6113 -0.43343,-0.91695 -0.50265,-1.41615 1.69091,-2.06517 2.19355,-0.64901 l 0,0 c -0.39847,1.06984 4.61468,2.52226 5.44678,2.52312 0.51279,0.0204 1.02647,0.0956 1.53838,0.0613 2.30694,-0.15447 4.43098,-1.47528 5.41734,-3.36156 0.0847,-0.32032 0.22371,-0.63261 0.25427,-0.96096 0.22067,-2.37115 -2.21257,-4.03914 -4.11321,-5.18338 -3.89764,-1.84973 -8.29132,-2.90366 -11.71194,-5.50158 -0.34291,-0.43022 -0.78344,-0.808 -1.02871,-1.29066 -1.29538,-2.54921 1.20256,-4.60543 3.274,-5.89465 3.46038,-1.85999 7.17548,-3.22502 11.14868,-3.8567 0.20585,-0.0318 3.77203,-0.48486 3.8495,-0.29902 0.88922,2.13294 1.08709,2.10528 0.24048,2.10528 -0.98368,0 -1.96735,0 -2.95103,0 -1.63048,0 -1.63048,-2.10528 0,-2.10528 z"
       id="path7854"
       style="fill:#000000;fill-opacity:1;fill-rule:nonzero;stroke:none" />
    <path
       inkscape:connector-curvature="0"
       d="m 296.96064,408.22804 c -0.59526,4.62038 -0.91169,9.26 -1.13946,13.90607 -0.12011,4.22869 -0.23433,8.51477 0.33973,12.72345 0.219,1.07666 0.0919,0.60935 0.3418,1.41036 0.43442,1.43484 -1.78808,1.99576 -2.2225,0.56091 l 0,0 c -0.30291,-1.02332 -0.15689,-0.45356 -0.40807,-1.71543 -0.57138,-4.3276 -0.49491,-8.72575 -0.3545,-13.07351 0.23086,-4.70186 0.55246,-9.39711 1.15495,-14.07298 0.20224,-1.47716 2.49029,-1.21603 2.28805,0.26113 z"
       id="path7856"
       style="fill:#000000;fill-opacity:1;fill-rule:nonzero;stroke:none" />
    <path
       inkscape:connector-curvature="0"
       d="m 307.31661,421.22562 c 0.99118,0.2338 1.94695,0.3975 2.95644,0.20846 -0.0297,0.0281 -0.0545,-0.13337 -0.0714,-0.0974 -0.2952,0.63022 -0.24072,1.03288 0.42376,1.41605 -1.77922,1.475 -2.86889,3.50577 -3.82324,5.49775 -0.59815,1.8603 -2.29977,5.14359 -0.89422,6.99681 0.15358,0.20251 0.40279,0.32778 0.60419,0.49166 2.98549,0.87223 5.0122,-2.12232 6.33944,-4.07248 1.2764,-2.51453 1.62689,-5.42648 -0.37866,-7.72509 -0.29829,-0.34187 -0.6826,-0.61299 -1.0239,-0.91949 -1.6066,-0.89622 -3.69974,-1.50154 -5.56,-0.90581 -0.0358,0.0342 -0.15045,0.12909 -0.10736,0.10277 0.52003,-0.31767 0.5478,-0.81605 0.25768,-1.31805 1.47414,0.6361 0.48884,2.5395 -0.9853,1.9034 l 0,0 c -0.26299,-0.1652 -0.63703,-0.23926 -0.78898,-0.49558 -0.6741,-1.13704 -0.0441,-1.76893 0.9835,-2.21498 2.76843,-0.65697 5.54304,-0.0789 7.85287,1.45989 0.45045,0.43622 0.9617,0.8261 1.35134,1.30866 2.4328,3.01296 2.04518,6.71987 0.34774,9.92942 -0.43062,0.61279 -0.80727,1.26017 -1.29188,1.83838 -1.62343,1.93699 -4.23348,3.91979 -7.12785,3.25378 -0.56883,-0.13089 -1.04718,-0.48305 -1.57078,-0.72458 -0.35355,-0.39053 -0.79334,-0.72758 -1.06065,-1.1716 -1.60856,-2.67188 0.0375,-5.98719 0.94311,-8.58681 1.0423,-2.14118 2.52983,-5.25368 4.92895,-6.43938 0.31668,-0.15651 0.68276,-0.20924 1.02415,-0.31386 0.33487,0.0715 0.7315,0.0238 1.00461,0.21458 1.41407,0.98803 0.19648,2.25965 -0.94302,2.63964 -1.34191,0.22475 -2.63687,0.0929 -3.94981,-0.23368 -1.5818,-0.36106 -1.02255,-2.40347 0.55926,-2.04242 z"
       id="path7858"
       style="fill:#000000;fill-opacity:1;fill-rule:nonzero;stroke:none" />
    <path
       inkscape:connector-curvature="0"
       d="m 322.69226,422.75575 c 1.4025,-2.37763 3.32339,-3.34702 6.18337,-3.75379 3.23994,0.0791 4.88279,1.72887 5.8069,4.41126 0.41735,2.83112 -0.80456,4.88093 -3.12755,6.65462 -2.53753,1.49825 -4.72157,1.2709 -7.27858,0.0215 -1.37408,-0.85561 -2.78334,-1.74384 -3.70312,-3.03234 -0.36127,-0.51965 -0.49015,-1.07799 -0.49144,-1.68441 0.0125,-0.24455 0.0256,-0.48854 0.0318,-0.73335 0.003,-0.12108 0.005,-0.24218 0.007,-0.36328 2.73398,0.0574 2.19677,-0.32305 2.39122,1.25413 0.57136,4.33258 0.90815,8.68162 1.15202,13.03884 0.0926,3.23486 0.41776,6.46105 0.85169,9.67146 0.0239,0.13536 0.0477,0.27071 0.0716,0.40607 0.25645,1.47013 -2.02071,1.80125 -2.27716,0.33112 l 0,0 c -0.0276,-0.15983 -0.0553,-0.31966 -0.0829,-0.47949 -0.44018,-3.26039 -0.77074,-6.53666 -0.86603,-9.82178 -0.24149,-4.32015 -0.57506,-8.63219 -1.14258,-12.92781 -0.18871,-1.7577 -0.4213,-1.42358 2.20795,-1.45288 -0.002,0.13098 -0.004,0.26196 -0.007,0.39293 -0.006,0.23051 -0.0157,0.4607 -0.0312,0.69079 -0.003,0.22465 -0.0224,0.32386 0.13442,0.55237 0.65806,1.00748 1.87519,1.61069 2.86384,2.31211 1.56574,0.81231 3.10206,1.13938 4.72299,0.1842 1.55269,-1.07557 2.53901,-2.59999 2.3605,-4.42363 -0.43614,-1.54124 -1.4216,-2.81358 -3.29417,-2.91496 -1.81562,0.15079 -3.44015,0.96761 -4.34207,2.44824 -0.60555,1.38219 -2.74649,0.6003 -2.14094,-0.78188 z"
       id="path7860"
       style="fill:#000000;fill-opacity:1;fill-rule:nonzero;stroke:none" />
    <path
       inkscape:connector-curvature="0"
       d="m 342.14046,422.79278 c 1.31844,0.51271 2.73263,0.88797 4.17217,0.8828 1.72237,-0.53923 2.15057,-2.27776 2.55168,-3.71515 0.19735,-1.00086 -0.0442,-3.13979 -1.63801,-2.8496 -2.84807,1.41881 -4.24026,4.39996 -5.36311,7.02314 -0.64672,2.09881 -1.1613,4.43044 -0.16144,6.52505 0.43443,0.91009 1.01898,1.34646 1.75032,2.05047 2.12556,1.56261 4.55277,1.84721 7.17951,1.65605 1.62642,-0.10513 1.78927,1.99489 0.16284,2.10003 l 0,0 c -3.48271,0.20217 -6.27937,-0.22558 -9.04259,-2.33397 -0.42967,-0.43958 -0.91519,-0.83849 -1.289,-1.31874 -2.20235,-2.82941 -1.78674,-6.3117 -0.74453,-9.4517 1.19631,-2.74398 3.00676,-6.56797 6.13721,-7.93915 0.49763,-0.21797 1.06322,-0.271 1.59483,-0.4065 0.48024,0.0812 0.98965,0.0725 1.4407,0.24346 2.17143,0.82316 2.52746,3.41742 2.20477,5.23179 -0.70561,2.4321 -1.78077,4.8413 -4.82077,5.28981 -1.78693,-0.0482 -3.53582,-0.42241 -5.16579,-1.10477 -1.45836,-0.66575 -0.42715,-2.54877 1.03121,-1.88302 z"
       id="path7862"
       style="fill:#000000;fill-opacity:1;fill-rule:nonzero;stroke:none" />
    <path
       inkscape:connector-curvature="0"
       d="m 361.76073,420.34589 c 1.9988,-0.31121 4.0053,-0.59216 6.01115,-0.8757 1.55872,-0.2117 3.1263,-0.35973 4.69845,-0.4545 1.62696,-0.0979 1.77855,2.00286 0.15159,2.10072 l 0,0 c -1.50491,0.0903 -3.00535,0.23214 -4.49744,0.43429 -1.93647,0.27342 -3.87246,0.55061 -5.8045,0.83761 -1.58181,0.36106 -2.14106,-1.68136 -0.55925,-2.04242 z"
       id="path7864"
       style="fill:#000000;fill-opacity:1;fill-rule:nonzero;stroke:none" />
    <path
       inkscape:connector-curvature="0"
       d="m 363.0886,426.82962 c 2.00181,0.37533 4.02952,0.42456 6.06037,0.30957 1.72505,-0.12886 3.44828,-0.27242 5.17573,-0.37277 1.6272,-0.0945 1.77355,2.00655 0.14635,2.10103 l 0,0 c -1.72941,0.10037 -3.45446,0.24549 -5.1816,0.37311 -2.26517,0.12437 -4.53095,0.0632 -6.7601,-0.36853 -1.5818,-0.36105 -1.02255,-2.40347 0.55925,-2.04241 z"
       id="path7866"
       style="fill:#000000;fill-opacity:1;fill-rule:nonzero;stroke:none" />
    <path
       style="fill:#000000;fill-opacity:1;fill-rule:nonzero;stroke:none"
       id="path7868"
       d="m 735.126,284.81049 c 0.0166,2.08867 -0.058,4.17797 0.0808,6.26339 0.0925,1.98015 0.44379,3.93161 1.82103,5.49586 1.32321,0.96068 3.02251,0.7037 4.56577,0.46546 1.2831,-0.17541 2.53684,-0.61143 3.84091,-0.57752 0.93219,0.42546 0.55938,0.14528 1.16212,0.78776 0.89805,1.0769 -0.74204,2.25625 -1.64009,1.17935 l 0,0 c -0.0556,-0.18233 -0.0598,-0.0928 0.28466,-0.0493 -1.05844,0.0766 -2.22087,0.39725 -3.3136,0.56078 -2.32853,0.347 -4.70502,0.45736 -6.52995,-1.17541 -1.58513,-1.92062 -2.18546,-4.16346 -2.26142,-6.57091 -0.13513,-2.12455 -0.074,-4.2518 -0.0846,-6.37947 0,-1.36203 2.07434,-1.36203 2.07434,0 z"
       inkscape:connector-curvature="0" />
    <path
       style="fill:#000000;fill-opacity:1;fill-rule:nonzero;stroke:none"
       id="path7870"
       d="m 746.24089,286.42631 c 0.50381,2.94013 0.49567,5.93749 0.56169,8.90741 0.19917,3.98128 0.46197,7.95941 0.64777,11.94131 0.0463,0.96403 0.0766,1.92861 0.11472,2.89292 0.0538,1.36112 -2.01917,1.43174 -2.07295,0.0706 l 0,0 c -0.0379,-0.96006 -0.0682,-1.92039 -0.11417,-2.88018 -0.1864,-3.99644 -0.45135,-7.98906 -0.64927,-11.98497 -0.0627,-2.82734 -0.0623,-5.67623 -0.5002,-8.47993 -0.35575,-1.32137 1.65666,-1.78854 2.01241,-0.46718 z"
       inkscape:connector-curvature="0" />
    <path
       style="fill:#000000;fill-opacity:1;fill-rule:nonzero;stroke:none"
       id="path7872"
       d="m 396.07109,401.51773 c -2.21608,0.81494 -4.62865,0.98803 -6.98538,1.18452 -1.22052,0.0846 -2.44322,0.152 -3.66727,0.17141 0.15426,-0.0596 -0.32598,0.0409 -0.25418,-1.7e-4 0.32885,-0.18816 0.69736,-0.31739 1.0143,-0.52188 0.14112,-0.091 0.20422,-0.62832 -0.0381,0.43892 -0.42632,1.45371 -0.44596,2.98246 -0.51469,4.47774 -0.0548,1.49928 -0.0769,2.99944 -0.0838,4.4995 0.0385,0.98801 -0.007,-0.19289 -0.58032,-0.43412 0.026,-0.002 0.10393,-0.006 0.0779,-0.005 -0.78387,0.0456 0.21863,-0.29558 0.32636,-0.35992 0.88091,-0.59007 1.8778,-1.04887 2.90932,-1.37466 1.61929,-0.38243 3.3115,-0.38284 4.97378,-0.4122 1.5361,-0.0493 3.06873,0.21161 4.46052,0.80365 1.72529,0.90788 2.24454,1.8099 1.55815,3.59754 -0.86179,1.48445 -2.36546,2.51666 -3.72376,3.60599 -1.35235,0.98416 -2.74716,1.88132 -4.31133,2.55912 -0.84863,0.3123 -1.73437,0.54309 -2.64101,0.65874 -1.61563,0.20048 -1.92617,-1.88562 -0.31053,-2.0861 l 0,0 c 0.6746,-0.0797 1.33122,-0.26152 1.9674,-0.47654 1.37316,-0.58771 2.58082,-1.38539 3.77373,-2.23696 1.09048,-0.87452 2.30239,-1.69983 3.10809,-2.81412 0.36769,-0.57424 0.60681,-0.21934 -0.41337,-0.90745 -1.05352,-0.47556 -2.25567,-0.63021 -3.4236,-0.59898 -1.42967,0.0249 -2.88291,0.0214 -4.28505,0.30338 -0.75129,0.21868 -1.45323,0.57257 -2.11491,0.95574 -0.61274,0.43145 -1.34021,0.90514 -2.14444,0.88389 -0.97101,-0.11734 -1.60519,-0.74129 -1.51281,-1.67105 0.007,-1.52667 0.0296,-3.05346 0.0858,-4.57935 0.0765,-1.64746 0.11271,-3.32698 0.5893,-4.92733 0.11732,-0.69502 0.38891,-1.53316 1.46767,-1.48353 1.16736,-0.0179 2.33339,-0.0836 3.49743,-0.16304 2.07322,-0.17217 4.1931,-0.31361 6.16347,-0.97094 1.45835,-0.66575 2.48956,1.21727 1.03121,1.88302 z"
       inkscape:connector-curvature="0" />
    <path
       style="fill:#000000;fill-opacity:1;fill-rule:nonzero;stroke:none"
       id="path7874"
       d="m 384.31115,424.72342 c 3.10582,0.42882 6.26142,0.45039 9.39573,0.51873 3.37971,0.0599 6.7601,0.0776 10.14037,0.0833 0.63713,2.7e-4 1.2743,0.001 1.91143,-0.003 1.63019,-0.0284 1.67416,2.07651 0.044,2.1049 l 0,0 c -0.6532,0.004 -1.30644,0.003 -1.95966,0.003 -3.39722,-0.006 -6.79457,-0.0236 -10.19122,-0.0839 -3.26728,-0.0714 -6.55749,-0.0954 -9.79283,-0.55901 -1.59883,-0.29195 -1.14661,-2.35634 0.45221,-2.06439 z"
       inkscape:connector-curvature="0" />
    <path
       style="fill:#000000;fill-opacity:1;fill-rule:nonzero;stroke:none"
       id="path7876"
       d="m 396.23217,433.04016 c -2.4998,0.14249 -3.36704,1.22671 -4.42433,3.16395 -1.3035,2.9021 -1.5388,5.60845 -0.65054,8.61965 0.94906,2.30823 3.10316,2.98604 5.55064,3.41594 2.04359,0.20392 4.00023,-0.23102 5.49558,-1.54119 0.83764,-1.13411 0.98153,-2.29497 0.44939,-3.54738 -1.026,-1.30421 -2.4658,-1.72833 -4.13747,-1.87568 -2.37398,-0.006 -3.83609,1.6065 -5.03463,3.28369 -0.81426,1.29637 -1.31083,2.72375 -1.68686,4.17011 -0.37887,1.44791 -2.62161,0.95871 -2.24274,-0.4892 l 0,0 c 0.44388,-1.68686 1.03668,-3.34694 2.01071,-4.84829 1.73237,-2.33475 3.88501,-4.31149 7.19796,-4.20973 2.68374,0.28002 4.6539,1.06423 6.06802,3.26994 0.79821,2.20338 0.50552,3.9451 -1.07257,5.80373 -2.1179,1.70065 -4.67738,2.38911 -7.4961,2.04903 -3.50678,-0.6512 -5.99198,-1.69819 -7.33258,-4.94767 -1.01461,-3.62256 -0.7481,-6.64898 0.83284,-10.11973 1.58841,-2.72926 2.96714,-4.09684 6.47268,-4.30245 1.63049,0 1.63049,2.10528 0,2.10528 z"
       inkscape:connector-curvature="0" />
    <path
       style="fill:#000000;fill-opacity:1;fill-rule:nonzero;stroke:none"
       id="path7878"
       d="m 412.17166,417.56015 c 1.43679,-1.02992 2.76372,-2.17091 4.25337,-3.13869 1.17806,-0.6965 2.36926,-1.07623 3.7613,-0.80821 1.28668,0.51252 1.94439,1.59906 2.54045,2.69465 0.47052,0.82878 0.91145,1.42752 1.88905,1.73069 1.19925,0.38567 2.04878,0.0208 3.07356,-0.51769 0.58764,-0.41505 1.11283,-0.89522 1.53705,-1.45097 0.96045,-1.20297 2.8238,0.0372 1.86335,1.24013 l 0,0 c -0.63959,0.77976 -1.363,1.49082 -2.25592,2.0385 -1.62605,0.8441 -3.2136,1.25296 -5.04628,0.65482 -1.49387,-0.55762 -2.42367,-1.45058 -3.13141,-2.76907 -0.28106,-0.53347 -0.69808,-1.13948 -1.00632,-1.57355 -0.66759,-0.1961 -1.29033,0.17201 -1.8901,0.47743 -1.47546,0.95364 -2.77345,2.0995 -4.20458,3.10618 -1.30439,0.89319 -2.68791,-0.79103 -1.38352,-1.68422 z"
       inkscape:connector-curvature="0" />
    <path
       style="fill:#000000;fill-opacity:1;fill-rule:nonzero;stroke:none"
       id="path7880"
       d="m 414.65367,425.96581 c 1.28391,-0.72731 2.53265,-1.49304 3.86567,-2.14688 1.57764,-0.70621 2.66969,-0.55944 3.71511,0.8004 0.37231,0.7724 0.75456,1.55432 1.37551,2.18897 0.45665,0.46546 0.83818,0.93424 1.47437,1.18436 0.57568,0.13435 1.17201,0.13832 1.76227,0.14715 0.74039,-0.17606 1.31996,-0.60802 1.93272,-1.00844 0.32889,-0.19641 0.69807,-0.42556 0.83389,-0.77956 0.78093,-1.30681 2.80511,-0.29848 2.02418,1.00832 l 0,0 c -0.39149,0.59728 -0.84427,1.12499 -1.51722,1.48398 -1.01505,0.66145 -2.02493,1.30574 -3.31269,1.40068 -0.90928,-0.0145 -1.82835,-0.0408 -2.68943,-0.34062 -0.93717,-0.4084 -1.61845,-1.02141 -2.27528,-1.7435 -0.63439,-0.71473 -1.20924,-1.50929 -1.53522,-2.38501 -0.196,-0.33481 0.54423,-0.54705 -0.69791,-0.10167 -1.35356,0.66234 -2.60675,1.45896 -3.92476,2.17483 -1.45835,0.66575 -2.48956,-1.21727 -1.03121,-1.88301 z"
       inkscape:connector-curvature="0" />
    <path
       style="fill:#000000;fill-opacity:1;fill-rule:nonzero;stroke:none"
       id="path7882"
       d="m 442.90135,403.62132 c 1.55731,1.96755 1.76405,4.39082 1.99661,6.73081 0.39654,4.65971 0.16371,9.32462 -0.0699,13.98423 -0.18142,3.47735 -0.32522,6.95631 -0.40448,10.43687 -0.006,0.30559 -0.011,0.61119 -0.0165,0.91679 -0.027,1.48845 -2.33279,1.45327 -2.30554,-0.0352 l 0,0 c 0.006,-0.30848 0.0113,-0.61694 0.0169,-0.92541 0.0798,-3.49807 0.22402,-6.99453 0.4064,-10.48937 0.22894,-4.56478 0.46193,-9.13444 0.0768,-13.6996 -0.18908,-1.94292 -0.28543,-3.99983 -1.54465,-5.65598 -0.9783,-1.19092 0.86639,-2.45409 1.84468,-1.26317 z"
       inkscape:connector-curvature="0" />
    <path
       style="fill:#000000;fill-opacity:1;fill-rule:nonzero;stroke:none"
       id="path7954"
       d="m 332.52181,407.44087 c 0.84914,-4.52606 0.85411,-9.15167 1.21807,-13.72972 0.91732,-9.56122 3.41695,-18.83735 6.24717,-27.98174 3.12657,-9.46111 7.77419,-18.31437 13.48058,-26.45573 3.06746,-4.43106 7.01649,-8.10787 10.58384,-12.10752 1.09991,-1.32009 2.22658,-2.633 3.16591,-4.07609 0.56926,-0.51256 0.92115,-0.6027 1.34085,-0.86085 0.5268,-0.30701 1.06215,-0.59926 1.60319,-0.88035 0.40718,-0.21275 0.89969,-0.1703 1.34635,-0.17143 0.18344,-5.1e-4 0.36683,0.003 0.55018,0.008 0.007,3.4e-4 0.0149,6.8e-4 0.0224,10e-4 0.98419,0.0469 0.91779,1.4388 -0.0664,1.39185 l 0,0 c -0.002,-1.2e-4 -0.005,-2.5e-4 -0.007,-3.7e-4 -0.16528,-0.004 -0.33057,-0.008 -0.49593,-0.007 -0.33602,7.3e-4 -0.57605,-0.0503 -0.70731,0.0146 -0.5124,0.26837 -1.02198,0.54234 -1.52141,0.83431 -2.18613,1.31003 -0.35049,-0.16478 -0.89791,0.43169 -0.98044,1.49991 -2.1442,2.87198 -3.29339,4.24262 -3.53423,3.95662 -7.43938,7.59909 -10.48254,11.97969 -5.6273,8.01993 -10.20469,16.74669 -13.29034,26.06778 -2.8015,9.04596 -5.27755,18.22187 -6.18924,27.68023 -0.3712,4.65418 -0.37069,9.35853 -1.25526,13.95707 -0.23898,0.95589 -1.59081,0.61794 -1.35184,-0.33795 z"
       inkscape:connector-curvature="0" />
    <path
       style="fill:#000000;fill-opacity:1;fill-rule:nonzero;stroke:none"
       id="path7956"
       d="m 648.468,318.81788 c -0.58155,5.05988 -2.25371,9.90308 -4.15512,14.59896 -2.29587,5.77078 -5.90112,10.72217 -10.32504,15.0212 -5.24888,4.42936 -11.54464,7.18522 -17.86981,9.68165 -4.70489,1.96068 -9.53792,3.64946 -14.43087,5.08069 -2.10929,0.61452 -4.27163,1.03693 -6.46351,1.18586 -0.81542,0.0476 -1.63253,0.0319 -2.44861,0.0153 -0.20122,-0.003 -0.40233,-0.0107 -0.60342,-0.0179 -0.007,-4.2e-4 -0.0139,-8.3e-4 -0.0208,-0.001 -0.9833,-0.0629 -0.89439,-1.45347 0.0889,-1.3906 l 0,0 c -9e-5,2e-5 -1.8e-4,4e-5 -2.7e-4,7e-5 0.18798,0.007 0.37596,0.0133 0.56404,0.0166 0.77537,0.0158 1.55173,0.0316 2.32652,-0.0124 2.09137,-0.13965 4.15386,-0.54817 6.16629,-1.13307 4.8528,-1.41707 9.64456,-3.09568 14.31031,-5.03937 6.15486,-2.42817 12.28784,-5.09604 17.41109,-9.38569 4.29282,-4.15583 7.77801,-8.95709 10.00383,-14.54442 1.86643,-4.60001 3.50539,-9.34621 4.07204,-14.30461 0.16198,-0.97191 1.53646,-0.74283 1.37447,0.22908 z"
       inkscape:connector-curvature="0" />
    <path
       style="fill:#000000;fill-opacity:1;fill-rule:nonzero;stroke:none"
       id="path7966"
       d="m 513.5531,400.09442 c 2.1038,-0.43173 4.23097,-0.0384 6.32699,0.22375 1.53616,0.18749 3.07156,0.38269 4.61258,0.52473 0.4847,0.0429 0.96981,0.0812 1.45538,0.11278 -0.29969,2.72906 0.70811,2.87591 -1.07447,2.40446 -1.19449,-0.45068 -2.44833,-0.68356 -3.70257,-0.87566 -1.64181,-0.39836 -3.22764,-0.96729 -4.75077,-1.71037 -1.59161,-0.66699 -2.97746,-1.68234 -4.38441,-2.67212 -0.98439,-0.58505 -1.65541,-1.43488 -1.94529,-2.56556 -0.13431,-0.69778 -0.0671,-1.41308 -0.0143,-2.1169 0.26305,-1.11217 0.75909,-2.0152 1.73997,-2.58109 1.2079,-0.40636 2.50192,-0.23081 3.74592,-0.15744 1.47195,0.0932 2.94338,0.19438 4.41496,0.29327 1.20578,-0.0178 2.32622,0.27724 3.37607,0.87431 0.39151,0.224 0.70352,0.5129 0.93855,0.9038 -0.77948,0.33737 -1.55896,0.67475 -2.33845,1.01211 0.0336,0.0754 0.17945,0.20991 0.10065,0.22631 -0.1566,0.0326 -2.13715,-1.07901 -2.37518,-1.19475 -1.68749,-0.65396 -3.28119,-1.50279 -4.79417,-2.50933 -1.04238,-0.66217 -2.00919,-1.40136 -2.84504,-2.32876 -0.56577,-0.59712 -0.57578,-1.43159 -0.79064,-2.11026 -0.24825,-0.72876 -0.36198,-1.49852 -0.45309,-2.26359 -0.21259,-1.80191 1.32147,-1.60327 2.35541,-1.84831 1.40109,-0.41911 2.86611,-0.32238 4.2969,-0.50381 1.7784,-0.2616 3.56393,-0.40389 5.3579,-0.44053 0.46804,0.0177 0.94113,-0.0306 1.40903,0.002 0.23614,0.0161 -0.26974,-0.0722 -0.55359,0.16091 -0.29058,0.37258 -0.0546,0.0401 -0.0544,1.23452 -0.95574,-1.55331 1.17094,-2.96348 2.12669,-1.41016 l 0,0 c 0.14747,1.50683 0.35438,0.9786 -0.0384,1.7072 -0.77235,0.94279 -1.73736,0.97526 -2.85172,0.91518 -1.71321,0.034 -3.41766,0.17281 -5.1159,0.42356 -1.39464,0.1608 -2.81469,0.0938 -4.17945,0.48677 -0.31219,0.0448 -0.66038,0.23956 -0.94105,0.0928 -0.142,-0.0742 0.32091,-0.13828 0.39089,-0.28691 0.3308,-0.70259 0.24771,-1.36742 0.29892,-0.86255 0.07,0.59723 0.1493,1.20138 0.34665,1.76903 0.12847,0.40582 0.18739,0.5629 0.27993,1.02771 0.008,0.0402 0.009,0.14592 -0.0227,0.121 -0.047,-0.0373 -0.0695,-0.16014 -0.12272,-0.1328 -0.0523,0.0269 0.075,0.0921 0.11242,0.13809 0.68949,0.77724 1.50241,1.36053 2.36753,1.9137 1.41549,0.95274 2.92042,1.72199 4.50138,2.3411 0.90869,0.44336 2.06847,0.8427 2.85457,1.50072 0.21231,0.17771 0.74274,0.38685 0.57086,0.60814 -0.52944,0.68158 -1.42488,0.93899 -2.13732,1.40849 0.0842,0.13526 0.3794,0.44546 0.067,0.17746 -0.72318,-0.43496 -1.47091,-0.56536 -2.31133,-0.54846 -1.46528,-0.0978 -2.93034,-0.19905 -4.39593,-0.29205 -0.80928,-0.0478 -1.69723,-0.0754 -2.47174,-0.11529 0.15477,-0.48015 -0.2126,0.38696 -0.3471,0.43852 -0.0327,0.43446 -0.0797,0.87507 -0.0466,1.30984 0.0562,0.42922 0.49217,0.78428 0.92024,1.0231 1.29764,0.92018 2.57406,1.86171 4.04926,2.47272 1.295,0.64662 2.65043,1.11008 4.04138,1.48641 1.37782,0.21339 2.75531,0.47161 4.06932,0.96163 0.80634,0.49931 1.20952,2.87367 0.16343,2.69731 -0.50981,-0.032 -1.01893,-0.0742 -1.52782,-0.11842 -1.56712,-0.14488 -3.12871,-0.34191 -4.69085,-0.53325 -1.8423,-0.23047 -3.715,-0.61089 -5.56567,-0.24866 -1.75342,0.33644 -2.20147,-2.23023 -0.44806,-2.56668 z"
       inkscape:connector-curvature="0" />
    <path
       style="fill:#000000;fill-opacity:1;fill-rule:nonzero;stroke:none"
       id="path7968"
       d="m 517.1654,375.01632 c 0.13263,-1.66419 0.0363,-3.35704 -0.81636,-4.80113 -0.57968,-0.59003 -1.56876,-1.45074 -2.45792,-1.28659 -0.42808,0.64103 -0.85478,1.30827 -1.15933,2.04635 -0.26988,0.81565 -0.44086,1.6587 -0.5291,2.51375 0.16801,0.5495 0.50237,1.01209 0.87816,1.48149 0.89407,0.69705 1.9475,1.13661 3.0224,1.43835 2.05106,0.50308 4.11247,0.22131 6.07315,-0.51421 1.80751,-0.79723 2.7071,-2.28713 3.55958,-4.02299 0.5916,-1.23347 0.91876,-2.40718 0.75363,-3.76195 -0.0317,-0.54289 -0.15324,-0.90476 -0.49295,-1.295 0.23695,0.2495 0.0191,0.13798 -0.12128,0.11096 -1.74008,-0.38894 -1.19795,-2.94073 0.54214,-2.5518 l 0,0 c 0.56348,0.13226 1.07007,0.31718 1.50148,0.74408 0.6244,0.77826 0.99606,1.65714 1.07335,2.67614 0.20113,1.8757 -0.19475,3.56905 -1.01619,5.26231 -1.16168,2.32265 -2.53938,4.28543 -4.97103,5.29952 -2.46499,0.88233 -5.03116,1.2262 -7.59298,0.56647 -1.55399,-0.46343 -3.09815,-1.11367 -4.28125,-2.28932 -0.79822,-1.01365 -1.38814,-2.07151 -1.43329,-3.41462 0.11949,-1.12308 0.3486,-2.23156 0.73191,-3.29348 0.72532,-1.65122 1.672,-3.29571 3.54418,-3.6054 1.85058,0.1527 3.44916,1.0351 4.56777,2.59885 1.01789,1.9413 1.35409,4.04958 1.13827,6.25913 -0.1179,1.84233 -2.63224,1.68142 -2.51434,-0.16091 z"
       inkscape:connector-curvature="0" />
    <path
       style="fill:#000000;fill-opacity:1;fill-rule:nonzero;stroke:none"
       id="path7970"
       d="m 502.52986,356.72453 c 2.79676,0.17899 5.59352,0.35797 8.39028,0.53696 2.65132,0.16967 5.30264,0.33935 7.95396,0.50903 1.0126,0.0111 1.98055,-0.29861 2.96619,-0.48597 0.27926,-0.0524 0.56037,-0.0916 0.84224,-0.12398 1.77391,-0.18196 2.01096,2.41572 0.23704,2.59769 l 0,0 c -0.21361,0.0238 -0.42629,0.0559 -0.63802,0.0943 -1.1859,0.22243 -2.35278,0.58585 -3.57419,0.52345 -2.65132,-0.16968 -5.30264,-0.33936 -7.95396,-0.50903 -2.79676,-0.17899 -5.59352,-0.35797 -8.39028,-0.53696 -1.77791,-0.11378 -1.61117,-2.71922 0.16674,-2.60544 z"
       inkscape:connector-curvature="0" />
    <path
       style="fill:#000000;fill-opacity:1;fill-rule:nonzero;stroke:none"
       id="path7972"
       d="m 512.02115,363.35066 c -0.16421,-2.37421 -0.22803,-4.75289 -0.2297,-7.13343 0.004,-1.37612 0.0405,-2.75229 0.10548,-4.12704 0.0217,-0.40094 0.0478,-0.80163 0.0777,-1.20203 0.002,-0.0199 0.003,-0.0399 0.005,-0.0599 0.14317,-1.84053 2.65488,-1.6426 2.51172,0.19792 l 0,0 c -10e-4,0.0173 -0.003,0.0347 -0.004,0.052 -0.0276,0.3758 -0.053,0.75175 -0.0732,1.12803 -0.0631,1.33161 -0.0984,2.66462 -0.10245,3.99757 10e-4,2.4392 0.0912,4.87341 0.22417,7.30776 -0.1179,1.84232 -2.63224,1.68141 -2.51434,-0.16091 z"
       inkscape:connector-curvature="0" />
    <path
       style="fill:#000000;fill-opacity:1;fill-rule:nonzero;stroke:none"
       id="path7974"
       d="m 515.07653,342.97119 c 0.66754,1.3672 1.56387,2.68702 2.77364,3.58745 0.72582,0.4615 1.46538,0.43024 2.15555,-0.0798 0.65415,-0.49673 0.67081,-1.46253 0.78007,-2.23002 0.2218,-1.09194 -0.15746,-1.85253 -1.03832,-2.41908 -1.11518,-0.54502 -2.36013,-0.6886 -3.57471,-0.81788 -0.44529,-0.0403 -0.89145,-0.0787 -1.33878,-0.0837 0.83608,0.0615 1.16628,-1.17282 1.16065,-0.5839 -0.85466,-1.34595 -0.96899,-1.14033 0.17098,-1.05561 1.33761,-0.21373 2.61137,-0.69721 3.8909,-1.14316 1.0333,-0.44047 2.1395,-0.75563 2.917,-1.62564 0.0632,-0.0442 0.28956,-0.48035 0.0649,-0.069 0.40515,-1.79937 2.85901,-1.21738 2.45387,0.58199 l 0,0 c -0.16611,0.50783 -0.33826,0.91476 -0.71272,1.29885 -1.09596,1.14521 -2.47923,1.75159 -3.92945,2.28759 -1.59069,0.55414 -3.1861,1.17454 -4.87706,1.273 -0.96719,-0.0725 -2.45793,-0.0193 -2.49826,-1.55125 0.0103,-1.078 0.22391,-1.4476 1.37196,-2.02327 0.53358,0.002 1.06576,0.0514 1.59678,0.0982 1.6455,0.17776 3.31803,0.41448 4.77224,1.28612 1.56206,1.22557 2.44069,2.83817 2.06129,4.92735 -0.2406,1.60796 -0.58471,3.19834 -2.02578,4.11331 -1.65039,0.90157 -3.31588,1.01858 -4.92241,-0.0953 -1.53054,-1.22824 -2.75117,-2.83341 -3.57586,-4.65436 -0.68965,-1.69872 1.63381,-2.71997 2.32346,-1.02126 z"
       inkscape:connector-curvature="0" />
    <path
       style="fill:#000000;fill-opacity:1;fill-rule:nonzero;stroke:none"
       id="path7976"
       d="m 500.22902,326.92812 c 3.54184,0.22667 7.08367,0.45334 10.62551,0.68001 3.68847,0.37371 7.38559,0.33355 11.08498,0.19053 1.1537,-0.0418 2.30744,-0.0835 3.46142,-0.11501 0.0386,-5.4e-4 0.11897,-0.0428 0.11579,-0.003 -0.21683,2.72365 0.4481,2.84492 -0.99241,2.39203 -0.56908,-0.17892 -1.1222,-0.36045 -1.70181,-0.50524 -1.97664,-0.34147 -3.78882,-1.19209 -5.53812,-2.16383 -2.21461,-1.424 -4.03338,-3.2178 -5.15047,-5.66867 -0.80459,-2.90268 1.26011,-4.66157 3.5738,-5.7315 2.14221,-0.8516 3.82381,-1.05876 5.87614,0.0933 1.85601,1.69721 2.45871,4.03697 2.78939,6.48575 0.12833,1.39526 0.16896,2.80026 0.11021,4.20147 -0.0601,1.41767 -0.85554,1.24621 -1.93143,1.42196 -1.68423,-0.59453 -0.86179,-3.06581 0.82245,-2.47129 l 0,0 c -1.53331,0.44733 -0.87632,-0.0777 -1.41848,1.09989 -0.0214,0.0465 0.007,-0.10273 0.0101,-0.1541 0.0543,-1.24477 0.0156,-2.49289 -0.0895,-3.73306 -0.21399,-1.67049 -0.54612,-3.23912 -1.57076,-4.59491 -1.13591,-0.80386 -2.38186,-0.41214 -3.60958,0.0475 -0.92508,0.39146 -2.40321,1.00524 -2.26944,2.24148 0.82205,1.96328 2.36285,3.30131 4.05913,4.46204 1.56059,0.87266 3.17352,1.63522 4.94296,1.92746 1.24194,0.31554 4.04942,0.76048 2.02704,3.26209 -1.14481,0.0312 -2.28939,0.0727 -3.43393,0.1141 -3.78231,0.14589 -7.56297,0.18451 -11.33418,-0.19368 -3.54184,-0.22667 -7.08368,-0.45334 -10.62551,-0.68001 -1.77791,-0.11378 -1.61117,-2.71921 0.16674,-2.60543 z"
       inkscape:connector-curvature="0" />
    <path
       style="fill:#000000;fill-opacity:1;fill-rule:nonzero;stroke:none"
       id="path7978"
       d="m 518.07655,308.95399 c 0.50421,0.56718 2.05406,2.5045 2.90685,1.89893 1.27065,-0.69883 1.63053,-2.22273 1.95409,-3.56401 0.28878,-1.87501 -0.34821,-3.21818 -1.85401,-4.20806 -1.43325,-0.74783 -2.44912,-1.17636 -3.83061,-0.20507 -1.00999,0.9394 -1.287,2.30108 -1.52056,3.62329 -0.119,0.81219 -0.22424,1.62938 -0.2546,2.45069 -0.47655,-0.45323 -0.9531,-0.90646 -1.42965,-1.35968 1.69678,-0.5714 2.46596,1.91077 0.76918,2.48216 l 0,0 c -0.61912,-0.40521 -1.23824,-0.81042 -1.85736,-1.21563 0.0381,-0.94727 0.15213,-1.89028 0.29564,-2.82655 0.38163,-2.07446 0.9851,-4.05463 2.69271,-5.38142 2.38865,-1.42454 4.22795,-1.06649 6.57816,0.28537 2.43745,1.84358 3.33521,3.84421 2.85056,6.99752 -0.63028,2.46173 -1.58881,4.80613 -4.1841,5.52171 -0.42068,-0.002 -0.84732,0.0663 -1.26207,-0.005 -1.63424,-0.28022 -2.96867,-1.83311 -3.96575,-3.05989 -0.97242,-1.54213 1.1391,-2.97666 2.11152,-1.43454 z"
       inkscape:connector-curvature="0" />
    <path
       style="fill:#000000;fill-opacity:1;fill-rule:nonzero;stroke:none"
       id="path7980"
       d="m 501.16844,291.16958 c 2.78923,-0.51286 5.60788,-0.083 8.38977,0.22445 3.83393,0.43423 7.67717,0.77419 11.52286,1.0807 1.77901,0.13831 3.55891,0.26484 5.33956,0.3799 1.41661,0.0917 0.68074,-0.19269 0.30432,2.63248 -1.77758,-0.11877 -1.60444,-2.7235 0.17313,-2.60501 l 0,0 c 0.0494,2.84219 0.79837,2.66559 -0.6457,2.57786 -1.79281,-0.11573 -3.58485,-0.24315 -5.376,-0.38253 -3.87037,-0.30851 -7.73827,-0.65078 -11.59682,-1.08773 -2.53952,-0.28081 -5.11419,-0.70154 -7.6631,-0.25346 -1.75342,0.33644 -2.20148,-2.23023 -0.44806,-2.56667 z"
       inkscape:connector-curvature="0" />
    <path
       style="fill:#000000;fill-opacity:1;fill-rule:nonzero;stroke:none"
       id="path7982"
       d="m 516.8586,285.18378 c 1.97415,-0.26475 3.96436,-0.31679 5.9512,-0.31187 1.46495,0.12732 2.89306,0.51115 4.30607,0.91068 0.24738,0.0696 0.49285,0.14575 0.73567,0.23047 1.6758,0.6193 0.81959,3.07838 -0.85621,2.45909 l 0,0 c -0.18324,-0.0613 -0.36763,-0.11933 -0.55371,-0.1712 -1.2002,-0.33991 -2.41152,-0.66634 -3.64987,-0.81865 -1.87066,-0.006 -3.74456,0.0408 -5.60355,0.28787 -1.7665,0.24974 -2.0961,-2.33666 -0.3296,-2.58639 z"
       inkscape:connector-curvature="0" />
    <path
       style="fill:#000000;fill-opacity:1;fill-rule:nonzero;stroke:none"
       id="path7984"
       d="m 509.88136,286.43052 c -1.05839,-0.29093 -2.11677,-0.58187 -3.17516,-0.87282 -1.66731,-0.47515 -1.45208,-1.44405 -1.00981,-2.73052 0.56894,-0.60043 1.24902,-0.73566 2.02731,-0.75156 1.16735,-0.0678 1.6667,0.85109 1.77288,1.86662 -0.0342,0.85039 0.0819,0.68974 -0.0685,0.0495 -1.90033,0.0314 -1.29757,-0.22295 -1.70171,1.28612 -0.0415,0.15506 -0.12379,-0.29418 -0.18623,-0.44103 -0.11714,-0.27381 -0.23613,-0.54676 -0.35637,-0.81912 -0.007,-0.0164 -0.0146,-0.0327 -0.022,-0.0491 -0.74996,-1.67082 1.53582,-2.78027 2.28579,-1.10945 l 0,0 c 0.009,0.0204 0.0184,0.0409 0.0274,0.0613 0.12556,0.28446 0.24986,0.56951 0.37215,0.8555 0.55013,1.29515 0.0983,3.41235 -1.85687,2.36626 -0.64708,-0.48808 -1.08789,-1.15388 -1.00886,-2.02877 0.22459,0.27484 1.50322,0.66466 0.77186,0.57215 -0.32207,0.004 -0.32195,0.0384 -0.0985,-0.22501 0.2432,-1.14951 0.28404,-0.82688 -0.62053,-1.51657 -0.0912,-0.0695 0.52233,0.21076 0.32859,0.0904 1.05839,0.29094 2.11678,0.58188 3.17516,0.87282 1.72026,0.47288 1.06365,2.99616 -0.6566,2.52328 z"
       inkscape:connector-curvature="0" />
    <path
       style="fill:#000000;fill-opacity:1;fill-rule:nonzero;stroke:none"
       id="path7986"
       d="m 516.9309,274.46688 c 0.48426,1.5414 1.4739,2.89844 2.40394,4.18596 0.65665,0.75342 1.4349,1.39715 2.39839,1.65254 0.8779,0.13394 0.15025,0.2258 0.35059,-0.3611 0.53363,-1.02682 0.96446,-2.09071 1.24727,-3.21766 0.20142,-1.03443 0.26325,-2.09128 0.33593,-3.14143 0.0294,-0.44165 0.0564,-0.88347 0.0777,-1.32558 0.0122,-0.21623 0.006,-0.10683 0.0191,-0.32818 0.10972,-1.84282 2.6248,-1.69391 2.51508,0.14894 l 0,0 c -0.0122,0.20438 -0.007,0.10755 -0.0171,0.29048 -0.0224,0.46341 -0.0505,0.92654 -0.0814,1.38946 -0.084,1.21077 -0.1585,2.42968 -0.41225,3.61851 -0.32769,1.28267 -0.80069,2.50589 -1.40895,3.67641 -0.7133,1.42363 -1.7695,2.2742 -3.34912,1.75415 -1.47124,-0.47786 -2.71528,-1.35557 -3.70065,-2.59401 -1.15137,-1.61607 -2.36581,-3.30022 -2.85825,-5.27267 -0.31682,-1.81491 2.16289,-2.29071 2.47971,-0.4758 z"
       inkscape:connector-curvature="0" />
    <path
       style="fill:#000000;fill-opacity:1;fill-rule:nonzero;stroke:none"
       id="path7988"
       d="m 515.01159,251.93799 c 0.74175,1.60764 1.38139,3.29636 2.54769,4.63129 1.07735,1.27687 2.5004,1.89087 4.04015,2.32552 1.14461,0.34521 2.00585,0.30785 2.89093,-0.5361 0.88021,-1.19583 1.06145,-2.72321 0.88971,-4.16825 -0.079,-0.26139 -0.15796,-0.52279 -0.23694,-0.78418 -0.48873,-1.77272 1.93449,-2.5001 2.42322,-0.72738 l 0,0 c 0.10702,0.41325 0.21403,0.82649 0.32105,1.23974 0.19228,2.33948 -0.18144,4.68467 -1.8063,6.45708 -1.58953,1.27339 -3.21792,1.64039 -5.16223,1.03565 -2.01718,-0.58264 -3.86894,-1.46635 -5.27354,-3.13516 -1.28002,-1.59338 -2.15854,-3.42207 -2.9572,-5.31695 -0.68965,-1.6987 1.63381,-2.71997 2.32346,-1.02126 z"
       inkscape:connector-curvature="0" />
    <path
       style="fill:#000000;fill-opacity:1;fill-rule:nonzero;stroke:none"
       id="path7990"
       d="m 518.80297,245.0045 c 0.742,1.16447 1.65488,2.388 2.97846,2.83176 1.00368,0.31875 1.72918,-0.23451 2.15806,-1.14946 0.72347,-1.55946 0.68279,-3.0392 0.34097,-4.66893 -0.37673,-1.22524 -0.82319,-2.1504 -1.98398,-2.65483 -1.13548,-0.0728 -2.16941,0.44285 -3.00431,1.20506 -0.88141,0.82923 -1.62964,1.75711 -1.97569,2.94591 0.01,0.32862 -0.48675,1.416 -0.12746,1.57367 -0.23788,-0.39081 -0.0644,-0.2031 -0.60424,-0.46488 1.7818,-0.003 1.77373,2.60793 -0.008,2.61039 l 0,0 c -1.20539,-0.28028 -0.70764,0.004 -1.53516,-0.76972 -0.65473,-1.21456 -0.47157,-2.44799 -0.12038,-3.74868 0.54285,-1.6506 1.49452,-3.00982 2.77119,-4.15595 1.64633,-1.3573 3.57807,-2.16982 5.6866,-1.55813 1.83857,0.9495 2.82034,2.41335 3.36592,4.46093 0.46456,2.28662 0.40165,4.43471 -0.65081,6.56868 -1.3017,2.04452 -2.88033,2.97493 -5.25349,2.23195 -1.76684,-0.79535 -3.14551,-2.11078 -4.14912,-3.82324 -0.97242,-1.54213 1.13909,-2.97665 2.11152,-1.43453 z"
       inkscape:connector-curvature="0" />
    <path
       style="fill:#000000;fill-opacity:1;fill-rule:nonzero;stroke:none"
       id="path7992"
       d="m 515.82136,226.26154 c 0.0989,1.27253 0.28336,2.52488 1.23081,3.39326 0.49603,0.26 0.76657,0.50303 1.10989,0.0196 0.9793,-0.97367 1.40655,-2.36329 1.91387,-3.63356 0.49708,-1.47333 1.30139,-2.73517 2.53666,-3.6303 1.94244,-0.71858 3.32323,0.53429 4.3929,2.07211 0.97782,1.74495 1.13691,3.65756 0.82443,5.61546 -0.31782,1.1631 -0.87772,2.23099 -1.5933,3.18149 -0.78059,0.95672 -0.51306,0.31065 -2.46058,-0.65595 -0.15385,-1.8382 2.35661,-2.07537 2.51045,-0.23718 l 0,0 c -1.66415,-0.53339 -2.46576,-0.23937 -2.02679,-0.71622 0.46521,-0.6017 0.82279,-1.28706 1.08732,-2.00593 0.22558,-1.26964 0.17116,-2.51782 -0.41395,-3.68699 -0.21185,-0.33895 -0.44991,-0.75436 -0.77691,-0.99463 -0.0926,-0.068 -0.2303,-0.071 -0.30279,-0.16134 -0.05,-0.0624 0.23587,-0.10612 0.11211,-0.21494 -0.86527,0.40076 -1.20687,1.61333 -1.56251,2.42496 -0.684,1.70524 -1.31111,3.49691 -2.72173,4.71852 -1.64813,1.1442 -2.8119,0.96414 -4.36848,-0.19831 -1.32116,-1.34725 -1.87784,-3.02379 -1.98961,-4.93697 -0.23306,-1.82886 2.26515,-2.18203 2.49822,-0.35318 z"
       inkscape:connector-curvature="0" />
    <path
       style="fill:#000000;fill-opacity:1;fill-rule:nonzero;stroke:none"
       id="path7994"
       d="m 508.38056,211.13176 c 2.62753,0.57419 5.28779,0.92652 7.95678,1.22458 2.87333,0.22727 5.74833,0.66257 8.6353,0.61226 1.5538,-0.15656 3.29728,-0.30186 4.7448,-0.97823 1.11176,-0.64847 0.58178,-1.17242 0.8774,1.43751 -1.64204,-0.70892 -0.66371,-3.11912 0.97833,-2.4102 l 0,0 c 0.86038,2.57286 1.12159,2.2218 -0.91895,3.39157 -1.79213,0.70971 -3.75382,1.06448 -5.65975,1.16951 -2.98934,0.0314 -5.9643,-0.36987 -8.93868,-0.62716 -2.62923,-0.29416 -5.25978,-0.61226 -7.84197,-1.21449 -1.7779,-0.11378 -1.61116,-2.71921 0.16674,-2.60543 z"
       inkscape:connector-curvature="0" />
    <path
       style="fill:#000000;fill-opacity:1;fill-rule:nonzero;stroke:none"
       id="path7996"
       d="m 517.82694,219.0486 c -0.57661,-2.02088 -0.99042,-4.0944 -1.32546,-6.1736 -0.26972,-1.65109 -0.3888,-3.32181 -0.39938,-4.99591 0.008,-0.60094 0.034,-1.20187 0.0836,-1.80088 6.1e-4,-0.81164 0.99137,-1.38025 1.74176,-1.32875 1.77724,0.12376 1.59715,2.72811 -0.1801,2.60454 l 0,0 c -0.80813,-0.0577 1.05351,-1.57714 0.94884,-1.06283 -0.0436,0.51893 -0.0652,1.03962 -0.0743,1.56019 0.008,1.53622 0.11765,3.0692 0.36538,4.58427 0.33041,2.06892 0.75737,4.12348 1.31935,6.13717 0.31682,1.81491 -2.16289,2.29071 -2.47971,0.4758 z"
       inkscape:connector-curvature="0" />
    <path
       style="fill:#000000;fill-opacity:1;fill-rule:nonzero;stroke:none"
       id="path7998"
       d="m 643.78767,505.63071 c -0.97129,0.14936 -2.08505,0.33187 -2.73143,1.10399 -1.02957,1.28946 -1.47983,2.91573 -1.81855,4.4776 -0.32098,1.63712 -0.60542,3.29237 0.53727,4.67756 1.01775,0.7644 2.51859,1.09374 3.73718,0.63821 1.66083,-0.84343 3.0068,-2.13083 4.33192,-3.37951 0.58338,-0.52936 1.16577,-1.12271 0.99648,-1.92897 -0.18976,-1.53907 -1.03088,-2.92901 -1.81323,-4.26365 -0.58245,-1.01886 -1.46963,-1.68528 -2.63993,-1.9727 -0.61687,-0.17848 -1.10819,-0.16498 -1.64834,0.14691 0.14722,-0.12425 0.29444,-0.2485 0.44166,-0.37276 -0.87058,1.49779 -3.10245,0.3293 -2.23186,-1.16849 l 0,0 c 0.18698,-0.19266 0.37396,-0.38531 0.56094,-0.57797 1.13851,-0.573 2.33778,-0.70745 3.58676,-0.35129 1.79899,0.52436 3.24309,1.52336 4.15921,3.12192 0.97007,1.66094 1.95406,3.39289 2.13052,5.31703 0.005,1.53785 -0.51481,2.72588 -1.74678,3.7671 -1.62579,1.53038 -3.29076,3.10206 -5.41873,3.98615 -0.44088,0.10238 -0.87161,0.25889 -1.32265,0.30706 -1.89182,0.20201 -3.91726,-0.62484 -5.20951,-1.87932 -1.50257,-2.15238 -1.4752,-4.08583 -0.94553,-6.56397 0.45057,-2.0065 1.07247,-4.05917 2.48228,-5.66398 1.26564,-1.15347 2.80787,-1.72307 4.56232,-1.84005 1.80238,0 1.80238,2.41913 0,2.41913 z"
       inkscape:connector-curvature="0" />
    <path
       style="fill:#000000;fill-opacity:1;fill-rule:nonzero;stroke:none"
       id="path8000"
       d="m 654.97996,503.70724 c 0.47583,1.8773 0.5911,3.80711 0.68901,5.72827 0.0155,1.85981 -0.0243,3.64406 0.65344,5.40069 0.53956,1.0463 1.60292,0.93268 2.66378,0.74709 1.67433,-0.50784 3.01798,-1.57506 3.98769,-2.94278 0.85554,-1.57317 1.25644,-3.41249 1.158,-5.1802 -0.099,-0.829 -0.2482,-1.66042 -0.53457,-2.45156 0.18733,0.30967 -0.0454,-0.10126 -0.0343,-0.0759 0.40131,0.92202 2.37166,-1.10238 2.37619,-0.0963 0.0123,1.19883 -0.0449,2.39795 0.10881,3.58921 0.19058,1.62504 0.82289,3.14825 1.54822,4.61702 0.0527,0.41279 1.27183,1.7296 0.19478,0.73904 0.62347,0.32612 1.05875,0.86074 1.53277,1.34962 0.20784,0.2143 0.11001,0.11345 0.29348,0.30257 1.22087,1.25837 -0.65425,2.897 -1.87511,1.63862 l 0,0 c -0.18381,-0.18946 -0.0858,-0.0885 -0.29404,-0.30311 -0.0863,-0.089 -1.03769,-0.95303 -0.6111,-0.74441 -0.79102,-0.56714 -1.1747,-1.07118 -1.54984,-1.95779 -0.83932,-1.70768 -1.55145,-3.48311 -1.77198,-5.36997 -0.14617,-1.30956 -0.13136,-2.62104 -0.12364,-3.93738 0.0568,-1.17783 2.42607,-1.80781 2.62068,-0.52524 0.35753,1.01575 0.56506,2.07489 0.667,3.14054 0.0567,2.30461 -0.39533,4.64376 -1.62142,6.65827 -1.43647,1.87827 -3.27674,3.35948 -5.6981,3.94279 -2.29585,0.27773 -4.42167,-0.11159 -5.43434,-2.31748 -0.75164,-1.99324 -0.81973,-4.00195 -0.80239,-6.10694 -0.0891,-1.76261 -0.18537,-3.53414 -0.61585,-5.25794 -0.43714,-1.6595 2.03569,-2.24623 2.47283,-0.58671 z"
       inkscape:connector-curvature="0" />
    <path
       style="fill:#000000;fill-opacity:1;fill-rule:nonzero;stroke:none"
       id="path8002"
       d="m 675.30784,494.61348 c 0.10077,3.21229 0.34435,6.43537 0.70999,9.63199 0.28666,2.63727 0.58146,5.25658 1.2411,7.83502 0.15423,0.52562 0.27958,1.06303 0.48557,1.57367 -0.006,-0.0156 -0.0138,-0.0312 -0.0207,-0.0469 0.79401,1.53564 -1.49425,2.60135 -2.28827,1.06572 l 0,0 c -0.0177,-0.0366 -0.0354,-0.0732 -0.0531,-0.10979 -0.25851,-0.61922 -0.41545,-1.27234 -0.60068,-1.91301 -0.68325,-2.68095 -1.00497,-5.40301 -1.29808,-8.14508 -0.37154,-3.28331 -0.62675,-6.59224 -0.72471,-9.89166 0,-1.71058 2.54894,-1.71058 2.54894,0 z"
       inkscape:connector-curvature="0" />
    <path
       style="fill:#000000;fill-opacity:1;fill-rule:nonzero;stroke:none"
       id="path8004"
       d="m 671.32101,505.56549 c 2.26377,-0.98282 4.65309,-1.65647 7.05038,-2.27352 1.48811,-0.34504 2.98918,-0.64731 4.50557,-0.85686 1.09108,-0.22041 -0.42024,0.39027 -0.0703,0.0518 1.31613,-1.16869 3.05759,0.5978 1.74147,1.76649 l 0,0 c -0.36068,0.31154 -0.81,0.55599 -1.30519,0.57581 -1.41527,0.19405 -2.81549,0.47928 -4.2049,0.79771 -2.2347,0.57416 -4.46244,1.19678 -6.57709,2.10232 -1.61208,0.765 -2.75201,-1.39872 -1.13991,-2.16373 z"
       inkscape:connector-curvature="0" />
    <path
       style="fill:#000000;fill-opacity:1;fill-rule:nonzero;stroke:none"
       id="path8006"
       d="m 687.76265,504.11595 c 1.26474,-1.48037 3.02706,-2.32347 4.89829,-2.90315 1.95788,-0.5917 3.55335,0.12224 4.74565,1.60124 1.00305,1.46421 0.67499,2.99152 -0.17276,4.42642 -0.69184,1.25711 -1.81146,2.16373 -3.00132,2.97771 -1.51774,0.92125 -3.23527,0.81776 -4.90471,0.40179 -1.29241,-0.37586 -2.34516,-1.03864 -3.13964,-2.07344 -0.46074,-0.76761 -0.6475,-1.61065 -0.69649,-2.48163 -0.0127,-0.29359 -0.01,-0.58739 0.006,-0.88069 5e-4,-0.02 0.0209,-0.19878 0.0264,-0.19782 2.8905,0.48776 2.52963,-0.0578 2.53078,1.76287 0.3556,2.6198 0.56367,5.25074 0.69191,7.88846 0.11971,2.9858 0.14464,5.97393 0.15809,8.96155 0.003,0.6547 0.003,1.3094 0.002,1.9641 -3.2e-4,0.16484 0.0627,0.64752 -0.002,0.49451 -0.0925,-0.21899 -0.13679,-0.45365 -0.20519,-0.68048 -1.066,-1.14506 -1.76201,0.54643 -1.62434,-0.33024 0.36912,-1.67432 2.86402,-1.17888 2.4949,0.49544 l 0,0 c -0.31587,1.29134 -1.36392,2.52392 -2.80767,1.40713 -0.5932,-1.31888 -0.40602,-1.88184 -0.40661,-3.34013 -0.0133,-2.954 -0.0377,-5.9085 -0.15543,-8.86072 -0.12923,-2.67493 -0.36289,-5.33896 -0.69459,-7.99816 -0.002,-3.18245 -0.11899,1.4794 2.53506,-1.40696 -0.009,0.20014 -0.0128,0.40051 -0.005,0.60084 0.0194,0.41504 0.0883,0.81554 0.23525,1.20972 0.4118,0.59981 1.03857,0.91305 1.75084,1.13839 0.89409,0.27548 1.8861,0.39614 2.73454,-0.0478 0.91772,-0.60254 1.76266,-1.28163 2.28435,-2.23992 0.39892,-0.56759 0.68433,-1.16619 0.28288,-1.79436 -0.42767,-0.73732 -1.03149,-0.95764 -1.88813,-0.69357 -1.37195,0.4045 -2.68563,0.99204 -3.63536,2.05041 -1.08143,1.36846 -3.12057,-0.083 -2.03915,-1.45148 z"
       inkscape:connector-curvature="0" />
    <path
       style="fill:#000000;fill-opacity:1;fill-rule:nonzero;stroke:none"
       id="path8008"
       d="m 702.57334,502.24708 c 0.41766,2.11424 0.55853,4.26532 0.67547,6.40985 0.0688,0.65991 -0.0766,1.49682 0.34653,2.09195 0.0989,0.13914 0.47979,0.4585 0.41336,0.0751 1.42848,-1.02793 2.51068,-2.41201 3.52853,-3.79433 0.87907,-1.31159 1.46159,-2.76596 1.70484,-4.30001 0.0998,-0.66947 0.0904,-1.34552 0.0785,-2.01949 -0.006,-0.33868 -0.0146,-0.67731 -0.0237,-1.01593 -4.1e-4,-0.0139 -6.1e-4,-0.0277 -9.2e-4,-0.0418 0.84915,0.0766 1.72045,0.0316 2.54744,0.22981 0.0844,0.0202 -6.1e-4,2.24656 -6.1e-4,2.3578 0.0464,1.77268 0.21417,3.59778 0.68054,5.32115 0.19145,0.70446 0.47136,1.69095 0.77481,2.20405 0.10185,-0.0508 -0.19892,-0.0678 -0.23475,-0.0705 -0.0553,0.003 -0.11061,0.008 -0.16592,0.0112 1.77985,-0.2695 2.18144,2.1194 0.40159,2.38891 l 0,0 c -0.0728,0.007 -0.14574,0.0127 -0.21861,0.0191 -0.58813,-0.0248 -1.10549,-0.24113 -1.55288,-0.60834 -0.91737,-0.93016 -1.12463,-2.16799 -1.47884,-3.36433 -0.48555,-1.92246 -0.72576,-3.92689 -0.75487,-5.9011 0,-0.75927 -0.03,-2.3584 6.1e-4,-2.36658 0.82439,-0.21812 1.69961,-0.19223 2.54942,-0.28834 4.4e-4,0.015 6.1e-4,0.03 9.2e-4,0.0451 0.009,0.34655 0.0178,0.69314 0.0243,1.03975 0.0141,0.81301 0.0165,1.62824 -0.10908,2.43501 -0.3238,1.89691 -1.02512,3.69904 -2.13706,5.31502 -1.47869,1.98925 -3.10043,4.30399 -5.76556,4.81877 -0.42211,-0.0823 -0.87006,-0.0863 -1.26635,-0.24692 -1.67887,-0.68061 -1.85541,-2.75156 -1.88787,-4.21018 -0.11016,-2.02718 -0.23896,-4.06098 -0.62938,-6.06024 -0.35347,-1.67735 2.14597,-2.15178 2.49944,-0.47442 z"
       inkscape:connector-curvature="0" />
    <path
       style="fill:#000000;fill-opacity:1;fill-rule:nonzero;stroke:none"
       id="path8010"
       d="m 721.18863,490.5816 c 0,3.53758 0,7.07515 0,10.61272 0.077,2.70449 -0.20131,5.42419 0.22791,8.10754 0.12638,0.63992 0.25354,1.28504 0.48398,1.89987 -9.2e-4,-0.005 -0.002,-0.008 -0.003,-0.0119 -0.015,-0.0287 -0.0299,-0.0575 -0.0449,-0.0862 0.91002,1.47654 -1.29016,2.69795 -2.20017,1.22141 l 0,0 c -0.10088,-0.18081 -0.0564,-0.0919 -0.13528,-0.26572 -0.3027,-0.77392 -0.46245,-1.59106 -0.62154,-2.39989 -0.43584,-2.80502 -0.20329,-5.63847 -0.25593,-8.46517 0,-3.53757 0,-7.07514 0,-10.61272 0,-1.71058 2.54893,-1.71058 2.54893,0 z"
       inkscape:connector-curvature="0" />
    <path
       style="fill:#000000;fill-opacity:1;fill-rule:nonzero;stroke:none"
       id="path8012"
       d="m 715.0745,500.7195 c 2.51036,-0.41505 5.05884,-0.53604 7.60018,-0.64154 1.48212,-0.0558 2.96526,-0.0879 4.44851,-0.0972 0.2075,-0.002 0.41487,-0.002 0.62203,0.009 1.79849,0.11215 1.63134,2.52609 -0.16715,2.41391 l 0,0 c -0.0542,-0.002 -0.30906,-0.009 -0.43814,-0.003 -1.45176,0.009 -2.90342,0.0405 -4.35408,0.095 -2.41095,0.0997 -4.82864,0.21101 -7.21145,0.59686 -1.76737,0.33548 -2.26726,-2.03667 -0.4999,-2.37214 z"
       inkscape:connector-curvature="0" />
    <path
       style="fill:#000000;fill-opacity:1;fill-rule:nonzero;stroke:none"
       id="path8014"
       d="m 741.58008,503.29068 c 0,2.16372 0,4.32743 0,6.49116 0.10507,0.68021 0.11527,1.41049 0.35376,2.06899 0.0244,0.0672 0.11248,0.24385 0.12932,0.17454 0.0564,-0.23198 -0.28006,-0.39681 -0.40414,-0.48696 -0.009,-0.0517 -0.0602,-0.11344 -0.027,-0.15541 0.13225,-0.16712 0.34206,-0.26654 0.48601,-0.4247 0.83706,-0.91971 1.42712,-2.06692 1.94722,-3.16455 0.36379,-0.86689 0.72203,-1.74466 0.9396,-2.65712 3.29175,0.37046 2.12198,-0.19224 2.92431,1.538 0.7204,1.31472 1.73052,2.38058 3.09195,3.09999 1.61492,0.70686 2.77396,0.28003 4.08349,-0.70615 1.3358,-1.2771 1.56255,-3.11532 1.56867,-4.83496 0.0361,-1.95354 -0.68646,-3.66414 -1.82021,-5.25012 -0.23075,-0.29279 -0.47572,-0.57778 -0.74973,-0.8348 0.72153,0.37223 0.10562,0.10721 1.90501,-0.66223 -0.10571,1.70762 -2.65025,1.56575 -2.54454,-0.14189 l 0,0 c 1.84744,-1.39633 1.10371,-1.67117 2.00912,-1.23612 0.60973,0.39785 1.06144,0.96605 1.49597,1.52604 1.40659,2.00287 2.29319,4.18839 2.25305,6.63439 -0.0604,2.49054 -0.53173,4.97078 -2.56944,6.72167 -2.29731,1.62449 -4.22847,2.04968 -6.91141,0.87614 -1.81702,-1.02933 -3.23564,-2.43618 -4.16385,-4.25939 -0.95758,-2.24765 -1.2267,-2.24091 1.94341,-2.0813 0.055,0.003 -0.0213,0.1025 -0.0319,0.15368 -0.2624,1.06894 -0.66421,2.10293 -1.10361,3.11641 -1.01064,2.08634 -2.20113,4.29598 -4.58502,5.15783 -0.40917,-0.0559 -0.85038,-0.007 -1.22752,-0.16765 -1.48867,-0.63414 -1.34921,-2.77615 -1.5415,-4.00433 0,-2.16373 0,-4.32744 0,-6.49116 0,-1.71058 2.54893,-1.71058 2.54893,0 z"
       inkscape:connector-curvature="0" />
    <path
       style="fill:#000000;fill-opacity:1;fill-rule:nonzero;stroke:none"
       id="path8016"
       d="m 761.64415,499.92575 c 0.86989,-0.2064 1.73978,-0.4128 2.60967,-0.6192 0.13499,-0.032 0.26996,-0.0641 0.40493,-0.0961 0.70182,4.69854 0.29843,1.29231 -0.68933,2.82824 -1.1168,1.37897 -1.91285,3.03389 -2.18812,4.75456 0.0166,1.59132 0.72126,2.40677 2.17853,3.05316 1.55776,0.28906 3.13347,-0.15381 4.37404,-1.05649 1.30683,-0.97858 1.71811,-2.31764 1.96653,-3.80908 0.13687,-1.62309 -0.78014,-2.67297 -1.89068,-3.7528 -0.85185,-0.82443 -1.80686,-0.77885 -2.93529,-0.69624 -0.0971,0.0736 -0.18451,0.16266 -0.24809,0.26397 -0.87093,1.49761 -3.10252,0.32866 -2.2316,-1.16896 l 0,0 c 0.51157,-0.81694 1.31049,-1.31779 2.29753,-1.50795 1.85846,-0.11916 3.5743,0.0897 4.94311,1.42099 1.7633,1.72038 2.79643,3.32865 2.58033,5.83265 -0.37846,2.12764 -1.1255,4.01714 -2.99254,5.38065 -2.08147,1.36851 -4.52947,2.01093 -7.01477,1.25149 -2.48432,-1.25076 -3.65237,-2.88321 -3.53997,-5.61689 0.42516,-2.208 1.36762,-4.33582 2.90417,-6.0649 0.27621,-0.23012 0.52431,-0.49476 0.82861,-0.69037 0.18226,-0.11715 1.648,-0.61137 1.70464,-0.45208 0.27378,0.76999 0.38175,1.58439 0.57262,2.37658 -5e-4,1.3e-4 -9.2e-4,2.4e-4 -9.2e-4,3.6e-4 -0.13498,0.032 -0.26996,0.0641 -0.40493,0.0961 -0.8699,0.20641 -1.7398,0.4128 -2.60969,0.61919 -1.74855,0.41488 -2.36677,-1.93202 -0.6182,-2.34688 z"
       inkscape:connector-curvature="0" />
    <path
       style="fill:#000000;fill-opacity:1;fill-rule:nonzero;stroke:none"
       id="path8018"
       d="m 777.26513,502.4843 c -0.095,2.15204 0.26877,4.2826 0.50483,6.41669 0.14642,1.30585 0.2551,2.61549 0.3316,3.92667 0.44502,1.31457 -2.76343,0.96895 -2.22516,-0.56891 0.39343,-1.31849 0.42574,-2.69985 0.48542,-4.05975 0.10345,-1.75529 -0.0482,-3.51947 0.17203,-5.26575 0.16198,-1.51259 1.02966,-2.60731 2.23085,-3.52983 1.21107,-0.92509 2.60051,-0.86799 4.04443,-0.6232 0.92933,0.2578 1.75499,0.73433 2.44957,1.3676 0.0417,0.0427 0.0833,0.0852 0.12487,0.12788 1.2074,1.27003 -0.68509,2.89058 -1.89248,1.62055 l 0,0 c -0.005,-0.007 -0.0102,-0.0131 -0.0154,-0.0198 -0.32964,-0.29555 -0.70375,-0.53818 -1.11904,-0.71561 -0.74235,-0.12858 -1.38021,-0.33896 -2.02662,0.15174 -0.72885,0.49481 -1.17457,1.05619 -1.26874,1.93436 -0.25929,1.66543 0.002,3.37648 -0.15275,5.0533 -0.0704,1.58485 -0.12668,3.19157 -0.6133,4.72147 -0.46578,1.32919 -2.92181,1.15622 -2.73869,-0.0606 -0.0739,-1.27147 -0.17959,-2.54142 -0.32157,-3.80772 -0.24513,-2.21768 -0.61519,-4.4328 -0.51875,-6.66918 0,-1.71058 2.54893,-1.71058 2.54893,0 z"
       inkscape:connector-curvature="0" />
    <path
       style="fill:#000000;fill-opacity:1;fill-rule:nonzero;stroke:none"
       id="path8020"
       d="m 790.93632,490.15147 c 0.51888,3.11959 0.58215,6.29035 0.67665,9.44162 0.26368,3.22204 0.43315,6.45428 1.02039,9.64055 0.28857,0.9934 0.23445,2.12462 0.89232,2.98491 0.44873,0.43339 -0.12899,0.12184 -1.80411,0.57701 0.48852,-1.64655 2.94204,-0.99087 2.45352,0.65568 l 0,0 c -1.86514,0.81103 -1.81569,1.27909 -2.76258,0.12005 -0.81582,-1.18557 -1.02616,-2.54878 -1.29018,-3.92201 -0.60505,-3.30148 -0.79344,-6.64871 -1.05726,-9.98747 -0.0902,-3.01539 -0.14899,-6.04877 -0.62819,-9.03591 -0.35346,-1.67737 2.14596,-2.15179 2.49944,-0.47443 z"
       inkscape:connector-curvature="0" />
    <path
       style="fill:#000000;fill-opacity:1;fill-rule:nonzero;stroke:none"
       id="path8022"
       d="m 797.82806,499.92118 c -1.29518,1.31971 -2.79006,2.4354 -4.27144,3.55748 -0.49571,0.36889 -0.98728,0.74324 -1.49336,1.09938 0.0214,-0.0364 -0.1104,0.0962 -0.0941,0.0632 0.77178,-1.55906 0.61407,-1.232 0.6173,-0.44058 -0.002,0.042 0.0164,0.16305 -0.005,0.12603 -0.1873,-0.3304 -0.30579,-0.69405 -0.502,-1.01977 -0.032,-0.0531 -0.11577,-0.055 -0.16743,-0.0915 -0.15354,-0.10855 0.23289,-0.0214 1.0039,0.12379 1.67561,0.42068 3.27276,1.09889 4.87073,1.73099 2.07792,0.96232 4.09498,2.06574 6.01527,3.28766 0.70764,0.49442 1.41382,1.00653 2.0033,1.62919 0.13076,0.1544 0.0669,0.0727 0.19051,0.24562 0.95116,1.453 -1.21394,2.72963 -2.16509,1.27665 l 0,0 c 0.0186,0.0242 0.0371,0.0486 0.0558,0.0729 0.003,0.002 0.006,0.004 0.009,0.008 -0.45221,-0.46507 -0.98667,-0.85085 -1.52057,-1.22704 -1.77056,-1.14536 -3.65825,-2.14528 -5.57066,-3.05998 -1.4628,-0.5808 -2.92671,-1.20265 -4.45491,-1.60466 -1.26236,-0.36975 -1.73129,0.10395 -2.31243,-1.50679 0.007,-0.53072 0.29784,-1.43733 0.50847,-1.55692 0.47986,-0.34097 0.95035,-0.69364 1.42066,-1.04635 1.40736,-1.06578 2.83138,-2.12075 4.05898,-3.37721 1.27446,-1.20956 3.07682,0.50101 1.80236,1.71058 z"
       inkscape:connector-curvature="0" />
  </g>
</svg>
