<?xml version="1.0" encoding="UTF-8" standalone="no"?>
<!-- Created with Inkscape (http://www.inkscape.org/) -->

<svg
   xmlns:dc="http://purl.org/dc/elements/1.1/"
   xmlns:cc="http://creativecommons.org/ns#"
   xmlns:rdf="http://www.w3.org/1999/02/22-rdf-syntax-ns#"
   xmlns:svg="http://www.w3.org/2000/svg"
   xmlns="http://www.w3.org/2000/svg"
   xmlns:sodipodi="http://sodipodi.sourceforge.net/DTD/sodipodi-0.dtd"
   xmlns:inkscape="http://www.inkscape.org/namespaces/inkscape"
   width="726.71204"
   height="155.28249"
   id="svg6992"
   version="1.1"
   inkscape:version="0.48.0 r9654"
   sodipodi:docname="Moguls.svg">
  <defs
     id="defs6994">
    <inkscape:path-effect
       effect="spiro"
       id="path-effect7691"
       is_visible="true" />
    <inkscape:path-effect
       effect="spiro"
       id="path-effect7641"
       is_visible="true" />
    <inkscape:path-effect
       is_visible="true"
       id="path-effect7639"
       effect="spiro" />
    <inkscape:path-effect
       is_visible="true"
       id="path-effect7637"
       effect="spiro" />
    <inkscape:path-effect
       effect="spiro"
       id="path-effect7635"
       is_visible="true" />
    <inkscape:path-effect
       effect="spiro"
       id="path-effect7633"
       is_visible="true" />
    <inkscape:path-effect
       is_visible="true"
       id="path-effect7631"
       effect="spiro" />
    <inkscape:path-effect
       is_visible="true"
       id="path-effect7537"
       effect="spiro" />
    <inkscape:path-effect
       effect="spiro"
       id="path-effect7535"
       is_visible="true" />
    <inkscape:path-effect
       effect="spiro"
       id="path-effect7529"
       is_visible="true" />
    <inkscape:path-effect
       is_visible="true"
       id="path-effect7527"
       effect="spiro" />
    <inkscape:path-effect
       is_visible="true"
       id="path-effect7521"
       effect="spiro" />
    <inkscape:path-effect
       effect="spiro"
       id="path-effect7517"
       is_visible="true" />
  </defs>
  <sodipodi:namedview
     inkscape:document-units="mm"
     pagecolor="#ffffff"
     bordercolor="#666666"
     borderopacity="1.0"
     inkscape:pageopacity="0.0"
     inkscape:pageshadow="2"
     inkscape:zoom="0.7176508"
     inkscape:cx="345.45724"
     inkscape:cy="-31.065298"
     inkscape:current-layer="layer1"
     id="namedview6996"
     showgrid="false"
     inkscape:window-width="1280"
     inkscape:window-height="752"
     inkscape:window-x="0"
     inkscape:window-y="0"
     inkscape:window-maximized="0"
     fit-margin-top="0"
     fit-margin-left="0"
     fit-margin-right="0"
     fit-margin-bottom="0" />
  <metadata
     id="metadata6998">
    <rdf:RDF>
      <cc:Work
         rdf:about="">
        <dc:format>image/svg+xml</dc:format>
        <dc:type
           rdf:resource="http://purl.org/dc/dcmitype/StillImage" />
        <dc:title></dc:title>
      </cc:Work>
    </rdf:RDF>
  </metadata>
  <g
     inkscape:label="Layer 1"
     inkscape:groupmode="layer"
     id="layer1"
     transform="translate(-180.72385,-185.69946)">
    <path
       style="fill:#a0a0a0;stroke:none"
       d="m 349.7823,339.55382 c -19.40647,-3.81121 -35.80125,-17.38359 -46.84826,-38.78323 -8.46675,-16.40128 -17.63649,-25.90329 -31.59283,-32.7376 -26.12486,-12.79315 -55.23846,-8.26531 -77.23687,12.01212 l -6.1115,5.63338 0,-9.1826 c 0,-8.75317 0.28072,-9.52716 6.00254,-16.55033 20.81523,-25.54939 56.65838,-30.9452 84.1861,-12.67334 9.47782,6.29102 15.27787,13.48144 22.82558,28.29728 18.83154,36.96551 58.35384,50.56779 94.37246,32.47991 11.9891,-6.0207 22.25351,-17.07023 30.1491,-32.45517 10.52118,-20.50101 22.48612,-30.87231 42.44928,-36.79537 9.52317,-2.82552 20.83019,-2.86238 31.42629,-0.10245 18.49766,4.81803 32.27026,16.92366 43.09181,37.87614 10.29344,19.93002 26.68825,33.57617 45.56855,37.92878 9.23824,2.12975 26.27766,1.75356 34.77558,-0.76777 20.35933,-6.0406 32.77439,-17.02764 44.40813,-39.30018 8.38732,-16.05737 16.91294,-24.99622 29.91092,-31.36071 32.70356,-16.01336 67.85628,-2.48192 86.25828,33.20364 7.86986,15.26139 18.4803,26.50561 30.67666,32.50901 11.01253,5.42068 18.54874,7.11736 31.80179,7.15974 17.73648,0.0567 32.88099,-6.03645 47.25957,-19.01416 l 5.91299,-5.3369 -1.00815,10.45077 c -0.90079,9.33773 -1.56431,11.11101 -6.23022,16.65016 -15.60746,18.52848 -42.58156,26.67973 -65.37649,19.75598 -18.70993,-5.68297 -32.18034,-17.85116 -41.73197,-37.69766 -3.6177,-7.51689 -7.71297,-13.1583 -14.23553,-19.61001 -13.92108,-13.76991 -27.79191,-19.46064 -47.50954,-19.49156 -27.72882,-0.0435 -47.75645,13.25937 -62.52279,41.5292 -8.38732,16.05737 -16.91294,24.99622 -29.91092,31.36071 -19.03664,9.32133 -41.37362,8.48197 -59.67329,-2.24235 -9.38278,-5.49868 -19.74592,-17.50295 -26.21158,-30.36247 -9.87898,-19.64832 -27.57708,-34.55702 -46.08883,-38.82474 -3.36088,-0.77482 -10.85648,-1.42409 -16.6569,-1.44283 -27.18968,-0.0878 -48.13224,13.5778 -61.87554,40.37557 -10.66037,20.7864 -24.31797,32.21719 -44.05081,36.8685 -9.78998,2.30764 -16.83759,2.47992 -26.20361,0.64054 l 0,0 z"
       id="path7663"
       inkscape:connector-curvature="0" />
    <path
       style="fill:none;stroke:#000000;stroke-width:3.14645672;stroke-linecap:round;stroke-linejoin:miter;stroke-miterlimit:4;stroke-opacity:1;stroke-dasharray:none"
       d="m 182.29708,277.37455 c 4.94703,-12.01033 13.56932,-22.47765 24.40992,-29.63323 10.84061,-7.15558 23.85449,-10.96971 36.84262,-10.79788 12.56067,0.16617 25.04927,4.05312 35.48565,11.04455 10.43638,6.99143 18.78258,17.06191 23.71525,28.61469"
       id="path7515"
       inkscape:path-effect="#path-effect7517"
       inkscape:original-d="m 182.29708,277.37455 c 0,0 13.23535,-39.34517 61.25254,-40.43111 50.46892,-1.1414 59.2009,39.65924 59.2009,39.65924"
       inkscape:connector-curvature="0"
       sodipodi:nodetypes="csc" />
    <path
       sodipodi:nodetypes="csc"
       inkscape:connector-curvature="0"
       inkscape:original-d="m 424.0346,276.48523 c 0,0 -13.09357,39.40274 -61.10648,40.69865 -50.46441,1.36209 -60.24681,-40.35576 -60.24681,-40.35576"
       inkscape:path-effect="#path-effect7521"
       id="path7519"
       d="m 424.0346,276.48523 c -4.93905,12.00825 -13.52938,22.48626 -24.33616,29.68388 -10.80678,7.19762 -23.7862,11.08569 -36.77032,11.01477 -12.80267,-0.0699 -25.55979,-3.98584 -36.1968,-11.11095 -10.63702,-7.1251 -19.11315,-17.43208 -24.05001,-29.24481"
       style="fill:none;stroke:#000000;stroke-width:3.14645672;stroke-linecap:round;stroke-linejoin:miter;stroke-miterlimit:4;stroke-opacity:1;stroke-dasharray:none" />
    <path
       sodipodi:nodetypes="csc"
       inkscape:connector-curvature="0"
       inkscape:original-d="m 423.24029,277.78227 c 0,0 13.23534,-39.34517 61.25254,-40.43112 50.46893,-1.1414 59.20089,39.65924 59.20089,39.65924"
       inkscape:path-effect="#path-effect7527"
       id="path7523"
       d="m 423.24029,277.78227 c 4.94702,-12.01033 13.56932,-22.47765 24.40992,-29.63324 10.8406,-7.15558 23.85449,-10.96971 36.84262,-10.79788 12.56067,0.16617 25.04927,4.05312 35.48565,11.04455 10.43637,6.99143 18.78257,17.06191 23.71524,28.61469"
       style="fill:none;stroke:#000000;stroke-width:3.14645672;stroke-linecap:round;stroke-linejoin:miter;stroke-miterlimit:4;stroke-opacity:1;stroke-dasharray:none" />
    <path
       style="fill:none;stroke:#000000;stroke-width:3.14645672;stroke-linecap:round;stroke-linejoin:miter;stroke-miterlimit:4;stroke-opacity:1;stroke-dasharray:none"
       d="m 664.97781,276.89294 c -4.93905,12.00825 -13.52938,22.48625 -24.33616,29.68387 -10.80678,7.19763 -23.7862,11.08569 -36.77031,11.01478 -12.80267,-0.0699 -25.5598,-3.98584 -36.19682,-11.11094 -10.63701,-7.12511 -19.11315,-17.43209 -24.05001,-29.24482"
       id="path7525"
       inkscape:path-effect="#path-effect7529"
       inkscape:original-d="m 664.97781,276.89294 c 0,0 -13.09357,39.40273 -61.10647,40.69865 -50.46442,1.36208 -60.24683,-40.35576 -60.24683,-40.35576"
       inkscape:connector-curvature="0"
       sodipodi:nodetypes="csc" />
    <path
       style="fill:none;stroke:#000000;stroke-width:3.14645672;stroke-linecap:round;stroke-linejoin:miter;stroke-miterlimit:4;stroke-opacity:1;stroke-dasharray:none"
       d="m 664.12518,277.78227 c 4.94702,-12.01033 13.56932,-22.47766 24.40992,-29.63324 10.84061,-7.15559 23.8545,-10.96971 36.84263,-10.79788 12.56066,0.16618 25.04926,4.05313 35.48562,11.04456 10.43637,6.99143 18.78256,17.0619 23.71523,28.61468"
       id="path7531"
       inkscape:path-effect="#path-effect7535"
       inkscape:original-d="m 664.12518,277.78227 c 0,0 13.23535,-39.34517 61.25255,-40.43112 50.46895,-1.1414 59.20085,39.65924 59.20085,39.65924"
       inkscape:connector-curvature="0"
       sodipodi:nodetypes="csc" />
    <path
       sodipodi:nodetypes="csc"
       inkscape:connector-curvature="0"
       inkscape:original-d="m 905.86268,276.89294 c 0,0 -13.0936,39.40273 -61.1065,40.69865 -50.4644,1.36208 -60.2468,-40.35576 -60.2468,-40.35576"
       inkscape:path-effect="#path-effect7537"
       id="path7533"
       d="m 905.86268,276.89294 c -4.93905,12.00825 -13.52939,22.48626 -24.33617,29.68388 -10.80679,7.19763 -23.78621,11.08569 -36.77033,11.01477 -12.80267,-0.0699 -25.55978,-3.98585 -36.1968,-11.11095 -10.63701,-7.12511 -19.11314,-17.43208 -24.05,-29.24481"
       style="fill:none;stroke:#000000;stroke-width:3.14645672;stroke-linecap:round;stroke-linejoin:miter;stroke-miterlimit:4;stroke-opacity:1;stroke-dasharray:none" />
    <path
       style="fill:#000000;fill-opacity:1;fill-rule:nonzero;stroke:none"
       id="path7669"
       d="m 346.10542,247.50888 c -1.0644,-0.29887 -2.3417,-0.8538 -3.399,-0.24255 -0.8266,0.2812 -1.43907,0.77826 -1.86231,1.46832 -0.43853,0.77817 -0.70955,1.62412 -1.00006,2.45432 -0.23393,0.54572 -0.16754,1.11364 0.10408,1.63574 0.41024,0.76996 1.26235,1.2155 2.07385,1.59146 0.89577,0.39593 1.84172,0.68705 2.78891,0.96344 0.73824,0.21224 1.42103,0.47913 2.19289,0.43552 0.33604,-0.0299 0.67371,-0.0691 0.99857,-0.15463 -1.61837,1.1627 -0.10821,-0.29864 0.23461,-0.68178 0.48974,-0.55448 0.76842,-1.24122 1.04616,-1.89884 0.21957,-0.5277 0.40868,-1.06493 0.59501,-1.60276 0.26942,-0.63463 0.22264,-0.5811 0.10316,-1.04078 -0.21954,-0.54905 -0.19233,-1.12687 -0.10908,-1.69543 0.34333,1.39734 -0.16599,0.50722 -0.67371,-0.0983 -0.1693,-0.25138 -0.48853,-0.34203 -0.82068,-0.46582 -0.67585,-0.22426 -1.36385,-0.41697 -2.05089,-0.61091 -0.41868,-0.11635 -0.83676,-0.23449 -1.25461,-0.35323 -0.092,-0.0261 -0.18393,-0.0523 -0.27589,-0.0785 -1.95038,-0.55465 -1.08252,-3.04893 0.86788,-2.49404 l 0,0 c 0.0914,0.026 0.18285,0.052 0.27427,0.078 0.41645,0.11833 0.8333,0.23546 1.25035,0.35201 0.77446,0.21865 1.5506,0.43509 2.30914,0.69623 0.76638,0.2948 1.51837,0.66256 2.00626,1.29859 0.55081,0.65986 1.22131,1.09315 1.23257,2.03132 -0.0671,0.4142 -0.0983,0.28557 0.0681,0.77716 0.19191,0.81632 0.19841,1.60736 -0.16757,2.3853 -0.2049,0.59055 -0.41318,1.18035 -0.65537,1.75949 -0.40186,0.93998 -0.83037,1.89725 -1.56005,2.67299 -0.36657,0.37108 -0.49317,0.50859 -0.50929,0.48369 -0.0402,-0.0621 0.1329,-0.25554 0.0766,-0.20468 -0.46841,0.42194 -0.004,1.10675 -1.15266,1.19372 -0.56093,0.14857 -1.14202,0.22492 -1.72419,0.26395 -1.12266,0.0251 -2.14223,-0.21138 -3.19002,-0.56021 -1.10482,-0.32282 -2.20609,-0.66791 -3.24691,-1.13775 -1.40327,-0.67988 -2.72719,-1.52801 -3.39165,-2.88959 -0.48944,-1.10291 -0.64478,-2.29683 -0.19634,-3.4404 0.35842,-1.02364 0.70097,-2.06433 1.27642,-3.00915 0.77067,-1.1213 1.77983,-2.02302 3.16529,-2.5125 1.84829,-0.65933 3.61154,-0.53694 5.44747,0.13749 1.94955,0.55704 1.07838,3.05014 -0.87118,2.4931 z"
       inkscape:connector-curvature="0" />
    <path
       style="fill:#000000;fill-opacity:1;fill-rule:nonzero;stroke:none"
       id="path7679"
       d="m 335.63322,253.7307 c -1.63711,0.46713 -3.33682,0.76071 -4.88351,1.45189 -1.33879,0.4501 -2.53172,1.1503 -3.79239,1.7397 -0.99267,0.59325 -1.97609,1.19644 -2.99312,1.75597 -0.72074,0.65136 -1.53311,1.22243 -2.22889,1.90088 -0.52192,0.70401 -1.21686,1.20713 -2.02563,1.6238 -0.51515,0.17002 -0.80937,0.40784 -1.12995,0.78303 -0.48841,0.32077 -0.98553,0.63097 -1.45642,0.97282 -0.0372,0.0291 -0.0767,0.0556 -0.11509,0.0834 -0.29656,-0.744 -0.74837,-1.45154 -0.88969,-2.23201 -0.0452,-0.24958 2.49646,0.63384 2.62452,0.67345 1.45476,0.44957 2.91698,0.87903 4.38029,1.3052 1.17988,0.55468 2.25965,1.23466 3.46232,1.75576 1.24552,0.46322 2.50108,0.79864 3.59957,1.52207 0.48957,0.36271 0.92915,0.77901 1.22883,1.28533 0.72794,0.63341 -1.25564,2.04358 -1.26719,1.95928 -0.11898,-0.86833 -0.19578,-1.74097 -0.29367,-2.61146 -0.0627,0.1267 0.12409,-0.0631 0.13006,-0.0235 0.43452,2.88469 0.43095,4.07209 -0.14059,0.0255 -0.0693,0.13015 0.13012,-0.0655 0.13425,-0.0244 0.29577,2.93875 0.8807,2.3174 -1.05699,3.24817 -2.04529,1.03494 -4.16968,1.94309 -6.16487,3.05605 -2.06179,1.34205 -4.28681,2.39297 -6.5951,3.33467 -1.40666,0.58127 -2.75978,1.25004 -4.19535,1.77803 -0.33773,0.12275 -0.67738,0.24059 -1.03568,0.30142 -1.10945,-2.98872 -1.7793,-2.5692 1.09777,-2.3795 1.81565,0.85 0.48629,3.17188 -1.32937,2.32188 l 0,0 c -2.40586,-1.24578 6.50177,1.40199 -0.17168,-2.53142 -0.43738,0.0793 0.32162,-0.0801 0.35126,-0.13493 1.40242,-0.5138 2.71726,-1.1776 4.09437,-1.73892 2.19835,-0.89612 4.3109,-1.89711 6.27174,-3.17983 2.05249,-1.13324 4.21796,-2.08437 6.3217,-3.13708 2.58491,-1.23883 1.96627,-1.6911 2.98252,1.62469 0.0122,0.0398 -0.24944,-0.0726 -0.13423,0.0244 -1.21091,-3.95824 -0.68574,-2.81054 0.13526,-0.0246 0.0112,0.0379 -0.24531,-0.0747 -0.12757,0.023 -0.73067,-2.68503 -0.29538,-3.55048 -1.71194,-1.06814 -0.0264,0.0463 0.0851,0.25723 0.11652,0.32113 -0.11183,-0.13175 -0.24973,-0.24368 -0.37942,-0.36128 -0.89689,-0.65459 -2.1075,-0.75819 -3.11235,-1.25396 -1.08084,-0.47066 -2.11165,-1.00456 -3.09657,-1.62378 -1.47987,-0.43096 -2.95857,-0.8654 -4.42979,-1.32007 -2.15237,-0.66595 -1.56647,-0.31855 -2.8632,-2.74606 0.11868,-0.10291 0.24196,-0.20109 0.3714,-0.29301 0.14416,-0.10428 1.88747,-1.32235 0.99747,-0.5554 0.5435,-0.61293 1.17331,-1.13901 1.98755,-1.44302 0.5836,-0.28381 0.94755,-0.61698 1.32327,-1.12685 0.87812,-0.84353 1.87373,-1.59442 2.83825,-2.34881 1.08044,-0.59379 2.11224,-1.25176 3.1866,-1.85339 1.291,-0.57631 2.48773,-1.32448 3.85417,-1.76722 1.81463,-0.76624 3.75027,-1.19729 5.67676,-1.67517 2.01922,-0.29016 2.47302,2.29203 0.4538,2.5822 z"
       inkscape:connector-curvature="0" />
    <path
       style="fill:#000000;fill-opacity:1;fill-rule:nonzero;stroke:none"
       id="path7681"
       d="m 305.68863,267.76659 c 1.08092,2.03323 2.35767,3.95992 3.77099,5.81658 1.83376,2.42833 3.79303,4.77461 5.5998,7.21966 1.36837,1.89748 2.60607,3.8681 3.79548,5.86066 0.72864,0.92424 1.35004,1.90748 2.11242,2.81033 0.40728,0.39034 0.58592,0.89962 0.90876,1.34213 0.33735,0.60599 0.40829,1.26067 0.36975,1.92583 0.0332,1.23243 -1.21243,-1.20478 -0.59932,-1.01423 0.1752,0.0513 0.354,0.0912 0.5313,0.13613 0.25373,0.0686 0.50687,0.13892 0.75975,0.20999 0.12422,0.035 0.24819,0.0707 0.37225,0.10615 0.23423,0.067 0.46844,0.13392 0.70268,0.20086 0.34378,0.0982 0.68757,0.19647 1.03135,0.2947 0.41858,0.11959 0.83717,0.2392 1.25577,0.3588 0.90234,0.15288 -1.06307,0.26117 -1.15851,0.31432 0.36215,-0.60045 0.92661,-0.93529 1.53962,-1.28508 0.68814,-0.40811 0.0207,0.0791 -0.16531,0.22571 0.0137,-0.035 0.0267,-0.0703 0.0404,-0.10532 0.67972,-1.74364 3.40669,-0.87442 2.72697,0.86922 l 0,0 c -0.0237,0.0596 -0.0468,0.1194 -0.0705,0.17903 -0.19322,0.43316 -0.52675,0.83038 -0.99148,1.04425 -0.25485,0.14449 -0.82057,0.65964 -0.38528,0.0183 0.0321,-0.0473 -0.0475,0.10244 -0.0712,0.15367 -0.42141,0.79492 -1.23004,1.45127 -2.3359,1.07904 -0.41859,-0.11961 -0.83719,-0.23921 -1.25577,-0.35881 -0.34382,-0.0982 -0.68765,-0.19647 -1.03146,-0.29472 -0.23436,-0.067 -0.46871,-0.13397 -0.70306,-0.20096 -0.11937,-0.0342 -0.23866,-0.0685 -0.3582,-0.10218 -0.23772,-0.0666 -0.47544,-0.13321 -0.71397,-0.19743 -0.23481,-0.0593 -0.47282,-0.11129 -0.70259,-0.18678 -0.74271,-0.24822 -1.2528,-2.14725 -1.30398,-1.59878 0.007,-0.12004 -0.0765,-0.57915 0.0931,-0.3457 -0.66082,-0.9263 -0.22523,-0.63757 -0.78555,-1.18402 -0.85074,-1.01249 -1.55907,-2.10679 -2.3566,-3.15266 -1.14604,-1.92067 -2.3381,-3.82047 -3.65542,-5.65024 -1.79856,-2.43634 -3.75427,-4.77121 -5.57874,-7.19156 -1.47574,-1.94689 -2.82068,-3.96176 -3.95312,-6.09096 -0.94296,-1.64043 1.62261,-2.84629 2.56555,-1.20585 z"
       inkscape:connector-curvature="0" />
    <path
       style="fill:#000000;fill-opacity:1;fill-rule:nonzero;stroke:none"
       id="path7687"
       d="m 332.87696,254.06445 c 0.23542,1.22984 0.28882,2.4821 0.32641,3.72779 0.0997,0.13021 -0.36944,2.22374 -0.18454,1.29698 0.0883,0.21756 0.18759,0.43064 0.29885,0.63932 -0.11018,-0.26398 -1.66473,-0.74398 -0.58337,-0.52409 1.14433,0.32369 2.28362,0.66213 3.42546,0.9931 1.01817,0.45361 1.9932,0.44408 3.07751,0.41285 0.44268,-0.007 0.88553,-0.002 1.3278,0.0161 2.04242,0.0846 1.91007,2.69647 -0.13234,2.61186 l 0,0 c -0.36972,-0.0156 -0.73998,-0.0191 -1.11006,-0.0145 -1.39706,0.0335 -2.73897,-0.004 -4.04553,-0.5365 -1.08752,-0.31532 -2.17421,-0.63297 -3.26103,-0.95026 -0.70352,-0.37035 -1.02704,-0.34612 -1.292,-0.85272 -0.22957,-0.42402 -0.42663,-0.86398 -0.54939,-1.32394 -0.0236,-0.59585 0.0153,-1.11542 0.13826,-1.69739 -0.0337,-1.13198 -0.0763,-2.27088 -0.29164,-3.38825 -0.32089,-1.82589 2.53472,-2.23624 2.85561,-0.41036 z"
       inkscape:connector-curvature="0" />
    <path
       style="fill:none;stroke:#000000;stroke-width:2.41653538;stroke-linecap:butt;stroke-linejoin:miter;stroke-miterlimit:4;stroke-opacity:1;stroke-dasharray:7.2496063, 2.41653543;stroke-dashoffset:0"
       d="m 335.81792,298.19517 c 6.35349,4.07728 13.48881,6.93141 20.90153,8.36061 12.85736,2.47895 26.82566,0.44088 37.62276,-6.96718 8.19936,-5.62571 14.15061,-13.91789 19.5081,-22.29496 7.57508,-11.84453 14.38003,-24.29885 23.68839,-34.83589 9.02287,-10.21387 20.191,-18.36449 32.04902,-25.08184 20.28016,-11.48834 42.6748,-18.92737 65.49145,-23.6884 31.98851,-6.67488 64.96687,-8.17712 97.54049,-5.57373 33.67544,2.69145 67.36639,9.8896 97.54047,25.08183 15.83663,7.97352 30.63727,18.13992 43.1965,30.65558 9.9042,9.86984 18.37996,21.17086 25.08183,33.44245"
       id="path7689"
       inkscape:path-effect="#path-effect7691"
       inkscape:original-d="m 335.81792,298.19517 c 0,0 8.36061,8.36061 20.90153,8.36061 12.54092,0 25.08184,-1.39344 37.62276,-6.96718 12.54092,-5.57374 13.93436,-12.54091 19.5081,-22.29496 5.57374,-9.75405 12.54091,-26.47528 23.68839,-34.83589 11.14749,-8.36061 18.11466,-20.90153 32.04902,-25.08184 13.93435,-4.1803 29.26213,-19.50809 65.49145,-23.6884 36.22932,-4.1803 68.27834,-5.57373 97.54049,-5.57373 29.26214,0 86.39299,20.90152 97.54047,25.08183 11.14748,4.18031 36.22932,20.90153 43.1965,30.65558 6.96717,9.75405 25.08183,33.44245 25.08183,33.44245"
       inkscape:connector-curvature="0"
       sodipodi:nodetypes="csssssssssc" />
    <path
       style="fill:#000000;fill-opacity:1;fill-rule:nonzero;stroke:none"
       id="path7693"
       d="m 266.4213,203.30987 c -1.83015,0.61338 -3.43834,1.45117 -4.66006,2.92157 -1.23273,1.75048 -1.46151,3.87362 -1.70589,5.92649 0.0957,1.94053 -0.0559,1.64718 1.57045,2.07152 1.79625,0.26371 3.6748,0.58817 5.49084,0.36112 1.07628,-0.17266 0.55105,-0.08 1.57609,-0.27588 2.21821,-0.42133 2.831,2.62904 0.61279,3.05038 l 0,0 c -1.18784,0.22446 -0.5678,0.11711 -1.86098,0.31713 -2.25244,0.19283 -4.54067,-0.0368 -6.75213,-0.48019 -3.02261,-0.95896 -3.92223,-2.35142 -3.81186,-5.40407 0.32174,-2.66521 0.73542,-5.3565 2.43458,-7.56709 1.58023,-1.77933 3.47967,-3.00456 5.7852,-3.75117 2.0581,-0.90826 3.37906,1.92192 1.32097,2.83019 z"
       inkscape:connector-curvature="0" />
    <path
       style="fill:#000000;fill-opacity:1;fill-rule:nonzero;stroke:none"
       id="path7695"
       d="m 276.86954,206.35479 c -0.83233,1.68873 -1.51557,3.46242 -1.25866,5.34865 0.5485,1.6332 2.39965,1.86877 3.94587,1.75366 1.97159,-0.48837 2.99886,-2.17103 3.35882,-4.0054 0.0611,-1.65841 -0.87922,-2.57552 -2.34644,-3.18289 -0.8207,-0.27918 -1.67013,-0.53745 -2.54349,-0.59423 0.0823,-0.004 -0.16443,0.009 -0.24665,0.0137 -2.25982,0.0372 -2.31396,-3.07036 -0.0541,-3.10759 l 0,0 c 0.18506,-0.009 0.37071,-0.0102 0.55591,-0.004 1.25377,0.10515 2.47752,0.42896 3.64586,0.87853 2.81061,1.34999 4.44758,3.52632 4.10291,6.69774 -0.84748,3.22264 -2.78298,5.82949 -6.35922,6.41043 -3.49392,0.0407 -6.31585,-0.97269 -7.24092,-4.56098 -0.19744,-2.53172 0.42881,-4.88695 1.63704,-7.14086 1.08602,-1.92736 3.88914,-0.43391 2.80312,1.49346 z"
       inkscape:connector-curvature="0" />
    <path
       style="fill:#000000;fill-opacity:1;fill-rule:nonzero;stroke:none"
       id="path7697"
       d="m 291.23591,204.23528 c -0.216,2.25901 -0.0823,4.48588 0.20213,6.72965 0.14599,1.19662 0.28592,2.39396 0.41372,3.59255 0.1152,1.1577 0.2263,0.66616 -2.55805,-0.8446 -0.20498,-0.11122 0.13052,-0.43853 0.19306,-0.65854 0.39373,-1.44445 0.36599,-2.94342 0.66282,-4.40354 0.33913,-1.94864 1.32308,-3.57183 2.57884,-5.08897 0.90823,-1.06113 2.13769,-1.74773 3.46445,-2.1882 2.23551,-0.54181 3.07367,0.78469 3.38079,2.73198 -0.0234,1.6628 0.3271,3.2749 0.62567,4.90274 0.1478,0.94289 0.256,1.89188 0.31885,2.84372 0.0571,1.21703 -0.24831,-2.04796 -2.25308,-0.87266 0.52872,-1.45433 1.16488,-2.88058 1.85579,-4.27167 0.90097,-1.37031 1.85595,-2.70626 2.81526,-4.03836 1.82906,-2.30947 3.37346,0.16371 3.82154,1.80931 0.6429,1.36145 0.89663,2.8435 1.36922,4.26257 0.51801,1.60984 1.13624,3.17741 1.53126,4.82402 -0.0223,0.73568 0.9722,2.94746 -0.24318,0.74588 1.87756,1.22342 0.0982,3.80535 -1.77932,2.58193 l 0,0 c -0.73853,-1.05935 -0.94456,-1.43197 -1.09123,-2.62588 -0.36972,-1.56208 -0.97795,-3.04201 -1.4594,-4.57148 -0.49387,-1.49287 -0.78515,-3.03686 -1.43249,-4.48003 -0.25014,-1.21995 -0.417,-0.16696 1.14999,-0.36564 0.55205,-0.07 1.22509,-1.05107 0.75178,-0.39786 -0.86273,1.1979 -1.70751,2.40771 -2.55836,3.61356 -0.75821,1.50743 -1.34461,3.07877 -2.05066,4.60708 -0.27761,0.2794 -0.48624,0.64495 -0.83283,0.83823 -1.1129,0.62058 -2.7005,-0.0589 -2.78413,-1.46156 -0.0541,-0.83518 -0.15041,-1.66763 -0.27567,-2.49545 -0.30584,-1.66752 -0.67221,-3.32894 -0.6465,-5.03198 -0.0914,-0.90083 0.18397,-0.27173 1.00884,-0.18633 0.0703,0.007 -0.18612,0.0303 -0.21142,-0.0137 -0.76584,0.23622 -1.48852,0.60762 -2.00834,1.21604 -0.98285,1.11795 -1.66227,2.29774 -1.91973,3.76117 -0.37974,1.5326 -0.19206,3.17292 -0.73843,4.68351 -0.27608,0.80845 -2.70572,6.23491 -3.86461,0.89502 -0.12567,-1.17905 -0.26341,-2.35686 -0.40691,-3.53397 -0.30322,-2.40681 -0.44544,-4.8032 -0.22372,-7.22549 0.0849,-2.19616 3.27901,-2.07934 3.19406,0.11682 z"
       inkscape:connector-curvature="0" />
    <path
       style="fill:#000000;fill-opacity:1;fill-rule:nonzero;stroke:none"
       id="path7699"
       d="m 314.85683,202.20622 c 0.50402,1.0799 1.00805,2.15978 1.51209,3.23966 0.61601,1.33367 0.47194,0.47602 -2.80353,0.69539 0.0153,-1.47991 0.92899,-2.68275 1.85635,-3.77087 1.20705,-1.35375 2.7547,-2.28828 4.53166,-2.6995 2.90686,0.0564 4.59088,2.18628 5.91471,4.44828 1.05802,2.15608 1.57009,4.4196 0.83641,6.7233 -1.32922,2.22161 -3.7563,2.48829 -6.16048,2.60912 -1.72347,0.14494 -3.32043,-0.0426 -4.91844,-0.67002 -1.49175,-0.7858 -1.98906,-2.11463 -2.14372,-3.66682 0.0394,-0.96159 -0.041,-0.35174 -0.0674,-0.18442 0.71132,0.45279 -0.92558,-0.68711 -0.96257,-1.81874 -7e-5,-0.45916 0.0242,-0.91807 0.0456,-1.37668 0.005,-0.11456 0.0112,-0.22907 0.0179,-0.34355 3.70889,0.25582 3.20576,-0.17942 3.11267,2.22385 0.29915,2.91304 0.48281,5.82948 0.82037,8.73916 0.31561,2.53041 0.49765,5.07358 0.60935,7.61946 0.0188,0.4386 0.0317,0.8774 0.03,1.31635 -0.0401,2.19736 -3.23588,2.14227 -3.19581,-0.0552 l 0,0 c 0.002,-0.37649 -0.0141,-0.75284 -0.0276,-1.12904 -0.10814,-2.47373 -0.28484,-4.94483 -0.59212,-7.40345 -0.35502,-3.06316 -0.5675,-6.1337 -0.83824,-9.20438 0.0928,-2.39529 -0.45161,-2.01018 3.27203,-1.92187 -0.005,0.0999 -0.0108,0.19978 -0.0154,0.29971 -0.018,0.38608 -0.0376,0.77229 -0.0433,1.15874 -0.004,0.0267 0.0215,0.14387 -0.0129,0.0802 -0.35508,-0.35071 -0.71015,-0.70141 -1.06522,-1.05212 -0.14913,-0.1692 0.81255,0.40838 0.62237,0.28406 0.84947,0.58486 1.47984,1.42993 1.47386,2.48929 0.0311,0.38464 0.0226,0.76003 0.16732,1.06745 1.16504,0.46835 2.28008,0.55982 3.55539,0.44359 1.10765,-0.0489 2.31527,-0.0555 3.31682,-0.57816 0.73656,-1.18644 -0.22683,-2.9668 -0.62297,-4.12687 -0.64062,-1.12586 -1.35232,-2.30181 -2.57513,-2.91025 -0.95566,-0.0938 -1.98359,1.06243 -2.63706,1.63685 -0.48622,0.55264 -1.1077,1.16965 -1.11182,1.92428 -3.21232,0.97262 -2.65302,1.8249 -3.29955,0.43724 -0.50403,-1.07989 -1.00806,-2.15977 -1.51209,-3.23965 -0.93407,-2.00125 1.97651,-3.28574 2.91058,-1.28449 z"
       inkscape:connector-curvature="0" />
    <path
       style="fill:#000000;fill-opacity:1;fill-rule:nonzero;stroke:none"
       id="path7701"
       d="m 331.89177,202.82926 c 1.18613,1.9866 1.89517,4.17455 2.38379,6.4089 0.29991,1.40476 0.35156,2.83863 0.33366,4.26802 -0.007,0.38165 -0.0216,0.7632 -0.0591,1.14318 -3.55828,-0.15812 -3.20691,0.113 -3.11995,-2.14431 0.002,-1.82882 0.15037,-3.61632 0.53681,-5.40591 0.64918,-2.49985 2.33659,-4.40041 4.38888,-5.94042 1.40861,-1.00211 2.87748,-1.48353 4.60445,-1.28935 1.65806,0.25598 2.28548,1.66248 3.27192,2.75012 0.19983,0.21158 0.41007,0.41375 0.6348,0.60023 1.70862,1.4386 -0.38366,3.78822 -2.09228,2.34962 l 0,0 c -0.33668,-0.28563 -0.65812,-0.5877 -0.95592,-0.91205 -0.50673,-0.57335 -0.82971,-1.42616 -1.49085,-1.74133 -0.54059,-0.0806 -1.45221,0.27684 -2.05011,0.7261 -1.46808,1.03255 -2.6822,2.37684 -3.18364,4.09963 -0.3536,1.61546 -0.46623,3.22656 -0.46998,4.87971 -0.0863,2.24095 0.38551,1.91253 -3.24946,1.67251 0.0226,-0.26535 0.033,-0.55529 0.0381,-0.8272 0.0164,-1.20189 -0.0156,-2.40849 -0.26582,-3.59045 -0.42815,-2.0181 -1.09317,-3.97425 -2.16615,-5.76252 -0.93406,-2.00125 1.97652,-3.28573 2.91057,-1.28449 z"
       inkscape:connector-curvature="0" />
    <path
       style="fill:#000000;fill-opacity:1;fill-rule:nonzero;stroke:none"
       id="path7703"
       d="m 347.82199,204.44863 c 0.45889,1.19366 1.33334,2.0646 2.54417,2.52706 0.93091,0.18751 2.22515,0.72224 3.08719,0.0796 0.38634,-0.70892 0.45264,-1.30998 0.33753,-2.08277 -0.29356,-0.79075 -0.97681,-1.28722 -1.77721,-1.53907 -0.96867,-0.34853 -1.00797,0.0462 -1.63733,0.71046 -1.39184,1.29996 -2.07714,2.94735 -2.51821,4.73288 -0.47984,1.49233 0.23705,2.10489 1.31298,3.0227 1.55717,1.08159 3.50785,1.43382 5.36683,1.70308 1.0412,0.12648 2.08829,0.19262 3.13575,0.24328 2.25731,0.10994 2.09745,3.21405 -0.15986,3.10413 l 0,0 c -1.15416,-0.0566 -2.30797,-0.13032 -3.45473,-0.27446 -2.47746,-0.37023 -5.00684,-0.91899 -7.01896,-2.45952 -1.88969,-1.66685 -3.04438,-3.53035 -2.28546,-6.08303 0.59483,-2.30074 1.52759,-4.44226 3.30579,-6.13122 1.4614,-1.46345 3.03604,-2.27493 5.11474,-1.46384 1.8948,0.77072 3.33159,2.05093 3.79057,4.07554 0.21686,2.08863 -0.30999,3.98198 -2.14544,5.25129 -1.91647,0.77175 -3.79669,0.6532 -5.74214,-0.0445 -1.88496,-0.85208 -3.39843,-2.15714 -4.16678,-4.0871 -0.93407,-2.00124 1.97651,-3.28572 2.91057,-1.28449 z"
       inkscape:connector-curvature="0" />
    <path
       style="fill:#000000;fill-opacity:1;fill-rule:nonzero;stroke:none"
       id="path7705"
       d="m 367.39989,202.84982 c -0.96882,0.29826 -2.04481,0.29367 -3.00551,0.61492 -0.071,0.0237 0.14921,-0.0149 0.22381,-0.0223 0.4927,-0.40712 0.15921,0.86842 0.14104,1.18712 -0.141,0.79199 0.0349,1.3442 0.38152,1.96499 0.86283,0.42566 1.94516,0.88284 2.97847,1.12718 1.72826,0.26771 3.23109,1.04649 4.4903,2.2017 1.3473,1.62358 1.67049,2.88665 0.71386,4.79568 -1.3259,1.51321 -3.27357,2.02468 -5.20874,2.35426 -1.16339,0.22984 -2.15793,0.21761 -3.28322,-0.12603 -0.18427,-0.13579 -0.36854,-0.27158 -0.5528,-0.40737 -1.68876,-1.4606 0.43552,-3.78291 2.12428,-2.3223 l 0,0 c -0.0457,-0.016 -0.0914,-0.0319 -0.13711,-0.0478 -1.24594,-0.0974 1.14114,0.002 1.30662,-0.1595 1.06901,-0.17494 2.1797,-0.38744 3.08403,-1.0044 0.0756,0.69323 0.0776,-0.73354 -0.32049,-0.898 -0.7038,-0.85889 -1.94741,-1.16007 -2.99969,-1.37291 -1.75746,-0.44328 -3.46972,-1.09577 -4.80065,-2.33975 -0.76879,-1.21145 -1.15319,-2.5022 -0.96761,-3.94099 0.0796,-1.35051 0.14363,-2.74003 1.34402,-3.64009 1.20758,-0.5727 2.5175,-0.73658 3.82975,-1.00582 2.21171,-0.4525 2.86982,2.58893 0.65812,3.04144 z"
       inkscape:connector-curvature="0" />
    <path
       inkscape:connector-curvature="0"
       d="m 382.30548,203.39498 c -0.96883,0.29826 -2.04481,0.29367 -3.00551,0.61491 -0.071,0.0237 0.14921,-0.0149 0.22381,-0.0223 0.49269,-0.40713 0.15921,0.86842 0.14103,1.18712 -0.14099,0.79198 0.0349,1.3442 0.38153,1.96498 0.86283,0.42566 1.94515,0.88284 2.97848,1.12719 1.72824,0.26771 3.23108,1.04648 4.49029,2.20169 1.3473,1.62359 1.67049,2.88665 0.71385,4.79568 -1.32589,1.51321 -3.27357,2.02469 -5.20874,2.35427 -1.16338,0.22983 -2.15792,0.2176 -3.28321,-0.12603 -0.18427,-0.13579 -0.36854,-0.27158 -0.55281,-0.40738 -1.68876,-1.4606 0.43553,-3.7829 2.12429,-2.3223 l 0,0 c -0.0456,-0.016 -0.0914,-0.0319 -0.13711,-0.0478 -1.24595,-0.0974 1.14113,0.002 1.30662,-0.15951 1.06901,-0.17494 2.1797,-0.38744 3.08403,-1.0044 0.0756,0.69323 0.0776,-0.73354 -0.32049,-0.89801 -0.7038,-0.85887 -1.94742,-1.16006 -2.99969,-1.37291 -1.75747,-0.44327 -3.46972,-1.09576 -4.80065,-2.33974 -0.76879,-1.21144 -1.15319,-2.5022 -0.96762,-3.94099 0.0796,-1.35051 0.14363,-2.74003 1.34402,-3.64009 1.20758,-0.57269 2.51751,-0.73658 3.82975,-1.00582 2.21171,-0.4525 2.86983,2.58893 0.65813,3.04144 z"
       id="path7711"
       style="fill:#000000;fill-opacity:1;fill-rule:nonzero;stroke:none" />
    <path
       style="fill:#000000;fill-opacity:1;fill-rule:nonzero;stroke:none"
       id="path7715"
       d="m 393.74488,202.29955 c 0.39349,2.36212 0.51339,4.75705 0.58645,7.1457 0.0326,1.24339 0.0227,2.4876 -0.0138,3.73079 -0.002,0.0675 0.0178,0.26567 -0.008,0.20266 -0.78907,-1.97816 0.0752,-0.52898 0.42845,-0.056 0.0336,0.0456 0.0672,0.0913 0.10082,0.13694 1.31521,1.78728 -1.28418,3.5959 -2.59939,1.80862 l 0,0 c -0.0294,-0.0401 -0.0589,-0.0801 -0.0883,-0.12011 -0.45147,-0.60533 -1.07356,-1.26594 -1.02922,-2.06106 0.0349,-1.18299 0.0444,-2.36698 0.0138,-3.55017 -0.0664,-2.20488 -0.17605,-4.41448 -0.51935,-6.59747 -0.46537,-2.15061 2.66247,-2.79056 3.12782,-0.63993 z"
       inkscape:connector-curvature="0" />
    <path
       style="fill:#000000;fill-opacity:1;fill-rule:nonzero;stroke:none"
       id="path7717"
       d="m 393.13944,190.55493 c 0.41134,1.18594 0.61889,2.42656 0.77195,3.66579 0.14682,1.41977 0.18489,0.88158 -3.13217,0.21962 -0.23076,-0.046 0.0171,-0.45783 0.0251,-0.68677 -0.081,-0.82819 0.36067,-1.54886 0.89261,-2.1743 0.17844,-0.21267 0.35216,-0.42904 0.52156,-0.64858 1.60192,-1.21731 3.01859,-0.4239 3.69787,1.19217 0.35445,1.20147 0.18419,2.26877 -0.96,3.03387 -1.21972,0.52623 -2.41045,0.19378 -3.33742,-0.69034 -0.55912,-0.57441 -0.68827,-1.34734 -0.75087,-2.1001 -0.16939,-2.19153 3.01793,-2.42445 3.18732,-0.23293 l 0,0 c 0.0247,0.37818 0.0371,0.38016 -0.12258,0.18885 -1.32372,-0.0145 -0.21646,-0.10013 -0.42978,0.0664 -0.63641,0.56549 -0.49963,2.05454 -0.64385,0.64129 0.538,0.6249 1.3759,0.31903 1.92314,-0.24317 -0.20405,0.26402 -0.41258,0.52476 -0.62804,0.78011 -1.49848,1.74453 0.25699,-1.67162 -0.15555,0.29382 -5.5e-4,0.0156 -0.0253,0.71293 -0.0261,0.71325 -3.43947,0.75715 -3.09789,1.31361 -3.23496,0.0153 -0.11283,-0.92546 -0.27376,-1.84575 -0.50877,-2.74977 -0.93406,-2.00125 1.97651,-3.28573 2.91058,-1.28449 z"
       inkscape:connector-curvature="0" />
    <path
       style="fill:#000000;fill-opacity:1;fill-rule:nonzero;stroke:none"
       id="path7719"
       d="m 404.6238,205.24799 c -1.59007,0.21259 -2.781,1.08531 -3.7054,2.31881 -0.49714,1.01609 -1.38269,2.32488 -0.83215,3.4627 0.39685,0.98869 1.52154,1.04824 2.47772,1.21227 1.32709,0.17873 2.88209,0.0872 3.96786,-0.76361 0.88411,-1.1024 1.28545,-2.36654 1.58397,-3.71325 0.32206,-1.17645 0.10205,-2.0943 -0.72528,-2.95377 -0.57685,-0.39724 -1.20843,-0.56099 -1.89401,-0.657 -0.16228,-0.0251 -0.32627,-0.0283 -0.48979,-0.0367 -2.25839,-0.0863 -2.13258,-3.19212 0.12548,-3.10563 l 0,0 c 0.28201,0.0118 0.56371,0.0297 0.84336,0.0694 1.43709,0.21881 2.73793,0.69653 3.81961,1.68266 1.43914,1.65485 1.979,3.52751 1.44122,5.67204 -0.49002,2.11281 -1.22228,4.1298 -2.92298,5.62242 -1.91663,1.16404 -4.08463,1.62787 -6.33586,1.2387 -2.20317,-0.41505 -4.20449,-1.1626 -4.96654,-3.41913 -0.5395,-2.26291 0.0952,-4.26765 1.37553,-6.20862 1.44497,-1.76294 3.21993,-3.1186 5.57881,-3.46279 2.21171,-0.45251 2.86983,2.58893 0.65812,3.04143 z"
       inkscape:connector-curvature="0" />
    <path
       style="fill:#000000;fill-opacity:1;fill-rule:nonzero;stroke:none"
       id="path7721"
       d="m 417.208,202.12094 c 0.47841,2.38187 0.53977,4.816 0.58416,7.23489 0.0196,1.53158 -7.4e-4,3.0635 -0.0483,4.59442 0.11657,-1.89027 -2.50344,-0.37045 -1.5225,-1.03621 0.14965,-0.69111 0.36247,-1.50881 0.47008,-2.25668 0.0847,-1.84556 0.52277,-3.63468 1.17735,-5.36217 0.54978,-1.35817 1.43282,-2.55343 2.38003,-3.67392 0.59288,-0.7391 1.50711,-0.9679 2.41797,-1.00184 0.84008,-0.13364 1.81161,0.70876 2.0861,0.94694 0.96134,0.50449 1.7203,1.34863 2.24181,2.25441 0.64709,1.50181 0.56387,3.15747 0.54296,4.75266 -0.0417,1.51051 -0.25492,3.01942 0.33472,4.4531 0.69906,0.92129 1.54993,1.69555 2.64647,2.12945 0.0765,-0.0165 0.15294,-0.0331 0.22942,-0.0496 2.24616,0.24398 1.89134,3.33279 -0.35483,3.08883 l 0,0 c -0.39377,-0.0676 -0.78755,-0.13521 -1.18132,-0.20282 -1.85667,-0.84719 -3.39099,-2.1266 -4.34967,-3.92009 -0.62699,-1.81687 -0.67616,-3.63737 -0.52083,-5.53973 0.0154,-1.10968 0.10726,-2.27622 -0.22091,-3.35167 0.004,-0.55074 -0.92393,-0.82295 -1.13516,-1.02487 -0.21767,-0.16355 -0.52405,-0.26667 -0.63644,-0.5108 -0.0345,-0.075 0.96962,0.17146 0.39928,0.0812 -0.46171,-0.006 0.43512,-0.49805 -0.0333,-0.12817 -0.72793,0.85548 -1.42554,1.7615 -1.85683,2.79672 -0.60924,1.5074 -0.91345,3.09114 -1.00327,4.706 -0.23948,1.57806 -0.53807,3.2492 -1.81436,4.36848 -1.74692,1.16047 -3.1289,0.0243 -3.49165,-1.61324 0.0462,-1.48133 0.0659,-2.96364 0.0473,-4.44562 -0.0398,-2.22236 -0.0869,-4.45965 -0.51616,-6.64973 -0.46537,-2.15062 2.66246,-2.79056 3.12783,-0.63995 z"
       inkscape:connector-curvature="0" />
    <path
       style="fill:#000000;fill-opacity:1;fill-rule:nonzero;stroke:none"
       id="path7727"
       d="m 576.07089,203.28215 c -1.48008,0.11907 -2.87715,0.61285 -4.16423,1.29101 -0.73937,0.75459 -0.8085,1.94907 -0.9669,2.92044 -0.25012,1.85247 -0.39219,3.71608 -0.54641,5.57733 0.17908,1.23758 0.42825,2.46547 0.5594,3.70893 0.0481,0.60271 0.0798,1.20746 0.0675,1.81201 -0.0254,0.41884 -0.07,0.83667 -0.10934,1.25457 -0.0201,0.218 -0.0401,0.436 -0.0602,0.65403 -0.19974,2.17127 -3.45391,1.9052 -3.2545,-0.26615 l 0,0 c 0.0203,-0.21867 0.0402,-0.43735 0.0605,-0.65602 0.0325,-0.35019 0.0658,-0.70037 0.0976,-1.05059 0.007,-0.48476 -0.014,-0.96949 -0.0533,-1.45288 -0.138,-1.42114 -0.5164,-2.81459 -0.56446,-4.24424 0.16083,-1.94042 0.3088,-3.88347 0.57589,-5.81407 0.33074,-1.96281 0.74279,-3.95374 2.61399,-5.14099 1.61857,-0.83739 3.36735,-1.46401 5.21826,-1.63539 2.27974,-0.35105 2.80592,2.69092 0.52619,3.04197 z"
       inkscape:connector-curvature="0" />
    <path
       style="fill:#000000;fill-opacity:1;fill-rule:nonzero;stroke:none"
       id="path7729"
       d="m 565.75272,211.59472 c 2.25608,-0.31679 4.54012,-0.3248 6.81523,-0.29776 1.23166,0.0298 2.463,0.0805 3.69195,0.1639 0.11806,0.007 0.23564,0.0188 0.35335,0.0293 2.29687,0.23118 1.95036,3.29601 -0.34647,3.06482 l 0,0 c -0.0805,-0.007 -0.16091,-0.0164 -0.24177,-0.0197 -1.16461,-0.0794 -2.33156,-0.12663 -3.49871,-0.15616 -2.08512,-0.0254 -4.17864,-0.0256 -6.24738,0.25775 -2.27973,0.35106 -2.8059,-2.69091 -0.52617,-3.04196 z"
       inkscape:connector-curvature="0" />
    <path
       style="fill:#000000;fill-opacity:1;fill-rule:nonzero;stroke:none"
       id="path7737"
       d="m 585.89225,199.6519 c 0.32298,3.17799 0.0537,6.36912 0.14754,9.55178 0.16117,3.05895 0.24299,6.11913 0.16476,9.1811 -0.0388,1.3678 -0.12041,2.73398 -0.23406,4.09795 -0.14497,1.59584 0.0975,0.68188 -3.29513,0.10777 0.17787,-2.17299 3.43487,-1.93562 3.25698,0.23733 l 0,0 c -3.51064,-0.0833 -3.35065,0.90383 -3.21846,-0.58681 0.10938,-1.30841 0.18731,-2.61901 0.22495,-3.93112 0.0783,-3.00993 -0.008,-6.01796 -0.16459,-9.02494 -0.0822,-3.09332 0.15692,-6.19249 -0.12738,-9.28182 -0.26321,-2.16526 2.98218,-2.51649 3.2454,-0.35122 z"
       inkscape:connector-curvature="0" />
    <path
       style="fill:#000000;fill-opacity:1;fill-rule:nonzero;stroke:none"
       id="path7741"
       d="m 595.02511,207.39219 c 0.38112,1.88501 0.4072,3.8057 0.37879,5.71732 -0.0359,2.16196 -0.74281,4.25165 -1.23376,6.35047 -0.1695,0.74499 -0.34228,1.48946 -0.49657,2.23744 -0.004,0.0138 -0.006,0.0276 -0.008,0.0415 -0.33458,2.15647 -3.56682,1.71004 -3.23224,-0.44643 l 0,0 c 0.011,-0.0616 0.0205,-0.12334 0.0345,-0.18441 0.15972,-0.77303 0.33753,-1.54262 0.5131,-2.31253 0.44356,-1.89544 1.09462,-3.78367 1.15732,-5.73089 0.0276,-1.73043 0.0126,-3.4699 -0.33651,-5.176 -0.37206,-2.151 2.85197,-2.64746 3.22404,-0.49645 z"
       inkscape:connector-curvature="0" />
    <path
       style="fill:#000000;fill-opacity:1;fill-rule:nonzero;stroke:none"
       id="path7745"
       d="m 590.69751,198.53179 c 0.78469,-1.23223 1.45499,-2.49503 2.65447,-3.41077 2.03218,-1.19548 1.51854,-0.80874 3.41708,1.52474 -0.34335,0.66481 -0.71217,1.28913 -0.95253,1.9935 -0.47358,1.50174 0.20382,0.66175 -3.36709,-0.17464 0.0175,-0.2434 0.0414,-0.48628 0.0683,-0.72886 0.003,-0.0173 0.005,-0.0343 0.008,-0.0515 0.33556,-2.15633 3.56757,-1.70858 3.23202,0.44776 l 0,0 c 7.8e-4,-0.01 0.003,-0.0195 0.004,-0.0293 -0.0196,0.19431 -0.0391,0.38867 -0.0532,0.58346 -3.45021,-0.12531 -3.53438,0.71951 -2.99753,-1.00045 0.24171,-0.69561 0.52407,-1.37716 0.95204,-1.99208 2.45406,2.19049 2.69901,1.36426 1.67796,1.87317 -0.9165,0.55132 -1.165,1.80147 -1.85233,2.5679 -1.20115,1.86161 -3.99146,0.25887 -2.79031,-1.60276 z"
       inkscape:connector-curvature="0" />
    <path
       style="fill:#000000;fill-opacity:1;fill-rule:nonzero;stroke:none"
       id="path7747"
       d="m 607.5894,208.86144 c -1.63717,0.4895 -3.26619,1.15118 -4.38333,2.4169 -0.93792,1.38932 -1.14594,3.05351 -1.36805,4.65229 -0.18164,0.12293 -0.20495,3.54732 -0.21097,2.61233 0.49714,0.0254 0.93117,0.0366 1.39068,-0.22219 1.12816,-0.77388 1.59162,-2.25078 1.95556,-3.47364 0.20671,-0.81314 0.39958,-1.63477 0.48303,-2.46876 0.0388,-0.0977 -0.0839,-0.90629 0.11761,0.45013 -0.11991,-0.11133 -0.25017,-0.21122 -0.38388,-0.30694 2.4321,0.57189 1.73155,-3.22492 2.97849,-1.14405 0.17914,0.29895 0.33225,0.61116 0.49836,0.91675 1.41483,3.22407 1.78779,6.66916 1.9537,10.11928 0.25061,3.5797 -0.11798,6.94251 -2.18449,10.00296 -2.05332,2.52065 -4.943,3.45494 -8.2062,3.00387 -2.81722,-0.81555 -4.11275,-2.93943 -4.71999,-5.49905 -0.47653,-2.13256 2.71989,-2.76843 3.19642,-0.63585 l 0,0 c 0.26174,1.30089 0.71352,2.54196 2.09806,3.10072 1.90885,0.44393 3.67311,-0.26067 4.90867,-1.67231 1.8045,-2.41503 1.76212,-5.30929 1.64408,-8.16364 -0.13856,-3.01664 -0.43506,-6.02272 -1.60501,-8.86438 -0.36375,-0.69083 -3.06635,-5.84375 1.34633,-3.66584 0.34026,0.24086 0.66693,0.49907 0.95207,0.7986 0.45697,0.54479 0.76154,1.18496 0.65681,1.86115 -0.10894,1.02089 -0.32925,2.02886 -0.5957,3.02272 -0.67754,2.16788 -1.64962,4.40883 -3.9057,5.48936 -1.85947,0.59666 -3.77891,0.63183 -5.2151,-0.82868 -1.07054,-1.85265 -0.58807,-2.84087 -0.39131,-4.8366 0.31341,-2.21896 0.70232,-4.46558 2.17027,-6.30153 1.53433,-1.5594 3.43213,-2.62627 5.60656,-3.22543 2.14475,-0.80932 3.35777,2.05252 1.21305,2.86183 z"
       inkscape:connector-curvature="0" />
    <path
       style="fill:#000000;fill-opacity:1;fill-rule:nonzero;stroke:none"
       id="path7749"
       d="m 617.54206,199.88516 c 0.39187,2.83301 0.15196,5.69062 0.25343,8.53495 0.1933,3.01528 0.13795,6.02984 0.46467,9.03551 0.1456,1.17155 0.29172,2.34434 0.50241,3.50744 0.24529,1.06784 -3.28693,1.49154 -3.11925,-0.45666 0.43068,-1.18523 1.02568,-2.3058 1.62319,-3.42397 0.71758,-1.49697 1.72679,-2.80048 2.95568,-3.95418 0.98325,-0.99184 2.16484,-1.61419 3.56173,-1.88987 0.62545,-0.0763 1.25892,-0.0878 1.88619,-0.0275 0.46991,0.37835 1.03858,0.66911 1.40975,1.13503 0.33558,0.42127 -0.0224,2.78685 0.0343,3.41645 0.19091,1.71971 0.54092,3.50594 1.72357,4.87213 0.59252,0.69049 1.3129,1.11024 2.20213,1.35338 2.20853,0.63854 1.25145,3.5855 -0.95708,2.94695 l 0,0 c -1.53485,-0.45643 -2.84233,-1.24317 -3.85402,-2.44554 -1.47572,-1.93288 -2.19523,-4.16183 -2.37517,-6.53859 -0.0184,-0.36807 -0.15654,-2.35043 0.0708,-2.72342 0.0339,-0.0557 0.0577,0.1166 0.0866,0.17489 0.43618,0.29105 0.87233,0.58208 1.3085,0.87312 -0.32416,-0.0298 -0.65076,-0.0269 -0.97531,-3e-4 -0.7536,0.01 -1.31689,0.61481 -1.82973,1.04929 -0.99167,0.9087 -1.76649,1.95245 -2.33201,3.14769 -0.086,0.16019 -1.50025,3.16994 -1.28313,2.28402 -0.1428,1.65987 -3.20407,2.26078 -3.35698,0.72488 -0.22176,-1.23109 -0.3799,-2.47168 -0.5319,-3.71182 -0.33221,-3.07746 -0.29006,-6.16255 -0.47993,-9.24968 -0.0888,-2.71243 0.11752,-5.43407 -0.21246,-8.13768 -0.37207,-2.15099 2.85196,-2.64747 3.22402,-0.49647 z"
       inkscape:connector-curvature="0" />
    <path
       style="fill:#000000;fill-opacity:1;fill-rule:nonzero;stroke:none"
       id="path7751"
       d="m 638.24996,200.48356 c 0.41771,2.88623 0.24777,5.81322 0.11654,8.71294 -0.17863,3.2181 -0.5559,6.41125 -0.42104,9.63477 0.082,1.23577 0.16066,2.47522 0.34929,3.70164 0.003,0.0137 0.004,0.0278 0.006,0.0416 0.60923,2.10227 -2.54178,2.9152 -3.15101,0.8129 l 0,0 c -0.0358,-0.13738 -0.0688,-0.27515 -0.0878,-0.41576 -0.2018,-1.33279 -0.29627,-2.67818 -0.38013,-4.0213 -0.13308,-3.30786 0.22264,-6.58447 0.4216,-9.88571 0.12225,-2.68989 0.28978,-5.4054 -0.077,-8.0847 -0.37207,-2.151 2.85195,-2.64746 3.22402,-0.49648 z"
       inkscape:connector-curvature="0" />
    <path
       style="fill:#000000;fill-opacity:1;fill-rule:nonzero;stroke:none"
       id="path7753"
       d="m 630.82464,210.60628 c 2.98182,0.38267 5.96563,0.13091 8.93738,-0.18226 2.02673,-0.20698 4.05438,-0.406 6.08336,-0.59239 2.29902,-0.21118 2.61554,2.85654 0.31652,3.06771 l 0,0 c -2.01379,0.18498 -4.02629,0.38254 -6.03789,0.5879 -3.18151,0.33418 -6.37871,0.58852 -9.57083,0.19058 -2.30191,-0.1811 -2.03043,-3.25266 0.27146,-3.07154 z"
       inkscape:connector-curvature="0" />
  </g>
</svg>
