<?xml version="1.0" encoding="UTF-8" standalone="no"?>
<!-- Created with Inkscape (http://www.inkscape.org/) -->

<svg
   xmlns:dc="http://purl.org/dc/elements/1.1/"
   xmlns:cc="http://creativecommons.org/ns#"
   xmlns:rdf="http://www.w3.org/1999/02/22-rdf-syntax-ns#"
   xmlns:svg="http://www.w3.org/2000/svg"
   xmlns="http://www.w3.org/2000/svg"
   xmlns:sodipodi="http://sodipodi.sourceforge.net/DTD/sodipodi-0.dtd"
   xmlns:inkscape="http://www.inkscape.org/namespaces/inkscape"
   width="452.53821"
   height="423.27081"
   id="svg5686"
   version="1.1"
   inkscape:version="0.48.0 r9654"
   sodipodi:docname="MotorTorqueCurveSketch.pdf">
  <defs
     id="defs5688" />
  <sodipodi:namedview
     inkscape:document-units="mm"
     pagecolor="#ffffff"
     bordercolor="#666666"
     borderopacity="1.0"
     inkscape:pageopacity="0.0"
     inkscape:pageshadow="2"
     inkscape:zoom="0.7176508"
     inkscape:cx="120.01174"
     inkscape:cy="165.9261"
     inkscape:current-layer="layer1"
     id="namedview5690"
     showgrid="false"
     fit-margin-top="0"
     fit-margin-left="0"
     fit-margin-right="0"
     fit-margin-bottom="0"
     inkscape:window-width="1280"
     inkscape:window-height="752"
     inkscape:window-x="0"
     inkscape:window-y="0"
     inkscape:window-maximized="0" />
  <metadata
     id="metadata5692">
    <rdf:RDF>
      <cc:Work
         rdf:about="">
        <dc:format>image/svg+xml</dc:format>
        <dc:type
           rdf:resource="http://purl.org/dc/dcmitype/StillImage" />
        <dc:title></dc:title>
      </cc:Work>
    </rdf:RDF>
  </metadata>
  <g
     inkscape:label="Layer 1"
     inkscape:groupmode="layer"
     id="layer1"
     transform="translate(-238.12434,-104.35117)">
    <path
       style="fill:#000000;fill-opacity:1;fill-rule:nonzero;stroke:none"
       id="path6205"
       d="m 278.54438,127.98803 c 2.00894,-3.74375 3.45729,-7.74144 5.01379,-11.68421 1.33938,-2.93715 1.70581,-6.22484 3.29029,-9.04473 0.61443,-0.99143 1.37815,-1.7436 2.49219,-2.09698 3.13295,0.1276 4.82484,2.88189 6.45511,5.22814 2.69981,4.22255 5.14548,8.58869 7.02483,13.2383 0.40839,1.41661 1.03821,2.7343 1.83397,3.96759 1.58498,2.49506 -1.94356,4.73656 -3.52854,2.2415 l 0,0 c -0.91518,-1.45641 -1.69477,-2.99073 -2.18351,-4.6485 -1.74956,-4.36936 -4.07172,-8.451 -6.58661,-12.42354 -0.79862,-1.16503 -1.00097,-1.53337 -1.8488,-2.53777 -0.4125,-0.48867 -0.46238,-0.53201 -0.93834,-0.83907 -0.0675,-0.0435 -0.2888,-0.10053 -0.21031,-0.11739 0.27993,-0.0601 0.57245,-0.0146 0.85868,-0.0219 0.59761,-0.21064 0.79766,-0.5413 0.24818,0.10564 -1.56715,2.5565 -1.57908,5.84423 -3.01902,8.4841 -1.60211,4.05567 -3.09884,8.16574 -5.16294,12.01828 -1.32192,2.64386 -5.0609,0.77437 -3.73897,-1.86949 z"
       inkscape:connector-curvature="0" />
    <path
       style="fill:#000000;fill-opacity:1;fill-rule:nonzero;stroke:none"
       id="path6221"
       d="m 290.63554,106.06087 c 0.72018,3.03548 0.95883,6.14852 1.12929,9.25419 0.16646,4.09016 0.16274,8.18471 0.16913,12.2775 10e-4,5.42667 -0.004,10.85333 -0.006,16.27999 -0.002,6.59 -0.003,13.18001 -0.003,19.77001 -1.8e-4,8.29891 -1.2e-4,16.59782 -10e-5,24.89674 -0.20753,9.62005 0.18532,19.22024 0.62884,28.82644 0.50327,10.85974 0.63437,21.7312 0.71854,32.60071 0.0658,11.97241 0.0568,23.94508 0.0551,35.91763 -0.003,11.30075 -0.006,22.6015 -0.008,33.90225 -0.001,10.12882 -0.001,20.25765 -0.001,30.38648 -2e-5,10.27912 2e-5,20.55825 4e-5,30.83737 2e-5,10.00833 2e-5,20.01665 2e-5,30.02498 0.0321,8.1064 0.11753,16.20124 -0.40105,24.29331 -0.28596,6.23178 -0.8938,12.42669 -1.54469,18.62765 -0.50456,4.97062 -0.70275,9.96414 -0.80541,14.95691 -0.0563,3.3809 -0.051,6.76237 -0.0467,10.1436 0.005,2.29422 0.008,4.58844 0.01,6.88267 10e-4,2.12493 10e-4,4.24986 10e-4,6.37479 0,1.14327 -2e-5,2.28653 -7e-5,3.42979 0.12206,1.20662 -0.33645,2.22843 -1.23729,3.04273 -1.04066,0.61701 -0.29841,0.2843 -2.41713,0.33505 -2.77246,-1.02515 -1.32268,-4.946 1.44979,-3.92085 l 0,0 c -0.50446,0.0668 -1.00891,0.13353 -1.51336,0.2003 -0.006,0.0115 -0.0124,0.0231 -0.0186,0.0346 -0.72103,0.93519 -0.37915,2.01931 -0.44372,0.30797 6e-5,-1.14317 8e-5,-2.28633 7e-5,-3.4295 -5e-5,-2.12385 -7e-5,-4.24771 -0.001,-6.37156 -0.002,-2.29357 -0.005,-4.58713 -0.01,-6.8807 -0.004,-3.41171 -0.009,-6.82366 0.0477,-10.23502 0.10551,-5.10978 0.31003,-10.22024 0.82736,-15.30724 0.64519,-6.14493 1.24922,-12.28327 1.53043,-18.45901 0.51466,-8.00271 0.4203,-16.00851 0.39247,-24.0255 -10e-6,-10.00833 -10e-6,-20.01665 -3e-5,-30.02497 -10e-6,-10.27914 -5e-5,-20.55828 -3e-5,-30.83741 7e-5,-10.12901 1.7e-4,-20.25801 10e-4,-30.38702 0.002,-11.30076 0.004,-22.60152 0.008,-33.90227 0.002,-11.96157 0.0107,-23.92325 -0.055,-35.88469 -0.0837,-10.816 -0.21359,-21.63397 -0.71422,-32.44026 -0.44648,-9.67036 -0.84009,-19.335 -0.63328,-29.01923 -2e-5,-8.29897 -9e-5,-16.59794 9e-5,-24.89691 2.5e-4,-6.59056 5.2e-4,-13.18111 0.003,-19.77167 0.002,-5.42388 0.007,-10.84777 0.006,-16.27165 -0.006,-4.01898 -0.002,-8.03965 -0.16292,-12.05613 -0.15423,-2.84083 -0.36104,-5.68946 -1.01069,-8.46821 -0.71691,-2.86767 3.33858,-3.88154 4.05549,-1.01387 z"
       inkscape:connector-curvature="0" />
    <path
       style="fill:#000000;fill-opacity:1;fill-rule:nonzero;stroke:none"
       id="path6247"
       d="m 255.99874,459.13695 c 5.79664,0 11.59328,0 17.38992,0 9.34806,0 18.69612,0 28.04417,0 9.86519,0 19.73037,0 29.59555,0 15.4092,-0.14019 30.809,0.49771 46.21198,0.83986 20.12951,0.19972 40.25075,0.65708 60.3743,1.16679 21.21779,0.52266 42.4422,0.65497 63.66538,0.74169 16.9644,0.0538 33.9289,0.0518 50.89337,0.0483 10.92919,0.27195 21.84811,0.82298 32.77637,1.1332 6.21417,0.16428 12.4303,0.23192 18.64641,0.25621 2.80206,0.008 5.60413,0.002 8.40619,-10e-4 4.68672,-0.004 9.37344,-0.004 14.06016,-0.004 6.71951,-3.2e-4 13.43902,-2.6e-4 20.15853,-2.4e-4 3.34845,10e-6 6.69691,4e-5 10.04536,5e-5 1.44725,10e-6 2.89449,10e-6 4.34174,10e-6 0.55266,0 1.10532,0 1.65798,0 1.45301,-0.0774 2.94578,0.17828 4.37261,-0.13663 1.96168,-0.51155 3.94536,-0.8787 5.96114,-1.08908 1.28251,-0.1278 2.57089,-0.16502 3.85888,-0.17689 0.0974,-2.4e-4 0.38908,-0.0119 0.2923,-7.1e-4 -1.50652,0.17452 1.5181,-0.86431 1.71185,-0.92335 0.8275,-0.20548 1.66874,-0.35595 2.51652,-0.4464 0.42879,-0.0389 0.86079,-0.0229 1.29084,-0.0195 0.50421,0.004 1.00845,0.004 1.51267,0.005 0.48066,7.4e-4 -0.11661,-1.7e-4 0.24719,3.5e-4 2.95593,0.004 2.95049,4.18414 -0.005,4.1803 l 0,0 c -0.36657,-5.2e-4 0.234,3.9e-4 -0.24927,-3.6e-4 -0.51268,-9.2e-4 -1.02537,-0.001 -1.53803,-0.005 -0.27402,-0.002 -0.54899,-0.008 -0.82264,-0.003 -0.60829,0.0694 -1.21324,0.16779 -1.80918,0.30993 -1.08837,0.25475 -1.9333,1.12498 -3.10893,1.08309 -1.15789,0.0103 -2.3162,0.0411 -3.46927,0.15515 -1.92453,0.19427 -3.80717,0.57894 -5.68226,1.05089 -1.68802,0.25056 -3.37402,0.21299 -5.07899,0.19673 -0.55266,0 -1.10532,0 -1.65798,0 -1.44725,0 -2.8945,0 -4.34175,0 -3.34846,-2e-5 -6.69691,-4e-5 -10.04537,-5e-5 -6.7194,-2e-5 -13.4388,-8e-5 -20.1582,2.4e-4 -4.68535,3.5e-4 -9.37069,3.1e-4 -14.05604,0.004 -2.80899,0.003 -5.61798,0.01 -8.42696,0.001 -6.25022,-0.0245 -12.50046,-0.0926 -18.74871,-0.25786 -10.88845,-0.30924 -21.76765,-0.85557 -32.65688,-1.13152 -16.97044,0.003 -33.94092,0.006 -50.9113,-0.0483 -21.25278,-0.0869 -42.50678,-0.21952 -63.75415,-0.743 -20.11922,-0.5096 -40.23612,-0.96672 -60.3613,-1.16647 -15.37204,-0.34154 -30.74089,-0.97863 -46.11913,-0.83883 -9.86518,0 -19.73036,0 -29.59555,0 -9.34805,0 -18.69611,0 -28.04417,0 -5.79664,0 -11.59328,0 -17.38992,0 -2.95592,0 -2.95592,-4.18031 0,-4.18031 z"
       inkscape:connector-curvature="0" />
    <path
       style="fill:#000000;fill-opacity:1;fill-rule:nonzero;stroke:none"
       id="path6257"
       d="m 669.057,451.33036 c 3.11803,1.3726 6.15194,2.92983 9.24572,4.35794 2.81016,0.89571 5.55077,1.99348 8.35551,2.90448 0.80055,0.28274 1.59224,0.50808 2.43723,0.55958 0.14187,0.005 0.28384,0.007 0.42578,0.007 1.83475,5.39948 1.52083,3.28764 -1.404,6.77424 -2.44727,3.06718 -4.73046,6.25934 -7.20118,9.31037 -1.35337,1.70797 -2.66009,3.39348 -4.62439,4.40614 -0.75182,0.36299 -1.51308,0.50681 -2.33409,0.3875 -1.71466,-2.12669 -1.59182,-1.15826 -1.65011,-2.41943 -0.0984,-2.95428 4.07957,-3.09347 4.17799,-0.13919 l 0,0 c -5.5e-4,0.0347 -10e-4,0.0694 -0.002,0.10413 -0.52999,-0.53987 -1.05997,-1.07974 -1.58996,-1.61961 -0.1036,-0.0131 -1.01989,0.0275 -0.45866,-0.0589 1.4466,-0.64363 2.1627,-2.20212 3.23282,-3.29226 2.49159,-3.07365 4.7835,-6.29788 7.25999,-9.38135 0.0513,-0.0601 3.01928,-3.35941 3.10597,-3.26574 0.88752,0.95906 1.41536,2.19833 2.06566,3.33173 0.0239,0.0417 -0.0951,0.0132 -0.14266,0.0199 -0.37934,0.0282 -0.75948,0.0326 -1.13952,0.007 -1.18888,-0.0835 -2.3288,-0.35522 -3.45239,-0.75538 -2.96033,-0.96436 -5.86043,-2.10634 -8.8157,-3.08491 -3.13185,-1.44829 -6.20515,-3.02183 -9.36186,-4.41379 -2.64386,-1.32193 -0.77437,-5.06091 1.86949,-3.73898 z"
       inkscape:connector-curvature="0" />
    <path
       style="fill:#000000;fill-opacity:1;fill-rule:nonzero;stroke:none"
       id="path6261"
       d="m 649.60891,496.8724 c -2.65424,1.13908 -4.66647,3.13124 -6.50228,5.30259 -1.80951,2.59762 -3.29619,5.52695 -3.55783,8.7164 0.228,1.971 0.9508,3.87798 2.81347,4.75323 2.10988,-0.0108 3.39466,-2.41053 4.35787,-3.98845 1.04213,-1.97785 1.62085,-4.12378 1.92441,-6.32599 0.0185,-0.11721 -0.0629,-0.3617 0.0554,-0.35162 4.37198,0.37272 4.46997,-0.55413 3.95936,1.98195 -0.21604,1.07301 -0.4865,2.12432 -0.67596,3.20477 -0.61159,2.98399 0.60806,5.46527 2.18458,7.9042 1.70819,2.25484 3.78228,4.70231 6.62889,5.42799 2.7838,-1.23221 4.20436,-4.53044 5.30321,-7.16005 1.71563,-4.61183 1.66617,-8.65875 0.26474,-13.28656 -0.84972,-1.81494 -1.97045,-3.49023 -3.02891,-5.18971 -0.14298,-0.23057 -0.2883,-0.45967 -0.43474,-0.68804 -1.62438,-2.46959 1.86816,-4.7668 3.49253,-2.29721 l 0,0 c 0.16634,0.25666 0.3287,0.51586 0.49062,0.77533 1.25366,2.01303 2.59519,3.99526 3.48587,6.203 1.65136,5.59175 1.66193,10.59664 -0.42564,16.12483 -1.57239,3.61938 -3.86237,8.4634 -8.17265,9.45845 -0.72349,0.16702 -1.48468,0.0323 -2.22702,0.0484 -3.75438,-1.29473 -6.65938,-3.90922 -8.9026,-7.17045 -2.10283,-3.33964 -3.57746,-6.85018 -2.77536,-10.87781 0.72367,-4.06537 -0.23201,-3.88258 4.96189,-3.80498 0.0941,10e-4 -0.0297,0.18585 -0.0445,0.27878 -0.39639,2.78291 -1.1564,5.49009 -2.52293,7.96622 -2.27441,3.55422 -5.3306,7.00798 -9.94373,5.4131 -3.24187,-1.95407 -4.83142,-5.03907 -4.92555,-8.84239 0.4926,-4.02675 2.09622,-7.73786 4.53593,-10.98835 2.21646,-2.57349 4.65049,-4.94884 7.81145,-6.32659 2.64386,-1.32193 4.51334,2.41705 1.86949,3.73898 z"
       inkscape:connector-curvature="0" />
    <path
       style="fill:#000000;fill-opacity:1;fill-rule:nonzero;stroke:none"
       id="path6263"
       d="m 254.42804,146.73419 c 0.86916,5.29154 0.85638,10.67077 1.27104,16.00534 0.57502,6.30954 0.98314,12.63181 1.2405,18.96186 0.0747,2.00848 0.13299,4.0176 0.16128,6.02729 -4.52811,-0.69375 -4.17898,0.76953 -4.18408,-1.69146 -0.006,-2.95591 4.17418,-2.96458 4.1803,-0.009 l 0,0 c 0.005,2.46108 0.34648,0.98894 -4.17602,1.7648 -0.0305,-1.97463 -0.0824,-3.94885 -0.15834,-5.92231 -0.25482,-6.2792 -0.66111,-12.55055 -1.23151,-18.80937 -0.39733,-5.16848 -0.40004,-10.37692 -1.20229,-15.50766 -0.57971,-2.89852 3.51942,-3.71835 4.09912,-0.81983 z"
       inkscape:connector-curvature="0" />
    <path
       style="fill:#000000;fill-opacity:1;fill-rule:nonzero;stroke:none"
       id="path6265"
       d="m 241.01457,147.20255 c 6.24217,0.83947 12.57145,0.39916 18.84422,0.20322 3.64671,-0.12459 7.29345,-0.24803 10.94026,-0.36945 0.33139,-0.0111 0.66279,-0.022 0.99419,-0.0326 2.95461,-0.0883 3.07948,4.09013 0.12488,4.17844 l 0,0 c -0.32666,0.0105 -0.65332,0.0213 -0.97997,0.0322 -3.64968,0.12151 -7.29929,0.24507 -10.94887,0.36973 -6.54593,0.20439 -13.15072,0.65143 -19.66194,-0.25806 -2.91571,-0.48595 -2.22847,-4.60938 0.68723,-4.12343 z"
       inkscape:connector-curvature="0" />
    <path
       style="fill:none;stroke:#000000;stroke-width:3.11456704;stroke-linecap:butt;stroke-linejoin:miter;stroke-miterlimit:4;stroke-opacity:1;stroke-dasharray:3.11456693, 9.34370079;stroke-dashoffset:0"
       d="m 290.89289,161.30341 333.70125,304.4391"
       id="path6285"
       inkscape:connector-curvature="0" />
    <path
       style="fill:none;stroke:#000000;stroke-width:3.61063004;stroke-linecap:round;stroke-linejoin:miter;stroke-miterlimit:4;stroke-opacity:1;stroke-dasharray:none"
       d="M 290.96346,263.09476 521.40936,464.2785"
       id="path6287"
       inkscape:connector-curvature="0" />
    <path
       style="fill:#d9d9d9;fill-opacity:1;stroke:none"
       d="m 322.88893,459.9042 -31.2029,-0.4036 0.88577,-9.3785 c 0.48718,-5.15818 0.89023,-23.33027 0.89568,-40.38244 l 0.01,-31.00393 62.70459,0 62.70459,0 0,41.10634 0,41.10634 -32.39737,-0.3203 c -17.81856,-0.17617 -46.43868,-0.50193 -63.60027,-0.72391 z"
       id="path6293"
       inkscape:connector-curvature="0" />
    <path
       style="fill:#000000;fill-opacity:1;fill-rule:nonzero;stroke:none"
       id="path6295"
       d="m 521.94581,454.41971 c 0.61608,2.50495 0.91787,5.06089 1.12563,7.6268 0.12277,1.72323 0.164,3.45019 0.17276,5.17724 0.002,1.07606 -0.002,2.15212 -0.006,3.22817 -6.8e-4,0.17413 -0.002,0.34825 -0.003,0.52238 -0.0186,2.95586 -4.19883,2.92954 -4.18022,-0.0263 l 0,0 c 10e-4,-0.17109 0.002,-0.34218 0.003,-0.51328 0.004,-1.06336 0.008,-2.12674 0.006,-3.19011 -0.008,-1.62181 -0.0456,-3.24353 -0.15928,-4.86187 -0.18792,-2.33764 -0.4544,-4.66645 -1.01435,-6.94914 -0.71691,-2.86767 3.33858,-3.88154 4.05549,-1.01387 z"
       inkscape:connector-curvature="0" />
    <path
       style="fill:#000000;fill-opacity:1;fill-rule:nonzero;stroke:none"
       id="path6297"
       d="m 281.25416,261.49822 c 2.22456,0.67114 4.48108,0.40098 6.74768,0.17819 1.47758,-0.17334 2.95891,-0.31177 4.44522,-0.37754 0.71591,-0.0328 1.43247,-0.0347 2.14894,-0.0342 0.59992,0.002 1.19983,0.003 1.79974,0.004 0.0514,9e-5 0.10285,1.9e-4 0.15428,2.8e-4 2.95592,0.005 2.9483,4.18569 -0.008,4.1803 l 0,0 c -0.0515,-9e-5 -0.10295,-1.9e-4 -0.15443,-2.8e-4 -0.59838,-10e-4 -1.19676,-0.002 -1.79514,-0.004 -0.65431,-5.1e-4 -1.30872,2.6e-4 -1.96252,0.0302 -1.41146,0.0613 -2.81769,0.19828 -4.22087,0.36163 -2.73759,0.26738 -5.48465,0.50877 -8.16915,-0.28308 -2.86767,-0.71692 -1.8538,-4.77241 1.01387,-4.05549 z"
       inkscape:connector-curvature="0" />
    <path
       style="fill:#000000;fill-opacity:1;fill-rule:nonzero;stroke:none"
       id="path6299"
       d="m 241.0312,242.07767 c 1.15791,1.96903 2.08409,4.07291 3.08648,6.12854 1.21244,2.54663 2.49457,5.0634 3.61244,7.65654 -0.10847,0.33633 1.0582,1.72132 1.06737,2.04177 0.002,0.091 -0.0766,-0.2111 -0.16484,-0.21385 -0.33167,-0.0104 -0.6536,0.11873 -0.9804,0.1781 -0.0116,-2.0403 0.0724,-4.08254 0.1785,-6.12118 0.20511,-3.20827 0.65143,-6.39016 1.05369,-9.5762 0.20115,-1.01559 0.0377,-2.18799 0.67362,-3.04543 0.22295,-0.22013 0.46132,-0.29152 0.75445,-0.33215 1.08611,-0.0622 1.17133,1.52285 0.0852,1.58505 l 0,0 c 0.11715,-0.0282 0.20951,-0.0617 0.28346,-0.1681 0.0173,-0.0457 0.0293,-0.19376 0.0187,-0.14593 -0.16726,0.7538 -0.12423,1.55739 -0.29001,2.31165 -0.39723,3.14626 -0.83884,6.28827 -1.043,9.45634 -0.0267,0.51114 -0.13018,2.41867 -0.14495,2.98964 -0.0263,1.01743 0.0494,2.06238 -0.0595,3.07713 -0.0234,0.21809 -0.0793,0.43115 -0.11899,0.64672 -0.38183,0.1797 -0.7286,0.48936 -1.14549,0.53909 -0.38912,0.0464 -1.43641,-2.29932 -1.57364,-2.57803 -1.10574,-2.57082 -2.38119,-5.06297 -3.58085,-7.58764 -0.96171,-1.97257 -1.85862,-3.98445 -2.94296,-5.88957 -0.65266,-0.89802 0.57802,-1.8505 1.23069,-0.95249 z"
       inkscape:connector-curvature="0" />
    <path
       style="fill:#000000;fill-opacity:1;fill-rule:nonzero;stroke:none"
       id="path6301"
       d="m 255.87177,239.97141 c 0,2.52421 0,5.04841 0,7.57263 0.1048,3.07841 0.29324,6.15279 0.41917,9.23034 0.045,1.08856 0.069,2.17779 0.0955,3.26692 -0.51236,-0.10258 -1.02472,-0.20517 -1.53709,-0.30776 0.004,-1.12251 1.54185,-1.11739 1.53835,0.005 l 0,0 c -0.51304,0.11417 -1.02609,0.22834 -1.53913,0.3425 -0.0263,-1.08009 -0.0502,-2.16028 -0.0946,-3.23981 -0.1268,-3.09985 -0.318,-6.19646 -0.42054,-9.29731 0,-2.52421 0,-5.04841 0,-7.57262 0,-1.12252 1.53835,-1.12252 1.53835,0 z"
       inkscape:connector-curvature="0" />
    <path
       style="fill:#000000;fill-opacity:1;fill-rule:nonzero;stroke:none"
       id="path6303"
       d="m 263.09291,242.58601 c -1.20171,1.29077 -2.53377,2.44024 -3.82776,3.62937 -0.75723,0.73977 -1.54006,1.44526 -2.45499,1.96857 -0.64686,0.24722 -1.10417,0.60894 0.074,-0.45099 3.6e-4,0.1056 0.005,0.2111 0.009,0.31656 -0.0998,-0.43425 -0.72733,-0.72342 -0.071,-0.54803 1.74678,0.78323 3.40294,1.76297 5.09025,2.67188 1.67937,0.96886 3.51048,1.65871 5.13253,2.73187 0.29154,0.22908 0.59483,0.4602 0.82838,0.75615 0.0319,0.0404 -0.0604,-0.0943 -0.1089,-0.10879 -0.1755,-0.0524 -0.37137,-0.15345 -0.54179,-0.0856 -0.22571,0.09 -0.35294,0.34163 -0.52941,0.51244 -0.0132,0.0562 -0.0263,0.11237 -0.0394,0.16855 -0.30359,-1.07792 1.17363,-1.52096 1.47722,-0.44305 l 0,0 c 0.0246,0.19005 0.0491,0.3801 0.0736,0.57015 -0.18923,0.24024 -0.30313,0.57469 -0.56766,0.72071 -0.56138,0.30987 -1.06167,-0.49794 -1.43081,-0.75986 -1.56344,-1.0695 -3.38829,-1.68135 -5.00568,-2.65537 -1.58635,-0.85459 -3.15036,-1.75214 -4.76771,-2.54337 -0.424,-0.11541 -1.06608,-0.34319 -1.07564,-0.89889 -0.006,-0.13698 -0.0114,-0.27408 -0.0119,-0.41126 0.25232,-0.30037 0.5302,-0.57976 0.75697,-0.9011 0.0232,-0.0328 -0.15762,0.0241 -0.18291,0.0334 -0.0172,0.006 0.23845,-0.0899 0.14916,-0.0665 0.81804,-0.45897 1.4935,-1.11413 2.17313,-1.76306 1.27187,-1.16876 2.58204,-2.29752 3.76304,-3.56633 0.76918,-0.79375 1.85696,0.32877 1.08778,1.1225 z"
       inkscape:connector-curvature="0" />
    <path
       style="fill:#000000;fill-opacity:1;fill-rule:nonzero;stroke:none"
       id="path6305"
       d="m 239.28282,264.47122 c 2.04184,0.70773 4.26954,0.65044 6.39769,0.72939 5.58335,0.17217 11.16166,-0.29363 16.73531,-0.57569 2.9661,-0.14163 5.93314,-0.26476 8.90119,-0.35348 1.21469,-0.0249 0.86925,-0.28392 0.7358,1.57369 -0.1484,-0.0342 -0.2968,-0.0684 -0.4452,-0.10258 -1.03074,-0.35872 -0.53911,-1.86296 0.49162,-1.50423 l 0,0 c -0.0309,0.007 -0.0619,0.0134 -0.0929,0.02 0.11344,1.84576 0.53552,1.5637 -0.64482,1.59987 -2.95777,0.0884 -5.91454,0.21116 -8.87037,0.35226 -5.61722,0.28423 -11.23913,0.75273 -16.86613,0.57654 -2.34436,-0.0876 -4.80424,-0.0285 -7.03019,-0.89594 -0.97294,-0.502 -0.28496,-1.92188 0.68797,-1.41987 z"
       inkscape:connector-curvature="0" />
    <path
       style="fill:#000000;fill-opacity:1;fill-rule:nonzero;stroke:none"
       id="path6307"
       d="m 250.82713,271.0041 c 0.6141,2.46677 0.72744,5.04027 0.96927,7.56805 0.17003,2.55937 0.42485,5.10792 0.76133,7.64947 0.0262,0.18767 0.0519,0.37543 0.0786,0.56303 0.0185,0.12928 0.0376,0.25846 0.0569,0.3876 0.0131,0.087 0.13181,0.2604 0.0464,0.25989 -1.56926,-0.009 -1.491,0.49339 -1.48363,-0.27364 0.002,-0.19573 0.003,-0.39146 0.005,-0.58719 0.009,-1.12247 1.54729,-1.10936 1.53831,0.0131 l 0,0 c -0.002,0.20634 -0.003,0.41267 -0.005,0.61901 -0.0344,0.9019 0.11335,0.61391 -1.53525,0.65764 -0.0175,3.7e-4 -0.0897,-0.46332 -0.14486,-0.85006 -0.0273,-0.19144 -0.0535,-0.38304 -0.0802,-0.57456 -0.33891,-2.56111 -0.59676,-5.12932 -0.76803,-7.70835 -0.23061,-2.41089 -0.34228,-4.86326 -0.89777,-7.222 -0.34399,-1.06491 1.11542,-1.56691 1.4594,-0.502 z"
       inkscape:connector-curvature="0" />
    <path
       style="fill:#000000;fill-opacity:1;fill-rule:nonzero;stroke:none"
       id="path6309"
       d="m 250.50856,270.54093 c 1.50068,-0.57139 3.10733,-0.78071 4.69848,-0.80609 1.59795,0.15237 2.77452,0.37956 3.76966,1.75148 0.83835,1.74564 -0.21848,3.32659 -1.3113,4.63085 -1.18688,1.28325 -2.61397,2.3034 -4.06298,3.2459 -0.41124,0.24973 -0.81708,0.51602 -1.25429,0.71628 -0.62641,0.24855 -0.46766,-0.0657 -0.36541,-1.52619 0.006,-0.0861 0.63246,-0.0379 1.09795,0.0333 1.89937,0.57461 3.58745,1.71871 5.22702,2.83188 1.65458,1.15241 2.98003,2.6463 4.19582,4.25531 0.48078,0.52193 0.65221,1.248 1.0511,1.81526 0.0572,0.081 0.12443,0.15238 0.19531,0.22012 0.80537,0.75454 -0.2287,1.92988 -1.03407,1.17533 l 0,0 c -0.15591,-0.14907 -0.29966,-0.31055 -0.4241,-0.48894 -0.36979,-0.56105 -0.57665,-1.21592 -1.0015,-1.74578 -1.11226,-1.47274 -2.31327,-2.84943 -3.82887,-3.90564 -1.4665,-0.99835 -2.97129,-2.01828 -4.64915,-2.59442 -0.98317,-0.25126 -0.13977,0.52441 -0.97371,-1.56053 -0.0121,-0.0302 -0.0771,0.0257 -0.10567,0.0353 0.36444,-0.17281 0.70516,-0.39475 1.04997,-0.60472 1.32516,-0.85984 2.63339,-1.78774 3.72715,-2.95056 0.61173,-0.70314 1.50488,-1.67586 1.18724,-2.70143 -0.38388,-0.90132 -1.6872,-0.90293 -2.47305,-1.04545 -1.40114,0.009 -2.81984,0.20476 -4.14427,0.69264 -1.00997,0.41689 -1.58131,-1.05705 -0.57133,-1.47393 z"
       inkscape:connector-curvature="0" />
    <path
       style="fill:#000000;fill-opacity:1;fill-rule:nonzero;stroke:none"
       id="path6311"
       d="m 515.35483,478.69989 c 0.51783,1.44385 1.11141,2.83948 1.65836,4.26754 0.4814,1.18847 0.98142,2.37183 1.58006,3.47415 0.86248,1.30097 1.67097,2.64901 2.43934,4.04079 0.68688,1.24932 1.40752,2.46793 2.06337,3.74456 0.15809,0.31325 0.31504,0.6278 0.45307,0.95594 0.21188,0.59118 0.32484,0.84908 -1.37804,-0.25517 -0.1209,-0.0784 0.14573,-0.29045 0.20727,-0.44353 0.0528,-0.13124 0.0929,-0.27008 0.13479,-0.40743 0.25931,-0.85006 0.2105,-0.72021 0.42582,-1.66853 0.57206,-2.67421 1.07278,-5.3732 1.44763,-8.10316 0.17046,-1.41226 0.56643,-2.75659 0.83072,-4.1385 0.1124,-0.44576 0.0639,-0.81096 -0.0427,-1.24052 -0.0268,-0.0944 -0.0537,-0.18878 -0.0805,-0.28317 -0.0154,-0.005 -0.0308,-0.01 -0.0462,-0.015 -0.67737,-1.21474 0.68232,-2.42506 1.35969,-1.21032 l 0,0 c 0.31055,0.63969 0.20078,0.33064 0.36091,0.90817 0.18004,0.78809 0.24393,1.54985 0.0631,2.34703 -0.26624,1.33082 -0.62792,2.63292 -0.80632,3.99213 -0.38655,2.80566 -0.89914,5.58037 -1.48886,8.32854 -0.0569,0.24579 -0.67972,2.79798 -0.86937,2.85279 -0.52631,0.15212 -1.88494,-0.39023 -1.60459,0.279 -0.11237,-0.25655 -0.23673,-0.50697 -0.36178,-0.75459 -0.64517,-1.25731 -1.35601,-2.456 -2.03219,-3.68602 -0.77177,-1.39805 -1.59083,-2.74392 -2.44912,-4.0587 -0.64053,-1.19197 -1.18877,-2.45927 -1.70345,-3.74356 -0.54316,-1.41992 -1.13232,-2.80832 -1.64866,-4.24263 -0.52597,-1.32907 0.9617,-2.26886 1.48766,-0.93979 z"
       inkscape:connector-curvature="0" />
    <path
       style="fill:#000000;fill-opacity:1;fill-rule:nonzero;stroke:none"
       id="path6313"
       d="m 514.97305,501.70446 c 2.52404,0.0831 5.04362,-0.0573 7.56198,-0.25351 2.34517,-0.19295 4.69155,-0.36095 7.03898,-0.50292 0.48127,-0.0338 0.9629,-0.0532 1.44488,-0.0538 0.46885,-0.003 0.92452,0.07 1.36782,-0.13949 0.23075,-0.0693 0.13773,-0.0982 0.0913,-0.13335 0.69609,-1.19773 2.03673,0.0461 1.34064,1.24377 l 0,0 c -0.24477,0.38428 -0.50716,0.74105 -0.89874,0.88013 -0.62588,0.25416 -1.24675,0.29058 -1.89952,0.25038 -0.45596,4.1e-4 -0.91155,0.0195 -1.36683,0.0515 -2.33983,0.14148 -4.6786,0.309 -7.01617,0.50133 -2.65916,0.20698 -5.32668,0.37859 -7.9905,0.21669 -1.15326,-0.29142 -0.82707,-2.35206 0.32619,-2.06064 z"
       inkscape:connector-curvature="0" />
    <path
       style="fill:#000000;fill-opacity:1;fill-rule:nonzero;stroke:none"
       id="path6315"
       d="m 519.23242,509.03564 c 0.2437,2.21667 0.65908,4.39125 1.07828,6.5643 0.46238,2.59082 0.80128,5.20962 1.24581,7.80584 0.14647,0.91949 0.28723,1.84131 0.39146,2.77021 0.0172,0.12548 0.0218,0.25121 0.0224,0.37817 -0.0522,1.48448 -1.71383,1.39118 -1.66162,-0.0933 l 0,0 c 0.002,0.19355 0.005,0.10162 -0.008,0.009 -0.098,-0.87865 -0.23277,-1.75018 -0.37023,-2.62005 -0.44143,-2.57853 -0.78001,-5.17899 -1.23617,-7.75288 -0.41763,-2.16828 -0.84005,-4.33845 -1.07586,-6.55187 -0.28525,-1.44158 1.32835,-1.95126 1.61359,-0.50968 z"
       inkscape:connector-curvature="0" />
    <path
       style="fill:#000000;fill-opacity:1;fill-rule:nonzero;stroke:none"
       id="path6317"
       d="m 528.17351,509.94966 c -1.08803,1.30393 -2.25901,2.49469 -3.37786,3.75779 -1.09556,1.25187 -2.15449,2.55352 -3.20701,3.8626 -0.31939,0.40028 -0.64024,0.79876 -0.95598,1.20365 -0.16175,0.24322 -1.42667,0.5149 -0.39424,0.24525 0.1161,-0.11773 0.0257,0.0437 0.005,0.0981 0.25454,-0.54374 -1.11319,-1.41012 -0.50665,-1.39776 0.74636,-0.0546 1.47846,0.0725 2.21589,0.2043 1.91702,0.43061 3.8049,1.01524 5.67924,1.67658 1.25916,0.51477 2.49355,1.11283 3.67311,1.87179 0.33245,0.18225 0.67113,0.35736 1.02441,0.46488 0.0117,0.002 -0.0235,-0.004 -0.0351,-0.006 1.17203,0.12344 1.03386,2.21762 -0.13817,2.09418 l 0,0 c -0.0765,-0.011 -0.15277,-0.0234 -0.22744,-0.0484 -0.47517,-0.15137 -0.93472,-0.37367 -1.37944,-0.63245 -1.08042,-0.69763 -2.21248,-1.24115 -3.36473,-1.71977 -1.80402,-0.63662 -3.62035,-1.20149 -5.46488,-1.61985 -0.67172,-0.12016 -1.33208,-0.2401 -2.01234,-0.1839 -0.57966,-0.0139 -1.2785,-0.89252 -0.97922,-1.56962 0.13304,-0.36328 0.30695,-0.6957 0.55503,-0.95226 1.90228,-0.85112 -0.28905,0.25739 0.16464,1.8e-4 0.32171,-0.41243 0.64843,-0.81857 0.97389,-1.22626 1.07165,-1.33283 2.15,-2.65788 3.2657,-3.93215 1.09576,-1.23664 2.24114,-2.40471 3.30988,-3.6766 0.83163,-1.05072 2.00773,0.43522 1.1761,1.48594 z"
       inkscape:connector-curvature="0" />
    <path
       style="fill:#000000;fill-opacity:1;fill-rule:nonzero;stroke:none"
       id="path6319"
       d="m 388.07175,234.65718 c 0,-3.10744 0,-6.21489 0,-9.32233 -0.15503,-5.03919 0.75905,-9.9553 2.30774,-14.72514 3.06184,-7.45271 7.50673,-11.08336 14.30141,-15.08251 8.95867,-4.75389 18.59232,-8.06827 28.25397,-11.06736 3.44197,-0.77085 6.84483,-2.23386 10.40189,-2.38214 2.9559,-0.0104 2.97064,4.16986 0.0147,4.18028 l 0,0 c -2.0607,-0.29612 -7.11259,2.00451 -9.17776,2.19438 -9.36045,2.9034 -18.69633,6.10477 -27.38707,10.68604 -5.51698,3.18299 -9.99785,6.68597 -12.43386,12.77046 -1.43182,4.34487 -2.24739,8.83054 -2.10075,13.42599 0,3.10744 0,6.21489 0,9.32233 0,2.95592 -4.1803,2.95592 -4.1803,0 z"
       inkscape:connector-curvature="0" />
    <path
       style="fill:#000000;fill-opacity:1;fill-rule:nonzero;stroke:none"
       id="path6327"
       d="m 469.31946,160.52969 c -0.84386,3.88876 -2.18502,7.66227 -3.30339,11.48635 -1.15169,4.09361 -2.41497,8.15798 -3.70694,12.21554 -0.32626,0.9148 -0.92708,4.51825 -2.88703,4.02531 -0.60722,-0.15272 -0.87903,-0.82965 -1.31854,-1.24448 -0.63191,-3.8316 0.0504,-7.70863 0.84979,-11.47119 1.05882,-4.50236 2.99197,-8.79927 5.75471,-12.63575 0.96551,-1.02617 2.13391,-3.38106 3.69029,-3.80949 0.36338,-0.10003 0.7546,-0.0713 1.1319,-0.10703 0.42637,0.39273 0.95042,0.71264 1.2791,1.17819 0.26283,0.3723 0.557,2.39835 0.59714,2.63526 0.38555,2.27584 0.79994,4.5397 1.25568,6.80487 1.07378,5.1247 2.4047,10.19751 3.73805,15.26865 0.2306,1.21827 0.73748,2.39333 0.88163,3.62355 0.11001,1.74885 -2.57664,1.89207 -2.68665,0.14322 l 0,0 c -0.24897,-1.01738 -0.537,-2.14115 -0.81061,-3.18398 -1.34475,-5.11481 -2.68643,-10.23147 -3.7686,-15.40043 -0.4598,-2.28712 -0.88815,-4.57233 -1.2681,-6.87168 -0.0715,-0.43289 -0.13002,-0.86779 -0.21492,-1.29863 -0.0472,-0.23953 -0.39474,-0.56759 -0.18109,-0.71105 0.2392,-0.16061 0.55903,0.17973 0.83855,0.2696 0.16865,-0.0601 0.34109,-0.11191 0.50594,-0.18038 0.0477,-0.0198 -0.11086,0.005 -0.15264,0.0336 -0.16803,0.11654 -0.31618,0.25604 -0.46385,0.39396 -0.83099,0.77605 -1.44254,1.70755 -2.13298,2.58643 -2.58948,3.54905 -4.35061,7.56671 -5.35282,11.73838 -0.71946,3.35939 -1.29336,6.76447 -0.94161,10.19912 -1.57322,-0.66462 -0.49753,-0.52407 -2.05252,0.14935 -0.0824,0.0357 0.12035,-0.12793 0.16204,-0.20246 0.10886,-0.19465 0.19994,-0.39755 0.28744,-0.60113 0.38743,-0.90146 0.37254,-0.98697 0.67721,-2.02867 1.28642,-4.04017 2.54454,-8.08703 3.69093,-12.16319 1.09709,-3.74574 2.40602,-7.44287 3.24736,-11.24914 0.31284,-1.72794 2.96737,-1.32067 2.65453,0.40728 z"
       inkscape:connector-curvature="0" />
    <path
       style="fill:#000000;fill-opacity:1;fill-rule:nonzero;stroke:none"
       id="path6331"
       d="m 462.5757,175.14638 c 2.50927,0.42433 5.07024,0.50623 7.61412,0.59808 1.48204,-0.0482 2.98064,-0.16484 4.41418,-0.53429 0.0417,-0.0131 0.0834,-0.0261 0.12511,-0.0392 0.01,-0.004 0.019,-0.009 0.0285,-0.0131 1.76714,-0.6499 2.76553,1.65071 0.99839,2.3006 l 0,0 c -0.27039,0.0956 -0.12478,0.0478 -0.43788,0.14037 -1.70339,0.42638 -3.47273,0.58984 -5.23406,0.6212 -2.72755,-0.099 -5.47516,-0.18858 -8.16106,-0.67014 -1.84612,-0.42487 -1.19341,-2.82829 0.6527,-2.40342 z"
       inkscape:connector-curvature="0" />
    <path
       style="fill:#000000;fill-opacity:1;fill-rule:nonzero;stroke:none"
       id="path6333"
       d="m 501.14892,171.01739 c 0.91844,0.21137 1.83687,0.42274 2.7553,0.63412 1.11964,0.26422 0.57805,-0.0523 -1.22532,1.62974 0.0538,0.0979 0.14196,0.18545 0.16148,0.29369 0.0346,0.19186 -0.4221,-0.018 -0.63325,-0.0248 -0.85763,-0.0275 -1.66927,0.25945 -2.46904,0.49752 -2.58223,0.94679 -3.55427,3.2352 -4.30773,5.51724 -0.58469,2.79972 0.21533,4.71291 2.60952,6.4409 1.2842,0.48266 2.14939,0.13135 3.22692,-0.51399 1.63824,-0.89124 3.00741,1.24156 1.36915,2.1328 l 0,0 c -2.30286,1.1819 -3.84323,1.45974 -6.29782,0.30038 -3.32862,-2.57277 -4.31248,-5.12429 -3.47792,-9.09462 1.05511,-3.07482 2.57805,-5.95089 6.07124,-7.1462 2.0616,-0.58281 4.57242,-1.16601 6.18226,0.54184 -1.48756,1.98395 -0.67049,2.1064 -1.86218,1.82892 -0.91844,-0.21137 -1.83687,-0.42275 -2.75531,-0.63412 -1.84612,-0.42486 -1.19341,-2.82829 0.6527,-2.40342 z"
       inkscape:connector-curvature="0" />
    <path
       style="fill:#000000;fill-opacity:1;fill-rule:nonzero;stroke:none"
       id="path6335"
       d="m 512.50356,162.80344 c 0,4.19176 0,8.38352 0,12.57528 -0.0785,4.11778 0.28719,8.2277 0.64573,12.32858 0.028,0.30665 0.0556,0.61334 0.084,0.91996 0.0199,0.21476 0.0405,0.42946 0.0612,0.64415 0.0138,0.14281 0.0259,0.28578 0.0425,0.42834 0.004,0.0349 0.057,0.10655 0.0191,0.10364 -2.86695,-0.2201 -2.6678,0.48832 -2.64319,-0.89401 -0.1813,-2.84183 0.33313,-5.53341 1.52817,-8.14652 1.26614,-2.11368 2.95699,-3.9729 5.25508,-5.16074 3.27474,-0.94494 4.93774,2.07791 6.1731,4.32378 1.07517,2.0836 1.70586,4.31917 2.15291,6.57932 0.1847,0.98833 0.14563,0.54402 -0.54324,1.93208 -1.57855,0.97829 -3.08144,-1.0768 -1.50289,-2.05509 l 0,0 c -0.70709,1.77806 -0.40722,1.38814 -0.6018,0.56528 -0.39802,-2.02753 -0.95313,-4.0356 -1.90894,-5.90801 -0.35227,-0.64913 -1.60517,-3.17444 -2.48705,-3.25917 -1.80092,0.84422 -3.03168,2.41221 -4.06579,3.96311 -1.10893,2.29934 -1.45255,4.69921 -1.3088,7.20859 -0.028,1.43519 0.2141,0.88096 -2.70905,1.21824 -0.0205,0.002 -0.0869,-0.73056 -0.14304,-1.33547 -0.0287,-0.30954 -0.0565,-0.61916 -0.0848,-0.92874 -0.36426,-4.167 -0.73287,-8.3432 -0.65442,-12.52732 0,-4.19176 0,-8.38352 0,-12.57528 0,-1.75178 2.69116,-1.75178 2.69116,0 z"
       inkscape:connector-curvature="0" />
    <path
       style="fill:#000000;fill-opacity:1;fill-rule:nonzero;stroke:none"
       id="path6337"
       d="m 533.68714,174.94882 c 1.73822,-0.38447 0.55958,-0.37637 0.39357,0.31121 -0.0307,0.12711 0.0827,0.61408 0.14132,0.87341 -1.29927,-0.27076 -2.16727,0.88012 -2.81997,1.7258 -1.18334,2.13998 -1.77213,4.59826 -1.42248,6.98708 0.44034,0.97535 0.74069,1.76566 1.6364,0.7159 1.5617,-1.77769 1.86203,-4.14338 2.17801,-6.33673 0.15172,-1.39149 0.26547,-2.78951 0.26957,-4.18878 0.90939,-0.0269 1.8287,-0.20687 2.72818,-0.0807 0.0701,0.01 0.84256,3.9009 0.90228,4.19548 0.40921,2.36533 0.76113,4.78279 1.82303,6.98862 -1.50424,-0.76701 0.71929,0.92501 0.54808,0.68822 -0.4631,-0.64051 -0.32554,-0.0932 -0.40098,-0.48669 1.70376,-0.78025 2.9024,1.43783 1.19865,2.21808 l 0,0 c -0.41655,0.13622 -0.80768,0.40145 -1.24966,0.40865 -1.42566,0.0232 -2.03522,-0.82755 -2.56718,-1.84706 -1.09865,-2.39319 -1.60047,-4.95246 -1.99748,-7.51562 -0.2334,-1.15288 -0.4035,-2.33648 -0.69013,-3.47847 -0.0357,-0.14206 -0.27341,-0.3562 -0.1312,-0.42041 0.78642,-0.35504 1.68504,-0.44098 2.52755,-0.66148 -0.007,1.50628 -0.12437,3.01128 -0.29334,4.50887 -0.42248,2.88129 -0.93079,5.89996 -3.28646,8.02745 -0.41154,0.22789 -0.78216,0.53547 -1.23464,0.6837 -2.45955,0.80576 -4.12299,-1.19777 -4.63334,-3.12904 -0.34942,-3.03639 0.28654,-6.1007 1.94421,-8.76592 1.53926,-1.81683 3.50606,-3.36654 6.14567,-2.46581 0.27845,0.16199 0.63812,0.24312 0.83535,0.48598 1.31058,1.61378 -0.29359,2.71916 -1.89231,2.96171 -1.84612,0.42487 -2.49882,-1.97856 -0.6527,-2.40342 z"
       inkscape:connector-curvature="0" />
    <path
       style="fill:#000000;fill-opacity:1;fill-rule:nonzero;stroke:none"
       id="path6339"
       d="m 546.65865,176.344 c 0.4133,2.07275 0.89031,4.1351 1.25249,6.21712 0.17586,1.09835 0.34385,2.19849 0.4621,3.30357 -0.89073,-0.063 -1.8064,0.0137 -2.67221,-0.18901 -0.15287,-0.0358 0.003,-0.2904 0.004,-0.4356 0.001,-0.23692 -0.014,-0.47425 0.001,-0.71076 0.0836,-1.30457 0.43413,-2.51128 0.81527,-3.7641 0.93051,-2.47936 2.12839,-4.86123 4.09436,-6.78126 3.39738,-2.17736 4.61164,1.34634 5.22296,3.75306 0.70777,2.71945 1.09363,5.49467 1.364,8.27603 0.0956,0.53469 0.2362,1.06295 0.46601,1.56285 0.0474,0.10315 0.27225,0.35915 0.17118,0.29679 -0.30245,-0.1866 -0.58621,-0.39765 -0.8793,-0.59648 1.88139,0.26279 1.47769,2.71215 -0.40371,2.44937 l 0,0 c -0.35052,-0.20685 -0.72666,-0.38087 -1.05157,-0.62054 -0.6303,-0.46494 -0.76664,-2.25645 -0.9831,-2.87156 -0.2587,-2.67088 -0.62678,-5.33618 -1.30773,-7.94734 -0.0402,-0.16872 -0.74283,-2.25146 -0.74407,-2.35644 -6.4e-4,-0.0594 0.4767,-0.28541 0.41463,-0.34637 -0.0784,-0.077 -0.21486,0.0739 -0.3223,0.11088 -1.68791,1.60204 -2.6264,3.67077 -3.45172,5.74501 -0.3172,1.02178 -0.64487,2.02649 -0.71376,3.09411 -0.0311,0.48207 0.0352,1.22894 -0.007,1.24222 -0.85838,0.26773 -1.79668,0.22088 -2.69502,0.33131 -0.11224,-1.05536 -0.27454,-2.10577 -0.44127,-3.15477 -0.34853,-2.01177 -0.81417,-4.00337 -1.20586,-6.00723 -0.46153,-1.69948 2.14928,-2.30033 2.6108,-0.60086 z"
       inkscape:connector-curvature="0" />
    <path
       style="fill:#000000;fill-opacity:1;fill-rule:nonzero;stroke:none"
       id="path6341"
       d="m 563.94255,173.49479 c 1.08977,0.25892 2.19996,0.43877 3.30841,0.61525 1.18294,0.20505 0.27144,-0.22975 -0.88885,0.86773 -0.15174,0.14352 0.007,0.4005 0.0101,0.60074 0.63869,0.76205 -0.2626,0.27878 -0.75811,0.32827 -0.31382,0.0314 -0.56524,0.25904 -0.84377,0.39577 -1.57011,1.11161 -2.18236,2.89669 -2.60936,4.60487 0.14955,-0.16355 -0.46734,1.47448 -0.0109,1.4028 0.10096,-0.0159 0.0543,-0.43208 0.1632,-0.54298 1.34831,-0.76385 2.1368,-1.88873 2.65059,-3.2327 0.45715,-1.07624 0.42088,-2.06401 0.12653,-3.15244 -0.11146,-0.35087 -0.21744,-0.70725 -0.38523,-1.03975 0.49406,0.81806 -0.14149,-0.40674 2.58862,-0.48081 0.19661,-0.005 0.1495,0.33548 0.20788,0.50838 0.13269,0.39301 0.63689,2.13478 0.72317,2.42978 1.38316,3.95413 1.91604,8.06681 2.27664,12.18784 0.14938,3.47561 0.68125,7.12654 -0.59978,10.48923 -0.20333,0.53375 -0.50615,1.03083 -0.75922,1.54623 -1.39548,2.14829 -3.95867,3.73882 -6.76022,2.7438 -0.58339,-0.20721 -1.07813,-0.58341 -1.6172,-0.87511 -2.1889,-1.95389 -3.69653,-4.75445 -3.78042,-7.61 -0.0167,-0.56948 0.10113,-1.13558 0.1517,-1.70337 0.55815,-2.65843 2.41075,-4.50435 4.72123,-6.02222 1.56187,-1.00073 3.09922,1.03263 1.53736,2.03335 l 0,0 c -1.68694,1.04351 -3.09803,2.35991 -3.5811,4.23817 -0.35629,2.52555 0.55731,5.08398 2.41214,6.98349 1.84033,1.30479 3.19356,0.91796 4.47548,-0.83111 1.79874,-3.44743 1.36995,-7.07373 1.11751,-10.79415 -0.34532,-3.97104 -0.85283,-7.93344 -2.19275,-11.74213 -0.20315,-0.69472 -0.98379,-2.98433 -0.95266,-3.0172 0.60444,-0.63817 1.52708,-0.94715 2.32752,-1.36419 0.0109,-0.006 0.12265,0.19469 0.13008,0.20765 0.24917,0.48791 0.41813,1.00673 0.5738,1.52524 0.40749,1.56323 0.41312,3.06517 -0.21473,4.59295 -0.84163,2.05127 -2.15741,3.77006 -4.3659,4.74128 -0.41105,0.084 -0.81249,0.26854 -1.23316,0.25188 -2.48615,-0.0985 -2.83485,-2.27233 -2.34974,-4.0415 0.6398,-2.45777 1.66008,-4.85944 4.07935,-6.27726 1.79465,-0.73009 3.75438,-0.97438 5.19324,0.47442 0.061,0.31479 0.36171,0.67014 0.18307,0.94438 -0.88904,1.36474 -1.20628,1.22621 -2.20491,1.0698 -1.17355,-0.18699 -2.34845,-0.37915 -3.50232,-0.65296 -1.84612,-0.42487 -1.19342,-2.82829 0.6527,-2.40342 z"
       inkscape:connector-curvature="0" />
    <path
       style="fill:#000000;fill-opacity:1;fill-rule:nonzero;stroke:none"
       id="path6343"
       d="m 574.05447,179.9036 c 1.59527,-0.33291 3.31712,-0.45413 4.70228,-1.31568 1.00191,-0.53499 1.67623,-1.3205 1.63984,-2.41518 -0.25484,-1.16584 -1.50453,-1.50027 -2.65874,-1.58194 -2.36156,0.52487 -2.84118,2.99118 -3.05222,4.89421 0.30139,3.38507 1.96967,4.75195 5.16793,6.06238 1.65541,0.50048 3.08447,0.46974 4.57996,-0.3157 1.69737,-0.79195 2.914,1.41782 1.21663,2.20977 l 0,0 c -2.55217,1.10923 -4.18909,1.17191 -6.91513,0.35919 -4.34801,-1.86718 -6.48959,-4.02688 -6.722,-8.606 0.50763,-3.59305 1.66304,-6.64633 6.0814,-7.0594 2.59362,0.39101 4.78544,1.53843 4.98822,4.18993 -0.20304,1.88599 -1.06943,3.39648 -2.9049,4.36662 -1.68629,0.92082 -3.54802,1.31691 -5.47058,1.61522 -1.84611,0.42487 -2.49881,-1.97855 -0.65269,-2.40342 z"
       inkscape:connector-curvature="0" />
    <path
       style="fill:#000000;fill-opacity:1;fill-rule:nonzero;stroke:none"
       id="path6345"
       d="m 598.92757,173.49479 c 2.00323,0.34266 2.93689,0.96416 3.6999,2.73313 0.53152,2.31922 0.4828,4.71333 0.5021,7.07294 -0.0435,1.40061 0.26334,2.8459 -0.48503,4.11727 -1.02889,1.47364 -3.29276,0.13415 -2.26387,-1.33949 l 0,0 c 0.15806,0.37751 0.0594,-1.71377 0.0594,-1.78091 1.2e-4,-0.3261 -10e-4,-0.6522 -10e-4,-0.97831 -0.0169,-2.09345 0.008,-4.20566 -0.35294,-6.27796 -0.21478,-0.91282 -0.84733,-0.97104 -1.81069,-1.14325 -1.84611,-0.42487 -1.19342,-2.82829 0.6527,-2.40342 z"
       inkscape:connector-curvature="0" />
    <path
       style="fill:#000000;fill-opacity:1;fill-rule:nonzero;stroke:none"
       id="path6347"
       d="m 599.66506,167.29579 c 0.29932,-1.17842 0.86446,-2.28469 1.43168,-3.37133 0.10593,-0.1352 0.21185,-0.27039 0.31779,-0.40559 1.23759,-1.3307 3.28186,0.28049 2.04427,1.61119 l 0,0 c 0.0211,-0.0439 0.0421,-0.0879 0.0632,-0.13183 -0.48892,0.93491 -0.98939,1.88416 -1.24611,2.89842 -0.46153,1.69948 -3.07234,1.09862 -2.61081,-0.60086 z"
       inkscape:connector-curvature="0" />
    <path
       style="fill:#000000;fill-opacity:1;fill-rule:nonzero;stroke:none"
       id="path6349"
       d="m 608.57709,175.81255 c 0.40664,2.51888 0.57678,5.06248 0.70567,7.60407 0.0581,1.32373 0.0905,2.64823 0.10824,3.97288 -0.89712,-0.0992 -1.83793,-0.0244 -2.69136,-0.29763 -0.39797,-0.12741 0.84287,-4.80137 0.95163,-5.15143 0.94057,-2.81002 2.83833,-5.06086 5.31835,-6.85771 1.12811,-0.55848 3.32453,-1.90878 4.71813,-1.58343 0.43333,0.10117 0.80821,0.352 1.21231,0.52799 1.53228,1.90945 1.24524,4.54277 1.27946,6.8164 0.0254,1.87378 -0.0699,3.92894 1.17664,5.51017 0.92003,0.83884 1.98348,-0.07 2.90454,-0.52577 0.21545,-0.14256 0.43091,-0.28512 0.64637,-0.42769 1.5584,-1.00529 3.10277,1.02357 1.54437,2.02886 l 0,0 c -0.30644,0.1941 -0.61287,0.3882 -0.9193,0.58229 -2.38794,1.17547 -4.35249,1.88199 -6.41582,-0.28439 -1.42962,-2.07461 -1.70536,-4.42022 -1.62771,-6.84951 -0.0174,-1.18102 -0.0246,-2.36431 -0.12617,-3.54258 -0.0358,-0.4149 -0.17765,-0.82337 -0.16449,-1.23941 10e-4,-0.0393 0.057,-0.0585 0.0855,-0.0878 0.13462,-0.0104 0.27775,0.0134 0.40386,-0.0312 0.0646,-0.0229 -0.13542,-0.0265 -0.20313,-0.0398 -0.19638,0.0457 -0.39476,0.0847 -0.58914,0.13712 -0.59611,0.16084 -0.86723,0.25854 -1.43707,0.52971 -0.28555,0.13588 -0.55965,0.29126 -0.83948,0.43688 -2.05758,1.43974 -3.59476,3.29891 -4.38172,5.58708 -0.34382,1.08421 -0.59112,2.10569 -0.75001,3.22472 -0.0318,0.22399 -0.0793,0.44647 -0.0968,0.67179 -0.0146,0.18798 0.19334,0.50126 6.4e-4,0.56538 -0.85088,0.2834 -1.79382,0.22035 -2.69074,0.33053 -0.0174,-1.2964 -0.0489,-2.59267 -0.10552,-3.88817 -0.12348,-2.44383 -0.28514,-4.88962 -0.67198,-7.31212 -0.31284,-1.72795 2.3417,-2.13523 2.65454,-0.40728 z"
       inkscape:connector-curvature="0" />
    <path
       style="fill:#000000;fill-opacity:1;fill-rule:nonzero;stroke:none"
       id="path6351"
       d="m 639.13341,164.06332 c 1.10152,3.48439 1.78718,7.06116 2.58258,10.6109 0.79433,3.53774 1.99418,6.97428 3.34517,10.36005 0.26404,0.44715 0.33948,0.97314 0.59223,1.42558 0.11133,0.19928 -0.30696,-0.41891 -0.54893,-0.44337 -0.35933,-0.0363 -0.70214,0.31144 -1.05398,0.23508 -0.15993,-0.0347 0.10741,-0.2859 0.16111,-0.42885 0.69789,-3.09479 1.18446,-6.22497 1.89007,-9.32025 0.8747,-4.02973 2.47547,-7.85826 4.12489,-11.65956 0.53562,-0.96622 0.93774,-3.62941 2.78378,-3.38079 0.49542,0.0667 0.7443,0.61673 1.11646,0.92509 0.17625,0.67607 0.15475,1.37334 0.13112,2.06291 -0.061,1.75088 -2.75073,1.67153 -2.68978,-0.0793 l 0,0 c 0.012,-0.33807 -0.0258,-0.88122 0.0494,-1.08825 1.45077,0.92046 0.55396,0.74911 2.24445,0.0225 0.042,-0.0181 -0.0619,0.065 -0.0816,0.1036 -0.0888,0.17358 -0.16238,0.3534 -0.24259,0.53049 -0.36049,0.79597 -0.42745,0.9533 -0.81209,1.82284 -1.59208,3.66856 -3.14691,7.3602 -3.99037,11.24994 -0.74008,3.23816 -1.194,6.52677 -2.0304,9.74316 -1.52316,3.21394 -3.52685,1.33688 -4.16993,-0.86673 -1.39641,-3.50105 -2.63314,-7.05595 -3.45468,-10.71373 -0.77361,-3.45428 -1.44139,-6.93409 -2.49993,-10.32784 -0.60177,-1.66188 1.95129,-2.4453 2.55305,-0.78342 z"
       inkscape:connector-curvature="0" />
    <path
       style="fill:#000000;fill-opacity:1;fill-rule:nonzero;stroke:none"
       id="path6353"
       d="m 475.44846,203.1545 c -1.37727,0.90423 -3.06079,1.27941 -4.51537,2.02854 -1.36122,0.79713 -0.52563,0.75699 -0.43041,-0.16357 0.026,-0.25165 -0.16961,-0.48086 -0.25442,-0.72129 2.0602,0.94545 4.16731,1.69424 6.14887,2.79714 3.02953,1.89135 4.89426,4.59957 5.72944,7.83511 0.26941,2.35031 -0.57937,4.87926 -3.16088,5.86136 -0.55715,0.21197 -1.17432,0.25164 -1.76149,0.37746 -4.24079,-0.16799 -6.8802,-2.25331 -8.91353,-5.50666 -0.87351,-1.8817 -0.94475,-3.15002 0.0183,-4.96506 0.93561,-1.52541 3.27902,-0.30735 2.3434,1.21807 l 0,0 c -0.69786,0.73828 -0.33668,1.69649 -0.0176,2.53022 1.37069,2.29824 3.13976,3.89867 6.07735,4.28779 2.1559,-0.1844 2.88682,-1.33737 2.78894,-3.25896 -0.58515,-2.5883 -2.13973,-4.73428 -4.50191,-6.26237 -2.02897,-1.14238 -4.24127,-1.82549 -6.307,-2.8928 -0.29134,-0.37516 -0.77607,-0.67323 -0.87404,-1.1255 -0.23708,-1.09451 1.08927,-1.73077 1.84995,-2.1976 1.50686,-0.71666 3.15296,-1.18162 4.57678,-2.05773 1.70204,-0.78342 2.90556,1.43243 1.20352,2.21585 z"
       inkscape:connector-curvature="0" />
    <path
       style="fill:#000000;fill-opacity:1;fill-rule:nonzero;stroke:none"
       id="path6355"
       d="m 486.57023,197.971 c 0.54784,3.19472 0.61464,6.44186 0.71441,9.66903 0.0839,3.42765 0.10107,6.85626 0.10743,10.28464 -8e-5,0.95615 0.002,1.91233 -0.004,2.86847 -0.0713,-0.0653 0.037,0.13271 -0.001,0.11637 -2.76735,-1.18405 -2.364,-0.57132 -1.69609,-2.47734 0.47545,-2.12276 1.3547,-4.14556 2.4596,-6.05197 0.72448,-0.88178 1.30443,-2.70848 2.67271,-2.99381 0.40105,-0.0836 0.8224,-0.005 1.23359,-0.008 1.97073,0.91564 2.54703,2.85605 3.22786,4.64411 0.76741,1.9573 0.68065,4.06498 1.33591,6.0416 0.37316,1.01564 0.93174,2.26365 2.24503,2.41226 0.052,-0.14035 0.0185,-0.0652 0.10701,-0.22296 1.68357,-0.81654 2.93797,1.37527 1.2544,2.1918 l 0,0 c -1.33499,0.52421 -0.64394,0.38801 -2.07016,0.42109 -2.18372,-0.64822 -3.47997,-2.07715 -4.11742,-4.10108 -0.60955,-1.95193 -0.64487,-3.98264 -1.29532,-5.92556 -0.28718,-0.75939 -0.55329,-1.56299 -0.92197,-2.29299 -0.13328,-0.26388 -0.48382,-0.43449 -0.53328,-0.72191 -0.0107,-0.062 0.13527,-0.0161 0.20289,-0.0242 0.1514,-0.0541 0.31415,-0.0867 0.45419,-0.16237 0.0399,-0.0216 0.10211,-0.13167 0.0594,-0.11536 -0.74834,0.28576 -0.93151,1.57271 -1.48444,2.03061 -1.04392,1.7721 -1.82141,3.66916 -2.27085,5.64537 -0.36396,1.02282 -1.21996,4.61561 -3.55297,1.58048 0.006,-0.95002 0.004,-1.90007 0.004,-2.85011 -0.006,-3.40633 -0.0232,-6.81287 -0.10634,-10.21847 -0.0952,-3.08802 -0.1573,-6.19447 -0.66323,-9.25356 -0.3732,-1.71776 2.26569,-2.20362 2.63889,-0.48586 z"
       inkscape:connector-curvature="0" />
    <path
       style="fill:#000000;fill-opacity:1;fill-rule:nonzero;stroke:none"
       id="path6357"
       d="m 501.85731,211.79243 c 0.80901,2.51425 1.46421,5.07611 1.99113,7.65389 0.26435,0.8884 0.22438,1.84532 0.48488,2.73241 0.43448,1.70551 -2.18558,2.27116 -2.62007,0.56566 l 0,0 c -0.22442,-0.9373 -0.29248,-1.90146 -0.50976,-2.84091 -0.49266,-2.42104 -1.1175,-4.82164 -1.84486,-7.19096 -0.70673,-1.62649 1.79195,-2.54657 2.49868,-0.92009 z"
       inkscape:connector-curvature="0" />
    <path
       style="fill:#000000;fill-opacity:1;fill-rule:nonzero;stroke:none"
       id="path6359"
       d="m 499.35482,201.57188 c 0.91843,0.21137 1.83687,0.42274 2.7553,0.63411 0.14251,0.0328 0.28502,0.0656 0.42752,0.0984 0.33932,0.50087 0.73691,0.97203 1.01796,1.5026 0.19184,0.36214 -0.0843,2.0406 -0.17162,2.42296 -0.35635,0.89826 -1.31384,1.96154 -2.52713,1.64354 -0.37632,-0.0986 -0.66129,-0.38515 -0.99194,-0.57773 -0.64625,-0.79986 -0.75055,-1.78733 -0.80928,-2.75042 -0.0176,-0.34626 -0.0223,-0.69289 -0.014,-1.03939 0.0379,-0.73647 0.28667,-0.36563 1.57768,-1.25445 1.90286,0.0158 1.87869,2.49302 -0.0242,2.47729 l 0,0 c 0.38952,-0.37211 1.1344,-0.62745 1.1363,-1.14421 -0.007,0.27534 -6.5e-4,0.55082 0.0113,0.82598 0.0218,0.38267 0.12678,0.8638 0.0942,1.19952 -0.49779,-0.15692 -0.96682,-0.33721 -1.18724,0.1393 -0.0302,0.0652 0.18249,-0.24185 0.1377,-0.17078 0.16707,-1.25132 -0.5343,-2.62906 1.09745,-0.87079 -0.14251,-0.0328 -0.28501,-0.0656 -0.42753,-0.0984 -0.91842,-0.21138 -1.83686,-0.42275 -2.75529,-0.63412 -1.84612,-0.42487 -1.19342,-2.82829 0.6527,-2.40342 z"
       inkscape:connector-curvature="0" />
    <path
       style="fill:#000000;fill-opacity:1;fill-rule:nonzero;stroke:none"
       id="path6361"
       d="m 518.95882,199.03345 c -2.38305,0.54655 -3.54804,1.53292 -4.72486,3.46462 -1.4772,2.9415 -1.40838,6.15627 -1.28698,9.31774 0.29558,2.57617 0.8185,5.12219 1.12313,7.69752 0.16159,1.28789 0.35119,2.29216 -0.0772,3.51994 -1.00885,1.48533 -3.29068,0.17192 -2.28182,-1.31341 l 0,0 c -0.31509,1.76963 -0.0679,-1.70603 -0.31639,-1.93911 -0.30991,-2.6355 -0.86264,-5.2391 -1.13721,-7.87845 -0.13622,-3.6313 -0.12821,-7.30406 1.64956,-10.64876 1.6984,-2.6226 3.28104,-3.89803 6.52402,-4.64937 1.86598,-0.34355 2.39375,2.08573 0.52777,2.42928 z"
       inkscape:connector-curvature="0" />
    <path
       style="fill:#000000;fill-opacity:1;fill-rule:nonzero;stroke:none"
       id="path6363"
       d="m 506.31219,212.17148 c 2.32658,0 4.65317,0 6.97976,0 0.79835,0 1.5967,0 2.39505,0 1.90294,0 1.90294,2.47739 0,2.47739 l 0,0 c -0.79835,0 -1.5967,0 -2.39505,0 -2.32659,0 -4.65318,0 -6.97976,0 -1.90293,0 -1.90293,-2.47739 0,-2.47739 z"
       inkscape:connector-curvature="0" />
    <path
       style="fill:#000000;fill-opacity:1;fill-rule:nonzero;stroke:none"
       id="path6365"
       d="m 527.82057,196.98893 c 0.61304,2.55351 0.64257,5.18836 0.72838,7.79089 0.0907,4.88622 -0.32725,9.76839 -0.54369,14.64943 -0.11473,2.6439 -0.1895,5.28895 -0.24854,7.93433 -0.0251,1.10074 0.0879,0.27738 -2.69925,-0.15536 -0.0106,-1.75176 2.68053,-1.76554 2.69111,-0.0138 l 0,0 c -2.7821,0.39317 -2.70746,1.21437 -2.68245,0.11825 0.0594,-2.66211 0.13476,-5.32388 0.25021,-7.98451 0.21394,-4.82244 0.62657,-9.64603 0.54269,-14.47343 -0.0795,-2.42539 -0.098,-4.882 -0.64927,-7.26497 -0.46153,-1.69948 2.14928,-2.30033 2.61081,-0.60085 z"
       inkscape:connector-curvature="0" />
    <path
       style="fill:#000000;fill-opacity:1;fill-rule:nonzero;stroke:none"
       id="path6367"
       d="m 520.66501,212.99728 c 2.55608,0 5.11215,0 7.66823,0 1.68915,-0.078 3.44248,0.23983 5.06529,-0.30635 0.0595,-0.0268 0.11916,-0.0537 0.17873,-0.0806 1.73315,-0.7233 2.84432,1.53305 1.11117,2.25635 l 0,0 c -0.13764,0.0555 -0.27529,0.11091 -0.41293,0.16637 -1.93025,0.59172 -3.9333,0.44846 -5.94226,0.44157 -2.55608,0 -5.11215,0 -7.66823,0 -1.90293,0 -1.90293,-2.47738 0,-2.47738 z"
       inkscape:connector-curvature="0" />
    <path
       style="fill:#000000;fill-opacity:1;fill-rule:nonzero;stroke:none"
       id="path6371"
       d="m 542.4133,207.35246 c 1.13293,0.22275 2.27097,0.42282 3.40981,0.61807 0.26025,0.068 0.5075,0.0746 0.7718,0.0776 0.31982,7e-5 0.63963,-0.002 0.95944,-0.004 0.12331,-6e-4 0.2466,-0.001 0.36989,-0.002 -0.0661,0.82577 -0.0371,1.6627 -0.19819,2.47733 -0.0113,0.0571 -2.13448,-2e-5 -2.30571,-2e-5 -0.85583,2e-5 -1.71166,2e-5 -2.5675,3e-5 0.22424,0.2125 -1.07293,-0.19068 -0.68403,0 0.17428,0.0855 0.3841,-0.1249 0.37875,0.0978 -0.14757,0.70574 -0.59921,1.61722 -0.32972,2.32827 0.17078,0.71703 1.19603,0.67311 1.85393,0.86875 1.53602,0.39497 3.06882,0.66539 4.44473,1.43569 1.72078,0.89235 2.12214,2.51267 2.38611,4.18238 0.0982,2.13941 -0.6682,3.95166 -2.57907,5.17813 -2.79187,0.97807 -5.12336,-0.76369 -6.88631,-2.59806 -0.23041,-0.32637 -0.46082,-0.65273 -0.69124,-0.97909 -1.01833,-1.47984 1.25506,-2.80559 2.2734,-1.32574 l 0,0 c 0.15113,0.22809 0.30226,0.45619 0.45339,0.68429 0.86077,0.94673 1.98302,2.02412 3.3997,2.13219 1.10266,-0.50616 1.32119,-1.69451 1.3654,-2.74535 -0.1455,-0.98701 -0.15199,-1.93803 -1.19498,-2.45577 -1.05641,-0.77205 -2.60525,-0.66044 -3.80318,-1.15266 -1.70807,-0.51505 -3.36691,-0.97197 -3.68236,-2.85177 -0.15702,-1.35233 0.0751,-2.70807 0.6714,-3.9586 0.6563,-0.89184 1.42201,-1.43006 2.62406,-1.3179 0.85583,-1e-5 1.71165,-2e-5 2.56748,-2e-5 0.17182,-1e-5 2.29446,-0.0588 2.30642,0 0.1655,0.81423 0.14101,1.65162 0.21151,2.47743 -0.12329,5.9e-4 -0.24659,0.001 -0.36988,0.002 -0.33656,0.002 -0.67312,0.004 -1.00968,0.004 -0.41368,-0.005 -0.82443,-0.0309 -1.22832,-0.11922 -1.19246,-0.20447 -2.38431,-0.41325 -3.56974,-0.65015 -1.84612,-0.42487 -1.19343,-2.82829 0.65269,-2.40343 z"
       inkscape:connector-curvature="0" />
    <path
       style="fill:#000000;fill-opacity:1;fill-rule:nonzero;stroke:none"
       id="path6373"
       d="m 567.53075,209.00406 c 1.00404,0.25047 2.0135,0.46553 3.04145,0.61176 0.25333,0.0347 0.50742,0.0654 0.76252,0.0859 -0.42871,3.16854 0.009,2.46496 -2.53511,2.46651 -0.97862,-0.0577 -1.67245,0.13057 -2.17753,0.89063 -0.91427,2.0548 -0.97974,4.33717 -1.10844,6.52695 -0.0319,2.17101 -0.53058,3.42736 1.86722,4.33186 2.15732,0.75395 3.93874,0.0948 5.65051,-1.13692 0.1673,-0.17373 0.3346,-0.34745 0.50189,-0.52117 1.29755,-1.28139 3.26607,0.40785 1.96853,1.68924 l 0,0 c -0.2787,0.26672 -0.55738,0.53342 -0.83607,0.80014 -2.68749,1.85998 -5.19787,2.52951 -8.45611,1.39916 -0.45439,-0.21922 -0.9479,-0.38039 -1.36319,-0.65767 -2.13262,-1.42388 -2.16667,-3.84924 -2.01994,-6.03951 0.15819,-2.65202 0.2527,-5.4303 1.60804,-7.83501 1.11409,-1.3392 2.49058,-2.0202 4.36333,-1.92509 2.57909,-0.002 2.22703,-0.70656 2.37671,2.48389 -0.33982,-0.0239 -0.67786,-0.0644 -1.0149,-0.11084 -1.10839,-0.15883 -2.19894,-0.386 -3.28161,-0.65645 -1.84612,-0.42487 -1.19342,-2.82829 0.6527,-2.40342 z"
       inkscape:connector-curvature="0" />
    <path
       style="fill:#000000;fill-opacity:1;fill-rule:nonzero;stroke:none"
       id="path6375"
       d="m 578.95794,211.59973 c 1.03167,2.44514 0.75372,5.14715 0.97295,7.71978 0.22915,1.30593 0.0942,4.14389 1.91986,4.62479 1.17744,-1.22601 1.9952,-2.69346 2.72668,-4.19379 0.70619,-1.58822 1.18377,-3.2465 1.46018,-4.94109 0.1279,-1.29804 -0.0293,0.14677 0.8258,0.61337 -0.0106,0.002 -0.0207,0.005 -0.031,0.008 1.48656,-0.34647 0.71569,-2.4431 1.37393,-0.32357 0.64657,1.98319 1.19498,3.98937 2.05357,5.90718 0.49213,0.80653 0.96127,1.61782 1.59689,2.33828 0.17936,0.2033 0.78466,0.71379 0.68523,0.46841 -0.31426,-0.22894 -0.18316,-0.29707 -0.0155,-0.66004 0.88831,-1.54919 3.26825,-0.39271 2.37994,1.15649 l 0,0 c -0.66601,1.06762 -1.25603,1.87386 -2.71942,1.95929 -0.34551,-0.0807 -0.71275,-0.10485 -1.03654,-0.2421 -1.71129,-0.72536 -2.45303,-2.73268 -3.38161,-4.08289 -0.88649,-2.01041 -1.48875,-4.09916 -2.15418,-6.17721 -0.27384,-0.9304 -1.05259,-2.33975 0.63686,-2.76283 0.30666,-0.058 0.62017,-0.075 0.93246,-0.0488 1.21579,0.18876 1.78823,1.15315 1.5144,2.21728 -0.31773,1.91799 -0.85894,3.79606 -1.66884,5.5908 -0.97531,1.97314 -2.29837,5.05867 -4.9992,5.47079 -0.48521,0.074 -0.97959,-0.0822 -1.46938,-0.12326 -0.35544,-0.20621 -0.74919,-0.36496 -1.06632,-0.61865 -1.82284,-1.45821 -2.01717,-3.9496 -2.24699,-5.99001 -0.18622,-2.25845 0.0245,-4.62201 -0.69681,-6.80234 -0.85102,-1.56683 1.55602,-2.67476 2.40704,-1.10792 z"
       inkscape:connector-curvature="0" />
    <path
       style="fill:#000000;fill-opacity:1;fill-rule:nonzero;stroke:none"
       id="path6379"
       d="m 598.62053,210.69967 c -0.13675,2.49284 0.27205,4.9464 0.77245,7.38593 0.39484,1.98922 0.69278,3.99383 0.94298,6.00247 0.17309,1.56074 0.37006,0.89832 -2.60268,0.64644 -0.008,-1.69457 -0.008,-3.38917 -0.009,-5.08376 -0.0847,-2.36191 -0.14132,-4.61841 0.88537,-6.81609 1.07124,-1.8449 2.64613,-3.28395 4.682,-4.19167 2.03477,-0.6181 3.60346,0.45953 4.87988,1.80529 0.41694,0.48445 0.80891,0.9935 1.09161,1.5561 0.78031,1.59773 -1.67419,2.6136 -2.45449,1.01587 l 0,0 c -0.17428,-0.34649 -0.43096,-0.65329 -0.67825,-0.9574 -0.43051,-0.47257 -1.00357,-1.19987 -1.704,-1.17347 -1.4733,0.58705 -2.55534,1.69656 -3.3606,2.95778 -0.94658,1.83038 -0.62461,3.82519 -0.65037,5.80222 10e-4,1.68984 6.4e-4,3.37969 0.009,5.06952 -2.98013,0.38866 -2.58948,1.11111 -2.76207,-0.34877 -0.24253,-1.94933 -0.53128,-3.8948 -0.91385,-5.82535 -0.53021,-2.59059 -0.95483,-5.19879 -0.81908,-7.84511 0,-1.75179 2.69115,-1.75179 2.69115,0 z"
       inkscape:connector-curvature="0" />
    <path
       style="fill:#000000;fill-opacity:1;fill-rule:nonzero;stroke:none"
       id="path6385"
       d="m 614.82025,209.75889 c 1.87903,2.05449 3.08747,4.52727 4.2656,6.96095 0.95231,1.91612 1.93502,3.83291 2.57503,5.86075 -0.0369,-0.0753 0.32628,1.3207 0.29025,1.26615 -0.59996,-0.90839 -0.077,-0.52743 -0.62457,-0.8684 0.62233,0.28692 1.00163,0.74805 1.31268,1.2959 0.0157,0.0301 0.0831,0.0862 0.0471,0.0902 -0.8432,0.0942 -1.70758,0.344 -2.53995,0.18826 -0.23087,-0.0432 0.11118,-0.4215 0.16548,-0.63253 0.18413,-0.71561 0.33502,-1.42554 0.54234,-2.1373 0.61968,-2.10237 1.25729,-4.19183 1.64699,-6.34295 0.14454,-0.92509 0.28814,-1.85265 0.35159,-2.78612 0.006,-0.11888 -0.002,-0.23967 -0.006,-0.4629 0.24339,-0.92971 0.77854,-1.33647 1.68792,-1.59643 0.0393,-0.01 0.0787,-0.0191 0.11806,-0.0287 1.84502,-0.42889 2.50391,1.9731 0.65889,2.402 l 0,0 c -0.002,-3e-5 -0.003,-6e-5 -0.005,-9e-5 -0.39126,0.0988 1.00083,-0.58956 0.23082,-0.81473 0.004,0.21942 0.014,0.43916 3.8e-4,0.6584 -0.0715,1.01787 -0.22166,2.02985 -0.38322,3.03837 -0.40878,2.2317 -1.05674,4.40339 -1.70452,6.58424 -0.76954,2.55026 0.28672,2.19951 -3.20456,2.9735 -0.10774,-0.19183 -0.29576,-0.34742 0.19126,-0.0909 -0.95241,-0.43678 -1.19236,-1.1659 -1.3622,-2.0491 -0.59715,-1.92043 -1.55984,-3.72426 -2.44815,-5.54059 -1.09329,-2.26588 -2.20436,-4.57422 -3.95976,-6.4816 -1.14176,-1.40142 1.01116,-2.88785 2.15293,-1.48643 z"
       inkscape:connector-curvature="0" />
    <path
       style="fill:#000000;fill-opacity:1;fill-rule:nonzero;stroke:none"
       id="path6389"
       d="m 632.11848,213.95884 c 1.34757,0.5592 2.73427,1.00302 4.17481,1.30444 1.0861,0.0797 2.32243,0.40953 3.39601,0.1408 0.73451,-0.14095 1.17136,-0.67913 1.46367,-1.2831 0.37627,-1.02469 0.52826,-2.0824 0.28823,-3.14025 -0.46515,-0.40562 -1.45263,-0.37371 -2.07063,-0.42633 -1.52535,0.12072 -2.86525,0.77686 -4.02851,1.65471 -1.5224,1.52358 -1.87766,3.71526 -2.06604,5.70243 -0.0383,2.5438 0.9843,4.67946 3.25832,6.12468 2.2093,0.89697 4.25785,0.19948 6.21412,-0.84651 0.76065,-0.59032 0.41367,-0.28908 1.04931,-0.89549 1.33874,-1.24496 3.25129,0.49793 1.91253,1.74288 l 0,0 c -0.96337,0.88029 -0.4281,0.43953 -1.62472,1.30257 -2.92609,1.52453 -5.99658,2.21696 -9.14033,0.69592 -0.4627,-0.32377 -0.96584,-0.60366 -1.3881,-0.97129 -2.1997,-1.91512 -2.98253,-4.68634 -2.96043,-7.38503 0.28963,-2.67141 0.87341,-5.46337 3.06029,-7.4018 1.73395,-1.26256 3.71895,-2.16355 5.97595,-2.18865 1.89983,0.17877 3.78865,0.53784 4.45104,2.42442 0.3165,1.60335 0.1334,3.2028 -0.52789,4.72281 -0.74501,1.28714 -1.7723,2.31184 -3.394,2.60688 -1.48239,0.19862 -2.99621,0.0721 -4.46887,-0.16462 -1.4521,-0.30742 -2.88878,-0.7034 -4.22746,-1.31605 -1.84612,-0.42487 -1.19342,-2.82829 0.6527,-2.40342 z"
       inkscape:connector-curvature="0" />
    <path
       style="fill:#000000;fill-opacity:1;fill-rule:nonzero;stroke:none"
       id="path6391"
       d="m 312.15783,392.51194 c 0.47143,3.23405 1.59364,6.36994 2.35738,9.56175 0.85574,3.14593 1.51508,6.32449 2.01218,9.52364 0.0338,0.23776 0.0676,0.47552 0.10136,0.71329 0.23092,1.62656 -2.5023,1.90141 -2.73322,0.27484 l 0,0 c -0.0325,-0.22931 -0.0651,-0.45862 -0.0976,-0.68793 -0.48828,-3.14676 -1.13911,-6.27276 -1.98134,-9.367 -0.79746,-3.34068 -2.00933,-6.62193 -2.41142,-10.01859 0,-1.63813 2.75265,-1.63813 2.75265,0 z"
       inkscape:connector-curvature="0" />
    <path
       style="fill:#000000;fill-opacity:1;fill-rule:nonzero;stroke:none"
       id="path6393"
       d="m 309.90157,392.24193 c 2.78135,-0.79528 5.56534,-1.53136 8.52224,-1.51596 3.37791,0.46484 4.41596,2.3943 4.24609,5.05013 -0.66652,3.03994 -3.60498,4.5021 -6.77521,5.53775 -2.46204,0.56173 -5.07522,1.16562 -7.65083,0.9813 -1.37113,-0.71342 -1.83956,-0.57308 -0.12916,-2.45381 0.18752,-0.2062 3.02352,-0.35945 3.3688,-0.38232 1.94056,-0.12696 2.15391,2.18274 0.21334,2.3097 l 0,0 c -1.49789,0.0967 -0.71551,0.0334 -2.03858,0.16199 -0.15762,0.0153 -0.44889,0.17692 -0.47303,0.0449 -0.39273,-2.14776 1.03862,-1.34846 -0.61588,-1.9809 1.76288,0.32641 4.61067,-0.56307 6.34652,-0.84614 2.1394,-0.66777 4.41624,-1.52695 5.01034,-3.55926 0.17375,-1.12039 -0.0222,-2.3043 -1.55281,-2.54708 -2.58386,-0.0775 -5.01075,0.72043 -7.44952,1.35065 -1.80721,0.60839 -2.82952,-1.54259 -1.02231,-2.15097 z"
       inkscape:connector-curvature="0" />
    <path
       style="fill:#000000;fill-opacity:1;fill-rule:nonzero;stroke:none"
       id="path6397"
       d="m 323.73245,402.32494 c 1.14565,-0.26639 2.3125,-0.45271 3.48477,-0.61266 0.29767,-0.0393 0.59567,-0.0775 0.89551,-0.10289 0.20588,3.17364 0.32847,2.00493 -1.77769,2.39385 -1.3241,0.52956 -1.82854,1.66249 -2.30495,2.74946 -0.5731,1.38014 -0.53454,2.7968 0.85306,3.78143 1.65524,0.96559 3.28569,0.23976 4.73943,-0.6135 1.13052,-1.06983 2.60328,-2.32214 1.61121,-3.77906 -0.93398,-0.73104 -2.09074,-1.12081 -3.30439,-1.39141 -0.1878,-0.037 -0.37881,-0.0624 -0.57,-0.0838 -1.9455,0.0504 -2.0302,-2.26517 -0.0847,-2.31557 l 0,0 c 0.46484,-0.002 0.92224,0.067 1.37237,0.16288 2.0322,0.46842 3.89199,1.20779 5.1199,2.72146 0.16244,0.36905 0.39913,0.72065 0.48732,1.10715 0.49552,2.17167 -1.36734,4.10818 -3.09015,5.49771 -2.76776,1.53901 -5.35624,2.15201 -8.22386,0.3353 -2.21535,-2.00579 -2.44678,-3.64276 -1.48484,-6.2421 0.85841,-1.87407 1.97857,-3.60064 4.41472,-4.2133 2.62759,-0.32882 2.13936,-0.48231 2.47151,2.1982 -0.19955,0.019 -0.47018,0.0523 -0.68444,0.0811 -1.09593,0.14917 -2.18667,0.32243 -3.25716,0.57328 -1.88831,0.39731 -2.55592,-1.85019 -0.66762,-2.2475 z"
       inkscape:connector-curvature="0" />
    <path
       style="fill:#000000;fill-opacity:1;fill-rule:nonzero;stroke:none"
       id="path6399"
       d="m 339.53356,403.41926 c -0.40363,1.58532 -0.54135,3.21029 -0.66641,4.82527 0.007,0.24391 -0.30261,1.90919 0.25258,1.84398 -0.61443,-0.41597 -0.4531,-0.26681 -0.005,-0.77266 0.13582,-0.15309 0.5763,-0.88948 0.65095,-1.01086 0.48646,-0.91034 0.62556,-1.90063 1.14578,-2.7913 1.93773,-1.76368 2.78008,0.18835 3.60788,1.32412 0.88632,1.09841 2.11218,1.92396 3.49607,2.53882 1.49153,0.61766 2.70816,0.52123 4.01918,-0.30017 1.89596,-1.41092 2.29646,-3.18441 2.04384,-5.21259 -0.58434,-1.85011 -2.007,-3.15073 -3.85005,-4.18077 -0.34288,-0.16545 -0.69096,-0.32741 -1.05863,-0.44947 1.18833,-2.12117 0.46103,-2.49176 1.46491,-1.75727 1.42076,1.1197 -0.46075,2.81071 -1.8815,1.69101 l 0,0 c -0.002,-0.008 -0.004,-0.016 -0.006,-0.0241 0.25753,-0.73586 0.51505,-1.47173 0.77257,-2.20759 0.81674,0.11629 1.5454,0.46621 2.24506,0.82507 2.52664,1.44451 4.39438,3.32181 5.05562,5.89833 0.27731,3.03279 -0.41703,5.31015 -3.25099,7.34048 -2.38778,1.27319 -4.27796,1.45502 -6.86596,0.41358 -1.81026,-0.84188 -3.42724,-1.92423 -4.55939,-3.40473 -0.87933,-1.29969 -0.0733,-0.0509 -0.56372,-0.92666 -0.0463,-0.0827 -0.26561,-0.25193 -0.15798,-0.23978 0.56471,0.0638 1.34609,0.77812 1.80747,-0.0793 0.11526,-0.64036 -0.61944,1.77299 -0.64156,1.82282 -0.11977,0.26977 -0.25842,0.53332 -0.38764,0.79998 -0.75068,1.18167 -1.93464,2.91113 -3.85792,2.75921 -0.37776,-0.0298 -0.71086,-0.22349 -1.06629,-0.33523 -1.24423,-1.04039 -1.34614,-2.30174 -1.15668,-3.71618 0.13669,-1.75327 0.291,-3.51696 0.74272,-5.23596 0.47208,-1.58923 3.14255,-1.02735 2.67048,0.56187 z"
       inkscape:connector-curvature="0" />
    <path
       style="fill:#000000;fill-opacity:1;fill-rule:nonzero;stroke:none"
       id="path6401"
       d="m 358.63122,403.46199 c 1.78681,0.61428 3.62826,0.8601 5.53667,0.63074 1.20279,-0.32501 2.15035,-1.01231 2.62888,-1.99358 0.0387,-0.89252 -0.94138,-1.54418 -1.74168,-2.00118 -1.39339,-0.60668 -2.02474,-0.73821 -2.94894,0.37328 -1.30262,1.75812 -1.88041,3.83475 -1.6625,5.88912 0.39565,2.08248 2.124,3.14233 4.31074,3.86448 1.61532,0.39834 3.36318,0.55878 4.93253,-0.0264 1.81405,-0.59378 2.81182,1.56533 0.99777,2.15912 l 0,0 c -2.29649,0.69709 -4.6363,0.67806 -6.96563,0.0139 -3.31802,-1.16223 -5.41392,-2.73039 -6.0208,-5.84283 -0.19425,-2.67755 0.48939,-5.33759 2.32559,-7.5725 2.2693,-2.02358 3.81485,-2.04386 6.64246,-0.73645 1.89637,1.19471 3.3431,2.74997 2.63245,4.84542 -0.97636,1.69553 -2.56999,2.8736 -4.78534,3.32602 -2.45463,0.23814 -4.83384,-0.0151 -7.11323,-0.85699 -1.74093,-0.7326 -0.50991,-2.80469 1.23103,-2.0721 z"
       inkscape:connector-curvature="0" />
    <path
       style="fill:#000000;fill-opacity:1;fill-rule:nonzero;stroke:none"
       id="path6403"
       d="m 376.45518,402.08516 c 0.61309,1.49499 1.34265,2.95017 2.1704,4.36963 -0.17694,0.15891 1.95555,3.07181 0.80525,1.90563 -0.71079,0.13071 -1.40635,0.43206 -2.13235,0.39214 -0.20099,-0.011 0.0317,-0.33898 0.0209,-0.50825 -0.0128,-0.19933 -0.0585,-0.39621 -0.0913,-0.59392 -0.14116,-0.85124 -0.39685,-1.64354 -0.66687,-2.47165 -0.21508,-1.09108 -1.43828,-2.10749 -1.34603,-3.25512 0.0226,-0.28061 0.13488,-0.55093 0.20231,-0.82639 0.36962,-0.25818 0.68916,-0.5779 1.10885,-0.77452 0.59287,-0.27776 4.24108,-0.53005 5.10661,-0.6326 1.40264,-0.0599 3.20442,-0.67777 4.48298,0.10924 0.29176,0.17958 0.47886,0.45579 0.71829,0.6837 0.11435,0.2501 0.22868,0.50021 0.34303,0.75031 0.59092,1.56082 -2.03183,2.26414 -2.62274,0.70333 l 0,0 c 1.2e-4,-0.0516 2.3e-4,-0.10322 3.5e-4,-0.15482 0.16502,0.0226 0.64942,-0.0705 0.0958,-0.0595 -0.8808,0.0175 -1.75579,0.21979 -2.63393,0.26182 -1.11248,0.13181 -2.22685,0.29325 -3.34351,0.39685 -0.23642,0.022 -0.47466,0.0267 -0.71211,0.0383 -0.0972,0.005 -0.29333,0.0929 -0.29189,0.0109 0.003,-0.17599 0.19991,-0.3092 0.29986,-0.4638 -0.009,-0.11736 -0.0183,-0.23466 -0.0258,-0.35207 -0.0109,-0.16896 0.0354,0.34146 0.10717,0.49954 0.37243,0.82096 0.90041,1.59529 1.1656,2.45244 0.17444,0.5363 1.24479,4.05515 0.82244,4.4093 -0.63381,0.53146 -1.48772,0.83681 -2.23159,1.25521 -0.86568,-0.77117 -1.09847,-1.81679 -1.65287,-2.75647 -0.91079,-1.56568 -1.71863,-3.17122 -2.36917,-4.82739 -0.47208,-1.58923 2.19839,-2.1511 2.67047,-0.56188 z"
       inkscape:connector-curvature="0" />
    <path
       style="fill:#000000;fill-opacity:1;fill-rule:nonzero;stroke:none"
       id="path6407"
       d="m 310.67629,422.51833 c -2.38913,0.69474 -3.42165,2.72435 -4.25497,4.55938 -0.92692,2.7935 -1.41634,6.00126 0.12673,8.7271 0.25689,0.45379 0.65243,0.84212 0.97865,1.26318 2.86634,2.49235 4.82134,1.90745 7.22172,-0.55996 2.46757,-3.71363 1.97269,-6.61461 -0.19686,-10.30214 -1.60412,-2.22609 -3.92795,-3.88425 -6.64332,-5.0771 0.0244,-0.094 -1.15955,-0.33813 -0.86137,-0.29265 -1.94405,-0.0808 -1.80818,-2.3947 0.13587,-2.31385 l 0,0 c 0.7123,0.059 1.36967,0.28904 2.0075,0.55642 3.22902,1.43993 5.97467,3.43614 7.83969,6.11908 0.38444,0.68309 0.84365,1.33978 1.1533,2.04926 1.58375,3.62871 1.12413,7.5451 -1.36119,10.78457 -0.54546,0.50327 -1.01189,1.07646 -1.63639,1.50979 -2.49884,1.73395 -5.81223,1.83725 -8.38698,0.15447 -0.61086,-0.39924 -1.07364,-0.93718 -1.61046,-1.40578 -0.41908,-0.58906 -0.92234,-1.14112 -1.25723,-1.76718 -1.73521,-3.24394 -1.2154,-6.9917 -0.0727,-10.2902 1.20999,-2.54853 2.8066,-5.10331 6.15037,-5.96189 1.88831,-0.3973 2.55592,1.85019 0.66762,2.2475 z"
       inkscape:connector-curvature="0" />
    <path
       style="fill:#000000;fill-opacity:1;fill-rule:nonzero;stroke:none"
       id="path6409"
       d="m 323.93516,429.67487 c -0.5238,1.95987 -1.12206,3.89575 -1.22019,5.91197 -0.28354,0.30852 1.07096,3.79875 1.82662,2.92582 1.85779,-1.19399 2.63352,-3.0335 3.29444,-4.8426 0.0669,-0.95729 1.28134,-3.52252 0.53121,-4.40235 1.18019,1.09852 0.21485,0.59936 2.28847,0.27427 0.26899,-0.0422 -0.002,0.46087 -0.0212,0.6906 -0.0523,0.6348 -0.0546,0.90154 -0.0802,1.56319 0.0574,1.70154 0.85089,3.20797 1.85339,4.64533 0.53753,0.57357 1.44438,1.44636 2.43766,1.28764 0.22873,-0.1483 0.11943,-0.0616 0.32177,-0.26552 1.59828,-0.93493 3.1693,0.96738 1.57101,1.90231 l 0,0 c -1.22735,0.62873 -0.57098,0.40248 -1.96899,0.679 -2.0303,-0.13598 -3.60545,-0.99456 -4.73638,-2.43215 -1.26443,-1.81876 -2.19118,-3.74924 -2.22962,-5.89302 0.0554,-1.39686 -0.388,-3.94926 2.18874,-3.97495 0.43431,-0.004 0.64316,0.49143 0.96473,0.73715 0.7206,1.9373 -0.009,3.95834 -0.49251,5.87773 -0.81941,2.18801 -1.92438,4.91763 -4.55019,6.05936 -0.48785,0.21211 -1.05047,0.26956 -1.5757,0.40435 -0.49165,-0.0827 -1.01468,-0.0806 -1.47492,-0.24799 -2.22176,-0.80784 -2.73421,-3.34934 -2.89782,-5.09797 0.13569,-2.16788 0.71101,-4.25754 1.29928,-6.36405 0.47208,-1.58922 3.14255,-1.02735 2.67047,0.56188 z"
       inkscape:connector-curvature="0" />
    <path
       style="fill:#000000;fill-opacity:1;fill-rule:nonzero;stroke:none"
       id="path6411"
       d="m 343.42328,418.30186 c 0.1819,3.34327 -0.0287,6.69068 0.10342,10.03709 0.0798,3.09135 0.4284,6.16156 1.16908,9.18984 0.53817,1.54905 -0.28842,0.12158 -2.55081,0.91247 -0.75728,-1.50906 1.77851,-2.41038 2.53578,-0.90132 l 0,0 c 0.10203,0.27348 0.58209,0.65248 0.3061,0.82045 -2.68237,1.63248 -2.62851,0.9025 -2.98747,-0.36562 -0.7685,-3.15713 -1.14125,-6.35754 -1.22387,-9.58007 -0.12199,-3.18408 -0.0162,-6.36574 -0.0227,-9.55096 -0.47208,-1.58923 2.19839,-2.1511 2.67047,-0.56188 z"
       inkscape:connector-curvature="0" />
    <path
       style="fill:#000000;fill-opacity:1;fill-rule:nonzero;stroke:none"
       id="path6413"
       d="m 337.24581,427.99307 c 2.39891,0.41155 4.86333,0.47514 7.30305,0.55936 1.63427,0.0471 3.26924,0.075 4.90437,0.0892 1.94631,0.017 1.91786,2.33348 -0.0285,2.31655 l 0,0 c -1.66334,-0.0145 -3.32653,-0.0429 -4.989,-0.091 -2.62631,-0.0911 -5.27885,-0.16513 -7.85758,-0.62658 -1.88831,-0.39731 -1.2207,-2.64481 0.66761,-2.2475 z"
       inkscape:connector-curvature="0" />
    <path
       style="fill:#000000;fill-opacity:1;fill-rule:nonzero;stroke:none"
       id="path6415"
       d="m 353.76175,428.76529 c 1.07049,0.25085 2.16123,0.42412 3.25716,0.57328 1.21058,0.15832 1.39534,-0.007 0.0271,2.38138 -0.11296,0.1972 -1.62573,-0.34599 -1.8412,-0.42168 -1.83548,-0.95633 -1.5495,-2.51719 -0.57975,-3.87487 1.39171,-1.30127 3.21542,-2.01877 5.2482,-2.26458 2.80649,0.0641 4.12076,1.84636 4.93237,3.8712 0.60607,1.92118 0.61541,3.80435 -0.51403,5.5698 -1.32751,1.54967 -3.07383,2.17003 -5.28604,1.9374 -1.6697,-0.39569 -3.05293,-1.26051 -4.36186,-2.18306 -0.32118,-0.23764 -0.64923,-0.47284 -0.92186,-0.75152 -0.34336,-0.36228 -0.2855,-0.86694 -0.27551,-1.30416 0.002,-0.0575 0.001,-0.11497 0.002,-0.17244 0.005,0.78612 1.87128,0.0301 2.75205,0.26314 0.0604,0.016 -2.9e-4,2.7137 -2.7e-4,3.85321 0.0107,3.98571 0.42721,7.96274 0.66344,11.94263 0.11062,1.9432 0.19955,3.88741 0.25237,5.83235 0.002,0.0499 0.0609,0.16705 0.005,0.14977 -0.79872,-0.24799 -1.60412,-0.50398 -2.33401,-0.8728 -0.0913,-0.0461 0.56873,-1.65836 0.81519,-2.49378 0.47162,-1.58932 3.14225,-1.02799 2.67063,0.56133 l 0,0 c -0.0754,0.25282 -1.02311,3.10758 -1.12662,3.12603 -2.81521,0.50168 -2.75144,0.47682 -2.78236,-0.41766 -0.0521,-1.92406 -0.14034,-3.84737 -0.24966,-5.76969 -0.23836,-4.01835 -0.65886,-8.03378 -0.66687,-12.05814 -2e-5,-1.12657 -2e-4,-2.25313 6e-5,-3.37969 3e-5,-0.15884 -0.1787,-0.42595 2.1e-4,-0.47652 0.87717,-0.24798 1.83517,-0.20117 2.75275,-0.30175 1.2e-4,0.006 2.5e-4,0.0124 3.8e-4,0.0186 -1.8e-4,0.0802 -3e-5,0.16037 -0.003,0.24053 -0.0184,0.78655 0.11404,0.60996 -0.31398,-0.17414 0.17062,0.14174 0.34909,0.27672 0.5288,0.41025 0.92957,0.65828 1.8968,1.29421 3.03847,1.67154 1.03792,0.2357 1.78863,-0.15071 2.46865,-0.82801 0.91217,-1.044 0.52873,-2.50005 0.26854,-3.67404 -0.3463,-0.93657 -0.72493,-2.03637 -1.99266,-2.28966 -1.24881,0.0697 -2.31498,0.59993 -3.27689,1.24393 -0.18228,0.17139 -0.22052,0.17703 -0.32374,0.38309 -0.0231,0.0462 0.0108,0.13363 -0.0472,0.14499 -0.0599,0.0117 -0.14927,-0.19314 -0.26846,-0.0659 0.1795,0.0657 0.37455,0.10431 0.54301,0.18822 0.85803,0.42741 1.05326,2.76022 -0.24412,2.2716 -1.17226,-0.15995 -2.33912,-0.34626 -3.48476,-0.61266 -1.88831,-0.3973 -1.22069,-2.64481 0.66761,-2.2475 z"
       inkscape:connector-curvature="0" />
    <path
       style="fill:#000000;fill-opacity:1;fill-rule:nonzero;stroke:none"
       id="path6417"
       d="m 370.03785,428.8759 c 0.92952,1.67001 1.20206,3.51361 1.76836,5.2805 0.33729,0.75895 0.80446,1.35666 1.63749,0.72173 1.41852,-1.30851 2.06475,-2.93369 2.53517,-4.62452 0.23568,-1.0829 0.40035,-2.17965 0.43818,-3.28085 -0.19901,-0.75817 2.7365,-0.79765 2.71933,0.2667 -0.063,1.69937 -0.0313,3.36954 0.3475,5.04172 0.36954,1.69237 1.06899,3.31981 1.87957,4.89481 0.23253,0.0912 0.70731,0.22913 -0.36715,-0.12213 1.93427,-0.18278 2.2414,2.11942 0.30713,2.3022 l 0,0 c -1.24807,-0.14284 -1.81876,-0.31605 -2.46661,-1.26073 -0.88991,-1.73522 -1.65279,-3.52808 -2.05943,-5.3916 -0.39343,-1.8269 -0.47505,-3.64814 -0.39329,-5.50286 0.0314,-1.38881 3.18375,-1.46222 2.78434,-0.15782 -0.0471,1.25791 -0.22931,2.51119 -0.51165,3.74674 -0.67297,2.34945 -1.66002,4.63103 -4.00403,6.16958 -0.43974,0.14819 -0.8545,0.36733 -1.3192,0.44456 -2.13608,0.35497 -3.57503,-1.14231 -4.18532,-2.64513 -0.51709,-1.61857 -0.77503,-3.30285 -1.57244,-4.84685 -0.87047,-1.46519 1.59159,-2.50123 2.46205,-1.03605 z"
       inkscape:connector-curvature="0" />
    <path
       style="fill:#000000;fill-opacity:1;fill-rule:nonzero;stroke:none"
       id="path6419"
       d="m 389.30646,414.20366 c 1.29698,2.90452 1.36212,6.08963 1.55257,9.15433 0.0924,3.45943 0.17943,6.90479 0.62784,10.34594 0.14113,0.93149 0.25569,1.86758 0.45079,2.79272 0.18288,0.54137 -2.03186,0.0136 -2.70045,0.008 0.0278,-1.63797 2.78013,-1.60492 2.75237,0.033 l 0,0 c -2.57876,0.51139 -2.54584,1.29406 -2.76271,0.36122 -0.20347,-0.97528 -0.33092,-1.96077 -0.47628,-2.9429 -0.45322,-3.48495 -0.55175,-6.97419 -0.64048,-10.47766 -0.16982,-2.75177 -0.22345,-5.602 -1.2657,-8.23886 -0.87047,-1.4652 1.59159,-2.50124 2.46205,-1.03605 z"
       inkscape:connector-curvature="0" />
    <path
       style="fill:#000000;fill-opacity:1;fill-rule:nonzero;stroke:none"
       id="path6421"
       d="m 384.04099,427.22084 c 2.8473,0.43808 5.75413,0.52521 8.64089,0.46632 3.08693,-0.12588 6.17002,-0.31151 9.25247,-0.49828 1.21063,0.0356 2.24239,-0.58474 0.27699,0.63249 -0.35275,0.68741 0.92252,1.25856 -0.12285,0.80561 -1.73036,-0.75012 -0.46987,-2.80963 1.26049,-2.05951 l 0,0 c 0.92736,0.40225 1.78645,0.91183 1.49736,1.92397 -1.27325,0.94055 -1.2228,0.9766 -2.71432,1.00813 -3.12748,0.1895 -6.25561,0.37821 -9.38778,0.50366 -3.13146,0.0559 -6.28707,-0.0323 -9.37087,-0.53489 -1.88831,-0.3973 -1.22068,-2.64481 0.66762,-2.2475 z"
       inkscape:connector-curvature="0" />
    <path
       style="fill:#000000;fill-opacity:1;fill-rule:nonzero;stroke:none"
       id="path6423"
       d="m 418.19039,376.81999 c 1.42665,-0.35666 2.85329,-0.71332 4.27994,-1.06998 0.22137,-0.0553 0.44273,-0.11069 0.66409,-0.16603 0.5436,4.2194 1.34557,4.18701 -0.81786,4.1417 -1.50648,0.14299 0.30538,-0.41325 -0.77336,0.28998 -0.24574,0.16266 -0.48122,0.33974 -0.70815,0.52729 -0.89748,0.56816 -1.61283,0.57303 -2.60605,0.57058 -0.48267,-0.002 -0.96533,-0.005 -1.44798,-0.008 -2.34863,-1.52865 -2.76144,-2.1086 -1.6805,-4.62545 0.44531,-1.27575 1.19817,-2.39266 1.98749,-3.47661 0.64547,-0.96755 0.98003,-1.04317 2.17521,-1.63371 1.32411,-0.22412 2.49994,0.25294 3.54225,1.04893 0.36382,0.10351 0.72753,0.24781 1.09678,0.35434 -0.22916,0.15818 -2.83912,-3.18855 1.80702,2.37548 3.8e-4,0.81119 -0.007,1.62237 -0.0104,2.43356 -0.002,0.45228 -0.003,0.90457 -0.004,1.35685 0.0187,1.23015 -1.57083,2.1915 -2.74399,2.17639 -0.70848,-0.009 -1.41705,-0.01 -2.12557,-0.0105 -0.43942,-5.1e-4 -0.87884,-7.3e-4 -1.31826,-6.8e-4 -0.15951,1.6e-4 -0.31903,1.5e-4 -0.47854,1.7e-4 -2.95592,2.9e-4 -2.95634,-4.18001 -4.2e-4,-4.18031 l 0,0 c 0.15929,-2e-5 0.31859,0 0.47788,-1.7e-4 0.44171,-5e-5 0.88342,1.7e-4 1.32513,6.9e-4 0.72455,10e-4 1.44914,10e-4 2.17364,0.0108 1.41977,0.0183 -1.43094,3.0894 -1.49017,1.99398 0.001,-0.45485 0.003,-0.90969 0.004,-1.36454 0.003,-0.78767 0.0101,-1.57533 0.0107,-2.36301 2.59935,2.26043 2.59342,1.86277 1.2551,1.59932 -0.90134,-0.25312 -1.78593,-0.58124 -2.57061,-1.10244 -0.44112,-0.38786 0.66736,-0.12255 -0.31276,-0.19754 1.79446,-1.11224 0.97603,-0.68134 0.56376,-0.0335 -0.61232,0.8369 -1.20603,1.67335 -1.5274,2.67173 -0.0861,0.19803 -0.0664,0.69303 -0.25831,0.59411 -0.72207,-0.37216 2.10544,-2.45846 -1.87005,-1.80819 0.47688,0.003 0.95376,0.006 1.43065,0.008 1.20169,0.003 0.65292,0.04 -0.1535,0.46031 0.38485,-0.32395 0.78648,-0.62722 1.20839,-0.9019 0.94612,-0.59616 1.97004,-1.07628 3.11646,-0.94521 1.9965,0.03 0.94334,-0.42032 1.73726,4.09304 -0.22137,0.0553 -0.44273,0.11068 -0.6641,0.16602 -1.42664,0.35666 -2.85329,0.71332 -4.27994,1.06999 -2.86767,0.71691 -3.88154,-3.33858 -1.01387,-4.0555 z"
       inkscape:connector-curvature="0" />
    <path
       style="fill:none;stroke:#000000;stroke-width:1px;stroke-linecap:butt;stroke-linejoin:miter;stroke-opacity:1"
       d="m 293.31814,377.96934 125.75755,0.69672 0,82.9094"
       id="path6425"
       inkscape:connector-curvature="0" />
  </g>
</svg>
