<?xml version="1.0" encoding="UTF-8" standalone="no"?>
<!-- Created with Inkscape (http://www.inkscape.org/) -->

<svg
   xmlns:dc="http://purl.org/dc/elements/1.1/"
   xmlns:cc="http://creativecommons.org/ns#"
   xmlns:rdf="http://www.w3.org/1999/02/22-rdf-syntax-ns#"
   xmlns:svg="http://www.w3.org/2000/svg"
   xmlns="http://www.w3.org/2000/svg"
   xmlns:sodipodi="http://sodipodi.sourceforge.net/DTD/sodipodi-0.dtd"
   xmlns:inkscape="http://www.inkscape.org/namespaces/inkscape"
   width="647.55798"
   height="491.44186"
   id="svg2985"
   version="1.1"
   inkscape:version="0.48.0 r9654"
   sodipodi:docname="MotorTorqueCurve.pdf">
  <defs
     id="defs2987" />
  <sodipodi:namedview
     inkscape:document-units="mm"
     pagecolor="#ffffff"
     bordercolor="#666666"
     borderopacity="1.0"
     inkscape:pageopacity="0.0"
     inkscape:pageshadow="2"
     inkscape:zoom="0.7176508"
     inkscape:cx="495.83219"
     inkscape:cy="142.79619"
     inkscape:current-layer="layer1"
     id="namedview2989"
     showgrid="false"
     fit-margin-left="0.2"
     fit-margin-top="0.3"
     fit-margin-right="0.8"
     fit-margin-bottom="0.2"
     units="in"
     inkscape:window-width="1280"
     inkscape:window-height="752"
     inkscape:window-x="0"
     inkscape:window-y="0"
     inkscape:window-maximized="0" />
  <metadata
     id="metadata2991">
    <rdf:RDF>
      <cc:Work
         rdf:about="">
        <dc:format>image/svg+xml</dc:format>
        <dc:type
           rdf:resource="http://purl.org/dc/dcmitype/StillImage" />
        <dc:title></dc:title>
      </cc:Work>
    </rdf:RDF>
  </metadata>
  <g
     inkscape:label="Layer 1"
     inkscape:groupmode="layer"
     id="layer1"
     transform="translate(-30.348905,-23.40108)">
    <rect
       style="color:#000000;fill:none;stroke:#000000;stroke-width:1.77165353;stroke-linecap:round;stroke-linejoin:round;stroke-miterlimit:4;stroke-opacity:1;stroke-dasharray:none;stroke-dashoffset:0;marker:none;visibility:visible;display:inline;overflow:visible;enable-background:accumulate"
       id="rect2994"
       width="499.3902"
       height="380.94827"
       x="105.63089"
       y="51.286907" />
    <path
       style="fill:none;stroke:#000000;stroke-width:3.54330707;stroke-linecap:butt;stroke-linejoin:miter;stroke-miterlimit:4;stroke-opacity:1;stroke-dasharray:none;stroke-dashoffset:0"
       d="m 105.90109,210.40874 285.65425,220.16278 0,1.39344"
       id="path2996"
       inkscape:connector-curvature="0" />
    <path
       style="fill:none;stroke:#000000;stroke-width:2.48031497;stroke-linecap:butt;stroke-linejoin:miter;stroke-miterlimit:4;stroke-opacity:1;stroke-dasharray:2.48031496, 7.44094488;stroke-dashoffset:0"
       d="M 105.90109,122.62231 500.2433,430.57152"
       id="path2998"
       inkscape:connector-curvature="0" />
    <flowRoot
       xml:space="preserve"
       id="flowRoot3768"
       style="font-size:22px;font-style:normal;font-weight:normal;text-align:center;line-height:125%;letter-spacing:0px;word-spacing:0px;text-anchor:middle;fill:#000000;fill-opacity:1;stroke:none;font-family:Times New Roman;-inkscape-font-specification:Times New Roman"
       transform="translate(-186.72034,-25.081838)"><flowRegion
         id="flowRegion3770"><rect
           id="rect3772"
           width="196.4744"
           height="66.884903"
           x="500.24329"
           y="190.90065"
           style="font-size:22px;text-align:center;text-anchor:middle" /></flowRegion><flowPara
         id="flowPara3774">A change in V shifts location of curve</flowPara></flowRoot>    <path
       style="fill:#000000;fill-opacity:1;fill-rule:nonzero;stroke:none"
       id="path3812"
       d="m 393.64549,423.04431 c 0.18599,3.31076 -0.17993,6.5653 -0.65254,9.83361 -0.31147,2.21218 -0.57415,4.43242 -0.69817,6.66358 -0.0326,0.68429 -0.0527,1.36921 -0.0518,2.05428 0.004,0.12314 -7.5e-4,-0.005 -10e-4,-0.01 0.22693,2.9472 -3.94104,3.26813 -4.16797,0.32093 l 0,0 c -0.005,-0.0939 -0.012,-0.18771 -0.0108,-0.28184 -0.005,-0.7734 0.0239,-1.54667 0.0583,-2.31916 0.13441,-2.35238 0.40286,-4.69412 0.73458,-7.0265 0.44439,-3.07205 0.79985,-6.1216 0.6095,-9.23524 0,-2.95593 4.1803,-2.95593 4.1803,0 z"
       inkscape:connector-curvature="0" />
    <path
       style="fill:#000000;fill-opacity:1;fill-rule:nonzero;stroke:none"
       id="path3816"
       d="m 95.927257,208.54767 c 2.24038,0.0306 4.479853,-0.0657 6.718813,-0.1324 1.835,-0.0551 3.6706,-0.081 5.50633,-0.0932 0.58695,-0.0524 1.17386,0.11483 1.72604,-0.11914 2.88161,-0.65863 3.81305,3.41659 0.93144,4.07521 l 0,0 c -0.89564,0.16503 -1.71899,0.29408 -2.62976,0.22415 -1.80348,0.0119 -3.60683,0.0373 -5.4096,0.0914 -2.61615,0.0779 -5.246943,0.26315 -7.857133,0.009 -2.86767,-0.71691 -1.8538,-4.77241 1.01387,-4.05549 z"
       inkscape:connector-curvature="0" />
    <flowRoot
       xml:space="preserve"
       id="flowRoot3834"
       style="font-size:20px;font-style:normal;font-weight:normal;line-height:125%;letter-spacing:0px;word-spacing:0px;fill:#000000;fill-opacity:1;stroke:none;font-family:Times New Roman;-inkscape-font-specification:Times New Roman"
       transform="translate(-3.4669067e-6,-168.60568)"><flowRegion
         id="flowRegion3836"><rect
           id="rect3838"
           width="128.19606"
           height="59.917721"
           x="578.2757"
           y="590.81659" /></flowRegion><flowPara
         id="flowPara3842"
         style="font-size:32px">ω</flowPara></flowRoot>    <flowRoot
       xml:space="preserve"
       id="flowRoot3844"
       style="font-size:36px;font-style:normal;font-weight:normal;line-height:125%;letter-spacing:0px;word-spacing:0px;fill:#000000;fill-opacity:1;stroke:none;font-family:Times New Roman;-inkscape-font-specification:Times New Roman"
       transform="matrix(-0.00794046,-0.99996848,0.99996848,-0.00794046,-106.66043,169.10422)"><flowRegion
         id="flowRegion3846"><rect
           id="rect3848"
           width="124.19096"
           height="84.674385"
           x="54.343979"
           y="178.35973"
           style="font-size:36px"
           ry="0" /></flowRegion><flowPara
         id="flowPara3850"
         style="font-size:22px">Torque</flowPara></flowRoot>    <flowRoot
       xml:space="preserve"
       id="flowRoot3852"
       style="font-size:20px;font-style:normal;font-weight:normal;line-height:125%;letter-spacing:0px;word-spacing:0px;fill:#000000;fill-opacity:1;stroke:none;font-family:Times New Roman;-inkscape-font-specification:Times New Roman"><flowRegion
         id="flowRegion3854"><rect
           id="rect3856"
           width="12.540918"
           height="111.47483"
           x="135.16322"
           y="163.03194" /></flowRegion><flowPara
         id="flowPara3858"></flowPara></flowRoot>    <path
       style="fill:none;stroke:#000000;stroke-width:3.54330707;stroke-linecap:butt;stroke-linejoin:miter;stroke-miterlimit:4;stroke-opacity:1;stroke-dasharray:none"
       d="m 105.90109,362.29319 193.68752,0 0,69.67177"
       id="path3864"
       inkscape:connector-curvature="0" />
    <path
       style="fill:#a0a0a0;stroke:none"
       d="m 106.75705,397.54711 0,-32.74573 95.45032,0 95.45033,0 0,32.74573 0,32.74573 -95.45033,0 -95.45032,0 0,-32.74573 z"
       id="path3866"
       inkscape:connector-curvature="0" />
    <path
       style="fill:#000000;fill-opacity:1;fill-rule:nonzero;stroke:none"
       id="path3868"
       d="m 50.650397,192.07132 c 1.80239,2.48412 3.53556,5.00913 5.27319,7.53261 1.3817,2.0702 2.82148,4.10652 4.29338,6.12208 0.85645,1.18811 0.91945,0.63482 -1.61065,1.18406 0.22388,-1.79264 0.53362,-3.58609 0.78656,-5.37921 0.43432,-3.63149 0.87111,-7.26427 1.54195,-10.86539 0.25337,-1.26596 0.4987,-2.5346 0.81343,-3.789 0.0234,-0.1009 0.0551,-0.19947 0.0892,-0.29754 0.56154,-1.48567 2.82071,-0.7471 2.25917,0.73857 l 0,0 c -0.006,0.0219 -0.0103,0.0441 -0.0165,0.0658 -0.30519,1.2123 -0.53935,2.43921 -0.78579,3.66257 -0.66602,3.57097 -1.09494,7.17405 -1.52716,10.7751 -0.24254,1.7143 -0.53617,3.44178 -0.767,5.14829 -2.38599,0.90117 -1.83196,1.27991 -2.76425,0.008 -1.48391,-2.0322 -2.93575,-4.08513 -4.32896,-6.17227 -1.78309,-2.58966 -3.57901,-5.17046 -5.39844,-7.73765 -0.75727,-1.40853 1.38461,-2.40451 2.14188,-0.99598 z"
       inkscape:connector-curvature="0" />
    <path
       style="fill:#000000;fill-opacity:1;fill-rule:nonzero;stroke:none"
       id="path3870"
       d="m 69.028557,188.22407 c 0.44721,3.72517 1.06716,7.42935 1.55608,11.14985 0.34297,2.69308 0.58039,5.39675 0.73107,8.10476 0.008,0.42201 0.0615,0.84606 0.0266,1.26811 -2.65529,-0.28274 -2.38941,0.19641 -2.39485,-1.25348 -0.006,-1.57477 2.38879,-1.58252 2.39468,-0.008 l 0,0 c 0.005,1.42567 0.29182,0.96927 -2.37908,1.00884 -0.0112,0.1731 -0.0165,-0.83743 -0.0388,-0.90076 -0.14747,-2.6562 -0.38051,-5.30811 -0.71659,-7.94968 -0.48652,-3.70555 -1.10508,-7.3947 -1.54968,-11.10495 -0.23947,-1.55895 2.13115,-1.87391 2.37062,-0.31495 z"
       inkscape:connector-curvature="0" />
    <path
       style="fill:#000000;fill-opacity:1;fill-rule:nonzero;stroke:none"
       id="path3872"
       d="m 80.658057,191.95064 c -2.39238,1.50941 -4.69168,3.14671 -7.01101,4.75204 -1.67275,1.19996 -3.36247,2.38339 -4.95485,3.67584 -0.29627,0.24978 -0.59992,0.49338 -0.87901,0.76011 0.58234,-0.65734 -0.3443,0.32646 -1.10191,-1.85403 -0.0324,-0.0931 1.57621,-0.0945 1.63405,-0.0938 2.30635,-0.0418 4.57527,0.35849 6.83357,0.74156 2.48451,0.49552 4.97629,1.05754 7.31332,2.00012 0.75598,0.35698 1.51266,0.75169 2.10234,1.32774 0.17457,0.20724 0.0894,0.0916 0.24865,0.35126 0.71559,1.42725 -1.45475,2.36842 -2.17035,0.94117 l 0,0 c 0.11385,0.17451 0.0574,0.10847 0.15323,0.2092 -0.34363,-0.35098 -0.86778,-0.55258 -1.3008,-0.79191 -2.1489,-0.90271 -4.489,-1.35835 -6.77611,-1.84665 -2.12806,-0.36103 -4.26441,-0.74962 -6.4382,-0.70564 -0.78283,-0.0111 -3.57684,-0.18369 -2.23517,-1.81173 0.32888,-0.31966 0.6904,-0.6088 1.04234,-0.90578 1.6398,-1.32938 3.37596,-2.55073 5.09919,-3.78408 2.38289,-1.64923 4.74341,-3.33422 7.20866,-4.87513 1.452,-0.81022 2.68406,1.09949 1.23206,1.9097 z"
       inkscape:connector-curvature="0" />
    <path
       style="fill:#000000;fill-opacity:1;fill-rule:nonzero;stroke:none"
       id="path3874"
       d="m 52.451557,213.37138 c 4.23502,-0.12561 8.46573,-0.39997 12.70289,-0.5373 5.08119,-0.30147 10.16146,-0.60677 15.24849,-0.81053 1.59157,-0.0547 3.18318,-0.11787 4.77573,-0.14293 1.05884,-0.009 0.28783,0.0117 0.0636,2.23453 -1.69186,0.065 -1.79063,-2.16024 -0.0988,-2.22519 l 0,0 c 0.20687,2.25137 0.8967,2.21245 0.0755,2.21742 -1.57164,0.0245 -3.14236,0.0875 -4.71305,0.14119 -5.09359,0.2039 -10.18028,0.51131 -15.26815,0.81125 -4.26494,0.13802 -8.52314,0.41657 -12.78623,0.53864 -1.6933,0 -1.6933,-2.22708 0,-2.22708 z"
       inkscape:connector-curvature="0" />
    <path
       style="fill:#000000;fill-opacity:1;fill-rule:nonzero;stroke:none"
       id="path3880"
       d="m 65.752197,220.8678 c -0.0567,2.81549 0.018,5.62077 0.2245,8.42948 0.22331,2.7696 0.40749,5.54147 0.52122,8.31683 0.0219,0.69931 0.0549,1.39867 0.0581,2.09838 -2.13417,0.0282 -2.28706,0.41312 -2.59771,-0.88906 -0.36598,-1.53756 1.9721,-2.01891 2.33809,-0.48135 l 0,0 c 0.38005,1.60057 0.68254,1.36514 -2.13505,1.37909 -0.002,-0.67434 -0.0364,-1.34834 -0.0564,-2.0223 -0.11268,-2.75303 -0.29596,-5.50255 -0.5174,-8.24987 -0.20964,-2.85919 -0.28744,-5.7152 -0.23007,-8.5812 0,-1.57479 2.39469,-1.57479 2.39469,0 z"
       inkscape:connector-curvature="0" />
    <path
       style="fill:#000000;fill-opacity:1;fill-rule:nonzero;stroke:none"
       id="path3882"
       d="m 63.848147,219.25471 c 1.52426,-0.33415 2.99976,-0.82057 4.53574,-1.11827 1.13071,-0.21594 2.2829,-0.28754 3.43418,-0.31417 0.79126,-0.0113 1.58267,-0.005 2.37397,-0.002 0.85454,0.12375 1.46749,0.57078 1.82802,1.28265 0.16853,0.36203 0.12449,0.75651 0.12006,1.14057 0.0636,0.94733 -0.28073,1.82943 -0.7365,2.65808 -0.60462,1.09888 -1.56382,1.93728 -2.59687,2.6848 -1.27767,0.89073 -2.58587,1.7459 -3.93737,2.53739 -0.972,0.53891 -2.04626,0.74833 -3.15835,0.82996 -0.39408,0.0203 -0.7896,0.0346 -1.18406,0.015 -3.72908,-2.25969 0.92642,-2.25472 1.45124,-2.25284 1.14972,0.007 2.29945,0.0119 3.44919,0.0149 1.36077,-0.10741 2.58896,0.231 3.80045,0.77343 1.18459,0.57439 2.07682,1.47412 2.89725,2.43146 0.7974,1.10708 1.24948,2.39358 1.78169,3.6256 0.29044,0.60349 0.50786,1.21674 0.59697,1.87298 0.006,0.0619 0.046,0.24203 0.0179,0.18564 -0.57534,-1.15514 0.2022,-0.0364 0.38005,0.20592 0.0823,0.11168 0.16167,0.22512 0.23989,0.33927 0.014,0.0204 0.0262,0.0418 0.0393,0.0628 0.81188,1.38196 -1.2896,2.44978 -2.10148,1.06782 l 0,0 c 0.009,0.0143 0.0173,0.029 0.0269,0.0429 -0.0601,-0.0865 -0.12026,-0.17299 -0.18297,-0.2579 -0.30732,-0.41932 -0.73276,-0.86439 -0.79685,-1.37798 -0.0565,-0.46473 -0.24224,-0.88125 -0.44189,-1.3114 -0.44656,-1.03429 -0.83296,-2.10687 -1.43358,-3.06917 -0.59753,-0.70007 -1.2147,-1.38004 -2.07101,-1.81536 -0.89687,-0.41164 -1.74222,-0.65139 -2.75938,-0.54892 -1.15063,-0.003 -2.30124,-0.008 -3.45185,-0.0149 -1.61874,-0.006 -1.16396,0.23125 -1.30432,-2.19763 0.28793,0.0127 0.57648,0.002 0.86416,-0.0122 0.72437,-0.0492 1.4246,-0.1513 2.06596,-0.49465 1.28961,-0.75302 2.53491,-1.57008 3.75357,-2.4184 0.78491,-0.55076 1.51557,-1.16972 1.96098,-1.99819 0.35265,-0.46797 0.45686,-1.047 0.43641,-1.6022 0.003,-0.23683 -0.0365,-0.70306 0.0776,-0.2304 0.0993,0.0911 0.20231,0.0828 0.35621,0.0581 -0.76768,-0.004 -1.53546,-0.01 -2.30311,10e-4 -1.00824,0.0222 -2.01778,0.0808 -3.00832,0.26885 -1.5045,0.28553 -2.94409,0.78082 -4.43902,1.09775 -1.64274,0.38195 -2.22354,-1.77864 -0.58079,-2.16058 z"
       inkscape:connector-curvature="0" />
    <path
       style="fill:#000000;fill-opacity:1;fill-rule:nonzero;stroke:none"
       id="path3884"
       d="m 382.57518,451.71816 c 2.1663,2.22293 3.72497,4.81741 5.12456,7.43036 1.13189,2.06416 2.14532,4.17432 2.86383,6.36953 0.75061,1.16686 0.0301,-0.47891 -1.27171,0.40267 -0.35771,0.47724 0.11735,-0.63621 0.19307,-0.81908 0.83594,-1.42013 1.30392,-2.94758 1.78462,-4.47321 0.51626,-1.91124 1.02443,-3.82247 1.53209,-5.73572 0.49399,-1.56162 1.00102,-3.1082 1.63117,-4.63474 0.21836,-0.59761 0.41621,-1.20222 0.55458,-1.81723 0.0458,-0.23943 0.27442,0.0446 2.48354,0.26576 -0.0931,1.49404 -2.58058,1.3822 -2.48748,-0.11183 l 0,0 c 2.33579,-0.10865 2.65236,-0.76062 2.44986,0.24657 -0.16362,0.71636 -0.38946,1.42185 -0.6499,2.11696 -0.59883,1.45 -1.0813,2.91702 -1.5519,4.40024 -0.51602,1.94031 -1.02887,3.87911 -1.55569,5.81702 -0.4967,1.57633 -0.97865,3.16131 -1.84118,4.62855 -0.1676,0.40432 -0.2231,0.87664 -0.53232,1.36593 -1.3686,1.1625 -2.65517,0.14284 -3.13914,-1.08652 -0.68044,-2.09042 -1.65725,-4.0953 -2.73186,-6.06072 -1.31843,-2.4759 -2.79478,-4.93347 -4.84891,-7.03503 -1.05683,-1.1969 0.93594,-2.4664 1.99277,-1.26951 z"
       inkscape:connector-curvature="0" />
    <path
       style="fill:#000000;fill-opacity:1;fill-rule:nonzero;stroke:none"
       id="path3900"
       d="m 387.57037,477.48646 c 0.46819,2.50186 0.71826,5.02986 1.13778,7.53971 0.56723,3.08463 0.91227,6.19278 1.17259,9.3055 0.044,0.71247 0.12163,1.42472 0.13109,2.13859 -0.0176,0.791 0.0272,0.0732 -2.53626,0.0976 -0.55129,-1.42095 1.81452,-2.08319 2.36581,-0.66223 l 0,0 c -0.77367,0.19155 -1.54735,0.3831 -2.32103,0.57466 2.1e-4,0.003 4.2e-4,0.006 6e-4,0.01 -0.0165,-0.67027 -0.0781,-1.33922 -0.12494,-2.00825 -0.25594,-3.06355 -0.59507,-6.1226 -1.1542,-9.1584 -0.4061,-2.43744 -0.66896,-4.88951 -1.08805,-7.32349 -0.4272,-1.45145 1.98939,-1.96462 2.41659,-0.51316 z"
       inkscape:connector-curvature="0" />
    <path
       style="fill:#000000;fill-opacity:1;fill-rule:nonzero;stroke:none"
       id="path3904"
       d="m 398.8026,477.51087 c -1.27865,1.73998 -2.96875,3.2588 -4.53758,4.8179 -1.49397,1.60489 -3.30216,2.94281 -5.12447,4.26566 -0.84895,0.66283 -1.8311,1.18967 -2.88282,1.58647 -1.28713,0.76002 -2.7536,-1.66555 -0.50666,-2.02003 1.71865,-0.0978 3.40916,0.14944 5.0787,0.46788 2.50161,0.64029 4.87343,1.62472 7.01536,2.89039 0.95964,0.74311 2.1346,1.25777 3.02972,2.05652 0.21759,0.13777 0.44998,0.2565 0.69777,0.34992 -0.0215,-0.0166 -0.18711,-0.0396 -0.22105,-0.0448 1.75034,0.16724 1.47189,2.26982 -0.27844,2.10258 l 0,0 c -0.16757,-0.024 -0.33176,-0.0541 -0.48717,-0.11506 -0.56495,-0.21126 -1.08875,-0.49517 -1.5393,-0.85557 -0.72853,-0.71021 -1.85938,-1.07545 -2.63068,-1.76069 -1.86858,-1.12105 -3.95933,-1.96884 -6.13822,-2.56012 -1.39516,-0.27305 -2.80043,-0.48527 -4.23864,-0.42947 -0.18164,-0.46379 -1.2318,-1.98715 -0.78371,-2.0186 0.8333,-0.30594 1.60154,-0.73305 2.26681,-1.25796 1.72382,-1.25133 3.4407,-2.50965 4.8493,-4.03195 1.43889,-1.42976 2.97613,-2.82754 4.20309,-4.38936 0.78772,-1.33818 3.0157,-0.39194 2.22799,0.94623 z"
       inkscape:connector-curvature="0" />
    <path
       style="fill:#000000;fill-opacity:1;fill-rule:nonzero;stroke:none"
       id="path3908"
       d="m 377.50309,470.70541 c 3.56431,0 7.12862,0 10.69292,0 4.50529,0 9.01056,0 13.51585,0 0.98692,0 1.97384,0 2.96077,0 0.76656,-0.052 0.5951,2.11585 -0.16969,2.11585 -1.46529,0 -1.46529,-2.11585 0,-2.11585 l 0,0 c 0.76479,0 0.93625,2.16787 0.16969,2.11585 -0.98693,0 -1.97385,0 -2.96077,0 -4.50529,0 -9.01056,0 -13.51585,0 -3.5643,0 -7.12861,0 -10.69292,0 -1.46529,0 -1.46529,-2.11585 0,-2.11585 z"
       inkscape:connector-curvature="0" />
    <flowRoot
       xml:space="preserve"
       id="flowRoot3910"
       style="font-size:22px;font-style:normal;font-weight:normal;line-height:125%;letter-spacing:0px;word-spacing:0px;fill:#000000;fill-opacity:1;stroke:none;font-family:Times New Roman;-inkscape-font-specification:Times New Roman"
       transform="translate(9.7540465,-248.0315)"><flowRegion
         id="flowRegion3912"><rect
           id="rect3914"
           width="273.11334"
           height="80.819252"
           x="129.58949"
           y="627.0459"
           style="font-size:22px" /></flowRegion><flowPara
         id="flowPara3916">Power Output</flowPara></flowRoot>    <path
       style="fill:#000000;fill-opacity:1;fill-rule:nonzero;stroke:none"
       id="path3960"
       d="m 353.38901,198.12376 c 0.8169,4.97809 0.93248,10.03856 1.08321,15.07082 0.1443,7.20589 -1.89984,14.04134 -4.46162,20.68645 -2.97347,7.12247 -7.60685,13.12192 -13.52368,18.0044 -5.1625,3.95514 -11.29594,6.22578 -17.24434,8.69223 -2.58094,0.88667 -4.788,2.49595 -7.1432,3.82382 -0.38589,0.20828 -0.76562,0.43168 -1.17064,0.60119 -0.92644,0.33548 -1.40088,-0.97469 -0.47445,-1.31018 l 0,0 c 0.22145,-0.10886 0.69952,-0.34892 0.96085,-0.50488 2.40383,-1.3547 4.65912,-2.99331 7.29375,-3.89713 5.82137,-2.41358 11.83038,-4.62537 16.89248,-8.4809 5.74295,-4.71468 10.21854,-10.53964 13.10919,-17.4301 2.49814,-6.47053 4.50456,-13.12426 4.36885,-20.1432 -0.14824,-4.95465 -0.26022,-9.93688 -1.05677,-14.83925 -0.19324,-0.96617 1.17314,-1.23944 1.36637,-0.27327 z"
       inkscape:connector-curvature="0"
       transform="translate(30.348905,23.40108)" />
  </g>
</svg>
