<?xml version="1.0" encoding="UTF-8" standalone="no"?>
<!-- Created with Inkscape (http://www.inkscape.org/) -->

<svg
   xmlns:dc="http://purl.org/dc/elements/1.1/"
   xmlns:cc="http://creativecommons.org/ns#"
   xmlns:rdf="http://www.w3.org/1999/02/22-rdf-syntax-ns#"
   xmlns:svg="http://www.w3.org/2000/svg"
   xmlns="http://www.w3.org/2000/svg"
   xmlns:sodipodi="http://sodipodi.sourceforge.net/DTD/sodipodi-0.dtd"
   xmlns:inkscape="http://www.inkscape.org/namespaces/inkscape"
   width="498.28488"
   height="468.05676"
   id="svg7791"
   version="1.1"
   inkscape:version="0.48.0 r9654"
   sodipodi:docname="MotorEfficiency.svg">
  <defs
     id="defs7793" />
  <sodipodi:namedview
     inkscape:document-units="mm"
     pagecolor="#ffffff"
     bordercolor="#666666"
     borderopacity="1.0"
     inkscape:pageopacity="0.0"
     inkscape:pageshadow="2"
     inkscape:zoom="0.7176508"
     inkscape:cx="319.1291"
     inkscape:cy="223.65333"
     inkscape:current-layer="layer1"
     id="namedview7795"
     showgrid="false"
     fit-margin-top="0"
     fit-margin-left="0"
     fit-margin-right="0"
     fit-margin-bottom="0"
     inkscape:window-width="1280"
     inkscape:window-height="752"
     inkscape:window-x="0"
     inkscape:window-y="0"
     inkscape:window-maximized="1" />
  <metadata
     id="metadata7797">
    <rdf:RDF>
      <cc:Work
         rdf:about="">
        <dc:format>image/svg+xml</dc:format>
        <dc:type
           rdf:resource="http://purl.org/dc/dcmitype/StillImage" />
        <dc:title />
      </cc:Work>
    </rdf:RDF>
  </metadata>
  <g
     inkscape:label="Layer 1"
     inkscape:groupmode="layer"
     id="layer1"
     transform="translate(-207.05199,-127.64382)">
    <path
       style="fill:#000000;fill-opacity:1;fill-rule:nonzero;stroke:none"
       id="path8316"
       d="m 276.31571,158.26707 c 2.0928,-2.3941 3.50616,-5.24934 5.08043,-7.98655 1.95617,-3.77389 3.57238,-7.70597 5.06861,-11.68135 0.38215,-1.34654 1.12645,-2.62294 1.29344,-4.02545 0.37607,-1.30159 1.22734,-2.16483 2.43019,-2.70059 1.40877,-0.69447 3.00819,0.67742 3.17435,2.18598 0.004,-0.082 -0.0302,-0.31563 0.0133,-0.24598 0.97199,1.55613 1.52306,3.62762 2.19144,5.32971 1.41182,3.17362 2.43251,6.51228 3.49924,9.81595 0.66604,2.03346 1.60696,3.87828 2.68359,5.71029 0.77568,0.75836 1.41328,1.6631 2.04653,2.54438 1.72392,2.40116 -1.67183,4.83915 -3.39575,2.43799 l 0,0 c -0.70865,-0.98802 -1.46624,-1.93897 -2.25485,-2.86443 -1.23005,-2.09324 -2.28931,-4.22982 -3.05766,-6.54396 -1.04019,-3.22269 -2.02968,-6.48084 -3.41292,-9.57421 -0.82351,-2.10354 -1.79093,-4.14822 -2.48146,-6.29604 1.089,0.77401 1.52092,1.77983 2.61182,1.35495 0.0158,-0.0859 0.0821,-0.49453 0.094,-0.58797 -0.24942,1.7147 -0.95696,3.30454 -1.52311,4.93252 -1.57687,4.18564 -3.28266,8.32594 -5.35726,12.29276 -1.75745,3.05407 -3.35413,6.23196 -5.74799,8.85792 -2.09015,2.09015 -5.04607,-0.86577 -2.95592,-2.95592 z"
       inkscape:connector-curvature="0" />
    <path
       style="fill:#000000;fill-opacity:1;fill-rule:nonzero;stroke:none"
       id="path8394"
       d="m 295.01856,560.49473 c 1.00206,-7.27653 0.45829,-14.67885 0.15716,-21.98598 -1.67935,-20.81925 -3.17441,-41.63972 -4.1828,-62.50457 -1.64826,-32.19407 -1.83658,-64.41713 -1.7147,-96.64338 0.42443,-37.67187 0.8608,-75.34432 1.05872,-113.01819 0.11409,-30.31337 -0.24849,-60.62537 -0.73785,-90.93408 -0.20836,-12.18663 -0.44543,-24.37277 -0.71658,-36.55817 -0.0289,-0.88203 -0.0355,-1.76471 -0.0627,-2.64681 -0.004,-0.13871 -0.0703,0.3011 0.008,0.41622 0.26036,0.38709 0.50569,0.90803 0.95865,1.01959 1.09521,0.26972 1.49159,0.0146 2.12846,-0.36179 -0.12744,0.34366 -0.22844,0.69566 -0.30484,1.05382 0.004,0.068 0.0134,-0.13567 0.0173,-0.20369 -0.0464,2.95555 -4.22621,2.88991 -4.17979,-0.0657 l 0,0 c 0.009,-0.19009 0.025,-0.37927 0.0664,-0.56561 0.15521,-0.74566 0.38146,-1.47707 0.70318,-2.16868 1.11576,-1.77668 3.03585,-2.27977 4.41999,-0.42953 0.73845,0.98714 0.23427,2.79763 0.4251,3.85916 0.27123,12.19389 0.50887,24.38853 0.71701,36.58365 0.4898,30.33852 0.85262,60.68035 0.73832,91.02354 -0.19797,37.67182 -0.63402,75.34221 -1.05868,113.01204 -0.12168,32.1537 0.065,64.30418 1.70985,96.4258 1.00848,20.87486 2.50981,41.70473 4.18414,62.53433 0.31572,7.67284 0.88801,15.45667 -0.25837,23.08787 -0.65752,2.88186 -4.7331,1.95198 -4.07556,-0.92989 z"
       inkscape:connector-curvature="0" />
    <path
       inkscape:connector-curvature="0"
       d="m 677.05828,519.0455 c 2.37966,2.1092 5.22512,3.54216 7.95144,5.13521 3.76035,1.98206 7.68123,3.62527 11.64623,5.14879 1.34388,0.3914 2.61513,1.14445 4.01646,1.32108 1.29898,0.38501 2.15634,1.24219 2.68382,2.4487 0.68477,1.41351 -0.69808,3.00346 -2.20775,3.15924 0.082,0.005 0.31583,-0.028 0.24589,0.015 -1.56278,0.96127 -3.63801,1.49808 -5.34465,2.15475 -3.18325,1.38997 -6.52885,2.38768 -9.83977,3.43168 -2.038,0.65204 -3.88924,1.58026 -5.72861,2.64427 -0.76367,0.77045 -1.67277,1.40181 -2.55839,2.02899 -2.41295,1.70737 -4.82754,-1.70506 -2.41459,-3.41243 l 0,0 c 0.99287,-0.70184 1.94901,-1.45288 2.87987,-2.23511 2.10164,-1.21563 4.24546,-2.26018 6.56482,-3.0126 3.22977,-1.01801 6.49464,-1.98508 9.59745,-3.34702 2.10915,-0.80903 4.16043,-1.76237 6.31295,-2.43812 -0.78148,1.08365 -1.79025,1.50865 -1.37288,2.60244 0.0858,0.0164 0.49396,0.0855 0.58731,0.098 -1.71294,-0.2612 -3.29788,-0.97965 -4.92193,-1.55698 -4.1747,-1.60561 -8.30318,-3.33982 -12.25564,-5.44164 -3.04192,-1.7784 -6.20876,-3.39689 -8.8182,-5.80874 -2.07573,-2.10447 0.90044,-5.04 2.97617,-2.93553 z"
       id="path8444"
       style="fill:#000000;fill-opacity:1;fill-rule:nonzero;stroke:none" />
    <path
       inkscape:connector-curvature="0"
       d="m 274.71156,534.98288 c 7.26947,1.05205 14.67535,0.55918 21.98438,0.30829 20.8303,-1.53619 41.66056,-2.88809 62.53184,-3.75303 32.20464,-1.42691 64.42824,-1.39371 96.65289,-1.0503 37.66806,0.68339 75.33662,1.37872 113.00824,1.83561 30.31187,0.32247 60.62565,0.16827 90.937,-0.11272 12.18778,-0.12458 24.37526,-0.27788 36.56224,-0.46526 0.8822,-0.0228 1.76491,-0.0234 2.64717,-0.0445 0.13874,-0.003 -0.30061,-0.0724 -0.41626,0.005 -0.38887,0.25769 -0.91149,0.49944 -1.02616,0.95162 -0.27724,1.09333 -0.0249,1.49145 0.34715,2.13089 -0.34277,-0.1298 -0.69407,-0.23321 -1.0517,-0.31207 -0.068,0.004 0.13558,0.0143 0.20357,0.0187 -2.95516,-0.0667 -2.86079,-4.24598 0.0944,-4.17924 l 0,0 c 0.19002,0.0103 0.37909,0.0276 0.56514,0.0703 0.74458,0.16034 1.47441,0.39161 2.1638,0.71808 1.76896,1.12794 2.25884,3.05145 0.39913,4.42283 -0.99219,0.73165 -2.79917,0.21504 -3.86199,0.39856 -12.19547,0.1874 -24.39145,0.34121 -36.58771,0.46551 -30.34117,0.28123 -60.68478,0.43547 -91.02647,0.11258 -37.66957,-0.45693 -75.33607,-1.15193 -113.00209,-1.83553 -32.1521,-0.34271 -64.30311,-0.37705 -96.43528,1.04695 -20.8813,0.86496 -41.72099,2.22306 -62.56161,3.75416 -7.67483,0.26297 -15.46241,0.78174 -23.08555,-0.41707 -2.87727,-0.67732 -1.9194,-4.74641 0.95788,-4.06907 z"
       id="path8446"
       style="fill:#000000;fill-opacity:1;fill-rule:nonzero;stroke:none" />
    <path
       style="fill:#000000;fill-opacity:1;fill-rule:nonzero;stroke:none"
       id="path8450"
       d="m 297.1801,533.77925 c 3.21366,-4.66881 7.37909,-8.61356 11.34131,-12.63528 11.37255,-11.35374 22.2506,-23.19295 33.11534,-35.02999 17.67002,-19.07677 35.62841,-37.88272 53.31472,-56.94453 23.39417,-25.34486 46.62908,-50.83795 70.26403,-75.95906 20.98311,-22.16418 42.58558,-43.72793 64.30274,-65.16916 10.60274,-10.69251 21.54045,-21.03029 32.87439,-30.94221 1.95543,-1.59023 3.77178,-3.36915 5.81239,-4.85576 1.30418,-1.10852 3.53426,2.34906 2.39971,3.51503 -2.08863,2.09168 -5.0467,-0.86206 -2.9581,-2.95374 l 0,0 c 1.15092,-1.18256 1.74898,3.87206 3.00339,2.82943 -1.9086,1.4454 -3.67053,3.07714 -5.50555,4.61183 -11.27098,9.85599 -22.14609,20.13725 -32.68928,30.77019 -21.68064,21.40511 -43.24704,42.93228 -64.19509,65.05891 -23.62854,25.11387 -46.85636,50.60033 -70.24422,75.93784 -17.68131,19.05622 -35.6341,37.85714 -53.29946,56.92799 -10.89826,11.87321 -21.81009,23.74835 -33.21728,35.1372 -3.74353,3.79902 -7.68142,7.52154 -10.7623,11.89779 -1.55313,2.515 -5.10988,0.31853 -3.55675,-2.19647 z"
       inkscape:connector-curvature="0" />
    <path
       style="fill:none;stroke:#000000;stroke-width:3.27755904;stroke-linecap:round;stroke-linejoin:miter;stroke-miterlimit:4;stroke-opacity:1;stroke-dasharray:3.27755906, 9.83267717;stroke-dashoffset:0"
       d="m 572.80873,253.49842 -279.10231,4.39392"
       id="path8452"
       inkscape:connector-curvature="0" />
    <path
       inkscape:connector-curvature="0"
       id="path8454"
       d="M 569.94947,534.60729 569.679,255.47053"
       style="fill:none;stroke:#000000;stroke-width:3.27755904;stroke-linecap:round;stroke-linejoin:miter;stroke-miterlimit:4;stroke-opacity:1;stroke-dasharray:3.27755906, 9.83267717;stroke-dashoffset:0" />
    <path
       style="fill:#000000;fill-opacity:1;fill-rule:nonzero;stroke:none"
       id="path8456"
       d="m 282.64759,254.53104 c 3.61962,0.77548 7.34599,0.35827 11.00745,0.17096 2.93138,-0.15277 5.86401,-0.27808 8.79787,-0.37126 0.17824,-0.005 0.35647,-0.0104 0.53471,-0.0155 2.95468,-0.0858 3.07606,4.09271 0.12138,4.17854 l 0,0 c -0.17448,0.005 -0.34895,0.0101 -0.52343,0.0152 -2.90689,0.0923 -5.81255,0.21654 -8.71697,0.36791 -4.0739,0.20837 -8.21544,0.62953 -12.23488,-0.29032 -2.86766,-0.71692 -1.85379,-4.77241 1.01387,-4.05549 z"
       inkscape:connector-curvature="0" />
    <path
       style="fill:#000000;fill-opacity:1;fill-rule:nonzero;stroke:none"
       id="path8458"
       d="m 259.87569,242.23107 c 0,7.22807 0,14.45614 0,21.6842 0,5.01541 0,10.03082 0,15.04623 0,2.95592 -4.1803,2.95592 -4.1803,0 l 0,0 c 0,-5.01541 0,-10.03082 0,-15.04623 0,-7.22806 0,-14.45613 0,-21.6842 0,-2.95592 4.1803,-2.95592 4.1803,0 z"
       inkscape:connector-curvature="0" />
    <path
       style="fill:#000000;fill-opacity:1;fill-rule:nonzero;stroke:none"
       id="path8460"
       d="m 570.72447,529.23741 c 1.51086,3.46939 2.53488,7.08389 3.32443,10.77666 0.35662,2.06374 0.20167,1.07872 0.47297,2.95378 0.42163,2.9257 -3.71593,3.52198 -4.13756,0.59628 l 0,0 c -0.24515,-1.70854 -0.10604,-0.81558 -0.42372,-2.67788 -0.71264,-3.34843 -1.62538,-6.62596 -2.97509,-9.77935 -1.32193,-2.64386 2.41705,-4.51335 3.73897,-1.86949 z"
       inkscape:connector-curvature="0" />
    <path
       style="fill:#000000;fill-opacity:1;fill-rule:nonzero;stroke:none"
       id="path8464"
       d="m 681.96645,559.80882 c -2.71185,2.88542 -4.56603,6.59364 -6.22838,10.28936 -1.26951,3.49748 -2.59316,7.54813 -1.56102,11.3222 0.21221,0.21508 0.44636,0.60281 0.81083,0.49823 0.40127,-0.11513 2.24684,-2.00846 2.50279,-2.27088 1.63989,-1.95419 2.96726,-4.16376 3.85539,-6.64264 0.0517,-0.13543 0.53505,-1.90759 0.55189,-1.90275 3.41404,0.98215 3.13442,0.24402 3.15277,2.34189 -0.12082,3.19081 0.74894,6.21118 2.24402,8.89996 1.42783,2.32187 3.57749,4.35832 6.30493,3.85127 0.56685,-0.10538 1.09412,-0.39116 1.64118,-0.58675 4.86629,-3.17442 6.2627,-7.86388 6.85513,-13.78729 -0.0239,-4.92905 -1.32269,-9.5263 -4.74981,-12.76915 -0.94057,-0.72945 -1.94547,-1.46592 -3.08989,-1.70683 0.21618,0.0443 0.34265,-0.0185 0.57085,-0.0787 -2.14567,0.94238 -3.34666,-2.42492 -1.20099,-3.36731 l 0,0 c 0.38757,-0.11635 0.73963,-0.21228 1.14371,-0.13039 1.76067,0.34854 3.31868,1.39381 4.73478,2.56696 4.29869,4.30907 5.84763,9.51699 5.83214,15.91139 -0.13691,1.21747 -0.1869,2.45089 -0.41072,3.6524 -1.06337,5.70829 -4.07305,10.61029 -8.81986,13.20067 -0.87389,0.23805 -1.72604,0.61754 -2.62164,0.71414 -3.85224,0.41551 -6.96083,-2.26509 -8.98908,-5.6089 -1.73265,-3.28038 -2.85369,-6.87104 -2.70807,-10.72897 -0.002,-0.29312 -0.26198,-0.80486 -0.006,-0.87936 3.9743,-1.15872 3.25501,-0.43548 2.59305,1.75858 -1.0888,2.97852 -2.67502,5.65408 -4.68995,7.9733 -2.95009,2.93077 -6.20401,4.85981 -8.66162,0.0183 -1.03475,-4.73678 0.0426,-9.48837 1.79841,-13.87265 1.8311,-4.03596 3.86933,-8.07221 6.83804,-11.22691 1.63173,-1.81072 3.93934,0.75003 2.30762,2.56075 z"
       inkscape:connector-curvature="0" />
    <path
       style="fill:#000000;fill-opacity:1;fill-rule:nonzero;stroke:none"
       id="path8468"
       d="m 563.05423,557.51524 c -2.83086,0.7525 -4.26328,3.45801 -5.56439,5.9013 -1.74773,3.90969 -2.64649,7.84742 -1.15665,11.98001 1.46775,2.28925 2.60295,1.89947 4.12216,0.0231 1.4538,-2.32185 1.95733,-5.05968 2.33124,-7.74681 0.20145,-1.66055 -0.21031,-2.31867 2.69514,-0.9413 0.002,10e-4 -0.005,1.31664 -0.008,1.95537 0.13113,3.55488 0.33845,5.92024 2.40329,8.86862 2.60545,2.64589 5.20833,3.01064 8.6692,2.14571 4.47941,-1.65145 5.77263,-5.12447 6.62338,-9.59275 0.40964,-5.05974 -1.51895,-9.52201 -4.45501,-13.45627 -1.36166,-1.63517 -2.87575,-3.15061 -4.57678,-4.41478 -1.24993,-0.83295 -0.43161,-1.09509 0.34344,-2.63814 1.7523,-0.43396 2.35215,2.10144 0.59985,2.5354 l 0,0 c 1.74935,-5.48499 0.80756,-0.61147 0.26908,-2.20509 -0.0381,-0.11277 0.19334,0.13346 0.29001,0.20018 1.89761,1.42056 3.5977,3.10511 5.10715,4.94776 3.44048,4.68342 5.44602,9.56905 4.92164,15.54657 -1.20086,5.92062 -2.73219,9.39688 -8.55732,11.62079 -0.71877,0.15784 -1.42554,0.39163 -2.15631,0.47354 -3.48281,0.39034 -6.85085,-1.04501 -9.1688,-3.66944 -0.3606,-0.53911 -0.76686,-1.04906 -1.08179,-1.61733 -1.48497,-2.67947 -1.62551,-5.75929 -1.78068,-8.75889 0.002,-0.39573 0.004,-0.79145 0.006,-1.18719 10e-4,-0.23108 -0.21383,-0.62781 0.003,-0.69327 3.08151,-0.93101 2.5437,-0.39884 2.37781,1.25022 -0.4514,3.20916 -1.10756,6.44922 -2.97861,9.14307 -0.42704,0.4467 -0.7928,0.96482 -1.28111,1.34009 -2.90252,2.23055 -5.59619,0.5524 -7.12584,-2.27224 -0.2077,-0.63914 -0.48108,-1.25973 -0.62311,-1.91741 -0.90148,-4.17436 0.26149,-8.39609 1.95427,-12.17734 1.69956,-3.1314 3.65385,-6.32611 7.29805,-7.20142 1.76788,-0.36175 2.26792,2.19621 0.50003,2.55796 z"
       inkscape:connector-curvature="0" />
    <path
       style="fill:#000000;fill-opacity:1;fill-rule:nonzero;stroke:none"
       id="path8470"
       d="m 591.52624,576.01221 c 0.5398,-0.24002 0.1353,-0.16169 0.0156,0.40504 -0.5833,-0.0493 -1.13016,1.25011 -1.35514,1.76114 -0.81911,2.37203 -0.77939,4.80584 -0.46249,7.26041 0.23506,1.69191 0.78717,3.3076 1.14333,4.97376 0.17543,0.86939 0.25358,1.7539 0.278,2.64049 0.0512,0.79536 -0.4092,1.42813 -0.75569,2.08635 -0.64925,1.21303 -2.2978,0.25757 -1.64855,-0.95546 l 0,0 c 0.24825,-0.45843 0.5485,-0.83925 0.51795,-1.0767 -0.0193,-0.76172 -0.0855,-1.5216 -0.23383,-2.26896 -0.3667,-1.72101 -0.94506,-3.38861 -1.17168,-5.14008 -0.36069,-2.83756 -0.36124,-5.65848 0.63575,-8.37806 0.86405,-1.77909 2.23507,-3.67756 4.32294,-2.35466 0.15869,0.1883 0.36681,0.34175 0.47608,0.5649 0.55552,1.13444 -0.27708,2.12917 -1.30452,2.38682 -1.29447,0.33675 -1.75214,-1.56823 -0.45766,-1.90499 z"
       inkscape:connector-curvature="0" />
    <path
       style="fill:#000000;fill-opacity:1;fill-rule:nonzero;stroke:none"
       id="path8472"
       d="m 585.6939,585.33232 c 1.27553,0.3589 2.59803,0.15974 3.89704,0.0807 1.50352,-0.23049 2.99721,-0.51945 4.5071,-0.7045 -0.0978,0.14591 1.07201,-0.19962 0.81896,-0.22857 0.95693,-0.96762 2.27198,0.44062 1.31505,1.40824 l 0,0 c -0.57775,0.4809 -1.15217,0.76248 -1.9141,0.77057 -1.54658,0.18807 -3.07418,0.49871 -4.61685,0.71453 -1.48976,0.0907 -3.00345,0.28552 -4.46487,-0.13597 -1.29447,-0.33677 -0.83681,-2.24175 0.45767,-1.90499 z"
       inkscape:connector-curvature="0" />
    <path
       style="fill:#000000;fill-opacity:1;fill-rule:nonzero;stroke:none"
       id="path8474"
       d="m 227.4519,129.72928 c -0.0598,5.02194 0.41178,10.0333 0.67073,15.04786 0.1333,4.72431 0.68963,9.42934 1.23128,14.12795 0.0391,0.32823 0.0782,0.65647 0.11728,0.9847 0.24785,2.08119 -3.08297,2.39091 -3.33083,0.30973 l 0,0 c -0.0395,-0.33152 -0.0789,-0.66303 -0.11843,-0.99454 -0.5479,-4.7535 -1.10865,-9.51356 -1.24503,-14.29298 -0.26112,-5.05944 -0.7356,-10.11574 -0.67422,-15.18272 0,-2.09267 3.34922,-2.09267 3.34922,0 z"
       inkscape:connector-curvature="0" />
    <path
       style="fill:#000000;fill-opacity:1;fill-rule:nonzero;stroke:none"
       id="path8476"
       d="m 225.64928,130.57484 c -1.14302,0.2525 -2.28604,0.50501 -3.42905,0.75751 -1.55984,0.69491 -2.35174,-2.80627 0.15473,-2.79748 3.40113,-0.50603 6.8358,-0.72498 10.28104,-0.69422 3.69145,0.21753 7.62357,1.01554 9.53499,4.14281 0.35131,0.57479 0.5169,1.22409 0.77535,1.83613 0.89043,4.81485 -2.55018,8.6207 -6.33676,11.67809 -3.16453,2.03591 -6.87072,3.39106 -10.79653,3.56969 -1.73342,-0.14796 -2.86678,-0.39307 -2.21306,-2.71767 0.11461,-0.40757 0.82157,-0.42243 1.23235,-0.63364 2.24883,-0.65616 3.29897,2.1541 1.05015,2.81025 l 0,0 c 1.76047,-1.76913 -1.41647,-2.78754 -0.18436,-2.41669 3.11831,-0.0149 6.12458,-1.32657 8.66813,-2.80948 2.78434,-2.18463 5.71216,-5.00989 5.40844,-8.52966 -1.04275,-3.26339 -3.63251,-3.71213 -7.1794,-3.97055 -3.44091,-0.0439 -6.85153,0.25348 -10.25451,0.69442 -2.27943,-0.009 -2.71059,-2.91017 -0.95287,-3.03313 1.14302,-0.25251 2.28603,-0.50501 3.42905,-0.75751 2.29755,-0.50756 3.10985,2.36358 0.81231,2.87113 z"
       inkscape:connector-curvature="0" />
    <path
       style="fill:#000000;fill-opacity:1;fill-rule:nonzero;stroke:none"
       id="path8504"
       d="m 240.27123,155.96115 c -1.37246,1.20583 -2.28268,2.74049 -2.79325,4.46138 -0.21585,1.50002 0.1293,2.15803 1.66703,2.17955 1.51409,-0.32474 2.61972,-1.3642 2.83974,-2.86894 -0.0205,-1.63779 -1.32698,-2.64941 -2.47301,-3.64742 -0.57389,-0.44908 -1.17922,-0.86017 -1.81588,-1.21888 -0.07,-0.0394 -0.28832,-0.0879 -0.21225,-0.11443 0.0873,-0.0304 0.17276,0.0654 0.25912,0.0981 0.34435,-0.29756 0.68869,-0.59512 1.03303,-0.89268 0.25334,1.2503 -1.5483,1.60192 -1.80164,0.35162 l 0,0 c 0.32008,-0.4173 0.64016,-0.8346 0.96024,-1.25191 1.06425,0.28366 1.9215,1.05445 2.79684,1.67994 1.66411,1.45038 3.22157,2.98129 3.05524,5.34694 -0.0861,0.36678 -0.12367,0.74786 -0.25821,1.10032 -0.714,1.87047 -2.60253,2.98085 -4.53691,3.21382 -0.37847,-0.0448 -0.76902,-0.0311 -1.13541,-0.13447 -2.0119,-0.56724 -2.50254,-2.56608 -2.13625,-4.36324 0.65845,-2.07752 1.7433,-3.95171 3.44942,-5.38195 1.03912,-0.76487 2.14127,0.67738 1.10215,1.44225 z"
       inkscape:connector-curvature="0" />
    <path
       style="fill:#000000;fill-opacity:1;fill-rule:nonzero;stroke:none"
       id="path8506"
       d="m 245.88543,154.00514 c 0.23422,1.87751 0.48932,3.75022 0.75645,5.62435 0.22548,0.98271 0.0675,2.58401 1.04718,3.22061 0.83144,0.33175 1.55393,-0.65459 2.05647,-1.16654 1.05512,-1.30274 1.81081,-2.83293 2.44142,-4.37276 0.14851,-0.4086 0.31892,-0.81458 0.41332,-1.2398 -0.0278,-0.0404 -0.0232,-0.44788 -0.0266,-0.61178 -0.27004,-0.95486 1.83022,-0.86409 1.82847,0.17159 -0.0442,1.11478 0.0186,2.21235 0.16653,3.31694 0.26048,1.12059 0.45202,2.25451 1.17744,3.18076 0.37162,0.32005 0.40403,0.20126 0.70746,-0.0166 1.14463,-0.60256 2.0129,0.98614 0.86826,1.58869 l 0,0 c -1.15942,0.54519 -2.15043,0.48329 -3.04891,-0.49516 -0.89031,-1.19758 -1.24401,-2.58115 -1.52563,-4.0237 -0.1571,-1.183 -0.22753,-2.36059 -0.18206,-3.55389 0.002,-1.03223 2.07118,-1.16602 1.84498,-0.20499 0.007,0.33146 0.0294,0.66451 -0.007,0.99486 -0.11263,0.53833 -0.32143,1.05254 -0.51225,1.56717 -0.72368,1.7571 -1.59415,3.49952 -2.83472,4.96208 -1.27871,1.25857 -2.79226,2.4175 -4.56776,1.26735 -1.28351,-1.18888 -1.47677,-2.67057 -1.6655,-4.33509 -0.26206,-1.83928 -0.5178,-3.67673 -0.73847,-5.52049 -0.25474,-1.25002 1.5465,-1.60358 1.80124,-0.35356 z"
       inkscape:connector-curvature="0" />
    <path
       style="fill:#000000;fill-opacity:1;fill-rule:nonzero;stroke:none"
       id="path8508"
       d="m 261.83077,145.43406 c 0.73186,2.45187 0.99065,5.03001 1.2777,7.56352 0.30872,3.08553 0.40661,6.18632 0.46615,9.28459 0.0117,0.7217 0.0192,1.44348 0.0214,2.16528 3.7e-4,0.11795 0.11867,0.36314 -0.002,0.35387 -0.61518,-0.0477 -1.22549,-0.1436 -1.83823,-0.2154 -0.009,-1.27474 1.8275,-1.28774 1.83686,-0.013 l 0,0 c -0.61174,0.0649 -1.22221,0.14259 -1.83522,0.19466 -0.1056,0.009 0.002,-0.20807 8e-4,-0.31209 -0.002,-0.71316 -0.01,-1.4263 -0.0211,-2.13937 -0.0583,-3.04314 -0.15358,-6.08879 -0.45525,-9.11954 -0.26835,-2.37438 -0.51646,-4.7846 -1.15755,-7.09298 -0.4824,-1.1836 1.22313,-1.85314 1.70553,-0.66954 z"
       inkscape:connector-curvature="0" />
    <path
       style="fill:#000000;fill-opacity:1;fill-rule:nonzero;stroke:none"
       id="path8510"
       d="m 259.54093,154.21236 c 2.1703,0.30957 4.37429,0.42706 6.56567,0.37232 1.28219,-0.008 2.54548,-0.30792 3.82544,-0.27751 1.29759,0.0571 1.21535,1.85808 -0.0822,1.80099 l 0,0 c -1.2233,-0.10446 -2.46823,0.36754 -3.69938,0.2788 -2.32673,0.0511 -4.667,-0.0634 -6.96973,-0.4068 -1.27367,-0.25001 -0.91342,-2.0178 0.36025,-1.7678 z"
       inkscape:connector-curvature="0" />
    <path
       style="fill:#000000;fill-opacity:1;fill-rule:nonzero;stroke:none"
       id="path8518"
       d="m 234.05635,180.5072 c 0.73994,5.59806 0.68977,11.24202 1.00989,16.86222 0.22305,5.16039 0.6978,10.3034 1.64236,15.40826 0.42483,2.19665 0.97474,1.21862 -2.80795,1.33979 0.40134,-1.92759 3.69592,-1.45795 3.29457,0.46964 l 0,0 c -4.08854,0.92251 -3.20065,1.21839 -3.79132,-1.39127 -0.96015,-5.2005 -1.45061,-10.4395 -1.67708,-15.69647 -0.31264,-5.51187 -0.27571,-11.04512 -0.9681,-16.53741 -0.38863,-1.92937 2.909,-2.38413 3.29763,-0.45476 z"
       inkscape:connector-curvature="0" />
    <path
       style="fill:#000000;fill-opacity:1;fill-rule:nonzero;stroke:none"
       id="path8524"
       d="m 232.61291,178.60629 c 2.24628,-0.3778 4.52173,-0.6994 6.81709,-0.6224 2.48793,0.11635 4.5071,1.26953 6.42312,2.47742 1.79631,1.17961 3.05873,2.6492 4.2087,4.26218 0.74641,1.10436 1.28546,2.27029 1.58923,3.50784 0.39542,1.46645 -0.5069,2.69515 -1.48031,3.85591 -1.04671,1.19266 -2.41668,2.15193 -3.48046,3.32787 -0.74064,0.99143 -2.07904,1.14154 -3.17919,1.6602 -1.04127,0.49859 -2.2348,0.63699 -3.32726,1.03686 -1.00008,0.33332 -2.0239,0.48048 -2.91589,0.99229 -0.74873,0.50309 -1.68547,0.68119 -2.61967,0.76361 -0.62518,0.0457 -1.25341,0.0398 -1.88035,0.0363 -0.15676,-6.6e-4 -0.31351,-0.003 -0.47025,-0.005 -2.36343,-0.0405 -2.29425,-2.80605 0.0692,-2.76558 l 0,0 c 0.14141,0.002 0.28282,0.004 0.42426,0.005 0.50759,0.003 1.01622,0.01 1.52275,-0.0225 0.42443,-0.0316 0.76546,-0.0503 1.08569,-0.30516 1.07093,-0.58745 2.23219,-0.91293 3.44673,-1.23357 1.07523,-0.38455 2.22195,-0.55396 3.25221,-1.00883 0.69454,-0.25012 1.40724,-0.33696 1.92501,-0.82127 1.06075,-1.15234 2.36566,-2.12004 3.43035,-3.27156 0.52594,-0.57303 1.0736,-1.04446 0.91905,-1.70141 -0.22144,-0.93551 -0.6351,-1.80757 -1.19066,-2.64521 -0.93326,-1.30953 -1.88962,-2.51244 -3.36174,-3.47128 -1.37177,-0.87453 -2.79239,-1.80349 -4.57857,-1.91179 -1.9999,-0.13745 -4.01116,0.30126 -5.97339,0.57306 -2.31803,0.3836 -2.97367,-2.32886 -0.65563,-2.71246 z"
       inkscape:connector-curvature="0" />
    <path
       style="fill:#000000;fill-opacity:1;fill-rule:nonzero;stroke:none"
       id="path8526"
       d="m 246.14516,211.06138 c 0.75724,1.22028 1.00703,2.53924 1.20836,3.84315 0.10462,0.74594 0.1599,1.49484 0.17628,2.24391 0.004,0.0966 -5e-5,0.19311 -0.005,0.2896 -0.0802,1.01599 -2.22695,0.94012 -2.14679,-0.0759 l 0,0 c 0.002,-0.0643 0.006,-0.12869 0.002,-0.19297 -0.015,-0.70688 -0.0673,-1.41361 -0.16523,-2.11757 -0.17288,-1.1323 -0.37765,-2.27728 -0.99267,-3.3468 -0.67982,-0.90999 1.243,-1.55346 1.92283,-0.64346 z"
       inkscape:connector-curvature="0" />
    <path
       style="fill:#000000;fill-opacity:1;fill-rule:nonzero;stroke:none"
       id="path8528"
       d="m 243.99104,205.45332 c 0.24721,0.59884 0.42009,1.20876 0.56853,1.82151 0.0365,0.15559 0.0719,0.31136 0.0955,0.46809 0.12643,1.01387 -2.0159,1.13354 -2.14233,0.11966 l 0,0 c -0.0177,-0.10431 -0.0485,-0.24577 -0.0753,-0.35776 -0.13841,-0.57285 -0.2992,-1.14298 -0.53198,-1.70253 -0.36869,-0.98703 1.71692,-1.33599 2.0856,-0.34897 z"
       inkscape:connector-curvature="0" />
    <path
       style="fill:#000000;fill-opacity:1;fill-rule:nonzero;stroke:none"
       id="path8534"
       d="m 251.88482,210.34017 c 0.33533,1.51112 0.61901,3.02999 1.06779,4.52859 0.25171,0.73164 0.51014,1.46521 0.8742,2.17627 0.22973,0.37014 -0.36133,0.30388 -1.99911,0.17143 -0.0657,-0.005 -8e-4,-0.26651 0.1007,-0.76967 0.29269,-1.17567 0.40503,-2.3607 0.75479,-3.53016 0.40716,-0.94254 0.8652,-1.87383 1.76837,-2.65606 0.60665,-0.57133 1.45916,-0.92027 2.43067,-1.14526 1.0983,-0.26683 1.91476,0.0709 2.52003,0.67696 0.76125,0.92742 1.30631,1.92038 1.74652,2.93426 0.58839,1.18813 0.89207,2.42221 1.43206,3.6182 0.21404,0.42753 0.31633,0.93033 0.89859,1.19901 1.19185,0.6315 -0.14253,1.75961 -1.33439,1.1281 l 0,0 c -0.90333,-0.50238 -1.3379,-1.15796 -1.62224,-1.91125 -0.54178,-1.20204 -0.85421,-2.44019 -1.43946,-3.63497 -0.37577,-0.87771 -0.84755,-1.73313 -1.47805,-2.54356 -0.0505,-0.053 -0.16823,-0.0972 -0.15154,-0.15908 0.0117,-0.0433 0.11683,0.0417 0.17963,0.0549 0.0759,0.0159 0.15687,-0.0201 0.23197,-0.0377 0.0941,-0.022 -0.47231,0.0459 -0.29368,0.0379 -0.60385,0.13193 -1.09559,0.32684 -1.45647,0.69372 -0.76114,0.54296 -0.92611,1.35959 -1.32445,2.02853 -0.34619,1.14553 -0.44041,2.3088 -0.73643,3.46016 -0.0247,0.0939 -0.0618,0.18669 -0.0741,0.28166 -0.0137,0.10555 0.13317,0.26456 -0.004,0.31784 -1.84148,0.71697 -1.84295,0.86922 -2.1843,0.24963 -0.39208,-0.7717 -0.6798,-1.56553 -0.94796,-2.35989 -0.44341,-1.49889 -0.74269,-3.01557 -1.06746,-4.52744 -0.29812,-0.99764 1.80992,-1.27981 2.10805,-0.28217 z"
       inkscape:connector-curvature="0" />
    <path
       style="fill:#000000;fill-opacity:1;fill-rule:nonzero;stroke:none"
       id="path8536"
       d="m 279.28647,173.83177 c -6.79222,-0.42391 -13.58935,-0.26839 -20.38352,-0.14819 -10.94211,0.35702 -21.85906,1.06318 -32.782,1.68379 -5.57559,0.29485 -11.14523,0.65239 -16.72972,0.81292 -0.77818,-0.009 -1.56439,0.086 -2.33924,-0.0175 0.83472,-2.87237 -0.22327,-2.83407 1.47117,-2.54811 2.07841,0.39103 1.50062,3.0588 -0.5778,2.66775 l 0,0 c -1.24592,-0.29405 -0.28267,0.0215 -0.26112,-2.77668 -0.7331,-0.0886 1.22656,0.0249 1.58166,-0.0485 5.55378,-0.15933 11.09267,-0.51648 16.63765,-0.809 10.96567,-0.62287 21.92533,-1.33204 32.91035,-1.68855 6.89708,-0.1219 13.79751,-0.27626 20.69245,0.1572 2.11248,0.1612 1.89261,2.87612 -0.21988,2.71493 z"
       inkscape:connector-curvature="0" />
    <path
       style="fill:#000000;fill-opacity:1;fill-rule:nonzero;stroke:none"
       id="path8538"
       d="m 570.18309,255.80808 c -1.9703,0.85509 -3.95873,0.97503 -5.9676,0.24007 -0.78685,-0.30906 -1.36666,-0.79463 -1.79761,-1.51167 -0.30316,-1.34217 -0.1936,-2.06665 0.19753,-3.37408 0.49769,-1.05229 1.53241,-1.55869 2.3144,-2.35999 0.62184,-0.7553 0.81943,-0.75805 1.90979,-1.38748 0.52275,-0.093 1.05374,-0.0973 1.58263,-0.0908 0.7532,0.008 1.50646,0.008 2.2597,0.009 1.58988,-0.1724 2.72081,0.61617 3.65867,1.7998 0.99624,1.06834 1.42971,2.37823 1.67933,3.787 0.16107,1.2441 0.17473,2.4995 0.17877,3.75185 0.14635,1.40716 -0.45857,2.52484 -1.38072,3.53776 -1.19261,1.30808 -2.8234,1.87137 -4.50047,2.24506 -1.57534,0.36643 -2.94,0.27726 -4.24081,-0.77088 -0.71515,-1.30038 -1.29126,-2.6954 -1.78071,-4.10766 -0.22043,-0.65883 -0.41492,-1.32585 -0.58333,-1.99971 -0.32125,-1.14075 0.38821,-2.34448 0.93926,-2.98574 0.40307,-0.92602 1.19701,-1.50537 2.05505,-1.96918 2.625,-1.35898 4.54689,2.35334 1.92189,3.71232 l 0,0 c -0.49112,0.21259 0.39656,-0.83558 -0.56464,0.67163 -1.23605,1.54343 0.0436,-0.27387 -0.28545,-0.39948 0.1341,0.54244 0.29568,1.07766 0.46958,1.60862 0.11054,0.32332 1.62612,3.53845 0.75908,2.4883 -1.50202,-0.75601 -1.04375,0.0724 0.41602,-0.3318 0.85924,-0.18333 1.74957,-0.35327 2.35982,-1.03646 0.31871,-0.30274 0.34458,-0.33476 0.23021,0.32311 -0.0555,0.31951 0.0737,-1.28982 0.005,-0.9729 -0.003,-1.02105 -0.0113,-2.04365 -0.11898,-3.06022 -0.1242,-0.77102 -0.24728,-1.32743 -0.83587,-1.89625 -0.49031,-0.61941 -0.30855,-0.29981 -0.018,-0.25408 1.37715,0.21673 -0.1365,-0.0763 -0.37028,0.0392 -0.78226,-0.001 -1.56455,-0.002 -2.34677,-0.0105 -0.19793,-0.003 -0.40603,0.007 -0.59673,-0.004 2.08836,-1.49712 0.55252,-0.3325 0.174,0.23923 -0.61752,0.62154 -1.32757,1.24065 -1.50859,1.20554 0.10485,-1.76427 0.0796,2.42576 -0.20647,-0.20732 -0.0207,-0.0332 -0.67478,-0.84617 -0.46942,-0.58788 0.88828,0.40249 1.68318,0.25702 2.59228,-0.0794 2.64386,-1.32193 4.51335,2.41705 1.86949,3.73898 z"
       inkscape:connector-curvature="0" />
  </g>
</svg>
