<?xml version="1.0" encoding="UTF-8" standalone="no"?>
<!-- Created with Inkscape (http://www.inkscape.org/) -->

<svg
   xmlns:dc="http://purl.org/dc/elements/1.1/"
   xmlns:cc="http://creativecommons.org/ns#"
   xmlns:rdf="http://www.w3.org/1999/02/22-rdf-syntax-ns#"
   xmlns:svg="http://www.w3.org/2000/svg"
   xmlns="http://www.w3.org/2000/svg"
   xmlns:sodipodi="http://sodipodi.sourceforge.net/DTD/sodipodi-0.dtd"
   xmlns:inkscape="http://www.inkscape.org/namespaces/inkscape"
   width="711.64496"
   height="215.53506"
   id="svg8961"
   version="1.1"
   inkscape:version="0.48.0 r9654"
   sodipodi:docname="New document 16">
  <defs
     id="defs8963" />
  <sodipodi:namedview
     inkscape:document-units="mm"
     pagecolor="#ffffff"
     bordercolor="#666666"
     borderopacity="1.0"
     inkscape:pageopacity="0.0"
     inkscape:pageshadow="2"
     inkscape:zoom="0.7176508"
     inkscape:cx="377.46095"
     inkscape:cy="55.562399"
     inkscape:current-layer="layer1"
     id="namedview8965"
     showgrid="false"
     fit-margin-top="0"
     fit-margin-left="0"
     fit-margin-right="0"
     fit-margin-bottom="0"
     inkscape:window-width="1280"
     inkscape:window-height="752"
     inkscape:window-x="0"
     inkscape:window-y="0"
     inkscape:window-maximized="0" />
  <metadata
     id="metadata8967">
    <rdf:RDF>
      <cc:Work
         rdf:about="">
        <dc:format>image/svg+xml</dc:format>
        <dc:type
           rdf:resource="http://purl.org/dc/dcmitype/StillImage" />
        <dc:title></dc:title>
      </cc:Work>
    </rdf:RDF>
  </metadata>
  <g
     inkscape:label="Layer 1"
     inkscape:groupmode="layer"
     id="layer1"
     transform="translate(-148.72014,-212.07458)">
    <path
       style="fill:#000000;fill-opacity:1;fill-rule:nonzero;stroke:none"
       id="path9504"
       d="m 402.05837,245.50189 c -10.81546,-0.77245 -21.63716,-1.01419 -32.47845,-1.08258 -32.3907,-0.20261 -64.78155,-0.2909 -97.17243,-0.0829 -26.06891,0.15081 -52.14835,0.52516 -78.21706,0.16961 -9.37289,-0.2233 -4.9049,-0.0376 -13.40566,-0.51539 -2.95123,-0.16641 -2.71588,-4.34008 0.23535,-4.17367 l 0,0 c 8.35084,0.47245 3.94231,0.28765 13.22745,0.50914 26.04068,0.35683 52.09219,-0.0208 78.13308,-0.16991 32.40867,-0.20806 64.81731,-0.11988 97.2258,0.0829 10.79286,0.0689 21.57027,0.28254 32.33617,1.08409 2.95479,-0.0818 3.07053,4.09686 0.11575,4.1787 z"
       inkscape:connector-curvature="0" />
    <path
       style="fill:#000000;fill-opacity:1;fill-rule:nonzero;stroke:none"
       id="path9506"
       d="m 181.40365,244.74841 c -3.47745,1.54538 -6.15559,4.52841 -8.67199,7.29248 -5.77494,7.09455 -9.08673,15.60374 -11.95374,24.17974 -3.55095,11.1638 -5.3036,22.78018 -6.7297,34.37487 -1.19038,10.61484 -1.21357,21.30298 -1.10993,31.9682 -0.0779,8.90284 0.93235,17.72504 2.8399,26.40655 1.74533,7.67666 4.35807,15.0813 8.96998,21.49915 2.84366,3.91793 6.60347,6.28413 11.27323,7.26357 2.43355,0.27332 1.24066,0.23413 3.57775,0.14248 2.95487,-0.0788 3.06614,4.10014 0.11175,4.17881 l 0,0 c -3.07163,0.0532 -1.54629,0.13326 -4.57626,-0.23623 -5.86146,-1.30792 -10.15559,-4.04494 -13.79113,-8.92377 -4.93377,-6.98335 -7.77981,-14.70483 -9.64824,-23.02914 -1.95959,-8.96398 -3.01693,-18.06986 -2.9366,-27.26093 -0.10489,-10.84943 -0.0751,-21.72199 1.14106,-32.51959 1.46352,-11.87198 3.26782,-23.76386 6.91485,-35.1918 3.06259,-9.12472 6.63205,-18.16118 12.83117,-25.67135 3.05235,-3.33105 6.31806,-6.84914 10.63261,-8.49892 2.84671,-0.79604 3.97249,3.22982 1.12577,4.02587 z"
       inkscape:connector-curvature="0" />
    <path
       inkscape:connector-curvature="0"
       d="m 401.67494,245.61683 c -3.47745,1.54538 -6.15559,4.52841 -8.67199,7.29248 -5.77494,7.09455 -9.08673,15.60374 -11.95374,24.17974 -3.55095,11.1638 -5.3036,22.78018 -6.7297,34.37486 -1.19038,10.61485 -1.21357,21.30299 -1.10993,31.9682 -0.0779,8.90285 0.93235,17.72504 2.8399,26.40656 1.74534,7.67666 4.35807,15.0813 8.96998,21.49915 2.84366,3.91793 6.60347,6.28412 11.27323,7.26357 2.43355,0.27332 1.24066,0.23413 3.57775,0.14248 2.95487,-0.0789 3.06614,4.10014 0.11175,4.17881 l 0,0 c -3.07163,0.0532 -1.54629,0.13326 -4.57626,-0.23623 -5.86146,-1.30792 -10.15559,-4.04494 -13.79113,-8.92377 -4.93377,-6.98335 -7.77981,-14.70483 -9.64824,-23.02914 -1.95958,-8.96398 -3.01693,-18.06986 -2.9366,-27.26093 -0.10488,-10.84944 -0.0751,-21.72199 1.14106,-32.51959 1.46352,-11.87198 3.26782,-23.76386 6.91485,-35.1918 3.06259,-9.12472 6.63205,-18.16118 12.83117,-25.67135 3.05236,-3.33105 6.31807,-6.84914 10.63261,-8.49892 2.84671,-0.79604 3.97249,3.22982 1.12577,4.02587 z"
       id="path9534"
       style="fill:#000000;fill-opacity:1;fill-rule:nonzero;stroke:none" />
    <path
       inkscape:connector-curvature="0"
       d="m 395.27501,403.20837 c -10.81545,-0.77245 -21.63716,-1.01419 -32.47845,-1.08258 -32.39069,-0.20261 -64.78155,-0.2909 -97.17243,-0.0829 -26.06891,0.15081 -52.14834,0.52516 -78.21705,0.16961 -9.3729,-0.2233 -4.9049,-0.0376 -13.40566,-0.51539 -2.95123,-0.16641 -2.71589,-4.34008 0.23534,-4.17367 l 0,0 c 8.35085,0.47245 3.94231,0.28766 13.22745,0.50914 26.04069,0.35683 52.09219,-0.0208 78.13309,-0.16991 32.40866,-0.20806 64.81731,-0.11988 97.2258,0.0829 10.79286,0.0689 21.57026,0.28254 32.33616,1.08409 2.95479,-0.0819 3.07054,4.09686 0.11575,4.1787 z"
       id="path9536"
       style="fill:#000000;fill-opacity:1;fill-rule:nonzero;stroke:none" />
    <path
       style="fill:#000000;fill-opacity:1;fill-rule:nonzero;stroke:none"
       id="path9566"
       d="m 397.61751,399.58813 c 3.52672,-1.42937 6.30217,-4.32207 8.90873,-7.0013 6.00671,-6.89942 9.59846,-15.29428 12.74789,-23.77062 3.91869,-11.04009 6.05506,-22.59208 7.86433,-34.13317 1.54124,-10.5696 1.91835,-21.25111 2.16795,-31.9139 0.37264,-8.89539 -0.34488,-17.74621 -1.96389,-26.48612 -1.49017,-7.73026 -3.85627,-15.21735 -8.25312,-21.78441 -2.71236,-4.00995 -6.39175,-6.49935 -11.02652,-7.63289 -2.42316,-0.35376 -1.23222,-0.27508 -3.57107,-0.26089 -2.95585,-0.019 -2.92868,-4.19942 0.0267,-4.18022 l 0,0 c 3.07171,0.0486 1.54985,-0.0819 4.56593,0.38764 5.81493,1.5013 10.01607,4.37903 13.48805,9.37557 4.69981,7.14291 7.2886,14.9544 8.88035,23.33601 1.66166,9.02396 2.41689,18.15986 2.03223,27.34322 -0.25444,10.84697 -0.64429,21.71257 -2.21731,32.46398 -1.85585,11.817 -4.05298,23.6426 -8.07644,34.94351 -3.36307,9.0183 -7.22981,17.93159 -13.67422,25.23236 -3.161,3.22814 -6.54142,6.63616 -10.90823,8.14216 -2.87151,0.70134 -3.86336,-3.35959 -0.99184,-4.06093 z"
       inkscape:connector-curvature="0" />
    <path
       style="fill:#000000;fill-opacity:1;fill-rule:nonzero;stroke:none"
       id="path9608"
       d="m 173.58697,400.07573 c 0.75568,1.98139 0.96749,4.01688 1.12981,6.04435 0.25014,2.76419 0.18926,5.51494 -0.23798,8.26857 -0.51701,2.48801 -0.84135,4.95492 -0.51299,7.45587 0.23864,1.84252 -3.92802,2.05358 -4.16666,0.21107 l 0,0 c -0.33977,-2.65629 -0.0394,-5.27881 0.519,-7.92019 0.41006,-2.62618 0.46218,-5.24872 0.22349,-7.88542 -0.14678,-1.85757 -0.3281,-3.72339 -1.01016,-5.5402 -0.71692,-1.79336 3.33857,-2.42741 4.05549,-0.63405 z"
       inkscape:connector-curvature="0" />
    <path
       style="fill:#000000;fill-opacity:1;fill-rule:nonzero;stroke:none"
       id="path9610"
       d="m 396.53663,400.07573 c 0.89282,3.06748 0.75092,6.1703 0.49439,9.30871 -0.33277,3.49267 -0.46114,6.99875 -0.54396,10.50473 -0.0338,1.85423 -0.0197,0.97613 -0.0434,2.63428 -0.0423,2.95562 -4.22217,2.89581 -4.17988,-0.0598 l 0,0 c 0.0241,-1.68218 0.01,-0.79104 0.0442,-2.6734 0.0851,-3.58686 0.21735,-7.17379 0.55674,-10.74711 0.22087,-2.68991 0.40549,-5.32138 -0.38353,-7.95353 -0.71692,-2.86767 3.33857,-3.88154 4.05549,-1.01387 z"
       inkscape:connector-curvature="0" />
    <path
       style="fill:#000000;fill-opacity:1;fill-rule:nonzero;stroke:none"
       id="path9616"
       d="m 421.61847,376.38733 c 0.64648,2.17263 0.94732,4.40483 1.126,6.65744 0.1592,2.6091 0.16458,5.22436 0.1724,7.83736 0.22077,2.24207 -0.4119,4.3706 -0.89684,6.52799 -0.29473,1.26072 -0.42825,2.55067 -0.48977,3.8415 -0.0364,0.87415 -0.0262,1.74932 -0.0236,2.62397 0.002,0.88734 0.005,1.77469 0.007,2.66203 6.8e-4,0.50387 7.8e-4,1.00775 8.4e-4,1.51162 3e-5,0.081 -2e-5,0.16208 -5e-5,0.24312 -2.36605,2.56889 -0.96427,1.53144 -2.7858,2.97472 -1.17315,1.23872 -2.45386,2.36288 -3.76879,3.45311 -1.37162,1.12655 -2.87294,2.07786 -4.32846,3.09315 -1.43727,1.12974 -3.17834,1.7983 -4.67623,2.82301 -1.59879,1.09637 -3.19681,2.18657 -4.85037,3.21199 -0.94015,0.55489 -1.8944,1.08809 -2.87677,1.56497 -0.009,0.0386 -0.20085,0.23644 -0.66578,0.70034 -0.0791,0.0766 -0.22329,0.22867 -0.28097,0.2885 -1.49746,-3.54583 -2.34165,-3.53089 -0.32258,-3.50435 0.1348,-3.8e-4 0.26904,0.009 0.40328,0.0197 2.93934,0.31266 2.49717,4.46952 -0.44217,4.15686 l 0,0 c -0.006,10e-4 -0.0124,0.004 -0.0188,0.003 -1.79164,-0.0159 -1.96975,-0.39971 -2.71565,-3.48457 0.13934,-0.14885 0.28021,-0.29624 0.42519,-0.43968 0.55463,-0.55272 1.10032,-1.12341 1.79542,-1.5025 0.85577,-0.41306 1.68391,-0.88156 2.50412,-1.36049 1.63068,-0.99929 3.1967,-2.06772 4.76329,-3.15678 1.50256,-0.95148 3.13338,-1.7019 4.57325,-2.75373 1.36197,-0.94263 2.76724,-1.8259 4.04505,-2.87785 1.35069,-1.11986 2.63897,-2.28868 3.87221,-3.53612 0.90284,-0.6775 4.21559,-3.50125 1.17021,0.32022 2e-5,-0.0789 8e-5,-0.15778 5e-5,-0.23668 -7e-5,-0.50064 -1.7e-4,-1.00128 -8.3e-4,-1.50192 -0.002,-0.88657 -0.004,-1.77314 -0.007,-2.65971 -0.003,-0.94638 -0.0128,-1.89332 0.0285,-2.83911 0.0756,-1.53217 0.23921,-3.06232 0.58742,-4.55905 0.42157,-1.86102 1.01231,-3.65722 0.79428,-5.59516 -0.007,-2.50824 -0.0117,-5.01859 -0.15964,-7.52332 -0.15618,-2.02205 -0.42519,-4.02188 -1.01397,-5.97006 -0.71691,-2.86767 3.33858,-3.88154 4.0555,-1.01387 z"
       inkscape:connector-curvature="0" />
    <path
       style="fill:#000000;fill-opacity:1;fill-rule:nonzero;stroke:none"
       id="path9630"
       d="m 392.09287,426.35739 c -5.84032,0.11493 -11.68312,0.29128 -17.52251,0.49606 -12.54807,0.58655 -25.08561,0.86071 -37.64523,0.71979 -19.79057,-0.5876 -39.57584,-1.20995 -59.37419,-1.38036 -19.40178,0.0304 -38.80347,0.56463 -58.2,1.05007 -11.61564,0.41198 -23.23562,0.0735 -34.82919,-0.71428 -3.543,-0.42315 -7.09177,-0.92455 -10.56309,-1.81176 -0.35979,-0.18378 -2.04261,0.16976 -0.73224,-0.12988 0.0493,-0.0259 0.0986,-0.0519 0.14785,-0.0778 -1.82853,2.21758 -4.76265,-0.54641 -2.93412,-2.76399 l 0,0 c 0.19872,-0.20718 0.39743,-0.41437 0.59615,-0.62154 1.30689,-0.62802 2.41875,-0.82507 3.83514,-0.47159 3.25174,0.83784 6.58078,1.29123 9.89853,1.70473 11.48047,0.78061 22.98709,1.11629 34.48945,0.70699 19.43755,-0.48615 38.88022,-1.02203 58.32305,-1.05106 19.80154,0.17072 39.59006,0.79106 59.38378,1.38045 12.5032,0.14072 24.98425,-0.13338 37.47599,-0.71778 6.00847,-0.21029 12.02248,-0.42052 18.03221,-0.47836 2.75232,0.2884 2.37074,4.44876 -0.38157,4.16036 z"
       inkscape:connector-curvature="0" />
    <path
       inkscape:connector-curvature="0"
       d="m 744.84347,245.50189 c -10.81546,-0.77245 -21.63716,-1.01419 -32.47845,-1.08258 -32.3907,-0.20261 -64.78155,-0.2909 -97.17243,-0.0829 -26.06891,0.15081 -52.14835,0.52516 -78.21706,0.16961 -9.37289,-0.2233 -4.9049,-0.0376 -13.40566,-0.51539 -2.95123,-0.16641 -2.71588,-4.34008 0.23535,-4.17367 l 0,0 c 8.35084,0.47245 3.94231,0.28765 13.22745,0.50914 26.04068,0.35683 52.09219,-0.0208 78.13308,-0.16991 32.40867,-0.20806 64.81731,-0.11988 97.2258,0.0829 10.79286,0.0689 21.57027,0.28254 32.33617,1.08409 2.95479,-0.0818 3.07053,4.09686 0.11575,4.1787 z"
       id="path9632"
       style="fill:#000000;fill-opacity:1;fill-rule:nonzero;stroke:none" />
    <path
       inkscape:connector-curvature="0"
       d="m 524.18875,244.74841 c -3.47745,1.54538 -6.15559,4.52841 -8.67199,7.29248 -5.77494,7.09455 -9.08673,15.60374 -11.95374,24.17974 -3.55095,11.1638 -5.3036,22.78018 -6.7297,34.37487 -1.19038,10.61484 -1.21357,21.30298 -1.10993,31.9682 -0.0779,8.90284 0.93235,17.72504 2.8399,26.40655 1.74533,7.67666 4.35807,15.0813 8.96998,21.49915 2.84366,3.91793 6.60347,6.28413 11.27323,7.26357 2.43355,0.27332 1.24066,0.23413 3.57775,0.14248 2.95487,-0.0788 3.06614,4.10014 0.11175,4.17881 l 0,0 c -3.07163,0.0532 -1.54629,0.13326 -4.57626,-0.23623 -5.86146,-1.30792 -10.15559,-4.04494 -13.79113,-8.92377 -4.93377,-6.98335 -7.77981,-14.70483 -9.64824,-23.02914 -1.95959,-8.96398 -3.01693,-18.06986 -2.9366,-27.26093 -0.10489,-10.84943 -0.0751,-21.72199 1.14106,-32.51959 1.46352,-11.87198 3.26782,-23.76386 6.91485,-35.1918 3.06259,-9.12472 6.63205,-18.16118 12.83117,-25.67135 3.05235,-3.33105 6.31806,-6.84914 10.63261,-8.49892 2.84671,-0.79604 3.97249,3.22982 1.12577,4.02587 z"
       id="path9634"
       style="fill:#000000;fill-opacity:1;fill-rule:nonzero;stroke:none" />
    <path
       style="fill:#000000;fill-opacity:1;fill-rule:nonzero;stroke:none"
       id="path9636"
       d="m 744.46004,245.61683 c -3.47745,1.54538 -6.15559,4.52841 -8.67199,7.29248 -5.77494,7.09455 -9.08673,15.60374 -11.95374,24.17974 -3.55095,11.1638 -5.3036,22.78018 -6.7297,34.37486 -1.19038,10.61485 -1.21357,21.30299 -1.10993,31.9682 -0.0779,8.90285 0.93235,17.72504 2.8399,26.40656 1.74534,7.67666 4.35807,15.0813 8.96998,21.49915 2.84366,3.91793 6.60347,6.28412 11.27323,7.26357 2.43355,0.27332 1.24066,0.23413 3.57775,0.14248 2.95487,-0.0789 3.06614,4.10014 0.11175,4.17881 l 0,0 c -3.07163,0.0532 -1.54629,0.13326 -4.57626,-0.23623 -5.86146,-1.30792 -10.15559,-4.04494 -13.79113,-8.92377 -4.93377,-6.98335 -7.77981,-14.70483 -9.64824,-23.02914 -1.95958,-8.96398 -3.01693,-18.06986 -2.9366,-27.26093 -0.10488,-10.84944 -0.0751,-21.72199 1.14106,-32.51959 1.46352,-11.87198 3.26782,-23.76386 6.91485,-35.1918 3.06259,-9.12472 6.63205,-18.16118 12.83117,-25.67135 3.05236,-3.33105 6.31807,-6.84914 10.63261,-8.49892 2.84671,-0.79604 3.97249,3.22982 1.12577,4.02587 z"
       inkscape:connector-curvature="0" />
    <path
       style="fill:#000000;fill-opacity:1;fill-rule:nonzero;stroke:none"
       id="path9638"
       d="m 738.06011,403.20837 c -10.81545,-0.77245 -21.63716,-1.01419 -32.47845,-1.08258 -32.39069,-0.20261 -64.78155,-0.2909 -97.17243,-0.0829 -26.06891,0.15081 -52.14834,0.52516 -78.21705,0.16961 -9.3729,-0.2233 -4.9049,-0.0376 -13.40566,-0.51539 -2.95123,-0.16641 -2.71589,-4.34008 0.23534,-4.17367 l 0,0 c 8.35085,0.47245 3.94231,0.28766 13.22745,0.50914 26.04069,0.35683 52.09219,-0.0208 78.13309,-0.16991 32.40866,-0.20806 64.81731,-0.11988 97.2258,0.0829 10.79286,0.0689 21.57026,0.28254 32.33616,1.08409 2.95479,-0.0819 3.07054,4.09686 0.11575,4.1787 z"
       inkscape:connector-curvature="0" />
    <path
       inkscape:connector-curvature="0"
       d="m 740.40261,399.58813 c 3.52672,-1.42937 6.30217,-4.32207 8.90873,-7.0013 6.00671,-6.89942 9.59846,-15.29428 12.74789,-23.77062 3.91869,-11.04009 6.05506,-22.59208 7.86433,-34.13317 1.54124,-10.5696 1.91835,-21.25111 2.16795,-31.9139 0.37264,-8.89539 -0.34488,-17.74621 -1.96389,-26.48612 -1.49017,-7.73026 -3.85627,-15.21735 -8.25312,-21.78441 -2.71236,-4.00995 -6.39175,-6.49935 -11.02652,-7.63289 -2.42316,-0.35376 -1.23222,-0.27508 -3.57107,-0.26089 -2.95585,-0.019 -2.92868,-4.19942 0.0267,-4.18022 l 0,0 c 3.07171,0.0486 1.54985,-0.0819 4.56593,0.38764 5.81493,1.5013 10.01607,4.37903 13.48805,9.37557 4.69981,7.14291 7.2886,14.9544 8.88035,23.33601 1.66166,9.02396 2.41689,18.15986 2.03223,27.34322 -0.25444,10.84697 -0.64429,21.71257 -2.21731,32.46398 -1.85585,11.817 -4.05298,23.6426 -8.07644,34.94351 -3.36307,9.0183 -7.22981,17.93159 -13.67422,25.23236 -3.161,3.22814 -6.54142,6.63616 -10.90823,8.14216 -2.87151,0.70134 -3.86336,-3.35959 -0.99184,-4.06093 z"
       id="path9640"
       style="fill:#000000;fill-opacity:1;fill-rule:nonzero;stroke:none" />
    <path
       inkscape:connector-curvature="0"
       d="m 516.37207,400.07573 c 0.75568,1.98139 0.96749,4.01688 1.12981,6.04435 0.25014,2.76419 0.18926,5.51494 -0.23798,8.26857 -0.51701,2.48801 -0.84135,4.95492 -0.51299,7.45587 0.23864,1.84252 -3.92802,2.05358 -4.16666,0.21107 l 0,0 c -0.33977,-2.65629 -0.0394,-5.27881 0.519,-7.92019 0.41006,-2.62618 0.46218,-5.24872 0.22349,-7.88542 -0.14678,-1.85757 -0.3281,-3.72339 -1.01016,-5.5402 -0.71692,-1.79336 3.33857,-2.42741 4.05549,-0.63405 z"
       id="path9642"
       style="fill:#000000;fill-opacity:1;fill-rule:nonzero;stroke:none" />
    <path
       inkscape:connector-curvature="0"
       d="m 739.32173,400.07573 c 0.89282,3.06748 0.75092,6.1703 0.49439,9.30871 -0.33277,3.49267 -0.46114,6.99875 -0.54396,10.50473 -0.0338,1.85423 -0.0197,0.97613 -0.0434,2.63428 -0.0423,2.95562 -4.22217,2.89581 -4.17988,-0.0598 l 0,0 c 0.0241,-1.68218 0.01,-0.79104 0.0442,-2.6734 0.0851,-3.58686 0.21735,-7.17379 0.55674,-10.74711 0.22087,-2.68991 0.40549,-5.32138 -0.38353,-7.95353 -0.71692,-2.86767 3.33857,-3.88154 4.05549,-1.01387 z"
       id="path9644"
       style="fill:#000000;fill-opacity:1;fill-rule:nonzero;stroke:none" />
    <path
       inkscape:connector-curvature="0"
       d="m 764.40357,376.38733 c 0.64648,2.17263 0.94732,4.40483 1.126,6.65744 0.1592,2.6091 0.16458,5.22436 0.1724,7.83736 0.22077,2.24207 -0.4119,4.3706 -0.89684,6.52799 -0.29473,1.26072 -0.42825,2.55067 -0.48977,3.8415 -0.0364,0.87415 -0.0262,1.74932 -0.0236,2.62397 0.002,0.88734 0.005,1.77469 0.007,2.66203 6.8e-4,0.50387 7.8e-4,1.00775 8.4e-4,1.51162 3e-5,0.081 -2e-5,0.16208 -5e-5,0.24312 -2.36605,2.56889 -0.96427,1.53144 -2.7858,2.97472 -1.17315,1.23872 -2.45386,2.36288 -3.76879,3.45311 -1.37162,1.12655 -2.87294,2.07786 -4.32846,3.09315 -1.43727,1.12974 -3.17834,1.7983 -4.67623,2.82301 -1.59879,1.09637 -3.19681,2.18657 -4.85037,3.21199 -0.94015,0.55489 -1.8944,1.08809 -2.87677,1.56497 -0.009,0.0386 -0.20085,0.23644 -0.66578,0.70034 -0.0791,0.0766 -0.22329,0.22867 -0.28097,0.2885 -1.49746,-3.54583 -2.34165,-3.53089 -0.32258,-3.50435 0.1348,-3.8e-4 0.26904,0.009 0.40328,0.0197 2.93934,0.31266 2.49717,4.46952 -0.44217,4.15686 l 0,0 c -0.006,10e-4 -0.0124,0.004 -0.0188,0.003 -1.79164,-0.0159 -1.96975,-0.39971 -2.71565,-3.48457 0.13934,-0.14885 0.28021,-0.29624 0.42519,-0.43968 0.55463,-0.55272 1.10032,-1.12341 1.79542,-1.5025 0.85577,-0.41306 1.68391,-0.88156 2.50412,-1.36049 1.63068,-0.99929 3.1967,-2.06772 4.76329,-3.15678 1.50256,-0.95148 3.13338,-1.7019 4.57325,-2.75373 1.36197,-0.94263 2.76724,-1.8259 4.04505,-2.87785 1.35069,-1.11986 2.63897,-2.28868 3.87221,-3.53612 0.90284,-0.6775 4.21559,-3.50125 1.17021,0.32022 2e-5,-0.0789 8e-5,-0.15778 5e-5,-0.23668 -7e-5,-0.50064 -1.7e-4,-1.00128 -8.3e-4,-1.50192 -0.002,-0.88657 -0.004,-1.77314 -0.007,-2.65971 -0.003,-0.94638 -0.0128,-1.89332 0.0285,-2.83911 0.0756,-1.53217 0.23921,-3.06232 0.58742,-4.55905 0.42157,-1.86102 1.01231,-3.65722 0.79428,-5.59516 -0.007,-2.50824 -0.0117,-5.01859 -0.15964,-7.52332 -0.15618,-2.02205 -0.42519,-4.02188 -1.01397,-5.97006 -0.71691,-2.86767 3.33858,-3.88154 4.0555,-1.01387 z"
       id="path9646"
       style="fill:#000000;fill-opacity:1;fill-rule:nonzero;stroke:none" />
    <path
       inkscape:connector-curvature="0"
       d="m 734.87797,426.35739 c -5.84032,0.11493 -11.68312,0.29128 -17.52251,0.49606 -12.54807,0.58655 -25.08561,0.86071 -37.64523,0.71979 -19.79057,-0.5876 -39.57584,-1.20995 -59.37419,-1.38036 -19.40178,0.0304 -38.80347,0.56463 -58.2,1.05007 -11.61564,0.41198 -23.23562,0.0735 -34.82919,-0.71428 -3.543,-0.42315 -7.09177,-0.92455 -10.56309,-1.81176 -0.35979,-0.18378 -2.04261,0.16976 -0.73224,-0.12988 0.0493,-0.0259 0.0986,-0.0519 0.14785,-0.0778 -1.82853,2.21758 -4.76265,-0.54641 -2.93412,-2.76399 l 0,0 c 0.19872,-0.20718 0.39743,-0.41437 0.59615,-0.62154 1.30689,-0.62802 2.41875,-0.82507 3.83514,-0.47159 3.25174,0.83784 6.58078,1.29123 9.89853,1.70473 11.48047,0.78061 22.98709,1.11629 34.48945,0.70699 19.43755,-0.48615 38.88022,-1.02203 58.32305,-1.05106 19.80154,0.17072 39.59006,0.79106 59.38378,1.38045 12.5032,0.14072 24.98425,-0.13338 37.47599,-0.71778 6.00847,-0.21029 12.02248,-0.42052 18.03221,-0.47836 2.75232,0.2884 2.37074,4.44876 -0.38157,4.16036 z"
       id="path9648"
       style="fill:#000000;fill-opacity:1;fill-rule:nonzero;stroke:none" />
    <path
       style="fill:#000000;fill-opacity:1;fill-rule:nonzero;stroke:none"
       id="path9654"
       d="m 405.64947,314.1154 c 2.9297,-0.77564 5.81116,-1.63746 8.81295,-2.11674 3.9437,-0.51353 7.92928,-0.53527 11.89963,-0.57253 4.25695,-0.0215 8.51398,-0.007 12.77095,-0.002 5.55434,0.006 11.10868,0.007 16.66302,0.008 4.60351,-0.12503 9.16422,0.61787 13.73818,1.01834 3.45556,0.28297 6.92416,0.33539 10.38935,0.3732 1.44909,0.014 2.89827,0.0146 4.3474,0.008 1.34097,-0.13842 2.53133,0.52141 3.7548,0.9547 0.94003,0.26422 1.90494,0.36127 2.87539,0.41803 0.69527,0.0233 1.39108,0.0283 2.08668,0.0224 1.23618,-0.007 -0.21702,-0.43998 2.39613,2.41678 -5.2e-4,2.95592 -4.18082,2.9552 -4.18031,-7.2e-4 l 0,0 c 2.52782,2.00375 3.07326,1.73049 1.81907,1.76411 -0.79007,0.006 -1.58043,9.2e-4 -2.36999,-0.0297 -1.36258,-0.0823 -2.71842,-0.24367 -4.02752,-0.65224 -1.06875,-0.38132 -1.44278,-0.78853 -2.33591,-0.71314 -1.47048,0.006 -2.94099,0.006 -4.41143,-0.008 -3.5718,-0.0391 -7.14702,-0.0954 -10.70876,-0.38892 -4.45282,-0.3909 -8.89282,-1.11756 -13.3738,-1.00237 -5.55581,-9.6e-4 -11.11162,-0.002 -16.66742,-0.008 -4.24224,-0.005 -8.48454,-0.0192 -12.72676,0.002 -3.76592,0.035 -7.54622,0.0506 -11.28849,0.52183 -2.88142,0.44632 -5.63486,1.31423 -8.44929,2.0428 -2.86766,0.71692 -3.88154,-3.33857 -1.01387,-4.05549 z"
       inkscape:connector-curvature="0" />
    <path
       style="fill:#000000;fill-opacity:1;fill-rule:nonzero;stroke:none"
       id="path9656"
       d="m 745.33779,314.42694 c 5.10783,0.0609 10.217,-0.0582 15.32482,-0.11139 7.632,-0.13699 15.25006,-0.13695 22.87065,0.3079 7.98487,0.54447 15.93592,1.43245 23.9276,1.91179 5.42579,0.10437 10.79706,0.9089 16.18133,1.50088 2.24935,0.23559 4.5097,0.329 6.76989,0.36959 0.82552,0.0116 1.65118,0.008 2.47673,5.8e-4 2.12476,1.02553 1.42764,0.24917 2.30122,2.12201 0.74711,2.85994 -3.29746,3.91652 -4.04458,1.05657 l 0,0 c 0.70265,0.89871 0.19697,0.44201 1.782,1.00155 -0.86358,0.008 -1.72729,0.0113 -2.59085,-10e-4 -2.3877,-0.0433 -4.77548,-0.14399 -7.1516,-0.39398 -5.31547,-0.58527 -10.61799,-1.38221 -15.97465,-1.48332 -7.98946,-0.48007 -15.93876,-1.36257 -23.92104,-1.9114 -7.52478,-0.44047 -15.04701,-0.43488 -22.58318,-0.301 -5.39395,0.0562 -10.79832,0.25015 -16.18817,0.0304 -2.89852,-0.5797 -2.07869,-4.67883 0.81983,-4.09913 z"
       inkscape:connector-curvature="0" />
    <path
       style="fill:#000000;fill-opacity:1;fill-rule:nonzero;stroke:none"
       id="path9672"
       d="m 540.38489,302.9595 c 1.77239,-0.91699 3.65825,-1.59384 5.54099,-2.24573 0.41544,-0.14242 0.83203,-0.28176 1.25691,-0.393 -0.004,1.3765 0.16565,2.76454 -0.0123,4.1295 -0.002,0.0124 -5.10058,0.0125 -5.38652,0.0128 -4.70232,0.17457 -8.4456,2.81921 -11.82113,5.86033 -4.08962,4.16996 -7.11746,9.54231 -7.81893,15.42426 -0.12771,1.07082 -0.0439,2.15637 -0.0659,3.23456 0.7812,6.08211 3.87597,8.84549 9.58051,10.40661 4.77047,0.28019 6.73436,-3.75011 8.16601,-7.64922 1.23126,-4.02168 0.98106,-8.25153 0.60671,-12.38371 -0.0779,-0.80449 -0.20134,-1.77134 -0.35973,-2.51461 0.0201,0.0602 -0.003,0.182 0.0604,0.18048 1.3272,-0.0318 2.66672,-0.0409 3.97309,-0.27727 0.14944,-0.027 -0.0714,-0.53288 0.0572,-0.452 0.007,0.005 1.21327,3.36533 1.21565,3.37165 2.04456,4.89278 3.91311,9.85248 5.37202,14.9516 0.89101,2.67491 1.89858,5.30739 2.77,7.9893 -4.5e-4,-0.0217 -9.1e-4,-0.0434 -10e-4,-0.0652 1.36652,2.62109 -2.34026,4.55364 -3.70678,1.93255 l 0,0 c -0.0892,-0.192 -0.17845,-0.38399 -0.26768,-0.57598 -0.88636,-2.72986 -1.92156,-5.40584 -2.81395,-8.13338 -1.42106,-4.99183 -3.27148,-9.8374 -5.26507,-14.62762 -0.0549,-0.14618 -1.93361,-4.6247 -1.51279,-4.8698 1.18892,-0.69245 2.67666,-0.65852 4.03914,-0.85001 0.0943,-0.0133 0.0648,0.17912 0.0971,0.26868 0.29195,1.07479 0.36701,2.1963 0.50618,3.29669 0.42654,4.7642 0.63278,9.62124 -0.86051,14.2383 -2.46214,6.35395 -5.72207,10.94771 -13.2456,10.18278 -7.85493,-2.39492 -11.58737,-6.17532 -12.58885,-14.55015 0.0532,-1.33119 -0.0137,-2.67263 0.15951,-3.99359 0.88535,-6.75325 4.39283,-12.88964 9.12763,-17.66053 4.19439,-3.68099 8.81888,-6.77167 14.59327,-6.91506 0.26446,-2.3e-4 5.35903,-0.0249 5.36352,-0.0127 0.48614,1.3266 0.65516,2.74875 0.98274,4.12312 -0.27915,0.0863 -0.55667,0.17783 -0.83358,0.27108 -1.71108,0.5917 -3.42881,1.19906 -5.03848,2.03423 -2.64386,1.32192 -4.51335,-2.41705 -1.86949,-3.73898 z"
       inkscape:connector-curvature="0" />
    <path
       style="fill:#000000;fill-opacity:1;fill-rule:nonzero;stroke:none"
       id="path9674"
       d="m 533.74287,319.60955 c 3.5542,-1.3899 7.34301,-1.91426 11.11695,-2.2799 2.43839,-0.20401 4.88478,-0.26624 7.33005,-0.31766 2.95528,-0.062 3.0429,4.11743 0.0876,4.17939 l 0,0 c -2.34113,0.0489 -4.68338,0.10694 -7.01813,0.29944 -3.37907,0.32126 -6.77707,0.76845 -9.96396,2.00005 -2.7445,1.0978 -4.29703,-2.78352 -1.55253,-3.88132 z"
       inkscape:connector-curvature="0" />
    <path
       style="fill:#000000;fill-opacity:1;fill-rule:nonzero;stroke:none"
       id="path9676"
       d="m 559.94123,324.20281 c 2.87088,1.093 5.76811,2.10233 8.84029,1.44844 2.17908,-0.82962 4.88715,-2.58573 3.91346,-5.24862 -1.82859,-2.72116 -5.15564,-3.84663 -8.30472,-3.50538 -4.90646,1.85273 -5.94325,7.76254 -6.3615,12.4026 0.55529,7.44958 2.73315,10.64216 9.43102,13.65432 3.57571,0.5771 1.77737,0.45208 5.39496,0.37602 2.95585,-0.0207 2.98512,4.1595 0.0293,4.1802 l 0,0 c -4.75755,-0.0183 -2.36104,0.22036 -7.18451,-0.76461 -1.07416,-0.51114 -2.20171,-0.92262 -3.22249,-1.53344 -5.90744,-3.53494 -8.4846,-9.64398 -8.60699,-16.33652 0.14531,-1.30378 0.17608,-2.62548 0.43593,-3.91135 0.87748,-4.34219 3.02227,-9.25836 7.16863,-11.37272 0.82922,-0.42284 1.76969,-0.57776 2.65454,-0.86665 0.90981,-0.0322 1.82273,-0.17852 2.72942,-0.0967 4.33435,0.39122 8.30034,3.1098 9.96195,7.0996 0.0781,0.80166 0.29734,1.60199 0.23432,2.40497 -0.31922,4.06798 -4.08513,6.49636 -7.56664,7.63841 -4.06436,0.59715 -6.80178,-5.8e-4 -10.56081,-1.5131 -2.86767,-0.71692 -1.85379,-4.77241 1.01387,-4.05549 z"
       inkscape:connector-curvature="0" />
    <path
       style="fill:#000000;fill-opacity:1;fill-rule:nonzero;stroke:none"
       id="path9678"
       d="m 590.97637,321.08258 c 1.14498,-0.54107 2.27152,-1.12363 3.36196,-1.76824 0.0836,-0.0495 -0.16954,0.095 -0.25431,0.14255 -0.18706,0.62752 -0.37412,1.25504 -0.56118,1.88256 0.0784,0.1875 0.2545,0.36019 0.23516,0.56249 -0.0162,0.16921 -0.20838,-0.14227 -0.95909,-0.21042 -0.48258,-0.0438 -1.15938,0.16483 -1.5837,0.26221 -3.97195,1.52497 -6.10795,4.99804 -7.72361,8.71668 -1.08209,4.085 -0.69506,5.91368 3.20176,7.48013 4.14614,1.01301 7.07485,-1.8101 9.14977,-5.05059 1.28102,-2.75897 2.6921,-5.82609 2.2695,-8.94013 -0.0587,-0.0493 -0.14784,-0.21897 -0.17614,-0.14775 -0.31254,0.78648 1.33669,0.71385 1.53434,0.93182 0.14822,0.16345 -0.21852,0.3942 -0.25122,0.61241 -0.79012,2.43834 -0.16967,4.88032 0.57625,7.24479 1.31515,3.35564 3.27105,6.43947 6.04165,8.76127 0.31805,0.13998 0.6361,0.27996 0.95415,0.41994 2.63357,1.3423 0.73526,5.06674 -1.89831,3.72443 l 0,0 c -0.59339,-0.32457 -1.18678,-0.64915 -1.78017,-0.97372 -3.3178,-2.90305 -5.78391,-6.5496 -7.31165,-10.69891 -1.03016,-3.39687 -1.68878,-6.86229 -0.35149,-10.28481 1.95431,-3.49622 5.24012,-4.74095 6.8178,-0.0468 0.39427,4.13417 -1.04314,8.09286 -2.94726,11.71749 -3.64637,5.30758 -7.65512,8.31074 -14.3361,6.54567 -0.78508,-0.37437 -1.62609,-0.64892 -2.35524,-1.1231 -4.21132,-2.73871 -4.35367,-7.49385 -2.96147,-11.86125 2.23322,-4.9875 5.34023,-9.41577 10.79603,-11.13974 0.60605,-0.0958 1.20552,-0.25324 1.81814,-0.28728 1.3822,-0.0768 4.73098,0.46631 5.12792,2.24704 0.18555,0.83238 -0.20049,1.69381 -0.30073,2.54071 -1.47357,1.27893 -3.33467,2.04646 -5.11889,2.79609 -2.86766,0.71692 -3.88153,-3.33857 -1.01387,-4.05549 z"
       inkscape:connector-curvature="0" />
    <path
       style="fill:#000000;fill-opacity:1;fill-rule:nonzero;stroke:none"
       id="path9680"
       d="m 612.30269,326.47938 c 2.8781,3.00769 4.73258,6.70385 6.42082,10.46166 0.80255,1.90004 1.40841,3.97745 1.91195,5.92395 -1.33233,0.0418 -2.66479,0.17125 -3.99699,0.12548 -0.0755,-0.003 -0.34816,-0.89053 -0.4597,-1.20309 -0.75824,-2.1247 -1.40277,-4.22622 -1.96932,-6.41205 -1.47848,-5.9675 -1.71012,-9.93955 0.90726,-15.59622 1.85234,-2.89366 4.74806,-6.36917 8.65565,-5.686 0.68333,0.11946 1.2941,0.50014 1.94114,0.75021 2.68262,1.24139 0.92702,5.03518 -1.75559,3.79379 l 0,0 c -0.0283,-0.0217 -0.73639,-0.60089 -0.88523,-0.59447 -1.87808,0.081 -3.21387,2.23464 -4.18021,3.53053 -2.2716,4.61673 -1.81542,7.83996 -0.63513,12.75835 0.56487,2.20295 0.53441,2.26287 1.24167,4.35412 0.26074,0.77096 0.94421,2.47309 1.12417,3.34067 0.10203,0.49188 0.59634,1.24716 0.16132,1.49839 -1.19799,0.69187 -2.71954,0.50956 -4.07931,0.76434 -0.61565,-1.87023 -0.94731,-3.84051 -1.79592,-5.63729 -1.47612,-3.29718 -3.05602,-6.5609 -5.56251,-9.21644 -2.09015,-2.09016 0.86577,-5.04608 2.95593,-2.95593 z"
       inkscape:connector-curvature="0" />
    <path
       style="fill:#000000;fill-opacity:1;fill-rule:nonzero;stroke:none"
       id="path9682"
       d="m 633.31637,296.40837 c -0.0196,6.74764 1.09867,13.42576 2.01797,20.09061 1.23651,8.06963 2.3358,16.15197 3.7634,24.19097 0.40364,1.496 0.43779,3.09761 0.86193,4.59003 0.0164,0.0576 0.0867,-0.13579 0.0414,-0.17499 -0.4347,-0.37584 -0.83729,-0.89992 -1.40279,-1.00208 -0.51486,-0.093 -0.99657,0.31907 -1.49485,0.4786 0.0504,-1.98353 0.41628,-4.03409 0.80004,-5.99637 0.8472,-4.08812 3.74542,-6.71639 6.94151,-9.10667 2.56588,-1.57508 6.05248,-3.86726 9.21418,-2.42758 0.64975,0.29586 1.16546,0.82495 1.74819,1.23743 0.36117,0.69072 0.86174,1.32493 1.08352,2.07216 1.40394,4.73024 -2.256,9.07284 -5.33888,12.07357 -5.06968,3.61814 -10.98334,4.95974 -17.07219,3.86816 -1.44402,-0.67251 -3.81485,-1.24102 -4.7002,-2.79921 -0.34187,-0.60167 -0.41554,-1.32016 -0.62331,-1.98024 -0.12563,-2.95326 4.0509,-3.13092 4.17653,-0.17767 l 0,0 c -1.486,-2.00693 0.83733,0.88408 1.9376,0.85226 4.70661,0.99555 9.3798,-0.19025 13.40057,-2.79229 2.37131,-2.18686 4.35485,-4.58977 4.39584,-7.96008 -0.50227,-2.06356 -4.99913,0.89227 -5.72982,1.38979 -2.37034,1.74477 -4.66203,3.53288 -5.33125,6.55426 -0.49947,2.54338 -0.46647,5.20583 -1.49137,7.60916 -0.68812,0.42746 -1.25587,1.2315 -2.06435,1.2824 -3.21642,0.20247 -2.97717,-5.03895 -3.4682,-6.85979 -1.43673,-8.0921 -2.54495,-16.22763 -3.78858,-24.35066 -0.94534,-6.85431 -2.08225,-13.72215 -2.05717,-20.66177 0,-2.95592 4.1803,-2.95592 4.1803,0 z"
       inkscape:connector-curvature="0" />
    <path
       style="fill:#000000;fill-opacity:1;fill-rule:nonzero;stroke:none"
       id="path9684"
       d="m 668.43346,328.04187 c -2.03654,2.82071 -3.46788,5.89682 -4.55379,9.18763 -0.77759,3.64928 0.81694,3.54804 3.75572,2.92841 3.12423,-1.07279 6.58862,-3.20088 7.15876,-6.70823 -1.90483,-2.81603 -5.256,-3.62748 -8.35458,-4.44195 -1.60116,-0.26041 -3.21192,-0.7082 -4.84245,-0.77787 -0.1374,-0.006 -0.52409,0.14917 -0.40451,0.0812 2.05167,-1.16554 1.20796,0.30235 1.53053,-2.98806 0.10684,0.0319 0.21369,0.0637 0.32054,0.0955 2.56796,1.46392 0.49766,5.09556 -2.0703,3.63164 l 0,0 c -0.40477,-0.25981 -0.80955,-0.51963 -1.21433,-0.77944 -0.17589,-1.05604 -0.79514,-2.13148 -0.52767,-3.16812 0.52725,-2.04351 7.15441,-0.34461 8.28174,-0.13503 4.00496,1.07427 9.21844,2.49802 10.90577,6.84884 0.31983,0.8247 0.29207,1.74482 0.4381,2.61723 -0.2028,0.72027 -0.30983,1.47468 -0.60842,2.1608 -1.75465,4.03195 -5.99955,6.49563 -10.00446,7.69916 -0.93137,0.1047 -1.85809,0.36204 -2.7941,0.31409 -4.88994,-0.25052 -6.71317,-4.40942 -5.53687,-8.69798 1.30343,-3.8896 3.01883,-7.5753 5.5644,-10.82382 2.09015,-2.09015 5.04608,0.86577 2.95592,2.95592 z"
       inkscape:connector-curvature="0" />
    <path
       style="fill:#000000;fill-opacity:1;fill-rule:nonzero;stroke:none"
       id="path9690"
       d="m 700.48248,328.04187 c -3.15449,3.49365 -6.58465,6.71258 -10.08913,9.85417 -1.97306,1.86304 -3.90832,3.77298 -5.70396,5.80933 -0.0656,0.0808 -0.26615,0.31955 -0.20668,0.23411 -1.54383,2.52073 -5.10868,0.33743 -3.56486,-2.1833 l 0,0 c 0.19136,-0.28886 0.40471,-0.56008 0.63757,-0.81725 1.90575,-2.15691 3.95256,-4.18607 6.04881,-6.15669 3.45044,-3.08803 6.82085,-6.25702 9.92232,-9.69629 2.09016,-2.09015 5.04608,0.86577 2.95593,2.95592 z"
       inkscape:connector-curvature="0" />
    <path
       style="fill:#000000;fill-opacity:1;fill-rule:nonzero;stroke:none"
       id="path9694"
       d="m 684.38479,325.92118 c 3.20028,1.75563 5.92869,4.24097 8.68395,6.60899 3.14939,2.61871 6.41057,5.08186 9.73149,7.47645 0.98333,0.70691 1.97007,1.40907 2.96039,2.10615 2.41713,1.70147 0.0109,5.1198 -2.40623,3.41834 l 0,0 c -1.00327,-0.70624 -2.00296,-1.41756 -2.99914,-2.13377 -3.41723,-2.46416 -6.77197,-5.00137 -10.01168,-7.69724 -2.49492,-2.14549 -4.95687,-4.40804 -7.82827,-6.03994 -2.64386,-1.32193 -0.77437,-5.06091 1.86949,-3.73898 z"
       inkscape:connector-curvature="0" />
    <path
       style="fill:#000000;fill-opacity:1;fill-rule:nonzero;stroke:none"
       id="path9716"
       d="m 465.45715,350.25388 c -4.66747,-0.58162 -9.04581,-2.40122 -13.2263,-4.47097 -6.55774,-3.57089 -10.22815,-9.65165 -13.09992,-16.29613 -2.43203,-6.87574 -3.53292,-14.20913 -1.92119,-21.40947 0.35464,-1.58437 0.91416,-3.11581 1.37124,-4.67372 3.83869,-9.86911 11.23441,-17.36575 18.73319,-24.54223 3.30487,-2.76053 6.25926,-5.92983 9.84707,-8.33503 1.05659,-0.75092 1.90013,-1.01714 3.1794,-0.88948 -2.5561,0.65993 -0.29691,-0.39058 0.29968,-0.73254 0.23774,-0.13635 0.47654,-0.27083 0.71592,-0.40425 1.36868,4.63039 1.45791,3.96141 -1.68409,3.95113 -3.81579,-0.20863 -7.56818,0.41492 -11.29202,1.16537 -2.69343,0.44267 -5.27533,1.38287 -7.8183,2.35124 -0.0125,0.003 -1.26492,0.56279 -0.84636,0.33258 -0.68293,-4.09828 -1.88189,-3.43995 -0.21218,-4.17122 0.96036,-0.4206 1.90599,-0.90788 2.86194,-1.34225 3.94549,-1.61227 8.08212,-2.57631 12.26434,-3.32347 1.95035,-0.29725 3.91232,-0.54196 5.88379,-0.6396 2.2684,-0.75343 0.68195,5.38999 2.3035,3.14976 -0.6102,2.61727 -0.79405,5.31305 -0.96265,7.98825 -0.10869,1.88246 -0.16268,3.76783 -0.18349,5.65319 -0.0328,2.95574 -4.21287,2.90932 -4.18005,-0.0464 l 0,0 c 0.0219,-1.95798 0.0781,-3.91595 0.19158,-5.87089 0.18204,-2.86318 0.38825,-5.74579 1.03629,-8.54796 0.18978,-0.46523 0.19863,-1.73484 0.56935,-1.39569 0.21165,0.19363 2.24557,3.37729 1.42864,3.24512 -1.79374,0.0854 -3.57815,0.31637 -5.35321,0.57964 -3.84015,0.68323 -7.63851,1.55339 -11.26877,3.01391 -0.48937,0.22236 -4.77986,2.2344 -4.95883,2.00014 -0.84491,-1.10594 -1.07681,-2.56679 -1.61522,-3.85019 0.49318,-0.28042 1.02931,-0.47159 1.55474,-0.68195 2.75818,-1.04867 5.56164,-2.05257 8.48023,-2.54234 3.99916,-0.80359 8.03419,-1.45549 12.1305,-1.2475 3.05575,0.0102 2.23043,-0.53251 3.6888,3.88982 -0.2193,0.12223 -0.43793,0.24564 -0.65578,0.37044 -1.04135,0.59678 -2.17089,1.43891 -3.44057,1.14878 1.055,0.005 1.20711,-0.2715 0.20282,0.32382 -3.39513,2.25161 -6.13011,5.31218 -9.27694,7.87788 -6.97211,6.67086 -13.93522,13.58726 -17.61635,22.71323 -0.97416,3.22877 -1.64655,4.82499 -1.92808,8.18408 -0.42958,5.12559 0.68555,10.23958 2.31337,15.06111 2.43633,5.73939 5.49678,11.06833 11.12102,14.20083 3.80027,1.90476 7.79712,3.56516 12.05013,4.08955 2.91571,0.48595 2.22847,4.60938 -0.68724,4.12343 z"
       inkscape:connector-curvature="0" />
    <path
       style="fill:#000000;fill-opacity:1;fill-rule:nonzero;stroke:none"
       id="path9720"
       d="m 810.20066,367.06088 c -2.69338,-3.22015 -5.7385,-6.09414 -8.37947,-9.36579 -6.26478,-7.67362 -9.68129,-16.79211 -12.15424,-26.25585 -2.09053,-9.97343 -1.3733,-20.08098 2.62909,-29.48516 0.69644,-1.63641 1.57266,-3.19033 2.35898,-4.7855 4.00699,-7.42661 10.2698,-12.63937 17.30004,-17.02007 3.57899,-1.96299 7.21503,-3.82128 10.88748,-5.60285 2.43987,-1.15757 1.24794,-1.02712 3.00165,3.23619 -1.30148,0.93809 -3.20038,-2.94711 -1.84402,-3.77269 0.43535,1.29583 1.04286,2.54606 1.30605,3.88749 0.0384,0.19582 -4.54582,0.12241 -4.85519,0.12147 -4.15194,-0.0152 -8.30391,-0.0205 -12.45588,-0.0244 -2.47445,-0.002 -4.9489,-0.003 -7.42336,-0.004 0.66102,0.0503 1.11088,-0.25614 1.26786,-0.86668 0.25286,-0.92693 -2.01791,-1.86933 -1.35874,-1.89477 3.45418,7.2e-4 6.90839,-0.0107 10.36258,-0.0156 3.77614,-0.005 7.55229,-0.008 11.32843,-0.009 0.48818,-1.9e-4 0.97636,-5e-4 1.46454,-3.7e-4 -0.12037,1.39352 -0.46106,2.78543 -0.36109,4.18056 0.0163,0.22767 0.79197,-0.20127 0.68474,2.2e-4 -0.51043,0.95902 -1.21858,1.78319 -1.73479,2.75452 -1.66007,3.50239 -2.75592,7.26283 -3.9175,10.95832 -0.6957,1.00786 -0.22716,3.9098 -0.948,1.1492 1.79707,2.34692 -1.52196,4.88836 -3.31904,2.54145 l 0,0 c -0.75798,-2.19645 -0.42462,-2.77919 0.27962,-4.94579 1.24641,-3.95433 2.4173,-7.97962 4.23798,-11.71029 0.0823,-0.14725 3.95975,-6.65616 4.71397,-4.92793 0.55935,1.28169 0.23828,2.78669 0.35742,4.18004 -0.48526,-1.2e-4 -0.97051,1.9e-4 -1.45577,3.7e-4 -3.77489,0.002 -7.54978,0.005 -11.32467,0.009 -3.50094,0.005 -7.00196,0.019 -10.50287,0.0134 -1.42805,-0.0746 -2.77072,-0.97327 -2.68386,-2.44821 0.13906,-1.70442 1.18173,-2.85238 2.9097,-3.14879 2.47561,3e-4 4.95122,10e-4 7.42683,0.004 4.1549,0.004 8.3098,0.009 12.46468,0.0244 4.46684,0.0137 3.41259,-1.12385 5.69753,3.74964 -1.33733,0.81421 -3.87353,-2.66823 -2.47771,-3.3843 2.33829,3.99676 3.24285,3.01885 0.98333,4.10367 -3.54161,1.71774 -7.04643,3.51197 -10.50482,5.39184 -6.37621,3.95413 -12.10017,8.61034 -15.76179,15.32665 -0.72721,1.45785 -1.53542,2.87804 -2.18163,4.37356 -3.71541,8.59861 -4.40025,17.84181 -2.50606,26.98811 2.30281,8.89829 5.48193,17.47458 11.36723,24.68973 2.65355,3.3197 5.7874,6.17986 8.46501,9.47596 1.77355,2.36474 -1.57069,4.87292 -3.34424,2.50819 z"
       inkscape:connector-curvature="0" />
    <path
       style="fill:#000000;fill-opacity:1;fill-rule:nonzero;stroke:none"
       id="path9722"
       d="m 452.04224,220.20948 c 0,5.02436 0,10.04872 0,15.07307 0.33916,4.78481 0.16605,9.64138 1.25253,14.36674 -1.42003,-0.97863 0.86439,1.43496 0.42697,1.21692 -0.4928,-0.24562 -0.74373,-0.86213 -1.31394,-0.92577 -0.61591,-0.0687 -1.14948,0.39115 -1.72421,0.58672 0.4533,-2.00434 3.88081,-1.47417 3.4275,0.53017 l 0,0 c -0.66297,0.58571 -1.05153,1.55048 -1.98891,1.75714 -1.64991,0.36373 -2.04676,-1.94106 -2.25415,-2.63164 -1.10687,-4.90539 -0.9945,-9.93305 -1.31272,-14.90028 0,-5.02435 0,-10.04871 0,-15.07307 0,-2.03909 3.48693,-2.03909 3.48693,0 z"
       inkscape:connector-curvature="0" />
    <path
       style="fill:#000000;fill-opacity:1;fill-rule:nonzero;stroke:none"
       id="path9724"
       d="m 438.45206,220.88371 c 3.84785,-1.52487 7.75964,-2.95054 11.70619,-4.29203 4.0004,-1.46324 8.11885,-1.90813 12.41381,-1.39931 1.4063,0.1861 2.80851,0.39065 4.21493,0.57609 2.43485,0.32129 1.88544,3.16898 -0.5494,2.8477 l 0,0 c -1.39177,-0.18378 -2.77965,-0.38505 -4.1711,-0.57054 -3.67358,-0.45711 -7.16092,-0.0493 -10.58393,1.21371 -3.86818,1.31177 -7.69926,2.7127 -11.47109,4.20365 -2.20534,0.91191 -3.76475,-1.66736 -1.55941,-2.57927 z"
       inkscape:connector-curvature="0" />
    <path
       style="fill:#000000;fill-opacity:1;fill-rule:nonzero;stroke:none"
       id="path9726"
       d="m 463.77057,245.76514 c 0.78443,1.97869 1.38702,4.00005 1.8486,6.04579 0.0432,0.42407 0.0893,0.74136 0.4086,1.05356 0.0274,0.0268 0.12677,0.0932 0.0922,0.0728 -0.25265,-0.14979 -0.43678,-0.4526 -0.74746,-0.46119 -0.58837,-0.0163 -1.13388,0.2623 -1.70082,0.39345 -0.0505,0.0337 -0.1586,0.15443 -0.1517,0.10104 0.0668,-0.51701 0.32912,-1.0041 0.46288,-1.51216 0.28044,-1.0652 0.57855,-2.11719 0.91892,-3.17121 0.64108,-1.82478 1.64249,-3.49805 3.02233,-5.0117 0.73269,-0.83835 1.85652,-1.1432 3.04288,-1.20755 2.58218,0.36389 2.82202,2.42981 3.03058,4.22303 0.021,0.26046 0.046,0.52073 0.0631,0.78138 5.5e-4,0.008 0.0204,3.01964 0.0985,2.20525 -0.64757,-1.79529 -2.43846,0.41449 -1.15504,-1.29696 0.56977,-1.07175 1.38435,-2.04554 2.22721,-2.9821 2.14932,-2.188 3.69713,0.61545 4.43502,1.9523 0.86848,1.69302 2.35075,2.99602 3.95369,4.22581 0.6785,0.51006 1.37725,1.00109 2.08686,1.48114 1.90802,1.29151 -0.30052,3.52305 -2.20855,2.23154 l 0,0 c -0.76614,-0.51886 -1.52091,-1.04925 -2.25293,-1.60099 -1.93643,-1.49255 -3.69664,-3.10899 -4.75587,-5.14859 -1.21935,-2.2531 -0.88919,-0.87508 0.33381,-1.00525 0.95129,-0.10126 1.71959,-0.96009 1.20341,-0.41224 -0.81507,0.90207 -1.56644,1.84808 -2.13473,2.87447 -1.2221,1.4322 -3.44502,2.91186 -4.98111,0.7295 -0.39644,-1.23468 -0.25462,-2.49569 -0.38514,-3.76685 -0.0654,-0.59941 -0.0641,-0.71952 -0.17432,-1.28145 -0.0294,-0.15015 -0.23682,-0.46877 -0.0537,-0.45413 0.12838,0.0103 0.23933,0.0796 0.35899,0.11937 0.15356,0.002 0.30713,0.004 0.46069,0.006 -0.45546,-0.009 -0.0516,-0.23837 -0.41542,0.0696 -1.1202,1.21046 -1.90719,2.54847 -2.43152,4.01335 -0.59157,1.82828 -0.95215,3.70828 -1.73941,5.48808 -0.66825,0.2512 -1.27315,0.70416 -2.00476,0.75358 -1.50905,0.10193 -2.17885,-2.13641 -2.33521,-2.93489 -0.45676,-2.03449 -1.08583,-4.03462 -1.83977,-6.00798 -0.48355,-1.99949 2.93567,-2.56504 3.41923,-0.56554 z"
       inkscape:connector-curvature="0" />
    <path
       style="fill:#000000;fill-opacity:1;fill-rule:nonzero;stroke:none"
       id="path9734"
       d="m 446.68355,375.20095 c -2.57194,2.95214 -4.03868,6.60188 -5.33828,10.17377 -0.84954,3.16593 -2.38785,7.5754 -0.85948,10.7873 0.16319,0.34295 0.45069,0.62004 0.67603,0.93006 0.26392,0.15116 0.49741,0.36554 0.79174,0.45347 2.09593,0.62608 4.33098,-2.13896 5.45733,-3.30239 1.88472,-1.88543 2.67224,-4.33738 3.82497,-6.61014 0.80891,-0.0902 1.67601,-0.56875 2.4267,-0.27053 0.49549,0.19684 0.41363,0.94336 0.51906,1.44075 0.0851,0.40151 0.0199,0.81893 0.0466,1.22761 0.10258,1.57013 0.35876,2.86892 0.96744,4.33222 1.30419,2.3084 3.65545,4.11452 6.56976,3.27258 0.60134,-0.17373 1.14831,-0.48424 1.72246,-0.72635 3.71052,-2.5566 5.38697,-6.73576 5.43676,-10.99702 0.0119,-1.01365 -0.14556,-2.02276 -0.21834,-3.03414 -0.72865,-4.63382 -3.0092,-8.71147 -6.72894,-11.79279 0.0614,-0.27724 -2.72062,-1.50986 -2.70276,-1.56463 0.28207,-0.86534 0.72505,-1.67647 1.08758,-2.5147 1.24296,0.19697 0.62952,0.035 1.83643,0.49878 1.86745,0.77186 0.71051,3.26361 -1.15695,2.49175 l 0,0 c -0.4497,-0.21585 -0.27259,-0.11884 -0.54179,-0.27328 0.11646,-0.82713 0.22318,-1.65554 0.34937,-2.4814 0.0159,-0.10371 0.19004,0.10878 0.28869,0.1569 0.23319,0.11373 0.47429,0.21333 0.70278,0.33524 0.95984,0.51209 1.09698,0.65488 2.05483,1.32034 4.24678,3.61333 6.91147,8.27006 7.68852,13.65551 0.0698,1.15851 0.2398,2.31551 0.20929,3.47553 -0.11008,4.18507 -1.60977,8.61575 -4.86679,11.5903 -0.70082,0.64005 -1.56359,1.10054 -2.34538,1.6508 -0.84144,0.30519 -1.64499,0.7282 -2.52431,0.91558 -4.27151,0.91023 -7.72672,-1.6065 -9.56396,-5.03153 -0.24342,-0.64446 -0.54777,-1.27123 -0.73027,-1.93337 -0.15446,-0.56044 -0.70268,-3.6542 -0.44398,-4.25167 0.0541,-0.12496 0.24267,0.14305 0.36401,0.21457 0.71576,-0.17319 1.43151,-0.34637 2.14727,-0.51956 -1.30913,2.49539 -2.16917,5.21581 -4.3021,7.26955 -2.31134,2.33421 -5.59962,5.46054 -9.32011,3.62046 -0.57945,-0.28659 -1.00097,-0.79512 -1.50145,-1.19269 -0.33455,-0.54837 -0.7542,-1.05779 -1.00363,-1.64513 -1.67013,-3.93258 -0.14883,-8.5316 0.91702,-12.38526 1.45286,-3.95432 3.09743,-7.99311 6.02511,-11.21007 1.44164,-1.36018 3.48043,0.5634 2.03878,1.92358 z"
       inkscape:connector-curvature="0" />
    <path
       style="fill:#000000;fill-opacity:1;fill-rule:nonzero;stroke:none"
       id="path9738"
       d="m 475.39433,393.96699 c 0.51431,2.068 0.6545,4.19504 0.77885,6.3093 0.0711,1.33896 0.10616,2.6795 0.11667,4.02004 1.5e-4,0.0709 0.0672,0.24538 4.6e-4,0.2127 -0.73178,-0.35859 -1.3694,-0.87185 -2.09605,-1.2396 -0.0619,-0.0313 -0.20373,0.14693 -0.19224,0.0815 0.0528,-0.30063 0.58621,-1.49197 0.69725,-1.89388 0.61862,-1.8377 1.45669,-3.59532 2.40609,-5.29962 0.71236,-1.03453 1.40778,-2.06802 1.96147,-3.18733 1.3932,-2.49465 2.84214,-0.36742 3.54078,0.92111 0.70318,1.30018 1.19294,2.70913 1.6269,4.10916 0.24907,1.26446 0.84529,2.42892 1.29404,3.63673 0.42025,1.22786 0.79034,1.25505 -2.25591,0.20581 -0.11495,-0.0396 0.0686,-0.22171 0.0977,-0.33385 0.0497,-0.19116 0.0924,-0.38387 0.13863,-0.57581 0.19561,-1.40752 0.67185,-2.74996 1.07053,-4.11313 0.46657,-1.00325 0.95783,-1.9762 1.74368,-2.78264 1.47592,-1.01912 3.07157,-0.34876 4.35121,0.58381 1.44727,1.176 2.3179,2.70938 3.19454,4.27305 0.4613,0.8962 0.92511,1.75745 1.57998,2.54139 1.25402,1.51667 -1.01933,3.18992 -2.27336,1.67324 l 0,0 c -0.74959,-0.91338 -1.32978,-1.90247 -1.85565,-2.94327 -0.70381,-1.25684 -1.33991,-2.50237 -2.49827,-3.46004 -0.24715,-0.25241 -0.81991,-0.36667 -0.60396,-0.61749 0.3078,-0.61938 -0.76913,1.36989 -0.85886,1.4559 -0.38969,1.33106 -0.85814,2.63717 -1.0434,4.01302 -0.006,0.0249 -0.34981,1.47929 -0.46826,1.51054 -2.84101,0.74966 -2.58693,0.72345 -3.03977,-0.53111 -0.46534,-1.2541 -1.0807,-2.46617 -1.3421,-3.7785 -0.37704,-1.23931 -0.80757,-2.48649 -1.42856,-3.6352 -0.097,-0.18125 -0.19394,-0.3625 -0.29091,-0.54377 -0.01,-0.0423 -0.0141,-0.086 -0.0294,-0.12683 -0.0124,-0.0331 -0.0902,-0.0903 -0.0531,-0.0926 3.11041,-0.19489 1.00949,0.49712 2.13639,-0.49564 0.0733,-0.0646 -0.0811,0.17319 -0.12168,0.25979 -0.57487,1.15504 -1.26559,2.24326 -2.02122,3.3008 -0.85147,1.52362 -1.60271,3.09329 -2.17123,4.73223 -0.33392,1.16443 -1.81946,6.41201 -4.07888,2.15948 -0.01,-1.29713 -0.0439,-2.59426 -0.11236,-3.88987 -0.11336,-1.94251 -0.23379,-3.89785 -0.69715,-5.79967 -0.49448,-1.86614 2.30271,-2.52593 2.79719,-0.65978 z"
       inkscape:connector-curvature="0" />
    <path
       style="fill:#000000;fill-opacity:1;fill-rule:nonzero;stroke:none"
       id="path9740"
       d="m 788.50439,215.5953 c 0.85938,5.56746 0.78651,11.2313 1.12137,16.84522 0.53021,5.84614 0.50071,11.74171 1.39574,17.54929 0.19361,1.25015 0.59549,2.431 0.6474,3.69302 -0.1692,2.55285 -3.78002,2.31359 -3.61082,-0.23926 l 0,0 c 0.26369,1.08112 -0.66018,-2.85899 -0.61356,-2.90569 -0.90273,-5.92017 -0.90852,-11.92288 -1.43113,-17.88262 -0.31966,-5.39291 -0.28116,-10.82444 -1.0197,-16.18242 -0.6206,-2.48206 2.89009,-3.3596 3.5107,-0.87754 z"
       inkscape:connector-curvature="0" />
    <path
       style="fill:#000000;fill-opacity:1;fill-rule:nonzero;stroke:none"
       id="path9742"
       d="m 774.31028,218.37463 c 4.37206,-1.8119 9.03852,-2.67011 13.65995,-3.57403 6.62311,-0.9969 13.18823,-2.43231 19.89302,-2.72602 2.84035,0.013 4.98411,1.1108 5.49587,4.01324 0.22996,2.54811 -3.37415,2.87325 -3.60409,0.32515 l 0,0 c 0.82775,-0.0858 -1.36319,-1.22123 -1.73677,-0.72351 -6.52358,0.27296 -12.90746,1.715 -19.35347,2.66208 -4.30338,0.84126 -8.64457,1.62998 -12.73617,3.25931 -2.28868,1.14417 -3.90703,-2.09204 -1.61834,-3.23622 z"
       inkscape:connector-curvature="0" />
    <path
       style="fill:#000000;fill-opacity:1;fill-rule:nonzero;stroke:none"
       id="path9746"
       d="m 804.50681,247.27119 c -0.67615,1.42005 -2.44238,3.30599 -1.93824,4.9894 0.71424,0.81757 1.85011,0.59543 2.79444,0.38276 1.49244,-0.59883 1.81493,-2.05974 2.14204,-3.48368 0.0139,-1.05195 -0.90912,-1.24984 -1.77982,-1.49357 -1.24674,-0.43758 -2.47999,-0.9129 -3.70457,-1.40883 -0.0667,-0.0275 -0.13357,-0.0549 -0.20031,-0.0825 -2.36632,-0.97361 -0.9892,-4.31958 1.3771,-3.34596 l 0,0 c 0.0607,0.025 0.12137,0.05 0.18199,0.0749 1.14803,0.46514 2.30422,0.91073 3.4721,1.3238 2.67157,0.93731 4.57224,2.70792 4.17411,5.76897 -0.70494,2.8923 -1.97639,5.33674 -5.04759,6.21231 -3.10863,0.45414 -6.02871,-0.22415 -7.00997,-3.58528 -0.13454,-2.88829 1.08031,-5.15176 2.64373,-7.52335 1.5353,-2.04677 4.4303,0.12416 2.89499,2.17092 z"
       inkscape:connector-curvature="0" />
    <path
       style="fill:#000000;fill-opacity:1;fill-rule:nonzero;stroke:none"
       id="path9748"
       d="m 815.04177,244.5409 c 0.51108,2.21832 0.78457,4.47868 0.97402,6.74401 0.28625,0.52487 -0.26897,1.67685 0.21345,2.13016 0.0763,0.0717 0.19157,-0.11017 0.29618,-0.10498 0.81167,0.0714 1.44205,-1.12633 1.8479,-1.71175 0.73359,-1.07774 1.16533,-2.31134 1.35864,-3.59214 0.10148,-0.72887 0.0748,-1.46657 0.0678,-2.20013 -0.004,-0.43024 -0.0109,-0.86048 -0.0203,-1.29066 4.10838,-0.0341 3.35287,-0.34902 3.91499,2.14086 0.61673,1.84401 1.37632,3.6438 2.41559,5.29113 0.43868,0.65787 0.90951,1.29472 1.42437,1.89503 1.66136,1.94587 -1.09093,4.29503 -2.75227,2.34917 l 0,0 c -0.6308,-0.74122 -1.21389,-1.5221 -1.74704,-2.33661 -1.22837,-2.0037 -2.18837,-4.155 -2.87142,-6.4058 -0.73425,-3.28294 -1.08701,-2.69148 3.23367,-3.01202 0.01,0.4448 0.016,0.88966 0.021,1.33452 0.009,0.93396 0.0301,1.8723 -0.11189,2.79882 -0.30028,1.84529 -0.93335,3.61218 -2.00799,5.15802 -1.55763,2.07546 -3.50906,3.86204 -6.27679,2.87254 -2.03971,-1.10215 -2.68338,-2.74617 -2.61206,-5.0157 -0.17206,-2.07105 -0.41758,-4.13757 -0.87848,-6.16702 -0.62061,-2.48205 2.89008,-3.35961 3.51069,-0.87754 z"
       inkscape:connector-curvature="0" />
    <path
       style="fill:#000000;fill-opacity:1;fill-rule:nonzero;stroke:none"
       id="path9750"
       d="m 834.34169,233.68629 c 0.51139,3.24615 0.9933,6.49586 1.50453,9.74402 0.3607,2.35533 0.61776,4.72422 0.78159,7.10094 0.0224,0.43877 0.0643,0.8783 0.0401,1.31777 -0.21621,2.54931 -3.82202,2.24356 -3.60579,-0.30574 l 0,0 c -0.0148,-0.25461 -0.0325,-0.50907 -0.0444,-0.76381 -0.15583,-2.27165 -0.40204,-4.53561 -0.74613,-6.78682 -0.49433,-3.1423 -0.97692,-6.28344 -1.44046,-9.42881 -0.6206,-2.48206 2.89008,-3.35961 3.51069,-0.87755 z"
       inkscape:connector-curvature="0" />
    <path
       style="fill:#000000;fill-opacity:1;fill-rule:nonzero;stroke:none"
       id="path9752"
       d="m 826.17881,243.70203 c 2.36068,-1.16854 4.98046,-1.51079 7.50637,-2.13541 1.73007,-0.45638 3.45972,-0.94926 5.22686,-1.24263 1.09312,-0.15807 2.20072,-0.15385 3.30267,-0.15588 1.05144,-0.048 1.08487,0.14102 2.2978,0.77506 1.67721,1.93223 -1.05578,4.30381 -2.73298,2.3716 l 0,0 c 2.09227,0.81914 1.20173,0.40241 0.44151,0.47153 -0.91179,0.002 -1.82865,-0.009 -2.73441,0.10995 -1.67322,0.25604 -3.30028,0.77706 -4.93947,1.18438 -2.26713,0.55187 -4.61702,0.85542 -6.75,1.85756 -2.28868,1.14417 -3.90704,-2.09204 -1.61835,-3.23621 z"
       inkscape:connector-curvature="0" />
    <path
       style="fill:#000000;fill-opacity:1;fill-rule:nonzero;stroke:none"
       id="path9754"
       d="m 792.72558,389.47234 c -0.75176,3.7588 -1.60802,7.45747 -2.11574,11.28009 -0.4087,4.09902 -0.96522,8.66185 1.53868,11.99888 2.40925,2.13455 5.07018,0.47701 7.01099,-1.60915 1.61256,-2.41643 2.62945,-5.28691 2.57308,-8.35685 -0.21019,-1.29861 -0.0644,-0.71056 2.6506,0.12007 0.023,0.007 0.42396,1.73152 0.67872,2.32922 1.93478,2.74218 5.20372,3.30778 8.07929,3.00062 3.72918,-0.78461 4.88336,-3.05496 5.79819,-7.02177 0.63512,-4.56755 -1.10388,-8.66329 -2.87599,-12.60143 -1.25782,-2.41074 -2.83039,-4.58515 -4.58258,-6.53219 0.52754,1.0056 1.44734,0.10891 1.87938,-0.31127 -0.70774,2.37723 -3.60956,1.21764 -2.90181,-1.1596 l 0,0 c 0.8979,-1.5661 1.49271,-2.43603 3.15023,-1.09235 1.98816,2.22041 3.77277,4.69524 5.17887,7.45628 2.12783,4.76305 4.02349,9.70498 3.10891,15.19486 -1.40582,5.66586 -3.30544,8.5069 -8.5346,9.61456 -0.78267,0.0521 -1.56476,0.19456 -2.34804,0.15634 -3.40638,-0.1662 -6.84719,-1.94422 -8.75582,-5.25694 -0.52265,-1.4491 -0.78539,-1.81451 -0.87752,-3.34125 -0.13815,-2.28905 0.27262,-2.22746 3.09967,-2.30529 0.50699,-0.0139 -0.0228,1.77337 0.32199,1.72274 -0.006,4.11735 -1.2944,7.91896 -3.61395,11.05327 -0.56033,0.55141 -1.07023,1.18014 -1.68101,1.65426 -2.36707,1.8375 -5.57665,2.52203 -8.18802,0.91836 -0.58772,-0.36094 -1.04954,-0.94714 -1.57431,-1.42072 -0.40207,-0.61973 -0.87583,-1.18501 -1.20621,-1.85922 -1.89075,-3.85845 -1.3442,-8.71096 -0.9622,-12.89536 0.52774,-3.92876 1.39725,-7.73483 2.17126,-11.59864 0.52644,-2.43958 3.50438,-1.57707 2.97794,0.86253 z"
       inkscape:connector-curvature="0" />
    <path
       inkscape:connector-curvature="0"
       d="m 825.98513,409.0748 c -0.57353,1.39576 -2.07174,3.24943 -1.6441,4.90402 0.60585,0.80358 1.56935,0.58525 2.37038,0.37622 1.26596,-0.58858 1.53951,-2.02449 1.81699,-3.42406 0.0117,-1.03396 -0.77116,-1.22845 -1.50974,-1.46803 -1.05755,-0.43007 -2.10364,-0.89727 -3.1424,-1.38471 -0.0566,-0.0269 -0.11327,-0.054 -0.16992,-0.081 -2.0072,-0.95696 -0.83908,-4.24567 1.16813,-3.28871 l 0,0 c 0.0515,0.0246 0.10297,0.0491 0.15438,0.0736 0.97382,0.45717 1.95455,0.89514 2.9452,1.30114 2.26615,0.92127 3.87841,2.66159 3.5407,5.67025 -0.59798,2.84281 -1.67648,5.24541 -4.28163,6.10601 -2.63688,0.44636 -5.11385,-0.22032 -5.9462,-3.52393 -0.11414,-2.83887 0.91638,-5.06359 2.24255,-7.39462 1.30231,-2.01173 3.75799,0.12205 2.45566,2.13378 z"
       id="path9778"
       style="fill:#000000;fill-opacity:1;fill-rule:nonzero;stroke:none" />
    <path
       inkscape:connector-curvature="0"
       d="m 834.92142,406.39124 c 0.43351,2.18037 0.6655,4.40205 0.82621,6.62861 0.2428,0.51587 -0.22818,1.64814 0.18105,2.09371 0.0648,0.0705 0.1625,-0.10831 0.25123,-0.10309 0.68849,0.0702 1.22323,-1.10706 1.56748,-1.68245 0.62228,-1.0593 0.9885,-2.27178 1.15246,-3.53068 0.086,-0.7164 0.0634,-1.44148 0.0575,-2.16248 -0.003,-0.42289 -0.0102,-0.84575 -0.0172,-1.26857 3.48492,-0.0335 2.84407,-0.34304 3.32087,2.10423 0.52314,1.81245 1.16748,3.58145 2.04903,5.20058 0.37211,0.64661 0.7715,1.27258 1.20822,1.8626 1.40925,1.91257 -0.92537,4.22153 -2.33461,2.30898 l 0,0 c -0.53507,-0.72854 -1.02969,-1.49606 -1.48192,-2.29664 -1.04197,-1.9694 -1.85629,-4.0839 -2.43568,-6.29618 -0.62283,-3.22676 -0.92205,-2.64541 2.74296,-2.96047 0.008,0.4372 0.0137,0.87442 0.0177,1.31168 0.008,0.91799 0.0255,1.84026 -0.0948,2.75093 -0.25471,1.81371 -0.79171,3.55037 -1.70327,5.06974 -1.32126,2.03997 -2.97656,3.79596 -5.32428,2.82341 -1.73018,-1.08331 -2.27617,-2.69918 -2.21569,-4.92989 -0.14594,-2.03561 -0.3542,-4.06677 -0.74517,-6.06148 -0.52642,-2.43959 2.45152,-3.30212 2.97795,-0.86252 z"
       id="path9780"
       style="fill:#000000;fill-opacity:1;fill-rule:nonzero;stroke:none" />
    <path
       inkscape:connector-curvature="0"
       d="m 851.29255,395.72238 c 0.4338,3.19059 0.84257,6.38471 1.27623,9.57728 0.30595,2.31503 0.524,4.64337 0.66298,6.97943 0.019,0.43125 0.0544,0.86326 0.034,1.29521 -0.18342,2.50567 -3.24203,2.20516 -3.05862,-0.30051 l 0,0 c -0.0125,-0.25025 -0.0277,-0.50034 -0.0377,-0.75074 -0.13218,-2.23277 -0.34103,-4.458 -0.6329,-6.67068 -0.41931,-3.08853 -0.82868,-6.17592 -1.22187,-9.26746 -0.52643,-2.4396 2.4515,-3.30212 2.97793,-0.86253 z"
       id="path9782"
       style="fill:#000000;fill-opacity:1;fill-rule:nonzero;stroke:none" />
    <path
       inkscape:connector-curvature="0"
       d="m 844.3684,405.56672 c 2.00243,-1.14852 4.22467,-1.48493 6.36727,-2.09887 1.46754,-0.44856 2.93469,-0.93302 4.43368,-1.22136 0.92723,-0.15536 1.86675,-0.15122 2.80149,-0.15322 0.89189,-0.0472 0.92023,0.13861 1.94909,0.76181 1.4227,1.89915 -0.89555,4.23017 -2.31825,2.33101 l 0,0 c 1.77477,0.80513 1.01938,0.39552 0.37453,0.46346 -0.77343,0.001 -1.55117,-0.008 -2.31947,0.10807 -1.41931,0.25167 -2.79946,0.76378 -4.18991,1.16413 -1.92309,0.54243 -3.91638,0.84077 -5.72567,1.82578 -1.94138,1.12459 -3.31414,-2.05625 -1.37276,-3.18085 z"
       id="path9784"
       style="fill:#000000;fill-opacity:1;fill-rule:nonzero;stroke:none" />
    <path
       style="fill:#000000;fill-opacity:1;fill-rule:nonzero;stroke:none"
       id="path9788"
       d="m 201.35141,304.6023 c 0.0969,5.35469 -1.54903,10.534 -3.14054,15.5842 -1.95324,5.45788 -3.72366,10.98498 -5.37093,16.54292 -0.51952,1.4111 -0.69688,2.93283 -1.15716,4.3592 -0.10725,0.33236 0.0233,-0.71026 -0.0767,-1.04491 -3.69269,-1.87717 -0.0226,-0.59996 -3.08274,-0.2264 -0.20261,0.0247 0.20816,-0.35175 0.29643,-0.53578 0.42814,-0.89252 0.68081,-1.90559 0.99594,-2.83731 1.0843,-4.1204 1.79938,-8.32829 2.66468,-12.49822 1.24143,-5.60713 3.5312,-10.85618 5.9644,-16.02574 0.98753,-2.07781 1.97439,-4.15615 2.99089,-6.22 0.3797,-0.9892 1.52242,-1.56637 2.58842,-1.4947 1.26601,-0.0167 2.29585,0.61541 3.2778,1.33483 2.13515,2.42481 2.59986,5.69911 3.2685,8.74787 1.21368,5.39414 2.48419,10.77045 4.41962,15.95753 0.56883,1.29616 1.06548,2.84646 2.08908,3.8984 0.0686,0.0705 0.36371,0.12781 0.28765,0.0655 -0.50528,-0.41397 -0.70729,-0.44261 -1.23481,-0.61558 1.48672,-3.21682 2.04222,-6.77372 2.82788,-10.20553 1.06375,-4.14471 1.92864,-8.34361 2.9972,-12.48574 0.49694,-1.72569 1.02362,-3.44896 1.71185,-5.10961 0.88419,-2.11051 3.029,-1.66031 4.37398,-0.36182 2.30691,3.08829 3.17093,6.9711 3.96587,10.66962 1.20314,6.20156 2.27763,12.4202 3.68577,18.58051 0.7016,2.23998 1.38589,4.55974 2.63744,6.57075 0.0261,0.0342 0.0521,0.0684 0.0782,0.10268 1.70455,2.41495 -1.7107,4.82555 -3.41525,2.4106 l 0,0 c -0.0771,-0.11194 -0.15423,-0.22388 -0.23134,-0.33582 -1.45679,-2.41597 -2.3638,-5.12039 -3.14425,-7.81683 -1.41226,-6.18025 -2.496,-12.41781 -3.69892,-18.64004 -0.62563,-2.95968 -1.30531,-5.97916 -2.85916,-8.61152 -0.47857,-0.58249 0.12944,0.23964 0.81276,0.0408 0.61904,-0.18014 1.99326,-1.55065 1.65417,-1.00232 -0.61888,1.47737 -1.07238,3.01934 -1.5249,4.55337 -1.07165,4.09913 -1.90635,8.26571 -2.96865,12.36886 -0.9556,4.16814 -1.52582,8.65606 -3.97862,12.25953 -0.65153,0.43745 -1.19268,1.12433 -1.95459,1.31235 -3.45709,0.85314 -5.04535,-3.9398 -6.02999,-6.19246 -1.98869,-5.37501 -3.341,-10.9293 -4.58423,-16.51778 -0.47871,-2.18306 -0.83438,-4.37256 -1.81801,-6.39625 -0.31376,-0.48336 -0.1032,-0.34448 -0.93617,-0.41175 -1.05089,-0.0779 2.23653,-1.81755 1.45281,-0.82833 -1.00569,2.04162 -1.9816,4.09778 -2.95871,6.15317 -2.29382,4.8731 -4.47449,9.81135 -5.65381,15.09607 -0.90224,4.33421 -1.63303,8.71283 -2.79766,12.98712 -0.5223,1.54376 -1.24785,5.25528 -3.41134,5.52059 -0.76806,0.0942 -1.44327,-0.55868 -2.16491,-0.83802 -1.20717,-2.47272 0.0176,-4.40583 0.63284,-6.92565 1.65654,-5.58046 3.42826,-11.13265 5.39223,-16.61249 1.46723,-4.6402 3.02811,-9.40345 2.94665,-14.32587 0,-2.95592 4.18031,-2.95592 4.18031,0 z"
       inkscape:connector-curvature="0" />
    <path
       style="fill:#000000;fill-opacity:1;fill-rule:nonzero;stroke:none"
       id="path9790"
       d="m 248.52094,321.73344 c -0.50344,2.91386 -1.25057,5.97904 0.15526,8.72649 1.35864,1.83979 3.35007,2.94948 5.63649,2.52703 2.18794,-0.42661 3.02382,-2.41233 3.61325,-4.34601 0.58754,-1.92546 -0.12347,-3.49799 -1.49584,-4.87349 -1.11353,-0.9885 -2.22624,-2.04929 -3.70969,-2.40344 -0.57048,-0.12343 -1.15078,-0.20497 -1.73457,-0.21187 -6.5e-4,7.1e-4 -0.001,10e-4 -0.002,0.002 0.61341,-0.42509 1.22683,-0.85019 1.84025,-1.27529 -0.90554,2.8138 -4.88485,1.53317 -3.97931,-1.28063 l 0,0 c 1.99891,-1.65974 1.10633,-1.59137 2.137,-1.62649 0.97517,0.005 1.9452,0.1466 2.89267,0.37433 2.20944,0.68242 4.02313,1.97513 5.65178,3.61261 2.24009,2.58934 3.44582,5.54488 2.37777,8.96651 -1.18146,3.52598 -3.18332,6.56578 -7.12895,7.21631 -4.41356,0.3409 -7.5067,-1.24558 -9.92623,-5.00046 -0.28477,-0.70729 -0.65281,-1.38651 -0.85429,-2.12187 -0.81663,-2.98052 -0.0165,-6.14209 0.42724,-9.10567 0.5797,-2.89852 4.67883,-2.07869 4.09912,0.81983 z"
       inkscape:connector-curvature="0" />
    <path
       style="fill:#000000;fill-opacity:1;fill-rule:nonzero;stroke:none"
       id="path9792"
       d="m 273.91432,299.74838 c 0.96374,5.24712 0.99383,10.61934 1.13169,15.93707 0.39843,6.2421 0.89365,12.47734 1.30315,18.71886 -0.23401,-0.0846 0.96134,3.05192 0.79714,2.80469 -0.0929,-0.0805 -0.18579,-0.16094 -0.27868,-0.24142 2.50207,1.57389 0.27627,5.11235 -2.22581,3.53847 l 0,0 c -0.15836,-0.12166 -0.31673,-0.24332 -0.4751,-0.36498 -1.33109,-1.50454 -1.71855,-3.52463 -1.98889,-5.46309 -0.41309,-6.29663 -0.91602,-12.58671 -1.31071,-18.88439 -0.12952,-5.01432 -0.15904,-10.07519 -1.00828,-15.03134 -0.71692,-2.86766 3.33857,-3.88154 4.05549,-1.01387 z"
       inkscape:connector-curvature="0" />
    <path
       style="fill:#000000;fill-opacity:1;fill-rule:nonzero;stroke:none"
       id="path9794"
       d="m 268.71324,315.84219 c 3.37869,0.79949 6.89771,0.35186 10.32772,0.17113 2.04565,-0.11392 4.0912,-0.23082 6.13546,-0.3678 1.42235,-0.43611 -2.11747,2.3251 -0.77031,0.20517 0.4715,-0.53977 0.23823,-0.29895 0.69088,-0.73101 2.16953,-2.00764 5.00877,1.06053 2.83924,3.06817 l 0,0 c -0.0465,0.036 -0.09,0.076 -0.13956,0.10805 -0.72486,0.58336 -1.42077,1.65928 -2.34082,1.52057 -2.0641,0.13826 -4.12949,0.25644 -6.195,0.37137 -3.84537,0.20248 -7.7795,0.65104 -11.56148,-0.29015 -2.86767,-0.71692 -1.85379,-4.77241 1.01387,-4.0555 z"
       inkscape:connector-curvature="0" />
    <path
       style="fill:#000000;fill-opacity:1;fill-rule:nonzero;stroke:none"
       id="path9796"
       d="m 297.77966,323.86156 c -1.55834,1.79049 -2.19151,4.05214 -2.63882,6.32869 -0.61086,2.64062 0.41304,4.38465 2.45371,5.95946 2.53881,1.55332 3.48038,1.1882 5.24706,-0.98651 1.89379,-2.73681 2.61914,-5.79157 1.71866,-8.99137 -1.35279,-2.25246 -3.73487,-2.93766 -6.16701,-3.37722 -1.33183,-0.17609 -2.67965,-0.33438 -4.02595,-0.28054 -0.0298,0.003 -0.0595,0.005 -0.0893,0.008 0.004,4.5e-4 0.009,9e-4 0.0131,0.001 -2.9321,0.37449 -3.4617,-3.77214 -0.5296,-4.14662 l 0,0 c 0.29264,-0.0332 0.13929,-0.019 0.46021,-0.0406 1.65552,-0.0525 3.31146,0.10859 4.94763,0.35067 4.09237,0.79872 7.67703,2.40864 9.44457,6.46358 1.11998,4.79883 0.24938,8.77445 -2.65407,12.79684 -3.66068,3.888 -6.47869,4.33193 -11.01781,1.43327 -3.29086,-2.80436 -4.75916,-5.63641 -3.89939,-10.01479 0.63217,-3.0848 1.60081,-6.0928 3.7811,-8.46023 2.09016,-2.09015 5.04608,0.86577 2.95593,2.95592 z"
       inkscape:connector-curvature="0" />
    <path
       style="fill:#000000;fill-opacity:1;fill-rule:nonzero;stroke:none"
       id="path9798"
       d="m 319.79342,320.09677 c 0.14593,3.9749 0.51668,7.98583 1.15053,11.917 0.45342,2.28865 0.92873,4.57298 1.42856,6.85194 0.38517,1.75722 0.51,1.03275 -3.96691,0.33175 -0.004,-6.5e-4 0.0205,-1.72062 0.0205,-1.7416 -0.008,-1.98395 -0.0169,-3.96788 -0.0212,-5.95185 0.33872,-3.24604 1.17064,-6.44799 2.26842,-9.51635 0.86066,-2.46724 2.20774,-4.10469 4.74552,-4.81609 2.724,-0.12121 5.29608,0.8349 7.84749,1.65843 1.30571,0.37493 2.62615,0.70275 3.96127,0.95497 0.0572,0.009 0.11392,0.0206 0.17088,0.0309 2.94813,0.2145 2.64479,4.38378 -0.30334,4.16929 l 0,0 c -0.21705,-0.0201 -0.43256,-0.051 -0.64656,-0.0931 -1.50557,-0.28652 -2.99564,-0.6534 -4.46642,-1.08388 -1.84577,-0.59588 -3.69912,-1.20358 -5.59358,-1.57033 -1.13859,0.0991 -1.35649,1.20111 -1.78793,2.18197 -0.97018,2.59516 -1.6085,5.33777 -2.01545,8.07522 0.004,1.98775 0.013,3.97547 0.0212,5.9632 -9e-5,0.11174 0.0802,2.00263 -0.0313,2.04024 -4.2217,1.4232 -3.87824,2.08556 -4.28581,0.26272 -0.51712,-2.35817 -1.01024,-4.72167 -1.47373,-7.09097 -0.65193,-4.15142 -1.06628,-8.37661 -1.2024,-12.57345 0,-2.95592 4.18031,-2.95592 4.18031,0 z"
       inkscape:connector-curvature="0" />
  </g>
</svg>
