<?xml version="1.0" encoding="UTF-8" standalone="no"?>
<!-- Created with Inkscape (http://www.inkscape.org/) -->

<svg
   xmlns:dc="http://purl.org/dc/elements/1.1/"
   xmlns:cc="http://creativecommons.org/ns#"
   xmlns:rdf="http://www.w3.org/1999/02/22-rdf-syntax-ns#"
   xmlns:svg="http://www.w3.org/2000/svg"
   xmlns="http://www.w3.org/2000/svg"
   xmlns:sodipodi="http://sodipodi.sourceforge.net/DTD/sodipodi-0.dtd"
   xmlns:inkscape="http://www.inkscape.org/namespaces/inkscape"
   width="341.95624"
   height="286.79068"
   id="svg7831"
   version="1.1"
   inkscape:version="0.48.0 r9654"
   sodipodi:docname="MultipleCollisions.pdf">
  <defs
     id="defs7833">
    <inkscape:path-effect
       effect="spiro"
       id="path-effect8362"
       is_visible="true" />
    <inkscape:path-effect
       is_visible="true"
       id="path-effect8358"
       effect="spiro" />
    <inkscape:path-effect
       effect="spiro"
       id="path-effect8354"
       is_visible="true" />
  </defs>
  <sodipodi:namedview
     inkscape:document-units="mm"
     pagecolor="#ffffff"
     bordercolor="#666666"
     borderopacity="1.0"
     inkscape:pageopacity="0.0"
     inkscape:pageshadow="2"
     inkscape:zoom="0.7176508"
     inkscape:cx="181.97153"
     inkscape:cy="39.501209"
     inkscape:current-layer="layer1"
     id="namedview7835"
     showgrid="false"
     fit-margin-top="0"
     fit-margin-left="0"
     fit-margin-right="0"
     fit-margin-bottom="0"
     inkscape:window-width="1280"
     inkscape:window-height="752"
     inkscape:window-x="0"
     inkscape:window-y="0"
     inkscape:window-maximized="0" />
  <metadata
     id="metadata7837">
    <rdf:RDF>
      <cc:Work
         rdf:about="">
        <dc:format>image/svg+xml</dc:format>
        <dc:type
           rdf:resource="http://purl.org/dc/dcmitype/StillImage" />
        <dc:title></dc:title>
      </cc:Work>
    </rdf:RDF>
  </metadata>
  <g
     inkscape:label="Layer 1"
     inkscape:groupmode="layer"
     id="layer1"
     transform="translate(-344.20956,-124.75776)">
    <path
       style="fill:none;stroke:#000000;stroke-width:3.62125993;stroke-linecap:round;stroke-linejoin:miter;stroke-miterlimit:4;stroke-opacity:1;stroke-dasharray:none"
       d="m 359.9312,391.55533 322.62288,0"
       id="path8350"
       inkscape:connector-curvature="0" />
    <path
       style="fill:none;stroke:#000000;stroke-width:2.72480321;stroke-linecap:butt;stroke-linejoin:miter;stroke-miterlimit:4;stroke-opacity:1;stroke-dasharray:8.17440945, 2.72480315;stroke-dashoffset:0"
       d="m 418.03061,235.49058 c 24.43161,30.90709 63.72345,49.49107 103.11422,48.77024 36.62689,-0.67026 72.63486,-17.89146 96.14704,-45.98337"
       id="path8352"
       inkscape:path-effect="#path-effect8354"
       inkscape:original-d="m 418.03061,235.49058 c 0,0 -6.96717,47.3768 103.11422,48.77024 110.0814,1.39343 96.14704,-45.98337 96.14704,-45.98337"
       inkscape:connector-curvature="0"
       sodipodi:nodetypes="csc" />
    <path
       sodipodi:nodetypes="csc"
       inkscape:connector-curvature="0"
       inkscape:original-d="m 345.57196,197.86782 c 0,0 -72.45862,11.55116 37.62277,10.29255 110.0814,-1.25861 34.83588,27.59985 34.83588,27.59985"
       inkscape:path-effect="#path-effect8358"
       id="path8356"
       d="m 345.57196,197.86782 c 13.03815,1.03034 25.87583,4.54238 37.62277,10.29255 13.40898,6.56375 25.37923,16.04756 34.83588,27.59985"
       style="fill:none;stroke:#000000;stroke-width:2.72480321;stroke-linecap:butt;stroke-linejoin:miter;stroke-miterlimit:4;stroke-opacity:1;stroke-dasharray:8.17440945, 2.72480315;stroke-dashoffset:0" />
    <path
       style="fill:none;stroke:#000000;stroke-width:2.72480321;stroke-linecap:butt;stroke-linejoin:miter;stroke-miterlimit:4;stroke-opacity:1;stroke-dasharray:8.17440945, 2.72480315;stroke-dashoffset:0"
       d="m 684.8034,200.59786 c -12.21383,1.13668 -24.20063,4.66382 -35.08358,10.32342 -12.73023,6.62026 -23.92912,16.16365 -32.48478,27.68264"
       id="path8360"
       inkscape:path-effect="#path-effect8362"
       inkscape:original-d="m 684.8034,200.59786 c 0,0 67.56834,11.58581 -35.08358,10.32342 -102.65193,-1.26238 -32.48478,27.68264 -32.48478,27.68264"
       inkscape:connector-curvature="0"
       sodipodi:nodetypes="csc" />
    <path
       style="fill:none;stroke:#000000;stroke-width:3.83385825;stroke-linecap:butt;stroke-linejoin:miter;stroke-miterlimit:4;stroke-opacity:1;stroke-dasharray:none"
       d="M 521.14482,390.1619 503.03017,282.86738"
       id="path8364"
       inkscape:connector-curvature="0" />
    <path
       style="fill:none;stroke:#000000;stroke-width:3.83385825;stroke-linecap:butt;stroke-linejoin:miter;stroke-miterlimit:4;stroke-opacity:1;stroke-dasharray:none"
       d="m 501.63673,284.26081 -25.08183,107.29453 2.78686,-114.2617"
       id="path8366"
       inkscape:connector-curvature="0"
       sodipodi:nodetypes="ccc" />
    <path
       style="fill:none;stroke:#000000;stroke-width:3.83385825;stroke-linecap:butt;stroke-linejoin:miter;stroke-miterlimit:4;stroke-opacity:1;stroke-dasharray:none"
       d="M 479.34176,280.08051 436.14527,392.94877 455.65336,267.53959"
       id="path8368"
       inkscape:connector-curvature="0"
       sodipodi:nodetypes="ccc" />
    <path
       style="fill:none;stroke:#000000;stroke-width:3.83385825;stroke-linecap:butt;stroke-linejoin:miter;stroke-miterlimit:4;stroke-opacity:1;stroke-dasharray:none"
       d="M 454.25993,266.14615 388.76847,391.55534 433.3584,250.81836"
       id="path8370"
       inkscape:connector-curvature="0"
       sodipodi:nodetypes="ccc" />
    <path
       inkscape:connector-curvature="0"
       id="path8372"
       d="M 518.35796,390.1619 536.47261,282.86738"
       style="fill:none;stroke:#000000;stroke-width:3.83385825;stroke-linecap:butt;stroke-linejoin:miter;stroke-miterlimit:4;stroke-opacity:1;stroke-dasharray:none" />
    <path
       sodipodi:nodetypes="ccc"
       inkscape:connector-curvature="0"
       id="path8374"
       d="m 537.86605,284.26081 25.08183,107.29453 -2.78686,-114.2617"
       style="fill:none;stroke:#000000;stroke-width:3.83385825;stroke-linecap:butt;stroke-linejoin:miter;stroke-miterlimit:4;stroke-opacity:1;stroke-dasharray:none" />
    <path
       sodipodi:nodetypes="ccc"
       inkscape:connector-curvature="0"
       id="path8376"
       d="M 560.16102,280.08051 603.35751,392.94877 583.84942,267.53959"
       style="fill:none;stroke:#000000;stroke-width:3.83385825;stroke-linecap:butt;stroke-linejoin:miter;stroke-miterlimit:4;stroke-opacity:1;stroke-dasharray:none" />
    <path
       sodipodi:nodetypes="ccc"
       inkscape:connector-curvature="0"
       id="path8378"
       d="M 585.24285,266.14615 650.73431,391.55534 606.14438,250.81836"
       style="fill:none;stroke:#000000;stroke-width:3.83385825;stroke-linecap:butt;stroke-linejoin:miter;stroke-miterlimit:4;stroke-opacity:1;stroke-dasharray:none" />
    <path
       style="fill:#000000;fill-opacity:1;fill-rule:nonzero;stroke:none"
       id="path8380"
       d="m 382.97229,392.25538 c -1.37295,3.9298 -3.41635,7.66238 -5.52607,11.34712 -1.3369,2.35602 -2.84098,4.64085 -4.27855,6.95421 -1.29344,2.08125 -4.81978,0.55449 -3.52635,-1.52676 l 0,0 c 1.41789,-2.28138 2.90153,-4.53451 4.22091,-6.85765 1.97056,-3.43879 3.86926,-6.91648 5.21466,-10.56718 0.55089,-2.29906 4.44629,-1.6488 3.8954,0.65026 z"
       inkscape:connector-curvature="0" />
    <path
       inkscape:connector-curvature="0"
       d="m 396.21408,392.25538 c -1.37296,3.9298 -3.41635,7.66238 -5.52607,11.34712 -1.3369,2.35602 -2.84099,4.64085 -4.27856,6.95421 -1.29343,2.08125 -4.81978,0.55449 -3.52635,-1.52676 l 0,0 c 1.4179,-2.28138 2.90154,-4.53451 4.22091,-6.85765 1.97056,-3.43879 3.86927,-6.91648 5.21467,-10.56718 0.55089,-2.29906 4.44628,-1.6488 3.8954,0.65026 z"
       id="path8382"
       style="fill:#000000;fill-opacity:1;fill-rule:nonzero;stroke:none" />
    <path
       inkscape:connector-curvature="0"
       d="m 410.78005,392.25538 c -1.37296,3.9298 -3.41635,7.66238 -5.52607,11.34712 -1.3369,2.35602 -2.84099,4.64085 -4.27856,6.95421 -1.29343,2.08125 -4.81978,0.55449 -3.52635,-1.52676 l 0,0 c 1.4179,-2.28138 2.90154,-4.53451 4.22091,-6.85765 1.97056,-3.43879 3.86927,-6.91648 5.21467,-10.56718 0.55089,-2.29906 4.44628,-1.6488 3.8954,0.65026 z"
       id="path8444"
       style="fill:#000000;fill-opacity:1;fill-rule:nonzero;stroke:none" />
    <path
       style="fill:#000000;fill-opacity:1;fill-rule:nonzero;stroke:none"
       id="path8446"
       d="m 424.02183,392.25538 c -1.37295,3.9298 -3.41635,7.66238 -5.52607,11.34712 -1.3369,2.35602 -2.84098,4.64085 -4.27855,6.95421 -1.29344,2.08125 -4.81978,0.55449 -3.52635,-1.52676 l 0,0 c 1.41789,-2.28138 2.90154,-4.53451 4.22091,-6.85765 1.97056,-3.43879 3.86926,-6.91648 5.21467,-10.56718 0.55088,-2.29906 4.44628,-1.6488 3.89539,0.65026 z"
       inkscape:connector-curvature="0" />
    <path
       inkscape:connector-curvature="0"
       d="m 438.58781,392.25538 c -1.37295,3.9298 -3.41635,7.66238 -5.52607,11.34712 -1.3369,2.35602 -2.84098,4.64085 -4.27855,6.95421 -1.29344,2.08125 -4.81978,0.55449 -3.52635,-1.52676 l 0,0 c 1.41789,-2.28138 2.90153,-4.53451 4.22091,-6.85765 1.97056,-3.43879 3.86926,-6.91648 5.21466,-10.56718 0.55089,-2.29906 4.44629,-1.6488 3.8954,0.65026 z"
       id="path8448"
       style="fill:#000000;fill-opacity:1;fill-rule:nonzero;stroke:none" />
    <path
       style="fill:#000000;fill-opacity:1;fill-rule:nonzero;stroke:none"
       id="path8450"
       d="m 451.8296,392.25538 c -1.37296,3.9298 -3.41635,7.66238 -5.52607,11.34712 -1.3369,2.35602 -2.84099,4.64085 -4.27856,6.95421 -1.29343,2.08125 -4.81978,0.55449 -3.52635,-1.52676 l 0,0 c 1.4179,-2.28138 2.90154,-4.53451 4.22091,-6.85765 1.97056,-3.43879 3.86927,-6.91648 5.21467,-10.56718 0.55089,-2.29906 4.44628,-1.6488 3.8954,0.65026 z"
       inkscape:connector-curvature="0" />
    <path
       style="fill:#000000;fill-opacity:1;fill-rule:nonzero;stroke:none"
       id="path8452"
       d="m 466.39557,392.25538 c -1.37296,3.9298 -3.41636,7.66238 -5.52607,11.34712 -1.3369,2.35602 -2.84099,4.64085 -4.27856,6.95421 -1.29343,2.08125 -4.81978,0.55449 -3.52635,-1.52676 l 0,0 c 1.4179,-2.28138 2.90154,-4.53451 4.22091,-6.85765 1.97056,-3.43879 3.86927,-6.91648 5.21467,-10.56718 0.55089,-2.29906 4.44628,-1.6488 3.8954,0.65026 z"
       inkscape:connector-curvature="0" />
    <path
       inkscape:connector-curvature="0"
       d="m 479.63735,392.25538 c -1.37295,3.9298 -3.41635,7.66238 -5.52607,11.34712 -1.3369,2.35602 -2.84098,4.64085 -4.27855,6.95421 -1.29344,2.08125 -4.81978,0.55449 -3.52635,-1.52676 l 0,0 c 1.41789,-2.28138 2.90154,-4.53451 4.22091,-6.85765 1.97056,-3.43879 3.86926,-6.91648 5.21467,-10.56718 0.55088,-2.29906 4.44628,-1.6488 3.89539,0.65026 z"
       id="path8454"
       style="fill:#000000;fill-opacity:1;fill-rule:nonzero;stroke:none" />
    <path
       inkscape:connector-curvature="0"
       d="m 606.75853,392.25538 c -1.37295,3.9298 -3.41635,7.66238 -5.52606,11.34712 -1.3369,2.35602 -2.84099,4.64085 -4.27856,6.95421 -1.29343,2.08125 -4.81978,0.55449 -3.52635,-1.52676 l 0,0 c 1.41789,-2.28138 2.90154,-4.53451 4.22091,-6.85765 1.97056,-3.43879 3.86927,-6.91648 5.21467,-10.56718 0.55089,-2.29906 4.44628,-1.6488 3.89539,0.65026 z"
       id="path8456"
       style="fill:#000000;fill-opacity:1;fill-rule:nonzero;stroke:none" />
    <path
       style="fill:#000000;fill-opacity:1;fill-rule:nonzero;stroke:none"
       id="path8458"
       d="m 620.00032,392.25538 c -1.37295,3.9298 -3.41635,7.66238 -5.52607,11.34712 -1.3369,2.35602 -2.84098,4.64085 -4.27855,6.95421 -1.29344,2.08125 -4.81978,0.55449 -3.52635,-1.52676 l 0,0 c 1.41789,-2.28138 2.90153,-4.53451 4.22091,-6.85765 1.97056,-3.43879 3.86926,-6.91648 5.21466,-10.56718 0.55089,-2.29906 4.44629,-1.6488 3.8954,0.65026 z"
       inkscape:connector-curvature="0" />
    <path
       style="fill:#000000;fill-opacity:1;fill-rule:nonzero;stroke:none"
       id="path8460"
       d="m 634.56629,392.25538 c -1.37295,3.9298 -3.41635,7.66238 -5.52607,11.34712 -1.3369,2.35602 -2.84098,4.64085 -4.27855,6.95421 -1.29344,2.08125 -4.81978,0.55449 -3.52635,-1.52676 l 0,0 c 1.41789,-2.28138 2.90153,-4.53451 4.22091,-6.85765 1.97056,-3.43879 3.86926,-6.91648 5.21466,-10.56718 0.55089,-2.29906 4.44629,-1.6488 3.8954,0.65026 z"
       inkscape:connector-curvature="0" />
    <path
       inkscape:connector-curvature="0"
       d="m 647.80808,392.25538 c -1.37296,3.9298 -3.41635,7.66238 -5.52607,11.34712 -1.3369,2.35602 -2.84099,4.64085 -4.27856,6.95421 -1.29343,2.08125 -4.81978,0.55449 -3.52635,-1.52676 l 0,0 c 1.4179,-2.28138 2.90154,-4.53451 4.22091,-6.85765 1.97056,-3.43879 3.86927,-6.91648 5.21467,-10.56718 0.55089,-2.29906 4.44628,-1.6488 3.8954,0.65026 z"
       id="path8462"
       style="fill:#000000;fill-opacity:1;fill-rule:nonzero;stroke:none" />
    <path
       style="fill:#000000;fill-opacity:1;fill-rule:nonzero;stroke:none"
       id="path8464"
       d="m 662.37405,392.25538 c -1.37295,3.9298 -3.41635,7.66238 -5.52606,11.34712 -1.3369,2.35602 -2.84099,4.64085 -4.27856,6.95421 -1.29343,2.08125 -4.81978,0.55449 -3.52635,-1.52676 l 0,0 c 1.41789,-2.28138 2.90154,-4.53451 4.22091,-6.85765 1.97056,-3.43879 3.86927,-6.91648 5.21467,-10.56718 0.55089,-2.29906 4.44628,-1.6488 3.89539,0.65026 z"
       inkscape:connector-curvature="0" />
    <path
       style="fill:#000000;fill-opacity:1;fill-rule:nonzero;stroke:none"
       id="path8472"
       d="m 494.20332,392.25538 c -1.37295,3.9298 -3.41635,7.66238 -5.52607,11.34712 -1.3369,2.35602 -2.84098,4.64085 -4.27855,6.95421 -1.29344,2.08125 -4.81978,0.55449 -3.52635,-1.52676 l 0,0 c 1.41789,-2.28138 2.90153,-4.53451 4.22091,-6.85765 1.97056,-3.43879 3.86926,-6.91648 5.21466,-10.56718 0.55089,-2.29906 4.44629,-1.6488 3.8954,0.65026 z"
       inkscape:connector-curvature="0" />
    <path
       inkscape:connector-curvature="0"
       d="m 507.44511,392.25538 c -1.37296,3.9298 -3.41635,7.66238 -5.52607,11.34712 -1.3369,2.35602 -2.84099,4.64085 -4.27856,6.95421 -1.29343,2.08125 -4.81978,0.55449 -3.52635,-1.52676 l 0,0 c 1.4179,-2.28138 2.90154,-4.53451 4.22092,-6.85765 1.97055,-3.43879 3.86926,-6.91648 5.21466,-10.56718 0.55089,-2.29906 4.44628,-1.6488 3.8954,0.65026 z"
       id="path8474"
       style="fill:#000000;fill-opacity:1;fill-rule:nonzero;stroke:none" />
    <path
       inkscape:connector-curvature="0"
       d="m 522.01108,392.25538 c -1.37296,3.9298 -3.41635,7.66238 -5.52607,11.34712 -1.3369,2.35602 -2.84099,4.64085 -4.27856,6.95421 -1.29343,2.08125 -4.81978,0.55449 -3.52635,-1.52676 l 0,0 c 1.4179,-2.28138 2.90154,-4.53451 4.22091,-6.85765 1.97056,-3.43879 3.86927,-6.91648 5.21467,-10.56718 0.55089,-2.29906 4.44628,-1.6488 3.8954,0.65026 z"
       id="path8476"
       style="fill:#000000;fill-opacity:1;fill-rule:nonzero;stroke:none" />
    <path
       style="fill:#000000;fill-opacity:1;fill-rule:nonzero;stroke:none"
       id="path8478"
       d="m 535.25286,392.25538 c -1.37295,3.9298 -3.41635,7.66238 -5.52607,11.34712 -1.3369,2.35602 -2.84098,4.64085 -4.27855,6.95421 -1.29343,2.08125 -4.81978,0.55449 -3.52635,-1.52676 l 0,0 c 1.41789,-2.28138 2.90154,-4.53451 4.22091,-6.85765 1.97056,-3.43879 3.86926,-6.91648 5.21467,-10.56718 0.55088,-2.29906 4.44628,-1.6488 3.89539,0.65026 z"
       inkscape:connector-curvature="0" />
    <path
       inkscape:connector-curvature="0"
       d="m 549.81884,392.25538 c -1.37295,3.9298 -3.41635,7.66238 -5.52607,11.34712 -1.3369,2.35602 -2.84098,4.64085 -4.27855,6.95421 -1.29344,2.08125 -4.81978,0.55449 -3.52635,-1.52676 l 0,0 c 1.41789,-2.28138 2.90153,-4.53451 4.22091,-6.85765 1.97056,-3.43879 3.86926,-6.91648 5.21466,-10.56718 0.55089,-2.29906 4.44629,-1.6488 3.8954,0.65026 z"
       id="path8480"
       style="fill:#000000;fill-opacity:1;fill-rule:nonzero;stroke:none" />
    <path
       style="fill:#000000;fill-opacity:1;fill-rule:nonzero;stroke:none"
       id="path8482"
       d="m 563.06063,392.25538 c -1.37296,3.9298 -3.41635,7.66238 -5.52607,11.34712 -1.3369,2.35602 -2.84099,4.64085 -4.27856,6.95421 -1.29343,2.08125 -4.81978,0.55449 -3.52635,-1.52676 l 0,0 c 1.4179,-2.28138 2.90154,-4.53451 4.22092,-6.85765 1.97055,-3.43879 3.86926,-6.91648 5.21466,-10.56718 0.55089,-2.29906 4.44628,-1.6488 3.8954,0.65026 z"
       inkscape:connector-curvature="0" />
    <path
       style="fill:#000000;fill-opacity:1;fill-rule:nonzero;stroke:none"
       id="path8484"
       d="m 577.6266,392.25538 c -1.37296,3.9298 -3.41635,7.66238 -5.52607,11.34712 -1.3369,2.35602 -2.84099,4.64085 -4.27856,6.95421 -1.29343,2.08125 -4.81978,0.55449 -3.52635,-1.52676 l 0,0 c 1.4179,-2.28138 2.90154,-4.53451 4.22091,-6.85765 1.97056,-3.43879 3.86927,-6.91648 5.21467,-10.56718 0.55089,-2.29906 4.44628,-1.6488 3.8954,0.65026 z"
       inkscape:connector-curvature="0" />
    <path
       inkscape:connector-curvature="0"
       d="m 590.86838,392.25538 c -1.37295,3.9298 -3.41635,7.66238 -5.52607,11.34712 -1.3369,2.35602 -2.84098,4.64085 -4.27855,6.95421 -1.29343,2.08125 -4.81978,0.55449 -3.52635,-1.52676 l 0,0 c 1.41789,-2.28138 2.90154,-4.53451 4.22091,-6.85765 1.97056,-3.43879 3.86926,-6.91648 5.21467,-10.56718 0.55088,-2.29906 4.44628,-1.6488 3.89539,0.65026 z"
       id="path8486"
       style="fill:#000000;fill-opacity:1;fill-rule:nonzero;stroke:none" />
    <path
       style="fill:#000000;fill-opacity:1;fill-rule:nonzero;stroke:none"
       id="path8492"
       d="m 432.8327,250.1963 c 0.4658,0.21145 0.9916,0.16663 1.49171,0.15977 0.54067,-0.0139 1.08104,-0.0367 1.62172,-0.0505 0.42345,-0.009 0.84701,-0.01 1.27052,-0.0101 0.55147,-0.003 1.07327,0.19404 1.61545,0.26914 0.68811,0.14953 1.36908,0.32346 2.03959,0.53779 0.48169,0.15098 0.97224,0.24111 1.44601,0.42001 0.42288,0.0988 0.80451,0.30867 1.20846,0.45976 0.40539,0.19417 0.80273,0.39962 1.21283,0.58409 0.39058,0.13918 0.78801,0.26134 1.17808,0.41044 0.45261,0.23545 0.91845,0.44394 1.35854,0.70295 0.38383,0.17027 0.68974,0.47966 1.08421,0.62835 0.56303,0.27781 1.08885,0.62237 1.60488,0.97848 0.37021,0.27325 0.68939,0.46658 1.04353,0.81283 -0.49282,-0.63368 0.81043,0.88032 0.5421,0.52101 0.33019,0.29271 0.61729,0.62926 0.90985,0.95852 0.32006,0.32774 0.49866,0.58453 0.6891,0.84752 0.24039,0.43532 0.37839,0.65038 0.60903,1.10208 0.0876,0.27254 0.28028,0.45464 0.49933,1.02899 0.0634,0.25885 0.22409,0.50974 0.34826,0.86562 -0.0341,-0.0831 -0.10761,-0.15971 -0.10236,-0.24943 0.004,-0.0671 0.0717,0.11378 0.10695,0.17107 0.12944,0.21055 0.27344,0.4065 0.40445,0.6179 0.25918,0.43476 0.39335,0.90821 0.44926,1.40767 -0.0132,-0.087 -0.0463,-0.17337 -0.0396,-0.26116 0.007,-0.0946 0.0734,0.17501 0.10473,0.26455 0.0566,0.16195 0.10642,0.32618 0.16032,0.48904 0.23818,0.44268 0.35637,0.93205 0.43333,1.42466 -0.0728,-0.49566 0.28737,0.81397 0.29895,0.86204 0.0851,0.31888 0.0996,0.64805 0.10441,0.9761 2.4e-4,0.0407 0.007,0.16247 7.1e-4,0.12218 -0.13956,-0.94107 0.15846,0.2085 0.20976,0.42305 0.50341,2.15903 -2.54992,2.87095 -3.05333,0.71192 l 0,0 c -0.0898,-0.40732 -0.32804,-0.7758 -0.29208,-1.21423 -0.003,-0.22624 0.0153,-0.12014 -0.0196,-0.2936 -0.0913,-0.39227 -0.2667,-0.75213 -0.35301,-1.1475 -0.0189,-0.23839 -0.11316,-0.45145 -0.22471,-0.66245 -0.17298,-0.4627 -0.3321,-0.93068 -0.45219,-1.41035 0.11213,0.19546 -0.006,-0.0341 -0.0392,-0.11917 -0.22957,-0.34232 -0.49529,-0.71735 -0.66721,-1.10905 -0.0806,-0.27287 -0.31041,-0.56968 -0.3538,-0.88218 0.15899,0.26255 -0.46938,-0.76191 -0.31704,-0.59257 -0.11343,-0.22338 -0.38649,-0.7275 -0.39669,-0.7457 -0.0961,-0.1302 -0.38914,-0.54352 -0.1112,-0.18155 0.27678,0.36046 -0.5966,-0.69667 -0.34039,-0.36306 -0.17719,-0.19946 -0.35948,-0.39516 -0.53182,-0.59848 -0.49041,-0.43858 -0.43345,-0.48859 -0.79193,-0.74515 -0.11271,-0.12482 -0.41113,-0.28602 -0.62168,-0.4597 -0.35194,-0.25031 -0.71292,-0.48307 -1.09156,-0.68805 -0.517,-0.24248 -0.96938,-0.55403 -1.40658,-0.79562 -0.28389,-0.17229 -0.59869,-0.28349 -0.8752,-0.46897 -0.459,-0.17546 -0.92321,-0.3054 -1.37918,-0.49545 -0.33729,-0.15913 -0.68236,-0.30826 -1.00449,-0.49632 -0.40536,-0.15515 -0.78402,-0.35784 -1.20838,-0.45973 -0.29689,-0.11337 -0.84266,-0.20966 -1.28845,-0.36498 -0.50768,-0.16228 -1.02185,-0.28997 -1.5387,-0.42194 -0.10406,-0.0157 -1.12905,-0.19687 -1.12609,-0.23097 0.004,-0.0488 0.19511,0.003 0.14679,-0.005 -0.0587,-0.01 -0.11891,6e-5 -0.17836,9e-5 -0.39837,5.2e-4 -0.79677,0.001 -1.19507,0.009 -0.55517,0.0141 -1.11,0.0384 -1.66521,0.0513 -1.00054,0.01 -2.01747,-0.0268 -2.9299,-0.49055 -1.98289,-0.99145 -0.58077,-3.79568 1.40212,-2.80424 z"
       inkscape:connector-curvature="0" />
    <path
       style="fill:#000000;fill-opacity:1;fill-rule:nonzero;stroke:none"
       id="path8496"
       d="m 455.09148,265.97711 c 0.55535,-0.0964 1.08398,-0.25704 1.62388,-0.41209 0.59505,-0.20196 1.18468,-0.39408 1.80603,-0.50894 0.62325,-0.17449 1.25742,-0.2927 1.88183,-0.46162 0.62693,-0.17079 1.2661,-0.28082 1.91263,-0.33898 0.5481,-0.0361 1.09794,-0.0296 1.64692,-0.0289 0.47132,10e-4 0.94264,0.002 1.41397,0.003 0.49235,5.3e-4 0.9847,5.3e-4 1.47705,5.5e-4 0.76242,-0.002 1.52252,0.15698 2.25521,0.35786 0.52259,0.2001 1.0685,0.30193 1.59717,0.48385 0.59775,0.13829 1.14701,0.39384 1.68138,0.68844 0.44964,0.2575 0.86867,0.58164 1.34133,0.79787 0.49493,0.24539 0.95878,0.53934 1.39607,0.8758 0.31934,0.27575 0.66533,0.51772 1.00634,0.76829 0.43207,0.38179 0.84753,0.77681 1.22929,1.2084 0.34666,0.34329 0.6428,0.73785 0.96144,1.10822 0.3589,0.42419 0.59328,0.94892 0.95375,1.36957 0.41949,0.59317 0.76351,1.23961 1.01453,1.92068 0.15906,0.5738 0.36598,1.12824 0.49252,1.71251 0.20433,0.53747 0.32373,1.09827 0.40118,1.66639 0.0406,0.39752 0.0234,0.19783 0.0515,0.5991 0.14841,2.21197 -2.97979,2.42185 -3.1282,0.20988 l 0,0 c -0.0169,-0.26892 -0.006,-0.1335 -0.0325,-0.40626 -0.0575,-0.49325 -0.22148,-0.95652 -0.36164,-1.43155 -0.0851,-0.45377 -0.27882,-0.87356 -0.38431,-1.32095 -0.1022,-0.37759 -0.34823,-0.70922 -0.54207,-1.04341 -0.29554,-0.39939 -0.57758,-0.81134 -0.84194,-1.23184 -0.32387,-0.37683 -0.62233,-0.77673 -0.97631,-1.12566 -0.18073,-0.28398 -0.50669,-0.45098 -0.69868,-0.71229 -0.3588,-0.26635 -0.71833,-0.52805 -1.06285,-0.81098 -0.27683,-0.21587 -0.57049,-0.39976 -0.88654,-0.55486 -0.49694,-0.25792 -0.97832,-0.54657 -1.44664,-0.85334 -0.37773,-0.20828 -0.7555,-0.38089 -1.18969,-0.47006 -0.48096,-0.16628 -0.98509,-0.24701 -1.46008,-0.44008 -0.42751,-0.15601 -0.91972,-0.21073 -1.37035,-0.23035 -0.49372,-2e-5 -0.98743,-2e-5 -1.48114,-5.5e-4 -0.47116,-6.4e-4 -0.94232,-0.002 -1.41348,-0.003 -0.45624,-5.6e-4 -0.91301,-0.006 -1.36884,0.0169 -0.46304,0.0392 -0.91957,0.12034 -1.36847,0.24227 -0.71378,0.19298 -1.43752,0.33524 -2.15299,0.5222 -0.5185,0.0845 -0.99263,0.28855 -1.49445,0.43715 -0.57165,0.161 -1.13771,0.33055 -1.72238,0.43842 -2.15075,0.53769 -2.91116,-2.50393 -0.76041,-3.04162 z"
       inkscape:connector-curvature="0" />
    <path
       style="fill:#000000;fill-opacity:1;fill-rule:nonzero;stroke:none"
       id="path8514"
       d="m 477.59847,276.93332 c 0.12629,-0.0621 0.23782,-0.15218 0.36766,-0.23952 0.22148,-0.16053 0.45444,-0.30534 0.68582,-0.4512 0.30639,-0.19644 0.61087,-0.39542 0.9236,-0.58173 0.31303,-0.1883 0.63737,-0.35608 0.95901,-0.5288 0.34054,-0.182 0.68983,-0.3468 1.04292,-0.50278 0.35326,-0.15666 0.71825,-0.28473 1.08459,-0.40686 0.37686,-0.12319 0.761,-0.22132 1.14672,-0.31212 0.3572,-0.0844 0.71692,-0.15711 1.07747,-0.22547 0.36304,-0.0675 0.72785,-0.1246 1.09351,-0.17573 0.4053,-0.0661 0.81542,-0.0838 1.22507,-0.0986 0.42262,-0.0169 0.84556,0.008 1.26776,0.0256 0.40686,0.0276 0.81202,0.0754 1.21744,0.11865 0.39764,0.0562 0.79496,0.1174 1.18947,0.19264 0.39703,0.0775 0.78774,0.18284 1.17463,0.30015 0.38101,0.11856 0.75726,0.25209 1.13018,0.3939 0.40026,0.1461 0.79375,0.30829 1.18057,0.48684 0.36582,0.1738 0.72642,0.35907 1.08371,0.54977 0.37606,0.19519 0.73756,0.41622 1.09188,0.6481 0.36143,0.237 0.70449,0.5002 1.04137,0.77052 0.31096,0.25165 0.6156,0.51137 0.91416,0.77761 0.2908,0.26092 0.55581,0.54866 0.82371,0.83255 0.24366,0.25446 0.46747,0.5269 0.69558,0.79515 0.21887,0.25548 0.42165,0.52424 0.62851,0.78943 0.21965,0.29559 0.43567,0.59371 0.63434,0.90385 0.22512,0.34586 0.41114,0.71302 0.57603,1.09066 0.87912,2.03518 -1.99907,3.27844 -2.87818,1.24326 l 0,0 c -0.0965,-0.22813 -0.20958,-0.44743 -0.34561,-0.65493 -0.14067,-0.22652 -0.30451,-0.43725 -0.45871,-0.65457 -0.17968,-0.23035 -0.35524,-0.46432 -0.54481,-0.68667 -0.1931,-0.22709 -0.38165,-0.45861 -0.58744,-0.67444 -0.20792,-0.22035 -0.41217,-0.44521 -0.63603,-0.64963 -0.25498,-0.23042 -0.51927,-0.45078 -0.78532,-0.66823 -0.25827,-0.20786 -0.52048,-0.41133 -0.79781,-0.59339 -0.27683,-0.18238 -0.55995,-0.35514 -0.85482,-0.50704 -0.30152,-0.16343 -0.60875,-0.31719 -0.91736,-0.4667 -0.32291,-0.14996 -0.65249,-0.28312 -0.98704,-0.40504 -0.30467,-0.1187 -0.61453,-0.22439 -0.92605,-0.32353 -0.28148,-0.088 -0.56721,-0.16247 -0.85638,-0.22051 -0.30482,-0.0622 -0.61428,-0.10088 -0.92107,-0.15221 -0.33945,-0.0362 -0.67872,-0.0748 -1.01889,-0.10383 -0.34003,-0.0145 -0.68076,-0.0367 -1.0211,-0.0248 -0.30262,0.0108 -0.60576,0.0189 -0.90492,0.0706 -0.31527,0.0438 -0.62975,0.0932 -0.9428,0.15097 -0.31623,0.0599 -0.63177,0.12334 -0.94503,0.19741 -0.29411,0.0687 -0.58712,0.1425 -0.87473,0.23522 -0.2736,0.0904 -0.54642,0.18499 -0.81026,0.30125 -0.27933,0.12209 -0.5547,0.25333 -0.82404,0.39619 -0.28209,0.15099 -0.5666,0.29745 -0.84108,0.46225 -0.29054,0.17107 -0.56965,0.36006 -0.85483,0.53976 -0.20881,0.13054 -0.4178,0.26149 -0.61686,0.4066 -0.19299,0.12465 -0.37363,0.26993 -0.58194,0.37005 -1.93795,1.07664 -3.46056,-1.66404 -1.5226,-2.74069 z"
       inkscape:connector-curvature="0" />
    <path
       style="fill:#000000;fill-opacity:1;fill-rule:nonzero;stroke:none"
       id="path8522"
       d="m 502.57205,281.86935 c 0.10686,-0.0925 0.21454,-0.18522 0.32031,-0.27938 0.30305,-0.26425 0.62525,-0.50496 0.95471,-0.73497 0.43598,-0.30401 0.89596,-0.57167 1.36027,-0.82958 0.52009,-0.29089 1.04501,-0.57263 1.58007,-0.83499 0.56093,-0.27542 1.13425,-0.52252 1.7092,-0.76672 0.61723,-0.26041 1.24169,-0.50299 1.87178,-0.73036 0.67083,-0.2412 1.35486,-0.44166 2.0436,-0.62428 0.71725,-0.17957 1.43695,-0.34941 2.15895,-0.50888 0.72853,-0.16064 1.45962,-0.3099 2.19623,-0.42833 0.73242,-0.10677 1.46748,-0.19645 2.20491,-0.26006 0.73542,-0.0607 1.4738,-0.0657 2.2111,-0.0522 0.71418,0.0122 1.4268,0.0655 2.13775,0.13152 0.73147,0.0686 1.45402,0.19992 2.17072,0.35833 0.67878,0.16135 1.34806,0.35638 2.01084,0.57357 0.61391,0.20957 1.22132,0.43668 1.82011,0.68611 0.60143,0.25364 1.18271,0.54983 1.75383,0.86494 0.56928,0.31019 1.12213,0.64957 1.67583,0.98653 0.53873,0.3267 1.06281,0.67642 1.59117,1.01934 0.51122,0.33714 1.00951,0.69318 1.50515,1.05264 0.46293,0.34178 0.93009,0.67746 1.38103,1.03505 0.46524,0.3513 0.89088,0.74953 1.30553,1.15812 0.0744,0.0769 0.14879,0.15376 0.22318,0.23065 1.5392,1.59552 -0.7172,3.77228 -2.25641,2.17676 l 0,0 c -0.0562,-0.0585 -0.11239,-0.11697 -0.16859,-0.17545 -0.33495,-0.33088 -0.67751,-0.65466 -1.05566,-0.93661 -0.41323,-0.33021 -0.84585,-0.63453 -1.26985,-0.95057 -0.45193,-0.32782 -0.906,-0.65288 -1.37169,-0.961 -0.50271,-0.32651 -1.00139,-0.65939 -1.51381,-0.9707 -0.51645,-0.31433 -1.03171,-0.63165 -1.56276,-0.9209 -0.47051,-0.26074 -0.94948,-0.50555 -1.44506,-0.71568 -0.5226,-0.21889 -1.05373,-0.41548 -1.58933,-0.60022 -0.56537,-0.18572 -1.13602,-0.35267 -1.71474,-0.49225 -0.58749,-0.13196 -1.18022,-0.2393 -1.78009,-0.29693 -0.63378,-0.0591 -1.26902,-0.10766 -1.90571,-0.11857 -0.62918,-0.012 -1.25936,-0.009 -1.88702,0.0415 -0.66139,0.0552 -1.32017,0.13912 -1.9772,0.23228 -0.67578,0.10638 -1.34531,0.24831 -2.01365,0.39367 -0.67972,0.14995 -1.35717,0.31007 -2.0326,0.47823 -0.60083,0.15869 -1.19754,0.33298 -1.78276,0.54292 -0.57553,0.20712 -1.14548,0.42927 -1.70925,0.66663 -0.52359,0.22233 -1.04636,0.4457 -1.55688,0.69717 -0.48765,0.23794 -0.96433,0.49689 -1.43823,0.76105 -0.37266,0.20591 -0.74222,0.4195 -1.09201,0.66273 -0.22776,0.1567 -0.44874,0.32316 -0.65929,0.50243 -0.21418,0.19026 -0.42887,0.38153 -0.66456,0.54514 -1.84461,1.22973 -3.58372,-1.37893 -1.73912,-2.60867 z"
       inkscape:connector-curvature="0" />
    <path
       inkscape:connector-curvature="0"
       d="m 605.90764,249.15122 c -0.4658,0.21145 -0.9916,0.16663 -1.49171,0.15977 -0.54067,-0.0139 -1.08104,-0.0367 -1.62172,-0.0505 -0.42345,-0.009 -0.84701,-0.01 -1.27052,-0.0101 -0.55147,-0.003 -1.07327,0.19404 -1.61545,0.26914 -0.68811,0.14953 -1.36908,0.32346 -2.03959,0.53779 -0.48169,0.15098 -0.97224,0.24111 -1.44601,0.42001 -0.42288,0.0988 -0.80451,0.30867 -1.20846,0.45976 -0.40539,0.19417 -0.80273,0.39962 -1.21283,0.58409 -0.39058,0.13918 -0.78801,0.26134 -1.17808,0.41044 -0.45261,0.23545 -0.91845,0.44394 -1.35854,0.70295 -0.38383,0.17027 -0.68974,0.47966 -1.08421,0.62835 -0.56303,0.27781 -1.08885,0.62237 -1.60488,0.97848 -0.37021,0.27325 -0.68939,0.46658 -1.04353,0.81283 0.49282,-0.63368 -0.81043,0.88032 -0.5421,0.52101 -0.33019,0.29271 -0.61729,0.62926 -0.90985,0.95852 -0.32006,0.32774 -0.49866,0.58453 -0.6891,0.84752 -0.24039,0.43532 -0.37839,0.65038 -0.60903,1.10208 -0.0876,0.27254 -0.28028,0.45464 -0.49933,1.02899 -0.0634,0.25885 -0.22409,0.50974 -0.34826,0.86562 0.0341,-0.0831 0.10761,-0.15971 0.10236,-0.24943 -0.004,-0.0671 -0.0717,0.11378 -0.10695,0.17107 -0.12944,0.21055 -0.27344,0.4065 -0.40445,0.6179 -0.25918,0.43476 -0.39335,0.90821 -0.44926,1.40767 0.0132,-0.087 0.0463,-0.17337 0.0396,-0.26116 -0.007,-0.0946 -0.0734,0.17501 -0.10473,0.26455 -0.0566,0.16195 -0.10642,0.32618 -0.16032,0.48904 -0.23818,0.44268 -0.35637,0.93205 -0.43333,1.42466 0.0728,-0.49566 -0.28737,0.81397 -0.29895,0.86204 -0.0851,0.31888 -0.0996,0.64805 -0.10441,0.9761 -2.4e-4,0.0407 -0.007,0.16247 -7.1e-4,0.12218 0.13956,-0.94107 -0.15846,0.2085 -0.20976,0.42305 -0.50341,2.15903 2.54992,2.87095 3.05333,0.71192 l 0,0 c 0.0898,-0.40732 0.32804,-0.7758 0.29208,-1.21423 0.003,-0.22624 -0.0153,-0.12014 0.0196,-0.2936 0.0913,-0.39227 0.2667,-0.75213 0.35301,-1.1475 0.0189,-0.23839 0.11316,-0.45145 0.22471,-0.66245 0.17298,-0.4627 0.3321,-0.93068 0.45219,-1.41035 -0.11213,0.19546 0.006,-0.0341 0.0392,-0.11917 0.22957,-0.34232 0.49529,-0.71735 0.66721,-1.10905 0.0806,-0.27287 0.31041,-0.56968 0.3538,-0.88218 -0.15899,0.26255 0.46938,-0.76191 0.31704,-0.59257 0.11343,-0.22338 0.38649,-0.7275 0.39669,-0.7457 0.0961,-0.1302 0.38914,-0.54352 0.1112,-0.18155 -0.27678,0.36046 0.5966,-0.69667 0.34039,-0.36306 0.17719,-0.19946 0.35948,-0.39516 0.53182,-0.59848 0.49041,-0.43858 0.43345,-0.48859 0.79193,-0.74515 0.11271,-0.12482 0.41113,-0.28602 0.62168,-0.4597 0.35194,-0.25031 0.71292,-0.48307 1.09156,-0.68805 0.517,-0.24248 0.96938,-0.55403 1.40658,-0.79562 0.28389,-0.17229 0.59869,-0.28349 0.8752,-0.46897 0.459,-0.17546 0.92321,-0.3054 1.37918,-0.49545 0.33729,-0.15913 0.68236,-0.30826 1.00449,-0.49632 0.40536,-0.15515 0.78402,-0.35784 1.20838,-0.45973 0.29689,-0.11337 0.84266,-0.20966 1.28845,-0.36498 0.50768,-0.16228 1.02185,-0.28997 1.5387,-0.42194 0.10406,-0.0157 1.12905,-0.19687 1.12609,-0.23097 -0.004,-0.0488 -0.19511,0.003 -0.14679,-0.005 0.0587,-0.01 0.11891,6e-5 0.17836,9e-5 0.39837,5.2e-4 0.79677,0.001 1.19507,0.009 0.55517,0.0141 1.11,0.0384 1.66521,0.0513 1.00054,0.01 2.01747,-0.0268 2.9299,-0.49055 1.98289,-0.99145 0.58077,-3.79568 -1.40212,-2.80424 z"
       id="path8524"
       style="fill:#000000;fill-opacity:1;fill-rule:nonzero;stroke:none" />
    <path
       inkscape:connector-curvature="0"
       d="m 583.64886,264.93203 c -0.55535,-0.0964 -1.08398,-0.25704 -1.62388,-0.41209 -0.59505,-0.20196 -1.18468,-0.39408 -1.80603,-0.50894 -0.62325,-0.17449 -1.25742,-0.2927 -1.88183,-0.46162 -0.62693,-0.17079 -1.2661,-0.28082 -1.91263,-0.33898 -0.5481,-0.0361 -1.09794,-0.0296 -1.64692,-0.0289 -0.47132,10e-4 -0.94264,0.002 -1.41397,0.003 -0.49235,5.3e-4 -0.9847,5.3e-4 -1.47705,5.5e-4 -0.76242,-0.002 -1.52252,0.15698 -2.25521,0.35786 -0.52259,0.2001 -1.0685,0.30193 -1.59717,0.48385 -0.59775,0.13829 -1.14701,0.39384 -1.68138,0.68844 -0.44964,0.2575 -0.86867,0.58164 -1.34133,0.79787 -0.49493,0.24539 -0.95878,0.53934 -1.39607,0.8758 -0.31934,0.27575 -0.66533,0.51772 -1.00634,0.76829 -0.43207,0.38179 -0.84753,0.77681 -1.22929,1.2084 -0.34666,0.34329 -0.6428,0.73785 -0.96144,1.10822 -0.3589,0.42419 -0.59328,0.94892 -0.95375,1.36957 -0.41949,0.59317 -0.76351,1.23961 -1.01453,1.92068 -0.15906,0.5738 -0.36598,1.12824 -0.49252,1.71251 -0.20433,0.53747 -0.32373,1.09827 -0.40118,1.66639 -0.0406,0.39752 -0.0234,0.19783 -0.0515,0.5991 -0.14841,2.21197 2.97979,2.42185 3.1282,0.20988 l 0,0 c 0.0169,-0.26892 0.006,-0.1335 0.0325,-0.40626 0.0575,-0.49325 0.22148,-0.95652 0.36164,-1.43155 0.0851,-0.45377 0.27882,-0.87356 0.38431,-1.32095 0.1022,-0.37759 0.34823,-0.70922 0.54207,-1.04341 0.29554,-0.39939 0.57758,-0.81134 0.84194,-1.23184 0.32387,-0.37683 0.62233,-0.77673 0.97631,-1.12566 0.18073,-0.28398 0.50669,-0.45098 0.69868,-0.71229 0.3588,-0.26635 0.71833,-0.52805 1.06285,-0.81098 0.27683,-0.21587 0.57049,-0.39976 0.88654,-0.55486 0.49694,-0.25792 0.97832,-0.54657 1.44664,-0.85334 0.37773,-0.20828 0.7555,-0.38089 1.18969,-0.47006 0.48096,-0.16628 0.98509,-0.24701 1.46008,-0.44008 0.42751,-0.15601 0.91972,-0.21073 1.37035,-0.23035 0.49372,-2e-5 0.98743,-2e-5 1.48114,-5.5e-4 0.47116,-6.4e-4 0.94232,-0.002 1.41348,-0.003 0.45624,-5.6e-4 0.91301,-0.006 1.36884,0.0169 0.46304,0.0392 0.91957,0.12034 1.36847,0.24227 0.71378,0.19298 1.43752,0.33524 2.15299,0.5222 0.5185,0.0845 0.99263,0.28855 1.49445,0.43715 0.57165,0.161 1.13771,0.33055 1.72238,0.43842 2.15075,0.53769 2.91116,-2.50393 0.76041,-3.04162 z"
       id="path8526"
       style="fill:#000000;fill-opacity:1;fill-rule:nonzero;stroke:none" />
    <path
       inkscape:connector-curvature="0"
       d="m 561.14187,275.88824 c -0.12629,-0.0621 -0.23782,-0.15218 -0.36766,-0.23952 -0.22148,-0.16053 -0.45444,-0.30534 -0.68582,-0.4512 -0.30639,-0.19644 -0.61087,-0.39542 -0.9236,-0.58173 -0.31303,-0.1883 -0.63737,-0.35608 -0.95901,-0.5288 -0.34054,-0.182 -0.68983,-0.3468 -1.04292,-0.50278 -0.35326,-0.15666 -0.71825,-0.28473 -1.08459,-0.40686 -0.37686,-0.12319 -0.761,-0.22132 -1.14672,-0.31212 -0.3572,-0.0844 -0.71692,-0.15711 -1.07747,-0.22547 -0.36304,-0.0675 -0.72785,-0.1246 -1.09351,-0.17573 -0.4053,-0.0661 -0.81542,-0.0838 -1.22507,-0.0986 -0.42262,-0.0169 -0.84556,0.008 -1.26776,0.0256 -0.40686,0.0276 -0.81202,0.0754 -1.21744,0.11865 -0.39764,0.0562 -0.79496,0.1174 -1.18947,0.19264 -0.39703,0.0775 -0.78774,0.18284 -1.17463,0.30015 -0.38101,0.11856 -0.75726,0.25209 -1.13018,0.3939 -0.40026,0.1461 -0.79375,0.30829 -1.18057,0.48684 -0.36582,0.1738 -0.72642,0.35907 -1.08371,0.54977 -0.37606,0.19519 -0.73756,0.41622 -1.09188,0.6481 -0.36143,0.237 -0.70449,0.5002 -1.04137,0.77052 -0.31096,0.25165 -0.6156,0.51137 -0.91416,0.77761 -0.2908,0.26092 -0.55581,0.54866 -0.82371,0.83255 -0.24366,0.25446 -0.46747,0.5269 -0.69558,0.79515 -0.21887,0.25548 -0.42165,0.52424 -0.62851,0.78943 -0.21965,0.29559 -0.43567,0.59371 -0.63434,0.90385 -0.22512,0.34586 -0.41114,0.71302 -0.57603,1.09066 -0.87912,2.03518 1.99907,3.27844 2.87818,1.24326 l 0,0 c 0.0965,-0.22813 0.20958,-0.44743 0.34561,-0.65493 0.14067,-0.22652 0.30451,-0.43725 0.45871,-0.65457 0.17968,-0.23035 0.35524,-0.46432 0.54481,-0.68667 0.1931,-0.22709 0.38165,-0.45861 0.58744,-0.67444 0.20792,-0.22035 0.41217,-0.44521 0.63603,-0.64963 0.25498,-0.23042 0.51927,-0.45078 0.78532,-0.66823 0.25827,-0.20786 0.52048,-0.41133 0.79781,-0.59339 0.27683,-0.18238 0.55995,-0.35514 0.85482,-0.50704 0.30152,-0.16343 0.60875,-0.31719 0.91736,-0.4667 0.32291,-0.14996 0.65249,-0.28312 0.98704,-0.40504 0.30467,-0.1187 0.61453,-0.22439 0.92605,-0.32353 0.28148,-0.088 0.56721,-0.16247 0.85638,-0.22051 0.30482,-0.0622 0.61428,-0.10088 0.92107,-0.15221 0.33945,-0.0362 0.67872,-0.0748 1.01889,-0.10383 0.34003,-0.0145 0.68076,-0.0367 1.0211,-0.0248 0.30262,0.0108 0.60576,0.0189 0.90492,0.0706 0.31527,0.0438 0.62975,0.0932 0.9428,0.15097 0.31623,0.0599 0.63177,0.12334 0.94503,0.19741 0.29411,0.0687 0.58712,0.1425 0.87473,0.23522 0.2736,0.0904 0.54642,0.18499 0.81026,0.30125 0.27933,0.12209 0.5547,0.25333 0.82404,0.39619 0.28209,0.15099 0.5666,0.29745 0.84108,0.46225 0.29054,0.17107 0.56965,0.36006 0.85483,0.53976 0.20881,0.13054 0.4178,0.26149 0.61686,0.4066 0.19299,0.12465 0.37363,0.26993 0.58194,0.37005 1.93795,1.07664 3.46056,-1.66404 1.5226,-2.74069 z"
       id="path8528"
       style="fill:#000000;fill-opacity:1;fill-rule:nonzero;stroke:none" />
    <path
       style="fill:#000000;fill-opacity:1;fill-rule:nonzero;stroke:none"
       id="path8538"
       d="m 368.40033,135.92331 c -1.24498,-0.69891 -2.49762,-0.52429 -3.7868,-0.0438 -1.72852,0.6147 -2.43599,1.90377 -2.92812,3.3738 -0.62215,2.10538 -0.55186,4.1562 -0.017,6.25259 0.53772,1.48999 1.04846,3.08436 2.6594,3.93742 1.87898,0.80925 3.92319,0.0897 5.64587,-0.70336 0.34776,-0.17002 0.69553,-0.34004 1.04328,-0.51006 1.75923,-0.85837 3.15305,1.30845 1.39382,2.16683 l 0,0 c -0.37931,0.18474 -0.75863,0.36948 -1.13795,0.55423 -2.7341,1.18959 -5.73955,1.94535 -8.57624,0.52962 -2.20941,-1.43257 -3.10468,-3.15803 -3.81333,-5.44105 -0.62933,-2.51349 -0.68665,-4.99428 0.0728,-7.50597 0.78245,-2.19008 2.04842,-4.05229 4.60036,-4.96079 2.08619,-0.69281 4.20837,-0.89854 6.20273,0.16691 1.77287,0.83679 0.41409,3.02043 -1.35879,2.18363 z"
       inkscape:connector-curvature="0" />
    <path
       style="fill:#000000;fill-opacity:1;fill-rule:nonzero;stroke:none"
       id="path8540"
       d="m 379.19448,139.33149 c -0.67311,1.47708 -1.47732,2.93884 -1.26333,4.55649 0.4797,1.44547 1.88988,1.98766 3.48256,2.20611 1.93244,-0.0142 2.92364,-0.6821 3.73298,-2.14023 0.37155,-1.3321 -0.28374,-2.66065 -1.24086,-3.68898 -0.75642,-0.82598 -1.85676,-1.00666 -2.99556,-1.14822 -0.36894,0.0588 -1.64887,-0.34667 -1.80541,0.0218 0.51476,0.007 0.14779,-0.88766 0.20302,-1.33344 1.03677,1.50632 -1.40917,2.78331 -2.44596,1.27699 l 0,0 c 0.0438,-1.31856 -0.26895,-1.3351 0.57333,-1.95707 1.21168,-0.69854 2.50483,-0.63982 3.89838,-0.46445 1.87507,0.25393 3.62679,0.73966 4.84176,2.10054 1.57608,1.87342 2.44924,4.05239 1.50063,6.34003 -1.54048,2.4654 -3.51354,3.56697 -6.8041,3.4315 -2.86785,-0.53802 -5.17393,-1.7828 -5.78385,-4.45097 -0.12598,-1.92642 0.42779,-3.68634 1.36412,-5.43163 0.55334,-1.68882 3.29562,-1.00729 2.74229,0.68154 z"
       inkscape:connector-curvature="0" />
    <path
       style="fill:#000000;fill-opacity:1;fill-rule:nonzero;stroke:none"
       id="path8542"
       d="m 395.11446,140.04339 c -0.83704,1.55579 -1.1935,3.27331 -1.50998,4.95832 -0.16818,0.90422 -0.26712,1.81601 -0.31825,2.73047 0.29953,1.18338 -2.79446,0.0391 -2.18564,-0.85974 0.36807,-1.06199 0.7324,-2.13162 1.21276,-3.16025 0.51977,-1.52299 1.27164,-2.93133 2.21478,-4.286 0.39121,-0.55923 0.78314,-1.11809 1.17956,-1.67453 1.72391,-1.34678 3.06305,-0.0438 3.94025,1.27196 0.91687,1.27324 0.89495,2.80352 1.36812,4.19236 0.23077,0.69074 0.47948,1.37704 0.74918,2.05701 0.28491,0.5568 -0.90211,-0.44422 -1.21184,-0.62145 -0.20274,0.0447 -0.4219,0.21675 -0.60823,0.13405 -0.14623,-0.0649 0.2917,-0.1328 0.42603,-0.21491 0.30262,-0.18498 0.58549,-0.85474 0.75762,-1.13206 0.6864,-1.34452 1.29802,-2.7142 2.09626,-4.0126 0.5811,-0.82542 1.26039,-1.59618 2.00468,-2.3145 0.41339,-0.13377 0.80167,-0.4421 1.24017,-0.40132 1.46978,0.13671 1.75723,1.76078 1.96665,2.70271 0.17038,2.01354 0.49664,4.01208 0.72003,6.02212 0.18378,1.28329 0.10877,2.71804 0.27985,3.93176 -0.10394,-0.66505 -1.48805,-0.27609 -1.92336,0.16178 0.86045,-1.58833 3.43955,-0.52851 2.57909,1.05981 l 0,0 c -1.08247,1.40666 -2.80097,0.81403 -3.38496,-0.50136 -0.38308,-1.4409 -0.14668,-2.94858 -0.38913,-4.41287 -0.215,-1.93759 -0.54019,-3.86374 -0.68501,-5.80622 -0.0811,-0.40195 -0.0769,-0.44879 -0.19186,-0.80571 -0.0385,-0.11946 -0.30969,-0.38318 -0.17659,-0.33895 1.59811,0.53108 0.46418,0.69215 2.07959,0.0548 -0.59211,0.56773 -1.12914,1.17916 -1.60698,1.8234 -0.80792,1.30471 -1.39029,2.69727 -2.11253,4.03862 -0.7199,1.11697 -1.43537,2.13586 -2.93424,2.49229 -1.2561,-0.60101 -1.35268,-0.34275 -1.6209,-1.04891 -0.29025,-0.73271 -0.55857,-1.47204 -0.80563,-2.21668 -0.35435,-1.20065 -0.41457,-2.47845 -1.08369,-3.59828 -0.96986,-1.46231 -0.20166,-0.0314 0.95062,-1.20736 -0.3913,0.54923 -0.7781,1.10088 -1.16428,1.65284 -0.87078,1.25065 -1.54325,2.54879 -2.02275,3.95742 -0.57455,1.14447 -0.82912,2.39735 -1.43482,3.53101 -0.91122,1.21241 -3.41005,0.69746 -3.07111,-0.59201 0.0572,-1.00868 0.16677,-2.0145 0.35263,-3.01186 0.37157,-1.95719 0.80569,-3.94487 1.81667,-5.73856 0.96081,-1.54407 3.46804,-0.36065 2.50724,1.18341 z"
       inkscape:connector-curvature="0" />
    <path
       style="fill:#000000;fill-opacity:1;fill-rule:nonzero;stroke:none"
       id="path8544"
       d="m 415.33242,138.49665 c 1.54282,-1.17255 3.27735,-1.85094 5.30688,-2.01484 2.65128,0.16925 4.29583,1.6858 5.35311,3.67796 0.62403,1.64996 0.86337,3.42329 0.58568,5.14435 -0.43194,1.78462 -1.99001,2.28186 -3.87746,2.40935 -1.7525,-0.0885 -3.44569,-0.51822 -5.16909,-0.77763 -1.51041,-0.32515 -2.53131,-0.98834 -3.02593,-2.28127 -0.15848,-0.60403 -0.15406,-1.22013 -0.12149,-1.83436 0.0136,-0.23412 0.0303,-0.4681 0.05,-0.70189 0.0151,-0.12871 0.005,-0.0865 0.0108,-0.23121 0.007,-0.17656 0.0134,-0.35312 0.0199,-0.52969 6.9e-4,-0.0187 0.001,-0.0373 0.002,-0.056 0.72629,0.37673 1.45259,0.75347 2.17889,1.1302 -0.22318,1.40951 -0.35548,3.09786 -0.45239,4.59481 -0.11308,3.09227 -0.0646,6.23243 0.38306,9.30647 0.1839,0.90535 0.36396,1.82678 0.76932,2.68051 -0.50371,-0.7731 -0.10757,-0.13349 -2.60648,0.20344 0.20054,-1.74753 3.03816,-1.50052 2.83761,0.24701 l 0,0 c -2.25244,0.80587 -2.20739,1.61499 -2.83399,0.56435 -0.53717,-1.07385 -0.76642,-2.24368 -0.99658,-3.38998 -0.4492,-3.2248 -0.53536,-6.50905 -0.40014,-9.752 0.1357,-2.08452 -0.0112,-4.42402 1.32219,-6.24424 0.88296,0.24542 1.76593,0.49085 2.64889,0.73628 -6.8e-4,0.0199 -0.001,0.0397 -0.002,0.0596 -0.007,0.17743 -0.0133,0.35486 -0.0201,0.53228 -0.005,0.11894 -0.0198,0.36053 -0.0175,0.33676 -0.0177,0.20951 -0.0326,0.41919 -0.0449,0.629 -0.0197,0.35872 -0.0368,0.71827 0.0271,1.07501 -0.0143,0.0478 -0.18026,0.047 -0.14119,0.0829 0.22411,0.20566 0.62931,0.26305 0.90123,0.39506 1.49963,0.22823 2.97687,0.55617 4.48405,0.74683 0.59366,-0.0293 1.09705,0.18196 1.26149,-0.34185 0.31715,-1.20465 -0.069,-2.55185 -0.38065,-3.72845 -0.48723,-1.03194 -1.23221,-1.96878 -2.56713,-2.20474 -1.36116,-0.002 -2.49343,0.63973 -3.53642,1.34922 -1.47214,1.20021 -3.42102,-0.613 -1.94889,-1.81321 z"
       inkscape:connector-curvature="0" />
    <path
       style="fill:#000000;fill-opacity:1;fill-rule:nonzero;stroke:none"
       id="path8546"
       d="m 434.1705,140.69514 c -1.06568,0.57908 -1.96363,1.44037 -1.84604,2.58249 0.36601,1.20147 1.8471,1.79529 3.16238,1.95217 1.7326,-0.0481 2.50237,-1.15342 3.11488,-2.41656 0.35663,-1.3796 -0.48864,-2.24407 -1.75944,-2.92182 -1.24924,-0.552 -2.61147,-0.81879 -3.99099,-0.97172 -0.17545,-0.0161 -0.3517,-0.0258 -0.52795,-0.0325 -2.00843,0.15686 -2.26314,-2.31691 -0.2547,-2.47377 l 0,0 c 0.38367,-0.0224 0.76719,0.004 1.14866,0.0431 1.80978,0.20669 3.58887,0.58406 5.19803,1.36322 2.55279,1.5367 3.64726,3.28465 2.79176,6.00335 -1.22684,2.32105 -3.10733,4.01516 -6.2561,3.84614 -2.72426,-0.52174 -5.11263,-1.84168 -5.47755,-4.44801 0.1756,-2.29822 1.23019,-3.62387 3.50654,-4.78302 1.83237,-0.73317 3.02289,1.52374 1.19052,2.25691 z"
       inkscape:connector-curvature="0" />
    <path
       style="fill:#000000;fill-opacity:1;fill-rule:nonzero;stroke:none"
       id="path8548"
       d="m 449.28719,134.57203 c 0.96469,0.23975 1.92938,0.4795 2.89407,0.71926 0.14968,0.0372 0.29937,0.0744 0.44905,0.1116 -0.96751,3.47186 -0.41304,2.11476 -3.13769,2.43966 -1.00653,0.0965 -1.81737,0.45985 -2.47195,1.11401 -0.0156,0.21678 -0.36369,0.72828 -0.005,0.71695 0.56404,0.59095 1.30966,0.9403 2.14271,1.15451 1.20282,0.25081 2.31453,0.7682 3.33176,1.36942 1.28607,0.76271 2.0602,1.76517 2.45278,3.06022 0.18767,1.79727 -1.31572,2.95181 -2.78637,3.97595 -1.48155,0.92734 -3.07802,1.50199 -4.90123,1.50937 -1.89678,-0.33512 -2.98104,-1.62307 -3.87862,-3.00339 -0.20902,-0.33757 -0.39616,-0.68566 -0.52521,-1.05269 -0.56014,-1.68713 2.17939,-2.37704 2.73952,-0.68992 l 0,0 c 0.0508,0.12241 0.17471,0.38798 0.27199,0.52614 0.40826,0.64001 0.85126,1.28007 1.51962,1.73864 1.03391,0.20867 2.14707,-0.57689 2.99829,-0.97166 0.6379,-0.43947 1.29175,-0.90427 1.78861,-1.45421 -0.14927,-0.70989 -0.61097,-1.17293 -1.28857,-1.58796 -0.7898,-0.47466 -1.65182,-0.87657 -2.59471,-1.05522 -1.50674,-0.44131 -2.857,-1.12654 -3.75859,-2.30542 -0.66509,-1.28534 -0.56893,-2.43614 0.38187,-3.60034 1.14998,-1.07908 2.5693,-1.74404 4.26866,-1.91294 0.18573,-0.0155 2.75564,-0.115 2.76897,-0.0287 0.12489,0.80866 -0.0652,1.6309 -0.0975,2.44636 -5.5e-4,-1.4e-4 -10e-4,-2.9e-4 -10e-4,-4.1e-4 -0.14969,-0.0372 -0.29937,-0.0744 -0.44905,-0.1116 -0.96469,-0.23975 -1.92938,-0.47951 -2.89407,-0.71926 -1.93909,-0.48192 -1.15655,-2.87027 0.78253,-2.38836 z"
       inkscape:connector-curvature="0" />
    <path
       style="fill:#000000;fill-opacity:1;fill-rule:nonzero;stroke:none"
       id="path8550"
       d="m 461.27581,137.77464 c 0.41818,1.93632 0.49444,3.91406 0.54787,5.8791 -0.0804,1.29447 0.0359,2.54603 0.4702,3.78428 0.88679,1.00801 -2.43029,1.25499 -2.42098,0.44552 0.20687,-1.74697 3.04358,-1.49217 2.83672,0.2548 l 0,0 c -0.2028,1.39361 -3.13308,1.48782 -3.14639,0.0158 -0.49601,-1.45029 -0.68267,-2.92824 -0.59052,-4.44209 -0.0483,-1.80915 -0.11267,-3.63036 -0.48482,-5.4148 -0.42428,-1.71692 2.36363,-2.2395 2.78792,-0.52258 z"
       inkscape:connector-curvature="0" />
    <path
       style="fill:#000000;fill-opacity:1;fill-rule:nonzero;stroke:none"
       id="path8552"
       d="m 460.22371,128.88976 c 0.95913,-0.0296 2.07761,-0.6749 3.04928,-0.42341 0.32114,0.0831 0.59276,0.2721 0.88913,0.40815 0.25507,2.45425 -0.2541,2.25323 -2.42014,2.52757 -2.11858,0.22348 -2.01806,-0.91628 -1.83515,-2.14065 0.95425,-1.54715 3.46648,-0.37181 2.51223,1.17534 l 0,0 c 0.007,-1.2994 0.078,-0.97642 -1.35816,-1.46408 -0.0855,-0.029 0.43843,0.0118 0.27341,-0.0288 0.45845,-0.0572 1.00331,-0.17203 0.99489,-0.1514 -0.0503,0.12334 -0.31237,0.14548 -0.32054,0.27619 -0.0338,0.54142 0.13481,1.07807 0.20221,1.61711 0.22885,0.0809 0.4466,0.19173 0.68657,0.24263 0.081,0.0172 0.32608,-0.0607 0.24466,-0.0451 -0.77218,0.1473 -1.54607,0.28776 -2.31837,0.43456 -1.97136,0.36952 -2.57137,-2.05858 -0.60002,-2.4281 z"
       inkscape:connector-curvature="0" />
    <path
       style="fill:#000000;fill-opacity:1;fill-rule:nonzero;stroke:none"
       id="path8554"
       d="m 474.01075,126.11588 c -0.006,2.37295 -0.52392,4.71047 -0.8457,7.06045 -0.37474,3.13286 -0.55812,6.27974 -0.71758,9.42548 -0.0911,1.89069 -0.16427,3.78197 -0.2326,5.67338 -0.0151,0.43385 -0.0308,0.86768 -0.0445,1.30157 -6.9e-4,0.0104 -5.8e-4,0.0207 -6.9e-4,0.0311 -0.0423,1.75585 -2.89345,1.70371 -2.85112,-0.0521 l 0,0 c 4.2e-4,-0.0155 6.7e-4,-0.031 0.001,-0.0465 0.0138,-0.43743 0.0297,-0.87481 0.045,-1.3122 0.0687,-1.90189 0.14208,-3.80366 0.23399,-5.70482 0.1627,-3.20749 0.35048,-6.41615 0.73491,-9.61031 0.3128,-2.27964 0.81942,-4.54643 0.82714,-6.84795 0.0665,-1.75528 2.91671,-1.67336 2.8502,0.0819 z"
       inkscape:connector-curvature="0" />
    <path
       style="fill:#000000;fill-opacity:1;fill-rule:nonzero;stroke:none"
       id="path8556"
       d="m 467.04893,136.60307 c 2.34105,0.16989 4.67086,-0.0884 6.99764,-0.28722 1.10437,-0.10891 2.21072,-0.19498 3.32148,-0.23055 0.28342,-0.013 0.56665,-0.004 0.84989,0.006 0.13855,0.005 0.27707,0.01 0.41561,0.0146 2.01482,0.0716 1.8986,2.55321 -0.11622,2.48163 l 0,0 c -0.13701,-0.005 -0.27403,-0.01 -0.41105,-0.0144 -0.21148,-0.007 -0.42277,-0.0166 -0.63443,-0.006 -1.05254,0.033 -2.10044,0.11769 -3.14691,0.22033 -2.45003,0.20926 -4.90512,0.47059 -7.37007,0.29773 -2.0154,-0.0579 -1.92133,-2.54027 0.0941,-2.48234 z"
       inkscape:connector-curvature="0" />
    <path
       style="fill:#000000;fill-opacity:1;fill-rule:nonzero;stroke:none"
       id="path8558"
       d="m 481.9299,141.00537 c 0.92865,0.76573 1.99999,1.31982 3.19375,1.70055 0.84009,0.20783 1.77984,0.28364 2.60237,0.24192 0.0287,-0.0186 0.12199,-0.0539 0.0862,-0.0558 -0.46678,-0.0251 -0.21124,-0.20334 -0.1472,-0.70115 0.23033,-0.15286 -0.0316,-1.79135 -0.11885,-1.5577 -0.64137,-0.011 -1.49577,-0.15736 -2.21504,-0.20117 -0.64222,-0.0901 -0.98931,0.0827 -1.35846,0.48375 -0.0556,0.4352 -0.10896,0.94101 -0.13461,1.40112 -0.0403,0.95519 -0.0647,1.91083 -0.0951,2.86629 0.15318,1.05666 0.71278,1.79273 1.60292,2.49517 1.48621,1.05211 3.29969,1.50675 5.13611,1.84897 1.25078,0.004 2.48895,-0.1945 3.72273,-0.35448 0.80803,-0.22259 0.72376,0.17754 0.14855,0.039 -0.10661,-0.0257 0.17802,-0.11438 0.26761,-0.17086 0.40086,-0.25265 0.19587,-0.13126 0.81809,-0.40059 0.22423,-0.0541 0.44845,-0.10823 0.67267,-0.16234 1.95922,-0.41563 2.63411,1.99752 0.67489,2.41314 l 0,0 c -0.0664,0.008 -0.13277,0.0151 -0.19916,0.0226 -0.60607,0.28304 -1.21303,0.71671 -1.96277,0.71571 -1.56962,0.20347 -3.15178,0.4693 -4.7442,0.32565 -2.35113,-0.44518 -4.64007,-1.09058 -6.50259,-2.47935 -1.42355,-1.2193 -2.38379,-2.5823 -2.48551,-4.36129 0.0308,-0.97373 0.0555,-1.94765 0.0975,-2.92107 0.0598,-1.02512 0.13263,-2.05025 0.84117,-2.91763 0.97986,-0.93707 2.21554,-1.46579 3.70428,-1.32108 1.50216,0.0959 3.04226,0.21423 4.22681,1.11511 0.82252,1.0705 0.94739,2.1482 0.73505,3.41197 -0.18053,1.28727 -0.58875,2.49972 -2.19485,2.89854 -1.40057,0.17495 -2.81722,-2.1e-4 -4.17398,-0.34685 -1.60145,-0.52594 -3.05097,-1.28111 -4.28036,-2.33071 -1.37807,-1.28213 0.70384,-2.97949 2.0819,-1.69735 z"
       inkscape:connector-curvature="0" />
    <path
       style="fill:#000000;fill-opacity:1;fill-rule:nonzero;stroke:none"
       id="path8560"
       d="m 353.67443,149.24878 c 0.63383,2.99346 0.6755,6.05734 0.77196,9.0918 0.17895,4.0372 -0.0447,8.08417 0.22518,12.11727 0.19845,2.16744 0.4857,4.32744 0.72163,6.49184 0.0151,0.14206 0.0303,0.2841 0.0452,0.42618 0.0278,0.26605 0.0628,0.59946 0.0599,0.59942 -2.97808,-0.037 -2.84551,0.65552 -2.83894,-0.51018 0.0109,-1.75621 2.86255,-1.74287 2.85172,0.0134 l 0,0 c -0.008,1.21362 0.14767,0.49613 -2.85494,0.70039 -0.0413,0.003 -0.007,-0.072 -0.0102,-0.10801 -0.0149,-0.15312 -0.0314,-0.31529 -0.0473,-0.46689 -0.0146,-0.13986 -0.0296,-0.27969 -0.0444,-0.41953 -0.23927,-2.19531 -0.53179,-4.3861 -0.72975,-6.58476 -0.26177,-4.05828 -0.0607,-8.12828 -0.22875,-12.19048 -0.0904,-2.8556 -0.13002,-5.73618 -0.6879,-8.55801 -0.48907,-1.7038 2.27754,-2.30618 2.76661,-0.60238 z"
       inkscape:connector-curvature="0" />
    <path
       style="fill:#000000;fill-opacity:1;fill-rule:nonzero;stroke:none"
       id="path8562"
       d="m 346.29106,164.40302 c 2.13871,-0.89623 4.47979,-1.19162 6.81502,-1.39645 2.24626,-0.15937 4.50085,-0.19155 6.75343,-0.20336 0.61191,-0.002 1.22387,-0.002 1.8357,0.008 0.0359,1.1e-4 0.0716,0.002 0.10743,0.004 2.01334,0.0982 1.85392,2.57798 -0.15942,2.47981 l 0,0 c -0.004,-1.5e-4 0.0684,0.002 -0.0117,-4.5e-4 -0.58491,-0.009 -1.16996,-0.008 -1.75494,-0.007 -2.16404,0.0112 -4.32997,0.0411 -6.48818,0.1912 -1.98998,0.17012 -3.99177,0.39655 -5.82202,1.14645 -1.80361,0.78541 -3.07895,-1.43607 -1.27535,-2.22149 z"
       inkscape:connector-curvature="0" />
    <path
       style="fill:#000000;fill-opacity:1;fill-rule:nonzero;stroke:none"
       id="path8564"
       d="m 367.86207,165.37908 c 0,2.23919 0,4.47838 0,6.71758 0.11854,1.2339 0.36823,2.45771 0.73139,3.6545 0.27668,0.83154 0.29359,0.10308 -2.62777,0.43279 -0.50304,-1.33744 -0.62787,-2.80926 -0.77403,-4.20926 -0.34456,-2.01233 0.0991,-3.88146 1.07222,-5.70506 0.87164,-1.51412 2.25106,-2.52314 4.04878,-3.10259 1.30761,-0.38525 2.63991,-0.13087 3.86926,0.32491 0.80515,0.30261 -0.004,0.10344 0.58748,0.14795 0.0608,0.005 0.12185,0.005 0.18277,0.007 2.01648,0.008 2.00332,2.49178 -0.0132,2.48368 l 0,0 c -0.14469,-0.002 -0.28942,-0.005 -0.43361,-0.0175 -0.50509,-0.0425 -1.01808,-0.10709 -1.45966,-0.34293 -0.56872,-0.22345 -1.18773,-0.43395 -1.79876,-0.25636 -1.10086,0.28814 -1.88004,0.94603 -2.41258,1.83148 -0.81645,1.40803 -1.06558,2.83989 -0.80256,4.40604 0.1554,1.50794 0.41369,2.99761 0.78515,4.47682 -2.62945,0.90349 -2.51315,1.57335 -2.98146,0.15501 -0.42215,-1.40317 -0.71586,-2.83775 -0.82522,-4.28634 0,-2.23919 0,-4.47838 0,-6.71758 0,-1.75624 2.85175,-1.75624 2.85175,0 z"
       inkscape:connector-curvature="0" />
    <path
       style="fill:#000000;fill-opacity:1;fill-rule:nonzero;stroke:none"
       id="path8568"
       d="m 384.68014,167.02063 c -1.56047,0.5033 -2.86387,1.37421 -3.97237,2.43465 -0.98687,0.83681 -1.20943,1.88946 -1.35832,3.03077 -0.1075,1.17664 -0.112,2.35812 -0.10305,3.53774 0.0558,-0.044 0.11959,0.17866 0.13735,0.12348 0.14141,-0.43948 -0.0583,-0.23255 0.73057,-0.45213 1.52224,-0.36871 3.00744,-1.05841 4.01628,-2.13619 0.72456,-1.06459 0.77128,-2.32827 0.84858,-3.532 0.0269,-0.56564 0.0417,-1.13225 0.0143,-1.69801 0.0301,0.29572 -0.0184,-0.35836 -0.0198,-0.525 -10e-4,-0.13754 -10e-4,-0.27508 -10e-4,-0.41263 0.37496,-0.94561 2.85189,-0.5407 2.85222,0.462 0.39635,0.83782 0.86823,1.6893 1.32586,2.52141 0.73522,0.98192 1.56165,1.89836 2.56403,2.68322 0.64936,0.3833 1.25472,0.84366 1.95831,1.15814 0.26886,0.10808 0.14622,0.0828 0.35753,0.10711 1.93966,0.48017 1.15996,2.86923 -0.77969,2.38907 l 0,0 c -0.68359,-0.18986 -0.38285,-0.0823 -0.91195,-0.30104 -0.90355,-0.42403 -1.71248,-0.99389 -2.54076,-1.51413 -1.26599,-1.00796 -2.33933,-2.17177 -3.22203,-3.45421 -0.63126,-1.15945 -1.3749,-2.30788 -1.60305,-3.58884 -3.4e-4,-1.0361 1.99177,-1.01624 2.85129,-0.46074 8e-5,0.13102 3.2e-4,0.26204 0.001,0.39307 0.004,0.52469 -0.048,-0.19113 0.0158,0.41075 0.0385,0.65656 0.0128,1.31477 -0.0149,1.97121 -0.11751,1.76524 -0.30906,3.54832 -1.54765,5.02425 -1.48129,1.42228 -3.36591,2.45203 -5.51982,2.92199 -2.23293,0.38058 -3.96434,0.11212 -4.36413,-2.0745 -0.01,-1.28297 -0.003,-2.56818 0.12294,-3.84736 0.23312,-1.64957 0.697,-3.2025 2.09085,-4.4185 1.35085,-1.26961 2.91964,-2.35056 4.79629,-2.97507 1.80361,-0.78541 3.07895,1.43607 1.27534,2.22149 z"
       inkscape:connector-curvature="0" />
    <path
       style="fill:#000000;fill-opacity:1;fill-rule:nonzero;stroke:none"
       id="path8570"
       d="m 400.25308,165.80675 c 0.46319,1.99562 0.99777,3.97101 1.33077,5.98814 0.43025,3.29166 0.45239,6.61109 0.49289,9.91998 0.14546,3.05136 -0.016,6.07357 -0.8734,9.03825 -0.89922,2.49743 -3.40771,3.26036 -6.15436,3.36031 -2.52,-0.17413 -4.54267,-1.34921 -6.10079,-3.01605 -1.23781,-1.28023 -1.74664,-2.64526 -1.66456,-4.29857 0.1104,-1.7536 2.95787,-1.61763 2.84748,0.13598 l 0,0 c -0.0963,1.14989 0.19641,1.67684 1.0446,2.61177 0.95724,1.07225 2.22673,1.8965 3.80846,2.08381 1.4227,0.0107 2.94587,-0.17478 3.45481,-1.48737 0.80698,-2.75439 0.91446,-5.56599 0.78616,-8.40171 -0.039,-3.20034 -0.0583,-6.41075 -0.4644,-9.59522 -0.31472,-1.93319 -0.83712,-3.82378 -1.27427,-5.73693 -0.48907,-1.70381 2.27753,-2.30619 2.76661,-0.60239 z"
       inkscape:connector-curvature="0" />
    <path
       style="fill:#000000;fill-opacity:1;fill-rule:nonzero;stroke:none"
       id="path8572"
       d="m 397.13835,157.91342 c 1.35343,-1.23931 2.58444,-2.26658 4.34123,-0.66194 0.96387,1.5916 -0.0137,3.04331 -1.50421,4.01554 -0.78361,0.46848 -1.71464,0.64711 -2.64522,0.72618 -1.16403,0.0799 -0.90711,-0.20942 -1.91357,-1.39231 -0.0771,-1.75494 2.77252,-1.84998 2.84967,-0.095 l 0,0 c -1.41858,-1.19467 -1.44162,-0.96355 -1.19915,-0.98577 0.42561,-0.0309 0.87701,-0.0756 1.24562,-0.27097 0.31294,-0.17654 0.52714,-0.47351 0.8805,-0.5132 0.37545,0.1641 0.3543,0.18827 0.99062,0.0994 0.0806,-0.0113 0.26391,-0.14919 0.18261,-0.14229 -0.50026,0.0425 -0.79403,0.80177 -1.2116,0.97663 -1.42588,1.24185 -3.44237,-0.51439 -2.0165,-1.75624 z"
       inkscape:connector-curvature="0" />
    <path
       style="fill:#000000;fill-opacity:1;fill-rule:nonzero;stroke:none"
       id="path8574"
       d="m 410.01315,167.08978 c 0.95961,0.17557 2.42437,0.57239 3.34463,0.0768 0.0519,-0.0343 0.1307,-0.0506 0.15578,-0.10301 0.0217,-0.0454 -0.14149,-0.0363 -0.13807,-0.0854 0.0234,-0.33484 0.10623,-0.67438 0.1285,-1.0137 0.0492,-0.75999 0.17568,-1.39554 -0.40156,-1.9747 -0.46154,-0.22949 -0.92334,-0.31115 -1.44702,-0.34558 -0.55629,0.46987 -1.08995,1.24283 -1.52598,1.87222 -0.76956,1.26785 -1.25477,2.6886 -1.17524,4.12855 0.29719,1.62796 1.42831,2.77877 2.6825,3.93089 0.93374,0.78547 1.96614,1.38645 3.24997,1.58281 1.26949,-0.23607 2.42417,-0.8237 3.53877,-1.38618 0.58472,-0.31058 0.31462,-0.16349 0.81179,-0.4392 1.70167,-0.94229 3.23176,1.15363 1.53009,2.09592 l 0,0 c -0.56244,0.31105 -0.25814,0.14584 -0.91446,0.49344 -1.70004,0.85445 -3.49623,1.7483 -5.5207,1.67231 -1.85882,-0.34235 -3.41965,-1.13288 -4.76609,-2.31131 -1.74495,-1.60653 -3.17865,-3.31763 -3.46305,-5.58889 -0.007,-1.91884 0.49194,-3.78168 1.58602,-5.46337 0.99886,-1.43625 2.12026,-2.92772 4.2279,-3.06042 1.31835,0.11655 2.49239,0.45549 3.44513,1.30364 0.94899,1.12784 1.15235,2.27864 0.98785,3.64863 -0.10876,1.37242 -0.39862,2.75746 -2.01068,3.37532 -1.64337,0.44904 -3.36258,0.44284 -5.01773,6e-4 -1.95629,-0.42595 -1.26464,-2.83549 0.69165,-2.40954 z"
       inkscape:connector-curvature="0" />
    <path
       style="fill:#000000;fill-opacity:1;fill-rule:nonzero;stroke:none"
       id="path8576"
       d="m 428.07426,162.12238 c 0.97324,0.21192 1.94648,0.42382 2.91972,0.63573 0.15102,0.0329 0.30203,0.0658 0.45304,0.0986 -0.46632,2.8266 -0.17933,2.435 -2.30938,2.43718 -1.18311,-0.0426 -2.24504,0.28889 -3.09214,1.00277 -0.75485,0.85015 -0.96872,1.89208 -1.10679,2.93069 -0.12249,0.77912 0.24797,1.45194 0.8466,2.0186 0.8692,0.47977 1.94456,0.56533 2.9472,0.64023 1.10625,0.16014 2.03697,0.022 3.06901,-0.2658 0.81164,-0.51712 1.75194,-0.84775 2.7025,-1.11643 1.91947,-0.53822 2.79343,1.82597 0.87396,2.36419 l 0,0 c -0.9648,0.26766 -1.82303,0.68975 -2.70692,1.11767 -1.38821,0.38708 -2.73265,0.54995 -4.19378,0.3741 -1.77499,-0.14389 -3.56936,-0.41053 -4.89841,-1.54045 -1.01515,-1.1363 -1.70986,-2.40387 -1.47192,-3.88573 0.23119,-1.65482 0.70832,-3.24455 2.05271,-4.50017 1.43055,-1.04725 3.06532,-1.68925 4.97462,-1.62336 2.13021,-0.002 2.0742,-0.45015 1.62109,2.45605 -0.15101,-0.0328 -0.30203,-0.0658 -0.45304,-0.0986 -0.97324,-0.21191 -1.94648,-0.42382 -2.91973,-0.63572 -1.95628,-0.42595 -1.26463,-2.83549 0.69166,-2.40955 z"
       inkscape:connector-curvature="0" />
    <path
       style="fill:#000000;fill-opacity:1;fill-rule:nonzero;stroke:none"
       id="path8578"
       d="m 441.12822,155.04407 c 0.59178,2.63615 0.6698,5.33438 0.77172,8.01114 0.0851,3.1213 0.0147,6.23558 0.37746,9.34394 0.19993,1.44866 0.40304,2.89699 0.61046,4.34486 0.17083,1.20231 0.24798,0.43437 -2.77538,0.39428 0.0158,-1.75619 2.86749,-1.73669 2.85166,0.0195 l 0,0 c -2.99462,0.3565 -2.72946,1.11409 -2.90609,-0.10626 -0.21016,-1.46698 -0.41621,-2.93441 -0.61791,-4.40229 -0.36627,-3.1647 -0.31285,-6.33416 -0.39039,-9.51192 -0.0948,-2.50208 -0.16471,-5.02265 -0.68814,-7.49086 -0.48907,-1.7038 2.27754,-2.30618 2.76661,-0.60238 z"
       inkscape:connector-curvature="0" />
    <path
       style="fill:#000000;fill-opacity:1;fill-rule:nonzero;stroke:none"
       id="path8580"
       d="m 436.3974,163.64208 c 2.55049,0.10718 5.07139,-0.10828 7.59973,-0.36648 1.54411,-0.15176 3.0892,-0.29622 4.63572,-0.42815 0.1662,-0.0144 0.33242,-0.0283 0.49905,-0.038 2.01461,-0.0759 2.13791,2.40544 0.1233,2.48137 l 0,0 c -0.11479,0.009 -0.22956,0.0191 -0.34437,0.0285 -1.5285,0.13037 -3.05557,0.2732 -4.5817,0.4231 -2.63792,0.26923 -5.27122,0.48889 -7.93173,0.38336 -2.01649,0 -2.01649,-2.48369 0,-2.48369 z"
       inkscape:connector-curvature="0" />
    <path
       style="fill:#000000;fill-opacity:1;fill-rule:nonzero;stroke:none"
       id="path8582"
       d="m 453.98732,165.00752 c -0.67276,1.66009 -1.19462,3.40268 -1.19578,5.17021 0.1492,1.11938 0.82539,2.11738 2.21076,2.18844 1.43821,0.0927 2.46135,-0.61568 3.22462,-1.60621 0.83032,-1.2933 0.51985,-2.63771 -0.11707,-3.93226 -0.61729,-0.90511 -1.59981,-1.25021 -2.7224,-1.45435 -0.22921,-0.002 -1.40049,-0.2693 -1.23107,0.005 -0.0102,0.0709 0.0674,-0.0533 0.0686,-0.0548 -0.87868,1.58074 -3.44546,0.49847 -2.56678,-1.08226 l 0,0 c 0.18836,-0.31106 0.41989,-0.59061 0.73597,-0.81574 1.10583,-0.69806 2.30102,-0.73243 3.60512,-0.47764 2.05894,0.40723 3.74732,1.25717 4.75359,2.94757 0.9504,2.12145 1.23024,4.29552 -0.21594,6.32125 -1.51275,1.74544 -3.48058,2.86096 -6.09157,2.58573 -2.87398,-0.62526 -4.21056,-2.07809 -4.50529,-4.6616 0.0619,-2.13926 0.58945,-4.25212 1.49653,-6.24367 0.9018,-1.57083 3.45249,-0.46008 2.55068,1.11075 z"
       inkscape:connector-curvature="0" />
    <path
       style="fill:#000000;fill-opacity:1;fill-rule:nonzero;stroke:none"
       id="path8584"
       d="m 466.794,163.32306 c 0.45539,1.95546 0.63751,3.9478 0.77013,5.9364 0.10142,1.23393 -0.0886,2.48229 0.45158,3.64982 0.1802,0.33415 0.27377,0.31027 -0.0719,0.0685 -0.71452,0.18908 -1.40322,0.48203 -2.14355,0.56724 -0.12217,0.0141 0.0237,-0.21503 0.0113,-0.32181 -0.015,-0.1294 -0.0615,-0.25456 -0.093,-0.38169 -0.1657,-0.66737 -0.32657,-1.33265 -0.46751,-2.00444 -0.37811,-1.67926 -0.42121,-3.31189 0.2218,-4.93562 0.8499,-1.47224 2.41156,-2.38008 4.03338,-3.13318 1.12804,-0.47277 2.34981,-0.67157 3.58527,-0.77338 0.33079,-0.0245 0.66269,-0.0385 0.99277,-0.004 0.17971,-0.13857 1.10194,0.36436 1.43296,0.65351 1.32681,1.32251 -0.82066,2.95673 -2.14747,1.63422 l 0,0 c 0.48254,0.24295 1.12227,0.19169 0.27888,0.16682 0.33219,0.0242 -0.26222,-0.005 -0.29358,0.0223 -0.86173,0.0679 -1.71785,0.18474 -2.51459,0.4954 -1.00304,0.45829 -2.05093,0.98561 -2.69999,1.81606 -0.59901,1.13871 -0.26301,2.42146 -0.0838,3.6129 0.0961,0.46201 0.80213,3.28703 0.57314,3.46196 -0.65942,0.50374 -1.49062,0.80555 -2.23593,1.20833 -0.49293,-0.32748 -0.81086,-0.76236 -1.04084,-1.26407 -0.6089,-1.42344 -0.60637,-2.89202 -0.63589,-4.39566 -0.12137,-1.83428 -0.28707,-3.67115 -0.68974,-5.47749 -0.48907,-1.7038 2.27754,-2.30619 2.7666,-0.60238 z"
       inkscape:connector-curvature="0" />
    <path
       style="fill:#000000;fill-opacity:1;fill-rule:nonzero;stroke:none"
       id="path8586"
       d="m 482.00336,163.32306 c 0.59333,1.79401 0.52673,3.60733 0.33618,5.44267 -0.16457,1.14926 -0.17177,2.56224 0.90518,3.39745 1.26367,0.45784 2.42795,0.54969 3.64748,-0.003 1.68077,-0.88485 2.04308,-2.59311 2.37375,-4.1547 0.22878,-1.39244 0.30326,-2.80107 0.30661,-4.20657 -0.0177,-1.22826 -0.28343,-0.45484 2.80218,-0.18962 0.26709,1.86775 0.51939,3.7627 0.79429,5.63865 0.60218,3.75332 0.84494,7.53857 1.01062,11.32238 0.31043,3.11537 -0.22706,5.56357 -2.19786,8.15989 -1.76946,2.03231 -4.33772,2.7425 -7.15173,2.85634 -2.85358,-0.30007 -4.68478,-1.04976 -6.00726,-3.30903 -0.3766,-0.8761 -0.51469,-1.79296 -0.64018,-2.71409 -0.23042,-1.74474 2.60265,-2.02855 2.83307,-0.28381 l 0,0 c 0.0839,0.66177 0.17637,1.32265 0.39939,1.96275 0.47701,1.22806 1.96156,1.65745 3.32813,1.86163 1.8777,-0.01 3.6504,-0.44336 4.87117,-1.75851 1.60597,-2.04016 2.00803,-4.20797 1.71558,-6.68064 -0.16205,-3.71061 -0.39842,-7.42277 -0.98987,-11.10339 -0.29506,-2.02528 -0.60639,-4.0644 -0.81267,-6.09074 3.01813,-0.47068 2.87021,-1.15819 2.89689,0.33433 -0.005,1.55793 -0.0901,3.11936 -0.35616,4.66145 -0.5284,2.38933 -1.36358,4.72081 -3.99208,5.95324 -2.39035,0.88451 -4.79412,0.78367 -6.94099,-0.58557 -1.46083,-1.5127 -1.98169,-3.32631 -1.63559,-5.29342 0.16382,-1.56146 0.25862,-3.08743 -0.26273,-4.61549 -0.48908,-1.70381 2.27753,-2.30619 2.7666,-0.60239 z"
       inkscape:connector-curvature="0" />
    <path
       style="fill:#000000;fill-opacity:1;fill-rule:nonzero;stroke:none"
       id="path8602"
       d="m 529.00863,199.58114 c -1.16485,1.10733 -1.96519,2.35901 -2.47965,3.77726 -0.50952,1.39559 0.0492,2.52466 1.22877,3.49043 1.30713,0.90204 2.86752,1.32402 4.49199,1.55266 0.0969,-0.0152 0.21491,0.009 0.29066,-0.0454 0.11066,-0.0792 -0.0276,-0.25276 0.0132,-0.37164 0.21333,-0.62345 0.33656,-0.74778 0.44488,-1.4728 0.0518,-0.34693 0.0412,-0.69869 0.0618,-1.04803 -0.12311,-2.06066 -1.04127,-3.97887 -2.09631,-5.80243 -0.33816,-0.73186 -0.73676,-0.78087 -1.55251,-0.84102 -0.79326,0.21283 -1.68466,0.2198 -2.35232,0.66975 -0.11761,0.0737 -0.20111,0.17329 -0.29286,0.26735 -1.26118,1.31189 -3.41447,-0.22485 -2.15329,-1.53674 l 0,0 c 0.25785,-0.26042 0.52754,-0.5091 0.85268,-0.71019 1.26227,-0.71953 2.75604,-0.99728 4.25442,-1.08453 1.67583,0.18051 3.04402,0.75115 3.74767,2.16307 1.27059,2.20809 2.32464,4.53524 2.38243,7.0341 -0.19988,2.22033 -0.7514,5.23869 -4.06052,5.15473 -2.21373,-0.32356 -4.30807,-0.9584 -6.03376,-2.24705 -1.81648,-1.6779 -2.72002,-3.61929 -1.88952,-5.90754 0.67277,-1.77472 1.67905,-3.36998 3.16518,-4.74549 1.39802,-1.20454 3.37511,0.49894 1.97709,1.70349 z"
       inkscape:connector-curvature="0" />
    <path
       style="fill:#000000;fill-opacity:1;fill-rule:nonzero;stroke:none"
       id="path8604"
       d="m 539.1424,197.73028 c 0.47721,1.98435 0.62481,4.00975 0.75526,6.02838 0.23002,1.34785 0.58103,2.67664 0.85514,4.01806 0.0637,0.32111 0.12809,0.64222 0.17893,0.96507 0.002,0.0167 0.004,0.0335 0.006,0.0502 -0.93082,-0.0563 -1.88499,0.0184 -2.79245,-0.16878 -0.0277,-0.006 -0.004,-1.45806 -0.005,-2.1708 -0.13831,-1.69834 0.0606,-3.2617 0.78641,-4.84567 0.86567,-1.67769 2.24163,-3.07485 3.55824,-4.494 0.67144,-0.82265 1.54918,-1.49807 2.54137,-2.02096 0.91977,-0.56677 2.06292,-0.007 2.56583,0.8341 0.5702,0.80468 1.02651,1.64177 1.3578,2.54217 0.7723,1.26067 0.88297,2.68589 1.22378,4.05302 0.43266,1.71839 0.69146,3.46366 0.91068,5.21029 0.12885,1.58466 0.2898,0.36622 -0.54107,0.005 -0.0187,-0.0133 -0.0438,-0.0137 -0.065,-0.0204 1.97378,-0.0985 2.13551,2.30651 0.16172,2.40504 l 0,0 c -0.24851,0.008 -0.49529,0.008 -0.74005,-0.0402 -1.16435,-0.30679 -1.58652,-1.10447 -1.59545,-2.09065 -0.20879,-1.66641 -0.45338,-3.33183 -0.86652,-4.97123 -0.31386,-1.29861 -0.42743,-2.63376 -1.15618,-3.83044 -0.27683,-0.77299 -0.68997,-1.47374 -1.17797,-2.1638 -0.50057,-0.848 1.43889,0.2808 1.36545,0.13056 -0.72141,0.36337 -1.32889,0.8703 -1.80151,1.46293 -1.14674,1.23286 -2.3572,2.43649 -3.14367,3.88026 -0.60557,1.29483 -0.70289,2.55306 -0.58783,3.95242 4.9e-4,0.65474 0.0485,2.13971 0.005,2.15259 -0.89316,0.26153 -2.91645,-0.38765 -2.78396,0.43813 -0.0471,-0.28318 -0.10136,-0.56543 -0.15834,-0.84727 -0.29301,-1.43504 -0.68141,-2.85524 -0.89315,-4.30191 -0.12026,-1.86706 -0.25212,-3.73977 -0.67609,-5.57781 -0.47951,-1.65262 2.23304,-2.2369 2.71255,-0.58429 z"
       inkscape:connector-curvature="0" />
    <path
       style="fill:#000000;fill-opacity:1;fill-rule:nonzero;stroke:none"
       id="path8606"
       d="m 553.37184,200.58081 c 1.64234,0.55012 3.28025,1.02826 5.0536,1.00951 1.0998,-0.16449 2.14806,-0.41836 2.68816,-1.32183 0.1884,-0.44469 0.61065,-1.29256 0.1234,-1.67292 -0.77473,-0.34541 -1.60438,-0.44703 -2.46138,-0.51605 -0.96599,0.015 -1.45438,-0.41171 -1.69503,0.43305 -0.33785,1.57959 -0.31282,3.19555 -0.32724,4.79558 0.0719,1.72129 0.85277,3.19865 1.91865,4.60736 0.71039,0.83203 1.67148,1.15987 2.81045,1.3038 1.9347,0.1582 3.91181,-0.0392 5.7893,-0.45652 0.75415,-0.20305 1.50778,-0.43403 2.18399,-0.79063 -0.003,3.5e-4 -0.005,5.7e-4 -0.008,0.001 -0.0256,0.0175 -0.0511,0.0349 -0.0766,0.0523 1.44269,-1.16477 3.35452,0.59314 1.91182,1.75792 l 0,0 c -0.20274,0.15108 -0.0987,0.0802 -0.31183,0.21313 -0.93071,0.50666 -1.97728,0.83009 -3.02585,1.10428 -2.25254,0.46787 -4.59523,0.7303 -6.90926,0.49664 -1.9217,-0.28389 -3.54433,-0.96057 -4.70779,-2.36805 -1.36455,-1.80972 -2.29555,-3.7451 -2.37107,-5.94022 0.0179,-1.94501 -0.0528,-3.93931 0.60309,-5.82023 1.09138,-1.72166 2.32964,-1.99625 4.4906,-1.78686 1.82196,0.16206 3.57791,0.50176 4.70477,1.86764 0.63964,1.36386 0.55116,2.70842 -0.28467,4.01385 -1.21329,1.52384 -2.89688,2.27358 -5.03882,2.43575 -2.00058,-0.008 -3.8948,-0.4097 -5.73867,-1.08143 -1.91806,-0.41316 -1.23993,-2.75031 0.67814,-2.33716 z"
       inkscape:connector-curvature="0" />
    <path
       style="fill:#000000;fill-opacity:1;fill-rule:nonzero;stroke:none"
       id="path8608"
       d="m 502.38142,226.59613 c -1.70052,0.43935 -2.88388,1.40288 -3.75245,2.69715 -0.7814,1.56658 -1.13401,3.34815 -0.97993,5.05015 0.10431,0.79092 0.36537,1.40773 1.27273,1.62002 1.36312,0.20261 2.78534,0.30959 4.15834,0.13813 0.9317,-0.15819 0.49059,-0.0496 1.32707,-0.31418 1.87006,-0.55289 2.77755,1.72578 0.90749,2.27867 l 0,0 c -1.2765,0.36121 -0.64556,0.22341 -1.88902,0.42612 -1.83079,0.17606 -3.71259,0.11952 -5.50342,-0.27885 -1.90206,-0.69571 -2.87652,-1.93556 -3.06409,-3.72409 -0.12506,-2.19765 0.249,-4.44682 1.37575,-6.43902 1.33146,-1.85278 3.09771,-3.24548 5.59918,-3.8164 1.9387,-0.33408 2.48705,2.02822 0.54835,2.3623 z"
       inkscape:connector-curvature="0" />
    <path
       style="fill:#000000;fill-opacity:1;fill-rule:nonzero;stroke:none"
       id="path8610"
       d="m 513.01224,227.04486 c -1.08755,1.49707 -1.79075,3.16821 -1.941,4.93104 0.0814,1.42656 0.86389,2.40331 2.34465,2.97119 1.37512,0.40512 2.6994,0.54188 3.97611,-0.10214 1.19131,-1.28564 1.38505,-2.99186 1.0024,-4.54718 -0.63958,-1.82005 -2.05865,-3.10697 -3.92024,-4.04376 -0.90195,-0.38315 -1.87729,-0.53216 -2.87174,-0.57496 -0.0641,-5.5e-4 -0.25372,0.0138 -0.19219,-0.002 1.17225,-0.29355 1.02712,-0.20066 0.83875,-1.32948 -0.12517,-0.1058 -0.25032,-0.21159 -0.37549,-0.31739 1.86098,0.5752 0.91687,2.84279 -0.9441,2.2676 l 0,0 c -0.29767,-0.15912 -0.59536,-0.31824 -0.89303,-0.47735 -0.11382,-0.37931 -0.27454,-0.75042 -0.34147,-1.13793 -0.1409,-0.8157 1.33291,-1.48555 2.05901,-1.40934 1.44536,0.0714 2.8572,0.32119 4.14952,0.90996 2.55548,1.32744 4.4468,3.16297 5.24456,5.69608 0.49187,2.75269 0.11395,5.20104 -2.46109,7.10058 -2.14622,0.90851 -4.27876,0.89585 -6.50582,0.12838 -2.48348,-1.11056 -3.87534,-2.87862 -3.8946,-5.34863 0.24217,-2.05379 0.92951,-4.03719 2.22492,-5.79239 0.88418,-1.52363 3.38503,-0.44626 2.50085,1.07737 z"
       inkscape:connector-curvature="0" />
    <path
       style="fill:#000000;fill-opacity:1;fill-rule:nonzero;stroke:none"
       id="path8612"
       d="m 526.50633,217.13418 c 1.13204,2.02951 1.36461,4.27987 1.57437,6.49146 -0.0229,2.7859 -0.36101,5.56091 -0.53856,8.3417 -0.11652,1.89903 -0.15748,3.80051 -0.17906,5.70183 -0.003,0.43207 -0.008,0.8642 -0.003,1.29629 10e-4,0.0269 -0.002,-0.0299 -0.003,-0.0448 -0.93036,-0.0702 -1.86072,-0.14031 -2.79108,-0.21046 0.005,-1.70348 2.80073,-1.69774 2.79602,0.006 l 0,0 c -2.84249,0.39643 -2.75238,1.19508 -2.79808,0.28562 -0.005,-0.45199 -5.6e-4,-0.90401 0.003,-1.356 0.0221,-1.93762 0.0642,-3.87539 0.18316,-5.81067 0.1709,-2.67226 0.47962,-5.33862 0.54347,-8.01466 -0.17745,-1.90355 -0.33813,-3.85217 -1.28832,-5.60869 -0.88418,-1.52363 1.61667,-2.601 2.50085,-1.07737 z"
       inkscape:connector-curvature="0" />
    <path
       style="fill:#000000;fill-opacity:1;fill-rule:nonzero;stroke:none"
       id="path8614"
       d="m 533.95679,215.77467 c 0.56769,2.36315 0.65817,4.78234 0.75654,7.18605 0.10079,3.18172 0.10673,6.36492 0.11191,9.5476 10e-4,1.4872 -9e-5,2.97439 -0.004,4.46158 -3e-4,0.15218 -10e-4,0.30436 -0.002,0.45653 -0.0196,1.7034 -2.8155,1.67951 -2.7959,-0.0239 l 0,0 c 6.7e-4,-0.1461 0.001,-0.29222 0.002,-0.43832 0.004,-1.48417 0.005,-2.96835 0.004,-4.45252 -0.005,-3.15559 -0.0109,-6.3117 -0.11018,-9.46636 -0.0909,-2.2357 -0.16888,-4.48513 -0.67479,-6.68638 -0.47952,-1.65262 2.23303,-2.23691 2.71255,-0.58429 z"
       inkscape:connector-curvature="0" />
    <path
       style="fill:#000000;fill-opacity:1;fill-rule:nonzero;stroke:none"
       id="path8616"
       d="m 542.35052,228.37657 c 0.94161,1.69704 1.29713,3.5532 1.56808,5.40189 0.14165,1.17115 0.2171,2.34738 0.23286,3.52455 0.0156,1.44566 0.13633,0.79779 -2.47411,1.62313 -1.57593,-1.02866 0.11247,-2.94892 1.6884,-1.92027 l 0,0 c -2.41439,1.28629 -1.98279,1.6072 -2.01015,0.32437 -0.0139,-1.08615 -0.0836,-2.17136 -0.21133,-3.25218 -0.22769,-1.57849 -0.50654,-3.16882 -1.2946,-4.62412 -0.88418,-1.52364 1.61667,-2.60101 2.50085,-1.07737 z"
       inkscape:connector-curvature="0" />
    <path
       style="fill:#000000;fill-opacity:1;fill-rule:nonzero;stroke:none"
       id="path8618"
       d="m 540.73012,218.62521 c 1.71795,0.48807 2.9856,1.36123 3.7935,2.74735 0.65383,1.40981 0.58073,2.29074 -0.81699,3.24772 -1.06476,0.40679 -2.05789,0.36099 -3.12924,0.0678 -0.85883,-0.51264 -1.03442,-1.35124 -1.10441,-2.1839 -0.0163,-0.2155 -0.004,-0.43121 -3e-4,-0.64684 0.003,-0.17212 0.005,-0.34425 0.006,-0.51638 1.6e-4,-0.0145 2.2e-4,-0.029 3.4e-4,-0.0434 0.0101,-1.70346 2.80609,-1.69115 2.79599,0.0123 l 0,0 c -1.3e-4,0.0168 -2e-4,0.0336 -3.8e-4,0.0505 -0.002,0.17696 -0.004,0.35392 -0.007,0.53087 -0.003,0.16742 -0.0118,0.29128 -0.006,0.44828 0.0354,0.4948 0.28111,0.61287 -0.32172,0.24538 -1.19543,-0.13252 0.14607,-0.0399 0.40268,-0.0678 -0.44657,0.49481 0.0183,0.80217 -0.35958,-0.13684 -0.30757,-0.75781 -1.11538,-1.11275 -1.93186,-1.41772 -1.91807,-0.41316 -1.23993,-2.75031 0.67814,-2.33716 z"
       inkscape:connector-curvature="0" />
    <path
       style="fill:#000000;fill-opacity:1;fill-rule:nonzero;stroke:none"
       id="path8620"
       d="m 553.77828,222.64035 c 0.95422,0.20554 1.90845,0.41108 2.86268,0.61662 0.14806,0.0319 0.29612,0.0638 0.44418,0.0957 -0.47649,2.62464 0.0652,2.3644 -1.69717,2.36536 -0.94323,-0.17117 -1.82169,-0.49626 -2.75994,-0.68837 -0.34665,-0.15192 -1.71555,-0.0231 -0.40154,-0.18596 0.52828,-0.45465 -0.89876,1.22857 -0.98796,1.3611 -0.37637,0.66486 -0.48632,1.38618 -0.55358,2.1137 -0.0371,0.58498 0.0735,0.34014 0.48871,0.41222 1.41732,0.17109 2.81165,0.4803 4.17475,0.85334 1.6669,0.61048 3.04099,1.48283 3.99693,2.81237 0.72199,1.22354 0.67698,2.46407 0.37448,3.77467 -0.55459,1.67538 -1.70862,2.87706 -3.38726,3.8057 -2.3022,1.0876 -4.37488,0.36746 -6.27862,-0.92303 -1.08138,-0.87146 -1.77931,-1.91452 -2.11082,-3.14761 -0.0843,-0.42655 -0.0498,-0.20046 -0.0965,-0.67904 -0.13941,-1.69925 2.64966,-1.86911 2.78907,-0.16988 l 0,0 c 0.01,0.21366 -0.002,0.10584 0.0361,0.32337 0.16929,0.69681 0.5434,1.2731 1.12602,1.79008 0.94508,0.66254 1.82884,1.30382 3.06741,0.75541 1.05852,-0.52189 1.70934,-1.23779 2.11403,-2.23258 0.17024,-0.7101 0.30265,-1.35729 -0.0304,-2.05597 -0.55959,-0.84937 -1.45642,-1.33331 -2.46125,-1.7614 -1.37088,-0.39154 -2.78454,-0.64127 -4.20281,-0.86131 -1.51113,-0.49246 -2.57127,-1.40005 -2.38661,-2.893 0.10559,-1.08677 0.32392,-2.15683 0.92587,-3.13199 0.54929,-0.80583 1.16146,-1.60473 1.98415,-2.22232 0.89617,-0.24043 1.56507,-0.3203 2.4692,-0.0811 0.6749,0.13942 1.72118,0.34829 2.10877,0.62249 1.77572,-0.001 1.37809,-0.28838 1.02078,2.38087 -0.14807,-0.0319 -0.29613,-0.0638 -0.44419,-0.0957 -0.95422,-0.20554 -1.90845,-0.41109 -2.86268,-0.61663 -1.91806,-0.41315 -1.23992,-2.75031 0.67814,-2.33715 z"
       inkscape:connector-curvature="0" />
    <path
       style="fill:#000000;fill-opacity:1;fill-rule:nonzero;stroke:none"
       id="path8622"
       d="m 565.6508,225.96748 c 0.9096,1.65839 1.302,3.46109 1.56802,5.2665 0.19153,1.56278 0.22045,3.13556 0.23297,4.70558 0.002,0.475 0.001,0.95004 -0.009,1.42497 2.5e-4,0.0551 -0.007,0.10974 -0.0114,0.16458 -0.22063,1.69284 -2.9992,1.42401 -2.77857,-0.26883 l 0,0 c -0.002,0.0164 -0.006,0.0657 -0.005,0.0492 0.01,-0.45111 0.01,-0.90233 0.008,-1.35351 -0.0116,-1.47515 -0.0364,-2.95287 -0.21121,-4.42162 -0.22144,-1.53572 -0.53651,-3.07307 -1.29465,-4.48952 -0.88419,-1.52363 1.61666,-2.60101 2.50084,-1.07737 z"
       inkscape:connector-curvature="0" />
    <path
       style="fill:#000000;fill-opacity:1;fill-rule:nonzero;stroke:none"
       id="path8624"
       d="m 565.6508,217.13418 c 0.71352,1.14623 1.09353,2.36167 0.46737,3.58211 -1.18316,1.32498 -2.52611,1.17756 -3.72156,-0.008 -0.42684,-0.65012 -0.50895,-1.38388 -0.5523,-2.11421 0.27336,-1.38878 1.5014,-1.6372 2.91066,-1.7054 0.42181,-0.0161 0.84404,-0.0177 1.26601,-0.008 0.0618,5.7e-4 0.12314,0.007 0.18463,0.0111 1.96513,0.18713 1.65797,2.58164 -0.30715,2.3945 l 0,0 c 0.008,5.8e-4 0.0338,0.002 0.0254,0.002 -0.33968,-0.008 -0.67959,-0.005 -1.01916,0.006 -1.20649,0.0522 -0.28948,0.084 -0.26772,-0.8195 0.0174,0.31521 0.033,0.63414 0.11914,0.94083 -0.46146,-0.25591 -0.87224,-0.26752 -1.09236,0.14639 2e-4,0.0819 0.0582,0.32195 0.0612,0.24006 0.0203,-0.54692 -0.30549,-1.12253 -0.57497,-1.59095 -0.88419,-1.52364 1.61666,-2.60101 2.50084,-1.07738 z"
       inkscape:connector-curvature="0" />
    <path
       style="fill:#000000;fill-opacity:1;fill-rule:nonzero;stroke:none"
       id="path8626"
       d="m 576.01564,229.67094 c -1.14641,0.9151 -1.48084,2.29301 -1.76359,3.56549 -0.25776,1.27558 -0.13665,2.56679 0.87243,3.56742 1.00298,0.66524 2.34078,0.93363 3.59031,0.83895 1.27618,-0.35545 1.7811,-1.38069 2.16174,-2.39407 0.46968,-1.45678 0.15819,-2.9662 -0.53772,-4.32869 -0.39425,-0.9197 -0.94944,-1.55528 -2.01218,-1.86211 -0.83785,-0.19005 -1.65633,-0.0149 -2.41856,0.31672 -0.42667,0.19108 -0.82936,0.4174 -1.22029,0.65766 -1.61271,0.98543 -3.23016,-0.97966 -1.61745,-1.96508 l 0,0 c 0.5376,-0.32709 1.09121,-0.63523 1.68264,-0.88647 1.45889,-0.54013 2.97631,-0.823 4.53446,-0.38522 1.78434,0.58813 2.94564,1.64927 3.63223,3.19771 0.90273,1.93539 1.32106,3.99232 0.60282,6.03416 -0.81462,1.98304 -2.1198,3.6298 -4.68285,4.02207 -2.18951,0.0423 -4.32765,-0.38915 -5.92156,-1.76589 -1.40271,-1.64118 -1.86241,-3.49001 -1.40996,-5.50999 0.40348,-1.74443 0.96686,-3.5495 2.53043,-4.80614 1.39802,-1.20454 3.37511,0.49894 1.9771,1.70348 z"
       inkscape:connector-curvature="0" />
    <path
       style="fill:#000000;fill-opacity:1;fill-rule:nonzero;stroke:none"
       id="path8628"
       d="m 587.94369,228.30434 c 0.0668,2.24891 0.46462,4.48416 0.67106,6.72859 0.13592,1.6123 0.21677,3.22748 0.25894,4.84348 0.005,0.27217 0.0144,0.54447 0.003,0.81656 -0.93185,-0.12274 -1.90968,-0.0906 -2.79556,-0.36824 -0.16362,-0.0513 0.23298,-3.60064 0.27665,-3.86933 0.26147,-2.00449 1.00093,-3.92546 1.91632,-5.77166 0.50511,-1.15846 1.53047,-2.03367 2.31434,-3.04571 0.60314,-0.62973 1.36443,-0.97289 2.27578,-1.11193 0.5419,-0.0354 1.08616,-0.0199 1.62896,-0.0119 0.80006,-0.24007 2.13441,1.76422 1.61571,0.6634 0.71826,1.02337 1.06584,2.24657 1.43051,3.39818 0.63943,1.74841 1.22968,3.51506 1.77159,5.28907 0.34334,1.03366 0.39542,2.54119 1.62131,3.11667 1.1791,0.34478 2.4559,0.38572 3.69221,0.41779 1.97615,0.0527 1.88968,2.46062 -0.0865,2.40794 l 0,0 c -1.78265,-0.0486 -3.6333,-0.1266 -5.23604,-0.86854 -1.67527,-1.13038 -2.33564,-2.68231 -2.69539,-4.46207 -0.53753,-1.76866 -1.12782,-3.52857 -1.76601,-5.27107 -0.25929,-0.83207 -0.59319,-1.6439 -0.86526,-2.47092 -1.35616,-1.90788 1.93417,0.51317 0.46985,0.18828 -0.41764,-0.006 -0.83563,-0.0149 -1.25325,-0.005 -0.0928,0.0211 -0.18696,0.0376 -0.27964,0.0591 -0.69265,0.89005 -1.59039,1.65938 -2.07002,2.65862 -0.82934,1.64493 -1.48294,3.36501 -1.71572,5.15462 -0.13224,0.80654 -0.25211,1.5667 -0.25153,2.38086 1.6e-4,0.21292 3.2e-4,0.42584 6.7e-4,0.63876 3e-4,0.16581 0.18553,0.44932 10e-4,0.49742 -0.89434,0.23358 -1.86048,0.15406 -2.79072,0.23108 -6.7e-4,-0.20287 -0.004,-0.40575 -0.008,-0.6086 -0.0408,-1.57061 -0.11929,-3.14042 -0.25093,-4.70747 -0.21161,-2.30756 -0.62479,-4.60512 -0.67977,-6.91863 0,-1.70348 2.79604,-1.70348 2.79604,0 z"
       inkscape:connector-curvature="0" />
    <path
       style="fill:#000000;fill-opacity:1;fill-rule:nonzero;stroke:none"
       id="path8656"
       d="m 438.51895,183.11467 c 2.31269,5.20066 2.81648,10.95876 3.32783,16.56129 0.3835,5.81573 0.91311,11.81583 -0.80081,17.48949 -0.34003,1.12562 -0.8325,2.19945 -1.24876,3.29917 -2.48608,5.95401 -6.51549,10.91571 -11.22453,15.23728 -2.06286,2.03972 -4.28693,3.92135 -6.67314,5.57246 -0.15601,0.12023 -0.31203,0.24046 -0.46805,0.36069 -0.78134,0.60028 -1.63026,-0.50471 -0.84892,-1.10498 l 0,0 c 0.17484,-0.13395 0.34967,-0.26791 0.5245,-0.40186 2.33502,-1.61319 4.50658,-3.45854 6.52386,-5.45333 4.5524,-4.17087 8.4546,-8.95709 10.864,-14.70597 0.39769,-1.03859 0.86775,-2.05228 1.19306,-3.11576 1.6903,-5.52598 1.13314,-11.38433 0.7711,-17.05073 -0.49756,-5.46823 -0.97487,-11.09454 -3.23392,-16.17024 -0.36593,-0.91483 0.92784,-1.43234 1.29378,-0.51751 z"
       inkscape:connector-curvature="0" />
    <path
       style="fill:#000000;fill-opacity:1;fill-rule:nonzero;stroke:none"
       id="path8658"
       d="m 533.97555,244.82949 c -1.33487,2.35169 -2.47151,4.79588 -3.52849,7.2845 -0.98257,2.23895 -2.00541,4.43409 -2.59467,6.81646 -0.81891,2.07216 -1.19882,4.26403 -1.78964,6.39773 -0.74408,2.33819 -1.07931,4.76826 -1.29446,7.20378 -0.0221,0.32164 -0.0443,0.64328 -0.0664,0.96492 -0.0678,0.98297 -1.45789,0.88716 -1.39014,-0.0958 l 0,0 c 0.0228,-0.33072 0.0457,-0.66145 0.0685,-0.99217 0.22427,-2.52036 0.57277,-5.03509 1.34035,-7.45546 0.59677,-2.11766 0.9549,-4.30357 1.77963,-6.35981 0.61463,-2.45126 1.64352,-4.72215 2.66439,-7.02473 1.0695,-2.51412 2.21655,-4.98577 3.56455,-7.36257 0.44064,-0.88128 1.68697,-0.25812 1.24633,0.62317 z"
       inkscape:connector-curvature="0" />
  </g>
</svg>
