<?xml version="1.0" encoding="UTF-8" standalone="no"?>
<!-- Created with Inkscape (http://www.inkscape.org/) -->

<svg
   xmlns:dc="http://purl.org/dc/elements/1.1/"
   xmlns:cc="http://creativecommons.org/ns#"
   xmlns:rdf="http://www.w3.org/1999/02/22-rdf-syntax-ns#"
   xmlns:svg="http://www.w3.org/2000/svg"
   xmlns="http://www.w3.org/2000/svg"
   xmlns:sodipodi="http://sodipodi.sourceforge.net/DTD/sodipodi-0.dtd"
   xmlns:inkscape="http://www.inkscape.org/namespaces/inkscape"
   width="431.29044"
   height="311.9472"
   id="svg25017"
   version="1.1"
   inkscape:version="0.48.0 r9654"
   sodipodi:docname="ObjectiveFunction.pdf">
  <defs
     id="defs25019" />
  <sodipodi:namedview
     inkscape:document-units="mm"
     pagecolor="#ffffff"
     bordercolor="#666666"
     borderopacity="1.0"
     inkscape:pageopacity="0.0"
     inkscape:pageshadow="2"
     inkscape:zoom="0.7176508"
     inkscape:cx="205.16991"
     inkscape:cy="7.2297988"
     inkscape:current-layer="layer1"
     id="namedview25021"
     showgrid="false"
     fit-margin-top="0"
     fit-margin-left="0"
     fit-margin-right="0"
     fit-margin-bottom="0"
     inkscape:window-width="1280"
     inkscape:window-height="752"
     inkscape:window-x="0"
     inkscape:window-y="0"
     inkscape:window-maximized="0" />
  <metadata
     id="metadata25023">
    <rdf:RDF>
      <cc:Work
         rdf:about="">
        <dc:format>image/svg+xml</dc:format>
        <dc:type
           rdf:resource="http://purl.org/dc/dcmitype/StillImage" />
        <dc:title></dc:title>
      </cc:Work>
    </rdf:RDF>
  </metadata>
  <g
     inkscape:label="Layer 1"
     inkscape:groupmode="layer"
     id="layer1"
     transform="translate(-321.01118,-67.329847)">
    <path
       style="fill:#000000;fill-opacity:1;fill-rule:nonzero;stroke:none"
       id="path25574"
       d="m 576.14309,173.41697 c -0.2452,-0.17981 -0.52236,-0.32038 -0.80171,-0.45168 -0.52292,-0.23583 -1.05867,-0.4454 -1.60157,-0.64027 -0.67662,-0.23909 -1.37041,-0.43252 -2.06969,-0.60859 -0.81448,-0.1642 -1.63684,-0.3017 -2.46463,-0.39753 -0.86077,-0.11093 -1.72797,-0.13276 -2.59576,-0.12399 -0.87668,0.0244 -1.74681,0.11724 -2.61536,0.22151 -0.79649,0.10312 -1.57492,0.28341 -2.34462,0.49145 -0.73763,0.20914 -1.43238,0.51073 -2.11081,0.84171 -0.70082,0.35901 -1.36335,0.77265 -2.00034,1.21748 -0.65589,0.4648 -1.23111,1.00895 -1.8034,1.55402 -0.57725,0.55142 -1.09199,1.15055 -1.58078,1.76693 -0.5102,0.61258 -0.91711,1.28286 -1.30124,1.96414 -0.3813,0.65449 -0.63477,1.35653 -0.86198,2.06436 -0.21112,0.70803 -0.33339,1.4342 -0.41286,2.16308 -0.062,0.73359 -0.007,1.46668 0.071,2.19697 0.0947,0.72224 0.25362,1.43597 0.48611,2.13197 0.23652,0.7294 0.56851,1.43056 0.94893,2.10715 0.40213,0.71473 0.89616,1.38201 1.40283,2.03841 0.5134,0.64263 1.10068,1.2329 1.71126,1.80027 0.6102,0.57688 1.28289,1.09244 1.97265,1.58851 0.72104,0.49982 1.48125,0.95095 2.24688,1.3922 0.7211,0.38858 1.47693,0.7181 2.24528,1.02165 0.70667,0.27585 1.4323,0.51015 2.17561,0.6905 0.6743,0.17548 1.36624,0.26398 2.06327,0.31824 0.68718,0.0461 1.3799,0.0503 2.06815,0.0195 0.62125,-0.0294 1.23541,-0.12741 1.84301,-0.24397 0.60064,-0.11498 1.18665,-0.28495 1.7645,-0.47096 0.5103,-0.16777 0.97773,-0.41092 1.42311,-0.68872 0.48536,-0.30294 0.94341,-0.64025 1.37844,-1.00006 0.43342,-0.34757 0.82184,-0.73468 1.19421,-1.13488 0.37937,-0.42369 0.71924,-0.87347 1.05428,-1.32613 0.30683,-0.44797 0.62841,-0.89102 0.87354,-1.37016 0.2506,-0.49755 0.45742,-1.01163 0.66833,-1.52364 0.21028,-0.51245 0.40614,-1.02993 0.59091,-1.55037 0.16876,-0.46257 0.27139,-0.94232 0.37686,-1.41925 0.12139,-0.46615 0.16361,-0.94316 0.21036,-1.41885 0.0481,-0.48996 0.0879,-0.98052 0.12821,-1.47104 0.007,-0.39792 -0.0101,-0.79579 -0.0237,-1.19346 0.006,-0.37194 -0.0531,-0.73898 -0.10867,-1.10634 -0.0582,-0.37612 -0.11864,-0.75194 -0.17877,-1.1278 -0.0872,-0.29928 -0.16951,-0.5997 -0.25344,-0.89973 -0.0914,-0.32661 -0.18277,-0.65321 -0.27416,-0.97981 -0.11557,-0.24616 -0.21581,-0.49807 -0.31682,-0.74938 -0.11574,-0.28963 -0.23049,-0.57957 -0.34537,-0.86947 -0.0559,-0.19184 -0.16335,-0.35469 -0.26773,-0.52709 -0.12878,-0.21053 -0.25931,-0.42019 -0.38961,-0.62995 -0.11538,-0.18569 -0.23079,-0.37137 -0.3462,-0.55705 -0.1205,-0.19062 -0.23892,-0.38188 -0.34796,-0.57806 -0.0976,-0.22743 -0.14131,-0.27396 -0.20174,-0.36333 -0.11273,-0.15008 -0.22803,-0.29857 -0.3429,-0.44732 -0.10679,-0.13816 -0.21364,-0.27629 -0.32049,-0.41443 -0.0924,-0.11944 -0.18478,-0.23888 -0.27716,-0.35831 -0.0797,-0.1031 -0.1595,-0.20621 -0.23925,-0.30931 -0.0688,-0.089 -0.13768,-0.178 -0.20653,-0.267 -0.12078,-0.14436 0.11351,0.1155 0.16349,0.16935 -1.84185,-1.42722 0.38801,-3.78497 2.22987,-2.35775 l 0,0 c 0.15219,0.12386 0.30486,0.2496 0.41547,0.40829 0.0688,0.089 0.13769,0.178 0.20653,0.267 0.0797,0.1031 0.15951,0.20621 0.23925,0.30931 0.0924,0.11945 0.18479,0.23889 0.27719,0.35834 0.10718,0.13859 0.21439,0.27717 0.32154,0.41578 0.13187,0.17077 0.26432,0.3412 0.39298,0.51397 0.16636,0.22939 0.31791,0.46662 0.42798,0.72302 0.08,0.13396 0.16465,0.27401 0.25013,0.40864 0.11554,0.1859 0.23109,0.37179 0.3466,0.55771 0.13681,0.22023 0.27386,0.44034 0.40892,0.66146 0.18827,0.31195 0.36992,0.62813 0.48715,0.96886 0.11316,0.28554 0.22618,0.57112 0.34014,0.85639 0.14031,0.34924 0.29945,0.69238 0.41842,1.04827 0.0914,0.32669 0.18284,0.65339 0.27424,0.98008 0.11309,0.4043 0.23513,0.80716 0.32293,1.21671 0.0614,0.38393 0.12314,0.76782 0.18253,1.15201 0.0716,0.47474 0.13957,0.95057 0.13866,1.43073 0.0173,0.50638 0.04,1.01343 0.0159,1.51994 -0.0416,0.50558 -0.0827,1.01121 -0.1323,1.51621 -0.0579,0.58782 -0.11827,1.17657 -0.26366,1.75318 -0.13125,0.59239 -0.26501,1.18651 -0.47512,1.76095 -0.20137,0.56489 -0.41307,1.12703 -0.64192,1.68331 -0.24715,0.59989 -0.49159,1.20153 -0.79003,1.78256 -0.3281,0.60718 -0.70917,1.18804 -1.11622,1.75468 -0.40545,0.54747 -0.81978,1.08985 -1.28209,1.59985 -0.47176,0.50526 -0.96589,0.99264 -1.51239,1.43323 -0.55711,0.45433 -1.13665,0.88674 -1.75696,1.26925 -0.69096,0.41966 -1.41396,0.7918 -2.20112,1.04487 -0.72152,0.23098 -1.4536,0.43996 -2.20331,0.58269 -0.78958,0.14991 -1.58795,0.2719 -2.39504,0.3075 -0.8399,0.0321 -1.68376,0.0335 -2.52209,-0.0281 -0.90049,-0.0723 -1.79468,-0.19164 -2.66627,-0.41572 -0.90268,-0.22542 -1.78869,-0.50145 -2.6473,-0.84112 -0.9301,-0.36866 -1.84462,-0.77052 -2.71373,-1.24766 -0.86638,-0.49968 -1.72563,-1.01197 -2.5391,-1.58082 -0.80399,-0.57925 -1.5861,-1.18344 -2.2984,-1.85558 -0.73695,-0.68881 -1.44638,-1.40432 -2.06283,-2.18581 -0.59909,-0.77745 -1.17865,-1.57014 -1.65263,-2.41708 -0.46722,-0.84391 -0.88284,-1.71365 -1.17457,-2.62162 -0.28805,-0.88953 -0.50139,-1.79715 -0.61235,-2.71967 -0.0981,-0.93307 -0.15769,-1.87062 -0.069,-2.80697 0.1054,-0.91624 0.25847,-1.82941 0.53253,-2.71822 0.28947,-0.89461 0.62017,-1.7793 1.10033,-2.60736 0.46375,-0.82034 0.96072,-1.62491 1.57154,-2.36486 0.58151,-0.72959 1.19316,-1.43928 1.87863,-2.09224 0.69521,-0.66172 1.40118,-1.31593 2.20015,-1.8772 0.78567,-0.54409 1.59992,-1.05378 2.46535,-1.48966 0.88444,-0.42929 1.79402,-0.81453 2.75562,-1.0825 0.94276,-0.25347 1.89735,-0.47003 2.87277,-0.59363 1.0059,-0.12051 2.01443,-0.22427 3.02983,-0.24823 1.02822,-0.009 2.056,0.0204 3.07588,0.14999 0.98808,0.11876 1.97194,0.27557 2.9416,0.48547 0.81634,0.20657 1.62624,0.43374 2.41583,0.71427 0.65661,0.23702 1.30517,0.49115 1.93625,0.78007 0.43616,0.21074 0.86864,0.43403 1.257,0.71284 1.93967,1.31678 -0.11766,3.79973 -2.05731,2.48295 z"
       inkscape:connector-curvature="0" />
    <path
       style="fill:#000000;fill-opacity:1;fill-rule:nonzero;stroke:none"
       id="path25580"
       d="m 581.54197,163.7711 c -0.16003,-0.19035 -0.32349,-0.37709 -0.51566,-0.54084 -0.32991,-0.27333 -0.71033,-0.48888 -1.09817,-0.68748 -0.64498,-0.32396 -1.33688,-0.55518 -2.03489,-0.76502 -1.05516,-0.29641 -2.13153,-0.52669 -3.21809,-0.70532 -1.3613,-0.22549 -2.74599,-0.28963 -4.12717,-0.30142 -1.59234,-0.0243 -3.17812,0.11909 -4.75737,0.28583 -1.69491,0.1789 -3.35656,0.52571 -4.99352,0.95337 -1.74604,0.45334 -3.42096,1.08678 -5.04063,1.82545 -1.69577,0.77617 -3.23899,1.77792 -4.72566,2.84087 -1.53782,1.10767 -2.87799,2.40425 -4.15525,3.74956 -1.36666,1.42888 -2.47024,3.0293 -3.47954,4.67701 -1.05376,1.75741 -1.85734,3.61642 -2.53942,5.51412 -0.68251,1.93133 -1.07067,3.92849 -1.36556,5.9339 -0.27914,2.02352 -0.38743,4.0591 -0.39255,6.09685 0.0278,1.9557 0.29976,3.89704 0.64512,5.82463 0.34437,1.85878 0.86583,3.68385 1.4943,5.47901 0.61498,1.74657 1.46405,3.41055 2.38202,5.04056 0.89688,1.59574 1.9111,3.1308 2.98108,4.6352 1.05119,1.44225 2.26011,2.78017 3.51668,4.07788 1.22999,1.25199 2.54169,2.43392 3.88212,3.58815 1.25458,1.08475 2.6354,2.03778 4.03969,2.95604 1.35993,0.87315 2.79852,1.63173 4.26797,2.34123 1.40892,0.65764 2.88907,1.17568 4.39264,1.62441 1.429,0.44504 2.90973,0.71572 4.40008,0.92346 1.42742,0.17858 2.86815,0.22786 4.30708,0.19157 1.37526,-0.0184 2.73456,-0.19366 4.07855,-0.44589 1.29276,-0.22536 2.54023,-0.60116 3.76071,-1.04096 1.18521,-0.43808 2.31169,-0.98538 3.40664,-1.58264 1.08005,-0.59816 2.09164,-1.28404 3.05553,-2.02526 0.96452,-0.75136 1.81785,-1.606 2.63131,-2.48883 0.89201,-0.93159 1.71056,-1.91676 2.50209,-2.91907 0.77223,-1.01806 1.4828,-2.07275 2.11848,-3.16522 0.62983,-1.10668 1.19828,-2.24079 1.74918,-3.38108 0.55154,-1.09038 0.98498,-2.22348 1.41072,-3.35761 0.42101,-1.09481 0.76963,-2.20916 1.0994,-3.32867 0.3164,-1.03975 0.56095,-2.09547 0.74925,-3.16001 0.18606,-1.03897 0.30141,-2.08546 0.39868,-3.1337 0.0912,-0.98895 0.1732,-1.97792 0.20818,-2.96985 0.0376,-0.93163 -0.003,-1.86368 -0.072,-2.79318 -0.0686,-0.91981 -0.20622,-1.83411 -0.33329,-2.74844 -0.10018,-0.84948 -0.26061,-1.69099 -0.42238,-2.53218 -0.16459,-0.77734 -0.37951,-1.54393 -0.60434,-2.30837 -0.2543,-0.74267 -0.49412,-1.49009 -0.7788,-2.22383 -0.29004,-0.71434 -0.57377,-1.43078 -0.85846,-2.14688 -0.2381,-0.63727 -0.51315,-1.26129 -0.792,-1.88452 -0.28019,-0.58706 -0.61395,-1.15118 -0.94178,-1.71713 -0.30368,-0.55684 -0.65205,-1.09053 -0.9967,-1.62679 -0.33404,-0.5098 -0.63528,-1.03725 -0.98113,-1.54061 -0.29862,-0.42684 -0.60602,-0.84782 -0.94246,-1.25096 -0.31448,-0.39505 -0.67179,-0.75788 -1.01858,-1.12908 -0.35608,-0.38875 -0.7058,-0.78222 -1.05633,-1.17506 -0.26978,-0.32441 -0.57926,-0.61765 -0.88726,-0.91187 -0.30234,-0.28744 -0.60593,-0.5738 -0.90936,-0.86029 -0.26418,-0.24941 -0.52839,-0.49881 -0.7926,-0.74821 -0.28198,-0.21555 -0.54583,-0.44825 -0.80375,-0.68698 -0.24906,-0.23295 -0.49595,-0.4678 -0.74311,-0.70242 -0.20996,-0.19933 -0.41989,-0.39871 -0.62982,-0.59808 -0.13628,-0.14772 -0.30303,-0.26318 -0.46696,-0.38407 -0.19975,-0.14631 -0.40041,-0.29159 -0.60095,-0.437 -0.17675,-0.12813 -0.35351,-0.25625 -0.53026,-0.38437 -0.15266,-0.11064 -0.30531,-0.22129 -0.45796,-0.33194 -0.13177,-0.0955 -0.26354,-0.19102 -0.39532,-0.28653 -0.11375,-0.0824 -0.22749,-0.16489 -0.34124,-0.24733 -0.0982,-0.0711 -0.19637,-0.14234 -0.29456,-0.2135 -0.0848,-0.0614 -0.1695,-0.12286 -0.25426,-0.18429 -0.0732,-0.053 -0.14632,-0.10605 -0.21948,-0.15909 -0.0632,-0.0458 -0.12631,-0.0915 -0.18946,-0.13732 -0.0545,-0.0395 -0.10903,-0.079 -0.16354,-0.11853 -0.0471,-0.0341 -0.0941,-0.0682 -0.14116,-0.10232 -0.0406,-0.0295 -0.0812,-0.0589 -0.12187,-0.0883 -0.035,-0.0254 -0.0701,-0.0508 -0.10518,-0.0762 -0.0303,-0.0219 -0.0605,-0.0439 -0.0908,-0.0658 -0.005,-0.004 -0.009,-0.007 -0.0139,-0.01 -1.89258,-1.37177 0.25064,-3.79446 2.14322,-2.42269 l 0,0 c 0.005,0.004 0.009,0.007 0.0139,0.0101 0.0303,0.022 0.0605,0.0439 0.0908,0.0658 0.035,0.0254 0.0701,0.0509 0.10519,0.0763 0.0406,0.0294 0.0812,0.0589 0.12186,0.0883 0.0471,0.0341 0.0941,0.0682 0.14116,0.10232 0.0546,0.0395 0.10903,0.079 0.16354,0.11854 0.0632,0.0458 0.12631,0.0915 0.18946,0.13731 0.0732,0.053 0.14632,0.10606 0.21948,0.15909 0.0848,0.0614 0.16951,0.12286 0.25427,0.18429 0.0982,0.0711 0.19636,0.14233 0.29456,0.2135 0.11374,0.0824 0.22748,0.16489 0.34123,0.24734 0.13178,0.0955 0.26355,0.19102 0.39532,0.28653 0.15265,0.11064 0.30531,0.22129 0.45797,0.33194 0.17692,0.12824 0.35384,0.25647 0.53074,0.38472 0.20831,0.15104 0.41674,0.30193 0.62415,0.45397 0.27412,0.20247 0.54654,0.40797 0.78212,0.64809 0.20973,0.19918 0.41946,0.39837 0.62923,0.59752 0.23765,0.22559 0.47505,0.45139 0.7144,0.6755 0.26534,0.24619 0.5476,0.47353 0.82588,0.70767 0.26429,0.24949 0.5286,0.49897 0.79288,0.74848 0.30812,0.29092 0.61639,0.58169 0.92336,0.87359 0.36995,0.35354 0.73854,0.70883 1.06556,1.09629 0.33522,0.37569 0.66972,0.75193 1.00979,1.12404 0.38604,0.41559 0.78444,0.82172 1.13621,1.26257 0.39975,0.48125 0.76942,0.98111 1.12337,1.49091 0.35706,0.52817 0.68216,1.07315 1.02598,1.60841 0.36937,0.57552 0.74189,1.14892 1.06917,1.74555 0.37984,0.65581 0.7645,1.31056 1.08313,1.99329 0.2957,0.66095 0.58645,1.32324 0.84018,1.99862 0.28844,0.72553 0.57616,1.4513 0.86956,2.1752 0.31012,0.80855 0.58149,1.62891 0.85488,2.44813 0.25052,0.85222 0.48814,1.70742 0.66891,2.57444 0.17097,0.88928 0.33907,1.77916 0.44635,2.677 0.13539,0.97423 0.28049,1.94852 0.35245,2.92867 0.076,1.03175 0.11937,2.06628 0.0779,3.10031 -0.0376,1.04532 -0.12159,2.08771 -0.21846,3.12985 -0.10473,1.12684 -0.23062,2.25173 -0.43049,3.36858 -0.20969,1.16672 -0.47339,2.32501 -0.82118,3.46495 -0.34965,1.18642 -0.72063,2.36713 -1.16598,3.52762 -0.45711,1.21712 -0.92558,2.43209 -1.51582,3.60287 -0.58515,1.21018 -1.18903,2.41377 -1.85925,3.58767 -0.7112,1.21383 -1.49659,2.39034 -2.36101,3.52036 -0.84224,1.06502 -1.71226,2.11247 -2.6597,3.10346 -0.94117,1.01786 -1.92984,2.00176 -3.0459,2.86669 -1.10699,0.84707 -2.26612,1.63417 -3.50564,2.3174 -1.25683,0.68232 -2.5493,1.30872 -3.90951,1.80777 -1.40711,0.50309 -2.8443,0.93513 -4.33287,1.19563 -1.54249,0.28573 -3.10209,0.4866 -4.67954,0.50858 -1.64496,0.0374 -3.292,-0.0173 -4.92311,-0.22718 -1.67701,-0.23694 -3.34316,-0.54371 -4.95182,-1.04393 -1.68778,-0.50726 -3.35014,-1.0895 -4.93026,-1.83305 -1.6055,-0.77656 -3.17688,-1.60792 -4.66196,-2.56391 -1.52831,-1.00085 -3.02923,-2.04129 -4.39464,-3.22301 -1.41513,-1.21958 -2.79997,-2.46839 -4.09782,-3.79166 -1.36634,-1.41343 -2.67977,-2.87137 -3.82057,-4.4431 -1.13168,-1.59256 -2.20423,-3.21778 -3.1533,-4.90662 -1.00153,-1.78288 -1.92561,-3.60364 -2.59587,-5.51354 -0.67538,-1.93979 -1.24073,-3.91037 -1.60964,-5.91853 -0.37336,-2.09439 -0.66468,-4.20392 -0.6891,-6.32867 0.007,-2.17241 0.12268,-4.34268 0.42277,-6.49968 0.3251,-2.19221 0.75487,-4.37471 1.50441,-6.48522 0.75342,-2.08522 1.63946,-4.12852 2.80176,-6.05869 1.12514,-1.83025 2.35794,-3.6063 3.87774,-5.19407 1.42248,-1.49498 2.91924,-2.93235 4.63117,-4.16234 1.67039,-1.19075 3.40677,-2.30918 5.31101,-3.17783 1.81125,-0.81995 3.68008,-1.53033 5.63079,-2.03425 1.81832,-0.47193 3.6634,-0.85639 5.54536,-1.05353 1.72285,-0.18075 3.4528,-0.33325 5.18969,-0.30642 1.57654,0.0165 3.15637,0.0926 4.70986,0.35224 1.24445,0.20857 2.47897,0.46854 3.68637,0.8145 0.91139,0.2773 1.81284,0.58663 2.65253,1.01573 0.61605,0.3223 1.21667,0.67401 1.73814,1.11585 0.33418,0.29108 0.63824,0.60506 0.91383,0.94306 1.45474,1.75571 -1.28835,3.61792 -2.7431,1.86222 z"
       inkscape:connector-curvature="0" />
    <path
       style="fill:#000000;fill-opacity:1;fill-rule:nonzero;stroke:none"
       id="path25582"
       d="m 614.42577,185.57595 c 0.0184,-0.2517 -0.0141,-0.49663 -0.0456,-0.74566 -0.0597,-0.41404 -0.13846,-0.82824 -0.23777,-1.23624 -0.13431,-0.57318 -0.2782,-1.1438 -0.45482,-1.7076 -0.22197,-0.75017 -0.4761,-1.49119 -0.74647,-2.22801 -0.33073,-0.86367 -0.72119,-1.70716 -1.12301,-2.54533 -0.42803,-0.93284 -0.96386,-1.81916 -1.48696,-2.7098 -0.59197,-1.00004 -1.24169,-1.97073 -1.87985,-2.94685 -0.69647,-1.03871 -1.39733,-2.07521 -2.1533,-3.07951 -0.76381,-1.05157 -1.60128,-2.05583 -2.45627,-3.04738 -0.87444,-1.02433 -1.81121,-2.00165 -2.76986,-2.96147 -0.97551,-0.98967 -2.02201,-1.91897 -3.10043,-2.81593 -1.10876,-0.91928 -2.24695,-1.80845 -3.42063,-2.65904 -1.19317,-0.84189 -2.40822,-1.65679 -3.65831,-2.42799 -1.25975,-0.78021 -2.58413,-1.46555 -3.92879,-2.11689 -1.4317,-0.6595 -2.86737,-1.31247 -4.31221,-1.94816 -1.38992,-0.60977 -2.79402,-1.19465 -4.22734,-1.71604 -1.40626,-0.50604 -2.84116,-0.94238 -4.27911,-1.36769 -1.42884,-0.39892 -2.88083,-0.72239 -4.34134,-1.00979 -1.4549,-0.29296 -2.92378,-0.51496 -4.39822,-0.70837 -1.47894,-0.17846 -2.96873,-0.26632 -4.459,-0.31599 -1.54636,-0.0511 -3.09422,-0.0376 -4.64038,0.0102 -1.56113,0.0468 -3.11714,0.17795 -4.66632,0.35443 -1.56444,0.16567 -3.10691,0.45664 -4.6454,0.75556 -1.57403,0.3046 -3.10922,0.74593 -4.64239,1.18419 -1.55736,0.45814 -3.08696,0.98686 -4.59599,1.56133 -1.57952,0.57507 -3.1036,1.26045 -4.6071,1.98069 -1.58477,0.76151 -3.10696,1.62219 -4.60702,2.51145 -1.57025,0.94599 -3.04881,2.0064 -4.50632,3.08779 -1.46099,1.07003 -2.84565,2.22108 -4.17899,3.41891 -1.4074,1.25739 -2.6795,2.6315 -3.90527,4.03389 -1.3012,1.47845 -2.50654,3.02192 -3.66837,4.59166 -1.18723,1.59643 -2.27263,3.24948 -3.31451,4.92598 -1.1034,1.78299 -2.09398,3.62045 -3.03839,5.47592 -0.97988,1.92139 -1.83209,3.8919 -2.63899,5.87709 -0.79964,2.06581 -1.49554,4.16369 -2.13462,6.27439 -0.6368,2.11731 -1.16956,4.25788 -1.62534,6.41265 -0.46047,2.1388 -0.77984,4.29812 -1.05601,6.46173 -0.25064,2.11818 -0.39045,4.24548 -0.48713,6.37346 -0.0906,2.08211 -0.086,4.16632 -0.0511,6.2494 0.0419,1.99656 0.23236,3.98746 0.48886,5.96984 0.22778,1.93119 0.61352,3.83984 1.12114,5.72554 0.51914,1.87573 1.21791,3.70417 1.93878,5.52255 0.71498,1.81689 1.57179,3.58239 2.48287,5.32446 0.89073,1.72567 1.97506,3.35719 3.10645,4.96001 1.13304,1.62852 2.4112,3.16407 3.73559,4.66722 1.34406,1.49482 2.76819,2.9286 4.20502,4.35027 1.34617,1.36826 2.84634,2.59516 4.37853,3.78781 1.56347,1.21461 3.21274,2.33257 4.89206,3.41128 1.63043,1.05752 3.32203,2.03287 5.03947,2.96945 1.72357,0.9365 3.51887,1.75722 5.32593,2.5518 1.7716,0.78119 3.56563,1.51896 5.37049,2.23465 1.67725,0.67042 3.4025,1.23471 5.15035,1.73327 1.64388,0.47285 3.33057,0.79973 5.01915,1.10902 1.61597,0.28859 3.2528,0.45979 4.88747,0.63346 1.53107,0.16682 3.07094,0.21387 4.61157,0.20497 1.5392,-0.0144 3.07552,-0.11143 4.60855,-0.23042 1.45734,-0.12959 2.90205,-0.35536 4.33564,-0.62211 1.40317,-0.25654 2.78555,-0.59575 4.15687,-0.96535 1.35062,-0.34973 2.66167,-0.80756 3.95436,-1.30217 1.28132,-0.50595 2.5308,-1.07508 3.77144,-1.65735 1.2125,-0.56074 2.37301,-1.20229 3.4995,-1.89295 1.13453,-0.69844 2.21444,-1.46562 3.28012,-2.24679 1.072,-0.78841 2.09787,-1.62781 3.09505,-2.49255 0.9936,-0.88906 1.96947,-1.79357 2.89974,-2.73725 0.95318,-0.92802 1.83452,-1.91225 2.68739,-2.91613 0.82739,-0.96232 1.60124,-1.95992 2.34481,-2.97632 0.72052,-1.02815 1.43243,-2.06124 2.1289,-3.10289 0.67389,-1.00844 1.29132,-2.04583 1.88417,-3.09471 0.5775,-1.02716 1.11744,-2.07114 1.64562,-3.11967 0.49873,-0.98675 0.96767,-1.98551 1.42475,-2.98855 0.43716,-0.96667 0.83457,-1.94724 1.22077,-2.93134 0.38432,-0.988 0.79896,-1.96595 1.18592,-2.95314 0.37772,-0.97763 0.7173,-1.96664 1.04773,-2.95802 0.31284,-1.01116 0.66605,-2.01133 1.01487,-3.01264 0.33143,-0.95083 0.63371,-1.90952 0.92635,-2.87061 0.28384,-0.9465 0.54599,-1.89807 0.8046,-2.85041 0.25002,-0.92518 0.47489,-1.85559 0.69251,-2.78736 0.21699,-0.93797 0.41083,-1.88008 0.59869,-2.82312 0.18393,-0.93797 0.35302,-1.8782 0.51974,-2.81877 0.15577,-0.87262 0.30806,-1.74572 0.45002,-2.62027 0.13679,-0.85562 0.26435,-1.71246 0.3875,-2.56978 0.11387,-0.80346 0.22526,-1.60721 0.33697,-2.41092 0.1007,-0.74186 0.19702,-1.4842 0.28888,-2.22699 0.0879,-0.70179 0.1701,-1.40412 0.25016,-2.10666 0.0723,-0.64268 0.1468,-1.28515 0.21646,-1.92807 0.0686,-0.62316 0.12838,-1.24706 0.18518,-1.87119 0.0738,-0.59936 0.0733,-1.20205 0.0751,-1.80417 2.1e-4,-0.62565 -0.002,-1.2513 -0.004,-1.87694 -0.002,-0.60767 -0.003,-1.21534 -0.005,-1.823 -0.002,-0.56512 -0.003,-1.13025 -0.004,-1.69537 -0.0292,-0.4993 -0.0799,-0.99734 -0.12776,-1.4954 -0.0467,-0.48273 -0.0939,-0.96542 -0.14102,-1.44811 -0.0408,-0.41758 -0.0816,-0.83517 -0.12237,-1.25275 -0.0397,-0.38987 -0.0733,-0.78021 -0.10709,-1.17052 -0.0305,-0.35482 -0.0609,-0.70965 -0.0913,-1.06448 -0.0263,-0.3065 -0.0525,-0.613 -0.0787,-0.9195 -0.0152,-0.19469 -0.045,-0.5322 -0.0607,-0.64497 -0.002,-0.0138 -0.0132,-0.0254 -0.0198,-0.0381 -0.99541,-2.00116 2.13116,-3.27538 3.12657,-1.27421 l 0,0 c 0.11409,0.25207 0.22976,0.50243 0.27038,0.77497 0.0514,0.31283 0.0789,0.62689 0.1022,0.94248 0.0263,0.30649 0.0525,0.61297 0.0788,0.91946 0.0303,0.35408 0.0606,0.70817 0.0911,1.06225 0.0328,0.37987 0.0655,0.75977 0.10421,1.1392 0.0408,0.41761 0.0816,0.83523 0.12238,1.25284 0.0472,0.48419 0.0946,0.96837 0.14146,1.4526 0.0562,0.58507 0.11793,1.17023 0.14063,1.75734 0.002,0.56492 0.002,1.12984 0.004,1.69476 0.002,0.60754 0.003,1.21507 0.005,1.8226 0.002,0.63108 0.004,1.26215 0.004,1.89322 -0.002,0.68431 -0.006,1.36929 -0.0866,2.05058 -0.0583,0.64021 -0.11968,1.28019 -0.19,1.91942 -0.0703,0.64804 -0.14528,1.29565 -0.21817,1.94346 -0.081,0.71149 -0.16438,1.42277 -0.25334,2.1335 -0.0936,0.75685 -0.19175,1.51323 -0.29442,2.26912 -0.11231,0.80801 -0.22429,1.61606 -0.33879,2.42382 -0.12566,0.87434 -0.2557,1.7482 -0.39531,2.6208 -0.14424,0.888 -0.29862,1.77458 -0.45687,2.66062 -0.17022,0.9603 -0.34297,1.92025 -0.53087,2.87787 -0.19396,0.97355 -0.39429,1.94609 -0.61842,2.91438 -0.2254,0.96482 -0.45849,1.9282 -0.71748,2.88617 -0.26624,0.9804 -0.53633,1.95998 -0.82875,2.93431 -0.3038,0.99748 -0.61781,1.9924 -0.9618,2.97923 -0.34456,0.98908 -0.69358,1.97695 -1.00232,2.97583 -0.34637,1.03893 -0.70278,2.07526 -1.09907,3.09965 -0.38734,0.98738 -0.80119,1.96589 -1.18625,2.95397 -0.40538,1.0327 -0.82299,2.06157 -1.28204,3.07591 -0.47312,1.038 -0.95859,2.07153 -1.4747,3.09271 -0.54976,1.09112 -1.11201,2.17739 -1.71325,3.24621 -0.63045,1.11413 -1.28665,2.21624 -2.00294,3.2875 -0.72077,1.07784 -1.45712,2.14708 -2.20403,3.21024 -0.78892,1.07692 -1.60878,2.13466 -2.48573,3.15477 -0.90466,1.06332 -1.83826,2.10675 -2.84759,3.09094 -0.99097,1.00311 -2.02712,1.96745 -3.08613,2.91184 -1.06658,0.92307 -2.16194,1.82072 -3.30819,2.66246 -1.14231,0.83696 -2.30077,1.65782 -3.51714,2.4057 -1.238,0.75651 -2.5115,1.46209 -3.8427,2.07762 -1.32098,0.61907 -2.65094,1.22483 -4.01593,1.76116 -1.40948,0.53739 -2.83823,1.03606 -4.30998,1.41754 -1.46684,0.3943 -2.94516,0.75688 -4.44584,1.03091 -1.56457,0.28936 -3.14073,0.53585 -4.73128,0.67395 -1.62387,0.12581 -3.25127,0.22732 -4.88166,0.2417 -1.6807,0.008 -3.36073,-0.0437 -5.03094,-0.22609 -1.72876,-0.18375 -3.45943,-0.36717 -5.16807,-0.67401 -1.80742,-0.33139 -3.61195,-0.68484 -5.37137,-1.19138 -1.86384,-0.53386 -3.70483,-1.13412 -5.49379,-1.85009 -1.84599,-0.73223 -3.68102,-1.48681 -5.49306,-2.28588 -1.89942,-0.83573 -3.78585,-1.69993 -5.59727,-2.68514 -1.79047,-0.97715 -3.5543,-1.99426 -5.25445,-3.09691 -1.76552,-1.13502 -3.49941,-2.31132 -5.14315,-3.58908 -1.63536,-1.27367 -3.23397,-2.58656 -4.67249,-4.0459 -1.48905,-1.47352 -2.96433,-2.96009 -4.35606,-4.51031 -1.39858,-1.58829 -2.747,-3.21185 -3.94454,-4.93177 -1.20801,-1.71358 -2.36396,-3.45876 -3.31591,-5.30289 -0.95797,-1.83361 -1.85866,-3.69193 -2.61093,-5.60395 -0.76127,-1.92178 -1.49693,-3.8548 -2.04317,-5.83757 -0.53799,-2.00899 -0.95236,-4.04138 -1.19494,-6.0983 -0.26863,-2.0865 -0.46899,-4.18176 -0.51164,-6.28309 -0.0357,-2.14138 -0.0398,-4.28391 0.0537,-6.42429 0.1009,-2.20427 0.24566,-4.40785 0.5069,-6.60187 0.28625,-2.23997 0.61812,-4.47539 1.09465,-6.68971 0.4738,-2.23411 1.025,-4.45396 1.68616,-6.64927 0.66578,-2.19521 1.38888,-4.37752 2.22352,-6.52542 0.83877,-2.06191 1.72468,-4.10855 2.74283,-6.10427 0.98371,-1.93088 2.01488,-3.8432 3.16404,-5.69861 1.08592,-1.7466 2.21773,-3.46854 3.45451,-5.13199 1.21293,-1.63757 2.47088,-3.24797 3.82867,-4.79061 1.31238,-1.49862 2.67339,-2.96725 4.17931,-4.31119 1.41158,-1.26526 2.87412,-2.48407 4.41955,-3.61526 1.5522,-1.15123 3.12851,-2.27817 4.80161,-3.28395 1.58946,-0.94158 3.20278,-1.85218 4.88197,-2.6583 1.5935,-0.76252 3.20889,-1.488 4.88197,-2.09848 1.60627,-0.61045 3.23396,-1.17345 4.89179,-1.65963 1.63615,-0.46765 3.27545,-0.93512 4.95539,-1.25914 1.63545,-0.31765 3.27565,-0.62399 4.9385,-0.80057 1.65258,-0.18677 3.31204,-0.32764 4.97725,-0.37676 1.62736,-0.0491 3.25641,-0.0642 4.88395,-0.01 1.61202,0.0553 3.22357,0.15006 4.82306,0.34597 1.55379,0.20412 3.10174,0.43889 4.63508,0.74719 1.57391,0.31023 3.13865,0.65977 4.67764,1.09242 1.51076,0.4471 3.01805,0.90644 4.49522,1.43898 1.50604,0.55049 2.98454,1.16064 4.44515,1.80355 1.48499,0.65361 2.96099,1.3242 4.43182,2.00344 1.4519,0.70435 2.88156,1.44601 4.24208,2.28888 1.3221,0.81687 2.60901,1.67776 3.87034,2.57001 1.23367,0.89549 2.43217,1.82921 3.59775,2.79672 1.15499,0.9625 2.27725,1.95815 3.32293,3.01909 1.01397,1.01564 2.00426,2.05026 2.9297,3.1337 0.90012,1.04507 1.7823,2.10322 2.58773,3.21062 0.79488,1.05921 1.5372,2.14905 2.26915,3.24463 0.6647,1.01684 1.34082,2.02834 1.95655,3.07053 0.56575,0.9633 1.1415,1.92356 1.60525,2.93209 0.44144,0.92235 0.87005,1.8507 1.23121,2.80173 0.28699,0.78229 0.55654,1.56916 0.79299,2.36537 0.19412,0.62796 0.35946,1.26192 0.50741,1.90009 0.11727,0.50671 0.22141,1.01775 0.29117,1.53159 0.0462,0.36519 0.0836,0.73058 0.0678,1.09867 0,2.19464 -3.42887,2.19464 -3.42887,0 z"
       inkscape:connector-curvature="0" />
    <path
       style="fill:#000000;fill-opacity:1;fill-rule:nonzero;stroke:none"
       id="path25584"
       d="m 622.75454,228.22959 c 0.17324,-0.25163 0.30906,-0.52181 0.452,-0.78803 0.27361,-0.5275 0.45719,-1.08989 0.63537,-1.6486 0.30953,-0.98257 0.5122,-1.98844 0.70823,-2.99348 0.25622,-1.3596 0.45239,-2.72761 0.6377,-4.09636 0.21606,-1.61458 0.39144,-3.23327 0.55663,-4.85266 0.18094,-1.7876 0.33529,-3.57725 0.48269,-5.36733 0.17849,-1.90546 0.2594,-3.8156 0.2997,-5.72697 0.019,-1.993 -0.0255,-3.98558 -0.12613,-5.9764 -0.0927,-2.00662 -0.31467,-4.00575 -0.59214,-5.99757 -0.30538,-2.03221 -0.69499,-4.05285 -1.14487,-6.06263 -0.43988,-1.96655 -0.96081,-3.91647 -1.55437,-5.84935 -0.60939,-1.90856 -1.30943,-3.7915 -2.02939,-5.66774 -0.7286,-1.87395 -1.52763,-3.7242 -2.3453,-5.56748 -0.8019,-1.78562 -1.66089,-3.54966 -2.57919,-5.28862 -0.93048,-1.71697 -1.88631,-3.42273 -2.90445,-5.09855 -0.98681,-1.62753 -2.01604,-3.23339 -3.07604,-4.82261 -1.01146,-1.54209 -2.14547,-3.01277 -3.30968,-4.46233 -1.20809,-1.45195 -2.52034,-2.8289 -3.82548,-4.20916 -1.26676,-1.31495 -2.56029,-2.60908 -3.88931,-3.8727 -1.32137,-1.24858 -2.77087,-2.37109 -4.27796,-3.42986 -1.62768,-1.12813 -3.32655,-2.16596 -5.06517,-3.14769 -1.83287,-1.01337 -3.72385,-1.93806 -5.63099,-2.8309 -2.00491,-0.93646 -4.07338,-1.75301 -6.15965,-2.52753 -2.19982,-0.80805 -4.43883,-1.52457 -6.69915,-2.1802 -2.31985,-0.64503 -4.65975,-1.23062 -7.01479,-1.76052 -2.31561,-0.51907 -4.65556,-0.94226 -7.00658,-1.30562 -2.35061,-0.3675 -4.72424,-0.58512 -7.09748,-0.78927 -2.3481,-0.19651 -4.70427,-0.27565 -7.0609,-0.32042 -2.3545,-0.0347 -4.70786,0.0761 -7.05431,0.24195 -2.35126,0.1935 -4.69409,0.46319 -7.03033,0.76975 -2.19109,0.2648 -4.35529,0.66997 -6.50302,1.13803 -2.16589,0.4897 -4.2975,1.09389 -6.41419,1.73367 -2.09281,0.61514 -4.13716,1.35087 -6.16169,2.12834 -2.06904,0.83002 -4.08395,1.76544 -6.08141,2.72694 -1.96354,0.93761 -3.84615,2.00302 -5.70404,3.10048 -1.83061,1.09539 -3.56536,2.31636 -5.25324,3.58389 -1.78813,1.33612 -3.44946,2.8018 -5.07931,4.29221 -1.72354,1.58169 -3.31939,3.27093 -4.88917,4.97702 -1.6162,1.7567 -3.12179,3.59163 -4.55657,5.47195 -1.46626,1.98021 -2.81176,4.03079 -4.10108,6.10855 -1.36696,2.17733 -2.59797,4.41917 -3.75685,6.69215 -1.22517,2.4539 -2.27475,4.97451 -3.26324,7.51296 -1.08105,2.75229 -1.93386,5.56936 -2.70718,8.40319 -0.79327,2.9845 -1.33323,6.01715 -1.78944,9.05683 -0.45844,3.07479 -0.73275,6.16864 -0.92496,9.26539 -0.17547,3.01872 -0.18875,6.04066 -0.10052,9.06161 0.0971,2.98436 0.40349,5.95752 0.7851,8.92163 0.39005,2.94731 0.89876,5.8789 1.50079,8.79635 0.58646,2.84062 1.34963,5.64666 2.17065,8.43804 0.82983,2.75169 1.8538,5.44903 2.98064,8.11126 1.12824,2.65776 2.47624,5.23126 3.88202,7.77603 1.36771,2.51392 2.83503,4.98057 4.38394,7.4063 1.52844,2.35882 3.24215,4.61132 5.01271,6.82485 1.75787,2.17268 3.57908,4.3022 5.43761,6.40483 1.78571,2.01881 3.66698,3.96567 5.61872,5.85372 1.90729,1.8559 3.93398,3.60469 5.98131,5.33222 1.95598,1.65979 3.99261,3.23675 6.0604,4.78043 2.00227,1.47559 4.06219,2.88547 6.13431,4.27926 1.99038,1.37234 4.11476,2.56542 6.27793,3.69793 2.11764,1.06409 4.27995,2.05321 6.4468,3.03199 2.00927,0.92908 4.08284,1.73067 6.18527,2.46824 2.02819,0.7004 4.09978,1.29175 6.17044,1.87926 1.89316,0.54298 3.82203,0.96508 5.76282,1.34023 1.82818,0.34322 3.67923,0.56211 5.53379,0.74633 1.72721,0.16381 3.46241,0.21534 5.19778,0.23217 1.71436,0.008 3.42508,-0.0875 5.13296,-0.21139 1.63327,-0.12194 3.25184,-0.3511 4.86175,-0.6231 1.6071,-0.29047 3.18806,-0.6857 4.76064,-1.10019 1.59004,-0.42675 3.14733,-0.93819 4.68308,-1.50297 1.59179,-0.56142 3.12605,-1.24249 4.65006,-1.93818 1.51451,-0.7017 2.96093,-1.51405 4.38571,-2.35343 1.43825,-0.87471 2.83551,-1.80306 4.18706,-2.78427 1.37314,-0.99498 2.66654,-2.07358 3.93648,-3.17366 1.29444,-1.12839 2.49433,-2.34044 3.6835,-3.55867 1.17998,-1.21584 2.27164,-2.49842 3.35456,-3.78516 1.09835,-1.29444 2.11363,-2.64241 3.13303,-3.98776 1.00655,-1.32499 1.96161,-2.68074 2.87247,-4.06106 0.8851,-1.35973 1.72671,-2.74232 2.57285,-4.12214 0.80227,-1.31627 1.56912,-2.64974 2.30101,-3.99911 0.69515,-1.28941 1.35188,-2.5954 1.99688,-3.90586 0.59835,-1.22845 1.16522,-2.46898 1.72622,-3.71168 0.51277,-1.12459 1.00947,-2.25496 1.49821,-3.38826 0.4491,-1.05331 0.87072,-2.11599 1.27909,-3.18272 0.38864,-1.00994 0.74978,-2.02822 1.11166,-3.04619 0.33171,-0.93387 0.65041,-1.87159 0.9584,-2.81208 0.28835,-0.8771 0.56051,-1.75834 0.82751,-2.64092 0.24344,-0.80426 0.48574,-1.60875 0.71671,-2.41601 0.21527,-0.74324 0.41837,-1.4892 0.61656,-2.23629 0.18171,-0.68429 0.36234,-1.36878 0.53304,-2.05539 0.18591,-0.67198 0.40707,-1.33543 0.6237,-1.99967 0.1817,-0.57692 0.35517,-1.15592 0.52975,-1.73462 0.16266,-0.53404 0.30831,-1.0722 0.45649,-1.60965 0.1397,-0.49274 0.26927,-0.98764 0.39412,-1.48362 0.11721,-0.46464 0.23322,-0.92948 0.34016,-1.39615 0.10473,-0.48828 0.21358,-0.97442 0.36454,-1.45287 0.13464,-0.42512 0.26848,-0.85044 0.40243,-1.27573 0.11838,-0.37591 0.23676,-0.75183 0.35513,-1.12773 0.10177,-0.34602 0.19624,-0.69374 0.2917,-1.04121 0.0915,-0.33352 0.17321,-0.66934 0.24796,-1.00624 0.046,-0.23211 0.0996,-0.46292 0.11539,-0.69857 0.21465,-2.18602 3.63005,-1.91124 3.4154,0.27478 l 0,0 c -0.0385,0.34871 -0.0901,0.69465 -0.16972,1.03794 -0.0855,0.38197 -0.17734,0.76298 -0.28152,1.14117 -0.10483,0.3815 -0.2083,0.76338 -0.32168,1.14289 -0.11839,0.37597 -0.23678,0.75193 -0.35518,1.12789 -0.1348,0.42799 -0.26948,0.856 -0.40499,1.2838 -0.1296,0.40229 -0.20904,0.81426 -0.30212,1.22454 -0.11157,0.48635 -0.23206,0.97089 -0.35435,1.45512 -0.13009,0.51666 -0.26509,1.0322 -0.41045,1.54554 -0.15427,0.55952 -0.30616,1.1197 -0.47555,1.67567 -0.18074,0.59914 -0.36028,1.19862 -0.54895,1.79578 -0.19539,0.59911 -0.39426,1.19757 -0.56708,1.80243 -0.17434,0.70103 -0.35854,1.39995 -0.54413,2.09861 -0.20296,0.76497 -0.41099,1.52877 -0.63133,2.28982 -0.23499,0.8211 -0.48123,1.63945 -0.72892,2.45749 -0.27335,0.90352 -0.55209,1.80565 -0.84724,2.70358 -0.31569,0.96329 -0.64184,1.92389 -0.98174,2.88041 -0.36972,1.03998 -0.73891,2.08022 -1.13595,3.112 -0.42303,1.10428 -0.85939,2.2045 -1.32472,3.29483 -0.4953,1.14847 -0.99869,2.29396 -1.51824,3.43366 -0.5745,1.27258 -1.15528,2.54286 -1.76825,3.80077 -0.66246,1.34579 -1.33715,2.68691 -2.05126,4.01102 -0.75766,1.39576 -1.55031,2.7756 -2.38072,4.13713 -0.86386,1.40868 -1.72325,2.82011 -2.62747,4.20796 -0.94817,1.43552 -1.94083,2.84631 -2.98817,4.22447 -1.05168,1.38785 -2.10026,2.77767 -3.23317,4.11311 -1.13337,1.34648 -2.2771,2.68768 -3.51265,3.95947 -1.25269,1.28305 -2.5182,2.55827 -3.88244,3.74602 -1.3427,1.16266 -2.71126,2.30158 -4.1629,3.3532 -1.44062,1.04392 -2.92767,2.03429 -4.46131,2.9638 -1.53037,0.90078 -3.08479,1.77126 -4.71196,2.52325 -1.6073,0.73321 -3.22605,1.44964 -4.90412,2.04261 -1.64464,0.60361 -3.31206,1.15125 -5.01465,1.60723 -1.68139,0.44249 -3.37192,0.86371 -5.09072,1.17129 -1.72732,0.29064 -3.46386,0.53581 -5.21611,0.66569 -1.8112,0.13105 -3.62558,0.23062 -5.44361,0.22109 -1.84802,-0.0183 -3.69584,-0.0752 -5.53504,-0.25054 -1.96938,-0.19602 -3.93478,-0.43064 -5.87588,-0.7963 -2.04493,-0.39575 -4.07712,-0.84201 -6.072,-1.41382 -2.14279,-0.60811 -4.28616,-1.22113 -6.38454,-1.94713 -2.20114,-0.77312 -4.3724,-1.6127 -6.47665,-2.58489 -2.22983,-1.0074 -4.45504,-2.02544 -6.63298,-3.1227 -2.27596,-1.19265 -4.51046,-2.45006 -6.60585,-3.89318 -2.11842,-1.42518 -4.22432,-2.86685 -6.27092,-4.3761 -2.12099,-1.58386 -4.21001,-3.20189 -6.21665,-4.90449 -2.10449,-1.77595 -4.18678,-3.57467 -6.14748,-5.4824 -2.01099,-1.94722 -3.95162,-3.95316 -5.79185,-6.03482 -1.89284,-2.14169 -3.74772,-4.31073 -5.53778,-6.52393 -1.83863,-2.2999 -3.61764,-4.64064 -5.20396,-7.09181 -1.58293,-2.4801 -3.0838,-5.00138 -4.48206,-7.57134 -1.4553,-2.63564 -2.84953,-5.30149 -4.01725,-8.05412 -1.16859,-2.76464 -2.23207,-5.56522 -3.09195,-8.42273 -0.84277,-2.86704 -1.6258,-5.74919 -2.22778,-8.66675 -0.61576,-2.98737 -1.13723,-5.98906 -1.536,-9.00698 -0.39275,-3.05625 -0.7077,-6.12184 -0.80692,-9.19893 -0.0899,-3.10633 -0.0765,-6.2137 0.10475,-9.3177 0.1981,-3.17825 0.47964,-6.35354 0.95082,-9.50922 0.47378,-3.14933 1.03442,-6.29128 1.85831,-9.38318 0.80062,-2.93079 1.68396,-5.84412 2.80218,-8.69069 1.02478,-2.62946 2.1129,-5.24038 3.38386,-7.78179 1.1977,-2.34722 2.46893,-4.66274 3.88066,-6.91156 1.34201,-2.16103 2.74183,-4.29414 4.26954,-6.35267 1.49422,-1.95611 3.06034,-3.86617 4.74283,-5.69391 1.63299,-1.77412 3.29402,-3.52993 5.08722,-5.17434 1.70939,-1.56213 3.45258,-3.09746 5.32767,-4.49797 1.78948,-1.34144 3.62693,-2.63509 5.56781,-3.79373 1.9438,-1.14763 3.91409,-2.26078 5.96809,-3.24159 2.08607,-1.00349 4.19029,-1.97989 6.35222,-2.8438 2.10787,-0.80882 4.23637,-1.57418 6.41487,-2.21503 2.21026,-0.66742 4.43608,-1.29765 6.69798,-1.80727 2.25042,-0.48935 4.51782,-0.91395 6.81329,-1.19202 2.41116,-0.3158 4.82896,-0.59453 7.25572,-0.79244 2.45902,-0.17275 4.92515,-0.28839 7.39251,-0.25063 2.4409,0.0466 4.8813,0.1297 7.3133,0.33366 2.4581,0.21159 4.91636,0.43888 7.35095,0.81976 2.43472,0.37744 4.85836,0.81467 7.25645,1.35303 2.42859,0.54736 4.84215,1.15012 7.23417,1.81699 2.34594,0.68166 4.67051,1.42444 6.95361,2.26425 2.17915,0.80978 4.33962,1.66348 6.43373,2.64235 1.98861,0.93182 3.96067,1.89623 5.87113,2.95473 1.83727,1.03911 3.63377,2.13583 5.3535,3.32987 1.6403,1.15555 3.2193,2.37926 4.65762,3.7408 1.37,1.3036 2.70492,2.63738 4.01042,3.99413 1.36412,1.44268 2.73469,2.88271 3.99414,4.40259 1.22118,1.52126 2.40969,3.06524 3.47145,4.68302 1.08383,1.62525 2.13639,3.26739 3.14551,4.93172 1.04856,1.72784 2.03564,3.48522 2.9935,5.25562 0.94888,1.79895 1.8387,3.62288 2.6672,5.47007 0.83784,1.88896 1.6562,3.78522 2.40245,5.70573 0.74345,1.93821 1.46606,3.88343 2.09408,5.85533 0.61442,2.00405 1.15574,4.02529 1.61126,6.06413 0.46596,2.08547 0.8709,4.18196 1.18618,6.29076 0.28794,2.07369 0.51908,4.15485 0.61544,6.24387 0.10326,2.05772 0.15017,4.11722 0.12906,6.17717 -0.0417,1.96852 -0.12538,3.9358 -0.30856,5.89827 -0.14893,1.80832 -0.30491,3.6162 -0.48774,5.42203 -0.16839,1.65018 -0.34726,3.29965 -0.56758,4.94492 -0.19283,1.42308 -0.3973,2.84534 -0.66454,4.2588 -0.2178,1.11459 -0.44638,2.22937 -0.79182,3.31853 -0.23428,0.72731 -0.48089,1.45667 -0.84483,2.14095 -0.19611,0.36466 -0.38884,0.73156 -0.62782,1.07546 -1.28502,1.86105 -4.19269,0.2161 -2.90767,-1.64495 z"
       inkscape:connector-curvature="0" />
    <path
       style="fill:#000000;fill-opacity:1;fill-rule:nonzero;stroke:none"
       id="path25604"
       d="m 463.29971,110.44784 c 6.87814,2.53697 13.6363,5.33113 20.33934,8.30121 22.66061,10.61857 43.68647,24.22929 64.30484,38.31154 26.94061,18.59838 51.23989,40.60306 74.87851,63.15422 9.41578,9.07175 18.86739,18.10595 28.2862,27.17453 2.12936,2.05019 -0.77005,5.06158 -2.89942,3.01138 l 0,0 c -9.4142,-9.06418 -18.86124,-18.09396 -28.2724,-27.16132 -23.47324,-22.39619 -47.59957,-44.25391 -74.35078,-62.72695 -20.40748,-13.94145 -41.21566,-27.41968 -63.64075,-37.94162 -6.5451,-2.90143 -13.14383,-5.62881 -19.85422,-8.12124 -2.82967,-0.85466 -1.62098,-4.85641 1.20868,-4.00175 z"
       inkscape:connector-curvature="0" />
    <path
       style="fill:#000000;fill-opacity:1;fill-rule:nonzero;stroke:none"
       id="path25608"
       d="m 437.12388,137.99604 c 4.35062,1.681 8.44025,3.90286 12.47807,6.2191 14.4235,8.56468 27.65635,18.8846 40.52039,29.59863 21.21748,18.10682 40.39297,38.47048 58.23076,59.88329 4.02207,4.82817 7.89394,9.77952 11.84091,14.66929 21.77278,27.24751 41.54136,55.99516 60.74384,85.08506 1.62841,2.46693 -1.86036,4.76985 -3.48877,2.30292 l 0,0 c -19.12852,-28.97908 -38.81978,-57.61811 -60.50804,-84.7625 -3.9191,-4.85631 -7.76351,-9.77384 -11.75729,-14.56892 -17.68789,-21.23681 -36.69767,-41.43821 -57.73722,-59.39744 -12.67491,-10.56373 -25.71577,-20.73566 -39.92596,-29.18502 -3.93305,-2.26003 -7.91907,-4.41768 -12.15916,-6.0538 -2.68036,-1.24626 -0.91789,-5.03687 1.76247,-3.79061 z"
       inkscape:connector-curvature="0" />
    <path
       style="fill:#000000;fill-opacity:1;fill-rule:nonzero;stroke:none"
       id="path25610"
       d="m 358.2745,307.05584 c 0.1677,2.75616 0.0301,5.52598 -0.006,8.28622 -0.0396,3.34819 -0.0519,6.6966 -0.0595,10.04497 0.14355,0.59244 -0.24631,4.10037 0.0612,4.44018 0.0663,-0.0364 0.0401,0.003 0.007,-0.0909 1.44875,1.17458 -0.30904,3.11074 -1.75779,1.93616 l 0,0 c -0.38856,-0.35021 -0.69945,-0.70349 -0.86236,-1.20343 -0.3536,-1.6664 -0.0464,-3.39781 -0.14799,-5.0875 0.008,-3.35692 0.0199,-6.71388 0.0597,-10.07062 0.0329,-2.54538 0.0961,-5.09072 0.086,-7.63634 -0.46297,-1.75002 2.15598,-2.36875 2.61896,-0.61873 z"
       inkscape:connector-curvature="0" />
    <path
       style="fill:#000000;fill-opacity:1;fill-rule:nonzero;stroke:none"
       id="path25612"
       d="m 363.29069,319.62663 c 1.26298,0.66722 2.67386,0.97166 4.08892,1.18824 1.14246,-0.0215 2.82156,0.60937 3.79532,-0.12419 0.79145,-0.74159 1.15309,-1.62616 0.63396,-2.58548 -0.48322,-0.98738 -1.48476,-1.1194 -2.52083,-1.26865 -1.7935,0.0681 -3.25901,1.05058 -4.56403,2.12058 -1.37548,1.0977 -2.27779,2.49273 -2.68363,4.13895 -0.39044,1.61306 0.41733,2.92351 1.49553,4.11195 1.39368,1.35672 2.92161,2.6025 4.69664,3.48731 0.82051,0.37198 1.69174,0.45978 2.58537,0.50778 1.90538,0.10923 1.74191,2.65563 -0.16346,2.5464 l 0,0 c -1.28033,-0.077 -2.52781,-0.2515 -3.69104,-0.8026 -2.07896,-1.05467 -3.8959,-2.49475 -5.51071,-4.11638 -1.58034,-1.86179 -2.64399,-3.91282 -2.03078,-6.35511 0.59652,-2.14517 1.72138,-4.01385 3.54528,-5.45526 1.93272,-1.5502 4.12186,-2.82147 6.75584,-2.70135 2.0051,0.32393 3.75792,0.99006 4.60944,2.8805 0.8499,2.41611 0.20557,4.22011 -1.94592,5.77104 -0.38201,0.15484 -0.74641,0.35645 -1.14604,0.46452 -1.3682,0.37 -2.91912,-0.0679 -4.29969,-0.10286 -1.68015,-0.26516 -3.35318,-0.63895 -4.85745,-1.42364 -1.70735,-0.80672 -0.50007,-3.08847 1.20728,-2.28175 z"
       inkscape:connector-curvature="0" />
    <path
       style="fill:#000000;fill-opacity:1;fill-rule:nonzero;stroke:none"
       id="path25614"
       d="m 379.87641,317.84943 c 0.93504,1.92955 1.75709,3.90492 2.5944,5.87438 0.83156,2.01231 1.60444,4.04416 2.50947,6.02753 0.32332,0.70792 0.64661,1.41585 0.97084,2.1234 -0.52934,-1.21123 -1.87618,-0.41266 -1.90073,-0.4225 -0.12751,-0.0511 0.15017,-0.22035 0.21425,-0.33636 0.22841,-0.41352 0.21168,-0.4655 0.35474,-0.94921 0.78479,-2.2442 1.08983,-4.59574 1.57799,-6.90622 0.46811,-1.69749 0.99888,-3.37909 1.55879,-5.05138 0.0704,-0.2128 0.14549,-0.42413 0.22214,-0.63496 0.63527,-1.70106 3.18095,-0.85206 2.54568,0.849 l 0,0 c -0.0672,0.18441 -0.13211,0.36956 -0.19406,0.55562 -0.5304,1.58366 -1.0309,3.17649 -1.48525,4.78122 -0.50566,2.39306 -0.82595,4.8279 -1.64332,7.15143 -0.54964,1.61816 -1.65106,4.0913 -3.72749,1.97711 -0.32478,-0.70875 -0.64862,-1.41789 -0.9725,-2.12702 -0.91402,-2.0031 -1.69643,-4.0543 -2.53551,-6.08665 -0.80989,-1.90509 -1.60288,-3.81686 -2.504,-5.68452 -0.85367,-1.61344 1.56089,-2.75432 2.41456,-1.14087 z"
       inkscape:connector-curvature="0" />
    <path
       style="fill:#000000;fill-opacity:1;fill-rule:nonzero;stroke:none"
       id="path25616"
       d="m 394.78556,321.32735 c 1.32844,0.7135 2.81425,0.99215 4.30963,1.18317 1.0289,0.0366 1.52028,-0.60691 1.9061,-1.40417 0.0584,-1.00252 -0.43373,-1.80053 -1.09011,-2.55582 -0.52087,-0.61556 -1.0361,-0.79424 -1.78373,-0.48767 -0.97612,0.39245 -1.80297,1.13264 -2.35672,1.98275 -0.6542,1.42585 -0.6116,3.03786 -0.66345,4.56397 0.0351,1.53185 0.42835,2.79304 1.62722,3.83724 1.12331,1.00702 2.54664,1.46512 4.03369,1.74257 1.04065,0.2515 1.84039,0.0625 2.70899,-0.48409 0.70077,-0.48471 0.32297,-0.23715 1.13843,-0.73577 1.60541,-0.97589 3.06586,1.16963 1.46045,2.14552 l 0,0 c -0.7445,0.44927 -0.35365,0.2008 -1.16712,0.75297 -1.47205,0.83919 -2.9681,1.21236 -4.68043,0.82094 -1.99507,-0.3941 -3.88977,-1.06093 -5.38702,-2.42338 -1.67168,-1.61311 -2.43315,-3.46545 -2.43234,-5.73886 0.0696,-2.00138 0.0728,-4.08399 1.11076,-5.88957 0.96104,-1.31932 2.20978,-2.4701 3.83558,-3.01883 1.85401,-0.44709 3.4593,-0.10529 4.69059,1.37087 1.23942,1.56622 2.03822,3.2705 1.37915,5.24014 -0.96481,1.78996 -2.46905,2.94512 -4.69779,2.80848 -1.78529,-0.23535 -3.55808,-0.58828 -5.14916,-1.42871 -1.70735,-0.80672 -0.50007,-3.08847 1.20728,-2.28175 z"
       inkscape:connector-curvature="0" />
    <path
       style="fill:#000000;fill-opacity:1;fill-rule:nonzero;stroke:none"
       id="path25618"
       d="m 412.27979,308.91748 c 0.60141,3.10675 0.29106,6.28613 0.17432,9.42148 -0.12481,3.31349 -0.19711,6.62846 -0.23793,9.94375 -0.0101,1.07484 -0.0217,2.14972 -0.0207,3.22462 1.4e-4,0.0307 2.7e-4,0.0614 4.1e-4,0.0921 0.008,1.80387 -2.69168,1.81438 -2.69954,0.0105 l 0,0 c -1.4e-4,-0.0335 -2.9e-4,-0.067 -4.3e-4,-0.10046 -6.5e-4,-1.08553 0.0106,-2.17104 0.0209,-3.25651 0.0411,-3.33529 0.11384,-6.67028 0.23941,-10.00376 0.10939,-2.93769 0.41485,-5.91833 -0.12357,-8.83146 -0.37435,-1.76885 2.27278,-2.26916 2.64714,-0.50031 z"
       inkscape:connector-curvature="0" />
    <path
       style="fill:#000000;fill-opacity:1;fill-rule:nonzero;stroke:none"
       id="path25620"
       d="m 427.56864,309.34584 c 1.10627,2.47949 1.3226,5.17373 1.52113,7.82603 0.1967,3.46323 0.2073,6.93285 0.21775,10.40012 -0.0814,1.62077 0.19026,3.23039 0.60432,4.798 0.0369,0.15797 0.0953,0.30976 0.14908,0.46274 0.63663,1.7006 -1.90836,2.55142 -2.545,0.85081 l 0,0 c -0.0847,-0.23007 -0.16204,-0.46233 -0.22413,-0.69894 -0.46188,-1.7666 -0.764,-3.58007 -0.68382,-5.40535 -0.0103,-3.41003 -0.0202,-6.82234 -0.21111,-10.22849 -0.17138,-2.31906 -0.3344,-4.67641 -1.24278,-6.86404 -0.85367,-1.61344 1.56089,-2.75432 2.41456,-1.14088 z"
       inkscape:connector-curvature="0" />
    <path
       style="fill:#000000;fill-opacity:1;fill-rule:nonzero;stroke:none"
       id="path25622"
       d="m 438.36144,321.51193 c 0.50252,2.1447 0.61275,4.35161 0.72957,6.53922 0.0672,1.37514 -0.0581,2.74048 0.44103,4.05033 0.0542,0.15826 0.1448,0.2991 0.22754,0.44386 0.94246,1.56869 -1.40514,2.82821 -2.34759,1.25951 l 0,0 c -0.16345,-0.2783 -0.31547,-0.56186 -0.42872,-0.8627 -0.5608,-1.55013 -0.57147,-3.13654 -0.5884,-4.76277 -0.10741,-2.02244 -0.20294,-4.06339 -0.65238,-6.04872 -0.46298,-1.75002 2.15598,-2.36875 2.61895,-0.61873 z"
       inkscape:connector-curvature="0" />
    <path
       style="fill:#000000;fill-opacity:1;fill-rule:nonzero;stroke:none"
       id="path25624"
       d="m 435.41295,312.55411 c 1.26047,-1.06976 2.79713,-1.73684 4.37894,-2.26126 2.00569,-0.41633 2.95377,0.98429 2.86802,2.69063 -0.44873,1.59505 -2.0695,1.97363 -3.60303,1.90161 -1.18215,-0.19036 -1.92491,-0.99846 -2.38664,-1.98059 -0.0779,-0.17051 -0.12542,-0.34933 -0.1669,-0.52997 -0.3627,-1.77102 2.28768,-2.25575 2.65038,-0.48472 l 0,0 c -4.8e-4,0.004 -0.003,0.008 -0.001,0.0115 0.12721,0.28465 0.0831,0.39515 0.21657,0.44983 0.30331,0.26319 0.77998,-0.31503 0.6238,0.2389 0.0901,0.1598 0.45695,0.021 0.68884,0.11142 -1.20066,0.39357 -2.37876,0.87373 -3.35967,1.65657 -1.34978,1.27553 -3.25866,-0.52835 -1.90888,-1.80388 z"
       inkscape:connector-curvature="0" />
    <path
       style="fill:#000000;fill-opacity:1;fill-rule:nonzero;stroke:none"
       id="path25626"
       d="m 446.39278,319.37194 c -0.0561,2.4938 0.004,4.97243 0.25037,7.45551 0.19086,1.83742 0.42331,3.6705 0.58656,5.51041 0.0997,1.10449 0.22366,1.31104 -2.63232,0.48989 -0.0318,-0.009 0.27878,-1.28835 0.29111,-1.34045 0.39446,-1.62423 0.40185,-3.29597 0.67256,-4.93562 0.28652,-2.28498 1.37331,-4.34335 2.65965,-6.26171 0.72176,-0.8612 1.63822,-2.39416 3.0071,-2.41965 0.38803,-0.007 0.76146,0.14232 1.14219,0.21348 1.97647,1.40677 2.31549,3.86433 2.66745,6.03289 0.29162,2.0857 0.34188,4.19082 0.36655,6.29154 0.004,0.50893 0.005,1.01789 10e-4,1.52683 -6.5e-4,0.0828 0.0261,0.32643 -0.003,0.24826 -0.32994,-0.89613 0.14452,-0.24119 -0.33179,-0.81092 -0.68677,-0.44091 0.15325,0.087 -0.21212,-0.12038 1.86969,0.36365 1.32549,2.86235 -0.5442,2.49871 l 0,0 c -0.49473,-0.12 -0.23274,-0.0349 -0.77706,-0.27874 -0.97937,-0.87185 -0.86364,-1.85436 -0.83256,-3.0356 -0.0231,-1.98209 -0.0667,-3.9684 -0.33616,-5.93695 -0.16137,-1.01714 -0.32262,-2.01057 -0.66839,-2.98946 -0.12614,-0.35708 -0.39591,-0.6659 -0.48185,-1.03349 -0.009,-0.0388 0.0804,-0.0234 0.1206,-0.0351 0.19877,-0.033 0.76449,-0.24325 0.56929,-0.19481 -0.66491,0.16498 -0.9942,1.01285 -1.41488,1.42039 -1.11038,1.61177 -2.02692,3.3596 -2.26727,5.29223 -0.30208,1.68431 -0.25914,3.4174 -0.703,5.08497 -0.0346,0.1461 -0.18088,0.83305 -0.22674,0.84374 -2.89549,0.6748 -2.63207,1.1149 -2.75662,-0.33708 -0.16231,-1.83182 -0.39538,-3.65669 -0.58429,-5.48613 -0.25247,-2.56201 -0.32058,-5.11997 -0.26207,-7.69279 0,-1.80389 2.69956,-1.80389 2.69956,0 z"
       inkscape:connector-curvature="0" />
    <path
       style="fill:#000000;fill-opacity:1;fill-rule:nonzero;stroke:none"
       id="path25628"
       d="m 458.9183,322.51836 c 1.08872,0.83682 2.43406,1.41144 3.84159,1.48939 1.12273,-0.27397 2.06528,-1.09313 2.69816,-1.98931 0.54022,-1.11531 0.79198,-2.41249 0.63111,-3.63267 -0.19489,-0.61499 -1.04258,-1.55559 -1.74766,-1.00976 -1.68825,1.34397 -2.57303,3.29785 -3.33168,5.20306 -0.70884,1.99422 -0.9796,3.41629 0.90238,4.77395 1.65815,0.97315 3.55184,1.19295 5.45738,1.03873 0.2402,-0.0595 0.4804,-0.11902 0.72061,-0.17853 1.85665,-0.41908 2.48381,2.06219 0.62716,2.48128 l 0,0 c -0.37851,0.0801 -0.75702,0.16028 -1.13553,0.24043 -2.63764,0.1835 -5.22051,-0.19991 -7.43871,-1.65496 -2.83245,-2.47959 -2.78377,-4.24519 -1.65691,-7.60682 1.08663,-2.68126 2.41039,-5.46752 5.28018,-6.78965 0.46325,-0.0544 0.92375,-0.18902 1.38975,-0.16315 1.93924,0.10765 3.23003,1.81862 3.62184,3.43789 0.13749,1.84536 -0.13704,3.71631 -1.12334,5.34317 -1.26647,1.61323 -2.94006,2.93377 -5.15167,3.04583 -2.03327,-0.22289 -3.95129,-0.91885 -5.49353,-2.225 -1.34978,-1.27554 0.55909,-3.07942 1.90887,-1.80388 z"
       inkscape:connector-curvature="0" />
    <path
       style="fill:#000000;fill-opacity:1;fill-rule:nonzero;stroke:none"
       id="path25630"
       d="m 477.29579,316.0269 c 1.04985,0.27624 2.11954,0.46703 3.19434,0.63129 0.21012,0.0318 0.47554,0.0684 0.67124,0.0893 -0.95865,-0.0933 -0.16835,1.72336 -0.43452,2.54504 -0.0108,0.0333 -1.65836,-0.003 -2.41142,-0.004 -1.21844,0.20801 -2.66881,-0.30934 -3.84857,0.0735 -0.60363,0.21121 0.0875,0.0596 0.10414,0.0928 0.10417,0.20782 0.0875,0.45754 0.19007,0.66608 1.1809,1.09874 2.52978,2.02586 3.83939,2.98578 1.45392,1.09853 2.5587,2.45765 3.30184,4.06182 0.82846,2.20217 -0.37406,3.41641 -2.4234,4.25285 -2.07061,0.53077 -4.2202,0.80262 -6.29706,0.22335 -1.03212,-0.49661 -0.5415,-0.18605 -1.45816,-0.9507 -1.3538,-1.27172 0.54937,-3.08098 1.90318,-1.80925 l 0,0 c 0.1417,0.26028 0.0312,0.12241 0.41361,0.34135 1.3686,0.57169 3.05859,0.0218 4.4633,-0.18358 0.57267,-0.15322 1.18853,-0.21167 0.91915,-0.86489 -0.54183,-1.21719 -1.39007,-2.22248 -2.47902,-3.05666 -1.70841,-1.25693 -3.62564,-2.39916 -4.74479,-4.196 -0.51392,-1.67846 -0.39372,-3.52857 1.70802,-4.05859 1.45503,-0.2391 2.93731,-0.091 4.41005,-0.12895 0.77852,4.8e-4 2.41844,-0.0264 2.42698,0.004 0.23451,0.82584 0.18108,1.70154 0.27162,2.5523 -0.0263,-0.001 -0.0526,-0.002 -0.0789,-0.004 -0.29406,-0.0279 -0.58631,-0.07 -0.87824,-0.1133 -1.14965,-0.17614 -2.294,-0.3813 -3.41754,-0.67466 -1.85189,-0.4375 -1.19715,-2.91241 0.65473,-2.4749 z"
       inkscape:connector-curvature="0" />
    <path
       style="fill:#000000;fill-opacity:1;fill-rule:nonzero;stroke:none"
       id="path25632"
       d="m 500.56558,318.36973 c -1.26358,1.37586 -1.91695,3.03845 -2.37008,4.77868 -0.37339,1.56489 -0.2686,3.31917 0.79496,4.63028 1.21268,0.67046 2.57339,0.86761 3.9263,0.55215 1.55997,-0.59177 2.08308,-1.79309 2.49505,-3.22665 0.44495,-1.52778 -0.0272,-2.74547 -1.18633,-3.82013 -0.99013,-0.69868 -2.12806,-1.13079 -3.37236,-1.01715 -1.22622,0.2898 -2.11846,1.12903 -2.92653,1.99916 -1.26555,1.35045 -3.28654,-0.34086 -2.021,-1.69131 l 0,0 c 1.30926,-1.38762 2.81571,-2.57781 4.83125,-2.85656 2.04922,-0.033 3.8739,0.51321 5.44223,1.80524 1.74028,1.79261 2.5369,3.84856 1.83013,6.27596 -0.7276,2.35604 -1.94189,4.2391 -4.54505,5.02952 -2.44342,0.42654 -4.84775,0.0723 -6.70197,-1.61012 -1.37674,-2.01715 -1.79671,-4.33874 -1.18545,-6.68982 0.58662,-2.18377 1.45351,-4.26739 3.07998,-5.96313 1.34977,-1.27554 3.25866,0.52834 1.90887,1.80388 z"
       inkscape:connector-curvature="0" />
    <path
       style="fill:#000000;fill-opacity:1;fill-rule:nonzero;stroke:none"
       id="path25634"
       d="m 518.97291,308.09407 c -1.15698,-0.38557 -1.88243,0.0772 -2.59206,0.91304 -1.20223,2.08587 -1.32151,4.54364 -1.49391,6.86544 -0.34061,2.48386 0.0834,4.82774 0.86747,7.18801 0.77965,1.62127 1.65194,3.20771 2.25017,4.90005 0.33335,0.96392 0.3817,1.97623 0.39688,2.98105 0.1085,0.95138 -0.20957,1.47971 -0.89431,2.17232 -1.61454,0.96237 -3.05475,-1.19534 -1.44021,-2.15771 l 0,0 c -0.57683,0.77582 -0.3396,1.00531 -0.36479,0.0198 -0.01,-0.74586 -0.0227,-1.50176 -0.26251,-2.21989 -0.5799,-1.71181 -1.54877,-3.27653 -2.26279,-4.93736 -0.87017,-2.66125 -1.34996,-5.33175 -0.98272,-8.12658 0.21792,-2.87946 0.42487,-5.89988 2.16329,-8.37381 1.42735,-1.45213 3.13071,-2.34255 5.27023,-1.69923 1.85188,0.4375 1.19714,2.91241 -0.65474,2.4749 z"
       inkscape:connector-curvature="0" />
    <path
       style="fill:#000000;fill-opacity:1;fill-rule:nonzero;stroke:none"
       id="path25636"
       d="m 510.37063,320.98925 c 1.86391,0.0203 3.70778,0.0608 5.54985,-0.22561 1.73653,-0.30004 3.49535,-0.46577 5.2562,-0.5674 0.20683,-0.009 0.41367,-0.0186 0.6205,-0.0278 1.90675,-0.0852 2.0342,2.46306 0.12746,2.54823 l 0,0 c -0.19484,0.009 -0.38967,0.0173 -0.5845,0.026 -1.67064,0.0951 -3.33933,0.25338 -4.98656,0.53905 -1.98704,0.30192 -3.97361,0.29248 -5.98295,0.25864 -1.90887,0 -1.90887,-2.55107 0,-2.55107 z"
       inkscape:connector-curvature="0" />
    <path
       style="fill:#000000;fill-opacity:1;fill-rule:nonzero;stroke:none"
       id="path25638"
       d="m 326.35452,354.70535 c -1.20682,1.9218 -1.95338,4.04997 -2.56494,6.1965 -0.23399,1.69902 -0.23358,2.42974 1.47473,3.03907 1.42337,0.4338 2.77454,0.0808 3.79777,-0.91118 1.19022,-1.51242 0.96819,-3.32048 0.48653,-5.03103 -0.61906,-1.19696 -1.19987,-3.10408 -2.82988,-3.33884 -0.46729,0.14824 -2.51212,0.39458 -2.68807,0.7686 -0.15673,0.24993 0.0367,-0.0632 -0.0932,0.16055 -1.11435,1.4646 -3.30617,-0.0247 -2.19182,-1.48925 l 0,0 c 0.41488,-0.51249 0.17545,-0.25508 0.7338,-0.75913 1.49801,-0.87198 3.30095,-1.2336 5.05213,-1.11347 2.73553,0.96477 3.61107,2.68012 4.63461,5.14743 0.68045,2.65556 0.7321,5.33772 -1.26727,7.52466 -1.92975,1.60631 -4.22972,2.22135 -6.72753,1.37431 -2.97667,-1.34223 -3.4991,-3.04345 -2.98796,-6.03683 0.66169,-2.30892 1.46732,-4.59955 2.75658,-6.67226 0.85367,-1.61344 3.26823,-0.47257 2.41456,1.14087 z"
       inkscape:connector-curvature="0" />
    <path
       style="fill:#000000;fill-opacity:1;fill-rule:nonzero;stroke:none"
       id="path25640"
       d="m 334.87831,340.21982 c 0.67206,2.8743 1.15657,5.78315 1.62431,8.69318 0.67209,3.71582 1.32976,7.43031 2.0746,11.13383 0.23571,1.19004 0.47439,2.37961 0.69836,3.57169 0.0132,0.0657 0.0239,0.1318 0.0351,0.19779 0.28029,1.78433 -2.39001,2.15892 -2.6703,0.37459 l 0,0 c -0.008,-0.0422 -0.0145,-0.0844 -0.0229,-0.12648 -0.22201,-1.18194 -0.45883,-2.36136 -0.69245,-3.54128 -0.75105,-3.73458 -1.41417,-7.48031 -2.0915,-11.22735 -0.45425,-2.83068 -0.92337,-5.66098 -1.57428,-8.45725 -0.46297,-1.75002 2.15599,-2.36875 2.61896,-0.61872 z"
       inkscape:connector-curvature="0" />
    <path
       style="fill:#000000;fill-opacity:1;fill-rule:nonzero;stroke:none"
       id="path25642"
       d="m 337.70643,349.90143 c 2.22332,0.0208 4.43937,-0.19336 6.59242,0.40352 2.04353,0.8972 2.84007,2.71506 2.92724,4.73162 -0.26344,2.14014 -1.68877,3.788 -3.07162,5.40729 -1.49688,1.64494 -3.55725,2.43527 -5.74426,2.87793 -1.03643,0.24929 -1.61813,0.18827 -2.63278,-0.13558 -1.53424,-1.07328 0.072,-3.12368 1.60619,-2.0504 l 0,0 c -1.75036,-0.34326 -0.007,-0.10032 0.47004,-0.3103 1.57619,-0.30727 3.10654,-0.80876 4.20177,-1.98583 0.99366,-1.15836 2.08821,-2.32296 2.4711,-3.79922 0.0965,-0.84589 -0.29038,-1.81698 -1.04371,-2.30378 -1.83062,-0.62619 -3.87166,-0.13585 -5.77639,-0.28418 -1.90888,0 -1.90888,-2.55107 0,-2.55107 z"
       inkscape:connector-curvature="0" />
    <path
       style="fill:#000000;fill-opacity:1;fill-rule:nonzero;stroke:none"
       id="path25646"
       d="m 353.78067,351.0134 c 1.48592,2.3853 2.10138,5.1537 2.64505,7.84233 0.59381,3.67327 0.99396,7.38749 0.49196,11.08482 -0.50958,3.07446 -2.49592,5.16405 -5.02174,6.97528 -1.51457,0.72791 -2.78873,1.86274 -4.40682,2.36121 -1.8312,-0.57792 -1.12197,-0.0555 -2.16343,-1.52292 -0.90267,-1.58944 1.47597,-2.7958 2.37865,-1.20635 l 0,0 c -0.0551,0.45382 0.0521,0.22175 -0.76545,0.23175 -0.19877,0.23714 -0.13177,0.13329 0.30977,-0.1424 0.98848,-0.61719 1.99009,-1.21789 3.02637,-1.76132 1.97007,-1.37946 3.5485,-2.88911 3.96656,-5.27086 0.49952,-3.4216 0.0457,-6.87171 -0.46809,-10.27359 -0.4904,-2.46076 -1.03825,-4.99965 -2.40739,-7.17707 -0.85368,-1.61345 1.56088,-2.75432 2.41456,-1.14088 z"
       inkscape:connector-curvature="0" />
    <path
       style="fill:#000000;fill-opacity:1;fill-rule:nonzero;stroke:none"
       id="path25648"
       d="m 349.51662,341.53765 c 1.73896,0.34858 2.3863,1.6479 2.50493,3.1822 0.0444,0.9905 -0.11446,2.45019 -1.62563,2.3965 -0.45485,-0.0162 -0.80907,-0.39434 -1.2136,-0.59151 -0.6271,-0.92692 -0.73401,-2.00891 -0.83801,-3.07652 -0.0252,-0.26943 -0.0421,-0.53941 -0.0414,-0.80985 0.0446,-0.71833 -0.0185,-0.0677 1.59687,-1.25075 1.9085,0.036 1.85473,2.58651 -0.0538,2.55057 l 0,0 c 0.38416,-0.3913 0.76832,-0.78259 1.15248,-1.17388 10e-4,-0.02 0.002,-0.04 0.003,-0.06 0.003,0.0825 0.0145,0.38423 0.0311,0.51193 0.0456,0.47662 0.32281,1.18252 0.25768,1.6349 -0.005,0.0356 -0.0711,-0.0256 -0.10671,-0.0384 -0.29419,-0.082 -0.5793,-0.28931 -0.88256,-0.24594 -1.2442,0.17792 -0.98195,1.7911 -0.97396,0.31061 -0.005,-0.10072 -0.0185,-0.37969 -0.0186,-0.50402 -4e-5,-0.0606 0.17192,-0.0446 0.15809,-0.10373 -0.0477,-0.20398 -0.58837,-0.1402 -0.60473,-0.25716 -1.85188,-0.4375 -1.19714,-2.91241 0.65474,-2.4749 z"
       inkscape:connector-curvature="0" />
    <path
       style="fill:#000000;fill-opacity:1;fill-rule:nonzero;stroke:none"
       id="path25650"
       d="m 363.91427,356.8441 c 0.98407,0.33927 1.77663,0.3495 2.71517,-0.0411 0.807,-0.42952 1.11733,-1.25562 1.30398,-2.06745 0.16636,-1.09636 0.3248,-2.25765 -0.21597,-3.2819 -0.57055,-0.57711 -1.32727,-0.59618 -2.11667,-0.66857 -1.58931,-0.2011 -2.67056,0.51823 -3.49027,1.7445 -1.20959,2.45972 -0.75922,5.09868 0.0619,7.59007 0.74678,1.93233 1.91025,3.48854 4.14601,3.81866 0.98348,0.0282 1.71628,-0.43769 2.53662,-0.88037 1.67553,-0.86425 2.96891,1.37498 1.29338,2.23923 l 0,0 c -1.41267,0.7057 -2.7205,1.33244 -4.38074,1.13856 -3.36393,-0.75372 -4.99458,-2.54188 -6.17776,-5.57298 -1.03151,-3.26259 -1.45741,-6.66649 0.30645,-9.79269 1.56409,-2.00693 3.25938,-3.09187 5.98508,-2.82222 1.80917,0.18821 3.36647,0.63575 4.32702,2.22272 0.64333,1.58211 0.71449,3.1971 0.35007,4.85973 -0.43287,1.61544 -1.23066,3.06578 -2.8899,3.82718 -1.47076,0.56096 -2.89159,0.65529 -4.40915,0.16159 -1.85188,-0.43751 -1.19715,-2.91241 0.65474,-2.4749 z"
       inkscape:connector-curvature="0" />
    <path
       style="fill:#000000;fill-opacity:1;fill-rule:nonzero;stroke:none"
       id="path25652"
       d="m 380.11163,349.19088 c 0.92131,0.21765 1.8426,0.43531 2.76391,0.65296 0.14295,0.0338 0.2859,0.0675 0.42885,0.10132 -0.72265,3.73411 -0.20514,2.13297 -2.9326,2.5963 -1.83044,0.60647 -2.91769,2.2409 -3.77083,3.78614 -0.63075,1.61453 -1.60291,3.81772 0.0434,5.13694 2.04494,0.9972 4.50912,0.61231 6.65815,0.13256 1.31858,-0.37714 0.6977,-0.18292 1.86566,-0.57397 1.80038,-0.59948 2.69751,1.80661 0.89713,2.40608 l 0,0 c -1.34615,0.44607 -0.62769,0.22421 -2.15921,0.65439 -3.13508,0.66331 -6.53296,1.01086 -9.265,-0.90902 -0.32978,-0.38459 -0.7324,-0.72239 -0.98932,-1.15375 -1.28897,-2.16409 -0.30818,-4.78935 0.56568,-6.89097 1.29363,-2.26491 2.98143,-4.43068 5.75434,-5.11131 0.17625,-0.0222 2.78421,-0.19923 2.79068,-0.11176 0.0619,0.83647 -0.0752,1.67552 -0.1128,2.51328 -0.14295,-0.0338 -0.28591,-0.0675 -0.42886,-0.10132 -0.9213,-0.21765 -1.8426,-0.43531 -2.7639,-0.65297 -1.85188,-0.43751 -1.19714,-2.91241 0.65474,-2.4749 z"
       inkscape:connector-curvature="0" />
    <path
       style="fill:#000000;fill-opacity:1;fill-rule:nonzero;stroke:none"
       id="path25654"
       d="m 391.57451,341.65946 c 1.06756,2.40075 1.31045,5.00755 1.52049,7.5757 0.24702,3.22579 0.46506,6.47305 0.96403,9.67485 0.27213,1.43208 0.61415,2.851 0.91684,4.27751 0.0582,0.27843 0.0322,0.15251 0.0784,0.37772 0.36381,1.77081 -2.28626,2.25702 -2.65008,0.4862 l 0,0 c -0.0441,-0.21464 -0.0191,-0.0938 -0.0752,-0.36239 -0.31206,-1.47088 -0.66671,-2.93359 -0.94133,-4.4113 -0.49769,-3.26087 -0.73978,-6.5626 -0.9843,-9.84729 -0.1808,-2.24078 -0.36955,-4.51631 -1.24341,-6.63013 -0.85368,-1.61344 1.56088,-2.75431 2.41456,-1.14087 z"
       inkscape:connector-curvature="0" />
    <path
       style="fill:#000000;fill-opacity:1;fill-rule:nonzero;stroke:none"
       id="path25656"
       d="m 388.45543,352.38887 c 2.14835,-0.3524 4.20999,-1.0442 6.29181,-1.63803 1.18281,-0.34047 2.3676,-0.66285 3.59521,-0.81494 0.28095,-0.0315 0.56329,-0.0531 0.84629,-0.0468 1.90753,0.0677 1.80626,2.61695 -0.10128,2.54928 l 0,0 c -0.003,1.4e-4 -0.33863,0.0107 -0.39935,0.0276 -1.0813,0.12923 -2.11824,0.43594 -3.16131,0.72725 -2.12328,0.60473 -4.22635,1.30877 -6.41664,1.67054 -1.85188,0.43751 -2.50662,-2.03739 -0.65473,-2.4749 z"
       inkscape:connector-curvature="0" />
    <path
       style="fill:#000000;fill-opacity:1;fill-rule:nonzero;stroke:none"
       id="path25658"
       d="m 404.16701,352.97519 c 0.43892,1.77044 0.60759,3.58451 0.72863,5.39489 0.0837,1.51127 0.10298,3.02481 0.10986,4.53786 0.001,0.33776 4.6e-4,0.67552 -0.003,1.01325 -0.0259,1.80372 -2.72519,1.76914 -2.69931,-0.0346 l 0,0 c 0.004,-0.32257 0.005,-0.64517 0.003,-0.96777 -0.007,-1.46332 -0.0247,-2.92712 -0.10457,-4.38878 -0.10948,-1.65583 -0.25815,-3.31557 -0.65333,-4.93614 -0.46297,-1.75002 2.15599,-2.36875 2.61896,-0.61873 z"
       inkscape:connector-curvature="0" />
    <path
       style="fill:#000000;fill-opacity:1;fill-rule:nonzero;stroke:none"
       id="path25662"
       d="m 401.67696,344.73051 c 0.28613,-0.15547 2.57377,-1.23417 2.71743,-1.07406 0.53787,0.59943 0.84836,1.35201 1.27254,2.02802 -0.41534,0.84471 -1.26937,1.26722 -2.15777,1.54722 -1.00183,0.40695 -2.03231,-0.63571 -2.12074,-1.57382 -0.0185,-0.22858 -0.0106,-0.45699 0.0305,-0.6827 0.37685,-1.76838 3.02327,-1.26475 2.64644,0.50363 l 0,0 c 0.0147,-0.10225 0.0178,-0.17124 0.014,-0.0245 0.0581,0.78705 -2.15288,-0.56948 -1.40599,-0.64833 0.21497,-0.0625 0.5345,-0.13908 0.50521,-0.11072 2.09786,2.08171 2.0523,1.15983 -0.29436,2.31703 -1.70735,0.80672 -2.91463,-1.47503 -1.20728,-2.28175 z"
       inkscape:connector-curvature="0" />
    <path
       style="fill:#000000;fill-opacity:1;fill-rule:nonzero;stroke:none"
       id="path25664"
       d="m 411.37128,351.86376 c 0.8788,2.12317 2.01002,4.13197 3.28587,6.06289 1.28325,1.63229 2.35432,3.4515 3.79999,4.96533 0.8407,0.87296 1.80551,0.72426 -0.45199,0.82684 -0.13519,0.16266 -0.22968,0.36489 -0.40557,0.48798 -0.011,0.008 0.006,-0.13597 0.0139,-0.66324 0.011,-0.71653 0.005,-1.4334 0.003,-2.14996 -0.13259,-2.21478 0.12306,-4.40031 0.40095,-6.59445 0.30711,-1.50067 0.74481,-2.97537 1.25699,-4.42434 0.0832,-0.23354 0.17062,-0.46558 0.28639,-0.68652 0.89734,-1.59215 3.28002,-0.39291 2.38268,1.19923 l 0,0 c -0.0353,0.0992 -0.0704,0.19842 -0.10891,0.29648 -0.45537,1.28473 -0.84154,2.59215 -1.13672,3.91832 -0.265,2.09221 -0.51688,4.17196 -0.38183,6.28449 0.004,1.46294 0.25363,2.99928 -0.58366,4.29297 -2.14176,0.26178 -1.84147,0.22089 -3.30229,-1.1035 -1.50885,-1.65107 -2.73116,-3.52401 -4.06385,-5.30087 -1.3152,-1.99983 -2.50569,-4.0715 -3.40902,-6.27077 -0.85368,-1.61344 1.56088,-2.75432 2.41455,-1.14088 z"
       inkscape:connector-curvature="0" />
    <path
       style="fill:#000000;fill-opacity:1;fill-rule:nonzero;stroke:none"
       id="path25666"
       d="m 426.52358,353.98162 c 0.92938,1.30548 2.12982,1.93766 3.69687,2.32689 1.57162,0.1642 2.27113,0.0234 3.25226,-1.08572 0.58902,-0.93113 1.2221,-2.09146 0.82277,-3.17979 -0.4548,-0.71805 -1.07732,-1.12188 -1.97888,-1.05488 -1.74164,0.45769 -2.9136,1.8339 -4.10344,3.0291 -1.15031,1.48214 -2.19006,3.25861 -2.24256,5.13973 0.38414,1.38905 2.24771,1.77625 3.52876,2.11224 2.22403,0.44029 4.50188,0.5198 6.76655,0.55987 0.96953,0.012 1.93916,0.003 2.90859,-0.0118 0.12491,-0.002 0.24981,-0.005 0.3747,-0.007 1.9083,-0.0445 1.97489,2.5058 0.0666,2.5503 l 0,0 c -0.13227,0.003 -0.26453,0.006 -0.39681,0.008 -1.00128,0.0156 -2.00279,0.0245 -3.00418,0.0118 -2.49745,-0.0452 -5.01001,-0.14061 -7.45667,-0.65746 -2.61071,-0.72011 -5.24156,-1.83806 -5.48119,-4.73405 0.23181,-2.48361 1.30905,-4.78289 2.97109,-6.72008 1.74064,-1.74441 3.50824,-3.57392 6.18318,-3.82874 2.13764,0.17282 3.69281,1.07548 4.49372,3.02605 0.39881,1.97841 -0.15958,3.80645 -1.42095,5.43765 -1.75355,1.84054 -3.42002,2.2428 -5.99687,1.86586 -1.96847,-0.52496 -3.70257,-1.34116 -4.89242,-2.98341 -1.34978,-1.27554 0.5591,-3.07943 1.90888,-1.80389 z"
       inkscape:connector-curvature="0" />
    <path
       style="fill:#000000;fill-opacity:1;fill-rule:nonzero;stroke:none"
       id="path25668"
       d="m 466.78142,341.25805 c -1.52111,-0.3421 -3.03747,-0.54056 -4.59149,-0.37963 -1.68273,0.31453 -2.19071,1.48251 -2.58413,2.91541 -0.75729,3.29053 -0.32498,6.63348 0.14758,9.92608 0.41524,2.67399 1.30617,5.22769 2.17022,7.79073 0.53486,1.63324 0.73718,1.53265 0.23035,3.22206 -0.22274,0.13424 -0.44548,0.26847 -0.66821,0.40271 -1.77992,0.65177 -2.75531,-1.72697 -0.97539,-2.37874 l 0,0 c -0.13119,0.10072 -0.26239,0.20143 -0.39358,0.30215 -0.0682,0.3538 -0.11327,0.71228 -0.20456,1.0614 -0.0317,0.12131 -0.066,-0.242 -0.10119,-0.36243 -0.14427,-0.49355 -0.29938,-0.98421 -0.45977,-1.47328 -0.91026,-2.70393 -1.83981,-5.4012 -2.27301,-8.22223 -0.52096,-3.6402 -0.9544,-7.33571 -0.0696,-10.96424 0.82326,-2.59308 1.94179,-4.21976 4.9017,-4.75696 1.86969,-0.17652 3.69996,0.0185 5.52586,0.44206 1.85189,0.43751 1.19714,2.91242 -0.65473,2.47491 z"
       inkscape:connector-curvature="0" />
    <path
       style="fill:#000000;fill-opacity:1;fill-rule:nonzero;stroke:none"
       id="path25670"
       d="m 455.04457,353.23923 c 1.95338,-0.34834 3.85918,-0.86171 5.81919,-1.18452 1.79608,-0.42008 3.60311,-0.79235 5.42037,-1.12052 0.32812,-0.0582 0.6566,-0.11477 0.98625,-0.16472 1.88495,-0.28471 2.31103,2.23439 0.42608,2.5191 l 0,0 c -0.30282,0.0455 -0.60436,0.0983 -0.90579,0.15139 -1.83252,0.3307 -3.65277,0.71255 -5.46577,1.12832 -1.89531,0.3087 -3.736,0.81447 -5.62559,1.14586 -1.85188,0.43751 -2.50662,-2.0374 -0.65474,-2.47491 z"
       inkscape:connector-curvature="0" />
    <path
       style="fill:#000000;fill-opacity:1;fill-rule:nonzero;stroke:none"
       id="path25672"
       d="m 473.45572,352.97519 c 0.41156,1.60604 0.60132,3.24918 0.72778,4.89401 0.10061,0.79577 -0.15434,1.94989 0.6451,2.49413 0.63258,0.52787 0.80656,0.0362 1.36086,-0.39912 1.12296,-1.05419 1.36481,-2.46981 1.55357,-3.88958 0.15386,-1.46957 0.1727,-2.9469 0.16932,-4.42227 -0.003,-0.41923 -0.007,-0.83851 -0.0199,-1.25757 3.65075,-0.33331 2.59597,-0.54148 3.2992,1.97025 0.61955,1.9221 1.16557,3.86839 1.78408,5.79117 0.41601,0.86324 0.44638,2.08522 1.15065,2.71182 0.21786,0.0773 0.16888,0.0723 -0.0946,-0.10731 1.90791,0.0572 1.82224,2.60703 -0.0857,2.54979 l 0,0 c -1.22621,-0.21325 -0.72697,-0.006 -1.55258,-0.48636 -1.18487,-1.08093 -1.53601,-2.47302 -2.0022,-3.9308 -0.62048,-1.95487 -1.18509,-3.92718 -1.81065,-5.88021 -0.31108,-1.12631 -1.51956,-4.13727 2.00974,-2.70608 0.0141,0.44651 0.019,0.89323 0.0215,1.33993 0.003,1.58654 -0.0194,3.17528 -0.19162,4.75503 -0.29393,2.09576 -0.82738,4.08952 -2.55656,5.56338 -1.73238,1.25569 -3.23973,1.68756 -4.99167,0.15561 -1.09353,-1.19654 -1.41528,-2.49735 -1.38111,-4.06827 -0.11347,-1.49829 -0.28216,-2.99533 -0.65417,-4.45882 -0.46298,-1.75002 2.15599,-2.36875 2.61895,-0.61873 z"
       inkscape:connector-curvature="0" />
    <path
       style="fill:#000000;fill-opacity:1;fill-rule:nonzero;stroke:none"
       id="path25674"
       d="m 489.65852,351.0134 c 1.19076,1.74836 1.71548,3.78189 2.44045,5.72183 0.5198,1.35517 0.87342,2.74912 1.03618,4.18066 0.0643,0.63806 0.0717,1.27993 0.063,1.92038 -0.0267,1.07197 0.0247,0.58813 -2.70934,-0.0496 -0.23833,-0.0556 -0.002,-0.46396 -0.003,-0.69594 0.2767,-1.29554 0.57809,-2.5802 0.74585,-3.89459 0.0877,-1.62705 0.65079,-3.15297 1.52793,-4.54035 0.69102,-1.04679 1.66297,-1.6895 2.911,-1.98579 1.40751,-0.26638 2.47041,0.53661 3.37451,1.43398 1.10482,1.05742 1.6569,2.332 1.99732,3.75718 0.25856,1.38463 0.24981,2.79692 0.25735,4.19827 -0.0606,0.68241 0.25406,1.30775 0.53276,1.92491 0.24895,0.54487 0.41378,0.47454 -0.7256,-0.30446 1.89415,0.22359 1.55954,2.75499 -0.33461,2.5314 l 0,0 c -0.96531,-0.54399 -1.09881,-0.46571 -1.42461,-1.22985 -0.41328,-0.92333 -0.80845,-1.88873 -0.74746,-2.90924 -0.006,-1.22039 0.006,-2.44976 -0.19336,-3.65872 -0.23075,-1.00679 -0.55867,-1.85657 -1.36203,-2.5963 -0.30061,-0.35532 -0.5812,-0.67335 -0.80678,-0.6531 -0.55514,0.0236 -0.88601,0.44656 -1.18596,0.83879 -0.7323,1.0361 -1.05701,2.26769 -1.14073,3.50193 -0.15678,1.2046 -0.34376,2.41851 -0.72602,3.57976 5.8e-4,0.22687 0.23763,0.63463 0.003,0.68061 -2.8909,0.56532 -2.71298,1.04021 -2.68945,0.0374 0.008,-0.53957 0.004,-1.08046 -0.0482,-1.61819 -0.13556,-1.23421 -0.4498,-2.43191 -0.89718,-3.59982 -0.68785,-1.84179 -1.17366,-3.77296 -2.30943,-5.4302 -0.85368,-1.61345 1.56088,-2.75432 2.41456,-1.14088 z"
       inkscape:connector-curvature="0" />
    <path
       style="fill:#000000;fill-opacity:1;fill-rule:nonzero;stroke:none"
       id="path25676"
       d="m 510.62911,351.66578 c -1.35058,0.56248 -2.4445,1.42975 -3.09916,2.67942 -0.93396,1.93083 -1.53875,4.0016 -1.23885,6.12468 0.38724,1.75395 1.53479,2.34973 3.23244,2.76914 1.27781,0.1221 2.40324,-0.39334 3.43607,-1.03316 0.142,-0.0914 0.284,-0.18287 0.426,-0.2743 1.57798,-1.01507 3.09706,1.09378 1.51908,2.10885 l 0,0 c -0.15581,0.10014 -0.31163,0.20029 -0.46745,0.30044 -1.7002,1.0487 -3.57123,1.68203 -5.63447,1.35663 -2.92408,-0.79598 -4.5347,-2.02123 -5.19406,-4.94031 -0.28046,-2.65922 0.30918,-5.22294 1.54874,-7.62908 1.1076,-1.83177 2.6768,-3.22447 4.81693,-3.93721 1.85187,-0.43751 2.50661,2.03739 0.65473,2.4749 z"
       inkscape:connector-curvature="0" />
    <path
       style="fill:#000000;fill-opacity:1;fill-rule:nonzero;stroke:none"
       id="path25678"
       d="m 519.34824,339.36946 c 0.58983,2.51506 0.63635,5.10916 0.73047,7.67325 0.27068,3.07812 0.623,6.14857 0.84177,9.23073 0.0669,1.08423 0.13587,2.16884 0.16539,3.25472 0.005,0.0846 10e-4,0.1691 6e-5,0.25363 -0.0731,1.80257 -2.77066,1.70491 -2.69759,-0.0977 l 0,0 c -3.8e-4,-0.0303 -6.5e-4,-0.0607 -10e-4,-0.091 -0.0281,-1.05069 -0.0963,-2.1001 -0.16023,-3.14922 -0.22015,-3.10961 -0.58225,-6.20681 -0.8462,-9.31304 -0.0871,-2.38541 -0.1218,-4.79974 -0.65148,-7.14272 -0.46297,-1.75003 2.15599,-2.36875 2.61896,-0.61873 z"
       inkscape:connector-curvature="0" />
    <path
       style="fill:#000000;fill-opacity:1;fill-rule:nonzero;stroke:none"
       id="path25680"
       d="m 516.2346,350.68816 c 2.05244,-0.43365 4.1597,-0.56432 6.25356,-0.68856 1.18267,-0.0602 2.36657,-0.0967 3.55092,-0.10379 0.29953,-10e-4 0.59908,-6.1e-4 0.89858,0.004 0.0113,2.8e-4 0.0226,5.7e-4 0.0338,6.1e-4 1.90811,0.0514 1.83125,2.60139 -0.0769,2.55004 l 0,0 c -0.004,-1.2e-4 -0.008,-2.4e-4 -0.0116,-3.6e-4 -0.27569,-0.004 -0.55145,-0.004 -0.82718,-0.004 -1.13362,0.007 -2.26681,0.0417 -3.39887,0.0988 -1.93023,0.11415 -3.87341,0.22892 -5.76771,0.61739 -1.85188,0.4375 -2.50662,-2.0374 -0.65474,-2.47491 z"
       inkscape:connector-curvature="0" />
    <path
       style="fill:#000000;fill-opacity:1;fill-rule:nonzero;stroke:none"
       id="path25682"
       d="m 533.74589,352.12484 c 0.41502,1.93914 0.56718,3.90694 0.96321,5.85023 0.12416,1.29434 0.6541,2.43602 1.16056,3.61951 0.14559,0.34379 0.2891,0.68841 0.42439,1.03596 0.005,0.0134 0.01,0.0267 0.0149,0.0402 0.6263,1.70403 -1.92382,2.54103 -2.55012,0.837 l 0,0 c -10e-4,-0.003 -0.002,-0.006 -0.003,-0.009 -0.12353,-0.31795 -0.25592,-0.63276 -0.38852,-0.94742 -0.57008,-1.33293 -1.14433,-2.64585 -1.30878,-4.09393 -0.38572,-1.89798 -0.55579,-3.81549 -0.93119,-5.71326 -0.46297,-1.75003 2.15599,-2.36875 2.61896,-0.61873 z"
       inkscape:connector-curvature="0" />
    <path
       style="fill:#000000;fill-opacity:1;fill-rule:nonzero;stroke:none"
       id="path25684"
       d="m 531.80642,342.0766 c 1.15647,0.94641 1.73225,2.16844 1.91743,3.57374 0.10079,1.92736 0.2161,1.37802 -2.72234,0.92834 -0.0305,-0.85511 -0.0289,-1.71098 -0.0271,-2.56648 10e-4,-1.26076 -0.0837,-0.48339 2.48583,-1.23669 0.24912,0.22185 0.48892,0.4527 0.72243,0.68914 0.73438,0.91542 -0.50862,2.186 -1.49355,2.19368 -1.90883,0.0133 -1.92872,-2.53771 -0.0199,-2.551 l 0,0 c 1.08656,-0.006 0.0293,1.17897 -0.47324,2.08455 -0.18379,-0.18669 -0.37369,-0.36796 -0.5691,-0.54383 2.28548,-1.23154 2.04346,-1.78263 2.04707,-0.6306 -0.002,0.80248 -0.003,1.60522 0.0222,2.40741 -3.2026,0.28832 -2.58137,0.98306 -2.65426,-0.48357 -0.0883,-0.8525 -0.41541,-1.502 -1.14436,-2.06081 -1.34978,-1.27554 0.5591,-3.07942 1.90888,-1.80388 z"
       inkscape:connector-curvature="0" />
    <path
       style="fill:#000000;fill-opacity:1;fill-rule:nonzero;stroke:none"
       id="path25686"
       d="m 543.75854,350.68335 c -1.07592,1.26607 -1.64264,2.84561 -2.14698,4.3775 -0.51081,1.53172 -0.40289,2.55156 0.41552,3.88611 0.55159,0.80863 1.15256,1.57984 2.16815,1.83764 0.98106,0.25414 1.40818,0.0876 2.01867,-0.62948 1.04449,-0.87039 1.44175,-1.96671 1.67816,-3.22048 0.37359,-1.52749 -0.0622,-2.7078 -0.83481,-4.02684 -0.62522,-1.03378 -1.51265,-1.66065 -2.68991,-1.99982 -0.19549,-0.2251 -1.31233,0.14252 -0.78149,0.0984 -1.05078,1.50597 -3.30453,0.10169 -2.25374,-1.4043 l 0,0 c 0.94309,-1.20232 2.34237,-1.5104 3.85715,-1.12409 1.83384,0.57057 3.26373,1.5995 4.23705,3.20668 1.04578,1.82773 1.60018,3.63399 1.11966,5.71714 -0.34654,1.7028 -0.95558,3.27127 -2.34188,4.47689 -1.39099,1.35371 -2.8979,1.89389 -4.86215,1.32616 -1.62891,-0.55652 -2.77859,-1.57946 -3.65857,-2.99197 -1.18584,-1.98133 -1.35584,-3.71469 -0.64759,-5.9157 0.64269,-1.92206 1.3859,-3.88006 2.81388,-5.41775 1.34978,-1.27554 3.25866,0.52834 1.90888,1.80388 z"
       inkscape:connector-curvature="0" />
    <path
       style="fill:#000000;fill-opacity:1;fill-rule:nonzero;stroke:none"
       id="path25688"
       d="m 553.5481,349.31269 c 0.94398,2.12598 1.27206,4.41362 1.51757,6.68863 0.0278,1.96155 0.36734,3.8791 0.74113,5.8014 0.11755,0.62044 0.23621,1.24077 0.34276,1.86301 -0.0501,-0.004 0.0722,0.14297 0.022,0.14097 -3.02945,-0.12043 -2.68926,0.53529 -2.69246,-1.2105 -0.0528,-1.97178 -0.0166,-3.92248 0.26522,-5.87759 0.33586,-1.89815 1.25412,-3.56983 2.30888,-5.18453 0.8206,-1.16048 1.94086,-1.9397 3.33917,-2.34426 1.0237,-0.24977 1.97222,-0.18962 2.95406,0.17765 1.2156,0.5193 1.89551,1.54141 2.3405,2.67999 0.48262,1.75948 0.45805,3.59766 0.4881,5.40278 0.0245,0.76573 -0.01,3.57006 0.89851,3.91958 1.0975,0.47344 2.19879,0.2857 3.337,0.10183 0.19412,-0.0607 0.38824,-0.12138 0.58236,-0.18206 1.82351,-0.53341 2.62176,1.90359 0.79825,2.43699 l 0,0 c -0.3101,0.0868 -0.62018,0.1736 -0.93027,0.26039 -2.02344,0.32062 -3.99857,0.3988 -5.7242,-0.84011 -1.55072,-1.75844 -1.6487,-3.42247 -1.66089,-5.65676 -0.0253,-1.53732 -0.003,-3.09827 -0.34028,-4.60918 -0.16728,-0.53278 -0.45691,-1.01436 -0.82543,-1.15784 -0.36913,-0.16176 -0.72741,-0.18468 -1.2005,-0.0739 -0.76089,0.1283 -1.3077,0.66993 -1.75924,1.2249 -0.85663,1.31137 -1.64227,2.6484 -1.9315,4.19114 -0.26878,1.83821 -0.28571,3.67187 -0.24019,5.52652 0.003,1.83753 0.34309,1.09096 -2.69399,1.48121 -0.10334,-0.60432 -0.21901,-1.2067 -0.33294,-1.80929 -0.38661,-1.98901 -0.73736,-3.97636 -0.7718,-6.00508 -0.20989,-1.96934 -0.47606,-3.94875 -1.24634,-5.80505 -0.85367,-1.61344 1.56089,-2.75432 2.41456,-1.14087 z"
       inkscape:connector-curvature="0" />
    <path
       style="fill:#000000;fill-opacity:1;fill-rule:nonzero;stroke:none"
       id="path25690"
       d="m 492.20117,82.344799 c 0.9412,0.26267 1.94891,0.13406 2.90816,0.0101 0.0468,0.0338 0.67547,-0.15897 0.33205,-0.0429 0.0789,0.81335 0.24525,1.62334 0.23661,2.44006 -0.002,0.20784 -0.43986,-0.004 -0.65981,-0.005 -0.62022,-6.1e-4 -1.24046,0.002 -1.86068,0.003 -1.60551,-0.0521 -3.14652,0.4355 -4.60991,1.01251 -1.44706,0.74479 -2.1429,1.21811 -2.59763,2.70641 -0.46578,1.92143 -0.20885,3.83025 0.45037,5.67582 0.5835,1.37156 1.00216,3.10352 2.49193,3.83691 1.34367,0.52532 2.66733,0.0758 3.92034,-0.46676 0.7466,-0.30656 1.47217,-0.64388 2.17917,-1.02381 1.66359,-0.88462 2.98745,1.33863 1.32387,2.22325 l 0,0 c -0.78616,0.41457 -1.58388,0.79916 -2.41255,1.13423 -2.09816,0.852861 -4.27536,1.337161 -6.42044,0.308771 -1.98565,-1.229301 -2.93096,-3.119491 -3.64789,-5.218861 -0.80011,-2.36555 -1.11638,-4.79395 -0.45958,-7.2362 0.78027,-2.22293 1.96025,-3.25812 4.14592,-4.29921 1.79315,-0.68843 3.67008,-1.26323 5.63061,-1.20413 0.76895,-0.002 1.53822,-0.009 2.30715,-10e-4 0.11472,10e-4 0.30202,-0.0951 0.34414,0.006 0.32927,0.78869 0.45682,1.63982 0.68523,2.45973 -0.32763,0.1163 -0.67211,0.17299 -1.01794,0.21964 -1.29783,0.16369 -2.64789,0.28097 -3.92386,-0.0634 -1.85188,-0.43751 -1.19714,-2.91241 0.65474,-2.47491 z"
       inkscape:connector-curvature="0" />
    <path
       style="fill:#000000;fill-opacity:1;fill-rule:nonzero;stroke:none"
       id="path25692"
       d="m 505.0332,85.308209 c -0.83627,1.34331 -1.52741,2.70682 -1.93494,4.21965 -0.35408,1.4379 -0.0176,2.90562 0.63438,4.22254 0.54672,0.97794 1.25514,1.60851 2.37422,1.90743 0.90986,-0.18067 1.17588,-1.26878 1.40871,-1.98651 0.44559,-1.94807 0.63923,-3.93106 0.34551,-5.90619 -0.20508,-0.70926 -0.45852,-1.14932 -1.22016,-1.25585 -1.1131,-0.0525 -2.17152,-0.17944 -3.22043,-0.55588 -0.70266,-0.39878 -1.72537,-0.41797 0.4766,-0.3345 -1.64554,0.91426 -3.01376,-1.28488 -1.36823,-2.19914 l 0,0 c 1.38722,-0.0443 1.12073,-0.20337 1.86794,0.15524 0.94209,0.35735 1.90251,0.31021 2.89627,0.45877 1.8255,0.49031 2.84045,1.62032 3.24279,3.38654 0.33294,2.36414 0.13002,4.74095 -0.46045,7.0611 -0.79109,2.11749 -2.11905,3.99307 -4.79252,3.60576 -1.82825,-0.58788 -3.15186,-1.64627 -4.01845,-3.30346 -0.8473,-1.87318 -1.31023,-3.87612 -0.77896,-5.8975 0.46938,-1.67945 1.19346,-3.22687 2.13316,-4.71888 0.85368,-1.61344 3.26824,-0.47257 2.41456,1.14088 z"
       inkscape:connector-curvature="0" />
    <path
       style="fill:#000000;fill-opacity:1;fill-rule:nonzero;stroke:none"
       id="path25694"
       d="m 515.3567,82.727679 c 0.39532,1.3625 0.60517,2.7585 0.72689,4.16363 0.11709,1.81326 0.10741,3.63124 0.1116,5.44711 10e-4,1.44282 -0.002,2.88564 -0.004,4.32846 -2.1e-4,0.13734 -4.3e-4,0.27468 -6.4e-4,0.41202 -0.003,2.01302 -2.70054,1.48758 -2.70089,-0.37328 0.27707,-1.55228 0.5855,-3.09198 0.74286,-4.66117 0.22812,-1.95061 0.93502,-3.77766 1.83052,-5.53309 0.76656,-1.38298 1.91317,-2.48382 3.40945,-3.13701 0.65024,-0.27345 1.3324,-0.34874 2.03521,-0.3485 0.30377,0.10621 0.65232,0.13484 0.91131,0.31864 0.86819,0.61615 1.08669,2.30616 1.32458,3.23807 0.25125,1.68253 0.7256,3.3205 1.04302,4.992 0.10388,1.4193 0.45709,2.77823 0.88243,4.1367 0.16264,0.445 0.30772,0.88286 0.40412,1.34354 0.20914,1.79302 -2.47417,2.07253 -2.68331,0.2795 l 0,0 c 0.1877,0.51372 -0.3197,-0.85494 -0.30969,-0.90006 -0.45179,-1.44633 -0.8336,-2.90199 -0.95108,-4.41124 -0.30498,-1.62295 -0.77438,-3.21238 -1.01094,-4.84677 -0.18153,-0.72394 -0.12356,-0.53953 -0.34253,-1.23413 -0.0652,-0.20689 -0.1462,-0.4096 -0.20047,-0.61929 -0.009,-0.0353 -0.0231,-0.12332 0.0121,-0.10858 1.20301,0.50367 -0.76984,0.0478 0.913,0.36268 -0.32568,-0.002 -0.62614,-0.002 -0.93203,0.12893 -0.92455,0.35655 -1.59827,1.10179 -2.07509,1.91658 -0.76141,1.48099 -1.37336,3.01655 -1.57327,4.66463 -0.15134,1.48627 -0.38061,2.96092 -0.73063,4.41812 3.4e-4,1.85947 -2.70137,2.37432 -2.69823,0.36995 2.1e-4,-0.13735 4.3e-4,-0.27471 6.5e-4,-0.41206 0.003,-1.4397 0.005,-2.87939 0.004,-4.31909 -0.004,-1.74915 0.006,-3.50027 -0.10283,-5.24709 -0.10678,-1.26616 -0.29679,-2.52341 -0.65506,-3.75047 -0.46298,-1.75002 2.15599,-2.36875 2.61895,-0.61873 z"
       inkscape:connector-curvature="0" />
    <path
       style="fill:#000000;fill-opacity:1;fill-rule:nonzero;stroke:none"
       id="path25696"
       d="m 535.678,83.765909 c -1.13776,-0.38199 -2.1705,-0.33321 -3.27101,0.0606 -0.70479,0.19873 -0.75429,0.65329 -0.84998,1.27643 -0.0994,0.70321 -0.10177,1.41366 -0.0928,2.1217 0.0702,-0.33713 -0.0286,-0.034 0.10511,-0.03 0.0512,0.002 0.0109,-0.15569 0.0572,-0.13488 0.31972,0.14371 0.61177,0.33756 0.9266,0.49061 1.15758,0.43507 2.41989,0.45734 3.62751,0.6952 1.81615,0.36338 3.17109,1.45439 4.21651,2.85058 1.12927,1.89403 0.80873,3.13843 -0.43938,4.8737 -1.13527,1.55733 -2.75405,2.59181 -4.54147,3.37387 -1.94905,0.744551 -3.23287,0.42952 -4.63409,-0.99748 -1.20651,-1.39787 0.88544,-3.0103 2.09196,-1.61243 l 0,0 c 0.26825,0.62394 0.80328,0.53638 1.41688,0.29102 1.34632,-0.57629 2.58189,-1.32241 3.43753,-2.49384 0.56735,-0.78031 0.97147,-1.05851 0.43422,-2.00315 -0.59033,-0.89582 -1.45334,-1.55974 -2.55917,-1.79015 -1.42971,-0.31733 -2.96035,-0.27209 -4.30067,-0.92629 -1.19023,-0.59429 -2.35432,-1.15605 -2.53813,-2.55712 -0.0104,-0.86663 -10e-4,-1.73618 0.13382,-2.59541 0.29923,-1.46257 0.97471,-2.72253 2.57373,-3.22571 1.6078,-0.5504 3.21216,-0.6543 4.86035,-0.14217 1.85188,0.43751 1.19715,2.91241 -0.65474,2.47491 z"
       inkscape:connector-curvature="0" />
    <path
       style="fill:#000000;fill-opacity:1;fill-rule:nonzero;stroke:none"
       id="path25698"
       d="m 547.75142,74.224099 c 0.49621,2.25295 0.628,4.55378 0.7301,6.84667 0.0996,2.99778 0.10326,5.99747 0.10839,8.99644 10e-4,1.67735 -10e-4,3.35468 -0.004,5.03203 -5.5e-4,0.33506 -10e-4,0.67012 -0.002,1.00519 -0.003,1.80388 -2.70272,1.79965 -2.69956,-0.004 l 0,0 c 5.8e-4,-0.33495 10e-4,-0.6699 0.002,-1.00486 0.003,-1.67467 0.006,-3.34934 0.004,-5.02401 -0.005,-2.96475 -0.009,-5.9302 -0.10603,-8.89379 -0.0936,-2.12072 -0.2102,-4.24801 -0.65186,-6.33471 -0.46297,-1.75002 2.15599,-2.36875 2.61896,-0.61873 z"
       inkscape:connector-curvature="0" />
    <path
       style="fill:#000000;fill-opacity:1;fill-rule:nonzero;stroke:none"
       id="path25700"
       d="m 542.5618,83.836939 c 1.85835,-0.8299 3.87841,-1.18793 5.9015,-1.43064 1.23696,-0.13314 2.48167,-0.19377 3.72609,-0.21244 1.11992,-0.0203 0.66761,0.0805 1.82581,1.47234 -6.5e-4,0.0709 -0.002,0.14175 -0.003,0.21262 -0.026,1.80372 -2.72529,1.769 -2.69931,-0.0347 l 0,0 c 6.5e-4,-0.0495 0.002,-0.099 0.003,-0.1485 1.27419,1.10442 1.7561,1.05056 0.91569,1.04902 -1.14599,0.0166 -2.29232,0.0719 -3.43158,0.19284 -1.7209,0.20204 -3.44362,0.48951 -5.03085,1.18123 -1.70735,0.80672 -2.91463,-1.47503 -1.20728,-2.28175 z"
       inkscape:connector-curvature="0" />
    <path
       style="fill:#000000;fill-opacity:1;fill-rule:nonzero;stroke:none"
       id="path25702"
       d="m 559.44952,85.278759 c 0.45394,1.69368 0.61721,3.42868 0.72882,5.16694 0.0928,1.74944 0.10352,3.50145 0.10966,5.25269 4.6e-4,0.67073 10e-4,1.34149 -0.005,2.0122 -0.90003,-0.15271 -1.8605,-0.11574 -2.70007,-0.45813 -0.20832,-0.085 0.016,-0.42938 -5.7e-4,-0.64321 -0.0938,-1.2096 -0.37692,-2.42945 -0.53277,-3.63483 -0.13477,-1.73882 -0.4679,-3.50044 -0.23059,-5.23962 0.41832,-1.75955 2.0049,-2.37952 3.69472,-2.73134 1.48321,-0.16998 3.00761,-0.39587 4.48269,-0.11164 1.10633,0.36159 1.43628,1.27077 1.64552,2.21974 0.10546,0.19371 0.23873,0.37014 0.38283,0.53905 1.21464,1.39157 -0.86789,3.01485 -2.08253,1.62327 l 0,0 c -0.34378,-0.39973 -0.63877,-0.83431 -0.84587,-1.31303 -0.0644,-0.20978 -0.13996,-0.41678 -0.1932,-0.62934 -0.10369,-0.41404 0.1579,0.0775 0.3455,0.0115 -0.81277,-0.0731 -2.1802,0.0256 -3.18028,0.15703 -0.51326,0.0942 -1.34791,0.12345 -1.58476,0.64377 -0.39341,1.42826 0.31148,3.07427 0.24567,4.52159 0.16888,1.31017 0.45243,2.62541 0.55263,3.94164 0.0162,0.21292 0.20962,0.55953 5.7e-4,0.64042 -0.84273,0.32604 -1.79888,0.26887 -2.69831,0.40331 0.005,-0.64798 0.005,-1.29602 0.004,-1.94402 -0.006,-1.70283 -0.0159,-3.4064 -0.10478,-5.10754 -0.10029,-1.58158 -0.24021,-3.16042 -0.65312,-4.70179 -0.46297,-1.75002 2.15599,-2.36875 2.61896,-0.61873 z"
       inkscape:connector-curvature="0" />
    <path
       style="fill:#000000;fill-opacity:1;fill-rule:nonzero;stroke:none"
       id="path25704"
       d="m 576.78968,87.012489 c -1.6118,-0.39647 -3.06989,0.0991 -4.31124,1.06965 -1.30071,1.27397 -1.81061,2.9235 -2.11706,4.62153 -0.2876,1.16122 0.1021,1.72163 1.02416,2.41032 0.74311,0.39177 1.5423,0.6464 2.33575,0.26606 1.11409,-0.9323 1.65964,-2.22916 2.28221,-3.46907 0.67951,-1.5546 1.04863,-3.20248 1.29632,-4.86151 0.0445,-0.26545 0.0913,-0.78493 0.0979,-0.98621 0.0767,0.96238 -0.0606,-0.29437 2.66203,0.39311 0.0174,0.004 -0.01,1.79725 -0.005,2.67502 0.005,2.30526 -0.0693,4.60078 0.26563,6.88826 0.0949,0.36188 0.62145,2.24612 1.32923,1.89514 -0.0907,-0.0631 -0.0324,-0.19948 -0.0256,-0.2193 1.29073,-1.32899 3.27961,0.39598 1.98887,1.72497 l 0,0 c -0.73934,0.641641 -1.25764,0.987421 -2.31179,1.024051 -2.20556,-0.4212 -3.22716,-2.073281 -3.65538,-4.079321 -0.34342,-2.39946 -0.29786,-4.80447 -0.29048,-7.22208 -6.4e-4,-0.19351 0.005,-2.88296 0.0136,-2.88581 0.86153,-0.29663 1.80142,-0.33563 2.71288,-0.43015 0.0519,-0.005 0.01,0.0982 0.0143,0.14732 0.01,0.48006 -0.0657,0.95766 -0.12303,1.43333 -0.28861,1.91306 -0.72684,3.8112 -1.53019,5.59679 -0.92054,1.8333 -1.8158,3.75397 -3.79487,4.77166 -1.79026,0.54392 -3.45821,0.32039 -5.0159,-0.72294 -1.53554,-1.29019 -2.40932,-2.78978 -1.92935,-4.78978 0.44065,-2.32743 1.24262,-4.53032 3.1172,-6.19393 2.06816,-1.46703 4.41302,-2.17745 6.97277,-1.42573 1.77234,0.66994 0.76976,3.03856 -1.00259,2.36862 z"
       inkscape:connector-curvature="0" />
    <path
       style="fill:#000000;fill-opacity:1;fill-rule:nonzero;stroke:none"
       id="path25706"
       d="m 588.25026,85.868049 c 0.93584,1.95225 1.26156,4.09754 1.51591,6.20891 0.13548,1.2421 0.20261,2.49035 0.22282,3.73866 0.001,0.23506 0.003,0.13468 -0.003,0.30118 -0.11424,1.80065 -2.80896,1.64797 -2.69472,-0.15268 l 0,0 c -4.3e-4,0.0212 -6.5e-4,0.0425 -0.001,0.0637 -2.2e-4,-0.0579 -4.4e-4,-0.11589 -6.5e-4,-0.17383 -0.0183,-1.16542 -0.0809,-2.33082 -0.20604,-3.49053 -0.21537,-1.81467 -0.47461,-3.66561 -1.24799,-5.35458 -0.85368,-1.61344 1.56088,-2.75432 2.41456,-1.14087 z"
       inkscape:connector-curvature="0" />
    <path
       style="fill:#000000;fill-opacity:1;fill-rule:nonzero;stroke:none"
       id="path25708"
       d="m 586.44511,75.924819 c 0.2521,1.30074 -0.0314,2.49646 -0.75843,3.60588 -0.0624,0.0808 -0.10869,0.30961 -0.18729,0.24253 -2.37138,-2.02398 -2.36748,-1.40902 -1.23351,-2.30761 0.44059,-0.34915 0.86778,-0.69655 1.33473,-1.01813 0.8489,-0.42868 2.11089,-1.22105 3.10818,-0.66141 0.30017,0.16845 0.52309,0.43702 0.78463,0.65553 0.82074,1.37146 0.41328,2.57442 -0.73171,3.62331 -1.12751,0.84176 -2.4001,1.21315 -3.78074,0.7716 -1.65283,-1.05912 -1.01681,-2.56283 0.13395,-3.67617 1.34741,-1.27778 3.25963,0.52293 1.91222,1.80071 l 0,0 c -0.70413,0.64245 -0.19418,-0.23009 -1.06854,-0.50246 0.0702,0.33029 0.84742,-0.22946 1.03274,-0.31957 0.52091,-0.23356 0.0354,0.44529 0.3138,-0.20353 1.02921,0.53471 1.29027,-0.15067 -0.11822,0.57616 -1.05967,0.72416 -3.01496,2.87534 -3.77799,-0.35023 0.36533,-0.51066 0.50188,-0.99144 0.41722,-1.61789 -0.46296,-1.75002 2.15599,-2.36875 2.61896,-0.61872 z"
       inkscape:connector-curvature="0" />
    <path
       style="fill:#000000;fill-opacity:1;fill-rule:nonzero;stroke:none"
       id="path25710"
       d="m 595.44365,82.727679 c 0.4765,1.72298 0.49103,3.51485 0.81933,5.25841 0.33259,1.49815 0.60994,3.00514 0.80771,4.52433 0.0466,0.37876 0.0911,0.75797 0.11242,1.13881 -3.31682,-0.0657 -2.70294,0.35041 -2.7056,-1.91117 -0.10113,-1.62103 0.0431,-3.1722 0.58968,-4.71227 0.48887,-1.63235 1.69278,-2.80019 2.94239,-3.93852 0.82015,-0.6502 1.69356,-1.24778 2.70079,-1.59888 2.27692,-0.12329 2.52246,1.90898 2.67982,3.56826 -0.0236,1.64136 0.3686,3.23714 0.623,4.85158 0.18954,1.29995 0.28972,2.60888 0.35037,3.91919 0.003,0.0904 0.0455,0.35508 0.0101,0.2711 -0.0578,-0.13685 -0.0286,-0.29631 -0.0795,-0.43558 -0.18471,-0.50553 -0.0593,-0.0586 0.47124,0.1253 1.73145,0.75945 0.5949,3.07342 -1.13656,2.31396 l 0,0 c -0.94806,-0.44514 -1.97555,-1.00851 -1.96225,-2.16369 -0.0562,-1.22205 -0.14835,-2.44283 -0.32362,-3.65538 -0.26103,-1.66445 -0.66117,-3.3137 -0.64216,-5.00548 -0.16988,-1.91844 -0.58873,-1.18824 0.80875,-1.35253 -0.52635,0.19426 -1.13448,0.6429 -1.6285,1.00071 -0.94705,0.85923 -1.91465,1.68884 -2.26565,2.94219 -0.49554,1.25522 -0.48909,2.54013 -0.43832,3.8672 0.003,2.23901 0.63053,1.78868 -2.69184,2.00375 -0.0213,-0.30664 -0.056,-0.61239 -0.094,-0.91762 -0.19176,-1.47854 -0.46654,-2.94411 -0.78867,-4.40231 -0.29908,-1.68553 -0.3519,-3.40517 -0.77789,-5.07263 -0.46298,-1.75002 2.15598,-2.36875 2.61895,-0.61873 z"
       inkscape:connector-curvature="0" />
    <path
       style="fill:#000000;fill-opacity:1;fill-rule:nonzero;stroke:none"
       id="path25712"
       d="m 615.25451,68.432519 c 0.41899,3.25255 0.19463,6.58792 -0.0458,9.85115 -0.35588,3.81447 -0.65126,7.6328 -0.82786,11.45847 -0.0772,1.8376 -0.1084,3.67655 -0.11534,5.51547 -6.5e-4,0.32282 -5.6e-4,0.64565 0.005,0.96842 0.057,1.80308 -2.64134,1.87927 -2.69836,0.0762 l 0,0 c -0.008,-0.35119 -0.006,-0.70251 -0.006,-1.05376 0.007,-1.87298 0.039,-3.74599 0.11789,-5.61762 0.178,-3.8482 0.47337,-7.68917 0.83194,-11.52608 0.22817,-3.03745 0.43172,-6.14152 0.0917,-9.17194 -0.37437,-1.76885 2.27277,-2.26916 2.64713,-0.50031 z"
       inkscape:connector-curvature="0" />
    <path
       style="fill:#000000;fill-opacity:1;fill-rule:nonzero;stroke:none"
       id="path25714"
       d="m 609.1821,81.494449 c 1.66823,0.35647 3.37473,0.51314 5.07854,0.61761 1.55072,0.0868 3.10464,0.0939 4.65756,0.0986 0.66227,6.1e-4 1.32455,6.1e-4 1.98681,-0.004 0.0388,4e-5 0.0775,-6.1e-4 0.11633,-0.001 1.90859,-0.0314 1.95555,2.51931 0.0469,2.55069 l 0,0 c -0.048,5.1e-4 -0.0961,0.001 -0.1441,0.002 -0.67153,0.004 -1.34309,0.004 -2.01463,0.004 -1.60896,-0.005 -3.21893,-0.0131 -4.82556,-0.10404 -1.86479,-0.11664 -3.73224,-0.29065 -5.55666,-0.68832 -1.85188,-0.43751 -1.19714,-2.91241 0.65474,-2.47491 z"
       inkscape:connector-curvature="0" />
    <path
       inkscape:connector-curvature="0"
       d="m 647.25981,73.561619 c -1.5211,-0.3421 -3.03746,-0.54056 -4.59149,-0.37963 -1.68273,0.31452 -2.19071,1.48251 -2.58413,2.91541 -0.75729,3.29053 -0.32497,6.63348 0.14758,9.92608 0.41524,2.67399 1.30618,5.22769 2.17023,7.79072 0.53485,1.63325 0.73718,1.53265 0.23034,3.22207 -0.22274,0.13424 -0.44547,0.26847 -0.66821,0.40271 -1.77992,0.65176 -2.7553,-1.72698 -0.97538,-2.37874 l 0,0 c -0.13119,0.10072 -0.26239,0.20143 -0.39358,0.30215 -0.0682,0.35379 -0.11327,0.71228 -0.20457,1.0614 -0.0317,0.1213 -0.066,-0.242 -0.10119,-0.36244 -0.14427,-0.49354 -0.29938,-0.98421 -0.45976,-1.47327 -0.91026,-2.70393 -1.83982,-5.4012 -2.27301,-8.22223 -0.52096,-3.6402 -0.9544,-7.33572 -0.0697,-10.96424 0.82327,-2.59308 1.9418,-4.21976 4.90171,-4.75696 1.86968,-0.17652 3.69996,0.0185 5.52586,0.44206 1.85188,0.4375 1.19714,2.91241 -0.65474,2.47491 z"
       id="path25716"
       style="fill:#000000;fill-opacity:1;fill-rule:nonzero;stroke:none" />
    <path
       inkscape:connector-curvature="0"
       d="m 635.52296,85.542799 c 1.95339,-0.34834 3.85919,-0.86171 5.8192,-1.18452 1.79608,-0.42008 3.60311,-0.79235 5.42037,-1.12052 0.32812,-0.0582 0.65659,-0.11477 0.98625,-0.16472 1.88494,-0.28471 2.31102,2.23439 0.42607,2.5191 l 0,0 c -0.30281,0.0455 -0.60436,0.0983 -0.90579,0.15138 -1.83251,0.3307 -3.65276,0.71256 -5.46577,1.12833 -1.8953,0.3087 -3.73599,0.81447 -5.62558,1.14586 -1.85189,0.43751 -2.50663,-2.03741 -0.65475,-2.47491 z"
       id="path25718"
       style="fill:#000000;fill-opacity:1;fill-rule:nonzero;stroke:none" />
    <path
       inkscape:connector-curvature="0"
       d="m 653.93411,85.278759 c 0.41156,1.60604 0.60132,3.24917 0.72778,4.89401 0.10061,0.79577 -0.15434,1.94989 0.6451,2.49413 0.63258,0.52787 0.80657,0.0362 1.36087,-0.39913 1.12296,-1.05418 1.36481,-2.46981 1.55357,-3.88958 0.15385,-1.46956 0.17269,-2.94689 0.16931,-4.42227 -0.003,-0.41923 -0.007,-0.8385 -0.0199,-1.25756 3.65076,-0.33331 2.59597,-0.54148 3.29921,1.97025 0.61955,1.9221 1.16556,3.86839 1.78408,5.79117 0.41601,0.86324 0.44638,2.08522 1.15065,2.71181 0.21785,0.0774 0.16887,0.0723 -0.0946,-0.1073 1.90791,0.0572 1.82224,2.60703 -0.0857,2.54979 l 0,0 c -1.22622,-0.21325 -0.72697,-0.006 -1.55259,-0.48636 -1.18486,-1.08093 -1.53601,-2.47302 -2.00219,-3.93081 -0.62049,-1.95486 -1.18509,-3.92717 -1.81066,-5.8802 -0.31108,-1.12631 -1.51956,-4.13727 2.00974,-2.70609 0.0141,0.44652 0.019,0.89324 0.0215,1.33994 0.003,1.58654 -0.0194,3.17528 -0.19163,4.75503 -0.29392,2.09576 -0.82737,4.08952 -2.55656,5.56337 -1.73237,1.25569 -3.23972,1.68757 -4.99166,0.15561 -1.09354,-1.19653 -1.41529,-2.49734 -1.38111,-4.06826 -0.11347,-1.49829 -0.28217,-2.99533 -0.65418,-4.45882 -0.46297,-1.75002 2.15599,-2.36875 2.61896,-0.61873 z"
       id="path25720"
       style="fill:#000000;fill-opacity:1;fill-rule:nonzero;stroke:none" />
    <path
       inkscape:connector-curvature="0"
       d="m 670.13691,83.316969 c 1.19076,1.74836 1.71549,3.78189 2.44046,5.72183 0.5198,1.35517 0.87342,2.74912 1.03618,4.18066 0.0643,0.63805 0.0717,1.27993 0.063,1.92038 -0.0267,1.07197 0.0247,0.58813 -2.70934,-0.0496 -0.23833,-0.0556 -0.002,-0.46396 -0.003,-0.69595 0.27669,-1.29554 0.57809,-2.58019 0.74584,-3.89458 0.0877,-1.62705 0.6508,-3.15298 1.52794,-4.54035 0.69101,-1.04679 1.66297,-1.6895 2.911,-1.98579 1.40751,-0.26639 2.4704,0.53661 3.37451,1.43398 1.10481,1.05742 1.65689,2.332 1.99731,3.75717 0.25857,1.38464 0.24981,2.79692 0.25735,4.19828 -0.0606,0.68241 0.25407,1.30775 0.53277,1.92491 0.24895,0.54487 0.41377,0.47453 -0.72561,-0.30446 1.89415,0.22358 1.55955,2.75499 -0.33461,2.5314 l 0,0 c -0.96531,-0.54399 -1.09881,-0.46571 -1.4246,-1.22985 -0.41328,-0.92333 -0.80845,-1.88873 -0.74747,-2.90924 -0.006,-1.22039 0.006,-2.44976 -0.19336,-3.65872 -0.23074,-1.0068 -0.55866,-1.85657 -1.36203,-2.5963 -0.3006,-0.35532 -0.58119,-0.67335 -0.80678,-0.6531 -0.55514,0.0236 -0.88601,0.44656 -1.18596,0.83879 -0.7323,1.0361 -1.05701,2.26769 -1.14073,3.50193 -0.15677,1.2046 -0.34376,2.41851 -0.72601,3.57976 5.7e-4,0.22687 0.23763,0.63463 0.003,0.68061 -2.8909,0.56531 -2.71298,1.04021 -2.68945,0.0373 0.008,-0.53957 0.004,-1.08046 -0.0482,-1.61819 -0.13557,-1.23421 -0.44981,-2.43191 -0.89718,-3.59982 -0.68786,-1.84179 -1.17366,-3.77296 -2.30944,-5.4302 -0.85367,-1.61345 1.56089,-2.75432 2.41456,-1.14088 z"
       id="path25722"
       style="fill:#000000;fill-opacity:1;fill-rule:nonzero;stroke:none" />
    <path
       inkscape:connector-curvature="0"
       d="m 691.10751,83.969349 c -1.35058,0.56248 -2.44451,1.42975 -3.09916,2.67942 -0.93396,1.93083 -1.53875,4.0016 -1.23886,6.12468 0.38724,1.75395 1.5348,2.34973 3.23245,2.76913 1.2778,0.12211 2.40324,-0.39333 3.43607,-1.03316 0.142,-0.0914 0.284,-0.18286 0.426,-0.27429 1.57798,-1.01508 3.09706,1.09378 1.51908,2.10885 l 0,0 c -0.15582,0.10014 -0.31163,0.20028 -0.46745,0.30043 -1.70021,1.04871 -3.57123,1.68203 -5.63448,1.35664 -2.92408,-0.79598 -4.53469,-2.02123 -5.19405,-4.94032 -0.28047,-2.65921 0.30918,-5.22293 1.54873,-7.62907 1.10761,-1.83177 2.6768,-3.22447 4.81693,-3.93721 1.85188,-0.43751 2.50662,2.03739 0.65474,2.4749 z"
       id="path25724"
       style="fill:#000000;fill-opacity:1;fill-rule:nonzero;stroke:none" />
    <path
       inkscape:connector-curvature="0"
       d="m 699.82664,71.673029 c 0.58983,2.51506 0.63634,5.10916 0.73046,7.67324 0.27068,3.07813 0.62301,6.14858 0.84178,9.23073 0.0669,1.08424 0.13586,2.16885 0.16539,3.25473 0.005,0.0846 0.001,0.1691 5e-5,0.25363 -0.0731,1.80256 -2.77066,1.70491 -2.69759,-0.0977 l 0,0 c -3.8e-4,-0.0303 -6.4e-4,-0.0607 -10e-4,-0.091 -0.0281,-1.05069 -0.0963,-2.10011 -0.16023,-3.14922 -0.22014,-3.10961 -0.58225,-6.20681 -0.8462,-9.31304 -0.0871,-2.38541 -0.1218,-4.79974 -0.65148,-7.14272 -0.46297,-1.75003 2.15599,-2.36875 2.61896,-0.61873 z"
       id="path25726"
       style="fill:#000000;fill-opacity:1;fill-rule:nonzero;stroke:none" />
    <path
       inkscape:connector-curvature="0"
       d="m 696.71299,82.991729 c 2.05244,-0.43366 4.15971,-0.56432 6.25357,-0.68856 1.18267,-0.0602 2.36657,-0.0967 3.55091,-0.10379 0.29953,-10e-4 0.59908,-6.1e-4 0.89858,0.004 0.0113,2.9e-4 0.0226,5.8e-4 0.0338,6.1e-4 1.90811,0.0514 1.83126,2.6014 -0.0769,2.55004 l 0,0 c -0.004,-1.1e-4 -0.008,-2.3e-4 -0.0116,-3.5e-4 -0.2757,-0.004 -0.55145,-0.004 -0.82719,-0.004 -1.13362,0.007 -2.26681,0.0417 -3.39886,0.0988 -1.93023,0.11415 -3.87341,0.22892 -5.76771,0.61738 -1.85188,0.43751 -2.50663,-2.03739 -0.65474,-2.4749 z"
       id="path25728"
       style="fill:#000000;fill-opacity:1;fill-rule:nonzero;stroke:none" />
    <path
       inkscape:connector-curvature="0"
       d="m 714.22429,84.428409 c 0.41501,1.93914 0.56718,3.90694 0.9632,5.85023 0.12416,1.29434 0.65411,2.43602 1.16057,3.61951 0.14559,0.34379 0.2891,0.68841 0.42438,1.03596 0.005,0.0134 0.01,0.0267 0.0149,0.0401 0.62629,1.70402 -1.92383,2.54103 -2.55013,0.837 l 0,0 c -10e-4,-0.003 -0.002,-0.006 -0.003,-0.009 -0.12354,-0.31795 -0.25593,-0.63276 -0.38852,-0.94742 -0.57009,-1.33294 -1.14433,-2.64586 -1.30879,-4.09393 -0.38571,-1.89798 -0.55578,-3.81549 -0.93118,-5.71326 -0.46297,-1.75003 2.15598,-2.36875 2.61895,-0.61873 z"
       id="path25730"
       style="fill:#000000;fill-opacity:1;fill-rule:nonzero;stroke:none" />
    <path
       inkscape:connector-curvature="0"
       d="m 712.28481,74.380159 c 1.15647,0.94641 1.73226,2.16845 1.91743,3.57374 0.1008,1.92737 0.21611,1.37803 -2.72233,0.92834 -0.0306,-0.8551 -0.0289,-1.71097 -0.0271,-2.56648 10e-4,-1.26075 -0.0837,-0.48338 2.48583,-1.23668 0.24912,0.22185 0.48893,0.4527 0.72244,0.68913 0.73438,0.91543 -0.50863,2.18601 -1.49356,2.19369 -1.90883,0.0133 -1.92871,-2.53771 -0.0199,-2.55101 l 0,0 c 1.08657,-0.006 0.0293,1.17898 -0.47323,2.08456 -0.18379,-0.18669 -0.37369,-0.36796 -0.5691,-0.54383 2.28548,-1.23154 2.04346,-1.78263 2.04707,-0.6306 -0.002,0.80248 -0.003,1.60522 0.0222,2.40741 -3.2026,0.28832 -2.58136,0.98306 -2.65425,-0.48357 -0.0883,-0.8525 -0.41542,-1.50201 -1.14436,-2.06081 -1.34978,-1.27554 0.55909,-3.07942 1.90887,-1.80389 z"
       id="path25732"
       style="fill:#000000;fill-opacity:1;fill-rule:nonzero;stroke:none" />
    <path
       inkscape:connector-curvature="0"
       d="m 724.23694,82.986919 c -1.07593,1.26607 -1.64265,2.8456 -2.14698,4.3775 -0.51082,1.53171 -0.40289,2.55156 0.41552,3.8861 0.55158,0.80864 1.15256,1.57985 2.16815,1.83765 0.98106,0.25414 1.40817,0.0876 2.01866,-0.62948 1.04449,-0.87039 1.44176,-1.96671 1.67816,-3.22049 0.3736,-1.52748 -0.0622,-2.70779 -0.8348,-4.02683 -0.62523,-1.03378 -1.51265,-1.66065 -2.68991,-1.99982 -0.1955,-0.2251 -1.31234,0.14252 -0.7815,0.0984 -1.05078,1.50597 -3.30452,0.10168 -2.25374,-1.4043 l 0,0 c 0.94309,-1.20232 2.34238,-1.5104 3.85716,-1.12409 1.83383,0.57057 3.26373,1.5995 4.23705,3.20668 1.04577,1.82773 1.60018,3.63399 1.11965,5.71714 -0.34654,1.70279 -0.95557,3.27127 -2.34187,4.47689 -1.39099,1.3537 -2.8979,1.89389 -4.86215,1.32616 -1.62892,-0.55652 -2.7786,-1.57946 -3.65858,-2.99197 -1.18584,-1.98133 -1.35583,-3.71469 -0.64758,-5.9157 0.64268,-1.92206 1.3859,-3.88006 2.81387,-5.41775 1.34979,-1.27555 3.25866,0.52834 1.90889,1.80388 z"
       id="path25734"
       style="fill:#000000;fill-opacity:1;fill-rule:nonzero;stroke:none" />
    <path
       inkscape:connector-curvature="0"
       d="m 734.0265,81.616249 c 0.94398,2.12599 1.27206,4.41363 1.51757,6.68864 0.0278,1.96155 0.36733,3.8791 0.74113,5.8014 0.11754,0.62044 0.23621,1.24077 0.34276,1.86301 -0.0501,-0.004 0.0722,0.14297 0.022,0.14097 -3.02945,-0.12043 -2.68926,0.53529 -2.69247,-1.2105 -0.0528,-1.97179 -0.0166,-3.92248 0.26522,-5.87759 0.33587,-1.89815 1.25413,-3.56984 2.30889,-5.18453 0.8206,-1.16048 1.94086,-1.93971 3.33917,-2.34427 1.02369,-0.24976 1.97222,-0.18962 2.95405,0.17766 1.21561,0.5193 1.89551,1.5414 2.34051,2.67999 0.48261,1.75947 0.45805,3.59766 0.48809,5.40278 0.0245,0.76573 -0.01,3.57006 0.89852,3.91958 1.09749,0.47344 2.19879,0.2857 3.33699,0.10182 0.19412,-0.0607 0.38825,-0.12137 0.58236,-0.18205 1.82352,-0.53341 2.62177,1.90359 0.79825,2.43699 l 0,0 c -0.31009,0.0868 -0.62018,0.1736 -0.93027,0.26039 -2.02343,0.32062 -3.99857,0.3988 -5.72419,-0.84011 -1.55073,-1.75844 -1.64871,-3.42248 -1.66089,-5.65676 -0.0253,-1.53732 -0.003,-3.09827 -0.34028,-4.60918 -0.16728,-0.53278 -0.45692,-1.01436 -0.82543,-1.15784 -0.36914,-0.16176 -0.72742,-0.18469 -1.2005,-0.0739 -0.76089,0.1283 -1.30771,0.66993 -1.75925,1.2249 -0.85662,1.31137 -1.64227,2.64839 -1.93149,4.19114 -0.26879,1.83821 -0.28571,3.67187 -0.24019,5.52652 0.003,1.83753 0.34308,1.09096 -2.69399,1.48121 -0.10334,-0.60432 -0.21901,-1.2067 -0.33295,-1.80929 -0.38661,-1.98901 -0.73735,-3.97637 -0.7718,-6.00508 -0.20989,-1.96935 -0.47606,-3.94875 -1.24633,-5.80505 -0.85368,-1.61344 1.56088,-2.75432 2.41456,-1.14088 z"
       id="path25736"
       style="fill:#000000;fill-opacity:1;fill-rule:nonzero;stroke:none" />
    <path
       style="fill:#000000;fill-opacity:1;fill-rule:nonzero;stroke:none"
       id="path25740"
       d="m 470.40651,250.40517 c -4.58064,1.74371 -9.18603,3.40659 -13.70739,5.30995 -7.08194,2.75224 -10.71321,6.26009 -14.81502,12.54438 -5.06796,8.69366 -6.3303,18.71162 -7.27542,28.54816 -0.10206,1.55366 -0.20412,3.10732 -0.30618,4.66098 -0.0647,0.98319 -1.45509,0.89176 -1.39043,-0.0914 l 0,0 c 0.10319,-1.56767 0.20638,-3.13533 0.30958,-4.703 0.96934,-10.06239 2.28929,-20.29723 7.49668,-29.17802 4.35926,-6.63775 7.98221,-10.10914 15.44021,-13.06537 4.52921,-1.90617 9.14194,-3.57327 13.73046,-5.31942 0.91484,-0.36593 1.43235,0.92784 0.51751,1.29377 z"
       inkscape:connector-curvature="0" />
    <path
       style="fill:#000000;fill-opacity:1;fill-rule:nonzero;stroke:none"
       id="path25744"
       d="m 489.59355,123.17315 c 3.11141,-0.48683 5.72854,-2.18815 8.2243,-4.00161 3.6233,-2.85018 6.67707,-6.31692 9.40457,-10.01434 2.048,-3.08299 1.08427,-1.53216 2.89841,-4.64799 0.49616,-0.85127 1.70003,-0.1496 1.20388,0.70167 l 0,0 c -1.86985,3.20491 -0.87825,1.61222 -2.98132,4.77402 -2.8155,3.80958 -5.96557,7.38272 -9.7073,10.31454 -2.6408,1.91282 -5.42002,3.69945 -8.70458,4.22554 -0.95589,0.23898 -1.29385,-1.11286 -0.33796,-1.35183 z"
       inkscape:connector-curvature="0" />
  </g>
</svg>
