<?xml version="1.0" encoding="UTF-8" standalone="no"?>
<!-- Created with Inkscape (http://www.inkscape.org/) -->

<svg
   xmlns:dc="http://purl.org/dc/elements/1.1/"
   xmlns:cc="http://creativecommons.org/ns#"
   xmlns:rdf="http://www.w3.org/1999/02/22-rdf-syntax-ns#"
   xmlns:svg="http://www.w3.org/2000/svg"
   xmlns="http://www.w3.org/2000/svg"
   xmlns:sodipodi="http://sodipodi.sourceforge.net/DTD/sodipodi-0.dtd"
   xmlns:inkscape="http://www.inkscape.org/namespaces/inkscape"
   width="517.08398"
   height="143.7393"
   id="svg20512"
   version="1.1"
   inkscape:version="0.48.0 r9654"
   sodipodi:docname="New document 58">
  <defs
     id="defs20514" />
  <sodipodi:namedview
     inkscape:document-units="mm"
     pagecolor="#ffffff"
     bordercolor="#666666"
     borderopacity="1.0"
     inkscape:pageopacity="0.0"
     inkscape:pageshadow="2"
     inkscape:zoom="0.7176508"
     inkscape:cx="300.55099"
     inkscape:cy="-19.970419"
     inkscape:current-layer="layer1"
     id="namedview20516"
     showgrid="false"
     fit-margin-top="0"
     fit-margin-left="0"
     fit-margin-right="0"
     fit-margin-bottom="0"
     inkscape:window-width="1280"
     inkscape:window-height="752"
     inkscape:window-x="0"
     inkscape:window-y="0"
     inkscape:window-maximized="0" />
  <metadata
     id="metadata20518">
    <rdf:RDF>
      <cc:Work
         rdf:about="">
        <dc:format>image/svg+xml</dc:format>
        <dc:type
           rdf:resource="http://purl.org/dc/dcmitype/StillImage" />
        <dc:title></dc:title>
      </cc:Work>
    </rdf:RDF>
  </metadata>
  <g
     inkscape:label="Layer 1"
     inkscape:groupmode="layer"
     id="layer1"
     transform="translate(-225.6301,-208.33751)">
    <path
       style="fill:#000000;fill-opacity:1;fill-rule:nonzero;stroke:none"
       id="path21029"
       d="m 555.87357,251.12556 c 1.29897,1.47318 2.38169,3.10466 3.37526,4.79364 1.24357,2.23437 1.02354,1.16005 -3.3404,2.24865 0.0138,0.11164 0.14325,0.38228 0.0412,0.33492 -0.35284,-0.16375 -2.00543,-2.0209 -2.31979,-2.27799 -1.50251,-1.22874 -2.29686,-1.7552 -3.95426,-2.94864 -10.49492,-7.20322 -22.75387,-10.64787 -34.97038,-13.60734 -16.57225,-3.27267 -33.67494,-3.50509 -50.3227,-0.57274 -3.24746,0.57201 -6.44397,1.40289 -9.66598,2.10423 -16.78828,4.18091 -32.73653,10.93341 -48.65505,17.57743 -2.72786,1.13854 -4.338,-2.71923 -1.61014,-3.85777 l 0,0 c 16.15204,-6.74149 32.33874,-13.5821 49.37865,-17.80488 3.33006,-0.72046 6.63409,-1.57401 9.99017,-2.16138 17.1643,-3.00382 34.79236,-2.74095 51.87135,0.65278 12.73858,3.09969 25.50354,6.73693 36.42881,14.27872 2.8907,2.08658 6.27501,4.15039 7.88605,7.45674 -4.30684,1.73356 -3.23715,2.69065 -4.3619,0.69461 -0.88574,-1.51015 -1.84925,-2.96668 -3.01721,-4.27734 -1.8623,-2.2955 1.38401,-4.9292 3.24633,-2.6337 z"
       inkscape:connector-curvature="0" />
    <path
       style="fill:#000000;fill-opacity:1;fill-rule:nonzero;stroke:none"
       id="path21031"
       d="m 561.6575,258.77126 c -5.94768,3.17392 -12.09951,5.88464 -18.34239,8.42291 -10.45785,4.00987 -21.19943,7.33103 -32.20891,9.45627 -8.02775,1.54964 -11.5378,1.7416 -19.68111,2.59976 -13.02208,0.96935 -26.10943,0.46803 -38.9965,-1.64168 -6.27356,-1.02702 -11.33116,-2.22606 -17.51406,-3.58796 -9.61949,-2.3719 -19.34806,-4.89641 -28.17428,-9.53248 -1.76248,-0.92576 -3.42377,-2.03255 -5.13565,-3.04883 -2.53912,-1.5134 -0.39886,-5.10424 2.14028,-3.59085 l 0,0 c 1.58868,0.95098 3.12908,1.98773 4.76607,2.85291 8.54258,4.51495 17.98661,6.92688 27.3032,9.2369 6.0536,1.33466 11.05088,2.51912 17.18822,3.52958 12.55174,2.06652 25.30019,2.55866 37.98583,1.62499 7.87332,-0.825 11.43493,-1.02537 19.18892,-2.51809 10.78935,-2.07706 21.31584,-5.32641 31.56449,-9.25338 6.08633,-2.47099 12.08451,-5.10939 17.88215,-8.20228 2.58252,-1.43809 4.61626,2.21417 2.03374,3.65223 z"
       inkscape:connector-curvature="0" />
    <path
       style="fill:#000000;fill-opacity:1;fill-rule:nonzero;stroke:none"
       id="path21035"
       d="m 544.21851,243.26381 c 1.6659,1.95557 3.6528,3.51923 5.71597,5.02039 1.76836,1.02506 3.71011,1.75451 5.61959,2.48424 1.72181,0.90806 3.48136,1.5981 5.40348,1.89553 2.52496,0.64953 5.07544,1.10148 7.55805,1.90171 1.27176,0.44213 2.54406,0.91519 3.88948,1.06785 2.93178,0.37706 2.39854,4.52322 -0.53323,4.14616 l 0,0 c -1.59537,-0.21879 -3.13313,-0.67224 -4.64045,-1.23584 -2.28048,-0.73734 -4.62628,-1.13053 -6.94108,-1.75317 -2.19522,-0.36624 -4.26823,-1.04928 -6.23013,-2.11798 -2.24966,-0.86175 -4.54061,-1.72525 -6.58519,-3.00827 -2.39805,-1.74486 -4.6932,-3.59758 -6.60073,-5.89243 -1.77355,-2.36474 1.57069,-4.87293 3.34424,-2.50819 z"
       inkscape:connector-curvature="0" />
    <path
       style="fill:#000000;fill-opacity:1;fill-rule:nonzero;stroke:none"
       id="path21037"
       d="m 544.61344,261.49822 c 2.70786,0.70446 5.5288,0.47958 8.26067,0.0274 3.90858,-0.74784 7.86229,-1.15463 11.78218,-1.83172 2.96383,-0.43589 5.85554,-1.26601 8.7377,-2.06846 2.84765,-0.79269 3.96869,3.23449 1.12104,4.02719 l 0,0 c -3.01709,0.8397 -6.04561,1.70031 -9.14744,2.16062 -3.93863,0.67986 -7.91034,1.0922 -11.83777,1.84093 -3.29213,0.50546 -6.67187,0.76215 -9.93025,-0.10049 -2.86767,-0.71692 -1.85379,-4.77241 1.01387,-4.05549 z"
       inkscape:connector-curvature="0" />
    <path
       style="fill:#000000;fill-opacity:1;fill-rule:nonzero;stroke:none"
       id="path21039"
       d="m 543.22001,262.89165 c 2.80995,0.6383 5.71994,-0.043 8.45571,-0.73728 3.55506,-0.99635 6.97158,-2.33711 10.60739,-3.03734 3.55009,-0.36085 7.05979,-1.00198 10.59583,-1.47434 2.22387,-0.30702 4.4632,-0.46692 6.70561,-0.54466 0.17701,-0.004 0.35401,-0.009 0.53102,-0.0134 2.95499,-0.0739 3.05949,4.10511 0.1045,4.179 l 0,0 c -0.16381,0.004 -0.32762,0.008 -0.49143,0.0122 -2.10583,0.0722 -4.20878,0.22149 -6.29713,0.51046 -3.46042,0.46062 -6.89438,1.09661 -10.36982,1.43788 -3.5598,0.662 -6.87821,2.06549 -10.37033,2.98523 -3.41314,0.84521 -6.99405,1.58093 -10.48523,0.73772 -2.86766,-0.71691 -1.85379,-4.77241 1.01388,-4.05549 z"
       inkscape:connector-curvature="0" />
    <path
       style="fill:#000000;fill-opacity:1;fill-rule:nonzero;stroke:none"
       id="path21041"
       d="m 555.24373,256.95058 c 4.2011,-0.67156 8.45668,-0.90179 12.70169,-1.09624 2.74707,-0.113 5.49614,-0.1575 8.24529,-0.16819 0.93916,-0.002 1.87831,9.8e-4 2.81745,0.005 2.9559,0.0125 2.93825,4.19275 -0.0177,4.18027 l 0,0 c -0.92786,-0.004 -1.85574,-0.007 -2.78362,-0.005 -2.69087,0.0104 -5.38167,0.0536 -8.07052,0.16385 -4.07876,0.18617 -8.16824,0.40266 -12.2054,1.04373 -2.91571,0.48595 -3.60295,-3.63748 -0.68724,-4.12343 z"
       inkscape:connector-curvature="0" />
    <path
       style="fill:#000000;fill-opacity:1;fill-rule:nonzero;stroke:none"
       id="path21043"
       d="m 546.43469,250.67567 c 2.1857,0.99039 4.51048,1.55753 6.86735,1.94776 1.10952,0.24193 2.17373,0.63648 3.25509,0.97478 2.82068,0.88388 1.57068,4.87293 -1.25,3.98904 l 0,0 c -0.89745,-0.28165 -1.78266,-0.5999 -2.69245,-0.84042 -2.76611,-0.46386 -5.49343,-1.14817 -8.04948,-2.33218 -2.64386,-1.32193 -0.77437,-5.06091 1.86949,-3.73898 z"
       inkscape:connector-curvature="0" />
    <path
       style="fill:#000000;fill-opacity:1;fill-rule:nonzero;stroke:none"
       id="path21045"
       d="m 531.73227,255.69539 c 3.51474,0 7.02948,0 10.54421,0 2.61043,0 5.22086,0 7.83128,0 2.95592,0 2.95592,4.1803 0,4.1803 l 0,0 c -2.61042,0 -5.22085,0 -7.83128,0 -3.51473,0 -7.02947,0 -10.54421,0 -2.95593,0 -2.95593,-4.1803 0,-4.1803 z"
       inkscape:connector-curvature="0" />
    <path
       style="fill:#000000;fill-opacity:1;fill-rule:nonzero;stroke:none"
       id="path21047"
       d="m 539.0397,264.28509 c 2.57642,0.20617 5.07328,-0.28654 7.59338,-0.73238 3.38854,-0.66301 6.84365,-1.13937 10.19907,-1.95963 1.76574,-0.40087 3.48044,-0.91427 5.17058,-1.55926 2.76344,-1.04922 4.24726,2.85888 1.48381,3.9081 l 0,0 c -1.8579,0.70227 -3.74233,1.27622 -5.68062,1.71647 -3.44589,0.81161 -6.96907,1.34581 -10.44459,2.0107 -3.08944,0.54656 -6.18757,1.11616 -9.3355,0.67149 -2.86767,-0.71692 -1.8538,-4.77241 1.01387,-4.05549 z"
       inkscape:connector-curvature="0" />
    <path
       style="fill:#000000;fill-opacity:1;fill-rule:nonzero;stroke:none"
       id="path21049"
       d="m 551.24036,255.69539 c 2.63246,0 5.26492,0 7.89738,0 2.95593,0 2.95593,4.1803 0,4.1803 l 0,0 c -2.63246,0 -5.26492,0 -7.89738,0 -2.95592,0 -2.95592,-4.1803 0,-4.1803 z"
       inkscape:connector-curvature="0" />
    <path
       style="fill:#000000;fill-opacity:1;fill-rule:nonzero;stroke:none"
       id="path21051"
       d="m 553.40186,252.0691 c 2.05718,0.97598 4.23675,1.57428 6.47442,1.94904 2.91388,0.49677 2.21134,4.61762 -0.70254,4.12085 l 0,0 c -2.64006,-0.4566 -5.21765,-1.16502 -7.64137,-2.33091 -2.64385,-1.32193 -0.77436,-5.06091 1.86949,-3.73898 z"
       inkscape:connector-curvature="0" />
    <path
       style="fill:#000000;fill-opacity:1;fill-rule:nonzero;stroke:none"
       id="path21061"
       d="m 539.46751,240.92162 c 2.80303,1.78633 5.85906,2.99494 8.9316,4.21359 3.17686,1.06021 6.31733,2.19879 9.43152,3.43151 0.48151,0.14587 0.96302,0.29175 1.44453,0.43763 2.82526,0.86912 1.59613,4.86464 -1.22913,3.99552 l 0,0 c -0.58476,-0.18214 -1.16952,-0.36427 -1.75428,-0.5464 -3.11505,-1.23361 -6.25849,-2.36549 -9.43441,-3.43266 -3.18177,-1.26305 -6.35398,-2.51653 -9.25932,-4.36021 -2.64386,-1.32193 -0.77437,-5.06091 1.86949,-3.73898 z"
       inkscape:connector-curvature="0" />
    <path
       style="fill:#000000;fill-opacity:1;fill-rule:nonzero;stroke:none"
       id="path21065"
       d="m 554.7953,246.49536 c 2.4708,0.88367 4.90587,1.91946 7.43408,2.63157 3.16845,0.82253 6.32162,1.57748 9.57252,1.99417 2.11165,0.20144 1.06313,0.11603 3.14546,0.25761 2.94901,0.20199 2.66334,4.37253 -0.28567,4.17053 l 0,0 c -2.24175,-0.15461 -1.11004,-0.0612 -3.39496,-0.28223 -3.45911,-0.44938 -6.82018,-1.24323 -10.19146,-2.12225 -2.76689,-0.80715 -5.45861,-1.88548 -8.14946,-2.91042 -2.64386,-1.32193 -0.77437,-5.06091 1.86949,-3.73898 z"
       inkscape:connector-curvature="0" />
    <path
       style="fill:#000000;fill-opacity:1;fill-rule:nonzero;stroke:none"
       id="path21069"
       d="m 403.87647,254.53104 c 2.92152,0.55663 6.00377,0.21901 8.86674,-0.50562 2.83748,-0.55451 5.40745,-1.78298 8.03503,-2.91938 0.79754,-0.41073 1.65957,-0.59443 2.52942,-0.77221 2.90385,-0.55239 3.68505,3.55427 0.7812,4.10666 l 0,0 c -0.58035,0.0948 -1.12687,0.21452 -1.65158,0.50255 -2.84109,1.2281 -5.63886,2.52723 -8.69943,3.14263 -3.53268,0.84285 -7.28442,1.25583 -10.87525,0.50086 -2.86767,-0.71692 -1.8538,-4.77241 1.01387,-4.05549 z"
       inkscape:connector-curvature="0" />
    <path
       style="fill:#000000;fill-opacity:1;fill-rule:nonzero;stroke:none"
       id="path21071"
       d="m 405.26991,254.53104 c 2.5932,1.09405 5.31823,1.69303 8.03064,2.37978 3.57788,0.82705 7.15501,1.67671 10.77624,2.29949 2.02649,0.41825 4.01035,0.92323 5.87269,1.82439 2.62743,1.35428 0.71219,5.07003 -1.91524,3.71575 l 0,0 c -1.40552,-0.82793 -3.12385,-0.96646 -4.66807,-1.42068 -3.72842,-0.64499 -7.41315,-1.51313 -11.09707,-2.36789 -2.70267,-0.69248 -5.43786,-1.25499 -8.01307,-2.37535 -2.86766,-0.71692 -1.85379,-4.77241 1.01388,-4.05549 z"
       inkscape:connector-curvature="0" />
    <path
       style="fill:#000000;fill-opacity:1;fill-rule:nonzero;stroke:none"
       id="path21073"
       d="m 406.07425,256.80762 c 2.03022,1.66041 4.43824,2.70482 6.79582,3.79775 2.59861,1.29553 5.35913,2.17075 8.04932,3.23509 1.34537,0.5071 2.5984,1.16817 3.85424,1.86129 2.58774,1.42867 0.5673,5.08828 -2.02044,3.65961 l 0,0 c -1.10567,-0.61061 -2.19091,-1.2028 -3.38347,-1.63844 -2.7517,-1.11027 -5.59523,-1.98975 -8.25829,-3.32517 -2.79894,-1.29838 -5.64789,-2.57816 -7.9931,-4.63421 -2.09015,-2.09015 0.86577,-5.04608 2.95592,-2.95592 z"
       inkscape:connector-curvature="0" />
    <path
       style="fill:#000000;fill-opacity:1;fill-rule:nonzero;stroke:none"
       id="path21075"
       d="m 400.33943,251.38899 c 3.18127,-0.6159 6.41135,-0.89288 9.64021,-1.10605 1.75475,-0.0876 0.91537,-0.0505 2.51804,-0.11365 2.95364,-0.116 3.11769,4.06109 0.16405,4.17709 l 0,0 c -1.53663,0.0602 -0.73421,0.025 -2.40718,0.10782 -3.04597,0.20038 -6.0936,0.45603 -9.09529,1.03392 -2.89853,0.5797 -3.71835,-3.51942 -0.81983,-4.09913 z"
       inkscape:connector-curvature="0" />
    <path
       style="fill:#000000;fill-opacity:1;fill-rule:nonzero;stroke:none"
       id="path21077"
       d="m 398.30273,253.1376 c 2.53452,0.57559 5.12767,0.82281 7.71502,1.01328 1.10921,0.0712 2.22002,0.10456 3.33092,0.1333 2.95492,0.077 2.84599,4.25592 -0.10893,4.17889 l 0,0 c -1.17749,-0.0309 -2.35491,-0.0665 -3.53054,-0.14328 -2.8249,-0.21012 -5.65538,-0.48679 -8.42034,-1.12669 -2.86767,-0.71692 -1.8538,-4.77241 1.01387,-4.0555 z"
       inkscape:connector-curvature="0" />
    <path
       style="fill:#000000;fill-opacity:1;fill-rule:nonzero;stroke:none"
       id="path21079"
       d="m 395.51586,255.92447 c 2.39219,0.5409 4.82675,0.83684 7.2699,1.0131 2.62142,0.47313 5.22591,1.00934 7.87427,1.31544 2.93608,0.34195 2.45249,4.49419 -0.48359,4.15224 l 0,0 c -2.58697,-0.30334 -5.14296,-0.77768 -7.69416,-1.29841 -2.68225,-0.19682 -5.35566,-0.5239 -7.98029,-1.12687 -2.86767,-0.71692 -1.8538,-4.77241 1.01387,-4.0555 z"
       inkscape:connector-curvature="0" />
    <path
       style="fill:#000000;fill-opacity:1;fill-rule:nonzero;stroke:none"
       id="path21083"
       d="m 395.58551,260.08296 c 3.0017,0.57789 6.04933,0.83354 9.09529,1.03392 2.09188,0.1223 4.18754,0.15148 6.28247,0.16153 0.38286,0.0872 0.76572,0.17443 1.14858,0.26165 2.82246,0.87818 1.58051,4.86974 -1.24194,3.99155 l 0,0 c 0.0244,-0.0243 0.0488,-0.0486 0.0732,-0.0729 -2.17991,-0.0106 -4.36056,-0.042 -6.53721,-0.17052 -3.22887,-0.21317 -6.45894,-0.49014 -9.64021,-1.10605 -2.89852,-0.5797 -2.0787,-4.67883 0.81982,-4.09913 z"
       inkscape:connector-curvature="0" />
    <path
       style="fill:#000000;fill-opacity:1;fill-rule:nonzero;stroke:none"
       id="path21085"
       d="m 409.45021,248.9573 c 2.09739,0.66846 4.28062,0.49811 6.40574,0.0423 2.41727,-0.42648 4.69214,-1.30622 7.02417,-2.02187 1.88186,-0.43813 0.93064,-0.24606 2.85402,-0.57456 2.91494,-0.49052 3.60864,3.63183 0.6937,4.12235 l 0,0 c -1.58953,0.2627 -0.81059,0.11023 -2.33757,0.45352 -2.46415,0.73122 -4.86095,1.68471 -7.41259,2.11931 -2.7332,0.52149 -5.54188,0.76033 -8.24134,-0.0856 -2.86767,-0.71692 -1.85379,-4.77241 1.01387,-4.05549 z"
       inkscape:connector-curvature="0" />
    <path
       style="fill:#000000;fill-opacity:1;fill-rule:nonzero;stroke:none"
       id="path21103"
       d="m 572.48215,251.74417 c 4.88059,0.83578 9.86398,0.87858 14.8022,1.0083 8.06641,0.34689 16.11343,0.0205 24.164,-0.46198 2.82454,-0.2345 5.62284,-0.68385 8.4207,-1.12134 2.92048,-0.4564 3.56593,3.67377 0.64545,4.13018 l 0,0 c -2.92893,0.45747 -5.85871,0.9249 -8.81613,1.16399 -8.17034,0.48947 -16.33778,0.81681 -24.52404,0.46801 -5.24104,-0.1383 -10.53502,-0.18234 -15.70605,-1.13167 -2.86767,-0.71692 -1.8538,-4.77241 1.01387,-4.05549 z"
       inkscape:connector-curvature="0" />
    <path
       style="fill:#000000;fill-opacity:1;fill-rule:nonzero;stroke:none"
       id="path21107"
       d="m 572.14189,257.08882 c 4.50565,0.0965 8.89373,-0.98257 13.25054,-1.98441 4.5519,-0.897 9.01616,-2.16844 13.57582,-3.03082 0.4368,-0.0729 0.8736,-0.14588 1.3104,-0.21883 2.91573,-0.48585 3.60282,3.63761 0.6871,4.12345 l 0,0 c -0.40762,0.0678 -0.81524,0.13553 -1.22286,0.20329 -4.50625,0.84703 -8.91428,2.11897 -13.41368,2.9969 -4.66445,1.07253 -9.36499,2.19069 -14.18732,2.09073 -2.95592,0 -2.95592,-4.18031 0,-4.18031 z"
       inkscape:connector-curvature="0" />
    <path
       style="fill:#000000;fill-opacity:1;fill-rule:nonzero;stroke:none"
       id="path21113"
       d="m 370.43402,257.31791 c 3.91012,0.94169 7.96022,0.26483 11.86345,-0.36865 6.53549,-1.26766 12.94836,-3.05923 19.48505,-4.31546 3.91577,-0.62384 7.86328,-0.92342 11.79015,-1.46696 2.92801,-0.40521 3.50107,3.73563 0.57306,4.14084 l 0,0 c -3.85521,0.53345 -7.72896,0.83721 -11.57537,1.43151 -6.57825,1.26049 -13.02795,3.08171 -19.60867,4.33727 -4.46637,0.71319 -9.07735,1.40623 -13.54154,0.29694 -2.86767,-0.71691 -1.85379,-4.77241 1.01387,-4.05549 z"
       inkscape:connector-curvature="0" />
    <path
       style="fill:#000000;fill-opacity:1;fill-rule:nonzero;stroke:none"
       id="path21115"
       d="m 377.47085,257.29609 c 4.18699,0.58748 8.37865,1.18005 12.57979,1.67483 4.95235,0.76298 9.91092,1.48588 14.89354,2.02085 2.93901,0.31577 2.49245,4.47215 -0.44656,4.15639 l 0,0 c -4.99698,-0.53722 -9.97089,-1.25599 -14.93697,-2.02575 -4.31136,-0.50991 -8.61435,-1.11116 -12.90962,-1.72719 -2.89852,-0.5797 -2.0787,-4.67883 0.81982,-4.09913 z"
       inkscape:connector-curvature="0" />
    <path
       style="fill:#000000;fill-opacity:1;fill-rule:nonzero;stroke:none"
       id="path21123"
       d="m 352.31936,257.31791 c 4.25173,0.49772 8.60946,0.10267 12.8888,-0.002 4.94176,-0.11298 9.88473,-0.14988 14.82751,-0.1839 2.95585,-0.0203 2.98461,4.15987 0.0288,4.18021 l 0,0 c -4.91843,0.0338 -9.83705,0.0704 -14.75447,0.18276 -4.65035,0.11325 -9.3938,0.57169 -14.00447,-0.12199 -2.86767,-0.71691 -1.85379,-4.77241 1.01387,-4.05549 z"
       inkscape:connector-curvature="0" />
    <path
       style="fill:#000000;fill-opacity:1;fill-rule:nonzero;stroke:none"
       id="path21129"
       d="m 344.44656,244.6606 c -2.05736,0.89365 -4.16646,2.08338 -5.70238,3.74952 -0.63162,1.00717 -1.6393,1.63924 -2.51085,2.3997 -0.0787,0.0687 0.17335,-0.11659 0.26002,-0.17488 0.20787,1.10942 -1.48897,-2.66811 -0.10428,-1.13557 1.12866,0.0748 2.27367,0.59014 3.32717,1.05147 1.32301,0.30948 2.10265,1.40275 3.14422,2.12887 1.62121,0.99539 1.98266,2.75664 1.41552,4.47562 -0.60242,1.62156 -1.90896,2.90552 -3.07004,4.15324 -0.63191,0.79878 -1.44649,1.77749 -1.84317,2.59259 -0.0584,0.1832 -0.17188,1.32279 -0.0274,0.86491 0.76913,1.47934 0.96661,3.16686 1.18047,4.79739 -0.0656,1.13114 0.17911,1.49736 0.70344,2.30243 0.97062,0.80641 1.484,1.94906 1.86994,3.11661 0.89639,2.81673 -3.08707,4.08442 -3.98345,1.26769 l 0,0 c -0.2071,-0.70413 -0.46756,-1.2214 -1.08473,-1.69242 -1.00476,-1.33028 -1.68443,-2.73838 -1.65036,-4.45343 -0.17902,-1.38003 -0.33473,-2.77347 -1.00247,-4.02047 -0.29186,-1.27773 -0.36303,-2.41002 0.0863,-3.66612 0.65822,-1.48026 1.67824,-2.74668 2.71666,-3.98409 0.80944,-0.83093 1.76609,-1.73034 2.20731,-2.78976 0.33387,0.91565 0.48974,0.76004 0.0135,0.4095 -0.91147,-0.68205 -1.2512,-1.37039 -2.3532,-1.67356 -1.62691,-0.71302 -3.49752,-0.88723 -4.82831,-2.16537 -0.75287,-1.96045 -1.10695,-2.33452 -0.13627,-3.98467 0.85101,-0.97307 1.9251,-1.68142 2.68482,-2.74612 1.94901,-1.92271 4.28245,-3.5165 6.818,-4.56206 2.64386,-1.32193 4.51335,2.41705 1.86949,3.73898 z"
       inkscape:connector-curvature="0" />
    <path
       style="fill:#000000;fill-opacity:1;fill-rule:nonzero;stroke:none"
       id="path21131"
       d="m 626.6304,240.25544 c -1.19614,1.02584 -2.09875,2.26471 -2.8796,3.61956 0.54299,-1.10994 0.16719,-0.0523 -0.32069,-2.19807 -0.07,-0.30764 0.63178,-0.0231 0.94646,-5.8e-4 0.82407,0.0591 1.33973,0.068 2.16527,0.0951 2.60082,-0.11764 4.67146,0.71541 6.09734,2.89109 0.87913,2.25206 0.21253,4.69388 -0.5946,6.8736 -0.87856,1.66018 -1.84845,3.32947 -2.9777,4.83612 -0.66781,0.75179 -1.44047,1.40668 -2.33315,1.87264 0.28626,-5.26973 -0.0967,-3.35237 3.05973,-2.73956 1.42181,0.56569 2.77392,1.33007 3.79151,2.48636 1.6356,2.57969 -0.1072,5.09195 -1.81594,7.07322 -0.83572,1.03785 -1.89386,2.11442 -2.56405,3.18183 -0.10545,0.82616 -0.16217,1.62364 -0.32459,2.45454 -0.0794,0.3035 -0.15885,0.607 -0.23828,0.91049 -0.74995,2.85921 -4.79348,1.79862 -4.04353,-1.06058 l 0,0 c 0.0719,-0.2735 0.14383,-0.547 0.21575,-0.82051 0.42934,-0.99549 -0.0619,-2.34144 0.62887,-3.30711 0.85189,-1.53707 2.09567,-2.7972 3.21162,-4.14733 0.55727,-0.58072 0.83005,-1.33887 1.34085,-1.90798 0.0492,-0.0548 0.26808,0.52346 0.37933,0.30132 -0.28312,-0.42495 -1.00708,-0.55808 -1.39482,-1.06382 -3.79735,-0.76496 -3.35233,-0.45479 -4.1209,-5.09736 0.32314,-0.18462 0.66762,-0.45393 0.93718,-0.73986 0.98647,-1.03867 1.54254,-2.57457 2.35448,-3.75377 0.44599,-1.03267 0.67777,-2.24282 0.83137,-3.32684 -0.20897,-0.85663 -1.79278,-0.71552 -2.58011,-0.73852 -2.67456,-0.0908 -7.45043,-0.0357 -6.26803,-4.17087 0.9664,-1.65979 2.09113,-3.20208 3.54031,-4.47906 2.09015,-2.09015 5.04607,0.86577 2.95592,2.95592 z"
       inkscape:connector-curvature="0" />
    <path
       style="fill:#000000;fill-opacity:1;fill-rule:nonzero;stroke:none"
       id="path21135"
       d="m 642.66981,251.44432 c 7.92605,0.98639 15.99512,0.58432 23.96232,0.44542 19.38637,-0.63891 38.76828,-0.51231 58.15149,0.0793 2.9257,0.1407 5.85139,0.28139 8.77709,0.42209 2.9525,0.14208 2.75155,4.31756 -0.20094,4.17546 l 0,0 c -2.90124,-0.13972 -5.80247,-0.27946 -8.7037,-0.41919 -19.31646,-0.58978 -38.63153,-0.71535 -57.95115,-0.0779 -6.00427,0.10445 -12.00621,0.26634 -18.01,0.0534 -1.15338,-0.0409 -4.56762,-0.19639 -5.90536,-0.41621 -0.65113,-0.107 -1.27887,-0.3258 -1.91831,-0.48869 -2.66834,-1.27177 -0.86978,-5.04539 1.79856,-3.77362 z"
       inkscape:connector-curvature="0" />
    <path
       inkscape:connector-curvature="0"
       d="m 714.45967,244.22967 c 4.33159,0.81968 8.65027,1.70701 12.94331,2.71445 3.54011,0.73961 6.96301,1.91525 10.46067,2.82143 1.31826,0.42366 2.58766,0.99822 3.75966,1.736 1.67041,0.98256 1.27182,2.90952 -0.17997,4.12935 -2.71601,1.37897 -5.71824,2.06615 -8.61918,2.94669 -3.90998,1.11896 -7.82286,2.17408 -11.69648,3.41575 -1.9478,0.38654 -3.67985,1.17394 -5.40185,2.12172 -2.59064,1.42341 -4.60365,-2.2403 -2.01301,-3.66371 l 0,0 c 1.9496,-1.06959 3.9484,-1.976 6.13889,-2.43883 3.89469,-1.24832 7.82831,-2.3127 11.75992,-3.43551 2.48161,-0.75111 4.9903,-1.40134 7.4063,-2.35087 -0.33238,0.9128 -0.0199,2.58969 0.36291,2.80335 -0.79668,-0.51591 -1.67688,-0.89365 -2.56611,-1.21737 -3.46687,-0.8991 -6.86054,-2.06055 -10.36827,-2.79859 -4.1864,-0.9857 -8.39965,-1.84848 -12.62329,-2.65229 -2.92147,-0.45009 -2.28496,-4.58165 0.6365,-4.13157 z"
       id="path21147"
       style="fill:#000000;fill-opacity:1;fill-rule:nonzero;stroke:none"
       inkscape:transform-center-x="45.983367" />
    <path
       inkscape:connector-curvature="0"
       d="m 325.69127,261.49183 c -7.94451,-0.82457 -16.0037,-0.25806 -23.96642,0.0433 -19.36931,1.03406 -38.74977,1.30268 -58.14101,1.10641 -2.92796,-0.081 -5.85591,-0.16202 -8.78388,-0.24304 -2.95478,-0.0818 -2.83901,-4.26056 0.11577,-4.17869 l 0,0 c 2.90348,0.0805 5.80696,0.16109 8.71043,0.24164 19.32447,0.1958 38.63809,-0.0725 57.94069,-1.10373 6.0009,-0.22685 11.99829,-0.51109 18.00517,-0.42061 1.15398,0.0174 4.57068,0.10322 5.91262,0.29572 0.65318,0.0937 1.28525,0.29965 1.92788,0.44947 2.69371,1.2171 0.97247,5.02661 -1.72125,3.80951 z"
       id="path21149"
       style="fill:#000000;fill-opacity:1;fill-rule:nonzero;stroke:none" />
    <path
       inkscape:transform-center-x="-46.066242"
       style="fill:#000000;fill-opacity:1;fill-rule:nonzero;stroke:none"
       id="path21151"
       d="m 254.06344,270.16876 c -4.3474,-0.73119 -8.68327,-1.53028 -12.99596,-2.44997 -3.55446,-0.66728 -7.00062,-1.77288 -10.51603,-2.60756 -1.32662,-0.39669 -2.60747,-0.94525 -3.79427,-1.65898 -1.6901,-0.94829 -1.33088,-2.88298 0.0957,-4.13216 2.68732,-1.43406 5.67492,-2.18231 8.5573,-3.12182 3.88635,-1.19845 7.77691,-2.33313 11.6244,-3.65353 1.93952,-0.42617 3.65515,-1.24873 5.35747,-2.23142 2.56108,-1.47594 4.64837,2.14597 2.08729,3.6219 l 0,0 c -1.92738,1.10912 -3.90729,2.0561 -6.08788,2.5635 -3.86843,1.32747 -7.77953,2.47183 -11.68743,3.67458 -2.46578,0.80155 -4.96069,1.5028 -7.35683,2.50139 0.3137,-0.91939 -0.0329,-2.58956 -0.41999,-2.79537 0.80703,0.49956 1.69475,0.85928 2.5904,1.1648 3.48448,0.82822 6.90113,1.92023 10.42317,2.5866 4.20563,0.90013 8.4356,1.67683 12.67475,2.39435 2.93004,0.39043 2.3779,4.53411 -0.55213,4.14369 z"
       inkscape:connector-curvature="0"
       inkscape:transform-center-y="-1.2031474" />
    <path
       style="fill:#000000;fill-opacity:1;fill-rule:nonzero;stroke:none"
       id="path21153"
       d="m 430.29151,252.56016 c 3.54469,-0.56936 6.97233,-1.80288 10.39584,-2.86567 1.41151,-0.43818 2.03119,1.558 0.61967,1.99618 l 0,0 c -3.61946,1.12358 -7.24917,2.4567 -11.01551,2.95964 -1.47797,0 -1.47797,-2.09015 0,-2.09015 z"
       inkscape:connector-curvature="0" />
    <path
       style="fill:#000000;fill-opacity:1;fill-rule:nonzero;stroke:none"
       id="path21155"
       d="m 444.48101,265.89535 c 3.50908,0.43046 7.05421,0.4521 10.58437,0.52098 3.36041,0.0439 1.69474,0.0256 4.99699,0.0552 1.47791,0.0132 1.45917,2.10332 -0.0187,2.09006 l 0,0 c -3.31532,-0.0297 -1.6423,-0.0113 -5.01906,-0.0555 -3.63137,-0.071 -7.27874,-0.0937 -10.88718,-0.54901 -1.45785,-0.24298 -1.11423,-2.30469 0.34362,-2.06172 z"
       inkscape:connector-curvature="0" />
    <path
       style="fill:#000000;fill-opacity:1;fill-rule:nonzero;stroke:none"
       id="path21161"
       d="m 525.43502,248.96203 c -2.12418,-0.48705 -4.24871,-0.97532 -6.3815,-1.43056 -2.73022,-0.46585 -5.44547,-1.0085 -8.17525,-1.47622 -1.4567,-0.24975 -1.1035,-2.30984 0.3532,-2.06009 l 0,0 c 2.75749,0.47306 5.50075,1.01934 8.25838,1.49221 2.1565,0.46033 4.30376,0.95703 6.45211,1.44691 1.43383,0.35846 0.9269,2.38621 -0.50694,2.02775 z"
       inkscape:connector-curvature="0" />
    <path
       style="fill:#ffaaaa;stroke:none"
       d="m 457.90276,273.4142 c -12.80439,-2.17127 -32.04901,-6.75187 -32.04901,-7.6283 0,-0.57803 1.25409,-0.72301 2.78687,-0.32218 2.12662,0.55612 2.78687,0.0427 2.78687,-2.1669 0,-2.22295 -1.36195,-3.26241 -5.86239,-4.47425 -5.22321,-1.40647 -5.56505,-1.74069 -3.13523,-3.06537 1.49994,-0.81774 3.22018,-2.31116 3.82276,-3.31871 1.56921,-2.62383 29.56789,-11.19592 42.96907,-13.15543 21.79004,-3.18612 53.67366,0.95425 69.15195,8.98 6.71078,3.47965 5.8652,6.21831 -2.07762,6.72893 -4.89082,0.31443 -6.72273,1.03822 -7.05474,2.78737 -0.36842,1.94097 0.87284,2.43836 6.95464,2.78687 l 7.4031,0.42421 -5.57374,2.56237 c -3.06556,1.40931 -11.53068,4.1564 -18.81138,6.10466 -11.05832,2.95911 -16.90804,3.60855 -35.5326,3.94486 -12.26223,0.22142 -23.86258,0.13676 -25.77855,-0.18813 z m 4.1803,-6.1533 c 0,-0.79625 -4.1803,-1.39343 -9.75404,-1.39343 -5.57374,0 -9.75405,0.59718 -9.75405,1.39343 0,0.79625 4.18031,1.39344 9.75405,1.39344 5.57374,0 9.75404,-0.59719 9.75404,-1.39344 z m -20.47734,-15.1946 c 0.8141,-0.8141 1.06968,-1.89067 0.56795,-2.3924 -1.29686,-1.29686 -13.53305,2.33538 -13.53305,4.01721 0,1.77288 10.93821,0.40208 12.9651,-1.62481 z m 85.96881,-4.19803 c 0,-1.19545 -11.6146,-4.29577 -16.0931,-4.29577 -3.53847,0 -2.17244,2.7005 1.81038,3.57893 2.10758,0.46483 4.459,1.05432 5.22539,1.30997 3.02363,1.00863 9.05733,0.61351 9.05733,-0.59313 z"
       id="path21163"
       inkscape:connector-curvature="0" />
    <path
       style="fill:#000000;fill-opacity:1;fill-rule:nonzero;stroke:none"
       id="path21177"
       d="m 343.04665,300.08503 c 10.72872,-1.41256 21.68891,-0.88986 32.50778,-0.93637 31.10291,-0.14175 62.20638,-0.34534 93.30809,-0.63154 44.70261,-0.28035 89.40745,-0.2611 134.10761,0.23258 7.60413,0.10099 15.20825,0.20198 22.81237,0.30296 3.4634,0.046 3.38717,4.2258 -0.0763,4.1798 l 0,0 c -7.59984,-0.10093 -15.19969,-0.20187 -22.79953,-0.3028 -44.66145,-0.49344 -89.32754,-0.51235 -133.9914,-0.23248 -31.11111,0.28625 -62.22398,0.48993 -93.33629,0.63174 -10.54837,0.0451 -21.23822,-0.47239 -31.70171,0.87587 -3.41366,0.50126 -4.24434,-3.6185 -0.83069,-4.11976 z"
       inkscape:connector-curvature="0" />
    <path
       style="fill:#000000;fill-opacity:1;fill-rule:nonzero;stroke:none"
       id="path21211"
       d="m 679.41243,214.32102 c 1.63452,4.07466 1.98598,8.51057 2.35323,12.84437 0.24055,3.49741 0.31592,7.00338 0.33941,10.5081 0.002,0.94352 0.002,0.51018 -4.7e-4,1.3 -0.01,2.95591 -4.19011,2.94202 -4.18028,-0.0139 l 0,0 c 0.003,-0.76206 0.002,-0.34265 5.3e-4,-1.25822 -0.0226,-3.39665 -0.0946,-6.79449 -0.32468,-10.18424 -0.32058,-3.81046 -0.60862,-7.70601 -1.92672,-11.32663 -1.32193,-2.64386 2.41705,-4.51335 3.73898,-1.86949 z"
       inkscape:connector-curvature="0" />
    <path
       style="fill:#000000;fill-opacity:1;fill-rule:nonzero;stroke:none"
       id="path21213"
       d="m 668.62919,211.33454 c 2.09899,0.3787 4.22255,1.03607 6.36828,0.84407 3.89378,-0.22712 7.66969,-1.14239 11.3391,-2.42869 2.30494,-0.84703 1.20396,-0.43444 3.30425,-1.23434 2.76246,-1.0518 4.24993,2.85491 1.48747,3.90671 l 0,0 c -2.17004,0.82602 -1.03004,0.39911 -3.42141,1.27696 -4.04354,1.3906 -8.19376,2.41619 -12.47922,2.65333 -2.58152,0.0928 -5.09878,-0.3831 -7.61234,-0.96254 -2.86767,-0.71692 -1.8538,-4.77241 1.01387,-4.0555 z"
       inkscape:connector-curvature="0" />
    <path
       style="fill:#000000;fill-opacity:1;fill-rule:nonzero;stroke:none"
       id="path21221"
       d="m 290.63554,220.32257 c 0.84016,4.30466 0.97355,8.70953 1.13105,13.08081 0.12294,4.08572 0.15593,8.17348 0.16736,12.26082 0.002,0.65066 6.1e-4,1.30132 -0.002,1.95197 -0.0108,2.95591 -4.19111,2.94058 -4.18028,-0.0153 l 0,0 c 0.002,-0.64166 0.003,-1.28332 0.002,-1.92498 -0.0113,-4.04118 -0.0437,-8.08278 -0.16468,-12.12237 -0.14627,-4.08126 -0.26716,-8.19127 -1.00893,-12.21706 -0.71691,-2.86767 3.33858,-3.88154 4.05549,-1.01387 z"
       inkscape:connector-curvature="0" />
    <path
       style="fill:#000000;fill-opacity:1;fill-rule:nonzero;stroke:none"
       id="path21225"
       d="m 275.68042,218.30172 c 2.84703,0.82486 5.87934,0.35824 8.77541,0.0156 5.18476,-0.67364 10.3391,-1.53401 15.53236,-2.15816 2.93484,-0.35245 3.43328,3.79804 0.49844,4.15049 l 0,0 c -5.19838,0.62379 -10.35703,1.48969 -15.54745,2.15994 -3.39765,0.38969 -6.93247,0.85633 -10.27264,-0.11235 -2.86766,-0.71691 -1.85379,-4.77241 1.01388,-4.05549 z"
       inkscape:connector-curvature="0" />
    <path
       style="fill:#000000;fill-opacity:1;fill-rule:nonzero;stroke:none"
       id="path21229"
       d="m 474.57408,347.58012 c 3.52757,-3.06922 5.3538,-7.34473 7.17032,-11.53705 1.99943,-5.42939 3.45097,-11.06495 4.51819,-16.74919 0.48285,-2.77645 0.7021,-5.58803 0.77419,-8.40241 0.0127,-2.53975 -0.15966,-0.11894 1.00292,0.45411 -0.35307,0.0415 -0.97623,0.0474 -1.41321,0.0589 0.90761,-0.14378 -0.20174,0.65832 -0.43485,0.9064 -0.4852,1.35522 -0.67675,2.83014 -0.93717,4.25318 -0.85504,5.35612 -0.84961,10.77215 -0.56491,16.17066 0.62365,4.77537 1.25653,9.8469 3.86293,14.00042 1.1131,1.14975 0.52147,0.67122 1.74558,1.4711 2.4011,1.72402 -0.037,5.11968 -2.43812,3.39566 l 0,0 c -2.07524,-1.56672 -1.10815,-0.67383 -2.882,-2.69937 -2.85561,-4.82827 -3.87621,-10.42233 -4.46296,-15.94895 -0.29844,-5.72524 -0.29167,-11.47079 0.62864,-17.1484 0.40724,-2.18914 0.60923,-4.53654 2.00235,-6.35768 0.97316,-1.03464 1.88715,-1.97571 3.37225,-2.22192 0.79915,-0.0203 1.60613,-0.0922 2.39986,0.033 1.79971,0.49901 2.49037,1.98159 2.29759,3.74123 -0.0797,3.03746 -0.31964,6.07169 -0.84496,9.06753 -1.13056,5.98877 -2.6566,11.92876 -4.79192,17.64075 -2.11224,4.85439 -4.3325,9.74774 -8.49653,13.21625 -2.36474,1.77355 -4.87293,-1.57069 -2.50819,-3.34424 z"
       inkscape:connector-curvature="0" />
    <path
       style="fill:#000000;fill-opacity:1;fill-rule:nonzero;stroke:none"
       id="path21273"
       d="m 344.98795,290.95996 c 1.80007,3.56119 1.5481,7.57304 1.52123,11.44785 -0.0528,3.47222 -0.10881,6.94436 -0.15553,10.41667 -0.0398,2.95566 -4.2197,2.89941 -4.17993,-0.0562 l 0,0 c 0.0466,-3.46347 0.10231,-6.92678 0.15526,-10.39015 0.0234,-3.20834 0.35627,-6.57975 -1.08001,-9.54864 -1.32193,-2.64386 2.41705,-4.51335 3.73898,-1.86949 z"
       inkscape:connector-curvature="0" />
    <path
       style="fill:#000000;fill-opacity:1;fill-rule:nonzero;stroke:none"
       id="path21275"
       d="m 628.9288,293.86473 c -0.69892,3.57521 -0.87593,7.22045 -1.03133,10.85128 -0.27548,3.19763 -0.0491,6.35323 0.62856,9.48106 0.62133,2.88988 -3.46558,3.76858 -4.08691,0.8787 l 0,0 c -0.74214,-3.4744 -1.01337,-6.98915 -0.7181,-10.53919 0.16584,-3.84585 0.36308,-7.70578 1.10865,-11.49167 0.5797,-2.89852 4.67883,-2.0787 4.09913,0.81982 z"
       inkscape:connector-curvature="0" />
  </g>
</svg>
