<?xml version="1.0" encoding="UTF-8" standalone="no"?>
<!-- Created with Inkscape (http://www.inkscape.org/) -->

<svg
   xmlns:dc="http://purl.org/dc/elements/1.1/"
   xmlns:cc="http://creativecommons.org/ns#"
   xmlns:rdf="http://www.w3.org/1999/02/22-rdf-syntax-ns#"
   xmlns:svg="http://www.w3.org/2000/svg"
   xmlns="http://www.w3.org/2000/svg"
   xmlns:sodipodi="http://sodipodi.sourceforge.net/DTD/sodipodi-0.dtd"
   xmlns:inkscape="http://www.inkscape.org/namespaces/inkscape"
   width="458.21979"
   height="428.78036"
   id="svg22055"
   version="1.1"
   inkscape:version="0.48.0 r9654"
   sodipodi:docname="Optimization.svg">
  <defs
     id="defs22057" />
  <sodipodi:namedview
     inkscape:document-units="mm"
     pagecolor="#ffffff"
     bordercolor="#666666"
     borderopacity="1.0"
     inkscape:pageopacity="0.0"
     inkscape:pageshadow="2"
     inkscape:zoom="0.7176508"
     inkscape:cx="238.0647"
     inkscape:cy="235.1306"
     inkscape:current-layer="layer1"
     id="namedview22059"
     showgrid="false"
     fit-margin-top="0"
     fit-margin-left="0"
     fit-margin-right="0"
     fit-margin-bottom="0"
     inkscape:window-width="660"
     inkscape:window-height="624"
     inkscape:window-x="0"
     inkscape:window-y="0"
     inkscape:window-maximized="1" />
  <metadata
     id="metadata22061">
    <rdf:RDF>
      <cc:Work
         rdf:about="">
        <dc:format>image/svg+xml</dc:format>
        <dc:type
           rdf:resource="http://purl.org/dc/dcmitype/StillImage" />
        <dc:title />
      </cc:Work>
    </rdf:RDF>
  </metadata>
  <g
     inkscape:label="Layer 1"
     inkscape:groupmode="layer"
     id="layer1"
     transform="translate(-239.81227,-110.8856)">
    <path
       style="fill:#000000;fill-opacity:1;fill-rule:nonzero;stroke:none"
       id="path22588"
       d="m 296.79801,497.74275 c 52.52739,-0.99148 105.08116,-1.01649 157.62555,-1.14044 72.09176,0.0876 144.18355,0.11533 216.27541,0.0696 4.47735,-0.003 4.48342,4.17747 0.006,4.18031 l 0,0 c -72.08633,0.0457 -144.17262,0.0181 -216.25886,-0.0696 -52.46677,0.12378 -104.94284,0.14867 -157.39269,1.13705 -4.47372,0.11927 -4.72921,-4.05763 -0.25549,-4.17689 z"
       inkscape:connector-curvature="0" />
    <path
       inkscape:connector-curvature="0"
       d="m 312.57769,138.06724 c 0.98296,52.52755 0.99943,105.08133 1.11485,157.62574 -0.0993,72.09175 -0.13873,144.18353 -0.1047,216.2754 0.002,4.47735 -4.1782,4.48274 -4.18032,0.005 l 0,0 c -0.034,-72.08633 0.005,-144.17262 0.10471,-216.25884 -0.11526,-52.4668 -0.13163,-104.94287 -1.1115,-157.39288 -0.11854,-4.47374 4.0584,-4.72856 4.17693,-0.25482 z"
       id="path22590"
       style="fill:#000000;fill-opacity:1;fill-rule:nonzero;stroke:none" />
    <path
       style="fill:#000000;fill-opacity:1;fill-rule:nonzero;stroke:none"
       id="path22594"
       d="m 299.4459,158.64361 c 1.4383,-3.81941 3.25323,-7.45286 4.50038,-11.34602 1.32401,-3.99799 2.35762,-8.08471 3.03236,-12.24101 0.11592,-0.89956 0.27825,-1.79969 0.30826,-2.70809 -0.0536,1.37863 2.13972,-1.35334 3.32914,-1.74916 0.4921,-0.16376 2.57814,3.16986 2.8707,3.6348 2.21725,4.21224 3.48507,8.82379 4.94531,13.33107 1.20527,3.28625 2.53323,6.56866 4.57518,9.43054 0.65856,0.82646 0.34446,0.45434 0.93314,1.12405 1.94274,2.22783 -1.20789,4.97528 -3.15063,2.74745 l 0,0 c -0.7641,-0.88149 -0.36222,-0.39829 -1.19562,-1.45788 -2.26318,-3.22334 -3.82029,-6.85597 -5.13893,-10.55594 -1.3543,-4.18143 -2.53148,-8.45269 -4.50867,-12.39627 -1.71923,-2.74425 -1.90114,-1.78787 1.51423,-4.2515 0.0546,-0.0394 0.004,0.13463 0.006,0.20194 -0.0244,1.11441 -0.21564,2.21871 -0.36221,3.32096 -0.71265,4.36268 -1.7889,8.655 -3.17982,12.85227 -1.3269,4.08886 -3.1936,7.92789 -4.73988,11.93228 -1.32193,2.64385 -5.06091,0.77436 -3.73898,-1.86949 z"
       inkscape:connector-curvature="0" />
    <path
       inkscape:connector-curvature="0"
       d="m 653.63618,487.42234 c 3.78445,1.52792 7.37412,3.42798 11.2368,4.76653 3.96568,1.41787 8.0269,2.54751 12.16614,3.32002 0.89658,0.13709 1.79264,0.32059 2.70008,0.372 -1.37699,-0.0861 1.30253,2.17102 1.67021,3.36944 0.15211,0.49582 -3.22974,2.50272 -3.70145,2.78424 -4.26333,2.11736 -8.90348,3.27614 -13.44392,4.62974 -3.31374,1.12749 -6.62654,2.37772 -9.53575,4.35165 -0.84175,0.6389 -0.46233,0.33366 -1.14573,0.90639 -2.273,1.88969 -4.94543,-1.32481 -2.67243,-3.21451 l 0,0 c 0.89925,-0.74311 0.40671,-0.35273 1.48565,-1.16093 3.27579,-2.18658 6.94411,-3.65764 10.67413,-4.88871 4.21218,-1.25538 8.51,-2.33156 12.49908,-4.21526 2.78401,-1.65408 1.83218,-1.85848 4.21464,1.61401 0.0381,0.0555 -0.13469,8.2e-4 -0.20203,0.001 -1.11353,-0.0507 -2.21301,-0.26787 -3.3115,-0.44038 -4.34467,-0.81527 -8.61044,-1.99239 -12.77376,-3.48184 -4.05645,-1.4229 -7.85042,-3.37956 -11.81725,-5.01979 -2.61196,-1.38387 -0.65487,-5.07776 1.95709,-3.69388 z"
       id="path22596"
       style="fill:#000000;fill-opacity:1;fill-rule:nonzero;stroke:none" />
    <path
       style="fill:#000000;fill-opacity:1;fill-rule:nonzero;stroke:none"
       id="path22622"
       d="m 551.20796,122.78209 c 0.78658,3.50399 0.96602,7.1072 1.13021,10.68344 0.2043,3.90157 -0.45723,7.78309 -0.85239,11.65605 -0.16865,1.55826 -0.2322,3.12534 -0.36737,4.68616 -0.25942,2.94452 -4.4236,2.57764 -4.16417,-0.36688 l 0,0 c 0.14233,-1.57937 0.19549,-3.16693 0.37283,-4.74364 0.37442,-3.66877 1.01192,-7.34624 0.83515,-11.04084 -0.15005,-3.29903 -0.30457,-6.62419 -1.00976,-9.86042 -0.71691,-2.86766 3.33858,-3.88154 4.0555,-1.01387 z"
       inkscape:connector-curvature="0" />
    <path
       style="fill:#000000;fill-opacity:1;fill-rule:nonzero;stroke:none"
       id="path22624"
       d="m 546.65014,117.6192 c 3.30585,-0.60454 6.6633,-0.87446 10.01269,-1.10563 2.53631,-0.26979 5.52405,0.40972 6.12543,3.3407 0.12445,0.60654 -0.0229,1.23813 -0.0344,1.8572 -1.57048,4.2677 -4.65257,7.71986 -7.72519,10.9845 -1.64335,1.9209 -3.5041,3.65123 -5.52164,5.17235 1.48698,-1.41399 -0.60015,0.82704 -1.32429,-3.66602 -0.0638,-0.396 0.77987,-0.19008 1.17452,-0.26184 1.78347,-0.32425 3.59281,-0.43602 5.3974,-0.56931 3.92194,-0.075 8.10819,0.80473 10.42052,4.31373 0.42141,0.63949 0.65061,1.38667 0.97592,2.08 0.8919,5.83052 -3.16094,9.43617 -7.64918,12.29079 -3.47219,1.87547 -7.24773,3.31169 -11.1912,2.38758 -1.95669,-1.51093 -1.25503,-0.53839 -2.05326,-2.95423 -0.26799,-2.94375 3.8951,-3.32275 4.16309,-0.379 l 0,0 c -0.59113,-0.75232 -0.2307,-0.60391 -0.94934,-0.68277 2.33904,1.20357 5.73148,-1.11524 7.80677,-1.91122 2.77215,-1.71559 5.60907,-3.61038 6.02511,-7.11781 -1.08271,-3.21821 -4.09118,-3.93569 -7.24203,-3.858 -1.60869,0.1176 -3.22254,0.21307 -4.81488,0.48494 -0.29057,0.0496 -0.62267,0.34939 -0.86537,0.18209 -3.73951,-2.5779 -3.82278,-1.93263 -2.38543,-3.68058 1.83401,-1.37311 3.50795,-2.95785 4.9943,-4.70116 2.49722,-2.6332 4.82808,-5.40912 6.6104,-8.58428 1.13947,-0.91599 -0.76919,0.54695 0.44065,-0.14051 0.65663,-0.37311 -2.2942,-0.8515 -2.09039,-0.41674 -3.17077,0.21829 -6.34962,0.46957 -9.48034,1.03434 -2.89852,0.57971 -3.71835,-3.51942 -0.81983,-4.09912 z"
       inkscape:connector-curvature="0" />
    <path
       style="fill:#000000;fill-opacity:1;fill-rule:nonzero;stroke:none"
       id="path22626"
       d="m 648.64416,130.58956 c -0.30732,4.45981 -1.38671,8.80475 -2.4358,13.13423 -1.00919,3.93871 -2.66634,7.6629 -3.88977,11.53424 -0.0623,0.18493 -0.73423,2.66682 -0.82306,2.64483 -4.40166,-1.08998 -3.97792,-0.38903 -4.03029,-2.94887 -0.19023,-4.78831 1.32274,-9.39899 2.76281,-13.90241 1.39066,-3.79203 3.06451,-7.49199 5.03541,-11.01751 0.73104,-1.17071 1.50289,-2.33794 2.49352,-3.30813 2.14225,-1.89941 3.7201,1.41697 4.21387,2.81693 0.42723,2.15609 1.12019,4.19536 2.02886,6.19462 1.86637,4.01367 3.23292,8.21754 4.32489,12.49978 0.87331,3.89263 1.25102,7.87031 1.44391,11.84783 0.0116,0.33727 0.0231,0.67455 0.0347,1.01183 0.10059,2.95421 -4.0773,3.09646 -4.17788,0.14225 l 0,0 c -0.0107,-0.31754 -0.0215,-0.63508 -0.0322,-0.95262 -0.17748,-3.69835 -0.52124,-7.39739 -1.31994,-11.01949 -1.02512,-4.04707 -2.31916,-8.01672 -4.08273,-11.80793 -0.94671,-2.10492 -1.7439,-4.24947 -2.1619,-6.52605 -0.42508,-1.20567 -0.93476,-2.31606 -0.75383,-2.30208 3.98065,0.30761 2.24327,2.04419 3.37478,1.11297 -0.69174,0.69076 -1.21907,1.52911 -1.74638,2.34636 -1.86504,3.25707 -3.36227,6.73231 -4.694,10.23659 -1.30403,4.0627 -2.72629,8.22525 -2.56427,12.54744 0.007,0.38597 0.39031,1.04827 0.0202,1.15791 -5.06874,1.50141 -4.04577,0.42484 -3.33191,-2.03541 1.19747,-3.77965 2.79766,-7.42108 3.81257,-11.25757 0.97152,-4.00908 1.97657,-8.02657 2.31822,-12.14974 0,-2.95592 4.18031,-2.95592 4.18031,0 z"
       inkscape:connector-curvature="0" />
    <path
       style="fill:#000000;fill-opacity:1;fill-rule:nonzero;stroke:none"
       id="path22628"
       d="m 641.19649,143.30998 c 4.39695,1.36104 9.1248,0.67888 13.63231,0.35503 3.39919,-0.25727 6.79909,-0.50284 10.20149,-0.71367 2.95026,-0.18279 3.20876,3.98952 0.2585,4.17231 l 0,0 c -3.38877,0.20993 -6.77503,0.45477 -10.1606,0.71093 -5.14316,0.36907 -10.49995,1.0568 -15.48423,-0.64329 -2.74451,-1.0978 -1.19198,-4.97912 1.55253,-3.88131 z"
       inkscape:connector-curvature="0" />
    <path
       style="fill:#000000;fill-opacity:1;fill-rule:nonzero;stroke:none"
       id="path22630"
       d="m 616.86838,300.41141 c -3.08637,0.74744 -4.84622,3.04039 -5.9915,5.84068 -1.1428,2.99564 0.0332,5.51147 2.41406,7.4008 2.41789,1.42349 5.00239,1.06723 7.5784,0.39639 2.86358,-0.73307 3.90029,3.31664 1.03671,4.04971 l 0,0 c -3.93039,0.99228 -7.80361,1.10769 -11.32022,-1.25904 -3.86136,-3.41408 -5.34608,-7.20785 -3.54702,-12.24441 1.80099,-4.02469 4.51997,-7.25322 9.00974,-8.28326 2.89852,-0.5797 3.71835,3.51943 0.81983,4.09913 z"
       inkscape:connector-curvature="0" />
    <path
       style="fill:#000000;fill-opacity:1;fill-rule:nonzero;stroke:none"
       id="path22636"
       d="m 531.42625,511.61213 c 3.40843,2.85786 5.41,6.83944 7.29023,10.77976 1.59459,3.21604 2.82984,6.55864 3.65289,10.04877 0.17569,0.87211 0.38621,1.74798 0.41322,2.64107 -3.86116,-2.94129 -2.61805,-1.41415 -1.13413,-4.97761 1.45467,-3.08571 1.78402,-6.48473 2.40334,-9.79319 0.51585,-3.17976 1.26917,-6.29039 2.03618,-9.41493 0.40438,-1.19959 0.888,-2.36945 1.36702,-3.54034 1.11962,-2.73568 4.98845,-1.1523 3.86883,1.58338 l 0,0 c -0.40173,0.98118 -0.79781,1.96458 -1.17643,2.95498 -0.75086,3.04974 -1.48974,6.08309 -1.98722,9.18904 -0.68101,3.60793 -1.07288,7.30627 -2.66964,10.6683 -0.32093,0.73347 -2.65784,5.40703 -3.68253,5.15257 -1.18645,-0.29463 -2.13702,-1.18786 -3.20553,-1.78179 -0.0226,-0.23447 -0.1892,-1.32721 -0.30269,-1.72573 -0.74861,-3.20254 -1.89441,-6.25927 -3.35806,-9.20835 -1.58075,-3.33234 -3.21366,-6.74401 -6.02367,-9.23169 -2.36474,-1.77355 0.14345,-5.1178 2.50819,-3.34424 z"
       inkscape:connector-curvature="0" />
    <path
       style="fill:#000000;fill-opacity:1;fill-rule:nonzero;stroke:none"
       id="path22646"
       d="m 570.45512,509.63619 c -2.10132,-0.0734 -4.20358,0.1741 -6.2471,0.66641 -1.31893,0.3342 -2.63087,0.69781 -3.93175,1.0985 -0.7759,0.27336 -0.0898,-0.13534 0.63748,-1.17616 0.0238,0.27974 0.0338,0.56034 0.0347,0.84101 -0.0389,0.12835 0.0473,0.29053 0.0528,0.30396 0.56777,2.28002 1.11343,4.56777 1.6136,6.8645 0.64865,3.39001 1.37893,6.75694 1.82611,10.18303 0.24399,1.83347 0.32932,3.68197 0.35754,5.53009 0.006,0.77555 0.005,1.55118 -0.006,2.32668 -0.0273,0.99133 0.15611,0.48978 -1.50708,-1.29854 1.5784,0.0215 3.09116,0.54515 4.65254,0.77789 1.1263,0.14199 2.26068,0.19042 3.39442,0.21676 0.45594,0.007 0.33882,-0.0106 -0.33933,0.10636 1.73389,-1.08655 3.24723,1.40322 1.51335,2.48977 l 0,0 c -1.05012,0.36351 -0.62352,0.33839 -1.24036,0.32885 -1.25302,-0.0295 -2.50673,-0.0856 -3.75095,-0.24766 -0.77312,-0.11751 -2.99461,-0.30356 -3.57269,-0.74712 -0.0502,-0.0385 0.1,-0.0774 0.14998,-0.11615 -2.59468,-1.67332 -2.18605,-0.58222 -2.18105,-1.5527 0.0107,-0.74634 0.0121,-1.49283 0.006,-2.23923 -0.026,-1.73497 -0.10373,-3.47046 -0.33304,-5.19171 -0.43378,-3.34332 -1.15412,-6.62703 -1.78317,-9.93545 -0.48477,-2.23224 -1.01815,-4.45467 -1.56482,-6.67162 -0.0418,-0.19651 -0.19702,-1.09322 -0.16931,-1.14725 -0.002,-0.18136 -0.007,-0.3627 -0.0218,-0.54356 0.76324,-1.57308 0.3788,-1.60175 1.39487,-1.90164 1.36245,-0.41927 2.73626,-0.80051 4.11791,-1.14897 2.26073,-0.52094 4.57453,-0.82794 6.89705,-0.74181 2.03752,0 2.03752,2.92576 0,2.92576 z"
       inkscape:connector-curvature="0" />
    <path
       style="fill:#000000;fill-opacity:1;fill-rule:nonzero;stroke:none"
       id="path22648"
       d="m 572.5422,518.03768 c 0.50138,2.49788 0.64972,5.04965 0.77866,7.58989 0.30891,1.49909 -0.30446,3.26303 0.30435,4.69232 0.22966,0.41342 0.43908,-0.0784 -2.15087,0.64199 -0.0429,-1.98126 0.21687,-3.92638 0.49982,-5.88126 0.41905,-2.01428 0.92134,-3.98376 1.84786,-5.8215 0.77596,-1.4697 1.20245,-1.809 2.91231,-1.68523 1.81959,0.96703 2.50674,2.84123 2.98386,4.75328 0.39202,1.51618 0.20534,3.11052 0.66218,4.60336 0.099,0.27183 0.21282,0.53985 0.35457,0.7914 -0.60298,-0.69027 0.43747,0.44811 -2.28853,0.0646 -0.15364,-0.0216 0.0723,-0.30668 0.12122,-0.45613 0.33642,-1.02816 0.78819,-2.01723 1.18314,-3.0229 0.8972,-2.22605 2.17301,-4.24963 3.39638,-6.29753 1.08643,-1.94861 2.04038,-2.96027 4.15851,-1.21775 1.1654,2.10093 1.62603,4.54825 1.99509,6.91138 0.26121,2.01223 0.3871,4.04016 0.45799,6.06766 0.0381,1.71569 0.23845,0.8868 -2.87323,0.53906 -0.0223,-2.06871 2.85907,-2.10065 2.88131,-0.032 l 0,0 c -3.17023,0.33088 -2.84425,1.19554 -2.88776,-0.4037 -0.0662,-1.91034 -0.18381,-3.82108 -0.42497,-5.7176 -0.27606,-1.80864 -0.73579,-3.55966 -1.20662,-5.31721 1.33603,-0.2104 1.36072,-1.05134 0.36334,0.68751 -1.14117,1.91011 -2.33992,3.79133 -3.18383,5.86464 -0.35898,0.91255 -0.78223,1.81471 -1.09013,2.7471 -0.0808,0.24462 10e-4,0.61209 -0.21808,0.74167 -2.16225,1.27525 -1.90758,1.45663 -2.6161,0.69125 -0.40999,-0.53831 -0.6712,-1.17002 -0.88532,-1.81117 -0.43876,-1.55418 -0.41064,-3.14878 -0.6969,-4.7334 -0.15539,-0.66536 -0.30755,-1.3116 -0.62824,-1.9195 -0.13807,-0.26173 -0.47037,-0.42647 -0.51707,-0.71958 -0.0112,-0.0706 0.14069,0.007 0.21104,0.011 0.873,-0.17426 1.02075,-0.90637 0.39649,0.20147 -0.79363,1.54546 -1.17629,3.21291 -1.55765,4.90525 -0.28105,1.94171 -0.51539,3.8653 -0.49316,5.83234 -2.37641,1.57616 -2.34438,2.15411 -3.41719,-0.0258 -0.58928,-1.78872 -0.33468,-3.67643 -0.4715,-5.5349 -0.11871,-2.35211 -0.2526,-4.71401 -0.69642,-7.03044 -0.49417,-2.00706 2.30127,-2.71666 2.79545,-0.70961 z"
       inkscape:connector-curvature="0" />
    <path
       style="fill:#000000;fill-opacity:1;fill-rule:nonzero;stroke:none"
       id="path22650"
       d="m 602.31752,510.23565 c 0.19057,2.97847 -0.64814,5.95776 -1.28681,8.84653 -1.03368,4.51106 -2.73554,8.80616 -4.391,13.10659 -0.82485,2.17929 -1.54893,4.39678 -2.02226,6.68305 -0.20895,1.54724 -3.17744,0.68127 -2.647,-1.28559 0.54067,-1.99466 3.31885,-1.21828 2.77818,0.77638 l 0,0 c -0.42415,1.55542 -3.26042,1.37835 -2.95051,-0.0952 0.50982,-2.44239 1.27267,-4.8157 2.15784,-7.14378 1.60251,-4.16271 3.25767,-8.31737 4.26336,-12.68283 0.54629,-2.46656 1.17965,-4.96493 1.30275,-7.49556 -0.49416,-2.00706 2.30128,-2.71667 2.79545,-0.7096 z"
       inkscape:connector-curvature="0" />
    <path
       style="fill:#000000;fill-opacity:1;fill-rule:nonzero;stroke:none"
       id="path22652"
       d="m 610.25835,514.6728 c 0.82405,0.0232 1.64786,-0.01 2.46834,-0.0871 1.15429,-0.13131 0.25795,-0.20895 0.20769,2.85122 -0.97233,0.0188 -1.96607,-0.16261 -2.86194,0.28934 -0.48584,0.41972 -1.79857,0.95039 -1.94132,1.65088 -0.0204,0.0534 -0.0801,0.21402 -0.0611,0.16013 0.0506,-0.14327 0.20205,-0.26004 0.19383,-0.41202 -0.006,-0.11882 -0.12024,-0.24938 -0.0604,-0.35169 0.0391,-0.0668 0.59892,0.23492 0.91694,0.38936 2.05923,0.66929 3.65741,1.97819 5.03065,3.63115 1.22547,1.45071 2.06591,3.02113 2.0537,4.95185 -0.44829,2.47745 -2.76296,2.92403 -4.86611,3.21845 -1.50995,0.18624 -2.9437,0.29708 -4.27859,-0.53934 -0.71151,-0.4956 -0.894,-1.27427 -0.98621,-2.08151 -0.18211,-2.06055 2.68785,-2.32204 2.86995,-0.2615 l 0,0 c -0.003,0.34021 -0.068,0.0447 -0.27825,-0.0865 0.50354,0.54219 1.6483,-0.029 2.29057,0.069 0.77358,-0.10127 1.66694,-0.24897 2.36886,-0.41916 0.12167,-1.15659 -0.73162,-2.09973 -1.38539,-2.97564 -1.10425,-1.35972 -2.37877,-2.34042 -4.06318,-2.86773 -1.71486,-0.83398 -3.30816,-1.89471 -2.15663,-4.02651 0.84557,-1.18129 2.0009,-2.11586 3.28835,-2.76807 1.31187,-0.47872 2.59666,-0.58371 3.98272,-0.49569 0.64536,2.90904 1.51184,2.81939 6.4e-4,2.98738 -1.14015,0.10597 -2.29314,0.16667 -3.43198,0.0121 -1.97668,-0.50177 -1.27782,-3.34018 0.69886,-2.83841 z"
       inkscape:connector-curvature="0" />
    <path
       style="fill:#000000;fill-opacity:1;fill-rule:nonzero;stroke:none"
       id="path22654"
       d="m 617.70777,505.73517 c 1.99622,-0.28239 3.98454,-0.51233 5.93615,-1.02915 0.83524,-0.23938 1.67259,-0.47788 2.48969,-0.77649 0.6011,-0.15804 1.92573,1.57291 1.93332,2.46548 0.57641,2.95793 0.72816,5.97266 0.87316,8.97689 0.16377,4.33837 0.1882,8.68048 0.20364,13.02149 0.006,2.24008 0.003,4.48016 -6.8e-4,6.72023 -6.9e-4,0.45128 -0.002,0.90256 -0.003,1.35383 -1.66332,1.25863 -1.58187,1.35345 -2.9711,1.3702 -1.19003,0.11815 -2.43884,-0.11759 -3.60722,0.16088 -1.13971,0.30388 -2.28978,0.53548 -3.45591,0.70422 -2.01733,0.29049 -2.42193,-2.60629 -0.4046,-2.89678 l 0,0 c 1.12674,-0.16136 2.23353,-0.39748 3.33606,-0.68433 1.35721,-0.22336 2.72811,-0.17102 4.10111,-0.20959 1.51011,-0.0146 3.19881,-0.30016 0.12019,1.54517 10e-4,-0.44969 0.002,-0.89939 0.003,-1.34908 0.004,-2.23473 0.007,-4.46946 6.9e-4,-6.70419 -0.0152,-4.29691 -0.0392,-8.59489 -0.20023,-12.88922 -0.14743,-3.07075 -0.35802,-6.1319 -0.87625,-9.16454 0.02,-0.71525 0.0202,-1.48283 0.15887,-1.42338 2.92466,1.25396 2.74797,1.37195 1.76151,1.7568 -0.89912,0.3264 -1.81791,0.59417 -2.73738,0.85408 -2.18682,0.57533 -4.41906,0.85618 -6.66102,1.12325 -2.03752,0 -2.03752,-2.92577 0,-2.92577 z"
       inkscape:connector-curvature="0" />
    <path
       style="fill:#000000;fill-opacity:1;fill-rule:nonzero;stroke:none"
       id="path22656"
       d="m 248.49919,336.55511 c -1.59215,1.20906 -3.18213,2.52091 -4.05982,4.35508 -0.18722,0.65268 -1.01942,2.30149 -0.29557,2.77865 0.7308,1.02115 2.26381,1.03241 3.4064,1.18728 2.99055,0.27819 5.99849,0.31226 8.9995,0.38284 3.62789,0.14639 7.22825,0.20736 10.84363,-0.13491 4.41179,-0.2526 8.77211,-0.97198 13.16437,-1.42004 3.75511,-0.48846 7.417,-0.004 10.82435,1.62225 2.26808,1.30462 3.66772,3.27451 4.56432,5.67122 0.98006,2.78872 -2.96378,4.17473 -3.94384,1.38601 l 0,0 c -0.42739,-1.38598 -1.244,-2.52351 -2.48302,-3.31479 -2.62467,-1.40017 -5.6273,-1.53332 -8.53887,-1.20583 -4.40278,0.44628 -8.77339,1.17128 -13.19569,1.4231 -3.77873,0.35352 -7.54265,0.31053 -11.33357,0.15214 -3.16341,-0.074 -6.33494,-0.10844 -9.48568,-0.42275 -2.60044,-0.37856 -5.18641,-0.97114 -6.56129,-3.45788 -0.93126,-2.23404 -0.71971,-4.38062 0.3239,-6.57162 1.18377,-2.19161 2.84091,-4.02634 4.88964,-5.45952 2.14167,-2.03734 5.0229,0.99143 2.88124,3.02877 z"
       inkscape:connector-curvature="0" />
    <path
       style="fill:#000000;fill-opacity:1;fill-rule:nonzero;stroke:none"
       id="path22658"
       d="m 265.78934,354.36249 c -0.70369,-2.59015 -0.70491,-5.28414 -1.07487,-7.92287 -0.5293,-2.64436 -0.88012,-5.31357 -1.05512,-8.00357 -0.0156,-0.32962 -0.0304,-0.65924 -0.0457,-0.98888 -0.13523,-2.95282 4.04065,-3.14413 4.17592,-0.19131 l 0,0 c 0.0138,0.30404 0.0276,0.60808 0.0415,0.91213 0.16428,2.59185 0.52204,5.15924 1.02548,7.7075 0.33558,2.52545 0.3644,5.09538 1.01233,7.57465 0.64512,2.88467 -3.43442,3.79701 -4.07953,0.91235 z"
       inkscape:connector-curvature="0" />
    <path
       style="fill:#000000;fill-opacity:1;fill-rule:nonzero;stroke:none"
       id="path22660"
       d="m 258.66314,310.54356 c -0.0452,1.81185 -0.0905,3.62371 -0.1357,5.43555 -0.0199,0.79531 -0.0397,1.59062 -0.0596,2.38592 -0.0269,0.91778 0.11729,0.40361 -1.17537,-1.45911 2.02941,-0.009 4.05814,0.0787 6.08642,0.13714 3.06321,0.0874 6.12665,0.16676 9.1901,0.24504 3.34139,-0.19492 6.67825,-0.42108 9.99749,-0.9266 1.93178,-0.30856 3.86994,-0.56042 5.81108,-0.76969 1.29897,-0.0966 1.0778,-0.46185 -0.6478,1.75151 -0.24631,-1.51419 -0.0458,-3.08169 0.0272,-4.61225 0.0569,-1.28975 0.10771,-2.57979 0.15373,-3.87001 -0.0581,-1.01537 0.75186,-1.87936 1.59467,-2.01842 1.99325,-0.17942 2.19402,3.06177 0.20077,3.2412 l 0,0 c 0.67742,-0.24114 1.12476,-2.36065 1.02819,-1.11198 -0.0467,1.3052 -0.098,2.61023 -0.15565,3.91494 -0.0531,1.10928 -0.0901,2.2497 -0.18715,3.34318 -1.26821,2.70692 -0.40385,2.46755 -1.77012,2.59875 -1.90543,0.2052 -3.80787,0.45273 -5.70405,0.7558 -3.46268,0.52578 -6.94476,0.76872 -10.43105,0.95388 -3.06615,-0.0786 -6.13228,-0.1581 -9.1982,-0.24534 -1.93422,-0.0563 -3.8684,-0.12908 -5.80347,-0.14537 -1.83398,-1.61508 -1.87156,-0.75383 -1.84175,-1.85335 0.0199,-0.7953 0.0397,-1.5906 0.0596,-2.38591 0.0452,-1.81185 0.0905,-3.6237 0.13571,-5.43556 0.0574,-2.29834 2.88223,-2.22782 2.82486,0.0705 z"
       inkscape:connector-curvature="0" />
    <path
       style="fill:#000000;fill-opacity:1;fill-rule:nonzero;stroke:none"
       id="path22662"
       d="m 268.43333,299.42213 c 0.14458,1.42139 0.2634,2.50592 1.31863,3.29334 0.75199,0.38816 1.31406,-0.23108 1.84066,-0.79468 1.05785,-1.2972 2.07382,-2.60134 3.30641,-3.68344 1.71601,-1.27729 3.60492,-1.46422 5.52175,-0.83004 2.00306,0.85976 2.58325,2.8799 2.84037,5.12311 0.2164,1.88564 -0.0944,3.70135 -0.86269,5.37537 -0.29142,0.52939 -0.67851,0.94603 -1.08996,1.34497 -1.55201,1.4606 -3.33215,-1.04997 -1.78014,-2.51058 l 0,0 c 0.15807,-0.13684 0.30803,-0.28353 0.43345,-0.46146 0.6303,-0.85084 0.53428,-2.29506 0.49579,-3.31646 -0.10059,-0.96064 -0.0671,-2.03729 -0.93738,-2.46614 -0.94872,-0.4822 -2.0254,-0.22265 -2.92488,0.32774 -1.18438,1.02221 -2.09787,2.33734 -3.14623,3.53304 -1.58683,1.5515 -3.40453,2.29436 -5.33552,1.02075 -1.57794,-1.33116 -2.26444,-3.00207 -2.44045,-5.2356 -0.42879,-2.24181 2.3314,-2.96172 2.76019,-0.71992 z"
       inkscape:connector-curvature="0" />
    <path
       style="fill:#000000;fill-opacity:1;fill-rule:nonzero;stroke:none"
       id="path22664"
       d="m 263.60812,286.62882 c 2.77587,-0.41207 5.55975,-0.75238 8.33981,-1.14683 2.51353,-0.32881 5.04066,-0.46466 7.56709,-0.51337 0.84486,0.0203 2.47034,-0.27453 2.89068,0.90719 0.17763,0.49935 0.15505,1.06569 0.23256,1.59855 -0.1396,0.27603 -0.27921,0.55204 -0.4188,0.82807 -1.30274,1.75371 -3.44566,-0.3484 -2.14294,-2.1021 l 0,0 c -0.0598,0.16866 -0.11968,0.33732 -0.17952,0.50597 0.42101,1.66278 0.0947,1.081 1.04858,1.5101 0.43461,0.19548 -1.84604,-0.16734 -1.40333,0.003 -2.42646,0.0462 -4.85363,0.17534 -7.26787,0.48934 -2.68617,0.38102 -5.37387,0.72829 -8.05986,1.0906 -1.95175,0.50906 -2.55815,-2.66136 -0.6064,-3.1704 z"
       inkscape:connector-curvature="0" />
    <path
       style="fill:#000000;fill-opacity:1;fill-rule:nonzero;stroke:none"
       id="path22666"
       d="m 272.1907,293.64154 c -0.23235,-2.46139 -0.72602,-4.86863 -1.10623,-7.30176 -0.29103,-1.89532 -0.35142,-3.82267 -0.36017,-5.74507 -3.8e-4,-0.52732 0.007,-1.05466 0.0218,-1.58182 0.0654,-2.29813 2.88951,-2.21524 2.82452,0.0829 l 0,0 c -0.0141,0.4865 -0.0203,0.9732 -0.0203,1.45987 0.007,1.73534 0.0551,3.47588 0.31576,5.18734 0.38135,2.4423 0.87628,4.85975 1.11056,7.33023 0.33548,2.26349 -2.45043,2.83179 -2.78591,0.5683 z"
       inkscape:connector-curvature="0" />
    <path
       style="fill:#000000;fill-opacity:1;fill-rule:nonzero;stroke:none"
       id="path22668"
       d="m 272.19135,274.29494 c 0.68345,-1.38727 1.12779,-2.9167 1.43836,-4.46361 0.17174,-0.75011 0.0219,-0.55387 -0.48178,-0.77513 -1.0622,-0.25784 -2.29991,-0.77645 -3.3919,-0.50039 -0.61735,0.11094 -0.37758,0.67981 -0.21243,1.21179 0.71108,1.94456 1.99046,3.44306 3.40763,4.72663 1.38637,1.10599 2.82429,1.5732 4.41607,0.84364 1.42444,-0.93991 2.17082,-2.41346 2.65253,-4.15533 0.32241,-1.42929 0.44139,-2.8999 0.4972,-4.36858 -0.0762,-0.83468 0.12706,0.38958 0.23624,0.58713 -1.52345,-1.47533 0.30533,-3.96864 1.8288,-2.4933 l 0,0 c 0.46107,0.58079 0.86527,1.16511 0.75819,2.02778 -0.0694,1.76848 -0.22371,3.53868 -0.63917,5.2525 -0.80523,2.7071 -2.11114,4.94487 -4.42421,6.22048 -2.71214,0.99799 -4.77934,0.49261 -7.0998,-1.36945 -1.91817,-1.78525 -3.63111,-3.86995 -4.40826,-6.63287 -0.3182,-2.55801 0.24583,-4.53788 2.67232,-5.07867 1.69646,-0.16476 3.42742,0.14989 5.01767,0.83792 1.48411,0.96293 2.39971,2.33954 1.92111,4.39157 -0.37922,1.81882 -0.89236,3.61878 -1.69823,5.25459 -0.94463,2.03338 -3.43496,0.51671 -2.49034,-1.5167 z"
       inkscape:connector-curvature="0" />
    <path
       style="fill:#000000;fill-opacity:1;fill-rule:nonzero;stroke:none"
       id="path22670"
       d="m 272.2484,260.04133 c -1.27023,-1.71193 -1.99612,-3.75577 -2.39858,-5.93699 -0.19346,-3.04473 0.5889,-4.56996 3.13165,-5.59732 2.18399,-0.65997 4.40868,-0.3362 6.53593,0.38043 2.12078,1.14459 3.23892,2.4618 3.65436,5.1555 -0.12823,3.02123 -1.87962,5.04353 -3.99903,6.55468 -1.18478,0.76847 -2.43874,1.27883 -3.78382,1.45827 -1.39157,0.19 -2.07892,-1.01774 -2.25695,-2.36872 -0.0227,-0.47207 -0.0129,-0.9458 0.0171,-1.41749 0.01,-1.0298 1.1686,-1.6547 2.00252,-1.63377 2.10417,0.0565 4.2084,0.11007 6.31267,0.1626 2.66666,-0.15405 5.32264,-0.49147 7.98747,-0.68138 1.16578,-0.0844 2.33304,-0.12227 3.50046,-0.119 0.22356,5.2e-4 0.44695,0.004 0.66971,0.0237 1.98486,0.24996 1.65786,3.48179 -0.32701,3.23184 l 0,0 c -0.12334,-10e-4 -0.24665,-8.5e-4 -0.36994,-0.004 -1.10681,-0.004 -2.21344,0.0328 -3.3187,0.11283 -2.74355,0.19448 -5.47753,0.55541 -8.22417,0.68677 -2.10408,-0.0533 -4.20815,-0.10705 -6.31217,-0.16259 -0.93899,-0.0237 -0.0855,-0.0524 0.89733,-1.39748 -0.0173,0.29234 -0.0272,0.58525 -0.0213,0.87816 -0.23946,-0.40742 -1.37718,-0.64014 -0.84958,-0.54226 0.93848,-0.11154 1.80029,-0.48624 2.63137,-1.0094 1.16798,-0.77244 2.25679,-1.80381 2.63902,-3.35244 0.0623,-1.24823 -0.87905,-1.88073 -1.69409,-2.46611 -1.55472,-0.5847 -3.2316,-0.80341 -4.84482,-0.3948 -1.1144,0.33358 -1.17918,0.28658 -1.20997,1.82596 0.27282,1.59535 0.79156,3.08823 1.68521,4.36498 1.37186,1.66043 -0.68299,3.90891 -2.05485,2.24847 z"
       inkscape:connector-curvature="0" />
    <path
       style="fill:#000000;fill-opacity:1;fill-rule:nonzero;stroke:none"
       id="path22672"
       d="m 267.17929,239.8107 c 0.34282,-1.24741 0.17579,-2.58992 0.10169,-3.87298 -0.0301,-0.48902 -0.0624,-0.97789 -0.10342,-1.46575 0.0389,0.21894 1.32754,1.70354 1.99746,1.24032 -0.13598,0.70487 -0.25632,1.48017 -0.12186,2.18866 0.36784,0.87066 0.93292,0.9457 1.70997,1.12213 1.11504,0.27478 1.90705,-0.0192 2.64877,-0.94223 0.74266,-1.1996 1.50833,-2.35984 2.3966,-3.43109 1.12224,-1.17531 2.55335,-1.53539 4.01224,-1.68664 2.0479,0.0906 3.16629,1.46173 3.78944,3.59516 0.51663,2.39718 -0.12021,4.73501 -1.06003,6.87962 -0.43325,0.48707 -1.18506,2.9849 -2.02684,2.95797 -0.65801,-0.0214 -1.26352,-0.4166 -1.89527,-0.6249 -0.37324,-1.27912 -0.28518,-0.70188 -0.36527,-1.70643 -0.15924,-2.29021 2.65774,-2.57212 2.81702,-0.2819 l 0,0 c 0.0217,0.43901 0.0735,0.40383 -0.17629,0.042 -3.98476,-0.71082 -0.74054,-0.67006 -1.99144,0.0507 -0.0946,0.0545 0.13133,-0.19106 0.19466,-0.28864 0.33821,-0.52116 0.65208,-1.06296 0.93489,-1.62611 0.62771,-1.34669 1.12746,-2.8862 0.86791,-4.42333 -0.1779,-0.81291 -0.19241,-1.02201 -0.8707,-1.33501 -0.75613,0.0661 -1.55614,0.16792 -2.19385,0.68466 -0.90186,1.08324 -1.63036,2.28945 -2.42773,3.46797 -1.487,1.67487 -3.20697,2.33306 -5.27438,1.84453 -1.93496,-0.51344 -3.37334,-1.52156 -3.89235,-3.85893 -0.12318,-1.46058 -0.0701,-2.98884 0.52597,-4.3285 0.67212,-0.99439 2.57568,-2.65529 3.21279,0.11041 0.044,0.52482 0.0796,1.05059 0.11154,1.57667 0.0952,1.65225 0.2462,3.35943 -0.20054,4.96791 -0.54013,2.21761 -3.26095,1.36088 -2.72084,-0.85675 z"
       inkscape:connector-curvature="0" />
    <path
       style="fill:#000000;fill-opacity:1;fill-rule:nonzero;stroke:none"
       id="path22674"
       d="m 259.77063,213.89672 c 3.37261,-0.27026 6.57245,1.39839 9.66575,2.7031 4.38298,1.84092 8.66411,3.97571 13.03806,5.84289 2.36427,1.10092 4.7978,2.01572 6.95665,3.6001 0.33106,0.24554 0.63336,0.53244 0.92419,0.83594 1.46048,1.55719 -0.46834,3.94885 -1.92882,2.39165 l 0,0 c -0.16262,-0.18432 -0.34651,-0.33983 -0.5345,-0.4886 -1.97898,-1.47543 -4.2563,-2.24125 -6.41775,-3.29042 -4.36941,-1.8685 -8.64933,-3.99453 -13.02724,-5.83828 -2.6005,-1.09739 -5.25848,-2.4727 -8.06995,-2.58597 -1.95174,0.50905 -2.55815,-2.66136 -0.60639,-3.17041 z"
       inkscape:connector-curvature="0" />
    <path
       style="fill:#000000;fill-opacity:1;fill-rule:nonzero;stroke:none"
       id="path22676"
       d="m 268.95736,202.9482 c 0.15257,1.20785 0.47452,2.242 1.31483,3.0246 0.84909,0.41593 1.92679,0.84086 2.85818,0.62447 1.019,-0.16395 1.52201,-1.26806 2.08984,-2.1414 0.79399,-1.50107 1.72247,-2.91238 2.77352,-4.18803 0.784,-0.97406 1.75006,-1.58006 2.8524,-1.91354 1.85801,-0.0402 2.76443,1.53665 3.6149,3.20557 0.86578,1.67953 1.09858,3.59626 1.21468,5.51328 -0.0213,1.77847 -0.75631,3.08703 -2.09929,3.91085 -0.53507,0.25526 -1.09633,0.30781 -1.66491,0.32518 -1.99809,0.0489 -2.0386,-3.20126 -0.0405,-3.25037 l 0,0 c 0.12603,-0.002 0.42615,-0.0639 0.44235,0.0272 0.40043,-0.18673 0.45967,-0.16835 0.54273,-0.77181 -0.0799,-1.42635 -0.20465,-2.86687 -0.84823,-4.12056 -0.52014,-1.07536 -0.0609,-0.1838 -0.65644,-1.18675 -0.0832,-0.14015 -0.39678,-0.37107 -0.25396,-0.41693 0.13899,-0.0446 0.28421,-0.0567 0.42631,-0.0849 -0.60931,0.16486 -1.07627,0.46218 -1.50492,1.01403 -0.99464,1.14757 -1.78615,2.51217 -2.54039,3.87316 -1.06836,1.64119 -2.19241,3.22098 -4.09367,3.44085 -1.77018,0.12585 -3.56865,-0.26938 -5.0345,-1.4613 -1.16855,-1.30583 -1.94214,-2.81253 -2.1531,-4.70365 -0.42879,-2.24181 2.3314,-2.96172 2.7602,-0.71991 z"
       inkscape:connector-curvature="0" />
    <path
       style="fill:#000000;fill-opacity:1;fill-rule:nonzero;stroke:none"
       id="path22678"
       d="m 259.66506,200.54046 c 0.41378,-2.51953 0.23305,-5.12907 0.20615,-7.68058 -0.0134,-1.65977 -0.0215,-3.31965 -0.0217,-4.97959 -0.003,-1.43928 -0.0313,-0.49921 2.30596,-1.86717 2.45448,-0.63216 5.07114,-0.66824 7.58351,-0.77987 4.11842,-0.12141 8.23745,-0.0499 12.35465,0.0295 2.50243,-0.0958 4.991,-0.44625 7.48469,-0.69464 0.60089,-0.0573 1.20183,-0.11478 1.80362,-0.15656 1.15421,-0.0531 1.36713,2.05273 1.35929,3.0862 0.005,1.27286 -0.004,2.5457 -0.0222,3.81856 0.063,1.47775 -0.48507,2.84154 -0.81659,4.23772 -0.1055,0.47169 -0.19459,0.94799 -0.26269,1.42836 -0.30498,2.27436 -3.0979,1.80075 -2.79291,-0.4736 l 0,0 c 0.0826,-0.60905 0.20091,-1.21141 0.33409,-1.80866 0.27732,-1.12514 0.7381,-2.23106 0.71246,-3.41428 0.0181,-1.26973 0.0265,-2.53941 0.0222,-3.80914 0.0258,-1.75849 -0.056,-3.07375 1.60187,0.18104 -0.57221,0.0395 -1.14357,0.0956 -1.71495,0.14937 -2.59046,0.25785 -5.17566,0.62591 -7.776,0.70629 -4.06522,-0.0785 -8.13222,-0.1497 -12.19865,-0.0314 -2.85934,0.12592 -5.69981,0.52831 -8.54959,0.62866 1.56226,-1.87785 1.39238,-2.40697 1.39739,-1.25364 2.3e-4,1.64698 0.008,3.29391 0.0215,4.94069 0.0295,2.80982 0.21454,5.67771 -0.27785,8.44939 -0.44801,2.24393 -3.20209,1.53733 -2.75409,-0.70659 z"
       inkscape:connector-curvature="0" />
    <path
       style="color:#000000;fill:#000000;fill-opacity:1;fill-rule:nonzero;stroke:none;stroke-width:1px;marker:none;visibility:visible;display:inline;overflow:visible;enable-background:accumulate"
       id="path3254"
       d="m 318.19271,51.009254 c -1.86184,12.238102 -5.38507,24.049867 -9.27904,35.769867 -10.31577,29.429169 -25.22547,56.919439 -40.74742,83.861399 -17.04325,28.75506 -36.87449,55.8256 -59.02637,80.85518 -4.68631,5.29511 -9.57673,10.40601 -14.3651,15.60901 -18.0085,18.53613 -36.97608,36.19612 -57.35593,52.113 -8.90773,6.95704 -13.78039,10.2214 -22.79528,16.54907 -2.41953,1.69804 -4.82093,-1.72369 -2.4014,-3.42173 l 0,0 c 8.90287,-6.24717 13.76969,-9.50836 22.56189,-16.37277 20.22344,-15.78924 39.04311,-33.31117 56.91499,-51.69862 4.75239,-5.16235 9.60603,-10.23329 14.25716,-15.48705 21.98722,-24.83603 41.67204,-51.69788 58.58798,-80.2331 15.38442,-26.69679 30.1685,-53.93458 40.40271,-83.09337 3.84526,-11.555289 7.31498,-23.202068 9.14668,-35.270711 0.57971,-2.898521 4.67884,-2.078695 4.09913,0.819825 z"
       inkscape:connector-curvature="0"
       transform="translate(239.81227,110.8856)" />
    <path
       style="color:#000000;fill:#000000;fill-opacity:1;fill-rule:nonzero;stroke:none;stroke-width:1px;marker:none;visibility:visible;display:inline;overflow:visible;enable-background:accumulate"
       id="path3308"
       d="m 353.8023,366.31054 c 6.15206,-0.24927 12.10483,-2.1507 17.9341,-3.98518 13.21524,-4.44815 25.76588,-10.58947 38.15142,-16.93531 20.2217,-10.37966 39.5689,-22.30374 58.77366,-34.4283 24.01109,-15.19591 46.96895,-31.94709 69.98057,-48.59178 20.89065,-14.71945 41.27263,-30.1299 61.03223,-46.33355 14.925,-12.06139 28.69886,-25.40372 41.57165,-39.61126 6.46369,-7.8465 3.39218,-3.89918 9.23486,-11.82614 1.75479,-2.3787 5.11877,0.10294 3.36399,2.48164 l 0,0 c -6.02144,8.15549 -2.86066,4.09998 -9.50133,12.15168 -13.01427,14.35708 -26.93279,27.84615 -42.01857,40.03662 -19.82617,16.25558 -40.27264,31.72069 -61.23285,46.48813 -23.08283,16.69621 -46.11299,33.49743 -70.19894,48.73947 -19.31066,12.19105 -38.76609,24.17797 -59.09941,34.61406 -12.59609,6.45096 -25.36133,12.69078 -38.80411,17.20278 -6.1746,1.93747 -12.47626,3.92022 -18.99159,4.17287 -2.95267,0.13836 -3.14836,-4.03736 -0.19568,-4.17573 z"
       inkscape:connector-curvature="0" />
    <path
       style="color:#000000;fill:#000000;fill-opacity:1;fill-rule:nonzero;stroke:none;stroke-width:1px;marker:none;visibility:visible;display:inline;overflow:visible;enable-background:accumulate"
       id="path3334"
       d="m 349.18809,219.60545 c 6.32195,6.74875 13.7346,12.24194 21.18937,17.65081 20.61525,13.97957 42.55551,25.98266 65.60163,35.46575 6.14289,2.5277 12.41767,4.72217 18.62651,7.08326 29.9018,10.08741 61.11479,16.59895 92.69397,17.94625 4.90244,0.20916 9.81334,0.0946 14.72001,0.14196 11.13423,-0.17089 22.18616,-1.59297 32.93873,-4.49341 2.49177,-0.67213 4.92287,-1.55183 7.38429,-2.32774 2.81988,-0.88646 4.07352,3.10144 1.25365,3.9879 l 0,0 c -2.5642,0.80395 -5.09703,1.71578 -7.69259,2.41186 -11.07696,2.97061 -22.45989,4.42966 -33.92555,4.60149 -4.99346,-0.0509 -9.99128,0.0623 -14.98037,-0.15266 -31.98439,-1.37828 -63.59664,-7.97721 -93.87865,-18.20857 -6.2803,-2.39056 -12.62723,-4.61294 -18.84089,-7.17172 -23.3125,-9.60002 -45.50642,-21.75007 -66.35645,-35.90142 -7.7849,-5.65377 -15.55598,-11.40455 -22.08264,-18.53189 -1.76909,-2.36809 1.57989,-4.86995 3.34898,-2.50187 z"
       inkscape:connector-curvature="0" />
    <path
       style="color:#000000;fill:none;stroke:#000000;stroke-width:1px;stroke-linecap:round;stroke-linejoin:round;stroke-miterlimit:4;stroke-opacity:1;stroke-dasharray:none;stroke-dashoffset:0;marker:none;visibility:visible;display:inline;overflow:visible;enable-background:accumulate"
       d="m 434.89322,270.73294 c -3.60202,8.69277 -4.35879,18.54946 -9.75405,26.47527 -0.8146,10.71746 -2.3094,21.47858 -1.28011,32.23661 10.47789,26.67276 41.66112,44.98967 69.93616,37.0469 31.02409,-9.06562 56.47542,-37.55239 58.60853,-70.30582 1.66093,-15.69948 -0.7104,-33.59174 -12.78744,-44.89293 -19.80015,-16.99032 -49.72052,-17.44384 -72.36056,-6.03757 -12.53059,5.90343 -23.59925,14.7734 -32.36253,25.47754 z"
       id="path3500"
       inkscape:connector-curvature="0" />
    <path
       style="color:#000000;fill:none;stroke:#000000;stroke-width:1px;stroke-linecap:round;stroke-linejoin:round;stroke-miterlimit:4;stroke-opacity:1;stroke-dasharray:none;stroke-dashoffset:0;marker:none;visibility:visible;display:inline;overflow:visible;enable-background:accumulate"
       d="m 380.54924,242.86424 c -22.5238,17.61763 -25.9549,48.40804 -27.09141,75.00507 0.23226,41.45047 24.53752,84.85244 64.89053,98.97356 35.98168,10.2044 73.49282,-2.77386 105.24659,-19.68843 24.89733,-11.99999 52.78951,-25.96162 63.60895,-53.23305 12.82875,-30.84313 5.63926,-66.17867 -8.72536,-95.13384 -8.18725,-15.58841 -23.2729,-25.81403 -39.25334,-32.19901 -47.22872,-20.70307 -102.9528,-12.35967 -147.24494,11.77066 -5.29544,3.3447 -9.97774,8.24176 -11.43102,14.50504 z"
       id="path3565"
       inkscape:connector-curvature="0" />
    <path
       style="color:#000000;fill:none;stroke:#000000;stroke-width:1px;stroke-linecap:round;stroke-linejoin:round;stroke-miterlimit:4;stroke-opacity:1;stroke-dasharray:none;stroke-dashoffset:0;marker:none;visibility:visible;display:inline;overflow:visible;enable-background:accumulate"
       d="m 485.05689,280.48699 c -0.003,3.08538 -4.6297,2.11655 -5.70203,4.55805 -2.6697,1.12307 -5.34723,3.05264 -5.93368,6.07316 -1.78964,5.60901 -0.3682,11.81071 -2.85378,17.25739 -1.05896,3.21703 1.00227,6.69188 3.94417,8.06141 6.06585,3.28291 12.11531,7.03325 19.06042,8.08653 3.28599,0.94277 6.2715,-1.48561 8.32626,-3.78234 2.25095,-2.76814 4.52895,-5.509 6.9373,-8.14254 1.58436,-1.90526 2.98353,-4.04529 3.60035,-6.47221 5.37421,-7.29148 4.84928,-18.71731 -2.15348,-24.78941 -3.0055,-2.63036 -7.15097,-3.62987 -11.06069,-3.05241 -4.78777,0.24216 -9.43796,1.51155 -14.16484,2.20237 z"
       id="path3649"
       inkscape:connector-curvature="0" />
    <path
       style="color:#000000;fill:none;stroke:#000000;stroke-width:1px;stroke-linecap:round;stroke-linejoin:round;stroke-miterlimit:4;stroke-opacity:1;stroke-dasharray:none;stroke-dashoffset:0;marker:none;visibility:visible;display:inline;overflow:visible;enable-background:accumulate"
       d="m 645.30196,263.76576 c 2.25367,-83.5055 -97.74131,-96.46458 -160.79743,-86.64649 -54.75918,-0.13292 -127.5719,12.49413 -144.36491,74.10558"
       id="path3790"
       inkscape:connector-curvature="0" />
    <path
       style="color:#000000;fill:none;stroke:#000000;stroke-width:1px;stroke-linecap:round;stroke-linejoin:round;stroke-miterlimit:4;stroke-opacity:1;stroke-dasharray:none;stroke-dashoffset:0;marker:none;visibility:visible;display:inline;overflow:visible;enable-background:accumulate"
       d="m 348.50023,391.96182 c 15.98167,25.74374 30.2121,70.20979 69.67177,58.52428"
       id="path3802"
       inkscape:connector-curvature="0" />
    <path
       style="color:#000000;fill:none;stroke:#000000;stroke-width:1px;stroke-linecap:round;stroke-linejoin:round;stroke-miterlimit:4;stroke-opacity:1;stroke-dasharray:none;stroke-dashoffset:0;marker:none;visibility:visible;display:inline;overflow:visible;enable-background:accumulate"
       d="m 628.58074,162.04498 c 11.58317,2.38769 24.78196,4.08316 32.87112,13.71487 4.10199,9.12365 12.35988,18.99943 7.5385,29.48163"
       id="path3826"
       inkscape:connector-curvature="0" />
  </g>
</svg>
