<?xml version="1.0" encoding="UTF-8" standalone="no"?>
<!-- Created with Inkscape (http://www.inkscape.org/) -->

<svg
   xmlns:dc="http://purl.org/dc/elements/1.1/"
   xmlns:cc="http://creativecommons.org/ns#"
   xmlns:rdf="http://www.w3.org/1999/02/22-rdf-syntax-ns#"
   xmlns:svg="http://www.w3.org/2000/svg"
   xmlns="http://www.w3.org/2000/svg"
   xmlns:sodipodi="http://sodipodi.sourceforge.net/DTD/sodipodi-0.dtd"
   xmlns:inkscape="http://www.inkscape.org/namespaces/inkscape"
   width="420.86868"
   height="216.2337"
   id="svg17849"
   version="1.1"
   inkscape:version="0.48.0 r9654"
   sodipodi:docname="ParticleExplosion.pdf">
  <defs
     id="defs17851" />
  <sodipodi:namedview
     inkscape:document-units="mm"
     pagecolor="#ffffff"
     bordercolor="#666666"
     borderopacity="1.0"
     inkscape:pageopacity="0.0"
     inkscape:pageshadow="2"
     inkscape:zoom="1.4353016"
     inkscape:cx="162.7922"
     inkscape:cy="86.978883"
     inkscape:current-layer="layer1"
     id="namedview17853"
     showgrid="false"
     fit-margin-top="0"
     fit-margin-left="0"
     fit-margin-right="0"
     fit-margin-bottom="0"
     inkscape:window-width="1280"
     inkscape:window-height="752"
     inkscape:window-x="0"
     inkscape:window-y="0"
     inkscape:window-maximized="0" />
  <metadata
     id="metadata17855">
    <rdf:RDF>
      <cc:Work
         rdf:about="">
        <dc:format>image/svg+xml</dc:format>
        <dc:type
           rdf:resource="http://purl.org/dc/dcmitype/StillImage" />
        <dc:title></dc:title>
      </cc:Work>
    </rdf:RDF>
  </metadata>
  <g
     inkscape:label="Layer 1"
     inkscape:groupmode="layer"
     id="layer1"
     transform="translate(-361.2781,-224.94072)">
    <path
       style="fill:#000000;fill-opacity:1;fill-rule:nonzero;stroke:none"
       id="path18372"
       d="m 677.69628,439.25808 c -1.91738,-16.93786 -2.05834,-34.01393 -2.23487,-51.03845 -0.26252,-33.08186 0.41204,-66.16553 1.93913,-99.21119 0.8376,-13.08856 1.36298,-26.19361 1.91547,-39.29628 0.12453,-2.9533 4.30113,-2.77718 4.1766,0.17611 l 0,0 c -0.55277,13.10831 -1.07841,26.219 -1.91623,39.31319 -1.52414,32.96695 -2.19618,65.97185 -1.93488,98.97492 0.17378,16.83824 0.3113,33.7266 2.19165,50.48059 0.42503,2.9252 -3.71183,3.52631 -4.13687,0.60111 z"
       inkscape:connector-curvature="0" />
    <path
       style="fill:#000000;fill-opacity:1;fill-rule:nonzero;stroke:none"
       id="path18374"
       d="m 679.32008,271.75754 c 5.21369,-4.44887 10.30797,-9.03706 15.26339,-13.77229 3.48689,-3.44508 1.76913,-1.79167 5.14643,-4.96735 2.15382,-2.02447 5.01686,1.0215 2.86304,3.04598 l 0,0 c -3.31993,3.11931 -1.60927,1.47466 -5.12207,4.94425 -5.04562,4.8176 -10.22777,9.49123 -15.53937,14.01368 -2.30819,1.84655 -4.91961,-1.41772 -2.61142,-3.26427 z"
       inkscape:connector-curvature="0" />
    <path
       inkscape:connector-curvature="0"
       d="m 679.81274,286.0445 c 5.21369,-4.44887 10.30797,-9.03706 15.26339,-13.77229 3.48689,-3.44508 1.76913,-1.79167 5.14643,-4.96735 2.15382,-2.02447 5.01686,1.0215 2.86304,3.04598 l 0,0 c -3.31993,3.11931 -1.60927,1.47466 -5.12207,4.94425 -5.04562,4.8176 -10.22777,9.49123 -15.53937,14.01368 -2.30819,1.84655 -4.91961,-1.41772 -2.61142,-3.26427 z"
       id="path18376"
       style="fill:#000000;fill-opacity:1;fill-rule:nonzero;stroke:none" />
    <path
       inkscape:connector-curvature="0"
       d="m 678.33477,302.79473 c 5.21369,-4.44887 10.30797,-9.03706 15.26339,-13.77229 3.48689,-3.44508 1.76913,-1.79167 5.14643,-4.96735 2.15382,-2.02447 5.01686,1.0215 2.86304,3.04598 l 0,0 c -3.31993,3.11931 -1.60927,1.47466 -5.12207,4.94425 -5.04562,4.8176 -10.22777,9.49123 -15.53937,14.01368 -2.30819,1.84655 -4.91961,-1.41772 -2.61142,-3.26427 z"
       id="path18378"
       style="fill:#000000;fill-opacity:1;fill-rule:nonzero;stroke:none" />
    <path
       style="fill:#000000;fill-opacity:1;fill-rule:nonzero;stroke:none"
       id="path18380"
       d="m 678.82743,317.08169 c 5.21369,-4.44887 10.30797,-9.03706 15.26339,-13.77229 3.48689,-3.44508 1.76913,-1.79167 5.14643,-4.96735 2.15382,-2.02447 5.01686,1.0215 2.86304,3.04598 l 0,0 c -3.31993,3.11931 -1.60927,1.47466 -5.12207,4.94425 -5.04562,4.8176 -10.22777,9.49123 -15.53937,14.01368 -2.30819,1.84655 -4.91961,-1.41772 -2.61142,-3.26427 z"
       inkscape:connector-curvature="0" />
    <path
       style="fill:#000000;fill-opacity:1;fill-rule:nonzero;stroke:none"
       id="path18382"
       d="m 677.59579,333.83192 c 5.21369,-4.44887 10.30797,-9.03706 15.26339,-13.77229 3.48689,-3.44508 1.76913,-1.79167 5.14643,-4.96735 2.15382,-2.02447 5.01686,1.0215 2.86304,3.04598 l 0,0 c -3.31993,3.11931 -1.60927,1.47466 -5.12207,4.94425 -5.04562,4.8176 -10.22777,9.49123 -15.53937,14.01368 -2.30819,1.84655 -4.91961,-1.41772 -2.61142,-3.26427 z"
       inkscape:connector-curvature="0" />
    <path
       inkscape:connector-curvature="0"
       d="m 678.08845,348.11888 c 5.21369,-4.44887 10.30797,-9.03706 15.26339,-13.77229 3.48689,-3.44508 1.76913,-1.79167 5.14643,-4.96735 2.15382,-2.02447 5.01686,1.0215 2.86304,3.04598 l 0,0 c -3.31993,3.11931 -1.60927,1.47466 -5.12207,4.94425 -5.04562,4.8176 -10.22777,9.49123 -15.53937,14.01368 -2.30819,1.84655 -4.91961,-1.41772 -2.61142,-3.26427 z"
       id="path18384"
       style="fill:#000000;fill-opacity:1;fill-rule:nonzero;stroke:none" />
    <path
       inkscape:connector-curvature="0"
       d="m 677.34946,364.62278 c 5.21369,-4.44887 10.30797,-9.03706 15.26339,-13.77229 3.48689,-3.44508 1.76913,-1.79167 5.14643,-4.96735 2.15382,-2.02447 5.01686,1.0215 2.86304,3.04598 l 0,0 c -3.31993,3.11931 -1.60927,1.47466 -5.12207,4.94425 -5.04562,4.8176 -10.22777,9.49123 -15.53937,14.01368 -2.30819,1.84655 -4.91961,-1.41772 -2.61142,-3.26427 z"
       id="path18386"
       style="fill:#000000;fill-opacity:1;fill-rule:nonzero;stroke:none" />
    <path
       style="fill:#000000;fill-opacity:1;fill-rule:nonzero;stroke:none"
       id="path18388"
       d="m 677.84212,378.90974 c 5.21369,-4.44887 10.30797,-9.03706 15.26339,-13.77229 3.48689,-3.44508 1.76913,-1.79167 5.14643,-4.96735 2.15382,-2.02447 5.01686,1.0215 2.86304,3.04598 l 0,0 c -3.31993,3.11931 -1.60927,1.47466 -5.12207,4.94425 -5.04562,4.8176 -10.22777,9.49123 -15.53937,14.01368 -2.30819,1.84655 -4.91961,-1.41772 -2.61142,-3.26427 z"
       inkscape:connector-curvature="0" />
    <path
       style="fill:#000000;fill-opacity:1;fill-rule:nonzero;stroke:none"
       id="path18390"
       d="m 677.10313,394.92099 c 5.21369,-4.44887 10.30797,-9.03706 15.26339,-13.77229 3.48689,-3.44508 1.76913,-1.79167 5.14643,-4.96735 2.15382,-2.02447 5.01686,1.0215 2.86304,3.04598 l 0,0 c -3.31993,3.11931 -1.60927,1.47466 -5.12207,4.94425 -5.04562,4.8176 -10.22777,9.49123 -15.53937,14.01368 -2.30819,1.84655 -4.91961,-1.41772 -2.61142,-3.26427 z"
       inkscape:connector-curvature="0" />
    <path
       inkscape:connector-curvature="0"
       d="m 677.59579,409.20795 c 5.21369,-4.44887 10.30797,-9.03706 15.26339,-13.77229 3.48689,-3.44508 1.76913,-1.79167 5.14643,-4.96735 2.15382,-2.02447 5.01686,1.0215 2.86304,3.04598 l 0,0 c -3.31993,3.11931 -1.60927,1.47466 -5.12207,4.94425 -5.04562,4.8176 -10.22777,9.49123 -15.53937,14.01368 -2.30819,1.84655 -4.91961,-1.41772 -2.61142,-3.26427 z"
       id="path18392"
       style="fill:#000000;fill-opacity:1;fill-rule:nonzero;stroke:none" />
    <path
       style="fill:#000000;fill-opacity:1;fill-rule:nonzero;stroke:none"
       id="path18394"
       d="m 678.33477,423.49491 c 5.21369,-4.44887 10.30797,-9.03706 15.26339,-13.77229 3.48689,-3.44508 1.76913,-1.79167 5.14643,-4.96735 2.15382,-2.02447 5.01686,1.0215 2.86304,3.04598 l 0,0 c -3.31993,3.11931 -1.60927,1.47466 -5.12207,4.94425 -5.04562,4.8176 -10.22777,9.49123 -15.53937,14.01368 -2.30819,1.84655 -4.91961,-1.41772 -2.61142,-3.26427 z"
       inkscape:connector-curvature="0" />
    <path
       style="fill:#000000;fill-opacity:1;fill-rule:nonzero;stroke:none"
       id="path18402"
       d="m 533.36467,468.98251 c -3.12933,0.14305 -5.49334,1.51646 -7.69215,3.46527 -3.31876,3.50811 -4.21524,8.05117 -4.68487,12.54277 -0.0127,4.38221 1.10613,8.79658 4.20987,12.22428 0.56844,0.62778 1.2423,1.16722 1.86344,1.75083 3.21264,2.38504 6.9896,3.88227 11.13059,2.8809 0.82478,-0.19944 1.61125,-0.51549 2.41688,-0.77324 5.7414,-2.88051 7.98571,-6.26433 9.97347,-11.83244 1.04572,-5.23209 -0.0634,-8.59115 -3.18752,-12.90834 -2.58666,-3.21988 -6.37442,-4.89454 -10.46349,-5.89411 -1.78827,-0.47572 -3.50062,-0.4195 -5.30965,-0.18849 -1.9636,0.22476 -2.30767,-2.34067 -0.34406,-2.56543 l 0,0 c 2.17237,-0.22668 4.24099,-0.31885 6.37893,0.2572 4.74922,1.19171 9.09639,3.19768 12.07132,6.96359 3.60348,5.06931 4.82251,9.07375 3.50909,15.15302 -2.33885,6.42107 -5.0511,10.25758 -11.73405,13.46455 -0.96233,0.29297 -1.90025,0.66628 -2.88701,0.87891 -5.06349,1.09106 -9.68663,-0.66815 -13.56289,-3.63615 -0.71604,-0.68976 -1.49473,-1.32834 -2.14812,-2.06928 -3.47993,-3.94621 -4.76406,-8.95942 -4.7014,-13.96037 0.5604,-5.11974 1.68173,-10.23025 5.54599,-14.16567 2.61385,-2.25997 5.48138,-3.93742 9.15561,-4.13767 1.9517,-0.3005 2.41172,2.24937 0.46002,2.54987 z"
       inkscape:connector-curvature="0" />
    <path
       style="fill:#000000;fill-opacity:1;fill-rule:nonzero;stroke:none"
       id="path18406"
       d="m 534.27045,469.9463 c -0.0665,3.04387 0.0226,6.07488 0.26189,9.11039 0.3433,4.21967 0.94438,8.41447 1.28263,12.63558 0.0994,2.81851 0.58651,5.6064 0.98952,8.39696 0.084,0.58899 0.16869,1.1779 0.24812,1.76744 0.24435,1.81391 -2.53243,2.13315 -2.77678,0.31924 l 0,0 c -0.0784,-0.582 -0.16212,-1.16336 -0.24496,-1.74483 -0.41024,-2.84079 -0.90283,-5.67915 -1.00649,-8.54821 -0.33745,-4.22218 -0.94276,-8.41768 -1.28286,-12.63867 -0.24353,-3.09789 -0.33668,-6.19161 -0.26927,-9.2979 0,-1.8279 2.7982,-1.8279 2.7982,0 z"
       inkscape:connector-curvature="0" />
    <path
       style="fill:#000000;fill-opacity:1;fill-rule:nonzero;stroke:none"
       id="path18408"
       d="m 518.98732,485.20451 c 2.63913,-0.42312 5.25489,-0.95929 7.8826,-1.44008 3.98272,-0.87042 8.04041,-1.37852 12.03684,-2.18798 2.41063,-0.5095 4.84804,-0.86526 7.16747,-1.67571 1.25514,-0.47061 2.43298,-0.68428 3.75683,-0.35107 1.89542,0.52448 1.09253,3.00083 -0.80289,2.47635 l 0,0 c -0.6227,-0.21889 -1.29601,0.0838 -1.96828,0.29408 -2.44866,0.84779 -5.00797,1.26158 -7.55504,1.78166 -4.01557,0.81007 -8.09001,1.32822 -12.09193,2.19858 -2.58244,0.47131 -5.15182,1.00455 -7.74694,1.41203 -1.91955,0.44333 -2.59821,-2.06453 -0.67866,-2.50786 z"
       inkscape:connector-curvature="0" />
    <path
       style="fill:#a0a0a0;stroke:none"
       d="m 527.14098,497.79964 c -3.34035,-3.0859 -6.39512,-9.25828 -4.98148,-10.06541 0.36606,-0.209 2.84502,-0.64709 5.50882,-0.97353 l 4.84326,-0.59354 0,3.43747 c 0,1.89061 0.26692,5.2365 0.59314,7.43531 0.76088,5.12832 -0.99305,5.35175 -5.96374,0.7597 l 0,0 z"
       id="path18410"
       inkscape:connector-curvature="0" />
    <path
       style="fill:#a0a0a0;stroke:none"
       d="m 535.03028,476.59364 c -0.28429,-2.89644 -0.33979,-5.42986 -0.12333,-5.62983 1.01027,-0.93331 8.06698,2.18006 10.76066,4.74754 3.33399,3.17777 3.54023,2.96934 -4.87592,4.928 l -5.24451,1.22054 -0.5169,-5.26625 z"
       id="path18412"
       inkscape:connector-curvature="0" />
    <path
       inkscape:connector-curvature="0"
       d="m 383.93172,321.3251 c -4.67499,0.23132 -8.20666,2.45228 -11.49152,5.60372 -4.95799,5.67301 -6.29726,13.01963 -6.99886,20.28305 -0.019,7.08651 1.65248,14.22504 6.28924,19.76801 0.84921,1.01519 1.85591,1.88752 2.78386,2.83128 4.79945,3.85688 10.44195,6.27806 16.62829,4.65875 1.23216,-0.32253 2.40709,-0.83361 3.61064,-1.25042 8.57725,-4.6581 11.93009,-10.13011 14.89966,-19.13437 1.56223,-8.46086 -0.0948,-13.89284 -4.76193,-20.87421 -3.86429,-5.20691 -9.52292,-7.91501 -15.6317,-9.53143 -2.67155,-0.76929 -5.22967,-0.67838 -7.93223,-0.30481 -2.93349,0.36347 -3.4475,-3.78512 -0.51401,-4.14858 l 0,0 c 3.24537,-0.36657 6.33574,-0.51562 9.52966,0.41592 7.095,1.92713 13.58936,5.17101 18.03369,11.2609 5.38334,8.19763 7.20448,14.67326 5.24232,24.5041 -3.49407,10.38358 -7.54598,16.58764 -17.52982,21.77367 -1.43766,0.47376 -2.83884,1.07745 -4.31299,1.42129 -7.56449,1.76437 -14.47113,-1.08046 -20.26198,-5.88005 -1.06971,-1.11542 -2.23301,-2.14808 -3.20913,-3.34626 -5.19877,-6.38146 -7.11716,-14.48837 -7.02356,-22.57546 0.8372,-8.27919 2.51239,-16.54344 8.28532,-22.90746 3.9049,-3.65461 8.18878,-6.36723 13.67781,-6.69106 2.9157,-0.48595 3.60294,3.63747 0.68724,4.12342 z"
       id="path18414"
       style="fill:#000000;fill-opacity:1;fill-rule:nonzero;stroke:none" />
    <path
       style="fill:#000000;fill-opacity:1;fill-rule:nonzero;stroke:none"
       id="path18424"
       d="m 647.291,319.93166 c -4.67499,0.23132 -8.20666,2.45228 -11.49152,5.60372 -4.95799,5.67301 -6.29726,13.01963 -6.99886,20.28305 -0.019,7.08651 1.65248,14.22504 6.28924,19.76801 0.84921,1.01519 1.85591,1.88752 2.78386,2.83128 4.79945,3.85688 10.44195,6.27806 16.62829,4.65875 1.23216,-0.32253 2.40709,-0.83361 3.61064,-1.25042 8.57725,-4.6581 11.93009,-10.13011 14.89966,-19.13437 1.56223,-8.46086 -0.0948,-13.89284 -4.76193,-20.87421 -3.86429,-5.20691 -9.52292,-7.91501 -15.6317,-9.53143 -2.67155,-0.76929 -5.22967,-0.67838 -7.93223,-0.30481 -2.93349,0.36347 -3.4475,-3.78512 -0.51401,-4.14858 l 0,0 c 3.24537,-0.36657 6.33574,-0.51562 9.52966,0.41592 7.095,1.92713 13.58936,5.17101 18.03369,11.2609 5.38334,8.19763 7.20448,14.67326 5.24232,24.5041 -3.49407,10.38358 -7.54598,16.58764 -17.52982,21.77367 -1.43766,0.47376 -2.83884,1.07745 -4.31299,1.42129 -7.56449,1.76437 -14.47113,-1.08046 -20.26198,-5.88005 -1.06971,-1.11542 -2.23301,-2.14808 -3.20913,-3.34626 -5.19877,-6.38146 -7.11716,-14.48837 -7.02356,-22.57546 0.8372,-8.27919 2.51239,-16.54344 8.28532,-22.90746 3.9049,-3.65461 8.18878,-6.36723 13.67781,-6.69106 2.9157,-0.48595 3.60294,3.63747 0.68724,4.12342 z"
       inkscape:connector-curvature="0" />
    <path
       style="fill:#a0a0a0;stroke:none"
       d="m 379.05007,371.39649 c -14.80969,-9.03087 -17.19481,-32.85192 -4.4758,-44.70148 5.15674,-4.80424 19.19431,-2.73743 26.69427,3.9303 11.39305,10.12882 9.70361,29.65778 -3.38595,39.13981 -6.83718,4.95283 -12.57113,5.44953 -18.83252,1.63137 z"
       id="path18426"
       inkscape:connector-curvature="0" />
    <path
       style="fill:#a0a0a0;stroke:none"
       d="m 642.40935,370.00305 c -14.80969,-9.03086 -17.19481,-32.85191 -4.4758,-44.70148 5.15675,-4.80423 19.19431,-2.73743 26.69428,3.9303 11.39304,10.12883 9.7036,29.65778 -3.38596,39.13981 -6.83718,4.95283 -12.57112,5.44953 -18.83252,1.63137 z"
       id="path18428"
       inkscape:connector-curvature="0" />
    <path
       style="fill:#000000;fill-opacity:1;fill-rule:nonzero;stroke:none"
       id="path18432"
       d="m 483.11422,507.44275 c 2.54749,4.27153 4.77424,8.76731 7.05627,13.21031 2.47163,5.11761 5.24628,10.04718 7.90615,15.04949 0.78503,1.27308 1.42146,2.67512 2.28591,3.89286 0.31299,0.4409 -0.98716,-0.31479 -1.48504,-0.45514 -0.28072,0.24272 -0.483,0.70787 -0.84218,0.72815 -0.22062,0.0124 0.12846,-0.45703 0.17389,-0.69043 0.0717,-0.36817 0.1271,-0.74002 0.17697,-1.11237 0.27035,-2.01858 0.52475,-4.04161 0.7777,-6.06311 0.47431,-5.39413 1.41033,-10.71573 2.22631,-16.05577 0.37818,-2.49477 0.69068,-5.00222 0.90635,-7.51965 -0.021,-0.94786 0.52104,-1.45899 1.12314,-1.99564 1.94891,-1.25701 3.59565,1.71832 1.64675,2.97533 l 0,0 c 0.17081,-0.20443 0.64395,-1.61517 0.42707,-0.65988 -0.22353,2.5992 -0.54448,5.18835 -0.9355,7.76419 -0.81162,5.30668 -1.74183,10.59503 -2.21242,15.95572 -0.15287,1.21992 -0.74193,7.52693 -1.24588,8.43584 -0.29462,0.53138 -0.70409,0.97793 -1.05614,1.4669 -0.61884,-0.0943 -1.26325,-0.0707 -1.85653,-0.28288 -0.72748,-0.26014 -2.37288,-4.05431 -2.89497,-4.65878 -2.66747,-5.01728 -5.45002,-9.96171 -7.9295,-15.09415 -2.21112,-4.30497 -4.37495,-8.65512 -6.81687,-12.81143 -1.36217,-1.96063 1.20636,-4.0402 2.56852,-2.07956 z"
       inkscape:connector-curvature="0" />
    <path
       style="fill:#000000;fill-opacity:1;fill-rule:nonzero;stroke:none"
       id="path18436"
       d="m 515.3676,531.71824 c -2.01644,0.24667 -3.3499,1.57394 -4.30548,3.43345 -0.88929,2.34698 -1.13615,4.88453 -0.26932,7.2695 0.20322,0.38412 1.91267,3.00162 2.43246,2.20406 0.93765,-1.03637 1.24471,-2.45843 1.53162,-3.85816 0.24115,-1.54137 0.38728,-3.10098 0.42744,-4.66367 0.0101,-1.41948 -0.31479,-0.96087 3.19761,-0.0289 0.27602,0.0732 0.0167,0.61927 0.0921,0.91512 0.35843,1.77563 1.50791,3.24208 2.34923,4.79059 0.61292,1.30508 1.30764,2.55174 2.09445,3.74216 0.33659,0.49146 0.24175,0.30897 -0.49615,-0.32743 2.15868,0.75892 1.16446,4.0545 -0.99422,3.29559 l 0,0 c -1.01819,-0.73161 -0.70506,-0.34269 -1.12453,-0.95708 -0.84082,-1.27571 -1.59542,-2.60688 -2.25145,-4.00428 -1.0241,-1.89897 -2.37854,-3.68509 -2.7332,-5.90209 -0.12499,-0.86853 -0.25406,-1.59213 -0.14616,-1.62536 3.28887,-1.01337 3.23167,-1.42427 3.22166,0.20115 -0.0489,1.78875 -0.21392,3.57456 -0.50679,5.33634 -0.62628,2.88774 -1.57617,5.6643 -4.47474,6.54617 -0.45013,-0.017 -0.9087,0.0443 -1.35038,-0.051 -2.05666,-0.44339 -3.31154,-2.6879 -4.29359,-4.45058 -1.06358,-3.43029 -0.89699,-6.90479 0.53691,-10.20819 1.50467,-2.60607 3.49088,-4.65081 6.43288,-5.056 2.22619,-0.48064 2.85585,2.91799 0.62966,3.39864 z"
       inkscape:connector-curvature="0" />
    <path
       style="fill:#000000;fill-opacity:1;fill-rule:nonzero;stroke:none"
       id="path18438"
       d="m 513.12228,535.07963 c 2.8011,0.13605 5.57475,-0.32288 8.34701,-0.68347 1.3914,-0.17839 0.73655,-0.095 1.96449,-0.25063 2.25478,-0.28585 2.62925,3.15644 0.37447,3.44228 l 0,0 c -1.22195,0.15491 -0.5703,0.0719 -1.9549,0.24941 -2.89935,0.37709 -5.80181,0.84402 -8.73107,0.70836 -2.27027,0 -2.27027,-3.46595 0,-3.46595 z"
       inkscape:connector-curvature="0" />
    <path
       style="fill:#000000;fill-opacity:1;fill-rule:nonzero;stroke:none"
       id="path18442"
       d="m 481.27711,495.98889 c 2.85894,0.65738 5.80031,0.78597 8.71286,0.69776 3.45864,-0.1984 6.91035,-0.51062 10.36681,-0.7466 0.81246,-0.0528 1.62494,-0.10684 2.43813,-0.14493 0.003,-7e-5 0.13428,-0.005 0.13426,-0.002 -0.0276,4.36125 0.57653,4.1778 -1.96332,1.95035 -0.42979,-1.27935 -1.20397,-2.3445 -1.94152,-3.42998 -0.92524,-1.0448 -1.74453,-2.1944 -2.52967,-3.36358 -0.18205,-0.27864 -0.0996,-0.15021 -0.24822,-0.38461 -1.28043,-2.0238 1.37085,-3.97859 2.65127,-1.95479 l 0,0 c 0.11394,0.18058 0.0485,0.0783 0.19715,0.30621 0.78107,1.16511 1.60941,2.29514 2.51877,3.34746 0.96336,1.41917 1.92837,2.85441 2.44402,4.54502 -2.57358,-1.5617 -1.53602,-1.59126 -1.13713,2.44974 -0.78753,0.0367 -1.5743,0.09 -2.36114,0.14068 -3.49649,0.23862 -6.98809,0.55648 -10.48706,0.75237 -3.20228,0.0813 -6.43447,-0.0514 -9.57391,-0.80011 -2.20249,-0.59441 -1.42379,-3.95687 0.7787,-3.36246 z"
       inkscape:connector-curvature="0" />
    <path
       inkscape:connector-curvature="0"
       d="m 371.84939,340.32188 c 0,2.94399 0,5.88799 0,8.83199 -0.0426,1.27096 0.0412,2.61178 0.63383,3.77799 0.0137,0.0198 0.0275,0.0396 0.0413,0.0594 -0.95821,0.002 -1.92595,0.13371 -2.87463,0.006 -0.0237,-0.003 0.54694,-3.77381 0.57147,-3.96147 0.48977,-3.12503 1.29571,-6.17849 2.46,-9.13646 0.79708,-1.62865 1.57187,-3.32511 3.14503,-4.39665 1.69639,-0.96928 2.88404,-0.4066 3.82422,1.19687 1.06615,2.16196 1.393,4.52494 1.64367,6.87302 0.275,1.65968 0.73522,3.2829 1.0859,4.92856 0.99258,1.84411 -2.25318,1.08627 -2.36442,-0.20881 0.97805,-2.05084 1.97416,-4.06566 3.2461,-5.97019 1.08546,-1.63703 2.21488,-3.39705 3.8942,-4.54409 0.54209,-0.0227 1.104,-0.20763 1.62625,-0.068 2.05392,0.54916 2.08242,3.83317 2.234,5.37626 0.0497,1.92732 0.13629,3.79941 0.62682,5.67154 0.16919,0.28392 0.3954,0.51718 0.67244,0.70387 1.84196,1.27302 -0.0565,3.74329 -1.89846,2.47027 l 0,0 c -0.88039,-0.63423 -1.53373,-1.44007 -1.90329,-2.44131 -0.52367,-2.02166 -0.67329,-4.04794 -0.70757,-6.12746 -0.014,-0.14959 -0.35975,-2.82517 -0.35235,-2.82655 0.14732,-0.0273 0.29004,0.0736 0.43507,0.11034 0.31315,-0.0853 0.62631,-0.17058 0.93947,-0.25587 0.11506,-0.25481 0.0817,-0.15165 -0.34188,0.30072 -0.94545,1.00964 -1.81724,2.0857 -2.5054,3.27147 -1.20711,1.78846 -2.1163,3.6985 -3.04653,5.62576 -0.15744,0.27338 -0.14577,0.7865 -0.47233,0.82013 -3.21769,0.33138 -2.93355,0.19776 -3.24164,-1.30296 -0.37131,-1.74458 -0.86848,-3.46413 -1.13357,-5.22825 -0.20936,-1.99465 -0.45186,-4.01041 -1.34173,-5.85447 5.9e-4,-0.0411 -0.0416,-0.12209 0.002,-0.1234 0.12416,-0.004 1.62049,0.0726 0.8732,0.1421 -1.04086,0.47346 -1.29872,2.10696 -1.92023,2.92869 -1.08195,2.73242 -1.81938,5.55521 -2.28012,8.44248 -0.15356,1.16523 -0.36433,2.31513 -0.54036,3.47592 -0.0423,0.27898 0.16235,0.70819 -0.10026,0.84017 -0.93361,0.4692 -2.02444,0.60097 -3.06889,0.75254 -0.11198,0.0162 -0.1073,-0.18922 -0.16095,-0.28383 -0.7401,-1.58386 -1.00259,-3.31761 -0.9234,-5.04423 0,-2.944 0,-5.888 0,-8.832 0,-2.16141 3.22332,-2.16141 3.22332,0 z"
       id="path18446"
       style="fill:#000000;fill-opacity:1;fill-rule:nonzero;stroke:none" />
    <path
       inkscape:connector-curvature="0"
       d="m 594.36377,293.41174 c 9.05936,1.11712 18.26084,0.43028 27.37002,0.39985 13.28852,0.0957 26.52723,1.36274 39.79211,1.97922 1.55957,0.0734 3.11913,0.14688 4.67871,0.22026 2.95265,0.13898 2.75607,4.31468 -0.19657,4.17569 l 0,0 c -1.55889,-0.0734 -3.11778,-0.14674 -4.67666,-0.22021 -13.19546,-0.61621 -26.36509,-1.86999 -39.5838,-1.97473 -9.38622,0.0305 -18.87159,0.75321 -28.20069,-0.48041 -2.89892,-0.57763 -2.08203,-4.67734 0.8169,-4.09972 z"
       id="path18454"
       style="fill:#000000;fill-opacity:1;fill-rule:nonzero;stroke:none" />
    <path
       inkscape:connector-curvature="0"
       d="m 652.24109,286.66224 c 3.07448,1.73285 6.3495,3.09483 9.58032,4.51047 2.39116,0.89577 4.71127,1.97162 6.98994,3.12104 0.36554,0.26672 2.16923,1.00592 0.22496,0.2729 0.2874,0.001 0.57475,-0.004 0.86204,-0.0122 0.0269,-10e-4 0.0539,-0.002 0.0807,-0.003 0.74046,0.80581 1.48091,1.61162 2.22139,2.41744 -9.6e-4,0.34713 -0.004,0.69428 -0.0106,1.04137 0.0868,1.31562 -4.01001,1.88372 -2.22917,2.14229 -2.28846,0.73318 -4.54016,1.57274 -6.83231,2.30102 -3.52857,1.21165 -7.11501,2.24682 -10.68126,3.34691 -0.97779,0.29698 -1.96248,0.57001 -2.94861,0.83757 -2.85288,0.77367 -3.94701,-3.2609 -1.09414,-4.03458 l 0,0 c 0.94033,-0.25486 1.87922,-0.5151 2.81163,-0.79789 3.55699,-1.09506 7.1334,-2.1277 10.65165,-3.33768 2.27561,-0.71619 4.50812,-1.55387 6.77762,-2.28329 2.81825,-0.5476 0.4054,0.14821 -0.63492,1.7438 0.005,-0.31878 0.008,-0.63759 0.009,-0.95639 2.48315,1.95835 3.11975,1.71343 1.9961,1.76067 -0.39612,0.0102 -0.79247,0.0191 -1.1887,0.009 -0.95599,-0.27375 -1.13659,-0.26729 -1.89964,-0.71605 -2.21062,-1.11633 -4.46365,-2.15572 -6.78418,-3.02412 -3.30099,-1.44643 -6.64324,-2.8452 -9.78847,-4.6086 -2.63804,-1.33352 -0.75215,-5.06426 1.88588,-3.73074 z"
       id="path18456"
       style="fill:#000000;fill-opacity:1;fill-rule:nonzero;stroke:none" />
    <path
       style="fill:#000000;fill-opacity:1;fill-rule:nonzero;stroke:none"
       id="path18462"
       d="m 779.52154,344.11158 c -9.05936,1.11712 -18.26084,0.43028 -27.37002,0.39985 -13.28852,0.0957 -26.52723,1.36274 -39.79211,1.97922 -1.55957,0.0734 -3.11913,0.14688 -4.67871,0.22026 -2.95265,0.13898 -2.75607,4.31468 0.19657,4.17569 l 0,0 c 1.55889,-0.0734 3.11778,-0.14674 4.67666,-0.22021 13.19546,-0.61621 26.36509,-1.86999 39.5838,-1.97473 9.38622,0.0305 18.87159,0.75321 28.20069,-0.48041 2.89892,-0.57763 2.08203,-4.67734 -0.8169,-4.09972 z"
       inkscape:connector-curvature="0" />
    <path
       style="fill:#000000;fill-opacity:1;fill-rule:nonzero;stroke:none"
       id="path18464"
       d="m 721.64422,337.36208 c -3.07448,1.73285 -6.3495,3.09483 -9.58032,4.51047 -2.39116,0.89577 -4.71127,1.97162 -6.98994,3.12104 -0.36554,0.26672 -2.16923,1.00592 -0.22496,0.2729 -0.2874,0.001 -0.57475,-0.004 -0.86204,-0.0122 -0.0269,-0.001 -0.0539,-0.002 -0.0807,-0.003 -0.74046,0.80581 -1.48091,1.61162 -2.22139,2.41744 9.6e-4,0.34713 0.004,0.69428 0.0106,1.04137 -0.0868,1.31562 4.01001,1.88372 2.22917,2.14229 2.28846,0.73318 4.54016,1.57274 6.83231,2.30102 3.52857,1.21165 7.11501,2.24682 10.68126,3.34691 0.97779,0.29698 1.96248,0.57001 2.94861,0.83757 2.85288,0.77367 3.94701,-3.2609 1.09414,-4.03458 l 0,0 c -0.94033,-0.25486 -1.87922,-0.5151 -2.81163,-0.79789 -3.55699,-1.09506 -7.1334,-2.1277 -10.65165,-3.33768 -2.27561,-0.71619 -4.50812,-1.55387 -6.77762,-2.28329 -2.81825,-0.5476 -0.4054,0.14821 0.63492,1.7438 -0.005,-0.31878 -0.008,-0.63759 -0.009,-0.95639 -2.48315,1.95835 -3.11975,1.71343 -1.9961,1.76067 0.39612,0.0102 0.79247,0.0191 1.1887,0.009 0.95599,-0.27375 1.13659,-0.26729 1.89964,-0.71605 2.21062,-1.11633 4.46365,-2.15572 6.78418,-3.02412 3.30099,-1.44643 6.64324,-2.8452 9.78847,-4.6086 2.63804,-1.33352 0.75215,-5.06426 -1.88588,-3.73074 z"
       inkscape:connector-curvature="0" />
    <path
       inkscape:connector-curvature="0"
       d="m 442.45522,296.50772 c -9.05936,1.11712 -18.26084,0.43028 -27.37002,0.39985 -13.28852,0.0957 -26.52723,1.36274 -39.79211,1.97922 -1.55957,0.0734 -3.11913,0.14688 -4.67871,0.22026 -2.95265,0.13898 -2.75607,4.31468 0.19657,4.17569 l 0,0 c 1.55889,-0.0734 3.11778,-0.14674 4.67666,-0.22021 13.19546,-0.61621 26.36509,-1.86999 39.5838,-1.97473 9.38622,0.0305 18.87159,0.75321 28.20069,-0.48041 2.89892,-0.57763 2.08203,-4.67734 -0.8169,-4.09972 z"
       id="path18466"
       style="fill:#000000;fill-opacity:1;fill-rule:nonzero;stroke:none" />
    <path
       inkscape:connector-curvature="0"
       d="m 384.5779,289.75822 c -3.07448,1.73285 -6.3495,3.09483 -9.58032,4.51047 -2.39116,0.89577 -4.71127,1.97162 -6.98994,3.12104 -0.36554,0.26672 -2.16923,1.00592 -0.22496,0.2729 -0.2874,0.001 -0.57475,-0.004 -0.86204,-0.0122 -0.0269,-10e-4 -0.0539,-0.002 -0.0807,-0.003 -0.74046,0.80581 -1.48091,1.61162 -2.22139,2.41744 9.6e-4,0.34713 0.004,0.69428 0.0106,1.04137 -0.0868,1.31562 4.01001,1.88372 2.22917,2.14229 2.28846,0.73318 4.54016,1.57274 6.83231,2.30102 3.52857,1.21165 7.11501,2.24682 10.68126,3.34691 0.97779,0.29698 1.96248,0.57001 2.94861,0.83757 2.85288,0.77367 3.94701,-3.2609 1.09414,-4.03458 l 0,0 c -0.94033,-0.25486 -1.87922,-0.5151 -2.81163,-0.79789 -3.55699,-1.09506 -7.1334,-2.1277 -10.65165,-3.33768 -2.27561,-0.71619 -4.50812,-1.55387 -6.77762,-2.28329 -2.81825,-0.5476 -0.4054,0.14821 0.63492,1.7438 -0.005,-0.31878 -0.008,-0.63759 -0.009,-0.95639 -2.48315,1.95835 -3.11975,1.71343 -1.9961,1.76067 0.39612,0.0102 0.79247,0.0191 1.1887,0.009 0.95599,-0.27375 1.13659,-0.26729 1.89964,-0.71605 2.21062,-1.11633 4.46365,-2.15572 6.78418,-3.02412 3.30099,-1.44643 6.64324,-2.8452 9.78847,-4.6086 2.63804,-1.33352 0.75215,-5.06426 -1.88588,-3.73074 z"
       id="path18468"
       style="fill:#000000;fill-opacity:1;fill-rule:nonzero;stroke:none" />
    <path
       style="fill:#000000;fill-opacity:1;fill-rule:nonzero;stroke:none"
       id="path18474"
       d="m 380.78166,248.92138 c 1.35596,4.00601 2.9994,7.90905 4.75422,11.76542 2.37253,4.75561 4.19503,9.73638 6.29641,14.60328 0.59302,1.30768 1.14676,2.63478 1.79936,3.91666 -1.02566,-0.11805 -2.10053,-0.0286 -3.07697,-0.35413 -0.20846,-0.0695 0.10217,-0.41476 0.14116,-0.62445 0.0678,-0.36479 0.11376,-0.73311 0.17914,-1.09832 0.36097,-2.01661 0.72523,-4.03209 1.11437,-6.04391 0.91903,-5.34427 2.18152,-10.63481 3.47645,-15.90503 0.83493,-3.31087 1.47555,-6.66438 1.8533,-10.05235 0.0244,-0.26141 0.0488,-0.52284 0.0731,-0.78426 0.2286,-2.44226 3.80333,-2.1299 3.57472,0.31237 l 0,0 c -0.0264,0.28154 -0.0529,0.56307 -0.0793,0.8446 -0.39645,3.53218 -1.05845,7.02962 -1.92981,10.48169 -1.28486,5.21492 -2.53031,10.45189 -3.44035,15.7407 -0.4726,2.43822 -0.80849,4.91385 -1.33818,7.34062 -0.0811,0.3718 0.0549,0.94346 -0.30267,1.1018 -1.0657,0.47196 -2.31166,0.3786 -3.46748,0.5679 -0.68203,-1.34635 -1.27155,-2.73479 -1.88956,-4.1089 -2.09197,-4.84704 -3.90779,-9.80678 -6.26968,-14.54298 -1.83446,-4.03484 -3.55948,-8.11973 -4.95037,-12.3196 -0.61556,-2.37902 2.86658,-3.22012 3.48214,-0.84111 z"
       inkscape:connector-curvature="0" />
    <path
       style="fill:#000000;fill-opacity:1;fill-rule:nonzero;stroke:none"
       id="path18478"
       d="m 404.71042,269.72924 c 1.03455,2.76208 1.54025,5.648 1.93654,8.54795 0.22901,1.83046 0.33953,3.67157 0.37934,5.51417 0.0115,1.71266 0.24835,1.40504 -3.59364,0.30572 -0.003,-8.3e-4 -0.005,-0.84096 -0.007,-1.43271 0.45994,-2.59788 0.63728,-5.24216 1.15506,-7.82829 0.32855,-1.8972 0.97084,-3.63919 1.82718,-5.35897 1.14821,-1.64821 1.77306,-2.35505 3.89471,-2.52497 1.64225,0.39293 2.34539,1.91425 3.01014,3.27055 0.5583,1.56242 0.95056,3.19007 1.34681,4.80288 0.38178,1.73436 0.59255,3.49751 0.69617,5.26623 0.0837,2.59723 0.57788,1.85631 -3.54896,1.54453 0.50177,-2.07044 0.85162,-4.15277 1.55276,-6.17335 0.77107,-2.55768 1.95163,-4.95147 3.58232,-7.09535 2.90179,-3.40275 4.52536,0.057 5.09391,2.67958 0.2939,2.80986 0.56162,5.59828 1.04943,8.38542 0.41384,1.30348 0.90849,2.58234 1.47548,3.83064 1.01841,2.24616 -2.26927,3.63772 -3.28768,1.39156 l 0,0 c -0.68261,-1.50782 -1.28777,-3.05239 -1.72688,-4.64403 -0.48204,-2.75481 -0.77662,-5.51067 -1.03157,-8.29128 -0.0566,-0.30372 -0.105,-0.60896 -0.16965,-0.91118 -0.0349,-0.16324 -0.27048,-0.3891 -0.12888,-0.48433 0.16466,-0.11073 0.36921,0.19825 0.56953,0.18797 0.4211,-0.0216 0.83446,-0.1427 1.23134,-0.28038 0.0793,-0.0276 0.20525,-0.25803 0.14806,-0.19816 -0.11996,0.12562 -0.22471,0.26405 -0.33707,0.39607 -1.42653,1.84955 -2.40686,3.94114 -3.07232,6.15619 -0.59537,1.63771 -0.78038,3.44283 -1.35961,5.01925 -4.19453,0.34385 -3.51296,1.14075 -3.624,-1.32084 -0.088,-1.56535 -0.2762,-3.12536 -0.60561,-4.66147 -0.33852,-1.39322 -0.69285,-2.79267 -1.11739,-4.15688 -0.34169,-0.77176 -1.58982,-1.72022 -0.1506,-1.2677 1.36448,-0.41681 0.11392,-0.0689 -0.25874,0.58808 -0.7299,1.45379 -1.27331,2.91071 -1.53876,4.52764 -0.50405,2.35434 -0.56962,4.78311 -1.08588,7.14069 8.2e-4,0.27873 8.6e-4,0.55746 0.003,0.83619 8.5e-4,0.18683 0.1896,0.50839 0.004,0.5605 -3.90844,1.09687 -3.56135,1.43828 -3.5839,-0.18814 -0.0363,-1.71517 -0.13819,-3.42893 -0.34938,-5.13301 -0.37677,-2.77149 -0.8691,-5.52089 -1.86011,-8.15966 -0.61556,-2.37901 2.86659,-3.22012 3.48215,-0.84111 z"
       inkscape:connector-curvature="0" />
    <path
       style="fill:#000000;fill-opacity:1;fill-rule:nonzero;stroke:none"
       id="path18480"
       d="m 375.44535,236.56441 c 3.20397,-0.61233 6.47039,-0.85563 9.70933,-1.25466 3.96078,-0.70524 7.92796,-1.36317 11.92604,-1.83732 0.7346,0.19016 4.82893,-1.00919 1.97792,0.16015 -0.14197,0.0918 -0.27812,0.39583 -0.34543,0.54955 0.20695,0.76962 -0.0714,-0.37863 -0.0919,-0.68285 -0.002,-0.0845 -0.0345,-0.33286 -0.004,-0.25364 0.68626,1.77792 -0.54555,0.28056 -1.2426,-0.14205 -1.61968,-0.90065 -2.30552,-2.39413 -3.20596,-3.85294 -0.31547,-0.57352 -0.59513,-1.16406 -0.87364,-1.75479 -1.05126,-2.23198 2.21567,-3.66844 3.26693,-1.43646 l 0,0 c 0.23657,0.5028 0.47392,1.00547 0.73777,1.49569 0.57129,1.01789 0.94343,2.0026 2.03495,2.64326 1.13454,0.73109 2.80971,1.64926 2.87217,3.14465 -0.27975,-0.64151 -0.003,-0.0566 0.0427,0.24623 0.13541,0.8275 0.0303,1.58498 -0.46953,2.30444 -1.6869,0.91866 -2.31645,0.87909 -4.26254,1.02095 -3.99263,0.47263 -7.95214,1.14001 -11.90894,1.83525 -3.09913,0.3818 -6.22224,0.62363 -9.29279,1.17897 -2.46225,0.59475 -3.33279,-2.76968 -0.87054,-3.36443 z"
       inkscape:connector-curvature="0" />
    <path
       inkscape:connector-curvature="0"
       d="m 600.30495,247.23935 c 1.39318,3.6403 3.08171,7.18703 4.88469,10.69136 2.43764,4.32146 4.31015,8.84754 6.46919,13.27014 0.6093,1.18831 1.17823,2.39425 1.84874,3.55911 -1.0538,-0.10727 -2.15817,-0.026 -3.16141,-0.3218 -0.21417,-0.0632 0.10498,-0.37689 0.14504,-0.56745 0.0697,-0.33148 0.11688,-0.66618 0.18405,-0.99805 0.37089,-1.83251 0.74514,-3.664 1.14495,-5.49216 0.94426,-4.8564 2.24139,-9.66397 3.57185,-14.45307 0.85785,-3.00862 1.51605,-6.05598 1.90416,-9.13467 0.0251,-0.23755 0.0501,-0.47511 0.0752,-0.71267 0.23488,-2.2193 3.9077,-1.93545 3.67282,0.28386 l 0,0 c -0.0272,0.25584 -0.0543,0.51167 -0.0815,0.7675 -0.40733,3.20972 -1.0875,6.38788 -1.98277,9.52482 -1.32012,4.73885 -2.59975,9.49773 -3.53477,14.30373 -0.48556,2.21564 -0.83067,4.46527 -1.37489,6.6705 -0.0834,0.33786 0.0564,0.85733 -0.31098,1.00121 -1.09495,0.42888 -2.3751,0.34404 -3.56264,0.51606 -0.70075,-1.22344 -1.30645,-2.48513 -1.94141,-3.7338 -2.14938,-4.40455 -4.01503,-8.91152 -6.44174,-13.21535 -1.8848,-3.6665 -3.65716,-7.37849 -5.08621,-11.19495 -0.63246,-2.16184 2.94524,-2.92616 3.5777,-0.76432 z"
       id="path18482"
       style="fill:#000000;fill-opacity:1;fill-rule:nonzero;stroke:none" />
    <path
       inkscape:connector-curvature="0"
       d="m 624.89037,266.14766 c 1.06294,2.50993 1.58252,5.1324 1.98969,7.76761 0.23528,1.66336 0.34884,3.33639 0.38975,5.01078 0.0118,1.55631 0.25516,1.27677 -3.69227,0.27781 -0.004,-7.5e-4 -0.005,-0.76419 -0.007,-1.30191 0.47256,-2.36073 0.65476,-4.76361 1.18676,-7.11366 0.33756,-1.72399 0.99748,-3.30696 1.87732,-4.86974 1.17971,-1.49775 1.82172,-2.14006 4.00158,-2.29447 1.68732,0.35706 2.40976,1.7395 3.09275,2.97198 0.57362,1.41979 0.97665,2.89885 1.38377,4.36443 0.39226,1.57603 0.60881,3.17822 0.71527,4.78548 0.086,2.36013 0.59374,1.68685 -3.64635,1.40353 0.51555,-1.88143 0.87499,-3.77367 1.59537,-5.60979 0.79223,-2.32419 2.00519,-4.49945 3.68064,-6.44762 2.98141,-3.09211 4.64954,0.0518 5.23369,2.43496 0.30197,2.55335 0.57703,5.08722 1.07822,7.61993 0.4252,1.18448 0.93343,2.34659 1.51598,3.48094 1.04635,2.0411 -2.33155,3.30563 -3.3779,1.26452 l 0,0 c -0.70134,-1.37017 -1.32312,-2.77374 -1.77428,-4.22008 -0.49526,-2.50332 -0.79793,-5.0076 -1.05987,-7.53437 -0.0581,-0.276 -0.10789,-0.55337 -0.17431,-0.828 -0.0359,-0.14834 -0.27789,-0.35358 -0.13241,-0.44011 0.16917,-0.10063 0.37934,0.18015 0.58516,0.1708 0.43265,-0.0196 0.85735,-0.12966 1.26513,-0.25478 0.0815,-0.025 0.21088,-0.23448 0.15212,-0.18007 -0.12325,0.11416 -0.23088,0.23995 -0.34632,0.35992 -1.46568,1.6807 -2.47291,3.58135 -3.15663,5.59419 -0.61171,1.4882 -0.8018,3.12853 -1.39693,4.56104 -4.30963,0.31246 -3.60936,1.03662 -3.72345,-1.20026 -0.0904,-1.42245 -0.28377,-2.84005 -0.62222,-4.23593 -0.34781,-1.26603 -0.71186,-2.53772 -1.14806,-3.7774 -0.35106,-0.7013 -1.63344,-1.56317 -0.15473,-1.15197 1.40192,-0.37876 0.11704,-0.0626 -0.26584,0.5344 -0.74993,1.32107 -1.30825,2.64499 -1.58099,4.11431 -0.51788,2.13941 -0.58525,4.34646 -1.11568,6.48882 8.4e-4,0.25329 8.9e-4,0.50657 0.003,0.75985 8.7e-4,0.16978 0.19481,0.46198 0.004,0.50934 -4.0157,0.99673 -3.65907,1.30698 -3.68225,-0.17097 -0.0373,-1.55859 -0.14198,-3.1159 -0.35897,-4.66442 -0.3871,-2.51848 -0.89294,-5.01689 -1.91115,-7.41476 -0.63245,-2.16184 2.94525,-2.92616 3.57771,-0.76433 z"
       id="path18484"
       style="fill:#000000;fill-opacity:1;fill-rule:nonzero;stroke:none" />
    <path
       inkscape:connector-curvature="0"
       d="m 594.8222,236.01044 c 3.2919,-0.55643 6.64795,-0.77752 9.97578,-1.14012 4.06947,-0.64086 8.14552,-1.23873 12.25331,-1.6696 0.75476,0.17281 4.96145,-0.91706 2.03221,0.14554 -0.14587,0.0835 -0.28576,0.35969 -0.35492,0.49938 0.21264,0.69935 -0.0734,-0.34407 -0.0944,-0.62051 -0.002,-0.0768 -0.0355,-0.30248 -0.004,-0.23049 0.70509,1.61561 -0.56053,0.25495 -1.2767,-0.12908 -1.66413,-0.81844 -2.36879,-2.17558 -3.29395,-3.50121 -0.32412,-0.52116 -0.61145,-1.05779 -0.89761,-1.5946 -1.08011,-2.02822 2.27647,-3.33354 3.35658,-1.30532 l 0,0 c 0.24306,0.4569 0.48693,0.91368 0.75801,1.35915 0.58698,0.92496 0.96933,1.81978 2.09081,2.40196 1.16567,0.66435 2.8868,1.49869 2.95098,2.85757 -0.28742,-0.58294 -0.003,-0.0514 0.0438,0.22375 0.13913,0.75196 0.0311,1.44029 -0.48241,2.09407 -1.7332,0.83479 -2.38002,0.79883 -4.37952,0.92775 -4.1022,0.42948 -8.17036,1.03593 -12.23574,1.66771 -3.18418,0.34694 -6.39299,0.5667 -9.54781,1.07134 -2.52982,0.54045 -3.42425,-2.51684 -0.89442,-3.05729 z"
       id="path18486"
       style="fill:#000000;fill-opacity:1;fill-rule:nonzero;stroke:none" />
    <path
       style="fill:#000000;fill-opacity:1;fill-rule:nonzero;stroke:none"
       id="path18488"
       d="m 737.06359,371.14034 c 0.56123,4.31589 1.12386,8.63327 1.73829,12.94225 0.75389,5.06515 1.23262,10.16464 1.54002,15.27769 0.0569,1.03956 0.1072,2.0796 0.14059,3.12029 0.0566,1.76554 0.15812,0.63665 -3.40369,-0.0213 -0.0397,-0.22176 -0.0793,-0.44353 -0.11897,-0.6653 -0.36937,-2.47412 3.01074,-3.01484 3.38011,-0.54073 l 0,0 c 0.053,0.39906 0.10606,0.79812 0.15909,1.19719 -4.7229,1.04984 -3.23992,1.51233 -3.57078,-2.87048 -0.30081,-5.01383 -0.77024,-10.01426 -1.51004,-14.98103 -0.63708,-4.47914 -1.25288,-8.96461 -1.77485,-13.45858 0,-2.50348 3.42023,-2.50348 3.42023,0 z"
       inkscape:connector-curvature="0" />
    <path
       style="fill:#000000;fill-opacity:1;fill-rule:nonzero;stroke:none"
       id="path18490"
       d="m 734.03358,366.498 c 2.11252,0.44018 4.27142,0.85059 6.43116,0.7141 2.58407,-0.15263 5.10226,-0.63737 7.61381,-1.2542 1.05799,-0.24817 2.12271,-0.46337 3.18968,-0.6654 2.37905,-0.45015 2.99404,3.0326 0.61499,3.48276 l 0,0 c -1.00872,0.19072 -2.01529,0.394 -3.01568,0.62761 -2.71774,0.66648 -5.44881,1.18064 -8.24381,1.34586 -2.4973,0.0942 -4.98153,-0.25266 -7.41969,-0.81599 -2.34625,-0.60718 -1.51673,-4.04193 0.82954,-3.43474 z"
       inkscape:connector-curvature="0" />
    <path
       style="fill:#000000;fill-opacity:1;fill-rule:nonzero;stroke:none"
       id="path18492"
       d="m 736.31373,379.47968 c 2.65159,0.54391 5.35306,0.71474 8.04698,0.85563 2.2326,0.0997 4.46735,0.1291 6.70178,0.13835 2.41844,0.0101 2.40472,3.55047 -0.0138,3.54043 l 0,0 c -2.28758,-0.01 -4.5755,-0.0401 -6.86118,-0.14287 -2.91471,-0.1534 -5.83861,-0.34421 -8.70338,-0.95679 -2.34625,-0.60719 -1.51673,-4.04194 0.82954,-3.43475 z"
       inkscape:connector-curvature="0" />
    <path
       style="fill:#000000;fill-opacity:1;fill-rule:nonzero;stroke:none"
       id="path18494"
       d="m 747.83588,401.86559 c 0.96362,0.32546 2.16554,1.27834 3.23367,1.11289 0.49271,-0.0586 0.42306,-0.86395 0.5005,-1.31734 -0.0484,-0.96706 -0.66266,-1.84202 -1.5042,-2.30891 -1.26365,-0.0973 -2.22501,0.58022 -3.219,1.26943 -1.66668,1.63419 -1.51848,2.79413 -0.63822,4.78472 1.22114,1.73246 2.89459,3.04756 4.99035,3.52322 0.14831,-0.0224 0.2966,-0.0447 0.4449,-0.0671 1.89112,-0.0587 1.97487,2.59284 0.0838,2.65155 l 0,0 c -0.3994,-0.005 -0.7988,-0.0108 -1.1982,-0.0161 -2.89451,-0.79373 -5.23978,-2.49673 -6.79302,-5.0768 -1.35632,-3.38352 -1.16386,-5.43483 1.59261,-7.98433 1.91146,-1.2899 3.90759,-2.27292 6.20652,-1.30154 1.70143,1.18362 2.815,2.87722 2.66487,5.01238 -0.35684,1.78972 -1.1151,3.43612 -3.21522,3.48225 -1.53905,-0.11676 -2.97781,-0.69835 -4.34594,-1.39164 -1.6923,-0.83891 -0.49566,-3.21169 1.19663,-2.37278 z"
       inkscape:connector-curvature="0" />
    <path
       style="fill:#000000;fill-opacity:1;fill-rule:nonzero;stroke:none"
       id="path18496"
       d="m 763.84864,399.43531 c -1.09693,1.6392 -2.19635,3.26064 -3.18432,4.96666 -1.04199,1.68319 -1.96301,3.43147 -3.0279,5.10132 -0.20207,0.31529 -0.41176,0.62559 -0.62443,0.93389 -1.06873,1.54794 -3.27675,0.0495 -2.20803,-1.49845 l 0,0 c 0.19467,-0.2817 0.38623,-0.56548 0.57113,-0.85362 1.04523,-1.63736 1.94421,-3.35469 2.9688,-5.00415 0.96228,-1.66131 2.00874,-3.2594 3.11147,-4.83204 0.84615,-1.67781 3.23943,-0.49142 2.39328,1.18639 z"
       inkscape:connector-curvature="0" />
    <path
       style="fill:#000000;fill-opacity:1;fill-rule:nonzero;stroke:none"
       id="path18498"
       d="m 756.06758,397.67519 c 1.78076,1.57902 3.37503,3.34172 4.90943,5.1524 1.35026,1.70571 2.45305,3.57437 3.81069,5.27375 0.33725,0.40326 0.16325,0.2909 0.44231,0.43497 1.48367,1.16406 -0.17678,3.24433 -1.66046,2.08027 l 0,0 c -0.67421,-0.57538 -0.38773,-0.27873 -0.88046,-0.86947 -1.33944,-1.68093 -2.44836,-3.51258 -3.76099,-5.21331 -1.40379,-1.65745 -2.86147,-3.26474 -4.46598,-4.73633 -1.51363,-1.1255 0.0918,-3.24779 1.60546,-2.12228 z"
       inkscape:connector-curvature="0" />
    <path
       style="fill:#000000;fill-opacity:1;fill-rule:nonzero;stroke:none"
       id="path18500"
       d="m 770.51344,387.90901 c 0.53479,2.23377 0.62282,4.53646 0.72356,6.82042 0.099,2.90628 0.10269,5.81466 0.10754,8.72227 0.002,1.6685 -0.002,3.33699 -0.004,5.00547 -5.2e-4,0.34278 -0.002,0.68557 -0.002,1.02836 -0.002,1.87583 -2.67826,1.87232 -2.67575,-0.004 l 0,0 c 4.6e-4,-0.34298 6.4e-4,-0.68596 0.002,-1.02894 0.002,-1.66566 0.006,-3.33131 0.004,-4.99697 -0.004,-2.87056 -0.008,-5.74186 -0.10501,-8.61113 -0.0923,-2.10598 -0.16293,-4.23075 -0.6462,-6.29255 -0.4589,-1.81984 2.13698,-2.46325 2.59586,-0.64341 z"
       inkscape:connector-curvature="0" />
    <path
       style="fill:#000000;fill-opacity:1;fill-rule:nonzero;stroke:none"
       id="path18502"
       d="m 767.18429,399.00653 c 1.46113,0.35534 2.95178,0.52446 4.44807,0.64371 0.88784,0.0617 1.77788,0.0797 2.66753,0.0938 1.8918,0.0302 1.84878,2.68267 -0.043,2.65251 l 0,0 c -0.94709,-0.0152 -1.8946,-0.035 -2.83971,-0.10203 -1.64241,-0.13184 -3.27844,-0.32336 -4.88182,-0.71433 -1.83556,-0.45496 -1.18659,-3.0286 0.64896,-2.57364 z"
       inkscape:connector-curvature="0" />
    <path
       style="color:#000000;fill:#000000;fill-opacity:1;fill-rule:nonzero;stroke:none;stroke-width:1px;marker:none;visibility:visible;display:inline;overflow:visible;enable-background:accumulate"
       id="path3035"
       d="m 528.0974,511.67718 c 3.5348,0 7.06961,0 10.60441,0 2.4389,0.19661 4.77917,-0.17092 7.12813,-0.77422 2.86382,-0.73216 3.89925,3.31788 1.03544,4.05004 l 0,0 c -2.68189,0.68293 -5.38414,1.1004 -8.16357,0.90448 -3.5348,0 -7.06961,0 -10.60441,0 -2.95592,0 -2.95592,-4.1803 0,-4.1803 z"
       inkscape:connector-curvature="0" />
    <path
       style="color:#000000;fill:#000000;fill-opacity:1;fill-rule:nonzero;stroke:none;stroke-width:1px;marker:none;visibility:visible;display:inline;overflow:visible;enable-background:accumulate"
       id="path3041"
       d="m 530.88427,521.43123 c 3.68959,0 7.37917,0 11.06876,0 1.38585,0 2.7717,0 4.15755,0 2.95592,0 2.95592,4.1803 0,4.1803 l 0,0 c -1.38585,0 -2.7717,0 -4.15755,0 -3.68959,0 -7.37917,0 -11.06876,0 -2.95592,0 -2.95592,-4.1803 0,-4.1803 z"
       inkscape:connector-curvature="0" />
    <path
       style="color:#000000;fill:#000000;fill-opacity:1;fill-rule:nonzero;stroke:none;stroke-width:1px;marker:none;visibility:visible;display:inline;overflow:visible;enable-background:accumulate"
       id="path3045"
       d="m 568.8764,505.9481 c -2.22435,4.60199 -3.35446,9.60575 -4.44468,14.569 -0.52686,3.39173 -1.83129,9.99939 0.40232,13.04338 0.24067,0.32799 0.66277,0.47192 0.99416,0.70788 5.06147,0.18817 8.67864,-5.34238 11.21343,-9.001 2.23013,-4.34095 4.99972,-9.65558 2.64268,-14.53529 -0.31412,-0.65031 -0.81026,-1.19572 -1.21539,-1.79358 -2.76194,-2.84969 -6.19586,-2.93098 -9.64933,-1.46805 -0.72981,0.33694 -1.38292,0.80472 -2.02657,1.27562 -2.28608,1.87385 -4.93611,-1.35916 -2.65003,-3.23301 l 0,0 c 0.95672,-0.75799 2.0084,-1.39531 3.11082,-1.9186 5.71119,-2.23079 10.47701,-1.55321 14.75641,3.12275 0.56045,0.94152 1.25609,1.81475 1.68135,2.82456 2.61364,6.20628 -0.23913,12.65842 -3.22486,18.12222 -3.24164,4.59296 -8.16593,11.46282 -14.73764,10.69356 -0.99351,-0.1163 -1.86703,-0.71871 -2.80055,-1.07806 -0.65545,-0.71435 -1.45195,-1.32129 -1.96634,-2.14306 -2.66103,-4.2511 -1.30465,-10.93295 -0.61309,-15.51768 1.16795,-5.29885 2.39688,-10.63389 4.78834,-15.54013 1.32192,-2.64386 5.0609,-0.77437 3.73897,1.86949 z"
       inkscape:connector-curvature="0" />
    <path
       style="color:#000000;fill:#000000;fill-opacity:1;fill-rule:nonzero;stroke:none;stroke-width:1px;marker:none;visibility:visible;display:inline;overflow:visible;enable-background:accumulate"
       id="path3034"
       d="m 398.55035,346.39899 c 0.28811,1.93253 0.45322,3.8783 0.59225,5.82472 0.0445,0.74167 0.082,1.48402 0.093,2.22691 2.3e-4,0.11207 -0.003,0.22423 -0.011,0.33605 -5.9e-4,0.3268 0.002,0.6536 0.004,0.98039 5.3e-4,0.087 0.002,0.17394 0.002,0.26091 2.1e-4,0.11685 1.3e-4,0.30062 1.2e-4,0.44285 -1e-5,0.0917 -1e-5,0.18346 -2e-5,0.27519 -0.42732,-0.71716 -1.56638,-1.06372 -0.61078,-1.08935 0.88941,-0.003 1.77881,0.007 2.6682,0.0121 0.61754,0.004 1.23507,0.005 1.85262,0.006 0.0933,1.9e-4 0.18667,2.1e-4 0.28,1.9e-4 1.61164,-0.007 1.62101,2.15511 0.009,2.16139 l 0,0 c -0.0978,4e-5 -0.19553,4e-5 -0.2933,-1.7e-4 -0.62057,-7.4e-4 -1.24114,-0.003 -1.86171,-0.006 -0.86554,-0.004 -1.73109,-0.014 -2.59664,-0.0129 -0.70461,0.0148 -1.44266,-0.22693 -1.72698,-1.07152 10e-6,-0.0917 10e-6,-0.18342 2e-5,-0.27514 1e-5,-0.1405 1.3e-4,-0.28101 -10e-6,-0.42151 -7.7e-4,-0.0895 -0.002,-0.179 -0.002,-0.26851 -0.002,-0.35058 -0.005,-0.70118 -0.003,-1.05176 0.0488,-0.70783 -0.002,0.10033 0.0105,-0.2486 -0.01,-0.70409 -0.0466,-1.40765 -0.088,-2.11061 -0.13508,-1.89303 -0.29464,-3.78549 -0.57454,-5.66505 -0.22792,-1.51298 2.0284,-1.81865 2.25632,-0.30567 z"
       inkscape:connector-curvature="0" />
    <path
       style="fill:#000000;fill-opacity:1;fill-rule:nonzero;stroke:none"
       id="path3036"
       d="m 635.07007,339.07174 c 0,2.944 0,5.88799 0,8.832 -0.0426,1.27095 0.0413,2.61177 0.63383,3.77798 0.0137,0.0198 0.0275,0.0396 0.0412,0.0594 -0.95821,0.002 -1.92594,0.13371 -2.87462,0.006 -0.0237,-0.003 0.54694,-3.77382 0.57146,-3.96148 0.48978,-3.12503 1.29571,-6.17849 2.46001,-9.13646 0.79708,-1.62865 1.57187,-3.3251 3.14503,-4.39665 1.69639,-0.96928 2.88404,-0.4066 3.82422,1.19687 1.06615,2.16196 1.393,4.52495 1.64366,6.87303 0.27501,1.65968 0.73523,3.2829 1.08591,4.92855 0.99258,1.84411 -2.25319,1.08628 -2.36443,-0.20881 0.97806,-2.05084 1.97417,-4.06566 3.2461,-5.97019 1.08547,-1.63703 2.21488,-3.39704 3.89421,-4.54408 0.54209,-0.0227 1.104,-0.20764 1.62625,-0.068 2.05391,0.54916 2.08242,3.83317 2.234,5.37626 0.0497,1.92732 0.13628,3.79941 0.62681,5.67154 0.16919,0.28392 0.3954,0.51718 0.67245,0.70387 1.84196,1.27302 -0.0565,3.74329 -1.89846,2.47027 l 0,0 c -0.88039,-0.63423 -1.53373,-1.44007 -1.90329,-2.44131 -0.52367,-2.02165 -0.6733,-4.04794 -0.70758,-6.12746 -0.0139,-0.14959 -0.35974,-2.82517 -0.35234,-2.82654 0.14731,-0.0274 0.29004,0.0735 0.43506,0.11033 0.31316,-0.0853 0.62632,-0.17058 0.93948,-0.25587 0.11506,-0.2548 0.0817,-0.15165 -0.34188,0.30072 -0.94545,1.00964 -1.81724,2.08571 -2.50541,3.27147 -1.2071,1.78846 -2.11629,3.6985 -3.04652,5.62576 -0.15744,0.27338 -0.14577,0.7865 -0.47233,0.82013 -3.21769,0.33139 -2.93355,0.19776 -3.24164,-1.30296 -0.37132,-1.74458 -0.86848,-3.46413 -1.13357,-5.22825 -0.20937,-1.99465 -0.45186,-4.01041 -1.34174,-5.85447 6e-4,-0.0411 -0.0416,-0.12209 0.002,-0.12339 0.12417,-0.004 1.6205,0.0726 0.8732,0.14209 -1.04085,0.47346 -1.29871,2.10697 -1.92022,2.92869 -1.08195,2.73242 -1.81939,5.55521 -2.28012,8.44249 -0.15357,1.16522 -0.36434,2.31512 -0.54037,3.47592 -0.0423,0.27897 0.16235,0.70818 -0.10026,0.84016 -0.9336,0.4692 -2.02443,0.60098 -3.06889,0.75254 -0.11197,0.0162 -0.10729,-0.18922 -0.16094,-0.28383 -0.74011,-1.58386 -1.0026,-3.31761 -0.92341,-5.04423 0,-2.944 0,-5.888 0,-8.832 0,-2.1614 3.22332,-2.1614 3.22332,0 z"
       inkscape:connector-curvature="0" />
    <path
       style="color:#000000;fill:#000000;fill-opacity:1;fill-rule:nonzero;stroke:none;stroke-width:1px;marker:none;visibility:visible;display:inline;overflow:visible;enable-background:accumulate"
       id="path3042"
       d="m 658.75903,354.81073 c 0.27938,-1.8653 0.10989,-3.76513 0.0185,-5.64019 -0.16212,-1.42155 0.21228,-2.69967 1.15682,-3.79816 0.88193,-0.8483 2.09039,-0.97559 3.27946,-1.03782 0.9521,-0.0273 1.90483,-0.0182 2.85713,-0.007 1.20329,-0.0588 1.637,0.77995 1.71012,1.75497 0.0311,0.80849 0.0467,1.60227 -0.13861,2.39201 -0.68223,1.25832 -2.07071,1.455 -3.41758,1.58787 -0.019,0.0717 -2.34118,0.023 -1.64212,0.0638 -0.14547,0.0993 -0.28786,0.20118 -0.41859,0.31761 0.57766,-0.48861 -1.39298,-1.78449 -0.28287,-1.77602 1.29968,0.19388 2.46162,0.8109 3.64427,1.32203 1.28223,0.70218 2.5805,1.3773 3.75625,2.2341 0.94529,0.70743 1.58615,1.6913 2.27363,2.61292 0.14443,0.19384 0.28801,0.38823 0.43133,0.5828 0.92287,1.25297 -0.94569,2.49064 -1.86856,1.23767 l 0,0 c -0.14072,-0.19107 -0.28172,-0.38194 -0.42354,-0.57228 -0.55668,-0.74633 -1.06323,-1.55822 -1.8063,-2.15068 -1.03342,-0.76209 -2.19061,-1.33756 -3.30917,-1.97825 -0.89641,-0.38851 -1.79176,-0.82331 -2.71704,-1.12697 -0.92448,-0.008 -2.09424,-1.34399 -1.27161,-1.94892 0.34669,-0.30991 0.73412,-0.57787 1.16772,-0.76905 0.7428,-0.18092 1.46784,-0.18116 2.2358,-0.19906 0.3369,-0.0317 1.37995,-0.37098 1.46115,-0.0455 0.0737,-0.48973 0.0669,-1.11564 0.0503,-1.66174 -0.002,-0.0662 -0.0388,-0.14057 -0.005,-0.19883 0.0626,-0.10931 0.13301,0.23256 0.25055,0.28777 0.20577,0.0967 0.44334,0.11746 0.65569,0.20034 0.11199,0.0437 -0.57916,-0.0701 -0.36329,-0.005 -0.90328,-0.0105 -1.80693,-0.0192 -2.71007,0.004 -0.55677,0.0257 -1.23127,2.6e-4 -1.69908,0.31953 -0.6771,0.50363 -0.61712,1.54233 -0.57958,2.25825 0.0987,2.02716 0.27107,4.07959 -0.0471,6.09526 -0.26496,1.50756 -2.51317,1.15222 -2.24822,-0.35533 z"
       inkscape:connector-curvature="0" />
    <path
       inkscape:connector-curvature="0"
       d="m 429.0949,277.42746 c 0.28811,1.93253 0.45322,3.8783 0.59225,5.82472 0.0445,0.74167 0.082,1.48402 0.093,2.22691 2.3e-4,0.11207 -0.003,0.22423 -0.011,0.33605 -5.9e-4,0.3268 0.002,0.6536 0.004,0.98039 5.3e-4,0.087 0.002,0.17394 0.002,0.26091 2.1e-4,0.11685 1.3e-4,0.30062 1.2e-4,0.44285 -10e-6,0.0917 -10e-6,0.18346 -2e-5,0.27519 -0.42732,-0.71716 -1.56638,-1.06372 -0.61078,-1.08935 0.88941,-0.003 1.77881,0.007 2.6682,0.0121 0.61754,0.004 1.23507,0.005 1.85262,0.006 0.0933,1.9e-4 0.18667,2.1e-4 0.28,1.9e-4 1.61164,-0.007 1.62101,2.15511 0.009,2.16139 l 0,0 c -0.0978,4e-5 -0.19553,4e-5 -0.2933,-1.7e-4 -0.62057,-7.4e-4 -1.24114,-0.003 -1.86171,-0.006 -0.86554,-0.004 -1.73109,-0.014 -2.59664,-0.0129 -0.70461,0.0148 -1.44266,-0.22693 -1.72698,-1.07152 1e-5,-0.0917 1e-5,-0.18342 2e-5,-0.27514 1e-5,-0.1405 1.3e-4,-0.28101 -10e-6,-0.42151 -7.7e-4,-0.0895 -0.002,-0.179 -0.002,-0.26851 -0.002,-0.35058 -0.005,-0.70118 -0.003,-1.05176 0.0488,-0.70783 -0.002,0.10033 0.0105,-0.2486 -0.01,-0.70409 -0.0466,-1.40765 -0.088,-2.11061 -0.13508,-1.89303 -0.29464,-3.78549 -0.57454,-5.66505 -0.22792,-1.51298 2.0284,-1.81865 2.25632,-0.30567 z"
       id="path3046"
       style="color:#000000;fill:#000000;fill-opacity:1;fill-rule:nonzero;stroke:none;stroke-width:1px;marker:none;visibility:visible;display:inline;overflow:visible;enable-background:accumulate" />
    <path
       inkscape:connector-curvature="0"
       d="m 647.92064,281.89796 c 0.27938,-1.8653 0.10989,-3.76513 0.0185,-5.64019 -0.16212,-1.42155 0.21228,-2.69967 1.15682,-3.79816 0.88193,-0.8483 2.09039,-0.97559 3.27946,-1.03782 0.9521,-0.0273 1.90483,-0.0182 2.85713,-0.007 1.20329,-0.0588 1.637,0.77995 1.71012,1.75497 0.0311,0.80849 0.0467,1.60227 -0.13861,2.39201 -0.68223,1.25832 -2.07071,1.455 -3.41758,1.58787 -0.019,0.0717 -2.34118,0.023 -1.64212,0.0638 -0.14547,0.0993 -0.28786,0.20118 -0.41859,0.31761 0.57766,-0.48861 -1.39298,-1.78449 -0.28287,-1.77602 1.29968,0.19388 2.46162,0.8109 3.64427,1.32203 1.28223,0.70218 2.5805,1.3773 3.75625,2.2341 0.94529,0.70743 1.58615,1.6913 2.27363,2.61292 0.14443,0.19384 0.28801,0.38823 0.43133,0.5828 0.92287,1.25297 -0.94569,2.49064 -1.86856,1.23767 l 0,0 c -0.14072,-0.19107 -0.28172,-0.38194 -0.42354,-0.57228 -0.55668,-0.74633 -1.06323,-1.55822 -1.8063,-2.15068 -1.03342,-0.76209 -2.19061,-1.33756 -3.30917,-1.97825 -0.89641,-0.38851 -1.79176,-0.82331 -2.71704,-1.12697 -0.92448,-0.008 -2.09424,-1.34399 -1.27161,-1.94892 0.34669,-0.30991 0.73412,-0.57787 1.16772,-0.76905 0.7428,-0.18092 1.46784,-0.18116 2.2358,-0.19906 0.3369,-0.0317 1.37995,-0.37098 1.46115,-0.0455 0.0737,-0.48973 0.0669,-1.11564 0.0503,-1.66174 -0.002,-0.0662 -0.0388,-0.14057 -0.005,-0.19883 0.0626,-0.10931 0.13301,0.23256 0.25055,0.28777 0.20577,0.0967 0.44334,0.11746 0.65569,0.20034 0.11199,0.0437 -0.57916,-0.0701 -0.36329,-0.005 -0.90328,-0.0105 -1.80693,-0.0192 -2.71007,0.004 -0.55677,0.0257 -1.23127,2.6e-4 -1.69908,0.31953 -0.6771,0.50363 -0.61712,1.54233 -0.57958,2.25825 0.0987,2.02716 0.27107,4.07959 -0.0471,6.09526 -0.26496,1.50756 -2.51317,1.15222 -2.24822,-0.35533 z"
       id="path3048"
       style="color:#000000;fill:#000000;fill-opacity:1;fill-rule:nonzero;stroke:none;stroke-width:1px;marker:none;visibility:visible;display:inline;overflow:visible;enable-background:accumulate" />
    <path
       style="color:#000000;fill:#000000;fill-opacity:1;fill-rule:nonzero;stroke:none;stroke-width:1px;marker:none;visibility:visible;display:inline;overflow:visible;enable-background:accumulate"
       id="path3084"
       d="m 455.25981,346.3071 c 2.36714,-2.86353 3.87723,-6.19721 4.95873,-9.717 0.69752,-1.89599 1.40619,-3.78287 1.9572,-5.72779 0.15674,-0.40509 0.14544,-0.80412 0.14788,-1.23027 -0.001,-0.0914 -0.003,-0.18275 -0.005,-0.27412 0.13218,1.52881 2.85379,-0.57567 4.28629,-0.46166 0.13666,0.0109 1.29007,4.30007 1.39113,4.71366 0.93688,4.63967 1.69602,9.30953 2.56735,13.96183 0.77888,4.26486 2.595,8.21053 4.07024,12.25447 0.52502,1.78744 1.16855,3.50489 2.12484,5.10482 0.4324,0.84934 0.70587,1.76622 0.85207,2.70542 0.32998,1.40728 -0.95628,-1.31946 0.0558,-0.28771 0.21098,0.21424 0.42783,0.42248 0.64605,0.62927 -3.85498,0.74003 -3.32488,1.12444 -2.75951,-1.02566 1.1534,-3.40084 2.07131,-6.83545 2.64662,-10.38048 0.82016,-3.88979 1.57431,-7.78669 1.97203,-11.74395 0.6013,-2.96669 1.12464,-5.93404 1.4152,-8.94829 0.10276,-1.26724 0.20282,-2.53611 0.23563,-3.80751 -0.1442,-0.81302 3.10252,-2.50346 1.68767,-2.29884 -0.19512,0.12938 -0.22388,0.36801 -0.26382,0.5879 -0.0142,3.50564 2.16982,-3.86461 4.19883,0.30935 0.24062,0.49498 0.42594,1.408 0.53882,1.85828 0.62457,3.50396 1.54987,6.94935 2.48662,10.38104 1.21199,4.78459 2.4122,9.5829 3.9899,14.26232 1.0084,2.57186 1.5318,5.3032 2.69908,7.80297 0.58922,1.78611 1.16666,3.55306 1.81545,5.32009 0.31073,0.89938 0.60333,1.80587 0.84868,2.72547 0.36393,1.5132 0.37114,1.2749 -3.82434,-0.38644 -0.23856,-0.0945 0.16338,-0.48663 0.23498,-0.73303 0.0741,-0.25497 0.13459,-0.51369 0.20189,-0.77053 0.54291,-2.90602 1.09143,-5.81339 1.70539,-8.70644 1.03184,-5.08066 2.21351,-10.13328 3.48938,-15.15844 0.86893,-4.09957 2.15524,-8.08895 3.19231,-12.14448 0.3394,-1.40357 1.40858,-3.13941 2.01234,-4.11346 0.0405,-0.14513 0.0635,-0.35715 0.0775,-0.47631 -0.005,-0.3737 -0.009,-0.74742 -0.0154,-1.12112 -8.5e-4,-0.0654 -0.003,-0.16305 -0.004,-0.21996 1.39307,0.20702 2.84199,0.17909 4.17922,0.62106 0.2406,0.0795 -0.0241,0.50795 -7e-5,0.7602 0.023,0.24075 0.0985,0.47363 0.14044,0.7118 0.29872,1.69497 0.6849,3.36038 1.04865,5.04368 0.81761,4.76413 1.88278,9.47513 3.56458,14.01081 1.55023,4.45331 3.23887,8.87879 5.49059,13.02878 1.231,2.37114 2.75414,4.57577 4.1573,6.8483 0.23398,0.38434 0.47371,0.76535 0.69836,1.15527 -0.5003,-0.35771 -1.00061,-0.71541 -1.50091,-1.07312 -0.16938,0.1047 0.77393,-0.1137 0.59698,-0.0224 -1.67766,0.8659 -1.12457,0.20538 -1.71996,1.06493 0.93257,-2.00393 1.02342,-4.24322 1.42327,-6.38531 0.67935,-3.60909 1.05691,-7.25573 1.71056,-10.86898 0.77927,-4.29232 1.58929,-8.56497 2.05684,-12.90595 0.38743,-2.96201 1.12232,-5.86268 1.6308,-8.80222 0.12192,-1.32475 0.9447,-2.40916 1.33459,-3.65208 0.12421,-0.4048 0.21944,-0.81705 0.29796,-1.23259 -0.049,0.24079 -0.0216,-0.51598 -0.0223,-0.58976 -10e-4,-0.16986 -0.004,-0.33972 -0.005,-0.50958 3.62352,-0.0313 4.17972,-0.84112 4.17979,1.06187 0.003,0.9475 -0.0795,0.0354 0.47397,1.34492 1.29276,3.50908 2.40239,7.09184 3.55058,10.6536 1.6039,5.22902 3.52423,10.32029 5.58925,15.38074 1.16283,3.17812 2.94988,6.02497 4.54128,8.98667 0.19295,0.56237 0.39892,0.82864 0.86537,0.9895 -0.4815,-0.24641 -2.06209,0.29237 -0.32063,-0.21756 0.61794,-0.0915 1.23732,-0.0433 1.8374,0.11885 1.48973,0.45936 1.60045,2.04673 1.59139,3.24971 0.14975,1.89279 -4.18721,1.04243 -4.21035,-0.79155 0.50733,-2.01698 0.94483,-4.01948 1.16346,-6.09232 0.32728,-3.20763 0.95353,-6.36931 1.27185,-9.58217 0.2777,-3.10096 0.33552,-6.21493 0.36968,-9.32622 0.0134,-1.72271 0.0106,-3.44549 0.004,-5.16822 -0.002,-0.7453 -0.005,-1.4906 -0.006,-2.2359 -6.3e-4,-0.92776 -4.4e-4,-1.85551 -4.3e-4,-2.78327 10e-6,-0.46704 3e-5,-0.93408 6e-5,-1.40113 2e-5,-0.2336 10e-6,-0.4672 10e-6,-0.7008 10e-6,-0.23297 0,-0.46594 0,-0.69891 0,-0.0179 0,-0.0358 0,-0.0537 0.86543,-0.68513 1.73085,-1.37027 2.59627,-2.05541 0.21859,0.0119 0.43741,0.009 0.65568,-0.004 1.54522,0.38595 2.03868,0.7484 2.91387,2.06308 0.99598,1.17171 1.97624,2.38701 2.82857,3.68928 1.90594,2.74913 3.00653,5.92799 4.40713,8.93931 1.94465,4.28543 3.22249,8.79982 4.41996,13.33642 0.90605,3.74259 2.27976,7.33281 3.49995,10.97644 0.26762,1.18366 0.72243,2.34616 1.51973,3.27709 -0.39784,-0.80083 -3.81323,1.51657 -2.4346,-0.37266 0.42514,-0.44795 0.48174,-0.91306 0.90024,-1.69761 0.86213,-1.18668 1.38335,-2.55164 1.75409,-3.96291 0.78598,-2.04604 1.52636,-4.10422 2.28866,-6.15821 0.53668,-2.04203 1.30844,-4.00646 2.01034,-5.99551 0.20682,-0.58988 0.41369,-1.17978 0.61393,-1.77193 -0.1211,0.96594 -0.0954,-0.007 -0.0978,-0.36552 -0.003,-0.5309 -0.005,-1.06181 -0.007,-1.59271 -0.01,-2.95591 4.17069,-2.96947 4.18028,-0.0136 l 0,0 c 0.002,0.52615 0.004,1.05231 0.007,1.57846 0.004,0.57648 0.0424,1.16118 -0.11938,1.72345 -0.2072,0.6125 -0.42081,1.22282 -0.63493,1.83294 -0.71002,2.01189 -1.48614,3.99672 -2.03401,6.06085 -0.72029,1.93505 -1.40126,3.88131 -2.17296,5.7977 -0.4965,1.78464 -1.14956,3.53043 -2.22609,5.05478 -0.22439,0.44603 -0.61439,1.60897 -1.17233,2.08871 -2.40531,1.01055 -2.75906,1.99064 -4.09075,0.44088 -1.08032,-1.34573 -1.86295,-2.90957 -2.24843,-4.59713 -1.24832,-3.72981 -2.64885,-7.40712 -3.57797,-11.23744 -1.13307,-4.29933 -2.33143,-8.57947 -4.16972,-12.64274 -1.31496,-2.83905 -2.34764,-5.83811 -4.12929,-8.43487 -0.88167,-1.39962 -2.01159,-2.59323 -2.97376,-3.93229 0.48942,0.3205 -0.26183,-0.30303 -0.25604,-0.30228 2.60233,0.33793 1.94105,0.30842 1.34263,0.38433 -0.44698,0.0288 -0.89515,0.0358 -1.34246,0.004 0.74777,-0.81798 1.95182,-3.08291 1.92955,-2.05692 0,0.23298 0,0.46595 0,0.69892 0,0.23371 10e-6,0.46743 -1e-5,0.70114 -3e-5,0.46695 -5e-5,0.9339 -6e-5,1.40085 -10e-6,0.92625 -2e-4,1.8525 4.2e-4,2.77875 7.9e-4,0.74149 0.003,1.48298 0.006,2.22447 0.007,1.74337 0.009,3.48678 -0.004,5.23013 -0.0357,3.23415 -0.0985,6.47101 -0.38998,9.69418 -0.32212,3.2231 -0.93966,6.39638 -1.275,9.61277 -0.20349,1.87967 -0.41103,3.86453 -1.14006,5.59764 0.02,1.77566 -4.03024,1.76129 -4.14979,0.80372 0.003,-1.34762 -7.8e-4,-0.44771 1.42737,0.80395 0.1239,-0.0321 0.0112,0.0595 0.11512,-0.0298 0.75181,-0.35425 -1.21707,0.51056 -1.97015,0.0148 -1.35743,-0.56348 -2.44561,-1.55153 -3.04889,-2.91436 -1.6579,-3.09155 -3.51031,-6.0715 -4.72859,-9.38449 -2.1047,-5.158 -4.05797,-10.34982 -5.6975,-15.67762 -1.11451,-3.45794 -2.18963,-6.93817 -3.43806,-10.34627 -0.37025,-0.94806 -0.91611,-1.8742 -0.78808,-2.93459 -7e-5,-1.84018 1.35907,-1.66973 4.18047,-1.11625 0.002,0.17531 0.004,0.35062 0.006,0.52594 0.004,0.42846 0.0277,0.86131 -0.0298,1.28688 -0.10321,0.62749 -0.26564,1.24374 -0.44632,1.85293 -0.35997,1.10167 -1.00689,2.05495 -1.19627,3.09178 -0.50167,2.84879 -1.19295,5.66419 -1.59265,8.53207 -0.48127,4.43961 -1.29991,8.81157 -2.09947,13.20127 -0.65619,3.62413 -1.02707,7.28358 -1.71679,10.90264 -0.41717,2.16401 -0.49969,4.52619 -1.4459,6.49645 -1.08387,2.92015 -2.92872,2.47939 -5.11161,1.17749 -0.15655,-0.26506 -0.42153,-0.69914 -0.60443,-0.99531 -1.44534,-2.34099 -3.01131,-4.61453 -4.27852,-7.058 -2.3302,-4.33256 -4.13213,-8.92217 -5.73465,-13.56918 -1.73314,-4.72516 -2.89023,-9.61292 -3.72845,-14.57436 -0.0968,-0.44867 -1.66611,-7.26144 -1.28323,-7.39924 1.33145,-0.4792 2.78638,-0.49559 4.17957,-0.74338 0.002,0.0911 0.004,0.18221 0.006,0.27333 0.007,0.4669 0.0169,0.9339 0.0107,1.40086 -0.0423,0.68319 -0.19044,1.35485 -0.44479,1.9916 -0.59957,1.13843 -1.41564,2.16191 -1.77079,3.42663 -1.04128,4.05164 -2.3194,8.03959 -3.19011,12.13584 -1.26454,4.97194 -2.43124,9.97232 -3.4523,14.99963 -0.63285,2.96032 -1.17859,5.93836 -1.75385,8.90904 -0.68284,2.54268 -0.99,2.25348 -4.69266,1.89074 -0.21786,-0.79715 -0.46359,-1.58647 -0.73584,-2.36683 -0.59908,-1.65512 -1.18058,-3.3004 -1.67719,-4.98662 -1.23247,-2.648 -1.84087,-5.50693 -2.87287,-8.23788 -1.59371,-4.75935 -2.83806,-9.6281 -4.06035,-14.49405 -0.94597,-3.47393 -1.88696,-6.96111 -2.51898,-10.5075 -0.0517,-0.23361 -0.74633,-2.42874 -0.70635,-2.45683 4.02777,-2.8299 3.77296,-2.50013 4.19143,-0.24555 -0.12339,0.77845 -0.47026,1.45157 -1.0279,2.01738 -3.37214,2.86037 0.0139,-2.22165 -0.37437,-0.63423 -0.0369,1.36919 -0.14021,2.73585 -0.25368,4.10047 -0.29433,3.01828 -0.78062,6.00011 -1.41688,8.9653 -0.41093,4.04174 -1.15714,8.02698 -2.00572,11.99863 -0.60683,3.67944 -1.52569,7.25913 -2.73435,10.78789 -0.37882,1.39248 -1.47627,5.09701 -4.13001,2.99953 -0.26554,-0.2499 -0.52714,-0.50397 -0.78337,-0.76343 -0.45351,-0.46508 -1.51514,-1.97968 -1.20131,-2.01836 -0.0645,-0.40546 -0.17182,-0.80133 -0.31199,-1.18762 -1.07856,-1.82598 -1.86674,-3.77157 -2.45826,-5.80847 -1.54846,-4.26031 -3.4529,-8.41804 -4.25113,-12.91532 -0.85783,-4.58026 -1.60701,-9.17752 -2.52118,-13.74674 -0.0381,-0.15857 -1.17733,-3.81696 -1.09236,-3.87954 1.09811,-0.80873 2.41352,-1.27062 3.62028,-1.90593 0.005,0.0369 0.01,0.0738 0.0146,0.11075 0.0206,0.24833 0.0306,0.49723 0.0279,0.74654 -0.008,0.78973 -0.0542,1.58205 -0.30661,2.33741 -0.56159,1.97516 -1.26251,3.89985 -1.98483,5.82101 -1.25656,4.04274 -3.01903,7.8707 -5.74114,11.15847 -1.89233,2.2708 -5.10373,-0.40537 -3.2114,-2.67617 z"
       inkscape:connector-curvature="0" />
    <path
       style="color:#000000;fill:#000000;fill-opacity:1;fill-rule:nonzero;stroke:none;stroke-width:1px;marker:none;visibility:visible;display:inline;overflow:visible;enable-background:accumulate"
       id="path3086"
       d="m 414.09438,346.75021 c 4.55477,0.75577 9.16315,0.89869 13.75696,1.04234 6.96346,0.1001 13.9325,0.31473 20.89282,1.6e-4 4.79115,-0.30015 2.42977,-0.0896 7.08475,-0.62254 2.57777,-0.29358 2.94163,3.86606 0.36387,4.15963 l 0,0 c -4.83735,0.54811 -2.40236,0.33354 -7.30521,0.64001 -7.04192,0.31142 -14.09183,0.10964 -21.13679,10e-4 -4.7618,-0.14949 -9.5386,-0.30336 -14.2587,-1.09764 -2.55533,-0.48595 -1.95303,-4.60938 0.6023,-4.12343 z"
       inkscape:connector-curvature="0" />
    <path
       inkscape:connector-curvature="0"
       d="m 582.70005,345.35678 c 4.55477,0.75577 9.16315,0.89869 13.75696,1.04234 6.96346,0.1001 13.9325,0.31473 20.89282,1.6e-4 4.79115,-0.30015 2.42977,-0.0896 7.08475,-0.62254 2.57777,-0.29358 2.94163,3.86606 0.36387,4.15963 l 0,0 c -4.83735,0.54811 -2.40236,0.33354 -7.30521,0.64001 -7.04192,0.31142 -14.09183,0.10964 -21.13679,0.001 -4.7618,-0.14949 -9.5386,-0.30336 -14.2587,-1.09764 -2.55533,-0.48595 -1.95303,-4.60938 0.6023,-4.12343 z"
       id="path3088"
       style="color:#000000;fill:#000000;fill-opacity:1;fill-rule:nonzero;stroke:none;stroke-width:1px;marker:none;visibility:visible;display:inline;overflow:visible;enable-background:accumulate" />
  </g>
</svg>
