<?xml version="1.0" encoding="UTF-8" standalone="no"?>
<!-- Created with Inkscape (http://www.inkscape.org/) -->

<svg
   xmlns:dc="http://purl.org/dc/elements/1.1/"
   xmlns:cc="http://creativecommons.org/ns#"
   xmlns:rdf="http://www.w3.org/1999/02/22-rdf-syntax-ns#"
   xmlns:svg="http://www.w3.org/2000/svg"
   xmlns="http://www.w3.org/2000/svg"
   xmlns:sodipodi="http://sodipodi.sourceforge.net/DTD/sodipodi-0.dtd"
   xmlns:inkscape="http://www.inkscape.org/namespaces/inkscape"
   width="475.75906"
   height="417.70016"
   id="svg2985"
   version="1.1"
   inkscape:version="0.48.0 r9654"
   sodipodi:docname="New document 2">
  <defs
     id="defs2987" />
  <sodipodi:namedview
     inkscape:document-units="mm"
     pagecolor="#ffffff"
     bordercolor="#666666"
     borderopacity="1.0"
     inkscape:pageopacity="0.0"
     inkscape:pageshadow="2"
     inkscape:zoom="0.7176508"
     inkscape:cx="273.42013"
     inkscape:cy="211.31527"
     inkscape:current-layer="layer1"
     id="namedview2989"
     showgrid="false"
     fit-margin-top="0"
     fit-margin-left="0"
     fit-margin-right="0"
     fit-margin-bottom="0"
     inkscape:window-width="1280"
     inkscape:window-height="752"
     inkscape:window-x="0"
     inkscape:window-y="0"
     inkscape:window-maximized="0" />
  <metadata
     id="metadata2991">
    <rdf:RDF>
      <cc:Work
         rdf:about="">
        <dc:format>image/svg+xml</dc:format>
        <dc:type
           rdf:resource="http://purl.org/dc/dcmitype/StillImage" />
        <dc:title></dc:title>
      </cc:Work>
    </rdf:RDF>
  </metadata>
  <g
     inkscape:label="Layer 1"
     inkscape:groupmode="layer"
     id="layer1"
     transform="translate(-252.76096,-165.66234)">
    <path
       style="fill:#000000;fill-opacity:1;fill-rule:nonzero;stroke:none"
       id="path3816"
       d="m 355.98148,170.77908 c 0.0663,11.2255 -0.25772,22.45116 -0.32248,33.67885 -0.16363,31.32884 1.07688,62.63852 1.58111,93.95914 0.52275,39.77975 -0.56414,79.54664 -1.34017,119.31394 -0.54402,28.32864 -0.55019,56.66291 -0.3368,84.99471 0.10568,12.07329 0.27366,24.14593 0.47733,36.21795 0.0494,2.95551 -4.12985,3.02601 -4.17971,0.0702 l 0,0 c -0.20387,-12.08503 -0.37197,-24.17068 -0.47773,-36.25698 -0.21362,-28.36948 -0.20731,-56.74144 0.33747,-85.10776 0.77511,-39.71769 1.86122,-79.43496 1.33991,-119.1651 -0.50437,-31.35109 -1.74681,-62.69122 -1.58157,-94.05056 0.0648,-11.19825 0.38748,-22.39448 0.32291,-33.59048 -0.0454,-2.95558 4.1344,-3.01979 4.1798,-0.0642 z"
       inkscape:connector-curvature="0" />
    <path
       style="fill:#000000;fill-opacity:1;fill-rule:nonzero;stroke:none"
       id="path3822"
       d="m 354.40021,168.3859 c -1.24038,4.0159 -2.71661,7.93763 -4.34591,11.8118 -2.05342,4.18686 -3.72161,8.56264 -5.87561,12.69902 -1.37373,2.61731 -5.07517,0.67456 -3.70144,-1.94276 l 0,0 c 2.1275,-4.01507 3.69203,-8.31362 5.72399,-12.37766 1.54799,-3.67632 2.9547,-7.39718 4.14348,-11.20428 0.71691,-2.86766 4.77241,-1.85379 4.05549,1.01388 z"
       inkscape:connector-curvature="0" />
    <path
       style="fill:#000000;fill-opacity:1;fill-rule:nonzero;stroke:none"
       id="path3830"
       d="m 353.12371,167.62775 c 2.65013,2.61788 4.56978,5.86828 6.64007,8.94055 2.54912,4.21863 5.62604,8.05873 8.853,11.76985 0.5129,0.56643 1.0258,1.13285 1.5387,1.69927 1.98365,2.19149 -1.11557,4.9968 -3.09923,2.80532 l 0,0 c -0.53156,-0.58747 -1.06313,-1.17494 -1.59469,-1.76241 -3.33681,-3.84131 -6.52183,-7.8149 -9.16452,-12.17608 -1.91998,-2.84958 -3.68608,-5.88067 -6.12926,-8.32057 -2.09015,-2.09016 0.86577,-5.04608 2.95593,-2.95593 z"
       inkscape:connector-curvature="0" />
    <path
       inkscape:connector-curvature="0"
       d="m 703.95407,523.11826 c -11.2251,0.11587 -22.45208,-0.15858 -33.67994,-0.17376 -31.32926,-0.0253 -62.63316,1.35348 -93.95125,1.99601 -39.77705,0.6984 -79.54835,-0.21287 -119.31869,-0.81329 -28.33077,-0.41892 -56.66479,-0.29997 -84.99537,0.0385 -12.07271,0.15899 -24.14449,0.38028 -36.21549,0.63726 -2.95526,0.0624 -3.04422,-4.11645 -0.0887,-4.17936 l 0,0 c 12.08402,-0.25723 24.16881,-0.4787 36.25452,-0.63783 28.36826,-0.33889 56.73997,-0.45787 85.10842,-0.0384 39.72073,0.59972 79.44241,1.51043 119.16986,0.81368 31.34855,-0.6428 62.68289,-2.02362 94.04266,-1.99686 11.19842,0.0154 22.39596,0.28858 33.59157,0.17457 2.95535,-0.0584 3.03802,4.12103 0.0827,4.17948 z"
       id="path3832"
       style="fill:#000000;fill-opacity:1;fill-rule:nonzero;stroke:none" />
    <path
       inkscape:connector-curvature="0"
       d="m 706.34025,521.52644 c -4.02135,-1.22264 -7.94956,-2.68154 -11.83088,-4.29371 -4.1959,-2.03491 -8.57899,-3.68376 -12.72484,-5.81948 -2.62335,-1.36216 -0.69697,-5.07214 1.92639,-3.70998 l 0,0 c 4.02442,2.10975 8.32985,3.65528 12.40282,5.66928 3.68311,1.53174 7.41015,2.922 11.22246,4.09396 2.87081,0.70424 1.87485,4.76418 -0.99595,4.05993 z"
       id="path3834"
       style="fill:#000000;fill-opacity:1;fill-rule:nonzero;stroke:none" />
    <path
       inkscape:connector-curvature="0"
       d="m 707.09274,520.2466 c -2.60614,2.66167 -5.84804,4.59565 -8.91114,6.67949 -4.20733,2.56772 -8.0338,5.66157 -11.73063,8.90488 -0.56416,0.5154 -1.12831,1.0308 -1.69246,1.54619 -2.18271,1.99331 -5.00168,-1.09349 -2.81898,-3.08681 l 0,0 c 0.58512,-0.53415 1.17023,-1.06831 1.75535,-1.60246 3.82654,-3.35374 7.78602,-6.55627 12.13549,-9.21819 2.84107,-1.93255 5.86433,-3.71202 8.29343,-6.16595 2.0809,-2.09936 5.04985,0.84348 2.96894,2.94285 z"
       id="path3836"
       style="fill:#000000;fill-opacity:1;fill-rule:nonzero;stroke:none" />
    <path
       style="fill:#000000;fill-opacity:1;fill-rule:nonzero;stroke:none"
       id="path3844"
       d="m 356.19513,295.87582 c -0.44653,4.62029 0.27878,9.21109 1.11514,13.73578 1.38039,7.99887 4.25374,15.57079 7.17245,23.07992 4.58749,10.65232 9.74879,21.03109 14.76478,31.47423 5.88988,12.81643 12.93313,24.99236 20.4639,36.84789 8.57846,13.14082 19.24768,24.59122 29.97628,35.86569 11.56087,11.88214 24.31647,22.43654 37.44989,32.41064 11.04111,8.01026 22.79559,15.09394 35.1489,20.7625 2.44266,1.12086 4.94004,2.1114 7.41005,3.16709 13.76313,5.37682 27.82093,9.88635 41.84312,14.48086 11.31048,3.53228 22.77591,6.54606 34.35018,9.01278 7.41536,1.71526 14.92577,2.89513 22.48413,3.68457 0.80049,0.0643 1.60096,0.12867 2.40143,0.19302 2.41571,0.19464 2.14773,3.70396 -0.26797,3.50932 l 0,0 c -0.82686,-0.0668 -1.65371,-0.13357 -2.48057,-0.20034 -7.67528,-0.80383 -15.30283,-1.99905 -22.83338,-3.7399 -11.69041,-2.49306 -23.27164,-5.53531 -34.6952,-9.10582 -14.11549,-4.62511 -28.267,-9.1648 -42.11905,-14.58486 -2.52355,-1.08028 -5.07489,-2.09447 -7.57067,-3.24083 -12.55034,-5.76457 -24.49167,-12.96526 -35.70843,-21.10807 -13.27858,-10.08839 -26.1763,-20.76134 -37.86306,-32.78044 -10.88439,-11.43963 -21.69964,-23.06508 -30.39569,-36.40281 -7.60391,-11.9742 -14.71719,-24.27097 -20.66697,-37.21377 -5.05564,-10.52572 -10.25957,-20.98594 -14.87429,-31.72673 -2.99918,-7.71966 -5.93823,-15.50782 -7.3568,-23.72993 -0.89836,-4.88478 -1.65154,-9.84292 -1.14854,-14.82733 0.30051,-2.46987 3.70086,-2.03334 3.40037,0.43654 z"
       inkscape:connector-curvature="0" />
    <path
       style="fill:#000000;fill-opacity:1;fill-rule:nonzero;stroke:none"
       id="path3848"
       d="m 350.58567,293.31814 c 2.99033,0 5.98066,0 8.97099,0 2.95592,0 2.95592,4.18031 0,4.18031 l 0,0 c -2.99033,0 -5.98066,0 -8.97099,0 -2.95592,0 -2.95592,-4.18031 0,-4.18031 z"
       inkscape:connector-curvature="0" />
    <path
       style="fill:#000000;fill-opacity:1;fill-rule:nonzero;stroke:none"
       id="path3850"
       d="m 605.56036,516.69649 c 1.20667,2.61144 1.84748,5.42854 2.33088,8.25009 0.0468,0.31424 0.0936,0.62848 0.14038,0.94272 0.43387,2.92391 -3.70116,3.53749 -4.13503,0.61358 l 0,0 c -0.042,-0.2845 -0.0841,-0.569 -0.12615,-0.85351 -0.41019,-2.41745 -0.94004,-4.83589 -1.94906,-7.08339 -1.32193,-2.64386 2.41705,-4.51335 3.73898,-1.86949 z"
       inkscape:connector-curvature="0" />
    <path
       style="fill:#000000;fill-opacity:1;fill-rule:nonzero;stroke:none"
       id="path3860"
       d="m 662.42525,544.72554 c -1.57529,-0.32637 -2.91518,0.36926 -4.14269,1.24003 -1.61517,1.35185 -2.66235,3.16642 -3.00604,5.19414 -0.1045,1.23804 -0.12961,1.94446 1.27599,2.01371 2.05823,-0.5396 3.67104,-2.13365 5.12158,-3.56357 1.73645,-1.80712 2.52471,-4.09081 3.01258,-6.45614 0.41383,-2.1239 0.4257,-4.24019 0.12597,-6.37102 -0.1154,-0.73973 -0.29794,-1.46592 -0.39788,-2.20787 -0.14599,-0.49629 0.20888,0.36897 0.33691,0.49583 0.0971,0.0188 0.19752,-0.007 0.29299,-0.0277 0.20993,0.0224 -0.84273,0.0579 -0.63189,0.0457 0.36026,-0.0209 0.44726,-0.12485 0.14629,0.22966 -0.83611,1.45019 -1.0548,3.1628 -1.26958,4.783 -0.39141,3.07147 -0.30453,6.16064 0.32977,9.19093 0.39664,1.38735 1.04819,2.85679 2.54396,3.37891 0.37907,0.1169 0.77088,0.17641 1.16728,0.1929 1.55698,0.0835 1.43438,2.20517 -0.12259,2.12165 l 0,0 c -0.64942,-0.0392 -1.29022,-0.13891 -1.9041,-0.35762 -2.14208,-0.93652 -3.29708,-2.74309 -3.84743,-4.92101 -0.6654,-3.25948 -0.78439,-6.57612 -0.35399,-9.87828 0.27345,-2.015 0.57725,-4.14603 1.76764,-5.87673 0.26709,-0.30158 0.50337,-0.61644 0.88219,-0.80911 0.19622,-0.0998 0.42371,-0.12799 0.63914,-0.17912 0.0756,-0.0179 0.30274,-0.0373 0.2337,-0.003 -0.0568,0.0286 -0.12539,0.026 -0.18809,0.039 0.22763,-0.0507 0.45578,-0.0641 0.68749,-0.024 0.7188,0.13298 1.4117,0.52288 1.47754,1.3269 0.0979,0.73807 0.29212,1.45861 0.39626,2.19613 0.32804,2.3649 0.31125,4.71953 -0.14978,7.07443 -0.58699,2.76955 -1.55396,5.421 -3.60108,7.52512 -1.96402,1.9183 -4.14665,4.00313 -7.0881,4.16541 -0.37575,-0.0845 -0.76874,-0.11613 -1.12724,-0.25363 -1.83958,-0.70561 -2.14775,-2.55698 -1.9254,-4.23032 0.51772,-2.56815 1.77155,-4.86019 3.89436,-6.54407 1.93247,-1.29963 4.04709,-2.17904 6.41048,-1.41132 1.39477,0.67196 0.40852,2.57255 -0.98624,1.90059 z"
       inkscape:connector-curvature="0" />
    <path
       style="fill:#000000;fill-opacity:1;fill-rule:nonzero;stroke:none"
       id="path3862"
       d="m 651.62251,557.29386 c 3.09774,0.79379 6.34408,0.87024 9.52951,1.01295 3.17733,0.22468 6.34503,0.0703 9.5059,-0.2531 0.64045,-0.0762 1.28383,-0.14003 1.91902,-0.25215 1.53437,-0.2681 1.92787,1.82273 0.3935,2.09083 l 0,0 c -0.68892,0.11948 -1.38516,0.19483 -2.07993,0.2744 -3.27206,0.33394 -6.5523,0.49151 -9.84114,0.26264 -3.42766,-0.15425 -6.92966,-0.2353 -10.2459,-1.16262 -1.44785,-0.55804 -0.62882,-2.53098 0.81904,-1.97295 z"
       inkscape:connector-curvature="0" />
    <path
       style="fill:#000000;fill-opacity:1;fill-rule:nonzero;stroke:none"
       id="path3864"
       d="m 655.2999,571.80646 c -1.19626,-0.3261 -2.23873,-0.3518 -3.22924,0.41195 -1.51466,1.18702 -1.85347,3.0431 -2.1641,4.8011 -0.1597,0.47702 0.11612,3.18034 1.12221,2.54149 2.17769,-1.19642 3.53558,-3.33285 4.65714,-5.41533 1.31408,-2.93981 1.90042,-6.14954 1.92595,-9.34 -0.13349,-1.26688 -0.11826,-2.97889 -0.94406,-4.07457 -0.48995,-0.50564 -0.75433,-0.16425 0.88968,-0.44076 0.50579,-1.03809 -0.25778,1.52093 -0.27217,1.5962 -0.28049,2.39842 -0.23795,4.82258 -0.25578,7.23285 -0.033,3.43283 -0.22413,6.92526 0.99904,10.20086 0.44907,0.82907 1.21837,1.92225 2.26346,1.29862 0.36106,-0.33645 0.17572,-0.15457 0.55269,-0.54876 1.08815,-1.07626 2.66779,0.40653 1.57964,1.48278 l 0,0 c -0.76845,0.73626 -0.33236,0.37927 -1.33034,1.04541 -0.31566,0.0995 -0.61871,0.24998 -0.947,0.29856 -2.01984,0.29895 -3.41735,-1.31244 -4.19945,-2.87327 -1.25759,-3.52733 -1.2148,-7.22538 -1.12329,-10.91936 0.0188,-2.53575 -0.0295,-5.088 0.29342,-7.60891 0.17577,-0.89198 0.38056,-1.81509 0.79709,-2.62273 1.6629,-0.42365 1.61956,-0.45884 2.65172,0.77765 0.89166,1.57091 1.21479,3.40495 1.25053,5.17936 -0.0525,3.52719 -0.68262,7.06541 -2.17863,10.30395 -1.20615,2.19092 -2.96984,5.11285 -5.44593,6.19125 -0.41325,0.17998 -0.87284,0.23767 -1.30926,0.3565 -0.41661,-0.0717 -0.86144,-0.0532 -1.24983,-0.2152 -1.86558,-0.77808 -2.01298,-3.16871 -1.89999,-4.8081 0.42233,-2.32866 1.02116,-4.65965 3.0656,-6.17566 1.69221,-1.07743 3.0779,-1.25164 5.03577,-0.73736 1.51283,0.36442 0.97796,2.4259 -0.53487,2.06148 z"
       inkscape:connector-curvature="0" />
    <path
       style="fill:#000000;fill-opacity:1;fill-rule:nonzero;stroke:none"
       id="path3866"
       d="m 668.11479,563.99262 c 0.49192,2.58017 0.23217,5.22029 0.14248,7.82436 -0.002,2.84178 -0.51248,5.75962 0.38896,8.51725 0.67442,1.28237 1.14631,1.17098 2.33502,0.56369 1.04445,-0.54592 1.97897,-1.25297 2.99587,-1.844 1.33603,-0.77488 2.47333,1.04568 1.1373,1.82056 l 0,0 c -1.08449,0.6275 -2.0707,1.39834 -3.20263,1.94993 -2.52463,1.05186 -4.21709,0.63066 -5.37727,-1.87769 -0.90682,-3.00575 -0.57156,-6.10698 -0.48135,-9.20023 0.0841,-2.44077 0.33925,-4.9169 -0.10087,-7.33714 -0.30582,-1.47337 1.85667,-1.8901 2.16249,-0.41673 z"
       inkscape:connector-curvature="0" />
    <path
       style="fill:#000000;fill-opacity:1;fill-rule:nonzero;stroke:none"
       id="path3868"
       d="m 662.41904,571.33105 c 1.60389,0.30003 3.23486,0.42351 4.86355,0.51394 1.59373,0.0643 3.17778,0.16148 4.75315,-0.10369 0.61983,-0.11055 1.23956,-0.21865 1.86197,-0.31463 1.53994,-0.23659 1.88718,1.86183 0.34725,2.09842 l 0,0 c -0.61372,0.0939 -1.2243,0.20249 -1.83555,0.31041 -1.74339,0.28491 -3.49205,0.21647 -5.25421,0.13088 -1.76571,-0.0988 -3.53474,-0.23453 -5.27102,-0.57385 -1.51283,-0.36442 -0.97796,-2.42591 0.53486,-2.06148 z"
       inkscape:connector-curvature="0" />
    <path
       style="fill:#000000;fill-opacity:1;fill-rule:nonzero;stroke:none"
       id="path3896"
       d="m 700.06459,549.71025 c -3.19856,-0.12671 -5.75209,0.53767 -8.41164,2.27383 -2.67795,2.21059 -3.95731,5.61296 -4.42827,8.96937 -0.11766,3.55554 2.13637,5.01645 5.19549,5.96697 3.09167,0.54296 6.13879,-0.24011 9.06808,-1.1783 2.81745,-0.89412 4.08193,3.09036 1.26448,3.98448 l 0,0 c -3.78606,1.19199 -7.6926,2.05747 -11.65347,1.15995 -5.48965,-1.91448 -8.11101,-4.46827 -8.00518,-10.57582 0.76047,-4.56108 2.51983,-8.9729 6.3133,-11.85261 3.27688,-2.04838 6.7522,-3.11024 10.65721,-2.92818 2.95593,0 2.95593,4.18031 0,4.18031 z"
       inkscape:connector-curvature="0" />
    <path
       style="fill:#000000;fill-opacity:1;fill-rule:nonzero;stroke:none"
       id="path3898"
       d="m 687.17166,553.05113 c 1.95574,1.09334 4.1405,1.5922 6.33174,1.9471 1.88149,0.28963 3.79024,0.29109 5.68912,0.30431 0.82343,0.003 1.64686,-3.1e-4 2.47028,-0.004 2.9559,-0.0117 2.97241,4.1686 0.0165,4.18027 l 0,0 c -0.83877,0.003 -1.67755,0.007 -2.51633,0.003 -2.11657,-0.0152 -4.24303,-0.0281 -6.33899,-0.35978 -2.60173,-0.4345 -5.19243,-1.04702 -7.52182,-2.33285 -2.64385,-1.32193 -0.77437,-5.06091 1.86949,-3.73898 z"
       inkscape:connector-curvature="0" />
    <path
       style="fill:#000000;fill-opacity:1;fill-rule:nonzero;stroke:none"
       id="path3904"
       d="m 632.39987,555.51308 c 1.69918,0.55787 3.3071,0.72972 5.05189,0.40813 1.10144,-0.28241 2.21978,-0.47531 3.35168,-0.5743 0.14765,-0.01 0.29531,-0.0199 0.44296,-0.0299 2.94937,-0.1968 3.22768,3.97423 0.27831,4.17103 l 0,0 c -0.12147,0.008 -0.24295,0.016 -0.36443,0.0239 -1.00977,0.0842 -2.0007,0.28436 -2.98467,0.52641 -2.3148,0.39352 -4.54299,0.25075 -6.78962,-0.4698 -2.86766,-0.71691 -1.85379,-4.77241 1.01388,-4.05549 z"
       inkscape:connector-curvature="0" />
    <path
       style="fill:#000000;fill-opacity:1;fill-rule:nonzero;stroke:none"
       id="path3914"
       d="m 328.28011,201.07817 c 0.68452,3.84605 1.06208,7.75357 0.94262,11.65833 -0.46733,5.21179 -3.40986,9.10451 -7.58683,11.98639 -3.33637,1.68252 -7.40096,3.28741 -11.22348,2.38861 -0.76125,-0.179 -1.46049,-0.55959 -2.19073,-0.83938 -4.4513,-2.7176 -5.77444,-6.71116 -5.6449,-11.70012 0.75227,-5.51256 4.72424,-9.24306 9.10357,-12.22485 4.99152,-2.97098 10.46995,-3.11779 16.06257,-2.46016 3.33666,0.50684 6.284,1.30696 9.57817,0.35578 0.98055,-0.56098 0.45332,-0.25957 1.58177,-0.90408 2.57021,-1.45998 4.63493,2.17483 2.06473,3.63481 l 0,0 c -1.54329,0.87266 -0.70597,0.43308 -2.52377,1.29599 -3.88058,1.05395 -7.29402,0.47462 -11.19582,-0.2316 -4.58737,-0.55538 -9.09533,-0.60489 -13.23933,1.78113 -3.26912,2.15063 -6.5158,4.89692 -7.25546,8.93294 -0.20572,2.97718 0.51292,5.9128 3.11838,7.67923 3.00655,1.60297 6.59171,0.19046 9.43684,-1.18074 3.11476,-2.00252 5.32945,-4.87938 5.73655,-8.6603 0.14478,-3.57873 -0.26738,-7.16499 -0.864,-10.69215 -0.57971,-2.89852 3.51942,-3.71835 4.09912,-0.81983 z"
       inkscape:connector-curvature="0" />
    <path
       style="fill:#000000;fill-opacity:1;fill-rule:nonzero;stroke:none"
       id="path3916"
       d="m 270.46537,270.62472 c 1.64546,-0.50791 3.34766,-0.70989 5.05498,-0.8244 2.52579,0.0205 3.90619,1.81679 4.69504,4.04787 0.77598,3.03852 -0.23538,5.1093 -2.41464,7.16147 -1.64679,1.30937 -3.53389,1.96713 -5.57631,2.22891 -2.46649,-0.0749 -3.04865,-2.54234 -3.38757,-4.5873 -0.18072,-1.48402 -0.16353,-2.98138 -0.0691,-4.4715 0.0259,-0.32073 0.0442,-0.64367 0.1157,-0.95809 0.79462,0.23983 1.65673,0.31558 2.38389,0.7195 0.01,0.005 -0.0867,0.95499 -0.13716,1.44744 -0.17215,1.68156 -0.35004,3.36256 -0.52555,5.04377 -0.26494,4.49195 -0.45365,8.98769 -0.72495,13.47942 -0.0995,0.71784 -0.19913,4.25181 -0.21664,2.88733 0.68131,1.61395 -1.56433,2.60331 -2.24565,0.98935 l 0,0 c -0.31668,-1.33038 -0.0281,-2.65729 0.0232,-4.0202 0.2736,-4.52839 0.46064,-9.06099 0.73398,-13.58923 0.1752,-1.67814 0.3524,-3.3561 0.52461,-5.03455 0.0286,-0.27951 0.0574,-0.55902 0.084,-0.83874 0.0155,-0.16099 -0.11305,-0.45426 0.0436,-0.48328 0.79382,-0.1474 1.61263,0.0174 2.41895,0.0261 -0.0135,0.1611 -0.024,0.32245 -0.0396,0.48336 -0.0838,1.30269 -0.10375,2.61142 0.0424,3.91009 0.11353,0.74188 0.10622,0.85473 0.30419,1.55559 0.0813,0.28783 0.35054,0.52225 0.35552,0.82199 0.001,0.0655 -0.18894,0.0133 -0.1774,0.0776 0.013,0.0722 0.13621,0.0482 0.20429,0.0723 1.54527,-0.18726 2.97158,-0.64554 4.2393,-1.61052 1.38842,-1.20461 2.22728,-2.60802 1.72426,-4.51023 -0.33918,-1.16419 -0.90651,-2.29099 -2.22828,-2.366 -1.64577,0.10831 -3.27361,0.32754 -4.86213,0.80375 -1.71079,0.25342 -2.05386,-2.20832 -0.34307,-2.46174 z"
       inkscape:connector-curvature="0" />
    <path
       style="fill:#000000;fill-opacity:1;fill-rule:nonzero;stroke:none"
       id="path3920"
       d="m 284.55281,274.77084 c 1.2142,0.48029 2.49253,0.75449 3.77054,0.99396 0.90138,0.27028 1.69008,0.21121 2.5826,0.0354 0.32575,-0.17087 0.6241,-0.38293 0.89201,-0.6361 -0.377,0.74315 -0.15791,-0.20642 -0.1322,-0.46851 -0.2497,-0.16942 -0.35191,-0.70793 -0.67306,-0.84915 -0.46494,-0.32366 -0.76187,-0.78703 -1.22909,-1.10459 -0.33592,-0.0254 -0.77464,0.10592 -1.17081,0.27568 -0.58585,0.26954 -1.12437,0.60439 -1.72757,0.82822 0.0351,-0.002 0.0867,-0.0386 0.10541,-0.008 0.0676,0.10981 -0.19958,0.16393 -0.28649,0.25931 -0.19997,0.21945 -0.34685,0.50058 -0.47427,0.76663 -0.63139,0.99366 -1.0408,2.09664 -1.32249,3.23753 -0.30539,0.96693 -0.21595,1.78042 0.22539,2.66594 0.67915,0.88145 1.65671,1.49132 2.59892,2.0498 0.68674,0.36578 1.43444,0.55931 2.19166,0.70383 0.29374,0.0548 0.5925,0.0725 0.88953,0.10031 0.18801,-0.1022 0.41675,-0.16791 0.61929,-0.26599 1.59364,-0.68583 2.53803,1.60499 0.94438,2.29082 l 0,0 c -0.59433,0.24148 -1.14129,0.45087 -1.79389,0.45265 -0.3753,-0.0345 -0.75218,-0.0603 -1.12269,-0.13309 -1.02981,-0.20016 -2.04213,-0.48541 -2.96773,-0.9995 -1.36329,-0.81467 -2.72879,-1.7279 -3.56943,-3.12841 -0.63185,-1.41916 -0.8438,-2.82081 -0.38271,-4.34411 0.33887,-1.33022 0.80301,-2.62883 1.53486,-3.79432 0.5207,-0.95261 1.1584,-1.82366 2.17771,-2.25319 -0.0361,0.0258 -0.14901,0.0947 -0.10819,0.0777 0.55823,-0.23419 1.03918,-0.68028 1.63472,-0.84064 1.12048,-0.39114 2.30435,-0.64377 3.38705,0.003 0.54579,0.384 0.94411,0.89146 1.46236,1.28879 0.8167,0.80354 1.44463,1.76446 1.48861,2.95996 -0.0695,0.70711 -0.0807,1.48255 -0.61277,2.02372 -0.60837,0.583 -1.31864,1.03664 -2.12276,1.28456 -1.18331,0.23316 -2.31163,0.28294 -3.49096,-0.0314 -1.40801,-0.26576 -2.81506,-0.57259 -4.15377,-1.09952 -1.62369,-0.59555 -0.78785,-2.93633 0.83583,-2.34077 z"
       inkscape:connector-curvature="0" />
    <path
       style="fill:#000000;fill-opacity:1;fill-rule:nonzero;stroke:none"
       id="path3922"
       d="m 304.2077,275.04537 c -1.4067,0.0495 -2.45491,0.57685 -3.43124,1.57675 -0.96607,1.17064 -1.27119,2.60955 -1.29187,4.09573 -0.34413,0.19093 0.6642,1.5057 0.70571,1.14545 0.86024,-0.0872 1.77003,-0.48007 2.45798,-1.01966 0.64816,-0.3961 1.22059,-0.76737 1.52526,-1.47755 0.17354,-0.59975 0.23776,-1.22331 0.30228,-1.84243 0.0712,-0.70342 0.20402,-1.37321 0.0346,-2.0238 -0.10357,-0.37751 -0.22563,-0.74933 -0.36209,-1.11561 0.0712,0.20441 2.37796,-1.1304 2.26316,0.055 -0.17768,0.9058 -0.0345,1.76024 0.1422,2.65345 0.26189,1.44899 0.72281,2.86658 1.32745,4.20379 0.19477,0.87873 0.73607,1.54057 1.12194,2.3229 0.24764,0.46895 -0.0478,0.1073 0.29828,0.26069 0.004,8.6e-4 0.009,10e-4 0.0129,0.002 1.60752,0.639 0.71141,2.95675 -0.89611,2.31776 l 0,0 c -0.0496,-0.0206 -0.0992,-0.041 -0.14879,-0.0616 -0.61849,-0.30121 -1.19611,-0.73541 -1.45717,-1.40955 -0.38038,-0.80133 -0.95503,-1.49779 -1.15344,-2.39022 -0.67913,-1.51657 -1.20425,-3.11817 -1.50309,-4.75925 -0.2109,-1.11984 -0.37924,-2.23912 -0.17591,-3.376 0.0987,-1.01144 2.173,-1.7855 2.44703,-0.72738 0.17443,0.45922 0.32244,0.92867 0.45234,1.40299 0.23614,0.97453 0.16353,1.91128 0.0266,2.8987 -0.0938,0.89475 -0.19577,1.7983 -0.52293,2.64283 -0.52136,1.08511 -1.29939,1.85377 -2.32951,2.45276 -1.26112,0.86768 -2.72161,1.53622 -4.27194,1.44368 -1.98567,-0.5533 -2.49514,-1.62538 -2.7397,-3.64604 0.0603,-2.1507 0.58909,-4.19403 2.0392,-5.83411 1.36226,-1.3077 2.87629,-2.16511 4.78384,-2.25364 1.71079,-0.25342 2.05387,2.20832 0.34308,2.46173 z"
       inkscape:connector-curvature="0" />
    <path
       style="fill:#000000;fill-opacity:1;fill-rule:nonzero;stroke:none"
       id="path3924"
       d="m 314.90183,264.08664 c 0.22694,2.59891 0.0369,5.21498 -0.13711,7.81261 -0.20524,2.77136 -0.47518,5.5374 -0.75354,8.30224 0.0676,0.7175 -0.43538,1.89168 -0.14477,2.44887 0.16257,0.50436 0.29995,1.01688 0.42439,1.53237 0.0191,0.0772 0.0354,0.15495 0.0512,0.2328 0.32918,1.72559 -2.06969,2.20857 -2.39887,0.48298 l 0,0 c -0.009,-0.0382 -0.0163,-0.0765 -0.0257,-0.11441 -0.10343,-0.42972 -0.21799,-0.85677 -0.34889,-1.27861 -0.3777,-1.17494 -0.10894,-2.34101 0.0117,-3.54857 0.27578,-2.73676 0.54284,-5.47476 0.7464,-8.21799 0.16289,-2.42524 0.34231,-4.86599 0.15563,-7.29391 -0.24259,-1.74071 2.17684,-2.0991 2.41942,-0.35839 z"
       inkscape:connector-curvature="0" />
    <path
       style="fill:#000000;fill-opacity:1;fill-rule:nonzero;stroke:none"
       id="path3926"
       d="m 321.04545,272.24951 c -0.92812,1.40147 -2.21424,2.49894 -3.47623,3.57666 -0.68657,0.50106 -1.45306,0.87764 -2.27694,1.06619 -1.14489,0.49467 1.74933,-1.85432 0.31466,0.01 -0.0857,0.11138 -0.21829,0.17521 -0.32745,0.2628 -0.58444,0.31444 -1.22477,0.38536 -1.87153,0.4086 1.33825,-0.39052 1.15719,-0.71742 0.90006,-1.71529 -0.0221,-0.0859 0.16156,0.0667 0.24186,0.10132 0.58538,0.11233 1.14496,0.21893 1.71045,0.41447 1.15368,0.37789 2.09224,1.05337 2.95712,1.89869 0.93791,1.00383 1.55516,2.26483 2.27974,3.4289 0.41585,0.61041 0.79813,1.19781 1.05264,1.89127 -0.029,-0.57476 0.54589,0.90696 0.60032,1.10034 0.0169,0.0737 0.0336,0.14739 0.0505,0.22108 0.38047,1.71444 -2.00318,2.27121 -2.38364,0.55677 l 0,0 c -0.007,-0.0359 -0.0151,-0.0718 -0.0225,-0.10768 -0.0742,-0.30027 -0.37266,-0.61711 -0.62491,-1.19891 0.411,0.71937 -0.68528,-1.06248 -0.73797,-1.12599 -0.62171,-0.99928 -1.1548,-2.08025 -1.91579,-2.974 -0.64417,-0.63955 -1.30431,-1.12134 -2.18338,-1.38565 -0.54677,-0.15739 -1.21539,-0.21789 -1.77991,-0.4445 -1.52271,-0.70343 -2.33615,-2.28099 -0.21519,-3.14721 0.1563,-0.005 0.81747,-0.14427 0.54262,0.0438 -0.53196,1.21673 -0.0497,-0.32175 0.91191,-0.67149 0.43239,-0.10088 0.83654,-0.29563 1.21148,-0.53699 1.06987,-0.91272 2.17643,-1.83046 2.98193,-3.00277 0.92918,-1.48657 2.98941,-0.15659 2.06022,1.32997 z"
       inkscape:connector-curvature="0" />
    <path
       style="fill:#000000;fill-opacity:1;fill-rule:nonzero;stroke:none"
       id="path3928"
       d="m 254.90615,298.84304 c 1.16587,1.06837 1.83628,2.39555 2.20304,3.92397 0.33145,2.02119 0.31051,4.0801 0.32186,6.12299 0.002,1.18706 5.8e-4,2.37415 -0.0109,3.56115 -0.11436,-0.10654 0.0671,0.2708 -0.003,0.23714 -2.11639,-1.01399 -2.28655,-0.55133 -1.58146,-1.9106 0.49825,-0.90663 0.59996,-1.94553 0.68298,-2.96137 0.14499,-1.70967 0.39499,-3.44292 0.82076,-5.10603 0.31453,-1.09138 0.58105,-2.17378 1.23168,-3.10141 0.72776,-0.64752 1.66454,-0.62993 2.57312,-0.62857 1.23248,-0.0724 1.96625,0.56881 2.4606,1.66089 0.26657,1.36697 0.48246,2.74685 0.87364,4.08691 0.51847,1.56652 0.78061,3.19492 0.97369,4.83061 0.047,0.4825 0.10602,0.96542 0.11646,1.45073 -0.002,0.0304 0.002,0.22483 -0.0125,0.22305 -2.84961,-0.36248 -2.62805,-0.0558 -2.32878,-2.22257 0.27759,-1.8079 1.11621,-3.41593 1.94251,-5.01195 0.81123,-1.32716 1.54461,-2.66137 2.81903,-3.57195 0.81276,-0.50718 1.7219,-0.59737 2.65032,-0.61615 1.58804,-0.0638 2.24178,1.41819 2.64112,2.72381 0.36859,1.59667 0.39197,3.2453 0.42398,4.87697 0.0139,1.02937 0.0106,2.05887 0.004,3.08829 -0.001,0.17451 -0.003,0.34901 -0.005,0.52352 -0.0224,1.75924 -2.46534,1.72698 -2.44294,-0.0323 l 0,0 c 0.002,-0.16899 0.004,-0.33798 0.005,-0.50698 0.006,-1.0077 0.009,-2.0155 -0.004,-3.02317 -0.0273,-1.40963 -0.0409,-2.83291 -0.32358,-4.21874 -0.0643,-0.24113 -0.26949,-0.64977 -0.28862,-0.90662 -0.007,-0.09 0.5427,-0.0607 0.30095,-0.0364 -0.0885,0.009 -0.17777,-4.3e-4 -0.26665,-6e-4 -0.46889,0.008 -0.94126,-0.009 -1.3683,0.21785 -0.99544,0.48018 -1.28841,1.85979 -1.98449,2.6431 -0.70222,1.35604 -1.44941,2.7104 -1.69153,4.24697 -0.3853,1.9486 0.81659,1.11765 -2.50553,1.50204 -0.0242,0.003 -0.006,0.10628 -0.008,0.14451 -0.0119,-0.40043 -0.0609,-0.79893 -0.0994,-1.19726 -0.17609,-1.50125 -0.4124,-2.99566 -0.89389,-4.43198 -0.35787,-1.2755 -0.64592,-2.57937 -0.81064,-3.89555 0.31304,0.0211 0.43686,-0.11337 -0.18304,-0.0589 -0.23539,-5.9e-4 -1.14449,0.18066 -0.79541,-0.14693 0.37185,-0.95628 -0.64322,2.01879 -0.64541,2.03786 -0.4205,1.50746 -0.59507,3.11454 -0.74507,4.66909 -0.11758,1.36774 -0.30576,2.74516 -0.98274,3.95979 -0.21849,0.35238 -2.50703,5.12735 -2.9929,0.43798 0.0116,-1.17404 0.0133,-2.34817 0.0109,-3.52226 -0.0102,-1.8616 0.0102,-3.73625 -0.26033,-5.58193 -0.21672,-1.08443 -0.73091,-1.97547 -1.54903,-2.71961 -1.22157,-1.24408 0.50599,-3.00347 1.72757,-1.7594 z"
       inkscape:connector-curvature="0" />
    <path
       style="fill:#000000;fill-opacity:1;fill-rule:nonzero;stroke:none"
       id="path3932"
       d="m 280.08368,301.78244 c -0.37209,1.93939 -0.48184,3.91699 -0.59081,5.88593 0.085,1.1439 0.21898,2.49002 0.95201,3.42495 0.54384,0.31612 1.16747,0.33443 1.77981,0.37089 0.80483,-0.35303 1.15284,-1.38036 1.50061,-2.12178 0.76499,-2.01175 1.17468,-4.14959 1.68304,-6.24236 0.17905,-0.74796 0.36068,-1.49534 0.53187,-2.24523 2.68155,0.39244 2.43175,-0.26828 2.42507,1.44289 0.28752,1.95143 0.51239,3.90369 0.87335,5.84306 0.52549,1.15718 0.39844,3.11655 1.49259,3.95428 0.29793,0.23486 0.63476,0.22503 0.99719,0.23075 0.0836,-4.5e-4 0.16729,-0.001 0.25093,-0.001 1.72756,-0.005 1.73438,2.48323 0.007,2.48814 l 0,0 c -0.10963,1e-4 -0.21925,2e-4 -0.32887,3e-4 -1.00158,-0.0376 -1.93275,-0.26149 -2.68404,-0.98998 -1.27392,-1.46786 -1.66215,-3.36028 -2.13509,-5.21911 -0.38911,-2.09384 -0.64909,-4.20286 -0.91601,-6.316 0.006,-1.62995 -0.28245,-0.99195 2.42866,-1.01301 0.0481,-3.7e-4 -0.0788,0.14844 -0.031,0.14362 -0.17386,0.7612 -0.35799,1.51993 -0.53987,2.27917 -0.54887,2.25941 -0.98792,4.57008 -1.85528,6.72816 -0.81863,1.70663 -1.79169,3.39394 -3.8544,3.52163 -1.38993,-0.0948 -2.69229,-0.33457 -3.65327,-1.46632 -0.9201,-1.49202 -1.36612,-3.1865 -1.36344,-4.95291 0.11791,-2.12476 0.23982,-4.25957 0.65988,-6.34918 0.419,-1.70686 2.7892,-1.1034 2.3702,0.60346 z"
       inkscape:connector-curvature="0" />
    <path
       style="fill:#000000;fill-opacity:1;fill-rule:nonzero;stroke:none"
       id="path3934"
       d="m 301.55122,301.57362 c -0.82515,0.21924 -1.87999,0.18914 -2.48682,0.75517 -0.22474,0.55223 -0.0218,0.28215 0.2602,0.56397 1.08891,0.84223 2.30321,1.48764 3.53605,2.08065 1.524,0.69271 2.54566,1.7994 3.12493,3.37386 0.51545,1.68383 -0.18986,3.01982 -1.38562,4.14435 -1.50507,1.06371 -3.15989,1.72543 -4.97847,1.90312 -2.1512,-0.10584 -3.46345,-1.59056 -4.54241,-3.32236 -0.10893,-0.19836 -0.21786,-0.39671 -0.32678,-0.59507 -0.83933,-1.53779 1.2961,-2.74664 2.13542,-1.20885 l 0,0 c 0.0868,0.16022 0.17357,0.32044 0.26035,0.48067 0.5593,0.91938 1.17691,1.93726 2.2925,2.16429 1.29763,-0.0463 2.44417,-0.64821 3.5526,-1.29614 0.48,-0.37512 0.87312,-0.77854 0.69426,-1.4256 -0.31947,-0.9662 -0.93354,-1.55783 -1.87196,-1.9693 -1.5355,-0.74154 -3.07016,-1.54574 -4.34436,-2.70859 -0.98936,-1.25268 -1.21079,-2.60338 -0.16566,-3.91185 1.0777,-0.98699 2.35901,-1.24947 3.76663,-1.46815 1.69402,-0.34505 2.17316,2.09478 0.47914,2.43983 z"
       inkscape:connector-curvature="0" />
    <path
       style="fill:#000000;fill-opacity:1;fill-rule:nonzero;stroke:none"
       id="path3936"
       d="m 312.87277,299.8398 c 1.04224,0 2.08449,0 3.12673,0 1.11783,0.004 0.86557,-0.16831 0.0741,2.48815 -0.0398,0.13362 -0.27421,0 -0.41131,0 -0.16672,0 -0.33345,0 -0.50018,0 -1.01084,0.29039 -1.57284,1.25981 -2.06866,2.12347 -0.38286,0.88071 -1.20855,2.42363 -0.18336,3.16255 1.05556,0.49795 2.25478,0.50296 3.39569,0.54461 0.23158,0.004 0.46316,0.008 0.69474,0.0116 1.72732,0.0295 1.68634,2.51732 -0.041,2.48781 l 0,0 c -0.24796,-0.004 -0.49592,-0.009 -0.74389,-0.013 -1.81594,-0.07 -3.68578,-0.14982 -5.14591,-1.39457 -1.61515,-2.13259 -1.17301,-3.80118 -0.0705,-6.08052 0.97818,-1.626 2.17335,-3.11966 4.16286,-3.33014 0.16672,0 0.33345,0 0.50018,0 0.1371,0 0.3715,-0.13362 0.41131,0 0.79148,2.65646 1.04374,2.48472 -0.0741,2.48815 -1.04224,0 -2.08448,0 -3.12672,0 -1.72757,0 -1.72757,-2.48815 0,-2.48815 z"
       inkscape:connector-curvature="0" />
    <path
       style="fill:#000000;fill-opacity:1;fill-rule:nonzero;stroke:none"
       id="path3938"
       d="m 325.00863,290.79793 c 0,3.19348 0,6.38695 0,9.58043 -0.0685,3.18788 0.29811,6.36197 0.58501,9.53115 0.0648,0.7359 0.0752,0.84699 0.13309,1.52578 0.0181,0.21188 0.18007,0.80937 0.0604,0.63509 -0.84214,-1.2258 -0.006,-0.86813 -1.71805,-0.87297 -0.0638,0.043 -0.12757,0.086 -0.19135,0.12894 0.76306,-1.57846 2.95497,-0.47945 2.1919,1.09901 l 0,0 c -0.15829,0.23847 -0.31658,0.47695 -0.47487,0.71542 -0.50124,0.0769 -1.0235,0.39601 -1.50373,0.23076 -1.08604,-0.37373 -0.77968,-2.44777 -0.93017,-3.23361 -0.29374,-3.24512 -0.6648,-6.49532 -0.59532,-9.75957 0,-3.19348 0,-6.38695 0,-9.58043 0,-1.75939 2.44314,-1.75939 2.44314,0 z"
       inkscape:connector-curvature="0" />
    <path
       style="fill:#000000;fill-opacity:1;fill-rule:nonzero;stroke:none"
       id="path3940"
       d="m 330.17368,300.80554 c 1.42053,0.35916 2.8543,0.51995 4.28531,0.15523 0.695,-0.2016 1.57402,-0.49101 1.89812,-1.20612 0.0872,-0.50181 0.11419,-0.56387 -0.27101,-0.83458 -0.94381,-0.50738 -2.05225,-0.67678 -3.10615,-0.59205 -1.45949,0.27409 -1.70729,1.5424 -1.9917,2.84051 -0.34565,2.05135 0.12237,4.15138 1.06407,5.97453 1.22476,1.83983 3.07627,2.91699 5.08071,3.65947 1.18097,0.40755 2.38835,0.47198 3.51849,-0.0533 0.11535,-0.0605 0.23071,-0.12107 0.34606,-0.1816 1.53938,-0.79853 2.64824,1.41859 1.10886,2.21711 l 0,0 c -0.15565,0.08 -0.31131,0.16009 -0.46696,0.24014 -1.73611,0.76536 -3.5616,0.73382 -5.35446,0.11111 -2.58227,-0.98703 -4.9163,-2.43701 -6.41489,-4.87404 -1.14269,-2.38596 -1.76498,-5.00676 -1.26075,-7.66039 0.57242,-2.40725 1.60804,-4.40674 4.24946,-4.75864 1.76496,-0.0582 3.55898,0.20326 4.98567,1.34974 0.99951,1.16713 1.27162,2.36217 0.6327,3.7985 -0.77894,1.30193 -2.03549,2.0445 -3.48227,2.39714 -1.81597,0.38694 -3.61637,0.3209 -5.41381,-0.1689 -1.67599,-0.42672 -1.08344,-2.84058 0.59255,-2.41386 z"
       inkscape:connector-curvature="0" />
    <path
       style="fill:#000000;fill-opacity:1;fill-rule:nonzero;stroke:none"
       id="path3942"
       d="m 264.48903,321.2767 c 0.27359,-0.0696 0.65405,-0.15605 0.92899,-0.2597 0.0316,-0.0119 0.10676,-0.0822 0.0844,-0.0566 -0.19851,0.22814 -0.60077,0.36183 -0.61501,0.66631 -0.0764,1.63288 1.02869,1.27253 0.43594,1.44979 -1.0981,0.15348 -1.76156,0.60445 -2.49361,1.41496 -0.0916,0.0271 -1.45527,2.31702 -0.67009,1.86685 1.36932,0.57452 2.77133,1.02075 4.07774,1.73874 1.58952,0.95709 2.64801,2.41379 3.04209,4.23511 0.2264,2.681 -2.01644,3.6992 -4.1752,4.28063 -1.78304,0.37953 -3.60774,0.46999 -5.42398,0.50741 -0.79308,0.0621 -0.99392,-0.0722 -1.7884,-0.46523 -1.22934,-1.23611 0.48717,-3.00668 1.71651,-1.77057 l 0,0 c -1.42599,-0.49929 -0.44833,-0.16982 0.0231,-0.25185 1.62819,-0.0327 3.26405,-0.10768 4.86555,-0.42983 0.79121,-0.19842 2.33342,-0.37024 2.37695,-1.43541 -0.0548,-1.07335 -1.00123,-1.93764 -1.81819,-2.49246 -1.55546,-0.90532 -3.44124,-1.12907 -4.81029,-2.37035 -0.20773,-0.34763 -0.48888,-0.65964 -0.62319,-1.0429 -0.52083,-1.48618 0.65209,-2.96976 1.43078,-4.07808 1.28408,-1.36083 2.73713,-2.19809 4.63928,-2.16663 2.93263,0.62271 1.23244,3.02351 -0.61081,3.0736 -1.67599,0.42672 -2.26854,-1.98714 -0.59255,-2.41386 z"
       inkscape:connector-curvature="0" />
    <path
       style="fill:#000000;fill-opacity:1;fill-rule:nonzero;stroke:none"
       id="path3944"
       d="m 274.63638,314.3841 c 0.66272,2.78231 1.00678,5.61122 1.24751,8.4599 0.14139,2.91878 0.24662,5.8201 0.67915,8.71085 0.12832,0.77532 0.24291,1.55419 0.40641,2.323 0.007,0.0263 -0.018,-0.0512 -0.0262,-0.0771 0.61614,1.64369 -1.66634,2.53109 -2.28248,0.8874 l 0,0 c -0.0306,-0.0944 -0.0617,-0.18806 -0.0797,-0.28605 -0.17263,-0.81876 -0.29907,-1.64694 -0.43342,-2.47278 -0.4397,-2.94452 -0.56162,-5.89944 -0.69804,-8.87264 -0.22806,-2.71687 -0.54977,-5.41579 -1.1835,-8.06909 -0.419,-1.70686 1.9512,-2.31032 2.3702,-0.60347 z"
       inkscape:connector-curvature="0" />
    <path
       style="fill:#000000;fill-opacity:1;fill-rule:nonzero;stroke:none"
       id="path3946"
       d="m 270.78227,324.79266 c 1.6994,0.29531 3.46912,0.077 5.18708,-1.1e-4 1.70774,-0.0787 3.417,-0.11095 5.12624,-0.12919 0.7015,-0.0554 1.2555,-0.24803 1.71198,-0.78942 0.12843,-0.29941 -0.0524,0.29105 -0.0584,0.33447 0.0563,-1.75846 2.49814,-1.67738 2.44184,0.0811 l 0,0 c -0.0603,0.49517 -0.25855,0.90596 -0.59234,1.27669 -0.94289,1.00456 -2.10645,1.51512 -3.47752,1.58521 -1.68188,0.0179 -3.3638,0.0495 -5.0442,0.12691 -1.9528,0.0876 -3.95888,0.32446 -5.88721,-0.0718 -1.67599,-0.42671 -1.08344,-2.84058 0.59255,-2.41386 z"
       inkscape:connector-curvature="0" />
    <path
       style="fill:#000000;fill-opacity:1;fill-rule:nonzero;stroke:none"
       id="path3948"
       d="m 287.66651,325.99548 c 0.40226,2.02072 0.53904,4.07628 0.87663,6.10921 0.19267,1.10286 0.39044,2.20513 0.61762,3.30125 0.34598,0.8873 -2.36053,1.33532 -2.36427,-0.23093 -0.40447,-1.52356 -0.59285,-3.09198 -0.57381,-4.66632 0.294,-2.26361 1.391,-4.22741 3.17749,-5.57821 1.66189,-0.91928 3.44932,-1.13048 5.27658,-0.72305 0.56751,0.15114 1.10982,0.36996 1.54927,0.77071 0.12103,0.28677 0.24206,0.57355 0.36309,0.86033 0.19347,1.74832 -2.23431,2.02698 -2.42778,0.27866 l 0,0 c 0.11215,0.20657 0.2243,0.41314 0.33645,0.61971 0.34573,0.29141 -0.21795,-0.15296 -0.36524,-0.10377 -1.1496,-0.28567 -2.2667,-0.16844 -3.34886,0.34817 -1.21717,0.70906 -1.82388,2.24715 -2.11846,3.58343 -0.057,1.56221 0.30555,3.07543 0.57441,4.6043 0.003,1.30281 -2.39538,2.00525 -2.4694,0.75056 -0.23376,-1.12907 -0.43812,-2.26428 -0.63609,-3.40034 -0.32648,-1.96992 -0.47395,-3.95847 -0.83783,-5.92024 -0.41899,-1.70686 1.95121,-2.31033 2.3702,-0.60347 z"
       inkscape:connector-curvature="0" />
    <path
       style="fill:#000000;fill-opacity:1;fill-rule:nonzero;stroke:none"
       id="path3950"
       d="m 299.5357,328.3036 c 1.14146,0.39149 2.48716,1.19903 3.71486,0.82729 0.83489,-0.27769 1.02269,-1.05216 1.24545,-1.82828 0.17367,-0.69328 0.11757,-1.23986 -0.46032,-1.59483 -0.62349,-0.24628 -0.98735,0.12457 -1.48018,0.49931 -0.83839,0.84291 -1.57809,1.73767 -2.08942,2.82454 -0.55199,1.58409 -0.6121,3.13581 -0.0102,4.70068 0.70963,1.5024 2.21477,1.99808 3.70897,2.32845 1.0596,0.0293 2.11721,0.002 3.01503,-0.61657 1.4585,-0.94293 2.76789,1.15771 1.30938,2.10064 l 0,0 c -1.48241,0.92851 -3.1426,1.12688 -4.86212,0.94307 -2.3276,-0.5502 -4.45167,-1.5465 -5.46835,-3.90818 -0.75507,-2.2369 -0.75601,-4.43674 0.11855,-6.65359 0.71699,-1.43868 1.67516,-2.68017 2.86599,-3.74942 1.37569,-0.96259 2.80841,-1.42074 4.34111,-0.47242 1.36993,1.09577 1.8016,2.59674 1.34966,4.32016 -0.51557,1.68989 -1.34818,3.09605 -3.14432,3.55406 -1.83866,0.26498 -3.56999,-0.27694 -5.24668,-1.04944 -1.54518,-0.78682 -0.45257,-3.01229 1.09261,-2.22547 z"
       inkscape:connector-curvature="0" />
    <path
       style="fill:#000000;fill-opacity:1;fill-rule:nonzero;stroke:none"
       id="path3960"
       d="m 318.02335,325.98531 c -0.9662,-0.58382 -2.05134,-0.88761 -3.06494,-1.36085 -0.15748,-0.27951 -2.02525,-0.87115 -0.9659,-0.63411 -0.35236,0.18108 -0.67841,0.34858 -0.80786,0.74841 -0.14773,0.36662 -1.22642,1.66151 -0.90277,2.07837 0.15343,0.5026 0.5122,0.95863 0.85614,1.35232 0.4579,0.54392 1.27603,0.50088 1.9271,0.5627 0.77266,0.0637 1.54757,0.0842 2.32243,0.0828 1.09836,-0.0258 1.95101,0.73789 2.63255,1.51875 0.63671,0.64127 1.07534,1.44489 1.61075,2.16946 0.69231,0.85535 0.8473,0.98306 0.80324,2.24875 -0.48973,1.49456 -1.9529,1.8818 -3.31288,2.13462 -1.23289,0.19408 -2.48317,0.21023 -3.72793,0.22121 -0.65231,0.0473 -1.24242,-0.0132 -1.87525,-0.16855 -1.63639,-0.56404 -0.85316,-2.92086 0.78323,-2.35683 l 0,0 c -0.28949,0.11133 0.98088,6e-4 1.07112,0.0373 1.11033,-0.01 2.22583,-0.019 3.3266,-0.18385 0.38298,-0.0645 1.20226,-0.0989 1.39791,-0.40868 0.16653,1.2967 0.31893,0.73862 -0.41944,-0.0296 -0.51259,-0.69603 -0.93347,-1.46523 -1.5425,-2.08116 -0.2619,-0.43186 -0.63918,-0.64028 -0.74341,-0.61331 -0.85521,10e-4 -1.71048,-0.0224 -2.56311,-0.0945 -1.30015,-0.13319 -2.6539,-0.31117 -3.53664,-1.40954 -0.71661,-0.85546 -1.36447,-1.81706 -1.45304,-2.9724 0.0802,-1.21269 0.49793,-2.28273 1.19924,-3.27592 0.5977,-1.01078 1.39143,-1.72603 2.53954,-2.01239 0.9619,0.0105 1.63491,0.29434 2.42468,0.83647 1.01109,0.5122 2.14765,0.76279 3.11375,1.38503 1.54519,0.78681 0.45258,3.01228 -1.09261,2.22546 z"
       inkscape:connector-curvature="0" />
    <path
       style="fill:#000000;fill-opacity:1;fill-rule:nonzero;stroke:none"
       id="path3964"
       d="m 331.30352,324.51995 c -1.02716,-0.27447 -2.03503,-0.54331 -3.09125,-0.37571 -0.80329,0.10563 -1.35626,0.59372 -1.84085,1.21212 -0.28446,0.3493 -0.46514,0.63841 -0.48941,1.07096 0.0961,-0.51453 0.33871,0.17579 0.73882,0.39582 0.51487,0.22018 0.91866,0.60006 1.35845,0.94006 0.49863,0.28387 0.94276,0.65899 1.47043,0.91867 0.53637,0.11756 1.08885,0.1138 1.63515,0.12627 0.8803,-0.0603 1.65105,0.42602 2.47252,0.64902 0.956,0.18537 1.54058,0.8607 1.93882,1.69796 0.34386,0.16471 0.65765,1.09601 0.79664,1.56569 0.32544,1.18567 -0.10092,2.21647 -0.81634,3.1416 -0.69762,0.57011 -1.43803,1.08722 -2.21295,1.54817 -0.93117,0.47915 -1.96725,0.48705 -2.98571,0.51549 -1.15153,-0.12737 -2.26045,-0.47055 -3.21536,-1.14216 -0.10276,-0.0871 -0.20553,-0.17413 -0.30828,-0.2612 -1.31649,-1.13924 0.2655,-3.03533 1.58199,-1.89608 l 0,0 c 0.0497,0.0449 0.0994,0.0897 0.14909,0.13459 0.49607,0.3937 1.12774,0.50255 1.72661,0.6776 0.60881,-0.0165 1.23331,0.003 1.82167,-0.17807 0.52609,-0.31127 1.00326,-0.71391 1.55022,-0.97166 0.32658,-0.37643 0.46638,-0.47184 0.3492,-0.92414 -0.0625,-0.53783 -0.54624,-0.88611 -0.73613,-1.3688 0.22474,0.27072 0.0469,-0.13516 -0.31661,-0.14831 -0.61955,-0.18934 -1.21881,-0.54567 -1.85103,-0.5522 -0.89669,-0.0211 -1.80969,-0.0259 -2.65318,-0.37876 -0.67368,-0.33851 -1.23681,-0.81034 -1.885,-1.18045 -0.68884,-0.54307 -0.31464,-0.36642 -1.30544,-0.89974 -0.8716,-0.69145 -1.69145,-1.46459 -1.73322,-2.67059 0.11112,-0.91342 0.44225,-1.68523 1.03254,-2.39077 0.89516,-1.08689 1.97132,-1.89366 3.38689,-2.09496 1.3775,-0.18402 2.69252,0.0372 4.02427,0.42572 1.67598,0.42671 1.08343,2.84058 -0.59255,2.41386 z"
       inkscape:connector-curvature="0" />
    <path
       inkscape:connector-curvature="0"
       d="m 517.70575,399.85913 c 1.77262,-0.71177 3.64328,-1.10789 5.52963,-1.41258 2.81231,-0.25095 4.55306,1.48928 5.68535,3.75069 1.21013,3.11201 0.32136,5.3991 -1.86885,7.79263 -1.68261,1.55484 -3.70695,2.45029 -5.94928,2.94601 -2.75254,0.18742 -3.68186,-2.3449 -4.29235,-4.4591 -0.37046,-1.54132 -0.52224,-3.11802 -0.58729,-4.69545 -0.008,-0.34012 -0.0242,-0.68174 0.0194,-1.02015 0.91141,0.16649 1.87916,0.15313 2.73425,0.49948 0.0106,0.004 0.0125,1.01376 0.0126,1.53715 4.3e-4,1.78715 -0.005,3.57433 -0.008,5.36148 0.21801,4.753 0.52125,9.50173 0.73215,14.25518 -0.0287,0.76573 0.26381,4.49332 0.0886,3.06011 0.94219,1.62396 -1.44319,2.90685 -2.38538,1.28289 l 0,0 c -0.50418,-1.36505 -0.33465,-2.79176 -0.43304,-4.23075 -0.21254,-4.79223 -0.52184,-9.57956 -0.73464,-14.37164 0.003,-1.78389 0.009,-3.56779 0.008,-5.35168 -3e-5,-0.29707 2e-5,-0.59415 -0.002,-0.89121 -10e-4,-0.17101 -0.17763,-0.46557 -0.007,-0.51299 0.86631,-0.2407 1.79606,-0.15573 2.69409,-0.2336 0.003,0.17088 0.0101,0.34172 0.011,0.51263 0.0554,1.37914 0.18266,2.75775 0.49353,4.10785 0.21099,0.76802 0.21573,0.8875 0.51598,1.60326 0.12331,0.29395 0.4496,0.51146 0.48935,0.82616 0.009,0.0687 -0.20868,0.0344 -0.18849,0.10072 0.0227,0.0746 0.15702,0.036 0.23553,0.054 1.69774,-0.3637 3.23223,-0.99961 4.53243,-2.15134 1.40713,-1.41677 2.18018,-2.98333 1.40342,-4.9297 -0.51023,-1.18783 -1.27001,-2.31171 -2.74907,-2.24797 -1.81856,0.29152 -3.60454,0.69776 -5.31743,1.37004 -1.87434,0.45114 -2.53702,-2.10096 -0.66268,-2.55211 z"
       id="path3966"
       style="fill:#000000;fill-opacity:1;fill-rule:nonzero;stroke:none" />
    <path
       inkscape:connector-curvature="0"
       d="m 533.85148,402.69956 c 1.40564,0.37411 2.8591,0.52455 4.30824,0.6385 1.03365,0.187 1.90434,0.0398 2.8772,-0.24148 0.3429,-0.21486 0.65062,-0.4701 0.91977,-0.76528 -0.33458,0.8223 -0.19924,-0.20005 -0.20055,-0.47848 -0.29714,-0.15125 -0.47231,-0.70659 -0.84572,-0.82046 -0.5542,-0.29024 -0.93742,-0.74554 -1.49346,-1.02912 -0.37662,0.01 -0.84972,0.195 -1.27107,0.4163 -0.62101,0.34671 -1.18189,0.757 -1.8274,1.0575 0.0388,-0.007 0.0921,-0.05 0.11631,-0.0201 0.0878,0.10821 -0.20332,0.19396 -0.28911,0.30365 -0.19743,0.2524 -0.32874,0.56393 -0.44013,0.85749 -0.589,1.11321 -0.91857,2.31746 -1.10172,3.54778 -0.22938,1.04992 -0.037,1.89586 0.55505,2.77958 0.85618,0.85377 2.01336,1.38971 3.12532,1.87541 0.80577,0.31059 1.65968,0.43346 2.51859,0.50374 0.33305,0.0259 0.66744,0.0123 1.00107,0.009 0.19749,-0.12779 0.44447,-0.22158 0.6586,-0.34659 1.69466,-0.8933 3.0068,1.41415 1.31213,2.30745 l 0,0 c -0.63363,0.3181 -1.21823,0.59735 -1.94405,0.66965 -0.42147,0.004 -0.84369,0.0177 -1.2642,-0.0189 -1.16853,-0.0994 -2.3273,-0.29015 -3.41573,-0.73096 -1.60968,-0.70971 -3.23305,-1.52284 -4.32814,-2.90511 -0.86494,-1.4244 -1.26073,-2.87572 -0.92166,-4.52761 0.22517,-1.43563 0.59329,-2.85152 1.27444,-4.1563 0.47054,-1.05809 1.08056,-2.04304 2.16553,-2.60479 -0.0372,0.0311 -0.15496,0.11572 -0.11154,0.0933 0.59431,-0.30655 1.07845,-0.82763 1.72269,-1.06056 1.2019,-0.53229 2.49013,-0.92575 3.76851,-0.3621 0.65102,0.34497 1.15208,0.8357 1.77401,1.19767 1.0003,0.75699 1.80858,1.69987 1.99396,2.95249 0.003,0.75121 0.0794,1.56799 -0.4507,2.19457 -0.61026,0.67882 -1.34867,1.23259 -2.21496,1.58011 -1.28985,0.37292 -2.53942,0.54704 -3.88731,0.34375 -1.59678,-0.12757 -3.19717,-0.29843 -4.74665,-0.70817 -1.87435,-0.45115 -1.21166,-3.00326 0.66268,-2.5521 z"
       id="path3968"
       style="fill:#000000;fill-opacity:1;fill-rule:nonzero;stroke:none" />
    <path
       inkscape:connector-curvature="0"
       d="m 555.74914,400.86725 c -1.55932,0.2039 -2.66527,0.87162 -3.63731,2.02862 -0.94115,1.33547 -1.11635,2.88178 -0.9697,4.44709 -0.36106,0.23795 0.91081,1.51194 0.91585,1.12857 0.94709,-0.18453 1.91438,-0.69592 2.61816,-1.33768 0.67586,-0.48654 1.27031,-0.9388 1.5282,-1.7186 0.1246,-0.64952 0.12487,-1.31227 0.12597,-1.9704 -0.001,-0.7475 0.0703,-1.46629 -0.19251,-2.13226 -0.15832,-0.38587 -0.33656,-0.76375 -0.53018,-1.13426 0.10253,0.2073 2.51648,-1.4455 2.52407,-0.18643 -0.0943,0.97185 0.1625,1.85506 0.46108,2.77542 0.45677,1.49571 1.13135,2.93691 1.95666,4.27807 0.317,0.90318 0.99475,1.54085 1.51334,2.32204 0.32903,0.46648 -0.0409,0.118 0.3616,0.24199 0.005,4.7e-4 0.01,6.3e-4 0.0146,10e-4 1.86133,0.49859 1.12896,3.03298 -0.73237,2.53439 l 0,0 c -0.0575,-0.0162 -0.11504,-0.0325 -0.17256,-0.0487 -0.72246,-0.25005 -1.41463,-0.64439 -1.78202,-1.32523 -0.51464,-0.80175 -1.23346,-1.47224 -1.55606,-2.38945 -0.92865,-1.52175 -1.69567,-3.14957 -2.21546,-4.84331 -0.36246,-1.15504 -0.67752,-2.31407 -0.58108,-3.53173 -0.006,-1.07443 2.21368,-2.11239 2.63933,-1.02908 0.24647,0.46415 0.46472,0.94193 0.66338,1.42677 0.37395,0.99949 0.40011,1.99254 0.36046,3.04584 -0.003,0.95118 -0.0125,1.91249 -0.28008,2.83602 -0.45615,1.19752 -1.23398,2.08991 -2.31164,2.83107 -1.30396,1.04867 -2.85246,1.90942 -4.58779,1.97939 -2.27223,-0.36765 -2.9614,-1.44023 -3.46414,-3.53906 -0.17844,-2.2685 0.17662,-4.47464 1.60268,-6.35608 1.36626,-1.52237 2.95277,-2.58753 5.06483,-2.8865 1.87435,-0.45115 2.53703,2.10096 0.66268,2.5521 z"
       id="path3970"
       style="fill:#000000;fill-opacity:1;fill-rule:nonzero;stroke:none" />
    <path
       inkscape:connector-curvature="0"
       d="m 566.39556,388.18738 c 0.54914,2.70891 0.63632,5.48087 0.73927,8.2317 0.088,2.93692 0.10345,5.87522 0.10939,8.81317 0.15716,0.74733 -0.26843,2.03656 0.11848,2.59122 0.23843,0.51291 0.44977,1.03714 0.64706,1.56587 0.0301,0.079 0.057,0.15915 0.0836,0.23933 0.56318,1.77936 -2.05045,2.54619 -2.61365,0.76683 l 0,0 c -0.0139,-0.0392 -0.0269,-0.0787 -0.0416,-0.11755 -0.16412,-0.4408 -0.34032,-0.87758 -0.53409,-1.30713 -0.55431,-1.19498 -0.38842,-2.4504 -0.39204,-3.73346 -0.006,-2.90815 -0.0211,-5.81666 -0.10764,-8.72381 -0.0956,-2.56832 -0.17462,-5.15473 -0.65945,-7.68814 -0.46859,-1.80461 2.18214,-2.44264 2.65072,-0.63803 z"
       id="path3972"
       style="fill:#000000;fill-opacity:1;fill-rule:nonzero;stroke:none" />
    <path
       inkscape:connector-curvature="0"
       d="m 574.1622,396.10968 c -0.87258,1.57416 -2.17811,2.86721 -3.45908,4.13688 -0.70662,0.60108 -1.51636,1.07986 -2.41142,1.36708 -1.21723,0.64382 1.73448,-2.13906 0.35116,-0.0239 -0.0827,0.12639 -0.22286,0.20783 -0.33429,0.31174 -0.61432,0.39378 -1.31859,0.53747 -2.03547,0.6317 1.44425,-0.55514 1.20549,-0.87942 0.80554,-1.90118 -0.0344,-0.0879 0.18735,0.0528 0.28062,0.0805 0.66407,0.055 1.29878,0.10669 1.95022,0.25133 1.32662,0.27294 2.44789,0.8821 3.50657,1.67784 1.15802,0.95455 1.98867,2.21419 2.92764,3.36032 0.53233,0.59711 1.02467,1.17366 1.38697,1.87554 -0.0979,-0.60138 0.71084,0.89497 0.79346,1.09249 0.0271,0.0757 0.0543,0.15138 0.0814,0.22708 0.61898,1.76209 -1.96929,2.6049 -2.58828,0.8428 l 0,0 c -0.0124,-0.0369 -0.0249,-0.0739 -0.0373,-0.11081 -0.11683,-0.30781 -0.48503,-0.60883 -0.83208,-1.19353 0.53936,0.71225 -0.88366,-1.0435 -0.94953,-1.1046 -0.80573,-0.9839 -1.52219,-2.06329 -2.47082,-2.92117 -0.78965,-0.60313 -1.57906,-1.03861 -2.58721,-1.22173 -0.62625,-0.10653 -1.37701,-0.098 -2.03091,-0.27543 -1.77434,-0.5755 -2.85937,-2.14693 -0.59865,-3.28685 0.17337,-0.0216 0.89298,-0.23995 0.60867,-0.0125 -0.45293,1.3371 -0.0921,-0.33303 0.93786,-0.80464 0.46952,-0.15275 0.89691,-0.4012 1.28649,-0.69551 1.08605,-1.07541 2.21236,-2.16004 2.97467,-3.47995 0.86403,-1.66377 3.30788,-0.4873 2.44385,1.17646 z"
       id="path3974"
       style="fill:#000000;fill-opacity:1;fill-rule:nonzero;stroke:none" />
    <path
       style="fill:#000000;fill-opacity:1;fill-rule:nonzero;stroke:none"
       id="path3976"
       d="m 592.74692,398.02683 c -0.85127,-0.2465 -1.5692,-0.46783 -2.42441,-0.26929 0.20167,0.0694 0.0624,0.44693 0.0269,0.7311 -0.11738,0.66133 0.0121,0.95394 0.47891,1.35727 1.14627,0.66154 2.41493,1.08917 3.69475,1.44343 1.53897,0.40497 2.77885,1.21904 3.95197,2.22002 1.05122,0.98131 1.61206,2.1124 1.67442,3.50149 -0.28713,1.52534 -1.52107,2.37166 -2.92401,2.91173 -1.37273,0.38368 -2.80743,0.47944 -4.22907,0.5274 -1.4243,0.15281 -2.64286,-0.28586 -3.86311,-0.93955 -1.25488,-0.88354 -1.83297,-1.40085 -2.22718,-2.8316 0.0738,-1.85879 2.80408,-1.75836 2.73032,0.10043 l 0,0 c -0.637,-1.58181 0.23701,0.14837 0.82615,0.43283 0.80667,0.43287 1.47429,0.75056 2.43952,0.6088 1.12824,-0.0369 2.26463,-0.10631 3.36541,-0.36198 0.5324,-0.16483 1.07658,-0.49451 1.15649,-0.63385 0.32985,0.45371 -0.51034,-1.35892 -0.76248,-1.34807 -0.86615,-0.74091 -1.7388,-1.37235 -2.89707,-1.66043 -1.71001,-0.47803 -3.43843,-1.05968 -4.86724,-2.10963 -1.01143,-1.01917 -1.48487,-2.13986 -1.25664,-3.56214 0.19177,-1.32985 0.67947,-2.4489 2.08001,-2.95325 1.2819,-0.26793 2.44863,-0.10978 3.6891,0.28319 1.87435,0.45115 1.21167,3.00326 -0.66267,2.5521 z"
       inkscape:connector-curvature="0" />
    <path
       style="fill:#000000;fill-opacity:1;fill-rule:nonzero;stroke:none"
       id="path3978"
       d="m 605.89182,385.72269 c 0.5486,2.80928 0.62594,5.67726 0.72512,8.52638 0.0939,3.3674 0.1039,6.73623 0.10927,10.10461 6.6e-4,1.49083 3.4e-4,2.98166 -0.004,4.47248 -10e-5,0.13255 -6.5e-4,0.2651 -0.002,0.39765 -0.0478,1.85958 -2.77923,1.79455 -2.73147,-0.065 l 0,0 c 8e-5,-0.0155 10e-4,-0.28829 10e-4,-0.34009 0.005,-1.48698 0.005,-2.97397 0.004,-4.46095 -0.005,-3.34042 -0.0151,-6.68128 -0.10775,-10.02074 -0.0937,-2.70542 -0.16039,-5.42958 -0.67359,-8.09839 -0.3789,-1.82402 2.30034,-2.33994 2.67924,-0.51591 z"
       inkscape:connector-curvature="0" />
    <path
       style="fill:#000000;fill-opacity:1;fill-rule:nonzero;stroke:none"
       id="path3980"
       d="m 599.52336,395.54035 c 2.21482,-0.34476 4.44591,-0.55975 6.68271,-0.7146 1.91533,-0.23586 3.7896,-0.0273 5.65357,0.39812 0.47414,0.12192 0.95503,0.23717 1.40138,0.43769 0.0535,0.0298 0.10704,0.0597 0.16057,0.0896 1.61729,1.01761 0.12258,3.21971 -1.49472,2.20212 l 0,0 c 0.042,0.0226 0.084,0.0452 0.12603,0.0678 -0.0126,-0.004 -0.67439,-0.22142 -0.82696,-0.2383 -1.59629,-0.3689 -3.18116,-0.55154 -4.82441,-0.33313 -2.30283,0.1586 -4.59221,0.41326 -6.87817,0.72133 -1.93203,0 -1.93203,-2.63064 0,-2.63064 z"
       inkscape:connector-curvature="0" />
    <path
       style="fill:#000000;fill-opacity:1;fill-rule:nonzero;stroke:none"
       id="path3982"
       d="m 616.80677,403.0944 c 0.49522,1.58821 0.7731,3.27943 1.4183,4.81952 0.17677,0.39394 0.44882,0.82741 0.72395,1.1274 -2.59739,-1.71192 -1.77895,2.32704 -2.55285,-0.18469 -0.39155,-1.4765 -0.46855,-3.00608 -0.53441,-4.52199 0.0184,-1.76894 1.00252,-3.1309 2.04703,-4.48771 0.94075,-1.04594 1.97112,-1.56289 3.39725,-1.52056 0.7758,0.27691 1.49307,0.64388 2.15933,1.11393 0.59279,0.43704 1.13043,0.93922 1.6654,1.43948 0.10528,0.098 0.20827,0.19824 0.31094,0.29877 1.34675,1.33374 -0.61234,3.16747 -1.95909,1.83372 l 0,0 c -0.0844,-0.0827 -0.1693,-0.16498 -0.2558,-0.24569 -0.44698,-0.41824 -0.89432,-0.84019 -1.3853,-1.21062 -0.14129,-0.10177 -1.49946,-0.81941 -1.03627,-0.64351 0.76982,-0.1774 -0.50936,0.13199 -0.70159,0.50122 -0.66666,0.86546 -1.41621,1.68732 -1.51195,2.81193 0.0556,1.30203 0.11257,2.61652 0.4259,3.88927 0.27046,0.89668 1.57622,5.18699 -1.95318,2.83117 -0.616,-0.58953 -1.03747,-1.33098 -1.39004,-2.08901 -0.64141,-1.66165 -1.02163,-3.4199 -1.51834,-5.12461 -0.46858,-1.8046 2.18214,-2.44264 2.65072,-0.63802 z"
       inkscape:connector-curvature="0" />
    <path
       style="fill:#000000;fill-opacity:1;fill-rule:nonzero;stroke:none"
       id="path3984"
       d="m 634.39416,400.86726 c -1.60569,0.48348 -2.55017,1.77278 -3.17646,3.20171 -0.23296,-1.01439 -0.82157,3.89067 -0.52354,2.94343 -0.009,-0.0531 -0.0652,-0.11986 -0.0272,-0.15936 0.0406,-0.0422 0.12134,0.0154 0.17924,10e-4 0.33208,-0.0815 1.07969,-0.57464 1.38933,-0.74221 0.9299,-0.71463 1.96598,-1.36679 2.40732,-2.47233 0.24934,-0.82181 0.3172,-1.672 0.33792,-2.52299 -0.009,-0.15336 0.0156,-1.14559 -0.0378,-0.78467 -0.1589,-0.29266 -0.34392,-0.57046 -0.54096,-0.84027 2.70949,-0.77118 2.36735,-1.04243 2.36289,0.7656 -0.0299,1.54645 0.38318,3.08948 1.06696,4.48208 0.5325,0.94464 1.1986,1.68867 2.24464,2.07111 -0.10411,-0.15133 -0.19922,-0.14415 -0.32979,-0.0519 1.19068,-1.46492 3.34243,0.15631 2.15175,1.62123 l 0,0 c -0.73529,0.8324 -1.73409,1.12153 -2.85264,0.86696 -1.68177,-0.684 -2.86714,-1.85033 -3.70127,-3.41868 -0.8068,-1.7556 -1.36185,-3.64037 -1.31195,-5.57725 10e-4,-0.44686 -0.19593,-5.57772 2.58934,-2.29283 0.33559,0.45239 0.63866,0.92877 0.87427,1.43727 0.16948,0.60958 0.26286,1.15677 0.2161,1.78619 -0.0319,1.19614 -0.15152,2.39083 -0.57265,3.52666 -0.78665,1.60037 -2.06881,2.72919 -3.58769,3.70902 -1.75054,0.91187 -3.56741,1.5821 -5.16716,10e-4 -0.95868,-1.87855 -0.38616,-3.53934 0.33967,-5.42545 1.04024,-2.14928 2.53753,-3.9968 5.00703,-4.67771 1.87435,-0.45116 2.53702,2.10095 0.66268,2.5521 z"
       inkscape:connector-curvature="0" />
    <path
       style="fill:#000000;fill-opacity:1;fill-rule:nonzero;stroke:none"
       id="path3986"
       d="m 645.04609,397.56388 c 0.88887,1.81091 1.27232,3.77941 1.53228,5.75085 0.1252,1.07899 0.21158,2.16199 0.22757,3.24764 0.003,0.28389 0.001,0.56783 -0.009,0.85156 -6.5e-4,0.0143 -0.002,0.0287 -0.003,0.043 -0.1141,1.8569 -2.84164,1.70154 -2.72754,-0.15536 l 0,0 c 5e-5,1.4e-4 1.1e-4,2.8e-4 1.6e-4,4.1e-4 0.007,-0.23442 0.01,-0.46895 0.007,-0.70349 -0.0136,-0.9881 -0.0945,-1.97361 -0.20649,-2.95577 -0.2164,-1.67697 -0.52429,-3.35571 -1.26516,-4.90242 -0.86403,-1.66377 1.57982,-2.84023 2.44385,-1.17646 z"
       inkscape:connector-curvature="0" />
    <path
       style="fill:#000000;fill-opacity:1;fill-rule:nonzero;stroke:none"
       id="path3988"
       d="m 642.06154,388.44594 c 1.39917,-0.2775 2.81247,-0.48413 4.22538,-0.68481 1.22989,-0.16952 1.11726,-0.29888 1.59762,2.26078 0.0494,0.2632 -1.50657,1.05465 -1.67365,1.14502 -0.84337,0.43492 -1.73446,0.70343 -2.67835,0.82851 -0.80178,0.16627 -1.52174,-0.17565 -2.12566,-0.66417 -0.21933,-0.18314 -0.42531,-0.38002 -0.62166,-0.58564 -0.77303,-0.7793 0.54894,-2.2289 1.56459,-2.22549 0.12056,1.7e-4 0.24109,0.003 0.36162,0.004 1.9315,0.0438 1.86718,2.67371 -0.0643,2.62991 l 0,0 c -0.10237,-0.002 -0.20475,-0.003 -0.30715,-0.004 -1.30503,-0.004 1.18132,-1.38285 0.48519,-2.15526 0.11244,0.11597 0.22941,0.22784 0.35312,0.33285 0.52354,0.44037 -0.90129,0.004 -0.008,0.0597 0.6175,-0.0762 1.18807,-0.24853 1.7411,-0.53505 0.28756,-0.13877 0.86099,-0.52378 0.87128,-0.51157 1.80963,2.1471 2.11054,1.84552 0.90321,2.02219 -1.367,0.19409 -2.73456,0.39317 -4.08822,0.66187 -1.89451,0.36481 -2.43036,-2.21475 -0.53584,-2.57956 z"
       inkscape:connector-curvature="0" />
    <path
       style="fill:#000000;fill-opacity:1;fill-rule:nonzero;stroke:none"
       id="path3992"
       d="m 652.25858,395.62636 c 0,2.12858 0,4.25716 0,6.38574 0,1.54203 0,3.08405 0,4.62608 0,0.89474 0,1.78948 0,2.68422 0,0.22781 0,0.45562 0,0.68343 -3.20475,-0.0866 -2.7323,0.11424 -2.7323,-1.92813 0.19242,-2.14733 0.90253,-4.18285 1.77237,-6.15281 0.77071,-1.97794 1.56626,-3.91097 2.70808,-5.71791 0.54833,-0.89714 1.01549,-1.75234 2.00573,-2.2425 1.44304,-0.52363 2.37575,0.48786 3.10458,1.5033 0.98292,1.27544 1.14493,2.91329 1.47308,4.42645 0.35178,1.95312 0.82876,3.88079 1.55897,5.73338 0.46055,0.70982 0.50797,1.21005 1.25245,0.76409 0.64011,-0.23095 0.32024,-0.10861 0.95941,-0.36759 1.78316,-0.71603 2.83492,1.71191 1.05176,2.42795 l 0,0 c -0.84841,0.33824 -0.40166,0.17284 -1.34257,0.49031 -2.34977,0.42579 -3.48259,-0.3714 -4.47604,-2.38253 -0.77906,-1.98183 -1.30287,-4.03974 -1.67866,-6.12821 -0.25202,-1.16338 -0.32378,-2.47363 -1.04624,-3.46836 -0.42222,-0.58831 -0.38122,-0.48217 0.2495,-0.59341 0.59312,-0.8602 -0.79186,1.18173 -0.7779,1.2047 -1.07374,1.69823 -1.79486,3.52643 -2.52942,5.38356 -0.73303,1.64391 -1.33203,3.33357 -1.5528,5.11958 0,2.04237 0.47244,1.84152 -2.7323,1.92813 0,-0.22781 0,-0.45562 0,-0.68343 0,-0.89474 0,-1.78948 0,-2.68422 0,-1.54203 0,-3.08405 0,-4.62608 0,-2.12858 0,-4.25716 0,-6.38574 0,-1.86016 2.7323,-1.86016 2.7323,0 z"
       inkscape:connector-curvature="0" />
    <path
       style="fill:#000000;fill-opacity:1;fill-rule:nonzero;stroke:none"
       id="path3994"
       d="m 673.65344,393.53979 c 0.69232,1.60376 1.34783,3.22818 1.89242,4.88471 0.48168,1.71294 1.03706,3.39943 1.38428,5.14526 0.17308,0.88198 0.27182,1.77214 0.30032,2.66853 0.007,0.23825 0.007,0.47657 -0.007,0.71457 -0.003,0.023 -0.005,0.0461 -0.007,0.0691 -0.9083,-0.15161 -1.86323,-0.13941 -2.72491,-0.45484 -0.17572,-0.0643 0.0155,-0.36269 -6.5e-4,-0.54301 -0.0677,-0.74221 -0.27939,-1.50988 -0.39755,-2.24534 -0.54102,-2.38336 -0.17905,-4.5271 0.86358,-6.71498 0.90346,-1.76883 2.28898,-2.98875 4.1018,-3.84836 1.46753,-0.64861 3.07469,-0.76222 4.66397,-0.82599 1.64292,-0.1465 2.7699,0.61177 3.33783,2.051 0.14738,0.5433 0.20257,1.10248 0.20854,1.66221 0.0117,1.86012 -2.72055,1.87605 -2.73225,0.0159 l 0,0 c 6.5e-4,-0.29823 -0.0276,-0.5959 -0.0829,-0.88945 0.0667,-0.23547 0.004,0.076 0.21562,-0.0785 0.15555,-0.11344 -1.3543,-0.23712 -0.83573,-0.13275 -1.21952,0.0464 -2.46572,0.095 -3.60087,0.57286 -1.26167,0.54605 -2.16489,1.38633 -2.79819,2.58165 -0.84372,1.7199 -1.09366,3.31471 -0.64098,5.20555 0.13981,0.87637 0.35122,1.75744 0.42944,2.64161 0.0158,0.17779 0.17995,0.48907 6.6e-4,0.5353 -0.88049,0.22739 -2.67522,-0.70565 -2.72595,0.21237 0.002,-0.0922 0.007,-0.32735 6.6e-4,-0.45047 -0.0227,-0.75823 -0.10734,-1.5104 -0.25362,-2.25654 -0.32095,-1.64597 -0.8606,-3.23068 -1.30628,-4.8463 -0.49502,-1.526 -1.11126,-3.01515 -1.72988,-4.49765 -0.86403,-1.66377 1.57981,-2.84023 2.44385,-1.17646 z"
       inkscape:connector-curvature="0" />
    <path
       style="fill:#000000;fill-opacity:1;fill-rule:nonzero;stroke:none"
       id="path3996"
       d="m 694.24725,395.09471 c -1.42154,0.54431 -1.88541,1.90463 -2.39449,3.19543 -0.61494,1.84642 -0.80682,3.79554 -0.93659,5.72208 -0.0681,-0.0297 0.16343,0.88943 0.22909,0.64077 0.015,-0.0566 -0.0326,-0.12693 10e-4,-0.17532 0.11663,-0.16578 0.38763,-0.14579 0.58525,-0.20817 1.45004,-0.29519 2.46488,-1.13309 3.10735,-2.38769 0.53254,-1.36143 0.57939,-2.83231 0.62329,-4.27001 0.01,-0.66296 0.018,-1.32667 -0.01,-1.98937 0.12838,-0.10289 1.90596,1.11459 0.82246,1.14396 -0.10983,0.003 -0.21964,0.006 -0.32945,0.01 -0.45064,0.003 -0.9013,0.001 -1.35194,0.001 -0.17145,-2e-5 -0.3429,-8e-5 -0.51435,-1.3e-4 -0.6459,0.007 0.92982,-0.66056 1.35776,-1.18643 0.12267,-0.15073 -0.31759,-0.81277 0.0881,-0.13655 0.56753,0.98048 0.90627,2.05862 1.33173,3.09878 0.73068,1.81865 1.32751,3.69515 2.24361,5.43791 0.46562,0.84789 0.94421,1.93137 1.89418,2.36864 -0.76519,-0.16813 0.16009,-0.26635 -0.26442,-0.24518 1.50036,-1.17195 3.2218,0.87093 1.72144,2.04288 l 0,0 c -0.91331,0.57578 -1.67546,0.86292 -2.77842,0.50485 -1.4169,-0.7933 -2.33847,-2.0791 -3.01856,-3.49845 -0.93176,-1.82427 -1.60542,-3.75204 -2.34327,-5.65451 -0.36943,-0.91875 -0.66489,-1.87422 -1.15328,-2.74083 -0.78261,-1.30935 -0.46532,-1.26762 0.92237,-2.62176 0.17119,6e-5 0.34238,10e-5 0.51357,1.4e-4 0.41617,6e-5 0.83237,-5.3e-4 1.24854,5.2e-4 0.11852,-0.004 0.23702,-0.008 0.35556,-0.0108 0.8381,-0.0227 2.01168,0.50384 1.9845,1.38054 0.0296,0.72413 0.0234,1.44924 0.0109,2.17366 -0.0588,1.84111 -0.16087,3.71321 -0.94141,5.425 -1.10743,1.92427 -2.70872,3.2813 -5.00172,3.73636 -2.58413,0.36474 -3.95383,-0.44203 -4.06088,-3.01218 0.15079,-2.19367 0.38352,-4.40979 1.11658,-6.50364 0.77075,-1.87341 1.65636,-3.77953 3.71903,-4.59473 1.72806,-0.83189 2.94998,1.52104 1.22193,2.35292 z"
       inkscape:connector-curvature="0" />
    <path
       style="fill:#000000;fill-opacity:1;fill-rule:nonzero;stroke:none"
       id="path3998"
       d="m 706.44109,376.87902 c 1.1832,2.84233 1.3432,5.94713 1.54028,8.96813 0.19612,3.83215 0.20957,7.66996 0.21968,11.50586 -0.11488,2.07369 0.28367,4.11635 0.63354,6.15094 0.0766,0.44046 0.15279,0.881 0.23282,1.3209 0.33328,1.83226 -2.35807,2.28605 -2.69134,0.45379 l 0,0 c -0.0815,-0.44794 -0.15917,-0.8965 -0.23708,-1.34501 -0.37386,-2.1742 -0.78402,-4.35869 -0.67023,-6.57395 -0.01,-3.78342 -0.0227,-7.56871 -0.21437,-11.34851 -0.17239,-2.67193 -0.29621,-5.41576 -1.25715,-7.95569 -0.86403,-1.66377 1.57982,-2.84023 2.44385,-1.17646 z"
       inkscape:connector-curvature="0" />
    <path
       style="fill:#000000;fill-opacity:1;fill-rule:nonzero;stroke:none"
       id="path4000"
       d="m 702.81369,390.63938 c 1.99083,0 3.98167,0 5.9725,0 1.04608,0 2.09216,0 3.13824,0 0.35158,0 0.70317,0 1.05475,0 1.07552,4e-4 0.18566,-0.0659 -0.009,2.63064 -1.93202,0 -1.93202,-2.63064 0,-2.63064 l 0,0 c 0.19439,2.69648 1.08425,2.63024 0.009,2.63064 -0.35158,0 -0.70317,0 -1.05475,0 -1.04608,0 -2.09216,0 -3.13824,0 -1.99083,0 -3.98167,0 -5.9725,0 -1.93203,0 -1.93203,-2.63064 0,-2.63064 z"
       inkscape:connector-curvature="0" />
    <path
       style="fill:#000000;fill-opacity:1;fill-rule:nonzero;stroke:none"
       id="path4002"
       d="m 715.78684,396.04484 c 1.22001,0.32494 2.41647,0.43869 3.52679,-0.23975 0.78698,-0.52827 1.24533,-1.21054 1.50684,-2.07916 0.20185,-0.34632 0.0264,-2.05243 0.23453,-0.79594 0.6002,0.6723 0.005,0.33586 -0.75715,0.32461 -0.61457,-0.0592 -0.67682,0.2955 -1.02645,0.80925 -0.72612,0.95903 -0.85866,2.11179 -0.97399,3.2582 0.19027,1.00472 0.26575,2.08547 0.66878,3.03761 0.33431,0.78445 0.95788,1.37192 1.6409,1.88503 0.72493,0.42181 1.5371,0.55615 2.36465,0.64035 0.73074,0.0605 1.43037,0.10782 2.01947,-0.11873 0.43289,-0.15273 0.73172,-0.52675 1.03212,-0.90379 1.19683,-1.4603 3.34179,0.16922 2.14503,1.62952 l 0,0 c -0.59773,0.71713 -1.2869,1.39204 -2.19686,1.72978 -1.08134,0.39084 -2.1566,0.393 -3.29626,0.27833 -1.35438,-0.14585 -2.66335,-0.44532 -3.79609,-1.21768 -1.04117,-0.83952 -1.99865,-1.77301 -2.48165,-3.02615 -0.47668,-1.34479 -0.74953,-2.77685 -0.81891,-4.19532 0.16669,-1.57173 0.4349,-3.13659 1.41655,-4.45226 0.80474,-1.15564 1.79744,-2.06989 3.34816,-1.98442 1.1216,0.0191 2.2796,0.0122 3.04623,0.93877 0.35269,1.01323 0.37674,1.89051 0.0431,2.93391 -0.5027,1.52818 -1.40077,2.755 -2.82705,3.62598 -1.77318,0.84958 -3.56888,1.03377 -5.48159,0.47396 -1.87435,-0.45116 -1.21166,-3.00326 0.66268,-2.5521 z"
       inkscape:connector-curvature="0" />
    <path
       style="fill:none;stroke:#000000;stroke-width:2.77086616;stroke-linecap:butt;stroke-linejoin:miter;stroke-miterlimit:4;stroke-opacity:1;stroke-dasharray:2.77086614, 8.31259843;stroke-dashoffset:0"
       d="M 355.32602,296.80173 604.75095,523.9317"
       id="path4004"
       inkscape:connector-curvature="0" />
    <path
       style="fill:#000000;fill-opacity:1;fill-rule:nonzero;stroke:none"
       id="path4014"
       d="m 644.60973,415.74147 c 0.98826,2.48754 1.82748,5.02771 2.59896,7.58975 1.33141,4.31131 1.95932,8.73754 2.36732,13.21752 0.34962,6.08652 0.62033,12.19733 0.30871,18.28961 -0.52899,5.78067 -2.6686,11.2061 -5.51863,16.21006 -2.58314,4.2161 -5.55292,8.17643 -8.31795,12.27048 -1.88859,2.18647 -3.15082,4.78746 -4.70733,7.19772 -1.47279,1.94709 -2.93537,3.91369 -4.61581,5.68773 -0.94871,1.1875 -1.81974,2.46439 -2.92233,3.5155 -0.84688,0.7441 -1.68942,1.47403 -2.63648,2.1002 -0.35385,0.42343 -1.07168,0.84054 -1.35065,1.39606 -0.34495,0.76866 -1.0807,1.26132 -1.79186,1.66297 -0.55955,0.45377 0.0252,-0.63041 -0.0423,0.44505 -0.4852,0.72504 -1.10568,1.40383 -1.85292,1.90062 -0.60206,0.24877 -0.69647,0.44359 -0.87557,1.02541 -0.0768,0.58547 -0.49614,1.01804 -0.87472,1.44008 -0.47238,0.64023 -1.20154,0.82946 -1.9471,0.95641 -0.66482,0.1843 0.0771,-0.45135 -0.0124,0.28863 -0.0196,0.12352 -0.0132,0.26026 -0.015,0.38019 -0.74739,0.82573 -0.98555,0.78979 -1.87014,0.78114 -0.0553,-2.8e-4 -0.11044,-0.003 -0.16566,-0.004 0.92401,-0.52615 0.64134,-0.21064 0.63094,0.36018 -0.35809,0.81212 -0.96844,0.96329 -1.76079,1.03467 -0.85251,0.23779 0.79897,-1.24046 0.11427,0.28808 -0.11134,0.12197 -0.22268,0.24395 -0.33402,0.36593 -0.69204,0.70136 -1.68391,-0.27733 -0.99187,-0.97869 l 0,0 c 0.0443,-0.0358 0.0886,-0.0716 0.13293,-0.10732 0.0753,-0.085 0.4905,-1.01883 0.95919,-0.9563 0.3937,-0.0408 0.73014,-0.2927 0.48714,0.32562 0.0132,-0.60992 0.0581,-1.74363 0.94803,-1.72126 0.73752,0.007 1.09616,-0.19023 0.46139,0.72823 -0.008,-0.22499 -0.009,-0.45002 0.0216,-0.67407 0.0921,-0.68842 0.32151,-1.45421 1.16435,-1.48514 0.49457,-0.081 0.8415,-0.0861 1.14055,-0.51327 0.38567,-0.42869 0.49784,-0.37592 0.58356,-0.93161 0.25537,-0.78503 0.64391,-1.44514 1.44188,-1.76969 0.31436,-0.19961 1.35648,-1.52774 1.22398,-0.82532 0.0407,-0.59544 0.10282,-1.30785 0.7512,-1.56878 0.54152,-0.30069 1.08008,-0.63122 1.31888,-1.22784 0.49109,-0.65832 1.15538,-1.21599 1.73732,-1.77858 0.88435,-0.5831 1.6746,-1.25712 2.45811,-1.96033 1.11486,-0.98581 1.88482,-2.33357 2.85755,-3.45154 1.62407,-1.70954 3.02786,-3.61246 4.45666,-5.4854 1.56435,-2.41584 2.8263,-5.02926 4.72285,-7.2212 2.74713,-4.06412 5.69208,-7.99889 8.26263,-12.18157 2.75441,-4.806 4.81042,-10.03477 5.33695,-15.59063 0.31347,-6.02596 0.0348,-12.07114 -0.30484,-18.09167 -0.39815,-4.38712 -1.00843,-8.72092 -2.31405,-12.94255 -0.77537,-2.58421 -1.63569,-5.13899 -2.61634,-7.65292 -0.23897,-0.95589 1.11286,-1.29384 1.35183,-0.33796 z"
       inkscape:connector-curvature="0" />
  </g>
</svg>
