<?xml version="1.0" encoding="UTF-8" standalone="no"?>
<!-- Created with Inkscape (http://www.inkscape.org/) -->

<svg
   xmlns:dc="http://purl.org/dc/elements/1.1/"
   xmlns:cc="http://creativecommons.org/ns#"
   xmlns:rdf="http://www.w3.org/1999/02/22-rdf-syntax-ns#"
   xmlns:svg="http://www.w3.org/2000/svg"
   xmlns="http://www.w3.org/2000/svg"
   xmlns:sodipodi="http://sodipodi.sourceforge.net/DTD/sodipodi-0.dtd"
   xmlns:inkscape="http://www.inkscape.org/namespaces/inkscape"
   width="367.67902"
   height="302.11951"
   id="svg28321"
   version="1.1"
   inkscape:version="0.48.0 r9654"
   sodipodi:docname="Pendulum.svg">
  <defs
     id="defs28323" />
  <sodipodi:namedview
     inkscape:document-units="mm"
     pagecolor="#ffffff"
     bordercolor="#666666"
     borderopacity="1.0"
     inkscape:pageopacity="0.0"
     inkscape:pageshadow="2"
     inkscape:zoom="0.7176508"
     inkscape:cx="189.08004"
     inkscape:cy="47.36247"
     inkscape:current-layer="layer1"
     id="namedview28325"
     showgrid="false"
     fit-margin-top="0"
     fit-margin-left="0"
     fit-margin-right="0"
     fit-margin-bottom="0"
     inkscape:window-width="1280"
     inkscape:window-height="752"
     inkscape:window-x="0"
     inkscape:window-y="0"
     inkscape:window-maximized="1" />
  <metadata
     id="metadata28327">
    <rdf:RDF>
      <cc:Work
         rdf:about="">
        <dc:format>image/svg+xml</dc:format>
        <dc:type
           rdf:resource="http://purl.org/dc/dcmitype/StillImage" />
        <dc:title />
      </cc:Work>
    </rdf:RDF>
  </metadata>
  <g
     inkscape:label="Layer 1"
     inkscape:groupmode="layer"
     id="layer1"
     transform="translate(-337.10105,-117.29021)">
    <path
       style="fill:#000000;fill-opacity:1;fill-rule:nonzero;stroke:none"
       id="path28840"
       d="m 339.35288,164.7129 c 7.89194,0.13174 15.78389,0.26348 23.67583,0.39523 8.39571,0.24501 16.79499,-0.0206 25.18892,-0.20903 2.95518,-0.0663 3.04898,4.11292 0.0938,4.17926 l 0,0 c -8.44844,0.1896 -16.90226,0.45529 -25.35249,0.20949 -7.89194,-0.13174 -15.78389,-0.26348 -23.67583,-0.39522 -2.95552,-0.0493 -2.88575,-4.22907 0.0698,-4.17973 z"
       inkscape:connector-curvature="0" />
    <path
       style="fill:#000000;fill-opacity:1;fill-rule:nonzero;stroke:none"
       id="path28842"
       d="m 341.46033,164.58878 c 2.93865,-2.32971 4.96659,-5.72564 6.8857,-8.90675 1.4958,-2.6965 0.79615,-1.34905 2.10551,-4.03895 1.29724,-2.65607 5.05348,-0.82151 3.75625,1.83456 l 0,0 c -1.43587,2.93102 -0.67518,1.47417 -2.28542,4.36881 -2.21862,3.65532 -4.57799,7.49652 -8.01003,10.12798 -2.39401,1.73383 -4.84603,-1.65181 -2.45201,-3.38565 z"
       inkscape:connector-curvature="0" />
    <path
       inkscape:connector-curvature="0"
       d="m 351.86609,164.83976 c 2.93865,-2.3297 4.9666,-5.72564 6.8857,-8.90675 1.4958,-2.6965 0.79615,-1.34905 2.10551,-4.03895 1.29724,-2.65607 5.05348,-0.82151 3.75625,1.83456 l 0,0 c -1.43587,2.93103 -0.67518,1.47418 -2.28542,4.36882 -2.21862,3.65531 -4.57799,7.49652 -8.01003,10.12797 -2.39401,1.73384 -4.84603,-1.6518 -2.45201,-3.38565 z"
       id="path28848"
       style="fill:#000000;fill-opacity:1;fill-rule:nonzero;stroke:none" />
    <path
       inkscape:connector-curvature="0"
       d="m 363.38447,164.7084 c 2.93866,-2.32971 4.9666,-5.72564 6.8857,-8.90675 1.49581,-2.6965 0.79615,-1.34905 2.10552,-4.03895 1.29723,-2.65607 5.05348,-0.82151 3.75624,1.83456 l 0,0 c -1.43587,2.93102 -0.67517,1.47417 -2.28541,4.36881 -2.21862,3.65532 -4.57799,7.49652 -8.01003,10.12798 -2.39402,1.73383 -4.84603,-1.65181 -2.45202,-3.38565 z"
       id="path28850"
       style="fill:#000000;fill-opacity:1;fill-rule:nonzero;stroke:none" />
    <path
       style="fill:#000000;fill-opacity:1;fill-rule:nonzero;stroke:none"
       id="path28852"
       d="m 373.79023,164.95938 c 2.93866,-2.3297 4.9666,-5.72564 6.88571,-8.90675 1.4958,-2.6965 0.79614,-1.34905 2.10551,-4.03895 1.29723,-2.65607 5.05348,-0.82151 3.75625,1.83456 l 0,0 c -1.43588,2.93102 -0.67518,1.47418 -2.28542,4.36882 -2.21862,3.65531 -4.57799,7.49652 -8.01003,10.12797 -2.39402,1.73384 -4.84603,-1.6518 -2.45202,-3.38565 z"
       inkscape:connector-curvature="0" />
    <path
       style="fill:#000000;fill-opacity:1;fill-rule:nonzero;stroke:none"
       id="path28892"
       d="m 343.48028,170.48457 c -0.78832,5.51702 0.0462,10.9489 1.75182,16.19786 2.70647,6.56692 5.80653,10.00615 12.23182,12.89286 7.60176,1.81536 11.91262,-1.02819 17.00346,-6.42297 5.0707,-6.88843 6.67891,-15.12026 7.15765,-23.46739 0.17284,-2.95087 4.34599,-2.70645 4.17316,0.24443 l 0,0 c -0.5671,9.49904 -2.44252,18.36145 -8.32127,26.12428 -1.06055,1.08099 -2.02461,2.26595 -3.18166,3.24297 -5.29282,4.46923 -11.93532,6.15131 -18.57418,4.07834 -7.85526,-3.6646 -11.09931,-7.40423 -14.46974,-15.41637 -1.8413,-5.81266 -2.79566,-11.80998 -1.92861,-17.90956 0.30797,-2.93984 4.46553,-2.50429 4.15755,0.43555 z"
       inkscape:connector-curvature="0" />
    <path
       style="fill:#000000;fill-opacity:1;fill-rule:nonzero;stroke:none"
       id="path28898"
       d="m 362.87789,179.44142 c 8.68249,18.44034 17.95255,36.59319 27.17516,54.76675 19.46376,38.14769 38.06913,76.7238 56.87643,115.19696 3.54384,7.14275 7.08769,14.2855 10.63153,21.42827 1.31375,2.64792 -2.43098,4.50585 -3.74473,1.85793 l 0,0 c -3.54747,-7.15011 -7.09493,-14.30021 -10.64239,-21.45032 -18.79817,-38.45447 -37.39435,-77.0119 -56.84861,-115.14109 -9.22263,-18.17364 -18.49395,-36.32605 -27.1753,-54.76702 -1.33747,-2.63603 2.39044,-4.5275 3.72791,-1.89148 z"
       inkscape:connector-curvature="0"
       inkscape:transform-center-x="-48.948279"
       inkscape:transform-center-y="98.335537" />
    <path
       style="fill:#000000;fill-opacity:1;fill-rule:nonzero;stroke:none"
       id="path28906"
       d="m 358.15808,177.2622 c -0.0171,6.3e-4 -0.0676,0.008 -0.0514,0.002 0.81379,-0.28386 1.65591,-0.42936 2.50949,-0.53244 1.2964,-0.149 2.71608,0.0547 3.69089,1.0026 0.28187,0.2741 0.48393,0.61832 0.72589,0.92749 0.76475,1.49901 0.67496,2.93168 0.21604,4.49395 -0.63911,1.39176 -1.77912,2.57879 -3.35493,2.88561 -0.35258,0.0686 -0.71693,0.0498 -1.0754,0.0747 -0.34661,-0.07 -0.70891,-0.0864 -1.03982,-0.21008 -1.60596,-0.60046 -2.33325,-1.84147 -2.77902,-3.37902 -0.16227,-0.91574 -0.32103,-1.88129 -0.19529,-2.8141 0.0362,-0.26858 0.10912,-0.53106 0.16368,-0.79658 0.12447,-0.2866 0.2126,-0.59148 0.37341,-0.85979 0.66252,-1.10537 1.83328,-1.82984 3.13245,-1.91496 0.33473,-0.0219 0.66947,0.0437 1.00421,0.0655 2.02884,0.51226 3.01505,1.49272 3.90625,3.32323 0.54094,1.39207 0.67355,2.9515 0.017,4.33905 -0.15493,0.32741 -0.36839,0.62447 -0.55258,0.93671 -1.31994,1.62751 -3.01808,2.11728 -5.0326,2.28404 -1.73172,4.3e-4 -3.43106,-0.6051 -4.51046,-2.00606 -0.20801,-0.26999 -0.35955,-0.57828 -0.53933,-0.86742 -0.62272,-1.44339 -0.77317,-3.0851 -0.12053,-4.55497 0.13878,-0.31256 0.33354,-0.59776 0.50031,-0.89663 1.2929,-1.67712 2.9754,-2.1931 5.0078,-2.34548 1.73105,0.0749 3.29431,0.8107 4.36691,2.17793 0.19767,0.25196 0.35551,0.53216 0.53326,0.79824 0.71371,1.3181 0.99001,2.7945 0.57164,4.25431 -0.0777,0.27109 -0.20262,0.5267 -0.30393,0.79005 -0.19834,0.30309 -0.35823,0.63449 -0.59501,0.90925 -0.90185,1.04651 -2.30443,1.64428 -3.68209,1.69747 -0.38415,0.0149 -0.76762,-0.0434 -1.15143,-0.0651 -1.59449,-0.30062 -3.13499,-0.99047 -4.15747,-2.28527 -0.2157,-0.27315 -0.37526,-0.58545 -0.56289,-0.87818 -0.65738,-1.39297 -0.97576,-3.01781 -0.32935,-4.4873 0.16413,-0.37311 0.42394,-0.69745 0.63591,-1.04618 0.294,-0.27022 0.5549,-0.58063 0.88199,-0.81066 1.41281,-0.99354 3.18331,-1.08722 4.84298,-1.00041 1.61021,0.21065 3.23204,0.83035 4.29979,2.09854 0.23003,0.27321 0.399,0.59153 0.59851,0.8873 1.03646,2.06094 0.58172,3.70054 -0.4287,5.62112 -0.88507,1.36429 -2.16685,2.44278 -3.762,2.89651 -0.3096,0.0881 -0.63105,0.12852 -0.94657,0.19278 -0.39891,-0.007 -0.80293,0.0409 -1.19672,-0.0225 -1.58651,-0.25564 -2.80443,-1.30961 -3.5356,-2.68215 -0.14796,-0.27774 -0.2497,-0.57725 -0.37454,-0.86588 -0.47691,-1.27478 -0.73714,-2.61218 -0.791,-3.96716 0.14684,-2.04071 1.42635,-3.36258 3.4311,-3.76123 0.32211,-0.0641 0.65294,-0.0731 0.97942,-0.10964 1.37304,-0.0316 2.82523,0.11204 4.06763,0.7454 0.30664,0.15633 0.58899,0.3554 0.88349,0.5331 0.27168,0.26029 0.57506,0.49169 0.81504,0.78086 1.0133,1.22099 1.28743,2.84172 0.87443,4.35111 -0.0966,0.35306 -0.25884,0.68526 -0.38826,1.0279 -1.03607,1.93372 -2.51131,2.93126 -4.52988,3.68203 -1.50366,0.42615 -3.04084,0.32203 -4.33813,-0.61411 -0.78282,-0.56489 -0.92473,-0.98991 -1.40841,-1.79368 -0.60918,-1.45964 -0.87139,-3.00257 -0.89748,-4.57333 0.11499,-1.78955 0.96474,-3.29665 2.5264,-4.24257 0.28015,-0.16968 0.58839,-0.28914 0.88258,-0.43371 1.46557,-0.53243 3.06561,-0.82115 4.61355,-0.45658 0.34994,0.0824 0.68482,0.21808 1.02723,0.32712 1.65636,0.77211 2.83272,2.17479 3.23836,3.9527 0.0786,0.34459 0.10516,0.6988 0.15775,1.04819 0.0677,1.66234 -0.35567,3.31971 -1.38338,4.6601 -0.20557,0.26811 -0.45553,0.49991 -0.68329,0.74986 -1.26188,1.10507 -2.83813,1.70002 -4.52162,1.75338 -0.33102,0.0105 -0.66203,-0.0214 -0.99304,-0.0322 -1.70677,-0.23423 -3.2795,-0.98719 -4.37692,-2.33086 -0.20717,-0.25367 -0.37482,-0.53657 -0.56223,-0.80485 -0.60671,-1.15824 -1.12333,-2.50735 -0.81593,-3.83681 0.0844,-0.36504 0.2555,-0.70502 0.38325,-1.05753 0.22798,-0.31265 0.42543,-0.64947 0.68394,-0.93794 0.89552,-0.9993 2.4723,-1.66112 3.68956,-2.19182 1.17431,-0.42825 2.38836,-1.05078 3.66668,-1.10854 0.38229,-0.0173 0.76482,0.0289 1.14724,0.0434 0.35215,0.10465 0.72269,0.16131 1.05644,0.31393 1.74534,0.7981 2.35379,2.29542 2.70559,4.02849 0.14488,1.18234 0.27591,2.40002 0.0188,3.5783 -0.0581,0.26635 -0.15121,0.52404 -0.22682,0.78606 -0.68538,1.65254 -2.05774,2.92591 -3.97734,2.90354 -0.48738,-0.006 -0.9602,-0.16632 -1.4403,-0.24948 -3.83349,-1.09606 -2.26627,-6.4581 1.56722,-5.36204 l 0,0 c -0.58229,0.0512 -1.46732,0.27924 -1.52359,1.0042 0.29762,-0.30006 0.006,-1.26516 0.0298,-1.66144 -0.0248,-0.20799 -0.0436,-0.30869 -0.0154,-0.3019 0.0504,0.0121 0.0756,0.0705 0.11643,0.10217 0.30701,0.23761 0.62004,0.40624 1.0229,0.40073 0.0976,-0.019 0.20023,-0.021 0.29275,-0.0571 0.0447,-0.0174 -0.0969,-0.01 -0.14416,-8.4e-4 -0.13862,0.0258 -0.27424,0.0657 -0.40988,0.10398 -0.3294,0.0929 -0.69398,0.21356 -1.01128,0.33673 -0.21559,0.0837 -0.42728,0.17692 -0.64091,0.26537 -0.64965,0.26604 -0.39264,0.144 -1.07307,0.50076 -0.15915,0.0834 -0.31437,0.17425 -0.47531,0.25426 -0.0445,0.0221 -0.0908,0.0586 -0.14013,0.0517 -0.0236,-0.003 0.0103,-0.0461 0.0155,-0.0691 0.0575,-0.1195 0.11491,-0.23901 0.17236,-0.35852 0.0265,-0.13944 0.0683,-0.27687 0.0794,-0.41832 0.0434,-0.55381 -0.16333,-0.59203 0.0127,-0.0505 -0.0234,0.25316 0.31051,0.43955 0.4868,0.55102 0.39106,0.0536 0.7589,0.0275 1.14688,-0.0315 0.34468,-0.18111 0.44131,-0.5482 0.51144,-0.91089 0.11391,-0.56499 -0.12843,-0.18406 0.23701,-0.3884 -0.0169,-0.27717 -1.16953,-0.0635 -1.31775,-0.023 -0.38238,0.0801 0.13329,-0.28423 -0.1131,-0.44939 -0.004,0.72257 0.11936,1.41976 0.29654,2.11635 -0.30593,-0.24842 -0.70798,-0.51081 -1.12542,-0.42673 -0.0651,0.0131 -0.15113,0.0165 -0.18525,0.0729 -0.0237,0.0392 0.0923,0.003 0.13847,0.004 0.45043,-0.1223 0.84813,-0.32893 1.21697,-0.61121 0.0394,-0.009 0.0951,-0.0694 0.11569,-0.035 0.0532,0.0888 0.0597,0.19898 0.10734,0.29075 0.10085,0.19412 0.28438,0.29402 0.47503,0.38175 0.0306,-0.001 0.11366,0.0174 0.0917,-0.004 -0.30427,-0.29111 -1.0451,-0.29165 -1.42847,-0.31328 -0.20524,-0.0817 0.13867,-0.2112 0.22066,-0.30378 0.39231,-0.44295 0.47338,-0.60056 0.59357,-1.18126 0.0188,-0.0908 -0.004,-0.18541 -0.006,-0.27811 -0.11843,0.34571 0.29555,1.61002 0.40271,1.99973 0.0573,0.34306 -0.16505,0.1037 -0.42523,0.0504 -0.30678,-0.0629 -0.35891,-0.021 -0.6344,0.0476 0.15972,0.17324 0.58719,-0.16954 0.68316,-0.28444 0.13807,-0.19131 0.27341,-0.55071 0.30315,-0.49555 0.0477,0.0885 0.0421,0.3928 0.1824,0.38037 0.58764,0.41262 -0.10693,-0.27612 -0.41869,-0.2209 -0.27303,-0.0333 -0.39119,-0.0597 -0.66372,-0.0476 -0.34641,0.0154 -0.4513,0.0818 -0.44876,0.0366 0.0101,-0.17926 0.4306,-0.18873 0.32814,-0.42985 0.0435,-0.12309 0.10332,-0.2417 0.13056,-0.36929 0.075,-0.35132 -0.0992,-0.51632 -0.0576,-0.14793 -0.44843,-0.16128 0.34545,0.40174 0.43308,0.35216 -0.0924,0.1161 0.0553,0.0923 0.0403,0.12199 -0.11669,0.23111 -0.42585,0.37985 -0.43,0.68212 0.0624,0.18664 0.15766,0.4777 0.0864,0.0398 0.0774,-0.14245 -0.16285,-0.14153 0.19744,-0.28415 -0.4092,-0.0556 -0.75701,0.29085 -0.49035,-0.26771 0.002,-0.0923 -0.0133,-0.3448 -0.0665,-0.26897 -0.0371,0.0528 0.0188,0.13525 -0.0105,0.1927 -0.0191,0.0375 -0.0672,-0.11004 -0.1089,-0.0656 -0.11529,-0.0938 -0.25648,-0.19763 -0.41754,-0.19828 -0.0102,-4e-5 -0.10167,0.38021 0.15665,0.13118 0.12772,0.006 0.73882,-0.0655 0.75061,-0.0345 0.0219,0.0577 -0.0832,0.12216 -0.0476,0.17884 -0.0189,0.0724 -0.0505,0.14271 -0.0568,0.21726 -0.001,0.0131 0.0293,-0.0166 0.0392,-0.008 0.0203,0.018 0.0243,0.0485 0.0349,0.0734 0.024,0.0571 0.0245,0.21636 0.0687,0.17264 0.0502,-0.0496 -0.0238,-0.13832 -0.0331,-0.20785 -0.005,-0.0362 -0.006,-0.0729 -0.009,-0.10927 -0.03,-0.22682 0.13386,0.0263 0.138,-0.0439 0.002,-0.0346 -0.10444,-0.0679 -0.0706,-0.0769 0.11039,-0.0294 0.2239,0.1015 0.33982,0.046 0.93953,-0.0712 1.55859,-0.46612 1.79544,-1.41275 -0.004,-0.55122 -0.0238,0.71637 0.0324,0.81937 -0.0129,0.12489 -0.1736,-0.13992 -0.22478,-0.17912 -0.36977,-0.28321 -0.80031,-0.43136 -1.27075,-0.41722 -0.57215,0.11639 -0.96645,0.24702 -1.07257,0.85143 0.0634,0.1485 0.0721,-0.23255 0.0734,-0.23402 0.0922,-0.10162 0.0313,0.46725 0.21574,0.36564 0.36024,0.36563 0.38982,0.4787 0.84519,0.66556 0.20852,0.0856 0.98182,0.0682 0.24636,0.0899 -0.60004,0.0656 -1.18639,0.17832 -1.75006,0.40197 -3.87131,0.95724 -5.24002,-4.4577 -1.36871,-5.41493 z"
       inkscape:connector-curvature="0" />
    <path
       style="fill:#000000;fill-opacity:1;fill-rule:nonzero;stroke:none"
       id="path28928"
       d="m 459.62565,372.18994 c -3.52288,-0.78242 -6.08297,1.11903 -8.47157,3.4525 -4.93064,6.72333 -5.9198,13.97161 -5.85725,22.10836 0.60329,6.73035 3.05981,13.20047 9.63796,16.0779 1.19863,0.52431 2.49627,0.78428 3.7444,1.17642 7.13183,1.08767 14.22496,-1.07001 19.32687,-6.28749 0.97316,-0.99522 1.75255,-2.163 2.62883,-3.24449 3.68519,-6.03398 5.31493,-13.18897 3.40276,-20.13778 -0.34691,-1.26067 -0.93574,-2.44191 -1.40361,-3.66286 -3.9791,-6.97626 -9.23629,-9.64354 -17.0196,-10.38426 -5.33348,0.0426 -8.41426,1.46751 -11.85831,5.42924 -1.97923,2.19548 -5.08411,-0.60356 -3.10488,-2.79905 l 0,0 c 0.78016,-0.84234 1.47702,-1.77031 2.34049,-2.52703 3.63158,-3.18266 8.33358,-4.31137 13.05424,-4.26113 1.25392,0.13906 2.52392,0.17342 3.76175,0.41718 7.37715,1.45277 13.29755,6.02891 16.74393,12.66655 0.53609,1.47575 1.21326,2.90765 1.60827,4.42726 2.12178,8.16254 0.12729,16.49572 -4.30043,23.49211 -1.06105,1.26685 -2.00806,2.6387 -3.18315,3.80055 -6.23475,6.16448 -14.77076,8.5367 -23.30434,7.04187 -3.88031,-1.32487 -5.35862,-1.44054 -8.58962,-4.06051 -5.23731,-4.24686 -7.08507,-10.70165 -7.66583,-17.14877 -4.3e-4,-1.72027 -0.11177,-3.44409 -10e-4,-5.16081 0.46168,-7.17352 2.69292,-14.33168 7.16853,-20.00241 4.16766,-3.83761 7.49038,-5.81219 13.21133,-4.15233 2.64386,1.32193 0.77437,5.0609 -1.86948,3.73898 z"
       inkscape:connector-curvature="0" />
    <path
       inkscape:connector-curvature="0"
       d="m 633.80507,277.43634 c -3.52288,-0.78242 -6.08297,1.11903 -8.47157,3.4525 -4.93064,6.72333 -5.9198,13.97161 -5.85725,22.10836 0.60329,6.73035 3.05981,13.20047 9.63796,16.0779 1.19863,0.52431 2.49627,0.78428 3.7444,1.17642 7.13183,1.08767 14.22496,-1.07001 19.32687,-6.28749 0.97316,-0.99522 1.75255,-2.163 2.62883,-3.24449 3.68519,-6.03398 5.31493,-13.18897 3.40276,-20.13778 -0.34691,-1.26067 -0.93574,-2.44191 -1.40361,-3.66286 -3.9791,-6.97626 -9.23629,-9.64354 -17.0196,-10.38426 -5.33348,0.0426 -8.41426,1.46751 -11.85831,5.42924 -1.97923,2.19548 -5.08411,-0.60356 -3.10488,-2.79905 l 0,0 c 0.78016,-0.84234 1.47702,-1.77031 2.34049,-2.52703 3.63158,-3.18266 8.33358,-4.31137 13.05424,-4.26113 1.25392,0.13906 2.52392,0.17342 3.76175,0.41718 7.37715,1.45277 13.29755,6.02891 16.74393,12.66655 0.53609,1.47575 1.21326,2.90765 1.60827,4.42726 2.12178,8.16254 0.12729,16.49572 -4.30043,23.49211 -1.06105,1.26685 -2.00806,2.6387 -3.18315,3.80055 -6.23475,6.16448 -14.77076,8.5367 -23.30434,7.04187 -3.88031,-1.32487 -5.35862,-1.44054 -8.58962,-4.06051 -5.23731,-4.24686 -7.08507,-10.70165 -7.66583,-17.14877 -4.3e-4,-1.72027 -0.11177,-3.44409 -10e-4,-5.16081 0.46168,-7.17352 2.69292,-14.33168 7.16853,-20.00241 4.16766,-3.83761 7.49038,-5.81219 13.21133,-4.15233 2.64386,1.32193 0.77437,5.0609 -1.86948,3.73898 z"
       id="path28930"
       style="fill:#000000;fill-opacity:1;fill-rule:nonzero;stroke:none" />
    <path
       style="fill:#000000;fill-opacity:1;fill-rule:nonzero;stroke:none"
       id="path28932"
       d="m 626.11859,275.84389 c -6.41463,-9.09818 -11.47717,-19.0736 -16.61644,-28.92304 -7.00025,-13.51686 -13.98524,-27.04166 -20.89743,-40.60377 -1.34223,-2.63361 2.38221,-4.53183 3.72447,-1.89821 l 0,0 c 6.90613,13.55034 13.88514,27.06331 20.87924,40.56846 5.05894,9.69867 10.03737,19.52559 16.35235,28.48459 1.67726,2.43397 -1.76491,4.80598 -3.44217,2.372 z"
       inkscape:connector-curvature="0" />
    <path
       style="fill:#000000;fill-opacity:1;fill-rule:nonzero;stroke:none"
       id="path28936"
       d="m 588.64753,224.96693 c -0.35851,-3.43101 -0.8453,-6.86148 -1.47142,-10.25612 -0.67333,-3.44327 -1.10045,-6.93463 -1.87365,-10.35762 -0.22332,-1.48862 -0.22406,-3.01364 0.2427,-4.45354 0.62591,-2.11394 3.38344,-1.16531 4.62094,-0.23206 2.92276,2.416 5.67809,5.0211 8.4468,7.61157 2.59194,2.41834 4.98139,5.03502 7.28981,7.72117 1.92622,2.24214 -1.24465,4.96621 -3.17086,2.72406 l 0,0 c -2.20874,-2.57193 -4.49422,-5.07811 -6.97529,-7.39297 -2.67347,-2.50239 -5.33256,-5.02126 -8.15086,-7.35939 -3.27116,-2.66088 1.00821,0.74023 1.88854,-1.70137 -0.24943,0.67915 -0.15486,1.45887 -0.11355,2.16441 0.78067,3.4784 1.22979,7.02122 1.90692,10.52041 0.6697,3.65893 1.21915,7.35749 1.53992,11.06168 -0.0355,2.95571 -4.21552,2.90548 -4.18,-0.0502 z"
       inkscape:connector-curvature="0" />
    <path
       inkscape:connector-curvature="0"
       d="m 639.2165,324.11411 c 1.33322,11.05202 1.06005,22.2352 0.91418,33.34386 -0.24651,15.21999 -0.51023,30.43974 -0.85573,45.65781 -0.0671,2.95517 -4.24632,2.86028 -4.17922,-0.0949 l 0,0 c 0.34526,-15.20484 0.60863,-30.41134 0.855,-45.61811 0.1451,-10.93782 0.42191,-21.95038 -0.88958,-32.8326 -0.32251,-2.93827 3.83284,-3.39436 4.15534,-0.45608 z"
       id="path28938"
       style="fill:#000000;fill-opacity:1;fill-rule:nonzero;stroke:none" />
    <path
       inkscape:connector-curvature="0"
       d="m 648.08097,386.67582 c -1.31133,3.19073 -2.50947,6.44181 -3.56795,9.72741 -1.03998,3.35082 -2.31953,6.62721 -3.26196,10.00753 -0.50929,1.41651 -1.2318,2.75952 -2.32554,3.80589 -1.55349,1.56434 -3.53143,-0.57846 -4.17841,-1.98693 -1.42759,-3.51306 -2.6181,-7.1132 -3.82732,-10.70682 -1.13522,-3.35824 -1.99812,-6.79509 -2.75674,-10.25467 -0.63266,-2.88743 3.45078,-3.78214 4.08343,-0.8947 l 0,0 c 0.72502,3.31176 1.54878,6.60201 2.63545,9.81658 1.16715,3.4709 2.31381,6.94949 3.68637,10.34446 1.6182,3.89386 -0.53663,-1.12981 -2.4695,0.60237 0.54165,-0.47965 0.82813,-1.21098 1.12633,-1.85174 0.96213,-3.43265 2.24672,-6.76477 3.30987,-10.16662 1.14544,-3.53896 2.41554,-7.05579 3.88964,-10.46914 1.43287,-2.58541 5.0892,-0.55904 3.65633,2.02638 z"
       id="path28940"
       style="fill:#000000;fill-opacity:1;fill-rule:nonzero;stroke:none" />
    <path
       style="fill:#000000;fill-opacity:1;fill-rule:nonzero;stroke:none"
       id="path28956"
       d="m 498.15314,389.60187 c -0.18408,2.9766 0.37717,5.89951 0.81625,8.82778 0.30985,1.86949 0.47116,3.75698 0.5566,5.6485 0.0638,2.01932 0.355,1.82748 -4.15096,0.26364 -2.1e-4,-7e-5 -0.002,-1.29118 -0.003,-2.07015 0.27696,-3.99225 1.15232,-7.84728 2.24295,-11.68351 1.12798,-2.74745 1.90927,-5.73236 3.86445,-8.02786 2.54245,-2.15724 5.02623,-0.72685 6.88503,1.44745 1.84146,3.11851 2.03656,6.75845 2.24087,10.28545 0.10122,2.0527 0.12686,4.10806 0.11225,6.1629 -0.004,0.36207 -0.006,0.72427 -0.029,1.08568 -1.27282,-0.4709 -2.62351,-0.76935 -3.81846,-1.41271 -0.0242,-0.0131 1.64179,-3.74417 1.78879,-4.05052 1.36978,-2.79414 2.67585,-5.62449 4.07933,-8.40276 1.04016,-2.20083 2.11501,-4.22015 4.1426,-5.64086 2.75522,-1.07795 4.80292,0.31149 6.33028,2.54265 1.33265,2.74906 1.31228,5.85419 1.39759,8.84261 0.0581,3.1363 0.0466,6.27334 0.0355,9.41 -0.004,0.88094 -0.008,1.76189 -0.0147,2.64282 -0.026,2.95581 -4.20613,2.91906 -4.18015,-0.0367 l 0,0 c 0.007,-0.87362 0.0109,-1.74725 0.0146,-2.62089 0.011,-3.09247 0.0223,-6.18532 -0.0339,-9.27745 -0.0625,-2.24939 -0.0231,-4.58069 -0.75789,-6.73531 -0.45155,-0.97812 -1.05582,-0.6432 -0.46235,-1.29625 -1.47101,0.88605 -1.90756,2.64297 -2.74256,4.05871 -1.3984,2.75106 -2.68614,5.5621 -4.04448,8.33234 -0.12419,0.2548 -1.56941,3.98359 -1.75219,3.97274 -1.39896,-0.0831 -2.76397,-0.46522 -4.14596,-0.69783 0.006,-0.24871 0.009,-0.49747 0.0128,-0.74623 0.0143,-1.96502 -0.01,-3.93053 -0.1055,-5.89354 -0.15121,-2.66545 -0.26412,-5.40239 -1.31779,-7.89611 -0.46936,-0.66081 -0.87446,-0.94114 -0.50595,-1.30375 -1.63711,1.68705 -1.89993,4.37703 -2.97232,6.39905 -0.986,3.46539 -1.79384,6.93089 -2.08349,10.53454 5.2e-4,0.39844 10e-4,0.79687 0.002,1.1953 4e-4,0.29243 0.27244,0.76776 0.001,0.8773 -4.51647,1.82468 -4.12808,1.96077 -4.20545,-0.0732 -0.0779,-1.74692 -0.22614,-3.49001 -0.51461,-5.21626 -0.46948,-3.13226 -1.04533,-6.26448 -0.86245,-9.44755 0,-2.95593 4.18031,-2.95593 4.18031,0 z"
       inkscape:connector-curvature="0" />
    <path
       inkscape:connector-curvature="0"
       d="m 651.43103,350.58568 c -0.18408,2.9766 0.37717,5.89951 0.81625,8.82778 0.30985,1.86949 0.47116,3.75698 0.5566,5.6485 0.0638,2.01932 0.355,1.82748 -4.15096,0.26364 -2.1e-4,-7e-5 -0.002,-1.29118 -0.003,-2.07015 0.27696,-3.99225 1.15232,-7.84728 2.24295,-11.68351 1.12798,-2.74745 1.90927,-5.73236 3.86445,-8.02786 2.54245,-2.15724 5.02623,-0.72685 6.88503,1.44745 1.84146,3.11851 2.03656,6.75845 2.24087,10.28545 0.10122,2.0527 0.12686,4.10806 0.11225,6.1629 -0.004,0.36207 -0.006,0.72427 -0.029,1.08568 -1.27282,-0.4709 -2.62351,-0.76935 -3.81846,-1.41271 -0.0242,-0.0131 1.64179,-3.74417 1.78879,-4.05052 1.36978,-2.79414 2.67585,-5.62449 4.07933,-8.40276 1.04016,-2.20083 2.11501,-4.22015 4.1426,-5.64086 2.75522,-1.07795 4.80292,0.31149 6.33028,2.54265 1.33265,2.74906 1.31228,5.85419 1.39759,8.84261 0.0581,3.1363 0.0466,6.27334 0.0355,9.41 -0.004,0.88094 -0.008,1.76189 -0.0147,2.64282 -0.026,2.95581 -4.20613,2.91906 -4.18015,-0.0367 l 0,0 c 0.007,-0.87362 0.0109,-1.74725 0.0146,-2.62089 0.011,-3.09247 0.0223,-6.18532 -0.0339,-9.27745 -0.0625,-2.24939 -0.0231,-4.58069 -0.75789,-6.73531 -0.45155,-0.97812 -1.05582,-0.6432 -0.46235,-1.29625 -1.47101,0.88605 -1.90756,2.64297 -2.74256,4.05871 -1.3984,2.75106 -2.68614,5.5621 -4.04448,8.33234 -0.12419,0.2548 -1.56941,3.98359 -1.75219,3.97274 -1.39896,-0.0831 -2.76397,-0.46522 -4.14596,-0.69783 0.006,-0.24871 0.009,-0.49747 0.0128,-0.74623 0.0143,-1.96502 -0.01,-3.93053 -0.1055,-5.89354 -0.15121,-2.66545 -0.26412,-5.40239 -1.31779,-7.89611 -0.46936,-0.66081 -0.87446,-0.94114 -0.50595,-1.30375 -1.63711,1.68705 -1.89993,4.37703 -2.97232,6.39905 -0.986,3.46539 -1.79384,6.93089 -2.08349,10.53454 5.2e-4,0.39844 10e-4,0.79687 0.002,1.1953 4e-4,0.29243 0.27244,0.76776 10e-4,0.8773 -4.51647,1.82468 -4.12808,1.96077 -4.20545,-0.0732 -0.0779,-1.74692 -0.22614,-3.49001 -0.51461,-5.21626 -0.46948,-3.13226 -1.04533,-6.26448 -0.86245,-9.44755 0,-2.95593 4.18031,-2.95593 4.18031,0 z"
       id="path28958"
       style="fill:#000000;fill-opacity:1;fill-rule:nonzero;stroke:none" />
    <path
       style="fill:#000000;fill-opacity:1;fill-rule:nonzero;stroke:none"
       id="path28966"
       d="m 435.55282,248.19127 c 0.84016,4.30467 0.97355,8.70954 1.13105,13.08082 0.13272,4.28653 0.15835,8.57532 0.16736,12.86359 0.002,1.79697 -5.4e-4,3.59394 -0.006,5.3909 -1.1e-4,0.22232 -0.002,0.44464 -0.004,0.66695 -2.98448,-2.55868 -2.36238,-2.21466 -0.64693,-2.21238 -0.0858,-0.0136 -0.29205,0.039 -0.25753,-0.0408 0.0626,-0.14455 3.73496,-1.53382 3.95801,-1.61115 2.34419,-1.03488 4.80896,-1.71981 7.3213,-2.191 1.76204,-0.29533 3.5485,-0.33457 5.33031,-0.34724 0.32545,-2.4e-4 0.65089,-4.8e-4 0.97633,-7.2e-4 2.95592,-0.002 2.95883,4.17825 0.003,4.18031 l 0,0 c -0.31677,2e-4 -0.63354,4.1e-4 -0.95031,6.2e-4 -1.53473,0.0103 -3.07384,0.0339 -4.59333,0.27657 -2.31653,0.4286 -4.5761,1.08259 -6.73543,2.03717 -1.71243,0.57407 -3.28449,1.50531 -5.06006,1.87649 -1.72747,-0.004 -1.29409,0.19722 -3.52409,-2.07923 10e-6,-0.002 0.002,-0.48133 0.002,-0.56886 0.006,-1.78963 0.008,-3.57927 0.006,-5.36891 -0.009,-4.24114 -0.0339,-8.4828 -0.16468,-12.72224 -0.14627,-4.08126 -0.26716,-8.19128 -1.00893,-12.21706 -0.71692,-2.86767 3.33858,-3.88154 4.05549,-1.01388 z"
       inkscape:connector-curvature="0" />
    <path
       style="fill:#000000;fill-opacity:1;fill-rule:nonzero;stroke:none"
       id="path28970"
       d="m 457.26659,137.0243 c -3.72201,-0.0357 -6.21587,3.47985 -8.31675,6.08088 -2.27707,3.43498 -4.55994,7.67314 -2.93026,11.81955 1.95715,1.79075 4.21308,-0.49723 5.67368,-1.84295 2.74647,-3.33967 3.97715,-7.55352 4.2002,-11.81428 0.007,-1.3086 -0.0925,-2.61555 -0.31045,-3.90572 -0.1675,-0.99161 -0.29142,-1.09828 -0.23847,-1.07522 0.14018,0.061 0.1004,0.28886 0.1506,0.43329 1.24385,-0.0422 2.49527,-0.26995 3.73154,-0.12649 0.0903,0.0105 -0.12887,0.62123 -0.0809,1.25486 0.0636,0.8411 0.43065,1.77458 0.67708,2.56623 1.91407,4.23483 3.12638,8.7161 4.2124,13.2203 1.43519,6.53077 1.66466,11.97468 -0.76397,18.26253 -3.41504,6.2362 -8.74783,7.52756 -15.41207,7.59643 -5.78937,-0.49982 -9.07568,-2.02777 -12.43684,-6.75774 -1.65285,-2.45062 1.81285,-4.7881 3.4657,-2.33748 l 0,0 c 2.00243,3.24612 5.18676,4.68307 8.95948,4.91493 4.57052,0.03 9.08903,-0.63555 11.53812,-4.95789 2.12509,-5.17543 1.78741,-10.34449 0.58525,-15.74291 -1.06322,-4.42908 -2.28242,-8.81306 -4.14755,-12.98198 -0.19667,-0.6587 -1.31456,-5.38178 -0.7223,-5.71112 1.21961,-0.67819 2.6276,-0.94092 3.9414,-1.41137 1.01261,2.16661 0.9506,4.67901 1.02317,7.02049 -0.37916,5.38013 -1.93352,10.59805 -5.60612,14.6873 -3.07246,2.6313 -7.31257,5.38743 -11.04106,1.89443 -0.56203,-0.52652 -0.90987,-1.2428 -1.3648,-1.8642 -1.86134,-6.16523 0.20101,-10.62547 3.6542,-15.77999 3.21527,-3.92352 6.98434,-8.20705 12.57263,-7.49737 2.86767,0.71692 1.85379,4.77241 -1.01387,4.05549 z"
       inkscape:connector-curvature="0" />
    <path
       inkscape:connector-curvature="0"
       d="m 696.93746,344.64616 c -3.72201,-0.0357 -6.21587,3.47985 -8.31675,6.08088 -2.27707,3.43498 -4.55994,7.67314 -2.93026,11.81955 1.95715,1.79075 4.21308,-0.49723 5.67368,-1.84295 2.74647,-3.33967 3.97715,-7.55352 4.2002,-11.81428 0.007,-1.3086 -0.0925,-2.61555 -0.31045,-3.90572 -0.1675,-0.99161 -0.29142,-1.09828 -0.23847,-1.07522 0.14018,0.061 0.1004,0.28886 0.1506,0.43329 1.24385,-0.0422 2.49527,-0.26995 3.73154,-0.12649 0.0903,0.0105 -0.12887,0.62123 -0.0809,1.25486 0.0636,0.8411 0.43065,1.77458 0.67708,2.56623 1.91407,4.23483 3.12638,8.7161 4.2124,13.2203 1.43519,6.53077 1.66466,11.97468 -0.76397,18.26253 -3.41504,6.2362 -8.74783,7.52756 -15.41207,7.59643 -5.78937,-0.49982 -9.07568,-2.02777 -12.43684,-6.75774 -1.65285,-2.45062 1.81285,-4.7881 3.4657,-2.33748 l 0,0 c 2.00243,3.24612 5.18676,4.68307 8.95948,4.91493 4.57052,0.03 9.08903,-0.63555 11.53812,-4.95789 2.12509,-5.17543 1.78741,-10.34449 0.58525,-15.74291 -1.06322,-4.42908 -2.28242,-8.81306 -4.14755,-12.98198 -0.19667,-0.6587 -1.31456,-5.38178 -0.7223,-5.71112 1.21961,-0.67819 2.6276,-0.94092 3.9414,-1.41137 1.01261,2.16661 0.9506,4.67901 1.02317,7.02049 -0.37916,5.38013 -1.93352,10.59805 -5.60612,14.6873 -3.07246,2.6313 -7.31257,5.38743 -11.04106,1.89443 -0.56203,-0.52652 -0.90987,-1.2428 -1.3648,-1.8642 -1.86134,-6.16523 0.20101,-10.62547 3.6542,-15.77999 3.21527,-3.92352 6.98434,-8.20705 12.57263,-7.49737 2.86767,0.71692 1.85379,4.77241 -1.01387,4.05549 z"
       id="path28972"
       style="fill:#000000;fill-opacity:1;fill-rule:nonzero;stroke:none" />
    <path
       style="fill:#000000;fill-opacity:1;fill-rule:nonzero;stroke:none"
       id="path28974"
       d="m 476.18457,119.27912 c 1.33322,11.05202 1.06005,22.2352 0.91418,33.34386 -0.24651,15.21999 -0.51023,30.43974 -0.85573,45.65781 -0.0671,2.95517 -4.24632,2.86028 -4.17922,-0.0949 l 0,0 c 0.34526,-15.20484 0.60863,-30.41134 0.855,-45.61811 0.1451,-10.93782 0.42191,-21.95038 -0.88958,-32.8326 -0.32251,-2.93827 3.83284,-3.39436 4.15534,-0.45608 z"
       inkscape:connector-curvature="0" />
    <path
       style="fill:#000000;fill-opacity:1;fill-rule:nonzero;stroke:none"
       id="path28976"
       d="m 485.04904,181.84083 c -1.31133,3.19073 -2.50947,6.44181 -3.56795,9.72741 -1.03998,3.35082 -2.31953,6.62721 -3.26196,10.00753 -0.50929,1.41651 -1.2318,2.75952 -2.32554,3.80589 -1.55349,1.56434 -3.53143,-0.57846 -4.17841,-1.98693 -1.42759,-3.51306 -2.6181,-7.1132 -3.82732,-10.70682 -1.13522,-3.35824 -1.99812,-6.79509 -2.75674,-10.25467 -0.63266,-2.88743 3.45078,-3.78214 4.08343,-0.8947 l 0,0 c 0.72502,3.31176 1.54878,6.60201 2.63545,9.81658 1.16715,3.4709 2.31381,6.94949 3.68637,10.34446 1.6182,3.89386 -0.53663,-1.12981 -2.4695,0.60237 0.54165,-0.47965 0.82813,-1.21098 1.12633,-1.85174 0.96213,-3.43265 2.24672,-6.76477 3.30987,-10.16662 1.14544,-3.53896 2.41554,-7.05579 3.88964,-10.46914 1.43287,-2.58541 5.0892,-0.55904 3.65633,2.02638 z"
       inkscape:connector-curvature="0" />
    <path
       style="fill:#000000;fill-opacity:1;fill-rule:nonzero;stroke:none"
       id="path28978"
       d="m 633.42064,214.74882 c 0.73455,3.09312 0.97076,6.26554 1.1298,9.43074 0.16661,4.34432 0.16173,8.69296 0.16861,13.03979 0.002,2.06793 -9e-5,4.13587 -0.003,6.2038 -0.005,2.95592 -4.18505,2.94922 -4.1803,-0.007 l 0,0 c 0.003,-2.0635 0.005,-4.127 0.003,-6.1905 -0.007,-4.27962 -0.002,-8.56101 -0.16343,-12.83823 -0.14308,-2.89373 -0.34801,-5.79504 -1.01017,-8.62502 -0.71692,-2.86767 3.33857,-3.88154 4.05549,-1.01388 z"
       inkscape:connector-curvature="0" />
    <path
       style="fill:#000000;fill-opacity:1;fill-rule:nonzero;stroke:none"
       id="path28980"
       d="m 632.05961,212.49889 c 3.97048,0 7.94096,0 11.91144,0 2.88149,0 5.76299,0 8.64449,0 0.25616,0 0.51231,0 0.76847,0 2.95592,0 2.95592,4.18031 0,4.18031 l 0,0 c -0.25616,0 -0.51231,0 -0.76847,0 -2.8815,0 -5.763,0 -8.64449,0 -3.97048,0 -7.94096,0 -11.91144,0 -2.95592,0 -2.95592,-4.18031 0,-4.18031 z"
       inkscape:connector-curvature="0" />
    <path
       style="fill:#000000;fill-opacity:1;fill-rule:nonzero;stroke:none"
       id="path28982"
       d="m 634.22111,224.20039 c 2.12683,0.92989 4.37323,1.55511 6.65675,1.95111 2.57111,0.3273 5.17295,0.28865 7.76008,0.30027 2.95589,0.0134 2.93699,4.19363 -0.0189,4.18026 l 0,0 c -2.82377,-0.0128 -5.66435,0.0252 -8.4675,-0.36381 -2.67755,-0.47903 -5.31583,-1.20503 -7.79992,-2.32885 -2.64386,-1.32192 -0.77437,-5.0609 1.86949,-3.73898 z"
       inkscape:connector-curvature="0" />
    <path
       style="fill:none;stroke:#000000;stroke-width:2.41653538;stroke-linecap:butt;stroke-linejoin:miter;stroke-miterlimit:4;stroke-opacity:1;stroke-dasharray:2.41653543, 4.83307087;stroke-dashoffset:0"
       d="m 359.50632,179.75316 0,238.27745"
       id="path28984"
       inkscape:connector-curvature="0" />
    <path
       style="fill:#000000;fill-opacity:1;fill-rule:nonzero;stroke:none"
       id="path28990"
       d="m 366.68152,279.93781 c 2.71658,1.27439 5.58753,1.72145 8.5484,1.36721 4.11204,-0.43785 7.79617,-2.18993 11.24098,-4.37691 2.18816,-1.53466 3.65879,-3.6203 4.90718,-5.933 1.43197,-2.58591 5.08901,-0.5608 3.65704,2.02511 l 0,0 c -1.6403,2.90525 -3.52065,5.53854 -6.33339,7.44319 -4.00025,2.51089 -8.27877,4.5014 -13.03699,4.99924 -3.76508,0.35299 -7.41341,-0.12118 -10.8527,-1.78586 -2.64386,-1.32193 -0.77437,-5.06091 1.86948,-3.73898 z"
       inkscape:connector-curvature="0" />
    <path
       style="fill:#000000;fill-opacity:1;fill-rule:nonzero;stroke:none"
       id="path28998"
       d="m 382.00931,267.39689 c 1.79101,0.98513 3.64746,1.62375 5.68826,1.52371 1.50222,-0.40056 2.81963,-1.1146 4.0915,-1.98522 0.97024,-0.58183 2.01246,-1.03642 3.09473,-1.36292 1.67439,-0.68242 2.94405,1.66439 2.92215,3.23737 7.1e-4,2.61775 0.069,5.22611 -0.16386,7.8349 -0.30414,2.33077 -0.60023,4.66149 -0.838,7.00001 -0.29957,2.9407 -4.45835,2.51704 -4.15878,-0.42366 l 0,0 c 0.23759,-2.32798 0.52691,-4.64903 0.83493,-6.96874 0.25117,-2.49577 0.11669,-4.99997 0.14589,-7.50596 0.0373,-2.29669 1.59044,1.14164 2.44841,0.83321 -0.6684,0.20876 -1.31884,0.47235 -1.93306,0.81139 -1.92643,1.30565 -3.9761,2.3448 -6.30488,2.70761 -2.74491,0.0632 -5.28699,-0.62338 -7.69678,-1.96272 -2.64385,-1.32193 -0.77436,-5.06091 1.86949,-3.73898 z"
       inkscape:connector-curvature="0" />
    <path
       style="fill:#000000;fill-opacity:1;fill-rule:nonzero;stroke:none"
       id="path29004"
       d="m 391.13983,311.32065 c -2.29833,3.27341 -3.04271,7.11031 -3.63202,10.98324 -0.71825,5.40571 -0.57911,11.06798 2.11281,15.92206 2.06905,2.65771 3.48405,3.43188 5.83359,0.77598 3.2528,-5.28405 2.96977,-11.3391 1.98736,-17.21189 -1.17729,-4.45127 -3.23173,-8.7029 -7.29939,-11.11165 -0.907,-0.48647 -1.46697,0.21841 -0.57734,-0.0184 -1.50084,2.54656 -5.10221,0.42405 -3.60137,-2.12251 l 0,0 c 1.83623,-2.45533 3.61195,-2.58084 6.38582,-1.40928 5.01993,3.21917 7.83885,8.23106 9.21775,13.98692 1.19313,7.44193 1.30014,14.53371 -3.25745,20.93993 -0.70188,0.59871 -1.31232,1.32526 -2.10566,1.79613 -4.09389,2.42989 -7.98618,-0.27471 -10.27821,-3.6701 -0.43518,-0.85114 -0.95318,-1.66478 -1.30554,-2.5534 -1.9959,-5.03339 -1.86492,-10.69247 -1.24376,-15.96144 0.73965,-4.73253 1.75583,-9.45754 4.80748,-13.30154 2.09016,-2.09016 5.04608,0.86576 2.95593,2.95592 z"
       inkscape:connector-curvature="0" />
    <path
       style="fill:#000000;fill-opacity:1;fill-rule:nonzero;stroke:none"
       id="path29006"
       d="m 385.83147,324.18099 c 3.24426,0.79777 6.51145,0.65503 9.80596,0.40435 1.955,-0.31677 3.87258,-0.81539 5.8037,-1.24654 2.88501,-0.6436 3.7952,3.43641 0.91019,4.08001 l 0,0 c -2.12644,0.47397 -4.23693,1.03271 -6.39809,1.33489 -3.67166,0.27703 -7.32703,0.39394 -10.94159,-0.47358 -2.89852,-0.57971 -2.07869,-4.67883 0.81983,-4.09913 z"
       inkscape:connector-curvature="0" />
    <path
       style="fill:#a0a0a0;stroke:none"
       d="m 452.63111,412.79031 c -4.79715,-3.36005 -7.26927,-9.48338 -7.26927,-18.00563 0,-8.6717 3.00867,-17.44238 5.98339,-17.44238 1.06991,0 3.02057,-1.18817 4.33479,-2.64037 5.33223,-5.89205 17.81727,-4.0814 24.52346,3.55652 8.02339,9.13814 4.81292,27.06627 -6.04901,33.77931 -5.76127,3.56066 -16.95543,3.95205 -21.52336,0.75255 z"
       id="path29008"
       inkscape:connector-curvature="0" />
    <path
       style="fill:#a0a0a0;stroke:none"
       d="m 626.81052,318.0367 c -4.79714,-3.36005 -7.26926,-9.48338 -7.26926,-18.00563 0,-8.6717 3.00867,-17.44238 5.98339,-17.44238 1.06991,0 3.02056,-1.18817 4.33479,-2.64037 5.33223,-5.89205 17.81726,-4.0814 24.52345,3.55653 8.02339,9.13813 4.81293,27.06626 -6.049,33.7793 -5.76127,3.56066 -16.95543,3.95206 -21.52337,0.75255 z"
       id="path29010"
       inkscape:connector-curvature="0" />
    <path
       style="color:#000000;fill:#000000;fill-opacity:1;fill-rule:nonzero;stroke:none;stroke-width:1px;marker:none;visibility:visible;display:inline;overflow:visible;enable-background:accumulate"
       id="path3023"
       d="m 592.79644,133.52877 c 0,5.90268 0,11.80536 0,17.70804 -0.12688,3.82923 0.27875,7.65488 0.9751,11.41593 0.48873,1.51905 0.17861,0.27722 -3.83581,-0.17725 0.65976,-2.88135 4.73461,-1.94832 4.07485,0.93304 l 0,0 c -4.3965,0.6914 -3.80661,2.01598 -4.34997,0.003 -0.73781,-4.01178 -1.17161,-8.09055 -1.04448,-12.1744 0,-5.90268 0,-11.80535 0,-17.70803 0,-2.95593 4.18031,-2.95593 4.18031,0 z"
       inkscape:connector-curvature="0" />
    <path
       style="color:#000000;fill:#000000;fill-opacity:1;fill-rule:nonzero;stroke:none;stroke-width:1px;marker:none;visibility:visible;display:inline;overflow:visible;enable-background:accumulate"
       id="path3033"
       d="m 592.44725,127.89877 c 3.95416,0.81984 7.93928,0.64661 11.92732,0.29563 1.6384,-0.29401 3.23544,-0.76385 4.81612,-1.27692 2.81229,-0.91022 4.09954,3.06696 1.28725,3.97718 l 0,0 c -1.88006,0.60693 -3.78084,1.16211 -5.73805,1.46405 -4.49437,0.39306 -8.99855,0.54379 -13.44106,-0.44047 -2.84219,-0.81206 -1.69377,-4.83152 1.14842,-4.01947 z"
       inkscape:connector-curvature="0" />
    <path
       style="color:#000000;fill:#000000;fill-opacity:1;fill-rule:nonzero;stroke:none;stroke-width:1px;marker:none;visibility:visible;display:inline;overflow:visible;enable-background:accumulate"
       id="path3037"
       d="m 593.26647,141.41935 c 4.50898,-0.39455 9.00999,-0.74348 13.47289,-1.50777 0.57699,-0.10808 1.15399,-0.21616 1.73099,-0.32424 2.90547,-0.5438 3.67451,3.56516 0.76904,4.10896 l 0,0 c -0.59854,0.11193 -1.19708,0.22387 -1.79561,0.3358 -4.69502,0.80129 -9.43169,1.18262 -14.17731,1.56755 -2.95592,0 -2.95592,-4.1803 0,-4.1803 z"
       inkscape:connector-curvature="0" />
    <path
       style="color:#000000;fill:#000000;fill-opacity:1;fill-rule:nonzero;stroke:none;stroke-width:1px;marker:none;visibility:visible;display:inline;overflow:visible;enable-background:accumulate"
       id="path3039"
       d="m 622.20425,129.05287 c 0.61257,5.8588 0.21007,11.79013 0.0807,17.67083 -0.24976,4.66006 -0.12416,9.30232 0.59969,13.91255 0.0733,0.15253 0.11086,0.32816 0.21987,0.45761 0.0473,0.0562 0.0387,-0.17448 -0.0193,-0.21948 -0.38006,-0.29469 -0.77955,-0.5878 -1.23201,-0.75078 -0.74945,-0.26997 -0.69866,0.39616 -0.68026,-0.16043 1.54812,-2.5181 5.10924,-0.32872 3.56112,2.18937 l 0,0 c -2.25075,3.13527 -4.90195,2.91317 -5.97961,-0.87116 -0.75463,-4.85403 -0.91212,-9.74347 -0.64875,-14.64962 0.12435,-5.65272 0.51305,-11.35476 -0.0397,-16.9877 -0.41803,-2.92622 3.72026,-3.5174 4.13829,-0.59119 z"
       inkscape:connector-curvature="0" />
    <path
       style="color:#000000;fill:#000000;fill-opacity:1;fill-rule:nonzero;stroke:none;stroke-width:1px;marker:none;visibility:visible;display:inline;overflow:visible;enable-background:accumulate"
       id="path3047"
       d="m 619.91869,124.89325 c 4.12712,0.17369 8.25225,-0.20769 12.37435,0.0831 2.63473,0.4491 5.20884,1.3401 7.59716,2.70843 0.38393,0.57457 1.00326,1.01732 1.1518,1.72373 0.76057,3.61708 -3.99918,6.35203 -6.04496,7.71247 -3.1506,1.72944 -5.98384,4.02008 -8.81808,6.33858 -3.16571,2.53972 1.29049,-0.3307 -1.79868,-2.58616 -1.42674,-0.32712 3.42013,-1.30228 3.44598,-1.30667 2.86296,-0.37142 5.731,0.2839 8.4068,1.44099 3.13022,1.41861 4.32857,4.33308 4.97856,7.94761 0.61343,3.93013 -0.15315,7.44753 -2.30265,10.5085 -2.99667,3.37317 -7.06771,4.28031 -11.03914,5.02137 -2.16421,0.34989 -4.34081,0.60718 -6.52621,0.65434 -0.16012,6.3e-4 -0.32023,10e-4 -0.48034,0.002 -2.95591,0.0101 -2.96816,-4.84219 -0.0122,-4.85224 l 0,0 c 0.13918,-3.9e-4 0.27836,-7.7e-4 0.41753,-0.001 1.99045,-0.0398 3.97236,-0.28264 5.94393,-0.59475 2.97481,-0.54389 6.11124,-1.06777 8.50774,-3.36711 1.4157,-1.80672 1.74888,-4.00621 1.39222,-6.41949 -0.33391,-2.06858 -0.55597,-3.50826 -2.35592,-4.35947 -2.01538,-0.8987 -4.19819,-1.42567 -6.36254,-1.17319 -1.65172,0.23486 -3.09438,1.17201 -4.76343,1.27295 -3.56436,-1.07034 -2.17996,-4.86168 0.1403,-6.15371 2.9484,-2.41182 5.90309,-4.78941 9.17373,-6.59946 1.5877,-1.0166 1.43255,-0.81753 2.81152,-2.07125 0.38359,-0.34875 0.98747,-1.50705 1.18659,-0.99086 0.94755,2.4563 -0.91755,0.083 1.08452,2.19684 -1.88228,-1.10117 -3.93039,-1.78476 -6.0008,-2.20982 -4.2594,-0.3343 -8.53213,0.20518 -12.79497,-0.13923 -2.91571,-0.56406 -2.22847,-5.3503 0.68724,-4.78624 z"
       inkscape:connector-curvature="0" />
    <path
       style="color:#000000;fill:#000000;fill-opacity:1;fill-rule:nonzero;stroke:none;stroke-width:1px;marker:none;visibility:visible;display:inline;overflow:visible;enable-background:accumulate"
       id="path3049"
       d="m 652.8524,127.44473 c 0.78055,5.53395 0.93348,11.13301 1.09753,16.71199 0.10909,4.29064 0.15351,8.58263 0.16691,12.87454 -0.32473,-0.77594 0.21687,1.65668 -2.5e-4,1.28677 -0.25243,-0.43009 -0.0769,-1.17585 -0.52114,-1.40239 -2.17249,-1.1078 -3.10373,0.66476 -2.45283,-0.44986 1.76463,-2.3714 5.1183,0.12416 3.35367,2.49556 l 0,0 c -2.28839,2.87853 -4.95519,1.08207 -4.55974,-1.91705 -0.0132,-4.25535 -0.0572,-8.51077 -0.16513,-12.76487 -0.15807,-5.39003 -0.30186,-10.79934 -1.04245,-16.14745 -0.48595,-2.9157 3.63748,-3.60294 4.12343,-0.68724 z"
       inkscape:connector-curvature="0" />
    <path
       style="color:#000000;fill:#000000;fill-opacity:1;fill-rule:nonzero;stroke:none;stroke-width:1px;marker:none;visibility:visible;display:inline;overflow:visible;enable-background:accumulate"
       id="path3055"
       d="m 651.16539,122.63196 c 4.53787,1.7175 8.86361,3.91558 13.0785,6.30532 3.27591,2.11576 7.33791,4.23382 8.71057,8.18553 0.26694,0.76848 0.31583,1.59611 0.47374,2.39416 -0.42554,6.40435 -5.30651,10.75699 -9.75202,14.82769 -3.60088,3.20845 -7.70498,5.73223 -12.25094,7.32834 -1.21581,0.52869 -2.28928,0.44047 -3.52835,0.1301 -2.74439,-1.09808 -1.19148,-4.97924 1.55292,-3.88116 l 0,0 c -0.99467,-0.0312 0.10644,0.13836 0.60109,-0.19687 4.01858,-1.38446 7.62138,-3.65011 10.80422,-6.46531 3.40576,-3.1101 7.35026,-6.39808 8.44455,-11.08688 -0.31865,-3.89916 -4.14574,-5.70539 -7.11942,-7.60017 -4.15007,-2.35874 -8.42005,-4.49604 -12.88435,-6.20177 -2.64386,-1.32193 -0.77437,-5.06091 1.86949,-3.73898 z"
       inkscape:connector-curvature="0" />
    <path
       style="color:#000000;fill:#000000;fill-opacity:1;fill-rule:nonzero;stroke:none;stroke-width:1px;marker:none;visibility:visible;display:inline;overflow:visible;enable-background:accumulate"
       id="path3061"
       d="m 591.05381,171.09527 c 6.82082,1.65756 13.84035,1.71918 20.81385,1.66286 11.06139,-0.59427 22.12006,-1.22317 33.16244,-2.10558 6.75141,-0.72602 13.57601,-0.62687 20.29158,-1.6568 1.37248,-0.25793 2.76486,-0.47529 4.09618,-0.90861 -0.0157,0.005 -0.0314,0.01 -0.0471,0.0145 2.70938,-1.18184 4.38076,2.64979 1.67139,3.83164 l 0,0 c -0.0789,0.0324 -0.1578,0.0648 -0.23669,0.0972 -1.571,0.53992 -3.22742,0.7878 -4.85311,1.09778 -6.81684,1.03564 -13.73545,0.97757 -20.5893,1.69136 -11.14209,0.89021 -22.30073,1.5275 -33.46245,2.11873 -7.37168,0.0567 -14.79333,-0.0366 -21.99522,-1.82357 -2.84219,-0.81205 -1.69377,-4.83152 1.14842,-4.01946 z"
       inkscape:connector-curvature="0" />
  </g>
</svg>
