<?xml version="1.0" encoding="UTF-8" standalone="no"?>
<!-- Created with Inkscape (http://www.inkscape.org/) -->

<svg
   xmlns:dc="http://purl.org/dc/elements/1.1/"
   xmlns:cc="http://creativecommons.org/ns#"
   xmlns:rdf="http://www.w3.org/1999/02/22-rdf-syntax-ns#"
   xmlns:svg="http://www.w3.org/2000/svg"
   xmlns="http://www.w3.org/2000/svg"
   xmlns:sodipodi="http://sodipodi.sourceforge.net/DTD/sodipodi-0.dtd"
   xmlns:inkscape="http://www.inkscape.org/namespaces/inkscape"
   width="374.75146"
   height="301.95654"
   id="svg4054"
   version="1.1"
   inkscape:version="0.48.0 r9654"
   sodipodi:docname="New document 6">
  <defs
     id="defs4056" />
  <sodipodi:namedview
     inkscape:document-units="mm"
     pagecolor="#ffffff"
     bordercolor="#666666"
     borderopacity="1.0"
     inkscape:pageopacity="0.0"
     inkscape:pageshadow="2"
     inkscape:zoom="0.7176508"
     inkscape:cx="294.71432"
     inkscape:cy="8.7835239"
     inkscape:current-layer="layer1"
     id="namedview4058"
     showgrid="false"
     fit-margin-top="0"
     fit-margin-left="0"
     fit-margin-right="0"
     fit-margin-bottom="0"
     inkscape:window-width="1280"
     inkscape:window-height="752"
     inkscape:window-x="0"
     inkscape:window-y="0"
     inkscape:window-maximized="0" />
  <metadata
     id="metadata4060">
    <rdf:RDF>
      <cc:Work
         rdf:about="">
        <dc:format>image/svg+xml</dc:format>
        <dc:type
           rdf:resource="http://purl.org/dc/dcmitype/StillImage" />
        <dc:title></dc:title>
      </cc:Work>
    </rdf:RDF>
  </metadata>
  <g
     inkscape:label="Layer 1"
     inkscape:groupmode="layer"
     id="layer1"
     transform="translate(-231.46677,-78.874209)">
    <path
       style="fill:#000000;fill-opacity:1;fill-rule:nonzero;stroke:none"
       id="path4573"
       d="m 335.7055,179.1877 c -4.04283,0.90374 -6.66362,3.50982 -8.72373,6.95833 -1.68207,3.55322 -2.90963,8.30699 -0.0241,11.65347 0.47675,0.55293 1.11089,0.94762 1.66634,1.42143 5.49456,3.08685 9.63604,3.26906 15.0246,-0.0303 3.41479,-3.32949 4.54579,-8.06961 3.0447,-12.63167 -0.35417,-1.07641 -0.92653,-2.06832 -1.3898,-3.10248 -3.16241,-4.92853 -7.83042,-8.80592 -13.48188,-10.46765 -2.82481,-0.8706 -1.59361,-4.86548 1.2312,-3.99488 l 0,0 c 6.8051,2.16937 12.41554,6.65652 16.09086,12.81087 0.55285,1.32836 1.255,2.60404 1.65858,3.98512 1.85857,6.36006 -0.0951,12.72363 -5.04662,17.01114 -0.98867,0.5568 -1.92056,1.22935 -2.966,1.67038 -5.81977,2.45518 -11.89036,1.14741 -17.02033,-2.19675 -0.82052,-0.81244 -1.77442,-1.50934 -2.46156,-2.43731 -3.54767,-4.79106 -2.32573,-10.96443 0.11821,-15.88935 3.02293,-4.76712 5.79178,-7.41358 11.34309,-8.83445 2.88079,-0.66218 3.81727,3.41187 0.93648,4.07407 z"
       inkscape:connector-curvature="0" />
    <path
       style="fill:#000000;fill-opacity:1;fill-rule:nonzero;stroke:none"
       id="path4591"
       d="m 337.26788,203.28287 c -0.9779,4.0849 -0.95208,8.26267 -0.8496,12.43059 0.24162,8.91882 0.31013,17.83547 0.62691,26.75249 0.38084,9.98014 0.46673,19.96717 0.44539,29.95342 -0.0176,4.33414 -0.0685,8.66809 -0.15216,13.00144 -0.019,0.89132 -0.01,0.4866 -0.0271,1.21415 -0.0686,2.95513 -4.24781,2.85809 -4.17918,-0.0971 l 0,0 c 0.0166,-0.71635 0.008,-0.31711 0.0268,-1.1977 0.0831,-4.30948 0.13373,-8.61955 0.1513,-12.92981 0.0214,-9.93379 -0.0638,-19.86835 -0.44276,-29.79607 -0.31724,-8.93269 -0.38681,-17.86498 -0.62831,-26.79945 -0.10952,-4.56898 -0.10283,-9.15199 0.99322,-13.62292 0.77138,-2.8535 4.80684,-1.7626 4.03545,1.0909 z"
       inkscape:connector-curvature="0" />
    <path
       style="fill:#000000;fill-opacity:1;fill-rule:nonzero;stroke:none"
       id="path4605"
       d="m 335.38758,288.69811 c -3.29064,6.29569 -7.01459,12.36772 -10.77336,18.39439 -5.19723,7.89623 -10.29215,15.85522 -14.8312,24.15136 -1.32654,2.38086 -2.31322,4.90463 -3.20368,7.47039 -0.97488,2.79053 -4.92129,1.41183 -3.94641,-1.37871 l 0,0 c 0.97645,-2.77869 2.04319,-5.51796 3.48328,-8.09903 4.58092,-8.36337 9.70558,-16.39693 14.95116,-24.35642 3.64354,-5.84047 7.23861,-11.72881 10.46915,-17.80811 1.14986,-2.72311 5.00091,-1.09697 3.85106,1.62613 z"
       inkscape:connector-curvature="0" />
    <path
       inkscape:connector-curvature="0"
       d="m 332.62773,287.25188 c 3.06614,6.41673 6.57623,12.62651 10.12303,18.79229 4.92081,8.08891 9.73644,16.23662 13.98064,24.7 1.24204,2.42978 2.13713,4.98939 2.93392,7.58727 0.87305,2.82572 4.89111,1.59868 4.01806,-1.22705 l 0,0 c -0.87507,-2.81395 -1.84237,-5.59195 -3.19087,-8.22612 -4.28371,-8.53217 -9.12636,-16.75553 -14.09335,-24.90949 -3.43812,-5.97532 -6.82572,-11.99663 -9.83974,-18.19484 -1.05144,-2.76503 -4.98312,-1.28708 -3.93169,1.47794 z"
       id="path4607"
       style="fill:#000000;fill-opacity:1;fill-rule:nonzero;stroke:none" />
    <path
       style="fill:#000000;fill-opacity:1;fill-rule:nonzero;stroke:none"
       id="path4621"
       d="m 333.31793,217.94903 c -1.87874,2.51065 -4.48082,4.20819 -7.07783,5.87828 -4.09769,2.69684 -8.29407,5.23202 -12.3543,7.9878 -4.52303,3.0698 -8.82087,6.44851 -13.2426,9.65548 -1.98828,1.60314 -4.21189,2.80552 -6.52684,3.85265 -2.69594,1.21218 -4.41022,-2.60046 -1.71427,-3.81263 l 0,0 c 2.06128,-0.92023 4.02852,-1.99011 5.78846,-3.4252 4.45978,-3.22767 8.7869,-6.64012 13.34863,-9.72984 4.09015,-2.77272 8.3125,-5.33092 12.44017,-8.04451 2.37961,-1.52962 4.72999,-3.05947 6.43947,-5.37369 2.12956,-2.04999 5.02867,0.96168 2.89911,3.01166 z"
       inkscape:connector-curvature="0" />
    <path
       style="fill:#000000;fill-opacity:1;fill-rule:nonzero;stroke:none"
       id="path4623"
       d="m 336.82115,213.10728 c 2.57643,1.27916 4.84025,3.07845 7.00414,4.95165 3.01709,3.18217 6.18856,6.17019 9.57037,8.97064 4.22983,3.36711 8.88842,6.121 13.36599,9.1312 2.40082,1.47518 4.79117,2.96122 7.09885,4.57958 0.76035,0.59875 1.0882,0.61381 1.9334,1.40624 2.10556,2.07465 -0.82842,5.05235 -2.93397,2.9777 l 0,0 c -0.47454,-0.30897 -0.93773,-0.63517 -1.40027,-0.96182 -2.28481,-1.60361 -4.65746,-3.06601 -7.03121,-4.5331 -4.59139,-3.0903 -9.37307,-5.9121 -13.70076,-9.38159 -3.4012,-2.8227 -6.61948,-5.81309 -9.64175,-9.03117 -1.9157,-1.66588 -3.91784,-3.27491 -6.20512,-4.40662 -2.61822,-1.37203 -0.67788,-5.07473 1.94033,-3.70271 z"
       inkscape:connector-curvature="0" />
    <path
       inkscape:connector-curvature="0"
       d="m 548.4182,133.6316 c -5.53418,1.2906 -9.06887,4.78576 -11.81072,9.37549 -2.21938,4.71804 -3.78253,11.00458 0.27188,15.3361 0.6699,0.71569 1.55199,1.21919 2.32799,1.8288 7.63442,3.92447 13.33266,4.06047 20.65416,-0.41634 4.60729,-4.46704 6.03803,-10.73319 3.85499,-16.69907 -0.51507,-1.40763 -1.32788,-2.6986 -1.99182,-4.0479 -4.47652,-6.4065 -10.99533,-11.39202 -18.80812,-13.43718 -3.90617,-1.07488 -2.31817,-6.36284 1.588,-5.28796 l 0,0 c 9.41204,2.68429 17.24241,8.4486 22.45612,16.45538 0.79481,1.73422 1.79348,3.39537 2.38445,5.2027 2.72155,8.32301 0.20233,16.74617 -6.49248,22.51243 -1.34459,0.7575 -2.60808,1.66591 -4.03375,2.27248 -7.9364,3.37675 -16.31613,1.8079 -23.45605,-2.46433 -1.14928,-1.04857 -2.47888,-1.94176 -3.44781,-3.14571 -5.00255,-6.21595 -3.48431,-14.37048 -0.25346,-20.91271 4.03096,-6.34909 7.76814,-9.90111 15.36256,-11.91002 3.943,-0.9436 5.33706,4.39423 1.39406,5.33784 z"
       id="path4625"
       style="fill:#000000;fill-opacity:1;fill-rule:nonzero;stroke:none" />
    <path
       inkscape:connector-curvature="0"
       d="m 551.19683,165.30073 c -1.23743,5.40007 -1.09256,10.89719 -0.84257,16.37943 0.56565,11.73076 0.89325,23.46298 1.56217,35.18949 0.78482,13.12392 1.16435,26.26429 1.39642,39.40633 0.0892,5.704 0.13268,11.40857 0.13117,17.11319 -0.003,1.17341 -7.3e-4,0.64059 -0.006,1.59846 -0.0169,3.89054 -5.76481,3.86756 -5.74783,-0.023 l 0,0 c 0.004,-0.94311 0.003,-0.41751 0.006,-1.5768 9.5e-4,-5.67318 -0.0418,-11.34633 -0.13048,-17.01889 -0.23069,-13.07302 -0.60781,-26.14436 -1.38869,-39.19933 -0.66996,-11.74712 -0.99943,-23.4999 -1.56532,-35.25126 -0.27016,-6.00985 -0.38095,-12.04106 1.0088,-17.95209 0.98575,-3.77442 6.56201,-2.43997 5.57625,1.33445 z"
       id="path4627"
       style="fill:#000000;fill-opacity:1;fill-rule:nonzero;stroke:none" />
    <path
       inkscape:connector-curvature="0"
       d="m 550.84792,277.75085 c -4.35897,8.36732 -9.31949,16.45118 -14.32905,24.47623 -6.93814,10.52135 -13.73399,21.12274 -19.75683,32.15387 -1.76132,3.16636 -3.05167,6.51227 -4.20866,9.91101 -1.26716,3.69666 -6.72854,1.98123 -5.46138,-1.71543 l 0,0 c 1.26962,-3.68112 2.6644,-7.31262 4.57659,-10.74528 6.07863,-11.12066 12.9134,-21.82091 19.91636,-32.42673 4.85604,-7.77713 9.64418,-15.61604 13.92619,-23.69709 1.50948,-3.61233 6.84623,-1.56888 5.33678,2.04342 z"
       id="path4629"
       style="fill:#000000;fill-opacity:1;fill-rule:nonzero;stroke:none" />
    <path
       style="fill:#000000;fill-opacity:1;fill-rule:nonzero;stroke:none"
       id="path4631"
       d="m 547.01598,275.91682 c 4.38313,8.36732 9.37115,16.45118 14.4085,24.47623 6.97659,10.52136 13.81012,21.12274 19.86634,32.15386 1.77109,3.16637 3.06861,6.51228 4.23201,9.91102 1.27419,3.69666 6.76586,1.98123 5.49166,-1.71543 l 0,0 c -1.27666,-3.68112 -2.67916,-7.31261 -4.60196,-10.74528 -6.11234,-11.12066 -12.98501,-21.82091 -20.02679,-32.42673 -4.88294,-7.77713 -9.69764,-15.61604 -14.0034,-23.69709 -1.51783,-3.61233 -6.88418,-1.56889 -5.36636,2.04342 z"
       inkscape:connector-curvature="0" />
    <path
       inkscape:connector-curvature="0"
       d="m 546.1506,184.69977 c -2.51705,3.351 -6.0498,5.6501 -9.5763,7.91294 -5.56265,3.65162 -11.26522,7.09297 -16.77485,10.82121 -6.13764,4.15307 -11.95761,8.70702 -17.95238,13.03808 -2.6914,2.15948 -5.71682,3.79749 -8.87186,5.23347 -3.67448,1.66275 -6.13099,-3.31158 -2.45649,-4.9743 l 0,0 c 2.80964,-1.26265 5.48607,-2.71987 7.86797,-4.65247 6.04654,-4.35926 11.90589,-8.95833 18.0962,-13.13859 5.55032,-3.75128 11.28798,-7.22358 16.89143,-10.89798 3.2313,-2.07256 6.42241,-4.14467 8.71192,-7.23293 2.87393,-2.75107 6.9383,1.13952 4.06436,3.89057 z"
       id="path4633"
       style="fill:#000000;fill-opacity:1;fill-rule:nonzero;stroke:none" />
    <path
       inkscape:connector-curvature="0"
       d="m 550.83988,178.24044 c 3.57541,1.61876 6.73468,3.92982 9.7585,6.34066 4.23102,4.112 8.66919,7.96465 13.39162,11.56517 5.90306,4.32499 12.3795,7.83226 18.61381,11.68137 3.33912,1.8811 6.66414,3.77677 9.87896,5.84864 1.06097,0.76889 1.51206,0.78048 2.69474,1.80211 2.9489,2.67739 -1.0066,6.66944 -3.95549,3.99206 l 0,0 c -0.66047,-0.3947 -1.30577,-0.81236 -1.9502,-1.23064 -3.183,-2.05302 -6.48306,-3.91803 -9.78476,-5.78917 -6.39286,-3.95166 -13.04031,-7.54521 -19.08059,-12.00248 -4.74966,-3.62932 -9.25224,-7.48391 -13.49131,-11.64303 -2.67721,-2.14423 -5.47175,-4.21149 -8.64581,-5.64346 -3.63528,-1.73991 -1.06475,-6.66114 2.57053,-4.92123 z"
       id="path4635"
       style="fill:#000000;fill-opacity:1;fill-rule:nonzero;stroke:none" />
    <path
       style="fill:#000000;fill-opacity:1;fill-rule:nonzero;stroke:none"
       id="path4677"
       d="m 234.08209,342.30317 c 5.2853,0.79234 10.68232,0.28207 15.98959,0.0522 16.4745,-0.71456 -1.03738,0.093 17.2115,-0.7664 24.98197,-1.11022 49.99498,-0.8802 74.99093,-0.54232 28.62544,0.68525 57.25199,1.1069 85.8838,1.39904 4.59485,0.10971 9.18968,0.21933 13.78453,0.32894 2.95507,0.0708 2.85528,4.24968 -0.0998,4.17911 l 0,0 c -4.57579,-0.1093 -9.15158,-0.2187 -13.72737,-0.328 -28.63644,-0.2922 -57.26762,-0.71373 -85.89767,-1.39923 -24.91156,-0.33689 -49.84012,-0.56746 -74.73779,0.53808 -17.65124,0.83112 -1.30272,0.0786 -17.21809,0.76671 -5.63815,0.2438 -11.36708,0.7661 -16.97662,-0.12458 -2.90171,-0.56355 -2.10471,-4.66717 0.797,-4.10361 z"
       inkscape:connector-curvature="0" />
    <path
       style="fill:#000000;fill-opacity:1;fill-rule:nonzero;stroke:none"
       id="path4679"
       d="m 262.1797,346.23766 c -3.10203,3.70884 -6.03787,7.48005 -8.96312,11.25602 -2.1534,3.22629 -4.42888,6.41043 -6.86113,9.5436 -1.37942,1.77663 -5.07663,0.45092 -3.69722,-1.32571 l 0,0 c 2.43241,-3.1323 4.69864,-6.31831 6.85944,-9.54141 2.85795,-3.68834 5.69146,-7.38634 8.78072,-10.98756 1.0978,-1.8651 4.97912,-0.81003 3.88131,1.05506 z"
       inkscape:connector-curvature="0" />
    <path
       inkscape:connector-curvature="0"
       d="m 284.47467,346.23766 c -3.10203,3.70884 -6.03787,7.48005 -8.96312,11.25602 -2.1534,3.22629 -4.42888,6.41043 -6.86113,9.5436 -1.37942,1.77663 -5.07663,0.45092 -3.69722,-1.32571 l 0,0 c 2.43241,-3.1323 4.69864,-6.31831 6.85944,-9.54141 2.85795,-3.68834 5.69146,-7.38634 8.78072,-10.98756 1.0978,-1.8651 4.97912,-0.81003 3.88131,1.05506 z"
       id="path4681"
       style="fill:#000000;fill-opacity:1;fill-rule:nonzero;stroke:none" />
    <path
       inkscape:connector-curvature="0"
       d="m 309.5565,346.23766 c -3.10203,3.70884 -6.03787,7.48005 -8.96312,11.25602 -2.1534,3.22629 -4.42888,6.41043 -6.86113,9.5436 -1.37942,1.77663 -5.07663,0.45092 -3.69722,-1.32571 l 0,0 c 2.43241,-3.1323 4.69864,-6.31831 6.85944,-9.54141 2.85795,-3.68834 5.69146,-7.38634 8.78072,-10.98756 1.0978,-1.8651 4.97912,-0.81003 3.88131,1.05506 z"
       id="path4683"
       style="fill:#000000;fill-opacity:1;fill-rule:nonzero;stroke:none" />
    <path
       style="fill:#000000;fill-opacity:1;fill-rule:nonzero;stroke:none"
       id="path4685"
       d="m 331.85147,346.23766 c -3.10203,3.70884 -6.03787,7.48005 -8.96312,11.25602 -2.1534,3.22629 -4.42888,6.41043 -6.86113,9.5436 -1.37942,1.77663 -5.07663,0.45092 -3.69722,-1.32571 l 0,0 c 2.43241,-3.1323 4.69864,-6.31831 6.85944,-9.54141 2.85795,-3.68834 5.69146,-7.38634 8.78072,-10.98756 1.0978,-1.8651 4.97912,-0.81003 3.88131,1.05506 z"
       inkscape:connector-curvature="0" />
    <path
       inkscape:connector-curvature="0"
       d="m 355.53987,345.29072 c -3.10203,3.70884 -6.03787,7.48005 -8.96312,11.25602 -2.1534,3.22629 -4.42888,6.41043 -6.86113,9.5436 -1.37942,1.77663 -5.07663,0.45092 -3.69722,-1.32571 l 0,0 c 2.43241,-3.1323 4.69864,-6.31831 6.85944,-9.54141 2.85795,-3.68835 5.69146,-7.38634 8.78072,-10.98756 1.0978,-1.8651 4.97912,-0.81003 3.88131,1.05506 z"
       id="path4687"
       style="fill:#000000;fill-opacity:1;fill-rule:nonzero;stroke:none" />
    <path
       style="fill:#000000;fill-opacity:1;fill-rule:nonzero;stroke:none"
       id="path4689"
       d="m 377.83484,345.29072 c -3.10203,3.70884 -6.03787,7.48005 -8.96312,11.25602 -2.1534,3.22629 -4.42888,6.41043 -6.86113,9.5436 -1.37942,1.77663 -5.07663,0.45092 -3.69722,-1.32571 l 0,0 c 2.43241,-3.1323 4.69864,-6.31831 6.85944,-9.54141 2.85795,-3.68835 5.69146,-7.38634 8.78072,-10.98756 1.0978,-1.8651 4.97912,-0.81003 3.88131,1.05506 z"
       inkscape:connector-curvature="0" />
    <path
       style="fill:#000000;fill-opacity:1;fill-rule:nonzero;stroke:none"
       id="path4691"
       d="m 402.91667,345.29072 c -3.10203,3.70884 -6.03787,7.48005 -8.96312,11.25602 -2.1534,3.22629 -4.42888,6.41043 -6.86113,9.5436 -1.37942,1.77663 -5.07663,0.45092 -3.69722,-1.32571 l 0,0 c 2.43241,-3.1323 4.69864,-6.31831 6.85944,-9.54141 2.85795,-3.68835 5.69146,-7.38634 8.78072,-10.98756 1.0978,-1.8651 4.97912,-0.81003 3.88131,1.05506 z"
       inkscape:connector-curvature="0" />
    <path
       inkscape:connector-curvature="0"
       d="m 425.21164,345.29072 c -3.10203,3.70884 -6.03787,7.48005 -8.96312,11.25602 -2.1534,3.22629 -4.42888,6.41043 -6.86113,9.5436 -1.37942,1.77663 -5.07663,0.45092 -3.69722,-1.32571 l 0,0 c 2.43241,-3.1323 4.69864,-6.31831 6.85944,-9.54141 2.85795,-3.68835 5.69146,-7.38634 8.78072,-10.98756 1.0978,-1.8651 4.97912,-0.81003 3.88131,1.05506 z"
       id="path4693"
       style="fill:#000000;fill-opacity:1;fill-rule:nonzero;stroke:none" />
    <path
       style="fill:#000000;fill-opacity:1;fill-rule:nonzero;stroke:none"
       id="path4695"
       d="m 335.23336,246.22255 c -1.65611,-1.53441 -2.72532,-3.22717 -2.36727,-5.53156 0.37894,-1.61952 1.59163,-2.53056 3.11772,-2.97338 0.66215,-0.18868 1.34854,-0.16085 2.02895,-0.1558 1.55941,-0.15609 2.66014,0.6553 3.58504,1.79947 1.16344,1.32007 1.50668,3.00301 1.72916,4.69177 0.38292,2.4698 -0.19658,4.41591 -2.04382,6.09514 -1.86345,1.10016 -3.98084,1.28939 -6.0922,1.38086 -1.67796,0.0912 -3.23971,0.095 -4.79068,-0.61604 -1.70883,-0.83104 -1.82859,-2.68998 -2.47413,-4.24378 -0.64445,-1.5683 -0.92699,-3.22593 -1.08295,-4.9035 -0.0562,-0.67392 -0.0888,-1.34947 -0.0937,-2.0256 1.59607,-1.847 1.87984,-2.21151 3.81614,-2.90493 1.30936,-0.40345 2.66594,-0.5531 4.02731,-0.62926 1.49508,-0.20834 2.80937,0.19952 4.16959,0.77114 1.12259,0.62371 2.02067,1.53464 2.77406,2.56038 0.49601,0.61331 0.57498,1.4145 0.57413,2.17811 0.0691,0.91394 -0.33454,1.75935 -0.91576,2.45558 -0.84846,1.01442 -1.79114,1.8587 -2.9646,2.47461 -0.39015,0.74624 -1.09307,1.25407 -1.83872,1.64059 -0.72018,0.32977 -1.46819,0.438 -2.25175,0.45509 -1.33119,0.10711 -2.44757,-0.12977 -3.50531,-1.00417 -0.96976,-0.36289 -1.57221,-1.22757 -2.02628,-2.11819 -0.52457,-1.17593 -0.45724,-2.49351 -0.46782,-3.75219 -0.003,-1.03063 0.002,-2.06128 0.009,-3.09189 -0.10804,-1.63735 1.41128,-2.54226 2.82329,-2.61004 1.40052,-0.0433 2.75511,-0.0395 4.1208,0.27498 1.89228,0.54992 3.10802,1.53683 3.8105,3.41883 0.65424,2.20048 0.0401,4.41814 -0.47384,6.57788 -0.96493,2.38742 -1.8131,3.76342 -4.43254,4.46357 -2.00641,0.15232 -3.71776,-0.71838 -5.35209,-1.76846 -1.20261,-1.02479 -1.74394,-2.30265 -1.88885,-3.83741 -0.20395,-1.75864 0.65186,-3.17842 1.78379,-4.43286 0.8438,-1.21492 2.02204,-2.151 3.32446,-2.8187 1.62912,-0.35811 2.91654,0.19079 3.99035,1.36931 0.16737,0.18689 0.29558,0.39968 0.41883,0.61643 1.37761,2.61528 -2.32095,4.56351 -3.69856,1.94823 l 0,0 c 0.0424,0.064 0.0744,0.13863 0.13471,0.18921 0.27487,-0.10696 0.54512,-0.23646 0.83418,-0.2951 -0.62612,0.33544 -1.48143,1.11695 -1.94169,1.83621 -0.71469,0.72311 -0.72021,0.50602 -0.68067,1.23452 0.0156,0.24533 0.13254,0.62192 -0.007,0.6795 0.76253,0.49705 1.5215,1.01629 2.43487,1.14931 -0.46818,0.67512 1.1208,-1.00147 1.01396,-1.30301 0.33051,-1.38398 0.8307,-2.81792 0.58932,-4.24285 -0.1444,-0.54703 0.42623,-0.10656 0.28469,-0.20338 -0.41015,-0.28055 -0.95921,-0.35733 -1.39305,-0.5918 -0.58622,-0.0816 -1.87066,-0.11323 -2.73385,-0.0864 -0.68061,-0.006 1.48174,-3.08281 1.21874,-1.54054 -0.007,1.01001 -0.012,2.02006 -0.009,3.0301 0.005,0.60518 0.006,1.52849 0.0459,1.95602 0.0154,0.0575 0.10196,0.19299 0.0461,0.17249 -0.11326,-0.0415 -0.4207,-0.23521 -0.32075,-0.16765 0.48419,0.32724 1.06018,0.52233 1.47175,0.96128 -1.45019,-0.70783 -0.841,0.0109 0.49671,-0.19279 0.20419,-0.003 0.33979,0.0232 0.55572,-0.06 -0.6448,1.02777 1.17889,-1.59367 1.73011,-1.5877 0.68688,-0.31404 1.15113,-0.89646 1.66942,-1.45714 0.43628,-0.48355 -0.24749,1.52696 -0.0851,0.2478 0.004,-0.85352 0.0912,0.2437 0.22281,0.28779 -0.31169,-0.41697 -0.66729,-0.78997 -1.02345,-1.16729 -0.86477,-0.36953 -1.27048,-0.61918 -2.30674,-0.44543 -0.96278,0.0522 -1.92128,0.14021 -2.85593,0.39366 -1.4015,0.49466 -4.65486,2.48449 -1.03736,-1.01681 0.002,0.54341 0.0348,1.08622 0.0763,1.62795 0.11355,1.26484 0.3016,2.51494 0.78799,3.69899 0.24733,0.60943 0.74619,1.43775 0.7,2.11376 -0.009,0.13565 -0.2518,-0.10395 -0.38209,-0.14283 -0.0634,-0.0189 0.10559,0.0798 0.15838,0.11971 0.622,0.45646 1.88612,0.0875 2.74417,0.17813 1.25252,-0.0513 2.50168,-0.13777 3.70702,-0.5078 0.77222,0.20667 0.50368,-1.94477 0.45939,-2.25726 -0.11548,-0.92256 -0.17693,-1.88392 -0.83497,-2.59922 -0.77959,-0.96575 1.63222,0.002 -0.36438,-0.24619 -0.29584,-0.002 -0.59846,-0.0301 -0.89165,0.007 -0.64719,0.14246 0.33223,-0.79524 -0.14022,-0.16416 -0.99444,-1.21478 0.98697,1.78868 1.23955,1.68188 2.09016,2.09015 -0.86577,5.04607 -2.95592,2.95592 z"
       inkscape:connector-curvature="0" />
    <path
       style="fill:#000000;fill-opacity:1;fill-rule:nonzero;stroke:none"
       id="path4701"
       d="m 377.24899,265.51657 c -1.57996,-0.25014 -3.2144,-0.70958 -4.79777,-0.31056 -1.9902,0.79479 -2.50809,2.95736 -2.96995,4.67034 -0.65106,2.87783 -0.64339,5.81496 0.22772,8.64679 0.58847,1.39711 1.69132,2.4772 3.43947,2.51039 1.42953,-0.32194 1.88505,-1.6205 2.4215,-2.70697 0.45084,-1.10725 0.80237,-2.24786 1.03105,-3.40797 0.0902,-0.44773 -0.37517,-0.0145 2.91621,0.27811 -0.0966,1.5591 0.0208,3.09587 0.26576,4.6384 0.0559,0.34511 0.11139,0.69025 0.16765,1.0353 0.1195,0.7331 0.2411,1.46592 0.364,2.19857 0.0752,0.44821 0.0529,0.53957 0.0826,0.27521 -0.14101,-0.43733 -0.47161,-0.2504 -1.15775,-0.39368 1.99376,-0.49456 2.78047,2.01218 0.78671,2.50674 l 0,0 c -1.27653,-0.13421 -1.54374,-0.0427 -2.22444,-0.90957 -0.62728,-1.3764 -0.60548,-2.8999 -0.9176,-4.35078 -0.2719,-1.73094 -0.39877,-3.46081 -0.28475,-5.20895 2.86618,-0.45666 3.1369,-1.16643 2.88422,0.38379 -0.27404,1.36815 -0.68556,2.71491 -1.24008,4.0147 -1.10392,2.17401 -2.42732,4.13139 -5.39949,4.23547 -2.96509,-0.37253 -4.98707,-1.87027 -5.96419,-4.43063 -0.95275,-3.26578 -1.03048,-6.62479 -0.24129,-9.93588 0.77022,-2.7317 1.86988,-5.58474 5.14738,-6.58376 2.08411,-0.38507 4.11342,-0.11736 6.17306,0.32016 2.0081,0.44632 1.29813,2.9711 -0.70998,2.52478 z"
       inkscape:connector-curvature="0" />
    <path
       style="fill:#000000;fill-opacity:1;fill-rule:nonzero;stroke:none"
       id="path4703"
       d="m 371.8241,271.73164 c 2.22552,0 4.45104,0 6.67655,0 1.40623,-0.0326 2.81065,0.13757 4.17191,-0.20149 0.217,-0.0499 0.43399,-0.0999 0.65099,-0.14986 2.00391,-0.461 2.73722,2.05851 0.73331,2.5195 l 0,0 c -0.20564,0.0473 -0.41128,0.0946 -0.61692,0.14183 -1.62631,0.38416 -3.26651,0.3077 -4.93929,0.29251 -2.22551,0 -4.45103,0 -6.67655,0 -2.06991,0 -2.06991,-2.60249 0,-2.60249 z"
       inkscape:connector-curvature="0" />
    <path
       style="fill:#000000;fill-opacity:1;fill-rule:nonzero;stroke:none"
       id="path4705"
       d="m 394.24397,280.07232 c 0.41342,1.59559 0.63466,3.2214 0.78791,4.85081 0.0461,2.20409 -1.56352,3.30933 -3.7503,3.89057 -0.22788,0.0449 -0.45577,0.0897 -0.68366,0.13458 -2.02306,0.38926 -2.64227,-2.15434 -0.61919,-2.5436 l 0,0 c 0.16392,-0.0305 0.32785,-0.0611 0.49177,-0.0916 0.8418,-0.20344 1.61561,-0.25852 1.6442,-1.17382 -0.13918,-1.48966 -0.33779,-2.97606 -0.71062,-4.43578 -0.50203,-1.78529 2.33787,-2.41648 2.83989,-0.63119 z"
       inkscape:connector-curvature="0" />
    <path
       style="fill:#000000;fill-opacity:1;fill-rule:nonzero;stroke:none"
       id="path4707"
       d="m 410.68237,263.97525 c -2.09015,1.28546 -3.63889,2.88713 -4.62894,4.95902 -0.91976,2.37084 -1.25544,4.65893 -0.0156,6.95786 1.25426,1.34308 3.11078,1.66891 4.9622,1.87106 0.22955,-0.0153 0.4591,-0.0306 0.68866,-0.0459 2.0679,-0.0809 2.19661,2.51905 0.1287,2.59996 l 0,0 c -0.39603,0.009 -0.79207,0.0183 -1.1881,0.0275 -2.8988,-0.33916 -5.57299,-1.08662 -7.25974,-3.3823 -1.58877,-3.265 -1.26761,-5.75942 0.003,-9.0746 1.24534,-2.45988 3.03442,-4.45336 5.55279,-5.99456 1.65592,-1.10414 3.4123,0.97785 1.75637,2.08199 z"
       inkscape:connector-curvature="0" />
    <path
       style="fill:#000000;fill-opacity:1;fill-rule:nonzero;stroke:none"
       id="path4709"
       d="m 421.19214,265.72935 c -1.62717,0.9387 -2.41039,2.45981 -2.96449,4.04504 -0.20812,1.77796 -0.4522,3.45052 1.3192,4.59819 1.57659,0.85338 2.88032,0.50428 4.37999,-0.24539 1.62098,-1.02216 2.61637,-2.47401 2.873,-4.22029 0.16252,-1.58675 -0.63845,-3.01605 -1.79362,-4.18324 -0.96496,-0.70552 -2.22332,-0.83883 -3.42598,-0.93763 -0.51059,-0.18293 -1.33948,0.2185 -0.35833,-0.0777 -1.59944,1.16811 -3.45757,-0.84285 -1.85814,-2.01096 l 0,0 c 0.78896,-0.46889 1.55254,-0.6392 2.4954,-0.50195 1.98558,0.17363 3.92555,0.55464 5.39085,1.85688 1.65143,1.80623 2.75957,3.89391 2.4379,6.2792 -0.5309,2.53553 -1.88579,4.66281 -4.37332,6.08718 -2.76402,1.28406 -4.93885,1.50997 -7.65664,-0.0579 -2.81184,-2.26285 -2.72633,-4.20899 -2.21881,-7.37818 0.82636,-2.25263 2.06615,-4.33709 4.44386,-5.58097 1.85139,-0.82297 3.16051,1.50476 1.30913,2.32774 z"
       inkscape:connector-curvature="0" />
    <path
       style="fill:#000000;fill-opacity:1;fill-rule:nonzero;stroke:none"
       id="path4711"
       d="m 438.15333,264.45742 c 0.46577,2.25791 0.18752,4.5888 0.0847,6.87013 -0.15297,1.63398 -0.65492,3.21661 -0.97066,4.82635 -0.0736,0.41094 -0.13706,0.82362 -0.1719,1.23866 -3.78588,-0.32919 -2.92332,0.13725 -2.92025,-2.42119 -0.019,-2.02168 0.43868,-4.01901 0.72057,-6.02008 0.0192,-1.25007 0.41865,-2.405 0.959,-3.54422 0.12765,-0.35601 0.21472,-0.72156 0.28136,-1.08995 -0.004,-0.0666 0.024,-0.12328 0.38411,-0.97292 0.31595,-0.34824 0.70718,-0.63046 1.12141,-0.88045 0.34716,-0.22707 0.7867,-0.27947 1.21238,-0.27937 1.94959,0.48796 2.41074,2.20533 2.99996,3.73894 0.61222,1.70893 1.06177,3.47475 1.90208,5.1097 0.36349,0.74766 0.7092,1.50265 1.01718,2.26987 0.37534,1.02956 -0.18557,-0.84 -1.64912,-0.60528 0.53249,-0.34407 1.1982,-1.95939 1.58808,-2.82456 0.53289,-1.67941 1.22276,-3.31419 1.75147,-4.9953 0.23911,-0.9626 0.74804,-1.84875 1.34098,-2.67428 0.56158,-0.78285 0.74826,-0.60671 2.08657,-0.79503 1.68339,0.85457 1.94972,2.7204 2.40492,4.2496 0.58345,2.55755 1.15243,5.10241 2.07259,7.58279 0.31153,0.76802 0.45513,1.61446 1.22,2.12635 -0.29582,-0.17919 -0.005,-0.11379 0.13829,-0.11498 2.06949,0.037 2.01053,2.63902 -0.059,2.60195 l 0,0 c -0.65666,-0.0178 -1.26796,-0.0961 -1.84514,-0.41129 -1.22538,-0.86514 -1.81633,-2.06906 -2.23448,-3.38768 -0.93657,-2.52993 -1.54199,-5.12052 -2.1222,-7.73138 -0.17995,-0.60462 -0.33011,-1.21633 -0.52391,-1.81757 -0.0952,-0.29522 -0.35205,-0.53698 -0.44104,-0.83373 -0.0452,-0.15052 0.57347,0.53459 0.47131,0.20696 0.42894,-0.0989 1.60877,-0.54666 1.29455,-0.26886 -0.44238,0.60591 -0.82475,1.25515 -0.98474,1.96924 -0.55961,1.7725 -1.27856,3.49904 -1.85523,5.26626 -0.64297,1.41039 -1.29923,3.17069 -2.77305,4.0702 -1.11084,0.36731 -2.1435,0.60151 -2.63832,-0.73978 -0.28015,-0.70011 -0.5972,-1.38824 -0.92687,-2.07092 -0.86707,-1.71812 -1.38819,-3.5482 -2.00681,-5.34549 -0.42311,-1.11544 -0.15447,-0.4535 -0.61209,-1.48872 -0.18589,-0.42051 -0.084,-0.23076 -0.25722,-0.54248 -0.0149,-0.0268 -0.0791,-0.0828 -0.0457,-0.0798 0.23287,0.0211 0.45661,0.0918 0.6849,0.13777 -0.5026,-5.1e-4 0.39255,-0.10204 0.42411,-0.16412 -0.11801,0.0717 -0.26549,0.18645 -0.36704,0.22555 0.30811,-1.23735 0.12644,-0.45374 0.1219,-0.14508 -0.10022,0.58417 -0.25326,1.16193 -0.48035,1.71796 -0.44487,0.93091 -0.76003,1.82166 -0.75031,2.85363 -0.26711,1.89483 -0.70551,3.78634 -0.69787,5.69935 -0.003,2.50895 0.8378,2.12247 -2.93336,2.40138 -0.0566,0.004 0.061,-0.15836 0.005,-0.15158 0.0386,-0.51034 0.12116,-1.01729 0.21028,-1.52228 0.29944,-1.49428 0.7451,-2.9663 0.92848,-4.47835 0.0918,-2.0354 0.34215,-4.11529 3.7e-4,-6.13472 -0.50203,-1.78529 2.33787,-2.41649 2.83989,-0.63119 z"
       inkscape:connector-curvature="0" />
    <path
       style="fill:#000000;fill-opacity:1;fill-rule:nonzero;stroke:none"
       id="path4713"
       d="m 355.72676,268.92564 c -1.18084,-1.41871 -2.24738,-2.92841 -3.29166,-4.44914 -0.36332,-0.92368 -1.11105,-1.52838 -1.71291,-2.30033 -1.34679,-1.40576 -2.52161,-2.96751 -3.4612,-4.67149 -0.54473,-1.5324 -1.24471,-2.98677 -1.93733,-4.45994 -0.41805,-0.89222 0.84374,-1.48344 1.26179,-0.59121 l 0,0 c 0.675,1.44516 1.37455,2.8736 1.89664,4.37991 0.90172,1.64603 2.05295,3.1358 3.34629,4.49538 0.59227,0.79145 1.38219,1.42777 1.75543,2.35893 0.99605,1.45074 2.01545,2.88837 3.12826,4.25258 0.69672,0.69672 -0.28859,1.68203 -0.98531,0.98531 z"
       inkscape:connector-curvature="0" />
    <path
       style="fill:#000000;fill-opacity:1;fill-rule:nonzero;stroke:none"
       id="path4725"
       d="m 511.93263,349.25752 c -0.17033,1.92017 -0.94749,3.70299 -1.56958,5.49603 -0.34465,1.2758 -0.926,2.45511 -1.39033,3.68321 -0.0549,0.13429 -0.16686,0.46885 -0.19621,0.55781 0.006,-0.0288 0.0459,-0.0796 0.0186,-0.0865 -2.1109,-0.53429 -2.03097,0.10159 -1.75132,-1.87411 0.52523,-1.46277 1.2129,-2.87102 1.87916,-4.27191 0.45757,-1.11311 0.97416,-2.19282 1.56605,-3.23283 0.13855,-0.23235 0.27078,-0.47092 0.4382,-0.68195 0.95138,-0.29815 0.67958,-0.29466 1.18455,-0.30327 10e-4,-1.2e-4 0.003,0.001 0.005,0.003 0.73939,-0.0872 1.25095,0.45489 1.69646,0.98609 0.90495,1.02838 1.75738,2.09379 2.49927,3.25966 0.60643,0.66595 0.95336,1.56959 1.58998,2.1983 0.36401,0.46444 0.19166,0.20314 0.50083,0.79553 0.58947,1.24672 -1.08113,2.12653 -1.67061,0.87981 l 0,0 c -0.0498,-0.17735 -0.0101,-0.0861 -0.13433,-0.26525 -0.71341,-0.75168 -1.18064,-1.7096 -1.83897,-2.51479 -0.68951,-1.09936 -1.50543,-2.08463 -2.3497,-3.05383 -0.48454,-0.59026 -0.56421,-0.44122 -0.0329,-0.33427 -0.0744,0.009 -0.14879,0.0155 -0.22367,0.016 -0.44148,0.009 -1.50925,0.009 0.17457,-0.36318 -0.0806,0.13039 -0.1595,0.26207 -0.23824,0.39378 -0.56874,0.99715 -1.05743,2.03537 -1.49794,3.1024 -0.58686,1.23042 -1.1458,2.47947 -1.70725,3.72054 -0.31577,1.5219 0.67952,1.41131 -1.92921,1.20903 -0.0332,-0.003 0.0141,-0.0687 0.0212,-0.10292 0.0752,-0.26038 0.16869,-0.5142 0.26289,-0.76752 0.45825,-1.21053 1.03097,-2.37276 1.37111,-3.63023 0.54805,-1.57869 1.22607,-3.14437 1.45569,-4.81834 0,-1.39332 1.86704,-1.39332 1.86704,0 z"
       inkscape:connector-curvature="0" />
    <path
       style="fill:#000000;fill-opacity:1;fill-rule:nonzero;stroke:none"
       id="path4727"
       d="m 513.2239,350.25362 c 0.37037,1.36967 0.44081,2.79335 0.50471,4.20747 0.0829,2.80278 0.0726,5.60766 0.0752,8.41149 7.1e-4,3.53148 -10e-4,7.06295 -0.003,10.59443 -6.7e-4,1.84948 -10e-4,3.69898 -10e-4,5.54846 -2e-5,0.2564 -6e-5,0.51277 -3e-5,0.76915 0,-0.001 -2e-5,-0.003 -2e-5,-0.005 0.009,1.39328 -1.85867,1.40572 -1.867,0.012 l 0,0 c -10e-6,-0.003 -2e-5,-0.004 -2e-5,-0.007 -3e-5,-0.25674 10e-6,-0.51346 3e-5,-0.7702 2.4e-4,-1.84966 6.7e-4,-3.6993 10e-4,-5.54896 0.001,-3.53057 0.004,-7.06115 0.003,-10.59173 -0.003,-2.77343 0.008,-5.54788 -0.0731,-8.32028 -0.0571,-1.28441 -0.1118,-2.57896 -0.45106,-3.82271 -0.32018,-1.35171 1.49111,-1.82962 1.81131,-0.4779 z"
       inkscape:connector-curvature="0" />
    <path
       inkscape:connector-curvature="0"
       d="m 503.53747,344.88736 c -1.81654,-0.20963 -3.4935,-1.05747 -5.18256,-1.74183 -1.20334,-0.38354 -2.31158,-1.01535 -3.46786,-1.52446 -0.12638,-0.0601 -0.4416,-0.18337 -0.52541,-0.21573 0.0272,0.007 0.0747,0.0496 0.0817,0.0209 0.53903,-2.21923 -0.0647,-2.14478 1.80279,-1.81894 1.37767,0.57701 2.70116,1.32458 4.018,2.04946 1.04745,0.50016 2.06234,1.0621 3.03844,1.70287 0.21798,0.14983 0.44194,0.29307 0.63927,0.47303 0.26766,1.00859 0.26858,0.72171 0.26889,1.25473 8e-5,10e-4 -0.001,0.003 -0.003,0.005 0.0711,0.7816 -0.45043,1.31301 -0.96063,1.77486 -0.98837,0.93896 -2.011,1.82191 -3.1271,2.58666 -0.64036,0.62959 -1.50187,0.98162 -2.10741,1.64364 -0.44569,0.3769 -0.19545,0.19909 -0.76149,0.51613 -1.19033,0.60264 -1.99786,-1.17396 -0.80754,-1.77661 l 0,0 c 0.16879,-0.0497 0.0817,-0.009 0.25339,-0.13763 0.72324,-0.74114 1.63805,-1.21929 2.41113,-1.90147 1.05227,-0.7105 1.99842,-1.55619 2.92978,-2.43202 0.56675,-0.50213 0.42679,-0.58852 0.31719,-0.0295 -0.008,-0.0787 -0.0126,-0.15726 -0.0114,-0.23629 -0.003,-0.46602 0.0147,-1.59279 0.34137,0.18988 -0.12228,-0.0871 -0.24581,-0.1724 -0.36936,-0.25754 -0.93587,-0.61568 -1.91189,-1.14753 -2.91593,-1.62898 -1.15658,-0.63843 -2.33125,-1.24769 -3.49831,-1.85947 -1.43694,-0.35689 -1.34765,0.6951 -1.11543,-2.05463 0.003,-0.0351 0.0648,0.016 0.0972,0.024 0.24551,0.0833 0.48452,0.18602 0.72306,0.28936 1.13973,0.50241 2.23193,1.12486 3.41797,1.50337 1.48713,0.60289 2.95992,1.34272 4.54228,1.61109 1.32003,0.0217 1.29099,1.99188 -0.0291,1.9702 z"
       id="path4729"
       style="fill:#000000;fill-opacity:1;fill-rule:nonzero;stroke:none" />
    <path
       inkscape:connector-curvature="0"
       d="m 502.57367,346.23448 c -1.30341,0.36953 -2.65331,0.42171 -3.99405,0.46714 -2.65665,0.0439 -5.31386,-0.0107 -7.97027,-0.0516 -3.34575,-0.0541 -6.69146,-0.11119 -10.03719,-0.16749 -1.75219,-0.0295 -3.50442,-0.0587 -5.25663,-0.0876 -0.2429,-0.004 -0.48579,-0.008 -0.72869,-0.012 0.001,2e-5 0.003,4e-5 0.005,8e-5 -1.32014,-0.012 -1.30287,-1.98326 0.0177,-1.97036 l 0,0 c 0.003,3e-5 0.004,3e-5 0.006,7e-5 0.24324,0.004 0.48646,0.008 0.7297,0.012 1.75237,0.0291 3.50472,0.0583 5.25709,0.0877 3.34486,0.0563 6.68972,0.11386 10.03464,0.16746 2.62761,0.0405 5.25598,0.0943 7.88382,0.0523 1.21776,-0.0403 2.44506,-0.0779 3.62868,-0.41651 1.2856,-0.31684 1.71019,1.60197 0.42459,1.91884 z"
       id="path4731"
       style="fill:#000000;fill-opacity:1;fill-rule:nonzero;stroke:none" />
    <path
       inkscape:connector-curvature="0"
       d="m 588.78662,347.2869 c -0.17033,1.92017 -0.94749,3.70299 -1.56958,5.49603 -0.34465,1.2758 -0.926,2.45511 -1.39033,3.68321 -0.0549,0.13429 -0.16686,0.46885 -0.19621,0.55781 0.006,-0.0288 0.0459,-0.0796 0.0186,-0.0865 -2.1109,-0.53429 -2.03097,0.10159 -1.75132,-1.87411 0.52523,-1.46277 1.2129,-2.87102 1.87916,-4.27191 0.45757,-1.11311 0.97416,-2.19282 1.56605,-3.23283 0.13855,-0.23235 0.27078,-0.47092 0.4382,-0.68195 0.95138,-0.29815 0.67958,-0.29466 1.18455,-0.30327 10e-4,-1.2e-4 0.003,0.001 0.005,0.003 0.73939,-0.0872 1.25095,0.45489 1.69646,0.98609 0.90495,1.02838 1.75738,2.09379 2.49927,3.25966 0.60643,0.66595 0.95336,1.56959 1.58998,2.1983 0.36401,0.46444 0.19166,0.20314 0.50083,0.79553 0.58947,1.24672 -1.08113,2.12653 -1.67061,0.87981 l 0,0 c -0.0498,-0.17735 -0.0101,-0.0861 -0.13433,-0.26525 -0.71341,-0.75168 -1.18064,-1.7096 -1.83897,-2.51479 -0.68951,-1.09936 -1.50543,-2.08463 -2.3497,-3.05383 -0.48454,-0.59026 -0.56421,-0.44122 -0.0329,-0.33427 -0.0744,0.009 -0.14879,0.0155 -0.22367,0.016 -0.44148,0.009 -1.50925,0.009 0.17457,-0.36318 -0.0806,0.13039 -0.1595,0.26207 -0.23824,0.39378 -0.56874,0.99715 -1.05743,2.03537 -1.49794,3.1024 -0.58686,1.23042 -1.1458,2.47947 -1.70725,3.72054 -0.31577,1.5219 0.67952,1.41131 -1.92921,1.20903 -0.0332,-0.003 0.0141,-0.0687 0.0212,-0.10292 0.0752,-0.26038 0.16869,-0.5142 0.26289,-0.76752 0.45825,-1.21053 1.03097,-2.37276 1.37111,-3.63023 0.54805,-1.57869 1.22607,-3.14437 1.45569,-4.81834 0,-1.39332 1.86704,-1.39332 1.86704,0 z"
       id="path4741"
       style="fill:#000000;fill-opacity:1;fill-rule:nonzero;stroke:none" />
    <path
       inkscape:connector-curvature="0"
       d="m 590.07789,348.283 c 0.37037,1.36967 0.44081,2.79335 0.50471,4.20747 0.0829,2.80278 0.0726,5.60766 0.0752,8.41149 7.1e-4,3.53148 -10e-4,7.06295 -0.003,10.59443 -6.7e-4,1.84948 -10e-4,3.69898 -10e-4,5.54846 -2e-5,0.2564 -6e-5,0.51277 -3e-5,0.76915 0,-0.001 -2e-5,-0.003 -2e-5,-0.005 0.009,1.39328 -1.85867,1.40572 -1.867,0.012 l 0,0 c -10e-6,-0.003 -2e-5,-0.004 -2e-5,-0.007 -3e-5,-0.25674 10e-6,-0.51346 3e-5,-0.7702 2.4e-4,-1.84966 6.7e-4,-3.6993 0.001,-5.54896 10e-4,-3.53057 0.004,-7.06115 0.003,-10.59173 -0.003,-2.77343 0.008,-5.54788 -0.0731,-8.32028 -0.0571,-1.28441 -0.1118,-2.57896 -0.45106,-3.82271 -0.32018,-1.35171 1.49111,-1.82962 1.81131,-0.4779 z"
       id="path4743"
       style="fill:#000000;fill-opacity:1;fill-rule:nonzero;stroke:none" />
    <path
       style="fill:#000000;fill-opacity:1;fill-rule:nonzero;stroke:none"
       id="path4745"
       d="m 580.39146,342.91674 c -1.81654,-0.20963 -3.4935,-1.05747 -5.18256,-1.74183 -1.20334,-0.38354 -2.31158,-1.01535 -3.46786,-1.52446 -0.12638,-0.0601 -0.4416,-0.18337 -0.52541,-0.21573 0.0272,0.007 0.0747,0.0496 0.0817,0.0209 0.53903,-2.21923 -0.0647,-2.14478 1.80279,-1.81894 1.37767,0.57701 2.70116,1.32458 4.018,2.04946 1.04745,0.50016 2.06234,1.0621 3.03844,1.70287 0.21798,0.14983 0.44194,0.29307 0.63927,0.47303 0.26766,1.00859 0.26858,0.72171 0.26889,1.25473 8e-5,0.001 -10e-4,0.003 -0.003,0.005 0.0711,0.7816 -0.45043,1.31301 -0.96063,1.77486 -0.98837,0.93896 -2.011,1.82191 -3.1271,2.58666 -0.64036,0.62959 -1.50187,0.98162 -2.10741,1.64364 -0.44569,0.3769 -0.19545,0.19909 -0.76149,0.51613 -1.19033,0.60264 -1.99786,-1.17396 -0.80754,-1.77661 l 0,0 c 0.16879,-0.0497 0.0817,-0.009 0.25339,-0.13763 0.72324,-0.74114 1.63805,-1.21929 2.41113,-1.90147 1.05227,-0.7105 1.99842,-1.55619 2.92978,-2.43202 0.56675,-0.50213 0.42679,-0.58852 0.31719,-0.0295 -0.008,-0.0787 -0.0126,-0.15726 -0.0114,-0.23629 -0.003,-0.46602 0.0147,-1.59279 0.34137,0.18988 -0.12228,-0.0871 -0.24581,-0.1724 -0.36936,-0.25754 -0.93587,-0.61568 -1.91189,-1.14753 -2.91593,-1.62898 -1.15658,-0.63843 -2.33125,-1.24769 -3.49831,-1.85947 -1.43694,-0.35689 -1.34765,0.6951 -1.11543,-2.05463 0.003,-0.0351 0.0648,0.016 0.0972,0.024 0.24551,0.0833 0.48452,0.18602 0.72306,0.28936 1.13973,0.50241 2.23193,1.12486 3.41797,1.50337 1.48713,0.60289 2.95992,1.34272 4.54228,1.61109 1.32003,0.0217 1.29099,1.99188 -0.0291,1.9702 z"
       inkscape:connector-curvature="0" />
    <path
       style="fill:#000000;fill-opacity:1;fill-rule:nonzero;stroke:none"
       id="path4747"
       d="m 579.42766,344.26386 c -1.30341,0.36953 -2.65331,0.42171 -3.99405,0.46714 -2.65665,0.0439 -5.31386,-0.0107 -7.97027,-0.0516 -3.34575,-0.0541 -6.69146,-0.11119 -10.03719,-0.16749 -1.75219,-0.0295 -3.50442,-0.0587 -5.25663,-0.0876 -0.2429,-0.004 -0.48579,-0.008 -0.72869,-0.012 10e-4,2e-5 0.003,4e-5 0.005,8e-5 -1.32014,-0.012 -1.30287,-1.98326 0.0177,-1.97036 l 0,0 c 0.003,3e-5 0.004,3e-5 0.006,7e-5 0.24324,0.004 0.48646,0.008 0.7297,0.012 1.75237,0.0291 3.50472,0.0583 5.25709,0.0877 3.34486,0.0563 6.68972,0.11386 10.03464,0.16746 2.62761,0.0405 5.25598,0.0943 7.88382,0.0523 1.21776,-0.0403 2.44506,-0.0779 3.62868,-0.41651 1.2856,-0.31684 1.71019,1.60197 0.42459,1.91884 z"
       inkscape:connector-curvature="0" />
    <path
       style="fill:#000000;fill-opacity:1;fill-rule:nonzero;stroke:none"
       id="path4753"
       d="m 551.62479,220.36872 c 1.34648,1.09454 2.42802,2.40717 3.27966,3.91239 1.32158,3.4003 0.41941,5.54968 -2.50582,7.56448 -1.64966,0.85519 -3.57647,1.4349 -5.44084,0.94887 -0.47678,-0.1243 -0.92101,-0.35047 -1.38152,-0.5257 -0.4174,-0.31955 -0.88224,-0.58521 -1.25221,-0.95865 -1.66483,-1.68045 -1.72566,-3.92748 -1.45634,-6.10391 0.4907,-2.46022 1.99782,-4.36663 3.9112,-5.89315 1.90088,-1.30375 4.34423,-1.52883 6.24845,-0.0158 1.0859,0.86284 1.24611,1.48476 1.76837,2.61188 0.68002,1.87964 0.67046,3.77665 0.20424,5.69365 -1.06473,3.12502 -3.85379,4.62239 -7.00028,2.934 -0.58379,-0.31326 -0.93828,-0.93562 -1.40742,-1.40342 -3.37771,-4.4337 2.89248,-9.2105 6.27019,-4.77681 l 0,0 c -0.25178,-0.1825 -0.46084,-0.44768 -0.75535,-0.5475 -2.02147,-0.68517 -3.85621,-0.46437 -4.67154,1.57718 0.007,0.51648 0.10528,-0.40733 0.0296,-0.57949 1.02248,1.24169 1.93962,1.39066 3.51988,1.12846 0.36251,-0.0601 0.39086,-0.1279 0.52219,-0.31536 -0.31886,0.0397 -0.69191,0.60525 -0.85479,0.8236 -0.005,0.009 -0.12029,0.14844 -0.14611,0.11272 -0.40733,-0.5634 -0.68516,-1.07911 -1.40402,-1.33726 -0.48359,-0.1214 -0.5791,-0.21289 -1.00207,-0.15117 -0.0177,0.003 0.0602,0.0159 0.0463,0.0273 -0.0565,0.0462 -0.25773,0.0556 -0.19685,0.0958 0.19718,0.13039 0.28864,-0.20483 0.21839,0.004 -0.37228,0.9761 -0.90516,1.79236 -0.21856,2.79641 -0.16712,-0.55583 -0.72827,-0.87802 -1.05426,-1.31628 -4.459,-3.34425 0.27048,-9.65021 4.72947,-6.30597 z"
       inkscape:connector-curvature="0" />
    <path
       style="fill:#000000;fill-opacity:1;fill-rule:nonzero;stroke:none"
       id="path4761"
       d="m 598.48772,226.7935 c -2.98773,0 -5.97546,0 -8.9632,0 -5.70472,0 -11.40945,0 -17.11418,0 -3.53709,0 -7.07419,0 -10.61128,0 -0.66068,0 -1.32136,0 -1.98204,0 0.006,-0.62052 0.28499,-4.59397 0.0345,0 -3.27318,-0.149 -0.0528,-2.11923 0.21305,-2.32684 1.5578,-0.92338 3.03336,-1.93083 4.38798,-3.13381 0.82172,-0.76398 1.62181,-1.55212 2.38457,-2.37516 0.47105,-0.52027 -0.0112,-0.20589 1.15751,1.38586 -0.59654,0.4038 -1.25316,0.6991 -1.90214,1.00756 -1.35608,0.63588 -2.62334,1.43944 -3.90118,2.21602 -0.81456,0.55429 -1.64203,1.08352 -2.52821,1.51614 -0.81403,0.32389 -0.80511,0.59424 0.16916,-0.96193 0.42545,0.72641 0.95829,1.3769 1.49892,2.01949 1.08355,1.30807 2.33539,2.45201 3.61897,3.55788 0.46615,0.41425 1.00154,0.73445 1.52007,1.07743 0.47478,0.28285 0.93631,0.53804 1.31945,0.94888 0.17545,0.19742 0.31572,0.41754 0.408,0.66446 0.19069,0.78685 0.0877,0.14692 -1.92574,0.26935 -0.0948,-1.3902 1.87129,-1.52422 1.96605,-0.13401 l 0,0 c -1.99146,0.35269 -2.10786,-0.29424 -1.9134,0.47691 0.035,0.0889 0.0989,0.19008 0.005,0.047 -0.25214,-0.30271 -0.64813,-0.37751 -0.95192,-0.6324 -0.58294,-0.39182 -1.18864,-0.75447 -1.71427,-1.22489 -1.3634,-1.17538 -2.69017,-2.39465 -3.84189,-3.78373 -0.68381,-0.81646 -1.38181,-1.65173 -1.84365,-2.61893 0.89293,-1.88586 0.12554,-1.1408 0.82272,-1.47748 0.83267,-0.40355 1.59947,-0.91378 2.36704,-1.42821 1.3354,-0.81155 2.66121,-1.64838 4.07886,-2.31188 0.71791,-0.34103 1.41432,-0.70866 2.10867,-1.09173 1.24991,1.3639 1.64199,1.03476 0.92671,1.81808 -0.80702,0.8699 -1.65237,1.70399 -2.52279,2.51029 -1.39501,1.23324 -2.89632,2.29826 -4.50813,3.23208 -1.21432,0.8962 -0.8458,0.78347 -1.47065,-1.21706 -0.007,-0.0226 0.13388,0.0637 0.071,0 0.25052,4.59397 -0.0283,0.62052 -0.0345,0 0.66068,0 1.32136,0 1.98204,0 3.53709,0 7.07419,0 10.61128,0 5.70473,0 11.40946,0 17.11418,0 2.98774,0 5.97547,0 8.9632,0 1.39344,0 1.39344,1.97062 0,1.97062 z"
       inkscape:connector-curvature="0" />
    <path
       inkscape:connector-curvature="0"
       d="m 540.29113,232.66936 c -0.0674,2.98698 -0.13489,5.97394 -0.20233,8.96092 -0.12878,5.70327 -0.25756,11.40654 -0.38634,17.10982 -0.0799,3.53618 -0.15969,7.07238 -0.23954,10.60858 -0.0149,0.66051 -0.0298,1.32102 -0.0447,1.98153 -0.62022,-0.02 -4.58636,-0.38862 10e-4,-0.0345 -0.22286,3.26898 -2.11988,0.005 -2.32143,-0.26552 -0.88799,-1.57825 -1.86187,-3.07618 -3.03396,-4.4576 -0.74524,-0.83877 -1.51512,-1.65644 -2.32072,-2.43758 -0.50951,-0.48268 -0.2061,0.007 1.41163,-1.12593 0.39023,0.6055 0.67063,1.26862 0.96436,1.92439 0.60511,1.37009 1.37986,2.65517 2.1274,3.95021 0.53576,0.82687 1.04617,1.66608 1.45868,2.5618 0.30543,0.82113 0.57591,0.81832 -0.95787,-0.19083 0.73583,-0.40895 1.39818,-0.92697 2.05281,-1.45296 1.3322,-1.05374 2.50411,-2.27944 3.63867,-3.53773 0.42467,-0.45668 0.75687,-0.98471 1.11147,-1.49536 0.2935,-0.46827 0.55904,-0.92392 0.97842,-1.29769 0.20133,-0.17095 0.42456,-0.30621 0.6735,-0.3929 0.79096,-0.17288 0.14886,-0.0844 0.22581,1.93133 -1.39198,0.0634 -1.48159,-1.90522 -0.0896,-1.96858 l 0,0 c 0.30764,1.99892 -0.34175,2.10069 0.43359,1.92368 0.0897,-0.033 0.19227,-0.0946 0.0471,-0.004 -0.30832,0.24524 -0.39204,0.63944 -0.65372,0.9374 -0.40488,0.57395 -0.78111,1.17131 -1.26327,1.68618 -1.20587,1.33653 -2.45478,2.63543 -3.8695,3.7555 -0.83169,0.66521 -1.6825,1.34417 -2.65988,1.78406 -1.86523,-0.93528 -1.13768,-0.15123 -1.45853,-0.85587 -0.38466,-0.84156 -0.87744,-1.61968 -1.37441,-2.39867 -0.7812,-1.35338 -1.58789,-2.69774 -2.21923,-4.13001 -0.32472,-0.72542 -0.67655,-1.42996 -1.04384,-2.13278 1.39177,-1.2188 1.07156,-1.61821 1.83854,-0.88543 0.85145,0.82645 1.66625,1.69042 2.45269,2.57881 1.20144,1.4225 2.23229,2.94746 3.1295,4.57995 0.86855,1.23424 0.76418,0.86327 -1.24995,1.4428 -0.0227,0.007 0.0667,-0.13241 10e-4,-0.0709 4.59846,-0.14675 0.61973,0.0423 -10e-4,0.0345 0.0149,-0.66052 0.0298,-1.32103 0.0447,-1.98154 0.0798,-3.53619 0.15969,-7.07238 0.23954,-10.60858 0.12878,-5.70327 0.25755,-11.40655 0.38633,-17.10981 0.0674,-2.98699 0.13489,-5.97395 0.20233,-8.96093 0.0315,-1.39308 2.00158,-1.3486 1.97012,0.0445 z"
       id="path4763"
       style="fill:#000000;fill-opacity:1;fill-rule:nonzero;stroke:none" />
    <path
       style="fill:#000000;fill-opacity:1;fill-rule:nonzero;stroke:none"
       id="path4765"
       d="m 514.33682,241.23018 c 0.2304,1.63836 0.50331,3.26913 0.68496,4.91439 0.19497,1.38672 0.41405,2.76997 0.6457,4.151 0.1121,0.6251 0.21755,0.71473 -1.37455,0.19859 -0.14085,-0.0457 0.004,-0.2961 0.005,-0.44416 0.001,-0.19703 0.001,-0.39407 0.002,-0.59111 -0.0316,-1.8294 0.27537,-3.64136 0.64951,-5.42534 0.35101,-1.43797 0.8773,-2.81743 1.52296,-4.14643 0.40059,-0.94052 1.13278,-1.3277 1.90151,-0.33431 0.787,1.24215 1.08423,2.73719 1.38928,4.15786 0.24234,1.20347 0.36139,2.4266 0.43237,3.65075 0.0402,1.03445 0.19495,0.67777 -1.46394,0.4754 0.0233,-1.22183 0.3571,-2.42378 0.65657,-3.60223 0.3992,-1.39682 0.94558,-2.73979 1.49954,-4.0804 0.32232,-0.89514 0.96079,-1.32986 1.77153,-0.40072 0.10471,0.12 0.31862,1.0973 0.34783,1.21937 0.34604,1.71778 0.70172,3.43293 1.07039,5.14594 0.24039,1.04012 0.2852,2.11879 0.70141,3.11024 0.0244,0.0491 0.12502,0.16527 0.0731,0.14742 -0.0565,-0.0195 -0.0614,-0.10263 -0.0921,-0.15394 -0.34195,0.005 -0.6861,-0.0249 -1.02585,0.0141 -0.0558,0.006 -0.0923,0.16604 -0.12065,0.11756 -0.0497,-0.085 0.0113,-0.19668 0.0169,-0.29502 0.0687,-1.04281 1.54351,-0.94558 1.47476,0.0972 l 0,0 c -0.015,0.2085 -0.0318,0.90377 -0.22165,1.00933 -0.89074,0.49533 -1.18194,0.2461 -1.47091,-0.37314 -0.4393,-1.07879 -0.5513,-2.22777 -0.78,-3.36289 -0.36625,-1.70238 -0.72039,-3.40676 -1.06316,-5.11404 -0.0806,-0.33925 -0.19406,-0.76576 -0.15674,-0.76818 0.18457,-0.012 0.35282,0.18851 0.53393,0.15098 0.51998,-0.10779 0.58549,-0.6878 0.30704,0.0202 -0.52726,1.27585 -1.05007,2.55242 -1.43325,3.88078 -0.26855,1.05153 -0.57338,2.12655 -0.611,3.21498 -1.67984,0.16612 -1.44441,0.57758 -1.48935,-0.36773 -0.0661,-1.14884 -0.1762,-2.29692 -0.40209,-3.42663 -0.25938,-1.21562 -0.50262,-2.50089 -1.1305,-3.58591 -0.0293,-0.0435 -0.14036,-0.12789 -0.088,-0.1304 0.15477,-0.007 0.3009,0.15181 0.4509,0.11297 0.56162,-0.14541 0.64834,-0.69972 0.25104,0.11698 -0.59429,1.21971 -1.07876,2.48505 -1.40572,3.8043 -0.35608,1.68494 -0.64822,3.39747 -0.61783,5.12579 -7.2e-4,0.21542 -0.002,1.07625 -0.008,1.08042 -1.44557,1.125 -1.39976,0.87247 -1.56016,-0.004 -0.23622,-1.40847 -0.45992,-2.81917 -0.65717,-4.23366 -0.1761,-1.60246 -0.44448,-3.19018 -0.66515,-4.78636 -0.20495,-1.02478 1.24431,-1.31463 1.44926,-0.28985 z"
       inkscape:connector-curvature="0" />
    <path
       style="fill:#000000;fill-opacity:1;fill-rule:nonzero;stroke:none"
       id="path4771"
       d="m 531.72496,241.36364 c -1.07717,0.31073 -1.58394,1.18624 -2.00015,2.15898 -0.46487,1.32097 -0.44773,2.73501 0.31935,3.92821 0.26884,0.2817 0.48832,0.52701 0.70309,0.13783 0.485,-0.87884 -0.15242,0.4082 0.46588,-0.88739 0.54737,-1.34087 0.69311,-2.79141 0.79316,-4.22303 0.0178,-0.45424 0.12904,-0.94907 -0.15446,-1.34501 0.28128,0.29003 0.55509,-0.024 1.15919,-0.31301 -0.044,1.31804 0.22058,2.62669 0.4773,3.91328 0.51479,2.50455 0.98261,5.01236 1.26111,7.55496 0.28515,2.03729 0.0562,3.98768 -0.92578,5.79634 -1.55517,1.92672 -2.90297,1.76679 -4.95305,0.69515 -1.52388,-0.97051 -2.53134,-2.42533 -3.37495,-3.98369 -0.4956,-0.92009 0.8056,-1.62097 1.3012,-0.70088 l 0,0 c 0.69888,1.30488 1.51921,2.54638 2.77465,3.38338 1.17941,0.66108 1.95306,1.03829 2.95935,-0.11024 0.86562,-1.52128 0.98097,-3.19881 0.74936,-4.91952 -0.27247,-2.49994 -0.73653,-4.96471 -1.24147,-7.42726 -0.28267,-1.42616 -0.56912,-2.87789 -0.49928,-4.33892 0.9338,-0.78174 0.9592,-1.14754 1.57375,-0.31985 0.40117,0.68805 0.46005,1.43542 0.3674,2.21893 -0.1152,1.62919 -0.29814,3.27551 -0.95073,4.79059 -0.14596,0.27438 -0.25922,0.56884 -0.4379,0.82314 -0.99587,1.41733 -2.29892,1.28241 -3.31419,0.0172 -0.95453,-1.65517 -1.08154,-3.48734 -0.40448,-5.28842 0.62723,-1.38204 1.45344,-2.57441 2.99319,-2.99462 1.01388,-0.25347 1.37233,1.18037 0.35846,1.43383 z"
       inkscape:connector-curvature="0" />
    <path
       style="fill:#000000;fill-opacity:1;fill-rule:nonzero;stroke:none"
       id="path4783"
       d="m 515.06581,83.178435 c 0.75483,3.741001 1.26557,7.517511 1.85577,11.283263 0.37079,3.090476 1.00061,6.150752 1.78898,9.171502 1.29169,1.77417 -2.71017,2.26577 -2.67886,0.62692 0.0623,-0.7692 -0.13496,-1.52197 -0.27102,-2.27509 -0.35867,-1.996716 2.68123,-2.467906 3.03991,-0.47119 l 0,0 c 0.16578,0.92764 0.37902,1.86306 0.31228,2.80929 -0.0569,2.09753 -2.68403,2.49503 -3.25617,0.49311 -0.0484,-0.16941 -0.0943,-0.33942 -0.14146,-0.50913 -0.80951,-3.10732 -1.4598,-6.254436 -1.84344,-9.432982 -0.57532,-3.671052 -1.07768,-7.351897 -1.79589,-11.001356 -0.52854,-1.963882 2.46137,-2.658225 2.9899,-0.694337 z"
       inkscape:connector-curvature="0" />
    <path
       style="fill:#000000;fill-opacity:1;fill-rule:nonzero;stroke:none"
       id="path4785"
       d="m 513.03509,79.729045 c 2.7975,0 5.59502,0 8.39252,0 1.62801,0 3.25602,0 4.88403,0 0.15871,0 0.31744,0 0.47615,0 2.17925,0 2.17925,2.862827 0,2.862827 l 0,0 c -0.15871,0 -0.31744,0 -0.47615,0 -1.62801,0 -3.25602,0 -4.88403,0 -2.7975,0 -5.59502,0 -8.39252,0 -2.17925,0 -2.17925,-2.862827 0,-2.862827 z"
       inkscape:connector-curvature="0" />
    <path
       style="fill:#000000;fill-opacity:1;fill-rule:nonzero;stroke:none"
       id="path4791"
       d="m 514.0624,88.31754 c 2.24557,0 4.49115,0 6.73673,0 1.13805,0 2.2761,0 3.41414,0 2.17925,0 2.17925,2.862827 0,2.862827 l 0,0 c -1.13804,0 -2.27609,0 -3.41414,0 -2.24558,0 -4.49116,0 -6.73673,0 -2.17925,0 -2.17925,-2.862827 0,-2.862827 z"
       inkscape:connector-curvature="0" />
    <path
       style="fill:#000000;fill-opacity:1;fill-rule:nonzero;stroke:none"
       id="path4793"
       d="m 536.56241,83.639749 c -0.0577,3.351499 0.36807,6.688974 0.6152,10.029517 0.21186,3.093988 0.3326,6.192598 0.39819,9.292004 0.004,0.2432 0.008,0.48638 0.0119,0.72957 0.002,0.17455 0.005,0.34909 0.005,0.52364 7.4e-4,0.0801 0.0888,0.24216 0.002,0.24037 -3.26436,-0.068 -3.08051,0.61002 -3.08316,-0.81626 -0.004,-2.02434 3.07816,-2.02927 3.08192,-0.005 l 0,0 c 0.003,1.4296 0.18452,0.74527 -3.08053,0.84954 -7.3e-4,2e-5 -0.003,-0.35717 -0.008,-0.749 -0.004,-0.23892 -0.008,-0.47781 -0.0117,-0.71672 -0.0644,-3.052696 -0.18325,-6.104606 -0.39154,-9.151986 -0.25182,-3.405731 -0.6826,-6.808621 -0.62243,-10.225736 0,-2.024325 3.08191,-2.024325 3.08191,0 z"
       inkscape:connector-curvature="0" />
    <path
       style="fill:#000000;fill-opacity:1;fill-rule:nonzero;stroke:none"
       id="path4795"
       d="m 534.73146,79.729045 c 2.71409,0.04102 5.43434,-0.109924 8.13945,0.120819 2.09469,0.203602 3.82277,0.91958 4.73436,2.718388 0.40934,2.430954 -1.52243,4.165497 -2.96304,5.965409 -0.97956,1.213505 -1.96538,2.422654 -2.95657,3.627989 -1.40555,1.666285 -3.08116,0.298686 -3.71725,-1.018757 -0.15517,-0.35778 -0.28439,-0.726073 -0.36048,-1.105609 -0.18116,-1.161526 0.51046,-0.04273 2.99899,-0.745714 0.22524,-0.06362 -0.48806,-0.30921 0.17757,-0.204745 1.56215,0.124223 2.979,0.626256 4.30984,1.374106 1.93331,1.255944 3.24661,2.983913 4.14873,4.979839 0.74668,1.901684 0.69858,3.771524 0.0297,5.66925 -0.76224,1.97569 -2.48332,3.05998 -4.51086,3.76883 -2.24284,0.60319 -4.5988,0.59625 -6.91398,0.63184 -1.16703,0.012 -2.33423,0.008 -3.50121,-0.007 -0.34966,-0.12738 -0.69929,-0.25476 -1.04893,-0.38214 -1.77538,-1.17395 0.0119,-3.50622 1.78727,-2.33226 l 0,0 c -0.23169,-0.0493 -0.46339,-0.0987 -0.69508,-0.14816 1.13568,0.0149 2.27157,0.0186 3.40731,0.007 1.97655,-0.0299 3.98787,-0.0106 5.91699,-0.46175 1.16028,-0.36398 2.20813,-0.88661 2.64736,-2.01627 0.50165,-1.211746 0.46676,-2.408976 0.0287,-3.646076 -0.61861,-1.46399 -1.57476,-2.705902 -2.94929,-3.647184 -1.05743,-0.686194 -2.29652,-0.872121 -3.54758,-1.049576 -0.1143,-0.03595 -2.38478,-0.867935 -2.00158,-1.18114 2.43477,-1.990035 2.89614,-0.01979 2.75178,-1.102821 0.027,0.100878 0.0897,0.333037 0.15182,0.459506 0.0359,0.08342 0.19103,0.27964 0.0984,0.253622 -1.05933,-0.297651 -0.43111,-0.256608 -1.80245,0.343214 -0.072,0.0315 0.0967,-0.11732 0.14509,-0.175976 0.98351,-1.195987 1.96169,-2.395768 2.93371,-3.599843 0.84541,-1.053307 1.80358,-2.170106 2.56074,-3.222654 0.32001,-0.492261 -1.92257,-0.932948 -2.1574,-0.901959 -2.60172,-0.249835 -5.23025,-0.03924 -7.84214,-0.107472 -2.17925,0 -2.17925,-2.862826 0,-2.862826 z"
       inkscape:connector-curvature="0" />
    <path
       style="fill:#000000;fill-opacity:1;fill-rule:nonzero;stroke:none"
       id="path4807"
       d="m 558.22886,82.404753 c 0.55577,2.949563 0.69851,5.945022 0.81771,8.931531 -0.0589,2.658998 0.2476,5.28467 0.72102,7.9012 0.19181,1.034476 0.34288,2.072736 0.40895,3.120626 0.0137,-0.25269 -0.048,-0.42305 -0.20339,-0.60337 2.02334,0.75189 0.87863,3.40992 -1.14472,2.65804 l 0,0 c -0.91478,-0.36922 -1.50947,-0.94796 -1.72865,-1.88908 -0.0582,-0.94476 -0.19986,-1.87974 -0.37162,-2.812436 -0.49381,-2.73765 -0.81612,-5.487856 -0.76141,-8.269207 -0.11245,-2.833653 -0.2429,-5.675791 -0.75997,-8.47586 -0.42739,-1.985015 2.59469,-2.546459 3.02208,-0.561444 z"
       inkscape:connector-curvature="0" />
    <path
       style="fill:#000000;fill-opacity:1;fill-rule:nonzero;stroke:none"
       id="path4809"
       d="m 557.46021,78.931654 c 2.40401,0.447014 4.66966,1.325223 6.92314,2.194994 3.10208,1.098945 4.8828,2.775839 6.4989,5.403383 1.3209,2.431695 1.55324,5.072045 1.32354,7.738755 -0.36083,2.462228 -1.54965,4.659208 -3.09554,6.650014 -1.83235,1.81089 -4.33613,2.30082 -6.8845,2.56952 -1.13495,0.0895 -2.27497,0.14905 -3.41435,0.12404 -0.19798,-0.008 -0.1053,-0.003 -0.27812,-0.015 -2.17211,-0.1637 -1.92288,-3.01715 0.24923,-2.85345 l 0,0 c 0.0352,0.002 0.0693,0.0159 0.10561,0.007 1.00033,0.0247 2.00138,-0.0346 2.99803,-0.1075 1.66639,-0.16671 3.39772,-0.37815 4.73206,-1.408486 1.22975,-1.55261 2.18998,-3.27595 2.5161,-5.20106 0.19234,-2.09124 0.0705,-4.171675 -0.93733,-6.098397 -1.25687,-2.111834 -2.50268,-3.286126 -4.99616,-4.164629 -2.11227,-0.815271 -4.23216,-1.65054 -6.4881,-2.061348 -2.11417,-0.490973 -1.36669,-3.268326 0.74749,-2.777352 z"
       inkscape:connector-curvature="0" />
    <path
       style="fill:#000000;fill-opacity:1;fill-rule:nonzero;stroke:none"
       id="path4813"
       d="m 576.2316,95.880344 c 1.31527,-0.408991 2.62824,-0.487209 3.96358,-0.14262 1.52882,0.49054 1.1711,0.8487 1.13479,2.63567 -0.77666,0.6934 -1.83548,1.10222 -2.7955,1.56691 -2.20921,0.679746 -3.32175,-0.35765 -3.80538,-2.28596 -0.3328,-1.52912 0.36978,-2.809256 1.57162,-3.801558 1.19087,-0.706947 2.33872,-0.917714 3.65643,-0.356723 0.93119,0.446504 1.39538,1.302315 1.69058,2.188912 0.0778,0.236849 0.11853,0.479519 0.12949,0.726189 0.0165,2.02427 -3.06535,2.04595 -3.08184,0.0217 l 0,0 c 0.005,0.0464 0.0283,0.25047 6.9e-4,0.0757 -0.1247,-0.41728 0.0105,-0.39066 -0.12695,-0.45643 0.49905,-0.15677 0.20259,-0.0525 -0.26089,-0.0272 -0.40499,0.29516 -0.69775,0.51407 -0.56101,1.04985 0.0654,0.44531 0.20415,0.36911 -0.22745,0.26293 -0.60299,-0.14835 -0.49118,-0.12049 -0.38605,0.0525 0.52739,-0.24127 1.50966,-0.83272 1.79118,-0.807 0.0581,0.54606 0.17734,1.86559 0.40136,1.90116 -0.80666,-0.25492 -1.54865,-0.052 -2.34718,0.17328 -2.11419,0.49097 -2.86166,-2.28638 -0.74747,-2.77735 z"
       inkscape:connector-curvature="0" />
    <path
       inkscape:connector-curvature="0"
       d="m 575.20428,85.383295 c 1.31528,-0.408989 2.62825,-0.487208 3.96358,-0.142619 1.52883,0.490546 1.1711,0.848701 1.1348,2.635664 -0.77665,0.693405 -1.83548,1.10222 -2.79551,1.566916 -2.2092,0.679749 -3.32173,-0.357643 -3.80537,-2.285956 -0.3328,-1.529122 0.36978,-2.80926 1.57162,-3.801562 1.19087,-0.706946 2.33872,-0.917714 3.65644,-0.356722 0.93118,0.446502 1.39537,1.302314 1.69056,2.188912 0.0778,0.236844 0.11854,0.479523 0.12949,0.726188 0.0165,2.024271 -3.06533,2.045939 -3.08183,0.02168 l 0,0 c 0.005,0.04646 0.0283,0.25047 6.9e-4,0.07569 -0.1247,-0.417281 0.0106,-0.390665 -0.12695,-0.456425 0.49905,-0.156777 0.20259,-0.05254 -0.26088,-0.02715 -0.40501,0.295152 -0.69777,0.514069 -0.56101,1.049848 0.0654,0.445311 0.20414,0.36911 -0.22747,0.262927 -0.60299,-0.148349 -0.49117,-0.12049 -0.38604,0.05253 0.52738,-0.241267 1.50967,-0.832716 1.79118,-0.806996 0.0581,0.546063 0.17733,1.865587 0.40136,1.901158 -0.80666,-0.254925 -1.54865,-0.05192 -2.34718,0.173285 -2.11419,0.490966 -2.86166,-2.286387 -0.74748,-2.777358 z"
       id="path4815"
       style="fill:#000000;fill-opacity:1;fill-rule:nonzero;stroke:none" />
  </g>
</svg>
