<?xml version="1.0" encoding="UTF-8" standalone="no"?>
<!-- Created with Inkscape (http://www.inkscape.org/) -->

<svg
   xmlns:dc="http://purl.org/dc/elements/1.1/"
   xmlns:cc="http://creativecommons.org/ns#"
   xmlns:rdf="http://www.w3.org/1999/02/22-rdf-syntax-ns#"
   xmlns:svg="http://www.w3.org/2000/svg"
   xmlns="http://www.w3.org/2000/svg"
   xmlns:sodipodi="http://sodipodi.sourceforge.net/DTD/sodipodi-0.dtd"
   xmlns:inkscape="http://www.inkscape.org/namespaces/inkscape"
   width="429.98541"
   height="328.32837"
   id="svg25788"
   version="1.1"
   inkscape:version="0.48.0 r9654"
   sodipodi:docname="PiecewiseConstant.svg">
  <defs
     id="defs25790" />
  <sodipodi:namedview
     inkscape:document-units="mm"
     pagecolor="#ffffff"
     bordercolor="#666666"
     borderopacity="1.0"
     inkscape:pageopacity="0.0"
     inkscape:pageshadow="2"
     inkscape:zoom="0.7176508"
     inkscape:cx="293.0381"
     inkscape:cy="27.171664"
     inkscape:current-layer="layer1"
     id="namedview25792"
     showgrid="false"
     fit-margin-top="0"
     fit-margin-left="0"
     fit-margin-right="0"
     fit-margin-bottom="0"
     inkscape:window-width="1280"
     inkscape:window-height="752"
     inkscape:window-x="0"
     inkscape:window-y="0"
     inkscape:window-maximized="1" />
  <metadata
     id="metadata25794">
    <rdf:RDF>
      <cc:Work
         rdf:about="">
        <dc:format>image/svg+xml</dc:format>
        <dc:type
           rdf:resource="http://purl.org/dc/dcmitype/StillImage" />
        <dc:title />
      </cc:Work>
    </rdf:RDF>
  </metadata>
  <g
     inkscape:label="Layer 1"
     inkscape:groupmode="layer"
     id="layer1"
     transform="translate(-233.14299,-70.890525)">
    <path
       style="fill:#000000;fill-opacity:1;fill-rule:nonzero;stroke:none"
       id="path26307"
       d="m 315.44998,340.44353 c 9.69054,1.96098 19.99398,1.31194 29.89791,1.31096 37.68441,-0.14823 75.36791,-0.0182 113.05246,0.0683 66.02924,0.0196 132.04191,-1.27655 198.06732,-1.6273 3.61169,-0.0191 3.64482,4.16104 0.0332,4.18022 l 0,0 c -66.04124,0.3506 -132.06972,1.64778 -198.11477,1.62738 -37.67959,-0.0864 -75.35814,-0.21653 -113.0376,-0.0683 -10.43908,10e-4 -21.28668,0.66698 -31.47679,-1.51555 -3.43501,-0.91337 -1.85667,-4.88911 1.57832,-3.97571 z"
       inkscape:connector-curvature="0" />
    <path
       inkscape:connector-curvature="0"
       d="m 327.63637,77.081665 c -1.97016,7.928625 -1.33088,16.361877 -1.33928,24.467415 0.11254,30.8417 -0.0532,61.68232 -0.17538,92.52388 -0.0822,54.03936 1.15148,108.0667 1.43969,162.10338 0.0156,2.95587 -4.16448,2.97816 -4.18025,0.0224 l 0,0 c -0.28804,-54.04961 -1.52268,-108.08989 -1.43972,-162.1422 0.12209,-30.83749 0.2879,-61.67407 0.17536,-92.51172 0.009,-8.543513 -0.64682,-17.422127 1.54536,-25.759355 0.91663,-2.810211 4.89087,-1.513871 3.97422,1.29632 z"
       id="path26309"
       style="fill:#000000;fill-opacity:1;fill-rule:nonzero;stroke:none" />
    <path
       style="fill:#000000;fill-opacity:1;fill-rule:nonzero;stroke:none"
       id="path26321"
       d="m 314.77369,93.152139 c 1.5613,-3.56835 3.00543,-7.18202 4.28098,-10.8625 1.14874,-3.17697 2.42282,-6.32371 3.24356,-9.60633 0.12458,-0.46778 0.27784,-1.32525 0.31864,-1.70038 -2e-5,0.0562 -0.0558,0.1614 -4e-5,0.16855 1.37613,0.17635 2.77368,0.16102 4.14631,0.3628 0.0809,0.0119 -0.0143,0.32694 -0.01,0.24524 0.0644,-1.19638 0.5663,0.88398 0.6229,1.01519 1.23622,2.99195 2.32084,6.04617 3.604,9.01988 1.54598,3.31382 3.28204,6.52786 4.94368,9.78477 0.57266,1.06557 1.20862,2.0943 1.85052,3.1188 1.56842,2.5055 -1.9749,4.72358 -3.54331,2.21807 l 0,0 c -0.70582,-1.12848 -1.40483,-2.26181 -2.03101,-3.43733 -1.70266,-3.33841 -3.47711,-6.63501 -5.06001,-10.03255 -1.27682,-2.977 -2.3731,-6.0263 -3.60434,-9.02067 -1.55363,-3.62488 -1.96488,-3.44302 3.25333,-3.53515 0.0839,-0.001 0.003,0.16776 0.005,0.25164 -0.0473,0.86684 -0.25633,1.71557 -0.44177,2.56042 -0.85892,3.39994 -2.14291,6.67102 -3.34894,9.95899 -1.34011,3.84821 -2.84197,7.6334 -4.49076,11.36005 -1.32193,2.64386 -5.06091,0.77437 -3.73898,-1.86949 z"
       inkscape:connector-curvature="0" />
    <path
       inkscape:connector-curvature="0"
       d="m 639.5886,333.19968 c 3.72952,1.12313 7.49002,2.1245 11.29668,2.95052 3.2916,0.76036 6.56818,1.64878 9.92542,2.07085 0.47932,0.0677 1.34897,0.11728 1.72629,0.1129 -0.0558,0.007 -0.16692,-0.0361 -0.16735,0.0201 -0.0104,1.38734 0.17201,2.77302 0.13592,4.15993 -0.002,0.0817 -0.3263,0.0249 -0.24468,0.0194 1.1955,-0.0792 -0.80987,0.668 -0.93336,0.73989 -2.82254,1.58533 -5.72505,3.0276 -8.52386,4.65734 -3.10504,1.93138 -6.08827,4.03953 -9.12296,6.07892 -0.9894,0.69605 -1.93465,1.45053 -2.87498,2.2104 -2.29984,1.85693 -4.92595,-1.39554 -2.6261,-3.25246 l 0,0 c 1.03592,-0.83578 2.07748,-1.66537 3.16963,-2.4277 3.1107,-2.08987 6.1713,-4.24602 9.35504,-6.22406 2.80284,-1.62385 5.69906,-3.07711 8.5246,-4.65778 3.41295,-1.97619 3.18319,-2.36273 3.89902,2.80697 0.011,0.0832 -0.1662,0.0231 -0.24923,0.0351 -0.86628,0.0568 -1.73392,-0.0492 -2.59489,-0.13224 -3.47828,-0.44595 -6.87949,-1.32933 -10.28815,-2.13328 -3.98091,-0.87005 -7.9186,-1.90821 -11.81576,-3.09926 -2.78304,-0.9961 -1.37435,-4.9319 1.40869,-3.93581 z"
       id="path26323"
       style="fill:#000000;fill-opacity:1;fill-rule:nonzero;stroke:none" />
    <path
       style="fill:#000000;fill-opacity:1;fill-rule:nonzero;stroke:none"
       id="path26333"
       d="m 363.1026,353.66454 c 0.15304,0.57067 0.37385,1.12736 0.45913,1.71201 0.19538,1.33953 0.11322,3.60191 0.0787,4.90575 -0.0874,3.30313 -0.22534,6.60567 -0.32892,9.90837 0.0188,5.55255 -0.91268,11.58795 1.34824,16.84125 1.82733,2.62865 3.11756,1.51685 5.39886,0.12293 0.43281,-0.37563 0.86563,-0.75126 1.29844,-1.1269 2.26516,-1.89909 4.95088,1.30433 2.68572,3.20342 l 0,0 c -0.62366,0.51011 -1.24733,1.02023 -1.87099,1.53034 -4.71404,2.6815 -8.36798,2.9186 -11.3942,-2.17939 -2.24526,-5.91945 -1.86833,-12.29061 -1.64432,-18.5227 0.15145,-4.82831 0.54963,-9.71037 0.23035,-14.52559 -1.32193,-2.64385 2.41705,-4.51334 3.73898,-1.86949 z"
       inkscape:connector-curvature="0" />
    <path
       style="fill:#000000;fill-opacity:1;fill-rule:nonzero;stroke:none"
       id="path26335"
       d="m 355.54224,370.43993 c 3.18966,1.40387 6.53912,1.43312 9.95088,1.35991 2.5555,-0.0976 1.29251,-0.0455 3.78899,-0.15572 2.95304,-0.13035 3.13739,4.04589 0.18434,4.17624 l 0,0 c -2.54602,0.11233 -1.25051,0.0591 -3.88655,0.15889 -3.96745,0.0798 -7.88506,-0.0466 -11.59019,-1.658 -2.74451,-1.0978 -1.19198,-4.97912 1.55253,-3.88132 z"
       inkscape:connector-curvature="0" />
    <path
       style="fill:#000000;fill-opacity:1;fill-rule:nonzero;stroke:none"
       id="path26337"
       d="m 382.498,384.02811 c 0,3.04589 0,6.09178 0,9.13767 0.0651,0.72555 0.27453,1.41332 0.51818,2.09384 0.9581,2.79634 -2.99652,4.1513 -3.95462,1.35496 l 0,0 c -0.37462,-1.12381 -0.69354,-2.25318 -0.74386,-3.4488 0,-3.04589 0,-6.09178 0,-9.13767 0,-2.95592 4.1803,-2.95592 4.1803,0 z"
       inkscape:connector-curvature="0" />
    <path
       inkscape:connector-curvature="0"
       d="m 593.01943,350.87768 c 0.15304,0.57067 0.37385,1.12736 0.45913,1.71201 0.19538,1.33953 0.11322,3.60191 0.0787,4.90575 -0.0874,3.30313 -0.22534,6.60567 -0.32892,9.90837 0.0188,5.55255 -0.91268,11.58795 1.34824,16.84125 1.82733,2.62865 3.11756,1.51685 5.39886,0.12293 0.43281,-0.37563 0.86563,-0.75126 1.29844,-1.1269 2.26516,-1.89909 4.95088,1.30433 2.68572,3.20342 l 0,0 c -0.62366,0.51011 -1.24733,1.02023 -1.87099,1.53034 -4.71404,2.6815 -8.36798,2.9186 -11.3942,-2.17939 -2.24526,-5.91945 -1.86833,-12.29061 -1.64432,-18.5227 0.15145,-4.82831 0.54963,-9.71037 0.23035,-14.52559 -1.32193,-2.64385 2.41705,-4.51334 3.73898,-1.86949 z"
       id="path26339"
       style="fill:#000000;fill-opacity:1;fill-rule:nonzero;stroke:none" />
    <path
       inkscape:connector-curvature="0"
       d="m 585.45907,367.65307 c 3.18966,1.40387 6.53912,1.43312 9.95088,1.35991 2.5555,-0.0976 1.29251,-0.0455 3.78899,-0.15572 2.95304,-0.13035 3.13739,4.04589 0.18434,4.17624 l 0,0 c -2.54602,0.11233 -1.25051,0.0591 -3.88655,0.15889 -3.96745,0.0798 -7.88506,-0.0466 -11.59019,-1.658 -2.74451,-1.0978 -1.19198,-4.97912 1.55253,-3.88132 z"
       id="path26341"
       style="fill:#000000;fill-opacity:1;fill-rule:nonzero;stroke:none" />
    <path
       style="fill:#000000;fill-opacity:1;fill-rule:nonzero;stroke:none"
       id="path26347"
       d="m 607.26978,382.38532 c 1.77239,-0.91699 3.65824,-1.59384 5.54098,-2.24573 2.66966,-0.88751 3.95363,0.17301 4.65571,2.71722 -0.37269,2.50959 -1.60171,4.93937 -2.73027,7.20631 -0.92359,1.74917 -1.61893,3.60902 -2.21766,5.49118 -0.25955,0.87077 0.0888,-0.19147 -0.083,-0.89867 -0.17457,-0.71871 -2.35216,-1.86893 0.4036,-0.12386 0.51236,0.30866 1.18068,0.32789 1.78271,0.37608 1.53332,0.0956 3.07009,0.11247 4.60581,0.13082 2.95571,0.0355 2.90546,4.21554 -0.0503,4.18001 l 0,0 c -1.65292,-0.02 -3.30717,-0.038 -4.95704,-0.14985 -1.64285,-0.17522 -3.21938,-0.49179 -4.44451,-1.69254 0.31134,0.14673 0.65676,0.23625 0.93402,0.44019 0.35681,0.26245 -0.89655,-0.20484 -1.23487,-0.49073 -0.92875,-0.7848 -1.38324,-1.82172 -0.93924,-3.04135 0.66821,-2.09145 1.44492,-4.15642 2.46752,-6.10289 0.83689,-1.63409 1.40025,-3.40592 2.29545,-5.00053 0.80952,1.44916 1.97088,0.50809 0.879,0.90909 -1.71108,0.5917 -3.42881,1.19906 -5.03848,2.03423 -2.64386,1.32192 -4.51335,-2.41705 -1.86949,-3.73898 z"
       inkscape:connector-curvature="0" />
    <path
       style="fill:#000000;fill-opacity:1;fill-rule:nonzero;stroke:none"
       id="path26353"
       d="m 280.26085,99.828458 c -3.02886,4.035322 -4.91303,8.701732 -6.55707,13.430732 -2.12326,7.03741 -0.94567,14.26408 0.64547,21.26655 0.50017,2.6698 1.40115,5.23131 2.24215,7.80499 0.91783,2.80981 -3.05586,4.10782 -3.97369,1.298 l 0,0 c -0.88069,-2.69708 -1.81295,-5.3853 -2.34567,-8.18032 -1.75304,-7.77639 -2.93055,-15.7749 -0.5151,-23.56668 1.77401,-5.06482 3.8062,-10.06276 7.04147,-14.395602 1.65628,-2.4483 5.11871,-0.10597 3.46244,2.34233 z"
       inkscape:connector-curvature="0" />
    <path
       style="fill:#000000;fill-opacity:1;fill-rule:nonzero;stroke:none"
       id="path26355"
       d="m 292.0684,110.44953 c -0.59793,4.53371 -1.19587,9.06743 -1.79381,13.60114 -0.57557,4.01235 -0.9709,8.31142 0.57968,12.15406 0.80898,1.12048 1.6911,1.11953 2.93923,0.92663 2.95157,-0.16037 3.17838,4.01378 0.22681,4.17415 l 0,0 c -3.37887,0.0409 -5.26661,-0.56981 -7.07596,-3.62176 -1.65164,-4.56264 -1.60046,-9.42321 -0.81418,-14.17967 0.59794,-4.53371 1.19588,-9.06743 1.79381,-13.60114 0.3865,-2.93056 4.53092,-2.38396 4.14442,0.54659 z"
       inkscape:connector-curvature="0" />
    <path
       style="fill:#000000;fill-opacity:1;fill-rule:nonzero;stroke:none"
       id="path26357"
       d="m 281.07694,121.51155 c 3.74243,0.41924 7.52994,0.3185 11.2936,0.47917 0.61394,0.036 1.22787,0.072 1.84181,0.10796 2.95083,0.17341 2.7056,4.34651 -0.24523,4.17311 l 0,0 c -0.59176,-0.0349 -1.18352,-0.0697 -1.77528,-0.10459 -3.88647,-0.16672 -7.79717,-0.06 -11.6615,-0.51123 -2.93054,-0.3865 -2.38394,-4.53092 0.5466,-4.14442 z"
       inkscape:connector-curvature="0" />
    <path
       style="fill:#000000;fill-opacity:1;fill-rule:nonzero;stroke:none"
       id="path26361"
       d="m 308.91364,100.74773 c 0.0944,2.15679 0.5894,4.1953 1.44967,6.1693 1.7624,4.48551 2.41023,9.25628 2.75682,14.03055 0.23685,6.68457 -2.17102,12.7286 -5.36608,18.45025 -0.53538,0.77362 -1.07076,1.54724 -1.60613,2.32086 -1.69073,2.42463 -5.1197,0.0336 -3.42896,-2.39108 l 0,0 c 0.46286,-0.65791 0.92571,-1.31583 1.38857,-1.97375 2.81131,-4.9947 5.00723,-10.25661 4.84282,-16.10984 -0.29952,-4.31341 -0.86998,-8.62523 -2.43222,-12.687 -0.98672,-2.35167 -1.63829,-4.77485 -1.75774,-7.3344 -0.3358,-2.936792 3.81744,-3.411682 4.15325,-0.47489 z"
       inkscape:connector-curvature="0" />
    <path
       style="fill:#000000;fill-opacity:1;fill-rule:nonzero;stroke:none"
       id="path26405"
       d="m 326.32935,271.26023 c 0.83853,0.28156 1.73416,0.36313 2.60977,0.46746 2.2741,0.30627 4.56469,0.11968 6.83564,-0.10382 3.44944,-0.35016 6.8359,-1.09792 10.18608,-1.94876 4.059,-1.0167 7.94992,-2.51527 11.77202,-4.16826 4.14666,-1.83193 8.05347,-4.10698 11.88148,-6.49399 4.03776,-2.58945 7.85602,-5.4811 11.58976,-8.46607 3.92756,-3.08034 7.54877,-6.49248 11.00476,-10.06106 3.59972,-3.773 6.86946,-7.82322 10.10156,-11.89383 3.26801,-4.15223 6.40833,-8.39642 9.5226,-12.65832 3.05247,-4.23065 6.164,-8.42051 9.25309,-12.62579 2.84644,-3.8686 5.6878,-7.7407 8.55636,-11.59381 2.62786,-3.54642 5.33552,-7.03567 8.09815,-10.48346 2.47558,-3.11913 4.98286,-6.21368 7.56496,-9.25002 2.39137,-2.81867 4.90343,-5.53715 7.47974,-8.19605 2.387,-2.49942 4.94224,-4.83332 7.59085,-7.06619 2.65408,-2.22372 5.50667,-4.19935 8.40728,-6.10265 2.69675,-1.7584 5.4882,-3.37137 8.314,-4.9237 2.71091,-1.49908 5.55976,-2.73202 8.45813,-3.841 2.75208,-1.05053 5.60195,-1.81545 8.47044,-2.49426 2.78266,-0.65247 5.62612,-0.96428 8.48112,-1.07461 2.94977,-0.0948 5.87531,0.28781 8.76668,0.81336 3.07371,0.57043 6.04391,1.5363 8.96054,2.62083 3.16531,1.20702 6.11619,2.86189 9.00712,4.58614 3.09392,1.89016 6.0423,3.98914 8.91745,6.17854 2.97837,2.25355 5.68281,4.81364 8.29615,7.45356 2.62765,2.69255 4.98536,5.61421 7.29677,8.56358 2.36451,3.04029 4.60699,6.1674 6.88696,9.26752 2.3306,3.13017 4.67632,6.24969 7.04294,9.35416 2.2952,2.96288 4.57293,5.93826 6.81553,8.93908 2.11135,2.82226 4.19389,5.66436 6.343,8.45963 2.08653,2.69627 4.40361,5.20716 6.81302,7.63074 2.38878,2.35065 4.86091,4.61911 7.38462,6.83162 2.34,2.07383 4.77992,4.03509 7.27539,5.9281 1.196,0.88906 2.43117,1.72625 3.66053,2.5705 1.80198,1.23757 0.003,3.71733 -1.79861,2.47977 l 0,0 c -1.26982,-0.87212 -2.54533,-1.73736 -3.77994,-2.65673 -2.55336,-1.93782 -5.05065,-3.94457 -7.4454,-6.06684 -2.57643,-2.25946 -5.10082,-4.57539 -7.53884,-6.97651 -2.49978,-2.51636 -4.9038,-5.12329 -7.06839,-7.92251 -2.1574,-2.80635 -4.24872,-5.65915 -6.36808,-8.4927 -2.23669,-2.99313 -4.50889,-5.96055 -6.798,-8.91587 -2.37718,-3.11837 -4.73344,-6.25181 -7.07433,-9.39606 -2.26161,-3.07519 -4.48593,-6.17723 -6.83076,-9.19352 -2.23855,-2.85705 -4.51975,-5.68899 -7.06323,-8.29864 -2.51141,-2.53866 -5.10895,-5.0022 -7.97201,-7.1689 -2.78111,-2.11919 -5.63338,-4.1504 -8.62553,-5.98117 -2.72621,-1.62803 -5.507,-3.1953 -8.491,-4.33871 -2.74079,-1.02179 -5.5319,-1.93344 -8.42072,-2.4724 -2.66164,-0.48757 -5.35505,-0.84611 -8.07136,-0.76366 -2.64767,0.0966 -5.28415,0.38964 -7.86501,0.99104 -2.73144,0.64549 -5.44592,1.37047 -8.0667,2.36999 -2.76414,1.05524 -5.48032,2.23059 -8.06527,3.65914 -2.75424,1.51245 -5.47502,3.08399 -8.10359,4.79718 -2.79709,1.83448 -5.54907,3.73705 -8.10885,5.88029 -2.57001,2.16515 -5.04833,4.4294 -7.36358,6.8542 -2.53059,2.61084 -4.99735,5.28086 -7.34606,8.04884 -2.56317,3.01342 -5.05081,6.08562 -7.50819,9.18126 -2.74026,3.41942 -5.4255,6.88038 -8.03194,10.39774 -2.8647,3.84788 -5.70216,7.71482 -8.54477,11.57816 -3.08762,4.20324 -6.1976,8.39106 -9.2486,12.61966 -3.13825,4.29464 -6.30302,8.57126 -9.59643,12.75522 -3.29466,4.149 -6.62945,8.27578 -10.30021,12.12014 -3.54827,3.66076 -7.26411,7.163 -11.29454,10.3244 -3.82918,3.05981 -7.74498,6.02399 -11.88704,8.67641 -3.96161,2.46862 -8.00603,4.81937 -12.29779,6.71208 -3.97778,1.71833 -8.0282,3.27385 -12.2516,4.33149 -3.50654,0.88804 -7.05063,1.66817 -10.66083,2.03166 -2.50179,0.24316 -5.02444,0.43362 -7.52876,0.0962 -1.14187,-0.13754 -2.30376,-0.26225 -3.38695,-0.6618 -2.04785,-0.79707 -0.88941,-3.61518 1.15842,-2.81809 z"
       inkscape:connector-curvature="0" />
    <path
       style="fill:none;stroke:#000000;stroke-width:2.41653538;stroke-linecap:butt;stroke-linejoin:miter;stroke-miterlimit:4;stroke-opacity:1;stroke-dasharray:4.83307087, 2.41653543;stroke-dashoffset:0"
       d="m 362.98991,264.056 34.13917,0 0,-25.08184 32.04901,0 0,-42.49977 26.47527,0 0,-33.44245 27.17199,0 0,-17.41795 29.26215,0 0,-4.87702 30.65557,0 0,18.81138 27.17199,0 0,34.13916 27.17199,0 0,29.26215"
       id="path26411"
       inkscape:connector-curvature="0" />
    <path
       style="fill:none;stroke:#000000;stroke-width:2.41653538;stroke-linecap:butt;stroke-linejoin:miter;stroke-miterlimit:4;stroke-opacity:1;stroke-dasharray:2.41653543, 4.83307087;stroke-dashoffset:0"
       d="m 365.08006,344.17853 0,-254.998667"
       id="path26413"
       inkscape:connector-curvature="0" />
    <path
       inkscape:connector-curvature="0"
       id="path26415"
       d="m 596.39033,342.78509 0,-254.998662"
       style="fill:none;stroke:#000000;stroke-width:2.41653538;stroke-linecap:butt;stroke-linejoin:miter;stroke-miterlimit:4;stroke-opacity:1;stroke-dasharray:2.41653543, 4.83307087;stroke-dashoffset:0" />
    <path
       style="color:#000000;fill:#000000;fill-opacity:1;fill-rule:nonzero;stroke:none;stroke-width:1px;marker:none;visibility:visible;display:inline;overflow:visible;enable-background:accumulate"
       id="path3006"
       d="m 241.29753,101.76493 c 0,6.8948 0,13.7896 0,20.68439 0.21029,5.45927 0.69824,10.90363 1.24787,16.33703 0.0279,0.1523 0.0559,0.30459 0.0837,0.45689 0.5592,3.27201 -3.98921,4.07657 -4.54841,0.80456 l 0,0 c -0.0426,-0.26025 -0.0851,-0.52051 -0.12776,-0.78075 -0.5655,-5.59299 -1.06788,-11.19752 -1.27211,-16.81773 0,-6.89479 0,-13.78959 0,-20.68439 0,-3.321102 4.61665,-3.321102 4.61665,0 z"
       inkscape:connector-curvature="0" />
    <path
       style="color:#000000;fill:#000000;fill-opacity:1;fill-rule:nonzero;stroke:none;stroke-width:1px;marker:none;visibility:visible;display:inline;overflow:visible;enable-background:accumulate"
       id="path3010"
       d="m 238.55479,95.161767 c 4.92027,-6.97e-4 9.79985,-0.953731 14.59892,-1.980825 3.48326,-0.713528 6.87496,-2.129704 10.45339,-1.629426 3.19816,0.66593 2.27246,5.267297 -0.92571,4.601362 l 0,0 c -1.2645,-0.896879 -6.98535,1.643306 -8.58035,1.62488 -5.11227,1.086967 -10.30552,2.088017 -15.54625,2.080757 -3.26448,0 -3.26448,-4.696748 0,-4.696748 z"
       inkscape:connector-curvature="0" />
    <path
       style="color:#000000;fill:#000000;fill-opacity:1;fill-rule:nonzero;stroke:none;stroke-width:1px;marker:none;visibility:visible;display:inline;overflow:visible;enable-background:accumulate"
       id="path3012"
       d="m 239.71418,113.79346 c 4.45361,-0.80452 8.86298,-1.77327 13.35603,-2.35031 2.42085,-0.31676 4.85642,-0.46464 7.29334,-0.56897 3.26161,-0.13868 3.45438,4.55398 0.19277,4.69265 l 0,0 c -2.30878,0.0974 -4.61631,0.23631 -6.90985,0.53634 -4.43235,0.56522 -8.77865,1.53768 -13.17332,2.32314 -3.22004,0.54598 -3.97902,-4.08687 -0.75897,-4.63285 z"
       inkscape:connector-curvature="0" />
  </g>
</svg>
