<?xml version="1.0" encoding="UTF-8" standalone="no"?>
<!-- Created with Inkscape (http://www.inkscape.org/) -->

<svg
   xmlns:dc="http://purl.org/dc/elements/1.1/"
   xmlns:cc="http://creativecommons.org/ns#"
   xmlns:rdf="http://www.w3.org/1999/02/22-rdf-syntax-ns#"
   xmlns:svg="http://www.w3.org/2000/svg"
   xmlns="http://www.w3.org/2000/svg"
   xmlns:sodipodi="http://sodipodi.sourceforge.net/DTD/sodipodi-0.dtd"
   xmlns:inkscape="http://www.inkscape.org/namespaces/inkscape"
   width="409.77365"
   height="409.3038"
   id="svg24201"
   version="1.1"
   inkscape:version="0.48.0 r9654"
   sodipodi:docname="New document 79">
  <defs
     id="defs24203" />
  <sodipodi:namedview
     inkscape:document-units="mm"
     pagecolor="#ffffff"
     bordercolor="#666666"
     borderopacity="1.0"
     inkscape:pageopacity="0.0"
     inkscape:pageshadow="2"
     inkscape:zoom="0.7176508"
     inkscape:cx="133.66693"
     inkscape:cy="109.08341"
     inkscape:current-layer="layer1"
     id="namedview24205"
     showgrid="false"
     fit-margin-top="0"
     fit-margin-left="0"
     fit-margin-right="0"
     fit-margin-bottom="0"
     inkscape:window-width="1280"
     inkscape:window-height="752"
     inkscape:window-x="0"
     inkscape:window-y="0"
     inkscape:window-maximized="0" />
  <metadata
     id="metadata24207">
    <rdf:RDF>
      <cc:Work
         rdf:about="">
        <dc:format>image/svg+xml</dc:format>
        <dc:type
           rdf:resource="http://purl.org/dc/dcmitype/StillImage" />
        <dc:title></dc:title>
      </cc:Work>
    </rdf:RDF>
  </metadata>
  <g
     inkscape:label="Layer 1"
     inkscape:groupmode="layer"
     id="layer1"
     transform="translate(-392.51416,-71.826854)">
    <path
       style="fill:#000000;fill-opacity:1;fill-rule:nonzero;stroke:none"
       id="path24722"
       d="m 439.69943,441.29692 c 0.43498,-25.30887 0.54451,-50.62237 0.60552,-75.9346 0.0403,-45.73137 -0.3598,-91.46027 -0.32045,-137.19217 0.17499,-44.05888 0.43095,-88.11744 0.60298,-132.176439 0.0291,-6.312269 0.0583,-12.624524 0.0875,-18.936792 0.0136,-2.955894 4.19391,-2.936585 4.18026,0.0193 l 0,0 c -0.0292,6.311274 -0.0583,12.622544 -0.0874,18.933809 -0.17203,44.054772 -0.42794,88.109082 -0.60295,132.163712 -0.0394,45.73407 0.36087,91.46513 0.32043,137.19867 -0.061,25.28851 -0.16832,50.57842 -0.60595,75.86353 0.0431,2.95561 -4.13674,3.01658 -4.17986,0.061 z"
       inkscape:connector-curvature="0" />
    <path
       inkscape:connector-curvature="0"
       d="m 432.93367,427.97183 c 25.30884,0.43627 50.62234,0.54709 75.93456,0.60941 45.73137,0.0426 91.46029,-0.35514 137.19219,-0.31346 44.05887,0.17724 88.11742,0.43545 132.17641,0.60973 6.31226,0.0295 12.62452,0.0589 18.93678,0.0885 2.9559,0.0138 2.93638,4.19407 -0.0195,4.18026 l 0,0 c -6.31127,-0.0296 -12.62254,-0.0589 -18.9338,-0.0884 -44.05477,-0.17428 -88.10906,-0.43243 -132.16368,-0.60969 -45.73407,-0.0417 -91.46515,0.3562 -137.19869,0.31342 -25.28851,-0.0623 -50.5784,-0.17089 -75.86349,-0.60978 -2.95562,0.043 -3.01638,-4.13689 -0.0608,-4.17986 z"
       id="path24724"
       style="fill:#000000;fill-opacity:1;fill-rule:nonzero;stroke:none" />
    <path
       style="fill:#000000;fill-opacity:1;fill-rule:nonzero;stroke:none"
       id="path24728"
       d="m 430.08208,97.690607 c 1.2501,-4.05681 3.0719,-7.90676 4.54651,-11.88858 1.29918,-3.95331 3.17603,-7.63144 5.15283,-11.27155 1.81296,-3.38835 0.23254,-2.8075 5.34946,-2.35925 0.91502,2.15188 1.19408,4.50954 1.69018,6.78458 1.24089,3.90828 2.87053,7.68631 4.33801,11.51616 0.88465,2.47895 1.98678,4.86242 3.0616,7.26106 1.20859,2.697553 -2.60633,4.406763 -3.81492,1.7092 l 0,0 c -1.10609,-2.46913 -2.23713,-4.92449 -3.15038,-7.47491 -1.54177,-4.02613 -3.27554,-7.99289 -4.51885,-12.12184 -0.41502,-1.9077 -0.69271,-3.861 -1.29754,-5.71343 1.16713,-0.19422 2.32336,-0.47242 3.5014,-0.58265 0.0971,-0.009 -0.08,0.17792 -0.1212,0.26635 -0.42709,0.91742 -0.89255,1.81653 -1.36501,2.7112 -1.88462,3.46384 -3.67671,6.96055 -4.90591,10.72807 -1.40117,3.77639 -3.08018,7.4425 -4.36706,11.25541 -0.5797,2.898523 -4.67883,2.078703 -4.09912,-0.81982 z"
       inkscape:connector-curvature="0" />
    <path
       inkscape:connector-curvature="0"
       d="m 776.20912,419.94458 c 4.07962,1.17351 7.96318,2.92252 11.97205,4.32192 3.97707,1.22454 7.68987,3.03182 11.36655,4.93975 3.42187,1.74886 2.81138,0.17966 2.45952,5.30411 -2.13427,0.95536 -4.48626,1.27875 -6.75156,1.81759 -3.88423,1.31423 -7.63092,3.0147 -11.43247,4.55401 -2.46185,0.93115 -4.82416,2.07795 -7.20214,3.19773 -2.67432,1.25915 -4.45504,-2.52292 -1.78071,-3.78207 l 0,0 c 2.44788,-1.15237 4.88151,-2.32943 7.41429,-3.29052 3.9964,-1.61729 7.92982,-3.42542 12.03463,-4.74622 1.89955,-0.45086 3.84728,-0.76527 5.688,-1.40486 0.21615,1.16327 0.51607,2.31406 0.64845,3.48981 0.0108,0.0969 -0.17939,-0.0766 -0.26858,-0.11616 -0.9253,-0.40975 -1.83301,-0.8582 -2.73642,-1.31374 -3.4987,-1.81908 -7.02852,-3.54504 -10.81851,-4.7031 -3.8021,-1.32984 -7.49916,-2.93955 -11.33562,-4.15443 -2.90892,-0.52503 -2.1664,-4.63887 0.74252,-4.11382 z"
       id="path24730"
       style="fill:#000000;fill-opacity:1;fill-rule:nonzero;stroke:none" />
    <path
       style="fill:#000000;fill-opacity:1;fill-rule:nonzero;stroke:none"
       id="path24734"
       d="m 634.57313,124.71247 c -3.61488,0.42964 -7.18532,1.13724 -10.5456,2.55273 -6.48427,2.8057 -10.51705,8.60671 -14.29033,14.29697 -4.47357,8.42896 -7.64525,17.8135 -7.54263,27.4659 0.0213,2.00478 0.34123,3.99524 0.51184,5.99286 1.60809,7.79396 5.21803,14.79803 11.82246,19.50429 4.27546,3.04666 6.61439,3.54865 11.52805,5.39819 11.57931,2.79673 23.71828,2.00856 34.85629,-2.27126 2.01914,-0.77586 3.93259,-1.80288 5.89889,-2.70432 7.66394,-4.47313 13.56618,-10.95366 15.83579,-19.67261 0.41296,-1.58641 0.58788,-3.22543 0.88182,-4.83814 0.75265,-9.34808 -2.39484,-18.10095 -7.75889,-25.67909 -1.12754,-1.59294 -2.44223,-3.04481 -3.66334,-4.56721 -8.82485,-9.39749 -18.14715,-12.16337 -30.42947,-14.30787 -4.69683,-0.77419 -9.08647,-0.0158 -13.61411,1.10991 -2.87282,0.69599 -3.85709,-3.36678 -0.98428,-4.06277 l 0,0 c 5.09833,-1.20715 10.05314,-2.05193 15.3217,-1.16439 13.36526,2.36161 23.43508,5.54887 32.97379,15.8179 1.31722,1.65889 2.7357,3.2422 3.95166,4.97667 5.9351,8.46597 9.25309,18.26059 8.31181,28.64638 -0.34825,1.81621 -0.56034,3.66392 -1.04475,5.44865 -2.66027,9.80159 -9.36901,17.11396 -18.04868,22.0967 -2.12439,0.96216 -4.19279,2.059 -6.37317,2.88647 -12.04372,4.57072 -25.13227,5.33107 -37.60431,2.19102 -5.51804,-2.12823 -8.03291,-2.66712 -12.82521,-6.188 -7.40743,-5.4422 -11.46649,-13.42167 -13.20249,-22.28038 -0.17225,-2.20217 -0.50509,-4.39765 -0.51675,-6.60651 -0.0548,-10.38235 3.35636,-20.46851 8.23275,-29.50669 4.25633,-6.38724 8.88011,-12.74261 16.17892,-15.8477 3.88148,-1.57107 7.96383,-2.48557 12.13824,-2.86801 2.95592,0 2.95592,4.18031 0,4.18031 z"
       inkscape:connector-curvature="0" />
    <path
       style="fill:#000000;fill-opacity:1;fill-rule:nonzero;stroke:none"
       id="path24738"
       d="m 441.52478,427.50671 c 5.33749,-8.90433 11.33889,-17.38664 17.23004,-25.92775 17.3728,-24.79976 35.8894,-48.77405 54.25034,-72.84394 25.78375,-33.86834 52.14598,-67.28952 78.91261,-100.38538 15.96171,-19.7479 8.24379,-10.1206 23.16642,-28.87172 1.84068,-2.31289 5.11157,0.2902 3.2709,2.6031 l 0,0 c -14.94272,18.77612 -7.21787,9.14032 -23.18702,28.8974 -26.74192,33.06491 -53.07945,66.45516 -78.83924,100.29197 -18.3205,24.01689 -36.79684,47.93801 -54.13288,72.68209 -5.95574,8.63465 -11.98408,17.2291 -17.43224,26.19699 -1.86869,2.29029 -5.10765,-0.35246 -3.23894,-2.64274 z"
       inkscape:connector-curvature="0" />
    <path
       style="fill:#000000;fill-opacity:1;fill-rule:nonzero;stroke:none"
       id="path24754"
       d="m 589.19097,212.68124 c 4.18565,-1.69084 8.20137,-3.69538 12.14123,-5.89276 4.32556,-2.18315 8.54228,-4.58552 12.94637,-6.60913 5.47394,-2.34871 2.97218,-2.36312 8.30054,5.10781 -2.26629,2.98814 -4.06997,6.27223 -5.9416,9.51468 -2.73965,4.91622 -4.7943,10.161 -7.02766,15.31448 -0.76663,1.74171 -1.6354,3.43147 -2.5421,5.10288 -2.82883,5.19112 -10.17017,1.19056 -7.34135,-4.00056 l 0,0 c 0.79357,-1.44809 1.54123,-2.91861 2.21286,-4.42826 2.36215,-5.44484 4.54101,-10.98442 7.45757,-16.16854 1.83911,-3.18536 3.56857,-6.46851 5.85628,-9.36326 6.42191,6.4466 7.1085,4.46133 2.51005,6.5206 -4.2082,1.92481 -8.22324,4.24215 -12.36047,6.31211 -4.12647,2.29869 -8.32999,4.40773 -12.71036,6.18207 -5.36844,2.47583 -8.86979,-5.11628 -3.50136,-7.59212 z"
       inkscape:connector-curvature="0" />
    <path
       style="fill:#000000;fill-opacity:1;fill-rule:nonzero;stroke:none"
       id="path24758"
       d="m 550.48608,276.45805 c 4.82132,-6.41805 9.62878,-12.8448 14.57693,-19.16579 9.66287,-12.65118 19.28292,-25.3259 29.44388,-37.58355 1.74883,-2.08561 3.49767,-4.17121 5.2465,-6.25683 3.79858,-4.53 10.20494,0.842 6.40637,5.37198 l 0,0 c -1.73889,2.07369 -3.47778,4.14738 -5.21668,6.22106 -10.1134,12.19594 -19.67817,24.81518 -29.29731,37.40167 -4.91705,6.27813 -9.68934,12.66519 -14.48025,19.03988 -3.55564,4.72307 -10.23506,-0.30536 -6.67944,-5.02842 z"
       inkscape:connector-curvature="0" />
    <g
       id="g24770"
       transform="matrix(-0.99985238,-0.017182,0.017182,-0.99985238,1391.7649,411.88677)">
      <path
         inkscape:connector-curvature="0"
         d="m 750.27734,195.46404 c -0.83343,-9.76763 -0.61908,-19.57813 -0.55431,-29.36904 0.19411,-17.27495 0.37911,-34.54985 0.47654,-51.82564 0.0167,-2.95587 4.19691,-2.93229 4.18024,0.0236 l 0,0 c -0.0975,17.27716 -0.28234,34.55343 -0.47658,51.82974 -0.0643,9.71383 -0.27948,19.44687 0.54944,29.13749 0.14415,2.95242 -4.03117,3.15628 -4.17532,0.20389 z"
         id="path24766"
         style="fill:#000000;fill-opacity:1;fill-rule:nonzero;stroke:none" />
      <path
         style="fill:#000000;fill-opacity:1;fill-rule:nonzero;stroke:none"
         id="path24768"
         d="m 739.42473,131.13306 c 1.2501,-4.05681 3.0719,-7.90676 4.54651,-11.88858 1.29918,-3.95331 3.17603,-7.63144 5.15283,-11.27155 1.81296,-3.38835 0.23254,-2.8075 5.34946,-2.35925 0.91502,2.15188 1.19408,4.50954 1.69018,6.78458 1.24089,3.90828 2.87053,7.68631 4.33801,11.51616 0.88465,2.47895 1.98678,4.86242 3.0616,7.26106 1.20859,2.69756 -2.60633,4.40677 -3.81492,1.7092 l 0,0 c -1.10609,-2.46913 -2.23713,-4.92449 -3.15038,-7.47491 -1.54177,-4.02613 -3.27554,-7.99289 -4.51885,-12.12184 -0.41502,-1.9077 -0.69271,-3.861 -1.29754,-5.71343 1.16713,-0.19422 2.32336,-0.47242 3.5014,-0.58265 0.0971,-0.009 -0.08,0.17792 -0.1212,0.26635 -0.42709,0.91742 -0.89255,1.81653 -1.36501,2.7112 -1.88462,3.46384 -3.67671,6.96055 -4.90591,10.72807 -1.40117,3.77639 -3.08018,7.4425 -4.36706,11.25541 -0.5797,2.89853 -4.67883,2.07871 -4.09912,-0.81982 z"
         inkscape:connector-curvature="0" />
    </g>
    <path
       style="fill:#000000;fill-opacity:1;fill-rule:nonzero;stroke:none"
       id="path24774"
       d="m 412.67665,442.18664 c -2.50383,-0.54065 -5.02263,-1.05141 -7.5525,-0.48375 -2.88802,1.28242 -3.77182,4.78959 -4.57211,7.57586 -0.86362,4.72865 0.22766,8.45522 2.88254,12.32969 2.43403,2.68424 5.75324,3.96921 9.3216,4.12044 1.47459,0.08 2.86181,-0.35267 4.26849,-0.71603 2.86391,-0.73179 3.89881,3.31839 1.0349,4.05018 l 0,0 c -1.82695,0.46247 -3.65338,0.95668 -5.56199,0.83815 -4.88747,-0.36823 -9.32076,-2.10001 -12.53024,-5.95754 -3.41113,-5.13542 -4.59548,-9.67634 -3.42689,-15.8405 1.30686,-4.3867 3.01621,-8.98175 7.77369,-10.50133 3.16634,-0.57256 6.25772,-0.24094 9.37638,0.52934 2.86767,0.71692 1.8538,4.77241 -1.01387,4.05549 z"
       inkscape:connector-curvature="0" />
    <path
       style="fill:#000000;fill-opacity:1;fill-rule:nonzero;stroke:none"
       id="path24776"
       d="m 397.8258,87.393066 c -0.0811,4.367374 -0.0143,8.710022 0.38793,13.059334 0.48798,2.39726 0.70035,5.91878 3.23785,7.10308 1.8596,-1.40889 2.8994,-3.48511 3.85264,-5.60503 1.54245,-4.180654 2.55419,-8.496279 3.24599,-12.889339 0.15282,-1.049887 0.28901,-2.102449 0.39113,-3.158561 0.0154,-0.159515 -0.006,-0.632221 0.0413,-0.478997 0.54895,1.791122 -0.54394,-0.292962 0.32545,1.214416 0.55182,0.428461 0.74077,0.342672 -0.0605,0.385241 2.04456,-0.52196 0.99398,-1.077763 1.31387,1.75948 0.73532,5.573743 2.403,10.961918 3.47281,16.47875 0.83931,6.9371 2.24507,14.1145 1.01356,21.10124 -0.23091,1.31001 -0.66223,2.57668 -0.99335,3.86501 -1.74233,4.75562 -4.53405,9.81357 -9.45496,11.92775 -0.79179,0.34018 -1.66159,0.45798 -2.49238,0.68697 -0.87701,-0.0825 -1.78658,0.003 -2.63103,-0.24737 -4.94143,-1.46706 -5.88498,-7.1433 -6.6303,-11.45717 -0.10444,-0.92724 -0.20887,-1.85448 -0.3133,-2.78173 -0.32729,-2.93774 3.82731,-3.4006 4.1546,-0.46285 l 0,0 c 0.0934,0.84886 0.18688,1.69773 0.28032,2.54659 0.48561,2.93624 0.75127,7.38422 4.17158,8.33587 4.74073,-0.79914 7.32114,-5.49047 8.87316,-9.61327 0.29279,-1.07929 0.67496,-2.13823 0.87837,-3.23787 1.21483,-6.56749 -0.21715,-13.34282 -0.96048,-19.8692 -1.09179,-5.65796 -2.83105,-11.178936 -3.53267,-16.904658 -0.19044,-2.595585 -0.31779,-5.404764 2.6312,-6.302107 1.11044,-0.05764 2.12863,-0.05702 3.06046,0.668256 1.62293,1.999725 0.88857,3.83277 0.59026,6.196144 -0.75483,4.769154 -1.86201,9.458519 -3.57701,13.983585 -1.91452,4.09256 -4.53466,8.72952 -9.78575,7.45285 -3.74712,-2.4254 -4.66231,-6.05373 -5.26552,-10.31325 -0.41172,-4.477073 -0.49083,-8.947912 -0.40559,-13.443164 0,-2.955923 4.18031,-2.955923 4.18031,0 z"
       inkscape:connector-curvature="0" />
    <path
       style="fill:#000000;fill-opacity:1;fill-rule:nonzero;stroke:none"
       id="path24778"
       d="m 769.31902,450.28765 c -1.45121,2.17386 -2.80293,4.40915 -4.16438,6.63903 -1.92448,3.02739 -4.37414,5.66251 -6.82276,8.26545 -2.29017,2.49113 -4.18895,5.295 -6.3905,7.85623 -0.70878,0.71035 -1.31945,1.53762 -1.66606,2.48669 -1.07118,2.75501 -4.96734,1.24013 -3.89616,-1.51488 l 0,0 c 0.54845,-1.37661 1.35075,-2.64236 2.39459,-3.69965 2.24615,-2.60287 4.16242,-5.47375 6.51379,-7.99317 2.25205,-2.39242 4.51616,-4.80594 6.29973,-7.57984 1.30073,-2.12817 2.57158,-4.27883 3.99277,-6.32935 1.32192,-2.64386 5.0609,-0.77437 3.73898,1.86949 z"
       inkscape:connector-curvature="0" />
    <path
       style="fill:#000000;fill-opacity:1;fill-rule:nonzero;stroke:none"
       id="path24780"
       d="m 750.41947,452.05525 c 3.52883,4.05231 6.92845,8.22079 10.26569,12.43231 3.05354,3.86493 6.21874,7.63928 9.48013,11.32999 -0.13887,0.19307 2.76989,2.00299 1.40197,1.14725 2.92165,0.44888 2.28683,4.5807 -0.63481,4.13182 l 0,0 c -1.58185,-0.47883 -2.76079,-1.27907 -3.89976,-2.51108 -3.31072,-3.74708 -6.52438,-7.57859 -9.62434,-11.50232 -3.23615,-4.08686 -6.54241,-8.12286 -9.94481,-12.07205 -2.09015,-2.09015 0.86577,-5.04608 2.95593,-2.95592 z"
       inkscape:connector-curvature="0" />
    <path
       style="fill:#000000;fill-opacity:1;fill-rule:nonzero;stroke:none"
       id="path24782"
       d="m 523.33925,361.05954 c 0.84865,4.17208 1.76751,8.33632 2.86911,12.44992 0.88682,3.16668 1.66144,6.36423 2.35704,9.57806 0.40287,1.98294 0.63842,1.4337 -3.90954,0.6863 -0.16895,-0.0278 0.0193,-0.34356 -2.2e-4,-0.51367 -0.0802,-0.69913 -0.25154,-1.38485 -0.36501,-2.07936 -0.74994,-4.7493 -0.98045,-9.51616 -0.37921,-14.28602 0.61892,-4.25533 1.82949,-8.32977 4.53751,-11.70842 3.32741,-2.95069 7.30301,-2.75214 11.08394,-0.89171 2.72679,1.36656 4.48283,3.60999 5.51605,6.41878 0.0795,0.27802 0.159,0.55604 0.2385,0.83405 0.79547,2.84688 -3.23062,3.97185 -4.02609,1.12497 l 0,0 c -0.0496,-0.18391 -0.0992,-0.36782 -0.14872,-0.55172 -0.62948,-1.84494 -1.71662,-3.24691 -3.51343,-4.11989 -1.87489,-1.08281 -4.04988,-1.45184 -5.92947,-0.14961 -2.31004,2.65489 -3.02183,6.19803 -3.61296,9.58322 -0.5892,4.36109 -0.29883,8.7274 0.35954,13.07265 0.0672,0.41198 0.63542,3.74752 0.38158,3.83126 -4.27234,1.40942 -3.91763,1.53768 -4.31823,-0.36681 -0.68104,-3.14872 -1.44067,-6.28126 -2.31005,-9.38352 -1.10178,-4.1365 -2.03934,-8.31942 -2.88583,-12.5146 -0.71692,-2.86767 3.33857,-3.88154 4.05549,-1.01388 z"
       inkscape:connector-curvature="0" />
    <path
       style="fill:#000000;fill-opacity:1;fill-rule:nonzero;stroke:none"
       id="path24784"
       d="m 521.35285,341.24897 c 3.48135,1.2898 7.21138,1.62105 10.88238,1.92658 3.35274,-0.0214 6.68765,-0.44484 10.01715,-0.80407 0.89443,-0.32665 1.77183,-0.69764 2.60378,-1.16208 0.39862,-0.2367 -0.0839,0.0161 -0.082,0.10188 0.0233,1.06897 0.16043,2.13241 0.24065,3.19862 -1.85275,-0.8506 -3.28869,-2.34272 -4.92193,-3.52246 -1.57199,-1.13197 -3.18553,-2.26422 -4.43571,-3.75771 -0.39784,-0.5057 -0.72827,-1.05576 -1.01188,-1.63158 -1.28064,-2.66411 2.48698,-4.4752 3.76761,-1.81109 l 0,0 c 0.13838,0.2782 0.28805,0.54991 0.48038,0.79643 0.97681,1.24886 2.42602,2.06752 3.66642,3.02908 1.39887,1.03181 2.6605,2.29169 4.20625,3.10148 0.85903,3.10745 1.86795,3.14692 0.11538,4.15236 -1.31749,0.72565 -2.70711,1.33261 -4.18054,1.66126 -3.5931,0.38762 -7.19396,0.85093 -10.81397,0.81364 -4.19583,-0.35258 -8.46397,-0.76009 -12.40344,-2.35336 -2.64386,-1.32193 -0.77437,-5.06091 1.86949,-3.73898 z"
       inkscape:connector-curvature="0" />
    <path
       style="fill:#000000;fill-opacity:1;fill-rule:nonzero;stroke:none"
       id="path24786"
       d="m 551.20795,216.14226 c 0.93923,4.32153 0.98911,8.78115 1.13131,13.18377 0.13734,5.34888 0.15736,10.69983 0.16711,16.05018 -0.0366,0.0356 0.0472,3.19047 -0.002,3.17265 -0.23618,-0.0859 0.10427,-0.61116 -0.10767,-0.74623 -2.2473,-1.43223 -1.98574,-1.30711 -3.32027,-0.44022 1.00997,-2.77803 4.9387,-1.34971 3.92872,1.42832 l 0,0 c -0.41388,0.59518 -0.53896,1.60728 -1.24165,1.78554 -4.15846,1.05494 -3.41344,-2.96442 -3.43766,-5.19245 -0.01,-5.30801 -0.0293,-10.6166 -0.16494,-15.92317 -0.13199,-4.10666 -0.16655,-8.26777 -1.00867,-12.30452 -0.71691,-2.86766 3.33858,-3.88154 4.05549,-1.01387 z"
       inkscape:connector-curvature="0" />
    <path
       style="fill:#000000;fill-opacity:1;fill-rule:nonzero;stroke:none"
       id="path24788"
       d="m 549.17331,213.78806 c 3.75045,-0.59077 7.50502,-1.14745 11.2578,-1.73802 2.33278,-0.38147 4.6745,-0.69988 7.02989,-0.90031 0.50366,-0.0369 0.27353,-0.0218 0.69029,-0.047 2.95064,-0.17663 3.20044,3.9962 0.2498,4.17284 l 0,0 c -0.34583,0.0204 -0.15023,0.008 -0.58666,0.0395 -2.25639,0.19085 -4.49897,0.49967 -6.73363,0.86449 -3.63046,0.57103 -7.2596,1.12853 -10.89362,1.664 -2.86766,0.71691 -3.88154,-3.33858 -1.01387,-4.05549 z"
       inkscape:connector-curvature="0" />
    <path
       style="fill:#000000;fill-opacity:1;fill-rule:nonzero;stroke:none"
       id="path24794"
       d="m 551.24036,225.03981 c 3.08026,-0.29369 6.06577,-1.0416 9.07449,-1.72069 1.28944,-0.31368 2.59877,-0.52879 3.90761,-0.74084 2.91807,-0.47155 3.58494,3.65522 0.66688,4.12677 l 0,0 c -1.22423,0.19728 -2.44913,0.39633 -3.65462,0.69191 -3.30829,0.74583 -6.59954,1.56478 -9.99436,1.82316 -2.95592,0 -2.95592,-4.18031 0,-4.18031 z"
       inkscape:connector-curvature="0" />
    <path
       style="fill:#000000;fill-opacity:1;fill-rule:nonzero;stroke:none"
       id="path24796"
       d="m 550.0136,201.35141 c 3.48001,0.19033 6.91188,-0.40612 10.35244,-0.8241 1.668,-0.30816 3.4592,-0.0604 4.96633,-0.93301 0.49778,-0.43567 0.0619,0.0195 -0.0774,0.2699 -4.70827,0.75902 1.2635,2.23831 0.74783,2.50663 -0.31385,0.16331 -0.65361,-0.27333 -0.99047,-0.3815 -1.79766,-0.93201 -3.62461,-1.75355 -5.28558,-2.92327 -1.10521,-0.93329 -0.56698,-0.40151 -1.58818,-1.62172 -1.82054,-2.32876 1.47283,-4.90338 3.29337,-2.57462 l 0,0 c 0.34959,0.55244 0.11884,0.26253 0.75452,0.81628 1.28256,0.98998 2.81319,1.49788 4.17601,2.34706 2.11399,0.74518 2.53821,0.95698 2.7299,3.48922 -0.40714,0.77235 -1.01626,1.32849 -1.78175,1.7546 -2.02265,1.04989 -4.20128,1.19457 -6.44064,1.40024 -3.60706,0.43787 -7.20838,1.04544 -10.85639,0.8546 -2.95592,0 -2.95592,-4.18031 0,-4.18031 z"
       inkscape:connector-curvature="0" />
    <path
       style="fill:#000000;fill-opacity:1;fill-rule:nonzero;stroke:none"
       id="path24802"
       d="m 676.61714,224.50287 c 0.78658,3.504 0.96602,7.10721 1.13021,10.68344 0.43484,4.04747 0.92899,8.08786 1.3004,12.14193 0.29738,4.02267 1.29651,2.8691 -3.91964,2.26269 -0.13662,-4.06093 0.1101,-8.08701 0.82714,-12.08521 0.94176,-3.78459 2.17447,-7.55909 4.2162,-10.90184 1.98343,-2.7346 4.10708,-3.404 6.96916,-1.34842 2.38485,2.66581 3.21485,6.32151 3.92323,9.73914 0.48655,2.90659 0.68725,5.84956 0.78525,8.79175 -0.70737,-0.51782 0.28546,0.84324 0.0163,0.81256 -1.40511,-0.16018 -2.92948,-0.0491 -4.18427,-0.70137 -0.29293,-0.15228 0.79898,-4.49658 0.83742,-4.66719 0.73018,-4.04842 2.30856,-7.79176 4.82588,-11.03729 4.15599,-4.60638 6.18025,-0.71126 7.22528,3.50244 0.71628,3.96226 0.89208,7.99366 1.01391,12.01016 0.0278,1.29848 0.0179,0.6985 0.0323,1.7999 0.0385,2.95567 -4.14145,3.01011 -4.17995,0.0544 l 0,0 c -0.0136,-1.05425 -0.004,-0.47825 -0.0308,-1.72795 -0.11261,-3.73337 -0.27134,-7.47925 -0.90193,-11.16742 -0.11207,-0.49777 -0.21283,-0.99821 -0.3362,-1.49329 -0.0696,-0.27916 -0.34399,-0.55922 -0.24236,-0.82837 0.065,-0.17225 0.37294,0.0491 0.5523,0.008 0.39847,-0.0923 0.7687,-0.28063 1.15866,-0.40407 0.42031,-0.13304 -3.22514,1.2107 -1.01704,0.84552 -2.2099,2.69103 -3.37347,5.97369 -4.02409,9.36626 -0.22459,0.97495 -0.58329,3.66313 -0.7332,3.7154 -4.44736,1.55062 -4.14424,2.03613 -4.19028,0.051 -0.089,-2.70617 -0.26973,-5.41282 -0.70194,-8.08845 -0.51028,-2.50663 -1.09943,-5.11744 -2.44375,-7.31956 -0.47342,-0.59998 0.84872,-0.4112 0.304,-0.59685 -0.34434,-0.11736 -1.04368,0.80176 -1.11941,0.90979 -1.85769,2.81845 -2.72581,6.22012 -3.64218,9.42573 -0.69799,3.75875 -0.87597,7.54847 -0.7595,11.3676 -5.39198,1.68535 -3.99513,2.12054 -4.42343,-1.9135 -0.37686,-4.11744 -0.8891,-8.21976 -1.31345,-12.33227 -0.15006,-3.29903 -0.30458,-6.6242 -1.00976,-9.86042 -0.71692,-2.86767 3.33857,-3.88154 4.05549,-1.01388 z"
       inkscape:connector-curvature="0" />
    <path
       style="fill:#000000;fill-opacity:1;fill-rule:nonzero;stroke:none"
       id="path24804"
       d="m 717.45943,226.53752 c -3.10364,0.46481 -4.90936,2.78412 -6.37262,5.3507 -1.60898,3.59875 -2.24778,7.59453 -1.12605,11.41298 1.37879,2.5559 1.45342,1.3545 2.60707,-0.15919 1.852,-3.23303 2.36418,-6.98863 2.77992,-10.63363 0.17022,-1.56387 0.2436,-3.13572 0.22358,-4.70824 -0.0492,-1.7366 -0.29191,-0.42567 4.12039,-0.19139 1.14827,3.23542 1.58997,6.90617 1.97389,10.37872 0.81507,8.94802 0.7762,17.92854 0.41901,26.89577 -0.47961,7.20753 -1.21627,14.65207 -5.45975,20.70051 -0.61563,0.45347 -1.12922,1.09664 -1.84689,1.36042 -5.5233,2.03005 -8.73775,-4.81067 -10.38832,-8.6952 -1.23388,-3.13053 -1.51326,-6.429 -1.77526,-9.7411 -0.22616,-2.94726 3.94189,-3.2671 4.16806,-0.31984 l 0,0 c 0.21284,2.87331 0.41731,5.73666 1.46867,8.45969 0.33742,0.83958 0.61578,1.7054 1.01228,2.51875 0.14588,0.29926 2.79071,4.23175 3.25164,4.26286 0.25863,0.0174 0.48036,-0.19505 0.72055,-0.29257 3.91936,-5.21207 4.07939,-12.17868 4.67204,-18.4202 0.35019,-8.75974 0.39227,-17.5318 -0.39743,-26.27346 -0.40885,-3.76218 -1.13608,-7.4094 -1.99126,-11.08524 4.23193,-0.55138 4.17264,-1.80348 4.23238,0.39161 0.0203,1.74866 -0.0597,3.49671 -0.25055,5.23565 -0.51865,4.49167 -1.23205,9.08736 -3.79914,12.9235 -0.51606,0.54439 -0.94798,1.18325 -1.54818,1.63318 -3.44448,2.58211 -6.86899,0.36224 -8.22859,-3.15129 -1.26278,-4.96794 -0.68748,-9.99166 1.55982,-14.62353 2.08818,-3.46317 4.74068,-6.58336 8.96087,-7.28495 2.86766,-0.71692 3.88154,3.33857 1.01387,4.05549 z"
       inkscape:connector-curvature="0" />
    <path
       style="fill:#a0a0a0;stroke:none"
       d="m 623.99475,199.21757 c -14.15523,-5.06498 -21.75901,-15.96422 -21.5506,-30.89058 0.21998,-15.7551 7.57732,-31.88598 17.63306,-38.66025 14.40409,-9.70364 44.88555,-1.41943 55.8741,15.18539 14.29623,21.60306 7.6393,44.45194 -15.50195,53.20806 -10.23303,3.87195 -27.34941,4.41537 -36.45461,1.15738 l 0,0 z"
       id="path24806"
       inkscape:connector-curvature="0" />
  </g>
</svg>
