<?xml version="1.0" encoding="UTF-8" standalone="no"?>
<!-- Created with Inkscape (http://www.inkscape.org/) -->

<svg
   xmlns:dc="http://purl.org/dc/elements/1.1/"
   xmlns:cc="http://creativecommons.org/ns#"
   xmlns:rdf="http://www.w3.org/1999/02/22-rdf-syntax-ns#"
   xmlns:svg="http://www.w3.org/2000/svg"
   xmlns="http://www.w3.org/2000/svg"
   xmlns:sodipodi="http://sodipodi.sourceforge.net/DTD/sodipodi-0.dtd"
   xmlns:inkscape="http://www.inkscape.org/namespaces/inkscape"
   width="700"
   height="290"
   id="svg2985"
   version="1.1"
   inkscape:version="0.48.0 r9654"
   sodipodi:docname="New document 2">
  <defs
     id="defs2987" />
  <sodipodi:namedview
     id="base"
     pagecolor="#ffffff"
     bordercolor="#666666"
     borderopacity="1.0"
     inkscape:pageopacity="0.0"
     inkscape:pageshadow="2"
     inkscape:zoom="0.94"
     inkscape:cx="400"
     inkscape:cy="267.74419"
     inkscape:current-layer="layer1"
     inkscape:document-units="px"
     showgrid="false"
     width="700px"
     inkscape:window-width="1280"
     inkscape:window-height="752"
     inkscape:window-x="0"
     inkscape:window-y="0"
     inkscape:window-maximized="0" />
  <metadata
     id="metadata2990">
    <rdf:RDF>
      <cc:Work
         rdf:about="">
        <dc:format>image/svg+xml</dc:format>
        <dc:type
           rdf:resource="http://purl.org/dc/dcmitype/StillImage" />
        <dc:title></dc:title>
      </cc:Work>
    </rdf:RDF>
  </metadata>
  <g
     id="layer1"
     inkscape:label="Layer 1"
     inkscape:groupmode="layer"
     transform="translate(0,-309.99999)">
    <rect
       style="color:#000000;fill:none;stroke:#000000;stroke-width:4.19999981;stroke-linecap:round;stroke-linejoin:round;stroke-miterlimit:4;stroke-opacity:1;stroke-dasharray:none;stroke-dashoffset:0;marker:none;visibility:visible;display:inline;overflow:visible;enable-background:accumulate"
       id="rect2995"
       width="167.41573"
       height="96.629211"
       x="324.5159"
       y="430.7674" />
    <rect
       style="color:#000000;fill:none;stroke:#000000;stroke-width:4.19999981;stroke-linecap:round;stroke-linejoin:round;stroke-miterlimit:4;stroke-opacity:1;stroke-dasharray:none;stroke-dashoffset:0;marker:none;visibility:visible;display:inline;overflow:visible;enable-background:accumulate"
       id="rect2997"
       width="60.674156"
       height="14.606742"
       x="492.80801"
       y="471.21683" />
    <path
       style="fill:#000000;fill-opacity:1;fill-rule:nonzero;stroke:none"
       id="path3003"
       d="m 554.43184,441.32409 c 3.92586,-0.85004 7.86959,-1.63722 11.8343,-2.28643 3.65328,-0.51476 7.33747,-0.99999 11.03067,-0.80466 4.30334,0.5192 7.98648,2.6388 11.40304,5.17467 4.71928,3.88875 6.6637,8.23354 8.12596,14.03643 1.4546,7.77334 0.5403,15.75903 -0.7638,23.48666 -1.44707,8.56123 -4.40178,16.69664 -7.70206,24.68612 -2.92266,6.75417 -6.48825,13.18846 -10.9741,19.02243 -4.34794,5.19001 -9.67302,7.57915 -16.1151,9.07174 -4.94421,0.90835 -9.96168,1.19405 -14.96361,0.74498 -2.83861,-0.20471 -5.56242,-0.91553 -8.02613,-2.34076 -1.16011,-0.62413 -1.8149,-1.61773 -2.0098,-2.90122 -0.0486,-0.39154 -0.0138,-0.77677 0.0832,-1.15658 0.68307,-2.28354 3.91247,-1.31753 3.2294,0.966 l 0,0 c 0.007,-0.0307 0.0758,-0.28075 0.0304,-0.24125 -0.29384,-0.018 -0.0787,0.16001 0.36925,0.42378 2.0207,1.20128 4.29225,1.71661 6.62827,1.89304 4.64763,0.42654 9.30942,0.14969 13.90689,-0.67379 5.51089,-1.24423 10.49598,-3.37921 14.197,-7.84315 4.31535,-5.58954 7.71359,-11.77846 10.52897,-18.2524 3.20549,-7.75651 6.08819,-15.64983 7.4941,-23.96269 1.23951,-7.26726 2.12201,-14.78933 0.81606,-22.10899 -1.20049,-4.89464 -2.87461,-8.87046 -6.87321,-12.15059 -2.86857,-2.16246 -5.96025,-3.99652 -9.58068,-4.50934 -3.44149,-0.22349 -6.88487,0.32812 -10.29095,0.7662 -3.98764,0.65065 -7.95047,1.45432 -11.90138,2.29671 -2.35955,0.33708 -2.83625,-2.99983 -0.4767,-3.33691 z"
       inkscape:connector-curvature="0" />
    <path
       style="fill:#000000;fill-opacity:1;fill-rule:nonzero;stroke:none"
       id="path3005"
       d="m 536.55826,524.58762 c 2.54162,-0.19785 5.01471,-0.71711 7.2919,-1.87496 1.6809,-0.79214 3.19654,-1.86117 4.47115,-3.21028 0.56345,-0.78747 1.24561,-1.34865 2.19705,-1.59801 0.39354,-0.084 0.7941,-0.10554 1.19275,-0.0563 0.0546,0.011 0.10919,0.022 0.16379,0.033 2.3163,0.56201 1.52151,3.83775 -0.79479,3.27575 l 0,0 c 0.0429,0.008 0.0858,0.0163 0.12876,0.0245 0.0572,0.004 0.24216,0.0123 0.0758,0.006 0.74743,-0.91368 -0.27912,0.40577 -0.52276,0.64048 -1.55488,1.62191 -3.37644,2.93982 -5.41148,3.90379 -2.76269,1.3495 -5.7178,2.05078 -8.79217,2.22723 -2.38351,0 -2.38351,-3.37078 0,-3.37078 z"
       inkscape:connector-curvature="0" />
    <path
       style="fill:#000000;fill-opacity:1;fill-rule:nonzero;stroke:none"
       id="path3007"
       d="m 537.61956,526.54645 c 0.64376,2.9912 1.60044,5.87161 2.6965,8.72211 0.72172,1.79683 1.47826,3.59395 2.45119,5.27163 0.5864,0.88428 0.98897,1.87459 1.28835,2.88852 -0.10246,-0.1628 0.1705,0.46599 0.0898,0.36863 -1.16308,-1.40278 -0.45723,-1.31578 -1.98692,-0.99505 1.89012,-1.45208 3.94367,1.22095 2.05356,2.67304 l 0,0 c -1.26094,0.43702 -2.91838,0.9591 -3.39236,-1.1028 -0.21676,-0.75868 -0.52234,-1.49431 -0.97142,-2.14666 -1.05502,-1.8335 -1.89621,-3.7848 -2.67839,-5.74755 -1.11382,-2.89673 -2.10369,-5.8238 -2.74809,-8.86593 -0.75373,-2.26119 2.44408,-3.32713 3.19781,-1.06594 z"
       inkscape:connector-curvature="0" />
    <flowRoot
       xml:space="preserve"
       id="flowRoot3017"
       style="font-size:40px;font-style:normal;font-weight:normal;line-height:125%;letter-spacing:0px;word-spacing:0px;fill:#000000;fill-opacity:1;stroke:none;font-family:Sans"><flowRegion
         id="flowRegion3019"><rect
           id="rect3021"
           width="103.37079"
           height="48.314606"
           x="395.50562"
           y="207.86517" /></flowRegion><flowPara
         id="flowPara3023" /></flowRoot>    <path
       style="fill:#000000;fill-opacity:1;fill-rule:nonzero;stroke:none"
       id="path3025"
       d="m 607.05811,476.45138 c -1.92922,2.37563 -3.60496,4.89873 -4.761,7.73359 -0.57772,1.67124 -1.05351,3.33066 -0.0851,4.90806 0.64398,1.09032 1.48684,1.44179 2.67813,1.04909 1.10207,-0.7097 2.13735,-1.60687 2.90596,-2.67914 0.17383,-0.21489 0.46295,-0.79252 0.52144,-0.94582 -0.01,0.0366 -0.0667,0.10033 -0.03,0.10975 5.03339,1.29124 2.46929,-0.0659 3.83284,2.93626 0.67054,1.33634 1.52382,1.88434 2.94218,2.16061 2.65931,9.7e-4 4.99025,-1.39092 6.99081,-3.01393 2.05827,-1.66857 3.2824,-3.78532 3.87346,-6.32809 0.0532,-1.76404 -0.70048,-3.45769 -1.73837,-4.85288 -0.72543,-0.788 -1.20157,-1.73119 -2.10048,-2.33358 -0.24678,0.0117 -0.53224,-0.0598 -0.79722,-0.0736 -0.021,0.002 0.0422,-9.8e-4 0.0633,-10e-4 -2.36847,0.26734 -2.74655,-3.08217 -0.37809,-3.34952 l 0,0 c 0.15256,-0.0137 0.3052,-0.0247 0.45859,-0.0167 0.90203,0.0451 1.78652,0.23201 2.58311,0.67757 1.20028,0.85541 2.01076,2.00833 2.92122,3.14871 1.54939,2.2536 2.61614,4.80258 2.26435,7.59346 -0.81122,3.26223 -2.39863,6.03131 -5.05156,8.17417 -2.84453,2.22808 -6.10713,4.00613 -9.84034,3.66191 -2.46534,-0.61175 -4.22016,-1.82251 -5.31555,-4.18199 -0.12847,-0.3376 -1.11092,-3.45845 -0.74765,-3.52 1.09884,-0.18617 2.23078,-0.0772 3.34346,-0.0137 0.0691,0.004 -0.0324,0.13464 -0.0486,0.20195 -0.23014,0.70731 -0.61459,1.35009 -1.0307,1.96294 -1.27204,1.70358 -2.9397,3.20285 -4.93395,3.98288 -2.68809,0.44872 -4.93902,-0.29454 -6.34101,-2.76335 -1.35817,-2.73553 -1.09164,-4.96071 -0.058,-7.77478 1.33958,-3.23868 3.23864,-6.15257 5.49531,-8.8359 1.68539,-1.68539 4.0689,0.69811 2.3835,2.38351 z"
       inkscape:connector-curvature="0" />
    <path
       style="fill:#000000;fill-opacity:1;fill-rule:nonzero;stroke:none"
       id="path3027"
       d="m 637.61956,488.3442 c 1.20072,3.32305 1.45741,6.66919 0.96594,10.13937 -0.59025,2.60539 -1.62468,4.86177 -3.94314,6.27668 -0.98185,0.49638 -2.06231,0.64549 -3.14162,0.74893 -2.3735,0.21815 -2.68201,-3.13849 -0.30851,-3.35664 l 0,0 c 0.6143,-0.053 1.24094,-0.10092 1.81636,-0.34068 1.46547,-0.57275 1.7817,-2.4982 2.24085,-3.81088 0.43715,-2.94877 0.20573,-5.76265 -0.82769,-8.59084 -0.75373,-2.26119 2.44408,-3.32713 3.19781,-1.06594 z"
       inkscape:connector-curvature="0" />
    <path
       style="fill:#000000;fill-opacity:1;fill-rule:nonzero;stroke:none"
       id="path3029"
       d="m 661.21506,469.24308 c 1.34418,4.75823 1.25475,9.76014 0.99844,14.65362 -0.31882,4.04878 -0.71384,8.09073 -1.02962,12.13982 -0.0547,0.74487 -0.11485,1.48943 -0.15909,2.23502 -0.14164,2.3793 -3.50647,2.17899 -3.36483,-0.2003 l 0,0 c 0.0457,-0.76619 0.10674,-1.53139 0.16334,-2.29683 0.31371,-4.02176 0.70419,-8.03658 1.02423,-12.05777 0.24455,-4.47138 0.34701,-9.04845 -0.83028,-13.40762 -0.75373,-2.2612 2.44408,-3.32713 3.19781,-1.06594 z"
       inkscape:connector-curvature="0" />
    <path
       style="fill:#000000;fill-opacity:1;fill-rule:nonzero;stroke:none"
       id="path3031"
       d="m 645.91977,466.31199 c 4.92554,0.56341 9.88671,0.71066 14.83875,0.84648 4.50659,0.10523 9.01454,0.12568 13.52217,0.13324 1.09988,-0.11113 2.25963,-0.21333 3.26045,-0.72113 -0.0186,0.008 -0.0372,0.0169 -0.0558,0.0254 -0.0548,0.0431 -0.10949,0.0862 -0.16423,0.12931 1.68931,-1.68146 4.06726,0.7076 2.37794,2.38905 l 0,0 c -0.35676,0.31053 -0.17227,0.17187 -0.55091,0.41937 -1.50016,0.77864 -3.20587,1.01252 -4.87309,1.12883 -4.53659,-0.008 -9.07349,-0.0283 -13.60902,-0.1345 -5.08047,-0.13963 -10.17054,-0.29227 -15.22294,-0.87909 -2.35955,-0.33708 -1.88285,-3.67399 0.4767,-3.33691 z"
       inkscape:connector-curvature="0" />
    <rect
       style="color:#000000;fill:none;stroke:#000000;stroke-width:4.19999981;stroke-linecap:round;stroke-linejoin:round;stroke-miterlimit:4;stroke-opacity:1;stroke-dasharray:none;stroke-dashoffset:0;marker:none;visibility:visible;display:inline;overflow:visible;enable-background:accumulate"
       id="rect3045"
       width="85.393257"
       height="110.11236"
       x="137.99904"
       y="437.50897" />
    <rect
       style="color:#000000;fill:none;stroke:#000000;stroke-width:4.19999981;stroke-linecap:round;stroke-linejoin:round;stroke-miterlimit:4;stroke-opacity:1;stroke-dasharray:none;stroke-dashoffset:0;marker:none;visibility:visible;display:inline;overflow:visible;enable-background:accumulate"
       id="rect3049"
       width="43.820225"
       height="10.11236"
       x="158.22377"
       y="427.14941" />
    <path
       style="fill:#000000;fill-opacity:1;fill-rule:nonzero;stroke:none"
       id="path3051"
       d="m 180.80749,447.12074 c 0.85276,3.33905 1.40531,6.73614 1.79128,10.15739 0.2113,2.09224 0.31748,4.19297 0.35586,6.29496 0.003,0.40472 0.0153,0.81013 -0.0211,1.21365 -0.37001,3.1564 -4.83382,2.63312 -4.46381,-0.52327 l 0,0 c -0.0165,0.20239 -2.6e-4,-0.40624 -0.009,-0.60912 -0.0351,-1.96153 -0.13356,-3.92187 -0.3285,-5.87449 -0.3778,-3.37852 -0.9557,-6.72211 -1.77421,-10.02352 -0.44944,-3.14606 3.99977,-3.78167 4.44921,-0.6356 z"
       inkscape:connector-curvature="0" />
    <path
       style="fill:#000000;fill-opacity:1;fill-rule:nonzero;stroke:none"
       id="path3053"
       d="m 174.00635,453.40428 c 2.55198,0.40459 5.12552,0.65082 7.70147,0.83815 1.10762,0.091 2.21785,0.12147 3.32865,0.12797 0.93881,10e-4 1.87762,-0.002 2.81643,-0.005 0.23507,-7.1e-4 0.47015,-0.001 0.70522,-0.002 0.0803,-3e-4 0.006,-3e-5 0.009,-5e-5 3.17793,-0.0225 3.20982,4.47172 0.0319,4.49427 l 0,0 c -0.007,4e-5 -0.0149,1.1e-4 -0.0224,1.2e-4 -0.23684,9e-4 -0.47368,0.002 -0.71052,0.002 -0.9523,0.003 -1.9046,0.006 -2.8569,0.005 -1.21079,-0.007 -2.42099,-0.0418 -3.62833,-0.13977 -2.714,-0.19804 -5.42533,-0.45909 -8.1138,-0.88742 -3.13477,-0.52246 -2.3959,-4.95569 0.73887,-4.43323 z"
       inkscape:connector-curvature="0" />
    <path
       style="fill:#000000;fill-opacity:1;fill-rule:nonzero;stroke:none"
       id="path3055"
       d="m 178.13129,528.52021 c 2.42743,0 4.85486,0 7.28229,0 1.08699,0 2.17398,0 3.26097,0 0.6759,0 1.3518,0 2.0277,0 0.41851,0 0.83701,0 1.25551,0 0.55341,0 1.10681,0 1.66022,0 0.49194,0 0.98389,0 1.47584,0 0.0739,0 0.14781,0 0.22172,0 2e-4,0 4e-4,0 6e-4,0 3.17801,0 3.17801,4.49438 0,4.49438 l 0,0 c -2e-4,0 -4e-4,0 -6e-4,0 -0.0739,0 -0.14782,0 -0.22172,0 -0.49195,0 -0.9839,0 -1.47584,0 -0.55341,0 -1.10681,0 -1.66022,0 -0.4185,0 -0.837,0 -1.25551,0 -0.6759,0 -1.3518,0 -2.0277,0 -1.08699,0 -2.17398,0 -3.26097,0 -2.42743,0 -4.85486,0 -7.28229,0 -3.178,0 -3.178,-4.49438 0,-4.49438 z"
       inkscape:connector-curvature="0" />
    <path
       style="fill:#000000;fill-opacity:1;fill-rule:nonzero;stroke:none"
       id="path3059"
       d="m 179.57208,423.21942 c -0.0127,-2.53136 -0.12224,-5.04258 0.36403,-7.53644 0.53361,-1.86584 1.55895,-3.48949 2.65338,-5.06699 0.90316,-1.70914 2.27606,-3.06041 3.50207,-4.52392 1.68218,-1.90817 3.89318,-3.20712 6.10152,-4.41596 2.70609,-1.64445 5.58193,-2.92283 8.6336,-3.75414 3.28768,-1.05357 6.72639,-1.3432 10.11091,-1.90129 2.84795,-0.55099 5.72289,-0.90696 8.61597,-1.09511 2.48252,-0.17928 4.93528,-0.17407 7.39226,0.22496 2.38341,0.63787 4.57549,1.80171 6.64881,3.11435 2.54792,1.60235 4.44338,3.8631 6.15959,6.28879 1.47316,1.9004 2.58636,4.00053 3.56004,6.18944 0.96632,2.20156 1.54091,4.52222 2.23457,6.81219 0.60462,2.28045 1.20686,4.56139 1.77105,6.85321 0.43891,2.4896 1.0283,4.94457 1.41852,7.44414 0.47304,2.23469 0.18683,4.57 0.598,6.80181 0.41633,2.01294 0.68074,4.03908 1.16074,6.03762 0.51093,2.03124 1.56896,3.72873 2.75531,5.41936 1.19032,1.84429 2.63022,3.52234 4.00864,5.23175 1.56739,1.6508 3.46259,2.9563 5.36928,4.1843 1.90979,1.08042 3.95291,1.8768 5.89354,2.89458 1.54106,0.63898 3.1853,1.05669 4.80763,1.45533 2.11986,0.40901 4.26272,0.48779 6.37475,0.94918 1.76578,0.46365 3.58219,0.60985 5.3975,0.71221 1.72591,0.20105 3.39299,-0.2589 5.07802,-0.57042 1.4766,-0.27608 2.96192,-0.28703 4.40041,-0.70822 1.52667,-0.30834 2.93475,-0.96859 4.41852,-1.42324 -0.38621,0.45888 2.54483,-0.91235 1.82481,-0.76332 0.9017,-0.76106 1.86602,-1.44054 2.84067,-2.1055 1.12002,-0.51909 1.86486,-0.82458 2.82961,-1.33546 0.76801,-0.26291 1.67142,-0.94371 2.21041,-1.28924 0.84764,-0.70283 1.81267,-1.19953 2.73837,-1.74918 1.07822,-0.81042 2.42457,-1.16792 3.55977,-1.85258 0.60367,-0.46098 1.34789,-0.59832 1.77068,-1.18798 0.90522,-0.95999 2.0277,-1.36205 3.3065,-1.52247 0.38401,-0.0398 0.77025,-0.0621 1.15617,-0.0459 0.0461,2.3e-4 0.28043,-0.005 0.2596,0.001 -2.25755,0.65059 -0.57887,-0.0604 -0.0286,-0.37548 0.27562,-0.15677 0.55268,-0.31098 0.83173,-0.46156 0.0413,-0.0229 0.0841,-0.043 0.1261,-0.0645 2.86142,-1.38276 4.81694,2.66389 1.95553,4.04666 l 0,0 c 0.0131,-0.007 0.0525,-0.0264 0.0394,-0.0197 -0.24143,0.1311 -0.482,0.2638 -0.7206,0.40003 -0.82428,0.47135 -1.71082,1.06148 -2.69882,0.96149 -0.13003,0.005 -0.26015,0.009 -0.38977,0.0207 -0.30772,0.0323 -0.42918,0.0747 -0.35085,-0.10411 -0.8709,1.03484 -1.96021,1.66885 -3.12923,2.31039 -1.1441,0.58602 -2.35323,1.03366 -3.41828,1.77321 -0.73204,0.41732 -1.43326,0.79052 -2.10515,1.30123 -0.92463,0.69435 -1.9549,1.36731 -3.01012,1.82991 -0.81075,0.42906 -1.63036,0.83252 -2.48519,1.13303 -0.76103,0.41278 -1.41487,1.0414 -2.12546,1.52932 -1.07967,0.92422 -2.26585,1.62356 -3.69127,1.87328 -1.50229,0.44097 -2.92033,1.14153 -4.46662,1.43743 -1.58971,0.45486 -3.20086,0.56921 -4.8312,0.81003 -2.0333,0.37592 -4.06707,0.87 -6.14996,0.63809 -2.05588,-0.11753 -4.11229,-0.29579 -6.11354,-0.8111 -2.14328,-0.48176 -4.34206,-0.47638 -6.48541,-0.97514 -1.96889,-0.49179 -3.96935,-0.99711 -5.81751,-1.83953 -2.05811,-1.08509 -4.24466,-1.90428 -6.24718,-3.10161 -2.29791,-1.49813 -4.58454,-3.07893 -6.42371,-5.13528 -1.44142,-1.78978 -2.94027,-3.55274 -4.19343,-5.47787 -1.49715,-2.15096 -2.80169,-4.37313 -3.44139,-6.94494 -0.50606,-2.11195 -0.79707,-4.25129 -1.22876,-6.3789 -0.3287,-2.26016 -0.23759,-4.5586 -0.60075,-6.81933 -0.36607,-2.37191 -0.93588,-4.69936 -1.34233,-7.06299 -0.54224,-2.21933 -1.12942,-4.4269 -1.71163,-6.63489 -0.6273,-2.11528 -1.15607,-4.25204 -2.03988,-6.28458 -0.84363,-1.92451 -1.81925,-3.75141 -3.11988,-5.41276 -1.37751,-1.95286 -2.84904,-3.80482 -4.90692,-5.09366 -1.55611,-1.00354 -3.20601,-1.86606 -4.96049,-2.46808 -2.11756,-0.35391 -4.23052,-0.32076 -6.37314,-0.17466 -2.74758,0.17578 -5.47626,0.52181 -8.18053,1.04561 -3.24054,0.52531 -6.53045,0.80376 -9.67737,1.80827 -2.71564,0.70444 -5.23683,1.91636 -7.64013,3.35736 -1.72994,0.93934 -3.48561,1.91123 -4.82501,3.37635 -1.15101,1.34608 -2.41086,2.59814 -3.24268,4.1868 -0.75236,1.07452 -1.4648,2.15041 -1.93497,3.38405 -0.46008,2.19123 -0.23044,4.42342 -0.27582,6.65036 0,3.178 -4.49438,3.178 -4.49438,0 z"
       inkscape:connector-curvature="0" />
    <path
       style="fill:#000000;fill-opacity:1;fill-rule:nonzero;stroke:none"
       id="path3061"
       d="m 184.17028,548.0583 c 0.42523,2.68525 0.71549,5.38849 0.88884,8.10099 -0.0576,2.25897 0.45128,4.45065 0.78965,6.66907 0.34745,1.86094 0.5356,3.88491 1.2636,5.64822 0.5289,1.06422 0.6923,2.3741 1.52058,3.26734 1.34879,1.25872 3.09128,2.14455 4.80248,2.81016 2.97882,1.03652 6.06041,1.60168 9.18421,1.95871 2.88951,0.29678 5.77412,0.42175 8.65476,0.038 2.35947,-0.22731 4.6552,-0.71796 6.96596,-1.21854 2.41057,-0.64948 4.74418,-1.49156 7.09056,-2.33275 2.77923,-1.08354 5.41935,-2.46759 8.00119,-3.95083 2.00854,-1.15947 3.86038,-2.53349 5.44026,-4.23166 2.4265,-2.48729 4.92825,-4.90605 7.29428,-7.45119 2.06388,-1.86418 3.67304,-4.10264 4.98359,-6.54021 1.54112,-2.98387 2.76963,-6.10832 4.04193,-9.21104 1.1503,-2.8052 1.9377,-5.7322 2.77003,-8.64076 0.80305,-3.25988 2.01267,-6.40276 3.57807,-9.36847 1.572,-2.86368 3.90073,-5.12007 6.45457,-7.10291 2.05306,-1.49259 4.04673,-3.05697 6.12988,-4.50692 2.1684,-1.35283 4.39153,-2.61901 6.7535,-3.60015 1.9712,-0.91748 4.0127,-1.65621 6.14411,-2.08772 1.90463,-0.61518 3.87185,-0.9951 5.81696,-1.45842 2.36352,-0.7161 4.69897,-1.50438 7.03814,-2.29522 1.86705,-0.66176 3.80988,-0.885 5.77468,-0.97675 1.48649,-0.37562 2.98248,-0.69926 4.49819,-0.93036 1.46182,-0.18717 2.93778,-0.20885 4.40941,-0.22227 0.73314,-0.006 1.46628,-10e-4 2.1994,0.002 0.94191,0.003 1.88382,0.003 2.82573,0.003 0.83391,1.6e-4 1.66783,2e-4 2.50174,1.6e-4 0.37299,-3e-5 0.74599,-3e-5 1.11898,-4e-5 0.42502,0 0.85003,0 1.27505,0 0.0496,0 0.0992,0 0.14884,0 3.17801,1.1e-4 3.17786,4.49449 -1.5e-4,4.49438 l 0,0 c -0.0496,0 -0.0991,0 -0.14869,0 -0.425,0 -0.85,0 -1.275,0 -0.37295,10e-6 -0.74589,10e-6 -1.11883,4e-5 -0.83443,4e-5 -1.66886,0 -2.50329,-1.6e-4 -0.94853,-2.9e-4 -1.89708,5e-5 -2.84561,-0.003 -0.71261,-0.003 -1.42523,-0.008 -2.13785,-0.002 -1.25979,0.0111 -2.52322,0.025 -3.77598,0.17167 -1.6727,0.25197 -3.30086,0.69818 -4.96814,0.97652 -1.5456,0.0678 -3.07009,0.21665 -4.53911,0.74466 -2.46974,0.83489 -4.93606,1.66876 -7.43629,2.40966 -2.00364,0.47708 -4.02332,0.88072 -5.99089,1.49621 -1.85022,0.34804 -3.59602,1.06262 -5.30595,1.83606 -2.0683,0.834 -3.98501,1.9819 -5.89143,3.13071 -2.02494,1.40942 -3.96097,2.93263 -5.95844,4.38148 -2.06531,1.56663 -3.94285,3.37228 -5.22604,5.65106 -1.43912,2.67678 -2.4913,5.54558 -3.22492,8.49451 -0.87933,3.06705 -1.71577,6.15223 -2.93267,9.10922 -1.33524,3.25237 -2.62556,6.52783 -4.25113,9.65129 -1.51014,2.75453 -3.30717,5.33288 -5.64507,7.45874 -2.38139,2.54778 -4.87879,4.98695 -7.31932,7.47785 -1.90899,1.98765 -4.05881,3.67746 -6.46372,5.03728 -2.81267,1.61584 -5.69524,3.11479 -8.72626,4.28555 -2.53096,0.90313 -5.05018,1.81009 -7.65369,2.49365 -2.4315,0.52564 -4.85269,1.0336 -7.333,1.28218 -3.24707,0.41901 -6.49796,0.31887 -9.75278,-0.0295 -3.52202,-0.40876 -6.99959,-1.05952 -10.34978,-2.25499 -2.44776,-1.01077 -4.94087,-2.27247 -6.71931,-4.28387 -0.95609,-1.36002 -1.58849,-2.85091 -2.14319,-4.41438 -0.72688,-2.10154 -1.1669,-4.32357 -1.48743,-6.52023 -0.35576,-2.34622 -0.88023,-4.67193 -0.83171,-7.05988 -0.16168,-2.56061 -0.43783,-5.11205 -0.83673,-7.64712 -0.52246,-3.13476 3.91077,-3.87364 4.43323,-0.73887 z"
       inkscape:connector-curvature="0" />
    <path
       style="fill:#000000;fill-opacity:1;fill-rule:nonzero;stroke:none"
       id="path3873"
       d="m 174.60407,393.06082 c 3.0636,-2.41914 6.2149,-4.70518 9.55163,-6.73238 5.07598,-3.07946 10.68459,-5.05997 16.36221,-6.69405 6.09402,-1.87736 12.40376,-2.65802 18.73962,-3.0969 7.38059,-0.643 13.03358,0.43216 19.83467,3.24757 5.92926,2.65547 10.4262,7.05384 14.0648,12.32628 1.59973,2.83187 2.99595,5.76788 4.09808,8.82767 0.23132,0.62888 0.43212,1.25374 0.44936,1.9244 -0.16095,2.37806 -3.52404,2.15045 -3.3631,-0.22761 l 0,0 c 0.0386,0.95342 -0.0694,-0.38269 -0.25827,-0.55637 -1.00117,-2.79046 -2.27817,-5.46173 -3.70468,-8.05982 -3.2458,-4.75206 -7.26511,-8.71804 -12.58301,-11.12321 -6.20281,-2.60485 -11.55658,-3.61246 -18.30584,-2.99611 -6.10014,0.41913 -12.17526,1.16274 -18.04184,2.97411 -5.39325,1.54291 -10.72237,3.41897 -15.545,6.33678 -3.24651,1.96214 -6.29654,4.20074 -9.27616,6.54627 -1.90681,1.4301 -3.92928,-1.26653 -2.02247,-2.69663 z"
       inkscape:connector-curvature="0" />
    <path
       style="fill:#000000;fill-opacity:1;fill-rule:nonzero;stroke:none"
       id="path3875"
       d="m 253.56164,402.79257 c -2.05937,-0.99907 -3.90802,-2.36362 -5.78729,-3.65572 -1.20205,-0.67712 -2.18825,-1.63303 -3.28319,-2.45744 -0.15226,-0.12128 -0.48327,-0.3436 -0.5994,-0.42084 0.023,0.0128 0.0461,0.0256 0.0691,0.0384 -2.12317,-1.08316 -0.59136,-4.08578 1.53182,-3.00263 l 0,0 c 0.0335,0.0181 0.067,0.0363 0.10052,0.0544 0.31991,0.19721 0.62678,0.41419 0.92762,0.63948 1.05766,0.7988 1.99881,1.72194 3.16476,2.37209 1.74936,1.20544 3.46727,2.48304 5.38351,3.41737 2.13188,1.06593 0.62441,4.08085 -1.50746,3.01492 z"
       inkscape:connector-curvature="0" />
    <path
       style="fill:#000000;fill-opacity:1;fill-rule:nonzero;stroke:none"
       id="path3879"
       d="m 254.4759,400.60754 c 0.43616,-1.92895 0.67479,-3.89205 0.81691,-5.86208 0.16476,-2.13377 -5.1e-4,-4.27851 0.28181,-6.39997 0.26758,-1.21811 0.5769,-2.42666 0.89587,-3.6322 0.0522,-0.19736 0.1045,-0.39467 0.16542,-0.58951 0.76864,-2.25616 3.95934,-1.16915 3.19071,1.08702 l 0,0 c -0.0324,0.12164 -0.0642,0.24343 -0.0975,0.3648 -0.28677,1.08354 -0.55924,2.17077 -0.81966,3.26094 -0.3454,2.02079 -0.007,4.11617 -0.25475,6.15363 -0.15871,2.16283 -0.42245,4.31853 -0.90865,6.4349 -0.57809,2.31234 -3.84823,1.49481 -3.27015,-0.81753 z"
       inkscape:connector-curvature="0" />
    <path
       style="fill:#000000;fill-opacity:1;fill-rule:nonzero;stroke:none"
       id="path3881"
       d="m 206.06065,334.26701 c 0.69948,3.57769 0.79171,7.23964 0.91218,10.87244 0.11174,4.17511 0.12785,8.35191 0.13479,12.52826 0.002,2.25762 -0.002,4.51523 -0.005,6.77285 -8.8e-4,0.72773 -0.002,1.45545 -0.002,2.18318 -6e-5,0.0445 -6e-5,0.089 -9e-5,0.13353 0.001,2.3835 -3.36961,2.38516 -3.37078,0.002 l 0,0 c 3e-5,-0.0461 2e-5,-0.0921 9e-5,-0.13821 6.5e-4,-0.72817 0.002,-1.45634 0.002,-2.18451 0.003,-2.25429 0.007,-4.50859 0.005,-6.76289 -0.007,-4.14106 -0.0227,-8.28257 -0.13295,-12.42242 -0.11204,-3.39575 -0.19468,-6.81658 -0.81338,-10.16634 -0.57809,-2.31234 2.69206,-3.12988 3.27014,-0.81754 z"
       inkscape:connector-curvature="0" />
    <path
       style="fill:#000000;fill-opacity:1;fill-rule:nonzero;stroke:none"
       id="path3883"
       d="m 194.0016,332.6375 c 2.66876,0.5192 5.38992,0.67582 8.0998,0.81468 2.48252,0.11171 4.96787,0.12499 7.45244,0.13166 1.19542,0.003 2.39084,-0.002 3.58626,-0.005 0.61811,-0.002 1.23622,-0.002 1.85433,-0.002 0.26444,-1.1e-4 0.52888,-9e-5 0.79332,-9e-5 2.3835,3e-5 2.38346,3.37082 -4e-5,3.37079 l 0,0 c -0.26393,0 -0.52785,-3e-5 -0.79178,9e-5 -0.61542,2.7e-4 -1.23085,5.6e-4 -1.84627,0.002 -1.20163,0.003 -2.40326,0.008 -3.6049,0.005 -2.53923,-0.007 -5.07925,-0.0211 -7.61637,-0.13609 -2.92662,-0.15083 -5.86652,-0.32436 -8.74433,-0.91088 -2.31234,-0.57809 -1.4948,-3.84823 0.81754,-3.27015 z"
       inkscape:connector-curvature="0" />
    <path
       style="fill:#000000;fill-opacity:1;fill-rule:nonzero;stroke:none"
       id="path3885"
       d="m 190.35644,363.91346 c 3.30936,0 6.61872,0 9.92808,0 3.50665,0 7.0133,0 10.51996,0 1.33175,0 2.6635,0 3.99526,0 0.62452,0 1.24903,0 1.87355,0 0.73363,0 1.46726,0 2.20089,0 2.38351,0 2.38351,3.37079 0,3.37079 l 0,0 c -0.73363,0 -1.46726,0 -2.20089,0 -0.62452,0 -1.24903,0 -1.87355,0 -1.33176,0 -2.66351,0 -3.99526,0 -3.50666,0 -7.01331,0 -10.51996,0 -3.30936,0 -6.61872,0 -9.92808,0 -2.3835,0 -2.3835,-3.37079 0,-3.37079 z"
       inkscape:connector-curvature="0" />
    <path
       style="fill:#000000;fill-opacity:1;fill-rule:nonzero;stroke:none"
       id="path3889"
       d="m 173.48317,484.48386 c 1.41396,2.72492 2.82904,5.40462 4.50941,7.97799 1.86456,3.33282 3.87527,6.58192 5.69268,9.94082 0.75465,1.53203 1.72803,2.94138 2.59992,4.40895 0.15285,0.25924 0.30709,0.51777 0.44587,0.78484 -0.75594,-0.26758 -1.52408,-0.50292 -2.26782,-0.80275 -0.0339,-0.0137 0.0547,-0.0503 0.0727,-0.0822 0.11575,-0.20469 0.18947,-0.43046 0.28565,-0.64504 0.56165,-1.25301 0.30654,-0.61066 0.77979,-2.02766 1.30568,-3.4329 2.72595,-6.81878 4.03873,-10.25011 1.1941,-2.51621 1.92976,-5.20672 3.04295,-7.75313 0.35843,-0.75867 0.70921,-1.52719 1.16299,-2.23522 0.1259,-0.17831 0.0543,-0.0836 0.21829,-0.28129 1.60595,-1.76125 4.09674,0.50991 2.49079,2.27116 l 0,0 c 0.0322,-0.0401 0.0644,-0.0802 0.0966,-0.1203 0.007,-0.0105 0.0132,-0.021 0.0199,-0.0315 -0.34906,0.55653 -0.6189,1.15922 -0.90149,1.75082 -1.09746,2.49397 -1.79865,5.14209 -2.98189,7.6043 -1.29871,3.39209 -2.69807,6.7417 -3.99628,10.13276 -0.18226,0.52627 -1.60533,4.42306 -2.34604,4.39336 -0.92772,-0.0372 -1.83217,-0.30222 -2.74825,-0.45332 -0.10296,-0.17808 -0.20661,-0.35576 -0.31052,-0.53328 -0.89481,-1.50657 -1.89176,-2.95574 -2.6675,-4.52818 -1.769,-3.27937 -3.74194,-6.443 -5.54997,-9.70097 -1.74914,-2.68205 -3.22751,-5.47508 -4.70142,-8.31266 -1.06594,-2.13188 1.94899,-3.63934 3.01492,-1.50746 z"
       inkscape:connector-curvature="0" />
    <path
       style="fill:#000000;fill-opacity:1;fill-rule:nonzero;stroke:none"
       id="path3909"
       d="m 402.9891,475.01287 c -1.47003,2.09611 -1.78975,4.5454 -1.61097,7.03798 0.38182,1.52489 1.20964,4.11865 2.96008,4.58592 1.34002,-0.73136 2.10371,-2.47206 2.71304,-3.80342 0.72007,-1.82008 1.22777,-3.78179 -0.15165,-5.38959 -0.88728,-0.72979 -1.95932,-1.02546 -3.07225,-1.19293 -0.46524,-0.0519 -0.93612,-0.0346 -1.4028,-0.009 -0.0507,0.002 -0.10108,0.008 -0.15161,0.0113 -2.37567,0.19311 -2.64877,-3.1666 -0.2731,-3.35971 l 0,0 c 0.36035,-0.0257 -0.21244,0.0124 0.24797,-0.0177 0.70097,-0.0361 1.40747,-0.0505 2.10451,0.046 2.01122,0.32674 3.86419,1.01821 5.2836,2.55415 1.98112,2.97893 1.7973,5.5495 0.46773,8.78808 -1.42022,2.97846 -3.44025,6.25168 -7.24222,5.40344 -2.85063,-1.59201 -4.31427,-4.22245 -4.84825,-7.41771 -0.16315,-3.29423 0.30183,-6.51457 2.27929,-9.25874 1.4301,-1.9068 4.12673,0.11567 2.69663,2.02248 z"
       inkscape:connector-curvature="0" />
    <path
       style="fill:#000000;fill-opacity:1;fill-rule:nonzero;stroke:none"
       id="path3911"
       d="m 418.33612,460.78729 c -0.14251,4.12371 0.17139,8.22552 0.50334,12.33164 0.27669,3.44209 0.46854,6.89035 0.58222,10.34153 0.0224,0.7942 0.0457,1.58857 0.0452,2.38315 -6e-4,0.0258 -10e-4,0.0516 -0.002,0.0775 -0.066,2.38259 -3.43553,2.28921 -3.36949,-0.0934 l 0,0 c 2e-4,-0.004 4.1e-4,-0.007 6.2e-4,-0.0105 8.5e-4,-0.74881 -0.0237,-1.49742 -0.0435,-2.24588 -0.11166,-3.39754 -0.30083,-6.79219 -0.57308,-10.1808 -0.33916,-4.19621 -0.65548,-8.38922 -0.5143,-12.60322 0,-2.38351 3.37078,-2.38351 3.37078,0 z"
       inkscape:connector-curvature="0" />
    <path
       style="fill:#000000;fill-opacity:1;fill-rule:nonzero;stroke:none"
       id="path3913"
       d="m 411.97912,468.59257 c 2.40595,0.51953 4.87378,0.6771 7.32588,0.81514 1.29489,0.0607 2.59051,0.11601 3.88688,0.13131 0.27799,0.003 0.16302,-0.003 0.55035,-0.006 0.23487,-0.001 0.46973,-0.002 0.70459,-0.002 0.0116,10e-6 0.0232,10e-6 0.0349,2e-5 2.3835,10e-4 2.38178,3.37201 -0.002,3.37079 l 0,0 c -0.0108,-1e-5 -0.0216,-1e-5 -0.0325,-2e-5 -0.22716,1.3e-4 -0.45432,5.6e-4 -0.68147,0.002 -0.20362,10e-4 -0.40718,0.007 -0.61455,0.006 -1.34633,-0.0163 -2.69191,-0.0726 -4.0367,-0.13644 -2.66334,-0.15108 -5.34303,-0.3297 -7.9532,-0.91042 -2.31234,-0.57808 -1.49481,-3.84823 0.81753,-3.27014 z"
       inkscape:connector-curvature="0" />
    <path
       style="fill:#000000;fill-opacity:1;fill-rule:nonzero;stroke:none"
       id="path3915"
       d="m 432.04602,475.05898 c -1.71242,1.46889 -2.54171,3.36606 -3.06589,5.50301 -0.27829,1.31309 -0.57158,3.05923 0.69111,3.93755 1.28539,0.6149 2.67971,-0.12842 3.84516,-0.70052 1.10269,-0.71984 1.42703,-1.81465 1.59847,-3.04535 0.2734,-1.64142 -0.0357,-3.1274 -0.73199,-4.60657 -0.61278,-0.85569 -1.27225,-1.5034 -2.24595,-1.89826 -0.56937,-0.29417 -2.70767,-0.0523 -0.78227,-0.40658 0.23267,-0.0935 0.3237,-0.26758 0.43856,-0.43924 -0.10275,2.38129 -3.47041,2.23598 -3.36766,-0.14531 l 0,0 c 0.054,-0.8691 0.35763,-1.61043 1.03197,-2.20168 1.5622,-0.52076 2.43103,-0.43741 4.01122,0.0963 1.72233,0.76432 3.00807,1.9602 3.97589,3.58487 0.94619,2.08778 1.37222,4.23785 1.00156,6.53068 -0.3858,2.34982 -1.32261,4.32283 -3.46622,5.56761 -2.51507,1.19549 -5.17781,1.89607 -7.62437,0.11357 -1.96262,-2.03885 -2.34535,-4.48147 -1.64384,-7.2117 0.699,-2.71085 1.80405,-5.17229 3.95074,-7.06187 1.6854,-1.6854 4.0689,0.69811 2.38351,2.3835 z"
       inkscape:connector-curvature="0" />
    <path
       style="fill:#000000;fill-opacity:1;fill-rule:nonzero;stroke:none"
       id="path3917"
       d="m 443.1393,473.59286 c 0.94261,2.46257 1.81303,4.9425 2.45908,7.50021 0.3488,1.11986 0.25049,2.51831 1.11554,3.42347 -0.81995,-0.76648 -1.57286,0.21998 -2.49378,0.87311 -0.019,-1.0051 -0.0196,-2.01759 -0.0255,-3.02497 -0.01,-1.86647 -0.013,-3.73296 -0.015,-5.59945 -0.051,-1.35982 -0.0618,-2.63082 0.45639,-3.90699 0.75725,-1.74303 2.58719,-1.99485 4.26425,-2.15138 1.15677,-0.30387 2.29118,-0.67251 3.45717,-0.94379 1.60927,-0.0721 2.76501,0.66416 3.61508,1.991 0.24581,0.42234 0.44127,0.87137 0.54727,1.3487 0.008,0.059 0.0169,0.118 0.0254,0.17701 0.24677,2.37069 -3.1059,2.71968 -3.35268,0.34898 l 0,0 c 0.007,0.0417 0.0133,0.0833 0.02,0.12495 -0.0361,-0.0764 -0.0747,-0.15173 -0.10838,-0.22928 -0.0459,-0.0836 -0.21428,-0.20406 -0.13272,-0.25353 0.0501,-0.0304 0.21202,0.0742 0.1733,0.0302 -0.16665,-0.18959 -0.72526,-0.122 -0.0251,-0.25452 -1.31832,0.30514 -2.58795,0.7761 -3.92106,1.01786 -0.80734,0.0667 -0.32509,0.015 -1.06782,0.11895 -0.10321,0.0145 -0.2071,0.0577 -0.30998,0.041 -0.0863,-0.014 0.13725,-0.33673 0.0419,-0.26835 -0.073,0.0523 -0.0872,0.15706 -0.13074,0.23559 -0.36946,0.73701 -0.1146,1.70511 -0.18148,2.5701 0.002,1.86104 0.005,3.72209 0.0149,5.58311 0.007,1.22027 0.0606,2.44732 -0.0318,3.6643 -1.71155,1.52548 -1.92568,2.17371 -3.41813,0.65451 -1.09819,-1.38331 -1.49519,-3.03262 -1.7862,-4.7492 -0.63975,-2.56195 -1.56099,-5.02402 -2.46003,-7.50399 -0.57809,-2.31234 2.69206,-3.12988 3.27014,-0.81754 z"
       inkscape:connector-curvature="0" />
    <path
       style="fill:#000000;fill-opacity:1;fill-rule:nonzero;stroke:none"
       id="path3919"
       d="m 31.819268,460.78729 c -0.100392,4.21916 0.383372,8.41962 0.672829,12.62354 0.08701,2.93262 0.574917,5.83707 1.210131,8.69609 0.02431,0.064 0.04861,0.12806 0.07292,0.19208 0.750241,2.26236 -2.449209,3.32336 -3.19945,1.06101 l 0,0 c -0.05477,-0.17443 -0.109537,-0.34886 -0.164306,-0.52328 -0.669363,-3.02341 -1.18302,-6.09417 -1.282128,-9.19444 -0.294524,-4.28087 -0.783146,-8.55851 -0.680785,-12.855 0,-2.38351 3.370786,-2.38351 3.370786,0 z"
       inkscape:connector-curvature="0" />
    <path
       style="fill:#000000;fill-opacity:1;fill-rule:nonzero;stroke:none"
       id="path3921"
       d="m 29.139117,459.335 c 2.653878,-0.53827 5.357819,-0.75353 8.056674,-0.91029 3.091976,0.0437 5.03646,0.50696 6.43087,3.44863 0.66142,2.78425 -0.378018,4.99541 -2.330495,6.92947 -1.557237,1.38625 -3.476814,2.3544 -5.393593,3.15294 -1.981821,0.71124 -4.092563,0.83567 -6.176469,0.93357 -2.215368,0.061 -1.309447,0.42966 -0.842496,-3.34208 2.383437,-0.0181 2.408969,3.35264 0.02553,3.37069 l 0,0 c -0.551754,-3.80113 -1.466802,-3.31831 0.659949,-3.39574 1.699363,-0.0786 3.426079,-0.15254 5.05578,-0.68568 1.530174,-0.61215 3.062465,-1.39262 4.324463,-2.45332 0.987891,-0.92719 1.597881,-1.77706 1.575744,-3.18985 -0.430027,-1.45716 -1.761578,-1.33029 -3.134575,-1.40347 -2.489412,0.14346 -4.982344,0.33933 -7.433848,0.81528 -2.312341,0.57808 -3.129876,-2.69206 -0.817536,-3.27015 z"
       inkscape:connector-curvature="0" />
    <path
       style="fill:#000000;fill-opacity:1;fill-rule:nonzero;stroke:none"
       id="path3923"
       d="m 46.337841,471.84476 c -1.32683,1.21109 -2.48668,2.73351 -2.32272,4.59802 0.38417,1.7208 1.6801,2.39763 3.24624,2.84692 1.57215,0.14693 2.4887,-0.6905 3.08122,-2.0396 0.47975,-1.36695 0.68097,-2.69933 0.087,-4.04818 -0.7044,-0.88671 -1.8908,-1.11737 -2.94931,-1.3183 -0.48982,-0.0701 -0.98489,-0.14978 -1.48131,-0.13683 0.0132,-3.3e-4 0.0264,-6.5e-4 0.0396,-9.8e-4 -2.37255,0.22828 -2.695384,-3.12701 -0.32284,-3.35529 l 0,0 c 0.0516,-0.004 0.10312,-0.008 0.15467,-0.0121 0.75811,-0.0221 1.51409,0.0764 2.26088,0.19782 2.24366,0.45295 4.34006,1.27811 5.45132,3.43356 0.80056,2.28867 0.71717,4.4936 -0.22515,6.74795 -1.48216,2.78631 -3.84003,4.3364 -7.09425,3.7515 -2.984994,-0.96969 -5.176248,-2.74703 -5.618652,-6.03416 0.0807,-3.10874 1.311464,-5.31213 3.670882,-7.327 1.9068,-1.43011 3.92928,1.26652 2.02247,2.69663 z"
       inkscape:connector-curvature="0" />
    <path
       style="fill:#000000;fill-opacity:1;fill-rule:nonzero;stroke:none"
       id="path3927"
       d="m 61.709611,470.26098 c -1.01085,2.05545 -1.83108,4.15815 -2.41879,6.37146 -0.34099,1.46447 -0.4716,2.96642 -0.51905,4.46597 0.20587,0.94662 -0.17108,-0.14556 -0.28071,-0.35116 -0.0457,-0.0857 0.19439,10e-4 0.29145,0.006 0.56566,0.0652 0.80349,-0.70231 1.1569,-1.14627 0.47195,-0.56276 0.96178,-1.11141 1.48256,-1.62957 0.54313,-0.75371 1.86791,-0.0168 2.7835,0.1406 1.10263,0.6445 2.01518,1.53888 3.03248,2.30439 0.43254,0.42003 0.96644,1.23467 1.37429,1.37593 0.98597,0.10256 1.9786,0.1032 2.96925,0.1082 0.94656,0.10894 1.34828,-0.26597 1.9065,-0.9074 0.63467,-1.12304 0.91766,-2.50269 0.79438,-3.78231 -0.0981,-1.21653 -0.52921,-2.31095 -1.25078,-3.28671 -0.68821,-0.81695 -1.18247,-1.7765 -1.60946,-2.75009 -0.10736,-0.24243 -0.19471,-0.49167 -0.25671,-0.74921 -0.4882,-2.33297 2.81113,-3.02338 3.29932,-0.6904 l 0,0 c -0.0741,-0.2668 0.007,0.0223 0.0471,0.092 0.33263,0.76869 0.71859,1.52293 1.27512,2.15598 1.04467,1.52294 1.74504,3.19166 1.86191,5.0581 0.0608,2.18817 -0.31552,4.40347 -1.64953,6.20106 -1.18989,1.30621 -2.599,2.14979 -4.43525,2.02972 -1.39172,-0.007 -2.80714,0.0312 -4.16256,-0.3331 -0.8713,-0.40266 -1.74682,-0.93123 -2.19194,-1.82958 -0.9629,-0.72628 -1.81645,-1.57137 -2.85843,-2.18168 -2.05624,-1.58668 0.83384,-10e-4 1.44544,-0.56313 -0.42817,0.43176 -0.83864,0.88083 -1.22869,1.34749 -1.11254,1.36953 -2.27899,2.69292 -4.25433,2.37399 -1.66488,-0.27995 -3.06322,-1.20341 -2.91082,-3.10153 0.0578,-1.75588 0.21971,-3.51346 0.63112,-5.22563 0.6512,-2.43237 1.55158,-4.74983 2.66083,-7.01033 1.06593,-2.13187 4.08086,-0.62441 3.01492,1.50746 z"
       inkscape:connector-curvature="0" />
    <path
       style="fill:#000000;fill-opacity:1;fill-rule:nonzero;stroke:none"
       id="path3929"
       d="m 80.518451,474.21055 c 1.46936,0.414 3.11774,0.56713 4.587292,0.0638 0.67197,-0.23879 0.56025,-0.7734 0.63695,-1.40552 0.20065,-1.01229 -0.0117,-1.76886 -0.36055,-2.68005 -0.37068,-0.29665 -1.03725,-0.57803 -1.512102,-0.41116 -1.19522,0.2395 -2.34508,0.96358 -3.00586,1.99141 -0.74488,1.14618 -0.57588,2.3923 -0.16846,3.62787 0.69821,1.18517 1.63896,2.23188 2.91996,2.77493 0.925792,0.36161 1.932152,0.36924 2.912282,0.38391 0.87482,0.005 2.01183,0.012 2.71987,-0.0847 0.0174,-0.0212 0.0348,-0.0424 0.0522,-0.0636 2.10011,-1.12723 3.69425,1.84278 1.59414,2.97 l 0,0 c -0.21735,0.1048 -0.43469,0.20959 -0.65203,0.31439 -1.24391,0.28593 -2.49441,0.24573 -3.76913,0.23426 -1.46429,-0.0256 -2.943242,-0.1086 -4.304162,-0.70978 -2.10695,-1.05494 -3.74973,-2.681 -4.70564,-4.86397 -0.63078,-2.28232 -0.72361,-4.55036 0.68831,-6.58417 1.38878,-1.77518 3.26484,-3.0924 5.55837,-3.35752 2.018262,0.0158 3.835252,0.68368 4.820442,2.5734 0.54491,1.42461 0.80219,2.8052 0.55313,4.33391 -0.27954,1.96015 -1.04849,3.55521 -3.06779,4.20206 -2.078862,0.52559 -4.244612,0.59474 -6.314722,-0.0393 -2.31234,-0.57809 -1.4948,-3.84823 0.81754,-3.27014 z"
       inkscape:connector-curvature="0" />
    <path
       style="fill:#000000;fill-opacity:1;fill-rule:nonzero;stroke:none"
       id="path3931"
       d="m 95.955083,467.62992 c 0.93891,2.3137 1.67575,4.72017 2.35016,7.12551 0.50896,1.6521 1.421877,3.10336 2.278837,4.58888 0.21733,0.37369 0.43321,0.74829 0.65593,1.11881 -4.442127,0.89656 -2.874387,1.43677 -3.109507,-0.25279 -0.0438,-0.31491 -0.37868,-1.10141 -0.45817,-1.39145 -0.39653,-1.61296 -1.04343,-3.14195 -1.41918,-4.76883 -0.49336,-2.16574 0.20098,-4.14323 1.325,-5.96776 1.21092,-1.52662 2.622597,-2.75571 4.390137,-3.57677 1.32621,-0.51757 2.73955,-0.58993 4.14474,-0.61678 0.67287,-0.007 1.34569,0.008 2.01847,0.0164 0.21891,0.003 0.43783,0.006 0.65674,0.008 2.38334,0.0283 2.34338,3.3988 -0.04,3.37055 l 0,0 c -0.22043,-0.003 -0.44086,-0.005 -0.66129,-0.008 -0.63723,-0.008 -1.27448,-0.0226 -1.91179,-0.0167 -0.9451,0.0167 -1.90068,0.0325 -2.81192,0.31516 -1.18652,0.52081 -2.076,1.35282 -2.93803,2.31267 -0.68732,1.03476 -1.17231,2.15486 -0.88498,3.41689 0.35114,1.58195 1.01997,3.05531 1.38425,4.62895 0.12007,0.4436 0.8216,3.12302 0.57005,3.24032 -0.99821,0.46549 -2.09143,0.69163 -3.137137,1.03745 -0.23517,-0.39149 -0.46394,-0.78678 -0.69316,-1.18177 -0.99685,-1.72814 -2.03278,-3.43757 -2.60549,-5.36615 -0.61252,-2.20084 -1.29791,-4.39517 -2.11862,-6.52509 -1.06594,-2.13187 1.94899,-3.63933 3.01492,-1.50746 z"
       inkscape:connector-curvature="0" />
    <path
       style="fill:#000000;fill-opacity:1;fill-rule:nonzero;stroke:none"
       id="path3933"
       d="m 38.945417,494.43527 c 1.150377,0.28759 2.300753,0.57518 3.45113,0.86278 0.178497,0.0446 0.356993,0.0892 0.53549,0.13387 -1.918315,4.23138 -0.900066,3.03399 -4.055957,1.75421 -1.679981,-0.58455 -3.402791,-0.58592 -5.139554,-0.35039 -1.332937,0.35226 -2.154534,1.30847 -2.725969,2.50322 -0.221519,0.76103 -0.527019,1.3179 0.175838,1.80179 2.140064,0.71871 4.417692,0.80398 6.652281,0.91821 3.253429,0.15723 6.297465,1.00023 9.165055,2.51697 2.44221,1.62716 3.52775,3.18854 3.48231,6.16489 -0.51149,3.54927 -3.63872,5.09997 -6.60256,6.41066 -3.083977,1.21437 -6.270964,1.59151 -9.545707,1.2534 -1.483675,-0.27699 -2.438336,-1.00428 -3.216975,-2.26176 -1.160992,-2.08163 1.782883,-3.72352 2.943875,-1.64189 l 0,0 c 0.07369,0.32662 0.14262,0.39249 0.62926,0.55173 2.690219,0.29582 5.291962,-0.009 7.836698,-0.98888 1.670919,-0.72415 4.022649,-1.51166 4.586549,-3.4372 0.10838,-1.5946 -0.36728,-2.11121 -1.70617,-3.08019 -2.41422,-1.31711 -4.994758,-1.97519 -7.745978,-2.12142 -3.068968,-0.15965 -6.388913,-0.17866 -8.982951,-2.02828 -1.54094,-1.91085 -1.565552,-3.3531 -0.684645,-5.56909 1.127388,-2.1869 2.820671,-3.80902 5.300043,-4.33423 2.331748,-0.29834 4.653041,-0.24191 6.88512,0.58518 0.114989,0.0495 2.833493,1.26928 2.822271,1.34501 -0.165983,1.12009 -0.59358,2.18547 -0.89037,3.2782 -0.178496,-0.0446 -0.356993,-0.0892 -0.53549,-0.13387 -1.150377,-0.28759 -2.300753,-0.57519 -3.45113,-0.86278 -2.31234,-0.57809 -1.494805,-3.84823 0.817536,-3.27014 z"
       inkscape:connector-curvature="0" />
    <path
       style="fill:#000000;fill-opacity:1;fill-rule:nonzero;stroke:none"
       id="path3935"
       d="m 54.375261,502.80635 c 0.57278,2.10022 0.5735,4.2993 1.01514,6.41745 0.35255,1.61608 0.82982,3.32618 2.20614,4.35136 1.24522,0.72897 2.64422,0.82638 4.04912,0.90863 1.27788,-0.19097 1.60508,-1.78936 1.93442,-2.84871 0.59357,-2.5808 0.88399,-5.23338 0.22308,-7.82244 -0.41296,-1.00402 -0.54641,-2.16646 -1.42204,-2.88006 -0.55275,-0.58069 -0.95396,-1.2738 -1.22799,-2.0228 -0.0162,-0.0516 -0.0323,-0.10317 -0.0485,-0.15476 -0.68253,-2.28369 2.54711,-3.24893 3.22963,-0.96523 l 0,0 c -0.001,-0.002 -0.003,-0.005 -0.004,-0.007 0.0806,0.22729 0.20016,0.43424 0.31008,0.64811 1.33896,1.25405 1.93223,2.87459 2.44386,4.60752 0.71896,3.21897 0.53238,6.46343 -0.30309,9.65456 -0.90602,2.63504 -2.2128,5.07973 -5.3372,5.15587 -2.13848,-0.13135 -4.21665,-0.42419 -6.01716,-1.69416 -1.87608,-1.66939 -2.89618,-3.80066 -3.34196,-6.27315 -0.39789,-2.0743 -0.47142,-4.19918 -0.97923,-6.25732 -0.57808,-2.31234 2.69206,-3.12987 3.27015,-0.81753 z"
       inkscape:connector-curvature="0" />
    <path
       style="fill:#000000;fill-opacity:1;fill-rule:nonzero;stroke:none"
       id="path3937"
       d="m 70.918361,502.20615 c 1.26822,-1.28259 2.47979,-2.60152 3.98053,-3.61393 1.6917,-0.98504 3.29939,-1.0341 4.99838,-0.0917 1.68627,1.13456 2.21544,2.9728 2.23118,4.8962 -0.15426,2.31248 -1.33687,4.13483 -2.73956,5.88229 -1.43173,1.63056 -3.15066,2.49019 -5.31425,2.29955 -1.77007,-0.385 -2.28007,-1.8159 -3.01501,-3.23969 -0.38959,-0.87133 -0.68634,-1.78118 -0.92946,-2.70321 -0.10702,-0.54907 -0.1222,-1.10975 -0.11853,-1.6674 0.008,-0.16883 0.008,-0.3363 0.008,-0.50508 8.7e-4,-0.23925 0.001,-0.4785 0.002,-0.71775 3.85146,0.18071 3.37076,-0.29263 3.37074,2.14001 0.19944,2.92492 0.60531,5.84112 0.81015,8.77434 0.22557,3.6069 0.2823,7.22137 0.31136,10.83429 0.0112,1.88998 0.0126,3.78002 0.007,5.67003 0.28427,1.76564 -3.37234,1.76074 -3.37484,-0.62441 -0.002,-2.3835 3.36828,-2.38704 3.37078,-0.004 l 0,0 c 0.002,2.37932 -3.66365,2.37019 -3.36671,0.61753 0.006,-1.87752 0.004,-3.75507 -0.007,-5.63256 -0.0284,-3.54384 -0.0832,-7.08921 -0.30332,-10.6272 -0.20905,-3.01132 -0.64028,-6.00204 -0.8183,-9.00853 2e-5,-2.43259 -0.48068,-1.95958 3.37083,-2.13744 -2.3e-4,0.24335 -6.5e-4,0.48669 -0.002,0.73003 -9e-4,0.20335 -0.003,0.35806 -0.008,0.51642 -3.7e-4,0.26134 0.0149,0.52824 0.008,0.7855 0.17874,0.68525 0.39927,1.35995 0.66607,2.01609 0.22168,0.43159 0.9203,1.29528 0.37784,1.43103 0.97836,0.15024 1.64282,-0.31791 2.32579,-1.05807 0.94678,-1.17946 1.87199,-2.33776 2.00061,-3.91828 0.16333,-0.63571 -0.135,-1.49009 -0.6506,-1.89207 -0.38405,-0.46215 -0.79411,-0.16324 -1.34386,0.0398 -1.327,0.86532 -2.32643,2.10125 -3.46451,3.19125 -1.68539,1.6854 -4.06889,-0.69811 -2.3835,-2.3835 z"
       inkscape:connector-curvature="0" />
    <path
       style="fill:#000000;fill-opacity:1;fill-rule:nonzero;stroke:none"
       id="path3939"
       d="m 84.401503,501.08255 c 1.49509,-1.61183 3.11885,-3.06155 4.89382,-4.35599 1.23504,-0.82669 2.5849,-1.23914 4.04974,-1.35995 1.95548,0.1852 3.16018,1.68169 4.01191,3.30991 0.66368,1.35513 0.71855,2.83346 0.75905,4.31081 -0.0675,2.26515 -1.03493,4.05173 -2.59921,5.62624 -1.3776,1.0998 -2.7803,1.50121 -4.48848,0.99035 -1.51682,-0.64995 -2.78764,-1.75965 -3.89634,-2.96239 -0.3589,-0.54189 -0.581,-0.93497 -1.12697,-1.21082 -0.245,-0.0488 0.35144,0.0361 0.35569,0.0363 -1.69963,-1.45725 -1.77075,-1.34883 -1.73899,-2.74069 -0.11165,-1.16987 2.40186,1.62696 1.18918,1.62886 -0.18789,3.6e-4 -0.37577,0.003 -0.56362,0.006 1.67551,-2.56915 1.49807,-2.8874 2.23432,-0.70755 0.88723,2.79736 1.40011,5.71511 1.9055,8.60405 0.50638,3.21618 0.71797,6.46752 0.83178,9.71817 0.0253,1.03228 0.0539,2.06517 0.0385,3.09786 10e-4,0.10026 -0.009,0.19991 -0.0153,0.29975 -0.24219,2.37117 -3.59553,2.02866 -3.35334,-0.34251 l 0,0 c -5.7e-4,-0.003 -0.002,-0.006 -0.002,-0.009 0.0155,-0.97631 -0.0145,-1.95287 -0.0369,-2.92879 -0.1074,-3.09567 -0.30617,-6.19211 -0.78355,-9.25561 -0.4842,-2.77675 -0.96961,-5.58257 -1.82921,-8.26907 -0.038,-1.80563 -2.385992,-0.16772 0.93397,-3.57734 0.21156,-0.004 0.42314,-0.007 0.63474,-0.007 0.99306,-0.001 2.21022,1.67299 2.18498,1.84071 -0.028,1.14469 0.35873,1.22395 -1.72311,-0.72761 0.44978,0.0165 0.87075,0.12317 1.27277,0.33254 0.88751,0.46869 1.62164,1.10432 2.12253,1.98549 0.62939,0.80518 1.53143,1.43993 2.38821,1.9766 0.6995,0.25542 0.12781,-0.0254 0.0638,0.19291 -0.0469,0.15994 1.17903,-0.52047 1.02758,-0.36451 0.9298,-0.90202 1.5234,-1.80028 1.60357,-3.14363 -0.0254,-0.98933 0.005,-1.99344 -0.41443,-2.91324 -0.25881,-0.62335 -0.84464,-0.96909 -1.03958,-1.36239 -0.046,-0.0929 0.31331,0.0952 0.30223,-0.0732 -0.8391,0.0505 -1.59407,0.26748 -2.31556,0.72366 -1.63621,1.18854 -3.11897,2.52907 -4.49407,4.01426 -1.68539,1.68539 -4.068902,-0.69812 -2.38351,-2.38351 z"
       inkscape:connector-curvature="0" />
    <path
       style="fill:#000000;fill-opacity:1;fill-rule:nonzero;stroke:none"
       id="path3941"
       d="m 103.81346,491.57039 c 0.67575,3.04852 0.78196,6.18909 0.91165,9.29834 -0.0174,2.7718 0.54359,5.49669 0.93274,8.22952 0.10596,0.77963 0.21793,1.55867 0.30811,2.34036 0.006,0.0429 0.009,0.0862 0.0129,0.1293 0.20433,2.37473 -3.15405,2.6637 -3.35838,0.28897 l 0,0 c -0.003,-0.0311 0.0336,0.30218 -0.003,-0.0329 -0.0893,-0.75142 -0.19246,-1.50112 -0.29655,-2.25062 -0.40479,-2.84388 -0.9794,-5.6802 -0.96349,-8.56462 -0.11934,-2.88107 -0.2086,-5.79227 -0.81391,-8.6208 -0.57809,-2.31234 2.69205,-3.12988 3.27014,-0.81754 z"
       inkscape:connector-curvature="0" />
    <path
       style="fill:#000000;fill-opacity:1;fill-rule:nonzero;stroke:none"
       id="path3949"
       d="m 370.97798,462.10701 c -1.13686,4.42637 -2.7681,8.70139 -4.14886,13.05279 -1.24288,3.52023 -2.35385,7.0834 -3.2842,10.69866 -0.44931,1.78769 -0.10572,2.54234 -3.64577,0.90333 -0.10032,-0.0464 0.28706,-1.65476 0.33493,-1.86473 1.02111,-3.26648 2.46189,-6.37636 3.53463,-9.63187 1.03574,-3.40307 2.84315,-6.47607 4.22682,-9.73592 0.44412,-1.01547 0.78063,-2.08579 0.93107,-3.186 0.44327,-1.22494 1.32029,-1.78468 2.55657,-1.8397 0.8931,0.0667 0.24879,-0.10715 1.7147,0.47724 1.56209,1.90185 2.29746,4.27625 3.01963,6.59182 1.14316,3.68959 2.02226,7.45176 3.39447,11.06686 0.31714,0.79279 0.65169,1.57926 1.02678,2.34657 0.0539,0.11017 0.28971,0.32455 0.16712,0.32774 -2.98559,0.0776 -2.87668,0.68657 -2.92096,-0.51765 0.52551,-2.75994 1.13646,-5.50768 1.81634,-8.23386 0.68335,-2.84657 1.41171,-5.7255 2.74207,-8.34624 0.64863,-1.11588 1.48679,-2.72031 3.11025,-2.38254 0.49247,0.10245 0.86553,0.51278 1.2983,0.76918 1.03395,1.73279 1.7091,3.64483 2.46115,5.51068 1.20088,3.19586 2.29662,6.43154 3.16802,9.73332 0.81559,2.45464 1.34705,4.99435 2.25155,7.41771 0.32614,0.93289 0.89325,1.75521 1.51562,2.51455 0.0349,0.0397 0.0698,0.0793 0.10467,0.11901 1.56383,1.79876 -0.98,4.01035 -2.54383,2.21159 l 0,0 c -0.0586,-0.0678 -0.11717,-0.13569 -0.17575,-0.20353 -0.84888,-1.04904 -1.60525,-2.18857 -2.06043,-3.46757 -0.93638,-2.53001 -1.5163,-5.1693 -2.35165,-7.73398 -0.83057,-3.16656 -1.88928,-6.26551 -3.03462,-9.33106 -0.59556,-1.47783 -1.35303,-2.95672 -1.88574,-4.44814 -0.0147,-0.041 0.0859,0.0144 0.12888,0.0217 0.26219,0.0802 0.51247,0.24676 0.78656,0.24045 1.00796,-0.0232 1.26924,-1.24083 0.22593,0.56773 -1.23724,2.37677 -1.82052,5.04392 -2.47123,7.62629 -0.65766,2.61229 -1.23217,5.2494 -1.74935,7.89263 -1.27779,6.7605 -4.32094,0.0345 -4.76206,-1.44094 -1.39098,-3.68208 -2.31094,-7.50307 -3.46183,-11.26273 -0.38764,-1.26008 -0.74551,-2.62182 -1.33782,-3.80931 -0.0936,-0.18757 -0.7846,-1.20558 -0.75939,-1.29783 0.0382,-0.13965 0.22946,0.17657 0.34418,0.26485 2.28293,0.53428 -0.54225,-0.041 0.31254,0.14548 0.43762,-0.22391 0.60954,-0.51332 0.70618,-1.05317 -0.2037,1.38767 -0.60099,2.74287 -1.16557,4.0271 -1.35003,3.17409 -3.10227,6.16891 -4.1287,9.47564 -1.04532,3.15313 -2.40008,6.18213 -3.44936,9.32637 -0.0653,0.28384 -0.0858,0.58184 -0.19577,0.85152 -0.0238,0.0585 -0.0187,-0.16938 -0.0819,-0.17081 -3.73487,-0.0848 -3.49851,0.97602 -2.96159,-1.31225 0.94684,-3.67529 2.07139,-7.29962 3.33583,-10.87835 1.3453,-4.2334 2.92008,-8.39541 4.05623,-12.69366 0.46744,-2.33722 3.77277,-1.67615 3.30532,0.66107 z"
       inkscape:connector-curvature="0" />
    <path
       style="fill:#000000;fill-opacity:1;fill-rule:nonzero;stroke:none"
       id="path3959"
       d="m 113.84174,497.73154 c 0,2.56269 0,5.12538 0,7.68807 -0.0478,2.01379 0.26649,4.03171 1.01664,5.90092 1.08726,1.18852 0.64637,0.51295 0.91671,0.18921 0.98279,-1.36509 1.54745,-2.97358 2.26513,-4.48313 0.72273,-1.45667 1.05568,-3.05168 1.32735,-4.6426 0.0755,-0.58554 0.10631,-1.17534 0.10955,-1.76526 0.51616,0.46011 3.36022,-1.18036 3.34326,0.7977 -0.13168,3.3188 0.23859,6.61492 0.50946,9.91702 0.40149,4.6044 0.70824,9.20604 -0.22792,13.75489 -1.12955,4.29969 -3.97917,7.37966 -7.37131,10.06087 -3.21217,2.38224 -6.90908,3.49314 -10.86549,3.55082 -1.92701,-0.11082 -3.28406,-0.73654 -4.5797,-2.12094 -1.508087,-1.84573 1.10217,-3.9785 2.61027,-2.13277 l 0,0 c 0.24484,0.76581 1.30117,0.71021 1.93832,0.88306 3.20741,-0.008 6.20196,-0.91747 8.81513,-2.83152 2.78302,-2.16756 5.1856,-4.61504 6.15669,-8.11521 0.94509,-4.20535 0.46425,-8.51209 0.1645,-12.77365 -0.27913,-3.4036 -0.65232,-6.80252 -0.5206,-10.22318 0.0194,-2.03079 3.57873,-2.49108 3.39815,-0.78096 0.002,0.78551 -0.0523,1.57102 -0.15811,2.34939 -0.32692,1.89598 -0.74963,3.78928 -1.60813,5.5256 -0.98084,2.0406 -1.69145,4.29925 -3.44418,5.83946 -2.58255,1.49488 -4.45915,0.75225 -5.91481,-1.76211 -0.8841,-2.27168 -1.30928,-4.6951 -1.2517,-7.13761 0,-2.56269 0,-5.12538 0,-7.68807 0,-2.38351 3.37079,-2.38351 3.37079,0 z"
       inkscape:connector-curvature="0" />
  </g>
</svg>
