<?xml version="1.0" encoding="UTF-8" standalone="no"?>
<!-- Created with Inkscape (http://www.inkscape.org/) -->

<svg
   xmlns:dc="http://purl.org/dc/elements/1.1/"
   xmlns:cc="http://creativecommons.org/ns#"
   xmlns:rdf="http://www.w3.org/1999/02/22-rdf-syntax-ns#"
   xmlns:svg="http://www.w3.org/2000/svg"
   xmlns="http://www.w3.org/2000/svg"
   xmlns:sodipodi="http://sodipodi.sourceforge.net/DTD/sodipodi-0.dtd"
   xmlns:inkscape="http://www.inkscape.org/namespaces/inkscape"
   width="480.08093"
   height="430.97342"
   id="svg7054"
   version="1.1"
   inkscape:version="0.48.0 r9654"
   sodipodi:docname="PowerVsOmega.svg">
  <defs
     id="defs7056" />
  <sodipodi:namedview
     inkscape:document-units="mm"
     pagecolor="#ffffff"
     bordercolor="#666666"
     borderopacity="1.0"
     inkscape:pageopacity="0.0"
     inkscape:pageshadow="2"
     inkscape:zoom="1.0042198"
     inkscape:cx="237.83185"
     inkscape:cy="196.24313"
     inkscape:current-layer="layer1"
     id="namedview7058"
     showgrid="false"
     fit-margin-top="0"
     fit-margin-left="0"
     fit-margin-right="0"
     fit-margin-bottom="0"
     inkscape:window-width="1280"
     inkscape:window-height="752"
     inkscape:window-x="0"
     inkscape:window-y="0"
     inkscape:window-maximized="1" />
  <metadata
     id="metadata7060">
    <rdf:RDF>
      <cc:Work
         rdf:about="">
        <dc:format>image/svg+xml</dc:format>
        <dc:type
           rdf:resource="http://purl.org/dc/dcmitype/StillImage" />
        <dc:title />
      </cc:Work>
    </rdf:RDF>
  </metadata>
  <g
     inkscape:label="Layer 1"
     inkscape:groupmode="layer"
     id="layer1"
     transform="translate(-207.21444,-171.57502)">
    <path
       style="fill:#000000;fill-opacity:1;fill-rule:nonzero;stroke:none"
       id="path7583"
       d="m 238.69296,188.92265 c 2.6074,-2.24096 4.55435,-4.99676 6.5437,-7.76676 1.47194,-2.44187 3.26271,-4.70146 4.46395,-7.29633 0.15,-0.22111 0.47439,-1.30124 0.48353,-1.33267 -0.13132,1.5019 -0.18292,1.30158 3.87745,1.36721 0.87032,0.0141 -0.48431,-2.36519 0.5387,-0.27742 0.10122,0.20657 0.21997,0.40408 0.32995,0.60612 1.20814,3.12382 2.77364,6.09168 4.36529,9.0331 1.0608,2.05809 2.06406,4.14657 2.98784,6.26984 -0.65945,-1.18079 1.00429,1.02304 1.13631,1.19839 0.13937,0.17872 0.26387,0.36713 0.38176,0.56024 1.44263,2.57998 -2.20602,4.62016 -3.64865,2.04017 l 0,0 c -0.0248,-0.0295 -0.0528,-0.0566 -0.0745,-0.0884 -0.52323,-0.69733 -1.10756,-1.34376 -1.62846,-2.04338 -0.87553,-2.01463 -1.82851,-3.99533 -2.83186,-5.94925 -1.59206,-2.94912 -3.18816,-5.91832 -4.37808,-9.05695 -0.23641,-0.45123 -1.93913,-3.50513 -1.08382,-3.78297 4.40846,-1.4321 4.27219,-0.88159 4.17015,0.68745 -0.14253,0.88511 -0.4876,1.72011 -0.83915,2.53992 -1.33057,2.82124 -3.20996,5.32243 -4.85501,7.96346 -2.11927,2.95091 -4.22383,5.88192 -6.98317,8.28419 -2.09015,2.09015 -5.04608,-0.86577 -2.95592,-2.95592 z"
       inkscape:connector-curvature="0" />
    <path
       style="fill:#000000;fill-opacity:1;fill-rule:nonzero;stroke:none"
       id="path7589"
       d="m 252.90852,176.57293 c 0,4.96137 0,9.92274 0,14.88412 0.0278,8.53885 -0.10856,17.07783 0.16561,25.61303 0.55184,13.79108 2.09386,27.51032 2.91648,41.28761 0.91185,18.18941 0.99578,36.4064 1.08647,54.61428 -0.0231,21.05337 0.0177,42.10119 0.42447,63.15083 0.59433,23.38867 0.56787,46.78736 1.05801,70.1771 0.30192,19.09348 1.29312,38.1632 2.00694,57.24303 0.43735,11.89784 0.61762,23.80244 0.69536,35.70734 0.0326,6.42137 0.0258,12.84285 0.0178,19.26427 -0.004,2.94995 -0.008,5.89991 -0.01,8.84986 -9e-4,1.70341 -9e-4,3.40682 -8.9e-4,5.11023 -0.19885,0.71148 0.41257,4.0333 -0.31082,1.40972 -0.11035,-0.11424 -0.4577,-0.43861 -0.33106,-0.34273 1.0772,0.81563 1.51445,1.8599 1.82301,3.13866 1.22868,2.49197 -3.97083,3.60233 -3.95821,-0.17665 0.0103,-2.9559 4.1906,-2.94131 4.18028,0.0146 l 0,0 c -10e-4,0.34881 0.31618,0.90758 -0.004,1.04644 -4.5448,1.97224 -3.92641,1.91627 -4.28728,0.0737 -0.25315,-1.12276 0.57415,-0.006 -0.64806,-1.09444 -0.61457,-1.46122 -0.77556,-2.49211 -0.64436,-4.06931 -1e-5,-1.70428 -1e-5,-3.40857 8.9e-4,-5.11285 0.002,-2.95083 0.006,-5.90166 0.01,-8.85249 0.008,-6.41058 0.0148,-12.82122 -0.0177,-19.23176 -0.0774,-11.86189 -0.25682,-23.72348 -0.69252,-35.57834 -0.71458,-19.10275 -1.7068,-38.19538 -2.00895,-57.3118 -0.48949,-23.39201 -0.46453,-46.79292 -1.05814,-70.18386 -0.40702,-21.06961 -0.44858,-42.13742 -0.42521,-63.21076 -0.0903,-18.13178 -0.17304,-36.27263 -1.07909,-54.3861 -0.8239,-13.81583 -2.37538,-27.57315 -2.92178,-41.40326 -0.2721,-8.57979 -0.14335,-17.16299 -0.16774,-25.74638 0,-4.96138 0,-9.92275 0,-14.88412 0,-2.95592 4.18031,-2.95592 4.18031,0 z"
       inkscape:connector-curvature="0" />
    <path
       style="fill:#000000;fill-opacity:1;fill-rule:nonzero;stroke:none"
       id="path7597"
       d="m 235.27079,554.11964 c 3.48986,0.7678 7.0794,0.8763 10.63678,1.00905 6.80227,0.1801 13.60806,0.15903 20.41215,0.16456 12.06516,8.3e-4 24.13032,-0.004 36.19548,-0.006 17.65519,-0.003 35.31039,-0.003 52.96559,-0.003 20.80925,0.39873 41.61568,0.88375 62.42749,1.14097 21.76706,0.21044 43.52504,0.91456 65.29037,1.26828 21.50428,0.50794 43.00341,0.20759 64.50395,-0.25115 18.70203,-0.42695 37.40809,-0.60951 56.1143,-0.71262 13.66287,-0.0615 27.3259,-0.062 40.98888,-0.0607 7.72904,0.002 15.45808,0.005 23.18712,0.007 2.09731,5.2e-4 4.19463,10e-4 6.29194,10e-4 0.2421,4e-5 0.48421,-7e-5 0.72632,-8e-5 0.24727,-1e-5 0.49454,0 0.74181,2e-5 0.0791,10e-6 0.15827,10e-6 0.2374,10e-6 0.6898,0 1.37961,0 2.06941,0 1.05905,0 2.11811,0 3.17717,0 0.49117,0 0.98233,0 1.4735,0 0.0305,0 0.061,0 0.0915,0 2.95592,0 2.95592,4.18031 0,4.18031 l 0,0 c -0.0305,0 -0.061,0 -0.0915,0 -0.49117,0 -0.98233,0 -1.4735,0 -1.05906,0 -2.11812,0 -3.17717,0 -0.68981,0 -1.37961,0 -2.06942,0 -0.0792,-1e-5 -0.15848,0 -0.23772,-1e-5 -0.24709,-2e-5 -0.49419,-3e-5 -0.74128,-3e-5 -0.24236,2e-5 -0.48472,1.2e-4 -0.72708,8e-5 -2.09752,-2.7e-4 -4.19505,-8.8e-4 -6.29258,-0.001 -7.72877,-0.002 -15.45754,-0.006 -23.18631,-0.007 -13.65517,-10e-4 -27.31039,-7.5e-4 -40.96545,0.0607 -18.68417,0.10297 -37.36818,0.28526 -56.04817,0.71174 -21.5529,0.45983 -43.10443,0.7601 -64.66106,0.25155 -21.75991,-0.35371 -43.51247,-1.05739 -65.2741,-1.26805 -20.79457,-0.25707 -41.58379,-0.74046 -62.37576,-1.14065 -17.65497,2.4e-4 -35.30995,4.1e-4 -52.96492,0.003 -12.06654,0.002 -24.13307,0.007 -36.19961,0.006 -6.85514,-0.006 -13.71201,0.0156 -20.56529,-0.16749 -3.84621,-0.14471 -7.72543,-0.27744 -11.49411,-1.13092 -2.86767,-0.71692 -1.8538,-4.77241 1.01387,-4.0555 z"
       inkscape:connector-curvature="0" />
    <path
       style="fill:#000000;fill-opacity:1;fill-rule:nonzero;stroke:none"
       id="path7601"
       d="m 669.37634,546.44801 c 2.1808,1.6541 4.61656,2.92827 6.96734,4.31945 1.96774,0.98604 3.77726,2.25697 5.7021,3.32069 1.57681,0.6076 3.00317,1.54925 4.33602,2.57677 1.74848,1.41332 0.76955,1.00694 -1.10493,4.19472 0.0859,0.0139 0.25536,-0.0453 0.25776,0.0418 0.003,0.12589 -3.67973,2.13287 -4.96347,2.96617 -2.02758,1.60145 -4.2651,2.95456 -6.19136,4.67841 -0.2957,0.24471 -0.8562,0.87002 -1.01037,1.07237 0.45413,-0.74804 -0.055,0.13377 -1.6842,0.99577 -0.483,0.25554 -1.92504,-0.36964 0.40307,-0.28069 0.19185,0.007 -0.31411,0.22086 -0.47117,0.33129 -0.50753,0.33442 -1.02488,0.65381 -1.54832,0.96267 -1.35553,0.79083 -0.53938,-0.0201 -3.31527,-2.24009 0.0437,-2.9556 4.22353,-2.89384 4.17985,0.0618 l 0,0 c -1.0016,-0.46224 -3.98927,-0.95945 -2.98804,-1.42249 0.44219,-0.26268 0.88161,-0.5302 1.31178,-0.81226 4.62434,-2.94128 -0.0826,1.13059 0.61214,0.11846 0.48582,-0.71507 1.11007,-1.32161 1.73563,-1.91327 2.09797,-1.85019 4.47984,-3.35753 6.69573,-5.06187 2.18717,-1.41054 4.49434,-2.94668 6.99193,-3.67827 -1.47757,3.71871 -0.53767,4.06156 -1.46954,3.29125 -1.16747,-0.90866 -2.42734,-1.70484 -3.81566,-2.23284 -1.94726,-1.09656 -3.80044,-2.35868 -5.79282,-3.37284 -2.48149,-1.46878 -5.04759,-2.82078 -7.34638,-4.57268 -2.36474,-1.77355 0.14344,-5.1178 2.50818,-3.34424 z"
       inkscape:connector-curvature="0" />
    <path
       style="fill:none;stroke:#000000;stroke-width:2.77086616;stroke-linecap:butt;stroke-linejoin:miter;stroke-miterlimit:4;stroke-opacity:1;stroke-dasharray:none"
       d="M 253.60524,261.96585 603.35751,557.37414"
       id="path7605"
       inkscape:connector-curvature="0" />
    <path
       style="fill:#000000;fill-opacity:1;fill-rule:nonzero;stroke:none"
       id="path7619"
       d="m 213.46607,180.02952 c 1.22655,4.152 1.99164,8.43382 2.79613,12.68242 1.29665,5.63072 1.94721,11.36056 2.35917,17.10931 0.17695,2.86949 0.2786,5.74361 0.30194,8.61824 0.0188,2.32097 -3.32987,2.34691 -3.34858,0.0259 l 0,0 c -0.0224,-2.8067 -0.12199,-5.61289 -0.29386,-8.41459 -0.40166,-5.6252 -1.03866,-11.2312 -2.31118,-16.74015 -0.76405,-4.03856 -1.50694,-8.10011 -2.6128,-12.06212 -0.87941,-2.15502 2.22978,-3.3741 3.10918,-1.21906 z"
       inkscape:connector-curvature="0" />
    <path
       style="fill:#000000;fill-opacity:1;fill-rule:nonzero;stroke:none"
       id="path7621"
       d="m 211.98368,177.15028 c 3.4684,-0.68222 6.96821,-0.82194 10.47378,-0.4175 3.58432,0.58915 6.80996,2.24062 9.64027,4.42365 1.35597,1.30396 2.78656,3.13206 1.87691,5.11291 -0.21359,0.46511 -0.59606,0.83623 -0.89408,1.25434 -2.37893,2.48741 -5.47699,3.92326 -8.57281,5.34678 -3.0181,1.32801 -6.06024,2.56814 -9.22415,3.52065 -0.25781,0.0722 -0.51561,0.1444 -0.77341,0.2166 -2.27704,0.63676 -3.19572,-2.51975 -0.91868,-3.15651 l 0,0 c 0.23673,-0.0661 0.47346,-0.13218 0.7102,-0.19826 3.01452,-0.90486 5.90828,-2.09284 8.78453,-3.35451 2.6551,-1.21945 5.33189,-2.39503 7.42263,-4.47713 0.99385,-0.3921 -0.0444,-1.11065 -0.49056,-1.69195 -2.3309,-1.82508 -5.00731,-3.21721 -7.96709,-3.73837 -3.1477,-0.39381 -6.29396,-0.21822 -9.41081,0.378 -2.3219,0.4552 -2.97863,-2.76351 -0.65673,-3.2187 z"
       inkscape:connector-curvature="0" />
    <path
       style="fill:#000000;fill-opacity:1;fill-rule:nonzero;stroke:none"
       id="path7623"
       d="m 663.62877,579.62369 c -1.28567,2.22979 -2.4954,4.4994 -3.5223,6.85907 -0.71599,2.0579 -1.51595,4.28774 -1.33618,6.49905 0.0545,1.42174 0.71483,1.74302 1.96014,2.0496 1.8045,-0.0186 2.89825,-1.67898 3.9526,-2.92836 0.6159,-0.78885 1.25155,-1.57268 1.7667,-2.43273 4.46914,0.85282 2.63165,0.625 3.24129,3.19685 0.78601,1.44594 2.1289,2.11519 3.60763,2.68865 0.67601,0.15325 3.35361,1.1357 3.94848,0.7261 0.6681,-1.61646 0.72903,-3.59361 0.8748,-5.33216 -0.006,-3.70439 -0.67497,-7.40025 -1.69981,-10.95438 -0.33044,-1.02323 -0.65113,-2.05796 -1.12139,-3.02828 0.002,0.005 0.004,0.0105 0.006,0.0157 0.0292,0.0443 0.0586,0.0887 0.0878,0.133 -1.42606,-1.83056 1.17931,-3.83448 2.60537,-2.00393 l 0,0 c 0.17763,0.25368 0.0997,0.12967 0.23741,0.36966 0.58082,1.15155 0.95471,2.39468 1.35368,3.61556 1.12595,3.93589 1.8617,8.0266 1.81452,12.12869 -0.26045,3.01529 -0.25889,7.00005 -3.58864,8.28066 -1.9618,0.22468 -3.8991,-0.27674 -5.75135,-0.91505 -2.5112,-1.03227 -4.74948,-2.46334 -5.62029,-5.16535 -0.18375,-1.24225 -0.14886,-0.64938 -0.14466,-1.61793 0.002,-0.31082 -0.31709,-0.92404 -0.005,-0.93245 1.02558,-0.0276 2.04639,0.17415 3.05901,0.33795 0.0546,0.009 -0.0541,0.0958 -0.0813,0.1437 -0.61162,1.00451 -1.33623,1.93662 -2.07019,2.85455 -1.9528,2.2954 -4.07327,4.49542 -7.37661,3.96767 -2.53292,-0.76997 -4.21761,-2.27062 -4.34751,-5.04781 -0.073,-2.73195 0.60184,-5.4168 1.60497,-7.95206 1.05611,-2.41123 2.27458,-4.74323 3.59789,-7.02008 1.04188,-2.07051 3.98878,-0.60644 2.9469,1.46407 z"
       inkscape:connector-curvature="0" />
    <path
       style="fill:#000000;fill-opacity:1;fill-rule:nonzero;stroke:none"
       id="path7629"
       d="m 608.79748,573.96883 c -0.2724,-2.05068 -0.94197,-4.03582 -2.03903,-5.90537 -1.94766,-3.29428 -4.86526,-6.12305 -7.58733,-9.02872 -5.14006,-5.83333 -10.99916,-11.20486 -17.16432,-16.37215 -8.63169,-7.24983 -18.23937,-13.71329 -27.80288,-20.17751 -9.32964,-6.32792 -18.98634,-12.32289 -29.40278,-17.50072 -10.15281,-4.90961 -21.02722,-8.75487 -32.20439,-11.95446 -11.37638,-3.14494 -23.14292,-5.10781 -35.08422,-6.2793 -11.27102,-1.07379 -22.60921,-0.75841 -33.90203,-0.17059 -9.26425,0.6587 -18.45077,1.86685 -27.63496,3.00756 -9.57138,1.19703 -19.0343,2.79214 -28.36643,4.84177 -9.26135,2.11065 -18.14437,5.04778 -26.96781,8.07454 -7.83191,2.68466 -15.3796,5.77721 -22.43624,9.56739 -5.7243,3.22072 -10.80075,7.06908 -15.82515,10.92681 -4.3165,3.29747 -8.24034,6.89345 -12.29954,10.38362 -3.16213,2.61829 -5.95908,5.48864 -8.98527,8.2004 -3.06195,2.70065 -5.8249,5.59451 -8.74846,8.38562 -2.4289,2.27694 -4.49976,4.75421 -6.36244,7.33551 -1.47732,1.83073 -2.87608,3.6947 -3.98539,5.68176 -1.08878,1.74169 -2.13119,3.49848 -3.30972,5.2043 -0.30786,0.45714 -0.7024,0.83332 -0.78297,1.30789 -0.0145,0.34058 -0.0179,0.68127 -0.006,1.0219 -1.14719,-0.29813 -2.29437,-0.59627 -3.44154,-0.8944 0.4278,-1.98509 3.99419,-1.50885 3.56638,0.47624 l 0,0 c -1.24696,0.16487 -2.49392,0.32972 -3.74087,0.49458 -0.0173,-0.51719 -0.018,-1.03615 0.0507,-1.55128 0.17793,-0.81538 0.61623,-1.52076 1.1768,-2.21582 1.13127,-1.63588 2.12774,-3.32196 3.17653,-4.99087 1.16277,-2.07505 2.60527,-4.03172 4.15252,-5.94321 1.9717,-2.72 4.15151,-5.33677 6.71519,-7.73827 2.94859,-2.81393 5.73372,-5.7326 8.82306,-8.45455 3.04651,-2.72272 5.84919,-5.61441 9.03338,-8.24261 4.10533,-3.5297 8.07443,-7.16587 12.44191,-10.49928 5.17554,-3.97318 10.41043,-7.93159 16.31369,-11.24134 7.24855,-3.88404 14.98602,-7.07341 23.02838,-9.82481 8.97731,-3.07891 18.0175,-6.06251 27.44109,-8.20693 9.46691,-2.0772 19.06516,-3.69857 28.77441,-4.91162 9.29195,-1.15392 18.58639,-2.37583 27.96018,-3.03616 11.52183,-0.59892 23.09015,-0.91137 34.58891,0.18634 12.20941,1.20315 24.2423,3.20843 35.87308,6.42907 11.41801,3.27411 22.52963,7.20141 32.89966,12.22313 10.56058,5.25759 20.36776,11.32467 29.82688,17.74749 9.6615,6.53084 19.36456,13.06328 28.08336,20.38872 6.26127,5.25041 12.21468,10.70688 17.43859,16.63126 2.87157,3.06526 5.93058,6.05873 7.96913,9.54047 1.28082,2.2472 2.11956,4.61911 2.36323,7.0836 0,2.01346 -3.61734,2.01346 -3.61734,0 z"
       inkscape:connector-curvature="0" />
    <path
       style="fill:#000000;fill-opacity:1;fill-rule:nonzero;stroke:none"
       id="path7635"
       d="m 421.94288,404.68028 c 2.52209,-0.97721 5.23792,-0.65807 7.684,0.35802 1.44053,0.62542 2.20911,1.35767 2.93799,2.70862 -0.038,2.57454 -1.80023,3.6346 -3.95716,4.55587 -2.09511,0.70352 -4.16489,0.91638 -6.31119,0.37594 -2.51583,-1.08457 -3.73924,-1.89814 -4.45832,-4.61726 -0.13897,-1.77421 1.17078,-2.87175 2.07577,-4.19705 0.68458,-1.91432 4.26553,-0.82781 4.40374,1.10304 0.18117,2.95037 -3.99127,3.20658 -4.17244,0.25621 l 0,0 c -0.0582,-1.44228 5.30982,-0.94148 3.21617,1.00505 -0.31264,0.45435 -1.20854,2.01294 -1.36821,1.37381 -0.75306,-0.9095 0.73967,1.01256 1.38655,1.03869 1.22767,0.37037 2.41967,0.12776 3.65362,-0.21096 1.59574,-0.58206 1.56756,-1.60005 1.52175,0.49863 1.02423,1.41371 0.0137,0.10821 -0.58526,-0.0527 -1.27527,-0.58956 -2.78833,-0.82615 -4.15752,-0.45693 -2.64385,1.32193 -4.51334,-2.41705 -1.86949,-3.73898 z"
       inkscape:connector-curvature="0" />
    <path
       style="fill:#000000;fill-opacity:1;fill-rule:nonzero;stroke:none"
       id="path7637"
       d="m 248.86489,406.18641 c 3.71322,0 7.42645,0 11.13967,0 2.24992,0 4.49984,0 6.74977,0 0.20992,0 0.41985,0 0.62978,0 2.95592,0 2.95592,4.1803 0,4.1803 l 0,0 c -0.20993,0 -0.41986,0 -0.62978,0 -2.24993,0 -4.49985,0 -6.74977,0 -3.71322,0 -7.42645,0 -11.13967,0 -2.95592,0 -2.95592,-4.1803 0,-4.1803 z"
       inkscape:connector-curvature="0" />
    <path
       style="fill:#000000;fill-opacity:1;fill-rule:nonzero;stroke:none"
       id="path7657"
       d="m 234.9963,398.56827 c 0.88019,0.1744 1.76039,0.34881 2.64058,0.52322 -0.73365,-0.0174 -1.14808,-0.15384 -1.43012,0.79837 -0.0837,0.28254 0.71305,0.8208 0.34694,0.82611 -1.83845,0.0267 1.33886,-0.15106 -0.90142,-0.007 -2.85602,0.48829 -5.05269,2.23174 -6.95674,3.8765 -2.61875,2.62826 -4.59973,5.6395 -5.0456,8.99395 0.31801,2.21301 1.76806,1.88185 3.66974,0.93517 3.10299,-1.8893 4.20182,-4.7841 5.01636,-7.68235 0.57969,-2.14064 0.38348,-4.32792 0.0871,-6.484 -0.0771,-0.44149 -0.12722,-0.88838 -0.24881,-1.32427 1.99835,0.10138 2.51897,-0.71753 2.5234,0.32406 0.002,0.10074 0.002,0.098 0.004,0.21393 6.2e-4,0.30433 5.6e-4,0.60865 5.8e-4,0.91297 0,0.90546 -2e-5,1.81091 -2e-5,2.71637 0.13653,2.57139 0.84884,5.0608 1.89065,7.4883 1.09349,1.90202 2.60774,3.66917 4.74702,4.9172 0.0652,0.0205 0.58957,0.21282 0.74324,0.18046 0.0581,-0.0122 -0.10344,-0.0485 -0.15516,-0.0727 1.79277,-0.26509 2.26579,1.7444 0.47301,2.0095 l 0,0 c -1.02882,0.0486 -1.72018,-0.0215 -2.61407,-0.48525 -2.52175,-1.53409 -4.38821,-3.5779 -5.63711,-5.8941 -1.12163,-2.64046 -1.89768,-5.34802 -2.02669,-8.14345 0,-0.90543 2e-5,-1.81085 2e-5,-2.71628 -2e-5,-0.30224 1.1e-4,-0.60449 -5.6e-4,-0.90673 -6.2e-4,-0.0688 -0.002,-0.13765 -0.004,-0.20649 -0.006,-0.79365 0.71758,-2.73342 2.56329,-0.81567 0.15279,0.51972 0.21423,1.05371 0.30519,1.58137 0.32524,2.37969 0.51192,4.79216 -0.13474,7.15278 -0.99346,3.47859 -2.45742,6.8578 -6.28116,9.02165 -0.59378,0.24165 -1.14642,0.5617 -1.78132,0.72494 -3.56301,0.91609 -5.5702,-1.08097 -5.70247,-3.67939 0.5875,-3.83619 2.66453,-7.14884 5.71501,-10.15031 2.39726,-2.03839 5.14661,-4.10089 8.76774,-4.53132 0.62942,-0.003 1.99052,-0.0974 2.50199,0.34692 1.24196,1.0789 0.70549,2.04669 -1.06087,2.06142 -0.88019,-0.17441 -1.76039,-0.34882 -2.64058,-0.52322 -1.76926,-0.35058 -1.14373,-2.33371 0.62552,-1.98313 z"
       inkscape:connector-curvature="0" />
    <path
       style="fill:#000000;fill-opacity:1;fill-rule:nonzero;stroke:none"
       id="path7661"
       d="m 226.49581,464.1378 c 0.17685,0 0.3537,0 0.53055,0 0.4712,0 0.9424,0 1.4136,0 0.33528,0 0.40027,0.024 0.20625,-0.0235 -1.01939,0.34486 -0.28678,1.46834 -0.29014,1.50234 -0.006,0.063 -0.12409,-0.0181 -0.18626,-0.0263 -0.49129,-0.0647 -0.25491,-0.057 -0.77765,-0.006 -1.97547,0.30605 -3.52882,1.42379 -5.01159,2.69656 -1.88249,1.9558 -3.21556,4.46066 -3.57816,7.17069 0.0403,1.59962 0.29002,2.92847 2.14191,2.58279 2.17506,-0.79815 3.16469,-2.82533 3.93226,-4.87756 0.57332,-1.90782 0.97717,-3.91065 0.75481,-5.90671 0.0548,-0.1404 -0.29107,-1.0313 -0.23081,-0.92532 1.87783,2.03427 1.65829,-1.8649 1.66297,0.62324 -0.0534,1.3382 0.26495,2.64399 0.6214,3.92276 0.66819,1.97359 1.42928,3.9744 2.79058,5.5689 0.93364,0.98256 1.69367,0.67079 2.70177,0.0304 0.21219,-0.13532 0.42438,-0.27065 0.63656,-0.40597 1.15272,-0.73471 2.18191,0.91105 1.0292,1.64575 l 0,0 c -0.22357,0.14242 -0.44714,0.28483 -0.67071,0.42725 -1.96431,1.16022 -3.4655,1.28218 -5.17027,-0.44228 -1.51044,-1.83679 -2.4507,-4.03852 -3.17403,-6.30075 -0.39769,-1.44874 -0.74684,-2.92798 -0.69238,-4.44254 -9.2e-4,-0.63032 -0.10958,-3.63673 1.80275,-1.80053 0.37881,0.55913 0.50672,1.23484 0.61012,1.89399 0.23057,2.30625 -0.17661,4.60962 -0.87203,6.80906 -1.06832,2.77319 -2.55194,5.31977 -5.59522,6.12171 -0.42009,0.009 -0.84569,0.095 -1.26029,0.026 -2.35598,-0.39184 -2.9946,-2.77586 -2.92495,-4.84028 0.0812,-0.50419 0.11754,-1.01788 0.24369,-1.51257 0.66044,-2.59006 2.16368,-4.9635 3.99575,-6.85401 1.81051,-1.53905 3.7428,-2.84522 6.15087,-3.15395 1.22383,-0.0405 4.22294,0.41391 1.99366,2.31131 -0.91232,0.22344 -1.8491,0.10938 -2.78421,0.1317 -1.36322,0 -1.36322,-1.94631 0,-1.94631 z"
       inkscape:connector-curvature="0" />
    <path
       style="fill:#000000;fill-opacity:1;fill-rule:nonzero;stroke:none"
       id="path7665"
       d="m 218.29855,482.40996 c 2.57746,0.48139 5.2118,0.36288 7.81672,0.28481 3.62422,-0.13598 7.24888,-0.25752 10.87458,-0.34492 0.87274,-0.017 1.74543,-0.0419 2.61833,-0.0497 2.71772,2.07512 -0.21986,1.95253 -0.78685,1.95241 -1.36322,-3.1e-4 -1.3628,-1.94661 4.3e-4,-1.9463 l 0,0 c 1.17749,2.7e-4 0.87868,0.0424 0.80328,1.94012 -0.86318,0.008 -1.72615,0.0326 -2.58917,0.0492 -3.62204,0.0873 -7.24303,0.20887 -10.86358,0.34463 -2.78041,0.0828 -5.59465,0.20028 -8.34132,-0.34207 -1.32253,-0.33379 -0.85494,-2.22198 0.46758,-1.88819 z"
       inkscape:connector-curvature="0" />
    <path
       style="fill:#000000;fill-opacity:1;fill-rule:nonzero;stroke:none"
       id="path7669"
       d="m 220.84682,491.33357 c 1.04357,-0.58268 1.99136,-1.31063 3.03184,-1.89793 0.96306,-0.47397 2.00474,-0.66953 3.06383,-0.55882 1.17571,0.21045 2.06607,0.88806 2.73309,1.85961 0.81002,1.37885 0.28739,2.80279 -0.18585,4.19862 -0.78072,1.77905 -1.61305,3.53883 -2.74764,5.11763 -0.6317,0.96312 -1.40906,1.82077 -2.27106,2.57751 -0.45323,0.27285 -1.20746,1.1039 0.0194,-0.35528 -4.6e-4,0.12692 0.004,0.25374 0.01,0.38048 -0.93375,-1.02839 -0.97535,-0.85282 -0.0231,-1.05523 2.0746,-0.28355 4.16034,-0.50259 6.24329,-0.72949 1.68228,-0.17153 3.36928,-0.29379 5.05768,-0.3837 0.22375,-0.0116 0.44756,-0.0223 0.6716,-0.0241 1.36312,0.0168 1.3396,1.96295 -0.0235,1.94615 l 0,0 c -0.16466,0.004 -0.37406,0.0116 -0.54659,0.0216 -1.65327,0.0879 -3.30516,0.20759 -4.95247,0.37518 -2.01923,0.21969 -4.04016,0.43767 -6.05299,0.699 -0.70914,0.15056 -2.14237,0.60287 -2.29871,-0.7403 -0.008,-0.17041 -0.0133,-0.34098 -0.0126,-0.51163 0.21479,-0.35018 0.45391,-0.68627 0.64435,-1.05052 0.0175,-0.0335 -0.13861,0.0651 -0.16374,0.0829 -0.0566,0.04 0.22486,-0.16195 0.16551,-0.12616 0.75541,-0.65718 1.42876,-1.41145 1.97632,-2.25414 1.03172,-1.41547 1.75549,-3.01307 2.48183,-4.60372 0.26629,-0.77477 0.7472,-1.66808 0.40985,-2.4771 -0.33849,-0.53361 -0.78644,-0.90687 -1.42283,-1.02286 -0.55822,-0.2025 -1.31008,0.16317 -1.83667,0.33447 -1.06675,0.59815 -2.02768,1.36238 -3.10831,1.93872 -1.21931,0.61547 -2.08149,-1.12535 -0.86218,-1.74083 z"
       inkscape:connector-curvature="0" />
    <path
       style="fill:#000000;fill-opacity:1;fill-rule:nonzero;stroke:none"
       id="path7671"
       d="m 428.20017,482.93751 c 1.28045,-1.18162 2.42155,-3.06241 4.41882,-2.97135 0.48289,0.022 0.91046,0.32516 1.36569,0.48774 1.7737,2.17034 1.9468,3.89559 0.40827,6.26402 -2.03532,1.57449 -4.63507,1.56857 -7.09603,1.6763 -1.35399,-0.0466 -3.43284,0.47803 -4.47904,-0.75611 -0.42413,-0.50033 -0.4081,-1.24674 -0.61215,-1.8701 0.61193,-2.55712 2.75738,-4.42449 4.6408,-6.15199 1.78707,-1.38412 3.10184,-2.09621 5.33339,-2.11904 2.03915,0.60359 2.72789,2.40205 3.10839,4.29469 0.31843,1.88628 -0.57019,3.52979 -1.78947,4.88487 -2.01992,1.72077 -4.47795,1.5518 -6.90991,1.01883 -1.47912,-0.53356 -2.6315,-1.51931 -3.39167,-2.8792 -1.29284,-3.34457 2.42171,-3.40936 4.17659,-3.42056 1.63598,-0.07 3.01133,-0.0471 4.33283,1.04471 1.1011,1.71348 1.21367,3.54819 0.32532,5.37596 -0.98932,1.67295 -3.20114,2.7396 -4.76473,0.17364 -0.12866,-0.27504 -0.25733,-0.55009 -0.38599,-0.82514 -1.21343,-2.69538 2.59842,-4.41142 3.81184,-1.71604 l 0,0 c 0.0563,0.13586 0.11264,0.27172 0.16896,0.40757 1.26878,2.17064 -3.71028,0.54809 -2.48928,-0.0612 0.44228,0.85863 -0.34784,-1.54941 0.36333,-0.41355 0.87248,0.45169 -0.65898,-0.29958 0.9021,0.21397 0.70939,0.23336 -2.96062,-0.21651 -2.24025,-0.0197 -2.0819,0.0106 -1.73055,0.47266 -0.50882,-2.72052 0.16336,0.28241 0.37625,0.52878 0.61404,0.76094 0.99119,0.22906 1.93201,0.47588 2.93574,0.21211 0.47282,-0.46854 0.8158,-0.91268 0.74698,-1.23336 -0.0945,-0.50359 -0.49492,-1.24359 0.18753,-0.99627 2.08339,-0.51798 -1.42934,0.57546 -1.70636,1.10263 -0.57647,0.52493 -2.91669,3.26828 -3.28108,3.05158 -1.05645,-1.85159 0.0247,-0.50406 -1.90647,-1.51066 -0.13379,-0.0697 0.30175,0.002 0.45263,0.003 0.72803,0.001 1.45612,-0.006 2.18386,-0.0271 1.32464,-0.0567 2.9934,-0.28795 4.13646,-0.25898 -0.0497,0.31194 0.052,1.07038 -0.0213,0.0565 -0.0433,-0.59845 -0.14503,-0.60562 0.56034,-0.003 1.07182,0.18106 0.5537,0.24529 1.5842,-0.22665 0.0668,-0.0306 -0.14598,0.0413 -0.2016,0.0894 -0.71783,0.62041 -1.30905,1.38732 -2.018,2.01801 -2.09015,2.09015 -5.04608,-0.86577 -2.95592,-2.95592 z"
       inkscape:connector-curvature="0" />
    <path
       style="fill:#000000;fill-opacity:1;fill-rule:nonzero;stroke:none"
       id="path7673"
       d="m 249.20515,484.44787 c 3.23175,0.64973 6.51638,0.89389 9.76954,1.43246 2.59398,0.43641 5.204,0.77288 7.81876,1.05666 0.51419,0.0523 0.2833,0.0299 0.69254,0.0684 2.94289,0.27729 2.55073,4.43916 -0.39216,4.16187 l 0,0 c -0.45,-0.0425 -0.19939,-0.0181 -0.75171,-0.0744 -2.69234,-0.29257 -5.37976,-0.63925 -8.05077,-1.08846 -3.36345,-0.55779 -6.76433,-0.79006 -10.10008,-1.50103 -2.86766,-0.71692 -1.85379,-4.77241 1.01388,-4.0555 z"
       inkscape:connector-curvature="0" />
    <path
       style="fill:none;stroke:#000000;stroke-width:1.77165353;stroke-linecap:butt;stroke-linejoin:miter;stroke-miterlimit:4;stroke-opacity:1;stroke-dasharray:1.77165354, 7.08661417;stroke-dashoffset:0"
       d="m 259.17898,409.67 168.60568,0"
       id="path7675"
       inkscape:connector-curvature="0" />
    <path
       style="fill:none;stroke:#000000;stroke-width:1.77165353;stroke-linecap:butt;stroke-linejoin:miter;stroke-miterlimit:4;stroke-opacity:1;stroke-dasharray:1.77165354, 7.08661417;stroke-dashoffset:0"
       d="m 256.39211,487.70238 172.78598,-4.18031"
       id="path7677"
       inkscape:connector-curvature="0" />
    <path
       style="fill:#000000;fill-opacity:1;fill-rule:nonzero;stroke:none"
       id="path7747"
       d="m 396.43236,314.35635 c 0.095,4.17679 0.8223,8.29472 0.84311,12.47943 -0.2787,4.92249 -1.64013,9.44501 -4.40399,13.51444 -2.05505,3.18577 -4.81262,5.67315 -7.86749,7.85862 -1.59758,0.82271 -3.04215,1.89638 -4.59086,2.79704 -0.62874,0.22284 -0.57851,0.28682 -0.8481,0.78089 -0.51533,1.18012 -3.33736,1.78359 -1.31948,1.18816 -0.27094,0.40015 -1.40808,1.0013 -2.14337,1.32702 -0.27498,0.12261 -0.55752,0.22354 -0.85018,0.29337 -2.89438,0.60003 -3.74294,-3.49325 -0.84855,-4.09327 l 0,0 c -0.26316,0.0702 -0.16855,0.0505 0.0157,-0.0266 0.65661,-0.28542 0.84847,-0.30366 1.27435,-0.81138 3.69563,-1.72368 -1.28165,1.99034 0.2179,0.0915 0.58031,-1.01378 1.36589,-1.96552 2.48218,-2.40975 1.45539,-0.68466 2.69565,-1.90207 4.1899,-2.54517 2.6817,-1.88723 5.06502,-4.05172 6.85523,-6.83597 2.36367,-3.29705 3.33912,-7.09853 3.65645,-11.12206 0.01,-4.18569 -0.81244,-8.30377 -0.84312,-12.48621 0,-2.95592 4.18031,-2.95592 4.18031,0 z"
       inkscape:connector-curvature="0" />
    <path
       style="fill:#000000;fill-opacity:1;fill-rule:nonzero;stroke:none"
       id="path7751"
       d="m 520.72134,431.39433 c -3.70913,0.71737 -7.36326,1.74559 -10.98206,2.8303 -3.61051,1.2076 -7.07052,2.74733 -10.41638,4.54858 -2.96081,1.43205 -5.59659,3.39571 -8.1199,5.48273 -2.29317,1.65029 -4.33874,3.65232 -6.13127,5.83129 -2.09931,2.37129 -3.67867,5.11203 -5.46104,7.70895 -1.06339,1.53262 -2.2196,3.06379 -3.07461,4.72789 -0.42391,1.64548 -1.04721,3.22979 -1.63027,4.82688 -0.19176,1.1827 -0.86038,2.10804 -1.39713,3.13265 -0.46609,1.08296 -0.96537,2.17334 -1.35669,3.29841 -0.37629,1.27419 -1.0985,2.41163 -1.85265,3.49321 -0.76529,1.25291 0.008,-0.70367 -0.0243,0.0511 -0.008,0.1571 -0.004,0.3143 -1.7e-4,0.47133 0.0305,0.33063 0.009,0.66402 0.01,0.99606 3.1e-4,0.17819 1.2e-4,0.35639 -2e-5,0.53458 2e-5,0.0129 -1e-4,0.0259 -1.5e-4,0.0389 -0.0226,2.95583 -4.20277,2.92389 -4.18019,-0.0319 l 0,0 c 2e-5,-0.005 3e-5,-0.01 5e-5,-0.0146 1.2e-4,-0.17364 3e-4,-0.34728 0,-0.52093 -4.2e-4,-0.30091 0.009,-0.55785 -0.004,-0.77472 -0.0129,-0.3104 -0.0149,-0.62116 4.9e-4,-0.93161 0.0492,-0.79536 0.23104,-1.60054 0.77304,-2.21466 0.53978,-0.76777 1.08482,-1.56359 1.33233,-2.47814 0.50206,-1.42606 1.12068,-2.81681 1.78166,-4.17109 0.14025,-0.20794 0.26991,-0.42342 0.42074,-0.62382 0.17151,-0.22787 -0.21481,1.05163 0.0504,0.20795 0.19511,-0.62077 0.21221,-1.30602 0.51968,-1.89617 0.6518,-1.78539 1.28431,-3.56626 1.8726,-5.36804 0.97817,-1.78073 2.12986,-3.4822 3.31834,-5.12723 1.86675,-2.68852 3.49448,-5.54962 5.68667,-8.00657 1.97916,-2.36257 4.17521,-4.58062 6.68482,-6.38311 2.73747,-2.25671 5.5971,-4.38 8.79994,-5.94005 3.59506,-1.93533 7.31813,-3.58354 11.19926,-4.87252 3.74451,-1.11919 7.52385,-2.18024 11.36089,-2.92465 2.89852,-0.57971 3.71834,3.51942 0.81982,4.09912 z"
       inkscape:connector-curvature="0" />
    <path
       style="color:#000000;fill:#000000;fill-opacity:1;fill-rule:nonzero;stroke:none;stroke-width:1px;marker:none;visibility:visible;display:inline;overflow:visible;enable-background:accumulate"
       id="path3033"
       d="m 428.85095,553.49232 c 0.0312,2.97415 0.45823,5.93202 0.70878,8.89477 0.11274,1.48258 0.19856,2.96709 0.26211,4.45255 0.0892,2.08824 -2.864,2.21444 -2.95323,0.12619 l 0,0 c -0.0616,-1.44452 -0.14518,-2.8881 -0.2543,-4.32984 -0.25715,-3.04549 -0.69618,-6.08563 -0.71928,-9.14367 0,-2.09015 2.95592,-2.09015 2.95592,0 z"
       inkscape:connector-curvature="0" />
    <path
       style="color:#000000;fill:#000000;fill-opacity:1;fill-rule:nonzero;stroke:none;stroke-width:1px;marker:none;visibility:visible;display:inline;overflow:visible;enable-background:accumulate"
       id="path3039"
       d="m 404.85784,569.42446 c -2.58416,3.03283 -3.98498,6.70481 -5.0133,10.49637 -0.34234,1.46556 -0.72647,5.28013 1.81965,4.83458 2.176,-0.80818 3.93339,-2.67227 5.03139,-4.68486 0.44187,-1.15029 -0.24756,-0.56238 1.49382,1.08509 0.0859,0.0813 0.31618,-0.0737 0.35279,0.0387 0.0469,0.14401 -0.14695,0.26527 -0.20889,0.40347 -0.11791,0.26306 -0.22014,0.53287 -0.33021,0.79931 -0.89421,2.06071 0.17557,3.02773 2.11734,3.53031 2.62182,0.24287 4.91871,-0.9561 6.25003,-3.17924 1.42529,-2.78731 0.78828,-4.58757 -0.35663,-7.27579 -0.83222,-1.63257 -2.14571,-2.98805 -2.79815,-4.70749 -0.0958,-1.18008 -0.17215,-0.5074 0.59706,-1.94126 1.53338,-1.42038 3.5421,0.74814 2.00872,2.16852 l 0,0 c 0.31358,-0.95267 0.39061,-0.59037 0.22178,-1.08886 0.7269,1.40972 1.95778,2.89007 2.6926,4.41662 1.59057,3.77651 2.0815,6.23835 0.11343,10.03854 -0.34473,0.50521 -0.63237,1.05451 -1.03418,1.51562 -2.12133,2.43439 -5.51525,3.32221 -8.60978,2.86404 -0.57951,-0.21033 -1.19508,-0.33988 -1.73852,-0.63098 -2.68031,-1.43571 -3.28148,-4.27213 -2.15948,-6.92259 0.31693,-0.67066 1.41072,-3.33218 2.64747,-2.97556 2.40431,0.6933 1.93845,1.88282 1.3081,3.32657 -1.76565,3.00541 -4.3468,5.65613 -7.93509,6.15652 -0.61882,-0.12493 -1.27667,-0.12497 -1.85644,-0.37478 -3.19629,-1.37723 -3.03872,-5.3848 -2.47849,-8.17458 1.15126,-4.19655 2.73436,-8.25325 5.59418,-11.61065 1.33808,-1.6057 3.60889,0.28664 2.2708,1.89234 z"
       inkscape:connector-curvature="0" />
    <path
       style="color:#000000;fill:#000000;fill-opacity:1;fill-rule:nonzero;stroke:none;stroke-width:1px;marker:none;visibility:visible;display:inline;overflow:visible;enable-background:accumulate"
       id="path3041"
       d="m 427.19465,583.43541 c -0.90893,-0.38567 -1.82799,-0.80916 -2.6578,-0.0855 -0.51199,0.96391 -0.70705,2.01094 -0.47346,3.08239 0.26544,1.28211 0.97708,2.37304 1.58031,3.50171 0.73227,1.35847 0.71487,2.76883 0.38216,4.24292 -0.29443,0.99282 -0.56937,1.99175 -0.83597,2.99299 -0.0911,0.34626 -0.0173,0.124 -0.29847,0.63353 -0.94601,1.09343 -2.43392,-0.29699 -1.4879,-1.39042 l 0,0 c -0.21805,0.44151 -0.22692,0.52447 -0.14209,0.20225 0.26232,-0.98508 0.53081,-1.96863 0.82365,-2.94443 0.25603,-0.95757 0.28132,-1.83369 -0.19065,-2.72718 -0.70775,-1.3246 -1.51481,-2.61458 -1.79775,-4.12832 -0.30091,-1.89263 0.007,-3.7564 1.32137,-5.18952 1.66997,-1.07084 2.93347,-0.8469 4.67145,-0.0504 1.26551,0.65761 0.37066,2.5176 -0.89485,1.85999 z"
       inkscape:connector-curvature="0" />
    <path
       style="color:#000000;fill:#000000;fill-opacity:1;fill-rule:nonzero;stroke:none;stroke-width:1px;marker:none;visibility:visible;display:inline;overflow:visible;enable-background:accumulate"
       id="path3043"
       d="m 421.26267,589.33933 c 1.53085,0 3.06171,0 4.59256,0 1.421,0.0417 2.80102,-0.4846 4.13477,-0.94954 1.34242,-0.46451 1.97453,1.50853 0.6321,1.97305 l 0,0 c -1.53939,0.52926 -3.12736,1.10945 -4.76687,1.05603 -1.53085,0 -3.06171,0 -4.59256,0 -1.41488,0 -1.41488,-2.07954 0,-2.07954 z"
       inkscape:connector-curvature="0" />
    <path
       inkscape:connector-curvature="0"
       id="path3045"
       d="m 426.57837,409.50582 0.33838,148.19174"
       style="fill:none;stroke:#000000;stroke-width:1.77165353;stroke-linecap:butt;stroke-linejoin:miter;stroke-miterlimit:4;stroke-opacity:1;stroke-dasharray:1.77165354, 7.08661417;stroke-dashoffset:0"
       sodipodi:nodetypes="cc" />
    <path
       style="color:#000000;fill:#000000;fill-opacity:1;fill-rule:nonzero;stroke:none;stroke-width:1px;marker:none;visibility:visible;display:inline;overflow:visible;enable-background:accumulate"
       id="path3047"
       d="m 39.550808,89.912616 c 3.606143,-0.03023 7.214249,0.09295 10.815502,-0.116694 1.566466,-0.10994 3.126535,-0.287499 4.685412,-0.472721 2.097681,-0.248987 2.449801,2.717582 0.35212,2.966569 l 0,0 c -1.619432,0.19203 -3.240119,0.376023 -4.867514,0.488704 -3.65855,0.204474 -7.32228,0.09934 -10.98552,0.121535 -2.112406,0 -2.112406,-2.987393 0,-2.987393 z"
       inkscape:connector-curvature="0"
       transform="translate(207.21444,171.57502)" />
    <path
       style="color:#000000;fill:#000000;fill-opacity:1;fill-rule:nonzero;stroke:none;stroke-width:1px;marker:none;visibility:visible;display:inline;overflow:visible;enable-background:accumulate"
       id="path3067"
       d="m 447.61328,566.32764 c -0.70351,3.80175 -2.47318,7.23952 -4.05155,10.66692 -2.56763,5.61296 -5.22149,11.17574 -7.90159,16.72413 -0.97232,1.89665 -1.90073,3.81976 -2.82454,5.74538 -0.73115,1.52398 -2.68664,0.38435 -1.95548,-1.13962 l 0,0 c 0.92485,-1.92761 1.85401,-3.85288 2.82745,-5.75145 2.67335,-5.53439 5.32062,-11.08307 7.88168,-16.68192 1.47654,-3.20579 3.15038,-6.41892 3.8421,-9.96425 0.25714,-1.70045 2.43908,-1.29965 2.18193,0.40081 z"
       inkscape:connector-curvature="0" />
    <path
       style="color:#000000;fill:#000000;fill-opacity:1;fill-rule:nonzero;stroke:none;stroke-width:1px;marker:none;visibility:visible;display:inline;overflow:visible;enable-background:accumulate"
       id="path3071"
       d="m 448.95807,579.51528 c -0.43168,1.52135 -0.8541,3.02421 -1.54393,4.43057 -0.71812,1.31204 -1.19347,1.80907 -2.46801,-0.31563 -0.0802,-0.13366 0.54733,-1.48554 0.57914,-1.55815 1.12233,-2.38579 2.16786,-4.19532 4.20384,-5.74214 2.54001,-1.58684 4.28362,-0.54588 5.97788,1.73022 1.34798,2.64418 1.69085,4.3701 0.78168,7.26979 -1.13853,2.61889 -3.01844,4.65245 -4.86471,6.6672 -0.99313,1.22627 -2.06689,2.37254 -3.19962,3.44122 -0.0289,0.62245 0.007,-0.57638 -0.33663,-0.98403 -0.0308,-0.0347 -0.13467,-0.0904 -0.0924,-0.10395 0.33546,-0.10765 3.0366,0.0529 3.48575,0.0534 2.02072,-6.6e-4 4.04143,-0.005 6.06214,-0.008 0.87332,0.0642 1.65175,3.2e-4 2.3864,-0.5371 0.0698,-0.0595 0.13968,-0.11898 0.20952,-0.17847 1.25135,-1.03428 2.57849,0.91616 1.32713,1.95045 l 0,0 c -0.12058,0.0979 -0.24114,0.19578 -0.36172,0.29366 -1.10329,0.7389 -2.26867,1.01361 -3.55819,0.90943 -2.02251,0.003 -4.04504,0.007 -6.06756,0.008 -1.49885,-0.002 -3.05746,0.14231 -4.51494,-0.28758 -1.00841,-0.9115 -0.76045,-2.03972 0.0229,-2.96869 1.09304,-1.02905 2.12317,-2.13967 3.08116,-3.32107 1.62036,-1.76711 3.28728,-3.53218 4.34928,-5.78946 0.65056,-1.68664 0.35167,-3.30672 -0.43977,-4.89504 -0.82639,-1.1932 -1.64121,-2.12971 -3.01363,-1.2271 -1.67661,1.20032 -2.5218,2.87434 -3.4494,4.78594 -0.6491,1.45654 -0.0527,0.3578 -1.98814,-0.24413 -0.14937,-0.0464 -0.20258,0.26308 -0.32708,0.36523 -0.13702,0.11242 0.53212,-0.7114 0.27179,-0.47881 0.63467,-1.27659 0.98211,-2.65717 1.38865,-4.03674 0.49463,-1.63544 2.59315,-0.86448 2.09852,0.77096 z"
       inkscape:connector-curvature="0" />
    <path
       inkscape:connector-curvature="0"
       d="m 593.06366,572.41186 c -2.58416,3.03283 -3.98498,6.70481 -5.0133,10.49637 -0.34234,1.46556 -0.72647,5.28013 1.81965,4.83458 2.176,-0.80818 3.93339,-2.67227 5.03139,-4.68486 0.44187,-1.15029 -0.24756,-0.56238 1.49382,1.08509 0.0859,0.0813 0.31618,-0.0737 0.35279,0.0387 0.0469,0.14401 -0.14695,0.26527 -0.20889,0.40347 -0.11791,0.26306 -0.22014,0.53287 -0.33021,0.79931 -0.89421,2.06071 0.17557,3.02773 2.11734,3.53031 2.62182,0.24287 4.91871,-0.9561 6.25003,-3.17924 1.42529,-2.78731 0.78828,-4.58757 -0.35663,-7.27579 -0.83222,-1.63257 -2.14571,-2.98805 -2.79815,-4.70749 -0.0958,-1.18008 -0.17215,-0.5074 0.59706,-1.94126 1.53338,-1.42038 3.5421,0.74814 2.00872,2.16852 l 0,0 c 0.31358,-0.95267 0.39061,-0.59037 0.22178,-1.08886 0.7269,1.40972 1.95778,2.89007 2.6926,4.41662 1.59057,3.77651 2.0815,6.23835 0.11343,10.03854 -0.34473,0.50521 -0.63237,1.05451 -1.03418,1.51562 -2.12133,2.43439 -5.51525,3.32221 -8.60978,2.86404 -0.57951,-0.21033 -1.19508,-0.33988 -1.73852,-0.63098 -2.68031,-1.43571 -3.28148,-4.27213 -2.15948,-6.92259 0.31693,-0.67066 1.41072,-3.33218 2.64747,-2.97556 2.40431,0.6933 1.93845,1.88282 1.3081,3.32657 -1.76565,3.00541 -4.3468,5.65613 -7.93509,6.15652 -0.61882,-0.12493 -1.27667,-0.12497 -1.85644,-0.37478 -3.19629,-1.37723 -3.03872,-5.3848 -2.47849,-8.17458 1.15126,-4.19655 2.73436,-8.25325 5.59418,-11.61065 1.33808,-1.6057 3.60889,0.28664 2.2708,1.89234 z"
       id="path3077"
       style="color:#000000;fill:#000000;fill-opacity:1;fill-rule:nonzero;stroke:none;stroke-width:1px;marker:none;visibility:visible;display:inline;overflow:visible;enable-background:accumulate" />
    <path
       inkscape:connector-curvature="0"
       d="m 615.40047,586.42281 c -0.90893,-0.38567 -1.82799,-0.80916 -2.6578,-0.0855 -0.51199,0.96391 -0.70705,2.01094 -0.47346,3.08239 0.26544,1.28211 0.97708,2.37304 1.58031,3.50171 0.73227,1.35847 0.71487,2.76883 0.38216,4.24292 -0.29443,0.99282 -0.56937,1.99175 -0.83597,2.99299 -0.0911,0.34626 -0.0173,0.124 -0.29847,0.63353 -0.94601,1.09343 -2.43392,-0.29699 -1.4879,-1.39042 l 0,0 c -0.21805,0.44151 -0.22692,0.52447 -0.14209,0.20225 0.26232,-0.98508 0.53081,-1.96863 0.82365,-2.94443 0.25603,-0.95757 0.28132,-1.83369 -0.19065,-2.72718 -0.70775,-1.3246 -1.51481,-2.61458 -1.79775,-4.12832 -0.30091,-1.89263 0.007,-3.7564 1.32137,-5.18952 1.66997,-1.07084 2.93347,-0.8469 4.67145,-0.0504 1.26551,0.65761 0.37066,2.5176 -0.89485,1.85999 z"
       id="path3079"
       style="color:#000000;fill:#000000;fill-opacity:1;fill-rule:nonzero;stroke:none;stroke-width:1px;marker:none;visibility:visible;display:inline;overflow:visible;enable-background:accumulate" />
    <path
       inkscape:connector-curvature="0"
       d="m 609.46849,592.32673 c 1.53085,0 3.06171,0 4.59256,0 1.421,0.0417 2.80102,-0.4846 4.13477,-0.94954 1.34242,-0.46451 1.97453,1.50853 0.6321,1.97305 l 0,0 c -1.53939,0.52926 -3.12736,1.10945 -4.76687,1.05603 -1.53085,0 -3.06171,0 -4.59256,0 -1.41488,0 -1.41488,-2.07954 0,-2.07954 z"
       id="path3081"
       style="color:#000000;fill:#000000;fill-opacity:1;fill-rule:nonzero;stroke:none;stroke-width:1px;marker:none;visibility:visible;display:inline;overflow:visible;enable-background:accumulate" />
    <path
       style="color:#000000;fill:#000000;fill-opacity:1;fill-rule:nonzero;stroke:none;stroke-width:1px;marker:none;visibility:visible;display:inline;overflow:visible;enable-background:accumulate"
       id="path3083"
       d="m 215.57654,249.09081 c 0.39968,3.30765 0.47795,6.6414 0.55927,9.9672 0.0556,2.77368 0.0785,5.54785 0.0854,8.32199 7.2e-4,0.33854 4.1e-4,0.67709 -7.2e-4,1.01563 -0.006,1.45204 -2.1497,1.44438 -2.14404,-0.008 l 0,0 c 0.001,-0.33434 0.001,-0.66868 7.1e-4,-1.00303 -0.007,-2.75977 -0.0296,-5.51958 -0.0849,-8.27888 -0.0792,-3.2448 -0.15445,-6.49718 -0.53831,-9.72483 -0.2144,-1.43745 1.9081,-1.72786 2.12251,-0.29041 z"
       inkscape:connector-curvature="0" />
    <path
       style="color:#000000;fill:#000000;fill-opacity:1;fill-rule:nonzero;stroke:none;stroke-width:1px;marker:none;visibility:visible;display:inline;overflow:visible;enable-background:accumulate"
       id="path3085"
       d="m 221.90725,253.90531 c -1.67338,1.6419 -3.56824,3.05286 -5.38352,4.54274 -0.88832,0.68898 -1.79806,1.35676 -2.76127,1.94766 -0.95623,0.90027 -1.97812,-1.67552 -0.41656,-1.83938 1.31646,-0.0979 2.56279,0.31626 3.76327,0.78398 1.86924,0.82937 3.6601,1.80929 5.37178,2.90548 0.82107,0.47722 1.48357,1.13306 2.00914,1.8953 0.82416,1.21876 -0.97543,2.33508 -1.79959,1.11631 l 0,0 c -0.35227,-0.54078 -0.82766,-0.97852 -1.40206,-1.30504 -1.5932,-1.02225 -3.26043,-1.93404 -4.99744,-2.71394 -0.8783,-0.35383 -1.79544,-0.69184 -2.76279,-0.63602 -0.7622,5.7e-4 -1.2063,-1.93519 -0.92043,-1.93696 0.88063,-0.53766 1.7081,-1.1519 2.52173,-1.77744 1.77496,-1.45359 3.6248,-2.83324 5.26166,-4.43474 1.07203,-1.02676 2.58811,0.42529 1.51608,1.45205 z"
       inkscape:connector-curvature="0" />
    <path
       style="color:#000000;fill:#000000;fill-opacity:1;fill-rule:nonzero;stroke:none;stroke-width:1px;marker:none;visibility:visible;display:inline;overflow:visible;enable-background:accumulate"
       id="path3087"
       d="m 227.72619,246.3528 c 0.63989,2.90715 1.96496,5.63507 3.31869,8.29158 1.37679,2.51283 2.75783,5.03972 4.30118,7.46363 0.38061,0.53672 0.74152,1.10011 1.21667,1.56717 -0.59622,-0.44853 0.18776,0.31301 -1.62113,0.20781 -0.14417,-0.008 0.0633,-0.27024 0.10626,-0.40232 0.07,-0.21549 0.15494,-0.4263 0.23241,-0.63945 0.069,-0.21885 0.13805,-0.4377 0.20707,-0.65654 0.94339,-2.75911 1.92187,-5.50717 2.8874,-8.25924 1.00028,-2.81181 1.98045,-5.62824 3.07669,-8.40772 0.36655,-1.04922 0.44277,-1.29398 1.32685,-1.99988 0.12948,-0.02 0.25897,-0.0399 0.38846,-0.0599 1.512,-0.10644 1.66916,1.94155 0.15716,2.04799 l 0,0 c 0.0466,-0.0141 0.0933,-0.0283 0.14,-0.0424 1.18069,-1.15722 0.065,0.17005 -0.006,0.77993 -1.0871,2.75569 -2.05804,5.54832 -3.05,8.33607 -0.95888,2.73314 -1.93008,5.46245 -2.86833,8.20215 -0.25021,0.78472 -0.87992,3.66804 -2.47101,2.36551 -0.61181,-0.58259 -1.07673,-1.29026 -1.55407,-1.97285 -1.56991,-2.48276 -2.99624,-5.05643 -4.39591,-7.62978 -1.44945,-2.84841 -2.85985,-5.77736 -3.51412,-8.90134 -0.2144,-1.43746 1.9081,-1.72787 2.12251,-0.29041 z"
       inkscape:connector-curvature="0" />
    <path
       style="color:#000000;fill:#000000;fill-opacity:1;fill-rule:nonzero;stroke:none;stroke-width:1px;marker:none;visibility:visible;display:inline;overflow:visible;enable-background:accumulate"
       id="path3089"
       d="m 213.55137,271.5198 c 4.42261,-0.45255 8.83855,-0.95626 13.26914,-1.3355 4.41753,-0.28802 8.81918,-0.75466 13.23035,-1.11706 1.09582,-0.0829 2.19033,-0.18905 3.28961,-0.21867 -0.19078,-0.0243 0.19603,-0.22218 0.29119,-0.30077 -0.18302,0.11473 0.34203,1.40069 0.43183,1.71597 -1.48201,0.30606 -1.93394,-1.70131 -0.45192,-2.00738 l 0,0 c 0.22215,-0.0311 0.50427,-0.24185 0.66645,-0.0932 1.26678,1.16129 1.43779,1.32587 0.77076,1.92559 -0.47891,0.39867 -1.00897,0.71466 -1.64892,0.81247 -1.05795,0.0276 -2.11106,0.13443 -3.16578,0.21195 -4.40866,0.36214 -8.80781,0.82867 -13.22283,1.11643 -4.40552,0.37664 -8.79635,0.87839 -13.19395,1.32778 -1.50436,0.1801 -1.7703,-1.85755 -0.26593,-2.03765 z"
       inkscape:connector-curvature="0" />
    <path
       style="color:#000000;fill:#000000;fill-opacity:1;fill-rule:nonzero;stroke:none;stroke-width:1px;marker:none;visibility:visible;display:inline;overflow:visible;enable-background:accumulate"
       id="path3091"
       d="m 222.72339,277.15547 c 0.37326,3.07796 0.47035,6.17887 0.55917,9.27394 0.0535,2.14252 0.0788,4.28558 0.0856,6.42868 -0.42046,-0.31238 0.20007,0.63501 -1.3e-4,0.59053 -2.35048,-0.52234 -2.13153,-0.0318 -1.92962,-1.335 0.13266,-0.85631 0.11766,-0.81231 0.21849,-1.7119 0.16265,-1.44367 2.29433,-1.22337 2.13169,0.22031 l 0,0 c -0.0182,0.16074 -0.30455,2.51078 -0.35199,2.53128 -2.43982,1.05421 -2.20618,0.77113 -2.21249,-0.28903 -0.006,-2.12637 -0.0318,-4.25271 -0.0847,-6.37851 -0.0864,-3.01683 -0.18006,-6.03922 -0.53842,-9.03989 -0.21441,-1.43746 1.9081,-1.72787 2.1225,-0.29041 z"
       inkscape:connector-curvature="0" />
    <path
       style="color:#000000;fill:#000000;fill-opacity:1;fill-rule:nonzero;stroke:none;stroke-width:1px;marker:none;visibility:visible;display:inline;overflow:visible;enable-background:accumulate"
       id="path3093"
       d="m 221.6432,275.50853 c 2.42181,-1.19455 5.06675,-1.84352 7.77147,-2.04009 1.67247,4.4e-4 3.616,0.72075 3.44122,2.66573 -0.0338,0.37643 -0.22584,0.72403 -0.33876,1.08604 -1.45594,2.20277 -3.54025,3.9472 -5.6054,5.61406 -1.27827,0.95867 -2.32505,2.17305 -3.59313,3.13782 -0.45141,0.3029 -0.93779,0.5643 -1.47765,0.68398 -1.03732,0.12796 -0.5214,-0.28904 -0.1399,-2.05281 0.007,-0.0327 0.55835,-0.0248 0.59721,-0.0249 0.68926,0.0133 1.37861,0.0152 2.06797,0.0172 2.64559,0.10554 5.17363,0.79955 7.69067,1.52507 2.11574,0.62716 3.89869,1.69053 5.05108,3.51699 0.42844,0.78888 0.58858,1.66602 0.59903,2.54686 -0.002,0.0572 -0.004,0.11443 -0.006,0.17164 -0.0647,1.45073 -2.20678,1.36314 -2.14211,-0.0876 l 0,0 c 0.001,-0.0239 0.003,-0.0478 0.004,-0.0717 0.002,-0.52343 -0.0767,-1.05432 -0.31098,-1.53103 -0.78556,-1.41222 -2.28456,-2.08522 -3.81309,-2.57878 -2.3193,-0.66876 -4.6421,-1.3248 -7.07933,-1.43793 -0.68769,-0.002 -1.37539,-0.003 -2.06297,-0.0172 -1.54191,-0.0119 0.30513,-2.23295 -0.88314,-1.98805 0.0165,-0.006 0.50077,-0.19332 0.59349,-0.29611 1.27479,-0.90037 2.23226,-2.1951 3.52466,-3.08494 1.79579,-1.44363 3.55299,-2.96494 4.97613,-4.7589 0.61435,-0.9379 0.33989,-0.81866 -0.93666,-0.98736 -2.38696,0.15999 -4.71991,0.74072 -6.86416,1.77501 -1.31632,0.72042 -2.38008,-1.06253 -1.06375,-1.78295 z"
       inkscape:connector-curvature="0" />
    <path
       style="color:#000000;fill:#000000;fill-opacity:1;fill-rule:nonzero;stroke:none;stroke-width:1px;marker:none;visibility:visible;display:inline;overflow:visible;enable-background:accumulate"
       id="path3095"
       d="m 543.38149,435.29221 c -1.11701,1.70234 -1.96237,3.58263 -2.29067,5.67874 0.11802,1.90281 1.86256,2.16983 3.22079,2.49047 1.6349,0.19725 3.18553,-0.21776 4.29981,-1.62926 0.73127,-1.54825 -0.6764,-3.0565 -1.58645,-4.0628 -1.13324,-1.08468 -2.46527,-1.85932 -3.85241,-2.43141 0.75167,0.32449 0.13397,0.12543 0.91827,-1.92365 1.22504,0.85977 0.15467,2.82779 -1.07036,1.96802 l 0,0 c 0.36455,-2.48397 -0.33994,-2.38584 0.85124,-2.21709 1.66183,0.69389 3.25048,1.63391 4.5902,2.96491 1.7439,2.00741 3.30578,4.60448 1.6181,7.30464 -1.69161,1.9209 -3.80878,2.65553 -6.19458,2.28874 -2.67398,-0.66556 -4.81207,-1.61299 -4.79486,-5.18672 0.43459,-2.45752 1.3531,-4.69601 2.70072,-6.68972 0.89956,-1.27731 2.48975,0.16781 1.5902,1.44513 z"
       inkscape:connector-curvature="0" />
    <path
       style="color:#000000;fill:#000000;fill-opacity:1;fill-rule:nonzero;stroke:none;stroke-width:1px;marker:none;visibility:visible;display:inline;overflow:visible;enable-background:accumulate"
       id="path3097"
       d="m 555.37419,435.62315 c -0.18547,1.99392 -0.59813,4.02041 -0.24886,6.01331 0.47211,1.47744 0.88078,1.60719 2.12518,1.27884 1.90694,-0.96949 3.18887,-2.78509 4.11313,-4.84837 0.26588,-0.95994 0.56971,-2.55242 -0.26484,-3.30208 -0.86408,-0.68577 -1.09798,0.11246 0.73383,-1.46903 0.61269,1.39867 1.1453,2.84091 1.67552,4.28206 0.66282,1.66523 1.31091,3.34666 2.30798,4.79293 0.26897,0.39647 0.59839,0.70348 0.95568,0.38612 0.0538,-0.0618 0.1076,-0.12363 0.16133,-0.18537 1.16327,-0.96415 2.36357,0.90463 1.2003,1.86877 l 0,0 c -0.21418,0.1603 -0.42837,0.32061 -0.64255,0.4809 -1.39039,0.48731 -2.35841,0.17343 -3.28367,-1.13228 -1.09651,-1.61707 -1.85668,-3.45729 -2.57802,-5.31905 -0.54676,-1.48612 -1.10792,-2.96437 -1.72092,-4.41714 0.36751,-0.61958 0.68164,-1.28469 1.10254,-1.85878 0.11883,-0.16207 1.54121,0.88273 1.61902,1.04554 1.22143,1.74924 1.26282,3.83948 0.54216,5.89113 -1.24063,2.68398 -2.97097,5.01203 -5.55823,6.06087 -2.53441,0.4419 -3.69304,-0.37109 -4.49296,-3.14707 -0.33165,-2.27196 -0.0313,-4.53554 0.24466,-6.80161 0.23673,-1.61351 2.24546,-1.2332 2.00872,0.38031 z"
       inkscape:connector-curvature="0" />
    <path
       style="color:#000000;fill:#000000;fill-opacity:1;fill-rule:nonzero;stroke:none;stroke-width:1px;marker:none;visibility:visible;display:inline;overflow:visible;enable-background:accumulate"
       id="path3099"
       d="m 574.54701,423.02393 c 0.41423,3.54386 0.26932,7.13627 0.0385,10.69003 -0.26924,3.2168 -0.5271,6.43441 -0.70038,9.65988 -0.0431,0.98012 -0.0857,1.96087 -0.0948,2.94236 -1.20927,-1.25289 -0.74305,-1.34647 -1.53575,-1.03549 0.54608,-1.51357 2.43041,-0.6363 1.88431,0.87728 l 0,0 c -0.67479,1.51304 -0.98278,1.3893 -2.38489,0.13362 0.009,-1.02031 0.0527,-2.03987 0.0984,-3.05875 0.174,-3.23564 0.43122,-6.46357 0.7022,-9.69042 0.22356,-3.38721 0.36478,-6.81273 -0.0238,-10.19136 -0.20366,-1.61933 1.81234,-1.94649 2.01598,-0.32715 z"
       inkscape:connector-curvature="0" />
    <path
       style="color:#000000;fill:#000000;fill-opacity:1;fill-rule:nonzero;stroke:none;stroke-width:1px;marker:none;visibility:visible;display:inline;overflow:visible;enable-background:accumulate"
       id="path3101"
       d="m 567.83568,433.72291 c 2.26237,0.13954 4.48102,-0.1318 6.70786,-0.5531 1.78155,-0.35936 3.56837,-0.68331 5.36726,-0.90692 0.15513,-0.0143 0.31027,-0.0286 0.46542,-0.0429 1.43539,-0.13052 1.59788,2.17543 0.16251,2.30596 l 0,0 c -0.13557,0.0115 -0.27113,0.0244 -0.40671,0.0364 -1.76121,0.21835 -3.51024,0.53802 -5.25449,0.88928 -2.33673,0.44059 -4.66863,0.72378 -7.04185,0.58442 -1.43998,0 -1.43998,-2.31332 0,-2.31332 z"
       inkscape:connector-curvature="0" />
    <path
       style="color:#000000;fill:#000000;fill-opacity:1;fill-rule:nonzero;stroke:none;stroke-width:1px;marker:none;visibility:visible;display:inline;overflow:visible;enable-background:accumulate"
       id="path3103"
       d="m 396.21837,296.9394 c 0,2.28416 0,4.56834 0,6.85251 0,0.67115 0,1.34231 0,2.01347 0,1.72887 -2.81197,1.72887 -2.81197,0 l 0,0 c 0,-0.67116 0,-1.34232 0,-2.01347 0,-2.28417 0,-4.56835 0,-6.85251 0,-1.72887 2.81197,-1.72887 2.81197,0 z"
       inkscape:connector-curvature="0" />
    <path
       style="color:#000000;fill:#000000;fill-opacity:1;fill-rule:nonzero;stroke:none;stroke-width:1px;marker:none;visibility:visible;display:inline;overflow:visible;enable-background:accumulate"
       id="path3107"
       d="m 392.04436,288.35113 c 1.5676,-0.59247 3.00389,-1.4877 4.65842,-1.88294 2.86225,0.36111 2.64424,2.32365 0.84207,3.67792 -0.96703,0.45839 -2.04379,0.6699 -3.12624,0.79568 -1.55325,0.13395 -0.70287,-0.0686 -0.14013,-2.42487 0.65247,-0.0102 1.30507,-0.008 1.95759,-0.006 2.64852,0.77168 0.973,2.75009 -0.43268,2.99154 -0.2973,0.051 -0.60503,0.0312 -0.90757,0.0468 -1.03233,-0.21617 -0.46465,-0.006 -1.55866,-0.86881 -1.02642,-1.48069 1.38191,-2.74285 2.40834,-1.26215 l 0,0 c -0.21992,-0.11337 -0.43985,-0.22673 -0.65976,-0.3401 -0.002,0.0102 -0.005,0.0209 -0.006,0.0312 -1.00527,0.41767 3.146,1.74371 1.14507,1.84644 -0.62734,-0.002 -1.25475,-0.005 -1.88202,0.005 -0.27166,-2.10099 -0.91045,-2.40164 -0.28906,-2.44371 0.62462,-0.0693 1.23357,-0.19939 1.83854,-0.34907 0.23874,0.42298 0.61721,0.84292 1.38914,0.6925 -1.30677,0.44853 -2.65952,1.13652 -3.97854,1.67697 -1.77845,0.77317 -3.036,-1.41368 -1.25755,-2.18687 z"
       inkscape:connector-curvature="0" />
    <path
       style="color:#000000;fill:#000000;fill-opacity:1;fill-rule:nonzero;stroke:none;stroke-width:1px;marker:none;visibility:visible;display:inline;overflow:visible;enable-background:accumulate"
       id="path3111"
       d="m 403.71695,295.30941 c 0.2987,2.40776 0.56303,4.81774 0.7638,7.23318 0.0852,1.16842 0.15728,2.33786 0.17728,3.50862 0.004,0.27331 0.005,0.54666 -9.5e-4,0.81994 -0.93756,-0.0996 -1.94423,0.0241 -2.8127,-0.29885 -0.0713,-0.0265 0.28663,-1.11877 0.31251,-1.21849 0.20507,-0.79062 0.28,-1.59895 0.37188,-2.40352 0.26924,-2.0202 0.92876,-3.93425 2.01063,-5.7316 0.79743,-1.25469 2.12911,-2.10546 3.41727,-2.95166 0.35326,-0.22913 0.7097,-0.4547 1.07716,-0.66631 3.00417,1.68059 1.91157,1.13045 2.43327,3.34634 0.24354,1.63019 0.9581,3.16123 1.93536,4.55731 0.5888,0.9378 1.67395,1.41253 2.55694,2.10607 0.19403,0.17726 0.38805,0.35451 0.58206,0.53176 1.36588,1.2564 -0.67766,2.93594 -2.04352,1.67952 l 0,0 c -0.1513,-0.14039 -0.30259,-0.28078 -0.45388,-0.42117 -1.0269,-0.87543 -2.40976,-1.43121 -3.04993,-2.63404 -1.12799,-1.64002 -1.98441,-3.42682 -2.28273,-5.33281 -0.0303,-0.1308 -0.40797,-2.4194 -0.28904,-2.40754 0.74681,0.0744 1.51123,1.00113 2.13588,0.62909 -0.31036,0.17765 -0.60774,0.37188 -0.90712,0.56302 -0.95642,0.62748 -1.99564,1.23335 -2.62412,2.14041 -0.92524,1.5134 -1.46464,3.12965 -1.70023,4.835 -0.10856,0.93673 -0.21356,1.86646 -0.45179,2.78657 -0.0516,0.1993 0.0141,0.55484 -0.21865,0.58263 -0.93272,0.11142 -1.87353,0.1637 -2.81028,0.24555 0.004,-0.2404 0.005,-0.48085 6.8e-4,-0.72127 -0.0188,-1.12398 -0.0892,-2.24665 -0.17026,-3.3684 -0.20547,-2.47416 -0.49271,-4.94086 -0.77111,-7.40935 0,-1.72887 2.81196,-1.72887 2.81196,0 z"
       inkscape:connector-curvature="0" />
    <path
       inkscape:connector-curvature="0"
       d="m 529.90259,407.65007 c 0.71947,4.45111 0.66144,8.95866 0.93038,13.43737 0.24271,5.65092 1.03789,11.26544 2.08381,16.8498 0.27642,0.86714 0.22871,1.81198 0.625,2.65628 0.68352,1.6751 -2.21025,2.4664 -2.89375,0.79131 l 0,0 c -0.3823,-1.00035 -0.5481,-2.03462 -0.74697,-3.0692 -1.0612,-5.66921 -1.86736,-11.36918 -2.11537,-17.10582 -0.26052,-4.3561 -0.21802,-8.73735 -0.87479,-13.06992 -0.42308,-1.73177 2.56861,-2.22159 2.99169,-0.48982 z"
       id="path3113"
       style="fill:#000000;fill-opacity:1;fill-rule:nonzero;stroke:none" />
    <path
       inkscape:connector-curvature="0"
       d="m 528.89336,407.81331 c 2.90124,-0.304 5.73229,-0.8858 8.65098,-1.07982 3.59799,-0.20196 6.06905,0.86367 8.05406,3.25887 1.81284,2.89246 0.64058,5.01454 -1.59387,7.42388 -3.08631,2.6622 -7.20321,3.55322 -11.47466,4.1281 -2.58946,0.0635 -5.09957,0.71703 -7.64936,0.96211 -0.48727,-2.2863 -1.42929,-2.14927 0.13303,-2.80452 0.78954,-0.33117 1.42862,-0.52812 2.24459,-0.80017 1.99879,-0.66452 3.14679,1.64951 1.14798,2.31404 l 0,0 c -0.36535,0.12107 -1.43971,0.46787 -1.82439,0.62852 -1.53937,0.6429 -0.37696,0.84856 -1.85017,-1.83248 -0.6653,0.15613 0.72925,-0.15284 1.86665,-0.31236 1.80545,-0.25322 3.6179,-0.47855 5.44214,-0.62035 3.50103,-0.4602 6.93198,-1.08977 9.55484,-3.19504 1.35233,-1.38161 2.50655,-2.79137 1.43248,-4.54679 -1.11291,-1.59825 -3.01942,-2.28294 -5.24787,-2.11367 -2.99748,0.17869 -5.89327,0.86555 -8.88635,1.08727 -2.15735,0 -2.15735,-2.49759 0,-2.49759 z"
       id="path3115"
       style="fill:#000000;fill-opacity:1;fill-rule:nonzero;stroke:none" />
    <path
       style="fill:#000000;fill-opacity:1;fill-rule:nonzero;stroke:none"
       id="path3117"
       d="m 381.97872,265.30294 c 0.77576,4.66543 0.71319,9.39 1.00317,14.08435 0.2617,5.92301 1.1191,11.80785 2.24686,17.66108 0.29805,0.90889 0.24661,1.89923 0.67391,2.78418 0.73699,1.75575 -2.38319,2.58515 -3.12017,0.82941 l 0,0 c -0.41222,-1.04852 -0.59099,-2.13259 -0.80542,-3.21697 -1.14422,-5.94218 -2.01346,-11.91659 -2.28088,-17.92943 -0.28091,-4.56584 -0.23508,-9.15804 -0.94324,-13.69921 -0.45618,-1.81515 2.76959,-2.32855 3.22577,-0.51341 z"
       inkscape:connector-curvature="0" />
    <path
       style="fill:#000000;fill-opacity:1;fill-rule:nonzero;stroke:none"
       id="path3119"
       d="m 380.89053,265.47405 c 3.12823,-0.31865 6.1808,-0.92845 9.32785,-1.13182 3.87951,-0.21168 6.54391,0.90525 8.68424,3.41577 1.95467,3.03174 0.69069,5.25599 -1.71859,7.78133 -3.32779,2.79039 -7.7668,3.7243 -12.37246,4.32686 -2.79207,0.0665 -5.49858,0.75156 -8.24787,1.00844 -0.5254,-2.39639 -1.54112,-2.25276 0.14344,-2.93955 0.85132,-0.34712 1.5404,-0.55355 2.42022,-0.8387 2.15517,-0.69651 3.39299,1.72892 1.2378,2.42546 l 0,0 c -0.39395,0.12689 -1.55236,0.49039 -1.96714,0.65878 -1.65982,0.67385 -0.40646,0.88941 -1.99494,-1.92071 -0.71735,0.16364 0.78632,-0.1602 2.01271,-0.3274 1.94671,-0.26541 3.90097,-0.50159 5.86795,-0.65022 3.77495,-0.48237 7.47435,-1.14225 10.30243,-3.34888 1.45814,-1.44813 2.70267,-2.92577 1.54457,-4.7657 -1.19999,-1.67521 -3.25568,-2.39286 -5.65848,-2.21544 -3.23202,0.18729 -6.35439,0.90723 -9.58164,1.13962 -2.32615,0 -2.32615,-2.61784 0,-2.61784 z"
       inkscape:connector-curvature="0" />
  </g>
</svg>
