<?xml version="1.0" encoding="UTF-8" standalone="no"?>
<!-- Created with Inkscape (http://www.inkscape.org/) -->

<svg
   xmlns:osb="http://www.openswatchbook.org/uri/2009/osb"
   xmlns:dc="http://purl.org/dc/elements/1.1/"
   xmlns:cc="http://creativecommons.org/ns#"
   xmlns:rdf="http://www.w3.org/1999/02/22-rdf-syntax-ns#"
   xmlns:svg="http://www.w3.org/2000/svg"
   xmlns="http://www.w3.org/2000/svg"
   xmlns:sodipodi="http://sodipodi.sourceforge.net/DTD/sodipodi-0.dtd"
   xmlns:inkscape="http://www.inkscape.org/namespaces/inkscape"
   width="577.24274"
   height="232.80968"
   id="svg3954"
   version="1.1"
   inkscape:version="0.48.0 r9654"
   sodipodi:docname="PulleyExample.svg">
  <defs
     id="defs3956">
    <linearGradient
       id="linearGradient6173"
       osb:paint="solid">
      <stop
         style="stop-color:#000000;stop-opacity:1;"
         offset="0"
         id="stop6175" />
    </linearGradient>
  </defs>
  <sodipodi:namedview
     inkscape:document-units="mm"
     pagecolor="#ffffff"
     bordercolor="#666666"
     borderopacity="1.0"
     inkscape:pageopacity="0.0"
     inkscape:pageshadow="2"
     inkscape:zoom="0.7176508"
     inkscape:cx="304.2841"
     inkscape:cy="-13.648699"
     inkscape:current-layer="layer1"
     id="namedview3958"
     showgrid="false"
     inkscape:window-width="1280"
     inkscape:window-height="752"
     inkscape:window-x="0"
     inkscape:window-y="0"
     inkscape:window-maximized="0"
     fit-margin-top="0"
     fit-margin-left="0"
     fit-margin-right="0"
     fit-margin-bottom="0" />
  <metadata
     id="metadata3960">
    <rdf:RDF>
      <cc:Work
         rdf:about="">
        <dc:format>image/svg+xml</dc:format>
        <dc:type
           rdf:resource="http://purl.org/dc/dcmitype/StillImage" />
        <dc:title></dc:title>
      </cc:Work>
    </rdf:RDF>
  </metadata>
  <g
     inkscape:label="Layer 1"
     inkscape:groupmode="layer"
     id="layer1"
     transform="translate(-221.89699,-125.58886)">
    <path
       style="fill:#000000;fill-opacity:1;fill-rule:nonzero;stroke:none"
       id="path4471"
       d="m 261.08144,129.6584 c -1.46988,16.23811 -2.10943,32.53509 -2.69112,48.82445 -0.76815,32.35308 0.48554,64.70418 1.51843,97.03613 0.66284,20.02296 1.08152,40.05256 1.29966,60.08499 0.0419,5.49482 0.0972,10.9899 0.0781,16.48495 0.67817,2.01175 -4.15193,2.17599 -4.20516,0.30923 -0.0732,-2.95502 4.10586,-3.05849 4.17903,-0.10347 l 0,0 c 0.0509,1.78394 -4.81085,1.71147 -4.15415,-0.2203 0.0191,-5.47504 -0.0363,-10.9501 -0.0779,-16.4249 -0.21775,-20.0031 -0.6359,-40.00338 -1.29778,-59.99702 -1.03589,-32.42614 -2.29184,-64.87155 -1.51789,-97.31884 0.58737,-16.43685 1.2284,-32.88269 2.73047,-49.2664 0.41803,-2.92622 4.55633,-2.33503 4.13829,0.59118 z"
       inkscape:connector-curvature="0" />
    <path
       style="fill:#000000;fill-opacity:1;fill-rule:nonzero;stroke:none"
       id="path4473"
       d="m 257.72841,131.86351 c -4.40844,2.18944 -8.68714,4.66228 -12.91492,7.18511 -5.35689,3.34518 -10.64621,6.79679 -15.98516,10.17345 -1.26056,0.84043 -2.50814,1.63804 -3.88201,2.27048 -2.70997,1.1805 -4.37945,-2.65196 -1.66948,-3.83246 l 0,0 c 1.21263,-0.46639 2.18009,-1.35278 3.31702,-1.97102 5.36994,-3.39624 10.68952,-6.86849 16.07886,-10.231 4.41679,-2.63123 8.87985,-5.22792 13.50316,-7.47588 2.74451,-1.0978 4.29704,2.78352 1.55253,3.88132 z"
       inkscape:connector-curvature="0" />
    <path
       style="fill:#000000;fill-opacity:1;fill-rule:nonzero;stroke:none"
       id="path4477"
       d="m 254.58316,152.46902 c -3.91004,3.42946 -8.27856,6.28416 -12.5286,9.26797 -4.01592,2.50305 -7.86404,5.45356 -12.16437,7.46825 -2.68947,1.22646 -4.42395,-2.57703 -1.73448,-3.80349 l 0,0 c 4.10409,-1.7946 7.65859,-4.82296 11.49688,-7.08609 4.05339,-2.84568 8.21395,-5.57144 11.97465,-8.80256 2.09015,-2.09016 5.04607,0.86577 2.95592,2.95592 z"
       inkscape:connector-curvature="0" />
    <path
       style="fill:#000000;fill-opacity:1;fill-rule:nonzero;stroke:none"
       id="path4509"
       d="m 255.2667,176.38226 c -4.2786,2.5428 -8.32936,5.40222 -12.35856,8.31712 -4.25987,2.79887 -8.21762,6.00609 -12.29723,9.05262 -2.36844,1.76861 -4.86963,-1.58088 -2.50119,-3.34948 l 0,0 c 4.09653,-3.0589 8.0715,-6.27871 12.34817,-9.09005 4.21212,-3.04725 8.45126,-6.03527 12.93932,-8.66919 2.64386,-1.32192 4.51335,2.41706 1.86949,3.73898 z"
       inkscape:connector-curvature="0" />
    <path
       style="fill:#000000;fill-opacity:1;fill-rule:nonzero;stroke:none"
       id="path4511"
       d="m 255.9766,195.66552 c -3.8614,3.59684 -8.41334,6.38782 -12.79852,9.29554 -4.91919,3.24291 -10.11401,6.15403 -14.50515,10.12321 -0.1878,0.74635 -0.12976,0.49303 0.23869,-0.74221 0.75357,2.85825 -3.28861,3.92396 -4.04218,1.06571 l 0,0 c 0.11188,-2.59699 -0.28778,-1.47192 1.01261,-3.43572 4.57178,-4.07273 9.86223,-7.18293 14.9859,-10.49499 4.15281,-2.75356 8.47682,-5.38718 12.15272,-8.76746 2.09016,-2.09016 5.04608,0.86577 2.95593,2.95592 z"
       inkscape:connector-curvature="0" />
    <path
       style="fill:#000000;fill-opacity:1;fill-rule:nonzero;stroke:none"
       id="path4513"
       d="m 253.74793,213.40364 c -3.11084,4.66553 -7.86188,7.86255 -12.46034,10.91307 -4.25635,2.67179 -8.37851,5.54533 -12.4038,8.5518 -0.94752,0.72113 -0.51898,0.39108 -1.28751,0.98768 -2.33521,1.81226 -4.89813,-1.49022 -2.56292,-3.30248 l 0,0 c 0.81002,-0.62845 0.36094,-0.28277 1.34913,-1.0346 4.08865,-3.05294 8.27423,-5.97315 12.59666,-8.68752 4.00749,-2.65019 8.1278,-5.39353 11.0298,-9.29744 1.32193,-2.64386 5.06091,-0.77437 3.73898,1.86949 z"
       inkscape:connector-curvature="0" />
    <path
       style="fill:#000000;fill-opacity:1;fill-rule:nonzero;stroke:none"
       id="path4515"
       d="m 254.19261,233.48244 c -4.07757,3.06163 -8.20521,6.06766 -12.34157,9.05717 -3.94274,2.6827 -7.78785,5.50227 -11.56325,8.41462 -2.34055,1.80536 -4.89371,-1.50467 -2.55317,-3.31003 l 0,0 c 3.81002,-2.9386 7.68894,-5.78572 11.66775,-8.49266 4.11629,-2.97493 8.22873,-5.96006 12.28206,-9.01335 2.36474,-1.77355 4.87292,1.57069 2.50818,3.34425 z"
       inkscape:connector-curvature="0" />
    <path
       inkscape:connector-curvature="0"
       d="m 257.72841,257.27269 c -4.40844,2.18944 -8.68714,4.66228 -12.91492,7.18511 -5.35689,3.34518 -10.64621,6.79679 -15.98516,10.17345 -1.26056,0.84043 -2.50814,1.63804 -3.88201,2.27048 -2.70997,1.1805 -4.37945,-2.65196 -1.66948,-3.83246 l 0,0 c 1.21263,-0.46639 2.18009,-1.35278 3.31702,-1.97102 5.36994,-3.39624 10.68952,-6.86849 16.07886,-10.231 4.41679,-2.63123 8.87985,-5.22792 13.50316,-7.47588 2.74451,-1.0978 4.29704,2.78352 1.55253,3.88132 z"
       id="path4521"
       style="fill:#000000;fill-opacity:1;fill-rule:nonzero;stroke:none" />
    <path
       inkscape:connector-curvature="0"
       d="m 254.58316,277.8782 c -3.91004,3.42946 -8.27856,6.28416 -12.5286,9.26797 -4.01592,2.50305 -7.86404,5.45356 -12.16437,7.46825 -2.68947,1.22646 -4.42395,-2.57703 -1.73448,-3.80349 l 0,0 c 4.10409,-1.7946 7.65859,-4.82296 11.49688,-7.08609 4.05339,-2.84568 8.21395,-5.57144 11.97465,-8.80256 2.09015,-2.09016 5.04607,0.86577 2.95592,2.95592 z"
       id="path4523"
       style="fill:#000000;fill-opacity:1;fill-rule:nonzero;stroke:none" />
    <path
       inkscape:connector-curvature="0"
       d="m 255.2667,301.79144 c -4.2786,2.5428 -8.32936,5.40222 -12.35856,8.31712 -4.25987,2.79887 -8.21762,6.00609 -12.29723,9.05262 -2.36844,1.76861 -4.86963,-1.58088 -2.50119,-3.34948 l 0,0 c 4.09653,-3.0589 8.0715,-6.27871 12.34817,-9.09005 4.21212,-3.04725 8.45126,-6.03527 12.93932,-8.66919 2.64386,-1.32192 4.51335,2.41706 1.86949,3.73898 z"
       id="path4525"
       style="fill:#000000;fill-opacity:1;fill-rule:nonzero;stroke:none" />
    <path
       inkscape:connector-curvature="0"
       d="m 255.9766,321.0747 c -3.8614,3.59684 -8.41334,6.38782 -12.79852,9.29554 -4.91919,3.24291 -10.11401,6.15403 -14.50515,10.12321 -0.1878,0.74635 -0.12976,0.49303 0.23869,-0.74221 0.75357,2.85825 -3.28861,3.92396 -4.04218,1.06571 l 0,0 c 0.11188,-2.59699 -0.28778,-1.47192 1.01261,-3.43572 4.57178,-4.07273 9.86223,-7.18293 14.9859,-10.49499 4.15281,-2.75356 8.47682,-5.38718 12.15272,-8.76746 2.09016,-2.09016 5.04608,0.86577 2.95593,2.95592 z"
       id="path4527"
       style="fill:#000000;fill-opacity:1;fill-rule:nonzero;stroke:none" />
    <path
       inkscape:connector-curvature="0"
       d="m 256.5348,337.41938 c -3.11084,4.66553 -7.86188,7.86255 -12.46034,10.91307 -4.25635,2.67179 -8.37851,5.54533 -12.4038,8.5518 -0.94752,0.72113 -0.51898,0.39108 -1.28751,0.98768 -2.33521,1.81226 -4.89813,-1.49022 -2.56292,-3.30248 l 0,0 c 0.81002,-0.62845 0.36094,-0.28277 1.34913,-1.0346 4.08865,-3.05294 8.27423,-5.97315 12.59666,-8.68752 4.00749,-2.65019 8.1278,-5.39353 11.0298,-9.29744 1.32193,-2.64386 5.06091,-0.77437 3.73898,1.86949 z"
       id="path4529"
       style="fill:#000000;fill-opacity:1;fill-rule:nonzero;stroke:none" />
    <path
       style="fill:#000000;fill-opacity:1;fill-rule:nonzero;stroke:none"
       id="path4537"
       d="m 260.01237,284.95753 c 3.6907,0 7.38139,0 11.07209,0 6.33264,0 12.66527,0 18.99791,0 11.04083,0 22.08165,0 33.12248,0 10.20845,-0.10025 20.42429,0.20505 30.62784,-0.16532 5.99155,-0.30435 11.97665,-0.71861 17.96565,-1.0678 1.02127,-0.0566 2.04225,-0.11965 3.06398,-0.16764 -0.0641,11.11329 -0.29076,0.0207 -0.0599,0.004 -1.46836,2.70787 -1.93682,3.37587 -2.11388,1.17702 -0.0557,-1.56313 0.57141,-1.49375 2.15968,-2.57314 0.62893,-0.0251 1.25869,-0.008 1.8879,-0.003 0.66494,0.004 1.32988,0.006 1.99483,0.008 0.0982,3.2e-4 0.19635,3.4e-4 0.29452,4.5e-4 -0.38392,1.30478 -0.76785,2.60955 -1.15177,3.91433 -2.81574,-0.8995 -1.54366,-4.88156 1.27208,-3.98206 l 0,0 c -0.0357,1.416 -0.0715,2.83201 -0.10719,4.24802 -0.10596,-1.1e-4 -0.21191,-6e-5 -0.31787,-4.5e-4 -0.67439,-0.002 -1.34879,-0.004 -2.02318,-0.008 -0.50727,-0.005 -1.01457,-0.0124 -1.52187,-0.0101 0.83951,-0.69754 1.68783,-0.87614 1.68543,-1.84876 -0.55304,1.05769 -0.49808,3.19492 -1.76149,3.24715 -0.37518,0.0267 -1.37517,-10.94315 -0.058,0.002 -1.00039,0.0469 -2.00001,0.10942 -2.99997,0.1644 -6.01996,0.35098 -12.03596,0.76804 -18.05857,1.07218 -10.254,0.36621 -20.51941,0.074 -30.77824,0.16803 -11.04083,0 -22.08165,0 -33.12248,0 -6.33264,0 -12.66527,0 -18.99791,0 -3.6907,0 -7.38139,0 -11.07209,0 -2.95592,0 -2.95592,-4.18031 0,-4.18031 z"
       inkscape:connector-curvature="0" />
    <path
       style="fill:#000000;fill-opacity:1;fill-rule:nonzero;stroke:none"
       id="path4539"
       d="m 373.60046,280.67295 c 2.55992,-0.84327 5.22728,-0.52494 7.85487,-0.28429 1.978,0.0983 2.89156,0.21601 4.58099,1.23593 1.0263,1.63449 0.79234,3.49555 0.15825,5.22891 -0.39411,1.26896 -1.46421,2.08259 -2.15264,3.17491 -0.65978,1.3506 -1.91564,1.72537 -3.28751,1.86654 -1.21033,0.0665 -2.42332,0.0518 -3.63493,0.0429 -0.31664,-0.002 -0.63326,-0.007 -0.94985,-0.0127 -1.69268,-0.80228 -1.97807,-1.48852 -2.64847,-2.84205 -0.94282,-1.12422 -1.46617,-2.45646 -1.83279,-3.8585 -0.15912,-0.70023 -0.29258,-1.40872 -0.34616,-2.12556 -0.18891,-1.44587 1.67317,-2.35391 2.99656,-2.33381 0.22304,0.004 0.446,0.01 0.66905,0.0112 1.80934,0.48774 3.07758,1.7241 4.28531,3.09211 0.52387,0.63202 1.02903,1.28292 1.46265,1.98091 0.76623,1.37884 0.1959,0.43877 -2.98123,-0.58869 1.7673,-2.36942 5.11816,0.12992 3.35086,2.49934 l 0,0 c -4.22681,0.0718 -4.60512,-1.10309 -3.92987,0.28015 -0.31449,-0.49802 -0.67524,-0.96513 -1.04916,-1.41981 -0.58184,-0.67435 -3.29375,-2.56845 -1.15445,-1.66373 -0.23901,-0.002 -0.47787,-0.007 -0.71683,-0.0116 -1.73865,-0.0266 1.43368,-0.92956 1.2375,-2.13375 0.0477,0.46374 0.1182,0.92487 0.22615,1.37918 0.28254,1.14936 0.8064,2.0915 1.52851,3.03744 0.55469,1.1202 1.65791,2.40693 -0.99194,0.51826 0.29157,0.006 0.58319,0.009 0.87481,0.0115 1.07003,0.008 2.14079,0.0184 3.21025,-0.0244 0.97475,-0.077 -0.81569,1.31852 0.15719,0.0471 0.54938,-0.85444 1.32173,-1.54104 1.75933,-2.38519 0.065,-0.17014 0.25146,-0.29 0.27843,-0.47012 0.073,-0.48758 -0.2529,-1.48602 0.34439,-0.53695 2.74679,1.22123 -1.02536,-0.0327 -1.82655,0.1634 -2.1685,-0.19956 -4.34907,-0.54208 -6.45885,0.17699 -2.86767,0.71691 -3.88154,-3.33858 -1.01387,-4.0555 z"
       inkscape:connector-curvature="0" />
    <path
       d="m 604.75093,281.47394 c 0,36.93951 -30.56925,66.88489 -68.27833,66.88489 -37.70909,0 -68.27834,-29.94538 -68.27834,-66.88489 0,-36.93951 30.56925,-66.8849 68.27834,-66.8849 37.70908,0 68.27833,29.94539 68.27833,66.8849 z"
       sodipodi:ry="66.884895"
       sodipodi:rx="68.278336"
       sodipodi:cy="281.47394"
       sodipodi:cx="536.4726"
       id="path4551"
       style="fill:none;stroke:#000000;stroke-width:4.5779748;stroke-linecap:round;stroke-linejoin:round;stroke-miterlimit:4;stroke-opacity:1;stroke-dasharray:none;stroke-dashoffset:0"
       sodipodi:type="arc"
       transform="matrix(0.76096645,0,0,0.78723657,-27.829806,66.15782)" />
    <path
       inkscape:connector-curvature="0"
       d="m 560.3208,277.88608 c 2.55992,-0.84327 5.22728,-0.52494 7.85487,-0.28429 1.978,0.0983 2.89156,0.21601 4.58099,1.23593 1.0263,1.63449 0.79234,3.49555 0.15825,5.22891 -0.39411,1.26896 -1.46421,2.08259 -2.15264,3.17491 -0.65978,1.3506 -1.91564,1.72537 -3.28751,1.86654 -1.21033,0.0665 -2.42332,0.0518 -3.63493,0.0429 -0.31664,-0.002 -0.63326,-0.007 -0.94985,-0.0127 -1.69268,-0.80228 -1.97807,-1.48852 -2.64847,-2.84205 -0.94282,-1.12422 -1.46617,-2.45646 -1.83279,-3.8585 -0.15912,-0.70023 -0.29258,-1.40872 -0.34616,-2.12556 -0.18891,-1.44587 1.67317,-2.35391 2.99656,-2.33381 0.22304,0.004 0.446,0.01 0.66905,0.0112 1.80934,0.48774 3.07758,1.7241 4.28531,3.09211 0.52387,0.63202 1.02903,1.28292 1.46265,1.98091 0.76623,1.37884 0.1959,0.43877 -2.98123,-0.58869 1.7673,-2.36942 5.11816,0.12992 3.35086,2.49934 l 0,0 c -4.22681,0.0718 -4.60512,-1.10309 -3.92987,0.28015 -0.31449,-0.49802 -0.67524,-0.96513 -1.04916,-1.41981 -0.58184,-0.67435 -3.29375,-2.56845 -1.15445,-1.66373 -0.23901,-0.002 -0.47787,-0.007 -0.71683,-0.0116 -1.73865,-0.0266 1.43368,-0.92956 1.2375,-2.13375 0.0477,0.46374 0.1182,0.92487 0.22615,1.37918 0.28254,1.14936 0.8064,2.0915 1.52851,3.03744 0.55469,1.1202 1.65791,2.40693 -0.99194,0.51826 0.29157,0.006 0.58319,0.009 0.87481,0.0115 1.07003,0.008 2.14079,0.0184 3.21025,-0.0244 0.97475,-0.077 -0.81569,1.31852 0.15719,0.0471 0.54938,-0.85444 1.32173,-1.54104 1.75933,-2.38519 0.065,-0.17014 0.25146,-0.29 0.27843,-0.47012 0.073,-0.48758 -0.2529,-1.48602 0.34439,-0.53695 2.74679,1.22123 -1.02536,-0.0327 -1.82655,0.1634 -2.1685,-0.19956 -4.34907,-0.54208 -6.45885,0.17699 -2.86767,0.71691 -3.88154,-3.33858 -1.01387,-4.0555 z"
       id="path4553"
       style="fill:#000000;fill-opacity:1;fill-rule:nonzero;stroke:none" />
    <path
       transform="matrix(0.76096645,0,0,0.78723657,158.89053,63.370949)"
       sodipodi:type="arc"
       style="fill:none;stroke:#000000;stroke-width:4.5779748;stroke-linecap:round;stroke-linejoin:round;stroke-miterlimit:4;stroke-opacity:1;stroke-dasharray:none;stroke-dashoffset:0"
       id="path4555"
       sodipodi:cx="536.4726"
       sodipodi:cy="281.47394"
       sodipodi:rx="68.278336"
       sodipodi:ry="66.884895"
       d="m 604.75093,281.47394 c 0,36.93951 -30.56925,66.88489 -68.27833,66.88489 -37.70909,0 -68.27834,-29.94538 -68.27834,-66.88489 0,-36.93951 30.56925,-66.8849 68.27834,-66.8849 37.70908,0 68.27833,29.94539 68.27833,66.8849 z" />
    <path
       style="color:#000000;fill:none;stroke:#000000;stroke-width:3.54330707;stroke-linecap:round;stroke-linejoin:round;stroke-miterlimit:4;stroke-opacity:1;stroke-dasharray:none;stroke-dashoffset:0;marker:none;visibility:visible;display:inline;overflow:visible;enable-background:accumulate"
       d="m 567.12819,282.86738 c -41.04641,-19.92565 -78.51127,-49.63225 -124.66862,-56.99145 -38.3504,-8.23862 -69.33953,-2.39247 -100.91869,24.00917 -16.86883,25.04215 -15.82858,25.8546 -11.10851,60.62821 18.28271,23.48422 23.56129,24.6164 50.67696,30.99533 72.92504,4.97632 145.71768,10.63264 200.46638,-3.13142 36.93649,-20.33667 27.75843,-27.00057 38.01557,-45.65259 4.04202,-30.00133 -15.84264,-53.55779 -50.81667,-69.09166 -64.38412,-25.8009 -95.02087,-27.04598 -114.64527,-30.03508 -12.919,-2.19061 -40.19089,-5.14123 -58.39369,-6.87755"
       id="path4557"
       inkscape:connector-curvature="0"
       sodipodi:nodetypes="cccccccccc" />
    <path
       style="fill:#000000;fill-opacity:1;fill-rule:nonzero;stroke:none"
       id="path4568"
       d="m 565.58463,280.98449 c 8.58067,0.8978 17.26832,0.33541 25.88086,0.19035 13.76546,-0.22091 27.53252,-0.3117 41.29949,-0.36986 6.19983,-0.0221 12.39971,-0.0332 18.59958,-0.0322 0.78266,0.002 1.56535,-0.001 2.348,0.004 -0.77891,11.14803 -0.22654,0.043 -0.16596,3.9e-4 0.8885,-0.6257 1.39164,1.66944 2.08745,2.50416 -0.11533,2.95367 -4.29245,2.79056 -4.17712,-0.16311 l 0,0 c 0.70447,0.61306 1.54873,2.583 2.11342,1.83919 0.0204,-0.0268 -0.77688,-11.15158 0.0958,-5.8e-4 -0.76742,-0.003 -1.53485,-0.003 -2.30227,-0.004 -6.19375,-0.001 -12.38751,0.0101 -18.58123,0.0322 -13.74939,0.0581 -27.49887,0.1487 -41.24675,0.3693 -8.90824,0.15004 -17.90218,0.7511 -26.77109,-0.27093 -2.89852,-0.5797 -2.07869,-4.67883 0.81983,-4.09913 z"
       inkscape:connector-curvature="0" />
    <path
       style="fill:#000000;fill-opacity:1;fill-rule:nonzero;stroke:none"
       id="path4576"
       d="m 654.32217,256.55189 c 1.03457,4.23685 0.92961,8.58848 0.73345,12.90823 -0.33041,6.96879 -0.78643,13.94353 -0.57257,20.92112 0.26253,4.89927 0.64477,9.79095 0.96035,14.68696 0.059,0.95054 0.12202,1.90088 0.17261,2.85192 8e-4,0.02 0.002,0.0399 0.002,0.0599 0.11103,2.95384 -4.06632,3.11086 -4.17736,0.15703 l 0,0 c -5e-5,-0.003 -1.1e-4,-0.006 -1.7e-4,-0.009 -0.0494,-0.93082 -0.11173,-1.86092 -0.16914,-2.79127 -0.31866,-4.94416 -0.70613,-9.88387 -0.96716,-14.83156 -0.20468,-7.08332 0.22733,-14.16245 0.5751,-21.23653 0.18064,-3.91466 0.31309,-7.85893 -0.61301,-11.70323 -0.71692,-2.86767 3.33858,-3.88154 4.05549,-1.01387 z"
       inkscape:connector-curvature="0" />
    <path
       style="fill:#000000;fill-opacity:1;fill-rule:nonzero;stroke:none"
       id="path4578"
       d="m 383.34486,206.71788 c -6.38141,-0.75341 -12.81674,-0.99243 -19.2274,-1.43103 -8.04257,-0.34269 -16.05733,-0.9984 -24.05294,-1.92081 -1.59195,-0.22587 -3.20292,-0.3516 -4.78383,-0.65452 -0.0647,-0.0156 -0.26026,-0.053 -0.194,-0.0469 1.16737,0.10689 -0.62654,0.075 -0.86532,0.0759 -0.71384,0.003 -1.42769,0.003 -2.14154,0.004 -0.15197,1.8e-4 -0.30394,2.2e-4 -0.45591,2.6e-4 -0.003,0 -0.006,-1e-5 -0.008,-1e-5 0.13896,-1.39351 0.17164,-2.80174 0.41687,-4.18052 0.0191,-0.10722 0.43212,0.0273 0.32671,-8e-5 -0.85292,-0.22147 0.25889,-0.2791 0.74084,-0.54972 2.52713,-1.46524 5.35675,-2.20807 7.99802,-3.41987 1.88778,-0.97926 3.83673,-1.83741 5.81357,-2.61975 1.00362,-0.22925 1.93846,-0.99005 2.92358,-1.67452 0.73826,-0.61969 1.45604,-1.01879 2.34105,-1.38981 -0.89249,0.4127 -0.28713,-0.0948 -0.0831,-0.37671 0.0264,-0.0468 -0.0461,0.097 -0.0704,0.14493 1.17124,-2.71398 5.00938,-1.05759 3.83814,1.65639 l 0,0 c -0.1021,0.21742 -0.21875,0.42644 -0.36076,0.62089 -0.62606,0.87251 -1.31592,1.62074 -2.35375,2.02068 1.36714,-0.79148 -0.70598,0.54173 -0.92735,0.75761 -1.16707,0.80952 -2.38957,1.73869 -3.77024,2.12796 -1.91236,0.75549 -3.79453,1.591 -5.62038,2.53769 -2.56853,1.15919 -5.29381,1.90369 -7.7536,3.29896 -3.45218,1.80006 -3.19899,1.83611 -3.44832,-3.13443 0.14972,-3e-5 0.29944,-7e-5 0.44917,-2.5e-4 0.71007,-7.1e-4 1.42014,-0.001 2.1302,-0.004 0.56287,-0.002 1.60444,-0.0247 1.87755,0.0488 1.47729,0.26283 2.97381,0.40634 4.46032,0.60428 7.93117,0.91551 15.88121,1.56354 23.85906,1.90301 6.58928,0.45082 13.20783,0.67887 19.76188,1.50246 2.89852,0.5797 2.0787,4.67883 -0.81982,4.09912 z"
       inkscape:connector-curvature="0" />
    <path
       style="fill:#000000;fill-opacity:1;fill-rule:nonzero;stroke:none"
       id="path4584"
       d="m 336.4025,201.0702 c 2.52715,2.71956 5.48462,4.96454 8.42271,7.21242 2.48601,1.64794 4.83834,3.49382 7.06768,5.4737 0.36996,0.32675 0.72655,0.66543 1.03063,1.05442 1.71608,2.40677 -1.68761,4.83368 -3.40369,2.42689 l 0,0 c 0.0407,0.0501 0.16791,0.19581 0.12443,0.14818 -0.16442,-0.18011 -0.35361,-0.33625 -0.52872,-0.50518 -2.15103,-1.91419 -4.43101,-3.68539 -6.83055,-5.27803 -3.08423,-2.35997 -6.18047,-4.72713 -8.83841,-7.57648 -2.09016,-2.09015 0.86577,-5.04608 2.95592,-2.95592 z"
       inkscape:connector-curvature="0" />
    <path
       style="fill:#000000;fill-opacity:1;fill-rule:nonzero;stroke:none"
       id="path4586"
       d="m 738.47849,232.43627 c 0,4.57785 0,9.1557 0,13.73357 0.0475,6.97376 -0.061,13.95268 -0.4931,20.91138 -0.4228,2.73388 -0.18374,5.64893 -0.8231,8.34668 -0.67558,-0.15882 -1.35118,-0.31751 -2.02676,-0.47629 -0.20258,-1.57508 1.81615,-1.8912 2.01873,-0.31611 l 0,0 c -0.6487,0.0502 -1.29744,0.10025 -1.94616,0.15046 0.38801,-2.58897 0.49394,-5.24523 0.74315,-7.85889 0.43118,-6.90719 0.53389,-13.83502 0.48829,-20.75721 0,-4.57787 0,-9.15571 0,-13.73355 0,-1.59089 2.03895,-1.59089 2.03895,0 z"
       inkscape:connector-curvature="0" />
    <path
       style="fill:#000000;fill-opacity:1;fill-rule:nonzero;stroke:none"
       id="path4588"
       d="m 737.3858,230.79497 c 4.22984,0.48493 8.51201,0.18363 12.75748,0.10254 4.62108,0.0189 9.2403,0.19995 13.8568,0.41595 0.7181,0.0359 2.77186,-0.005 2.69494,1.42396 -0.0265,0.49261 -0.47621,0.83545 -0.71429,1.25317 -1.2616,0.77007 -2.24857,-1.19861 -0.98698,-1.96868 l 0,0 c -0.10657,0.33745 -0.36834,0.65901 -0.31987,1.01241 0.14157,1.03149 1.08604,0.68172 0.0967,0.57008 -0.28451,-0.0322 -0.57136,-0.0288 -0.85703,-0.0431 -4.57595,-0.21418 -9.15458,-0.39376 -13.73507,-0.41429 -4.38999,0.084 -8.82194,0.40615 -13.19269,-0.14579 -1.41375,-0.31199 -1.01389,-2.51814 0.39988,-2.20614 z"
       inkscape:connector-curvature="0" />
    <path
       style="fill:#000000;fill-opacity:1;fill-rule:nonzero;stroke:none"
       id="path4590"
       d="m 736.67216,251.05528 c 2.79284,0.45071 5.62659,0.43223 8.43918,0.63437 3.03941,0.25705 6.07995,0.49998 9.12478,0.66418 0.54909,0.029 1.09851,0.0488 1.6478,0.0729 1.44059,0.0634 1.3593,2.3115 -0.0813,2.24805 l 0,0 c -0.55539,-0.0245 -1.11092,-0.0445 -1.66608,-0.074 -3.05597,-0.16502 -6.10769,-0.40784 -9.15821,-0.66627 -2.93325,-0.21241 -5.89347,-0.17454 -8.80068,-0.69676 -1.3987,-0.38586 -0.90419,-2.5685 0.49452,-2.18269 z"
       inkscape:connector-curvature="0" />
    <path
       style="fill:#000000;fill-opacity:1;fill-rule:nonzero;stroke:none"
       id="path4592"
       d="m 756.38125,271.08941 c -1.6565,2.05184 -3.17645,4.16723 -4.28466,6.63596 -0.62586,1.8432 -1.64455,3.71081 0.8886,3.66476 2.9269,-0.84045 4.69985,-2.8801 5.90816,-5.85474 0.53874,-2.85066 -0.73872,-3.23372 -2.91055,-3.92959 -0.83257,-0.15206 -1.67601,-0.16649 -2.51546,-0.0941 -0.17735,0.0161 -0.35432,0.0372 -0.53032,0.0655 -0.0856,0.0145 -0.21334,0.14578 -0.25353,0.0613 -0.31922,-0.67131 -0.48596,-1.41824 -0.72893,-2.12734 0.98533,-1.16137 2.47381,0.3762 1.4885,1.53758 l 0,0 c -0.38769,-0.53855 -0.89832,-0.99297 -1.16305,-1.6156 -0.0629,-0.14804 0.28996,-0.0698 0.43676,-0.0925 0.21623,-0.0334 0.43362,-0.0589 0.65142,-0.0761 1.07198,-0.0848 2.14526,-0.0488 3.20229,0.18691 3.48882,1.19099 5.1614,2.72859 4.17172,7.03258 -0.24943,0.57556 -0.45012,1.18008 -0.74827,1.7267 -1.58439,2.90498 -4.19979,4.95042 -7.24286,5.41439 -0.51597,-0.10059 -1.06433,-0.0795 -1.54794,-0.30222 -2.58557,-1.19002 -1.84436,-4.46758 -0.93008,-6.60401 1.17894,-2.57871 2.72048,-4.84138 4.47703,-6.97937 0.86506,-1.27269 2.49622,0.0772 1.63117,1.34991 z"
       inkscape:connector-curvature="0" />
    <path
       style="fill:#000000;fill-opacity:1;fill-rule:nonzero;stroke:none"
       id="path4600"
       d="m 765.75416,270.08639 c 0.7156,2.50027 0.60604,5.19706 0.62414,7.79271 0.0182,2.00406 -0.20008,4.469 1.39262,5.81808 1.94385,0.2827 3.54759,-1.6083 4.68263,-3.09677 1.32942,-2.13318 1.70044,-4.01523 1.11458,-6.48748 -0.24919,-0.61569 -0.58386,-1.19965 -1.09304,-1.58385 0.26541,-1.87932 -0.0114,-2.2711 1.08415,-2.11521 0.86823,0.0639 0.81554,1.2156 1.0022,1.52333 0.32302,2.03401 0.50727,4.05276 1.07989,6.03049 0.50464,1.50741 1.32201,3.10946 2.94728,3.08259 0.0897,-0.065 0.17898,-0.13002 0.26845,-0.19506 1.36574,-0.50979 2.01911,1.62142 0.6534,2.1312 l 0,0 c -0.35901,0.10231 -0.71802,0.20479 -1.077,0.30718 -0.34969,-0.0452 -0.7087,-0.0364 -1.04907,-0.13582 -1.9509,-0.56995 -3.03449,-2.56982 -3.68755,-4.51318 -0.56946,-2.01394 -0.82133,-4.0558 -1.10649,-6.13169 -0.29216,-1.52579 -0.0129,-0.003 0.67845,0.12792 -0.57462,-0.0754 -0.38805,-2.69609 0.32003,-1.99627 0.93895,0.70447 1.56117,1.75475 1.95679,2.92014 0.73423,3.32654 0.22925,5.66962 -1.54542,8.50175 -1.53574,1.94064 -3.75136,4.33858 -6.35752,3.84873 -0.43297,-0.0814 -0.81675,-0.3568 -1.22513,-0.53521 -0.29125,-0.30678 -0.6244,-0.57148 -0.87375,-0.92031 -1.30001,-1.81855 -1.17113,-4.39414 -1.20439,-6.56334 -0.0161,-2.31664 0.0927,-4.72792 -0.47835,-6.97434 -0.53548,-1.47707 1.35766,-2.31265 1.8931,-0.83554 z"
       inkscape:connector-curvature="0" />
    <path
       style="fill:#000000;fill-opacity:1;fill-rule:nonzero;stroke:none"
       id="path4602"
       d="m 786.73363,262.25473 c 0,2.75488 0,5.50973 0,8.26459 0,3.21054 0,6.42108 0,9.63162 0,0.78929 0,1.57862 0,2.36794 0,0.10929 0.0635,0.41151 0,0.32768 -0.0772,-0.10185 -0.0336,-0.2629 -0.0505,-0.39436 -0.34918,-0.18842 -0.69835,-0.37682 -1.04755,-0.56523 -0.12183,0.0433 -0.24376,0.0865 -0.36565,0.12985 0.83057,-1.30035 2.49718,-0.005 1.66661,1.29613 l 0,0 c -0.25228,0.24741 -0.50454,0.49482 -0.75681,0.74222 -0.424,-0.16555 -0.91003,-0.20205 -1.27198,-0.49663 -0.44021,-0.35828 -0.13234,-2.90018 -0.21307,-3.40766 0,-3.21053 0,-6.42107 0,-9.63161 0,-2.75485 0,-5.50972 0,-8.26459 0,-1.59086 2.03895,-1.59086 2.03895,0 z"
       inkscape:connector-curvature="0" />
    <path
       style="fill:#000000;fill-opacity:1;fill-rule:nonzero;stroke:none"
       id="path4604"
       d="m 779.67525,272.62434 c 1.64415,-0.40649 3.33311,-0.51559 5.01117,-0.60808 1.7443,-0.0827 3.49044,-0.0869 5.23602,-0.0908 0.83283,-10e-4 1.66566,8e-5 2.49848,0.001 1.44177,0.003 1.43786,2.2529 -0.004,2.24986 l 0,0 c -0.83018,-10e-4 -1.66036,-10e-4 -2.49054,-10e-4 -1.7131,0.003 -3.42684,0.007 -5.13873,0.0879 -1.54566,0.0845 -3.10184,0.17941 -4.61801,0.54367 -1.3987,0.38585 -1.89323,-1.79681 -0.49451,-2.18265 z"
       inkscape:connector-curvature="0" />
    <path
       style="fill:#000000;fill-opacity:1;fill-rule:nonzero;stroke:none"
       id="path4606"
       d="m 734.705,293.50677 c 1.96114,4.82262 3.71362,9.70837 5.46106,14.59561 2.14953,6.12939 3.99309,12.34155 6.17266,18.46245 0.60466,1.53722 1.1277,3.10928 1.86329,4.60301 0.0131,0.0222 0.0246,0.0452 0.0376,0.0672 0.24782,0.41608 -1.00594,-0.28954 -1.52558,-0.36382 -0.0613,-0.008 -0.16847,0.14876 -0.15384,0.0946 0.0813,-0.30225 0.34774,-0.53814 0.51866,-0.80873 1.11029,-1.82623 2.01168,-3.7542 2.76863,-5.71804 1.59605,-4.60859 2.90296,-9.29414 4.20132,-13.97609 1.38823,-5.36423 3.05272,-10.66769 4.3983,-16.04068 0.31814,-1.536 0.79353,-3.04821 1.41627,-4.50751 0.38243,-1.34271 0.76047,1.4425 1.70036,0.8706 -0.01,0.0318 -0.0214,0.0636 -0.0325,0.0954 -0.57436,1.27964 -2.59341,0.55158 -2.01905,-0.72806 l 0,0 c 0.0528,-0.10974 0.10545,-0.21969 0.15828,-0.32952 0.91434,-1.11613 2.96079,-1.63893 2.22474,0.79016 -0.58817,1.36999 -1.02736,2.79345 -1.3248,4.23631 -1.35018,5.38725 -3.01624,10.7055 -4.40971,16.08387 -1.31444,4.73897 -2.63688,9.48196 -4.25744,14.14539 -0.80689,2.07307 -1.75099,4.11236 -2.93091,6.03954 -0.45455,0.71889 -1.61218,2.85387 -2.76275,0.8343 -0.76153,-1.55839 -1.32193,-3.19023 -1.94424,-4.79493 -2.17788,-6.1205 -4.02523,-12.33074 -6.17185,-18.46007 -1.75446,-4.90702 -3.51937,-9.81059 -5.48113,-14.655 -0.42276,-1.32622 1.6698,-1.86211 2.0926,-0.53588 z"
       inkscape:connector-curvature="0" />
    <path
       style="fill:#000000;fill-opacity:1;fill-rule:nonzero;stroke:none"
       id="path4608"
       d="m 760.40956,326.01718 c 0.74274,-0.16645 1.48546,-0.33288 2.22819,-0.49928 -0.13546,0.0726 0.2943,-0.0941 0.2306,-0.0517 -0.75066,0.49781 -1.11333,0.54777 -0.3923,1.43884 -1.48706,-0.2845 -2.54104,-0.0436 -3.90369,0.48376 -1.97764,1.03451 -3.15832,2.82703 -3.45919,4.82692 0.2343,1.97025 1.40342,2.28236 3.40363,2.01565 2.06405,-0.61977 3.83222,-1.86317 4.27064,-3.84411 0.01,-1.40492 -1.45717,-1.78432 -2.72762,-2.13753 -0.68098,-0.17413 -1.38828,-0.19995 -2.08519,-0.28188 -1.52341,-0.19512 -1.21554,-2.12613 0.30786,-1.93101 l 0,0 c 0.81952,0.0721 1.64009,0.15628 2.43683,0.35401 2.42389,0.70407 4.46664,1.90756 4.17808,4.47445 -0.12583,0.39664 -0.19629,0.81096 -0.37775,1.18991 -1.04289,2.178 -3.32985,3.49163 -5.77942,4.1165 -0.52808,0.0357 -1.0558,0.13773 -1.58429,0.10719 -2.8609,-0.16558 -4.11713,-1.99781 -4.19335,-4.36212 0.543,-2.8687 1.91481,-4.843 4.76268,-6.32463 1.87782,-0.69884 3.5375,-1.00112 5.53327,-0.5072 0.28273,0.17954 0.65592,0.28025 0.84818,0.53863 0.55944,0.75176 -0.0906,1.62074 -0.94113,1.7868 -0.74274,0.16644 -1.48545,0.33286 -2.22818,0.49928 -1.49294,0.33453 -2.02079,-1.55784 -0.52785,-1.89238 z"
       inkscape:connector-curvature="0" />
    <path
       style="fill:#000000;fill-opacity:1;fill-rule:nonzero;stroke:none"
       id="path4610"
       d="m 771.46278,326.9711 c -0.6111,1.86911 -0.92545,3.79448 -1.13505,5.7283 -0.0324,1.18777 0.0342,2.91114 1.70284,3.05862 2.0889,-0.18241 3.46712,-1.70367 4.55165,-3.16682 0.49143,-1.05139 1.55363,-2.3019 1.29795,-3.51452 -0.20454,-0.27406 0.12045,0.0719 0.24601,0.13599 0.8874,0.22506 -0.5057,-0.0641 1.50511,-1.02354 0.13918,-0.0664 0.0973,0.26904 0.15512,0.40047 0.19662,0.44628 0.42131,0.8858 0.65324,1.31813 0.74157,1.33765 1.6206,2.60535 2.53901,3.85001 0.47258,0.56615 0.85844,1.20019 1.38298,1.73119 1.00113,1.0475 -0.65167,2.31651 -1.65281,1.269 l 0,0 c -0.56837,-0.6053 -1.0398,-1.2782 -1.54602,-1.92495 -0.97254,-1.32076 -1.90403,-2.66635 -2.68781,-4.0861 -0.36506,-0.69156 -2.00115,-3.62685 0.46812,-3.34219 0.64963,0.30038 0.97232,0.81521 1.09999,1.45661 0.16013,1.73702 -0.75679,3.33522 -1.65956,4.82446 -1.65668,2.15562 -3.78239,4.1347 -6.9394,3.95072 -0.40064,-0.12515 -0.83267,-0.18835 -1.20195,-0.37566 -1.88619,-0.95683 -2.14383,-3.01775 -2.0805,-4.75111 0.21888,-1.99765 0.53503,-3.99013 1.16697,-5.9212 0.3018,-1.35254 2.43587,-0.96998 2.13404,0.38254 z"
       inkscape:connector-curvature="0" />
    <path
       style="fill:#000000;fill-opacity:1;fill-rule:nonzero;stroke:none"
       id="path4612"
       d="m 791.21181,318.66299 c 0.49065,2.81965 0.51261,5.6912 0.58922,8.5391 -0.008,2.69143 0.29779,5.37335 0.60669,8.04755 0.0226,0.18655 0.0449,0.37311 0.0679,0.5596 0.0415,0.3347 0.10301,0.777 0.10301,0.777 -2.19845,0.0339 -2.16152,0.51666 -2.14205,-0.24725 0.0602,-1.37825 2.23486,-1.30192 2.17465,0.0763 l 0,0 c -0.047,0.89102 0.0743,0.42407 -2.19136,0.41824 -0.0213,-6e-5 -0.0738,-0.53888 -0.10791,-0.81327 -0.0236,-0.18992 -0.0462,-0.3799 -0.0694,-0.56983 -0.31466,-2.72536 -0.62225,-5.45858 -0.61761,-8.20141 -0.0726,-2.70571 -0.10165,-5.42937 -0.52488,-8.11298 -0.37321,-1.33814 1.7381,-1.81122 2.11134,-0.47311 z"
       inkscape:connector-curvature="0" />
    <path
       style="fill:#000000;fill-opacity:1;fill-rule:nonzero;stroke:none"
       id="path4614"
       d="m 785.21177,327.95761 c 2.58143,-0.33398 5.11908,-0.8406 7.6389,-1.43672 1.67538,-0.25892 3.3377,-1.04552 5.0638,-0.84474 0.89629,0.47701 0.56504,0.17729 1.06379,0.83241 0.7265,1.21591 -1.19202,2.13679 -1.91852,0.92088 l 0,0 c 0.2196,0.14666 0.0729,0.0696 0.47431,0.16732 -1.23072,-0.18724 -2.88177,0.75468 -4.12812,0.81023 -2.56227,0.60583 -5.1425,1.12406 -7.76734,1.46341 -1.50902,0.27048 -1.93583,-1.64228 -0.42682,-1.91278 z"
       inkscape:connector-curvature="0" />
    <path
       style="fill:#000000;fill-opacity:1;fill-rule:nonzero;stroke:none"
       id="path4618"
       d="m 283.44526,126.67609 c -0.28391,5.65255 -0.59863,11.30535 -0.80502,16.96181 -0.24046,7.23688 -0.38115,14.4757 -0.49992,21.71454 -0.0242,1.52664 -0.0461,3.05332 -0.0657,4.58 -0.003,0.24049 0.31469,0.80032 0.0431,0.72059 -0.63591,-0.18664 -1.27244,-0.37175 -1.90868,-0.55762 -0.001,-0.0534 -0.003,-0.10697 -0.004,-0.16037 0.67763,-1.3195 2.91179,-0.51973 2.23414,0.79977 l 0,0 c -0.16171,0.25816 -0.32341,0.51634 -0.48512,0.7745 -0.72707,-0.1078 -1.51019,-0.0659 -2.18122,-0.32318 -0.20929,-0.0803 -0.1174,-0.37394 -0.13654,-0.56562 -0.17576,-1.75131 0.23427,-3.54334 0.0748,-5.29526 0.11904,-7.25018 0.25998,-14.50034 0.50084,-21.74857 0.20599,-5.64308 0.51838,-11.28263 0.80404,-16.92171 0.0184,-1.43549 2.44928,-1.41437 2.43085,0.0212 z"
       inkscape:connector-curvature="0" />
    <path
       style="fill:#000000;fill-opacity:1;fill-rule:nonzero;stroke:none"
       id="path4620"
       d="m 280.27784,127.09705 c 3.46591,0.0358 6.9262,-0.20938 10.3898,-0.31625 4.85524,-0.24462 9.68663,0.14915 14.49353,0.66865 1.90403,0.21093 3.80902,0.41601 5.72145,0.5666 0.74817,0.0542 1.28285,-0.01 1.7195,0.88428 0.14566,0.29799 -0.18231,0.62554 -0.27349,0.93832 -0.98316,1.17784 -2.97729,0.0171 -1.99413,-1.16066 l 0,0 c -0.0299,0.23945 -0.23808,0.51188 -0.0899,0.71835 0.53456,0.74475 1.82097,0.7386 0.40889,0.64095 -1.94033,-0.15302 -3.87331,-0.36008 -5.8051,-0.57442 -4.6738,-0.50534 -9.37063,-0.89444 -14.09182,-0.65325 -3.50182,0.10779 -7.00041,0.35528 -10.50476,0.31754 -1.71888,-0.0149 -1.69283,-2.04505 0.026,-2.03011 z"
       inkscape:connector-curvature="0" />
    <path
       style="fill:#000000;fill-opacity:1;fill-rule:nonzero;stroke:none"
       id="path4622"
       d="m 280.12309,146.72221 c 3.60535,0.0811 7.20345,0.0378 10.80578,-0.0973 3.97271,-0.23126 7.93061,-0.29376 11.89956,-0.0294 1.18325,0.096 2.37002,0.18149 3.54448,0.33908 0.46249,0.0577 0.21012,-0.0299 1.24618,0.36528 0.13714,0.19871 0.27427,0.39741 0.41139,0.59612 0.59339,1.34719 -1.68817,2.04859 -2.28156,0.70142 l 0,0 c 0.0805,0.07 0.16089,0.13998 0.24131,0.20997 1.40903,0.37015 0.36249,0.12177 -0.006,0.1315 -1.10973,-0.15077 -2.23255,-0.22606 -3.35042,-0.31957 -3.86839,-0.25878 -7.72483,-0.19081 -11.59706,0.034 -3.647,0.13642 -7.28995,0.18087 -10.93996,0.0992 -1.71887,-0.0149 -1.69285,-2.04505 0.026,-2.0301 z"
       inkscape:connector-curvature="0" />
    <path
       style="fill:#000000;fill-opacity:1;fill-rule:nonzero;stroke:none"
       id="path4624"
       d="m 300.8525,164.23767 c 0.45287,1.68836 0.8999,3.36767 1.1687,5.08641 0.19659,1.40964 0.25378,2.82918 0.2753,4.2472 0.003,0.36711 0.003,0.19892 4.5e-4,0.50459 -0.007,1.43555 -2.43849,1.42732 -2.43099,-0.008 l 0,0 c 0.001,-0.28257 0.001,-0.12588 -8.9e-4,-0.47018 -0.0199,-1.33906 -0.0721,-2.67967 -0.25521,-4.01104 -0.2553,-1.64844 -0.68672,-3.25802 -1.12258,-4.87687 -0.39903,-1.39625 1.96557,-1.86814 2.36461,-0.47188 z"
       inkscape:connector-curvature="0" />
    <path
       style="fill:#000000;fill-opacity:1;fill-rule:nonzero;stroke:none"
       id="path4630"
       d="m 299.32738,156.7799 c 0.19851,0.69462 0.39704,1.38925 0.59553,2.08389 0.0301,0.10547 0.0604,0.21107 0.0905,0.3166 0.39901,1.39628 -1.96558,1.86815 -2.3646,0.47189 l 0,0 c -0.0301,-0.10546 -0.0603,-0.21108 -0.0905,-0.31662 -0.19852,-0.69463 -0.39703,-1.38926 -0.59554,-2.08388 -0.39904,-1.39626 1.96556,-1.86815 2.36458,-0.47188 z"
       inkscape:connector-curvature="0" />
    <path
       style="fill:#000000;fill-opacity:1;fill-rule:nonzero;stroke:none"
       id="path4634"
       d="m 308.08025,164.62762 c 0.26593,2.1135 0.46811,4.22669 0.80081,6.33395 0.21896,1.43125 0.42885,2.86348 0.62514,4.29703 0.13998,1.0652 0.22313,0.45584 -2.3746,0.34182 -0.0682,-1.0835 0.22068,-2.14518 0.41541,-3.21044 0.19103,-1.73384 0.6121,-3.43759 0.97756,-5.14974 0.10618,-0.99037 0.46014,-1.80708 1.3706,-2.45892 0.74342,-0.45226 1.64622,-0.56862 2.44976,-0.89517 0.39889,-0.16217 0.79774,-0.32439 1.19651,-0.48671 0.57543,-0.17372 1.17751,-0.1407 1.77751,-0.13492 0.84303,-0.004 1.66047,-0.01 2.482,0.15164 0.55132,0.16855 1.08525,0.37433 1.60771,0.59728 0.85973,0.36551 0.82773,1.12234 0.82678,1.78436 -0.012,0.69523 -0.026,1.39045 -0.0383,2.08568 -0.0157,0.95015 -0.0278,1.90032 -0.0399,2.8505 -0.0135,1.04808 -0.0269,2.09614 -0.0404,3.14421 0.086,0.5026 -0.21617,1.16942 0.15185,1.63468 0.0631,0.0799 -0.0829,-0.18143 -0.15373,-0.25645 1.55091,0.61867 0.50257,2.45067 -1.04834,1.832 l 0,0 c -1.54022,-0.89948 -1.41801,-1.78565 -1.38064,-3.2313 0.0135,-1.04824 0.0268,-2.09649 0.0404,-3.14472 0.012,-0.95229 0.0248,-1.9046 0.0401,-2.85687 0.012,-0.68709 0.0257,-1.37414 0.038,-2.0612 0.003,-0.66541 0.0399,-0.34597 0.49606,0.0264 -0.40189,-0.17216 -0.81265,-0.33025 -1.23287,-0.46875 -0.42304,-0.0503 -1.21138,-0.056 -1.77786,-0.0574 -0.12861,-9.4e-4 -1.19507,0.0577 -0.68379,-0.0703 -0.39924,0.16251 -0.79854,0.32492 -1.19786,0.48726 -0.63887,0.25962 -1.2929,0.42814 -1.95568,0.62822 -0.47707,0.31301 -0.43471,0.73674 -0.5346,1.25611 -0.36203,1.69581 -0.78063,3.38244 -0.96771,5.10001 -0.17451,0.95334 -0.44959,1.89825 -0.38794,2.86745 -2.58792,0.31134 -2.33404,0.94288 -2.47126,-0.0736 -0.1947,-1.42198 -0.40293,-2.84266 -0.62001,-4.26235 -0.3475,-2.20192 -0.5683,-4.41042 -0.82154,-6.62101 0.0184,-1.43549 2.44927,-1.41436 2.43087,0.0212 z"
       inkscape:connector-curvature="0" />
    <path
       style="fill:#000000;fill-opacity:1;fill-rule:nonzero;stroke:none"
       id="path4636"
       d="m 283.46777,189.36995 c 1.57097,3.35308 2.84434,6.77419 4.23498,10.1671 2.02291,4.98253 4.23083,9.92697 6.57199,14.83734 1.15936,2.31738 2.58655,4.56189 4.05111,6.78741 0.005,0.0935 0.72143,0.95628 0.39809,0.61697 -0.64334,8.9e-4 -1.28896,0.0424 -1.93001,0.003 -0.059,-0.003 0.0588,-0.0749 0.0721,-0.11625 0.0243,-0.0756 0.0266,-0.15397 0.04,-0.23096 0.0721,-0.23168 0.13994,-0.46407 0.2163,-0.69507 0.57299,-1.73318 0.1283,-0.22175 0.67515,-2.20328 1.33625,-4.80456 2.49968,-9.63176 3.46474,-14.48139 0.98206,-5.31786 2.04265,-10.63449 3.7558,-15.85998 0.45248,-1.12491 0.74789,-2.30068 1.39731,-3.38177 1.80155,-1.65715 2.46051,0.19492 2.41543,0.9424 -10e-4,0.0724 -0.0176,0.14401 -0.0316,0.21558 -0.3018,1.22808 -2.72776,0.92253 -2.42598,-0.30557 l 0,0 c -0.008,0.025 -0.0109,0.0622 -0.003,0.009 0.0448,-0.87625 0.76207,0.0483 2.29999,-0.15134 -0.62694,0.96755 -0.79099,2.07139 -1.25415,3.07505 -1.69888,5.17406 -2.7397,10.44013 -3.71518,15.70562 -0.97242,4.88105 -2.14157,9.73987 -3.48713,14.57562 -0.06,0.21601 -1.075,3.75975 -1.30475,3.80642 -0.67874,0.13794 -1.39821,0.13606 -2.09731,0.20408 -0.29513,-0.30232 -0.48172,-0.64931 -0.71412,-0.97698 -1.50324,-2.28481 -2.96643,-4.58958 -4.15395,-6.96932 -2.35225,-4.9347 -4.57169,-9.90333 -6.60441,-14.91047 -1.36853,-3.33946 -2.62739,-6.70492 -4.15843,-10.00863 -0.64687,-1.15778 1.64017,-1.81271 2.28706,-0.65494 z"
       inkscape:connector-curvature="0" />
    <path
       style="fill:#000000;fill-opacity:1;fill-rule:nonzero;stroke:none"
       id="path4642"
       d="m 309.69534,213.51394 c 0.47605,1.6502 0.56954,3.33874 0.66623,5.01727 -0.0281,1.42507 0.27214,2.87397 -0.0169,4.28974 -0.12898,0.43189 -0.39953,0.80544 -0.78397,1.14418 -1.14382,0.94039 -3.00148,-0.21767 -1.85766,-1.15807 l 0,0 c 0.0514,-0.0495 0.21397,-0.18313 0.21364,-0.28333 0.39875,-1.25924 -0.18235,-2.64473 -0.0161,-3.92002 -0.0894,-1.5591 -0.17138,-3.127 -0.59475,-4.66208 -0.42245,-1.20972 1.96724,-1.63741 2.38969,-0.42769 z"
       inkscape:connector-curvature="0" />
    <path
       style="fill:#000000;fill-opacity:1;fill-rule:nonzero;stroke:none"
       id="path4644"
       d="m 309.09386,206.78323 c 0.84064,0.15045 1.68129,0.30092 2.52193,0.45138 0.13048,0.0233 0.26088,0.0467 0.39131,0.07 -0.26787,2.3095 -0.10848,1.5884 -0.97994,1.76386 -0.52913,0.33647 -1.25647,0.69399 -1.86002,1.04289 -0.2525,0.14814 -0.50462,0.29676 -0.74905,0.4517 -1.52549,-1.36307 -2.1888,-1.09455 -0.94402,-1.69014 1.50334,-0.62973 2.7473,0.89232 1.24398,1.52207 l 0,0 c -0.62247,0.32695 -2.64521,-0.59894 -1.94411,-1.14505 0.27656,-0.1749 0.5601,-0.34402 0.84618,-0.51087 0.85042,-0.49115 1.71816,-0.97099 2.67392,-1.35416 1.7357,-0.27892 1.34887,-0.17955 1.11565,1.63052 -0.13049,-0.0233 -0.26088,-0.0467 -0.39132,-0.07 -0.84064,-0.15046 -1.6813,-0.30091 -2.52194,-0.45138 -1.68976,-0.30241 -1.09234,-2.01323 0.59743,-1.71081 z"
       inkscape:connector-curvature="0" />
    <path
       style="fill:#000000;fill-opacity:1;fill-rule:nonzero;stroke:none"
       id="path4648"
       d="m 317.90611,211.75048 c 0.51407,1.88037 0.57289,3.8056 0.66651,5.71481 0.0735,1.81014 0.0921,3.62109 0.0985,5.43187 6e-5,0.38756 0.001,0.77513 -0.004,1.16268 -2.7913,2.15463 -2.46557,-0.94629 -2.46557,-1.42083 -0.11572,-1.68672 0.26581,-3.33755 0.86931,-4.96069 0.77127,-1.59346 1.79854,-3.14821 3.17124,-4.52308 0.50525,-0.4937 1.12097,-0.91827 1.75436,-1.32591 0.3397,-0.22493 0.6752,-0.45308 1.00922,-0.68233 0.66501,-0.47914 1.48453,-0.37488 2.22647,-0.0614 1.13266,0.45522 1.59447,1.35844 2.04892,2.17313 0.74929,1.49004 1.36706,3.01216 2.13319,4.49756 0.64311,1.08495 0.93636,2.33411 1.86645,3.3249 0.215,0.24299 0.40829,0.21302 0.76425,0.27004 1.68487,0.31612 1.06041,2.02198 -0.62447,1.70586 l 0,0 c -0.91272,-0.18319 -1.71741,-0.44218 -2.23345,-1.04686 -0.94063,-1.13384 -1.46609,-2.40959 -2.0844,-3.64485 -0.75445,-1.47189 -1.37844,-2.97576 -2.10975,-4.45374 -0.24894,-0.44811 -0.49078,-1.09533 -1.01586,-1.30868 -0.43015,-0.18287 -0.34363,-0.11537 0.37447,-0.0409 0.18295,0.0189 0.30506,-0.15011 0.46559,-0.21574 0.043,-0.0175 -0.18837,0.1122 -0.10684,0.0737 -0.35332,0.24248 -0.70815,0.48385 -1.06797,0.72138 -0.50239,0.32259 -0.99703,0.65448 -1.4009,1.04394 -1.21197,1.19559 -2.08805,2.56751 -2.7917,3.95054 -0.55848,1.47282 -0.89516,2.97125 -0.78494,4.50318 -3e-5,1.54436 0.56083,1.19975 -2.46067,1.39627 0.005,-0.37785 0.004,-0.75575 0.004,-1.13364 -0.007,-1.79168 -0.0246,-3.58354 -0.0971,-5.37459 -0.0873,-1.78637 -0.1399,-3.58659 -0.59446,-5.34888 -0.42243,-1.20974 1.96724,-1.63745 2.38969,-0.42771 z"
       inkscape:connector-curvature="0" />
    <path
       style="fill:#000000;fill-opacity:1;fill-rule:nonzero;stroke:none"
       id="path4650"
       d="m 661.66202,264.28509 c 6.887,0.96035 13.8858,0.89168 20.82589,1.00787 10.68342,0.025 21.35246,0.0939 32.01482,0.80134 2.55719,0.23333 5.13472,0.34241 7.67627,0.73006 0.0645,0.0124 0.56251,0.10095 0.55714,0.13873 -1.31862,9.27675 -1.06313,1.62688 -0.99886,-0.12072 -0.1108,0.1793 0.18978,-0.0734 0.18965,-0.0101 -0.009,4.31958 0.95655,4.66151 -1.96677,3.87316 -2.5729,-1.06791 -4.85325,-2.71656 -7.06637,-4.38137 -2.44464,-1.91042 -4.81007,-3.91762 -7.32933,-5.73146 -0.47664,-0.33895 -1.01659,-0.71045 -1.49893,-1.00272 1.94499,-3.37041 1.11954,-4.636 4.10559,-2.84666 3.01212,2.04942 6.06592,4.0303 9.26259,5.78064 2.81587,1.79246 6.07321,2.75915 8.75515,4.75473 0.8477,0.67961 1.55301,1.4587 1.90026,2.4938 -0.44316,2.64098 -1.16682,2.39211 -3.05351,2.79847 -1.89427,0.57535 -3.66666,1.51438 -5.47669,2.31431 -2.72449,1.36519 -5.4006,2.83533 -7.87287,4.62092 -0.78389,0.60749 -1.58348,1.20788 -2.27798,1.91907 0.80149,-0.61875 -1.509,0.76904 -2.14584,0.78357 -2.95577,0.0296 -2.9976,-4.15051 -0.0418,-4.18009 l 0,0 c 1.08781,0.0253 -2.02383,1.58769 -0.85873,0.53393 0.87154,-0.91429 1.88512,-1.68066 2.88262,-2.44953 2.71358,-1.94663 5.6339,-3.57759 8.62834,-5.05297 2.02214,-0.88897 3.99886,-1.93893 6.13048,-2.54 0.73392,-0.13062 3.05794,-0.70163 0.59416,0.26297 -5.5e-4,2.2e-4 -1.6e-4,10e-4 -2.4e-4,0.002 -0.18711,0.6699 -0.37422,1.3398 -0.56134,2.0097 0.31735,0.84744 0.0779,0.0756 -0.37309,-0.18529 -2.45946,-1.92352 -5.68392,-2.62205 -8.2404,-4.42081 -3.30713,-1.81947 -6.47792,-3.85741 -9.59534,-5.98404 -0.0376,-0.0621 0.21322,-0.15463 0.14147,-0.16552 -2.63594,-0.4001 -1.93343,0.17444 -0.0798,-4.20614 0.0252,-0.0595 0.11618,0.0566 0.17427,0.0849 0.6793,0.37817 1.30473,0.84553 1.94542,1.28341 2.54254,1.83315 4.93688,3.85209 7.40207,5.78508 1.93416,1.4616 3.92416,2.92898 6.17444,3.86766 -1.2119,0.008 0.0436,-0.006 0.044,-0.004 0.76208,4.20645 1.88822,4.08412 0.33622,4.16715 -0.3437,-3.39845 -0.4456,-7.624 -0.63278,-0.11593 -0.002,0.072 0.36545,0.0858 0.20885,0.0551 -2.41976,-0.38045 -4.88115,-0.45126 -7.31518,-0.69026 -10.59343,-0.70403 -21.19351,-0.76526 -31.80788,-0.79274 -7.25424,-0.12169 -14.58243,-0.0289 -21.76973,-1.1321 -2.86766,-0.71692 -1.85379,-4.77241 1.01388,-4.05549 z"
       inkscape:connector-curvature="0" />
    <path
       inkscape:connector-curvature="0"
       d="m 380.55799,173.27543 c -6.38141,-0.75341 -12.81674,-0.99243 -19.2274,-1.43103 -8.04257,-0.34269 -16.05733,-0.9984 -24.05294,-1.92081 -1.59195,-0.22587 -3.20292,-0.3516 -4.78383,-0.65452 -0.0647,-0.0156 -0.26026,-0.053 -0.194,-0.0469 1.16737,0.10689 -0.62654,0.075 -0.86532,0.0759 -0.71384,0.003 -1.42769,0.003 -2.14154,0.004 -0.15197,1.8e-4 -0.30394,2.2e-4 -0.45591,2.6e-4 -0.003,0 -0.006,-1e-5 -0.008,-1e-5 0.13896,-1.39351 0.17164,-2.80174 0.41687,-4.18052 0.0191,-0.10722 0.43212,0.0273 0.32671,-8e-5 -0.85292,-0.22147 0.25889,-0.2791 0.74084,-0.54972 2.52713,-1.46524 5.35675,-2.20807 7.99802,-3.41987 1.88778,-0.97926 3.83673,-1.83741 5.81357,-2.61975 1.00362,-0.22925 1.93846,-0.99005 2.92358,-1.67452 0.73826,-0.61969 1.45604,-1.01879 2.34105,-1.38981 -0.89249,0.4127 -0.28713,-0.0948 -0.0831,-0.37671 0.0264,-0.0468 -0.0461,0.097 -0.0704,0.14493 1.17124,-2.71398 5.00938,-1.05759 3.83814,1.65639 l 0,0 c -0.1021,0.21742 -0.21875,0.42644 -0.36076,0.62089 -0.62606,0.87251 -1.31592,1.62074 -2.35375,2.02068 1.36714,-0.79148 -0.70598,0.54173 -0.92735,0.75761 -1.16707,0.80952 -2.38957,1.73869 -3.77024,2.12796 -1.91236,0.75549 -3.79453,1.591 -5.62038,2.53769 -2.56853,1.15919 -5.29381,1.90369 -7.7536,3.29896 -3.45218,1.80006 -3.19899,1.83611 -3.44832,-3.13443 0.14972,-3e-5 0.29944,-7e-5 0.44917,-2.5e-4 0.71007,-7.1e-4 1.42014,-0.001 2.1302,-0.004 0.56287,-0.002 1.60444,-0.0247 1.87755,0.0488 1.47729,0.26283 2.97381,0.40634 4.46032,0.60428 7.93117,0.91551 15.88121,1.56354 23.85906,1.90301 6.58928,0.45082 13.20783,0.67887 19.76188,1.50246 2.89852,0.5797 2.0787,4.67883 -0.81982,4.09912 z"
       id="path6187"
       style="fill:#000000;fill-opacity:1;fill-rule:nonzero;stroke:none" />
    <path
       inkscape:connector-curvature="0"
       d="m 333.61563,167.62775 c 2.52715,2.71956 5.48462,4.96454 8.42271,7.21242 2.48601,1.64794 4.83834,3.49382 7.06768,5.4737 0.36996,0.32675 0.72655,0.66543 1.03063,1.05442 1.71608,2.40677 -1.68761,4.83368 -3.40369,2.42689 l 0,0 c 0.0407,0.0501 0.16791,0.19581 0.12443,0.14818 -0.16442,-0.18011 -0.35361,-0.33625 -0.52872,-0.50518 -2.15103,-1.91419 -4.43101,-3.68539 -6.83055,-5.27803 -3.08423,-2.35997 -6.18047,-4.72713 -8.83841,-7.57648 -2.09016,-2.09015 0.86577,-5.04608 2.95592,-2.95592 z"
       id="path6189"
       style="fill:#000000;fill-opacity:1;fill-rule:nonzero;stroke:none" />
    <path
       style="fill:#000000;fill-opacity:1;fill-rule:nonzero;stroke:none"
       id="path6191"
       d="m 395.16501,169.02916 c 0.75507,4.37529 0.94329,8.82065 1.10912,13.24937 0.14201,4.36589 0.15932,8.73437 0.16748,13.10214 0.002,3.19227 -0.003,6.38454 -0.006,9.5768 0.003,3.32885 0.62546,2.24802 -4.05772,3.13538 -1.50749,-2.54262 2.08832,-4.67454 3.59581,-2.13191 l 0,0 c -4.59608,1.64395 -3.66204,2.20837 -3.71839,-1.00812 0.004,-3.18812 0.008,-6.37623 0.006,-9.56435 -0.008,-4.31836 -0.0248,-8.63742 -0.16457,-12.95393 -0.15665,-4.20609 -0.32946,-8.4279 -1.03085,-12.58555 -0.57971,-2.89853 3.51942,-3.71835 4.09912,-0.81983 z"
       inkscape:connector-curvature="0" />
    <path
       inkscape:connector-curvature="0"
       d="m 663.05546,293.54723 c 6.887,0.96035 13.8858,0.89168 20.82589,1.00787 10.68342,0.025 21.35246,0.0939 32.01482,0.80134 2.55719,0.23333 5.13472,0.34241 7.67627,0.73006 0.0645,0.0124 0.56251,0.10095 0.55714,0.13873 -1.31862,9.27675 -1.06313,1.62688 -0.99886,-0.12072 -0.1108,0.1793 0.18978,-0.0734 0.18965,-0.0101 -0.009,4.31958 0.95655,4.66151 -1.96677,3.87316 -2.5729,-1.06791 -4.85325,-2.71656 -7.06637,-4.38137 -2.44464,-1.91042 -4.81007,-3.91762 -7.32933,-5.73146 -0.47664,-0.33895 -1.01659,-0.71045 -1.49893,-1.00272 1.94499,-3.37041 1.11954,-4.636 4.10559,-2.84666 3.01212,2.04942 6.06592,4.0303 9.26259,5.78064 2.81587,1.79246 6.07321,2.75915 8.75515,4.75473 0.8477,0.67961 1.55301,1.4587 1.90026,2.4938 -0.44316,2.64098 -1.16682,2.39211 -3.05351,2.79847 -1.89427,0.57535 -3.66666,1.51438 -5.47669,2.31431 -2.72449,1.36519 -5.4006,2.83533 -7.87287,4.62092 -0.78389,0.60749 -1.58348,1.20788 -2.27798,1.91907 0.80149,-0.61875 -1.509,0.76904 -2.14584,0.78357 -2.95577,0.0296 -2.9976,-4.15051 -0.0418,-4.18009 l 0,0 c 1.08781,0.0253 -2.02383,1.58769 -0.85873,0.53393 0.87154,-0.91429 1.88512,-1.68066 2.88262,-2.44953 2.71358,-1.94663 5.6339,-3.57759 8.62834,-5.05297 2.02214,-0.88897 3.99886,-1.93893 6.13048,-2.54 0.73392,-0.13062 3.05794,-0.70163 0.59416,0.26297 -5.5e-4,2.2e-4 -1.6e-4,10e-4 -2.4e-4,0.002 -0.18711,0.6699 -0.37422,1.3398 -0.56134,2.0097 0.31735,0.84744 0.0779,0.0756 -0.37309,-0.18529 -2.45946,-1.92352 -5.68392,-2.62205 -8.2404,-4.42081 -3.30713,-1.81947 -6.47792,-3.85741 -9.59534,-5.98404 -0.0376,-0.0621 0.21322,-0.15463 0.14147,-0.16552 -2.63594,-0.4001 -1.93343,0.17444 -0.0798,-4.20614 0.0252,-0.0595 0.11618,0.0566 0.17427,0.0849 0.6793,0.37817 1.30473,0.84553 1.94542,1.28341 2.54254,1.83315 4.93688,3.85209 7.40207,5.78508 1.93416,1.4616 3.92416,2.92898 6.17444,3.86766 -1.2119,0.008 0.0436,-0.006 0.044,-0.004 0.76208,4.20645 1.88822,4.08412 0.33622,4.16715 -0.3437,-3.39845 -0.4456,-7.624 -0.63278,-0.11593 -0.002,0.072 0.36545,0.0858 0.20885,0.0551 -2.41976,-0.38045 -4.88115,-0.45126 -7.31518,-0.69026 -10.59343,-0.70403 -21.19351,-0.76526 -31.80788,-0.79274 -7.25424,-0.12169 -14.58243,-0.0289 -21.76973,-1.1321 -2.86766,-0.71692 -1.85379,-4.77241 1.01388,-4.05549 z"
       id="path6193"
       style="fill:#000000;fill-opacity:1;fill-rule:nonzero;stroke:none" />
  </g>
</svg>
