<?xml version="1.0" encoding="UTF-8" standalone="no"?>
<!-- Created with Inkscape (http://www.inkscape.org/) -->

<svg
   xmlns:dc="http://purl.org/dc/elements/1.1/"
   xmlns:cc="http://creativecommons.org/ns#"
   xmlns:rdf="http://www.w3.org/1999/02/22-rdf-syntax-ns#"
   xmlns:svg="http://www.w3.org/2000/svg"
   xmlns="http://www.w3.org/2000/svg"
   xmlns:sodipodi="http://sodipodi.sourceforge.net/DTD/sodipodi-0.dtd"
   xmlns:inkscape="http://www.inkscape.org/namespaces/inkscape"
   width="843.93597"
   height="391.10779"
   id="svg5941"
   version="1.1"
   inkscape:version="0.48.0 r9654"
   sodipodi:docname="RimlessSmoothAndCollision.svg">
  <defs
     id="defs5943" />
  <sodipodi:namedview
     inkscape:document-units="mm"
     pagecolor="#ffffff"
     bordercolor="#666666"
     borderopacity="1.0"
     inkscape:pageopacity="0.0"
     inkscape:pageshadow="2"
     inkscape:zoom="0.7176508"
     inkscape:cx="433.87261"
     inkscape:cy="132.68023"
     inkscape:current-layer="layer1"
     id="namedview5945"
     showgrid="false"
     inkscape:window-width="1280"
     inkscape:window-height="752"
     inkscape:window-x="0"
     inkscape:window-y="0"
     inkscape:window-maximized="1"
     fit-margin-top="0"
     fit-margin-left="0"
     fit-margin-right="0"
     fit-margin-bottom="0" />
  <metadata
     id="metadata5947">
    <rdf:RDF>
      <cc:Work
         rdf:about="">
        <dc:format>image/svg+xml</dc:format>
        <dc:type
           rdf:resource="http://purl.org/dc/dcmitype/StillImage" />
        <dc:title />
      </cc:Work>
    </rdf:RDF>
  </metadata>
  <g
     inkscape:label="Layer 1"
     inkscape:groupmode="layer"
     id="layer1"
     transform="translate(-339.57726,-113.61966)">
    <path
       style="fill:none;stroke:#b4b4b4;stroke-width:21.25984192;stroke-linecap:butt;stroke-linejoin:miter;stroke-miterlimit:4;stroke-opacity:1;stroke-dasharray:none"
       d="M 408.94044,416.46527 707.47591,261.86668"
       id="path3816"
       inkscape:connector-curvature="0"
       sodipodi:nodetypes="cc" />
    <path
       style="fill:#000000;fill-opacity:1;fill-rule:nonzero;stroke:none"
       id="path6478"
       d="m 401.56819,405.63206 c 17.93142,-10.63296 36.56118,-20.02837 55.17666,-29.39011 35.86828,-17.50106 71.59558,-35.27628 107.12209,-53.46122 34.28219,-17.8244 68.4514,-35.85865 102.38045,-54.34639 11.23216,-6.16039 22.39491,-12.44296 33.50974,-18.8118 2.56474,-1.46955 4.64302,2.15751 2.07829,3.62708 l 0,0 c -11.14084,6.38345 -22.32942,12.68098 -33.58787,18.85546 -33.96067,18.5049 -68.16173,36.5559 -102.47587,54.3968 -35.53543,18.18936 -71.27131,35.96967 -107.14872,53.47474 -18.52231,9.31442 -37.05976,18.66098 -54.90224,29.23896 -2.53392,1.52206 -4.68646,-2.06146 -2.15253,-3.58352 z"
       inkscape:connector-curvature="0" />
    <path
       style="fill:#000000;fill-opacity:1;fill-rule:nonzero;stroke:none"
       id="path6506"
       d="m 563.44709,322.86697 c -10.42765,-8.91633 -20.87156,-17.81145 -31.249,-26.78738 -22.77569,-19.38244 -44.76156,-39.66047 -66.5654,-60.12152 -10.74986,-10.01223 -21.03212,-20.52083 -32.22409,-30.04769 -1.77036,-1.39322 -3.42275,-2.95673 -5.27657,-4.24466 3.73891,-3.67379 3.18965,-4.06893 2.44145,0.45697 -2.33319,1.81486 -4.89978,-1.48477 -2.5666,-3.29963 l 0,0 c -0.0488,8.16164 -0.7975,-2.68873 2.52567,-0.5797 1.9515,1.37684 3.72763,2.98947 5.58597,4.48406 11.24157,9.57264 21.58061,20.11864 32.37474,30.18233 21.76255,20.42253 43.70656,40.66263 66.43954,60.00815 10.44383,9.03337 20.96186,17.97649 31.44265,26.96583 2.10946,2.07066 -0.8189,5.05389 -2.92836,2.98324 z"
       inkscape:connector-curvature="0" />
    <path
       style="fill:#000000;fill-opacity:1;fill-rule:nonzero;stroke:none"
       id="path6510"
       d="m 417.2979,194.68413 c 0.71381,-1.21595 1.57041,-2.34813 2.43746,-3.4673 2.26499,-2.99694 5.42197,-2.84091 8.26557,-1.72849 2.00926,0.9652 3.66898,2.38628 5.09131,4.03266 0.73832,0.91299 1.2766,1.94102 1.68697,3.02978 1.19037,3.02898 -0.16635,5.40722 -2.46449,7.41791 -1.2631,0.89003 -2.70455,1.45284 -4.15076,1.97686 -2.2257,0.87103 -4.51894,0.61701 -6.64997,-0.20353 -1.02515,-0.31626 0.61938,0.23181 0.4616,0.18109 -1.2861,-0.41348 -2.27635,-0.82175 -3.31915,-1.62574 -1.00059,-0.89942 0.62644,0.5207 -0.12295,-0.0441 -0.44488,-0.3353 -0.8818,-0.68019 -1.32271,-1.02027 -0.82111,-0.81832 -1.36941,-1.80829 -1.78899,-2.86857 -0.0445,-0.12347 -0.1137,-0.24021 -0.13523,-0.36978 -0.24238,-1.47732 -0.23659,-2.20714 -0.1716,-3.52159 0.004,-0.0855 -0.0206,0.17044 -0.0307,0.25566 0.0966,-1.82125 0.60724,-3.50615 1.61741,-5.07608 0.9036,-1.39595 2.32645,-2.26616 3.86726,-2.85884 0.40867,-0.15073 0.82156,-0.29018 1.23851,-0.41625 0.87548,-0.25339 -0.50175,0.17176 0.22934,-0.0776 0.12991,-0.0444 0.25983,-0.0889 0.38967,-0.1334 0.0462,-0.0161 0.17766,-0.061 0.26203,-0.0899 0.17278,-0.0592 0.34562,-0.1185 0.5184,-0.17784 0.23821,-0.0817 0.47645,-0.16333 0.71465,-0.24506 1.82968,0.34645 3.65937,0.6929 5.48904,1.03936 0.31602,0.3524 1.35334,1.31144 0.94803,1.0572 -0.62979,-0.39508 -1.16007,-0.93157 -1.63797,-1.49001 -0.20653,-0.24141 0.54657,0.33902 0.80979,0.52223 0.23148,0.16111 -0.47399,-0.30755 -0.71862,-0.44986 1.36161,0.4404 2.43769,1.2352 3.38303,2.2361 0.65924,0.6915 1.06087,1.55745 1.36427,2.44699 0.11521,0.34214 0.22947,0.6846 0.34279,1.02739 0.11794,0.34717 0.23691,0.69397 0.35585,1.04079 1.10495,2.84326 -0.33191,5.43389 -2.63262,6.94741 -2.02982,0.99607 -0.68366,1.07307 2.17306,-2.6998 0.30621,-0.40437 0.3051,-1.33809 0.2747,-1.87742 0.0853,1.31009 -0.24664,2.46177 -0.72297,3.65662 -0.12274,0.32199 -0.28127,0.62856 -0.44857,0.93159 0.75353,-10.75128 0.47937,-1.07223 0.447,-0.77955 -0.0695,0.62797 -0.67114,1.41784 -1.04134,1.95779 -0.76373,1.1688 -1.99846,1.92593 -3.28586,2.42563 -0.26487,0.10139 -0.53412,0.19052 -0.8062,0.27012 0.37614,-0.11397 -0.57626,0.205 -0.73115,0.25811 -0.18455,0.0632 -0.36913,0.12644 -0.55367,0.18976 -0.35094,0.12036 -0.7019,0.24072 -1.05284,0.36107 -0.18506,0.0635 -0.37011,0.12695 -0.55517,0.19043 -1.45768,0.4767 6.69343,0.41852 -4.36885,-0.25168 -6.9218,-3.22389 -1.92572,-12.80085 4.99608,-9.57697 l 0,0 c -2.11009,-0.0747 -5.39188,0.29681 -4.05093,-0.15534 0.18504,-0.0635 0.37006,-0.12692 0.55508,-0.19038 0.35034,-0.12016 0.7007,-0.24028 1.05105,-0.36045 0.18731,-0.0642 0.37464,-0.1284 0.56194,-0.1926 0.44457,-0.15215 0.8878,-0.30867 1.33705,-0.44654 -0.025,0.007 -0.20158,0.0505 -0.17896,0.056 -0.72804,0.38778 -1.51133,0.93592 -1.9791,1.66533 -0.13289,0.23144 -0.34228,0.59396 -0.35403,0.81651 -0.0239,0.45265 0.022,9.78967 0.49253,-1.28509 -0.0575,0.10443 -0.24097,0.43693 -0.26647,0.5208 0.26618,-0.65824 -0.12502,0.87739 0.0267,1.34883 -0.26948,-3.21198 0.74861,-3.15105 3.32101,-6.04543 0.0953,-0.10719 -0.61214,0.39004 -0.38339,0.20509 -0.4746,0.33067 -1.28583,0.85361 -1.43046,1.34178 -1.3916,4.6969 -0.17894,6.14454 -0.83765,4.29749 -0.13124,-0.38291 -0.2628,-0.76571 -0.39201,-1.14932 -0.10375,-0.3149 -0.20845,-0.62947 -0.3141,-0.94373 -0.23992,-0.71194 0.47422,0.9947 0.75797,1.13666 0.33068,0.32402 2.33967,1.14995 0.97412,0.61738 -2.59146,-0.96519 -1.13799,-0.66938 -3.59625,-2.40895 -0.31323,-0.22166 0.52397,0.55286 0.78598,0.82931 1.7722,0.29772 3.54442,0.59543 5.31663,0.89316 -0.23822,0.0817 -0.47644,0.16333 -0.71464,0.24505 -0.17269,0.0592 -0.34533,0.11845 -0.51802,0.17764 -0.0853,0.0292 -0.1705,0.0584 -0.25565,0.0878 -0.13924,0.0478 -0.27852,0.0955 -0.4179,0.14302 -0.23464,0.0799 -1.29093,0.39585 -0.63283,0.20644 -0.16121,0.0501 -0.32416,0.10372 -0.48361,0.16165 -0.19794,0.068 -0.08,0.0337 0.10296,-0.076 0.55014,-0.32995 1.07785,-0.74932 1.41702,-1.28732 0.21637,-0.41479 0.22588,-0.7489 0.37134,-1.21629 0.10208,-0.32805 -0.0932,1.33696 -0.17944,1.00969 -0.0678,-0.2571 0.026,-0.53417 0.039,-0.80125 -0.0247,1.11186 0.13001,2.98115 -0.39456,-0.0192 -0.007,-0.0421 0.0279,0.0806 0.0417,0.12089 -0.16917,-0.25063 -0.35639,-0.49284 -0.57549,-0.70392 -3.06951,-2.14855 1.42495,0.86184 0.68844,0.39145 -0.4952,-0.3439 -1.02812,-0.31603 -1.56438,-0.58385 -0.54793,-0.27362 2.95148,0.81392 1.79196,0.47554 -0.89072,-0.17209 -1.09603,0.007 -1.89121,0.19299 -0.13466,0.0315 0.26115,-0.0917 0.39202,-0.13654 0.13678,-0.0491 1.78124,-0.75168 1.12318,-0.33546 -1.69502,1.7397 -1.45681,2.66469 -1.1964,4.88865 0.002,0.0103 -0.0572,-0.17286 -0.0707,-0.21545 -0.0741,-0.24379 0.15793,0.24418 -0.0351,-0.14231 -0.16355,-0.1954 -0.75337,-0.80334 -1.07768,-1.02007 2.72216,0.30108 1.25572,0.15528 5.33632,-1.99684 0.0827,-0.0437 -0.35783,0.34342 -0.17242,0.21743 -0.45997,0.59252 -0.89515,1.21544 -1.36579,1.79135 -3.5098,6.78259 -13.31521,2.25509 -9.80541,-4.52748 z"
       inkscape:connector-curvature="0" />
    <path
       style="fill:none;stroke:#000000;stroke-width:2.77086616;stroke-linecap:butt;stroke-linejoin:miter;stroke-miterlimit:4;stroke-opacity:1;stroke-dasharray:2.77086614, 5.54173228;stroke-dashoffset:0"
       d="M 566.36466,321.97321 485.42474,164.87079"
       id="path3818"
       inkscape:connector-curvature="0"
       sodipodi:nodetypes="cc" />
    <path
       style="fill:#000000;fill-opacity:1;fill-rule:nonzero;stroke:none"
       id="path3908"
       d="m 509.52971,274.72655 c 1.14606,-3.07869 2.67274,-6.01743 4.1946,-8.92735 1.36343,-2.6925 3.00139,-5.12979 5.4508,-6.91662 2.43903,-1.58705 5.10113,-2.76828 7.85745,-3.67877 3.12148,-1.03337 5.01684,-0.67356 7.5127,1.47713 2.21782,1.95417 -0.54578,5.09064 -2.7636,3.13647 l 0,0 c -1.37802,-1.25919 -1.41509,-1.26477 -3.44319,-0.64251 -2.37283,0.77631 -4.66272,1.78541 -6.76967,3.13481 -1.96633,1.26291 -3.02289,3.44521 -4.14144,5.42917 -1.37358,2.61789 -2.71614,5.2689 -3.84216,8.00154 -0.71691,2.86767 -4.77241,1.8538 -4.05549,-1.01387 z"
       inkscape:connector-curvature="0" />
    <path
       style="fill:#000000;fill-opacity:1;fill-rule:nonzero;stroke:none"
       id="path3914"
       d="m 507.90719,270.8865 c 0,-1.78331 0,-3.56662 0,-5.34993 0,-0.55649 0,-1.11298 0,-1.66946 0,-0.16817 0,-0.33635 0,-0.50452 4.44652,0.12447 4.1803,-0.88259 4.1803,1.44843 0,2.09091 0,4.18181 0,6.27271 0,1.35721 0,2.71442 0,4.07163 -0.0129,1.8662 0.33555,0.93908 -3.18182,-1.09467 1.6681,-1.50901 3.57845,-2.74232 5.44444,-3.99373 1.7615,-0.9544 3.36543,-2.17036 4.85706,-3.5017 0.0556,0.0159 0.58159,-0.62866 0.27658,-0.24459 1.70257,-2.41635 5.11981,-0.009 3.41724,2.40779 l 0,0 c -0.26901,0.35295 -0.58175,0.66534 -0.9144,0.95926 -1.63623,1.45325 -3.38418,2.79864 -5.30817,3.85112 -1.68145,1.12758 -3.41914,2.22553 -4.92269,3.57998 -3.98968,-1.26307 -3.85374,0.0367 -3.84854,-1.96346 0,-1.35721 0,-2.71442 0,-4.07163 0,-2.0909 0,-4.1818 0,-6.27271 0,-2.33102 -0.26622,-1.32396 4.1803,-1.44843 0,0.16817 0,0.33635 0,0.50452 0,0.55648 0,1.11297 0,1.66946 0,1.78331 0,3.56662 0,5.34993 0,2.95592 -4.1803,2.95592 -4.1803,0 z"
       inkscape:connector-curvature="0" />
    <path
       style="fill:#000000;fill-opacity:1;fill-rule:nonzero;stroke:none"
       id="path3944"
       d="m 492.94794,215.05481 c -2.56514,-0.29684 -3.76442,1.50302 -4.81652,3.79012 -1.79737,5.16007 -1.77928,10.62358 -1.10648,16.01247 0.54148,2.79094 1.61202,7.70589 4.98652,7.51144 3.34604,-1.56154 4.73024,-6.04963 5.82688,-9.53858 1.07855,-4.51118 1.90474,-9.20848 1.33213,-13.86968 -0.49824,-2.88287 -2.13493,-4.68897 -4.40311,-6.04543 -1.4076,-0.54907 -2.53649,-1.57491 -3.19265,0.32972 -0.11551,0.4253 -0.23103,0.8506 -0.34655,1.27591 -0.70483,2.28325 -3.64613,1.18897 -2.94129,-1.09428 l 0,0 c 0.22305,-0.67149 0.44611,-1.34298 0.66916,-2.01447 0.35615,-0.52988 0.62816,-1.14243 1.06847,-1.58964 1.82924,-1.85799 4.32693,-0.83193 6.2638,0.12022 3.09436,1.95032 5.32663,4.60278 5.96303,8.5884 0.57159,5.19855 -0.20517,10.40302 -1.48143,15.42461 -1.31076,4.06828 -3.09099,9.41873 -7.03199,11.29878 -0.6348,0.30284 -1.34948,0.33875 -2.02421,0.50812 -0.67577,-0.11716 -1.38132,-0.10417 -2.02731,-0.35148 -3.7246,-1.42587 -5.0311,-6.37326 -5.73927,-10.09855 -0.73666,-6.10165 -0.70817,-12.28078 1.44512,-18.07415 2.03762,-4.02861 3.76777,-5.93581 8.16475,-5.52671 2.15335,0.4728 1.5443,3.81598 -0.60905,3.34318 z"
       inkscape:connector-curvature="0" />
    <path
       style="fill:#000000;fill-opacity:1;fill-rule:nonzero;stroke:none"
       id="path3946"
       d="m 486.46191,225.63886 c 3.03509,0.7208 6.13138,0.56494 9.19307,0.18172 2.09091,-0.29985 4.15218,-0.78387 6.25759,-0.92772 2.19261,-0.13379 2.36495,3.27035 0.17234,3.40413 l 0,0 c -2.04809,0.10492 -4.04788,0.67068 -6.08523,0.9119 -3.4293,0.41266 -6.89772,0.57317 -10.29099,-0.26243 -2.13043,-0.58471 -1.37721,-3.8923 0.75322,-3.3076 z"
       inkscape:connector-curvature="0" />
    <path
       style="fill:#000000;fill-opacity:1;fill-rule:nonzero;stroke:none"
       id="path3948"
       d="m 407.70517,149.82364 c 1.47765,0.33547 2.95486,0.67587 4.45333,0.88256 0.43639,0.0535 0.87338,0.10683 1.31225,0.12963 -0.12229,3.95812 0.29057,3.95502 -2.27561,3.17519 -1.94271,-0.6662 -3.8582,-1.27667 -5.88045,-1.59707 -2.22956,-0.32441 -3.59432,-0.64181 -5.1983,1.19549 -1.46478,2.83914 -1.55736,6.27504 -1.50347,9.44856 0.33175,3.56055 1.32341,7.08021 3.75995,9.60129 1.93216,1.58143 4.28637,2.03968 6.6313,1.50678 1.52972,-0.79788 2.38442,-2.44558 3.03944,-4.06369 0.50358,-1.55205 0.72715,-3.19216 0.85344,-4.82551 0.0888,-1.65095 -0.30625,-0.46043 3.42463,-0.4471 0.62192,2.95066 1.15093,5.91446 1.53507,8.91332 0.43204,2.49229 0.96523,4.96268 1.4593,7.4414 0.23951,1.12483 0.13295,0.70974 -3.09452,0.38314 -0.19542,-0.0198 -0.003,-0.43433 -0.0794,-0.62936 -0.4536,-2.4985 2.82196,-3.1905 3.27557,-0.69199 l 0,0 c 0.0922,0.67568 0.27191,1.69 0.11671,1.76099 -3.0251,1.38379 -3.11015,1.80256 -3.48151,-0.0659 -0.51156,-2.56648 -1.06685,-5.12381 -1.50265,-7.7068 -0.37271,-2.92668 -0.89353,-5.8178 -1.50116,-8.69691 3.36608,-1.2213 3.27922,-2.14705 3.1739,0.0433 -0.16224,2.03837 -0.45821,4.08132 -1.13656,6.00151 -1.1613,2.71669 -2.71881,5.16696 -5.48423,6.12592 -3.47697,0.6176 -6.83457,-0.0236 -9.60407,-2.51898 -3.01388,-3.41028 -4.36843,-7.39308 -4.72261,-12.08144 -0.039,-4.1689 0.15944,-8.60693 2.52402,-12.09027 2.68721,-2.65439 4.53456,-2.69896 8.00671,-2.165 2.16086,0.35107 4.22014,0.97922 6.2952,1.69308 1.12523,0.34296 5.09316,0.96605 1.2396,3.88791 -0.5378,-0.0298 -1.0739,-0.0861 -1.60846,-0.15636 -1.62727,-0.22711 -3.23331,-0.58865 -4.83689,-0.96062 -2.28971,-0.61748 -1.48017,-4.11052 0.80953,-3.49303 z"
       inkscape:connector-curvature="0" />
    <path
       style="fill:#000000;fill-opacity:1;fill-rule:nonzero;stroke:none"
       id="path3950"
       d="m 408.54609,162.82828 c 2.76237,0.13975 5.49212,-0.36752 8.22619,-0.71087 1.79384,-0.18849 3.54666,-0.76912 5.20053,0.19001 0.2351,0.35221 0.47019,0.70443 0.70529,1.05664 0.98787,2.31222 -2.04348,3.81925 -3.03135,1.50704 l 0,0 c 0.14066,0.13117 0.28132,0.26235 0.42197,0.39353 0.16972,0.0507 0.70361,0.029 0.52751,0.0326 -1.14857,0.0226 -2.29129,0.34823 -3.43812,0.39665 -2.86172,0.35912 -5.72076,0.87648 -8.61202,0.73501 -2.36018,0 -2.36018,-3.60054 0,-3.60054 z"
       inkscape:connector-curvature="0" />
    <path
       style="fill:#000000;fill-opacity:1;fill-rule:nonzero;stroke:none"
       id="path3952"
       d="m 342.87233,227.57472 c 1.41983,3.30715 1.67797,6.90445 2.24427,10.38224 0.52679,3.29173 0.83362,6.60526 1.03097,9.92364 0.0668,1.89485 0.72032,2.51345 -3.35453,1.18489 -0.10934,-0.0357 0.0463,-1.22239 0.14376,-2.11767 0.50306,-4.17341 1.32455,-8.31814 2.38473,-12.4086 0.60735,-2.24379 1.2395,-4.48278 1.92997,-6.70792 1.03793,-2.62389 3.35377,-1.66945 4.75233,0.17649 1.8267,2.5025 2.47816,5.42658 2.95886,8.323 0.26736,1.93952 0.3814,3.89336 0.41363,5.84615 -0.0149,1.73024 0.27692,1.04406 -2.99421,-0.39741 0.65238,-2.69631 1.49531,-5.3472 2.37376,-7.99284 1.0538,-2.36699 1.5989,-4.94419 3.18566,-7.09571 2.73436,-2.40356 4.88697,0.85547 5.91359,2.81905 1.30284,3.36469 1.47737,6.95607 2.01663,10.45697 0.3304,2.05662 0.61182,4.11938 0.84775,6.18607 0.14265,1.38002 0.34295,1.0839 -3.35895,0.14313 -0.18331,-0.0466 0.003,-0.33639 0.004,-0.50459 8.2e-4,-0.20048 4.2e-4,-0.40096 6.4e-4,-0.60144 0.002,-2.13771 3.43114,-2.13476 3.42877,0.003 l 0,0 c -4.7e-4,0.40318 -4e-4,1.16011 -0.005,1.16166 -3.61152,1.16545 -3.32962,1.47038 -3.48074,0.10091 -0.23173,-2.0319 -0.50884,-4.05988 -0.83378,-6.08185 -0.49575,-3.21846 -0.67424,-6.51093 -1.74944,-9.63031 -0.0554,-0.11449 -1.07942,-1.73508 -1.08587,-1.82882 -0.0123,-0.17906 1.28515,-0.11369 1.15396,-0.54461 -1.45919,1.83927 -1.70066,4.24966 -2.74629,6.266 -0.93538,2.81712 -1.735,5.65579 -2.59421,8.48941 -3.82225,-0.38692 -3.50014,0.65279 -3.50442,-0.90523 -0.0291,-1.82202 -0.13449,-3.64505 -0.37841,-5.45517 -0.40112,-2.4581 -0.89961,-4.96331 -2.43181,-7.098 -0.89569,-1.23417 0.47654,0.21002 1.21579,-0.75865 0.12498,-0.16376 0.16507,-0.3698 0.28682,-0.53544 0.0547,-0.0744 -0.0544,0.17083 -0.0816,0.25624 -0.67812,2.18446 -1.29818,4.38271 -1.89505,6.58541 -1.03479,3.96766 -1.82344,7.99129 -2.31575,12.03988 -0.0421,0.33812 -0.10286,0.67483 -0.12624,1.01436 -0.0187,0.27185 0.2858,0.71353 9e-5,0.81706 -3.99758,1.44859 -3.37854,0.83603 -3.49826,-1.04726 -0.19146,-3.22756 -0.4889,-6.45043 -1.00086,-9.65211 -0.51487,-3.16199 -0.77023,-6.41742 -1.91708,-9.45988 -1.08428,-1.91202 1.98251,-3.26402 3.06679,-1.352 z"
       inkscape:connector-curvature="0" />
    <path
       style="fill:#000000;fill-opacity:1;fill-rule:nonzero;stroke:none"
       id="path3954"
       d="m 379.46564,229.28015 c 1.46271,0 2.92542,0 4.38813,0 0.22696,0 0.45392,0 0.68088,0 -1.3229,3.73453 -0.40214,2.62859 -3.22769,2.17265 -1.04675,-0.004 -2.4536,-0.47712 -3.36853,0.10963 -1.30645,0.53743 -1.92524,1.73363 -2.3595,2.88648 -0.68608,1.90263 0.0329,3.74641 0.90927,5.49353 0.19896,0.36722 1.67451,1.76674 2.02054,0.94946 1.41189,-1.50553 1.99377,-3.56216 2.50578,-5.42859 0.38419,-1.66635 0.56589,-3.36457 0.64538,-5.06197 0.0397,-1.46885 -0.31615,-0.45818 3.48895,-0.55659 0.99582,3.56391 1.65393,7.19097 2.37426,10.8049 0.96418,5.58217 1.82155,11.212 1.81849,16.86697 -0.0185,2.95149 -0.548,6.20433 -3.87585,7.69749 -0.59314,0.26613 -1.26115,0.37531 -1.89173,0.56297 -4.92376,0.44463 -7.92291,-1.38904 -10.37288,-4.99251 -1.64233,-3.13636 -2.04848,-5.6928 0.0541,-8.69923 1.3364,-1.78364 4.19727,-0.11726 2.86088,1.66639 l 0,0 c -1.47729,1.71766 -0.8711,3.67172 0.0552,5.52235 1.38981,2.25374 3.38676,3.72674 6.44356,3.60052 3.26855,-0.56688 3.21336,-2.83136 3.298,-5.36436 0.0243,-5.47693 -0.8543,-10.93026 -1.76675,-16.33735 -0.71232,-3.57436 -1.35853,-7.16257 -2.34793,-10.68666 3.49648,-0.99616 3.32311,-1.77188 3.28753,0.0415 -0.0911,1.89676 -0.29775,3.79412 -0.74063,5.65412 -0.78004,2.78322 -1.70901,5.87439 -4.58314,7.52407 -0.54468,0.13211 -1.07093,0.35643 -1.63402,0.39631 -2.10486,0.14909 -3.82215,-1.54141 -4.78126,-2.94858 -1.21367,-2.47001 -1.99573,-5.0692 -0.99586,-7.72369 0.81423,-1.91717 1.951,-3.73344 4.16403,-4.6178 1.77678,-0.62049 3.54176,-0.60554 5.41846,-0.33168 0.31954,0.0529 3.09937,0.48451 3.0882,0.83675 -0.0319,1.0052 -0.32454,1.99073 -0.48681,2.98609 -0.22696,0 -0.45392,0 -0.68088,0 -1.46271,0 -2.92542,0 -4.38813,0 -2.42451,0 -2.42451,-3.02317 0,-3.02317 z"
       inkscape:connector-curvature="0" />
    <path
       style="fill:#000000;fill-opacity:1;fill-rule:nonzero;stroke:none"
       id="path3956"
       d="m 396.05702,228.19701 c 1.78437,-0.65074 3.60075,-1.20644 5.47878,-1.60291 2.13435,-0.47717 3.86838,-0.32085 5.6236,0.90244 1.8214,1.94072 2.32445,4.37107 2.70245,6.79479 0.38584,2.81884 0.69619,5.66817 1.30348,8.45873 0.37284,1.9034 1.08971,3.7096 2.28244,5.32874 0.74678,0.41073 1.34961,0.97298 1.88802,1.58171 0.05,0.0617 0.10002,0.12333 0.15004,0.18499 1.39853,1.74622 -1.40232,3.49008 -2.80085,1.74386 l 0,0 c -0.0213,-0.0275 -0.0427,-0.0549 -0.0641,-0.0823 -0.59528,-0.69445 -1.43809,-1.11334 -2.05758,-1.79373 -1.41352,-1.95491 -2.32038,-4.11304 -2.7672,-6.40207 -0.60141,-2.84547 -0.9499,-5.74028 -1.33188,-8.61314 -0.26232,-1.72841 -0.56452,-3.43286 -1.59507,-4.95166 -0.51099,-0.78553 -1.7297,-0.27737 -2.53898,-0.21143 -1.86873,0.39002 -3.64936,0.99351 -5.44159,1.59491 -2.35212,0.51847 -3.18372,-2.41445 -0.8316,-2.93291 z"
       inkscape:connector-curvature="0" />
    <path
       style="fill:#000000;fill-opacity:1;fill-rule:nonzero;stroke:none"
       id="path3958"
       d="m 408.6152,236.98853 c -1.47619,2.17788 -3.13049,4.26942 -4.8124,6.32916 -1.14797,1.65068 -2.58012,3.1488 -3.5353,4.8982 -0.88265,1.83814 -0.33406,1.19183 -3.76545,-0.16263 -0.22564,-2.12844 3.18826,-2.4098 3.4139,-0.28136 l 0,0 c -3.4331,-0.17029 -3.55245,0.82407 -2.73089,-0.88007 1.05851,-1.89862 2.55138,-3.56076 3.83597,-5.34158 1.57694,-1.92768 3.11572,-3.89034 4.52737,-5.91373 1.08428,-1.91202 4.15107,-0.56001 3.0668,1.35201 z"
       inkscape:connector-curvature="0" />
    <path
       style="fill:#000000;fill-opacity:1;fill-rule:nonzero;stroke:none"
       id="path3962"
       d="m 406.32935,214.81856 c -0.88451,1.71331 -1.84209,3.37149 -2.48174,5.1721 -0.20379,0.62388 -0.40272,1.25128 -0.52569,1.89204 -3.85019,-0.33113 -3.40844,0.0501 -3.39878,-2.25169 0.18241,-1.62438 0.79889,-3.1219 1.65756,-4.55377 0.26758,-0.43011 0.59967,-0.93845 0.61282,-1.448 0.27496,-0.73281 0.76359,-1.34688 1.09378,-2.05967 0.0448,-0.10174 0.0878,-0.20409 0.12971,-0.30676 -0.34468,1.06591 2.27931,-0.18747 3.39231,-0.0114 0.0442,0.007 1.64744,3.16079 1.80086,3.47686 1.04809,1.72881 1.91351,3.50511 2.41591,5.4168 0.0483,0.23563 0.0966,0.47125 0.1449,0.70687 0.42583,2.10448 -2.94965,2.63547 -3.37549,0.53098 l 0,0 c -0.0378,-0.18996 -0.0756,-0.37993 -0.11346,-0.5699 -0.43348,-1.74087 -1.30336,-3.31901 -2.2251,-4.89735 -0.41638,-0.86158 -0.83703,-1.72611 -1.28032,-2.57681 -0.099,-0.19001 -0.52659,-0.44796 -0.32497,-0.55807 0.86844,-0.4743 1.92841,-0.59734 2.90804,-0.85268 0.0377,-0.01 -0.0174,0.0676 -0.026,0.10148 -0.0772,0.23378 -0.16916,0.46325 -0.27463,0.68845 -0.11834,0.25302 -0.82084,1.8296 -0.86549,1.3019 -0.15284,0.87066 -0.45672,1.72161 -0.98536,2.47651 -0.60708,0.99978 -1.05276,2.01765 -1.25629,3.14576 -0.01,2.33141 0.55526,1.89614 -3.44676,2.04616 -0.0115,4.3e-4 0.0268,-0.25755 0.0279,-0.26532 0.14255,-0.79387 0.39385,-1.56936 0.64428,-2.34081 0.70071,-1.95132 1.71501,-3.76161 2.68526,-5.61569 1.08428,-1.91202 4.15107,-0.56002 3.0668,1.35201 z"
       inkscape:connector-curvature="0" />
    <path
       style="fill:#000000;fill-opacity:1;fill-rule:nonzero;stroke:none"
       id="path3982"
       d="m 583.25697,376.38733 c 0.85426,5.89384 1.04364,11.86763 1.52238,17.80336 0.45324,6.21589 0.68334,12.43151 1.68345,18.58999 0.6846,3.9009 1.62132,2.24955 -3.47411,3.68721 -0.8062,-2.84386 3.21562,-3.984 4.02182,-1.14014 l 0,0 c -5.0999,2.4428 -3.70592,2.605 -4.67421,-1.87855 -1.0134,-6.26947 -1.27483,-12.59409 -1.72372,-18.92244 -0.46046,-5.70915 -0.67893,-11.44592 -1.41111,-17.12556 -0.71691,-2.86766 3.33858,-3.88153 4.0555,-1.01387 z"
       inkscape:connector-curvature="0" />
    <path
       style="fill:#000000;fill-opacity:1;fill-rule:nonzero;stroke:none"
       id="path3990"
       d="m 578.00764,375.41814 c 3.14972,-1.28679 6.32976,-2.46268 9.62874,-3.30609 2.88733,-0.78903 5.52673,-0.19704 7.97435,1.40795 2.60834,2.35653 2.60767,5.45917 1.97725,8.66318 -0.99844,3.91343 -3.46948,6.78534 -6.35558,9.44449 -1.86211,1.67204 -3.99192,2.75565 -6.42796,3.25871 -0.80397,0.1336 -1.61974,0.23187 -2.43559,0.18482 -8.16773,-3.92855 1.49975,-4.25042 2.34768,-4.24821 2.822,-0.15524 5.58955,0.26327 8.36903,0.68468 3.85986,0.73853 7.4966,2.43342 10.74328,4.61622 2.51377,1.94479 4.60147,4.33914 6.06849,7.15449 0.88194,1.95989 1.07944,4.09547 1.15917,6.2152 0.0185,0.5925 0.0159,1.1853 -0.0298,1.77623 -0.007,0.0503 -0.0139,0.1006 -0.0208,0.1509 -0.47089,2.91817 -4.59781,2.25223 -4.12692,-0.66595 l 0,0 c -0.004,0.0292 -0.007,0.0584 -0.0106,0.0876 0.0207,-0.34017 0.023,-0.82251 0.0107,-1.19589 -0.0533,-1.50552 -0.14209,-3.03741 -0.69856,-4.45509 -1.11976,-2.21251 -2.781,-4.06226 -4.70936,-5.61557 -2.69083,-1.87689 -5.7994,-3.26062 -9.01216,-3.93507 -2.57835,-0.39093 -5.13439,-0.79904 -7.75378,-0.63747 -5.83621,-0.0167 7.0471,-0.27167 -2.03861,-4.10177 0.37536,0.006 0.90972,-0.0397 1.31886,-0.11441 1.68944,-0.32035 3.12092,-1.08175 4.41456,-2.23386 2.23977,-2.06332 4.27305,-4.17667 5.0964,-7.2265 0.34138,-1.49548 0.68773,-3.0475 -0.28334,-4.38243 -1.32027,-1.08552 -2.92467,-1.20121 -4.54744,-0.78062 -3.01214,0.75946 -5.90479,1.84952 -8.78843,2.99343 -2.64386,1.32193 -4.51335,-2.41705 -1.86949,-3.73898 z"
       inkscape:connector-curvature="0" />
    <path
       style="fill:#000000;fill-opacity:1;fill-rule:nonzero;stroke:none"
       id="path3994"
       d="m 576.14525,365.63855 c 4.29144,-0.90984 8.40825,-2.41479 12.61544,-3.62805 2.96674,-0.71419 5.79475,-1.88776 8.73394,-2.69471 1.22614,-0.34735 2.48855,-0.48381 3.7576,-0.52644 0.35068,-0.0101 0.70151,-0.008 1.04963,0.0372 -1.88377,3.26799 -1.05406,4.11022 -2.92573,2.84222 -0.95696,-0.64831 -1.91579,-1.275 -2.8879,-1.90248 -1.82132,-1.23551 -3.72576,-2.43152 -5.20621,-4.07472 -1.95724,-3.16454 -1.6512,-2.46639 2.97885,-2.48437 -3e-5,0.18181 -6e-5,0.36362 -9e-5,0.54543 -0.006,2.95592 -4.18584,2.94807 -4.18029,-0.008 l 0,0 c 7.3e-4,-0.22346 10e-4,-0.44693 0.002,-0.67039 5.38457,-0.95566 3.44342,-1.92174 4.41848,-0.0497 0.79078,1.4715 3.11175,2.09211 4.25479,3.22981 1.15076,0.74344 2.28096,1.52014 3.43822,2.25055 0.24617,0.15537 0.77385,0.1764 0.73896,0.4654 -0.16718,1.38516 -0.85084,2.65754 -1.27626,3.98631 0.37288,0.0383 -0.22252,-0.0125 -0.27028,0.0107 -0.94508,0.0286 -1.88355,0.11838 -2.79635,0.38247 -2.92291,0.78291 -5.72018,1.99211 -8.67256,2.67755 -4.36174,1.25467 -8.62933,2.81955 -13.08519,3.73447 -2.9157,0.48595 -3.60294,-3.63748 -0.68724,-4.12343 z"
       inkscape:connector-curvature="0" />
    <path
       style="fill:#000000;fill-opacity:1;fill-rule:nonzero;stroke:none"
       id="path3996"
       d="m 525.10534,301.90783 c 1.42665,0.35667 2.8533,0.71333 4.27995,1.06999 0.22136,0.0553 0.44272,0.11068 0.66409,0.16602 -0.61875,4.41158 0.28212,4.11138 -1.89649,4.10806 -1.44227,0.0932 -2.80313,-0.0659 -4.18334,-0.49854 -1.30752,-0.47386 -2.66038,-0.70687 -4.04105,-0.8106 -1.73971,0.29623 -2.09925,1.29461 -2.96554,2.71606 -1.28647,2.63462 -1.73804,5.42526 -1.55182,8.31966 0.42101,2.54273 1.7684,4.56871 3.96048,5.88211 2.17832,1.00526 4.6011,1.07509 6.95705,1.15799 1.09314,0.0262 2.1866,0.0174 3.27987,0.0101 2.95586,-0.0195 2.9834,4.16075 0.0275,4.18022 l 0,0 c -1.15238,0.008 -2.30496,0.0164 -3.45718,-0.0127 -3.10969,-0.11337 -6.26179,-0.31282 -9.06328,-1.81632 -3.25858,-2.17242 -5.36367,-5.20112 -5.87757,-9.15593 -0.20441,-3.75452 0.41238,-7.38192 2.16302,-10.75326 1.7619,-2.84942 3.34417,-4.56787 6.85483,-4.6954 1.70621,0.13864 3.3854,0.42421 5.00409,1.00191 0.95692,0.32915 1.88218,0.34828 2.89946,0.29439 2.18058,0.004 1.40054,-0.30397 0.87606,4.12774 -0.22137,-0.0553 -0.44273,-0.11069 -0.6641,-0.16603 -1.42665,-0.35666 -2.85329,-0.71332 -4.27994,-1.06998 -2.86767,-0.71692 -1.85379,-4.77241 1.01387,-4.0555 z"
       inkscape:connector-curvature="0" />
    <path
       style="fill:#000000;fill-opacity:1;fill-rule:nonzero;stroke:none"
       id="path4002"
       d="m 564.12154,318.62907 c 2.25296,0.39208 4.0811,1.27901 5.47157,3.1158 1.02121,1.51386 0.99767,2.24289 0.60819,4.03931 -0.41595,0.62358 -0.93604,1.16636 -1.48258,1.67555 -1.07016,0.72007 -2.14167,0.70014 -3.36139,0.70637 -1.57693,0.0353 -1.0918,-0.10731 -2.97882,-1.65821 -0.2161,-1.14818 -0.14513,-2.33223 -0.1407,-3.49614 -0.0582,-1.63431 -0.0794,-3.09429 0.78708,-4.53482 0.99315,-1.04152 2.38948,-1.71689 3.73506,-2.21639 1.50107,-0.53761 2.95454,-0.65895 4.50983,-0.40083 2.12862,0.61135 2.95469,2.32078 3.34213,4.35057 0.33196,1.98942 0.1992,3.8595 -0.62038,5.70719 -0.63955,1.96387 -2.29641,2.85181 -4.17365,3.33363 -1.91519,0.35277 -3.78174,0.46517 -5.62489,-0.21584 -1.91489,-0.6398 -2.79011,-2.01657 -3.17688,-3.9204 -0.21448,-1.7353 -0.2974,-3.4747 0.0642,-5.18584 0.33513,-0.99698 0.76219,-1.9607 1.23652,-2.89859 1.0091,-1.24292 2.08987,-1.4298 3.55498,-1.4437 0.60156,0.003 1.20309,0.01 1.80464,0.0141 2.95584,0.0221 2.92453,4.20232 -0.0313,4.18019 l 0,0 c -0.58009,-0.004 -1.16016,-0.0107 -1.74026,-0.0141 -0.91882,0.005 -0.58269,0.0492 0.14043,-0.84613 -0.35452,0.69689 -0.6714,1.41327 -0.9427,2.1467 -0.11967,0.97525 -0.0985,2.2423 0.0318,3.33038 0.0637,0.73074 -0.68653,0.1454 0.55332,0.73349 0.87631,0.35859 2.01912,0.21662 3.13565,0.0595 0.82777,-0.18515 1.08661,-0.0515 1.36976,-1.01908 0.52204,-1.05468 0.46468,-2.08121 0.30051,-3.24361 -0.038,-0.27193 -0.16585,-0.53505 -0.1533,-0.80934 0.008,-0.16485 0.45092,0.26738 0.32929,0.0482 -0.005,-0.01 -0.4464,-0.24839 -0.48809,-0.27109 0.56926,-0.23654 -1.87594,0.16595 -2.03709,0.30899 -0.26429,0.0808 -2.79701,1.50866 -1.69609,0.67087 -0.0688,-1.40082 0.004,1.98833 -0.0303,2.15192 -0.002,0.5882 0.0407,2.06581 -0.0399,2.26462 -2.56218,-1.76679 -2.40185,-1.26231 -1.0411,-1.30646 0.53167,-0.002 1.9705,-0.28567 0.5384,0.40942 0.24223,-0.22834 0.46995,-0.47273 0.70713,-0.70393 -0.12799,2.04728 0.0458,1.20592 -0.38663,0.48961 -0.6607,-1.08784 -1.90285,-1.22246 -3.08832,-1.49638 -2.86766,-0.71692 -1.85379,-4.77241 1.01388,-4.05549 z"
       inkscape:connector-curvature="0" />
    <path
       style="fill:#000000;fill-opacity:1;fill-rule:nonzero;stroke:none"
       id="path4004"
       d="m 565.27499,407.70171 c -0.29491,-7.16116 -0.35404,-14.33757 -0.39129,-21.50616 0.0267,-10.31392 -0.1467,-20.62329 0.0245,-30.93726 0.20259,-6.34183 0.54382,-12.65592 0.13214,-18.99279 -0.13274,-1.41301 -0.19328,-2.83906 -0.41888,-4.24234 -0.0767,0.0203 -0.0386,-0.99219 -0.0108,-1.39797 0.012,-0.17769 0.0271,-0.35515 0.0421,-0.53261 0.002,-0.0185 0.003,-0.037 0.005,-0.0554 0.90988,-0.60796 1.81977,-1.21591 2.72965,-1.82387 2.94808,0.2151 2.64383,4.38436 -0.30424,4.16922 l 0,0 c 0.5792,-0.63475 1.65689,-1.05336 1.73199,-1.90937 -0.0121,0.146 -0.0242,0.292 -0.0342,0.43816 -0.0707,1.02516 -0.12598,-0.34893 -0.0297,0.46223 0.23752,1.53046 0.32898,3.08021 0.46092,4.62178 0.41663,6.45016 0.0926,12.87769 -0.12396,19.33248 -0.17115,10.28359 0.003,20.56262 -0.024,30.84617 0.0362,7.03255 0.10271,14.07156 0.36916,21.09767 0.30414,2.94023 -3.85399,3.37034 -4.15812,0.43011 z"
       inkscape:connector-curvature="0" />
    <path
       style="fill:#000000;fill-opacity:1;fill-rule:nonzero;stroke:none"
       id="path4010"
       d="m 568.17009,331.96096 c -1.06458,2.27276 -2.30215,4.45903 -3.56844,6.62421 -1.41735,1.8297 -2.82269,3.66589 -4.13865,5.57076 -0.31856,0.46581 -0.62268,0.94108 -0.92264,1.41897 -1.5726,2.50287 -5.11221,0.27888 -3.53961,-2.224 l 0,0 c 0.33317,-0.52982 0.67059,-1.057 1.02448,-1.57335 1.25843,-1.81659 2.57639,-3.59535 3.97099,-5.308 1.26996,-2.15598 2.48272,-4.3463 3.55807,-6.60644 1.4834,-2.55675 5.0992,-0.4589 3.6158,2.09785 z"
       inkscape:connector-curvature="0" />
    <path
       style="fill:#000000;fill-opacity:1;fill-rule:nonzero;stroke:none"
       id="path4012"
       d="m 568.77113,329.41396 c 1.3812,2.16063 3.00457,4.12338 4.56857,6.14963 1.14697,1.51182 2.33176,2.99457 3.52637,4.4689 0.15185,0.18726 0.30466,0.37374 0.45829,0.55955 1.88332,2.27829 -1.33866,4.9417 -3.22198,2.66342 l 0,0 c -0.1623,-0.19639 -0.32384,-0.3934 -0.48428,-0.59132 -1.21531,-1.49997 -2.42056,-3.00855 -3.5877,-4.54644 -1.50647,-1.95205 -3.10036,-3.82957 -4.39289,-5.93689 -1.95645,-2.21579 1.17715,-4.98265 3.13362,-2.76685 z"
       inkscape:connector-curvature="0" />
    <path
       inkscape:connector-curvature="0"
       d="m 426.80213,204.83937 c 0.16443,7.16534 0.0928,14.34164 -4.9e-4,21.50971 -0.21456,10.31173 -0.22897,20.62255 -0.588,30.93169 -0.31807,6.33708 -0.77425,12.64391 -0.47806,18.98723 0.10698,1.41519 0.14154,2.84211 0.34154,4.24926 0.0771,-0.0189 0.0205,0.99273 -0.0147,1.39794 -0.0152,0.17744 -0.0336,0.3546 -0.0518,0.53175 -0.002,0.0185 -0.004,0.0369 -0.006,0.0553 -0.9208,0.59129 -1.84161,1.18257 -2.76242,1.77385 -2.94367,-0.26876 -2.56353,-4.43179 0.38013,-4.16298 l 0,0 c -0.59066,0.62409 -1.6758,1.023 -1.76648,1.8775 0.0148,-0.14575 0.0295,-0.29151 0.0422,-0.43746 0.0894,-1.0237 0.1196,0.35116 0.0381,-0.46161 -0.2096,-1.53454 -0.27282,-3.0857 -0.37666,-4.62941 -0.29907,-6.45668 0.14198,-12.87724 0.47607,-19.32702 0.35843,-10.27877 0.37153,-20.55926 0.58584,-30.84061 0.0919,-7.03205 0.15361,-14.0711 0.0152,-21.1009 -0.25053,-2.94528 3.91474,-3.29958 4.16526,-0.3543 z"
       id="path4014"
       style="fill:#000000;fill-opacity:1;fill-rule:nonzero;stroke:none" />
    <path
       inkscape:connector-curvature="0"
       d="m 422.52795,280.51482 c 1.1058,-2.25299 2.38298,-4.41636 3.6885,-6.55812 1.45044,-1.80358 2.88899,-3.61386 4.23943,-5.49445 0.32699,-0.45993 0.63972,-0.92958 0.94833,-1.40193 1.61793,-2.47381 5.11644,-0.18572 3.49852,2.2881 l 0,0 c -0.34277,0.52367 -0.68973,1.04461 -1.05297,1.55443 -1.29131,1.79337 -2.64145,3.54783 -4.06701,5.23479 -1.30902,2.13249 -2.56148,4.30036 -3.67782,6.54054 -1.52972,2.52931 -5.10671,0.36594 -3.57698,-2.16336 z"
       id="path4016"
       style="fill:#000000;fill-opacity:1;fill-rule:nonzero;stroke:none" />
    <path
       inkscape:connector-curvature="0"
       d="m 421.88061,283.05045 c -1.34161,-2.18543 -2.92896,-4.17742 -4.4558,-6.23183 -1.11924,-1.53246 -2.27683,-3.03654 -3.44438,-4.53238 -0.14842,-0.19 -0.29781,-0.37923 -0.44803,-0.56781 -1.84151,-2.31221 1.42845,-4.9165 3.26996,-2.60429 l 0,0 c 0.1587,0.19931 0.31662,0.39923 0.47343,0.60004 1.18779,1.52186 2.36536,3.05214 3.50429,4.61104 1.47067,1.97916 3.0301,3.8854 4.28403,6.01591 1.91577,2.25106 -1.26771,4.96039 -3.1835,2.70932 z"
       id="path4018"
       style="fill:#000000;fill-opacity:1;fill-rule:nonzero;stroke:none" />
    <path
       style="fill:#000000;fill-opacity:1;fill-rule:nonzero;stroke:none"
       id="path4032"
       d="m 557.15146,291.98174 c 3.94933,-2.07667 7.89866,-4.15336 11.84799,-6.23003 2.17171,-1.14196 4.3434,-2.2839 6.5151,-3.42585 2.24221,-1.1058 0.66858,-0.72907 0.2717,0.63467 -0.0825,0.21018 0.003,-0.0152 -0.0269,0.10769 7.36356,5.51074 1.85616,-5.35433 4.8281,0.32447 2.39768,4.53379 4.79429,9.06814 7.18746,13.60431 1.6084,3.05018 3.2159,6.10082 4.82164,9.15239 1.3766,2.6158 -2.32243,4.56275 -3.69903,1.94733 l 0,0 c -1.60512,-3.05037 -3.212,-6.09982 -4.81977,-9.1488 -2.39543,-4.54048 -4.7944,-9.0791 -7.19425,-13.61723 -0.35076,-0.67139 -1.04395,-1.98652 -1.02965,-2.0037 2.33361,-2.80345 2.72948,-3.75432 3.62022,-2.17592 0.29239,0.58937 0.47077,1.22164 0.49193,1.88334 -0.21515,1.55736 -1.14488,2.41261 -2.50581,2.99174 -2.1717,1.14193 -4.3434,2.28389 -6.5151,3.42582 -3.94933,2.07669 -7.89866,4.15337 -11.84799,6.23005 -2.61627,1.37572 -4.56184,-2.32425 -1.94555,-3.69998 z"
       inkscape:connector-curvature="0" />
    <path
       sodipodi:nodetypes="cc"
       inkscape:connector-curvature="0"
       id="path3010"
       d="M 874.34786,429.00619 1172.8833,274.4076"
       style="fill:none;stroke:#b4b4b4;stroke-width:21.25984192;stroke-linecap:butt;stroke-linejoin:miter;stroke-miterlimit:4;stroke-opacity:1;stroke-dasharray:none" />
    <path
       inkscape:connector-curvature="0"
       d="m 866.97561,418.17298 c 17.93142,-10.63296 36.56118,-20.02837 55.17666,-29.39011 35.86828,-17.50106 71.59558,-35.27628 107.12213,-53.46122 34.2821,-17.8244 68.4513,-35.85865 102.3804,-54.34639 11.2321,-6.16039 22.3949,-12.44296 33.5097,-18.8118 2.5648,-1.46955 4.643,2.15751 2.0783,3.62708 l 0,0 c -11.1408,6.38345 -22.3294,12.68098 -33.5879,18.85546 -33.9606,18.5049 -68.1617,36.5559 -102.4758,54.3968 -35.53543,18.18936 -71.27131,35.96967 -107.14872,53.47474 -18.52231,9.31442 -37.05976,18.66098 -54.90224,29.23896 -2.53392,1.52206 -4.68646,-2.06146 -2.15253,-3.58352 z"
       id="path3012"
       style="fill:#000000;fill-opacity:1;fill-rule:nonzero;stroke:none" />
    <path
       inkscape:connector-curvature="0"
       d="m 1055.3101,322.97902 c -10.6951,-8.59366 -21.4059,-17.16562 -32.0526,-25.82038 -23.35715,-18.67771 -45.95214,-38.27472 -68.37078,-58.06023 -11.05067,-9.67921 -21.64912,-19.86883 -33.12686,-29.04939 -1.81208,-1.33849 -3.51146,-2.85081 -5.40375,-4.08151 3.62494,-3.78627 3.06387,-4.16445 2.45426,0.38219 -2.27667,1.88528 -4.94285,-1.33441 -2.66619,-3.21969 l 0,0 c 0.20051,8.15932 -0.87926,-2.66313 2.50679,-0.65659 1.99264,1.31661 3.8172,2.87422 5.72032,4.31135 11.52873,9.22481 22.18506,19.45008 33.28156,29.17936 22.37619,19.74827 44.92815,39.30865 68.24145,57.95077 10.7149,8.71014 21.5012,17.32781 32.2517,25.99283 2.1716,2.00525 -0.6642,5.07653 -2.8359,3.07129 z"
       id="path3014"
       style="fill:#000000;fill-opacity:1;fill-rule:nonzero;stroke:none"
       inkscape:transform-center-x="71.88722"
       inkscape:transform-center-y="-60.641141" />
    <path
       inkscape:connector-curvature="0"
       d="m 907.02448,203.76974 c 0.48375,-1.3244 1.12302,-2.59205 1.77491,-3.84878 1.68975,-3.35508 4.8234,-3.76872 7.82058,-3.18525 2.14997,0.58856 4.03797,1.68835 5.73293,3.05242 0.89032,0.7655 1.60453,1.68012 2.20382,2.67743 1.71515,2.76587 0.80775,5.34915 -1.09179,7.73997 -1.08267,1.10246 -2.39956,1.91508 -3.72811,2.69038 -2.03299,1.2567 -4.33456,1.41879 -6.57834,0.99441 -1.06528,-0.12694 0.65096,0.11677 0.48663,0.0952 -1.33946,-0.17572 -2.38695,-0.39945 -3.55721,-1.00303 -1.14588,-0.70502 0.70979,0.3997 -0.12887,-0.0214 -0.49788,-0.24993 -0.98967,-0.51072 -1.48449,-0.76605 -0.95474,-0.65749 -1.67199,-1.53287 -2.27521,-2.50051 -0.0661,-0.11348 -0.15501,-0.21588 -0.19946,-0.33948 -0.50383,-1.40974 -0.62925,-2.12874 -0.80145,-3.43348 -0.0102,-0.085 0.01,0.17146 0.0168,0.25694 -0.23214,-1.80897 -0.0325,-3.55819 0.67919,-5.28405 0.63813,-1.53557 1.8815,-2.64724 3.29077,-3.5071 0.37494,-0.22166 0.75607,-0.43303 1.14357,-0.63195 0.81572,-0.40655 -0.46272,0.2591 0.21168,-0.11754 0.11981,-0.0669 0.23963,-0.13414 0.35937,-0.20123 0.0426,-0.0242 0.16379,-0.0919 0.24162,-0.13551 0.15932,-0.0892 0.31871,-0.17866 0.478,-0.26809 0.21967,-0.12317 0.43935,-0.24625 0.65901,-0.36945 1.86215,0.0121 3.72431,0.0242 5.58645,0.0364 0.37419,0.28989 1.56692,1.04697 1.12253,0.86969 -0.69052,-0.27551 -1.30854,-0.70802 -1.87901,-1.17152 -0.24653,-0.20037 0.59861,0.23531 0.89044,0.36827 0.25667,0.11689 -0.52153,-0.21741 -0.78773,-0.31344 1.41857,0.18861 2.61992,0.77716 3.72971,1.59195 0.77273,0.56183 1.32338,1.34153 1.78164,2.1621 0.17481,0.31589 0.34872,0.63225 0.5218,0.94909 0.17837,0.32036 0.35771,0.64014 0.53702,0.95995 1.59776,2.5985 0.64973,5.40511 -1.34171,7.30731 -1.81785,1.34453 -0.47976,1.17844 1.65271,-3.04626 0.22858,-0.45279 0.0597,-1.37111 -0.067,-1.89622 0.31926,1.27345 0.19946,2.46603 -0.0544,3.72699 -0.0629,0.33882 -0.16377,0.66889 -0.27392,0.99702 -1.19019,-10.71172 0.27896,-1.14089 0.29969,-0.84716 0.0451,0.63019 -0.40552,1.51535 -0.67269,2.113 -0.54133,1.28699 -1.61996,2.25362 -2.79664,2.97647 -0.24236,0.14733 -0.49121,0.28338 -0.74457,0.41056 0.34955,-0.17969 -0.53005,0.30519 -0.67288,0.38526 -0.17019,0.0955 -0.34042,0.1907 -0.51058,0.28614 -0.3236,0.18146 -0.64725,0.3629 -0.97084,0.54434 -0.17063,0.0957 -0.34128,0.19136 -0.51192,0.28705 -1.34834,0.73082 6.65971,-0.79077 -4.343,0.53723 -7.38834,-1.92797 -4.19401,-12.24664 3.19432,-10.31869 l 0,0 c -2.08917,0.30553 -5.25082,1.2606 -4.01292,0.57491 0.17061,-0.0958 0.34123,-0.19132 0.51186,-0.28699 0.32305,-0.18115 0.64611,-0.36225 0.96919,-0.54341 0.17272,-0.0968 0.34547,-0.1936 0.51819,-0.29041 0.41001,-0.22953 0.81792,-0.46313 1.23507,-0.67949 -0.0232,0.012 -0.18921,0.0859 -0.16597,0.0873 -0.64654,0.51226 -1.31861,1.19218 -1.64773,1.99377 -0.0891,0.25153 -0.23002,0.64578 -0.20158,0.86682 0.0579,0.44956 1.78032,9.62646 0.25363,-1.35265 -0.0376,0.11304 -0.15854,0.4731 -0.16857,0.56019 0.14362,-0.69536 0.0347,0.88558 0.26858,1.32209 -0.84211,-3.11132 0.17036,-3.23428 2.18095,-6.54369 0.0746,-0.12257 -0.53211,0.49366 -0.34031,0.27062 -0.40748,0.41056 -1.11155,1.07074 -1.16614,1.57692 -0.52518,4.8705 0.92782,6.07674 -0.052,4.37807 -0.19788,-0.35312 -0.39607,-0.70604 -0.5921,-1.06019 -0.15863,-0.29115 -0.31814,-0.58179 -0.47853,-0.87197 -0.36392,-0.65726 0.6452,0.89334 0.94984,0.98201 0.38351,0.25933 2.50821,0.71094 1.06919,0.43233 -2.7227,-0.48394 -1.23974,-0.45405 -3.97051,-1.72369 -0.34797,-0.16179 0.61476,0.44973 0.92217,0.67462 1.79686,-0.0255 3.59373,-0.051 5.39058,-0.0765 -0.21964,0.12317 -0.43934,0.24625 -0.65899,0.36943 -0.15925,0.0893 -0.31843,0.17857 -0.47768,0.26783 -0.0787,0.0442 -0.15722,0.088 -0.23571,0.13229 -0.12838,0.072 -0.25683,0.14397 -0.3854,0.21575 -0.21647,0.12073 -1.19883,0.62134 -0.58545,0.31678 -0.14961,0.0782 -0.30026,0.16026 -0.44671,0.24589 -0.18249,0.10248 -0.0727,0.0475 0.0876,-0.0933 0.4819,-0.42343 0.9257,-0.93077 1.1627,-1.52095 0.13833,-0.44692 0.0876,-0.7773 0.14679,-1.26321 0.0414,-0.34107 0.14803,1.332 0.005,1.02549 -0.11286,-0.24074 -0.0704,-0.53014 -0.10557,-0.79521 0.17545,1.0982 0.66345,2.90929 -0.39159,0.0519 -0.0145,-0.0403 0.042,0.0743 0.0626,0.11144 -0.21144,-0.21616 -0.43914,-0.42081 -0.69259,-0.58908 -3.40555,-1.56217 1.55659,0.59182 0.74756,0.2614 -0.54891,-0.24934 -1.06818,-0.12619 -1.64381,-0.29332 -0.58817,-0.17074 3.04967,0.27045 1.84822,0.1459 -0.90714,-0.009 -1.07693,0.20378 -1.82575,0.52958 -0.12683,0.0551 0.24041,-0.13711 0.36109,-0.20473 0.12576,-0.0728 1.61723,-1.05945 1.04466,-0.53179 -1.35492,2.0159 -0.95442,2.88305 -0.29872,5.02406 0.004,0.0101 -0.0873,-0.15978 -0.10821,-0.19926 -0.11663,-0.22652 0.19922,0.21185 -0.0601,-0.13368 -0.19599,-0.16284 -0.88544,-0.65493 -1.24339,-0.80988 2.73198,-0.19274 1.26318,-0.0728 4.89077,-2.923 0.0736,-0.0579 -0.29032,0.40213 -0.13055,0.24486 -0.34605,0.66552 -0.66224,1.35648 -1.02177,2.00758 -2.23422,7.30276 -12.69348,4.61042 -10.45922,-2.69232 z"
       id="path3016"
       style="fill:#000000;fill-opacity:1;fill-rule:nonzero;stroke:none"
       inkscape:transform-center-y="-2.7898473"
       inkscape:transform-center-x="0.19734381" />
    <path
       sodipodi:nodetypes="cc"
       inkscape:connector-curvature="0"
       id="path3018"
       d="M 1058.2473,321.97321 977.30743,164.87079"
       style="fill:none;stroke:#000000;stroke-width:2.77086616;stroke-linecap:butt;stroke-linejoin:miter;stroke-miterlimit:4;stroke-opacity:1;stroke-dasharray:2.77086614, 5.54173228;stroke-dashoffset:0" />
    <path
       inkscape:connector-curvature="0"
       d="m 984.83063,215.05481 c -2.56514,-0.29684 -3.76442,1.50302 -4.81652,3.79012 -1.79737,5.16007 -1.77928,10.62358 -1.10648,16.01247 0.54148,2.79094 1.61202,7.70589 4.98652,7.51144 3.34604,-1.56154 4.73024,-6.04963 5.82688,-9.53858 1.07855,-4.51118 1.90474,-9.20848 1.33213,-13.86968 -0.49824,-2.88287 -2.13493,-4.68897 -4.40311,-6.04543 -1.4076,-0.54907 -2.53649,-1.57491 -3.19265,0.32972 -0.11551,0.4253 -0.23103,0.8506 -0.34655,1.27591 -0.70483,2.28325 -3.64613,1.18897 -2.94129,-1.09428 l 0,0 c 0.22305,-0.67149 0.44611,-1.34298 0.66916,-2.01447 0.35615,-0.52988 0.62816,-1.14243 1.06847,-1.58964 1.82924,-1.85799 4.32693,-0.83193 6.2638,0.12022 3.09436,1.95032 5.32663,4.60278 5.96303,8.5884 0.57159,5.19855 -0.20517,10.40302 -1.48143,15.42461 -1.31076,4.06828 -3.09099,9.41873 -7.03199,11.29878 -0.6348,0.30284 -1.34948,0.33875 -2.02421,0.50812 -0.67577,-0.11716 -1.38132,-0.10417 -2.02731,-0.35148 -3.7246,-1.42587 -5.0311,-6.37326 -5.73927,-10.09855 -0.73666,-6.10165 -0.70817,-12.28078 1.44512,-18.07415 2.03762,-4.02861 3.76777,-5.93581 8.16475,-5.52671 2.15335,0.4728 1.5443,3.81598 -0.60905,3.34318 z"
       id="path3024"
       style="fill:#000000;fill-opacity:1;fill-rule:nonzero;stroke:none" />
    <path
       inkscape:connector-curvature="0"
       d="m 978.3446,225.63886 c 3.03509,0.7208 6.13138,0.56494 9.19307,0.18172 2.09091,-0.29985 4.15218,-0.78387 6.25759,-0.92772 2.19261,-0.13379 2.36495,3.27035 0.17234,3.40413 l 0,0 c -2.04809,0.10492 -4.04788,0.67068 -6.08523,0.9119 -3.4293,0.41266 -6.89772,0.57317 -10.29099,-0.26243 -2.13043,-0.58471 -1.37721,-3.8923 0.75322,-3.3076 z"
       id="path3026"
       style="fill:#000000;fill-opacity:1;fill-rule:nonzero;stroke:none" />
    <path
       inkscape:connector-curvature="0"
       d="m 831.96815,138.39485 c 1.41983,3.30715 1.67797,6.90445 2.24427,10.38224 0.52679,3.29173 0.83362,6.60526 1.03097,9.92364 0.0668,1.89485 0.72032,2.51345 -3.35453,1.18489 -0.10934,-0.0357 0.0463,-1.22239 0.14376,-2.11767 0.50306,-4.17341 1.32455,-8.31814 2.38473,-12.4086 0.60735,-2.24379 1.2395,-4.48278 1.92997,-6.70792 1.03793,-2.62389 3.35377,-1.66945 4.75233,0.17649 1.8267,2.5025 2.47816,5.42658 2.95886,8.323 0.26736,1.93952 0.3814,3.89336 0.41363,5.84615 -0.0149,1.73024 0.27692,1.04406 -2.99421,-0.39741 0.65238,-2.69631 1.49531,-5.3472 2.37376,-7.99284 1.0538,-2.36699 1.5989,-4.94419 3.18566,-7.09571 2.73436,-2.40356 4.88697,0.85547 5.91359,2.81905 1.30284,3.36469 1.47737,6.95607 2.01663,10.45697 0.3304,2.05662 0.61182,4.11938 0.84775,6.18607 0.14265,1.38002 0.34295,1.0839 -3.35895,0.14313 -0.18331,-0.0466 0.003,-0.33639 0.004,-0.50459 8.2e-4,-0.20048 4.2e-4,-0.40096 6.4e-4,-0.60144 0.002,-2.13771 3.43114,-2.13476 3.42877,0.003 l 0,0 c -4.7e-4,0.40318 -4e-4,1.16011 -0.005,1.16166 -3.61152,1.16545 -3.32962,1.47038 -3.48074,0.10091 -0.23173,-2.0319 -0.50884,-4.05988 -0.83378,-6.08185 -0.49575,-3.21846 -0.67424,-6.51093 -1.74944,-9.63031 -0.0554,-0.11449 -1.07942,-1.73508 -1.08587,-1.82882 -0.0123,-0.17906 1.28515,-0.11369 1.15396,-0.54461 -1.45919,1.83927 -1.70066,4.24966 -2.74629,6.266 -0.93538,2.81712 -1.735,5.65579 -2.59421,8.48941 -3.82225,-0.38692 -3.50014,0.65279 -3.50442,-0.90523 -0.0291,-1.82202 -0.13449,-3.64505 -0.37841,-5.45517 -0.40112,-2.4581 -0.89961,-4.96331 -2.43181,-7.098 -0.89569,-1.23417 0.47654,0.21002 1.21579,-0.75865 0.12498,-0.16376 0.16507,-0.3698 0.28682,-0.53544 0.0547,-0.0744 -0.0544,0.17083 -0.0816,0.25624 -0.67812,2.18446 -1.29818,4.38271 -1.89505,6.58541 -1.03479,3.96766 -1.82344,7.99129 -2.31575,12.03988 -0.0421,0.33812 -0.10286,0.67483 -0.12624,1.01436 -0.0187,0.27185 0.2858,0.71353 9e-5,0.81706 -3.99758,1.44859 -3.37854,0.83603 -3.49826,-1.04726 -0.19146,-3.22756 -0.4889,-6.45043 -1.00086,-9.65211 -0.51487,-3.16199 -0.77023,-6.41742 -1.91708,-9.45988 -1.08428,-1.91202 1.98251,-3.26402 3.06679,-1.352 z"
       id="path3032"
       style="fill:#000000;fill-opacity:1;fill-rule:nonzero;stroke:none" />
    <path
       inkscape:connector-curvature="0"
       d="m 868.56146,140.10028 c 1.46271,0 2.92542,0 4.38813,0 0.22696,0 0.45392,0 0.68088,0 -1.3229,3.73453 -0.40214,2.62859 -3.22769,2.17265 -1.04675,-0.004 -2.4536,-0.47712 -3.36853,0.10963 -1.30645,0.53743 -1.92524,1.73363 -2.3595,2.88648 -0.68608,1.90263 0.0329,3.74641 0.90927,5.49353 0.19896,0.36722 1.67451,1.76674 2.02054,0.94946 1.41189,-1.50553 1.99377,-3.56216 2.50578,-5.42859 0.38419,-1.66635 0.56589,-3.36457 0.64538,-5.06197 0.0397,-1.46885 -0.31615,-0.45818 3.48895,-0.55659 0.99582,3.56391 1.65393,7.19097 2.37426,10.8049 0.96418,5.58217 1.82155,11.212 1.81849,16.86697 -0.0185,2.95149 -0.548,6.20433 -3.87585,7.69749 -0.59314,0.26613 -1.26115,0.37531 -1.89173,0.56297 -4.92376,0.44463 -7.92291,-1.38904 -10.37288,-4.99251 -1.64233,-3.13636 -2.04848,-5.6928 0.0541,-8.69923 1.3364,-1.78364 4.19727,-0.11726 2.86088,1.66639 l 0,0 c -1.47729,1.71766 -0.8711,3.67172 0.0552,5.52235 1.38981,2.25374 3.38676,3.72674 6.44356,3.60052 3.26855,-0.56688 3.21336,-2.83136 3.298,-5.36436 0.0243,-5.47693 -0.8543,-10.93026 -1.76675,-16.33735 -0.71232,-3.57436 -1.35853,-7.16257 -2.34793,-10.68666 3.49648,-0.99616 3.32311,-1.77188 3.28753,0.0415 -0.0911,1.89676 -0.29775,3.79412 -0.74063,5.65412 -0.78004,2.78322 -1.70901,5.87439 -4.58314,7.52407 -0.54468,0.13211 -1.07093,0.35643 -1.63402,0.39631 -2.10486,0.14909 -3.82215,-1.54141 -4.78126,-2.94858 -1.21367,-2.47001 -1.99573,-5.0692 -0.99586,-7.72369 0.81423,-1.91717 1.951,-3.73344 4.16403,-4.6178 1.77678,-0.62049 3.54176,-0.60554 5.41846,-0.33168 0.31954,0.0529 3.09937,0.48451 3.0882,0.83675 -0.0319,1.0052 -0.32454,1.99073 -0.48681,2.98609 -0.22696,0 -0.45392,0 -0.68088,0 -1.46271,0 -2.92542,0 -4.38813,0 -2.42451,0 -2.42451,-3.02317 0,-3.02317 z"
       id="path3034"
       style="fill:#000000;fill-opacity:1;fill-rule:nonzero;stroke:none" />
    <path
       inkscape:connector-curvature="0"
       d="m 885.15284,139.01714 c 1.78437,-0.65074 3.60075,-1.20644 5.47878,-1.60291 2.13435,-0.47717 3.86838,-0.32085 5.6236,0.90244 1.8214,1.94072 2.32445,4.37107 2.70245,6.79479 0.38584,2.81884 0.69619,5.66817 1.30348,8.45873 0.37284,1.9034 1.08971,3.7096 2.28244,5.32874 0.74678,0.41073 1.34961,0.97298 1.88802,1.58171 0.05,0.0617 0.10002,0.12333 0.15004,0.18499 1.39853,1.74622 -1.40232,3.49008 -2.80085,1.74386 l 0,0 c -0.0213,-0.0275 -0.0427,-0.0549 -0.0641,-0.0823 -0.59528,-0.69445 -1.43809,-1.11334 -2.05758,-1.79373 -1.41352,-1.95491 -2.32038,-4.11304 -2.7672,-6.40207 -0.60141,-2.84547 -0.9499,-5.74028 -1.33188,-8.61314 -0.26232,-1.72841 -0.56452,-3.43286 -1.59507,-4.95166 -0.51099,-0.78553 -1.7297,-0.27737 -2.53898,-0.21143 -1.86873,0.39002 -3.64936,0.99351 -5.44159,1.59491 -2.35212,0.51847 -3.18372,-2.41445 -0.8316,-2.93291 z"
       id="path3036"
       style="fill:#000000;fill-opacity:1;fill-rule:nonzero;stroke:none" />
    <path
       inkscape:connector-curvature="0"
       d="m 897.71102,147.80866 c -1.47619,2.17788 -3.13049,4.26942 -4.8124,6.32916 -1.14797,1.65068 -2.58012,3.1488 -3.5353,4.8982 -0.88265,1.83814 -0.33406,1.19183 -3.76545,-0.16263 -0.22564,-2.12844 3.18826,-2.4098 3.4139,-0.28136 l 0,0 c -3.4331,-0.17029 -3.55245,0.82407 -2.73089,-0.88007 1.05851,-1.89862 2.55138,-3.56076 3.83597,-5.34158 1.57694,-1.92768 3.11572,-3.89034 4.52737,-5.91373 1.08428,-1.91202 4.15107,-0.56001 3.0668,1.35201 z"
       id="path3038"
       style="fill:#000000;fill-opacity:1;fill-rule:nonzero;stroke:none" />
    <path
       inkscape:connector-curvature="0"
       d="m 895.42517,125.63869 c -0.88451,1.71331 -1.84209,3.37149 -2.48174,5.1721 -0.20379,0.62388 -0.40272,1.25128 -0.52569,1.89204 -3.85019,-0.33113 -3.40844,0.0501 -3.39878,-2.25169 0.18241,-1.62438 0.79889,-3.1219 1.65756,-4.55377 0.26758,-0.43011 0.59967,-0.93845 0.61282,-1.448 0.27496,-0.73281 0.76359,-1.34688 1.09378,-2.05967 0.0448,-0.10174 0.0878,-0.20409 0.12971,-0.30676 -0.34468,1.06591 2.27931,-0.18747 3.39231,-0.0114 0.0442,0.007 1.64744,3.16079 1.80086,3.47686 1.04809,1.72881 1.91351,3.50511 2.41591,5.4168 0.0483,0.23563 0.0966,0.47125 0.1449,0.70687 0.42583,2.10448 -2.94965,2.63547 -3.37549,0.53098 l 0,0 c -0.0378,-0.18996 -0.0756,-0.37993 -0.11346,-0.5699 -0.43348,-1.74087 -1.30336,-3.31901 -2.2251,-4.89735 -0.41638,-0.86158 -0.83703,-1.72611 -1.28032,-2.57681 -0.099,-0.19001 -0.52659,-0.44796 -0.32497,-0.55807 0.86844,-0.4743 1.92841,-0.59734 2.90804,-0.85268 0.0377,-0.01 -0.0174,0.0676 -0.026,0.10148 -0.0772,0.23378 -0.16916,0.46325 -0.27463,0.68845 -0.11834,0.25302 -0.82084,1.8296 -0.86549,1.3019 -0.15284,0.87066 -0.45672,1.72161 -0.98536,2.47651 -0.60708,0.99978 -1.05276,2.01765 -1.25629,3.14576 -0.01,2.33141 0.55526,1.89614 -3.44676,2.04616 -0.0115,4.3e-4 0.0268,-0.25755 0.0279,-0.26532 0.14255,-0.79387 0.39385,-1.56936 0.64428,-2.34081 0.70071,-1.95132 1.71501,-3.76161 2.68526,-5.61569 1.08428,-1.91202 4.15107,-0.56002 3.0668,1.35201 z"
       id="path3040"
       style="fill:#000000;fill-opacity:1;fill-rule:nonzero;stroke:none" />
    <path
       inkscape:connector-curvature="0"
       d="m 946.79902,428.34314 c 4.2915,-0.90984 8.4083,-2.41479 12.6155,-3.62805 2.9667,-0.71419 5.7947,-1.88776 8.7339,-2.69471 1.2262,-0.34735 2.4886,-0.48381 3.7576,-0.52644 0.3507,-0.0101 0.7015,-0.008 1.0497,0.0372 -1.8838,3.26799 -1.0541,4.11022 -2.9258,2.84222 -0.9569,-0.64831 -1.9158,-1.275 -2.8879,-1.90248 -1.8213,-1.23551 -3.7257,-2.43152 -5.2062,-4.07472 -1.9572,-3.16454 -1.6512,-2.46639 2.9789,-2.48437 -10e-5,0.18181 -10e-5,0.36362 -10e-5,0.54543 -0.01,2.95592 -4.1859,2.94807 -4.1803,-0.008 l 0,0 c 7e-4,-0.22346 10e-4,-0.44693 0,-0.67039 5.3846,-0.95566 3.4434,-1.92174 4.4185,-0.0497 0.7907,1.4715 3.1117,2.09211 4.2548,3.22981 1.1507,0.74344 2.2809,1.52014 3.4382,2.25055 0.2461,0.15537 0.7738,0.1764 0.7389,0.4654 -0.1671,1.38516 -0.8508,2.65754 -1.2762,3.98631 0.3729,0.0383 -0.2225,-0.0125 -0.2703,0.0107 -0.9451,0.0286 -1.8836,0.11838 -2.7964,0.38247 -2.9229,0.78291 -5.7201,1.99211 -8.6725,2.67755 -4.3618,1.25467 -8.6293,2.81955 -13.0852,3.73447 -2.9157,0.48595 -3.6029,-3.63748 -0.6872,-4.12343 z"
       id="path3046"
       style="fill:#000000;fill-opacity:1;fill-rule:nonzero;stroke:none" />
    <path
       inkscape:connector-curvature="0"
       d="m 912.48037,352.07151 c 1.4267,0.35667 2.8533,0.71333 4.28,1.06999 0.2213,0.0553 0.4427,0.11068 0.664,0.16602 -0.6187,4.41158 0.2822,4.11138 -1.8964,4.10806 -1.4423,0.0932 -2.8032,-0.0659 -4.1834,-0.49854 -1.3075,-0.47386 -2.6604,-0.70687 -4.04103,-0.8106 -1.73971,0.29623 -2.09925,1.29461 -2.96554,2.71606 -1.28647,2.63462 -1.73804,5.42526 -1.55182,8.31966 0.42101,2.54273 1.7684,4.56871 3.96048,5.88211 2.17831,1.00526 4.60111,1.07509 6.95701,1.15799 1.0932,0.0262 2.1866,0.0174 3.2799,0.0101 2.9559,-0.0195 2.9834,4.16075 0.028,4.18022 l 0,0 c -1.1524,0.008 -2.305,0.0164 -3.4572,-0.0127 -3.1097,-0.11337 -6.26176,-0.31282 -9.06325,-1.81632 -3.25858,-2.17242 -5.36367,-5.20112 -5.87757,-9.15593 -0.20441,-3.75452 0.41238,-7.38192 2.16302,-10.75326 1.7619,-2.84942 3.34417,-4.56787 6.85483,-4.6954 1.70617,0.13864 3.38537,0.42421 5.00407,1.00191 0.9569,0.32915 1.8822,0.34828 2.8995,0.29439 2.1806,0.004 1.4005,-0.30397 0.876,4.12774 -0.2213,-0.0553 -0.4427,-0.11069 -0.6641,-0.16603 -1.4266,-0.35666 -2.8533,-0.71332 -4.2799,-1.06998 -2.8677,-0.71692 -1.8538,-4.77241 1.0139,-4.0555 z"
       id="path3048"
       style="fill:#000000;fill-opacity:1;fill-rule:nonzero;stroke:none" />
    <path
       inkscape:connector-curvature="0"
       d="m 1056.0042,318.62907 c 2.253,0.39208 4.0811,1.27901 5.4716,3.1158 1.0212,1.51386 0.9977,2.24289 0.6082,4.03931 -0.416,0.62358 -0.936,1.16636 -1.4826,1.67555 -1.0701,0.72007 -2.1417,0.70014 -3.3614,0.70637 -1.5769,0.0353 -1.0918,-0.10731 -2.9788,-1.65821 -0.2161,-1.14818 -0.1451,-2.33223 -0.1407,-3.49614 -0.058,-1.63431 -0.079,-3.09429 0.7871,-4.53482 0.9931,-1.04152 2.3895,-1.71689 3.735,-2.21639 1.5011,-0.53761 2.9546,-0.65895 4.5099,-0.40083 2.1286,0.61135 2.9547,2.32078 3.3421,4.35057 0.332,1.98942 0.1992,3.8595 -0.6204,5.70719 -0.6395,1.96387 -2.2964,2.85181 -4.1736,3.33363 -1.9152,0.35277 -3.7818,0.46517 -5.6249,-0.21584 -1.9149,-0.6398 -2.7901,-2.01657 -3.1769,-3.9204 -0.2145,-1.7353 -0.2974,-3.4747 0.064,-5.18584 0.3351,-0.99698 0.7622,-1.9607 1.2365,-2.89859 1.0091,-1.24292 2.0899,-1.4298 3.555,-1.4437 0.6016,0.003 1.2031,0.01 1.8046,0.0141 2.9559,0.0221 2.9246,4.20232 -0.031,4.18019 l 0,0 c -0.58,-0.004 -1.1601,-0.0107 -1.7402,-0.0141 -0.9188,0.005 -0.5827,0.0492 0.1404,-0.84613 -0.3545,0.69689 -0.6714,1.41327 -0.9427,2.1467 -0.1197,0.97525 -0.099,2.2423 0.032,3.33038 0.064,0.73074 -0.6865,0.1454 0.5533,0.73349 0.8763,0.35859 2.0192,0.21662 3.1357,0.0595 0.8278,-0.18515 1.0866,-0.0515 1.3697,-1.01908 0.5221,-1.05468 0.4647,-2.08121 0.3006,-3.24361 -0.038,-0.27193 -0.1659,-0.53505 -0.1533,-0.80934 0.01,-0.16485 0.4509,0.26738 0.3292,0.0482 0,-0.01 -0.4464,-0.24839 -0.488,-0.27109 0.5692,-0.23654 -1.876,0.16595 -2.0371,0.30899 -0.2643,0.0808 -2.7971,1.50866 -1.6961,0.67087 -0.069,-1.40082 0,1.98833 -0.03,2.15192 0,0.5882 0.041,2.06581 -0.04,2.26462 -2.5622,-1.76679 -2.4019,-1.26231 -1.0411,-1.30646 0.5316,-0.002 1.9705,-0.28567 0.5384,0.40942 0.2422,-0.22834 0.4699,-0.47273 0.7071,-0.70393 -0.128,2.04728 0.046,1.20592 -0.3866,0.48961 -0.6607,-1.08784 -1.9029,-1.22246 -3.0884,-1.49638 -2.8676,-0.71692 -1.8537,-4.77241 1.0139,-4.05549 z"
       id="path3050"
       style="fill:#000000;fill-opacity:1;fill-rule:nonzero;stroke:none" />
    <path
       inkscape:connector-curvature="0"
       d="m 935.92881,470.4063 c -0.29491,-7.16116 -0.35404,-14.33757 -0.39129,-21.50616 0.0267,-10.31392 -0.1467,-20.62329 0.0245,-30.93726 0.20259,-6.34183 0.54382,-12.65592 0.13214,-18.99279 -0.13274,-1.41301 -0.19328,-2.83906 -0.41888,-4.24234 -0.0767,0.0203 -0.0386,-0.99219 -0.0108,-1.39797 0.012,-0.17769 0.0271,-0.35515 0.0421,-0.53261 0.002,-0.0185 0.003,-0.037 0.005,-0.0554 0.90988,-0.60796 1.81977,-1.21591 2.72964,-1.82387 2.9481,0.2151 2.6438,4.38436 -0.3042,4.16922 l 0,0 c 0.5792,-0.63475 1.6569,-1.05336 1.732,-1.90937 -0.012,0.146 -0.024,0.292 -0.034,0.43816 -0.071,1.02516 -0.126,-0.34893 -0.03,0.46223 0.2375,1.53046 0.3289,3.08021 0.4609,4.62178 0.4166,6.45016 0.093,12.87769 -0.124,19.33248 -0.1711,10.28359 0,20.56262 -0.024,30.84617 0.036,7.03255 0.1027,14.07156 0.3692,21.09767 0.3041,2.94023 -3.85401,3.37034 -4.15814,0.43011 z"
       id="path3052"
       style="fill:#000000;fill-opacity:1;fill-rule:nonzero;stroke:none" />
    <path
       inkscape:connector-curvature="0"
       d="m 938.82392,394.66555 c -1.0646,2.27276 -2.30216,4.45903 -3.56845,6.62421 -1.41735,1.8297 -2.82269,3.66589 -4.13865,5.57076 -0.31856,0.46581 -0.62268,0.94108 -0.92264,1.41897 -1.5726,2.50287 -5.11221,0.27888 -3.53961,-2.224 l 0,0 c 0.33317,-0.52982 0.67059,-1.057 1.02448,-1.57335 1.25843,-1.81659 2.57639,-3.59535 3.97099,-5.308 1.26996,-2.15598 2.48272,-4.3463 3.55807,-6.60644 1.4834,-2.55675 5.09921,-0.4589 3.61581,2.09785 z"
       id="path3054"
       style="fill:#000000;fill-opacity:1;fill-rule:nonzero;stroke:none" />
    <path
       inkscape:connector-curvature="0"
       d="m 939.42492,392.11855 c 1.3812,2.16063 3.0046,4.12338 4.5686,6.14963 1.147,1.51182 2.3318,2.99457 3.5264,4.4689 0.1518,0.18726 0.3046,0.37374 0.4583,0.55955 1.8833,2.27829 -1.3387,4.9417 -3.222,2.66342 l 0,0 c -0.1623,-0.19639 -0.3239,-0.3934 -0.4843,-0.59132 -1.2153,-1.49997 -2.4206,-3.00855 -3.5877,-4.54644 -1.5065,-1.95205 -3.1004,-3.82957 -4.39289,-5.93689 -1.95645,-2.21579 1.17719,-4.98265 3.13359,-2.76685 z"
       id="path3056"
       style="fill:#000000;fill-opacity:1;fill-rule:nonzero;stroke:none" />
    <path
       style="fill:#000000;fill-opacity:1;fill-rule:nonzero;stroke:none"
       id="path3058"
       d="m 915.89795,115.6595 c 0.16443,7.16534 0.0928,14.34164 -4.9e-4,21.50971 -0.21456,10.31173 -0.22897,20.62255 -0.588,30.93169 -0.31807,6.33708 -0.77425,12.64392 -0.47806,18.98724 0.10698,1.41519 0.14154,2.84211 0.34154,4.24926 0.0771,-0.0189 0.0205,0.99273 -0.0147,1.39794 -0.0152,0.17744 -0.0336,0.3546 -0.0518,0.53175 -0.002,0.0185 -0.004,0.0369 -0.006,0.0553 -0.9208,0.59129 -1.84161,1.18257 -2.76242,1.77385 -2.94367,-0.26876 -2.56353,-4.43179 0.38013,-4.16298 l 0,0 c -0.59066,0.62409 -1.6758,1.023 -1.76648,1.8775 0.0148,-0.14575 0.0295,-0.29151 0.0422,-0.43746 0.0894,-1.0237 0.1196,0.35116 0.0381,-0.46161 -0.2096,-1.53454 -0.27282,-3.0857 -0.37666,-4.62941 -0.29907,-6.45668 0.14198,-12.87725 0.47607,-19.32703 0.35843,-10.27877 0.37153,-20.55926 0.58584,-30.84061 0.0919,-7.03205 0.15361,-14.0711 0.0152,-21.1009 -0.25053,-2.94528 3.91474,-3.29958 4.16526,-0.3543 z"
       inkscape:connector-curvature="0" />
    <path
       style="fill:#000000;fill-opacity:1;fill-rule:nonzero;stroke:none"
       id="path3060"
       d="m 911.62377,191.33496 c 1.1058,-2.25299 2.38298,-4.41636 3.6885,-6.55812 1.45044,-1.80358 2.88899,-3.61386 4.23943,-5.49446 0.32699,-0.45993 0.63972,-0.92958 0.94833,-1.40193 1.61793,-2.47381 5.11644,-0.18572 3.49852,2.28811 l 0,0 c -0.34277,0.52367 -0.68973,1.04461 -1.05297,1.55443 -1.29131,1.79337 -2.64145,3.54783 -4.06701,5.23479 -1.30902,2.13249 -2.56148,4.30036 -3.67782,6.54054 -1.52972,2.52931 -5.10671,0.36594 -3.57698,-2.16336 z"
       inkscape:connector-curvature="0" />
    <path
       style="fill:#000000;fill-opacity:1;fill-rule:nonzero;stroke:none"
       id="path3062"
       d="m 910.97643,193.87059 c -1.34161,-2.18543 -2.92896,-4.17742 -4.4558,-6.23183 -1.11924,-1.53246 -2.27683,-3.03654 -3.44438,-4.53238 -0.14842,-0.19 -0.29781,-0.37923 -0.44803,-0.56781 -1.84151,-2.31221 1.42845,-4.91651 3.26996,-2.60429 l 0,0 c 0.1587,0.19931 0.31662,0.39923 0.47343,0.60004 1.18779,1.52186 2.36536,3.05214 3.50429,4.61104 1.47067,1.97916 3.0301,3.8854 4.28403,6.01591 1.91577,2.25106 -1.26771,4.96039 -3.1835,2.70932 z"
       inkscape:connector-curvature="0" />
    <path
       inkscape:connector-curvature="0"
       d="m 1049.0341,291.98174 c 3.9494,-2.07667 7.8987,-4.15336 11.848,-6.23003 2.1718,-1.14196 4.3434,-2.2839 6.5151,-3.42585 2.2423,-1.1058 0.6686,-0.72907 0.2717,0.63467 -0.082,0.21018 0,-0.0152 -0.027,0.10769 7.3636,5.51074 1.8562,-5.35433 4.8281,0.32447 2.3977,4.53379 4.7943,9.06814 7.1875,13.60431 1.6084,3.05018 3.2159,6.10082 4.8216,9.15239 1.3766,2.6158 -2.3224,4.56275 -3.699,1.94733 l 0,0 c -1.6051,-3.05037 -3.212,-6.09982 -4.8198,-9.1488 -2.3954,-4.54048 -4.7944,-9.0791 -7.1942,-13.61723 -0.3508,-0.67139 -1.044,-1.98652 -1.0297,-2.0037 2.3337,-2.80345 2.7295,-3.75432 3.6203,-2.17592 0.2924,0.58937 0.4707,1.22164 0.4919,1.88334 -0.2152,1.55736 -1.1449,2.41261 -2.5058,2.99174 -2.1717,1.14193 -4.3434,2.28389 -6.5151,3.42582 -3.9493,2.07669 -7.8987,4.15337 -11.848,6.23005 -2.6163,1.37572 -4.5619,-2.32425 -1.9456,-3.69998 z"
       id="path3064"
       style="fill:#000000;fill-opacity:1;fill-rule:nonzero;stroke:none" />
    <path
       style="color:#000000;fill:#000000;fill-opacity:1;fill-rule:nonzero;stroke:none;stroke-width:1px;marker:none;visibility:visible;display:inline;overflow:visible;enable-background:accumulate"
       id="path3076"
       d="m 956.17242,439.24275 c 0.2083,6.24019 0.7298,12.47178 1.0077,18.71382 0.2077,5.24076 0.3205,10.48475 0.3831,15.72908 0.01,1.14037 0.01,0.62298 0.012,1.55218 0.017,2.95588 -4.1635,2.9795 -4.1802,0.0236 l 0,0 c 0,-0.91132 0,-0.40266 -0.012,-1.52597 -0.062,-5.19899 -0.1737,-10.39764 -0.3793,-15.5931 -0.2803,-6.30395 -0.8116,-12.59679 -1.0118,-18.89964 0,-2.95592 4.1803,-2.95592 4.1803,0 z"
       inkscape:connector-curvature="0" />
    <path
       style="color:#000000;fill:#000000;fill-opacity:1;fill-rule:nonzero;stroke:none;stroke-width:1px;marker:none;visibility:visible;display:inline;overflow:visible;enable-background:accumulate"
       id="path3078"
       d="m 956.81942,433.56077 c 3.7953,0.43106 7.4775,0.84062 10.982,2.43398 3.2369,1.57517 4.658,4.29183 4.8295,7.76625 -0.8143,4.28761 -3.8475,7.31131 -6.9078,10.17462 -1.8992,1.80597 -4.0334,3.36271 -6.5289,4.20087 -1.07,0.34199 -1.9119,0.27469 -3.0101,0.12416 -2.8706,-0.70492 -1.8737,-4.76462 0.9969,-4.0597 l 0,0 c -0.7438,0.27921 0.6841,-0.0884 0.7197,-0.0396 1.9239,-0.59168 3.5058,-1.94272 4.9685,-3.28026 2.2189,-2.07002 4.4453,-4.172 5.5818,-7.06317 0.1352,-1.87198 -0.7558,-3.2075 -2.4254,-4.0388 -3.1071,-1.52501 -6.5197,-1.58847 -9.8935,-2.09491 -2.9157,-0.48595 -2.2284,-4.60938 0.6873,-4.12343 z"
       inkscape:connector-curvature="0" />
    <path
       inkscape:transform-center-y="85.697973"
       inkscape:transform-center-x="-9.0164967"
       style="fill:#000000;fill-opacity:1;fill-rule:nonzero;stroke:none"
       id="path3080"
       d="m 934.56968,383.76213 c -2.10522,-13.55745 -4.23654,-27.10942 -6.26482,-40.67938 -4.65827,-29.54173 -8.13381,-59.24859 -11.35211,-88.9757 -1.63586,-14.59894 -2.5937,-29.26988 -4.88115,-43.78849 -0.43575,-2.21025 -0.67149,-4.47291 -1.23938,-6.65758 5.22998,-0.35249 5.07053,-1.01008 1.55496,1.93691 -2.95251,-0.14255 -2.75088,-4.31798 0.20164,-4.17544 l 0,0 c -5.35291,6.16129 1.146,-2.55967 2.2941,1.2051 0.58397,2.31582 0.88138,4.69629 1.31806,7.04083 2.29535,14.58557 3.27178,29.32193 4.90792,43.98869 3.21195,29.67107 6.68052,59.32187 11.33032,88.80777 2.04127,13.65677 4.19762,27.29347 6.29561,40.94091 0.25193,2.94511 -3.91311,3.30157 -4.16515,0.35638 z"
       inkscape:connector-curvature="0" />
    <path
       style="fill:#000000;fill-opacity:1;fill-rule:nonzero;stroke:none"
       id="path3084"
       d="m 938.49165,376.80394 c 0.94561,2.08209 1.24301,4.09211 0.50911,6.27584 -0.67522,1.69668 -1.29073,2.08808 -2.99427,2.77855 -0.74955,0.008 -1.49104,-0.11602 -2.21965,-0.28067 -1.19782,-0.47829 -1.78522,-1.3747 -2.47761,-2.37883 -0.9178,-1.2829 -0.52653,-0.96245 -0.30862,-3.39532 0.82683,-0.82551 1.84495,-1.43406 2.80896,-2.08628 1.31748,-0.96881 2.51175,-1.80884 4.18988,-1.90506 1.42007,0.23363 2.76481,1.0066 3.93565,1.83669 1.28997,0.93715 2.20922,2.06956 2.87233,3.49989 0.69439,2.10298 -0.25227,3.74866 -1.71081,5.21247 -1.45651,1.39528 -3.07622,2.33933 -5.06446,2.70338 -1.98276,0.57831 -3.64993,-0.29016 -5.1058,-1.56946 -1.37056,-1.38341 -2.51523,-2.86204 -2.99125,-4.76849 -0.55039,-1.94247 0.0938,-3.44129 1.44868,-4.83362 1.31275,-1.15493 2.7029,-2.20362 4.32018,-2.86926 1.01254,-0.28491 2.04931,-0.47516 3.09142,-0.61172 1.59543,0.13328 2.35874,0.92077 3.19583,2.12329 0.33653,0.49868 0.6696,0.99956 1.00522,1.49876 1.64731,2.45442 -1.82373,4.78406 -3.4709,2.32989 l 0,0 c -0.32352,-0.4814 -0.6448,-0.96443 -0.96889,-1.44557 -0.52191,-0.75622 -0.369,-0.45366 0.77814,-0.36071 -0.77549,0.0996 -1.54581,0.24169 -2.30459,0.43086 -0.87318,0.45061 -1.90819,1.18172 -2.73327,1.90305 -0.56761,0.46464 -0.50699,-0.48529 -0.29424,0.87042 0.19719,0.92607 0.95887,1.79006 1.71773,2.62392 0.61941,0.57956 0.6549,0.86864 1.61373,0.55732 1.16547,-0.16293 1.98119,-0.78884 2.84904,-1.57942 0.20321,-0.18459 0.34853,-0.43854 0.58218,-0.58268 0.14184,-0.0847 0.0342,0.52308 0.14598,0.29907 0.009,-0.006 -0.0462,-0.5088 -0.0515,-0.55583 0.51616,0.33694 -1.19416,-1.45631 -1.40316,-1.50879 -0.21567,-0.17282 -2.82239,-1.46056 -1.50994,-1.02316 1.1184,-0.84636 -1.64258,1.12039 -1.79467,1.1878 -0.48586,0.33139 -1.68344,1.19791 -1.89336,1.24302 0.0158,-3.11226 -0.31055,-2.69547 0.49267,-1.59625 0.30122,0.43814 1.34634,1.46691 -0.0349,0.67549 0.32518,0.0714 0.65537,0.12192 0.97998,0.1875 -1.76332,1.04794 -0.97031,0.71751 -0.62227,-0.0435 0.52632,-1.15878 -0.0623,-2.26077 -0.50401,-3.39451 -1.02371,-2.77304 2.89793,-4.22063 3.92165,-1.44759 z"
       inkscape:connector-curvature="0"
       inkscape:transform-center-x="-12.143231"
       inkscape:transform-center-y="179.4915" />
    <g
       id="g3102"
       transform="matrix(0.45129635,0,0,0.4336553,556.94819,237.75324)">
      <path
         transform="translate(339.57726,148.58317)"
         inkscape:connector-curvature="0"
         d="m 613.75612,297.5446 c -3.59017,3.59018 -7.18035,7.18036 -10.77053,10.77054 -3.45146,3.13 -6.67477,6.4977 -10.14397,9.60731 -1.35736,1.13669 -0.71329,0.61399 -1.92648,1.57514 -2.31822,1.83394 -4.9118,-1.44452 -2.59358,-3.27846 l 0,0 c 1.08964,-0.8606 0.50994,-0.39172 1.73386,-1.4131 3.41949,-3.04832 6.57062,-6.37991 9.97425,-9.44681 3.59018,-3.59018 7.18035,-7.18036 10.77053,-10.77054 2.09016,-2.09015 5.04608,0.86577 2.95592,2.95592 z"
         id="path3086"
         style="color:#000000;fill:#000000;fill-opacity:1;fill-rule:nonzero;stroke:none;stroke-width:1px;marker:none;visibility:visible;display:inline;overflow:visible;enable-background:accumulate" />
      <path
         transform="translate(339.57726,148.58317)"
         inkscape:connector-curvature="0"
         d="m 591.79268,291.11827 c 2.18981,4.48191 4.82256,8.72485 7.33103,13.03075 2.40606,4.43946 5.64096,8.2426 9.22011,11.75996 1.4578,1.45436 2.94715,2.87664 4.83969,3.73482 0.0719,0.0267 0.14378,0.0534 0.21566,0.0801 2.75254,1.0775 1.22872,4.97018 -1.52382,3.89267 l 0,0 c -0.1518,-0.0609 -0.3036,-0.12176 -0.4554,-0.18263 -2.30877,-1.09109 -4.23342,-2.72066 -6.00776,-4.5449 -3.83946,-3.78082 -7.30712,-7.87707 -9.9006,-12.63579 -2.55306,-4.38288 -5.23021,-8.70286 -7.45789,-13.26545 -1.32193,-2.64386 2.41705,-4.51335 3.73898,-1.86949 z"
         id="path3090"
         style="color:#000000;fill:#000000;fill-opacity:1;fill-rule:nonzero;stroke:none;stroke-width:1px;marker:none;visibility:visible;display:inline;overflow:visible;enable-background:accumulate" />
      <path
         transform="translate(339.57726,148.58317)"
         inkscape:connector-curvature="0"
         d="m 602.46568,291.0032 c -0.53861,4.83987 -1.13451,9.67216 -1.68603,14.51165 -0.39064,5.30951 -0.8477,10.59633 -1.51652,15.87855 -0.30327,2.27346 -0.5596,4.5535 -0.75636,6.8387 -0.25386,2.945 -4.41873,2.58599 -4.16487,-0.35901 l 0,0 c 0.20198,-2.34064 0.46343,-4.67612 0.77404,-7.0048 0.66668,-5.26523 1.11627,-10.53481 1.51032,-15.82704 0.56028,-4.91089 1.15953,-9.81511 1.71599,-14.72529 0.48595,-2.9157 4.60938,-2.22847 4.12343,0.68724 z"
         id="path3092"
         style="color:#000000;fill:#000000;fill-opacity:1;fill-rule:nonzero;stroke:none;stroke-width:1px;marker:none;visibility:visible;display:inline;overflow:visible;enable-background:accumulate" />
      <path
         transform="translate(339.57726,148.58317)"
         inkscape:connector-curvature="0"
         d="m 586.58654,304.4857 c 4.98399,0.64055 10.0096,0.86858 15.02783,1.04281 4.61126,0.15456 9.20703,0.29246 13.79676,-0.21931 0.55664,-0.0758 1.11327,-0.15156 1.66991,-0.22734 2.92905,-0.39762 3.49138,3.74469 0.56232,4.14232 l 0,0 c -0.59075,0.08 -1.18151,0.15996 -1.77227,0.23994 -4.79184,0.52693 -9.58842,0.41443 -14.40203,0.24217 -5.19954,-0.18118 -10.40738,-0.4186 -15.56976,-1.09717 -2.9157,-0.48595 -2.22846,-4.60937 0.68724,-4.12342 z"
         id="path3100"
         style="color:#000000;fill:#000000;fill-opacity:1;fill-rule:nonzero;stroke:none;stroke-width:1px;marker:none;visibility:visible;display:inline;overflow:visible;enable-background:accumulate" />
    </g>
    <path
       inkscape:connector-curvature="0"
       d="m 995.83865,267.75937 c 1.14606,-3.07869 2.67274,-6.01743 4.19465,-8.92735 1.3634,-2.6925 3.0014,-5.12979 5.4508,-6.91662 2.439,-1.58705 5.1011,-2.76828 7.8574,-3.67877 3.1215,-1.03337 5.0169,-0.67356 7.5127,1.47713 2.2178,1.95417 -0.5458,5.09064 -2.7636,3.13647 l 0,0 c -1.378,-1.25919 -1.4151,-1.26477 -3.4432,-0.64251 -2.3728,0.77631 -4.6627,1.78541 -6.7696,3.13481 -1.9664,1.26291 -3.0229,3.44521 -4.1415,5.42917 -1.3736,2.61789 -2.7161,5.2689 -3.84216,8.00154 -0.71691,2.86767 -4.77241,1.8538 -4.05549,-1.01387 z"
       id="path3108"
       style="fill:#000000;fill-opacity:1;fill-rule:nonzero;stroke:none" />
    <path
       inkscape:connector-curvature="0"
       d="m 994.21613,263.91932 c 0,-1.78331 0,-3.56662 0,-5.34993 0,-0.55649 0,-1.11298 0,-1.66946 0,-0.16817 0,-0.33635 0,-0.50452 4.44652,0.12447 4.1803,-0.88259 4.1803,1.44843 0,2.09091 0,4.18181 0,6.27271 0,1.35721 0,2.71442 0,4.07163 -0.0129,1.8662 0.33555,0.93908 -3.18182,-1.09467 1.6681,-1.50901 3.57845,-2.74232 5.44449,-3.99373 1.7615,-0.9544 3.3654,-2.17036 4.857,-3.5017 0.056,0.0159 0.5816,-0.62866 0.2766,-0.24459 1.7026,-2.41635 5.1198,-0.009 3.4173,2.40779 l 0,0 c -0.2691,0.35295 -0.5818,0.66534 -0.9144,0.95926 -1.6363,1.45325 -3.3842,2.79864 -5.3082,3.85112 -1.6815,1.12758 -3.41918,2.22553 -4.92273,3.57998 -3.98968,-1.26307 -3.85374,0.0367 -3.84854,-1.96346 0,-1.35721 0,-2.71442 0,-4.07163 0,-2.0909 0,-4.1818 0,-6.27271 0,-2.33102 -0.26622,-1.32396 4.1803,-1.44843 0,0.16817 0,0.33635 0,0.50452 0,0.55648 0,1.11297 0,1.66946 0,1.78331 0,3.56662 0,5.34993 0,2.95592 -4.1803,2.95592 -4.1803,0 z"
       id="path3110"
       style="fill:#000000;fill-opacity:1;fill-rule:nonzero;stroke:none" />
    <path
       style="color:#000000;fill:#000000;fill-opacity:1;fill-rule:nonzero;stroke:none;stroke-width:1px;marker:none;visibility:visible;display:inline;overflow:visible;enable-background:accumulate"
       id="path3112"
       d="m 537.62994,474.85561 c -0.47807,4.43421 -1.86228,8.72869 -3.31514,12.96978 -1.32657,3.91364 -2.67236,7.818 -3.76555,11.79066 -0.0402,0.0714 -0.52836,2.22836 -0.59141,2.20576 -3.62036,-1.29787 -3.34563,-0.63215 -2.74529,-2.7091 1.1481,-2.91059 2.40465,-5.78558 3.4991,-8.71309 1.31153,-2.84494 1.95558,-5.86964 2.74481,-8.85122 0.68728,-2.35224 1.79328,-4.57134 2.61222,-6.88441 0.23523,-0.69572 0.46676,-1.39335 0.64765,-2.10233 3.36486,-1.16615 3.3035,-1.30472 4.49618,1.64949 1.2081,3.64661 1.79176,7.45554 2.33837,11.22296 0.58469,3.92906 1.29815,7.83592 2.63563,11.61873 0.49846,1.15591 1.12012,2.26824 1.89506,3.29405 1.30781,1.74565 -1.43869,3.4081 -2.74649,1.66246 l 0,0 c -0.94287,-1.26627 -1.71642,-2.62718 -2.30512,-4.05762 -1.38918,-3.95282 -2.16001,-8.02828 -2.76258,-12.13366 -0.51623,-3.57607 -1.06664,-7.19238 -2.19317,-10.65781 -0.50888,-1.59338 -0.83222,-0.88792 1.91812,-2.17722 0.0706,-0.0331 -0.10135,0.24113 -0.0406,0.21159 -0.19608,0.80178 -0.46745,1.58716 -0.72827,2.37319 -0.7962,2.24221 -1.85366,4.39658 -2.54578,6.66953 -0.81254,3.0694 -1.48357,6.18195 -2.82804,9.11216 -1.07868,2.87329 -2.295,5.70239 -3.44459,8.55281 -0.0845,0.25346 0.03,0.68917 -0.25349,0.76036 -1.06579,0.26765 -3.55703,1.17265 -3.31214,0.20263 0.089,-0.35238 0.15596,-0.70911 0.25812,-1.0589 0.0776,-0.30208 0.1583,-0.60351 0.23745,-0.90527 1.10895,-4.02678 2.46938,-7.98561 3.8155,-11.95239 1.40442,-4.09163 2.74625,-8.23448 3.20153,-12.51405 0.33111,-2.08341 3.60901,-1.66249 3.27789,0.42091 z"
       inkscape:connector-curvature="0" />
    <path
       style="color:#000000;fill:#000000;fill-opacity:1;fill-rule:nonzero;stroke:none;stroke-width:1px;marker:none;visibility:visible;display:inline;overflow:visible;enable-background:accumulate"
       id="path3114"
       d="m 532.77243,488.33878 c 2.92227,0.4397 5.87778,0.62334 8.83416,0.74308 2.33896,0.0951 2.18929,3.06838 -0.14967,2.97325 l 0,0 c -3.08856,-0.12613 -6.17606,-0.32048 -9.22885,-0.78053 -2.30949,-0.34599 -1.76514,-3.28179 0.54436,-2.9358 z"
       inkscape:connector-curvature="0" />
    <path
       style="color:#000000;fill:#000000;fill-opacity:1;fill-rule:nonzero;stroke:none;stroke-width:1px;marker:none;visibility:visible;display:inline;overflow:visible;enable-background:accumulate"
       id="path3116"
       d="m 523.96303,475.192 c -1.97303,3.19754 -3.41721,6.64785 -4.49653,10.16606 -1.20572,4.78795 -1.77194,7.91929 0.84611,12.37872 1.09788,1.64364 2.75045,2.65885 4.46237,3.71698 1.92016,1.20424 0.0255,3.64512 -1.89467,2.44089 l 0,0 c -2.1434,-1.36043 -4.18271,-2.70403 -5.51785,-4.80641 -0.40285,-0.7302 -0.88532,-1.4291 -1.20858,-2.19062 -1.69891,-4.00207 -0.92067,-8.29314 0.12219,-12.33598 1.15009,-3.69869 2.64875,-7.33439 4.72535,-10.70067 1.04709,-1.88238 4.0087,-0.55134 2.96161,1.33103 z"
       inkscape:connector-curvature="0" />
    <path
       style="color:#000000;fill:#000000;fill-opacity:1;fill-rule:nonzero;stroke:none;stroke-width:1px;marker:none;visibility:visible;display:inline;overflow:visible;enable-background:accumulate"
       id="path3118"
       d="m 550.68341,472.64001 c 4.67428,2.04873 6.67917,6.40946 8.23328,10.59447 1.79055,5.57211 1.44343,10.90223 -0.58779,16.3472 -1.44701,2.81293 -0.65007,1.48964 -2.36127,3.98415 -1.23899,1.78574 -4.04857,0.21076 -2.80957,-1.57498 l 0,0 c 1.46526,-2.08338 0.77465,-0.96573 2.03702,-3.37016 1.82272,-4.70673 2.12723,-9.62485 0.5773,-14.45329 -1.19171,-3.28699 -2.63026,-6.86449 -6.13605,-8.70383 -2.22121,-0.66551 -1.17413,-3.48907 1.04708,-2.82356 z"
       inkscape:connector-curvature="0" />
    <path
       style="color:#000000;fill:#000000;fill-opacity:1;fill-rule:nonzero;stroke:none;stroke-width:1px;marker:none;visibility:visible;display:inline;overflow:visible;enable-background:accumulate"
       id="path3120"
       d="m 1055.663,477.00965 c 0.5476,3.79844 0.725,7.6286 0.8633,11.45342 0.3717,2.95752 -0.2798,6.03017 0.2482,8.96878 0.1727,0.53341 0.075,0.30163 0.2689,0.70291 0.8569,1.95851 -2.2245,3.0479 -3.0814,1.08938 l 0,0 c -0.3507,-0.83969 -0.1876,-0.3828 -0.4663,-1.37712 -0.4372,-3.0695 -0.016,-6.20323 -0.2789,-9.28746 -0.1339,-3.71631 -0.3037,-7.43789 -0.8317,-11.129 -0.3312,-2.0834 2.9467,-2.50431 3.2779,-0.42091 z"
       inkscape:connector-curvature="0" />
    <path
       style="color:#000000;fill:#000000;fill-opacity:1;fill-rule:nonzero;stroke:none;stroke-width:1px;marker:none;visibility:visible;display:inline;overflow:visible;enable-background:accumulate"
       id="path3122"
       d="m 1049.9464,474.72118 c 3.2021,-1.07864 6.5301,-1.8106 9.8877,-2.36856 2.0702,-0.41543 4.7206,-0.18776 5.1573,2.1367 0.082,0.43388 -0.068,0.87791 -0.1022,1.31688 -0.9668,2.37861 -2.9473,4.30548 -4.7855,6.18276 -1.0427,1.21624 -2.2781,2.28938 -3.6122,3.24455 -1.6096,1.04386 -0.9405,0.64827 -1.1623,-2.40929 1.5574,-0.20974 3.0492,0.17225 4.5553,0.46946 2.718,0.60123 4.798,2.13951 6.5655,4.01866 1.8927,2.41097 2.3082,4.44961 1.2464,7.23911 -1.6964,2.71535 -4.7433,4.33985 -7.7663,5.6819 -1.9572,0.80402 -3.9098,1.26838 -6.0555,1.10831 -2.3302,-0.20478 -2.008,-3.16695 0.3222,-2.96217 l 0,0 c 1.5158,0.16866 2.8822,-0.29462 4.2774,-0.81927 2.2656,-0.98644 4.6071,-2.17755 6.1147,-4.03662 0.727,-1.57204 0.4105,-2.90565 -0.6857,-4.3092 -1.2582,-1.39458 -2.756,-2.54619 -4.7298,-3.01388 -1.149,-0.22743 -2.2543,-0.5716 -3.4443,-0.42179 -1.3577,-2.88779 -1.9483,-2.44114 -1.2962,-2.87635 1.1863,-0.84271 2.2714,-1.8032 3.19,-2.88473 1.4519,-1.46862 2.9081,-2.9913 3.9997,-4.69828 0.318,-0.19877 -0.019,-0.0481 0.4201,0.003 0.069,0.008 0.1499,-0.15802 0.082,-0.1727 -0.505,-0.10954 -1.255,0.0676 -1.691,0.1301 -3.2549,0.53675 -6.4743,1.25996 -9.5778,2.30327 -2.2513,0.57816 -3.1609,-2.28361 -0.9097,-2.86177 z"
       inkscape:connector-curvature="0" />
    <path
       style="color:#000000;fill:#000000;fill-opacity:1;fill-rule:nonzero;stroke:none;stroke-width:1px;marker:none;visibility:visible;display:inline;overflow:visible;enable-background:accumulate"
       id="path3124"
       d="m 1044.1826,472.66845 c -1.5671,3.8186 -2.1403,7.83844 -2.5418,11.86626 -0.5992,4.82358 -0.079,9.48828 2.404,13.81802 1.0207,1.63019 2.5148,2.61776 4.2244,3.58554 1.9619,1.1487 0.1546,3.64255 -1.8073,2.49385 l 0,0 c -2.1671,-1.30114 -4.0925,-2.62083 -5.3728,-4.73777 -2.8958,-5.24208 -3.3418,-9.62712 -2.7461,-15.42655 0.4241,-4.21255 1.0278,-8.42027 2.6558,-12.417 0.6432,-2.02358 3.827,-1.20594 3.1838,0.81765 z"
       inkscape:connector-curvature="0" />
    <path
       style="color:#000000;fill:#000000;fill-opacity:1;fill-rule:nonzero;stroke:none;stroke-width:1px;marker:none;visibility:visible;display:inline;overflow:visible;enable-background:accumulate"
       id="path3126"
       d="m 1074.7108,471.21722 c 2.1642,3.83712 2.8463,8.04714 3.4074,12.26177 0.2247,4.02342 0.8378,8.27556 -0.4433,12.22126 -0.2305,0.71011 -0.5983,1.37823 -0.8975,2.06735 -1.7628,2.42702 -0.7428,1.32811 -3.0501,3.30423 -1.7258,1.42222 -3.9634,-0.7716 -2.2376,-2.19383 l 0,0 c 1.6516,-1.28528 0.9045,-0.55097 2.2166,-2.22301 1.9005,-4.0664 1.5024,-8.50811 1.1241,-12.82277 -0.517,-3.89271 -1.1006,-7.78814 -3.1079,-11.33292 -1.0085,-1.89929 1.9797,-3.18136 2.9883,-1.28208 z"
       inkscape:connector-curvature="0" />
    <path
       style="color:#000000;fill:#000000;fill-opacity:1;fill-rule:nonzero;stroke:none;stroke-width:1px;marker:none;visibility:visible;display:inline;overflow:visible;enable-background:accumulate"
       id="path3136"
       d="m 577.53869,108.79888 c 2.98643,-0.22093 5.76922,-1.05917 8.51843,-2.17998 2.3092,-0.93799 4.14005,-2.40743 5.77834,-4.24395 0.94098,-1.08517 1.86391,-2.18553 2.79938,-3.275436 1.92531,-2.242913 5.09727,0.479886 3.17195,2.722796 l 0,0 c -0.95596,1.11354 -1.89815,2.23862 -2.86131,3.34598 -2.0734,2.29547 -4.41924,4.14235 -7.31076,5.3218 -3.03346,1.23573 -6.12187,2.16453 -9.40879,2.43222 -2.9157,0.48595 -3.60294,-3.63748 -0.68724,-4.12343 z"
       inkscape:connector-curvature="0"
       transform="translate(339.57726,123.37371)" />
    <path
       style="color:#000000;fill:#000000;fill-opacity:1;fill-rule:nonzero;stroke:none;stroke-width:1px;marker:none;visibility:visible;display:inline;overflow:visible;enable-background:accumulate"
       id="path3160"
       d="m 939.13323,241.83893 c -2.92805,0.22682 -4.68057,2.25978 -6.05653,4.27291 -2.03043,4.07282 -2.52518,8.55091 -2.15807,12.93054 0.98303,3.6625 2.3671,5.0553 6.78836,4.29209 5.07521,-1.54113 7.34373,-4.84988 9.0794,-8.97492 1.06816,-3.67829 0.70429,-7.50498 -2.16923,-10.49287 -0.98748,-0.8473 -2.53179,-2.03739 -4.0015,-1.31664 0.0202,0.0264 0.0404,0.0528 0.0606,0.0793 -1.76114,1.37811 -4.03418,-0.75738 -2.27304,-2.13548 l 0,0 c 0.32272,-0.2103 0.64545,-0.4206 0.96817,-0.63089 3.08833,-0.92936 5.78884,0.20664 7.90533,2.22644 0.45892,0.52457 0.98751,1.00925 1.37675,1.57371 2.45105,3.55438 2.4468,7.80932 1.29875,11.69178 -2.30437,5.31428 -5.15942,8.99521 -11.72341,10.8359 -0.8894,0.0981 -1.77171,0.31287 -2.66818,0.29432 -4.82649,-0.0999 -7.28588,-3.5683 -8.00608,-7.24564 -0.37836,-4.97442 0.18851,-10.04353 2.63712,-14.62418 2.07914,-2.87688 4.72203,-5.46381 8.94157,-5.66749 2.38433,0 2.38433,2.89114 0,2.89114 z"
       inkscape:connector-curvature="0" />
    <path
       style="color:#000000;fill:#000000;fill-opacity:1;fill-rule:nonzero;stroke:none;stroke-width:1px;marker:none;visibility:visible;display:inline;overflow:visible;enable-background:accumulate"
       id="path3162"
       d="m 940.50191,233.4906 c 0.0842,4.7953 -0.0388,9.5805 -0.32221,14.36929 -0.39654,6.25115 -0.6038,12.50914 -0.72932,18.76808 -0.22176,3.12511 0.002,6.21727 0.5757,9.30131 0.16437,0.79486 0.0847,0.43047 0.2352,1.09378 0.45428,2.0069 -2.85589,2.55773 -3.31017,0.55084 l 0,0 c -0.16419,-0.7269 -0.0779,-0.33025 -0.25512,-1.19055 -0.6016,-3.25007 -0.84315,-6.51259 -0.61705,-9.80511 0.12629,-6.29125 0.33468,-12.58153 0.73316,-18.86494 0.28083,-4.73998 0.40169,-9.47622 0.31787,-14.2227 0,-2.04433 3.37194,-2.04433 3.37194,0 z"
       inkscape:connector-curvature="0" />
  </g>
</svg>
