<?xml version="1.0" encoding="UTF-8" standalone="no"?>
<!-- Created with Inkscape (http://www.inkscape.org/) -->

<svg
   xmlns:dc="http://purl.org/dc/elements/1.1/"
   xmlns:cc="http://creativecommons.org/ns#"
   xmlns:rdf="http://www.w3.org/1999/02/22-rdf-syntax-ns#"
   xmlns:svg="http://www.w3.org/2000/svg"
   xmlns="http://www.w3.org/2000/svg"
   xmlns:sodipodi="http://sodipodi.sourceforge.net/DTD/sodipodi-0.dtd"
   xmlns:inkscape="http://www.inkscape.org/namespaces/inkscape"
   width="683.13171"
   height="318.2453"
   id="svg4752"
   version="1.1"
   inkscape:version="0.48.0 r9654"
   sodipodi:docname="RimlessPlots.svg">
  <defs
     id="defs4754" />
  <sodipodi:namedview
     inkscape:document-units="mm"
     pagecolor="#ffffff"
     bordercolor="#666666"
     borderopacity="1.0"
     inkscape:pageopacity="0.0"
     inkscape:pageshadow="2"
     inkscape:zoom="0.76839755"
     inkscape:cx="382.31745"
     inkscape:cy="108.11769"
     inkscape:current-layer="layer1"
     id="namedview4756"
     showgrid="false"
     fit-margin-top="0"
     fit-margin-left="0"
     fit-margin-right="0"
     fit-margin-bottom="0"
     inkscape:window-width="1280"
     inkscape:window-height="752"
     inkscape:window-x="0"
     inkscape:window-y="0"
     inkscape:window-maximized="1" />
  <metadata
     id="metadata4758">
    <rdf:RDF>
      <cc:Work
         rdf:about="">
        <dc:format>image/svg+xml</dc:format>
        <dc:type
           rdf:resource="http://purl.org/dc/dcmitype/StillImage" />
        <dc:title></dc:title>
      </cc:Work>
    </rdf:RDF>
  </metadata>
  <g
     inkscape:label="Layer 1"
     inkscape:groupmode="layer"
     id="layer1"
     transform="translate(-180.99013,-37.323569)">
    <path
       style="fill:#000000;fill-opacity:1;fill-rule:nonzero;stroke:none"
       id="path5597"
       d="m 234.8713,319.64075 c 0.14302,-13.35127 0.28605,-26.70256 0.42907,-40.05383 -0.22283,-33.66231 -0.86885,-67.31958 -1.06874,-100.98337 -0.3299,-24.61501 0.11757,-49.22147 0.99103,-73.81952 0.2713,-7.354986 0.57525,-14.708986 0.76478,-22.066696 0.0575,-2.51867 0.0927,-5.03776 0.11625,-7.55695 -0.13152,-1.097088 0.11384,0.30007 0.47478,0.63125 -2.73975,-1.109608 -1.17052,-4.984208 1.56923,-3.874598 l 0,0 c 1.32821,0.62207 2.25146,1.71437 2.13611,3.282558 -0.0242,2.54202 -0.0595,5.08394 -0.11749,7.62542 -0.19,7.37126 -0.49397,14.73884 -0.76602,22.107376 -0.87154,24.54036 -1.31812,49.08905 -0.98846,73.64634 0.19995,33.68699 0.84769,67.36745 1.06857,101.05297 -0.14303,13.35127 -0.28606,26.70256 -0.42908,40.05383 -0.0317,2.95576 -4.21173,2.91098 -4.18006,-0.0448 z"
       inkscape:connector-curvature="0" />
    <path
       style="fill:#000000;fill-opacity:1;fill-rule:nonzero;stroke:none"
       id="path5599"
       d="m 235.9582,73.632296 c -0.71051,3.323218 -2.13224,6.448618 -3.40751,9.584368 -0.79426,1.86847 -1.41894,3.80774 -1.89379,5.78101 -0.31563,1.45135 0.30379,0.25122 -4.24221,-0.31365 0.41988,-3.21148 1.78224,-6.16737 2.72271,-9.24115 1.22046,-2.64179 1.85072,-5.497128 2.86723,-8.204988 0.47813,-1.07098 1.0482,-2.11453 1.85069,-2.97769 1.55832,-1.33568 3.13724,-0.4342 4.26774,0.67479 1.49316,1.63963 2.59272,3.58507 3.79008,5.44393 1.50273,2.342348 3.26502,4.492588 4.89375,6.745438 0.81597,1.3266 1.65767,2.63388 2.53207,3.92242 1.65791,2.44721 -1.80297,4.79184 -3.46087,2.34463 l 0,0 c -0.8486,-1.25452 -1.67972,-2.51853 -2.4589,-3.81787 -1.67304,-2.31415 -3.48435,-4.52294 -5.02208,-6.93352 -1.0545,-1.64271 -2.01969,-3.363158 -3.30889,-4.830188 -0.0883,-0.14263 0.66537,0.0822 0.50067,0.0504 -2.13223,-0.41118 0.727,-0.0202 1.27661,-0.69939 -0.38183,0.46 -0.71478,1.02825 -0.96431,1.5909 -1.05556,2.574078 -1.51423,5.403728 -2.76751,7.917778 -0.83461,2.71112 -1.96852,5.32165 -2.53967,8.10558 -4.25703,0.50049 -4.50739,1.62183 -4.00041,-0.75952 0.52746,-2.1744 1.21106,-4.31302 2.08486,-6.37397 1.20142,-2.95319 2.55887,-5.89268 3.22425,-9.023198 0.71692,-2.86766 4.77241,-1.85379 4.05549,1.01388 z"
       inkscape:connector-curvature="0" />
    <path
       inkscape:connector-curvature="0"
       d="m 237.23221,320.61435 c 0.84382,-3.2919 2.39031,-6.35748 3.79087,-9.43931 0.86889,-1.83496 1.57119,-3.74748 2.12515,-5.70002 0.37385,-1.43746 -0.29342,-0.26326 4.22613,0.4843 -0.54892,3.19196 -2.02925,6.09056 -3.09279,9.12396 -1.3259,2.59047 -2.07069,5.4181 -3.19546,8.08281 -0.52089,1.05085 -1.13254,2.07059 -1.96915,2.90072 -1.61087,1.27181 -3.15219,0.30745 -4.23709,-0.84618 -1.42589,-1.69845 -2.44619,-3.68661 -3.56768,-5.5922 -1.40715,-2.40099 -3.08138,-4.62048 -4.61803,-6.93712 -0.76186,-1.3584 -1.55021,-2.69852 -2.37199,-4.02125 -1.55797,-2.51201 1.99456,-4.71531 3.55252,-2.20329 l 0,0 c 0.79737,1.28769 1.57689,2.58415 2.30309,3.91383 1.57845,2.37967 3.29931,4.65964 4.73867,7.13021 0.98747,1.68386 1.88256,3.4418 3.11161,4.95958 0.0825,0.14607 -0.66152,-0.10894 -0.49823,-0.0705 2.11393,0.49675 -0.72722,-0.009 -1.30375,0.64739 0.40005,-0.44424 0.75562,-0.99862 1.02762,-1.55076 1.15841,-2.52946 1.7307,-5.33834 3.08425,-7.79986 0.94315,-2.67529 2.18131,-5.23802 2.86416,-7.99668 4.27373,-0.32858 4.56907,-1.43892 3.96656,0.92007 -0.61463,2.15138 -1.38384,4.26073 -2.33996,6.2848 -1.31942,2.90239 -2.79419,5.78481 -3.58515,8.88598 -0.83187,2.83645 -4.84322,1.66002 -4.01135,-1.17644 z"
       id="path5603"
       style="fill:#000000;fill-opacity:1;fill-rule:nonzero;stroke:none" />
    <path
       inkscape:connector-curvature="0"
       d="m 225.84236,195.84159 c 13.35125,0.14461 26.70252,0.28923 40.05378,0.43384 33.66233,-0.21883 67.31968,-0.86084 100.98349,-1.05673 24.61505,-0.32697 49.22146,0.12343 73.81941,0.99982 7.35495,0.27217 14.70892,0.577 22.0666,0.7674 2.51867,0.0578 5.03775,0.0933 7.55694,0.11715 1.09711,-0.13139 -0.30008,0.11381 -0.63131,0.47471 1.10994,-2.73962 4.98435,-1.16993 3.87442,1.56969 l 0,0 c -0.62223,1.32813 -1.71464,2.25125 -3.28282,2.13572 -2.54201,-0.0245 -5.08393,-0.0601 -7.6254,-0.1184 -7.37124,-0.19088 -14.73878,-0.49572 -22.10729,-0.76865 -24.54026,-0.87446 -49.08889,-1.32396 -73.64622,-0.99723 -33.68702,0.19595 -67.36755,0.83968 -101.0531,1.05655 -13.35125,-0.14462 -26.70253,-0.28924 -40.05378,-0.43385 -2.95575,-0.032 -2.91048,-4.21207 0.0453,-4.18005 z"
       id="path5605"
       style="fill:#000000;fill-opacity:1;fill-rule:nonzero;stroke:none" />
    <path
       inkscape:connector-curvature="0"
       d="m 473.15102,198.08919 c -3.26601,-0.93905 -6.28539,-2.57391 -9.32525,-4.06338 -1.80895,-0.92181 -3.70027,-1.67936 -5.6359,-2.28979 -1.42599,-0.41543 -0.27167,0.28566 0.60682,-4.21028 3.17467,0.64138 6.02907,2.20527 9.0303,3.35645 2.55088,1.40057 5.35569,2.22715 7.98661,3.42883 1.03528,0.55119 2.03682,1.19219 2.84231,2.05256 1.2245,1.64712 0.21579,3.15978 -0.96887,4.21073 -1.73914,1.37597 -3.75609,2.33809 -5.69345,3.40378 -2.44084,1.33683 -4.70801,2.9459 -7.0683,4.41462 -1.37994,0.7221 -2.7424,1.4712 -4.08843,2.25422 -2.5562,1.48437 -4.6554,-2.13065 -2.0992,-3.615 l 0,0 c 1.3103,-0.75964 2.62886,-1.50119 3.97906,-2.18847 2.42451,-1.50868 4.75349,-3.1626 7.26482,-4.52961 1.71183,-0.93815 3.49502,-1.78182 5.04784,-2.96627 0.14841,-0.0782 -0.1281,0.65807 -0.085,0.49597 0.55792,-2.09862 -0.0302,0.72665 0.60925,1.322 -0.43244,-0.41278 -0.97625,-0.78431 -1.52026,-1.07222 -2.49476,-1.23137 -5.28583,-1.885 -7.707,-3.30945 -2.64678,-1.02045 -5.17247,-2.33251 -7.91014,-3.09518 -0.20433,-4.28147 -1.30563,-4.60892 1.03487,-3.93817 2.13263,0.67685 4.21875,1.50699 6.2142,2.52148 2.86285,1.40315 5.70122,2.961 8.77812,3.84169 2.8111,0.91388 1.51867,4.88938 -1.29243,3.97549 z"
       id="path5607"
       style="fill:#000000;fill-opacity:1;fill-rule:nonzero;stroke:none" />
    <path
       style="fill:#000000;fill-opacity:1;fill-rule:nonzero;stroke:none"
       id="path5615"
       d="m 205.27247,102.15976 c -1.32519,0.36424 -2.76353,0.28982 -4.02745,0.82744 -1.27078,0.41303 -1.71908,1.41301 -2.27217,2.46475 -0.83435,1.72004 -1.00004,3.4044 -0.49068,5.21242 0.65097,1.96581 2.04787,3.24577 4.01059,4.07683 2.20739,0.80441 4.30576,0.71213 6.45901,-0.12403 1.92057,-1.13007 2.49276,-2.90351 2.89569,-4.87684 0.28835,-2.44903 -0.37299,-4.07166 -2.0928,-5.85489 -1.22321,-1.14067 -2.75776,-1.54783 -4.42065,-1.72586 -1.61967,-0.21356 -3.20772,0.0462 -4.79145,0.34437 -0.56526,0.11667 -0.30495,0.0604 -0.78145,0.16672 -1.65595,0.36862 -2.21329,-1.82183 -0.55733,-2.19045 l 0,0 c 0.53068,-0.11789 0.24256,-0.0559 0.86487,-0.18383 1.83334,-0.343486 3.68115,-0.614826 5.55366,-0.372226 2.25045,0.264196 4.30923,0.901996 5.93346,2.467366 2.27864,2.43582 3.03312,4.52009 2.65383,7.7828 -0.5877,2.73503 -1.61371,5.11635 -4.36032,6.53212 -2.91066,1.06667 -5.43654,1.14496 -8.38541,0.0704 -2.59093,-1.18117 -4.48149,-2.91843 -5.31721,-5.56671 -0.62184,-2.426 -0.43387,-4.46244 0.66669,-6.75311 0.80984,-1.53572 1.69055,-2.9329 3.50897,-3.54945 1.41145,-0.5189 2.89086,-0.63381 4.3663,-0.932176 1.65138,-0.38615 2.23523,1.798246 0.58385,2.184396 z"
       inkscape:connector-curvature="0" />
    <path
       style="fill:#000000;fill-opacity:1;fill-rule:nonzero;stroke:none"
       id="path5621"
       d="m 207.37055,93.170714 c 0.0626,2.7088 -0.0354,5.40686 -0.23124,8.108946 -0.36676,4.19579 -0.33849,8.40944 -0.61762,12.60849 -0.19516,2.91472 -0.45336,5.81171 -1.05759,8.67847 -0.11208,0.52147 -0.24497,1.03851 -0.38579,1.55369 -0.42251,1.54231 -2.75446,0.98344 -2.33195,-0.55888 l 0,0 c 0.13028,-0.47443 0.25241,-0.95077 0.35607,-1.43104 0.58569,-2.7689 0.8251,-5.56752 1.01668,-8.38286 0.28305,-4.20265 0.24673,-8.42085 0.61844,-12.62027 0.19246,-2.651396 0.28808,-5.298436 0.22572,-7.956546 0,-1.59213 2.40728,-1.59213 2.40728,0 z"
       inkscape:connector-curvature="0" />
    <path
       style="fill:#000000;fill-opacity:1;fill-rule:nonzero;stroke:none"
       id="path5651"
       d="m 222.89043,115.52213 c -1.94618,2.84669 -4.0393,5.58189 -6.25071,8.25263 -3.22873,3.80745 -6.76547,7.37084 -10.34711,10.88654 -1.56008,1.39174 -3.09841,2.80667 -4.56884,4.28181 -0.32393,0.33284 -0.20227,0.24027 0.13977,-0.42019 -0.089,1.58996 -2.49301,1.4722 -2.40398,-0.11777 l 0,0 c 0.34999,-0.88794 0.11165,-0.5954 0.50373,-0.99774 1.47675,-1.48062 3.01776,-2.90451 4.58659,-4.29942 3.52521,-3.46 7.00731,-6.966 10.1867,-10.71203 2.20434,-2.66153 4.28129,-5.3922 6.22803,-8.2248 1.02132,-1.27372 2.94715,0.0773 1.92582,1.35097 z"
       inkscape:connector-curvature="0" />
    <path
       style="fill:#000000;fill-opacity:1;fill-rule:nonzero;stroke:none"
       id="path5655"
       d="m 214.31866,130.71539 c 0.96883,-1.40579 2.43737,-2.16727 4.08182,-2.69606 1.8365,-0.26458 3.05532,-0.13978 3.91202,1.55265 0.65637,2.00917 -0.11736,3.94728 -0.80831,5.84374 -0.85466,2.10987 -1.75522,4.1989 -2.96403,6.15561 -0.75912,1.11096 -1.493,2.29147 -2.46227,3.25791 -0.45405,0.37739 -0.97468,0.66949 -1.56616,0.80331 -0.0579,0.008 -0.16984,0.0773 -0.17371,0.0227 -0.25253,-3.56551 -0.52578,-1.82815 0.94159,-2.32863 1.90361,-0.42629 3.86422,-0.51689 5.81162,-0.60803 1.71658,-0.0682 3.43487,-0.0854 5.1528,-0.0908 0.51874,-0.001 1.03749,4.7e-4 1.55623,0.002 1.7022,0.005 1.69504,2.25635 -0.007,2.25161 l 0,0 c -0.51367,-0.002 -1.02735,-0.003 -1.54103,-0.002 -1.68062,0.005 -3.3616,0.0219 -5.04093,0.0881 -1.81036,0.0842 -3.63455,0.16015 -5.40447,0.5562 -2.0058,0.34797 -1.25407,0.32372 -1.69835,-2.10971 -0.005,-0.0292 -0.0625,0.0103 -0.0937,0.0156 0.1299,-0.0464 0.24542,-0.12295 0.36227,-0.19346 0.91209,-0.68566 1.36339,-1.95993 2.08349,-2.79848 1.14514,-1.81859 1.95059,-3.78625 2.76538,-5.7485 0.50483,-1.38389 1.17882,-2.79876 0.84799,-4.28946 0.007,-0.0751 0.24631,-0.13316 0.171,-0.16017 -0.33069,-0.11862 -0.72841,-0.0662 -1.07164,-0.0876 -1.20121,0.37354 -2.24136,0.86673 -2.92859,1.91453 -1.02133,1.27371 -2.94715,-0.0773 -1.92583,-1.35098 z"
       inkscape:connector-curvature="0" />
    <path
       inkscape:connector-curvature="0"
       d="m 208.27076,249.88486 c -1.32519,0.36425 -2.76352,0.28982 -4.02744,0.82744 -1.27079,0.41304 -1.71908,1.41302 -2.27217,2.46476 -0.83435,1.72003 -1.00005,3.40439 -0.49069,5.21242 0.65098,1.9658 2.04787,3.24577 4.01059,4.07683 2.2074,0.8044 4.30577,0.71212 6.45901,-0.12404 1.92058,-1.13007 2.49276,-2.90351 2.8957,-4.87684 0.28835,-2.44902 -0.37299,-4.07166 -2.09281,-5.85488 -1.2232,-1.14068 -2.75776,-1.54783 -4.42065,-1.72586 -1.61967,-0.21356 -3.20772,0.0462 -4.79144,0.34437 -0.56527,0.11667 -0.30495,0.0604 -0.78145,0.16672 -1.65596,0.36861 -2.2133,-1.82184 -0.55734,-2.19045 l 0,0 c 0.53069,-0.11789 0.24257,-0.0559 0.86488,-0.18383 1.83334,-0.34349 3.68115,-0.61484 5.55366,-0.37223 2.25044,0.26419 4.30923,0.902 5.93346,2.46737 2.27863,2.43582 3.03312,4.52009 2.65383,7.7828 -0.5877,2.73502 -1.61371,5.11635 -4.36033,6.53211 -2.91066,1.06667 -5.43653,1.14497 -8.38541,0.0704 -2.59092,-1.18117 -4.48149,-2.91843 -5.31721,-5.56671 -0.62184,-2.42599 -0.43387,-4.46243 0.66669,-6.75311 0.80985,-1.53572 1.69056,-2.9329 3.50898,-3.54945 1.41144,-0.5189 2.89085,-0.6338 4.36629,-0.93217 1.65139,-0.38615 2.23524,1.79825 0.58385,2.18439 z"
       id="path5657"
       style="fill:#000000;fill-opacity:1;fill-rule:nonzero;stroke:none" />
    <path
       inkscape:connector-curvature="0"
       d="m 210.36885,240.89582 c 0.0626,2.7088 -0.0354,5.40686 -0.23124,8.10894 -0.36677,4.19579 -0.33849,8.40945 -0.61762,12.6085 -0.19517,2.91471 -0.45337,5.81171 -1.05759,8.67846 -0.11209,0.52147 -0.24497,1.03851 -0.3858,1.55369 -0.4225,1.54232 -2.75446,0.98344 -2.33195,-0.55887 l 0,0 c 0.13029,-0.47444 0.25241,-0.95078 0.35608,-1.43105 0.58569,-2.7689 0.82509,-5.56752 1.01668,-8.38286 0.28304,-4.20265 0.24672,-8.42084 0.61844,-12.62026 0.19245,-2.65141 0.28808,-5.29844 0.22572,-7.95655 0,-1.59214 2.40728,-1.59214 2.40728,0 z"
       id="path5659"
       style="fill:#000000;fill-opacity:1;fill-rule:nonzero;stroke:none" />
    <path
       inkscape:connector-curvature="0"
       d="m 225.88872,263.24723 c -1.94618,2.8467 -4.03929,5.5819 -6.2507,8.25263 -3.22874,3.80745 -6.76548,7.37085 -10.34711,10.88655 -1.56009,1.39173 -3.09841,2.80666 -4.56884,4.28181 -0.32393,0.33283 -0.20227,0.24026 0.13977,-0.42019 -0.089,1.58996 -2.49302,1.47219 -2.40399,-0.11777 l 0,0 c 0.35,-0.88795 0.11166,-0.5954 0.50373,-0.99774 1.47675,-1.48063 3.01776,-2.90452 4.58659,-4.29942 3.52521,-3.46 7.00732,-6.96601 10.1867,-10.71204 2.20435,-2.66152 4.28129,-5.39219 6.22803,-8.2248 1.02132,-1.27371 2.94715,0.0773 1.92582,1.35097 z"
       id="path5661"
       style="fill:#000000;fill-opacity:1;fill-rule:nonzero;stroke:none" />
    <path
       inkscape:connector-curvature="0"
       d="m 217.31695,278.4405 c 0.96883,-1.40579 2.43737,-2.16728 4.08183,-2.69607 1.83649,-0.26458 3.05531,-0.13978 3.91201,1.55266 0.65637,2.00917 -0.11736,3.94728 -0.80831,5.84373 -0.85466,2.10987 -1.75521,4.1989 -2.96403,6.15562 -0.75911,1.11095 -1.49299,2.29146 -2.46226,3.25791 -0.45406,0.37738 -0.97468,0.66948 -1.56616,0.80331 -0.0579,0.008 -0.16985,0.0773 -0.17371,0.0227 -0.25253,-3.56552 -0.52579,-1.82816 0.94159,-2.32863 1.90361,-0.42629 3.86422,-0.5169 5.81161,-0.60804 1.71659,-0.0682 3.43487,-0.0854 5.15281,-0.0908 0.51874,-10e-4 1.03748,4.7e-4 1.55623,0.002 1.7022,0.005 1.69503,2.25635 -0.007,2.25162 l 0,0 c -0.51367,-0.002 -1.02735,-0.003 -1.54103,-0.002 -1.68063,0.005 -3.3616,0.0219 -5.04093,0.0881 -1.81036,0.0842 -3.63456,0.16014 -5.40448,0.5562 -2.0058,0.34797 -1.25406,0.32371 -1.69834,-2.10972 -0.005,-0.0292 -0.0625,0.0103 -0.0937,0.0156 0.1299,-0.0464 0.24542,-0.12296 0.36227,-0.19346 0.9121,-0.68566 1.36339,-1.95993 2.0835,-2.79848 1.14513,-1.8186 1.95059,-3.78626 2.76537,-5.74851 0.50484,-1.38389 1.17883,-2.79876 0.84799,-4.28946 0.007,-0.0751 0.24632,-0.13315 0.171,-0.16017 -0.33069,-0.11861 -0.72841,-0.0662 -1.07164,-0.0876 -1.20121,0.37354 -2.24135,0.86673 -2.92859,1.91452 -1.02132,1.27371 -2.94715,-0.0773 -1.92583,-1.35097 z"
       id="path5663"
       style="fill:#000000;fill-opacity:1;fill-rule:nonzero;stroke:none" />
    <path
       style="fill:#000000;fill-opacity:1;fill-rule:nonzero;stroke:none"
       id="path5665"
       d="m 182.55853,255.95643 c 1.68921,0.34286 3.422,0.44417 5.14324,0.54491 0.80983,0.12623 1.46373,-0.0116 2.16564,-0.35802 1.52882,-0.70007 2.58732,1.32221 1.05849,2.02228 l 0,0 c -1.08158,0.47477 -2.16625,0.74508 -3.37473,0.58295 -1.86715,-0.10965 -3.74627,-0.22498 -5.57649,-0.60773 -1.65139,-0.38615 -1.06753,-2.57054 0.58385,-2.18439 z"
       inkscape:connector-curvature="0" />
    <path
       style="fill:#000000;fill-opacity:1;fill-rule:nonzero;stroke:none"
       id="path5667"
       d="m 208.59979,40.994186 c -3.33915,2.49128 -5.99813,5.53229 -8.03241,9.15491 -2.80642,5.2507 -4.05355,11.03179 -3.85676,16.94759 0.4466,3.40644 1.75064,8.276868 5.75875,8.821378 4.92782,-0.99126 8.47535,-4.901748 11.58115,-8.570708 2.60529,-3.40542 4.76369,-7.19692 5.00746,-11.54329 -0.30102,-3.4392 -2.16018,-6.25278 -4.40616,-8.74642 -0.79506,-1.37781 -3.31346,-2.04974 -4.29417,-3.07747 -0.11479,-0.12029 0.29776,0.14809 0.44664,0.22213 1.08235,-0.0709 0.52363,0.0953 1.60178,-0.70168 -1.3154,2.64711 -5.05898,0.78686 -3.74358,-1.86026 l 0,0 c 1.51045,-1.646 0.63369,-1.20325 2.47092,-1.60539 2.61839,0.60017 4.67921,2.47405 6.63842,4.2405 2.98528,3.37532 5.29212,7.20695 5.45484,11.83995 -0.45915,5.24077 -2.72266,9.83681 -5.99292,13.94155 -3.41374,3.99066 -7.54278,8.564548 -12.95327,9.719018 -0.94426,0.20148 -1.92727,0.12034 -2.89091,0.18051 -0.86017,-0.28105 -1.7788,-0.42345 -2.58051,-0.84315 -4.22939,-2.21414 -5.74113,-7.586228 -6.27714,-11.901018 -0.15349,-6.68927 1.19105,-13.21132 4.407,-19.1391 2.26436,-3.899 5.03865,-7.3515 8.70495,-10.03498 2.09015,-2.09015 5.04607,0.86577 2.95592,2.95593 z"
       inkscape:connector-curvature="0" />
    <path
       style="fill:#000000;fill-opacity:1;fill-rule:nonzero;stroke:none"
       id="path5669"
       d="m 199.04147,56.663216 c 3.63889,0.71851 7.35563,0.85767 11.05145,1.00934 3.05744,0.0854 1.56848,0.11024 4.46715,-0.0547 2.95168,-0.15826 3.17549,4.01605 0.2238,4.17431 l 0,0 c -3.25803,0.16545 -1.63708,0.14778 -4.86278,0.0572 -3.97899,-0.16409 -7.98171,-0.32274 -11.89349,-1.13063 -2.86767,-0.71692 -1.8538,-4.77241 1.01387,-4.05549 z"
       inkscape:connector-curvature="0" />
    <path
       style="fill:#000000;fill-opacity:1;fill-rule:nonzero;stroke:none"
       id="path5671"
       d="m 482.92962,209.17508 c 0.98138,4.56989 -0.0764,9.2768 -1.12839,13.73393 -1.22633,5.49571 -3.18261,10.84973 -3.70463,16.48 0.0257,3.28814 2.72869,3.37557 5.47242,3.22572 4.28104,-0.75877 8.49007,-2.08549 12.22418,-4.33798 0.396,-0.30002 0.79199,-0.60004 1.18798,-0.90006 2.36996,-1.76658 4.86827,1.58505 2.49832,3.35162 l 0,0 c -0.51847,0.38162 -1.03694,0.76324 -1.55541,1.14487 -4.39274,2.56635 -9.25505,4.21296 -14.29757,4.92146 -5.60926,-0.0634 -9.60718,-1.445 -9.69019,-7.81446 0.59812,-5.81479 2.45523,-11.36747 3.79766,-17.03688 0.90758,-3.79767 1.90099,-7.84668 1.14014,-11.75435 -0.71692,-2.86767 3.33857,-3.88154 4.05549,-1.01387 z"
       inkscape:connector-curvature="0" />
    <path
       style="fill:#000000;fill-opacity:1;fill-rule:nonzero;stroke:none"
       id="path5673"
       d="m 472.1479,223.64637 c 5.25373,-0.11269 10.48973,-0.70296 15.73842,-1.00632 3.88974,-0.17371 1.97769,-0.098 5.73608,-0.22908 2.95413,-0.10292 3.09968,4.07485 0.14555,4.17777 l 0,0 c -3.69944,0.12876 -1.81919,0.0545 -5.64068,0.22467 -5.32888,0.30734 -10.64439,0.91096 -15.97937,1.01327 -2.95593,0 -2.95593,-4.18031 0,-4.18031 z"
       inkscape:connector-curvature="0" />
    <path
       style="fill:#000000;fill-opacity:1;fill-rule:nonzero;stroke:none"
       id="path5677"
       d="m 236.41637,271.93967 c 0.4176,-2.20317 1.29555,-4.26652 1.9344,-6.4089 0.52594,-1.96864 0.46926,-4.0155 0.81712,-6.01105 0.56948,-2.80424 1.10133,-5.60298 1.94609,-8.34068 0.94689,-3.71582 2.88263,-6.91338 5.0653,-10.01374 3.34676,-4.32411 7.50217,-7.8297 11.78386,-11.18143 5.23768,-3.90495 10.72525,-7.43789 16.27391,-10.87796 7.40722,-4.5384 15.28261,-8.17989 23.24554,-11.61472 9.54764,-4.12238 19.12349,-8.1787 28.47728,-12.72992 9.71313,-4.91443 19.08828,-10.4427 28.32973,-16.18407 7.16735,-4.82677 14.52449,-9.54957 20.53396,-15.81133 5.21079,-5.53705 8.13113,-12.38804 10.5099,-19.48988 2.40505,-6.81288 3.36271,-13.92322 3.85172,-21.0902 0.20236,-2.94899 4.37286,-2.6628 4.1705,0.28618 l 0,0 c -0.519,7.52203 -1.53994,14.98486 -4.05968,22.13564 -2.59044,7.68481 -5.81055,15.08213 -11.46509,21.06184 -6.28669,6.47645 -13.844,11.47964 -21.33542,16.45867 -9.36399,5.81664 -18.86409,11.41659 -28.7074,16.39248 -9.41271,4.57528 -19.04292,8.6651 -28.65043,12.8093 -7.77496,3.3506 -15.46484,6.9012 -22.69793,11.32892 -5.42008,3.36017 -10.78176,6.80828 -15.90147,10.61802 -3.96426,3.09674 -7.82008,6.32036 -10.94326,10.2984 -1.94237,2.7464 -3.6731,5.5407 -4.49058,8.84935 -0.8158,2.57789 -1.27481,5.22867 -1.82878,7.8706 -0.45155,2.11258 -0.20531,4.35485 -0.9195,6.43223 -0.6236,2.08363 -1.48029,4.08356 -1.88427,6.22613 -0.71692,2.86766 -4.77241,1.85379 -4.0555,-1.01388 z"
       inkscape:connector-curvature="0" />
    <path
       style="fill:#000000;fill-opacity:1;fill-rule:nonzero;stroke:none"
       id="path5679"
       d="m 232.14366,271.02317 c 3.69069,0 7.38139,0 11.07209,0 1.92526,0 3.85053,0 5.77579,0 2.95592,0 2.95592,4.18031 0,4.18031 l 0,0 c -1.92526,0 -3.85053,0 -5.77579,0 -3.6907,0 -7.3814,0 -11.07209,0 -2.95593,0 -2.95593,-4.18031 0,-4.18031 z"
       inkscape:connector-curvature="0" />
    <path
       style="fill:#000000;fill-opacity:1;fill-rule:nonzero;stroke:none"
       id="path5683"
       d="m 230.75022,119.13872 c 3.3104,0 6.62079,0 9.93119,0 1.73061,0 3.46123,0 5.19184,0 2.95592,0 2.95592,4.1803 0,4.1803 l 0,0 c -1.73061,0 -3.46123,0 -5.19184,0 -3.3104,0 -6.62079,0 -9.93119,0 -2.95592,0 -2.95592,-4.1803 0,-4.1803 z"
       inkscape:connector-curvature="0" />
    <path
       style="fill:#000000;fill-opacity:1;fill-rule:nonzero;stroke:none"
       id="path5685"
       d="m 390.74646,120.25095 c 1.55227,2.01943 2.30211,4.1733 2.03543,6.70812 -0.45165,1.56664 -1.49787,2.61205 -2.98075,3.18959 -2.39342,0.59816 -3.66012,-1.23614 -4.21425,-3.24253 -0.49511,-1.92541 -0.22548,-3.56411 0.94106,-5.16416 1.24548,-1.52646 3.03657,-2.12626 4.90789,-2.44271 1.23679,-0.16137 2.48707,-0.18228 3.7328,-0.1804 1.64205,-0.12249 2.60253,1.37507 2.68171,2.82717 -0.21497,1.90416 -1.15447,3.5434 -2.02234,5.20962 -1.05253,1.68236 -2.49482,2.618 -4.40791,3.01314 -2.35332,0.39677 -4.12002,-0.85564 -5.31003,-2.74825 -0.54017,-1.10877 -0.78937,-2.28483 -0.84497,-3.50679 0.34293,-2.25922 1.93746,-3.34047 3.91453,-4.16787 1.07252,-0.35601 2.19296,-0.53605 3.31755,-0.61464 1.2465,-0.15288 2.31337,0.29557 3.15982,1.23195 0.98413,1.50113 0.77542,3.18983 0.28929,4.82399 -0.40833,1.47225 -0.96314,2.29808 -2.07328,3.32489 -2.13349,0.95184 -3.79035,-0.0446 -4.89328,-1.97089 -0.79974,-1.14938 -1.3962,-2.40669 -1.90131,-3.7083 -1.11695,-2.91831 1.93648,-3.61222 4.00265,-3.70232 1.28322,-0.0328 2.56703,-0.0197 3.85042,-0.006 2.00247,-0.10715 2.77906,1.23152 2.90424,3.00233 0.0897,1.73474 0.13006,3.35737 -0.66676,4.9375 -0.84157,1.22529 -1.98707,2.11299 -3.34038,2.69995 -1.62652,0.52665 -3.24385,0.61537 -4.89309,0.23707 -0.21517,-0.0977 -0.43035,-0.19531 -0.64553,-0.29296 -2.67899,-1.24921 -0.91235,-5.03787 1.76664,-3.78866 l 0,0 c 0.10774,0.0529 0.21547,0.10583 0.32321,0.15875 -1.24659,0.0926 1.63741,-0.0619 1.84448,-0.17441 0.52151,-0.19386 0.89192,-0.52185 1.31209,-0.9084 0.15724,0.08 0.16338,-2.16663 0.12696,-2.61151 -0.005,-0.10452 -0.11837,-0.31614 -0.0138,-0.31356 0.12162,0.003 0.0781,0.25082 0.17976,0.31765 2.03647,1.33861 2.21791,0.88395 1.05634,0.9163 -1.21234,-0.0133 -2.42506,-0.0259 -3.63728,0.003 -1.67144,0.059 -0.6999,0.28881 -0.31433,-0.94222 0.20779,-0.66341 -0.25363,-1.87091 0.0437,-1.03897 0.46313,1.20559 1.05277,2.32545 1.76883,3.4023 -0.41471,-0.0139 -0.82174,-0.10245 -0.86354,0.10714 -1.41745,1.71376 0.009,-0.22537 0.0696,-0.88408 0.0996,-0.30102 0.24944,-1.3477 0.36086,-1.0792 0.75699,0.57557 2.06907,0.40684 0.46364,0.42967 -0.67588,0.0422 -1.34614,0.15193 -2.00473,0.30865 -0.16734,0.0674 -1.09471,0.30696 -1.17643,0.41022 -0.0861,0.1088 -0.12789,0.48947 -0.19479,0.3679 -0.10437,-0.18967 0.027,-0.43213 0.0405,-0.64819 0.0201,0.57556 0.10788,1.12926 0.33253,1.66784 0.20248,0.44873 0.30443,0.76478 0.90687,0.64572 0.65122,-0.0614 0.99882,-0.29514 1.43931,-0.82987 0.52536,-1.00849 1.14662,-2.18702 1.55235,-3.12405 0.01,-0.5129 2.99043,1.45377 1.48815,1.19878 -1.02499,-0.002 -2.0537,0.0106 -3.07276,0.12917 -0.82974,0.11472 -1.72055,0.26233 -2.29367,0.92207 -0.0703,0.054 -0.14445,0.19364 -0.22073,0.14844 -0.0398,-0.0236 -0.0753,-0.15992 -0.0796,-0.11383 -0.0468,0.50222 0.10784,1.03409 0.1539,1.53082 0.11488,0.90406 -0.32272,-0.22027 -1.27137,0.30265 0.17803,-0.0387 0.25122,-0.0636 0.25435,0.24402 0.18867,-1.26031 -0.18905,-2.14265 -0.84065,-3.25563 -2.09015,-2.09015 0.86577,-5.04608 2.95593,-2.95592 z"
       inkscape:connector-curvature="0" />
    <path
       inkscape:connector-curvature="0"
       d="m 598.55793,318.24733 c 0.14302,-13.35127 0.28605,-26.70256 0.42907,-40.05383 -0.22283,-33.66231 -0.86885,-67.31958 -1.06874,-100.98337 -0.3299,-24.61501 0.11757,-49.22147 0.99103,-73.81953 0.2713,-7.354985 0.57525,-14.708985 0.76478,-22.066695 0.0575,-2.518674 0.0927,-5.037764 0.11625,-7.556954 -0.13152,-1.09709 0.11384,0.30007 0.47478,0.63125 -2.73975,-1.10961 -1.17052,-4.98421 1.56923,-3.8746 l 0,0 c 1.32821,0.62207 2.25146,1.71437 2.13611,3.28256 -0.0242,2.54202 -0.0595,5.08394 -0.11749,7.625424 -0.19,7.37126 -0.49397,14.73884 -0.76602,22.107375 -0.87154,24.54037 -1.31812,49.08906 -0.98846,73.64635 0.19995,33.68699 0.84769,67.36745 1.06857,101.05297 -0.14303,13.35127 -0.28606,26.70256 -0.42908,40.05383 -0.0317,2.95576 -4.21173,2.91098 -4.18006,-0.0448 z"
       id="path5687"
       style="fill:#000000;fill-opacity:1;fill-rule:nonzero;stroke:none" />
    <path
       inkscape:connector-curvature="0"
       d="m 599.64483,72.238861 c -0.71051,3.32322 -2.13224,6.44862 -3.40751,9.584374 -0.79426,1.86847 -1.41894,3.80774 -1.89379,5.78101 -0.31563,1.45135 0.30379,0.25122 -4.24221,-0.31365 0.41988,-3.21148 1.78224,-6.16737 2.72271,-9.241154 1.22046,-2.64179 1.85072,-5.49713 2.86723,-8.20499 0.47813,-1.07098 1.0482,-2.11453 1.85069,-2.97769 1.55832,-1.335681 3.13724,-0.434201 4.26774,0.67479 1.49316,1.63963 2.59272,3.58507 3.79008,5.44393 1.50273,2.34235 3.26502,4.49259 4.89375,6.74544 0.81597,1.326604 1.65767,2.633884 2.53207,3.922424 1.65791,2.44721 -1.80297,4.79184 -3.46087,2.34463 l 0,0 c -0.8486,-1.25452 -1.67972,-2.51853 -2.4589,-3.81787 -1.67304,-2.314154 -3.48435,-4.522944 -5.02208,-6.933524 -1.0545,-1.64271 -2.01969,-3.36316 -3.30889,-4.83019 -0.0883,-0.14263 0.66537,0.0822 0.50067,0.0504 -2.13223,-0.41118 0.727,-0.0202 1.27661,-0.69939 -0.38183,0.46 -0.71478,1.02825 -0.96431,1.5909 -1.05556,2.57408 -1.51423,5.40373 -2.76751,7.91778 -0.83461,2.711124 -1.96852,5.321654 -2.53967,8.105584 -4.25703,0.50049 -4.50739,1.62183 -4.00041,-0.75952 0.52746,-2.1744 1.21106,-4.31302 2.08486,-6.373974 1.20142,-2.95319 2.55887,-5.89268 3.22425,-9.0232 0.71692,-2.86766 4.77241,-1.85379 4.05549,1.01388 z"
       id="path5689"
       style="fill:#000000;fill-opacity:1;fill-rule:nonzero;stroke:none" />
    <path
       style="fill:#000000;fill-opacity:1;fill-rule:nonzero;stroke:none"
       id="path5691"
       d="m 600.91884,319.22093 c 0.84382,-3.2919 2.39031,-6.35748 3.79087,-9.43931 0.86889,-1.83496 1.57119,-3.74748 2.12515,-5.70002 0.37385,-1.43746 -0.29342,-0.26326 4.22613,0.4843 -0.54892,3.19196 -2.02925,6.09056 -3.09279,9.12396 -1.3259,2.59047 -2.07069,5.4181 -3.19546,8.08281 -0.52089,1.05085 -1.13254,2.07059 -1.96915,2.90072 -1.61087,1.27181 -3.15219,0.30745 -4.23709,-0.84618 -1.42589,-1.69845 -2.44619,-3.68661 -3.56768,-5.5922 -1.40715,-2.40099 -3.08138,-4.62048 -4.61803,-6.93712 -0.76186,-1.3584 -1.55021,-2.69852 -2.37199,-4.02125 -1.55797,-2.51201 1.99456,-4.71531 3.55252,-2.20329 l 0,0 c 0.79737,1.28769 1.57689,2.58415 2.30309,3.91383 1.57845,2.37967 3.29931,4.65964 4.73867,7.13021 0.98747,1.68386 1.88256,3.4418 3.11161,4.95958 0.0825,0.14607 -0.66152,-0.10894 -0.49823,-0.0705 2.11393,0.49675 -0.72722,-0.009 -1.30375,0.64739 0.40005,-0.44424 0.75562,-0.99862 1.02762,-1.55076 1.15841,-2.52946 1.7307,-5.33834 3.08425,-7.79986 0.94315,-2.67529 2.18131,-5.23802 2.86416,-7.99668 4.27373,-0.32858 4.56907,-1.43892 3.96656,0.92007 -0.61463,2.15138 -1.38384,4.26073 -2.33996,6.2848 -1.31942,2.90239 -2.79419,5.78481 -3.58515,8.88598 -0.83187,2.83645 -4.84322,1.66002 -4.01135,-1.17644 z"
       inkscape:connector-curvature="0" />
    <path
       style="fill:#000000;fill-opacity:1;fill-rule:nonzero;stroke:none"
       id="path5693"
       d="m 589.52899,194.44817 c 13.35125,0.14461 26.70252,0.28923 40.05378,0.43384 33.66233,-0.21883 67.31968,-0.86084 100.98349,-1.05673 24.61505,-0.32697 49.22146,0.12343 73.81941,0.99982 7.35495,0.27217 14.70892,0.577 22.0666,0.7674 2.51867,0.0578 5.03775,0.0933 7.55694,0.11715 1.09711,-0.13139 -0.30008,0.11381 -0.63131,0.47471 1.10994,-2.73962 4.98435,-1.16993 3.87442,1.56969 l 0,0 c -0.62223,1.32813 -1.71464,2.25125 -3.28282,2.13572 -2.54201,-0.0245 -5.08393,-0.0601 -7.6254,-0.1184 -7.37124,-0.19088 -14.73878,-0.49572 -22.10729,-0.76865 -24.54026,-0.87446 -49.08889,-1.32396 -73.64622,-0.99723 -33.68702,0.19595 -67.36755,0.83968 -101.0531,1.05655 -13.35125,-0.14462 -26.70253,-0.28924 -40.05378,-0.43385 -2.95575,-0.032 -2.91048,-4.21207 0.0453,-4.18005 z"
       inkscape:connector-curvature="0" />
    <path
       style="fill:#000000;fill-opacity:1;fill-rule:nonzero;stroke:none"
       id="path5695"
       d="m 836.83765,196.69577 c -3.26601,-0.93905 -6.28539,-2.57391 -9.32525,-4.06338 -1.80895,-0.92181 -3.70027,-1.67936 -5.6359,-2.28979 -1.42599,-0.41543 -0.27167,0.28566 0.60682,-4.21028 3.17467,0.64138 6.02907,2.20527 9.0303,3.35645 2.55088,1.40057 5.35569,2.22715 7.98661,3.42883 1.03528,0.55119 2.03682,1.19219 2.84231,2.05256 1.2245,1.64712 0.21579,3.15978 -0.96887,4.21073 -1.73914,1.37597 -3.75609,2.33809 -5.69345,3.40378 -2.44084,1.33683 -4.70801,2.9459 -7.0683,4.41462 -1.37994,0.7221 -2.7424,1.4712 -4.08843,2.25422 -2.5562,1.48437 -4.6554,-2.13065 -2.0992,-3.615 l 0,0 c 1.3103,-0.75964 2.62886,-1.50119 3.97906,-2.18847 2.42451,-1.50868 4.75349,-3.1626 7.26482,-4.52961 1.71183,-0.93815 3.49502,-1.78182 5.04784,-2.96627 0.14841,-0.0782 -0.1281,0.65807 -0.085,0.49597 0.55792,-2.09862 -0.0302,0.72665 0.60925,1.322 -0.43244,-0.41278 -0.97625,-0.78431 -1.52026,-1.07222 -2.49476,-1.23137 -5.28583,-1.885 -7.707,-3.30945 -2.64678,-1.02045 -5.17247,-2.33251 -7.91014,-3.09518 -0.20433,-4.28147 -1.30563,-4.60892 1.03487,-3.93817 2.13263,0.67685 4.21875,1.50699 6.2142,2.52148 2.86285,1.40315 5.70122,2.961 8.77812,3.84169 2.8111,0.91388 1.51867,4.88938 -1.29243,3.97549 z"
       inkscape:connector-curvature="0" />
    <path
       inkscape:connector-curvature="0"
       d="m 846.61625,207.78166 c 0.98138,4.56989 -0.0764,9.2768 -1.12839,13.73393 -1.22633,5.49571 -3.18261,10.84973 -3.70463,16.48 0.0257,3.28814 2.72869,3.37557 5.47242,3.22572 4.28104,-0.75877 8.49007,-2.08549 12.22418,-4.33798 0.396,-0.30002 0.79199,-0.60004 1.18798,-0.90006 2.36996,-1.76658 4.86827,1.58505 2.49832,3.35162 l 0,0 c -0.51847,0.38162 -1.03694,0.76324 -1.55541,1.14487 -4.39274,2.56635 -9.25505,4.21296 -14.29757,4.92146 -5.60926,-0.0634 -9.60718,-1.445 -9.69019,-7.81446 0.59812,-5.81479 2.45523,-11.36747 3.79766,-17.03688 0.90758,-3.79767 1.90099,-7.84668 1.14014,-11.75435 -0.71692,-2.86767 3.33857,-3.88154 4.05549,-1.01387 z"
       id="path5719"
       style="fill:#000000;fill-opacity:1;fill-rule:nonzero;stroke:none" />
    <path
       inkscape:connector-curvature="0"
       d="m 835.83453,222.25295 c 5.25373,-0.11269 10.48973,-0.70296 15.73842,-1.00632 3.88974,-0.17371 1.97769,-0.098 5.73608,-0.22908 2.95413,-0.10292 3.09968,4.07485 0.14555,4.17777 l 0,0 c -3.69944,0.12876 -1.81919,0.0545 -5.64068,0.22467 -5.32888,0.30734 -10.64439,0.91096 -15.97937,1.01327 -2.95593,0 -2.95593,-4.18031 0,-4.18031 z"
       id="path5721"
       style="fill:#000000;fill-opacity:1;fill-rule:nonzero;stroke:none" />
    <path
       style="fill:#000000;fill-opacity:1;fill-rule:nonzero;stroke:none"
       id="path5731"
       d="m 572.84463,43.404521 c -2.69764,4.010272 -5.01482,8.20992 -7.04129,12.592158 -1.26458,3.4713 -3.60959,7.567588 -2.2491,11.328512 1.78531,1.34792 4.02699,-1.662459 5.12183,-2.806561 3.10399,-3.667881 4.90186,-8.183567 6.53117,-12.648532 0.35283,-1.040904 0.43295,-1.247027 0.72678,-2.208582 0.0229,-0.07507 0.46873,-1.730994 0.58643,-1.667957 1.26166,0.675749 2.25783,1.759539 3.38674,2.639309 -1.09206,2.952087 -1.61662,6.015967 -1.69908,9.153612 0.30612,2.060313 0.84619,6.938361 3.14968,7.729011 2.6066,-0.28586 3.97678,-3.721764 4.94768,-5.760868 1.71545,-4.036424 2.21469,-8.351402 1.97208,-12.690384 -0.11911,-2.372304 -1.27224,-4.133977 -2.47742,-6.054961 -0.27399,-0.436696 -0.54801,-0.873373 -0.82207,-1.310019 -1.57143,-2.503616 1.96922,-4.725951 3.54064,-2.222335 l 0,0 c 0.27422,0.436888 0.54839,0.873808 0.82253,1.310746 1.57646,2.512764 2.95573,4.987982 3.1107,8.053887 0.25813,5.0504 -0.35102,10.06424 -2.38813,14.743352 -2.17414,4.386202 -5.33087,9.376472 -10.96656,7.446952 -0.58522,-0.43648 -1.24443,-0.78826 -1.75567,-1.30945 -2.47273,-2.52081 -2.88454,-6.80462 -3.31153,-10.07245 0.13865,-3.661898 0.71692,-7.253707 2.04503,-10.687374 1.33405,0.409142 2.62966,0.975662 4.00214,1.227426 0.16198,0.02971 0.0297,-0.529441 0.17926,-0.460396 0.17187,0.07937 -1.15493,3.478371 -1.12286,3.575251 -1.83827,5.024016 -3.91375,10.068614 -7.47599,14.143843 -3.74924,3.73936 -8.46428,6.94374 -12.11357,1.05688 -1.35037,-5.162498 0.45481,-9.508751 2.46566,-14.26484 2.04587,-4.416095 4.33981,-8.684705 7.09594,-12.70572 1.32193,-2.643858 5.06091,-0.774368 3.73898,1.86949 z"
       inkscape:connector-curvature="0" />
    <path
       inkscape:connector-curvature="0"
       d="m 551.21862,153.02658 c -1.97533,2.68922 -3.67208,5.50541 -5.15595,8.44407 -0.92599,2.32778 -2.64311,5.07468 -1.64689,7.59668 1.30729,0.9039 2.94874,-1.1148 3.75044,-1.88203 2.27288,-2.4596 3.58936,-5.48774 4.78242,-8.48187 0.25836,-0.698 0.31702,-0.83623 0.53218,-1.48102 0.0167,-0.0504 0.34323,-1.16077 0.42941,-1.11851 0.92385,0.45315 1.65329,1.17992 2.47993,1.76987 -0.79966,1.97962 -1.18376,4.03421 -1.24414,6.13824 0.22415,1.38162 0.61961,4.65274 2.30633,5.18293 1.90867,-0.19168 2.91198,-2.49573 3.62292,-3.86311 1.25613,-2.70677 1.6217,-5.60031 1.44405,-8.50995 -0.0872,-1.59082 -0.93159,-2.77217 -1.81407,-4.06035 -0.20064,-0.29283 -0.40129,-0.58566 -0.60196,-0.87847 -1.15068,-1.67888 1.44194,-3.16914 2.59261,-1.49026 l 0,0 c 0.2008,0.29297 0.40156,0.58596 0.6023,0.87897 1.15436,1.68501 2.16432,3.34485 2.2778,5.40078 0.189,3.38671 -0.25704,6.7489 -1.7487,9.88662 -1.592,2.94131 -3.90351,6.28769 -8.03023,4.99379 -0.42852,-0.29269 -0.91123,-0.52858 -1.28558,-0.87809 -1.81065,-1.69041 -2.1122,-4.56305 -2.42486,-6.7544 0.10148,-2.4556 0.52497,-4.8642 1.49747,-7.16675 0.97685,0.27435 1.92556,0.65425 2.93055,0.82309 0.11861,0.0199 0.0218,-0.35504 0.13127,-0.30874 0.12585,0.0532 -0.8457,2.33254 -0.82221,2.3975 -1.34607,3.36902 -2.86583,6.75183 -5.47426,9.4846 -2.74537,2.50755 -6.19794,4.65635 -8.87012,0.70872 -0.98881,-3.46187 0.33303,-6.3764 1.80547,-9.56573 1.49808,-2.96136 3.17781,-5.82381 5.19597,-8.52024 0.96798,-1.77291 3.70583,-0.51927 2.73785,1.25366 z"
       id="path5733"
       style="fill:#000000;fill-opacity:1;fill-rule:nonzero;stroke:none" />
    <path
       style="fill:#000000;fill-opacity:1;fill-rule:nonzero;stroke:none"
       id="path5737"
       d="m 571.01071,166.52771 c 0,2.13204 0,4.26409 0,6.39613 0,0.77646 0,1.55292 0,2.32938 -2.38567,2.75428 -3.06101,0.28841 -3.06101,-0.89611 0.22553,-1.64494 0.79317,-3.19399 1.57477,-4.68131 0.61416,-1.21331 1.37534,-2.32263 2.36257,-3.3088 0.55816,-0.62225 1.3671,-0.84149 2.21079,-0.89009 0.42001,-0.006 0.84013,0.006 1.25997,0.0171 0.60721,0.003 0.51817,0.1061 1.41083,0.4928 0.89224,0.66803 1.10886,1.66868 1.26106,2.65918 0.12984,1.32268 0.12556,2.65267 0.13039,3.97956 0.11252,0.79178 0.4948,1.419 0.99952,2.04656 0.23481,0.27465 0.11778,0.1007 0.57355,0.15483 2.13935,0.30107 1.6744,3.07178 -0.46494,2.77072 l 0,0 c -1.0228,-0.15484 -1.96969,-0.44926 -2.58336,-1.27576 -0.87629,-1.11151 -1.47387,-2.29792 -1.58577,-3.68708 -0.004,-1.20686 -10e-4,-2.41591 -0.10379,-3.61988 -0.0816,-0.62303 0.05,-0.68511 -0.30704,-0.97183 1.32265,0.40311 1.02309,0.24822 0.58705,0.25312 -0.33824,-0.008 -0.6765,-0.0161 -1.01484,-0.0201 -0.50388,0.0151 0.49093,-0.42971 -0.12438,-0.007 -0.79644,0.78206 -1.37214,1.6666 -1.86109,2.63737 -0.60142,1.10585 -0.99497,2.24218 -1.2643,3.45118 0,1.18452 -0.67534,3.65039 -3.06101,0.89612 0,-0.77646 0,-1.55292 0,-2.32938 0,-2.13205 0,-4.2641 0,-6.39614 0,-1.98219 3.06101,-1.98219 3.06101,0 z"
       inkscape:connector-curvature="0" />
    <path
       style="fill:#000000;fill-opacity:1;fill-rule:nonzero;stroke:none"
       id="path5739"
       d="m 535.71566,104.45349 c -1.97533,2.68921 -3.67208,5.50542 -5.15596,8.44408 -0.92598,2.32779 -2.64311,5.07468 -1.64689,7.59669 1.30728,0.90389 2.94875,-1.11482 3.75044,-1.88203 2.27288,-2.45961 3.58937,-5.48775 4.78242,-8.48187 0.25836,-0.69802 0.31702,-0.83624 0.53218,-1.48103 0.0167,-0.0504 0.34323,-1.16079 0.42942,-1.11851 0.92384,0.45314 1.65328,1.17992 2.47992,1.76987 -0.79966,1.97963 -1.18376,4.0342 -1.24414,6.13825 0.22415,1.3816 0.61962,4.65274 2.30634,5.18293 1.90867,-0.19169 2.91198,-2.49575 3.62291,-3.86314 1.25614,-2.70674 1.6217,-5.60029 1.44405,-8.50993 -0.0872,-1.59082 -0.93159,-2.77217 -1.81408,-4.06035 -0.20063,-0.29284 -0.40128,-0.58566 -0.60195,-0.87848 -1.15068,-1.67888 1.44195,-3.16913 2.59261,-1.49025 l 0,0 c 0.2008,0.29297 0.40156,0.58596 0.6023,0.87896 1.15436,1.68502 2.16432,3.34485 2.2778,5.4008 0.18901,3.3867 -0.25703,6.74888 -1.7487,9.88661 -1.59201,2.94131 -3.90351,6.28769 -8.03023,4.9938 -0.42852,-0.2927 -0.91122,-0.5286 -1.28558,-0.8781 -1.81064,-1.69041 -2.11219,-4.56305 -2.42485,-6.7544 0.10148,-2.4556 0.52496,-4.8642 1.49746,-7.16675 0.97686,0.27435 1.92556,0.65426 2.93056,0.82308 0.1186,0.0199 0.0218,-0.35503 0.13126,-0.30873 0.12586,0.0532 -0.84569,2.33253 -0.82221,2.3975 -1.34606,3.36902 -2.86583,6.75182 -5.47426,9.4846 -2.74537,2.50755 -6.19794,4.65634 -8.87012,0.70872 -0.9888,-3.46188 0.33304,-6.37639 1.80547,-9.56574 1.49808,-2.96135 3.17781,-5.8238 5.19597,-8.52022 0.96798,-1.77292 3.70584,-0.51928 2.73786,1.25364 z"
       inkscape:connector-curvature="0" />
    <path
       inkscape:connector-curvature="0"
       d="m 555.50775,117.95463 c 0,2.13204 0,4.26409 0,6.39614 0,0.77646 0,1.55292 0,2.32937 -2.38567,2.75429 -3.06101,0.28841 -3.06101,-0.89611 0.22551,-1.64493 0.79317,-3.19399 1.57477,-4.68132 0.61416,-1.21331 1.37534,-2.32262 2.36256,-3.30878 0.55816,-0.62225 1.36709,-0.84151 2.2108,-0.8901 0.42,-0.006 0.84013,0.006 1.25997,0.0171 0.60721,0.003 0.51816,0.10609 1.41083,0.4928 0.89223,0.66803 1.10886,1.66869 1.26106,2.65918 0.12983,1.32268 0.12556,2.65267 0.13038,3.97956 0.11252,0.79179 0.4948,1.41901 0.99951,2.04655 0.23482,0.27465 0.11779,0.10071 0.57356,0.15483 2.13934,0.30108 1.67441,3.07181 -0.46494,2.77073 l 0,0 c -1.0228,-0.15484 -1.96969,-0.44925 -2.58337,-1.27576 -0.87627,-1.11151 -1.47385,-2.29793 -1.58576,-3.68708 -0.004,-1.20685 -10e-4,-2.41591 -0.10379,-3.61988 -0.0815,-0.62303 0.05,-0.68512 -0.30705,-0.97183 1.32265,0.40312 1.0231,0.24822 0.58707,0.25312 -0.33824,-0.008 -0.67651,-0.0161 -1.01484,-0.02 -0.50389,0.0151 0.49092,-0.42971 -0.12438,-0.007 -0.79645,0.78205 -1.37215,1.66661 -1.86109,2.63737 -0.60143,1.10585 -0.99498,2.24218 -1.2643,3.45117 0,1.18452 -0.67534,3.6504 -3.06101,0.89613 0,-0.77646 0,-1.55293 0,-2.32939 0,-2.13204 0,-4.26409 0,-6.39613 0,-1.9822 3.06101,-1.9822 3.06101,0 z"
       id="path5741"
       style="fill:#000000;fill-opacity:1;fill-rule:nonzero;stroke:none" />
    <path
       style="fill:#000000;fill-opacity:1;fill-rule:nonzero;stroke:none"
       id="path5743"
       d="m 572.92984,116.5685 c 0.18819,1.97384 0.0495,3.96265 -0.007,5.94076 -0.032,1.16182 -0.0558,2.32375 -0.0671,3.48588 -0.002,0.33334 -10e-4,0.17966 -0.003,0.46105 -0.0111,1.98218 -3.0721,1.96774 -3.06096,-0.0145 l 0,0 c 10e-4,-0.28835 6e-4,-0.13113 0.003,-0.47166 0.0114,-1.17811 0.0356,-2.35603 0.068,-3.53382 0.0491,-1.7289 0.11827,-3.45817 0.0971,-5.18789 -0.52496,-1.92301 2.44466,-2.60289 2.96962,-0.67989 z"
       inkscape:connector-curvature="0" />
    <path
       style="fill:#000000;fill-opacity:1;fill-rule:nonzero;stroke:none"
       id="path5745"
       d="m 567.0807,120.81983 c 1.90839,0.40437 3.86333,0.55351 5.81251,0.67915 1.39,0.0813 2.78265,0.10205 4.17503,0.10786 0.43301,10e-4 0.86603,-1.2e-4 1.29903,-0.001 2.16446,-0.005 2.1727,2.7979 0.009,2.80323 l 0,0 c -0.44048,0.001 -0.88096,0.002 -1.32144,0.001 -1.45953,-0.006 -2.91933,-0.0288 -4.37629,-0.11479 -2.12675,-0.13774 -4.25891,-0.30788 -6.33949,-0.75588 -2.09985,-0.48076 -1.35744,-3.2003 0.7424,-2.71955 z"
       inkscape:connector-curvature="0" />
    <path
       style="fill:#000000;fill-opacity:1;fill-rule:nonzero;stroke:none"
       id="path5747"
       d="m 586.19423,114.69968 c 0.66654,2.2651 0.3566,4.61736 0.21206,6.92521 -0.11049,1.80051 -0.21453,3.60159 -0.26869,5.40435 -0.0598,1.98145 -3.11962,1.90403 -3.05985,-0.0774 l 0,0 c 0.0555,-1.83048 0.1599,-3.65929 0.27256,-5.48747 0.12689,-2.02541 0.44205,-4.09484 -0.1257,-6.08479 -0.52496,-1.92301 2.44466,-2.6029 2.96962,-0.67989 z"
       inkscape:connector-curvature="0" />
    <path
       style="fill:#000000;fill-opacity:1;fill-rule:nonzero;stroke:none"
       id="path5749"
       d="m 576.19493,144.29763 c 1.06113,2.14523 1.43048,4.50257 1.71888,6.82264 0.16779,1.45545 0.23648,2.91847 0.25275,4.38132 0.10632,0.95865 -0.23523,1.71637 -1.10929,2.29126 -1.91083,0.93108 -3.34864,-1.54368 -1.43781,-2.47474 l 0,0 c -0.65786,0.57951 -0.49868,1.68779 -0.51376,0.21158 -0.0148,-1.36705 -0.0778,-2.73431 -0.23353,-4.09456 -0.24422,-1.99404 -0.53817,-4.02793 -1.4151,-5.88385 -0.96798,-1.77292 1.76988,-3.02658 2.73786,-1.25365 z"
       inkscape:connector-curvature="0" />
    <path
       style="fill:#000000;fill-opacity:1;fill-rule:nonzero;stroke:none"
       id="path5753"
       d="m 570.33961,148.83585 c 1.9445,0.41034 3.936,0.56474 5.92284,0.67841 1.74784,0.13142 3.46053,0.14654 5.18483,-0.13608 2.13142,-0.34507 2.6643,2.41536 0.53289,2.76043 l 0,0 c -1.96562,0.31488 -3.92054,0.32687 -5.90969,0.17337 -2.17225,-0.12568 -4.34894,-0.30082 -6.47327,-0.7566 -2.09984,-0.48075 -1.35743,-3.20029 0.7424,-2.71953 z"
       inkscape:connector-curvature="0" />
    <path
       style="fill:#000000;fill-opacity:1;fill-rule:nonzero;stroke:none"
       id="path5757"
       d="m 555.60783,101.97797 c 2.05256,-0.11029 4.1545,0.19485 6.19006,-0.0988 0.88937,-0.16732 1.76942,-0.37063 2.65692,-0.5466 2.11551,-0.41918 2.76282,2.32066 0.64731,2.73983 l 0,0 c -0.96441,0.19096 -1.91925,0.41865 -2.88948,0.58416 -2.18901,0.24818 -4.40279,0.0749 -6.60481,0.12469 -2.16446,0 -2.16446,-2.80323 0,-2.80323 z"
       inkscape:connector-curvature="0" />
    <path
       style="fill:#000000;fill-opacity:1;fill-rule:nonzero;stroke:none"
       id="path5771"
       d="m 601.38005,161.37048 c 2.18282,4.50102 6.34341,7.62356 10.29728,10.48665 9.75273,5.87276 21.20696,5.89122 32.21563,5.35396 14.4395,-1.49359 28.26308,-6.25849 41.07193,-12.99856 2.68023,-1.41035 5.26032,-3.00333 7.89048,-4.50499 11.85635,-7.25575 22.04046,-16.75727 30.25317,-27.93169 0.65978,-1.07089 1.31957,-2.14178 1.97936,-3.21267 1.5551,-2.5138 5.11014,-0.31455 3.55504,2.19924 l 0,0 c -0.72309,1.1645 -1.44617,2.329 -2.16926,3.4935 -8.58827,11.62314 -19.16748,21.54627 -31.54758,29.08302 -2.71431,1.54591 -5.37708,3.18606 -8.14294,4.63774 -13.31423,6.98808 -27.68762,11.89545 -42.69125,13.40998 -12.27009,0.57112 -24.0469,0.43879 -34.87305,-6.14856 -4.48814,-3.27598 -9.11177,-6.86939 -11.57779,-11.99813 -1.32192,-2.64386 2.41706,-4.51335 3.73898,-1.86949 z"
       inkscape:connector-curvature="0" />
    <path
       inkscape:connector-curvature="0"
       d="m 725.17095,124.43126 c 1.55227,2.01943 2.30211,4.17331 2.03543,6.70813 -0.45165,1.56664 -1.49787,2.61205 -2.98075,3.18959 -2.39342,0.59816 -3.66012,-1.23614 -4.21425,-3.24253 -0.49511,-1.92541 -0.22548,-3.56412 0.94106,-5.16417 1.24548,-1.52646 3.03657,-2.12626 4.90789,-2.44271 1.23679,-0.16137 2.48707,-0.18228 3.7328,-0.1804 1.64205,-0.12249 2.60253,1.37507 2.68171,2.82717 -0.21497,1.90417 -1.15447,3.54341 -2.02234,5.20963 -1.05253,1.68236 -2.49482,2.618 -4.40791,3.01314 -2.35332,0.39677 -4.12002,-0.85564 -5.31003,-2.74825 -0.54017,-1.10877 -0.78937,-2.28483 -0.84497,-3.50679 0.34293,-2.25923 1.93746,-3.34048 3.91453,-4.16788 1.07252,-0.35601 2.19296,-0.53605 3.31755,-0.61464 1.2465,-0.15288 2.31337,0.29557 3.15982,1.23195 0.98413,1.50113 0.77542,3.18983 0.28929,4.824 -0.40833,1.47225 -0.96314,2.29808 -2.07328,3.32489 -2.13349,0.95184 -3.79035,-0.0446 -4.89328,-1.97089 -0.79974,-1.14938 -1.3962,-2.40669 -1.90131,-3.70831 -1.11695,-2.91831 1.93648,-3.61222 4.00265,-3.70232 1.28322,-0.0328 2.56703,-0.0197 3.85042,-0.006 2.00247,-0.10715 2.77906,1.23152 2.90424,3.00233 0.0897,1.73475 0.13006,3.35738 -0.66676,4.93751 -0.84157,1.22529 -1.98707,2.11299 -3.34038,2.69995 -1.62652,0.52665 -3.24385,0.61537 -4.89309,0.23707 -0.21517,-0.0977 -0.43035,-0.19531 -0.64553,-0.29296 -2.67899,-1.24921 -0.91235,-5.03787 1.76664,-3.78866 l 0,0 c 0.10774,0.0529 0.21547,0.10583 0.32321,0.15875 -1.24659,0.0926 1.63741,-0.0619 1.84448,-0.17441 0.52151,-0.19386 0.89192,-0.52185 1.31209,-0.9084 0.15724,0.08 0.16338,-2.16664 0.12696,-2.61152 -0.005,-0.10452 -0.11837,-0.31614 -0.0138,-0.31356 0.12162,0.003 0.0781,0.25082 0.17976,0.31765 2.03647,1.33862 2.21791,0.88395 1.05634,0.9163 -1.21234,-0.0133 -2.42506,-0.0259 -3.63728,0.003 -1.67144,0.059 -0.6999,0.28881 -0.31433,-0.94222 0.20779,-0.66341 -0.25363,-1.87091 0.0437,-1.03897 0.46313,1.20559 1.05277,2.32545 1.76883,3.40231 -0.41471,-0.0139 -0.82174,-0.10245 -0.86354,0.10714 -1.41745,1.71376 0.009,-0.22537 0.0696,-0.88408 0.0996,-0.30103 0.24944,-1.34771 0.36086,-1.07921 0.75699,0.57557 2.06907,0.40684 0.46364,0.42967 -0.67588,0.0422 -1.34614,0.15193 -2.00473,0.30865 -0.16734,0.0674 -1.09471,0.30697 -1.17643,0.41023 -0.0861,0.1088 -0.12789,0.48947 -0.19479,0.3679 -0.10437,-0.18967 0.027,-0.43213 0.0405,-0.64819 0.0201,0.57556 0.10788,1.12926 0.33253,1.66784 0.20248,0.44873 0.30443,0.76478 0.90687,0.64572 0.65122,-0.0614 0.99882,-0.29514 1.43931,-0.82987 0.52536,-1.00849 1.14662,-2.18703 1.55235,-3.12406 0.01,-0.5129 2.99043,1.45377 1.48815,1.19878 -1.02499,-0.002 -2.0537,0.0106 -3.07276,0.12917 -0.82974,0.11472 -1.72055,0.26234 -2.29367,0.92208 -0.0703,0.054 -0.14445,0.19364 -0.22073,0.14844 -0.0398,-0.0236 -0.0753,-0.15992 -0.0796,-0.11383 -0.0468,0.50222 0.10784,1.03409 0.1539,1.53082 0.11488,0.90406 -0.32272,-0.22027 -1.27137,0.30265 0.17803,-0.0387 0.25122,-0.0636 0.25435,0.24402 0.18867,-1.26031 -0.18905,-2.14265 -0.84065,-3.25564 -2.09015,-2.09015 0.86577,-5.04608 2.95593,-2.95592 z"
       id="path5775"
       style="fill:#000000;fill-opacity:1;fill-rule:nonzero;stroke:none" />
    <path
       style="fill:#000000;fill-opacity:1;fill-rule:nonzero;stroke:none"
       id="path5779"
       d="m 592.41805,160.10238 c 2.38183,1.32401 4.83146,1.35774 7.47428,1.28893 2.70202,-0.11005 5.40112,-0.27739 8.10334,-0.38337 1.53222,0.22113 0.82682,0.0418 2.12769,0.49069 2.75852,1.06207 1.25653,4.96322 -1.502,3.90114 l 0,0 c -0.27299,-0.15805 -0.1207,-0.0829 -0.46198,-0.21473 -2.72234,0.10662 -5.44147,0.27701 -8.16374,0.3853 -3.30713,0.0779 -6.47293,-0.11009 -9.44708,-1.72898 -2.64386,-1.32193 -0.77437,-5.06091 1.86949,-3.73898 z"
       inkscape:connector-curvature="0" />
    <path
       style="fill:none;stroke:#000000;stroke-width:2.41653538;stroke-linecap:butt;stroke-linejoin:miter;stroke-miterlimit:4;stroke-opacity:1;stroke-dasharray:2.41653543, 4.83307087;stroke-dashoffset:0"
       d="m 238.27745,122.62231 154.67132,0"
       id="path5781"
       inkscape:connector-curvature="0" />
    <path
       inkscape:connector-curvature="0"
       id="path5783"
       d="m 600.57065,126.80262 126.80261,0"
       style="fill:none;stroke:#000000;stroke-width:2.41653538;stroke-linecap:butt;stroke-linejoin:miter;stroke-miterlimit:4;stroke-opacity:1;stroke-dasharray:2.41653543, 4.83307087;stroke-dashoffset:0"
       sodipodi:nodetypes="cc" />
    <path
       style="fill:#000000;fill-opacity:1;fill-rule:nonzero;stroke:none"
       id="path5785"
       d="m 594.77711,122.15468 c 2.02759,0.45084 4.07822,0.8 6.14375,1.0196 1.91725,0.0552 3.75438,0.64062 5.61898,1.03972 1.16338,0.22755 2.34641,0.32446 3.52615,0.42122 2.94594,0.24273 2.60267,4.40893 -0.34327,4.1662 l 0,0 c -1.35854,-0.1124 -2.72012,-0.23058 -4.05859,-0.49985 -1.72838,-0.3706 -3.41479,-0.93284 -5.19089,-0.97102 -2.25567,-0.24562 -4.49681,-0.61849 -6.71,-1.12038 -2.86767,-0.71692 -1.85379,-4.77241 1.01387,-4.05549 z"
       inkscape:connector-curvature="0" />
    <path
       inkscape:connector-curvature="0"
       id="path3140"
       d="m 392.35632,126.1036 -0.20854,71.18935"
       style="fill:none;stroke:#000000;stroke-width:2.41653538;stroke-linecap:butt;stroke-linejoin:miter;stroke-miterlimit:4;stroke-opacity:1;stroke-dasharray:2.41653543, 4.83307087;stroke-dashoffset:0" />
    <path
       inkscape:connector-curvature="0"
       id="path3912"
       d="m 726.95681,126.78058 -0.20854,71.18935"
       style="fill:none;stroke:#000000;stroke-width:2.41653538;stroke-linecap:butt;stroke-linejoin:miter;stroke-miterlimit:4;stroke-opacity:1;stroke-dasharray:2.41653543, 4.83307087;stroke-dashoffset:0" />
    <path
       style="color:#000000;fill:#000000;fill-opacity:1;fill-rule:nonzero;stroke:none;stroke-width:1px;marker:none;visibility:visible;display:inline;overflow:visible;enable-background:accumulate"
       id="path3918"
       d="m 238.90606,175.83953 c 0.99598,3.83345 0.66131,7.78473 0.46581,11.68973 -0.38764,5.09737 -0.0653,10.18401 1.46087,15.06926 0.72727,1.66719 1.62501,5.55259 4.11588,5.15766 1.18091,-0.2255 2.18224,-0.85443 3.20047,-1.45346 2.39649,-1.37053 4.33472,2.01861 1.93823,3.38914 l 0,0 c -1.74665,0.97817 -3.41216,1.89603 -5.47802,1.95377 -0.67528,-0.10696 -1.3788,-0.10003 -2.02584,-0.3209 -3.1483,-1.07467 -4.41587,-4.81178 -5.48246,-7.57855 -1.61814,-5.3331 -2.06922,-10.8522 -1.62846,-16.41231 0.1766,-3.52088 0.52867,-7.08628 -0.35414,-10.54742 -0.66957,-2.67828 3.11809,-3.6252 3.78766,-0.94692 z"
       inkscape:connector-curvature="0"
       transform="translate(157.7669,37.323569)" />
    <path
       style="color:#000000;fill:#000000;fill-opacity:1;fill-rule:nonzero;stroke:none;stroke-width:1px;marker:none;visibility:visible;display:inline;overflow:visible;enable-background:accumulate"
       id="path3920"
       d="m 232.702,193.15408 c 2.55971,-1.19833 5.36135,-1.65237 8.04369,-2.48742 1.02252,-0.29042 2.03913,-0.551 3.02642,-0.94414 2.5765,-0.99154 3.97874,2.65218 1.40224,3.64372 l 0,0 c -1.07527,0.40409 -2.1572,0.74158 -3.27049,1.02891 -2.48287,0.76968 -5.06482,1.2092 -7.45583,2.25098 -2.46926,1.23463 -4.21528,-2.25742 -1.74603,-3.49205 z"
       inkscape:connector-curvature="0"
       transform="translate(157.7669,37.323569)" />
    <g
       id="g3962"
       transform="matrix(0.35375191,0,0,0.36076072,141.78176,110.39102)">
      <path
         transform="translate(157.7669,37.323569)"
         inkscape:connector-curvature="0"
         d="m 577.01702,233.15906 c 5.43334,4.06054 10.21037,8.8698 15.01515,13.63434 7.29512,7.11214 14.73851,14.07949 22.67524,20.47334 2.50797,1.90093 5.10778,3.67347 7.7148,5.43386 2.28779,1.54516 0.10262,4.78059 -2.18518,3.23543 l 0,0 c -2.69765,-1.82233 -5.38799,-3.65713 -7.9797,-5.62953 -8.03779,-6.48174 -15.58663,-13.53151 -22.97432,-20.74089 -4.6772,-4.63857 -9.31918,-9.32969 -14.60852,-13.28317 -2.20857,-1.65642 0.13397,-4.7798 2.34253,-3.12338 z"
         id="path3948"
         style="color:#000000;fill:#000000;fill-opacity:1;fill-rule:nonzero;stroke:none;stroke-width:1px;marker:none;visibility:visible;display:inline;overflow:visible;enable-background:accumulate" />
      <path
         transform="translate(157.7669,37.323569)"
         inkscape:connector-curvature="0"
         d="m 615.1787,236.10111 c -2.90812,2.68653 -5.80478,5.37915 -8.58274,8.20466 -4.89843,4.99346 -9.37574,10.38166 -13.79862,15.79483 -4.22708,5.15334 -8.31068,10.42785 -12.8456,15.31836 -1.87774,2.02375 -4.73977,-0.63177 -2.86203,-2.65553 l 0,0 c 4.48224,-4.82776 8.50436,-10.04746 12.68443,-15.13332 4.49934,-5.50518 9.05463,-10.98409 14.03814,-16.06188 2.78622,-2.83248 5.68741,-5.53686 8.60571,-8.22783 1.95212,-1.95212 4.71282,0.80859 2.76071,2.76071 z"
         id="path3956"
         style="color:#000000;fill:#000000;fill-opacity:1;fill-rule:nonzero;stroke:none;stroke-width:1px;marker:none;visibility:visible;display:inline;overflow:visible;enable-background:accumulate" />
      <path
         style="color:#000000;fill:#000000;fill-opacity:1;fill-rule:nonzero;stroke:none;stroke-width:1px;marker:none;visibility:visible;display:inline;overflow:visible;enable-background:accumulate"
         id="path3958"
         d="m 724.74344,287.68664 c 6.75701,-0.59323 13.52363,-0.19084 20.28113,0.15971 10.17873,0.44137 20.37152,0.67597 30.54997,0.15421 3.13671,-0.25397 6.25633,-0.66487 9.37324,-1.08963 2.73546,-0.3725 3.26228,3.49602 0.52681,3.86853 l 0,0 c -3.22576,0.43897 -6.45437,0.86378 -9.70115,1.12026 -10.31236,0.52358 -20.6387,0.29779 -30.95125,-0.15439 -6.57843,-0.34164 -13.16563,-0.74594 -19.74393,-0.16886 -2.75054,0.23676 -3.08535,-3.65308 -0.33482,-3.88983 z"
         inkscape:connector-curvature="0" />
      <path
         style="color:#000000;fill:#000000;fill-opacity:1;fill-rule:nonzero;stroke:none;stroke-width:1px;marker:none;visibility:visible;display:inline;overflow:visible;enable-background:accumulate"
         id="path3960"
         d="m 755.15729,264.44945 c -0.37799,3.94103 -0.74339,7.87897 -0.93172,11.83688 -0.32465,6.98741 -0.0722,13.9885 0.23737,20.97194 0.28246,6.65923 0.75264,13.31319 0.63043,19.9816 -0.0514,2.76022 -3.95498,2.68751 -3.90356,-0.0727 l 0,0 c 0.12475,-6.58651 -0.35475,-13.15864 -0.62729,-19.73623 -0.31392,-7.10299 -0.56863,-14.22368 -0.23675,-21.33066 0.18985,-3.96862 0.55079,-7.91834 0.93342,-11.86946 0.15461,-2.75639 4.05271,-2.53772 3.8981,0.21865 z"
         inkscape:connector-curvature="0" />
    </g>
    <path
       inkscape:connector-curvature="0"
       d="m 723.32678,209.25887 c 0.99598,3.83345 0.66131,7.78473 0.46581,11.68973 -0.38764,5.09737 -0.0653,10.18401 1.46087,15.06926 0.72727,1.66719 1.62501,5.55259 4.11588,5.15766 1.18091,-0.2255 2.18224,-0.85443 3.20047,-1.45346 2.39649,-1.37053 4.33472,2.01861 1.93823,3.38914 l 0,0 c -1.74665,0.97817 -3.41216,1.89603 -5.47802,1.95377 -0.67528,-0.10696 -1.3788,-0.10003 -2.02584,-0.3209 -3.1483,-1.07467 -4.41587,-4.81178 -5.48246,-7.57855 -1.61814,-5.3331 -2.06922,-10.8522 -1.62846,-16.41231 0.1766,-3.52088 0.52867,-7.08628 -0.35414,-10.54742 -0.66957,-2.67828 3.11809,-3.6252 3.78766,-0.94692 z"
       id="path3968"
       style="color:#000000;fill:#000000;fill-opacity:1;fill-rule:nonzero;stroke:none;stroke-width:1px;marker:none;visibility:visible;display:inline;overflow:visible;enable-background:accumulate" />
    <path
       inkscape:connector-curvature="0"
       d="m 717.12272,226.57342 c 2.55971,-1.19833 5.36135,-1.65237 8.04369,-2.48742 1.02252,-0.29042 2.03913,-0.551 3.02642,-0.94414 2.5765,-0.99154 3.97874,2.65218 1.40224,3.64372 l 0,0 c -1.07527,0.40409 -2.1572,0.74158 -3.27049,1.02891 -2.48287,0.76968 -5.06482,1.2092 -7.45583,2.25098 -2.46926,1.23463 -4.21528,-2.25742 -1.74603,-3.49205 z"
       id="path3970"
       style="color:#000000;fill:#000000;fill-opacity:1;fill-rule:nonzero;stroke:none;stroke-width:1px;marker:none;visibility:visible;display:inline;overflow:visible;enable-background:accumulate" />
    <g
       transform="matrix(0.35375191,0,0,0.36076072,468.43558,106.48679)"
       id="g3972">
      <path
         style="color:#000000;fill:#000000;fill-opacity:1;fill-rule:nonzero;stroke:none;stroke-width:1px;marker:none;visibility:visible;display:inline;overflow:visible;enable-background:accumulate"
         id="path3974"
         d="m 577.01702,233.15906 c 5.43334,4.06054 10.21037,8.8698 15.01515,13.63434 7.29512,7.11214 14.73851,14.07949 22.67524,20.47334 2.50797,1.90093 5.10778,3.67347 7.7148,5.43386 2.28779,1.54516 0.10262,4.78059 -2.18518,3.23543 l 0,0 c -2.69765,-1.82233 -5.38799,-3.65713 -7.9797,-5.62953 -8.03779,-6.48174 -15.58663,-13.53151 -22.97432,-20.74089 -4.6772,-4.63857 -9.31918,-9.32969 -14.60852,-13.28317 -2.20857,-1.65642 0.13397,-4.7798 2.34253,-3.12338 z"
         inkscape:connector-curvature="0"
         transform="translate(157.7669,37.323569)" />
      <path
         style="color:#000000;fill:#000000;fill-opacity:1;fill-rule:nonzero;stroke:none;stroke-width:1px;marker:none;visibility:visible;display:inline;overflow:visible;enable-background:accumulate"
         id="path3976"
         d="m 615.1787,236.10111 c -2.90812,2.68653 -5.80478,5.37915 -8.58274,8.20466 -4.89843,4.99346 -9.37574,10.38166 -13.79862,15.79483 -4.22708,5.15334 -8.31068,10.42785 -12.8456,15.31836 -1.87774,2.02375 -4.73977,-0.63177 -2.86203,-2.65553 l 0,0 c 4.48224,-4.82776 8.50436,-10.04746 12.68443,-15.13332 4.49934,-5.50518 9.05463,-10.98409 14.03814,-16.06188 2.78622,-2.83248 5.68741,-5.53686 8.60571,-8.22783 1.95212,-1.95212 4.71282,0.80859 2.76071,2.76071 z"
         inkscape:connector-curvature="0"
         transform="translate(157.7669,37.323569)" />
      <path
         inkscape:connector-curvature="0"
         d="m 724.74344,287.68664 c 6.75701,-0.59323 13.52363,-0.19084 20.28113,0.15971 10.17873,0.44137 20.37152,0.67597 30.54997,0.15421 3.13671,-0.25397 6.25633,-0.66487 9.37324,-1.08963 2.73546,-0.3725 3.26228,3.49602 0.52681,3.86853 l 0,0 c -3.22576,0.43897 -6.45437,0.86378 -9.70115,1.12026 -10.31236,0.52358 -20.6387,0.29779 -30.95125,-0.15439 -6.57843,-0.34164 -13.16563,-0.74594 -19.74393,-0.16886 -2.75054,0.23676 -3.08535,-3.65308 -0.33482,-3.88983 z"
         id="path3978"
         style="color:#000000;fill:#000000;fill-opacity:1;fill-rule:nonzero;stroke:none;stroke-width:1px;marker:none;visibility:visible;display:inline;overflow:visible;enable-background:accumulate" />
      <path
         inkscape:connector-curvature="0"
         d="m 755.15729,264.44945 c -0.37799,3.94103 -0.74339,7.87897 -0.93172,11.83688 -0.32465,6.98741 -0.0722,13.9885 0.23737,20.97194 0.28246,6.65923 0.75264,13.31319 0.63043,19.9816 -0.0514,2.76022 -3.95498,2.68751 -3.90356,-0.0727 l 0,0 c 0.12475,-6.58651 -0.35475,-13.15864 -0.62729,-19.73623 -0.31392,-7.10299 -0.56863,-14.22368 -0.23675,-21.33066 0.18985,-3.96862 0.55079,-7.91834 0.93342,-11.86946 0.15461,-2.75639 4.05271,-2.53772 3.8981,0.21865 z"
         id="path3980"
         style="color:#000000;fill:#000000;fill-opacity:1;fill-rule:nonzero;stroke:none;stroke-width:1px;marker:none;visibility:visible;display:inline;overflow:visible;enable-background:accumulate" />
    </g>
    <g
       id="g4036"
       transform="translate(-10.411277,-5.2056386)">
      <path
         inkscape:connector-curvature="0"
         d="m 359.64024,331.41238 c -0.60093,2.59989 -1.64498,5.08592 -2.54754,7.59982 -1.25797,3.53757 -2.32713,7.13232 -3.53898,10.68485 -0.70001,1.57627 -0.7246,3.38068 -1.74475,4.79546 -0.74033,-0.54905 -1.60274,-0.97256 -2.22098,-1.64713 -0.14894,-0.1625 0.076,-0.42735 0.1261,-0.63859 0.46751,-1.97142 0.93754,-3.93949 1.46729,-5.89718 0.79833,-3.91523 2.33273,-7.61929 3.58665,-11.40517 0.76236,-1.94802 1.3749,-3.95586 2.76045,-5.58856 -0.19146,0.11642 1.11576,-0.87642 1.08447,-0.83986 -0.8331,0.97341 -0.49229,0.27932 -0.68292,0.68665 -10e-4,-0.0581 -0.003,-0.12731 -0.004,-0.17979 7.3e-4,0.0175 0.014,0.12662 0.0182,0.12572 3.32006,-0.71887 2.22625,-1.37519 3.11446,-0.0736 1.28519,2.6156 2.03089,5.45158 2.75983,8.2481 0.9887,3.84793 1.99886,7.69232 2.85428,11.5704 0.20934,0.96777 0.40614,1.93802 0.58474,2.91147 0.34714,1.89347 -2.43543,2.36591 -2.78256,0.47243 l 0,0 c -0.17269,-0.94273 -0.36374,-1.88222 -0.56617,-2.81945 -0.84787,-3.84626 -1.85116,-7.65871 -2.83138,-11.47503 -0.65401,-2.52381 -1.34476,-5.06281 -2.40973,-7.45903 -0.92655,-1.45058 -0.71965,-0.82926 2.04464,-1.92074 0.0719,-0.0284 0.0484,0.14923 0.0318,0.22229 0.0157,0.30158 0.0137,0.60411 -0.0415,0.90277 -0.18475,0.67987 -0.5992,1.03532 -1.00293,1.36813 -1.18758,1.32524 -1.52961,3.10241 -2.23945,4.6745 -1.24054,3.73894 -2.75655,7.39709 -3.54434,11.26457 -0.5149,1.89928 -0.97341,3.80876 -1.42614,5.72171 -0.0565,0.23857 0.10855,0.75063 -0.14383,0.72089 -0.85771,-0.10107 -1.57818,-0.67785 -2.36726,-1.01678 -0.12346,0.19698 -0.21181,0.41879 -0.37037,0.59093 -0.22631,0.2457 0.17624,-0.63439 0.2619,-0.9522 0.17623,-0.65398 0.37215,-1.33475 0.58004,-1.97758 0.13357,-0.41305 0.27949,-0.82231 0.41923,-1.23346 1.2164,-3.56582 2.2886,-7.17439 3.55295,-10.72475 0.87564,-2.43869 1.89362,-4.84944 2.47699,-7.3713 0.48457,-1.86531 3.22574,-1.20582 2.74116,0.65949 z"
         id="path3982"
         style="color:#000000;fill:#000000;fill-opacity:1;fill-rule:nonzero;stroke:none;stroke-width:1px;marker:none;visibility:visible;display:inline;overflow:visible;enable-background:accumulate" />
      <path
         inkscape:connector-curvature="0"
         d="m 353.29454,341.07232 c 2.33494,0.12127 4.63394,-0.108 6.9437,-0.39896 1.02116,-0.12845 2.04426,-0.23845 3.06896,-0.33652 1.98819,-0.18979 2.26711,2.51606 0.27892,2.70586 l 0,0 c -0.99547,0.0948 -1.98923,0.20241 -2.98125,0.32681 -2.43046,0.30598 -4.85419,0.54104 -7.31033,0.42194 -1.99795,0 -1.99795,-2.71913 0,-2.71913 z"
         id="path3984"
         style="color:#000000;fill:#000000;fill-opacity:1;fill-rule:nonzero;stroke:none;stroke-width:1px;marker:none;visibility:visible;display:inline;overflow:visible;enable-background:accumulate" />
      <path
         inkscape:connector-curvature="0"
         d="m 345.98871,330.08562 c -1.7476,1.96967 -3.01391,4.20455 -3.83859,6.65866 -1.11663,3.83455 -1.09238,7.74608 -0.39444,11.63593 0.37974,1.77595 1.31464,3.12323 2.49244,4.4773 1.25573,1.4955 -0.94199,3.2045 -2.19772,1.709 l 0,0 c -1.43584,-1.75574 -2.62937,-3.47897 -3.08034,-5.73089 -0.75336,-4.33097 -0.77572,-8.68521 0.49707,-12.94412 0.95069,-2.72281 2.30838,-5.24168 4.26115,-7.43736 1.19877,-1.53818 3.4592,0.0933 2.26043,1.63148 z"
         id="path4006"
         style="color:#000000;fill:#000000;fill-opacity:1;fill-rule:nonzero;stroke:none;stroke-width:1px;marker:none;visibility:visible;display:inline;overflow:visible;enable-background:accumulate" />
      <path
         inkscape:connector-curvature="0"
         d="m 374.5343,326.02425 c 2.93855,1.34019 4.55984,3.70368 5.84472,6.47463 1.06394,3.18388 1.69298,6.57274 1.62456,9.9298 -0.0384,1.88071 -0.36235,3.7737 -0.6264,5.63172 -0.43549,2.92148 -1.43297,5.65315 -2.86143,8.2453 -0.94569,1.6937 -3.43467,0.40665 -2.48898,-1.28705 l 0,0 c 1.29973,-2.29104 2.14714,-4.7369 2.55121,-7.32866 0.21997,-1.53078 0.56349,-3.59753 0.60242,-5.15046 0.0757,-3.02041 -0.47846,-6.07354 -1.39028,-8.95135 -0.98037,-2.21451 -2.18173,-4.0681 -4.51944,-5.13186 -1.78703,-0.85987 -0.5234,-3.29194 1.26362,-2.43207 z"
         id="path4008"
         style="color:#000000;fill:#000000;fill-opacity:1;fill-rule:nonzero;stroke:none;stroke-width:1px;marker:none;visibility:visible;display:inline;overflow:visible;enable-background:accumulate" />
    </g>
    <g
       id="g4042"
       transform="translate(95.002905,-1.3014097)">
      <path
         inkscape:connector-curvature="0"
         d="m 625.05553,328.66142 c 0.76799,2.42756 1.17047,4.90838 1.44058,7.43032 0.47492,3.2136 0.88967,6.43398 1.14434,9.67096 0.0608,0.85054 0.1114,1.70176 0.14926,2.55354 0.0109,0.24533 0.12473,0.96287 0.0266,0.73622 -0.0675,-0.15567 -0.064,-0.33165 -0.0959,-0.49747 -0.62784,-0.16225 -1.25568,-0.32451 -1.88352,-0.48677 1.60671,-1.14284 3.28618,1.04383 1.67947,2.18667 l 0,0 c -0.73193,-0.0882 -1.46387,-0.17643 -2.19581,-0.26464 -0.49701,-1.2975 -0.3893,-2.64448 -0.49752,-4.02271 -0.25167,-3.21297 -0.66997,-6.4085 -1.13766,-9.59859 -0.2534,-2.39405 -0.63044,-4.74589 -1.37093,-7.04804 -0.48458,-1.86531 2.2566,-2.5248 2.74117,-0.65949 z"
         id="path3986"
         style="color:#000000;fill:#000000;fill-opacity:1;fill-rule:nonzero;stroke:none;stroke-width:1px;marker:none;visibility:visible;display:inline;overflow:visible;enable-background:accumulate" />
      <path
         inkscape:connector-curvature="0"
         d="m 622.44927,328.93738 c 1.86857,-0.79637 3.85572,-1.34934 5.89934,-1.42684 1.92061,0.001 3.42839,0.95278 4.48514,2.42729 1.01041,1.88863 -0.1908,3.39452 -1.58095,4.67385 -0.6909,0.78295 -1.67349,1.37411 -2.44383,1.99998 -0.0369,0.0768 -0.0656,0.15703 -0.094,0.23712 0.12647,-0.59123 -0.71492,-0.95266 -0.92612,-1.49653 -7.2e-4,-0.003 0.11243,0.0123 0.95024,0.0178 0.46195,0.003 0.98928,0.001 1.4485,6.9e-4 2.42807,-0.0542 3.72479,-0.25667 5.69169,1.38218 1.54571,1.65881 1.96428,3.7792 2.19883,5.92056 0.31223,2.85859 -1.19638,4.37121 -3.75208,5.46873 -2.19312,0.70609 -4.52849,0.78097 -6.8206,0.8353 -2.03871,0.0208 -2.22995,0.14405 -3.21208,-1.70192 -0.27271,-1.90473 2.52639,-2.27587 2.7991,-0.37115 l 0,0 c -0.82685,-0.98304 -1.16493,-0.62301 0.34419,-0.64526 1.93747,-0.0448 3.91249,-0.0919 5.78425,-0.61949 1.33876,-0.50326 2.30382,-1.15392 2.04659,-2.6873 -0.15339,-1.4701 -0.34927,-2.9863 -1.30398,-4.2008 -0.18292,-0.18651 -0.28231,-0.48217 -0.53049,-0.57562 -0.9947,-0.37453 -2.21417,0.0766 -3.24148,-0.0861 -1.23379,10e-4 -4.33434,0.42353 -4.26649,-1.67148 0.11523,-0.5994 0.38832,-1.14706 0.78324,-1.62533 0.82231,-0.78412 1.86535,-1.31339 2.62133,-2.17357 0.32526,-0.2765 1.16606,-0.86194 1.11151,-1.23525 -0.31575,-0.75858 -1.25305,-1.13115 -2.03813,-1.15514 -1.61509,-0.0267 -3.20431,0.58715 -4.69014,1.14028 -1.78703,0.85986 -3.05065,-1.57221 -1.26362,-2.43207 z"
         id="path3988"
         style="color:#000000;fill:#000000;fill-opacity:1;fill-rule:nonzero;stroke:none;stroke-width:1px;marker:none;visibility:visible;display:inline;overflow:visible;enable-background:accumulate" />
      <path
         inkscape:connector-curvature="0"
         d="m 615.8879,326.18139 c -2.13829,2.93633 -3.39482,6.33457 -4.38721,9.7591 -0.71685,3.183 -1.34125,6.4701 -0.98944,9.74267 0.17861,1.66145 0.53544,2.5797 1.01516,4.17026 0.77264,2.14266 2.24247,3.3757 4.22398,4.43527 1.73125,0.95975 0.32085,3.31591 -1.4104,2.35616 l 0,0 c -2.58377,-1.47046 -4.54252,-3.20957 -5.52997,-6.04297 -0.57041,-1.94066 -0.91711,-2.79784 -1.12299,-4.83589 -0.35853,-3.54884 0.30154,-7.11115 1.09326,-10.56034 1.0986,-3.74429 2.48582,-7.45574 4.84718,-10.65574 1.19877,-1.53817 3.45921,0.0933 2.26043,1.63148 z"
         id="path4012"
         style="color:#000000;fill:#000000;fill-opacity:1;fill-rule:nonzero;stroke:none;stroke-width:1px;marker:none;visibility:visible;display:inline;overflow:visible;enable-background:accumulate" />
      <path
         inkscape:connector-curvature="0"
         d="m 644.49958,323.62156 c 2.8702,2.58717 3.85756,6.37968 4.80919,9.91708 0.99852,4.68953 0.98621,9.48707 0.2308,14.20068 -0.30351,1.81245 -0.99789,3.47679 -1.80124,5.12339 -0.8599,1.73553 -3.41036,0.56525 -2.55046,-1.17028 l 0,0 c 0.7067,-1.39944 1.28985,-2.82479 1.55998,-4.37254 0.71436,-4.34495 0.71445,-8.77385 -0.17506,-13.10207 -0.78375,-2.93527 -1.53513,-6.15198 -3.76742,-8.42015 -1.59896,-1.15287 0.0952,-3.32899 1.69421,-2.17611 z"
         id="path4014"
         style="color:#000000;fill:#000000;fill-opacity:1;fill-rule:nonzero;stroke:none;stroke-width:1px;marker:none;visibility:visible;display:inline;overflow:visible;enable-background:accumulate" />
    </g>
  </g>
</svg>
