<?xml version="1.0" encoding="UTF-8" standalone="no"?>
<!-- Created with Inkscape (http://www.inkscape.org/) -->

<svg
   xmlns:dc="http://purl.org/dc/elements/1.1/"
   xmlns:cc="http://creativecommons.org/ns#"
   xmlns:rdf="http://www.w3.org/1999/02/22-rdf-syntax-ns#"
   xmlns:svg="http://www.w3.org/2000/svg"
   xmlns="http://www.w3.org/2000/svg"
   xmlns:sodipodi="http://sodipodi.sourceforge.net/DTD/sodipodi-0.dtd"
   xmlns:inkscape="http://www.inkscape.org/namespaces/inkscape"
   width="395.46262"
   height="364.37418"
   id="svg6309"
   version="1.1"
   inkscape:version="0.48.0 r9654"
   sodipodi:docname="RimlessStrideFunction.svg">
  <defs
     id="defs6311" />
  <sodipodi:namedview
     inkscape:document-units="mm"
     pagecolor="#ffffff"
     bordercolor="#666666"
     borderopacity="1.0"
     inkscape:pageopacity="0.0"
     inkscape:pageshadow="2"
     inkscape:zoom="0.7176508"
     inkscape:cx="251.91833"
     inkscape:cy="137.08772"
     inkscape:current-layer="layer1"
     id="namedview6313"
     showgrid="false"
     inkscape:window-width="1280"
     inkscape:window-height="752"
     inkscape:window-x="0"
     inkscape:window-y="0"
     inkscape:window-maximized="0"
     fit-margin-top="0"
     fit-margin-left="0"
     fit-margin-right="0"
     fit-margin-bottom="0" />
  <metadata
     id="metadata6315">
    <rdf:RDF>
      <cc:Work
         rdf:about="">
        <dc:format>image/svg+xml</dc:format>
        <dc:type
           rdf:resource="http://purl.org/dc/dcmitype/StillImage" />
        <dc:title></dc:title>
      </cc:Work>
    </rdf:RDF>
  </metadata>
  <g
     inkscape:label="Layer 1"
     inkscape:groupmode="layer"
     id="layer1"
     transform="translate(-274.26276,-144.7608)">
    <path
       style="fill:#000000;fill-opacity:1;fill-rule:nonzero;stroke:none"
       id="path6840"
       d="m 364.04919,459.70344 c -1.98047,-14.26849 -1.63744,-28.79035 -1.80081,-43.16656 0.005,-37.77642 0.54505,-75.54637 0.39992,-113.32335 -0.54158,-50.32263 0.007,-100.63521 1.51827,-150.93526 0.0888,-2.9546 4.26717,-2.82908 4.17842,0.12551 l 0,0 c -1.50974,50.25288 -2.05751,100.51827 -1.51641,150.79371 0.1449,37.76649 -0.39326,75.52597 -0.40017,113.29191 0.1601,14.10422 -0.16597,28.34547 1.71095,42.35064 0.61051,2.8922 -3.47967,3.75559 -4.09017,0.8634 z"
       inkscape:connector-curvature="0" />
    <path
       style="fill:#000000;fill-opacity:1;fill-rule:nonzero;stroke:none"
       id="path6842"
       d="m 367.2745,146.47048 c 0.63684,4.00238 -0.7275,7.72459 -1.98563,11.44797 -1.22637,3.42377 -2.69051,6.74436 -4.35269,9.97684 -0.12376,0.23205 -0.24752,0.46411 -0.37128,0.69616 -1.3918,2.60775 -5.07972,0.63945 -3.68792,-1.9683 l 0,0 c 0.11403,-0.21348 0.22806,-0.42696 0.34208,-0.64044 1.5687,-3.04674 2.94996,-6.17573 4.10949,-9.40246 1.0035,-2.9698 2.19375,-5.89136 1.89045,-9.09589 -0.71691,-2.86767 3.33858,-3.88154 4.0555,-1.01388 z"
       inkscape:connector-curvature="0" />
    <path
       style="fill:#000000;fill-opacity:1;fill-rule:nonzero;stroke:none"
       id="path6844"
       d="m 368.67635,147.43611 c 1.36527,3.94188 2.41454,7.99885 3.52188,12.02326 1.10585,2.66569 1.23845,5.96389 3.41829,8.03447 2.07198,2.10817 -0.90942,5.0384 -2.9814,2.93023 l 0,0 c -2.59715,-2.73911 -3.34102,-6.34389 -4.46746,-9.8559 -1.0355,-3.76491 -2.05459,-7.54169 -3.23029,-11.26257 -1.32192,-2.64386 2.41706,-4.51335 3.73898,-1.86949 z"
       inkscape:connector-curvature="0" />
    <path
       inkscape:connector-curvature="0"
       d="m 354.7842,448.26469 c 14.27064,-1.96495 28.79212,-1.60613 43.16849,-1.75386 37.7764,0.0461 75.54574,0.62722 113.32285,0.52318 50.32319,-0.48685 100.63515,0.11645 150.93352,1.68243 2.9545,0.092 2.82444,4.27025 -0.13005,4.17828 l 0,0 c -50.25121,-1.56439 -100.51598,-2.16683 -150.79197,-1.68042 -37.76663,0.10383 -75.5255,-0.4754 -113.29141,-0.52339 -14.10439,0.14476 -28.34527,-0.1968 -42.35248,1.66489 -2.89286,0.60736 -3.7518,-3.48376 -0.85895,-4.09111 z"
       id="path6846"
       style="fill:#000000;fill-opacity:1;fill-rule:nonzero;stroke:none" />
    <path
       inkscape:connector-curvature="0"
       d="m 668.01347,451.83069 c -4.00307,0.63248 -7.7238,-0.7359 -11.44581,-1.99808 -3.42243,-1.2301 -6.74142,-2.69785 -9.9721,-4.36354 -0.23191,-0.12401 -0.46384,-0.24803 -0.69575,-0.37204 -2.60624,-1.39463 -0.63393,-5.08041 1.97231,-3.68578 l 0,0 c 0.21336,0.11427 0.42671,0.22853 0.64007,0.34278 3.04503,1.57201 6.17251,2.95668 9.39798,4.11971 2.96871,1.00673 5.88897,2.20016 9.09383,1.90035 2.86845,-0.71379 3.87791,3.3428 1.00947,4.0566 z"
       id="path6848"
       style="fill:#000000;fill-opacity:1;fill-rule:nonzero;stroke:none" />
    <path
       inkscape:connector-curvature="0"
       d="m 667.04631,453.23149 c -3.94336,1.36098 -8.00147,2.40583 -12.02708,3.5088 -2.66689,1.10295 -5.96523,1.23196 -8.03818,3.40955 -2.11042,2.06968 -5.03741,-0.9149 -2.92699,-2.98459 l 0,0 c 2.74194,-2.59417 6.34752,-3.33412 9.86076,-4.45674 3.76603,-1.0314 7.54392,-2.04638 11.26607,-3.21804 2.6453,-1.31904 4.51072,2.42197 1.86542,3.74102 z"
       id="path6850"
       style="fill:#000000;fill-opacity:1;fill-rule:nonzero;stroke:none" />
    <path
       style="fill:none;stroke:#000000;stroke-width:2.41653538;stroke-linecap:butt;stroke-linejoin:miter;stroke-miterlimit:4;stroke-opacity:1;stroke-dasharray:2.41653543, 4.83307087;stroke-dashoffset:0"
       d="M 365.08007,450.07962 643.76713,169.99912"
       id="path6852"
       inkscape:connector-curvature="0"
       sodipodi:nodetypes="cc" />
    <path
       style="fill:#000000;fill-opacity:1;fill-rule:nonzero;stroke:none"
       id="path6858"
       d="m 284.40351,166.02683 c -2.15,3.8537 -3.80183,7.86787 -4.98717,12.11252 -0.45775,2.9153 -2.2649,7.18776 0.43437,9.46484 2.62004,0.61683 4.63027,-2.2789 5.94848,-4.09303 1.8248,-3.01109 3.20415,-6.24742 4.35422,-9.56628 0.95125,-1.79012 0.74986,-2.03053 4.42749,0.6159 0.13283,0.0956 0.19222,3.17961 0.1973,3.25158 0.0487,0.69035 0.30437,2.49641 0.39231,3.1479 0.66527,2.35576 2.367,4.34829 4.75222,2.72284 3.74083,-2.99767 4.68803,-7.70376 4.76371,-12.25885 -0.16358,-3.54367 -1.72319,-6.4848 -3.6988,-9.30865 -0.44254,-0.61593 -0.90536,-1.22046 -1.419,-1.77738 0.0276,0.0256 0.0551,0.0511 0.0827,0.0767 -2.28709,-1.87261 0.36118,-5.10705 2.64828,-3.23444 l 0,0 c 0.0571,0.0498 0.11429,0.0995 0.17144,0.14931 0.73283,0.72369 1.33059,1.5711 1.94467,2.39357 2.4827,3.56571 4.30712,7.36046 4.44957,11.81014 -0.21055,6.24052 -1.81046,12.37507 -7.31951,16.00198 -0.89599,0.30294 -1.74903,0.79501 -2.68798,0.90884 -4.27845,0.51867 -6.92273,-3.33059 -7.83027,-6.92647 -0.22651,-1.68788 -0.40368,-3.33947 -0.46972,-5.04035 -0.0128,-0.33018 -0.36739,-0.88753 -0.0532,-0.98987 1.14164,-0.37185 4.89075,-0.41858 3.59791,-0.17185 -1.29529,3.72547 -2.85432,7.36063 -4.96231,10.70786 -3.03637,3.93835 -7.35294,7.77606 -12.33608,4.44299 -0.4575,-0.53468 -1.00623,-1.00316 -1.37249,-1.60402 -2.18218,-3.57996 -0.77642,-8.0832 -0.04,-11.85323 1.26819,-4.49476 2.99522,-8.76711 5.27287,-12.85201 1.32192,-2.64385 5.0609,-0.77436 3.73898,1.86949 z"
       inkscape:connector-curvature="0" />
    <path
       style="fill:#000000;fill-opacity:1;fill-rule:nonzero;stroke:none"
       id="path6860"
       d="m 314.33236,179.48513 c 1.44916,3.19906 1.95355,6.71442 2.34741,10.17421 0.16191,1.69535 0.30283,3.39478 0.34468,5.09794 -0.15801,-0.0929 0.11676,0.39451 -2.3e-4,0.36326 -4.83567,-1.29154 -4.13546,-0.51375 -3.1027,-4.04754 0.74279,-3.33071 2.06945,-6.4703 3.29881,-9.63766 0.53838,-1.63226 1.00765,-3.11683 2.02751,-4.48772 0.66991,-0.14595 1.32416,-0.44678 2.00973,-0.43786 1.78321,0.0232 2.66641,3.03963 3.10216,4.31513 0.68854,2.61779 0.79966,5.31737 1.32877,7.96674 0.3516,1.09945 0.34053,4.71929 1.6476,5.17568 0.83329,0.23399 1.65702,0.37477 2.51514,0.24621 2.94835,-0.21139 3.2473,3.95821 0.29895,4.1696 l 0,0 c -1.96036,0.0785 -3.80154,-0.10803 -5.49642,-1.20956 -2.16769,-2.05991 -2.67246,-4.6747 -3.06497,-7.56494 -0.49365,-2.48213 -0.65471,-4.99464 -1.19563,-7.46414 -0.0363,-0.1138 -0.86041,-1.96826 -0.84767,-1.99514 0.012,-0.0253 2.02697,1.52379 2.45656,-0.057 1.21577,-2.31451 -0.9625,2.68757 -0.88529,2.85719 -1.19006,3.05896 -2.47571,6.08969 -3.18671,9.30944 -0.57349,1.90945 -1.20805,6.81619 -5.08472,2.59847 -0.0367,-1.57978 -0.17311,-3.15587 -0.31942,-4.72855 -0.3335,-2.97361 -0.73495,-6.00663 -1.93254,-8.77426 -1.32193,-2.64386 2.41705,-4.51334 3.73898,-1.86949 z"
       inkscape:connector-curvature="0" />
    <path
       style="fill:#000000;fill-opacity:1;fill-rule:nonzero;stroke:none"
       id="path6862"
       d="m 338.01234,178.51951 c 0.68601,3.10184 0.92035,6.28432 1.12794,9.448 0.10474,1.70947 0.15515,3.422 0.1704,5.13449 0.003,0.25274 0.001,0.50536 -0.009,0.75786 -0.18115,2.95037 -4.35359,2.69419 -4.17245,-0.25618 l 0,0 c 10e-4,-0.15495 0.002,-0.30991 10e-4,-0.46486 -0.0142,-1.63377 -0.0622,-3.26759 -0.16165,-4.89851 -0.18991,-2.91415 -0.39906,-5.84631 -1.01203,-8.70693 -0.71692,-2.86767 3.33858,-3.88154 4.05549,-1.01387 z"
       inkscape:connector-curvature="0" />
    <path
       style="fill:#000000;fill-opacity:1;fill-rule:nonzero;stroke:none"
       id="path6864"
       d="m 331.41783,183.46584 c 2.21253,0.52704 4.46506,0.82389 6.72848,1.01513 1.62451,0.13195 3.25493,0.15121 4.88384,0.15849 0.22814,-0.133 0.46343,-0.24864 0.69068,-0.38353 2.6034,-1.39993 4.5832,2.28182 1.97981,3.68176 l 0,0 c -0.85856,0.44379 -1.70207,0.81609 -2.68945,0.88203 -1.74109,-0.008 -3.48367,-0.0311 -5.21993,-0.17355 -2.48512,-0.21352 -4.95878,-0.54162 -7.38731,-1.12484 -2.86766,-0.71692 -1.85379,-4.77241 1.01388,-4.05549 z"
       inkscape:connector-curvature="0" />
    <path
       style="fill:#000000;fill-opacity:1;fill-rule:nonzero;stroke:none"
       id="path6866"
       d="m 351.95512,178.0917 c 1.41198,2.95017 1.95537,6.16316 2.34558,9.37889 0.30096,1.85904 -0.003,3.78765 0.6343,5.57816 0.91497,2.81075 -3.06003,4.10471 -3.975,1.29396 l 0,0 c -0.64589,-2.08406 -0.63435,-4.20995 -0.8095,-6.37137 -0.32853,-2.73981 -0.75074,-5.48627 -1.93436,-8.01015 -1.32193,-2.64386 2.41705,-4.51335 3.73898,-1.86949 z"
       inkscape:connector-curvature="0" />
    <path
       style="fill:#000000;fill-opacity:1;fill-rule:nonzero;stroke:none"
       id="path6868"
       d="m 317.11923,146.04268 c 1.49937,2.83964 1.99356,6.05292 2.34795,9.20476 0.23667,2.63171 0.31892,5.27379 0.34464,7.91496 0.003,0.3715 10e-4,0.743 -0.004,1.11447 -0.041,2.95564 -4.22093,2.89762 -4.17991,-0.058 l 0,0 c 0.005,-0.33867 0.006,-0.67738 0.003,-1.01608 -0.0239,-2.50104 -0.10037,-5.00287 -0.31945,-7.49533 -0.28938,-2.66107 -0.66624,-5.39779 -1.93201,-7.79527 -1.32192,-2.64385 2.41706,-4.51334 3.73898,-1.86949 z"
       inkscape:connector-curvature="0" />
    <path
       style="fill:#000000;fill-opacity:1;fill-rule:nonzero;stroke:none"
       id="path6870"
       d="m 311.56947,155.36804 c 3.10503,-0.0852 6.2296,0.18664 9.32047,-0.1557 1.37751,-0.17234 2.72533,-0.37158 4.05429,-0.77059 2.84316,-0.80865 3.98677,3.21219 1.1436,4.02084 l 0,0 c -1.57277,0.43049 -3.14389,0.74087 -4.76997,0.9081 -3.23985,0.3139 -6.49616,0.13495 -9.74839,0.17766 -2.95592,0 -2.95592,-4.18031 0,-4.18031 z"
       inkscape:connector-curvature="0" />
    <path
       inkscape:connector-curvature="0"
       d="m 593.74616,476.76292 c -2.15,3.8537 -3.80183,7.86787 -4.98717,12.11252 -0.45775,2.9153 -2.2649,7.18776 0.43437,9.46484 2.62004,0.61683 4.63027,-2.2789 5.94848,-4.09303 1.8248,-3.01109 3.20415,-6.24742 4.35422,-9.56628 0.95125,-1.79012 0.74986,-2.03053 4.42749,0.6159 0.13283,0.0956 0.19222,3.17961 0.1973,3.25158 0.0487,0.69035 0.30437,2.49641 0.39231,3.1479 0.66527,2.35576 2.367,4.34829 4.75222,2.72284 3.74083,-2.99767 4.68803,-7.70376 4.76371,-12.25885 -0.16358,-3.54367 -1.72319,-6.4848 -3.6988,-9.30865 -0.44254,-0.61593 -0.90536,-1.22046 -1.419,-1.77738 0.0276,0.0256 0.0551,0.0511 0.0827,0.0767 -2.28709,-1.87261 0.36118,-5.10705 2.64828,-3.23444 l 0,0 c 0.0571,0.0498 0.11429,0.0995 0.17144,0.14931 0.73283,0.72369 1.33059,1.5711 1.94467,2.39357 2.4827,3.56571 4.30712,7.36046 4.44957,11.81014 -0.21055,6.24052 -1.81046,12.37507 -7.31951,16.00198 -0.89599,0.30294 -1.74903,0.79501 -2.68798,0.90884 -4.27845,0.51867 -6.92273,-3.33059 -7.83027,-6.92647 -0.22651,-1.68788 -0.40368,-3.33947 -0.46972,-5.04035 -0.0128,-0.33018 -0.36739,-0.88753 -0.0532,-0.98987 1.14164,-0.37185 4.89075,-0.41858 3.59791,-0.17185 -1.29529,3.72547 -2.85432,7.36063 -4.96231,10.70786 -3.03637,3.93835 -7.35294,7.77606 -12.33608,4.44299 -0.4575,-0.53468 -1.00623,-1.00316 -1.37249,-1.60402 -2.18218,-3.57996 -0.77642,-8.0832 -0.04,-11.85323 1.26819,-4.49476 2.99522,-8.76711 5.27287,-12.85201 1.32192,-2.64385 5.0609,-0.77436 3.73898,1.86949 z"
       id="path6874"
       style="fill:#000000;fill-opacity:1;fill-rule:nonzero;stroke:none" />
    <path
       inkscape:connector-curvature="0"
       d="m 623.67501,490.22122 c 1.44916,3.19906 1.95355,6.71442 2.34741,10.17421 0.16191,1.69535 0.30283,3.39478 0.34468,5.09794 -0.15801,-0.0929 0.11676,0.39451 -2.3e-4,0.36326 -4.83567,-1.29154 -4.13546,-0.51375 -3.1027,-4.04754 0.74279,-3.33071 2.06945,-6.4703 3.29881,-9.63766 0.53838,-1.63226 1.00765,-3.11683 2.02751,-4.48772 0.66991,-0.14595 1.32416,-0.44678 2.00973,-0.43786 1.78321,0.0232 2.66641,3.03963 3.10216,4.31513 0.68854,2.61779 0.79966,5.31737 1.32877,7.96674 0.3516,1.09945 0.34053,4.71929 1.6476,5.17568 0.83329,0.23399 1.65702,0.37477 2.51514,0.24621 2.94835,-0.21139 3.2473,3.95821 0.29895,4.1696 l 0,0 c -1.96036,0.0785 -3.80154,-0.10803 -5.49642,-1.20956 -2.16769,-2.05991 -2.67246,-4.6747 -3.06497,-7.56494 -0.49365,-2.48213 -0.65471,-4.99464 -1.19563,-7.46414 -0.0363,-0.1138 -0.86041,-1.96826 -0.84767,-1.99514 0.012,-0.0253 2.02697,1.52379 2.45656,-0.057 1.21577,-2.31451 -0.9625,2.68757 -0.88529,2.85719 -1.19006,3.05896 -2.47571,6.08969 -3.18671,9.30944 -0.57349,1.90945 -1.20805,6.81619 -5.08472,2.59847 -0.0367,-1.57978 -0.17311,-3.15587 -0.31942,-4.72855 -0.3335,-2.97361 -0.73495,-6.00663 -1.93254,-8.77426 -1.32193,-2.64386 2.41705,-4.51334 3.73898,-1.86949 z"
       id="path6876"
       style="fill:#000000;fill-opacity:1;fill-rule:nonzero;stroke:none" />
    <path
       inkscape:connector-curvature="0"
       d="m 626.46188,456.77877 c 1.49937,2.83964 1.99356,6.05292 2.34795,9.20476 0.23667,2.63171 0.31892,5.27379 0.34464,7.91496 0.003,0.3715 0.001,0.743 -0.004,1.11447 -0.041,2.95564 -4.22093,2.89762 -4.17991,-0.058 l 0,0 c 0.005,-0.33867 0.006,-0.67738 0.003,-1.01608 -0.0239,-2.50104 -0.10037,-5.00287 -0.31945,-7.49533 -0.28938,-2.66107 -0.66624,-5.39779 -1.93201,-7.79527 -1.32192,-2.64385 2.41706,-4.51334 3.73898,-1.86949 z"
       id="path6884"
       style="fill:#000000;fill-opacity:1;fill-rule:nonzero;stroke:none" />
    <path
       inkscape:connector-curvature="0"
       d="m 620.91212,466.10413 c 3.10503,-0.0852 6.2296,0.18664 9.32047,-0.1557 1.37751,-0.17234 2.72533,-0.37158 4.05429,-0.77059 2.84316,-0.80865 3.98677,3.21219 1.1436,4.02084 l 0,0 c -1.57277,0.43049 -3.14389,0.74087 -4.76997,0.9081 -3.23985,0.3139 -6.49616,0.13495 -9.74839,0.17766 -2.95592,0 -2.95592,-4.18031 0,-4.18031 z"
       id="path6886"
       style="fill:#000000;fill-opacity:1;fill-rule:nonzero;stroke:none" />
    <path
       style="fill:#000000;fill-opacity:1;fill-rule:nonzero;stroke:none"
       id="path6904"
       d="m 417.88048,324.18099 c 9.22449,1.91486 18.75112,1.93211 28.1329,2.00368 21.40895,-0.26261 42.06687,-6.10736 62.31074,-12.5241 22.96418,-8.1917 44.84977,-19.19456 65.58141,-31.99027 4.70614,-2.90466 9.30249,-5.98356 13.95373,-8.97534 22.02784,-14.75454 43.18719,-30.74704 64.52349,-46.4706 2.37957,-1.7536 4.85954,1.61162 2.47996,3.36522 l 0,0 c -21.4076,15.7761 -42.63789,31.82186 -64.74233,46.62139 -4.69615,3.01947 -9.33677,6.1271 -14.08845,9.05841 -21.00343,12.95705 -43.17789,24.09291 -66.4452,32.37626 -20.66441,6.54447 -41.75399,12.47554 -63.60607,12.71921 -9.64639,-0.0774 -19.43637,-0.11009 -28.92001,-2.08473 -2.89852,-0.57971 -2.0787,-4.67883 0.81983,-4.09913 z"
       inkscape:connector-curvature="0" />
    <path
       style="fill:#000000;fill-opacity:1;fill-rule:nonzero;stroke:none"
       id="path6910"
       d="m 495.14761,315.23738 c 0.81942,-0.15602 1.64477,-0.0577 2.44741,0.11469 0.98932,0.24982 1.75289,0.81513 2.41326,1.49754 0.46705,0.49698 0.78633,1.08013 1.04099,1.68353 0.29779,0.78296 0.28425,1.58946 0.14171,2.39501 -0.16605,0.75459 -0.56231,1.45829 -1.21519,1.96902 -0.1487,0.11633 -0.31787,0.20978 -0.47681,0.31467 -0.61313,0.36553 -1.31228,0.54231 -2.03255,0.636 -0.95096,0.12523 -1.62367,-0.0537 -2.45962,-0.43127 -0.58534,-0.31706 -1.04261,-0.75984 -1.43976,-1.25199 -0.17933,-0.20557 -0.36065,-0.4087 -0.52398,-0.62527 -0.26524,-0.39665 -0.36325,-0.45316 -0.64386,-1.11086 -0.16565,-0.46403 -0.20324,-0.95006 -0.21718,-1.43359 0.006,-0.6331 0.22496,-1.21118 0.54104,-1.76843 0.30392,-0.44936 0.69608,-0.83576 1.13637,-1.17887 0.55636,-0.44015 1.25542,-0.61676 1.97608,-0.6706 0.29334,-0.013 0.58716,-0.0102 0.88073,-0.008 0.76428,-0.033 1.13299,0.18024 1.75898,0.49232 -0.0423,-0.0248 -0.17048,-0.0972 -0.12682,-0.0744 0.45815,0.23899 0.78401,0.46972 1.16148,0.82352 0.48333,0.4488 0.69324,1.02879 0.88038,1.61184 0.15671,0.48646 0.20503,0.99042 0.22864,1.49388 0.0112,0.70913 -0.1895,1.38332 -0.51698,2.02325 -0.33172,0.64031 -0.88929,1.12216 -1.5082,1.53924 -0.58126,0.38436 -1.22948,0.63871 -1.92408,0.80452 -0.66672,0.1379 -1.34156,0.14041 -2.0172,0.0641 -0.7808,-0.10464 -1.48889,-0.38993 -2.15026,-0.76534 -0.7734,-0.47066 -1.20129,-1.18126 -1.49544,-1.95068 -0.22541,-0.62699 -0.22849,-1.27385 -0.12855,-1.92007 0.10849,-0.53603 0.33272,-1.03041 0.60664,-1.51331 0.20487,-0.38776 0.46923,-0.7425 0.75458,-1.0852 0.14451,-0.1877 0.30522,-0.36473 0.46959,-0.53855 0.34478,-0.34121 0.76488,-0.58448 1.20932,-0.80321 0.13627,-0.077 0.0385,-0.0231 0.32774,-0.16201 0.083,-0.0399 -0.3219,0.17516 -0.24491,0.12649 0.37691,-0.23825 0.20411,-0.1368 0.69784,-0.36724 0.44875,-0.17879 0.93209,-0.24535 1.41815,-0.26809 0.17034,-0.007 0.34088,-0.005 0.5113,-0.003 0.71809,0.031 1.05251,0.15707 1.58587,0.39721 -0.0668,-0.026 0.20141,0.0865 0.15016,0.0666 -0.35341,-0.13729 -0.1243,-0.0754 0.30247,0.13547 0.17538,0.0867 0.29933,0.18193 0.45237,0.29052 -0.0931,-0.0605 -0.37142,-0.24336 -0.27935,-0.18157 0.38425,0.25791 0.56313,0.39242 0.86749,0.6915 0.15601,0.13982 0.27094,0.30377 0.40956,0.45955 0.0414,0.0465 -0.15714,-0.19151 -0.11488,-0.14567 0.13655,0.1481 0.18735,0.22426 0.29576,0.37247 0.18885,0.32467 0.1905,0.29629 0.30733,0.58484 0.022,0.0544 0.0866,0.21769 0.0596,0.16514 -0.0248,-0.0482 -0.32315,-0.65883 0.004,-0.0514 0.14278,0.2832 0.22327,0.58566 0.27182,0.89208 0.008,0.0518 0.0317,0.20701 0.0189,0.15598 -0.0262,-0.10451 -0.0395,-0.21128 -0.0593,-0.31692 -0.0114,-0.0338 -0.05,-0.1338 -0.0341,-0.10149 0.14731,0.29863 0.20912,0.63372 0.25483,0.95459 0.0292,0.23982 0.0357,0.48103 0.0371,0.72205 1.2e-4,0.14033 -5.1e-4,0.28066 -8.9e-4,0.42099 -3.8e-4,0.15914 -3.8e-4,0.31829 -3.8e-4,0.47743 0.0241,0.4458 -0.0806,0.88451 -0.26297,1.29709 0.135,-0.30339 -0.0981,0.2603 -0.1428,0.35508 -0.0531,0.11245 -0.14533,0.24327 -0.21766,0.35066 -0.18216,0.22794 -0.15085,0.20055 -0.31246,0.37154 -0.0282,0.0299 -0.11178,0.12008 -0.0864,0.0882 0.0695,-0.0873 0.28246,-0.34577 0.21902,-0.25485 -0.1639,0.2349 -0.252,0.30787 -0.43967,0.48965 -0.35079,0.30168 0.13499,-0.10475 -0.68207,0.45981 -0.44936,0.34482 0.46454,-0.28454 0.35066,-0.21051 -0.48476,0.31513 -0.20653,0.16072 -0.58752,0.35845 -0.0526,0.0237 -0.10334,0.0512 -0.15793,0.071 -0.14603,0.0529 -0.50089,0.27836 -0.4432,0.14694 0.059,-0.13446 0.30268,-0.10008 0.44911,-0.16041 0.065,-0.0268 0.24405,-0.13407 0.18332,-0.10014 -0.10099,0.0564 -0.20092,0.11453 -0.30413,0.16766 -0.0588,0.0302 -0.12094,0.0548 -0.18141,0.0823 -0.39639,0.16797 -0.81684,0.23978 -1.24805,0.27704 -0.15985,0.009 -0.32004,0.007 -0.4801,0.007 -0.12078,-4.5e-4 -0.24156,-6.8e-4 -0.36234,-7.9e-4 -0.12692,-9e-5 -0.25383,-8e-5 -0.38075,-8e-5 -0.37799,0.008 -0.69482,-0.0296 -1.09123,-0.12128 -0.15458,-0.0358 -0.29391,-0.11184 -0.44087,-0.16775 0.0817,0.0524 0.29429,0.0993 0.46567,0.12709 -0.18868,0.12732 -1.05186,-0.23211 -1.34427,-0.36462 -1.00138,-0.53447 1.18958,0.57017 -0.19773,-0.0917 -0.0623,-0.0297 -0.11898,-0.0679 -0.17847,-0.10189 -0.0378,-0.0237 -0.15368,-0.0914 -0.11348,-0.0711 0.0983,0.0497 0.19014,0.10897 0.288,0.15925 0.0368,0.0189 0.15188,0.0676 0.11547,0.048 -0.1901,-0.10204 -0.75322,-0.41468 -0.58064,-0.29008 -0.28595,-0.14943 -0.4034,-0.25572 -0.73459,-0.5712 -0.11205,-0.10675 -0.38512,-0.47077 -0.26849,-0.36804 0.39927,0.50196 0.20356,0.31597 0.53652,0.59755 0.0379,0.0261 0.14703,0.10899 0.11368,0.0783 -0.19225,-0.17686 -0.40892,-0.33246 -0.5912,-0.51761 -0.0877,-0.089 -0.14755,-0.19755 -0.21407,-0.30028 -0.0414,-0.064 -0.15818,-0.25883 -0.10936,-0.19917 0.063,0.077 0.0936,0.17188 0.14923,0.25336 -0.28059,-0.29489 -0.41321,-0.65642 -0.50939,-1.02202 -0.0372,-0.16902 -0.0551,-0.33987 -0.0609,-0.51167 -10e-4,-0.0349 -0.01,-0.13883 -0.002,-0.10461 0.18625,0.85588 0.003,0.4193 0.26632,0.95437 -0.20494,-0.32785 -0.33007,-0.68574 -0.39999,-1.05514 -0.038,-0.22422 -0.0421,-0.45087 -0.0425,-0.67709 1.2e-4,-0.11879 7.5e-4,-0.23759 10e-4,-0.35639 2.5e-4,-0.12903 2.5e-4,-0.25806 2.5e-4,-0.38709 1e-5,-0.10091 0,-0.20183 0,-0.30275 -0.0474,-0.69479 0.27907,-1.26993 0.75035,-1.78054 -0.21078,0.20408 -0.37808,0.4269 -0.47339,0.68896 -0.345,1.40608 0.23719,-0.49299 0.42085,-0.81315 0.10613,-0.18501 0.32943,-0.29303 0.49414,-0.43954 -0.35674,0.19212 0.68344,-0.4043 0.5302,-0.28164 -0.30083,0.2408 -0.65242,0.42875 -0.94326,0.67922 -0.16085,0.13852 -0.26385,0.39807 -0.33666,0.59093 -0.0255,0.10365 -0.12021,0.40958 -0.0765,0.31096 0.11618,-0.26188 0.17324,-0.54322 0.2948,-0.80312 0.12407,-0.26529 0.38829,-0.50233 0.61885,-0.6989 0.46926,-0.36787 -0.91252,0.70414 1.04557,-0.51869 0.2915,-0.18205 -0.66656,0.24875 -0.93695,0.45535 -0.0301,0.023 -0.11643,0.0954 -0.085,0.0739 0.18761,-0.12834 0.36948,-0.26328 0.55422,-0.39492 0.7523,-0.38709 -0.16832,0.13677 -0.26775,0.18376 -0.09,0.0426 0.15818,-0.11485 0.23941,-0.1698 0.0986,-0.0667 0.20505,-0.12494 0.30987,-0.18331 0.32378,-0.18645 0.69687,-0.2939 1.07447,-0.3469 0.0514,-0.007 0.20323,-0.0336 0.15522,-0.0155 -0.40683,0.15305 -0.82458,0.2816 -1.23688,0.42241 0.41029,-0.29468 0.90193,-0.44033 1.40606,-0.54 0.70923,-0.1283 -0.93049,0.29887 -0.39061,0.0948 0.12676,-0.0479 0.25446,-0.0938 0.38169,-0.14071 0.32478,-0.10017 0.6636,-0.14619 1.00561,-0.16069 0.1494,-0.004 0.29889,-0.003 0.44833,-0.002 0.0829,3.4e-4 0.16571,4.5e-4 0.24856,5.7e-4 0.0999,6e-5 0.19977,4e-5 0.29965,4e-5 0.0812,0 0.16247,0 0.2437,0 0.0382,-1e-5 0.0764,-1e-5 0.11462,-1e-5 1.19467,-0.0333 1.50786,0.31158 2.20228,0.9267 -0.20311,-0.22917 -0.42772,-0.42931 -0.71704,-0.56018 -0.21013,-0.0613 -0.42026,-0.12253 -0.63039,-0.1838 -0.0465,-0.006 -0.18325,-0.0328 -0.13953,-0.0175 0.38485,0.13523 0.79502,0.21491 1.16609,0.37819 0.31506,0.13863 0.57046,0.45403 0.76967,0.70743 0.17273,0.22809 0.2815,0.48242 0.36491,0.74577 0.13346,0.98116 0.13031,0.35511 -0.39781,1.84399 -2.00315,2.55631 -6.03471,0.016 -4.03156,-2.54028 l 0,0 c -0.47873,1.42272 -0.4908,0.83021 -0.35611,1.74892 0.0701,0.22025 0.15467,0.4362 0.3014,0.62623 0.54138,0.66976 0.7834,0.55452 1.72611,0.8891 0.0669,0.0237 -0.1428,-0.0158 -0.21419,-0.0237 -0.23239,-0.0646 -0.46477,-0.12919 -0.69715,-0.19379 -0.42174,-0.18665 -0.78605,-0.42784 -1.08306,-0.76549 0.17317,0.14891 0.30376,0.35261 0.5195,0.44675 1.50344,0.65599 1.85747,0.37551 1.21688,0.39007 -0.0381,0 -0.0763,0 -0.11445,0 -0.0813,1e-5 -0.16252,1e-5 -0.24378,1e-5 -0.10247,0 -0.20494,2e-5 -0.30741,-5e-5 -0.0874,-1.1e-4 -0.17488,-2.3e-4 -0.26232,-6.8e-4 -0.0706,-2.3e-4 -0.16861,6e-5 -0.22415,-10e-4 0.13463,-0.0128 0.26778,-0.0319 0.39449,-0.0759 0.0847,-0.0338 0.16886,-0.069 0.25427,-0.10141 0.0215,-0.008 -0.0415,0.019 -0.0623,0.0285 -0.0179,0.008 -0.16857,0.0764 -0.17579,0.0785 -0.2674,0.0785 -0.53861,0.14607 -0.80691,0.222 -0.0171,0.005 0.0353,-0.006 0.053,-0.009 0.26136,-0.059 0.52664,-0.1444 0.725,-0.29733 -0.43228,0.15446 -0.86736,0.30276 -1.29683,0.46338 -0.0258,0.01 0.0558,-0.005 0.0833,-0.01 0.0627,-0.01 0.12748,-0.0142 0.1874,-0.0336 0.21316,-0.069 0.45868,-0.0973 0.62896,-0.23136 0.60553,-0.47935 -1.03313,0.59968 -0.29859,0.17872 0.15509,-0.11543 0.30406,-0.23781 0.46528,-0.34628 0.0546,-0.0367 -0.0934,0.0895 -0.1443,0.13032 -0.31042,0.24917 -1.37258,0.82916 -1.0814,0.56197 0.25301,-0.23217 0.68786,-0.24611 0.94677,-0.47709 0.15214,-0.13306 0.3226,-0.30066 0.39886,-0.47854 0.207,-0.4829 0.34435,-1.15881 0.15836,-0.33194 -0.0896,0.24724 -0.20586,0.57772 -0.41003,0.76162 -0.9617,0.86621 -1.35427,0.92109 -0.56672,0.50122 0.14542,-0.13324 0.345,-0.23222 0.43625,-0.39974 0.22009,-0.40407 0.31135,-0.85503 0.47819,-1.27911 0.0225,-0.0571 0.002,0.12155 -0.007,0.1815 -0.0238,0.15313 -0.0528,0.3056 -0.0834,0.45775 -0.005,0.0248 -0.0155,0.0484 -0.0232,0.0726 -0.13808,0.39072 -0.34291,0.74625 -0.65433,1.0544 0.49295,-0.55384 0.42635,-0.65381 0.59097,-1.4035 0.008,-0.0355 -0.008,0.14625 0,0.1086 0,0.015 0,0.0301 0,0.0451 0,0.10115 10e-6,0.20231 0,0.30346 -2e-5,0.13163 -2e-5,0.26327 -2.5e-4,0.3949 -2.5e-4,0.11458 -7.6e-4,0.22915 -0.001,0.34373 2e-5,0.0753 0.004,0.18369 -0.0178,-0.007 -0.0352,-0.15495 -0.0845,-0.29546 -0.17349,-0.42376 0.0667,0.12705 0.15702,0.24613 0.2,0.38116 0.28098,0.88274 0.19438,1.00999 0.12604,0.54322 -0.0268,-0.0944 -0.0568,-0.21225 -0.10449,-0.29501 -0.52715,-0.91385 -0.34637,-0.48318 -0.15462,-0.28876 0.0323,0.0431 0.0675,0.0846 0.0967,0.12938 0.49593,0.76067 0.0259,0.032 -0.0494,-0.0405 -0.16569,-0.15928 -0.36355,-0.28967 -0.53155,-0.44699 -0.0531,-0.0497 0.12356,0.0819 0.18533,0.12278 0.55838,0.45268 -0.0391,-0.0596 0.68843,0.72329 0.0843,0.0908 -0.13,-0.20886 -0.2228,-0.2927 -0.87471,-0.79027 -0.81249,-0.55822 -0.48243,-0.39904 0.0376,0.0214 0.0757,0.0421 0.11267,0.0643 0.67701,0.40605 -0.91616,-0.43128 -0.10885,-0.0521 0.13465,0.0633 0.55506,0.29193 0.39499,0.20437 -0.22028,-0.11625 0.19963,0.10257 -0.38731,-0.16618 -0.0481,-0.022 0.10116,0.0338 0.15062,0.0532 0.35611,0.13935 0.17924,0.083 0.63427,0.32443 0.0642,0.034 -0.12382,-0.0744 -0.18573,-0.11166 -0.63242,-0.27034 -0.12833,-0.0882 -1.1342,-0.27697 -0.36079,-0.0677 0.86442,0.0706 0.47507,0.0249 0.42598,0.0554 0.8425,0.15005 1.22496,0.33242 -0.10924,-0.0386 -0.21312,-0.0929 -0.32774,-0.11564 -1.16418,-0.23131 -0.72075,-0.0525 -0.39158,-0.0836 0.12877,0 0.25754,-10e-6 0.3863,9e-5 0.12598,1.1e-4 0.25196,3.4e-4 0.37794,9e-4 0.007,3e-5 0.21331,-0.002 0.13295,0.003 -0.20548,0.0216 -0.37945,0.0594 -0.56852,0.15286 -0.0821,0.0407 -0.31726,0.17963 -0.23789,0.1348 0.0968,-0.0547 0.18594,-0.12113 0.2881,-0.16733 1.07203,-0.48476 0.5125,-0.15824 0.19865,-0.0805 -0.12153,0.0678 -0.22177,0.16392 -0.34498,0.22922 -0.0403,0.0213 0.7402,-0.55491 0.56446,-0.36867 -0.12948,0.13722 -0.34435,0.19218 -0.47696,0.3284 -0.0244,0.0253 -0.051,0.0491 -0.0731,0.076 -0.56921,0.69372 0.44838,-0.55105 0.0368,-0.0219 -0.0894,0.14594 -0.11986,0.27527 -0.18917,0.44142 -0.0145,0.0349 0.0206,-0.0721 0.0319,-0.10798 0.0573,-0.18199 0.0544,-0.16207 0.13712,-0.37228 -0.097,0.29936 -0.10971,0.99262 -0.10357,0.37451 2e-5,-0.16244 3e-5,-0.32487 3.8e-4,-0.4873 3.7e-4,-0.13077 10e-4,-0.26154 10e-4,-0.3923 -2.6e-4,-0.0726 -0.002,-0.1463 -0.003,-0.21815 0.0958,0.29668 0.0348,0.0705 -0.0603,-0.14468 -0.23313,-0.99953 -0.10595,-0.35165 -7.6e-4,-0.1652 0.26309,0.44044 -0.4662,-0.8454 -0.15377,-0.32278 0.0417,0.0698 0.0879,0.13736 0.13193,0.20604 0.1645,0.17972 0.0709,0.16949 -0.14087,-0.17152 -0.0506,-0.0814 0.13393,0.1426 0.19777,0.21615 0.043,0.0495 -0.2032,-0.20659 -0.14218,-0.13863 -0.0768,-0.076 -0.26371,-0.20485 -0.0167,-0.0393 0.0291,0.0195 0.9366,0.5757 -0.0784,-0.0469 0.0785,0.0524 0.1419,0.0983 0.23273,0.1387 0.10349,0.0461 0.4234,0.0847 0.31716,0.12539 -0.0714,0.0273 -0.40241,-0.16131 -0.51994,-0.20623 -0.0419,-0.019 -0.17062,-0.0688 -0.12559,-0.057 0.10227,0.0269 0.20511,0.0566 0.29861,0.10241 0.0723,0.0355 -0.15638,-0.0468 -0.23432,-0.0709 -0.0113,-0.003 0.0226,0.008 0.0344,0.009 0.68639,0.0959 0.93444,0.0941 0.62415,0.0925 -0.0808,-5.6e-4 -0.16163,-9e-4 -0.24244,-0.001 -0.0761,-0.003 0.45737,-0.0964 0.35066,-0.10788 0.0814,-0.0422 0.16479,-0.0815 0.24416,-0.12673 0.0373,-0.0213 0.14092,-0.0958 0.10526,-0.0724 -0.29425,0.19351 -0.51517,0.31338 -0.66054,0.38705 -0.0711,0.036 -0.14172,0.0726 -0.21325,0.10786 -8.8e-4,4.6e-4 -3.8e-4,-0.002 -6.3e-4,-0.002 0.0301,-0.0195 0.0602,-0.039 0.0903,-0.0586 -0.0355,0.0207 -0.0636,0.0532 -0.10339,0.0662 -0.1218,0.0398 0.84485,-0.47989 0.27649,-0.2452 -0.13039,0.13815 -0.24516,0.28763 -0.3691,0.43075 0.0264,-0.0371 0.10549,-0.14829 0.0791,-0.11121 -0.0365,0.0514 -0.0668,0.10673 -0.1096,0.15407 -0.0222,0.0246 0.0645,-0.11258 0.0472,-0.085 -0.0753,0.12019 -0.14194,0.23196 -0.21114,0.35348 -0.0304,0.0535 -0.0555,0.10985 -0.0914,0.16064 -0.0176,0.025 0.036,-0.11368 0.0252,-0.0858 -0.0226,0.058 -0.0406,0.11742 -0.0621,0.17578 -0.005,0.014 -0.0191,0.056 -0.0179,0.0413 0.004,-0.0558 0.0186,-0.11053 0.0279,-0.1658 -0.0544,0.33298 -10e-4,-0.21664 -0.0564,-0.0423 -0.005,-0.006 -0.0225,-0.0208 -0.0195,-0.0139 0.0101,0.0234 0.0543,0.087 0.0359,0.0681 -0.15693,-0.16063 -0.27207,-0.35373 -0.50139,-0.44766 0.0145,0.0109 0.0352,0.0175 0.0436,0.0328 0.005,0.009 -0.0443,0.003 -0.0335,0.006 0.12329,0.039 0.19062,0.0325 0.0813,0.0354 0.20979,0.0304 0.0295,-0.003 -0.0239,0.0225 -0.14305,0.0674 0.34861,-0.0601 0.22541,-0.001 -0.0224,0.013 -0.0895,0.0477 -0.0632,0.0439 0.0693,-0.0101 0.16696,-0.14359 0.20494,-0.0978 0.16967,-0.11107 0.11671,-0.0979 -0.0188,0.146 0.0928,-0.17544 0.0158,-0.0433 0.009,0.036 -0.003,0.0354 0.007,-0.0759 0.0337,-0.10211 0.0181,-0.0178 -0.0296,0.0678 -0.003,0.0721 0.0322,0.005 -0.005,-0.19824 0.0239,0.003 -0.006,-0.15128 -0.006,-0.30482 -0.0425,-0.45327 -0.0114,-0.036 -0.0225,-0.0721 -0.0341,-0.10804 -0.19356,-0.59754 0.0696,0.17903 0.27568,0.28315 -0.0445,-0.0435 -0.18857,-0.16249 -0.13336,-0.13043 0.0955,0.0555 0.16701,0.13887 0.25645,0.2019 0.0437,0.0308 0.18953,0.10432 0.1418,0.0788 -0.0663,-0.0355 -0.13533,-0.0675 -0.19752,-0.10859 -0.0342,-0.0226 0.0754,0.0352 0.11309,0.0529 -0.11405,-0.0583 -0.22811,-0.11654 -0.34216,-0.17481 -0.43864,-0.26895 0.0891,0.0639 0.3523,0.13627 1.14977,0.31629 0.96499,0.098 0.59189,0.11889 -0.17344,-10e-4 -0.34689,-0.002 -0.52033,-10e-4 0.3246,-0.0528 0.63085,-0.17408 0.88155,-0.3624 0.0222,-0.0241 0.0904,-0.0953 0.0666,-0.0724 -0.0577,0.0552 -0.10749,0.11728 -0.16958,0.16851 -0.0335,0.0276 0.1113,-0.129 0.083,-0.0971 -0.14138,0.15942 -0.1517,0.19411 0.0369,-0.0907 0.1234,-0.28686 -0.22658,0.58865 0.0695,-0.23902 0.0137,-0.0382 -0.0166,0.079 -0.0299,0.11738 -0.005,0.0145 0.003,-0.0301 0.005,-0.0452 0.003,-0.0911 0.006,-0.18221 0.008,-0.27331 0.002,0.0811 0.036,0.38414 -0.0392,0.12641 -0.075,-0.14546 -0.0506,-0.11067 -0.14327,-0.24265 -0.0688,-0.098 0.13693,0.19649 0.20427,0.29536 0.021,0.0308 -0.0444,-0.0601 -0.0672,-0.0898 -0.0215,-0.0281 0.0423,0.0567 0.0635,0.085 0.0212,0.0282 0.0996,0.0959 0.0637,0.0847 -0.0421,-0.0132 -0.11525,-0.12195 -0.0861,-0.0917 0.16353,0.16965 0.31801,0.34606 0.46493,0.5275 0.05,0.0634 0.18545,0.18077 -0.0234,0.0157 -0.0183,-0.0145 0.0368,0.0292 0.0519,0.0464 0.002,0.003 -0.008,-2.3e-4 -0.0113,-3.4e-4 -0.0411,-0.0207 -0.0822,-0.0414 -0.12334,-0.0622 -0.25102,-0.093 -0.46728,-0.11482 -0.79296,-0.11236 -0.0146,1.2e-4 0.15145,-0.006 0.15664,-0.007 0.10272,0.002 -0.1706,0.0963 -0.004,0.0354 -0.16053,0.12611 -0.31247,0.24572 -0.40262,0.42386 -0.0329,0.065 -0.0618,0.13178 -0.0868,0.1996 -0.007,0.0186 -0.0276,0.067 -0.008,0.0583 0.0225,-0.0101 0.0148,-0.0431 0.0222,-0.0646 0.008,-0.0283 0.002,-0.0634 0.0238,-0.0848 0.0174,-0.0168 0.011,0.0891 0.0175,0.067 0.008,-0.0259 -0.0349,-0.17946 0.0229,-0.0769 -0.0549,-0.1641 -0.0891,-0.22459 -0.19691,-0.35591 -0.0238,-0.14477 -0.13915,-0.0476 0.11553,-0.0464 -0.2762,-0.068 0.0349,-0.079 -0.21585,-0.0523 -3.4165,0.61273 -4.38283,-3.71989 -0.96633,-4.33261 z"
       inkscape:connector-curvature="0" />
    <path
       inkscape:connector-curvature="0"
       d="m 415.7218,320.81112 c 0.81942,-0.15602 1.64477,-0.0577 2.44741,0.11469 0.98932,0.24982 1.75289,0.81513 2.41326,1.49754 0.46705,0.49698 0.78633,1.08013 1.04099,1.68353 0.29779,0.78296 0.28425,1.58946 0.14171,2.39501 -0.16605,0.75459 -0.56231,1.45829 -1.21519,1.96902 -0.1487,0.11633 -0.31787,0.20978 -0.47681,0.31467 -0.61313,0.36553 -1.31228,0.54231 -2.03255,0.636 -0.95096,0.12523 -1.62367,-0.0537 -2.45962,-0.43127 -0.58534,-0.31706 -1.04261,-0.75984 -1.43976,-1.25199 -0.17933,-0.20557 -0.36065,-0.4087 -0.52398,-0.62527 -0.26524,-0.39665 -0.36325,-0.45316 -0.64386,-1.11086 -0.16565,-0.46403 -0.20324,-0.95006 -0.21718,-1.43359 0.006,-0.6331 0.22496,-1.21118 0.54104,-1.76843 0.30392,-0.44936 0.69608,-0.83576 1.13637,-1.17887 0.55636,-0.44015 1.25542,-0.61676 1.97608,-0.6706 0.29334,-0.013 0.58716,-0.0102 0.88073,-0.008 0.76428,-0.033 1.13299,0.18024 1.75898,0.49232 -0.0423,-0.0248 -0.17048,-0.0972 -0.12682,-0.0744 0.45815,0.23899 0.78401,0.46972 1.16148,0.82352 0.48333,0.4488 0.69324,1.02879 0.88038,1.61184 0.15671,0.48646 0.20503,0.99042 0.22864,1.49388 0.0112,0.70913 -0.1895,1.38332 -0.51698,2.02325 -0.33172,0.64031 -0.88929,1.12216 -1.5082,1.53924 -0.58126,0.38436 -1.22948,0.63871 -1.92408,0.80452 -0.66672,0.1379 -1.34156,0.14041 -2.0172,0.0641 -0.7808,-0.10464 -1.48889,-0.38993 -2.15026,-0.76534 -0.7734,-0.47066 -1.20129,-1.18126 -1.49544,-1.95068 -0.22541,-0.62699 -0.22849,-1.27385 -0.12855,-1.92007 0.10849,-0.53603 0.33272,-1.03041 0.60664,-1.51331 0.20487,-0.38776 0.46923,-0.7425 0.75458,-1.0852 0.14451,-0.1877 0.30522,-0.36473 0.46959,-0.53855 0.34478,-0.34121 0.76488,-0.58448 1.20932,-0.80321 0.13627,-0.077 0.0385,-0.0231 0.32774,-0.16201 0.083,-0.0399 -0.3219,0.17516 -0.24491,0.12649 0.37691,-0.23825 0.20411,-0.1368 0.69784,-0.36724 0.44875,-0.17879 0.93209,-0.24535 1.41815,-0.26809 0.17034,-0.007 0.34088,-0.005 0.5113,-0.003 0.71809,0.031 1.05251,0.15707 1.58587,0.39721 -0.0668,-0.026 0.20141,0.0865 0.15016,0.0666 -0.35341,-0.13729 -0.1243,-0.0754 0.30247,0.13547 0.17538,0.0867 0.29933,0.18193 0.45237,0.29052 -0.0931,-0.0605 -0.37142,-0.24336 -0.27935,-0.18157 0.38425,0.25791 0.56313,0.39242 0.86749,0.6915 0.15601,0.13982 0.27094,0.30377 0.40956,0.45955 0.0414,0.0465 -0.15714,-0.19151 -0.11488,-0.14567 0.13655,0.1481 0.18735,0.22426 0.29576,0.37247 0.18885,0.32467 0.1905,0.29629 0.30733,0.58484 0.022,0.0544 0.0866,0.21769 0.0596,0.16514 -0.0248,-0.0482 -0.32315,-0.65883 0.004,-0.0514 0.14278,0.2832 0.22327,0.58566 0.27182,0.89208 0.008,0.0518 0.0317,0.20701 0.0189,0.15598 -0.0262,-0.10451 -0.0395,-0.21128 -0.0593,-0.31692 -0.0114,-0.0338 -0.05,-0.1338 -0.0341,-0.10149 0.14731,0.29863 0.20912,0.63372 0.25483,0.95459 0.0292,0.23982 0.0357,0.48103 0.0371,0.72205 1.2e-4,0.14033 -5.1e-4,0.28066 -8.9e-4,0.42099 -3.8e-4,0.15914 -3.8e-4,0.31829 -3.8e-4,0.47743 0.0241,0.4458 -0.0806,0.88451 -0.26297,1.29709 0.135,-0.30339 -0.0981,0.2603 -0.1428,0.35508 -0.0531,0.11245 -0.14533,0.24327 -0.21766,0.35066 -0.18216,0.22794 -0.15085,0.20055 -0.31246,0.37154 -0.0282,0.0299 -0.11178,0.12008 -0.0864,0.0882 0.0695,-0.0873 0.28246,-0.34577 0.21902,-0.25485 -0.1639,0.2349 -0.252,0.30787 -0.43967,0.48965 -0.35079,0.30168 0.13499,-0.10475 -0.68207,0.45981 -0.44936,0.34482 0.46454,-0.28454 0.35066,-0.21051 -0.48476,0.31513 -0.20653,0.16072 -0.58752,0.35845 -0.0526,0.0237 -0.10334,0.0512 -0.15793,0.071 -0.14603,0.0529 -0.50089,0.27836 -0.4432,0.14694 0.059,-0.13446 0.30268,-0.10008 0.44911,-0.16041 0.065,-0.0268 0.24405,-0.13407 0.18332,-0.10014 -0.10099,0.0564 -0.20092,0.11453 -0.30413,0.16766 -0.0588,0.0302 -0.12094,0.0548 -0.18141,0.0823 -0.39639,0.16797 -0.81684,0.23978 -1.24805,0.27704 -0.15985,0.009 -0.32004,0.007 -0.4801,0.007 -0.12078,-4.5e-4 -0.24156,-6.8e-4 -0.36234,-7.9e-4 -0.12692,-9e-5 -0.25383,-8e-5 -0.38075,-8e-5 -0.37799,0.008 -0.69482,-0.0296 -1.09123,-0.12128 -0.15458,-0.0358 -0.29391,-0.11184 -0.44087,-0.16775 0.0817,0.0524 0.29429,0.0993 0.46567,0.12709 -0.18868,0.12732 -1.05186,-0.23211 -1.34427,-0.36462 -1.00138,-0.53447 1.18958,0.57017 -0.19773,-0.0917 -0.0623,-0.0297 -0.11898,-0.0679 -0.17847,-0.10189 -0.0378,-0.0237 -0.15368,-0.0914 -0.11348,-0.0711 0.0983,0.0497 0.19014,0.10897 0.288,0.15925 0.0368,0.0189 0.15188,0.0676 0.11547,0.048 -0.1901,-0.10204 -0.75322,-0.41468 -0.58064,-0.29008 -0.28595,-0.14943 -0.4034,-0.25572 -0.73459,-0.5712 -0.11205,-0.10675 -0.38512,-0.47077 -0.26849,-0.36804 0.39927,0.50196 0.20356,0.31597 0.53652,0.59755 0.0379,0.0261 0.14703,0.10899 0.11368,0.0783 -0.19225,-0.17686 -0.40892,-0.33246 -0.5912,-0.51761 -0.0877,-0.089 -0.14755,-0.19755 -0.21407,-0.30028 -0.0414,-0.064 -0.15818,-0.25883 -0.10936,-0.19917 0.063,0.077 0.0936,0.17188 0.14923,0.25336 -0.28059,-0.29489 -0.41321,-0.65642 -0.50939,-1.02202 -0.0372,-0.16902 -0.0551,-0.33987 -0.0609,-0.51167 -10e-4,-0.0349 -0.01,-0.13883 -0.002,-0.10461 0.18625,0.85588 0.003,0.4193 0.26632,0.95437 -0.20494,-0.32785 -0.33007,-0.68574 -0.39999,-1.05514 -0.038,-0.22422 -0.0421,-0.45087 -0.0425,-0.67709 1.2e-4,-0.11879 7.5e-4,-0.23759 10e-4,-0.35639 2.5e-4,-0.12903 2.5e-4,-0.25806 2.5e-4,-0.38709 1e-5,-0.10091 0,-0.20183 0,-0.30275 -0.0474,-0.69479 0.27907,-1.26993 0.75035,-1.78054 -0.21078,0.20408 -0.37808,0.4269 -0.47339,0.68896 -0.345,1.40608 0.23719,-0.49299 0.42085,-0.81315 0.10613,-0.18501 0.32943,-0.29303 0.49414,-0.43954 -0.35674,0.19212 0.68344,-0.4043 0.5302,-0.28164 -0.30083,0.2408 -0.65242,0.42875 -0.94326,0.67922 -0.16085,0.13852 -0.26385,0.39807 -0.33666,0.59093 -0.0255,0.10365 -0.12021,0.40958 -0.0765,0.31096 0.11618,-0.26188 0.17324,-0.54322 0.2948,-0.80312 0.12407,-0.26529 0.38829,-0.50233 0.61885,-0.6989 0.46926,-0.36787 -0.91252,0.70414 1.04557,-0.51869 0.2915,-0.18205 -0.66656,0.24875 -0.93695,0.45535 -0.0301,0.023 -0.11643,0.0954 -0.085,0.0739 0.18761,-0.12834 0.36948,-0.26328 0.55422,-0.39492 0.7523,-0.38709 -0.16832,0.13677 -0.26775,0.18376 -0.09,0.0426 0.15818,-0.11485 0.23941,-0.1698 0.0986,-0.0667 0.20505,-0.12494 0.30987,-0.18331 0.32378,-0.18645 0.69687,-0.2939 1.07447,-0.3469 0.0514,-0.007 0.20323,-0.0336 0.15522,-0.0155 -0.40683,0.15305 -0.82458,0.2816 -1.23688,0.42241 0.41029,-0.29468 0.90193,-0.44033 1.40606,-0.54 0.70923,-0.1283 -0.93049,0.29887 -0.39061,0.0948 0.12676,-0.0479 0.25446,-0.0938 0.38169,-0.14071 0.32478,-0.10017 0.6636,-0.14619 1.00561,-0.16069 0.1494,-0.004 0.29889,-0.003 0.44833,-0.002 0.0829,3.4e-4 0.16571,4.5e-4 0.24856,5.7e-4 0.0999,6e-5 0.19977,4e-5 0.29965,4e-5 0.0812,0 0.16247,0 0.2437,0 0.0382,-1e-5 0.0764,-1e-5 0.11462,-1e-5 1.19467,-0.0333 1.50786,0.31158 2.20228,0.9267 -0.20311,-0.22917 -0.42772,-0.42931 -0.71704,-0.56018 -0.21013,-0.0613 -0.42026,-0.12253 -0.63039,-0.1838 -0.0465,-0.006 -0.18325,-0.0328 -0.13953,-0.0175 0.38485,0.13523 0.79502,0.21491 1.16609,0.37819 0.31506,0.13863 0.57046,0.45403 0.76967,0.70743 0.17273,0.22809 0.2815,0.48242 0.36491,0.74577 0.13346,0.98116 0.13031,0.35511 -0.39781,1.84399 -2.00315,2.55631 -6.03471,0.016 -4.03156,-2.54028 l 0,0 c -0.47873,1.42272 -0.4908,0.83021 -0.35611,1.74892 0.0701,0.22025 0.15467,0.4362 0.3014,0.62623 0.54138,0.66976 0.7834,0.55452 1.72611,0.8891 0.0669,0.0237 -0.1428,-0.0158 -0.21419,-0.0237 -0.23239,-0.0646 -0.46477,-0.12919 -0.69715,-0.19379 -0.42174,-0.18665 -0.78605,-0.42784 -1.08306,-0.76549 0.17317,0.14891 0.30376,0.35261 0.5195,0.44675 1.50344,0.65599 1.85747,0.37551 1.21688,0.39007 -0.0381,0 -0.0763,0 -0.11445,0 -0.0813,10e-6 -0.16252,10e-6 -0.24378,10e-6 -0.10247,0 -0.20494,2e-5 -0.30741,-5e-5 -0.0874,-1.1e-4 -0.17488,-2.3e-4 -0.26232,-6.8e-4 -0.0706,-2.3e-4 -0.16861,6e-5 -0.22415,-0.001 0.13463,-0.0128 0.26778,-0.0319 0.39449,-0.0759 0.0847,-0.0338 0.16886,-0.069 0.25427,-0.10141 0.0215,-0.008 -0.0415,0.019 -0.0623,0.0285 -0.0179,0.008 -0.16857,0.0764 -0.17579,0.0785 -0.2674,0.0785 -0.53861,0.14607 -0.80691,0.222 -0.0171,0.005 0.0353,-0.006 0.053,-0.009 0.26136,-0.059 0.52664,-0.1444 0.725,-0.29733 -0.43228,0.15446 -0.86736,0.30276 -1.29683,0.46338 -0.0258,0.01 0.0558,-0.005 0.0833,-0.01 0.0627,-0.01 0.12748,-0.0142 0.1874,-0.0336 0.21316,-0.069 0.45868,-0.0973 0.62896,-0.23136 0.60553,-0.47935 -1.03313,0.59968 -0.29859,0.17872 0.15509,-0.11543 0.30406,-0.23781 0.46528,-0.34628 0.0546,-0.0367 -0.0934,0.0895 -0.1443,0.13032 -0.31042,0.24917 -1.37258,0.82916 -1.0814,0.56197 0.25301,-0.23217 0.68786,-0.24611 0.94677,-0.47709 0.15214,-0.13306 0.3226,-0.30066 0.39886,-0.47854 0.207,-0.4829 0.34435,-1.15881 0.15836,-0.33194 -0.0896,0.24724 -0.20586,0.57772 -0.41003,0.76162 -0.9617,0.86621 -1.35427,0.92109 -0.56672,0.50122 0.14542,-0.13324 0.345,-0.23222 0.43625,-0.39974 0.22009,-0.40407 0.31135,-0.85503 0.47819,-1.27911 0.0225,-0.0571 0.002,0.12155 -0.007,0.1815 -0.0238,0.15313 -0.0528,0.3056 -0.0834,0.45775 -0.005,0.0248 -0.0155,0.0484 -0.0232,0.0726 -0.13808,0.39072 -0.34291,0.74625 -0.65433,1.0544 0.49295,-0.55384 0.42635,-0.65381 0.59097,-1.4035 0.008,-0.0355 -0.008,0.14625 0,0.1086 0,0.015 0,0.0301 0,0.0451 0,0.10115 10e-6,0.20231 0,0.30346 -2e-5,0.13163 -2e-5,0.26327 -2.5e-4,0.3949 -2.5e-4,0.11458 -7.6e-4,0.22915 -0.001,0.34373 2e-5,0.0753 0.004,0.18369 -0.0178,-0.007 -0.0352,-0.15495 -0.0845,-0.29546 -0.17349,-0.42376 0.0667,0.12705 0.15702,0.24613 0.2,0.38116 0.28098,0.88274 0.19438,1.00999 0.12604,0.54322 -0.0268,-0.0944 -0.0568,-0.21225 -0.10449,-0.29501 -0.52715,-0.91385 -0.34637,-0.48318 -0.15462,-0.28876 0.0323,0.0431 0.0675,0.0846 0.0967,0.12938 0.49593,0.76067 0.0259,0.032 -0.0494,-0.0405 -0.16569,-0.15928 -0.36355,-0.28967 -0.53155,-0.44699 -0.0531,-0.0497 0.12356,0.0819 0.18533,0.12278 0.55838,0.45268 -0.0391,-0.0596 0.68843,0.72329 0.0843,0.0908 -0.13,-0.20886 -0.2228,-0.2927 -0.87471,-0.79027 -0.81249,-0.55822 -0.48243,-0.39904 0.0376,0.0214 0.0757,0.0421 0.11267,0.0643 0.67701,0.40605 -0.91616,-0.43128 -0.10885,-0.0521 0.13465,0.0633 0.55506,0.29193 0.39499,0.20437 -0.22028,-0.11625 0.19963,0.10257 -0.38731,-0.16618 -0.0481,-0.022 0.10116,0.0338 0.15062,0.0532 0.35611,0.13935 0.17924,0.083 0.63427,0.32443 0.0642,0.034 -0.12382,-0.0744 -0.18573,-0.11166 -0.63242,-0.27034 -0.12833,-0.0882 -1.1342,-0.27697 -0.36079,-0.0677 0.86442,0.0706 0.47507,0.0249 0.42598,0.0554 0.8425,0.15005 1.22496,0.33242 -0.10924,-0.0386 -0.21312,-0.0929 -0.32774,-0.11564 -1.16418,-0.23131 -0.72075,-0.0525 -0.39158,-0.0836 0.12877,0 0.25754,-1e-5 0.3863,9e-5 0.12598,1.1e-4 0.25196,3.4e-4 0.37794,9e-4 0.007,3e-5 0.21331,-0.002 0.13295,0.003 -0.20548,0.0216 -0.37945,0.0594 -0.56852,0.15286 -0.0821,0.0407 -0.31726,0.17963 -0.23789,0.1348 0.0968,-0.0547 0.18594,-0.12113 0.2881,-0.16733 1.07203,-0.48476 0.5125,-0.15824 0.19865,-0.0805 -0.12153,0.0678 -0.22177,0.16392 -0.34498,0.22922 -0.0403,0.0213 0.7402,-0.55491 0.56446,-0.36867 -0.12948,0.13722 -0.34435,0.19218 -0.47696,0.3284 -0.0244,0.0253 -0.051,0.0491 -0.0731,0.076 -0.56921,0.69372 0.44838,-0.55105 0.0368,-0.0219 -0.0894,0.14594 -0.11986,0.27527 -0.18917,0.44142 -0.0145,0.0349 0.0206,-0.0721 0.0319,-0.10798 0.0573,-0.18199 0.0544,-0.16207 0.13712,-0.37228 -0.097,0.29936 -0.10971,0.99262 -0.10357,0.37451 2e-5,-0.16244 3e-5,-0.32487 3.8e-4,-0.4873 3.7e-4,-0.13077 0.001,-0.26154 0.001,-0.3923 -2.6e-4,-0.0726 -0.002,-0.1463 -0.003,-0.21815 0.0958,0.29668 0.0348,0.0705 -0.0603,-0.14468 -0.23313,-0.99953 -0.10595,-0.35165 -7.6e-4,-0.1652 0.26309,0.44044 -0.4662,-0.8454 -0.15377,-0.32278 0.0417,0.0698 0.0879,0.13736 0.13193,0.20604 0.1645,0.17972 0.0709,0.16949 -0.14087,-0.17152 -0.0506,-0.0814 0.13393,0.1426 0.19777,0.21615 0.043,0.0495 -0.2032,-0.20659 -0.14218,-0.13863 -0.0768,-0.076 -0.26371,-0.20485 -0.0167,-0.0393 0.0291,0.0195 0.9366,0.5757 -0.0784,-0.0469 0.0785,0.0524 0.1419,0.0983 0.23273,0.1387 0.10349,0.0461 0.4234,0.0847 0.31716,0.12539 -0.0714,0.0273 -0.40241,-0.16131 -0.51994,-0.20623 -0.0419,-0.019 -0.17062,-0.0688 -0.12559,-0.057 0.10227,0.0269 0.20511,0.0566 0.29861,0.10241 0.0723,0.0355 -0.15638,-0.0468 -0.23432,-0.0709 -0.0113,-0.003 0.0226,0.008 0.0344,0.009 0.68639,0.0959 0.93444,0.0941 0.62415,0.0925 -0.0808,-5.6e-4 -0.16163,-9e-4 -0.24244,-10e-4 -0.0761,-0.003 0.45737,-0.0964 0.35066,-0.10788 0.0814,-0.0422 0.16479,-0.0815 0.24416,-0.12673 0.0373,-0.0213 0.14092,-0.0958 0.10526,-0.0724 -0.29425,0.19351 -0.51517,0.31338 -0.66054,0.38705 -0.0711,0.036 -0.14172,0.0726 -0.21325,0.10786 -8.8e-4,4.6e-4 -3.8e-4,-0.002 -6.3e-4,-0.002 0.0301,-0.0195 0.0602,-0.039 0.0903,-0.0586 -0.0355,0.0207 -0.0636,0.0532 -0.10339,0.0662 -0.1218,0.0398 0.84485,-0.47989 0.27649,-0.2452 -0.13039,0.13815 -0.24516,0.28763 -0.3691,0.43075 0.0264,-0.0371 0.10549,-0.14829 0.0791,-0.11121 -0.0365,0.0514 -0.0668,0.10673 -0.1096,0.15407 -0.0222,0.0246 0.0645,-0.11258 0.0472,-0.085 -0.0753,0.12019 -0.14194,0.23196 -0.21114,0.35348 -0.0304,0.0535 -0.0555,0.10985 -0.0914,0.16064 -0.0176,0.025 0.036,-0.11368 0.0252,-0.0858 -0.0226,0.058 -0.0406,0.11742 -0.0621,0.17578 -0.005,0.014 -0.0191,0.056 -0.0179,0.0413 0.004,-0.0558 0.0186,-0.11053 0.0279,-0.1658 -0.0544,0.33298 -10e-4,-0.21664 -0.0564,-0.0423 -0.005,-0.006 -0.0225,-0.0208 -0.0195,-0.0139 0.0101,0.0234 0.0543,0.087 0.0359,0.0681 -0.15693,-0.16063 -0.27207,-0.35373 -0.50139,-0.44766 0.0145,0.0109 0.0352,0.0175 0.0436,0.0328 0.005,0.009 -0.0443,0.003 -0.0335,0.006 0.12329,0.039 0.19062,0.0325 0.0813,0.0354 0.20979,0.0304 0.0295,-0.003 -0.0239,0.0225 -0.14305,0.0674 0.34861,-0.0601 0.22541,-10e-4 -0.0224,0.013 -0.0895,0.0477 -0.0632,0.0439 0.0693,-0.0101 0.16696,-0.14359 0.20494,-0.0978 0.16967,-0.11107 0.11671,-0.0979 -0.0188,0.146 0.0928,-0.17544 0.0158,-0.0433 0.009,0.036 -0.003,0.0354 0.007,-0.0759 0.0337,-0.10211 0.0181,-0.0178 -0.0296,0.0678 -0.003,0.0721 0.0322,0.005 -0.005,-0.19824 0.0239,0.003 -0.006,-0.15128 -0.006,-0.30482 -0.0425,-0.45327 -0.0114,-0.036 -0.0225,-0.0721 -0.0341,-0.10804 -0.19356,-0.59754 0.0696,0.17903 0.27568,0.28315 -0.0445,-0.0435 -0.18857,-0.16249 -0.13336,-0.13043 0.0955,0.0555 0.16701,0.13887 0.25645,0.2019 0.0437,0.0308 0.18953,0.10432 0.1418,0.0788 -0.0663,-0.0355 -0.13533,-0.0675 -0.19752,-0.10859 -0.0342,-0.0226 0.0754,0.0352 0.11309,0.0529 -0.11405,-0.0583 -0.22811,-0.11654 -0.34216,-0.17481 -0.43864,-0.26895 0.0891,0.0639 0.3523,0.13627 1.14977,0.31629 0.96499,0.098 0.59189,0.11889 -0.17344,-0.001 -0.34689,-0.002 -0.52033,-0.001 0.3246,-0.0528 0.63085,-0.17408 0.88155,-0.3624 0.0222,-0.0241 0.0904,-0.0953 0.0666,-0.0724 -0.0577,0.0552 -0.10749,0.11728 -0.16958,0.16851 -0.0335,0.0276 0.1113,-0.129 0.083,-0.0971 -0.14138,0.15942 -0.1517,0.19411 0.0369,-0.0907 0.1234,-0.28686 -0.22658,0.58865 0.0695,-0.23902 0.0137,-0.0382 -0.0166,0.079 -0.0299,0.11738 -0.005,0.0145 0.003,-0.0301 0.005,-0.0452 0.003,-0.0911 0.006,-0.18221 0.008,-0.27331 0.002,0.0811 0.036,0.38414 -0.0392,0.12641 -0.075,-0.14546 -0.0506,-0.11067 -0.14327,-0.24265 -0.0688,-0.098 0.13693,0.19649 0.20427,0.29536 0.021,0.0308 -0.0444,-0.0601 -0.0672,-0.0898 -0.0215,-0.0281 0.0423,0.0567 0.0635,0.085 0.0212,0.0282 0.0996,0.0959 0.0637,0.0847 -0.0421,-0.0132 -0.11525,-0.12195 -0.0861,-0.0917 0.16353,0.16965 0.31801,0.34606 0.46493,0.5275 0.05,0.0634 0.18545,0.18077 -0.0234,0.0157 -0.0183,-0.0145 0.0368,0.0292 0.0519,0.0464 0.002,0.003 -0.008,-2.3e-4 -0.0113,-3.4e-4 -0.0411,-0.0207 -0.0822,-0.0414 -0.12334,-0.0622 -0.25102,-0.093 -0.46728,-0.11482 -0.79296,-0.11236 -0.0146,1.2e-4 0.15145,-0.006 0.15664,-0.007 0.10272,0.002 -0.1706,0.0963 -0.004,0.0354 -0.16053,0.12611 -0.31247,0.24572 -0.40262,0.42386 -0.0329,0.065 -0.0618,0.13178 -0.0868,0.1996 -0.007,0.0186 -0.0276,0.067 -0.008,0.0583 0.0225,-0.0101 0.0148,-0.0431 0.0222,-0.0646 0.008,-0.0283 0.002,-0.0634 0.0238,-0.0848 0.0174,-0.0168 0.011,0.0891 0.0175,0.067 0.008,-0.0259 -0.0349,-0.17946 0.0229,-0.0769 -0.0549,-0.1641 -0.0891,-0.22459 -0.19691,-0.35591 -0.0238,-0.14477 -0.13915,-0.0476 0.11553,-0.0464 -0.2762,-0.068 0.0349,-0.079 -0.21585,-0.0523 -3.4165,0.61273 -4.38283,-3.71989 -0.96633,-4.33261 z"
       id="path6912"
       style="fill:#000000;fill-opacity:1;fill-rule:nonzero;stroke:none" />
    <path
       style="fill:none;stroke:#000000;stroke-width:2.41653538;stroke-linecap:butt;stroke-linejoin:miter;stroke-miterlimit:4;stroke-opacity:1;stroke-dasharray:2.41653543, 4.83307087;stroke-dashoffset:0"
       d="m 415.24374,466.80085 0,-294.01486"
       id="path6914"
       inkscape:connector-curvature="0" />
    <path
       inkscape:connector-curvature="0"
       id="path6916"
       d="m 496.06299,450.07963 0,-130.98293"
       style="fill:none;stroke:#000000;stroke-width:2.41653538;stroke-linecap:butt;stroke-linejoin:miter;stroke-miterlimit:4;stroke-opacity:1;stroke-dasharray:2.41653543, 4.83307087;stroke-dashoffset:0"
       sodipodi:nodetypes="cc" />
    <path
       style="fill:#000000;fill-opacity:1;fill-rule:nonzero;stroke:none"
       id="path6920"
       d="m 417.33389,466.64439 c 0,2.0894 0,4.17881 0,6.26822 0,1.17396 0,2.34792 0,3.52188 0,0.62803 0,1.25606 0,1.88409 0,0.0738 0,0.14758 0,0.22136 0,2.23278 -2.88418,2.23278 -2.88418,0 l 0,0 c 0,-0.0738 0,-0.14757 0,-0.22136 0,-0.62803 0,-1.25606 0,-1.88409 0,-1.17396 0,-2.34792 0,-3.52188 0,-2.08941 0,-4.17882 0,-6.26822 0,-2.23278 2.88418,-2.23278 2.88418,0 z"
       inkscape:connector-curvature="0" />
    <path
       style="fill:#000000;fill-opacity:1;fill-rule:nonzero;stroke:none"
       id="path6930"
       d="m 414.63823,474.00421 c -4.49126,0.69334 -9.04511,0.73307 -13.5724,0.83853 -7.25088,-0.17218 -14.49609,-0.53678 -21.7466,-0.73653 -3.0472,-0.11008 -6.08839,-0.13523 -9.13494,-0.0317 -2.03848,0.0681 -2.1264,-3.08809 -0.0879,-3.15617 l 0,0 c 3.1001,-0.10172 6.19477,-0.0839 9.29543,0.0312 7.20593,0.19862 14.40666,0.55687 21.61277,0.73624 4.35872,-0.10127 8.74084,-0.14159 13.06803,-0.77792 1.99982,-0.43788 2.56546,2.65843 0.56564,3.09632 z"
       inkscape:connector-curvature="0" />
    <path
       style="fill:#000000;fill-opacity:1;fill-rule:nonzero;stroke:none"
       id="path6932"
       d="m 369.85515,469.62003 c 1.83582,-0.61863 3.52792,-1.55772 5.13331,-2.70093 1.02798,-0.8134 1.9969,-1.67409 3.17541,-2.21057 0.79662,-0.37879 -0.0584,0.10368 -0.0709,0.0713 -0.0351,-0.0912 0.90536,-0.76012 1.02897,-0.85338 1.68016,-1.2656 3.31497,1.33578 1.63482,2.60138 l 0,0 c -0.49299,0.37058 -0.96459,0.84037 -1.50469,1.10497 -1.01803,0.4374 -1.77881,1.30799 -2.69817,1.93836 -1.87623,1.32018 -3.85318,2.41582 -5.99921,3.11223 -1.97853,0.54153 -2.67805,-2.52183 -0.69952,-3.06335 z"
       inkscape:connector-curvature="0" />
    <path
       style="fill:#000000;fill-opacity:1;fill-rule:nonzero;stroke:none"
       id="path6934"
       d="m 370.10877,472.49735 c 1.59957,1.27625 3.40263,2.15806 5.12516,3.19652 0.85132,0.49692 1.71185,0.97584 2.58732,1.41984 0.2696,-0.0302 0.93189,0.57209 1.2573,0.93032 1.41599,1.60689 -0.65969,3.79926 -2.07568,2.19237 l 0,0 c -0.37012,-0.46457 0.99974,0.35165 -0.39471,-0.25793 -0.93921,-0.47702 -1.86306,-0.98994 -2.7758,-1.52486 -1.82602,-1.12531 -3.76214,-2.04653 -5.4541,-3.43015 -1.63153,-1.33967 0.099,-3.86578 1.73051,-2.52611 z"
       inkscape:connector-curvature="0" />
    <path
       style="fill:#000000;fill-opacity:1;fill-rule:nonzero;stroke:none"
       id="path6936"
       d="m 496.86398,439.09192 c 0.61146,2.6903 0.92118,5.438 1.12665,8.18558 0.14305,2.24418 0.16368,4.49311 0.17175,6.74098 2.1e-4,0.28383 4.2e-4,0.56766 6.3e-4,0.85148 0.002,2.95593 -4.17814,2.95899 -4.1803,0.003 l 0,0 c -2e-4,-0.27988 -4.1e-4,-0.55976 -6.1e-4,-0.83964 -0.008,-2.14958 -0.0259,-4.30017 -0.1603,-6.44634 -0.18496,-2.5105 -0.46536,-5.02116 -1.01331,-7.48126 -0.71692,-2.86767 3.33857,-3.88154 4.05549,-1.01387 z"
       inkscape:connector-curvature="0" />
    <path
       style="fill:#000000;fill-opacity:1;fill-rule:nonzero;stroke:none"
       id="path6968"
       d="m 488.98788,466.28144 c 0.67312,-0.68425 1.34623,-1.3685 2.01934,-2.05274 0.10445,-0.10617 0.20889,-0.21234 0.31333,-0.31851 3.9e-4,-4e-4 6.3e-4,-6.4e-4 10e-4,-10e-4 0.5137,0.738 1.19551,1.38098 1.54109,2.21399 0.009,0.0219 -0.7148,0.69861 -1.09291,1.111 -0.72335,0.78893 -0.87135,1.02955 -1.54924,1.92041 -1.98968,2.67038 -3.13892,5.78059 -3.87118,9.01397 -0.39403,2.26827 -0.82037,5.02631 0.88782,6.85122 1.42855,-0.8266 2.27163,-3.11492 2.97331,-4.5479 1.0143,-2.24864 1.7718,-4.60986 2.35885,-7.00814 0.34499,-1.16383 0.18625,-1.06925 2.73036,0.45065 0.23595,0.14096 0.0859,0.54952 0.12474,0.8249 0.18407,1.30695 0.42021,2.59258 0.66785,3.88899 0.67837,2.56198 1.81446,4.81906 4.11841,6.16216 2.5962,0.85318 4.243,-1.34728 5.51779,-3.32082 2.20901,-4.21997 2.08162,-8.15873 0.86728,-12.64577 -0.86337,-2.58141 -2.22957,-4.97227 -4.05044,-6.97495 -0.12509,-0.15652 -0.27804,-0.26486 -0.43182,-0.3822 -1.52544,-1.08101 -0.0215,-3.274 1.50391,-2.19299 l 0,0 c 0.31109,0.22966 0.60539,0.47754 0.86549,0.76772 2.09338,2.33216 3.68096,5.08391 4.65235,8.08795 1.4371,5.53789 1.46465,9.66143 -1.22616,14.83446 -2.355,3.47973 -4.72127,5.7371 -9.06475,4.11073 -3.08966,-1.98381 -4.38408,-4.39101 -5.33362,-7.93676 -0.25429,-1.33151 -0.49845,-2.6546 -0.68627,-3.99721 -0.0444,-0.31755 -0.42023,-0.80295 -0.14062,-0.95158 0.74617,-0.39661 1.66637,-0.27966 2.50797,-0.30674 0.0785,-0.003 -0.0473,0.15223 -0.0709,0.22834 -0.63604,2.58718 -1.45521,5.134 -2.5583,7.55672 -1.13913,2.30685 -2.85096,6.45888 -6.13819,5.75168 -0.44706,-0.0962 -0.79891,-0.45115 -1.19836,-0.67673 -2.22284,-2.8532 -2.08363,-5.72969 -1.43812,-9.17951 0.83315,-3.60643 2.12593,-7.07245 4.3556,-10.04794 0.76818,-1.00186 1.53874,-1.93927 2.42165,-2.83678 0.14597,-0.14838 0.24771,-0.52671 0.43792,-0.44517 0.81947,0.3513 1.45199,1.0444 2.17797,1.56659 -3.9e-4,3.9e-4 -6.3e-4,6.4e-4 -0.001,10e-4 -0.10444,0.10616 -0.20888,0.21234 -0.31333,0.31851 -0.67311,0.68425 -1.34623,1.36849 -2.01934,2.05274 -1.31489,1.33664 -3.17442,-0.55365 -1.85953,-1.89029 z"
       inkscape:connector-curvature="0" />
    <path
       style="fill:#000000;fill-opacity:1;fill-rule:nonzero;stroke:none"
       id="path6974"
       d="m 518.16286,481.53809 c -0.70663,-0.74454 -1.53653,-1.37548 -2.4812,-1.76452 -0.6369,-0.22 -0.61406,-0.21971 -0.83704,0.01 -0.5427,0.35825 -0.88774,0.68154 -1.0004,1.32266 0.29427,0.37195 0.53512,0.71638 0.99728,0.89079 0.96451,0.25974 1.96051,0.22476 2.93799,0.40391 1.39793,0.32782 2.43346,1.26525 3.17588,2.46965 0.46081,0.84699 0.60492,1.78526 0.65235,2.73699 -0.2315,1.73363 -1.50341,2.632 -3.02741,3.15171 -1.77949,0.43263 -3.59679,0.46062 -5.39093,0.13809 -0.74667,-0.19168 -1.35416,-0.59289 -1.95676,-1.05395 -1.46803,-1.16025 0.14611,-3.27071 1.61414,-2.11044 l 0,0 c 0.2502,0.21189 0.50838,0.40795 0.81338,0.5343 1.37401,0.26362 2.76106,0.23018 4.13423,-0.0591 0.2559,-0.07 0.63167,-0.12752 0.84278,-0.32113 0.10351,-0.0949 0.19167,-0.37841 0.30301,-0.2931 0.0372,0.0285 0.0271,0.0907 0.0405,0.13605 -0.0198,-0.52381 -0.0639,-1.04417 -0.30104,-1.51972 -0.25215,-0.5909 -0.83095,-1.02099 -1.42065,-1.18897 -1.18725,-0.2994 -2.49895,-0.0462 -3.63122,-0.65276 -1.44922,-0.83644 -2.48471,-2.11727 -2.33552,-3.90788 0.32221,-1.18547 0.89882,-2.10026 1.92878,-2.78008 1.10869,-0.7383 2.22997,-0.93448 3.47416,-0.37349 1.25363,0.54266 2.38112,1.3396 3.32717,2.34097 1.3149,1.33663 -0.54464,3.22692 -1.85953,1.89029 z"
       inkscape:connector-curvature="0" />
    <path
       inkscape:connector-curvature="0"
       d="m 529.55855,481.53809 c -0.70663,-0.74454 -1.53653,-1.37548 -2.4812,-1.76452 -0.6369,-0.22 -0.61406,-0.21971 -0.83704,0.01 -0.5427,0.35825 -0.88774,0.68154 -1.0004,1.32266 0.29426,0.37195 0.53512,0.71638 0.99728,0.89079 0.96451,0.25974 1.96051,0.22476 2.93799,0.40391 1.39793,0.32782 2.43346,1.26525 3.17588,2.46965 0.46081,0.84699 0.60491,1.78526 0.65235,2.73699 -0.2315,1.73363 -1.50341,2.632 -3.02741,3.15171 -1.77949,0.43263 -3.59679,0.46062 -5.39093,0.13809 -0.74667,-0.19168 -1.35416,-0.59289 -1.95677,-1.05395 -1.46803,-1.16025 0.14612,-3.27071 1.61415,-2.11044 l 0,0 c 0.2502,0.21189 0.50838,0.40795 0.81338,0.5343 1.37401,0.26362 2.76106,0.23018 4.13423,-0.0591 0.25589,-0.07 0.63167,-0.12752 0.84278,-0.32113 0.10351,-0.0949 0.19167,-0.37841 0.30301,-0.2931 0.0372,0.0285 0.0271,0.0907 0.0405,0.13605 -0.0198,-0.52381 -0.0639,-1.04417 -0.30104,-1.51972 -0.25215,-0.5909 -0.83095,-1.02099 -1.42065,-1.18897 -1.18725,-0.2994 -2.49895,-0.0462 -3.63122,-0.65276 -1.44922,-0.83644 -2.48471,-2.11727 -2.33552,-3.90788 0.32221,-1.18547 0.89882,-2.10026 1.92877,-2.78008 1.10869,-0.7383 2.22998,-0.93448 3.47417,-0.37349 1.25363,0.54266 2.38111,1.3396 3.32717,2.34097 1.31489,1.33663 -0.54464,3.22692 -1.85953,1.89029 z"
       id="path6976"
       style="fill:#000000;fill-opacity:1;fill-rule:nonzero;stroke:none" />
    <path
       style="fill:#000000;fill-opacity:1;fill-rule:nonzero;stroke:none"
       id="path6978"
       d="m 464.119,214.20896 c -1.79377,0.2762 -3.72328,0.70928 -5.17052,1.85943 -0.83511,0.78755 -0.291,0.58768 0.36295,1.33608 1.66046,1.39335 3.39006,2.69616 5.1598,3.94762 1.98039,1.41127 3.87727,2.91572 5.45434,4.76852 1.5702,2.18328 1.72638,3.90283 -0.63713,5.5616 -2.32288,0.9802 -4.75932,0.78272 -7.18579,0.41826 -1.4055,-0.21467 -2.68015,-0.34363 -3.59624,-1.52305 -1.14896,-1.83647 1.46162,-3.45298 2.61058,-1.61651 l 0,0 c -0.46802,-0.39321 0.23698,0.16268 -0.61453,-0.29976 -0.0857,-0.0465 0.18978,0.0464 0.28504,0.0679 0.58875,0.13353 1.1819,0.24729 1.77736,0.34701 1.72287,0.26263 3.41704,0.46721 5.1293,-0.01 0.52517,-0.0621 0.90645,0.79843 -0.1212,-0.97591 -1.39724,-1.66426 -3.12616,-2.97282 -4.88327,-4.24495 -1.98644,-1.40482 -3.95368,-2.85277 -5.75037,-4.49445 -1.66978,-2.07797 -2.05645,-3.87996 0.18507,-5.74541 2.05664,-1.44345 4.48962,-2.2313 6.99461,-2.45582 2.17432,0 2.17432,3.05914 0,3.05914 z"
       inkscape:connector-curvature="0" />
    <path
       style="fill:#000000;fill-opacity:1;fill-rule:nonzero;stroke:none"
       id="path6980"
       d="m 475.69369,210.75688 c 0.55835,3.22334 0.74746,6.4968 1.11516,9.74671 0.40103,3.5539 0.6493,7.12146 0.79731,10.69389 0.0341,0.868 0.0571,1.73635 0.0706,2.6049 0.037,2.16282 -3.03754,2.21485 -3.07451,0.0521 l 0,0 c -0.0129,-0.84394 -0.0352,-1.6877 -0.0685,-2.5311 -0.14466,-3.50016 -0.3878,-6.99553 -0.78061,-10.47755 -0.35252,-3.11594 -0.55071,-6.25044 -1.04265,-9.34693 -0.52735,-2.09855 2.45579,-2.8405 2.98314,-0.74195 z"
       inkscape:connector-curvature="0" />
    <path
       style="fill:#000000;fill-opacity:1;fill-rule:nonzero;stroke:none"
       id="path6982"
       d="m 486.21651,221.22301 c -1.16439,1.66169 -1.71418,3.59449 -2.08031,5.55989 -0.13513,1.69823 0.72534,2.92108 2.09476,3.82443 1.49352,0.45802 2.12476,-1.31913 2.62113,-2.43637 0.90339,-2.3809 0.49675,-4.58644 -0.88045,-6.65126 -0.21409,-0.24977 -2.12696,-2.17824 -2.36383,-1.6809 -0.0294,0.0618 0.12539,0.0557 0.1881,0.0835 0.28361,-0.002 0.17481,0.0929 0.1407,0.37994 -0.49359,2.10667 -3.48826,1.41222 -2.99468,-0.69444 l 0,0 c 0.30428,-1.13244 0.7509,-2.10786 1.91557,-2.59871 2.76649,-0.52293 3.99126,0.91005 5.706,2.86451 1.96425,3.14485 2.40457,6.07147 1.06867,9.60452 -1.53608,3.09979 -3.52081,5.33213 -7.18912,3.61804 -2.29634,-1.70235 -3.66639,-3.93443 -3.32858,-6.88002 0.46578,-2.42359 1.18256,-4.79437 2.64207,-6.82864 1.3046,-1.73051 3.76456,0.10497 2.45997,1.83547 z"
       inkscape:connector-curvature="0" />
    <path
       style="fill:#000000;fill-opacity:1;fill-rule:nonzero;stroke:none"
       id="path6984"
       d="m 498.482,218.20534 c 2.14314,-1.1785 3.80144,-1.54833 6.15578,-0.75397 2.37306,1.23167 3.16845,3.50674 3.58866,5.97256 0.40428,2.43341 -0.35085,4.63436 -1.9883,6.42542 -2.14856,1.58989 -3.97832,1.86158 -6.36776,0.62036 -1.75294,-1.29837 -2.98116,-3.15503 -3.95048,-5.07689 -0.31331,-0.68255 -0.62137,-1.37518 -0.80342,-2.10579 -0.005,-0.0256 -0.0728,-0.35618 -0.0497,-0.35571 3.31472,0.0674 3.12233,-0.70452 3.16291,1.2099 0.0426,2.00402 -0.0639,0.2841 0.11938,2.51527 0.4424,4.65689 0.60625,9.33305 0.73623,14.00696 0.1461,2.2469 -0.0451,4.63765 0.17873,6.82565 -0.52504,-1.09542 -0.0614,-0.52676 -2.06263,-0.78357 1.73887,-1.29867 3.58496,1.14781 1.8461,2.44648 l 0,0 c -2.49429,0.03 -1.73414,0.60912 -2.74524,-0.84055 -0.52958,-2.46295 -0.0124,-5.06816 -0.29074,-7.56346 -0.12837,-4.62201 -0.28965,-9.2463 -0.72792,-13.85143 -0.17193,-2.24618 -0.10412,-0.86149 -0.12714,-2.65303 -0.003,-0.22696 -0.2218,-0.58028 -0.0173,-0.68072 0.92672,-0.455 2.01292,-0.4745 2.9987,-0.78313 0.0307,-0.01 -0.0227,-0.1527 -0.0295,-0.19843 0.12737,0.50244 0.35785,0.97448 0.56395,1.44789 0.69247,1.39669 1.56407,2.75745 2.74289,3.79557 0.86614,0.66862 1.71005,0.41257 2.62091,-0.11071 1.08867,-0.93517 1.35914,-2.43276 1.15575,-3.79519 -0.21116,-1.34184 -0.45539,-2.76946 -1.64482,-3.60718 -1.3066,-0.62329 -2.47736,-0.0113 -3.69001,0.62987 -1.94476,0.96739 -3.31993,-1.76879 -1.37516,-2.73617 z"
       inkscape:connector-curvature="0" />
    <path
       style="fill:#000000;fill-opacity:1;fill-rule:nonzero;stroke:none"
       id="path6986"
       d="m 512.617,223.38637 c 1.74884,-0.14999 3.18099,-0.98299 4.14257,-2.42408 0.25886,-0.6287 1.13142,-2.07033 0.0561,-2.26708 -1.31909,0.52703 -2.01932,1.90953 -2.6146,3.11413 -0.98677,2.5215 -1.82196,5.30878 -0.7256,7.90448 1.31533,2.1571 3.71795,2.90721 6.05127,3.46447 1.52324,0.25246 0.78402,0.14719 2.21675,0.32216 2.15773,0.26672 1.77858,3.30252 -0.37915,3.0358 l 0,0 c -1.64207,-0.20514 -0.78491,-0.0797 -2.56988,-0.38682 -3.35633,-0.83284 -6.54614,-2.14137 -8.20529,-5.38059 -0.19464,-0.57359 -0.45663,-1.12877 -0.58391,-1.72076 -0.62564,-2.90974 0.44453,-5.97333 1.46678,-8.64843 1.47588,-2.72655 3.65521,-5.60971 7.12731,-4.19632 2.48113,2.04478 2.03612,3.93555 0.65894,6.54185 -1.64446,2.18536 -3.84398,3.547 -6.64131,3.70034 -2.17433,0 -2.17433,-3.05915 0,-3.05915 z"
       inkscape:connector-curvature="0" />
    <path
       style="fill:#000000;fill-opacity:1;fill-rule:nonzero;stroke:none"
       id="path6988"
       d="m 531.06672,218.28781 c 1.8316,-0.27373 3.65477,-0.59404 5.49301,-0.82309 0.61235,-0.0721 1.22535,-0.14 1.84,-0.1898 2.16721,-0.17471 2.41557,2.87443 0.24834,3.04914 l 0,0 c -0.57017,0.0457 -1.13867,0.11001 -1.70674,0.17616 -1.96459,0.24406 -3.90797,0.62211 -5.87461,0.84672 -2.17431,0 -2.17431,-3.05913 0,-3.05913 z"
       inkscape:connector-curvature="0" />
    <path
       style="fill:#000000;fill-opacity:1;fill-rule:nonzero;stroke:none"
       id="path6990"
       d="m 528.24206,224.57373 c 1.38175,0.33562 2.82576,0.12074 4.22592,0.004 1.15085,-0.1134 2.3068,-0.14405 3.46234,-0.16261 0.45736,-0.13669 0.21283,-0.0608 0.73282,-0.23039 2.07635,-0.64206 2.98904,2.27922 0.9127,2.92128 l 0,0 c -0.98695,0.29514 -0.45661,0.16544 -1.59612,0.36786 -1.08613,0.0173 -2.17272,0.0445 -3.25439,0.15226 -1.73764,0.14519 -3.51673,0.3572 -5.22906,-0.0844 -2.1094,-0.52464 -1.36361,-3.49245 0.74579,-2.9678 z"
       inkscape:connector-curvature="0" />
    <path
       style="fill:#000000;fill-opacity:1;fill-rule:nonzero;stroke:none"
       id="path6992"
       d="m 548.47384,208.40439 c 1.1309,2.96832 1.68926,6.12958 2.18217,9.25572 0.4998,4.18916 1.13383,8.35765 1.52586,12.55941 0.11781,1.33515 0.21219,2.67217 0.28811,4.01027 0.12235,2.15972 -2.94774,2.33186 -3.07009,0.17215 l 0,0 c -0.0736,-1.30133 -0.16558,-2.60158 -0.27986,-3.90006 -0.38504,-4.1383 -1.01295,-8.2433 -1.5021,-12.36942 -0.44124,-2.8199 -0.95222,-5.65807 -1.89443,-8.35998 -0.97238,-1.93478 1.77795,-3.30286 2.75034,-1.36809 z"
       inkscape:connector-curvature="0" />
    <path
       style="fill:#000000;fill-opacity:1;fill-rule:nonzero;stroke:none"
       id="path6994"
       d="m 510.99003,241.0717 c 2.15538,2.33087 3.56057,5.1133 4.76741,8.01694 1.17868,3.98587 2.88185,7.76342 4.80334,11.43901 2.11571,4.50471 5.49894,7.96436 9.34043,11.01296 2.03385,1.82414 4.44862,2.97202 6.97623,3.91917 0.92206,0.34731 0.43089,1.65131 -0.49117,1.304 l 0,0 c -2.65846,-1.00617 -5.20611,-2.2166 -7.35169,-4.13202 -3.99114,-3.17231 -7.50252,-6.78243 -9.70887,-11.45892 -1.93787,-3.71226 -3.66824,-7.52451 -4.85538,-11.55034 -1.13302,-2.73755 -2.44406,-5.36077 -4.46561,-7.56549 -0.69671,-0.69672 0.28859,-1.68203 0.98531,-0.98531 z"
       inkscape:connector-curvature="0" />
    <path
       style="fill:#000000;fill-opacity:1;fill-rule:nonzero;stroke:none"
       id="path6998"
       d="m 303.9341,492.00394 c 1.45718,2.78384 2.06949,5.89994 2.51667,9.00865 0.21182,1.52306 0.30204,3.05902 0.29423,4.59712 -0.0391,1.62705 0.0878,1.38713 -3.34462,0.16881 -0.003,-7.1e-4 0.0219,-0.98532 0.0369,-1.60832 0.0818,-3.0414 0.69197,-6.04312 1.40723,-8.98196 0.47301,-2.16512 1.3243,-4.19215 2.5701,-5.98179 0.82724,-1.21798 2.03613,-1.79461 3.40579,-1.98926 0.99589,-0.15091 1.83676,0.043 2.65778,0.70886 1.15285,1.37885 1.62789,3.07557 1.94843,4.84573 0.45435,2.71589 0.11501,5.49398 0.41895,8.2147 0.1324,1.06226 0.20841,2.1357 0.98046,2.90656 0.0211,0.0154 0.0421,0.0308 0.0632,0.0462 1.77627,1.62092 -0.40805,4.25714 -2.18433,2.63623 l 0,0 c -0.10048,-0.0955 -0.20097,-0.19099 -0.30145,-0.28651 -1.20485,-1.39011 -1.72072,-3.06865 -1.86785,-4.93091 -0.25068,-2.64297 -0.0346,-5.31338 -0.38269,-7.95307 -0.0612,-0.36376 -0.17589,-1.15518 -0.30085,-1.5529 -0.0804,-0.25593 -0.67554,-1.05579 -0.59797,-1.26563 0.017,-0.046 0.087,0.0371 0.13054,0.0557 -0.22522,-0.23141 -0.14457,-0.1164 0.51253,0.0316 0.2189,0.0492 -0.87927,-0.0766 -0.67152,0.0109 -0.48426,0.0477 -0.8502,0.11963 -1.13208,0.59558 -1.00728,1.41392 -1.6485,3.05259 -2.02386,4.77337 -0.65496,2.68535 -1.22851,5.42719 -1.30458,8.20632 -0.008,0.29931 -0.0151,0.59862 -0.0219,0.89796 -0.006,0.21937 0.18876,0.60525 -0.0144,0.65818 -3.6581,0.95424 -3.3442,1.25599 -3.31293,-0.22748 0.009,-1.35808 -0.0715,-2.71398 -0.2576,-4.05891 -0.38018,-2.69129 -0.88006,-5.39979 -2.12792,-7.81696 -1.1514,-2.15457 1.75206,-3.8634 2.90346,-1.70885 z"
       inkscape:connector-curvature="0" />
    <path
       style="fill:#000000;fill-opacity:1;fill-rule:nonzero;stroke:none"
       id="path7000"
       d="m 322.1448,494.10536 c -0.85182,1.90565 -1.54761,3.90542 -1.26331,6.02317 0.14405,1.35488 0.79029,2.00752 1.93957,2.43574 0.9874,0.21245 0.25674,0.0245 0.23803,-0.14204 -0.0315,-0.28072 0.13756,-0.54671 0.21507,-0.81743 0.30363,-1.54238 0.36172,-3.06343 -0.16862,-4.55315 -0.29439,-1.05528 -0.70512,-1.94188 -1.51714,-2.63674 0.0466,0.15406 -0.42965,0.0287 -0.61221,0.0253 -0.081,-8.3e-4 -0.162,-0.003 -0.24302,-0.003 -2.35364,-0.0358 -2.30525,-3.52901 0.0484,-3.49311 l 0,0 c 0.10008,8.4e-4 0.20013,0.003 0.30021,0.005 0.95135,0.0383 1.86386,0.22934 2.66717,0.8089 1.2389,1.13276 2.05694,2.53735 2.51755,4.19881 0.65365,2.22821 0.74196,4.45404 0.17463,6.72515 -0.75942,2.3619 -2.2917,4.05738 -4.82803,3.13848 -2.26949,-0.97007 -3.73271,-2.69739 -4.04231,-5.32647 -0.22809,-2.84379 0.40319,-5.49669 1.64147,-8.041 1.11393,-2.17615 4.04648,-0.52294 2.93256,1.65322 z"
       inkscape:connector-curvature="0" />
    <path
       style="fill:#000000;fill-opacity:1;fill-rule:nonzero;stroke:none"
       id="path7002"
       d="m 341.78653,490.3644 c -0.97605,0.82764 -1.72341,1.84041 -2.37658,2.95305 0.43997,-0.37371 -0.17894,-1.52231 0.51493,-1.15712 0.47718,0.25116 0.93043,0.55001 1.40392,0.8088 1.88558,1.07618 3.39727,2.5957 4.50278,4.51356 1.13176,2.34 0.47857,4.52769 -1.12623,6.36375 -1.76935,1.53791 -3.7743,1.77063 -5.82834,0.80338 -1.11876,-0.72527 -1.62322,-1.91834 -1.93548,-3.19711 -0.5621,-2.39879 2.67049,-3.23303 3.23258,-0.83423 l 0,0 c 0.072,0.33699 0.11758,0.72128 0.28856,0.95965 0.14426,0.62346 1.52392,0.0536 1.83211,-0.14097 0.61021,-0.62302 1.08931,-1.25046 0.67488,-2.1701 -0.7597,-1.3791 -1.85305,-2.43012 -3.18522,-3.20313 -1.77421,-0.97947 -4.13983,-1.99144 -3.20436,-4.58626 0.80797,-1.36283 1.73922,-2.62362 2.92254,-3.65485 1.71251,-1.69481 3.99642,0.84677 2.28391,2.54158 z"
       inkscape:connector-curvature="0" />
    <path
       style="fill:#000000;fill-opacity:1;fill-rule:nonzero;stroke:none"
       id="path7004"
       d="m 353.23366,493.89671 c -0.68654,1.77163 -1.53761,3.67354 -1.55362,5.61921 0.32749,1.15151 1.58301,1.3456 2.56138,1.58084 1.27772,0.36889 1.76196,0.028 2.182,-1.15309 0.13821,-1.65238 -0.4284,-2.86309 -1.50146,-4.0246 -0.62314,-0.584 -1.37633,-1.20966 -2.20738,-1.44339 -0.096,-0.0271 0.16595,0.12457 0.26284,0.14798 0.35349,-0.0237 0.51477,-0.29212 0.62435,-0.61198 -0.58208,2.39354 -3.80759,1.52965 -3.22551,-0.86389 l 0,0 c 0.28823,-0.95774 0.92364,-1.60199 1.84049,-1.92517 2.0478,-0.30017 3.73701,0.89361 5.17017,2.34852 1.89256,2.27337 2.8649,4.8234 2.05458,7.8465 -1.31658,2.73358 -3.0664,3.77465 -5.99233,3.07222 -2.62882,-0.70544 -4.85091,-2.0234 -5.09363,-5.15352 0.17256,-2.47068 0.94095,-4.85814 1.94556,-7.09285 1.11393,-2.17615 4.04649,-0.52292 2.93256,1.65322 z"
       inkscape:connector-curvature="0" />
    <path
       style="fill:#000000;fill-opacity:1;fill-rule:nonzero;stroke:none"
       id="path7006"
       d="m 364.13131,480.21168 c 0.54933,2.28744 0.63726,4.64744 0.70394,6.99329 0.0404,2.90709 -0.0334,5.81411 -0.10842,8.71991 -0.0422,1.49514 -0.0819,2.99038 -0.13007,4.48533 -0.0804,2.46883 -3.40728,2.3496 -3.32694,-0.11924 l 0,0 c 0.0487,-1.48674 0.0878,-2.97383 0.12938,-4.46082 0.0737,-2.83991 0.14584,-5.681 0.10864,-8.52219 -0.0591,-2.12913 -0.12476,-4.27299 -0.62825,-6.34865 -0.50375,-2.41304 2.74802,-3.16066 3.25176,-0.74763 z"
       inkscape:connector-curvature="0" />
    <path
       style="fill:#000000;fill-opacity:1;fill-rule:nonzero;stroke:none"
       id="path7008"
       d="m 370.52615,489.72835 c 0.44484,2.32534 0.59902,4.69655 0.70036,7.06144 -0.39471,-0.0717 0.53347,3.52086 0.49773,2.62418 0.32188,-0.026 1.5797,-0.94792 2.12736,-1.39734 0.96125,-0.75062 1.60647,-1.7375 1.87966,-2.95397 0.17619,-1.09171 0.21146,-2.20075 0.23521,-3.30554 0.007,-0.17322 0.002,-0.56737 8e-4,-0.68393 3.6857,0.16539 3.05022,-0.59729 3.69478,1.78954 0.79465,1.79527 1.73226,3.51798 2.53593,5.3124 0.71859,1.61732 2.40556,1.99954 0.2046,1.4324 2.2101,-0.85011 3.35572,2.42997 1.14563,3.2801 l 0,0 c -0.59524,-0.006 -1.2028,0.10995 -1.78572,-0.0166 -1.19282,-0.25905 -1.92207,-2.39933 -2.5778,-3.21113 -0.87901,-1.96696 -1.95668,-3.83346 -2.72674,-5.8496 -0.84647,-3.17406 -1.26244,-2.71767 2.83162,-2.95681 0.0139,0.32762 0.0108,0.65559 0.005,0.98345 -0.0305,1.38283 -0.0798,2.77292 -0.34821,4.1316 -0.52867,1.94467 -1.50598,3.60406 -3.07704,4.82678 -1.69627,1.33251 -3.79436,2.70688 -5.91963,1.57435 -1.75353,-1.43661 -2.03818,-3.14889 -2.04869,-5.4242 -0.0912,-2.16598 -0.22754,-4.3382 -0.62655,-6.46948 -0.50375,-2.41304 2.74803,-3.16067 3.25177,-0.74763 z"
       inkscape:connector-curvature="0" />
    <path
       style="fill:#000000;fill-opacity:1;fill-rule:nonzero;stroke:none"
       id="path7010"
       d="m 390.75104,481.03055 c 0.53202,3.33615 0.57797,6.73005 0.61847,10.104 0.0205,2.92463 -0.0381,5.84892 -0.11132,8.77235 -0.009,0.0229 -0.05,2.32745 -0.0673,2.32492 -0.20737,-0.0299 -0.0149,-0.44745 -0.0908,-0.65212 -0.26904,-0.40862 0.068,0.0902 -0.11897,-0.15757 2.05607,1.20267 0.43537,4.25416 -1.62071,3.05149 l 0,0 c -0.53921,-0.34914 -0.26528,-0.14073 -0.80775,-0.64504 -0.82501,-1.26394 -0.70747,-2.54614 -0.62188,-4.01355 0.0722,-2.87826 0.13014,-5.75738 0.11041,-8.63684 -0.037,-3.13814 -0.0762,-6.29288 -0.5416,-9.40001 -0.50374,-2.41303 2.74803,-3.16065 3.25178,-0.74763 z"
       inkscape:connector-curvature="0" />
    <path
       style="fill:#000000;fill-opacity:1;fill-rule:nonzero;stroke:none"
       id="path7012"
       d="m 385.02346,488.29323 c 2.3181,0.0713 4.6362,0.14263 6.95431,0.21394 1.07528,0.033 2.15056,0.0662 3.22586,0.0992 0.0872,0.003 0.17438,0.005 0.26157,0.008 2.35288,0.0724 2.25533,3.56435 -0.0975,3.49198 l 0,0 c -0.0872,-0.003 -0.17438,-0.005 -0.26157,-0.008 -1.07529,-0.033 -2.15058,-0.0662 -3.22586,-0.0992 -2.3181,-0.0713 -4.6362,-0.14261 -6.95431,-0.21392 -2.35287,-0.0724 -2.25534,-3.56435 0.0975,-3.49198 z"
       inkscape:connector-curvature="0" />
    <path
       style="fill:#000000;fill-opacity:1;fill-rule:nonzero;stroke:none"
       id="path7014"
       d="m 401.51746,493.01168 c 0.48695,2.06064 0.62279,4.18092 0.72131,6.29349 0.0528,1.21313 0.0574,2.42814 0.0355,3.64213 -0.002,0.16907 -0.009,0.33794 -0.0174,0.50677 -0.14822,2.46537 -3.47052,2.24537 -3.32229,-0.22 l 0,0 c 0.005,-0.11776 0.0105,-0.23557 0.0115,-0.35351 0.0209,-1.13512 0.0167,-2.27122 -0.0322,-3.40553 -0.0884,-1.91831 -0.20138,-3.84515 -0.64811,-5.71572 -0.50374,-2.41304 2.74803,-3.16067 3.25177,-0.74763 z"
       inkscape:connector-curvature="0" />
    <path
       style="fill:#000000;fill-opacity:1;fill-rule:nonzero;stroke:none"
       id="path7016"
       d="m 399.23727,484.16426 c 0.87666,-0.8676 1.75331,-1.73519 2.62998,-2.60281 2.97328,-1.44514 3.54405,1.07007 2.49385,3.4102 -0.52869,0.88433 -1.2673,1.58154 -2.06848,2.18468 -2.99536,1.71347 -2.87719,-2.14303 -2.84611,-3.51255 0.0125,-0.45032 0.0323,-0.90036 0.0627,-1.34971 -0.0322,-1.21109 2.55992,1.80085 1.20325,1.83639 -2.35341,0.0498 -2.42048,-3.44299 -0.0671,-3.49277 l 0,0 c 1.00751,-0.0119 2.14404,2.65583 2.18273,1.92699 -0.0267,0.38746 -0.042,0.77568 -0.0537,1.16392 -0.046,1.94379 0.25049,1.49906 -2.41152,0.58109 0.35758,-0.26277 0.66988,-0.58151 1.0058,-0.86863 0.47139,-0.99563 0.11641,-0.39131 0.33923,0.11055 0.47884,1.07845 1.59444,1.25739 2.44321,0.55143 -0.87665,0.8676 -1.75332,1.7352 -2.62998,2.60281 -1.7125,1.69481 -3.9964,-0.84677 -2.2839,-2.54159 z"
       inkscape:connector-curvature="0" />
    <path
       style="fill:#000000;fill-opacity:1;fill-rule:nonzero;stroke:none"
       id="path7018"
       d="m 409.18284,493.81065 c -0.20597,1.90876 0.36971,3.50673 1.24021,5.11823 0.56877,0.90459 1.33517,1.45603 2.27737,1.84203 0.0594,-0.5044 -0.7705,0.12476 -0.75373,-0.14256 0.0112,-0.17637 0.28324,-0.19394 0.40857,-0.31202 0.42735,-0.40263 0.7609,-0.96433 1.07494,-1.46121 0.5735,-0.90167 1.02658,-1.87479 1.19601,-2.9495 0.0952,-0.68575 0.12445,-0.64184 -0.48462,-1.10964 -0.70025,-0.63459 -1.60867,-0.83411 -2.5006,-0.96575 -0.78362,-0.15056 -1.48498,-0.17964 -2.10377,0.19901 -0.19722,0.21668 -0.35604,0.46167 -0.48952,0.72449 -1.09743,2.18536 -4.04241,0.55661 -2.94496,-1.62875 l 0,0 c 0.39771,-0.76906 0.91017,-1.4536 1.5746,-1.99311 1.42128,-0.8622 2.84257,-1.07525 4.46084,-0.75594 1.5882,0.26316 3.12573,0.74523 4.33266,1.92421 1.09227,1.21735 1.79911,2.53514 1.4257,4.25788 -0.29718,1.53926 -0.864,2.97642 -1.72073,4.27247 -1.15724,1.7342 -2.48686,3.52391 -4.72521,3.17832 -1.62611,-0.7056 -2.9788,-1.77325 -3.92568,-3.36118 -1.16276,-2.16524 -1.88366,-4.40922 -1.66955,-6.93934 0.069,-2.4692 3.39644,-2.36684 3.32747,0.10236 z"
       inkscape:connector-curvature="0" />
    <path
       style="fill:#000000;fill-opacity:1;fill-rule:nonzero;stroke:none"
       id="path7020"
       d="m 422.65643,491.33196 c 0.36518,2.03134 0.93492,4.00784 1.3535,6.02837 0.30018,1.53622 0.42647,3.09813 0.47458,4.66282 0.006,0.36174 0.0168,0.72452 -0.0201,1.08478 -1.10228,-0.22575 -2.25233,-0.27173 -3.30682,-0.67724 -0.0605,-0.0232 0.0737,-2.83862 0.10724,-4.03889 0.26171,-1.9236 0.74897,-3.78504 1.50919,-5.55275 0.39173,-1.39559 1.05877,-2.60057 2.0458,-3.61765 0.54211,-0.57307 1.05787,-0.74218 1.80974,-0.84524 0.35479,0.007 0.70824,0.0417 1.06257,0.0574 1.37032,-0.0762 2.13216,0.81068 2.50939,2.08177 0.51714,0.70261 0.64515,1.881 1.00814,2.77373 0.6021,1.24684 0.90058,2.59786 1.05457,3.9762 -0.0479,0.82259 0.16835,1.38467 0.53155,2.07848 -0.25125,-0.40374 -0.0691,-0.2758 0.16355,-0.22403 2.31022,0.47349 1.67216,3.90219 -0.63808,3.42868 l 0,0 c -0.98749,-0.2163 -1.83681,-0.66803 -2.45426,-1.54411 -0.53403,-1.04825 -0.93519,-2.14543 -0.91137,-3.35399 -0.10469,-1.08491 -0.3722,-2.12354 -0.84977,-3.09847 -0.38791,-1.10325 -0.63622,-2.24977 -1.15892,-3.30245 0.45038,0.63446 2.07468,0.77569 0.59369,0.67404 -0.30918,-0.0154 -0.61778,-0.0401 -0.92705,-0.0538 0.22171,-0.0544 0.86001,-0.31416 0.64633,-0.23173 -0.0514,0.0198 -0.0835,0.0832 -0.13252,0.10147 -0.72158,0.69507 -1.01587,1.56982 -1.31994,2.53859 -0.58257,1.35038 -0.94557,2.75555 -1.21515,4.21601 -0.008,0.29755 0.0207,3.97516 -0.10702,4.00281 -1.08541,0.2355 -2.21454,0.10306 -3.32182,0.15456 -0.002,-0.17247 -0.006,-0.34491 -0.007,-0.51739 -0.0403,-1.35284 -0.14419,-2.7034 -0.40048,-4.0324 -0.41689,-2.01808 -0.98734,-3.99298 -1.35214,-6.02195 -0.50375,-2.41304 2.74802,-3.16067 3.25177,-0.74763 z"
       inkscape:connector-curvature="0" />
    <path
       style="fill:#000000;fill-opacity:1;fill-rule:nonzero;stroke:none"
       id="path7026"
       d="m 445.42292,492.30791 c -1.56563,-0.38765 -3.12776,-0.78744 -4.72287,-1.01617 -1.09825,-0.1673 -0.73256,-0.1458 -1.64378,0.32334 -0.51014,0.43593 0.2482,-0.64561 0.15663,0.24884 -0.0186,0.14078 -0.1044,2.17158 -0.0392,1.26126 0.179,0.13224 0.79425,0.87824 1.30461,1.2274 0.60751,0.29962 1.03992,0.88714 1.58882,1.23159 0.62389,0.24325 1.30409,0.29393 1.96368,0.34457 1.4415,-0.0671 2.38433,0.40375 3.27808,1.58754 0.50572,1.00767 0.54863,2.12856 0.54668,3.24055 0.12914,2.03148 -1.12342,3.11188 -2.78464,3.81074 -1.75972,0.66944 -3.46967,0.51734 -5.22438,-0.0267 -1.12354,-0.25032 -1.97292,-0.86804 -2.63059,-1.84357 -1.29803,-2.06072 1.47898,-3.98717 2.77701,-1.92644 l 0,0 c -0.32002,0.25157 0.55613,0.25653 0.80062,0.42088 1.07755,0.33727 2.03345,0.5322 3.14099,0.0924 0.79204,-0.21878 0.53646,0.57479 0.59212,-0.54203 0.003,-0.47892 0.007,-0.96426 -0.0763,-1.43519 0.16763,0.11639 0.78099,0.19702 0.58259,0.16325 -0.40828,-0.0695 -0.84048,0.0155 -1.25007,-0.0574 -1.11018,-0.0884 -2.23767,-0.22538 -3.25619,-0.73139 -1.29635,-0.7952 -0.97809,-0.94952 -1.92562,-1.44349 -1.01291,-0.7431 -1.97312,-1.73727 -2.54625,-2.89108 -0.22749,-0.98662 -0.28838,-1.89807 -0.14613,-2.91081 0.15257,-1.21556 0.53573,-2.39927 1.69042,-2.9619 1.13852,-0.57811 2.28164,-0.96301 3.55757,-0.64252 1.69206,0.24903 3.3536,0.65364 5.01405,1.07248 2.29366,0.55521 1.54545,3.95932 -0.74822,3.4041 z"
       inkscape:connector-curvature="0" />
  </g>
</svg>
