<?xml version="1.0" encoding="UTF-8" standalone="no"?>
<!-- Created with Inkscape (http://www.inkscape.org/) -->

<svg
   xmlns:dc="http://purl.org/dc/elements/1.1/"
   xmlns:cc="http://creativecommons.org/ns#"
   xmlns:rdf="http://www.w3.org/1999/02/22-rdf-syntax-ns#"
   xmlns:svg="http://www.w3.org/2000/svg"
   xmlns="http://www.w3.org/2000/svg"
   xmlns:sodipodi="http://sodipodi.sourceforge.net/DTD/sodipodi-0.dtd"
   xmlns:inkscape="http://www.inkscape.org/namespaces/inkscape"
   width="569.33368"
   height="413.72131"
   id="svg4866"
   version="1.1"
   inkscape:version="0.48.0 r9654"
   sodipodi:docname="RimlessWheel.pdf">
  <defs
     id="defs4868" />
  <sodipodi:namedview
     inkscape:document-units="mm"
     pagecolor="#ffffff"
     bordercolor="#666666"
     borderopacity="1.0"
     inkscape:pageopacity="0.0"
     inkscape:pageshadow="2"
     inkscape:zoom="0.7176508"
     inkscape:cx="300.00255"
     inkscape:cy="178.22038"
     inkscape:current-layer="layer1"
     id="namedview4870"
     showgrid="false"
     fit-margin-top="0"
     fit-margin-left="0"
     fit-margin-right="0"
     fit-margin-bottom="0"
     inkscape:window-width="1280"
     inkscape:window-height="752"
     inkscape:window-x="0"
     inkscape:window-y="0"
     inkscape:window-maximized="0" />
  <metadata
     id="metadata4872">
    <rdf:RDF>
      <cc:Work
         rdf:about="">
        <dc:format>image/svg+xml</dc:format>
        <dc:type
           rdf:resource="http://purl.org/dc/dcmitype/StillImage" />
        <dc:title></dc:title>
      </cc:Work>
    </rdf:RDF>
  </metadata>
  <g
     inkscape:label="Layer 1"
     inkscape:groupmode="layer"
     id="layer1"
     transform="translate(-226.17854,-136.54631)">
    <path
       style="fill:none;stroke:#b4b4b4;stroke-width:24.80315018;stroke-linecap:butt;stroke-linejoin:miter;stroke-miterlimit:4;stroke-opacity:1;stroke-dasharray:none"
       d="m 254.99867,537.86605 528.112,-282.86739"
       id="path5901"
       inkscape:connector-curvature="0"
       sodipodi:nodetypes="cc" />
    <path
       style="fill:#000000;fill-opacity:1;fill-rule:nonzero;stroke:none"
       id="path5431"
       d="m 292.66517,207.08341 c 5.66401,5.76338 11.61832,11.24298 17.47995,16.80688 14.58042,14.07956 29.14308,28.17824 43.5261,42.45981 20.90132,20.63656 41.4479,41.61968 61.84995,62.74836 23.03717,24.0129 46.20366,47.8999 69.75197,71.41228 2.09205,2.08825 -0.86194,5.04673 -2.95367,2.95816 l 0,0 c -23.56611,-23.53052 -46.75084,-47.43526 -69.80545,-71.46665 -20.38198,-21.10735 -40.90768,-42.06993 -61.78828,-62.6858 -14.36053,-14.25969 -28.90107,-28.33611 -43.45854,-42.39425 -5.94768,-5.64557 -11.99398,-11.20178 -17.72785,-17.06315 -1.96269,-2.21029 1.16313,-4.98593 3.12581,-2.77564 z"
       inkscape:connector-curvature="0" />
    <path
       inkscape:connector-curvature="0"
       d="m 483.63354,207.08341 c -5.66401,5.76338 -11.61832,11.24298 -17.47995,16.80688 -14.58042,14.07956 -29.14308,28.17824 -43.5261,42.45981 -20.90132,20.63656 -41.4479,41.61968 -61.84995,62.74836 -23.03717,24.0129 -46.20366,47.8999 -69.75197,71.41228 -2.09205,2.08825 0.86194,5.04673 2.95367,2.95816 l 0,0 c 23.56611,-23.53052 46.75084,-47.43526 69.80545,-71.46665 20.38198,-21.10735 40.90768,-42.06993 61.78828,-62.6858 14.36053,-14.25969 28.90107,-28.33611 43.45854,-42.39425 5.94768,-5.64557 11.99398,-11.20178 17.72785,-17.06315 1.96269,-2.21029 -1.16313,-4.98593 -3.12581,-2.77564 z"
       id="path5439"
       style="fill:#000000;fill-opacity:1;fill-rule:nonzero;stroke:none" />
    <path
       inkscape:connector-curvature="0"
       d="m 388.42075,166.91544 c -0.0575,8.08049 0.29092,16.16494 0.5142,24.24367 0.38615,20.26508 0.74622,40.53116 0.84995,60.79995 0.23358,29.37139 -0.0288,58.73777 -0.4962,88.1052 -0.63743,33.27048 -1.09439,66.54308 -1.01645,99.81993 0.007,2.95591 -4.17339,2.96569 -4.18029,0.01 l 0,0 c -0.0777,-33.30227 0.37883,-66.60032 1.01696,-99.89619 0.46661,-29.33816 0.72922,-58.67526 0.49572,-88.01736 -0.10325,-20.23742 -0.46338,-40.47212 -0.84839,-60.70583 -0.22657,-8.19732 -0.58606,-16.40097 -0.50885,-24.60018 0.17042,-2.95101 4.34377,-2.70999 4.17334,0.24102 z"
       id="path5441"
       style="fill:#000000;fill-opacity:1;fill-rule:nonzero;stroke:none" />
    <path
       style="fill:#000000;fill-opacity:1;fill-rule:nonzero;stroke:none"
       id="path5443"
       d="m 523.66876,301.73715 c -8.08027,0.083 -16.16578,-0.23989 -24.24517,-0.43766 -20.2662,-0.32217 -40.53332,-0.61827 -60.80234,-0.65801 -29.37197,-0.14085 -58.73738,0.21418 -88.10319,0.77434 -33.2683,0.74246 -66.53929,1.30446 -99.81623,1.33158 -2.95591,0.002 -2.95249,4.18272 0.003,4.18029 l 0,0 c 33.30234,-0.0274 66.59878,-0.58908 99.89248,-1.33232 29.33654,-0.55922 58.67266,-0.91445 88.01535,-0.77357 20.23764,0.0394 40.47338,0.3356 60.70821,0.65674 8.19799,0.20068 16.40274,0.53428 24.60166,0.43118 2.95046,-0.17974 2.69626,-4.3523 -0.25419,-4.17256 z"
       inkscape:connector-curvature="0" />
    <path
       style="fill:none;stroke:#000000;stroke-width:3.83385825;stroke-linecap:butt;stroke-linejoin:miter;stroke-miterlimit:4;stroke-opacity:1;stroke-dasharray:none"
       d="M 781.71724,242.45775 243.85119,530.89888"
       id="path5445"
       inkscape:connector-curvature="0"
       sodipodi:nodetypes="cc" />
    <path
       style="fill:none;stroke:#000000;stroke-width:2.41653538;stroke-linecap:butt;stroke-linejoin:miter;stroke-miterlimit:4;stroke-opacity:1;stroke-dasharray:2.41653543, 4.83307087;stroke-dashoffset:0"
       d="m 483.52207,401.30939 -51.55711,-90.5733"
       id="path5447"
       inkscape:connector-curvature="0"
       sodipodi:nodetypes="cc" />
    <path
       style="fill:#000000;fill-opacity:1;fill-rule:nonzero;stroke:none"
       id="path5451"
       d="m 485.89343,404.68082 c -2.25615,2.02085 -5.01892,1.78392 -7.16744,-0.16865 -0.89928,-1.16436 -1.31821,-2.54307 -1.48708,-3.98181 -0.24363,-3.41634 2.39811,-2.562 4.21682,-1.96757 2.12354,0.99308 3.73358,2.01309 4.6441,4.2564 0.10817,2.83958 -1.3601,4.92477 -3.63526,6.45265 -2.44535,1.4416 -4.22639,1.22474 -6.25453,-0.81239 -1.46825,-2.27628 -1.62247,-4.74759 -1.03368,-7.32072 1.00816,-2.47822 3.04407,-3.39679 5.60207,-2.83615 1.89186,0.5501 3.6948,1.45809 5.28279,2.61952 1.76949,1.65555 2.38027,3.62674 1.85819,5.97719 -1.32853,2.93783 -4.28966,3.29566 -7.1664,2.97003 -3.72848,-0.92678 -4.47414,-4.07746 -3.91528,-7.45668 0.96352,-3.12031 3.07154,-4.74075 6.11042,-5.60456 3.11464,-0.84081 5.2178,0.82011 6.33167,3.60163 0.71092,2.99575 0.95491,4.69824 -1.38702,7.03622 -1.64742,1.18358 -3.62367,1.42636 -5.58959,1.54304 -2.69245,0.0615 -3.03213,-1.15061 -3.38255,-3.41087 0.45598,-2.92054 4.58625,-2.27568 4.13026,0.64486 l 0,0 c -0.55442,-1.52846 -0.2174,-1.09231 -1.41608,-1.39429 -0.13831,-0.0348 0.28511,-0.009 0.42767,-0.0131 1.05905,-0.0589 2.17269,-0.10371 3.14274,-0.57155 0.85166,0.29033 0.16494,-1.98071 0.14403,-2.41104 -0.24392,-0.96601 -0.0485,-1.27851 -1.29415,-0.99386 -1.51088,0.39252 -2.49342,0.81806 -3.11446,2.37402 -0.22313,0.85897 -0.66184,2.04234 0.32618,2.50754 0.89711,0.12631 1.92681,-0.0332 2.59893,0.1573 0.22932,-0.66028 0.21066,-0.8264 -0.29698,-1.59989 -1.13796,-0.86533 -2.46405,-1.49869 -3.82468,-1.92522 -0.40043,-0.16213 0.15742,-0.36135 -0.5003,-0.24944 -0.32158,1.28319 -0.3809,2.40163 0.15855,3.6571 -0.1359,0.60391 -0.56968,0.50902 0.78536,0.005 0.6101,-0.37006 1.15746,-0.7546 1.50294,-1.41093 0.0965,-0.18324 0.0542,-0.45333 0.21607,-0.58242 0.0836,-0.0667 0.12794,0.17142 0.19191,0.25712 0.0883,-0.63271 -1.47363,-1.03328 -2.09516,-1.54702 -0.90683,-0.3537 -1.39512,-0.53262 -1.28611,-0.55795 0.49713,-0.1155 1.11571,0.27308 1.53093,-0.0237 0.57836,-0.41338 1.16362,-2.63774 1.14578,-1.82835 0.0461,0.49887 0.23587,0.98839 0.27135,1.46712 0.29094,0.44619 0.60549,0.78116 1.27207,0.18503 2.09015,-2.09015 5.04607,0.86577 2.95592,2.95592 z"
       inkscape:connector-curvature="0" />
    <path
       style="fill:#000000;fill-opacity:1;fill-rule:nonzero;stroke:none"
       id="path5455"
       d="m 501.21325,406.3125 c -2.2811,0.68814 -3.97056,2.05295 -4.87266,4.24924 -0.95693,2.52536 -0.80281,4.68437 0.6896,6.89299 1.80899,1.58998 4.16467,2.19297 6.49232,2.52933 1.64598,-0.008 3.10354,-0.62322 4.41211,-1.58371 2.41876,-1.69914 4.8217,1.72151 2.40294,3.42065 l 0,0 c -2.23223,1.52829 -4.67879,2.47895 -7.43646,2.29692 -3.53842,-0.54787 -6.96367,-1.63326 -9.39899,-4.42096 -2.25744,-3.69024 -2.48639,-6.82426 -0.95546,-10.89049 1.64553,-3.34288 4.16883,-5.63515 7.84677,-6.59309 2.89852,-0.57971 3.71835,3.51942 0.81983,4.09912 z"
       inkscape:connector-curvature="0" />
    <path
       style="fill:#000000;fill-opacity:1;fill-rule:nonzero;stroke:none"
       id="path5459"
       d="m 386.4001,312.61896 c -1.85586,-0.31541 -3.49608,-1.16126 -5.04232,-2.24407 -1.74341,-1.46642 -2.61502,-3.40928 -2.95805,-5.66814 -0.37852,-2.68823 0.83714,-4.95289 2.27975,-7.05141 1.20918,-1.56145 2.59538,-2.84714 4.33171,-3.71819 1.34202,-0.59096 2.77924,-0.65759 4.21225,-0.67356 2.00794,-0.11721 3.08825,0.19155 4.84,1.27919 1.48898,1.11246 2.37486,2.75935 3.04893,4.49175 0.45636,1.33323 0.63423,2.74333 0.72758,4.14892 0.10079,1.06138 -0.056,2.01854 -0.24906,3.06711 -0.32757,1.04844 -0.82347,2.00801 -1.37069,2.94719 -0.58504,1.22415 -1.61204,2.08957 -2.82425,2.58435 0.81443,0.002 -2.71563,0.44965 -1.82047,0.2142 0.20542,-0.054 0.42302,-0.0284 0.63332,-0.0549 0.20108,-0.0254 0.67174,-0.25787 -0.29859,0.16112 -0.45684,0.18649 -0.91839,0.36053 -1.38476,0.5192 -0.59769,0.21337 -1.22384,0.22143 -1.84416,0.2185 -0.26189,-0.004 -0.52381,-0.004 -0.78572,-0.005 -1.0295,0.0744 -1.79415,-0.18487 -2.85435,-0.46374 -1.46567,-0.87348 -2.30392,-2.06639 -2.59897,-3.82638 -0.0765,-0.76056 -0.0642,-1.52615 -0.0598,-2.28962 0.002,-0.47847 0.005,-0.95694 0.007,-1.43542 -0.0771,-1.16446 0.20984,-1.93163 0.5373,-3.15492 0.67117,-1.13185 1.61604,-1.8603 2.80307,-2.26804 -0.78475,0.74547 -1.5695,1.49094 -2.35426,2.2364 -0.0455,0.15762 -0.21363,0.61649 -0.13662,0.47285 1.25123,-2.33394 0.87779,-2.30574 3.04426,-3.37027 0.38339,-0.10543 0.88117,-0.26541 1.27769,-0.27006 0.19835,-0.002 -0.38929,0.13674 -0.58587,0.10899 -0.12138,-0.0171 0.22545,-0.10056 0.34081,-0.14358 0.59699,-0.22266 0.69283,-0.24288 1.25937,-0.41387 0.51564,-0.14697 1.03422,-0.28381 1.5579,-0.39592 6.39019,-1.17828 4.30603,6.05423 4.35177,2.94694 1.26285,2.082 0.9667,4.16206 -0.64716,5.93705 -1.17789,0.94619 -2.37941,1.18358 -3.79821,1.23246 -0.28353,0.009 -0.56717,0.005 -0.8507,6.1e-4 -0.0761,-3.2e-4 -0.15211,-6.1e-4 -0.22816,-10e-4 -5.17652,-0.0235 -5.14471,-7.67227 0.0318,-7.64877 l 0,0 c 0.09,4.2e-4 0.17992,6.1e-4 0.26987,10e-4 0.18459,0.002 0.36918,0.008 0.55378,0.002 0.79534,-0.0215 -0.52546,0.19935 -0.91823,0.76777 -1.23278,1.49434 -1.10404,2.61763 -0.31803,4.2234 0.0479,0.0977 -0.12217,-0.17866 -0.18326,-0.268 -1.44293,-2.31687 -2.70926,-6.628 3.19016,0.3022 -0.33682,0.0728 -0.67031,0.16164 -1.00252,0.25457 -0.35688,0.10424 -2.62357,0.90386 -1.95413,0.60848 1.46224,-0.84809 0.79587,-0.70678 1.80518,-2.47057 0.12865,-0.22481 -0.1254,0.50721 -0.18809,0.76081 -0.81069,0.8192 -1.62137,1.6384 -2.43205,2.4576 0.70596,-0.25629 1.19061,-0.72813 1.55397,-1.43106 0.66411,-3.16127 0.25011,-1.30478 0.3411,-0.45864 -0.001,0.48766 -0.005,0.97532 -0.007,1.46298 -0.002,0.36295 0.008,0.92914 -0.0111,1.18012 -0.24478,-1.02608 -0.6821,-1.58544 -1.54474,-2.03726 -2.71289,-0.52376 -0.92345,-0.17511 -0.23809,-0.25883 0.27052,5.3e-4 0.54106,5.9e-4 0.81156,0.005 0.50058,0.002 0.16921,0.006 -0.45365,0.15444 0.30112,-0.1033 0.59979,-0.21426 0.89562,-0.33314 0.31915,-0.12749 0.62119,-0.30612 0.95079,-0.40024 0.42587,-0.12162 0.86501,-0.18619 1.30032,-0.26314 0.0857,-0.0151 0.34327,-0.0279 0.26063,1.7e-4 -0.12325,0.0418 -0.25048,0.0696 -0.37572,0.10434 -1.00487,0.47034 -2.52403,2.71606 -1.32978,0.76322 0.0199,-0.0341 0.45826,-0.78778 0.46216,-0.7813 0.0939,0.15607 -0.0909,0.36441 -0.1925,0.51515 -0.0814,0.12082 0.54499,-1.41619 0.35997,-0.96581 -0.14315,1.69227 -0.0231,0.1119 -0.0631,-0.29149 -0.0367,-0.61785 -0.10039,-1.23788 -0.22944,-1.84238 -0.25083,-0.70288 -0.3089,-0.99185 -0.66025,-1.20918 0.219,0.10055 0.438,0.20111 0.65699,0.30167 0.007,-0.006 0.0108,-0.0187 0.0198,-0.0193 0.12384,-0.008 0.4937,0.0212 0.37214,-0.005 -0.44977,-0.0959 -0.94989,0.066 -1.40285,-0.008 -0.33141,0.002 -1.08219,0.0689 -1.24174,-0.0163 -0.56879,0.18667 -0.96259,0.81688 -1.44582,1.25218 -0.66529,0.94212 -0.1228,0.16718 -0.68099,0.98004 -0.051,0.0742 -0.0908,0.15885 -0.15462,0.22129 -0.0337,0.0331 -0.12586,-0.0914 -0.13233,-0.0435 -0.0163,0.12062 0.0111,0.24335 0.0166,0.36503 0.003,0.28788 -0.0468,0.28748 -0.054,0.46961 0.70159,0.70582 1.66636,0.82855 2.57661,1.05803 5.022,1.31177 3.24645,8.73224 -1.77555,7.42047 z"
       inkscape:connector-curvature="0" />
    <path
       style="fill:#000000;fill-opacity:1;fill-rule:nonzero;stroke:none"
       id="path5461"
       d="m 301.24783,271.33662 c -2.29259,0.248 -4.28723,0.80514 -6.14514,1.97771 -1.71323,1.5861 -2.03697,3.73431 -2.31961,5.79266 -0.31436,1.91159 0.31195,3.70759 1.55605,5.28603 1.35653,0.94076 3.16508,1.62986 4.93682,1.56356 1.09081,-0.81886 1.83223,-1.79257 2.27614,-2.9694 0.21421,-0.70714 0.42081,-1.42934 0.45126,-2.16305 -0.002,-0.2979 -0.0135,-0.59563 -0.0275,-0.89325 -0.0104,-0.16627 -0.006,-0.0984 -0.0119,-0.33601 -5.8e-4,-0.40435 -3e-4,-0.80871 -2.3e-4,-1.21307 4e-5,-0.20909 9e-5,-0.41818 1.4e-4,-0.62727 4.44296,0.19073 3.49493,-0.32005 3.49492,2.54278 0,1.90253 0,3.80507 0,5.70762 -0.19857,1.13659 0.24377,1.83088 0.83222,2.78489 0.23255,0.54403 0.66992,0.89831 1.16221,1.267 1.83447,1.41407 -0.50728,3.62954 -2.34176,2.21547 l 0,0 c -0.77043,-0.6037 -1.49655,-1.25653 -1.91291,-2.09204 -0.82487,-1.33847 -1.44111,-2.62299 -1.23466,-4.17532 0,-1.90255 0,-3.80509 0,-5.70763 0,-2.86275 -0.94808,-2.35218 3.49489,-2.54205 -6e-5,0.20901 -1.1e-4,0.41802 -1.5e-4,0.62703 -8e-5,0.40122 -3.3e-4,0.80243 2.2e-4,1.20365 0.003,0.0687 3.7e-4,0.14594 0.009,0.21701 0.0181,0.38627 0.0349,0.77284 0.027,1.15951 -0.0614,1.01793 -0.30517,2.02206 -0.63898,2.99906 -0.9848,2.33629 -2.6283,4.39049 -5.62665,4.97934 -2.97056,-0.10408 -5.78746,-1.0033 -7.82086,-2.92242 -1.62984,-2.19635 -2.51968,-4.64077 -2.09507,-7.26596 0.41454,-2.90913 1.09152,-5.79014 3.7426,-7.85706 2.23491,-1.35677 4.60993,-2.17197 7.34467,-2.45421 2.39748,-0.51184 3.24512,2.38359 0.84764,2.89542 z"
       inkscape:connector-curvature="0" />
    <path
       style="fill:#000000;fill-opacity:1;fill-rule:nonzero;stroke:none"
       id="path5463"
       d="m 298.24056,278.13608 c 2.65408,-0.39719 5.32714,-0.59225 7.96923,-1.04686 1.46085,-0.26767 0.76832,-0.13768 2.07805,-0.38827 2.41152,-0.46125 3.17537,2.45113 0.76385,2.91238 l 0,0 c -1.35526,0.25913 -0.63787,0.12457 -2.15263,0.40181 -2.64418,0.45358 -5.31498,0.66637 -7.97309,1.04752 -2.42328,0.41387 -3.10869,-2.51271 -0.68541,-2.92658 z"
       inkscape:connector-curvature="0" />
    <path
       style="fill:#000000;fill-opacity:1;fill-rule:nonzero;stroke:none"
       id="path5469"
       d="m 441.94037,354.79865 c 1.09256,-1.81702 2.78975,-3.10353 4.09592,-4.73657 0.82975,-0.88697 1.81143,-1.61308 2.90186,-2.14399 1.12137,-0.52643 1.76495,-0.17487 2.90911,0.21188 2.48878,1.59482 0.23336,5.11449 -2.25542,3.51967 l 0,0 c 1.90209,0.32955 0.29271,0.26193 1.14275,0.0431 -0.52837,0.25991 -1.01133,0.60048 -1.44729,0.99728 -1.29252,1.58663 -2.91136,2.86065 -4.00269,4.61684 -1.77355,2.36474 -5.1178,-0.14345 -3.34424,-2.50818 z"
       inkscape:connector-curvature="0" />
    <path
       style="fill:#000000;fill-opacity:1;fill-rule:nonzero;stroke:none"
       id="path5485"
       d="m 480.70045,338.04705 c -2.15323,0.27373 -3.54151,1.86287 -4.83961,3.34403 -1.51987,1.9 -1.82707,4.25491 -2.0573,6.54708 -0.31777,2.26698 -0.025,4.43467 0.76176,6.5804 0.51537,1.32593 1.17072,1.9235 2.55124,2.30689 1.17943,0.34277 2.02182,-0.071 3.05758,-0.55396 0.7423,-0.68974 1.86451,-0.99691 2.44448,-1.8212 0.654,-0.66195 0.98206,-1.45081 1.40094,-2.23803 0.64923,-0.91717 0.7666,-2.00605 0.88556,-3.07328 0.0982,-1.26524 0.11245,-2.53481 0.11535,-3.80292 0.0765,-0.98686 -0.028,-1.00412 -0.38669,-1.79248 -0.76147,-0.97659 -1.25465,-2.06267 -1.59047,-3.22238 -0.1061,-1.01231 -0.46586,-1.20878 -0.94145,-1.6343 -0.61485,-0.59433 -1.34563,-1.07921 -2.09902,-1.52486 -0.13306,-0.14243 -1.32782,-0.61665 -0.40674,-0.27954 -0.84683,-0.0979 -1.42736,0.15908 -2.08839,0.63595 -1.9887,1.26031 -3.896,-1.36791 -1.90728,-2.62822 l 0,0 c 1.36438,-0.81355 2.7611,-1.37705 4.40965,-1.15965 0.68244,0.16492 1.23882,0.36223 1.81584,0.75156 0.94591,0.56386 1.845,1.19977 2.64713,1.93006 0.9412,0.88384 1.72063,1.79088 1.85485,3.09478 0.28326,1.02816 0.82448,1.9028 1.43414,2.79627 0.44523,0.98245 0.77777,1.95926 0.65661,3.03984 -0.003,1.37911 -0.0195,2.76001 -0.13484,4.13553 -0.17065,1.44628 -0.39314,2.92565 -1.24006,4.18195 -0.53142,0.91607 -0.92299,1.89736 -1.69604,2.68186 -0.98395,1.18754 -2.3605,1.91549 -3.6602,2.77235 -1.81445,0.84105 -3.59358,1.31954 -5.60156,0.73669 -2.38543,-0.73784 -3.87607,-2.08436 -4.73965,-4.31543 -0.92128,-2.57228 -1.2924,-5.18972 -0.92551,-7.90007 0.30463,-2.93092 0.82733,-5.86935 2.81627,-8.26291 1.80624,-2.04216 3.84795,-4.03225 6.79698,-4.43992 2.35622,-0.44037 3.02265,2.67353 0.66643,3.11391 z"
       inkscape:connector-curvature="0" />
    <path
       style="fill:#000000;fill-opacity:1;fill-rule:nonzero;stroke:none"
       id="path5487"
       d="m 472.66034,345.36095 c 2.24858,0 4.49716,0 6.74574,0 1.15589,0 2.31177,0 3.46765,0 0.24039,0 0.48078,0 0.72117,0 2.40288,0 2.40288,3.17557 0,3.17557 l 0,0 c -0.24039,0 -0.48078,0 -0.72117,0 -1.15588,0 -2.31176,0 -3.46765,0 -2.24858,0 -4.49716,0 -6.74574,0 -2.40288,0 -2.40288,-3.17557 0,-3.17557 z"
       inkscape:connector-curvature="0" />
    <path
       style="fill:#000000;fill-opacity:1;fill-rule:nonzero;stroke:none"
       id="path5489"
       d="m 391.2821,272.29053 c 2.57749,-0.55793 5.1982,-0.87089 7.82243,-1.10253 2.73654,-0.0113 5.12002,1.08758 7.36583,2.5427 1.6271,1.20146 2.4758,2.93639 3.25381,4.741 1.15482,2.72101 -2.69327,4.35416 -3.84808,1.63315 l 0,0 c -0.43254,-1.04195 -0.84647,-2.09505 -1.69034,-2.87337 -1.44957,-0.95469 -2.94394,-1.7592 -4.71459,-1.87928 -2.47224,0.21708 -4.94149,0.50965 -7.36923,1.03745 -2.89852,0.57971 -3.71835,-3.51942 -0.81983,-4.09912 z"
       inkscape:connector-curvature="0" />
    <path
       style="fill:#000000;fill-opacity:1;fill-rule:nonzero;stroke:none"
       id="path5491"
       d="m 411.87044,229.41915 c -1.68865,0.56803 -2.72085,1.75713 -3.64841,3.01375 -0.86796,1.35283 -1.18302,2.85061 -1.34829,4.36173 4.3e-4,0.844 -0.34907,1.88632 0.36353,2.59596 0.86976,0.99992 2.15633,1.3051 3.49969,1.6844 1.97248,0.61015 3.97749,0.45082 6.01041,0.22438 0.70533,-0.24081 1.18268,-0.48376 1.34224,-1.11957 0.36975,-1.11726 0.83398,-2.20562 1.12642,-3.34232 0.2046,-1.02712 0.23097,-2.07158 0.25403,-3.11058 0.0231,-0.60675 -0.39356,-1.20359 -0.69294,-1.79049 -0.27424,-0.51383 -0.0732,-0.20485 -0.50478,-0.58625 0.0234,0.0342 0.10939,0.1241 0.0701,0.10252 -0.60756,-0.33417 -1.0187,-0.73558 -1.66733,-1.01175 -0.32514,-0.12475 -0.7229,-0.12595 -1.08819,-0.13368 -0.66322,-0.009 -1.32657,-0.001 -1.98983,10e-4 -0.76469,0.003 -1.52939,0.003 -2.29409,0.005 -0.20035,2.6e-4 -0.40069,2.9e-4 -0.60104,2.8e-4 -0.0648,0 -0.12971,-10e-6 -0.19456,-10e-6 -2.43559,-1.5e-4 -2.43533,-2.89937 2.5e-4,-2.89922 l 0,0 c 0.0648,1e-5 0.12971,1e-5 0.19456,1e-5 0.1988,2e-5 0.39761,-2e-5 0.59641,-2.9e-4 0.76052,-6.9e-4 1.52105,-0.001 2.28156,-0.005 0.71137,-0.003 1.42288,-0.0115 2.13417,6.9e-4 0.86785,0.0317 1.75504,0.11181 2.53847,0.45372 0.93197,0.40888 1.68681,0.96716 2.51768,1.49048 0.48082,0.4275 0.93892,0.87551 1.17238,1.43991 0.48225,0.94823 1.02903,1.9338 0.97094,2.98744 -0.0278,1.228 -0.0673,2.46246 -0.33248,3.67355 -0.3253,1.24855 -0.82664,2.4453 -1.23659,3.67241 -0.75717,1.64159 -2.08738,2.63339 -4.14981,3.04648 -2.55083,0.27903 -5.09818,0.40058 -7.56594,-0.35386 -2.13213,-0.6159 -4.10379,-1.31088 -5.37123,-2.97481 -0.85874,-1.38399 -1.04934,-2.77403 -0.81347,-4.32156 0.22286,-1.9674 0.69267,-3.90296 1.86812,-5.6426 1.43196,-1.87485 3.11326,-3.56125 5.72256,-4.27468 2.36286,-0.49721 3.19826,2.31545 0.8354,2.81266 z"
       inkscape:connector-curvature="0" />
    <path
       style="fill:#000000;fill-opacity:1;fill-rule:nonzero;stroke:none"
       id="path5493"
       d="m 414.87246,221.71037 c 0.11544,2.68259 -0.39888,5.33995 -0.69933,8.00332 -0.30702,2.8334 -0.38668,5.67894 -0.43376,8.52227 -0.0288,2.5434 -0.0241,5.08696 -0.0213,7.63044 0.002,1.30761 0.003,2.61523 0.006,3.92284 2e-4,0.12596 4.2e-4,0.25191 6.8e-4,0.37786 0.006,2.05005 -3.43889,2.05666 -3.44443,0.007 l 0,0 c -2.6e-4,-0.12684 -4.8e-4,-0.25368 -6.8e-4,-0.38053 -0.002,-1.30801 -0.004,-2.61603 -0.006,-3.92404 -0.002,-2.55789 -0.007,-5.11585 0.0216,-7.67366 0.0486,-2.92144 0.13231,-5.84506 0.44888,-8.75621 0.29095,-2.57242 0.79507,-5.13816 0.68387,-7.72889 0,-2.05006 3.44443,-2.05006 3.44443,0 z"
       inkscape:connector-curvature="0" />
    <path
       style="fill:#000000;fill-opacity:1;fill-rule:nonzero;stroke:none"
       id="path5497"
       d="m 284.10053,402.40855 c -0.79479,-1.00231 -1.32676,-2.18547 -2.2036,-3.11918 -0.9714,-1.08956 -1.38546,-2.45053 -1.70262,-3.83347 -0.2817,-1.43199 -0.45937,-2.88186 -0.64976,-4.32805 -0.0644,-1.7011 0.38519,-3.33403 0.76575,-4.97606 0.3427,-1.48716 1.00773,-2.83965 1.61795,-4.22611 0.70141,-1.20524 1.64208,-2.26915 2.65667,-3.23016 1.28135,-1.15785 2.71475,-2.12654 4.11188,-3.14053 1.19192,-1.10042 2.72879,-1.63858 4.11513,-2.41818 1.37682,-0.65845 2.70378,-1.4065 4.01476,-2.18721 1.6533,-0.9738 3.20171,-2.04358 4.99369,-2.76423 1.69308,-0.70822 3.31638,-1.55454 4.97043,-2.34238 1.30199,-0.86123 2.7426,-1.46857 4.11647,-2.19559 1.56621,-0.6973 2.8374,-1.84556 4.28296,-2.73627 1.04346,-0.52422 1.85656,-1.35596 2.82133,-2.00235 -0.0349,0.009 -0.12566,0.0544 -0.105,0.0254 0.46532,-0.65305 0.66699,-1.238 0.97137,-2.01839 0.32139,-1.0102 0.39874,-2.07322 0.37958,-3.12373 -0.0287,-0.79318 -0.14894,-1.57944 -0.2564,-2.36473 -0.11352,-0.81979 -0.22712,-1.63958 -0.33939,-2.45955 -0.0993,-0.73545 -0.19754,-1.47103 -0.29582,-2.20662 -0.0953,-0.71336 -0.19058,-1.42671 -0.28586,-2.14007 -0.0402,-0.30109 -0.0804,-0.60217 -0.12068,-0.90325 -0.13294,-1.08645 1.75058,-1.7564 2.71874,-1.41342 0.89232,0.33697 1.76974,0.74279 2.72174,0.89693 1.04889,0.2761 2.08582,0.63082 3.17764,0.70508 0.90014,0.0391 1.79801,-0.0958 2.68919,-0.20836 0.84521,-0.10886 1.68907,-0.22768 2.53306,-0.34548 -0.22865,0.0916 0.71667,-0.14993 0.54829,-0.0753 -0.18573,0.0823 -0.39566,0.10151 -0.5827,0.18094 -0.07,0.0297 -0.14904,0.21094 -0.17762,0.14187 -0.0821,-0.19824 0.21687,-0.37341 0.32443,-0.5606 0.69032,-1.11998 1.13616,-2.36859 1.6498,-3.5727 0.69339,-1.63993 1.37714,-3.26952 1.9053,-4.97108 0.68851,-1.77218 1.48283,-3.49478 2.30042,-5.21151 0.49756,-1.37247 1.43687,-2.52975 2.06765,-3.83162 0.60035,-1.44287 1.74003,-2.55593 2.60039,-3.83243 0.85094,-1.17905 1.83415,-2.24925 2.80712,-3.33348 1.19401,-1.28355 2.55894,-2.39553 3.81728,-3.61236 1.00106,-0.95398 2.13679,-1.73622 3.2393,-2.56302 1.37975,-0.81114 2.73182,-1.6568 4.04046,-2.57543 0.67856,-0.50959 1.31614,-1.02029 2.13088,-1.29704 0.86079,-0.21792 1.75181,-0.29993 2.63147,-0.41271 0.83828,-0.10794 1.67669,-0.21492 2.51471,-0.32486 1.08708,-0.2643 2.10508,-0.11217 3.16813,0.15169 0.86578,0.22552 1.65496,0.69199 2.46838,1.05963 0.32343,0.14877 0.84799,0.25682 1.56391,0.81294 0.14006,-0.37911 1.33559,0.85333 1.60309,1.16686 0.46565,0.67582 0.60572,1.44275 0.73181,2.23131 0.33387,2.11692 -2.72246,2.59594 -3.0563,0.47905 l 0,0 c -0.0166,-0.109 -0.25349,-0.99639 -0.0697,-0.77874 -0.39062,-0.48845 -0.31922,-0.26866 -1.16518,-0.74006 -0.53643,-0.45425 1.06496,0.16656 0.11271,-0.11151 -0.37928,-0.11074 -0.69647,-0.11535 -1.02794,-0.30555 -0.66854,-0.30241 -1.29648,-0.69716 -1.94151,-0.87624 -0.72087,-0.18192 -1.2186,-0.3076 -1.99342,-0.0844 -0.84116,0.11038 -1.68268,0.21775 -2.52409,0.32613 -0.69389,0.0886 -1.39139,0.16611 -2.07956,0.29104 -0.48373,0.18381 -0.90143,0.52282 -1.27652,0.87483 -1.28355,0.90007 -2.59931,1.75178 -3.9671,2.52234 -1.00734,0.74621 -2.03237,1.46202 -2.95066,2.31903 -1.21482,1.15094 -2.50378,2.2255 -3.6532,3.44305 -0.89037,0.99179 -1.80515,1.95954 -2.57675,3.04332 -0.81449,1.1385 -1.80447,2.16963 -2.3774,3.45968 -0.65638,1.2685 -1.51362,2.43451 -2.03782,3.77088 -0.75844,1.58731 -1.48839,3.18133 -2.14415,4.81358 -0.56501,1.7954 -1.27993,3.52249 -2.01024,5.25543 -0.56219,1.31288 -1.05743,2.6696 -1.80974,3.89302 -0.54265,0.94165 -1.16298,1.80099 -2.38848,1.83611 -0.85645,0.11847 -1.71262,0.239 -2.57,0.35042 -1.11193,0.14049 -2.2324,0.29522 -3.35504,0.22155 -1.19104,-0.11474 -2.35057,-0.38727 -3.48772,-0.74745 -1.12738,-0.22686 -2.19795,-0.61209 -3.25552,-1.04712 -1.58498,-0.62251 0.12658,-1.59939 1.47897,-1.82382 0.0402,0.30109 0.0804,0.60218 0.12068,0.90328 0.0953,0.71321 0.19049,1.42643 0.28579,2.13963 0.098,0.73293 0.19593,1.46586 0.29476,2.19868 0.11152,0.81983 0.22607,1.63925 0.33929,2.45885 0.12369,0.90331 0.25822,1.80812 0.28332,2.721 0.0192,1.43649 -0.11067,2.88403 -0.58397,4.25564 -0.49355,1.26537 -0.91222,2.53562 -2.02279,3.42644 -1.00048,0.66506 -1.83526,1.54525 -2.92959,2.07145 -1.51483,0.91111 -2.82004,2.14221 -4.46935,2.84135 -1.4181,0.72717 -2.86933,1.38574 -4.21666,2.2454 -1.71865,0.81429 -3.4029,1.69613 -5.16288,2.42606 -1.64651,0.63708 -3.01927,1.69335 -4.55087,2.54741 -1.34743,0.79235 -2.70592,1.56851 -4.11619,2.24465 -1.29009,0.68371 -2.66885,1.208 -3.77065,2.20128 -1.298,0.9399 -2.63095,1.83507 -3.82458,2.9048 -0.73973,0.66008 -1.36318,1.44795 -1.9458,2.24319 -0.55037,1.20395 -1.12028,2.37794 -1.43135,3.67431 -0.30348,1.29699 -0.664,2.5734 -0.71334,3.91213 0.17804,1.35527 0.34519,2.71365 0.60123,4.05696 0.19669,0.8734 0.39428,1.77054 0.98988,2.47606 0.95254,1.05616 1.62159,2.29936 2.46095,3.44187 1.2235,1.77038 -1.33969,3.48025 -2.5632,1.70986 z"
       inkscape:connector-curvature="0" />
    <path
       style="fill:#000000;fill-opacity:1;fill-rule:nonzero;stroke:none"
       id="path5499"
       d="m 297.98763,354.3841 c 1.38239,-2.60887 2.60785,-5.30984 3.56827,-8.11487 1.17169,-2.87018 1.6146,-5.9505 2.37892,-8.93695 0.44181,-1.51152 0.83683,-3.03012 1.0294,-4.59744 0.0917,-0.98873 0.0942,-1.98276 0.0944,-2.97502 2.7e-4,-0.55262 -0.007,-1.10519 -0.01,-1.65779 -0.002,-0.32797 -0.002,-0.65593 -0.002,-0.9839 1.34486,1.73917 1.92021,1.53384 0.49218,1.5314 -1.48595,0.11375 -0.17234,-0.3008 -0.67048,0.22385 -0.48654,1.05094 -1.12334,2.01788 -1.52301,3.1139 -0.40815,1.57116 -0.40429,3.21791 -0.43767,4.83299 -0.20661,2.08901 0.26081,4.03261 0.86594,6.0006 0.84986,2.15586 2.04378,4.14208 3.33755,6.04153 0.76958,1.18025 1.68942,2.16799 2.87232,2.89572 -0.21424,-0.19691 0.35841,0.24178 0.29514,0.14954 -0.0277,-0.0403 -0.0827,-0.0502 -0.12397,-0.0753 2.2277,0.43822 1.62618,3.68408 -0.60152,3.24586 l 0,0 c -0.45537,-0.12654 -0.84262,-0.2277 -1.23596,-0.49662 -1.54708,-0.98042 -2.81644,-2.26561 -3.83265,-3.82288 -1.47757,-2.17521 -2.83579,-4.45699 -3.76893,-6.94128 -0.70774,-2.30837 -1.22417,-4.62529 -1.01453,-7.06843 0.0423,-2.0019 0.0588,-4.0421 0.658,-5.96735 0.6035,-1.54611 1.39948,-3.05645 2.37748,-4.37726 0.82191,-0.71819 1.70606,-1.17373 2.80882,-1.0594 1.36724,0.003 1.62513,0.11884 2.70864,1.76964 4e-4,0.3234 7.7e-4,0.64681 0.002,0.97021 0.003,0.55861 0.0104,1.11719 0.01,1.67582 -4e-4,1.13238 -0.006,2.2669 -0.12044,3.39445 -0.21543,1.71222 -0.62314,3.37863 -1.11186,5.02945 -0.80591,3.06427 -1.23491,6.24215 -2.45471,9.18867 -1.0124,2.9297 -2.27655,5.76019 -3.72256,8.48862 -1.01426,2.08994 -3.88301,0.61213 -2.86876,-1.47781 z"
       inkscape:connector-curvature="0" />
    <path
       style="fill:#000000;fill-opacity:1;fill-rule:nonzero;stroke:none"
       id="path5501"
       d="m 478.10811,378.21343 c 2.73264,-1.12601 5.38364,-2.46857 8.00153,-3.84215 2.68119,-1.61988 5.38648,-3.19136 8.18988,-4.59091 0.79778,-0.37713 1.58635,-0.7809 2.4106,-1.09895 2.29937,-0.75209 3.33707,1.66848 4.08786,3.22046 1.1601,2.45962 2.527,4.80435 3.92641,7.13471 1.13096,1.72979 2.05049,3.58967 2.829,5.50163 0.12482,0.30693 0.23337,0.61955 0.31973,0.93929 0.72364,2.86598 -3.32946,3.88937 -4.0531,1.0234 l 0,0 c -0.043,-0.13134 -0.0904,-0.26126 -0.13993,-0.39026 -0.69334,-1.71413 -1.52218,-3.37807 -2.54051,-4.92369 -1.46682,-2.4478 -2.89681,-4.91279 -4.11833,-7.49307 -0.80245,-1.74227 -1.14254,-1.16517 1.17486,-1.1052 -0.69249,0.27445 -1.35758,0.61408 -2.03036,0.93229 -2.77979,1.38591 -5.45229,2.95833 -8.11643,4.55335 -2.90991,1.52186 -5.84865,3.04853 -8.92734,4.1946 -2.86767,0.71691 -3.88154,-3.33858 -1.01387,-4.0555 z"
       inkscape:connector-curvature="0" />
    <path
       style="fill:#000000;fill-opacity:1;fill-rule:nonzero;stroke:none"
       id="path5503"
       d="m 396.43236,463.45394 c 0.18488,3.12424 -0.14093,6.17937 -0.66027,9.25187 -0.25971,1.98862 -1.00922,3.86628 -1.94315,5.62728 -0.87607,1.51904 -0.96839,1.73639 -4.23613,-0.40555 -0.45598,-0.29889 0.41452,-2.67407 0.55193,-3.16057 0.36456,-2.24617 0.80873,-4.46328 1.34798,-6.67724 0.29087,-1.3288 0.54494,-2.66621 0.74495,-4.01181 0.0481,-0.69607 0.47737,-1.41422 1.03823,-1.96062 0.29761,-0.29141 0.59299,-0.58507 0.88764,-0.87947 0.026,-0.026 0.0518,-0.0521 0.0778,-0.0781 0.56522,-0.21186 1.13044,-0.42371 1.69566,-0.63557 0.39581,0.11208 0.81788,0.15552 1.18742,0.33625 1.02493,0.50126 1.70442,1.53922 2.58331,2.23332 0.19595,0.15476 2.21372,1.56308 2.27015,1.60262 2.5573,1.57592 4.71036,3.49381 6.06644,6.18781 1.27035,2.66902 -2.50423,4.46556 -3.77457,1.79654 l 0,0 c -0.88348,-2.09249 -2.87534,-3.33002 -4.69099,-4.56103 -0.15541,-0.10895 -5.52346,-3.61452 -3.69795,-3.41558 1.86374,-0.87247 1.6663,-0.95487 1.23962,-0.51122 -0.30886,0.30857 -0.61847,0.61639 -0.93051,0.92175 -0.91069,0.8839 0.5979,-1.96032 0.18245,-0.42052 -0.21969,1.4709 -0.49602,2.93328 -0.81809,4.38515 -0.55209,2.26562 -0.97787,4.53275 -1.3869,6.82518 -0.11938,0.42179 -0.0143,1.01412 -0.37738,1.25977 -0.0793,0.0537 -0.0465,-0.23786 -0.14152,-0.24999 -1.22488,-0.15643 -2.46736,-0.1237 -3.69668,-0.24019 -0.12036,-0.0114 0.49392,-0.37386 0.18935,-0.30934 0.73247,-1.35996 1.32609,-2.8114 1.50919,-4.35577 0.48114,-2.8446 0.78988,-5.65972 0.60176,-8.55494 0,-2.95592 4.18031,-2.95592 4.18031,0 z"
       inkscape:connector-curvature="0" />
    <path
       style="fill:#000000;fill-opacity:1;fill-rule:nonzero;stroke:none"
       id="path5505"
       d="m 398.02797,463.772 c 2.49281,4.4706 2.98215,9.69014 4.02603,14.62372 1.50784,7.31354 3.61044,14.38455 7.58503,20.73822 3.79585,5.56986 9.72067,7.39432 16.11702,8.08435 2.67846,0.1912 5.35963,0.0664 8.03662,-0.0559 2.95289,-0.13376 3.14207,4.04226 0.18917,4.17603 l 0,0 c -2.8975,0.13014 -5.79962,0.25904 -8.69778,0.0335 -7.67759,-0.91012 -14.69473,-3.32411 -19.19784,-10.03509 -0.68639,-1.11573 -1.43856,-2.19357 -2.05915,-3.34719 -3.13116,-5.82057 -4.50835,-12.36812 -6.06292,-18.72895 -0.94656,-4.47812 -1.36401,-9.2394 -3.52076,-13.33789 -1.52081,-2.53468 2.06377,-4.68543 3.58458,-2.15075 z"
       inkscape:connector-curvature="0" />
    <path
       style="fill:#000000;fill-opacity:1;fill-rule:nonzero;stroke:none"
       id="path5535"
       d="m 445.60274,502.36397 c 1.14704,0.26917 2.29409,0.53833 3.44114,0.8075 0.17797,0.0417 0.35596,0.0835 0.53394,0.1253 6.6e-4,1.5e-4 0.002,3.1e-4 0.002,4.6e-4 -0.70398,0.51193 -1.40797,1.02387 -2.11196,1.53581 -0.0132,-0.11692 -0.0958,-0.45586 -0.0396,-0.35075 0.0991,0.18566 0.21607,0.39759 0.17345,0.60137 -0.0271,0.12954 -0.18363,-0.19999 -0.27544,-0.29999 -0.97342,-0.27583 -1.85416,-0.23702 -2.80691,0.0962 -0.61767,0.27946 -1.32619,0.40014 -1.56776,0.97766 0.0243,0.69095 -0.009,1.48287 -0.005,2.2081 -0.11318,1.02169 0.24693,1.14301 -0.0825,0.39029 1.82043,-0.0446 3.59846,0.26761 5.34102,0.73252 1.95357,0.70389 3.59222,1.84052 4.99902,3.27302 1.03302,1.063 1.14621,2.30768 0.52327,3.59202 -1.15012,1.51553 -2.98263,2.11428 -4.70516,2.86729 -1.47846,0.67574 -3.02666,1.06796 -4.6647,0.95106 -2.34718,-0.34996 -1.8199,-3.4657 0.52727,-3.11574 l 0,0 c 0.6635,-0.002 1.91989,-0.28004 2.721,-0.69629 1.03047,-0.44839 2.18644,-0.87628 3.11329,-1.41323 0.16524,-0.1965 0.0629,-0.11729 0.13709,0.33193 0.003,0.0214 0.0421,-0.43994 -0.1318,-0.38745 -0.9827,-1.01882 -2.10708,-1.82737 -3.46232,-2.37453 -1.82816,-0.52086 -3.67429,-0.55888 -5.55092,-0.79723 -1.60088,-0.61999 -2.24583,-1.74001 -2.12556,-3.33649 -0.007,-1.23114 -0.0831,-2.50223 0.38106,-3.67499 0.78345,-1.34082 2.02415,-2.04379 3.54077,-2.53628 2.09256,-0.56809 4.23354,-0.64786 6.09116,0.58739 1.7179,1.67433 1.39475,2.12914 -0.83569,3.89841 -0.17798,-0.0417 -0.35596,-0.0835 -0.53393,-0.12529 -1.14705,-0.26918 -2.2941,-0.53834 -3.44114,-0.8075 -2.30565,-0.54105 -1.49048,-3.60165 0.81516,-3.06061 z"
       inkscape:connector-curvature="0" />
    <path
       style="fill:#000000;fill-opacity:1;fill-rule:nonzero;stroke:none"
       id="path5541"
       d="m 461.00544,498.83008 c 0.63305,3.4174 0.7575,6.89191 0.89181,10.35099 0.32581,3.30431 0.77152,6.59527 1.04681,9.90427 0.0832,1.14708 0.1695,2.29465 0.20702,3.44407 0.0282,1.33193 -0.1905,0.29999 -3.41575,0.3143 -0.7378,-2.12056 2.45717,-3.09994 3.19497,-0.97938 l 0,0 c -0.59863,0.15567 -3.21355,1.53046 -3.13871,0.76066 -0.035,-1.0995 -0.12014,-2.19713 -0.19839,-3.29443 -0.27801,-3.35252 -0.74072,-6.68563 -1.05475,-10.03477 -0.12733,-3.29003 -0.23996,-6.59478 -0.82876,-9.847 -0.4661,-2.18747 2.82966,-2.80617 3.29575,-0.61871 z"
       inkscape:connector-curvature="0" />
    <path
       style="fill:#000000;fill-opacity:1;fill-rule:nonzero;stroke:none"
       id="path5543"
       d="m 456.20301,508.40552 c 2.18264,-0.45025 4.40652,-0.67382 6.63158,-0.83358 0.97879,-0.0592 1.95854,-0.11338 2.93938,-0.1296 0.0952,-0.003 0.19027,7.5e-4 0.28537,0.003 2.37401,0.10413 2.21711,3.25549 -0.1569,3.15135 l 0,0 c -0.0236,5e-5 -0.0471,1.5e-4 -0.0707,1.6e-4 -0.91506,0.0143 -1.82902,0.0671 -2.74218,0.12098 -2.08955,0.14839 -4.17821,0.35687 -6.22745,0.78141 -2.33045,0.43749 -2.98959,-2.65604 -0.65914,-3.09353 z"
       inkscape:connector-curvature="0" />
    <path
       style="fill:#000000;fill-opacity:1;fill-rule:nonzero;stroke:none"
       id="path5545"
       d="m 471.3706,511.82837 c 1.61753,0.4229 3.18269,0.54303 4.83015,0.30196 0.66271,-0.4518 0.28507,-0.16172 0.37037,-0.74863 -0.0212,-0.70956 0.34713,-1.94121 -0.34323,-2.47437 -0.29512,-0.34319 -0.57482,-0.35015 -1.01985,-0.42011 -0.69192,-0.0953 -0.81752,0.33692 -1.24565,0.83827 -0.61328,1.07466 -0.69094,2.25071 -0.31051,3.39675 0.73564,1.74411 2.46888,2.61368 4.19409,3.36482 1.42177,0.4935 2.93369,0.74617 4.44385,0.8374 0.12094,0.0386 1.50214,-0.01 0.35015,0.038 2.15809,-0.93437 3.56586,1.93036 1.40778,2.86473 l 0,0 c -0.76321,0.20251 -1.22533,0.33883 -1.98768,0.24466 -1.92804,-0.12964 -3.85399,-0.45357 -5.65359,-1.13401 -2.6391,-1.19297 -5.03494,-2.68753 -6.0081,-5.42404 -0.53956,-2.17558 -0.39913,-4.31192 0.98267,-6.20875 1.1803,-1.29831 2.54222,-2.25201 4.44922,-1.91812 1.32259,0.24554 2.47292,0.77023 3.24956,1.85104 0.86096,1.47358 1.07582,2.99175 0.80766,4.6562 -0.33711,1.77221 -1.30031,2.86983 -3.18356,3.35538 -2.08549,0.28966 -4.10699,0.16496 -6.1485,-0.3606 -2.30564,-0.54105 -1.49047,-3.60165 0.81517,-3.06062 z"
       inkscape:connector-curvature="0" />
    <path
       style="fill:#000000;fill-opacity:1;fill-rule:nonzero;stroke:none"
       id="path5551"
       d="m 487.0166,506.31244 c 2.33216,-0.99329 4.83623,-1.57742 7.39231,-1.65548 2.92487,0.22809 4.48833,2.0773 5.33788,4.52883 0.8462,2.66988 -0.93809,4.35981 -3.30003,5.49086 -2.21741,0.7675 -4.58835,1.21758 -6.9506,1.04315 -2.01164,-0.46681 -3.18205,-1.76958 -3.76688,-3.55975 -0.15662,-0.66413 -0.23154,-1.34444 -0.20695,-2.02425 0.10624,-1.36427 0.54098,-0.78738 3.39913,-0.0447 0.36239,0.0942 0.0367,0.70522 0.04,1.05814 -0.14479,2.41345 0.21118,4.80199 0.46068,7.19834 0.5211,3.13014 1.05513,6.25683 1.47774,9.40039 0.0944,0.73947 0.19309,1.47878 0.26044,2.22095 0.17747,2.22456 -3.17417,2.46013 -3.35164,0.23558 l 0,0 c -0.0618,-0.68904 -0.15819,-1.37499 -0.24339,-2.06168 -0.42629,-3.17294 -0.97331,-6.32756 -1.48825,-9.48846 -0.25918,-2.4906 -0.61983,-4.97655 -0.47653,-7.48479 -0.007,-2.07416 2.18746,1.03051 3.28004,-0.9052 -0.0117,0.35809 0.0252,0.71598 0.0922,1.06865 0.0851,0.54944 0.38667,0.96274 0.88141,1.24994 1.68949,0.2758 3.51264,-0.34451 5.12548,-0.74467 0.91097,-0.3781 1.91832,-0.6411 1.55467,-1.72499 -0.32153,-1.09294 -0.75075,-2.09247 -2.06388,-2.30206 -2.05124,-0.009 -4.07131,0.58684 -5.95073,1.32294 -2.1257,0.99763 -3.6288,-1.82411 -1.5031,-2.82173 z"
       inkscape:connector-curvature="0" />
    <path
       style="fill:#000000;fill-opacity:1;fill-rule:nonzero;stroke:none"
       id="path5555"
       d="m 515.88465,508.09547 c 0.36579,2.17031 1.01678,4.27952 1.54237,6.4191 0.20083,0.85121 0.40597,1.70195 0.57808,2.55883 0.0409,0.0747 0.1302,0.25209 0.0408,0.24902 -3.75047,-0.12857 -3.36472,0.63624 -3.37279,-1.45156 -0.15681,-2.02507 0.3151,-3.99623 0.70849,-5.97194 0.25089,-1.54478 0.90853,-2.91504 2.22163,-3.88952 1.15361,-0.62577 2.45949,-0.67442 3.7549,-0.69177 0.55311,-0.002 1.10632,0.005 1.65915,0.0218 1.26441,-0.0674 1.89966,0.65032 2.4446,1.57217 0.24817,1.41434 0.74852,2.76087 1.06302,4.16641 0.25963,1.16794 0.39164,2.35372 0.46622,3.54319 0.0221,0.53726 0.0259,1.07508 0.0193,1.61265 -4.5e-4,0.065 -0.003,0.12996 -0.005,0.19493 -0.0788,2.22955 -3.43799,2.12494 -3.35918,-0.10461 l 0,0 c 8e-4,-0.0425 0.003,-0.0849 0.003,-0.12739 0.006,-0.46391 0.002,-0.92799 -0.0138,-1.3917 -0.0638,-1.0363 -0.17539,-2.06937 -0.40202,-3.08692 -0.26076,-1.20124 -0.7622,-2.35646 -0.86814,-3.57919 0.3614,0.31249 1.57341,0.40817 0.53718,0.35343 -0.50032,-0.0145 -1.00085,-0.0223 -1.50144,-0.0202 -0.59774,0.006 -1.24166,0.0576 -1.80995,0.0809 -0.59723,0.26334 -0.76956,1.31299 -0.90601,1.92548 -0.35518,1.78374 -0.8083,3.55166 -0.65131,5.3811 0.008,2.18449 0.38162,1.21332 -3.33208,1.79712 -0.16298,-0.81509 -0.36027,-1.62383 -0.55016,-2.43361 -0.52036,-2.12012 -1.16722,-4.21172 -1.52789,-6.3625 -0.57641,-2.16417 2.68426,-2.92932 3.26068,-0.76515 z"
       inkscape:connector-curvature="0" />
    <path
       style="fill:#000000;fill-opacity:1;fill-rule:nonzero;stroke:none"
       id="path5557"
       d="m 539.41183,505.99226 c 0.51449,2.08667 0.73693,4.22278 0.90587,6.35468 0.0629,0.94111 0.12055,1.88309 0.13783,2.82607 0.003,0.0899 -8e-4,0.17971 -0.003,0.26955 -0.10879,2.22844 -3.4663,2.08402 -3.3575,-0.14443 l 0,0 c -4e-5,-0.0241 -7e-5,-0.0481 -1.2e-4,-0.0721 -0.0154,-0.88298 -0.0716,-1.76496 -0.12913,-2.6462 -0.15315,-1.95263 -0.35191,-3.90963 -0.81469,-5.82239 -0.57641,-2.16417 2.68426,-2.92932 3.26067,-0.76515 z"
       inkscape:connector-curvature="0" />
    <path
       style="fill:#000000;fill-opacity:1;fill-rule:nonzero;stroke:none"
       id="path5559"
       d="m 533.29457,509.47359 c 1.68297,-0.4203 3.40344,-0.68164 5.1342,-0.84671 0.97664,-0.09 1.95664,-0.12509 2.93741,-0.13312 0.26953,-0.002 0.53909,-7.6e-4 0.80855,0.005 0.66825,-0.0334 0.91575,0.17652 1.69101,0.47972 0.14428,0.15556 0.28856,0.31111 0.43284,0.46667 1.40466,1.79944 -1.3065,3.66404 -2.71116,1.8646 l 0,0 c 0.0539,0.0398 0.10786,0.0796 0.16179,0.11943 1.96248,0.49816 0.47802,0.13911 0.31797,0.22276 -0.22406,-0.005 -0.44817,-0.005 -0.67228,-0.004 -0.87832,0.007 -1.7559,0.0371 -2.63059,0.11747 -1.56963,0.14563 -3.12899,0.38722 -4.65457,0.76828 -2.30564,0.54105 -3.12082,-2.51955 -0.81517,-3.0606 z"
       inkscape:connector-curvature="0" />
    <path
       style="fill:#000000;fill-opacity:1;fill-rule:nonzero;stroke:none"
       id="path5563"
       d="m 552.85592,502.83747 c 0.58154,2.64243 0.76268,5.33942 0.90831,8.02791 0.0811,1.66119 0.12316,3.32397 0.1356,4.9868 0.002,0.35732 -0.003,0.71463 -0.005,1.07194 -8.1e-4,0.16589 -0.002,0.33178 -0.002,0.49767 -2e-5,0.005 -4e-5,0.0107 -6e-5,0.0161 -0.008,2.23076 -3.36887,2.22033 -3.36101,-0.0104 l 0,0 c 2e-5,-0.006 5e-5,-0.0115 6e-5,-0.0172 7.2e-4,-0.16762 0.002,-0.33523 0.002,-0.50283 0.002,-0.34441 0.006,-0.68881 0.005,-1.03322 -0.0119,-1.61692 -0.0529,-3.23379 -0.13137,-4.84911 -0.13375,-2.48485 -0.29592,-4.97666 -0.81226,-7.42247 -0.57642,-2.16417 2.68426,-2.92932 3.26067,-0.76515 z"
       inkscape:connector-curvature="0" />
    <path
       inkscape:connector-curvature="0"
       d="m 534.61889,455.38518 c 1.11592,0.29104 2.23182,0.58208 3.34773,0.87312 0.17315,0.0451 0.3463,0.0903 0.51945,0.13547 6.5e-4,1.8e-4 0.002,3.5e-4 0.002,5.1e-4 -0.68488,0.55353 -1.36976,1.10708 -2.05463,1.66061 -0.0129,-0.12641 -0.0932,-0.49291 -0.0386,-0.37924 0.0964,0.20074 0.21021,0.4299 0.16875,0.65024 -0.0264,0.14006 -0.17865,-0.21626 -0.26797,-0.32437 -0.947,-0.29826 -1.80383,-0.25628 -2.73071,0.10402 -0.60091,0.30217 -1.2902,0.43265 -1.5252,1.05711 0.0236,0.7471 -0.009,1.60337 -0.005,2.38754 -0.11011,1.10472 0.24022,1.2359 -0.0802,0.42201 1.77101,-0.0482 3.50079,0.28935 5.19604,0.79204 1.90054,0.7611 3.49471,1.99009 4.86332,3.53901 1.00498,1.14937 1.1151,2.49521 0.50907,3.88393 -1.1189,1.63868 -2.90167,2.2861 -4.57744,3.1003 -1.43832,0.73065 -2.9445,1.15474 -4.53807,1.02834 -2.28347,-0.37839 -1.77051,-3.74733 0.51295,-3.36893 l 0,0 c 0.64548,-0.002 1.86778,-0.30281 2.64713,-0.75288 1.0025,-0.48483 2.1271,-0.9475 3.02879,-1.52808 0.16075,-0.21247 0.0612,-0.12682 0.13337,0.35891 0.003,0.0231 0.041,-0.4757 -0.12822,-0.41894 -0.95603,-1.10161 -2.04989,-1.97587 -3.36834,-2.56751 -1.77853,-0.56317 -3.57456,-0.60428 -5.40024,-0.862 -1.55742,-0.67039 -2.18486,-1.88142 -2.06787,-3.60765 -0.007,-1.33118 -0.0808,-2.70556 0.37072,-3.97363 0.76218,-1.44978 1.9692,-2.20988 3.44466,-2.7424 2.03576,-0.61424 4.11862,-0.7005 5.92581,0.63513 1.67128,1.8104 1.3569,2.30217 -0.813,4.21522 -0.17316,-0.0451 -0.3463,-0.0903 -0.51945,-0.13548 -1.1159,-0.29104 -2.23182,-0.58208 -3.34772,-0.87312 -2.24306,-0.58501 -1.45001,-3.89433 0.79304,-3.30932 z"
       id="path5565"
       style="fill:#000000;fill-opacity:1;fill-rule:nonzero;stroke:none" />
    <path
       inkscape:connector-curvature="0"
       d="m 549.60349,451.56411 c 0.61586,3.69511 0.73693,7.45198 0.8676,11.19217 0.31696,3.57283 0.75057,7.13124 1.01839,10.70913 0.0809,1.24031 0.16491,2.48114 0.2014,3.72397 0.0275,1.44017 -0.18532,0.32437 -3.32302,0.33984 -0.71777,-2.2929 2.39046,-3.35187 3.10823,-1.05897 l 0,0 c -0.58238,0.16832 -3.12631,1.65482 -3.0535,0.82248 -0.0341,-1.18886 -0.11688,-2.3757 -0.193,-3.56216 -0.27047,-3.62496 -0.72062,-7.22894 -1.02613,-10.85025 -0.12387,-3.55741 -0.23345,-7.13071 -0.80626,-10.64724 -0.45344,-2.36522 2.75285,-3.0342 3.20629,-0.66897 z"
       id="path5567"
       style="fill:#000000;fill-opacity:1;fill-rule:nonzero;stroke:none" />
    <path
       inkscape:connector-curvature="0"
       d="m 544.93142,461.9177 c 2.12339,-0.48684 4.2869,-0.72858 6.45157,-0.90132 0.95221,-0.064 1.90536,-0.12259 2.85958,-0.14014 0.0926,-0.003 0.1851,8.1e-4 0.27762,0.003 2.30957,0.1126 2.15694,3.52006 -0.15263,3.40746 l 0,0 c -0.0229,5e-5 -0.0458,1.6e-4 -0.0688,1.7e-4 -0.89022,0.0155 -1.77938,0.0725 -2.66775,0.13081 -2.03283,0.16045 -4.06478,0.38587 -6.0584,0.84491 -2.26719,0.47305 -2.90844,-2.87189 -0.64125,-3.34493 z"
       id="path5569"
       style="fill:#000000;fill-opacity:1;fill-rule:nonzero;stroke:none" />
    <path
       inkscape:connector-curvature="0"
       d="m 559.68729,465.6187 c 1.57361,0.45727 3.09629,0.58716 4.69903,0.32651 0.64472,-0.48852 0.27733,-0.17486 0.36031,-0.80947 -0.0206,-0.76722 0.33771,-2.09896 -0.33391,-2.67546 -0.28711,-0.37107 -0.55921,-0.37861 -0.99217,-0.45424 -0.67314,-0.10304 -0.79532,0.3643 -1.21183,0.90639 -0.59663,1.162 -0.67218,2.43362 -0.30208,3.67278 0.71566,1.88585 2.40186,2.82609 4.08023,3.63828 1.38318,0.5336 2.85406,0.80679 4.32323,0.90545 0.11765,0.0417 1.46136,-0.0108 0.34065,0.0411 2.0995,-1.01031 3.46906,2.08723 1.36957,3.09753 l 0,0 c -0.7425,0.21897 -1.19208,0.36637 -1.93373,0.26453 -1.87571,-0.14016 -3.74937,-0.49042 -5.50013,-1.22615 -2.56746,-1.28992 -4.89826,-2.90594 -5.845,-5.86484 -0.52492,-2.35237 -0.3883,-4.66232 0.95599,-6.7133 1.14826,-1.40382 2.47321,-2.43502 4.32845,-2.074 1.28668,0.2655 2.40579,0.83282 3.16134,2.00147 0.83759,1.59332 1.04662,3.23488 0.78574,5.03458 -0.32796,1.91623 -1.26501,3.10306 -3.09714,3.62805 -2.02888,0.31321 -3.99551,0.17838 -5.9816,-0.3899 -2.24306,-0.58501 -1.45002,-3.89434 0.79305,-3.30933 z"
       id="path5571"
       style="fill:#000000;fill-opacity:1;fill-rule:nonzero;stroke:none" />
    <path
       inkscape:connector-curvature="0"
       d="m 574.90857,459.65451 c 2.26885,-1.074 4.70494,-1.70561 7.19164,-1.79 2.84548,0.24663 4.3665,2.2461 5.19298,4.89687 0.82323,2.88684 -0.91262,4.71411 -3.21045,5.93707 -2.15721,0.82988 -4.46379,1.31652 -6.76192,1.12792 -1.95703,-0.50474 -3.09567,-1.91339 -3.66463,-3.84903 -0.15237,-0.71811 -0.22525,-1.45369 -0.20133,-2.18876 0.10336,-1.47514 0.5263,-0.85135 3.30686,-0.0483 0.35255,0.10175 0.0358,0.76253 0.0389,1.14413 -0.14087,2.60957 0.20544,5.19223 0.44817,7.78331 0.50695,3.38451 1.02649,6.7653 1.43763,10.16432 0.0919,0.79956 0.18784,1.59895 0.25337,2.40143 0.17265,2.40534 -3.08802,2.66006 -3.26067,0.25473 l 0,0 c -0.0602,-0.74504 -0.15389,-1.48673 -0.23677,-2.22923 -0.41473,-3.43079 -0.9469,-6.84177 -1.44786,-10.25954 -0.25215,-2.693 -0.60301,-5.38096 -0.46359,-8.09305 -0.007,-2.24272 2.12808,1.11426 3.191,-0.97876 -0.0114,0.38719 0.0245,0.77416 0.0897,1.15549 0.0829,0.59411 0.37617,1.04099 0.85749,1.35152 1.64362,0.29823 3.41727,-0.37251 4.98634,-0.80518 0.88624,-0.40883 1.86625,-0.6932 1.51246,-1.86518 -0.3128,-1.18176 -0.73037,-2.26251 -2.00785,-2.48914 -1.99555,-0.01 -3.96079,0.63454 -5.78919,1.43046 -2.068,1.07871 -3.53029,-1.97234 -1.4623,-3.05105 z"
       id="path5573"
       style="fill:#000000;fill-opacity:1;fill-rule:nonzero;stroke:none" />
    <path
       inkscape:connector-curvature="0"
       d="m 602.99299,460.44538 c 0.35586,2.34669 0.98918,4.6273 1.5005,6.94077 0.19538,0.92037 0.39495,1.84026 0.56239,2.76676 0.0398,0.0808 0.12667,0.27258 0.0397,0.26927 -3.64866,-0.13903 -3.27338,0.68794 -3.28123,-1.56952 -0.15256,-2.18965 0.30655,-4.32099 0.68926,-6.45727 0.24408,-1.6703 0.88386,-3.15192 2.16132,-4.20559 1.12229,-0.67662 2.39273,-0.72923 3.65297,-0.74799 0.5381,-0.002 1.07629,0.005 1.61411,0.0236 1.23009,-0.0729 1.8481,0.70316 2.37824,1.69994 0.24143,1.52926 0.72821,2.98522 1.03417,4.50498 0.25258,1.26287 0.38101,2.545 0.45356,3.83114 0.0215,0.58092 0.0252,1.16244 0.0188,1.74371 -4.4e-4,0.0703 -0.003,0.14051 -0.005,0.21076 -0.0767,2.41073 -3.34466,2.29762 -3.268,-0.11311 l 0,0 c 7.8e-4,-0.046 0.003,-0.0918 0.003,-0.13774 0.006,-0.50162 0.002,-1.00341 -0.0134,-1.50479 -0.0621,-1.12052 -0.17064,-2.23755 -0.39112,-3.3378 -0.25367,-1.29884 -0.74151,-2.54794 -0.84457,-3.87004 0.3516,0.33787 1.5307,0.44134 0.5226,0.38214 -0.48674,-0.0157 -0.97368,-0.0241 -1.46067,-0.0218 -0.58152,0.006 -1.20797,0.0623 -1.76083,0.0875 -0.58102,0.28473 -0.74867,1.41968 -0.88142,2.08195 -0.34553,1.92871 -0.78636,3.84029 -0.63363,5.81841 0.008,2.362 0.37126,1.31191 -3.24162,1.94315 -0.15856,-0.88132 -0.3505,-1.75579 -0.53523,-2.63138 -0.50623,-2.29241 -1.13554,-4.55398 -1.48642,-6.87954 -0.56076,-2.34005 2.6114,-3.16738 3.17216,-0.82733 z"
       id="path5575"
       style="fill:#000000;fill-opacity:1;fill-rule:nonzero;stroke:none" />
    <path
       inkscape:connector-curvature="0"
       d="m 484.21878,420.25745 c 0.18488,3.12424 -0.14093,6.17937 -0.66027,9.25187 -0.25971,1.98862 -1.00922,3.86628 -1.94315,5.62728 -0.87607,1.51904 -0.96839,1.73639 -4.23613,-0.40555 -0.45598,-0.29889 0.41452,-2.67407 0.55193,-3.16057 0.36456,-2.24617 0.80873,-4.46328 1.34798,-6.67724 0.29087,-1.3288 0.54494,-2.66621 0.74495,-4.01181 0.0481,-0.69607 0.47737,-1.41422 1.03823,-1.96062 0.29761,-0.29141 0.59299,-0.58507 0.88764,-0.87947 0.026,-0.026 0.0518,-0.0521 0.0778,-0.0781 0.56522,-0.21186 1.13044,-0.42371 1.69566,-0.63557 0.39581,0.11208 0.81788,0.15552 1.18742,0.33625 1.02493,0.50126 1.70442,1.53922 2.58331,2.23332 0.19595,0.15476 2.21372,1.56308 2.27015,1.60262 2.5573,1.57592 4.71036,3.49381 6.06644,6.18781 1.27035,2.66902 -2.50423,4.46556 -3.77457,1.79654 l 0,0 c -0.88348,-2.09249 -2.87534,-3.33002 -4.69099,-4.56103 -0.15541,-0.10895 -5.52346,-3.61452 -3.69795,-3.41558 1.86374,-0.87247 1.6663,-0.95487 1.23962,-0.51122 -0.30886,0.30857 -0.61847,0.61639 -0.93051,0.92175 -0.91069,0.8839 0.5979,-1.96032 0.18245,-0.42052 -0.21969,1.4709 -0.49602,2.93328 -0.81809,4.38515 -0.55209,2.26562 -0.97787,4.53275 -1.3869,6.82518 -0.11938,0.42179 -0.0143,1.01412 -0.37738,1.25977 -0.0793,0.0537 -0.0465,-0.23786 -0.14152,-0.24999 -1.22488,-0.15643 -2.46736,-0.1237 -3.69668,-0.24019 -0.12036,-0.0114 0.49392,-0.37386 0.18935,-0.30934 0.73247,-1.35996 1.32609,-2.8114 1.50919,-4.35577 0.48114,-2.8446 0.78988,-5.65972 0.60176,-8.55494 0,-2.95592 4.18031,-2.95592 4.18031,0 z"
       id="path5577"
       style="fill:#000000;fill-opacity:1;fill-rule:nonzero;stroke:none" />
    <path
       inkscape:connector-curvature="0"
       d="m 485.81439,420.57551 c 2.49281,4.4706 2.98215,9.69014 4.02603,14.62372 1.50784,7.31354 3.61044,14.38455 7.58503,20.73822 3.79585,5.56986 9.72067,7.39432 16.11702,8.08435 2.67846,0.1912 5.35963,0.0664 8.03662,-0.0559 2.95289,-0.13376 3.14207,4.04226 0.18917,4.17603 l 0,0 c -2.8975,0.13014 -5.79962,0.25904 -8.69778,0.0335 -7.67759,-0.91012 -14.69473,-3.32411 -19.19784,-10.03509 -0.68639,-1.11573 -1.43856,-2.19357 -2.05915,-3.34719 -3.13116,-5.82057 -4.50835,-12.36812 -6.06292,-18.72895 -0.94656,-4.47812 -1.36401,-9.2394 -3.52076,-13.33789 -1.52081,-2.53468 2.06377,-4.68543 3.58458,-2.15075 z"
       id="path5579"
       style="fill:#000000;fill-opacity:1;fill-rule:nonzero;stroke:none" />
    <path
       style="fill:#000000;fill-opacity:1;fill-rule:nonzero;stroke:none"
       id="path5585"
       d="m 470.88604,271.67958 c 0.47648,2.60761 1.07519,5.19202 1.52494,7.80466 0.23619,1.54546 0.4364,3.09639 0.56513,4.65271 -0.0358,-1.07762 -2.26739,-0.009 -3.25266,-0.45061 -0.33451,-0.14991 0.0958,-0.6775 0.1501,-1.01543 0.19281,-1.20092 0.37056,-2.39531 0.51383,-3.6026 0.39844,-2.54461 1.08139,-5.02507 1.85544,-7.4909 0.52209,-1.17425 1.14935,-2.30691 1.81899,-3.41547 1.72876,-2.44933 3.61792,0.13549 4.28272,1.48584 0.58088,2.05942 1.22638,4.08831 2.00095,6.09483 0.60019,1.57349 1.00784,3.19575 1.28534,4.84089 0.0595,0.37896 0.11825,0.75908 0.10271,1.14249 -0.71731,-0.52062 -1.43461,-1.04123 -2.15191,-1.56185 -0.11281,0.0549 -0.30104,0.27656 -0.33843,0.16456 -0.0487,-0.14593 0.18498,-0.25428 0.26358,-0.3888 0.38725,-0.66273 0.7222,-1.34424 1.02282,-2.04353 1.09828,-1.87379 2.11897,-3.80181 3.37793,-5.59231 0.87452,-1.16687 2.23591,-2.52119 4.01106,-1.76419 0.45143,0.19251 0.62102,0.714 0.93153,1.071 0.58613,1.75697 1.00605,3.54279 1.30433,5.35834 0.4123,1.51531 -0.008,3.16542 0.4071,4.66426 0.13197,0.50401 0.30573,0.99712 0.48178,1.48918 0.72017,2.01977 -2.39296,2.95426 -3.11314,0.93449 l 0,0 c -0.21614,-0.60793 -0.42882,-1.21742 -0.5822,-1.842 -0.29812,-1.58645 -0.16785,-3.20457 -0.43267,-4.79929 -0.24799,-1.51924 -0.60853,-3.01709 -1.01559,-4.49959 2.10595,1.19606 2.19187,-0.87068 0.75684,1.02184 -1.15422,1.62668 -2.05955,3.39286 -3.0903,5.08481 -0.1933,0.43076 -1.82974,3.89291 -2.44126,3.79206 -0.99047,-0.16333 -1.77187,-0.87592 -2.65779,-1.31389 -0.01,0.39402 -0.0229,-0.44501 -0.0737,-0.46001 -0.2438,-1.45989 -0.60385,-2.89874 -1.13557,-4.29507 -0.75283,-1.9502 -1.42333,-3.91517 -1.93196,-5.93139 -0.0577,-0.14821 -0.0972,-0.30346 -0.17298,-0.44464 -0.0697,-0.1299 -0.32384,-0.23018 -0.26043,-0.36278 0.10129,-0.21179 0.4787,0.33189 0.70976,0.23944 1.28799,-0.51533 1.70257,-1.23463 1.32381,-0.62685 -0.5514,0.91118 -1.05621,1.8449 -1.53581,2.78956 -0.72253,2.30087 -1.36644,4.61161 -1.74678,6.9851 -0.14865,1.24654 -0.30821,2.48682 -0.53106,3.72427 -0.0355,0.19717 0.0833,0.50508 -0.11362,0.5904 -1.0221,0.44277 -2.15124,0.64941 -3.25585,0.86923 -0.077,0.0153 -0.022,-0.14315 -0.0331,-0.21473 -0.12117,-1.47543 -0.31272,-2.94555 -0.53441,-4.41087 -0.43401,-2.52529 -1.01914,-5.02191 -1.46719,-7.54425 -0.56175,-2.06166 2.61596,-2.79057 3.1777,-0.72891 z"
       inkscape:connector-curvature="0" />
    <path
       style="fill:#000000;fill-opacity:1;fill-rule:nonzero;stroke:none"
       id="path5587"
       d="m 501.19617,281.42458 c -0.27361,2.3115 -1.30246,4.34952 -2.42788,6.39748 -0.8005,1.42213 -1.81066,2.72955 -2.82848,4.02465 -1.35539,1.72324 -4.01147,-0.0355 -2.65608,-1.75872 l 0,0 c 0.91787,-1.16599 1.83432,-2.34008 2.55984,-3.61905 1.02083,-1.85745 1.95049,-3.66799 2.1749,-5.77327 0.56175,-2.06166 3.73945,-1.33275 3.1777,0.72891 z"
       inkscape:connector-curvature="0" />
    <path
       style="fill:#000000;fill-opacity:1;fill-rule:nonzero;stroke:none"
       id="path5589"
       d="m 518.92672,265.66885 c 0.68058,2.81315 0.76756,5.71235 0.88612,8.58122 0.0921,2.68406 0.12144,5.36951 0.13125,8.05475 -3.4e-4,0.33343 0.002,0.66688 -0.002,1.0003 -0.0242,2.12499 -3.29952,2.09359 -3.27532,-0.0314 l 0,0 c 0.002,-0.3196 0.003,-0.63923 0.002,-0.95884 -0.01,-2.65075 -0.0384,-5.30171 -0.12893,-7.95129 -0.10927,-2.66163 -0.18017,-5.35245 -0.79067,-7.96582 -0.56173,-2.06166 2.61597,-2.79057 3.17771,-0.72891 z"
       inkscape:connector-curvature="0" />
    <path
       style="fill:#000000;fill-opacity:1;fill-rule:nonzero;stroke:none"
       id="path5591"
       d="m 508.80441,265.96423 c 3.27892,-0.48759 6.54718,-1.01627 9.84548,-1.39054 2.5964,-0.26629 5.20415,-0.43738 7.81518,-0.51497 0.43369,-0.0122 0.86753,-0.0172 1.30139,-0.0194 2.3161,-0.0116 2.33389,2.99377 0.0178,3.00532 l 0,0 c -0.4046,0.002 -0.80917,0.006 -1.21361,0.0179 -2.51218,0.074 -5.02115,0.23919 -7.51938,0.49388 -3.21768,0.36391 -6.4054,0.88193 -9.60447,1.35483 -2.27116,0.41678 -2.91353,-2.53023 -0.64238,-2.947 z"
       inkscape:connector-curvature="0" />
    <path
       style="fill:#000000;fill-opacity:1;fill-rule:nonzero;stroke:none"
       id="path5593"
       d="m 511.63046,283.23428 c 3.62139,0.5006 7.30605,-0.0868 10.91652,-0.4315 2.90291,-0.397 5.78151,-0.92526 8.68039,-1.34471 2.28793,-0.33063 2.79753,2.63814 0.5096,2.96876 l 0,0 c -2.95567,0.42656 -5.88935,0.97202 -8.85099,1.36518 -3.93837,0.37602 -7.95154,0.98992 -11.8979,0.38927 -2.27115,-0.41676 -1.62877,-3.36376 0.64238,-2.947 z"
       inkscape:connector-curvature="0" />
    <path
       style="fill:#000000;fill-opacity:1;fill-rule:nonzero;stroke:none"
       id="path5633"
       d="m 315.16531,278.13702 c 3.34732,1.11056 6.75316,2.02874 10.15526,2.96216 6.0376,1.72424 12.07735,3.43998 18.10042,5.21433 4.45292,1.2713 8.80169,2.88907 13.14044,4.50236 1.67134,0.70513 3.39445,1.27792 5.10543,1.87817 0.12189,0.0432 0.48693,0.16984 0.55745,0.19429 -1.35202,3.31592 -0.89997,1.79988 -0.0207,-0.009 0.0158,-0.0315 0.0666,0.024 0.0999,0.036 -1.09141,3.10357 -1.43253,1.4788 -1.92201,0.0689 -0.41986,-0.96563 -1.16265,-1.72799 -1.88193,-2.47653 -0.74496,-0.60673 -1.24949,-1.38251 -1.68357,-2.22599 -0.11952,-0.23471 -0.22742,-0.47482 -0.31681,-0.72245 -0.19231,-2.55992 1.96078,-0.88395 2.43976,-0.45844 0.62857,0.55871 1.25913,1.11517 1.88903,1.67237 0.75703,0.6086 1.28739,1.43472 1.71945,2.29311 0.37425,0.75216 0.18762,0.76237 -0.25661,1.74178 -0.17439,0.22587 -0.3986,0.47571 -0.59443,0.70366 -0.64331,0.82147 -1.54742,1.36931 -2.34904,2.02122 -1.10434,1.06779 -2.41914,1.7452 -3.85457,2.24029 -0.73445,0.23886 -0.37353,0.14396 -1.08071,0.29245 -1.45076,0.2822 -1.84985,-1.76951 -0.39907,-2.05171 l 0,0 c 0.45004,-0.0741 0.18007,-0.016 0.79949,-0.21708 1.20653,-0.41438 2.29839,-0.97173 3.21763,-1.8868 0.70741,-0.5732 1.50923,-1.04558 2.08076,-1.76031 0.29907,-0.34795 0.58267,-0.71466 0.92977,-1.0167 -0.34377,1.04626 -0.20065,1.23541 -0.36306,0.86721 -0.30775,-0.62305 -0.67603,-1.23043 -1.23333,-1.66057 -0.63175,-0.55806 -1.26371,-1.11589 -1.89342,-1.67626 -0.97258,-0.86362 -0.76254,-0.48409 0.93454,-1.75527 0.022,0.0532 0.13631,0.3263 0.1905,0.41974 0.34605,0.67767 0.71564,1.25559 1.33187,1.73264 0.93042,0.97086 1.85575,1.97844 2.35272,3.25096 0.47498,1.41904 0.002,-0.0498 0.2157,0.71717 0.0127,0.0456 0.0918,0.15366 0.049,0.13329 -0.12982,-0.062 -0.26264,-0.39404 -0.3363,-0.2705 -0.35989,0.60342 -0.0298,2.23264 -0.69426,1.99015 -0.0201,-0.007 -0.0999,-0.036 -0.0999,-0.036 0.57115,-2.34654 0.96842,-3.02641 0.10893,0.0381 -0.2101,-0.0707 -0.41916,-0.14457 -0.62842,-0.21776 -1.72319,-0.60454 -3.45845,-1.18218 -5.14207,-1.89141 -4.29312,-1.5969 -8.5963,-3.19835 -13.00251,-4.45646 -6.01057,-1.77067 -12.03781,-3.48277 -18.06281,-5.20363 -3.3963,-0.93184 -6.79734,-1.84752 -10.13837,-2.95759 -1.42852,-0.37911 -0.89237,-2.39933 0.53614,-2.02023 z"
       inkscape:connector-curvature="0" />
    <path
       inkscape:connector-curvature="0"
       d="m 462.88512,275.3496 c -3.27875,1.29913 -6.47876,2.78329 -9.6857,4.25336 -5.73475,2.55699 -11.4657,5.12188 -17.2215,7.63113 -4.22932,1.88615 -8.60139,3.43987 -12.96289,4.99059 -1.73386,0.53323 -3.42237,1.20115 -5.11923,1.84021 -0.12114,0.0452 -0.48229,0.18263 -0.55203,0.2092 -1.09391,-3.40979 -0.46648,-1.95753 0.0216,-0.006 0.008,0.0343 -0.0664,0.0244 -0.0997,0.0366 -1.15722,-3.07964 0.14792,-2.05356 1.42876,-1.28745 0.94207,0.47034 2.00107,0.57745 3.03316,0.68907 0.96068,-0.0136 1.84569,0.25689 2.72019,0.62448 0.24237,0.1031 0.47931,0.2178 0.70689,0.35017 1.79182,1.83835 -0.93489,1.93701 -1.57531,1.91859 -0.84064,-0.0244 -1.68134,-0.0458 -2.52203,-0.0682 -0.97113,0.0199 -1.90827,-0.27255 -2.7908,-0.65287 -0.77,-0.33603 -0.63352,-0.46374 -0.92223,-1.49972 -0.0114,-0.28512 -10e-5,-0.62063 0.004,-0.92112 -0.0347,-1.04281 0.3063,-2.04345 0.50189,-3.05801 0.16042,-1.52774 0.73292,-2.8915 1.51497,-4.19303 0.40944,-0.65485 0.1938,-0.35027 0.64039,-0.91834 0.93056,-1.14822 2.55439,0.16782 1.62381,1.31604 l 0,0 c -0.2973,0.34589 -0.12771,0.12795 -0.47327,0.67995 -0.65848,1.09262 -1.13723,2.22115 -1.25391,3.51295 -0.17394,0.89372 -0.48499,1.77082 -0.46389,2.68571 -0.006,0.45879 0.0125,0.92201 -0.0594,1.37646 -0.40863,-1.02268 -0.63983,-1.0757 -0.27884,-0.89784 0.6361,0.2798 1.30851,0.50872 2.01193,0.48037 0.84265,0.0219 1.68532,0.0434 2.52789,0.0684 1.30014,0.0371 0.89537,-0.11884 0.41133,1.94555 -0.051,-0.0266 -0.31408,-0.16251 -0.41563,-0.19931 -0.70053,-0.29707 -1.35502,-0.50256 -2.13374,-0.47231 -1.33672,-0.14637 -2.69314,-0.32415 -3.89145,-0.98016 -1.27557,-0.78241 0.0306,0.0393 -0.62599,-0.41107 -0.039,-0.0268 -0.16904,-0.0588 -0.12321,-0.0707 0.13933,-0.0359 0.45441,0.13328 0.43151,-0.009 -0.11181,-0.69364 -1.41133,-1.73025 -0.74637,-1.97121 0.0199,-0.007 0.0998,-0.0366 0.0998,-0.0366 1.06965,2.16525 1.20192,2.94148 -0.10796,0.0408 0.20644,-0.0808 0.41411,-0.15846 0.6215,-0.23679 1.70897,-0.64363 3.40991,-1.31564 5.15582,-1.85361 4.316,-1.53397 8.64265,-3.0709 12.82769,-4.93716 5.74387,-2.50405 11.46288,-5.06368 17.18581,-7.61517 3.20148,-1.46756 6.3962,-2.95055 9.66981,-4.24601 1.33833,-0.62711 2.22518,1.26557 0.88687,1.89268 z"
       id="path5635"
       style="fill:#000000;fill-opacity:1;fill-rule:nonzero;stroke:none" />
    <path
       style="fill:#000000;fill-opacity:1;fill-rule:nonzero;stroke:none"
       id="path5639"
       d="m 453.96624,361.90384 c 0.96471,-0.72484 1.79008,-1.61069 2.71177,-2.3886 0.71476,-0.5654 1.31954,-1.23882 1.99626,-1.84847 0.88405,-0.67108 1.85184,-1.22817 2.72547,-1.91075 0.82838,-0.525 1.57788,-1.16925 2.42171,-1.66749 0.8738,-0.30673 1.73873,-0.64549 2.63345,-0.89225 0.65311,-0.18164 1.32487,-0.26139 1.99941,-0.30359 1.47515,-0.091 1.6038,1.99522 0.12864,2.08619 l 0,0 c -0.53349,0.0323 -1.06478,0.0897 -1.58128,0.23477 -0.72978,0.19307 -1.4186,0.50399 -2.14899,0.69293 -0.77962,0.40433 -1.41196,1.07748 -2.18068,1.50778 -0.84062,0.63648 -1.73088,1.20569 -2.5988,1.80538 -0.69312,0.6243 -1.3151,1.31568 -2.04858,1.89406 -0.95311,0.80115 -1.80068,1.72174 -2.80429,2.46216 -1.18237,0.88678 -2.43646,-0.78534 -1.25409,-1.67212 z"
       inkscape:connector-curvature="0" />
    <path
       style="fill:none;stroke:#000000;stroke-width:3.12519693;stroke-linecap:butt;stroke-linejoin:miter;stroke-miterlimit:4;stroke-opacity:1;stroke-dasharray:3.12519685, 6.2503937;stroke-dashoffset:0"
       d="m 610.32469,334.42449 167.21224,0"
       id="path5641"
       inkscape:connector-curvature="0" />
    <path
       style="fill:#000000;fill-opacity:1;fill-rule:nonzero;stroke:none"
       id="path5643"
       d="m 647.13857,313.93847 c 2.01233,1.48385 3.62315,3.35938 4.75186,5.57985 0.75028,1.18719 1.3573,2.45998 1.92806,3.74138 0.36757,0.688 0.41162,1.46034 0.41858,2.22433 -0.002,0.87788 -0.009,1.75576 -0.0146,2.63363 -0.003,0.37709 -0.004,0.75418 -0.005,1.13128 -0.32013,1.13164 -0.9805,1.99937 -1.18419,3.14714 -0.0259,0.17048 -0.0518,0.34096 -0.0778,0.51143 -0.45799,2.92023 -4.58781,2.27254 -4.12982,-0.64769 l 0,0 c 0.0379,-0.23651 0.0758,-0.47301 0.11373,-0.70952 0.0972,-0.43993 1.60495,-4.9369 1.09774,-2.30429 2.7e-4,-0.38486 10e-4,-0.7697 0.005,-1.15455 0.005,-0.85926 0.0123,-1.71853 0.0146,-2.57781 -0.005,-1.05288 0.21896,0.35447 -0.0578,-0.55485 -0.5501,-1.23838 -1.14853,-2.45849 -1.86655,-3.60937 -0.83165,-1.8555 -2.3884,-3.20663 -3.94986,-4.45504 -2.09016,-2.09015 0.86577,-5.04608 2.95592,-2.95592 z"
       inkscape:connector-curvature="0" />
    <path
       style="fill:#000000;fill-opacity:1;fill-rule:nonzero;stroke:none"
       id="path5649"
       d="m 674.24223,309.29926 c 1.26889,-1.92325 2.81648,-3.65078 4.70046,-5.11085 1.59861,-1.17939 3.4294,-1.71056 5.46662,-1.60975 2.56436,0.6251 4.01704,2.28663 5.053,4.38057 0.97199,2.69986 1.62976,5.46617 2.01349,8.27943 0.23575,2.37745 0.50957,4.78037 0.20862,7.15931 -0.23253,1.87318 -1.114,3.46828 -2.34493,4.96014 -0.79018,0.86371 -1.50009,1.95308 -3.00184,1.86831 -0.53056,-0.03 -0.94146,-0.44377 -1.41219,-0.66565 -1.40511,-1.45083 -1.3704,-3.43834 -1.46455,-5.2562 -0.33544,-3.57709 0.27735,-6.98693 1.58531,-10.35362 1.84694,-3.82279 4.57754,-7.187 7.85749,-10.10741 1.19528,-0.99005 2.37325,-2.01395 3.90143,-2.54583 0.64873,-0.13755 1.31709,-0.10939 1.9773,-0.091 2.55368,0.0734 2.4381,3.31758 -0.11558,3.24418 l 0,0 c -0.28883,-0.009 -0.58998,-6e-5 -0.87264,-0.0313 0.0617,-0.0396 0.15007,-0.0584 0.18503,-0.11883 0.0895,-0.15473 -0.32665,0.18892 -0.48257,0.29276 -0.72067,0.47995 -1.39781,1.01029 -2.05384,1.55934 -2.90257,2.56501 -5.31305,5.52909 -6.98919,8.87806 -1.17985,2.96616 -1.68612,5.96568 -1.38322,9.12521 0.0507,1.01237 0.0934,2.02705 0.31017,3.02318 -0.28168,-0.0646 -0.55901,-0.24056 -0.84504,-0.19383 -0.41833,0.0683 -0.74588,0.36992 -1.13792,0.51778 -0.0336,0.0127 1.11767,-1.10934 1.04687,-1.08742 0.87452,-1.04129 1.50711,-2.10214 1.65585,-3.43001 0.35396,-2.09441 -0.0865,-4.25797 -0.21161,-6.35664 -0.33581,-2.5202 -0.93409,-4.99014 -1.76054,-7.41884 -0.42966,-1.04471 -1.06556,-1.86597 -2.1602,-2.41015 -0.60188,-0.45248 -2.21863,0.59195 -2.69268,0.86707 -1.54719,1.13907 -2.73005,2.57825 -3.80127,4.08358 -1.14263,2.05285 -4.37446,0.60127 -3.23183,-1.45158 z"
       inkscape:connector-curvature="0" />
    <path
       inkscape:connector-curvature="0"
       id="path5653"
       d="m 630.42616,193.46494 46.79285,85.58371 97.80996,-53.47755"
       style="fill:none;stroke:#000000;stroke-width:3.12519693;stroke-linecap:butt;stroke-linejoin:miter;stroke-miterlimit:4;stroke-opacity:1;stroke-dasharray:none" />
    <path
       style="fill:#000000;fill-opacity:1;fill-rule:nonzero;stroke:none"
       id="path5655"
       d="m 630.78357,193.09842 c 0.87004,3.41643 1.24359,6.91779 1.63189,10.41214 0.07,1.87095 0.0419,3.7483 -0.17896,5.60671 -0.38157,2.9312 -4.52691,2.39154 -4.14531,-0.53963 l 0,0 c 0.22642,-1.51919 0.15792,-3.07269 0.16952,-4.60563 -0.35844,-3.22884 -0.69582,-6.46264 -1.46708,-9.62645 -0.88184,-2.82132 3.10809,-4.06845 3.98994,-1.24714 z"
       inkscape:connector-curvature="0" />
    <path
       style="fill:#000000;fill-opacity:1;fill-rule:nonzero;stroke:none"
       id="path5657"
       d="m 630.82763,192.57599 c 3.03386,1.37442 5.99891,2.88849 9.07111,4.1829 1.19206,0.60009 2.47915,0.8572 3.78884,1.01984 2.93113,0.38189 2.39109,4.52714 -0.54009,4.14526 l 0,0 c -1.67691,-0.22587 -3.3372,-0.57144 -4.87365,-1.31353 -3.10669,-1.31222 -6.10974,-2.83606 -9.17726,-4.22941 -2.69057,-1.22404 -0.95953,-5.02911 1.73105,-3.80506 z"
       inkscape:connector-curvature="0" />
    <path
       inkscape:connector-curvature="0"
       d="m 776.51998,225.47765 c -3.37245,1.0274 -6.85275,1.56279 -10.32535,2.11259 -1.8657,0.15667 -3.74236,0.21506 -5.60898,0.081 -2.94575,-0.24536 -2.59874,-4.41124 0.34698,-4.16588 l 0,0 c 1.52803,0.15579 3.0767,0.0149 4.60854,-0.0441 3.20875,-0.50766 6.42345,-0.99452 9.54812,-1.91154 2.77742,-1.01164 4.2081,2.91623 1.43069,3.92787 z"
       id="path5659"
       style="fill:#000000;fill-opacity:1;fill-rule:nonzero;stroke:none" />
    <path
       inkscape:connector-curvature="0"
       d="m 777.04387,225.49744 c -1.23237,3.0943 -2.60741,6.12631 -3.75809,9.25519 -0.54422,1.21859 -0.74141,2.51619 -0.84318,3.83202 -0.24566,2.94569 -4.4115,2.59831 -4.16584,-0.34742 l 0,0 c 0.14794,-1.68558 0.41621,-3.36011 1.08629,-4.92928 1.16687,-3.16417 2.54992,-6.23458 3.79965,-9.36339 1.09806,-2.7444 4.97922,-1.19152 3.88117,1.55288 z"
       id="path5661"
       style="fill:#000000;fill-opacity:1;fill-rule:nonzero;stroke:none" />
    <path
       inkscape:connector-curvature="0"
       d="m 671.26723,263.28892 c 1.8881,-0.88666 3.7198,-1.94383 5.52861,-3.02543 1.85256,-1.27555 3.72176,-2.51298 5.65876,-3.61503 0.55122,-0.29697 1.09608,-0.61491 1.66559,-0.86535 1.58874,-0.59222 2.30573,1.31382 2.82448,2.53589 0.80157,1.93679 1.74602,3.7831 2.71293,5.6181 0.78144,1.3621 1.41678,2.82663 1.95469,4.33216 0.0862,0.24169 0.16124,0.48786 0.22091,0.73963 0.5,2.25677 -2.30047,3.06262 -2.80046,0.80586 l 0,0 c -0.0297,-0.10342 -0.0625,-0.20573 -0.0967,-0.3073 -0.47906,-1.34977 -1.05174,-2.66 -1.75535,-3.87708 -1.01349,-1.92747 -2.00154,-3.86848 -2.84554,-5.90028 -0.55445,-1.37192 -0.78943,-0.91749 0.81177,-0.87027 -0.47848,0.21611 -0.93802,0.48355 -1.40287,0.73412 -1.92068,1.09131 -3.76723,2.32948 -5.608,3.58545 -2.01059,1.19836 -4.0411,2.40051 -6.1683,3.30296 -1.9814,0.56452 -2.68193,-2.6289 -0.70053,-3.19343 z"
       id="path5665"
       style="fill:#000000;fill-opacity:1;fill-rule:nonzero;stroke:none" />
    <path
       style="fill:#000000;fill-opacity:1;fill-rule:nonzero;stroke:none"
       id="path5667"
       d="m 731.19288,211.07663 c -0.65091,2.8296 -1.65723,5.57878 -2.33483,8.4047 -0.48205,1.75474 -0.84691,3.52182 -0.96579,5.31818 -0.0772,0.23543 0.0934,0.90512 -0.0699,0.26528 0.71542,1.98028 -2.21448,3.10869 -2.9299,1.12837 l 0,0 c -0.12685,-0.46931 -0.1329,-0.94821 -0.0931,-1.44045 0.13553,-1.96374 0.51385,-3.90087 1.04286,-5.81953 0.65885,-2.71887 1.57764,-5.37481 2.27558,-8.08415 0.27535,-2.12889 3.35046,-1.90134 3.07509,0.22757 z"
       inkscape:connector-curvature="0"
       inkscape:transform-center-x="-16.153717"
       inkscape:transform-center-y="14.61853" />
    <path
       style="fill:#000000;fill-opacity:1;fill-rule:nonzero;stroke:none"
       id="path5669"
       d="m 722.08836,216.49709 c 2.67758,0.32217 5.34995,0.58712 7.95555,1.22801 2.07124,0.57617 4.08855,1.25936 6.0054,2.18892 0.45303,0.22434 0.89976,0.45886 1.27137,0.79537 0.39938,0.7227 0.29445,0.42869 0.42316,0.83355 0.63844,2.00839 -2.32681,3.03263 -2.96523,1.02424 l 0,0 c -0.10192,-0.32064 -0.0788,-0.19704 0.24727,0.28221 0.43734,0.38159 -0.35701,-0.25309 -0.47113,-0.22005 -1.72943,-0.84353 -3.55205,-1.45118 -5.42087,-1.97687 -2.43044,-0.61721 -4.93707,-0.8219 -7.43495,-1.14464 -2.17442,-0.16092 -1.78499,-3.17166 0.38943,-3.01074 z"
       inkscape:connector-curvature="0"
       inkscape:transform-center-x="-17.201325"
       inkscape:transform-center-y="16.396416" />
    <path
       style="fill:#000000;fill-opacity:1;fill-rule:nonzero;stroke:none"
       id="path5685"
       d="m 654.93352,184.56784 c 1.18327,1.86577 2.00971,3.91725 2.81611,5.96151 -0.09,-0.0582 1.09373,2.79424 1.0628,2.10309 0.72573,-0.28808 0.99718,-1.21162 1.32509,-1.8772 0.5931,-1.82427 0.85006,-3.75699 0.81287,-5.63501 -0.0402,-1.07556 -0.22849,-2.13453 -0.49802,-3.16672 -0.2508,-0.45491 0.42851,0.63671 0.97872,0.75625 0.0952,-0.021 0.19385,-0.094 0.2767,-0.15046 0.20222,-0.46214 0.35838,-0.94273 0.60665,-1.3864 0.0343,-0.0615 0.0412,0.12774 0.062,0.19154 0.14866,0.45746 0.13574,0.41722 0.30345,0.92771 0.58933,1.79267 -0.14013,-0.42763 0.57186,1.73919 1.22035,3.62319 2.88126,7.08179 4.51734,10.53252 1.34258,3.19251 3.2962,6.22566 3.71324,9.72472 -0.26163,3.96946 -3.65066,4.62943 -7.13498,4.7136 -3.1709,-0.0752 -5.61654,-1.31527 -7.48583,-3.58029 -0.74195,-0.90454 -1.01426,-1.99257 -1.26335,-3.10215 -0.41849,-1.95681 2.54954,-2.67392 2.96804,-0.71712 l 0,0 c 0.14404,0.7261 0.256,1.4162 0.7436,2.01036 1.25765,1.62937 2.94367,2.45629 5.16413,2.53078 1.30083,-1.6e-4 3.69627,0.19658 3.99545,-1.42375 -0.23344,-3.19743 -2.4272,-5.92609 -3.47457,-8.86675 -1.6827,-3.54913 -3.38556,-7.10827 -4.63844,-10.83574 -0.12501,-0.38047 -1.07896,-2.63175 -0.9876,-3.03337 0.12564,-0.55381 0.36374,-1.08517 0.54561,-1.62775 0.24756,-0.17036 0.51497,-0.30186 0.80676,-0.38315 1.11582,-0.29188 2.37076,-0.095 2.67363,1.15306 0.31913,1.23662 0.5409,2.50413 0.58217,3.79258 0.024,2.31975 -0.28012,4.70978 -1.11929,6.94247 -1.02362,1.99988 -2.38133,3.82569 -4.94521,3.54409 -1.88411,-0.57264 -2.4628,-2.06075 -3.00631,-3.74751 -0.74004,-1.87847 -1.49135,-3.7672 -2.5698,-5.48634 -1.09828,-1.67332 1.49923,-3.2772 2.5975,-1.60389 z"
       inkscape:connector-curvature="0" />
    <path
       style="fill:#000000;fill-opacity:1;fill-rule:nonzero;stroke:none"
       id="path5697"
       d="m 726.67654,352.14578 c 0,8.61679 0,17.23357 0,25.85036 0,14.33193 0,28.66386 0,42.99579 0,6.70287 0,13.40574 0,20.1086 0,0.7417 0,1.48339 0,2.22509 -1.39343,-0.0993 -2.78687,-0.19867 -4.18031,-0.298 0,-0.0463 0,-0.0926 0,-0.13886 0,-2.95592 4.18031,-2.95592 4.18031,0 l 0,0 c 0,0.0463 0,0.0926 0,0.13886 -1.39343,0.0993 -2.78687,0.19867 -4.18031,0.298 0,-0.7417 0,-1.48339 0,-2.22509 0,-6.70286 0,-13.40573 0,-20.1086 0,-14.33193 0,-28.66386 0,-42.99579 0,-8.61679 0,-17.23357 0,-25.85036 0,-2.95592 4.18031,-2.95592 4.18031,0 z"
       inkscape:connector-curvature="0" />
    <path
       style="fill:#000000;fill-opacity:1;fill-rule:nonzero;stroke:none"
       id="path5713"
       d="m 722.38355,440.5936 c -1.339,-2.60863 -3.46067,-4.6423 -5.52479,-6.67381 -0.85692,-0.89578 -1.73332,-1.71208 -2.80221,-2.33675 -2.53152,-1.52606 -0.37333,-5.10617 2.15819,-3.58011 l 0,0 c 1.33187,0.81825 2.50776,1.79286 3.57716,2.93832 2.39067,2.3555 4.80099,4.74964 6.33063,7.78286 1.32193,2.64386 -2.41705,4.51335 -3.73898,1.86949 z"
       inkscape:connector-curvature="0" />
    <path
       style="fill:#000000;fill-opacity:1;fill-rule:nonzero;stroke:none"
       id="path5715"
       d="m 724.80775,438.40476 c 2.55289,-3.82699 4.84468,-7.82114 7.29879,-11.71235 1.57714,-2.50002 5.11271,-0.26961 3.53557,2.23041 l 0,0 c -2.51497,3.98554 -4.8522,8.08449 -7.49012,11.99013 -1.77355,2.36473 -5.1178,-0.14345 -3.34424,-2.50819 z"
       inkscape:connector-curvature="0" />
    <path
       style="fill:#000000;fill-opacity:1;fill-rule:nonzero;stroke:none"
       id="path5717"
       d="m 749.6488,199.27129 c 1.86109,2.08061 2.95113,4.70595 3.95579,7.27885 0.89611,1.63253 0.99534,4.11596 2.74563,5.1345 0.53537,-0.34284 0.8813,-1.21281 1.20663,-1.76832 0.60546,-1.31103 0.92717,-2.70095 1.53707,-4.01596 0.94097,-1.97204 3.74043,-0.81517 2.79947,1.15687 l 0,0 c -0.69007,1.3827 -0.88827,2.92659 -1.67555,4.27468 -1.29987,2.15273 -3.08368,4.05296 -5.72433,2.8587 -2.17024,-1.56512 -2.85829,-4.04814 -3.79381,-6.44555 -0.86222,-2.21381 -1.77055,-4.49296 -3.32751,-6.31536 -1.48744,-1.49291 0.78918,-3.65132 2.27661,-2.15841 z"
       inkscape:connector-curvature="0" />
    <path
       style="fill:#000000;fill-opacity:1;fill-rule:nonzero;stroke:none"
       id="path5719"
       d="m 744.91722,193.69046 c 0.40971,1.89549 0.46117,3.84854 0.57857,5.7897 0.0322,0.53713 0.0645,1.07425 0.0953,1.61153 -2.96568,1.07031 -2.68671,1.35106 -3.56745,-0.18619 -0.61872,-0.82449 -0.80042,-1.74749 -0.89241,-2.76281 0.22675,-1.05577 0.049,-2.08199 0.0818,-3.12937 0.03,-0.62971 0.0406,-1.25928 0.0371,-1.88796 3.7e-4,0.0947 0.0593,0.2591 -0.18052,-0.16956 -0.0134,-0.0217 -0.0256,-0.0441 -0.0371,-0.0669 0.40234,-2.14759 0.2085,-2.06004 1.36812,-2.71401 0.43459,-0.25334 0.60064,-0.17053 1.33093,-0.2909 1.22342,0.17544 2.28849,0.73664 3.31698,1.3438 1.41607,0.90022 2.64454,2.03272 3.95173,3.06582 1.65553,1.3159 -0.37579,3.69353 -2.03132,2.37763 l 0,0 c -1.20391,-0.96154 -2.34528,-2.00123 -3.64104,-2.85059 -0.63816,-0.39205 -1.28782,-0.75656 -2.02834,-0.92936 1.29181,-0.39538 0.77817,-0.27259 0.54223,-0.11757 -1.00714,0.56752 -0.88474,0.86813 -0.28015,-1.7526 0.0849,0.11959 0.16526,0.24213 0.2367,0.37039 0.27252,0.4812 0.55126,0.98788 0.55123,1.56579 0.004,0.70761 -0.009,1.41626 -0.0454,2.125 -0.25406,0.80449 0.36266,1.83494 -0.0839,2.66196 0.062,0.76939 -0.006,0.83222 0.5282,1.59028 0.90351,1.57746 0.93116,1.12354 -2.2526,2.07494 -0.0306,-0.53356 -0.0626,-1.06698 -0.0946,-1.6004 -0.10552,-1.74463 -0.14449,-3.49872 -0.48294,-5.2076 -0.55487,-2.0355 2.4438,-2.94644 2.99868,-0.91092 z"
       inkscape:connector-curvature="0" />
    <path
       style="fill:#000000;fill-opacity:1;fill-rule:nonzero;stroke:none"
       id="path5723"
       d="m 685.22216,178.82603 c 1.23122,1.65436 2.18999,3.47445 3.08658,5.31623 1.04327,2.22466 1.98235,4.49565 2.92398,6.76428 0.75084,1.65839 1.47635,3.24352 1.22649,5.1174 -0.77936,1.82338 -2.60606,2.74842 -4.47239,3.32746 -2.70121,0.50477 -4.56852,-0.74484 -6.05644,-2.62674 -0.19564,-0.39409 -0.39129,-0.78819 -0.58693,-1.1823 -0.84687,-1.80808 1.93246,-3.08644 2.77938,-1.27838 l 0,0 c 0.0988,0.2344 0.19768,0.46879 0.29652,0.70319 0.69161,0.95818 1.48018,1.79334 2.8543,1.64862 0.80626,-0.17747 1.48989,-0.72982 2.2141,-0.97333 0.48036,-0.5794 -0.92067,-2.92912 -1.08114,-3.56406 -0.92161,-2.22138 -1.84088,-4.44499 -2.8608,-6.62392 -0.81712,-1.68325 -1.68807,-3.34842 -2.80645,-4.86379 -1.22351,-1.59028 1.25954,-3.35506 2.48305,-1.76478 z"
       inkscape:connector-curvature="0" />
    <path
       style="fill:#000000;fill-opacity:1;fill-rule:nonzero;stroke:none"
       id="path5727"
       d="m 679.78387,171.63024 c 0.20862,1.85495 0.14619,3.75919 -0.10719,5.63193 -0.15663,1.11668 -0.30991,2.23361 -0.45845,3.35083 -0.16067,1.22232 0.0694,0.28927 -3.05657,0.55092 -0.0155,-1.07141 -0.14281,-2.12887 -0.16804,-3.20243 0.0462,-1.09615 -0.0408,-2.16419 0.1415,-3.25909 0.0455,-0.55273 0.0518,-1.10623 0.0208,-1.65572 -0.052,-0.0274 -0.15769,-0.36135 -0.21979,-0.51192 0.0525,-1.36633 0.40017,-1.81837 1.51897,-2.33615 0.14802,-0.0697 0.30346,-0.12083 0.4583,-0.17161 0.195,-0.0772 0.38774,-0.15974 0.57995,-0.24352 0.20465,-0.0898 -0.27626,0.11935 0.25026,-0.10863 1.85526,-0.23384 3.27147,0.89474 4.76881,1.69078 2.29706,1.08696 4.26094,2.65263 6.02149,4.38475 1.43737,1.41823 -0.80484,3.45531 -2.24221,2.03708 l 0,0 c -1.56682,-1.55104 -3.31873,-2.95158 -5.37577,-3.91159 -0.71211,-0.37911 -1.40768,-0.82499 -2.13874,-1.17266 -0.22264,-0.10588 -0.92824,-0.19853 -0.68534,-0.28564 0.23504,-0.0843 0.48939,-0.0902 0.73409,-0.1353 -0.062,0.0263 -0.12621,0.0518 -0.18741,0.0816 -0.28493,0.12401 -0.57062,0.24692 -0.86294,0.35267 -0.65288,0.21022 0.005,-0.003 -0.13067,0.0425 -0.55404,0.25317 0.96699,-0.8292 0.11267,-1.40805 0.18725,0.44614 0.35721,0.90281 0.42118,1.38741 0.04,0.75223 0.032,1.51057 -0.057,2.26661 -0.16903,0.92824 -0.0235,1.8389 -0.1015,2.77268 -0.007,0.3103 0.27966,2.56267 2.6e-4,2.29549 -2.99439,0.73261 -2.96365,1.57176 -2.80466,0.34272 0.14969,-1.12583 0.30414,-2.25135 0.462,-3.37662 0.2483,-1.62839 0.26354,-3.29629 0.10107,-4.91054 -0.25332,-1.99043 2.75187,-2.48925 3.0052,-0.49882 z"
       inkscape:connector-curvature="0" />
    <path
       style="fill:#000000;fill-opacity:1;fill-rule:nonzero;stroke:none"
       id="path5729"
       d="m 677.26433,186.92063 c 0.3833,2.10541 0.1534,4.29726 -0.10639,6.43883 -0.0784,0.86099 -0.29591,1.70712 -0.51441,2.5507 -0.51789,1.98594 -3.45439,1.45255 -2.93652,-0.53342 l 0,0 c 0.18986,-0.7223 0.3831,-1.44583 0.44452,-2.18436 0.23528,-1.91978 0.462,-3.88685 0.10761,-5.77294 -0.25332,-1.99043 2.75187,-2.48923 3.00519,-0.49881 z"
       inkscape:connector-curvature="0" />
    <path
       style="fill:#000000;fill-opacity:1;fill-rule:nonzero;stroke:none"
       id="path5731"
       d="m 745.19864,213.83365 c 0.23304,2.53117 0.46362,5.06163 0.56458,7.60815 -0.10836,1.51909 -0.022,0.8026 -0.2375,2.15079 -0.3511,2.122 -3.41072,1.78948 -3.05962,-0.33252 l 0,0 c 0.16999,-0.98214 0.0995,-0.46559 0.19975,-1.55053 -0.0958,-2.44452 -0.3202,-4.87287 -0.53644,-7.3034 -0.30635,-2.09626 2.76287,-2.66874 3.06923,-0.57249 z"
       inkscape:connector-curvature="0" />
    <path
       style="fill:#000000;fill-opacity:1;fill-rule:nonzero;stroke:none"
       id="path5733"
       d="m 743.58208,389.5181 c -1.59177,1.07279 -3.47456,2.05727 -4.33982,3.87162 -0.61129,1.74839 -0.83676,3.68489 -0.24318,5.46467 -0.19526,0.16426 1.55163,2.2204 1.18255,1.35126 1.12461,-0.94005 1.54097,-2.29436 1.96814,-3.66986 0.36424,-1.32655 0.46984,-2.69516 0.5047,-4.0651 0.006,-0.43602 0.01,-0.87249 -0.011,-1.30818 2.69945,-0.52895 2.6223,-1.71256 3.26157,-0.044 0.42072,1.09815 0.23207,0.57417 0.65061,1.96672 1.30265,4.16905 2.32864,8.41355 3.18255,12.69966 0.71853,3.58078 1.05354,7.46018 -1.63967,10.32077 -0.47245,0.50182 -1.061,0.87516 -1.59149,1.31275 -3.19937,1.925 -6.70764,2.44325 -10.25755,1.3957 -2.25603,-0.98648 -3.1886,-2.87155 -3.72244,-5.17476 -0.47769,-2.17544 2.54433,-2.86319 3.02203,-0.68774 l 0,0 c 0.23563,1.17254 0.50656,2.2439 1.61845,2.85174 2.51533,0.88229 5.12298,0.35539 7.44626,-0.87959 3.30669,-2.40858 2.75295,-4.7124 2.08945,-8.5129 -0.83293,-4.19019 -1.83714,-8.33888 -3.11185,-12.41379 -0.75657,-2.58907 -1.39184,-1.84385 2.12927,-3.17493 0.004,-0.002 0.0141,0.15823 0.0145,0.16207 0.0233,0.5231 0.0251,1.04685 0.0148,1.57041 -0.0447,1.66773 -0.19204,3.33257 -0.65117,4.9427 -0.78168,2.45858 -1.79897,4.8697 -4.36468,5.81018 -2.8342,0.22847 -3.58069,-1.19563 -4.70367,-3.55613 -0.71141,-2.64226 -0.57582,-5.36047 0.50631,-7.89533 1.24589,-2.1342 3.07385,-3.63314 5.18733,-4.85998 1.75172,-1.33748 3.60968,1.1845 1.85797,2.52199 z"
       inkscape:connector-curvature="0" />
    <path
       style="fill:#000000;fill-opacity:1;fill-rule:nonzero;stroke:none"
       id="path5735"
       d="m 760.17837,397.96594 c -0.15983,2.44376 -0.79621,4.76558 -1.95895,6.90382 -0.14117,0.22273 -0.28234,0.44546 -0.42351,0.66819 -1.19504,1.86787 -3.7898,0.14733 -2.59476,-1.72053 l 0,0 c 0.10598,-0.16357 0.21197,-0.32714 0.31795,-0.49071 0.92917,-1.65384 1.39209,-3.46471 1.56265,-5.36077 0,-2.22914 3.09662,-2.22914 3.09662,0 z"
       inkscape:connector-curvature="0" />
    <path
       style="fill:#000000;fill-opacity:1;fill-rule:nonzero;stroke:none"
       id="path5825"
       d="m 759.74771,384.91953 c 1.05727,-1.96146 2.10174,-3.94166 3.48729,-5.68498 0.8747,-1.32006 1.89274,-2.36277 3.33092,-3.00819 1.75753,-0.72247 3.05495,0.41005 3.88325,1.88868 0.8587,1.8102 1.35059,3.71481 1.7013,5.686 0.68879,2.98874 1.30242,5.98825 2.22854,8.91304 1.03472,3.2026 2.12405,6.39997 3.39711,9.51427 0.82532,1.9962 1.66397,3.99562 2.19415,6.09773 0.14167,0.56731 0.20647,1.14887 0.27219,1.72886 0.24747,2.21486 -2.8293,2.57116 -3.07678,0.3563 l 0,0 c -0.0484,-0.44051 -0.0913,-0.883 -0.19797,-1.3141 -0.47325,-1.95785 -1.30779,-3.79969 -2.05174,-5.66055 -1.29993,-3.19774 -2.42786,-6.47303 -3.48582,-9.76032 -0.95856,-3.06049 -1.6214,-6.19129 -2.32779,-9.31937 -0.28438,-1.63724 -0.6688,-3.21664 -1.36774,-4.72491 -0.36241,-0.7313 0.59128,-0.60909 0.0392,-0.50286 -0.99173,0.39168 -1.52939,1.25967 -2.15055,2.1121 -1.35309,1.62062 -2.22935,3.59128 -3.28865,5.41108 -1.20356,1.86221 -3.79044,0.12943 -2.58689,-1.73278 z"
       inkscape:connector-curvature="0" />
    <path
       style="fill:#000000;fill-opacity:1;fill-rule:nonzero;stroke:none"
       id="path5827"
       d="m 772.77056,391.75731 c -0.64765,2.72345 -1.6642,5.34765 -2.59596,7.98245 -0.81348,2.51851 -1.428,5.10479 -2.01933,7.68703 -0.13086,0.63349 -0.21482,1.27479 -0.291,1.91685 -0.2651,2.21275 -3.33894,1.83109 -3.07385,-0.38166 l 0,0 c 0.0911,-0.75422 0.1912,-1.50759 0.34914,-2.25111 0.61892,-2.70145 1.26497,-5.40654 2.12178,-8.03978 0.86036,-2.4285 1.77495,-4.85013 2.44114,-7.34072 0.29654,-2.20861 3.36463,-1.78166 3.06808,0.42694 z"
       inkscape:connector-curvature="0" />
    <path
       style="fill:#000000;fill-opacity:1;fill-rule:nonzero;stroke:none"
       id="path5839"
       d="m 761.94963,370.0419 c 1.00137,-1.9909 2.20728,-3.8761 3.11625,-5.91321 0.49785,-1.312 1.10153,-2.57995 1.74144,-3.82553 0.7686,-1.46134 0.31352,-0.66561 3.18732,0.50892 0.0556,0.89461 0.0593,1.78994 0.27691,2.6609 0.32113,1.50425 0.92781,2.88174 1.47789,4.30399 0.46603,1.01558 0.99817,1.99902 1.57433,2.95389 0.0384,0.0578 0.071,0.11948 0.10638,0.17922 1.41743,1.69907 -0.94285,3.73977 -2.36027,2.04069 l 0,0 c -0.14233,-0.18064 -0.26747,-0.37354 -0.38562,-0.57144 -0.67039,-1.11375 -1.29114,-2.26046 -1.81799,-3.45222 -0.6021,-1.57335 -1.2614,-3.11038 -1.61763,-4.77038 -0.23126,-1.15095 -0.33888,-2.31339 -0.34735,-3.48951 3.07184,0.79312 3.29055,-0.11409 2.6496,1.09778 -0.61618,1.1976 -1.19291,2.41854 -1.67148,3.68048 -0.99096,2.17346 -2.24012,4.21317 -3.34289,6.3292 -1.20356,1.86222 -3.79043,0.12943 -2.58689,-1.73278 z"
       inkscape:connector-curvature="0" />
    <path
       style="fill:#000000;fill-opacity:1;fill-rule:nonzero;stroke:none"
       id="path5843"
       d="m 420.50749,141.3019 c 0,4.39232 0,8.78465 0,13.17697 0,3.01149 0,6.02298 0,9.03448 0,0.0697 0.0827,0.21027 0,0.20919 -1.19771,-0.0156 -2.4254,0.0109 -3.58073,-0.25589 -0.17342,-0.04 -0.68752,-5.35803 -0.71412,-5.66135 -0.12061,-4.19881 -0.68023,-8.36773 -1.17377,-12.54295 -0.18966,-1.75435 -0.36382,-3.51028 -0.48676,-5.26895 -0.61284,-1.50116 3.95192,-0.20981 3.2481,-1.39301 3.06864,1.81114 5.1254,4.58995 7.18023,7.16555 3.75678,4.47295 7.26249,9.08697 10.8233,13.6706 1.06706,1.21392 1.17068,1.37564 2.23983,2.44712 0.24743,0.24795 0.49061,0.50014 0.76257,0.72909 0.10774,0.0907 0.51845,0.25594 0.37071,0.22494 -1.77258,-0.37192 -0.40856,-0.61297 -2.09778,-0.0267 0.024,-3.57648 -0.86679,-7.12893 -1.37652,-10.67632 -0.79353,-3.99089 -1.3999,-8.00207 -1.8168,-12.03271 -0.0995,-1.15751 -0.2271,-2.31494 -0.26503,-3.4756 4.20975,-0.004 3.58187,-0.25343 3.58981,2.06585 0.008,2.13502 -3.5734,2.14373 -3.58072,0.009 l 0,0 c -0.008,-2.31838 -0.63363,-2.04559 3.57037,-2.1549 0.0331,1.1 0.16291,2.19671 0.25278,3.2938 0.41272,3.99715 1.02038,7.97393 1.80436,11.93193 0.57789,4.02802 1.85467,8.16078 1.12436,12.20598 -0.51559,0.47882 -0.83826,1.18881 -1.5468,1.43646 -2.56695,0.89721 -4.84644,-3.28642 -6.02642,-4.32312 -3.55305,-4.57367 -7.05099,-9.17769 -10.79984,-13.64077 -1.78534,-2.24186 -3.54725,-4.71324 -6.17757,-6.32809 -0.25834,-0.17581 -1.03014,-0.3483 -0.77502,-0.52742 3.01955,-2.12003 3.0132,-1.84558 3.07062,-0.77883 0.11979,1.71796 0.29068,3.43318 0.47531,5.14695 0.49647,4.20093 1.05876,8.39595 1.18172,12.6205 0.14139,1.62419 0.30828,3.2307 0.562,4.84469 0.0544,0.34614 0.53955,0.89554 0.16181,1.03856 -3.66313,1.38691 -3.58073,1.18829 -3.58073,0.0467 0,-3.01149 0,-6.02299 0,-9.03448 0,-4.39232 0,-8.78465 0,-13.17697 0,-2.13503 3.58073,-2.13503 3.58073,0 z"
       inkscape:connector-curvature="0" />
    <path
       style="fill:#000000;fill-opacity:1;fill-rule:nonzero;stroke:none"
       id="path5863"
       d="m 460.70399,149.69184 c -0.48782,0.55705 -2.35292,1.85116 -1.72322,2.67642 1.08566,1.05895 2.22242,2.0859 3.22082,3.2187 1.38775,1.80978 1.99481,2.92761 1.05773,5.06951 -1.6915,1.53516 -3.92911,1.67316 -6.19087,1.80863 -1.52346,0.19028 -2.76164,-0.30686 -3.45401,-1.55726 0.27753,-1.91828 -0.2145,-1.27226 0.9155,-2.20227 2.0784,-1.2321 4.00752,1.42279 1.92912,2.6549 l 0,0 c 0.65964,-0.70233 0.32565,-0.19815 0.37427,-1.72991 -0.61576,-0.55252 -1.65554,-0.21792 0.006,-0.33431 0.75756,-0.0441 1.51745,-0.0875 2.26778,-0.19742 0.36886,-0.0541 0.73076,-0.34302 1.08801,-0.24405 0.09,0.0249 -0.004,0.17001 -0.006,0.25502 0.16402,0.80581 -0.19306,-1.39919 -0.75407,-1.56365 -1.3487,-1.58909 -3.31349,-2.79849 -3.94516,-4.8035 -0.11807,-2.41 0.89014,-3.66117 2.72847,-5.29632 1.75791,-1.58782 4.24396,0.65769 2.48606,2.24551 z"
       inkscape:connector-curvature="0" />
    <path
       style="fill:#000000;fill-opacity:1;fill-rule:nonzero;stroke:none"
       id="path5865"
       d="m 466.09067,151.97933 c 1.51831,-1.57049 3.37621,-2.7085 5.47581,-3.54205 3.73655,-0.89397 5.12947,1.33248 5.94391,4.20508 0.66311,3.08274 0.70201,5.51413 -1.59743,8.01187 -1.63817,1.09749 -4.16608,2.2679 -6.24148,1.32409 -0.50864,-0.23132 -0.90406,-0.62572 -1.3561,-0.93857 -1.48324,-1.58719 -1.80393,-3.60448 -1.97698,-5.6028 -0.0391,-0.66569 -0.0742,-1.33419 -0.0298,-2.00045 0.34556,-1.8525 3.54141,-0.98533 3.54319,0.83492 -0.006,0.23601 -0.007,0.47182 -0.008,0.70791 0.20423,2.02705 0.72734,4.04668 1.15028,6.05156 0.47474,3.46257 1.49585,6.81949 2.4404,10.19169 -0.12523,0.46318 1.22038,3.40568 0.97788,3.77048 -0.0612,0.0921 -0.0719,-0.2048 -0.10781,-0.30721 -3.58016,0.0172 -3.30195,1.00471 -3.27109,-0.78421 0.0406,-2.24521 3.55596,-2.19334 3.51535,0.0519 l 0,0 c -0.0374,1.98562 0.28394,0.77005 -3.36449,2.19579 -0.57293,-1.32763 -0.67747,-2.79219 -1.15836,-4.14813 -0.96086,-3.43322 -1.99841,-6.85188 -2.48561,-10.37613 -0.46429,-2.20281 -1.04137,-4.41652 -1.21236,-6.65342 6.3e-4,-0.23309 0.002,-0.4661 0.008,-0.69913 6.2e-4,-1.58846 1.91573,0.21878 3.48115,-0.63134 -0.0297,0.51754 -0.003,1.03638 0.0268,1.55346 0.0998,1.20965 0.20006,2.4917 0.90654,3.55453 -0.22661,0.82367 2.23571,0.0747 2.55708,-0.22722 1.62333,-1.29113 1.05731,-3.42706 0.78432,-5.13752 -0.15132,-0.63303 -0.16047,-2.10999 -1.13933,-2.0287 -1.71419,0.6402 -3.1526,1.60563 -4.37584,2.86914 -1.75791,1.58782 -4.24397,-0.65769 -2.48606,-2.24551 z"
       inkscape:connector-curvature="0" />
    <path
       style="fill:#000000;fill-opacity:1;fill-rule:nonzero;stroke:none"
       id="path5867"
       d="m 486.05749,152.25644 c -0.29954,1.30551 -0.80776,2.91645 0.12621,4.10379 0.793,0.51306 1.81804,0.76837 2.58801,0.11545 0.85783,-1.08168 0.63046,-2.0926 0.0791,-3.22885 -0.60598,-1.26338 -1.38583,-2.68035 -2.87802,-3.23221 -0.5594,-0.20744 -0.33166,-0.0141 -0.56192,0.3696 -0.13537,0.29188 -0.27761,0.58568 -0.30529,0.90335 -0.40863,2.21497 -3.87663,1.69299 -3.46801,-0.52198 l 0,0 c 0.15792,-0.74468 0.39131,-1.45531 0.82669,-2.11374 1.25472,-1.52516 3.02171,-2.33945 5.08605,-1.47526 2.20906,1.07619 3.67605,2.79376 4.5742,4.91215 1.13831,2.80696 1.01165,5.06435 -1.59498,7.13718 -2.88879,1.30795 -5.36416,0.92034 -7.44929,-1.37342 -1.09312,-2.06637 -1.11589,-4.16738 -0.43359,-6.36626 0.60296,-2.17847 4.01381,-1.40826 3.41085,0.7702 z"
       inkscape:connector-curvature="0" />
    <path
       style="fill:#000000;fill-opacity:1;fill-rule:nonzero;stroke:none"
       id="path5869"
       d="m 500.31344,142.59767 c 0,3.49013 0,6.98026 0,10.47039 0,2.0935 0,4.187 0,6.2805 -0.18731,-1.74378 -1.36901,-1.1841 -2.55539,-0.70016 -0.10675,0.0435 0.0225,-0.21067 0.0379,-0.31555 0.51952,-2.19593 3.95772,-1.53231 3.43819,0.66363 l 0,0 c -0.73524,2.75811 -3.6167,3.40833 -4.43655,0.35208 0,-2.0935 0,-4.187 0,-6.2805 0,-3.49013 0,-6.98026 0,-10.47039 0,-2.24551 3.51581,-2.24551 3.51581,0 z"
       inkscape:connector-curvature="0" />
    <path
       style="fill:#000000;fill-opacity:1;fill-rule:nonzero;stroke:none"
       id="path5871"
       d="m 508.75354,147.57475 c -1.48781,1.08656 -3.01675,2.1266 -4.51782,3.19881 -0.7365,0.63163 -1.63395,0.96683 -2.62398,1.11029 -2.16149,0.40285 1.07207,-1.55275 1.03015,-0.96419 -0.34416,1.08156 -1.09538,1.63878 -2.21899,1.95128 -1.41092,0.31467 -0.57381,-0.0621 -0.2463,-3.08553 8.5e-4,-0.01 0.84748,-0.002 0.90593,-0.003 1.31303,-0.0554 2.14074,0.80016 2.58061,1.78518 -0.008,-0.0382 -0.0629,-0.13312 -0.0251,-0.11453 0.21477,0.10553 1.33369,1.75642 1.51269,1.98547 1.09762,1.05442 2.16802,2.12636 3.4015,3.05593 0.8486,0.63833 1.7008,1.27276 2.55565,1.90425 0.47715,0.35165 -0.11305,-0.0832 0.21246,0.15642 1.92837,1.41723 -0.29061,3.88048 -2.21896,2.46325 l 0,0 c -0.33367,-0.24565 0.26095,0.1925 -0.21935,-0.16149 -0.86629,-0.63997 -1.72992,-1.28289 -2.58984,-1.92984 -1.45798,-1.11026 -2.75252,-2.37076 -4.01519,-3.659 -0.66107,-0.84831 -1.31411,-1.68447 -1.90009,-2.5717 0.18639,0.0951 1.56167,0.34801 0.72232,0.26166 -1.97223,0.008 -1.07533,-0.24371 -1.66128,-3.13606 -0.13948,0.26634 -0.20943,0.55829 -0.30044,0.84122 0.0893,-0.91438 1.43504,-1.94846 1.95624,-1.92082 0.45727,-0.0576 0.4861,-0.0614 0.96115,-0.4602 1.39442,-0.99599 2.80021,-1.97847 4.21257,-2.95343 1.75791,-1.58782 4.24397,0.65769 2.48606,2.24551 z"
       inkscape:connector-curvature="0" />
    <path
       style="fill:#000000;fill-opacity:1;fill-rule:nonzero;stroke:none"
       id="path5873"
       d="m 516.62628,149.56342 c 1.02852,1.06271 2.42272,1.6342 3.88224,2.04923 0.3526,-0.12597 0.47581,-0.72098 0.58855,-1.12858 0.0837,-0.56762 0.57052,-2.01498 -0.33323,-2.29546 -0.008,0.0511 0.0276,0.13315 -0.0251,0.15338 -0.12284,0.0472 -0.26934,-0.0131 -0.40032,0.0101 -0.74982,0.13325 -1.38771,0.80885 -1.81396,1.31236 -1.37413,1.93641 -1.5256,4.10428 -0.77764,6.25402 0.91729,1.95381 3.00265,2.78155 5.22899,2.96299 1.06444,0.0275 2.12255,-0.0793 3.17829,-0.18284 2.47191,-0.2393 2.84657,2.91826 0.37467,3.15755 l 0,0 c -1.32042,0.12639 -2.6441,0.25365 -3.97492,0.17797 -3.65981,-0.46162 -6.8085,-1.96158 -8.18719,-5.24204 -0.9627,-3.24165 -0.7043,-6.43424 1.52517,-9.23246 2.04935,-1.95433 4.54386,-3.15605 7.36742,-1.60809 1.56888,1.63554 1.82387,3.41 1.1907,5.48804 -0.79413,2.08107 -2.37366,3.60385 -5.01475,3.19707 -1.98236,-0.58181 -3.87326,-1.40654 -5.29499,-2.82775 -1.75791,-1.58782 0.72815,-3.83334 2.48606,-2.24552 z"
       inkscape:connector-curvature="0" />
    <path
       style="fill:#000000;fill-opacity:1;fill-rule:nonzero;stroke:none"
       id="path5875"
       d="m 534.70083,143.5998 c 1.19987,0.27094 2.39975,0.54188 3.59962,0.81283 0.18618,0.042 0.37236,0.0841 0.55853,0.12612 -0.23697,1.04262 -0.31255,2.12616 -0.71091,3.12786 -0.0182,0.0459 -0.78691,-0.0396 -1.26503,-0.002 -0.81373,0.0637 -1.65348,0.29083 -2.45129,0.44253 -0.92706,0.28179 -2.02746,0.53673 -2.25989,1.49473 -0.0353,0.13498 -0.1478,0.2715 -0.10591,0.40492 0.0237,0.0754 0.0955,-0.18998 0.17957,-0.17034 0.13156,0.0307 0.17377,0.18928 0.27048,0.27551 0.64599,0.57593 1.30663,1.00496 2.09559,1.40687 1.74206,0.69544 3.48672,1.35482 5.13109,2.23426 2.25033,1.30754 1.74576,3.01835 -0.12389,4.40382 -1.9033,1.20321 -4.15408,1.64181 -6.40547,1.96561 -1.57612,0.0909 -2.99255,-0.24627 -4.21171,-1.13187 -1.86803,-1.48169 0.45186,-3.86787 2.3199,-2.38618 l 0,0 c 0.266,0.33908 0.93699,0.32203 1.34337,0.38129 1.72536,-0.24377 3.47672,-0.52025 4.9452,-1.43515 0.0354,0.15186 0.19741,0.72245 0.27747,0.90546 0.0476,0.10874 0.36437,0.29612 0.33125,0.18309 -0.0274,-0.0935 -0.18086,-0.10373 -0.27129,-0.15559 -1.64754,-0.88684 -3.42221,-1.48953 -5.14341,-2.2409 -2.23286,-1.25451 -4.87526,-3.08123 -3.91057,-5.78814 0.93322,-1.92954 2.5588,-2.94744 4.81486,-3.45509 0.45442,-0.0862 4.41317,-0.76626 4.44478,-0.50831 0.12717,1.03746 -0.0979,2.08573 -0.1469,3.12859 -0.18618,-0.042 -0.37235,-0.0841 -0.55853,-0.12612 -1.19987,-0.27094 -2.39974,-0.54189 -3.59962,-0.81283 -2.41184,-0.54462 -1.55912,-3.62544 0.85271,-3.08082 z"
       inkscape:connector-curvature="0" />
    <path
       style="fill:#000000;fill-opacity:1;fill-rule:nonzero;stroke:none"
       id="path5883"
       d="m 410.60053,159.43846 c -0.54819,2.10909 -1.27446,4.13927 -2.29938,6.06343 -1.77847,3.03069 -4.46538,5.23877 -7.24105,7.30665 -2.99783,2.12098 -6.31192,3.70349 -9.76181,4.92984 -0.37701,0.11917 -0.75401,0.23834 -1.13102,0.35751 -1.40947,0.44469 -2.03836,-1.54861 -0.62888,-1.9933 l 0,0 c 0.35385,-0.11141 0.70769,-0.22283 1.06154,-0.33424 3.25556,-1.1506 6.3806,-2.64419 9.21236,-4.63662 2.53208,-1.88201 5.00557,-3.8706 6.64851,-6.62073 0.96065,-1.76158 1.59587,-3.64408 2.11198,-5.57948 0.35846,-1.43383 2.38621,-0.9269 2.02775,0.50694 z"
       inkscape:connector-curvature="0" />
    <path
       style="fill:#000000;fill-opacity:1;fill-rule:nonzero;stroke:none"
       id="path5899"
       d="m 301.73779,181.31043 c -3.45498,1.14449 -6.67623,2.82023 -9.85167,4.57496 -6.96618,4.1529 -13.22835,9.39056 -19.32194,14.71208 -7.85122,6.8104 -14.75545,14.50102 -21.08304,22.7219 -3.78325,5.1637 -7.17732,10.64115 -9.95495,16.41453 -1.44539,3.00426 -1.87135,4.26332 -3.0591,7.31286 -1.83526,4.994 -2.6932,10.25984 -2.96122,15.55503 -0.0163,2.94517 -0.16327,5.88426 -0.33294,8.82334 -0.0442,0.89941 -0.0935,1.79895 -0.11186,2.69938 0.0221,-0.0896 0.0851,0.15786 0.11211,0.22047 -0.55405,-0.588 -1.3293,1.65613 -2.11426,0.65654 -1.1367,-1.72508 -1.84732,-3.69212 -2.60703,-5.60209 -1.03467,-2.65991 -2.02225,-5.33781 -3.00975,-8.01549 -0.58023,-1.44183 -1.11499,-2.86206 -1.24577,-4.41707 -0.021,-0.4213 -0.0368,-0.84735 0.0334,-1.265 0.0102,-0.0409 -0.0116,-0.12023 0.0305,-0.12261 2.78114,-0.15761 2.02504,-0.0902 2.41266,1.99398 0.55062,2.39521 1.39729,4.7104 2.21171,7.02531 0.90109,2.286 1.54184,4.68803 2.59905,6.90952 0.37265,0.66544 0.72415,1.3652 1.22773,1.94581 -0.69106,-0.68822 -1.81272,0.76853 -1.03883,-0.46998 1.95043,-3.68587 4.24607,-7.1732 6.49053,-10.6838 2.96307,-4.19488 1.43915,-2.11307 4.5738,-6.24394 0.89361,-1.17722 2.55844,0.0865 1.66484,1.26375 l 0,0 c -3.07339,4.04752 -1.58176,2.0115 -4.47764,6.10607 -2.25345,3.52464 -4.54933,7.02937 -6.51709,10.7243 -0.52162,0.74694 -1.44405,1.63891 -2.29028,0.65481 -0.6117,-0.73036 -1.08223,-1.56742 -1.52441,-2.40736 -1.06916,-2.29524 -1.77312,-4.74393 -2.67946,-7.10553 -0.85065,-2.4181 -1.73401,-4.83737 -2.29603,-7.34267 -0.0449,-0.24855 -0.0956,-0.49613 -0.1346,-0.74567 -0.35824,-2.28834 0.70936,1.90263 1.8018,-1.11676 -0.0113,0.10125 -0.0272,0.53762 -0.004,0.71106 0.10511,1.36529 0.63473,2.59102 1.12347,3.86257 0.98134,2.66125 1.96277,5.32273 2.991,7.96632 0.68644,1.72642 1.32936,3.49843 2.30961,5.08474 0.8372,1.06907 -1.12461,2.46232 -1.44449,1.4731 -0.15213,-0.35137 -0.26868,-0.71783 -0.28788,-1.10351 0.0193,-0.92624 0.0688,-1.85163 0.1149,-2.77683 0.16974,-2.93468 0.31458,-5.86934 0.33222,-8.81011 0.28804,-5.51805 1.17939,-11.00433 3.1012,-16.20686 1.22848,-3.14837 1.6533,-4.40721 3.14871,-7.51143 2.83503,-5.8851 6.29727,-11.46842 10.15664,-16.73194 1.08789,-1.41239 2.14653,-2.84779 3.26367,-4.23716 5.45539,-6.78491 11.62004,-12.9834 18.10084,-18.78409 6.20677,-5.41748 12.58546,-10.7484 19.68605,-14.9672 3.26857,-1.80439 6.58555,-3.52584 10.13974,-4.70665 1.38687,-0.51086 2.10932,1.45046 0.72246,1.96132 z"
       inkscape:connector-curvature="0"
       inkscape:transform-center-x="123.16"
       inkscape:transform-center-y="-76.089624" />
  </g>
</svg>
