<?xml version="1.0" encoding="UTF-8" standalone="no"?>
<!-- Created with Inkscape (http://www.inkscape.org/) -->

<svg
   xmlns:dc="http://purl.org/dc/elements/1.1/"
   xmlns:cc="http://creativecommons.org/ns#"
   xmlns:rdf="http://www.w3.org/1999/02/22-rdf-syntax-ns#"
   xmlns:svg="http://www.w3.org/2000/svg"
   xmlns="http://www.w3.org/2000/svg"
   xmlns:sodipodi="http://sodipodi.sourceforge.net/DTD/sodipodi-0.dtd"
   xmlns:inkscape="http://www.inkscape.org/namespaces/inkscape"
   width="624.33124"
   height="258.65189"
   id="svg4771"
   version="1.1"
   inkscape:version="0.48.0 r9654"
   sodipodi:docname="Sarcomere.pdf">
  <defs
     id="defs4773" />
  <sodipodi:namedview
     inkscape:document-units="mm"
     pagecolor="#ffffff"
     bordercolor="#666666"
     borderopacity="1.0"
     inkscape:pageopacity="0.0"
     inkscape:pageshadow="2"
     inkscape:zoom="0.7176508"
     inkscape:cx="437.32649"
     inkscape:cy="17.560125"
     inkscape:current-layer="layer1"
     id="namedview4775"
     showgrid="false"
     fit-margin-top="0"
     fit-margin-left="0"
     fit-margin-right="0"
     fit-margin-bottom="0"
     inkscape:window-width="1280"
     inkscape:window-height="752"
     inkscape:window-x="0"
     inkscape:window-y="0"
     inkscape:window-maximized="0" />
  <metadata
     id="metadata4777">
    <rdf:RDF>
      <cc:Work
         rdf:about="">
        <dc:format>image/svg+xml</dc:format>
        <dc:type
           rdf:resource="http://purl.org/dc/dcmitype/StillImage" />
        <dc:title></dc:title>
      </cc:Work>
    </rdf:RDF>
  </metadata>
  <g
     inkscape:label="Layer 1"
     inkscape:groupmode="layer"
     id="layer1"
     transform="translate(-88.854599,-130.95547)">
    <path
       style="fill:#000000;fill-opacity:1;fill-rule:nonzero;stroke:none"
       id="path5290"
       d="m 235.98003,140.58684 c -0.98571,8.07004 -0.91502,16.24058 -1.02961,24.35834 0.19784,20.00192 1.232,39.98144 1.81355,59.97423 0.82882,20.19482 1.29976,40.40172 2.33596,60.58731 0.38689,7.33515 0.76026,14.67101 1.12055,22.00751 0.14498,2.95237 -4.03029,3.15741 -4.17528,0.20504 l 0,0 c -0.36013,-7.33342 -0.73335,-14.6662 -1.12008,-21.99827 -1.03752,-20.2165 -1.5103,-40.45429 -2.33969,-60.68006 -0.58315,-20.05293 -1.62286,-40.09258 -1.8149,-60.15482 0.11837,-8.37137 0.036,-16.80261 1.11037,-25.1191 0.5797,-2.89852 4.67883,-2.0787 4.09913,0.81982 z"
       inkscape:connector-curvature="0" />
    <path
       style="fill:#000000;fill-opacity:1;fill-rule:nonzero;stroke:none"
       id="path5292"
       d="m 235.43057,135.85995 c 12.13055,-0.25362 24.22331,-1.64903 36.31363,-2.63985 24.08735,-1.91279 48.24518,-2.55675 72.39828,-2.14637 11.62274,0.17756 23.22878,0.84442 34.83415,1.45481 2.95184,0.15527 2.73226,4.32981 -0.21958,4.17454 l 0,0 c -11.55595,-0.60789 -23.11254,-1.27285 -34.68581,-1.44965 -24.0154,-0.41058 -48.03549,0.233 -71.9856,2.133 -12.20387,1.00014 -24.40993,2.40911 -36.65507,2.65382 -2.95592,0 -2.95592,-4.1803 0,-4.1803 z"
       inkscape:connector-curvature="0" />
    <path
       inkscape:connector-curvature="0"
       d="m 235.43057,216.6792 c 12.13055,-0.25362 24.22331,-1.64903 36.31363,-2.63985 24.08735,-1.91279 48.24518,-2.55675 72.39828,-2.14637 11.62274,0.17756 23.22878,0.84442 34.83415,1.45481 2.95184,0.15527 2.73226,4.32981 -0.21958,4.17454 l 0,0 c -11.55595,-0.60789 -23.11254,-1.27285 -34.68581,-1.44965 -24.0154,-0.41058 -48.03549,0.233 -71.9856,2.133 -12.20387,1.00014 -24.40993,2.40911 -36.65507,2.65382 -2.95592,0 -2.95592,-4.1803 0,-4.1803 z"
       id="path5298"
       style="fill:#000000;fill-opacity:1;fill-rule:nonzero;stroke:none" />
    <path
       style="fill:#000000;fill-opacity:1;fill-rule:nonzero;stroke:none"
       id="path5365"
       d="m 237.10023,303.55504 c 3.54512,1.3983 7.34694,1.72408 11.11071,1.99602 7.44475,0.32413 14.90441,0.42874 22.35153,0.16115 9.85638,-0.33766 19.67051,-1.31631 29.5112,-1.91918 9.10847,-0.27131 18.18664,-1.04863 27.28302,-1.54773 7.80535,-0.51018 15.56972,-1.37233 23.33152,-2.31534 4.79036,-0.59858 9.60764,-0.87977 14.43074,-1.00544 3.19375,-0.22532 6.44077,0.22636 9.61627,-0.19839 2.01658,-0.44325 4.042,-0.82237 6.09342,-1.0587 1.03616,-0.12749 2.07904,-0.16615 3.12195,-0.17797 0.25791,-0.005 0.51566,6.1e-4 0.77333,0.01 0.0357,0.003 0.0714,0.006 0.10709,0.009 2.93911,0.31487 2.49381,4.47139 -0.4453,4.15652 l 0,0 c 0.0295,0.002 0.0591,0.005 0.0886,0.007 -0.006,-7e-5 -0.39518,-0.007 -0.47752,-0.003 -0.89933,0.01 -1.79866,0.0394 -2.69212,0.15104 -2.04502,0.23306 -4.05598,0.6438 -6.07138,1.05611 -3.31984,0.36694 -6.671,0.0791 -10.0058,0.22676 -4.69089,0.12141 -9.37607,0.3938 -14.03509,0.97633 -7.85322,0.95411 -15.70952,1.82428 -23.6068,2.33959 -9.08751,0.49809 -18.15685,1.27558 -27.25644,1.54618 -9.87631,0.60437 -19.72592,1.58812 -29.6181,1.92435 -7.59815,0.26754 -15.20884,0.17069 -22.80422,-0.16958 -4.19207,-0.30849 -8.41698,-0.7124 -12.35912,-2.28393 -2.74451,-1.0978 -1.19198,-4.97912 1.55252,-3.88132 z"
       inkscape:connector-curvature="0" />
    <path
       inkscape:connector-curvature="0"
       d="m 593.38665,140.58685 c 0.99352,8.07004 0.92228,16.24058 1.03777,24.35834 -0.19941,20.00192 -1.24177,39.98144 -1.82793,59.97423 -0.83539,20.19482 -1.31006,40.40172 -2.35449,60.58731 -0.38995,7.33515 -0.76628,14.67101 -1.12943,22.00751 -0.14612,2.95237 4.06225,3.15741 4.20839,0.20504 l 0,0 c 0.36299,-7.33342 0.73917,-14.6662 1.12896,-21.99827 1.04575,-20.2165 1.52228,-40.45429 2.35825,-60.68006 0.58777,-20.05293 1.63572,-40.09258 1.82929,-60.15482 -0.11931,-8.37137 -0.0363,-16.80261 -1.11918,-25.1191 -0.58429,-2.89852 -4.71593,-2.0787 -4.13163,0.81982 z"
       id="path5367"
       style="fill:#000000;fill-opacity:1;fill-rule:nonzero;stroke:none" />
    <path
       inkscape:connector-curvature="0"
       d="m 593.94047,135.85996 c -12.22675,-0.25362 -24.41541,-1.64903 -36.6016,-2.63985 -24.27836,-1.91279 -48.62776,-2.55675 -72.97239,-2.14637 -11.71491,0.17756 -23.41299,0.84442 -35.11038,1.45481 -2.97525,0.15527 -2.75393,4.32981 0.22131,4.17454 l 0,0 c 11.6476,-0.60789 23.29583,-1.27285 34.96087,-1.44965 24.20584,-0.41058 48.41641,0.233 72.55644,2.133 12.30065,1.00014 24.6035,2.40911 36.94575,2.65382 2.97935,0 2.97935,-4.1803 0,-4.1803 z"
       id="path5369"
       style="fill:#000000;fill-opacity:1;fill-rule:nonzero;stroke:none" />
    <path
       style="fill:#000000;fill-opacity:1;fill-rule:nonzero;stroke:none"
       id="path5371"
       d="m 593.94047,216.67921 c -12.22675,-0.25362 -24.41541,-1.64903 -36.6016,-2.63985 -24.27836,-1.91279 -48.62776,-2.55675 -72.97239,-2.14637 -11.71491,0.17756 -23.41299,0.84442 -35.11038,1.45481 -2.97525,0.15527 -2.75393,4.32981 0.22131,4.17454 l 0,0 c 11.6476,-0.60789 23.29583,-1.27285 34.96087,-1.44965 24.20584,-0.41058 48.41641,0.233 72.55644,2.133 12.30065,1.00014 24.6035,2.40911 36.94575,2.65382 2.97935,0 2.97935,-4.1803 0,-4.1803 z"
       inkscape:connector-curvature="0" />
    <path
       inkscape:connector-curvature="0"
       d="m 592.25757,303.55505 c -3.57323,1.3983 -7.4052,1.72408 -11.19882,1.99602 -7.50379,0.32413 -15.0226,0.42874 -22.52877,0.16115 -9.93455,-0.33766 -19.8265,-1.31631 -29.74523,-1.91918 -9.1807,-0.27131 -18.33086,-1.04863 -27.49937,-1.54773 -7.86725,-0.51018 -15.69319,-1.37233 -23.51654,-2.31534 -4.82835,-0.59858 -9.68383,-0.87977 -14.54517,-1.00544 -3.21908,-0.22532 -6.49185,0.22636 -9.69253,-0.19839 -2.03257,-0.44325 -4.07405,-0.82237 -6.14174,-1.0587 -1.04438,-0.12749 -2.09553,-0.16615 -3.14671,-0.17797 -0.25995,-0.005 -0.51974,6.1e-4 -0.77946,0.01 -0.036,0.003 -0.0719,0.006 -0.10794,0.009 -2.96241,0.31487 -2.51358,4.47139 0.44883,4.15652 l 0,0 c -0.0298,0.002 -0.0595,0.005 -0.0893,0.007 0.006,-7e-5 0.39831,-0.007 0.48131,-0.003 0.90645,0.01 1.81292,0.0394 2.71346,0.15104 2.06124,0.23306 4.08815,0.6438 6.11953,1.05611 3.34616,0.36694 6.7239,0.0791 10.08514,0.22676 4.72809,0.12141 9.45043,0.3938 14.14639,0.97633 7.9155,0.95411 15.8341,1.82428 23.79401,2.33959 9.15956,0.49809 18.30082,1.27558 27.47258,1.54618 9.95462,0.60437 19.88234,1.58812 29.85297,1.92435 7.6584,0.26754 15.32944,0.17069 22.98505,-0.16958 4.22531,-0.30849 8.48373,-0.7124 12.45712,-2.28393 2.76628,-1.0978 1.20143,-4.97912 -1.56483,-3.88132 z"
       id="path5373"
       style="fill:#000000;fill-opacity:1;fill-rule:nonzero;stroke:none" />
    <path
       style="fill:#000000;fill-opacity:1;fill-rule:nonzero;stroke:none"
       id="path5377"
       d="m 415.94046,133.20975 c 0,3.64574 0,7.29148 0,10.93722 0,6.38357 0,12.76714 0,19.1507 -0.13952,9.50744 0.31238,19.01179 1.00056,28.49177 0.87684,10.39564 1.29549,20.81844 2.003,31.22554 0.67476,9.33976 0.95,18.69965 1.10307,28.06025 0.09,6.69566 0.0902,13.39206 0.0873,20.08819 -0.003,3.72913 -0.009,7.45825 -0.0117,11.18737 -0.25531,2.71854 -0.80708,5.39568 -1.16066,8.102 -0.1462,1.27974 -0.22482,2.56471 -0.2408,3.85215 -0.008,1.30864 -0.002,2.61732 0.002,3.92596 10e-4,0.44259 0.003,0.88517 0.004,1.32776 3e-5,0.0149 1.3e-4,0.0298 2e-4,0.0447 -1.39345,-0.17755 -2.78689,-0.3551 -4.18033,-0.53266 -4.5e-4,-2.95592 4.17986,-2.95655 4.1803,-6.3e-4 l 0,0 c -1.39339,0.18815 -2.78677,0.3763 -4.18016,0.56445 -10e-5,-0.0201 -2.7e-4,-0.0401 -2.9e-4,-0.0602 -0.002,-0.44405 -0.003,-0.8881 -0.004,-1.33214 -0.004,-1.33044 -0.01,-2.66092 -0.001,-3.99135 0.0195,-1.45064 0.10736,-2.89876 0.27577,-4.34036 0.33124,-2.52814 0.81219,-5.03258 1.12534,-7.56281 0.003,-3.72868 0.009,-7.45735 0.0116,-11.18603 0.003,-6.67276 0.003,-13.34578 -0.0868,-20.01808 -0.15168,-9.2888 -0.42415,-18.57691 -1.094,-27.84502 -0.70707,-10.40092 -1.12584,-20.81748 -2.0017,-31.20697 -0.69291,-9.58065 -1.15232,-19.18556 -1.01149,-28.79387 0,-6.38356 0,-12.76713 0,-19.1507 0,-3.64574 0,-7.29148 0,-10.93722 0,-2.95592 4.18031,-2.95592 4.18031,0 z"
       inkscape:connector-curvature="0" />
    <path
       style="fill:#000000;fill-opacity:1;fill-rule:nonzero;stroke:none"
       id="path5393"
       d="m 284.11069,175.08341 c 4.23886,0.83924 8.60304,0.35066 12.88822,0.19149 7.18729,-0.27141 14.38007,-0.32716 21.57158,-0.37099 9.27302,-0.0384 18.54616,-0.0327 27.81924,-0.0322 10.49563,0.002 20.99127,0.003 31.48691,0.004 11.59833,-0.2601 23.17773,-0.93842 34.7349,-1.93021 13.3544,-1.28696 26.76264,-1.75703 40.16923,-2.05185 12.09484,-0.25405 24.18396,-0.32366 36.27144,0.17847 9.26676,0.44782 18.53839,0.62694 27.7906,1.32549 5.71128,0.46833 11.43137,0.81832 17.15869,1.00631 2.07883,0.0531 4.15831,0.0934 6.2379,0.091 0.26375,3.8e-4 0.37556,-0.004 0.57238,-0.0103 2.95487,-0.0788 3.06626,4.10005 0.11139,4.17882 l 0,0 c -0.22636,0.007 -0.45285,0.0128 -0.6794,0.0118 -2.12684,0.002 -4.25356,-0.0385 -6.37962,-0.0933 -5.78653,-0.19049 -11.56588,-0.54259 -17.33624,-1.01593 -9.20507,-0.69579 -18.42983,-0.86921 -27.64935,-1.31722 -11.99899,-0.49928 -23.99959,-0.42707 -36.00594,-0.17588 -13.31804,0.29254 -26.63777,0.75824 -39.90391,2.03757 -11.67609,1.00059 -23.37464,1.68746 -35.09237,1.94551 -10.4956,-7.5e-4 -20.99121,-0.002 -31.48681,-0.004 -9.26453,-4.4e-4 -18.52911,-0.006 -27.79357,0.0322 -7.14827,0.0435 -14.29781,0.0985 -21.44188,0.36818 -4.6124,0.17133 -9.30336,0.66336 -13.86322,-0.26979 -2.89852,-0.5797 -2.0787,-4.67883 0.81983,-4.09912 z"
       inkscape:connector-curvature="0" />
    <path
       inkscape:connector-curvature="0"
       d="m 284.11069,253.11579 c 4.23886,0.83924 8.60304,0.35066 12.88822,0.19149 7.18729,-0.27141 14.38007,-0.32716 21.57158,-0.37099 9.27302,-0.0384 18.54616,-0.0327 27.81924,-0.0322 10.49563,0.002 20.99127,0.003 31.48691,0.004 11.59833,-0.2601 23.17773,-0.93842 34.7349,-1.93021 13.3544,-1.28696 26.76264,-1.75703 40.16923,-2.05185 12.09484,-0.25405 24.18396,-0.32366 36.27144,0.17847 9.26676,0.44782 18.53839,0.62694 27.7906,1.32549 5.71128,0.46833 11.43137,0.81832 17.15869,1.00631 2.07883,0.0531 4.15831,0.0934 6.2379,0.091 0.26375,3.8e-4 0.37556,-0.004 0.57238,-0.0103 2.95487,-0.0788 3.06626,4.10005 0.11139,4.17882 l 0,0 c -0.22636,0.007 -0.45285,0.0128 -0.6794,0.0118 -2.12684,0.002 -4.25356,-0.0385 -6.37962,-0.0933 -5.78653,-0.19049 -11.56588,-0.54259 -17.33624,-1.01593 -9.20507,-0.69579 -18.42983,-0.86921 -27.64935,-1.31722 -11.99899,-0.49928 -23.99959,-0.42707 -36.00594,-0.17588 -13.31804,0.29254 -26.63777,0.75824 -39.90391,2.03757 -11.67609,1.00059 -23.37464,1.68746 -35.09237,1.94551 -10.4956,-7.5e-4 -20.99121,-0.002 -31.48681,-0.004 -9.26453,-4.4e-4 -18.52911,-0.006 -27.79357,0.0322 -7.14827,0.0435 -14.29781,0.0985 -21.44188,0.36818 -4.6124,0.17133 -9.30336,0.66336 -13.86322,-0.26979 -2.89852,-0.5797 -2.0787,-4.67883 0.81983,-4.09912 z"
       id="path5395"
       style="fill:#000000;fill-opacity:1;fill-rule:nonzero;stroke:none" />
    <path
       style="fill:#000000;fill-opacity:1;fill-rule:nonzero;stroke:none"
       id="path5397"
       d="m 331.05305,254.58316 c -1.50859,-1.15443 -2.68258,-2.76943 -4.20791,-3.89014 -1.28518,-1.10713 -2.2278,-2.53953 -3.08358,-3.99015 -0.92762,-1.39909 -2.02144,-2.64728 -2.86363,-4.10432 -0.87368,-0.97114 -1.59518,-2.09138 -2.11157,-3.2882 -0.7643,-0.93961 -1.15689,-2.20215 -1.47651,-3.39779 -0.171,-0.62327 -0.27939,-1.25239 -0.3135,-1.89609 0.32841,1.15766 0.22083,0.87161 -0.25232,0.53206 0.1761,-0.0958 2.5116,3.68304 -1.1347,-1.8975 -0.0134,-0.40754 -0.008,-0.81536 -8.6e-4,-1.22296 0.017,-0.9886 0.19787,-0.47367 1.50071,-2.16192 -0.11643,-0.009 0.10365,-0.22415 0.15965,-0.30906 -0.29269,0.77302 -0.24463,0.81741 -0.24952,0.12505 0.45014,-1.63204 1.3021,-2.27227 2.80609,-2.59204 2.46765,-0.58017 -1.30255,1.19426 0.80824,-0.54573 0.61111,-0.36827 1.27663,-0.63199 1.96371,-0.81771 0.3619,-0.10902 0.73689,-0.0947 1.11008,-0.0909 0.5024,0.005 1.00483,0.004 1.50725,0.004 1.04732,-0.10467 1.94151,0.55384 2.74836,1.0572 1.46395,0.41137 2.20916,1.47787 2.7245,2.80999 0.5875,0.38292 0.83406,1.51663 1.27976,2.16378 0.65186,1.01495 1.32699,1.99626 1.94832,3.03243 0.45957,1.37633 1.29055,2.51378 1.85897,3.84501 0.48753,1.82554 0.8966,3.67527 1.31393,5.52554 0.88516,2.59592 1.97643,5.08938 2.69185,7.74401 0.60986,2.13047 0.3088,1.04131 0.90076,3.26816 0.75879,2.85687 -3.28144,3.92996 -4.04023,1.07309 l 0,0 c -0.57699,-2.17437 -0.27729,-1.08655 -0.89947,-3.26335 -0.71528,-2.71186 -1.92408,-5.22439 -2.73159,-7.90576 -0.36367,-1.62664 -0.75695,-3.24781 -1.10868,-4.86959 -0.40967,-1.14263 -1.28813,-2.07352 -1.57404,-3.27291 -0.61552,-1.03467 -1.28061,-2.01971 -1.94177,-3.0215 -0.59038,-1.03114 -1.06262,-2.10777 -1.69992,-3.1114 0.53175,0.50895 0.60415,-0.0207 -0.58104,-0.27312 -0.25518,-0.14148 -0.51594,-0.27332 -0.76554,-0.42443 -0.9692,-0.5868 1.02439,-0.0798 -0.12567,-0.19684 -0.51646,-1.8e-4 -1.03294,2.4e-4 -1.54939,-0.004 -0.50238,-0.005 -0.20364,0.003 -5.2e-4,-0.047 -0.23392,0.0691 -0.46414,0.1468 -0.69005,0.23987 0.0523,-0.0735 0.22059,-0.28461 0.15697,-0.22059 -0.65729,0.66141 -1.52789,1.59103 -2.47689,1.39954 0.25282,-0.48002 0.3188,-1.04063 0.54623,-1.53318 0.005,0.72306 0.0217,1.50833 -0.39641,2.13509 -0.47663,0.73587 -1.07789,1.37182 -1.8387,1.8227 0.12493,-0.24276 0.87682,-2.26067 0.82363,-1.506 -0.005,0.30177 -0.008,0.60356 -0.005,0.90538 -1.93311,-2.50365 -1.55638,-1.79678 -0.62389,-1.27533 1.00815,0.72151 1.74265,1.47909 2.0163,2.76947 0.0183,0.2928 0.10434,0.63824 0.17596,0.93773 0.2832,1.08613 0.69818,2.06566 1.34802,2.99549 0.44378,0.93403 1.17821,1.83982 1.82698,2.68329 0.81773,1.44915 1.99,2.6329 2.84102,4.06529 0.5932,1.01842 1.21333,2.02745 2.07687,2.83123 1.59594,1.31363 2.97253,2.88795 4.56495,4.20847 2.09015,2.09015 -0.86577,5.04607 -2.95593,2.95592 z"
       inkscape:connector-curvature="0" />
    <path
       style="fill:#000000;fill-opacity:1;fill-rule:nonzero;stroke:none"
       id="path5403"
       d="m 317.56057,172.57796 c 0.95757,-2.14801 1.54724,-4.41682 2.4949,-6.56815 0.67545,-1.3474 1.02682,-2.79376 1.63458,-4.17033 0.51055,-1.7104 1.23162,-3.35258 2.12986,-4.89169 0.74831,-1.18396 1.59245,-2.28314 2.40211,-3.42577 0.69468,-0.91997 0.60046,-1.20291 1.43013,-2.19069 0.40307,-0.47697 0.89236,-1.26156 1.50407,-1.88967 0.22414,-0.57884 1.8551,-1.68753 1.68864,-1.70826 0.64822,-0.83064 1.51308,-1.40467 2.4529,-1.85 0.4858,-0.24945 1.01124,-0.28406 1.55168,-0.28044 0.63353,0.005 1.2671,0.007 1.90065,0.01 0.15747,6.1e-4 0.31494,0.001 0.4724,0.001 0.24046,-5e-5 0.5625,-6e-5 0.83342,-7e-5 0.17681,-1e-5 0.35362,-1e-5 0.53043,-2e-5 0.38892,0 0.77784,0 1.16677,0 1.92462,0.83618 2.27837,1.59041 2.34112,3.34321 0.009,0.59638 0.001,1.19281 -0.002,1.7892 -0.003,0.69106 -0.003,1.38212 -0.004,2.07318 -3.8e-4,0.49163 -2.4e-4,0.98325 -2.2e-4,1.47488 0.0802,1.11043 -0.05,2.04947 -0.36498,3.12264 -1.35911,1.54717 -0.68512,1.07339 -1.99663,2.22869 -0.42256,0.80052 -0.9899,1.56193 -1.37185,2.41624 -0.54355,1.11125 -1.29975,2.16002 -2.04788,3.15352 -0.81787,1.27281 -2.34234,1.87012 -3.31667,2.96191 -0.74654,0.7128 -1.41914,1.45833 -2.00959,2.30875 -0.76729,1.0085 -1.69169,1.84985 -2.32436,2.95157 -0.54361,1.23967 -1.70038,1.92928 -2.72996,2.71151 -2.35426,1.78743 -4.88207,-1.542 -2.52781,-3.32944 l 0,0 c 0.63662,-0.48303 1.34581,-0.77784 1.65466,-1.50162 0.70817,-1.18569 1.59086,-2.19412 2.50028,-3.22562 0.7494,-1.06838 1.6209,-2.00612 2.53601,-2.92521 0.94306,-0.86164 2.06494,-1.5375 2.89752,-2.49214 0.61197,-0.77842 1.20079,-1.57205 1.56385,-2.34669 0.64047,-1.38752 1.46753,-2.68515 2.45197,-3.85386 0.21979,-0.17757 0.95008,-1.31391 0.93685,-0.83504 -0.0784,1.32131 -0.007,-0.99458 -0.0317,-1.3451 -10e-6,-0.49294 -1.6e-4,-0.98587 2.2e-4,-1.47881 6.4e-4,-0.69618 10e-4,-1.39237 0.004,-2.08855 0.003,-0.55364 0.009,-1.10731 0.003,-1.66095 -7.9e-4,-0.79762 0.0901,0.0788 1.83776,0.72804 -0.38891,0 -0.77782,0 -1.16673,0 -0.17675,0 -0.3535,10e-6 -0.53026,2e-5 -0.28031,1e-5 -0.56063,1e-5 -0.84094,6e-5 -0.16008,-4.2e-4 -0.32016,-8.5e-4 -0.48025,-0.001 -0.63801,-0.002 -1.27604,-0.004 -1.91403,-0.01 -0.0747,-5.2e-4 -0.28129,0.0465 -0.22412,-0.002 0.0489,-0.0411 0.46229,-0.0819 0.46622,-0.10889 -0.21679,0.1031 -0.61911,0.41387 -0.6829,0.29164 -0.57629,0.8533 -1.39623,1.33099 -1.94072,2.06495 -0.7806,0.90041 -0.90203,0.88071 -1.65127,2.06622 -0.0864,0.0798 -0.72408,1.29771 -1.15997,1.85 -0.76171,1.06701 -1.56271,2.05822 -2.2435,3.18578 -0.89548,1.31709 -1.32325,2.91806 -1.87042,4.3966 -0.60567,1.37176 -0.93511,2.83128 -1.63611,4.17379 -0.98159,2.20532 -1.53519,4.56235 -2.57856,6.74576 -1.32192,2.64386 -5.0609,0.77437 -3.73897,-1.86949 z"
       inkscape:connector-curvature="0" />
    <path
       style="fill:#000000;fill-opacity:1;fill-rule:nonzero;stroke:none"
       id="path5405"
       d="m 637.9954,165.45391 c -2.70529,0.35044 -5.18675,1.28414 -7.54523,2.47757 -3.66423,2.19392 -5.01207,5.63644 -5.93368,9.30064 -0.21335,2.82556 -0.35593,5.44629 3.02323,6.60013 0.27694,-0.031 0.56826,-0.009 0.83082,-0.0931 2.39547,-0.76994 3.58399,-4.28947 4.27907,-6.15587 1.13346,-3.5748 1.4123,-7.24889 1.16948,-10.93717 -0.14765,-0.67651 0.003,-1.42447 -0.33033,-2.06663 -0.0322,-0.0621 -0.15209,-0.23672 -0.12301,-0.17344 0.25686,0.55903 0.51465,0.29199 1.43386,0.42349 0.1567,-0.0972 0.30863,-0.38235 0.47009,-0.29156 0.1682,0.0946 -0.0455,0.35284 -0.046,0.53006 -6.2e-4,0.28668 0.0106,0.57395 0.0426,0.85922 0.16741,1.49179 0.59919,2.92989 1.02483,4.37503 0.98219,3.03506 2.50798,5.968 4.92946,8.30003 0.27024,0.19178 0.54048,0.38357 0.81072,0.57535 1.42291,1.03771 -0.22414,2.83069 -1.64704,1.79298 l 0,0 c -0.36191,-0.26923 -0.72381,-0.53846 -1.08572,-0.8077 -2.66983,-2.64234 -4.45215,-5.85524 -5.52334,-9.27483 -0.47642,-1.63082 -1.71788,-5.39315 -0.98551,-7.04722 0.16719,-0.3776 0.48742,-0.68591 0.73114,-1.02887 0.53701,0.006 1.09352,-0.11124 1.61106,0.0166 1.09544,0.27063 1.21296,2.96001 1.28316,3.68334 0.25649,3.98397 -0.0578,7.95446 -1.30095,11.81036 -1.11388,2.91303 -2.72342,7.1793 -6.76484,7.73374 -0.62131,0.0852 -1.25444,-0.0752 -1.88166,-0.11284 -0.54573,-0.23997 -1.13839,-0.40927 -1.63719,-0.71991 -3.08969,-1.92419 -3.2078,-5.49927 -2.85012,-8.50319 1.14423,-4.45504 2.75381,-8.15568 7.19276,-10.80696 2.56588,-1.28051 5.25648,-2.32277 8.19157,-2.70703 1.78386,-0.39736 2.41455,1.85045 0.63069,2.24782 z"
       inkscape:connector-curvature="0" />
    <path
       style="fill:#000000;fill-opacity:1;fill-rule:nonzero;stroke:none"
       id="path5407"
       d="m 652.69368,163.2061 c 1.17249,0.0192 2.3445,-0.0214 3.51534,-0.0725 0.28166,-0.0128 0.56326,-0.0272 0.84439,-0.0471 -0.88689,0.0668 0.0134,1.55621 -0.17542,2.30909 -3.1e-4,0.001 -1.80787,-0.006 -2.68669,0.0855 -3.02036,0.79958 -5.23424,2.76584 -6.93072,5.04253 -1.30411,2.19152 -2.51132,4.86807 -1.04972,7.26537 0.22447,0.36819 0.56591,0.66936 0.84887,1.00404 2.13839,1.68161 4.93875,1.93769 7.67301,1.79485 1.83654,-0.0804 1.96415,2.2338 0.12761,2.3142 l 0,0 c -3.66595,0.13569 -7.24163,-0.34677 -9.93355,-2.78365 -0.39309,-0.52904 -0.87089,-1.01524 -1.17928,-1.58713 -1.6819,-3.11898 -0.3878,-6.48884 1.3601,-9.30711 0.43407,-0.56177 0.82008,-1.15557 1.3022,-1.68531 1.90423,-2.09228 4.58782,-3.67655 7.50305,-4.36146 0.12013,-0.0108 2.89851,-0.28858 2.97325,-0.0988 0.29072,0.73806 0.31581,1.53887 0.47371,2.3083 -0.018,0.002 -0.0361,0.004 -0.0542,0.006 -0.32266,0.0251 -0.64619,0.0398 -0.96957,0.0553 -1.42204,0.0619 -2.85391,0.14098 -4.2731,0.006 -1.78386,-0.39736 -1.15317,-2.64517 0.63069,-2.24781 z"
       inkscape:connector-curvature="0" />
    <path
       style="fill:#000000;fill-opacity:1;fill-rule:nonzero;stroke:none"
       id="path5409"
       d="m 668.06951,147.09779 c 1.26193,2.74255 1.93831,5.64918 2.47232,8.56286 0.75953,5.28736 0.82349,10.62845 0.90598,15.95085 0.0415,3.64863 0.0434,7.29749 0.0318,10.94625 -10e-4,0.20657 -0.002,0.41315 -0.003,0.61971 -0.008,1.63835 -2.60869,1.62787 -2.60038,-0.0105 l 0,0 c 0.001,-0.20526 0.002,-0.41051 0.003,-0.61577 0.0115,-3.63593 0.01,-7.27196 -0.0315,-10.90775 -0.0806,-5.20884 -0.14076,-10.43576 -0.87259,-15.61135 -0.48671,-2.6855 -1.1087,-5.35865 -2.23142,-7.89813 -0.82232,-1.46539 1.50355,-2.50158 2.32587,-1.03619 z"
       inkscape:connector-curvature="0" />
    <path
       style="fill:#000000;fill-opacity:1;fill-rule:nonzero;stroke:none"
       id="path5411"
       d="m 662.01683,167.71311 c 3.10097,0 6.20195,0 9.30292,0 2.90462,0 5.80925,0 8.71388,0 0.32024,0 0.64049,0 0.96073,0 1.83876,0 1.83876,2.31699 0,2.31699 l 0,0 c -0.32024,0 -0.64049,0 -0.96073,0 -2.90463,0 -5.80926,0 -8.71388,0 -3.10097,0 -6.20195,0 -9.30292,0 -1.83876,0 -1.83876,-2.31699 0,-2.31699 z"
       inkscape:connector-curvature="0" />
    <path
       style="fill:#000000;fill-opacity:1;fill-rule:nonzero;stroke:none"
       id="path5413"
       d="m 688.01425,169.87865 c 0.50121,2.55185 0.51185,5.14906 0.7887,7.72147 0.26473,2.09677 0.55036,4.19123 0.76915,6.29233 0.0523,0.53291 0.0292,0.28874 0.07,0.73245 0.1499,1.63291 -2.44184,1.82179 -2.59174,0.18888 l 0,0 c -0.0392,-0.42692 -0.0169,-0.19112 -0.0675,-0.70735 -0.21844,-2.09935 -0.50544,-4.19189 -0.76859,-6.28704 -0.26396,-2.49424 -0.28633,-5.01018 -0.74987,-7.48633 -0.36061,-1.60655 2.18929,-2.06095 2.5499,-0.45441 z"
       inkscape:connector-curvature="0" />
    <path
       style="fill:#000000;fill-opacity:1;fill-rule:nonzero;stroke:none"
       id="path5415"
       d="m 685.47792,159.72546 c 0.21931,-0.72679 0.37143,-1.46759 0.50147,-2.21054 0.28593,-1.61843 2.8547,-1.25812 2.56876,0.36031 l 0,0 c -0.14433,0.81038 -0.3084,1.61897 -0.54746,2.41218 -0.44597,1.58944 -2.96873,1.02749 -2.52277,-0.56195 z"
       inkscape:connector-curvature="0" />
    <path
       style="fill:#000000;fill-opacity:1;fill-rule:nonzero;stroke:none"
       id="path5417"
       d="m 694.94033,167.17838 c 1.27029,2.04723 1.78888,4.35575 2.3898,6.60923 0.55,2.19879 0.80404,4.44112 0.96375,6.68545 0.0104,0.18234 0.0218,0.36464 0.0313,0.54703 0.0138,0.26559 0.0281,0.83696 0.0277,0.83695 -2.77138,-0.0582 -2.59819,0.50665 -2.60578,-0.68901 -0.0427,-2.10655 0.6634,-4.13095 1.30868,-6.13239 0.75317,-2.38894 2.05313,-4.46508 4.14186,-6.10447 2.19097,-1.43928 3.87489,-0.72477 5.8277,0.5663 1.6653,1.22925 2.31865,3.03984 2.82506,4.84478 0.32577,1.99791 0.9346,3.92961 1.58449,5.85738 0.20979,0.51059 0.52655,0.98492 1.08978,1.22574 1.53795,0.89799 0.11267,2.83594 -1.42529,1.93795 l 0,0 c -1.01306,-0.64505 -1.77609,-1.408 -2.15499,-2.49724 -0.66231,-1.96527 -1.28918,-3.93519 -1.61955,-5.97195 -0.34092,-1.26908 -0.73625,-2.62766 -1.85206,-3.53796 -0.81773,-0.54416 -1.56698,-1.32969 -2.56922,-0.67627 -1.73218,1.3176 -2.72412,3.0507 -3.34846,4.99547 -0.57663,1.78849 -1.24198,3.59665 -1.20763,5.47959 0.008,1.19542 0.17011,0.58408 -2.5948,0.72968 -0.0541,0.003 -6.3e-4,-0.0966 -0.002,-0.14494 -0.004,-0.1988 -0.0126,-0.40451 -0.0228,-0.60213 -0.009,-0.1728 -0.0196,-0.34551 -0.0294,-0.51827 -0.14959,-2.11337 -0.38428,-4.22522 -0.89859,-6.29641 -0.55405,-2.08036 -1.0112,-4.21872 -2.18562,-6.10832 -0.82232,-1.46539 1.50355,-2.50158 2.32587,-1.03619 z"
       inkscape:connector-curvature="0" />
    <path
       style="fill:#000000;fill-opacity:1;fill-rule:nonzero;stroke:none"
       id="path5419"
       d="m 443.8464,349.01288 c 1.32944,2.85997 2.11264,5.89741 2.87135,8.91013 0.72226,3.04175 1.06985,6.13857 1.29317,9.237 0.0459,1.51554 0.6987,2.35071 -2.37616,0.82976 -0.18392,-0.091 0.0882,-0.36676 0.11981,-0.55207 0.0512,-0.30005 0.0856,-0.60218 0.12842,-0.90326 0.56039,-3.45259 1.76272,-6.778 3.10457,-10.04273 1.09368,-1.91082 1.72168,-4.465 3.66629,-5.91199 0.2896,-0.21549 0.64079,-0.3551 0.96118,-0.53265 3.1525,-0.63603 4.77367,1.86005 6.05764,3.99604 1.37374,2.77931 1.83934,5.79989 2.14528,8.79783 0.0248,0.32179 0.0523,0.64342 0.0743,0.96536 0.0168,0.24658 0.029,0.4934 0.0421,0.74016 0.008,0.14696 0.0136,0.29399 0.0208,0.44097 0.002,0.0456 0.0584,0.13687 0.007,0.13661 -2.89681,-0.0152 -2.71542,0.56756 -2.48062,-0.87562 0.35159,-3.04914 1.45097,-5.92651 2.88663,-8.69121 1.01433,-1.61288 2.76298,-4.54728 4.88226,-5.23329 0.40245,-0.13027 0.84621,-0.1172 1.26931,-0.17581 0.49565,0.23621 1.06697,0.37577 1.48696,0.70863 1.67286,1.32585 2.3165,5.27897 2.64711,7.1409 0.46831,2.25695 0.8937,4.52033 1.26091,6.79206 0.10013,0.61285 0.28793,0.41759 -0.63352,-0.0886 1.83168,0.1437 1.60358,2.45176 -0.22809,2.30806 l 0,0 c -1.19432,-0.48403 -1.57083,-0.68284 -1.71225,-1.88926 -0.36548,-2.26202 -0.79062,-4.51542 -1.25597,-6.76284 -0.25002,-1.43025 -0.48862,-2.86245 -1.02829,-4.23531 -0.12954,-0.32952 -0.30713,-0.64245 -0.45811,-0.96464 -0.0777,-0.16589 -0.23008,-0.31981 -0.22802,-0.49957 0.001,-0.0953 0.15731,-0.12917 0.23597,-0.19375 -0.1,-0.27633 -0.0401,-0.26498 -0.58208,0.10227 -1.48738,1.00789 -2.43392,2.53691 -3.29805,3.96768 -1.34836,2.57214 -2.35823,5.25388 -2.67972,8.09543 -0.25749,1.08354 0.0119,0.49326 -2.68194,0.60402 -0.003,1.2e-4 -0.0278,-0.6898 -0.067,-1.26914 -0.0206,-0.30495 -0.0465,-0.60961 -0.0697,-0.91442 -0.27166,-2.69148 -0.66812,-5.40724 -1.8516,-7.91899 -0.67848,-1.14732 -1.33253,-2.26908 -2.53245,-3.04174 -1.38516,0.29256 -2.85874,4.19764 -3.41502,5.2003 -1.27798,3.10258 -2.42736,6.26202 -2.96723,9.54301 -0.08,0.53928 -0.24089,1.74705 -0.3188,1.76885 -3.15994,0.88397 -2.61316,0.262 -2.72718,-1.29285 -0.21386,-2.97787 -0.5443,-5.95456 -1.23554,-8.87848 -0.72672,-2.89222 -1.47179,-5.81139 -2.74832,-8.55637 -0.68289,-1.52118 1.73152,-2.38169 2.41442,-0.86051 z"
       inkscape:connector-curvature="0" />
    <path
       style="fill:#000000;fill-opacity:1;fill-rule:nonzero;stroke:none"
       id="path5421"
       d="m 480.25202,351.32988 c 1.30929,2.46483 1.68943,5.17811 2.21763,7.83195 0.47563,1.72457 0.31147,3.92764 1.77405,5.3106 0.0922,0.0419 0.17461,0.10958 0.27647,0.12579 0.16594,0.0264 1.68326,-2.19712 1.74224,-2.28824 1.84893,-3.09923 2.56574,-6.56847 3.09133,-10.00968 0.18448,-1.52219 0.3414,-3.05119 0.35394,-4.58339 -10e-4,-0.0505 -0.0595,-0.15439 -0.003,-0.15158 3.65912,0.18114 2.14443,0.002 2.86166,1.97441 1.52719,3.3754 2.54514,6.87707 3.36584,10.43506 1.2906,5.87035 1.27035,11.39315 0.0983,17.2626 -0.98999,3.84079 -2.4136,7.98978 -5.88599,10.67706 -0.54047,0.41827 -1.17879,0.72403 -1.76819,1.08605 -0.62123,0.18437 -1.21664,0.46372 -1.8637,0.5531 -3.1002,0.42826 -5.23371,-1.77198 -6.23715,-4.12233 -0.2851,-0.66778 -0.41687,-1.37982 -0.6253,-2.06972 -0.63182,-4.02618 1.0727,-7.50268 3.43236,-10.81684 0.99164,-1.37969 3.18147,-0.13013 2.18982,1.24955 l 0,0 c -1.99117,2.74046 -3.51975,5.6301 -3.10385,8.98976 0.37783,1.38897 0.89434,3.75066 2.6286,4.42201 0.79778,0.30883 1.34837,0.0435 2.13557,-0.13267 0.44192,-0.25133 0.92338,-0.45455 1.32576,-0.754 3.13667,-2.33429 4.31353,-6.1106 5.21266,-9.49177 1.10972,-5.44416 1.13456,-10.94225 -0.0864,-16.38757 -0.80045,-3.48955 -1.81264,-6.91534 -3.30614,-10.2257 -0.0758,-0.23145 -0.63431,-2.42563 -0.38558,-2.48133 0.8475,-0.18976 1.73793,-0.20237 2.61179,-0.20152 0.0763,7e-5 0.002,0.13604 0.003,0.20406 -0.0159,1.63087 -0.17647,3.25844 -0.37779,4.87844 -0.57655,3.74545 -1.38775,7.51084 -3.42737,10.87221 -1.43256,2.1302 -3.35953,4.65132 -6.26535,2.46036 -1.61126,-1.84891 -1.94975,-4.11665 -2.32833,-6.38033 -0.49665,-2.49786 -0.83321,-5.05727 -2.07154,-7.37584 -0.6829,-1.52118 1.73151,-2.38169 2.41441,-0.8605 z"
       inkscape:connector-curvature="0" />
    <path
       style="fill:#000000;fill-opacity:1;fill-rule:nonzero;stroke:none"
       id="path5423"
       d="m 503.20726,349.30959 c 0.88745,-0.19769 1.77491,-0.39537 2.66238,-0.59306 1.18914,-0.26255 0.39805,-0.23213 0.50823,2.19073 -1.01791,-0.1015 -1.25445,0.58145 -1.7769,1.28605 -1.04627,2.17006 -1.93652,4.45829 -0.78069,6.71871 1.66191,1.72008 2.81282,1.44632 4.29814,-0.20235 1.17902,-1.94744 2.3811,-4.54143 1.4672,-6.77854 -0.13797,-0.33773 -0.41663,-0.61555 -0.62494,-0.92332 -1.62312,-1.50723 -3.80388,-2.15165 -6.10186,-2.14593 -1.54567,0.0862 -0.78963,0.65529 -0.62302,-1.93608 1.76407,0.4622 1.03047,2.68508 -0.7336,2.22288 l 0,0 c -0.89496,-2.80248 -1.25665,-2.37532 1.37682,-2.60372 3.27531,0.0453 6.27549,1.04876 8.37966,3.37841 0.29748,0.54312 0.69113,1.05225 0.89243,1.62937 1.0299,2.9527 -0.40142,6.23359 -2.11125,8.71815 -0.46234,0.42032 -0.85162,0.9163 -1.38703,1.26097 -2.824,1.81795 -5.54229,0.49118 -7.24772,-1.76103 -0.19864,-0.48272 -0.47119,-0.94615 -0.59591,-1.44814 -0.62484,-2.51495 0.47985,-5.19034 1.64216,-7.4332 0.98743,-1.26528 2.05585,-2.45193 3.94876,-2.29914 0.52827,2.39044 1.30629,2.10539 0.1002,2.37399 -0.88745,0.19769 -1.77491,0.39537 -2.66238,0.59306 -1.78386,0.39736 -2.41455,-1.85045 -0.63068,-2.24781 z"
       inkscape:connector-curvature="0" />
    <path
       style="fill:#000000;fill-opacity:1;fill-rule:nonzero;stroke:none"
       id="path5425"
       d="m 524.27646,345.55119 c -1.62127,1.08031 -3.13918,2.2365 -4.20003,3.78583 -0.38952,0.7549 -1.10542,1.75937 -0.0126,2.25848 2.07615,0.56192 4.111,1.16117 6.08384,1.97778 1.34586,0.68751 3.42462,1.73489 3.64908,3.30822 0.0567,0.39744 -0.0674,0.79902 -0.10111,1.19853 -1.18127,2.39507 -3.9857,3.29914 -6.57749,4.09321 -2.16411,0.49272 -4.40675,1.261 -6.61946,0.68331 -1.14588,-0.99225 -0.78499,-0.39432 -1.08187,-1.79416 0.0458,-1.63785 2.64543,-1.58009 2.59959,0.0578 l 0,0 c -0.3107,-0.42421 -0.10152,-0.29205 -0.59825,-0.43093 0.34559,0.44486 4.23912,-0.57498 4.86166,-0.70927 1.74291,-0.52295 3.68359,-1.07002 4.87552,-2.39519 0.93335,0.24638 -1.88971,-2.30747 -2.10535,-1.91104 -2.20032,-0.91521 -4.55817,-1.37948 -6.71645,-2.34862 -0.29081,-0.26443 -0.63237,-0.49112 -0.87245,-0.79331 -1.11747,-1.40656 -0.3707,-3.07313 0.41039,-4.42309 1.2662,-1.7725 2.9416,-3.17588 4.8447,-4.41112 1.47101,-0.98301 3.03125,0.87058 1.56024,1.8536 z"
       inkscape:connector-curvature="0" />
    <path
       style="fill:#000000;fill-opacity:1;fill-rule:nonzero;stroke:none"
       id="path5427"
       d="m 538.27815,349.06978 c 0.90608,2.29531 1.10699,4.73356 1.50386,7.12257 0.34043,1.92321 0.66559,3.84824 0.9337,5.7806 0.0123,0.0655 0.0246,0.13094 0.0369,0.19641 0.29563,1.61704 -2.27094,1.98956 -2.56657,0.37252 l 0,0 c -0.017,-0.0949 -0.0341,-0.18983 -0.0511,-0.28475 -0.26542,-1.91424 -0.5885,-3.82108 -0.92543,-5.72628 -0.3828,-2.31448 -0.57329,-4.67628 -1.45412,-6.89912 -0.44597,-1.58945 2.07679,-2.1514 2.52275,-0.56195 z"
       inkscape:connector-curvature="0" />
    <path
       style="fill:#000000;fill-opacity:1;fill-rule:nonzero;stroke:none"
       id="path5429"
       d="m 534.88858,340.6074 c 0.22187,-0.79074 0.44374,-1.58148 0.6656,-2.37222 0.0738,-0.13913 0.14754,-0.27827 0.22131,-0.4174 1.02062,-1.36281 3.18367,-0.0767 2.16304,1.28607 l 0,0 c 0.0462,-0.10224 0.0923,-0.20447 0.13841,-0.30671 -0.22186,0.79074 -0.44373,1.58148 -0.66559,2.37222 -0.44597,1.58943 -2.96873,1.02748 -2.52277,-0.56196 z"
       inkscape:connector-curvature="0" />
    <path
       style="fill:#000000;fill-opacity:1;fill-rule:nonzero;stroke:none"
       id="path5431"
       d="m 547.81819,347.288 c 1.089,2.16644 1.2632,4.58719 1.46468,6.92382 0.0718,2.15387 0.17797,4.28095 0.58442,6.40567 0.13353,0.64942 0.26131,1.3004 0.42458,1.9446 -2.34574,-0.59531 -2.52819,0.17514 -1.93967,-1.07182 0.54756,-1.16018 0.27688,-0.52813 0.76372,-1.79552 1.04758,-2.78869 2.3015,-5.51416 3.61876,-8.20925 0.76724,-1.57098 1.67169,-3.16414 3.33154,-4.1071 1.34175,-0.38941 2.39711,-0.0124 3.41815,0.75381 0.66477,0.51046 1.13501,1.17634 1.50704,1.87624 0.62359,1.74773 0.56668,3.62628 0.60677,5.44164 0.24517,2.11853 0.56013,4.39715 1.98789,6.16416 1.35651,1.25546 3.25836,1.54887 5.12565,1.31289 0.88094,-0.0732 1.64408,-0.39565 2.42045,-0.73882 1.6545,-0.71486 2.78912,1.36994 1.13463,2.08481 l 0,0 c -1.0401,0.44185 -2.08566,0.85099 -3.25008,0.95501 -2.87835,0.26271 -5.62923,-0.28008 -7.58655,-2.31834 -1.6088,-2.21714 -2.23631,-4.794 -2.43189,-7.41438 -0.033,-1.51344 0.004,-3.06456 -0.38336,-4.54639 -0.21765,-0.5222 -0.45276,-0.74577 -0.81986,-1.05533 -0.21573,-0.16832 -0.72092,-0.33138 -0.38633,-0.53097 -1.22259,0.55678 -1.68683,2.06095 -2.29027,3.0486 -1.292,2.6385 -2.51775,5.3086 -3.54439,8.03926 -0.0514,0.13171 -1.05072,2.60357 -1.16251,2.63396 -0.8365,0.22733 -1.74609,0.097 -2.62035,0.11727 -0.0504,10e-4 0.0243,-0.14587 -0.0362,-0.13076 -0.17251,-0.68418 -0.31078,-1.37487 -0.45121,-2.06468 -0.41899,-2.195 -0.5465,-4.3933 -0.61375,-6.61812 -0.17352,-2.03738 -0.29671,-4.15973 -1.19771,-6.06407 -0.82232,-1.4654 1.50355,-2.50159 2.32587,-1.03619 z"
       inkscape:connector-curvature="0" />
    <path
       style="fill:#000000;fill-opacity:1;fill-rule:nonzero;stroke:none"
       id="path5433"
       d="m 91.439724,177.19689 c 0.55376,3.13494 0.60003,6.32232 0.69042,9.48864 0.0862,3.66959 0.098,7.3401 0.1037,11.01035 -0.26352,1.02193 0.24225,1.98676 0.34712,2.96884 0.0105,0.0983 -10e-4,-0.26137 -0.11006,-0.27964 -0.65082,-0.10911 -1.32339,-0.0478 -1.98508,-0.0716 -0.26439,-0.0233 0.20226,-2.0197 0.212,-2.09332 0.23116,-1.74806 0.46706,-3.47333 0.7915,-5.21131 0.87111,-3.9135 1.99339,-7.78109 3.508,-11.53632 0.58841,-0.90787 0.89783,-3.51672 2.03892,-4.06897 0.38734,-0.18745 0.84457,-0.22522 1.26685,-0.33783 0.36691,0.15248 0.79364,0.22238 1.10074,0.45744 1.368636,1.04752 1.673466,4.40945 1.897986,5.88255 0.3517,3.00568 0.4191,6.03001 0.46322,9.0494 0.002,0.31903 -0.0131,0.63863 0.008,0.9571 0.12746,1.88735 0.96107,0.56517 -1.37146,0.33856 1.06107,-2.61674 2.67679,-5.01473 4.31263,-7.37148 1.79121,-2.3489 3.67808,-4.81976 6.36888,-6.41781 3.56996,-1.17264 3.54766,2.84099 3.65962,4.89099 0.29732,2.55804 0.3623,5.14114 0.97428,7.65993 0.17544,0.33749 0.26832,0.75459 0.64524,0.95842 1.29014,1.1674 -0.56276,2.79307 -1.85289,1.62567 l 0,0 c -0.63583,-0.64099 -1.09406,-1.24648 -1.33482,-2.09777 -0.63248,-2.64477 -0.73585,-5.34949 -1.02925,-8.03577 -0.0146,-0.27905 -0.31787,-2.6575 -0.26626,-2.89663 0.01,-0.0442 0.45152,-0.0347 0.79054,-0.13573 0.0573,-0.0171 -0.11988,-0.0136 -0.17982,-0.0203 -2.41651,1.30352 -3.93504,3.72138 -5.5647,5.68892 -1.68113,2.41557 -3.23251,4.88967 -4.4304,7.52658 -0.31602,0.27447 -0.51012,0.77476 -0.94804,0.82343 -2.546906,0.28305 -2.352586,-2.03369 -2.382116,-3.46394 -0.0426,-2.926 -0.10658,-5.85665 -0.44013,-8.76991 -0.1615,-1.07574 -0.20312,-1.51896 -0.45206,-2.56085 -0.1373,-0.57471 -0.41416,-1.11931 -0.53672,-1.69667 -0.0341,-0.16072 0.78142,-0.20718 0.54422,-0.0752 0.96768,-0.55565 0.52659,-0.44911 0.32158,-0.0219 -0.45127,0.94032 -0.70492,1.95611 -1.15757,2.89619 -1.4648,3.62345 -2.54235,7.3574 -3.38988,11.13307 -0.51449,2.74149 -0.68224,5.53319 -1.42427,8.23436 -0.73185,0.0672 -1.46913,0.3056 -2.19554,0.20167 -0.61708,-0.0883 -0.87852,-3.69846 -0.80105,-4.12689 -0.006,-3.6517 -0.0173,-7.30367 -0.10286,-10.95472 -0.0864,-3.03385 -0.12888,-6.0872 -0.64076,-9.09307 -0.36062,-1.60654 2.18929,-2.06094 2.5499,-0.4544 z"
       inkscape:connector-curvature="0" />
    <path
       style="fill:#000000;fill-opacity:1;fill-rule:nonzero;stroke:none"
       id="path5435"
       d="m 124.37814,180.28621 c 0.39765,2.91668 0.64652,5.84179 1.17069,8.7454 0.37161,1.42353 0.3709,3.26722 1.55736,4.42556 0.40422,0.39464 0.36723,0.2614 0.42051,0.023 1.16328,-1.98322 1.95958,-4.10217 2.71293,-6.23746 0.84951,-2.57833 1.42266,-5.2209 1.76417,-7.88882 0.15633,-0.55539 -0.12639,-1.87022 0.50361,-2.28148 0.40389,-0.26366 0.95757,-0.26103 1.43635,-0.39155 0.31669,0.22593 0.704,0.39039 0.95007,0.67779 0.62328,0.72796 1.23456,5.43123 1.37709,6.31437 0.75857,5.70971 0.97114,11.45663 0.61671,17.19423 -0.49746,4.25826 -1.11422,8.75224 -3.57616,12.52962 -0.37994,0.58294 -0.85844,1.11025 -1.28766,1.66538 -2.24894,2.22981 -5.3206,3.87613 -8.48198,1.77253 -0.55193,-0.36725 -0.95235,-0.88701 -1.42853,-1.33052 -2.60438,-4.06261 -1.4584,-7.91724 0.6411,-11.89684 0.78991,-1.47948 3.13814,-0.48412 2.34822,0.99536 l 0,0 c -1.59985,2.9553 -2.78647,6.21819 -1.05167,9.35624 2.14305,2.38821 3.56834,1.82075 5.841,-0.22353 3.16407,-3.97017 3.90655,-8.22684 4.39928,-12.99672 0.35131,-5.58469 0.13533,-11.17842 -0.59435,-16.73665 -0.24276,-1.51073 -0.48612,-3.02571 -0.81876,-4.52361 -0.0612,-0.27554 -0.4442,-0.92457 -0.14637,-0.83251 0.23536,0.0728 0.44468,0.20027 0.66702,0.30039 1.74575,-0.6724 0.84294,-0.007 1.32733,-1.00214 0.0331,-0.068 -0.005,0.14817 -0.009,0.22219 -0.0259,0.48472 -0.0747,0.96825 -0.13009,1.45092 -0.36267,2.81408 -0.96662,5.60172 -1.86712,8.32056 -0.7029,1.99002 -1.94092,6.23881 -4.02829,7.42211 -0.43504,0.24662 -0.98202,0.28056 -1.47302,0.42084 -0.46459,-0.11169 -0.96843,-0.13456 -1.39378,-0.33507 -2.08836,-0.98449 -2.44543,-4.2701 -2.84395,-6.04762 -0.51499,-2.87447 -0.78724,-5.76757 -1.15294,-8.65756 -0.36061,-1.60654 2.18929,-2.06094 2.54991,-0.4544 z"
       inkscape:connector-curvature="0" />
    <path
       style="fill:#000000;fill-opacity:1;fill-rule:nonzero;stroke:none"
       id="path5437"
       d="m 146.70759,179.96828 c -0.45711,2.32409 -1.0658,4.6184 -1.16597,6.98339 0.0577,1.28154 0.59934,3.03141 2.39895,2.70546 1.99346,-0.58158 2.89795,-2.41711 3.70061,-3.99683 0.89035,-2.00264 1.12884,-4.0296 0.0854,-6.00164 -0.86182,-1.17421 -2.37366,-1.34497 -3.82483,-1.50969 -0.72304,-0.23843 -1.75065,0.43184 -1.14062,0.053 -0.98428,1.38386 -3.18075,0.14359 -2.19646,-1.24027 l 0,0 c 0.96277,-0.98939 2.19997,-1.30899 3.67887,-1.10963 2.38499,0.29049 4.61307,0.86428 5.86208,2.87111 1.24498,2.62858 1.13439,5.25813 -0.0997,7.90086 -1.26938,2.45143 -2.825,4.85167 -6.06706,5.35007 -0.51425,-0.0316 -1.04457,0.0232 -1.54274,-0.0948 -2.517,-0.59619 -3.367,-2.98222 -3.45262,-5.02526 0.12805,-2.48443 0.71086,-4.89981 1.21415,-7.34014 0.36061,-1.60654 2.91051,-1.15215 2.54991,0.4544 z"
       inkscape:connector-curvature="0" />
    <path
       style="fill:#000000;fill-opacity:1;fill-rule:nonzero;stroke:none"
       id="path5439"
       d="m 165.82111,175.80368 c -1.43117,0.15302 -2.89031,0.41133 -4.0594,1.19944 -0.61953,0.50214 -1.1737,1.00737 -0.55513,1.67487 1.27299,1.20233 3.13522,1.84721 4.77359,2.58032 2.35881,0.83831 3.80658,1.81937 4.6949,3.96364 0.53602,2.86374 -0.84703,4.39027 -3.5907,5.66304 -2.67794,0.98617 -4.90117,1.11432 -7.527,-0.0109 -1.60771,-0.95163 -1.80253,-1.85067 -1.34046,-3.442 0.60908,-1.54587 3.06268,-0.77838 2.4536,0.76748 l 0,0 c -0.33534,0.23705 -0.4143,0.29053 0.0431,0.59916 1.73521,0.80514 3.4127,0.68162 5.21534,0.0105 1.42299,-0.58077 2.46883,-1.31401 2.28364,-2.84279 -0.47118,-1.48252 -1.86365,-2.08681 -3.39948,-2.63764 -2.1406,-0.95796 -4.55299,-1.81169 -5.94446,-3.63646 -0.94132,-2.0352 -0.43046,-3.2038 1.39862,-4.58541 1.66564,-0.99919 3.54841,-1.49898 5.55385,-1.6203 1.83876,0 1.83876,2.317 0,2.317 z"
       inkscape:connector-curvature="0" />
    <path
       style="fill:#000000;fill-opacity:1;fill-rule:nonzero;stroke:none"
       id="path5441"
       d="m 180.7066,178.59539 c 0.51761,2.3925 0.59768,4.84135 0.70344,7.27006 0.0636,1.73074 0.0949,3.46234 0.10424,5.19395 1.3e-4,0.0596 2.7e-4,0.11915 4e-4,0.17873 0.004,1.63835 -2.5968,1.64289 -2.6004,0.004 l 0,0 c -1.2e-4,-0.0574 -2.5e-4,-0.11476 -3.7e-4,-0.17215 -0.009,-1.7054 -0.04,-3.41082 -0.10232,-5.11537 -0.0985,-2.27018 -0.1722,-4.55759 -0.62775,-6.7978 -0.44596,-1.58944 2.0768,-2.1514 2.52276,-0.56195 z"
       inkscape:connector-curvature="0" />
    <path
       style="fill:#000000;fill-opacity:1;fill-rule:nonzero;stroke:none"
       id="path5443"
       d="m 179.05064,172.45 c 0.30382,-1.53375 1.11751,-2.92992 1.92911,-4.29216 0.20281,-0.33469 0.4148,-0.66491 0.64095,-0.98751 0.9763,-1.38834 3.17987,-0.15811 2.20357,1.23024 l 0,0 c -0.19448,0.27533 -0.37357,0.55897 -0.54824,0.84458 -0.71432,1.19624 -1.44873,2.41554 -1.70263,3.76681 -0.44596,1.58944 -2.96873,1.02749 -2.52276,-0.56196 z"
       inkscape:connector-curvature="0" />
    <path
       style="fill:#000000;fill-opacity:1;fill-rule:nonzero;stroke:none"
       id="path5445"
       d="m 189.38818,178.74155 c 0.46647,2.75658 0.58017,5.54817 0.69004,8.33039 0.0534,1.65432 0.0929,3.30913 0.10406,4.96413 -0.0503,-1.47006 -1.15135,-0.67722 -1.90652,-0.65755 -0.0899,0.002 0.0888,-0.13943 0.13825,-0.20632 0.62682,-0.84771 0.13099,-0.11217 0.69096,-0.97567 1.02984,-1.89589 1.98341,-3.81623 3.12775,-5.66337 1.65916,-2.24866 3.5727,-4.31626 5.87829,-6.05614 1.04564,-0.62475 2.52853,-2.10995 3.97459,-1.39873 0.3471,0.17072 0.52195,0.53188 0.78293,0.79783 0.53586,1.80213 0.2654,3.68836 0.44487,5.52984 0.2078,1.96861 0.62939,3.94975 1.82194,5.64111 0.84471,0.90163 1.98796,1.37929 3.28337,1.09554 0.19792,-0.0575 0.39583,-0.11507 0.59375,-0.17261 1.75772,-0.48105 2.52124,1.73382 0.76352,2.21487 l 0,0 c -0.30684,0.0806 -0.61369,0.16121 -0.92053,0.24182 -2.53988,0.30817 -4.35008,-0.3612 -5.94364,-2.17824 -1.34883,-2.03228 -1.98377,-4.30098 -2.18993,-6.65119 -0.13772,-1.54342 -0.11883,-3.10105 -0.1558,-4.64423 0.57979,0.30506 0.35427,0.29101 1.10439,0.19194 0.20145,-0.0266 -1.8693,0.88132 -1.88599,1.10549 -2.0774,1.54268 -3.75957,3.41467 -5.27614,5.40398 -1.15796,1.86209 -2.09633,3.8091 -3.15874,5.71191 -0.20687,0.31218 -0.69914,1.2874 -1.07829,1.49775 -1.47963,0.82089 -2.27156,0.7142 -2.68939,-0.81418 -0.0109,-1.6325 -0.0501,-3.26478 -0.10249,-4.89661 -0.10467,-2.6573 -0.21272,-5.32263 -0.64116,-7.95736 -0.3606,-1.60654 2.18929,-2.06095 2.54991,-0.4544 z"
       inkscape:connector-curvature="0" />
    <path
       style="fill:#000000;fill-opacity:1;fill-rule:nonzero;stroke:none"
       id="path5447"
       d="m 106.16176,207.94395 c 0.56588,2.27293 0.6184,4.61648 0.70372,6.93391 0.0126,4.81593 0.38897,9.62098 0.62486,14.43058 0.16841,3.66316 0.26687,7.32855 0.33039,10.99423 -0.01,1.38572 0.60899,0.70857 -1.19601,0.21052 -0.1659,-0.0458 -0.3279,0.1984 -0.49298,0.15029 -0.0996,-0.029 0.0498,-0.18146 0.0748,-0.27218 0.98722,-2.1938 1.91802,-4.36807 3.18556,-6.4501 1.34795,-2.19377 3.10629,-4.12223 4.99606,-5.95278 0.91477,-0.79129 1.86988,-1.5456 3.1008,-1.8905 2.04831,-0.45535 2.73957,1.33205 3.05236,2.73465 0.33483,2.40503 0.73256,4.80222 1.15931,7.19585 0.45264,2.21311 1.17603,4.41506 3.03597,6.00759 0.71604,0.53854 1.25798,0.51607 2.07489,0.24551 1.77443,-0.42958 2.45626,1.80635 0.68182,2.23592 l 0,0 c -1.75339,0.35931 -3.19149,0.28089 -4.59771,-0.84508 -2.18604,-2.00822 -3.26212,-4.53524 -3.76317,-7.28043 -0.42268,-2.37085 -0.82006,-4.74533 -1.14603,-7.12795 -0.083,-0.41979 -0.42488,-0.87632 0.073,-0.90935 0.0547,-0.004 0.53308,-0.0958 0.16047,-0.0331 -0.77084,0.15799 -1.31752,0.81966 -1.91799,1.23567 -1.74554,1.69018 -3.37957,3.46336 -4.62506,5.49056 -1.22617,2.00546 -2.1053,4.10702 -3.06339,6.2207 -0.23602,0.45296 -0.60231,1.46776 -1.37965,1.49731 -1.88021,0.0715 -2.01196,-1.2668 -2.01308,-2.42731 -0.0631,-3.64389 -0.16091,-7.28749 -0.32822,-10.92886 -0.23621,-4.81806 -0.61303,-9.63164 -0.62595,-14.45604 -0.0787,-2.15366 -0.1191,-4.33253 -0.62747,-6.44764 -0.44597,-1.58945 2.07679,-2.1514 2.52276,-0.56195 z"
       inkscape:connector-curvature="0" />
    <path
       style="fill:#000000;fill-opacity:1;fill-rule:nonzero;stroke:none"
       id="path5449"
       d="m 131.79691,232.49086 c 1.76184,0.6418 3.582,0.79797 5.35092,0.1417 1.68939,-1.04157 2.27507,-2.85097 2.41993,-4.59453 -0.21308,-1.59991 -0.5187,-1.98388 -2.23847,-1.75618 -2.88835,0.97719 -4.3518,3.60732 -5.28212,6.05766 -0.76706,3.87116 0.0821,5.80507 3.67404,8.02047 1.99413,1.08565 4.08705,1.20181 6.34223,1.02534 1.83339,-0.12514 2.032,2.18509 0.19861,2.31022 l 0,0 c -2.87538,0.17373 -5.54547,-0.0335 -8.05493,-1.45183 -0.60803,-0.39811 -1.268,-0.73991 -1.82407,-1.19434 -3.0425,-2.48636 -3.69434,-6.01163 -2.79125,-9.47284 1.36779,-3.41081 3.36414,-6.58066 7.54271,-7.60516 0.47496,-0.0166 0.95312,-0.10159 1.42485,-0.0497 2.55646,0.28119 3.52481,2.27328 3.59794,4.32795 -0.31044,2.65655 -1.33374,5.17457 -4.08715,6.5493 -2.58702,0.82268 -4.90486,0.72881 -7.43617,-0.23567 -1.64464,-0.7327 -0.4817,-2.80508 1.16293,-2.07238 z"
       inkscape:connector-curvature="0" />
    <path
       style="fill:#000000;fill-opacity:1;fill-rule:nonzero;stroke:none"
       id="path5451"
       d="m 156.07464,227.42283 c -1.98568,-0.11909 -3.2093,1.15619 -4.3047,2.44045 -1.34039,1.86374 -1.9411,3.84029 -1.02876,5.93966 0.66937,1.02472 1.7503,1.65052 3.08206,1.39886 1.73127,-0.60641 2.45443,-2.35807 3.07688,-3.79179 0.76293,-1.99774 1.02987,-4.03662 0.78797,-6.12584 -0.22181,-1.56453 -0.96469,-1.38068 1.74035,-0.7031 -0.17377,1.30191 -0.31396,2.93345 -0.26004,4.35549 0.21791,2.59744 1.34861,4.91498 3.34649,6.80043 0.64673,0.43826 1.38326,0.96547 2.20374,1.13069 0.11196,0.0226 0.37764,-0.1228 0.16888,-0.21762 1.38282,-1.07987 3.09679,0.6626 1.71397,1.74247 l 0,0 c -0.28259,0.175 -0.53438,0.39827 -0.84775,0.52501 -1.85971,0.75219 -3.81601,-0.64126 -5.15022,-1.60955 -2.37777,-2.33744 -3.80702,-5.12341 -4.03437,-8.30283 -0.0582,-1.98725 -0.14287,-4.22606 0.96556,-6.01194 2.89323,0.31625 2.35118,-0.055 2.74083,2.05999 0.26935,2.4567 -0.0403,4.86367 -0.95575,7.20551 -1.01951,2.27505 -2.29894,4.58489 -5.18363,5.24324 -2.75586,0.20274 -4.54467,-0.73008 -5.84535,-2.9234 -1.14154,-3.03431 -0.51074,-5.46805 1.42577,-8.13694 1.85456,-2.09056 3.80035,-3.63786 6.98876,-3.2666 1.78386,0.39736 1.15317,2.64517 -0.63069,2.24781 z"
       inkscape:connector-curvature="0" />
    <path
       style="fill:#000000;fill-opacity:1;fill-rule:nonzero;stroke:none"
       id="path5457"
       d="m 182.10867,225.29528 c -2.20677,0.69124 -4.30114,1.63603 -6.18657,2.8676 -2.52117,1.92214 -3.88642,4.59063 -4.80185,7.3681 -0.24353,1.91058 -0.17073,4.09125 2.53202,4.08955 3.92342,-1.3018 5.95972,-4.94506 7.72677,-8.07271 2.49312,-5.1037 3.10065,-10.62904 3.20176,-16.13021 -0.12964,-2.82518 -0.53595,-5.72452 -1.6288,-8.39877 0.14289,0.71685 -0.11112,-0.1872 1.58604,0.43015 0.0719,0.0261 -0.2775,0.77626 -0.46612,1.25336 -0.64244,1.62505 -0.47209,1.20063 -1.01697,2.96895 -1.48095,4.46265 -1.86484,8.70654 -1.43283,13.32318 0.55839,3.9972 2.31962,7.47411 5.31458,10.45484 1.2784,1.12793 2.81515,1.87737 4.57356,2.17541 1.80371,0.31839 1.29837,2.59121 -0.50533,2.27282 l 0,0 c -2.31424,-0.42002 -4.34556,-1.40139 -6.01376,-2.91087 -3.4198,-3.46363 -5.3016,-7.19321 -5.96079,-11.80333 -0.44505,-4.93734 -0.0531,-9.35594 1.51783,-14.12828 0.20504,-0.65916 1.44258,-4.92703 2.15933,-5.25176 0.62595,-0.2836 1.39678,-0.36319 2.08771,-0.2514 0.32157,0.052 0.40364,0.4581 0.60546,0.68715 1.16605,2.94891 1.676,6.10384 1.78012,9.21761 -0.11377,5.85183 -0.7951,11.72164 -3.48158,17.13736 -1.89522,3.32072 -4.24308,7.48097 -8.42697,8.94179 -0.62228,0.21727 -1.30578,0.25465 -1.95867,0.38197 -0.59286,-0.10056 -1.21795,-0.10261 -1.77857,-0.30169 -3.05616,-1.08526 -3.36292,-4.27221 -2.90724,-6.74577 1.10239,-3.26535 2.75601,-6.36508 5.76924,-8.58414 2.01146,-1.28449 4.19735,-2.35249 6.5487,-3.06329 1.64463,-0.7327 2.80756,1.33968 1.16293,2.07238 z"
       inkscape:connector-curvature="0" />
    <path
       style="fill:#000000;fill-opacity:1;fill-rule:nonzero;stroke:none"
       id="path5461"
       d="m 214.19568,181.84331 c 5.11051,-0.88054 9.86541,-2.8868 14.61311,-4.89175 7.22775,-3.00133 14.46184,-6.02426 21.88936,-8.49858 7.16436,-2.41822 14.54864,-4.09989 22.02187,-5.20555 5.50842,-0.72496 11.06638,-0.87938 16.61477,-0.94476 3.34533,-0.0232 6.69073,0.002 10.03605,0.0164 3.17967,-0.005 6.34464,0.5704 9.39165,1.44965 1.20594,0.3934 2.42394,0.77987 3.57012,1.33013 0.60463,0.29632 -0.24085,0.0275 0.56326,0.0227 0.98529,-0.006 0.99358,1.38755 0.008,1.39341 l 0,0 c -0.40856,0.002 -1.06343,-0.0566 -1.17666,-0.16093 -1.07393,-0.52045 -2.22299,-0.87114 -3.3521,-1.24672 -2.92239,-0.84702 -5.9602,-1.40019 -9.01048,-1.39482 -3.33788,-0.0142 -6.67584,-0.0394 -10.01374,-0.0164 -5.48571,0.0645 -10.98096,0.2153 -16.42743,0.92989 -7.39329,1.09161 -14.69797,2.75768 -21.78546,5.14919 -7.394,2.45987 -14.59237,5.47539 -21.78748,8.46017 -4.91544,2.07519 -9.84859,4.15943 -15.15513,5.0015 -0.9853,0 -0.9853,-1.39344 0,-1.39344 z"
       inkscape:connector-curvature="0" />
    <path
       style="fill:#000000;fill-opacity:1;fill-rule:nonzero;stroke:none"
       id="path5469"
       d="m 435.79013,356.28254 c -2.87916,1.40727 -5.81314,1.1878 -8.68212,-0.0499 -3.03859,-1.85299 -5.59518,-4.42773 -7.90772,-7.10958 -2.26891,-2.52671 -3.80952,-5.50879 -5.23946,-8.5525 -1.29064,-2.65558 -1.77744,-5.53807 -2.06966,-8.44525 -0.17403,-2.16985 -0.16132,-4.34837 -0.1563,-6.52339 0.009,-2.084 0.0172,-4.168 0.0217,-6.25201 -0.19554,-1.87789 0.46485,-3.62762 0.85935,-5.42927 0.20431,-1.89968 0.68182,-3.70601 1.174,-5.54605 0.26392,-1.03665 0.51466,-2.077 0.73328,-3.12422 0.009,-0.0308 0.0373,-0.19501 0.0411,-0.21484 0.12878,-0.97685 1.51026,-0.79473 1.38148,0.18213 l 0,0 c -0.0183,0.10605 -0.0338,0.21269 -0.0586,0.31759 -0.2241,1.07256 -0.48052,2.13821 -0.75129,3.19986 -0.48849,1.82135 -0.95898,3.60238 -1.15904,5.48467 -0.3767,1.70774 -1.01516,3.35314 -0.82687,5.13315 -0.005,2.08408 -0.013,4.16815 -0.0217,6.25221 -0.005,2.12757 -0.0183,4.25854 0.14936,6.38122 0.27477,2.75034 0.72147,5.47905 1.94436,7.9917 1.37622,2.92948 2.84701,5.80562 5.03453,8.23617 2.17285,2.53115 4.58483,4.95019 7.41367,6.74343 2.46575,1.11561 5.00628,1.28838 7.49675,0.0786 0.88129,-0.44064 1.50445,0.80568 0.62316,1.24633 z"
       inkscape:connector-curvature="0" />
    <path
       style="fill:#000000;fill-opacity:1;fill-rule:nonzero;stroke:none"
       id="path5473"
       d="m 634.86296,191.5974 c 0.78864,4.70666 -0.0452,9.54661 -0.73139,14.2188 -0.73103,7.12005 -2.87512,13.89693 -6.12031,20.24828 -3.05365,5.35948 -7.2859,9.77763 -12.21921,13.41934 -3.12899,2.16928 -6.5902,3.74218 -10.25072,4.75051 -0.74978,0.14839 -1.51382,0.41577 -2.28946,0.36939 1.01469,-0.63163 0.69984,-0.20114 0.76744,0.43911 0.002,0.0111 0.004,0.0221 0.006,0.0331 0.23471,0.95694 -1.11861,1.28889 -1.35333,0.33194 l 0,0 c -0.012,-0.0662 -0.0313,-0.13138 -0.0361,-0.19895 -0.0916,-0.90909 -0.10724,-1.23921 0.74374,-1.99282 0.52338,-0.0287 1.24192,-0.17928 1.7925,-0.32544 3.49708,-0.95875 6.80223,-2.46195 9.79344,-4.52871 4.76601,-3.50463 8.84751,-7.77105 11.80554,-12.93276 3.18887,-6.20994 5.26455,-12.84997 5.98192,-19.81575 0.66442,-4.51304 1.4855,-9.19467 0.74362,-13.74281 -0.19323,-0.96618 1.17314,-1.23945 1.36638,-0.27328 z"
       inkscape:connector-curvature="0" />
  </g>
</svg>
