<?xml version="1.0" encoding="UTF-8" standalone="no"?>
<!-- Created with Inkscape (http://www.inkscape.org/) -->

<svg
   xmlns:dc="http://purl.org/dc/elements/1.1/"
   xmlns:cc="http://creativecommons.org/ns#"
   xmlns:rdf="http://www.w3.org/1999/02/22-rdf-syntax-ns#"
   xmlns:svg="http://www.w3.org/2000/svg"
   xmlns="http://www.w3.org/2000/svg"
   xmlns:sodipodi="http://sodipodi.sourceforge.net/DTD/sodipodi-0.dtd"
   xmlns:inkscape="http://www.inkscape.org/namespaces/inkscape"
   width="439.87018"
   height="318.66855"
   id="svg21338"
   version="1.1"
   inkscape:version="0.48.0 r9654"
   sodipodi:docname="ScaledPerson.svg">
  <defs
     id="defs21340" />
  <sodipodi:namedview
     inkscape:document-units="mm"
     pagecolor="#ffffff"
     bordercolor="#666666"
     borderopacity="1.0"
     inkscape:pageopacity="0.0"
     inkscape:pageshadow="2"
     inkscape:zoom="1.0149115"
     inkscape:cx="503.45548"
     inkscape:cy="169.35692"
     inkscape:current-layer="layer1"
     id="namedview21342"
     showgrid="false"
     showguides="true"
     inkscape:guide-bbox="true"
     fit-margin-top="0"
     fit-margin-left="0"
     fit-margin-right="0"
     fit-margin-bottom="0"
     inkscape:window-width="1280"
     inkscape:window-height="752"
     inkscape:window-x="0"
     inkscape:window-y="0"
     inkscape:window-maximized="1" />
  <metadata
     id="metadata21344">
    <rdf:RDF>
      <cc:Work
         rdf:about="">
        <dc:format>image/svg+xml</dc:format>
        <dc:type
           rdf:resource="http://purl.org/dc/dcmitype/StillImage" />
        <dc:title></dc:title>
      </cc:Work>
    </rdf:RDF>
  </metadata>
  <g
     inkscape:label="Layer 1"
     inkscape:groupmode="layer"
     id="layer1"
     transform="translate(137.5705,-210.10795)">
    <path
       style="fill:#000000;fill-opacity:1;fill-rule:nonzero;stroke:none"
       id="path21865"
       d="m -10.637016,328.62377 c -1.48497,2.34706 -3.083,4.61748 -4.80427,6.79704 -1.17894,1.67137 -2.65663,3.15771 -3.68921,4.92585 -1.21624,1.89211 -2.53236,3.71982 -3.69505,5.64846 -0.87355,1.64419 -1.69165,3.3409 -2.38091,5.07071 -0.64323,1.63372 -1.58566,3.18258 -1.9664,4.90559 -0.26549,1.40275 -0.40314,2.79361 -0.7863,4.17201 -0.48996,1.87694 -0.86104,3.78054 -1.26262,5.68037 -0.38591,1.17643 0.0122,2.2656 0.16149,3.4389 0.11237,1.72692 0.0983,3.46776 -0.005,5.19562 -0.19886,1.4556 0.0507,2.87783 0.13948,4.32136 -0.0125,1.45814 0.25767,2.87425 0.30873,4.33165 0.20658,1.47342 -0.0184,2.96859 0.15718,4.44272 0.13895,1.21511 0.65069,2.31873 0.94176,3.49752 0.15232,1.63249 0.70843,3.1749 0.87225,4.79707 0.0134,1.02258 -0.0432,2.01889 0.28867,2.99531 0.27754,0.82106 0.65902,1.6006 1.04089,2.37683 0.29325,1.10445 0.0966,2.14031 -0.0324,3.2346 0.003,-0.62777 0.2217,0.2275 0.29863,0.41066 0.025,0.0568 0.12103,0.23564 0.23679,0.46299 0.33585,0.44427 0.48242,1.63712 -0.7708,-0.56334 -0.25608,-0.44969 0.69494,0.3123 1.34453,0.66532 0.87862,0.4571 1.48775,1.25946 2.02975,2.06208 0.62209,0.86946 0.80527,1.86418 0.90258,2.91405 0.27269,2.94331 -3.8898,3.32894 -4.16248,0.38562 l 0,0 c -0.14054,-1.51756 0.35925,0.41015 -0.21228,-0.9718 -0.28193,-0.42601 -0.35339,-0.61567 -0.55679,-0.7187 -0.86047,-0.46976 -1.91497,-0.93107 -2.3024,-1.88173 -0.11866,-0.23315 -0.24177,-0.464 -0.34874,-0.70285 -0.34758,-0.81509 -0.62839,-1.65047 -0.61008,-2.55179 0.061,-0.5178 0.13395,-2.82568 0.43255,-0.90087 -0.47907,-0.97501 -0.94926,-1.95798 -1.28539,-2.9934 -0.38518,-1.3183 -0.51429,-2.64035 -0.46777,-4.01313 0.27809,-0.93696 -1.00679,-2.99895 -0.78238,-4.12024 -0.18207,-1.3355 -1.05422,-2.56676 -1.01633,-3.96999 -0.1395,-1.57592 0.01,-3.14083 -0.1752,-4.71105 -0.0502,-1.43894 -0.33378,-2.83899 -0.30697,-4.28754 -0.0195,-1.59918 -0.40657,-3.20347 -0.13261,-4.81718 0.1433,-1.47506 0.0781,-2.97166 0.0177,-4.4458 -0.0939,-1.5901 -0.70194,-3.14785 -0.0947,-4.74774 0.42213,-1.9961 0.82849,-3.99114 1.33353,-5.96576 0.38941,-1.30354 0.42915,-2.65263 0.73614,-3.97948 0.4717,-1.93248 1.38621,-3.70824 2.16597,-5.52955 0.80021,-1.92347 1.66404,-3.83641 2.67721,-5.65865 1.17483,-1.92404 2.47144,-3.76849 3.69942,-5.65566 1.17996,-1.88342 2.6497,-3.56224 3.9787,-5.34154 1.70242,-2.15135 3.26168,-4.40457 4.74071,-6.71454 1.77473,-2.36385 5.11772,0.14601 3.34298,2.50986 z"
       inkscape:connector-curvature="0" />
    <path
       style="fill:#000000;fill-opacity:1;fill-rule:nonzero;stroke:none"
       id="path21871"
       d="m -22.330146,406.94025 c 1.82326,2.48713 4.4638,4.13569 7.16601,5.52104 5.19226,2.14369 10.58582,3.80746 15.99103003,5.33347 4.31745997,1.16595 8.63457997,2.38584 12.77304997,4.09397 1.06436,0.48727 2.16175,0.93984 3.13413,1.60121 10.81139,8.60363 -14.17094,1.69643 -1.4266,-0.32873 0.13327,1.0554 0.7871,9.95477 -0.13045,0.0213 3.13454,-0.34347 2.47704,3.34019 2.17735,4.85765 -1.0176,4.42688 -1.8604,8.87052 -2.45407,13.37969 -0.81054,6.06 -0.69293,12.19112 -0.30524,18.27804 0.38421,3.89109 0.34484,7.81022 0.61617,11.70569 0.27334,1.63427 0.4181,3.08295 -0.52939,4.53221 -0.46759,0.59862 -1.06382,1.00389 -1.78566,1.21731 -4.78269,0.13617 0.0321,-2.50963 1.11385,-3.37861 -5.405,0.49613 -1.41007,-0.94701 0.0102,-0.77208 0.099,0.0122 1.90113,0.47083 2.20296,0.54725 2.36489,0.68731 4.78902,1.15306 7.24287,1.36313 1.35719,0.12591 2.72146,-0.0535 4.04055,-0.37373 1.31532,-0.65908 2.92123,3.26991 1.30547,4.04918 -2.66263,1.28371 -4.47808,-2.48178 -1.81545,-3.76551 l 0,0 c 1.89867,-0.91517 3.89958,3.83366 1.48007,3.78251 -1.76159,0.4152 -3.57724,0.63828 -5.38722,0.47085 -2.67177,-0.2519 -5.31981,-0.71752 -7.89715,-1.47523 -3.97144,-1.01499 2.21012,-0.77572 -4.06303,-0.79717 0.48117,-0.58141 5.08586,-4.37742 0.80134,-3.71785 -0.24617,0.078 -0.49062,0.15245 -0.62482,0.38478 -0.23145,1.81714 0.0314,-1.53612 -0.26536,-1.78572 -0.256,-3.90375 -0.24365,-7.82591 -0.61741,-11.72469 -0.39483,-6.3574 -0.52034,-12.75876 0.33295,-19.08734 0.60847,-4.59945 1.46742,-9.13333 2.49876,-13.64982 0.0654,-0.32472 0.13719,-0.64822 0.19627,-0.97415 0.0447,-0.24685 -0.11801,-0.83636 0.11514,-0.74375 4.02888,1.60049 3.3752,1.62567 2.27802,1.80411 -2.16021,-9.30365 -0.18377,-1.51157 0.11936,-0.0196 -0.54596,0.0867 -1.39247,-10.20673 -1.62914,-0.37687 -0.74061,-0.44623 -1.53696,-0.81704 -2.33321,-1.16163 -3.98408,-1.65438 -8.15413,-2.80067 -12.31044997,-3.93352 -5.67797003,-1.60417 -11.34987003,-3.34884 -16.78572003,-5.64876 -3.15455,-1.66367 -6.25364,-3.59678 -8.41043,-6.50978 -1.92257,-2.24526 1.25272,-4.96418 3.17529,-2.71891 z"
       inkscape:connector-curvature="0" />
    <path
       style="fill:#000000;fill-opacity:1;fill-rule:nonzero;stroke:none"
       id="path21875"
       d="m -22.607736,412.22623 c -1.72209,3.79459 -3.25905,7.66328 -4.71393,11.56696 -1.94508,5.18257 -3.28122,10.56384 -5.00018,15.81988 -1.38194,3.62701 -2.59859,7.29986 -3.46337,11.08477 -0.10541,-6.7e-4 -0.28057,1.95025 -0.26827,1.29359 -5.48407,-1.68676 -4.39841,-1.8917 -0.21919,1.04433 0.0627,0.044 -0.57227,0.63454 -0.8562,0.92177 -0.46908,0.31103 -0.99388,0.50526 -1.52709,0.67048 -0.87778,0.29888 -1.70568,-0.14891 -2.45278,-0.57121 -2.88138,-1.92191 -6.096701,-3.23393 -9.220651,-4.69692 -4.63551,-1.89368 -9.236921,-3.86851 -13.884431,-5.73305 -2.551667,-0.97711 -4.528077,-2.5437 -6.085467,-4.75825 -0.70542,-1.07557 -1.26688,-2.23442 -1.80538,-3.39973 -0.12532,-0.27333 -0.24762,-0.548 -0.35707,-0.82806 -0.0132,-0.0398 -0.0267,-0.0794 -0.04,-0.11913 1.02772,0.41407 2.16157,0.62713 3.08317,1.24219 0.19177,0.12799 -0.33755,0.31533 -0.48919,0.48899 -0.15794,0.18092 -0.30234,0.37388 -0.43758,0.57233 -0.49816,0.73102 -0.66813,1.1128 -1.10012,1.92641 -1.33524,2.47442 -2.35864,5.0637 -3.23581,7.73016 -0.22765,0.7346 -0.46829,1.46699 -0.64747,2.21543 0.002,-0.009 0.004,-0.0173 0.006,-0.026 0.008,-0.0539 0.0158,-0.10781 0.0236,-0.16176 -0.27778,2.94284 -4.43959,2.54999 -4.1618,-0.39285 l 0,0 c 0.099,-0.73552 -0.0279,0.17493 0.0543,-0.34126 0.20248,-0.88015 0.48903,-1.73878 0.75433,-2.60111 0.95497,-2.8967 2.08032,-5.70943 3.52378,-8.40087 0.25723,-0.47438 2.26503,-4.01044 2.80007,-4.01116 1.27033,-0.002 4.30702,1.75828 3.78685,0.42818 0.008,0.0187 0.18393,0.4319 0.23169,0.52596 0.438,0.94917 0.88855,1.89618 1.45154,2.77913 1.05272,1.5757 2.411127,2.56739 4.200707,3.25175 4.72048,1.89401 9.395291,3.89735 14.101071,5.82716 3.30729,1.54954 6.702931,2.95281 9.750051,4.99354 -0.32776,-5.7e-4 -0.67734,-0.0471 -1.0024,0.0419 0.0665,-0.0205 0.3254,-0.13579 0.25568,-0.0579 -0.14,0.17755 -0.2725,0.36128 -0.41994,0.53269 -0.0336,0.0392 0.0296,-0.15422 0.0772,-0.13437 5.83834,2.43305 4.34026,2.03482 -0.33242,1.26221 -0.003,-0.82944 0.20424,-1.63888 0.36791,-2.44756 0.89666,-3.90793 2.13379,-7.70939 3.56586,-11.45376 1.74352,-5.30645 3.07905,-10.74705 5.05554,-15.97805 1.43844,-3.85748 2.93443,-7.69319 4.66579,-11.43065 0.93614,-2.80376 4.90127,-1.47985 3.96512,1.32393 z"
       inkscape:connector-curvature="0" />
    <path
       style="fill:#000000;fill-opacity:1;fill-rule:nonzero;stroke:none"
       id="path21877"
       d="m -19.445966,338.0947 c 2.5175,6.07893 4.48539,12.3642 6.60434,18.58829 2.3397,6.49693 4.35522,13.10219 6.75502,19.57825 0.72988,1.87988 1.43155,3.7739 2.2513,5.6174 0.89065,1.04401 -2.60644,0.85988 -3.90657,1.29903 1.36468,-0.2971 2.71919,-0.64554 4.09404,-0.89128 0.42218,-0.0755 -3.13591,4.19202 -4.07627,0.95211 13.87628,-3.19797 -2.35108,1.68132 1.59724,-2.49747 2.75213,-3.38762 5.97284003,-6.35891 9.00824,-9.48963 3.55895,-3.96746 7.40948,-7.66267 11.552,-11.01432 1.56582,-1.23542 3.25713,-2.29209 5.02507,-3.2099 0.62049,-0.31097 1.24744,-0.60897 1.87879,-0.8972 1.13565,-0.71815 -0.52636,3.35088 -1.09949,2.12377 -1.23838,-2.68401 2.55734,-4.43537 3.79575,-1.75137 l 0,0 c 0.50196,1.09628 0.22181,2.96902 -0.96075,3.43062 -0.56835,0.25923 -1.13261,0.52748 -1.69171,0.80612 -1.51986,0.78502 -2.97244,1.69137 -4.31967,2.74889 -4.01452,3.24225 -7.73265,6.83196 -11.17896,10.6735 -3.05526,3.15023 -6.28756997,6.14237 -9.0637,9.54575 -0.23856,0.22956 -0.38455,0.69297 -0.71563,0.68884 -7.6086,-0.0948 -2.10002,-1.53017 0.18744,-2.32282 1.04663,3.60604 -4.3668,1.55758 -3.95239,1.38035 1.28562,-0.54979 2.61067,-1.00235 3.91601,-1.50351 0.49204,1.64178 -3.4989,3.44325 -3.91022,1.62457 -0.85319,-1.92475 -1.59244,-3.8981 -2.35052,-5.86134 -2.41127,-6.51145 -4.44285,-13.15035 -6.79231,-19.68323 -2.05831,-6.04673 -3.97957,-12.14742 -6.38697,-18.06782 -1.3206,-2.64451 2.41931,-4.51213 3.73991,-1.86761 z"
       inkscape:connector-curvature="0" />
    <path
       style="fill:#000000;fill-opacity:1;fill-rule:nonzero;stroke:none"
       id="path21879"
       d="m -24.549006,341.4191 c -4.41098,1.51413 -8.38775,4.176 -12.34565,6.60227 -4.95485,2.97925 -9.977801,5.81006 -14.637361,9.24314 -0.80686,0.67195 -1.7962,1.31239 -2.50473,2.05444 0.0481,-0.0589 0.18305,-0.11131 0.14411,-0.17648 -5.294271,-8.85978 0.188,0.34849 -1.06668,0.79236 -1.066751,-3.67349 -2.302361,-6.71397 1.55691,-0.96218 0.11799,0.17584 -0.0187,0.4231 -0.028,0.63466 0.24147,5.43483 0.51968,10.86801 0.75453,16.30426 0.1291,6.38539 0.81909,12.72267 1.37437,19.07771 0.13279,1.71899 0.29238,3.43701 0.37578,5.15946 0.17066,1.50922 -2.35492,2.39378 -3.66856,1.84831 -2.727251,-1.13998 -1.11509,-4.99691 1.61217,-3.85693 l 0,0 c 1.63538,0.68694 -1.82298,2.47096 -2.11909,2.20913 -0.0793,-1.66803 -0.23849,-3.33147 -0.36474,-4.99618 -0.560261,-6.41602 -1.252661,-12.81473 -1.386341,-19.26106 -0.24291,-5.6236 -0.57024,-11.24417 -0.74075,-16.86863 0.81144,-7.05169 6.294871,8.98241 1.23953,-3.22948 0.42442,-0.15013 4.761701,9.64388 -0.98621,0.78378 0.0684,-0.0885 0.13677,-0.17695 0.20513,-0.26546 0.92966,-0.99306 2.069251,-1.76641 3.124321,-2.61412 4.75725,-3.49942 9.869061,-6.41033 14.931031,-9.44072 4.34818,-2.6651 8.7262,-5.58636 13.62549,-7.11944 2.88585,-0.63978 3.79064,3.44143 0.90478,4.08122 z"
       inkscape:connector-curvature="0" />
    <path
       style="fill:#000000;fill-opacity:1;fill-rule:nonzero;stroke:none"
       id="path21905"
       d="m -5.833836,300.92286 c -3.08071,0.69423 -5.03572,3.07416 -6.86298,5.46889 -2.62802,4.06511 -2.67528,7.22776 -1.63251,11.7994 1.44513,5.46693 4.80128,8.93637 9.85945,11.24305 5.72889,1.79634 9.47522,1.06258 13.72143,-3.17017 3.37351,-5.00396 2.90492,-10.60642 1.22274,-16.11156 -2.07584,-5.46912 -6.32981,-8.66834 -11.71309,-10.46544 -3.36662,-0.57675 -6.98246,-0.48802 -9.80679,1.60262 -0.88796,1.08893 -0.483,0.50009 -1.20249,1.77499 -1.53908,2.52363 -5.10803,0.34705 -3.56895,-2.17658 l 0,0 c 1.3848,-2.17256 0.58572,-1.15341 2.40971,-3.04764 4.09067,-2.67277 8.76527,-3.16496 13.52601003,-2.10716 6.90460997,2.42357 11.66082997,6.22007 14.36282997,13.2288 2.13525,7.36166 2.37048,13.86142 -2.34556,20.32772 -0.8249,0.76146 -1.56798,1.62247 -2.47471,2.2844 -4.70223,3.43269 -10.61667997,3.56401 -15.92054,1.63797 -0.98764,-0.48124 -2.02438,-0.87265 -2.96294,-1.44375 -4.65355,-2.8316 -7.81378,-7.46858 -9.18884,-12.67486 -1.30271,-6.05003 -1.02292,-9.95523 2.4021,-15.25221 2.45521,-3.16434 5.1891,-6.11039 9.27033,-6.99968 2.88586,-0.63979 3.79065,3.44143 0.9048,4.08121 z"
       inkscape:connector-curvature="0" />
    <path
       style="fill:#000000;fill-opacity:1;fill-rule:nonzero;stroke:none"
       id="path28123"
       d="m -113.39199,306.67114 c -0.77423,2.76368 -1.56666,5.5295 -2.53827,8.23178 -0.37863,0.98784 -0.74715,1.98291 -1.20321,2.93859 -0.50111,0.98185 -0.25941,0.60145 -2.69146,-1.30802 -0.1458,-0.11447 0.0993,-0.35748 0.13702,-0.53897 0.23027,-1.10689 0.4592,-2.21298 0.70368,-3.3177 0.76303,-2.77092 1.71258,-5.50357 2.80273,-8.16431 0.42012,-1.40859 1.12995,-2.67761 1.8432,-3.95167 0.15362,-0.27238 0.30685,-0.54502 0.4658,-0.81433 2.12181,-0.98283 2.35962,-0.73508 3.75188,0.79946 1.23548,2.05349 2.09829,4.30227 3.11385,6.47156 1.07863,2.30551 2.44515,4.44924 3.43864,6.79271 0.16715,0.3846 0.3343,0.76921 0.50145,1.15381 0.83294,1.91702 -1.87813,3.09497 -2.71107,1.17796 l 0,0 c -0.17174,-0.39533 -0.34347,-0.79066 -0.5152,-1.18599 -0.9629,-2.3123 -2.3536,-4.40448 -3.39104,-6.68549 -0.89497,-1.91281 -1.73227,-3.84714 -2.63737,-5.75118 -0.87471,-0.9925 -0.72338,-0.37113 -0.28893,-0.53303 0.45556,-0.16976 0.84713,-0.47727 1.2707,-0.71591 0.001,-0.002 0.003,-0.005 0.004,-0.007 -0.14372,0.24582 -0.28452,0.49334 -0.42379,0.74172 -0.65711,1.17361 -1.31542,2.32392 -1.68765,3.62953 -1.02855,2.50393 -1.91962,5.07677 -2.65141,7.68119 -0.0587,0.26534 -0.89338,4.06319 -0.89427,4.06315 -0.97596,-0.0429 -1.88303,-0.52107 -2.82454,-0.78161 0.006,-0.0112 0.012,-0.0223 0.0181,-0.0335 0.41691,-0.86345 0.73844,-1.7703 1.08745,-2.66194 0.95137,-2.63912 1.72074,-5.34287 2.47727,-8.04259 0.57421,-2.00974 3.4164,-1.19768 2.84219,0.81205 z"
       inkscape:connector-curvature="0" />
    <path
       style="fill:#000000;fill-opacity:1;fill-rule:nonzero;stroke:none"
       id="path28131"
       d="m -113.51695,460.32733 c -0.56283,-7.67739 -0.92402,-15.36369 -1.19324,-23.05649 -0.57786,-18.37479 -0.0104,-36.75276 0.40182,-55.1235 0.57436,-22.8221 1.00897,-45.64674 1.25823,-68.47474 0.0255,-3.39513 0.051,-6.79025 0.0764,-10.18537 0.0157,-2.0901 2.97152,-2.06792 2.95584,0.0222 l 0,0 c -0.0255,3.3985 -0.051,6.79699 -0.0765,10.19548 -0.24945,22.83934 -0.68411,45.67532 -1.25879,68.50878 -0.41097,18.31419 -0.97786,36.63559 -0.40289,54.95385 0.26719,7.6433 0.62581,15.2801 1.18432,22.90811 0.17799,2.08256 -2.7672,2.33427 -2.94519,0.25171 z"
       inkscape:connector-curvature="0" />
    <path
       inkscape:connector-curvature="0"
       d="m -110.43837,457.72573 c 0.85807,-2.73881 1.73439,-5.4792 2.78788,-8.15063 0.40855,-0.97584 0.80721,-1.95923 1.29217,-2.90057 0.53079,-0.96613 0.27762,-0.59327 2.65036,1.38941 0.14225,0.11886 -0.11014,0.35429 -0.15337,0.53455 -0.26389,1.09936 -0.52641,2.19796 -0.80443,3.29473 -0.84709,2.74638 -1.87945,5.44883 -3.05016,8.07512 -0.46283,1.39514 -1.211,2.64195 -1.96273,3.89369 -0.16185,0.26757 -0.32331,0.53541 -0.49039,0.79976 -2.15077,0.91773 -2.38092,0.66285 -3.72578,-0.91339 -1.17235,-2.09018 -1.96625,-4.3642 -2.91525,-6.56342 -1.00789,-2.3373 -2.30847,-4.52167 -3.2301,-6.89432 -0.15536,-0.38951 -0.31072,-0.77904 -0.46607,-1.16855 -0.77415,-1.94151 1.97155,-3.03632 2.7457,-1.09482 l 0,0 c 0.15961,0.40038 0.31922,0.80076 0.47883,1.20113 0.89201,2.34057 2.21832,4.47415 3.18579,6.7857 0.83628,1.93919 1.61426,3.89813 2.46093,5.82886 0.84407,1.01869 0.71174,0.39299 0.27256,0.54158 -0.46052,0.15581 -0.86128,0.45125 -1.29192,0.67687 -0.001,0.002 -0.003,0.005 -0.004,0.007 0.15114,-0.24132 0.29942,-0.48444 0.44619,-0.72846 0.69256,-1.15305 1.38561,-2.28277 1.79744,-3.57643 1.10436,-2.47144 2.07339,-5.01593 2.88419,-7.59684 0.0668,-0.26344 1.01675,-4.0341 1.01764,-4.03403 0.9742,0.0726 1.86628,0.57819 2.79942,0.8673 -0.006,0.011 -0.0127,0.0219 -0.0191,0.0329 -0.44303,0.85035 -0.79203,1.74698 -1.16805,2.62757 -1.03133,2.60892 -1.88271,5.28797 -2.72114,7.9634 -0.63517,1.9913 -3.4513,1.09303 -2.81613,-0.89827 z"
       id="path28133"
       style="fill:#000000;fill-opacity:1;fill-rule:nonzero;stroke:none" />
    <path
       style="fill:#000000;fill-opacity:1;fill-rule:nonzero;stroke:none"
       id="path28149"
       d="m -8.7895179,227.64952 c -0.63132,7.32978 -0.64656,14.70091 -0.74186,22.05289 -0.0718,6.70305 -0.092,13.40648 -0.10897,20.10984 -0.005,2.09015 -2.9612201,2.08265 -2.9559101,-0.008 l 0,0 c 0.017,-6.71363 0.0373,-13.42734 0.10921,-20.14067 0.097,-7.47859 0.10886,-14.97802 0.77132,-22.43259 0.29559,-2.06914 3.2218101,-1.65111 2.9262101,0.41803 z"
       inkscape:connector-curvature="0" />
    <path
       inkscape:connector-curvature="0"
       d="m -10.133098,265.75228 c 1.0948601,-2.65305 2.2080501,-5.30607 3.4916701,-7.87486 0.49252,-0.93627 0.97586,-1.88092 1.54148,-2.77612 0.61344,-0.91588 0.32855,-0.56665 2.5183502,1.6164 0.13128,0.13087 -0.14078,0.34327 -0.19964,0.51904 -0.3592502,1.072 -0.7170702,2.14336 -1.0901702,3.21152 -1.08459,2.66156 -2.34988,5.2631 -3.74631,7.77666 -0.58336,1.34919 -1.43795,2.52561 -2.29652,3.70663 -0.1846801,0.25235 -0.3690001,0.50501 -0.5586201,0.75369 -2.22293,0.72565 -2.42986,0.45158 -3.63136,-1.2365 -0.9846,-2.1849 -1.57609,-4.51976 -2.32864,-6.79371 -0.79912,-2.41666 -1.90319,-4.70663 -2.61328,-7.15094 -0.12061,-0.40164 -0.24122,-0.80328 -0.36183,-1.20491 -0.60097,-2.0019 2.23013,-2.85179 2.8311,-0.84991 l 0,0 c 0.12391,0.41283 0.2478,0.82566 0.37169,1.23849 0.68339,2.40975 1.81756,4.65138 2.57866,7.03885 0.66306,2.00504 1.26632,4.02464 1.94047,6.02216 0.75152,1.08876 0.67455,0.45388 0.22403,0.56339 -0.4724,0.11483 -0.89751,0.374 -1.34628,0.56101 -10e-4,0.002 -0.004,0.005 -0.005,0.006 0.17172,-0.22715 0.34073,-0.45633 0.50833,-0.68655 0.79098,-1.08789 1.5804,-2.15251 2.10405,-3.40509 1.3167601,-2.3651 2.5051301,-4.81486 3.5390601,-7.31476 0.0896,-0.25656 1.36649,-3.92942 1.36737,-3.92928 0.96408,0.15774 1.8084,0.73958 2.7126002,1.10937 -0.007,0.0104 -0.0145,0.0207 -0.0219,0.0311 -0.5158602,0.80824 -0.9421302,1.67083 -1.3938902,2.51507 -1.25607,2.50845 -2.33903,5.10256 -3.40877,7.69418 -0.80729,1.92796 -3.5338401,0.78627 -2.7265401,-1.14168 z"
       id="path28151"
       style="fill:#000000;fill-opacity:1;fill-rule:nonzero;stroke:none" />
    <path
       style="fill:#000000;fill-opacity:1;fill-rule:nonzero;stroke:none"
       id="path28153"
       d="m -27.349175,237.05897 c -2.52214,0.7549 -3.95678,2.47848 -4.95208,4.82073 -0.45968,1.58544 -1.414785,3.91764 0.0629,5.24292 0.13429,0.0691 0.25247,0.19335 0.40285,0.20739 0.24923,0.0233 1.45013,-2.16492 1.55131,-2.38802 0.73894,-2.23342 0.86492,-4.59508 0.95083,-6.92733 0.0203,-0.80017 0.0356,-1.60119 0.005,-2.40122 2.43864,-0.42478 2.77326,-1.42842 3.29525,0.41952 0.18895,0.6689 0.29915,1.35758 0.44909,2.03629 0.8557,4.45589 1.61597,8.92939 2.20358,13.42869 0.35936,4.68821 0.0373,9.74793 -2.10845,14.03691 -0.36411,0.7278 -0.85737,1.38347 -1.28605,2.07521 -2.4238,2.88194 -6.02652,4.83853 -9.646065,2.68784 -0.68988,-0.40992 -1.24082,-1.01795 -1.86123,-1.52693 -2.30503,-2.59692 -3.27601,-5.74415 -3.92312,-9.07069 -0.386,-2.0542 2.51908,-2.60009 2.90508,-0.54589 l 0,0 c 0.47944,2.66491 1.22522,5.22399 2.95196,7.38109 2.83218,2.65805 4.376795,2.24449 7.076255,-0.50717 2.82508,-4.33832 3.3654,-9.05886 2.96052,-14.14814 -0.57469,-4.4139 -1.32357,-8.80159 -2.15882,-13.17337 -0.58337,-2.64159 -1.15105,-1.95239 2.07559,-3.44858 0.0639,-0.0297 -0.0407,0.24115 0.0188,0.2106 0.0419,0.88451 0.0142,1.77095 -0.003,2.65564 -0.1026,2.7365 -0.27639,5.50616 -1.24066,8.09826 -1.41764,2.84095 -3.74912,5.36644 -6.883295,2.7991 -2.11893,-2.79324 -1.56687,-5.19849 -0.50024,-8.33972 1.4694,-3.21833 3.627205,-5.62509 7.168585,-6.53883 2.06172,-0.34362 2.54767,2.57208 0.48595,2.9157 z"
       inkscape:connector-curvature="0" />
    <path
       inkscape:connector-curvature="0"
       d="m 241.00015,303.00758 c -2.26284,3.52069 -4.69796,6.92642 -7.32087,10.19585 -1.7965,2.50713 -4.04824,4.73671 -5.62171,7.38899 -1.85334,2.83825 -3.85888,5.57989 -5.63062,8.47294 -1.33113,2.46636 -2.57778,5.01149 -3.62809,7.60628 -0.98017,2.45066 -2.41627,4.77401 -2.99645,7.3586 -0.40456,2.10419 -0.61431,4.19054 -1.19818,6.2582 -0.74662,2.81549 -1.31208,5.67097 -1.92402,8.5208 -0.58805,1.7647 0.0186,3.3985 0.24609,5.1585 0.17123,2.59046 0.14979,5.20179 -0.008,7.79366 -0.30303,2.18346 0.0773,4.31687 0.21254,6.48222 -0.019,2.18728 0.39265,4.3115 0.47045,6.49767 0.31479,2.21019 -0.028,4.45301 0.23952,6.66427 0.21173,1.82272 0.99154,3.4782 1.43508,5.24643 0.2321,2.44881 1.07952,4.76249 1.32915,7.19582 0.0204,1.53391 -0.0658,3.02842 0.43988,4.49309 0.42293,1.23163 1.00424,2.40097 1.58614,3.56535 0.44686,1.65672 0.1472,3.21056 -0.0494,4.85204 0.005,-0.94168 0.33783,0.34126 0.45506,0.61601 0.0381,0.0852 0.18443,0.35347 0.36082,0.6945 0.51178,0.66643 0.73513,2.45576 -1.17456,-0.84503 -0.39022,-0.67455 1.05897,0.46846 2.04883,0.99801 1.33886,0.68567 2.26707,1.88924 3.09298,3.09321 0.94796,1.30423 1.22709,2.79635 1.37538,4.3712 0.41553,4.41509 -5.92738,4.99355 -6.3429,0.57845 l 0,0 c -0.21415,-2.27641 0.54744,0.61524 -0.32347,-1.45775 -0.42962,-0.63903 -0.53851,-0.92353 -0.84845,-1.07808 -1.31121,-0.70466 -2.91808,-1.39664 -3.50846,-2.82267 -0.18082,-0.34974 -0.36842,-0.69602 -0.53142,-1.05431 -0.52965,-1.22267 -0.95756,-2.47578 -0.92965,-3.8278 0.093,-0.77672 0.20411,-4.23864 0.65913,-1.35134 -0.73002,-1.46256 -1.44651,-2.93705 -1.95871,-4.49023 -0.58695,-1.97751 -0.78369,-3.96064 -0.7128,-6.01987 0.42376,-1.40548 -1.53418,-4.49855 -1.19221,-6.18054 -0.27745,-2.00331 -1.60645,-3.85025 -1.54871,-5.95516 -0.21258,-2.36394 0.0152,-4.71138 -0.26698,-7.06678 -0.0765,-2.15847 -0.50862,-4.2586 -0.46777,-6.43149 -0.0297,-2.39884 -0.61954,-4.80535 -0.20207,-7.22598 0.21836,-2.21266 0.11901,-4.45762 0.027,-6.66889 -0.14309,-2.38522 -1.06963,-4.72192 -0.14431,-7.12182 0.64326,-2.99424 1.26248,-5.98689 2.03207,-8.9489 0.59339,-1.95537 0.65395,-3.97906 1.12175,-5.96939 0.71879,-2.89881 2.11234,-5.56253 3.30056,-8.29457 1.21938,-2.88529 2.53571,-5.75478 4.0796,-8.48822 1.79024,-2.88614 3.76605,-5.6529 5.63727,-8.48374 1.79806,-2.82521 4.03768,-5.34351 6.06285,-8.01254 2.59419,-3.22712 4.97023,-6.60705 7.22401,-10.0721 2.70438,-3.54588 7.79851,0.21902 5.09412,3.7649 z"
       id="path28235"
       style="fill:#000000;fill-opacity:1;fill-rule:nonzero;stroke:none" />
    <path
       inkscape:connector-curvature="0"
       d="m 223.18186,420.4857 c 2.77833,3.73081 6.80205,6.20372 10.91975,8.2818 7.91209,3.21563 16.13094,5.71136 24.36754,8.00044 6.57905,1.74898 13.15759,3.57886 19.4639,6.14113 1.6219,0.73093 3.29413,1.40981 4.77586,2.40189 16.47468,12.90582 -21.59404,2.54472 -2.17389,-0.49311 0.20308,1.58315 1.19941,14.93259 -0.19878,0.0319 4.77649,-0.51522 3.77458,5.01043 3.3179,7.28669 -1.55064,6.64051 -2.83492,13.30616 -3.73957,20.07011 -1.23512,9.09027 -1.05591,18.28721 -0.46513,27.41786 0.58547,5.8368 0.52547,11.71567 0.93893,17.55904 0.41652,2.45148 0.63711,4.62456 -0.8067,6.79851 -0.71252,0.89796 -1.62107,1.50588 -2.72103,1.82602 -7.28799,0.20426 0.0489,-3.76455 1.69731,-5.06806 -8.23627,0.74422 -2.1487,-1.42056 0.0155,-1.15815 0.15085,0.0183 2.89699,0.70626 3.35692,0.8209 3.60368,1.03099 7.29763,1.72964 11.03687,2.04475 2.06812,0.18887 4.14703,-0.0802 6.1571,-0.56061 2.00431,-0.98865 4.45144,4.90501 1.9893,6.07394 -4.05738,1.92563 -6.82381,-3.72277 -2.76642,-5.64842 l 0,0 c 2.89324,-1.3728 5.94228,5.75065 2.25536,5.67393 -2.68435,0.62281 -5.45109,0.95744 -8.20918,0.70629 -4.07131,-0.37786 -8.10646,-1.07631 -12.03388,-2.21291 -6.05178,-1.52253 3.36784,-1.16361 -6.19135,-1.19579 0.73322,-0.87214 7.74997,-6.56632 1.2211,-5.57693 -0.37512,0.117 -0.74761,0.22868 -0.95211,0.57718 -0.35269,2.72579 0.0478,-2.30424 -0.40436,-2.67866 -0.3901,-5.85579 -0.37128,-11.7392 -0.94083,-17.58754 -0.60165,-9.53638 -0.79291,-19.1387 0.50736,-28.63184 0.9272,-6.89938 2.23609,-13.70039 3.80767,-20.47532 0.0997,-0.4871 0.20906,-0.97236 0.29908,-1.46127 0.0681,-0.37029 -0.17982,-1.25458 0.17546,-1.11566 6.13931,2.40081 5.14321,2.43858 3.4713,2.70624 -3.29178,-13.95587 -0.28003,-2.26742 0.18189,-0.0294 -0.83195,0.13006 -2.12189,-15.31053 -2.48253,-0.56532 -1.12856,-0.66936 -2.34206,-1.22559 -3.5554,-1.74249 -6.07105,-2.48164 -12.42548,-4.20113 -18.75898,-5.90045 -8.65224,-2.40633 -17.29522,-5.02341 -25.57851,-8.47339 -4.80699,-2.49558 -9.52946,-5.39533 -12.81603,-9.76495 -2.92966,-3.36799 1.90893,-7.44649 4.83859,-4.07849 z"
       id="path28237"
       style="fill:#000000;fill-opacity:1;fill-rule:nonzero;stroke:none" />
    <path
       inkscape:connector-curvature="0"
       d="m 222.75886,428.4149 c -2.62417,5.69205 -4.96623,11.49526 -7.18321,17.35095 -2.96396,7.77408 -5.00001,15.84622 -7.6194,23.7305 -2.10584,5.44068 -3.9598,10.95011 -5.27757,16.62764 -0.16063,-10e-4 -0.42754,2.92546 -0.4088,1.94044 -8.35677,-2.53021 -6.70241,-2.83763 -0.33401,1.56654 0.0956,0.066 -0.87204,0.95184 -1.3047,1.3827 -0.71479,0.46656 -1.5145,0.75791 -2.32701,1.00575 -1.33759,0.44833 -2.59916,-0.22337 -3.73761,-0.85684 -4.39072,-2.88295 -9.29031,-4.85104 -14.05067,-7.04559 -7.0637,-2.8406 -14.07545,-5.80293 -21.15745,-8.59982 -3.88828,-1.46571 -6.89998,-3.81566 -9.27318,-7.13758 -1.07493,-1.6134 -1.9305,-3.35173 -2.75108,-5.09975 -0.19097,-0.41 -0.37733,-0.82202 -0.54411,-1.24212 -0.0201,-0.0597 -0.0407,-0.1191 -0.0609,-0.1787 1.56606,0.62112 3.29385,0.94072 4.69821,1.86334 0.29222,0.19199 -0.51437,0.47301 -0.74544,0.7335 -0.24067,0.27139 -0.46072,0.56084 -0.6668,0.85852 -0.75911,1.09657 -1.01811,1.66925 -1.67639,2.8897 -2.03467,3.71174 -3.59415,7.59577 -4.93081,11.59558 -0.3469,1.10193 -0.71359,2.20055 -0.98663,3.32324 0.003,-0.0135 0.006,-0.026 0.009,-0.039 0.0122,-0.0808 0.0241,-0.16172 0.036,-0.24265 -0.42329,4.41439 -6.76517,3.8251 -6.34186,-0.58929 l 0,0 c 0.15086,-1.10331 -0.0425,0.2624 0.0827,-0.51191 0.30855,-1.32026 0.7452,-2.60824 1.14947,-3.90177 1.45521,-4.34518 3.17004,-8.5644 5.36963,-12.60167 0.39197,-0.71159 3.45151,-6.01584 4.26681,-6.01692 1.93577,-0.003 6.56315,2.6375 5.7705,0.64229 0.0122,0.0281 0.28028,0.64787 0.35306,0.78896 0.66743,1.4238 1.35399,2.84436 2.21189,4.16882 1.60416,2.36362 3.67413,3.8512 6.40114,4.87777 7.19318,2.84109 14.31678,5.84619 21.48757,8.74099 5.03973,2.32438 10.21409,4.42934 14.85737,7.49053 -0.49945,-8.6e-4 -1.03215,-0.0707 -1.52748,0.0628 0.10133,-0.0307 0.49585,-0.20369 0.38961,-0.0868 -0.21333,0.26633 -0.41524,0.54193 -0.63991,0.79905 -0.0512,0.0588 0.0451,-0.23133 0.11764,-0.20156 8.89661,3.64968 6.61379,3.05232 -0.50655,1.89337 -0.005,-1.24419 0.31122,-2.45839 0.56063,-3.67144 1.36635,-5.86207 3.25152,-11.56442 5.43374,-17.18114 2.65682,-7.95991 4.69194,-16.12104 7.70377,-23.96777 2.19193,-5.78639 4.47155,-11.54012 7.10985,-17.14647 1.42651,-4.20577 7.46868,-2.21984 6.04215,1.98595 z"
       id="path28239"
       style="fill:#000000;fill-opacity:1;fill-rule:nonzero;stroke:none" />
    <path
       inkscape:connector-curvature="0"
       d="m 227.57684,317.21439 c 3.83624,9.11865 6.83496,18.54683 10.06387,27.88324 3.56529,9.74568 6.63659,19.65385 10.29347,29.36823 1.11221,2.8199 2.18143,5.66101 3.43059,8.42634 1.35719,1.56606 -3.97176,1.28986 -5.95293,1.9486 2.07953,-0.44566 4.14357,-0.96834 6.2386,-1.33696 0.64333,-0.11325 -4.77858,6.28821 -6.21153,1.42821 21.14503,-4.7971 -3.58263,2.52205 2.43392,-3.74632 4.19377,-5.08157 9.10157,-9.53864 13.72699,-14.23485 5.42321,-5.95137 11.29075,-11.49434 17.60323,-16.52196 2.38604,-1.85319 4.9633,-3.43824 7.65733,-4.81499 0.94552,-0.46647 1.90088,-0.91348 2.86295,-1.34584 1.73053,-1.07726 -0.80208,5.02647 -1.67543,3.18575 -1.88708,-4.02613 3.89694,-6.65325 5.78406,-2.62713 l 0,0 c 0.7649,1.64446 0.338,4.45365 -1.46402,5.14607 -0.86606,0.38886 -1.7259,0.79125 -2.57787,1.20922 -2.316,1.17756 -4.52948,2.53713 -6.58242,4.12345 -6.11743,4.86352 -11.78321,10.24824 -17.03479,16.01072 -4.65568,4.72548 -9.58116,9.21382 -13.8115,14.31904 -0.36352,0.34435 -0.58598,1.03948 -1.09049,1.03329 -11.59418,-0.14221 -3.20007,-2.29532 0.28562,-3.48433 1.59489,5.40921 -6.65424,2.33644 -6.02275,2.07058 1.95906,-0.82471 3.97821,-1.50357 5.96732,-2.25533 0.74978,2.46274 -5.33172,5.16503 -5.9585,2.43693 -1.30011,-2.88721 -2.4266,-5.84732 -3.58178,-8.79227 -3.67435,-9.76745 -6.77013,-19.72609 -10.35029,-29.5257 -3.13651,-9.07036 -6.06417,-18.22166 -9.73263,-27.10251 -2.01237,-3.96688 3.6866,-6.76839 5.69897,-2.8015 z"
       id="path28241"
       style="fill:#000000;fill-opacity:1;fill-rule:nonzero;stroke:none" />
    <path
       inkscape:connector-curvature="0"
       d="m 219.8007,322.20113 c -6.72156,2.27126 -12.78147,6.26418 -18.81262,9.90369 -7.55032,4.46901 -15.20442,8.71534 -22.30478,13.86511 -1.22951,1.00796 -2.73709,1.96865 -3.81677,3.08175 0.0733,-0.0884 0.27894,-0.16697 0.2196,-0.26472 -8.06755,-13.29006 0.28648,0.52275 -1.62544,1.18857 -1.62554,-5.51039 -3.50839,-10.07125 2.37246,-1.44331 0.1798,0.26377 -0.0285,0.63467 -0.0427,0.95202 0.36795,8.15248 0.7919,16.30248 1.14977,24.45709 0.19672,9.57837 1.24815,19.08456 2.0943,28.6174 0.20235,2.57856 0.44553,5.15566 0.57262,7.73941 0.26006,2.2639 -3.58849,3.59078 -5.59024,2.77255 -4.15586,-1.71002 -1.69921,-7.49558 2.45666,-5.78556 l 0,0 c 2.49204,1.03044 -2.7779,3.70654 -3.22912,3.31379 -0.12084,-2.50212 -0.36342,-4.99735 -0.5558,-7.49449 -0.85374,-9.62431 -1.90884,-19.22265 -2.11254,-28.89243 -0.37016,-8.43564 -0.86895,-16.86674 -1.12878,-25.30368 1.2365,-10.57784 9.59229,13.47401 1.88883,-4.84436 0.64674,-0.2252 7.256,14.46624 -1.50281,1.17571 0.10423,-0.13276 0.20841,-0.26543 0.31258,-0.3982 1.41664,-1.48964 3.15318,-2.6497 4.76092,-3.9213 7.24922,-5.24928 15.03873,-9.61577 22.75229,-14.16149 6.62586,-3.99776 13.2972,-8.37978 20.76287,-10.67947 4.39753,-0.9597 5.77627,5.1623 1.37872,6.12201 z"
       id="path28243"
       style="fill:#000000;fill-opacity:1;fill-rule:nonzero;stroke:none" />
    <path
       inkscape:connector-curvature="0"
       d="m 248.31936,261.45501 c -4.69447,1.04137 -7.67356,4.61137 -10.45799,8.20357 -4.00464,6.09784 -4.07666,10.84196 -2.48766,17.69961 2.20213,8.20064 7.31631,13.40495 15.02408,16.86507 8.72983,2.69459 14.43859,1.59391 20.90907,-4.75539 5.14064,-7.50616 4.42659,-15.9101 1.86324,-24.16804 -3.16322,-8.20392 -9.64552,-13.00289 -17.8487,-15.69862 -5.13015,-0.86515 -10.64006,-0.73205 -14.94384,2.404 -1.3531,1.63344 -0.73601,0.75016 -1.83239,2.66256 -2.34529,3.78556 -7.78374,0.52059 -5.43845,-3.26496 l 0,0 c 2.11019,-3.25894 0.89253,-1.73017 3.67197,-4.5716 6.23347,-4.00927 13.35675,-4.74757 20.61128,-3.16083 10.52142,3.63546 17.76907,9.33038 21.88645,19.84378 3.25375,11.04281 3.6122,20.79273 -3.57422,30.49246 -1.25701,1.14223 -2.38933,2.43378 -3.77103,3.4267 -7.16538,5.14919 -16.17797,5.34617 -24.26013,2.45703 -1.50499,-0.72188 -3.0848,-1.30901 -4.515,-2.16569 -7.0912,-4.24752 -11.90684,-11.20319 -14.00219,-19.01284 -1.9851,-9.07531 -1.55875,-14.93328 3.66038,-22.87898 3.74131,-4.74665 7.90729,-9.16585 14.12637,-10.49982 4.39755,-0.95972 5.77629,5.16229 1.37876,6.12199 z"
       id="path28245"
       style="fill:#000000;fill-opacity:1;fill-rule:nonzero;stroke:none" />
    <path
       inkscape:connector-curvature="0"
       d="m 111.94053,272.70952 c -0.77423,2.76368 -1.56666,5.5295 -2.53827,8.23178 -0.37863,0.98784 -0.74715,1.98291 -1.20321,2.93859 -0.50111,0.98185 -0.25941,0.60145 -2.69146,-1.30802 -0.1458,-0.11447 0.0993,-0.35748 0.13702,-0.53897 0.23027,-1.10689 0.4592,-2.21298 0.70368,-3.3177 0.76303,-2.77092 1.71258,-5.50357 2.80273,-8.16431 0.42012,-1.40859 1.12995,-2.67761 1.8432,-3.95167 0.15362,-0.27238 0.30685,-0.54502 0.4658,-0.81433 2.12181,-0.98283 2.35962,-0.73508 3.75188,0.79946 1.23548,2.05349 2.09829,4.30227 3.11385,6.47156 1.07863,2.30551 2.44515,4.44924 3.43864,6.79271 0.16715,0.3846 0.3343,0.76921 0.50145,1.15381 0.83294,1.91702 -1.87813,3.09497 -2.71107,1.17796 l 0,0 c -0.17174,-0.39533 -0.34347,-0.79066 -0.5152,-1.18599 -0.9629,-2.3123 -2.3536,-4.40448 -3.39104,-6.68549 -0.89497,-1.91281 -1.73227,-3.84714 -2.63737,-5.75118 -0.87471,-0.9925 -0.72338,-0.37113 -0.28893,-0.53303 0.45556,-0.16976 0.84713,-0.47727 1.2707,-0.71591 0.001,-0.002 0.003,-0.005 0.004,-0.007 -0.14372,0.24582 -0.28452,0.49334 -0.42379,0.74172 -0.65711,1.17361 -1.31542,2.32392 -1.68765,3.62953 -1.02855,2.50393 -1.91962,5.07677 -2.65141,7.68119 -0.0587,0.26534 -0.89338,4.06319 -0.89427,4.06315 -0.97596,-0.0429 -1.88303,-0.52107 -2.82454,-0.78161 0.006,-0.0112 0.012,-0.0223 0.0181,-0.0335 0.41691,-0.86345 0.73844,-1.7703 1.08745,-2.66194 0.95137,-2.63912 1.72074,-5.34287 2.47727,-8.04259 0.57421,-2.00974 3.4164,-1.19768 2.84219,0.81205 z"
       id="path28247"
       style="fill:#000000;fill-opacity:1;fill-rule:nonzero;stroke:none" />
    <path
       inkscape:connector-curvature="0"
       d="m 111.81557,514.08865 c -0.56283,-12.00012 -0.92402,-24.01418 -1.19324,-36.0384 -0.57786,-28.72067 -0.0104,-57.44632 0.40182,-86.16067 0.57436,-35.67203 1.00896,-71.34804 1.25823,-107.0293 0.0255,-5.30675 0.051,-10.61349 0.0764,-15.92022 0.0157,-3.26693 2.97152,-3.23225 2.95584,0.0347 l 0,0 c -0.0255,5.31202 -0.051,10.62402 -0.0765,15.93603 -0.24946,35.69898 -0.68411,71.39271 -1.25879,107.0825 -0.41098,28.62596 -0.97787,57.26318 -0.40289,85.89551 0.26719,11.94684 0.62581,23.88353 1.18432,35.80646 0.17799,3.25515 -2.7672,3.64858 -2.94519,0.39344 z"
       id="path28249"
       style="fill:#000000;fill-opacity:1;fill-rule:nonzero;stroke:none" />
    <path
       style="fill:#000000;fill-opacity:1;fill-rule:nonzero;stroke:none"
       id="path28251"
       d="m 114.89415,511.55054 c 0.85807,-2.73881 1.73439,-5.4792 2.78787,-8.15063 0.40855,-0.97584 0.80722,-1.95923 1.29218,-2.90057 0.53079,-0.96613 0.27761,-0.59327 2.65036,1.38941 0.14225,0.11886 -0.11014,0.35429 -0.15337,0.53455 -0.26389,1.09936 -0.52641,2.19796 -0.80443,3.29473 -0.84709,2.74638 -1.87945,5.44883 -3.05016,8.07512 -0.46284,1.39514 -1.211,2.64195 -1.96273,3.89369 -0.16185,0.26757 -0.32331,0.53541 -0.49039,0.79976 -2.15077,0.91773 -2.38092,0.66285 -3.72579,-0.91339 -1.17234,-2.09018 -1.96624,-4.3642 -2.91524,-6.56342 -1.0079,-2.3373 -2.30847,-4.52167 -3.23011,-6.89432 -0.15535,-0.38951 -0.31071,-0.77904 -0.46606,-1.16855 -0.77415,-1.94151 1.97154,-3.03632 2.7457,-1.09482 l 0,0 c 0.15961,0.40038 0.31922,0.80076 0.47883,1.20113 0.892,2.34057 2.21832,4.47415 3.18579,6.7857 0.83628,1.93919 1.61426,3.89813 2.46093,5.82886 0.84407,1.01869 0.71174,0.39299 0.27256,0.54158 -0.46052,0.15581 -0.86128,0.45125 -1.29192,0.67687 -10e-4,0.002 -0.003,0.005 -0.004,0.007 0.15114,-0.24132 0.29941,-0.48444 0.44619,-0.72846 0.69256,-1.15305 1.38561,-2.28277 1.79744,-3.57643 1.10435,-2.47144 2.07339,-5.01593 2.88419,-7.59684 0.0668,-0.26344 1.01675,-4.0341 1.01764,-4.03403 0.9742,0.0726 1.86628,0.57819 2.79941,0.8673 -0.006,0.011 -0.0127,0.0219 -0.0191,0.0329 -0.44302,0.85035 -0.79203,1.74698 -1.16804,2.62757 -1.03133,2.60892 -1.88271,5.28797 -2.72114,7.9634 -0.63517,1.9913 -3.4513,1.09303 -2.81613,-0.89827 z"
       inkscape:connector-curvature="0" />
    <path
       inkscape:connector-curvature="0"
       d="m 205.02223,213.85522 c -0.63132,7.32978 -0.64656,14.70091 -0.74186,22.05289 -0.0718,6.70305 -0.092,13.40648 -0.10897,20.10984 -0.005,2.09015 -2.96122,2.08265 -2.95591,-0.008 l 0,0 c 0.017,-6.71363 0.0373,-13.42734 0.10921,-20.14067 0.097,-7.47859 0.10886,-14.97802 0.77132,-22.43259 0.29559,-2.06914 3.22181,-1.65111 2.92621,0.41803 z"
       id="path28263"
       style="fill:#000000;fill-opacity:1;fill-rule:nonzero;stroke:none" />
    <path
       style="fill:#000000;fill-opacity:1;fill-rule:nonzero;stroke:none"
       id="path28265"
       d="m 203.67865,251.95798 c 1.09486,-2.65305 2.20805,-5.30607 3.49167,-7.87486 0.49252,-0.93627 0.97586,-1.88092 1.54148,-2.77612 0.61344,-0.91588 0.32855,-0.56665 2.51835,1.6164 0.13128,0.13087 -0.14078,0.34327 -0.19964,0.51904 -0.35925,1.072 -0.71707,2.14336 -1.09017,3.21152 -1.08459,2.66156 -2.34988,5.2631 -3.74631,7.77666 -0.58336,1.34919 -1.43795,2.52561 -2.29652,3.70663 -0.18468,0.25235 -0.369,0.50501 -0.55862,0.75369 -2.22293,0.72565 -2.42986,0.45158 -3.63136,-1.2365 -0.9846,-2.1849 -1.57609,-4.51976 -2.32864,-6.79371 -0.79912,-2.41666 -1.90319,-4.70663 -2.61328,-7.15094 -0.12061,-0.40164 -0.24122,-0.80328 -0.36183,-1.20491 -0.60097,-2.0019 2.23013,-2.85179 2.8311,-0.84991 l 0,0 c 0.12391,0.41283 0.2478,0.82566 0.37169,1.23849 0.68339,2.40975 1.81756,4.65138 2.57866,7.03885 0.66306,2.00504 1.26632,4.02464 1.94047,6.02216 0.75152,1.08876 0.67455,0.45388 0.22403,0.56339 -0.4724,0.11483 -0.89751,0.374 -1.34628,0.56101 -10e-4,0.002 -0.004,0.005 -0.005,0.006 0.17172,-0.22715 0.34073,-0.45633 0.50833,-0.68655 0.79098,-1.08789 1.5804,-2.15251 2.10405,-3.40509 1.31676,-2.3651 2.50513,-4.81486 3.53906,-7.31476 0.0896,-0.25656 1.36649,-3.92942 1.36737,-3.92928 0.96408,0.15774 1.8084,0.73958 2.7126,1.10937 -0.007,0.0104 -0.0145,0.0207 -0.0219,0.0311 -0.51586,0.80824 -0.94213,1.67083 -1.39389,2.51507 -1.25607,2.50845 -2.33903,5.10256 -3.40877,7.69418 -0.80729,1.92796 -3.53384,0.78627 -2.72654,-1.14168 z"
       inkscape:connector-curvature="0" />
    <path
       inkscape:connector-curvature="0"
       d="m 183.50665,222.27936 c -2.52214,0.7549 -3.95678,2.47848 -4.95208,4.82073 -0.45968,1.58544 -1.41478,3.91764 0.0629,5.24292 0.13429,0.0691 0.25247,0.19335 0.40285,0.20739 0.24923,0.0233 1.45013,-2.16492 1.55131,-2.38802 0.73894,-2.23342 0.86492,-4.59508 0.95083,-6.92733 0.0203,-0.80017 0.0356,-1.60119 0.005,-2.40122 2.43864,-0.42478 2.77326,-1.42842 3.29525,0.41952 0.18895,0.6689 0.29915,1.35758 0.44909,2.03629 0.8557,4.45589 1.61597,8.92939 2.20358,13.42869 0.35936,4.68821 0.0373,9.74793 -2.10845,14.03691 -0.36411,0.7278 -0.85737,1.38347 -1.28605,2.07521 -2.4238,2.88194 -6.02652,4.83853 -9.64606,2.68784 -0.68988,-0.40992 -1.24082,-1.01795 -1.86123,-1.52693 -2.30503,-2.59692 -3.27601,-5.74415 -3.92312,-9.07069 -0.386,-2.0542 2.51908,-2.60009 2.90508,-0.54589 l 0,0 c 0.47944,2.66491 1.22522,5.22399 2.95196,7.38109 2.83218,2.65805 4.37679,2.24449 7.07625,-0.50717 2.82508,-4.33832 3.3654,-9.05886 2.96052,-14.14814 -0.57469,-4.4139 -1.32357,-8.80159 -2.15882,-13.17337 -0.58337,-2.64159 -1.15105,-1.95239 2.07559,-3.44858 0.0639,-0.0297 -0.0407,0.24115 0.0188,0.2106 0.0419,0.88451 0.0142,1.77095 -0.003,2.65564 -0.1026,2.7365 -0.27639,5.50616 -1.24066,8.09826 -1.41764,2.84095 -3.74912,5.36644 -6.88329,2.7991 -2.11893,-2.79324 -1.56687,-5.19849 -0.50024,-8.33972 1.4694,-3.21833 3.6272,-5.62509 7.16858,-6.53883 2.06172,-0.34362 2.54767,2.57208 0.48595,2.9157 z"
       id="path28267"
       style="fill:#000000;fill-opacity:1;fill-rule:nonzero;stroke:none" />
    <path
       style="fill:#000000;fill-opacity:1;fill-rule:nonzero;stroke:none"
       id="path28271"
       d="m 103.76602,363.05212 c 0.48618,2.70053 0.58203,5.40005 0.32376,8.12506 -0.0967,0.84287 -0.17995,1.68718 -0.26314,2.53147 -0.20501,2.08007 -3.14668,1.79015 -2.94167,-0.28992 l 0,0 c 0.083,-0.84161 0.1657,-1.68327 0.26236,-2.52345 0.23942,-2.46957 0.14673,-4.90885 -0.29702,-7.35721 -0.34362,-2.06171 2.57209,-2.54766 2.91571,-0.48595 z"
       inkscape:connector-curvature="0" />
    <path
       style="fill:#000000;fill-opacity:1;fill-rule:nonzero;stroke:none"
       id="path28275"
       d="m 192.44895,211.46657 c 0.13226,3.49271 0.0218,6.99092 -0.0355,10.48473 -0.0258,1.50638 -0.0135,0.8038 -0.0366,2.10775 -0.0369,2.08982 -2.99241,2.03756 -2.95546,-0.0523 l 0,0 c 0.023,-1.30155 0.0108,-0.60022 0.0365,-2.10399 0.0548,-3.33868 0.14343,-6.67948 0.0648,-10.0182 -0.29559,-2.06915 2.63062,-2.48718 2.92621,-0.41803 z"
       inkscape:connector-curvature="0" />
    <path
       style="fill:#000000;fill-opacity:1;fill-rule:nonzero;stroke:none"
       id="path28279"
       d="m 91.286569,366.53216 c 0.45315,3.90148 0.1745,7.81504 -0.29097,11.69789 -0.25683,3.11255 -0.46799,6.22671 -0.90871,9.3199 -0.21699,1.35853 -0.4643,2.71271 -0.76089,4.05622 -0.0429,0.21595 -0.10935,0.42577 -0.16166,0.6393 -0.046,0.18877 -0.0895,0.37811 -0.13216,0.56766 -0.10633,0.61612 -0.60601,-1.09384 -0.90228,-1.64441 0.88478,0.19245 1.8983,-0.0939 2.83387,-0.24865 3.02775,-0.54379 6.0721,-1.03281 9.147351,-1.18936 1.80342,0.008 0.89422,-0.027 2.72747,0.10726 2.08417,0.15802 1.86069,3.10548 -0.22348,2.94745 l 0,0 c -1.57257,-0.12403 -0.7867,-0.0902 -2.35757,-0.10242 -2.964111,0.14267 -5.896651,0.63613 -8.814801,1.15393 -1.29229,0.21082 -2.6621,0.51726 -3.96234,0.21547 -1.28245,-1.67316 -1.5114,-1.06435 -1.33289,-1.88439 0.0482,-0.21408 0.0973,-0.42795 0.14956,-0.64108 0.0703,-0.27685 0.0834,-0.29285 0.14264,-0.55859 0.2811,-1.27063 0.51396,-2.55169 0.72095,-3.83633 0.4398,-3.0714 0.63664,-6.16514 0.9002,-9.25521 0.44936,-3.71744 0.71447,-7.4627 0.27343,-11.19793 -0.10374,-2.08757 2.84854,-2.23429 2.95228,-0.14671 z"
       inkscape:connector-curvature="0" />
    <path
       inkscape:connector-curvature="0"
       d="m -132.37825,365.54685 c 0.45315,3.90148 0.1745,7.81504 -0.29097,11.69789 -0.25683,3.11255 -0.46799,6.22671 -0.90871,9.3199 -0.21699,1.35853 -0.4643,2.71271 -0.76089,4.05622 -0.0429,0.21595 -0.10935,0.42577 -0.16166,0.6393 -0.046,0.18877 -0.0895,0.37811 -0.13216,0.56766 -0.10633,0.61612 -0.60601,-1.09384 -0.90228,-1.64441 0.88478,0.19245 1.8983,-0.0939 2.83387,-0.24865 3.02775,-0.54379 6.0721,-1.03281 9.14735,-1.18936 1.80342,0.008 0.89422,-0.027 2.72747,0.10726 2.08417,0.15802 1.86069,3.10548 -0.22348,2.94745 l 0,0 c -1.57257,-0.12403 -0.7867,-0.0902 -2.35757,-0.10242 -2.96411,0.14267 -5.89665,0.63613 -8.8148,1.15393 -1.29229,0.21082 -2.6621,0.51726 -3.96234,0.21547 -1.28245,-1.67316 -1.5114,-1.06435 -1.33289,-1.88439 0.0482,-0.21408 0.0973,-0.42795 0.14956,-0.64108 0.0703,-0.27685 0.0834,-0.29285 0.14264,-0.55859 0.2811,-1.27063 0.51396,-2.55169 0.72095,-3.83633 0.4398,-3.0714 0.63664,-6.16514 0.9002,-9.25521 0.44936,-3.71744 0.71447,-7.4627 0.27343,-11.19793 -0.10374,-2.08757 2.84854,-2.23429 2.95228,-0.14671 z"
       id="path28281"
       style="fill:#000000;fill-opacity:1;fill-rule:nonzero;stroke:none" />
  </g>
</svg>
