<?xml version="1.0" encoding="UTF-8" standalone="no"?>
<!-- Created with Inkscape (http://www.inkscape.org/) -->

<svg
   xmlns:dc="http://purl.org/dc/elements/1.1/"
   xmlns:cc="http://creativecommons.org/ns#"
   xmlns:rdf="http://www.w3.org/1999/02/22-rdf-syntax-ns#"
   xmlns:svg="http://www.w3.org/2000/svg"
   xmlns="http://www.w3.org/2000/svg"
   xmlns:sodipodi="http://sodipodi.sourceforge.net/DTD/sodipodi-0.dtd"
   xmlns:inkscape="http://www.inkscape.org/namespaces/inkscape"
   width="598.68976"
   height="587.61902"
   id="svg13812"
   version="1.1"
   inkscape:version="0.48.0 r9654"
   sodipodi:docname="SimplestWalkerEigenvalues.svg">
  <defs
     id="defs13814" />
  <sodipodi:namedview
     inkscape:document-units="mm"
     pagecolor="#ffffff"
     bordercolor="#666666"
     borderopacity="1.0"
     inkscape:pageopacity="0.0"
     inkscape:pageshadow="2"
     inkscape:zoom="1.0149115"
     inkscape:cx="270.46698"
     inkscape:cy="255.48466"
     inkscape:current-layer="layer1"
     id="namedview13816"
     showgrid="false"
     fit-margin-top="0"
     fit-margin-left="0"
     fit-margin-right="0"
     fit-margin-bottom="0"
     inkscape:window-width="1280"
     inkscape:window-height="752"
     inkscape:window-x="0"
     inkscape:window-y="0"
     inkscape:window-maximized="1" />
  <metadata
     id="metadata13818">
    <rdf:RDF>
      <cc:Work
         rdf:about="">
        <dc:format>image/svg+xml</dc:format>
        <dc:type
           rdf:resource="http://purl.org/dc/dcmitype/StillImage" />
        <dc:title />
      </cc:Work>
    </rdf:RDF>
  </metadata>
  <g
     inkscape:label="Layer 1"
     inkscape:groupmode="layer"
     id="layer1"
     transform="translate(-163.17058,-75.832974)">
    <path
       style="fill:#000000;fill-opacity:1;fill-rule:nonzero;stroke:none"
       id="path14335"
       d="m 242.13115,340.11913 c 12.08691,0.0147 24.17027,0.20501 36.25528,0.40379 28.40786,0.31229 56.81597,0.58868 85.22475,0.80959 45.43376,-0.0154 90.86791,-0.23198 136.30151,-0.40619 57.15321,-0.30346 114.29965,-1.30927 171.45249,-1.61311 27.66639,-0.19909 55.33265,-0.38727 82.99942,-0.52314 2.95589,-0.0145 2.97641,4.16573 0.0205,4.18024 l 0,0 c -27.66621,0.13588 -55.3319,0.32408 -82.99773,0.52316 -57.1549,0.30366 -114.30341,1.31 -171.45868,1.61313 -45.44978,0.17426 -90.90011,0.39105 -136.35004,0.40609 -28.42087,-0.221 -56.84106,-0.49748 -85.26101,-0.81003 -12.08667,-0.19882 -24.1717,-0.38865 -36.26029,-0.40388 -2.95546,-0.0522 -2.88169,-4.23181 0.0738,-4.17965 z"
       inkscape:connector-curvature="0" />
    <path
       inkscape:connector-curvature="0"
       d="m 242.13115,522.65917 c 12.08691,0.0147 24.17027,0.20501 36.25528,0.40379 28.40786,0.31229 56.81597,0.58868 85.22475,0.80959 45.43376,-0.0154 90.86791,-0.23198 136.30151,-0.40619 57.15321,-0.30346 114.29965,-1.30927 171.45249,-1.61311 27.66639,-0.19909 55.33265,-0.38727 82.99942,-0.52314 2.95589,-0.0145 2.97641,4.16573 0.0205,4.18024 l 0,0 c -27.66621,0.13588 -55.3319,0.32408 -82.99773,0.52316 -57.1549,0.30366 -114.30341,1.31 -171.45868,1.61313 -45.44978,0.17426 -90.90011,0.39105 -136.35004,0.40609 -28.42087,-0.221 -56.84106,-0.49748 -85.26101,-0.81003 -12.08667,-0.19882 -24.1717,-0.38865 -36.26029,-0.40388 -2.95546,-0.0522 -2.88169,-4.23181 0.0738,-4.17965 z"
       id="path14337"
       style="fill:#000000;fill-opacity:1;fill-rule:nonzero;stroke:none" />
    <path
       style="fill:#000000;fill-opacity:1;fill-rule:nonzero;stroke:none"
       id="path14343"
       d="m 249.21883,660.19916 c -1.5445,-6.79002 -1.44449,-13.70145 -1.51813,-20.56606 -0.1984,-20.0653 -0.16882,-40.13131 -0.23203,-60.19696 -0.20793,-29.79487 -0.12327,-59.58793 0.34663,-89.38088 0.68574,-29.47923 1.72674,-58.94736 1.92116,-88.43201 0.006,-4.17499 0.0115,-8.34997 0.0172,-12.52495 0.003,-2.23624 4.18339,-2.23295 4.18031,0.003 l 0,0 c -0.006,4.17915 -0.0115,8.3583 -0.0173,12.53744 -0.19462,29.49198 -1.23479,58.96743 -1.92141,88.45398 -0.4697,29.77786 -0.55416,59.55582 -0.34633,89.3356 0.0632,20.05964 0.0336,40.11964 0.23189,60.17893 0.0706,6.63301 -0.0313,13.30671 1.40892,19.87297 0.67169,2.17774 -3.39925,2.89639 -4.07095,0.71866 z"
       inkscape:connector-curvature="0" />
    <path
       inkscape:connector-curvature="0"
       d="m 250.61227,357.82368 c -1.5445,-6.79002 -1.44449,-13.70145 -1.51813,-20.56606 -0.1984,-20.0653 -0.16882,-40.13131 -0.23203,-60.19696 -0.20793,-29.79487 -0.12327,-59.58793 0.34663,-89.38088 0.68574,-29.47923 1.72674,-58.94736 1.92116,-88.432008 0.006,-4.17499 0.0115,-8.34997 0.0172,-12.52495 0.003,-2.23624 4.18339,-2.23295 4.18031,0.003 l 0,0 c -0.006,4.17915 -0.0115,8.3583 -0.0173,12.53744 -0.19462,29.491978 -1.23479,58.967428 -1.92141,88.453978 -0.4697,29.77786 -0.55416,59.55582 -0.34633,89.3356 0.0632,20.05964 0.0336,40.11964 0.23189,60.17893 0.0706,6.63301 -0.0313,13.30671 1.40892,19.87297 0.67169,2.17774 -3.39925,2.89639 -4.07095,0.71866 z"
       id="path14345"
       style="fill:#000000;fill-opacity:1;fill-rule:nonzero;stroke:none" />
    <path
       style="fill:#000000;fill-opacity:1;fill-rule:nonzero;stroke:none"
       id="path14353"
       d="m 242.31505,107.0865 c 1.60852,-3.14807 2.78218,-6.50615 3.77651,-9.89258 0.61343,-3.06849 1.44821,-6.08753 2.10821,-9.14612 0.28879,-1.33063 0.44794,-2.68685 0.53361,-4.04479 -0.0798,-1.24969 1.36709,-2.48558 2.66232,-2.52744 2.46202,0.57413 3.29243,2.54939 4.15065,4.71318 1.29857,3.32929 2.66232,6.62858 4.06957,9.91375 1.58385,3.49491 2.92344,7.05819 3.80295,10.79623 0.672,2.87853 -3.39885,3.82888 -4.07085,0.95036 l 0,0 c -0.81078,-3.50471 -2.098,-6.82676 -3.57521,-10.10175 -1.42618,-3.33498 -2.81149,-6.6833 -4.12974,-10.06212 -0.12936,-0.35638 -0.54937,-1.77499 -0.78057,-1.98693 -0.11455,-0.10501 -0.54068,-0.25143 -0.38564,-0.26198 0.35052,-0.0239 0.68745,0.14537 1.03117,0.21806 -0.82582,0.0134 1.7952,-3.46323 1.39712,-1.38432 -0.1014,1.56559 -0.28647,3.12854 -0.61984,4.66283 -0.68646,3.15749 -1.53487,6.27771 -2.184,9.44296 -1.07106,3.62092 -2.32466,7.21241 -4.04728,10.58015 -1.32193,2.64386 -5.06091,0.77437 -3.73898,-1.86949 z"
       inkscape:connector-curvature="0" />
    <path
       inkscape:connector-curvature="0"
       d="m 240.92162,409.46197 c 1.60852,-3.14807 2.78218,-6.50615 3.77651,-9.89258 0.61343,-3.06849 1.44821,-6.08753 2.10821,-9.14612 0.28879,-1.33063 0.44794,-2.68685 0.53361,-4.04479 -0.0798,-1.24969 1.36709,-2.48558 2.66232,-2.52744 2.46202,0.57413 3.29243,2.54939 4.15065,4.71318 1.29857,3.32929 2.66232,6.62858 4.06957,9.91375 1.58385,3.49491 2.92344,7.05819 3.80295,10.79623 0.672,2.87853 -3.39885,3.82888 -4.07085,0.95036 l 0,0 c -0.81078,-3.50471 -2.098,-6.82676 -3.57521,-10.10175 -1.42618,-3.33498 -2.81149,-6.6833 -4.12974,-10.06212 -0.12936,-0.35638 -0.54937,-1.77499 -0.78057,-1.98693 -0.11455,-0.10501 -0.54068,-0.25143 -0.38564,-0.26198 0.35052,-0.0239 0.68745,0.14537 1.03117,0.21806 -0.82582,0.0134 1.7952,-3.46323 1.39712,-1.38432 -0.1014,1.56559 -0.28647,3.12854 -0.61984,4.66283 -0.68646,3.15749 -1.53487,6.27771 -2.184,9.44296 -1.07106,3.62092 -2.32466,7.21241 -4.04728,10.58015 -1.32193,2.64386 -5.06091,0.77437 -3.73898,-1.86949 z"
       id="path14355"
       style="fill:#000000;fill-opacity:1;fill-rule:nonzero;stroke:none" />
    <path
       style="fill:#000000;fill-opacity:1;fill-rule:nonzero;stroke:none"
       id="path14357"
       d="m 260.64205,638.02044 c -1.66877,3.11654 -2.9068,6.45143 -3.96608,9.8181 -0.67234,3.05613 -1.56503,6.05855 -2.28373,9.10388 -0.31433,1.32483 -0.49954,2.67774 -0.61131,4.03378 0.0557,1.251 -1.41464,2.45883 -2.71044,2.47577 -2.45052,-0.62138 -3.24278,-2.61224 -4.05923,-4.79214 -1.23429,-3.35365 -2.53434,-6.67856 -3.87814,-9.99019 -1.51634,-3.52472 -2.78715,-7.11311 -3.5946,-10.86737 -0.61651,-2.89091 3.47186,-3.76279 4.08837,-0.87188 l 0,0 c 0.74323,3.51965 1.96632,6.86584 3.38026,10.16863 1.36178,3.3618 2.68243,6.73614 3.93545,10.13969 0.12248,0.3588 0.51513,1.78523 0.74221,2.00158 0.11251,0.10719 0.53575,0.26178 0.38053,0.26935 -0.35091,0.0172 -0.68452,-0.15857 -1.02678,-0.23786 0.82592,0.002 -1.86148,3.42807 -1.42349,1.3572 0.13149,-1.56335 0.34659,-3.12246 0.70941,-4.65005 0.74706,-3.1437 1.65532,-6.24703 2.36521,-9.39921 1.14051,-3.59965 2.46295,-7.16636 4.25003,-10.50034 1.37253,-2.61794 5.07486,-0.67689 3.70233,1.94106 z"
       inkscape:connector-curvature="0" />
    <path
       inkscape:connector-curvature="0"
       d="m 736.67272,330.16664 c 3.07439,1.74521 6.37769,3.06519 9.71719,4.20727 3.0386,0.74758 6.01807,1.71412 9.04473,2.50779 1.31666,0.34694 2.66458,0.56549 4.01745,0.71071 1.25199,-0.0249 2.42315,1.47492 2.4081,2.77073 -0.68169,2.43444 -2.69151,3.17731 -4.8909,3.93969 -3.3831,1.15112 -6.73909,2.36868 -10.08288,3.63032 -3.56109,1.42885 -7.17976,2.61068 -10.95281,3.3252 -2.90525,0.54495 -3.67593,-3.5637 -0.77068,-4.10865 l 0,0 c 3.53692,-0.65611 6.91229,-1.79621 10.24899,-3.12818 3.39439,-1.27836 6.80031,-2.51531 10.23376,-3.68392 0.36171,-0.11358 1.7974,-0.4709 2.01929,-0.69257 0.10993,-0.10983 0.27493,-0.52911 0.27866,-0.37376 0.008,0.35123 -0.17542,0.6804 -0.26313,1.0206 0.0229,-0.82561 3.38106,1.94554 1.32163,1.45656 -1.55962,-0.17005 -3.11294,-0.42357 -4.63111,-0.82399 -3.1243,-0.82445 -6.20426,-1.80906 -9.33795,-2.59655 -3.5704,-1.22903 -7.10338,-2.63913 -10.39221,-4.50797 -2.58327,-1.43675 -0.5514,-5.09003 2.03187,-3.65328 z"
       id="path14359"
       style="fill:#000000;fill-opacity:1;fill-rule:nonzero;stroke:none" />
    <path
       style="fill:#000000;fill-opacity:1;fill-rule:nonzero;stroke:none"
       id="path14361"
       d="m 734.8378,513.15954 c 3.14371,1.617 6.49862,2.79971 9.88235,3.80317 3.06683,0.6217 6.0836,1.46461 9.1404,2.13286 1.32985,0.29238 2.68564,0.45518 4.04334,0.54451 1.2499,-0.0764 2.48189,1.37379 2.52025,2.66913 -0.58076,2.46046 -2.55825,3.28554 -4.72435,4.13793 -3.33278,1.28958 -6.63574,2.64443 -9.92469,4.04282 -3.49917,1.57442 -7.06604,2.9044 -10.80644,3.77383 -2.88032,0.66423 -3.81969,-3.40917 -0.93937,-4.0734 l 0,0 c 3.50687,-0.80133 6.83238,-2.07959 10.11134,-3.54796 3.33881,-1.41718 6.69086,-2.79346 10.07322,-4.1026 0.35673,-0.12839 1.77646,-0.54458 1.98903,-0.77521 0.10531,-0.11426 0.25288,-0.54 0.26302,-0.38493 0.0229,0.35059 -0.14723,0.68706 -0.22084,1.03058 -0.0112,-0.82585 3.45837,1.80453 1.38054,1.40085 -1.56531,-0.10562 -3.12775,-0.29491 -4.66114,-0.63241 -3.15563,-0.69497 -6.27355,-1.55179 -9.43704,-2.20946 -3.61801,-1.08081 -7.20611,-2.34409 -10.56918,-4.07579 -2.64029,-1.32905 -0.76073,-5.06298 1.87956,-3.73392 z"
       inkscape:connector-curvature="0" />
    <path
       style="fill:#000000;fill-opacity:1;fill-rule:nonzero;stroke:none"
       id="path14369"
       d="m 249.77547,340.51438 c -0.0666,-3.06605 0.67474,-6.03198 1.63502,-8.91679 1.57605,-4.89602 3.83625,-9.45752 6.37547,-13.91163 4.41957,-7.21811 10.14709,-13.52249 15.86569,-19.72057 8.10772,-8.66527 17.61563,-15.78901 27.1016,-22.84597 13.29673,-9.74528 27.06978,-18.80315 41.12024,-27.41707 10.63581,-6.39393 21.49716,-12.43689 32.71548,-17.75363 7.36659,-3.49127 9.91117,-4.46796 17.4182,-7.63324 17.29264,-7.11696 35.48339,-11.45538 53.62972,-15.72517 9.60956,-2.18693 19.2669,-4.15333 28.9002,-6.23102 2.04318,-0.44067 2.66637,2.44882 0.62319,2.88948 l 0,0 c -9.61533,2.07376 -19.25459,4.03674 -28.84637,6.21888 -17.98532,4.23177 -36.01723,8.52257 -53.15848,15.5716 -7.43462,3.13369 -9.96515,4.10504 -17.25922,7.56063 -11.13734,5.27635 -21.91926,11.27585 -32.47788,17.62258 -13.97593,8.56649 -27.6744,17.57695 -40.9008,27.26863 -9.33933,6.94708 -18.70704,13.95223 -26.69367,22.47904 -5.56862,6.03209 -11.15109,12.16482 -15.4702,19.18021 -2.44545,4.28618 -4.62634,8.67066 -6.14,13.38521 -0.8682,2.57988 -1.54676,5.23305 -1.48226,7.97883 0,2.09015 -2.95593,2.09015 -2.95593,0 z"
       inkscape:connector-curvature="0" />
    <path
       style="fill:#000000;fill-opacity:1;fill-rule:nonzero;stroke:none"
       id="path14371"
       d="m 472.61698,198.38949 c 0.49781,-2.82588 1.0458,-5.63953 1.74973,-8.42279 1.71533,-5.68271 4.48993,-9.94949 8.38582,-14.37291 6.37901,-6.98571 14.18486,-12.32052 22.02829,-17.49722 12.20855,-7.84481 25.62962,-13.46009 39.10065,-18.71563 18.45976,-6.93331 37.78695,-10.97067 57.09244,-14.70228 14.4489,-2.80959 29.04697,-4.76985 43.72752,-5.7926 2.08512,-0.14495 2.29012,2.80385 0.205,2.94881 l 0,0 c -14.5614,1.01017 -29.04007,2.9619 -43.3716,5.746 -19.13052,3.6971 -38.28459,7.68952 -56.57922,14.55392 -13.27768,5.17778 -26.50981,10.70399 -38.54671,18.42894 -7.62767,5.03271 -15.23058,10.20431 -21.44287,16.98912 -3.44863,3.87568 -6.24413,8.11733 -7.73409,13.14042 -0.70678,2.77947 -1.23593,5.59314 -1.74729,8.41313 -0.50694,2.02775 -3.37461,1.31083 -2.86767,-0.71691 z"
       inkscape:connector-curvature="0" />
    <path
       style="fill:#000000;fill-opacity:1;fill-rule:nonzero;stroke:none"
       id="path14373"
       d="m 474.50529,199.02986 c 1.45848,2.84278 2.25038,5.96896 3.24639,8.99277 1.50086,4.47229 2.85738,9.04099 5.19527,13.17003 0.58717,1.03703 1.26089,2.02262 1.89134,3.03393 4.91784,6.78658 11.82354,11.61432 19.28125,15.28209 2.12248,1.04386 4.32337,1.92008 6.48506,2.88012 18.14399,7.4087 37.47707,10.94212 56.73004,14.03785 18.34365,2.77932 36.83381,4.4118 55.29004,6.23056 5.75719,0.49276 11.49965,1.13615 17.24536,1.74396 2.07855,0.21988 1.76759,3.1594 -0.31096,2.93952 l 0,0 c -5.73869,-0.60707 -11.47411,-1.24987 -17.22429,-1.74181 -18.51627,-1.82472 -37.06652,-3.46331 -55.46956,-6.25382 -19.50484,-3.13818 -39.08757,-6.73227 -57.46235,-14.25564 -2.23526,-0.99652 -4.51145,-1.90588 -6.70577,-2.98957 -7.91,-3.9064 -15.19057,-9.08359 -20.36978,-16.31359 -0.67317,-1.08741 -1.39247,-2.14759 -2.0195,-3.26224 -2.39841,-4.26356 -3.82378,-8.96165 -5.3637,-13.57665 -0.9511,-2.88767 -1.69981,-5.87709 -3.08269,-8.59558 -0.93475,-1.86949 1.70911,-3.19142 2.64385,-1.32193 z"
       inkscape:connector-curvature="0" />
    <path
       style="fill:#000000;fill-opacity:1;fill-rule:nonzero;stroke:none"
       id="path14375"
       d="m 639.13396,263.41979 c 0.36532,-2.52317 0.91825,-4.9995 1.79666,-7.39377 1.40447,-3.57005 3.98668,-6.25317 6.82401,-8.73171 4.75402,-3.68624 10.30112,-6.05521 15.91505,-8.08532 2.70098,-1.04565 5.54546,-1.48129 8.39197,-1.88736 2.06957,-0.2926 2.48337,2.63422 0.41379,2.92682 l 0,0 c -2.64711,0.37059 -5.29141,0.76304 -7.80163,1.74069 -5.27303,1.90207 -10.49049,4.10636 -14.97862,7.5349 -2.47279,2.14327 -4.75164,4.43496 -5.99319,7.53003 -0.8597,2.28738 -1.32176,4.67364 -1.70037,7.08263 -0.50694,2.02775 -3.3746,1.31083 -2.86767,-0.71691 z"
       inkscape:connector-curvature="0" />
    <path
       style="fill:#000000;fill-opacity:1;fill-rule:nonzero;stroke:none"
       id="path14377"
       d="m 642.9132,263.85368 c 0.0556,1.92255 -0.12526,3.85888 0.10869,5.77066 0.53098,2.85637 2.49572,4.79796 4.71113,6.49719 4.58579,2.67459 9.8608,3.97432 15.01111,5.09397 3.77688,0.6671 7.54388,1.36963 11.35366,1.82078 2.07557,0.24651 1.72695,3.1818 -0.34861,2.93529 l 0,0 c -3.90374,-0.46493 -7.76516,-1.17826 -11.63453,-1.86795 -5.57771,-1.21865 -11.28888,-2.64138 -16.19855,-5.6505 -2.82743,-2.23194 -5.23076,-4.80821 -5.83178,-8.49987 -0.21157,-2.02687 -0.10539,-4.0635 -0.12704,-6.09957 0,-2.09016 2.95592,-2.09016 2.95592,0 z"
       inkscape:connector-curvature="0" />
    <path
       style="fill:#000000;fill-opacity:1;fill-rule:nonzero;stroke:none"
       id="path14379"
       d="m 643.07519,117.59426 c 0.34253,-2.28823 0.79326,-4.48785 1.66917,-6.6376 1.84959,-3.71356 5.16507,-6.16878 8.72613,-8.09771 5.10333,-2.32485 10.70622,-3.089507 16.26109,-3.295322 3.11101,0.195832 1.60779,0.0058 4.51323,0.541262 2.05359,0.38919 1.50319,3.29342 -0.55041,2.90423 l 0,0 c -2.45047,-0.47976 -1.16608,-0.30361 -3.85806,-0.49143 -5.10459,0.17215 -10.26374,0.86403 -14.97197,2.9479 -2.96833,1.56281 -5.78202,3.59037 -7.38827,6.62027 -0.84503,2.00816 -1.17041,4.08832 -1.53324,6.22532 -0.50694,2.02775 -3.3746,1.31083 -2.86767,-0.71692 z"
       inkscape:connector-curvature="0" />
    <path
       style="fill:#000000;fill-opacity:1;fill-rule:nonzero;stroke:none"
       id="path14381"
       d="m 645.70714,118.26875 c -0.37268,1.5645 -0.58258,3.15728 -0.71781,4.75775 -0.23985,1.74395 0.81994,3.04276 1.84338,4.33382 2.53587,2.82447 5.91737,4.48497 9.43782,5.72747 3.46114,0.96398 7.06948,1.62282 10.67305,1.47644 0.45831,-0.0414 0.91663,-0.0829 1.37494,-0.12427 2.08196,-0.18487 2.34341,2.75946 0.26145,2.94434 l 0,0 c -0.51157,0.0447 -1.02315,0.0894 -1.53472,0.1341 -3.97856,0.11693 -7.95169,-0.52834 -11.76666,-1.64609 -4.04217,-1.4518 -7.90014,-3.39829 -10.77265,-6.68891 -1.46953,-1.89336 -2.78815,-3.89246 -2.46185,-6.40795 0.15098,-1.75725 0.38298,-3.50639 0.79538,-5.22362 0.50694,-2.02774 3.37461,-1.31083 2.86767,0.71692 z"
       inkscape:connector-curvature="0" />
    <path
       style="fill:#000000;fill-opacity:1;fill-rule:nonzero;stroke:none"
       id="path14385"
       d="m 330.95037,100.2697 c -2.0514,0.4806 -4.15335,0.66529 -6.25103,0.79782 -1.99335,-0.0219 -3.81648,0.49112 -5.52472,1.4852 -1.64344,1.16468 -3.32745,2.38178 -4.44553,4.08367 -1.053,1.99031 -0.68432,4.13675 -0.12078,6.20688 1.13972,3.19456 3.3701,5.5335 6.00483,7.55001 2.5748,1.68514 5.46081,2.26305 8.48318,1.98092 2.08297,-0.17309 2.32776,2.77268 0.24479,2.94577 l 0,0 c -3.77222,0.28333 -7.34895,-0.42448 -10.52972,-2.58337 -3.1471,-2.42966 -5.75915,-5.29587 -7.06093,-9.13825 -0.75466,-2.92697 -1.0556,-5.90322 0.53723,-8.62841 1.42749,-2.03975 3.352,-3.61944 5.42387,-4.985665 2.11341,-1.184533 4.35448,-1.881018 6.8024,-1.866864 1.91862,-0.119875 3.84175,-0.282673 5.71949,-0.715375 2.02775,-0.506937 2.74467,2.36073 0.71692,2.867664 z"
       inkscape:connector-curvature="0" />
    <path
       style="fill:#000000;fill-opacity:1;fill-rule:nonzero;stroke:none"
       id="path14387"
       d="m 332.74016,119.82282 c -1.31649,1.16603 -2.15024,2.55024 -2.37929,4.28395 -0.0969,1.14138 0.17806,2.27409 1.14989,2.9446 1.22873,0.63013 2.63271,0.38064 3.93443,0.149 2.06194,-0.34227 2.54599,2.57375 0.48405,2.91602 l 0,0 c -2.18722,0.34384 -4.38807,0.52026 -6.31218,-0.79536 -1.66775,-1.49592 -2.43906,-3.38637 -2.17972,-5.65069 0.3775,-2.35097 1.42194,-4.33481 3.21266,-5.93768 1.47796,-1.47796 3.56812,0.6122 2.09016,2.09016 z"
       inkscape:connector-curvature="0" />
    <path
       style="fill:#000000;fill-opacity:1;fill-rule:nonzero;stroke:none"
       id="path14393"
       d="m 336.3859,95.269433 c -1.4267,0.208166 -2.75579,0.838 -3.85506,1.761585 -0.65432,0.52682 -0.86393,1.238133 -0.95549,2.037587 -0.10282,0.831875 0.44891,1.490525 1.05441,2.008635 1.11132,0.77973 2.23886,1.44027 3.55349,1.80346 0.11718,-0.0125 0.23436,-0.0249 0.35154,-0.0374 2.08934,0.0584 2.0067,3.01321 -0.0826,2.95477 l 0,0 c -0.36328,-0.0259 -0.72656,-0.0518 -1.08984,-0.0777 -1.7536,-0.52209 -3.3134,-1.37524 -4.76238,-2.49432 -1.24889,-1.23754 -2.19179,-2.7147 -1.95362,-4.555182 0.22835,-1.547302 0.78583,-2.935819 2.03954,-3.949261 1.66713,-1.292668 3.56427,-2.238611 5.70005,-2.408067 2.09015,0 2.09015,2.955923 0,2.955923 z"
       inkscape:connector-curvature="0" />
    <path
       inkscape:connector-curvature="0"
       d="m 330.95037,145.59385 c -2.0514,0.4806 -4.15335,0.66529 -6.25103,0.79782 -1.99335,-0.0219 -3.81648,0.49112 -5.52472,1.4852 -1.64344,1.16468 -3.32745,2.38178 -4.44553,4.08367 -1.053,1.99031 -0.68432,4.13675 -0.12078,6.20688 1.13972,3.19456 3.3701,5.5335 6.00483,7.55001 2.5748,1.68514 5.46081,2.26305 8.48318,1.98092 2.08297,-0.17309 2.32776,2.77268 0.24479,2.94577 l 0,0 c -3.77222,0.28333 -7.34895,-0.42448 -10.52972,-2.58337 -3.1471,-2.42966 -5.75915,-5.29587 -7.06093,-9.13825 -0.75466,-2.92697 -1.0556,-5.90322 0.53723,-8.62841 1.42749,-2.03975 3.352,-3.61944 5.42387,-4.98567 2.11341,-1.18453 4.35448,-1.88101 6.8024,-1.86686 1.91862,-0.11987 3.84175,-0.28267 5.71949,-0.71537 2.02775,-0.50694 2.74467,2.36073 0.71692,2.86766 z"
       id="path14395"
       style="fill:#000000;fill-opacity:1;fill-rule:nonzero;stroke:none" />
    <path
       inkscape:connector-curvature="0"
       d="m 332.74016,165.14697 c -1.31649,1.16603 -2.15024,2.55024 -2.37929,4.28395 -0.0969,1.14138 0.17806,2.27409 1.14989,2.9446 1.22873,0.63013 2.63271,0.38064 3.93443,0.149 2.06194,-0.34227 2.54599,2.57375 0.48405,2.91602 l 0,0 c -2.18722,0.34384 -4.38807,0.52026 -6.31218,-0.79536 -1.66775,-1.49592 -2.43906,-3.38637 -2.17972,-5.65069 0.3775,-2.35097 1.42194,-4.33481 3.21266,-5.93768 1.47796,-1.47796 3.56812,0.6122 2.09016,2.09016 z"
       id="path14397"
       style="fill:#000000;fill-opacity:1;fill-rule:nonzero;stroke:none" />
    <path
       inkscape:connector-curvature="0"
       d="m 336.3859,140.59358 c -1.4267,0.20817 -2.75579,0.838 -3.85506,1.76159 -0.65432,0.52682 -0.86393,1.23813 -0.95549,2.03758 -0.10282,0.83188 0.44891,1.49053 1.05441,2.00864 1.11132,0.77973 2.23886,1.44027 3.55349,1.80346 0.11718,-0.0125 0.23436,-0.0249 0.35154,-0.0374 2.08934,0.0584 2.0067,3.01321 -0.0826,2.95477 l 0,0 c -0.36328,-0.0259 -0.72656,-0.0518 -1.08984,-0.0777 -1.7536,-0.52209 -3.3134,-1.37524 -4.76238,-2.49432 -1.24889,-1.23754 -2.19179,-2.7147 -1.95362,-4.55518 0.22835,-1.5473 0.78583,-2.93582 2.03954,-3.94926 1.66713,-1.29267 3.56427,-2.23861 5.70005,-2.40807 2.09015,0 2.09015,2.95592 0,2.95592 z"
       id="path14399"
       style="fill:#000000;fill-opacity:1;fill-rule:nonzero;stroke:none" />
    <path
       style="fill:#000000;fill-opacity:1;fill-rule:nonzero;stroke:none"
       id="path14401"
       d="m 178.49608,107.91644 c -1.29841,-0.32013 -2.64099,-0.20516 -3.89835,0.21183 -0.15211,0.0602 -0.31358,0.1008 -0.45632,0.18075 -0.0909,0.0509 -0.2547,0.32707 -0.17764,0.25702 0.23755,-0.21593 0.30762,-0.78418 0.51524,-0.69127 1.59473,1.39576 3.74207,2.05267 5.61746,3.01526 2.24654,1.17212 4.00277,2.26737 4.95966,4.68407 0.2893,2.97524 -2.02684,4.4308 -4.34707,5.67292 -1.56911,0.7346 -3.22842,1.49259 -4.98455,1.41604 -0.39479,-0.42203 -0.78958,-0.84406 -1.18437,-1.26609 -0.59399,-2.00397 2.24007,-2.84399 2.83405,-0.84001 l 0,0 c -0.34743,-0.26225 -0.69486,-0.5245 -1.0423,-0.78675 -0.14123,0.0187 -0.44175,0.19733 -0.42368,0.056 0.01,-0.0767 3.34331,-0.78415 3.41819,-1.19181 1.06579,-0.55587 2.26579,-1.10023 2.91412,-2.16042 0.0264,-1.18644 -2.6622,-2.45599 -3.49675,-2.95572 -2.24474,-1.15882 -4.82588,-1.91409 -6.58284,-3.8094 -1.47127,-2.14379 -0.72327,-3.55037 1.53607,-4.39596 1.79101,-0.55879 3.67592,-0.72098 5.516,-0.26414 2.02775,0.50693 1.31083,3.3746 -0.71692,2.86766 z"
       inkscape:connector-curvature="0" />
    <path
       style="fill:#000000;fill-opacity:1;fill-rule:nonzero;stroke:none"
       id="path14403"
       d="m 189.76087,100.98807 c 0.48327,2.85197 1.15387,5.68123 1.99942,8.44808 0.84262,2.651 1.38748,5.3777 1.70452,8.13778 0.0809,0.72395 0.1177,1.45128 0.16082,2.17802 0.12358,2.0865 -2.82717,2.26127 -2.95075,0.17477 l 0,0 c -0.0398,-0.67331 -0.0726,-1.34722 -0.14698,-2.018 -0.29192,-2.58276 -0.80749,-5.13252 -1.59561,-7.61241 -0.86655,-2.86136 -1.57143,-5.7807 -2.06994,-8.72853 -0.40991,-2.049568 2.48861,-2.629273 2.89852,-0.57971 z"
       inkscape:connector-curvature="0" />
    <path
       style="fill:#000000;fill-opacity:1;fill-rule:nonzero;stroke:none"
       id="path14405"
       d="m 184.95968,108.07843 c 2.64822,0 5.29643,0 7.94465,0 1.75862,-0.14923 3.50335,-0.42928 5.24705,-0.69692 2.06597,-0.31707 2.51437,2.60464 0.44841,2.92171 l 0,0 c -1.89164,0.29028 -3.78475,0.59893 -5.69546,0.73113 -2.64822,0 -5.29643,0 -7.94465,0 -2.09015,0 -2.09015,-2.95592 0,-2.95592 z"
       inkscape:connector-curvature="0" />
    <path
       style="fill:#000000;fill-opacity:1;fill-rule:nonzero;stroke:none"
       id="path14407"
       d="m 200.16454,111.42611 c 1.23072,0.58069 2.51777,1.05649 3.81914,0.45623 0.82782,-1.09418 1.23691,-2.46553 1.20912,-3.82855 -0.24314,-0.6934 -1.05715,-0.75986 -1.66666,-0.50405 -1.32692,1.46633 -1.9555,3.35652 -2.24311,5.27499 -0.29062,2.51229 0.18388,3.92932 2.39224,5.16007 1.13748,0.56673 2.32314,0.54444 3.54101,0.33135 2.06801,-0.30346 2.49717,2.62114 0.42917,2.9246 l 0,0 c -1.91334,0.24752 -3.7428,0.22593 -5.49357,-0.72281 -3.32671,-2.09301 -4.2008,-4.28121 -3.78552,-8.17333 0.53206,-3.03311 1.61691,-6.24875 4.5654,-7.69042 2.73358,-0.40664 4.73474,0.5502 5.2165,3.45199 -0.0994,2.57998 -0.86464,5.0867 -3.14343,6.55009 -2.15287,0.71096 -4.14503,0.45509 -6.16222,-0.58631 -1.86949,-0.93474 -0.54756,-3.5786 1.32193,-2.64385 z"
       inkscape:connector-curvature="0" />
    <path
       style="fill:#000000;fill-opacity:1;fill-rule:nonzero;stroke:none"
       id="path14409"
       d="m 217.33406,106.71345 c 0.37141,1.47423 0.78418,2.93332 0.47848,4.44741 -0.22698,0.74996 -0.64759,1.34603 -1.32944,1.7273 -1.38758,0.58411 -2.15406,-1.95584 -1.39878,-2.9688 0.48617,-0.65203 1.08101,-1.1885 1.67596,-1.73599 1.67092,-1.41865 3.57024,-1.78513 5.66891,-1.35552 2.34702,1.07375 3.41043,2.14533 3.10553,4.83098 -0.86454,2.39176 -2.95568,3.36997 -5.26684,3.94067 -2.06656,0.53753 -3.80374,0.28562 -5.20298,-1.37942 -0.47543,-0.954 -1.03589,-1.86754 -1.42189,-2.86206 -0.16207,-0.51326 -0.27575,-1.04182 -0.32615,-1.57777 -0.073,-1.25184 0.36246,-0.80943 2.97704,-0.008 0.0232,0.007 0.0217,0.84651 0.0237,1.3629 0.0254,3.67546 0.61557,7.33388 1.22381,10.95167 0.61386,3.45407 1.11624,6.92625 1.53375,10.40914 0.10424,0.92199 0.101,0.43368 -0.0302,1.46468 -0.4831,2.03356 -3.35899,1.35035 -2.87588,-0.68321 l 0,0 c 0.0859,0.40723 0.05,0.26824 -0.0289,-0.42975 -0.41175,-3.43703 -0.90796,-6.86337 -1.51402,-10.27187 -0.63212,-3.77679 -1.24265,-7.59397 -1.26453,-11.43095 -0.005,-1.95868 -0.34717,-0.93886 2.90007,-1.4841 0.013,-0.002 1.1e-4,-0.11403 -3.3e-4,-0.13895 0.0274,0.2836 0.0869,0.56314 0.16351,0.83748 0.1996,0.75804 0.81571,1.37283 1.03503,2.12888 -0.123,0.82006 1.83604,0.29025 2.12194,0.23658 1.16478,-0.26428 2.3848,-0.58934 3.05867,-1.66656 0.6185,-0.26606 -0.62302,-1.26199 -0.89568,-1.35423 -1.09541,-0.34946 -2.08725,-0.0489 -2.98522,0.65703 -0.38281,0.35073 -0.85017,0.70978 -1.16906,1.12601 -0.10625,0.13869 -0.13183,0.5381 -0.2789,0.44378 -2.54407,-1.63141 -0.97361,-2.12775 -2.08952,-1.71563 -0.037,0.0224 -0.49465,0.38427 -0.2822,0.2491 0.41215,-0.85749 -0.44018,-2.13934 -0.4736,-3.0334 -0.50694,-2.02775 2.36073,-2.74467 2.86767,-0.71692 z"
       inkscape:connector-curvature="0" />
    <path
       style="fill:#000000;fill-opacity:1;fill-rule:nonzero;stroke:none"
       id="path14411"
       d="m 166.09806,128.39022 c 0.46058,3.03093 0.85829,6.07636 1.23572,9.12096 0.45623,3.05995 0.95367,6.1017 1.82818,9.07208 0.15048,0.50245 0.32331,0.99742 0.50792,1.48812 0.73334,1.95729 -2.03468,2.99438 -2.76801,1.0371 l 0,0 c -0.20848,-0.55832 -0.40589,-1.12067 -0.57601,-1.69214 -0.91601,-3.12494 -1.45263,-6.32249 -1.9256,-9.54187 -0.362,-2.92608 -0.75863,-5.84967 -1.16987,-8.76734 -0.50693,-2.02774 2.36073,-2.74466 2.86767,-0.71691 z"
       inkscape:connector-curvature="0" />
    <path
       style="fill:#000000;fill-opacity:1;fill-rule:nonzero;stroke:none"
       id="path14413"
       d="m 172.27342,137.79965 c 1.41641,0.11107 2.38447,-0.84192 3.34676,-1.73709 0.20658,-0.27313 1.41501,-1.56972 0.73326,-1.91762 -0.5987,-0.67452 -1.4266,-1.04648 -2.28687,-1.25751 -0.68187,-0.19364 -1.14713,0.15869 -1.4674,0.7442 -0.59957,1.54555 -0.65748,3.2721 -0.53709,4.90666 0.31832,2.08361 1.38874,3.77559 3.09475,4.97984 1.22725,0.63897 2.74103,1.14472 4.0795,0.54723 1.98302,-0.66061 2.91726,2.1438 0.93425,2.8044 l 0,0 c -2.36511,0.69235 -4.66713,0.33328 -6.77232,-0.97573 -2.36447,-1.80363 -3.9088,-4.16817 -4.28631,-7.17082 -0.12619,-2.3127 -0.0418,-4.735 1.08688,-6.81664 1.16667,-1.49207 2.6955,-2.38053 4.6397,-1.87248 1.76285,0.50203 3.35677,1.36954 4.2682,3.03527 0.6285,2.04506 -0.0126,3.64892 -1.48264,5.16618 -1.72976,1.58413 -3.60317,2.84341 -6.06759,2.43177 -2.02774,-0.50693 -1.31083,-3.3746 0.71692,-2.86766 z"
       inkscape:connector-curvature="0" />
    <path
       style="fill:#000000;fill-opacity:1;fill-rule:nonzero;stroke:none"
       id="path14415"
       d="m 183.8336,134.30206 c 0.60144,2.64587 1.12189,5.29883 1.50035,7.98703 0.0775,0.31863 0.15027,0.63845 0.23245,0.95591 0.19147,0.73967 0.41104,1.47221 0.6517,2.19729 0.16495,0.49701 0.16756,0.52125 0.11004,0.28981 -1.30559,-1.17793 -0.0249,-0.37223 -2.59739,0.26084 -0.003,6.5e-4 0.0182,-0.43839 0.027,-1.00572 0.022,-1.40968 -0.0364,-0.49572 0.13991,-2.13209 0.35605,-2.15315 0.46645,-4.33238 1.08213,-6.43227 0.58254,-1.85049 0.47223,-2.90175 2.75086,-3.25198 2.02652,0.55398 3.00423,2.47678 3.82237,4.26263 0.79811,2.13289 1.35757,4.33728 1.74715,6.57809 0.31908,2.92098 1.26249,2.73788 -2.11763,1.45937 1.4238,-1.53021 3.58785,0.48334 2.16405,2.01355 l 0,0 c -3.58022,-0.86325 -2.49966,-0.15028 -2.95926,-2.97012 -0.34213,-1.99836 -0.84432,-3.95963 -1.53046,-5.86917 -0.32176,-0.73555 -0.67823,-1.3486 -1.13385,-2.00794 -0.11741,-0.16991 -0.50976,-0.35762 -0.36254,-0.50247 0.0807,-0.0794 0.22638,-0.005 0.33957,-0.008 1.07788,-0.5013 0.71206,-1.25166 0.11255,1.14044 -0.58608,1.92551 -0.61393,3.95008 -0.97816,5.92395 -0.16593,1.34655 0.36386,6.86745 -3.03451,4.07263 -0.7345,-1.41195 -0.98853,-3.03939 -1.39311,-4.56296 -0.36313,-2.58549 -0.86088,-5.13736 -1.4409,-7.68172 -0.50694,-2.02775 2.36073,-2.74466 2.86767,-0.71692 z"
       inkscape:connector-curvature="0" />
    <path
       style="fill:#000000;fill-opacity:1;fill-rule:nonzero;stroke:none"
       id="path14417"
       d="m 199.72363,135.58774 c -1.2059,1.55805 -1.62101,3.66105 -1.72232,5.58956 -1.32383,-1.43167 1.11139,4.02507 1.01913,3.03496 -0.0122,-0.13069 -0.18003,-0.19107 -0.27005,-0.2866 -0.0953,-0.0439 -0.21268,-0.0566 -0.2859,-0.13184 -0.0247,-0.0253 0.67561,-2.95568 0.81862,-3.9565 0.1832,-1.56432 0.25332,-3.13811 0.26427,-4.71209 0.001,-0.26098 -0.002,-0.5997 -0.0126,-0.8385 3.98603,0.1672 2.50596,-0.33812 3.27924,2.19296 1.22038,3.9012 2.05353,7.8839 2.85851,11.88594 1.06855,4.86638 1.46528,9.43112 0.12856,14.26278 -0.92237,2.48396 -3.12921,5.35114 -6.1961,4.2137 -0.53775,-0.19944 -0.96127,-0.62591 -1.4419,-0.93887 -2.44354,-3.32167 -2.36344,-7.4863 -1.97355,-11.41186 0.13658,-0.60173 0.27317,-1.20345 0.40975,-1.80518 0.47583,-2.03527 3.35414,-1.36234 2.87831,0.67293 l 0,0 c -0.11587,0.47809 -0.23174,0.95618 -0.34761,1.43427 -0.31584,2.96121 -0.38959,6.00224 0.85467,8.78189 1.09178,1.71973 2.64025,-0.65139 2.97242,-1.75255 1.24431,-4.26851 0.75018,-8.57172 -0.18243,-12.87425 -0.78818,-3.91882 -1.59838,-7.81923 -2.79752,-11.63844 -0.39904,-1.40678 -1.53965,-5.49821 2.50453,-3.2543 0.0215,0.3631 0.0222,0.72696 0.0216,1.09063 -0.0126,1.709 -0.0905,3.4179 -0.29489,5.11583 -0.29292,1.98873 -0.55698,5.11294 -2.54949,6.2355 -0.41074,0.2314 -0.91399,0.23164 -1.37098,0.34746 -0.41729,-0.14739 -0.87134,-0.21622 -1.25188,-0.44216 -1.76011,-1.04503 -1.98642,-3.64402 -1.98403,-5.42257 0.2039,-2.64954 0.79221,-5.42264 2.58153,-7.48285 1.47796,-1.47797 3.56811,0.61219 2.09015,2.09015 z"
       inkscape:connector-curvature="0" />
    <path
       style="fill:#000000;fill-opacity:1;fill-rule:nonzero;stroke:none"
       id="path14419"
       d="m 211.43764,125.62076 c 0.54552,3.73464 1.32449,7.42949 1.92663,11.1553 0.41859,3.34606 1.06847,6.65705 1.60739,9.98508 0.10801,0.68547 0.22046,1.37036 0.31608,2.05771 0.002,0.0196 0.005,0.0391 0.007,0.0587 0.23035,2.07742 -2.70757,2.40318 -2.93792,0.32576 l 0,0 c 2.8e-4,0.001 5.6e-4,0.003 8.4e-4,0.004 -0.0915,-0.65949 -0.20094,-1.31638 -0.30377,-1.97416 -0.53892,-3.32846 -1.18882,-6.63999 -1.60761,-9.98646 -0.59499,-3.68965 -1.36975,-7.34812 -1.90701,-11.04668 -0.40992,-2.04957 2.4886,-2.62927 2.89852,-0.57971 z"
       inkscape:connector-curvature="0" />
    <path
       style="fill:#000000;fill-opacity:1;fill-rule:nonzero;stroke:none"
       id="path14421"
       d="m 206.75918,135.82903 c 2.48693,0.64437 5.04393,0.41719 7.57477,0.26879 2.13951,-0.23539 4.22509,-0.78268 6.33722,-1.17397 0.19009,-0.0308 0.38018,-0.0616 0.57028,-0.0923 2.06348,-0.33283 2.53417,2.58538 0.47069,2.9182 l 0,0 c -0.16852,0.0271 -0.33703,0.0541 -0.50555,0.0812 -2.23249,0.40843 -4.43443,1.00097 -6.69999,1.21783 -2.82954,0.16521 -5.68759,0.37558 -8.46433,-0.352 -2.02775,-0.50694 -1.31083,-3.3746 0.71691,-2.86767 z"
       inkscape:connector-curvature="0" />
    <path
       style="fill:#000000;fill-opacity:1;fill-rule:nonzero;stroke:none"
       id="path14423"
       d="m 224.28749,124.3764 c 0.97215,3.18478 1.6728,6.45073 2.19429,9.73843 0.57087,2.55651 0.25917,5.24095 0.7294,7.79874 -0.0156,0.2718 0.4157,1.12825 0.43708,1.16853 -1.55125,-1.55557 -2.90535,1.58314 -1.62461,-1.26077 0.60572,-1.39187 1.24955,-2.78841 2.02051,-4.09661 0.42288,-0.62344 0.90589,-1.21053 1.48769,-1.69176 1.24737,-0.99223 2.23234,0.16475 2.85801,1.15477 0.96792,1.80549 1.37759,3.84681 1.9782,5.79284 0.53868,2.19242 1.32812,4.20698 2.64426,6.02942 0.77907,0.99888 1.60696,1.03295 2.75117,0.92407 0.79273,-0.24103 0.35549,-0.10808 1.31171,-0.39886 2.00051,-0.60557 2.8569,2.22358 0.8564,2.82914 l 0,0 c -1.22333,0.36881 -0.58543,0.19472 -1.91571,0.51485 -2.17531,0.17204 -4.00948,-0.33899 -5.40135,-2.14058 -1.5029,-2.088 -2.45105,-4.38532 -3.07136,-6.88767 -0.52329,-1.7011 -0.89583,-3.47536 -1.65485,-5.08847 -0.79826,-1.2722 0.73169,0.27499 1.50183,-0.43078 -0.32191,0.26458 -0.57816,0.60082 -0.82393,0.93466 -0.76246,1.16427 -1.25616,2.52935 -1.85341,3.7821 -0.53871,1.15931 -1.52918,3.70976 -3.32212,1.94177 -0.59183,-0.7501 -0.88803,-1.66762 -1.09525,-2.59086 -0.40196,-2.58582 -0.24504,-5.24071 -0.73337,-7.82319 -0.48343,-3.07204 -1.14632,-6.11685 -2.0191,-9.10196 -0.77626,-1.94066 1.96824,-3.03846 2.74451,-1.09781 z"
       inkscape:connector-curvature="0" />
    <path
       style="fill:#000000;fill-opacity:1;fill-rule:nonzero;stroke:none"
       id="path14429"
       d="m 731.39204,366.30833 c 1.98246,-2.22199 4.65889,-3.34814 7.45141,-4.16531 4.88005,-0.58383 7.24886,2.14903 9.30805,6.148 1.67786,3.76296 1.87368,7.65262 0.94629,11.61158 -0.73073,2.0452 -2.20592,4.24708 -4.57506,4.54028 -0.4277,0.0529 -0.86143,-0.0293 -1.29215,-0.044 -3.50667,-1.16372 -3.28575,-4.97662 -3.05009,-8.02125 0.88992,-4.63912 3.10115,-8.84802 5.17511,-13.04308 1.25736,-2.50933 2.27925,-5.35538 4.51952,-7.15998 1.59772,-0.54959 0.76824,-0.43802 2.49138,-0.3119 2.06309,0.33526 1.58896,3.25291 -0.47413,2.91765 l 0,0 c -0.17512,-0.17398 -0.0903,-0.0966 -0.25184,-0.23492 -1.66625,0.98307 -2.66289,4.54324 -3.63518,6.09924 -1.91071,3.86425 -3.95344,7.73066 -4.87893,11.97582 -0.12662,1.4304 -0.51326,3.58393 0.41561,4.83895 1.25665,0.6007 2.34841,-1.36074 2.68226,-2.24999 0.81623,-3.26262 0.63534,-6.46564 -0.71181,-9.58683 -1.21974,-2.48126 -2.73352,-4.8937 -5.84817,-4.63991 -2.32322,0.66182 -4.54838,1.55193 -6.18211,3.4158 -1.47796,1.47796 -3.56812,-0.61219 -2.09016,-2.09015 z"
       inkscape:connector-curvature="0" />
    <path
       inkscape:connector-curvature="0"
       d="m 736.31858,542.67839 c 1.98246,-2.22199 4.65889,-3.34814 7.45141,-4.16531 4.88005,-0.58383 7.24886,2.14903 9.30805,6.148 1.67786,3.76296 1.87368,7.65262 0.94629,11.61158 -0.73073,2.0452 -2.20592,4.24708 -4.57506,4.54028 -0.4277,0.0529 -0.86143,-0.0293 -1.29215,-0.044 -3.50667,-1.16372 -3.28575,-4.97662 -3.05009,-8.02125 0.88992,-4.63912 3.10115,-8.84802 5.17511,-13.04308 1.25736,-2.50933 2.27925,-5.35538 4.51952,-7.15998 1.59772,-0.54959 0.76824,-0.43802 2.49138,-0.3119 2.06309,0.33526 1.58896,3.25291 -0.47413,2.91765 l 0,0 c -0.17512,-0.17398 -0.0903,-0.0966 -0.25184,-0.23492 -1.66625,0.98307 -2.66289,4.54324 -3.63518,6.09924 -1.91071,3.86425 -3.95344,7.73066 -4.87893,11.97582 -0.12662,1.4304 -0.51326,3.58393 0.41561,4.83895 1.25665,0.6007 2.34841,-1.36074 2.68226,-2.24999 0.81623,-3.26262 0.63534,-6.46564 -0.71181,-9.58683 -1.21974,-2.48126 -2.73352,-4.8937 -5.84817,-4.63991 -2.32322,0.66182 -4.54838,1.55193 -6.18211,3.4158 -1.47796,1.47796 -3.56812,-0.61219 -2.09016,-2.09015 z"
       id="path14433"
       style="fill:#000000;fill-opacity:1;fill-rule:nonzero;stroke:none" />
    <path
       style="fill:#000000;fill-opacity:1;fill-rule:nonzero;stroke:none"
       id="path14435"
       d="m 210.6663,410.48818 c 1.61409,-0.99435 3.09222,-2.19943 4.68393,-3.23397 2.15879,-1.47179 3.91244,-1.47011 6.33722,-0.62984 2.89389,1.24948 4.60188,3.64747 6.01445,6.3474 1.7691,3.67613 2.84578,7.62662 4.39009,11.39838 1.32209,3.1292 2.81309,6.17985 4.2559,9.25334 0.71471,1.26639 1.29896,2.6907 2.71235,3.29316 1.86798,0.93777 0.54178,3.57949 -1.3262,2.64172 l 0,0 c -1.95628,-1.04773 -3.11144,-2.70132 -4.06218,-4.67937 -1.46261,-3.11928 -2.9771,-6.21414 -4.31604,-9.39045 -1.5062,-3.69085 -2.58003,-7.54546 -4.277,-11.15409 -1.05021,-2.03842 -2.24206,-3.93626 -4.40778,-4.93441 -1.41879,-0.56584 -2.43284,-0.6057 -3.71666,0.33693 -1.68847,1.08309 -3.22619,2.39525 -4.96615,3.39505 -1.86949,0.93475 -3.19142,-1.70911 -1.32193,-2.64385 z"
       inkscape:connector-curvature="0" />
    <path
       style="fill:#000000;fill-opacity:1;fill-rule:nonzero;stroke:none"
       id="path14437"
       d="m 229.90733,420.75818 c -0.50667,2.58752 -1.35733,5.06745 -2.39042,7.48667 -1.24307,2.28952 -2.28583,4.65525 -3.04264,7.14671 -0.12346,0.41367 -0.22788,0.83236 -0.32173,1.25355 -0.45814,2.03933 -3.34218,1.39141 -2.88404,-0.64791 l 0,0 c 0.11139,-0.49267 0.23259,-0.98303 0.37812,-1.46698 0.79145,-2.59166 1.85015,-5.07006 3.15301,-7.44892 0.97622,-2.27306 1.76693,-4.60617 2.24004,-7.04003 0.50694,-2.02775 3.3746,-1.31083 2.86766,0.71691 z"
       inkscape:connector-curvature="0" />
    <path
       style="fill:#000000;fill-opacity:1;fill-rule:nonzero;stroke:none"
       id="path14441"
       d="m 334.13225,473.55381 c 2.01985,-0.50198 4.09349,-0.73185 6.14667,-1.06248 5.15936,-0.67968 10.37924,-0.69939 15.57433,-0.77704 8.34251,-0.11485 16.4944,1.60394 24.41569,4.06929 6.25852,2.15812 12.37068,4.85516 17.85329,8.60721 3.73129,2.55353 4.98255,3.8659 8.36846,6.88321 9.23305,8.94318 15.99195,19.95073 22.46864,30.94884 7.14083,12.82974 13.609,26.01817 20.12295,39.17289 5.36515,10.63559 10.45643,21.46139 16.63851,31.66117 1.17487,1.93841 2.43946,3.82101 3.65919,5.73152 4.88234,7.1075 10.47683,13.77458 17.27194,19.13923 4.34216,3.42807 5.92574,4.12303 10.70636,6.90733 10.96116,5.63158 23.05177,7.83696 35.22005,8.75258 6.71655,0.21872 3.43568,0.20209 9.84247,0.0744 2.08975,-0.0407 2.14737,2.91462 0.0576,2.95536 l 0,0 c -6.60358,0.12597 -3.22905,0.14576 -10.12344,-0.0823 -12.68755,-0.96805 -25.06132,-3.25477 -36.48682,-9.14721 -5.00828,-2.92969 -6.61029,-3.62889 -11.16115,-7.23425 -7.00587,-5.55029 -12.78309,-12.43307 -17.81885,-19.77509 -1.24326,-1.94934 -2.53183,-3.87051 -3.72979,-5.848 -6.21156,-10.2535 -11.33383,-21.13195 -16.72503,-31.82305 -6.48226,-13.09095 -12.91914,-26.21523 -20.02126,-38.98493 -6.31901,-10.73605 -12.90055,-21.4929 -21.88986,-30.24337 -3.18173,-2.8454 -4.44969,-4.16637 -7.95093,-6.57199 -5.2729,-3.62287 -11.15829,-6.21945 -17.18297,-8.30186 -7.61839,-2.38455 -15.46421,-4.03856 -23.49093,-3.9354 -5.05268,0.0753 -10.12936,0.0915 -15.14861,0.73979 -1.97024,0.31715 -3.96036,0.53644 -5.8996,1.01181 -2.02775,0.50693 -2.74466,-2.36073 -0.71692,-2.86767 z"
       inkscape:connector-curvature="0" />
    <path
       style="fill:none;stroke:#000000;stroke-width:2.41653538;stroke-linecap:butt;stroke-linejoin:miter;stroke-miterlimit:4;stroke-opacity:1;stroke-dasharray:2.41653543, 4.83307087;stroke-dashoffset:0"
       d="m 250.26813,608.12203 494.62441,0"
       id="path14443"
       inkscape:connector-curvature="0" />
    <path
       style="fill:none;stroke:#000000;stroke-width:2.41653538;stroke-linecap:butt;stroke-linejoin:miter;stroke-miterlimit:4;stroke-opacity:1;stroke-dasharray:2.41653543, 4.83307087;stroke-dashoffset:0"
       d="m 473.93295,201.19 0,444.37372"
       id="path14445"
       inkscape:connector-curvature="0" />
    <path
       style="fill:#000000;fill-opacity:1;fill-rule:nonzero;stroke:none"
       id="path14447"
       d="m 224.75103,514.66491 c -1.37888,2.51241 -1.87411,5.28733 -1.76613,8.12149 0.32524,1.94753 0.90268,4.60771 3.05944,5.2782 1.84308,-0.27373 2.55195,-2.68769 3.05357,-4.18347 0.88718,-2.93494 0.97321,-5.02256 -0.67661,-7.64576 -1.19929,-1.51396 -2.75866,-2.82907 -4.4717,-3.73586 -0.529,-0.41724 -1.43561,-0.26151 -0.26772,-0.24027 -1.79363,1.07314 -3.31128,-1.46344 -1.51765,-2.53658 l 0,0 c 1.38087,-0.54076 1.9243,-0.50205 3.205,0.18414 2.15199,1.20444 4.13396,2.80062 5.58544,4.80558 2.01577,3.46076 2.13333,6.33509 0.93532,10.13919 -1.14673,3.21171 -3.05006,6.72217 -7.04108,5.91644 -3.45048,-1.71708 -4.26934,-4.23227 -4.81863,-7.89394 -0.0762,-3.32277 0.45852,-6.58007 2.0769,-9.53109 0.93474,-1.86949 3.5786,-0.54756 2.64385,1.32193 z"
       inkscape:connector-curvature="0" />
    <path
       style="fill:#000000;fill-opacity:1;fill-rule:nonzero;stroke:none"
       id="path14449"
       d="m 220.31289,604.67346 c 2.15377,0 4.30754,0 6.46131,0 1.0716,-0.12596 2.12453,-0.36558 3.18319,-0.56741 2.05323,-0.3911 2.60633,2.51262 0.55309,2.90372 l 0,0 c -1.24019,0.23602 -2.4737,0.52625 -3.73628,0.61961 -2.15377,0 -4.30754,0 -6.46131,0 -2.09015,0 -2.09015,-2.95592 0,-2.95592 z"
       inkscape:connector-curvature="0" />
    <path
       style="fill:#000000;fill-opacity:1;fill-rule:nonzero;stroke:none"
       id="path14451"
       d="m 237.09649,595.35343 c 0.97475,3.26515 1.52769,6.65892 2.04782,10.02436 0.43188,2.91051 0.63994,5.84608 0.75745,8.78399 0.007,0.22632 0.0139,0.45263 0.0208,0.67895 0.0639,2.08918 -2.89059,2.17961 -2.95454,0.0904 l 0,0 c -0.007,-0.21717 -0.0132,-0.43434 -0.0199,-0.65152 -0.11253,-2.82653 -0.3108,-5.65093 -0.72525,-8.45127 -0.48422,-3.14617 -1.01144,-6.31148 -1.87095,-9.37713 -0.77626,-1.94066 1.96824,-3.03846 2.74451,-1.09781 z"
       inkscape:connector-curvature="0" />
    <path
       style="fill:#000000;fill-opacity:1;fill-rule:nonzero;stroke:none"
       id="path14453"
       d="m 471.24755,611.44628 c -0.74785,-0.68121 -1.09067,-1.55568 -1.27274,-2.47906 -0.1651,-1.18393 0.22107,-2.2843 0.82237,-3.31914 0.84907,-1.24789 2.17156,-2.09279 3.88394,-1.9194 0.38074,0.0385 0.73839,0.18467 1.10758,0.27701 0.27609,0.1464 0.56718,0.27193 0.82827,0.43921 1.00961,0.6469 1.58298,1.57446 2.03148,2.58228 0.49116,1.30219 0.41486,2.77349 -0.69911,3.82415 -0.27263,0.25712 -0.63059,0.42765 -0.94588,0.64147 -0.28024,0.0984 -0.55029,0.22474 -0.84071,0.29514 -0.98409,0.23855 -2.14863,0.1582 -3.07198,-0.24216 -0.28332,-0.12285 -0.54394,-0.28435 -0.81591,-0.42653 -0.85103,-0.61225 -1.61817,-1.38386 -1.83676,-2.38335 -0.0686,-0.3138 -0.0463,-0.63833 -0.0694,-0.9575 0.23666,-1.11406 0.54397,-1.73945 1.6094,-2.4131 0.67909,-0.42938 1.44558,-0.52449 2.23933,-0.60361 1.1886,-0.003 2.33238,0.34086 3.1949,1.10083 0.59148,0.52115 0.65133,0.74862 1.00917,1.38388 0.44503,1.11527 0.40525,2.28459 -0.27488,3.32329 -0.40306,0.61556 -0.6402,0.70931 -1.25585,1.17652 -0.34083,0.14051 -0.6604,0.33437 -1.02249,0.42152 -1.26342,0.3041 -2.51037,0.0349 -3.61034,-0.54256 -0.18654,-0.0979 -0.35646,-0.21956 -0.53468,-0.32935 -1.10092,-0.80705 -1.64517,-1.71692 -1.94174,-2.94413 -0.17602,-1.11447 0.16749,-2.23572 1.09555,-3.02547 0.5931,-0.50471 0.82346,-0.53791 1.52675,-0.8199 1.23599,-0.34625 2.56616,-0.32089 3.73,0.23329 0.27574,0.13129 0.51594,0.3159 0.77391,0.47385 1.35887,1.151 1.7361,2.21447 1.60282,3.86953 -0.15669,0.95579 -0.52968,1.90161 -1.26068,2.62975 -0.18663,0.1859 -0.41532,0.33357 -0.62299,0.50036 -0.21659,0.11535 -0.41313,0.26913 -0.64978,0.34606 -1.30812,0.42527 -2.36006,0.42002 -3.56179,-0.24587 -0.71689,-0.39724 -0.87271,-0.65274 -1.38557,-1.2096 -0.78227,-1.10688 -1.21131,-2.44103 -0.88609,-3.75366 0.076,-0.30681 0.22447,-0.59529 0.3367,-0.89293 0.19472,-0.27437 0.34871,-0.57604 0.58415,-0.8231 0.78894,-0.82787 1.88784,-1.31935 3.09865,-1.37535 0.9653,-0.0446 1.28236,0.1331 2.15467,0.4027 0.25355,0.13125 0.52267,0.24062 0.76064,0.39374 1.21155,0.77959 2.01552,2.02624 1.89,3.40373 -0.0356,0.39079 -0.22147,0.75835 -0.33221,1.13752 -1.00176,1.29046 -0.42794,0.76919 -1.65624,1.62008 -3.61186,2.07274 -6.86318,-2.53243 -3.25132,-4.60516 l 0,0 c -0.4958,0.44835 -0.23968,0.16479 -0.68995,0.90365 -0.0392,0.22271 -0.12237,0.44269 -0.11747,0.66813 0.0132,0.6097 0.32869,1.32771 1.03379,1.50447 0.9791,0.1268 1.71118,-0.24268 2.08813,-1.07474 0.0592,-0.29422 0.15871,-0.58379 -0.15219,-0.76352 -0.85677,-0.60893 -2.05573,-0.58409 -2.92775,0.0176 -0.22624,0.21209 -0.58977,0.46381 -0.4813,0.70765 0.0504,-0.11081 -0.003,-0.0116 0.065,0.18988 0.10184,0.3023 0.30904,0.55061 0.59932,0.72689 0.42662,0.19865 0.88383,0.35706 1.34203,0.14033 0.97193,-0.49905 1.43742,-1.291 1.23957,-2.30919 -0.0974,-0.19932 -0.2435,-0.35382 -0.46265,-0.45407 0.0124,0.0725 0.009,0.009 -0.1586,-0.0206 -0.12894,-0.0229 -0.26411,-0.0254 -0.39415,-0.008 -0.78126,0.10258 -0.63491,0.0938 -1.27261,0.42132 -0.1197,0.10815 -0.25176,0.20624 -0.3591,0.32446 -0.45519,0.50132 -0.52873,1.24413 -0.22158,1.81796 0.39548,0.52277 0.97561,0.89647 1.71039,0.8083 0.78269,-0.16632 1.44396,-0.71238 1.70164,-1.40777 0.0804,-0.21691 0.0933,-0.44959 0.13992,-0.67438 -0.0709,-0.54241 -0.11224,-1.21238 -0.68969,-1.49831 -0.1248,-0.0503 -0.24647,-0.10748 -0.37439,-0.15096 -0.42446,-0.14425 -0.94075,0.0865 -1.30174,0.24975 -0.19568,0.15344 -0.42155,0.2803 -0.58703,0.46032 -0.35328,0.38431 -0.7821,1.28492 -0.4839,1.78402 0.01,0.0163 -0.004,-0.037 -0.006,-0.0555 0.008,-0.004 0.0279,-0.0757 0.0448,-0.0697 0.16878,0.0597 0.28261,0.22384 0.49045,0.21214 0.2131,0.035 0.42274,0.10107 0.63931,0.10498 0.71019,0.0129 1.65606,-0.25154 1.96171,-0.89091 -0.17622,0.18184 -0.0821,0.006 -0.14847,-0.15491 -0.14003,-0.16114 -0.21653,-0.40618 -0.42738,-0.53398 3.02746,2.72947 -1.25402,6.58952 -4.28148,3.86005 z"
       inkscape:connector-curvature="0" />
    <path
       style="fill:none;stroke:#000000;stroke-width:2.41653538;stroke-linecap:butt;stroke-linejoin:miter;stroke-miterlimit:4;stroke-opacity:1;stroke-dasharray:2.41653543, 4.83307087;stroke-dashoffset:0"
       d="m 313.32781,77.041242 0,119.222218"
       id="path14455"
       inkscape:connector-curvature="0" />
    <path
       style="color:#000000;fill:#000000;fill-opacity:1;fill-rule:nonzero;stroke:none;stroke-width:1px;marker:none;visibility:visible;display:inline;overflow:visible;enable-background:accumulate"
       id="path3036"
       d="m 81.385626,355.55061 c 0.446649,3.00543 0.633526,6.04036 0.775102,9.07288 0.0531,1.22808 0.07631,2.45708 0.09913,3.68599 0.03875,2.08979 -2.916659,2.1446 -2.955414,0.0548 l 0,0 c -0.02224,-1.2013 -0.04475,-2.40269 -0.09644,-3.60319 -0.135635,-2.91588 -0.313199,-5.8341 -0.738088,-8.72453 -0.343619,-2.06171 2.572085,-2.54766 2.915704,-0.48595 z"
       inkscape:connector-curvature="0"
       transform="translate(163.17058,75.832974)" />
  </g>
</svg>
