<?xml version="1.0" encoding="utf-8"?>
<!-- Generator: Adobe Illustrator 15.0.2, SVG Export Plug-In . SVG Version: 6.00 Build 0)  -->
<!DOCTYPE svg PUBLIC "-//W3C//DTD SVG 1.1//EN" "http://www.w3.org/Graphics/SVG/1.1/DTD/svg11.dtd">
<svg version="1.1"
	 id="svg4163" xmlns:inkscape="http://www.inkscape.org/namespaces/inkscape" sodipodi:docname="SimplestWalkerPendulum.pdf" inkscape:version="0.48.0 r9654" xmlns:sodipodi="http://sodipodi.sourceforge.net/DTD/sodipodi-0.dtd" xmlns:svg="http://www.w3.org/2000/svg" xmlns:rdf="http://www.w3.org/1999/02/22-rdf-syntax-ns#" xmlns:cc="http://creativecommons.org/ns#" xmlns:dc="http://purl.org/dc/elements/1.1/"
	 xmlns="http://www.w3.org/2000/svg" xmlns:xlink="http://www.w3.org/1999/xlink" x="0px" y="0px" width="488.277px"
	 height="376.137px" viewBox="0 0 488.277 376.137" enable-background="new 0 0 488.277 376.137" xml:space="preserve">
<sodipodi:namedview  borderopacity="1.0" bordercolor="#666666" pagecolor="#ffffff" inkscape:document-units="mm" inkscape:cx="214.04169" inkscape:pageopacity="0.0" inkscape:pageshadow="2" inkscape:zoom="0.7176508" inkscape:cy="280.86602" inkscape:current-layer="layer1" id="namedview4167" showgrid="false" fit-margin-top="0" fit-margin-left="0" fit-margin-right="0" fit-margin-bottom="0" inkscape:window-width="1280" inkscape:window-height="752" inkscape:window-y="0" inkscape:window-maximized="0" inkscape:window-x="0">
	</sodipodi:namedview>
<path id="path4680" inkscape:connector-curvature="0" fill="none" stroke="#000000" stroke-width="3.8339" stroke-linecap="round" d="
	M102.305,358.559h236.876l-234.771-66.326"/>
<path id="path4682" inkscape:connector-curvature="0" d="M232.73,329.686c-2.247,0.74-4.014,2.264-5.683,3.875
	c-2.392,2.686-3.191,6.008-3.722,9.461c-0.466,3.723-0.644,7.473,0.059,11.17c0.106,0.447,0.211,0.895,0.317,1.342
	c0.511,2.174-2.564,2.896-3.075,0.723l0,0c-0.115-0.498-0.232-0.994-0.348-1.492c-0.729-4.055-0.621-8.15-0.073-12.229
	c0.653-4.139,1.73-8.088,4.652-11.25c2.073-1.99,4.308-3.814,7.107-4.666C234.131,326.078,234.897,329.145,232.73,329.686
	L232.73,329.686z"/>
<path id="path4684" inkscape:connector-curvature="0" d="M150.551,327.35c2.888-1.779,6.052-3.041,9.444-3.26
	c5.026,0.854,6.35,4.627,7.382,9.072c0.921,4.283,0.295,8.414-1.698,12.271c-1.534,2.414-3.514,4.551-6.233,5.553
	c-3.941,0.32-4.438-3.68-4.78-6.686c-0.036-5.387,2.485-9.959,5.592-14.17c2.998-3.588,6.772-6.404,10.931-8.496
	c1.182-0.559,2.409-1.01,3.665-1.369c2.147-0.613,3.014,2.424,0.866,3.037l0,0c-1.07,0.301-2.111,0.689-3.119,1.158
	c-3.728,1.846-7.099,4.383-9.806,7.553c-2.651,3.545-4.879,7.389-4.989,11.941c0.116,1.08,0.15,1.725,0.373,2.748
	c0.074,0.342,0.351,0.648,0.322,0.998c-0.032,0.375-0.366-0.029-0.039,0.285c1.96-0.439,3.295-2.549,4.425-4.027
	c1.711-3.145,2.141-6.578,1.41-10.094c-0.591-2.652-1.206-5.752-4.167-6.619c-2.851,0.025-5.531,1.42-7.956,2.812
	C150.26,331.205,148.635,328.496,150.551,327.35L150.551,327.35z"/>
<path id="path4690" inkscape:connector-curvature="0" d="M121.886,187.451c0.738,6.692,0.732,13.446,0.83,20.17
	c0.114,10.516,0.119,21.033,0.125,31.549c0.001,5.342,0.001,2.754,0,7.768c0,2.232-3.159,2.232-3.158-0.002l0,0
	c0.001-5.012,0.001-2.424,0-7.766c-0.006-10.5-0.011-21.002-0.125-31.502c-0.094-6.566-0.094-13.16-0.787-19.698
	C118.403,185.766,121.518,185.248,121.886,187.451L121.886,187.451z"/>
<path id="path4692" inkscape:connector-curvature="0" d="M115.549,234.127c1.13,2.668,2.182,5.369,3.219,8.076
	c1.114,2.988,2.538,5.846,3.834,8.758c0.347,0.795,0.694,1.59,1.023,2.393c0.03,0.072,0.165,0.209,0.088,0.215
	c-0.979,0.072-1.964-0.002-2.946-0.002c0.303-1.529,0.711-3.051,1.092-4.568c0.973-2.832,1.432-5.793,2.109-8.701
	c0.35-1.902,0.845-3.732,1.486-5.555c0.143-0.27,0.285-0.541,0.428-0.812c1.088-1.949,3.846-0.408,2.757,1.541l0,0
	c-0.069,0.109-0.138,0.215-0.207,0.324c-0.604,1.709-1.062,3.428-1.388,5.217c-0.681,2.926-1.143,5.908-2.122,8.756
	c-0.378,1.502-0.812,3.008-1.081,4.52c-4.077,0.623-2.737,0.977-4.125-2.043c-1.318-2.963-2.767-5.871-3.898-8.912
	c-0.999-2.611-2.02-5.213-3.094-7.793C111.726,233.543,114.552,232.129,115.549,234.127L115.549,234.127z"/>
<path id="path4704" inkscape:connector-curvature="0" d="M100.042,211.276c-1.798-0.879-2.337-1.391-4.143-0.402
	c-1.885,1.766-2.598,4.211-3.135,6.652c-0.182,0.91-0.684,3.785,0.934,3.891c1.61-0.604,2.587-1.992,3.428-3.418
	c0.872-2.188,1.528-4.615,1.354-6.992c-0.362-2.572-1.655-2.213,2.174-1.791c0.028-0.033,0.06-0.139,0.082-0.102
	c0.177,0.299,0.125,0.684,0.229,1.016c0.13,0.418,0.507,1.205,0.661,1.545c1.732,3.336,2.297,7.012,2.92,10.67
	c0.915,5.012,1.219,10.072,0.733,15.141c-0.803,4.502-1.657,7.027-5.917,9.078c-4.514,1.252-8.079-1.375-10.724-4.775
	c-1.37-1.926-1.462-3.918-1.419-6.176c0.086-2.232,3.242-2.111,3.156,0.121l0,0c-0.105,1.543-0.138,2.799,0.78,4.148
	c1.629,2.234,3.928,4.348,6.902,3.805c2.966-1.209,3.557-3.506,4.078-6.51c0.481-4.787,0.151-9.566-0.703-14.301
	c-0.579-3.398-1.064-6.812-2.688-9.908c-0.736-1.65-1.554-3.443-0.872-5.246c0.979-0.031,1.961-0.17,2.939-0.094
	c0.211,0.016,0.85,2.982,0.824,3.223c0.106,3.02-0.536,6.045-1.81,8.789c-1.692,2.729-4.02,5.398-7.556,4.598
	c-0.408-0.25-0.863-0.434-1.224-0.746c-1.914-1.66-1.804-4.412-1.365-6.652c0.767-3.385,1.912-6.697,4.849-8.811
	c2.792-1.25,4.308-0.975,6.924,0.424C103.452,209.449,102.04,212.276,100.042,211.276z"/>
<path id="path4712" inkscape:connector-curvature="0" d="M88.195,201.166c2.138,0.15,4.211-0.107,6.311-0.455
	c1.863-0.318,3.684-0.621,5.55-0.225c0.762,0.244,1.533,0.457,2.31,0.654c0.063,0.014,0.126,0.031,0.189,0.049
	c-0.53,0.816-0.919,1.744-1.589,2.451c-0.079,0.082-2.108-2.271-2.171-2.34c-1.123-1.328-2.131-2.709-2.791-4.324
	c-0.339-0.598-0.156-0.26-0.537-1.023c-0.994-2.002,1.835-3.406,2.829-1.406l0,0c0.392,0.791,0.177,0.365,0.648,1.275
	c0.465,1.277,1.364,2.293,2.188,3.354c0.558,0.621,1.065,1.246,1.66,1.834c0.112,0.109,0.37,0.176,0.337,0.33
	c-0.217,1.027-0.689,1.982-1.034,2.973c-0.17-0.029-0.339-0.068-0.506-0.111c-0.75-0.189-1.5-0.389-2.235-0.635
	c-1.433-0.363-2.888,0.098-4.332,0.26c-2.268,0.377-4.521,0.645-6.829,0.498C85.962,204.324,85.962,201.166,88.195,201.166
	L88.195,201.166z"/>
<path id="path4714" inkscape:connector-curvature="0" d="M190.097,314.069c1.725-8.135,4.651-15.955,7.194-23.857
	c5.462-17.498,11.202-34.91,16.549-52.445c0.651-2.137,3.672-1.215,3.021,0.922l0,0c-5.351,17.551-11.096,34.977-16.563,52.492
	c-2.487,7.725-5.334,15.369-7.069,23.309C192.931,316.701,189.801,316.281,190.097,314.069L190.097,314.069z"/>
<path id="path4716" inkscape:connector-curvature="0" d="M217.33,238.27c3.44,7.572,5.729,15.602,8.37,23.471
	c5.991,17.326,11.706,34.744,17.81,52.031c0.744,2.105-2.234,3.158-2.977,1.053l0,0c-6.11-17.303-11.831-34.738-17.827-52.08
	c-2.583-7.691-4.83-15.535-8.144-22.953C213.486,237.834,216.254,236.315,217.33,238.27L217.33,238.27z"/>
<path id="path4722" inkscape:connector-curvature="0" d="M217.449,246.573c-0.476,0.104-0.96,0.141-1.445,0.168
	c-0.937,0.037-1.766-0.275-2.592-0.734c-0.791-0.475-1.471-1.139-1.958-1.982c-0.097-0.168-0.173-0.348-0.26-0.523
	c-0.455-1.057-0.556-2.127-0.268-3.266c0.046-0.182,0.117-0.354,0.176-0.529c0.473-1.107,1.151-1.92,2.14-2.486
	c0.173-0.098,0.359-0.164,0.539-0.246c1.072-0.396,2.233-0.383,3.277,0.121c0.213,0.102,0.412,0.234,0.618,0.352
	c1.093,0.816,1.604,1.695,2.038,3.037c0.105,0.438,0.214,0.873,0.303,1.314c0.282,1.467-0.191,2.65-1.196,3.596
	c-0.035,0.031-0.138,0.125-0.105,0.092c0.391-0.389-0.283,0.285-0.332,0.334c-0.35,0.359-0.763,0.625-1.189,0.855
	c-0.095,0.045-0.189,0.088-0.284,0.135c-0.042,0.02,0.154-0.1,0.126-0.059c-0.031,0.047-0.091,0.055-0.139,0.078
	c-0.37,0.176-0.727,0.297-1.119,0.391c-0.831,0.197-1.642,0.02-2.426-0.287c-0.602-0.271-1.16-0.676-1.59-1.223
	c-0.102-0.129-0.194-0.268-0.292-0.402c-0.497-0.789-0.69-1.691-0.756-2.633c-0.029-0.873,0.144-1.688,0.496-2.469
	c0.422-0.891,1.032-1.465,1.803-1.969c0.535-0.312,1.104-0.523,1.693-0.666c0.476-0.1,0.96-0.105,1.441-0.109
	c0.687,0.018,1.363,0.188,1.972,0.547c0.131,0.078,0.254,0.172,0.381,0.258c0.545,0.385,0.946,0.936,1.298,1.523
	c0.405,0.73,0.531,1.562,0.57,2.402c0.012,0.385,0.011,0.771,0.01,1.158c-0.029,0.527-0.087,1.057-0.292,1.545
	c-0.11,0.264-0.255,0.508-0.391,0.754c-0.083,0.152-0.423,0.543-0.445,0.57c-0.644,0.703-1.375,1.016-2.246,1.191
	c-0.537,0.086-1.075,0.076-1.614,0.035c-0.212-0.014-0.454-0.098-0.652-0.115c-0.57-0.1-1.019-0.287-1.538-0.574
	c-0.399-0.205-0.756-0.494-1.095-0.801c-0.431-0.381-0.766-0.842-1.082-1.338c-0.326-0.602-0.516-1.258-0.632-1.945
	c-0.012-0.1-0.025-0.201-0.035-0.301c-0.008-0.07,0.019,0.139,0.025,0.209c0,0.01-0.005-0.016-0.007-0.025
	c-0.014-0.061-0.027-0.119-0.039-0.18c-0.05-0.258-0.047-0.256-0.085-0.52c-0.051-0.402-0.061-0.807-0.065-1.213
	c-0.022-0.535,0.052-1.062,0.189-1.574c0.184-0.635,0.522-1.176,0.924-1.662c0.442-0.52,0.978-0.848,1.565-1.115
	c-0.018,0.008-0.036,0.016-0.055,0.021c-0.005,0.002,0.01-0.006,0.015-0.01c0.079-0.037,0.159-0.076,0.24-0.107
	c0.27-0.107,0.532-0.174,0.811-0.234c0.313-0.057,0.629-0.07,0.944-0.072c0.172,0,0.346,0,0.518,0c0.139,0,0.277,0,0.415,0
	c0.422-0.018,0.839,0.049,1.25,0.156c0.134,0.039,0.487,0.152,0.821,0.316c0.338,0.176,0.619,0.369,0.976,0.65
	c0.493,0.387,0.88,0.969,1.119,1.369c0.146,0.242,0.28,0.562,0.435,0.92c0.229,0.537,0.341,1.115,0.392,1.703
	c0.043,0.479,0.009,0.951-0.03,1.428c-0.059,0.434-0.189,0.902-0.32,1.273c0.016-0.047,0.062-0.191,0.048-0.143
	c-0.088,0.295-0.187,0.576-0.293,0.865c-0.226,0.664-0.626,1.219-1.102,1.684c-0.436,0.434-0.965,0.705-1.505,0.932
	c-0.546,0.211-1.121,0.268-1.695,0.289c-0.75,0.047-1.466-0.191-2.154-0.49c-0.127-0.066-0.256-0.131-0.38-0.203
	c-0.245-0.145-0.471-0.316-0.708-0.475c-0.016-0.012,0.028,0.025,0.042,0.037c-3.62-2.146-0.884-7.824,2.735-5.678l0,0
	c0.199,0.125,0.414,0.252,0.605,0.393c0.02,0.016-0.111-0.045-0.069-0.02c-0.104-0.016,0.065,0.029,0.048,0.027
	c-0.072-0.004-0.143-0.018-0.214-0.027c-0.062,0.002-0.125,0.002-0.187,0.002c-0.037,0,0.074-0.002,0.11-0.002
	c0.293-0.008,0.075,0.002-0.06,0.074c-0.043,0.02-0.169,0.09-0.126,0.068c0.2-0.105,0.125-0.092-0.119,0.096
	c-0.054,0.041-0.101,0.092-0.152,0.135c-0.019,0.018,0.037-0.033,0.056-0.051c-0.193,0.207-0.305,0.408-0.458,0.666
	c-0.03,0.053-0.038,0.117-0.065,0.17c-0.021,0.039,0.032-0.084,0.047-0.127c0.02-0.053,0.009-0.15,0.062-0.16
	c0.05-0.01-0.031,0.107-0.051,0.158c-0.018,0.045,0.027-0.092,0.042-0.137c0.019-0.059,0.034-0.121,0.058-0.178
	c0.014-0.035-0.02,0.074-0.03,0.111c0.032-0.111,0.065-0.223,0.099-0.334c0.147-0.41,0.047-0.137,0.03-0.072
	c-0.047,0.184-0.093,0.426-0.045,0.178c0.008-0.039,0.011-0.08,0.023-0.117c0.008-0.025-0.007,0.053-0.01,0.08
	c-0.042,0.873-0.012,0.172-0.016,0.102c0.029,0.168,0.064,0.334,0.139,0.484c-0.013-0.029-0.148-0.348-0.144-0.35
	c0.067-0.008,0.061,0.135,0.093,0.201c0.017,0.035,0.075,0.135,0.057,0.102c-0.098-0.178-0.157-0.273-0.098-0.176
	c0.194,0.297-0.106-0.162-0.088-0.143c0.095,0.102,0.16,0.234,0.248,0.342c0.05,0.062,0.124,0.1,0.163,0.17
	c0.021,0.037-0.606-0.623,0.1,0.07c-0.07-0.057-0.294-0.203-0.214-0.162c0.092,0.045,0.179,0.102,0.261,0.166
	c0.002,0.002-0.53-0.309,0.006-0.008c-0.162-0.08-0.43-0.213,0.36,0.105c0.205,0.084-0.278-0.078-0.381-0.105
	c0.351,0.08,0.049,0.02,0.605,0.074c0.028,0.002-0.055,0-0.083,0c-0.049,0-0.116,0-0.166,0c-0.022,0-0.046,0-0.068,0
	c-0.143,0-0.285,0-0.428,0c-0.155-0.002-0.31-0.002-0.464-0.002c-0.052,0-0.191,0.006-0.016-0.018
	c0.108-0.029,0.192-0.057,0.298-0.102c0.025-0.012,0.098-0.049,0.073-0.037c-0.293,0.141,0.016-0.002-0.373,0.172
	c0.489-0.242,0.283-0.141,0.725-0.574c-0.024,0.025,0.04-0.061,0.058-0.092c0.127-0.223,0.227-0.432,0.292-0.691
	c0.055-0.24,0.048-0.43,0.073-0.701c0.025-0.291-0.026,0.568,0.001,0.285c0,0.115,0.006,0.238,0.003,0.35
	c-0.048-0.164,0.236,1.023,0.121,0.682c-0.014-0.057-0.02-0.082-0.039-0.143c-0.027-0.078-0.06-0.146-0.045-0.109
	c0.065,0.174,0.13,0.277-0.103-0.176c-0.055-0.078-0.107-0.158-0.163-0.234c-0.021-0.027-0.088-0.104-0.066-0.078
	c0.517,0.623-0.195-0.213,0.119,0.145c-0.278-0.164,0.104,0.074,0.121,0.072c-0.473-0.234,0.676,0.33-0.356-0.135
	c-0.003-0.002,0.885,0.283-0.152-0.006c0.196,0.027,0.413,0.059,0.596,0.109c-0.481-0.006,0.036-0.025,0.133-0.008
	c0.006,0-0.009,0.004-0.014,0.006c-0.359,0.1-0.702,0.279-0.961,0.582c-0.067,0.088-0.134,0.176-0.203,0.266
	c-0.004,0.006,0.016-0.023,0.013-0.016c-0.247,0.525-0.434,0.857-0.419,1.451c0.001-0.281,0.002-0.564-0.003-0.846
	c0-0.027-0.006-0.105,0.001-0.08c0.084,0.262,0.125,0.537,0.285,0.762c0.094,0.143,0.181,0.281,0.424,0.457
	c0.281,0.17,0.572,0.307,0.898,0.277c-0.073,0.002-0.533,0.021-0.353-0.012c0.322-0.111-0.323,0.133,0.009-0.025
	c0.246-0.201,0.429-0.455,0.559-0.762c-0.013,0.027-0.045,0.111-0.037,0.08c0.102-0.359,0.198-0.578,0.147-0.943
	c-0.001,0.066-0.042-0.125-0.065-0.186c-0.106-0.279-0.116-0.26-0.297-0.564c-0.189-0.232-0.407-0.455-0.682-0.551
	c-0.23-0.074-0.532-0.115-0.801-0.031c-0.117,0.043-0.22,0.098-0.333,0.154c-0.025,0.012,0.048-0.027,0.072-0.041
	c0.383-0.201,0.449-0.24,0.288-0.146c0.014-0.008,0.028-0.029,0.039-0.021c0.011,0.01-0.023,0.016-0.035,0.025
	c-0.042,0.029-0.083,0.062-0.125,0.094c-0.015,0.012,0.058-0.049,0.045-0.035c-0.047,0.049-0.097,0.094-0.147,0.139
	c-0.033,0.029,0.062-0.061,0.094-0.092c0.216-0.211,0.43-0.414,0.648-0.623c-0.479,0.488-0.881,1.203-0.902,1.947
	c-0.008,0.309,0.038,0.617,0.053,0.928c0.001,0.012-0.005-0.027-0.008-0.041c-0.046-0.232-0.12-0.506-0.151-0.699
	c0.126,0.238,0.366,0.398,0.578,0.531c0.326,0.133,0.706,0.17,1.025-0.014c0.323-0.219,0.559-0.465,0.672-0.867
	c0.118-0.506,0.138-1.084-0.104-1.551c-0.104-0.162-0.188-0.256-0.336-0.357c-0.007-0.006,0.098,0.088-0.002,0.031
	c0.196,0.113,0.139,0.078-0.075,0.029c-0.018-0.004,0.071,0.018,0.053,0.018c-0.057,0.004-0.114-0.006-0.171-0.008
	c-0.036,0.002-0.073,0.006-0.108,0.008c0.194-0.008,0.388-0.02,0.581-0.051C220.335,239.367,221.474,245.678,217.449,246.573
	L217.449,246.573z"/>
<path id="path4724" inkscape:connector-curvature="0" d="M192.183,322.373c-0.476,0.104-0.961,0.141-1.444,0.168
	c-0.938,0.037-1.766-0.277-2.593-0.732c-0.79-0.477-1.471-1.143-1.957-1.984c-0.097-0.168-0.174-0.348-0.261-0.523
	c-0.454-1.057-0.556-2.129-0.269-3.266c0.046-0.182,0.118-0.354,0.176-0.529c0.473-1.107,1.15-1.92,2.139-2.486
	c0.173-0.1,0.359-0.164,0.539-0.246c1.072-0.396,2.233-0.383,3.277,0.119c0.212,0.104,0.412,0.236,0.618,0.354
	c1.093,0.818,1.603,1.695,2.038,3.037c0.104,0.436,0.214,0.871,0.304,1.312c0.282,1.467-0.191,2.652-1.196,3.598
	c-0.035,0.029-0.138,0.123-0.105,0.09c0.391-0.389-0.283,0.287-0.332,0.334c-0.351,0.359-0.763,0.625-1.19,0.857
	c-0.095,0.043-0.19,0.088-0.283,0.133c-0.042,0.02,0.153-0.098,0.126-0.057c-0.031,0.047-0.091,0.053-0.139,0.076
	c-0.371,0.178-0.727,0.297-1.12,0.393c-0.831,0.195-1.642,0.018-2.425-0.289c-0.602-0.271-1.16-0.676-1.589-1.221
	c-0.103-0.131-0.194-0.27-0.292-0.404c-0.497-0.789-0.69-1.689-0.756-2.631c-0.029-0.873,0.144-1.689,0.496-2.469
	c0.422-0.891,1.032-1.467,1.804-1.969c0.535-0.314,1.104-0.525,1.693-0.666c0.475-0.1,0.959-0.107,1.441-0.109
	c0.686,0.018,1.363,0.186,1.972,0.545c0.132,0.078,0.254,0.172,0.381,0.258c0.544,0.385,0.946,0.936,1.298,1.523
	c0.405,0.73,0.531,1.562,0.57,2.402c0.012,0.387,0.011,0.773,0.01,1.158c-0.029,0.529-0.087,1.059-0.292,1.547
	c-0.11,0.264-0.255,0.506-0.391,0.754c-0.083,0.152-0.422,0.541-0.444,0.568c-0.645,0.705-1.375,1.016-2.245,1.193
	c-0.537,0.086-1.076,0.074-1.614,0.033c-0.212-0.014-0.454-0.096-0.652-0.115c-0.57-0.098-1.019-0.285-1.538-0.574
	c-0.399-0.205-0.756-0.492-1.097-0.801c-0.431-0.381-0.765-0.84-1.081-1.338c-0.326-0.602-0.516-1.258-0.632-1.943
	c-0.012-0.102-0.025-0.201-0.036-0.303c-0.007-0.07,0.019,0.141,0.027,0.211c0,0.008-0.005-0.018-0.008-0.025
	c-0.014-0.061-0.027-0.119-0.039-0.18c-0.051-0.258-0.047-0.256-0.085-0.521c-0.051-0.4-0.061-0.807-0.064-1.211
	c-0.022-0.535,0.052-1.064,0.189-1.574c0.185-0.637,0.522-1.176,0.924-1.664c0.442-0.518,0.978-0.846,1.565-1.113
	c-0.019,0.006-0.037,0.014-0.056,0.02c-0.005,0.002,0.01-0.006,0.015-0.008c0.08-0.037,0.158-0.076,0.24-0.107
	c0.27-0.107,0.533-0.176,0.812-0.236c0.313-0.055,0.629-0.068,0.945-0.072c0.173,0,0.345,0,0.518,0
	c0.138,0.002,0.276,0.002,0.415,0.002c0.422-0.02,0.839,0.047,1.25,0.156c0.134,0.037,0.486,0.152,0.821,0.314
	c0.338,0.176,0.619,0.371,0.976,0.652c0.493,0.385,0.879,0.969,1.119,1.367c0.146,0.242,0.28,0.562,0.434,0.922
	c0.229,0.537,0.341,1.115,0.392,1.703c0.043,0.479,0.009,0.949-0.029,1.426c-0.059,0.434-0.19,0.904-0.32,1.275
	c0.016-0.049,0.062-0.193,0.047-0.143c-0.088,0.293-0.187,0.576-0.293,0.863c-0.225,0.664-0.626,1.219-1.102,1.684
	c-0.435,0.436-0.965,0.705-1.505,0.934c-0.546,0.211-1.121,0.266-1.695,0.287c-0.75,0.047-1.466-0.189-2.154-0.488
	c-0.127-0.068-0.256-0.131-0.38-0.205c-0.245-0.145-0.471-0.316-0.708-0.473c-0.015-0.012,0.029,0.023,0.042,0.037
	c-3.62-2.146-0.884-7.824,2.735-5.68l0,0c0.198,0.125,0.414,0.252,0.605,0.395c0.02,0.016-0.112-0.047-0.07-0.021
	c-0.104-0.016,0.066,0.029,0.049,0.029c-0.072-0.004-0.143-0.018-0.214-0.027c-0.062,0-0.125,0.002-0.187,0
	c-0.037,0,0.074-0.002,0.11-0.002c0.295-0.006,0.076,0.002-0.059,0.074c-0.043,0.021-0.168,0.09-0.126,0.068
	c0.199-0.105,0.125-0.092-0.119,0.096c-0.053,0.043-0.101,0.092-0.153,0.137c-0.019,0.016,0.038-0.035,0.056-0.053
	c-0.193,0.207-0.305,0.408-0.458,0.668c-0.03,0.051-0.038,0.115-0.065,0.168c-0.021,0.041,0.032-0.084,0.047-0.125
	c0.02-0.055,0.009-0.152,0.062-0.162c0.05-0.01-0.031,0.107-0.051,0.16c-0.018,0.043,0.028-0.092,0.042-0.139
	c0.018-0.059,0.034-0.119,0.058-0.176c0.014-0.035-0.02,0.072-0.03,0.109c0.032-0.109,0.065-0.221,0.099-0.332
	c0.146-0.41,0.047-0.139,0.03-0.072c-0.047,0.182-0.093,0.426-0.045,0.178c0.008-0.039,0.011-0.08,0.023-0.117
	c0.008-0.025-0.007,0.053-0.01,0.078c-0.042,0.875-0.012,0.174-0.016,0.104c0.029,0.17,0.063,0.334,0.139,0.484
	c-0.013-0.029-0.148-0.348-0.143-0.35c0.067-0.008,0.06,0.137,0.093,0.201c0.017,0.035,0.076,0.135,0.057,0.102
	c-0.097-0.178-0.157-0.273-0.097-0.176c0.194,0.297-0.106-0.162-0.088-0.143c0.095,0.102,0.16,0.232,0.248,0.342
	c0.049,0.062,0.124,0.1,0.164,0.17c0.021,0.039-0.606-0.625,0.1,0.07c-0.07-0.057-0.294-0.203-0.215-0.164
	c0.092,0.047,0.18,0.104,0.262,0.168c0.002,0.002-0.53-0.309,0.006-0.008c-0.162-0.08-0.429-0.215,0.36,0.105
	c0.205,0.082-0.278-0.078-0.381-0.107c0.351,0.08,0.049,0.021,0.605,0.076c0.028,0.004-0.056,0-0.083,0c-0.049,0-0.116,0-0.166,0
	c-0.023,0-0.046,0-0.068,0c-0.143,0-0.285,0-0.427,0c-0.155-0.002-0.31-0.002-0.464-0.002c-0.052,0-0.191,0.006-0.016-0.018
	c0.108-0.027,0.192-0.057,0.298-0.104c0.025-0.01,0.098-0.047,0.074-0.035c-0.293,0.141,0.016-0.002-0.373,0.172
	c0.489-0.242,0.283-0.141,0.725-0.574c-0.024,0.025,0.04-0.061,0.058-0.092c0.126-0.223,0.227-0.432,0.292-0.691
	c0.054-0.24,0.048-0.43,0.072-0.701c0.026-0.291-0.026,0.566,0,0.285c0.001,0.115,0.006,0.238,0.003,0.348
	c-0.048-0.162,0.236,1.023,0.122,0.684c-0.014-0.057-0.02-0.082-0.04-0.141c-0.026-0.08-0.059-0.15-0.044-0.111
	c0.065,0.172,0.13,0.275-0.104-0.176c-0.054-0.078-0.106-0.158-0.163-0.234c-0.02-0.027-0.088-0.104-0.067-0.078
	c0.517,0.623-0.195-0.215,0.12,0.145c-0.278-0.164,0.104,0.072,0.121,0.072c-0.473-0.234,0.676,0.33-0.356-0.135
	c-0.002-0.002,0.886,0.283-0.152-0.006c0.195,0.027,0.413,0.057,0.595,0.109c-0.481-0.006,0.036-0.025,0.133-0.008
	c0.006,0-0.009,0.004-0.013,0.006c-0.36,0.1-0.703,0.279-0.962,0.582c-0.067,0.088-0.134,0.176-0.203,0.266
	c-0.004,0.004,0.016-0.023,0.013-0.018c-0.247,0.527-0.434,0.861-0.419,1.453c0.001-0.281,0.002-0.564-0.003-0.846
	c0-0.027-0.006-0.105,0.001-0.08c0.084,0.26,0.125,0.537,0.285,0.762c0.094,0.143,0.182,0.281,0.425,0.459
	c0.281,0.168,0.572,0.303,0.898,0.277c-0.073,0-0.533,0.018-0.353-0.014c0.322-0.111-0.323,0.131,0.009-0.025
	c0.246-0.201,0.429-0.455,0.558-0.762c-0.012,0.027-0.044,0.109-0.037,0.08c0.103-0.359,0.198-0.58,0.147-0.943
	c-0.001,0.064-0.042-0.125-0.065-0.186c-0.107-0.279-0.116-0.26-0.297-0.564c-0.188-0.232-0.407-0.457-0.682-0.553
	c-0.23-0.072-0.532-0.113-0.801-0.029c-0.117,0.041-0.221,0.096-0.333,0.152c-0.024,0.014,0.048-0.025,0.073-0.039
	c0.383-0.201,0.449-0.24,0.288-0.148c0.012-0.006,0.027-0.029,0.039-0.018c0.011,0.008-0.023,0.014-0.035,0.023
	c-0.042,0.029-0.083,0.062-0.125,0.094c-0.015,0.01,0.059-0.049,0.045-0.035c-0.047,0.049-0.096,0.094-0.147,0.139
	c-0.033,0.027,0.062-0.061,0.093-0.092c0.218-0.211,0.431-0.414,0.65-0.623c-0.48,0.488-0.881,1.203-0.902,1.947
	c-0.008,0.309,0.038,0.617,0.053,0.926c0.001,0.016-0.005-0.025-0.008-0.039c-0.046-0.232-0.12-0.506-0.151-0.699
	c0.126,0.24,0.365,0.398,0.578,0.531c0.326,0.131,0.707,0.17,1.025-0.016c0.322-0.219,0.559-0.463,0.673-0.865
	c0.117-0.506,0.138-1.086-0.104-1.551c-0.104-0.164-0.188-0.258-0.336-0.357c-0.007-0.004,0.098,0.088-0.002,0.029
	c0.196,0.115,0.139,0.08-0.075,0.031c-0.018-0.004,0.071,0.018,0.052,0.018c-0.057,0.004-0.114-0.008-0.17-0.01
	c-0.036,0.004-0.073,0.006-0.108,0.01c0.193-0.01,0.389-0.02,0.581-0.051C195.069,315.168,196.207,321.479,192.183,322.373
	L192.183,322.373z"/>
<path id="path4726" inkscape:connector-curvature="0" d="M243.769,319.213c-0.476,0.105-0.96,0.143-1.445,0.17
	c-0.938,0.037-1.766-0.275-2.592-0.734c-0.79-0.477-1.471-1.141-1.958-1.982c-0.097-0.168-0.174-0.35-0.26-0.523
	c-0.455-1.057-0.557-2.129-0.269-3.266c0.046-0.182,0.118-0.354,0.176-0.529c0.473-1.107,1.15-1.92,2.14-2.486
	c0.173-0.1,0.359-0.164,0.538-0.246c1.072-0.396,2.233-0.383,3.277,0.119c0.212,0.104,0.412,0.236,0.618,0.352
	c1.093,0.818,1.603,1.697,2.037,3.039c0.105,0.438,0.215,0.873,0.305,1.314c0.281,1.465-0.191,2.65-1.196,3.596
	c-0.034,0.031-0.139,0.125-0.104,0.092c0.39-0.391-0.283,0.285-0.332,0.332c-0.351,0.361-0.763,0.627-1.19,0.857
	c-0.095,0.045-0.19,0.086-0.284,0.133c-0.042,0.02,0.154-0.098,0.126-0.057c-0.031,0.047-0.092,0.055-0.139,0.076
	c-0.37,0.178-0.727,0.299-1.12,0.393c-0.831,0.195-1.642,0.018-2.425-0.289c-0.602-0.271-1.16-0.676-1.59-1.221
	c-0.102-0.129-0.194-0.268-0.292-0.404c-0.497-0.787-0.691-1.689-0.756-2.631c-0.029-0.873,0.144-1.688,0.496-2.469
	c0.422-0.891,1.032-1.467,1.803-1.971c0.535-0.311,1.104-0.523,1.693-0.664c0.475-0.1,0.959-0.105,1.442-0.109
	c0.687,0.018,1.363,0.188,1.972,0.547c0.131,0.076,0.253,0.172,0.38,0.256c0.545,0.387,0.946,0.936,1.299,1.525
	c0.404,0.73,0.529,1.561,0.568,2.402c0.012,0.385,0.011,0.771,0.01,1.158c-0.029,0.527-0.086,1.057-0.291,1.545
	c-0.11,0.264-0.255,0.506-0.391,0.754c-0.084,0.152-0.424,0.543-0.445,0.568c-0.644,0.705-1.375,1.018-2.246,1.193
	c-0.537,0.086-1.075,0.074-1.615,0.035c-0.212-0.016-0.454-0.098-0.652-0.117c-0.57-0.098-1.019-0.285-1.538-0.574
	c-0.399-0.203-0.756-0.494-1.096-0.799c-0.431-0.381-0.766-0.842-1.081-1.338c-0.327-0.604-0.517-1.26-0.633-1.945
	c-0.012-0.102-0.025-0.201-0.036-0.301c-0.007-0.07,0.019,0.139,0.027,0.209c0,0.01-0.005-0.018-0.008-0.025
	c-0.013-0.059-0.027-0.119-0.039-0.18c-0.05-0.256-0.047-0.256-0.085-0.521c-0.051-0.4-0.061-0.807-0.065-1.211
	c-0.022-0.535,0.052-1.062,0.189-1.574c0.184-0.637,0.522-1.176,0.923-1.664c0.442-0.518,0.978-0.846,1.565-1.113
	c-0.018,0.006-0.037,0.016-0.055,0.02c-0.005,0.002,0.01-0.006,0.015-0.008c0.079-0.037,0.159-0.076,0.239-0.107
	c0.27-0.107,0.532-0.176,0.812-0.236c0.312-0.055,0.628-0.068,0.944-0.07c0.173-0.002,0.345,0,0.518,0c0.138,0,0.277,0,0.415,0
	c0.423-0.018,0.84,0.047,1.25,0.156c0.134,0.037,0.487,0.152,0.821,0.314c0.338,0.176,0.618,0.371,0.976,0.652
	c0.493,0.387,0.88,0.969,1.119,1.369c0.146,0.242,0.281,0.561,0.436,0.92c0.229,0.537,0.341,1.115,0.392,1.703
	c0.042,0.479,0.009,0.951-0.03,1.426c-0.059,0.436-0.189,0.904-0.32,1.275c0.016-0.047,0.062-0.191,0.048-0.143
	c-0.088,0.295-0.186,0.576-0.293,0.865c-0.226,0.664-0.626,1.217-1.102,1.684c-0.435,0.434-0.965,0.705-1.505,0.932
	c-0.546,0.211-1.121,0.268-1.695,0.287c-0.75,0.049-1.466-0.189-2.154-0.488c-0.126-0.068-0.256-0.131-0.38-0.205
	c-0.245-0.143-0.47-0.316-0.708-0.475c-0.016-0.01,0.028,0.025,0.042,0.039c-3.62-2.146-0.884-7.824,2.736-5.68l0,0
	c0.198,0.125,0.414,0.252,0.605,0.396c0.021,0.014-0.111-0.049-0.069-0.021c-0.104-0.016,0.066,0.029,0.048,0.027
	c-0.071-0.004-0.142-0.018-0.214-0.027c-0.062,0-0.125,0.002-0.187,0.002c-0.037-0.002,0.074-0.002,0.11-0.002
	c0.294-0.008,0.075,0.002-0.06,0.072c-0.043,0.021-0.168,0.09-0.126,0.068c0.201-0.105,0.125-0.09-0.119,0.098
	c-0.053,0.041-0.101,0.09-0.152,0.135c-0.019,0.016,0.037-0.035,0.056-0.051c-0.193,0.207-0.305,0.408-0.458,0.666
	c-0.03,0.051-0.038,0.115-0.066,0.17c-0.02,0.039,0.032-0.084,0.047-0.127c0.021-0.055,0.01-0.15,0.062-0.16
	c0.05-0.012-0.031,0.107-0.051,0.158c-0.018,0.045,0.028-0.092,0.042-0.137c0.019-0.061,0.034-0.121,0.058-0.178
	c0.014-0.035-0.02,0.074-0.03,0.109c0.033-0.109,0.066-0.221,0.099-0.332c0.146-0.41,0.047-0.137,0.03-0.074
	c-0.047,0.186-0.093,0.428-0.045,0.18c0.008-0.039,0.011-0.08,0.023-0.119c0.008-0.023-0.007,0.055-0.01,0.08
	c-0.042,0.875-0.012,0.174-0.016,0.104c0.029,0.168,0.064,0.334,0.139,0.484c-0.013-0.031-0.148-0.35-0.144-0.35
	c0.067-0.008,0.061,0.135,0.093,0.201c0.018,0.035,0.076,0.135,0.057,0.1c-0.096-0.176-0.157-0.271-0.096-0.174
	c0.194,0.297-0.107-0.164-0.088-0.143c0.094,0.102,0.159,0.232,0.247,0.342c0.05,0.062,0.124,0.1,0.164,0.17
	c0.021,0.037-0.606-0.625,0.1,0.07c-0.07-0.057-0.294-0.201-0.215-0.162c0.092,0.045,0.18,0.102,0.262,0.164
	c0.002,0.002-0.53-0.307,0.006-0.008c-0.162-0.078-0.43-0.213,0.36,0.107c0.205,0.082-0.278-0.078-0.381-0.107
	c0.351,0.08,0.049,0.021,0.605,0.076c0.028,0.002-0.056,0-0.083,0c-0.049,0-0.116,0-0.166,0c-0.023,0-0.045,0-0.068,0
	c-0.142,0-0.285,0-0.428-0.002c-0.155,0-0.31,0-0.464-0.002c-0.052,0-0.191,0.008-0.015-0.016c0.108-0.029,0.192-0.057,0.298-0.102
	c0.024-0.012,0.098-0.051,0.073-0.039c-0.293,0.143,0.016,0-0.373,0.174c0.49-0.242,0.283-0.143,0.726-0.574
	c-0.024,0.025,0.04-0.061,0.058-0.092c0.127-0.223,0.227-0.432,0.292-0.691c0.055-0.24,0.048-0.43,0.073-0.701
	c0.026-0.291-0.026,0.566,0,0.285c0.001,0.115,0.006,0.238,0.003,0.35c-0.048-0.164,0.237,1.021,0.122,0.682
	c-0.014-0.057-0.02-0.08-0.039-0.141c-0.026-0.08-0.06-0.15-0.045-0.113c0.065,0.176,0.13,0.279-0.104-0.174
	c-0.054-0.08-0.106-0.158-0.163-0.236c-0.02-0.027-0.089-0.102-0.067-0.076c0.517,0.623-0.195-0.213,0.12,0.145
	c-0.278-0.164,0.104,0.072,0.121,0.072c-0.474-0.234,0.676,0.328-0.356-0.135c-0.002-0.002,0.886,0.283-0.152-0.006
	c0.195,0.025,0.412,0.057,0.595,0.109c-0.48-0.006,0.036-0.025,0.134-0.01c0.005,0.002-0.009,0.006-0.014,0.008
	c-0.361,0.1-0.703,0.279-0.962,0.582c-0.067,0.088-0.134,0.178-0.203,0.266c-0.004,0.006,0.016-0.021,0.013-0.016
	c-0.248,0.525-0.435,0.857-0.42,1.451c0.001-0.281,0.003-0.564-0.003-0.846c0-0.027-0.006-0.105,0.001-0.08
	c0.085,0.262,0.125,0.537,0.285,0.764c0.094,0.143,0.182,0.279,0.425,0.457c0.281,0.17,0.572,0.305,0.898,0.275
	c-0.073,0.002-0.533,0.021-0.353-0.012c0.322-0.111-0.323,0.131,0.009-0.025c0.246-0.199,0.429-0.455,0.559-0.76
	c-0.012,0.025-0.045,0.109-0.037,0.08c0.102-0.361,0.198-0.58,0.147-0.945c-0.001,0.066-0.042-0.123-0.065-0.184
	c-0.107-0.279-0.116-0.26-0.298-0.564c-0.188-0.234-0.407-0.457-0.682-0.555c-0.23-0.07-0.532-0.113-0.801-0.029
	c-0.117,0.043-0.221,0.096-0.333,0.154c-0.025,0.012,0.048-0.027,0.072-0.039c0.383-0.205,0.449-0.242,0.288-0.148
	c0.014-0.008,0.027-0.029,0.039-0.02c0.011,0.008-0.023,0.016-0.035,0.023c-0.042,0.029-0.083,0.062-0.125,0.094
	c-0.015,0.012,0.059-0.047,0.045-0.035c-0.048,0.049-0.097,0.096-0.147,0.139c-0.033,0.027,0.062-0.061,0.093-0.092
	c0.217-0.209,0.431-0.412,0.649-0.621c-0.479,0.486-0.882,1.201-0.902,1.945c-0.009,0.309,0.037,0.617,0.053,0.928
	c0,0.014-0.005-0.027-0.007-0.041c-0.046-0.232-0.12-0.506-0.152-0.699c0.126,0.238,0.366,0.398,0.578,0.531
	c0.326,0.133,0.707,0.17,1.025-0.016c0.323-0.217,0.559-0.463,0.672-0.865c0.118-0.506,0.138-1.084-0.104-1.551
	c-0.104-0.162-0.187-0.256-0.335-0.357c-0.007-0.004,0.097,0.088-0.002,0.031c0.196,0.113,0.139,0.078-0.075,0.031
	c-0.018-0.004,0.07,0.014,0.052,0.016c-0.057,0.004-0.114-0.006-0.171-0.01c-0.037,0.004-0.072,0.006-0.108,0.01
	c0.194-0.01,0.389-0.02,0.581-0.051C246.655,312.008,247.794,318.321,243.769,319.213L243.769,319.213z"/>
<path id="path4784" inkscape:connector-curvature="0" d="M167.558,294.377c0,1.537,0,3.074,0,4.611c0,1.207,0,2.412,0,3.619
	c0.052,1.053-0.171-0.354-0.684-0.615c-0.325-0.418-0.629,0.398-0.864,0.477c-0.051,0.016,0.006-0.113,0.01-0.17
	c0.039-0.605,0.01-0.299,0.157-1.09c0.281-1.504,0.566-2.994,1.054-4.441c0.602-1.42,1.373-2.783,2.445-3.867
	c1.059-0.885,1.832-1.072,3.085-0.424c1.028,1.07,1.313,2.656,1.657,4.084c0.311,1.436,0.406,2.906,0.464,4.371
	c0.013,0.469,0.03,0.936,0.02,1.402c0,0-0.003,0.117-0.006,0.115c-2.506-0.801-2.246-0.32-1.606-2.188
	c0.605-1.625,1.317-3.193,2.197-4.676c0.716-0.98,1.425-1.896,2.488-2.465c1.405-0.611,2.445,0.176,3.163,1.395
	c0.793,1.27,0.916,2.762,1.024,4.23c0.174,1.082,0.471,2.133,0.666,3.209c0.066,0.406,0.037,0.217,0.088,0.57
	c0.236,1.604-1.941,1.951-2.176,0.346l0,0c-0.045-0.305-0.02-0.141-0.076-0.492c-0.207-1.158-0.548-2.287-0.697-3.459
	c-0.079-1.109-0.113-2.252-0.712-3.215c-0.068-0.119-0.157-0.23-0.205-0.359c-0.015-0.043,0.287-0.275-0.143-0.143
	c-0.715,0.225-1.019,1.115-1.547,1.594c-0.804,1.348-1.445,2.773-1.999,4.252c-0.617,1.715,0.016,1.656-2.658,1.234
	c0.006-0.42-0.005-0.838-0.018-1.258c-0.05-1.311-0.13-2.627-0.4-3.91c-0.214-0.904-0.546-1.803-0.709-2.707
	c0.499-0.17-0.295-0.049-0.405,0.18c-0.87,0.742-1.344,1.943-1.864,2.949c-0.468,1.344-0.697,2.74-0.971,4.137
	c-0.23,1.047-0.095,2.672-1.627,2.607c-0.827-0.094-1.441-0.789-1.349-1.674c0-1.207,0-2.414,0-3.619c0-1.537,0-3.074,0-4.611
	C165.357,292.754,167.558,292.754,167.558,294.377L167.558,294.377z"/>
<path id="path4786" inkscape:connector-curvature="0" d="M188.107,298.969c0,1.932,0,3.861,0,5.793c0,0.279,0,0.561,0,0.842
	c0,1.623-2.202,1.623-2.202,0l0,0c0-0.281,0-0.562,0-0.842c0-1.932,0-3.861,0-5.793
	C185.905,297.346,188.107,297.346,188.107,298.969z"/>
<path id="path4788" inkscape:connector-curvature="0" d="M252.101,309.031c0,1.537,0,3.072,0,4.609c0,1.207,0,2.414,0,3.621
	c0.052,1.053-0.171-0.354-0.685-0.615c-0.325-0.418-0.629,0.398-0.863,0.475c-0.052,0.016,0.006-0.113,0.01-0.17
	c0.038-0.604,0.01-0.297,0.156-1.088c0.281-1.504,0.566-2.994,1.055-4.443c0.602-1.418,1.373-2.783,2.445-3.867
	c1.059-0.883,1.832-1.07,3.085-0.424c1.027,1.07,1.313,2.656,1.657,4.084c0.311,1.436,0.406,2.906,0.465,4.371
	c0.012,0.469,0.029,0.936,0.02,1.402c0,0-0.004,0.117-0.006,0.117c-2.507-0.801-2.246-0.32-1.607-2.189
	c0.605-1.625,1.317-3.193,2.197-4.674c0.717-0.982,1.426-1.896,2.488-2.467c1.405-0.611,2.445,0.176,3.162,1.395
	c0.793,1.27,0.916,2.762,1.024,4.23c0.174,1.082,0.472,2.133,0.665,3.209c0.066,0.406,0.037,0.217,0.089,0.57
	c0.235,1.604-1.94,1.951-2.176,0.348l0,0c-0.045-0.305-0.02-0.143-0.077-0.494c-0.206-1.158-0.547-2.289-0.696-3.459
	c-0.079-1.107-0.113-2.254-0.712-3.215c-0.068-0.119-0.157-0.229-0.205-0.361c-0.015-0.041,0.287-0.273-0.143-0.141
	c-0.715,0.225-1.02,1.115-1.549,1.594c-0.803,1.348-1.445,2.773-1.998,4.252c-0.617,1.715,0.016,1.656-2.658,1.236
	c0.006-0.42-0.006-0.84-0.019-1.26c-0.05-1.311-0.13-2.627-0.399-3.91c-0.215-0.904-0.547-1.805-0.71-2.707
	c0.499-0.17-0.296-0.049-0.405,0.18c-0.869,0.742-1.344,1.943-1.863,2.949c-0.469,1.344-0.697,2.74-0.973,4.139
	c-0.229,1.045-0.094,2.67-1.627,2.605c-0.826-0.094-1.439-0.789-1.349-1.674c0-1.207,0-2.412,0-3.619c0-1.537,0-3.074,0-4.611
	C249.898,307.406,252.101,307.406,252.101,309.031L252.101,309.031z"/>
<path id="path4790" inkscape:connector-curvature="0" d="M272.648,313.623c0,1.932,0,3.859,0,5.791c0,0.281,0,0.562,0,0.842
	c0,1.625-2.201,1.625-2.201,0l0,0c0-0.279,0-0.561,0-0.842c0-1.932,0-3.859,0-5.791C270.447,312,272.648,312,272.648,313.623z"/>
<path id="path4792" inkscape:connector-curvature="0" d="M227.153,235.153c0,1.537,0,3.074,0,4.611c0,1.207,0,2.412,0,3.619
	c0.051,1.053-0.171-0.352-0.685-0.615c-0.325-0.418-0.629,0.398-0.863,0.477c-0.052,0.016,0.006-0.115,0.009-0.17
	c0.039-0.605,0.01-0.299,0.157-1.09c0.281-1.504,0.566-2.994,1.054-4.441c0.603-1.42,1.373-2.783,2.445-3.867
	c1.059-0.885,1.833-1.072,3.085-0.424c1.028,1.07,1.313,2.654,1.657,4.082c0.311,1.436,0.406,2.908,0.464,4.373
	c0.013,0.467,0.029,0.936,0.02,1.402c0,0-0.004,0.115-0.006,0.115c-2.506-0.801-2.246-0.32-1.606-2.188
	c0.606-1.627,1.317-3.193,2.197-4.676c0.716-0.982,1.424-1.896,2.488-2.465c1.406-0.611,2.445,0.176,3.163,1.395
	c0.793,1.27,0.916,2.76,1.024,4.23c0.173,1.08,0.471,2.133,0.666,3.209c0.066,0.404,0.037,0.215,0.088,0.568
	c0.236,1.605-1.941,1.951-2.176,0.348l0,0c-0.045-0.305-0.02-0.141-0.077-0.494c-0.207-1.158-0.548-2.287-0.697-3.459
	c-0.078-1.107-0.113-2.252-0.711-3.213c-0.068-0.121-0.157-0.23-0.205-0.361c-0.015-0.041,0.286-0.275-0.143-0.143
	c-0.715,0.225-1.019,1.115-1.547,1.596c-0.804,1.346-1.445,2.773-1.999,4.25c-0.617,1.717,0.016,1.656-2.658,1.236
	c0.006-0.42-0.005-0.838-0.018-1.26c-0.05-1.309-0.13-2.625-0.4-3.91c-0.214-0.904-0.546-1.803-0.709-2.707
	c0.499-0.17-0.295-0.047-0.405,0.182c-0.871,0.74-1.344,1.943-1.864,2.947c-0.469,1.346-0.698,2.74-0.972,4.139
	c-0.23,1.045-0.094,2.67-1.627,2.607c-0.827-0.094-1.44-0.789-1.349-1.676c0-1.205,0-2.412,0-3.619c0-1.537,0-3.072,0-4.609
	C224.95,233.528,227.152,233.528,227.153,235.153L227.153,235.153z"/>
<path id="path4800" inkscape:connector-curvature="0" d="M243.749,240.377c1.099-0.287,2.185-0.607,3.312-0.371
	c1.013,0.285,1.34,1.104,1.392,2.129c-0.095,1.387-0.619,2.574-1.321,3.729c-0.704,1.072-1.752,1.764-2.666,2.609
	c-0.234,0.229-0.472,0.455-0.682,0.707c0.385-0.525-0.311,0.211-0.241-1.688c0.004-0.127,0.232,0.086,0.349,0.121
	c0.212,0.066,0.609,0.16,0.819,0.213c0.719,0.154,1.449,0.215,2.18,0.256c0.33,0.008,0.166,0.006,0.489,0.012
	c1.558,0.025,1.521,2.32-0.036,2.295l0,0c-0.367-0.006-0.178-0.002-0.57-0.014c-0.863-0.049-1.725-0.125-2.571-0.314
	c-0.827-0.207-3.158-0.746-2.104-2.359c0.279-0.342,0.595-0.646,0.909-0.951c0.763-0.699,1.628-1.275,2.264-2.117
	c0.465-0.764,0.839-1.488,0.98-2.398c-0.002-0.096-0.016-0.193-0.008-0.289c0.005-0.049,0.445,0.494,0.298,0.293
	c-0.639-0.32-1.594,0.342-2.259,0.367C242.772,242.998,242.238,240.772,243.749,240.377L243.749,240.377z"/>
<path id="path4808" inkscape:connector-curvature="0" d="M180.009,256.879c1.732-1.18,2.639-3.17,3.419-5.043
	c1.146-3.654,1.812-7.416,2.239-11.213c0.218-2.205,0.33-4.418,0.354-6.633c-0.13-0.377-0.405-0.6-0.685-0.863
	c-0.347-0.143-0.496-0.543-0.166-0.096c0.062,0.086-0.182,0.111-0.261,0.182c-0.792,0.451-0.784,1.252-0.883,2.072
	c-0.184,2.77-0.224,5.559-0.028,8.328c0.494,3.977,1.978,7.715,3.813,11.244c0.485,0.859,3.019,4.961,4.337,4.447
	c2.226,0.182,1.967,3.33-0.26,3.146l0,0c-0.434-0.068-0.884-0.068-1.301-0.207c-2.629-0.877-4.216-3.762-5.582-5.934
	c-2.022-3.92-3.652-8.066-4.159-12.482c-0.198-2.979-0.177-5.979,0.048-8.957c0.259-1.859,0.79-3.498,2.542-4.451
	c1.417-0.662,2.896-0.797,4.077,0.418c0.928,0.889,1.559,1.861,1.666,3.188c-0.026,2.32-0.144,4.641-0.374,6.951
	c-0.464,4.098-1.186,8.162-2.47,12.092c-1.104,2.57-2.424,5.158-4.916,6.635C179.423,260.703,178.011,257.879,180.009,256.879
	L180.009,256.879z"/>
<path id="path4810" inkscape:connector-curvature="0" d="M185.065,262.229c0.493,2.826,1.293,5.578,2.439,8.207
	c1.538,3.25,3.676,5.18,6.985,6.475c3.231,0.971,6.617,1.086,9.965,1.156c0.745,0.016,0.722,1.068-0.022,1.053l0,0
	c-3.472-0.074-6.983-0.201-10.329-1.23c-3.569-1.424-5.906-3.514-7.564-7.033c-1.172-2.701-2.001-5.521-2.507-8.422
	C183.886,261.705,184.918,261.498,185.065,262.229L185.065,262.229z"/>
<path id="path4826" inkscape:connector-curvature="0" d="M278.752,57.617c4.955,0.42,9.946,0.349,14.918,0.403
	c3.648,0.036,7.293,0.207,10.933,0.433c1.638,0.101,1.487,2.28-0.151,2.178l0,0c-3.6-0.223-7.201-0.393-10.809-0.426
	c-5.094-0.056-10.208,0.023-15.281-0.435C276.742,59.51,277.135,57.358,278.752,57.617z"/>
<path id="path4828" inkscape:connector-curvature="0" inkscape:transform-center-x="12.348024" inkscape:transform-center-y="-31.587355" d="
	M293.031,66.711c3.023,4.995,5.232,10.38,7.691,15.631c5.539,11.551,10.883,23.184,16.503,34.7c0.685,1.403-1.425,2.314-2.108,0.911
	l0,0c-5.625-11.526-10.975-23.17-16.52-34.731c-2.402-5.133-4.569-10.391-7.49-15.291C290.188,66.652,292.115,65.432,293.031,66.711
	L293.031,66.711z"/>
<path id="path4830" inkscape:connector-curvature="0" d="M315.599,114.876c5.61,2.281,10.821,5.331,16.144,8.134
	c11.815,6.091,23.526,12.358,35.383,18.376c1.444,0.734,0.342,2.655-1.102,1.921l0,0c-11.867-6.024-23.59-12.296-35.414-18.394
	c-5.204-2.74-10.3-5.713-15.766-7.975C313.29,116.437,314.047,114.373,315.599,114.876L315.599,114.876z"/>
<path id="path4832" inkscape:connector-curvature="0" d="M319.761,119.072c-0.208,0.273-0.453,0.519-0.702,0.757
	c-0.493,0.455-1.098,0.677-1.773,0.828c-0.667,0.124-1.366,0.099-2.046-0.107c-0.137-0.041-0.268-0.098-0.399-0.147
	c-0.771-0.331-1.355-0.833-1.76-1.548c-0.064-0.114-0.11-0.236-0.165-0.354c-0.289-0.786-0.321-1.518-0.063-2.267
	c0.046-0.13,0.114-0.25,0.173-0.375c0.388-0.702,1.026-1.234,1.843-1.461c0.167-0.046,0.342-0.072,0.511-0.107
	c0.999-0.089,1.71,0.124,2.608,0.609c0.273,0.175,0.548,0.347,0.814,0.532c0.878,0.621,1.205,1.447,1.125,2.397
	c-0.005,0.032-0.016,0.127-0.014,0.095c0.02-0.381-0.013,0.278-0.016,0.326c-0.015,0.346-0.107,0.674-0.226,0.99
	c-0.03,0.067-0.061,0.133-0.089,0.201c-0.014,0.029,0.035-0.121,0.041-0.088c0.007,0.038-0.022,0.07-0.038,0.104
	c-0.114,0.263-0.249,0.488-0.416,0.72c-0.356,0.486-0.886,0.771-1.464,0.978c-0.462,0.141-0.965,0.193-1.469,0.112
	c-0.119-0.019-0.238-0.047-0.357-0.072c-0.66-0.172-1.213-0.545-1.713-0.997c-0.445-0.433-0.754-0.93-0.947-1.494
	c-0.211-0.652-0.162-1.23,0.01-1.846c0.137-0.408,0.342-0.78,0.593-1.126c0.208-0.271,0.471-0.5,0.731-0.724
	c0.383-0.31,0.834-0.538,1.344-0.637c0.108-0.021,0.223-0.03,0.334-0.045c0.486-0.055,0.977,0.04,1.457,0.178
	c0.583,0.186,1.061,0.553,1.497,0.965c0.196,0.192,0.387,0.391,0.577,0.589c0.244,0.284,0.475,0.582,0.604,0.927
	c0.07,0.185,0.11,0.377,0.158,0.567c0.03,0.117,0.039,0.474,0.04,0.498c-0.002,0.659-0.248,1.158-0.635,1.653
	c-0.248,0.293-0.549,0.538-0.861,0.767c-0.123,0.092-0.296,0.161-0.414,0.244c-0.358,0.214-0.695,0.326-1.119,0.42
	c-0.318,0.08-0.654,0.098-0.991,0.099c-0.423,0.006-0.833-0.075-1.249-0.182c-0.475-0.157-0.902-0.405-1.305-0.703
	c-0.056-0.046-0.113-0.091-0.169-0.138c-0.039-0.033,0.079,0.062,0.117,0.095c0.007,0.004-0.011-0.006-0.016-0.009
	c-0.036-0.024-0.073-0.049-0.11-0.075c-0.154-0.107-0.15-0.109-0.303-0.227c-0.226-0.182-0.431-0.385-0.633-0.59
	c-0.276-0.263-0.498-0.569-0.676-0.894c-0.213-0.412-0.295-0.844-0.318-1.281c-0.016-0.471,0.114-0.887,0.302-1.296
	c-0.006,0.012-0.012,0.024-0.019,0.036c-0.003,0.003,0.002-0.008,0.003-0.011c0.026-0.056,0.05-0.113,0.079-0.167
	c0.095-0.179,0.203-0.336,0.326-0.497c0.142-0.173,0.309-0.328,0.479-0.475c0.094-0.081,0.188-0.16,0.283-0.24
	c0.075-0.064,0.15-0.128,0.226-0.193c0.222-0.206,0.481-0.365,0.757-0.5c0.092-0.043,0.341-0.148,0.604-0.22
	c0.271-0.067,0.521-0.097,0.854-0.119c0.459-0.032,0.958,0.087,1.285,0.181c0.199,0.056,0.43,0.158,0.69,0.269
	c0.39,0.17,0.737,0.414,1.054,0.691c0.26,0.226,0.475,0.482,0.688,0.744c0.184,0.25,0.344,0.551,0.455,0.801
	c-0.015-0.032-0.061-0.127-0.044-0.095c0.097,0.192,0.183,0.382,0.267,0.579c0.205,0.445,0.262,0.915,0.232,1.373
	c-0.021,0.425-0.177,0.809-0.359,1.177c-0.193,0.362-0.479,0.658-0.78,0.934c-0.386,0.373-0.893,0.583-1.415,0.75
	c-0.102,0.023-0.203,0.052-0.307,0.072c-0.205,0.04-0.413,0.056-0.619,0.086c-0.014,0.002,0.027-0.001,0.041-0.001
	c-3.031,0.582-4.343-3.595-1.313-4.177l0,0c0.169-0.029,0.35-0.063,0.524-0.079c0.019-0.001-0.084,0.028-0.049,0.022
	c-0.064,0.04,0.051-0.017,0.041-0.01c-0.041,0.032-0.086,0.057-0.129,0.085c-0.035,0.029-0.068,0.059-0.104,0.087
	c-0.02,0.016,0.041-0.035,0.061-0.053c0.157-0.14,0.043-0.034,0.004,0.065c-0.012,0.031-0.047,0.125-0.035,0.094
	c0.057-0.146,0.023-0.105-0.016,0.105c-0.01,0.046-0.012,0.094-0.016,0.141c-0.004,0.017,0.002-0.035,0.006-0.053
	c-0.004,0.197,0.033,0.352,0.078,0.554c0.01,0.041,0.037,0.078,0.047,0.117c0.01,0.03-0.024-0.058-0.037-0.087
	c-0.014-0.037-0.068-0.082-0.045-0.11c0.021-0.028,0.037,0.069,0.05,0.105c0.012,0.031-0.03-0.06-0.045-0.089
	c-0.019-0.039-0.042-0.078-0.056-0.118c-0.011-0.023,0.024,0.047,0.039,0.072c-0.037-0.073-0.074-0.145-0.111-0.216
	c-0.123-0.278-0.043-0.092-0.02-0.052c0.065,0.116,0.16,0.262,0.064,0.113c-0.016-0.023-0.035-0.046-0.047-0.072
	c-0.008-0.016,0.023,0.031,0.035,0.046c0.408,0.467,0.078,0.094,0.041,0.061c0.099,0.072,0.199,0.14,0.314,0.183
	c-0.021-0.01-0.253-0.111-0.252-0.113c0.035-0.036,0.102,0.042,0.151,0.061c0.026,0.009,0.107,0.033,0.081,0.024
	c-0.141-0.046-0.222-0.067-0.141-0.046c0.253,0.062-0.139-0.033-0.119-0.032c0.102,0.008,0.202,0.046,0.303,0.061
	c0.059,0.009,0.117-0.006,0.174,0.011c0.029,0.01-0.638-0.039,0.088-0.011c-0.064,0.003-0.258,0.033-0.195,0.017
	c0.072-0.02,0.146-0.031,0.225-0.037c0.001,0-0.441,0.088-0.002-0.006c-0.127,0.034-0.34,0.089,0.247-0.112
	c0.153-0.053-0.188,0.089-0.26,0.123c0.232-0.122,0.037-0.013,0.366-0.243c0.017-0.012-0.03,0.025-0.045,0.038
	c-0.027,0.023-0.063,0.054-0.09,0.078c-0.014,0.01-0.025,0.021-0.039,0.032c-0.076,0.066-0.154,0.132-0.232,0.199
	c-0.084,0.071-0.169,0.142-0.254,0.214c-0.028,0.024-0.101,0.092-0.017-0.002c0.044-0.065,0.077-0.118,0.112-0.19
	c0.008-0.018,0.027-0.072,0.021-0.053c-0.09,0.208,0.009-0.008-0.116,0.262c0.146-0.352,0.084-0.205,0.109-0.631
	c0,0.024-0.009-0.049-0.014-0.074c-0.041-0.174-0.09-0.327-0.183-0.489c-0.089-0.148-0.185-0.242-0.307-0.394
	c-0.128-0.161,0.268,0.302,0.142,0.146c0.059,0.058,0.121,0.119,0.174,0.177c-0.105-0.062,0.636,0.414,0.403,0.293
	c-0.036-0.021-0.05-0.033-0.091-0.053c-0.053-0.028-0.105-0.049-0.078-0.036c0.121,0.058,0.205,0.081-0.145-0.043
	c-0.068-0.015-0.137-0.032-0.204-0.044c-0.023-0.005-0.099-0.012-0.074-0.009c0.589,0.079-0.212-0.019,0.136,0.019
	c-0.232,0.045,0.094-0.011,0.103-0.02c-0.374,0.101,0.531-0.145-0.261,0.098c-0.002,0,0.621-0.267-0.086,0.068
	c0.121-0.078,0.254-0.163,0.377-0.221c-0.264,0.22,0.01-0.03,0.07-0.066c0.002-0.002-0.004,0.007-0.005,0.01
	c-0.146,0.217-0.243,0.47-0.235,0.744c0.007,0.077,0.015,0.153,0.02,0.23c0.002,0.005-0.001-0.02,0-0.016
	c0.126,0.385,0.188,0.643,0.488,0.938c-0.139-0.144-0.277-0.29-0.419-0.432c-0.015-0.014-0.056-0.05-0.04-0.041
	c0.174,0.094,0.332,0.216,0.531,0.258c0.121,0.029,0.236,0.06,0.457,0.038c0.237-0.044,0.463-0.11,0.627-0.274
	c-0.04,0.034-0.281,0.257-0.197,0.158c0.119-0.207-0.113,0.217-0.01-0.018c0.035-0.217,0.01-0.432-0.07-0.648
	c0.006,0.018,0.029,0.077,0.018,0.058c-0.122-0.232-0.178-0.389-0.387-0.551c0.032,0.034-0.084-0.044-0.127-0.064
	c-0.196-0.094-0.19-0.079-0.439-0.151c-0.218-0.033-0.447-0.045-0.645,0.033c-0.162,0.07-0.346,0.188-0.451,0.357
	c-0.044,0.075-0.073,0.151-0.105,0.233c-0.008,0.018,0.014-0.036,0.02-0.054c0.108-0.282,0.124-0.332,0.083-0.21
	c0.005-0.009,0.001-0.028,0.012-0.028s-0.005,0.018-0.007,0.028c-0.009,0.036-0.016,0.071-0.023,0.106
	c-0.001,0.013,0.01-0.052,0.01-0.039c-0.002,0.047-0.008,0.093-0.014,0.139c-0.003,0.03,0.004-0.06,0.006-0.09
	c0.016-0.207,0.031-0.411,0.047-0.619c-0.02,0.472,0.113,1.023,0.469,1.416c0.148,0.162,0.326,0.299,0.488,0.45
	c0.006,0.007-0.016-0.011-0.023-0.017c-0.141-0.098-0.315-0.203-0.428-0.288c0.186,0.064,0.396,0.035,0.577,0.003
	c0.241-0.083,0.468-0.24,0.55-0.483c0.068-0.261,0.076-0.498-0.062-0.756c-0.185-0.313-0.458-0.619-0.821-0.746
	c-0.138-0.035-0.229-0.043-0.359-0.026c-0.006,0.001,0.096,0,0.014,0.016c0.164-0.033,0.115-0.024-0.024,0.05
	c-0.013,0.007,0.046-0.025,0.036-0.016c-0.029,0.028-0.064,0.049-0.097,0.075c-0.017,0.018-0.036,0.038-0.055,0.055
	c0.103-0.095,0.202-0.19,0.293-0.296c1.749-2.326,5.486,0.378,3.733,2.704L319.761,119.072z"/>
<path id="path4834" inkscape:connector-curvature="0" inkscape:transform-center-x="29.235893" inkscape:transform-center-y="-67.794716" d="
	M287.834,63.377c0.211-0.271,0.457-0.515,0.711-0.75c0.496-0.451,1.105-0.668,1.782-0.811c0.665-0.117,1.365-0.086,2.044,0.126
	c0.135,0.042,0.266,0.1,0.398,0.151c0.766,0.336,1.344,0.844,1.741,1.564c0.063,0.114,0.108,0.236,0.162,0.355
	c0.28,0.789,0.304,1.52,0.037,2.267c-0.046,0.13-0.116,0.25-0.176,0.374c-0.395,0.698-1.04,1.223-1.859,1.442
	c-0.167,0.046-0.34,0.068-0.512,0.103c-0.999,0.079-1.708-0.142-2.601-0.636c-0.271-0.176-0.545-0.352-0.809-0.54
	c-0.87-0.628-1.188-1.458-1.098-2.407c0.004-0.032,0.015-0.128,0.014-0.095c-0.025,0.38,0.016-0.278,0.018-0.326
	c0.019-0.346,0.114-0.674,0.236-0.988c0.031-0.066,0.062-0.133,0.092-0.2c0.014-0.029-0.037,0.122-0.042,0.087
	c-0.006-0.038,0.023-0.069,0.038-0.103c0.118-0.261,0.254-0.487,0.424-0.717c0.363-0.482,0.896-0.763,1.475-0.963
	c0.463-0.137,0.967-0.183,1.469-0.098c0.12,0.019,0.24,0.049,0.358,0.075c0.658,0.179,1.206,0.557,1.701,1.014
	c0.441,0.438,0.745,0.938,0.931,1.502c0.204,0.655,0.148,1.232-0.029,1.846c-0.141,0.407-0.352,0.777-0.605,1.12
	c-0.213,0.27-0.475,0.496-0.739,0.719c-0.387,0.305-0.839,0.528-1.351,0.623c-0.109,0.019-0.223,0.027-0.334,0.042
	c-0.487,0.051-0.977-0.049-1.457-0.192c-0.578-0.191-1.054-0.564-1.484-0.98c-0.196-0.193-0.384-0.394-0.571-0.594
	c-0.241-0.287-0.47-0.587-0.595-0.933c-0.068-0.187-0.105-0.378-0.153-0.569c-0.028-0.117-0.032-0.475-0.032-0.499
	c0.01-0.658,0.26-1.155,0.65-1.647c0.254-0.291,0.555-0.532,0.87-0.758c0.124-0.09,0.298-0.159,0.417-0.239
	c0.359-0.21,0.697-0.32,1.123-0.409c0.32-0.077,0.657-0.091,0.992-0.089c0.424,0,0.832,0.083,1.246,0.195
	c0.474,0.162,0.898,0.414,1.299,0.715c0.055,0.046,0.11,0.091,0.168,0.139c0.037,0.033-0.08-0.063-0.119-0.097
	c-0.004-0.004,0.014,0.007,0.018,0.01c0.036,0.025,0.072,0.049,0.109,0.076c0.154,0.109,0.15,0.11,0.301,0.23
	c0.224,0.185,0.426,0.39,0.627,0.596c0.273,0.266,0.49,0.573,0.664,0.9c0.208,0.414,0.287,0.847,0.305,1.283
	c0.008,0.471-0.125,0.887-0.316,1.294c0.006-0.012,0.012-0.024,0.02-0.036c0.002-0.003-0.002,0.007-0.004,0.012
	c-0.025,0.055-0.05,0.111-0.079,0.166c-0.096,0.178-0.206,0.333-0.331,0.493c-0.145,0.173-0.312,0.326-0.484,0.471
	c-0.096,0.079-0.189,0.158-0.285,0.237c-0.076,0.063-0.152,0.127-0.228,0.19c-0.223,0.204-0.485,0.361-0.763,0.494
	c-0.094,0.042-0.343,0.144-0.606,0.213c-0.271,0.065-0.521,0.092-0.854,0.11c-0.459,0.027-0.955-0.097-1.282-0.193
	c-0.198-0.058-0.429-0.162-0.688-0.276c-0.388-0.172-0.731-0.419-1.046-0.701c-0.257-0.228-0.47-0.487-0.681-0.75
	c-0.18-0.251-0.336-0.554-0.445-0.805c0.016,0.031,0.06,0.126,0.043,0.096c-0.094-0.193-0.178-0.384-0.26-0.582
	c-0.201-0.447-0.25-0.917-0.217-1.376c0.026-0.423,0.186-0.806,0.372-1.172c0.196-0.36,0.485-0.653,0.791-0.927
	c0.388-0.369,0.897-0.576,1.421-0.737c0.104-0.022,0.205-0.048,0.31-0.068c0.206-0.038,0.413-0.052,0.62-0.08
	c0.014-0.001-0.028,0-0.041,0c3.037-0.552,4.303,3.637,1.268,4.191l0,0c-0.168,0.026-0.35,0.059-0.524,0.074
	c-0.019,0.001,0.085-0.027,0.048-0.021c0.064-0.04-0.051,0.016-0.041,0.009c0.042-0.031,0.087-0.056,0.132-0.084
	c0.034-0.029,0.066-0.058,0.103-0.085c0.02-0.017-0.041,0.035-0.061,0.051c-0.158,0.139-0.043,0.034-0.002-0.065
	c0.012-0.031,0.047-0.125,0.035-0.094c-0.059,0.146-0.023,0.105,0.018-0.104c0.011-0.046,0.012-0.094,0.018-0.14
	c0.003-0.018-0.003,0.035-0.006,0.052c0.006-0.196-0.031-0.351-0.074-0.555c-0.008-0.04-0.036-0.077-0.047-0.118
	c-0.008-0.029,0.024,0.059,0.036,0.087c0.015,0.038,0.069,0.083,0.046,0.111c-0.023,0.027-0.037-0.07-0.05-0.106
	c-0.013-0.031,0.03,0.061,0.045,0.09c0.017,0.04,0.04,0.079,0.054,0.118c0.01,0.025-0.023-0.047-0.037-0.071
	c0.036,0.073,0.072,0.145,0.109,0.217c0.118,0.279,0.041,0.092,0.018,0.051c-0.062-0.116-0.157-0.263-0.062-0.113
	c0.016,0.024,0.033,0.046,0.046,0.072c0.007,0.016-0.022-0.03-0.034-0.046c-0.402-0.471-0.077-0.094-0.041-0.061
	c-0.098-0.073-0.199-0.142-0.313-0.186c0.022,0.01,0.253,0.112,0.249,0.115c-0.032,0.035-0.099-0.043-0.148-0.062
	c-0.026-0.01-0.106-0.034-0.079-0.025c0.139,0.047,0.22,0.07,0.139,0.047c-0.251-0.065,0.138,0.035,0.118,0.033
	c-0.102-0.01-0.201-0.047-0.303-0.063c-0.058-0.01-0.117,0.005-0.173-0.014c-0.029-0.009,0.638,0.046-0.089,0.011
	c0.066-0.003,0.26-0.031,0.198-0.016c-0.073,0.019-0.149,0.03-0.226,0.034c-0.002,0,0.442-0.083,0.002,0.008
	c0.128-0.034,0.339-0.087-0.25,0.11c-0.153,0.051,0.19-0.088,0.262-0.121c-0.232,0.12-0.037,0.013-0.369,0.24
	c-0.016,0.011,0.029-0.026,0.047-0.038c0.025-0.023,0.063-0.053,0.091-0.078c0.013-0.01,0.024-0.02,0.038-0.031
	c0.078-0.066,0.156-0.131,0.234-0.196c0.084-0.071,0.171-0.142,0.256-0.212c0.027-0.024,0.102-0.091,0.018,0.002
	c-0.047,0.063-0.08,0.117-0.115,0.189c-0.008,0.018-0.029,0.072-0.021,0.053c0.092-0.208-0.008,0.008,0.121-0.261
	c-0.15,0.351-0.087,0.204-0.117,0.63c0-0.025,0.007,0.049,0.013,0.074c0.038,0.173,0.085,0.329,0.175,0.492
	c0.088,0.149,0.184,0.243,0.303,0.396c0.128,0.162-0.262-0.305-0.14-0.147c-0.056-0.059-0.12-0.12-0.173-0.179
	c0.106,0.062-0.629-0.42-0.4-0.297c0.036,0.022,0.051,0.033,0.091,0.054c0.054,0.029,0.106,0.05,0.079,0.037
	c-0.121-0.059-0.206-0.083,0.143,0.044c0.068,0.016,0.137,0.033,0.205,0.046c0.024,0.005,0.099,0.013,0.073,0.01
	c-0.587-0.084,0.212,0.021-0.136-0.02c0.233-0.042-0.093,0.01-0.102,0.019c0.375-0.098-0.531,0.14,0.261-0.094
	c0.003-0.001-0.624,0.26,0.087-0.068c-0.121,0.077-0.255,0.159-0.381,0.217c0.268-0.218-0.008,0.029-0.069,0.065
	c-0.003,0.002,0.003-0.007,0.005-0.009c0.148-0.217,0.25-0.468,0.242-0.743c-0.006-0.077-0.012-0.152-0.017-0.229
	c0-0.005,0.002,0.019,0,0.015c-0.119-0.386-0.18-0.644-0.478-0.943c0.137,0.146,0.273,0.293,0.414,0.436
	c0.014,0.014,0.057,0.05,0.039,0.042c-0.174-0.095-0.332-0.22-0.529-0.263c-0.121-0.031-0.235-0.062-0.455-0.042
	c-0.238,0.042-0.464,0.105-0.631,0.269c0.04-0.033,0.283-0.254,0.201-0.156c-0.123,0.205,0.113-0.216,0.008,0.017
	c-0.037,0.216-0.014,0.432,0.064,0.649c-0.008-0.02-0.029-0.078-0.02-0.059c0.12,0.234,0.174,0.391,0.381,0.557
	c-0.032-0.036,0.083,0.044,0.125,0.065c0.196,0.095,0.191,0.08,0.439,0.155c0.218,0.034,0.447,0.048,0.645-0.027
	c0.163-0.068,0.349-0.185,0.455-0.353c0.045-0.076,0.076-0.15,0.109-0.233c0.008-0.017-0.013,0.036-0.02,0.054
	c-0.113,0.28-0.131,0.332-0.088,0.209c-0.003,0.009,0,0.028-0.012,0.029c-0.01,0,0.006-0.02,0.008-0.029
	c0.009-0.035,0.016-0.071,0.023-0.105c0.002-0.014-0.009,0.051-0.009,0.038c0.003-0.047,0.007-0.092,0.013-0.139
	c0.005-0.03-0.002,0.06-0.006,0.09c-0.016,0.208-0.035,0.411-0.053,0.62c0.026-0.471-0.102-1.025-0.455-1.419
	c-0.146-0.165-0.321-0.303-0.48-0.455c-0.008-0.008,0.016,0.01,0.023,0.017c0.139,0.099,0.312,0.205,0.424,0.292
	c-0.188-0.065-0.396-0.038-0.578-0.009c-0.242,0.081-0.471,0.235-0.557,0.478c-0.069,0.261-0.078,0.497,0.055,0.757
	c0.182,0.316,0.453,0.624,0.812,0.754c0.139,0.036,0.229,0.046,0.359,0.03c0.008-0.001-0.096,0-0.014-0.016
	c-0.164,0.031-0.114,0.022,0.025-0.05c0.012-0.008-0.047,0.024-0.035,0.016c0.029-0.028,0.064-0.049,0.097-0.074
	c0.018-0.019,0.037-0.037,0.055-0.055c-0.103,0.094-0.204,0.188-0.294,0.293c-1.777,2.309-5.482-0.431-3.707-2.74h0.004V63.377z"/>
<path id="path4836" inkscape:connector-curvature="0" d="M369.952,144.052c-0.207,0.274-0.453,0.52-0.702,0.757
	c-0.493,0.455-1.099,0.679-1.774,0.828c-0.665,0.123-1.365,0.1-2.045-0.106c-0.137-0.042-0.268-0.098-0.4-0.147
	c-0.77-0.331-1.354-0.833-1.759-1.549c-0.064-0.113-0.109-0.235-0.165-0.353c-0.289-0.787-0.321-1.517-0.062-2.267
	c0.044-0.13,0.113-0.25,0.171-0.375c0.389-0.701,1.027-1.233,1.845-1.46c0.165-0.047,0.339-0.072,0.509-0.108
	c0.999-0.088,1.711,0.125,2.609,0.61c0.272,0.174,0.547,0.347,0.814,0.532c0.878,0.62,1.204,1.447,1.124,2.397
	c-0.004,0.032-0.016,0.127-0.013,0.095c0.02-0.381-0.013,0.278-0.016,0.325c-0.015,0.347-0.106,0.675-0.226,0.991
	c-0.029,0.067-0.061,0.134-0.088,0.201c-0.015,0.03,0.035-0.122,0.039-0.087c0.008,0.038-0.021,0.07-0.036,0.103
	c-0.115,0.263-0.25,0.49-0.417,0.721c-0.355,0.486-0.885,0.772-1.464,0.978c-0.461,0.142-0.965,0.193-1.468,0.113
	c-0.119-0.02-0.239-0.047-0.359-0.071c-0.659-0.173-1.21-0.547-1.712-0.998c-0.445-0.433-0.754-0.931-0.947-1.494
	c-0.209-0.652-0.163-1.231,0.009-1.847c0.138-0.408,0.343-0.781,0.594-1.126c0.21-0.271,0.471-0.5,0.731-0.725
	c0.382-0.309,0.835-0.537,1.343-0.636c0.109-0.021,0.223-0.029,0.334-0.045c0.486-0.055,0.978,0.041,1.459,0.178
	c0.581,0.187,1.059,0.554,1.496,0.966c0.197,0.192,0.386,0.39,0.576,0.588c0.245,0.285,0.477,0.583,0.606,0.927
	c0.069,0.186,0.109,0.378,0.159,0.567c0.029,0.118,0.037,0.474,0.038,0.498c-0.003,0.66-0.248,1.159-0.635,1.653
	c-0.249,0.294-0.548,0.537-0.862,0.768c-0.121,0.091-0.295,0.162-0.411,0.243c-0.359,0.214-0.697,0.327-1.121,0.42
	c-0.318,0.079-0.655,0.098-0.992,0.099c-0.422,0.006-0.83-0.076-1.247-0.183c-0.476-0.156-0.903-0.404-1.306-0.703
	c-0.056-0.046-0.112-0.091-0.168-0.139c-0.04-0.032,0.078,0.063,0.118,0.095c0.005,0.004-0.013-0.006-0.018-0.009
	c-0.037-0.024-0.072-0.047-0.109-0.074c-0.155-0.108-0.152-0.11-0.304-0.228c-0.226-0.182-0.431-0.385-0.633-0.59
	c-0.276-0.264-0.498-0.569-0.676-0.895c-0.213-0.411-0.295-0.843-0.317-1.28c-0.015-0.47,0.114-0.888,0.302-1.297
	c-0.006,0.013-0.013,0.024-0.02,0.037c-0.002,0.003,0.003-0.008,0.004-0.012c0.025-0.056,0.049-0.111,0.078-0.167
	c0.094-0.18,0.203-0.336,0.326-0.497c0.143-0.173,0.309-0.328,0.479-0.475c0.093-0.08,0.188-0.16,0.281-0.241
	c0.076-0.063,0.151-0.127,0.227-0.192c0.222-0.205,0.481-0.364,0.759-0.5c0.092-0.043,0.339-0.147,0.603-0.22
	c0.271-0.067,0.52-0.098,0.853-0.119c0.458-0.032,0.958,0.087,1.285,0.18c0.199,0.056,0.429,0.158,0.69,0.27
	c0.39,0.168,0.736,0.413,1.055,0.691c0.258,0.224,0.474,0.481,0.688,0.744c0.182,0.249,0.343,0.55,0.455,0.8
	c-0.016-0.032-0.061-0.126-0.046-0.095c0.097,0.192,0.185,0.382,0.267,0.579c0.205,0.445,0.262,0.915,0.234,1.374
	c-0.023,0.424-0.179,0.809-0.361,1.176c-0.193,0.362-0.478,0.657-0.779,0.934c-0.386,0.373-0.893,0.583-1.414,0.75
	c-0.104,0.024-0.205,0.051-0.309,0.072c-0.205,0.04-0.411,0.056-0.619,0.086c-0.014,0.002,0.027-0.001,0.042-0.001
	c-3.03,0.582-4.343-3.595-1.313-4.177l0,0c0.17-0.029,0.35-0.063,0.522-0.079c0.02-0.001-0.081,0.027-0.046,0.021
	c-0.065,0.041,0.05-0.016,0.04-0.008c-0.042,0.031-0.087,0.057-0.13,0.084c-0.034,0.03-0.066,0.059-0.101,0.086
	c-0.021,0.017,0.038-0.035,0.059-0.051c0.157-0.142,0.042-0.035,0.003,0.064c-0.012,0.031-0.046,0.125-0.033,0.094
	c0.056-0.146,0.021-0.104-0.018,0.105c-0.01,0.046-0.011,0.094-0.016,0.141c-0.002,0.017,0.003-0.035,0.006-0.052
	c-0.003,0.196,0.033,0.351,0.079,0.554c0.009,0.04,0.037,0.077,0.047,0.116c0.009,0.03-0.025-0.058-0.037-0.085
	c-0.016-0.039-0.069-0.082-0.046-0.111c0.021-0.028,0.036,0.069,0.05,0.105c0.014,0.03-0.029-0.06-0.045-0.089
	c-0.019-0.04-0.041-0.078-0.056-0.117c-0.011-0.025,0.024,0.046,0.038,0.07c-0.036-0.072-0.073-0.144-0.11-0.216
	c-0.122-0.278-0.043-0.092-0.019-0.05c0.065,0.114,0.159,0.261,0.063,0.111c-0.016-0.023-0.034-0.046-0.046-0.071
	c-0.009-0.017,0.021,0.03,0.033,0.045c0.409,0.468,0.079,0.094,0.042,0.061c0.1,0.073,0.199,0.142,0.314,0.183
	c-0.021-0.009-0.252-0.11-0.249-0.112c0.032-0.035,0.099,0.042,0.149,0.06c0.025,0.01,0.107,0.033,0.08,0.025
	c-0.141-0.046-0.222-0.067-0.141-0.045c0.253,0.062-0.139-0.034-0.118-0.033c0.103,0.008,0.202,0.045,0.303,0.061
	c0.057,0.009,0.116-0.007,0.173,0.012c0.031,0.009-0.638-0.038,0.089-0.011c-0.065,0.003-0.259,0.033-0.196,0.015
	c0.072-0.018,0.146-0.031,0.224-0.036c0.002,0-0.44,0.089,0-0.006c-0.128,0.035-0.341,0.09,0.248-0.113
	c0.151-0.051-0.19,0.089-0.262,0.124c0.232-0.123,0.037-0.013,0.367-0.244c0.016-0.011-0.03,0.026-0.046,0.04
	c-0.026,0.022-0.063,0.053-0.09,0.077c-0.014,0.011-0.024,0.021-0.039,0.032c-0.076,0.066-0.154,0.133-0.233,0.198
	c-0.084,0.072-0.168,0.144-0.252,0.215c-0.029,0.024-0.102,0.092-0.018-0.002c0.045-0.064,0.077-0.118,0.112-0.19
	c0.007-0.017,0.029-0.071,0.021-0.053c-0.09,0.209,0.009-0.007-0.116,0.263c0.146-0.352,0.084-0.205,0.109-0.631
	c0,0.024-0.007-0.049-0.013-0.075c-0.042-0.172-0.091-0.326-0.184-0.488c-0.088-0.149-0.185-0.243-0.307-0.394
	c-0.129-0.161,0.268,0.303,0.143,0.146c0.058,0.059,0.121,0.12,0.173,0.177c-0.106-0.061,0.636,0.414,0.403,0.293
	c-0.035-0.022-0.05-0.033-0.09-0.054c-0.055-0.029-0.106-0.049-0.079-0.037c0.121,0.059,0.206,0.082-0.144-0.042
	c-0.069-0.015-0.136-0.031-0.204-0.045c-0.023-0.005-0.099-0.011-0.074-0.008c0.589,0.078-0.212-0.02,0.136,0.018
	c-0.232,0.044,0.094-0.012,0.103-0.02c-0.374,0.101,0.531-0.145-0.262,0.097c-0.001,0.001,0.622-0.266-0.085,0.068
	c0.12-0.078,0.253-0.163,0.377-0.221c-0.264,0.221,0.009-0.03,0.069-0.066c0.003-0.003-0.001,0.007-0.004,0.009
	c-0.146,0.219-0.243,0.47-0.235,0.746c0.007,0.076,0.015,0.152,0.021,0.229c0,0.006-0.003-0.018-0.002-0.014
	c0.126,0.383,0.188,0.641,0.488,0.938c-0.139-0.145-0.277-0.291-0.42-0.432c-0.013-0.014-0.055-0.051-0.039-0.041
	c0.176,0.094,0.333,0.217,0.532,0.257c0.121,0.029,0.236,0.06,0.456,0.037c0.237-0.044,0.464-0.109,0.627-0.274
	c-0.039,0.034-0.28,0.257-0.197,0.158c0.119-0.207-0.111,0.217-0.009-0.017c0.035-0.217,0.009-0.432-0.071-0.649
	c0.006,0.02,0.029,0.078,0.019,0.059c-0.122-0.232-0.178-0.389-0.387-0.552c0.032,0.036-0.084-0.043-0.125-0.064
	c-0.196-0.094-0.192-0.078-0.441-0.15c-0.219-0.032-0.447-0.046-0.646,0.034c-0.161,0.069-0.346,0.188-0.45,0.356
	c-0.044,0.076-0.074,0.151-0.106,0.233c-0.008,0.018,0.014-0.036,0.021-0.053c0.108-0.281,0.125-0.332,0.082-0.209
	c0.005-0.01,0.002-0.028,0.012-0.029c0.012,0-0.004,0.019-0.007,0.029c-0.008,0.035-0.015,0.07-0.021,0.105
	c-0.003,0.013,0.008-0.051,0.008-0.039c-0.003,0.047-0.006,0.093-0.014,0.14c-0.003,0.03,0.004-0.061,0.008-0.09
	c0.013-0.209,0.028-0.412,0.046-0.621c-0.021,0.472,0.113,1.025,0.469,1.415c0.147,0.163,0.325,0.3,0.487,0.45
	c0.007,0.007-0.016-0.011-0.023-0.016c-0.141-0.098-0.315-0.204-0.428-0.288c0.187,0.064,0.396,0.035,0.577,0.003
	c0.242-0.083,0.468-0.241,0.551-0.484c0.068-0.261,0.076-0.496-0.062-0.756c-0.185-0.313-0.459-0.618-0.822-0.744
	c-0.138-0.035-0.227-0.045-0.359-0.027c-0.006,0.001,0.097,0,0.016,0.016c0.162-0.033,0.113-0.023-0.026,0.051
	c-0.012,0.007,0.046-0.025,0.037-0.015c-0.029,0.028-0.065,0.049-0.098,0.074c-0.017,0.018-0.035,0.037-0.055,0.056
	c0.103-0.095,0.203-0.19,0.293-0.297C367.968,139.024,371.704,141.727,369.952,144.052L369.952,144.052z"/>
<path id="path4900" inkscape:connector-curvature="0" inkscape:transform-center-y="-18.299856" d="M284.355,58.84
	c0.522,1.962,0.656,3.992,0.806,6.003c0.18,2.421,0.888,4.051,2.804,5.664c2.373,1.305,4.095,1.229,6.534,0.228
	c2.097-1.253,2.894-3.446,3.419-5.618c0.096-1.375,0.733-2.951,0.229-4.309c-0.158-0.408-0.078-0.212-0.237-0.588
	c-0.604-1.435,1.554-2.239,2.159-0.803l0,0c0.201,0.482,0.1,0.226,0.301,0.77c0.521,1.779,0.094,3.637-0.189,5.426
	c-0.725,2.873-1.912,5.604-4.776,7.133c-3.374,1.312-5.873,1.282-9.009-0.629c-2.405-2.113-3.289-4.035-3.551-7.121
	c-0.138-1.863-0.254-3.746-0.725-5.566C281.678,57.942,283.912,57.353,284.355,58.84z"/>
<path id="path4914" inkscape:connector-curvature="0" d="M284.639,52.505c-0.438,1.04-1.248,1.996-1.961,2.963
	c-0.725,1.021-1.567,2.001-2.244,3.036c-0.324,0.495-1.391,0.195-1.067-0.3l0,0c0.685-1.045,1.532-2.037,2.267-3.067
	c0.67-0.91,1.43-1.81,1.868-2.782C283.662,51.827,284.799,51.976,284.639,52.505z"/>
<path id="path4928" inkscape:connector-curvature="0" d="M288.122,52.505c-0.44,1.04-1.249,1.996-1.962,2.963
	c-0.727,1.021-1.568,2.001-2.244,3.036c-0.325,0.495-1.391,0.195-1.067-0.3l0,0c0.685-1.045,1.532-2.037,2.267-3.067
	c0.671-0.91,1.43-1.81,1.867-2.782C287.144,51.827,288.282,51.976,288.122,52.505z"/>
<path id="path4942" inkscape:connector-curvature="0" d="M291.99,52.505c-0.439,1.04-1.249,1.996-1.963,2.963
	c-0.725,1.021-1.566,2.001-2.242,3.036c-0.325,0.495-1.393,0.195-1.067-0.3l0,0c0.685-1.045,1.53-2.037,2.265-3.067
	c0.67-0.91,1.432-1.81,1.869-2.782C291.013,51.827,292.152,51.976,291.99,52.505z"/>
<path id="path4944" inkscape:connector-curvature="0" d="M295.471,52.505c-0.438,1.04-1.247,1.996-1.961,2.963
	c-0.725,1.021-1.566,2.001-2.244,3.036c-0.323,0.495-1.39,0.195-1.065-0.3l0,0c0.684-1.045,1.53-2.037,2.265-3.067
	c0.67-0.91,1.431-1.81,1.869-2.782C294.494,51.827,295.633,51.976,295.471,52.505z"/>
<path id="path4946" inkscape:connector-curvature="0" d="M298.954,52.758c-0.44,1.041-1.249,1.998-1.962,2.964
	c-0.725,1.021-1.568,2.001-2.244,3.037c-0.325,0.494-1.39,0.194-1.066-0.301l0,0c0.685-1.044,1.531-2.037,2.267-3.067
	c0.67-0.91,1.429-1.809,1.866-2.782C297.977,52.082,299.115,52.23,298.954,52.758L298.954,52.758z"/>
<path id="path4948" inkscape:connector-curvature="0" d="M302.436,52.758c-0.438,1.041-1.248,1.998-1.962,2.964
	c-0.724,1.021-1.567,2.001-2.243,3.037c-0.324,0.494-1.391,0.194-1.066-0.301l0,0c0.685-1.044,1.53-2.037,2.266-3.067
	c0.67-0.91,1.43-1.809,1.867-2.782C301.458,52.082,302.597,52.23,302.436,52.758z"/>
<path id="path4950" inkscape:connector-curvature="0" d="M306.305,52.758c-0.439,1.041-1.248,1.998-1.961,2.964
	c-0.725,1.021-1.568,2.001-2.245,3.037c-0.323,0.494-1.39,0.194-1.065-0.301l0,0c0.684-1.044,1.53-2.037,2.266-3.067
	c0.67-0.91,1.43-1.809,1.867-2.782C305.327,52.082,306.465,52.23,306.305,52.758z"/>
<path id="path4964" inkscape:connector-curvature="0" fill="#646464" d="M234.091,208.188c-1.086-0.033-2.102,0.338-2.668,1.285
	c-1.021,1.799-0.681,3.564,0.331,5.271c1.409,2.102,3.51,3.375,6.043,3.316c2.152-0.395,2.98-2.24,3.533-4.143
	c0.188-1.012,0.611-2.576-0.237-3.455c-0.25-0.258-0.647-0.312-0.978-0.455c-1.763-0.582-3.64-0.613-5.478-0.646
	c-0.747-0.039-0.648-0.139-0.551,0.098c-1.927,1.129-3.523-1.598-1.596-2.725l0,0c0.703-0.355,1.397-0.631,2.206-0.531
	c2.333,0.045,4.709,0.121,6.899,1.016c3.29,1.902,3.555,4.082,2.757,7.619c-1.087,3.453-2.757,5.867-6.597,6.381
	c-4.034-0.143-6.484-1.629-8.774-4.965c-1.574-3.055-1.908-5.689-0.046-8.723c1.627-1.9,3.381-2.732,5.924-2.406
	C237.024,205.666,236.258,208.731,234.091,208.188L234.091,208.188z"/>
<path id="path4968" inkscape:connector-curvature="0" fill="#646464" d="M256.768,194.77c-1.914,0.236-3.273,1.119-4.275,2.73
	c-1.277,2.717-0.619,5.49,0.268,8.207c1.555,3.473,4.086,5.404,7.527,6.779c3.199,0.85,6.092,0.012,8.49-2.182
	c2.076-2.5,2.367-4.486,1.352-7.496c-1.516-3.092-4.031-5.127-7.008-6.707c-2.232-0.961-4.628-1.316-7.033-1.459
	c-0.634,0.037-1.293-0.201-1.857,0.154c-2.049,0.887-3.304-2.01-1.254-2.896l0,0c1.082-0.424,2.14-0.535,3.299-0.41
	c2.863,0.174,5.705,0.633,8.342,1.828c3.688,2.004,6.777,4.617,8.522,8.537c1.313,4.367,0.778,7.365-2.288,10.832
	c-3.686,3.1-7.032,3.969-11.758,2.723c-4.441-1.84-7.377-4.236-9.342-8.736c-1.158-3.658-1.779-7.365,0.106-10.916
	c1.544-2.248,3.525-3.715,6.29-4.084C258.338,191.237,258.957,194.332,256.768,194.77L256.768,194.77z"/>
<path id="path4970" inkscape:connector-curvature="0" fill="#646464" d="M276.969,172.645c-1.389,0.331-2.766,0.839-3.67,1.984
	c-1.411,2.06-1.582,4.577-1.807,6.988c-0.174,3.593,1.34,6.596,3.629,9.243c2.594,2.744,6.037,3.861,9.646,4.521
	c3.064,0.363,4.66-0.865,6.799-2.82c2.058-1.955,3.508-4.482,4.666-7.052c1.053-2.662,1.376-5.5,0.943-8.317
	c-0.621-2.825-2.502-4.815-4.748-6.49c-2.928-1.757-6.265-2.113-9.6-1.821c-3.361,0.789-6.281,2.572-8.823,4.855
	c-0.246,0.246-0.491,0.492-0.738,0.738c-1.582,1.578-3.812-0.659-2.229-2.237l0,0c0.288-0.286,0.578-0.572,0.865-0.857
	c3.068-2.726,6.598-4.831,10.672-5.647c4.121-0.309,8.197,0.183,11.76,2.451c2.895,2.215,5.234,4.875,5.968,8.562
	c0.46,3.427,0.133,6.85-1.196,10.074c-1.359,2.951-3.021,5.841-5.416,8.078c-2.909,2.627-5.427,4.121-9.5,3.59
	c-4.326-0.812-8.404-2.264-11.476-5.584c-2.798-3.344-4.628-7.112-4.364-11.583c0.293-3.085,0.64-6.228,2.577-8.775
	c1.435-1.552,3.198-2.526,5.276-2.964C278.369,169.04,279.135,172.103,276.969,172.645L276.969,172.645z"/>
<path id="path4980" inkscape:connector-curvature="0" fill="#646464" d="M265.109,64.489c-2.03-1.437-4.487-1.805-6.895-2.125
	c-3.336-0.586-6.461-0.03-9.605,1.086c-3.859,1.398-6.892,4.075-9.152,7.442c-2.746,4.709-3.283,9.092-2.81,14.425
	c0.502,4.711,2.789,8.562,5.774,12.099c1.465,1.517,3.174,2.897,5.222,3.506c0.044,0.129,1.14,0.097,0.714,0.139
	c-1.122,0.299,0.32-0.159-0.918,2.57c-0.016,0.033-1.182-1.175-0.527-0.504c-0.542-0.017-1.089-0.043-1.635-0.049
	c-1.391,0.009-2.746,0.476-4.038,0.962c-1.717,0.758-3.037,2.138-4.059,3.682c-1.679,3.303-2.042,6.992-2.376,10.624
	c-0.346,5.458,1.124,10.654,2.986,15.713c2.167,5.448,5.73,10.026,9.874,14.097c4.361,3.868,9.586,6.4,15.027,8.35
	c5.819,1.93,11.793,2.158,17.822,1.446c4.958-0.892,9.83-2.294,14.532-4.096c1.545-0.722,3.407-1.378,4.527-2.738
	c0.184-0.109,0.312-0.768,0.208-0.258c-0.148,1.195,0.719,1.452,1.448,1.659c0.065,0.019-0.138,0.009-0.206,0.015
	c-0.058,0.003-0.23,0.016-0.174,0.009c0.756-0.092-0.108,0.285-0.356,0.47c-0.036,0.028-0.139,0.119-0.109,0.083
	c0.706-0.802,0.397,0.006,0.387,0.637c-0.055,1.984-0.079,3.927,0.386,5.864c0.549,2.983,2.161,5.406,4.185,7.593
	c2.126,2.127,4.99,2.733,7.866,3.102c2.994,0.224,6.021,0.357,9.017,0.096c3.009-0.145,5.653-1.283,8.138-2.903
	c2.86-1.955,5.02-4.675,7.142-7.368c1.529-2.334,2.995-4.75,3.952-7.382c0.176-0.604,0.402-1.216,0.423-1.85
	c-0.002-0.252-0.013-0.502-0.029-0.753c0.193-0.078,3.146-0.986,3.141,0.413c-0.085,0.943,0.261,1.727,0.798,2.484
	c1.73,1.911,3.937,3.021,6.274,3.992c3.072,1.18,6.261,1.591,9.525,1.457c3.489-0.361,6.664-1.877,9.708-3.53
	c2.91-1.641,5.246-3.989,7.484-6.423c1.587-1.909,2.177-4.329,2.582-6.723c0.225-2.582,0.7-5.239,0.38-7.831
	c-0.112-0.895-0.638-1.605-1.328-2.16c-0.169-0.143-0.528-0.353-0.672-0.418c0.036,0.011,0.211,0.089,0.218,0.066
	c1.052-3.517-0.059-3.072,2.454-3.078c2.146,0.028,4.245-0.557,6.242-1.296c2.271-0.619,3.98-1.965,5.612-3.583
	c1.78-2.037,2.742-4.616,3.458-7.189c0.784-3.378,0.99-6.871,0.832-10.327c-0.271-3.791-0.95-7.547-1.813-11.244
	c-0.467-2.373-1.792-4.218-3.14-6.143c-1.184-1.697-2.518-3.277-3.893-4.819c-0.481-0.667-0.929-1.476-1.795-1.635
	c-0.893-0.133-1.797-0.142-2.698-0.142c-0.17-0.004-0.492,0.008-0.621,0.014c-0.369-0.17-1.677-1.39-1.688-2.428
	c-0.005-0.06-0.013-0.294-0.015-0.493c-0.07-0.803,0.118-1.544,0.439-2.28c0.54-1.238,1.383-2.299,1.917-3.542
	c0.96-1.624,1.406-3.32,1.647-5.168c0.246-2.632,0.218-5.281,0.224-7.921c-0.062-3.325,0.128-6.66-0.136-9.978
	c-0.159-3.505-1.49-6.615-3.207-9.607c-1.962-3.389-4.846-5.967-8.158-7.985c-3.056-1.738-6.345-3.038-9.597-4.363
	c-3.366-1.166-6.85-1.981-10.364-2.549c-2.898-0.572-5.774-0.389-8.679-0.069c-2.003,0.212-3.939,0.82-5.899,1.275
	c-0.867,0.175-1.744,0.308-2.628,0.375c-1.514,0.359,1.224-2.413,1.269-1.166c0.009,0.216,0.009,0.433,0.008,0.649
	c-1.303,0.59-3.661-1.467-3.034,0.446c-0.844-0.991-1.545-2.092-2.255-3.179c-0.985-1.612-1.942-3.24-2.937-4.849
	c-1.39-2.148-3.142-4.022-4.889-5.879c-1.723-1.754-3.812-3.016-5.908-4.255c-1.955-1.192-4.188-1.475-6.422-1.66
	c-2.917-0.167-5.842-0.138-8.764-0.134c-3.132-0.167-6.197,0.202-9.238,0.914c-2.415,0.609-4.52,1.738-6.495,3.22
	c-2.184,1.685-4.079,3.61-5.68,5.846c-1.594,2.707-2.84,5.543-3.608,8.588c-0.477,2.979-1.028,5.952-1.449,8.941
	c-0.408,1.919-0.133,3.78,0.222,5.673c0.11,0.554,0.222,1.11,0.368,1.656c-0.803-0.5-3.635,0.29-2.961,1.064
	c-0.525-0.084-0.789-0.182-1.312-0.574c-0.278-0.209-0.526-0.737-0.344-0.366c-0.343-0.112-0.883-0.137-1.31-0.172
	c-0.261-0.02-0.521-0.031-0.785-0.032c-0.467,0.004-0.937,0.005-1.403,0.006c-0.497,0.001-0.993,0.001-1.491,0.001
	c2.234-0.909-0.062,0.353-0.533,0.777c-0.402,0.39-0.961,0.54-1.416,0.837c-0.033,0.021,0.082-0.037,0.116-0.017
	c0.052,0.03-0.047,0.11-0.075,0.165c-0.618,0.638-0.773,0.633-1.06,1.181c-0.45,0.4-0.798,0.861-1.14,1.35
	c0.423-0.619-0.318,0.952-0.814,1.406c0.187-0.109-0.144,0.41-0.207,0.549c0.113-0.504,0.064,0.199,0.064,0.442
	c0.057,0.893-0.811,1.585-0.919,2.419c-0.06,0.315-0.132,0.634-0.132,0.956c0.066,0.823-0.136,1.558-0.578,2.261
	c-0.119,0.233-0.348,0.371-0.504,0.573c-0.038,0.048,0.081-0.108,0.143-0.126c0.102-0.032-0.043,0.209-0.059,0.316
	c-0.037,0.334-0.052,0.672-0.057,1.01c0.003,0.337,0.005,0.675,0.006,1.013c0.002,0.363,0.002,0.726,0.002,1.089
	c-2.629-2.169-0.443-1.451,0.461-0.358c0.246,0.333,0.432,0.701,0.548,1.096c0.411,1.582-0.663-0.624,0.1-0.019
	c0.284,0.193,0.543,0.423,0.792,0.659c0.246,0.236,0.49,0.476,0.732,0.716c0.387,0.376,0.235,0.474,0.529,1.361
	c-0.004,0.251-0.004,0.503-0.004,0.754c0.026,0.879-2.122-1.464-1.087-1.452c0.163,0.001,0.325,0,0.487-0.004
	c-0.9,0.029,1.094,1.291,1.662,1.943c0.015,2.233-3.144,2.253-3.158,0.021l0,0c0.815,0.575,2.4,1.18,1.607,1.192
	c-0.211,0.006-0.424,0.009-0.637,0.006c-0.896-0.012-2.078-0.771-2.033-1.705c0-0.284,0-0.569,0.004-0.853
	c0.139,0.323,0.631,1.235,0.396,0.972c-0.224-0.223-0.449-0.445-0.678-0.664c-0.17-0.162-0.303-0.298-0.611-0.499
	c-0.26-0.215-0.657-0.492-0.809-0.795c-0.756-1.516-0.428-1.382-0.35-0.833c0.031,0.091,0.066,0.178,0.01,0.039
	c1.59,0.312-0.71-0.338-1.121-1.577c0-0.361-0.001-0.721-0.002-1.083c0-0.346-0.002-0.692-0.006-1.039
	c0.004-0.495,0.033-0.992,0.096-1.485c0.143-0.758,0.353-1.521,0.943-2.068c0.041,0.936-0.002-0.325,0.018-0.555
	c0.023-0.589,0.107-1.173,0.256-1.747c0.047-0.143,0.978-2.708,0.793-1.54c0.001-0.58-0.021-1.184,0.211-1.729
	c0.289-0.643,0.633-1.262,1.15-1.751c-0.304,0.427,0.197-0.309-0.287,0.787c-0.016,0.036,0.441-1.559,0.452-1.507
	c0.124-0.176,1.724-2.229,0.952-1.049c0.074-0.133,1.404-2.159,1.141-1.319c0.5-0.784,1.152-1.354,2.004-1.729
	c0.811-0.685,1.611-1.102,2.599-1.545c0.493,0,0.99,0,1.483-0.001c0.451,0,0.902-0.001,1.354-0.006
	c0.369-0.002,0.737,0.014,1.105,0.042c1.08,0.092,2.193,0.205,3.076,0.899c0.687,0.673,0.482,0.563-0.193,0.182
	c-0.932-0.525,2.057,0.64,1.214,0.344c2.257,1.447,1.567,1.347-1.415,2.807c-0.006,0.003-0.06-0.181-0.062-0.191
	c-0.176-0.635-0.298-1.281-0.43-1.926c-0.412-2.223-0.693-4.441-0.243-6.69c0.438-3.104,1.002-6.192,1.517-9.283
	c0.885-3.418,2.264-6.627,4.104-9.648c1.796-2.495,3.914-4.66,6.357-6.535c2.331-1.729,4.828-3.057,7.665-3.764
	c3.274-0.761,6.58-1.164,9.95-0.995c3.012-0.005,6.027-0.035,9.034,0.145c2.706,0.234,5.399,0.644,7.762,2.088
	c2.354,1.392,4.681,2.833,6.603,4.81c1.892,2.011,3.78,4.051,5.275,6.384c0.979,1.587,1.923,3.194,2.896,4.783
	c0.436,0.668,1.48,1.824,1.724,2.534c0.022,0.064-0.11-0.077-0.165-0.115c1.682,1.417,1.739,2.891-2.075,1.98
	c0-0.159,0.002-0.318-0.004-0.477c-0.036-0.991,1.713-2.144,1.649-2.096c0.724-0.053,1.44-0.167,2.15-0.302
	c2.081-0.483,4.139-1.122,6.27-1.338c3.187-0.35,6.352-0.522,9.528,0.092c3.748,0.61,7.466,1.479,11.05,2.742
	c3.414,1.391,6.863,2.761,10.064,4.6c3.739,2.328,7.023,5.241,9.24,9.106c1.941,3.404,3.42,6.963,3.616,10.936
	c0.251,3.402,0.1,6.815,0.143,10.224c-0.007,2.778,0.024,5.563-0.251,8.33c-0.289,2.134-0.801,4.151-1.889,6.029
	c-0.563,1.249-1.354,2.354-1.932,3.579c-0.119,0.238-0.217,0.399-0.154,0.945c0,0.162-0.005,0.23,0.012,0.455
	c0.026,1.611-0.008,0.865-1.737-0.66c0.297-0.02,0.595-0.024,0.892-0.025c1.212,0.001,2.432,0.013,3.62,0.279
	c1.376,0.47,2.475,1.283,3.229,2.555c1.455,1.634,2.867,3.311,4.12,5.107c1.579,2.254,3.07,4.478,3.63,7.238
	c0.906,3.888,1.616,7.839,1.894,11.826c0.152,3.792-0.055,7.62-0.949,11.32c-0.884,3.096-2.073,6.167-4.277,8.58
	c-1.955,1.923-4.062,3.531-6.747,4.301c-2.349,0.848-4.801,1.525-7.319,1.489c-2.655,0.006-2.457,0.729-1.858-3.181
	c0.003-0.023,0.324,0.092,0.344,0.099c0.56,0.232,1.067,0.568,1.542,0.94c1.284,1.111,2.223,2.517,2.434,4.237
	c0.277,2.897-0.077,5.824-0.408,8.704c-0.525,2.997-1.344,5.965-3.371,8.325c-2.476,2.691-5.083,5.259-8.303,7.063
	c-3.475,1.875-7.103,3.556-11.09,3.909c-3.724,0.139-7.365-0.34-10.862-1.698c-2.907-1.214-5.646-2.683-7.691-5.158
	c-0.829-1.295-1.426-2.671-1.325-4.244c0.005-1.32,3.138-1.964,3.166-0.63c0.023,0.353,0.041,0.708,0.038,1.062
	c-0.042,0.984-0.305,1.935-0.617,2.866c-1.1,2.932-2.68,5.654-4.436,8.24c-2.338,2.966-4.742,5.934-7.906,8.066
	c-2.931,1.88-6.062,3.213-9.591,3.396c-3.223,0.259-6.47,0.157-9.689-0.111c-3.621-0.486-7.15-1.393-9.787-4.103
	c-2.359-2.61-4.271-5.496-4.932-9.017c-0.488-2.197-0.555-4.389-0.463-6.635c0.023-1.133-0.035-2.428,0.993-3.189
	c0.656-0.489,1.366-1.043,2.218-1.099c1.023,0.018,2.168,0.377,2.098,1.812c-0.121,0.759-0.494,1.415-0.977,2.008
	c-1.542,1.702-3.679,2.738-5.773,3.604c-4.952,1.885-10.072,3.373-15.293,4.282c-6.599,0.759-12.893,0.494-19.258-1.611
	c-5.867-2.122-11.493-4.864-16.176-9.072c-4.461-4.411-8.297-9.365-10.62-15.258c-2.019-5.504-3.567-11.163-3.168-17.094
	c0.39-4.167,0.859-8.394,2.919-12.123c1.445-2.047,3.185-3.878,5.548-4.847c1.66-0.624,3.406-1.166,5.196-1.165
	c1.021,0.015,2.082-0.01,3.038,0.401c1.025,0.699,2.993,2.905,0.581,3.844c-0.754,0.109-1.504-0.027-2.234-0.226
	c-2.618-0.835-4.84-2.485-6.703-4.49c-3.392-4.048-5.943-8.496-6.503-13.863c-0.5-6.099,0.17-11.126,3.351-16.478
	c2.8-4.023,6.057-6.918,10.711-8.639c3.616-1.259,7.247-1.892,11.073-1.235c2.943,0.401,5.911,0.938,8.369,2.726
	C268.793,63.302,266.896,65.828,265.109,64.489L265.109,64.489z"/>
</svg>
