<?xml version="1.0" encoding="UTF-8" standalone="no"?>
<!-- Created with Inkscape (http://www.inkscape.org/) -->

<svg
   xmlns:dc="http://purl.org/dc/elements/1.1/"
   xmlns:cc="http://creativecommons.org/ns#"
   xmlns:rdf="http://www.w3.org/1999/02/22-rdf-syntax-ns#"
   xmlns:svg="http://www.w3.org/2000/svg"
   xmlns="http://www.w3.org/2000/svg"
   xmlns:sodipodi="http://sodipodi.sourceforge.net/DTD/sodipodi-0.dtd"
   xmlns:inkscape="http://www.inkscape.org/namespaces/inkscape"
   width="488.27667"
   height="376.13617"
   id="svg4163"
   version="1.1"
   inkscape:version="0.48.0 r9654"
   sodipodi:docname="SimplestWalkerPendulum.pdf">
  <defs
     id="defs4165" />
  <sodipodi:namedview
     inkscape:document-units="mm"
     pagecolor="#ffffff"
     bordercolor="#666666"
     borderopacity="1.0"
     inkscape:pageopacity="0.0"
     inkscape:pageshadow="2"
     inkscape:zoom="0.7176508"
     inkscape:cx="214.04169"
     inkscape:cy="280.86602"
     inkscape:current-layer="layer1"
     id="namedview4167"
     showgrid="false"
     fit-margin-top="0"
     fit-margin-left="0"
     fit-margin-right="0"
     fit-margin-bottom="0"
     inkscape:window-width="1280"
     inkscape:window-height="752"
     inkscape:window-x="0"
     inkscape:window-y="0"
     inkscape:window-maximized="0" />
  <metadata
     id="metadata4169">
    <rdf:RDF>
      <cc:Work
         rdf:about="">
        <dc:format>image/svg+xml</dc:format>
        <dc:type
           rdf:resource="http://purl.org/dc/dcmitype/StillImage" />
        <dc:title></dc:title>
      </cc:Work>
    </rdf:RDF>
  </metadata>
  <g
     inkscape:label="Layer 1"
     inkscape:groupmode="layer"
     id="layer1"
     transform="translate(-312.1394,-134.38468)">
    <path
       style="fill:none;stroke:#000000;stroke-width:3.83385825;stroke-linecap:round;stroke-linejoin:miter;stroke-miterlimit:4;stroke-opacity:1;stroke-dasharray:none"
       d="m 333.03105,508.60391 313.52296,0 -310.73609,-87.78643"
       id="path4680"
       inkscape:connector-curvature="0" />
    <path
       style="fill:#000000;fill-opacity:1;fill-rule:nonzero;stroke:none"
       id="path4682"
       d="m 505.65726,470.38871 c -2.97327,0.98154 -5.31281,2.99505 -7.52196,5.12945 -3.16537,3.55459 -4.22374,7.95105 -4.92607,12.52217 -0.61794,4.92713 -0.85162,9.88934 0.0779,14.78445 0.13987,0.59201 0.27973,1.18402 0.41959,1.77603 0.67578,2.87764 -3.39382,3.83333 -4.06959,0.95569 l 0,0 c -0.1537,-0.65806 -0.3074,-1.31612 -0.46109,-1.97418 -0.96427,-5.36722 -0.82081,-10.78723 -0.0972,-16.18561 0.86443,-5.47873 2.28995,-10.70434 6.15768,-14.89046 2.74421,-2.6322 5.70206,-5.04622 9.40693,-6.17303 2.86767,-0.71692 3.88154,3.33857 1.01388,4.05549 z"
       inkscape:connector-curvature="0" />
    <path
       style="fill:#000000;fill-opacity:1;fill-rule:nonzero;stroke:none"
       id="path4684"
       d="m 396.8871,467.29539 c 3.82293,-2.35335 8.01073,-4.02279 12.4994,-4.3134 6.65196,1.12855 8.4036,6.12544 9.77126,12.0072 1.21877,5.67062 0.38988,11.13707 -2.24647,16.24331 -2.02948,3.19473 -4.65121,6.02338 -8.25039,7.3494 -5.21734,0.42149 -5.87403,-4.87239 -6.32569,-8.849 -0.0467,-7.12986 3.2889,-13.18206 7.40087,-18.75607 3.9678,-4.74743 8.96298,-8.47477 14.46776,-11.24517 1.56502,-0.73882 3.18888,-1.33461 4.85018,-1.81279 2.84241,-0.81128 3.98974,3.20849 1.14733,4.01978 l 0,0 c -1.41528,0.39957 -2.79439,0.91342 -4.1293,1.53264 -4.93309,2.44314 -9.39518,5.80173 -12.97948,9.99731 -3.50923,4.69347 -6.45641,9.77914 -6.60245,15.80423 0.15356,1.42951 0.19911,2.28308 0.4938,3.63769 0.0983,0.45205 0.46482,0.8599 0.42598,1.3209 -0.042,0.49808 -0.48428,-0.0375 -0.0516,0.37831 2.59479,-0.58293 4.36074,-3.37435 5.85655,-5.32945 2.26528,-4.16315 2.83474,-8.70702 1.8672,-13.36194 -0.78128,-3.50994 -1.59586,-7.61317 -5.51424,-8.75997 -3.77288,0.0341 -7.31984,1.87818 -10.52994,3.7216 -2.53469,1.52081 -4.68544,-2.06377 -2.15075,-3.58458 z"
       inkscape:connector-curvature="0" />
    <path
       style="fill:#000000;fill-opacity:1;fill-rule:nonzero;stroke:none"
       id="path4690"
       d="m 358.94784,282.13041 c 0.97601,8.85879 0.96913,17.79783 1.09821,26.6995 0.15121,13.91733 0.15841,27.8357 0.16624,41.75369 8e-4,7.07301 9.5e-4,3.64551 -2.5e-4,10.28252 -5.4e-4,2.95592 -4.18084,2.95516 -4.18031,-7.6e-4 l 0,0 c 0.001,-6.63515 0.001,-3.20868 2.6e-4,-10.27941 -0.008,-13.89858 -0.015,-27.79755 -0.16581,-41.69547 -0.12588,-8.6926 -0.12372,-17.41909 -1.04177,-26.07283 -0.48595,-2.91571 3.63748,-3.60294 4.12343,-0.68724 z"
       inkscape:connector-curvature="0" />
    <path
       style="fill:#000000;fill-opacity:1;fill-rule:nonzero;stroke:none"
       id="path4692"
       d="m 350.56168,343.91052 c 1.49623,3.53124 2.88843,7.10792 4.26009,10.68956 1.47547,3.95627 3.36002,7.73855 5.07537,11.59222 0.46067,1.05152 0.91908,2.10425 1.355,3.16634 0.0389,0.0949 0.2179,0.27763 0.11559,0.28523 -1.29611,0.0963 -2.59936,-0.003 -3.89904,-0.004 0.40119,-2.02296 0.94115,-4.03719 1.4453,-6.04638 1.28719,-3.74721 1.89436,-7.6671 2.79034,-11.51599 0.46416,-2.51739 1.11825,-4.94135 1.96688,-7.34998 0.18884,-0.35858 0.37768,-0.71716 0.56652,-1.07574 1.44188,-2.5804 5.09111,-0.54127 3.64923,2.03913 l 0,0 c -0.0913,0.14276 -0.1826,0.28553 -0.27391,0.42829 -0.80033,2.26271 -1.40465,4.53642 -1.83728,6.90613 -0.90152,3.8723 -1.51187,7.81774 -2.80764,11.58742 -0.50056,1.98738 -1.07478,3.98178 -1.42992,5.98313 -5.39608,0.82358 -3.62282,1.29196 -5.46022,-2.70379 -1.74497,-3.92151 -3.66158,-7.77068 -5.16029,-11.79755 -1.32169,-3.45474 -2.67338,-6.89996 -4.09499,-10.31445 -1.32193,-2.64386 2.41705,-4.51335 3.73897,-1.86949 z"
       inkscape:connector-curvature="0" />
    <path
       style="fill:#000000;fill-opacity:1;fill-rule:nonzero;stroke:none"
       id="path4704"
       d="m 330.03615,313.66566 c -2.38027,-1.16387 -3.09251,-1.84036 -5.48321,-0.53445 -2.49426,2.33702 -3.43845,5.57581 -4.14932,8.80576 -0.24098,1.20567 -0.90548,5.00989 1.23644,5.15033 2.13086,-0.79886 3.42484,-2.63665 4.53703,-4.52411 1.15528,-2.89757 2.02355,-6.11082 1.79303,-9.25556 -0.47913,-3.40398 -2.19075,-2.92949 2.87698,-2.36935 0.0362,-0.0452 0.079,-0.18526 0.10855,-0.13549 0.23428,0.39488 0.16462,0.90579 0.30168,1.34401 0.17285,0.55269 0.67209,1.5954 0.87555,2.04381 2.29339,4.41688 3.0407,9.28104 3.86558,14.1244 1.21153,6.63305 1.61326,13.33016 0.96944,20.03808 -1.06319,5.95987 -2.19308,9.30093 -7.83187,12.01647 -5.97416,1.65736 -10.69304,-1.81974 -14.19451,-6.32116 -1.81328,-2.54966 -1.93438,-5.18581 -1.87684,-8.17597 0.11406,-2.95372 4.29125,-2.79243 4.1772,0.1613 l 0,0 c -0.13873,2.04326 -0.18222,3.70651 1.03236,5.49119 2.15625,2.957 5.19916,5.75496 9.13503,5.03764 3.92602,-1.60112 4.70838,-4.63962 5.39828,-8.61745 0.63608,-6.33582 0.19974,-12.66264 -0.93006,-18.92828 -0.76581,-4.49685 -1.40866,-9.0166 -3.55761,-13.11276 -0.97371,-2.18433 -2.05689,-4.55748 -1.15414,-6.94633 1.29653,-0.0415 2.59608,-0.22233 3.88957,-0.12443 0.27967,0.0212 1.12427,3.9506 1.08993,4.26612 0.14082,3.9972 -0.70913,8.00199 -2.39429,11.63228 -2.23976,3.61362 -5.32122,7.14678 -9.99951,6.08494 -0.54043,-0.32901 -1.14325,-0.57255 -1.62129,-0.98702 -2.5325,-2.1957 -2.38669,-5.83934 -1.80616,-8.80455 1.01449,-4.47983 2.53068,-8.864 6.41778,-11.66145 3.69668,-1.65412 5.70083,-1.28897 9.16387,0.56305 2.64386,1.32193 0.77437,5.06091 -1.86949,3.73898 z"
       inkscape:connector-curvature="0" />
    <path
       style="fill:#000000;fill-opacity:1;fill-rule:nonzero;stroke:none"
       id="path4712"
       d="m 314.35634,300.28533 c 2.82896,0.19753 5.57389,-0.14151 8.35285,-0.60281 2.46543,-0.4199 4.87641,-0.82233 7.34538,-0.29576 1.00906,0.32143 2.03008,0.60362 3.05658,0.8634 0.084,0.0189 0.16646,0.0439 0.24968,0.0659 -0.70083,1.08169 -1.21592,2.30955 -2.1025,3.24506 -0.10355,0.10927 -2.78993,-3.00695 -2.87267,-3.0965 -1.48669,-1.75754 -2.82054,-3.58644 -3.69409,-5.72332 -0.44853,-0.79149 -0.20624,-0.3423 -0.71111,-1.35598 -1.31507,-2.64728 2.42875,-4.50706 3.74381,-1.85978 l 0,0 c 0.51846,1.04683 0.23388,0.48341 0.85839,1.6879 0.61553,1.6919 1.80477,3.03568 2.89706,4.44018 0.7378,0.82189 1.40974,1.64943 2.19685,2.42576 0.14844,0.1464 0.48985,0.23367 0.44681,0.43766 -0.28672,1.35892 -0.91293,2.62337 -1.36939,3.93505 -0.22499,-0.0409 -0.4479,-0.0908 -0.66908,-0.14954 -0.99329,-0.25171 -1.98598,-0.51317 -2.9576,-0.83961 -1.89772,-0.4817 -3.82256,0.12875 -5.73365,0.34348 -3.00232,0.49826 -5.9842,0.85148 -9.03732,0.65923 -2.95592,0 -2.95592,-4.18031 0,-4.18031 z"
       inkscape:connector-curvature="0" />
    <path
       style="fill:#000000;fill-opacity:1;fill-rule:nonzero;stroke:none"
       id="path4714"
       d="m 449.23029,449.71873 c 2.28277,-10.76632 6.15488,-21.1191 9.52192,-31.57625 7.22844,-23.16199 14.82692,-46.20658 21.90309,-69.41588 0.86207,-2.82742 4.86065,-1.60826 3.99857,1.21915 l 0,0 c -7.08301,23.22991 -14.68698,46.2955 -21.92256,69.47801 -3.29177,10.22231 -7.05968,20.34185 -9.35773,30.84997 -0.39244,2.92975 -4.53573,2.37475 -4.14329,-0.555 z"
       inkscape:connector-curvature="0" />
    <path
       inkscape:connector-curvature="0"
       d="m 485.27409,349.39514 c 4.553,10.01972 7.58147,20.64994 11.07835,31.0644 7.93,22.93127 15.4925,45.98769 23.57311,68.86666 0.98438,2.7872 -2.95731,4.17932 -3.94168,1.39213 l 0,0 c -8.08736,-22.89962 -15.65791,-45.97621 -23.59433,-68.92824 -3.41807,-10.18077 -6.39195,-20.56144 -10.77941,-30.38241 -1.42309,-2.59082 2.24088,-4.60335 3.66396,-2.01254 z"
       id="path4716"
       style="fill:#000000;fill-opacity:1;fill-rule:nonzero;stroke:none" />
    <path
       style="fill:#000000;fill-opacity:1;fill-rule:nonzero;stroke:none"
       id="path4722"
       d="m 485.43221,360.38196 c -0.63016,0.13686 -1.27151,0.18844 -1.91175,0.22333 -1.24082,0.0494 -2.33742,-0.36616 -3.43113,-0.97136 -1.04596,-0.62952 -1.94697,-1.50898 -2.59096,-2.62419 -0.12828,-0.22217 -0.23013,-0.4618 -0.3452,-0.6927 -0.6018,-1.39941 -0.73622,-2.8187 -0.35574,-4.32396 0.0605,-0.23962 0.15535,-0.46695 0.23301,-0.70043 0.62642,-1.46467 1.52284,-2.54091 2.83173,-3.29047 0.22827,-0.13072 0.47505,-0.21709 0.71258,-0.32563 1.41898,-0.52464 2.95551,-0.50751 4.33806,0.15888 0.28112,0.1355 0.54562,0.30997 0.81843,0.46496 1.44655,1.08253 2.12133,2.24528 2.69682,4.02104 0.13911,0.57826 0.28413,1.1546 0.40176,1.73881 0.37314,1.94143 -0.25339,3.50946 -1.58307,4.76017 -0.0462,0.0402 -0.18216,0.16425 -0.13849,0.12072 0.51663,-0.51503 -0.37512,0.37929 -0.43942,0.44213 -0.46454,0.47504 -1.00988,0.82842 -1.57509,1.13241 -0.12515,0.0591 -0.25089,0.11661 -0.37545,0.17718 -0.0552,0.0268 0.20288,-0.12985 0.16726,-0.076 -0.0404,0.0613 -0.12112,0.0713 -0.18401,0.10129 -0.49047,0.23421 -0.96189,0.39352 -1.48174,0.51907 -1.09975,0.25852 -2.17307,0.0244 -3.21062,-0.38231 -0.7971,-0.35937 -1.53472,-0.89357 -2.10395,-1.61647 -0.13531,-0.17185 -0.25745,-0.35594 -0.38618,-0.53391 -0.65855,-1.04358 -0.91441,-2.23871 -1.0014,-3.48482 -0.0385,-1.15472 0.18994,-2.23382 0.65608,-3.26589 0.55894,-1.17923 1.36592,-1.94179 2.38716,-2.60796 0.7075,-0.41395 1.46117,-0.69324 2.24064,-0.8801 0.629,-0.13166 1.27017,-0.14052 1.90794,-0.1447 0.90828,0.0245 1.80414,0.24786 2.60979,0.72262 0.17373,0.10237 0.33588,0.22726 0.50382,0.34089 0.72045,0.50978 1.25183,1.23836 1.718,2.01663 0.53557,0.96676 0.70134,2.06679 0.75359,3.17886 0.0163,0.51093 0.0142,1.02226 0.0127,1.53342 -0.0388,0.69964 -0.11499,1.40023 -0.3855,2.04618 -0.14563,0.34772 -0.33786,0.66917 -0.51697,0.9971 -0.1106,0.20247 -0.55936,0.71793 -0.58873,0.75382 -0.85217,0.93148 -1.81992,1.34411 -2.97194,1.57849 -0.71044,0.11425 -1.4233,0.0988 -2.13647,0.0452 -0.28097,-0.0183 -0.60082,-0.12767 -0.86359,-0.1536 -0.75412,-0.12969 -1.34772,-0.3785 -2.03504,-0.7599 -0.52806,-0.27146 -1.00079,-0.65349 -1.45059,-1.05832 -0.57032,-0.50449 -1.01265,-1.11332 -1.43068,-1.76979 -0.43215,-0.79732 -0.68346,-1.66633 -0.83717,-2.5752 -0.0157,-0.13311 -0.0334,-0.26594 -0.0471,-0.39932 -0.01,-0.0929 0.0251,0.18494 0.0346,0.27783 0.001,0.0117 -0.007,-0.0222 -0.01,-0.0337 -0.0178,-0.0789 -0.0356,-0.15776 -0.0514,-0.23718 -0.0674,-0.3407 -0.0624,-0.33923 -0.11289,-0.69075 -0.067,-0.53101 -0.0798,-1.06745 -0.0858,-1.60277 -0.0294,-0.70731 0.0688,-1.40738 0.25128,-2.0837 0.24372,-0.84214 0.69108,-1.55553 1.2223,-2.2016 0.58535,-0.68546 1.29423,-1.12074 2.07087,-1.47454 -0.0243,0.009 -0.0481,0.0201 -0.0728,0.0278 -0.007,0.002 0.0128,-0.008 0.0196,-0.0113 0.1055,-0.0482 0.2098,-0.10016 0.3173,-0.14271 0.35694,-0.1413 0.70418,-0.23114 1.07464,-0.3104 0.41325,-0.0744 0.83172,-0.0916 1.24952,-0.0952 0.22845,-4e-4 0.45688,8.2e-4 0.68533,10e-4 0.18313,4.1e-4 0.36625,5.4e-4 0.54937,6.8e-4 0.55907,-0.025 1.11094,0.0634 1.65393,0.20644 0.1779,0.0494 0.64405,0.20149 1.08725,0.41753 0.44802,0.23246 0.81882,0.49092 1.29167,0.86276 0.65226,0.50987 1.164,1.28181 1.48112,1.81066 0.19428,0.3201 0.37106,0.74364 0.57476,1.21746 0.30354,0.71118 0.45198,1.47659 0.51893,2.25518 0.057,0.63237 0.0122,1.25671 -0.0394,1.88726 -0.0778,0.57462 -0.251,1.19664 -0.42345,1.68623 0.0211,-0.0631 0.0824,-0.25326 0.0632,-0.1894 -0.11733,0.38972 -0.24648,0.76347 -0.38781,1.14395 -0.29834,0.87915 -0.82867,1.61314 -1.45745,2.22967 -0.57563,0.57423 -1.27741,0.93258 -1.99228,1.23317 -0.72278,0.28061 -1.48315,0.35437 -2.2425,0.38141 -0.99264,0.0635 -1.94008,-0.25144 -2.85117,-0.64678 -0.16775,-0.0902 -0.33871,-0.17347 -0.50326,-0.27066 -0.32417,-0.19147 -0.623,-0.41845 -0.93689,-0.62729 -0.0203,-0.0135 0.0372,0.0323 0.0559,0.0485 -4.79078,-2.83929 -1.17044,-10.35374 3.62034,-7.51445 l 0,0 c 0.26234,0.16401 0.54776,0.33319 0.80105,0.52194 0.0265,0.0197 -0.14765,-0.0618 -0.0925,-0.0272 -0.13769,-0.0211 0.0877,0.0381 0.0646,0.037 -0.0948,-0.005 -0.18871,-0.0241 -0.28306,-0.0361 -0.0823,4e-4 -0.16459,0.002 -0.24688,10e-4 -0.0489,-5.4e-4 0.0977,-0.002 0.14651,-0.002 0.38922,-0.01 0.10039,0.002 -0.0785,0.0966 -0.0564,0.0283 -0.22297,0.11997 -0.167,0.0905 0.26448,-0.13928 0.16572,-0.12124 -0.15697,0.12728 -0.071,0.0546 -0.13408,0.12067 -0.20225,0.17941 -0.0254,0.022 0.0494,-0.046 0.0742,-0.069 -0.25594,0.27436 -0.40432,0.53991 -0.60623,0.88281 -0.04,0.0679 -0.0499,0.15333 -0.0866,0.22337 -0.0274,0.0522 0.0414,-0.11161 0.0622,-0.16741 0.0272,-0.0711 0.0131,-0.20006 0.0816,-0.21323 0.0662,-0.0127 -0.0403,0.14252 -0.0677,0.21055 -0.0234,0.0583 0.0369,-0.12098 0.056,-0.18124 0.0248,-0.0785 0.0449,-0.15922 0.0757,-0.23504 0.0189,-0.0464 -0.0263,0.0975 -0.0395,0.14623 0.0436,-0.14686 0.0872,-0.29371 0.13083,-0.44057 0.19377,-0.54285 0.0616,-0.18137 0.0397,-0.0959 -0.062,0.24242 -0.12278,0.56454 -0.0595,0.23651 0.01,-0.0521 0.0137,-0.10632 0.0302,-0.15637 0.0111,-0.0333 -0.009,0.0702 -0.0133,0.10536 -0.0553,1.15764 -0.0151,0.22846 -0.0209,0.13672 0.0382,0.22134 0.0847,0.44037 0.18376,0.64 -0.0167,-0.0395 -0.19626,-0.4619 -0.18961,-0.46271 0.0893,-0.0109 0.0793,0.17892 0.12273,0.26617 0.0228,0.0459 0.10039,0.17744 0.0757,0.13272 -0.12847,-0.23391 -0.20752,-0.36164 -0.1285,-0.2329 0.25704,0.39344 -0.14094,-0.21444 -0.1172,-0.18898 0.12552,0.13454 0.21158,0.30846 0.32751,0.45319 0.0656,0.0819 0.16333,0.13239 0.21584,0.22517 0.0276,0.0488 -0.80233,-0.82661 0.13214,0.0915 -0.0929,-0.0742 -0.38863,-0.26639 -0.28399,-0.21467 0.12126,0.0599 0.23708,0.13465 0.34566,0.21936 0.003,0.002 -0.70227,-0.40797 0.008,-0.01 -0.21512,-0.10535 -0.56842,-0.28319 0.47587,0.14002 0.27122,0.10991 -0.36836,-0.10266 -0.50491,-0.14031 0.46489,0.10603 0.0648,0.027 0.80188,0.0986 0.0367,0.004 -0.0736,0 -0.11049,0 -0.0653,0 -0.15396,0 -0.22023,-1e-5 -0.0301,0 -0.0603,-10e-6 -0.0904,-10e-6 -0.18873,-6e-5 -0.37746,-1.4e-4 -0.56619,-6.8e-4 -0.20482,-5.4e-4 -0.40965,-0.001 -0.61447,-0.002 -0.0686,2.7e-4 -0.25336,0.008 -0.0203,-0.0239 0.14308,-0.0367 0.25442,-0.0738 0.39422,-0.13486 0.0332,-0.0145 0.13016,-0.065 0.0974,-0.0492 -0.3883,0.1874 0.0209,-4.1e-4 -0.49437,0.23033 0.64788,-0.32132 0.3756,-0.18843 0.96001,-0.7607 -0.0321,0.0344 0.053,-0.0799 0.0768,-0.12169 0.16829,-0.29432 0.29996,-0.57102 0.38612,-0.91386 0.0726,-0.31919 0.0645,-0.56916 0.0964,-0.92924 0.034,-0.38507 -0.035,0.75122 6.1e-4,0.37812 0.001,0.15168 0.008,0.31529 0.004,0.46128 -0.0643,-0.21557 0.31379,1.3542 0.16079,0.90377 -0.0188,-0.075 -0.0258,-0.10793 -0.052,-0.18651 -0.0353,-0.10572 -0.0783,-0.19817 -0.0593,-0.14754 0.0863,0.23027 0.17172,0.36688 -0.13729,-0.23319 -0.0717,-0.1033 -0.14056,-0.2091 -0.21511,-0.30989 -0.0269,-0.0363 -0.11749,-0.13558 -0.0887,-0.10101 0.68405,0.82332 -0.25823,-0.28386 0.15842,0.19093 -0.36778,-0.21784 0.13827,0.0961 0.15973,0.0947 -0.62665,-0.30874 0.8951,0.43566 -0.47166,-0.17775 -0.003,-0.002 1.17238,0.37469 -0.20154,-0.008 0.25935,0.0357 0.54659,0.0767 0.78783,0.14396 -0.63592,-0.007 0.0482,-0.032 0.17681,-0.0102 0.007,10e-4 -0.012,0.006 -0.018,0.008 -0.47618,0.13179 -0.92976,0.37104 -1.27306,0.77087 -0.0892,0.11701 -0.17841,0.23399 -0.26756,0.35103 -0.006,0.007 0.0207,-0.03 0.0167,-0.0216 -0.32717,0.69561 -0.57527,1.13611 -0.55491,1.92187 0.001,-0.37356 0.003,-0.7472 -0.004,-1.12069 -4.9e-4,-0.035 -0.009,-0.13805 0.001,-0.10509 0.11167,0.34391 0.16587,0.71026 0.37756,1.00816 0.1242,0.18929 0.2399,0.37196 0.56249,0.6058 0.37174,0.22416 0.75717,0.40377 1.18901,0.36723 -0.0967,5.5e-4 -0.70594,0.0265 -0.46714,-0.0153 0.42581,-0.14894 -0.42774,0.1728 0.012,-0.0347 0.32554,-0.2649 0.56815,-0.60241 0.73956,-1.00686 -0.0162,0.0355 -0.0595,0.14427 -0.0488,0.10634 0.13547,-0.47706 0.26231,-0.76691 0.19488,-1.25043 -0.002,0.0874 -0.0559,-0.16355 -0.0866,-0.24404 -0.14151,-0.36999 -0.15414,-0.34332 -0.39327,-0.74786 -0.24933,-0.30807 -0.53898,-0.60401 -0.90323,-0.73164 -0.30381,-0.0947 -0.70378,-0.15082 -1.06003,-0.0393 -0.15547,0.0548 -0.29215,0.12715 -0.44126,0.20336 -0.0324,0.0166 0.064,-0.0353 0.0963,-0.0524 0.50726,-0.26785 0.59387,-0.31932 0.38153,-0.19632 0.0173,-0.009 0.037,-0.0392 0.0521,-0.0262 0.0142,0.0122 -0.031,0.0204 -0.046,0.0315 -0.0552,0.0407 -0.10971,0.0827 -0.16464,0.1239 -0.0198,0.0149 0.0769,-0.0629 0.0592,-0.045 -0.0627,0.0637 -0.12762,0.12507 -0.19494,0.18279 -0.0434,0.0372 0.0821,-0.0808 0.12309,-0.12118 0.28732,-0.27874 0.56994,-0.54703 0.85962,-0.82391 -0.63452,0.64399 -1.16653,1.59085 -1.1941,2.57564 -0.0114,0.40949 0.0492,0.81756 0.0703,1.22658 8.7e-4,0.0177 -0.007,-0.0348 -0.01,-0.0522 -0.0605,-0.30802 -0.1593,-0.66932 -0.20082,-0.92586 0.16707,0.31711 0.48429,0.52762 0.76508,0.70356 0.4309,0.1748 0.93446,0.22454 1.35708,-0.0188 0.42662,-0.28957 0.73917,-0.61496 0.89027,-1.14757 0.15548,-0.6697 0.18241,-1.43488 -0.13766,-2.05236 -0.13827,-0.21501 -0.24802,-0.33892 -0.44423,-0.47119 -0.01,-0.007 0.12882,0.11523 -0.003,0.0393 0.26001,0.15085 0.18354,0.10466 -0.0994,0.0412 -0.0236,-0.005 0.0933,0.0201 0.0694,0.0217 -0.0753,0.005 -0.15072,-0.008 -0.22609,-0.0115 -0.0477,0.004 -0.0954,0.008 -0.14309,0.0127 0.25679,-0.0127 0.51444,-0.026 0.76896,-0.0674 5.32636,-1.1815 6.83289,7.17303 1.50653,8.35454 z"
       inkscape:connector-curvature="0" />
    <path
       inkscape:connector-curvature="0"
       d="m 451.98976,460.7093 c -0.63016,0.13686 -1.27151,0.18844 -1.91175,0.22333 -1.24082,0.0494 -2.33742,-0.36616 -3.43113,-0.97136 -1.04596,-0.62952 -1.94697,-1.50898 -2.59096,-2.62419 -0.12828,-0.22217 -0.23013,-0.4618 -0.3452,-0.6927 -0.6018,-1.39941 -0.73622,-2.8187 -0.35574,-4.32396 0.0605,-0.23962 0.15535,-0.46695 0.23301,-0.70043 0.62642,-1.46467 1.52284,-2.54091 2.83173,-3.29047 0.22827,-0.13072 0.47505,-0.21709 0.71258,-0.32563 1.41898,-0.52464 2.95551,-0.50751 4.33806,0.15888 0.28112,0.1355 0.54562,0.30997 0.81843,0.46496 1.44655,1.08253 2.12133,2.24528 2.69682,4.02104 0.13911,0.57826 0.28413,1.1546 0.40176,1.73881 0.37314,1.94143 -0.25339,3.50946 -1.58307,4.76017 -0.0462,0.0402 -0.18216,0.16425 -0.13849,0.12072 0.51663,-0.51503 -0.37512,0.37929 -0.43942,0.44213 -0.46454,0.47504 -1.00988,0.82842 -1.57509,1.13241 -0.12515,0.0591 -0.25089,0.11661 -0.37545,0.17718 -0.0552,0.0268 0.20288,-0.12985 0.16726,-0.076 -0.0404,0.0613 -0.12112,0.0713 -0.18401,0.10129 -0.49047,0.23421 -0.96189,0.39352 -1.48174,0.51907 -1.09975,0.25852 -2.17307,0.0244 -3.21062,-0.38231 -0.7971,-0.35937 -1.53472,-0.89357 -2.10395,-1.61647 -0.13531,-0.17185 -0.25745,-0.35594 -0.38618,-0.53391 -0.65855,-1.04358 -0.91441,-2.23871 -1.0014,-3.48482 -0.0385,-1.15472 0.18994,-2.23382 0.65608,-3.26589 0.55894,-1.17923 1.36592,-1.94179 2.38716,-2.60796 0.7075,-0.41395 1.46117,-0.69324 2.24064,-0.8801 0.629,-0.13166 1.27017,-0.14052 1.90794,-0.1447 0.90828,0.0245 1.80414,0.24786 2.60979,0.72262 0.17373,0.10237 0.33588,0.22726 0.50382,0.34089 0.72045,0.50978 1.25183,1.23836 1.718,2.01663 0.53557,0.96676 0.70134,2.06679 0.75359,3.17886 0.0163,0.51093 0.0142,1.02226 0.0127,1.53342 -0.0388,0.69964 -0.11499,1.40023 -0.3855,2.04618 -0.14563,0.34772 -0.33786,0.66917 -0.51697,0.9971 -0.1106,0.20247 -0.55936,0.71793 -0.58873,0.75382 -0.85217,0.93148 -1.81992,1.34411 -2.97194,1.57849 -0.71044,0.11425 -1.4233,0.0988 -2.13647,0.0452 -0.28097,-0.0183 -0.60082,-0.12767 -0.86359,-0.1536 -0.75412,-0.12969 -1.34772,-0.3785 -2.03504,-0.7599 -0.52806,-0.27146 -1.00079,-0.65349 -1.45059,-1.05832 -0.57032,-0.50449 -1.01265,-1.11332 -1.43068,-1.76979 -0.43215,-0.79732 -0.68346,-1.66633 -0.83717,-2.5752 -0.0157,-0.13311 -0.0334,-0.26594 -0.0471,-0.39932 -0.01,-0.0929 0.0251,0.18494 0.0346,0.27783 0.001,0.0117 -0.007,-0.0222 -0.01,-0.0337 -0.0178,-0.0789 -0.0356,-0.15776 -0.0514,-0.23718 -0.0674,-0.3407 -0.0624,-0.33923 -0.11289,-0.69075 -0.067,-0.53101 -0.0798,-1.06745 -0.0858,-1.60277 -0.0294,-0.70731 0.0688,-1.40738 0.25128,-2.0837 0.24372,-0.84214 0.69108,-1.55553 1.2223,-2.2016 0.58535,-0.68546 1.29423,-1.12074 2.07087,-1.47454 -0.0243,0.009 -0.0481,0.0201 -0.0728,0.0278 -0.007,0.002 0.0128,-0.008 0.0196,-0.0113 0.1055,-0.0482 0.2098,-0.10016 0.3173,-0.14271 0.35694,-0.1413 0.70418,-0.23114 1.07464,-0.3104 0.41325,-0.0744 0.83172,-0.0916 1.24952,-0.0952 0.22845,-4e-4 0.45688,8.2e-4 0.68533,10e-4 0.18313,4.1e-4 0.36625,5.4e-4 0.54937,6.8e-4 0.55907,-0.025 1.11094,0.0634 1.65393,0.20644 0.1779,0.0494 0.64405,0.20149 1.08725,0.41753 0.44802,0.23246 0.81882,0.49092 1.29167,0.86276 0.65226,0.50987 1.164,1.28181 1.48112,1.81066 0.19428,0.3201 0.37106,0.74364 0.57476,1.21746 0.30354,0.71118 0.45198,1.47659 0.51893,2.25518 0.057,0.63237 0.0122,1.25671 -0.0394,1.88726 -0.0778,0.57462 -0.251,1.19664 -0.42345,1.68623 0.0211,-0.0631 0.0824,-0.25326 0.0632,-0.1894 -0.11733,0.38972 -0.24648,0.76347 -0.38781,1.14395 -0.29834,0.87915 -0.82867,1.61314 -1.45745,2.22967 -0.57563,0.57423 -1.27741,0.93258 -1.99228,1.23317 -0.72278,0.28061 -1.48315,0.35437 -2.2425,0.38141 -0.99264,0.0635 -1.94008,-0.25144 -2.85117,-0.64678 -0.16775,-0.0902 -0.33871,-0.17347 -0.50326,-0.27066 -0.32417,-0.19147 -0.623,-0.41845 -0.93689,-0.62729 -0.0203,-0.0135 0.0372,0.0323 0.0559,0.0485 -4.79078,-2.83929 -1.17044,-10.35374 3.62034,-7.51445 l 0,0 c 0.26234,0.16401 0.54776,0.33319 0.80105,0.52194 0.0265,0.0197 -0.14765,-0.0618 -0.0925,-0.0272 -0.13769,-0.0211 0.0877,0.0381 0.0646,0.037 -0.0948,-0.005 -0.18871,-0.0241 -0.28306,-0.0361 -0.0823,4e-4 -0.16459,0.002 -0.24688,10e-4 -0.0489,-5.4e-4 0.0977,-0.002 0.14651,-0.002 0.38922,-0.01 0.10039,0.002 -0.0785,0.0966 -0.0564,0.0283 -0.22297,0.11997 -0.167,0.0905 0.26448,-0.13928 0.16572,-0.12124 -0.15697,0.12728 -0.071,0.0546 -0.13408,0.12067 -0.20225,0.17941 -0.0254,0.022 0.0494,-0.046 0.0742,-0.069 -0.25594,0.27436 -0.40432,0.53991 -0.60623,0.88281 -0.04,0.0679 -0.0499,0.15333 -0.0866,0.22337 -0.0274,0.0522 0.0414,-0.11161 0.0622,-0.16741 0.0272,-0.0711 0.0131,-0.20006 0.0816,-0.21323 0.0662,-0.0127 -0.0403,0.14252 -0.0677,0.21055 -0.0234,0.0583 0.0369,-0.12098 0.056,-0.18124 0.0248,-0.0785 0.0449,-0.15922 0.0757,-0.23504 0.0189,-0.0464 -0.0263,0.0975 -0.0395,0.14623 0.0436,-0.14686 0.0872,-0.29371 0.13083,-0.44057 0.19377,-0.54285 0.0616,-0.18137 0.0397,-0.0959 -0.062,0.24242 -0.12278,0.56454 -0.0595,0.23651 0.01,-0.0521 0.0137,-0.10632 0.0302,-0.15637 0.0111,-0.0333 -0.009,0.0702 -0.0133,0.10536 -0.0553,1.15764 -0.0151,0.22846 -0.0209,0.13672 0.0382,0.22134 0.0847,0.44037 0.18376,0.64 -0.0167,-0.0395 -0.19626,-0.4619 -0.18961,-0.46271 0.0893,-0.0109 0.0793,0.17892 0.12273,0.26617 0.0228,0.0459 0.10039,0.17744 0.0757,0.13272 -0.12847,-0.23391 -0.20752,-0.36164 -0.1285,-0.2329 0.25704,0.39344 -0.14094,-0.21444 -0.1172,-0.18898 0.12552,0.13454 0.21158,0.30846 0.32751,0.45319 0.0656,0.0819 0.16333,0.13239 0.21584,0.22517 0.0276,0.0488 -0.80233,-0.82661 0.13214,0.0915 -0.0929,-0.0742 -0.38863,-0.26639 -0.28399,-0.21467 0.12126,0.0599 0.23708,0.13465 0.34566,0.21936 0.003,0.002 -0.70227,-0.40797 0.008,-0.01 -0.21512,-0.10535 -0.56842,-0.28319 0.47587,0.14002 0.27122,0.10991 -0.36836,-0.10266 -0.50491,-0.14031 0.46489,0.10603 0.0648,0.027 0.80188,0.0986 0.0367,0.004 -0.0736,0 -0.11049,0 -0.0653,0 -0.15396,0 -0.22023,-1e-5 -0.0301,0 -0.0603,-10e-6 -0.0904,-10e-6 -0.18873,-6e-5 -0.37746,-1.4e-4 -0.56619,-6.8e-4 -0.20482,-5.4e-4 -0.40965,-0.001 -0.61447,-0.002 -0.0686,2.7e-4 -0.25336,0.008 -0.0203,-0.0239 0.14308,-0.0367 0.25442,-0.0738 0.39422,-0.13486 0.0332,-0.0145 0.13016,-0.065 0.0974,-0.0492 -0.3883,0.1874 0.0209,-4.1e-4 -0.49437,0.23033 0.64788,-0.32132 0.3756,-0.18843 0.96001,-0.7607 -0.0321,0.0344 0.053,-0.0799 0.0768,-0.12169 0.16829,-0.29432 0.29996,-0.57102 0.38612,-0.91386 0.0726,-0.31919 0.0645,-0.56916 0.0964,-0.92924 0.034,-0.38507 -0.035,0.75122 6.1e-4,0.37812 10e-4,0.15168 0.008,0.31529 0.004,0.46128 -0.0643,-0.21557 0.31379,1.3542 0.16079,0.90377 -0.0188,-0.075 -0.0258,-0.10793 -0.052,-0.18651 -0.0353,-0.10572 -0.0783,-0.19817 -0.0593,-0.14754 0.0863,0.23027 0.17172,0.36688 -0.13729,-0.23319 -0.0717,-0.1033 -0.14056,-0.2091 -0.21511,-0.30989 -0.0269,-0.0363 -0.11749,-0.13558 -0.0887,-0.10101 0.68405,0.82332 -0.25823,-0.28386 0.15842,0.19093 -0.36778,-0.21784 0.13827,0.0961 0.15973,0.0947 -0.62665,-0.30874 0.8951,0.43566 -0.47166,-0.17775 -0.003,-0.002 1.17238,0.37469 -0.20154,-0.008 0.25935,0.0357 0.54659,0.0767 0.78783,0.14396 -0.63592,-0.007 0.0482,-0.032 0.17681,-0.0102 0.007,10e-4 -0.012,0.006 -0.018,0.008 -0.47618,0.13179 -0.92976,0.37104 -1.27306,0.77087 -0.0892,0.11701 -0.17841,0.23399 -0.26756,0.35103 -0.006,0.007 0.0207,-0.03 0.0167,-0.0216 -0.32717,0.69561 -0.57527,1.13611 -0.55491,1.92187 0.001,-0.37356 0.003,-0.7472 -0.004,-1.12069 -4.9e-4,-0.035 -0.009,-0.13805 10e-4,-0.10509 0.11167,0.34391 0.16587,0.71026 0.37756,1.00816 0.1242,0.18929 0.2399,0.37196 0.56249,0.6058 0.37174,0.22416 0.75717,0.40377 1.18901,0.36723 -0.0967,5.5e-4 -0.70594,0.0265 -0.46714,-0.0153 0.42581,-0.14894 -0.42774,0.1728 0.012,-0.0347 0.32554,-0.2649 0.56815,-0.60241 0.73956,-1.00686 -0.0162,0.0355 -0.0595,0.14427 -0.0488,0.10634 0.13547,-0.47706 0.26231,-0.76691 0.19488,-1.25043 -0.002,0.0874 -0.0559,-0.16355 -0.0866,-0.24404 -0.14151,-0.36999 -0.15414,-0.34332 -0.39327,-0.74786 -0.24933,-0.30807 -0.53898,-0.60401 -0.90323,-0.73164 -0.30381,-0.0947 -0.70378,-0.15082 -1.06003,-0.0393 -0.15547,0.0548 -0.29215,0.12715 -0.44126,0.20336 -0.0324,0.0166 0.064,-0.0353 0.0963,-0.0524 0.50726,-0.26785 0.59387,-0.31932 0.38153,-0.19632 0.0173,-0.009 0.037,-0.0392 0.0521,-0.0262 0.0142,0.0122 -0.031,0.0204 -0.046,0.0315 -0.0552,0.0407 -0.10971,0.0827 -0.16464,0.1239 -0.0198,0.0149 0.0769,-0.0629 0.0592,-0.045 -0.0627,0.0637 -0.12762,0.12507 -0.19494,0.18279 -0.0434,0.0372 0.0821,-0.0808 0.12309,-0.12118 0.28732,-0.27874 0.56994,-0.54703 0.85962,-0.82391 -0.63452,0.64399 -1.16653,1.59085 -1.1941,2.57564 -0.0114,0.40949 0.0492,0.81756 0.0703,1.22658 8.7e-4,0.0177 -0.007,-0.0348 -0.01,-0.0522 -0.0605,-0.30802 -0.1593,-0.66932 -0.20082,-0.92586 0.16707,0.31711 0.48429,0.52762 0.76508,0.70356 0.4309,0.1748 0.93446,0.22454 1.35708,-0.0188 0.42662,-0.28957 0.73917,-0.61496 0.89027,-1.14757 0.15548,-0.6697 0.18241,-1.43488 -0.13766,-2.05236 -0.13827,-0.21501 -0.24802,-0.33892 -0.44423,-0.47119 -0.01,-0.007 0.12882,0.11523 -0.003,0.0393 0.26001,0.15085 0.18354,0.10466 -0.0994,0.0412 -0.0236,-0.005 0.0933,0.0201 0.0694,0.0217 -0.0753,0.005 -0.15072,-0.008 -0.22609,-0.0115 -0.0477,0.004 -0.0954,0.008 -0.14309,0.0127 0.25679,-0.0127 0.51444,-0.026 0.76896,-0.0674 5.32636,-1.1815 6.83289,7.17303 1.50653,8.35454 z"
       id="path4724"
       style="fill:#000000;fill-opacity:1;fill-rule:nonzero;stroke:none" />
    <path
       style="fill:#000000;fill-opacity:1;fill-rule:nonzero;stroke:none"
       id="path4726"
       d="m 520.26809,456.52899 c -0.63016,0.13686 -1.27151,0.18844 -1.91175,0.22333 -1.24082,0.0494 -2.33742,-0.36616 -3.43113,-0.97136 -1.04596,-0.62952 -1.94697,-1.50898 -2.59096,-2.62419 -0.12828,-0.22217 -0.23013,-0.4618 -0.3452,-0.6927 -0.6018,-1.39941 -0.73622,-2.8187 -0.35574,-4.32396 0.0605,-0.23962 0.15535,-0.46695 0.23301,-0.70043 0.62642,-1.46467 1.52284,-2.54091 2.83173,-3.29047 0.22827,-0.13072 0.47505,-0.21709 0.71258,-0.32563 1.41898,-0.52464 2.95551,-0.50751 4.33806,0.15888 0.28112,0.1355 0.54562,0.30997 0.81843,0.46496 1.44655,1.08253 2.12133,2.24528 2.69682,4.02104 0.13911,0.57826 0.28413,1.1546 0.40176,1.73881 0.37314,1.94143 -0.25339,3.50946 -1.58307,4.76017 -0.0462,0.0402 -0.18216,0.16425 -0.13849,0.12072 0.51663,-0.51503 -0.37512,0.37929 -0.43942,0.44213 -0.46454,0.47504 -1.00988,0.82842 -1.57509,1.13241 -0.12515,0.0591 -0.25089,0.11661 -0.37545,0.17718 -0.0552,0.0268 0.20288,-0.12985 0.16726,-0.076 -0.0404,0.0613 -0.12112,0.0713 -0.18401,0.10129 -0.49047,0.23421 -0.96189,0.39352 -1.48174,0.51907 -1.09975,0.25852 -2.17307,0.0244 -3.21062,-0.38231 -0.7971,-0.35937 -1.53472,-0.89357 -2.10395,-1.61647 -0.13531,-0.17185 -0.25745,-0.35594 -0.38618,-0.53391 -0.65855,-1.04358 -0.91441,-2.23871 -1.0014,-3.48482 -0.0385,-1.15472 0.18994,-2.23382 0.65608,-3.26589 0.55894,-1.17923 1.36592,-1.94179 2.38716,-2.60796 0.7075,-0.41395 1.46117,-0.69324 2.24064,-0.8801 0.629,-0.13166 1.27017,-0.14052 1.90794,-0.1447 0.90828,0.0245 1.80414,0.24786 2.60979,0.72262 0.17373,0.10237 0.33588,0.22726 0.50382,0.34089 0.72045,0.50978 1.25183,1.23836 1.718,2.01663 0.53557,0.96676 0.70134,2.06679 0.75359,3.17886 0.0163,0.51093 0.0142,1.02226 0.0127,1.53342 -0.0388,0.69964 -0.11499,1.40023 -0.3855,2.04618 -0.14563,0.34772 -0.33786,0.66917 -0.51697,0.9971 -0.1106,0.20247 -0.55936,0.71793 -0.58873,0.75382 -0.85217,0.93148 -1.81992,1.34411 -2.97194,1.57849 -0.71044,0.11425 -1.4233,0.0988 -2.13647,0.0452 -0.28097,-0.0183 -0.60082,-0.12767 -0.86359,-0.1536 -0.75412,-0.12969 -1.34772,-0.3785 -2.03504,-0.7599 -0.52806,-0.27146 -1.00079,-0.65349 -1.45059,-1.05832 -0.57032,-0.50449 -1.01265,-1.11332 -1.43068,-1.76979 -0.43215,-0.79732 -0.68346,-1.66633 -0.83717,-2.5752 -0.0157,-0.13311 -0.0334,-0.26594 -0.0471,-0.39932 -0.01,-0.0929 0.0251,0.18494 0.0346,0.27783 10e-4,0.0117 -0.007,-0.0222 -0.01,-0.0337 -0.0178,-0.0789 -0.0356,-0.15776 -0.0514,-0.23718 -0.0674,-0.3407 -0.0624,-0.33923 -0.11289,-0.69075 -0.067,-0.53101 -0.0798,-1.06745 -0.0858,-1.60277 -0.0294,-0.70731 0.0688,-1.40738 0.25128,-2.0837 0.24372,-0.84214 0.69108,-1.55553 1.2223,-2.2016 0.58535,-0.68546 1.29423,-1.12074 2.07087,-1.47454 -0.0243,0.009 -0.0481,0.0201 -0.0728,0.0278 -0.007,0.002 0.0128,-0.008 0.0196,-0.0113 0.1055,-0.0482 0.2098,-0.10016 0.3173,-0.14271 0.35694,-0.1413 0.70418,-0.23114 1.07464,-0.3104 0.41325,-0.0744 0.83172,-0.0916 1.24952,-0.0952 0.22845,-4e-4 0.45688,8.2e-4 0.68533,0.001 0.18313,4.1e-4 0.36625,5.4e-4 0.54937,6.8e-4 0.55907,-0.025 1.11094,0.0634 1.65393,0.20644 0.1779,0.0494 0.64405,0.20149 1.08725,0.41753 0.44802,0.23246 0.81882,0.49092 1.29167,0.86276 0.65226,0.50987 1.164,1.28181 1.48112,1.81066 0.19428,0.3201 0.37106,0.74364 0.57476,1.21746 0.30354,0.71118 0.45198,1.47659 0.51893,2.25518 0.057,0.63237 0.0122,1.25671 -0.0394,1.88726 -0.0778,0.57462 -0.251,1.19664 -0.42345,1.68623 0.0211,-0.0631 0.0824,-0.25326 0.0632,-0.1894 -0.11733,0.38972 -0.24648,0.76347 -0.38781,1.14395 -0.29834,0.87915 -0.82867,1.61314 -1.45745,2.22967 -0.57563,0.57423 -1.27741,0.93258 -1.99228,1.23317 -0.72278,0.28061 -1.48315,0.35437 -2.2425,0.38141 -0.99264,0.0635 -1.94008,-0.25144 -2.85117,-0.64678 -0.16775,-0.0902 -0.33871,-0.17347 -0.50326,-0.27066 -0.32417,-0.19147 -0.623,-0.41845 -0.93689,-0.62729 -0.0203,-0.0135 0.0372,0.0323 0.0559,0.0485 -4.79078,-2.83929 -1.17044,-10.35374 3.62034,-7.51445 l 0,0 c 0.26234,0.16401 0.54776,0.33319 0.80105,0.52194 0.0265,0.0197 -0.14765,-0.0618 -0.0925,-0.0272 -0.13769,-0.0211 0.0877,0.0381 0.0646,0.037 -0.0948,-0.005 -0.18871,-0.0241 -0.28306,-0.0361 -0.0823,4e-4 -0.16459,0.002 -0.24688,0.001 -0.0489,-5.4e-4 0.0977,-0.002 0.14651,-0.002 0.38922,-0.01 0.10039,0.002 -0.0785,0.0966 -0.0564,0.0283 -0.22297,0.11997 -0.167,0.0905 0.26448,-0.13928 0.16572,-0.12124 -0.15697,0.12728 -0.071,0.0546 -0.13408,0.12067 -0.20225,0.17941 -0.0254,0.022 0.0494,-0.046 0.0742,-0.069 -0.25594,0.27436 -0.40432,0.53991 -0.60623,0.88281 -0.04,0.0679 -0.0499,0.15333 -0.0866,0.22337 -0.0274,0.0522 0.0414,-0.11161 0.0622,-0.16741 0.0272,-0.0711 0.0131,-0.20006 0.0816,-0.21323 0.0662,-0.0127 -0.0403,0.14252 -0.0677,0.21055 -0.0234,0.0583 0.0369,-0.12098 0.056,-0.18124 0.0248,-0.0785 0.0449,-0.15922 0.0757,-0.23504 0.0189,-0.0464 -0.0263,0.0975 -0.0395,0.14623 0.0436,-0.14686 0.0872,-0.29371 0.13083,-0.44057 0.19377,-0.54285 0.0616,-0.18137 0.0397,-0.0959 -0.062,0.24242 -0.12278,0.56454 -0.0595,0.23651 0.01,-0.0521 0.0137,-0.10632 0.0302,-0.15637 0.0111,-0.0333 -0.009,0.0702 -0.0133,0.10536 -0.0553,1.15764 -0.0151,0.22846 -0.0209,0.13672 0.0382,0.22134 0.0847,0.44037 0.18376,0.64 -0.0167,-0.0395 -0.19626,-0.4619 -0.18961,-0.46271 0.0893,-0.0109 0.0793,0.17892 0.12273,0.26617 0.0228,0.0459 0.10039,0.17744 0.0757,0.13272 -0.12847,-0.23391 -0.20752,-0.36164 -0.1285,-0.2329 0.25704,0.39344 -0.14094,-0.21444 -0.1172,-0.18898 0.12552,0.13454 0.21158,0.30846 0.32751,0.45319 0.0656,0.0819 0.16333,0.13239 0.21584,0.22517 0.0276,0.0488 -0.80233,-0.82661 0.13214,0.0915 -0.0929,-0.0742 -0.38863,-0.26639 -0.28399,-0.21467 0.12126,0.0599 0.23708,0.13465 0.34566,0.21936 0.003,0.002 -0.70227,-0.40797 0.008,-0.01 -0.21512,-0.10535 -0.56842,-0.28319 0.47587,0.14002 0.27122,0.10991 -0.36836,-0.10266 -0.50491,-0.14031 0.46489,0.10603 0.0648,0.027 0.80188,0.0986 0.0367,0.004 -0.0736,0 -0.11049,0 -0.0653,0 -0.15396,0 -0.22023,-10e-6 -0.0301,0 -0.0603,-1e-5 -0.0904,-1e-5 -0.18873,-6e-5 -0.37746,-1.4e-4 -0.56619,-6.8e-4 -0.20482,-5.4e-4 -0.40965,-10e-4 -0.61447,-0.002 -0.0686,2.7e-4 -0.25336,0.008 -0.0203,-0.0239 0.14308,-0.0367 0.25442,-0.0738 0.39422,-0.13486 0.0332,-0.0145 0.13016,-0.065 0.0974,-0.0492 -0.3883,0.1874 0.0209,-4.1e-4 -0.49437,0.23033 0.64788,-0.32132 0.3756,-0.18843 0.96001,-0.7607 -0.0321,0.0344 0.053,-0.0799 0.0768,-0.12169 0.16829,-0.29432 0.29996,-0.57102 0.38612,-0.91386 0.0726,-0.31919 0.0645,-0.56916 0.0964,-0.92924 0.034,-0.38507 -0.035,0.75122 6.1e-4,0.37812 0.001,0.15168 0.008,0.31529 0.004,0.46128 -0.0643,-0.21557 0.31379,1.3542 0.16079,0.90377 -0.0188,-0.075 -0.0258,-0.10793 -0.052,-0.18651 -0.0353,-0.10572 -0.0783,-0.19817 -0.0593,-0.14754 0.0863,0.23027 0.17172,0.36688 -0.13729,-0.23319 -0.0717,-0.1033 -0.14056,-0.2091 -0.21511,-0.30989 -0.0269,-0.0363 -0.11749,-0.13558 -0.0887,-0.10101 0.68405,0.82332 -0.25823,-0.28386 0.15842,0.19093 -0.36778,-0.21784 0.13827,0.0961 0.15973,0.0947 -0.62665,-0.30874 0.8951,0.43566 -0.47166,-0.17775 -0.003,-0.002 1.17238,0.37469 -0.20154,-0.008 0.25935,0.0357 0.54659,0.0767 0.78783,0.14396 -0.63592,-0.007 0.0482,-0.032 0.17681,-0.0102 0.007,0.001 -0.012,0.006 -0.018,0.008 -0.47618,0.13179 -0.92976,0.37104 -1.27306,0.77087 -0.0892,0.11701 -0.17841,0.23399 -0.26756,0.35103 -0.006,0.007 0.0207,-0.03 0.0167,-0.0216 -0.32717,0.69561 -0.57527,1.13611 -0.55491,1.92187 10e-4,-0.37356 0.003,-0.7472 -0.004,-1.12069 -4.9e-4,-0.035 -0.009,-0.13805 10e-4,-0.10509 0.11167,0.34391 0.16587,0.71026 0.37756,1.00816 0.1242,0.18929 0.2399,0.37196 0.56249,0.6058 0.37174,0.22416 0.75717,0.40377 1.18901,0.36723 -0.0967,5.5e-4 -0.70594,0.0265 -0.46714,-0.0153 0.42581,-0.14894 -0.42774,0.1728 0.012,-0.0347 0.32554,-0.2649 0.56815,-0.60241 0.73956,-1.00686 -0.0162,0.0355 -0.0595,0.14427 -0.0488,0.10634 0.13547,-0.47706 0.26231,-0.76691 0.19488,-1.25043 -0.002,0.0874 -0.0559,-0.16355 -0.0866,-0.24404 -0.14151,-0.36999 -0.15414,-0.34332 -0.39327,-0.74786 -0.24933,-0.30807 -0.53898,-0.60401 -0.90323,-0.73164 -0.30381,-0.0947 -0.70378,-0.15082 -1.06003,-0.0393 -0.15547,0.0548 -0.29215,0.12715 -0.44126,0.20336 -0.0324,0.0166 0.064,-0.0353 0.0963,-0.0524 0.50726,-0.26785 0.59387,-0.31932 0.38153,-0.19632 0.0173,-0.009 0.037,-0.0392 0.0521,-0.0262 0.0142,0.0122 -0.031,0.0204 -0.046,0.0315 -0.0552,0.0407 -0.10971,0.0827 -0.16464,0.1239 -0.0198,0.0149 0.0769,-0.0629 0.0592,-0.045 -0.0627,0.0637 -0.12762,0.12507 -0.19494,0.18279 -0.0434,0.0372 0.0821,-0.0808 0.12309,-0.12118 0.28732,-0.27874 0.56994,-0.54703 0.85962,-0.82391 -0.63452,0.64399 -1.16653,1.59085 -1.1941,2.57564 -0.0114,0.40949 0.0492,0.81756 0.0703,1.22658 8.7e-4,0.0177 -0.007,-0.0348 -0.01,-0.0522 -0.0605,-0.30802 -0.1593,-0.66932 -0.20082,-0.92586 0.16707,0.31711 0.48429,0.52762 0.76508,0.70356 0.4309,0.1748 0.93446,0.22454 1.35708,-0.0188 0.42662,-0.28957 0.73917,-0.61496 0.89027,-1.14757 0.15548,-0.6697 0.18241,-1.43488 -0.13766,-2.05236 -0.13827,-0.21501 -0.24802,-0.33892 -0.44423,-0.47119 -0.01,-0.007 0.12882,0.11523 -0.003,0.0393 0.26001,0.15085 0.18354,0.10466 -0.0994,0.0412 -0.0236,-0.005 0.0933,0.0201 0.0694,0.0217 -0.0753,0.005 -0.15072,-0.008 -0.22609,-0.0115 -0.0477,0.004 -0.0954,0.008 -0.14309,0.0127 0.25679,-0.0127 0.51444,-0.026 0.76896,-0.0674 5.32636,-1.1815 6.83289,7.17303 1.50653,8.35454 z"
       inkscape:connector-curvature="0" />
    <path
       style="fill:#000000;fill-opacity:1;fill-rule:nonzero;stroke:none"
       id="path4784"
       d="m 419.39846,423.65666 c 0,2.03391 0,4.06782 0,6.10173 0,1.59699 0,3.19398 0,4.79098 0.0682,1.3929 -0.22655,-0.46624 -0.90595,-0.81441 -0.43028,-0.5527 -0.83319,0.52781 -1.14246,0.62855 -0.0685,0.0223 0.008,-0.14959 0.0124,-0.22432 0.0515,-0.79934 0.013,-0.3932 0.20769,-1.44051 0.37131,-1.99158 0.74872,-3.96257 1.39452,-5.88064 0.7975,-1.87813 1.81706,-3.68266 3.23737,-5.11754 1.40133,-1.17122 2.42502,-1.41928 4.0836,-0.56167 1.36038,1.41597 1.73846,3.51486 2.19349,5.40586 0.41111,1.89932 0.53775,3.84624 0.61427,5.78637 0.0167,0.61844 0.0385,1.23745 0.0262,1.85625 -2e-5,3.3e-4 -0.005,0.15457 -0.008,0.15372 -3.31723,-1.06016 -2.9721,-0.42441 -2.12614,-2.89542 0.80155,-2.15243 1.74266,-4.2259 2.90802,-6.18922 0.94806,-1.29834 1.88559,-2.50949 3.2934,-3.2619 1.86001,-0.80924 3.23624,0.23182 4.18532,1.84537 1.04886,1.67967 1.21253,3.65379 1.35528,5.59838 0.2296,1.43087 0.62392,2.82315 0.88121,4.24774 0.0871,0.53662 0.0485,0.28551 0.11733,0.75304 0.31145,2.12415 -2.5691,2.58347 -2.88054,0.45934 l 0,0 c -0.0588,-0.40311 -0.0257,-0.18558 -0.1009,-0.65234 -0.27437,-1.53401 -0.72531,-3.02887 -0.92288,-4.57926 -0.10424,-1.46658 -0.15042,-2.9818 -0.94258,-4.25357 -0.0905,-0.15908 -0.20792,-0.30455 -0.27154,-0.47721 -0.0199,-0.0541 0.37923,-0.36435 -0.18952,-0.18715 -0.94697,0.2958 -1.349,1.47501 -2.04844,2.10973 -1.06394,1.78354 -1.91269,3.67147 -2.64626,5.6275 -0.81622,2.27058 0.0208,2.1927 -3.5175,1.63472 0.008,-0.55528 -0.007,-1.11061 -0.0245,-1.66558 -0.0676,-1.73431 -0.17268,-3.47555 -0.53017,-5.17551 -0.28402,-1.19752 -0.72285,-2.38662 -0.93892,-3.58269 0.66013,-0.22541 -0.39112,-0.0649 -0.53602,0.23829 -1.15156,0.98187 -1.77868,2.57279 -2.467,3.90264 -0.61954,1.78052 -0.92286,3.62693 -1.28609,5.47715 -0.30449,1.38385 -0.12439,3.53455 -2.15347,3.44993 -1.09422,-0.12322 -1.90715,-1.04442 -1.7857,-2.21564 0,-1.597 0,-3.19399 0,-4.79098 0,-2.03391 0,-4.06782 0,-6.10173 0,-2.14882 2.91402,-2.14882 2.91402,0 z"
       inkscape:connector-curvature="0" />
    <path
       style="fill:#000000;fill-opacity:1;fill-rule:nonzero;stroke:none"
       id="path4786"
       d="m 446.59603,429.73446 c 0,2.55506 0,5.11012 0,7.66519 0,0.37177 0,0.74355 0,1.11534 0,2.14883 -2.91402,2.14883 -2.91402,0 l 0,0 c 0,-0.37179 0,-0.74357 0,-1.11534 0,-2.55507 0,-5.11013 0,-7.66519 0,-2.14882 2.91402,-2.14882 2.91402,0 z"
       inkscape:connector-curvature="0" />
    <path
       inkscape:connector-curvature="0"
       d="m 531.29539,443.05088 c 0,2.0339 0,4.06781 0,6.10173 0,1.59699 0,3.19398 0,4.79098 0.0683,1.39289 -0.22655,-0.46625 -0.90595,-0.81441 -0.43028,-0.55271 -0.83319,0.52781 -1.14246,0.62855 -0.0685,0.0223 0.008,-0.1496 0.0124,-0.22433 0.0514,-0.79934 0.013,-0.39319 0.20769,-1.4405 0.37131,-1.99159 0.74872,-3.96258 1.39452,-5.88064 0.7975,-1.87814 1.81707,-3.68267 3.23738,-5.11755 1.40132,-1.17121 2.42501,-1.41928 4.08359,-0.56167 1.36038,1.41598 1.73846,3.51487 2.19349,5.40586 0.41111,1.89933 0.53775,3.84624 0.61427,5.78637 0.0167,0.61845 0.0385,1.23746 0.0262,1.85625 -2e-5,3.3e-4 -0.005,0.15457 -0.008,0.15372 -3.31723,-1.06015 -2.9721,-0.42441 -2.12614,-2.89542 0.80155,-2.15242 1.74266,-4.2259 2.90802,-6.18922 0.94807,-1.29833 1.8856,-2.50949 3.29341,-3.2619 1.86,-0.80924 3.23624,0.23183 4.18532,1.84538 1.04886,1.67967 1.21253,3.65379 1.35527,5.59837 0.2296,1.43087 0.62392,2.82315 0.88122,4.24774 0.0871,0.53662 0.0485,0.28552 0.11732,0.75305 0.31145,2.12414 -2.56909,2.58347 -2.88054,0.45933 l 0,0 c -0.0588,-0.4031 -0.0257,-0.18558 -0.1009,-0.65234 -0.27437,-1.534 -0.72531,-3.02886 -0.92288,-4.57926 -0.10424,-1.46658 -0.15042,-2.9818 -0.94257,-4.25357 -0.0905,-0.15907 -0.20793,-0.30455 -0.27155,-0.47721 -0.0199,-0.0541 0.37923,-0.36435 -0.18952,-0.18715 -0.94697,0.29581 -1.349,1.47502 -2.04844,2.10973 -1.06394,1.78354 -1.91269,3.67148 -2.64626,5.62751 -0.81621,2.27057 0.0208,2.1927 -3.5175,1.63471 0.008,-0.55528 -0.007,-1.11061 -0.0245,-1.66558 -0.0675,-1.73431 -0.17268,-3.47555 -0.53017,-5.17551 -0.28402,-1.19752 -0.72285,-2.38662 -0.93892,-3.58269 0.66013,-0.22541 -0.39112,-0.0649 -0.53601,0.2383 -1.15157,0.98187 -1.77869,2.57279 -2.46701,3.90264 -0.61954,1.78052 -0.92286,3.62693 -1.28609,5.47715 -0.30448,1.38384 -0.12438,3.53454 -2.15347,3.44992 -1.09421,-0.12322 -1.90715,-1.04442 -1.7857,-2.21563 0,-1.597 0,-3.19399 0,-4.79098 0,-2.03392 0,-4.06783 0,-6.10173 0,-2.14883 2.91402,-2.14883 2.91402,0 z"
       id="path4788"
       style="fill:#000000;fill-opacity:1;fill-rule:nonzero;stroke:none" />
    <path
       inkscape:connector-curvature="0"
       d="m 558.49296,449.12867 c 0,2.55507 0,5.11013 0,7.66519 0,0.37178 0,0.74356 0,1.11535 0,2.14882 -2.91402,2.14882 -2.91402,0 l 0,0 c 0,-0.37179 0,-0.74357 0,-1.11535 0,-2.55506 0,-5.11012 0,-7.66519 0,-2.14882 2.91402,-2.14882 2.91402,0 z"
       id="path4790"
       style="fill:#000000;fill-opacity:1;fill-rule:nonzero;stroke:none" />
    <path
       style="fill:#000000;fill-opacity:1;fill-rule:nonzero;stroke:none"
       id="path4792"
       d="m 498.27503,345.26809 c 0,2.03391 0,4.06781 0,6.10173 0,1.59699 0,3.19398 0,4.79098 0.0682,1.39289 -0.22655,-0.46625 -0.90595,-0.81441 -0.43028,-0.5527 -0.83319,0.52781 -1.14246,0.62855 -0.0685,0.0223 0.008,-0.14959 0.0124,-0.22432 0.0514,-0.79934 0.013,-0.3932 0.20769,-1.44051 0.37131,-1.99159 0.74871,-3.96257 1.39451,-5.88064 0.7975,-1.87813 1.81707,-3.68267 3.23738,-5.11755 1.40133,-1.17121 2.42502,-1.41928 4.0836,-0.56166 1.36038,1.41597 1.73845,3.51486 2.19349,5.40585 0.4111,1.89933 0.53774,3.84625 0.61426,5.78638 0.0167,0.61844 0.0385,1.23745 0.0262,1.85624 -10e-6,3.4e-4 -0.005,0.15458 -0.008,0.15372 -3.31722,-1.06015 -2.9721,-0.42441 -2.12614,-2.89542 0.80156,-2.15242 1.74267,-4.2259 2.90802,-6.18921 0.94807,-1.29834 1.8856,-2.50949 3.29341,-3.26191 1.86001,-0.80924 3.23624,0.23183 4.18532,1.84538 1.04886,1.67967 1.21253,3.65379 1.35527,5.59838 0.22961,1.43086 0.62393,2.82315 0.88122,4.24773 0.0871,0.53663 0.0485,0.28552 0.11733,0.75305 0.31145,2.12414 -2.5691,2.58347 -2.88054,0.45933 l 0,0 c -0.0588,-0.4031 -0.0257,-0.18557 -0.10091,-0.65234 -0.27436,-1.534 -0.7253,-3.02886 -0.92287,-4.57925 -0.10424,-1.46659 -0.15043,-2.9818 -0.94258,-4.25358 -0.0905,-0.15907 -0.20792,-0.30455 -0.27155,-0.47721 -0.0199,-0.0541 0.37924,-0.36435 -0.18951,-0.18715 -0.94697,0.29581 -1.34901,1.47502 -2.04845,2.10973 -1.06394,1.78355 -1.91268,3.67148 -2.64625,5.62751 -0.81622,2.27057 0.0208,2.1927 -3.5175,1.63471 0.008,-0.55528 -0.007,-1.11061 -0.0245,-1.66558 -0.0676,-1.7343 -0.17268,-3.47555 -0.53018,-5.1755 -0.28402,-1.19753 -0.72284,-2.38662 -0.93891,-3.5827 0.66013,-0.22541 -0.39112,-0.0648 -0.53602,0.2383 -1.15157,0.98187 -1.77868,2.57279 -2.46701,3.90264 -0.61953,1.78052 -0.92285,3.62693 -1.28608,5.47715 -0.30449,1.38385 -0.12439,3.53455 -2.15348,3.44992 -1.09421,-0.12322 -1.90714,-1.04442 -1.7857,-2.21563 0,-1.597 0,-3.19399 0,-4.79098 0,-2.03392 0,-4.06782 0,-6.10173 0,-2.14882 2.91403,-2.14882 2.91403,0 z"
       inkscape:connector-curvature="0" />
    <path
       style="fill:#000000;fill-opacity:1;fill-rule:nonzero;stroke:none"
       id="path4800"
       d="m 520.2416,352.18369 c 1.45333,-0.38183 2.89174,-0.80619 4.38436,-0.49192 1.3402,0.37659 1.77427,1.46044 1.8407,2.81808 -0.12669,1.83435 -0.81919,3.40579 -1.74882,4.93372 -0.93151,1.41824 -2.31866,2.3355 -3.52876,3.45323 -0.30955,0.30213 -0.62456,0.60147 -0.90212,0.93653 0.50848,-0.69547 -0.41231,0.27989 -0.31961,-2.23346 0.006,-0.16942 0.30672,0.11301 0.46268,0.16088 0.28131,0.0863 0.80576,0.21142 1.08521,0.28044 0.95015,0.20596 1.91793,0.28446 2.88509,0.3381 0.43581,0.0124 0.22017,0.008 0.64692,0.0146 2.06026,0.0345 2.01343,3.07304 -0.0468,3.03851 l 0,0 c -0.48768,-0.008 -0.23568,-0.002 -0.75596,-0.0186 -1.14153,-0.0642 -2.28338,-0.16415 -3.40314,-0.41614 -1.09385,-0.27207 -4.17853,-0.98584 -2.78362,-3.12146 0.3687,-0.45142 0.78675,-0.856 1.20345,-1.25815 1.01012,-0.92647 2.15462,-1.68795 2.99643,-2.80305 0.61448,-1.0092 1.11008,-1.97043 1.29774,-3.17486 -0.003,-0.12692 -0.0215,-0.25428 -0.0108,-0.38075 0.006,-0.0654 0.58956,0.65432 0.39424,0.38554 -0.84534,-0.42372 -2.10902,0.45253 -2.99041,0.48689 -1.99901,0.52117 -2.70576,-2.427 -0.70676,-2.94817 z"
       inkscape:connector-curvature="0" />
    <path
       style="fill:#000000;fill-opacity:1;fill-rule:nonzero;stroke:none"
       id="path4808"
       d="m 435.87723,374.0247 c 2.29293,-1.55974 3.49299,-4.19471 4.52646,-6.67364 1.51568,-4.83714 2.3983,-9.81621 2.9634,-14.84291 0.28781,-2.91744 0.43689,-5.84649 0.4692,-8.77739 -0.17315,-0.49858 -0.53683,-0.79468 -0.90703,-1.1438 -0.45983,-0.18671 -0.65554,-0.71614 -0.21951,-0.12519 0.0835,0.11314 -0.2414,0.14737 -0.34591,0.24144 -1.04675,0.59577 -1.03687,1.65633 -1.16856,2.74062 -0.24272,3.66806 -0.29647,7.35805 -0.0375,11.02497 0.65345,5.26232 2.61818,10.20982 5.04705,14.88214 0.64226,1.13603 3.99634,6.56542 5.74116,5.88456 2.94592,0.2429 2.60241,4.40907 -0.34352,4.16617 l 0,0 c -0.57392,-0.0918 -1.17041,-0.0914 -1.72178,-0.27527 -3.48046,-1.16056 -5.58132,-4.98007 -7.38823,-7.85367 -2.67602,-5.18895 -4.83381,-10.67545 -5.50526,-16.51891 -0.2616,-3.9447 -0.23437,-7.91375 0.0638,-11.8573 0.34327,-2.45999 1.04571,-4.6289 3.36405,-5.89155 1.87489,-0.87451 3.83405,-1.05411 5.39667,0.55434 1.22736,1.17618 2.0637,2.46327 2.20467,4.21836 -0.035,3.07182 -0.19079,6.14178 -0.49532,9.19929 -0.6144,5.42394 -1.56974,10.80426 -3.26865,16.00585 -1.46129,3.40027 -3.20792,6.82747 -6.50565,8.78087 -2.64386,1.32193 -4.51335,-2.41705 -1.86949,-3.73898 z"
       inkscape:connector-curvature="0" />
    <path
       style="fill:#000000;fill-opacity:1;fill-rule:nonzero;stroke:none"
       id="path4810"
       d="m 442.56888,381.10461 c 0.6534,3.74088 1.71221,7.38405 3.22992,10.86349 2.03601,4.3015 4.86588,6.85798 9.24608,8.57015 4.27635,1.28455 8.75798,1.43667 13.18862,1.53026 0.98508,0.0209 0.95555,1.41401 -0.0295,1.39313 l 0,0 c -4.59558,-0.0978 -9.24315,-0.26595 -13.67135,-1.62753 -4.72387,-1.88639 -7.81729,-4.65219 -10.01157,-9.31012 -1.55061,-3.57299 -2.64948,-7.3065 -3.31855,-11.1461 -0.19323,-0.96618 1.17314,-1.23945 1.36638,-0.27328 z"
       inkscape:connector-curvature="0" />
    <path
       style="fill:#000000;fill-opacity:1;fill-rule:nonzero;stroke:none"
       id="path4826"
       d="m 637.60708,205.27394 c 6.558,0.55585 13.16439,0.46151 19.74483,0.53349 4.82949,0.0468 9.65294,0.27348 14.47112,0.57191 2.16785,0.13438 1.96577,3.01758 -0.2021,2.88319 l 0,0 c -4.76277,-0.29551 -9.53079,-0.51947 -14.30478,-0.56584 -6.74093,-0.0738 -13.51122,0.0327 -20.22633,-0.57453 -2.14155,-0.34397 -1.62429,-3.19218 0.51726,-2.84822 z"
       inkscape:connector-curvature="0" />
    <path
       inkscape:connector-curvature="0"
       d="m 656.507,217.3101 c 4.00017,6.61188 6.92512,13.73955 10.17855,20.68934 7.33223,15.28809 14.40379,30.68537 21.84278,45.92803 0.90622,1.85691 -1.88619,3.06217 -2.7924,1.20525 l 0,0 c -7.44529,-15.25645 -14.52409,-30.6671 -21.8624,-45.96909 -3.18018,-6.79385 -6.04856,-13.75317 -9.91432,-20.23863 -1.21425,-1.69424 1.33354,-3.30915 2.54779,-1.6149 z"
       id="path4828"
       style="fill:#000000;fill-opacity:1;fill-rule:nonzero;stroke:none"
       inkscape:transform-center-x="12.348024"
       inkscape:transform-center-y="-31.587355" />
    <path
       style="fill:#000000;fill-opacity:1;fill-rule:nonzero;stroke:none"
       id="path4830"
       d="m 686.37604,281.05915 c 7.42543,3.01742 14.32207,7.05523 21.36726,10.76508 15.63802,8.0617 31.13769,16.35809 46.8319,24.32308 1.9119,0.97034 0.45273,3.51314 -1.45918,2.5428 l 0,0 c -15.70807,-7.97244 -31.22208,-16.27541 -46.87384,-24.34477 -6.88692,-3.62677 -13.63064,-7.56212 -20.86782,-10.55462 -2.05386,-0.66609 -1.05217,-3.39768 1.00168,-2.73157 z"
       inkscape:connector-curvature="0" />
    <path
       inkscape:connector-curvature="0"
       d="m 691.88571,286.6121 c -0.27559,0.36263 -0.59936,0.68679 -0.93077,1.00188 -0.65129,0.60133 -1.45357,0.89761 -2.34788,1.09543 -0.88031,0.1632 -1.80508,0.13111 -2.70628,-0.14102 -0.17952,-0.0542 -0.35328,-0.12965 -0.52991,-0.19448 -1.01852,-0.43726 -1.79233,-1.10167 -2.32821,-2.04915 -0.0853,-0.15079 -0.14591,-0.31125 -0.21889,-0.46686 -0.38191,-1.04088 -0.42505,-2.00817 -0.0823,-2.99965 0.0597,-0.17292 0.15151,-0.33172 0.22729,-0.49757 0.51369,-0.92741 1.35884,-1.63195 2.44065,-1.93254 0.21997,-0.0611 0.45012,-0.0945 0.67518,-0.14183 1.32208,-0.11718 2.26351,0.165 3.45348,0.8072 0.3612,0.23155 0.72468,0.45936 1.07711,0.70394 1.16157,0.82097 1.59445,1.91481 1.48779,3.1726 -0.005,0.042 -0.0181,0.16868 -0.0159,0.12611 0.027,-0.50359 -0.017,0.36838 -0.0211,0.43041 -0.0185,0.45893 -0.14097,0.89307 -0.29869,1.31113 -0.039,0.0884 -0.079,0.17619 -0.11697,0.26503 -0.0168,0.0393 0.0463,-0.16068 0.0536,-0.11656 0.009,0.0501 -0.0307,0.0928 -0.0502,0.13728 -0.15147,0.34764 -0.32952,0.64808 -0.55063,0.95372 -0.47123,0.64292 -1.17126,1.02131 -1.93701,1.29471 -0.61145,0.18601 -1.27681,0.25487 -1.94364,0.14894 -0.15851,-0.0251 -0.31589,-0.0628 -0.47384,-0.0941 -0.87376,-0.22869 -1.60305,-0.72194 -2.26556,-1.31969 -0.59098,-0.57345 -0.99928,-1.23212 -1.25492,-1.97703 -0.27776,-0.86338 -0.21476,-1.62851 0.0125,-2.44376 0.18091,-0.54043 0.45344,-1.03334 0.78565,-1.49089 0.27752,-0.35944 0.62228,-0.66162 0.9675,-0.95984 0.5067,-0.40912 1.10478,-0.71063 1.77784,-0.84151 0.14514,-0.0282 0.2951,-0.0395 0.44263,-0.0593 0.64396,-0.0734 1.29298,0.053 1.93101,0.23515 0.76887,0.24645 1.40216,0.73282 1.97958,1.27805 0.26109,0.25407 0.51236,0.51691 0.76387,0.77937 0.32425,0.3763 0.62859,0.77044 0.80017,1.22681 0.0924,0.24568 0.14635,0.49953 0.21071,0.75061 0.0397,0.15503 0.0498,0.62733 0.0516,0.65934 -0.004,0.87263 -0.3275,1.5332 -0.83911,2.18804 -0.33046,0.38833 -0.72625,0.71135 -1.14106,1.01498 -0.16203,0.12107 -0.3902,0.21355 -0.54609,0.32227 -0.47465,0.28367 -0.92072,0.43183 -1.48327,0.55559 -0.42155,0.10618 -0.86755,0.12995 -1.31233,0.13145 -0.55959,0.007 -1.101,-0.10004 -1.65269,-0.24213 -0.62891,-0.20769 -1.19474,-0.53604 -1.7271,-0.93012 -0.0743,-0.0609 -0.14946,-0.12068 -0.22276,-0.18261 -0.0513,-0.0429 0.10498,0.083 0.15598,0.12621 0.007,0.005 -0.0148,-0.008 -0.022,-0.0126 -0.0486,-0.0322 -0.0973,-0.0642 -0.14507,-0.0976 -0.20488,-0.14318 -0.20144,-0.14475 -0.40245,-0.30133 -0.29862,-0.24082 -0.57039,-0.50959 -0.83793,-0.78095 -0.36516,-0.34856 -0.65727,-0.75266 -0.89176,-1.18371 -0.28301,-0.54441 -0.39157,-1.11741 -0.42122,-1.69488 -0.0196,-0.62276 0.15151,-1.17476 0.39976,-1.7165 -0.009,0.0159 -0.0163,0.0326 -0.0259,0.048 -0.003,0.004 0.003,-0.01 0.005,-0.0148 0.0336,-0.0737 0.0648,-0.14869 0.10237,-0.22039 0.12462,-0.23806 0.26935,-0.44527 0.43195,-0.65784 0.1883,-0.22995 0.40769,-0.43302 0.63342,-0.62883 0.1242,-0.1063 0.24919,-0.21168 0.37368,-0.31765 0.0999,-0.0848 0.1997,-0.16975 0.29948,-0.25469 0.29209,-0.27234 0.63625,-0.48327 1.00253,-0.6621 0.12126,-0.0573 0.45017,-0.1958 0.79816,-0.29092 0.35871,-0.089 0.68822,-0.12873 1.12925,-0.15782 0.60688,-0.0417 1.2666,0.11604 1.70034,0.23964 0.26381,0.0737 0.56916,0.20856 0.91397,0.35663 0.51635,0.22328 0.97503,0.54634 1.39583,0.91398 0.3432,0.29737 0.627,0.63789 0.91017,0.98475 0.2413,0.33038 0.45404,0.72932 0.60182,1.0601 -0.0196,-0.0421 -0.0801,-0.16794 -0.0591,-0.12633 0.12848,0.25405 0.24266,0.50541 0.35352,0.76586 0.27153,0.58871 0.34508,1.21078 0.30703,1.81842 -0.03,0.56129 -0.23523,1.07059 -0.47612,1.5564 -0.25506,0.47924 -0.6327,0.87 -1.03284,1.23638 -0.50918,0.49334 -1.18057,0.77189 -1.87184,0.99241 -0.13587,0.0316 -0.27007,0.0684 -0.40765,0.095 -0.27104,0.0525 -0.54582,0.0749 -0.81983,0.11371 -0.0177,0.003 0.0363,-6.9e-4 0.0544,-10e-4 -4.01035,0.77006 -5.7484,-4.7588 -1.73805,-5.52887 l 0,0 c 0.22382,-0.0378 0.46275,-0.0837 0.69385,-0.10454 0.0242,-0.002 -0.11091,0.0369 -0.0638,0.029 -0.0854,0.053 0.0666,-0.0212 0.0534,-0.0111 -0.0541,0.0415 -0.11466,0.0752 -0.17196,0.11292 -0.0446,0.0384 -0.0886,0.0774 -0.13394,0.11513 -0.0269,0.0224 0.0522,-0.0463 0.0788,-0.0691 0.207,-0.18581 0.0556,-0.0456 0.005,0.0859 -0.0167,0.0407 -0.0622,0.16495 -0.0462,0.12387 0.0752,-0.19411 0.0304,-0.13901 -0.0226,0.13805 -0.0117,0.061 -0.0135,0.12405 -0.0215,0.18577 -0.003,0.0231 0.004,-0.0466 0.007,-0.0697 -0.003,0.25932 0.0464,0.4642 0.10564,0.73353 0.0117,0.0534 0.0485,0.10169 0.0632,0.15459 0.0109,0.0394 -0.0326,-0.0764 -0.0487,-0.11461 -0.0203,-0.049 -0.0916,-0.10849 -0.0609,-0.14708 0.0298,-0.0372 0.0484,0.0917 0.0671,0.13925 0.0161,0.0407 -0.0396,-0.0791 -0.0589,-0.1188 -0.0253,-0.0517 -0.0542,-0.10235 -0.0748,-0.15551 -0.0127,-0.0325 0.0338,0.0622 0.0506,0.0932 -0.0487,-0.0954 -0.0975,-0.1909 -0.14623,-0.28636 -0.16247,-0.36795 -0.056,-0.12147 -0.0257,-0.0675 0.0859,0.15293 0.21183,0.3461 0.0844,0.14873 -0.0203,-0.0313 -0.0451,-0.0608 -0.0608,-0.0941 -0.0109,-0.0222 0.0297,0.0402 0.0447,0.0602 0.54133,0.61851 0.10454,0.12401 0.056,0.0797 0.13007,0.0956 0.26351,0.18618 0.416,0.24243 -0.0286,-0.0125 -0.33488,-0.14544 -0.33166,-0.14893 0.0432,-0.0471 0.1315,0.0548 0.19822,0.0793 0.0351,0.013 0.14226,0.0443 0.10672,0.0328 -0.18543,-0.0602 -0.29153,-0.0888 -0.18495,-0.0596 0.33419,0.0821 -0.1826,-0.0444 -0.1571,-0.0424 0.13476,0.011 0.26748,0.0597 0.40205,0.0801 0.0761,0.0114 0.15429,-0.008 0.22868,0.0152 0.0391,0.0122 -0.84495,-0.0508 0.11713,-0.0145 -0.0872,0.004 -0.34313,0.044 -0.26061,0.0219 0.0956,-0.0257 0.19557,-0.0412 0.29651,-0.0481 0.003,-3.7e-4 -0.58381,0.11709 -5.9e-4,-0.009 -0.16914,0.0459 -0.44931,0.11887 0.32825,-0.14922 0.20195,-0.0696 -0.25127,0.11844 -0.34421,0.16256 0.3055,-0.16152 0.0486,-0.0163 0.48533,-0.32177 0.0219,-0.0151 -0.0401,0.0341 -0.0602,0.0513 -0.0356,0.0303 -0.0838,0.0715 -0.11993,0.10223 -0.0164,0.0139 -0.0329,0.028 -0.0493,0.042 -0.1028,0.0876 -0.2056,0.17516 -0.30864,0.2625 -0.1118,0.0948 -0.22356,0.18966 -0.33559,0.28424 -0.0371,0.032 -0.13401,0.12171 -0.0228,-0.003 0.0597,-0.0852 0.10216,-0.1559 0.14809,-0.25207 0.011,-0.0228 0.0389,-0.0937 0.0288,-0.0704 -0.11893,0.27622 0.0112,-0.01 -0.1555,0.34745 0.19417,-0.46531 0.11151,-0.27086 0.14725,-0.83524 -5e-4,0.0326 -0.0109,-0.0656 -0.0182,-0.0979 -0.0536,-0.22885 -0.11854,-0.43167 -0.24087,-0.64724 -0.11803,-0.19715 -0.24583,-0.32141 -0.40621,-0.52062 -0.17158,-0.21298 0.35177,0.40095 0.18699,0.19336 0.0755,0.0772 0.15999,0.15774 0.22988,0.23436 -0.14143,-0.0806 0.83936,0.54782 0.5337,0.38817 -0.0472,-0.0297 -0.0673,-0.0433 -0.1204,-0.0714 -0.0714,-0.0378 -0.14044,-0.0651 -0.10508,-0.048 0.16066,0.0779 0.27461,0.10816 -0.18988,-0.0557 -0.09,-0.0197 -0.17976,-0.0418 -0.27011,-0.0589 -0.0326,-0.007 -0.13091,-0.0148 -0.0981,-0.011 0.77891,0.10411 -0.28074,-0.0255 0.18052,0.0243 -0.30781,0.0592 0.12272,-0.015 0.13372,-0.0257 -0.49364,0.1328 0.70248,-0.19245 -0.34458,0.12793 -0.003,3.7e-4 0.82336,-0.35239 -0.1137,0.0895 0.15885,-0.10212 0.3355,-0.21446 0.50008,-0.29202 -0.34974,0.29164 0.0109,-0.0388 0.0912,-0.0873 0.004,-0.003 -0.003,0.009 -0.005,0.0124 -0.19425,0.28855 -0.32313,0.62164 -0.31269,0.98577 0.009,0.10135 0.0183,0.20265 0.0276,0.30398 1.7e-4,0.007 -0.003,-0.0249 -10e-4,-0.0188 0.16523,0.50811 0.24757,0.84887 0.64654,1.2418 -0.18386,-0.19177 -0.3672,-0.38403 -0.5554,-0.57205 -0.0176,-0.0177 -0.0731,-0.0665 -0.0512,-0.0542 0.23057,0.12427 0.44094,0.28671 0.70326,0.34099 0.16108,0.0393 0.31425,0.0791 0.60535,0.0491 0.31308,-0.0578 0.61162,-0.14473 0.82874,-0.36393 -0.0524,0.0452 -0.37133,0.3413 -0.26192,0.20904 0.15834,-0.27396 -0.14763,0.28706 -0.0109,-0.0234 0.0466,-0.28677 0.0119,-0.57225 -0.0943,-0.85895 0.009,0.0257 0.0389,0.10147 0.0259,0.0771 -0.16174,-0.30719 -0.23575,-0.5145 -0.51115,-0.73082 0.042,0.0457 -0.11118,-0.0578 -0.16762,-0.0848 -0.25971,-0.12378 -0.25342,-0.10421 -0.58333,-0.20041 -0.28785,-0.0421 -0.59166,-0.0591 -0.85301,0.0447 -0.21218,0.0926 -0.45768,0.24949 -0.59662,0.47198 -0.0577,0.10025 -0.0963,0.20073 -0.1399,0.30898 -0.01,0.0236 0.0174,-0.0478 0.0266,-0.0716 0.144,-0.37266 0.16575,-0.43922 0.11084,-0.27766 0.005,-0.0126 7.3e-4,-0.0372 0.0154,-0.0376 0.0138,-3.4e-4 -0.007,0.0248 -0.01,0.0375 -0.01,0.0464 -0.0189,0.0933 -0.0285,0.13988 -0.003,0.0168 0.0109,-0.068 0.01,-0.0505 -0.003,0.0617 -0.008,0.1233 -0.016,0.18411 -0.005,0.0392 0.005,-0.0795 0.008,-0.1192 0.0189,-0.27613 0.0403,-0.54473 0.0613,-0.821 -0.0277,0.62436 0.15009,1.35623 0.62121,1.87334 0.19593,0.215 0.43037,0.39584 0.64377,0.5955 0.009,0.009 -0.0211,-0.0146 -0.0313,-0.0221 -0.185,-0.12965 -0.41716,-0.2688 -0.56641,-0.3809 0.24753,0.0848 0.52418,0.0454 0.76393,0.004 0.32092,-0.11052 0.61969,-0.31881 0.72969,-0.63964 0.0893,-0.34633 0.0989,-0.65807 -0.0817,-1.00096 -0.24592,-0.41514 -0.60898,-0.81948 -1.08809,-0.98711 -0.18143,-0.0459 -0.30236,-0.0584 -0.4745,-0.035 -0.009,0.001 0.12702,-6.9e-4 0.0178,0.0215 0.21605,-0.0435 0.15161,-0.0316 -0.0338,0.0672 -0.0153,0.009 0.0607,-0.0331 0.0485,-0.0211 -0.0385,0.0376 -0.086,0.0659 -0.12879,0.0991 -0.024,0.0242 -0.048,0.0484 -0.0717,0.0729 0.13357,-0.12573 0.2673,-0.25214 0.38546,-0.3915 2.31715,-3.07776 7.26166,0.50121 4.94452,3.57897 z"
       id="path4832"
       style="fill:#000000;fill-opacity:1;fill-rule:nonzero;stroke:none" />
    <path
       style="fill:#000000;fill-opacity:1;fill-rule:nonzero;stroke:none"
       id="path4834"
       d="m 649.62645,212.89666 c 0.27951,-0.35997 0.60677,-0.68101 0.94159,-0.9929 0.65779,-0.59504 1.46321,-0.88362 2.35962,-1.07286 0.88205,-0.15475 1.80643,-0.1138 2.70461,0.16697 0.17893,0.0559 0.35185,0.13303 0.52779,0.19955 1.01372,0.44699 1.78029,1.1188 2.30586,2.07136 0.0837,0.1516 0.14253,0.31263 0.21381,0.46894 0.37061,1.04448 0.40327,2.01214 0.0498,3.0003 -0.0617,0.17232 -0.1551,0.33023 -0.23265,0.49534 -0.52374,0.92244 -1.37648,1.61886 -2.46149,1.90904 -0.22062,0.0591 -0.45112,0.0903 -0.67668,0.13536 -1.32329,0.10454 -2.26161,-0.1867 -3.44454,-0.84028 -0.35868,-0.23501 -0.71967,-0.4663 -1.06944,-0.71422 -1.1526,-0.83209 -1.57359,-1.93003 -1.45331,-3.18673 0.005,-0.0419 0.0199,-0.16849 0.0172,-0.12594 -0.0326,0.5033 0.0211,-0.3682 0.0257,-0.43019 0.0234,-0.45872 0.15064,-0.89167 0.31289,-1.30819 0.0399,-0.088 0.081,-0.17543 0.11984,-0.2639 0.0173,-0.0392 -0.0481,0.16022 -0.0548,0.11605 -0.008,-0.0502 0.0317,-0.0925 0.0517,-0.1368 0.15522,-0.34617 0.33653,-0.64489 0.56093,-0.94837 0.47819,-0.63838 1.18241,-1.00992 1.95097,-1.27608 0.61342,-0.18013 1.2795,-0.24262 1.94514,-0.13029 0.15823,0.0267 0.3152,0.0658 0.4728,0.0987 0.87124,0.23705 1.59515,0.73728 2.25113,1.34134 0.58472,0.57911 0.98586,1.24164 1.23342,1.98897 0.26838,0.866 0.19709,1.63048 -0.039,2.44351 -0.18677,0.53867 -0.46462,1.02894 -0.80178,1.48328 -0.2814,0.35675 -0.62942,0.65563 -0.97787,0.95052 -0.51111,0.40421 -1.11242,0.69999 -1.78687,0.82442 -0.14543,0.0268 -0.29549,0.0367 -0.44324,0.0551 -0.64472,0.0673 -1.29233,-0.0653 -1.92836,-0.25365 -0.76615,-0.25381 -1.39414,-0.74622 -1.96561,-1.29696 -0.25833,-0.25658 -0.50685,-0.5217 -0.75534,-0.78668 -0.32018,-0.37938 -0.62021,-0.77644 -0.78682,-1.23443 -0.0897,-0.24656 -0.14094,-0.50091 -0.20256,-0.7526 -0.0381,-0.15541 -0.043,-0.62777 -0.0444,-0.65981 0.0137,-0.87253 0.3441,-1.52997 0.86279,-2.17987 0.33466,-0.38513 0.73393,-0.70435 1.15202,-1.00398 0.16336,-0.11949 0.39248,-0.20979 0.54955,-0.31701 0.47771,-0.2791 0.92535,-0.42298 1.4892,-0.54133 0.42269,-0.10213 0.86893,-0.12164 1.31369,-0.11886 0.55964,-10e-4 1.09986,0.11055 1.64999,0.25795 0.62663,0.21371 1.18887,0.54748 1.71693,0.94665 0.0736,0.0616 0.14815,0.12208 0.22075,0.18475 0.0508,0.0434 -0.104,-0.0841 -0.15463,-0.12768 -0.007,-0.006 0.0149,0.008 0.0222,0.0126 0.0483,0.0326 0.0965,0.0652 0.14402,0.0989 0.20331,0.14515 0.19984,0.1467 0.39916,0.30517 0.296,0.24367 0.56484,0.51504 0.82944,0.78892 0.36137,0.35203 0.64905,0.75894 0.87888,1.1922 0.27709,0.54711 0.37943,1.12112 0.40283,1.69883 0.0128,0.62293 -0.16424,1.17326 -0.41836,1.71258 0.009,-0.0159 0.0166,-0.0325 0.0264,-0.0479 0.003,-0.004 -0.003,0.01 -0.005,0.0148 -0.0344,0.0734 -0.0664,0.14805 -0.10477,0.21938 -0.12719,0.23686 -0.27416,0.44267 -0.43906,0.65367 -0.19078,0.22815 -0.41236,0.42909 -0.64023,0.6227 -0.12538,0.10498 -0.25123,0.20953 -0.37711,0.31404 -0.10064,0.084 -0.20139,0.16797 -0.30209,0.25195 -0.29503,0.26954 -0.64143,0.47717 -1.00966,0.65246 -0.12186,0.0561 -0.45227,0.19148 -0.80127,0.28325 -0.35965,0.0855 -0.68957,0.12212 -1.1309,0.14699 -0.6073,0.0359 -1.26528,-0.12818 -1.69765,-0.25594 -0.263,-0.0763 -0.56686,-0.21401 -0.91005,-0.36538 -0.51392,-0.22822 -0.96906,-0.55566 -1.38585,-0.92731 -0.33994,-0.30067 -0.62006,-0.64388 -0.89948,-0.99342 -0.23767,-0.3327 -0.4461,-0.73364 -0.59029,-1.06582 0.0192,0.0423 0.0783,0.16873 0.0576,0.12689 -0.12573,-0.25526 -0.23717,-0.50771 -0.34521,-0.76921 -0.26513,-0.59128 -0.33192,-1.21403 -0.28729,-1.82126 0.0361,-0.56098 0.24683,-1.06829 0.49298,-1.55176 0.26023,-0.47678 0.64209,-0.8639 1.04618,-1.22641 0.5145,-0.48845 1.18888,-0.76054 1.88251,-0.97441 0.1362,-0.0304 0.27081,-0.0658 0.40866,-0.0911 0.27159,-0.0499 0.54659,-0.0697 0.82101,-0.10586 0.0178,-0.002 -0.0363,3.8e-4 -0.0544,5.7e-4 4.01848,-0.73158 5.69648,4.81367 1.678,5.54523 l 0,0 c -0.22421,0.0357 -0.46363,0.0792 -0.69494,0.0979 -0.0242,0.002 0.1113,-0.0358 0.0641,-0.0284 0.086,-0.0524 -0.0668,0.0205 -0.0536,0.011 0.0545,-0.041 0.11546,-0.0742 0.17318,-0.11126 0.045,-0.038 0.0895,-0.0765 0.13542,-0.11359 0.0271,-0.0222 -0.0526,0.0459 -0.0796,0.0683 -0.20902,0.1838 -0.0561,0.045 -0.003,-0.086 0.0171,-0.0405 0.064,-0.16434 0.0477,-0.12341 -0.0774,0.19337 -0.0319,0.13872 0.0241,-0.13783 0.0124,-0.0608 0.0148,-0.12391 0.0236,-0.18556 0.003,-0.0231 -0.004,0.0464 -0.008,0.0697 0.007,-0.25926 -0.0413,-0.46461 -0.0977,-0.73449 -0.0112,-0.0535 -0.0474,-0.10213 -0.0615,-0.15521 -0.0109,-0.0395 0.0317,0.0767 0.0476,0.11507 0.0198,0.0492 0.0904,0.10937 0.0593,0.14767 -0.0302,0.0369 -0.0474,-0.0921 -0.0656,-0.13987 -0.0155,-0.041 0.0389,0.0795 0.0578,0.11935 0.0246,0.0519 0.0531,0.10289 0.0732,0.15622 0.0123,0.0326 -0.0331,-0.0625 -0.0496,-0.0937 0.0477,0.0959 0.0954,0.19181 0.14314,0.28773 0.15845,0.36949 0.0547,0.12199 0.025,0.0679 -0.0842,-0.15376 -0.20805,-0.34811 -0.0827,-0.14953 0.02,0.0315 0.0443,0.0613 0.0597,0.0947 0.01,0.0223 -0.0292,-0.0405 -0.0441,-0.0605 -0.53461,-0.62365 -0.10325,-0.12497 -0.0553,-0.0803 -0.12899,-0.0969 -0.26146,-0.18871 -0.41334,-0.24642 0.0284,0.0127 0.33329,0.14863 0.33003,0.15211 -0.0438,0.0467 -0.13092,-0.0561 -0.19736,-0.0813 -0.035,-0.0133 -0.14178,-0.0456 -0.10639,-0.0338 0.18476,0.0619 0.29055,0.0917 0.18429,0.0614 -0.33328,-0.0853 0.18211,0.0461 0.15664,0.0439 -0.13465,-0.0119 -0.26682,-0.0623 -0.40117,-0.0839 -0.0761,-0.0122 -0.15437,0.007 -0.2285,-0.0172 -0.0391,-0.0126 0.84434,0.059 -0.11725,0.0134 0.0872,-0.004 0.34357,-0.0407 0.26083,-0.0194 -0.0959,0.0247 -0.19601,0.0393 -0.29702,0.0452 -0.003,3.6e-4 0.58505,-0.11151 5.9e-4,0.009 0.16963,-0.0443 0.45058,-0.11454 -0.32986,0.14605 -0.20269,0.0677 0.25254,-0.11601 0.34596,-0.15924 -0.30723,0.15859 -0.0488,0.0157 -0.48879,0.31711 -0.0219,0.015 0.0404,-0.0338 0.0607,-0.0508 0.0358,-0.03 0.0848,-0.0704 0.12091,-0.10124 0.0165,-0.0138 0.0331,-0.0277 0.0497,-0.0415 0.10379,-0.0865 0.20751,-0.17317 0.31125,-0.25976 0.11301,-0.0936 0.22552,-0.1876 0.33852,-0.28114 0.0376,-0.0316 0.13554,-0.12021 0.0229,0.003 -0.0607,0.0847 -0.10379,0.15493 -0.15082,0.25065 -0.0111,0.0227 -0.0397,0.0933 -0.0295,0.0702 0.12192,-0.27507 -0.0113,0.01 0.15927,-0.34594 -0.19922,0.46343 -0.11444,0.26977 -0.1563,0.83378 7.4e-4,-0.0326 0.01,0.0657 0.0172,0.0982 0.0511,0.22936 0.11385,0.43279 0.23383,0.64951 0.11586,0.19832 0.24235,0.32376 0.40055,0.52449 0.16928,0.21461 -0.34744,-0.40427 -0.185,-0.19502 -0.0746,-0.078 -0.15841,-0.15917 -0.22734,-0.23656 0.14055,0.0819 -0.83338,-0.55583 -0.52946,-0.39327 0.0469,0.0301 0.0669,0.0439 0.11961,0.0725 0.071,0.0384 0.13976,0.0664 0.10465,0.049 -0.15978,-0.0794 -0.27343,-0.1108 0.18925,0.0575 0.0899,0.0204 0.1793,0.0435 0.26946,0.0614 0.0325,0.007 0.13074,0.0161 0.098,0.0114 -0.77774,-0.11152 0.28046,0.0282 -0.18024,-0.026 0.30842,-0.0562 -0.12288,0.0138 -0.13399,0.0244 0.49506,-0.12808 -0.70452,0.18569 0.34596,-0.12463 0.003,-3.7e-4 -0.82716,0.34448 0.11462,-0.0884 -0.15993,0.10059 -0.33782,0.21122 -0.5032,0.28721 0.35289,-0.28825 -0.0109,0.0387 -0.0924,0.0862 -0.004,0.003 0.003,-0.009 0.005,-0.0125 0.19735,-0.28669 0.32986,-0.61852 0.32336,-0.98273 -0.008,-0.10146 -0.0162,-0.20281 -0.0243,-0.30422 -1.9e-4,-0.007 0.003,0.025 10e-4,0.0188 -0.15971,-0.50967 -0.23836,-0.85121 -0.63305,-1.24795 0.18167,0.19361 0.36304,0.38753 0.5494,0.57715 0.0174,0.0178 0.0725,0.0671 0.0508,0.0548 -0.22922,-0.12649 -0.4378,-0.29094 -0.69954,-0.34774 -0.16062,-0.0409 -0.31336,-0.0821 -0.60477,-0.0549 -0.31369,0.0548 -0.61316,0.13887 -0.83265,0.35597 0.0529,-0.0447 0.37502,-0.33773 0.26421,-0.2065 -0.16132,0.27242 0.15071,-0.28563 0.0109,0.0234 -0.0496,0.28632 -0.0182,0.5721 0.085,0.8598 -0.009,-0.0258 -0.0377,-0.10191 -0.0251,-0.0773 0.15839,0.30873 0.23015,0.51674 0.5032,0.73569 -0.0416,-0.0461 0.11052,0.0589 0.16669,0.0864 0.25834,0.12626 0.25227,0.10662 0.58111,0.20598 0.28738,0.0448 0.591,0.0648 0.85345,-0.0365 0.21318,-0.0905 0.46037,-0.24507 0.60171,-0.46623 0.0587,-0.0997 0.0985,-0.19981 0.14324,-0.30764 0.01,-0.0235 -0.018,0.0477 -0.0274,0.0713 -0.14803,0.37124 -0.17051,0.4376 -0.11384,0.27657 -0.005,0.0126 -10e-4,0.0372 -0.0159,0.0374 -0.0138,2.6e-4 0.008,-0.0248 0.01,-0.0373 0.0109,-0.0463 0.02,-0.0931 0.03,-0.13961 0.003,-0.0168 -0.0115,0.0679 -0.0108,0.0505 0.003,-0.0617 0.009,-0.12322 0.0179,-0.18395 0.005,-0.0392 -0.005,0.0794 -0.009,0.11913 -0.0218,0.27593 -0.0463,0.5443 -0.0702,0.82035 0.0344,-0.62405 -0.13539,-1.35759 -0.60088,-1.87919 -0.19358,-0.21687 -0.42609,-0.39991 -0.63728,-0.60163 -0.009,-0.009 0.0211,0.0146 0.0307,0.0226 0.1836,0.1314 0.41422,0.27279 0.56224,0.38631 -0.24658,-0.0872 -0.52365,-0.0504 -0.76383,-0.0124 -0.32211,0.1074 -0.62312,0.31287 -0.73658,0.63263 -0.0932,0.34547 -0.10607,0.65709 0.0709,1.0017 0.24141,0.41747 0.60007,0.82528 1.07733,0.9975 0.18093,0.0477 0.30171,0.0613 0.47409,0.0396 0.009,-0.001 -0.12703,-4.3e-4 -0.0178,-0.0215 -0.21651,0.0414 -0.15195,0.0301 0.0344,-0.0669 0.0153,-0.009 -0.0611,0.0324 -0.0487,0.0206 0.0391,-0.037 0.087,-0.0648 0.12987,-0.0978 0.024,-0.0242 0.0486,-0.0479 0.0724,-0.0723 -0.13491,0.12443 -0.26999,0.24959 -0.38965,0.38781 -2.35041,3.05536 -7.25586,-0.57084 -4.90546,-3.62621 z"
       inkscape:connector-curvature="0"
       inkscape:transform-center-x="29.235893"
       inkscape:transform-center-y="-67.794716" />
    <path
       inkscape:connector-curvature="0"
       d="m 758.31732,319.67684 c -0.27558,0.36264 -0.59936,0.6868 -0.93077,1.00188 -0.65128,0.60134 -1.45356,0.89761 -2.34788,1.09544 -0.88031,0.16319 -1.80507,0.1311 -2.70626,-0.14103 -0.17953,-0.0541 -0.35329,-0.12965 -0.52993,-0.19448 -1.01851,-0.43726 -1.79232,-1.10166 -2.3282,-2.04914 -0.0853,-0.1508 -0.14591,-0.31125 -0.21888,-0.46688 -0.38192,-1.04086 -0.42506,-2.00815 -0.0823,-2.99964 0.0597,-0.17291 0.15151,-0.33171 0.22727,-0.49756 0.5137,-0.92742 1.35885,-1.63196 2.44066,-1.93254 0.21996,-0.0612 0.45012,-0.0945 0.67519,-0.14184 1.32208,-0.11718 2.2635,0.16501 3.45346,0.8072 0.36121,0.23155 0.72468,0.45937 1.07713,0.70394 1.16156,0.82097 1.59443,1.91482 1.48778,3.17261 -0.005,0.042 -0.0181,0.16867 -0.0157,0.1261 0.0271,-0.50358 -0.0171,0.36839 -0.0211,0.43042 -0.0185,0.45893 -0.14096,0.89306 -0.29867,1.31113 -0.039,0.0884 -0.079,0.17618 -0.11698,0.26503 -0.0168,0.0393 0.0464,-0.16068 0.0536,-0.11656 0.009,0.0501 -0.0308,0.0928 -0.0502,0.13728 -0.15145,0.34764 -0.32952,0.64808 -0.55062,0.95371 -0.47124,0.64292 -1.17127,1.02131 -1.93702,1.29471 -0.61145,0.18601 -1.27681,0.25488 -1.94364,0.14895 -0.15851,-0.0253 -0.31589,-0.0628 -0.47384,-0.0941 -0.87376,-0.2287 -1.60305,-0.72195 -2.26556,-1.31969 -0.59097,-0.57345 -0.99928,-1.23212 -1.25491,-1.97704 -0.27776,-0.86337 -0.21477,-1.62851 0.0125,-2.44375 0.18092,-0.54044 0.45345,-1.03335 0.78566,-1.49089 0.27751,-0.35944 0.62228,-0.66163 0.96751,-0.95985 0.50668,-0.40911 1.10477,-0.71062 1.77784,-0.84151 0.14513,-0.0282 0.29507,-0.0395 0.44262,-0.0593 0.64396,-0.0735 1.29297,0.053 1.93101,0.23516 0.76886,0.24644 1.40215,0.73281 1.97957,1.27804 0.26109,0.25408 0.51236,0.51691 0.76388,0.77937 0.32424,0.3763 0.62859,0.77045 0.80016,1.22681 0.0924,0.24567 0.14635,0.49954 0.2107,0.75062 0.0397,0.15503 0.0498,0.62733 0.0516,0.65934 -0.004,0.87262 -0.32749,1.53319 -0.83911,2.18803 -0.33046,0.38833 -0.72627,0.71135 -1.14107,1.01499 -0.16203,0.12106 -0.3902,0.21354 -0.54608,0.32225 -0.47466,0.28368 -0.92072,0.43184 -1.48327,0.55561 -0.42155,0.10608 -0.86755,0.12995 -1.31233,0.13145 -0.55959,0.007 -1.101,-0.10004 -1.65269,-0.24213 -0.62892,-0.20769 -1.19475,-0.53605 -1.7271,-0.93012 -0.0743,-0.0609 -0.14948,-0.12068 -0.22277,-0.18262 -0.0514,-0.0429 0.10498,0.083 0.15598,0.12621 0.007,0.005 -0.0148,-0.008 -0.022,-0.0126 -0.0486,-0.0322 -0.0973,-0.0642 -0.14507,-0.0976 -0.20489,-0.14318 -0.20144,-0.14475 -0.40246,-0.30132 -0.2986,-0.24083 -0.57039,-0.5096 -0.83791,-0.78095 -0.36516,-0.34856 -0.65727,-0.75266 -0.89177,-1.18372 -0.283,-0.5444 -0.39157,-1.11741 -0.42122,-1.69488 -0.0197,-0.62276 0.15151,-1.17477 0.39976,-1.71649 -0.009,0.0159 -0.0163,0.0326 -0.0259,0.0481 -0.003,0.004 0.003,-0.01 0.005,-0.0148 0.0336,-0.0737 0.0648,-0.14869 0.10237,-0.22039 0.12462,-0.23806 0.26936,-0.44527 0.43196,-0.65784 0.18831,-0.22995 0.40769,-0.43302 0.63341,-0.62883 0.12421,-0.1063 0.24919,-0.21168 0.37369,-0.31764 0.0999,-0.0848 0.1997,-0.16976 0.29948,-0.2547 0.2921,-0.27234 0.63625,-0.48327 1.00253,-0.6621 0.12126,-0.0573 0.45017,-0.19581 0.79816,-0.29092 0.35872,-0.0889 0.68821,-0.12873 1.12925,-0.15783 0.60688,-0.0416 1.26659,0.11605 1.70034,0.23965 0.2638,0.0737 0.56915,0.20856 0.91397,0.35664 0.51635,0.22328 0.97502,0.54633 1.39582,0.91396 0.34321,0.29738 0.62702,0.6379 0.91018,0.98477 0.2413,0.33038 0.45404,0.72932 0.60182,1.0601 -0.0196,-0.0421 -0.0801,-0.16795 -0.0591,-0.12634 0.12849,0.25405 0.24266,0.50539 0.35353,0.76586 0.27152,0.58871 0.34508,1.21078 0.30702,1.81841 -0.03,0.5613 -0.23523,1.07061 -0.47611,1.55641 -0.25507,0.47925 -0.6327,0.87001 -1.03284,1.23638 -0.50919,0.49334 -1.18057,0.77189 -1.87185,0.99241 -0.13586,0.0316 -0.27007,0.0684 -0.40765,0.095 -0.27104,0.0525 -0.5458,0.0749 -0.81983,0.11371 -0.0177,0.003 0.0363,-6.9e-4 0.0544,-0.001 -4.01034,0.77006 -5.74838,-4.75879 -1.73804,-5.52887 l 0,0 c 0.22381,-0.0378 0.46274,-0.0837 0.69384,-0.10465 0.0242,-0.002 -0.1109,0.0369 -0.0638,0.029 -0.0854,0.053 0.0666,-0.0212 0.0534,-0.0111 -0.0541,0.0415 -0.11466,0.0752 -0.17196,0.11292 -0.0446,0.0384 -0.0886,0.0774 -0.13394,0.11513 -0.0269,0.0224 0.0522,-0.0463 0.0788,-0.0691 0.20701,-0.18581 0.0556,-0.0456 0.005,0.0859 -0.0167,0.0406 -0.0622,0.16495 -0.0464,0.12387 0.0752,-0.1941 0.0304,-0.13902 -0.0226,0.13805 -0.0117,0.0608 -0.0135,0.12405 -0.0215,0.18577 -0.003,0.0231 0.004,-0.0466 0.007,-0.0697 -0.003,0.25932 0.0464,0.4642 0.10563,0.73353 0.0117,0.0534 0.0485,0.10169 0.0632,0.15459 0.0109,0.0394 -0.0326,-0.0764 -0.0489,-0.11461 -0.0203,-0.049 -0.0916,-0.10849 -0.0609,-0.14707 0.0297,-0.0372 0.0484,0.0917 0.0671,0.13924 0.0161,0.0407 -0.0396,-0.0791 -0.0589,-0.1188 -0.0253,-0.0517 -0.0542,-0.10234 -0.0748,-0.1555 -0.0126,-0.0326 0.0339,0.0621 0.0506,0.0932 -0.0488,-0.0954 -0.0975,-0.1909 -0.14623,-0.28636 -0.16247,-0.36795 -0.056,-0.12147 -0.0257,-0.0675 0.0859,0.15292 0.21181,0.34609 0.0843,0.14874 -0.0203,-0.0313 -0.045,-0.0608 -0.0607,-0.0941 -0.0109,-0.0222 0.0297,0.0401 0.0447,0.0602 0.54135,0.61851 0.10455,0.124 0.0561,0.0797 0.13006,0.0956 0.2635,0.18618 0.41599,0.24243 -0.0285,-0.0124 -0.33488,-0.14543 -0.33166,-0.14893 0.0432,-0.0471 0.1315,0.0548 0.19822,0.0793 0.0351,0.013 0.14225,0.0443 0.10672,0.0328 -0.18542,-0.0602 -0.29151,-0.0888 -0.18494,-0.0596 0.33419,0.0821 -0.1826,-0.0444 -0.15711,-0.0424 0.13477,0.011 0.26749,0.0597 0.40205,0.0801 0.0762,0.0114 0.15431,-0.008 0.22869,0.0152 0.0391,0.0122 -0.84493,-0.0508 0.11713,-0.0145 -0.0872,0.004 -0.34312,0.044 -0.26062,0.0219 0.0956,-0.0256 0.19557,-0.0411 0.29651,-0.0481 0.003,-3.6e-4 -0.5838,0.1171 -5.7e-4,-0.009 -0.16914,0.0459 -0.44932,0.11886 0.32825,-0.14922 0.20194,-0.0696 -0.25127,0.11844 -0.34421,0.16256 0.30549,-0.16154 0.0486,-0.0163 0.48532,-0.32178 0.022,-0.0151 -0.0401,0.0341 -0.0602,0.0513 -0.0356,0.0303 -0.0838,0.0715 -0.11993,0.10223 -0.0164,0.0139 -0.0329,0.028 -0.0493,0.042 -0.10281,0.0876 -0.20562,0.17516 -0.30865,0.26251 -0.1118,0.0948 -0.22356,0.18966 -0.33559,0.28423 -0.0372,0.032 -0.13401,0.12172 -0.0229,-0.003 0.0598,-0.0852 0.10215,-0.15591 0.14809,-0.25207 0.011,-0.0228 0.0389,-0.0937 0.0288,-0.0704 -0.11894,0.27623 0.0112,-0.01 -0.1555,0.34745 0.19418,-0.46533 0.11152,-0.27086 0.14724,-0.83523 -4.9e-4,0.0325 -0.0109,-0.0656 -0.0182,-0.0979 -0.0536,-0.22885 -0.11854,-0.43167 -0.24087,-0.64724 -0.11803,-0.19717 -0.24584,-0.32141 -0.40622,-0.52062 -0.17158,-0.21298 0.35178,0.40096 0.18699,0.19336 0.0754,0.0772 0.16,0.15775 0.22989,0.23436 -0.14143,-0.0805 0.83935,0.54782 0.53369,0.38818 -0.0472,-0.0296 -0.0673,-0.0433 -0.12038,-0.0714 -0.0714,-0.0378 -0.14046,-0.0651 -0.10509,-0.0481 0.16066,0.0779 0.27461,0.10816 -0.18988,-0.0557 -0.09,-0.0197 -0.17976,-0.0418 -0.27011,-0.0589 -0.0326,-0.007 -0.1309,-0.0148 -0.0981,-0.011 0.77892,0.1041 -0.28074,-0.0255 0.18051,0.0243 -0.30779,0.0592 0.12275,-0.015 0.13373,-0.0257 -0.49363,0.1328 0.70248,-0.19245 -0.34458,0.12793 -0.003,3.7e-4 0.82338,-0.35239 -0.11368,0.0895 0.15884,-0.10212 0.33549,-0.21448 0.50005,-0.29202 -0.34973,0.29163 0.0109,-0.0388 0.0913,-0.0873 0.004,-0.003 -0.003,0.009 -0.005,0.0124 -0.19424,0.28855 -0.32312,0.62163 -0.31269,0.98577 0.009,0.10136 0.0183,0.20265 0.0276,0.30397 2e-4,0.007 -0.003,-0.0249 -0.001,-0.0188 0.16522,0.50811 0.24756,0.84887 0.64653,1.24181 -0.18385,-0.19177 -0.36721,-0.38404 -0.55539,-0.57206 -0.0176,-0.0177 -0.0731,-0.0665 -0.0512,-0.0542 0.23058,0.12427 0.44094,0.28671 0.70326,0.34099 0.16108,0.0393 0.31426,0.0791 0.60535,0.0491 0.31308,-0.0578 0.61162,-0.14473 0.82874,-0.36393 -0.0524,0.0453 -0.37133,0.3413 -0.26193,0.20903 0.15835,-0.27395 -0.14761,0.28707 -0.0109,-0.0234 0.0466,-0.28678 0.0119,-0.57225 -0.0943,-0.85895 0.009,0.0257 0.0388,0.10147 0.0259,0.0771 -0.16173,-0.30721 -0.23575,-0.51452 -0.51115,-0.73083 0.042,0.0457 -0.11118,-0.0578 -0.16763,-0.0848 -0.25969,-0.12378 -0.25341,-0.10432 -0.58332,-0.20041 -0.28784,-0.0421 -0.59166,-0.0591 -0.85301,0.0447 -0.21219,0.0926 -0.45768,0.2495 -0.59663,0.47199 -0.0576,0.10025 -0.0963,0.20074 -0.13989,0.30898 -0.01,0.0236 0.0174,-0.0478 0.0266,-0.0715 0.144,-0.37266 0.16576,-0.43923 0.11085,-0.27766 0.005,-0.0126 7.2e-4,-0.0372 0.0154,-0.0377 0.0138,-3.4e-4 -0.007,0.0248 -0.01,0.0375 -0.01,0.0464 -0.0189,0.0933 -0.0285,0.13989 -0.003,0.0168 0.0109,-0.068 0.01,-0.0505 -0.003,0.0617 -0.008,0.12329 -0.016,0.1841 -0.005,0.0392 0.005,-0.0795 0.008,-0.1192 0.0189,-0.27613 0.0403,-0.54472 0.0613,-0.82099 -0.0277,0.62435 0.15009,1.35622 0.62122,1.87333 0.19592,0.215 0.43037,0.39584 0.64376,0.5955 0.009,0.009 -0.0211,-0.0146 -0.0313,-0.0221 -0.185,-0.12965 -0.41716,-0.2688 -0.5664,-0.3809 0.24752,0.0849 0.52417,0.0453 0.76392,0.004 0.32092,-0.11052 0.61969,-0.31883 0.72969,-0.63963 0.0894,-0.34634 0.0989,-0.65808 -0.0817,-1.00096 -0.24592,-0.41515 -0.60898,-0.8195 -1.08808,-0.98712 -0.18144,-0.0459 -0.30237,-0.0584 -0.47451,-0.035 -0.009,10e-4 0.12703,-6.9e-4 0.0178,0.0215 0.21605,-0.0435 0.15161,-0.0316 -0.0338,0.0672 -0.0153,0.009 0.0607,-0.0331 0.0485,-0.0211 -0.0385,0.0376 -0.086,0.0659 -0.12878,0.099 -0.024,0.0242 -0.048,0.0484 -0.0717,0.0729 0.13356,-0.12572 0.2673,-0.25214 0.38545,-0.39149 2.31715,-3.07776 7.26166,0.50121 4.94452,3.57897 z"
       id="path4836"
       style="fill:#000000;fill-opacity:1;fill-rule:nonzero;stroke:none" />
    <path
       style="fill:#000000;fill-opacity:1;fill-rule:nonzero;stroke:none"
       id="path4900"
       d="m 645.0231,206.89178 c 0.69299,2.59608 0.86938,5.28462 1.06636,7.94575 0.23807,3.20465 1.17667,5.36233 3.71095,7.49573 3.14062,1.72722 5.42152,1.62694 8.64844,0.30172 2.77685,-1.65731 3.83159,-4.56112 4.527,-7.4347 0.12563,-1.82012 0.97044,-3.90587 0.30106,-5.70318 -0.20779,-0.54042 -0.1026,-0.28104 -0.31359,-0.77882 -0.79976,-1.89969 2.05694,-2.96336 2.8567,-1.06369 l 0,0 c 0.2678,0.6394 0.1325,0.30027 0.40184,1.01877 0.68741,2.35536 0.12273,4.8142 -0.25354,7.18196 -0.95834,3.80097 -2.53109,7.41711 -6.32142,9.44038 -4.4659,1.73579 -7.77362,1.69671 -11.92387,-0.83356 -3.18074,-2.79689 -4.3515,-5.3405 -4.69863,-9.42436 -0.18178,-2.46586 -0.3369,-4.95826 -0.96015,-7.36752 -0.58533,-1.9676 2.3735,-2.74609 2.95885,-0.77848 z"
       inkscape:connector-curvature="0"
       inkscape:transform-center-y="-18.299856" />
    <path
       style="fill:#000000;fill-opacity:1;fill-rule:nonzero;stroke:none"
       id="path4914"
       d="m 645.39866,198.5066 c -0.58087,1.37638 -1.65277,2.64179 -2.59561,3.92236 -0.95939,1.35028 -2.07519,2.64862 -2.97041,4.01829 -0.42871,0.65531 -1.84024,0.25724 -1.41153,-0.39808 l 0,0 c 0.90565,-1.3831 2.02636,-2.69635 2.99884,-4.0592 0.88686,-1.20452 1.89209,-2.39435 2.47231,-3.68117 0.21304,-0.69936 1.71943,-0.50155 1.5064,0.1978 z"
       inkscape:connector-curvature="0" />
    <path
       inkscape:connector-curvature="0"
       d="m 650.00735,198.5066 c -0.58086,1.37638 -1.65277,2.64179 -2.59562,3.92236 -0.95939,1.35028 -2.07519,2.64862 -2.97041,4.01829 -0.4287,0.65531 -1.84023,0.25724 -1.41151,-0.39808 l 0,0 c 0.90563,-1.3831 2.02636,-2.69635 2.99882,-4.0592 0.88686,-1.20452 1.89209,-2.39435 2.47231,-3.68117 0.21305,-0.69936 1.71945,-0.50155 1.50641,0.1978 z"
       id="path4928"
       style="fill:#000000;fill-opacity:1;fill-rule:nonzero;stroke:none" />
    <path
       inkscape:connector-curvature="0"
       d="m 655.12812,198.5066 c -0.58087,1.37638 -1.65278,2.64179 -2.59562,3.92236 -0.95939,1.35028 -2.0752,2.64862 -2.97041,4.01829 -0.42871,0.65531 -1.84024,0.25724 -1.41152,-0.39808 l 0,0 c 0.90564,-1.3831 2.02636,-2.69635 2.99883,-4.0592 0.88685,-1.20452 1.89209,-2.39435 2.47232,-3.68117 0.21303,-0.69936 1.71943,-0.50155 1.5064,0.1978 z"
       id="path4942"
       style="fill:#000000;fill-opacity:1;fill-rule:nonzero;stroke:none" />
    <path
       style="fill:#000000;fill-opacity:1;fill-rule:nonzero;stroke:none"
       id="path4944"
       d="m 659.7368,198.5066 c -0.58087,1.37638 -1.65278,2.64179 -2.59561,3.92236 -0.95939,1.35028 -2.07519,2.64862 -2.97041,4.01829 -0.42871,0.65531 -1.84024,0.25724 -1.41153,-0.39808 l 0,0 c 0.90564,-1.3831 2.02636,-2.69635 2.99883,-4.0592 0.88687,-1.20452 1.89209,-2.39435 2.47232,-3.68117 0.21303,-0.69936 1.71944,-0.50155 1.5064,0.1978 z"
       inkscape:connector-curvature="0" />
    <path
       inkscape:connector-curvature="0"
       d="m 664.34549,198.84283 c -0.58087,1.37636 -1.65277,2.64177 -2.59562,3.92234 -0.95939,1.35028 -2.07519,2.64862 -2.9704,4.01829 -0.42872,0.65531 -1.84024,0.25724 -1.41153,-0.39808 l 0,0 c 0.90565,-1.3831 2.02636,-2.69634 2.99883,-4.05919 0.88686,-1.20453 1.8921,-2.39436 2.47232,-3.68118 0.21304,-0.69936 1.71943,-0.50155 1.5064,0.19782 z"
       id="path4946"
       style="fill:#000000;fill-opacity:1;fill-rule:nonzero;stroke:none" />
    <path
       style="fill:#000000;fill-opacity:1;fill-rule:nonzero;stroke:none"
       id="path4948"
       d="m 668.95417,198.84283 c -0.58086,1.37636 -1.65277,2.64177 -2.59561,3.92234 -0.95939,1.35028 -2.07519,2.64862 -2.97041,4.01829 -0.4287,0.65531 -1.84024,0.25724 -1.41153,-0.39808 l 0,0 c 0.90565,-1.3831 2.02636,-2.69634 2.99884,-4.05919 0.88686,-1.20453 1.89209,-2.39436 2.47231,-3.68118 0.21304,-0.69936 1.71944,-0.50155 1.5064,0.19782 z"
       inkscape:connector-curvature="0" />
    <path
       style="fill:#000000;fill-opacity:1;fill-rule:nonzero;stroke:none"
       id="path4950"
       d="m 674.07495,198.84283 c -0.58087,1.37636 -1.65278,2.64177 -2.59563,3.92234 -0.95939,1.35028 -2.07519,2.64862 -2.97041,4.01829 -0.4287,0.65531 -1.84024,0.25724 -1.41151,-0.39808 l 0,0 c 0.90563,-1.3831 2.02635,-2.69634 2.99882,-4.05919 0.88686,-1.20453 1.89209,-2.39436 2.47232,-3.68118 0.21303,-0.69936 1.71944,-0.50155 1.50641,0.19782 z"
       inkscape:connector-curvature="0" />
    <path
       style="fill:#646464;fill-opacity:1;fill-rule:nonzero;stroke:none"
       id="path4964"
       d="m 578.49545,404.56388 c -1.43801,-0.0445 -2.78163,0.44612 -3.53214,1.70048 -1.35059,2.38073 -0.90186,4.71727 0.43741,6.97512 1.86443,2.78446 4.64661,4.46827 7.99778,4.38995 2.84886,-0.5225 3.94578,-2.96502 4.67636,-5.48261 0.24952,-1.33809 0.80802,-3.41087 -0.31425,-4.57174 -0.33075,-0.34212 -0.85728,-0.41401 -1.29448,-0.60189 -2.33286,-0.76992 -4.81675,-0.81301 -7.25011,-0.85728 -0.98897,-0.0507 -0.85773,-0.1814 -0.72951,0.12804 -2.55025,1.49456 -4.66388,-2.11204 -2.11363,-3.6066 l 0,0 c 0.93009,-0.46879 1.84921,-0.83473 2.92101,-0.70102 3.087,0.0588 6.23263,0.15987 9.13125,1.344 4.35519,2.51744 4.70489,5.40189 3.64888,10.08374 -1.43847,4.57064 -3.64914,7.76475 -8.73117,8.44529 -5.34096,-0.18964 -8.58289,-2.15564 -11.61438,-6.5725 -2.08289,-4.04365 -2.52556,-7.52913 -0.06,-11.54527 2.15346,-2.5128 4.47403,-3.6156 7.84084,-3.1832 2.86766,0.71691 1.85379,4.77241 -1.01388,4.05549 z"
       inkscape:connector-curvature="0" />
    <path
       style="fill:#646464;fill-opacity:1;fill-rule:nonzero;stroke:none"
       id="path4968"
       d="m 608.50775,386.80441 c -2.53248,0.31341 -4.33187,1.48235 -5.65739,3.61394 -1.69079,3.59701 -0.8205,7.267 0.35288,10.86198 2.0567,4.59617 5.40822,7.15348 9.96312,8.97238 4.23539,1.1254 8.06305,0.0179 11.23913,-2.88545 2.74799,-3.30781 3.13182,-5.93733 1.78565,-9.92321 -2.00463,-4.09197 -5.33357,-6.78376 -9.275,-8.87681 -2.95382,-1.27066 -6.12464,-1.74245 -9.30826,-1.92883 -0.83796,0.0473 -1.71179,-0.26629 -2.45725,0.20399 -2.71271,1.17419 -4.37326,-2.66215 -1.66055,-3.83634 l 0,0 c 1.43229,-0.56048 2.83184,-0.70642 4.36653,-0.54055 3.78912,0.22945 7.5524,0.83762 11.03939,2.42 4.88167,2.65245 8.97151,6.1104 11.2811,11.29872 1.73977,5.78149 1.03112,9.74919 -3.0279,14.33692 -4.87749,4.1017 -9.3064,5.25399 -15.56047,3.60274 -5.87931,-2.43553 -9.76511,-5.60818 -12.36545,-11.56493 -1.5345,-4.84145 -2.3555,-9.746 0.14056,-14.44694 2.04286,-2.97461 4.66639,-4.91679 8.32409,-5.40674 2.89852,-0.5797 3.71834,3.51942 0.81982,4.09913 z"
       inkscape:connector-curvature="0" />
    <path
       style="fill:#646464;fill-opacity:1;fill-rule:nonzero;stroke:none"
       id="path4970"
       d="m 635.24674,357.52042 c -1.83892,0.43638 -3.66027,1.11103 -4.85702,2.62553 -1.86903,2.72589 -2.09391,6.05756 -2.3923,9.2501 -0.23055,4.75418 1.77359,8.72926 4.80298,12.23337 3.43273,3.63198 7.99179,5.11128 12.7661,5.98485 4.05738,0.47989 6.16834,-1.14344 8.99938,-3.73397 2.72349,-2.58834 4.64358,-5.9315 6.17661,-9.33385 1.39338,-3.52282 1.81987,-7.27954 1.24735,-11.00882 -0.82091,-3.73947 -3.31016,-6.37241 -6.28392,-8.58984 -3.87562,-2.32638 -8.29243,-2.79711 -12.70592,-2.41055 -4.44871,1.04354 -8.31367,3.40531 -11.67739,6.4265 -0.32545,0.32582 -0.6509,0.65164 -0.97635,0.97746 -2.09372,2.08658 -5.04459,-0.87439 -2.95087,-2.96097 l 0,0 c 0.38107,-0.37829 0.76215,-0.75658 1.14322,-1.13488 4.0635,-3.6091 8.73272,-6.39491 14.12558,-7.4749 5.45493,-0.40837 10.84933,0.24152 15.56366,3.24345 3.83309,2.93302 6.92935,6.4537 7.9003,11.33271 0.61095,4.53745 0.17741,9.06807 -1.58231,13.33463 -1.79996,3.90679 -3.99934,7.73117 -7.1691,10.69325 -3.84863,3.47477 -7.18168,5.45318 -12.57328,4.74986 -5.72463,-1.07624 -11.12412,-2.99631 -15.18991,-7.38958 -3.70258,-4.42582 -6.1247,-9.41342 -5.77792,-15.33179 0.38934,-4.08329 0.84723,-8.24219 3.41275,-11.6151 1.89766,-2.05404 4.23139,-3.3438 6.98449,-3.92295 2.86766,-0.71691 3.88154,3.33858 1.01387,4.05549 z"
       inkscape:connector-curvature="0" />
    <path
       style="fill:#646464;fill-opacity:1;fill-rule:nonzero;stroke:none"
       id="path4980"
       d="m 619.55135,214.36769 c -2.68733,-1.9014 -5.94073,-2.38771 -9.12637,-2.81063 -4.41598,-0.77694 -8.55206,-0.0403 -12.71376,1.43633 -5.10841,1.85091 -9.1219,5.39354 -12.11336,9.85088 -3.63504,6.23353 -4.34485,12.03473 -3.71887,19.093 0.66467,6.23587 3.69207,11.33158 7.64241,16.01276 1.93985,2.00771 4.2012,3.83464 6.91148,4.64047 0.0583,0.17117 1.50794,0.12854 0.94485,0.1829 -1.48539,0.39758 0.42406,-0.20961 -1.21441,3.40323 -0.02,0.0442 -1.5644,-1.55585 -0.69754,-0.66781 -0.71813,-0.0234 -1.44242,-0.0574 -2.16405,-0.0671 -1.84168,0.0127 -3.63431,0.63016 -5.34427,1.27512 -2.27427,1.00326 -4.01962,2.82904 -5.37397,4.87275 -2.22089,4.37153 -2.70163,9.25344 -3.14414,14.06056 -0.45668,7.22474 1.4893,14.10116 3.95402,20.79776 2.86874,7.20952 7.58449,13.27045 13.06816,18.65869 5.77354,5.12087 12.68723,8.47069 19.8902,11.0515 7.70148,2.55432 15.60836,2.85707 23.58855,1.91391 6.56137,-1.17956 13.00982,-3.03762 19.23422,-5.42083 2.04482,-0.95542 4.50846,-1.82463 5.99269,-3.62436 0.24261,-0.14284 0.41368,-1.01423 0.27699,-0.33944 -0.19708,1.58173 0.95012,1.92093 1.91476,2.19481 0.0875,0.0248 -0.18148,0.0123 -0.27222,0.0185 -0.0766,0.004 -0.306,0.0211 -0.22984,0.0119 1.00166,-0.12077 -0.14395,0.37748 -0.47102,0.62207 -0.0483,0.0373 -0.18502,0.15775 -0.14477,0.11192 0.93358,-1.06285 0.52738,0.006 0.51115,0.84261 -0.072,2.62596 -0.10589,5.19788 0.50915,7.76131 0.72781,3.94823 2.86106,7.15413 5.53967,10.05045 2.81364,2.81466 6.60636,3.61644 10.4114,4.10474 3.96427,0.29619 7.96882,0.4725 11.93367,0.12712 3.98354,-0.1916 7.48257,-1.69809 10.77146,-3.84145 3.78599,-2.58737 6.64356,-6.18761 9.45125,-9.75233 2.02578,-3.08805 3.9654,-6.28597 5.23316,-9.76964 0.23179,-0.79939 0.53222,-1.60969 0.55818,-2.44922 -8.9e-4,-0.33272 -0.016,-0.66513 -0.0385,-0.997 0.25661,-0.10391 4.16356,-1.30533 4.15714,0.54723 -0.1126,1.24789 0.34442,2.28475 1.05608,3.28786 2.29104,2.5298 5.20979,3.9988 8.30476,5.28293 4.06635,1.56075 8.2864,2.10719 12.60649,1.92876 4.62028,-0.47725 8.8225,-2.48465 12.85016,-4.67188 3.85155,-2.17206 6.94253,-5.27975 9.9053,-8.50185 2.10009,-2.52754 2.88228,-5.73073 3.41784,-8.89894 0.29862,-3.41765 0.92636,-6.93401 0.50371,-10.36498 -0.14923,-1.18394 -0.84437,-2.12443 -1.75855,-2.8575 -0.22279,-0.19043 -0.70002,-0.46761 -0.88845,-0.55388 0.049,0.0147 0.27917,0.11725 0.28842,0.0863 1.3914,-4.65378 -0.0774,-4.06593 3.24769,-4.07406 2.84096,0.0372 5.61945,-0.73674 8.26294,-1.71549 3.00292,-0.82077 5.26598,-2.60121 7.42704,-4.74213 2.35671,-2.6977 3.62883,-6.11039 4.57601,-9.51613 1.03992,-4.47067 1.31009,-9.0944 1.10144,-13.66806 -0.35796,-5.01733 -1.25727,-9.98847 -2.39919,-14.88251 -0.62034,-3.13917 -2.37103,-5.58243 -4.15739,-8.13026 -1.56559,-2.24522 -3.33254,-4.33684 -5.15139,-6.37839 -0.63825,-0.88044 -1.22932,-1.95311 -2.37641,-2.16384 -1.18178,-0.17551 -2.37897,-0.18682 -3.57123,-0.18724 -0.22437,-0.004 -0.65311,0.0114 -0.82296,0.0182 -0.48868,-0.22479 -2.21927,-1.8394 -2.23461,-3.21279 -0.005,-0.0808 -0.0155,-0.39037 -0.0172,-0.65357 -0.0938,-1.06182 0.156,-2.0443 0.58321,-3.01635 0.71116,-1.63915 1.82881,-3.04289 2.53709,-4.6897 1.26901,-2.14808 1.85985,-4.39266 2.17786,-6.83973 0.32691,-3.48324 0.28764,-6.9891 0.29569,-10.48409 -0.0818,-4.40128 0.16943,-8.8155 -0.17733,-13.20646 -0.211,-4.63981 -1.97225,-8.75496 -4.24641,-12.71549 -2.59592,-4.48607 -6.41484,-7.89888 -10.79639,-10.57007 -4.04457,-2.29945 -8.39986,-4.02129 -12.70386,-5.77477 -4.45469,-1.54316 -9.06609,-2.62264 -13.71734,-3.37413 -3.83564,-0.75812 -7.64153,-0.51508 -11.48678,-0.0916 -2.65099,0.28231 -5.21436,1.08474 -7.80703,1.68733 -1.1486,0.23088 -2.30959,0.40667 -3.47806,0.49627 -2.00458,0.47562 1.6184,-3.19408 1.67928,-1.54341 0.0106,0.28628 0.0112,0.57268 0.009,0.85906 -1.72407,0.78119 -4.84573,-1.94075 -4.01496,0.59003 -1.11766,-1.31022 -2.04448,-2.76772 -2.98392,-4.20819 -1.30464,-2.13253 -2.57232,-4.28811 -3.88723,-6.41724 -1.84076,-2.84215 -4.15896,-5.32455 -6.47166,-7.78164 -2.2792,-2.32098 -5.04386,-3.99138 -7.82003,-5.63211 -2.58713,-1.57805 -5.54235,-1.95164 -8.5003,-2.19717 -3.86071,-0.22078 -7.73069,-0.18251 -11.59607,-0.1762 -4.14656,-0.22111 -8.20318,0.26716 -12.22887,1.20862 -3.19579,0.80674 -5.98131,2.30051 -8.59654,4.26172 -2.89028,2.22877 -5.39827,4.77862 -7.51653,7.73725 -2.11064,3.5828 -3.75891,7.33699 -4.7758,11.36655 -0.63183,3.94382 -1.36161,7.87754 -1.91853,11.83507 -0.53985,2.54016 -0.17461,5.00238 0.29244,7.5081 0.14697,0.73429 0.29321,1.46972 0.48632,2.19354 -1.06105,-0.66327 -4.80681,0.382 -3.91774,1.40823 -0.69371,-0.11207 -1.044,-0.24105 -1.73585,-0.76002 -0.36832,-0.27628 -0.69693,-0.97509 -0.45544,-0.48418 -0.45237,-0.14925 -1.16782,-0.18116 -1.73229,-0.2271 -0.34556,-0.0265 -0.69183,-0.0408 -1.03826,-0.0424 -0.62005,0.006 -1.24013,0.007 -1.8602,0.008 -0.65743,0.001 -1.31485,0.001 -1.97228,0.001 2.95687,-1.20358 -0.0822,0.46694 -0.70788,1.02945 -0.53078,0.51577 -1.27054,0.71329 -1.8727,1.10815 -0.0436,0.0286 0.10933,-0.0491 0.15481,-0.0235 0.0694,0.0391 -0.0631,0.14646 -0.0988,0.21768 -0.81941,0.84407 -1.02392,0.83813 -1.40297,1.56281 -0.5955,0.53026 -1.05665,1.13938 -1.50758,1.78815 0.55846,-0.82083 -0.42124,1.25846 -1.07781,1.85979 0.2445,-0.14371 -0.19223,0.54293 -0.27688,0.72725 0.15046,-0.66817 0.0871,0.26349 0.0869,0.58497 0.0739,1.18145 -1.07462,2.09752 -1.21618,3.202 -0.0795,0.41687 -0.1753,0.83833 -0.17393,1.2648 0.0864,1.08841 -0.181,2.06154 -0.76593,2.99179 -0.15804,0.30828 -0.45955,0.4925 -0.66624,0.75786 -0.0513,0.0659 0.10744,-0.14138 0.18699,-0.16691 0.13512,-0.0434 -0.0551,0.27849 -0.0772,0.41866 -0.0487,0.44376 -0.0688,0.88981 -0.0743,1.33595 0.004,0.4469 0.006,0.89383 0.008,1.34075 10e-4,0.48053 0.002,0.96106 0.002,1.44159 -3.48011,-2.87103 -0.5863,-1.92021 0.60943,-0.47229 0.32481,0.4405 0.57264,0.92668 0.72491,1.45138 0.54411,2.09257 -0.87765,-0.82607 0.13109,-0.0265 0.37844,0.25563 0.71948,0.55877 1.05032,0.87299 0.32564,0.31251 0.64741,0.62903 0.96749,0.94722 0.51139,0.4975 0.31061,0.62696 0.70166,1.80039 -0.005,0.3329 -0.005,0.66584 -0.006,0.99876 0.035,1.16352 -2.80788,-1.93765 -1.43649,-1.92161 0.21438,0.002 0.42874,4e-5 0.64303,-0.005 -1.19251,0.0386 1.44778,1.70924 2.2002,2.5724 0.0197,2.95585 -4.1605,2.98373 -4.18022,0.0279 l 0,0 c 1.08021,0.75998 3.17699,1.56248 2.1284,1.57739 -0.28107,0.007 -0.5622,0.0114 -0.84338,0.008 -1.18607,-0.0155 -2.75062,-1.0197 -2.69185,-2.25586 1.2e-4,-0.37624 5.4e-4,-0.75251 0.007,-1.1287 0.18045,0.42684 0.83311,1.63349 0.52509,1.28727 -0.29699,-0.29529 -0.59559,-0.58896 -0.89759,-0.87914 -0.22478,-0.21441 -0.40071,-0.39449 -0.80891,-0.66035 -0.34393,-0.28377 -0.87093,-0.65177 -1.07041,-1.05193 -1.00043,-2.00693 -0.56638,-1.82861 -0.4644,-1.10377 0.0422,0.12066 0.0889,0.23676 0.0153,0.0511 2.10386,0.41301 -0.94271,-0.44669 -1.48592,-2.08614 -3.7e-4,-0.47734 -9.1e-4,-0.95469 -0.002,-1.43203 -10e-4,-0.45827 -0.004,-0.91654 -0.008,-1.3748 0.004,-0.65693 0.0431,-1.31394 0.1253,-1.9659 0.18937,-1.00299 0.467,-2.01401 1.24844,-2.73715 0.0544,1.23807 -10e-4,-0.43046 0.0246,-0.73529 0.0315,-0.78011 0.14198,-1.55356 0.33874,-2.31048 0.062,-0.19108 1.29444,-3.58408 1.04958,-2.03858 0.001,-0.76675 -0.0271,-1.56775 0.27835,-2.28892 0.38418,-0.8502 0.83817,-1.66864 1.52469,-2.31746 -0.40322,0.56518 0.26064,-0.40934 -0.38067,1.04131 -0.0211,0.0477 0.58411,-2.06407 0.59835,-1.99533 0.16337,-0.23319 2.28199,-2.95067 1.26084,-1.38877 0.0968,-0.17538 1.85801,-2.85726 1.50829,-1.74569 0.66213,-1.03808 1.52529,-1.79333 2.65341,-2.28943 1.07116,-0.90584 2.13195,-1.45937 3.43943,-2.04578 0.6548,-8e-5 1.3096,-1.3e-4 1.9644,-0.001 0.59678,-0.001 1.19356,-0.002 1.79031,-0.008 0.48822,-0.002 0.97612,0.0185 1.46298,0.0561 1.42775,0.12075 2.90391,0.27222 4.07255,1.19043 0.90856,0.88925 0.63895,0.74512 -0.25624,0.24004 -1.23315,-0.69576 2.72082,0.84507 1.60577,0.4556 2.98881,1.91547 2.07554,1.78355 -1.87248,3.71542 -0.007,0.004 -0.0783,-0.24078 -0.0824,-0.25323 -0.23105,-0.83951 -0.39497,-1.69603 -0.56851,-2.54865 -0.54585,-2.94253 -0.91711,-5.87832 -0.32192,-8.85602 0.58066,-4.10893 1.32669,-8.19612 2.00787,-12.28686 1.16983,-4.52406 2.99682,-8.7714 5.43022,-12.76922 2.37691,-3.3015 5.17893,-6.16713 8.41378,-8.65063 3.08597,-2.28852 6.38953,-4.04479 10.14536,-4.98116 4.33429,-1.0084 8.70975,-1.54111 13.17157,-1.31787 3.98557,-0.007 7.97607,-0.0457 11.95643,0.19117 3.58272,0.30999 7.14616,0.85287 10.27366,2.76371 3.11477,1.84084 6.19436,3.75076 8.73761,6.36628 2.50486,2.66294 5.00434,5.3621 6.98463,8.45091 1.29533,2.10053 2.54528,4.22713 3.83163,6.32961 0.57625,0.88421 1.95883,2.41438 2.28227,3.35595 0.029,0.0845 -0.14641,-0.10232 -0.21962,-0.15348 2.22703,1.87549 2.30277,3.82703 -2.74519,2.62045 1.1e-4,-0.21017 7.3e-4,-0.4204 -0.007,-0.6305 -0.0457,-1.31157 2.26756,-2.83648 2.18492,-2.77548 0.95577,-0.0698 1.90452,-0.22013 2.84521,-0.39952 2.75351,-0.63981 5.4772,-1.48536 8.29624,-1.77078 4.21819,-0.46339 8.40833,-0.69159 12.61314,0.12048 4.96056,0.8076 9.88142,1.95694 14.62525,3.62916 4.51727,1.84042 9.08505,3.65532 13.3205,6.08776 4.94989,3.08074 9.29613,6.93867 12.23096,12.05252 2.56931,4.50571 4.52733,9.21571 4.7862,14.47394 0.33191,4.50246 0.13064,9.02141 0.1894,13.53359 -0.009,3.67541 0.0312,7.36279 -0.33203,11.02446 -0.38141,2.82362 -1.05995,5.49318 -2.49913,7.98144 -0.74608,1.65296 -1.79421,3.11597 -2.55779,4.73571 -0.15703,0.3152 -0.28636,0.52889 -0.20498,1.25143 10e-4,0.21407 -0.006,0.30525 0.0165,0.60149 0.0353,2.13261 -0.01,1.1463 -2.29945,-0.87321 0.39288,-0.0261 0.78664,-0.0322 1.18038,-0.0332 1.6024,0.002 3.21862,0.0173 4.78993,0.36972 1.82312,0.62225 3.27577,1.69999 4.27643,3.38131 1.92619,2.16318 3.79476,4.3815 5.45322,6.75981 2.08916,2.98319 4.06423,5.92629 4.80501,9.5799 1.19935,5.14678 2.13895,10.37577 2.50457,15.65283 0.20283,5.01814 -0.0716,10.08433 -1.25477,14.98249 -1.17087,4.09758 -2.7452,8.16283 -5.66265,11.35589 -2.58708,2.54508 -5.37714,4.67367 -8.92957,5.69358 -3.10856,1.12237 -6.35346,2.01721 -9.687,1.96911 -3.51449,0.008 -3.25238,0.96487 -2.46026,-4.20979 0.005,-0.0301 0.42827,0.1221 0.45574,0.13154 0.74016,0.30726 1.41264,0.75106 2.04213,1.24412 1.69914,1.47015 2.9397,3.33051 3.22006,5.60928 0.36704,3.83347 -0.10169,7.70758 -0.54086,11.51883 -0.69515,3.96626 -1.77988,7.89508 -4.46093,11.01905 -3.27695,3.56025 -6.72867,6.96115 -10.99159,9.34774 -4.59743,2.48187 -9.40004,4.70565 -14.67657,5.17281 -4.92804,0.18404 -9.74887,-0.44942 -14.37755,-2.24689 -3.84747,-1.60814 -7.47314,-3.55132 -10.17868,-6.82758 -1.09838,-1.71405 -1.88655,-3.53492 -1.75513,-5.61725 0.007,-1.74708 4.15339,-2.59979 4.19252,-0.83421 0.0309,0.468 0.0528,0.93677 0.048,1.40598 -0.0553,1.30194 -0.40268,2.56164 -0.81667,3.79321 -1.45459,3.87994 -3.54613,7.48466 -5.87001,10.90582 -3.09402,3.92578 -6.27745,7.85352 -10.46609,10.67633 -3.87848,2.48815 -8.02301,4.2531 -12.69269,4.49619 -4.26482,0.34242 -8.56459,0.20858 -12.82624,-0.14833 -4.7922,-0.64329 -9.46255,-1.84225 -12.95277,-5.42996 -3.12298,-3.45349 -5.65328,-7.27385 -6.52725,-11.93313 -0.64706,-2.90974 -0.73531,-5.80938 -0.61458,-8.78371 0.0322,-1.49909 -0.0461,-3.21334 1.31475,-4.22049 0.87001,-0.64691 1.80903,-1.38011 2.93623,-1.45438 1.35249,0.0247 2.86962,0.49989 2.77732,2.40016 -0.16048,1.00324 -0.65484,1.87158 -1.29328,2.65683 -2.04181,2.2531 -4.86857,3.62456 -7.64229,4.77085 -6.55228,2.49504 -13.33045,4.46387 -20.24132,5.66768 -8.7338,1.00471 -17.06343,0.65476 -25.48835,-2.13288 -7.76536,-2.80738 -15.2121,-6.43812 -21.40878,-12.00749 -5.90682,-5.83846 -10.98401,-12.39489 -14.05765,-20.1945 -2.67125,-7.28518 -4.7196,-14.77504 -4.19253,-22.62521 0.51501,-5.51496 1.13708,-11.11005 3.86314,-16.04471 1.91286,-2.70864 4.21407,-5.13302 7.34407,-6.41465 2.19615,-0.82595 4.50774,-1.54371 6.87582,-1.54295 1.35211,0.0195 2.75634,-0.0126 4.0216,0.53153 1.35878,0.92598 3.96207,3.84538 0.76941,5.08823 -0.99794,0.14362 -1.99121,-0.0358 -2.95772,-0.2988 -3.46491,-1.1059 -6.40685,-3.28926 -8.87163,-5.94271 -4.48909,-5.35804 -7.86601,-11.24539 -8.60788,-18.34853 -0.66067,-8.07218 0.22499,-14.72599 4.43507,-21.80923 3.70649,-5.32539 8.01562,-9.15711 14.17711,-11.433 4.78668,-1.66643 9.59222,-2.50403 14.65703,-1.63514 3.89592,0.53133 7.82287,1.24135 11.0766,3.60929 2.36474,1.77355 -0.14344,5.1178 -2.50818,3.34424 z"
       inkscape:connector-curvature="0" />
  </g>
</svg>
