<?xml version="1.0" encoding="UTF-8" standalone="no"?>
<!-- Created with Inkscape (http://www.inkscape.org/) -->

<svg
   xmlns:dc="http://purl.org/dc/elements/1.1/"
   xmlns:cc="http://creativecommons.org/ns#"
   xmlns:rdf="http://www.w3.org/1999/02/22-rdf-syntax-ns#"
   xmlns:svg="http://www.w3.org/2000/svg"
   xmlns="http://www.w3.org/2000/svg"
   xmlns:sodipodi="http://sodipodi.sourceforge.net/DTD/sodipodi-0.dtd"
   xmlns:inkscape="http://www.inkscape.org/namespaces/inkscape"
   width="591.98212"
   height="467.99921"
   id="svg7706"
   version="1.1"
   inkscape:version="0.48.0 r9654"
   sodipodi:docname="New document 22">
  <defs
     id="defs7708" />
  <sodipodi:namedview
     inkscape:document-units="mm"
     pagecolor="#ffffff"
     bordercolor="#666666"
     borderopacity="1.0"
     inkscape:pageopacity="0.0"
     inkscape:pageshadow="2"
     inkscape:zoom="0.7176508"
     inkscape:cx="333.28167"
     inkscape:cy="137.51177"
     inkscape:current-layer="layer1"
     id="namedview7710"
     showgrid="false"
     fit-margin-top="0"
     fit-margin-left="0"
     fit-margin-right="0"
     fit-margin-bottom="0"
     inkscape:window-width="1280"
     inkscape:window-height="752"
     inkscape:window-x="0"
     inkscape:window-y="0"
     inkscape:window-maximized="0" />
  <metadata
     id="metadata7712">
    <rdf:RDF>
      <cc:Work
         rdf:about="">
        <dc:format>image/svg+xml</dc:format>
        <dc:type
           rdf:resource="http://purl.org/dc/dcmitype/StillImage" />
        <dc:title></dc:title>
      </cc:Work>
    </rdf:RDF>
  </metadata>
  <g
     inkscape:label="Layer 1"
     inkscape:groupmode="layer"
     id="layer1"
     transform="translate(-192.89942,-41.559797)">
    <path
       style="fill:#000000;fill-opacity:1;fill-rule:nonzero;stroke:none"
       id="path8231"
       d="m 211.89539,417.70759 c 30.40494,1.05374 60.8393,0.76246 91.25765,0.86555 49.01449,0.10581 98.02869,0.0116 147.04274,-0.1984 2.9559,-0.0127 2.97381,4.16761 0.0179,4.18027 l 0,0 c -49.02476,0.21007 -98.04964,0.30427 -147.07483,0.1984 -30.50094,-0.10337 -61.0182,0.19073 -91.50551,-0.87373 -2.95011,-0.18528 -2.68809,-4.35737 0.26203,-4.17209 z"
       inkscape:connector-curvature="0" />
    <path
       style="fill:#000000;fill-opacity:1;fill-rule:nonzero;stroke:none"
       id="path8241"
       d="m 284.2391,289.88053 c 7.34869,12.20095 13.97963,24.82263 20.83817,37.30254 13.20686,23.71251 27.11557,47.02342 40.4261,70.67694 8.24634,14.56302 4.22242,7.48455 12.06801,21.23754 1.46468,2.56753 -2.16636,4.6389 -3.63103,2.07137 l 0,0 c -7.85401,-13.76782 -3.82606,-6.68223 -12.0801,-21.25888 -13.31676,-23.66606 -27.23453,-46.98793 -40.4465,-70.71363 -6.8079,-12.38787 -13.39295,-24.91425 -20.67588,-37.03195 -1.61498,-2.47575 1.88625,-4.75968 3.50123,-2.28393 z"
       inkscape:connector-curvature="0" />
    <path
       style="fill:#000000;fill-opacity:1;fill-rule:nonzero;stroke:none"
       id="path8263"
       d="m 195.73217,319.30685 c 17.75414,-7.83403 36.00144,-14.49199 54.2473,-21.07407 32.46486,-11.87929 65.28554,-22.7322 98.08605,-33.63552 20.67127,-6.96782 10.50233,-3.50848 30.50854,-10.37292 2.79592,-0.95932 4.1526,2.99471 1.35668,3.95403 l 0,0 c -20.03315,6.87361 -9.85154,3.40999 -30.54658,10.38577 -32.76709,10.8922 -65.55448,21.7336 -97.9862,33.60092 -18.15164,6.54751 -36.30517,13.16965 -53.96801,20.9618 -2.70116,1.20051 -4.39894,-2.6195 -1.69778,-3.82001 z"
       inkscape:connector-curvature="0" />
    <path
       style="fill:#000000;fill-opacity:1;fill-rule:nonzero;stroke:none"
       id="path8269"
       d="m 367.96303,259.01 c -2.385,-6.43622 -5.50929,-12.53641 -8.71064,-18.59584 -3.81783,-6.98428 -7.64106,-13.99805 -12.29235,-20.47605 -3.41438,-4.7553 -4.45424,-5.7294 -8.32963,-10.16639 -8.23646,-8.90585 -17.72486,-16.89836 -28.80687,-22.03935 -2.1542,-0.99934 -4.41221,-1.75765 -6.61831,-2.63646 -12.11136,-3.95022 -24.63361,-3.27893 -36.68426,0.54331 -2.86007,0.90716 -5.63421,2.06576 -8.45133,3.09863 -15.54875,6.5856 -29.70408,16.20096 -40.83765,28.97999 -2.2232,2.55178 -4.16849,5.33294 -6.25273,7.99939 -7.27525,10.79346 -12.37022,22.91535 -13.58916,35.96343 -0.70845,7.58373 -0.0889,11.4523 0.48725,19.02201 1.55393,12.43059 5.72364,24.17868 10.29698,35.75265 1.08526,2.7495 -2.8031,4.28427 -3.88836,1.53478 l 0,0 c -4.71897,-11.96806 -9.00902,-24.11883 -10.57723,-36.97491 -0.59217,-8.01614 -1.22907,-11.96605 -0.44371,-20.0119 1.3416,-13.74424 6.72323,-26.50898 14.4236,-37.86423 2.18065,-2.77697 4.2175,-5.67314 6.54192,-8.33094 11.57238,-13.23202 26.26704,-23.1889 42.40403,-29.99653 2.94082,-1.07168 5.83598,-2.27818 8.82249,-3.21502 12.9253,-4.05451 26.34886,-4.65826 39.30198,-0.38143 2.34409,0.94303 4.743,1.75985 7.0323,2.82909 11.52787,5.3842 21.41611,13.69456 29.98927,22.97959 4.04965,4.64827 5.08268,5.6086 8.65209,10.58718 4.73149,6.59946 8.63039,13.73778 12.51605,20.8508 3.29493,6.23976 6.50241,12.52498 8.95487,19.15305 0.98654,2.78645 -2.95409,4.1816 -3.94061,1.39517 z"
       inkscape:connector-curvature="0" />
    <path
       style="fill:none;stroke:#000000;stroke-width:2.41653538;stroke-linecap:butt;stroke-linejoin:miter;stroke-miterlimit:4;stroke-opacity:1;stroke-dasharray:2.41653543, 4.83307087;stroke-dashoffset:0"
       d="m 281.47394,289.83455 197.86782,0"
       id="path8271"
       inkscape:connector-curvature="0" />
    <path
       style="fill:#000000;fill-opacity:1;fill-rule:nonzero;stroke:none"
       id="path8277"
       d="m 272.27994,229.22011 c -2.28232,0.11519 -4.61386,-0.23267 -6.8811,0.16008 -1.40209,0.24289 -2.83576,0.83395 -4.15719,1.3103 -5.854,2.68655 -8.804,7.04525 -11.17371,12.83605 -2.00664,6.21005 -2.23204,12.72104 0.96496,18.58409 0.64221,1.17777 1.47219,2.24299 2.20828,3.36448 4.26039,5.23722 10.20964,8.76681 17.01205,9.37513 1.25566,0.11229 2.52118,0.0295 3.78177,0.0442 8.48444,-1.46389 12.39643,-5.31549 16.43856,-12.64318 2.65493,-5.974 3.5781,-12.66745 0.76399,-18.78393 -0.53148,-1.15516 -1.27002,-2.2033 -1.90503,-3.30495 -4.55874,-6.28691 -10.36775,-9.28604 -17.65887,-11.29325 -2.19521,-0.60445 -3.97038,-0.31702 -6.02206,0.44462 -2.80551,0.93094 -4.12204,-3.03664 -1.31654,-3.96758 l 0,0 c 2.86231,-0.88052 5.4764,-1.35124 8.45841,-0.50457 8.39128,2.35373 15.03854,5.96014 20.18073,13.26816 0.74141,1.34032 1.61198,2.61693 2.22422,4.02096 3.16763,7.26426 2.12068,15.13962 -1.08047,22.16834 -0.75228,1.31825 -1.3986,2.7029 -2.25683,3.95476 -4.21385,6.14654 -10.52962,9.96063 -17.9032,10.82022 -1.47737,-0.0358 -2.96231,0.0463 -4.4321,-0.10729 -7.96201,-0.83211 -14.87246,-5.01657 -19.79642,-11.224 -0.84695,-1.33006 -1.8104,-2.59275 -2.54084,-3.9902 -3.61741,-6.92071 -3.38772,-14.57227 -0.98001,-21.83227 3.0602,-7.24874 6.33706,-11.78817 13.63233,-15.16844 4.39274,-1.54426 7.82133,-1.98617 12.43907,-1.71205 2.95592,0 2.95592,4.1803 0,4.1803 z"
       inkscape:connector-curvature="0" />
    <path
       style="fill:#000000;fill-opacity:1;fill-rule:nonzero;stroke:none"
       id="path8285"
       d="m 271.13587,225.46849 c 1.96436,5.78271 2.0706,12.02083 2.35829,18.06587 0.29156,8.25093 0.31763,16.50822 0.33439,24.76337 0.004,2.72785 2e-5,5.45569 -0.007,8.18353 -0.007,2.95592 -4.18773,2.9454 -4.1803,-0.0105 l 0,0 c 0.007,-2.72151 0.0105,-5.44302 0.007,-8.16454 -0.0166,-8.19191 -0.0422,-16.38592 -0.3297,-24.5737 -0.25932,-5.48031 -0.3764,-11.09202 -1.92166,-16.39453 -1.32193,-2.64385 2.41705,-4.51334 3.73898,-1.86949 z"
       inkscape:connector-curvature="0" />
    <path
       style="fill:#000000;fill-opacity:1;fill-rule:nonzero;stroke:none"
       id="path8293"
       d="m 246.41828,248.95729 c 4.96447,0.65109 10.04791,-0.2086 15.01049,-0.62588 8.80745,-0.48243 17.60993,-0.95112 26.41028,-1.56481 1.27303,-0.0815 2.54605,-0.16291 3.81908,-0.24436 2.9499,-0.18871 3.21678,3.98306 0.26689,4.17178 l 0,0 c -1.26506,0.0809 -2.53011,0.16184 -3.79516,0.24276 -8.78051,0.61231 -17.56311,1.08236 -26.35088,1.56024 -5.41572,0.45525 -10.96655,1.39846 -16.37458,0.51577 -2.86766,-0.71692 -1.85379,-4.77241 1.01388,-4.0555 z"
       inkscape:connector-curvature="0" />
    <path
       style="fill:#a0a0a0;stroke:none"
       d="m 273.96929,240.20287 c 0,-3.38607 -0.40302,-7.20675 -0.8956,-8.49039 -0.7805,-2.03396 -0.17624,-1.96691 4.70174,0.52165 5.42026,2.76521 12.91509,10.21571 12.91509,12.83871 0,0.70759 -3.76228,1.28653 -8.36062,1.28653 l -8.36061,0 0,-6.1565 z"
       id="path8295"
       inkscape:connector-curvature="0" />
    <path
       style="fill:#a0a0a0;stroke:none"
       d="m 263.51853,272.25308 c -5.63619,-2.51576 -11.62015,-9.10637 -13.16781,-14.50276 l -1.26873,-4.42378 9.65678,0 9.65678,0 0,10.45077 c 0,5.74792 -0.15676,10.42622 -0.34836,10.39622 -0.1916,-0.03 -2.2295,-0.8942 -4.52866,-1.92045 z"
       id="path8297"
       inkscape:connector-curvature="0" />
    <path
       style="fill:#000000;fill-opacity:1;fill-rule:nonzero;stroke:none"
       id="path8299"
       d="m 344.7738,268.43873 c 1.88159,1.32627 3.3823,3.03129 4.68891,4.90848 1.5698,2.1702 2.64547,4.56429 2.89799,7.23334 0.0784,2.53691 -1.1001,4.79615 -2.39821,6.89488 -0.58118,0.98462 -1.31902,1.8257 -2.10675,2.64419 -1.46402,1.49178 -3.5737,-0.57866 -2.10968,-2.07043 l 0,0 c 0.65425,-0.64796 1.23129,-1.34387 1.70798,-2.13746 0.97364,-1.54715 1.95068,-3.2354 1.95897,-5.11069 -0.0875,-2.14046 -1.2028,-4.04343 -2.38367,-5.77568 -1.19329,-1.75022 -2.62552,-3.25088 -4.34569,-4.49648 -1.47796,-1.47796 0.61219,-3.56812 2.09015,-2.09015 z"
       inkscape:connector-curvature="0" />
    <path
       style="fill:#000000;fill-opacity:1;fill-rule:nonzero;stroke:none"
       id="path8301"
       d="m 254.27854,203.2276 c 0.57511,2.43539 0.68694,4.94485 0.79924,7.435 0.0866,2.33953 0.11033,4.68081 0.11887,7.02174 -0.0114,1.67884 0.37048,1.71463 -2.95894,0.69984 -9.2e-4,-2.8e-4 -0.002,-0.84442 -0.002,-1.44504 -0.0639,-2.64633 0.52305,-5.24205 1.3541,-7.73716 0.81894,-1.95263 1.67255,-3.86275 3.08611,-5.45755 1.16935,-1.23624 2.19659,-1.44047 3.64568,-0.39719 1.44443,1.27707 1.95782,3.01289 2.33889,4.83837 0.27775,1.62484 0.37918,3.2715 0.4229,4.91708 0.59708,1.96112 -2.9711,0.70127 -2.21501,-0.78915 0.95349,-2.13742 1.4902,-4.42433 2.14538,-6.66451 0.45976,-1.91654 1.19633,-3.67914 2.59657,-5.08375 2.39816,-2.02707 3.64189,0.75068 4.27542,2.62328 0.77837,2.81329 0.89695,5.7515 1.01502,8.65219 0.0402,1.3007 0.0757,2.60211 0.0667,3.90357 -8.1e-4,0.0486 -0.002,0.0971 -0.002,0.14571 -0.0355,2.08985 -2.99103,2.03959 -2.9555,-0.0503 l 0,0 c 6.9e-4,-0.0388 10e-4,-0.0776 0.002,-0.11646 0.009,-1.25453 -0.0265,-2.50904 -0.0643,-3.76285 -0.10612,-2.62982 -0.20056,-5.29498 -0.87109,-7.85332 -0.13886,-0.44716 -0.42844,-0.85484 -0.47962,-1.32026 -0.006,-0.0573 0.37245,0.15679 0.76422,0.056 0.18841,-0.0485 0.32477,-0.21554 0.4972,-0.30561 0.067,-0.035 -0.11927,0.0929 -0.17891,0.13936 -1.07231,1.0052 -1.45716,2.41455 -1.82826,3.80224 -0.71642,2.44892 -1.30051,4.95369 -2.39779,7.26892 -0.1479,0.25519 -0.14894,0.75489 -0.4437,0.76557 -3.15691,0.11444 -2.85844,0.0991 -2.88083,-1.33295 -0.0383,-1.47311 -0.12539,-2.94713 -0.36411,-4.40314 -0.24144,-1.21526 -0.45439,-2.3552 -1.40818,-3.22217 0.79722,0.0397 1.10007,-0.33446 0.52003,0.16318 -1.16591,1.27671 -1.7766,2.86976 -2.48531,4.42777 -0.7466,2.18401 -1.25425,4.46952 -1.19929,6.78994 3.1e-4,0.28773 4.7e-4,0.57547 9.2e-4,0.8632 2.9e-4,0.18952 0.18269,0.51367 0.001,0.56856 -3.33647,1.00964 -2.9387,0.99095 -2.95285,-0.67267 -0.008,-2.30032 -0.0314,-4.60097 -0.11591,-6.89993 -0.10246,-2.29317 -0.19504,-4.60565 -0.71396,-6.85065 -0.50693,-2.02774 2.36073,-2.74466 2.86767,-0.71691 z"
       inkscape:connector-curvature="0" />
    <path
       style="fill:#000000;fill-opacity:1;fill-rule:nonzero;stroke:none"
       id="path8303"
       d="m 281.88258,212.28183 c 0.5806,2.67942 -0.0815,5.38061 -0.86861,7.94348 -0.25232,0.78889 -0.5552,1.5593 -0.86964,2.32488 -0.79565,1.93279 -3.52903,0.80758 -2.73338,-1.12521 l 0,0 c 0.28157,-0.6822 0.55202,-1.36902 0.77872,-2.07191 0.64905,-2.08825 1.2646,-4.30212 0.79439,-6.49154 -0.40991,-2.04956 2.48861,-2.62926 2.89852,-0.5797 z"
       inkscape:connector-curvature="0" />
    <path
       style="fill:#000000;fill-opacity:1;fill-rule:nonzero;stroke:none"
       id="path8305"
       d="m 296.57303,195.82145 c 0.13108,3.55451 -0.16436,7.08827 -0.45102,10.62683 -0.24394,2.9464 -0.39837,5.89929 -0.50265,8.85365 -0.016,0.41724 -0.0225,0.83473 -0.0366,1.25201 -0.0712,2.08894 -3.02537,1.98831 -2.95421,-0.10063 l 0,0 c 0.0144,-0.41851 0.0201,-0.83727 0.0367,-1.25572 0.10601,-2.99919 0.26288,-5.99687 0.51046,-8.98799 0.28025,-3.45943 0.5739,-6.91293 0.44137,-10.38815 0,-2.09015 2.95592,-2.09015 2.95592,0 z"
       inkscape:connector-curvature="0" />
    <path
       style="fill:#000000;fill-opacity:1;fill-rule:nonzero;stroke:none"
       id="path8307"
       d="m 283.97854,191.78358 c 3.26598,-0.0863 6.51208,0.34947 9.76325,0.5978 3.17954,0.22285 6.36563,0.32099 9.55191,0.37465 1.73756,-0.0109 2.10812,-0.16411 3.66734,0.57989 1.46241,1.49335 -0.6495,3.56151 -2.11191,2.06816 l 0,0 c 2.36857,0.81872 -0.84994,0.0826 -1.60526,0.30745 -3.24483,-0.0548 -6.48946,-0.15526 -9.72738,-0.38282 -3.17637,-0.243 -6.34733,-0.67268 -9.53795,-0.58921 -2.09015,0 -2.09015,-2.95592 0,-2.95592 z"
       inkscape:connector-curvature="0" />
    <path
       style="fill:#000000;fill-opacity:1;fill-rule:nonzero;stroke:none"
       id="path8309"
       d="m 286.3744,214.8374 c 1.65525,0.96689 3.52714,1.1745 5.39592,1.36496 3.15574,-0.11332 6.30264,-0.40406 9.45621,-0.57752 2.47957,-0.1336 4.96248,-0.17553 7.44514,-0.19365 2.09009,-0.0152 2.11162,2.94062 0.0215,2.95584 l 0,0 c -2.43573,0.0177 -4.87171,0.0584 -7.30442,0.18928 -3.30786,0.18171 -6.60929,0.51635 -9.92167,0.56638 -2.22048,-0.23143 -4.44317,-0.53135 -6.41463,-1.66143 -1.86949,-0.93474 -0.54756,-3.5786 1.32193,-2.64386 z"
       inkscape:connector-curvature="0" />
    <path
       style="fill:#000000;fill-opacity:1;fill-rule:nonzero;stroke:none"
       id="path8313"
       d="m 344.93279,281.7497 c 0.85325,1.84656 1.30637,3.83856 1.64819,5.83369 0.16022,0.94833 0.23274,1.90951 0.25544,2.87033 -0.0232,1.19567 0.2139,0.87242 -1.45853,-1.14113 1.28327,-0.12686 2.55257,-0.53411 3.7454,-1.025 1.77872,-0.57674 3.17695,-1.83897 4.73395,-2.82027 1.76922,-1.11292 3.34314,1.38913 1.57392,2.50206 l 0,0 c -1.70675,1.07131 -3.24643,2.44168 -5.20304,3.0599 -1.34773,0.53435 -2.7933,1.02911 -4.24106,1.17578 -3.39878,-2.57647 -2.04053,-0.80963 -2.10579,-1.68394 -0.0178,-0.8169 -0.0786,-1.63448 -0.21414,-2.44078 -0.29005,-1.70939 -0.66471,-3.41949 -1.37819,-5.00871 -0.93475,-1.86949 1.70911,-3.19142 2.64385,-1.32193 z"
       inkscape:connector-curvature="0" />
    <path
       style="fill:#000000;fill-opacity:1;fill-rule:nonzero;stroke:none"
       id="path8323"
       d="m 402.19415,259.85896 c -2.50924,0.68056 -3.68451,3.12881 -4.54616,5.36354 -1.10147,3.76161 -1.64243,7.70325 -1.16169,11.6033 0.49651,2.23955 1.3686,4.60221 3.94168,4.75677 3.11876,-0.24116 5.28266,-2.2255 6.94856,-4.71038 1.87581,-3.3888 2.28336,-7.01896 1.62968,-10.77839 -0.64434,-2.76433 -2.43172,-4.8412 -4.81059,-6.28908 -1.46025,-0.83466 -2.78159,-0.48058 -4.26071,0.022 -1.98115,0.66617 -2.92325,-2.1356 -0.9421,-2.80177 l 0,0 c 2.32484,-0.77505 4.54478,-1.02402 6.7708,0.27397 3.07095,1.96059 5.36255,4.66911 6.15835,8.3092 0.74904,4.66486 0.23893,8.77627 -2.11583,12.94764 -2.57841,3.63 -5.23711,5.82926 -9.86368,5.94256 -0.62262,-0.13499 -1.27432,-0.17345 -1.86786,-0.40495 -2.83869,-1.10716 -3.92853,-4.22208 -4.52418,-6.92397 -0.49172,-4.39391 0.0391,-8.81682 1.35136,-13.04046 1.30029,-3.18528 3.12368,-6.2952 6.71267,-7.16853 2.04956,-0.40991 2.62927,2.48861 0.5797,2.89852 z"
       inkscape:connector-curvature="0" />
    <path
       style="fill:#000000;fill-opacity:1;fill-rule:nonzero;stroke:none"
       id="path8325"
       d="m 395.74354,268.04401 c 2.06258,1.00369 4.40196,0.78122 6.63326,0.7637 2.64013,-0.0416 5.27992,-0.10125 7.92003,-0.1438 0.27272,-0.004 0.54544,-0.007 0.81815,-0.0105 2.08999,-0.0268 2.12789,2.92888 0.0379,2.95568 l 0,0 c -0.26948,0.003 -0.53895,0.007 -0.80843,0.0104 -2.64845,0.0427 -5.29658,0.10274 -7.94506,0.14409 -2.70235,0.0201 -5.49625,0.18262 -7.97779,-1.07567 -1.86949,-0.93474 -0.54756,-3.5786 1.32193,-2.64386 z"
       inkscape:connector-curvature="0" />
    <path
       style="fill:#000000;fill-opacity:1;fill-rule:nonzero;stroke:none"
       id="path8341"
       d="m 417.84556,270.91131 c 1.07361,2.35466 1.40639,4.94523 1.66195,7.49445 0.19373,2.26558 0.22768,4.54027 0.24203,6.81276 10e-4,0.56626 0.003,1.13262 -0.009,1.69877 -0.81322,1.02482 -2.95575,0.63541 -2.95899,-0.56644 -0.006,-2.09015 2.95033,-2.09804 2.95591,-0.008 l 0,0 c 0.003,1.30749 0.0573,0.33928 -2.95161,0.48881 0.0122,-0.53145 0.008,-1.06314 0.008,-1.59468 -0.0136,-2.18096 -0.0445,-4.36405 -0.22756,-6.5386 -0.21636,-2.19139 -0.4748,-4.42796 -1.36442,-6.46525 -0.93475,-1.86949 1.70911,-3.19142 2.64386,-1.32193 z"
       inkscape:connector-curvature="0" />
    <path
       style="fill:#000000;fill-opacity:1;fill-rule:nonzero;stroke:none"
       id="path8343"
       d="m 419.08842,276.68202 c 1.31296,0.35597 2.65824,0.55975 4.0065,0.72327 1.52841,0.30093 2.60276,1.00715 3.25431,2.42693 0.35204,1.16732 0.38114,2.37494 0.12701,3.55605 -0.46318,1.55576 -1.90445,2.25957 -3.25398,2.92148 -1.02769,0.49238 -2.14029,0.77054 -3.25602,0.97811 -0.16858,0.0312 -0.33845,0.0534 -0.50876,0.0722 -2.07877,0.21786 -2.38687,-2.72196 -0.3081,-2.93982 l 0,0 c 0.0936,-0.011 0.18763,-0.02 0.28018,-0.0392 0.85716,-0.15668 1.71705,-0.35809 2.50749,-0.73322 0.57721,-0.27241 1.44836,-0.52588 1.7087,-1.11154 0.0374,-0.28407 0.0756,-1.1412 -0.0571,-1.64726 0.003,-0.056 0.13516,-0.10757 0.0907,-0.14169 -0.26728,-0.20489 -0.64493,-0.26017 -0.94114,-0.40775 -1.46945,-0.17903 -2.93514,-0.4045 -4.36671,-0.78993 -2.02774,-0.50693 -1.31083,-3.3746 0.71692,-2.86766 z"
       inkscape:connector-curvature="0" />
    <path
       style="fill:#000000;fill-opacity:1;fill-rule:nonzero;stroke:none"
       id="path8349"
       d="m 277.92137,282.89959 c 1.55618,-0.73092 3.30892,-1.0329 5.04331,-0.77479 0.42837,0.0638 0.84287,0.19121 1.26431,0.28682 2.29592,0.78963 4.0766,2.34676 4.97983,4.47559 0.17551,0.41367 0.27909,0.85063 0.41863,1.27594 0.42175,2.15232 0.17566,4.40957 -1.03112,6.32683 -0.23999,0.38128 -0.54491,0.724 -0.81736,1.08599 -0.31639,0.298 -0.60116,0.62811 -0.94917,0.89402 -1.6764,1.28086 -3.89349,1.81822 -6.00205,1.18506 -0.54404,-0.16337 -1.03593,-0.44963 -1.55389,-0.67445 -1.91691,-1.25082 -3.21099,-3.06914 -3.79065,-5.17255 -0.10218,-0.37077 -0.15516,-0.75173 -0.23274,-1.12759 -0.24121,-2.03009 0.29411,-4.0427 1.76883,-5.59778 0.28509,-0.30062 0.6292,-0.54819 0.94379,-0.82229 1.54229,-1.02896 3.39292,-1.59949 5.30184,-1.19903 1.3104,0.27492 1.55777,0.54177 2.62398,1.18705 1.53624,1.27355 2.42407,2.9311 2.35204,4.87231 -0.044,1.18569 -0.29616,1.55163 -0.73,2.65102 -0.2259,0.3636 -0.41608,0.74844 -0.67768,1.09079 -1.09673,1.43528 -2.8424,2.59441 -4.75187,2.85054 -0.56025,0.0752 -1.13182,0.0252 -1.69773,0.0378 -0.49539,-0.10207 -1.00607,-0.15366 -1.48616,-0.30621 -1.86261,-0.59183 -3.37677,-1.91048 -4.25293,-3.53244 -0.19911,-0.36858 -0.33036,-0.76551 -0.49554,-1.14826 -0.084,-0.44585 -0.22535,-0.8856 -0.25215,-1.33753 -0.0864,-1.45519 0.42871,-2.85686 1.44525,-3.9672 0.854,-0.93279 1.33142,-1.07914 2.44199,-1.68793 1.79943,-0.70181 3.77503,-0.99988 5.69603,-0.53774 1.34327,0.32316 1.52427,0.53519 2.6694,1.19426 1.52095,1.18494 2.5587,2.73526 2.45453,4.64602 -0.0683,1.25203 -0.40433,1.56183 -1.01255,2.64789 -0.32114,0.33029 -0.6065,0.69391 -0.96343,0.99086 -1.34048,1.11518 -3.20753,1.74156 -5.00033,1.73422 -0.47512,-0.002 -0.94512,-0.0915 -1.41767,-0.13721 -2.1533,-0.4641 -4.0289,-1.56389 -5.12441,-3.38474 -0.18535,-0.30806 -0.31194,-0.64354 -0.4679,-0.96532 -0.6195,-1.75701 -0.41489,-3.63108 1.0032,-5.03382 0.92467,-0.91466 1.50899,-1.01571 2.6849,-1.47294 2.20111,-0.53208 4.56481,-0.49534 6.61879,0.50369 0.39532,0.19228 0.75025,0.44889 1.12537,0.67334 1.52178,1.20745 2.47519,2.84116 2.28378,4.75077 -0.117,1.16728 -0.43321,1.58018 -0.94481,2.58163 -1.09833,1.65343 -2.70194,3.01039 -4.73167,3.59461 -0.38399,0.11052 -0.78614,0.15668 -1.17921,0.23502 -0.45886,-0.003 -0.92518,0.0674 -1.37657,-0.009 -1.6698,-0.2832 -2.96135,-1.18359 -3.74616,-2.57333 -0.55273,-0.97878 -0.53684,-1.43732 -0.71371,-2.49377 -0.0462,-1.80451 0.46106,-3.55251 1.80988,-4.90684 0.93306,-0.93686 1.32474,-0.99752 2.52905,-1.56921 0.57727,-0.10586 1.14472,-0.2807 1.7318,-0.31758 1.61198,-0.10123 3.2529,0.44155 4.48337,1.39795 1.01738,0.79079 1.16525,1.22281 1.80929,2.24827 0.15638,0.42947 0.36329,0.84585 0.46915,1.28841 0.43278,1.80922 0.0537,3.7583 -1.04034,5.31098 -0.27166,0.38557 -0.61964,0.71984 -0.92946,1.07976 -0.34803,0.27447 -0.6606,0.59322 -1.04407,0.82341 -1.46063,0.87676 -3.10786,1.1637 -4.80712,0.77854 -1.16151,-0.26328 -1.67769,-0.6509 -2.64461,-1.21043 -1.63731,-1.26057 -3.08969,-2.8987 -3.41226,-4.91967 -0.0682,-0.42716 -0.0409,-0.86282 -0.0612,-1.29423 0.0935,-0.4317 0.12969,-0.87761 0.28047,-1.29512 0.78303,-2.16819 2.6686,-3.27484 4.75911,-4.21332 1.94653,-0.72536 4.2544,-1.24349 6.15762,-0.0541 0.49968,0.31228 0.84731,0.79496 1.27096,1.19244 0.22623,0.52758 0.53211,1.03145 0.67869,1.58275 0.50042,1.88221 -0.49872,3.94543 -1.41246,5.57176 -0.75865,1.13667 -1.50009,2.44082 -2.69703,3.24904 -0.3391,0.22898 -0.71511,0.4067 -1.07268,0.61005 -0.52349,0.11471 -1.03301,0.3248 -1.5705,0.34415 -2.06247,0.0742 -3.63351,-1.18809 -4.63477,-2.72585 -0.18954,-0.2911 -0.33817,-0.60353 -0.50727,-0.90529 -0.71565,-1.61485 -1.17952,-3.40177 -0.74867,-5.14582 0.0972,-0.39343 0.27508,-0.76584 0.41261,-1.14876 0.23273,-0.35706 0.41494,-0.7471 0.6982,-1.07118 0.89281,-1.02142 2.176,-1.72115 3.57325,-1.94452 1.27353,-0.20359 1.57965,-0.0671 2.82183,0.10896 1.64086,0.52142 3.25525,1.33771 4.1752,2.77189 0.25501,0.39754 0.40064,0.84733 0.60096,1.27101 1.45908,4.10905 -4.80163,6.02431 -6.26071,1.91525 l 0,0 c 0.19695,0.24539 0.32804,0.45963 0.40146,0.37765 0.0854,-0.0953 -0.20107,-0.1674 -0.27432,-0.27105 -0.0159,-0.0225 0.0306,-0.0457 0.0459,-0.0685 -0.12245,-0.19819 0.41511,-0.57848 0.34899,-0.84094 -0.23815,-0.40366 -0.05,1.35949 0.11133,1.32822 0.0458,0.10047 0.0911,0.20115 0.13729,0.30143 0.0284,0.0617 0.12138,0.12546 0.0868,0.18437 -0.0277,0.0472 -0.10913,-0.0357 -0.16401,-0.0527 -0.84387,-0.26148 -1.38171,-0.2933 -2.21054,0.10329 -0.10525,0.0858 -0.21705,0.16516 -0.31576,0.25743 -0.0237,0.0221 0.063,-0.0244 0.0884,-0.045 0.0703,-0.0566 0.13603,-0.11833 0.19624,-0.18415 0.36576,-0.39987 0.66944,-0.84717 0.94449,-1.30379 0.0596,-0.0986 0.73006,-1.34009 0.73106,-1.34012 0.30123,-0.0104 -0.21011,1.54626 0.50584,0.69577 0.71232,0.46792 0.60802,0.51931 1.50006,0.62195 0.0829,0.01 0.19265,0.008 0.24404,-0.0529 0.0387,-0.0461 -0.12571,-0.0188 -0.18842,-0.0133 -0.35039,0.0306 -0.53523,0.11453 -0.88375,0.22383 -0.13968,0.056 -1.1184,0.52824 -1.17104,0.43904 -0.0596,-0.10105 0.0254,-0.24648 -0.0685,-0.33974 -0.17587,-0.28502 -0.14842,-0.006 -0.0936,0.11706 0.14335,0.32214 0.40486,0.5755 0.61337,0.85935 0.5642,0.42478 0.18848,0.21789 -0.13045,0.54616 -0.0473,0.0486 -0.13465,0.10477 -0.11204,0.16685 0.0175,0.048 0.10392,-0.031 0.15588,-0.0465 0.32995,-0.0971 0.5641,-0.49831 0.60139,-0.80491 0.002,-0.0437 -0.016,-0.0916 0.005,-0.13096 0.0321,-0.062 0.14211,-0.0478 0.19941,-0.0916 0.11583,-0.0883 0.0151,-0.33237 0.25992,-0.33001 -0.12035,-0.37329 -0.36863,-0.0544 -0.43178,0.18381 -0.0135,0.0445 6e-4,0.10742 -0.0404,0.13356 -0.035,0.0224 -0.2099,-0.11743 -0.3146,-0.16932 -0.44442,-0.22029 -0.96026,-0.43245 -1.46283,-0.23304 0.25476,0.23622 1.01712,-0.4443 1.16904,-0.62512 0.0455,-0.0469 0.0693,-0.15124 0.13642,-0.14078 0.0412,0.006 0.24302,0.82488 0.55573,0.62601 -0.21645,-0.52375 -1.24069,-0.39977 -1.69776,-0.40976 -0.0299,-0.0149 -0.10051,-0.0149 -0.0896,-0.0447 0.0414,-0.11324 0.15864,-0.19061 0.21502,-0.29815 0.0783,-0.14937 0.15163,-0.3044 0.18629,-0.46735 0.0545,-0.25653 0.0541,-0.5203 -0.0771,-0.75427 -0.008,-0.0135 -0.032,0.006 -0.0479,0.009 -0.002,0.052 -0.0512,0.18184 -0.031,0.23163 0.0778,0.19126 0.31856,0.26986 0.48694,0.37118 0.0202,0.0115 0.2219,0.13075 0.25907,0.13446 0.18157,0.0182 0.57205,-0.19977 0.58264,0.0567 -0.0158,0.0996 -0.0457,0.19818 -0.0474,0.29886 -0.002,0.11822 0.27545,1.19252 0.43502,0.7186 -0.20002,-0.52194 -1.07332,-0.35306 -1.51991,-0.29796 -0.66276,0.1224 -0.0466,-0.32586 -0.53334,-0.464 0.0282,0.32816 0.19942,0.64956 0.36555,0.93603 -0.0435,0.0375 -0.11473,0.0594 -0.13059,0.11251 -0.077,0.2575 1.0911,-0.26005 0.83678,-0.33894 0.43005,-0.42526 0.16324,-0.1066 0.44158,-0.13451 0.0546,-0.006 0.008,-0.17411 0.13517,-0.0873 0.0133,-0.0185 0.0171,-0.0486 0.0398,-0.0554 0.0734,-0.0222 0.15656,-0.003 0.22967,-0.0262 0.14146,-0.0441 0.24048,-0.25878 -0.002,-0.22015 -0.4271,0.10882 -0.52661,0.35863 -0.52272,0.76882 0.0785,0.71841 0.35908,1.35575 0.73593,1.97841 -0.0404,0.0225 -0.0808,0.045 -0.12116,0.0676 6e-5,0.0292 0.0208,0.0655 1.9e-4,0.0877 -0.0565,0.0609 -0.15684,0.0777 -0.21155,0.14002 -0.10505,0.11967 0.37375,0.17203 0.35611,-0.0331 0.62692,-0.54778 0.79498,-1.35591 0.75708,-2.13075 -0.093,-0.56968 -0.27349,-1.11587 -0.80391,-1.46258 -0.19651,-0.0827 -0.43841,-0.20853 -0.6652,-0.19413 -0.12766,0.008 -0.25167,0.0431 -0.37748,0.0647 -0.0588,0.0101 -0.11916,0.047 -0.17622,0.0305 -0.0304,-0.009 0.0461,-0.0409 0.0691,-0.0613 -3.99698,2.22595 -7.38852,-3.02068 -3.39154,-5.24663 z"
       inkscape:connector-curvature="0" />
    <path
       inkscape:connector-curvature="0"
       d="m 350.38001,412.48907 c 1.55618,-0.73092 3.30892,-1.0329 5.04331,-0.77479 0.42837,0.0638 0.84287,0.19121 1.26431,0.28682 2.29592,0.78963 4.0766,2.34676 4.97983,4.47559 0.17551,0.41367 0.27909,0.85063 0.41863,1.27594 0.42175,2.15232 0.17566,4.40957 -1.03112,6.32683 -0.23999,0.38128 -0.54491,0.724 -0.81736,1.08599 -0.31639,0.298 -0.60116,0.62811 -0.94917,0.89402 -1.6764,1.28086 -3.89349,1.81822 -6.00205,1.18506 -0.54404,-0.16337 -1.03593,-0.44963 -1.55389,-0.67445 -1.91691,-1.25082 -3.21099,-3.06914 -3.79065,-5.17255 -0.10218,-0.37077 -0.15516,-0.75173 -0.23274,-1.12759 -0.24121,-2.03009 0.29411,-4.0427 1.76883,-5.59778 0.28509,-0.30062 0.6292,-0.54819 0.94379,-0.82229 1.54229,-1.02896 3.39292,-1.59949 5.30184,-1.19903 1.3104,0.27492 1.55777,0.54177 2.62398,1.18705 1.53624,1.27355 2.42407,2.9311 2.35204,4.87231 -0.044,1.18569 -0.29616,1.55163 -0.73,2.65102 -0.2259,0.3636 -0.41608,0.74844 -0.67768,1.09079 -1.09673,1.43528 -2.8424,2.59441 -4.75187,2.85054 -0.56025,0.0752 -1.13182,0.0252 -1.69773,0.0378 -0.49539,-0.10207 -1.00607,-0.15366 -1.48616,-0.30621 -1.86261,-0.59183 -3.37677,-1.91048 -4.25293,-3.53244 -0.19911,-0.36858 -0.33036,-0.76551 -0.49554,-1.14826 -0.084,-0.44585 -0.22535,-0.8856 -0.25215,-1.33753 -0.0864,-1.45519 0.42871,-2.85686 1.44525,-3.9672 0.854,-0.93279 1.33142,-1.07914 2.44199,-1.68793 1.79943,-0.70181 3.77503,-0.99988 5.69603,-0.53774 1.34327,0.32316 1.52427,0.53519 2.6694,1.19426 1.52095,1.18494 2.5587,2.73526 2.45453,4.64602 -0.0683,1.25203 -0.40433,1.56183 -1.01255,2.64789 -0.32114,0.33029 -0.6065,0.69391 -0.96343,0.99086 -1.34048,1.11518 -3.20753,1.74156 -5.00033,1.73422 -0.47512,-0.002 -0.94512,-0.0915 -1.41767,-0.13721 -2.1533,-0.4641 -4.0289,-1.56389 -5.12441,-3.38474 -0.18535,-0.30806 -0.31194,-0.64354 -0.4679,-0.96532 -0.6195,-1.75701 -0.41489,-3.63108 1.0032,-5.03382 0.92467,-0.91466 1.50899,-1.01571 2.6849,-1.47294 2.20111,-0.53208 4.56481,-0.49534 6.61879,0.50369 0.39532,0.19228 0.75025,0.44889 1.12537,0.67334 1.52178,1.20745 2.47519,2.84116 2.28378,4.75077 -0.117,1.16728 -0.43321,1.58018 -0.94481,2.58163 -1.09833,1.65343 -2.70194,3.01039 -4.73167,3.59461 -0.38399,0.11052 -0.78614,0.15668 -1.17921,0.23502 -0.45886,-0.003 -0.92518,0.0674 -1.37657,-0.009 -1.6698,-0.2832 -2.96135,-1.18359 -3.74616,-2.57333 -0.55273,-0.97878 -0.53684,-1.43732 -0.71371,-2.49377 -0.0462,-1.80451 0.46106,-3.55251 1.80988,-4.90684 0.93306,-0.93686 1.32474,-0.99752 2.52905,-1.56921 0.57727,-0.10586 1.14472,-0.2807 1.7318,-0.31758 1.61198,-0.10123 3.2529,0.44155 4.48337,1.39795 1.01738,0.79079 1.16525,1.22281 1.80929,2.24827 0.15638,0.42947 0.36329,0.84585 0.46915,1.28841 0.43278,1.80922 0.0537,3.7583 -1.04034,5.31098 -0.27166,0.38557 -0.61964,0.71984 -0.92946,1.07976 -0.34803,0.27447 -0.6606,0.59322 -1.04407,0.82341 -1.46063,0.87676 -3.10786,1.1637 -4.80712,0.77854 -1.16151,-0.26328 -1.67769,-0.6509 -2.64461,-1.21043 -1.63731,-1.26057 -3.08969,-2.8987 -3.41226,-4.91967 -0.0682,-0.42716 -0.0409,-0.86282 -0.0612,-1.29423 0.0935,-0.4317 0.12969,-0.87761 0.28047,-1.29512 0.78303,-2.16819 2.6686,-3.27484 4.75911,-4.21332 1.94653,-0.72536 4.2544,-1.24349 6.15762,-0.0541 0.49968,0.31228 0.84731,0.79496 1.27096,1.19244 0.22623,0.52758 0.53211,1.03145 0.67869,1.58275 0.50042,1.88221 -0.49872,3.94543 -1.41246,5.57176 -0.75865,1.13667 -1.50009,2.44082 -2.69703,3.24904 -0.3391,0.22898 -0.71511,0.4067 -1.07268,0.61005 -0.52349,0.11471 -1.03301,0.3248 -1.5705,0.34415 -2.06247,0.0742 -3.63351,-1.18809 -4.63477,-2.72585 -0.18954,-0.2911 -0.33817,-0.60353 -0.50727,-0.90529 -0.71565,-1.61485 -1.17952,-3.40177 -0.74867,-5.14582 0.0972,-0.39343 0.27508,-0.76584 0.41261,-1.14876 0.23273,-0.35706 0.41494,-0.7471 0.6982,-1.07118 0.89281,-1.02142 2.176,-1.72115 3.57325,-1.94452 1.27353,-0.20359 1.57965,-0.0671 2.82183,0.10896 1.64086,0.52142 3.25525,1.33771 4.1752,2.77189 0.25501,0.39754 0.40064,0.84733 0.60096,1.27101 1.45908,4.10905 -4.80163,6.02431 -6.26071,1.91525 l 0,0 c 0.19695,0.24539 0.32804,0.45963 0.40146,0.37765 0.0854,-0.0953 -0.20107,-0.1674 -0.27432,-0.27105 -0.0159,-0.0225 0.0306,-0.0457 0.0459,-0.0685 -0.12245,-0.19819 0.41511,-0.57848 0.34899,-0.84094 -0.23815,-0.40366 -0.05,1.35949 0.11133,1.32822 0.0458,0.10047 0.0911,0.20115 0.13729,0.30143 0.0284,0.0617 0.12138,0.12546 0.0868,0.18437 -0.0277,0.0472 -0.10913,-0.0357 -0.16401,-0.0527 -0.84387,-0.26148 -1.38171,-0.2933 -2.21054,0.10329 -0.10525,0.0858 -0.21705,0.16516 -0.31576,0.25743 -0.0237,0.0221 0.063,-0.0244 0.0884,-0.045 0.0703,-0.0566 0.13603,-0.11833 0.19624,-0.18415 0.36576,-0.39987 0.66944,-0.84717 0.94449,-1.30379 0.0596,-0.0986 0.73006,-1.34009 0.73106,-1.34012 0.30123,-0.0104 -0.21011,1.54626 0.50584,0.69577 0.71232,0.46792 0.60802,0.51931 1.50006,0.62195 0.0829,0.01 0.19265,0.008 0.24404,-0.0529 0.0387,-0.0461 -0.12571,-0.0188 -0.18842,-0.0133 -0.35039,0.0306 -0.53523,0.11453 -0.88375,0.22383 -0.13968,0.056 -1.1184,0.52824 -1.17104,0.43904 -0.0596,-0.10105 0.0254,-0.24648 -0.0685,-0.33974 -0.17587,-0.28502 -0.14842,-0.006 -0.0936,0.11706 0.14335,0.32214 0.40486,0.5755 0.61337,0.85935 0.5642,0.42478 0.18848,0.21789 -0.13045,0.54616 -0.0473,0.0486 -0.13465,0.10477 -0.11204,0.16685 0.0175,0.048 0.10392,-0.031 0.15588,-0.0465 0.32995,-0.0971 0.5641,-0.49831 0.60139,-0.80491 0.002,-0.0437 -0.016,-0.0916 0.005,-0.13096 0.0321,-0.062 0.14211,-0.0478 0.19941,-0.0916 0.11583,-0.0883 0.0151,-0.33237 0.25992,-0.33001 -0.12035,-0.37329 -0.36863,-0.0544 -0.43178,0.18381 -0.0135,0.0445 6e-4,0.10742 -0.0404,0.13356 -0.035,0.0224 -0.2099,-0.11743 -0.3146,-0.16932 -0.44442,-0.22029 -0.96026,-0.43245 -1.46283,-0.23304 0.25476,0.23622 1.01712,-0.4443 1.16904,-0.62512 0.0455,-0.0469 0.0693,-0.15124 0.13642,-0.14078 0.0412,0.006 0.24302,0.82488 0.55573,0.62601 -0.21645,-0.52375 -1.24069,-0.39977 -1.69776,-0.40976 -0.0299,-0.0149 -0.10051,-0.0149 -0.0896,-0.0447 0.0414,-0.11324 0.15864,-0.19061 0.21502,-0.29815 0.0783,-0.14937 0.15163,-0.3044 0.18629,-0.46735 0.0545,-0.25653 0.0541,-0.5203 -0.0771,-0.75427 -0.008,-0.0135 -0.032,0.006 -0.0479,0.009 -0.002,0.052 -0.0512,0.18184 -0.031,0.23163 0.0778,0.19126 0.31856,0.26986 0.48694,0.37118 0.0202,0.0115 0.2219,0.13075 0.25907,0.13446 0.18157,0.0182 0.57205,-0.19977 0.58264,0.0567 -0.0158,0.0996 -0.0457,0.19818 -0.0474,0.29886 -0.002,0.11822 0.27545,1.19252 0.43502,0.7186 -0.20002,-0.52194 -1.07332,-0.35306 -1.51991,-0.29796 -0.66276,0.1224 -0.0466,-0.32586 -0.53334,-0.464 0.0282,0.32816 0.19942,0.64956 0.36555,0.93603 -0.0435,0.0375 -0.11473,0.0594 -0.13059,0.11251 -0.077,0.2575 1.0911,-0.26005 0.83678,-0.33894 0.43005,-0.42526 0.16324,-0.1066 0.44158,-0.13451 0.0546,-0.006 0.008,-0.17411 0.13517,-0.0873 0.0133,-0.0185 0.0171,-0.0486 0.0398,-0.0554 0.0734,-0.0222 0.15656,-0.003 0.22967,-0.0262 0.14146,-0.0441 0.24048,-0.25878 -0.002,-0.22015 -0.4271,0.10882 -0.52661,0.35863 -0.52272,0.76882 0.0785,0.71841 0.35908,1.35575 0.73593,1.97841 -0.0404,0.0225 -0.0808,0.045 -0.12116,0.0676 6e-5,0.0292 0.0208,0.0655 1.9e-4,0.0877 -0.0565,0.0609 -0.15684,0.0777 -0.21155,0.14002 -0.10505,0.11967 0.37375,0.17203 0.35611,-0.0331 0.62692,-0.54778 0.79498,-1.35591 0.75708,-2.13075 -0.093,-0.56968 -0.27349,-1.11587 -0.80391,-1.46258 -0.19651,-0.0827 -0.43841,-0.20853 -0.6652,-0.19413 -0.12766,0.008 -0.25167,0.0431 -0.37748,0.0647 -0.0588,0.0101 -0.11916,0.047 -0.17622,0.0305 -0.0304,-0.009 0.0461,-0.0409 0.0691,-0.0613 -3.99698,2.22595 -7.38852,-3.02068 -3.39154,-5.24663 z"
       id="path8493"
       style="fill:#000000;fill-opacity:1;fill-rule:nonzero;stroke:none" />
    <path
       style="fill:#000000;fill-opacity:1;fill-rule:nonzero;stroke:none"
       id="path8495"
       d="m 230.26607,422.66393 c -0.99045,3.86114 -2.5921,7.49787 -4.26637,11.09896 -1.32221,2.46355 -2.53582,4.9741 -3.36319,7.64772 -0.11727,0.53053 -0.28253,1.01934 -0.48798,1.52076 -1.37043,2.61904 -5.07432,0.68096 -3.70389,-1.93808 l 0,0 c -0.0372,0.11378 -0.1206,0.46075 -0.11169,0.34136 0.0299,-0.40111 0.28398,-0.76673 0.31191,-1.16568 0.88993,-2.84849 2.1422,-5.54605 3.56421,-8.16847 1.52762,-3.28566 2.9976,-6.59117 3.94725,-10.10141 0.54083,-2.90603 4.65057,-2.14119 4.10975,0.76484 z"
       inkscape:connector-curvature="0" />
    <path
       inkscape:connector-curvature="0"
       d="m 243.85084,422.48192 c -0.99045,3.86113 -2.5921,7.49787 -4.26637,11.09896 -1.32221,2.46355 -2.53582,4.9741 -3.36319,7.64771 -0.11727,0.53054 -0.28253,1.01935 -0.48798,1.52077 -1.37043,2.61904 -5.07432,0.68096 -3.70389,-1.93808 l 0,0 c -0.0372,0.11378 -0.1206,0.46075 -0.11169,0.34136 0.0299,-0.40112 0.28398,-0.76673 0.31191,-1.16568 0.88993,-2.84849 2.1422,-5.54605 3.56421,-8.16847 1.52762,-3.28566 2.9976,-6.59117 3.94725,-10.10141 0.54083,-2.90603 4.65057,-2.14119 4.10975,0.76484 z"
       id="path8499"
       style="fill:#000000;fill-opacity:1;fill-rule:nonzero;stroke:none" />
    <path
       inkscape:connector-curvature="0"
       d="m 258.13694,422.6389 c -0.99046,3.86114 -2.59211,7.49787 -4.26638,11.09896 -1.3222,2.46355 -2.53582,4.9741 -3.36318,7.64772 -0.11727,0.53054 -0.28253,1.01934 -0.48798,1.52076 -1.37044,2.61905 -5.07432,0.68096 -3.7039,-1.93808 l 0,0 c -0.0372,0.11379 -0.1206,0.46076 -0.11168,0.34137 0.0299,-0.40112 0.28398,-0.76674 0.31191,-1.16569 0.88993,-2.84849 2.1422,-5.54604 3.5642,-8.16847 1.52762,-3.28566 2.9976,-6.59117 3.94726,-10.10141 0.54083,-2.90602 4.65056,-2.14118 4.10975,0.76484 z"
       id="path8501"
       style="fill:#000000;fill-opacity:1;fill-rule:nonzero;stroke:none" />
    <path
       style="fill:#000000;fill-opacity:1;fill-rule:nonzero;stroke:none"
       id="path8503"
       d="m 271.72637,422.80522 c -0.99045,3.86114 -2.5921,7.49787 -4.26637,11.09896 -1.3222,2.46355 -2.53582,4.9741 -3.36318,7.64772 -0.11728,0.53053 -0.28253,1.01934 -0.48798,1.52076 -1.37044,2.61904 -5.07433,0.68096 -3.7039,-1.93808 l 0,0 c -0.0372,0.11378 -0.1206,0.46075 -0.11169,0.34136 0.0299,-0.40111 0.28399,-0.76673 0.31191,-1.16568 0.88993,-2.84849 2.14221,-5.54605 3.56421,-8.16847 1.52762,-3.28566 2.9976,-6.59117 3.94726,-10.10141 0.54082,-2.90603 4.65056,-2.14119 4.10974,0.76484 z"
       inkscape:connector-curvature="0" />
    <path
       inkscape:connector-curvature="0"
       d="m 284.9675,422.9762 c -0.99045,3.86114 -2.5921,7.49787 -4.26637,11.09897 -1.3222,2.46354 -2.53582,4.9741 -3.36318,7.64771 -0.11728,0.53054 -0.28253,1.01935 -0.48798,1.52076 -1.37044,2.61905 -5.07433,0.68097 -3.7039,-1.93808 l 0,0 c -0.0372,0.11379 -0.1206,0.46076 -0.11169,0.34137 0.0299,-0.40112 0.28399,-0.76674 0.31191,-1.16569 0.88993,-2.84848 2.14221,-5.54604 3.56421,-8.16847 1.52762,-3.28566 2.9976,-6.59117 3.94726,-10.10141 0.54082,-2.90602 4.65056,-2.14118 4.10974,0.76484 z"
       id="path8505"
       style="fill:#000000;fill-opacity:1;fill-rule:nonzero;stroke:none" />
    <path
       style="fill:#000000;fill-opacity:1;fill-rule:nonzero;stroke:none"
       id="path8507"
       d="m 298.55227,422.79419 c -0.99045,3.86114 -2.5921,7.49787 -4.26637,11.09897 -1.3222,2.46354 -2.53582,4.97409 -3.36318,7.64771 -0.11728,0.53054 -0.28253,1.01935 -0.48798,1.52076 -1.37044,2.61905 -5.07433,0.68096 -3.7039,-1.93808 l 0,0 c -0.0372,0.11379 -0.1206,0.46076 -0.11169,0.34137 0.0299,-0.40112 0.28399,-0.76674 0.31191,-1.16569 0.88993,-2.84848 2.14221,-5.54604 3.56421,-8.16847 1.52762,-3.28566 2.9976,-6.59117 3.94726,-10.10141 0.54082,-2.90602 4.65056,-2.14118 4.10974,0.76484 z"
       inkscape:connector-curvature="0" />
    <path
       style="fill:#000000;fill-opacity:1;fill-rule:nonzero;stroke:none"
       id="path8509"
       d="m 312.83837,422.95118 c -0.99045,3.86113 -2.59211,7.49787 -4.26637,11.09896 -1.32221,2.46354 -2.53582,4.9741 -3.36319,7.64771 -0.11727,0.53054 -0.28253,1.01935 -0.48798,1.52077 -1.37043,2.61904 -5.07432,0.68096 -3.7039,-1.93809 l 0,0 c -0.0372,0.11379 -0.12059,0.46076 -0.11168,0.34137 0.0299,-0.40112 0.28398,-0.76673 0.31191,-1.16568 0.88993,-2.84849 2.1422,-5.54605 3.56421,-8.16848 1.52762,-3.28566 2.99759,-6.59117 3.94725,-10.1014 0.54083,-2.90603 4.65056,-2.14119 4.10975,0.76484 z"
       inkscape:connector-curvature="0" />
    <path
       inkscape:connector-curvature="0"
       d="m 326.42781,423.1175 c -0.99046,3.86113 -2.59211,7.49786 -4.26638,11.09896 -1.3222,2.46354 -2.53581,4.9741 -3.36318,7.64771 -0.11727,0.53054 -0.28253,1.01935 -0.48798,1.52076 -1.37044,2.61905 -5.07432,0.68097 -3.7039,-1.93808 l 0,0 c -0.0372,0.11379 -0.1206,0.46076 -0.11168,0.34137 0.0299,-0.40112 0.28398,-0.76674 0.31191,-1.16569 0.88993,-2.84848 2.1422,-5.54604 3.5642,-8.16847 1.52762,-3.28566 2.9976,-6.59117 3.94726,-10.10141 0.54083,-2.90602 4.65056,-2.14118 4.10975,0.76485 z"
       id="path8511"
       style="fill:#000000;fill-opacity:1;fill-rule:nonzero;stroke:none" />
    <path
       inkscape:connector-curvature="0"
       d="m 340.36091,422.93081 c -0.99045,3.86113 -2.5921,7.49787 -4.26637,11.09896 -1.3222,2.46354 -2.53582,4.9741 -3.36318,7.64771 -0.11727,0.53054 -0.28253,1.01935 -0.48798,1.52077 -1.37044,2.61904 -5.07432,0.68096 -3.7039,-1.93809 l 0,0 c -0.0372,0.11379 -0.1206,0.46076 -0.11169,0.34137 0.0299,-0.40112 0.28399,-0.76673 0.31192,-1.16568 0.88993,-2.84849 2.1422,-5.54605 3.5642,-8.16848 1.52762,-3.28566 2.9976,-6.59117 3.94726,-10.1014 0.54083,-2.90603 4.65056,-2.14119 4.10974,0.76484 z"
       id="path8513"
       style="fill:#000000;fill-opacity:1;fill-rule:nonzero;stroke:none" />
    <path
       style="fill:#000000;fill-opacity:1;fill-rule:nonzero;stroke:none"
       id="path8515"
       d="m 353.94569,422.7488 c -0.99046,3.86113 -2.59211,7.49787 -4.26637,11.09896 -1.32221,2.46354 -2.53582,4.9741 -3.36319,7.64771 -0.11727,0.53054 -0.28253,1.01935 -0.48798,1.52077 -1.37044,2.61904 -5.07432,0.68096 -3.7039,-1.93809 l 0,0 c -0.0372,0.11379 -0.1206,0.46076 -0.11168,0.34137 0.0299,-0.40112 0.28398,-0.76673 0.31191,-1.16568 0.88993,-2.84849 2.1422,-5.54605 3.5642,-8.16848 1.52762,-3.28566 2.9976,-6.59117 3.94726,-10.1014 0.54083,-2.90603 4.65056,-2.14119 4.10975,0.76484 z"
       inkscape:connector-curvature="0" />
    <path
       style="fill:#000000;fill-opacity:1;fill-rule:nonzero;stroke:none"
       id="path8517"
       d="m 368.23178,422.90578 c -0.99045,3.86114 -2.5921,7.49787 -4.26637,11.09896 -1.3222,2.46355 -2.53582,4.9741 -3.36319,7.64771 -0.11727,0.53054 -0.28252,1.01935 -0.48798,1.52077 -1.37043,2.61904 -5.07432,0.68096 -3.70389,-1.93808 l 0,0 c -0.0372,0.11378 -0.1206,0.46075 -0.11169,0.34136 0.0299,-0.40111 0.28398,-0.76673 0.31191,-1.16568 0.88993,-2.84849 2.1422,-5.54605 3.56421,-8.16847 1.52762,-3.28566 2.9976,-6.59117 3.94726,-10.10141 0.54082,-2.90603 4.65056,-2.14119 4.10974,0.76484 z"
       inkscape:connector-curvature="0" />
    <path
       inkscape:connector-curvature="0"
       d="m 381.82122,423.0721 c -0.99045,3.86113 -2.59211,7.49787 -4.26637,11.09896 -1.32221,2.46354 -2.53582,4.9741 -3.36319,7.64771 -0.11727,0.53054 -0.28253,1.01935 -0.48798,1.52077 -1.37043,2.61904 -5.07432,0.68096 -3.70389,-1.93809 l 0,0 c -0.0372,0.11379 -0.1206,0.46076 -0.11169,0.34137 0.0299,-0.40112 0.28398,-0.76673 0.31191,-1.16568 0.88993,-2.84849 2.1422,-5.54605 3.56421,-8.16848 1.52762,-3.28566 2.99759,-6.59117 3.94725,-10.1014 0.54083,-2.90603 4.65056,-2.14119 4.10975,0.76484 z"
       id="path8519"
       style="fill:#000000;fill-opacity:1;fill-rule:nonzero;stroke:none" />
    <path
       style="fill:#000000;fill-opacity:1;fill-rule:nonzero;stroke:none"
       id="path8521"
       d="m 395.06235,423.24308 c -0.99045,3.86114 -2.59211,7.49787 -4.26637,11.09896 -1.32221,2.46355 -2.53582,4.9741 -3.36319,7.64772 -0.11727,0.53054 -0.28253,1.01934 -0.48798,1.52076 -1.37043,2.61905 -5.07432,0.68096 -3.7039,-1.93808 l 0,0 c -0.0372,0.11379 -0.12059,0.46075 -0.11168,0.34136 0.0299,-0.40111 0.28398,-0.76673 0.31191,-1.16568 0.88993,-2.84849 2.1422,-5.54605 3.56421,-8.16847 1.52762,-3.28566 2.99759,-6.59117 3.94725,-10.10141 0.54083,-2.90603 4.65056,-2.14118 4.10975,0.76484 z"
       inkscape:connector-curvature="0" />
    <path
       inkscape:connector-curvature="0"
       d="m 408.64712,423.06107 c -0.99045,3.86114 -2.59211,7.49787 -4.26637,11.09896 -1.32221,2.46355 -2.53582,4.9741 -3.36319,7.64772 -0.11727,0.53053 -0.28253,1.01934 -0.48798,1.52076 -1.37043,2.61904 -5.07432,0.68096 -3.7039,-1.93808 l 0,0 c -0.0372,0.11379 -0.12059,0.46075 -0.11168,0.34136 0.0299,-0.40111 0.28398,-0.76673 0.31191,-1.16568 0.88993,-2.84849 2.1422,-5.54605 3.56421,-8.16847 1.52762,-3.28566 2.99759,-6.59117 3.94725,-10.10141 0.54083,-2.90603 4.65056,-2.14119 4.10975,0.76484 z"
       id="path8523"
       style="fill:#000000;fill-opacity:1;fill-rule:nonzero;stroke:none" />
    <path
       inkscape:connector-curvature="0"
       d="m 422.93321,423.21805 c -0.99045,3.86114 -2.5921,7.49787 -4.26637,11.09897 -1.3222,2.46354 -2.53582,4.9741 -3.36318,7.64771 -0.11728,0.53054 -0.28253,1.01935 -0.48798,1.52076 -1.37044,2.61905 -5.07433,0.68097 -3.7039,-1.93808 l 0,0 c -0.0372,0.11379 -0.1206,0.46076 -0.11169,0.34137 0.0299,-0.40112 0.28399,-0.76674 0.31191,-1.16569 0.88993,-2.84848 2.14221,-5.54604 3.56421,-8.16847 1.52762,-3.28566 2.9976,-6.59117 3.94726,-10.10141 0.54082,-2.90602 4.65056,-2.14118 4.10974,0.76484 z"
       id="path8525"
       style="fill:#000000;fill-opacity:1;fill-rule:nonzero;stroke:none" />
    <path
       style="fill:#000000;fill-opacity:1;fill-rule:nonzero;stroke:none"
       id="path8527"
       d="m 436.52265,423.38437 c -0.99045,3.86114 -2.5921,7.49787 -4.26637,11.09896 -1.3222,2.46355 -2.53582,4.9741 -3.36319,7.64772 -0.11727,0.53054 -0.28252,1.01934 -0.48798,1.52076 -1.37043,2.61905 -5.07432,0.68096 -3.70389,-1.93808 l 0,0 c -0.0372,0.11379 -0.1206,0.46076 -0.11169,0.34137 0.0299,-0.40112 0.28398,-0.76674 0.31191,-1.16569 0.88993,-2.84849 2.1422,-5.54604 3.56421,-8.16847 1.52762,-3.28566 2.9976,-6.59117 3.94726,-10.10141 0.54082,-2.90602 4.65056,-2.14118 4.10974,0.76484 z"
       inkscape:connector-curvature="0" />
    <path
       inkscape:connector-curvature="0"
       d="m 666.04039,273.15929 c 7.34869,12.20095 13.97963,24.82263 20.83817,37.30254 13.20686,23.71251 27.11557,47.02342 40.4261,70.67694 8.24634,14.56302 4.22242,7.48455 12.06801,21.23754 1.46468,2.56753 -2.16636,4.6389 -3.63103,2.07137 l 0,0 c -7.85401,-13.76782 -3.82606,-6.68223 -12.0801,-21.25888 -13.31676,-23.66606 -27.23453,-46.98793 -40.4465,-70.71363 -6.8079,-12.38787 -13.39295,-24.91425 -20.67588,-37.03195 -1.61498,-2.47575 1.88625,-4.75968 3.50123,-2.28393 z"
       id="path8531"
       style="fill:#000000;fill-opacity:1;fill-rule:nonzero;stroke:none" />
    <path
       inkscape:connector-curvature="0"
       d="m 553.84506,269.14317 c 17.75414,-7.83403 36.00144,-14.49199 54.2473,-21.07407 32.46486,-11.87929 65.28554,-22.7322 98.08605,-33.63552 20.67127,-6.96782 10.50233,-3.50848 30.50854,-10.37292 2.79592,-0.95932 4.1526,2.99471 1.35668,3.95403 l 0,0 c -20.03315,6.87361 -9.85154,3.40999 -30.54658,10.38577 -32.76709,10.8922 -65.55448,21.7336 -97.9862,33.60092 -18.15164,6.54751 -36.30517,13.16965 -53.96801,20.9618 -2.70116,1.20051 -4.39894,-2.6195 -1.69778,-3.82001 z"
       id="path8533"
       style="fill:#000000;fill-opacity:1;fill-rule:nonzero;stroke:none" />
    <path
       inkscape:connector-curvature="0"
       d="m 726.07592,208.84632 c -2.385,-6.43622 -5.50929,-12.53641 -8.71064,-18.59584 -3.81783,-6.98428 -7.64106,-13.99805 -12.29235,-20.47605 -3.41438,-4.7553 -4.45424,-5.7294 -8.32963,-10.16639 -8.23646,-8.90585 -17.72486,-16.89836 -28.80687,-22.03935 -2.1542,-0.99934 -4.41221,-1.75765 -6.61831,-2.63646 -12.11136,-3.95022 -24.63361,-3.27893 -36.68426,0.54331 -2.86007,0.90716 -5.63421,2.06576 -8.45133,3.09863 -15.54875,6.5856 -29.70408,16.20096 -40.83765,28.97999 -2.2232,2.55178 -4.16849,5.33294 -6.25273,7.99939 -7.27525,10.79346 -12.37022,22.91535 -13.58916,35.96343 -0.70845,7.58373 -0.0889,11.4523 0.48725,19.02201 1.55393,12.43059 5.72364,24.17868 10.29698,35.75265 1.08526,2.7495 -2.8031,4.28427 -3.88836,1.53478 l 0,0 c -4.71897,-11.96806 -9.00902,-24.11883 -10.57723,-36.97491 -0.59217,-8.01614 -1.22907,-11.96605 -0.44371,-20.0119 1.3416,-13.74424 6.72323,-26.50898 14.4236,-37.86423 2.18065,-2.77697 4.2175,-5.67314 6.54192,-8.33094 11.57238,-13.23202 26.26704,-23.1889 42.40403,-29.99653 2.94082,-1.07168 5.83598,-2.27818 8.82249,-3.21502 12.9253,-4.05451 26.34886,-4.65826 39.30198,-0.38143 2.34409,0.94303 4.743,1.75985 7.0323,2.82909 11.52787,5.3842 21.41611,13.69456 29.98927,22.97959 4.04965,4.64827 5.08268,5.6086 8.65209,10.58718 4.73149,6.59946 8.63039,13.73778 12.51605,20.8508 3.29493,6.23976 6.50241,12.52498 8.95487,19.15305 0.98654,2.78645 -2.95409,4.1816 -3.94061,1.39517 z"
       id="path8535"
       style="fill:#000000;fill-opacity:1;fill-rule:nonzero;stroke:none" />
    <path
       inkscape:connector-curvature="0"
       d="m 638.82113,229.94903 c 1.55618,-0.73092 3.30892,-1.0329 5.04331,-0.77479 0.42837,0.0638 0.84287,0.19121 1.26431,0.28682 2.29592,0.78963 4.0766,2.34676 4.97983,4.47559 0.17551,0.41367 0.27909,0.85063 0.41863,1.27594 0.42175,2.15232 0.17566,4.40957 -1.03112,6.32683 -0.23999,0.38128 -0.54491,0.724 -0.81736,1.08599 -0.31639,0.298 -0.60116,0.62811 -0.94917,0.89402 -1.6764,1.28086 -3.89349,1.81822 -6.00205,1.18506 -0.54404,-0.16337 -1.03593,-0.44963 -1.55389,-0.67445 -1.91691,-1.25082 -3.21099,-3.06914 -3.79065,-5.17255 -0.10218,-0.37077 -0.15516,-0.75173 -0.23274,-1.12759 -0.24121,-2.03009 0.29411,-4.0427 1.76883,-5.59778 0.28509,-0.30062 0.6292,-0.54819 0.94379,-0.82229 1.54229,-1.02896 3.39292,-1.59949 5.30184,-1.19903 1.3104,0.27492 1.55777,0.54177 2.62398,1.18705 1.53624,1.27355 2.42407,2.9311 2.35204,4.87231 -0.044,1.18569 -0.29616,1.55163 -0.73,2.65102 -0.2259,0.3636 -0.41608,0.74844 -0.67768,1.09079 -1.09673,1.43528 -2.8424,2.59441 -4.75187,2.85054 -0.56025,0.0752 -1.13182,0.0252 -1.69773,0.0378 -0.49539,-0.10207 -1.00607,-0.15366 -1.48616,-0.30621 -1.86261,-0.59183 -3.37677,-1.91048 -4.25293,-3.53244 -0.19911,-0.36858 -0.33036,-0.76551 -0.49554,-1.14826 -0.084,-0.44585 -0.22535,-0.8856 -0.25215,-1.33753 -0.0864,-1.45519 0.42871,-2.85686 1.44525,-3.9672 0.854,-0.93279 1.33142,-1.07914 2.44199,-1.68793 1.79943,-0.70181 3.77503,-0.99988 5.69603,-0.53774 1.34327,0.32316 1.52427,0.53519 2.6694,1.19426 1.52095,1.18494 2.5587,2.73526 2.45453,4.64602 -0.0683,1.25203 -0.40433,1.56183 -1.01255,2.64789 -0.32114,0.33029 -0.6065,0.69391 -0.96343,0.99086 -1.34048,1.11518 -3.20753,1.74156 -5.00033,1.73422 -0.47512,-0.002 -0.94512,-0.0915 -1.41767,-0.13721 -2.1533,-0.4641 -4.0289,-1.56389 -5.12441,-3.38474 -0.18535,-0.30806 -0.31194,-0.64354 -0.4679,-0.96532 -0.6195,-1.75701 -0.41489,-3.63108 1.0032,-5.03382 0.92467,-0.91466 1.50899,-1.01571 2.6849,-1.47294 2.20111,-0.53208 4.56481,-0.49534 6.61879,0.50369 0.39532,0.19228 0.75025,0.44889 1.12537,0.67334 1.52178,1.20745 2.47519,2.84116 2.28378,4.75077 -0.117,1.16728 -0.43321,1.58018 -0.94481,2.58163 -1.09833,1.65343 -2.70194,3.01039 -4.73167,3.59461 -0.38399,0.11052 -0.78614,0.15668 -1.17921,0.23502 -0.45886,-0.003 -0.92518,0.0674 -1.37657,-0.009 -1.6698,-0.2832 -2.96135,-1.18359 -3.74616,-2.57333 -0.55273,-0.97878 -0.53684,-1.43732 -0.71371,-2.49377 -0.0462,-1.80451 0.46106,-3.55251 1.80988,-4.90684 0.93306,-0.93686 1.32474,-0.99752 2.52905,-1.56921 0.57727,-0.10586 1.14472,-0.2807 1.7318,-0.31758 1.61198,-0.10123 3.2529,0.44155 4.48337,1.39795 1.01738,0.79079 1.16525,1.22281 1.80929,2.24827 0.15638,0.42947 0.36329,0.84585 0.46915,1.28841 0.43278,1.80922 0.0537,3.7583 -1.04034,5.31098 -0.27166,0.38557 -0.61964,0.71984 -0.92946,1.07976 -0.34803,0.27447 -0.6606,0.59322 -1.04407,0.82341 -1.46063,0.87676 -3.10786,1.1637 -4.80712,0.77854 -1.16151,-0.26328 -1.67769,-0.6509 -2.64461,-1.21043 -1.63731,-1.26057 -3.08969,-2.8987 -3.41226,-4.91967 -0.0682,-0.42716 -0.0409,-0.86282 -0.0612,-1.29423 0.0935,-0.4317 0.12969,-0.87761 0.28047,-1.29512 0.78303,-2.16819 2.6686,-3.27484 4.75911,-4.21332 1.94653,-0.72536 4.2544,-1.24349 6.15762,-0.0541 0.49968,0.31228 0.84731,0.79496 1.27096,1.19244 0.22623,0.52758 0.53211,1.03145 0.67869,1.58275 0.50042,1.88221 -0.49872,3.94543 -1.41246,5.57176 -0.75865,1.13667 -1.50009,2.44082 -2.69703,3.24904 -0.3391,0.22898 -0.71511,0.4067 -1.07268,0.61005 -0.52349,0.11471 -1.03301,0.3248 -1.5705,0.34415 -2.06247,0.0742 -3.63351,-1.18809 -4.63477,-2.72585 -0.18954,-0.2911 -0.33817,-0.60353 -0.50727,-0.90529 -0.71565,-1.61485 -1.17952,-3.40177 -0.74867,-5.14582 0.0972,-0.39343 0.27508,-0.76584 0.41261,-1.14876 0.23273,-0.35706 0.41494,-0.7471 0.6982,-1.07118 0.89281,-1.02142 2.176,-1.72115 3.57325,-1.94452 1.27353,-0.20359 1.57965,-0.0671 2.82183,0.10896 1.64086,0.52142 3.25525,1.33771 4.1752,2.77189 0.25501,0.39754 0.40064,0.84733 0.60096,1.27101 1.45908,4.10905 -4.80163,6.02431 -6.26071,1.91525 l 0,0 c 0.19695,0.24539 0.32804,0.45963 0.40146,0.37765 0.0854,-0.0953 -0.20107,-0.1674 -0.27432,-0.27105 -0.0159,-0.0225 0.0306,-0.0457 0.0459,-0.0685 -0.12245,-0.19819 0.41511,-0.57848 0.34899,-0.84094 -0.23815,-0.40366 -0.05,1.35949 0.11133,1.32822 0.0458,0.10047 0.0911,0.20115 0.13729,0.30143 0.0284,0.0617 0.12138,0.12546 0.0868,0.18437 -0.0277,0.0472 -0.10913,-0.0357 -0.16401,-0.0527 -0.84387,-0.26148 -1.38171,-0.2933 -2.21054,0.10329 -0.10525,0.0858 -0.21705,0.16516 -0.31576,0.25743 -0.0237,0.0221 0.063,-0.0244 0.0884,-0.045 0.0703,-0.0566 0.13603,-0.11833 0.19624,-0.18415 0.36576,-0.39987 0.66944,-0.84717 0.94449,-1.30379 0.0596,-0.0986 0.73006,-1.34009 0.73106,-1.34012 0.30123,-0.0104 -0.21011,1.54626 0.50584,0.69577 0.71232,0.46792 0.60802,0.51931 1.50006,0.62195 0.0829,0.01 0.19265,0.008 0.24404,-0.0529 0.0387,-0.0461 -0.12571,-0.0188 -0.18842,-0.0133 -0.35039,0.0306 -0.53523,0.11453 -0.88375,0.22383 -0.13968,0.056 -1.1184,0.52824 -1.17104,0.43904 -0.0596,-0.10105 0.0254,-0.24648 -0.0685,-0.33974 -0.17587,-0.28502 -0.14842,-0.006 -0.0936,0.11706 0.14335,0.32214 0.40486,0.5755 0.61337,0.85935 0.5642,0.42478 0.18848,0.21789 -0.13045,0.54616 -0.0473,0.0486 -0.13465,0.10477 -0.11204,0.16685 0.0175,0.048 0.10392,-0.031 0.15588,-0.0465 0.32995,-0.0971 0.5641,-0.49831 0.60139,-0.80491 0.002,-0.0437 -0.016,-0.0916 0.005,-0.13096 0.0321,-0.062 0.14211,-0.0478 0.19941,-0.0916 0.11583,-0.0883 0.0151,-0.33237 0.25992,-0.33001 -0.12035,-0.37329 -0.36863,-0.0544 -0.43178,0.18381 -0.0135,0.0445 6e-4,0.10742 -0.0404,0.13356 -0.035,0.0224 -0.2099,-0.11743 -0.3146,-0.16932 -0.44442,-0.22029 -0.96026,-0.43245 -1.46283,-0.23304 0.25476,0.23622 1.01712,-0.4443 1.16904,-0.62512 0.0455,-0.0469 0.0693,-0.15124 0.13642,-0.14078 0.0412,0.006 0.24302,0.82488 0.55573,0.62601 -0.21645,-0.52375 -1.24069,-0.39977 -1.69776,-0.40976 -0.0299,-0.0149 -0.10051,-0.0149 -0.0896,-0.0447 0.0414,-0.11324 0.15864,-0.19061 0.21502,-0.29815 0.0783,-0.14937 0.15163,-0.3044 0.18629,-0.46735 0.0545,-0.25653 0.0541,-0.5203 -0.0771,-0.75427 -0.008,-0.0135 -0.032,0.006 -0.0479,0.009 -0.002,0.052 -0.0512,0.18184 -0.031,0.23163 0.0778,0.19126 0.31856,0.26986 0.48694,0.37118 0.0202,0.0115 0.2219,0.13075 0.25907,0.13446 0.18157,0.0182 0.57205,-0.19977 0.58264,0.0567 -0.0158,0.0996 -0.0457,0.19818 -0.0474,0.29886 -0.002,0.11822 0.27545,1.19252 0.43502,0.7186 -0.20002,-0.52194 -1.07332,-0.35306 -1.51991,-0.29796 -0.66276,0.1224 -0.0466,-0.32586 -0.53334,-0.464 0.0282,0.32816 0.19942,0.64956 0.36555,0.93603 -0.0435,0.0375 -0.11473,0.0594 -0.13059,0.11251 -0.077,0.2575 1.0911,-0.26005 0.83678,-0.33894 0.43005,-0.42526 0.16324,-0.1066 0.44158,-0.13451 0.0546,-0.006 0.008,-0.17411 0.13517,-0.0873 0.0133,-0.0185 0.0171,-0.0486 0.0398,-0.0554 0.0734,-0.0222 0.15656,-0.003 0.22967,-0.0262 0.14146,-0.0441 0.24048,-0.25878 -0.002,-0.22015 -0.4271,0.10882 -0.52661,0.35863 -0.52272,0.76882 0.0785,0.71841 0.35908,1.35575 0.73593,1.97841 -0.0404,0.0225 -0.0808,0.045 -0.12116,0.0676 6e-5,0.0292 0.0208,0.0655 1.9e-4,0.0877 -0.0565,0.0609 -0.15684,0.0777 -0.21155,0.14002 -0.10505,0.11967 0.37375,0.17203 0.35611,-0.0331 0.62692,-0.54778 0.79498,-1.35591 0.75708,-2.13075 -0.093,-0.56968 -0.27349,-1.11587 -0.80391,-1.46258 -0.19651,-0.0827 -0.43841,-0.20853 -0.6652,-0.19413 -0.12766,0.008 -0.25167,0.0431 -0.37748,0.0647 -0.0588,0.0101 -0.11916,0.047 -0.17622,0.0305 -0.0304,-0.009 0.0461,-0.0409 0.0691,-0.0613 -3.99698,2.22595 -7.38852,-3.02068 -3.39154,-5.24663 z"
       id="path8571"
       style="fill:#000000;fill-opacity:1;fill-rule:nonzero;stroke:none" />
    <path
       style="fill:#000000;fill-opacity:1;fill-rule:nonzero;stroke:none"
       id="path8573"
       d="m 733.57474,398.5547 c 1.55618,-0.73092 3.30892,-1.0329 5.04331,-0.77479 0.42837,0.0638 0.84287,0.19121 1.26431,0.28682 2.29592,0.78963 4.0766,2.34676 4.97983,4.47559 0.17551,0.41367 0.27909,0.85063 0.41863,1.27594 0.42175,2.15232 0.17566,4.40957 -1.03112,6.32683 -0.23999,0.38128 -0.54491,0.724 -0.81736,1.08599 -0.31639,0.298 -0.60116,0.62811 -0.94917,0.89402 -1.6764,1.28086 -3.89349,1.81822 -6.00205,1.18506 -0.54404,-0.16337 -1.03593,-0.44963 -1.55389,-0.67445 -1.91691,-1.25082 -3.21099,-3.06914 -3.79065,-5.17255 -0.10218,-0.37077 -0.15516,-0.75173 -0.23274,-1.12759 -0.24121,-2.03009 0.29411,-4.0427 1.76883,-5.59778 0.28509,-0.30062 0.6292,-0.54819 0.94379,-0.82229 1.54229,-1.02896 3.39292,-1.59949 5.30184,-1.19903 1.3104,0.27492 1.55777,0.54177 2.62398,1.18705 1.53624,1.27355 2.42407,2.9311 2.35204,4.87231 -0.044,1.18569 -0.29616,1.55163 -0.73,2.65102 -0.2259,0.3636 -0.41608,0.74844 -0.67768,1.09079 -1.09673,1.43528 -2.8424,2.59441 -4.75187,2.85054 -0.56025,0.0752 -1.13182,0.0252 -1.69773,0.0378 -0.49539,-0.10207 -1.00607,-0.15366 -1.48616,-0.30621 -1.86261,-0.59183 -3.37677,-1.91048 -4.25293,-3.53244 -0.19911,-0.36858 -0.33036,-0.76551 -0.49554,-1.14826 -0.084,-0.44585 -0.22535,-0.8856 -0.25215,-1.33753 -0.0864,-1.45519 0.42871,-2.85686 1.44525,-3.9672 0.854,-0.93279 1.33142,-1.07914 2.44199,-1.68793 1.79943,-0.70181 3.77503,-0.99988 5.69603,-0.53774 1.34327,0.32316 1.52427,0.53519 2.6694,1.19426 1.52095,1.18494 2.5587,2.73526 2.45453,4.64602 -0.0683,1.25203 -0.40433,1.56183 -1.01255,2.64789 -0.32114,0.33029 -0.6065,0.69391 -0.96343,0.99086 -1.34048,1.11518 -3.20753,1.74156 -5.00033,1.73422 -0.47512,-0.002 -0.94512,-0.0915 -1.41767,-0.13721 -2.1533,-0.4641 -4.0289,-1.56389 -5.12441,-3.38474 -0.18535,-0.30806 -0.31194,-0.64354 -0.4679,-0.96532 -0.6195,-1.75701 -0.41489,-3.63108 1.0032,-5.03382 0.92467,-0.91466 1.50899,-1.01571 2.6849,-1.47294 2.20111,-0.53208 4.56481,-0.49534 6.61879,0.50369 0.39532,0.19228 0.75025,0.44889 1.12537,0.67334 1.52178,1.20745 2.47519,2.84116 2.28378,4.75077 -0.117,1.16728 -0.43321,1.58018 -0.94481,2.58163 -1.09833,1.65343 -2.70194,3.01039 -4.73167,3.59461 -0.38399,0.11052 -0.78614,0.15668 -1.17921,0.23502 -0.45886,-0.003 -0.92518,0.0674 -1.37657,-0.009 -1.6698,-0.2832 -2.96135,-1.18359 -3.74616,-2.57333 -0.55273,-0.97878 -0.53684,-1.43732 -0.71371,-2.49377 -0.0462,-1.80451 0.46106,-3.55251 1.80988,-4.90684 0.93306,-0.93686 1.32474,-0.99752 2.52905,-1.56921 0.57727,-0.10586 1.14472,-0.2807 1.7318,-0.31758 1.61198,-0.10123 3.2529,0.44155 4.48337,1.39795 1.01738,0.79079 1.16525,1.22281 1.80929,2.24827 0.15638,0.42947 0.36329,0.84585 0.46915,1.28841 0.43278,1.80922 0.0537,3.7583 -1.04034,5.31098 -0.27166,0.38557 -0.61964,0.71984 -0.92946,1.07976 -0.34803,0.27447 -0.6606,0.59322 -1.04407,0.82341 -1.46063,0.87676 -3.10786,1.1637 -4.80712,0.77854 -1.16151,-0.26328 -1.67769,-0.6509 -2.64461,-1.21043 -1.63731,-1.26057 -3.08969,-2.8987 -3.41226,-4.91967 -0.0682,-0.42716 -0.0409,-0.86282 -0.0612,-1.29423 0.0935,-0.4317 0.12969,-0.87761 0.28047,-1.29512 0.78303,-2.16819 2.6686,-3.27484 4.75911,-4.21332 1.94653,-0.72536 4.2544,-1.24349 6.15762,-0.0541 0.49968,0.31228 0.84731,0.79496 1.27096,1.19244 0.22623,0.52758 0.53211,1.03145 0.67869,1.58275 0.50042,1.88221 -0.49872,3.94543 -1.41246,5.57176 -0.75865,1.13667 -1.50009,2.44082 -2.69703,3.24904 -0.3391,0.22898 -0.71511,0.4067 -1.07268,0.61005 -0.52349,0.11471 -1.03301,0.3248 -1.5705,0.34415 -2.06247,0.0742 -3.63351,-1.18809 -4.63477,-2.72585 -0.18954,-0.2911 -0.33817,-0.60353 -0.50727,-0.90529 -0.71565,-1.61485 -1.17952,-3.40177 -0.74867,-5.14582 0.0972,-0.39343 0.27508,-0.76584 0.41261,-1.14876 0.23273,-0.35706 0.41494,-0.7471 0.6982,-1.07118 0.89281,-1.02142 2.176,-1.72115 3.57325,-1.94452 1.27353,-0.20359 1.57965,-0.0671 2.82183,0.10896 1.64086,0.52142 3.25525,1.33771 4.1752,2.77189 0.25501,0.39754 0.40064,0.84733 0.60096,1.27101 1.45908,4.10905 -4.80163,6.02431 -6.26071,1.91525 l 0,0 c 0.19695,0.24539 0.32804,0.45963 0.40146,0.37765 0.0854,-0.0953 -0.20107,-0.1674 -0.27432,-0.27105 -0.0159,-0.0225 0.0306,-0.0457 0.0459,-0.0685 -0.12245,-0.19819 0.41511,-0.57848 0.34899,-0.84094 -0.23815,-0.40366 -0.05,1.35949 0.11133,1.32822 0.0458,0.10047 0.0911,0.20115 0.13729,0.30143 0.0284,0.0617 0.12138,0.12546 0.0868,0.18437 -0.0277,0.0472 -0.10913,-0.0357 -0.16401,-0.0527 -0.84387,-0.26148 -1.38171,-0.2933 -2.21054,0.10329 -0.10525,0.0858 -0.21705,0.16516 -0.31576,0.25743 -0.0237,0.0221 0.063,-0.0244 0.0884,-0.045 0.0703,-0.0566 0.13603,-0.11833 0.19624,-0.18415 0.36576,-0.39987 0.66944,-0.84717 0.94449,-1.30379 0.0596,-0.0986 0.73006,-1.34009 0.73106,-1.34012 0.30123,-0.0104 -0.21011,1.54626 0.50584,0.69577 0.71232,0.46792 0.60802,0.51931 1.50006,0.62195 0.0829,0.01 0.19265,0.008 0.24404,-0.0529 0.0387,-0.0461 -0.12571,-0.0188 -0.18842,-0.0133 -0.35039,0.0306 -0.53523,0.11453 -0.88375,0.22383 -0.13968,0.056 -1.1184,0.52824 -1.17104,0.43904 -0.0596,-0.10105 0.0254,-0.24648 -0.0685,-0.33974 -0.17587,-0.28502 -0.14842,-0.006 -0.0936,0.11706 0.14335,0.32214 0.40486,0.5755 0.61337,0.85935 0.5642,0.42478 0.18848,0.21789 -0.13045,0.54616 -0.0473,0.0486 -0.13465,0.10477 -0.11204,0.16685 0.0175,0.048 0.10392,-0.031 0.15588,-0.0465 0.32995,-0.0971 0.5641,-0.49831 0.60139,-0.80491 0.002,-0.0437 -0.016,-0.0916 0.005,-0.13096 0.0321,-0.062 0.14211,-0.0478 0.19941,-0.0916 0.11583,-0.0883 0.0151,-0.33237 0.25992,-0.33001 -0.12035,-0.37329 -0.36863,-0.0544 -0.43178,0.18381 -0.0135,0.0445 6e-4,0.10742 -0.0404,0.13356 -0.035,0.0224 -0.2099,-0.11743 -0.3146,-0.16932 -0.44442,-0.22029 -0.96026,-0.43245 -1.46283,-0.23304 0.25476,0.23622 1.01712,-0.4443 1.16904,-0.62512 0.0455,-0.0469 0.0693,-0.15124 0.13642,-0.14078 0.0412,0.006 0.24302,0.82488 0.55573,0.62601 -0.21645,-0.52375 -1.24069,-0.39977 -1.69776,-0.40976 -0.0299,-0.0149 -0.10051,-0.0149 -0.0896,-0.0447 0.0414,-0.11324 0.15864,-0.19061 0.21502,-0.29815 0.0783,-0.14937 0.15163,-0.3044 0.18629,-0.46735 0.0545,-0.25653 0.0541,-0.5203 -0.0771,-0.75427 -0.008,-0.0135 -0.032,0.006 -0.0479,0.009 -0.002,0.052 -0.0512,0.18184 -0.031,0.23163 0.0778,0.19126 0.31856,0.26986 0.48694,0.37118 0.0202,0.0115 0.2219,0.13075 0.25907,0.13446 0.18157,0.0182 0.57205,-0.19977 0.58264,0.0567 -0.0158,0.0996 -0.0457,0.19818 -0.0474,0.29886 -0.002,0.11822 0.27545,1.19252 0.43502,0.7186 -0.20002,-0.52194 -1.07332,-0.35306 -1.51991,-0.29796 -0.66276,0.1224 -0.0466,-0.32586 -0.53334,-0.464 0.0282,0.32816 0.19942,0.64956 0.36555,0.93603 -0.0435,0.0375 -0.11473,0.0594 -0.13059,0.11251 -0.077,0.2575 1.0911,-0.26005 0.83678,-0.33894 0.43005,-0.42526 0.16324,-0.1066 0.44158,-0.13451 0.0546,-0.006 0.008,-0.17411 0.13517,-0.0873 0.0133,-0.0185 0.0171,-0.0486 0.0398,-0.0554 0.0734,-0.0222 0.15656,-0.003 0.22967,-0.0262 0.14146,-0.0441 0.24048,-0.25878 -0.002,-0.22015 -0.4271,0.10882 -0.52661,0.35863 -0.52272,0.76882 0.0785,0.71841 0.35908,1.35575 0.73593,1.97841 -0.0404,0.0225 -0.0808,0.045 -0.12116,0.0676 6e-5,0.0292 0.0208,0.0655 1.9e-4,0.0877 -0.0565,0.0609 -0.15684,0.0777 -0.21155,0.14002 -0.10505,0.11967 0.37375,0.17203 0.35611,-0.0331 0.62692,-0.54778 0.79498,-1.35591 0.75708,-2.13075 -0.093,-0.56968 -0.27349,-1.11587 -0.80391,-1.46258 -0.19651,-0.0827 -0.43841,-0.20853 -0.6652,-0.19413 -0.12766,0.008 -0.25167,0.0431 -0.37748,0.0647 -0.0588,0.0101 -0.11916,0.047 -0.17622,0.0305 -0.0304,-0.009 0.0461,-0.0409 0.0691,-0.0613 -3.99698,2.22595 -7.38852,-3.02068 -3.39154,-5.24663 z"
       inkscape:connector-curvature="0" />
    <path
       style="fill:#000000;fill-opacity:1;fill-rule:nonzero;stroke:none"
       id="path8613"
       d="m 628.91099,253.04784 c 3.89907,2.44562 8.28474,3.97937 12.71228,5.14204 6.00274,1.39214 10.69176,0.15128 15.99122,-2.69236 6.08242,-3.7687 9.92899,-9.5811 13.0387,-15.85381 0.34242,-0.95387 0.68495,-1.90773 1.02743,-2.86159 1.01104,-2.77764 4.93921,-1.34781 3.92817,1.42984 l 0,0 c -0.40453,1.09838 -0.80905,2.19677 -1.21359,3.29515 -3.52421,7.04856 -7.93726,13.51674 -14.82497,17.68501 -6.4691,3.3848 -11.75146,4.67242 -19.0187,3.03836 -4.92239,-1.31724 -9.80417,-3.0212 -14.10834,-5.80849 -2.38589,-1.745 0.0819,-5.11915 2.4678,-3.37415 z"
       inkscape:connector-curvature="0" />
    <path
       style="fill:#000000;fill-opacity:1;fill-rule:nonzero;stroke:none"
       id="path8617"
       d="m 672.4697,237.70816 c -2.44936,1.081 -4.84017,2.28503 -7.08352,3.7501 -0.71978,0.49838 -1.44493,0.99676 -2.10117,1.57817 4.63383,-8.28927 -5.70362,-0.9589 -1.77221,-3.90526 0.034,-0.0484 0.0679,-0.0967 0.10181,-0.14504 1.85719,-2.29963 5.10936,0.32684 3.25217,2.62647 l 0,0 c -0.13331,0.1588 -0.26666,0.31758 -0.39998,0.47637 -1.34894,1.17 -6.55715,3.59067 -4.00421,-2.13624 0.81996,-0.7422 1.7357,-1.37053 2.64356,-1.99828 2.29402,-1.48809 4.71552,-2.77756 7.2343,-3.84371 2.54375,-1.50559 4.67297,2.09183 2.12921,3.59741 z"
       inkscape:connector-curvature="0" />
    <path
       style="fill:#000000;fill-opacity:1;fill-rule:nonzero;stroke:none"
       id="path8621"
       d="m 676.25594,233.48321 c 0.39796,2.65204 0.66156,5.32349 0.91219,7.99389 0.37285,2.42728 0.72287,4.86085 1.02031,7.29934 0.0647,0.35599 0.12944,0.71198 0.19416,1.06797 0.51961,2.9099 -3.59561,3.64475 -4.11522,0.73485 l 0,0 c -0.0764,-0.43448 -0.15287,-0.86896 -0.22931,-1.30344 -0.29307,-2.47568 -0.66404,-4.94327 -1.03199,-7.40852 -0.23466,-2.50558 -0.4886,-5.01007 -0.83626,-7.50174 -0.62392,-2.88933 3.46221,-3.77168 4.08612,-0.88235 z"
       inkscape:connector-curvature="0" />
    <path
       inkscape:connector-curvature="0"
       d="m 645.55677,287.28107 c 1.3806,-4.39064 3.72308,-8.40305 6.33815,-12.1602 3.66494,-4.95371 8.0383,-7.05142 13.916,-8.32543 7.07367,-1.078 13.77172,0.84977 20.20764,3.60588 0.87941,0.50375 1.75889,1.00742 2.63833,1.51112 2.5714,1.45788 4.63314,-2.17863 2.06174,-3.63651 l 0,0 c -1.02043,-0.57343 -2.04085,-1.14687 -3.06128,-1.72029 -7.25469,-3.07763 -14.80926,-5.13694 -22.75499,-3.84059 -7.11887,1.62101 -11.9741,4.06806 -16.44437,10.02621 -2.89138,4.19582 -5.50098,8.6596 -6.9682,13.57306 -0.68359,2.8758 3.3834,3.84254 4.06698,0.96675 z"
       id="path8623"
       style="fill:#000000;fill-opacity:1;fill-rule:nonzero;stroke:none" />
    <path
       inkscape:connector-curvature="0"
       d="m 688.65661,270.69581 c -2.56526,0.76639 -5.16579,1.40116 -7.82344,1.74162 -0.87108,0.0877 -1.74624,0.17886 -2.62283,0.16214 8.90402,3.30194 -3.71837,4.42995 1.18488,4.12163 0.0572,0.0148 0.11442,0.0295 0.17157,0.0443 2.90522,0.54516 3.6762,-3.56343 0.77099,-4.1086 l 0,0 c -0.20447,-0.0344 -0.40896,-0.0687 -0.61343,-0.10303 -1.78559,-0.0152 -7.31945,1.52146 -1.66132,4.22342 1.1055,0.0329 2.21,-0.0831 3.30814,-0.19432 2.71115,-0.35581 5.39046,-0.94547 7.99891,-1.7682 2.91255,-0.5045 2.19906,-4.62348 -0.71349,-4.11896 z"
       id="path8625"
       style="fill:#000000;fill-opacity:1;fill-rule:nonzero;stroke:none" />
    <path
       inkscape:connector-curvature="0"
       d="m 694.27889,271.45467 c -1.41767,-2.27638 -2.95018,-4.48036 -4.49187,-6.67513 -1.29096,-2.08905 -2.60338,-4.16808 -3.95899,-6.21674 -0.18171,-0.31289 -0.3634,-0.62579 -0.5451,-0.93868 -1.49238,-2.55154 -5.10079,-0.441 -3.60842,2.11053 l 0,0 c 0.2237,0.38022 0.4474,0.76046 0.6711,1.14068 1.38308,2.07413 2.70162,4.19264 4.02094,6.30739 1.44693,2.05899 2.87846,4.12966 4.23037,6.25136 1.39966,2.60355 5.08163,0.62414 3.68197,-1.97941 z"
       id="path8627"
       style="fill:#000000;fill-opacity:1;fill-rule:nonzero;stroke:none" />
    <path
       style="fill:#000000;fill-opacity:1;fill-rule:nonzero;stroke:none"
       id="path8641"
       d="m 697.91365,276.40442 c 1.37392,-2.66184 2.23532,-5.57347 3.00196,-8.48341 0.88505,-3.27528 1.68375,-6.57715 2.46584,-9.8815 0.20677,-0.97197 0.43467,-1.94239 0.57432,-2.92864 0.0259,-0.13567 -0.0469,0.13684 -0.004,0.1415 3.56409,0.38759 3.1973,-0.89978 3.35783,1.04661 0.71303,2.37581 1.7281,4.63924 2.7212,6.89874 1.45409,2.9273 2.77464,5.91791 4.20839,8.8572 0.39312,0.80578 0.78625,1.61155 1.17971,2.41714 -1.04018,-0.75768 -1.12841,-0.97485 -2.08043,-0.5925 0.72419,-1.29951 1.00122,-2.74056 1.32174,-4.19102 0.70431,-3.33806 1.13048,-6.72516 1.68582,-10.09204 0.30759,-1.7301 0.52643,-3.47812 0.65487,-5.2331 0.004,-0.0787 -0.0571,-0.21059 0.0137,-0.23585 0.9897,-0.35323 1.98554,-0.90515 3.0291,-0.85015 0.444,0.0234 1.47958,4.99108 1.61535,5.56467 0.9868,4.27428 2.15059,8.51488 3.64878,12.62273 0.76566,1.82751 1.40265,4.0513 2.27167,5.68734 1.46393,1.8987 -1.08291,4.08146 -2.54684,2.18276 l 0,0 c -1.32122,-1.98221 -1.81601,-4.45688 -2.78971,-6.63198 -1.53697,-4.24292 -2.75595,-8.6116 -3.76886,-13.02494 -1.70537,-7.23961 0.51241,2.27695 -0.70067,-3.19114 -0.38889,-1.75297 -0.48008,-1.05972 2.51704,-2.1449 0.0866,-0.0313 -0.0114,0.19286 -0.0173,0.28929 -0.13796,1.86376 -0.36743,3.72045 -0.69355,5.55816 -0.566,3.43146 -1.0016,6.88368 -1.72309,10.28517 -0.46027,2.07832 -0.92408,4.23761 -2.25792,5.91422 -1.56145,0.92088 -1.23059,0.8342 -3.09764,-0.33225 -0.39382,-0.80617 -0.78712,-1.61264 -1.18061,-2.41901 -1.45442,-2.98165 -2.79376,-6.01561 -4.26791,-8.98567 -1.14874,-2.61698 -2.37453,-5.23602 -3.01281,-8.05439 -0.0271,-0.33676 -0.3863,-0.92789 -0.0756,-1.01076 2.95698,-0.78864 3.41814,-1.46715 3.2368,0.0428 -0.15885,1.09363 -0.39976,2.17222 -0.63531,3.24953 -0.79252,3.33416 -1.59387,6.66766 -2.48878,9.97289 -0.89584,3.36429 -1.87689,6.76547 -3.63339,9.75723 -1.47869,1.88594 -4.00841,-0.31884 -2.52972,-2.20478 z"
       inkscape:connector-curvature="0" />
    <path
       inkscape:connector-curvature="0"
       d="m 643.68701,215.41135 c 1.2807,-2.53831 2.06942,-5.30669 2.7677,-8.07227 0.80709,-3.11306 1.53148,-6.25024 2.23998,-9.38954 0.18618,-0.92312 0.39256,-1.84506 0.51453,-2.78085 0.0231,-0.12883 -0.0432,0.13018 -0.002,0.13406 3.40596,0.32195 3.04113,-0.89262 3.21668,0.9487 0.70776,2.24099 1.70249,4.37175 2.67622,6.49905 1.42135,2.75393 2.71597,5.56948 4.11805,8.33502 0.38444,0.75814 0.76887,1.51628 1.15362,2.27424 -1.00142,-0.70441 -1.08811,-0.90895 -1.99232,-0.5348 0.67624,-1.23988 0.9241,-2.60814 1.21336,-3.98587 0.63389,-3.17025 1.00176,-6.38342 1.49314,-9.57907 0.2737,-1.64239 0.46251,-3.30064 0.56496,-4.96433 0.004,-0.0745 -0.0569,-0.19872 0.0104,-0.22353 0.94049,-0.34705 1.88458,-0.88236 2.88117,-0.84348 0.42401,0.0165 1.46935,4.70811 1.6055,5.24962 0.99085,4.0355 2.1502,8.03686 3.62718,11.90826 0.7517,1.72107 1.38514,3.81906 2.2333,5.35749 1.41893,1.77964 -0.98668,3.87908 -2.40563,2.09943 l 0,0 c -1.28369,-1.86055 -1.7843,-4.19794 -2.73855,-6.24556 -1.51553,-3.99884 -2.72904,-8.1208 -3.74638,-12.28766 -1.71064,-6.83474 0.51516,2.14992 -0.70533,-3.01332 -0.39126,-1.65525 -0.47033,-0.99754 2.37762,-2.06319 0.0824,-0.0308 -0.009,0.18279 -0.0132,0.27419 -0.11029,1.76683 -0.30798,3.52811 -0.59814,5.27266 -0.50081,3.25696 -0.87694,6.53191 -1.52649,9.76245 -0.41543,1.9741 -0.83331,4.02496 -2.08707,5.62967 -1.47966,0.8919 -1.16489,0.80562 -2.96015,-0.27545 -0.38512,-0.7585 -0.76972,-1.5173 -1.15452,-2.27599 -1.42228,-2.8054 -2.73534,-5.66178 -4.17633,-8.45595 -1.12636,-2.46388 -2.32629,-4.92875 -2.96779,-7.58983 -0.0298,-0.31858 -0.37932,-0.87387 -0.0837,-0.95629 2.81304,-0.7843 3.24537,-1.43272 3.08963,-3.8e-4 -0.13906,1.03772 -0.3566,2.06227 -0.56904,3.08552 -0.71812,3.16768 -1.44467,6.33483 -2.26083,9.47639 -0.81639,3.19752 -1.71366,6.43104 -3.35571,9.28664 -1.38961,1.8048 -3.82924,-0.25124 -2.43963,-2.05603 z"
       id="path8654"
       style="fill:#000000;fill-opacity:1;fill-rule:nonzero;stroke:none" />
    <path
       style="fill:#000000;fill-opacity:1;fill-rule:nonzero;stroke:none"
       id="path8662"
       d="m 638.5768,402.43036 c 8.03905,0.32442 16.08171,0.30792 24.12493,0.20752 14.84002,-0.40249 29.68674,-0.12864 44.5294,-0.26797 8.29479,-0.0594 4.2994,-0.0208 11.98618,-0.11199 2.95571,-0.035 3.00531,4.14495 0.0496,4.18002 l 0,0 c -7.70335,0.0914 -3.70448,0.0526 -11.99664,0.11202 -14.83836,0.13855 -29.68076,-0.13375 -44.51649,0.26783 -8.04145,0.0999 -16.08304,0.12392 -24.12022,-0.20758 -2.95565,0.0401 -3.01241,-4.1398 -0.0567,-4.17992 z"
       inkscape:connector-curvature="0" />
    <path
       style="fill:#000000;fill-opacity:1;fill-rule:nonzero;stroke:none"
       id="path8666"
       d="m 703.87599,392.56245 c 3.54285,1.30882 6.80286,3.27904 10.16594,4.98844 2.91674,1.5059 5.66057,3.30214 8.28196,5.271 0.53628,0.42403 1.09691,0.82637 1.56596,1.32697 -0.16496,1.07436 -0.14168,2.19511 -0.49486,3.22308 -0.24735,0.71991 -5.21545,2.71401 -5.81099,2.95937 -3.55964,1.38393 -7.29038,2.37152 -10.64111,4.2379 -1.16632,0.75998 -0.63236,0.38662 -1.61059,1.10752 -2.38691,1.74361 -4.85273,-1.632 -2.46582,-3.37559 l 0,0 c 1.26251,-0.91595 0.57546,-0.4439 2.07194,-1.40032 3.51264,-1.89134 7.31934,-3.06606 11.05461,-4.43523 0.0666,-0.0273 2.52114,-1.0267 2.85169,-1.19254 2.05366,-1.03036 1.93463,-2.17799 1.90688,1.63739 -0.31149,-0.25111 -0.62513,-0.49956 -0.93951,-0.74703 -2.42575,-1.82507 -4.96442,-3.49 -7.6644,-4.88602 -3.08226,-1.56688 -6.08312,-3.31985 -9.27068,-4.65575 -2.87028,-0.70639 -1.87129,-4.76558 0.99898,-4.05919 z"
       inkscape:connector-curvature="0" />
    <path
       inkscape:connector-curvature="0"
       d="m 735.14042,501.70001 c 0.35392,-8.0378 0.36693,-16.08047 0.29605,-24.124 -0.34803,-14.8414 -0.0197,-29.68702 -0.10457,-44.53009 -0.029,-8.29495 -0.005,-4.29945 -0.068,-11.98651 -0.0242,-2.95582 4.15595,-2.99008 4.18017,-0.0343 l 0,0 c 0.0631,7.70363 0.039,3.70465 0.068,11.99697 0.0841,14.83877 -0.24266,29.68007 0.10447,44.51717 0.0704,8.04177 0.0649,16.08339 -0.29609,24.1193 0.0293,2.95578 -4.15082,2.9972 -4.1801,0.0414 z"
       id="path8668"
       style="fill:#000000;fill-opacity:1;fill-rule:nonzero;stroke:none" />
    <path
       inkscape:connector-curvature="0"
       d="m 725.5122,436.36505 c 1.32181,-3.53802 3.30398,-6.79078 5.02571,-10.14757 1.51659,-2.91119 3.32289,-5.64841 5.30135,-8.26256 0.426,-0.53472 0.83039,-1.09387 1.33271,-1.56108 1.07375,0.1689 2.19458,0.14974 3.22124,0.50669 0.719,0.24999 2.69486,5.22537 2.93803,5.82181 1.37086,3.56469 2.34475,7.29903 4.19882,10.65659 0.7557,1.1691 0.3843,0.63377 1.10161,1.61464 1.73483,2.39329 -1.6498,4.84671 -3.38462,2.45342 l 0,0 c -0.91131,-1.26587 -0.44179,-0.57709 -1.39271,-2.07707 -1.87844,-3.51956 -3.03918,-7.33054 -4.39463,-11.07081 -0.0271,-0.0667 -1.01744,-2.52489 -1.18207,-2.85605 -1.02282,-2.05742 -2.17088,-1.94261 1.64438,-1.90086 -0.25226,0.31057 -0.50185,0.6233 -0.75048,0.93677 -1.83396,2.41903 -3.50819,4.95158 -4.91411,7.64642 -1.57818,3.07649 -3.34215,6.07089 -4.68974,9.25353 -0.71691,2.86767 -4.77241,1.85379 -4.05549,-1.01387 z"
       id="path8670"
       style="fill:#000000;fill-opacity:1;fill-rule:nonzero;stroke:none" />
    <path
       style="fill:#000000;fill-opacity:1;fill-rule:nonzero;stroke:none"
       id="path8672"
       d="m 639.13483,43.759159 c -0.36596,8.037261 -0.39102,16.079904 -0.33218,24.123524 0.3258,14.84191 -0.0248,29.68702 0.0379,44.530197 0.0166,8.29499 -10e-4,4.29946 0.0501,11.9866 0.0198,2.95586 -4.16042,2.98385 -4.18022,0.028 l 0,0 c -0.0516,-7.70371 -0.0335,-3.7047 -0.05,-11.99706 -0.0619,-14.838877 0.28711,-29.679667 -0.0378,-44.517277 -0.0584,-8.04186 -0.0408,-16.083465 0.33221,-24.118825 -0.0249,-2.95582 4.1553,-2.99098 4.18016,-0.03514 z"
       inkscape:connector-curvature="0" />
    <path
       style="fill:#000000;fill-opacity:1;fill-rule:nonzero;stroke:none"
       id="path8674"
       d="m 648.66518,109.10846 c -1.3271,3.53604 -3.31414,6.78583 -5.0409,10.14004 -1.52095,2.90891 -3.33134,5.64342 -5.31372,8.25461 -0.4268,0.53408 -0.83202,1.09262 -1.33504,1.55908 -1.0735,-0.17051 -2.19436,-0.15303 -3.22048,-0.51151 -0.71863,-0.25107 -2.68703,-5.2294 -2.92931,-5.82621 -1.36552,-3.56674 -2.33381,-7.30253 -4.18285,-10.66286 -0.75395,-1.17024 -0.38335,-0.63435 -1.09919,-1.61629 -1.73125,-2.39589 1.65705,-4.84424 3.38829,-2.44835 l 0,0 c 0.90941,1.26723 0.44092,0.57775 1.38959,2.07915 1.87317,3.52237 3.0282,7.33509 4.37805,11.07738 0.027,0.0667 1.01366,2.52641 1.17779,2.85782 1.01974,2.05895 2.16797,1.94586 -1.64723,1.89839 0.25273,-0.31019 0.50279,-0.62254 0.75189,-0.93564 1.83758,-2.41628 3.5156,-4.94632 4.92555,-7.63905 1.58279,-3.07413 3.35124,-6.06588 4.7036,-9.2465 0.7212,-2.86659 4.77518,-1.84664 4.05396,1.01994 z"
       inkscape:connector-curvature="0" />
    <path
       style="fill:#000000;fill-opacity:1;fill-rule:nonzero;stroke:none"
       id="path8680"
       d="m 749.64288,461.05765 c 0.61856,3.91265 0.80347,7.86804 1.23362,11.80215 0.46031,4.75504 1.24791,9.47307 1.71804,14.22804 0.12569,1.32259 0.22402,2.64715 0.31634,3.97203 0.15757,2.26241 -3.28095,2.46974 -3.4385,0.20734 l 0,0 c -0.0902,-1.29619 -0.18634,-2.59204 -0.3091,-3.88598 -0.46798,-4.74465 -1.25854,-9.45197 -1.71481,-14.19695 -0.4189,-3.83233 -0.61119,-7.68332 -1.18439,-11.49783 -0.47784,-2.22313 2.90097,-2.85193 3.3788,-0.6288 z"
       inkscape:connector-curvature="0" />
    <path
       style="fill:#000000;fill-opacity:1;fill-rule:nonzero;stroke:none"
       id="path8682"
       d="m 747.49186,459.12973 c 3.07344,-0.0189 6.11508,-0.14791 9.12916,0.47337 2.98897,0.99021 5.32145,2.31924 6.70865,5.03208 0.62354,3.30435 -1.69309,5.61235 -4.26279,7.53109 -2.16579,1.42603 -4.52673,2.54256 -6.96134,3.50735 -0.55577,0.20388 -1.10693,0.43261 -1.6916,0.5562 1.40437,-1.23784 0.72171,-2.45725 1.55452,-1.97374 -0.10852,-0.0782 -0.44259,-0.13071 -0.60397,-0.15657 0.69213,-0.009 1.38436,-0.007 2.07654,-0.008 2.59783,-0.12131 4.71602,1.27483 6.69316,2.65922 2.73014,2.12555 4.63753,4.84195 6.21739,7.77013 0.94115,1.85376 1.37659,3.85294 1.56567,5.88106 0.0237,0.0111 0.0474,0.0222 0.0711,0.0332 0.80987,2.13825 -2.43993,3.20397 -3.2498,1.06572 l 0,0 c -0.0849,-0.27561 -0.16974,-0.55121 -0.25461,-0.82681 -0.14535,-1.6239 -0.4713,-3.22888 -1.21385,-4.71843 -1.33505,-2.49179 -2.91818,-4.81481 -5.21561,-6.6485 -1.36209,-0.96624 -2.80031,-2.10162 -4.61172,-2.00937 -0.66595,3.2e-4 -1.33196,-0.002 -1.99787,0.006 -0.50886,-0.036 -0.91756,-0.0774 -1.33838,-0.35096 -1.92641,-1.17752 -1.6217,-1.4746 -0.36496,-3.86871 0.34159,-0.11291 0.67888,-0.23694 1.01551,-0.36211 2.15085,-0.84973 4.23699,-1.82772 6.16456,-3.06588 1.39516,-1.02195 2.81034,-2.10001 3.22281,-3.79909 -0.40392,-1.66326 -2.83272,-2.49284 -4.29987,-3.13124 -2.74008,-0.62419 -5.55349,-0.34023 -8.35272,-0.39092 -2.4365,0 -2.4365,-3.20624 0,-3.20624 z"
       inkscape:connector-curvature="0" />
    <path
       style="fill:#000000;fill-opacity:1;fill-rule:nonzero;stroke:none"
       id="path8684"
       d="m 775.76731,483.00796 c -0.50288,1.92304 -0.73156,3.85091 -0.51186,5.81759 0.003,1.54902 0.74853,1.47265 0.27013,1.08247 0.9849,-0.86364 1.5241,-1.88761 2.0029,-3.05894 0.44867,-1.35377 0.64129,-2.76893 0.74107,-4.17877 0.0664,-1.43604 -0.32135,-0.35868 3.502,-0.62787 1.07533,2.99509 1.88051,6.02319 2.43948,9.13995 0.74224,4.48907 1.07813,8.95955 -0.11555,13.3894 -1.09688,2.83769 -3.71108,5.50081 -7.29532,4.90229 -0.68454,-0.1143 -1.29806,-0.46508 -1.94709,-0.69762 -1.95931,-1.21031 -2.68426,-2.92194 -3.47223,-4.8748 -0.82554,-2.13304 2.41636,-3.21941 3.2419,-1.08635 l 0,0 c 0.40185,1.10383 0.74052,2.1987 1.65804,3.04308 2.0381,1.24809 3.73345,-0.22045 4.47803,-2.08684 1.13926,-3.97627 0.66356,-8.02965 0.053,-12.06416 -0.53302,-3.00546 -1.32195,-5.91729 -2.3596,-8.80455 3.42189,-1.08195 3.32984,-1.91431 3.25533,-0.018 -0.12677,1.73309 -0.37746,3.47033 -0.96703,5.12487 -0.99718,2.35232 -2.39229,4.57774 -5.26464,5.10422 -2.79884,-0.39162 -3.33729,-1.50512 -3.6494,-3.97262 -0.23843,-2.33502 -0.0105,-4.63121 0.59799,-6.91097 0.59093,-2.19946 3.93378,-1.42184 3.34284,0.77763 z"
       inkscape:connector-curvature="0" />
    <path
       inkscape:connector-curvature="0"
       d="m 654.74133,363.52215 c 0.59556,3.92262 0.77358,7.88809 1.18774,11.83222 0.44319,4.76717 1.20151,9.49722 1.65416,14.2643 0.12101,1.32596 0.21568,2.6539 0.30457,3.98216 0.1517,2.26817 -3.15894,2.47603 -3.31063,0.20786 l 0,0 c -0.0869,-1.29949 -0.17941,-2.59864 -0.29761,-3.89588 -0.45057,-4.75674 -1.21174,-9.47605 -1.65104,-14.23313 -0.40332,-3.8421 -0.58846,-7.7029 -1.14034,-11.52713 -0.46007,-2.22879 2.79309,-2.8592 3.25315,-0.6304 z"
       id="path8688"
       style="fill:#000000;fill-opacity:1;fill-rule:nonzero;stroke:none" />
    <path
       inkscape:connector-curvature="0"
       d="m 652.6703,361.58931 c 2.95914,-0.0189 5.88767,-0.14828 8.78966,0.47459 2.87782,0.99272 5.12356,2.32514 6.45917,5.04489 0.60036,3.31278 -1.63012,5.62666 -4.10426,7.55028 -2.08525,1.42967 -4.35839,2.54905 -6.70247,3.5163 -0.5351,0.2044 -1.06576,0.4337 -1.62869,0.55761 1.35215,-1.24099 0.69488,-2.46351 1.49671,-1.97877 -0.10448,-0.0784 -0.42612,-0.13104 -0.58151,-0.15696 0.66639,-0.009 1.33288,-0.007 1.99932,-0.008 2.50122,-0.12163 4.54065,1.27808 6.44426,2.66599 2.62861,2.13097 4.46506,4.85429 5.98617,7.78994 0.90616,1.85847 1.3254,3.86275 1.50745,5.89604 0.0229,0.0111 0.0456,0.0222 0.0685,0.0333 0.77975,2.1437 -2.34919,3.21213 -3.12894,1.06844 l 0,0 c -0.0817,-0.27631 -0.16343,-0.55261 -0.24514,-0.82892 -0.13995,-1.62804 -0.45378,-3.23711 -1.16871,-4.73045 -1.2854,-2.49814 -2.80966,-4.82708 -5.02165,-6.66545 -1.31144,-0.9687 -2.69618,-2.10697 -4.44022,-2.01449 -0.64119,3.2e-4 -1.28243,-0.002 -1.92357,0.006 -0.48995,-0.0361 -0.88345,-0.0776 -1.28862,-0.35186 -1.85476,-1.18051 -1.56138,-1.47836 -0.35138,-3.87856 0.32889,-0.1132 0.65364,-0.23755 0.97774,-0.36304 2.07087,-0.85189 4.07943,-1.83237 5.93531,-3.07369 1.34328,-1.02455 2.70583,-2.10536 3.10297,-3.80877 -0.3889,-1.66749 -2.72739,-2.49919 -4.13997,-3.13922 -2.63819,-0.62578 -5.34697,-0.34109 -8.0421,-0.39192 -2.34589,0 -2.34589,-3.21441 0,-3.21441 z"
       id="path8690"
       style="fill:#000000;fill-opacity:1;fill-rule:nonzero;stroke:none" />
    <path
       style="fill:#000000;fill-opacity:1;fill-rule:nonzero;stroke:none"
       id="path8700"
       d="m 685.42354,385.52839 c -0.79802,2.64176 -2.07067,5.07388 -3.37353,7.50495 -0.85327,1.68364 -1.86379,3.28856 -2.95272,4.8378 -1.32131,1.87811 -4.06259,0.0676 -2.74128,-1.8105 l 0,0 c 1.01603,-1.44264 1.95716,-2.93872 2.74972,-4.50866 1.18396,-2.20897 2.35911,-4.4066 3.09928,-6.80319 0.56896,-2.20507 3.78748,-1.42547 3.21853,0.7796 z"
       inkscape:connector-curvature="0" />
    <path
       style="fill:#000000;fill-opacity:1;fill-rule:nonzero;stroke:none"
       id="path8702"
       d="m 676.62406,386.93907 c 2.66696,1.68585 5.14184,3.6255 7.56798,5.61744 1.16628,0.84984 2.26537,1.77121 3.44922,2.59913 1.90081,1.33205 -0.0435,3.93661 -1.94427,2.60455 l 0,0 c -1.25115,-0.87839 -2.41986,-1.84691 -3.65,-2.75155 -2.37571,-1.95142 -4.80162,-3.84676 -7.41347,-5.49804 -1.87671,-1.36376 0.11384,-3.93529 1.99054,-2.57153 z"
       inkscape:connector-curvature="0" />
    <path
       style="fill:#000000;fill-opacity:1;fill-rule:nonzero;stroke:none"
       id="path8704"
       d="m 653.4806,79.607595 c 0.57376,2.258399 0.7639,4.57451 0.8997,6.885131 0.10763,2.213804 0.12713,4.430197 0.13474,6.64592 8e-4,0.630191 0.002,1.260397 -0.005,1.890565 -3e-4,0.01771 -6.1e-4,0.03549 -7.9e-4,0.0532 -1.11035,-0.166939 -2.2797,-0.127849 -3.33104,-0.500831 -0.13464,-0.04776 0.44315,-3.632271 0.52028,-4.111043 0.31887,-2.585819 0.8904,-5.14071 1.75552,-7.613746 0.79233,-1.597116 1.40577,-3.299561 2.5947,-4.683588 0.48451,-0.507699 1.04004,-0.945127 1.71446,-1.207484 1.96358,-0.567523 2.68585,1.272472 3.1664,2.631337 0.70913,2.546729 1.19026,5.153819 1.69994,7.743827 0.29531,1.675884 0.54355,3.359476 0.72639,5.049391 0.10644,1.451918 0.37018,0.999134 -2.18104,-0.857587 -0.10392,0.05104 -0.19498,0.141777 -0.31176,0.153071 -0.312,0.03013 0.15954,-0.566802 0.2531,-0.84639 0.35253,-1.053431 0.56289,-2.14578 0.85821,-3.214463 0.624,-2.385422 1.2514,-4.779326 2.20162,-7.072745 0.60245,-1.319508 1.1554,-2.595216 2.50938,-3.360949 1.12091,-0.497007 2.15382,-0.380102 3.17945,0.301625 1.29807,1.480078 1.23234,3.552321 1.56226,5.372109 0.43776,2.742878 0.5537,5.506082 1.07094,8.237033 -0.19887,0.08072 1.19307,4.320709 0.54109,2.777027 1.30356,1.831558 -1.47014,3.553131 -2.77371,1.721573 l 0,0 c -0.61624,-1.239609 -0.71804,-2.636143 -1.04722,-3.958374 -0.516,-2.739076 -0.65844,-5.50556 -1.07486,-8.258162 -0.0283,-0.15595 -0.62981,-3.551137 -0.53428,-3.556993 0.0735,-0.0045 0.12675,0.07031 0.19013,0.105455 0.23746,0.01309 0.79515,0.07113 0.44712,0.006 0.33919,-0.784318 -0.76319,1.268276 -0.96996,1.749562 -0.92721,2.16752 -1.4623,4.461556 -2.07816,6.717575 -0.55834,1.999025 -0.74609,4.316082 -2.38007,5.832139 -3.1781,-1.552833 -2.64686,-0.370869 -2.7759,-1.535543 -0.17314,-1.606357 -0.41012,-3.206531 -0.68845,-4.799823 -0.48134,-2.450567 -0.94314,-4.914973 -1.58671,-7.330215 -0.60943,-1.723455 -0.0645,-0.270571 1.14925,-0.688826 0.40193,-0.175256 -0.29153,0.14418 -0.302,0.272818 -0.97348,1.029384 -1.27963,2.484285 -1.99505,3.667856 -0.81035,2.307742 -1.33277,4.694905 -1.6274,7.109202 -0.15751,0.977312 -0.40194,1.978737 -0.48369,2.965007 -0.0187,0.225469 0.22802,0.601003 4.9e-4,0.678424 -1.05383,0.358586 -2.21964,0.302875 -3.32945,0.454317 2.2e-4,-0.01243 4.5e-4,-0.02478 6.7e-4,-0.0372 0.006,-0.615081 0.006,-1.230191 0.005,-1.845286 -0.007,-2.162505 -0.0259,-4.325657 -0.1298,-6.486324 -0.12287,-2.11358 -0.28765,-4.232962 -0.80523,-6.300354 -0.57116,-2.133549 2.65987,-2.887869 3.23104,-0.754328 z"
       inkscape:connector-curvature="0" />
    <path
       style="fill:#000000;fill-opacity:1;fill-rule:nonzero;stroke:none"
       id="path8706"
       d="m 685.48318,78.970366 c -2.57705,0.116741 -3.59986,1.55546 -4.42651,3.641489 -0.89095,2.50258 -0.5888,4.975742 1.07521,7.097364 1.39338,1.249475 1.65096,0.882311 2.32772,-0.443372 0.83289,-2.136621 1.18751,-4.510906 1.00126,-6.779818 -0.11252,-1.240115 -0.38127,-2.377089 -1.08836,-3.428191 -0.49125,-0.54016 -0.80043,-1.151691 -0.94391,-1.848366 -0.0569,-0.297399 -0.0713,-0.597968 -0.064,-0.898991 3.1456,-2.084957 3.60478,1.091583 4.31439,2.561915 1.92541,4.042408 3.12661,8.339012 4.30357,12.611213 1.01428,4.650919 2.31654,9.460351 1.74813,14.250711 -0.10347,0.87203 -0.34906,1.72419 -0.52358,2.58628 -1.03353,3.34972 -3.34147,7.23435 -7.48103,7.76486 -0.78183,0.1002 -1.57719,-0.0554 -2.36579,-0.0831 -5.16158,-1.49523 -7.09331,-6.06271 -7.97418,-10.63262 -0.4062,-2.97124 0.64795,-5.483526 2.25698,-7.961443 1.24567,-1.866363 4.07209,-0.221251 2.82642,1.645112 l 0,0 c -1.24011,1.789181 -2.06273,3.600471 -1.80076,5.791071 0.5364,3.12239 1.66107,6.60823 4.96771,8.05844 0.39157,0.064 0.77719,0.19486 1.1747,0.19203 2.87589,-0.0205 4.43489,-3.2758 5.12798,-5.37411 1.16314,-5.28039 0.0994,-10.277783 -1.18205,-15.462471 -1.12976,-4.102293 -2.27273,-8.23172 -4.11771,-12.114861 -0.11691,-0.245148 -1.54542,-3.394741 -1.26716,-3.478233 1.05452,-0.316431 3.27737,0.927672 3.31742,-0.177362 0.006,0.05751 0.0116,0.115082 0.0171,0.172645 0.002,0.02954 0.0372,0.59567 -0.17284,-0.08139 -0.25997,-0.838117 0.71868,1.510373 0.67524,0.849016 0.97351,1.497956 1.43349,3.11406 1.57563,4.863302 0.16519,2.917665 -0.20371,5.937534 -1.49887,8.619568 -0.32241,0.436907 -0.57622,0.925752 -0.96724,1.310728 -2.18686,2.153064 -5.10751,1.249713 -6.92777,-0.745853 -2.18165,-3.065544 -2.74939,-6.470113 -1.4328,-10.004384 1.51249,-3.437365 3.36772,-5.372503 7.52505,-5.61135 2.355,0 2.355,3.110154 0,3.110154 z"
       inkscape:connector-curvature="0" />
    <path
       style="fill:#000000;fill-opacity:1;fill-rule:nonzero;stroke:none"
       id="path8722"
       d="m 485.73831,102.14427 c 1.38951,5.12329 2.34452,10.3468 3.59548,15.50372 1.11414,5.32187 2.49189,10.57917 3.77558,15.86054 0.20674,0.7728 0.34106,1.56194 0.52369,2.34014 0.0328,0.13956 0.2104,0.52143 0.11508,0.41437 -0.29223,-0.32822 -0.28667,-1.08822 -0.72596,-1.10049 -3.49677,-0.0977 -3.25798,2.43104 -3.21348,0.0851 0.0155,-2.09536 0.0562,-1.00918 -0.14549,-3.25759 -0.24918,-2.9454 3.91624,-3.29781 4.16543,-0.35241 l 0,0 c 0.21381,2.65815 0.17701,1.41846 0.15899,3.7173 -0.0623,2.03273 0.26472,2.55794 -3.37171,3.22591 -0.96415,0.1771 -1.42212,-3.701 -1.56877,-4.08572 -1.28197,-5.28247 -2.66268,-10.53993 -3.77609,-15.86267 -1.26174,-5.21221 -2.23563,-10.48858 -3.63187,-15.66838 -0.57971,-2.89852 3.51942,-3.718343 4.09912,-0.81982 z"
       inkscape:connector-curvature="0" />
    <path
       style="fill:#000000;fill-opacity:1;fill-rule:nonzero;stroke:none"
       id="path8724"
       d="m 482.28841,99.526357 c 3.78844,-1.37978 7.33116,-3.27852 10.74737,-5.4002 3.27813,-1.62739 6.15929,-3.98833 9.37621,-5.699749 0.27469,-0.09523 0.54938,-0.190457 0.82407,-0.285685 2.82532,-0.868928 4.05417,3.126684 1.22885,3.995604 l 0,0 c -0.0529,0.006 -0.10571,0.011 -0.15856,0.0165 -1.06267,0.48846 -2.00097,1.29347 -2.98579,1.91869 -1.99392,1.26585 -4.10084,2.32213 -6.08292,3.60802 -3.78327,2.339333 -7.71471,4.454183 -11.93535,5.902283 -2.86767,0.71692 -3.88154,-3.33857 -1.01388,-4.055493 z"
       inkscape:connector-curvature="0" />
    <path
       style="fill:#000000;fill-opacity:1;fill-rule:nonzero;stroke:none"
       id="path8726"
       d="m 484.69572,115.18751 c 3.11798,0.25802 5.97473,-0.84493 8.80159,-2.01087 3.49252,-1.3153 6.766,-3.0801 10.03269,-4.86253 0.30348,-0.16556 0.60696,-0.33111 0.91044,-0.49666 2.59494,-1.41555 4.59683,2.25424 2.0019,3.6698 l 0,0 c -0.30336,0.16548 -0.60671,0.33096 -0.91007,0.49644 -3.40144,1.85596 -6.81556,3.6854 -10.44903,5.06074 -3.64986,1.48875 -7.3982,2.79412 -11.40139,2.19857 -2.86767,-0.71692 -1.85379,-4.77241 1.01387,-4.05549 z"
       inkscape:connector-curvature="0" />
    <path
       style="fill:#000000;fill-opacity:1;fill-rule:nonzero;stroke:none"
       id="path8728"
       d="m 519.18076,95.177087 c 0.71736,4.889333 0.95564,9.827863 1.49486,14.740163 0.29916,4.75995 1.11138,9.44779 1.89583,14.14411 0.23163,0.90084 0.56698,1.76745 1.0912,2.53701 1.6011,2.48475 -1.91286,4.74904 -3.51396,2.26429 l 0,0 c -0.79773,-1.27122 -1.38612,-2.63573 -1.70043,-4.11259 -0.79729,-4.77328 -1.61854,-9.53957 -1.92799,-14.37677 -0.52569,-4.79069 -0.77411,-9.60413 -1.43864,-14.376393 -0.5797,-2.89852 3.51943,-3.71834 4.09913,-0.81982 z"
       inkscape:connector-curvature="0" />
    <path
       style="fill:#000000;fill-opacity:1;fill-rule:nonzero;stroke:none"
       id="path8730"
       d="m 513.90962,93.944197 c 3.07495,-1.69761 6.42331,-2.92826 9.75635,-4.02806 3.72726,-1.285682 6.18373,-0.84719 7.56614,3.11613 0.52818,4.38041 -1.91682,7.806423 -4.69308,10.901313 -2.23323,2.16775 -4.6144,4.14978 -7.21632,5.85693 0.97614,-0.93321 -0.19731,-0.10412 -1.50639,-3.38233 -0.0674,-0.16889 0.35705,-0.0743 0.52898,-0.13357 0.23674,-0.0816 0.46254,-0.19209 0.69381,-0.28813 0.47064,-0.15519 0.94127,-0.31037 1.4119,-0.46556 3.57218,-1.19079 6.98308,-1.54733 10.54823,-0.24812 3.73752,1.83986 5.2412,5.18156 5.64847,9.14239 0.0314,3.81857 -1.09891,7.5439 -2.66087,10.994 -1.25991,3.11064 -3.47705,5.22013 -6.48352,6.5899 -3.10607,1.00132 -6.39327,0.74219 -9.39493,-0.45047 -0.28623,-0.14534 -0.57245,-0.29067 -0.85868,-0.43601 -2.62406,-1.3608 -0.6996,-5.07178 1.92446,-3.71098 l 0,0 c 0.17392,0.0933 0.34784,0.18657 0.52176,0.27986 1.9133,0.82744 4.11091,1.00122 6.1342,0.48676 2.11732,-0.85913 3.50888,-2.37046 4.36049,-4.50941 1.3087,-2.77087 2.20806,-5.82561 2.29086,-8.90082 -0.1116,-2.34541 -0.86951,-4.4029 -3.01311,-5.59531 -2.53994,-1.14368 -5.14245,-0.41868 -7.71573,0.33071 -0.41122,0.13374 -2.96452,1.34277 -3.32445,1.05004 -2.85868,-2.32495 -3.27767,-2.62552 -1.3955,-4.2502 2.30688,-1.50706 4.40796,-3.26309 6.40412,-5.16169 1.80467,-1.981773 3.59727,-4.083663 3.79476,-6.886583 -0.23229,-1.36656 0.29168,0.0428 0.24373,-0.71793 -0.0485,-0.76897 -2.67828,0.74086 -2.50408,0.36038 -3.14293,1.02846 -6.29961,2.18797 -9.19211,3.79573 -2.64386,1.32193 -4.51335,-2.41705 -1.86949,-3.73897 z"
       inkscape:connector-curvature="0" />
    <path
       style="fill:#000000;fill-opacity:1;fill-rule:nonzero;stroke:none"
       id="path8732"
       d="m 541.43164,89.985917 c 2.30638,3.9619 3.52112,8.42431 4.42619,12.885253 1.15463,4.19784 1.41811,8.57717 2.33709,12.81284 0.23931,0.96271 0.5466,1.90712 0.95814,2.80973 1.2078,2.69791 -2.60762,4.40599 -3.81542,1.70808 l 0,0 c -0.52102,-1.17775 -0.93763,-2.39659 -1.23239,-3.65201 -0.8839,-4.26026 -1.22175,-8.63302 -2.34543,-12.85325 -0.77224,-3.865373 -1.81349,-7.702863 -3.67242,-11.202453 -1.77355,-2.36474 1.57069,-4.872923 3.34424,-2.50819 z"
       inkscape:connector-curvature="0" />
    <path
       style="fill:#000000;fill-opacity:1;fill-rule:nonzero;stroke:none"
       id="path8736"
       d="m 540.50279,85.903543 c 3.85249,0.433573 7.54819,1.380663 11.04937,3.044074 3.88029,2.19713 5.97977,5.50779 7.18599,9.68649 1.13969,4.268713 0.32135,8.386183 -0.93961,12.505383 -1.26068,3.55409 -3.26821,6.53824 -5.88848,9.20742 -2.07475,2.10544 -5.05229,-0.8287 -2.97754,-2.93415 l 0,0 c 2.16125,-2.18347 3.81367,-4.58741 4.87171,-7.50634 1.04375,-3.34863 1.81379,-6.6486 0.90992,-10.139893 -0.82723,-3.04212 -2.19173,-5.40206 -4.99212,-7.06051 -3.14753,-1.5839 -6.56353,-2.25676 -10.03906,-2.70335 -2.89852,-0.5797 -2.0787,-4.678828 0.81982,-4.099124 z"
       inkscape:connector-curvature="0" />
    <path
       style="fill:#000000;fill-opacity:1;fill-rule:nonzero;stroke:none"
       id="path8744"
       d="m 569.32262,87.946206 c 0.82464,2.752081 0.15333,5.391671 -1.94541,7.298991 -0.57449,0.14068 -1.13755,0.50282 -1.72347,0.42204 -3.3509,-0.46196 -3.00797,-3.87687 -2.08451,-6.11975 0.76476,-0.978645 2.31909,-3.570481 3.95604,-3.36915 0.74789,0.09198 1.39359,0.573678 2.09038,0.860518 2.05429,2.125412 -0.9515,5.030612 -3.00579,2.905202 l 0,0 c 0.53472,0.11915 1.05634,0.35302 1.60416,0.35746 0.22596,0.002 0.37605,-0.25777 0.58664,-0.33971 0.57818,-0.22497 -1.9834,1.42089 -1.39097,1.23668 -0.65251,1.40446 -1.12661,-0.4641 -2.54898,0.70872 0.14469,0.96951 1.31589,-3.617559 0.40641,-2.94713 -0.71691,-2.867664 3.33858,-3.881537 4.0555,-1.013871 z"
       inkscape:connector-curvature="0" />
    <path
       style="fill:#000000;fill-opacity:1;fill-rule:nonzero;stroke:none"
       id="path8746"
       d="m 572.10949,103.274 c 0.60274,2.12548 0.55839,4.25691 -0.72868,6.0882 -1.47561,1.69606 -3.73508,1.76595 -4.72444,-0.56179 -0.079,-2.20417 0.89432,-3.75661 2.55791,-5.11549 0.8636,-0.553 1.81028,-0.96132 2.80476,-1.20686 4.18518,-0.36401 2.66945,3.99605 1.56204,5.49775 -0.81307,1.02085 -1.69704,1.84261 -2.82346,2.48035 -1.64422,0.65892 -3.25438,0.0521 -4.0242,-1.56749 -0.43381,-1.47173 -0.37437,-2.89103 0.0202,-4.34807 0.94302,-1.72168 2.7256,-1.98627 4.49666,-2.11441 3.36524,-0.0142 3.79169,2.56518 2.22651,5.03988 -1.01217,1.12695 -2.37908,1.58177 -3.82412,1.83862 -0.43246,0.0603 -0.2293,0.0359 -0.60914,0.076 -2.94088,0.29785 -3.36211,-3.86118 -0.42123,-4.15903 l 0,0 c 0.48169,-0.0548 -0.36712,0.0515 0.318,-0.0361 0.4701,-0.0774 0.92821,-0.10989 1.31295,-0.38099 -0.21342,1.23514 0.70596,1.57157 1.64225,1.77684 0.11522,0.0253 -0.2357,0.01 -0.35355,0.0149 -0.92352,0.0616 -1.39671,0.50034 -0.94623,-0.40854 10e-4,-0.15443 -0.0763,-0.33117 0.004,-0.46329 0.36556,-0.60397 -0.16019,2.2183 -0.0128,1.54286 -0.3863,-0.36666 -2.44369,-0.75709 -1.43033,-0.67256 -0.9261,0.80346 1.0847,-1.01497 1.14112,-1.20579 0.34557,-0.34885 0.17987,-0.31035 0.33487,0.0728 0.023,0.0568 0.002,-0.12264 0.003,-0.18396 0.78209,0.42359 1.56418,0.84718 2.34626,1.27076 0.002,-0.001 0.003,-0.002 0.005,-0.004 -0.45578,0.1127 -0.89085,0.29412 -1.30519,0.515 -0.87516,0.20822 -0.87472,2.47396 -1.09018,0.3275 -0.52962,-0.81085 -2.29617,-0.95685 -2.48111,-0.62793 0.34153,0.65843 0.19521,-2.46913 -0.0555,-2.47169 -0.71692,-2.86766 3.33857,-3.88154 4.05549,-1.01387 z"
       inkscape:connector-curvature="0" />
    <path
       style="fill:#000000;fill-opacity:1;fill-rule:nonzero;stroke:none"
       id="path8748"
       d="m 497.51355,151.00387 c 6.0078,-2.38876 11.97638,-4.85236 17.88172,-7.4871 10.78688,-4.97114 21.66751,-9.70329 32.70026,-14.10029 6.04368,-2.20021 12.07358,-4.43854 18.08436,-6.72712 0.57607,-0.22472 1.15699,-0.43766 1.72986,-0.67051 2.72125,-1.15425 4.3536,2.69418 1.63236,3.84843 l 0,0 c -0.62102,0.25279 -1.24918,0.48762 -1.87477,0.7288 -5.99069,2.28088 -11.99989,4.51319 -18.02421,6.70368 -10.9806,4.37594 -21.80901,9.08708 -32.54482,14.03468 -5.95539,2.65625 -11.97413,5.14117 -18.03223,7.55075 -2.74451,1.0978 -4.29704,-2.78352 -1.55253,-3.88132 z"
       inkscape:connector-curvature="0" />
  </g>
</svg>
