<?xml version="1.0" encoding="UTF-8" standalone="no"?>
<!-- Created with Inkscape (http://www.inkscape.org/) -->

<svg
   xmlns:dc="http://purl.org/dc/elements/1.1/"
   xmlns:cc="http://creativecommons.org/ns#"
   xmlns:rdf="http://www.w3.org/1999/02/22-rdf-syntax-ns#"
   xmlns:svg="http://www.w3.org/2000/svg"
   xmlns="http://www.w3.org/2000/svg"
   xmlns:sodipodi="http://sodipodi.sourceforge.net/DTD/sodipodi-0.dtd"
   xmlns:inkscape="http://www.inkscape.org/namespaces/inkscape"
   width="406.87259"
   height="305.45828"
   id="svg4218"
   version="1.1"
   inkscape:version="0.48.0 r9654"
   sodipodi:docname="SLIPPeriodicMotion.pdf">
  <defs
     id="defs4220" />
  <sodipodi:namedview
     inkscape:document-units="mm"
     pagecolor="#ffffff"
     bordercolor="#666666"
     borderopacity="1.0"
     inkscape:pageopacity="0.0"
     inkscape:pageshadow="2"
     inkscape:zoom="0.7176508"
     inkscape:cx="170.60398"
     inkscape:cy="66.293364"
     inkscape:current-layer="layer1"
     id="namedview4222"
     showgrid="false"
     fit-margin-top="0"
     fit-margin-left="0"
     fit-margin-right="0"
     fit-margin-bottom="0"
     inkscape:window-width="1280"
     inkscape:window-height="752"
     inkscape:window-x="0"
     inkscape:window-y="0"
     inkscape:window-maximized="0" />
  <metadata
     id="metadata4224">
    <rdf:RDF>
      <cc:Work
         rdf:about="">
        <dc:format>image/svg+xml</dc:format>
        <dc:type
           rdf:resource="http://purl.org/dc/dcmitype/StillImage" />
        <dc:title></dc:title>
      </cc:Work>
    </rdf:RDF>
  </metadata>
  <g
     inkscape:label="Layer 1"
     inkscape:groupmode="layer"
     id="layer1"
     transform="translate(-355.57711,-132.88234)">
    <path
       style="fill:#000000;fill-opacity:1;fill-rule:nonzero;stroke:none"
       id="path4743"
       d="m 370.14762,289.89929 c 7.81997,0.5262 15.65802,0.60647 23.49301,0.55264 16.2325,-0.004 32.29784,-2.22046 48.20251,-5.27425 20.24108,-3.99663 39.97593,-10.10814 59.40477,-16.97303 13.35724,-5.01835 26.40632,-10.96755 38.87135,-17.92499 7.37014,-4.11369 11.55397,-6.89931 18.69443,-11.41689 18.77662,-12.54462 36.38139,-26.71496 54.53853,-40.12033 18.53325,-13.90568 38.11258,-25.75577 58.68329,-36.35452 12.55882,-6.03997 25.55949,-11.23727 38.94543,-15.14543 7.27868,-2.12507 10.09331,-2.6364 17.37276,-4.26317 7.53134,-1.7654 15.21041,-2.45589 22.89916,-3.03493 2.94769,-0.22063 3.25974,3.948 0.3121,4.16864 l 0,0 c -7.48801,0.55701 -14.96593,1.22658 -22.30031,2.94614 -7.11404,1.58688 -9.91116,2.09577 -17.02078,4.1683 -13.1618,3.83682 -25.94439,8.94447 -38.29408,14.87671 -20.34899,10.47882 -39.78567,22.24524 -58.11463,36.00132 -18.23791,13.4646 -35.91895,27.70084 -54.78675,40.29012 -7.29117,4.61098 -11.44672,7.38019 -18.97809,11.58112 -12.6447,7.0531 -25.88111,13.08298 -39.43006,18.16954 -19.62723,6.931 -39.56216,13.10386 -60.00963,17.13687 -16.15586,3.09557 -32.47384,5.34688 -48.96159,5.34899 -8.05961,0.054 -16.12569,-0.0166 -24.16777,-0.60283 -2.92037,-0.45707 -2.27399,-4.5871 0.64639,-4.13003 z"
       inkscape:connector-curvature="0" />
    <path
       style="fill:#000000;fill-opacity:1;fill-rule:nonzero;stroke:none"
       id="path4745"
       d="m 367.77885,411.30829 c 6.33233,1.35041 12.89782,0.89159 19.32239,0.76374 16.06961,-0.20648 32.13971,-0.34866 48.20851,-0.61928 24.67784,-0.20173 49.35487,-0.0217 74.03268,0.01 30.11482,0.22483 60.2281,0.54152 90.34323,0.74951 27.62677,0.0254 55.24178,0.91566 82.86765,0.94132 18.55629,0.0942 37.11685,-0.24183 55.65052,-1.16912 7.45497,-0.52757 3.89814,-0.20299 10.67373,-0.93711 2.93883,-0.31752 3.38788,3.8386 0.44907,4.15614 l 0,0 c -6.95854,0.74983 -3.32155,0.41991 -10.91402,0.95606 -18.60457,0.92997 -37.23599,1.2693 -55.86323,1.17434 -27.6342,-0.0265 -55.25751,-0.91485 -82.89259,-0.94143 -30.10728,-0.20796 -60.2127,-0.52443 -90.31966,-0.74941 -24.65259,-0.0314 -49.30439,-0.21101 -73.95699,-0.0101 -16.06456,0.27052 -32.13041,0.41293 -48.19576,0.61907 -6.75392,0.13429 -13.64579,0.58394 -20.29879,-0.85949 -2.88765,-0.63164 -1.99438,-4.71538 0.89326,-4.08374 z"
       inkscape:connector-curvature="0" />
    <path
       style="fill:none;stroke:#000000;stroke-width:2.41653538;stroke-linecap:butt;stroke-linejoin:miter;stroke-miterlimit:4;stroke-opacity:1;stroke-dasharray:2.41653543, 4.83307087;stroke-dashoffset:0"
       d="m 368.14816,412.95879 1.88371,-121.22225"
       id="path4747"
       inkscape:connector-curvature="0"
       sodipodi:nodetypes="cc" />
    <path
       style="fill:none;stroke:#000000;stroke-width:3.83385825;stroke-linecap:round;stroke-linejoin:miter;stroke-miterlimit:4;stroke-opacity:1;stroke-dasharray:none;stroke-dashoffset:0"
       d="M 368.14816,412.95879 551.36294,246.48615"
       id="path4749"
       inkscape:connector-curvature="0" />
    <path
       style="fill:#000000;fill-opacity:1;fill-rule:nonzero;stroke:none"
       id="path4755"
       d="m 547.8258,239.08149 c 3.06617,0.7213 5.61135,2.21715 8.13177,4.12219 3.1656,2.84325 4.84673,6.8951 4.19874,11.28698 -0.12857,0.87201 -0.41407,1.71032 -0.62111,2.56549 -1.57952,4.22821 -4.54214,7.32159 -8.59725,8.93357 -0.67738,0.26937 -1.38723,0.43883 -2.08081,0.65835 -3.78944,0.7645 -7.54474,0.006 -10.47024,-2.77537 -1.83479,-1.74382 -1.959,-2.56549 -3.03875,-4.86196 -0.19453,-0.98936 -0.50594,-1.96132 -0.58379,-2.96804 -0.30156,-3.89768 1.18091,-7.68253 3.44029,-10.69331 0.51609,-0.68771 1.13006,-1.28804 1.69506,-1.93206 3.18978,-2.92053 7.75655,-5.74238 12.18921,-4.19248 1.23924,0.4333 2.29643,1.30761 3.44466,1.96141 0.68456,0.87509 1.47239,1.67165 2.05374,2.62527 1.95734,3.21071 1.92407,7.48508 0.81957,10.9861 -0.26468,0.83895 -0.66881,1.62199 -1.00323,2.43298 -2.06884,3.77455 -5.30483,6.99668 -9.50358,7.90227 -0.94061,0.20289 -1.91237,0.18955 -2.86857,0.28427 -0.99078,-0.18381 -2.01681,-0.2203 -2.97235,-0.5514 -3.04333,-1.05457 -5.31211,-3.41271 -6.51373,-6.50603 -0.84766,-2.18214 -0.68539,-3.40062 -0.72537,-5.64548 0.54034,-4.82007 2.85767,-8.93067 6.87367,-11.44231 0.69475,-0.43447 1.45688,-0.73796 2.1853,-1.10692 3.63548,-1.38636 7.52783,-1.28068 10.75493,1.20274 1.95081,1.50122 2.23726,2.44345 3.413,4.50668 0.27696,1.04167 0.67346,2.05676 0.8295,3.12565 0.55792,3.81956 -0.88599,7.84156 -3.33659,10.63316 -0.61989,0.70615 -1.38942,1.2497 -2.08415,1.87455 -0.80391,0.46336 -1.56865,1.0108 -2.41183,1.3899 -3.5028,1.5749 -7.5667,1.50655 -11.0139,-0.21464 -0.85103,-0.42493 -1.58927,-1.06362 -2.3839,-1.59547 -0.64369,-0.67007 -1.35122,-1.27882 -1.93108,-2.01019 -2.33489,-2.94515 -3.43928,-6.994 -2.64306,-10.77171 0.22055,-1.04649 0.65626,-2.02967 0.9844,-3.04452 0.48167,-0.81312 0.87633,-1.69071 1.44503,-2.43941 2.23566,-2.94324 5.64674,-4.85157 9.15765,-5.50709 0.90679,-0.16945 1.83291,-0.19489 2.74935,-0.29231 4.14249,0.0966 7.75813,1.73435 10.40111,5.15546 1.52532,1.97444 1.65765,2.95118 2.50262,5.32015 0.13251,1.06468 0.35843,2.1212 0.39745,3.19394 0.13382,3.68253 -1.07063,7.75172 -3.27283,10.63539 -0.62669,0.82063 -1.40461,1.50038 -2.10692,2.2506 -3.02222,2.34983 -6.58193,3.82596 -10.41664,3.11386 -2.65207,-0.49248 -3.30854,-1.14822 -5.5165,-2.49778 -3.01285,-2.4646 -5.23224,-5.65479 -6.06107,-9.61869 -0.52858,-2.52789 -0.24938,-3.26636 0.008,-5.83649 0.37711,-1.05061 0.61465,-2.16889 1.13134,-3.15188 2.0041,-3.81273 5.8545,-6.18855 9.88752,-6.83077 0.98294,-0.15652 1.98557,-0.11652 2.97836,-0.17498 1.07406,0.18996 2.17189,0.26672 3.22216,0.5701 3.69143,1.06624 6.99523,3.73689 8.90851,7.21321 0.46826,0.8508 0.77642,1.78787 1.16464,2.68177 0.20486,0.94162 0.51551,1.86479 0.61477,2.82475 0.41062,3.98337 -0.87992,8.11222 -3.61796,10.94087 -0.69618,0.71926 -1.53683,1.26645 -2.30524,1.89966 -0.87193,0.41915 -1.69697,0.96829 -2.61582,1.25721 -3.94582,1.2404 -8.32327,0.36382 -11.60542,-2.24248 -0.82764,-0.65721 -1.50087,-1.50465 -2.25129,-2.25698 -2.27534,-3.12286 -3.86495,-6.76889 -3.3866,-10.80435 0.33343,-2.81303 0.93247,-3.37296 2.22847,-5.72511 2.4461,-2.65658 1.16367,-1.53464 3.7844,-3.44329 8.04495,-5.33449 15.25358,6.60987 7.20861,11.94439 l 0,0 c -0.0893,-0.2421 -0.0489,-0.0654 0.13497,-0.5259 0.0957,-0.51178 0.18322,-0.75963 0.0837,-1.3131 -0.056,-0.31178 -0.47759,-1.11991 -0.24298,-0.0525 0.0222,0.10421 0.0353,0.2101 0.0534,0.31506 -0.32771,0.21582 -0.14384,0.18955 -0.24361,0.42343 -0.10377,0.24297 -0.41649,0.30732 -0.60183,0.48922 -0.0732,0.072 -0.10542,0.17908 -0.15829,0.26867 -0.12102,0.33058 -0.11067,1.29003 0.40392,1.1986 0.42284,-0.58328 -0.49082,-1.03297 -0.59469,-1.5368 -0.25594,-0.0981 -1.04362,-0.1399 -1.06702,-0.17826 -0.17707,-0.29093 0.55144,-1.13817 0.17425,-1.46526 -0.0491,-0.0579 -0.0745,-0.16165 -0.14745,-0.17355 -0.0563,-0.008 -0.0706,0.0962 -0.1174,0.13026 -0.0466,0.0334 -0.1532,0.0123 -0.15649,0.07 -0.0253,0.45019 0.3687,0.83959 0.49011,1.24388 0.0233,0.0714 0.12529,0.16206 0.0716,0.21281 -0.01,0.008 -1.10222,0.29311 -0.95109,0.51119 0.0938,0.13498 0.36701,-0.17088 0.47685,0.026 0.21834,0.94509 0.9277,-1.38433 0.97517,-1.43777 0.0463,-0.0521 0.12775,0.0488 0.19171,0.073 0.045,-0.0326 0.1087,-0.0472 0.13465,-0.0976 0.0328,-0.0632 -0.0358,-0.18443 0.0266,-0.21384 0.15681,-0.0726 0.97463,0.234 0.63354,-0.28482 -0.12036,-0.0302 -0.23777,-0.0954 -0.36148,-0.0905 -0.0837,0.004 -1.25895,0.39315 -1.34021,0.13211 -0.14056,-0.45361 0.14466,-0.11734 -0.10312,-0.36466 -0.15402,-1.68262 0.12775,-0.0954 -0.17176,-0.56524 -0.34827,-0.54795 -0.22359,-0.74468 -0.75377,-0.58947 -1.09337,0.281 -0.52497,-0.11529 -0.39748,0.25862 0.0828,0.24055 -0.32755,0.0775 0.1133,0.39331 0.0619,0.29783 0.0415,0.1116 -0.0131,0.56238 0.008,0.0437 0.0931,0.002 0.12348,0.0347 0.0525,0.0544 0.0744,0.13395 0.10673,0.2037 0.469,1.00728 -0.37286,-0.64634 0.59619,1.19741 0.81649,0.7414 2.39057,1.6983 3.45005,0.84859 0.0479,-0.0384 -0.1156,-0.0359 -0.17365,-0.0538 -0.84473,0.14791 -0.29289,-0.12801 -0.54567,-0.17314 -0.0885,-0.0164 -0.36269,0.34252 -0.50575,0.23128 -0.31607,-0.0103 -0.0171,0.0347 -0.41063,-0.4612 -0.82989,-1.04554 -1.78233,-1.62997 -3.11276,-1.3934 -1.23649,0.57195 0.21051,0.41444 0.47824,-0.14175 0.77342,-0.95295 -0.11297,0.0579 0.36838,-0.34415 0.0498,-0.0412 0.0744,-0.19919 0.12086,-0.15385 0.14844,0.14503 0.17674,0.38511 0.29408,0.55866 0.30432,0.45014 1.01543,0.53496 1.19851,1.07725 0.64681,0.24043 1.26592,0.58972 1.94049,0.7213 0.33171,0.0646 1.40394,0.0279 1.76987,-0.38663 0.34438,-0.38999 -1.72184,0.69832 -1.32802,0.60748 -0.29013,0.26942 -0.62089,0.49413 -0.88153,0.79492 -0.6328,0.73035 -0.29744,0.6041 -0.86489,-0.23777 -0.14285,-0.16473 -0.26664,-0.34956 -0.4282,-0.49368 -0.43556,-0.38859 -1.83278,-0.92578 -2.18988,-0.25903 0.2917,-0.0574 0.58937,-0.22799 0.87807,-0.15488 0.0461,0.0123 0.01,0.1155 0.0512,0.1395 0.19322,0.11016 0.30771,-0.26121 0.49735,-0.14463 0.14384,0.18689 1.05204,2.13144 1.06876,1.50418 -0.60408,-0.98312 -3.21457,-1.58703 -4.20981,-1.91674 -9.02483,-3.20459 -4.72228,-16.5853 4.30255,-13.38071 z"
       inkscape:connector-curvature="0" />
    <path
       inkscape:connector-curvature="0"
       d="m 371.77313,287.47937 c 1.86731,0.3516 3.41735,1.08078 4.95231,2.00942 1.92786,1.38601 2.95168,3.36117 2.55705,5.50207 -0.0783,0.42509 -0.25218,0.83373 -0.37826,1.2506 -0.96194,2.06112 -2.76619,3.56906 -5.23578,4.35485 -0.41252,0.13131 -0.84484,0.21392 -1.26723,0.32093 -2.30779,0.37266 -4.5948,0.003 -6.37645,-1.35291 -1.11739,-0.85006 -1.19303,-1.2506 -1.85061,-2.37006 -0.11847,-0.48229 -0.30812,-0.95609 -0.35553,-1.44683 -0.18366,-1.9 0.71918,-3.745 2.09515,-5.21267 0.31431,-0.33525 0.68821,-0.62788 1.03231,-0.94181 1.9426,-1.42367 4.72379,-2.79924 7.4233,-2.04372 0.75471,0.21122 1.39855,0.63742 2.09782,0.95614 0.41691,0.42658 0.89669,0.81487 1.25074,1.27974 1.19204,1.56511 1.17177,3.64874 0.49913,5.35539 -0.16119,0.40896 -0.40732,0.79066 -0.61097,1.18599 -1.25994,1.83999 -3.23068,3.41067 -5.78774,3.85213 -0.57284,0.0989 -1.16466,0.0924 -1.74698,0.13857 -0.6034,-0.0897 -1.22826,-0.1074 -1.81019,-0.2688 -1.8534,-0.51406 -3.23511,-1.66359 -3.96689,-3.17149 -0.51623,-1.06372 -0.41741,-1.6577 -0.44177,-2.752 0.32908,-2.34963 1.74034,-4.35342 4.18612,-5.57778 0.42311,-0.21178 0.88724,-0.35972 1.33086,-0.53958 2.21403,-0.67581 4.5845,-0.62429 6.54982,0.58629 1.18805,0.7318 1.3625,1.19111 2.07853,2.19687 0.16868,0.50778 0.41015,1.00261 0.50518,1.52365 0.33978,1.86193 -0.53957,3.82253 -2.03201,5.18336 -0.37751,0.34422 -0.84616,0.60919 -1.26925,0.91379 -0.48959,0.22587 -0.95533,0.49271 -1.46882,0.67752 -2.13323,0.76772 -4.60817,0.73441 -6.70754,-0.10462 -0.51828,-0.20714 -0.96788,-0.5185 -1.45181,-0.77775 -0.39201,-0.32663 -0.82291,-0.62339 -1.17603,-0.97991 -1.42197,-1.43566 -2.09456,-3.40936 -1.60965,-5.25088 0.13432,-0.51012 0.39967,-0.98939 0.59951,-1.4841 0.29334,-0.39637 0.53369,-0.82418 0.88002,-1.18915 1.36153,-1.43473 3.4389,-2.36499 5.57707,-2.68454 0.55225,-0.0826 1.11625,-0.095 1.67437,-0.14249 2.52281,0.0471 4.72476,0.84544 6.33435,2.51314 0.92892,0.96247 1.00952,1.43861 1.52411,2.59339 0.0807,0.51901 0.21829,1.03403 0.24205,1.55696 0.0815,1.79513 -0.65203,3.77873 -1.99317,5.18443 -0.38167,0.40003 -0.85543,0.73139 -1.28314,1.0971 -1.84054,1.14548 -4.00843,1.86505 -6.34379,1.51792 -1.61513,-0.24008 -2.01492,-0.55972 -3.35958,-1.2176 -1.83485,-1.20142 -3.18647,-2.75654 -3.69123,-4.68881 -0.32191,-1.23228 -0.15189,-1.59226 0.005,-2.84511 0.22966,-0.51215 0.37433,-1.05728 0.68899,-1.53645 1.22051,-1.85859 3.56542,-3.01673 6.02156,-3.32979 0.59862,-0.0763 1.20923,-0.0568 1.81384,-0.0853 0.65411,0.0926 1.3227,0.13001 1.96233,0.2779 2.24809,0.51977 4.26013,1.82163 5.42533,3.51623 0.28516,0.41473 0.47284,0.87153 0.70927,1.30727 0.12475,0.45901 0.31395,0.90904 0.37439,1.37699 0.25008,1.94176 -0.53587,3.95446 -2.20335,5.33334 -0.42398,0.3506 -0.93595,0.61736 -1.40392,0.92602 -0.531,0.20432 -1.03346,0.47201 -1.59305,0.61285 -2.40302,0.60466 -5.0689,0.17735 -7.06776,-1.09314 -0.50404,-0.32037 -0.91405,-0.73347 -1.37105,-1.10021 -1.3857,-1.5223 -2.35378,-3.29962 -2.06247,-5.26679 0.20307,-1.37126 0.56789,-1.64422 1.35715,-2.79082 1.4897,-1.295 0.70869,-0.74809 2.30473,-1.67849 4.89943,-2.6004 9.28953,3.2221 4.39009,5.82252 l 0,0 c -0.0544,-0.11801 -0.0298,-0.032 0.0822,-0.25635 0.0583,-0.24948 0.11157,-0.37031 0.051,-0.64011 -0.0341,-0.15197 -0.29085,-0.54592 -0.14797,-0.0256 0.0135,0.0508 0.0215,0.10241 0.0325,0.15358 -0.19958,0.10521 -0.0876,0.0924 -0.14837,0.20641 -0.0632,0.11843 -0.25365,0.14981 -0.36651,0.23847 -0.0446,0.0351 -0.0642,0.0873 -0.0964,0.13097 -0.0737,0.16115 -0.0674,0.62884 0.24598,0.58427 0.25751,-0.28433 -0.29891,-0.50353 -0.36217,-0.74914 -0.15587,-0.0478 -0.63556,-0.0682 -0.64981,-0.0869 -0.10783,-0.14181 0.33583,-0.55481 0.10611,-0.71426 -0.0299,-0.0282 -0.0454,-0.0787 -0.0898,-0.0846 -0.0343,-0.004 -0.043,0.0469 -0.0715,0.0635 -0.0284,0.0163 -0.0933,0.006 -0.0953,0.0341 -0.0154,0.21945 0.22454,0.40927 0.29848,0.60634 0.0142,0.0347 0.0763,0.079 0.0436,0.10374 -0.006,0.004 -0.67126,0.14288 -0.57922,0.2492 0.0571,0.0658 0.22351,-0.0833 0.2904,0.0127 0.13297,0.4607 0.56498,-0.67483 0.59389,-0.70088 0.0282,-0.0254 0.0778,0.0238 0.11675,0.0356 0.0274,-0.0159 0.0662,-0.023 0.082,-0.0476 0.02,-0.0308 -0.0218,-0.0899 0.0162,-0.10424 0.0955,-0.0354 0.59358,0.11408 0.38583,-0.13884 -0.0733,-0.0147 -0.14479,-0.0465 -0.22014,-0.0441 -0.051,0.002 -0.76671,0.19165 -0.81619,0.0644 -0.0856,-0.22112 0.0881,-0.0572 -0.0628,-0.17777 -0.0938,-0.82022 0.0778,-0.0465 -0.1046,-0.27553 -0.2121,-0.26712 -0.13617,-0.36302 -0.45905,-0.28735 -0.66587,0.13698 -0.31971,-0.0562 -0.24207,0.12607 0.0504,0.11726 -0.19948,0.0378 0.069,0.19173 0.0377,0.14518 0.0253,0.0544 -0.008,0.2741 0.005,0.0213 0.0567,0.001 0.0752,0.0169 0.032,0.0265 0.0452,0.0653 0.065,0.0993 0.28562,0.49102 -0.22708,-0.31507 0.36309,0.58371 0.49724,0.3614 1.45586,0.82787 2.10109,0.41364 0.0292,-0.0187 -0.0704,-0.0175 -0.10574,-0.0262 -0.51445,0.0721 -0.17838,-0.0624 -0.33232,-0.0845 -0.054,-0.008 -0.22089,0.16698 -0.308,0.11275 -0.19249,-0.005 -0.0104,0.0169 -0.25008,-0.22482 -0.50542,-0.50969 -1.08545,-0.79458 -1.8957,-0.67925 -0.75303,0.2788 0.1282,0.20203 0.29125,-0.0691 0.47102,-0.46455 -0.0688,0.0283 0.22435,-0.16776 0.0303,-0.0201 0.0453,-0.0972 0.0736,-0.075 0.0904,0.0707 0.10765,0.18774 0.17901,0.27237 0.18533,0.21942 0.6184,0.26078 0.72989,0.52512 0.39393,0.1172 0.77097,0.28748 1.18179,0.35161 0.202,0.0315 0.85501,0.0136 1.07785,-0.18846 0.20973,-0.19012 -1.04861,0.34041 -0.80876,0.29613 -0.1767,0.13133 -0.37814,0.24088 -0.53687,0.38751 -0.38538,0.35601 -0.18114,0.29448 -0.52671,-0.11591 -0.087,-0.0802 -0.1624,-0.1704 -0.26079,-0.24066 -0.26526,-0.18943 -1.11617,-0.45128 -1.33365,-0.12626 0.17765,-0.028 0.35894,-0.11114 0.53475,-0.0755 0.0281,0.006 0.006,0.0563 0.0311,0.0679 0.11767,0.0537 0.18745,-0.12725 0.30289,-0.0705 0.0876,0.0911 0.6407,1.03901 0.65088,0.73326 -0.36789,-0.47925 -1.95768,-0.77364 -2.5638,-0.93436 -5.49618,-1.56214 -2.87589,-8.08483 2.62029,-6.52269 z"
       id="path4757"
       style="fill:#000000;fill-opacity:1;fill-rule:nonzero;stroke:none" />
    <path
       style="fill:#000000;fill-opacity:1;fill-rule:nonzero;stroke:none"
       id="path4769"
       d="m 374.65572,370.307 c 3.16306,-0.0511 6.30864,0.0305 9.45804,0.3247 3.49975,0.31882 6.35023,2.2201 8.97457,4.40358 1.24843,1.02429 1.89753,2.44771 2.63591,3.83264 0.98219,1.845 -1.62703,3.23404 -2.60923,1.38904 l 0,0 c -0.55827,-1.05013 -0.98775,-2.15858 -1.92145,-2.95292 -2.15561,-1.8081 -4.4647,-3.46045 -7.3553,-3.72928 -3.06172,-0.28734 -6.11922,-0.36084 -9.19449,-0.31186 -2.09016,-0.008 -2.07819,-2.96435 0.0119,-2.9559 z"
       inkscape:connector-curvature="0" />
    <path
       style="fill:#000000;fill-opacity:1;fill-rule:nonzero;stroke:none"
       id="path4779"
       d="m 388.11035,333.55918 c -1.78239,2.70261 -2.42545,5.83204 -2.93252,8.97454 -0.73241,4.39964 -0.16597,8.72683 1.34254,12.88502 1.03067,2.14013 2.0685,3.89806 4.6428,3.02519 3.17262,-1.79788 4.20791,-5.27411 5.08212,-8.57955 0.82938,-4.38512 -0.0611,-8.69123 -2.31995,-12.49825 -1.35205,-1.79611 -3.22138,-3.23044 -5.53991,-3.29013 -0.74515,0.0458 -1.53029,0.0168 -1.78923,0.72397 -0.98679,1.84255 -3.59254,0.44704 -2.60576,-1.39552 l 0,0 c 1.01591,-1.7481 2.62888,-2.3054 4.60374,-2.27704 3.31917,0.31474 5.97994,2.01251 7.8897,4.75839 2.63607,4.64897 3.65302,9.43382 2.61668,14.74326 -1.18652,4.38144 -2.80754,8.73695 -7.25869,10.69177 -0.59598,0.1128 -1.18164,0.32263 -1.788,0.33829 -3.21455,0.0829 -5.15472,-2.61947 -6.31589,-5.2425 -1.6477,-4.64048 -2.29989,-9.4575 -1.47762,-14.35832 0.5641,-3.43138 1.28287,-6.86953 3.21149,-9.83178 0.9423,-1.86569 3.58079,-0.53308 2.63848,1.33261 z"
       inkscape:connector-curvature="0" />
    <path
       style="fill:#000000;fill-opacity:1;fill-rule:nonzero;stroke:none"
       id="path4785"
       d="m 385.12559,343.6721 c 2.49574,-0.38916 4.86789,-1.2017 7.2131,-2.11038 1.28274,-0.54229 2.60076,-0.98812 3.94702,-1.34001 2.02396,-0.52183 2.76194,2.3405 0.73797,2.86231 l 0,0 c -1.23687,0.31342 -2.43978,0.74198 -3.61723,1.23396 -2.4627,0.95383 -4.9571,1.80826 -7.57558,2.22459 -2.02977,0.49874 -2.73509,-2.37181 -0.70531,-2.87054 z"
       inkscape:connector-curvature="0" />
    <path
       style="fill:#000000;fill-opacity:1;fill-rule:nonzero;stroke:none"
       id="path4789"
       d="m 406.49701,352.58035 c -1.1347,1.42983 -2.26867,2.84572 -3.18656,4.42756 -0.5264,1.05345 -0.98564,2.23007 -0.2647,3.27711 1.00707,1.03045 2.29718,0.8118 3.53553,0.39434 0.29335,-0.14608 0.58669,-0.29216 0.88005,-0.43818 1.88708,-0.89872 3.15806,1.77 1.27098,2.66872 l 0,0 c -0.43364,0.20021 -0.86731,0.40033 -1.30095,0.60051 -2.65037,0.73855 -5.24821,0.57853 -6.98625,-1.82035 -1.03378,-2.10573 -0.82201,-4.12454 0.31514,-6.17681 0.98867,-1.67345 2.16032,-3.20477 3.37921,-4.716 1.26084,-1.66703 3.6184,0.11607 2.35755,1.7831 z"
       inkscape:connector-curvature="0" />
    <path
       style="fill:#000000;fill-opacity:1;fill-rule:nonzero;stroke:none"
       id="path4833"
       d="m 507.32832,359.80782 c 2.44871,-1.20779 4.14059,-3.65324 5.76739,-5.76461 2.70548,-4.03089 4.52715,-8.56 5.70024,-13.25068 0.87749,-3.81818 0.97022,-7.73846 0.89057,-11.63601 -0.17657,-1.77567 0.0916,-3.65824 -0.53483,-5.358 -0.36565,-0.82745 -0.47261,-0.26742 0.37244,-0.12429 0.096,-0.0189 0.26172,-0.15102 0.28797,-0.0568 0.0334,0.1199 -0.15503,0.19558 -0.21969,0.30192 -0.5545,0.91195 -0.96475,1.8977 -1.3753,2.87941 -1.09098,3.42025 -1.32023,7.03131 -1.47577,10.59423 -0.0629,4.84334 -0.0374,9.70806 0.47173,14.52868 0.48068,2.60923 0.95626,5.41544 2.85348,7.40758 0.63279,0.4904 1.02515,0.15764 1.61684,-0.2392 1.87937,-0.91472 3.17297,1.74312 1.2936,2.65784 l 0,0 c -2.04712,0.86524 -3.32578,1.11063 -5.11342,-0.44775 -2.21597,-2.56903 -3.10929,-5.75428 -3.59043,-9.0714 -0.51344,-4.9672 -0.56235,-9.97603 -0.48484,-14.96619 0.17459,-3.90855 0.44298,-7.87212 1.70273,-11.60658 0.75142,-1.78859 1.46299,-3.76564 3.19397,-4.81607 1.76315,-0.14805 2.59066,0.27266 3.2599,1.99141 0.67433,2.02298 0.59328,4.1552 0.69695,6.26563 0.0827,4.16118 -0.0323,8.34499 -0.97982,12.41879 -1.29193,5.07862 -3.2551,9.98759 -6.22687,14.33424 -2.00408,2.58928 -4.09983,5.48374 -7.21819,6.77702 -1.99347,0.62836 -2.8821,-2.19083 -0.88865,-2.81919 z"
       inkscape:connector-curvature="0" />
    <path
       style="fill:#000000;fill-opacity:1;fill-rule:nonzero;stroke:none"
       id="path4835"
       d="m 532.85523,357.11472 c -0.77469,1.83081 -1.11489,3.82217 -1.36971,5.78435 -0.0267,0.42834 -0.218,1.18211 0.0601,1.61939 0.0872,0.13718 -0.11922,-0.29622 0.21593,-0.22155 -0.0159,-0.0374 -0.0834,-0.0929 -0.0476,-0.11231 0.12208,-0.0663 0.27761,-0.0363 0.40827,-0.0834 0.58514,-0.21106 0.97042,-0.80739 1.27473,-1.30312 0.60876,-1.29936 0.73196,-2.74957 0.82597,-4.16269 0.22027,-0.21594 -0.12625,-1.66618 -0.12042,-0.99985 -0.7621,-0.1897 -1.55839,-0.18814 -2.33949,-0.1983 -0.38687,3e-5 -0.20717,-10e-4 -0.53911,0.003 -2.09003,0.023 -2.1226,-2.93271 -0.0326,-2.95575 l 0,0 c 0.37856,-0.004 0.17463,-0.003 0.61178,-0.003 1.20181,0.0169 2.42868,0.0381 3.56368,0.48205 1.53104,0.89321 2.01257,2.12826 1.80531,3.87127 -0.13298,1.93735 -0.36229,3.90232 -1.331,5.62559 -1.26439,1.76813 -2.87576,2.96561 -5.15034,2.5916 -2.12285,-0.9176 -2.42945,-2.39058 -2.13598,-4.53742 0.30262,-2.28687 0.71416,-4.60205 1.65666,-6.72184 0.93475,-1.86949 3.57861,-0.54756 2.64386,1.32193 z"
       inkscape:connector-curvature="0" />
    <path
       style="fill:#000000;fill-opacity:1;fill-rule:nonzero;stroke:none"
       id="path4837"
       d="m 506.71275,350.59487 c -2.15866,0.59302 -4.37044,0.90773 -6.59703,1.08852 -3.71853,0.38567 -7.05185,-1.28691 -10.14561,-3.14179 -4.74798,-2.99661 -8.32969,-7.07697 -11.11236,-11.89785 -1.21657,-2.15179 -1.76858,-4.50988 -2.29371,-6.89408 -0.21055,-0.96255 1.1507,-1.26032 1.36125,-0.29777 l 0,0 c 0.48784,2.24656 0.99846,4.46829 2.14035,6.49711 2.65026,4.62508 6.08391,8.5212 10.62313,11.39877 2.83451,1.71373 5.89716,3.29958 9.31466,2.94671 2.15069,-0.17309 4.28668,-0.47756 6.37136,-1.05145 0.95589,-0.23897 1.29384,1.11286 0.33796,1.35183 z"
       inkscape:connector-curvature="0" />
    <path
       style="fill:#000000;fill-opacity:1;fill-rule:nonzero;stroke:none"
       id="path4863"
       d="m 363.27906,230.34573 c -1.68775,0.21089 -3.23843,0.89395 -4.50867,2.01538 -0.68939,1.03308 -0.38087,0.37506 0.55669,1.1195 2.5361,1.19943 5.05379,2.42349 7.5056,3.7901 1.68907,1.10022 3.75777,2.73771 3.4651,5.0364 -0.0535,0.41989 -0.27158,0.8018 -0.40736,1.2027 -1.66352,2.25476 -4.48546,2.3643 -7.05445,2.17868 -2.10068,-0.36361 -4.36918,-1.78945 -3.78163,-4.28113 0.10415,-0.4417 0.41343,-0.808 0.62015,-1.212 1.09001,-1.78343 3.61216,-0.24192 2.52215,1.54151 l 0,0 c -0.78555,0.61314 0.2954,-0.1104 -0.44411,0.0115 -0.52414,0.0864 1.36247,1.48223 1.30966,0.99289 1.4039,0.11575 2.79939,0.1174 4.12706,-0.43192 1.04847,-0.40021 -1.42227,-2.36367 -1.79621,-2.45696 -2.61471,-1.45877 -5.34457,-2.67544 -7.96758,-4.10872 -2.11987,-1.84183 -2.55177,-3.4793 -0.58388,-5.62243 1.678,-1.42087 3.6588,-2.38374 5.85777,-2.674 2.04957,-0.40991 2.62927,2.48861 0.57971,2.89852 z"
       inkscape:connector-curvature="0" />
    <path
       style="fill:#000000;fill-opacity:1;fill-rule:nonzero;stroke:none"
       id="path4865"
       d="m 375.98401,218.23968 c 0.61569,3.60516 0.59836,7.27361 0.89822,10.90961 0.28344,3.74574 0.64619,7.46787 1.30244,11.16698 0.27365,1.0723 0.32999,2.19166 0.57698,3.26781 0.43615,2.04415 -2.4547,2.66095 -2.89085,0.61681 l 0,0 c -0.22952,-1.11656 -0.33977,-2.25663 -0.59669,-3.36872 -0.67124,-3.79008 -1.04856,-7.60385 -1.33794,-11.4415 -0.28685,-3.52318 -0.28109,-7.07537 -0.85068,-10.57129 -0.40992,-2.04956 2.4886,-2.62927 2.89852,-0.5797 z"
       inkscape:connector-curvature="0" />
    <path
       style="fill:#000000;fill-opacity:1;fill-rule:nonzero;stroke:none"
       id="path4877"
       d="m 370.62275,228.67771 c 2.08946,0.95613 4.38717,1.22805 6.66128,1.23939 1.42776,-0.12657 2.83207,-0.41381 4.2345,-0.69724 2.04895,-0.41295 2.63296,2.4847 0.58401,2.89766 l 0,0 c -1.60535,0.32272 -3.21325,0.65132 -4.85195,0.75532 -2.72232,-0.0448 -5.45985,-0.37265 -7.94977,-1.55127 -1.86949,-0.93475 -0.54756,-3.5786 1.32193,-2.64386 z"
       inkscape:connector-curvature="0" />
    <path
       style="fill:#000000;fill-opacity:1;fill-rule:nonzero;stroke:none"
       id="path4879"
       d="m 393.02475,232.30092 c -1.65693,0.59553 -3.01896,1.79534 -4.06232,3.18602 -0.55825,0.91979 -1.40233,2.27274 -1.11584,3.41284 0.10068,0.0527 0.10789,-0.11941 0.17803,-0.11352 0.76148,0.0639 0.33341,0.15306 1.25894,0.0237 1.19584,-0.31399 1.90111,-1.19958 2.48542,-2.2274 0.58855,-1.27345 0.74972,-2.66607 0.84993,-4.04836 -0.11292,-0.64171 -0.29786,-1.27521 -0.60311,-1.85284 0.002,0.31711 2.61374,-1.60443 2.58822,-0.33434 -0.0781,0.81772 0.0567,1.56365 0.24608,2.3517 0.29922,1.81922 1.13989,3.43758 1.96646,5.05841 0.48177,0.67453 1.66983,2.7421 2.61814,2.71936 1.97567,0.68225 1.01082,3.47627 -0.96485,2.79402 l 0,0 c -1.95093,-0.81931 -3.24812,-2.3472 -4.28661,-4.17058 -0.93227,-1.82836 -1.85227,-3.66892 -2.20803,-5.71384 -0.24644,-1.03517 -0.40477,-2.05633 -0.32595,-3.12215 0.046,-1.38846 2.53865,-2.39568 2.99757,-0.92985 0.53731,1.06574 0.87791,2.21799 0.92,3.41738 -0.13749,1.83911 -0.4037,3.67723 -1.25633,5.34045 -1.10538,1.81172 -2.51087,3.22946 -4.67982,3.65351 -2.13528,0.22511 -4.05283,-0.33924 -4.7297,-2.59893 -0.0779,-1.98627 0.54445,-3.85773 1.72352,-5.46831 1.49283,-1.88907 3.34611,-3.50877 5.68333,-4.24494 2.02775,-0.50693 2.74467,2.36073 0.71692,2.86767 z"
       inkscape:connector-curvature="0" />
    <path
       style="fill:#000000;fill-opacity:1;fill-rule:nonzero;stroke:none"
       id="path4881"
       d="m 406.53713,230.2281 c 0.30204,2.75148 0.72368,5.47453 1.20078,8.2007 0.21378,1.24205 0.42669,2.4843 0.62725,3.72857 -0.12627,-0.0511 0.10165,0.2067 0.0322,0.20572 -3.68547,-0.0522 -2.93125,0.44743 -2.9355,-2.20016 -0.004,-2.2034 -0.006,-4.4068 -0.007,-6.6102 -0.11638,-2.27114 0.49337,-4.2725 1.90702,-6.03341 1.62775,-1.50991 3.77375,-2.08603 5.94971,-2.03066 0.76856,0.0845 1.45894,0.3602 2.10769,0.7637 1.74846,1.14526 0.12882,3.61796 -1.61964,2.4727 l 0,0 c -0.20226,-0.1382 -0.41394,-0.24207 -0.66173,-0.28559 -1.19156,-0.17727 -2.54648,0.32297 -3.51872,0.98826 -1.05836,1.12939 -1.26026,2.61461 -1.20841,4.12331 0.001,2.20238 0.003,4.40476 0.007,6.60714 0.004,2.70685 0.74007,2.0752 -2.94195,2.65451 -0.0617,0.01 0.0817,-0.26093 -0.029,-0.18498 -0.19841,-1.2312 -0.40919,-2.46038 -0.62065,-3.68939 -0.47835,-2.73372 -0.90451,-5.46504 -1.20481,-8.22427 -0.34362,-2.06171 2.57208,-2.54766 2.9157,-0.48595 z"
       inkscape:connector-curvature="0" />
    <path
       style="fill:#000000;fill-opacity:1;fill-rule:nonzero;stroke:none"
       id="path4883"
       d="m 422.2043,219.6327 c 0.0261,3.65794 -0.0868,7.31719 0.11568,10.97058 0.30261,3.06125 0.3634,6.15386 1.00728,9.16847 0.27244,1.05357 0.52411,2.11254 0.75642,3.17567 0.0111,0.0523 0.0222,0.10461 0.0334,0.15692 0.43453,2.04448 -2.45681,2.659 -2.89134,0.61452 l 0,0 c -0.01,-0.0469 -0.0199,-0.0938 -0.0299,-0.14064 -0.23349,-1.06937 -0.48931,-2.13382 -0.76042,-3.19426 -0.66509,-3.16633 -0.76926,-6.40455 -1.06701,-9.62015 -0.19803,-3.70742 -0.10102,-7.41931 -0.12004,-11.13111 0,-2.09016 2.95592,-2.09016 2.95592,0 z"
       inkscape:connector-curvature="0" />
    <path
       style="fill:#000000;fill-opacity:1;fill-rule:nonzero;stroke:none"
       id="path4885"
       d="m 418.35972,232.22719 c 1.99111,0.0626 3.96364,0.003 5.89471,-0.51732 1.11256,-0.31945 2.20819,-0.69495 3.2877,-1.11194 1.95008,-0.7523 3.01398,2.00553 1.06391,2.75782 l 0,0 c -1.18651,0.45719 -2.39035,0.86995 -3.61412,1.21657 -2.17983,0.54297 -4.38829,0.70663 -6.6322,0.61079 -2.09015,0 -2.09015,-2.95592 0,-2.95592 z"
       inkscape:connector-curvature="0" />
    <path
       style="fill:#000000;fill-opacity:1;fill-rule:nonzero;stroke:none"
       id="path4887"
       d="m 444.86638,218.76525 c 0.0337,4.00522 -0.0972,8.01274 0.11584,12.01344 0.25895,3.44913 0.5451,6.89614 0.75587,10.34867 0.007,0.61956 0.0992,1.23927 0.0988,1.85923 -1.1e-4,0.19953 0.0149,-0.48119 -0.16029,-0.57674 -0.34327,-0.18725 -0.7316,-0.27629 -1.0974,-0.41444 -1.08174,0.44336 0.0743,-0.85155 0.23637,-1.2115 0.23967,-0.53219 0.44345,-1.07993 0.67734,-1.61468 0.78656,-2.11143 1.48562,-4.24897 2.33398,-6.33624 0.4889,-1.11282 1.22162,-2.93767 2.66182,-3.13414 0.43637,-0.0595 0.87087,0.13201 1.30631,0.19802 1.70918,1.15991 2.41632,3.21736 3.06204,5.09842 0.67545,1.48436 0.41673,3.22901 0.90256,4.73808 0.0704,0.45115 0.94423,1.26674 -0.002,0.43714 1.95251,0.74597 0.89754,3.50722 -1.05496,2.76125 l 0,0 c -0.98127,-0.64206 -1.47312,-1.30018 -1.80437,-2.45675 -0.34889,-1.49558 -0.34682,-3.05904 -0.84038,-4.52997 -0.37969,-1.13555 -0.8979,-2.25038 -1.39213,-3.31647 0.8862,-0.11976 0.39171,0.0727 0.95133,-0.4021 0.0776,-0.0658 -0.14511,0.14285 -0.21195,0.21951 -0.38996,0.44729 -0.66866,0.92195 -0.83986,1.50003 -0.85822,2.11143 -1.55659,4.27734 -2.36479,6.40922 -0.75564,1.72231 -1.33132,3.67013 -3.12682,4.55446 -0.47786,-0.11914 -0.99153,-0.1403 -1.43358,-0.3574 -1.04177,-0.51166 -0.73284,-2.3531 -0.85246,-3.24487 -0.21114,-3.46109 -0.49971,-6.91649 -0.75732,-10.3743 -0.2085,-4.05268 -0.0932,-8.11083 -0.11987,-12.16787 0,-2.09016 2.95592,-2.09016 2.95592,0 z"
       inkscape:connector-curvature="0" />
    <path
       style="fill:#000000;fill-opacity:1;fill-rule:nonzero;stroke:none"
       id="path4889"
       d="m 459.56669,232.02835 c 1.10445,1.03464 2.30883,2.36841 3.88877,2.55627 1.27593,0.1529 1.99734,-0.54204 2.50647,-1.62276 0.18582,-0.23977 0.71737,-2.46872 0.0244,-2.36565 -0.81184,-0.22342 -1.48189,-0.29474 -2.24836,0.0933 -1.13883,1.08387 -1.46764,2.6676 -1.75618,4.1461 -0.13516,1.97114 0.52099,3.7777 1.69166,5.32973 1.02364,1.1111 2.28198,1.63051 3.76303,1.26598 2.05823,-0.36388 2.57284,2.5469 0.5146,2.91078 l 0,0 c -2.63944,0.38467 -4.90331,-0.34895 -6.66181,-2.42943 -1.62595,-2.26424 -2.51285,-4.83459 -2.20587,-7.65744 0.50138,-2.45309 1.25299,-4.94794 3.54129,-6.30398 1.91488,-0.70818 3.79937,-0.65506 5.49635,0.6003 1.53009,1.89667 1.34156,3.62427 0.44812,5.80297 -1.24335,2.19355 -3.08926,3.50275 -5.71112,3.125 -2.1454,-0.52348 -3.87421,-1.75282 -5.38155,-3.36105 -1.47796,-1.47796 0.6122,-3.56812 2.09016,-2.09015 z"
       inkscape:connector-curvature="0" />
    <path
       style="fill:#000000;fill-opacity:1;fill-rule:nonzero;stroke:none"
       id="path4891"
       d="m 475.41091,231.33853 c -0.0742,2.1556 0.17591,4.31217 0.67328,6.40849 0.39243,1.47718 0.63117,2.98594 1.41936,4.31283 1.24904,0.95155 -2.12292,1.82545 -2.0929,0.48349 0.0441,-2.09175 0.0219,-4.18447 0.0144,-6.27656 -0.26453,-3.01677 0.9576,-5.29735 3.02911,-7.37198 1.60669,-1.01337 3.62435,-2.4453 5.65824,-2.30419 0.37688,0.0262 0.73686,0.16709 1.10529,0.25063 0.2564,0.15356 0.5128,0.30711 0.76919,0.46067 1.7164,1.19279 0.0295,3.62013 -1.68685,2.42734 l 0,0 c -0.004,-0.0273 -0.008,-0.0546 -0.0116,-0.082 0.16427,-0.74119 -3.55798,1.15757 -3.76619,1.35953 -1.69309,1.6051 -2.31221,2.86005 -2.14126,5.24935 0.008,2.15842 0.0332,4.31768 -0.0204,6.47562 -0.20834,2.50033 -2.62886,2.6137 -3.41242,0.81377 -0.91512,-1.59648 -1.32294,-3.35211 -1.74369,-5.13181 -0.5263,-2.31913 -0.83647,-4.6927 -0.74946,-7.07522 0,-2.09016 2.95592,-2.09016 2.95592,0 z"
       inkscape:connector-curvature="0" />
    <path
       style="fill:#000000;fill-opacity:1;fill-rule:nonzero;stroke:none"
       id="path4893"
       d="m 485.90374,232.61894 c 1.5188,0.78481 2.88943,0.90045 4.38206,0.0754 0.62447,-0.57752 1.90809,-1.73901 1.37564,-2.69455 -0.73569,-0.39665 -1.50166,-0.57359 -2.30083,-0.29317 -1.42522,1.24135 -1.61319,3.23234 -1.86551,4.99535 -0.17825,2.78508 0.65542,3.60331 3.09128,4.59824 1.97021,0.59636 4.03081,0.74298 6.07528,0.83707 2.08787,0.0976 1.94981,3.05032 -0.13807,2.9527 l 0,0 c -2.39813,-0.11375 -4.81383,-0.3035 -7.10594,-1.07471 -3.81197,-1.70004 -5.10285,-3.50127 -4.84704,-7.74323 0.45203,-3.00758 1.09421,-6.08244 4.14081,-7.44917 2.43058,-0.43995 4.80975,0.16363 5.8526,2.61791 0.33955,2.71882 -0.79919,4.32656 -2.95485,5.8967 -2.51058,1.18705 -4.52656,1.16027 -7.02736,-0.0747 -1.86949,-0.93475 -0.54756,-3.5786 1.32193,-2.64386 z"
       inkscape:connector-curvature="0" />
    <path
       style="fill:#000000;fill-opacity:1;fill-rule:nonzero;stroke:none"
       id="path4897"
       d="m 366.78219,287.10502 c -2.77207,-2.2942 -4.72294,-5.20148 -6.14262,-8.47394 -1.76361,-5.10855 -1.6911,-10.51676 -1.42078,-15.83849 0.59478,-4.75548 1.0973,-9.53463 1.98134,-14.24669 0.18213,-0.96833 1.55155,-0.71077 1.36943,0.25756 l 0,0 c -0.87676,4.64964 -1.36267,9.36801 -1.95914,14.06003 -0.2611,5.10856 -0.35249,10.30254 1.30894,15.21642 1.3061,3.05709 3.13105,5.75818 5.69889,7.91036 0.78825,0.59119 -0.0478,1.70594 -0.83606,1.11475 z"
       inkscape:connector-curvature="0" />
    <path
       style="fill:#000000;fill-opacity:1;fill-rule:nonzero;stroke:none"
       id="path4899"
       d="m 740.57525,133.32737 c 3.15639,2.06273 6.7797,3.25901 10.40189,4.21139 2.44523,0.64063 4.95027,0.97089 7.47211,1.06172 0.37699,0.005 0.75427,0.008 1.13106,-0.006 -1.5444,0.26402 2.33983,1.60479 2.42147,3.07623 -0.22872,-0.62076 2.1797,-2.84385 -2.27278,2.46787 -0.13709,-0.17721 -0.91592,0.36286 -2.4106,1.25556 -3.43894,1.74391 -7.03231,3.14921 -10.49276,4.84799 -2.01203,1.20499 -4.41891,1.69416 -6.35469,3.01296 -0.10585,-0.0465 -0.90674,0.88559 -0.60941,0.50712 0.67564,-1.29062 0.17272,-0.16195 -1.87092,-3.20017 2.83709,-0.82973 4.0105,3.18251 1.17341,4.01224 l 0,0 c -3.12452,-2.73757 -3.63444,-1.45494 -2.879,-2.9762 0.4877,-0.74319 1.16323,-1.32292 1.8859,-1.83367 2.12658,-1.37327 4.58794,-2.08025 6.81618,-3.27658 3.3653,-1.64436 6.84124,-3.04127 10.2034,-4.6919 1.31142,-0.76942 2.75501,-1.73719 4.31513,-1.83168 -1.74553,2.9129 -1.49791,3.50108 -1.67606,1.96681 -0.22439,-3.86615 3.89633,0.88939 2.43633,0.78711 -0.65237,0.0931 -1.3142,0.0683 -1.97111,0.0593 -2.8307,-0.10703 -5.64307,-0.47769 -8.38759,-1.19811 -4.07886,-1.08664 -8.14784,-2.45603 -11.69275,-4.80257 -2.43943,-1.66932 -0.0787,-5.11921 2.36079,-3.44988 z"
       inkscape:connector-curvature="0"
       inkscape:transform-center-x="-13.236803"
       inkscape:transform-center-y="-10.845972" />
    <path
       style="fill:#000000;fill-opacity:1;fill-rule:nonzero;stroke:none"
       id="path4915"
       d="m 386.69602,417.28253 c -1.18089,3.59353 -2.66308,7.07436 -4.36608,10.44968 -1.83454,2.7291 -3.00022,5.79793 -4.43629,8.72911 -1.31172,2.64893 -5.05787,0.79391 -3.74618,-1.85503 l 0,0 c 1.46967,-2.92479 2.59098,-6.03459 4.45224,-8.76099 1.55684,-3.06913 2.88491,-6.23583 4.01909,-9.48542 0.65242,-2.88302 4.72963,-1.96038 4.07722,0.92265 z"
       inkscape:connector-curvature="0" />
    <path
       inkscape:connector-curvature="0"
       d="m 399.51285,417.48772 c -1.1809,3.59353 -2.66307,7.07438 -4.36609,10.44969 -1.83452,2.72909 -3.00021,5.79793 -4.43628,8.7291 -1.31171,2.64894 -5.05788,0.79391 -3.74618,-1.85503 l 0,0 c 1.46966,-2.92479 2.59097,-6.03458 4.45224,-8.76098 1.55684,-3.06912 2.8849,-6.23582 4.01909,-9.48542 0.65241,-2.88303 4.72962,-1.96039 4.07722,0.92264 z"
       id="path4917"
       style="fill:#000000;fill-opacity:1;fill-rule:nonzero;stroke:none" />
    <path
       inkscape:connector-curvature="0"
       d="m 413.31473,417.6708 c -1.18089,3.59354 -2.66307,7.07437 -4.36607,10.44968 -1.83454,2.72911 -3.00022,5.79794 -4.43629,8.72911 -1.31171,2.64894 -5.05788,0.79391 -3.74618,-1.85502 l 0,0 c 1.46967,-2.92479 2.59098,-6.03459 4.45224,-8.76099 1.55684,-3.06913 2.8849,-6.23583 4.01909,-9.48542 0.65241,-2.88303 4.72963,-1.96038 4.07721,0.92264 z"
       id="path4919"
       style="fill:#000000;fill-opacity:1;fill-rule:nonzero;stroke:none" />
    <path
       style="fill:#000000;fill-opacity:1;fill-rule:nonzero;stroke:none"
       id="path4921"
       d="m 426.13157,417.876 c -1.1809,3.59353 -2.66308,7.07437 -4.36609,10.44969 -1.83453,2.72909 -3.00021,5.79793 -4.43629,8.7291 -1.3117,2.64894 -5.05787,0.79391 -3.74618,-1.85503 l 0,0 c 1.46967,-2.92479 2.59098,-6.03459 4.45224,-8.76098 1.55684,-3.06913 2.88492,-6.23583 4.01911,-9.48542 0.6524,-2.88303 4.72962,-1.96039 4.07721,0.92264 z"
       inkscape:connector-curvature="0" />
    <path
       inkscape:connector-curvature="0"
       d="m 439.91135,417.07402 c -1.1809,3.59353 -2.66308,7.07437 -4.36609,10.44969 -1.83453,2.72909 -3.00022,5.79793 -4.43629,8.7291 -1.31171,2.64894 -5.05787,0.79391 -3.74618,-1.85503 l 0,0 c 1.46967,-2.92479 2.59098,-6.03458 4.45224,-8.76098 1.55684,-3.06912 2.88491,-6.23582 4.01909,-9.48542 0.65242,-2.88303 4.72963,-1.96039 4.07723,0.92264 z"
       id="path4923"
       style="fill:#000000;fill-opacity:1;fill-rule:nonzero;stroke:none" />
    <path
       style="fill:#000000;fill-opacity:1;fill-rule:nonzero;stroke:none"
       id="path4925"
       d="m 452.72817,417.27922 c -1.18089,3.59353 -2.66307,7.07437 -4.36609,10.44968 -1.83452,2.7291 -3.0002,5.79793 -4.43628,8.7291 -1.31171,2.64895 -5.05788,0.79391 -3.74618,-1.85503 l 0,0 c 1.46968,-2.92478 2.59099,-6.03458 4.45224,-8.76098 1.55685,-3.06912 2.88491,-6.23582 4.0191,-9.48541 0.65241,-2.88304 4.72962,-1.9604 4.07721,0.92264 z"
       inkscape:connector-curvature="0" />
    <path
       style="fill:#000000;fill-opacity:1;fill-rule:nonzero;stroke:none"
       id="path4927"
       d="m 466.53006,417.4623 c -1.1809,3.59353 -2.66307,7.07437 -4.36608,10.44969 -1.83453,2.72909 -3.00022,5.79793 -4.43629,8.7291 -1.31171,2.64893 -5.05788,0.79391 -3.74618,-1.85503 l 0,0 c 1.46967,-2.92479 2.59098,-6.03459 4.45224,-8.76098 1.55684,-3.06913 2.88491,-6.23583 4.0191,-9.48543 0.6524,-2.88302 4.72963,-1.96038 4.07721,0.92265 z"
       inkscape:connector-curvature="0" />
    <path
       inkscape:connector-curvature="0"
       d="m 479.34689,417.6675 c -1.18089,3.59352 -2.66307,7.07437 -4.36609,10.44968 -1.83453,2.7291 -3.0002,5.79793 -4.43629,8.7291 -1.3117,2.64895 -5.05787,0.79391 -3.74617,-1.85503 l 0,0 c 1.46967,-2.92478 2.59098,-6.03458 4.45224,-8.76098 1.55684,-3.06912 2.88491,-6.23582 4.0191,-9.48541 0.65241,-2.88304 4.72962,-1.9604 4.07721,0.92264 z"
       id="path4929"
       style="fill:#000000;fill-opacity:1;fill-rule:nonzero;stroke:none" />
    <path
       inkscape:connector-curvature="0"
       d="m 492.14161,416.88762 c -1.1809,3.59353 -2.66307,7.07437 -4.36609,10.44968 -1.83453,2.7291 -3.00021,5.79793 -4.43629,8.72911 -1.3117,2.64894 -5.05787,0.79391 -3.74618,-1.85504 l 0,0 c 1.46967,-2.92478 2.59098,-6.03457 4.45224,-8.76098 1.55684,-3.06912 2.88491,-6.23582 4.0191,-9.48541 0.65241,-2.88303 4.72962,-1.96039 4.07722,0.92264 z"
       id="path4931"
       style="fill:#000000;fill-opacity:1;fill-rule:nonzero;stroke:none" />
    <path
       style="fill:#000000;fill-opacity:1;fill-rule:nonzero;stroke:none"
       id="path4933"
       d="m 504.95843,417.09281 c -1.1809,3.59354 -2.66307,7.07438 -4.36608,10.44968 -1.83453,2.7291 -3.00021,5.79794 -4.43629,8.72911 -1.31171,2.64894 -5.05788,0.79391 -3.74618,-1.85503 l 0,0 c 1.46968,-2.92478 2.59099,-6.03458 4.45224,-8.76098 1.55685,-3.06912 2.88491,-6.23582 4.0191,-9.48542 0.65241,-2.88303 4.72963,-1.96039 4.07721,0.92264 z"
       inkscape:connector-curvature="0" />
    <path
       style="fill:#000000;fill-opacity:1;fill-rule:nonzero;stroke:none"
       id="path4935"
       d="m 518.76033,417.2759 c -1.1809,3.59353 -2.66308,7.07436 -4.36609,10.44968 -1.83453,2.7291 -3.00022,5.79793 -4.43629,8.72911 -1.31171,2.64894 -5.05787,0.79391 -3.74618,-1.85503 l 0,0 c 1.46967,-2.92479 2.59098,-6.03459 4.45224,-8.76099 1.55684,-3.06913 2.88491,-6.23583 4.0191,-9.48541 0.65241,-2.88303 4.72963,-1.96039 4.07722,0.92264 z"
       inkscape:connector-curvature="0" />
    <path
       inkscape:connector-curvature="0"
       d="m 531.57715,417.48109 c -1.18089,3.59354 -2.66307,7.07438 -4.36609,10.44969 -1.83452,2.72909 -3.0002,5.79793 -4.43628,8.7291 -1.31171,2.64894 -5.05788,0.79391 -3.74617,-1.85503 l 0,0 c 1.46967,-2.92478 2.59098,-6.03458 4.45223,-8.76098 1.55685,-3.06912 2.88491,-6.23582 4.0191,-9.48542 0.65241,-2.88303 4.72962,-1.96039 4.07721,0.92264 z"
       id="path4937"
       style="fill:#000000;fill-opacity:1;fill-rule:nonzero;stroke:none" />
    <path
       style="fill:#000000;fill-opacity:1;fill-rule:nonzero;stroke:none"
       id="path4939"
       d="m 545.35693,416.67911 c -1.1809,3.59354 -2.66307,7.07438 -4.36609,10.44968 -1.83453,2.7291 -3.0002,5.79794 -4.43629,8.72911 -1.3117,2.64894 -5.05787,0.79391 -3.74617,-1.85503 l 0,0 c 1.46967,-2.92478 2.59098,-6.03458 4.45223,-8.76098 1.55685,-3.06913 2.88492,-6.23582 4.01911,-9.48542 0.65241,-2.88303 4.72962,-1.96039 4.07721,0.92264 z"
       inkscape:connector-curvature="0" />
    <path
       inkscape:connector-curvature="0"
       d="m 558.17375,416.8843 c -1.18089,3.59354 -2.66307,7.07438 -4.36607,10.44969 -1.83454,2.72911 -3.00022,5.79794 -4.43629,8.7291 -1.31172,2.64894 -5.05788,0.79392 -3.74618,-1.85502 l 0,0 c 1.46967,-2.92479 2.59098,-6.03459 4.45224,-8.76098 1.55684,-3.06913 2.8849,-6.23583 4.01909,-9.48542 0.65241,-2.88303 4.72963,-1.96039 4.07721,0.92263 z"
       id="path4941"
       style="fill:#000000;fill-opacity:1;fill-rule:nonzero;stroke:none" />
    <path
       inkscape:connector-curvature="0"
       d="m 571.97565,417.06739 c -1.18089,3.59353 -2.66308,7.07438 -4.36609,10.44969 -1.83453,2.72909 -3.00021,5.79793 -4.43629,8.7291 -1.3117,2.64894 -5.05787,0.79391 -3.74617,-1.85503 l 0,0 c 1.46967,-2.92479 2.59098,-6.03458 4.45223,-8.76098 1.55685,-3.06912 2.88492,-6.23582 4.01911,-9.48542 0.65241,-2.88303 4.72962,-1.96039 4.07721,0.92264 z"
       id="path4943"
       style="fill:#000000;fill-opacity:1;fill-rule:nonzero;stroke:none" />
    <path
       style="fill:#000000;fill-opacity:1;fill-rule:nonzero;stroke:none"
       id="path4945"
       d="m 584.79247,417.27259 c -1.18089,3.59353 -2.66307,7.07437 -4.36608,10.44968 -1.83453,2.7291 -3.00021,5.79793 -4.43628,8.7291 -1.31171,2.64894 -5.05788,0.79391 -3.74618,-1.85503 l 0,0 c 1.46967,-2.92478 2.59098,-6.03458 4.45224,-8.76098 1.55684,-3.06912 2.8849,-6.23582 4.01909,-9.48541 0.65241,-2.88304 4.72962,-1.9604 4.07721,0.92264 z"
       inkscape:connector-curvature="0" />
    <path
       inkscape:connector-curvature="0"
       d="m 598.09078,416.97418 c -1.1809,3.59353 -2.66307,7.07437 -4.36609,10.44968 -1.83452,2.7291 -3.00021,5.79793 -4.43628,8.7291 -1.31171,2.64895 -5.05788,0.79391 -3.74618,-1.85503 l 0,0 c 1.46967,-2.92478 2.59098,-6.03458 4.45224,-8.76098 1.55684,-3.06912 2.8849,-6.23582 4.01909,-9.48541 0.65241,-2.88304 4.72963,-1.9604 4.07722,0.92264 z"
       id="path4947"
       style="fill:#000000;fill-opacity:1;fill-rule:nonzero;stroke:none" />
    <path
       style="fill:#000000;fill-opacity:1;fill-rule:nonzero;stroke:none"
       id="path4949"
       d="m 610.90761,417.17937 c -1.1809,3.59354 -2.66308,7.07437 -4.36609,10.44968 -1.83453,2.7291 -3.00021,5.79793 -4.43629,8.72911 -1.3117,2.64894 -5.05787,0.79391 -3.74618,-1.85504 l 0,0 c 1.46967,-2.92477 2.59099,-6.03457 4.45224,-8.76097 1.55685,-3.06913 2.88492,-6.23583 4.01911,-9.48542 0.65241,-2.88303 4.72962,-1.96039 4.07721,0.92264 z"
       inkscape:connector-curvature="0" />
    <path
       style="fill:#000000;fill-opacity:1;fill-rule:nonzero;stroke:none"
       id="path4951"
       d="m 624.7095,417.36246 c -1.1809,3.59353 -2.66307,7.07436 -4.36609,10.44968 -1.83452,2.7291 -3.00021,5.79793 -4.43629,8.7291 -1.3117,2.64895 -5.05787,0.79391 -3.74617,-1.85503 l 0,0 c 1.46966,-2.92479 2.59097,-6.03459 4.45224,-8.76098 1.55683,-3.06913 2.8849,-6.23583 4.01909,-9.48541 0.65241,-2.88303 4.72962,-1.9604 4.07722,0.92264 z"
       inkscape:connector-curvature="0" />
    <path
       inkscape:connector-curvature="0"
       d="m 637.52633,417.56765 c -1.1809,3.59354 -2.66308,7.07437 -4.36609,10.44968 -1.83453,2.7291 -3.00021,5.79793 -4.43629,8.72911 -1.31171,2.64894 -5.05787,0.79391 -3.74618,-1.85504 l 0,0 c 1.46968,-2.92477 2.59099,-6.03457 4.45224,-8.76098 1.55685,-3.06912 2.88492,-6.23582 4.0191,-9.48541 0.65242,-2.88303 4.72963,-1.96039 4.07722,0.92264 z"
       id="path4953"
       style="fill:#000000;fill-opacity:1;fill-rule:nonzero;stroke:none" />
    <path
       style="fill:#000000;fill-opacity:1;fill-rule:nonzero;stroke:none"
       id="path4955"
       d="m 651.3061,416.76567 c -1.1809,3.59354 -2.66307,7.07437 -4.36608,10.44968 -1.83453,2.7291 -3.00021,5.79793 -4.43629,8.72911 -1.31171,2.64894 -5.05788,0.79391 -3.74618,-1.85504 l 0,0 c 1.46967,-2.92478 2.59099,-6.03457 4.45224,-8.76098 1.55685,-3.06912 2.88491,-6.23582 4.0191,-9.48541 0.65241,-2.88303 4.72963,-1.96039 4.07721,0.92264 z"
       inkscape:connector-curvature="0" />
    <path
       inkscape:connector-curvature="0"
       d="m 664.12293,416.97086 c -1.18089,3.59354 -2.66308,7.07437 -4.36608,10.44968 -1.83454,2.72911 -3.00021,5.79794 -4.4363,8.72911 -1.3117,2.64894 -5.05786,0.79392 -3.74617,-1.85502 l 0,0 c 1.46967,-2.92479 2.59098,-6.03459 4.45224,-8.76099 1.55684,-3.06913 2.88491,-6.23583 4.0191,-9.48542 0.65241,-2.88302 4.72962,-1.96038 4.07721,0.92264 z"
       id="path4957"
       style="fill:#000000;fill-opacity:1;fill-rule:nonzero;stroke:none" />
    <path
       inkscape:connector-curvature="0"
       d="m 677.92482,417.15395 c -1.1809,3.59354 -2.66307,7.07437 -4.36609,10.44968 -1.83452,2.7291 -3.0002,5.79793 -4.43628,8.72911 -1.31171,2.64894 -5.05788,0.79391 -3.74618,-1.85504 l 0,0 c 1.46968,-2.92477 2.59099,-6.03457 4.45224,-8.76098 1.55685,-3.06912 2.88491,-6.23582 4.0191,-9.48541 0.65241,-2.88303 4.72962,-1.96039 4.07721,0.92264 z"
       id="path4959"
       style="fill:#000000;fill-opacity:1;fill-rule:nonzero;stroke:none" />
    <path
       style="fill:#000000;fill-opacity:1;fill-rule:nonzero;stroke:none"
       id="path4961"
       d="m 690.74165,417.35914 c -1.18089,3.59354 -2.66308,7.07437 -4.36608,10.44968 -1.83454,2.7291 -3.00022,5.79793 -4.43629,8.72911 -1.31172,2.64894 -5.05787,0.79391 -3.74618,-1.85503 l 0,0 c 1.46967,-2.92478 2.59098,-6.03458 4.45224,-8.76097 1.55684,-3.06914 2.88491,-6.23584 4.01909,-9.48543 0.65242,-2.88303 4.72963,-1.96039 4.07722,0.92264 z"
       inkscape:connector-curvature="0" />
    <path
       style="fill:#000000;fill-opacity:1;fill-rule:nonzero;stroke:none"
       id="path4963"
       d="m 703.53637,416.57927 c -1.1809,3.59353 -2.66308,7.07437 -4.36609,10.44968 -1.83453,2.7291 -3.00021,5.79793 -4.43629,8.7291 -1.31171,2.64895 -5.05787,0.79391 -3.74618,-1.85503 l 0,0 c 1.46967,-2.92478 2.59099,-6.03458 4.45224,-8.76098 1.55685,-3.06912 2.88492,-6.23582 4.0191,-9.48541 0.65241,-2.88304 4.72963,-1.9604 4.07722,0.92264 z"
       inkscape:connector-curvature="0" />
    <path
       inkscape:connector-curvature="0"
       d="m 716.35319,416.78447 c -1.18089,3.59353 -2.66307,7.07436 -4.36608,10.44968 -1.83453,2.7291 -3.00021,5.79793 -4.4363,8.72911 -1.3117,2.64893 -5.05786,0.79391 -3.74616,-1.85504 l 0,0 c 1.46966,-2.92479 2.59097,-6.03458 4.45223,-8.76098 1.55684,-3.06913 2.88491,-6.23583 4.0191,-9.48542 0.65241,-2.88302 4.72962,-1.96038 4.07721,0.92265 z"
       id="path4965"
       style="fill:#000000;fill-opacity:1;fill-rule:nonzero;stroke:none" />
    <path
       inkscape:connector-curvature="0"
       d="m 730.15508,416.96755 c -1.1809,3.59354 -2.66307,7.07437 -4.36608,10.44968 -1.83453,2.7291 -3.00021,5.79793 -4.43629,8.7291 -1.31171,2.64895 -5.05788,0.79391 -3.74618,-1.85503 l 0,0 c 1.46968,-2.92478 2.59099,-6.03458 4.45224,-8.76098 1.55685,-3.06912 2.88491,-6.23582 4.0191,-9.48541 0.65241,-2.88304 4.72963,-1.9604 4.07721,0.92264 z"
       id="path4967"
       style="fill:#000000;fill-opacity:1;fill-rule:nonzero;stroke:none" />
    <path
       style="fill:#000000;fill-opacity:1;fill-rule:nonzero;stroke:none"
       id="path4987"
       d="m 421.49463,361.88628 c -0.53222,-1.16136 -1.17311,-2.25933 -1.63112,-3.45668 -0.36252,-1.0401 -0.4755,-2.09485 -0.34473,-3.18084 0.25208,-1.15523 0.83114,-2.21715 1.387,-3.25201 0.57188,-0.88709 1.16252,-1.72076 2.00068,-2.37307 0.54543,-0.64108 1.49244,-0.99926 2.26895,-1.40003 1.16575,-0.46248 2.27596,-1.05443 3.44978,-1.4979 0.9396,-0.35786 1.93556,-0.42843 2.92949,-0.4586 1.2987,-0.12581 2.47983,0.20533 3.64658,0.74183 1.13064,0.62343 2.14259,1.46714 2.98659,2.44164 0.56866,0.69306 0.97561,1.49191 1.60504,2.13485 0.53788,0.44364 0.68355,1.1853 1.10395,1.68689 0.4627,0.65139 0.68304,1.38093 0.77932,2.1642 0.14048,1.15411 -0.48237,2.10425 -1.15977,2.96575 -0.64168,0.69331 -1.32934,1.37579 -2.1184,1.90268 -0.67826,0.45395 -1.47403,0.55322 -2.26742,0.59774 -0.92352,0.10736 -1.75236,-0.14885 -2.57367,-0.54826 -1.30984,-0.66287 -2.02233,-1.87154 -2.50894,-3.20143 -0.58832,-1.4924 -0.82571,-3.08623 -1.21112,-4.63708 -0.37271,-1.45436 -0.53081,-2.94765 -0.62079,-4.44241 -0.12512,-1.41424 0.11159,-2.81687 0.5259,-4.16508 0.5171,-1.45856 1.60631,-2.49894 2.57822,-3.64644 0.94553,-1.05229 1.97989,-1.98531 3.25572,-2.60657 1.20153,-0.68505 2.56846,-0.8162 3.89352,-1.09005 1.52129,-0.36781 3.01894,-0.62554 4.5812,-0.47225 1.14846,0.0787 2.20936,0.50487 3.29032,0.85832 1.16755,0.40195 2.046,1.21811 2.85357,2.11833 0.70902,0.96813 1.33248,1.94862 1.69072,3.0989 0.43018,0.87561 0.67341,1.82022 0.84471,2.77558 0.10828,0.71473 0.13603,1.43693 0.14365,2.15857 0.0715,0.76734 -0.13184,1.46633 -0.50487,2.1326 -0.57174,0.71372 -1.2025,1.25444 -2.04489,1.61607 -1.21936,0.40718 -2.39711,0.21639 -3.58835,-0.17584 -1.37184,-0.51206 -2.5357,-1.42128 -3.53656,-2.47056 -0.92819,-0.94051 -1.49205,-2.11344 -2.07107,-3.27969 -0.73361,-1.49861 -0.66823,-3.04377 -0.34529,-4.63471 0.35049,-1.63399 1.06093,-3.15667 1.9591,-4.55607 0.59231,-0.98959 1.18468,-1.97834 1.82514,-2.9396 0.63122,-0.94472 1.44199,-1.73975 2.34739,-2.41854 0.99129,-0.52817 2.07748,-0.91902 3.1663,-1.20226 1.07601,-0.38576 2.18555,-0.67327 3.31046,-0.87262 0.72299,-0.12047 1.45664,-0.1468 2.18809,-0.15477 1.13042,0.0987 1.95504,0.71781 2.83757,1.35911 0.84801,0.46726 1.31916,1.48555 2.09885,2.00139 0.68517,0.42922 1.08912,1.12905 1.3017,1.88641 0.12567,0.6473 0.11842,1.30801 0.11713,1.96424 -0.003,0.48996 -0.007,0.97989 -0.009,1.46985 -10e-4,0.47042 -0.002,0.94085 -0.002,1.41127 -3e-5,0.22771 1e-5,0.45541 3e-5,0.68312 0.076,0.78121 -0.43106,1.09214 -0.90327,1.47535 -0.0706,0.0573 0.14983,-0.10347 0.22897,-0.14822 0.0273,-0.0154 -0.0244,0.0579 -0.04,0.0851 -0.5381,0.99715 -1.68844,1.03547 -2.65444,0.93094 -1.07231,-0.18459 -1.90912,-0.74962 -2.72034,-1.43623 -0.7997,-0.56989 -1.34743,-1.38387 -1.92765,-2.15834 -0.65987,-0.91162 -0.89011,-1.9675 -1.00033,-3.0643 -0.067,-1.02252 -0.0528,-2.04799 -0.05,-3.07205 0.004,-1.20978 0.007,-2.41957 0.009,-3.62935 0.093,-1.41163 0.72999,-2.59905 1.61518,-3.66611 0.71445,-1.0119 1.81081,-1.56366 2.84347,-2.18223 0.90543,-0.52736 1.89982,-0.74846 2.93092,-0.83863 0.83428,-0.0238 1.63028,-0.33357 2.4435,-0.51269 0.67567,-0.15958 1.36994,-0.19413 2.0611,-0.21455 0.92908,-0.0533 1.82264,-8.4e-4 2.72093,0.25043 0.97982,0.21939 1.63722,0.76181 2.29775,1.48372 0.44629,0.65369 0.89257,1.31455 1.28408,2.00297 0.34562,0.61797 0.50296,1.30028 0.59121,1.99585 0.0441,0.41547 0.0329,0.83453 0.0305,1.25166 -0.003,0.44791 -0.005,0.89584 -0.005,1.34376 -5.3e-4,0.29613 -6.4e-4,0.59226 -6.6e-4,0.88839 -0.15209,0.86055 -0.61226,1.37605 -1.35052,1.75154 -0.32684,0.17358 -0.7001,0.18542 -1.06255,0.1844 -0.41966,-0.004 -0.83934,-0.004 -1.25902,-0.005 -1.10112,-0.16788 -2.10281,-0.61219 -3.02641,-1.22047 -0.94332,-0.6821 -1.60189,-1.60089 -2.15611,-2.6075 -0.52482,-1.10278 -0.8385,-2.30504 -1.13997,-3.48713 -0.28423,-1.25307 -0.3835,-2.53815 -0.44115,-3.81884 -0.0951,-1.00957 -0.004,-1.88853 0.42321,-2.81677 0.60829,-1.13308 1.44268,-2.11672 2.37483,-2.99432 1.09507,-0.95397 2.30344,-1.70853 3.60687,-2.34047 0.87267,-0.42603 1.76938,-0.75008 2.73182,-0.88082 0.77388,-0.0722 1.55276,-0.0531 2.329,-0.0498 0.89941,0.004 1.79881,0.007 2.69822,0.009 0.78586,-0.0758 1.511,0.12607 2.23146,0.42155 0.80357,0.44102 1.40312,1.12851 2.0127,1.79172 0.49095,0.6412 0.9189,1.33602 1.30287,2.04858 0.20559,0.51497 0.30614,1.00209 0.59064,1.46056 0.34223,0.61652 0.48869,1.28907 0.55993,1.98291 0.0335,0.38483 0.0322,0.77181 0.0298,1.15781 0.0278,0.50796 -0.24365,0.99581 -0.5863,1.36001 -0.49047,0.43204 -1.00945,0.78195 -1.58692,1.11673 -0.65573,0.33361 -1.3662,0.44932 -2.09103,0.4983 -0.71228,0.0547 -1.38952,0.017 -2.08564,-0.13204 -0.83738,-0.30467 -1.59992,-0.77253 -2.28859,-1.33165 -0.55085,-0.53962 -0.91218,-1.22845 -1.26573,-1.90521 -0.50158,-1.05994 -0.82236,-2.162 -1.02286,-3.3154 -0.2008,-1.23255 -0.21533,-2.48345 -0.22916,-3.72893 -0.11566,-1.21024 0.16522,-2.36522 0.46439,-3.5246 0.19582,-1.24452 1.10505,-2.14558 1.94002,-3.01471 1.11103,-1.01505 2.41802,-1.76637 3.75783,-2.43351 0.87813,-0.43212 1.69823,-0.93779 2.63242,-1.24565 0.79954,-0.23365 1.63487,-0.25836 2.46146,-0.27121 0.57035,-0.005 1.1407,0.002 1.71104,0.005 0.49568,0.002 0.99137,0.003 1.48705,0.004 0.6989,-0.0675 1.33087,0.17419 1.90608,0.55578 0.82218,0.54024 1.22304,1.41928 1.66142,2.26101 0.35545,0.72758 0.8315,1.37274 1.15294,2.11869 0.26441,0.62329 0.32235,1.29808 0.34325,1.96657 0.008,0.50134 10e-4,1.00273 -0.002,1.50407 -0.003,0.31183 -0.003,0.62365 -0.004,0.93548 0.0108,0.69538 -0.40266,1.26199 -0.81201,1.77507 -0.41588,0.53509 -1.05244,0.67736 -1.67878,0.72809 2.09005,-1.01252 -0.0924,0.34717 -0.5884,0.51094 -1.28761,0.15209 -2.26717,-0.48743 -3.11351,-1.38032 -0.65718,-0.55047 -1.04526,-1.25156 -1.29173,-2.06143 -0.13938,-0.82467 -0.49084,-1.59431 -0.79603,-2.36827 -0.40598,-0.95549 -0.61865,-1.96786 -0.72631,-2.99563 -0.11949,-1.09787 -0.0511,-2.16675 0.16838,-3.24573 0.39843,-1.46141 1.0643,-2.81177 1.7945,-4.12954 0.62758,-1.06936 1.59628,-1.80434 2.59062,-2.50364 0.79036,-0.60916 1.63625,-1.1295 2.51657,-1.59743 0.55184,-0.20764 1.01138,-0.57483 1.55521,-0.82463 0.63378,-0.13053 1.1787,-0.42895 1.78613,-0.64804 0.66065,-0.20118 1.34201,-0.30712 2.02979,-0.3467 0.54058,-0.0212 1.08186,-0.0137 1.62274,-0.0122 0.93424,0.14076 1.79398,0.49089 2.58433,0.99921 0.66014,0.54054 0.62527,0.34825 1.27139,0.9444 0.46494,0.37354 0.95536,0.82266 1.3715,1.29406 0.42013,0.46486 0.71287,0.95635 0.83093,1.58084 0.008,0.0748 0.0176,0.29932 0.0249,0.22441 0.007,-0.0765 -0.0424,-0.15454 -0.0244,-0.22925 0.0202,-0.0841 0.10131,0.14107 0.14112,0.21791 0.1996,0.38526 0.18544,0.37709 0.3203,0.74149 0.19537,0.64917 0.2424,1.32382 0.26549,1.99702 0.01,0.49148 0.006,0.98309 0.004,1.47463 -0.002,0.2727 -0.002,0.5454 -0.003,0.81811 0.0862,0.69091 -0.22968,1.37948 -0.56339,1.82291 -0.44335,0.81305 -1.333,1.10843 -2.17941,1.26662 -0.87694,0.10221 -1.76147,0.095 -2.64293,0.0965 -0.54731,-1.1e-4 -1.09459,-0.004 -1.64189,-0.006 -1.15946,-0.13166 -2.02115,-0.79933 -2.83996,-1.57277 -0.76234,-0.80411 -1.08589,-1.79539 -1.23295,-2.86784 -0.0332,-1.07996 -0.31461,-2.12299 -0.46453,-3.19285 -0.19649,-1.36709 -0.24398,-2.74787 -0.27107,-4.1267 -0.0905,-1.35521 0.10073,-2.68196 0.61796,-3.93456 0.39606,-0.92165 1.11332,-1.44567 1.86719,-2.03975 0.84442,-0.56412 1.73021,-1.0197 2.68858,-1.35565 0.88752,-0.27561 1.81133,-0.37613 2.73553,-0.41752 0.52766,-0.0176 1.05568,-0.0106 1.5835,-0.007 0.29398,0.002 0.58796,0.003 0.88194,0.005 0.21613,3.9e-4 0.43226,3.8e-4 0.64839,3.9e-4 0.5219,-0.0294 1.29306,0.5897 1.36244,0.61302 0.12176,0.0446 0.24659,0.0805 0.37282,0.10878 3.10558,4.11464 -0.15013,-0.77875 1.3876,1.22748 0.19802,0.3561 0.33613,0.74064 0.43176,1.13565 0.41347,1.16506 -1.89367,-0.99137 -1.02704,-0.98838 0.10438,6.7e-4 0.20872,-0.002 0.31305,-0.004 -0.008,1.5e-4 -0.0162,8e-4 -0.0243,10e-4 1.9664,-0.12883 2.14859,2.65208 0.18219,2.78091 l 0,0 c -0.019,9.8e-4 -0.0379,0.002 -0.0569,0.003 -0.14187,0.004 -0.28376,0.007 -0.42571,0.006 -0.78875,-0.004 -1.86834,-2.17845 -1.67408,-1.16013 -0.0272,-0.1043 -0.0613,-0.20667 -0.0904,-0.31007 0.0545,0.0493 0.22201,0.19253 0.16349,0.14803 -0.54719,-0.41619 -1.78488,-2.17803 0.35261,-0.0928 0.0175,0.017 -0.0481,-0.008 -0.0721,-0.0125 -0.31058,-0.0635 -0.61431,-0.15732 -0.90966,-0.27236 -0.49285,-0.21692 -1.6396,-0.9389 -0.28561,-0.39666 -0.22102,-10e-6 -0.44205,10e-6 -0.66307,-4.3e-4 -0.29493,-0.002 -0.58987,-0.003 -0.88481,-0.005 -0.48251,-0.003 -0.96519,-0.01 -1.44759,0.005 -0.6541,0.0259 -1.30866,0.0887 -1.94123,0.26631 -0.69982,0.23895 -1.33327,0.568 -1.95437,0.97059 -0.43333,0.30775 -0.72441,0.4305 -0.9811,0.95348 -0.5005,0.74695 -0.33016,1.87977 -0.36477,2.71844 0.0245,1.26861 0.0645,2.53931 0.24505,3.79722 0.14801,1.07407 0.43174,2.12804 0.4673,3.21333 0.0534,0.43606 0.11485,0.84956 0.38826,1.20967 0.20715,0.1978 0.48628,0.55487 0.75051,0.67959 0.10123,0.0478 0.2271,0.0419 0.31848,0.10651 0.0379,0.0268 -0.0919,0.0142 -0.13781,0.0213 0.54259,0.002 1.08517,0.006 1.62777,0.006 0.73049,-10e-4 1.46242,0.003 2.19088,-0.0589 0.60556,-0.0608 -0.073,0.38365 0.3444,-0.1034 0.62732,-0.82347 0.18753,-0.27407 0.15619,-0.16355 -0.29387,1.0362 0.001,0.25117 -0.0881,-0.0767 3.3e-4,-0.27531 9.8e-4,-0.55062 0.003,-0.82592 0.002,-0.45666 0.005,-0.91338 -0.003,-1.37001 -0.0126,-0.38471 -0.0326,-0.76796 -0.1026,-1.14731 -0.16739,-0.49705 -0.56598,-0.89733 -0.59124,-1.45673 0.37975,0.6266 -0.0597,-0.0876 -0.18084,-0.19164 -0.35714,-0.42016 -0.76709,-0.7897 -1.20361,-1.11748 -0.22535,-0.27233 -0.59792,-0.38274 -0.86173,-0.618 -0.31485,-0.21134 -0.91455,-0.43418 -1.06818,-0.54553 -0.48697,-0.001 -0.97425,-0.008 -1.46103,0.008 -0.42035,0.0218 -0.835,0.084 -1.24375,0.1877 -0.52197,0.18522 -1.02424,0.48663 -1.57184,0.5611 -0.48978,0.21936 -0.89662,0.57187 -1.40319,0.74981 -0.77915,0.41241 -1.52386,0.87198 -2.21964,1.41525 -0.65111,0.45777 -1.31804,0.89307 -1.756,1.57472 -0.59422,1.07231 -1.1472,2.16003 -1.50241,3.34022 -0.16721,0.80199 -0.21927,1.58474 -0.12519,2.40573 0.073,0.7748 0.23791,1.53536 0.54657,2.25338 0.33479,0.85214 0.71633,1.70894 0.87965,2.61358 0.11594,0.45622 0.37624,0.71775 0.74554,1.04049 0.19447,0.19478 0.80011,0.43972 0.15734,0.51497 0.10335,-0.0237 0.51068,-0.13935 1.20761,-0.62838 0.33234,-0.0216 -0.27028,0.34534 -0.28792,0.30627 0.0824,-0.1015 0.24585,-0.43899 0.24265,-0.30826 -0.002,0.0926 -0.0595,0.64572 -0.0445,0.27437 4.2e-4,-0.31671 0.001,-0.63342 0.004,-0.95012 0.003,-0.46782 0.009,-0.93567 0.003,-1.40349 -0.009,-0.32342 -0.007,-0.66083 -0.12528,-0.96549 -0.27659,-0.68215 -0.7796,-1.23976 -1.06138,-1.92319 -0.22624,-0.44317 -0.37142,-0.92208 -0.74931,-1.23323 -0.50663,-0.36314 0.82383,0.0458 -0.34418,-0.0755 -0.50005,-3.8e-4 -1.00011,-10e-4 -1.50016,-0.004 -0.55148,-0.003 -1.10298,-0.009 -1.65447,-0.005 -0.55962,0.008 -1.1286,0.008 -1.67448,0.14557 -0.80482,0.21592 -1.44965,0.78167 -2.22163,1.08097 -1.05657,0.52256 -2.08814,1.10328 -2.98949,1.87034 -0.51019,0.52836 -1.14887,1.01658 -1.24904,1.77814 -0.24021,0.93036 -0.49392,1.82125 -0.37612,2.79748 0.0119,1.09929 0.0181,2.20401 0.18995,3.29268 0.14337,0.87014 0.37423,1.69659 0.74814,2.49694 0.22877,0.4431 0.398,0.79079 0.63965,1.10334 0.23225,0.38498 0.89654,0.52026 1.2545,0.75307 -0.39191,0.0768 0.97099,8.4e-4 1.09151,0.0169 0.29859,-0.0185 0.59089,-0.0434 0.87838,-0.13042 0.51195,-0.29448 0.82448,-0.47698 0.96167,-0.62422 0.38625,-0.39714 -0.26865,1.1577 -0.18108,0.54218 0.002,-0.28765 0.005,-0.57606 -0.0161,-0.86308 -0.0265,-0.27959 -0.0565,-0.54666 -0.16638,-0.80867 -0.30014,-0.49757 -0.56018,-1.01533 -0.66577,-1.59168 -0.27985,-0.52221 -0.58395,-1.03599 -0.92627,-1.51115 -0.33328,-0.39745 -0.71247,-0.71558 -1.07326,-1.06943 -0.0186,-0.0182 0.0521,-0.001 0.0781,-0.002 -0.57765,-0.23871 -0.3639,-0.23878 -1.17665,-0.21188 -0.90141,-0.002 -1.80282,-0.005 -2.70423,-0.009 -0.6581,-0.003 -1.31803,-0.0188 -1.9749,0.0288 -0.66524,0.0648 -1.26259,0.35953 -1.86798,0.62738 -1.05556,0.5003 -2.02001,1.10205 -2.90917,1.86328 -0.71335,0.66196 -1.35508,1.40277 -1.816,2.26363 -0.32661,0.232 -0.0362,1.01269 -0.10181,1.38896 0.0475,1.09201 0.1272,2.18842 0.35881,3.25888 0.24113,0.96316 0.49528,1.94142 0.89239,2.85006 0.32909,0.63611 0.7201,1.20072 1.29519,1.64141 0.52126,0.42424 1.04391,0.38528 1.51459,0.68834 0.0233,0.015 -0.0511,0.0212 -0.0767,0.0318 0.42112,7.2e-4 0.84225,0.001 1.26336,0.005 0.39577,0.002 -0.0138,0.008 -0.17322,0.10007 -0.10327,0.19096 -0.25254,0.49196 -0.20971,0.75072 1e-5,-0.29772 1.3e-4,-0.59545 6.6e-4,-0.89318 8e-4,-0.45183 0.002,-0.90367 0.006,-1.3555 0.002,-0.29758 0.0103,-0.59646 -0.009,-0.89343 -0.0416,-0.35309 -0.0921,-0.69273 -0.27376,-1.00627 -0.24803,-0.51956 -0.65575,-0.96028 -0.9147,-1.47823 -0.3266,-0.37109 -0.3017,-0.4914 -0.9991,-0.66424 -0.60913,-0.19172 -1.22152,-0.15822 -1.85962,-0.1401 -0.5174,0.0147 -1.03875,0.03 -1.5446,0.15093 -0.93412,0.20416 -1.84931,0.55084 -2.81336,0.56818 -0.60684,0.0446 -1.18824,0.14757 -1.72654,0.45192 -0.78829,0.47207 -1.63636,0.83785 -2.17278,1.62046 -0.49577,0.51036 -0.80936,1.14399 -0.93096,1.84058 -0.002,1.21117 -0.004,2.42234 -0.009,3.63351 -0.003,0.9332 -0.0153,1.86748 0.0374,2.79966 0.0517,0.58874 0.11691,1.1553 0.45641,1.658 0.45833,0.61175 0.8602,1.26407 1.50077,1.70466 0.44474,0.37842 0.82316,0.73075 1.43899,0.82336 -0.17992,0.10015 -0.0205,-0.004 0.0817,0.0367 0.051,0.0204 -0.0944,0.0598 -0.12953,0.10205 -0.0985,0.11853 -0.17741,0.25343 -0.28337,0.36534 -0.0441,0.0465 0.0636,-0.11125 0.0955,-0.16688 0.23798,-0.37428 0.45395,-0.58961 0.802,-0.89045 0.0698,-0.0603 -0.1658,0.10201 -0.20562,0.18522 -0.13291,0.27778 -0.18788,0.58699 -0.30092,0.87343 -0.0136,0.0344 0,-0.0739 -10e-6,-0.11087 -2e-5,-0.22804 -6e-5,-0.45608 -3e-5,-0.68413 1.3e-4,-0.47325 3e-4,-0.94651 0.002,-1.41976 0.002,-0.48881 0.006,-0.97758 0.009,-1.46638 9.3e-4,-0.42259 10e-4,-0.84513 -0.0299,-1.26678 -0.0131,-0.10299 0.0262,-0.18371 -0.42228,-0.46779 -0.66009,-0.60489 -1.20637,-1.32268 -1.92747,-1.86492 -0.0352,-0.026 -0.56943,-0.51773 -0.70984,-0.58359 -0.16617,-0.0779 -0.4044,-0.0519 -0.51311,-0.19981 -0.0144,-0.0196 0.0424,-0.0238 0.0636,-0.0358 -0.5816,0.006 -1.16547,0.0213 -1.74086,0.11387 -1.05766,0.17832 -2.08943,0.48059 -3.1029,0.82839 -0.75181,0.18261 -1.45852,0.49664 -2.18983,0.73873 -0.65786,0.48062 -1.23362,1.04823 -1.6893,1.72646 -0.63788,0.95602 -1.22449,1.93964 -1.81477,2.92395 -0.74201,1.08767 -1.2664,2.33054 -1.56368,3.61185 -0.2284,0.97458 -0.32088,1.88049 0.11904,2.81361 0.45786,0.93115 0.87573,1.86833 1.61602,2.61947 0.65508,0.74245 1.49117,1.35563 2.40799,1.73328 0.57581,0.22063 1.07744,0.34658 1.68622,0.20227 0.22478,-0.079 0.98452,-0.88405 0.61453,-0.39594 0.0404,-0.0666 0.0846,-0.26665 0.12299,-0.19881 0.0308,0.0545 -0.0213,0.2409 0.0114,0.18749 0.10417,-0.17031 -0.0763,-0.52267 0.002,-0.70678 -0.006,-0.56853 -0.0234,-1.13739 -0.10116,-1.7015 -0.14962,-0.86034 -0.40625,-1.68357 -0.7749,-2.47756 -0.1967,-0.77512 -0.70284,-1.37462 -1.11267,-2.04628 -0.45968,-0.54805 -0.94964,-1.03708 -1.62389,-1.30592 -0.89546,-0.2932 -1.76184,-0.66996 -2.71385,-0.73528 -1.27251,-0.14545 -2.49115,0.159 -3.73612,0.43161 -1.11649,0.22366 -2.26965,0.31116 -3.28011,0.88915 -0.93768,0.37759 -1.59743,1.19601 -2.30367,1.88495 -0.74238,0.86546 -1.59415,1.62758 -2.04817,2.69936 -0.35928,1.00008 -0.46967,2.08244 -0.39431,3.13813 0.0777,1.32408 0.21302,2.64749 0.54344,3.93578 0.36456,1.4671 0.58591,2.97597 1.13698,4.3887 0.21157,0.65822 0.50055,1.31251 1.14614,1.64004 0.48397,0.2769 0.52615,0.28355 1.15649,0.24727 0.30023,-0.0151 0.63424,0.007 0.89241,-0.14779 0.55626,-0.34797 1.0064,-0.85123 1.46629,-1.31015 0.27113,-0.32983 0.60337,-0.66965 0.56618,-0.92113 -0.0227,-0.29029 -0.0756,-0.53124 -0.23079,-0.78595 -0.3429,-0.46842 -0.54021,-0.9826 -0.89399,-1.44075 -0.6541,-0.69124 -1.15473,-1.48246 -1.70836,-2.24877 -0.57738,-0.68193 -1.2777,-1.2611 -2.03898,-1.72579 -0.7858,-0.36393 -1.50861,-0.60556 -2.39791,-0.4867 -0.69011,0.0191 -1.38672,0.0401 -2.0415,0.28582 -1.07514,0.38781 -2.07538,0.96252 -3.14543,1.36383 -0.6638,0.33975 -1.37528,0.55089 -1.85213,1.13686 -0.53804,0.39342 -0.83873,0.94897 -1.23636,1.47689 -0.41473,0.771 -0.86472,1.55245 -1.09365,2.39602 -0.23493,0.48737 0.13154,1.23239 0.2018,1.72742 0.41874,1.1113 1.03537,2.1192 1.51864,3.20027 0.88129,1.76258 -1.61137,3.0089 -2.49265,1.24633 z"
       inkscape:connector-curvature="0" />
  </g>
</svg>
