<?xml version="1.0" encoding="UTF-8" standalone="no"?>
<!-- Created with Inkscape (http://www.inkscape.org/) -->

<svg
   xmlns:dc="http://purl.org/dc/elements/1.1/"
   xmlns:cc="http://creativecommons.org/ns#"
   xmlns:rdf="http://www.w3.org/1999/02/22-rdf-syntax-ns#"
   xmlns:svg="http://www.w3.org/2000/svg"
   xmlns="http://www.w3.org/2000/svg"
   xmlns:sodipodi="http://sodipodi.sourceforge.net/DTD/sodipodi-0.dtd"
   xmlns:inkscape="http://www.inkscape.org/namespaces/inkscape"
   width="614.32935"
   height="331.62646"
   id="svg6027"
   version="1.1"
   inkscape:version="0.48.0 r9654"
   sodipodi:docname="New document 14">
  <defs
     id="defs6029">
    <inkscape:path-effect
       effect="spiro"
       id="path-effect6566"
       is_visible="true" />
  </defs>
  <sodipodi:namedview
     inkscape:document-units="mm"
     pagecolor="#ffffff"
     bordercolor="#666666"
     borderopacity="1.0"
     inkscape:pageopacity="0.0"
     inkscape:pageshadow="2"
     inkscape:zoom="0.7176508"
     inkscape:cx="293.5151"
     inkscape:cy="106.06657"
     inkscape:current-layer="layer1"
     id="namedview6031"
     showgrid="false"
     fit-margin-top="0"
     fit-margin-left="0"
     fit-margin-right="0"
     fit-margin-bottom="0"
     inkscape:window-width="1280"
     inkscape:window-height="752"
     inkscape:window-x="0"
     inkscape:window-y="0"
     inkscape:window-maximized="0" />
  <metadata
     id="metadata6033">
    <rdf:RDF>
      <cc:Work
         rdf:about="">
        <dc:format>image/svg+xml</dc:format>
        <dc:type
           rdf:resource="http://purl.org/dc/dcmitype/StillImage" />
        <dc:title></dc:title>
      </cc:Work>
    </rdf:RDF>
  </metadata>
  <g
     inkscape:label="Layer 1"
     inkscape:groupmode="layer"
     id="layer1"
     transform="translate(-232.66599,-146.48736)">
    <path
       style="fill:#000000;fill-opacity:1;fill-rule:nonzero;stroke:none"
       id="path6546"
       d="m 332.61823,411.07851 c 13.08254,-0.55545 26.19414,-0.3179 39.28524,-0.20826 30.78713,0.50785 61.57768,0.65757 92.36821,0.79481 44.47747,-0.0712 88.95158,-0.6199 133.42787,-0.85907 51.10361,-0.0135 102.20087,-0.73327 153.29875,-1.40438 7.98185,-0.10383 15.96369,-0.20765 23.94555,-0.31148 2.95567,-0.0385 3.01004,4.14151 0.0544,4.17995 l 0,0 c -7.98167,0.10383 -15.96334,0.20765 -23.94501,0.31147 -51.10869,0.67126 -102.21676,1.39109 -153.33118,1.40468 -44.48999,0.23918 -88.97779,0.78825 -133.46897,0.85909 -30.796,-0.13726 -61.59203,-0.28695 -92.38462,-0.79491 -12.97737,-0.10885 -25.97475,-0.34239 -38.94394,0.19718 -2.94798,0.21655 -3.25423,-3.95252 -0.30626,-4.16908 z"
       inkscape:connector-curvature="0" />
    <path
       style="fill:#000000;fill-opacity:1;fill-rule:nonzero;stroke:none"
       id="path6556"
       d="m 345.229,163.25463 c 0.39218,24.93794 0.98674,49.87006 1.26371,74.80991 0.68332,45.55929 0.75823,91.12061 0.53015,136.68335 -0.47861,31.8644 -0.13912,16.03719 -1.01076,47.48179 -0.0819,2.95478 -4.26064,2.83891 -4.1787,-0.1159 l 0,0 c 0.87028,-31.37756 0.53122,-15.582 1.0092,-47.38684 0.22803,-45.54029 0.15312,-91.07917 -0.52995,-136.61601 -0.27747,-24.99929 -0.87969,-49.99072 -1.26187,-74.98827 0.0933,-2.95444 4.27152,-2.82251 4.17822,0.132 z"
       inkscape:connector-curvature="0" />
    <path
       style="fill:#000000;fill-opacity:1;fill-rule:nonzero;stroke:none"
       id="path6560"
       d="m 332.88835,175.36483 c 1.7328,-2.92738 2.8545,-6.15537 4.25511,-9.24105 0.86346,-1.764 1.58277,-3.58099 2.07459,-5.4821 0.12452,-0.24373 0.1096,-1.01612 0.11874,-0.25391 1.31337,-0.4049 2.59329,-0.94085 3.9401,-1.21471 0.27547,-0.056 3.1919,3.94577 3.45442,4.32458 2.32044,3.31389 4.55588,6.68905 6.5699,10.19863 0.30819,0.52665 0.61637,1.0533 0.92455,1.57995 1.49277,2.5513 -2.11531,4.6624 -3.60808,2.1111 l 0,0 c -0.31475,-0.53799 -0.62949,-1.07599 -0.94424,-1.61398 -1.9484,-3.41167 -4.13383,-6.67981 -6.38191,-9.90022 -0.84853,-1.23363 -1.70177,-2.41407 -2.73474,-3.49584 -0.17394,-0.18216 -0.70978,-0.39709 -0.51322,-0.55457 1.01446,-0.81271 2.30481,-1.20264 3.45721,-1.80396 0.0135,0.57141 -0.0867,1.12469 -0.23739,1.6766 -0.55858,2.13288 -1.34812,4.18358 -2.31736,6.16491 -1.43602,3.12258 -2.55298,6.40765 -4.3187,9.37406 -1.32192,2.64386 -5.0609,0.77437 -3.73898,-1.86949 z"
       inkscape:connector-curvature="0" />
    <path
       inkscape:connector-curvature="0"
       d="m 766.02613,402.15146 c 2.96571,1.66634 6.21817,2.71497 9.33465,4.04564 1.78303,0.82346 3.61577,1.50161 5.52749,1.95044 0.24648,0.11899 1.01833,0.0866 0.25652,0.11298 0.43442,1.30391 0.9991,2.57141 1.30326,3.91171 0.0622,0.27413 -3.87279,3.28006 -4.24559,3.55106 -3.26072,2.39458 -6.58461,4.70556 -10.04788,6.79821 -0.51956,0.31999 -1.03913,0.63997 -1.5587,0.95994 -2.51699,1.54993 -4.70891,-2.00963 -2.19192,-3.55955 l 0,0 c 0.53075,-0.3268 1.06152,-0.6536 1.59227,-0.9804 3.36687,-2.02484 6.58489,-4.28341 9.75379,-6.60354 1.21418,-0.87613 2.37508,-1.75577 3.43328,-2.81288 0.17819,-0.178 0.38099,-0.71855 0.54286,-0.52559 0.83538,0.99587 1.25431,2.2771 1.88146,3.41565 -0.57096,0.0264 -1.12636,-0.0613 -1.68153,-0.19952 -2.14493,-0.51034 -4.21291,-1.25344 -6.2156,-2.17775 -3.15416,-1.36524 -6.46359,-2.40784 -9.46906,-4.10621 -2.673,-1.26197 -0.8883,-5.04216 1.7847,-3.78019 z"
       id="path6562"
       style="fill:#000000;fill-opacity:1;fill-rule:nonzero;stroke:none" />
    <path
       style="fill:none;stroke:#000000;stroke-width:3.12519693;stroke-linecap:butt;stroke-linejoin:miter;stroke-miterlimit:4;stroke-opacity:1;stroke-dasharray:9.37559055, 3.12519685;stroke-dashoffset:0"
       d="m 344.17853,200.6547 c 41.84745,0.93161 83.02428,19.46118 111.47484,50.16367 8.64756,9.33203 16.1239,19.67752 24.37305,29.36352 8.24914,9.68601 17.4366,18.83653 28.57748,24.98045 10.17814,5.61299 21.80757,8.5447 33.43079,8.51534 11.62323,-0.0294 23.21685,-3.01092 33.45411,-8.51534 12.21948,-6.57023 22.28349,-16.51287 31.37388,-26.99372 9.0904,-10.48085 17.40817,-21.6527 27.15042,-31.53056 28.91292,-29.31536 70.32037,-45.87835 111.47481,-44.58993"
       id="path6564"
       inkscape:path-effect="#path-effect6566"
       inkscape:original-d="m 344.17853,200.6547 c 0,0 79.42583,23.6884 111.47484,50.16367 36.49408,30.14729 41.80305,43.19649 52.95053,54.34397 11.14748,11.14748 52.56842,9.92122 66.8849,0 20.00188,-13.86116 27.02958,-39.20788 58.5243,-58.52428 35.31651,-21.66039 54.34397,-50.16367 111.47481,-44.58993"
       inkscape:connector-curvature="0"
       sodipodi:nodetypes="cssssc" />
    <path
       style="fill:none;stroke:#000000;stroke-width:2.41653538;stroke-linecap:butt;stroke-linejoin:miter;stroke-miterlimit:4;stroke-opacity:1;stroke-dasharray:2.41653543, 4.83307087;stroke-dashoffset:0"
       d="m 351.14571,260.57241 405.48969,0"
       id="path6572"
       inkscape:connector-curvature="0" />
    <path
       inkscape:connector-curvature="0"
       id="path6574"
       d="m 351.1457,282.86738 405.48969,0"
       style="fill:none;stroke:#000000;stroke-width:2.41653538;stroke-linecap:butt;stroke-linejoin:miter;stroke-miterlimit:4;stroke-opacity:1;stroke-dasharray:2.41653543, 4.83307087;stroke-dashoffset:0" />
    <path
       style="fill:#000000;fill-opacity:1;fill-rule:nonzero;stroke:none"
       id="path6592"
       d="m 601.11858,280.6762 c 4.96672,-6.03086 10.078,-11.94808 14.91758,-18.08313 0.82209,-1.06043 1.64418,-2.12087 2.46627,-3.18132 2.41482,-3.11479 6.81981,0.3003 4.40498,3.41509 l 0,0 c -0.83205,1.07316 -1.66409,2.14633 -2.49614,3.2195 -4.87064,6.16745 -10.00477,12.12317 -15.00168,18.18708 -2.51534,3.03421 -6.80634,-0.52302 -4.29101,-3.55722 z"
       inkscape:connector-curvature="0" />
    <path
       inkscape:connector-curvature="0"
       d="m 483.50126,280.6762 c -4.96672,-6.03086 -10.078,-11.94808 -14.91758,-18.08313 -0.82209,-1.06043 -1.64418,-2.12087 -2.46627,-3.18132 -2.41482,-3.11479 -6.81981,0.3003 -4.40498,3.41509 l 0,0 c 0.83205,1.07316 1.66409,2.14633 2.49614,3.2195 4.87064,6.16745 10.00477,12.12317 15.00168,18.18708 2.51534,3.03421 6.80634,-0.52302 4.29101,-3.55722 z"
       id="path6594"
       style="fill:#000000;fill-opacity:1;fill-rule:nonzero;stroke:none" />
    <path
       style="fill:#000000;fill-opacity:1;fill-rule:nonzero;stroke:none"
       id="path6596"
       d="m 340.83162,257.08882 c 2.8428,0 5.6856,0 8.5284,0 1.16352,0 2.32703,0 3.49054,0 2.95592,0 2.95592,4.18031 0,4.18031 l 0,0 c -1.16351,0 -2.32702,0 -3.49054,0 -2.8428,0 -5.6856,0 -8.5284,0 -2.95592,0 -2.95592,-4.18031 0,-4.18031 z"
       inkscape:connector-curvature="0" />
    <path
       style="fill:#000000;fill-opacity:1;fill-rule:nonzero;stroke:none"
       id="path6598"
       d="m 341.17188,281.00631 c 2.34473,0.53242 4.73229,0.81605 7.12509,1.0148 1.38781,0.11616 2.78053,0.15024 4.17257,0.15884 0.8537,8.2e-4 0.40459,8.2e-4 1.34733,-2.9e-4 2.95592,-0.003 2.96081,4.17685 0.005,4.18031 l 0,0 c -0.95918,0.001 -0.49968,0.001 -1.37849,2.1e-4 -1.49916,-0.01 -2.99895,-0.048 -4.49352,-0.17321 -2.61727,-0.21884 -5.22878,-0.53478 -7.79174,-1.12517 -2.86767,-0.71691 -1.8538,-4.77241 1.01387,-4.05549 z"
       inkscape:connector-curvature="0" />
    <path
       style="fill:#000000;fill-opacity:1;fill-rule:nonzero;stroke:none"
       id="path6614"
       d="m 233.72798,296.914 c 2.07493,-0.59606 3.33829,-2.18302 4.49823,-3.77372 2.24649,-3.38674 4.18759,-6.93441 5.80862,-10.60919 1.43923,-3.05688 2.30052,-6.27326 2.80457,-9.5601 0.15342,-1.16748 0.24568,-2.34153 0.23842,-3.5176 -0.002,-0.0796 -0.031,-0.31479 -0.005,-0.23886 0.0282,0.082 -0.002,0.43325 0.1454,0.52762 0.60271,0.3854 1.08086,0.21055 0.51379,0.6169 -1.62376,1.04466 -2.51157,2.51733 -3.3241,4.12933 -1.32909,3.27586 -1.41127,6.78315 -1.34327,10.2332 0.15614,3.37346 0.82681,6.67283 1.86204,9.90223 -0.063,-0.68098 0.92535,3.05143 0.95437,2.52251 -0.34749,-0.30787 0.21649,0.0814 -0.0696,-0.23095 1.7221,-0.58551 2.62181,1.65591 0.8997,2.24142 l 0,0 c -1.03117,0.22001 -1.53348,0.34829 -2.46223,-0.15215 -1.1298,-0.96281 -1.32669,-2.41156 -1.81268,-3.70533 -1.09903,-3.43553 -1.80715,-6.94775 -1.96753,-10.53563 -0.071,-3.81298 0.061,-7.68326 1.58617,-11.28524 1.00787,-1.97967 2.1822,-3.7823 4.16829,-5.06396 1.56195,-0.98275 3.31182,-1.1039 3.45078,1.02663 0.007,1.29226 -0.0923,2.58247 -0.26406,3.86506 -0.53758,3.48 -1.45068,6.88728 -2.97032,10.12544 -1.69556,3.82754 -3.71081,7.52908 -6.06606,11.05166 -1.54536,2.07147 -3.28077,4.03128 -6.01597,4.74886 -1.78105,0.4098 -2.41074,-1.90834 -0.6297,-2.31813 z"
       inkscape:connector-curvature="0" />
    <path
       style="fill:#000000;fill-opacity:1;fill-rule:nonzero;stroke:none"
       id="path6616"
       d="m 255.35326,293.50829 c -0.7438,1.58199 -0.99314,3.31567 -1.20027,5.0154 -0.007,0.0888 -0.31427,2.29554 0.0671,2.15923 0.16682,-0.0596 -0.14859,-0.31144 -0.28366,-0.41948 -0.0447,-0.0329 -0.15905,-0.0511 -0.13417,-0.0985 0.16325,-0.31128 0.5998,-0.42232 0.85235,-0.67816 0.53946,-0.54651 0.85843,-1.26744 1.19568,-1.92477 0.16252,-0.52191 0.87386,-1.77321 0.21012,-2.18701 -0.041,0.13084 -0.47021,-0.0149 -0.65126,-0.0283 -0.0514,0.0158 0.10822,-0.009 0.16168,-0.017 -1.78556,0.39285 -2.38921,-1.93114 -0.60366,-2.32399 l 0,0 c 0.20785,-0.037 0.4162,-0.0589 0.62853,-0.0422 0.95796,0.073 1.83886,0.34857 2.54399,0.98064 1.07927,1.47734 0.79749,3.07204 0.0536,4.64734 -0.9616,1.83759 -2.16189,3.63922 -4.49692,4.05132 -0.36543,-0.0953 -0.77126,-0.10518 -1.09629,-0.28607 -1.54074,-0.85752 -1.15611,-2.75197 -1.02704,-4.10131 0.24462,-1.97763 0.55788,-3.98703 1.45793,-5.81563 0.82102,-1.51124 3.14322,-0.44263 2.3222,1.06861 z"
       inkscape:connector-curvature="0" />
    <path
       style="fill:#000000;fill-opacity:1;fill-rule:nonzero;stroke:none"
       id="path6618"
       d="m 259.11742,282.35779 c 1.46204,0.36548 2.92315,0.26275 4.40587,0.11546 0.57186,-0.0483 1.13446,-0.15932 1.70495,-0.21388 0.0753,-0.004 0.15067,-0.008 0.226,-0.0114 1.8334,-0.0874 1.96771,2.29888 0.1343,2.38628 l 0,0 c -0.0475,0.002 -0.095,0.004 -0.14257,0.006 -0.54745,0.0621 -1.09427,0.16223 -1.6455,0.20863 -1.74057,0.17119 -3.47625,0.26051 -5.19223,-0.1482 -1.80021,-0.33136 -1.29103,-2.67444 0.50918,-2.34308 z"
       inkscape:connector-curvature="0" />
    <path
       style="fill:#000000;fill-opacity:1;fill-rule:nonzero;stroke:none"
       id="path6636"
       d="m 275.09541,274.56097 c 0.46312,1.81647 0.58936,3.68481 0.70133,5.54191 0.0908,1.75071 0.0999,3.50371 0.10508,5.25603 0.001,0.7958 -4.6e-4,1.59161 -0.004,2.3874 0.23093,1.13503 -2.81615,0.68519 -2.28432,-0.7739 0.45107,-1.76564 0.74775,-3.56332 1.14754,-5.33995 0.45941,-2.00365 1.015,-4.02488 2.05943,-5.84363 0.84152,-1.32477 1.35191,-1.68468 3.01348,-1.57691 1.00136,0.55719 1.36374,1.67588 1.71281,2.65671 0.4053,1.42357 0.37492,2.91493 0.4017,4.37608 -0.12902,1.27237 0.1737,2.467 0.49538,3.68888 0.10188,0.38007 0.20516,0.75987 0.31723,1.13752 -2.16196,-0.87264 -2.2259,-0.29541 -1.2541,-1.52538 0.83514,-1.59403 1.64896,-3.18527 2.63426,-4.70711 0.26632,-1.09978 1.57706,-1.74581 2.03344,-2.71099 0.0561,-0.11422 0.10174,-0.23352 0.13304,-0.35548 -10e-4,0.0253 -0.0248,0.16765 -0.007,0.16949 2.93898,0.30024 2.57944,-0.48181 2.57483,1.28454 -0.12306,1.62491 0.12829,3.21082 0.37945,4.81205 0.22502,1.23484 0.77041,2.25809 1.63467,3.20244 0.0453,0.22279 1.03733,0.74324 0.28845,0.34726 1.82934,0.14233 1.61062,2.52332 -0.21871,2.38098 l 0,0 c -0.90913,-0.21087 -1.50052,-0.49964 -2.06455,-1.19883 -1.15864,-1.29069 -1.91004,-2.72316 -2.20954,-4.39053 -0.26887,-1.71492 -0.52562,-3.4201 -0.40607,-5.15918 0.004,-1.72547 -0.35641,-1.37385 2.61232,-1.43357 0.0189,-3.8e-4 -0.006,0.26581 -0.007,0.27732 -0.0738,0.47501 -0.25889,0.92541 -0.51669,1.3423 -0.65918,0.88974 -1.54553,1.63661 -1.99709,2.6566 -1.02808,1.58325 -1.81994,3.26373 -2.76419,4.88827 -0.45323,0.57331 -2.42315,3.37041 -3.34727,0.75881 -0.11945,-0.40311 -0.23051,-0.80827 -0.33882,-1.21404 -0.36515,-1.38801 -0.68928,-2.77019 -0.56798,-4.21129 -0.0222,-1.22504 0.009,-2.47395 -0.27463,-3.67673 -0.0689,-0.19658 -0.65618,-1.42353 -0.64564,-1.48162 0.0357,-0.19621 0.41781,0.67231 0.53461,0.33778 1.00646,-0.0786 0.51436,-0.18852 0.1426,0.4523 -0.94908,1.60402 -1.3761,3.43359 -1.80644,5.20223 -0.42359,1.86831 -0.71882,3.76354 -1.22812,5.61391 -0.46489,1.27443 -2.94809,1.16414 -2.77336,0.004 0.003,-0.7905 0.005,-1.58102 0.004,-2.37152 -0.005,-1.7105 -0.0134,-3.42165 -0.10113,-5.13061 -0.10209,-1.70625 -0.21053,-3.42377 -0.62777,-5.09427 -0.44527,-1.63917 2.07352,-2.2187 2.51878,-0.57954 z"
       inkscape:connector-curvature="0" />
    <path
       style="fill:#000000;fill-opacity:1;fill-rule:nonzero;stroke:none"
       id="path6640"
       d="m 301.32718,274.92749 c -1.51038,0.26003 -2.72365,1.35848 -3.51297,2.52507 -0.68353,1.28705 -1.11536,2.68759 -0.89754,4.11701 0.25666,0.72831 1.01972,0.97728 1.76804,1.12971 1.06966,-0.0294 1.8159,-0.38812 2.41945,-1.19259 0.93326,-1.12696 1.26691,-2.47023 1.47435,-3.8432 0.10706,-0.96284 0.16412,-1.93073 0.16557,-2.89863 0.0162,0.13814 0.0934,0.80374 0.43055,0.82567 0.32205,0.021 0.65571,0.0696 0.96855,-0.004 0.48366,-0.11351 0.42052,-0.54684 0.44419,-0.21842 -0.2429,1.46453 0.0656,2.91942 0.24777,4.37353 0.58622,2.52643 0.94958,5.08206 1.15939,7.65613 0.3859,2.83342 -0.3703,5.41413 -1.8574,7.86727 -1.66171,2.2549 -3.51999,3.19033 -6.47201,3.04653 -2.65,-0.45239 -4.14999,-2.03886 -4.92227,-4.3096 -0.15896,-1.50714 -0.13334,-0.76957 -0.0912,-2.21224 0.0613,-1.68867 2.65618,-1.60885 2.59485,0.0798 l 0,0 c -0.0466,1.01945 -0.0463,0.53257 -0.0121,1.4606 0.37398,1.3228 1.11841,2.26638 2.63775,2.59956 1.74485,0.20921 3.0263,-0.50819 4.00453,-1.84013 1.26716,-2.03178 1.86587,-4.15204 1.52873,-6.51396 -0.20513,-2.5429 -0.58109,-5.06321 -1.14952,-7.56033 -0.21415,-1.7104 -0.54508,-3.42825 -0.20758,-5.14634 0.5812,-2.03475 2.73138,-2.07669 3.29205,-0.0996 -0.003,1.07915 -0.0654,2.15843 -0.19158,3.2314 -0.28195,1.78262 -0.77506,3.51334 -1.99196,4.9689 -1.32931,1.49596 -2.97209,2.27122 -5.11284,2.0451 -1.80724,-0.45372 -3.2784,-1.36339 -3.70412,-3.15279 -0.24567,-2.0083 0.26615,-3.95197 1.31058,-5.73016 1.21346,-1.62014 2.86416,-3.13261 5.04702,-3.52257 1.78105,-0.4098 2.41075,1.90834 0.62969,2.31813 z"
       inkscape:connector-curvature="0" />
    <path
       style="fill:#000000;fill-opacity:1;fill-rule:nonzero;stroke:none"
       id="path6642"
       d="m 304.40667,301.02162 c 0.73022,-0.87571 1.40752,-1.79842 2.02837,-2.75939 0.3585,-0.53718 0.6486,-1.11486 0.9389,-1.69114 0.88604,-1.77908 1.77018,-3.55911 2.65662,-5.33799 1.88424,-3.54722 3.50584,-7.20544 5.03699,-10.91288 0.62586,-1.51514 1.25189,-3.0302 1.87805,-4.54522 0.70091,-1.69592 2.92177,-0.81078 2.22086,0.88512 l 0,0 c -0.62606,1.51481 -1.25203,3.02967 -1.87779,4.5446 -1.55638,3.7682 -3.20569,7.4867 -5.11887,11.09293 -0.88764,1.78354 -1.77436,3.56752 -2.66289,5.3506 -0.33552,0.66657 -0.67582,1.33202 -1.08944,1.95375 -0.68009,1.04963 -1.41845,2.05971 -2.2168,3.01713 -1.16113,1.41132 -2.95509,-0.18616 -1.79396,-1.59749 z"
       inkscape:connector-curvature="0" />
    <path
       style="fill:#000000;fill-opacity:1;fill-rule:nonzero;stroke:none"
       id="path6648"
       d="m 321.7235,284.67387 c 0.37807,2.42121 0.74006,4.84688 1.07156,7.27518 0.26942,2.50817 0.80498,4.98278 1.17353,7.47922 0.10467,0.79061 0.21525,1.58154 0.27573,2.37636 0.015,0.26145 -0.003,-0.0647 0.007,0.15866 0.0337,1.68934 -2.56215,1.73322 -2.59587,0.0439 l 0,0 c -4.6e-4,-0.0125 0.0255,0.25338 -10e-4,-0.0375 -0.055,-0.7427 -0.16286,-1.48139 -0.25836,-2.22022 -0.36858,-2.50443 -0.90848,-4.98655 -1.17689,-7.50288 -0.32299,-2.37109 -0.67996,-4.73905 -1.04135,-7.10413 -0.36005,-1.65681 2.18584,-2.12542 2.54588,-0.46861 z"
       inkscape:connector-curvature="0" />
    <path
       style="fill:#000000;fill-opacity:1;fill-rule:nonzero;stroke:none"
       id="path6650"
       d="m 330.82088,286.1437 c -1.07512,1.82619 -2.53764,3.41878 -4.0008,4.98718 -1.01351,1.09084 -2.02635,2.15819 -3.38228,2.88842 -0.44299,0.23039 -0.9041,0.38347 -1.41218,0.39889 1.60769,-1.31582 1.30155,-1.34849 1.33866,-0.57607 -0.67992,-0.804 -1.59222,-1.04494 -0.49497,-1.03933 1.4179,0.0206 2.76125,0.60271 4.02742,1.13823 1.83715,0.63581 3.63149,1.38976 5.29935,2.34329 0.93268,0.58203 1.67391,1.37926 2.49328,2.08683 0.2289,-0.12176 0.7407,0.40113 0.94421,0.5846 1.26732,1.22246 -0.61115,2.87194 -1.87846,1.64947 l 0,0 c 0.20807,-0.0693 -0.72904,-0.29608 -0.84254,-0.49178 -0.70004,-0.60484 -1.33386,-1.28132 -2.10087,-1.80766 -1.55812,-0.92173 -3.28779,-1.57538 -5.00699,-2.19692 -0.92143,-0.39744 -1.92642,-0.87088 -2.95067,-0.91662 -0.81984,-0.005 -2.05247,-0.2523 -2.08278,-1.23006 -0.0437,-1.00322 0.0399,-0.96414 1.35602,-1.93163 -0.40394,0.0204 -0.28362,0.0641 0.0165,-0.0828 1.11192,-0.57087 1.8572,-1.52289 2.70676,-2.37377 1.32516,-1.41946 2.65787,-2.85474 3.64815,-4.49891 0.82103,-1.51124 3.14323,-0.44263 2.32221,1.06861 z"
       inkscape:connector-curvature="0" />
    <path
       inkscape:connector-curvature="0"
       d="m 308.85454,260.08772 c 2.07493,-0.59605 3.33828,-2.18302 4.49823,-3.77371 2.24648,-3.38674 4.18759,-6.93442 5.80862,-10.60919 1.43922,-3.05688 2.30052,-6.27327 2.80457,-9.5601 0.15341,-1.16749 0.24568,-2.34154 0.23842,-3.5176 -0.002,-0.0796 -0.031,-0.31479 -0.005,-0.23886 0.0282,0.082 -0.002,0.43324 0.1454,0.52761 0.60271,0.3854 1.08086,0.21056 0.51378,0.61691 -1.62376,1.04465 -2.51157,2.51733 -3.3241,4.12933 -1.32909,3.27586 -1.41126,6.78315 -1.34327,10.2332 0.15614,3.37345 0.82682,6.67283 1.86204,9.90223 -0.063,-0.68098 0.92536,3.05143 0.95438,2.52251 -0.34749,-0.30788 0.21649,0.0814 -0.0696,-0.23095 1.7221,-0.58551 2.62181,1.65591 0.8997,2.24142 l 0,0 c -1.03117,0.22001 -1.53348,0.34829 -2.46223,-0.15215 -1.12981,-0.96282 -1.32669,-2.41156 -1.81268,-3.70534 -1.09904,-3.43552 -1.80715,-6.94774 -1.96754,-10.53562 -0.0709,-3.81299 0.061,-7.68326 1.58617,-11.28524 1.00787,-1.97968 2.18221,-3.7823 4.1683,-5.06397 1.56195,-0.98274 3.31182,-1.1039 3.45078,1.02663 0.006,1.29226 -0.0923,2.58247 -0.26406,3.86507 -0.53758,3.47999 -1.45069,6.88727 -2.97033,10.12544 -1.69555,3.82754 -3.7108,7.52907 -6.06605,11.05165 -1.54536,2.07148 -3.28077,4.03129 -6.01597,4.74887 -1.78105,0.40979 -2.41074,-1.90834 -0.6297,-2.31814 z"
       id="path6652"
       style="fill:#000000;fill-opacity:1;fill-rule:nonzero;stroke:none" />
    <path
       inkscape:connector-curvature="0"
       d="m 330.47981,256.68201 c -0.7438,1.58199 -0.99313,3.31568 -1.20026,5.0154 -0.007,0.0888 -0.31428,2.29555 0.0672,2.15923 0.16681,-0.0596 -0.1486,-0.31144 -0.28367,-0.41948 -0.0447,-0.0329 -0.15905,-0.0511 -0.13417,-0.0985 0.16325,-0.31128 0.59981,-0.42232 0.85235,-0.67816 0.53946,-0.54651 0.85843,-1.26744 1.19568,-1.92477 0.16252,-0.52192 0.87386,-1.77322 0.21012,-2.18701 -0.041,0.13083 -0.47021,-0.0149 -0.65126,-0.0283 -0.0514,0.0158 0.10822,-0.009 0.16168,-0.017 -1.78556,0.39285 -2.38921,-1.93115 -0.60366,-2.32399 l 0,0 c 0.20785,-0.037 0.4162,-0.0589 0.62853,-0.0423 0.95796,0.073 1.83886,0.34858 2.54399,0.98064 1.07927,1.47735 0.79749,3.07205 0.0536,4.64735 -0.96159,1.83759 -2.16189,3.63921 -4.49692,4.05132 -0.36543,-0.0954 -0.77126,-0.10518 -1.09629,-0.28607 -1.54074,-0.85752 -1.1561,-2.75197 -1.02704,-4.10132 0.24462,-1.97763 0.55788,-3.98702 1.45793,-5.81562 0.82102,-1.51124 3.14322,-0.44263 2.32221,1.06861 z"
       id="path6654"
       style="fill:#000000;fill-opacity:1;fill-rule:nonzero;stroke:none" />
    <path
       style="fill:#000000;fill-opacity:1;fill-rule:nonzero;stroke:none"
       id="path6662"
       d="m 779.62708,241.89771 c 0.0114,5.55891 -0.084,11.11603 0.16464,16.67021 0.41336,6.4506 0.8162,12.90139 1.07041,19.36048 0.0881,2.32662 0.1517,4.65418 0.16759,6.98246 -0.0215,1.86148 0.3601,1.21417 -2.57659,-1.26062 1.91288,-0.42499 3.83863,-0.76138 5.81551,-0.97937 6.5134,-1.03429 13.10926,-1.35616 19.68991,-1.62393 5.9492,-0.13503 11.90474,-0.53445 17.83173,0.12779 1.70134,0.25533 3.42511,0.48304 5.07194,1.00079 1.55706,0.58475 2.08009,1.1687 -2.18964,3.30215 -0.73665,0.36808 -0.73178,-3.38208 -0.7272,-3.58862 0.4314,-4.38338 -0.13688,-8.67786 -0.77338,-13.00463 -0.80893,-5.75951 -1.8977,-11.47103 -2.59854,-17.24693 -0.32404,-2.83261 -0.49937,-5.67819 -0.55205,-8.52794 -0.0132,-1.02087 -0.007,-2.0419 0.006,-3.06273 10e-4,-0.17621 0.006,-0.35233 0.0124,-0.52839 0.41267,0.68852 1.02918,1.29048 1.23802,2.06556 0.11888,0.44121 -0.84161,-0.36537 -1.28368,-0.48102 -1.03224,-0.27003 -2.1281,-0.33497 -3.1836,-0.43586 -5.49828,-0.3235 -11.01222,-0.28341 -16.51808,-0.30129 -7.19705,-0.0539 -14.38068,0.57025 -21.56094,1.00284 -2.18986,0.12979 -4.37955,0.26263 -6.56977,0.38628 -0.49258,0.0142 -0.25535,0.009 -0.71168,0.0152 -2.95571,0.0352 -3.00551,-4.1448 -0.0498,-4.18001 l 0,0 c 0.35395,-0.004 0.17867,-9.3e-4 0.52586,-0.009 2.18496,-0.12334 4.36939,-0.2559 6.55398,-0.38536 7.26847,-0.4379 14.54034,-1.0671 21.82593,-1.01038 5.6371,0.0183 11.28304,-0.0247 16.91171,0.32115 3.51824,0.35129 4.85747,0.20561 6.99488,3.26141 -0.002,0.11121 -0.003,0.22242 -0.005,0.33362 -0.0129,0.97701 -0.0188,1.9542 -0.007,2.93125 0.0491,2.70731 0.2158,5.41057 0.52241,8.10172 0.69448,5.74091 1.78486,11.41646 2.58441,17.14152 0.67052,4.56093 1.25121,9.09991 0.81651,13.71894 -0.0897,3.03728 0.14786,-0.26627 -0.5196,0.50302 -0.9182,1.05828 -1.50724,2.36444 -2.18552,3.5904 -0.0282,0.051 0.10702,0.0464 0.16053,0.0696 0.002,-7.6e-4 0.003,-0.002 0.005,-0.002 -1.38984,-0.41236 -2.83173,-0.61922 -4.26357,-0.82725 -5.7124,-0.65221 -11.45869,-0.21029 -17.1931,-0.10485 -6.48636,0.2631 -12.98722,0.58056 -19.40695,1.6028 -1.34794,0.14478 -3.70917,0.5325 -4.66154,0.68288 -3.38411,-1.99841 -3.21224,-0.7042 -3.21024,-2.57028 -0.0154,-2.28295 -0.0782,-4.56518 -0.16445,-6.84651 -0.25362,-6.45234 -0.65845,-12.8962 -1.06957,-19.34015 -0.2453,-5.61603 -0.16307,-11.23418 -0.16871,-16.85483 0,-2.95592 4.1803,-2.95592 4.1803,0 z"
       inkscape:connector-curvature="0" />
    <path
       style="fill:#000000;fill-opacity:1;fill-rule:nonzero;stroke:none"
       id="path6664"
       d="m 792.168,251.65176 c 0,3.17814 0,6.35629 0,9.53443 0,2.56272 0,5.12543 0,7.68815 0,0.4993 0,0.99859 0,1.49789 -1.39343,-0.21856 -2.86065,-0.15776 -4.18031,-0.65569 -0.28742,-0.10844 -0.0248,-0.6154 0,-0.9216 0.17257,-2.12983 0.75026,-4.17475 1.30987,-6.22598 0.79823,-3.04248 1.60777,-6.11818 2.67114,-9.08287 0.50411,-1.24512 1.05999,-2.47637 1.76496,-3.62222 2.9439,-2.71002 4.75946,0.7695 5.67462,3.24739 0.82846,2.68351 0.96598,5.50075 1.08167,8.28691 0.0509,1.42285 0.0625,2.8469 0.0518,4.27054 -0.0114,0.9119 0.0378,-0.73965 -0.54563,-1.2123 -1.78636,-1.44727 -2.83485,0.611 -1.6628,-1.08195 1.41904,-2.43917 2.82281,-4.87666 3.97878,-7.45302 0.58147,-1.5597 0.82531,-3.15171 1.59196,-4.62321 3.1882,-2.95171 4.39833,0.92052 5.14648,3.27665 0.82191,2.68504 1.6509,5.3391 2.132,8.11273 0.22608,1.43596 0.30956,3.4321 0.57898,4.61268 -0.41161,-1.40342 1.62775,2.63264 0.80079,0.86592 2.06062,2.11928 -0.9365,5.03343 -2.99711,2.91415 l 0,0 c -0.78681,-1.09915 -0.80533,-1.37212 0.046,-0.32242 0.50067,0.6173 -1.86472,-1.34477 -1.38708,-1.23009 -1.04888,-1.89851 -0.84318,-4.03327 -1.16172,-6.13328 -0.43838,-2.58766 -1.23848,-5.05289 -1.99736,-7.5583 -1.47036,-4.66303 0.15458,0.63941 2.18331,-2.02997 0.60938,-2.08292 -1.08495,3.77032 -1.12382,3.8298 -1.28263,2.84576 -2.81965,5.55453 -4.43178,8.22612 -1.52317,1.9863 -4.6767,4.10043 -5.33123,-0.22498 0.0103,-1.35565 -5.5e-4,-2.71171 -0.0484,-4.06664 -0.097,-2.36323 -0.1888,-4.75559 -0.83869,-7.045 -0.21608,-0.62638 -0.27863,-0.89548 -0.57865,-1.46145 -0.0965,-0.182 -0.51347,-0.44605 -0.32378,-0.52637 0.0681,-0.0288 2.09811,1.0784 2.71364,-0.46986 -0.56442,0.89493 -0.97536,1.87943 -1.38928,2.84917 -1.05643,2.84129 -1.77841,5.83083 -2.56609,8.75257 -0.45681,1.67288 -1.01743,3.38633 -1.16235,5.12528 -0.0255,0.30614 0.28742,0.81316 0,0.9216 -1.31966,0.49793 -2.78687,0.43713 -4.18031,0.65569 0,-0.4993 0,-0.99859 0,-1.49789 0,-2.56272 0,-5.12543 0,-7.68815 0,-3.17814 0,-6.35629 0,-9.53443 0,-2.95592 4.18031,-2.95592 4.18031,0 z"
       inkscape:connector-curvature="0" />
    <path
       style="fill:#000000;fill-opacity:1;fill-rule:nonzero;stroke:none"
       id="path6666"
       d="m 803.41976,284.29735 c 0.84015,3.99441 0.97355,8.0818 1.13104,12.13801 0.13449,4.40409 0.15696,8.81026 0.16737,13.21583 9.3e-4,1.35177 10e-4,2.70356 -0.006,4.05533 0.23452,1.6347 -4.09239,-0.1059 -4.18551,-0.11523 0.62989,0.64753 1.34579,1.23109 1.88966,1.94259 0.087,0.11378 -0.33446,-0.0334 -1.04499,0.0926 -0.84842,0.15051 -1.72887,0.4687 -2.57064,0.66114 -1.84471,0.39641 -3.6193,1.0478 -5.40922,1.62147 -0.27316,0.20153 -2.88276,0.71886 -1.18097,0.3409 -0.0532,0.12382 -0.20231,0.28637 -0.30052,0.42083 1.01664,-1.75187 -3.52297,-3.34156 -0.3194,-2.55973 2.69862,0.56767 5.4256,1.06522 8.1605,1.47808 3.63184,0.49827 7.30375,0.67396 10.96933,0.79155 1.74458,0.003 3.36938,-0.0589 5.02769,0.43452 0.61985,0.34131 1.21649,0.71749 1.80472,1.10356 1.38152,0.9223 0.27282,0.32713 -1.35747,3.66824 -0.0966,-6.7e-4 -0.38611,-0.0101 -0.28987,-0.002 1.02755,0.0858 -0.9911,0.6824 -1.36748,0.81499 -1.02064,0.51358 -2.17668,0.84665 -3.19795,1.36769 -2.09257,0.92837 -4.30259,1.58645 -6.46244,2.35965 -2.47696,0.78008 -4.97916,1.42086 -7.44179,2.24548 -1.41182,0.70307 -2.85358,1.33803 -4.34841,1.87512 -0.54264,0.26782 -3.34264,0.68225 -1.24534,0.18773 0.17075,-0.29268 0.2638,-0.13251 0.27307,-0.13716 0.60934,-2.35095 -3.53232,-2.2432 -0.13276,-2.2285 2.15592,-0.14523 4.23834,0.41844 6.33183,0.80103 2.67617,0.22437 5.30576,0.57756 7.93959,1.08088 1.85485,0.41525 3.75403,0.57548 5.65513,0.65075 1.63009,-0.0468 3.13669,0.49767 4.38374,1.44157 1.13066,0.92672 0.77885,1.46633 0.56383,2.98053 -1.13349,0.0761 -2.30681,-0.0583 -3.40047,0.22834 -0.30448,0.0797 0.68637,0.18136 0.81664,0.4489 0.006,0.0119 -0.81509,0.2191 -1.54201,0.37553 -1.86734,0.40182 -0.58349,0.06 -2.31496,0.56614 -3.14549,0.81669 -6.27393,1.7006 -9.47282,2.32805 -1.97479,0.49367 -3.85484,1.13412 -5.61717,2.09443 -0.97852,0.47141 -2.00935,0.84752 -3.07331,1.11501 -2.00317,0.8292 -0.41143,-3.48692 1.09208,-2.95314 1.59007,0.77629 3.31607,1.13034 5.08643,1.39079 2.54504,0.57803 5.08994,1.14836 7.69345,1.44237 2.46411,0.0287 4.84209,0.37442 7.24376,0.85322 1.38614,0.29408 2.79627,0.48058 4.20865,0.62577 1.75357,0.1611 0.45591,-0.22161 -0.16154,3.88144 1.04465,0.0554 -3.25438,1.52261 -3.29583,1.53686 -3.05613,0.89586 -6.15643,1.56709 -9.33288,1.95606 -3.12661,0.61222 -6.29912,0.97455 -9.37791,1.77594 -1.49261,0.37726 -2.98832,0.74427 -4.48944,1.09131 -1.5041,0.62459 1.17858,-2.46736 1.20341,-1.24969 0.003,0.17247 0.0155,0.34457 0.0287,0.51647 -2.14551,-1.95738 -2.33465,-1.72402 -0.46149,-1.726 1.9719,0.53212 3.98659,0.85456 5.99229,1.26051 3.28047,0.78385 6.65521,1.0224 10.02464,1.1904 3.05333,0.0285 6.0521,0.0789 9.01728,0.80039 0.99678,0.22224 1.97866,0.50935 3.00133,0.59997 0.59349,0.0482 1.19001,0.0403 1.78515,0.0381 1.47691,-0.1225 2.52577,1.07115 2.6919,2.31083 0.0348,0.32875 0.0356,0.65887 0.0203,0.98841 -0.0207,1.33819 -1.758,1.69751 -2.87392,1.8764 -0.056,0.01 0.14416,0.0944 0.10024,0.12803 -1.81004,0.78009 -3.82918,0.94015 -5.75545,1.38239 -2.64883,0.61186 -5.3709,0.83932 -8.08828,0.98584 -0.0737,0.034 -4.21387,0.0465 -3.04821,0.10678 -0.27365,0.54748 -1.25401,0.83281 -1.88293,1.02737 -0.40651,0.12058 -0.82446,0.19316 -1.24713,0.23867 -0.048,0.002 -0.1643,0.0469 -0.14402,0.006 1.51512,-3.02055 1.0534,-4.10823 2.27487,-2.31061 0.45456,0.66897 0.79491,1.40569 1.12977,2.12841 1.553,3.1075 2.13072,6.53461 2.83248,9.87212 0.6545,4.19476 1.48101,8.3655 2.11847,12.56324 0.40518,2.77855 0.57881,5.5778 0.64174,8.37892 0.0292,1.70239 0.0186,3.40505 0.0122,5.10756 -0.004,1.11408 -0.008,2.22815 -0.009,3.34225 -6e-4,0.5581 -7.6e-4,1.1162 -7.4e-4,1.67429 10e-6,0.37679 5e-5,0.75359 9e-5,1.13038 0,0.0463 10e-6,0.0923 2e-5,0.13862 8.3e-4,2.74288 -4.17948,2.74398 -4.18031,9.3e-4 l 0,0 c -10e-6,-0.0464 -10e-6,-0.0929 -2e-5,-0.13934 -4e-5,-0.37688 -7e-5,-0.75376 -9e-5,-1.13065 -2e-5,-0.55966 1.5e-4,-1.11931 7.5e-4,-1.67897 10e-4,-1.11714 0.005,-2.23429 0.009,-3.35143 0.006,-1.67122 0.0169,-3.34258 -0.0113,-5.01369 -0.0584,-2.64711 -0.22051,-5.29248 -0.60183,-7.91847 -0.6256,-4.13059 -1.44321,-8.23386 -2.08212,-12.36203 -0.64789,-3.09062 -1.15871,-6.27422 -2.60061,-9.15025 -0.99511,-2.53578 -1.30578,-1.18353 0.26921,-5.15395 0.10369,-0.0198 0.20671,-0.0425 0.30956,-0.0655 0.80594,-0.21625 -0.80006,0.80687 0.0727,0.12657 0.49785,-0.38806 0.90723,-0.85122 1.54786,-1.06663 1.43788,-0.35457 2.85898,-0.343 4.34911,-0.37369 2.4602,-0.13042 4.92625,-0.32721 7.32508,-0.87878 1.5798,-0.36249 3.20891,-0.55198 4.7462,-1.01652 1.5115,-0.71142 4.13764,-1.41617 0.61408,1.1595 0.002,-0.0901 0.006,-0.23348 -0.004,-0.33867 0.15903,0.22293 3.0406,1.29429 1.47978,1.15415 -0.74044,0.003 -1.48243,0.007 -2.22038,-0.0579 -1.24342,-0.12067 -2.44644,-0.41756 -3.65445,-0.7103 -2.68267,-0.67194 -5.4062,-0.60929 -8.16964,-0.67605 -3.59658,-0.18119 -7.19798,-0.44636 -10.70075,-1.27604 -1.68139,-0.34978 -3.56851,-0.48472 -5.086,-1.16923 -1.33735,9.1e-4 -3.44306,0.0913 -3.70231,-1.76263 -0.0269,-0.28034 -0.0432,-0.56141 -0.0494,-0.84283 -0.0173,-1.0856 0.7916,-2.41527 1.9659,-2.57834 1.46344,-0.33819 2.92151,-0.69622 4.3767,-1.06367 3.27256,-0.84283 6.63539,-1.259 9.96115,-1.88609 2.8749,-0.34225 5.67349,-0.96091 8.44275,-1.75453 1.70155,-0.56056 3.21792,-1.55684 5.03867,-1.76001 0.2337,3.98276 1.49985,4.03459 -0.61311,3.84194 -1.55208,-0.16059 -3.10124,-0.36723 -4.62503,-0.68856 -2.28493,-0.45569 -4.52946,-0.769 -6.87761,-0.79589 -2.65339,-0.30757 -5.26,-0.84342 -7.84846,-1.46286 -2.29747,-0.35014 -4.4926,-0.88682 -6.56086,-1.88875 -2.94345,-1.76165 1.37429,-4.33809 -0.0291,-4.12588 0.70249,-0.18343 1.38888,-0.41759 2.04443,-0.71736 2.15361,-1.16092 4.45115,-1.96276 6.86437,-2.54041 3.07563,-0.59657 6.07948,-1.45916 9.10328,-2.23942 1.13826,-0.31931 3.59875,-1.14731 4.77135,-1.10223 0.70158,0.027 2.39664,-0.21606 2.07033,0.36088 -0.4351,0.76931 -1.79547,0.49363 -2.69321,0.74044 -0.0379,0.85633 -0.37717,1.48311 0.25144,2.06488 -0.54127,-0.44889 -1.1138,-0.58133 -1.85874,-0.52227 -2.12301,-0.0872 -4.24396,-0.26907 -6.31657,-0.72679 -2.62479,-0.50161 -5.24143,-0.82726 -7.90642,-1.07468 -1.83764,-0.33773 -3.65023,-0.86654 -5.54205,-0.72754 -1.6156,-0.007 -4.44922,-0.37186 -3.91387,-2.54784 0.22321,-0.81467 0.63551,-1.53572 1.32937,-2.09869 1.18631,-0.4606 1.36924,-0.4652 2.20316,-0.67283 1.52673,-0.54599 2.96928,-1.2376 4.43622,-1.90553 2.43625,-0.81563 4.91028,-1.46162 7.36442,-2.21879 2.04336,-0.72279 4.1279,-1.35007 6.10882,-2.21618 1.19679,-0.52067 2.42044,-0.95689 3.5919,-1.52528 1.06075,-0.35155 1.94939,-1.14199 3.16293,-1.05557 -0.87237,3.03564 -0.0547,4.0975 -1.10716,3.37676 -0.45432,-0.29859 -0.91557,-0.5883 -1.38753,-0.86241 2.40183,0.2849 -3.09616,-0.0565 -3.17472,0.0348 -3.84295,-0.12385 -7.69218,-0.31233 -11.499,-0.84005 -2.99261,-0.456 -5.99006,-0.9746 -8.92663,-1.66487 1.62767,-0.31561 -3.03856,-1.99413 -1.76515,-3.16661 0.41203,-0.59125 0.90075,-1.13473 1.50766,-1.56394 1.35113,-0.54358 0.79666,-0.35569 2.13419,-0.77931 1.91077,-0.61242 3.80839,-1.29834 5.77841,-1.72241 0.61797,-0.13986 3.92057,-1.11156 4.34569,-0.85755 0.91849,0.54876 1.70404,1.26881 2.55607,1.90322 -0.0152,9.3e-4 -4.40916,1.61651 -4.17496,0.12019 0.008,-1.34213 0.007,-2.6843 0.006,-4.02644 -0.0103,-4.36196 -0.0323,-8.72451 -0.16468,-13.08502 -0.14627,-3.7871 -0.26716,-7.60089 -1.00893,-11.3365 -0.71692,-2.661 3.33857,-3.60179 4.05549,-0.94082 z"
       inkscape:connector-curvature="0" />
    <path
       style="fill:#000000;fill-opacity:1;fill-rule:nonzero;stroke:none"
       id="path6668"
       d="m 792.47136,408.97328 c 5.20979,-0.18418 10.39031,0.20393 15.57641,0.63831 4.15235,0.37317 8.31569,0.59545 12.48263,0.70988 2.27211,0.0529 4.54489,0.0567 6.81748,0.0543 0.57445,-10e-4 1.14892,-0.002 1.72336,-0.008 0.0859,-0.001 0.01,-1.7e-4 0.0146,-2.5e-4 2.95486,-0.0789 3.0665,4.09988 0.11163,4.17881 l 0,0 c -0.0271,5e-4 -0.0543,0.002 -0.0814,0.002 -0.58786,0.005 -1.17576,0.006 -1.76365,0.008 -2.31245,0.002 -4.6251,-0.002 -6.93706,-0.0558 -4.24498,-0.11717 -8.48634,-0.34292 -12.71651,-0.72288 -5.07037,-0.42472 -10.13364,-0.80976 -15.22748,-0.62373 -2.95592,0 -2.95592,-4.1803 0,-4.1803 z"
       inkscape:connector-curvature="0" />
    <path
       style="fill:#000000;fill-opacity:1;fill-rule:nonzero;stroke:none"
       id="path6670"
       d="m 798.92791,415.09361 c -0.44612,3.18341 -1.61466,6.16778 -2.82686,9.12076 -0.44951,1.22664 -0.86315,2.47045 -1.16375,3.74287 -0.28735,1.45467 -0.0599,0.14543 -3.43612,-1.90036 1.76693,-2.36969 5.11818,0.12912 3.35125,2.49882 l 0,0 c -3.95166,-1.15184 -4.3569,0.15905 -3.98173,-1.56679 0.3551,-1.4827 0.82809,-2.93554 1.36336,-4.36243 1.11153,-2.70601 2.20347,-5.43017 2.59473,-8.3527 0.5797,-2.89852 4.67883,-2.07869 4.09912,0.81983 z"
       inkscape:connector-curvature="0" />
    <path
       style="fill:#000000;fill-opacity:1;fill-rule:nonzero;stroke:none"
       id="path6672"
       d="m 808.88923,411.89683 c -0.36553,3.61133 -1.69251,7.05523 -3.12098,10.3661 -0.86943,1.76061 -1.73511,3.51429 -2.36403,5.37718 -0.0588,0.14717 -0.11725,0.39634 -0.15346,0.53684 -0.58594,2.89727 -4.6833,2.06862 -4.09735,-0.82865 l 0,0 c 0.0762,-0.35593 0.17611,-0.70584 0.29204,-1.05098 0.67036,-1.96883 1.55288,-3.84187 2.48767,-5.69774 1.21582,-2.78652 2.32879,-5.68324 2.7758,-8.70275 0,-2.95593 4.18031,-2.95593 4.18031,0 z"
       inkscape:connector-curvature="0" />
    <path
       style="fill:#000000;fill-opacity:1;fill-rule:nonzero;stroke:none"
       id="path6674"
       d="m 818.41419,413.63052 c -0.57896,3.31645 -1.59904,6.5365 -3.01225,9.58789 -0.85466,1.55795 -1.61607,3.16638 -2.29572,4.80792 -0.0598,0.13765 -0.10947,0.27924 -0.16114,0.41998 -0.98626,2.78653 -4.92701,1.39176 -3.94076,-1.39478 l 0,0 c 0.0753,-0.21054 0.15446,-0.41965 0.24032,-0.62617 0.70498,-1.69844 1.48382,-3.36823 2.37137,-4.97943 1.32697,-2.79663 2.19808,-5.78423 2.74269,-8.82928 0.71692,-2.86767 4.77241,-1.8538 4.05549,1.01387 z"
       inkscape:connector-curvature="0" />
    <path
       style="fill:#000000;fill-opacity:1;fill-rule:nonzero;stroke:none"
       id="path6676"
       d="m 825.71473,414.01008 c 0.70455,2.85842 0.32182,5.78156 -0.32808,8.60372 -0.56985,2.0379 -0.77849,4.13251 -1.66762,6.06439 -0.74496,1.5101 -1.12834,1.54584 -2.86221,2.26951 -2.95104,-0.16997 -2.71067,-4.34336 0.24036,-4.17339 l 0,0 c -2.4931,1.24397 -1.67038,1.07049 -1.15224,0.10631 0.81839,-1.6116 0.75824,-3.51334 1.36924,-5.21019 0.50702,-2.1742 0.88282,-4.43662 0.34505,-6.64648 -0.71691,-2.86766 3.33858,-3.88154 4.0555,-1.01387 z"
       inkscape:connector-curvature="0" />
    <path
       style="fill:#000000;fill-opacity:1;fill-rule:nonzero;stroke:none"
       id="path6678"
       d="m 768.5923,434.4838 c 1.53341,4.31593 0.1354,8.82734 -1.10901,13.03822 -1.10838,4.25879 -2.88161,8.63897 -2.33443,13.10561 1.07832,1.98299 3.55989,2.37957 5.64292,2.39306 0.90922,-0.10584 1.45094,-0.4928 2.04109,-1.13683 2.22484,-1.94617 4.97713,1.20022 2.7523,3.14639 l 0,0 c -1.52804,1.22725 -2.90276,2.10474 -4.9473,2.16791 -4.29184,-0.23603 -8.3179,-1.65233 -9.64842,-6.15314 -0.43261,-5.04885 1.05645,-9.91141 2.48675,-14.71387 0.9541,-3.19061 2.15057,-6.64075 1.37712,-9.97786 -1.32193,-2.64385 2.41705,-4.51334 3.73898,-1.86949 z"
       inkscape:connector-curvature="0" />
    <path
       style="fill:#000000;fill-opacity:1;fill-rule:nonzero;stroke:none"
       id="path6680"
       d="m 754.8486,449.3829 c 4.12545,0 8.25089,0 12.37634,0 1.5825,-0.0812 3.1438,-0.3532 4.70511,-0.60454 2.91848,-0.46897 3.5817,3.6584 0.66321,4.12736 l 0,0 c -1.78052,0.28561 -3.56194,0.58854 -5.36832,0.65749 -4.12545,0 -8.25089,0 -12.37634,0 -2.95592,0 -2.95592,-4.18031 0,-4.18031 z"
       inkscape:connector-curvature="0" />
    <path
       style="fill:#000000;fill-opacity:1;fill-rule:nonzero;stroke:none"
       id="path6684"
       d="m 301.817,148.3606 c 0.7664,5.96567 1.36133,11.95266 2.08912,17.92348 0.76822,6.52851 1.98503,12.99043 2.78137,19.51607 0.0731,0.72539 0.15103,1.4503 0.21924,2.17617 0.0945,1.00624 0.17876,2.08087 0.24832,3.09491 0.0378,0.55117 0.0214,1.10715 0.0954,1.65464 0.0126,0.0933 0.0127,-0.18776 0.019,-0.28164 -1.39945,-3.40951 -3.19319,1.7536 -2.93876,-0.92337 0.73299,-3.8979 2.08925,-7.65122 3.66349,-11.28068 1.63611,-3.34391 3.4628,-6.61822 6.20424,-9.17484 3.98762,-3.29244 5.82074,1.396 6.83546,4.46523 0.94933,3.59077 1.67874,7.26143 3.12998,10.69288 0.71816,1.37693 1.45872,3.14938 3.03889,3.71742 0.14738,0.0461 0.29477,0.0922 0.44216,0.13834 2.79243,0.96943 1.42144,4.91853 -1.37099,3.94909 l 0,0 c -0.29814,-0.10856 -0.59627,-0.21712 -0.8944,-0.32567 -2.43398,-1.28388 -3.99851,-3.35317 -5.07628,-5.87587 -1.45398,-3.5522 -2.33143,-7.28846 -3.24655,-11.00899 -0.0446,-0.14163 -1.03949,-2.52337 -0.73727,-2.60621 0.20198,-0.0554 0.43191,0.0393 0.62723,-0.0363 0.2344,-0.0907 0.3774,-0.34846 0.61046,-0.44251 0.20686,-0.0835 -0.35274,0.27312 -0.5291,0.40968 -2.34711,2.11522 -3.76882,4.99435 -5.20118,7.76682 -1.41777,3.24114 -2.61841,6.59249 -3.34018,10.06218 -0.39032,3.33865 -2.54304,5.69646 -5.06353,2.11011 -0.76102,-2.50234 -0.41534,-5.20546 -0.88523,-7.77555 -0.79461,-6.52598 -2.01879,-12.98715 -2.78144,-19.51661 -0.71895,-5.91019 -1.31298,-11.83556 -2.0629,-17.74153 -0.48595,-2.9157 3.63747,-3.60294 4.12343,-0.68724 z"
       inkscape:connector-curvature="0" />
    <path
       style="fill:none;stroke:#000000;stroke-width:2.41653538;stroke-linecap:butt;stroke-linejoin:miter;stroke-miterlimit:4;stroke-opacity:1;stroke-dasharray:2.41653543, 4.83307087;stroke-dashoffset:0"
       d="m 600.57064,285.65425 0,156.06476"
       id="path6690"
       inkscape:connector-curvature="0"
       sodipodi:nodetypes="cc" />
    <path
       sodipodi:nodetypes="cc"
       inkscape:connector-curvature="0"
       id="path6692"
       d="m 483.52207,285.65425 0,156.06476"
       style="fill:none;stroke:#000000;stroke-width:2.41653538;stroke-linecap:butt;stroke-linejoin:miter;stroke-miterlimit:4;stroke-opacity:1;stroke-dasharray:2.41653543, 4.83307087;stroke-dashoffset:0" />
    <path
       style="fill:#000000;fill-opacity:1;fill-rule:nonzero;stroke:none"
       id="path6694"
       d="m 469.43576,199.03116 c -2.17925,0.18505 -4.02933,1.16877 -5.42468,2.74726 -0.98963,1.80968 -1.43421,3.83148 -0.93812,5.82681 0.69709,1.89615 2.2141,3.14198 4.09199,3.92619 1.05666,0.25341 1.77848,-0.15464 2.61576,-0.70457 2.07447,-1.2283 3.89307,1.57393 1.8186,2.80222 l 0,0 c -1.89919,1.06302 -3.68984,1.62651 -5.87735,0.89737 -2.86764,-1.30236 -5.09594,-3.27787 -6.03149,-6.26438 -0.58569,-3.05398 -0.0613,-6.04271 1.74135,-8.67461 2.13762,-2.22313 4.78529,-3.67916 8.00394,-3.85325 2.4407,0 2.4407,3.29696 0,3.29696 z"
       inkscape:connector-curvature="0" />
    <path
       style="fill:#000000;fill-opacity:1;fill-rule:nonzero;stroke:none"
       id="path6696"
       d="m 482.43698,201.14066 c -1.41973,1.51885 -1.76249,3.42316 -1.81843,5.38585 0.19471,1.58011 0.78909,3.18669 2.30783,3.98342 0.1033,0.0446 0.64432,0.39718 0.88757,0.21708 0.12236,-0.0906 1.32927,-2.01977 1.39984,-2.13739 1.04633,-2.07457 1.45321,-4.36782 0.91057,-6.62016 -0.48008,-1.06625 -1.59989,-1.52688 -2.72933,-1.76161 -0.50489,-0.086 -1.01823,-0.14544 -1.53142,-0.12203 0.44636,-0.24281 0.89271,-0.48563 1.33907,-0.72844 -1.15034,2.05612 -4.19461,0.50222 -3.04427,-1.5539 l 0,0 c 0.49859,-0.33618 0.99718,-0.67236 1.49578,-1.00854 0.86763,-0.0434 1.73623,0.0503 2.58613,0.21635 2.43425,0.6288 4.47617,1.88135 5.26658,4.30158 0.60347,3.0869 0.20726,6.15034 -1.32648,8.96209 -1.69206,2.64954 -3.70539,4.82228 -7.12056,3.0083 -2.46879,-1.62008 -3.72021,-4.00401 -3.89089,-6.87194 0.12001,-2.80265 0.76677,-5.48515 2.8273,-7.60195 1.72584,-1.64848 4.16654,0.68282 2.44071,2.33129 z"
       inkscape:connector-curvature="0" />
    <path
       style="fill:#000000;fill-opacity:1;fill-rule:nonzero;stroke:none"
       id="path6698"
       d="m 498.39873,196.40971 c 0.62568,2.55186 0.79425,5.17678 0.93283,7.78602 0.10681,2.2283 0.13121,4.45909 0.13926,6.68938 0.0838,0.19865 0.14386,0.4212 0.29958,0.57533 -0.84143,-0.61729 0.35571,0.21163 -2.63994,0.66101 -0.12889,0.0193 0.0157,-0.24883 0.0201,-0.37339 0.009,-0.24713 0.0145,-0.49435 0.0188,-0.7416 0.012,-0.71526 0.0111,-1.32688 0.0133,-2.04613 0.0356,-2.36783 -0.12678,-4.73871 0.1332,-7.09598 0.23457,-2.18847 1.17121,-4.12866 2.62696,-5.80551 2.00326,-1.88145 4.07475,-0.61287 5.41957,1.21099 0.45064,0.72949 0.69609,1.53482 0.89251,2.35266 0.53505,2.27459 -2.83267,2.99735 -3.36773,0.72276 l 0,0 c -0.0929,-0.40847 -0.20856,-0.8108 -0.36494,-1.20183 -0.97056,-1.38835 0.0926,-0.29094 0.24209,-1.03412 0.0122,-0.0607 -0.11947,0.0472 -0.1792,0.0709 -1.0444,1.16275 -1.68498,2.5156 -1.83967,4.0566 -0.29254,2.22865 -0.0274,4.49171 -0.11112,6.73296 -0.004,1.3128 0.51056,6.80898 -3.04079,5.04923 -0.96337,-0.809 -1.44229,-1.90768 -1.57425,-3.12251 -0.007,-2.1787 -0.0311,-4.35789 -0.13491,-6.53467 -0.12569,-2.39574 -0.27092,-4.80717 -0.83414,-7.15244 -0.59196,-2.2617 2.75666,-3.06132 3.34862,-0.79963 z"
       inkscape:connector-curvature="0" />
    <path
       style="fill:#000000;fill-opacity:1;fill-rule:nonzero;stroke:none"
       id="path6700"
       d="m 514.50659,196.40971 c 0.63556,2.14188 0.79501,4.36561 0.93204,6.57662 0.11395,2.23097 0.13233,4.46501 0.14005,6.6982 8.3e-4,0.65666 8.3e-4,1.31333 -0.005,1.96997 -4.47298,-0.48385 -3.45393,0.10888 -3.4542,-3.18542 -0.11387,-2.70737 0.0319,-5.36896 0.7121,-8.00275 0.74362,-2.19608 2.0101,-4.06542 4.07695,-5.27756 1.96877,-0.9244 3.76257,0.0223 5.17699,1.34121 0.42701,0.46512 0.75028,0.99519 1.05934,1.53427 1.15891,2.05173 -1.87886,3.6172 -3.03776,1.56546 l 0,0 c -0.16017,-0.29098 -0.3269,-0.57877 -0.53618,-0.84121 -0.10156,-0.14632 -0.85469,-0.58485 -0.85562,-0.6775 -6.7e-4,-0.0672 0.22284,-0.1094 0.15747,-0.13424 -0.0907,-0.0345 -0.18511,0.0591 -0.27765,0.0886 -1.32622,0.46524 -1.89687,2.12185 -2.41861,3.21465 -0.65558,2.35868 -0.67464,4.76093 -0.60535,7.18884 2.7e-4,3.26293 1.04089,2.70719 -3.44894,3.14824 0.007,-0.64054 0.006,-1.28111 0.005,-1.92167 -0.007,-2.17221 -0.0247,-4.34524 -0.13411,-6.51535 -0.1229,-2.00679 -0.25301,-4.02727 -0.83494,-5.9707 -0.59196,-2.2617 2.75667,-3.06132 3.34862,-0.79963 z"
       inkscape:connector-curvature="0" />
    <path
       style="fill:#000000;fill-opacity:1;fill-rule:nonzero;stroke:none"
       id="path6702"
       d="m 528.13462,202.10632 c 1.04689,0.65254 2.27598,1.98284 3.63338,1.93346 0.63203,-0.45252 0.67206,-0.92588 0.83527,-1.69362 0.0375,-0.54092 0.58073,-2.74632 -0.382,-2.90716 -0.0939,-0.049 -0.17468,-0.14982 -0.2816,-0.14695 -0.0561,0.002 0.0491,0.0996 0.0506,0.15316 0.004,0.13897 -0.14065,0.26551 -0.22468,0.34578 -0.74208,0.7089 -0.30571,0.14411 -0.87937,1.04798 -1.48149,2.10943 -2.02454,4.61428 -2.3991,7.0871 -0.0736,1.8946 0.66832,3.61068 2.47097,4.48529 1.71117,0.63575 3.54416,1.02931 5.30841,0.3923 2.32584,-0.70678 3.37228,2.43501 1.04644,3.14179 l 0,0 c -2.7879,0.77223 -5.50653,0.48428 -8.1405,-0.7126 -3.12903,-1.95245 -4.24967,-4.20016 -4.10045,-7.78529 0.46375,-2.98385 1.18063,-5.97364 2.99064,-8.50491 1.60647,-2.04011 4.03503,-3.83046 6.57054,-1.86211 1.71405,1.85562 1.79298,3.63904 1.33316,6.0078 -0.62072,2.39861 -1.90551,4.09629 -4.6795,4.21621 -2.15304,-0.38698 -3.96219,-1.486 -5.59295,-2.86693 -1.72585,-1.64848 0.71487,-3.97978 2.44071,-2.3313 z"
       inkscape:connector-curvature="0" />
    <path
       style="fill:#000000;fill-opacity:1;fill-rule:nonzero;stroke:none"
       id="path6704"
       d="m 548.17928,198.89759 c -1.35196,2.1582 -2.33527,4.53262 -3.06776,6.94591 -0.3501,1.51831 0.18985,2.21796 1.60775,2.68647 1.68086,0.43106 3.398,-0.10343 4.90606,-0.82292 0.24126,-0.13276 0.48253,-0.26551 0.7238,-0.39827 2.12105,-1.15345 3.82881,1.7117 1.70778,2.86514 l 0,0 c -0.31273,0.16851 -0.62546,0.33702 -0.93818,0.50553 -2.44014,1.08854 -5.07769,1.73975 -7.72456,0.89484 -3.1649,-1.3585 -4.29355,-3.34293 -3.59552,-6.65637 0.85959,-2.78569 1.9923,-5.53681 3.61928,-7.9985 1.46442,-1.86504 4.22577,0.11313 2.76135,1.97817 z"
       inkscape:connector-curvature="0" />
    <path
       style="fill:#000000;fill-opacity:1;fill-rule:nonzero;stroke:none"
       id="path6706"
       d="m 560.52903,186.51885 c 0.68607,3.35053 0.79695,6.77883 0.93375,10.18126 0.10696,3.2415 0.1304,6.48474 0.13835,9.72761 3.4e-4,0.98735 0.002,1.97474 -0.005,2.96208 2.7e-4,0.0582 -0.002,0.11631 -0.002,0.17446 -0.058,2.33064 -3.50864,2.25238 -3.4507,-0.0782 l 0,0 c 4.7e-4,-0.039 0.002,-0.08 0.002,-0.11855 0.007,-0.97732 0.006,-1.95468 0.005,-2.93203 -0.007,-3.20332 -0.0307,-6.40703 -0.13582,-9.60901 -0.12723,-3.17631 -0.22767,-6.3748 -0.83322,-9.50793 -0.59196,-2.2617 2.75666,-3.06132 3.34862,-0.79963 z"
       inkscape:connector-curvature="0" />
    <path
       style="fill:#000000;fill-opacity:1;fill-rule:nonzero;stroke:none"
       id="path6708"
       d="m 555.95354,195.7342 c 2.515,0 5.02999,0 7.54499,0 1.35758,0 2.71517,0 4.07275,0 0.11865,0 0.23731,0 0.35596,0 2.44071,0 2.44071,3.29696 0,3.29696 l 0,0 c -0.11865,0 -0.23731,0 -0.35596,0 -1.35758,0 -2.71517,0 -4.07275,0 -2.515,0 -5.02999,0 -7.54499,0 -2.4407,0 -2.4407,-3.29696 0,-3.29696 z"
       inkscape:connector-curvature="0" />
    <path
       style="fill:#000000;fill-opacity:1;fill-rule:nonzero;stroke:none"
       id="path6710"
       d="m 575.40023,200.23793 c 0,2.50656 0,5.01312 0,7.51968 0,1.23511 0,2.47023 0,3.70534 0,0.0867 0,0.17349 0,0.26024 0,2.33129 -3.45169,2.33129 -3.45169,0 l 0,0 c 0,-0.0867 0,-0.17349 0,-0.26024 0,-1.23511 0,-2.47023 0,-3.70534 0,-2.50656 0,-5.01312 0,-7.51968 0,-2.3313 3.45169,-2.3313 3.45169,0 z"
       inkscape:connector-curvature="0" />
    <path
       style="fill:#000000;fill-opacity:1;fill-rule:nonzero;stroke:none"
       id="path6718"
       d="m 574.34271,187.28042 c 0.72987,1.40031 1.63933,2.67362 1.6129,4.27785 -0.46975,1.61849 -0.932,2.09292 -3.60622,0.58783 -0.69758,-0.39261 0.2518,-2.70181 0.42181,-3.13704 0.46632,-1.01836 0.96353,-2.02362 1.47892,-3.02008 0.98927,-1.7665 3.45141,-0.35283 3.47892,1.32612 -0.005,0.19369 -7e-5,0.0995 -0.013,0.28263 -0.2028,2.32323 -3.64254,2.04928 -3.43973,-0.27395 l 0,0 c 3.9e-4,0.007 -0.003,0.0557 8.2e-4,0.0218 -0.0295,-1.36985 3.8764,-1.04615 3.06711,0.10395 -0.48177,0.93104 -0.94631,1.87039 -1.38437,2.82097 -0.14324,0.25293 -0.025,0.67473 -0.28584,0.81836 -0.11441,0.063 -0.0623,-0.31824 -0.19377,-0.33009 -1.63407,-0.14718 -2.85427,-0.75862 -2.95934,0.4693 0.28607,0.88686 -1.08618,-2.45874 -1.26585,-2.47323 -1.09151,-2.08517 1.99576,-3.55961 3.08728,-1.47444 z"
       inkscape:connector-curvature="0" />
    <path
       style="fill:#000000;fill-opacity:1;fill-rule:nonzero;stroke:none"
       id="path6722"
       d="m 587.70243,198.02104 c -2.09298,0.94075 -2.99489,2.57666 -3.59323,4.61152 -0.56752,2.40846 -0.50446,4.47358 1.12414,6.44786 1.65183,1.48137 2.98351,1.74093 4.69234,0.26294 2.08563,-2.25939 3.35014,-5.18918 2.92099,-8.20521 -0.63112,-2.18227 -2.5755,-3.49709 -4.86065,-3.81986 -1.14726,-0.17314 -1.36657,0.85112 -0.83229,-0.0335 -0.12092,2.32843 -3.56837,2.16508 -3.44745,-0.16336 l 0,0 c 0.0912,-0.39231 0.10407,-0.80913 0.27357,-1.17694 0.76379,-1.65742 3.01954,-2.02774 4.66101,-1.8633 3.79826,0.79094 6.77468,2.95632 7.64109,6.73593 0.0544,0.69859 0.19466,1.3959 0.16314,2.09577 -0.15326,3.40318 -2.02614,6.65107 -4.43126,9.05566 -0.54491,0.36288 -1.03704,0.81177 -1.63473,1.08864 -2.90856,1.34733 -5.90436,0.0584 -7.93121,-2.02967 -2.17813,-2.97301 -2.54381,-5.8131 -1.64786,-9.33256 0.92823,-2.87897 2.40369,-5.27814 5.35876,-6.6228 2.18303,-1.04259 3.72667,1.90629 1.54364,2.94887 z"
       inkscape:connector-curvature="0" />
    <path
       style="fill:#000000;fill-opacity:1;fill-rule:nonzero;stroke:none"
       id="path6724"
       d="m 601.94923,195.31072 c 0.81735,2.80098 1.26471,5.67497 1.87195,8.51903 0.61359,2.58789 1.07617,5.20413 1.36075,7.8431 0.0625,0.72117 0.14147,1.44326 0.14783,2.16762 -8.2e-4,0.036 -0.002,0.0719 -0.002,0.10785 -1.15155,-0.13864 -2.34054,-0.10508 -3.45465,-0.41591 -0.049,-0.0137 -0.007,-2.03387 -0.008,-2.96712 0.26477,-2.79241 0.83329,-5.54291 1.67287,-8.22697 0.65354,-2.48084 1.89527,-4.70481 3.19036,-6.91443 1.39926,-2.04939 2.66598,-2.82282 5.23059,-2.19253 2.22417,1.12127 3.53985,2.93148 4.27783,5.17158 0.78278,2.75997 1.60234,5.50673 2.4937,8.23759 0.75555,1.8299 1.219,4.02346 3.06295,5.16085 0.25744,0.26225 0.67664,0.22077 0.86373,0.22466 2.44071,-0.002 2.44425,3.29456 0.003,3.29694 l 0,0 c -1.10091,-0.0832 -2.00917,-0.224 -2.92315,-0.87325 -2.32898,-1.74848 -3.43232,-4.16938 -4.30233,-6.8279 -0.8975,-2.74973 -1.72175,-5.51595 -2.51164,-8.29435 -0.3311,-1.25633 -1.02818,-2.10612 -2.03971,-2.96316 -0.0737,-0.0632 -0.22249,-0.0955 -0.22068,-0.19008 8.2e-4,-0.0521 0.13402,-0.13506 0.0795,-0.13674 -0.43167,-0.0132 -0.73675,0.80925 -1.00399,0.99949 -1.17626,1.999 -2.31703,4.00091 -2.89623,6.25398 -0.75847,2.37204 -1.23337,4.80637 -1.52564,7.27053 8.2e-4,0.94999 0.0406,2.92939 0.008,2.93765 -1.11667,0.28334 -3.50057,-0.76218 -3.446,0.35708 -0.0112,-0.61705 -0.0751,-1.2322 -0.12983,-1.84672 -0.27112,-2.53212 -0.72108,-5.04119 -1.30983,-7.52397 -0.59172,-2.79706 -1.03185,-5.62208 -1.83785,-8.37519 -0.59197,-2.26169 2.75666,-3.06132 3.34862,-0.79963 z"
       inkscape:connector-curvature="0" />
    <path
       style="fill:#000000;fill-opacity:1;fill-rule:nonzero;stroke:none"
       id="path6726"
       d="m 480.03852,268.08316 c 5.23631,-2.3384 8.04617,-8.01158 10.70372,-12.77036 3.94873,-7.0957 5.7547,-14.97781 6.85455,-22.94582 0.50772,-3.22519 0.41026,-6.45882 -0.16285,-9.65698 -0.17139,-0.97028 1.20081,-1.21266 1.3722,-0.24238 l 0,0 c 0.58275,3.34384 0.70678,6.71936 0.17095,10.09022 -1.12735,8.13918 -2.98296,16.18785 -7.01854,23.43486 -2.86042,5.11244 -5.91162,11.13486 -11.64675,13.45683 -0.96618,0.19324 -1.23945,-1.17314 -0.27328,-1.36637 z"
       inkscape:connector-curvature="0" />
    <path
       style="fill:#000000;fill-opacity:1;fill-rule:nonzero;stroke:none"
       id="path6730"
       d="m 587.61653,217.95056 c 1.53992,4.0825 1.87323,8.47297 2.18796,12.78616 0.1595,6.27067 0.95428,12.46375 2.51623,18.53429 1.57971,4.66625 3.17388,9.45254 6.27812,13.34545 1.43979,1.86201 3.49266,2.85691 5.47113,3.99363 0.85389,0.49162 0.15863,1.69921 -0.69526,1.20759 l 0,0 c -2.1295,-1.22879 -4.32405,-2.32637 -5.86818,-4.33605 -3.20181,-4.06726 -4.92494,-8.99249 -6.53543,-13.86393 -1.57779,-6.15198 -2.39627,-12.42549 -2.55636,-18.77975 -0.30319,-4.17028 -0.61326,-8.41917 -2.09198,-12.36988 -0.36594,-0.91484 0.92784,-1.43235 1.29377,-0.51751 z"
       inkscape:connector-curvature="0" />
    <path
       style="fill:#000000;fill-opacity:1;fill-rule:nonzero;stroke:none"
       id="path6746"
       d="m 492.61871,431.46113 c 9.98673,-0.30869 19.98009,-0.49216 29.96996,-0.72843 22.77874,-0.52708 45.56891,-0.29528 68.3481,0.0823 2.08987,0.0346 2.04087,2.99017 -0.049,2.95551 l 0,0 c -22.73956,-0.37709 -45.4901,-0.60859 -68.22921,-0.0827 -10.07167,0.23816 -20.14704,0.43645 -30.21587,0.72401 -2.08646,-0.12446 -1.91042,-3.07514 0.17602,-2.95067 z"
       inkscape:connector-curvature="0" />
    <path
       style="fill:#000000;fill-opacity:1;fill-rule:nonzero;stroke:none"
       id="path6762"
       d="m 504.54603,439.51019 c -2.60297,-0.83965 -5.19581,-1.71142 -7.84144,-2.40875 -2.01365,-0.35795 -3.93587,-1.06994 -5.91805,-1.55163 -0.39094,-0.0918 -0.78437,-0.17471 -1.18147,-0.23339 -1.6186,-1.79817 -1.99548,-2.47003 0.17926,-4.00651 1.83612,-1.10902 3.88109,-1.79499 5.81203,-2.71363 2.56224,-1.10439 5.12875,-2.20752 7.6179,-3.47018 1.07101,-0.49577 2.10387,-1.06466 3.15894,-1.59268 1.86951,-0.9347 3.19137,1.70919 1.32186,2.64389 l 0,0 c -1.05118,0.52502 -2.07923,1.0933 -3.14623,1.58628 -2.51421,1.26931 -5.09772,2.39589 -7.68634,3.50373 -1.83331,0.86618 -3.7653,1.53059 -5.51958,2.55422 -0.24934,0.0312 -0.0812,-0.1941 -0.12951,-0.39502 -0.0167,-0.0694 0.0567,0.25694 1e-5,0.21406 -1.75552,-1.31944 -2.01757,-1.31474 -1.29351,-1.2633 0.52889,0.0608 1.04801,0.18667 1.56711,0.30072 2.00011,0.48904 3.94192,1.19876 5.97307,1.5656 2.73435,0.72427 5.41736,1.61795 8.10659,2.49234 1.96168,0.72148 0.94135,3.49572 -1.02033,2.77424 z"
       inkscape:connector-curvature="0" />
    <path
       inkscape:connector-curvature="0"
       d="m 577.45844,426.48698 c 2.67293,0.57956 5.33895,1.19207 8.04034,1.62579 2.03909,0.15815 4.02203,0.67763 6.04196,0.96201 0.39808,0.0529 0.79776,0.0967 1.19871,0.11605 1.78761,1.63025 2.22875,2.26178 0.21568,4.00471 -1.71814,1.28424 -3.68572,2.16803 -5.51693,3.27214 -2.44119,1.35106 -4.88676,2.70129 -7.23964,4.20265 -1.01705,0.59871 -1.98895,1.26643 -2.98696,1.89566 -1.76851,1.11406 -3.34402,-1.387 -1.57551,-2.50104 l 0,0 c 0.99445,-0.62587 1.96161,-1.29251 2.97495,-1.88806 2.37717,-1.51044 4.83734,-2.88568 7.30445,-4.24275 1.73922,-1.04231 3.59649,-1.89353 5.24158,-3.08475 0.24506,-0.0556 0.0999,0.18518 0.16773,0.38037 0.0234,0.0674 -0.0817,-0.25011 -0.0211,-0.21301 1.87679,1.14036 2.1371,1.10991 1.4115,1.12994 -0.53231,-0.008 -1.06129,-0.0827 -1.58909,-0.14512 -2.03852,-0.28995 -4.04072,-0.80522 -6.0981,-0.97051 -2.79233,-0.45181 -5.55023,-1.07725 -8.31243,-1.68289 -2.02313,-0.52503 -1.28062,-3.38618 0.74251,-2.86115 z"
       id="path6764"
       style="fill:#000000;fill-opacity:1;fill-rule:nonzero;stroke:none" />
    <path
       style="fill:#000000;fill-opacity:1;fill-rule:nonzero;stroke:none"
       id="path6766"
       d="m 474.83744,436.92049 c 0.71674,2.2723 0.54714,4.64964 0.64497,6.99118 0.13893,1.29493 0.12331,3.02355 0.29988,4.10581 -0.5222,-0.91461 -0.10271,-0.48674 -1.61262,-0.79429 1.89362,-0.88484 3.14499,1.79314 1.25136,2.67798 l 0,0 c -2.09512,-0.0804 -1.36939,0.37974 -2.42101,-0.88545 -0.44288,-1.61725 -0.26718,-3.32658 -0.47117,-4.98589 -0.0801,-2.08317 0.0863,-4.20002 -0.51299,-6.22832 -0.62297,-1.99515 2.1986,-2.87617 2.82158,-0.88102 z"
       inkscape:connector-curvature="0" />
    <path
       style="fill:#000000;fill-opacity:1;fill-rule:nonzero;stroke:none"
       id="path6768"
       d="m 468.32741,452.52583 c 2.66146,0.57558 5.37203,0.54469 8.07629,0.45425 2.0681,-0.0546 4.1367,-0.16431 6.20412,-0.0459 0.0979,-0.0206 0.1957,-0.0413 0.29354,-0.0618 2.0739,-0.26022 2.4419,2.6727 0.36801,2.93292 l 0,0 c -0.27836,0.0266 -0.5567,0.0532 -0.83506,0.0798 -1.97645,-0.11977 -3.95518,0.007 -5.93236,0.0494 -2.89504,0.0958 -5.79832,0.1141 -8.64838,-0.49086 -2.06313,-0.33505 -1.58929,-3.25275 0.47384,-2.91769 z"
       inkscape:connector-curvature="0" />
    <path
       style="fill:#000000;fill-opacity:1;fill-rule:nonzero;stroke:none"
       id="path6770"
       d="m 471.91687,461.03575 c 1.85964,-1.1421 3.66209,-1.42437 5.60664,-0.40336 1.84727,1.72056 1.58873,4.276 1.14236,6.54576 -0.77114,2.4337 -2.2695,4.47894 -3.97538,6.33768 -0.84343,0.7698 -1.62444,1.60822 -2.32826,2.50741 0.0617,0.0273 -0.0385,0.31004 -0.0581,0.43744 0.17644,-0.53684 -1.72889,-1.60183 -0.92866,-1.4686 1.05577,0.25757 2.08929,0.1968 3.15142,0.01 1.8941,-0.3825 3.82273,-0.49114 5.74922,-0.41506 0.87479,0.0507 1.74354,0.16601 2.61195,0.278 2.07292,0.26786 1.69412,3.1994 -0.37883,2.93155 l 0,0 c -0.78329,-0.10138 -1.56675,-0.20683 -2.35557,-0.25617 -1.7271,-0.0756 -3.45547,0.0344 -5.15271,0.37934 -1.38274,0.21176 -2.76299,0.3082 -4.13828,-0.0162 -0.86057,-0.15576 -1.66871,-1.01648 -1.48194,-1.87999 0.10095,-0.64653 0.29338,-1.2731 0.65641,-1.82521 0.75632,-0.9612 1.58135,-1.87096 2.48732,-2.69361 1.36398,-1.44623 2.54437,-3.06155 3.24891,-4.93547 0.26244,-1.13004 0.2954,-2.26498 0.20288,-3.41785 -0.56084,-0.87639 -2.10801,0.24278 -2.68787,0.50316 -1.85153,0.96983 -3.22308,-1.64863 -1.37155,-2.61846 z"
       inkscape:connector-curvature="0" />
    <path
       style="fill:#000000;fill-opacity:1;fill-rule:nonzero;stroke:none"
       id="path6772"
       d="m 497.76986,454.98639 c -1.10286,0.65778 -1.86782,1.52201 -2.32036,2.71745 -0.32537,0.96661 -0.3696,1.59708 0.15808,2.41878 1.15686,0.66644 2.40565,1.17631 3.5789,1.82946 1.79425,0.90719 2.90673,2.39581 3.5356,4.26183 0.75019,2.35922 -1.10643,3.56175 -3.09292,4.08833 -1.66965,0.29468 -3.367,0.36142 -5.05874,0.3878 -0.33786,0.005 -0.67565,0.002 -1.0132,-0.0118 -2.08688,-0.11704 -1.92135,-3.06833 0.16553,-2.95128 l 0,0 c 0.26719,0.012 0.53482,0.009 0.80222,0.007 1.47677,-0.0224 2.95734,-0.0777 4.41864,-0.30754 0.27821,-0.0516 0.54752,-0.16658 0.83029,-0.17656 0.15564,-0.005 0.35834,0.77332 0.13782,-0.12031 -0.36535,-1.18695 -1.01701,-2.04788 -2.17074,-2.59959 -1.59581,-0.90227 -3.48262,-1.41447 -4.6692,-2.88889 -0.96636,-1.67399 -1.0093,-3.2506 -0.35625,-5.06151 0.78409,-1.82626 1.97183,-3.26274 3.7324,-4.23753 1.86949,-0.93474 3.19142,1.70911 1.32193,2.64386 z"
       inkscape:connector-curvature="0" />
    <path
       style="fill:#000000;fill-opacity:1;fill-rule:nonzero;stroke:none"
       id="path6774"
       d="m 509.00053,456.68411 c 0.51461,2.50783 1.10483,4.99329 1.48325,7.52835 0.16095,1.11938 0.2924,2.40798 0.3854,3.46381 0.32145,2.06529 -2.5993,2.51989 -2.92076,0.45461 l 0,0 c -0.15558,-1.15697 -0.18404,-2.3318 -0.38842,-3.48364 -0.36829,-2.48692 -0.95697,-4.92279 -1.45799,-7.38343 -0.40992,-2.04956 2.4886,-2.62926 2.89852,-0.5797 z"
       inkscape:connector-curvature="0" />
    <path
       style="fill:#000000;fill-opacity:1;fill-rule:nonzero;stroke:none"
       id="path6776"
       d="m 507.99979,446.64457 c 0.51418,1.60488 0.71546,3.07409 0.0721,4.65611 -1.40675,2.00925 -3.25873,1.60858 -4.47347,-0.28444 -0.64728,-1.52394 -0.56132,-3.02681 -0.0979,-4.57467 0.54023,-1.02134 1.36382,-2.22562 2.71107,-2.14176 0.33269,0.0207 0.6116,0.26529 0.9174,0.39793 0.53402,0.60279 0.64678,1.06337 0.75262,1.7849 0.28515,2.07061 -2.64314,2.47387 -2.92829,0.40326 l 0,0 c -0.0456,-0.38342 -0.10097,-0.41652 0.37728,0.15775 0.22154,0.0681 0.43329,0.21826 0.66461,0.20415 0.72822,-0.0444 1.16618,-0.52841 0.33357,0.0531 -0.24934,0.80433 -0.3825,1.46823 -0.12981,2.31018 -0.15115,0.13799 -1.01912,0.10068 -0.7539,0.33407 0.26099,-0.58303 -0.075,-1.76012 -0.31298,-2.58367 -0.50693,-2.02774 2.36073,-2.74466 2.86767,-0.71691 z"
       inkscape:connector-curvature="0" />
    <path
       style="fill:#000000;fill-opacity:1;fill-rule:nonzero;stroke:none"
       id="path6778"
       d="m 515.88225,452.55641 c 0.54805,2.43232 0.55577,4.93557 0.90453,7.39332 0.36973,2.10781 0.68255,4.22408 0.88167,6.35491 0.0796,0.8583 0.11237,1.72041 0.11933,2.58216 -8e-5,0.0496 0.0476,0.16164 -2.3e-4,0.14875 -0.91412,-0.24606 -1.84269,-0.47773 -2.70149,-0.876 -8.7e-4,-4e-4 0.15427,-0.36802 0.24125,-0.78809 0.47604,-2.29916 -0.41698,1.50798 0.37135,-1.75254 0.65838,-2.32177 1.28022,-4.65987 2.05543,-6.94772 0.62116,-1.44368 1.2551,-2.88181 1.88694,-4.32084 0.0845,-0.19227 0.16887,-0.38457 0.25364,-0.5767 0.93752,0.0834 1.88761,0.0759 2.81258,0.2501 0.2771,0.0522 0.75251,2.91863 0.79476,3.26926 0.43516,1.98615 0.82681,3.97363 1.48581,5.90081 0.40877,1.91943 1.36578,3.50675 2.35357,5.1568 0.39328,0.43604 0.83297,1.21128 1.35943,1.32597 0.042,0.008 0.084,0.0168 0.12602,0.0252 2.02469,0.51902 1.29068,3.38236 -0.734,2.86334 l 0,0 c -0.13301,-0.0365 -0.26602,-0.0729 -0.39903,-0.10941 -1.26898,-0.50102 -2.123,-1.48394 -2.89044,-2.58983 -1.08781,-1.82777 -2.13661,-3.61961 -2.61593,-5.72581 -0.71088,-2.12508 -1.17427,-4.3073 -1.62099,-6.50068 -0.0667,-0.58059 -0.12504,-1.16164 -0.28119,-1.72697 -0.0659,-0.23845 -0.51871,-0.62666 -0.27898,-0.68772 0.84047,-0.21407 1.72651,-0.16735 2.58977,-0.25102 -0.0829,0.1883 -0.16583,0.37664 -0.2485,0.56506 -0.59759,1.36101 -1.191,2.72387 -1.79432,4.08235 -0.74983,2.20606 -1.34769,4.4619 -1.98346,6.70086 -0.38318,1.54126 -0.60805,5.73837 -3.73782,2.58782 -0.006,-0.77784 -0.035,-1.55608 -0.10667,-2.3308 -0.19396,-2.08677 -0.50675,-4.1581 -0.86631,-6.22254 -0.32129,-2.35646 -0.36085,-4.74706 -0.84438,-7.08309 -0.50694,-2.02775 2.36073,-2.74466 2.86766,-0.71692 z"
       inkscape:connector-curvature="0" />
    <path
       style="fill:#000000;fill-opacity:1;fill-rule:nonzero;stroke:none"
       id="path6780"
       d="m 529.69947,456.87732 c 1.93455,10e-4 3.85488,0.10474 5.76185,-0.25593 1.14039,-0.42533 1.47168,-1.44036 1.74156,-2.52817 0.0937,-1.20826 -0.63766,-1.53128 -1.64948,-1.83326 -2.0876,-0.0617 -3.59102,1.49133 -4.76302,3.03931 -1.64392,2.78398 -1.96783,3.83617 -0.17188,6.50148 2.02347,1.7942 4.67069,2.5634 7.32975,2.67504 1.15359,-0.008 2.29668,-0.16462 3.43183,-0.35502 2.06174,-0.34347 2.54749,2.57226 0.48576,2.91574 l 0,0 c -1.34977,0.22353 -2.7095,0.40313 -4.0814,0.39066 -3.6194,-0.23672 -7.11386,-1.30326 -9.65301,-4.02894 -2.42873,-3.90923 -2.05208,-6.0899 0.33533,-9.92605 2.04315,-2.52995 4.59038,-4.61978 8.04755,-4.00759 2.63135,0.96833 3.90347,2.47065 3.54427,5.39183 -0.61837,2.21091 -1.71467,4.02052 -4.05997,4.67165 -2.0883,0.37885 -4.18236,0.33241 -6.29914,0.30517 -2.09015,0 -2.09015,-2.95592 0,-2.95592 z"
       inkscape:connector-curvature="0" />
    <path
       style="fill:#000000;fill-opacity:1;fill-rule:nonzero;stroke:none"
       id="path6782"
       d="m 556.29529,455.69881 c 0.47487,2.76243 0.64657,5.56398 0.78353,8.3598 -0.49833,0.26118 1.29443,3.88271 1.14044,2.79936 1.3417,-1.02228 2.17049,-2.45709 2.83754,-3.97121 0.5817,-1.27279 0.84393,-2.62823 1.07977,-3.99396 2.87984,1.57242 2.46904,0.70615 2.20454,2.65459 -0.12164,0.89609 -0.15486,0.56029 0.0643,1.26283 0.64701,1.25998 1.96356,1.58854 3.2807,1.62196 1.51399,-0.20602 2.98151,-0.61337 3.6236,-2.10207 0.68154,-1.72106 0.62074,-3.33095 0.0424,-5.04508 -0.61347,-1.20113 -1.55497,-2.22 -2.41805,-3.25482 -1.59307,-0.89122 1.96736,-1.86588 2.02721,-0.96147 -0.13253,2.08594 -3.0825,1.89852 -2.94998,-0.18742 l 0,0 c 0.13529,-1.49078 2.53806,-2.1055 3.193,-0.74414 1.1003,1.31983 2.29012,2.62792 2.95729,4.22896 0.8005,2.50507 0.81465,4.92784 -0.25554,7.37689 -1.58483,2.65873 -3.39066,3.36812 -6.41178,3.63884 -2.7305,-0.23931 -5.06042,-1.2721 -5.99795,-4.04738 -0.18197,-1.37086 -0.18507,-2.6988 0.32287,-4.01858 0.11188,-0.29069 0.10153,-0.84612 0.41291,-0.83824 0.98745,0.025 1.87793,0.61329 2.8169,0.91994 -0.28024,1.60984 -0.61403,3.2041 -1.29722,4.70332 -1.17323,2.56005 -2.77963,5.24697 -5.80032,5.70081 -0.44993,-0.10122 -0.93234,-0.10764 -1.34979,-0.30365 -1.87582,-0.88077 -2.20398,-3.53365 -2.47532,-5.29517 -0.12922,-2.64978 -0.28891,-5.30488 -0.72965,-7.92441 -0.40991,-2.04956 2.48861,-2.62927 2.89852,-0.5797 z"
       inkscape:connector-curvature="0" />
    <path
       style="fill:#000000;fill-opacity:1;fill-rule:nonzero;stroke:none"
       id="path6784"
       d="m 581.74681,456.93531 c -1.39502,1.501 -2.00768,3.42289 -2.47765,5.37038 -0.016,0.25059 -0.50098,2.1554 0.0501,2.33599 0.0348,0.0114 0.0558,-0.0474 0.0837,-0.071 0.0605,0.0233 0.12104,0.0466 0.18156,0.07 -0.0303,-0.0512 -0.13477,-0.11339 -0.0909,-0.15358 0.0804,-0.0737 0.21961,-0.0207 0.32205,-0.0582 0.42451,-0.15544 0.78663,-0.88347 1.00515,-1.22469 0.61947,-1.65106 0.98386,-3.467 0.84385,-5.2323 -0.10569,-0.58962 -0.18998,-1.22348 -0.49513,-1.75061 0.88203,-0.0423 1.7638,-0.16364 2.64609,-0.12703 0.007,3e-4 -0.0147,0.38645 -0.0234,0.76066 -0.0196,0.8414 -0.01,1.64033 0.0943,2.47644 0.45611,1.77214 1.72771,3.0294 3.15293,4.08504 1.2151,0.8121 2.57435,1.13848 3.99908,1.31879 2.07293,0.26781 1.6942,3.19937 -0.37872,2.93157 l 0,0 c -1.93514,-0.25412 -3.7774,-0.76548 -5.40503,-1.894 -2.05911,-1.585 -3.78299,-3.47667 -4.30553,-6.10982 -0.0339,-0.32446 -0.20346,-4.16719 -0.008,-4.25902 0.86288,-0.40501 1.85217,-0.45156 2.77826,-0.67734 0.52975,0.94292 0.76745,2.01058 0.8961,3.07718 0.10402,2.41925 -0.27477,4.88206 -1.35479,7.06864 -1.29526,1.82718 -2.90821,3.07381 -5.23571,2.27951 -2.09191,-1.42728 -2.1041,-3.23179 -1.62709,-5.54953 0.64712,-2.60859 1.55999,-5.14903 3.57511,-7.03173 1.67212,-1.25409 3.44567,1.11065 1.77355,2.36474 z"
       inkscape:connector-curvature="0" />
    <path
       style="fill:#000000;fill-opacity:1;fill-rule:nonzero;stroke:none"
       id="path6786"
       d="m 592.7205,454.98402 c 1.31587,1.92031 2.36706,4.02268 3.52706,6.04405 0.88909,1.79373 1.91152,3.50746 3.07497,5.13485 0.82308,1.1395 0.59673,0.36905 -0.0974,0.4371 -0.26303,0.0258 -0.48831,0.2024 -0.73246,0.3036 0.73207,-1.38989 0.75603,-3.04924 1.03149,-4.57061 0.38046,-2.69545 1.27651,-5.26574 2.16178,-7.82627 0.29571,-0.84177 0.58761,-1.68503 0.8972,-2.52183 0.0217,-0.0628 0.0481,-0.12373 0.073,-0.18524 0.8358,-1.91577 3.54511,-0.73378 2.70931,1.182 l 0,0 c -0.003,0.01 -0.006,0.0196 -0.0101,0.0292 -0.30242,0.81679 -0.58674,1.64019 -0.87571,2.46178 -0.83642,2.41891 -1.69475,4.84351 -2.04765,7.39167 -0.36878,1.99746 -0.41359,4.15472 -1.6229,5.87555 -0.36939,0.25917 -0.6769,0.64471 -1.10815,0.77751 -1.23545,0.38047 -2.1806,-0.7922 -2.78386,-1.63664 -1.21848,-1.70799 -2.30213,-3.50019 -3.23362,-5.38212 -1.09899,-1.91739 -2.09717,-3.91167 -3.32764,-5.74106 -1.25409,-1.67213 1.11065,-3.44568 2.36474,-1.77356 z"
       inkscape:connector-curvature="0" />
    <path
       style="fill:#000000;fill-opacity:1;fill-rule:nonzero;stroke:none"
       id="path6788"
       d="m 607.36282,455.69317 c 1.09397,1.02203 2.35929,1.55782 3.79868,1.87401 1.47042,0.075 2.48758,-0.84878 3.24338,-2.01134 0.46226,-0.79496 0.92355,-1.46034 -2.5e-4,-1.94293 -1.48582,-0.74535 -2.62745,-0.10379 -3.71253,0.95211 -1.33779,1.94466 -2.10697,4.26279 -1.4909,6.57621 1.27939,2.47539 4.16345,2.84747 6.65569,3.28437 1.38177,0.12282 2.76232,0.012 4.13964,-0.0947 2.08409,-0.15906 2.30904,2.78829 0.22494,2.94735 l 0,0 c -1.62558,0.12237 -3.25415,0.24302 -4.88263,0.0575 -3.74448,-0.67547 -7.4975,-1.63849 -9.01951,-5.53704 -0.11037,-0.5376 -0.28253,-1.06614 -0.33112,-1.6128 -0.24975,-2.80967 1.06829,-5.664 2.73562,-7.82622 2.42809,-2.06141 4.75029,-2.7739 7.60931,-0.98696 1.98662,1.91847 1.90769,3.60733 0.4962,5.87407 -1.54446,2.12794 -3.57689,3.54729 -6.32607,3.20206 -1.97316,-0.46347 -3.74452,-1.24754 -5.2306,-2.66556 -1.47797,-1.47796 0.61219,-3.56811 2.09015,-2.09015 z"
       inkscape:connector-curvature="0" />
    <path
       style="fill:#000000;fill-opacity:1;fill-rule:nonzero;stroke:none"
       id="path6790"
       d="m 832.16599,324.46643 c 0.62993,3.23122 0.69725,6.54001 0.80001,9.82052 -0.0273,4.32159 0.19163,8.6198 0.55896,12.9233 0.18508,2.02676 0.35519,4.05494 0.50358,6.08473 0.004,0.0249 0.008,0.0498 0.0113,0.0747 -0.97733,-0.13189 -1.95465,-0.26377 -2.93198,-0.39566 0.0466,-2.08963 3.00177,-2.02376 2.95519,0.0659 l 0,0 c -3.03007,0.71366 -2.8394,1.70192 -2.98257,0.47051 -0.14746,-2.01783 -0.31677,-4.03405 -0.50074,-6.04887 -0.3717,-4.35624 -0.59488,-8.70796 -0.56823,-13.08235 -0.0957,-3.07084 -0.1558,-6.1662 -0.71318,-9.19589 -0.50694,-2.02775 2.36073,-2.74467 2.86766,-0.71692 z"
       inkscape:connector-curvature="0" />
    <path
       style="fill:#000000;fill-opacity:1;fill-rule:nonzero;stroke:none"
       id="path6792"
       d="m 841.55359,328.44177 c -1.33012,2.37041 -2.8891,4.58354 -4.68832,6.61799 -1.19071,1.31827 -2.35699,2.64434 -3.71053,3.80065 -0.6565,0.39231 -1.59237,1.58699 -0.0916,-0.43545 0.90599,-0.23473 -0.64268,-0.81012 -0.34151,-0.98088 0.0779,-0.0442 2.57968,1.70464 2.79131,1.85117 2.69893,2.2252 4.98794,4.90409 7.31057,7.50911 1.18565,1.48813 2.30872,3.00946 3.66293,4.35047 1.4826,1.47331 -0.60098,3.57002 -2.08358,2.09671 l 0,0 c -1.39145,-1.38685 -2.58202,-2.93064 -3.78567,-4.48004 -2.16847,-2.43215 -4.30496,-4.92803 -6.78752,-7.04642 -0.55674,-0.38588 -3.04347,-1.88105 -3.38464,-2.38554 -0.19973,-0.29535 -0.22406,-0.67698 -0.33609,-1.01547 1.06015,-1.91634 0.2897,-1.02628 1.12874,-1.7136 1.25242,-1.06375 2.31167,-2.30085 3.41624,-3.51217 1.63459,-1.8368 3.03555,-3.84231 4.25584,-5.97845 0.93474,-1.86949 3.5786,-0.54757 2.64386,1.32192 z"
       inkscape:connector-curvature="0" />
  </g>
</svg>
