<?xml version="1.0" encoding="UTF-8" standalone="no"?>
<!-- Created with Inkscape (http://www.inkscape.org/) -->

<svg
   xmlns:dc="http://purl.org/dc/elements/1.1/"
   xmlns:cc="http://creativecommons.org/ns#"
   xmlns:rdf="http://www.w3.org/1999/02/22-rdf-syntax-ns#"
   xmlns:svg="http://www.w3.org/2000/svg"
   xmlns="http://www.w3.org/2000/svg"
   xmlns:sodipodi="http://sodipodi.sourceforge.net/DTD/sodipodi-0.dtd"
   xmlns:inkscape="http://www.inkscape.org/namespaces/inkscape"
   width="589.30969"
   height="230.33749"
   id="svg3832"
   version="1.1"
   inkscape:version="0.48.0 r9654"
   sodipodi:docname="New document 4.2010_12_10_04_10_48.0.svg">
  <defs
     id="defs3834" />
  <sodipodi:namedview
     inkscape:document-units="mm"
     pagecolor="#ffffff"
     bordercolor="#666666"
     borderopacity="1.0"
     inkscape:pageopacity="0.0"
     inkscape:pageshadow="2"
     inkscape:zoom="0.7176508"
     inkscape:cx="276.93718"
     inkscape:cy="100.10761"
     inkscape:current-layer="layer1"
     id="namedview3836"
     showgrid="false"
     fit-margin-top="0"
     fit-margin-left="0"
     fit-margin-right="0"
     fit-margin-bottom="0"
     inkscape:window-width="1280"
     inkscape:window-height="752"
     inkscape:window-x="0"
     inkscape:window-y="0"
     inkscape:window-maximized="0" />
  <metadata
     id="metadata3838">
    <rdf:RDF>
      <cc:Work
         rdf:about="">
        <dc:format>image/svg+xml</dc:format>
        <dc:type
           rdf:resource="http://purl.org/dc/dcmitype/StillImage" />
        <dc:title></dc:title>
      </cc:Work>
    </rdf:RDF>
  </metadata>
  <g
     inkscape:label="Layer 1"
     inkscape:groupmode="layer"
     id="layer1"
     transform="translate(-249.24391,-241.81737)">
    <path
       style="fill:#000000;fill-opacity:1;fill-rule:nonzero;stroke:none"
       id="path4349"
       d="m 251.46124,449.67679 c 23.1442,-0.6175 46.30459,-0.029 69.45008,0.27421 58.75886,1.16003 117.5207,-0.4044 176.26722,-1.49661 84.13184,-1.81056 168.27843,-1.31366 252.40436,0.40082 58.18509,1.37709 29.24698,0.61357 86.81447,2.28565 2.95467,0.0858 2.83329,4.26437 -0.12138,4.17854 l 0,0 c -57.54044,-1.67137 -28.6144,-0.90813 -86.77827,-2.28475 -84.07165,-1.71367 -168.16393,-2.21009 -252.24147,-0.40067 -58.79067,1.09302 -117.59666,2.65781 -176.39968,1.49696 -23.12754,-0.30294 -46.26984,-0.89104 -69.3961,-0.27385 -2.95593,-5.5e-4 -2.95515,-4.18086 7.7e-4,-4.1803 z"
       inkscape:connector-curvature="0" />
    <path
       style="fill:#000000;fill-opacity:1;fill-rule:nonzero;stroke:none"
       id="path3877"
       d="m 266.11265,287.92154 c 3.51851,-4.10445 7.67578,-7.59789 11.86864,-10.9856 7.20056,-6.13248 15.41407,-10.63718 23.89751,-14.69959 12.2807,-5.55792 25.28652,-9.09273 38.48597,-11.61987 11.62108,-1.71956 23.4078,-3.22627 35.18611,-2.68451 2.21204,0.10176 4.41343,0.36823 6.62014,0.55234 10.19785,1.32952 20.12418,4.41809 29.03859,9.59768 1.79875,1.04515 3.51033,2.23358 5.2655,3.35036 11.2488,7.75447 21.48602,16.89561 31.43858,26.22713 10.57036,10.61776 21.59968,20.71538 33.15131,30.25167 9.44367,7.30515 19.78431,13.58971 30.98715,17.81535 2.06095,0.77738 4.17876,1.39474 6.26814,2.09211 7.98482,2.29367 16.27511,3.50614 24.59435,3.0834 5.35699,-0.27222 7.12311,-0.79715 12.40975,-1.79962 13.27555,-2.66238 25.43532,-8.56502 37.05678,-15.30665 12.06051,-7.36733 23.03261,-16.32673 34.1828,-24.96982 11.29125,-9.08537 23.43464,-17.02263 35.95204,-24.29565 13.1765,-7.96592 27.13501,-14.3879 41.70848,-19.30308 13.84256,-4.54631 28.29428,-6.46308 42.7866,-7.23108 13.34754,-0.53231 26.48088,1.70781 39.26299,5.35648 7.52596,2.24584 14.62848,5.55541 21.57097,9.17475 2.62036,1.36792 0.68584,5.07367 -1.93453,3.70575 l 0,0 c -6.68843,-3.49649 -13.53439,-6.68828 -20.78639,-8.86147 -12.33303,-3.53754 -25.01085,-5.70024 -37.89341,-5.20098 -14.11367,0.73704 -28.18936,2.60057 -41.67214,7.01827 -14.31232,4.81183 -28.00591,11.14015 -40.94299,18.95616 -12.35913,7.176 -24.34486,15.01519 -35.49057,23.98479 -11.29783,8.75749 -22.41829,17.83156 -34.64761,25.28261 -12.03658,6.97038 -24.6334,13.05592 -38.37948,15.79803 -5.65602,1.05792 -7.44303,1.59446 -13.18024,1.87181 -8.77123,0.42403 -17.5105,-0.86769 -25.92442,-3.29961 -2.18742,-0.73434 -4.40444,-1.38577 -6.56225,-2.20303 -11.57785,-4.38507 -22.26846,-10.88229 -32.02755,-18.44498 -11.61799,-9.59382 -22.71804,-19.74482 -33.34937,-30.42599 -9.7621,-9.15707 -19.80362,-18.12756 -30.82708,-25.75198 -1.65627,-1.05927 -3.27132,-2.18592 -4.96879,-3.17782 -8.41704,-4.91842 -17.79911,-7.85146 -27.43838,-9.12906 -2.10343,-0.17926 -4.20157,-0.43873 -6.3103,-0.53777 -11.50129,-0.54009 -23.01111,0.94252 -34.36009,2.61042 -12.8487,2.45088 -25.50766,5.8893 -37.4662,11.28466 -8.19321,3.91799 -16.12757,8.25215 -23.07574,14.18117 -3.90101,3.14796 -7.75412,6.39481 -11.08733,10.15471 -1.71224,2.4095 -5.11979,-0.012 -3.40754,-2.42149 z"
       inkscape:connector-curvature="0" />
    <path
       style="fill:#000000;fill-opacity:1;fill-rule:nonzero;stroke:none"
       id="path3883"
       d="m 361.48432,247.05357 c 1.67363,1.52651 2.79759,3.46095 3.6624,5.5273 1.13166,2.7747 -0.66881,4.15743 -3.23559,4.47401 -2.38148,-0.11174 -4.00981,-1.41167 -5.11921,-3.44108 -0.50262,-1.37654 -0.40487,-0.83642 -1.28592,-2.17198 -1.17231,-1.74047 -0.0771,-3.43316 1.03778,-4.75486 1.37501,-1.35457 3.13165,-1.80963 4.98551,-2.043 1.83771,-0.32951 3.25974,0.40792 4.52257,1.65475 0.89691,1.25094 1.05163,2.7709 1.12193,4.26064 -0.285,2.06552 -1.3222,3.4792 -3.12298,4.47343 -2.32665,1.01407 -4.36747,0.261 -6.12108,-1.38581 -1.43299,-1.70884 -1.70812,-3.89345 -1.87511,-6.03543 -0.28952,-2.48466 0.38503,-4.21769 2.66459,-5.36339 2.48429,-0.85474 4.53336,-0.44969 6.46408,1.32396 1.46445,1.80614 1.94998,3.97674 1.78026,6.24224 -0.76239,2.59978 -2.76396,3.65715 -5.23042,4.25457 -1.58693,0.40535 -2.82675,0.29521 -4.33877,-0.25005 -1.28238,-1.08226 -1.35723,-2.65221 -1.3927,-4.20034 0.15999,-1.33005 0.83237,-2.28391 1.84839,-3.08443 2.3572,-1.78355 4.87953,1.55003 2.52233,3.33359 l 0,0 c -0.24291,0.13027 -0.16089,-0.0173 -0.19139,-0.33965 0.0169,0.8429 0.46852,1.73062 -0.48006,0.80447 -2.10841,-0.4082 0.48555,-0.0604 1.07161,-0.33203 0.71266,-0.16169 1.50617,-0.27524 2.04725,-0.73771 0.39433,-0.7774 -0.2988,-2.11454 -0.66911,-2.81347 -0.26646,-0.84888 -1.18232,-0.41561 -1.87726,-0.32051 0.23236,-1.13633 -0.36917,0.7591 -0.0506,1.16503 0.087,1.17456 0.11668,2.47709 0.76049,3.49823 0.20281,0.64223 0.76227,0.6428 1.26958,0.46681 0.68302,-0.23293 0.68407,-1.28323 0.74487,-0.5104 -0.0257,-0.60044 -0.0794,-1.21026 -0.17315,-1.7927 0.68742,0.26669 -0.19459,-0.11103 -0.16734,-0.16522 0.0393,-0.0782 0.33871,-0.0393 0.25476,-0.0643 -0.28051,-0.0835 -0.59901,0.16229 -0.87544,0.0671 -0.80591,0.0945 -1.5994,0.19343 -2.31082,0.60464 -0.16835,0.19464 -0.26455,0.65641 -0.51014,0.5795 -0.13904,-0.0435 -0.66454,-1.71258 -0.21871,-0.83533 0.53986,0.82092 1.20345,1.58652 1.49976,2.53522 0.31469,0.67368 0.52873,0.71758 1.06814,1.13259 0.0403,0.031 -0.0815,0.0606 -0.12233,0.0909 0.86666,-0.0809 0.28796,0.0366 -0.0582,0.72706 -0.16888,0.33689 0.26434,1.69219 -0.0984,0.55575 -0.64456,-1.56911 -1.46883,-3.03365 -2.75752,-4.17424 -2.09015,-2.09015 0.86577,-5.04607 2.95592,-2.95592 z"
       inkscape:connector-curvature="0" />
    <path
       inkscape:connector-curvature="0"
       d="m 539.84405,340.41374 c 1.67363,1.52651 2.79759,3.46095 3.6624,5.5273 1.13166,2.7747 -0.66881,4.15743 -3.23559,4.47401 -2.38148,-0.11174 -4.00981,-1.41167 -5.11921,-3.44108 -0.50262,-1.37654 -0.40487,-0.83642 -1.28592,-2.17198 -1.17231,-1.74047 -0.0771,-3.43316 1.03778,-4.75486 1.37501,-1.35457 3.13165,-1.80963 4.98551,-2.043 1.83771,-0.32951 3.25974,0.40792 4.52257,1.65475 0.89691,1.25094 1.05163,2.7709 1.12193,4.26064 -0.285,2.06552 -1.3222,3.4792 -3.12298,4.47343 -2.32665,1.01407 -4.36747,0.261 -6.12108,-1.38581 -1.43299,-1.70884 -1.70812,-3.89345 -1.87511,-6.03543 -0.28952,-2.48466 0.38503,-4.21769 2.66459,-5.36339 2.48429,-0.85474 4.53336,-0.44969 6.46408,1.32396 1.46445,1.80614 1.94998,3.97674 1.78026,6.24224 -0.76239,2.59978 -2.76396,3.65715 -5.23042,4.25457 -1.58693,0.40535 -2.82675,0.29521 -4.33877,-0.25005 -1.28238,-1.08226 -1.35723,-2.65221 -1.3927,-4.20034 0.15999,-1.33005 0.83237,-2.28391 1.84839,-3.08443 2.3572,-1.78355 4.87953,1.55003 2.52233,3.33359 l 0,0 c -0.24291,0.13027 -0.16089,-0.0173 -0.19139,-0.33965 0.0169,0.8429 0.46852,1.73062 -0.48006,0.80447 -2.10841,-0.4082 0.48555,-0.0604 1.07161,-0.33203 0.71266,-0.16169 1.50617,-0.27524 2.04725,-0.73771 0.39433,-0.7774 -0.2988,-2.11454 -0.66911,-2.81347 -0.26646,-0.84888 -1.18232,-0.41561 -1.87726,-0.32051 0.23236,-1.13633 -0.36917,0.7591 -0.0506,1.16503 0.087,1.17456 0.11668,2.47709 0.76049,3.49823 0.20281,0.64223 0.76227,0.6428 1.26958,0.46681 0.68302,-0.23293 0.68407,-1.28323 0.74487,-0.5104 -0.0257,-0.60044 -0.0794,-1.21026 -0.17315,-1.7927 0.68742,0.26669 -0.19459,-0.11103 -0.16734,-0.16522 0.0393,-0.0782 0.33871,-0.0393 0.25476,-0.0643 -0.28051,-0.0835 -0.59901,0.16229 -0.87544,0.0671 -0.80591,0.0945 -1.5994,0.19343 -2.31082,0.60464 -0.16835,0.19464 -0.26455,0.65641 -0.51014,0.5795 -0.13904,-0.0435 -0.66454,-1.71258 -0.21871,-0.83533 0.53986,0.82092 1.20345,1.58652 1.49976,2.53522 0.31469,0.67368 0.52873,0.71758 1.06814,1.13259 0.0403,0.031 -0.0815,0.0606 -0.12233,0.0909 0.86666,-0.0809 0.28796,0.0366 -0.0582,0.72706 -0.16888,0.33689 0.26434,1.69219 -0.0984,0.55575 -0.64456,-1.56911 -1.46883,-3.03365 -2.75752,-4.17424 -2.09015,-2.09015 0.86577,-5.04607 2.95592,-2.95592 z"
       id="path3885"
       style="fill:#000000;fill-opacity:1;fill-rule:nonzero;stroke:none" />
    <path
       style="fill:#000000;fill-opacity:1;fill-rule:nonzero;stroke:none"
       id="path3887"
       d="m 516.15565,336.23343 c 1.67363,1.52651 2.79759,3.46095 3.6624,5.5273 1.13166,2.7747 -0.66881,4.15743 -3.23559,4.47401 -2.38148,-0.11174 -4.00981,-1.41167 -5.11921,-3.44108 -0.50262,-1.37654 -0.40487,-0.83642 -1.28592,-2.17198 -1.17231,-1.74047 -0.0771,-3.43316 1.03778,-4.75486 1.37501,-1.35457 3.13165,-1.80963 4.98551,-2.043 1.83771,-0.32951 3.25974,0.40792 4.52257,1.65475 0.89691,1.25094 1.05163,2.7709 1.12193,4.26064 -0.285,2.06552 -1.3222,3.4792 -3.12298,4.47343 -2.32665,1.01407 -4.36747,0.261 -6.12108,-1.38581 -1.43299,-1.70884 -1.70812,-3.89345 -1.87511,-6.03543 -0.28952,-2.48466 0.38503,-4.21769 2.66459,-5.36339 2.48429,-0.85474 4.53336,-0.44969 6.46408,1.32396 1.46445,1.80614 1.94998,3.97674 1.78026,6.24224 -0.76239,2.59978 -2.76396,3.65715 -5.23042,4.25457 -1.58693,0.40535 -2.82675,0.29521 -4.33877,-0.25005 -1.28238,-1.08226 -1.35723,-2.65221 -1.3927,-4.20034 0.15999,-1.33005 0.83237,-2.28391 1.84839,-3.08443 2.3572,-1.78355 4.87953,1.55003 2.52233,3.33359 l 0,0 c -0.24291,0.13027 -0.16089,-0.0173 -0.19139,-0.33965 0.0169,0.8429 0.46852,1.73062 -0.48006,0.80447 -2.10841,-0.4082 0.48555,-0.0604 1.07161,-0.33203 0.71266,-0.16169 1.50617,-0.27524 2.04725,-0.73771 0.39433,-0.7774 -0.2988,-2.11454 -0.66911,-2.81347 -0.26646,-0.84888 -1.18232,-0.41561 -1.87726,-0.32051 0.23236,-1.13633 -0.36917,0.7591 -0.0506,1.16503 0.087,1.17456 0.11668,2.47709 0.76049,3.49823 0.20281,0.64223 0.76227,0.6428 1.26958,0.46681 0.68302,-0.23293 0.68407,-1.28323 0.74487,-0.5104 -0.0257,-0.60044 -0.0794,-1.21026 -0.17315,-1.7927 0.68742,0.26669 -0.19459,-0.11103 -0.16734,-0.16522 0.0393,-0.0782 0.33871,-0.0393 0.25476,-0.0643 -0.28051,-0.0835 -0.59901,0.16229 -0.87544,0.0671 -0.80591,0.0945 -1.5994,0.19343 -2.31082,0.60464 -0.16835,0.19464 -0.26455,0.65641 -0.51014,0.5795 -0.13904,-0.0435 -0.66454,-1.71258 -0.21871,-0.83533 0.53986,0.82092 1.20345,1.58652 1.49976,2.53522 0.31469,0.67368 0.52873,0.71758 1.06814,1.13259 0.0403,0.031 -0.0815,0.0606 -0.12233,0.0909 0.86666,-0.0809 0.28796,0.0366 -0.0582,0.72706 -0.16888,0.33689 0.26434,1.69219 -0.0984,0.55575 -0.64456,-1.56911 -1.46883,-3.03365 -2.75752,-4.17424 -2.09015,-2.09015 0.86577,-5.04607 2.95592,-2.95592 z"
       inkscape:connector-curvature="0" />
    <path
       inkscape:connector-curvature="0"
       d="m 496.64755,327.87282 c 1.67363,1.52651 2.79759,3.46095 3.6624,5.5273 1.13166,2.7747 -0.66881,4.15743 -3.23559,4.47401 -2.38148,-0.11174 -4.00981,-1.41167 -5.11921,-3.44108 -0.50262,-1.37654 -0.40487,-0.83642 -1.28592,-2.17198 -1.17231,-1.74047 -0.0771,-3.43316 1.03778,-4.75486 1.37501,-1.35457 3.13165,-1.80963 4.98551,-2.043 1.83771,-0.32951 3.25974,0.40792 4.52257,1.65475 0.89691,1.25094 1.05163,2.7709 1.12193,4.26064 -0.285,2.06552 -1.3222,3.4792 -3.12298,4.47343 -2.32665,1.01407 -4.36747,0.261 -6.12108,-1.38581 -1.43299,-1.70884 -1.70812,-3.89345 -1.87511,-6.03543 -0.28952,-2.48466 0.38503,-4.21769 2.66459,-5.36339 2.48429,-0.85474 4.53336,-0.44969 6.46408,1.32396 1.46445,1.80614 1.94998,3.97674 1.78026,6.24224 -0.76239,2.59978 -2.76396,3.65715 -5.23042,4.25457 -1.58693,0.40535 -2.82675,0.29521 -4.33877,-0.25005 -1.28238,-1.08226 -1.35723,-2.65221 -1.3927,-4.20034 0.15999,-1.33005 0.83237,-2.28391 1.84839,-3.08443 2.3572,-1.78355 4.87953,1.55003 2.52233,3.33359 l 0,0 c -0.24291,0.13027 -0.16089,-0.0173 -0.19139,-0.33965 0.0169,0.8429 0.46852,1.73062 -0.48006,0.80447 -2.10841,-0.4082 0.48555,-0.0604 1.07161,-0.33203 0.71266,-0.16169 1.50617,-0.27524 2.04725,-0.73771 0.39433,-0.7774 -0.2988,-2.11454 -0.66911,-2.81347 -0.26646,-0.84888 -1.18232,-0.41561 -1.87726,-0.32051 0.23236,-1.13633 -0.36917,0.7591 -0.0506,1.16503 0.087,1.17456 0.11668,2.47709 0.76049,3.49823 0.20281,0.64223 0.76227,0.6428 1.26958,0.46681 0.68302,-0.23293 0.68407,-1.28323 0.74487,-0.5104 -0.0257,-0.60044 -0.0794,-1.21026 -0.17315,-1.7927 0.68742,0.26669 -0.19459,-0.11103 -0.16734,-0.16522 0.0393,-0.0782 0.33871,-0.0393 0.25476,-0.0643 -0.28051,-0.0835 -0.59901,0.16229 -0.87544,0.0671 -0.80591,0.0945 -1.5994,0.19343 -2.31082,0.60464 -0.16835,0.19464 -0.26455,0.65641 -0.51014,0.5795 -0.13904,-0.0435 -0.66454,-1.71258 -0.21871,-0.83533 0.53986,0.82092 1.20345,1.58652 1.49976,2.53522 0.31469,0.67368 0.52873,0.71758 1.06814,1.13259 0.0403,0.031 -0.0815,0.0606 -0.12233,0.0909 0.86666,-0.0809 0.28796,0.0366 -0.0582,0.72706 -0.16888,0.33689 0.26434,1.69219 -0.0984,0.55575 -0.64456,-1.56911 -1.46883,-3.03365 -2.75752,-4.17424 -2.09015,-2.09015 0.86577,-5.04607 2.95592,-2.95592 z"
       id="path3889"
       style="fill:#000000;fill-opacity:1;fill-rule:nonzero;stroke:none" />
    <path
       style="fill:#000000;fill-opacity:1;fill-rule:nonzero;stroke:none"
       id="path3891"
       d="m 471.56571,309.75816 c 1.67363,1.52651 2.79759,3.46095 3.6624,5.5273 1.13166,2.7747 -0.66881,4.15743 -3.23559,4.47401 -2.38148,-0.11174 -4.00981,-1.41167 -5.11921,-3.44108 -0.50262,-1.37654 -0.40487,-0.83642 -1.28592,-2.17198 -1.17231,-1.74047 -0.0771,-3.43316 1.03778,-4.75486 1.37501,-1.35457 3.13165,-1.80963 4.98551,-2.043 1.83771,-0.32951 3.25974,0.40792 4.52257,1.65475 0.89691,1.25094 1.05163,2.7709 1.12193,4.26064 -0.285,2.06552 -1.3222,3.4792 -3.12298,4.47343 -2.32665,1.01407 -4.36747,0.261 -6.12108,-1.38581 -1.43299,-1.70884 -1.70812,-3.89345 -1.87511,-6.03543 -0.28952,-2.48466 0.38503,-4.21769 2.66459,-5.36339 2.48429,-0.85474 4.53336,-0.44969 6.46408,1.32396 1.46445,1.80614 1.94998,3.97674 1.78026,6.24224 -0.76239,2.59978 -2.76396,3.65715 -5.23042,4.25457 -1.58693,0.40535 -2.82675,0.29521 -4.33877,-0.25005 -1.28238,-1.08226 -1.35723,-2.65221 -1.3927,-4.20034 0.15999,-1.33005 0.83237,-2.28391 1.84839,-3.08443 2.3572,-1.78355 4.87953,1.55003 2.52233,3.33359 l 0,0 c -0.24291,0.13027 -0.16089,-0.0173 -0.19139,-0.33965 0.0169,0.8429 0.46852,1.73062 -0.48006,0.80447 -2.10841,-0.4082 0.48555,-0.0604 1.07161,-0.33203 0.71266,-0.16169 1.50617,-0.27524 2.04725,-0.73771 0.39433,-0.7774 -0.2988,-2.11454 -0.66911,-2.81347 -0.26646,-0.84888 -1.18232,-0.41561 -1.87726,-0.32051 0.23236,-1.13633 -0.36917,0.7591 -0.0506,1.16503 0.087,1.17456 0.11668,2.47709 0.76049,3.49823 0.20281,0.64223 0.76227,0.6428 1.26958,0.46681 0.68302,-0.23293 0.68407,-1.28323 0.74487,-0.5104 -0.0257,-0.60044 -0.0794,-1.21026 -0.17315,-1.7927 0.68742,0.26669 -0.19459,-0.11103 -0.16734,-0.16522 0.0393,-0.0782 0.33871,-0.0393 0.25476,-0.0643 -0.28051,-0.0835 -0.59901,0.16229 -0.87544,0.0671 -0.80591,0.0945 -1.5994,0.19343 -2.31082,0.60464 -0.16835,0.19464 -0.26455,0.65641 -0.51014,0.5795 -0.13904,-0.0435 -0.66454,-1.71258 -0.21871,-0.83533 0.53986,0.82092 1.20345,1.58652 1.49976,2.53522 0.31469,0.67368 0.52873,0.71758 1.06814,1.13259 0.0403,0.031 -0.0815,0.0606 -0.12233,0.0909 0.86666,-0.0809 0.28796,0.0366 -0.0582,0.72706 -0.16888,0.33689 0.26434,1.69219 -0.0984,0.55575 -0.64456,-1.56911 -1.46883,-3.03365 -2.75752,-4.17424 -2.09015,-2.09015 0.86577,-5.04607 2.95592,-2.95592 z"
       inkscape:connector-curvature="0" />
    <path
       inkscape:connector-curvature="0"
       d="m 571.89306,333.44656 c 1.67363,1.52651 2.79759,3.46095 3.6624,5.5273 1.13166,2.7747 -0.66881,4.15743 -3.23559,4.47401 -2.38148,-0.11174 -4.00981,-1.41167 -5.11921,-3.44108 -0.50262,-1.37654 -0.40487,-0.83642 -1.28592,-2.17198 -1.17231,-1.74047 -0.0771,-3.43316 1.03778,-4.75486 1.37501,-1.35457 3.13165,-1.80963 4.98551,-2.043 1.83771,-0.32951 3.25974,0.40792 4.52257,1.65475 0.89691,1.25094 1.05163,2.7709 1.12193,4.26064 -0.285,2.06552 -1.3222,3.4792 -3.12298,4.47343 -2.32665,1.01407 -4.36747,0.261 -6.12108,-1.38581 -1.43299,-1.70884 -1.70812,-3.89345 -1.87511,-6.03543 -0.28952,-2.48466 0.38503,-4.21769 2.66459,-5.36339 2.48429,-0.85474 4.53336,-0.44969 6.46408,1.32396 1.46445,1.80614 1.94998,3.97674 1.78026,6.24224 -0.76239,2.59978 -2.76396,3.65715 -5.23042,4.25457 -1.58693,0.40535 -2.82675,0.29521 -4.33877,-0.25005 -1.28238,-1.08226 -1.35723,-2.65221 -1.3927,-4.20034 0.15999,-1.33005 0.83237,-2.28391 1.84839,-3.08443 2.3572,-1.78355 4.87953,1.55003 2.52233,3.33359 l 0,0 c -0.24291,0.13027 -0.16089,-0.0173 -0.19139,-0.33965 0.0169,0.8429 0.46852,1.73062 -0.48006,0.80447 -2.10841,-0.4082 0.48555,-0.0604 1.07161,-0.33203 0.71266,-0.16169 1.50617,-0.27524 2.04725,-0.73771 0.39433,-0.7774 -0.2988,-2.11454 -0.66911,-2.81347 -0.26646,-0.84888 -1.18232,-0.41561 -1.87726,-0.32051 0.23236,-1.13633 -0.36917,0.7591 -0.0506,1.16503 0.087,1.17456 0.11668,2.47709 0.76049,3.49823 0.20281,0.64223 0.76227,0.6428 1.26958,0.46681 0.68302,-0.23293 0.68407,-1.28323 0.74487,-0.5104 -0.0257,-0.60044 -0.0794,-1.21026 -0.17315,-1.7927 0.68742,0.26669 -0.19459,-0.11103 -0.16734,-0.16522 0.0393,-0.0782 0.33871,-0.0393 0.25476,-0.0643 -0.28051,-0.0835 -0.59901,0.16229 -0.87544,0.0671 -0.80591,0.0945 -1.5994,0.19343 -2.31082,0.60464 -0.16835,0.19464 -0.26455,0.65641 -0.51014,0.5795 -0.13904,-0.0435 -0.66454,-1.71258 -0.21871,-0.83533 0.53986,0.82092 1.20345,1.58652 1.49976,2.53522 0.31469,0.67368 0.52873,0.71758 1.06814,1.13259 0.0403,0.031 -0.0815,0.0606 -0.12233,0.0909 0.86666,-0.0809 0.28796,0.0366 -0.0582,0.72706 -0.16888,0.33689 0.26434,1.69219 -0.0984,0.55575 -0.64456,-1.56911 -1.46883,-3.03365 -2.75752,-4.17424 -2.09015,-2.09015 0.86577,-5.04607 2.95592,-2.95592 z"
       id="path3893"
       style="fill:#000000;fill-opacity:1;fill-rule:nonzero;stroke:none" />
    <path
       style="fill:#000000;fill-opacity:1;fill-rule:nonzero;stroke:none"
       id="path3895"
       d="m 495.25412,446.31482 c 1.67363,1.52651 2.79759,3.46095 3.6624,5.5273 1.13166,2.7747 -0.66881,4.15743 -3.23559,4.47401 -2.38148,-0.11174 -4.00981,-1.41167 -5.11921,-3.44108 -0.50262,-1.37654 -0.40487,-0.83642 -1.28592,-2.17198 -1.17231,-1.74047 -0.0771,-3.43316 1.03778,-4.75486 1.37501,-1.35457 3.13165,-1.80963 4.98551,-2.043 1.83771,-0.32951 3.25974,0.40792 4.52257,1.65475 0.89691,1.25094 1.05163,2.7709 1.12193,4.26064 -0.285,2.06552 -1.3222,3.4792 -3.12298,4.47343 -2.32665,1.01407 -4.36747,0.261 -6.12108,-1.38581 -1.43299,-1.70884 -1.70812,-3.89345 -1.87511,-6.03543 -0.28952,-2.48466 0.38503,-4.21769 2.66459,-5.36339 2.48429,-0.85474 4.53336,-0.44969 6.46408,1.32396 1.46445,1.80614 1.94998,3.97674 1.78026,6.24224 -0.76239,2.59978 -2.76396,3.65715 -5.23042,4.25457 -1.58693,0.40535 -2.82675,0.29521 -4.33877,-0.25005 -1.28238,-1.08226 -1.35723,-2.65221 -1.3927,-4.20034 0.15999,-1.33005 0.83237,-2.28391 1.84839,-3.08443 2.3572,-1.78355 4.87953,1.55003 2.52233,3.33359 l 0,0 c -0.24291,0.13027 -0.16089,-0.0173 -0.19139,-0.33965 0.0169,0.8429 0.46852,1.73062 -0.48006,0.80447 -2.10841,-0.4082 0.48555,-0.0604 1.07161,-0.33203 0.71266,-0.16169 1.50617,-0.27524 2.04725,-0.73771 0.39433,-0.7774 -0.2988,-2.11454 -0.66911,-2.81347 -0.26646,-0.84888 -1.18232,-0.41561 -1.87726,-0.32051 0.23236,-1.13633 -0.36917,0.7591 -0.0506,1.16503 0.087,1.17456 0.11668,2.47709 0.76049,3.49823 0.20281,0.64223 0.76227,0.6428 1.26958,0.46681 0.68302,-0.23293 0.68407,-1.28323 0.74487,-0.5104 -0.0257,-0.60044 -0.0794,-1.21026 -0.17315,-1.7927 0.68742,0.26669 -0.19459,-0.11103 -0.16734,-0.16522 0.0393,-0.0782 0.33871,-0.0393 0.25476,-0.0643 -0.28051,-0.0835 -0.59901,0.16229 -0.87544,0.0671 -0.80591,0.0945 -1.5994,0.19343 -2.31082,0.60464 -0.16835,0.19464 -0.26455,0.65641 -0.51014,0.5795 -0.13904,-0.0435 -0.66454,-1.71258 -0.21871,-0.83533 0.53986,0.82092 1.20345,1.58652 1.49976,2.53522 0.31469,0.67368 0.52873,0.71758 1.06814,1.13259 0.0403,0.031 -0.0815,0.0606 -0.12233,0.0909 0.86666,-0.0809 0.28796,0.0366 -0.0582,0.72706 -0.16888,0.33689 0.26434,1.69219 -0.0984,0.55575 -0.64456,-1.56911 -1.46883,-3.03365 -2.75752,-4.17424 -2.09015,-2.09015 0.86577,-5.04607 2.95592,-2.95592 z"
       inkscape:connector-curvature="0" />
    <path
       style="fill:none;stroke:#000000;stroke-width:1px;stroke-linecap:butt;stroke-linejoin:miter;stroke-opacity:1"
       d="m 496.06299,330.24418 0,119.83544"
       id="path3897"
       inkscape:connector-curvature="0" />
    <path
       style="fill:none;stroke:#000000;stroke-width:1px;stroke-linecap:butt;stroke-linejoin:miter;stroke-opacity:1"
       d="m 472.37459,313.52296 22.29496,136.55666"
       id="path3899"
       inkscape:connector-curvature="0" />
    <path
       inkscape:connector-curvature="0"
       id="path3901"
       d="M 572.38174,335.63584 495.27112,450.52161"
       style="fill:none;stroke:#000000;stroke-width:1px;stroke-linecap:butt;stroke-linejoin:miter;stroke-opacity:1"
       inkscape:transform-center-x="-39.00453"
       inkscape:transform-center-y="-57.988965" />
    <path
       style="fill:none;stroke:#000000;stroke-width:1px;stroke-linecap:butt;stroke-linejoin:miter;stroke-opacity:1"
       d="m 515.57108,339.99823 -19.50809,108.68796 43.19649,-104.50766 -1.39343,-1.39343"
       id="path3903"
       inkscape:connector-curvature="0"
       sodipodi:nodetypes="cccc" />
    <path
       style="fill:#000000;fill-opacity:1;fill-rule:nonzero;stroke:none"
       id="path3915"
       d="m 526.01238,344.83878 c -0.5721,1.74726 -0.79169,3.57826 -1.11437,5.38211 -0.2019,1.13686 -0.43393,2.26833 -0.69167,3.39379 -0.24268,1.04095 -0.0711,0.45784 -2.13289,0.40537 0.0793,0.13211 0.24976,0.24273 0.23784,0.39636 -4e-4,0.004 -0.2003,-0.0544 -0.81922,-0.2142 -0.83496,-0.21622 -1.67075,-0.42913 -2.50551,-0.64612 -1.24298,-0.32557 -2.48298,-0.66244 -3.72165,-1.00404 -0.14652,-0.04 -0.29276,-0.0809 -0.43899,-0.12188 -1.42276,-0.40017 -0.85737,-2.41205 0.56545,-2.01221 l 0,0 c 0.14296,0.0402 0.28601,0.08 0.42929,0.11909 1.22866,0.33893 2.45869,0.67305 3.69164,0.99604 0.79235,0.20596 3.09818,0.6142 3.71456,1.00429 0.28339,0.17937 0.51012,0.43554 0.76518,0.65332 -2.02406,0.25711 -2.03163,0.83934 -1.82308,-0.0428 0.25038,-1.09274 0.47551,-2.19138 0.67157,-3.29518 0.33536,-1.87395 0.56956,-3.7752 1.16286,-5.5908 0.40786,-1.42057 2.41685,-0.84376 2.00899,0.57681 z"
       inkscape:connector-curvature="0"
       inkscape:transform-center-x="-11.573631"
       inkscape:transform-center-y="3.0581311" />
    <path
       style="fill:#000000;fill-opacity:1;fill-rule:nonzero;stroke:none"
       id="path3931"
       d="m 355.74153,268.34846 c 2.21689,-1.81109 4.53304,-3.50556 6.90696,-5.10632 3.12176,-2.24826 5.2906,-0.72802 6.55408,2.4754 0.96978,3.23706 -0.16772,6.29944 -2.06488,8.92114 -1.6116,1.5896 -3.69213,2.57739 -5.58723,3.79414 -0.20308,0.12487 -0.68859,0.4553 -0.81443,0.54148 -0.30278,-1.25004 -0.60555,-2.50008 -0.90832,-3.75012 -0.0892,-0.0146 -0.34009,0.0103 -0.26763,-0.0437 0.81836,-0.61009 2.47356,-0.74251 3.44932,-0.93942 2.70277,-0.57074 5.07068,0.66063 7.15269,2.26087 1.88456,1.76027 2.31912,4.20918 2.54898,6.6579 0.15583,3.02008 0.45833,4.15566 -2.77785,5.55063 -2.91558,0.57895 -5.87002,0.54377 -8.78587,0.0348 -1.06607,-0.20949 -2.11328,-0.49801 -3.14354,-0.84016 -2.80339,-0.93727 -1.4779,-4.90186 1.32549,-3.9646 l 0,0 c 0.83548,0.28185 1.68697,0.51312 2.55136,0.68927 2.26675,0.4142 4.53888,0.42813 6.82398,0.085 0.0889,0.45784 0.003,-0.14905 -0.15271,0.70871 -0.0133,0.0731 0.0439,0.29013 0.0533,0.21643 0.0881,-0.68846 -0.0902,-1.41007 -0.0571,-2.09924 -0.11226,-1.2686 -0.18692,-2.6845 -0.96022,-3.745 -1.09953,-0.88124 -2.303,-1.77552 -3.76675,-1.45388 -0.40702,0.0785 -3.91558,1.21885 -4.04059,1.06244 -0.84791,-1.06086 -1.04977,-2.50509 -1.57466,-3.75763 0.35311,-0.25701 0.7201,-0.49403 1.08641,-0.73172 1.49261,-0.95785 3.05383,-1.81462 4.51496,-2.80276 1.13775,-1.37233 1.90602,-3.19405 1.46073,-4.98236 -0.0661,-0.24182 -0.35224,-0.62992 -0.12759,-0.7412 0.74775,-0.37039 1.31055,-0.24134 -0.15644,0.32061 -2.15453,1.44979 -4.23996,2.99895 -6.28655,4.59521 -2.09015,2.09016 -5.04607,-0.86577 -2.95592,-2.95592 z"
       inkscape:connector-curvature="0" />
    <path
       style="fill:#000000;fill-opacity:1;fill-rule:nonzero;stroke:none"
       id="path3933"
       d="m 461.64261,278.10251 c 2.07862,-2.24813 4.69262,-3.81642 7.55014,-4.84544 3.15009,-1.07721 4.96768,-0.70867 6.79634,2.22993 1.41,3.08603 0.90469,6.20266 -0.29643,9.24548 -1.15212,2.83748 -3.06635,5.30015 -5.17089,7.49691 -1.16207,0.8825 -2.26724,1.83857 -3.29675,2.8725 -0.79542,0.90278 -0.47748,-0.70471 -1.53678,-3.16606 1.2903,-0.10016 2.43382,0.037 3.60186,0.64187 1.4228,0.56499 3.01627,0.57149 4.52586,0.65322 2.52604,0.16159 5.06689,-0.0753 7.57303,0.29263 1.29468,0.35549 0.69538,0.15688 1.80464,0.57507 2.75515,1.0708 1.24081,4.96718 -1.51434,3.89638 l 0,0 c -0.60245,-0.24711 -0.27622,-0.12725 -0.98256,-0.34886 -2.30848,-0.48688 -4.77137,0.0697 -7.11027,-0.24122 -2.13451,-0.11897 -4.35155,-0.19965 -6.3057,-1.1615 -0.51604,-0.34316 0.16383,0.15977 0.1641,-0.13892 10e-6,-0.004 -1.46189,0.008 -1.66786,0.0107 -2.00895,-3.0844 -2.93684,-2.50514 -1.51118,-3.96595 1.01249,-1.01303 2.07041,-1.99658 3.24482,-2.81951 1.75075,-1.80659 3.3577,-3.83817 4.3137,-6.18189 0.78451,-1.81318 1.22949,-3.70451 0.51601,-5.62082 -0.40415,-1.1356 0.66607,-0.95039 -1.76509,-0.32488 -2.28502,0.76901 -4.33373,2.08042 -5.97673,3.85629 -2.09015,2.09015 -5.04607,-0.86577 -2.95592,-2.95592 z"
       inkscape:connector-curvature="0" />
    <path
       style="fill:#000000;fill-opacity:1;fill-rule:nonzero;stroke:none"
       id="path3935"
       d="m 495.64748,295.99286 c -1.55833,1.79049 -2.1915,4.05214 -2.63881,6.32869 -0.39216,2.38279 -0.60014,4.7819 0.23472,7.08457 0.52916,1.46035 1.32767,2.46462 2.7293,3.06345 0.83701,0.14367 2.26388,0.7993 2.71811,-0.23381 1.2636,-1.47002 1.65097,-3.38826 2.02555,-5.23563 -0.10051,-0.86476 -1.19942,-0.48265 -1.84315,-0.45863 -2.16274,0.33422 -3.89874,1.32869 -5.54391,2.71071 -0.53866,0.45538 -0.81164,0.63178 -0.79311,1.26947 0.0188,-0.14056 0.0377,-0.28113 0.0565,-0.42169 0.90822,2.81294 -3.06988,4.09735 -3.97809,1.28441 l 0,0 c -0.0779,-0.44009 -0.15574,-0.88018 -0.23361,-1.32028 0.2298,-1.64748 0.92722,-3.00017 2.27692,-4.0273 2.40787,-1.98381 5.06233,-3.36551 8.21759,-3.67562 3.63437,0.0747 6.12674,1.47544 5.93629,5.47691 -0.558,2.70641 -1.29334,5.40376 -3.26743,7.4525 -2.42005,1.96998 -4.45199,1.9725 -7.3135,0.97909 -2.44138,-1.16087 -4.0429,-2.98383 -4.95587,-5.5495 -0.95015,-3.03494 -0.96798,-6.10058 -0.36454,-9.22304 0.63216,-3.08479 1.6008,-6.09279 3.7811,-8.46022 2.09015,-2.09016 5.04608,0.86577 2.95592,2.95592 z"
       inkscape:connector-curvature="0" />
    <path
       style="fill:#000000;fill-opacity:1;fill-rule:nonzero;stroke:none"
       id="path3937"
       d="m 522.75804,309.81028 c -2.09499,-0.48719 -4.22065,-0.80396 -6.35909,-1.01806 -0.73801,-0.0668 -1.4769,-0.1286 -2.21752,-0.15646 2.6836,-3.01877 2.17381,-1.84926 2.1567,0.24742 -0.18314,1.27496 0.33009,2.33258 0.69102,3.53193 0.32765,0.9375 0.52306,1.89469 0.60623,2.88241 0.0278,0.35484 0.0382,0.71049 0.0318,1.0662 0.28631,1.13188 -4.16175,-2.12661 -0.89345,-2.14135 -1.72791,0.22231 2.26556,-1.06294 2.31956,-1.07723 2.03063,-0.52902 3.68935,0.11324 5.19146,1.49168 1.26002,1.48273 1.56552,3.30079 1.71003,5.17458 0.17179,1.27676 -0.003,2.05876 -0.44973,3.27392 -1.30419,1.4601 -3.08274,1.86868 -4.94039,2.13003 -1.22364,0.13027 -2.45429,0.15952 -3.68375,0.16393 -0.75205,-8.3e-4 -0.38031,-4e-5 -1.11523,-0.002 -2.95591,-0.009 -2.94278,-4.18957 0.0131,-4.18028 l 0,0 c 0.7202,0.002 0.35764,10e-4 1.08768,0.002 1.04362,-0.003 2.08789,-0.0257 3.12756,-0.12483 0.53084,-0.0711 1.03112,-0.15066 1.54803,-0.28936 0.19634,-0.0527 0.42099,-0.35892 0.56899,-0.21955 0.0751,0.0707 -0.0898,0.18576 -0.13462,0.27864 -0.35839,1.87847 -0.0409,-0.26653 -0.19033,-0.72062 -0.0603,-0.83881 -0.13276,-1.67915 -0.43215,-2.46681 -0.61098,-0.65429 -0.26252,-0.61412 -1.2546,-0.46402 -1.16554,0.28974 -2.14666,1.00173 -3.34702,1.21018 -1.84678,0.008 -0.74817,-0.0115 -3.28896,-2.35606 -0.009,-0.009 -0.0114,0.13787 -0.0138,0.16656 -10e-4,-0.13363 -0.004,-0.40895 -0.0206,-0.57511 -0.0545,-0.69795 -0.20148,-1.35579 -0.44289,-2.01865 -0.47017,-1.56347 -1.07033,-3.10679 -0.86809,-4.77298 0.0141,-1.48189 -0.15394,-4.36787 2.14749,-4.3891 0.83903,0.0261 1.67569,0.10308 2.51162,0.17559 2.33894,0.23602 4.66428,0.58449 6.95482,1.12191 2.86767,0.71691 1.8538,4.77241 -1.01387,4.05549 z"
       inkscape:connector-curvature="0" />
    <path
       style="fill:#000000;fill-opacity:1;fill-rule:nonzero;stroke:none"
       id="path3939"
       d="m 538.66704,309.50243 c 0.59039,2.56296 0.90633,5.17448 1.12517,7.79174 0.0943,1.40322 0.15543,2.80892 0.17309,4.21524 0.37872,1.85312 -3.41926,-1.64815 -1.37215,-1.71621 1.1516,-0.26237 2.71265,0.4099 3.77719,-0.11679 0.88087,-0.38242 1.79549,-0.68817 2.70258,-1.00388 0.1917,-0.0676 0.3844,-0.13207 0.57794,-0.19404 2.83191,-0.84723 4.03007,3.15769 1.19816,4.00492 l 0,0 c -0.13417,0.0454 -0.26832,0.0909 -0.40218,0.1372 -1.04497,0.3636 -2.0829,0.74642 -3.12223,1.12573 -1.52943,0.28407 -3.05456,0.22619 -4.60796,0.22534 -1.31829,0.0316 -3.05128,-1.15373 -2.93134,-2.41072 -0.0158,-1.30765 -0.0735,-2.61469 -0.15896,-3.91957 -0.19876,-2.3928 -0.48239,-4.78036 -1.0148,-7.12509 -0.71692,-2.86766 3.33858,-3.88154 4.05549,-1.01387 z"
       inkscape:connector-curvature="0" />
    <path
       style="fill:#000000;fill-opacity:1;fill-rule:nonzero;stroke:none"
       id="path3941"
       d="m 547.03608,310.46806 c 1.49124,3.13662 1.96766,6.59376 2.34797,10.00884 0.24191,2.60193 0.32272,5.2155 0.34464,7.82748 0.004,0.92537 -0.004,1.85074 -0.0125,2.77606 -0.002,0.19861 -0.004,0.39722 -0.006,0.59582 -8e-5,0.005 -1.6e-4,0.0103 -2.4e-4,0.0154 -0.0497,2.9555 -4.22946,2.88516 -4.17972,-0.0703 l 0,0 c 2e-5,-6.5e-4 3e-5,-10e-4 4e-5,-0.002 0.002,-0.19187 0.004,-0.38375 0.006,-0.57563 0.008,-0.90152 0.0163,-1.80308 0.0124,-2.70464 -0.0203,-2.47015 -0.095,-4.94181 -0.31945,-7.40281 -0.3208,-2.92453 -0.68636,-5.89896 -1.93197,-8.59874 -1.32193,-2.64386 2.41705,-4.51335 3.73898,-1.86949 z"
       inkscape:connector-curvature="0" />
    <path
       style="fill:#000000;fill-opacity:1;fill-rule:nonzero;stroke:none"
       id="path3945"
       d="m 569.32262,303.92869 c 0.75525,3.3709 0.95796,6.83365 1.12981,10.27405 0.11069,2.62975 0.15543,5.26165 0.16858,7.89352 -5.9e-4,0.4454 0.005,0.89099 -0.008,1.33624 -0.13374,2.9529 -4.30976,2.76377 -4.17603,-0.18913 l 0,0 c 0.003,-0.27432 0.008,-0.80164 0.004,-1.12632 -0.0127,-2.56952 -0.0562,-5.13907 -0.16347,-7.70655 -0.15706,-3.16893 -0.33332,-6.35945 -1.01016,-9.46794 -0.71692,-2.86766 3.33857,-3.88154 4.05549,-1.01387 z"
       inkscape:connector-curvature="0" />
    <path
       style="fill:#000000;fill-opacity:1;fill-rule:nonzero;stroke:none"
       id="path3963"
       d="m 462.54065,320.19391 c -1.47106,0.19196 -2.80191,0.67753 -4.07028,1.43847 -1.68913,0.97146 -2.39293,2.47986 -3.00188,4.25059 -0.3893,1.58886 -0.76984,3.24731 -0.65376,4.8978 0.0688,0.97907 0.3371,1.86236 0.57318,2.81042 1.10619,4.17384 3.21845,7.95161 5.28661,11.70582 2.36548,4.19471 4.87651,8.30014 6.88098,12.6838 1.55352,3.80812 2.23067,6.8871 1.70687,10.97299 -0.6996,2.94768 -2.33787,5.40002 -4.38592,7.57036 -1.22346,1.2075 -2.56893,2.27961 -3.82758,3.45102 -0.14447,0.13762 -0.28833,0.27589 -0.4327,0.41362 0.32786,-1.32124 0.24855,-0.1732 0.2556,0.19534 0.003,0.16363 0.005,0.32727 0.007,0.49092 -0.021,0.23979 0.0948,0.64543 -0.11336,-0.26456 -0.71535,-0.75147 2.25261,0.73726 2.26462,0.74348 1.72759,0.97307 2.91289,2.49845 3.77799,4.24605 0.9963,2.63532 1.02688,5.45531 0.74551,8.21982 -0.68375,3.74805 -1.48773,7.46277 -1.96163,11.24551 -0.48483,4.16212 -0.51633,8.34393 -0.33771,12.52334 0.29107,4.47795 1.18458,8.89459 2.57247,13.15579 1.1162,3.69717 3.23179,6.887 5.57419,9.90568 1.66671,2.00903 3.54964,3.73354 5.96739,4.74772 0.91753,0.32352 1.8251,0.60016 2.78623,0.3697 1.45544,-0.25702 1.81892,1.80128 0.36348,2.0583 l 0,0 c -1.38844,0.20276 -2.65852,0.0329 -3.97041,-0.50571 -2.73512,-1.18443 -4.91757,-3.08257 -6.7987,-5.38954 -2.48663,-3.21154 -4.72067,-6.61381 -5.91036,-10.54127 -1.43597,-4.4444 -2.38009,-9.04251 -2.67254,-13.71165 -0.18268,-4.29605 -0.14783,-8.59489 0.3521,-12.87282 0.47434,-3.76795 1.25647,-7.47209 1.95667,-11.20238 0.25598,-2.37717 0.24696,-4.80789 -0.54904,-7.09393 -0.63214,-1.35688 -1.55835,-2.53827 -2.86737,-3.30407 -0.98123,-0.52502 -2.10498,-0.70385 -2.98995,-1.37388 -0.15432,-0.40079 -0.30222,-0.59943 -0.27965,-0.93674 -0.002,-0.15662 -0.004,-0.31324 -0.007,-0.46984 -0.0108,-0.56865 -0.0638,-0.96966 0.19896,-1.53713 0.19582,-0.23187 0.42755,-0.43023 0.6441,-0.64194 1.22678,-1.14127 2.53358,-2.19048 3.73389,-3.35817 1.75167,-1.84169 3.17703,-3.91251 3.83145,-6.4081 0.49804,-3.60555 -0.1682,-6.46649 -1.53615,-9.82958 -1.97866,-4.33778 -4.47752,-8.39109 -6.81051,-12.54367 -2.15629,-3.91495 -4.34355,-7.86058 -5.48571,-12.21593 -0.30898,-1.27456 -0.55427,-2.0326 -0.63317,-3.34352 -0.11277,-1.8736 0.30806,-3.75315 0.77039,-5.55229 0.7854,-2.21968 1.79874,-4.14785 3.91422,-5.36224 1.44574,-0.83963 2.95528,-1.45117 4.62424,-1.66533 1.43384,-0.35845 1.94077,1.66929 0.50694,2.02775 z"
       inkscape:connector-curvature="0" />
    <path
       style="fill:#000000;fill-opacity:1;fill-rule:nonzero;stroke:none"
       id="path3967"
       d="m 438.63845,393.95284 c 1.56751,-1.76054 2.24543,-4.04571 2.88652,-6.26233 0.94553,-3.22732 1.47045,-6.54875 1.77691,-9.89111 0.14989,-1.80301 0.17868,-3.61248 0.17949,-5.4207 0.0697,-0.70689 -0.0104,-1.26696 -0.2608,-1.90438 -0.10592,-0.40437 -0.26153,-0.6691 -0.55101,-0.9527 -0.24309,-0.21383 -0.26524,-0.16806 0.20113,0.0762 -0.43167,0.0461 0.15907,-0.10686 0.24329,-0.0609 0.10852,0.0592 -0.051,0.242 -0.083,0.3614 -0.29663,2.02176 -0.26832,4.08178 -0.18057,6.1177 0.19758,3.98097 0.76481,7.94974 1.70429,11.82254 0.60227,2.10692 1.31524,4.37405 3.21555,5.64825 0.64116,0.28034 0.33657,0.20758 0.89838,0.27488 1.44854,0.29342 1.03359,2.34197 -0.41495,2.04855 l 0,0 c -1.15361,-0.2755 -0.58725,-0.074 -1.69369,-0.61931 -2.26886,-1.66974 -3.34857,-4.17968 -4.03696,-6.86142 -0.96468,-4.00669 -1.56177,-8.10789 -1.76094,-12.22585 -0.0932,-2.27774 -0.1449,-4.59931 0.28029,-6.84894 0.31574,-0.90439 0.80856,-1.82927 1.92436,-1.74479 0.47974,0.0288 0.86673,0.19904 1.18851,0.54162 0.46694,0.4791 0.81822,1.01981 1.01258,1.66342 0.33775,0.87114 0.47853,1.72779 0.40365,2.66483 -0.001,1.87178 -0.032,3.74484 -0.18828,5.61115 -0.32069,3.47501 -0.86784,6.92824 -1.85138,10.28367 -0.77263,2.64001 -1.62263,5.37203 -3.63933,7.35042 -1.18237,0.88677 -2.43646,-0.78535 -1.25409,-1.67213 z"
       inkscape:connector-curvature="0" />
    <path
       style="fill:#000000;fill-opacity:1;fill-rule:nonzero;stroke:none"
       id="path3969"
       d="m 453.79703,390.74873 c -0.28109,1.299 -0.48062,2.66007 -0.1327,3.96267 0.55683,0.7192 0.24939,0.4159 0.28507,-0.0488 0.38517,-0.76746 0.47687,-1.51801 -0.0428,-2.24298 -0.1157,-0.1298 -0.95112,-0.56329 -0.93093,-0.34706 -0.0289,0.0305 0.004,0.0346 0.004,0.0387 -1.09451,0.99319 -2.49908,-0.55469 -1.40457,-1.54787 l 0,0 c 0.25532,-0.21649 0.51503,-0.40362 0.84141,-0.50488 1.33003,-0.28393 2.45489,0.28847 3.30272,1.32095 0.81676,1.55525 0.82012,3.08608 -0.14333,4.59547 -0.23253,0.23899 -0.42231,0.52879 -0.69757,0.71696 -1.42137,0.97166 -2.76029,-0.18467 -3.24897,-1.50198 -0.35686,-1.64646 -0.26346,-3.31273 0.13959,-4.94812 0.35846,-1.43383 2.3862,-0.9269 2.02775,0.50694 z"
       inkscape:connector-curvature="0" />
    <path
       style="fill:#000000;fill-opacity:1;fill-rule:nonzero;stroke:none"
       id="path4009"
       d="m 263.01525,456.09557 c -2.59398,3.29152 -4.67748,6.92196 -6.65794,10.60137 -1.27579,2.63344 -0.63209,1.32314 -1.9309,3.93098 -1.31791,2.64587 -5.05973,0.78207 -3.74182,-1.8638 l 0,0 c 1.30614,-2.6219 0.64151,-1.27267 1.99187,-4.04868 2.06773,-3.8405 4.24909,-7.62735 6.94998,-11.06751 1.73075,-2.39625 5.11955,0.0514 3.38881,2.44764 z"
       inkscape:connector-curvature="0" />
    <path
       inkscape:connector-curvature="0"
       d="m 275.55415,455.87005 c -2.59398,3.29152 -4.67748,6.92196 -6.65795,10.60137 -1.27579,2.63344 -0.63209,1.32314 -1.9309,3.93098 -1.31791,2.64587 -5.05973,0.78207 -3.74181,-1.8638 l 0,0 c 1.30613,-2.6219 0.6415,-1.27267 1.99186,-4.04868 2.06773,-3.8405 4.24909,-7.62735 6.94998,-11.06751 1.73075,-2.39625 5.11955,0.0514 3.38882,2.44764 z"
       id="path4033"
       style="fill:#000000;fill-opacity:1;fill-rule:nonzero;stroke:none" />
    <path
       inkscape:connector-curvature="0"
       d="m 288.10557,456.34114 c -2.59398,3.29152 -4.67748,6.92196 -6.65795,10.60137 -1.27579,2.63344 -0.63209,1.32314 -1.9309,3.93098 -1.3179,2.64587 -5.05973,0.78206 -3.74181,-1.8638 l 0,0 c 1.30613,-2.62191 0.64151,-1.27268 1.99186,-4.04868 2.06774,-3.8405 4.24909,-7.62735 6.94998,-11.06751 1.73075,-2.39625 5.11956,0.0514 3.38882,2.44764 z"
       id="path4035"
       style="fill:#000000;fill-opacity:1;fill-rule:nonzero;stroke:none" />
    <path
       style="fill:#000000;fill-opacity:1;fill-rule:nonzero;stroke:none"
       id="path4037"
       d="m 300.64446,456.11562 c -2.59398,3.29152 -4.67748,6.92196 -6.65795,10.60137 -1.27579,2.63344 -0.63208,1.32314 -1.9309,3.93098 -1.3179,2.64587 -5.05972,0.78206 -3.74181,-1.8638 l 0,0 c 1.30613,-2.62191 0.64151,-1.27268 1.99187,-4.04868 2.06773,-3.8405 4.24908,-7.62735 6.94998,-11.06751 1.73074,-2.39625 5.11955,0.0514 3.38881,2.44764 z"
       inkscape:connector-curvature="0" />
    <path
       inkscape:connector-curvature="0"
       d="m 313.18334,455.8901 c -2.59398,3.29152 -4.67748,6.92196 -6.65794,10.60137 -1.27579,2.63344 -0.63209,1.32314 -1.93091,3.93098 -1.3179,2.64587 -5.05972,0.78206 -3.74181,-1.8638 l 0,0 c 1.30613,-2.62191 0.64151,-1.27268 1.99187,-4.04868 2.06773,-3.8405 4.24908,-7.62735 6.94998,-11.06751 1.73075,-2.39625 5.11955,0.0514 3.38881,2.44764 z"
       id="path4039"
       style="fill:#000000;fill-opacity:1;fill-rule:nonzero;stroke:none" />
    <path
       style="fill:#000000;fill-opacity:1;fill-rule:nonzero;stroke:none"
       id="path4041"
       d="m 325.72223,455.66458 c -2.59398,3.29152 -4.67748,6.92196 -6.65794,10.60137 -1.27579,2.63344 -0.63209,1.32314 -1.9309,3.93098 -1.31791,2.64587 -5.05973,0.78206 -3.74182,-1.8638 l 0,0 c 1.30614,-2.62191 0.64151,-1.27268 1.99187,-4.04868 2.06773,-3.8405 4.24909,-7.62735 6.94998,-11.06751 1.73075,-2.39625 5.11955,0.0514 3.38881,2.44764 z"
       inkscape:connector-curvature="0" />
    <path
       style="fill:#000000;fill-opacity:1;fill-rule:nonzero;stroke:none"
       id="path4043"
       d="m 338.27365,456.13567 c -2.59397,3.29152 -4.67748,6.92196 -6.65794,10.60137 -1.27579,2.63344 -0.63209,1.32314 -1.9309,3.93098 -1.31791,2.64586 -5.05973,0.78206 -3.74181,-1.86381 l 0,0 c 1.30613,-2.6219 0.6415,-1.27267 1.99186,-4.04867 2.06773,-3.8405 4.24909,-7.62735 6.94998,-11.06751 1.73075,-2.39625 5.11955,0.0514 3.38881,2.44764 z"
       inkscape:connector-curvature="0" />
    <path
       inkscape:connector-curvature="0"
       d="m 350.81255,455.91015 c -2.59398,3.29152 -4.67748,6.92196 -6.65795,10.60137 -1.27579,2.63344 -0.63209,1.32314 -1.9309,3.93098 -1.3179,2.64586 -5.05973,0.78206 -3.74181,-1.86381 l 0,0 c 1.30613,-2.6219 0.6415,-1.27267 1.99186,-4.04867 2.06773,-3.8405 4.24909,-7.62735 6.94998,-11.06751 1.73075,-2.39625 5.11955,0.0514 3.38882,2.44764 z"
       id="path4045"
       style="fill:#000000;fill-opacity:1;fill-rule:nonzero;stroke:none" />
    <path
       inkscape:connector-curvature="0"
       d="m 364.04804,455.6721 c -2.59398,3.29152 -4.67749,6.92196 -6.65795,10.60137 -1.27579,2.63344 -0.63209,1.32314 -1.9309,3.93098 -1.31791,2.64587 -5.05973,0.78206 -3.74181,-1.8638 l 0,0 c 1.30613,-2.62191 0.6415,-1.27268 1.99186,-4.04868 2.06773,-3.8405 4.24909,-7.62735 6.94998,-11.06751 1.73075,-2.39625 5.11955,0.0514 3.38882,2.44764 z"
       id="path4047"
       style="fill:#000000;fill-opacity:1;fill-rule:nonzero;stroke:none" />
    <path
       style="fill:#000000;fill-opacity:1;fill-rule:nonzero;stroke:none"
       id="path4049"
       d="m 376.58693,455.44658 c -2.59398,3.29152 -4.67748,6.92196 -6.65795,10.60137 -1.27579,2.63344 -0.63209,1.32314 -1.9309,3.93098 -1.3179,2.64587 -5.05972,0.78206 -3.74181,-1.8638 l 0,0 c 1.30613,-2.62191 0.64151,-1.27268 1.99186,-4.04868 2.06774,-3.8405 4.24909,-7.62735 6.94998,-11.06751 1.73075,-2.39625 5.11956,0.0514 3.38882,2.44764 z"
       inkscape:connector-curvature="0" />
    <path
       style="fill:#000000;fill-opacity:1;fill-rule:nonzero;stroke:none"
       id="path4051"
       d="m 389.13835,455.91767 c -2.59398,3.29151 -4.67748,6.92196 -6.65795,10.60137 -1.27579,2.63344 -0.63208,1.32314 -1.9309,3.93098 -1.3179,2.64586 -5.05972,0.78206 -3.74181,-1.86381 l 0,0 c 1.30613,-2.6219 0.64151,-1.27267 1.99187,-4.04867 2.06773,-3.84051 4.24908,-7.62735 6.94998,-11.06751 1.73074,-2.39625 5.11955,0.0514 3.38881,2.44764 z"
       inkscape:connector-curvature="0" />
    <path
       inkscape:connector-curvature="0"
       d="m 401.67724,455.69215 c -2.59398,3.29151 -4.67748,6.92196 -6.65794,10.60137 -1.27579,2.63344 -0.63209,1.32314 -1.93091,3.93098 -1.3179,2.64586 -5.05972,0.78206 -3.74181,-1.86381 l 0,0 c 1.30613,-2.6219 0.64151,-1.27267 1.99187,-4.04867 2.06773,-3.84051 4.24908,-7.62735 6.94998,-11.06751 1.73075,-2.39625 5.11955,0.0514 3.38881,2.44764 z"
       id="path4053"
       style="fill:#000000;fill-opacity:1;fill-rule:nonzero;stroke:none" />
    <path
       style="fill:#000000;fill-opacity:1;fill-rule:nonzero;stroke:none"
       id="path4055"
       d="m 414.21612,455.46663 c -2.59398,3.29152 -4.67748,6.92196 -6.65794,10.60137 -1.27579,2.63344 -0.63209,1.32314 -1.9309,3.93098 -1.31791,2.64586 -5.05973,0.78206 -3.74182,-1.86381 l 0,0 c 1.30614,-2.6219 0.64151,-1.27267 1.99187,-4.04867 2.06773,-3.8405 4.24909,-7.62735 6.94998,-11.06751 1.73075,-2.39625 5.11955,0.0514 3.38881,2.44764 z"
       inkscape:connector-curvature="0" />
    <path
       inkscape:connector-curvature="0"
       d="m 426.75502,455.24111 c -2.59398,3.29152 -4.67749,6.92196 -6.65795,10.60137 -1.27579,2.63344 -0.63209,1.32314 -1.9309,3.93098 -1.31791,2.64586 -5.05973,0.78206 -3.74181,-1.86381 l 0,0 c 1.30613,-2.6219 0.6415,-1.27267 1.99186,-4.04867 2.06773,-3.8405 4.24909,-7.62735 6.94998,-11.06751 1.73075,-2.39625 5.11955,0.0514 3.38882,2.44764 z"
       id="path4057"
       style="fill:#000000;fill-opacity:1;fill-rule:nonzero;stroke:none" />
    <path
       inkscape:connector-curvature="0"
       d="m 439.30644,455.71219 c -2.59398,3.29152 -4.67748,6.92197 -6.65795,10.60138 -1.27579,2.63343 -0.63209,1.32314 -1.9309,3.93097 -1.3179,2.64587 -5.05973,0.78207 -3.74181,-1.8638 l 0,0 c 1.30613,-2.6219 0.6415,-1.27267 1.99186,-4.04867 2.06773,-3.84051 4.24909,-7.62736 6.94998,-11.06751 1.73075,-2.39625 5.11955,0.0514 3.38882,2.44763 z"
       id="path4059"
       style="fill:#000000;fill-opacity:1;fill-rule:nonzero;stroke:none" />
    <path
       style="fill:#000000;fill-opacity:1;fill-rule:nonzero;stroke:none"
       id="path4061"
       d="m 451.84533,455.48667 c -2.59398,3.29152 -4.67748,6.92197 -6.65795,10.60138 -1.27579,2.63343 -0.63209,1.32314 -1.9309,3.93097 -1.3179,2.64587 -5.05972,0.78207 -3.74181,-1.8638 l 0,0 c 1.30613,-2.6219 0.64151,-1.27267 1.99187,-4.04867 2.06773,-3.84051 4.24908,-7.62736 6.94998,-11.06751 1.73074,-2.39625 5.11955,0.0514 3.38881,2.44763 z"
       inkscape:connector-curvature="0" />
    <path
       inkscape:connector-curvature="0"
       d="m 464.37169,454.56454 c -2.59398,3.29152 -4.67748,6.92196 -6.65794,10.60137 -1.27579,2.63344 -0.63209,1.32314 -1.93091,3.93098 -1.3179,2.64586 -5.05972,0.78206 -3.74181,-1.86381 l 0,0 c 1.30613,-2.6219 0.64151,-1.27267 1.99187,-4.04867 2.06773,-3.8405 4.24908,-7.62735 6.94998,-11.06751 1.73075,-2.39625 5.11955,0.0514 3.38881,2.44764 z"
       id="path4063"
       style="fill:#000000;fill-opacity:1;fill-rule:nonzero;stroke:none" />
    <path
       style="fill:#000000;fill-opacity:1;fill-rule:nonzero;stroke:none"
       id="path4065"
       d="m 476.91058,454.33902 c -2.59398,3.29152 -4.67748,6.92196 -6.65794,10.60137 -1.27579,2.63344 -0.63209,1.32314 -1.9309,3.93098 -1.31791,2.64587 -5.05973,0.78206 -3.74182,-1.86381 l 0,0 c 1.30614,-2.6219 0.64151,-1.27267 1.99187,-4.04867 2.06773,-3.8405 4.24909,-7.62735 6.94998,-11.06751 1.73075,-2.39625 5.11955,0.0514 3.38881,2.44764 z"
       inkscape:connector-curvature="0" />
    <path
       style="fill:#000000;fill-opacity:1;fill-rule:nonzero;stroke:none"
       id="path4067"
       d="m 489.462,454.8101 c -2.59397,3.29152 -4.67748,6.92197 -6.65794,10.60138 -1.27579,2.63343 -0.63209,1.32314 -1.9309,3.93098 -1.31791,2.64586 -5.05973,0.78206 -3.74181,-1.86381 l 0,0 c 1.30613,-2.6219 0.6415,-1.27267 1.99186,-4.04867 2.06773,-3.84051 4.24909,-7.62736 6.94998,-11.06751 1.73075,-2.39625 5.11955,0.0514 3.38881,2.44763 z"
       inkscape:connector-curvature="0" />
    <path
       inkscape:connector-curvature="0"
       d="m 502.0009,454.58458 c -2.59398,3.29152 -4.67748,6.92197 -6.65795,10.60138 -1.27579,2.63344 -0.63209,1.32314 -1.9309,3.93098 -1.3179,2.64586 -5.05973,0.78206 -3.74181,-1.86381 l 0,0 c 1.30613,-2.6219 0.64151,-1.27267 1.99186,-4.04867 2.06774,-3.84051 4.24909,-7.62736 6.94998,-11.06751 1.73075,-2.39625 5.11956,0.0514 3.38882,2.44763 z"
       id="path4069"
       style="fill:#000000;fill-opacity:1;fill-rule:nonzero;stroke:none" />
    <path
       style="fill:#000000;fill-opacity:1;fill-rule:nonzero;stroke:none"
       id="path4071"
       d="m 514.53978,454.35907 c -2.59398,3.29151 -4.67748,6.92196 -6.65795,10.60137 -1.27579,2.63344 -0.63209,1.32314 -1.9309,3.93098 -1.3179,2.64586 -5.05972,0.78206 -3.74181,-1.86381 l 0,0 c 1.30613,-2.6219 0.64151,-1.27267 1.99187,-4.04867 2.06773,-3.84051 4.24908,-7.62735 6.94998,-11.06751 1.73074,-2.39625 5.11955,0.0514 3.38881,2.44764 z"
       inkscape:connector-curvature="0" />
    <path
       inkscape:connector-curvature="0"
       d="m 527.07867,454.13355 c -2.59398,3.29151 -4.67748,6.92196 -6.65794,10.60137 -1.27579,2.63344 -0.63209,1.32314 -1.93091,3.93098 -1.3179,2.64586 -5.05972,0.78206 -3.74181,-1.86381 l 0,0 c 1.30613,-2.6219 0.64151,-1.27267 1.99187,-4.04867 2.06773,-3.84051 4.24908,-7.62735 6.94998,-11.06751 1.73075,-2.39625 5.11955,0.0514 3.38881,2.44764 z"
       id="path4073"
       style="fill:#000000;fill-opacity:1;fill-rule:nonzero;stroke:none" />
    <path
       inkscape:connector-curvature="0"
       d="m 539.63009,454.60463 c -2.59398,3.29152 -4.67748,6.92197 -6.65794,10.60138 -1.27579,2.63343 -0.63209,1.32314 -1.93091,3.93097 -1.3179,2.64587 -5.05972,0.78207 -3.74181,-1.8638 l 0,0 c 1.30613,-2.6219 0.64151,-1.27267 1.99187,-4.04867 2.06773,-3.84051 4.24909,-7.62736 6.94998,-11.06751 1.73075,-2.39625 5.11955,0.0514 3.38881,2.44763 z"
       id="path4075"
       style="fill:#000000;fill-opacity:1;fill-rule:nonzero;stroke:none" />
    <path
       style="fill:#000000;fill-opacity:1;fill-rule:nonzero;stroke:none"
       id="path4077"
       d="m 552.16898,454.37911 c -2.59398,3.29152 -4.67748,6.92197 -6.65794,10.60138 -1.27579,2.63343 -0.63209,1.32314 -1.9309,3.93097 -1.31791,2.64587 -5.05973,0.78207 -3.74182,-1.8638 l 0,0 c 1.30614,-2.6219 0.64151,-1.27267 1.99187,-4.04867 2.06773,-3.84051 4.24909,-7.62736 6.94998,-11.06751 1.73075,-2.39625 5.11955,0.0514 3.38881,2.44763 z"
       inkscape:connector-curvature="0" />
    <path
       style="fill:#000000;fill-opacity:1;fill-rule:nonzero;stroke:none"
       id="path4079"
       d="m 565.40447,454.14106 c -2.59398,3.29152 -4.67748,6.92197 -6.65794,10.60138 -1.27579,2.63343 -0.63209,1.32314 -1.9309,3.93098 -1.31791,2.64586 -5.05973,0.78206 -3.74182,-1.86381 l 0,0 c 1.30614,-2.6219 0.64151,-1.27267 1.99187,-4.04867 2.06773,-3.84051 4.24909,-7.62736 6.94998,-11.06751 1.73075,-2.39625 5.11955,0.0514 3.38881,2.44763 z"
       inkscape:connector-curvature="0" />
    <path
       inkscape:connector-curvature="0"
       d="m 577.94337,453.91554 c -2.59398,3.29152 -4.67749,6.92197 -6.65795,10.60138 -1.27579,2.63343 -0.63209,1.32314 -1.9309,3.93098 -1.31791,2.64586 -5.05973,0.78206 -3.74181,-1.86381 l 0,0 c 1.30613,-2.6219 0.6415,-1.27267 1.99186,-4.04867 2.06773,-3.84051 4.24909,-7.62736 6.94998,-11.06751 1.73075,-2.39625 5.11955,0.0514 3.38882,2.44763 z"
       id="path4081"
       style="fill:#000000;fill-opacity:1;fill-rule:nonzero;stroke:none" />
    <path
       inkscape:connector-curvature="0"
       d="m 590.49479,454.38663 c -2.59398,3.29152 -4.67748,6.92197 -6.65795,10.60137 -1.27579,2.63344 -0.63209,1.32314 -1.9309,3.93098 -1.3179,2.64587 -5.05973,0.78207 -3.74181,-1.8638 l 0,0 c 1.30613,-2.6219 0.6415,-1.27267 1.99186,-4.04867 2.06773,-3.84051 4.24909,-7.62736 6.94998,-11.06751 1.73075,-2.39625 5.11956,0.0514 3.38882,2.44763 z"
       id="path4083"
       style="fill:#000000;fill-opacity:1;fill-rule:nonzero;stroke:none" />
    <path
       style="fill:#000000;fill-opacity:1;fill-rule:nonzero;stroke:none"
       id="path4085"
       d="m 603.03368,454.16111 c -2.59398,3.29152 -4.67748,6.92197 -6.65795,10.60137 -1.27579,2.63344 -0.63209,1.32315 -1.9309,3.93098 -1.3179,2.64587 -5.05972,0.78207 -3.74181,-1.8638 l 0,0 c 1.30613,-2.6219 0.64151,-1.27267 1.99187,-4.04867 2.06773,-3.84051 4.24908,-7.62736 6.94998,-11.06751 1.73074,-2.39625 5.11955,0.0514 3.38881,2.44763 z"
       inkscape:connector-curvature="0" />
    <path
       inkscape:connector-curvature="0"
       d="m 615.57256,453.93559 c -2.59398,3.29152 -4.67748,6.92197 -6.65794,10.60137 -1.27579,2.63344 -0.63209,1.32315 -1.93091,3.93098 -1.3179,2.64587 -5.05972,0.78207 -3.74181,-1.8638 l 0,0 c 1.30613,-2.6219 0.64151,-1.27267 1.99187,-4.04867 2.06773,-3.84051 4.24908,-7.62736 6.94998,-11.06751 1.73075,-2.39625 5.11955,0.0514 3.38881,2.44763 z"
       id="path4087"
       style="fill:#000000;fill-opacity:1;fill-rule:nonzero;stroke:none" />
    <path
       style="fill:#000000;fill-opacity:1;fill-rule:nonzero;stroke:none"
       id="path4089"
       d="m 628.11145,453.71007 c -2.59398,3.29152 -4.67748,6.92197 -6.65794,10.60138 -1.27579,2.63343 -0.63209,1.32314 -1.93091,3.93097 -1.3179,2.64587 -5.05972,0.78207 -3.74181,-1.8638 l 0,0 c 1.30614,-2.6219 0.64151,-1.27267 1.99187,-4.04867 2.06773,-3.84051 4.24909,-7.62736 6.94998,-11.06751 1.73075,-2.39625 5.11955,0.0514 3.38881,2.44763 z"
       inkscape:connector-curvature="0" />
    <path
       style="fill:#000000;fill-opacity:1;fill-rule:nonzero;stroke:none"
       id="path4091"
       d="m 640.66287,454.18116 c -2.59398,3.29152 -4.67748,6.92196 -6.65794,10.60137 -1.27579,2.63344 -0.63209,1.32314 -1.9309,3.93098 -1.31791,2.64587 -5.05973,0.78207 -3.74182,-1.8638 l 0,0 c 1.30614,-2.6219 0.64151,-1.27267 1.99187,-4.04868 2.06773,-3.8405 4.24909,-7.62735 6.94998,-11.06751 1.73075,-2.39625 5.11955,0.0514 3.38881,2.44764 z"
       inkscape:connector-curvature="0" />
    <path
       inkscape:connector-curvature="0"
       d="m 653.20177,453.95564 c -2.59398,3.29152 -4.67748,6.92196 -6.65795,10.60137 -1.27579,2.63344 -0.63209,1.32314 -1.9309,3.93098 -1.31791,2.64587 -5.05973,0.78207 -3.74181,-1.8638 l 0,0 c 1.30613,-2.6219 0.6415,-1.27267 1.99186,-4.04868 2.06773,-3.8405 4.24909,-7.62735 6.94998,-11.06751 1.73075,-2.39625 5.11955,0.0514 3.38882,2.44764 z"
       id="path4093"
       style="fill:#000000;fill-opacity:1;fill-rule:nonzero;stroke:none" />
    <path
       inkscape:connector-curvature="0"
       d="m 665.72107,453.6423 c -2.59398,3.29152 -4.67748,6.92196 -6.65794,10.60137 -1.27579,2.63344 -0.63209,1.32314 -1.9309,3.93098 -1.31791,2.64587 -5.05973,0.78206 -3.74182,-1.86381 l 0,0 c 1.30614,-2.6219 0.64151,-1.27267 1.99187,-4.04867 2.06773,-3.8405 4.24909,-7.62735 6.94998,-11.06751 1.73075,-2.39625 5.11955,0.0514 3.38881,2.44764 z"
       id="path4095"
       style="fill:#000000;fill-opacity:1;fill-rule:nonzero;stroke:none" />
    <path
       inkscape:connector-curvature="0"
       d="m 678.27249,454.11338 c -2.59397,3.29152 -4.67748,6.92197 -6.65794,10.60138 -1.27579,2.63343 -0.63209,1.32314 -1.9309,3.93098 -1.31791,2.64586 -5.05973,0.78206 -3.74181,-1.86381 l 0,0 c 1.30613,-2.6219 0.6415,-1.27267 1.99186,-4.04867 2.06773,-3.84051 4.24909,-7.62736 6.94998,-11.06751 1.73075,-2.39625 5.11955,0.0514 3.38881,2.44763 z"
       id="path4097"
       style="fill:#000000;fill-opacity:1;fill-rule:nonzero;stroke:none" />
    <path
       style="fill:#000000;fill-opacity:1;fill-rule:nonzero;stroke:none"
       id="path4099"
       d="m 690.81139,453.88786 c -2.59398,3.29152 -4.67748,6.92197 -6.65795,10.60138 -1.27579,2.63344 -0.63209,1.32314 -1.9309,3.93098 -1.3179,2.64586 -5.05973,0.78206 -3.74181,-1.86381 l 0,0 c 1.30613,-2.6219 0.64151,-1.27267 1.99186,-4.04867 2.06774,-3.84051 4.24909,-7.62736 6.94998,-11.06751 1.73075,-2.39625 5.11956,0.0514 3.38882,2.44763 z"
       inkscape:connector-curvature="0" />
    <path
       inkscape:connector-curvature="0"
       d="m 703.35027,453.66235 c -2.59398,3.29151 -4.67748,6.92196 -6.65795,10.60137 -1.27579,2.63344 -0.63209,1.32314 -1.9309,3.93098 -1.3179,2.64586 -5.05972,0.78206 -3.74181,-1.86381 l 0,0 c 1.30613,-2.6219 0.64151,-1.27267 1.99187,-4.04867 2.06773,-3.84051 4.24908,-7.62735 6.94998,-11.06751 1.73074,-2.39625 5.11955,0.0514 3.38881,2.44764 z"
       id="path4101"
       style="fill:#000000;fill-opacity:1;fill-rule:nonzero;stroke:none" />
    <path
       style="fill:#000000;fill-opacity:1;fill-rule:nonzero;stroke:none"
       id="path4103"
       d="m 715.88916,453.43683 c -2.59398,3.29151 -4.67748,6.92196 -6.65794,10.60137 -1.27579,2.63344 -0.63209,1.32314 -1.93091,3.93098 -1.3179,2.64586 -5.05972,0.78206 -3.74181,-1.86381 l 0,0 c 1.30613,-2.6219 0.64151,-1.27267 1.99187,-4.04867 2.06773,-3.84051 4.24908,-7.62735 6.94998,-11.06751 1.73075,-2.39625 5.11955,0.0514 3.38881,2.44764 z"
       inkscape:connector-curvature="0" />
    <path
       style="fill:#000000;fill-opacity:1;fill-rule:nonzero;stroke:none"
       id="path4105"
       d="m 728.44058,453.90791 c -2.59398,3.29152 -4.67748,6.92197 -6.65794,10.60138 -1.27579,2.63343 -0.63209,1.32314 -1.93091,3.93097 -1.3179,2.64587 -5.05972,0.78207 -3.74181,-1.8638 l 0,0 c 1.30613,-2.6219 0.64151,-1.27267 1.99187,-4.04867 2.06773,-3.84051 4.24909,-7.62736 6.94998,-11.06751 1.73075,-2.39625 5.11955,0.0514 3.38881,2.44763 z"
       inkscape:connector-curvature="0" />
    <path
       inkscape:connector-curvature="0"
       d="m 740.97947,453.68239 c -2.59398,3.29152 -4.67748,6.92197 -6.65794,10.60138 -1.27579,2.63343 -0.63209,1.32314 -1.9309,3.93097 -1.31791,2.64587 -5.05973,0.78207 -3.74182,-1.8638 l 0,0 c 1.30614,-2.6219 0.64151,-1.27267 1.99187,-4.04867 2.06773,-3.84051 4.24909,-7.62736 6.94998,-11.06751 1.73075,-2.39625 5.11955,0.0514 3.38881,2.44763 z"
       id="path4107"
       style="fill:#000000;fill-opacity:1;fill-rule:nonzero;stroke:none" />
    <path
       inkscape:connector-curvature="0"
       d="m 754.21496,453.44434 c -2.59398,3.29152 -4.67748,6.92197 -6.65794,10.60138 -1.27579,2.63343 -0.63209,1.32314 -1.9309,3.93098 -1.31791,2.64586 -5.05973,0.78206 -3.74182,-1.86381 l 0,0 c 1.30614,-2.6219 0.64151,-1.27267 1.99187,-4.04867 2.06773,-3.84051 4.24909,-7.62736 6.94998,-11.06751 1.73075,-2.39625 5.11955,0.0514 3.38881,2.44763 z"
       id="path4109"
       style="fill:#000000;fill-opacity:1;fill-rule:nonzero;stroke:none" />
    <path
       style="fill:#000000;fill-opacity:1;fill-rule:nonzero;stroke:none"
       id="path4111"
       d="m 766.75386,453.21882 c -2.59398,3.29152 -4.67749,6.92197 -6.65795,10.60138 -1.27579,2.63343 -0.63209,1.32314 -1.9309,3.93098 -1.31791,2.64586 -5.05973,0.78206 -3.74181,-1.86381 l 0,0 c 1.30613,-2.6219 0.6415,-1.27267 1.99186,-4.04867 2.06773,-3.84051 4.24909,-7.62736 6.94998,-11.06751 1.73075,-2.39625 5.11955,0.0514 3.38882,2.44763 z"
       inkscape:connector-curvature="0" />
    <path
       style="fill:#000000;fill-opacity:1;fill-rule:nonzero;stroke:none"
       id="path4113"
       d="m 779.30528,453.68991 c -2.59398,3.29152 -4.67748,6.92197 -6.65795,10.60137 -1.27579,2.63344 -0.63209,1.32314 -1.9309,3.93098 -1.3179,2.64587 -5.05973,0.78207 -3.74181,-1.8638 l 0,0 c 1.30613,-2.6219 0.6415,-1.27267 1.99186,-4.04867 2.06773,-3.84051 4.24909,-7.62736 6.94998,-11.06751 1.73075,-2.39625 5.11956,0.0514 3.38882,2.44763 z"
       inkscape:connector-curvature="0" />
    <path
       inkscape:connector-curvature="0"
       d="m 791.84417,453.46439 c -2.59398,3.29152 -4.67748,6.92197 -6.65795,10.60137 -1.27579,2.63344 -0.63209,1.32315 -1.9309,3.93098 -1.3179,2.64587 -5.05972,0.78207 -3.74181,-1.8638 l 0,0 c 1.30613,-2.6219 0.64151,-1.27267 1.99187,-4.04867 2.06773,-3.84051 4.24908,-7.62736 6.94998,-11.06751 1.73074,-2.39625 5.11955,0.0514 3.38881,2.44763 z"
       id="path4115"
       style="fill:#000000;fill-opacity:1;fill-rule:nonzero;stroke:none" />
    <path
       style="fill:#000000;fill-opacity:1;fill-rule:nonzero;stroke:none"
       id="path4117"
       d="m 804.38305,453.23887 c -2.59398,3.29152 -4.67748,6.92197 -6.65794,10.60137 -1.27579,2.63344 -0.63209,1.32315 -1.93091,3.93098 -1.3179,2.64587 -5.05972,0.78207 -3.74181,-1.8638 l 0,0 c 1.30613,-2.6219 0.64151,-1.27267 1.99187,-4.04867 2.06773,-3.84051 4.24908,-7.62736 6.94998,-11.06751 1.73075,-2.39625 5.11955,0.0514 3.38881,2.44763 z"
       inkscape:connector-curvature="0" />
    <path
       inkscape:connector-curvature="0"
       d="m 816.92194,453.01335 c -2.59398,3.29152 -4.67748,6.92197 -6.65794,10.60138 -1.27579,2.63343 -0.63209,1.32314 -1.93091,3.93097 -1.3179,2.64587 -5.05972,0.78207 -3.74181,-1.8638 l 0,0 c 1.30614,-2.6219 0.64151,-1.27267 1.99187,-4.04867 2.06773,-3.84051 4.24909,-7.62736 6.94998,-11.06751 1.73075,-2.39625 5.11955,0.0514 3.38881,2.44763 z"
       id="path4119"
       style="fill:#000000;fill-opacity:1;fill-rule:nonzero;stroke:none" />
    <path
       inkscape:connector-curvature="0"
       d="m 829.47336,453.48444 c -2.59398,3.29152 -4.67748,6.92196 -6.65794,10.60137 -1.27579,2.63344 -0.63209,1.32314 -1.9309,3.93098 -1.31791,2.64587 -5.05973,0.78207 -3.74182,-1.8638 l 0,0 c 1.30614,-2.6219 0.64151,-1.27267 1.99187,-4.04868 2.06773,-3.8405 4.24909,-7.62735 6.94998,-11.06751 1.73075,-2.39625 5.11955,0.0514 3.38881,2.44764 z"
       id="path4121"
       style="fill:#000000;fill-opacity:1;fill-rule:nonzero;stroke:none" />
  </g>
</svg>
