<?xml version="1.0" encoding="UTF-8" standalone="no"?>
<!-- Created with Inkscape (http://www.inkscape.org/) -->

<svg
   xmlns:dc="http://purl.org/dc/elements/1.1/"
   xmlns:cc="http://creativecommons.org/ns#"
   xmlns:rdf="http://www.w3.org/1999/02/22-rdf-syntax-ns#"
   xmlns:svg="http://www.w3.org/2000/svg"
   xmlns="http://www.w3.org/2000/svg"
   xmlns:sodipodi="http://sodipodi.sourceforge.net/DTD/sodipodi-0.dtd"
   xmlns:inkscape="http://www.inkscape.org/namespaces/inkscape"
   width="581.41711"
   height="533.37811"
   id="svg8788"
   version="1.1"
   inkscape:version="0.48.0 r9654"
   sodipodi:docname="SLIPPeriodic.pdf">
  <defs
     id="defs8790" />
  <sodipodi:namedview
     inkscape:document-units="mm"
     pagecolor="#ffffff"
     bordercolor="#666666"
     borderopacity="1.0"
     inkscape:pageopacity="0.0"
     inkscape:pageshadow="2"
     inkscape:zoom="0.7176508"
     inkscape:cx="292.05227"
     inkscape:cy="318.39032"
     inkscape:current-layer="layer1"
     id="namedview8792"
     showgrid="false"
     fit-margin-top="0"
     fit-margin-left="0"
     fit-margin-right="0"
     fit-margin-bottom="0"
     inkscape:window-width="1280"
     inkscape:window-height="752"
     inkscape:window-x="0"
     inkscape:window-y="0"
     inkscape:window-maximized="0" />
  <metadata
     id="metadata8794">
    <rdf:RDF>
      <cc:Work
         rdf:about="">
        <dc:format>image/svg+xml</dc:format>
        <dc:type
           rdf:resource="http://purl.org/dc/dcmitype/StillImage" />
        <dc:title></dc:title>
      </cc:Work>
    </rdf:RDF>
  </metadata>
  <g
     inkscape:label="Layer 1"
     inkscape:groupmode="layer"
     id="layer1"
     transform="translate(-234.12882,-28.672831)">
    <path
       style="fill:#000000;fill-opacity:1;fill-rule:nonzero;stroke:none"
       id="path9309"
       d="m 236.60304,291.82992 c 7.12288,-4.53998 13.89979,-9.68214 20.73017,-14.66199 17.40861,-12.63224 35.86208,-23.72857 54.23665,-34.87759 23.33624,-14.45367 46.99206,-28.38877 70.31718,-42.85833 3.23715,-2.02271 6.4743,-4.04542 9.71145,-6.06813 2.5068,-1.56636 4.72195,1.97879 2.21516,3.54514 l 0,0 c -3.24101,2.02512 -6.48202,4.05023 -9.72303,6.07535 -23.33738,14.47588 -47.0039,28.41974 -70.35231,42.87987 -18.27406,11.08743 -36.62782,22.12078 -53.94244,34.6816 -7.10473,5.17949 -14.12428,10.61365 -21.64031,15.1654 -2.7445,1.0978 -4.29703,-2.78352 -1.55252,-3.88132 z"
       inkscape:connector-curvature="0" />
    <path
       style="fill:#000000;fill-opacity:1;fill-rule:nonzero;stroke:none"
       id="path9313"
       d="m 395.58819,194.7491 c -0.36981,9.09139 -0.72534,18.18062 -0.88024,27.27839 -0.29641,27.91033 -0.31588,55.82446 -0.33406,83.73652 0.11392,34.93706 0.76999,69.86781 1.49328,104.79637 0.36409,16.19246 0.39023,32.38831 0.27932,48.58341 -0.0202,2.95584 -4.20047,2.92719 -4.1802,-0.0287 l 0,0 c 0.11083,-16.15668 0.0847,-32.31412 -0.27853,-48.4682 -0.72391,-34.95831 -1.38039,-69.91881 -1.49418,-104.88564 0.0182,-27.93495 0.0377,-55.87199 0.33468,-83.80521 0.15652,-9.12739 0.51078,-18.24626 0.8827,-27.36724 0.11332,-2.95374 4.29056,-2.79348 4.17723,0.16027 z"
       inkscape:connector-curvature="0" />
    <path
       inkscape:connector-curvature="0"
       d="m 237.99648,556.58264 c 7.12288,-4.53998 13.89979,-9.68214 20.73017,-14.66199 17.40861,-12.63224 35.86208,-23.72857 54.23665,-34.87759 23.33624,-14.45367 46.99206,-28.38877 70.31718,-42.85833 3.23715,-2.02271 6.4743,-4.04542 9.71145,-6.06813 2.5068,-1.56636 4.72195,1.97879 2.21516,3.54514 l 0,0 c -3.24101,2.02512 -6.48202,4.05023 -9.72303,6.07535 -23.33738,14.47588 -47.0039,28.41974 -70.35231,42.87987 -18.27406,11.08743 -36.62782,22.12078 -53.94244,34.6816 -7.10473,5.17949 -14.12428,10.61365 -21.64031,15.1654 -2.7445,1.0978 -4.29703,-2.78352 -1.55252,-3.88132 z"
       id="path9315"
       style="fill:#000000;fill-opacity:1;fill-rule:nonzero;stroke:none" />
    <path
       inkscape:connector-curvature="0"
       d="m 239.52343,293.68301 c -0.36981,9.09139 -0.72534,18.18062 -0.88024,27.27839 -0.29641,27.91033 -0.31588,55.82446 -0.33406,83.73652 0.11392,34.93706 0.76999,69.86781 1.49328,104.79637 0.36409,16.19246 0.39023,32.38831 0.27932,48.58341 -0.0202,2.95584 -4.20047,2.92719 -4.1802,-0.0287 l 0,0 c 0.11083,-16.15668 0.0847,-32.31412 -0.27853,-48.4682 -0.72391,-34.95831 -1.38039,-69.91881 -1.49418,-104.88564 0.0182,-27.93495 0.0377,-55.87199 0.33468,-83.80521 0.15652,-9.12739 0.51078,-18.24626 0.8827,-27.36724 0.11332,-2.95374 4.29056,-2.79348 4.17723,0.16027 z"
       id="path9317"
       style="fill:#000000;fill-opacity:1;fill-rule:nonzero;stroke:none" />
    <path
       inkscape:connector-curvature="0"
       d="m 596.10936,293.22335 c 7.12288,-4.53998 13.89979,-9.68214 20.73017,-14.66199 17.40861,-12.63224 35.86208,-23.72857 54.23665,-34.87759 23.33624,-14.45367 46.99206,-28.38877 70.31718,-42.85833 3.23715,-2.02271 6.4743,-4.04542 9.71145,-6.06813 2.5068,-1.56636 4.72195,1.97879 2.21516,3.54514 l 0,0 c -3.24101,2.02512 -6.48202,4.05023 -9.72303,6.07535 -23.33738,14.47588 -47.0039,28.41974 -70.35231,42.87987 -18.27406,11.08743 -36.62782,22.12078 -53.94244,34.6816 -7.10473,5.17949 -14.12428,10.61365 -21.64031,15.1654 -2.7445,1.0978 -4.29703,-2.78352 -1.55252,-3.88132 z"
       id="path9319"
       style="fill:#000000;fill-opacity:1;fill-rule:nonzero;stroke:none" />
    <path
       inkscape:connector-curvature="0"
       d="m 755.09451,196.14253 c -0.36981,9.09139 -0.72534,18.18062 -0.88024,27.27839 -0.29641,27.91033 -0.31588,55.82446 -0.33406,83.73652 0.11392,34.93706 0.76999,69.86781 1.49328,104.79637 0.36409,16.19246 0.39023,32.38831 0.27932,48.58341 -0.0202,2.95584 -4.20047,2.92719 -4.1802,-0.0287 l 0,0 c 0.11083,-16.15668 0.0847,-32.31412 -0.27853,-48.4682 -0.72391,-34.95831 -1.38039,-69.91881 -1.49418,-104.88564 0.0182,-27.93495 0.0377,-55.87199 0.33468,-83.80521 0.15652,-9.12739 0.51078,-18.24626 0.8827,-27.36724 0.11332,-2.95374 4.29056,-2.79348 4.17723,0.16027 z"
       id="path9321"
       style="fill:#000000;fill-opacity:1;fill-rule:nonzero;stroke:none" />
    <path
       style="fill:#000000;fill-opacity:1;fill-rule:nonzero;stroke:none"
       id="path9323"
       d="m 597.5028,557.97607 c 7.12288,-4.53998 13.89979,-9.68214 20.73017,-14.66199 17.40861,-12.63224 35.86208,-23.72857 54.23665,-34.87759 23.33624,-14.45367 46.99206,-28.38877 70.31718,-42.85833 3.23715,-2.02271 6.4743,-4.04542 9.71145,-6.06813 2.5068,-1.56636 4.72195,1.97879 2.21516,3.54514 l 0,0 c -3.24101,2.02512 -6.48202,4.05023 -9.72303,6.07535 -23.33738,14.47588 -47.0039,28.41974 -70.35231,42.87987 -18.27406,11.08743 -36.62782,22.12078 -53.94244,34.6816 -7.10473,5.17949 -14.12428,10.61365 -21.64031,15.1654 -2.7445,1.0978 -4.29703,-2.78352 -1.55252,-3.88132 z"
       inkscape:connector-curvature="0" />
    <path
       style="fill:#000000;fill-opacity:1;fill-rule:nonzero;stroke:none"
       id="path9325"
       d="m 599.02975,295.07644 c -0.36981,9.09139 -0.72534,18.18062 -0.88024,27.27839 -0.29641,27.91033 -0.31588,55.82446 -0.33406,83.73652 0.11392,34.93706 0.76999,69.86781 1.49328,104.79637 0.36409,16.19246 0.39023,32.38831 0.27932,48.58341 -0.0202,2.95584 -4.20047,2.92719 -4.1802,-0.0287 l 0,0 c 0.11083,-16.15668 0.0847,-32.31412 -0.27853,-48.4682 -0.72391,-34.95831 -1.38039,-69.91881 -1.49418,-104.88564 0.0182,-27.93495 0.0377,-55.87199 0.33468,-83.80521 0.15652,-9.12739 0.51078,-18.24626 0.8827,-27.36724 0.11332,-2.95374 4.29056,-2.79348 4.17723,0.16027 z"
       inkscape:connector-curvature="0" />
    <path
       style="fill:#000000;fill-opacity:1;fill-rule:nonzero;stroke:none"
       id="path9327"
       d="m 301.22849,341.89624 c 2.69662,2.23215 5.73336,3.99595 8.82559,5.61469 4.03287,2.30832 8.20712,4.35226 12.65512,5.71449 6.08518,1.72235 12.1709,0.69235 18.23547,-0.50515 9.579,-2.33463 18.77145,-5.90581 27.8711,-9.64438 8.43833,-3.6413 16.45297,-8.19424 24.31795,-12.92891 4.90075,-2.9922 10.03835,-5.6296 14.76714,-8.90064 2.00681,-1.38816 5.04478,-3.82736 6.94442,-5.32185 6.69025,-5.03437 12.35707,-11.07257 17.42322,-17.6962 4.82469,-6.35184 8.16833,-13.60185 10.78575,-21.09261 2.70892,-8.12549 3.89135,-16.66882 4.93282,-25.14214 0.69089,-7.32283 1.19419,-14.69818 0.90058,-22.05439 -0.30833,-5.721 -1.01027,-11.42484 -2.03491,-17.0608 -1.08325,-4.60872 -2.3753,-9.17361 -4.20443,-13.54464 -1.94021,-4.21188 -4.30037,-8.2494 -7.06153,-11.97412 -2.84681,-4.30025 -6.57035,-7.73368 -10.62752,-10.85367 -4.11496,-3.17247 -8.60067,-5.81327 -12.9655,-8.61867 -4.64725,-3.21012 -9.67166,-5.65825 -14.89288,-7.7608 -5.82347,-1.99865 -11.83376,-3.35338 -17.76088,-4.99436 -5.16215,-1.53202 -10.51377,-2.02823 -15.8649,-2.30244 -6.78084,-0.31108 -13.55416,-0.21955 -20.32534,0.2039 -6.19749,0.27759 -12.35698,0.81774 -18.51433,1.55192 -4.74674,0.3927 -9.40752,1.4102 -14.01492,2.57923 -4.50203,1.40784 -8.96522,2.91988 -13.39798,4.52997 -3.11616,1.21444 -6.15798,2.56862 -9.17256,4.00997 -3.02625,1.44109 -5.57261,3.62427 -8.04901,5.84158 -2.79423,2.63427 -5.47688,5.36449 -8.42301,7.83103 -2.42513,2.08927 -4.32917,4.63733 -6.27435,7.15266 -2.41165,2.88497 -4.24908,6.18838 -6.26809,9.34797 -2.24973,3.53972 -4.28915,7.21322 -5.96433,11.05952 -1.83568,4.08813 -2.87961,8.45258 -4.05855,12.75602 -1.26643,4.11322 -1.47391,8.41114 -2.06222,12.64104 -0.67612,3.76909 -1.02723,7.5782 -1.21676,11.39892 -0.13932,3.34506 -0.14063,6.69358 -0.14337,10.04088 0.27906,2.77914 0.84256,5.51444 1.1393,8.29171 0.48599,1.14712 -0.23261,3.65816 0.37024,4.64697 0.49563,1.32166 0.88047,2.67579 1.11215,4.06803 -0.17022,-0.4864 0.35011,2.01519 0.15518,1.53816 -0.66136,-1.61838 0.12558,-0.30571 0.31347,-0.0233 0.71473,1.01563 0.93549,2.24071 1.05109,3.4486 0.0434,0.52733 0.0616,1.05614 0.0607,1.58508 0.19617,1.19268 -1.48047,-2.25995 0.006,-0.78302 0.90313,0.76218 1.18002,1.85845 1.32086,2.97204 -0.0463,0.83354 0.0747,1.07724 0.52149,1.67963 0.22173,0.26255 0.19847,0.19427 -0.049,0.0145 2.48797,1.59608 0.23077,5.1146 -2.2572,3.51852 l 0,0 c -0.43358,-0.30468 -0.7957,-0.68517 -1.10484,-1.1165 -0.76082,-1.09587 -1.31722,-2.28961 -1.26763,-3.65715 -0.028,-0.89644 0.50682,0.38108 -0.11044,-0.44602 -0.51895,-0.51583 -1.57327,-2.20312 -1.23912,-2.23362 0.002,-0.384 -0.0156,-0.76784 -0.0435,-1.15081 -0.0456,-0.52814 -0.0586,-1.09627 -0.36875,-1.51577 -0.6458,-0.97075 -1.12519,-1.99069 -1.11708,-3.1765 -0.18218,-1.25926 -0.61961,-2.45352 -1.0249,-3.65399 -0.36821,-1.73733 -0.27549,-3.50955 -0.48562,-5.27387 -0.30783,-2.92462 -0.94834,-5.80051 -1.16262,-8.73615 0.003,-3.41553 0.005,-6.83229 0.14855,-10.24548 0.19743,-3.94536 0.55647,-7.87966 1.25219,-11.7722 0.62504,-4.4044 0.83676,-8.8833 2.17047,-13.16538 1.2347,-4.49673 2.3364,-9.05393 4.25955,-13.32449 1.77224,-4.04218 3.89905,-7.91571 6.27254,-11.63681 2.08707,-3.2641 3.9913,-6.67293 6.48353,-9.65392 2.12907,-2.75283 4.23643,-5.52537 6.89868,-7.80145 2.91225,-2.43485 5.54805,-5.14837 8.31857,-7.74067 2.77421,-2.47897 5.64401,-4.89199 9.0333,-6.49747 3.13755,-1.49892 6.30437,-2.90669 9.54803,-4.16744 4.56419,-1.65774 9.15966,-3.21632 13.79918,-4.65328 4.7831,-1.20835 9.61976,-2.26621 14.54593,-2.67767 6.23516,-0.74344 12.47326,-1.29019 18.74876,-1.5732 6.92964,-0.43199 13.86197,-0.52611 20.80126,-0.20647 5.65533,0.29374 11.30957,0.83346 16.76552,2.44862 6.07774,1.68482 12.24494,3.06505 18.20738,5.14563 5.46309,2.20323 10.72331,4.77051 15.59079,8.12167 4.46455,2.87036 9.05183,5.57361 13.25733,8.82439 4.35521,3.36515 8.367,7.07034 11.44033,11.68423 2.9404,4.00993 5.50151,8.31482 7.55567,12.84762 1.92889,4.65472 3.33418,9.49807 4.45879,14.40744 1.04898,5.83016 1.79014,11.72527 2.09849,17.6429 0.28523,7.58162 -0.19761,15.18036 -0.92875,22.72675 -1.0807,8.77028 -2.31887,17.60861 -5.13709,26.01502 -2.78071,7.90125 -6.30778,15.55127 -11.41138,22.25048 -5.28526,6.89567 -11.19188,13.19154 -18.15815,18.44073 -2.16355,1.70092 -5.00614,3.98988 -7.27328,5.5557 -4.76348,3.28993 -9.9301,5.95434 -14.86713,8.96274 -8.04812,4.84082 -16.24777,9.49713 -24.88478,13.21381 -9.35162,3.84137 -18.80285,7.50387 -28.65299,9.87939 -6.74811,1.32183 -13.52544,2.35293 -20.27761,0.39695 -4.68338,-1.46179 -9.11163,-3.55461 -13.36057,-6.00568 -3.46092,-1.81691 -6.86662,-3.80305 -9.84052,-6.36113 -2.09015,-2.09015 0.86577,-5.04607 2.95592,-2.95592 z"
       inkscape:connector-curvature="0" />
    <path
       style="fill:#000000;fill-opacity:1;fill-rule:nonzero;stroke:none"
       id="path9329"
       d="m 256.83273,289.33625 c 1.38253,1.6654 2.47314,3.52024 3.41789,5.46006 0.52661,1.31969 0.53081,0.76716 -0.15416,0.0593 0.002,-0.002 0.004,-0.004 0.007,-0.006 2.93909,0.315 2.49361,4.4715 -0.44548,4.1565 l 0,0 c -0.11268,-0.0143 -0.22536,-0.0287 -0.33804,-0.043 -1.31894,-0.28416 -2.37147,-1.01597 -2.82899,-2.34011 -0.82515,-1.70367 -1.77865,-3.32453 -3.00203,-4.77852 -1.77355,-2.36474 1.57069,-4.87292 3.34425,-2.50818 z"
       inkscape:connector-curvature="0" />
    <path
       style="fill:#000000;fill-opacity:1;fill-rule:nonzero;stroke:none"
       id="path9331"
       d="m 264.99918,301.48662 c 1.67213,1.02956 2.9592,2.50315 4.4304,3.75869 1.06152,0.66785 1.88093,1.46474 2.37871,2.63568 0.39249,1.05311 -0.18892,-0.27068 -0.41261,-0.52878 2.757,1.06602 1.24942,4.96502 -1.50759,3.899 l 0,0 c -0.95744,-0.40378 -1.48916,-0.80163 -1.96608,-1.83016 0.69466,0.17293 -1.01793,-0.69743 -1.27408,-1.05525 -1.49509,-1.36524 -2.91726,-2.77077 -4.60467,-3.92326 -2.09016,-2.09015 0.86577,-5.04608 2.95592,-2.95592 z"
       inkscape:connector-curvature="0" />
    <path
       style="fill:#000000;fill-opacity:1;fill-rule:nonzero;stroke:none"
       id="path9333"
       d="m 276.37151,313.34399 c 0.77362,1.7267 1.78379,3.32038 2.84134,4.88331 0.63759,1.0058 1.56749,1.61411 2.39104,2.43516 0.33171,0.46538 0.69084,0.5022 1.22627,0.57254 0.1,0.01 0.19998,0.0199 0.29997,0.0299 2.93925,0.31353 2.49586,4.47025 -0.44339,4.15673 l 0,0 c -0.16182,-0.018 -0.32365,-0.0359 -0.48547,-0.0539 -1.34902,-0.21888 -2.64413,-0.68763 -3.56333,-1.75941 -0.98202,-1.00369 -2.15192,-1.80185 -2.8881,-3.03955 -1.15833,-1.71434 -2.26106,-3.46662 -3.11731,-5.35529 -1.32193,-2.64385 2.41705,-4.51334 3.73898,-1.86949 z"
       inkscape:connector-curvature="0" />
    <path
       style="fill:#000000;fill-opacity:1;fill-rule:nonzero;stroke:none"
       id="path9335"
       d="m 288.68758,327.96189 c 1.52889,1.5833 3.12093,3.09649 4.84621,4.46314 0.89021,0.65115 0.46194,0.34831 1.28211,0.91235 2.43335,1.67817 0.0601,5.11946 -2.3733,3.44128 l 0,0 c -0.96932,-0.6701 -0.46065,-0.30819 -1.52226,-1.09098 -1.83047,-1.47877 -3.56285,-3.06637 -5.18868,-4.76987 -2.09015,-2.09015 0.86577,-5.04607 2.95592,-2.95592 z"
       inkscape:connector-curvature="0" />
    <path
       style="fill:#000000;fill-opacity:1;fill-rule:nonzero;stroke:none"
       id="path9337"
       d="m 303.0153,342.06529 c -1.97088,2.00009 -3.36983,3.1289 -6.23867,2.99067 -2.25345,-0.91664 -3.15962,-2.85847 -3.62755,-5.09726 -0.45753,-2.28547 0.97079,-3.86235 2.53182,-5.28368 1.81976,-1.36544 3.95131,-2.0725 6.20659,-1.98867 3.02671,1.05689 3.5113,3.60503 3.15681,6.4903 -0.65146,3.08034 -2.73203,5.48861 -4.64811,7.88326 -0.74675,0.91081 -1.49393,1.82249 -2.28231,2.6979 -1.22809,-0.46472 -2.56589,-0.70613 -3.68427,-1.39416 -0.0835,-0.0514 -0.0985,-4.69419 -0.095,-5.17586 -0.15412,-2.77587 0.97084,-5.06435 3.10117,-6.76991 1.78192,-1.06901 3.72084,-1.3477 5.73457,-1.02568 2.68448,0.80492 3.40043,3.36249 3.42934,5.86603 -0.24347,2.88028 -1.97349,5.04896 -4.32002,6.56411 -3.12543,1.28257 -4.92534,1.92892 -7.67648,-0.52276 -1.57604,-2.44269 -1.68662,-5.24549 -1.21842,-8.02644 0.79566,-3.04766 2.52027,-4.9463 5.41554,-6.09984 3.46917,-0.7141 6.42002,1.00207 8.69116,3.4793 1.9473,2.97359 2.47118,5.4086 0.70814,8.59219 -1.75696,2.60395 -4.13365,4.03973 -7.11882,4.81588 -3.58727,0.4698 -6.42685,-0.73068 -8.74358,-3.43078 -2.04304,-2.72038 -1.49164,-5.5691 0.23975,-8.23826 2.12601,-2.49768 5.18335,-2.97741 8.27721,-2.70382 3.10538,0.49334 5.33241,1.98964 6.7379,4.78328 0.86823,3.37915 -1.24003,5.51695 -4.19751,6.58909 -1.96735,0.50781 -4.00423,0.65993 -6.02871,0.72001 -2.69248,-0.41267 -2.7981,-2.6779 -1.94512,-4.68633 1.34508,-2.63215 5.06751,-0.72992 3.72243,1.90223 l 0,0 c -0.37939,-0.41881 -0.97006,-1.61188 -1.89842,-1.39445 1.63578,-0.0461 3.28168,-0.15851 4.8804,-0.52437 0.72528,-0.15073 1.25022,-0.37759 1.67512,-0.84631 -0.55879,-1.53585 -1.8084,-2.04605 -3.34744,-2.38216 -1.51137,-0.16317 -3.17254,-0.19497 -4.39562,0.85863 -0.76262,1.09972 -1.40576,2.05291 -0.47211,3.29069 1.11443,1.55516 2.57998,2.08519 4.48521,2.00621 1.93699,-0.45075 3.38746,-1.27228 4.56243,-2.93952 0.95332,-1.19257 0.39533,-2.39327 -0.29215,-3.66505 -0.96977,-1.23378 -2.47475,-2.26448 -4.0807,-2.30924 -1.55859,0.50208 -2.233,1.3127 -2.75653,2.89832 -0.2774,1.5318 -0.27854,2.96014 0.17209,4.47591 -0.78535,0.88953 2.27721,-0.16769 2.4435,-0.22098 1.21296,-0.61644 2.13442,-1.79998 2.30426,-3.1639 0.15406,-0.51947 0.1131,-0.19695 -0.0471,-0.93631 -0.0288,-0.13281 -0.0771,-0.26339 -0.0829,-0.39916 -0.003,-0.0774 0.22578,-0.096 0.17426,-0.15389 -0.0683,-0.0768 -0.18497,-0.0897 -0.27746,-0.13459 -0.51562,-0.0711 -1.52623,0.001 -2.21458,0.2824 -1.20606,0.82481 -1.57453,2.01863 -1.46058,3.47978 -0.008,1.0617 -0.0196,2.12368 -0.009,3.18541 0.006,0.58618 0.0266,1.12637 0.0203,1.12601 -1.18562,-0.068 -2.34443,-0.38066 -3.51664,-0.57099 0.73479,-0.81375 1.42693,-1.66511 2.12366,-2.51123 1.43783,-1.79488 3.08256,-3.58404 3.76699,-5.81702 0.0756,-0.52006 -0.0334,-1.7574 0.52405,-1.7894 -0.87465,-0.003 -2.08053,0.37313 -2.93767,0.93334 -0.89956,0.80813 -1.33433,0.85926 -1.23192,1.39582 0.0384,0.24796 0.62358,1.60762 0.55916,1.72985 -0.0453,0.086 -0.1922,0.0289 -0.28829,0.0433 -0.96319,0.49519 2.35042,-1.03183 2.53418,-1.83385 2.09016,-2.09015 5.04608,0.86577 2.95593,2.95592 z"
       inkscape:connector-curvature="0" />
    <path
       style="fill:#000000;fill-opacity:1;fill-rule:nonzero;stroke:none"
       id="path9355"
       d="m 292.02007,317.95665 c -0.007,3.44641 0.48003,6.91142 1.23052,10.27205 0.43803,1.6727 0.88097,3.35591 1.53181,4.96153 0.13859,0.19851 0.0148,1.54604 0.0253,2.38095 0.002,0.0561 -0.004,0.11219 -0.005,0.16831 -0.26529,-1.54215 -2.48845,1.30288 -3.83117,1.67832 -0.28643,0.0801 -0.45881,-0.37995 -0.70457,-0.54744 -0.97769,-0.66634 -2.13364,-1.1023 -3.19313,-1.61451 -2.62232,-1.20401 -5.44962,-1.8182 -8.16829,-2.75357 -2.05722,-0.74291 -3.62785,-1.93154 -4.95112,-3.64343 -1.71177,-2.40983 1.69625,-4.83065 3.40803,-2.42082 l 0,0 c 0.60064,1.10383 1.80753,1.60863 2.9053,2.11212 2.87275,0.99214 5.86819,1.6287 8.62567,2.94219 0.35089,0.16967 4.89623,2.34431 4.68796,2.65993 -0.70377,1.06645 -1.85382,1.76153 -2.83545,2.57945 -0.0478,0.0392 -0.0292,-0.12021 -0.0439,-0.18026 -0.0875,-0.49639 -0.0937,-1.00125 -0.0416,-1.50268 0.5086,-3.49932 0.89982,1.90539 0.24389,-0.29867 -0.7288,-1.82222 -1.25389,-3.71975 -1.73532,-5.61972 -0.83396,-3.81217 -1.40905,-7.74352 -1.30144,-11.65228 0.33842,-2.9365 4.49124,-2.4579 4.15283,0.47858 z"
       inkscape:connector-curvature="0" />
    <path
       style="fill:#000000;fill-opacity:1;fill-rule:nonzero;stroke:none"
       id="path9407"
       d="m 677.33911,334.29378 c -0.42959,2.26271 -1.68642,4.03905 -3.46816,5.43278 -3.4358,1.97757 -5.07945,-0.56452 -5.72618,-3.63837 -0.65682,-3.75477 0.59049,-6.21638 3.00794,-8.97643 2.42463,-2.38475 5.4693,-3.80256 8.83924,-4.05316 4.45431,0.56464 5.37798,4.85658 5.55014,8.65688 -0.32462,4.24583 -2.49106,7.56511 -5.91277,9.95541 -3.96689,2.09606 -6.80541,2.03908 -10.1169,-1.10666 -2.84952,-3.57974 -2.64464,-7.63072 -0.78321,-11.57989 1.88853,-3.32324 4.93767,-4.95087 8.5051,-5.88708 4.23365,-0.40656 5.91295,1.84678 6.61445,5.68631 0.21808,3.39935 -0.88491,6.19055 -3.73383,8.06162 -2.53511,1.20205 -4.45384,1.52673 -6.79277,-0.17071 -1.38058,-1.69655 -1.46424,-3.91758 -1.15554,-5.98756 0.61378,-2.35075 2.24798,-3.74115 4.42689,-4.61379 2.81738,-0.6428 4.4475,1.02216 4.9921,3.62058 0.4627,2.51502 -1.03782,4.38577 -2.98143,5.7333 -2.06743,1.40903 -4.2156,0.91914 -5.02677,-1.5838 -0.46134,-2.03405 -0.11399,-3.73757 1.13715,-5.39013 1.52307,-1.3789 3.24321,-1.63534 5.16264,-1.27801 2.31072,1.45094 1.93844,3.8807 0.66594,5.88892 -1.73897,1.5834 -3.84026,2.24072 -6.11711,1.59628 -2.12949,-0.9123 -2.48645,-2.97012 -2.19842,-5.00879 0.32296,-0.96161 0.75649,-1.88154 1.22476,-2.77985 3.79611,0.21445 3.93564,-0.48885 4.14436,1.94111 0.2207,2.94767 -3.94794,3.25979 -4.16863,0.31211 l 0,0 c -0.0686,-1.37386 1.78089,-0.13754 3.72955,-0.3178 -0.32897,0.62813 -0.62936,1.27122 -0.89304,1.92959 -0.18829,-0.86316 0.33733,0.66372 -0.48213,-0.0305 -0.10612,0.40958 1.15499,-0.20584 1.42752,-0.1651 0.27087,-0.27214 0.36631,0.20578 1.05003,0.48884 1.8507,0.0152 -0.0509,0.046 -0.4699,0.2544 -0.0209,-0.31088 -0.47001,1.06118 -0.18165,1.45193 -1.43822,-1.04135 -2.80834,-0.0393 -1.33191,-0.78157 0.64306,-0.40162 1.3745,-0.73376 1.19514,-1.51878 -0.092,-0.9405 0.45829,0.13828 0.62684,-0.46278 -0.84532,0.30395 -1.52348,0.59347 -1.83159,1.52755 -0.30688,0.69082 0.14197,1.46038 -0.0593,2.14913 -0.12236,-0.0277 -0.24162,-0.085 -0.36708,-0.0833 -0.0907,10e-4 0.10789,0.18791 0.19855,0.18598 0.65765,-0.014 1.33341,-0.27115 1.93754,-0.49935 1.53677,-0.64871 1.72439,-2.41649 1.72666,-3.93067 0.018,-0.97302 -0.25766,-2.20353 -1.42641,-2.17701 -2.3842,0.59892 -4.48196,1.48668 -5.80438,3.69964 -1.21372,2.2393 -1.51353,4.59723 0.0209,6.78854 1.55376,1.83251 2.65316,1.57431 4.80202,0.56909 2.29105,-1.44775 3.70977,-3.64955 4.06812,-6.36418 -0.006,-1.19393 -0.0819,-3.96844 -1.2007,-4.60314 -2.18553,-0.0824 -4.28984,1.28329 -5.88382,2.65137 -1.5874,1.75698 -2.45952,2.89799 -2.03163,5.39959 0.28583,1.68739 0.34813,0.78654 -0.7976,0.96685 -0.0642,0.0101 -0.57467,0.31388 -0.11967,0.15379 1.07601,-0.79061 1.73801,-1.77174 1.95344,-3.12711 0.71691,-2.86766 4.77241,-1.85379 4.05549,1.01388 z"
       inkscape:connector-curvature="0" />
    <path
       style="fill:#000000;fill-opacity:1;fill-rule:nonzero;stroke:none"
       id="path9423"
       d="m 677.70487,331.02997 c 2.72246,-0.19742 5.24768,0.26112 7.68908,1.4557 1.65801,0.73099 3.26055,1.59616 4.76189,2.60715 1.16921,1.10402 2.76411,1.37342 4.25697,1.84866 3.03035,0.84664 6.20592,0.80209 9.31037,1.16648 3.96455,0.56836 7.94757,0.94531 11.94664,1.14197 4.01481,0.0887 8.04158,0.30194 12.04919,-0.009 4.67215,-0.37083 9.24263,-1.49542 13.72861,-2.80784 4.19019,-0.96147 7.92841,-2.95715 11.56949,-5.16185 4.07574,-2.55206 7.98024,-5.32669 11.77353,-8.276 4.00694,-3.21813 7.76862,-6.74172 11.29189,-10.48206 3.90266,-4.19514 7.41096,-8.77615 10.68743,-13.47346 3.21523,-4.99865 6.42929,-10.01119 9.00142,-15.37642 2.30644,-5.46622 4.88361,-10.81913 7.11289,-16.31657 2.24615,-5.28939 4.01077,-10.75408 5.82994,-16.1987 1.63843,-4.80604 2.15537,-9.85466 2.46906,-14.89065 0.26243,-4.80085 0.27966,-9.58773 -0.19911,-14.37096 -0.36832,-4.56109 -1.40438,-9.03023 -2.67084,-13.41627 -1.09541,-4.39946 -2.709,-8.65209 -4.58011,-12.77494 -1.56659,-3.67033 -3.49629,-7.18092 -5.44704,-10.65973 -1.72272,-3.48631 -4.30552,-6.30401 -6.64783,-9.34857 -2.26242,-2.79086 -4.63239,-5.52397 -7.32088,-7.9136 -3.04378,-2.50052 -6.29376,-4.74535 -9.48908,-7.04821 -3.3072,-2.63046 -6.78688,-4.96647 -10.46541,-7.03364 -3.05274,-1.55884 -6.30424,-2.67529 -9.59571,-3.60882 -4.2548,-1.09384 -8.56366,-1.93029 -12.82704,-2.9861 -3.26027,-0.89501 -6.61309,-1.1812 -9.97548,-1.32417 -4.28166,-0.11309 -8.56554,-0.093 -12.84832,-0.0875 -3.21862,-0.01 -6.41191,-0.12168 -9.59517,0.38705 -3.85314,1.08895 -7.41115,3.03012 -11.10804,4.56301 -3.99371,1.45213 -7.90669,3.16701 -11.56148,5.34159 -2.9567,1.51233 -5.57798,3.43705 -7.86418,5.83153 -2.43276,2.72232 -4.89823,5.4135 -7.41655,8.05689 -2.37728,2.03781 -4.5143,4.29403 -6.20589,6.93126 -1.73311,2.86604 -3.19632,5.87001 -4.35924,9.00934 -1.18853,3.51142 -2.06462,7.10825 -2.96361,10.70197 -0.86908,3.33472 -1.64134,6.70326 -2.55885,10.02517 -0.88502,2.81989 -1.23081,5.76483 -1.46938,8.69905 -0.15986,2.49003 -0.15071,4.98675 -0.15156,7.48071 0.004,2.13122 0.01,4.26243 0.014,6.39365 -0.15829,1.76083 0.0923,3.37776 0.55917,5.06127 0.28638,1.6072 0.94038,3.09628 1.50208,4.62095 0.36283,1.21386 0.63476,2.56939 1.40818,3.60679 0.84042,1.27784 1.47919,2.62532 1.87282,4.10159 0.34945,1.13526 -0.13829,-0.1073 -0.0993,-0.15443 0.047,-0.0568 0.48825,0.66196 1.00823,1.43865 0.55803,0.50523 -0.92253,-0.44351 -0.097,-0.34288 0.22526,-0.006 -0.24228,0.0268 -0.24395,0.0271 1.74656,0.32545 1.96102,0.90595 2.85488,1.21934 1.89576,0.59643 0.72845,-0.41227 -0.17553,4.31873 -0.42091,-0.0538 -1.67906,0.16875 0.0996,-0.14743 -2.50767,1.56495 -4.72084,-1.98143 -2.21317,-3.54638 l 0,0 c 0.98886,-0.34451 1.19163,-0.51861 2.01966,-0.48544 0.0616,4.31631 1.1664,4.52795 -1.16259,3.78787 -0.92321,-0.34358 -4.13239,-2.19627 -0.68912,-1.03128 -0.33794,0.0466 -0.67636,0.0511 -1.01544,0.005 -1.09183,-0.14714 -2.22212,-0.46465 -2.85144,-1.47939 -0.53844,-0.80505 -1.23684,-1.6038 -1.47845,-2.54903 -0.27428,-1.07442 -0.76359,-2.01802 -1.37487,-2.9474 -0.79925,-1.3658 -1.4534,-2.81982 -1.78505,-4.37594 -0.60085,-1.63098 -1.28751,-3.23919 -1.60936,-4.95467 -0.55797,-2.03283 -0.86829,-4.04935 -0.7096,-6.16479 -0.004,-2.13432 -0.0104,-4.26864 -0.014,-6.40297 9.5e-4,-2.60737 -0.007,-5.21769 0.16553,-7.8207 0.26399,-3.19786 0.65146,-6.40478 1.60891,-9.47996 0.92412,-3.28039 1.66278,-6.62175 2.53038,-9.91752 0.93754,-3.7457 1.85653,-7.49363 3.10335,-11.15132 1.28761,-3.41648 2.85853,-6.70533 4.76862,-9.82162 1.85696,-2.833 4.09016,-5.35185 6.6855,-7.53847 2.52195,-2.64678 4.98774,-5.34422 7.42674,-8.06754 2.55891,-2.65558 5.45866,-4.84446 8.75047,-6.53421 3.83295,-2.26047 7.90573,-4.09579 12.09063,-5.6063 3.99821,-1.65727 7.83757,-3.79858 12.05578,-4.83036 3.40056,-0.53312 6.80639,-0.47129 10.24301,-0.43839 4.34442,-0.006 8.69001,-0.0261 13.03325,0.0914 3.64024,0.15817 7.27036,0.48075 10.80083,1.44291 4.31054,1.06764 8.66841,1.90934 12.96848,3.02377 3.60212,1.03222 7.16405,2.25441 10.4974,3.98463 3.81499,2.14422 7.43062,4.56076 10.86154,7.28658 3.31443,2.38892 6.68701,4.71653 9.83308,7.32488 2.86771,2.58259 5.44318,5.47685 7.85318,8.48868 2.44065,3.21342 5.16435,6.18338 6.9745,9.84529 2.00534,3.58411 3.99343,7.19802 5.60751,10.97717 1.94972,4.30899 3.64107,8.74897 4.78963,13.34387 1.32925,4.63043 2.4234,9.34504 2.8134,14.15834 0.49665,5.00829 0.49105,10.02093 0.2115,15.04694 -0.34055,5.39749 -0.91867,10.80431 -2.67636,15.95391 -1.84744,5.52823 -3.64285,11.0758 -5.92181,16.44714 -2.26883,5.57584 -4.86878,11.0137 -7.21913,16.55626 -2.68596,5.56024 -5.98513,10.78129 -9.34175,15.95821 -3.40177,4.85797 -7.02351,9.60705 -11.07174,13.94587 -3.67257,3.8944 -7.59122,7.56534 -11.76808,10.91506 -3.92166,3.04902 -7.96095,5.91568 -12.17522,8.5523 -3.95175,2.38978 -8.02648,4.53388 -12.56269,5.5983 -4.76826,1.38801 -9.62373,2.57684 -14.58899,2.96365 -4.18192,0.30044 -8.37746,0.13181 -12.56587,0.0155 -4.09566,-0.20285 -8.17561,-0.58444 -12.23607,-1.16635 -3.36465,-0.40936 -6.81291,-0.33618 -10.0855,-1.33481 -1.87376,-0.59905 -3.89796,-1.04071 -5.38568,-2.408 -1.26941,-0.96708 -2.8043,-1.58665 -4.22774,-2.2892 -1.84798,-0.94695 -3.74748,-1.17257 -5.82388,-1.01651 -2.95592,0 -2.95592,-4.18031 0,-4.18031 z"
       inkscape:connector-curvature="0" />
    <path
       style="fill:#000000;fill-opacity:1;fill-rule:nonzero;stroke:none"
       id="path9425"
       d="m 666.65691,258.29013 c 1.02583,1.19614 2.26471,2.09875 3.61955,2.87961 -0.005,0.0578 0.97833,0.4469 0.53628,0.29011 1.62713,2.06838 1.51052,1.13218 1.56222,2.36011 0.0738,2.955 -4.10523,3.05933 -4.179,0.10433 l 0,0 c 0.002,-0.0198 0.004,-0.0397 0.005,-0.0595 0.50329,0.54254 1.00658,1.08509 1.50987,1.62763 -0.5397,-0.16625 -1.03986,-0.43009 -1.53107,-0.70603 -1.65979,-0.96639 -3.20208,-2.09112 -4.47906,-3.54031 -2.09015,-2.09015 0.86577,-5.04607 2.95592,-2.95592 z"
       inkscape:connector-curvature="0" />
    <path
       style="fill:#000000;fill-opacity:1;fill-rule:nonzero;stroke:none"
       id="path9427"
       d="m 678.82129,267.13761 c 1.88483,0.93882 3.8827,1.5711 5.74211,2.56559 1.11227,0.69616 2.30209,1.09273 3.27596,1.99525 0.49232,0.53039 0.88346,1.13782 1.12819,1.81812 0.0863,0.31711 0.0488,0.14797 0.10699,0.50864 0.30244,2.94041 -3.85592,3.36813 -4.15837,0.42772 l 0,0 c 0.0493,0.28363 0.0183,0.15872 0.0828,0.37708 -0.0367,-0.0567 -0.0757,-0.11194 -0.10995,-0.1701 -0.25125,-0.14828 -1.64826,-0.8522 -2.30631,-1.27545 -1.81491,-0.98388 -3.80367,-1.54447 -5.63088,-2.50787 -2.64386,-1.32193 -0.77437,-5.06091 1.86949,-3.73898 z"
       inkscape:connector-curvature="0" />
    <path
       style="fill:#000000;fill-opacity:1;fill-rule:nonzero;stroke:none"
       id="path9429"
       d="m 694.76636,275.87 c 1.78634,0.46012 3.60242,0.80069 5.43311,1.02302 0.90724,0.10842 1.82204,0.13932 2.73506,0.15076 0.10617,0.002 0.21233,-1.5e-4 0.31848,-0.002 2.95536,-0.0579 3.03724,4.12161 0.0819,4.17951 l 0,0 c -0.15147,0.002 -0.30294,0.005 -0.45444,0.002 -1.06443,-0.0141 -2.13052,-0.0537 -3.18809,-0.18129 -2.00101,-0.2459 -3.98684,-0.61394 -5.93988,-1.11696 -2.86766,-0.71691 -1.85379,-4.7724 1.01388,-4.05549 z"
       inkscape:connector-curvature="0" />
    <path
       style="fill:#000000;fill-opacity:1;fill-rule:nonzero;stroke:none"
       id="path9431"
       d="m 710.4737,276.58172 c 1.62933,-0.24936 3.03601,-1.03812 4.49427,-1.75659 0.80518,-0.60907 1.88604,-1.12008 2.40531,-2.02119 1.1107,-1.278 2.38751,-2.39842 3.61477,-3.56163 1.40561,-1.41135 2.72123,-2.93697 3.79726,-4.62003 0.96988,-2.09236 2.29797,-3.99486 3.3501,-6.04239 1.19325,-2.12751 2.10049,-4.42289 2.83744,-6.74641 0.65627,-2.40623 1.51927,-4.7361 1.96039,-7.19947 0.45952,-3.14796 1.07208,-6.26067 1.40609,-9.42983 0.28843,-3.405 0.3356,-6.82377 0.36442,-10.23888 0.17043,-3.64648 -0.0752,-7.2359 -0.76008,-10.81738 -1.05296,-3.96069 -2.55694,-7.77299 -4.05934,-11.57791 -1.31433,-3.33909 -3.09647,-6.4385 -4.8182,-9.57399 -1.67204,-3.53493 -3.91397,-6.71146 -6.34587,-9.75313 -2.16145,-2.69308 -4.63906,-5.0709 -7.25957,-7.30594 -2.9237,-2.62148 -5.97896,-5.06969 -9.05706,-7.50405 -2.88483,-2.03936 -6.06807,-3.62425 -9.17533,-5.29777 -2.79874,-1.73474 -5.6336,-3.36847 -8.62471,-4.75121 -2.25967,-1.29969 -4.58836,-2.5033 -7.05008,-3.37133 -2.4376,-1.13059 -5.00869,-1.7538 -7.66047,-2.09021 -2.26031,-0.42685 -4.45343,-1.12942 -6.73644,-1.43377 -1.80712,0.013 -3.46137,-0.66918 -5.17113,-1.14004 -1.53796,-0.35227 -3.11647,-0.40729 -4.68688,-0.45192 -1.44273,0.24729 -3.26014,-0.46953 -4.63162,0.0941 -1.51226,0.47514 -3.04854,0.86303 -4.61506,1.10468 -1.25598,0.50092 -2.46715,1.04414 -3.59715,1.79295 -1.86716,1.15699 -3.72016,2.29824 -5.72615,3.20134 -0.94794,0.60281 -2.0796,1.21772 -2.97739,1.68735 -0.70052,0.85286 -1.80552,1.0644 -2.64511,1.71166 -0.80542,0.69585 -1.53213,1.47953 -2.2746,2.24123 -1.23094,0.9718 -2.45084,1.93619 -3.65168,2.93751 -1.10355,1.05755 -2.17878,2.15395 -3.34804,3.14346 -0.99974,0.71945 -1.83222,1.57165 -2.56406,2.55717 -1.31803,1.2878 -2.43335,2.6575 -3.39366,4.22198 -0.96602,1.69372 -1.90792,3.41584 -2.63875,5.22733 -0.3965,1.45631 -0.85,2.89341 -1.27318,4.34922 -0.38985,1.88873 -1.07205,3.69718 -1.54126,5.56618 -0.70306,1.83268 -1.36548,3.64918 -1.6862,5.59095 -0.23438,1.73332 -0.98861,3.30934 -1.28945,5.03233 -0.28807,1.76952 -0.31368,3.56777 -0.33838,5.35629 0.20349,2.25658 -0.40206,4.40334 -0.89469,6.57533 -0.36828,1.74334 -0.42905,3.52251 -0.47873,5.29682 -0.0355,1.90907 -0.0279,3.81862 -0.0247,5.72792 0.003,1.78757 0.006,3.57514 0.007,5.36272 -0.17444,1.43539 0.1458,2.6509 0.54617,4.00303 0.50412,1.44214 0.69808,2.95395 0.7978,4.46996 -0.11541,1.32049 0.45447,2.42304 0.81742,3.66658 0.18496,1.22127 0.57477,2.2333 1.06285,3.34169 0.32873,1.13302 0.63483,2.17846 1.24794,3.18151 0.40448,0.97709 0.75591,1.8943 1.34458,2.76815 0.6758,0.90707 0.95642,2.01761 1.10277,3.11802 -0.20355,-1.03053 1.1145,1.598 1.25249,1.80662 0.53686,0.60253 0.88013,1.51862 1.34143,1.96423 1.0885,1.05094 1.39946,2.73691 2.35925,3.83346 0.82751,0.66728 1.06049,1.79569 1.71255,2.57902 0.69305,0.88177 1.47997,1.65368 2.11918,2.57748 0.51643,1.22578 0.69473,1.13958 1.50235,2.35392 0.22278,0.33909 0.43693,0.68371 0.6379,1.03612 0.31277,0.69833 0.28804,1.36543 0.2788,2.08995 0.15316,1.18385 -1.81201,-1.78173 -1.10656,-1.74187 0.0857,0.004 0.17149,0.005 0.25727,0.005 1.84863,1.36429 2.26116,1.6531 2.24229,3.2856 0.64392,-1.29911 -1.7349,-1.91713 -0.88473,-1.88708 -0.0995,-6.05308 2.77867,3.5447 2.2375,2.46873 -0.76892,-1.5288 -0.0431,-0.57008 -0.44736,-1.08544 0.0641,0.0157 0.12804,0.032 0.19086,0.0521 1.43193,1.13827 1.68834,1.57793 1.69301,3.04429 0.002,0.17117 -0.005,0.34214 -0.0123,0.51306 -0.18723,2.94998 -4.35915,2.6852 -4.17192,-0.26479 l 0,0 c 10e-4,-0.0795 0.004,-0.15899 0.004,-0.23851 -0.002,-1.84789 1.92287,1.31774 1.50122,1.00829 -0.5737,-0.14692 -1.12121,-0.3789 -1.61934,-0.70196 -0.59586,-0.48911 -1.80353,-2.49518 -1.29353,-1.9171 0.0375,0.0424 0.0459,0.10349 0.0688,0.15524 0.61978,0.38192 1.23957,0.76385 1.85936,1.14577 0.0424,0.0284 -0.10198,-10e-4 -0.15297,-0.002 -1.69631,-0.0666 -2.35378,-0.47808 -3.15255,-2.34051 0.0145,-1.76015 0.75593,-0.12962 2.18959,0.93683 -0.27082,0.011 -0.54187,0.0106 -0.81248,-0.009 -1.32217,-0.10368 -2.83792,-0.66967 -2.77006,-2.48112 0.005,-0.42095 -0.0887,-1.53108 0.24629,-0.007 -0.14821,-0.25543 -0.30376,-0.50653 -0.46596,-0.75338 -0.53125,-0.80237 -1.19414,-1.53295 -1.55227,-2.43097 -0.31172,-0.9476 -1.64192,-1.48367 -2.02797,-2.43939 -0.56201,-0.85968 -0.96684,-1.81991 -1.69928,-2.5599 -0.71754,-1.10331 -1.2322,-2.31772 -2.00123,-3.38849 -0.80133,-0.9001 -1.02538,-1.54895 -1.76382,-2.5042 -0.75172,-1.14825 -1.44671,-2.36107 -1.9149,-3.64565 -0.005,-0.45334 -0.1543,-0.90934 -0.42302,-1.25284 -0.60976,-0.9174 -1.13161,-1.86915 -1.44691,-2.92907 -0.69002,-1.15089 -1.1928,-2.35083 -1.49611,-3.65917 -0.5535,-1.25736 -1.02563,-2.51381 -1.25497,-3.87271 -0.42138,-1.50317 -1.09254,-2.95291 -0.97132,-4.55541 -0.0729,-1.20597 -0.22176,-2.40638 -0.63485,-3.55009 -0.50353,-1.70752 -0.88309,-3.3908 -0.71751,-5.18491 -10e-4,-1.78614 -0.003,-3.57228 -0.007,-5.35842 -0.003,-1.95089 -0.011,-3.90203 0.0264,-5.85267 0.0581,-2.0468 0.14605,-4.09804 0.58131,-6.1067 0.43276,-1.89554 1.00001,-3.73189 0.79085,-5.70611 0.0286,-2.01894 0.0682,-4.04779 0.40504,-6.04361 0.31829,-1.70882 0.98186,-3.29091 1.28175,-4.98848 0.3561,-2.04356 0.95358,-4.00469 1.75551,-5.91819 0.49215,-1.91906 1.1765,-3.77894 1.58315,-5.71892 0.47365,-1.58963 0.95028,-3.14951 1.40959,-4.73962 0.82474,-2.02139 1.863,-3.95272 2.94998,-5.84277 1.0387,-1.69025 2.2175,-3.2241 3.65329,-4.59714 0.93862,-1.18032 1.93676,-2.31465 3.17552,-3.1932 1.18683,-0.99042 2.25859,-2.10952 3.38058,-3.17056 1.09767,-0.88874 2.1703,-1.80913 3.31668,-2.62934 0.90276,-0.92613 1.78479,-1.88349 2.79563,-2.69409 0.88279,-0.63177 1.89991,-0.93152 2.65495,-1.71886 1.20485,-0.76864 2.51881,-1.34616 3.72846,-2.12326 1.81362,-0.81081 3.47338,-1.85668 5.16358,-2.89509 1.63101,-1.04157 3.37237,-1.89266 5.24087,-2.41784 1.46941,-0.22101 2.89942,-0.62149 4.32139,-1.04906 1.87573,-0.34348 3.77354,-0.21076 5.67643,-0.19578 1.91059,0.0561 3.8299,0.1434 5.69405,0.60522 1.53654,0.43613 2.97881,1.05704 4.60939,1.02351 2.2709,0.31661 4.4691,0.93725 6.70525,1.42963 2.94427,0.38543 5.8206,1.05395 8.53312,2.29996 2.57217,0.93019 5.04561,2.12618 7.40196,3.51554 3.06186,1.42546 5.98707,3.07367 8.84904,4.86361 3.31962,1.79156 6.72502,3.48138 9.78472,5.69862 3.11855,2.46678 6.21372,4.94895 9.17754,7.60305 2.82071,2.40881 5.48512,4.9764 7.81193,7.87652 2.57857,3.23037 4.95945,6.60541 6.74448,10.35107 1.80453,3.29005 3.66454,6.54694 5.04171,10.05001 1.59892,4.04992 3.19929,8.11075 4.27898,12.33818 0.71743,3.84945 1.01793,7.71029 0.83239,11.62768 -0.0302,3.55023 -0.0813,7.10431 -0.38751,10.64357 -0.3479,3.2728 -0.97586,6.48819 -1.45061,9.73936 -0.48804,2.63941 -1.37005,5.14908 -2.09195,7.72528 -0.82187,2.54399 -1.80364,5.06506 -3.11028,7.40092 -1.13415,2.15803 -2.49077,4.19508 -3.55435,6.39228 -1.27961,1.94156 -2.77228,3.74086 -4.42549,5.37428 -1.05861,1.00333 -2.14655,1.97937 -3.14901,3.03949 -1.08012,1.33852 -2.39596,2.41364 -3.89947,3.25927 -1.71588,0.8451 -3.42046,1.73865 -5.32766,2.06207 -2.86767,0.71692 -3.88154,-3.33857 -1.01388,-4.05549 z"
       inkscape:connector-curvature="0" />
    <path
       style="fill:#000000;fill-opacity:1;fill-rule:nonzero;stroke:none"
       id="path9433"
       d="m 626.944,280.93346 c 1.34977,1.34976 2.69954,2.69953 4.04931,4.0493 0.34456,0.34456 0.68911,0.68912 1.03367,1.03368 0.57335,0.69495 0.63846,1.32866 0.63017,2.0826 -0.0327,2.95574 -4.21271,2.90955 -4.18005,-0.0462 l 0,0 c 0.0142,-1.28105 0.22939,1.06988 0.59396,0.91951 -0.34456,-0.34456 -0.68912,-0.68912 -1.03368,-1.03367 -1.34976,-1.34977 -2.69953,-2.69954 -4.0493,-4.04931 -2.09015,-2.09015 0.86577,-5.04608 2.95592,-2.95592 z"
       inkscape:connector-curvature="0" />
    <path
       style="fill:#000000;fill-opacity:1;fill-rule:nonzero;stroke:none"
       id="path9437"
       d="m 639.01306,292.44247 c 1.41894,1.6097 2.26638,3.57962 3.37378,5.38115 0.076,0.41807 1.99562,2.23604 0.78907,1.22792 0.78879,-0.27363 1.93315,0.80428 2.38827,1.62899 -0.0749,-0.14759 -0.14984,-0.29519 -0.22477,-0.44278 2.10344,2.07679 -0.83359,5.05149 -2.93702,2.9747 l 0,0 c -0.22869,-0.29941 -0.45738,-0.59883 -0.68607,-0.89824 0.56994,0.7612 -0.0664,0.0145 1.66758,0.88591 0.011,0.006 -1.80089,-0.26599 -1.72348,-0.25265 -1.26732,-0.75625 -2.11036,-1.69036 -2.86501,-2.98456 -1.12082,-1.92047 -2.12003,-3.90003 -3.52133,-5.65095 -1.32193,-2.64386 2.41705,-4.51335 3.73898,-1.86949 z"
       inkscape:connector-curvature="0" />
    <path
       style="fill:#000000;fill-opacity:1;fill-rule:nonzero;stroke:none"
       id="path9439"
       d="m 648.54225,305.31857 c 1.06999,1.06999 2.13997,2.13997 3.20996,3.20996 0.59072,0.55118 -0.18288,-0.1268 -0.1333,-0.10122 0.5992,0.3091 0.9709,0.78701 1.54198,1.07151 0.091,0.0417 0.18202,0.0834 0.27302,0.12516 2.67602,1.25556 0.90039,5.04002 -1.77563,3.78446 l 0,0 c -0.15381,-0.0731 -0.30762,-0.14629 -0.46144,-0.21944 -1.13306,-0.62054 -1.45654,-1.07903 -2.40055,-1.70455 -1.06999,-1.06998 -2.13997,-2.13997 -3.20996,-3.20996 -2.09015,-2.09015 0.86577,-5.04607 2.95592,-2.95592 z"
       inkscape:connector-curvature="0" />
    <path
       style="fill:#000000;fill-opacity:1;fill-rule:nonzero;stroke:none"
       id="path9441"
       d="m 659.98091,315.57517 c 1.77015,1.21849 3.43598,2.59266 5.2166,3.79114 1.11967,0.63758 2.25734,1.13556 3.26468,1.96364 2.2681,1.89557 -0.41263,5.10315 -2.68074,3.20758 l 0,0 c -0.88677,-0.76491 -2.00786,-1.02909 -2.95339,-1.72729 -1.8091,-1.26316 -3.5494,-2.61991 -5.35533,-3.89082 -2.36474,-1.77356 0.14344,-5.1178 2.50818,-3.34425 z"
       inkscape:connector-curvature="0" />
    <path
       inkscape:connector-curvature="0"
       d="m 664.13733,308.25876 c 1.07454,3.27462 2.624,6.41192 4.39087,9.36746 0.94067,1.45085 1.88929,2.91013 3.01098,4.23052 0.19387,0.14501 0.49906,1.46335 0.77095,2.25282 0.0195,0.0526 0.0314,0.10778 0.0481,0.16138 -0.73569,-1.38108 -1.9541,2.01776 -3.11126,2.79548 -0.24684,0.16591 -0.55484,-0.21684 -0.84074,-0.29877 -1.13737,-0.32599 -2.37173,-0.37731 -3.53843,-0.53129 -2.86765,-0.32057 -5.7449,-0.0168 -8.61976,-0.0521 -2.18643,-0.06 -4.05066,-0.69593 -5.84417,-1.90627 -2.38135,-1.75117 0.0952,-5.11893 2.47654,-3.36775 l 0,0 c 0.91661,0.85967 2.22093,0.96037 3.42124,1.09406 3.03897,0.0408 6.08289,-0.29444 9.11323,0.0877 0.3864,0.051 5.3845,0.68995 5.28575,1.05498 -0.33368,1.23339 -1.20762,2.25417 -1.8831,3.33875 -0.0331,0.0522 -0.0654,-0.10498 -0.0982,-0.15739 -0.23881,-0.44388 -0.40308,-0.92131 -0.51091,-1.41377 -0.61486,-3.48222 1.45214,1.52691 0.13788,-0.36011 -1.26366,-1.50159 -2.35753,-3.13861 -3.4107,-4.79163 -1.98778,-3.3581 -3.76715,-6.91058 -4.8912,-10.65577 -0.59988,-2.89443 3.49344,-3.74278 4.09332,-0.84838 z"
       id="path9443"
       style="fill:#000000;fill-opacity:1;fill-rule:nonzero;stroke:none" />
    <path
       style="fill:#000000;fill-opacity:1;fill-rule:nonzero;stroke:none"
       id="path9453"
       d="m 259.62893,57.714387 c 0.92187,3.661401 1.43869,7.379423 1.78506,11.12623 0.34089,4.432941 0.42096,8.878733 0.46425,13.321748 0.009,1.691525 0.007,0.900091 0.01,2.374298 0.005,2.352586 -3.49142,2.359296 -3.4964,0.0064 l 0,0 c -0.003,-1.458942 -2.7e-4,-0.675538 -0.01,-2.350214 -0.0423,-4.35643 -0.11965,-8.715574 -0.45107,-13.062295 -0.32722,-3.572634 -0.81384,-7.118666 -1.69399,-10.609542 -0.59962,-2.282355 2.79239,-3.089289 3.39202,-0.806934 z"
       inkscape:connector-curvature="0" />
    <path
       style="fill:#000000;fill-opacity:1;fill-rule:nonzero;stroke:none"
       id="path9455"
       d="m 255.59622,54.731668 c 2.65518,-0.960014 5.28179,-1.929857 8.04982,-2.567025 2.10941,-0.493979 4.70241,-0.937181 6.05905,1.209249 0.3061,0.484317 0.40532,1.062491 0.60797,1.593735 0.57917,3.739083 -1.84575,6.81714 -4.25961,9.501389 -2.22704,2.015489 -4.76613,3.981439 -7.68167,4.998706 -0.33655,0.05345 -0.67311,0.106909 -1.00966,0.160369 -2.44855,0.325568 -2.9324,-2.969496 -0.48386,-3.295065 l 0,0 c 0.13632,-0.0094 0.27262,-0.01884 0.40894,-0.02826 2.16556,-0.463049 4.43702,-2.719352 6.11602,-4.005898 1.63635,-1.797756 3.64841,-3.950052 3.53062,-6.477105 0.30613,-1.48832 -0.0673,0.557476 0.016,-0.581715 0.004,-0.0625 0.14163,-0.140608 0.0836,-0.170267 -0.72537,-0.370979 -1.85085,0.394861 -2.57122,0.330021 -2.76149,0.625281 -5.35079,1.66061 -8.01799,2.559601 -2.39851,0.570588 -3.24651,-2.657148 -0.848,-3.227737 z"
       inkscape:connector-curvature="0" />
    <path
       style="fill:#000000;fill-opacity:1;fill-rule:nonzero;stroke:none"
       id="path9457"
       d="m 270.74731,69.148992 c 1.89229,-0.387284 3.93065,-0.966488 5.2837,-2.348515 0.30027,-0.515283 0.68625,-1.04286 0.77229,-1.643918 0.008,-0.05738 -0.0502,-0.798633 -0.17212,-0.309142 0.003,0.0588 0.06,0.142361 0.009,0.176392 -0.22044,0.148589 -0.5334,-0.09692 -0.80352,-0.100561 -0.81699,-0.01102 -1.67074,0.408163 -2.39581,0.690589 -2.25631,1.490161 -3.6291,3.677411 -4.58264,6.074693 -0.60458,2.522207 -0.0227,4.378651 2.06916,6.004325 1.78232,1.002984 4.07324,1.703178 6.00883,0.716876 2.26982,-0.932547 3.65575,2.121985 1.38594,3.054532 l 0,0 c -3.48057,1.288057 -6.62482,0.701301 -9.70303,-1.272417 -3.15622,-2.757035 -4.1223,-5.716466 -3.01925,-9.709969 1.35884,-3.253241 3.29112,-6.179017 6.56596,-7.966004 2.58544,-0.933469 5.30739,-1.484731 7.44858,0.597046 1.15378,2.348816 0.45869,4.077503 -1.14202,6.068835 -1.91818,1.696764 -4.29512,2.741548 -6.87752,3.194976 -2.39851,0.570591 -3.24652,-2.657151 -0.848,-3.227738 z"
       inkscape:connector-curvature="0" />
    <path
       style="fill:#000000;fill-opacity:1;fill-rule:nonzero;stroke:none"
       id="path9459"
       d="m 287.51296,68.364395 c 0.2376,2.802284 0.85324,5.540894 1.44628,8.288403 0.31656,1.579322 0.60423,3.164461 0.8347,4.757369 0.19599,1.468334 0.20393,1.354155 -3.41953,1.15055 -0.32079,-0.01799 -0.27028,-0.55488 -0.4054,-0.832313 -1.13976,-2.126497 -1.54825,-4.48448 -1.58228,-6.846427 0.31318,-3.262388 2.41422,-5.774408 4.57397,-8.166523 1.51686,-1.220267 3.22851,-3.345995 5.39803,-3.547291 0.45695,-0.0424 0.91545,0.06782 1.37318,0.101729 0.41547,0.291061 0.83095,0.582121 1.24642,0.873183 1.66868,1.73591 -0.91121,3.981496 -2.57989,2.245586 l 0,0 c 0.17313,0.03896 0.34626,0.07791 0.51939,0.116866 0.12122,-0.04275 0.28275,-0.03231 0.36368,-0.128255 0.14118,-0.167369 -0.22695,-0.0424 -0.98443,0.394204 -0.79407,0.457689 -0.98274,0.610317 -1.71231,1.2357 -0.33273,0.285215 -0.64995,0.586411 -0.97491,0.879615 -1.6035,1.766394 -3.32022,3.607835 -3.72672,5.990459 -0.0342,1.918857 0.3891,3.831235 1.30369,5.549751 0.40927,1.251222 -2.96322,2.798374 -2.8567,1.436371 -0.2194,-1.520553 -0.4952,-3.033433 -0.79579,-4.541188 -0.64028,-2.966355 -1.30108,-5.928326 -1.51778,-8.957789 0,-2.352597 3.4964,-2.352597 3.4964,0 z"
       inkscape:connector-curvature="0" />
    <path
       style="fill:#000000;fill-opacity:1;fill-rule:nonzero;stroke:none"
       id="path9461"
       d="m 303.91673,66.586587 c 0.62368,2.529217 0.79368,5.130666 0.94447,7.716458 0.093,1.941126 0.12971,3.884362 0.14149,5.827334 6.7e-4,0.407983 8.4e-4,0.22297 -1.9e-4,0.555056 -0.008,2.352579 -3.50444,2.341739 -3.49638,-0.01082 l 0,0 c 8.4e-4,-0.311529 8.3e-4,-0.136496 2.3e-4,-0.525098 -0.0114,-1.888112 -0.0467,-3.776455 -0.13623,-5.662792 -0.13747,-2.375756 -0.28351,-4.767206 -0.8454,-7.093176 -0.59963,-2.282355 2.79238,-3.08929 3.39201,-0.806935 z"
       inkscape:connector-curvature="0" />
    <path
       style="fill:#000000;fill-opacity:1;fill-rule:nonzero;stroke:none"
       id="path9463"
       d="m 300.52472,59.980194 c 0.23506,-0.894701 0.47012,-1.789402 0.70518,-2.684104 0.59963,-2.282354 3.99164,-1.47542 3.39201,0.806935 l 0,0 c -0.23506,0.894701 -0.47012,1.789402 -0.70518,2.684103 -0.59963,2.282354 -3.99164,1.47542 -3.39201,-0.806934 z"
       inkscape:connector-curvature="0" />
    <path
       style="fill:#000000;fill-opacity:1;fill-rule:nonzero;stroke:none"
       id="path9465"
       d="m 316.18629,65.51596 c -1.2485,1.870982 -2.05816,3.937499 -2.61151,6.079546 -0.15577,0.234533 -0.56909,3.038567 0.16953,2.837198 1.28883,0.343364 2.3331,0.255545 3.48582,-0.39314 1.11801,-0.971514 1.58588,-2.462276 1.50651,-3.875057 -0.46487,-1.595785 -1.77994,-2.14751 -3.28821,-2.643061 -0.57052,0.01347 -2.33992,-0.872898 -2.74098,-0.27567 0.12352,-0.07579 0.24703,-0.151582 0.37054,-0.227373 0.0155,-0.0014 0.0312,-0.0029 0.0467,-0.0043 -0.86142,2.205175 -4.13873,1.045937 -3.2773,-1.159238 l 0,0 c 0.4536,-0.985966 0.13263,-0.4735 1.07392,-1.469302 1.85764,-0.943206 3.76228,-0.537441 5.70553,0.0035 2.92221,1.020819 5.15461,2.658806 5.60617,5.772511 -0.0702,2.7103 -0.9591,5.234442 -3.40054,6.835118 -2.49025,1.138381 -5.05391,1.376018 -7.46076,-0.120124 -1.82445,-1.8999 -1.75596,-3.669193 -1.18948,-6.086024 0.62861,-2.371026 1.49619,-4.683773 2.87675,-6.762477 1.10566,-2.104227 4.23294,-0.616314 3.12728,1.487912 z"
       inkscape:connector-curvature="0" />
    <path
       style="fill:#000000;fill-opacity:1;fill-rule:nonzero;stroke:none"
       id="path9485"
       d="m 336.91173,67.096921 c -1.93128,0.581201 -3.42218,1.660434 -4.23138,3.430171 -0.64148,1.859674 -0.98942,3.808815 -0.60762,5.741744 0.43757,0.706275 1.4653,0.498881 2.16203,0.282009 2.51577,-1.513311 4.00525,-3.872137 5.15434,-6.410048 1.48394,-4.183797 1.69843,-8.65181 1.58548,-13.030522 -0.40431,-3.82882 -1.26055,-7.797684 -3.27873,-11.179243 0.0831,-0.429307 -1.95892,-1.637587 -1.18683,-0.941131 0.73858,-0.07213 -0.30503,1.792548 -0.44781,2.137447 -0.60261,1.280082 -0.64141,2.691083 -0.70747,4.068874 -0.2246,4.013521 1.31017,7.829836 2.70847,11.541803 1.91937,4.863523 4.00145,9.669068 6.97021,14.042355 0.91,1.291097 1.6068,2.799528 2.98836,3.711167 -0.92775,-0.639101 -1.80238,-0.04139 -2.23578,0.322743 0.39016,-2.323115 3.84275,-1.798065 3.45259,0.52505 l 0,0 c -0.33995,1.697241 -1.49829,2.534925 -3.28328,1.836005 -1.68977,-1.20713 -2.79935,-2.879444 -3.8612,-4.593184 -3.10197,-4.593613 -5.32366,-9.61456 -7.32266,-14.722591 -1.55059,-4.125371 -3.17589,-8.363402 -2.90927,-12.819325 0.088,-1.742502 0.19364,-3.513159 0.94701,-5.132499 0.64901,-1.567102 0.92174,-3.296728 2.69678,-4.104785 2.34676,-0.530397 4.03859,0.648495 5.25282,2.521814 2.21173,3.901009 3.34131,8.308239 3.71229,12.709965 0.10757,4.865461 -0.14758,9.819173 -1.88042,14.445473 -1.62748,3.464003 -3.79402,6.719267 -7.57661,8.314236 -2.78844,0.501778 -5.43903,-0.108862 -6.38442,-2.952308 -0.46028,-2.63555 -0.079,-5.271889 0.90931,-7.773802 1.41351,-2.596318 3.52098,-4.381051 6.52578,-5.199154 2.39852,-0.570589 3.24652,2.657148 0.84801,3.227736 z"
       inkscape:connector-curvature="0" />
    <path
       inkscape:connector-curvature="0"
       d="m 617.05792,52.081651 c 0.92187,3.6614 1.43869,7.379423 1.78506,11.126229 0.34089,4.432937 0.42096,8.878737 0.46425,13.321746 0.009,1.691521 0.007,0.90009 0.01,2.374301 0.005,2.35258 -3.49142,2.35929 -3.4964,0.006 l 0,0 c -0.003,-1.458951 -2.7e-4,-0.67554 -0.01,-2.350221 -0.0423,-4.356419 -0.11965,-8.715571 -0.45107,-13.062289 -0.32722,-3.572634 -0.81384,-7.118666 -1.69399,-10.609542 -0.59962,-2.282354 2.79239,-3.089288 3.39202,-0.806934 z"
       id="path9487"
       style="fill:#000000;fill-opacity:1;fill-rule:nonzero;stroke:none" />
    <path
       inkscape:connector-curvature="0"
       d="m 613.02521,49.098932 c 2.65518,-0.960014 5.28179,-1.929857 8.04982,-2.567025 2.10941,-0.493979 4.70241,-0.937181 6.05905,1.209249 0.3061,0.484317 0.40532,1.06249 0.60797,1.593735 0.57917,3.739083 -1.84575,6.817139 -4.25961,9.501389 -2.22704,2.015489 -4.76613,3.981438 -7.68167,4.998705 -0.33655,0.05345 -0.67311,0.106911 -1.00966,0.160367 -2.44855,0.325569 -2.9324,-2.969494 -0.48386,-3.295063 l 0,0 c 0.13632,-0.0094 0.27262,-0.01884 0.40894,-0.02826 2.16556,-0.463049 4.43702,-2.719351 6.11602,-4.005897 1.63635,-1.797757 3.64841,-3.950053 3.53062,-6.477105 0.30613,-1.48832 -0.0673,0.557475 0.016,-0.581716 0.004,-0.0625 0.14163,-0.140608 0.0836,-0.170267 -0.72537,-0.370979 -1.85085,0.394862 -2.57122,0.330021 -2.76149,0.625282 -5.35079,1.660611 -8.01799,2.559602 -2.39851,0.570588 -3.24651,-2.657148 -0.848,-3.227737 z"
       id="path9489"
       style="fill:#000000;fill-opacity:1;fill-rule:nonzero;stroke:none" />
    <path
       inkscape:connector-curvature="0"
       d="m 628.1763,63.516255 c 1.89229,-0.387284 3.93065,-0.966488 5.2837,-2.348516 0.30027,-0.515282 0.68625,-1.042859 0.77229,-1.643916 0.008,-0.05738 -0.0502,-0.798634 -0.17212,-0.309143 0.003,0.0588 0.06,0.142362 0.009,0.176392 -0.22044,0.148589 -0.5334,-0.09691 -0.80351,-0.100561 -0.817,-0.01102 -1.67075,0.408163 -2.39582,0.690589 -2.2563,1.490161 -3.6291,3.677411 -4.58264,6.07469 -0.60458,2.522217 -0.0227,4.378657 2.06916,6.004337 1.78232,1.00298 4.07324,1.70317 6.00883,0.71686 2.26982,-0.93254 3.65575,2.12199 1.38594,3.054539 l 0,0 c -3.48057,1.28805 -6.62482,0.7013 -9.70303,-1.272419 -3.15622,-2.75704 -4.1223,-5.71647 -3.01925,-9.709971 1.35884,-3.253237 3.29112,-6.179013 6.56596,-7.966 2.58544,-0.933468 5.30739,-1.48473 7.44858,0.597046 1.15378,2.348816 0.45869,4.077503 -1.14202,6.068835 -1.91818,1.696762 -4.29512,2.74155 -6.87752,3.194974 -2.39851,0.57059 -3.24652,-2.657148 -0.848,-3.227736 z"
       id="path9491"
       style="fill:#000000;fill-opacity:1;fill-rule:nonzero;stroke:none" />
    <path
       inkscape:connector-curvature="0"
       d="m 644.94195,62.731658 c 0.2376,2.802282 0.85324,5.540889 1.44628,8.288399 0.31656,1.57932 0.60423,3.16446 0.8347,4.757369 0.19599,1.46833 0.20393,1.35416 -3.41953,1.15055 -0.32079,-0.018 -0.27028,-0.55488 -0.4054,-0.83231 -1.13976,-2.126499 -1.54825,-4.484479 -1.58228,-6.846419 0.31318,-3.262399 2.41422,-5.774415 4.57397,-8.16653 1.51686,-1.220267 3.22851,-3.345995 5.39803,-3.54729 0.45695,-0.0424 0.91545,0.06782 1.37318,0.101728 0.41547,0.291061 0.83095,0.582122 1.24642,0.873183 1.66868,1.73591 -0.91121,3.981496 -2.57989,2.245586 l 0,0 c 0.17313,0.03896 0.34626,0.07791 0.51939,0.116866 0.12122,-0.04275 0.28275,-0.03231 0.36368,-0.128254 0.14118,-0.16737 -0.22695,-0.0424 -0.98443,0.394203 -0.79407,0.457689 -0.98274,0.610317 -1.71231,1.2357 -0.33273,0.285215 -0.64995,0.586411 -0.97491,0.879615 -1.6035,1.766396 -3.32022,3.607831 -3.72672,5.990453 -0.0342,1.91886 0.3891,3.83125 1.30369,5.54975 0.40927,1.251229 -2.96322,2.798379 -2.8567,1.436369 -0.2194,-1.520549 -0.4952,-3.033419 -0.79579,-4.541179 -0.64028,-2.96635 -1.30108,-5.92833 -1.51778,-8.957789 0,-2.352597 3.4964,-2.352597 3.4964,0 z"
       id="path9493"
       style="fill:#000000;fill-opacity:1;fill-rule:nonzero;stroke:none" />
    <path
       inkscape:connector-curvature="0"
       d="m 661.34572,60.95385 c 0.62368,2.529217 0.79368,5.130662 0.94447,7.716467 0.093,1.94112 0.12971,3.88435 0.14149,5.82732 6.7e-4,0.40798 8.4e-4,0.22297 -1.9e-4,0.55506 -0.008,2.352579 -3.50444,2.341739 -3.49638,-0.0108 l 0,0 c 8.4e-4,-0.31153 8.3e-4,-0.1365 2.3e-4,-0.5251 -0.0114,-1.8881 -0.0467,-3.77645 -0.13623,-5.66279 -0.13747,-2.375759 -0.28351,-4.767202 -0.8454,-7.093175 -0.59963,-2.282355 2.79238,-3.089289 3.39201,-0.806934 z"
       id="path9495"
       style="fill:#000000;fill-opacity:1;fill-rule:nonzero;stroke:none" />
    <path
       inkscape:connector-curvature="0"
       d="m 657.95371,54.347457 c 0.23506,-0.894701 0.47012,-1.789402 0.70518,-2.684104 0.59963,-2.282354 3.99164,-1.47542 3.39201,0.806935 l 0,0 c -0.23506,0.894701 -0.47012,1.789402 -0.70518,2.684103 -0.59963,2.282354 -3.99164,1.47542 -3.39201,-0.806934 z"
       id="path9497"
       style="fill:#000000;fill-opacity:1;fill-rule:nonzero;stroke:none" />
    <path
       inkscape:connector-curvature="0"
       d="m 673.61528,59.883223 c -1.2485,1.870982 -2.05816,3.937499 -2.61151,6.079544 -0.15577,0.234538 -0.56909,3.03857 0.16953,2.8372 1.28883,0.34336 2.3331,0.25554 3.48582,-0.39314 1.11801,-0.971517 1.58588,-2.462278 1.50651,-3.875059 -0.46487,-1.595783 -1.77994,-2.147508 -3.28821,-2.643059 -0.57052,0.01347 -2.33992,-0.872898 -2.74098,-0.27567 0.12352,-0.07579 0.24703,-0.151582 0.37054,-0.227373 0.0156,-0.0014 0.0312,-0.0029 0.0467,-0.0043 -0.86142,2.205175 -4.13873,1.045938 -3.2773,-1.159237 l 0,0 c 0.4536,-0.985966 0.13263,-0.473501 1.07392,-1.469302 1.85764,-0.943206 3.76228,-0.537441 5.70553,0.0035 2.92221,1.020819 5.15461,2.658805 5.60617,5.772511 -0.0702,2.710296 -0.9591,5.234449 -3.40054,6.835109 -2.49025,1.13839 -5.05391,1.37603 -7.46076,-0.12011 -1.82445,-1.89991 -1.75596,-3.669202 -1.18948,-6.086034 0.62861,-2.371021 1.49619,-4.683769 2.87675,-6.762473 1.10566,-2.104227 4.23294,-0.616313 3.12728,1.487913 z"
       id="path9499"
       style="fill:#000000;fill-opacity:1;fill-rule:nonzero;stroke:none" />
    <path
       inkscape:connector-curvature="0"
       d="m 694.34072,61.464184 c -1.93128,0.581201 -3.42218,1.660434 -4.23138,3.430171 -0.64148,1.859671 -0.98942,3.808822 -0.60762,5.741742 0.43757,0.70628 1.4653,0.49889 2.16203,0.28201 2.51577,-1.51331 4.00525,-3.872134 5.15434,-6.410051 1.48394,-4.183792 1.69843,-8.651806 1.58548,-13.030518 -0.40431,-3.82882 -1.26055,-7.797684 -3.27873,-11.179242 0.0831,-0.429307 -1.95892,-1.637588 -1.18683,-0.941132 0.73858,-0.07213 -0.30503,1.792549 -0.44781,2.137447 -0.60261,1.280083 -0.64141,2.691084 -0.70747,4.068875 -0.2246,4.01352 1.31017,7.829835 2.70847,11.541803 1.91937,4.863522 4.00145,9.669065 6.97021,14.042348 0.91,1.2911 1.6068,2.79953 2.98836,3.71117 -0.92775,-0.6391 -1.80238,-0.0414 -2.23578,0.32274 0.39016,-2.32311 3.84275,-1.79806 3.45259,0.525049 l 0,0 c -0.33995,1.69724 -1.49828,2.534931 -3.28328,1.83601 -1.68977,-1.20713 -2.79935,-2.879449 -3.8612,-4.593189 -3.10197,-4.5936 -5.32366,-9.614553 -7.32266,-14.722583 -1.55059,-4.125372 -3.17589,-8.363403 -2.90927,-12.819325 0.088,-1.742502 0.19364,-3.513159 0.94701,-5.1325 0.64901,-1.567101 0.92174,-3.296728 2.69678,-4.104784 2.34676,-0.530398 4.03859,0.648495 5.25282,2.521814 2.21173,3.901008 3.34131,8.308239 3.71229,12.709965 0.10757,4.865461 -0.14758,9.819172 -1.88042,14.44547 -1.62748,3.464013 -3.79402,6.719273 -7.57661,8.314233 -2.78844,0.50178 -5.43903,-0.10886 -6.38442,-2.95231 -0.46028,-2.63555 -0.079,-5.271886 0.90931,-7.773795 1.41351,-2.596318 3.52098,-4.38105 6.52578,-5.199154 2.39852,-0.570589 3.24652,2.657148 0.84801,3.227736 z"
       id="path9501"
       style="fill:#000000;fill-opacity:1;fill-rule:nonzero;stroke:none" />
    <path
       style="fill:#000000;fill-opacity:1;fill-rule:nonzero;stroke:none"
       id="path9507"
       d="m 370.26121,46.051239 c 0.24376,4.258386 0.64303,8.512427 0.84287,12.779302 0.22724,5.762035 0.28649,11.528323 0.32049,17.293809 0.01,1.971855 0.0122,3.943735 0.008,5.915606 -0.005,2.352586 -3.50101,2.346378 -3.49639,-0.0064 l 0,0 c 0.004,-1.963578 0.002,-3.927172 -0.008,-5.890735 -0.0337,-5.72238 -0.0922,-11.445567 -0.3171,-17.16455 -0.20155,-4.316265 -0.61393,-8.6182 -0.84631,-12.927217 0,-2.352597 3.4964,-2.352597 3.4964,0 z"
       inkscape:connector-curvature="0" />
    <path
       style="fill:#000000;fill-opacity:1;fill-rule:nonzero;stroke:none"
       id="path9517"
       d="m 368.90414,46.322047 c -0.43191,2.695354 -2.04138,4.938967 -3.50878,7.205887 -1.07255,1.691585 -2.12404,3.389649 -3.10696,5.130084 -1.17095,2.072001 -4.25033,0.49623 -3.07938,-1.575771 l 0,0 c 1.01632,-1.797257 2.10092,-3.552537 3.20952,-5.299448 1.28119,-1.978522 2.73824,-3.905872 3.09359,-6.267685 0.59963,-2.282355 3.99164,-1.475421 3.39201,0.806933 z"
       inkscape:connector-curvature="0" />
    <path
       style="fill:#000000;fill-opacity:1;fill-rule:nonzero;stroke:none"
       id="path9519"
       d="m 364.83278,79.395532 c 2.72568,0.545314 5.5221,0.76954 8.30248,0.670165 2.72766,-0.0694 5.4394,-0.724692 8.1677,-0.582155 2.46409,0.191889 2.17891,3.50788 -0.28518,3.31599 l 0,0 c -2.53222,-0.355485 -5.21513,0.768689 -7.76773,0.591444 -3.10508,0.08547 -6.22505,-0.130654 -9.26527,-0.767702 -2.39852,-0.570591 -1.55051,-3.798326 0.848,-3.227742 z"
       inkscape:connector-curvature="0" />
    <path
       style="fill:#000000;fill-opacity:1;fill-rule:nonzero;stroke:none"
       id="path9547"
       d="m 718.17485,44.016384 c -0.36197,1.171068 -0.53377,2.40151 -0.99231,3.543513 -0.87796,-0.706005 -1.96921,-1.225619 -2.63389,-2.118014 -0.17217,-0.231151 0.38508,-0.43244 0.56744,-0.656396 0.22294,-0.273787 0.41846,-0.567543 0.64805,-0.836316 1.31482,-1.539288 2.85079,-2.773869 4.44773,-4.037913 3.09015,-2.118157 7.25319,-4.987143 11.28608,-4.881122 0.74216,0.0195 1.45572,0.278698 2.18357,0.418051 0.63278,0.485239 1.40319,0.842516 1.89836,1.455711 2.97949,3.68967 0.81691,10.30427 -0.33449,14.229453 -1.75005,5.761817 -4.38236,11.19649 -7.38249,16.4506 -1.64781,3.022776 -3.41363,6.008556 -5.45221,8.809755 -0.63697,0.77482 -1.35593,1.466631 -1.75224,2.386221 0.12591,-0.18592 -0.074,0.14582 -0.0385,0.12084 0.67721,-0.47528 -0.88449,-1.370341 -1.43269,-1.977821 2.2666,-0.68526 4.64878,-1.579659 6.93982,-2.339309 5.5588,-1.98981 11.38606,-3.09293 17.25034,-3.86365 1.89966,-0.20534 3.80216,-0.45143 5.71574,-0.50367 0.82857,-0.082 -1.15409,0.4142 -1.45806,1.16515 0.28895,-2.33648 3.76139,-1.94763 3.47245,0.38885 l 0,0 c -0.30345,1.13184 -0.36076,1.13661 -1.91995,1.77186 -1.78547,0.0419 -3.5599,0.29259 -5.33267,0.47371 -5.63583,0.73794 -11.23706,1.792399 -16.57752,3.70961 -2.70443,0.89647 -5.4411,2.17031 -8.283,2.51946 -1.58179,-1.44043 -2.16425,-1.30598 -1.55095,-2.772891 0.51132,-1.1158 1.25955,-2.071599 2.10061,-2.983329 1.98894,-2.68157 3.63899,-5.59546 5.24692,-8.493819 2.87756,-5.034562 5.40795,-10.239317 7.0882,-15.761236 1.0531,-3.543887 2.72223,-8.009218 0.90486,-11.569882 -3.159,-1.321349 -7.89581,2.17359 -10.34112,3.809094 -1.75422,1.377841 -3.24152,2.723576 -4.62869,4.428529 -0.16072,0.197533 -0.24353,0.624219 -0.5015,0.577866 -1.17378,-0.21092 -2.21835,-0.843941 -3.32751,-1.265915 0.16367,-0.566644 0.56039,-2.108423 0.79755,-3.003922 0.59964,-2.282357 3.99164,-1.475417 3.39201,0.806932 z"
       inkscape:connector-curvature="0" />
    <path
       style="fill:#000000;fill-opacity:1;fill-rule:nonzero;stroke:none"
       id="path9549"
       d="m 248.86089,42.994973 c -0.56089,2.271426 -0.71299,4.603966 -0.84532,6.926016 -0.0696,2.881674 -0.11203,5.741153 -0.48125,8.604374 -0.21726,1.580848 -0.8552,3.042365 -1.49473,4.498639 -0.95931,2.168278 -4.18178,0.877321 -3.22248,-1.290957 l 0,0 c 0.52282,-1.171423 1.06295,-2.339837 1.24705,-3.614504 0.36246,-2.787604 0.38137,-5.572474 0.46018,-8.378498 0.14559,-2.533028 0.32359,-5.076215 0.94455,-7.552004 0.59962,-2.282354 3.99164,-1.47542 3.392,0.806934 z"
       inkscape:connector-curvature="0" />
    <path
       style="fill:#000000;fill-opacity:1;fill-rule:nonzero;stroke:none"
       id="path9551"
       d="m 239.82301,42.956574 c 1.42393,2.611313 1.51144,5.449469 1.44621,8.318858 -0.0862,2.089216 0.006,1.032767 -0.28624,3.168627 -0.33055,2.331474 -3.79556,1.886639 -3.46501,-0.444836 l 0,0 c 0.26647,-1.802832 0.17551,-0.87044 0.25573,-2.798643 0.0575,-2.331489 0.0835,-4.624781 -1.07797,-6.756092 -1.10566,-2.104227 2.02162,-3.592141 3.12728,-1.487914 z"
       inkscape:connector-curvature="0" />
    <path
       style="fill:#000000;fill-opacity:1;fill-rule:nonzero;stroke:none"
       id="path9553"
       d="m 383.17563,39.6295 c 1.37876,2.668277 1.09112,5.412359 0.006,8.098874 -0.523,1.166801 -1.28684,2.208584 -1.98126,3.284538 -1.29405,2.004599 -4.27326,0.263165 -2.97922,-1.741434 l 0,0 c 0.59111,-0.915482 1.24614,-1.797949 1.71441,-2.779367 0.78875,-1.768575 1.03058,-3.585626 0.11316,-5.374698 -1.10566,-2.104227 2.02162,-3.59214 3.12728,-1.487913 z"
       inkscape:connector-curvature="0" />
    <path
       style="fill:#000000;fill-opacity:1;fill-rule:nonzero;stroke:none"
       id="path9555"
       d="m 394.73606,39.39709 c -0.25169,3.000702 -1.13127,5.891872 -2.06726,8.751221 -0.19824,0.495245 -0.39647,0.990489 -0.59471,1.485734 -0.88499,2.196711 -4.14971,1.005773 -3.26473,-1.19094 l 0,0 c 0.17376,-0.428138 0.34752,-0.856277 0.52128,-1.284415 0.83227,-2.541553 1.62308,-5.1017 1.90901,-7.7616 0,-2.352598 3.49641,-2.352598 3.49641,0 z"
       inkscape:connector-curvature="0" />
    <path
       style="fill:#000000;fill-opacity:1;fill-rule:nonzero;stroke:none"
       id="path9557"
       d="m 603.07935,40.650913 c 1.45255,2.521865 2.31585,5.263876 2.89638,8.070479 0.35347,1.781353 0.48284,3.590767 0.52566,5.399979 0.005,0.531836 0.005,0.285757 0.003,0.738232 -0.008,2.352586 -3.50403,2.342304 -3.49638,-0.01028 l 0,0 c 0.002,-0.397251 0.002,-0.179193 -0.003,-0.654169 -0.0371,-1.620342 -0.14736,-3.241314 -0.46192,-4.837164 -0.5093,-2.514021 -1.28541,-4.96511 -2.59186,-7.219163 -1.10566,-2.104227 2.02162,-3.59214 3.12728,-1.487913 z"
       inkscape:connector-curvature="0" />
    <path
       style="fill:#000000;fill-opacity:1;fill-rule:nonzero;stroke:none"
       id="path9559"
       d="m 594.733,43.412987 c 1.8584,1.899645 3.11674,4.102781 3.95802,6.553769 0.48984,1.61511 0.63392,3.28846 0.74926,4.956917 0.15962,2.347688 -3.32948,2.562506 -3.48911,0.214818 l 0,0 c -0.0932,-1.396829 -0.19961,-2.799539 -0.58973,-4.156293 -0.64333,-1.958691 -1.64413,-3.68732 -3.10077,-5.216615 -1.7482,-1.663537 0.72413,-4.016133 2.47233,-2.352596 z"
       inkscape:connector-curvature="0" />
    <path
       style="fill:#000000;fill-opacity:1;fill-rule:nonzero;stroke:none"
       id="path9561"
       d="m 753.33051,30.437279 c 0.153,2.386332 -0.81767,4.50423 -1.87734,6.598432 -1.38451,2.40032 -2.85064,4.764807 -3.96839,7.291907 -0.40435,0.861608 -0.6472,1.77364 -0.88576,2.685089 -0.60291,2.281573 -3.99376,1.470231 -3.39086,-0.811341 l 0,0 c 0.28675,-1.076557 0.58394,-2.152724 1.05759,-3.172455 1.15245,-2.570429 2.60122,-5.001822 4.03726,-7.436743 0.83325,-1.646241 1.68361,-3.266703 1.5311,-5.154889 0,-2.352597 3.4964,-2.352597 3.4964,0 z"
       inkscape:connector-curvature="0" />
    <path
       style="fill:#000000;fill-opacity:1;fill-rule:nonzero;stroke:none"
       id="path9563"
       d="m 761.29719,32.926137 c -1.08124,3.04706 -2.80578,5.840527 -4.6192,8.537161 -1.34056,1.982805 -2.62118,3.993565 -3.78603,6.07461 -1.16287,2.076115 -4.24837,0.511214 -3.0855,-1.564902 l 0,0 c 1.21011,-2.159087 2.53678,-4.247944 3.92822,-6.305575 1.61564,-2.392394 3.1432,-4.866769 4.17049,-7.548228 0.59963,-2.282354 3.99164,-1.47542 3.39202,0.806934 z"
       inkscape:connector-curvature="0" />
    <path
       style="fill:#000000;fill-opacity:1;fill-rule:nonzero;stroke:none"
       id="path9571"
       d="m 624.06159,100.60812 c -2.49836,-0.910541 -5.12546,-1.206641 -7.78318,-1.147991 -1.06171,0.11336 -2.95581,0.53651 -2.48783,1.889951 1.75966,2.06005 4.3411,3.31583 6.73426,4.60569 3.71155,1.93356 6.41071,3.33985 8.43201,6.96124 1.41558,4.01955 -0.71389,6.24935 -4.20444,8.24962 -2.70005,1.16165 -6.07639,1.80497 -8.6605,-0.004 -0.43762,-0.3064 -0.76579,-0.73153 -1.14869,-1.09729 -1.16776,-1.39551 -1.221,-2.5981 -1.07286,-4.2896 0.34184,-2.10407 3.49831,-1.64833 3.15647,0.45574 l 0,0 c -0.29342,0.69267 -0.16364,1.16222 0.27448,1.804 1.53272,1.88117 3.73848,1.34621 5.823,0.54182 1.80457,-0.973 3.65373,-2.08845 2.98689,-4.29412 -1.52684,-2.97058 -4.23219,-4.12737 -7.17284,-5.7146 -2.64994,-1.43182 -6.23073,-3.00608 -7.7747,-5.65781 -0.2702,-0.46405 -0.37709,-0.99725 -0.56563,-1.49588 0.0244,-0.46791 -0.0394,-0.94743 0.0733,-1.4037 0.59318,-2.403241 3.22846,-3.340251 5.54089,-3.560391 3.08599,-0.0537 6.13895,0.29828 9.03539,1.36264 2.09648,0.79054 0.91053,3.585531 -1.18596,2.794991 z"
       inkscape:connector-curvature="0" />
    <path
       style="fill:#000000;fill-opacity:1;fill-rule:nonzero;stroke:none"
       id="path9577"
       d="m 637.49528,102.88193 c -1.41971,1.79583 -2.19862,4.02214 -2.51574,6.22009 -0.11419,2.40385 1.03544,4.37411 3.54561,5.01093 2.74917,0.24605 3.65008,-2.01197 4.33647,-4.09999 0.53084,-2.42498 -0.44216,-4.60591 -2.507,-6.06522 -1.74672,-1.07532 -2.14212,-0.29713 -0.87801,-1.04244 0.0931,-0.41135 0.18611,-0.8227 0.27917,-1.23405 0.67192,2.03217 -2.3767,2.92796 -3.04862,0.89579 l 0,0 c 0.0685,-0.48545 0.13712,-0.97091 0.20568,-1.45636 2.1367,-1.547501 3.34195,-0.749 5.4392,0.48837 3.02353,2.37831 4.46344,5.62552 3.54613,9.34539 -1.42113,3.97472 -3.48853,6.73116 -8.41266,6.01479 -0.58765,-0.213 -1.21051,-0.35433 -1.76296,-0.639 -2.9627,-1.52667 -4.07025,-4.66016 -3.90129,-7.66262 0.47686,-2.82343 1.44469,-5.6717 3.41603,-7.90428 1.59664,-1.505161 3.85463,0.62344 2.25799,2.1286 z"
       inkscape:connector-curvature="0" />
    <path
       style="fill:#000000;fill-opacity:1;fill-rule:nonzero;stroke:none"
       id="path9579"
       d="m 655.47202,84.704139 c 0.69627,4.64753 0.73819,9.35969 0.84797,14.04463 0.0586,5.249361 0.36055,10.503411 1.18417,15.697241 0.21526,1.3334 0.44923,2.66396 0.68652,3.99399 0.37446,2.09912 -2.7746,2.59835 -3.14906,0.49923 l 0,0 c -0.2405,-1.34835 -0.47767,-2.69724 -0.69578,-4.04901 -0.84027,-5.31942 -1.15992,-10.69886 -1.21835,-16.075041 -0.10545,-4.50981 -0.14787,-9.04359 -0.78674,-13.52067 -0.44282,-2.08726 2.68845,-2.67763 3.13127,-0.59037 z"
       inkscape:connector-curvature="0" />
    <path
       style="fill:#000000;fill-opacity:1;fill-rule:nonzero;stroke:none"
       id="path9581"
       d="m 665.05185,100.75907 c 0.58198,3.45618 0.60428,6.95053 1.25466,10.39823 0.53504,1.87002 0.70245,5.40522 3.11546,6.13265 1.61711,-1.49354 2.66597,-3.23393 3.52404,-5.19397 1.22849,-2.83659 1.96013,-5.81773 2.46967,-8.83377 0.005,-0.40884 0.16171,-0.80975 0.1676,-1.21966 0.005,-0.38508 -0.14546,0.51808 0.14784,0.62126 0.42965,0.15116 0.88858,0.21432 1.33287,0.32147 0.29973,-0.19301 0.54792,-0.49276 0.89918,-0.57902 0.0128,-0.003 -0.0519,0.2815 -0.10419,1.14718 -0.0798,1.31953 -0.0901,2.64207 -0.11128,3.96319 0.0114,2.34057 0.97925,4.37355 2.52314,6.15857 0.0395,-0.0181 0.73017,0.98432 0.87419,0.46948 2.25329,0.13724 2.0474,3.14128 -0.2059,3.00403 l 0,0 c -1.373,-0.22954 -2.31395,-0.49003 -3.1709,-1.60374 -1.95035,-2.36637 -3.2269,-5.01735 -3.21344,-8.07395 0.0174,-1.08186 -0.15154,-5.1596 0.38486,-6.03319 0.30511,-0.49691 0.7786,-0.8831 1.16791,-1.32465 0.55108,0.0756 1.12656,0.0562 1.65325,0.22666 1.20827,0.39111 0.99161,2.51851 0.80818,3.39713 -0.55267,3.25367 -1.35092,6.46853 -2.67998,9.52726 -1.12994,2.48898 -2.8991,6.29862 -6.17051,6.83245 -0.57623,0.094 -1.16618,-0.084 -1.74928,-0.12599 -0.43719,-0.23964 -0.91571,-0.42222 -1.31156,-0.71892 -2.38308,-1.78624 -2.89644,-4.96474 -3.49622,-7.57338 -0.63228,-3.42759 -0.71321,-6.88977 -1.24085,-10.32896 -0.44283,-2.087261 2.68844,-2.677631 3.13126,-0.59036 z"
       inkscape:connector-curvature="0" />
    <path
       style="fill:#000000;fill-opacity:1;fill-rule:nonzero;stroke:none"
       id="path9583"
       d="m 686.3237,80.500519 c 0.66391,3.32495 1.25506,6.66597 1.79139,10.01216 0.93194,5.82646 0.92444,11.726951 1.36963,17.590241 0.30475,3.32816 0.62178,6.65525 0.90765,9.98492 0.059,0.7013 0.0326,0.38366 0.0794,0.95292 0.17444,2.12224 -3.00929,2.3548 -3.18373,0.23256 l 0,0 c -0.0462,-0.56223 -0.0202,-0.24801 -0.0786,-0.94263 -0.28669,-3.33934 -0.60514,-6.67603 -0.91001,-10.01391 -0.43497,-5.78504 -0.43421,-11.605551 -1.34194,-17.354921 -0.51991,-3.25213 -1.10065,-6.49755 -1.73179,-9.73124 -0.54764,-2.06505 2.55029,-2.79515 3.09793,-0.7301 z"
       inkscape:connector-curvature="0" />
    <path
       style="fill:#000000;fill-opacity:1;fill-rule:nonzero;stroke:none"
       id="path9585"
       d="m 681.49778,103.83373 c 3.18007,-1.17611 6.51181,-1.77722 9.8337,-2.4613 2.34721,-0.46603 4.67658,-1.02381 7.05915,-1.30717 0.51154,-0.0562 1.02526,-0.0882 1.53923,-0.115191 2.25459,-0.11674 2.42973,2.889021 0.17514,3.005771 l 0,0 c -0.44085,0.0225 -0.88147,0.0497 -1.32032,0.0967 -2.28732,0.26343 -4.5182,0.82698 -6.77264,1.26102 -3.14997,0.64686 -6.3125,1.20015 -9.32831,2.31514 -2.09649,0.79054 -3.28245,-2.00444 -1.18595,-2.79498 z"
       inkscape:connector-curvature="0" />
    <path
       style="fill:#000000;fill-opacity:1;fill-rule:nonzero;stroke:none"
       id="path9587"
       d="m 703.35452,104.5829 c 0.93559,2.5871 1.37974,5.29179 1.72513,7.99535 0.16401,1.644 0.0936,0.85806 0.21541,2.3575 0.17199,2.12241 -3.01201,2.35172 -3.184,0.22931 l 0,0 c -0.11491,-1.42193 -0.0487,-0.67924 -0.20189,-2.22782 -0.32775,-2.57979 -0.75462,-5.15715 -1.65259,-7.62423 -0.54764,-2.06505 2.55029,-2.79516 3.09794,-0.73011 z"
       inkscape:connector-curvature="0" />
    <path
       style="fill:#000000;fill-opacity:1;fill-rule:nonzero;stroke:none"
       id="path9589"
       d="m 701.14601,91.826509 c 0,-1.37073 0,-2.74146 0,-4.11218 0,-2.12861 3.19328,-2.12861 3.19328,0 l 0,0 c 0,1.37072 0,2.74145 0,4.11218 0,2.1286 -3.19328,2.1286 -3.19328,0 z"
       inkscape:connector-curvature="0" />
    <path
       style="fill:#000000;fill-opacity:1;fill-rule:nonzero;stroke:none"
       id="path9591"
       d="m 711.79027,101.05425 c -0.01,2.81345 -0.13465,5.61171 0.40578,8.38853 0.5927,1.69887 1.10481,3.99896 3.47925,3.4531 2.26015,-1.23937 2.7518,-3.9182 3.00032,-6.17289 0.0176,-2.15856 -0.76472,-4.00878 -2.77682,-5.0956 -1.02892,-0.21487 -2.20572,-0.15915 -3.13552,0.0839 -0.29084,0.65945 0.29377,-0.79599 0.1686,-1.19221 0.0351,-0.003 0.0701,-0.006 0.10516,-0.009 1.99738,0.99275 0.50808,3.6556 -1.4893,2.66285 l 0,0 c -0.26675,-0.15285 -0.53351,-0.30569 -0.80027,-0.45854 -1.3728,-1.50082 -1.04607,-2.784461 0.71466,-3.752651 1.99153,-0.68727 4.15411,-0.62025 6.13282,0.11466 3.13926,1.947731 4.30233,4.449851 4.2529,7.991251 -0.49224,3.73495 -1.69663,7.57114 -5.8984,8.82697 -0.57657,0.0161 -1.15993,0.13316 -1.72971,0.0485 -3.13205,-0.46572 -4.45457,-3.43505 -5.16772,-5.97404 -0.54244,-2.95658 -0.49921,-5.92183 -0.45503,-8.91522 0,-2.128601 3.19328,-2.128601 3.19328,0 z"
       inkscape:connector-curvature="0" />
    <path
       style="fill:#000000;fill-opacity:1;fill-rule:nonzero;stroke:none"
       id="path9595"
       d="m 729.98183,102.76593 c 0.32199,2.30887 0.8051,4.58015 1.29823,6.86056 0.34481,1.64973 0.56354,3.31824 0.70144,4.99366 0.0224,0.34467 0.0562,0.69004 0.0374,1.03551 -0.71485,-0.51763 -1.377,-1.10734 -2.14454,-1.55288 -0.0918,-0.0533 -0.17894,0.13275 -0.28632,0.14183 -0.18445,0.0156 0.0384,-0.34737 0.0649,-0.52015 0.0884,-0.57604 0.091,-0.74757 0.14173,-1.35596 0.34994,-2.62311 1.45128,-5.03896 2.89022,-7.28114 1.17124,-1.93437 2.91997,-3.19477 5.13445,-3.87674 2.51452,-0.51828 3.88235,0.19833 5.08524,2.28603 0.88852,2.4769 0.65518,5.12516 0.95033,7.68788 0.20075,1.62544 0.49253,3.30936 1.86117,4.41069 0.56868,0.28253 1.17431,0.35153 1.80179,0.27139 2.25568,-0.0962 2.39997,2.91104 0.14429,3.00722 l 0,0 c -1.50796,0.0137 -2.86412,-0.15499 -4.10049,-1.05664 -1.89625,-1.69305 -2.64923,-3.89082 -2.88254,-6.31798 -0.24335,-2.24503 -0.12029,-4.53517 -0.67458,-6.74243 -0.0975,-0.64277 -0.56824,-0.81924 -1.22232,-0.67598 -1.5006,0.42376 -2.59912,1.26189 -3.3714,2.57446 -1.19694,1.83043 -2.11093,3.81073 -2.43333,5.95655 -0.0506,0.57328 -0.47205,4.26494 -1.50354,4.09632 -0.97522,-0.15941 -1.75933,-0.85539 -2.639,-1.28308 -0.0118,-0.19099 -0.0261,-0.38183 -0.0372,-0.57285 -0.12675,-1.55162 -0.32843,-3.09673 -0.64666,-4.6247 -0.49331,-2.28356 -0.98075,-4.55905 -1.30052,-6.8712 -0.44282,-2.08727 2.68844,-2.67763 3.13127,-0.59037 z"
       inkscape:connector-curvature="0" />
    <path
       inkscape:connector-curvature="0"
       d="m 263.16184,106.18186 c -2.49836,-0.91054 -5.12546,-1.20664 -7.78318,-1.14799 -1.06171,0.11336 -2.95581,0.53651 -2.48783,1.88995 1.75966,2.06006 4.3411,3.31584 6.73426,4.6057 3.71155,1.93356 6.41071,3.33985 8.43201,6.96124 1.41558,4.01955 -0.71389,6.24935 -4.20444,8.24962 -2.70005,1.16165 -6.07639,1.80497 -8.6605,-0.004 -0.43762,-0.3064 -0.76579,-0.73153 -1.14869,-1.09729 -1.16776,-1.39551 -1.221,-2.5981 -1.07286,-4.2896 0.34184,-2.10407 3.49831,-1.64833 3.15647,0.45574 l 0,0 c -0.29342,0.69267 -0.16364,1.16222 0.27448,1.804 1.53272,1.88117 3.73848,1.34621 5.823,0.54182 1.80457,-0.973 3.65373,-2.08845 2.98689,-4.29412 -1.52684,-2.97058 -4.23219,-4.12737 -7.17284,-5.7146 -2.64994,-1.43182 -6.23073,-3.00608 -7.7747,-5.65781 -0.2702,-0.46405 -0.37709,-0.99725 -0.56563,-1.49588 0.0244,-0.46792 -0.0394,-0.94744 0.0733,-1.40371 0.59318,-2.40324 3.22846,-3.34025 5.54089,-3.56039 3.08599,-0.0537 6.13895,0.29828 9.03539,1.36264 2.09648,0.79054 0.91053,3.58554 -1.18596,2.79499 z"
       id="path9597"
       style="fill:#000000;fill-opacity:1;fill-rule:nonzero;stroke:none" />
    <path
       inkscape:connector-curvature="0"
       d="m 276.59553,108.45568 c -1.41971,1.79583 -2.19862,4.02214 -2.51574,6.22009 -0.11419,2.40385 1.03544,4.37411 3.54561,5.01093 2.74917,0.24605 3.65008,-2.01197 4.33647,-4.09999 0.53084,-2.42498 -0.44216,-4.60591 -2.507,-6.06522 -1.74672,-1.07532 -2.14212,-0.29713 -0.87801,-1.04244 0.0931,-0.41135 0.18611,-0.8227 0.27917,-1.23405 0.67192,2.03217 -2.3767,2.92796 -3.04862,0.89579 l 0,0 c 0.0685,-0.48545 0.13712,-0.97091 0.20568,-1.45637 2.1367,-1.5475 3.34195,-0.749 5.4392,0.48838 3.02353,2.37831 4.46344,5.62552 3.54613,9.34539 -1.42113,3.97472 -3.48853,6.73116 -8.41266,6.01479 -0.58765,-0.213 -1.21051,-0.35433 -1.76296,-0.639 -2.9627,-1.52667 -4.07025,-4.66016 -3.90129,-7.66262 0.47686,-2.82343 1.44469,-5.6717 3.41603,-7.90429 1.59664,-1.50516 3.85463,0.62344 2.25799,2.12861 z"
       id="path9599"
       style="fill:#000000;fill-opacity:1;fill-rule:nonzero;stroke:none" />
    <path
       inkscape:connector-curvature="0"
       d="m 294.57227,90.277882 c 0.69627,4.64753 0.73819,9.35969 0.84797,14.044628 0.0586,5.24937 0.36055,10.50342 1.18417,15.69725 0.21526,1.3334 0.44923,2.66396 0.68652,3.99399 0.37446,2.09912 -2.7746,2.59835 -3.14906,0.49923 l 0,0 c -0.2405,-1.34835 -0.47767,-2.69724 -0.69578,-4.04901 -0.84027,-5.31942 -1.15992,-10.69886 -1.21835,-16.07505 -0.10545,-4.509808 -0.14787,-9.043588 -0.78674,-13.520668 -0.44282,-2.08726 2.68845,-2.67763 3.13127,-0.59037 z"
       id="path9601"
       style="fill:#000000;fill-opacity:1;fill-rule:nonzero;stroke:none" />
    <path
       inkscape:connector-curvature="0"
       d="m 304.1521,106.33281 c 0.58198,3.45619 0.60428,6.95054 1.25466,10.39824 0.53504,1.87002 0.70245,5.40522 3.11546,6.13265 1.61711,-1.49354 2.66597,-3.23393 3.52404,-5.19397 1.22849,-2.83659 1.96013,-5.81773 2.46967,-8.83377 0.005,-0.40884 0.16171,-0.80975 0.1676,-1.21966 0.005,-0.38508 -0.14546,0.51808 0.14784,0.62126 0.42965,0.15116 0.88858,0.21432 1.33287,0.32147 0.29973,-0.19301 0.54792,-0.49276 0.89918,-0.57902 0.0128,-0.003 -0.0519,0.2815 -0.10419,1.14718 -0.0798,1.31953 -0.0901,2.64207 -0.11128,3.96319 0.0114,2.34057 0.97925,4.37355 2.52314,6.15857 0.0395,-0.0181 0.73017,0.98432 0.87419,0.46948 2.25329,0.13724 2.0474,3.14128 -0.2059,3.00403 l 0,0 c -1.373,-0.22954 -2.31395,-0.49003 -3.1709,-1.60374 -1.95035,-2.36637 -3.2269,-5.01735 -3.21344,-8.07395 0.0174,-1.08186 -0.15154,-5.1596 0.38486,-6.03319 0.30511,-0.49692 0.7786,-0.88311 1.16791,-1.32466 0.55108,0.0756 1.12656,0.0562 1.65325,0.22666 1.20827,0.39111 0.99161,2.51852 0.80818,3.39714 -0.55267,3.25367 -1.35092,6.46853 -2.67998,9.52726 -1.12994,2.48898 -2.8991,6.29862 -6.17051,6.83245 -0.57623,0.094 -1.16618,-0.084 -1.74928,-0.12599 -0.43719,-0.23964 -0.91571,-0.42222 -1.31156,-0.71892 -2.38308,-1.78624 -2.89644,-4.96474 -3.49622,-7.57338 -0.63228,-3.42759 -0.71321,-6.88977 -1.24085,-10.32897 -0.44283,-2.08726 2.68844,-2.67763 3.13126,-0.59036 z"
       id="path9603"
       style="fill:#000000;fill-opacity:1;fill-rule:nonzero;stroke:none" />
    <path
       inkscape:connector-curvature="0"
       d="m 325.42395,86.074262 c 0.66391,3.32495 1.25506,6.66597 1.79139,10.01216 0.93194,5.826458 0.92444,11.726958 1.36963,17.590248 0.30475,3.32816 0.62178,6.65525 0.90765,9.98492 0.059,0.7013 0.0326,0.38366 0.0794,0.95292 0.17444,2.12224 -3.00929,2.3548 -3.18373,0.23256 l 0,0 c -0.0462,-0.56223 -0.0202,-0.24801 -0.0786,-0.94263 -0.28669,-3.33934 -0.60514,-6.67603 -0.91001,-10.01391 -0.43497,-5.78504 -0.43421,-11.60556 -1.34194,-17.354928 -0.51991,-3.25213 -1.10065,-6.49755 -1.73179,-9.73124 -0.54764,-2.06505 2.55029,-2.79515 3.09793,-0.7301 z"
       id="path9605"
       style="fill:#000000;fill-opacity:1;fill-rule:nonzero;stroke:none" />
    <path
       inkscape:connector-curvature="0"
       d="m 320.59803,109.40748 c 3.18007,-1.17611 6.51181,-1.77722 9.8337,-2.46131 2.34721,-0.46603 4.67658,-1.02381 7.05915,-1.30717 0.51154,-0.0562 1.02526,-0.0882 1.53923,-0.11519 2.25459,-0.11674 2.42973,2.88903 0.17514,3.00578 l 0,0 c -0.44085,0.0225 -0.88147,0.0497 -1.32032,0.0967 -2.28732,0.26343 -4.5182,0.82698 -6.77264,1.26102 -3.14997,0.64686 -6.3125,1.20015 -9.32831,2.31514 -2.09649,0.79054 -3.28245,-2.00444 -1.18595,-2.79498 z"
       id="path9607"
       style="fill:#000000;fill-opacity:1;fill-rule:nonzero;stroke:none" />
    <path
       inkscape:connector-curvature="0"
       d="m 342.45477,110.15665 c 0.93559,2.5871 1.37974,5.29179 1.72513,7.99535 0.16401,1.644 0.0936,0.85806 0.21541,2.3575 0.17199,2.12241 -3.01201,2.35172 -3.184,0.22931 l 0,0 c -0.11491,-1.42193 -0.0487,-0.67924 -0.20189,-2.22782 -0.32775,-2.57979 -0.75462,-5.15715 -1.65259,-7.62423 -0.54764,-2.06505 2.55029,-2.79516 3.09794,-0.73011 z"
       id="path9609"
       style="fill:#000000;fill-opacity:1;fill-rule:nonzero;stroke:none" />
    <path
       inkscape:connector-curvature="0"
       d="m 340.24626,97.400252 c 0,-1.37073 0,-2.74146 0,-4.11218 0,-2.12861 3.19328,-2.12861 3.19328,0 l 0,0 c 0,1.37072 0,2.74145 0,4.11218 0,2.1286 -3.19328,2.1286 -3.19328,0 z"
       id="path9611"
       style="fill:#000000;fill-opacity:1;fill-rule:nonzero;stroke:none" />
    <path
       inkscape:connector-curvature="0"
       d="m 350.89052,106.62799 c -0.01,2.81346 -0.13465,5.61172 0.40578,8.38854 0.5927,1.69887 1.10481,3.99896 3.47925,3.4531 2.26015,-1.23937 2.7518,-3.9182 3.00032,-6.17289 0.0176,-2.15856 -0.76472,-4.00878 -2.77682,-5.0956 -1.02892,-0.21487 -2.20572,-0.15915 -3.13552,0.0839 -0.29084,0.65945 0.29377,-0.796 0.1686,-1.19222 0.0351,-0.003 0.0701,-0.006 0.10516,-0.009 1.99738,0.99276 0.50808,3.65561 -1.4893,2.66286 l 0,0 c -0.26675,-0.15285 -0.53351,-0.30569 -0.80027,-0.45854 -1.3728,-1.50083 -1.04607,-2.78447 0.71466,-3.75266 1.99153,-0.68727 4.15411,-0.62025 6.13282,0.11466 3.13926,1.94773 4.30233,4.44986 4.2529,7.99126 -0.49224,3.73495 -1.69663,7.57114 -5.8984,8.82697 -0.57657,0.0161 -1.15993,0.13316 -1.72971,0.0485 -3.13205,-0.46572 -4.45457,-3.43505 -5.16772,-5.97404 -0.54244,-2.95658 -0.49921,-5.92183 -0.45503,-8.91523 0,-2.1286 3.19328,-2.1286 3.19328,0 z"
       id="path9613"
       style="fill:#000000;fill-opacity:1;fill-rule:nonzero;stroke:none" />
    <path
       inkscape:connector-curvature="0"
       d="m 369.08208,108.33968 c 0.32199,2.30887 0.8051,4.58015 1.29823,6.86056 0.34481,1.64973 0.56354,3.31824 0.70144,4.99366 0.0224,0.34467 0.0562,0.69004 0.0374,1.03551 -0.71485,-0.51763 -1.377,-1.10734 -2.14454,-1.55288 -0.0918,-0.0533 -0.17894,0.13275 -0.28632,0.14183 -0.18445,0.0156 0.0384,-0.34737 0.0649,-0.52015 0.0884,-0.57604 0.091,-0.74757 0.14173,-1.35596 0.34994,-2.62311 1.45128,-5.03896 2.89022,-7.28114 1.17124,-1.93437 2.91997,-3.19477 5.13445,-3.87675 2.51452,-0.51828 3.88235,0.19834 5.08524,2.28604 0.88852,2.4769 0.65518,5.12516 0.95033,7.68788 0.20075,1.62544 0.49253,3.30936 1.86117,4.41069 0.56868,0.28253 1.17431,0.35153 1.80179,0.27139 2.25568,-0.0962 2.39997,2.91104 0.14429,3.00722 l 0,0 c -1.50796,0.0137 -2.86412,-0.15499 -4.10049,-1.05664 -1.89625,-1.69305 -2.64923,-3.89082 -2.88254,-6.31798 -0.24335,-2.24503 -0.12029,-4.53517 -0.67458,-6.74243 -0.0975,-0.64277 -0.56824,-0.81924 -1.22232,-0.67598 -1.5006,0.42376 -2.59912,1.26189 -3.3714,2.57446 -1.19694,1.83043 -2.11093,3.81073 -2.43333,5.95655 -0.0506,0.57328 -0.47205,4.26494 -1.50354,4.09632 -0.97522,-0.15941 -1.75933,-0.85539 -2.639,-1.28308 -0.0118,-0.19099 -0.0261,-0.38183 -0.0372,-0.57285 -0.12675,-1.55162 -0.32843,-3.09673 -0.64666,-4.6247 -0.49331,-2.28356 -0.98075,-4.55905 -1.30052,-6.8712 -0.44282,-2.08728 2.68844,-2.67764 3.13127,-0.59037 z"
       id="path9615"
       style="fill:#000000;fill-opacity:1;fill-rule:nonzero;stroke:none" />
  </g>
</svg>
