<?xml version="1.0" encoding="UTF-8" standalone="no"?>
<!-- Created with Inkscape (http://www.inkscape.org/) -->

<svg
   xmlns:dc="http://purl.org/dc/elements/1.1/"
   xmlns:cc="http://creativecommons.org/ns#"
   xmlns:rdf="http://www.w3.org/1999/02/22-rdf-syntax-ns#"
   xmlns:svg="http://www.w3.org/2000/svg"
   xmlns="http://www.w3.org/2000/svg"
   xmlns:sodipodi="http://sodipodi.sourceforge.net/DTD/sodipodi-0.dtd"
   xmlns:inkscape="http://www.inkscape.org/namespaces/inkscape"
   width="465.3071"
   height="309.59067"
   id="svg6844"
   version="1.1"
   inkscape:version="0.48.0 r9654"
   sodipodi:docname="SLIPSymmetry.pdf">
  <defs
     id="defs6846">
    <inkscape:path-effect
       is_visible="true"
       id="path-effect7508"
       effect="spiro" />
    <inkscape:path-effect
       is_visible="true"
       id="path-effect7492"
       effect="spiro" />
    <inkscape:path-effect
       effect="spiro"
       id="path-effect7488"
       is_visible="true" />
  </defs>
  <sodipodi:namedview
     inkscape:document-units="mm"
     pagecolor="#ffffff"
     bordercolor="#666666"
     borderopacity="1.0"
     inkscape:pageopacity="0.0"
     inkscape:pageshadow="2"
     inkscape:zoom="0.7176508"
     inkscape:cx="253.41348"
     inkscape:cy="150.28978"
     inkscape:current-layer="layer1"
     id="namedview6848"
     showgrid="false"
     fit-margin-top="0"
     fit-margin-left="0"
     fit-margin-right="0"
     fit-margin-bottom="0"
     inkscape:window-width="1280"
     inkscape:window-height="752"
     inkscape:window-x="0"
     inkscape:window-y="0"
     inkscape:window-maximized="0" />
  <metadata
     id="metadata6850">
    <rdf:RDF>
      <cc:Work
         rdf:about="">
        <dc:format>image/svg+xml</dc:format>
        <dc:type
           rdf:resource="http://purl.org/dc/dcmitype/StillImage" />
        <dc:title></dc:title>
      </cc:Work>
    </rdf:RDF>
  </metadata>
  <g
     inkscape:label="Layer 1"
     inkscape:groupmode="layer"
     id="layer1"
     transform="translate(-268.43563,-41.536437)">
    <path
       style="fill:#000000;fill-opacity:1;fill-rule:nonzero;stroke:none"
       id="path7367"
       d="m 270.54548,289.33572 c 23.46502,-1.41858 46.99552,-1.51691 70.49606,-1.77342 45.79285,-0.035 91.58627,-0.14741 137.37909,-0.0434 49.88538,-0.21899 99.76735,-0.35846 149.65195,0.0403 34.48844,0.36538 68.97301,0.91981 103.46322,1.08494 2.9559,0.0141 2.93588,4.1944 -0.02,4.18025 l 0,0 c -34.49468,-0.16521 -68.98371,-0.71937 -103.47662,-1.08502 -49.87663,-0.39869 -99.75063,-0.25886 -149.62804,-0.0401 -45.77445,-0.10407 -91.5495,0.009 -137.32398,0.0431 -23.44432,0.25574 -46.91867,0.35258 -70.32752,1.76817 -2.95203,0.15143 -3.16618,-4.02339 -0.21415,-4.17481 z"
       inkscape:connector-curvature="0" />
    <path
       style="fill:none;stroke:#000000;stroke-width:3.12519693;stroke-linecap:butt;stroke-linejoin:miter;stroke-miterlimit:4;stroke-opacity:1;stroke-dasharray:9.37559055, 3.12519685;stroke-dashoffset:0"
       d="m 309.34266,75.24551 c 18.98151,-1.39626 38.37627,3.576757 54.34397,13.93435 11.90262,7.720744 21.7656,18.20545 30.65558,29.26214 9.51359,11.83229 18.12702,24.51502 29.26215,34.83589 19.70963,18.26837 47.02504,28.06069 73.85207,26.47527"
       id="path7486"
       inkscape:path-effect="#path-effect7488"
       inkscape:original-d="m 309.34266,75.24551 c 33.44245,-1.39343 45.98336,6.96717 54.34397,13.93435 8.36061,6.96718 22.29497,13.93435 30.65558,29.26214 8.36062,15.32779 19.5081,25.08184 29.26215,34.83589 9.75404,9.75405 50.16366,26.47527 73.85207,26.47527"
       inkscape:connector-curvature="0"
       sodipodi:nodetypes="csssc" />
    <path
       style="fill:none;stroke:#000000;stroke-width:2.41653538;stroke-linecap:butt;stroke-linejoin:miter;stroke-miterlimit:4;stroke-opacity:1;stroke-dasharray:2.41653543, 4.83307087;stroke-dashoffset:0"
       d="m 498.84986,288.44112 0,-225.736529"
       id="path7494"
       inkscape:connector-curvature="0" />
    <path
       style="fill:none;stroke:#000000;stroke-width:3.83385825;stroke-linecap:butt;stroke-linejoin:miter;stroke-miterlimit:4;stroke-opacity:1;stroke-dasharray:none"
       d="m 406.88313,136.55667 91.96673,151.88445"
       id="path7496"
       inkscape:connector-curvature="0" />
    <path
       style="fill:none;stroke:#000000;stroke-width:2.41653538;stroke-linecap:butt;stroke-linejoin:miter;stroke-miterlimit:4;stroke-opacity:1;stroke-dasharray:2.41653543, 4.83307087;stroke-dashoffset:0"
       d="m 406.88313,105.90109 0,209.0153"
       id="path7498"
       inkscape:connector-curvature="0"
       sodipodi:nodetypes="cc" />
    <path
       sodipodi:nodetypes="csssc"
       inkscape:connector-curvature="0"
       inkscape:original-d="m 685.92453,75.245506 c -33.44245,-1.39343 -45.98336,6.96717 -54.34397,13.93435 -8.36061,6.96718 -22.29497,13.934354 -30.65558,29.262144 -8.36062,15.32779 -19.5081,25.08184 -29.26215,34.83589 -9.75404,9.75405 -50.16366,26.47527 -73.85207,26.47527"
       inkscape:path-effect="#path-effect7508"
       id="path7500"
       d="m 685.92453,75.245506 c -18.98151,-1.396261 -38.37627,3.576756 -54.34397,13.93435 -11.90262,7.720745 -21.7656,18.205454 -30.65558,29.262144 -9.51359,11.83229 -18.12702,24.51502 -29.26215,34.83589 -19.70963,18.26837 -47.02504,28.06069 -73.85207,26.47527"
       style="fill:none;stroke:#000000;stroke-width:3.12519693;stroke-linecap:butt;stroke-linejoin:miter;stroke-miterlimit:4;stroke-opacity:1;stroke-dasharray:9.37559055, 3.12519685;stroke-dashoffset:0" />
    <path
       inkscape:connector-curvature="0"
       id="path7504"
       d="M 588.38406,136.55667 496.41733,288.44112"
       style="fill:none;stroke:#000000;stroke-width:3.83385825;stroke-linecap:butt;stroke-linejoin:miter;stroke-miterlimit:4;stroke-opacity:1;stroke-dasharray:none" />
    <path
       sodipodi:nodetypes="cc"
       inkscape:connector-curvature="0"
       id="path7506"
       d="m 588.38406,132.37636 0,182.54003"
       style="fill:none;stroke:#000000;stroke-width:2.41653538;stroke-linecap:butt;stroke-linejoin:miter;stroke-miterlimit:4;stroke-opacity:1;stroke-dasharray:2.41653543, 4.83307087;stroke-dashoffset:0" />
    <path
       style="fill:#000000;fill-opacity:1;fill-rule:nonzero;stroke:none"
       id="path7550"
       d="m 403.5281,142.62222 c -0.82708,-0.73352 -1.29972,-1.68884 -1.62505,-2.7004 -0.31189,-1.12763 -0.26325,-2.2435 0.25713,-3.32514 0.13704,-0.28484 0.36168,-0.52309 0.54252,-0.78464 0.62123,-0.7472 1.41757,-1.29513 2.21731,-1.84814 0.73732,-0.5108 1.55243,-0.84334 2.43035,-1.05565 1.61331,-0.29506 2.90609,0.23653 4.11542,1.20683 0.8116,0.72844 1.38805,1.63324 1.89105,2.57205 0.48129,0.84927 0.73573,1.77848 0.88346,2.72724 0.21877,1.60875 -0.33202,2.84774 -1.53796,3.96236 -0.99156,0.83289 -2.2141,1.11271 -3.49165,1.20378 -0.54533,0.0293 -1.09178,0.0254 -1.63772,0.0229 -0.71755,0.0379 -1.31892,-0.10356 -2.05122,-0.23473 -0.94882,-0.32112 -1.67036,-0.95758 -2.30552,-1.67434 -0.66027,-0.80315 -1.03562,-1.74785 -1.30107,-2.72564 -0.18472,-0.72108 -0.22306,-1.46271 -0.23895,-2.20157 -0.0781,-0.94628 0.11481,-1.84313 0.41117,-2.73968 0.40267,-1.09745 1.21154,-1.91849 2.13775,-2.62939 1.22823,-0.77872 2.64578,-1.1033 4.11064,-0.83731 0.31359,0.0569 0.61329,0.16948 0.91993,0.25422 1.35516,0.46706 2.35159,1.37726 3.26356,2.40226 0.63466,0.74692 1.09494,1.60018 1.4472,2.49611 0.2874,0.84376 0.33055,1.72906 0.34676,2.60832 0.0376,0.76993 -0.0247,1.52547 -0.21272,2.2761 -0.39513,1.27362 -1.28798,2.17732 -2.39924,2.92187 -1.09505,0.72838 -2.38302,0.9927 -3.68219,1.14136 -1.37372,0.0902 -2.7231,-0.10096 -4.03777,-0.46771 -1.16407,-0.33584 -2.12101,-0.9989 -2.88931,-1.89058 -0.75921,-0.84961 -1.05522,-1.90543 -1.17917,-2.98982 -0.12466,-1.12395 0.18034,-2.21047 0.55026,-3.2637 0.44382,-1.08459 1.14302,-2.04676 1.93187,-2.9253 0.85893,-0.97477 1.97937,-1.57946 3.22858,-1.9659 1.07046,-0.2835 2.15583,-0.22157 3.23701,-0.0438 0.79569,0.14369 1.5165,0.47199 2.24321,0.79497 0.92494,0.40189 1.66058,1.04997 2.29702,1.79485 0.61539,0.76529 1.03301,1.61101 1.30634,2.53714 -0.01,-0.0439 -0.0544,-0.17005 -0.0297,-0.13181 0.24048,0.37233 0.37718,1.26296 0.44906,1.69679 0.13064,0.7464 0.0729,1.47228 -0.0128,2.21953 -0.23037,1.17232 -0.93498,2.11216 -1.75934,2.96659 -0.72752,0.67733 -1.62931,1.14093 -2.54463,1.54084 -1.01084,0.32462 -0.95761,0.30812 -1.68139,0.50803 -0.72671,0.1824 -1.47566,0.24481 -2.22364,0.27485 -0.44682,0.0136 -0.89394,0.0119 -1.34092,0.011 -1.33119,0.0292 -2.18778,-0.34545 -3.24116,-1.08903 -0.58898,-0.46847 -0.95152,-1.00015 -1.38607,-1.57939 -0.59892,-0.83549 -0.87863,-1.79004 -1.01093,-2.782 -0.0583,-0.57696 -0.0587,-1.15692 -0.0584,-1.73592 -0.0347,-0.61191 0.0559,-1.18533 0.14707,-1.79482 0.25246,-0.73874 0.0704,-0.25613 0.3184,-0.83022 0.0183,-0.0423 -0.0393,0.0835 -0.0591,0.12524 -0.0408,0.0858 -0.0616,0.17903 -0.0864,0.27009 0.33911,-0.98799 0.18929,-0.70653 0.42964,-1.17336 0.0223,-0.0433 0.0873,-0.17403 0.0675,-0.12962 -0.28293,0.63567 0.11176,-0.19851 0.2679,-0.50424 0.38313,-0.65354 0.95955,-1.14798 1.52875,-1.64539 -0.0888,0.0842 -0.32994,0.35582 -0.26652,0.2527 0.34045,-0.55349 1.37375,-1.15919 1.92146,-1.41536 -0.0432,0.0179 -0.0857,0.0374 -0.12952,0.0537 -0.0238,0.009 0.0419,-0.0284 0.0647,-0.0394 0.18054,-0.0871 0.35931,-0.17786 0.54364,-0.25733 0.31226,-0.13463 0.54679,-0.17713 0.89208,-0.26689 0.51653,-0.11154 1.04561,-0.12756 1.57271,-0.13163 0.28263,-8.2e-4 0.56525,8.3e-4 0.84788,0.002 0.25954,6.2e-4 0.51908,8.3e-4 0.77863,8.3e-4 0.87027,-0.0384 1.65602,0.25643 2.35995,0.69389 0.13701,0.0851 0.5266,0.36759 0.38393,0.29142 -0.18935,-0.1011 -0.35026,-0.24463 -0.52539,-0.36695 0.32825,0.13495 -0.40295,-0.19457 -0.30273,-0.14495 0.20761,0.10277 0.42081,0.19529 0.62582,0.30271 0.15195,0.0796 0.98926,0.61023 0.0218,0.0322 -0.0524,-0.0236 -0.20694,-0.0993 -0.15722,-0.0709 1.17027,0.66915 0.6149,0.24642 1.3825,0.89833 0.11506,0.0977 -0.46091,-0.39011 -0.34573,-0.29253 0.6509,0.55151 0.38554,0.28873 0.8144,0.75057 -0.11849,-0.11786 -0.50669,-0.4299 -0.35548,-0.35358 0.12897,0.0651 0.5059,0.47863 0.63852,0.63003 0.0524,0.0598 0.21108,0.23762 0.15232,0.18341 -0.17242,-0.15907 -0.36946,-0.30342 -0.49434,-0.49893 -0.0978,-0.15314 0.27385,0.24539 0.41078,0.36809 0.76982,0.72776 1.12209,1.6655 1.26162,2.66797 0.0723,0.67062 0.0314,1.33717 -0.034,2.00586 -0.0613,0.2477 -0.12258,0.4954 -0.18388,0.74311 -1.37127,4.70155 -8.32486,2.84722 -6.95359,-1.85433 l 0,0 c -0.004,0.0506 -0.008,0.10118 -0.0114,0.15178 0.003,0.58927 -8.6e-4,-0.21665 4.4e-4,-0.3538 0.10556,0.53366 0.32952,1.05854 0.74196,1.44823 0.0786,0.0652 0.3072,0.26789 0.23566,0.19566 -2.09311,-2.11331 0.83699,0.90504 -0.93444,-0.89182 0.26378,0.26169 1.05306,0.84503 -0.0436,-0.0152 -0.10703,-0.084 0.20137,0.18437 0.31873,0.25457 0.2387,0.14278 0.50702,0.23689 0.74454,0.38147 0.11035,0.0672 -0.24048,-0.0986 -0.36072,-0.14784 -0.2071,-0.11475 -0.4142,-0.22949 -0.6213,-0.34424 0.0257,0.0139 0.0506,0.0294 0.0772,0.0417 0.14429,0.0667 0.29438,0.12208 0.43568,0.19438 0.0779,0.0399 -0.16473,-0.0613 -0.24491,-0.0968 -0.12312,-0.0544 -0.24311,-0.11512 -0.36466,-0.17267 -0.22829,-0.15098 -0.45198,-0.30853 -0.68487,-0.45294 -0.0942,-0.0584 0.1726,0.13875 0.26847,0.19472 0.17562,0.10253 0.34624,0.22424 0.54375,0.27944 1.84652,0.51605 1.75553,0.23423 1.19693,0.25059 -0.26557,-1.2e-4 -0.53115,-2.1e-4 -0.79672,-8.3e-4 -0.25871,-8.2e-4 -0.51741,-0.002 -0.77612,-0.002 -0.27879,0.001 -0.29763,0.0192 -0.0551,-0.033 0.29584,-0.0896 0.4252,-0.16174 0.70719,-0.29284 0.0571,-0.0266 -0.10877,0.0628 -0.1638,0.0931 -0.29061,0.16033 -0.24247,0.1296 -0.60626,0.30296 0.46431,-0.23655 1.3944,-1.08631 0.339,-0.0732 -0.43073,0.37641 -0.49598,0.5021 -0.0712,-0.12721 -0.0463,0.0792 -0.16753,0.32408 -0.1388,0.23762 0.0524,-0.15762 0.18852,-0.61753 0.21052,-0.45349 0.023,0.17117 -0.13626,0.31963 -0.20719,0.47832 -0.024,0.0536 -0.0976,0.21287 -0.0816,0.1566 0.0772,-0.27067 0.16441,-0.53862 0.24662,-0.80794 -0.0879,0.46792 -0.2211,0.90083 -0.40757,1.3403 -0.0496,0.11692 0.29578,-0.72262 0.11691,-0.36166 0.15422,-1.48378 0.0327,-0.2123 0.0675,0.12812 -2.2e-4,0.32258 -10e-4,0.64526 0.014,0.96759 -0.0562,-0.11612 -0.12091,-0.2757 -0.23061,-0.38578 0.12798,0.17844 0.72814,0.89707 0.0687,0.2043 -0.72764,-0.44682 -0.88769,-0.41309 -1.68433,-0.50706 -4.3e-4,-6e-5 0.32004,8.3e-4 0.32613,8.3e-4 0.345,8.2e-4 0.69008,0.002 1.03502,-0.005 0.19762,-0.007 0.39561,-0.0196 0.59212,-0.0315 0.15213,-0.0211 1.06643,-0.41026 0.71067,-0.18633 -0.0136,0.009 0.0315,-0.008 0.0472,-0.0121 -0.13658,0.10328 0.30284,-0.16492 0.45952,-0.23757 0.0452,-0.0209 -0.33267,0.24453 -0.14733,0.13386 -0.16126,0.2055 -0.17658,0.2541 -0.25159,0.63192 -0.0627,1.09324 -0.0106,0.31944 -0.0463,0.0602 -0.0201,-0.1656 -0.22205,-0.70334 -0.27907,-0.87522 0.0175,0.0412 0.0327,0.0833 0.0524,0.1235 0.0382,0.0782 0.17805,0.30023 0.13477,0.22451 -0.0273,-0.0478 -0.41289,-0.60794 -0.10221,-0.20841 -0.25639,-0.31404 0.19522,0.15895 0.26876,0.12397 -0.0599,-0.0267 -0.46597,-0.20707 -0.49975,-0.22689 -0.0403,-0.0236 0.16614,0.0771 0.13407,0.0439 -0.0602,-0.0623 -0.58267,-0.14985 -0.0545,-0.0661 -0.23758,-0.0393 -0.55623,-0.0373 -0.0377,-0.0751 0.0339,-0.002 -0.068,0.001 -0.10202,0.002 -0.003,-0.003 -0.0109,-0.006 -0.008,-0.008 0.0307,-0.0144 0.0643,-0.0224 0.0965,-0.0335 0.13818,-0.0586 0.18622,-0.0709 0.3079,-0.15249 0.0197,-0.0132 0.24644,-0.34446 -0.0746,0.0328 -0.20903,0.20479 -0.34017,0.46036 -0.54671,0.66706 -0.13023,0.26674 -0.13124,0.69235 -0.17486,0.18574 -0.004,-0.0409 0.003,0.0821 0.004,0.12314 -0.009,0.12283 -0.0488,-0.11774 -0.1148,-0.25186 -0.14167,-0.28769 -0.14659,-0.26836 -0.32608,-0.50523 -0.0193,-0.0255 0.0393,0.0505 0.0589,0.0758 -0.0249,-0.0196 -1.04535,-0.66039 -0.54731,-0.36107 0.32588,0.0943 0.70144,0.15666 1.04332,0.18599 0.12998,-0.0118 0.25987,-0.0384 0.39027,-0.032 0.088,0.004 -0.0754,0.10323 -0.0465,0.0893 0.0736,-0.0354 0.13937,-0.084 0.20906,-0.12601 -0.31866,0.27722 -0.53077,0.64108 -0.63228,1.05646 -0.0591,0.3586 0.0213,-0.16409 -0.0385,0.50567 -0.006,0.0675 6.5e-4,-0.13544 8.6e-4,-0.20316 4.3e-4,-0.13098 0.001,-0.30954 4.3e-4,-0.4413 -2.1e-4,-0.0722 -10e-4,-0.14435 -0.002,-0.21652 -4.3e-4,-0.0246 -0.0667,-0.85169 0.0397,-0.48972 0.0225,0.0413 0.0973,0.1612 0.0755,0.1196 -0.0721,-0.13711 -0.18123,-0.25729 -0.23451,-0.40203 -0.0404,-0.10967 0.1875,0.25806 0.0332,0.0151 -0.22401,-0.25393 -0.40383,-0.38503 -0.11211,-0.33792 0.58422,0.0697 1.14898,-0.008 1.60675,-0.38108 0.0524,-0.0486 0.10647,-0.0956 0.1571,-0.14585 0.008,-0.008 -0.0347,0.0302 -0.0299,0.0196 0.052,-0.11427 0.33747,-0.55574 0.1936,-0.32445 0.22164,-0.91907 0.0275,0.21175 0.0668,-0.54553 0.038,-0.73329 -0.0447,1.37355 0.003,0.6739 0.004,0.23852 -0.002,0.48072 0.0395,0.71649 -0.0389,0.11331 0.24283,0.38176 0.12751,0.33635 -0.1727,-0.068 -0.12873,-0.37586 -0.32147,-0.4388 0.0879,0.10146 0.32467,0.39481 -0.2096,-0.1237 -0.0682,-0.0662 0.31958,0.20903 0.23218,0.16846 -1.25797,-0.58392 -0.3859,-0.28266 -0.8392,-0.43531 -2.15625,-0.32155 -0.84295,-0.11235 -0.31554,-0.15816 0.36832,0.002 0.73679,0.005 1.10498,-0.007 0.0517,-0.003 0.1999,-0.0279 0.15538,-0.003 -0.34246,0.19481 -0.77964,0.25341 -1.03617,0.59051 -0.64931,0.70228 -0.75867,1.2673 -0.73798,2.14248 6.5e-4,0.0267 -0.004,-0.0533 -0.006,-0.08 -0.002,-0.20204 -0.0553,-0.3598 -0.17201,-0.54168 -0.06,-0.11665 -0.57422,-0.91247 -0.21662,-0.5044 0.70183,0.3165 1.29946,0.58431 2.11929,0.36825 0.26836,-0.0785 0.96858,-0.41399 0.24295,-0.0487 -0.12347,0.0816 -0.24307,0.1689 -0.3704,0.24492 -0.0397,0.0237 0.14955,-0.15683 -0.0297,-0.009 -0.11684,0.0964 -0.20052,0.23488 -0.33736,0.30305 -0.0269,0.0134 0.033,-0.0486 0.0495,-0.0729 0.33068,-0.55339 0.72616,-1.46466 0.499,-1.96363 -0.0571,-0.12893 -0.0628,-0.15545 -0.14047,-0.27518 -0.019,-0.0292 -0.48865,-0.48499 -0.0988,-0.10417 3.60948,3.45137 -1.49509,8.33234 -5.10457,4.88097 z"
       inkscape:connector-curvature="0" />
    <path
       inkscape:connector-curvature="0"
       d="m 584.67469,142.62222 c -0.82708,-0.73352 -1.29972,-1.68884 -1.62505,-2.7004 -0.31189,-1.12763 -0.26325,-2.2435 0.25713,-3.32514 0.13704,-0.28484 0.36168,-0.52309 0.54252,-0.78464 0.62123,-0.7472 1.41757,-1.29513 2.21731,-1.84814 0.73732,-0.5108 1.55243,-0.84334 2.43035,-1.05565 1.61331,-0.29506 2.90609,0.23653 4.11542,1.20683 0.8116,0.72844 1.38805,1.63324 1.89105,2.57205 0.48129,0.84927 0.73573,1.77848 0.88346,2.72724 0.21877,1.60875 -0.33202,2.84774 -1.53796,3.96236 -0.99156,0.83289 -2.2141,1.11271 -3.49165,1.20378 -0.54533,0.0293 -1.09178,0.0254 -1.63772,0.0229 -0.71755,0.0379 -1.31892,-0.10356 -2.05122,-0.23473 -0.94882,-0.32112 -1.67036,-0.95758 -2.30552,-1.67434 -0.66027,-0.80315 -1.03562,-1.74785 -1.30107,-2.72564 -0.18472,-0.72108 -0.22306,-1.46271 -0.23895,-2.20157 -0.0781,-0.94628 0.11481,-1.84313 0.41117,-2.73968 0.40267,-1.09745 1.21154,-1.91849 2.13775,-2.62939 1.22823,-0.77872 2.64578,-1.1033 4.11064,-0.83731 0.31359,0.0569 0.61329,0.16948 0.91993,0.25422 1.35516,0.46706 2.35159,1.37726 3.26356,2.40226 0.63466,0.74692 1.09494,1.60018 1.4472,2.49611 0.2874,0.84376 0.33055,1.72906 0.34676,2.60832 0.0376,0.76993 -0.0247,1.52547 -0.21272,2.2761 -0.39513,1.27362 -1.28798,2.17732 -2.39924,2.92187 -1.09505,0.72838 -2.38302,0.9927 -3.68219,1.14136 -1.37372,0.0902 -2.7231,-0.10096 -4.03777,-0.46771 -1.16407,-0.33584 -2.12101,-0.9989 -2.88931,-1.89058 -0.75921,-0.84961 -1.05522,-1.90543 -1.17917,-2.98982 -0.12466,-1.12395 0.18034,-2.21047 0.55026,-3.2637 0.44382,-1.08459 1.14302,-2.04676 1.93187,-2.9253 0.85893,-0.97477 1.97937,-1.57946 3.22858,-1.9659 1.07046,-0.2835 2.15583,-0.22157 3.23701,-0.0438 0.79569,0.14369 1.5165,0.47199 2.24321,0.79497 0.92494,0.40189 1.66058,1.04997 2.29702,1.79485 0.61539,0.76529 1.03301,1.61101 1.30634,2.53714 -0.01,-0.0439 -0.0544,-0.17005 -0.0297,-0.13181 0.24048,0.37233 0.37718,1.26296 0.44906,1.69679 0.13064,0.7464 0.0729,1.47228 -0.0128,2.21953 -0.23037,1.17232 -0.93498,2.11216 -1.75934,2.96659 -0.72752,0.67733 -1.62931,1.14093 -2.54463,1.54084 -1.01084,0.32462 -0.95761,0.30812 -1.68139,0.50803 -0.72671,0.1824 -1.47566,0.24481 -2.22364,0.27485 -0.44682,0.0136 -0.89394,0.0119 -1.34092,0.011 -1.33119,0.0292 -2.18778,-0.34545 -3.24116,-1.08903 -0.58898,-0.46847 -0.95152,-1.00015 -1.38607,-1.57939 -0.59892,-0.83549 -0.87863,-1.79004 -1.01093,-2.782 -0.0583,-0.57696 -0.0587,-1.15692 -0.0584,-1.73592 -0.0347,-0.61191 0.0559,-1.18533 0.14707,-1.79482 0.25246,-0.73874 0.0704,-0.25613 0.3184,-0.83022 0.0183,-0.0423 -0.0393,0.0835 -0.0591,0.12524 -0.0408,0.0858 -0.0616,0.17903 -0.0864,0.27009 0.33911,-0.98799 0.18929,-0.70653 0.42964,-1.17336 0.0223,-0.0433 0.0873,-0.17403 0.0675,-0.12962 -0.28293,0.63567 0.11176,-0.19851 0.2679,-0.50424 0.38313,-0.65354 0.95955,-1.14798 1.52875,-1.64539 -0.0888,0.0842 -0.32994,0.35582 -0.26652,0.2527 0.34045,-0.55349 1.37375,-1.15919 1.92146,-1.41536 -0.0432,0.0179 -0.0857,0.0374 -0.12952,0.0537 -0.0238,0.009 0.0419,-0.0284 0.0647,-0.0394 0.18054,-0.0871 0.35931,-0.17786 0.54364,-0.25733 0.31226,-0.13463 0.54679,-0.17713 0.89208,-0.26689 0.51653,-0.11154 1.04561,-0.12756 1.57271,-0.13163 0.28263,-8.2e-4 0.56525,8.3e-4 0.84788,0.002 0.25954,6.2e-4 0.51908,8.3e-4 0.77863,8.3e-4 0.87027,-0.0384 1.65602,0.25643 2.35995,0.69389 0.13701,0.0851 0.5266,0.36759 0.38393,0.29142 -0.18935,-0.1011 -0.35026,-0.24463 -0.52539,-0.36695 0.32825,0.13495 -0.40295,-0.19457 -0.30273,-0.14495 0.20761,0.10277 0.42081,0.19529 0.62582,0.30271 0.15195,0.0796 0.98926,0.61023 0.0218,0.0322 -0.0524,-0.0236 -0.20694,-0.0993 -0.15722,-0.0709 1.17027,0.66915 0.6149,0.24642 1.3825,0.89833 0.11506,0.0977 -0.46091,-0.39011 -0.34573,-0.29253 0.6509,0.55151 0.38554,0.28873 0.8144,0.75057 -0.11849,-0.11786 -0.50669,-0.4299 -0.35548,-0.35358 0.12897,0.0651 0.5059,0.47863 0.63852,0.63003 0.0524,0.0598 0.21108,0.23762 0.15232,0.18341 -0.17242,-0.15907 -0.36946,-0.30342 -0.49434,-0.49893 -0.0978,-0.15314 0.27385,0.24539 0.41078,0.36809 0.76982,0.72776 1.12209,1.6655 1.26162,2.66797 0.0723,0.67062 0.0314,1.33717 -0.034,2.00586 -0.0613,0.2477 -0.12258,0.4954 -0.18388,0.74311 -1.37127,4.70155 -8.32486,2.84722 -6.95359,-1.85433 l 0,0 c -0.004,0.0506 -0.008,0.10118 -0.0114,0.15178 0.003,0.58927 -8.6e-4,-0.21665 4.4e-4,-0.3538 0.10556,0.53366 0.32952,1.05854 0.74196,1.44823 0.0786,0.0652 0.3072,0.26789 0.23566,0.19566 -2.09311,-2.11331 0.83699,0.90504 -0.93444,-0.89182 0.26378,0.26169 1.05306,0.84503 -0.0436,-0.0152 -0.10703,-0.084 0.20137,0.18437 0.31873,0.25457 0.2387,0.14278 0.50702,0.23689 0.74454,0.38147 0.11035,0.0672 -0.24048,-0.0986 -0.36072,-0.14784 -0.2071,-0.11475 -0.4142,-0.22949 -0.6213,-0.34424 0.0257,0.0139 0.0506,0.0294 0.0772,0.0417 0.14429,0.0667 0.29438,0.12208 0.43568,0.19438 0.0779,0.0399 -0.16473,-0.0613 -0.24491,-0.0968 -0.12312,-0.0544 -0.24311,-0.11512 -0.36466,-0.17267 -0.22829,-0.15098 -0.45198,-0.30853 -0.68487,-0.45294 -0.0942,-0.0584 0.1726,0.13875 0.26847,0.19472 0.17562,0.10253 0.34624,0.22424 0.54375,0.27944 1.84652,0.51605 1.75553,0.23423 1.19693,0.25059 -0.26557,-1.2e-4 -0.53115,-2.1e-4 -0.79672,-8.3e-4 -0.25871,-8.2e-4 -0.51741,-0.002 -0.77612,-0.002 -0.27879,0.001 -0.29763,0.0192 -0.0551,-0.033 0.29584,-0.0896 0.4252,-0.16174 0.70719,-0.29284 0.0571,-0.0266 -0.10877,0.0628 -0.1638,0.0931 -0.29061,0.16033 -0.24247,0.1296 -0.60626,0.30296 0.46431,-0.23655 1.3944,-1.08631 0.339,-0.0732 -0.43073,0.37641 -0.49598,0.5021 -0.0712,-0.12721 -0.0463,0.0792 -0.16753,0.32408 -0.1388,0.23762 0.0524,-0.15762 0.18852,-0.61753 0.21052,-0.45349 0.023,0.17117 -0.13626,0.31963 -0.20719,0.47832 -0.024,0.0536 -0.0976,0.21287 -0.0816,0.1566 0.0772,-0.27067 0.16441,-0.53862 0.24662,-0.80794 -0.0879,0.46792 -0.2211,0.90083 -0.40757,1.3403 -0.0496,0.11692 0.29578,-0.72262 0.11691,-0.36166 0.15422,-1.48378 0.0327,-0.2123 0.0675,0.12812 -2.2e-4,0.32258 -10e-4,0.64526 0.014,0.96759 -0.0562,-0.11612 -0.12091,-0.2757 -0.23061,-0.38578 0.12798,0.17844 0.72814,0.89707 0.0687,0.2043 -0.72764,-0.44682 -0.88769,-0.41309 -1.68433,-0.50706 -4.3e-4,-6e-5 0.32004,8.3e-4 0.32613,8.3e-4 0.345,8.2e-4 0.69008,0.002 1.03502,-0.005 0.19762,-0.007 0.39561,-0.0196 0.59212,-0.0315 0.15213,-0.0211 1.06643,-0.41026 0.71067,-0.18633 -0.0136,0.009 0.0315,-0.008 0.0472,-0.0121 -0.13658,0.10328 0.30284,-0.16492 0.45952,-0.23757 0.0452,-0.0209 -0.33267,0.24453 -0.14733,0.13386 -0.16126,0.2055 -0.17658,0.2541 -0.25159,0.63192 -0.0627,1.09324 -0.0106,0.31944 -0.0463,0.0602 -0.0201,-0.1656 -0.22205,-0.70334 -0.27907,-0.87522 0.0175,0.0412 0.0327,0.0833 0.0524,0.1235 0.0382,0.0782 0.17805,0.30023 0.13477,0.22451 -0.0273,-0.0478 -0.41289,-0.60794 -0.10221,-0.20841 -0.25639,-0.31404 0.19522,0.15895 0.26876,0.12397 -0.0599,-0.0267 -0.46597,-0.20707 -0.49975,-0.22689 -0.0403,-0.0236 0.16614,0.0771 0.13407,0.0439 -0.0602,-0.0623 -0.58267,-0.14985 -0.0545,-0.0661 -0.23758,-0.0393 -0.55623,-0.0373 -0.0377,-0.0751 0.0339,-0.002 -0.068,0.001 -0.10202,0.002 -0.003,-0.003 -0.0109,-0.006 -0.008,-0.008 0.0307,-0.0144 0.0643,-0.0224 0.0965,-0.0335 0.13818,-0.0586 0.18622,-0.0709 0.3079,-0.15249 0.0197,-0.0132 0.24644,-0.34446 -0.0746,0.0328 -0.20903,0.20479 -0.34017,0.46036 -0.54671,0.66706 -0.13023,0.26674 -0.13124,0.69235 -0.17486,0.18574 -0.004,-0.0409 0.003,0.0821 0.004,0.12314 -0.009,0.12283 -0.0488,-0.11774 -0.1148,-0.25186 -0.14167,-0.28769 -0.14659,-0.26836 -0.32608,-0.50523 -0.0193,-0.0255 0.0393,0.0505 0.0589,0.0758 -0.0249,-0.0196 -1.04535,-0.66039 -0.54731,-0.36107 0.32588,0.0943 0.70144,0.15666 1.04332,0.18599 0.12998,-0.0118 0.25987,-0.0384 0.39027,-0.032 0.088,0.004 -0.0754,0.10323 -0.0465,0.0893 0.0736,-0.0354 0.13937,-0.084 0.20906,-0.12601 -0.31866,0.27722 -0.53077,0.64108 -0.63228,1.05646 -0.0591,0.3586 0.0213,-0.16409 -0.0385,0.50567 -0.006,0.0675 6.5e-4,-0.13544 8.6e-4,-0.20316 4.3e-4,-0.13098 10e-4,-0.30954 4.3e-4,-0.4413 -2.1e-4,-0.0722 -10e-4,-0.14435 -0.002,-0.21652 -4.3e-4,-0.0246 -0.0667,-0.85169 0.0397,-0.48972 0.0225,0.0413 0.0973,0.1612 0.0755,0.1196 -0.0721,-0.13711 -0.18123,-0.25729 -0.23451,-0.40203 -0.0404,-0.10967 0.1875,0.25806 0.0332,0.0151 -0.22401,-0.25393 -0.40383,-0.38503 -0.11211,-0.33792 0.58422,0.0697 1.14898,-0.008 1.60675,-0.38108 0.0524,-0.0486 0.10647,-0.0956 0.1571,-0.14585 0.008,-0.008 -0.0347,0.0302 -0.0299,0.0196 0.052,-0.11427 0.33747,-0.55574 0.1936,-0.32445 0.22164,-0.91907 0.0275,0.21175 0.0668,-0.54553 0.038,-0.73329 -0.0447,1.37355 0.003,0.6739 0.004,0.23852 -0.002,0.48072 0.0395,0.71649 -0.0389,0.11331 0.24283,0.38176 0.12751,0.33635 -0.1727,-0.068 -0.12873,-0.37586 -0.32147,-0.4388 0.0879,0.10146 0.32467,0.39481 -0.2096,-0.1237 -0.0682,-0.0662 0.31958,0.20903 0.23218,0.16846 -1.25797,-0.58392 -0.3859,-0.28266 -0.8392,-0.43531 -2.15625,-0.32155 -0.84295,-0.11235 -0.31554,-0.15816 0.36832,0.002 0.73679,0.005 1.10498,-0.007 0.0517,-0.003 0.1999,-0.0279 0.15538,-0.003 -0.34246,0.19481 -0.77964,0.25341 -1.03617,0.59051 -0.64931,0.70228 -0.75867,1.2673 -0.73798,2.14248 6.5e-4,0.0267 -0.004,-0.0533 -0.006,-0.08 -0.002,-0.20204 -0.0553,-0.3598 -0.17201,-0.54168 -0.06,-0.11665 -0.57422,-0.91247 -0.21662,-0.5044 0.70183,0.3165 1.29946,0.58431 2.11929,0.36825 0.26836,-0.0785 0.96858,-0.41399 0.24295,-0.0487 -0.12347,0.0816 -0.24307,0.1689 -0.3704,0.24492 -0.0397,0.0237 0.14955,-0.15683 -0.0297,-0.009 -0.11684,0.0964 -0.20052,0.23488 -0.33736,0.30305 -0.0269,0.0134 0.033,-0.0486 0.0495,-0.0729 0.33068,-0.55339 0.72616,-1.46466 0.499,-1.96363 -0.0571,-0.12893 -0.0628,-0.15545 -0.14047,-0.27518 -0.019,-0.0292 -0.48865,-0.48499 -0.0988,-0.10417 3.60948,3.45137 -1.49509,8.33234 -5.10457,4.88097 z"
       id="path7552"
       style="fill:#000000;fill-opacity:1;fill-rule:nonzero;stroke:none" />
    <path
       style="fill:#000000;fill-opacity:1;fill-rule:nonzero;stroke:none"
       id="path7576"
       d="m 416.93115,307.68989 c 7.31685,0.0276 14.63266,0.15376 21.949,0.26656 19.23462,0.33069 38.46987,0.45138 57.70569,0.58893 23.71273,-0.0991 47.42486,-0.23445 71.13774,-0.25612 3.58871,-0.005 7.17743,-0.01 10.76615,-0.0144 1.56895,-0.002 1.57117,2.95383 0.002,2.95592 l 0,0 c -3.58896,0.005 -7.1779,0.01 -10.76685,0.0144 -23.71735,0.0217 -47.43397,0.15719 -71.15117,0.25609 -19.24042,-0.13758 -38.48024,-0.25836 -57.71945,-0.58908 -7.44005,-0.11472 -14.88133,-0.19222 -22.32052,-0.31411 -1.54361,-0.37416 -1.14643,-3.28233 0.39719,-2.90818 z"
       inkscape:connector-curvature="0" />
    <path
       style="fill:#000000;fill-opacity:1;fill-rule:nonzero;stroke:none"
       id="path7586"
       d="m 430.01626,317.6667 c -2.56958,-1.51442 -5.1402,-3.01163 -7.86706,-4.22648 -1.8755,-0.86991 -3.73468,-1.78744 -5.76146,-2.23989 -0.46346,-0.10529 -0.92688,-0.16388 -1.39955,-0.13879 -0.19254,0.0106 -0.38445,0.0293 -0.57612,0.0498 -1.6634,-1.41893 -2.84515,-2.18545 -0.40661,-3.68978 1.51971,-0.28961 2.9802,-0.79753 4.44878,-1.2813 2.60131,-0.90891 5.18174,-1.88765 7.57918,-3.25684 1.561,-0.7016 2.88927,-1.74923 4.30349,-2.68141 0.15638,-0.0888 0.31278,-0.1776 0.46917,-0.2664 1.82306,-1.02232 3.26886,1.55589 1.44579,2.57821 l 0,0 c -0.10372,0.0571 -0.20745,0.11414 -0.31117,0.1712 -1.48126,0.92448 -2.8324,2.06374 -4.45261,2.77162 -2.57705,1.44453 -5.31637,2.53587 -8.10908,3.49116 -1.41463,0.46594 -2.8259,1.00068 -4.3028,1.22893 1.3384,-1.34402 0.30858,-1.15869 -1.01636,-2.00026 0.26072,-0.0295 0.5221,-0.0528 0.78411,-0.0673 0.74167,-0.0341 1.47261,0.0433 2.19798,0.20857 2.21386,0.50893 4.26873,1.45006 6.31362,2.42396 2.7866,1.24962 5.42955,2.75751 8.05289,4.31749 1.84381,0.98442 0.45163,3.59197 -1.39219,2.60754 z"
       inkscape:connector-curvature="0"
       inkscape:transform-center-x="16.404227"
       inkscape:transform-center-y="-8.6721012" />
    <path
       inkscape:transform-center-y="7.5445849"
       inkscape:transform-center-x="-17.290487"
       inkscape:connector-curvature="0"
       d="m 563.67511,302.25809 c 2.74601,1.16433 5.4908,2.31146 8.35344,3.15817 1.97339,0.61641 3.93685,1.28217 6.00547,1.46489 0.47326,0.0436 0.94037,0.0409 1.40566,-0.046 0.18948,-0.0358 0.37729,-0.0794 0.56462,-0.1249 1.83512,1.18852 3.1072,1.79343 0.88703,3.60459 -1.4686,0.48643 -2.84985,1.18151 -4.2423,1.85371 -2.45963,1.24223 -4.8894,2.55096 -7.08655,4.22276 -1.4555,0.90028 -2.63489,2.11306 -3.91464,3.22268 -0.14338,0.10857 -0.28678,0.21709 -0.43017,0.32563 -1.67324,1.2526 -3.44469,-1.11372 -1.77146,-2.36632 l 0,0 c 0.0954,-0.0702 0.19069,-0.14035 0.28603,-0.21053 1.34722,-1.11076 2.53726,-2.4174 4.05064,-3.33166 2.36532,-1.77005 4.93785,-3.21124 7.58114,-4.52456 1.3413,-0.64745 2.67024,-1.36266 4.10445,-1.78265 -1.15056,1.50795 -0.15394,1.18915 1.26992,1.84968 -0.25459,0.0634 -0.51066,0.12079 -0.7685,0.16954 -0.73079,0.13111 -1.46557,0.1502 -2.20635,0.0815 -2.26149,-0.21417 -4.42204,-0.87766 -6.577,-1.57495 -2.92642,-0.87334 -5.74432,-2.02157 -8.54959,-3.22401 -1.957,-0.73409 -0.91884,-3.50171 1.03816,-2.76762 z"
       id="path7588"
       style="fill:#000000;fill-opacity:1;fill-rule:nonzero;stroke:none" />
    <path
       style="fill:#000000;fill-opacity:1;fill-rule:nonzero;stroke:none"
       id="path7590"
       d="m 499.39554,330.91994 c 1.0088,0.25219 2.01759,0.50439 3.02638,0.75659 1.41337,0.0973 -1.38284,1.66697 -1.36388,1.03565 -0.13984,-0.67967 0.53657,0.67028 -0.0119,0.37405 -1.50838,-0.35141 -2.83795,-0.1324 -4.25963,0.42025 -2.88742,1.1269 -4.49532,3.57697 -5.79574,6.25128 -0.98668,2.6295 -1.65626,5.27601 -0.10922,7.78885 0.20514,0.20938 0.36527,0.47534 0.61543,0.62814 1.30204,0.79533 3.45323,-1.95869 4.03887,-2.56587 3.03312,-3.93848 4.16809,-8.72075 4.90485,-13.53266 0.5084,-4.03048 0.54183,-8.18551 -0.58163,-12.11588 -0.37829,-1.13759 -0.66999,-2.39923 -1.67969,-3.15204 0.57593,0.75709 1.59184,-0.35914 1.37117,0.5884 -0.1515,0.65058 -0.15498,0.95009 -0.23484,1.68247 -0.39857,4.46999 -0.14454,8.95029 0.29259,13.40521 0.60221,4.86333 1.87279,9.77056 5.15605,13.5203 1.45551,1.40568 3.08882,2.14545 5.08708,2.16683 2.08924,0.0617 2.00194,3.01636 -0.0873,2.95463 l 0,0 c -2.84774,-0.11948 -5.21532,-1.15266 -7.24865,-3.20311 -0.48724,-0.58288 -1.02776,-1.12508 -1.46172,-1.74865 -2.72061,-3.90936 -3.73414,-8.7819 -4.38739,-13.40281 -0.45306,-4.66403 -0.716,-9.35526 -0.2868,-14.03388 0.19895,-1.63109 0.41146,-4.37472 2.62357,-4.55997 0.36647,-0.0307 0.69902,0.22882 1.04853,0.34323 1.4327,1.21336 2.16626,2.85646 2.6552,4.64722 1.18415,4.35249 1.25947,8.89966 0.65511,13.35926 -0.8448,5.42557 -2.1976,10.78503 -5.71864,15.15412 -2.84074,2.8439 -6.14828,5.34651 -9.33734,1.31559 -0.25823,-0.48442 -0.5761,-0.94149 -0.77469,-1.45326 -1.14837,-2.9593 -0.27005,-6.26762 0.80915,-9.09506 1.6714,-3.34131 3.79533,-6.32657 7.42018,-7.71454 2.22988,-0.7966 4.51544,-1.13146 6.77136,-0.20339 0.87121,0.52301 1.59495,1.23891 1.47841,2.32654 -0.0605,1.05608 -1.31105,2.09851 -2.30538,1.68677 -1.0088,-0.2522 -2.01759,-0.5044 -3.02638,-0.7566 -2.02775,-0.50693 -1.31083,-3.3746 0.71691,-2.86766 z"
       inkscape:connector-curvature="0" />
    <path
       style="fill:#000000;fill-opacity:1;fill-rule:nonzero;stroke:none"
       id="path7592"
       d="m 417.14085,111.42603 c 9.38333,-0.149 18.76583,-0.0816 28.14971,-0.044 14.85211,0.21869 29.7041,0.11026 44.55349,-0.18008 2.37189,-0.0464 2.4463,2.90884 0.0745,2.9552 l 0,0 c -14.87929,0.29064 -29.76118,0.39986 -44.64318,0.18076 -9.36786,-0.0376 -18.73433,-0.10503 -28.10164,0.0439 -2.37236,0.0204 -2.40515,-2.93535 -0.0328,-2.95577 z"
       inkscape:connector-curvature="0" />
    <path
       inkscape:transform-center-y="-8.6721012"
       inkscape:transform-center-x="16.404227"
       inkscape:connector-curvature="0"
       d="m 430.01626,121.59049 c -2.56958,-1.51442 -5.1402,-3.01163 -7.86706,-4.22648 -1.8755,-0.86991 -3.73468,-1.78744 -5.76146,-2.23989 -0.46346,-0.10529 -0.92688,-0.16388 -1.39955,-0.13879 -0.19254,0.0106 -0.38445,0.0293 -0.57612,0.0498 -1.6634,-1.41893 -2.84515,-2.18545 -0.40661,-3.68978 1.51971,-0.28961 2.9802,-0.79753 4.44878,-1.2813 2.60131,-0.90891 5.18174,-1.88765 7.57918,-3.25684 1.561,-0.7016 2.88927,-1.74923 4.30349,-2.68141 0.15638,-0.0888 0.31278,-0.1776 0.46917,-0.2664 1.82306,-1.02232 3.26886,1.55589 1.44579,2.57821 l 0,0 c -0.10372,0.0571 -0.20745,0.11414 -0.31117,0.1712 -1.48126,0.92448 -2.8324,2.06374 -4.45261,2.77162 -2.57705,1.44453 -5.31637,2.53587 -8.10908,3.49116 -1.41463,0.46594 -2.8259,1.00068 -4.3028,1.22893 1.3384,-1.34402 0.30858,-1.15869 -1.01636,-2.00026 0.26072,-0.0295 0.5221,-0.0528 0.78411,-0.0673 0.74167,-0.0341 1.47261,0.0433 2.19798,0.20857 2.21386,0.50893 4.26873,1.45006 6.31362,2.42396 2.7866,1.24962 5.42955,2.75751 8.05289,4.31749 1.84381,0.98442 0.45163,3.59197 -1.39219,2.60754 z"
       id="path7594"
       style="fill:#000000;fill-opacity:1;fill-rule:nonzero;stroke:none" />
    <path
       style="fill:#000000;fill-opacity:1;fill-rule:nonzero;stroke:none"
       id="path7596"
       d="m 475.98273,105.19657 c 2.74601,1.16433 5.4908,2.31146 8.35344,3.15817 1.97339,0.61641 3.93685,1.28217 6.00547,1.46489 0.47326,0.0436 0.94037,0.0409 1.40566,-0.046 0.18948,-0.0358 0.37729,-0.0794 0.56462,-0.1249 1.83512,1.18852 3.1072,1.79343 0.88703,3.60459 -1.4686,0.48643 -2.84985,1.18151 -4.2423,1.85371 -2.45963,1.24223 -4.8894,2.55096 -7.08655,4.22276 -1.4555,0.90028 -2.63489,2.11306 -3.91464,3.22268 -0.14338,0.10857 -0.28678,0.21709 -0.43017,0.32563 -1.67324,1.2526 -3.44469,-1.11372 -1.77146,-2.36632 l 0,0 c 0.0954,-0.0702 0.19069,-0.14035 0.28603,-0.21053 1.34722,-1.11076 2.53726,-2.4174 4.05064,-3.33166 2.36532,-1.77005 4.93785,-3.21124 7.58114,-4.52456 1.3413,-0.64745 2.67024,-1.36266 4.10445,-1.78265 -1.15056,1.50795 -0.15394,1.18915 1.26992,1.84968 -0.25459,0.0634 -0.51066,0.12079 -0.7685,0.16954 -0.73079,0.13111 -1.46557,0.1502 -2.20635,0.0815 -2.26149,-0.21417 -4.42204,-0.87766 -6.577,-1.57495 -2.92642,-0.87334 -5.74432,-2.02157 -8.54959,-3.22401 -1.957,-0.73409 -0.91884,-3.50171 1.03816,-2.76762 z"
       inkscape:connector-curvature="0"
       inkscape:transform-center-x="-17.290487"
       inkscape:transform-center-y="7.5445849" />
    <path
       style="fill:#000000;fill-opacity:1;fill-rule:nonzero;stroke:none"
       id="path7604"
       d="m 448.41586,53.540961 c -1.7175,3.38812 -3.80975,6.55808 -6.03926,9.62779 -1.98682,2.80194 -4.0353,5.5871 -5.68694,8.60531 -0.46899,1.05823 -0.93234,2.09088 -1.67509,2.99121 -0.77907,0.83914 -0.0974,0.22232 -2.71941,-0.45958 -0.86511,-1.90271 1.82574,-3.12616 2.69085,-1.22345 l 0,0 c -0.7676,-0.05 -1.53519,-0.10007 -2.30279,-0.15011 0.0221,-0.022 0.0441,-0.0439 0.0662,-0.0659 0.64062,-0.73928 0.89548,-1.66048 1.34865,-2.51376 1.71779,-3.12475 3.82103,-6.02197 5.8875,-8.92161 2.13619,-2.93666 4.14242,-5.969 5.78645,-9.2118 0.93474,-1.86949 3.5786,-0.54756 2.64386,1.32193 z"
       inkscape:connector-curvature="0" />
    <path
       style="fill:#000000;fill-opacity:1;fill-rule:nonzero;stroke:none"
       id="path7606"
       d="m 433.90825,55.520991 c 2.828,2.4353 5.00367,5.4631 7.0463,8.55621 1.70069,2.90904 3.82724,5.49605 5.94668,8.09737 -0.41834,-0.31023 1.41159,1.5252 1.01413,1.18863 -0.0859,-0.0727 -0.16695,-0.21281 -0.27759,-0.19217 -0.59741,0.11143 -1.15512,0.37809 -1.73268,0.56714 0.80367,-1.92948 3.53235,-0.79292 2.72869,1.13655 l 0,0 c -0.65063,0.36447 -1.23783,0.87831 -1.95189,1.09341 -0.724,0.21809 -1.68741,-1.6023 -2.07227,-1.92648 -2.18189,-2.67804 -4.36618,-5.34673 -6.12264,-8.33701 -1.85326,-2.81382 -3.81537,-5.5692 -6.35228,-7.81891 -1.67213,-1.25409 0.10143,-3.61883 1.77355,-2.36474 z"
       inkscape:connector-curvature="0" />
    <path
       style="fill:#000000;fill-opacity:1;fill-rule:nonzero;stroke:none"
       id="path7612"
       d="m 437.32116,44.195431 c 1.73412,0.36347 3.15739,1.23184 3.80078,2.91863 0.0973,1.83679 -1.16171,2.5172 -2.74877,2.78443 -1.95865,-0.10936 -2.2648,-1.66697 -2.36169,-3.30039 0.13432,-1.93112 1.24821,-3.0177 3.10977,-3.27827 2.02786,0.19651 2.62539,2.02825 2.59194,3.77965 -0.30702,1.76154 -1.7297,2.78193 -3.44747,2.19933 -0.86456,-0.61851 -1.15002,-1.40909 -1.27418,-2.3983 -0.20026,-0.98068 0.88734,-1.85509 1.85788,-1.89102 1.20721,-0.0586 1.79556,0.89582 2.02534,1.8818 0.32406,1.77849 -1.3451,2.03238 -2.53823,2.06626 -1.41894,0.12679 -2.63005,-0.0795 -3.83126,-0.85566 -1.67354,-1.83146 -1.27975,-3.331 0.23212,-5.09921 1.39694,-1.35195 2.91461,-1.8367 4.74771,-1.16833 1.73818,1.28025 2.43135,2.65895 1.43377,4.72214 -0.78427,1.20774 -1.98356,1.82301 -3.31689,2.23171 -1.98593,0.0786 -3.43188,-1.59029 -1.67104,-3.31141 0.24567,-0.0947 0.49133,-0.18938 0.73699,-0.28407 2.02265,-0.52692 2.76782,2.33354 0.74518,2.86045 l 0,0 c 0.0654,-0.0477 0.13085,-0.0955 0.19628,-0.14321 0.75395,-0.93747 0.44259,-2.32714 -0.85969,-1.95215 0.5621,-0.1644 1.10131,-0.34771 1.5386,-0.74949 0.0495,-0.0839 0.0514,-0.26087 0.1484,-0.25179 0.0951,0.009 0.0317,0.1946 0.0853,0.27367 0.0586,0.0863 0.0157,-0.22025 -0.036,-0.31091 -0.25663,-0.45071 -0.16299,-0.10427 -0.22656,-0.39508 -0.37008,-0.38621 -0.88172,0.15368 -1.29471,0.42171 -0.17623,0.19559 -0.29273,0.49096 -0.54259,0.57395 -0.0744,0.0247 -0.20255,-0.19514 -0.2041,-0.11678 -0.002,0.11531 0.18002,0.22713 0.0677,0.33931 0.52377,0.35292 1.25778,0.29613 1.97191,0.26028 1.13132,-0.0277 0.4549,0.0181 -0.27106,1.51812 0.0143,0.0113 1.57943,0.63431 0.96486,0.44285 -0.91312,0.0282 1.04587,-1.34554 0.97539,-1.41121 0.0558,0.44822 0.1855,0.53864 -0.47374,0.0394 -0.55934,-0.0752 -0.97461,0.53265 -0.68404,0.24317 0.0255,-0.5033 -0.16589,-0.64682 0.40507,-0.55977 0.31363,-0.21905 -0.15061,-0.20419 -0.21139,0.15792 0.0807,1.57453 0.16988,0.4453 -1.06228,0.5474 1.04435,-0.15703 0.10522,-0.0916 0.3946,0.9975 0.4972,-0.26989 -1.53323,-0.89907 -1.69088,-0.91501 -2.02774,-0.50694 -1.31083,-3.3746 0.71692,-2.86766 z"
       inkscape:connector-curvature="0" />
    <path
       style="fill:#000000;fill-opacity:1;fill-rule:nonzero;stroke:none"
       id="path7614"
       d="m 464.66168,48.766761 c 0.5643,3.00882 0.67287,6.07826 0.78432,9.13007 0.0455,3.40058 0.53323,6.77497 0.82688,10.15977 0.14302,1.75339 0.22876,3.51064 0.27024,5.26918 0.006,0.30625 0.0135,0.61258 -4.1e-4,0.91861 -0.16461,2.08366 -3.11135,1.85087 -2.94674,-0.23279 l 0,0 c -0.002,-0.20546 -0.005,-0.41091 -0.008,-0.61636 -0.0397,-1.69652 -0.12246,-3.39178 -0.26001,-5.08335 -0.29743,-3.43394 -0.79146,-6.85731 -0.83596,-10.30748 -0.10508,-2.89331 -0.20143,-5.80416 -0.72888,-8.65794 -0.40991,-2.04956 2.48861,-2.62927 2.89852,-0.57971 z"
       inkscape:connector-curvature="0" />
    <path
       style="fill:#000000;fill-opacity:1;fill-rule:nonzero;stroke:none"
       id="path7616"
       d="m 453.83079,47.974661 c 3.86655,0.0689 7.71916,-0.34683 11.57449,-0.59056 3.10037,-0.18615 6.20421,-0.31429 9.30941,-0.38133 0.71931,-0.01 1.43882,-0.0264 2.15824,-0.0186 0.0421,-3.9e-4 0.084,0.002 0.12604,0.004 2.08794,0.096 1.95211,3.04885 -0.13584,2.9528 l 0,0 c -0.008,-2.6e-4 0.10993,0.002 -0.0235,-7.8e-4 -0.68712,-0.005 -1.37424,0.006 -2.06125,0.0181 -3.06426,0.0659 -6.12716,0.19274 -9.18665,0.37614 -3.91732,0.24748 -7.83209,0.6672 -11.76093,0.59645 -2.09016,0 -2.09016,-2.95593 0,-2.95593 z"
       inkscape:connector-curvature="0" />
    <path
       style="fill:#000000;fill-opacity:1;fill-rule:nonzero;stroke:none"
       id="path7622"
       d="m 433.13933,79.504511 c 4.19321,0 8.38643,0 12.57964,0 5.6756,-0.21848 11.34387,-0.5808 17.01936,-0.80558 1.64128,-0.0612 3.28309,-0.10537 4.92496,-0.14671 2.08949,-0.0526 2.16386,2.9024 0.0744,2.95499 l 0,0 c -1.62768,0.0409 -3.25529,0.0847 -4.88238,0.14532 -5.71445,0.2262 -11.42149,0.59445 -17.13631,0.8079 -4.19321,0 -8.38643,0 -12.57964,0 -2.09015,0 -2.09015,-2.95592 0,-2.95592 z"
       inkscape:connector-curvature="0" />
    <path
       style="fill:#000000;fill-opacity:1;fill-rule:nonzero;stroke:none"
       id="path7626"
       d="m 443.34384,87.876781 c 1.95428,-1.24392 4.03,-2.22468 6.24411,-2.90004 1.91637,-0.54841 3.22626,-0.72875 4.89693,0.53485 1.78866,1.85567 1.25521,4.17359 0.61281,6.40216 -0.82206,2.56578 -2.14002,4.89656 -3.56054,7.16873 -1.04335,1.521649 -2.40019,2.812369 -3.4627,4.313849 -0.35548,0.48107 -0.60213,0.96038 -0.69901,1.5417 -0.008,0.083 -0.0203,0.16563 -0.0296,0.24855 -0.0839,-0.69613 0.051,0.22921 -1.20662,-1.32239 -0.11332,-0.1398 0.35951,0.0169 0.53929,0.025 0.41946,0.019 0.83896,0.0371 1.25842,0.0561 2.46238,0.0888 4.92713,-0.24062 7.35608,-0.6213 1.65259,-0.2856 3.32041,-0.44249 4.99251,-0.54923 2.086,-0.13183 2.27243,2.81821 0.18644,2.95004 l 0,0 c -1.58164,0.0989 -3.15885,0.24877 -4.7218,0.51955 -2.62355,0.41023 -5.28565,0.75294 -7.9455,0.6539 -1.12403,-0.0507 -3.14329,0.18776 -3.40476,-1.469 -0.0206,-0.33999 0.0115,-0.6796 0.0664,-1.01539 0.19027,-1.01602 0.60087,-1.91741 1.2151,-2.75283 1.05359,-1.42959 2.28937,-2.721449 3.35078,-4.147979 1.27969,-2.03778 2.47302,-4.12218 3.22604,-6.42105 0.30671,-1.05532 0.8256,-2.17671 0.38279,-3.27011 -0.11317,-0.10412 -0.13396,-0.35953 -0.28771,-0.36054 -0.64384,-0.004 -1.29284,0.21607 -1.91369,0.34587 -1.93364,0.57181 -3.72809,1.44814 -5.43715,2.51619 -1.73008,1.17285 -3.38874,-1.27385 -1.65866,-2.4467 z"
       inkscape:connector-curvature="0" />
    <path
       style="fill:#000000;fill-opacity:1;fill-rule:nonzero;stroke:none"
       id="path7664"
       d="m 670.89614,65.55712 c 2.19957,1.855116 4.80633,2.967427 7.50319,3.88037 2.35148,0.960723 4.83889,1.469384 7.23698,2.281581 0.8271,0.265472 1.77893,0.669603 2.6745,0.568806 1.28538,-0.25512 2.45276,0.09066 3.33812,1.103854 0.32358,0.517304 0.52761,1.090529 0.63796,1.687591 0.3244,1.663469 -1.5557,2.487058 -2.88359,2.719433 -2.41382,0.334461 -4.67019,1.315176 -6.98837,2.039052 -2.47636,1.069424 -5.05193,1.899918 -7.38258,3.270273 -1.03738,0.736112 -2.12879,1.367519 -3.30072,1.862178 -0.38696,0.167956 -0.78518,0.288736 -1.20181,0.349024 -0.1611,0.03511 -0.32668,0.05699 -0.4896,0.08308 -2.91761,0.474415 -3.58851,-3.651706 -0.6709,-4.126111 l 0,0 c 0.25505,-0.04129 0.50982,-0.08457 0.76591,-0.119038 -0.37907,0.05879 -0.34146,0.08494 -0.0189,-0.04299 1.00925,-0.418015 1.91126,-0.997973 2.80976,-1.617475 2.61155,-1.513427 5.45866,-2.503538 8.24382,-3.649949 2.48851,-0.775563 4.91835,-1.812651 7.51326,-2.166251 2.24291,-0.391939 -0.77876,0.592779 -0.5166,2.104445 0.003,-0.0012 -0.0347,-0.08836 0.042,-0.01887 1.00342,0.868343 2.95933,0.426736 0.16504,0.701235 -1.39563,-0.01252 -2.7819,-0.272128 -4.08253,-0.790659 -2.39812,-0.818269 -4.89411,-1.314743 -7.24518,-2.284387 -3.25112,-1.122429 -6.39366,-2.506319 -9.01508,-4.79164 -2.15236,-2.026038 0.71288,-5.069942 2.86524,-3.043904 z"
       inkscape:connector-curvature="0" />
  </g>
</svg>
