<?xml version="1.0" encoding="UTF-8" standalone="no"?>
<!-- Created with Inkscape (http://www.inkscape.org/) -->

<svg
   xmlns:dc="http://purl.org/dc/elements/1.1/"
   xmlns:cc="http://creativecommons.org/ns#"
   xmlns:rdf="http://www.w3.org/1999/02/22-rdf-syntax-ns#"
   xmlns:svg="http://www.w3.org/2000/svg"
   xmlns="http://www.w3.org/2000/svg"
   xmlns:sodipodi="http://sodipodi.sourceforge.net/DTD/sodipodi-0.dtd"
   xmlns:inkscape="http://www.inkscape.org/namespaces/inkscape"
   width="278.40552"
   height="232.04765"
   id="svg11587"
   version="1.1"
   inkscape:version="0.48.0 r9654"
   sodipodi:docname="New document 41.2010_12_10_02_47_26.0.svg">
  <defs
     id="defs11589" />
  <sodipodi:namedview
     inkscape:document-units="mm"
     pagecolor="#ffffff"
     bordercolor="#666666"
     borderopacity="1.0"
     inkscape:pageopacity="0.0"
     inkscape:pageshadow="2"
     inkscape:zoom="0.7176508"
     inkscape:cx="120.83106"
     inkscape:cy="132.19772"
     inkscape:current-layer="layer1"
     id="namedview11591"
     showgrid="false"
     fit-margin-top="0"
     fit-margin-left="0"
     fit-margin-right="0"
     fit-margin-bottom="0"
     inkscape:window-width="1280"
     inkscape:window-height="752"
     inkscape:window-x="0"
     inkscape:window-y="0"
     inkscape:window-maximized="0" />
  <metadata
     id="metadata11593">
    <rdf:RDF>
      <cc:Work
         rdf:about="">
        <dc:format>image/svg+xml</dc:format>
        <dc:type
           rdf:resource="http://purl.org/dc/dcmitype/StillImage" />
        <dc:title></dc:title>
      </cc:Work>
    </rdf:RDF>
  </metadata>
  <g
     inkscape:label="Layer 1"
     inkscape:groupmode="layer"
     id="layer1"
     transform="translate(-405.35003,-209.17115)">
    <path
       style="fill:#000000;fill-opacity:1;fill-rule:nonzero;stroke:none"
       id="path12216"
       d="m 603.14947,271.86259 c -3.22677,-1.38773 -6.7728,-1.82674 -10.24932,-1.58915 -7.28447,0.95413 -11.02695,4.48624 -15.03687,10.34185 -3.65409,7.0981 -4.84154,15.14902 -3.18715,22.99825 0.36287,1.72159 0.97735,3.38039 1.46602,5.07059 3.44688,8.17452 9.85803,14.62683 18.70383,16.6871 1.75545,0.40886 3.57504,0.46281 5.36256,0.69421 7.68394,-0.27101 14.98579,-2.96523 20.10687,-8.92952 3.15452,-3.67393 3.80095,-6.02203 5.74817,-10.41091 2.73874,-10.02197 1.2272,-19.16145 -5.4172,-27.30663 -1.13119,-1.3867 -2.49765,-2.56359 -3.74647,-3.84538 -6.91155,-5.2899 -12.497,-8.22877 -21.0942,-5.47486 -0.61533,0.39021 -1.23067,0.78042 -1.846,1.17063 -2.53938,1.51295 -4.67902,-2.07827 -2.13964,-3.59123 l 0,0 c 0.92273,-0.52616 1.84546,-1.05233 2.76819,-1.57849 1.09697,-0.32066 2.1669,-0.75517 3.2909,-0.96198 8.23429,-1.5151 15.85954,2.45113 22.03165,7.53603 1.39953,1.46793 2.93478,2.81751 4.19858,4.40379 5.58048,7.00451 8.39776,15.75352 7.29018,24.70954 -0.27933,2.25872 -1.01634,4.43695 -1.52451,6.65544 -2.32085,5.08399 -2.98634,7.55728 -6.7551,11.79396 -6.06107,6.81359 -14.55675,9.8203 -23.48126,9.9709 -2.06299,-0.29842 -4.16652,-0.39064 -6.18898,-0.89527 -10.14319,-2.53087 -17.45749,-10.02304 -21.32846,-19.48393 -0.53043,-1.8936 -1.20243,-3.75313 -1.59129,-5.68079 -1.79267,-8.88664 -0.35137,-17.95618 3.89985,-25.91605 0.8412,-1.19678 1.59549,-2.45961 2.52359,-3.59032 3.99695,-4.86946 9.47715,-7.83225 15.71546,-8.54084 4.21187,-0.19187 8.46655,0.25664 12.35009,2.02408 2.64386,1.32193 0.77437,5.06091 -1.86949,3.73898 z"
       inkscape:connector-curvature="0" />
    <path
       style="fill:#000000;fill-opacity:1;fill-rule:nonzero;stroke:none"
       id="path12218"
       d="m 601.37162,327.61708 c 0.92912,5.03828 0.9902,10.1951 1.13159,15.3024 0.15773,7.68407 0.15967,15.37027 0.16682,23.05563 0.002,5.34147 -0.002,10.68294 -0.006,16.0244 -9.9e-4,1.32359 -0.002,2.64717 -0.003,3.97076 -4.9959,1.21715 -4.06482,1.2787 -5.47702,-2.25207 -1.43229,-3.36845 -2.83815,-6.74804 -4.52162,-10.0025 -1.2928,-2.82448 -3.15885,-5.33626 -4.47953,-8.14482 -0.39079,-0.94485 -0.73714,-1.91925 -0.87313,-2.93661 -0.12184,-1.85633 0.53643,-0.93259 4.17922,-0.13753 0.0672,0.0147 0.0228,1.94649 0.023,2.00232 -0.0439,1.8688 -0.0534,3.68834 0.35234,5.51637 1.0009,2.95585 2.91684,5.52854 4.73781,8.03015 1.83286,2.6217 3.68593,5.21233 5.14779,8.0632 1.43033,3.0899 0.76481,1.07565 -1.51454,0.43127 -0.32752,-0.0926 -0.6088,0.30453 -0.9132,0.45679 1.22765,-3.00767 2.49759,-5.99777 3.83535,-8.95998 2.23263,-4.54211 4.21678,-9.19147 6.08323,-13.89374 0.56634,-1.45261 1.1022,-2.91678 1.61335,-4.38963 0.96952,-2.7924 4.91857,-1.42129 3.94905,1.37111 l 0,0 c -0.5316,1.5305 -1.08817,3.05223 -1.67733,4.56162 -1.89223,4.7611 -3.89731,9.47187 -6.15863,14.07149 -1.45429,3.21881 -2.72562,6.5246 -4.26358,9.69693 -0.46678,0.37567 -0.80148,1.14621 -1.40036,1.12702 -2.54606,-0.0816 -2.57058,-1.0827 -3.27531,-2.56973 -1.35622,-2.6611 -3.1112,-5.05715 -4.80756,-7.50896 -2.15688,-2.97293 -4.39413,-6.03971 -5.44194,-9.60399 -0.44842,-2.11629 -0.51955,-4.22145 -0.44673,-6.37987 -0.0142,-2.97544 -0.55555,-1.53967 4.13619,-2.05838 0.0448,-0.005 -0.006,-0.25606 -0.007,-0.31946 0.10548,0.57063 0.29138,1.1386 0.51784,1.67847 1.24283,2.7729 3.19984,5.17933 4.39865,7.97918 1.73954,3.37938 3.21,6.87877 4.69136,10.37524 1.15095,2.91789 1.64664,2.34117 -2.58799,3.79264 10e-4,-1.32342 0.002,-2.64684 0.003,-3.97025 0.004,-5.33918 0.008,-10.67837 0.006,-16.01755 -0.007,-7.64818 -0.009,-15.29717 -0.16523,-22.94408 -0.13249,-4.80625 -0.19059,-9.65455 -1.00837,-14.40397 -0.71692,-2.86767 3.33857,-3.88154 4.05549,-1.01387 z"
       inkscape:connector-curvature="0" />
    <path
       inkscape:connector-curvature="0"
       d="m 647.82631,378.60936 c -3.07321,-4.09915 -5.42169,-8.69057 -7.82006,-13.20193 -3.55918,-6.81191 -6.97977,-13.69501 -10.40465,-20.57506 -2.37771,-4.78308 -4.75003,-9.56883 -7.12235,-14.35457 -0.58785,-1.18588 -1.17568,-2.37176 -1.76352,-3.55765 3.93307,-3.31231 3.07179,-2.95328 5.9071,-0.41918 2.7811,2.37978 5.54348,4.78131 8.49885,6.94728 2.4142,1.95464 5.20274,3.37423 7.63483,5.30221 0.77027,0.67241 1.5139,1.39105 2.08822,2.24174 0.93482,1.60839 -0.0656,1.07386 -3.68185,1.98211 -0.0667,0.0167 -0.88623,-1.73319 -0.91124,-1.7831 -0.79193,-1.69328 -1.59277,-3.32713 -2.76927,-4.78389 -2.21121,-2.20214 -5.07152,-3.65409 -7.81516,-5.08463 -2.8077,-1.53281 -5.61969,-3.02879 -8.19705,-4.93187 -2.65545,-2.13119 -1.16344,-0.6232 1.16463,-1.05993 0.33452,-0.0627 0.40981,-0.54355 0.61471,-0.81531 0.2383,3.23981 0.43092,6.4827 0.55039,9.73078 0.0207,5.06113 0.31174,10.10778 0.73168,15.14948 0.1389,1.5529 0.31023,3.10261 0.50757,4.64909 0.37374,2.9322 -3.77301,3.46075 -4.14675,0.52856 l 0,0 c -0.20466,-1.60723 -0.38306,-3.21769 -0.52677,-4.83161 -0.42302,-5.10584 -0.72259,-10.2168 -0.74322,-15.3422 -0.12924,-3.52973 -0.46102,-7.05598 -0.49465,-10.58129 0.25096,-0.54409 0.20799,-1.38309 0.7529,-1.63228 2.31662,-1.05941 2.78387,-0.17371 4.07648,0.84465 2.39833,1.78009 5.03592,3.14545 7.6458,4.58681 3.25414,1.70324 6.622,3.4548 9.14585,6.181 1.34295,1.69595 2.34304,3.54975 3.2379,5.51529 1.3362,2.65857 1.18241,1.13185 -2.78892,3.68332 -0.0379,0.0244 0.11927,0.22668 0.14837,0.28302 -0.34829,-0.46417 -0.76742,-0.89016 -1.21038,-1.27296 -2.34651,-1.93066 -5.16965,-3.21544 -7.48873,-5.18984 -3.06114,-2.2529 -5.93467,-4.73299 -8.81666,-7.20561 -2.32871,-2.1014 -2.51613,-1.36439 0.63089,-4.54795 0.58777,1.18574 1.17554,2.37149 1.7633,3.55721 2.37131,4.7837 4.74262,9.5674 7.1193,14.34843 3.40821,6.84681 6.8123,13.69657 10.35361,20.47586 2.2565,4.24568 4.46507,8.56211 7.31007,12.45207 1.91764,2.24948 -1.26359,4.96142 -3.18123,2.71195 z"
       id="path12220"
       style="fill:#000000;fill-opacity:1;fill-rule:nonzero;stroke:none" />
    <path
       style="fill:#a0a0a0;stroke:none"
       d="m 593.92975,324.0801 c -7.25486,-1.93814 -15.61727,-10.49542 -17.65628,-18.06776 -3.22972,-11.99424 0.95048,-27.03083 8.85017,-31.83492 3.16625,-1.92551 6.59253,-2.44031 14.74259,-2.21508 12.32329,0.34055 16.59234,2.49765 22.22193,11.22848 2.99736,4.64854 3.66109,7.33891 3.68923,14.95398 0.0299,8.10332 -0.49795,10.03918 -4.14599,15.20368 -6.60813,9.35509 -17.32032,13.505 -27.70165,10.73162 l 0,0 z"
       id="path12228"
       inkscape:connector-curvature="0" />
    <path
       inkscape:connector-curvature="0"
       d="m 438.72411,271.8626 c -3.22677,-1.38773 -6.7728,-1.82674 -10.24932,-1.58915 -7.28447,0.95413 -11.02695,4.48624 -15.03687,10.34185 -3.65409,7.0981 -4.84154,15.14902 -3.18715,22.99826 0.36287,1.72159 0.97735,3.38039 1.46602,5.07059 3.44688,8.17451 9.85803,14.62682 18.70383,16.68709 1.75545,0.40886 3.57504,0.46281 5.36256,0.69421 7.68394,-0.27101 14.98579,-2.96523 20.10687,-8.92952 3.15452,-3.67393 3.80095,-6.02203 5.74817,-10.4109 2.73874,-10.02198 1.2272,-19.16146 -5.4172,-27.30664 -1.13119,-1.3867 -2.49765,-2.56359 -3.74647,-3.84538 -6.91155,-5.2899 -12.497,-8.22877 -21.0942,-5.47486 -0.61533,0.39021 -1.23067,0.78042 -1.846,1.17063 -2.53938,1.51295 -4.67902,-2.07827 -2.13964,-3.59123 l 0,0 c 0.92273,-0.52616 1.84546,-1.05233 2.76819,-1.57849 1.09697,-0.32066 2.1669,-0.75517 3.2909,-0.96198 8.23429,-1.5151 15.85954,2.45113 22.03165,7.53603 1.39953,1.46793 2.93478,2.81751 4.19858,4.40379 5.58048,7.00451 8.39776,15.75352 7.29018,24.70954 -0.27933,2.25873 -1.01634,4.43696 -1.52451,6.65545 -2.32085,5.08398 -2.98634,7.55727 -6.7551,11.79395 -6.06107,6.81359 -14.55675,9.8203 -23.48126,9.9709 -2.06299,-0.29842 -4.16652,-0.39064 -6.18898,-0.89527 -10.14319,-2.53087 -17.45749,-10.02304 -21.32846,-19.48393 -0.53043,-1.89359 -1.20243,-3.75312 -1.59129,-5.68078 -1.79267,-8.88665 -0.35137,-17.95619 3.89985,-25.91606 0.8412,-1.19678 1.59549,-2.45961 2.52359,-3.59032 3.99695,-4.86946 9.47715,-7.83225 15.71546,-8.54084 4.21187,-0.19187 8.46655,0.25664 12.35009,2.02408 2.64386,1.32193 0.77437,5.06091 -1.86949,3.73898 z"
       id="path12230"
       style="fill:#000000;fill-opacity:1;fill-rule:nonzero;stroke:none" />
    <path
       inkscape:connector-curvature="0"
       d="m 436.94626,327.61709 c 0.92912,5.03828 0.9902,10.1951 1.13159,15.3024 0.15773,7.68407 0.15967,15.37027 0.16682,23.05562 0.002,5.34147 -0.002,10.68294 -0.006,16.0244 -9.9e-4,1.32359 -0.002,2.64717 -0.003,3.97076 -4.9959,1.21715 -4.06482,1.2787 -5.47702,-2.25207 -1.43229,-3.36845 -2.83815,-6.74804 -4.52162,-10.0025 -1.2928,-2.82448 -3.15885,-5.33626 -4.47953,-8.14482 -0.39079,-0.94484 -0.73714,-1.91924 -0.87313,-2.9366 -0.12184,-1.85633 0.53643,-0.93259 4.17922,-0.13753 0.0672,0.0147 0.0228,1.94649 0.023,2.00232 -0.0439,1.86879 -0.0534,3.68833 0.35234,5.51636 1.0009,2.95585 2.91684,5.52854 4.73781,8.03015 1.83286,2.6217 3.68593,5.21233 5.14779,8.0632 1.43033,3.0899 0.76481,1.07565 -1.51454,0.43127 -0.32752,-0.0926 -0.6088,0.30453 -0.9132,0.45679 1.22765,-3.00767 2.49759,-5.99777 3.83535,-8.95998 2.23263,-4.54211 4.21678,-9.19147 6.08323,-13.89373 0.56634,-1.45261 1.1022,-2.91678 1.61335,-4.38963 0.96952,-2.7924 4.91857,-1.42129 3.94905,1.37111 l 0,0 c -0.5316,1.5305 -1.08817,3.05223 -1.67733,4.56161 -1.89223,4.7611 -3.89731,9.47187 -6.15863,14.07149 -1.45429,3.21881 -2.72562,6.5246 -4.26358,9.69693 -0.46678,0.37567 -0.80148,1.14621 -1.40036,1.12702 -2.54606,-0.0816 -2.57058,-1.0827 -3.27531,-2.56973 -1.35622,-2.6611 -3.1112,-5.05715 -4.80756,-7.50896 -2.15688,-2.97293 -4.39413,-6.03971 -5.44194,-9.60399 -0.44842,-2.11629 -0.51955,-4.22145 -0.44673,-6.37986 -0.0142,-2.97544 -0.55555,-1.53967 4.13619,-2.05838 0.0448,-0.005 -0.006,-0.25606 -0.007,-0.31946 0.10548,0.57063 0.29138,1.1386 0.51784,1.67847 1.24283,2.77289 3.19984,5.17932 4.39865,7.97917 1.73954,3.37938 3.21,6.87877 4.69136,10.37524 1.15095,2.91789 1.64664,2.34117 -2.58799,3.79264 10e-4,-1.32342 0.002,-2.64684 0.003,-3.97025 0.004,-5.33918 0.008,-10.67837 0.006,-16.01755 -0.007,-7.64817 -0.009,-15.29716 -0.16523,-22.94407 -0.13249,-4.80625 -0.19059,-9.65455 -1.00837,-14.40397 -0.71692,-2.86767 3.33857,-3.88154 4.05549,-1.01387 z"
       id="path12232"
       style="fill:#000000;fill-opacity:1;fill-rule:nonzero;stroke:none" />
    <path
       inkscape:connector-curvature="0"
       id="path12236"
       d="m 429.50439,324.08011 c -7.25486,-1.93814 -15.61727,-10.49542 -17.65628,-18.06775 -3.22972,-11.99425 0.95048,-27.03084 8.85017,-31.83493 3.16625,-1.92551 6.59253,-2.44031 14.74259,-2.21508 12.32329,0.34055 16.59234,2.49765 22.22193,11.22848 2.99736,4.64854 3.66109,7.33891 3.68923,14.95398 0.0299,8.10333 -0.49795,10.03919 -4.14599,15.20368 -6.60813,9.35509 -17.32032,13.505 -27.70165,10.73162 l 0,0 z"
       style="fill:#a0a0a0;stroke:none" />
    <path
       style="fill:#000000;fill-opacity:1;fill-rule:nonzero;stroke:none"
       id="path12244"
       d="m 414.73088,218.82648 c 1.51643,4.48846 1.9266,9.24563 2.28351,13.9407 0.13654,2.05881 0.21171,4.12067 0.28135,6.18253 0.0996,2.95425 -4.07831,3.09513 -4.17793,0.14089 l 0,0 c -0.0675,-2.00362 -0.14022,-4.00723 -0.2718,-6.00793 -0.3219,-4.27258 -0.67622,-8.60228 -1.99644,-12.70366 -1.09781,-2.74451 2.78351,-4.29703 3.88131,-1.55253 z"
       inkscape:connector-curvature="0" />
    <path
       style="fill:#000000;fill-opacity:1;fill-rule:nonzero;stroke:none"
       id="path12250"
       d="m 589.6445,215.45512 c 1.94232,-2.47907 4.13997,-4.45967 6.9445,-5.89967 4.36013,-1.36136 6.14671,1.03546 7.04499,4.96114 0.71195,3.70913 -0.25646,7.15794 -1.9921,10.4125 -1.69419,2.8916 -3.84119,5.43297 -5.9281,8.0357 -1.06832,1.03932 -2.05546,2.16059 -2.95143,3.35132 1.40108,-2.88532 -2.0579,-2.90821 0.19851,-2.88294 1.30185,0.10384 1.37269,-0.14562 2.62244,-0.55438 2.71704,-0.49058 5.44143,-0.91633 8.16258,-1.42163 1.6592,-0.16205 3.23465,-0.72121 4.81154,-1.22746 2.81473,-0.90265 4.09128,3.07797 1.27655,3.98063 l 0,0 c -1.7441,0.55875 -3.4951,1.15713 -5.32534,1.35697 -2.54542,0.47207 -5.08789,0.91719 -7.6444,1.2907 -1.30553,0.41076 -2.56346,0.92842 -3.96511,0.75501 -2.34063,-0.0406 -4.59413,-0.91938 -3.47406,-3.81433 0.92265,-1.22071 1.91287,-2.39874 3.02757,-3.44919 1.93265,-2.4095 3.93255,-4.74817 5.51627,-7.41645 1.30447,-2.34066 2.07276,-4.83443 1.57798,-7.53865 -0.17723,-0.91907 0.0807,-2.31036 -1.06667,-2.1109 -2.2505,1.1235 -3.9299,2.70663 -5.49148,4.67981 -1.77355,2.36474 -5.11779,-0.14344 -3.34424,-2.50818 z"
       inkscape:connector-curvature="0" />
    <path
       style="fill:#000000;fill-opacity:1;fill-rule:nonzero;stroke:none"
       id="path12254"
       d="m 444.23785,217.95994 c 2.53901,-1.14985 5.26615,-1.82751 7.99963,-2.32731 2.84489,-0.24068 4.6173,1.1272 5.32172,3.81679 0.65224,3.23729 -1.46921,5.39514 -3.9618,7.01814 -2.19897,1.19437 -4.51714,2.15657 -6.77459,3.23943 -0.92755,0.53532 -0.72845,-0.15751 -0.52861,-3.30895 0.0104,-0.16348 0.32688,0.0223 0.49049,0.0304 0.88034,0.0436 0.86749,0.0365 1.76628,0.0544 2.25195,-0.0439 4.44987,-0.10055 6.65127,0.42466 2.55047,0.84209 4.06397,2.78167 4.90791,5.23304 0.42437,1.73544 0.45408,3.52664 0.45831,5.3029 0.16038,3.02514 -2.33629,4.36852 -4.74097,5.41747 -3.72236,1.51114 -7.60429,1.13837 -11.43434,0.33913 -1.51511,-0.39525 -2.93208,-1.04356 -4.33679,-1.71728 -2.66225,-1.2845 -0.84569,-5.04948 1.81655,-3.76498 l 0,0 c 1.09845,0.53384 2.20601,1.05145 3.38378,1.39212 2.98077,0.63789 6.00954,1.05772 8.93043,-0.094 0.89788,-0.371 2.28438,-0.48588 2.20104,-1.56405 -0.002,-1.35046 -0.0152,-2.70908 -0.26083,-4.04162 -0.27832,-1.07191 -0.87529,-1.99739 -1.92556,-2.44391 -1.88638,-0.48749 -3.80125,-0.27429 -5.73716,-0.30406 -0.46522,-0.01 -2.99896,0.16976 -3.25787,-0.22784 -2.02467,-3.10928 -2.28116,-3.49049 -0.1918,-4.4966 2.11279,-1.01332 4.27488,-1.92682 6.35189,-3.00574 0.96784,-0.58016 2.34891,-1.24829 2.11083,-2.57931 -0.0469,-0.62432 0.82119,-0.39038 -0.49663,-0.6065 -2.34494,0.41796 -4.68518,0.99931 -6.87369,1.95265 -2.64386,1.32193 -4.51335,-2.41706 -1.86949,-3.73899 z"
       inkscape:connector-curvature="0" />
    <path
       style="fill:#000000;fill-opacity:1;fill-rule:nonzero;stroke:none"
       id="path12260"
       d="m 415.94046,402.14277 c 0,3.24759 0,6.49517 0,9.74276 0,1.84237 0,3.68475 0,5.52713 0,0.0962 0.036,0.37791 0,0.28866 -0.52506,-1.30338 -0.43104,-2.09937 -2.33224,-1.71377 -0.34558,0.0701 -0.51716,0.56237 -0.86706,0.60601 -0.16909,0.0211 0.0462,-0.33767 0.0692,-0.5065 0.8529,-3.88177 1.42732,-7.81114 2.33477,-11.68445 0.80603,-3.58 1.42911,-7.22446 3.67074,-10.21529 4.41306,-3.67417 5.87587,2.13323 6.38513,5.33162 0.41152,3.55197 0.478,7.13304 0.51268,10.7052 0.005,0.8665 0.006,1.73303 3.5e-4,2.59952 -9.7e-4,0.14794 0.0453,0.58332 -0.004,0.4438 -0.57176,-1.62048 1.00438,0.0453 -1.55824,-1.79879 -0.51479,0.1638 -1.00593,0.44754 -1.54437,0.49139 -0.13352,0.0109 0.093,-0.25127 0.13934,-0.37696 0.10466,-0.28387 0.20763,-0.56836 0.31366,-0.85172 0.60699,-1.6221 1.31348,-3.19668 1.93483,-4.81381 1.23326,-3.02503 2.25883,-6.09896 4.09885,-8.82061 5.1525,-4.18513 6.29164,4.15931 7.03883,7.33607 1.07277,3.92699 1.15389,8.04301 2.26852,11.95156 0.16072,0.46784 0.30218,0.9253 0.50463,1.37551 0.0308,0.0685 -0.0466,-0.14274 -0.0699,-0.21411 1.76737,2.36936 -1.58342,4.8688 -3.35079,2.49944 l 0,0 c -0.5006,-0.80076 -0.87356,-1.60238 -1.10789,-2.52806 -1.10772,-3.97735 -1.28748,-8.12582 -2.3139,-12.1273 -0.30339,-1.29007 -1.17173,-3.83444 -1.27245,-5.15674 -0.0375,-0.49247 1.83373,0.0395 1.7567,-0.78132 -1.68182,2.43835 -2.48757,5.26923 -3.65244,7.97 -0.39194,1.01254 -2.33286,6.57247 -3.02061,7.14552 -0.58278,0.48558 -1.33834,0.7145 -2.00751,1.07176 -0.63551,-0.35885 -1.39831,-0.55274 -1.90652,-1.07653 -0.93318,-0.9618 -0.22755,-3.16809 -0.42732,-4.29829 -0.0323,-3.3737 -0.0928,-6.75537 -0.46451,-10.11158 -0.22852,-1.56497 -0.13773,-1.21465 -0.4475,-2.51978 -0.0367,-0.15451 -0.26014,-0.38371 -0.12126,-0.46071 0.17738,-0.0983 1.85499,0.4807 1.62172,-0.42687 -1.96934,2.40216 -2.06889,5.7375 -2.90752,8.61378 -0.90285,3.82596 -1.4562,7.71163 -2.30474,11.54626 -0.8976,3.96768 -4.42322,4.41819 -5.14964,0.50709 0,-1.84238 0,-3.68476 0,-5.52713 0,-3.24759 0,-6.49517 0,-9.74276 0,-2.95592 4.18031,-2.95592 4.18031,0 z"
       inkscape:connector-curvature="0" />
    <path
       style="fill:#000000;fill-opacity:1;fill-rule:nonzero;stroke:none"
       id="path12262"
       d="m 450.34765,400.72535 c -2.58568,1.72655 -3.57827,4.50509 -4.33786,7.37745 -0.24331,1.09861 -0.57542,2.35264 -0.29558,3.49486 0.0816,0.33294 0.28555,0.0713 0.0818,-0.33037 1.31513,-1.09033 2.01233,-2.53915 2.60789,-4.14638 0.81426,-2.25139 0.92401,-4.64129 1.0011,-7.00835 0.0329,-1.61225 0.0182,-3.22499 -0.003,-4.83728 -0.004,-0.29504 -0.009,-0.59008 -0.0167,-0.88504 0.0396,1.43284 2.82304,0.0718 4.17789,0.4235 0.22495,0.0584 -0.0232,0.46594 -1.8e-4,0.6972 0.024,0.24087 0.0956,0.4746 0.14045,0.71246 0.33912,1.7986 0.0824,0.67991 0.59041,2.60948 1.90271,5.1707 3.35285,10.47747 4.73493,15.80561 0.99166,4.09923 2.15637,8.30599 1.73334,12.57435 -0.25886,2.61183 -0.7113,3.41227 -1.5811,5.81409 -3.29141,5.75695 -7.53042,7.81167 -13.98619,8.19188 -3.60856,-0.37135 -8.37575,-1.38275 -10.19941,-5.02043 -0.34613,-0.69043 -0.44279,-1.47984 -0.66419,-2.21977 -0.64868,-2.88386 3.42972,-3.80124 4.0784,-0.91737 l 0,0 c -0.0109,2.96989 4.38603,3.65782 6.59267,3.9817 4.27648,-0.12187 8.00093,-1.64608 10.26061,-5.47318 2.28155,-5.9331 1.29191,-9.86582 -0.28054,-15.88171 -1.38222,-5.32924 -2.8484,-10.62944 -4.73511,-15.80634 -0.1173,-0.4585 -1.15439,-4.97887 -0.86439,-5.07121 1.34175,-0.42727 2.78469,-0.42056 4.17704,-0.63084 9.5e-4,0.019 0.002,0.038 0.003,0.057 0.009,0.32778 0.015,0.65562 0.0192,0.98349 0.0221,1.67669 0.0371,3.35385 10e-4,5.03047 -0.0949,2.83432 -0.27993,5.6853 -1.27774,8.37174 -1.37408,3.47731 -3.39646,6.72589 -7.55344,6.69276 -0.57737,-0.24796 -1.22491,-0.37295 -1.73212,-0.74387 -2.32107,-1.69742 -1.53676,-5.25635 -1.04534,-7.55934 1.1095,-4.03244 2.76581,-7.78038 6.50382,-10.02551 2.64386,-1.32193 4.51335,2.41705 1.86949,3.73898 z"
       inkscape:connector-curvature="0" />
    <path
       style="fill:#000000;fill-opacity:1;fill-rule:nonzero;stroke:none"
       id="path12300"
       d="m 657.10903,334.58426 c 0.79293,5.30425 1.2746,10.66785 1.75504,16.01251 0.71912,5.97807 1.48508,11.95069 2.02333,17.94851 0.1518,1.90864 0.0822,1.05397 0.20695,2.56414 0.2433,2.94589 -3.92282,3.28997 -4.16612,0.34408 l 0,0 c -0.12462,-1.50907 -0.0559,-0.66413 -0.20444,-2.53495 -0.53714,-5.99773 -1.30968,-11.96936 -2.02327,-17.94785 -0.46037,-5.13061 -0.94555,-10.27249 -1.64698,-15.37257 -0.71692,-2.86766 3.33858,-3.88153 4.05549,-1.01387 z"
       inkscape:connector-curvature="0" />
    <path
       style="fill:#000000;fill-opacity:1;fill-rule:nonzero;stroke:none"
       id="path12302"
       d="m 652.28752,335.01693 c 3.46059,-0.84397 6.97821,-1.41346 10.47217,-2.09942 4.30939,-0.86059 8.66595,-1.44563 13.04421,-1.80371 1.74091,-0.11543 0.86156,-0.1256 2.6379,0.0399 2.93489,0.35201 2.43708,4.50257 -0.49781,4.15056 l 0,0 c -0.97663,-0.17858 -0.37949,-0.11761 -1.80059,-0.024 -4.2227,0.34271 -8.42382,0.91039 -12.57991,1.73952 -3.42403,0.66965 -6.87122,1.22689 -10.2621,2.05261 -2.86767,0.71692 -3.88154,-3.33858 -1.01387,-4.05549 z"
       inkscape:connector-curvature="0" />
    <path
       style="fill:#000000;fill-opacity:1;fill-rule:nonzero;stroke:none"
       id="path12304"
       d="m 658.53487,351.84242 c 3.63387,-0.38503 7.2115,-1.09013 10.804,-1.73868 2.37683,-0.43762 4.77997,-0.6795 7.18706,-0.86671 2.94712,-0.2279 3.26941,3.93996 0.32229,4.16786 l 0,0 c -2.26641,0.17417 -4.52903,0.4009 -6.76687,0.81269 -3.83596,0.69213 -7.65849,1.45481 -11.54648,1.80515 -2.95592,0 -2.95592,-4.18031 0,-4.18031 z"
       inkscape:connector-curvature="0" />
    <path
       style="fill:#000000;fill-opacity:1;fill-rule:nonzero;stroke:none"
       id="path12306"
       d="m 681.65791,363.1026 c -2.03705,0.77051 -3.97892,1.685 -5.64067,3.10571 -0.0974,0.14031 -0.20015,0.27706 -0.29223,0.42093 -0.0949,0.14822 -0.21218,0.28792 -0.26827,0.45473 -0.006,0.0167 0.32183,-0.80426 0.37075,-0.81448 0.10859,-0.0227 0.21238,0.0641 0.31857,0.0962 1.93584,1.12804 3.75833,2.36573 5.37959,3.91815 2.84015,3.34038 3.20734,5.92932 -0.30363,8.95329 -3.05076,1.75932 -6.20561,1.50149 -9.49745,0.75051 -2.87902,-0.66989 -1.93164,-4.74143 0.94737,-4.07154 l 0,0 c 2.0483,0.48827 3.97651,0.87204 6.00033,0.008 1.7072,-0.86466 1.09823,-0.93249 -0.0507,-2.63374 -1.38226,-1.35009 -2.97438,-2.36816 -4.63505,-3.34573 -3.07316,-2.09456 -3.14419,-4.33418 -0.66119,-6.93488 1.92809,-1.60474 4.10336,-2.79098 6.46307,-3.64646 2.64386,-1.32193 4.51335,2.41705 1.86949,3.73898 z"
       inkscape:connector-curvature="0" />
    <path
       style="fill:#000000;fill-opacity:1;fill-rule:nonzero;stroke:none"
       id="path12312"
       d="m 577.57895,400.74933 c 0,3.24759 0,6.49517 0,9.74276 0,1.84237 0,3.68475 0,5.52713 0,0.0962 0.036,0.37791 0,0.28866 -0.52506,-1.30338 -0.43104,-2.09937 -2.33224,-1.71377 -0.34558,0.0701 -0.51716,0.56237 -0.86706,0.60601 -0.16909,0.0211 0.0462,-0.33767 0.0692,-0.5065 0.8529,-3.88177 1.42732,-7.81114 2.33477,-11.68445 0.80603,-3.58 1.42911,-7.22446 3.67074,-10.21529 4.41306,-3.67417 5.87587,2.13323 6.38513,5.33162 0.41152,3.55197 0.478,7.13304 0.51268,10.7052 0.005,0.8665 0.006,1.73303 3.5e-4,2.59952 -9.7e-4,0.14794 0.0453,0.58332 -0.004,0.4438 -0.57176,-1.62048 1.00438,0.0453 -1.55824,-1.79879 -0.51479,0.1638 -1.00593,0.44754 -1.54437,0.49139 -0.13352,0.0109 0.093,-0.25127 0.13934,-0.37696 0.10466,-0.28387 0.20763,-0.56836 0.31366,-0.85172 0.60699,-1.6221 1.31348,-3.19668 1.93483,-4.81381 1.23326,-3.02503 2.25883,-6.09896 4.09885,-8.82061 5.1525,-4.18513 6.29164,4.15931 7.03883,7.33607 1.07277,3.92699 1.15389,8.04301 2.26852,11.95156 0.16072,0.46784 0.30218,0.9253 0.50463,1.37551 0.0308,0.0685 -0.0466,-0.14274 -0.0699,-0.21411 1.76737,2.36936 -1.58342,4.8688 -3.35079,2.49944 l 0,0 c -0.5006,-0.80076 -0.87356,-1.60238 -1.10789,-2.52806 -1.10772,-3.97735 -1.28748,-8.12582 -2.3139,-12.1273 -0.30339,-1.29007 -1.17173,-3.83444 -1.27245,-5.15674 -0.0375,-0.49247 1.83373,0.0395 1.7567,-0.78132 -1.68182,2.43835 -2.48757,5.26923 -3.65244,7.97 -0.39194,1.01254 -2.33286,6.57247 -3.02061,7.14552 -0.58278,0.48558 -1.33834,0.7145 -2.00751,1.07176 -0.63551,-0.35885 -1.39831,-0.55274 -1.90652,-1.07653 -0.93318,-0.9618 -0.22755,-3.16809 -0.42732,-4.29829 -0.0323,-3.3737 -0.0928,-6.75537 -0.46451,-10.11158 -0.22852,-1.56497 -0.13773,-1.21465 -0.4475,-2.51978 -0.0367,-0.15451 -0.26014,-0.38371 -0.12126,-0.46071 0.17738,-0.0983 1.85499,0.4807 1.62172,-0.42687 -1.96934,2.40216 -2.06889,5.7375 -2.90752,8.61378 -0.90285,3.82596 -1.4562,7.71163 -2.30474,11.54626 -0.8976,3.96768 -4.42322,4.41819 -5.14964,0.50709 0,-1.84238 0,-3.68476 0,-5.52713 0,-3.24759 0,-6.49517 0,-9.74276 0,-2.95592 4.18031,-2.95592 4.18031,0 z"
       inkscape:connector-curvature="0" />
    <path
       style="fill:#000000;fill-opacity:1;fill-rule:nonzero;stroke:none"
       id="path12314"
       d="m 611.98614,399.33191 c -2.58568,1.72655 -3.57827,4.50509 -4.33786,7.37745 -0.24331,1.09861 -0.57542,2.35264 -0.29558,3.49486 0.0816,0.33294 0.28555,0.0713 0.0818,-0.33037 1.31513,-1.09033 2.01233,-2.53915 2.60789,-4.14638 0.81426,-2.25139 0.92401,-4.64129 1.0011,-7.00835 0.0329,-1.61225 0.0182,-3.22499 -0.003,-4.83728 -0.004,-0.29504 -0.009,-0.59008 -0.0167,-0.88504 0.0396,1.43284 2.82304,0.0718 4.17789,0.4235 0.22495,0.0584 -0.0232,0.46594 -1.8e-4,0.6972 0.024,0.24087 0.0956,0.4746 0.14045,0.71246 0.33912,1.7986 0.0824,0.67991 0.59041,2.60948 1.90271,5.1707 3.35285,10.47747 4.73493,15.80561 0.99166,4.09923 2.15637,8.30599 1.73334,12.57435 -0.25886,2.61183 -0.7113,3.41227 -1.5811,5.81409 -3.29141,5.75695 -7.53042,7.81167 -13.98619,8.19188 -3.60856,-0.37135 -8.37575,-1.38275 -10.19941,-5.02043 -0.34613,-0.69043 -0.44279,-1.47984 -0.66419,-2.21977 -0.64868,-2.88386 3.42972,-3.80124 4.0784,-0.91737 l 0,0 c -0.0109,2.96989 4.38603,3.65782 6.59267,3.9817 4.27648,-0.12187 8.00093,-1.64608 10.26061,-5.47318 2.28155,-5.9331 1.29191,-9.86582 -0.28054,-15.88171 -1.38222,-5.32924 -2.8484,-10.62944 -4.73511,-15.80634 -0.1173,-0.4585 -1.15439,-4.97887 -0.86439,-5.07121 1.34175,-0.42727 2.78469,-0.42056 4.17704,-0.63084 9.5e-4,0.019 0.002,0.038 0.003,0.057 0.009,0.32778 0.015,0.65562 0.0192,0.98349 0.0221,1.67669 0.0371,3.35385 10e-4,5.03047 -0.0949,2.83432 -0.27993,5.6853 -1.27774,8.37174 -1.37408,3.47731 -3.39646,6.72589 -7.55344,6.69276 -0.57737,-0.24796 -1.22491,-0.37295 -1.73212,-0.74387 -2.32107,-1.69742 -1.53676,-5.25635 -1.04534,-7.55934 1.1095,-4.03244 2.76581,-7.78038 6.50382,-10.02551 2.64386,-1.32193 4.51335,2.41705 1.86949,3.73898 z"
       inkscape:connector-curvature="0" />
    <path
       style="fill:#000000;fill-opacity:1;fill-rule:nonzero;stroke:none"
       id="path3792"
       d="m 428.59407,231.04224 c 1.21227,2.21543 1.92409,4.60753 2.33383,7.08531 0.15714,3.54547 -1.26429,6.72643 -3.16683,9.62201 -1.63149,2.46489 -5.11738,0.15761 -3.48589,-2.30728 l 0,0 c 1.34269,-2.01028 2.43328,-4.17709 2.52601,-6.64747 -0.32412,-2.06396 -0.93139,-4.04397 -1.9461,-5.88308 -1.32193,-2.64386 2.41705,-4.51335 3.73898,-1.86949 z"
       inkscape:connector-curvature="0" />
  </g>
</svg>
