<?xml version="1.0" encoding="UTF-8" standalone="no"?>
<!-- Created with Inkscape (http://www.inkscape.org/) -->

<svg
   xmlns:dc="http://purl.org/dc/elements/1.1/"
   xmlns:cc="http://creativecommons.org/ns#"
   xmlns:rdf="http://www.w3.org/1999/02/22-rdf-syntax-ns#"
   xmlns:svg="http://www.w3.org/2000/svg"
   xmlns="http://www.w3.org/2000/svg"
   xmlns:sodipodi="http://sodipodi.sourceforge.net/DTD/sodipodi-0.dtd"
   xmlns:inkscape="http://www.inkscape.org/namespaces/inkscape"
   width="410.86417"
   height="256.91873"
   id="svg33233"
   version="1.1"
   inkscape:version="0.48.0 r9654"
   sodipodi:docname="SmoothedFunction.pdf">
  <defs
     id="defs33235">
    <inkscape:path-effect
       effect="spiro"
       id="path-effect33780"
       is_visible="true" />
    <inkscape:path-effect
       effect="spiro"
       id="path-effect33776"
       is_visible="true" />
  </defs>
  <sodipodi:namedview
     inkscape:document-units="mm"
     pagecolor="#ffffff"
     bordercolor="#666666"
     borderopacity="1.0"
     inkscape:pageopacity="0.0"
     inkscape:pageshadow="2"
     inkscape:zoom="0.7176508"
     inkscape:cx="182.86511"
     inkscape:cy="-3.6437977"
     inkscape:current-layer="layer1"
     id="namedview33237"
     showgrid="false"
     showguides="true"
     fit-margin-top="0"
     fit-margin-left="0"
     fit-margin-right="0"
     fit-margin-bottom="0"
     inkscape:window-width="1280"
     inkscape:window-height="752"
     inkscape:window-x="0"
     inkscape:window-y="0"
     inkscape:window-maximized="0">
    <inkscape:grid
       type="xygrid"
       id="grid33760"
       empspacing="5"
       visible="true"
       enabled="true"
       snapvisiblegridlinesonly="true" />
  </sodipodi:namedview>
  <metadata
     id="metadata33239">
    <rdf:RDF>
      <cc:Work
         rdf:about="">
        <dc:format>image/svg+xml</dc:format>
        <dc:type
           rdf:resource="http://purl.org/dc/dcmitype/StillImage" />
        <dc:title></dc:title>
      </cc:Work>
    </rdf:RDF>
  </metadata>
  <g
     inkscape:label="Layer 1"
     inkscape:groupmode="layer"
     id="layer1"
     transform="translate(-343.31598,-111.4847)">
    <path
       style="fill:#000000;fill-opacity:1;fill-rule:nonzero;stroke:none"
       id="path33754"
       d="m 537.27404,344.91775 c -0.73723,-9.81928 -1.10461,-19.64411 -1.47361,-29.4693 -0.70412,-23.11031 -0.3363,-46.22619 0.0194,-69.33746 0.52691,-29.13496 0.21398,-58.27088 0.91696,-87.40506 0.58925,-19.0481 0.28816,-9.58732 0.90259,-28.38236 0.0523,-1.60106 4.23199,-1.56096 4.17965,0.0401 l 0,0 c -0.61427,18.79011 -0.31329,9.33282 -0.9023,28.37186 -0.70318,29.13061 -0.3894,58.26297 -0.91673,87.39434 -0.35543,23.08962 -0.72313,46.18386 -0.0201,69.27251 0.3693,9.83372 0.73922,19.667 1.4743,29.49485 0.0268,1.60124 -4.15335,1.62177 -4.18014,0.0205 z"
       inkscape:connector-curvature="0" />
    <path
       inkscape:connector-curvature="0"
       d="m 345.50244,321.68782 c 18.12144,-0.83674 36.25514,-1.30368 54.38952,-1.77226 42.65561,-0.93832 85.32741,-0.80479 127.99062,-0.68332 53.78333,0.23162 107.56382,-0.37659 161.34669,0.0311 35.16426,0.39619 17.69887,0.19099 52.39615,0.61493 2.95571,0.0361 2.90463,4.2161 -0.051,4.17999 l 0,0 c -34.68817,-0.42382 -17.22925,-0.2187 -52.37678,-0.61474 -53.77626,-0.40793 -107.55018,0.20109 -161.32689,-0.031 C 485.2475,323.2911 442.61566,323.15746 400,324.09448 c -18.15011,0.46896 -36.29939,0.93854 -54.43665,1.77321 -2.95561,0.043 -3.01645,-4.13685 -0.0609,-4.17987 z"
       id="path33756"
       style="fill:#000000;fill-opacity:1;fill-rule:nonzero;stroke:none" />
    <path
       style="fill:#000000;fill-opacity:1;fill-rule:nonzero;stroke:none"
       id="path33768"
       d="m 724.7982,311.39988 c 3.42854,1.87029 7.17453,3.0532 10.92027,4.10182 3.48269,1.14855 7.11135,1.9011 10.51698,3.2688 1.24292,0.51692 2.48403,1.03826 3.72014,1.57124 1.97683,0.71213 0.34803,4.03186 -1.78602,4.24329 -3.36668,0.93468 -6.72563,1.87352 -10.01219,3.06656 -3.72796,1.49266 -7.26399,3.39417 -10.82833,5.23133 -0.66341,0.34211 -1.32612,0.68557 -1.9885,1.02966 -2.62312,1.36261 -4.55015,-2.34704 -1.92702,-3.70966 l 0,0 c 0.66631,-0.34612 1.33295,-0.69163 2.00031,-1.03576 3.724,-1.91946 7.42115,-3.90231 11.32258,-5.44697 3.61411,-1.30117 7.30043,-2.38535 11.03205,-3.29619 3.70037,-0.34869 1.97036,4.63619 0.53191,3.75638 -1.21502,-0.52394 -2.43501,-1.03628 -3.65667,-1.54449 -3.22035,-1.37416 -6.7583,-1.94259 -10.05546,-3.10957 -4.08623,-1.15086 -8.16837,-2.45367 -11.899,-4.51711 -2.55218,-1.49126 -0.44323,-5.10058 2.10896,-3.60933 z"
       inkscape:connector-curvature="0" />
    <path
       inkscape:connector-curvature="0"
       d="m 529.14284,148.01513 c 1.99246,-3.35902 3.30941,-7.06002 4.49216,-10.76559 1.27313,-3.4391 2.15578,-7.03833 3.64516,-10.39253 0.56131,-1.22351 1.12698,-2.44506 1.7041,-3.66119 0.78281,-1.94992 4.04177,-0.2027 4.17627,1.93757 0.81291,3.39814 1.63027,6.78869 2.70425,10.11606 1.35753,3.77927 3.13056,7.38144 4.83826,11.00958 0.31801,0.67529 0.63741,1.34994 0.95743,2.02427 1.26733,2.67046 -2.50927,4.46274 -3.7766,1.79227 l 0,0 c -0.32192,-0.67834 -0.64321,-1.35698 -0.9631,-2.03629 -1.7842,-3.79066 -3.63272,-7.55677 -5.03597,-11.51127 -1.17027,-3.65859 -2.12109,-7.38154 -2.89704,-11.14353 -0.2153,-3.71052 4.70409,-1.80223 3.77309,-0.39638 -0.56733,1.19538 -1.12324,2.39614 -1.67508,3.59872 -1.48917,3.16882 -2.18455,6.68401 -3.46944,9.93704 -1.29716,4.04217 -2.74604,8.07478 -4.9424,11.72873 -1.58213,2.49687 -5.11322,0.25939 -3.53109,-2.23747 z"
       id="path33770"
       style="fill:#000000;fill-opacity:1;fill-rule:nonzero;stroke:none" />
    <path
       style="fill:none;stroke:#000000;stroke-width:9.14881897;stroke-linecap:round;stroke-linejoin:miter;stroke-miterlimit:4;stroke-opacity:1;stroke-dasharray:none"
       d="M 362.29319,323.277 539.25948,321.88357 723.19295,154.67132"
       id="path33772"
       inkscape:connector-curvature="0"
       sodipodi:nodetypes="ccc" />
    <path
       style="fill:none;stroke:#000000;stroke-width:3.47952747;stroke-linecap:butt;stroke-linejoin:miter;stroke-miterlimit:4;stroke-opacity:1;stroke-dasharray:3.47952756, 3.47952756;stroke-dashoffset:0"
       d="m 362.29319,312.12952 c 9.27555,0.70373 18.56923,1.16842 27.86871,1.39344 13.93102,0.3371 27.86863,0.13638 41.80306,0 19.97906,-0.19554 39.96993,-0.25909 59.91772,-1.39344 11.77895,-0.66982 23.67762,-1.74158 34.83589,-5.57374 12.26116,-4.21093 23.17012,-11.59941 33.44244,-19.5081 13.05679,-10.05247 25.33763,-21.06687 37.62276,-32.04901 12.99841,-11.61978 26.01737,-23.21656 39.01619,-34.83588 9.31793,-8.32906 18.62562,-16.66979 27.86871,-25.08183 13.61148,-12.38767 27.08251,-24.92966 40.40962,-37.62276"
       id="path33778"
       inkscape:path-effect="#path-effect33780"
       inkscape:original-d="m 362.29319,312.12952 c 0,0 12.54092,1.39344 27.86871,1.39344 15.32779,0 25.08184,-1.39344 41.80306,0 16.72123,1.39343 51.55711,-1.39344 59.91772,-1.39344 8.36061,0 26.47527,-2.78687 34.83589,-5.57374 8.36061,-2.78687 25.08183,-13.93435 33.44244,-19.5081 8.36062,-5.57374 32.04902,-27.8687 37.62276,-32.04901 5.57374,-4.18031 39.01619,-34.83588 39.01619,-34.83588 0,0 15.3329,-13.59143 27.86871,-25.08183 23.98039,-21.98061 20.90153,-20.90154 40.40962,-37.62276"
       inkscape:connector-curvature="0"
       sodipodi:nodetypes="csssssscsc" />
    <path
       style="fill:#000000;fill-opacity:1;fill-rule:nonzero;stroke:none"
       id="path33782"
       d="m 739.32173,338.76458 c 0.99904,4.21086 1.67075,8.46572 2.13041,12.76772 0.36556,4.00577 0.49869,8.02773 0.55872,12.04816 -0.0145,0.92787 0.0476,1.85935 -0.003,2.78677 -0.25558,2.94485 -4.42023,2.58341 -4.16465,-0.36145 l 0,0 c -10e-4,-0.11446 -10e-4,-1.83758 -0.0126,-2.36309 -0.0578,-3.89329 -0.18513,-7.78807 -0.53564,-11.66745 -0.43668,-4.10964 -1.07186,-8.17486 -2.02913,-12.19679 -0.71692,-2.86767 3.33857,-3.88154 4.05549,-1.01387 z"
       inkscape:connector-curvature="0" />
    <path
       style="fill:#000000;fill-opacity:1;fill-rule:nonzero;stroke:none"
       id="path33786"
       d="m 734.50021,336.41037 c 2.23368,-0.60536 4.53348,-0.89998 6.83192,-1.12272 1.88235,-0.15432 3.75413,-0.26556 5.62161,0.0276 1.8697,0.47532 3.56499,1.5253 5.13408,2.62159 2.07323,1.73 2.63009,2.92653 1.56156,5.57562 -1.59782,1.87722 -3.45046,3.58285 -5.43377,5.04906 -1.43317,1.02266 -2.76424,2.07518 -4.41799,2.73361 -0.70362,0.64098 -2.97722,-0.01 -3.37685,0.6985 -0.0324,0.031 -0.0648,0.0619 -0.0971,0.0929 -2.3773,1.75669 -4.86163,-1.60532 -2.48434,-3.362 l 0,0 c 0.18152,-0.12711 0.36304,-0.25422 0.54456,-0.38133 1.25645,-0.64049 2.53238,-0.74167 3.90054,-0.94483 1.32454,-0.4923 2.30087,-1.46026 3.47623,-2.22031 1.54492,-1.08944 2.84051,-2.48889 4.25668,-3.7351 0.15858,1.18341 0.50455,0.50155 -0.40409,-0.1369 -0.97378,-0.81052 -2.2643,-1.43439 -3.43882,-1.88375 -1.41297,-0.39956 -2.99543,0.0619 -4.44055,0.0263 -2.0923,0.20118 -4.18722,0.46255 -6.21977,1.01725 -2.86766,0.71692 -3.88153,-3.33857 -1.01387,-4.05549 z"
       inkscape:connector-curvature="0" />
    <path
       style="fill:#000000;fill-opacity:1;fill-rule:nonzero;stroke:none"
       id="path33788"
       d="m 485.71649,135.32301 c 0.63242,2.29324 0.95596,4.64296 1.12717,7.01004 -0.0224,3.26131 0.32604,6.46463 0.78168,9.68713 0.33032,2.3252 0.56513,4.6616 0.72586,7.0042 0.034,0.56389 0.0198,0.30585 0.0439,0.77406 0.15158,2.95203 -4.02323,3.1664 -4.17481,0.21437 l 0,0 c -0.0215,-0.42006 -0.009,-0.18578 -0.0397,-0.70279 -0.15329,-2.24246 -0.37826,-4.47886 -0.69447,-6.70461 -0.46895,-3.31701 -0.83198,-6.62083 -0.81239,-9.97683 -0.14709,-2.12556 -0.4427,-4.23366 -1.01281,-6.2917 -0.71692,-2.86767 3.33858,-3.88154 4.05549,-1.01387 z"
       inkscape:connector-curvature="0" />
    <path
       style="fill:#000000;fill-opacity:1;fill-rule:nonzero;stroke:none"
       id="path33792"
       d="m 483.25404,132.96038 c 2.41083,-1.10668 4.98264,-1.776 7.5699,-2.31666 2.99505,-0.73397 4.78767,1.1451 5.60217,3.80486 0.40051,1.8283 0.47831,3.69361 0.15466,5.53064 -0.59861,2.44055 -2.83206,3.56019 -4.94091,4.51904 -2.04958,0.80154 -4.22997,0.99616 -6.40629,1.09722 -2.95289,0.13405 -3.14246,-4.04196 -0.18958,-4.17601 l 0,0 c 1.65729,-0.0733 3.32295,-0.18366 4.90101,-0.74252 0.87589,-0.3733 2.20033,-0.77115 2.55415,-1.6007 0.43183,-1.0375 -0.0422,-2.43266 -0.10267,-3.51545 -0.0498,-0.25307 -0.25442,-0.49671 -0.19724,-0.74822 0.0336,-0.14794 1.17639,-0.31036 -0.5223,-0.0765 -2.23596,0.46475 -4.46109,1.02831 -6.55341,1.96329 -2.64386,1.32193 -4.51335,-2.41705 -1.86949,-3.73898 z"
       inkscape:connector-curvature="0" />
    <path
       style="fill:#000000;fill-opacity:1;fill-rule:nonzero;stroke:none"
       id="path33794"
       d="m 498.63007,123.54811 c 2.23046,0.49919 4.50045,0.78251 6.77138,1.01884 0.73983,0.077 1.47936,0.14735 2.22317,0.15489 0.29135,0.003 0.58268,-9.9e-4 0.87397,-0.006 1.512,0.5604 2.20678,1.64947 2.19911,2.96337 -0.003,0.68439 -0.003,1.3688 -0.004,2.0532 -3.4e-4,1.53816 -1.9e-4,3.07631 -1.7e-4,4.61447 -0.19369,3.6705 0.19652,7.29082 0.61722,10.92855 0.20271,3.40706 0.88699,6.73936 1.53173,10.0816 0.19623,1.01621 0.39259,2.0324 0.59002,3.04838 0.34312,1.40503 -2.4978,1.07028 -3.62856,1.8888 -0.7945,0.57511 1.45153,0.36926 0.29932,0.44245 -1.77713,0.0433 -3.55359,0.10982 -5.33054,0.16069 -3.39848,0.131 -2.82431,-0.83305 -2.52585,-3.84426 1.97645,-2.19798 5.08486,0.59714 3.10841,2.79512 l 0,0 c -0.0386,-0.82236 0.27737,-1.74381 -0.1159,-2.46707 -0.46757,-0.8599 -2.84392,-0.5807 -0.58628,-0.66238 1.85239,-0.053 3.70424,-0.12726 5.55709,-0.16104 3.71127,0.19794 2.75808,0.944 -0.88106,2.64601 -0.19807,-1.0181 -0.39441,-2.03655 -0.59128,-3.05488 -0.66456,-3.44498 -1.36228,-6.88269 -1.57973,-10.39319 -0.43896,-3.79594 -0.83479,-7.57955 -0.6449,-11.40874 -10e-6,-1.53884 -1.7e-4,-3.07767 1.7e-4,-4.6165 3.3e-4,-0.69187 9.7e-4,-1.38375 0.004,-2.07562 0.01,-1.69251 2.29609,0.88881 2.07406,1.24032 -0.33766,0.006 -0.67539,0.009 -1.01312,0.007 -0.87319,-0.0103 -1.742,-0.084 -2.61027,-0.17715 -2.46634,-0.25739 -4.93141,-0.56996 -7.35193,-1.12113 -2.86767,-0.71692 -1.85379,-4.77241 1.01387,-4.0555 z"
       inkscape:connector-curvature="0" />
    <path
       style="fill:#000000;fill-opacity:1;fill-rule:nonzero;stroke:none"
       id="path33804"
       d="m 481.00323,127.61203 c -2.55605,1.18401 -5.28338,1.86832 -8.04948,2.33218 -1.66118,0.24467 -3.33698,0.33728 -5.01404,0.36031 -0.42056,0.004 -0.84123,0.003 -1.26141,-0.0158 2.4016,-2.2279 2.20069,-2.4101 2.20917,-0.35996 -0.10365,1.8008 0.0819,3.54406 0.37308,5.31676 0.54686,3.0401 0.79027,6.11823 0.93164,9.19995 0.10401,3.2405 0.1008,6.48319 0.10211,9.72499 0.24061,2.18311 0.76698,4.31907 1.10782,6.48727 0.14525,1.1262 0.23821,2.25917 0.28014,3.39387 0.38992,1.80058 -3.19132,-1.66419 -1.54141,-1.7182 0.66568,-0.0123 1.33158,-0.005 1.99733,-0.002 1.32059,0.004 2.6412,0.003 3.96179,0.004 1.67677,-0.0736 3.2622,-0.0225 4.86419,0.51409 0.65315,0.31127 1.34862,0.51041 2.04216,0.70701 2.84284,0.80977 1.69764,4.83016 -1.1452,4.02038 l 0,0 c -0.77093,-0.22047 -1.54784,-0.44076 -2.27629,-0.78121 -1.1235,-0.42504 -2.28711,-0.26726 -3.48617,-0.27996 -1.32512,-4.2e-4 -2.65024,-7e-5 -3.97536,-0.004 -0.61699,-0.002 -1.23408,-0.009 -1.85103,2.3e-4 -1.25831,0.0374 -2.83054,-1.28559 -2.76756,-2.30821 -0.0345,-0.96875 -0.11519,-1.9358 -0.23241,-2.89797 -0.3725,-2.3809 -0.98554,-4.72366 -1.1583,-7.13331 -10e-4,-3.17884 0.002,-6.35854 -0.0978,-9.53616 -0.13243,-2.91955 -0.36083,-5.83577 -0.88114,-8.71557 -0.32399,-1.98776 -0.52975,-3.95831 -0.42789,-5.97454 -0.008,-2.03623 -0.0766,-1.77261 2.21434,-3.83038 0.32047,0.0114 0.64134,0.0119 0.96204,0.009 1.46568,-0.0192 2.93015,-0.0959 4.3828,-0.30378 2.35687,-0.39023 4.68165,-0.95737 6.86736,-1.94776 2.64385,-1.32193 4.51334,2.41705 1.86949,3.73898 z"
       inkscape:connector-curvature="0" />
    <path
       style="fill:#000000;fill-opacity:1;fill-rule:nonzero;stroke:none"
       id="path33806"
       d="m 520.4481,113.70165 c 0,2.9678 0,5.9356 0,8.90341 0,1.99918 0,3.99836 0,5.99755 0,0.40466 0,0.80933 0,1.21399 0,2.95593 -4.18031,2.95593 -4.18031,0 l 0,0 c 0,-0.40466 0,-0.80933 0,-1.21399 0,-1.99919 0,-3.99837 0,-5.99755 0,-2.96781 0,-5.93561 0,-8.90341 0,-2.95593 4.18031,-2.95593 4.18031,0 z"
       inkscape:connector-curvature="0" />
    <path
       style="fill:#000000;fill-opacity:1;fill-rule:nonzero;stroke:none"
       id="path33808"
       d="m 510.83073,117.74528 c 3.04589,0 6.09178,0 9.13767,0 1.47419,0 2.94839,0 4.42259,0 0.74776,0 0.22607,-0.0289 1.53368,0.32382 2.73369,1.12445 1.14347,4.99048 -1.59022,3.86602 l 0,0 c 0.50097,-0.0122 0.51989,-0.01 0.0565,-0.01 -1.4742,0 -2.9484,0 -4.42259,0 -3.04589,0 -6.09178,0 -9.13767,0 -2.95592,0 -2.95592,-4.1803 0,-4.1803 z"
       inkscape:connector-curvature="0" />
    <path
       inkscape:connector-curvature="0"
       d="m 409.87422,254.86767 c 0.40846,1.46098 0.61741,2.95794 0.72799,4.46596 -0.0145,2.07772 0.21057,4.11849 0.50485,6.17149 0.21334,1.48134 0.36499,2.96981 0.4688,4.46223 0.022,0.35925 0.0128,0.19486 0.0284,0.49314 0.0979,1.88068 -2.59841,2.01726 -2.69631,0.13657 l 0,0 c -0.0139,-0.26761 -0.006,-0.11835 -0.0256,-0.44773 -0.099,-1.42863 -0.2443,-2.85339 -0.44853,-4.27138 -0.30287,-2.1132 -0.53733,-4.218 -0.52468,-6.35604 -0.095,-1.35415 -0.28592,-2.69718 -0.65413,-4.00832 -0.46302,-1.82694 2.15623,-2.47285 2.61925,-0.64592 z"
       id="path33814"
       style="fill:#000000;fill-opacity:1;fill-rule:nonzero;stroke:none" />
    <path
       inkscape:connector-curvature="0"
       d="m 408.28384,253.36249 c 1.55705,-0.70505 3.21806,-1.13146 4.88905,-1.4759 1.93436,-0.4676 3.09213,0.72952 3.61818,2.424 0.25867,1.16478 0.30891,2.35313 0.0999,3.52346 -0.38661,1.55483 -1.82909,2.26813 -3.1911,2.879 -1.32373,0.51064 -2.73194,0.63463 -4.13752,0.69901 -1.90713,0.0854 -2.02957,-2.57505 -0.12244,-2.66045 l 0,0 c 1.07036,-0.0467 2.14614,-0.11701 3.16533,-0.47305 0.5657,-0.23782 1.42109,-0.49128 1.64961,-1.01977 0.2789,-0.66097 -0.0273,-1.5498 -0.0663,-2.23963 -0.0322,-0.16122 -0.16432,-0.31644 -0.12739,-0.47667 0.0217,-0.0942 0.75977,-0.19773 -0.33733,-0.0487 -1.4441,0.29608 -2.88121,0.65511 -4.23254,1.25077 -1.70755,0.84218 -2.91496,-1.53985 -1.20742,-2.38203 z"
       id="path33816"
       style="fill:#000000;fill-opacity:1;fill-rule:nonzero;stroke:none" />
    <path
       inkscape:connector-curvature="0"
       d="m 418.2145,247.36611 c 1.44055,0.31803 2.90663,0.49853 4.37332,0.64909 0.47782,0.049 0.95545,0.0939 1.43584,0.0987 0.18817,0.002 0.37632,-6.3e-4 0.56445,-0.004 0.97653,0.35702 1.42526,1.05084 1.42031,1.8879 -0.002,0.43601 -0.002,0.87204 -0.003,1.30806 -2.2e-4,0.97993 -1.2e-4,1.95985 -1.1e-4,2.93978 -0.12509,2.33841 0.12692,4.64484 0.39864,6.96237 0.13092,2.17057 0.57286,4.29352 0.98927,6.42279 0.12673,0.64741 0.25355,1.29481 0.38106,1.94207 0.22161,0.89511 -1.61321,0.68185 -2.34351,1.20331 -0.51313,0.3664 0.93747,0.23525 0.19331,0.28188 -1.14776,0.0276 -2.29509,0.07 -3.44274,0.10237 -2.19492,0.0835 -1.82409,-0.53072 -1.63133,-2.4491 1.2765,-1.40029 3.28407,0.38043 2.00758,1.78072 l 0,0 c -0.0249,-0.52391 0.17914,-1.11095 -0.0749,-1.57173 -0.30198,-0.54782 -1.83675,-0.36995 -0.37865,-0.42199 1.19637,-0.0338 2.3924,-0.0811 3.58907,-0.10259 2.39693,0.1261 1.78131,0.6014 -0.56904,1.68572 -0.12792,-0.64861 -0.25473,-1.29745 -0.38188,-1.9462 -0.42921,-2.19473 -0.87983,-4.38483 -1.02027,-6.6213 -0.28351,-2.41832 -0.53916,-4.82879 -0.41651,-7.26829 -10e-6,-0.98036 -1.1e-4,-1.96072 1.1e-4,-2.94108 2.1e-4,-0.44078 6.2e-4,-0.88156 0.003,-1.32234 0.006,-1.07826 1.48294,0.56624 1.33954,0.79018 -0.21808,0.004 -0.43621,0.006 -0.65433,0.005 -0.56395,-0.007 -1.12508,-0.0535 -1.68585,-0.11285 -1.59289,-0.16398 -3.18497,-0.36312 -4.74827,-0.71425 -1.85209,-0.45674 -1.19727,-3.04041 0.65481,-2.58368 z"
       id="path33818"
       style="fill:#000000;fill-opacity:1;fill-rule:nonzero;stroke:none" />
    <path
       inkscape:connector-curvature="0"
       d="m 406.83015,249.95516 c -1.65083,0.75431 -3.41229,1.19027 -5.19878,1.48578 -1.07288,0.15588 -2.1552,0.21488 -3.23833,0.22955 -0.27162,0.002 -0.54331,0.002 -0.81469,-0.0101 1.55108,-1.41935 1.42132,-1.53543 1.4268,-0.22932 -0.0669,1.14725 0.0529,2.25785 0.24096,3.3872 0.35319,1.93679 0.51039,3.89781 0.6017,5.86111 0.0672,2.06446 0.0651,4.13031 0.066,6.1956 0.1554,1.39082 0.49535,2.7516 0.71549,4.13292 0.0938,0.71748 0.15384,1.43927 0.18092,2.16216 0.25184,1.14712 -2.06112,-1.06022 -0.99552,-1.09463 0.42993,-0.008 0.86001,-0.003 1.28998,-10e-4 0.85291,0.002 1.70583,0.002 2.55874,0.002 1.08294,-0.0469 2.1069,-0.0143 3.14155,0.32752 0.42184,0.1983 0.87101,0.32517 1.31893,0.45042 1.83606,0.51589 1.09643,3.0772 -0.73963,2.56131 l 0,0 c -0.49791,-0.14046 -0.99967,-0.2808 -1.47015,-0.4977 -0.72561,-0.27078 -1.47713,-0.17026 -2.25155,-0.17835 -0.85583,-2.7e-4 -1.71167,-5e-5 -2.5675,-0.002 -0.39848,-0.001 -0.79703,-0.006 -1.19549,1.4e-4 -0.81269,0.0238 -1.82811,-0.81902 -1.78744,-1.47051 -0.0223,-0.61717 -0.0744,-1.23326 -0.1501,-1.84624 -0.24058,-1.51683 -0.63652,-3.00936 -0.74809,-4.5445 -6.5e-4,-2.02517 10e-4,-4.0509 -0.0632,-6.0753 -0.0855,-1.85999 -0.23304,-3.71785 -0.56908,-5.55252 -0.20925,-1.26636 -0.34215,-2.52176 -0.27636,-3.80626 -0.005,-1.29724 -0.0495,-1.1293 1.43014,-2.44026 0.20698,0.007 0.41421,0.008 0.62134,0.006 0.94661,-0.0122 1.89244,-0.0611 2.83064,-0.19353 1.52219,-0.24861 3.02366,-0.60993 4.43531,-1.24088 1.70753,-0.84218 2.91495,1.53985 1.20741,2.38203 z"
       id="path33820"
       style="fill:#000000;fill-opacity:1;fill-rule:nonzero;stroke:none" />
    <path
       inkscape:connector-curvature="0"
       d="m 432.30574,241.09313 c 0,1.89072 0,3.78145 0,5.67218 0,1.27364 0,2.54728 0,3.82093 0,0.2578 0,0.51561 0,0.77341 0,1.88316 -2.69987,1.88316 -2.69987,0 l 0,0 c 0,-0.2578 0,-0.51561 0,-0.77341 0,-1.27365 0,-2.54729 0,-3.82093 0,-1.89073 0,-3.78146 0,-5.67218 0,-1.88317 2.69987,-1.88317 2.69987,0 z"
       id="path33822"
       style="fill:#000000;fill-opacity:1;fill-rule:nonzero;stroke:none" />
    <path
       inkscape:connector-curvature="0"
       d="m 426.09433,243.66924 c 1.9672,0 3.9344,0 5.90159,0 0.95211,0 1.90423,0 2.85635,0 0.48294,0 0.14601,-0.0184 0.99053,0.2063 1.76556,0.71637 0.73851,3.17934 -1.02705,2.46297 l 0,0 c 0.32355,-0.008 0.33577,-0.006 0.0365,-0.006 -0.95211,0 -1.90423,0 -2.85634,0 -1.9672,0 -3.9344,0 -5.90159,0 -1.90909,0 -1.90909,-2.66319 0,-2.66319 z"
       id="path33824"
       style="fill:#000000;fill-opacity:1;fill-rule:nonzero;stroke:none" />
    <path
       style="fill:#000000;fill-opacity:1;fill-rule:nonzero;stroke:none"
       id="path33830"
       d="m 437.15231,263.26575 c -0.72142,0.16915 -1.63656,0.44579 -1.92095,1.20439 -0.38548,0.68705 -0.0152,0.86798 -0.12201,0.29183 0.38334,0.13384 0.81343,0.17443 1.22376,0.20503 0.80036,0.0315 1.60169,0.0206 2.40246,0.0166 0.90892,-0.0498 1.72558,-0.0259 2.5538,0.39734 0.79852,0.56423 1.33409,1.31862 1.6731,2.21099 0.23423,0.82844 0.15017,1.55189 -0.33938,2.29475 -0.73463,0.73459 -1.73259,1.09297 -2.66526,1.52881 -0.9181,0.39018 -1.90359,0.5379 -2.8904,0.63387 -0.77263,-0.0536 -1.34438,-0.42528 -1.96718,-0.81735 -1.60862,-1.01412 -0.15468,-3.25815 1.45394,-2.24402 l 0,0 c 0.24225,0.15299 1.21897,0.57369 0.25134,0.41074 0.67789,-0.0642 1.35803,-0.14544 1.9975,-0.39053 0.28664,-0.13363 1.64355,-0.90393 1.59504,-0.62998 0.0109,0.24773 0.0487,0.71218 -0.0245,-0.0308 0.12322,0.13323 -0.34511,-0.51029 -0.3392,-0.60849 -0.0711,-0.0376 -0.27445,-0.0609 -0.21335,-0.1129 0.0832,-0.0708 0.23161,-0.0354 0.32939,0.0141 0.70888,0.35882 -1.99093,-0.34878 -1.40084,0.007 -0.87737,0.005 -1.75556,0.0172 -2.63224,-0.0251 -1.05387,-0.0868 -2.11126,-0.27886 -2.93267,-0.99211 -0.89816,-1.12489 -0.99267,-2.22032 -0.2946,-3.48549 0.83868,-1.31017 2.04132,-2.1614 3.60749,-2.46198 1.8521,-0.45674 2.50691,2.12694 0.65482,2.58367 z"
       inkscape:connector-curvature="0" />
    <path
       style="fill:#000000;fill-opacity:1;fill-rule:nonzero;stroke:none"
       id="path33832"
       d="m 445.87785,261.69697 c 0.76399,1.63331 1.56266,3.22803 2.11441,4.947 0.29287,0.91183 0.44841,1.86043 0.51955,2.81261 0.0642,1.46413 -0.17394,0.65488 -2.7002,0.12088 -0.009,-1.17155 -0.055,-2.33471 0.12042,-3.49493 0.27458,-1.44487 0.80678,-2.81969 1.28579,-4.20702 0.26908,-0.94042 0.57525,-1.70268 1.54615,-2.13765 1.11843,-0.36384 1.916,0.17613 2.67842,0.97113 0.72386,1.00792 1.24034,2.1716 1.74988,3.30171 0.35833,0.77866 0.58611,1.58602 0.68615,2.43315 0.0315,0.27536 0.0413,0.55179 0.0316,0.82836 -0.003,0.0322 0.0194,0.11113 -0.01,0.0966 -2.54827,-1.26541 -2.54921,-0.55957 -1.90477,-2.0363 0.74042,-1.69664 -0.3936,0.75648 0.61164,-1.38466 0.61997,-1.32541 1.33915,-2.65444 2.21853,-3.83354 1.33555,-1.57712 2.76511,-1.23434 3.85333,0.35414 0.54897,1.07883 1.16691,2.12102 1.66026,3.22591 0.54424,1.45633 0.66234,3.0138 0.74443,4.55052 0.0287,0.77012 0.0391,1.54096 0.0297,2.31155 0.001,0.12545 -0.007,0.25023 -0.0175,0.37506 -0.23233,1.86917 -2.91212,1.54507 -2.6798,-0.32409 l 0,0 c -6.5e-4,-0.0278 -0.004,-0.0557 -0.003,-0.0835 0.009,-0.71346 -6.4e-4,-1.42715 -0.0263,-2.14021 -0.064,-1.22204 -0.13879,-2.46375 -0.52736,-3.63466 -0.43173,-1.01946 -1.03415,-1.96035 -1.52226,-2.9541 0.18325,-0.23486 -0.027,0.0931 0.58255,-0.0952 0.15431,-0.0477 0.26019,-0.19031 0.39899,-0.27214 0.1388,-0.0818 -0.58436,0.42844 -0.36098,0.31969 -0.83555,0.92678 -1.31646,2.24554 -1.90389,3.32501 -0.33321,0.70089 -1.06015,2.54767 -1.15736,2.54984 -0.91085,0.0203 -2.63777,-1.50539 -2.68106,-0.52428 -0.005,-0.11831 -0.009,-0.23672 -0.0203,-0.35464 -0.0639,-0.58302 -0.2257,-1.12678 -0.47588,-1.66277 -0.37843,-0.86804 -0.81626,-1.7249 -1.25579,-2.55922 -0.58743,-0.63149 -0.39722,-0.32418 -0.0817,-0.26014 0.0863,0.0175 0.34862,0.0182 0.26413,-0.006 0.38972,-0.26098 -0.0118,0.0389 0.52582,-0.67228 0.021,-0.0278 -0.42543,1.18714 -0.39872,1.15163 -0.43357,1.25572 -0.92321,2.49644 -1.18103,3.80172 -0.2223,0.9787 -0.0235,2.01197 -0.0812,3.00869 -2.16274,0.054 -2.68504,0.49642 -2.69241,0.10252 -0.0521,-0.74552 -0.17273,-1.48931 -0.40169,-2.20284 -0.50367,-1.58619 -1.25768,-3.04694 -1.95415,-4.55623 -0.85377,-1.68435 1.56106,-2.87537 2.41483,-1.19102 z"
       inkscape:connector-curvature="0" />
    <path
       style="fill:#000000;fill-opacity:1;fill-rule:nonzero;stroke:none"
       id="path33834"
       d="m 466.35606,262.61544 c -0.22873,1.34125 -0.6926,2.71958 -0.54578,4.0896 0.0962,0.79629 0.39273,1.33512 1.16452,1.55896 0.86594,0.25486 1.77754,0.2732 2.67429,0.28718 -0.79819,-0.13045 -0.52821,0.41644 -0.44989,-0.90355 0.008,-1.12134 0.16366,-2.25141 -0.18297,-3.33317 -0.10114,-0.30534 -0.54734,-0.42152 -0.95652,-0.68837 -0.72501,-0.27433 -1.52616,-0.33408 -2.29595,-0.39104 -0.72911,-0.18931 -0.97524,0.2345 -0.30153,-0.0803 0.1154,-0.10102 0.12367,-0.49218 0.12225,-0.0668 -0.0481,1.88256 -2.74712,1.81544 -2.69901,-0.0671 l 0,0 c 0.0177,-0.48993 0.0616,-0.97498 0.35969,-1.3859 0.67817,-0.88441 1.6154,-1.2184 2.72801,-1.05505 1.22324,0.0965 2.48876,0.21977 3.57643,0.82523 0.86999,0.56844 1.78231,1.06793 2.05732,2.1597 0.39751,1.39787 0.35787,2.81307 0.28654,4.25429 -0.10899,1.55922 -0.43241,3.12779 -2.28889,3.39491 -1.22705,-0.0207 -2.46843,-0.0762 -3.6384,-0.47965 -1.70109,-0.74513 -2.6673,-1.99985 -2.85039,-3.86156 -0.0698,-1.659 0.25195,-3.28776 0.62103,-4.90329 0.46302,-1.82693 3.08228,-1.18102 2.61925,0.64592 z"
       inkscape:connector-curvature="0" />
    <path
       style="fill:#000000;fill-opacity:1;fill-rule:nonzero;stroke:none"
       id="path33836"
       d="m 477.84561,262.00026 c -0.65604,1.45656 -1.02139,3.01944 -1.25424,4.59061 -0.0415,0.67313 -0.36881,2.06581 0.26685,2.61105 0.25113,0.27599 0.37209,0.18155 0.80595,0.21789 0.4055,0.006 0.71464,0.0696 1.01627,-0.3583 0.34632,-0.40895 0.39188,-1.06944 0.56199,-1.57565 -0.35652,0.83265 1.1933,-2.63183 0.57537,-1.93201 -0.087,-0.31918 -0.45995,-0.39196 -0.79451,-0.45643 -0.70184,-0.2548 -1.27673,-0.70448 -1.98373,-0.9366 -0.49767,-0.0874 -0.31117,0.0336 0.0893,-0.0284 -1.60591,1.0183 -3.06584,-1.22195 -1.45993,-2.24025 l 0,0 c 0.73065,-0.38721 1.44103,-0.51796 2.24028,-0.25259 0.65981,0.22449 1.26748,0.53095 1.85677,0.8974 1.3525,0.42285 2.45999,1.20272 2.72883,2.67122 0.0484,1.11554 -0.21957,2.15475 -0.70753,3.16708 -0.41298,0.99588 -0.46174,2.11818 -1.46287,2.79878 -0.87681,0.60065 -1.81285,1.0629 -2.91914,0.89667 -1.18846,-0.12097 -2.21036,-0.48726 -2.88075,-1.52961 -0.70945,-1.36856 -0.89972,-2.82152 -0.60373,-4.34145 0.28188,-1.84782 0.71669,-3.6846 1.50998,-5.39042 0.85377,-1.68435 3.2686,-0.49334 2.41483,1.19101 z"
       inkscape:connector-curvature="0" />
    <path
       style="fill:#000000;fill-opacity:1;fill-rule:nonzero;stroke:none"
       id="path33838"
       d="m 487.28441,255.9234 c 0.40361,2.06462 0.58876,4.16054 0.71491,6.25676 0.0888,1.74015 0.10354,3.48281 0.10957,5.22481 0.001,0.72857 -6.5e-4,1.45714 -0.004,2.1857 -3.7e-4,0.0993 -0.001,0.19856 -0.002,0.29784 -0.0211,1.88304 -2.72083,1.85357 -2.6997,-0.0295 l 0,0 c 6.4e-4,-0.0935 0.001,-0.18698 0.002,-0.28047 0.003,-0.72151 0.005,-1.44302 0.004,-2.16454 -0.006,-1.69259 -0.0196,-3.38584 -0.10488,-5.07668 -0.11779,-1.9737 -0.28946,-3.94732 -0.66719,-5.89164 -0.3744,-1.84659 2.27303,-2.36889 2.64744,-0.5223 z"
       inkscape:connector-curvature="0" />
    <path
       style="fill:#000000;fill-opacity:1;fill-rule:nonzero;stroke:none"
       id="path33840"
       d="m 483.28753,260.88908 c 1.33809,0.68235 2.68487,0.88163 4.16316,0.82167 0.83535,-0.0508 1.66963,-0.12506 2.49931,-0.23417 0.22738,-0.0374 0.39847,-0.0524 0.67489,-0.0548 0.16047,-6.4e-4 0.32094,-9e-5 0.4814,5.4e-4 1.90907,0.01 1.89531,2.67275 -0.0138,2.66316 l 0,0 c -0.14881,-6e-4 -0.29761,-0.001 -0.44642,-5.9e-4 -0.11638,6.4e-4 0.0577,-0.0371 -0.34052,0.0317 -0.91445,0.11951 -1.83375,0.20236 -2.75457,0.25554 -1.92604,0.0647 -3.73407,-0.22832 -5.47092,-1.10099 -1.70754,-0.84217 -0.50012,-3.22421 1.20742,-2.38204 z"
       inkscape:connector-curvature="0" />
    <path
       style="fill:#000000;fill-opacity:1;fill-rule:nonzero;stroke:none"
       id="path33842"
       d="m 494.46995,254.86767 c 0.438,1.72081 0.61979,3.47862 0.72889,5.24457 0.0991,1.98677 0.10492,3.97643 0.10969,5.96511 10e-4,1.289 -0.001,2.57799 -0.004,3.86699 -5.6e-4,0.27141 -10e-4,0.54282 -0.002,0.81422 0.007,0.75475 -1.08575,-0.87108 -1.78644,-1.26983 -0.2613,-0.14871 -0.37795,0.46249 -0.19034,-0.27848 0.1934,-1.2294 0.67793,-2.38532 1.22869,-3.49477 0.35144,-0.59431 0.57832,-1.22266 0.72284,-1.8916 0.17083,-1.05968 1.13194,-1.41969 2.04629,-1.51762 0.35951,-0.0184 0.71953,-0.0129 1.07912,-0.001 0.14113,0.0124 0.19216,0.006 0.31939,0.007 1.14582,0.36469 1.71893,0.92702 2.31702,1.95856 0.24605,0.16483 0.55723,2.18013 0.51544,1.55433 0.32059,0.28888 0.63474,0.5894 0.95602,0.87935 0.33605,0.36521 0.54437,0.78119 0.70254,1.2411 0.0286,0.0832 0.12744,0.32473 0.0769,0.25242 -0.71798,-1.02638 0.026,-0.17869 -0.29006,-0.53132 -0.1374,-0.13289 0.74552,-0.0266 0.95593,-0.0211 1.90839,0.0512 1.83499,2.7134 -0.0734,2.6622 l 0,0 c -0.77638,-0.0213 -1.55639,-0.0307 -2.27646,-0.36034 -0.35927,-0.25052 -1.16908,-1.06567 -0.91819,-1.27836 -0.55355,-0.49987 -1.13812,-0.98691 -1.53366,-1.62493 -0.20015,-0.51789 -0.33479,-1.03212 -0.51647,-1.55631 -0.11059,-0.56751 -1.35272,-0.89884 0.0768,-0.51244 -0.16186,-4.6e-4 -0.31951,-0.002 -0.41513,-0.008 -0.25916,-0.008 -0.51855,-0.0125 -0.77779,-0.004 0.0773,-0.0864 0.62144,-1.23683 0.39412,-0.57333 -0.19496,0.87454 -0.48845,1.71511 -0.93648,2.49775 -0.47613,0.9591 -0.89213,1.94825 -1.04652,3.01628 -0.64053,2.25244 -0.89606,2.29731 -3.32999,0.8477 6.5e-4,-0.27061 10e-4,-0.54123 0.002,-0.81184 0.003,-1.28507 0.005,-2.57014 0.004,-3.85521 -0.005,-1.93717 -0.01,-3.87528 -0.10477,-5.81064 -0.0974,-1.60254 -0.25594,-3.19751 -0.65321,-4.7594 -0.46302,-1.82694 2.15624,-2.47285 2.61925,-0.64592 z"
       inkscape:connector-curvature="0" />
    <path
       inkscape:connector-curvature="0"
       d="m 670.56089,248.78823 c 0.40845,1.46098 0.61741,2.95794 0.72799,4.46596 -0.0145,2.07772 0.21057,4.11849 0.50485,6.17148 0.21334,1.48134 0.36499,2.96982 0.4688,4.46224 0.022,0.35924 0.0128,0.19485 0.0284,0.49314 0.0979,1.88068 -2.59841,2.01725 -2.69631,0.13657 l 0,0 c -0.0139,-0.26761 -0.006,-0.11836 -0.0256,-0.44773 -0.099,-1.42863 -0.2443,-2.8534 -0.44853,-4.27138 -0.30287,-2.1132 -0.53733,-4.218 -0.52468,-6.35604 -0.095,-1.35416 -0.28592,-2.69719 -0.65413,-4.00832 -0.46302,-1.82694 2.15623,-2.47286 2.61925,-0.64592 z"
       id="path33844"
       style="fill:#000000;fill-opacity:1;fill-rule:nonzero;stroke:none" />
    <path
       inkscape:connector-curvature="0"
       d="m 668.97051,247.28304 c 1.55705,-0.70504 3.21806,-1.13145 4.88905,-1.47589 1.93436,-0.4676 3.09213,0.72952 3.61817,2.424 0.25868,1.16477 0.30892,2.35312 0.0999,3.52346 -0.38661,1.55483 -1.82909,2.26813 -3.1911,2.87899 -1.32373,0.51065 -2.73194,0.63464 -4.13752,0.69902 -1.90713,0.0854 -2.02957,-2.57505 -0.12244,-2.66045 l 0,0 c 1.07036,-0.0467 2.14614,-0.11701 3.16533,-0.47305 0.5657,-0.23782 1.42109,-0.49128 1.64961,-1.01977 0.27889,-0.66098 -0.0273,-1.5498 -0.0663,-2.23963 -0.0322,-0.16122 -0.16432,-0.31644 -0.12739,-0.47668 0.0217,-0.0943 0.75977,-0.19772 -0.33733,-0.0487 -1.4441,0.29609 -2.88121,0.65512 -4.23254,1.25078 -1.70755,0.84217 -2.91496,-1.53986 -1.20742,-2.38203 z"
       id="path33846"
       style="fill:#000000;fill-opacity:1;fill-rule:nonzero;stroke:none" />
    <path
       inkscape:connector-curvature="0"
       d="m 678.90117,241.28667 c 1.44055,0.31802 2.90663,0.49852 4.37332,0.64908 0.47782,0.049 0.95544,0.0939 1.43584,0.0987 0.18817,0.002 0.37632,-6.3e-4 0.56445,-0.004 0.97653,0.35702 1.42526,1.05085 1.4203,1.88791 -0.002,0.43601 -0.002,0.87203 -0.003,1.30805 -2.2e-4,0.97993 -1.2e-4,1.95986 -1.1e-4,2.93979 -0.12509,2.33841 0.12692,4.64484 0.39863,6.96237 0.13093,2.17057 0.57287,4.29351 0.98928,6.42279 0.12673,0.64741 0.25355,1.2948 0.38106,1.94206 0.22161,0.89512 -1.61321,0.68186 -2.34351,1.20332 -0.51313,0.36639 0.93747,0.23525 0.19331,0.28188 -1.14776,0.0276 -2.29509,0.07 -3.44274,0.10237 -2.19492,0.0835 -1.82409,-0.53072 -1.63133,-2.4491 1.2765,-1.40029 3.28407,0.38042 2.00758,1.78071 l 0,0 c -0.0249,-0.52391 0.17914,-1.11094 -0.0749,-1.57172 -0.30198,-0.54783 -1.83675,-0.36995 -0.37865,-0.42199 1.19637,-0.0338 2.3924,-0.0811 3.58906,-0.10259 2.39694,0.1261 1.78132,0.6014 -0.56903,1.68572 -0.12792,-0.64861 -0.25473,-1.29745 -0.38188,-1.94621 -0.42921,-2.19473 -0.87983,-4.38483 -1.02027,-6.6213 -0.28351,-2.41832 -0.53916,-4.82878 -0.41651,-7.26828 -10e-6,-0.98037 -1.1e-4,-1.96073 1.1e-4,-2.94109 2.1e-4,-0.44077 6.2e-4,-0.88156 0.003,-1.32233 0.006,-1.07827 1.48294,0.56624 1.33954,0.79018 -0.21808,0.004 -0.43621,0.006 -0.65433,0.004 -0.56395,-0.007 -1.12508,-0.0535 -1.68585,-0.11286 -1.59289,-0.16398 -3.18497,-0.36311 -4.74827,-0.71425 -1.85209,-0.45673 -1.19727,-3.04041 0.65481,-2.58368 z"
       id="path33848"
       style="fill:#000000;fill-opacity:1;fill-rule:nonzero;stroke:none" />
    <path
       inkscape:connector-curvature="0"
       d="m 667.51682,243.87571 c -1.65083,0.75431 -3.41229,1.19027 -5.19878,1.48579 -1.07288,0.15588 -2.1552,0.21488 -3.23833,0.22955 -0.27162,0.002 -0.54331,0.002 -0.81469,-0.0101 1.55108,-1.41935 1.42132,-1.53543 1.4268,-0.22933 -0.0669,1.14726 0.0529,2.25786 0.24096,3.38721 0.35319,1.93679 0.51039,3.8978 0.6017,5.86111 0.0672,2.06446 0.0651,4.13031 0.0659,6.1956 0.15539,1.39082 0.49535,2.75159 0.71548,4.13291 0.0938,0.71748 0.15385,1.43928 0.18093,2.16217 0.25184,1.14712 -2.06112,-1.06022 -0.99552,-1.09463 0.42993,-0.008 0.86,-0.003 1.28998,-0.001 0.85291,0.003 1.70583,0.002 2.55874,0.003 1.08294,-0.0469 2.1069,-0.0143 3.14155,0.32752 0.42184,0.1983 0.87101,0.32517 1.31893,0.45042 1.83606,0.51589 1.09643,3.0772 -0.73963,2.5613 l 0,0 c -0.49791,-0.14045 -0.99968,-0.28079 -1.47015,-0.49769 -0.72561,-0.27078 -1.47713,-0.17027 -2.25155,-0.17836 -0.85583,-2.6e-4 -1.71167,-4e-5 -2.5675,-0.002 -0.39848,-10e-4 -0.79703,-0.006 -1.19549,1.5e-4 -0.81269,0.0238 -1.82812,-0.81902 -1.78744,-1.47051 -0.0223,-0.61718 -0.0744,-1.23326 -0.1501,-1.84624 -0.24058,-1.51683 -0.63652,-3.00936 -0.74809,-4.5445 -6.5e-4,-2.02517 10e-4,-4.0509 -0.0632,-6.0753 -0.0855,-1.85999 -0.23304,-3.71786 -0.56908,-5.55252 -0.20925,-1.26636 -0.34215,-2.52176 -0.27636,-3.80626 -0.005,-1.29725 -0.0495,-1.1293 1.43014,-2.44026 0.20698,0.007 0.41421,0.008 0.62134,0.006 0.94661,-0.0122 1.89244,-0.0611 2.83064,-0.19354 1.52219,-0.2486 3.02366,-0.60992 4.43531,-1.24088 1.70753,-0.84217 2.91495,1.53986 1.20741,2.38204 z"
       id="path33850"
       style="fill:#000000;fill-opacity:1;fill-rule:nonzero;stroke:none" />
    <path
       inkscape:connector-curvature="0"
       d="m 692.99241,235.01368 c 0,1.89073 0,3.78146 0,5.67219 0,1.27364 0,2.54728 0,3.82092 0,0.2578 0,0.51561 0,0.77341 0,1.88317 -2.69987,1.88317 -2.69987,0 l 0,0 c 0,-0.2578 0,-0.51561 0,-0.77341 0,-1.27364 0,-2.54728 0,-3.82092 0,-1.89073 0,-3.78146 0,-5.67219 0,-1.88316 2.69987,-1.88316 2.69987,0 z"
       id="path33852"
       style="fill:#000000;fill-opacity:1;fill-rule:nonzero;stroke:none" />
    <path
       inkscape:connector-curvature="0"
       d="m 686.781,237.5898 c 1.9672,0 3.9344,0 5.90159,0 0.95211,0 1.90423,0 2.85635,0 0.48294,0 0.14601,-0.0184 0.99053,0.2063 1.76556,0.71636 0.73851,3.17934 -1.02705,2.46297 l 0,0 c 0.32355,-0.008 0.33577,-0.006 0.0365,-0.006 -0.95211,0 -1.90423,0 -2.85634,0 -1.9672,0 -3.9344,0 -5.90159,0 -1.90909,0 -1.90909,-2.66319 0,-2.66319 z"
       id="path33854"
       style="fill:#000000;fill-opacity:1;fill-rule:nonzero;stroke:none" />
    <path
       style="fill:#000000;fill-opacity:1;fill-rule:nonzero;stroke:none"
       id="path33862"
       d="m 502.62942,278.69445 c 2.40905,2.60697 4.131,5.62831 5.749,8.76203 2.17141,4.58895 3.5601,9.44944 4.46749,14.42835 0.51297,2.38139 0.48188,4.73742 0.22797,7.13895 -0.10469,0.97973 -1.49024,0.83168 -1.38555,-0.14805 l 0,0 c 0.24527,-2.26975 0.27666,-4.48947 -0.21335,-6.7415 -0.87953,-4.84407 -2.22899,-9.57169 -4.3348,-14.03866 -1.55184,-3.00783 -3.18868,-5.90904 -5.49607,-8.41581 -0.69672,-0.69672 0.28859,-1.68202 0.98531,-0.98531 z"
       inkscape:connector-curvature="0" />
    <path
       style="fill:#000000;fill-opacity:1;fill-rule:nonzero;stroke:none"
       id="path33864"
       d="m 626.34919,244.68458 c 0.17733,3.36474 1.36132,6.32537 3.07565,9.17634 2.07452,3.44177 5.06392,5.70737 8.73972,7.19284 3.95714,1.51099 8.11643,1.09516 12.23623,0.78957 2.44471,-0.18671 1.24147,-0.0985 3.60967,-0.26517 0.98288,-0.0691 1.08067,1.32086 0.0978,1.39 l 0,0 c -2.36091,0.16607 -1.15941,0.0781 -3.60444,0.2648 -4.33549,0.32121 -8.70822,0.71836 -12.86574,-0.88905 -3.94461,-1.62404 -7.1793,-4.05737 -9.40854,-7.76681 -1.83404,-3.07139 -3.10052,-6.2742 -3.27377,-9.89252 0,-0.98531 1.39343,-0.98531 1.39343,0 z"
       inkscape:connector-curvature="0" />
  </g>
</svg>
