<?xml version="1.0" encoding="UTF-8" standalone="no"?>
<!-- Created with Inkscape (http://www.inkscape.org/) -->

<svg
   xmlns:dc="http://purl.org/dc/elements/1.1/"
   xmlns:cc="http://creativecommons.org/ns#"
   xmlns:rdf="http://www.w3.org/1999/02/22-rdf-syntax-ns#"
   xmlns:svg="http://www.w3.org/2000/svg"
   xmlns="http://www.w3.org/2000/svg"
   xmlns:sodipodi="http://sodipodi.sourceforge.net/DTD/sodipodi-0.dtd"
   xmlns:inkscape="http://www.inkscape.org/namespaces/inkscape"
   width="281.77264"
   height="232.80487"
   id="svg8698"
   version="1.1"
   inkscape:version="0.48.0 r9654"
   sodipodi:docname="New document 34">
  <defs
     id="defs8700" />
  <sodipodi:namedview
     inkscape:document-units="mm"
     pagecolor="#ffffff"
     bordercolor="#666666"
     borderopacity="1.0"
     inkscape:pageopacity="0.0"
     inkscape:pageshadow="2"
     inkscape:zoom="0.7176508"
     inkscape:cx="142.4423"
     inkscape:cy="58.468986"
     inkscape:current-layer="layer1"
     id="namedview8702"
     showgrid="false"
     fit-margin-top="0"
     fit-margin-left="0"
     fit-margin-right="0"
     fit-margin-bottom="0"
     inkscape:window-width="1280"
     inkscape:window-height="752"
     inkscape:window-x="0"
     inkscape:window-y="0"
     inkscape:window-maximized="0" />
  <metadata
     id="metadata8704">
    <rdf:RDF>
      <cc:Work
         rdf:about="">
        <dc:format>image/svg+xml</dc:format>
        <dc:type
           rdf:resource="http://purl.org/dc/dcmitype/StillImage" />
        <dc:title></dc:title>
      </cc:Work>
    </rdf:RDF>
  </metadata>
  <g
     inkscape:label="Layer 1"
     inkscape:groupmode="layer"
     id="layer1"
     transform="translate(-383.7388,-197.71135)">
    <path
       style="fill:none;stroke:#000000;stroke-width:3.55393696;stroke-linecap:round;stroke-linejoin:miter;stroke-miterlimit:4;stroke-opacity:1;stroke-dasharray:none"
       d="m 385.99878,413.15359 277.7357,0"
       id="path9215"
       inkscape:connector-curvature="0" />
    <path
       style="fill:none;stroke:#000000;stroke-width:3.83385825;stroke-linecap:round;stroke-linejoin:miter;stroke-miterlimit:4;stroke-opacity:1;stroke-dasharray:none;stroke-dashoffset:0"
       d="M 582.98849,407.03137 523.28027,285.77122 652.04106,222.36969"
       id="path9217"
       inkscape:connector-curvature="0" />
    <path
       inkscape:connector-curvature="0"
       id="path9219"
       d="M 462.74335,407.03137 522.45157,285.77122 393.69078,222.36969"
       style="fill:none;stroke:#000000;stroke-width:3.83385825;stroke-linecap:round;stroke-linejoin:miter;stroke-miterlimit:4;stroke-opacity:1;stroke-dasharray:none;stroke-dashoffset:0" />
    <path
       style="fill:#000000;fill-opacity:1;fill-rule:nonzero;stroke:none"
       id="path9239"
       d="m 649.56066,224.81073 c -3.24895,-0.75502 -6.59711,-0.86535 -9.91567,-1.00957 -2.63817,-0.0905 -5.2776,-0.15132 -7.91735,-0.16406 -0.63643,-0.002 -1.27286,4.6e-4 -1.90928,0.002 -2.95592,0.006 -2.96463,-4.17414 -0.009,-4.18029 l 0,0 c 0.64612,-0.001 1.29225,-0.003 1.93837,-0.002 2.69366,0.0133 5.387,0.0749 8.07904,0.16798 3.599,0.15739 7.22755,0.29493 10.74747,1.13041 2.86767,0.71692 1.8538,4.77241 -1.01387,4.0555 z"
       inkscape:connector-curvature="0" />
    <path
       style="fill:#000000;fill-opacity:1;fill-rule:nonzero;stroke:none"
       id="path9241"
       d="m 651.9064,223.47703 c -2.1344,2.46693 -3.92518,5.17899 -5.66341,7.93142 -0.9706,1.81513 -2.0305,3.57612 -2.94948,5.42063 -0.24906,0.38718 -0.22321,0.51178 -0.23547,0.67785 -0.39358,2.9296 -4.53666,2.37299 -4.14308,-0.55661 l 0,0 c 0.10561,-0.69805 0.27953,-1.37151 0.63749,-1.98656 0.98339,-1.97088 2.1134,-3.85446 3.15829,-5.79097 1.80185,-2.84117 3.64671,-5.65328 5.85141,-8.20394 1.77356,-2.36474 5.1178,0.14344 3.34425,2.50818 z"
       inkscape:connector-curvature="0" />
    <path
       style="fill:#000000;fill-opacity:1;fill-rule:nonzero;stroke:none"
       id="path9265"
       d="m 523.34767,285.38622 c 0.87927,1.56056 1.24157,3.32894 1.34769,5.09982 -0.8554,3.46339 -3.56241,3.22708 -6.02574,1.40482 -1.19417,-1.2698 -2.29897,-2.5596 -3.11525,-4.10584 -0.54229,-0.93888 -0.66259,-1.99535 -0.69781,-3.05664 -0.012,-0.7061 0.003,-1.41221 0.01,-2.11828 0.56353,-1.76392 1.15309,-2.32493 2.29639,-3.29994 1.22553,-1.20032 2.70274,-1.90313 4.33651,-2.35588 1.73344,-0.35704 3.51338,-0.35997 5.27585,-0.37408 0.91211,-0.007 1.82416,0.005 2.73622,0.0113 2.21487,0.42093 2.97862,2.10838 3.32472,4.13459 0.16982,1.52085 0.16497,3.05501 0.16695,4.58343 0.15448,1.66366 -0.20965,3.19984 -0.76455,4.75482 -0.68816,1.59541 -1.75348,2.94833 -2.8926,4.23975 -0.90777,1.20565 -2.18485,1.62147 -3.62705,1.77478 -1.35955,0.0768 -2.72236,0.0509 -4.08335,0.0422 -1.918,0.11356 -3.29287,-0.75772 -4.59139,-2.03938 -1.3606,-1.16237 -1.77927,-2.81639 -2.023,-4.50997 -0.16667,-1.58685 -0.1628,-3.18426 -0.16311,-4.77779 0.002,-0.83056 0.01,-1.6611 0.0134,-2.49165 0.51831,-1.80344 1.326,-2.9225 3.02521,-3.75961 1.20113,-0.90681 2.56894,-1.37649 4.02751,-1.66721 1.64796,-0.26085 3.32214,-0.27388 4.98682,-0.29113 1.09794,-0.0906 1.8595,0.10398 2.92711,0.4778 1.4743,1.10013 1.62564,2.85827 1.72729,4.55041 0.0555,1.61096 0.0446,3.22325 0.0403,4.83488 0.15619,1.81975 -0.68994,3.11481 -2.06417,4.2083 -1.62043,0.98647 -3.5186,1.12892 -5.36637,1.24538 -1.45847,0.20169 -2.02473,-0.28828 -3.252,-0.96938 -1.15592,-0.98079 -1.49679,-2.49132 -1.71306,-3.91469 -0.32781,-1.69293 0.11301,-3.24769 0.99544,-4.68607 1.07287,-1.58932 2.6432,-2.29986 4.46076,-2.68073 1.84963,-0.30457 3.59996,-0.46952 5.29844,0.42375 1.73424,1.28467 1.7513,3.4686 1.44395,5.39693 -0.53097,2.26552 -2.16018,3.7729 -4.0291,5.00159 -1.96064,1.32823 -3.83354,1.405 -5.8794,0.29165 -1.84963,-1.43632 -2.32784,-3.54451 -2.20105,-5.76744 0.3541,-2.15746 1.40364,-3.73343 3.27827,-4.84137 2.10626,-0.99486 4.11481,-0.57187 5.95911,0.68772 1.47765,1.47218 1.70207,3.17132 1.32522,5.09509 -0.77706,1.65128 -2.37063,2.37806 -4.01941,2.87533 -0.56262,0.15218 -1.13338,0.28357 -1.71495,0.33415 -0.76008,-0.80406 -1.73768,-1.44788 -2.28023,-2.41218 -0.38327,-0.6812 1.19157,-3.62532 1.59945,-4.23281 1.33433,-1.46333 2.89321,-1.93522 4.75876,-1.06601 1.56598,1.41551 2.16487,3.03943 1.40214,5.07631 -0.54829,1.1236 -1.43413,2.03563 -2.29623,2.92498 -0.24635,0.2472 -0.13132,0.13355 -0.34434,0.34168 -2.11625,2.06372 -5.0348,-0.92911 -2.91855,-2.99283 l 0,0 c 0.15896,-0.15461 0.0709,-0.068 0.26331,-0.26046 0.50907,-0.52358 1.03224,-1.05439 1.44998,-1.65184 0.52443,1.4703 -0.39848,-0.39531 0.40976,0.21429 0.57387,0.0117 1.30537,-0.37706 0.55482,0.006 -1.04975,1.81981 0.13565,1.89442 -2.90992,-0.11581 0.14287,-0.0222 0.62736,-0.1 0.83993,-0.17395 0.51658,-0.14819 1.2143,-0.2767 1.38856,-0.57155 -0.052,1.97592 -0.0543,0.16083 -0.17364,-0.16995 0.29632,-0.0259 -0.93709,-0.58997 -1.25224,-0.26023 -0.73824,0.34946 -0.9813,0.80201 -1.16548,1.65892 -0.22635,0.52264 0.0242,1.38681 0.35621,1.81756 0.0556,0.0893 -0.24771,0.28743 -0.14267,0.28154 0.49834,-0.028 1.02308,-0.37439 1.43955,-0.59706 0.94056,-0.59624 1.93791,-1.26037 2.22091,-2.39802 0.35946,-0.41339 -0.38937,-1.67584 0.44733,-0.93141 0.97606,-0.23058 -2.10012,0.0845 -2.3196,0.12067 -0.70811,0.11096 -1.25887,0.22171 -1.7143,0.80629 -0.43281,0.63865 -0.57711,1.06232 -0.39153,1.87092 0.0852,0.70168 0.0896,1.21982 0.5215,1.53496 1.79946,1.99986 -3.196,-0.6109 0.0449,-0.23875 1.03677,-0.0634 2.07041,-0.15024 3.08364,-0.39164 0.0848,-0.0587 0.22135,-0.0245 0.29313,-0.0985 0.0794,-0.0818 0.12224,-0.39823 0.17182,-0.29561 0.38989,0.80701 -0.25389,0.63886 -0.0389,-0.50683 0.004,-1.52884 0.014,-3.05821 -0.0336,-4.58653 -0.0446,-0.85056 -0.50429,-1.80498 0.27806,-1.21357 1.85335,0.31506 -0.29274,0.0432 -0.71607,0.12824 -1.42278,0.0144 -2.85378,0.0187 -4.26471,0.22077 -1.22459,0.19845 -2.19662,0.79687 -3.24775,1.44192 0.47811,-1.248 -1.22663,2.37546 -0.38964,-0.10531 -0.004,0.82383 -0.011,1.64765 -0.0134,2.47149 1.6e-4,1.4008 -0.005,2.80446 0.12301,4.20077 0.11285,0.84633 0.12792,1.58875 0.85039,2.14343 0.4967,0.5071 0.39197,0.81499 1.6503,0.80336 1.2154,0.008 2.43178,0.0274 3.64655,-0.0221 1.00651,-0.0853 -0.0602,0.52714 0.90468,-0.38258 0.79077,-0.8932 1.55035,-1.80763 2.08976,-2.88134 0.40968,-1.13897 0.67682,-2.09434 0.51976,-3.34009 -0.002,-1.3045 2.6e-4,-2.61217 -0.11195,-3.91276 -0.17661,-1.15949 -0.26569,-0.67077 0.77093,-0.63028 -0.89128,-0.006 -1.78254,-0.0177 -2.67386,-0.0113 -1.40746,0.0108 -2.82512,0.0104 -4.21873,0.22964 -1.07414,0.27812 -1.96205,0.71449 -2.74792,1.52966 -0.5782,0.46073 -1.18514,1.69345 -0.79468,0.12834 -0.006,0.65436 -0.0199,1.30874 -0.0113,1.96315 0.0104,0.53606 -0.0327,0.79067 0.22463,1.23883 0.52708,1.0262 1.26469,1.8376 1.9665,2.73359 0.78282,0.67123 -0.95487,0.75673 -0.70499,2.13219 -0.0565,-1.20797 -0.28716,-2.40907 -0.91268,-3.46007 -1.32193,-2.64386 2.41705,-4.51335 3.73898,-1.86949 z"
       inkscape:connector-curvature="0" />
    <path
       inkscape:connector-curvature="0"
       d="m 511.69964,282.5704 c -1.14921,-3.13131 -2.89202,-5.99224 -4.59025,-8.84701 -1.37026,-2.25622 -2.76604,-4.49722 -4.20219,-6.71215 -0.34716,-0.53342 -0.69803,-1.06438 -1.04813,-1.59586 -1.62513,-2.4691 1.86645,-4.76747 3.49155,-2.2987 l 0,0 c 0.35496,0.53989 0.71077,1.07923 1.06407,1.6202 1.46524,2.26032 2.8899,4.54685 4.28752,6.84953 1.84094,3.09655 3.71466,6.20693 4.94508,9.60897 0.9721,2.79152 -2.97569,4.16626 -3.94779,1.37476 z"
       id="path9285"
       style="fill:#000000;fill-opacity:1;fill-rule:nonzero;stroke:none"
       inkscape:transform-center-x="-14.219127"
       inkscape:transform-center-y="11.020459" />
    <path
       inkscape:connector-curvature="0"
       d="m 514.10084,283.80143 c -3.23323,-0.43316 -6.48316,-0.44455 -9.73805,-0.38986 -2.05019,0.18302 -4.10403,0.26168 -6.1505,0.50398 -0.46036,0.004 -0.55041,0.0938 -0.69604,0.17454 -2.66609,1.27647 -4.4713,-2.49396 -1.80521,-3.77043 l 0,0 c 0.64175,-0.29426 1.30037,-0.51791 2.01099,-0.55561 2.18748,-0.25769 4.38228,-0.34489 6.57472,-0.53231 3.36398,-0.0501 6.72724,-0.0483 10.06902,0.39775 2.94999,0.18735 2.68504,4.35925 -0.26494,4.1719 z"
       id="path9287"
       style="fill:#000000;fill-opacity:1;fill-rule:nonzero;stroke:none"
       inkscape:transform-center-x="-11.025151"
       inkscape:transform-center-y="19.722393" />
    <path
       style="fill:#000000;fill-opacity:1;fill-rule:nonzero;stroke:none"
       id="path9301"
       d="m 486.77657,275.68042 c -0.99837,2.80172 -2.6554,5.26511 -3.77678,8.01041 -1.44293,3.2623 -2.4604,6.69338 -3.82674,9.98618 -0.62849,1.38994 -1.28761,2.7729 -2.0912,4.07176 -0.9799,2.08524 -5.37195,-2.45713 -2.31763,-3.17176 0.62763,-0.14686 1.28875,0.0328 1.93313,0.0492 3.56092,1.86814 7.01185,3.87939 10.72964,5.43971 4.05858,1.5894 8.01946,3.42187 12.08806,4.98462 2.75906,1.0607 1.25901,4.9626 -1.50005,3.9019 l 0,0 c -4.10962,-1.58122 -8.11326,-3.42692 -12.21278,-5.03489 -3.52243,-1.49274 -6.929,-3.21765 -10.17431,-5.25015 3.52331,-1.1213 -0.45677,-1.96964 -2.09561,-3.12668 0.69254,-1.10366 1.23518,-2.29552 1.78326,-3.47447 1.37978,-3.27986 2.36167,-6.72008 3.8198,-9.96947 1.06225,-2.55411 2.49333,-4.89284 3.58572,-7.43019 0.71692,-2.86766 4.77241,-1.85379 4.05549,1.01388 z"
       inkscape:connector-curvature="0" />
    <path
       inkscape:connector-curvature="0"
       d="m 544.81944,310.18834 c 2.55902,-1.51582 5.40815,-2.35037 8.0257,-3.74417 3.19533,-1.58571 6.17146,-3.57323 9.3274,-5.23137 1.37195,-0.66684 2.76299,-1.30872 4.21135,-1.79358 2.08671,-0.97675 2.5593,5.32403 -0.24604,3.92058 -0.57647,-0.28838 -0.96991,-0.84924 -1.45488,-1.27386 -1.54343,-3.71321 -2.9108,-7.46612 -4.77167,-11.04295 -2.1043,-3.81709 -3.97807,-7.7586 -6.10711,-11.56161 -1.44318,-2.57968 2.20503,-4.62065 3.64821,-2.04097 l 0,0 c 2.14878,3.84344 4.04696,7.82246 6.17087,11.68001 1.75387,3.39995 3.2702,6.90435 4.46588,10.54213 -3.42595,-1.39064 -0.90817,1.80647 -0.38791,3.74395 -1.23815,0.40578 -2.41744,0.97521 -3.59267,1.53124 -3.15801,1.6396 -6.11262,3.6569 -9.31139,5.22295 -2.44982,1.28461 -5.04552,2.16779 -7.50781,3.42023 -2.38479,1.74649 -4.85471,-1.62612 -2.4699,-3.37261 z"
       id="path9303"
       style="fill:#000000;fill-opacity:1;fill-rule:nonzero;stroke:none" />
    <path
       style="fill:#000000;fill-opacity:1;fill-rule:nonzero;stroke:none"
       id="path9307"
       d="m 464.222,403.95356 c 2.63156,1.37609 5.4351,1.07305 8.26626,0.70065 2.74682,-0.45343 5.49359,-0.88409 8.26827,-1.12008 1.82984,0.14783 0.93362,0.039 2.68945,0.31981 2.9178,0.47321 2.24858,4.5996 -0.66922,4.12639 l 0,0 c -1.27494,-0.21021 -0.71943,-0.11502 -1.66733,-0.28082 -2.71273,0.22887 -5.39595,0.66367 -8.08223,1.10012 -3.65591,0.4703 -7.29641,0.65346 -10.67469,-1.10709 -2.64385,-1.32193 -0.77436,-5.06091 1.86949,-3.73898 z"
       inkscape:connector-curvature="0" />
    <path
       style="fill:#000000;fill-opacity:1;fill-rule:nonzero;stroke:none"
       id="path9309"
       d="m 583.62963,403.62862 c 3.73246,0.84906 7.53508,0.36107 11.26635,-0.20507 2.85271,-0.26613 5.49911,-1.40882 8.30938,-1.85925 2.92445,-0.43023 3.53288,3.70556 0.60843,4.13579 l 0,0 c -2.80725,0.35351 -5.43013,1.7215 -8.29337,1.85686 -4.27771,0.64361 -8.63562,1.12995 -12.90466,0.12717 -2.86767,-0.71692 -1.85379,-4.77241 1.01387,-4.0555 z"
       inkscape:connector-curvature="0" />
    <path
       style="fill:#000000;fill-opacity:1;fill-rule:nonzero;stroke:none"
       id="path9315"
       d="m 420.20277,200.06732 c 2.33279,4.23443 4.34516,8.64173 6.46078,12.98828 1.82412,3.97782 3.80597,7.88094 5.2176,12.03036 0.31582,1.05423 0.67784,2.1095 0.81596,3.20634 0.004,0.0906 0.0754,0.33754 0.0129,0.27177 -0.61711,-0.64994 -1.18895,-1.34479 -1.71839,-2.06793 -0.0397,-0.0542 0.26877,-0.004 0.20157,-0.004 -0.21703,-8.7e-4 -0.66717,0.24614 -0.6504,0.0298 0.014,-0.18066 0.17398,-0.3179 0.26097,-0.47685 1.43496,-3.13186 2.62997,-6.37406 3.83804,-9.59986 1.26378,-3.92475 2.37885,-7.89172 3.12879,-11.94783 0.21343,-1.82507 0.36918,-3.4268 1.16146,-5.06857 0.69847,-0.66039 1.45083,-0.89296 2.37145,-0.9404 2.95509,-0.0705 3.05473,4.10866 0.0996,4.17912 l 0,0 c 0.29257,-0.13446 0.48943,-0.20221 0.70243,-0.51775 1.01155,-3.12551 -0.39202,2.91724 -0.22502,3.11121 -0.80136,4.29408 -1.9691,8.49948 -3.32428,12.65113 -1.31697,3.51225 -2.58371,7.06747 -4.25788,10.42695 -0.60078,0.85563 -0.87613,1.46974 -1.8395,1.97948 -1.98038,1.04787 -2.17636,-0.28656 -3.92912,-1.72849 -0.0416,-0.0342 0.008,0.10733 0.0123,0.16099 -0.1334,-0.72819 -0.37857,-1.58568 -0.61977,-2.3227 -1.34686,-3.98559 -3.28177,-7.71916 -5.01746,-11.54342 -2.00054,-4.11014 -3.94643,-8.24912 -6.04632,-12.30959 -1.77355,-2.36474 1.57069,-4.87292 3.34425,-2.50818 z"
       inkscape:connector-curvature="0" />
    <path
       style="fill:#000000;fill-opacity:1;fill-rule:nonzero;stroke:none"
       id="path9321"
       d="m 449.85984,198.79362 c 2.33049,0.57033 4.70687,0.84532 7.09523,1.0128 1.61736,0.10696 3.23777,0.14895 4.8583,0.16086 0.40901,0.003 0.81795,-0.004 1.22694,-0.006 0.63569,-0.003 1.27139,-0.003 1.90708,-0.003 0.15644,-1.2e-4 0.31289,-1e-4 0.46933,-9e-5 0.006,-1e-5 0.0125,3e-5 0.0187,5e-5 2.95587,0.0162 2.93293,4.19647 -0.0229,4.18024 l 0,0 c 4e-4,1e-5 0.0149,5e-5 0.001,2e-5 -0.15463,-2e-5 -0.30926,-3e-5 -0.46388,9e-5 -0.62946,3.6e-4 -1.25892,5e-4 -1.88838,0.003 -0.42639,0.002 -0.85273,0.009 -1.27915,0.006 -1.70859,-0.0128 -3.41705,-0.0578 -5.12226,-0.17118 -2.6304,-0.18763 -5.24801,-0.49666 -7.81408,-1.12718 -2.86766,-0.71692 -1.85379,-4.77241 1.01388,-4.0555 z"
       inkscape:connector-curvature="0" />
    <path
       style="fill:#000000;fill-opacity:1;fill-rule:nonzero;stroke:none"
       id="path9323"
       d="m 562.33317,207.03449 c 2.72827,3.71028 4.97937,7.75915 7.47553,11.62994 3.09749,4.66882 5.94403,9.5011 8.47939,14.49706 0.68183,1.43417 1.41472,2.85246 1.9711,4.34251 0.38875,1.28224 0.14683,-0.16879 -1.67848,-1.23682 -0.63712,-0.37279 -1.24156,0.79472 -1.3653,0.56336 -0.15317,-0.28638 0.20014,-0.61794 0.30021,-0.92691 1.08429,-4.39993 1.05812,-8.97012 1.48432,-13.45946 0.26494,-5.44935 1.38659,-10.73274 2.76264,-15.99053 0.46207,-1.6655 0.90057,-3.34014 1.44491,-4.98146 0.0739,-0.20918 0.0367,-0.10929 0.11099,-0.29994 1.10741,-2.74064 4.98327,-1.17453 3.87586,1.56611 l 0,0 c -0.007,0.0176 0.0851,-0.25019 -0.0201,0.0529 -0.51869,1.55444 -0.92532,3.14438 -1.36767,4.72125 -1.32073,5.04171 -2.40487,10.10072 -2.64526,15.32917 -0.46092,4.79426 -0.41433,9.68289 -1.67345,14.36438 -0.33589,1.01449 -0.5337,1.94826 -1.41551,2.72056 -1.57144,1.3763 -2.35253,-0.24291 -3.77989,-1.13079 -0.0465,-0.0289 0.0431,0.22595 0.0458,0.15771 -0.5173,-1.33296 -1.15563,-2.61545 -1.77842,-3.90125 -2.46775,-4.86928 -5.24738,-9.57425 -8.26504,-14.12347 -2.44,-3.78907 -4.64452,-7.75215 -7.30586,-11.38613 -1.77355,-2.36474 1.57069,-4.87293 3.34424,-2.50819 z"
       inkscape:connector-curvature="0" />
    <path
       style="fill:#000000;fill-opacity:1;fill-rule:nonzero;stroke:none"
       id="path9325"
       d="m 598.58476,199.42104 c 0.71007,3.04308 0.92921,6.17095 1.12816,9.28099 0.11094,2.01623 0.15848,4.03499 0.17022,6.05399 9.1e-4,0.43431 0.003,0.86868 -0.007,1.3029 -0.0865,2.95465 -4.265,2.83235 -4.17851,-0.12231 l 0,0 c 0.007,-0.38544 0.007,-0.77097 0.005,-1.15647 -0.0111,-1.93834 -0.0563,-3.87643 -0.16182,-5.81216 -0.18153,-2.85803 -0.37265,-5.73389 -1.01181,-8.53307 -0.71692,-2.86767 3.33857,-3.88154 4.05549,-1.01387 z"
       inkscape:connector-curvature="0" />
    <path
       style="fill:#000000;fill-opacity:1;fill-rule:nonzero;stroke:none"
       id="path9327"
       d="m 590.59681,204.36737 c 2.8192,0.70345 5.63661,0.66696 8.49945,0.38636 1.23508,-0.14652 2.47335,-0.28935 3.69571,-0.52338 0.47633,-0.10741 0.96783,-0.0969 1.45297,-0.098 0.13192,-4e-4 0.26383,0.001 0.39575,0.003 2.95572,0.034 2.9077,4.21399 -0.048,4.18003 l 0,0 c -0.11306,-0.001 -0.22613,-0.003 -0.3392,-0.002 -0.68164,0.001 -0.24393,-0.0569 -0.68075,0.0245 -1.34748,0.25482 -2.71029,0.42102 -4.07206,0.57733 -3.33547,0.32168 -6.63895,0.32133 -9.91771,-0.49157 -2.86767,-0.71692 -1.8538,-4.77241 1.01387,-4.05549 z"
       inkscape:connector-curvature="0" />
    <path
       style="fill:#000000;fill-opacity:1;fill-rule:nonzero;stroke:none"
       id="path9329"
       d="m 500.38599,329.05877 c -1.58597,3.88281 -3.36823,7.68007 -5.16443,11.46874 -2.41881,5.15046 -5.10454,10.1686 -7.77209,15.19286 -1.73164,3.34384 -3.36713,6.73667 -5.10387,10.0775 -0.96803,1.82195 -1.70275,3.73752 -2.21076,5.73383 -0.12324,0.17665 -0.12443,1.14878 -0.1334,0.38031 -1.33276,-0.23486 -2.73271,-0.22526 -3.99827,-0.70459 -0.0165,-0.006 0.39391,-0.94745 0.73389,-1.5689 0.72263,-1.32087 1.37445,-2.64427 2.03749,-3.99915 1.56169,-4.04658 3.53941,-7.90369 5.25531,-11.88369 2.52829,-4.34052 4.8057,-8.81071 7.10417,-13.27548 1.08709,-1.97302 2.04165,-4.02291 2.80717,-6.1423 -0.34144,-0.061 1.40961,-2.35573 1.20355,-2.22963 0.19232,-0.75609 0.78658,-1.41157 1.17064,-1.92253 0.26428,-0.35316 0.31612,-0.96615 0.379,-1.47704 0.0463,-0.3901 0.0664,-0.78217 0.0759,-1.17451 0.0966,1.54017 0.0683,-0.27386 4.16953,0.28238 0.11022,0.0149 -0.0123,0.48893 -0.23915,1.59811 -0.87794,3.59883 -2.65067,6.92031 -4.24892,10.24049 -2.3587,5.01472 -5.11096,9.82376 -7.57332,14.78596 -1.69148,3.84087 -3.33517,7.70856 -4.88087,11.61086 -0.56465,1.76985 -1.50927,3.39364 -2.88608,4.64598 0.0509,0.003 -1.59674,0.78026 -1.53668,0.71227 1.90374,-2.15473 1.86386,-2.36862 1.83283,-1.40638 0.11654,1.22529 -0.22233,2.25379 -1.06095,3.17763 -0.54942,0.45359 -1.18623,0.7574 -1.87623,0.91818 -4.28112,0.30426 -1.6661,-5.06663 -1.01444,-6.43409 1.28415,-2.66241 5.04937,-0.84635 3.76522,1.81606 l 0,0 c -0.51573,1.05292 -0.52386,0.98974 -0.89337,2.01934 -0.0769,0.21417 -0.0142,0.76987 -0.20779,0.65026 -2.82891,-1.74789 -1.20517,-2.3439 -2.51389,-2.14155 -0.0941,0.10168 -0.0696,-0.0457 -0.0799,0.0863 -0.79655,1.33399 -0.13896,1.48357 -0.29538,-0.26471 0.0611,-1.32576 3.17336,-3.33415 1.11865,-2.27126 0.89073,-0.81528 1.41584,-1.90046 1.76252,-3.05008 1.59339,-4.00772 3.27131,-7.9861 5.02191,-11.92731 2.45582,-4.94686 5.19616,-9.74303 7.55126,-14.74083 1.48239,-3.07863 3.15221,-6.15577 3.97265,-9.49053 0.13091,-0.15761 -0.0965,-0.55644 0.10224,-0.60611 3.83364,-0.95794 4.13871,-1.88968 4.19047,-0.20441 -0.009,0.57131 -0.0431,1.14192 -0.11109,1.70955 -0.18511,1.36596 -0.52226,2.74422 -1.47573,3.79595 -0.48471,0.4681 -1.16036,1.21184 0.0159,-0.40668 10e-4,-0.002 -0.67304,1.67227 -0.64354,1.60818 -1.44021,2.06263 0.0739,-0.8024 -0.86475,1.51464 -0.83066,2.28516 -1.84813,4.50175 -3.02079,6.6316 -2.25568,4.37911 -4.46859,8.77747 -6.98204,13.01698 -1.74307,4.04131 -3.74374,7.961 -5.33933,12.0663 -0.66606,1.36025 -1.32137,2.70753 -2.0533,4.0311 -0.16804,0.30389 -0.12934,0.92503 -0.4766,0.92636 -1.3888,0.005 -2.77536,-0.11205 -4.16304,-0.16808 -0.0154,-0.60308 0.0971,-1.18922 0.24918,-1.77267 0.59361,-2.30335 1.4359,-4.52176 2.55222,-6.62634 1.74586,-3.34893 3.37919,-6.75594 5.11989,-10.10797 2.63891,-4.96776 5.29402,-9.93043 7.68681,-15.02307 1.809,-3.81519 3.59309,-7.64267 5.2027,-11.54733 1.32193,-2.64386 5.06091,-0.77437 3.73898,1.86949 z"
       inkscape:connector-curvature="0" />
    <path
       style="fill:#000000;fill-opacity:1;fill-rule:nonzero;stroke:none"
       id="path9331"
       d="m 495.08506,328.26618 c 1.06999,-1.06998 2.13998,-2.13997 3.20996,-3.20996 0.16603,-0.16602 0.33205,-0.33204 0.49807,-0.49807 1.78734,4.58603 1.98611,2.78513 -0.0512,4.53345 -2.11579,1.59615 -4.32881,3.07646 -6.64762,4.36141 -0.96543,0.63754 -1.90622,1.33276 -2.71524,2.16425 0.33225,-0.23735 -0.17955,-2.96605 -1.5465,-3.32422 1.3647,-0.85444 2.65386,-1.80469 3.79171,-2.95726 1.21591,-1.28737 2.3042,-2.67815 3.67154,-3.80818 1.02752,-0.64267 1.67591,-1.61257 2.71646,-2.25921 0.56624,-0.30863 1.16848,-0.546 1.80157,-0.67006 2.6012,-0.45416 2.21308,2.0098 2.65865,3.26045 0.65332,2.62782 0.91576,5.32323 1.0956,8.0178 0.30343,1.95466 0.84946,3.85803 1.26269,5.79077 0.24194,1.27208 0.2811,2.56798 0.29817,3.85889 0.16567,-0.13454 0.31478,0.22165 0.49679,0.39219 -0.0932,-0.10065 -0.22399,-0.15994 -0.34338,-0.22501 2.68344,1.23961 0.93038,5.03457 -1.75307,3.79496 l 0,0 c -0.29183,-0.15362 -0.56892,-0.32457 -0.80416,-0.55973 -0.9342,-0.92427 -1.58903,-2.02401 -1.77615,-3.34923 -0.0123,-1.01546 -0.0331,-2.03527 -0.20624,-3.03859 -0.45454,-2.12879 -1.0754,-4.22305 -1.3458,-6.38777 -0.16402,-2.49297 -0.40171,-4.98712 -1.01171,-7.41722 -0.67596,-3.85043 0.0237,0.25906 2.15602,-0.021 -0.13785,0.0471 -0.27495,0.0971 -0.40821,0.15594 -0.76308,0.35327 -1.28792,1.61278 -2.25756,1.94621 -1.31107,0.89268 -2.08666,2.44748 -3.29109,3.47049 -1.58792,1.58041 -3.37422,2.93134 -5.37479,3.95253 -0.38823,0.0951 -0.85366,0.53627 -1.16471,0.28524 -2.54012,-2.04996 -2.92095,-2.46408 -1.64306,-3.84247 1.10285,-1.11062 2.35227,-2.06825 3.68068,-2.89417 2.10683,-1.14294 4.09044,-2.51434 6.01685,-3.93614 0.27934,-0.22144 3.29241,-2.34968 3.72334,-1.8892 0.91993,0.98298 1.28546,2.36595 1.92818,3.54893 -6.2e-4,6.2e-4 -0.001,10e-4 -0.002,0.002 -0.16602,0.16602 -0.33204,0.33204 -0.49807,0.49807 -1.06998,1.06998 -2.13997,2.13997 -3.20995,3.20996 -2.09016,2.09015 -5.04608,-0.86577 -2.95593,-2.95593 z"
       inkscape:connector-curvature="0" />
    <path
       inkscape:connector-curvature="0"
       d="m 543.35857,327.67549 c 2.01349,3.67932 3.83681,7.45703 5.64467,11.24015 2.47219,5.12505 4.67337,10.37383 6.89076,15.61236 1.50333,3.45251 3.10531,6.8613 4.60309,10.31587 0.80365,1.90019 1.82709,3.67833 3.05615,5.33144 0.0594,0.20704 0.81314,0.82096 0.21105,0.34334 -1.02269,0.8863 -1.89801,1.9789 -3.06806,2.65888 -0.0151,0.009 -0.48695,-0.90316 -0.7549,-1.5589 -0.56949,-1.39376 -1.1856,-2.73415 -1.81907,-4.10311 -2.15591,-3.76374 -3.90243,-7.7309 -5.90943,-11.57234 -1.77453,-4.6993 -3.8079,-9.28564 -5.82379,-13.88492 -0.84583,-2.08786 -1.83489,-4.12132 -2.9971,-6.0519 -0.26264,0.22654 -0.93949,-2.5795 -0.97155,-2.34005 -0.46555,-0.62604 -0.59957,-1.50059 -0.75396,-2.12087 -0.10745,-0.42781 -0.55052,-0.85458 -0.90739,-1.22553 -0.27357,-0.28192 -0.56519,-0.54475 -0.86371,-0.79953 1.25629,0.89622 -0.16948,-0.22569 2.84836,-3.05803 0.0811,-0.0761 0.37172,0.31785 1.08954,1.19334 2.23955,2.95072 3.69961,6.42102 5.26869,9.75509 2.40474,4.9928 4.40168,10.16137 6.70029,15.20151 1.91441,3.73476 3.87977,7.44934 5.93379,11.10968 1.01758,1.55427 1.6822,3.31133 1.786,5.16961 0.0344,-0.0376 -0.40128,1.73129 -0.41618,1.6418 -0.4719,-2.83626 -0.66305,-2.94019 0.0642,-2.30934 1.02447,0.68219 1.60904,1.59374 1.79725,2.82716 0.006,0.71245 -0.16017,1.39827 -0.47048,2.03518 -2.46341,3.51456 -4.98296,-1.90177 -5.63336,-3.26983 -1.25663,-2.67551 2.52712,-4.45265 3.78374,-1.77714 l 0,0 c 0.492,1.06422 0.43784,1.03069 1.00394,1.96672 0.11773,0.19473 0.58856,0.49648 0.37366,0.5713 -3.14043,1.09343 -2.57912,-0.54263 -3.24732,0.6007 0.0196,0.13716 -0.0794,0.0252 0.0166,0.11644 0.53307,1.4594 1.06382,1.04335 -0.39171,0.0623 -0.99043,-0.88341 -0.58669,-4.56536 -1.0574,-2.30041 -0.0711,-1.20542 -0.58221,-2.29726 -1.25586,-3.29125 -2.10576,-3.76383 -4.13545,-7.57478 -6.09046,-11.41869 -2.29083,-5.0254 -4.28529,-10.17659 -6.67917,-15.15593 -1.45466,-3.09183 -2.78998,-6.32819 -4.86084,-9.06777 -0.0398,-0.20099 -0.49272,-0.27598 -0.40595,-0.46155 1.67391,-3.57945 1.14313,-4.40376 2.48375,-3.38124 0.43774,0.36724 0.8591,0.75351 1.25679,1.16421 0.94343,1.00501 1.80054,2.13578 2.01559,3.53899 0.0577,0.67137 0.20885,1.66474 -0.30561,-0.26878 -9.2e-4,-0.002 0.8735,1.57685 0.84236,1.51354 0.69271,2.41843 -0.57617,-0.56333 0.63027,1.62625 1.24978,2.08566 2.32856,4.27307 3.24215,6.52624 1.97638,4.51205 3.99468,9.00304 5.70018,13.62712 2.03744,3.90119 3.81806,7.92563 5.99817,11.7527 0.63573,1.37469 1.26817,2.73285 1.8339,4.13553 0.1299,0.32205 0.63639,0.68369 0.41845,0.95405 -0.87186,1.08104 -1.83704,2.08338 -2.75556,3.12507 -0.47778,-0.36834 -0.86176,-0.82525 -1.21869,-1.3112 -1.41339,-1.91315 -2.60404,-3.96574 -3.53354,-6.15924 -1.49831,-3.46676 -3.11266,-6.88281 -4.61663,-10.34752 -2.1916,-5.18067 -4.36904,-10.37071 -6.81276,-15.43911 -1.82037,-3.80977 -3.66599,-7.60796 -5.68154,-11.3194 -1.2184,-2.69314 2.59026,-4.41622 3.80867,-1.72309 z"
       id="path9335"
       style="fill:#000000;fill-opacity:1;fill-rule:nonzero;stroke:none" />
    <path
       inkscape:connector-curvature="0"
       d="m 539.40079,331.28991 c -0.15574,-1.50515 -0.31148,-3.01031 -0.46723,-4.51546 -0.0242,-0.23354 -0.0483,-0.46708 -0.0725,-0.70063 4.6864,1.50462 3.41401,0.21475 3.48626,2.89841 -0.0953,2.64862 -0.3419,5.29965 -0.80679,7.9096 -0.11396,1.15132 -0.16762,2.31988 -0.0324,3.4721 0.0253,-0.40754 -2.41526,-1.73096 -3.55521,-0.89588 0.19739,-1.59797 0.27278,-3.19773 0.0957,-4.80763 -0.23245,-1.75548 -0.62563,-3.47713 -0.64047,-5.25093 0.14913,-1.20274 -0.19478,-2.31756 -0.0405,-3.53292 0.11752,-0.63409 0.31304,-1.25118 0.61597,-1.82077 1.28776,-2.30525 2.95537,-0.45031 4.207,-0.008 2.4515,1.14997 4.70897,2.64594 6.91371,4.20548 1.7084,0.99706 3.52998,1.77348 5.29061,2.6715 1.13986,0.61436 2.17034,1.40113 3.18301,2.20189 5e-5,-0.21342 0.37053,-0.10454 0.61766,-0.13827 -0.13689,0.009 -0.26538,0.073 -0.39117,0.12463 2.65421,-1.30104 4.49416,2.45257 1.83995,3.75361 l 0,0 c -0.30325,0.12962 -0.61066,0.23689 -0.94151,0.27118 -1.30643,0.14224 -2.57289,-0.043 -3.71943,-0.73341 -0.79588,-0.63078 -1.6005,-1.2577 -2.48839,-1.75599 -1.93884,-0.98958 -3.95575,-1.82829 -5.80636,-2.98344 -2.0383,-1.4447 -4.12396,-2.83297 -6.39468,-3.89188 -3.41468,-1.90335 0.21601,0.14496 1.34323,-1.6866 -0.0504,0.13669 -0.098,0.27463 -0.13638,0.41516 -0.20699,0.81501 0.4396,2.01657 0.087,2.97939 -0.13389,1.58046 0.58377,3.16283 0.61828,4.74271 0.2253,2.22899 0.14741,4.46725 -0.32152,6.66389 -0.171,0.36129 -0.12208,1.00071 -0.51305,1.08383 -3.19277,0.67881 -3.75432,0.71326 -4.01833,-1.14773 -0.16656,-1.55628 -0.12195,-3.12985 0.0747,-4.68167 0.44144,-2.35588 0.62787,-4.76019 0.73911,-7.15188 0.004,-0.35644 0.25245,-4.03698 0.88157,-4.08108 1.34301,-0.0941 2.64686,0.49423 3.97029,0.74135 9e-5,8.7e-4 1.5e-4,0.001 2.9e-4,0.003 0.0242,0.23354 0.0483,0.46708 0.0725,0.70064 0.15574,1.50514 0.31149,3.0103 0.46724,4.51545 0.30423,2.94023 -3.85388,3.37048 -4.15812,0.43025 z"
       id="path9337"
       style="fill:#000000;fill-opacity:1;fill-rule:nonzero;stroke:none" />
    <path
       style="fill:#000000;fill-opacity:1;fill-rule:nonzero;stroke:none"
       id="path9343"
       d="m 447.6149,337.56423 c 0,5.34293 0,10.68585 0,16.02878 0.20241,4.29518 0.64704,8.57534 1.12779,12.84707 0.0719,0.61509 0.14239,1.23042 0.22747,1.84385 0.40483,2.92807 -3.73608,3.5006 -4.14092,0.57253 l 0,0 c -0.0894,-0.64848 -0.16538,-1.29871 -0.24064,-1.94896 -0.49799,-4.42676 -0.95956,-8.86255 -1.15401,-13.31449 0,-5.34293 0,-10.68585 0,-16.02878 0,-2.95592 4.18031,-2.95592 4.18031,0 z"
       inkscape:connector-curvature="0" />
    <path
       style="fill:#000000;fill-opacity:1;fill-rule:nonzero;stroke:none"
       id="path9345"
       d="m 443.16135,334.34791 c 3.24076,-0.62493 6.53063,-0.9116 9.82098,-1.10693 3.41953,-0.0462 6.36677,0.77499 8.61772,3.40967 1.52736,2.1847 1.40996,4.45208 0.40797,6.80764 -1.39885,2.28249 -3.31601,4.0774 -5.55459,5.50756 -2.89122,1.58645 -6.01838,2.07104 -9.26245,1.74808 -1.20239,-0.16791 -2.38937,-0.43835 -3.52832,-0.85955 -2.76621,-1.04189 -1.29277,-4.95391 1.47345,-3.91202 l 0,0 c 0.80081,0.31302 1.65252,0.47394 2.49746,0.61475 2.30193,0.26726 4.52166,-0.0567 6.60523,-1.13673 1.5942,-0.96252 2.89577,-2.24226 3.99134,-3.75166 0.53666,-0.83125 0.57731,-1.56874 0.0788,-2.44054 -1.01044,-1.74936 -3.31738,-1.67889 -5.0799,-1.81418 -3.09804,0.18238 -6.19594,0.44819 -9.24788,1.03304 -2.89852,0.5797 -3.71835,-3.51942 -0.81983,-4.09913 z"
       inkscape:connector-curvature="0" />
    <path
       inkscape:connector-curvature="0"
       d="m 582.47152,336.57892 c 0,5.34293 0,10.68585 0,16.02878 0.20241,4.29518 0.64704,8.57534 1.12779,12.84707 0.0719,0.61509 0.14239,1.23042 0.22747,1.84385 0.40483,2.92807 -3.73608,3.5006 -4.14092,0.57253 l 0,0 c -0.0894,-0.64848 -0.16538,-1.29871 -0.24064,-1.94896 -0.49799,-4.42676 -0.95956,-8.86255 -1.15401,-13.31449 0,-5.34293 0,-10.68585 0,-16.02878 0,-2.95592 4.18031,-2.95592 4.18031,0 z"
       id="path9349"
       style="fill:#000000;fill-opacity:1;fill-rule:nonzero;stroke:none" />
    <path
       inkscape:connector-curvature="0"
       d="m 578.01797,333.3626 c 3.24076,-0.62493 6.53063,-0.9116 9.82098,-1.10693 3.41953,-0.0462 6.36677,0.77499 8.61772,3.40967 1.52736,2.1847 1.40996,4.45208 0.40797,6.80764 -1.39885,2.28249 -3.31601,4.0774 -5.55459,5.50756 -2.89122,1.58645 -6.01838,2.07104 -9.26245,1.74808 -1.20239,-0.16791 -2.38937,-0.43835 -3.52832,-0.85955 -2.76621,-1.04189 -1.29277,-4.95391 1.47345,-3.91202 l 0,0 c 0.80081,0.31302 1.65252,0.47394 2.49746,0.61475 2.30193,0.26726 4.52166,-0.0567 6.60523,-1.13673 1.5942,-0.96252 2.89577,-2.24226 3.99134,-3.75166 0.53666,-0.83125 0.57731,-1.56874 0.0788,-2.44054 -1.01044,-1.74936 -3.31738,-1.67889 -5.0799,-1.81418 -3.09804,0.18238 -6.19594,0.44819 -9.24788,1.03304 -2.89852,0.5797 -3.71835,-3.51942 -0.81983,-4.09913 z"
       id="path9351"
       style="fill:#000000;fill-opacity:1;fill-rule:nonzero;stroke:none" />
    <path
       style="fill:#000000;fill-opacity:1;fill-rule:nonzero;stroke:none"
       id="path9357"
       d="m 457.14897,362.07461 c 0.50412,2.32295 0.73081,4.68154 0.90529,7.03923 0.0701,1.10851 0.11404,2.2182 0.13649,3.32825 0.0434,2.15805 -3.37757,2.21284 -3.42099,0.0548 l 0,0 c -0.0212,-1.06136 -0.0634,-2.12238 -0.12964,-3.18229 -0.16401,-2.22415 -0.37326,-4.44952 -0.84625,-6.64134 -0.47448,-2.11648 2.88062,-2.71511 3.3551,-0.59863 z"
       inkscape:connector-curvature="0" />
    <path
       style="fill:#000000;fill-opacity:1;fill-rule:nonzero;stroke:none"
       id="path9365"
       d="m 588.41176,360.96283 c 1.49155,-1.25274 3.30991,-2.03393 5.18171,-2.64806 2.19867,-0.65722 3.54609,-0.20371 4.33753,1.93751 0.55984,1.52801 -0.10967,2.84395 -0.78803,4.21128 -0.94949,1.64069 -1.81205,3.33087 -2.85997,4.91851 -0.70832,1.11435 -1.70249,1.88493 -2.99602,2.32411 0.042,0.01 0.43206,-0.1795 0.49466,-0.21125 0.36312,-0.79563 -2.19757,-1.65538 -0.92804,-1.63984 1.2622,0.002 2.52441,-0.004 3.78661,-0.006 1.43196,0.007 2.82306,-0.43404 4.22165,-0.69632 1.08107,-0.15695 0.48274,-0.11439 1.79873,-0.0679 2.25223,0.16125 2.00839,3.13999 -0.24384,2.97874 l 0,0 c -0.53689,-0.099 -0.22832,-0.0796 -0.92758,0.0184 -1.60279,0.29979 -3.19464,0.78953 -4.84272,0.75447 -1.28093,0.002 -2.56186,0.009 -3.84279,0.006 -1.12819,-0.0185 -2.4782,-0.87658 -2.14591,-1.97171 0.21889,-0.87526 0.70116,-1.55716 1.58209,-1.98667 0.64302,-0.18032 0.98775,-0.53859 1.33792,-1.09053 1.00618,-1.4618 1.75171,-3.07546 2.6677,-4.58753 0.3684,-0.74189 0.88121,-1.28422 0.64028,-2.0511 -0.0213,-0.0841 -0.10667,-0.17555 -0.064,-0.25221 0.0218,-0.0392 0.22073,0.11886 0.6316,0.12239 0.044,3.8e-4 0.15309,-0.0707 0.10906,-0.0697 -0.15028,0.003 -0.29637,0.0476 -0.44346,0.0765 -0.15839,0.0312 -0.31516,0.0692 -0.47275,0.1038 -1.42076,0.46089 -2.81483,1.02318 -3.97558,1.93993 -1.59722,1.49373 -3.85604,-0.61872 -2.25882,-2.11245 z"
       inkscape:connector-curvature="0" />
    <path
       style="fill:#000000;fill-opacity:1;fill-rule:nonzero;stroke:none"
       id="path9367"
       d="m 579.20415,322.82406 c 3.85929,1.1196 8.0397,1.05423 12.02271,0.81737 3.34223,-0.29071 6.67632,-0.67039 10.00274,-1.10486 0.33535,-0.009 1.32523,-0.20402 0.99795,-0.13033 0.53807,-0.0999 1.08098,-0.0722 1.6238,-0.0674 0.0838,6.6e-4 0.16751,0.002 0.25127,0.003 -1.76399,4.15657 -1.63853,3.79314 -3.76284,1.54583 -1.14561,-1.05792 -2.02728,-2.35147 -3.05973,-3.49944 -0.22993,-0.24191 -1.38982,-1.38458 -0.93101,-0.82278 -0.066,-7.2e-4 -0.13205,-10e-4 -0.19807,-0.002 -2.93951,-0.31107 -2.49959,-4.46816 0.43992,-4.15709 l 0,0 c 0.2496,0.0327 0.49921,0.0654 0.74881,0.098 1.31933,0.36445 2.24123,1.15792 3.12502,2.17609 0.94172,1.1395 1.84969,2.29906 2.91664,3.33965 1.9532,2.07803 2.52761,1.11995 0.66587,5.50182 -0.0779,-8.3e-4 -0.1558,-0.002 -0.2337,-0.002 -0.23976,-0.002 -1.43772,0.0297 -0.4831,-0.0805 -0.5129,0.1198 -1.03953,0.16457 -1.55957,0.24325 -3.42745,0.44743 -6.86283,0.83909 -10.30702,1.13333 -4.59371,0.24996 -9.39011,0.30759 -13.81222,-1.10964 -2.7445,-1.0978 -1.19198,-4.97912 1.55253,-3.88132 z"
       inkscape:connector-curvature="0" />
    <path
       inkscape:connector-curvature="0"
       d="m 440.16722,325.2028 c 3.85929,1.1196 8.0397,1.05423 12.02271,0.81737 3.34223,-0.29071 6.67632,-0.67039 10.00274,-1.10486 0.33535,-0.009 1.32523,-0.20402 0.99795,-0.13033 0.53807,-0.0999 1.08098,-0.0722 1.6238,-0.0674 0.0838,6.6e-4 0.16751,0.002 0.25127,0.003 -1.76399,4.15657 -1.63853,3.79314 -3.76284,1.54583 -1.14561,-1.05792 -2.02728,-2.35147 -3.05973,-3.49944 -0.22993,-0.24191 -1.38982,-1.38458 -0.93101,-0.82278 -0.066,-7.2e-4 -0.13205,-10e-4 -0.19807,-0.002 -2.93951,-0.31107 -2.49959,-4.46816 0.43992,-4.15709 l 0,0 c 0.2496,0.0327 0.49921,0.0654 0.74881,0.098 1.31933,0.36445 2.24123,1.15792 3.12502,2.17609 0.94172,1.1395 1.84969,2.29906 2.91664,3.33965 1.9532,2.07803 2.52761,1.11995 0.66587,5.50182 -0.0779,-8.3e-4 -0.1558,-0.002 -0.2337,-0.002 -0.23976,-0.002 -1.43772,0.0297 -0.4831,-0.0805 -0.5129,0.1198 -1.03953,0.16457 -1.55957,0.24325 -3.42745,0.44743 -6.86283,0.83909 -10.30702,1.13333 -4.59371,0.24996 -9.39011,0.30759 -13.81222,-1.10964 -2.7445,-1.0978 -1.19198,-4.97912 1.55253,-3.88132 z"
       id="path9369"
       style="fill:#000000;fill-opacity:1;fill-rule:nonzero;stroke:none" />
    <path
       style="fill:#000000;fill-opacity:1;fill-rule:nonzero;stroke:none"
       id="path9375"
       d="m 476.31796,331.43706 c -0.95857,1.31793 -2.0376,2.53406 -3.17114,3.70291 -1.33494,1.30575 -2.51503,2.75254 -3.87739,4.03055 -0.39823,0.3489 -0.81681,0.71709 -1.07636,1.18827 -0.007,0.0309 0.0227,-0.059 0.0321,-0.0892 -0.21662,1.02238 -1.66249,0.71604 -1.44587,-0.30634 l 0,0 c 0.0331,-0.11984 0.0685,-0.23638 0.13391,-0.34366 0.3471,-0.58909 0.82314,-1.09012 1.34565,-1.5276 1.34665,-1.2602 2.50494,-2.69612 3.82726,-3.98129 1.09077,-1.12334 2.12902,-2.29198 3.04945,-3.56044 0.62704,-0.83606 1.80941,0.0507 1.18236,0.88678 z"
       inkscape:connector-curvature="0" />
    <path
       style="fill:#000000;fill-opacity:1;fill-rule:nonzero;stroke:none"
       id="path9383"
       d="m 467.73513,330.4122 c 1.01094,0.71128 1.8476,1.61349 2.68937,2.50961 1.29685,1.54602 2.62077,3.06724 3.98679,4.5525 0.8824,1.03262 1.74166,2.08477 2.6106,3.12873 0.28013,0.38458 0.50864,0.80854 0.60988,1.27558 0.0299,0.13079 0.0127,0.25486 -0.005,0.38557 -0.23985,1.01718 -1.67836,0.67797 -1.43851,-0.33921 l 0,0 c -0.0102,0.0837 -0.0261,0.15738 -0.006,0.23946 -0.0611,-0.21978 -0.16268,-0.42747 -0.29577,-0.61589 -0.85338,-1.02527 -1.69794,-2.05796 -2.56253,-3.07379 -1.36234,-1.48152 -2.68541,-2.99675 -3.9762,-4.54111 -0.83264,-0.88658 -1.66452,-1.76403 -2.65716,-2.47637 -0.73898,-0.73898 0.3061,-1.78406 1.04508,-1.04508 z"
       inkscape:connector-curvature="0" />
    <path
       style="fill:#000000;fill-opacity:1;fill-rule:nonzero;stroke:none"
       id="path9385"
       d="m 471.75288,329.33648 c 0.29004,1.28572 0.34546,2.60853 0.39973,3.92077 -0.009,1.73368 0.087,3.45278 0.27793,5.17479 0.10499,0.9142 0.19288,1.83012 0.25395,2.7483 0.0183,0.22136 0.0209,0.44318 0.02,0.66511 -3.3e-4,0.0833 -0.001,0.16651 -0.003,0.24975 -1.1e-4,0.0105 -6.6e-4,0.021 -10e-4,0.0315 -0.0479,1.04398 -1.52428,0.97627 -1.47641,-0.0677 l 0,0 c -8e-5,0.002 -2.9e-4,0.008 -2.3e-4,0.006 10e-4,-0.075 0.002,-0.14997 0.003,-0.22497 7.6e-4,-0.18733 -4e-4,-0.37449 -0.0168,-0.56133 -0.0595,-0.89656 -0.14574,-1.79084 -0.24821,-2.68351 -0.19446,-1.75573 -0.29467,-3.50925 -0.28567,-5.27674 -0.0497,-1.21198 -0.0964,-2.43423 -0.35685,-3.62312 -0.25347,-1.01388 1.18036,-1.37234 1.43383,-0.35846 z"
       inkscape:connector-curvature="0" />
    <path
       style="fill:#000000;fill-opacity:1;fill-rule:nonzero;stroke:none"
       id="path9387"
       d="m 465.41876,335.43816 c 1.61012,0.0534 3.20975,-0.15968 4.81116,-0.29416 1.48077,-0.17606 2.98482,-0.0677 4.46271,-0.24606 0.45765,-0.0885 0.9337,-0.15401 1.36653,-0.33776 0.31663,-0.10698 0.64903,-0.108 0.97902,-0.11084 0.11708,-6.1e-4 0.23416,10e-5 0.35121,0.003 0.0731,0.004 0.14413,7.7e-4 0.21926,8.2e-4 0.083,4e-5 0.1661,2e-5 0.24915,-1e-5 0.006,0 0.0119,-10e-6 0.0178,-2e-5 1.04507,-0.003 1.04865,1.47542 0.004,1.47796 l 0,0 c -0.007,1e-5 -0.0137,2e-5 -0.0206,2e-5 -0.0836,3e-5 -0.16719,5e-5 -0.25079,1e-5 -0.0467,-3e-5 -0.31093,-0.002 -0.25804,-0.001 -0.0998,-0.002 -0.19957,-0.003 -0.29937,-0.002 -0.1209,9.6e-4 -0.37911,0.017 -0.43396,0.002 -0.5617,0.22442 -1.16003,0.34149 -1.75509,0.43719 -1.49575,0.16497 -3.00961,0.091 -4.50779,0.25054 -1.64245,0.13786 -3.2834,0.35347 -4.93481,0.29934 -1.04507,0 -1.04507,-1.47796 0,-1.47796 z"
       inkscape:connector-curvature="0" />
    <path
       inkscape:connector-curvature="0"
       d="m 612.78306,330.45175 c -0.95857,1.31793 -2.0376,2.53406 -3.17114,3.70291 -1.33494,1.30575 -2.51503,2.75254 -3.87739,4.03055 -0.39823,0.3489 -0.81681,0.71709 -1.07636,1.18827 -0.007,0.0309 0.0227,-0.059 0.0321,-0.0892 -0.21662,1.02238 -1.66249,0.71604 -1.44587,-0.30634 l 0,0 c 0.0331,-0.11984 0.0685,-0.23638 0.13391,-0.34366 0.3471,-0.58909 0.82314,-1.09012 1.34565,-1.5276 1.34665,-1.2602 2.50494,-2.69612 3.82726,-3.98129 1.09077,-1.12334 2.12902,-2.29198 3.04945,-3.56044 0.62704,-0.83606 1.80941,0.0507 1.18236,0.88678 z"
       id="path9389"
       style="fill:#000000;fill-opacity:1;fill-rule:nonzero;stroke:none" />
    <path
       inkscape:connector-curvature="0"
       d="m 604.20023,329.42689 c 1.01094,0.71128 1.8476,1.61349 2.68937,2.50961 1.29685,1.54602 2.62077,3.06724 3.98679,4.5525 0.8824,1.03262 1.74166,2.08477 2.6106,3.12873 0.28013,0.38458 0.50864,0.80854 0.60988,1.27558 0.0299,0.13079 0.0127,0.25486 -0.005,0.38557 -0.23985,1.01718 -1.67836,0.67797 -1.43851,-0.33921 l 0,0 c -0.0102,0.0837 -0.0261,0.15738 -0.006,0.23946 -0.0611,-0.21978 -0.16268,-0.42747 -0.29577,-0.61589 -0.85338,-1.02527 -1.69794,-2.05796 -2.56253,-3.07379 -1.36234,-1.48152 -2.68541,-2.99675 -3.9762,-4.54111 -0.83264,-0.88658 -1.66452,-1.76403 -2.65716,-2.47637 -0.73898,-0.73898 0.3061,-1.78406 1.04508,-1.04508 z"
       id="path9391"
       style="fill:#000000;fill-opacity:1;fill-rule:nonzero;stroke:none" />
    <path
       inkscape:connector-curvature="0"
       d="m 608.21798,328.35117 c 0.29004,1.28572 0.34546,2.60853 0.39973,3.92077 -0.009,1.73368 0.087,3.45278 0.27793,5.17479 0.10499,0.9142 0.19288,1.83012 0.25395,2.7483 0.0183,0.22136 0.0209,0.44318 0.02,0.66511 -3.3e-4,0.0833 -10e-4,0.16651 -0.003,0.24975 -1.1e-4,0.0105 -6.6e-4,0.021 -0.001,0.0315 -0.0479,1.04398 -1.52428,0.97627 -1.47641,-0.0677 l 0,0 c -8e-5,0.002 -2.9e-4,0.008 -2.3e-4,0.006 10e-4,-0.075 0.002,-0.14997 0.003,-0.22497 7.6e-4,-0.18733 -4e-4,-0.37449 -0.0168,-0.56133 -0.0595,-0.89656 -0.14574,-1.79084 -0.24821,-2.68351 -0.19446,-1.75573 -0.29467,-3.50925 -0.28567,-5.27674 -0.0497,-1.21198 -0.0964,-2.43423 -0.35685,-3.62312 -0.25347,-1.01388 1.18036,-1.37234 1.43383,-0.35846 z"
       id="path9393"
       style="fill:#000000;fill-opacity:1;fill-rule:nonzero;stroke:none" />
    <path
       inkscape:connector-curvature="0"
       d="m 601.88386,334.45285 c 1.61012,0.0534 3.20975,-0.15968 4.81116,-0.29416 1.48077,-0.17606 2.98482,-0.0677 4.46271,-0.24606 0.45765,-0.0885 0.9337,-0.15401 1.36653,-0.33776 0.31663,-0.10698 0.64903,-0.108 0.97902,-0.11084 0.11708,-6.1e-4 0.23416,1e-4 0.35121,0.003 0.0731,0.004 0.14413,7.7e-4 0.21926,8.2e-4 0.083,4e-5 0.1661,2e-5 0.24915,-10e-6 0.006,0 0.0119,-1e-5 0.0178,-2e-5 1.04507,-0.003 1.04865,1.47542 0.004,1.47796 l 0,0 c -0.007,10e-6 -0.0137,2e-5 -0.0206,2e-5 -0.0836,3e-5 -0.16719,5e-5 -0.25079,10e-6 -0.0467,-3e-5 -0.31093,-0.002 -0.25804,-10e-4 -0.0998,-0.002 -0.19957,-0.003 -0.29937,-0.002 -0.1209,9.6e-4 -0.37911,0.017 -0.43396,0.002 -0.5617,0.22442 -1.16003,0.34149 -1.75509,0.43719 -1.49575,0.16497 -3.00961,0.091 -4.50779,0.25054 -1.64245,0.13786 -3.2834,0.35347 -4.93481,0.29934 -1.04507,0 -1.04507,-1.47796 0,-1.47796 z"
       id="path9395"
       style="fill:#000000;fill-opacity:1;fill-rule:nonzero;stroke:none" />
    <path
       inkscape:connector-curvature="0"
       d="m 397.02617,414.786 c -0.49092,2.39094 -2.12773,4.49273 -3.65251,6.58957 -1.9235,2.28805 -3.54673,4.70001 -5.37032,7.02978 -0.61738,0.89216 -0.33464,0.46362 -0.85433,1.28339 -1.06299,1.67127 -4.25967,0.55978 -3.19668,-1.11148 l 0,0 c 0.60068,-0.94168 0.27205,-0.44719 0.99389,-1.48056 1.80616,-2.30559 3.4088,-4.69491 5.31626,-6.95816 1.35986,-1.8692 2.86689,-3.73068 3.29978,-5.86476 0.48986,-1.81098 3.95378,-1.29875 3.46391,0.51222 z"
       id="path9403"
       style="fill:#000000;fill-opacity:1;fill-rule:nonzero;stroke:none" />
    <path
       inkscape:connector-curvature="0"
       d="m 412.33375,414.786 c -0.49091,2.39094 -2.12773,4.49273 -3.6525,6.58957 -1.9235,2.28805 -3.54674,4.70001 -5.37033,7.02978 -0.61738,0.89216 -0.33464,0.46362 -0.85433,1.28339 -1.06299,1.67127 -4.25966,0.55978 -3.19668,-1.11148 l 0,0 c 0.60068,-0.94168 0.27205,-0.44719 0.99389,-1.48056 1.80616,-2.30559 3.4088,-4.69491 5.31627,-6.95816 1.35987,-1.8692 2.86688,-3.73068 3.29977,-5.86476 0.48986,-1.81098 3.95379,-1.29875 3.46391,0.51222 z"
       id="path9405"
       style="fill:#000000;fill-opacity:1;fill-rule:nonzero;stroke:none" />
    <path
       style="fill:#000000;fill-opacity:1;fill-rule:nonzero;stroke:none"
       id="path9407"
       d="m 425.28632,414.786 c -0.49092,2.39094 -2.12773,4.49273 -3.6525,6.58957 -1.92351,2.28805 -3.54673,4.70001 -5.37033,7.02978 -0.61737,0.89216 -0.33463,0.46362 -0.85433,1.28339 -1.06298,1.67127 -4.25966,0.55978 -3.19667,-1.11148 l 0,0 c 0.60067,-0.94168 0.27204,-0.44719 0.99389,-1.48056 1.80616,-2.30559 3.40879,-4.69491 5.31627,-6.95816 1.35986,-1.8692 2.86688,-3.73068 3.29976,-5.86476 0.48986,-1.81098 3.95379,-1.29875 3.46391,0.51222 z"
       inkscape:connector-curvature="0" />
    <path
       inkscape:connector-curvature="0"
       d="m 439.4164,414.786 c -0.49091,2.39094 -2.12772,4.49273 -3.6525,6.58957 -1.9235,2.28805 -3.54673,4.70001 -5.37033,7.02978 -0.61737,0.89216 -0.33463,0.46362 -0.85433,1.28339 -1.06298,1.67127 -4.25966,0.55978 -3.19667,-1.11148 l 0,0 c 0.60067,-0.94168 0.27204,-0.44719 0.99389,-1.48056 1.80616,-2.30559 3.40879,-4.69491 5.31627,-6.95816 1.35986,-1.8692 2.86688,-3.73068 3.29976,-5.86476 0.48987,-1.81098 3.9538,-1.29875 3.46391,0.51222 z"
       id="path9417"
       style="fill:#000000;fill-opacity:1;fill-rule:nonzero;stroke:none" />
    <path
       style="fill:#000000;fill-opacity:1;fill-rule:nonzero;stroke:none"
       id="path9419"
       d="m 452.36897,414.786 c -0.49091,2.39094 -2.12772,4.49273 -3.6525,6.58957 -1.9235,2.28805 -3.54673,4.70001 -5.37032,7.02978 -0.61738,0.89216 -0.33464,0.46362 -0.85433,1.28339 -1.06299,1.67127 -4.25967,0.55978 -3.19668,-1.11148 l 0,0 c 0.60067,-0.94168 0.27205,-0.44719 0.99389,-1.48056 1.80616,-2.30559 3.40879,-4.69491 5.31627,-6.95816 1.35986,-1.8692 2.86688,-3.73068 3.29976,-5.86476 0.48987,-1.81098 3.9538,-1.29875 3.46391,0.51222 z"
       inkscape:connector-curvature="0" />
    <path
       style="fill:#000000;fill-opacity:1;fill-rule:nonzero;stroke:none"
       id="path9421"
       d="m 467.67656,414.786 c -0.49091,2.39094 -2.12773,4.49273 -3.6525,6.58957 -1.9235,2.28805 -3.54674,4.70001 -5.37033,7.02978 -0.61738,0.89216 -0.33464,0.46362 -0.85432,1.28339 -1.063,1.67127 -4.25968,0.55978 -3.19669,-1.11148 l 0,0 c 0.60067,-0.94168 0.27205,-0.44719 0.9939,-1.48056 1.80616,-2.30559 3.40879,-4.69491 5.31626,-6.95816 1.35986,-1.8692 2.86688,-3.73068 3.29976,-5.86476 0.48988,-1.81098 3.9538,-1.29875 3.46392,0.51222 z"
       inkscape:connector-curvature="0" />
    <path
       inkscape:connector-curvature="0"
       d="m 480.62913,414.786 c -0.49091,2.39094 -2.12773,4.49273 -3.6525,6.58957 -1.9235,2.28805 -3.54674,4.70001 -5.37033,7.02978 -0.61738,0.89216 -0.33464,0.46362 -0.85433,1.28339 -1.06299,1.67127 -4.25966,0.55978 -3.19668,-1.11148 l 0,0 c 0.60068,-0.94168 0.27205,-0.44719 0.9939,-1.48056 1.80616,-2.30559 3.40879,-4.69491 5.31626,-6.95816 1.35987,-1.8692 2.86688,-3.73068 3.29977,-5.86476 0.48986,-1.81098 3.95379,-1.29875 3.46391,0.51222 z"
       id="path9423"
       style="fill:#000000;fill-opacity:1;fill-rule:nonzero;stroke:none" />
    <path
       inkscape:connector-curvature="0"
       d="m 494.75921,414.786 c -0.49092,2.39094 -2.12774,4.49273 -3.6525,6.58957 -1.92351,2.28805 -3.54674,4.70001 -5.37034,7.02978 -0.61737,0.89216 -0.33463,0.46362 -0.85432,1.28339 -1.06299,1.67127 -4.25967,0.55978 -3.19668,-1.11148 l 0,0 c 0.60067,-0.94168 0.27204,-0.44719 0.9939,-1.48056 1.80616,-2.30559 3.40879,-4.69491 5.31626,-6.95816 1.35986,-1.8692 2.86688,-3.73068 3.29976,-5.86476 0.48987,-1.81098 3.95379,-1.29875 3.46392,0.51222 z"
       id="path9425"
       style="fill:#000000;fill-opacity:1;fill-rule:nonzero;stroke:none" />
    <path
       style="fill:#000000;fill-opacity:1;fill-rule:nonzero;stroke:none"
       id="path9427"
       d="m 507.71177,414.786 c -0.49091,2.39094 -2.12772,4.49273 -3.65249,6.58957 -1.9235,2.28805 -3.54674,4.70001 -5.37034,7.02978 -0.61737,0.89216 -0.33463,0.46362 -0.85432,1.28339 -1.06299,1.67127 -4.25967,0.55978 -3.19668,-1.11148 l 0,0 c 0.60067,-0.94168 0.27204,-0.44719 0.9939,-1.48056 1.80616,-2.30559 3.40878,-4.69491 5.31626,-6.95816 1.35986,-1.8692 2.86688,-3.73068 3.29976,-5.86476 0.48987,-1.81098 3.9538,-1.29875 3.46391,0.51222 z"
       inkscape:connector-curvature="0" />
    <path
       style="fill:#000000;fill-opacity:1;fill-rule:nonzero;stroke:none"
       id="path9429"
       d="m 523.01936,414.786 c -0.49092,2.39094 -2.12773,4.49273 -3.6525,6.58957 -1.9235,2.28805 -3.54674,4.70001 -5.37033,7.02978 -0.61738,0.89216 -0.33463,0.46362 -0.85432,1.28339 -1.063,1.67127 -4.25968,0.55978 -3.19668,-1.11148 l 0,0 c 0.60066,-0.94168 0.27204,-0.44719 0.99389,-1.48056 1.80616,-2.30559 3.40879,-4.69491 5.31626,-6.95816 1.35986,-1.8692 2.86689,-3.73068 3.29976,-5.86476 0.48988,-1.81098 3.9538,-1.29875 3.46392,0.51222 z"
       inkscape:connector-curvature="0" />
    <path
       inkscape:connector-curvature="0"
       d="m 535.97194,414.786 c -0.49092,2.39094 -2.12774,4.49273 -3.65251,6.58957 -1.9235,2.28805 -3.54674,4.70001 -5.37033,7.02978 -0.61738,0.89216 -0.33463,0.46362 -0.85432,1.28339 -1.063,1.67127 -4.25968,0.55978 -3.19668,-1.11148 l 0,0 c 0.60067,-0.94168 0.27204,-0.44719 0.99389,-1.48056 1.80616,-2.30559 3.4088,-4.69491 5.31626,-6.95816 1.35986,-1.8692 2.86689,-3.73068 3.29977,-5.86476 0.48987,-1.81098 3.95379,-1.29875 3.46392,0.51222 z"
       id="path9431"
       style="fill:#000000;fill-opacity:1;fill-rule:nonzero;stroke:none" />
    <path
       style="fill:#000000;fill-opacity:1;fill-rule:nonzero;stroke:none"
       id="path9433"
       d="m 550.10202,414.786 c -0.49092,2.39094 -2.12774,4.49273 -3.65251,6.58957 -1.9235,2.28805 -3.54674,4.70001 -5.37032,7.02978 -0.61739,0.89216 -0.33464,0.46362 -0.85433,1.28339 -1.063,1.67127 -4.25967,0.55978 -3.19668,-1.11148 l 0,0 c 0.60067,-0.94168 0.27204,-0.44719 0.99389,-1.48056 1.80616,-2.30559 3.4088,-4.69491 5.31626,-6.95816 1.35987,-1.8692 2.86689,-3.73068 3.29977,-5.86476 0.48987,-1.81098 3.95379,-1.29875 3.46392,0.51222 z"
       inkscape:connector-curvature="0" />
    <path
       inkscape:connector-curvature="0"
       d="m 563.05459,414.786 c -0.49092,2.39094 -2.12774,4.49273 -3.6525,6.58957 -1.92351,2.28805 -3.54674,4.70001 -5.37034,7.02978 -0.61737,0.89216 -0.33463,0.46362 -0.85432,1.28339 -1.06299,1.67127 -4.25967,0.55978 -3.19667,-1.11148 l 0,0 c 0.60066,-0.94168 0.27203,-0.44719 0.99389,-1.48056 1.80616,-2.30559 3.40879,-4.69491 5.31626,-6.95816 1.35986,-1.8692 2.86689,-3.73068 3.29976,-5.86476 0.48987,-1.81098 3.95379,-1.29875 3.46392,0.51222 z"
       id="path9435"
       style="fill:#000000;fill-opacity:1;fill-rule:nonzero;stroke:none" />
    <path
       inkscape:connector-curvature="0"
       d="m 578.36217,414.786 c -0.49092,2.39094 -2.12773,4.49273 -3.6525,6.58957 -1.9235,2.28805 -3.54674,4.70001 -5.37033,7.02978 -0.61737,0.89216 -0.33463,0.46362 -0.85433,1.28339 -1.06298,1.67127 -4.25967,0.55978 -3.19667,-1.11148 l 0,0 c 0.60067,-0.94168 0.27204,-0.44719 0.99389,-1.48056 1.80616,-2.30559 3.40879,-4.69491 5.31626,-6.95816 1.35986,-1.8692 2.86689,-3.73068 3.29977,-5.86476 0.48987,-1.81098 3.95378,-1.29875 3.46391,0.51222 z"
       id="path9437"
       style="fill:#000000;fill-opacity:1;fill-rule:nonzero;stroke:none" />
    <path
       style="fill:#000000;fill-opacity:1;fill-rule:nonzero;stroke:none"
       id="path9439"
       d="m 591.31474,414.786 c -0.49092,2.39094 -2.12773,4.49273 -3.6525,6.58957 -1.9235,2.28805 -3.54674,4.70001 -5.37033,7.02978 -0.61737,0.89216 -0.33463,0.46362 -0.85432,1.28339 -1.06299,1.67127 -4.25968,0.55978 -3.19668,-1.11148 l 0,0 c 0.60066,-0.94168 0.27204,-0.44719 0.99389,-1.48056 1.80616,-2.30559 3.40879,-4.69491 5.31626,-6.95816 1.35986,-1.8692 2.86689,-3.73068 3.29977,-5.86476 0.48987,-1.81098 3.95379,-1.29875 3.46391,0.51222 z"
       inkscape:connector-curvature="0" />
    <path
       style="fill:#000000;fill-opacity:1;fill-rule:nonzero;stroke:none"
       id="path9441"
       d="m 604.25027,414.786 c -0.49092,2.39094 -2.12774,4.49273 -3.65251,6.58957 -1.9235,2.28805 -3.54674,4.70001 -5.37033,7.02978 -0.61738,0.89216 -0.33463,0.46362 -0.85432,1.28339 -1.063,1.67127 -4.25968,0.55978 -3.19668,-1.11148 l 0,0 c 0.60067,-0.94168 0.27204,-0.44719 0.99389,-1.48056 1.80616,-2.30559 3.4088,-4.69491 5.31626,-6.95816 1.35986,-1.8692 2.86689,-3.73068 3.29977,-5.86476 0.48987,-1.81098 3.95379,-1.29875 3.46392,0.51222 z"
       inkscape:connector-curvature="0" />
    <path
       inkscape:connector-curvature="0"
       d="m 618.38035,414.786 c -0.49092,2.39094 -2.12774,4.49273 -3.65251,6.58957 -1.9235,2.28805 -3.54674,4.70001 -5.37032,7.02978 -0.61739,0.89216 -0.33464,0.46362 -0.85433,1.28339 -1.063,1.67127 -4.25967,0.55978 -3.19668,-1.11148 l 0,0 c 0.60067,-0.94168 0.27204,-0.44719 0.99389,-1.48056 1.80616,-2.30559 3.4088,-4.69491 5.31626,-6.95816 1.35987,-1.8692 2.86689,-3.73068 3.29977,-5.86476 0.48987,-1.81098 3.95379,-1.29875 3.46392,0.51222 z"
       id="path9443"
       style="fill:#000000;fill-opacity:1;fill-rule:nonzero;stroke:none" />
    <path
       style="fill:#000000;fill-opacity:1;fill-rule:nonzero;stroke:none"
       id="path9445"
       d="m 631.33292,414.786 c -0.49092,2.39094 -2.12774,4.49273 -3.6525,6.58957 -1.92351,2.28805 -3.54674,4.70001 -5.37034,7.02978 -0.61737,0.89216 -0.33463,0.46362 -0.85432,1.28339 -1.06299,1.67127 -4.25967,0.55978 -3.19667,-1.11148 l 0,0 c 0.60066,-0.94168 0.27203,-0.44719 0.99389,-1.48056 1.80616,-2.30559 3.40879,-4.69491 5.31626,-6.95816 1.35986,-1.8692 2.86689,-3.73068 3.29976,-5.86476 0.48987,-1.81098 3.95379,-1.29875 3.46392,0.51222 z"
       inkscape:connector-curvature="0" />
    <path
       style="fill:#000000;fill-opacity:1;fill-rule:nonzero;stroke:none"
       id="path9447"
       d="m 646.6405,414.786 c -0.49092,2.39094 -2.12773,4.49273 -3.6525,6.58957 -1.9235,2.28805 -3.54674,4.70001 -5.37033,7.02978 -0.61737,0.89216 -0.33463,0.46362 -0.85433,1.28339 -1.06298,1.67127 -4.25967,0.55978 -3.19667,-1.11148 l 0,0 c 0.60067,-0.94168 0.27204,-0.44719 0.99389,-1.48056 1.80616,-2.30559 3.40879,-4.69491 5.31626,-6.95816 1.35986,-1.8692 2.86689,-3.73068 3.29977,-5.86476 0.48987,-1.81098 3.95378,-1.29875 3.46391,0.51222 z"
       inkscape:connector-curvature="0" />
    <path
       inkscape:connector-curvature="0"
       d="m 659.59307,414.786 c -0.49092,2.39094 -2.12773,4.49273 -3.6525,6.58957 -1.9235,2.28805 -3.54674,4.70001 -5.37033,7.02978 -0.61737,0.89216 -0.33463,0.46362 -0.85432,1.28339 -1.06299,1.67127 -4.25968,0.55978 -3.19668,-1.11148 l 0,0 c 0.60066,-0.94168 0.27204,-0.44719 0.99389,-1.48056 1.80616,-2.30559 3.40879,-4.69491 5.31626,-6.95816 1.35986,-1.8692 2.86689,-3.73068 3.29977,-5.86476 0.48987,-1.81098 3.95379,-1.29875 3.46391,0.51222 z"
       id="path9449"
       style="fill:#000000;fill-opacity:1;fill-rule:nonzero;stroke:none" />
  </g>
</svg>
