<?xml version="1.0" encoding="UTF-8" standalone="no"?>
<!-- Created with Inkscape (http://www.inkscape.org/) -->

<svg
   xmlns:dc="http://purl.org/dc/elements/1.1/"
   xmlns:cc="http://creativecommons.org/ns#"
   xmlns:rdf="http://www.w3.org/1999/02/22-rdf-syntax-ns#"
   xmlns:svg="http://www.w3.org/2000/svg"
   xmlns="http://www.w3.org/2000/svg"
   xmlns:sodipodi="http://sodipodi.sourceforge.net/DTD/sodipodi-0.dtd"
   xmlns:inkscape="http://www.inkscape.org/namespaces/inkscape"
   width="299.59262"
   height="302.02176"
   id="svg4112"
   version="1.1"
   inkscape:version="0.48.0 r9654"
   sodipodi:docname="New document 6">
  <defs
     id="defs4114" />
  <sodipodi:namedview
     inkscape:document-units="mm"
     pagecolor="#ffffff"
     bordercolor="#666666"
     borderopacity="1.0"
     inkscape:pageopacity="0.0"
     inkscape:pageshadow="2"
     inkscape:zoom="0.7176508"
     inkscape:cx="240.51676"
     inkscape:cy="35.116975"
     inkscape:current-layer="layer1"
     id="namedview4116"
     showgrid="false"
     fit-margin-top="0"
     fit-margin-left="0"
     fit-margin-right="0"
     fit-margin-bottom="0"
     inkscape:window-width="1280"
     inkscape:window-height="752"
     inkscape:window-x="0"
     inkscape:window-y="0"
     inkscape:window-maximized="0" />
  <metadata
     id="metadata4118">
    <rdf:RDF>
      <cc:Work
         rdf:about="">
        <dc:format>image/svg+xml</dc:format>
        <dc:type
           rdf:resource="http://purl.org/dc/dcmitype/StillImage" />
        <dc:title></dc:title>
      </cc:Work>
    </rdf:RDF>
  </metadata>
  <g
     inkscape:label="Layer 1"
     inkscape:groupmode="layer"
     id="layer1"
     transform="translate(-285.66433,-105.14246)">
    <path
       style="fill:#000000;fill-opacity:1;fill-rule:nonzero;stroke:none"
       id="path4629"
       d="m 330.38688,111.68285 c -1.40021,3.88168 -2.90986,7.72198 -4.28474,11.61319 -0.88211,2.94961 -2.06357,5.80052 -3.191,8.66321 -0.0675,0.17021 -0.0193,0.50657 -0.20235,0.51064 -1.35735,0.0301 -2.8786,0.26724 -4.05173,-0.41619 -0.71299,-0.41536 1.16221,-7.46446 1.38755,-8.3281 1.2446,-4.82454 3.06372,-9.37304 5.60439,-13.65087 1.08577,-1.93757 2.40704,-3.61877 4.41792,-4.61754 1.33371,-0.60258 2.08939,-0.29165 3.2696,0.52306 2.13012,3.2964 4.21182,6.645 6.17639,10.04826 2.39274,3.72346 4.3706,7.67858 6.15581,11.72019 1.19121,2.70527 -2.63461,4.3899 -3.82583,1.68463 l 0,0 c -1.71508,-3.90816 -3.64151,-7.72056 -5.95169,-11.3172 -1.79815,-3.12436 -3.7823,-6.13036 -5.58217,-9.25331 0.42092,0.21088 1.23999,0.56841 1.54522,0.37332 -1.30336,0.51026 -1.87932,1.89307 -2.61348,2.97732 -2.35011,3.93549 -4.0035,8.12562 -5.15197,12.5702 -0.87245,3.32508 -0.32164,1.10351 -1.0285,4.24684 -0.53214,2.36635 -0.59926,1.98416 -4.23779,1.89934 -0.1801,-0.004 0.13274,-0.33497 0.19911,-0.50245 1.10947,-2.81698 2.27507,-5.62089 3.13927,-8.52473 1.43365,-4.05288 2.98611,-8.06119 4.48701,-12.0893 1.32193,-2.64385 5.06091,-0.77436 3.73898,1.86949 z"
       inkscape:connector-curvature="0" />
    <path
       style="fill:#000000;fill-opacity:1;fill-rule:nonzero;stroke:none"
       id="path4631"
       d="m 331.2121,110.17183 c 1.52565,9.03853 1.59489,18.29049 1.98093,27.43132 1.35321,31.52161 1.8566,63.06743 2.45994,94.60951 0.74956,36.43988 -0.0853,72.88306 -1.13648,109.30726 -0.53507,19.09194 -0.23691,9.77978 -0.88387,27.93682 -0.10527,2.95405 -4.28293,2.80517 -4.17766,-0.14887 l 0,0 c 0.64604,-18.12645 0.3481,-8.8237 0.88297,-27.90856 1.04944,-36.35735 1.88351,-72.73368 1.13551,-109.1067 -0.60277,-31.50994 -1.10523,-63.02363 -2.45699,-94.51311 -0.37239,-8.82122 -0.47317,-17.73063 -1.82657,-26.46895 -0.8052,-2.84414 3.21702,-3.98286 4.02222,-1.13872 z"
       inkscape:connector-curvature="0" />
    <path
       inkscape:connector-curvature="0"
       d="m 578.71402,351.87012 c -3.8855,-1.38958 -7.72992,-2.88871 -11.62488,-4.25294 -2.95201,-0.87403 -5.80614,-2.04769 -8.67191,-3.16728 -0.17039,-0.067 -0.50662,-0.0179 -0.51119,-0.20095 -0.0338,-1.35726 -0.27512,-2.87785 0.4051,-4.05285 0.41341,-0.71413 7.46761,1.14177 8.33187,1.36475 4.82792,1.23139 9.38139,3.03805 13.66615,5.567 1.94054,1.08047 3.62535,2.39713 4.62962,4.40527 0.60623,1.33206 0.29737,2.08858 -0.51411,3.27102 -3.29056,2.13913 -6.63345,4.22999 -10.03132,6.20387 -3.71689,2.40292 -7.66659,4.3916 -11.70329,6.18786 -2.702,1.19861 -4.3971,-2.62258 -1.6951,-3.8212 l 0,0 c 3.90345,-1.72577 7.71056,-3.66263 11.30087,-5.98264 3.11942,-1.8067 6.11998,-3.79907 9.23799,-5.60748 -0.20972,0.4215 -0.56501,1.24154 -0.36908,1.54624 -0.51383,-1.30196 -1.89821,-1.87414 -2.98447,-2.60532 -3.9419,-2.33933 -8.13654,-3.98125 -12.58425,-5.11755 -3.32746,-0.86335 -1.10439,-0.31862 -4.24964,-1.01687 -2.3678,-0.52566 -1.98579,-0.59383 -1.91093,-4.23258 0.003,-0.18011 0.33533,0.13183 0.50299,0.19774 2.82001,1.10175 5.6271,2.25967 8.53329,3.11592 4.05679,1.42255 8.06933,2.96404 12.10154,4.45391 2.64746,1.31468 0.78821,5.05877 -1.85925,3.74408 z"
       id="path4635"
       style="fill:#000000;fill-opacity:1;fill-rule:nonzero;stroke:none" />
    <path
       inkscape:connector-curvature="0"
       d="m 580.22729,352.6912 c -9.03432,1.55038 -18.28605,1.64495 -27.42579,2.056 -31.51779,1.43949 -63.06212,2.02922 -94.60243,2.71889 -36.43769,0.84929 -72.88302,0.11418 -109.30996,-0.8373 -19.09333,-0.48281 -9.78039,-0.21014 -27.93913,-0.8074 -2.95433,-0.0972 -2.81688,-4.27523 0.13743,-4.17805 l 0,0 c 18.12815,0.59642 8.82462,0.32395 27.91087,0.80658 36.36009,0.94992 72.73857,1.68443 109.1094,0.83687 31.50818,-0.68901 63.02037,-1.27772 94.50604,-2.71567 8.82016,-0.39653 17.72926,-0.5217 26.46385,-1.89901 2.84192,-0.81298 3.99165,3.20611 1.14972,4.01909 z"
       id="path4637"
       style="fill:#000000;fill-opacity:1;fill-rule:nonzero;stroke:none" />
    <path
       style="fill:#000000;fill-opacity:1;fill-rule:nonzero;stroke:none"
       id="path4639"
       d="m 361.72257,345.99545 c 0.67156,3.90667 0.91438,7.86865 1.10808,11.82255 0.0673,1.55747 0.10525,3.1159 0.14025,4.67434 0.0663,2.95518 -4.11295,3.04894 -4.17925,0.0938 l 0,0 c -0.0341,-1.52166 -0.071,-3.04331 -0.13632,-4.56402 -0.18275,-3.74737 -0.40859,-7.50223 -1.03189,-11.20681 -0.57971,-2.89852 3.51942,-3.71835 4.09913,-0.81983 z"
       inkscape:connector-curvature="0" />
    <path
       style="fill:#000000;fill-opacity:1;fill-rule:nonzero;stroke:none"
       id="path4641"
       d="m 520.5608,345.30394 c 1.47247,3.54536 1.95819,7.37739 2.34968,11.16573 0.17342,2.07952 0.0992,1.09489 0.22748,2.95351 0.20309,2.94894 -3.96734,3.23615 -4.17042,0.28721 l 0,0 c -0.12176,-1.77238 -0.0514,-0.8345 -0.21545,-2.81331 -0.33617,-3.28973 -0.73434,-6.61631 -1.93027,-9.72365 -1.32193,-2.64386 2.41705,-4.51335 3.73898,-1.86949 z"
       inkscape:connector-curvature="0" />
    <path
       style="fill:none;stroke:#000000;stroke-width:2.77086616;stroke-linecap:butt;stroke-linejoin:miter;stroke-miterlimit:4;stroke-opacity:1;stroke-dasharray:2.77086614, 8.31259843;stroke-dashoffset:0"
       d="M 519.75139,352.53915 518.35795,202.04812"
       id="path4643"
       inkscape:connector-curvature="0"
       sodipodi:nodetypes="cc" />
    <path
       style="fill:#000000;fill-opacity:1;fill-rule:nonzero;stroke:none"
       id="path4647"
       d="m 359.6661,350.34472 c 2.26204,-0.51513 4.53431,-1.16787 6.57531,-2.28784 1.3608,-0.82575 2.81698,-1.46986 4.20861,-2.24291 3.22099,-1.91444 6.38923,-3.88692 9.68127,-5.68099 3.53077,-1.81388 6.88573,-3.93782 10.2425,-6.04889 3.58406,-2.29026 7.25049,-4.45074 10.78621,-6.81589 3.44488,-2.22272 6.72761,-4.67668 10.10617,-6.9954 2.29424,-1.65169 4.68984,-3.14654 6.92288,-4.88279 2.60751,-1.69881 4.96958,-3.7313 7.48675,-5.55038 2.14357,-1.32292 4.06394,-2.94785 5.93229,-4.62667 2.44048,-2.22965 4.68222,-4.66334 7.1675,-6.8426 2.52818,-1.94574 4.99841,-3.96552 7.54177,-5.89503 2.7147,-2.06572 5.19546,-4.41201 7.65616,-6.76794 2.76392,-2.82983 6.29433,-4.70353 9.24808,-7.31333 2.57818,-2.10512 4.54887,-4.69558 6.55748,-7.31615 2.43016,-2.83838 4.65465,-5.85851 7.13968,-8.64711 1.37984,-1.80506 2.98736,-3.54569 3.95115,-5.62682 0.99864,-2.15086 2.35872,-4.10407 3.82027,-5.96128 1.4117,-1.8135 2.58237,-3.78711 3.89163,-5.67121 1.50552,-1.8766 2.77766,-3.91351 4.15145,-5.8846 0.70472,-1.54033 2.35938,-2.35414 3.2148,-3.73878 1.14102,-1.90435 2.70429,-3.5098 3.92544,-5.35176 1.1912,-1.40817 2.30316,-2.87875 3.58371,-4.20739 1.32223,-1.57683 2.48677,-3.27424 3.68503,-4.9478 0.99934,-1.50834 1.96272,-3.03376 2.9364,-4.56257 0.57768,-1.33228 1.56814,-2.43277 2.40135,-3.60701 0.37848,-0.54204 0.90578,-1.31285 0.96738,-1.72457 0.61913,-1.34535 1.37077,-2.60529 2.07215,-3.90974 0.31453,-0.59458 0.61974,-1.1941 0.90904,-1.80135 3.91791,1.24667 4.23415,0.51178 3.74366,3.35583 -0.47888,2.59091 -1.01371,5.14244 -1.89662,7.62985 -1.22394,3.15829 -2.50725,6.29582 -3.77271,9.44002 -1.13099,3.35079 -2.31974,6.67316 -3.61174,9.96571 -1.33444,3.0103 -2.67056,6.02045 -4.34736,8.85776 -1.61028,2.63877 -3.08918,5.35764 -4.69464,7.99647 -1.49584,2.4085 -2.82918,4.90697 -4.19934,7.3872 -1.02239,2.23844 -2.1086,4.44714 -3.1394,6.68424 -0.91409,1.90008 -1.90972,3.69594 -3.04644,5.47514 -1.35462,2.05668 -2.67616,4.13511 -4.06476,6.17107 -1.01258,1.37218 -1.85764,2.83706 -2.96233,4.1396 -1.28393,1.64361 -2.39816,3.40138 -3.74201,4.99942 -1.22097,1.01924 -1.9671,2.3897 -3.04205,3.53354 -1.26082,1.41979 -2.51899,2.82294 -3.5644,4.41034 -1.49943,1.86823 -3.46506,3.25644 -5.18536,4.91636 -2.27502,1.82446 -4.51581,3.67759 -6.51966,5.80108 -1.32244,1.44395 -3.01346,2.42184 -4.44631,3.73737 -1.27749,0.7545 -2.4871,1.60985 -3.73967,2.4057 -2.50961,1.66063 -5.31817,2.81017 -8.07493,3.9913 -1.91786,1.20057 -4.11382,1.89569 -5.98093,3.1667 -1.51264,0.90589 -3.07941,1.6961 -4.67825,2.43806 -2.72053,1.08321 -5.37185,2.32727 -8.05166,3.50712 -2.78371,1.03768 -5.48957,2.26415 -7.93379,3.96115 -1.76408,1.23519 -3.68212,2.18105 -5.77247,2.69581 -1.37033,0.64207 -2.79315,1.12723 -4.10142,1.91201 -2.14258,1.4071 -4.53589,2.26953 -6.85858,3.30537 -1.63737,0.71592 -3.21869,1.54405 -4.71922,2.51977 -1.21306,0.96373 -2.5556,1.64885 -4.05013,2.03786 -0.74678,0.10008 -1.83013,0.7872 -2.90661,1.37956 -1.86804,0.76905 -3.5155,1.96403 -5.28617,2.92259 -1.32776,0.55213 -2.56565,1.14961 -3.81844,1.83451 -1.58149,0.64777 -3.11206,1.40794 -4.63532,2.18905 -1.60004,1.05994 -3.36015,1.82232 -5.00531,2.80178 -1.34069,0.56612 -2.54375,1.32934 -3.72441,2.17754 -0.68139,0.50655 -1.35081,1.02987 -1.99835,1.57919 -0.38302,0.36986 -1.21677,0.66909 -1.93914,0.67095 0.7132,-5.4e-4 1.27218,-0.61919 0.98051,-0.0278 0.0155,0.0156 0.068,-0.21175 0.0815,-0.26492 -0.59858,2.89468 -4.69228,2.04815 -4.09369,-0.84653 l 0,0 c 0.0644,-0.26257 0.1489,-0.5179 0.27369,-0.75893 0.61268,-1.20063 1.33643,-1.97338 2.7565,-2.28216 0.87016,0.003 -1.82324,1.04952 -0.76171,0.31997 0.73982,-0.62626 1.50299,-1.22482 2.28307,-1.80008 1.27072,-0.89233 2.57266,-1.76056 4.00826,-2.36197 1.72289,-1.0201 3.55327,-1.83159 5.23348,-2.92777 1.50127,-0.76789 3.02122,-1.5141 4.5741,-2.15705 1.26331,-0.64234 2.48454,-1.31892 3.81316,-1.83169 1.76695,-0.93039 3.38575,-2.15352 5.24742,-2.9016 1.25593,-0.68678 2.56083,-1.46863 3.96594,-1.78524 1.05707,-0.15415 1.88789,-0.91925 2.74487,-1.48607 1.68989,-1.07295 3.45008,-2.02667 5.28541,-2.82419 2.185,-0.95949 4.4282,-1.76154 6.43532,-3.08863 1.68247,-0.97034 3.46795,-1.66863 5.27106,-2.37782 1.5955,-0.32462 3.00446,-1.18265 4.34772,-2.06781 2.67285,-1.82465 5.5788,-3.23015 8.61833,-4.3428 2.65453,-1.16872 5.2812,-2.40179 7.97656,-3.47317 1.4039,-0.65139 2.78036,-1.33573 4.11432,-2.12121 2.10246,-1.38834 4.48521,-2.26219 6.6602,-3.53497 2.5592,-1.09304 5.17303,-2.15089 7.50156,-3.69155 1.04963,-0.64208 1.99563,-1.45886 3.13686,-1.94758 1.36898,-1.24698 2.94156,-2.20749 4.2389,-3.53411 2.05997,-2.14888 4.29497,-4.1029 6.6462,-5.92842 1.50568,-1.45022 3.16501,-2.70954 4.60147,-4.21517 1.20732,-1.81424 2.62929,-3.44569 4.09328,-5.05752 1.09264,-0.90959 1.58622,-2.47886 2.82081,-3.29428 1.38983,-1.58703 2.42787,-3.43516 3.78583,-5.04986 1.06364,-1.10292 1.65777,-2.56183 2.64516,-3.73219 1.36997,-1.99819 2.6642,-4.04398 3.99531,-6.06614 1.03779,-1.61712 1.95994,-3.22573 2.77021,-4.97036 1.07386,-2.32979 2.20292,-4.63044 3.27764,-6.95742 1.40211,-2.53328 2.76511,-5.08639 4.29292,-7.5479 1.61252,-2.61102 3.05458,-5.33317 4.66568,-7.94847 1.57575,-2.63457 2.78716,-5.45574 4.0497,-8.24947 1.29683,-3.3037 2.48166,-6.63987 3.62512,-9.99939 1.24653,-3.0966 2.51278,-6.18604 3.71796,-9.29643 0.8372,-2.2786 1.26544,-4.63586 1.72623,-7.01223 0.0444,-0.18141 0.11127,-0.35875 0.13315,-0.54422 0.0337,-0.28578 -0.25304,-0.82995 0.0329,-0.86267 4.44979,-0.50915 4.60939,-0.78119 3.97635,0.62965 -0.32234,0.67544 -0.66019,1.34334 -1.0113,2.00431 -0.068,0.12618 -2.15631,4.09037 -1.66339,2.79483 -0.28724,1.24576 -0.92479,2.28035 -1.67056,3.30882 -0.80648,1.09959 -1.71526,2.14075 -2.26333,3.40407 -1.01622,1.59068 -2.0217,3.1737 -3.06192,4.74815 -1.3263,1.85186 -2.61343,3.7362 -4.11183,5.45379 -1.14248,1.10208 -2.01268,2.44935 -3.0938,3.61076 -1.27618,1.85843 -2.80331,3.53503 -3.99767,5.45508 -0.99655,1.30342 -2.3115,2.26471 -3.17532,3.68313 -1.37399,1.9699 -2.64733,4.00643 -4.15066,5.88346 -1.36518,1.95353 -2.5739,4.01131 -4.05234,5.88677 -1.29572,1.59827 -2.45179,3.32293 -3.33145,5.18696 -1.20419,2.39968 -2.90754,4.51393 -4.59655,6.58632 -2.43048,2.69168 -4.55796,5.65779 -6.93448,8.39971 -2.17458,2.837 -4.34688,5.625 -7.12072,7.91751 -2.92949,2.54808 -6.34514,4.45989 -9.11192,7.18863 -2.57641,2.46598 -5.17704,4.91798 -8.02037,7.07864 -2.46751,1.87181 -4.86457,3.83021 -7.3197,5.71425 -2.48124,2.15313 -4.68075,4.60611 -7.12361,6.80376 -1.98153,1.77713 -4.01641,3.50276 -6.2843,4.90985 -2.48483,1.7761 -4.78942,3.80375 -7.36503,5.45946 -2.30129,1.78135 -4.75488,3.33326 -7.11961,5.02642 -3.39268,2.32835 -6.68881,4.79318 -10.14879,7.02426 -3.57007,2.38399 -7.26577,4.57055 -10.88426,6.87945 -3.431,2.15591 -6.85942,4.32597 -10.46692,6.18041 -3.28618,1.79082 -6.44381,3.76739 -9.66387,5.67145 -1.4063,0.77018 -2.86815,1.43074 -4.2398,2.25993 -2.36197,1.26075 -4.93722,2.08715 -7.548,2.66522 -2.86767,0.71692 -3.88154,-3.33857 -1.01388,-4.05549 z"
       inkscape:connector-curvature="0" />
    <path
       style="fill:#000000;fill-opacity:1;fill-rule:nonzero;stroke:none"
       id="path4667"
       d="m 350.32388,402.91647 c 1.95667,-0.77226 3.18748,-2.17364 4.31618,-3.4875 1.90009,-2.52082 3.73971,-5.0632 5.45319,-7.64953 1.39734,-2.30458 2.73689,-4.62971 3.81373,-7.01903 0.95279,-1.76024 1.38181,-3.6099 1.92129,-5.44264 0.40715,-1.07397 0.64981,-2.16633 0.77919,-3.2722 0.0732,-0.73327 0.0735,-1.46855 0.0733,-2.2032 -8.7e-4,-0.44239 -0.005,-0.88478 -0.008,-1.32718 -5.7e-4,-0.1232 -8.7e-4,-0.24639 -0.002,-0.3696 1.51538,1.12733 0.88799,0.75525 0.12623,0.84669 -0.82671,0.23954 -1.36416,0.86649 -1.88679,1.35392 -1.25325,1.29973 -1.97355,2.82091 -2.70232,4.29492 -0.78557,1.76791 -1.35846,3.57168 -1.84564,5.3905 -0.57213,2.48827 -0.67866,5.01231 -0.76475,7.52731 -0.0557,2.10331 -0.0514,4.20707 -0.0475,6.31065 0.003,1.30639 0.007,2.61279 0.009,3.91918 0.009,-0.1801 -0.0312,0.72233 0.0457,0.53826 0.0134,-0.0319 -0.0343,-0.0799 0.003,-0.0997 0.0579,-0.0303 0.13358,0.0439 0.20554,0.048 0.46129,0.10082 0.95279,0.12384 1.43367,0.13886 0.27673,7.1e-4 0.0984,0.004 0.37258,-0.004 0.92679,-0.14005 -0.87395,0.58131 -0.29229,0.0206 0.98764,-0.95179 2.90245,0.03 1.91481,0.98186 l 0,0 c -0.38196,0.36797 -0.85616,0.70652 -1.57676,0.66333 -0.15006,0.004 -0.35914,0.01 -0.52871,0.002 -0.79524,-0.027 -1.60232,-0.0825 -2.3442,-0.29955 -1.13517,-0.43448 -1.73931,-1.05609 -1.60408,-1.98794 -0.003,-1.30637 -0.006,-2.61275 -0.009,-3.91914 -0.004,-2.11768 -0.008,-4.23555 0.0482,-6.35298 0.0896,-2.60514 0.20429,-5.21953 0.80519,-7.7962 0.51129,-1.89936 1.10995,-3.78373 1.93623,-5.62916 0.81192,-1.63733 1.62649,-3.31893 3.04897,-4.75091 0.82726,-0.76948 1.69693,-1.61508 3.05214,-1.93612 1.56963,-0.25865 1.66834,-0.18891 2.97024,0.73537 4.8e-4,0.12238 8.7e-4,0.24476 0.002,0.36714 0.003,0.44441 0.006,0.88882 0.008,1.33326 1.4e-4,0.78056 -0.002,1.56178 -0.0814,2.34079 -0.13882,1.17317 -0.39091,2.33375 -0.82061,3.4735 -0.55953,1.88793 -1.00395,3.794 -1.98295,5.60821 -1.11194,2.45635 -2.48074,4.8499 -3.9243,7.21838 -1.75102,2.64126 -3.62732,5.23907 -5.57589,7.8109 -1.37409,1.58205 -2.89197,3.21351 -5.28193,4.11275 -1.49899,0.52685 -2.55893,-0.96334 -1.05994,-1.4902 z"
       inkscape:connector-curvature="0" />
    <path
       style="fill:#000000;fill-opacity:1;fill-rule:nonzero;stroke:none"
       id="path4669"
       d="m 371.88761,398.32373 c -0.90684,0.99296 -1.41551,2.1139 -1.7616,3.25942 -0.12366,0.72477 0.42022,0.98029 1.29873,1.1822 1.0585,0.0936 1.48082,-0.24233 2.14666,-0.72729 0.7195,-0.60866 0.83062,-1.39348 0.93614,-2.15193 0.0139,-0.16578 0.0301,-0.33147 0.0416,-0.49735 0.005,-0.0715 0.1505,-1.25405 -0.0148,-1.06104 0.43336,0.36622 -0.71281,0.16959 -1.0025,0.16841 -0.86714,0.0558 -1.456,0.002 -2.27124,-0.21854 -0.14899,-0.28138 -0.29799,-0.56275 -0.44698,-0.84413 0.18278,-1.17107 2.53874,-0.98937 2.35596,0.1817 l 0,0 c -0.15836,-0.22138 -0.31671,-0.44276 -0.47507,-0.66415 -1.56069,-0.2628 0.5049,-0.0399 0.85299,-0.12093 1.12724,0.006 2.20068,-0.003 3.01497,0.63552 0.59656,0.81334 0.37359,1.70128 0.30327,2.5879 -0.16776,1.13819 -0.46159,2.26156 -1.59018,3.14251 -1.42391,1.034 -2.6151,1.43086 -4.68966,1.12753 -2.0691,-0.58956 -3.04555,-1.4652 -2.77676,-3.0912 0.39625,-1.27827 0.9538,-2.54023 1.95869,-3.65372 0.74949,-1.05372 2.86937,-0.30863 2.11988,0.74509 z"
       inkscape:connector-curvature="0" />
    <path
       style="fill:#000000;fill-opacity:1;fill-rule:nonzero;stroke:none"
       id="path4671"
       d="m 509.04102,405.17774 c 2.09778,-1.32905 3.49408,-3.25016 4.86205,-5.10029 2.04614,-2.73719 3.2864,-5.81478 4.71917,-8.79784 1.08263,-2.39975 2.08075,-4.82338 3.07796,-7.24881 0.60737,-1.25171 0.68443,-2.6012 1.02212,-3.9026 0.30926,-0.91058 0.5533,-1.83406 0.67129,-2.77631 0.0794,-0.7097 0.0796,-1.42342 0.0818,-2.1356 -1.4e-4,-0.54886 -0.003,-1.09771 -0.006,-1.64656 -0.001,-0.30193 -0.002,-0.60386 -0.002,-0.9058 -6e-5,-0.0666 -5e-5,-0.13309 -3e-5,-0.19964 2e-5,-0.19552 2e-5,-0.39105 2e-5,-0.58657 10e-6,-0.11173 10e-6,-0.22345 10e-6,-0.33518 -0.0311,-0.46905 0.17258,0.42576 0.20457,0.54123 0.0307,0.0132 0.2802,0.0217 -0.0216,0.0215 -0.31319,0.002 -0.62638,0.003 -0.93957,0.004 -0.16615,4.6e-4 -0.3323,0.001 -0.49846,0.001 -0.18932,-0.0165 -1.00768,0.034 -0.1811,-0.0268 0.0532,-0.0125 0.11017,-0.0585 0.15942,-0.0375 0.20723,0.0883 -0.1923,0.35669 -0.28524,0.53624 -0.31337,0.60546 -0.48258,1.28729 -0.72668,1.91328 -0.68284,1.99198 -1.21582,4.00968 -1.5493,6.06401 -0.27084,2.59058 -0.56044,5.18311 -1.05874,7.75064 -0.54098,2.36038 -0.82191,4.75078 -0.97305,7.14887 -0.0973,1.83347 -0.10717,3.66904 -0.10918,5.504 -0.0671,0.81971 0.23677,1.60631 0.55469,2.37037 -0.36379,-0.37674 0.74524,0.4706 0.99146,0.6488 0.22556,0.27489 0.54177,0.41143 0.89118,0.54912 0.26337,0.0546 -0.39963,-0.0243 0.10318,-0.0232 0.12729,1.3e-4 0.25453,-0.002 0.38174,-0.006 0.51078,-0.004 1.0216,-0.003 1.53239,-0.003 0.27332,-0.036 0.57178,0.0423 0.84371,-3e-5 0.0539,-0.008 -0.11337,4e-5 -0.16282,-0.02 -0.0428,-0.0174 0.0623,-0.0609 0.0976,-0.0878 0.047,-0.032 0.0829,-0.0723 0.12127,-0.11075 1.18751,-1.15165 3.11677,0.2661 1.92926,1.41776 l 0,0 c -0.15758,0.14903 -0.32035,0.29366 -0.50877,0.41596 -0.70089,0.42745 -1.45805,0.61151 -2.31973,0.54414 -0.47844,8e-5 -0.95687,2.4e-4 -1.43531,10e-4 -0.1633,0.004 -0.32664,0.008 -0.49004,0.007 -0.40902,-0.002 -0.82677,-0.0204 -1.19429,-0.18738 -0.56758,-0.23133 -1.15024,-0.50715 -1.54756,-0.92952 -0.65246,-0.40978 -1.24368,-0.87688 -1.6479,-1.50478 -0.4091,-0.9925 -0.76413,-2.02252 -0.69788,-3.08471 0.002,-1.87274 0.0127,-3.74608 0.11283,-5.61727 0.15761,-2.47712 0.44636,-4.94664 1.00352,-7.38511 0.50181,-2.54786 0.76927,-5.12364 1.04861,-7.69417 0.3589,-2.18336 0.92028,-4.33045 1.65442,-6.44632 0.50991,-1.29785 0.81377,-2.77112 2.14255,-3.66822 0.51162,-0.13143 0.81991,-0.23181 1.31578,-0.19897 0.16465,-2.7e-4 0.32931,-5.2e-4 0.49396,-10e-4 0.31741,-0.001 0.6348,-0.003 0.9522,-0.004 0.31998,5.2e-4 0.63188,0.0162 0.93039,0.12068 0.74987,0.25064 1.46722,0.68563 1.44029,1.47587 0,0.11174 10e-6,0.22348 0,0.33522 0,0.1963 0,0.3926 -2e-5,0.5889 -10e-6,0.0653 -5e-5,0.13069 2e-5,0.19603 2.1e-4,0.29976 3.7e-4,0.59951 0.002,0.89927 0.002,0.55335 0.005,1.1067 0.006,1.66005 -0.002,0.78816 -0.006,1.57793 -0.0967,2.3631 -0.13497,1.02666 -0.38006,2.03752 -0.72218,3.02986 -0.40538,1.36081 -0.4084,2.81385 -1.09776,4.12402 -1.0119,2.46001 -2.02416,4.91845 -3.12393,7.35204 -1.4885,3.09874 -2.78664,6.29142 -4.92059,9.13097 -1.53876,2.07536 -3.1333,4.20118 -5.4963,5.68319 -1.44693,0.91612 -2.98162,-0.81134 -1.53469,-1.72746 z"
       inkscape:connector-curvature="0" />
    <path
       style="fill:#000000;fill-opacity:1;fill-rule:nonzero;stroke:none"
       id="path4673"
       d="m 300.97665,147.10964 c 0.57172,3.24316 0.86384,6.52909 1.16524,9.80019 0.40634,5.10016 0.51528,10.21336 0.58956,15.3238 -0.0281,2.03329 0.11147,4.08837 0.66435,6.07087 0.23449,0.70097 0.33434,0.10236 -2.43855,0.33689 0.21731,-1.68747 2.97292,-1.42132 2.75561,0.26615 l 0,0 c -0.23098,1.38246 -3.09599,1.39893 -3.01395,-0.0454 -0.58944,-2.15761 -0.77626,-4.38517 -0.73995,-6.59834 -0.0734,-5.05683 -0.18046,-10.1164 -0.581,-15.16314 -0.28889,-3.14023 -0.58331,-6.29041 -1.09122,-9.40867 -0.47552,-1.64723 2.21439,-2.22962 2.68991,-0.58238 z"
       inkscape:connector-curvature="0" />
    <path
       style="fill:#000000;fill-opacity:1;fill-rule:nonzero;stroke:none"
       id="path4675"
       d="m 287.40653,145.9363 c 3.36813,0.36888 6.80349,0.0374 10.1714,-0.21227 3.8631,-0.30338 7.73429,-0.51518 11.60995,-0.64774 1.83874,-0.0283 3.65267,-0.0149 5.46691,-0.27832 1.35667,-0.23734 2.72478,-0.4114 4.10208,-0.5257 0.36197,-0.0282 0.7244,-0.0532 1.08774,-0.0614 0.0257,3.8e-4 0.0515,5.8e-4 0.0772,0.001 1.95953,0.056 1.86803,2.45596 -0.0915,2.39993 l 0,0 c 0.0136,2e-5 0.0272,5e-5 0.0409,7e-5 -0.28398,0.009 -0.56751,0.0285 -0.85059,0.0507 -1.3132,0.10829 -2.61669,0.27768 -3.9101,0.50394 -1.9305,0.27701 -3.85833,0.29024 -5.81329,0.3091 -3.83327,0.13083 -7.66207,0.34078 -11.4829,0.64087 -3.62725,0.26865 -7.32733,0.61488 -10.95153,0.17438 -1.92252,-0.33299 -1.37875,-2.6876 0.54377,-2.3546 z"
       inkscape:connector-curvature="0" />
    <path
       style="fill:#000000;fill-opacity:1;fill-rule:nonzero;stroke:none"
       id="path4683"
       d="m 386.71437,164.99856 c -1.92812,0.37184 -3.79973,1.00481 -5.67042,1.60414 -0.73989,0.42749 -2.68711,0.685 -3.09325,1.56805 -0.02,0.0494 -0.0991,0.11331 -0.0598,0.14813 0.0758,0.0671 0.0525,-0.24681 0.15048,-0.26709 0.0588,-0.0122 0.0914,0.0804 0.13871,0.1184 0.11166,0.0897 0.22209,0.18138 0.33826,0.26483 0.1931,0.13871 0.39272,0.26754 0.58909,0.40131 2.29503,1.27582 4.68421,2.35774 7.00576,3.5802 1.77184,1.07554 3.7768,1.85137 4.92965,3.68425 0.031,0.34184 0.14789,0.6869 0.093,1.02553 -0.30118,1.85762 -2.98475,2.5277 -4.39329,3.05022 -1.76418,0.68599 -3.58616,1.18857 -5.42581,1.60407 -1.04317,0.25991 -1.13015,0.20701 -1.94951,-0.60755 -0.6811,-1.26143 1.04871,-2.25477 1.72981,-0.99334 l 0,0 c -0.78332,-0.499 -1.1869,-0.15958 -0.20346,-0.39378 1.7569,-0.39597 3.49695,-0.87509 5.18117,-1.5316 1.04471,-0.38431 1.96717,-0.89332 2.96899,-1.30423 0.12219,-0.0501 0.21886,0.10578 0.28063,0.16475 -0.37518,-1.14205 -3.209,-2.1922 -4.11197,-2.88002 -2.39025,-1.26016 -4.85835,-2.36081 -7.20768,-3.70265 -1.20189,-0.84095 -2.64277,-1.982 -1.62043,-3.61031 1.04833,-1.26555 2.59063,-1.72504 4.07222,-2.26909 1.9059,-0.61061 3.81395,-1.25348 5.77762,-1.6351 1.35821,-0.35017 1.8384,1.63071 0.4802,1.98088 z"
       inkscape:connector-curvature="0" />
    <path
       style="fill:#000000;fill-opacity:1;fill-rule:nonzero;stroke:none"
       id="path4685"
       d="m 396.44667,163.274 c 0.69159,2.24522 1.08194,4.57144 1.54062,6.87486 0.42669,2.02458 0.72252,4.07504 0.93251,6.13462 0.0324,0.4306 0.0898,0.86129 0.0904,1.29396 -0.002,0.0362 0.0275,0.11854 -0.007,0.10864 -0.62923,-0.18391 -1.28637,-0.32364 -1.85694,-0.65328 -0.10539,-0.0609 0.0763,-0.2365 0.10946,-0.35628 0.14403,-0.5195 0.19145,-1.04188 0.24688,-1.57794 0.28339,-2.3942 0.86536,-4.72887 1.53196,-7.03599 0.66736,-1.78533 1.2111,-3.65429 2.29587,-5.22671 0.58442,-0.76867 1.4063,-1.17698 2.3237,-1.31018 1.28162,-0.18241 1.76482,0.85372 2.18604,1.90613 0.8018,2.21318 1.13446,4.54085 1.53334,6.85317 0.34128,1.85694 0.59501,3.72893 0.7938,5.60728 -0.1661,0.21591 0.23021,0.91061 0.0763,0.87465 -1.93686,-0.45265 -2.02082,0.0726 -1.73225,-0.78419 0.6556,-1.80052 1.59402,-3.47328 2.4617,-5.17071 1.19348,-2.162 2.72964,-4.06767 4.23931,-5.99368 0.92252,-1.31836 1.88979,-2.20442 3.13755,-0.48009 0.64387,1.28711 1.11507,2.6691 1.58,4.03557 0.63399,1.86794 1.1508,3.78287 1.63381,5.69886 0.15654,0.59309 0.2637,1.19828 0.39936,1.7963 0.0132,0.0582 0.10568,0.17307 0.0477,0.17256 -0.62095,-0.005 -1.23597,-0.12548 -1.85395,-0.18824 0.40748,-1.38129 2.30167,-0.787 1.89419,0.59431 l 0,0 c -0.64978,0.0451 -1.2998,0.18362 -1.94934,0.13512 -0.18668,-0.0139 -0.28951,-1.88927 -0.45438,-1.99718 -0.46755,-1.86177 -0.97028,-3.72212 -1.58597,-5.53676 -0.40357,-1.19053 -0.83238,-2.37777 -1.3269,-3.53009 -0.0432,-0.0713 -0.20564,-0.18386 -0.12952,-0.21401 0.1359,-0.0538 0.28319,0.12207 0.4266,0.0963 0.52289,-0.0939 0.7042,-0.56114 0.13246,0.17303 -0.13714,0.17609 -0.27457,0.35193 -0.41185,0.5279 -1.42906,1.82313 -2.88873,3.62128 -4.02761,5.66226 -0.82344,1.61087 -1.71638,3.19717 -2.34742,4.9019 -0.45643,1.30549 -2.49936,0.69251 -2.17806,-0.55246 -0.19369,-1.83287 -0.44147,-3.65944 -0.7749,-5.47131 -0.37376,-2.17006 -0.6761,-4.35538 -1.41619,-6.43662 -0.20046,-0.50954 -0.46359,-0.80277 0.16196,-0.65632 0.0943,0.0221 -0.39649,-0.0255 -0.29019,0.005 -0.3703,0.006 -0.72164,0.20724 -0.95504,0.49237 -1.00713,1.32961 -1.33762,3.08567 -1.99309,4.60043 -0.63555,2.18799 -1.18815,4.40277 -1.46086,6.6736 -0.0207,0.19095 -0.31046,2.29753 -0.43085,2.30824 -0.66809,0.0595 -1.33643,-0.12467 -2.00666,-0.14741 -0.0256,-8.7e-4 -0.002,0.0528 -0.003,0.0791 -0.0128,-0.34322 -0.0463,-0.71537 -0.0797,-1.06395 -0.20268,-1.99346 -0.48932,-3.978 -0.90293,-5.93739 -0.43462,-2.18554 -0.80856,-4.38946 -1.43943,-6.52701 -0.51995,-1.34053 1.31835,-2.09886 1.83829,-0.75832 z"
       inkscape:connector-curvature="0" />
    <path
       style="fill:#000000;fill-opacity:1;fill-rule:nonzero;stroke:none"
       id="path4687"
       d="m 431.59221,165.67917 c -1.54962,0.52927 -2.22649,2.08726 -2.86694,3.49825 -0.67843,1.81126 -1.23496,3.71854 -0.91614,5.66814 0.10294,0.6308 0.47631,1.03104 1.11829,0.8835 1.3997,-0.38251 2.04074,-1.68233 2.6219,-2.93389 0.71782,-1.75609 0.94641,-3.65883 1.083,-5.54352 0.0543,-0.60916 0.0835,-1.24004 -0.41187,-1.63667 -0.20975,-0.11512 -0.0844,-0.0399 0.0631,-0.0157 0.49934,-0.006 0.35514,0.0313 1.01087,-0.74039 0.0623,-0.0732 -0.0656,-0.30495 0.0278,-0.29076 0.087,0.0132 0.3262,1.02692 0.34151,1.08254 0.41241,1.51596 0.79227,3.01983 1.34374,4.49213 0.74729,1.66214 1.57766,3.31275 2.6704,4.76459 -0.0271,0.31951 1.2149,1.00653 0.65367,0.62479 1.34856,-0.38782 1.88038,1.57899 0.53182,1.9668 l 0,0 c -1.53406,0.22482 -1.83378,-0.23437 -2.75739,-1.35012 -1.19066,-1.62028 -2.14333,-3.4183 -2.94615,-5.27232 -0.5713,-1.53444 -0.97472,-3.09998 -1.40354,-4.67856 -0.23237,-0.88755 -1.02598,-2.51825 0.66507,-2.6356 0.43007,0.0564 0.80303,0.25457 1.13384,0.54438 0.90061,0.89042 1.19216,2.02512 1.0515,3.29868 -0.15852,2.14337 -0.43857,4.30074 -1.27942,6.28832 -0.94942,1.96211 -2.13143,3.76629 -4.4024,4.07714 -1.71379,-0.10533 -2.7166,-0.81123 -3.07418,-2.62618 -0.30861,-2.36561 0.19852,-4.64653 1.08397,-6.83838 0.91183,-1.98046 1.99801,-3.94637 4.17746,-4.60806 1.3582,-0.35018 1.8384,1.63071 0.4802,1.98088 z"
       inkscape:connector-curvature="0" />
    <path
       style="fill:#000000;fill-opacity:1;fill-rule:nonzero;stroke:none"
       id="path4689"
       d="m 446.56657,146.98935 c 0.41218,2.47873 0.5193,5.0036 0.72085,7.50834 0.29189,4.51228 0.70983,9.01806 1.35668,13.49146 0.40879,2.50715 0.80209,5.01625 1.0757,7.54329 0.15446,1.76446 0.55438,1.35265 -1.87322,1.05553 -8.3e-4,-0.12041 -0.002,-0.2408 -0.002,-0.36121 -0.0108,-1.44376 1.96909,-1.45945 1.97984,-0.0157 l 0,0 c 8.3e-4,0.11829 0.002,0.23658 0.002,0.35486 -2.36221,0.41511 -1.90235,0.82723 -2.07427,-0.80707 -0.27051,-2.50229 -0.66265,-4.98633 -1.06633,-7.46905 -0.65107,-4.51747 -1.07799,-9.06665 -1.37148,-13.62327 -0.19271,-2.39544 -0.30381,-4.80723 -0.66852,-7.18197 -0.33954,-1.4007 1.58124,-1.89591 1.92079,-0.49522 z"
       inkscape:connector-curvature="0" />
    <path
       style="fill:#000000;fill-opacity:1;fill-rule:nonzero;stroke:none"
       id="path4691"
       d="m 455.15649,147.79876 c 0.72287,2.97143 1.26718,5.98736 1.82415,8.99594 0.95235,4.41801 1.50534,8.90472 1.8555,13.41133 0.13637,2.04188 0.22328,4.08787 0.23882,6.13465 -0.004,1.08457 0.10636,-0.16145 -0.56839,-0.42245 1.38703,0.19604 1.11821,2.21899 -0.26883,2.02295 l 0,0 c -0.77442,-0.17974 -1.21932,-0.74791 -1.14261,-1.58471 -0.0148,-1.99771 -0.10028,-3.99464 -0.23259,-5.9876 -0.34332,-4.43295 -0.88857,-8.84586 -1.82669,-13.19127 -0.55588,-3.00279 -1.09929,-6.01261 -1.82081,-8.97839 -0.27457,-1.41577 1.66688,-1.81621 1.94145,-0.40045 z"
       inkscape:connector-curvature="0" />
    <path
       style="fill:#000000;fill-opacity:1;fill-rule:nonzero;stroke:none"
       id="path4693"
       d="m 356.84857,181.65062 c 0.99192,3.34134 1.47371,6.82352 2.11064,10.25082 0.78371,4.78153 1.44275,9.58577 2.02095,14.3984 0.15607,1.46361 0.3236,2.92773 0.40954,4.39807 0.0272,0.89997 0.088,0.15469 -1.31279,-0.7078 -0.23749,-0.14624 -0.1935,0.29354 -0.20461,0.0229 0.60001,-1.68059 1.54784,-3.18478 2.53679,-4.64394 1.22743,-1.7478 2.63893,-3.34361 4.07161,-4.91205 0.59405,-0.57154 1.24786,-1.09369 2.00356,-1.41452 0.65595,-0.19008 1.20834,-0.10083 1.78859,0.28581 0.821,0.78163 1.084,1.8822 1.40329,2.94471 0.69079,1.94393 1.21522,3.94543 1.97918,5.86062 0.3746,0.89499 0.88136,2.18078 2.00629,2.19795 0.0506,-0.03 0.10107,-0.06 0.1516,-0.09 1.37715,-0.25982 1.73344,1.74869 0.3563,2.00851 l 0,0 c -0.27758,0.0319 -0.55514,0.0638 -0.83271,0.0957 -1.81589,-0.40223 -2.87399,-1.66873 -3.51385,-3.43872 -0.77961,-1.97345 -1.33555,-4.02624 -2.038,-6.02968 -0.13307,-0.44294 -0.23023,-1.02297 -0.4396,-1.4464 -0.0729,-0.14752 -0.27702,-0.2607 -0.25088,-0.42408 0.004,-0.0244 0.0473,0.009 0.0709,0.014 -0.13759,-0.11042 -0.11469,-0.0705 0.18116,-0.0318 0.0713,0.009 -0.25025,0.0577 -0.21533,-0.007 0.0148,-0.0275 0.0549,-0.0276 0.0824,-0.0413 -0.48477,0.21144 -0.9007,0.55852 -1.29178,0.91639 -1.3674,1.4966 -2.71674,3.01737 -3.89091,4.68315 -0.88903,1.30649 -1.74706,2.65006 -2.29217,4.15409 -0.4011,0.99029 -1.82936,2.53803 -2.32536,0.12565 -0.0824,-1.42731 -0.24818,-2.84833 -0.39807,-4.26917 -0.5727,-4.76801 -1.22574,-9.52766 -2.00057,-14.26511 -0.61338,-3.3006 -1.0868,-6.64882 -2.00443,-9.87682 -0.51995,-1.34054 1.31835,-2.09886 1.8383,-0.75833 z"
       inkscape:connector-curvature="0" />
    <path
       style="fill:#000000;fill-opacity:1;fill-rule:nonzero;stroke:none"
       id="path4695"
       d="m 379.24979,198.03554 c 0.65097,1.5205 0.85245,3.16383 1.13954,4.78203 0.30141,2.17013 0.62986,4.32626 1.26461,6.42207 0.0916,0.19416 0.27883,0.70848 0.51435,0.85127 0.0381,0.0231 0.0505,-0.0904 0.0332,-0.1324 -0.0321,-0.078 -0.1909,-0.10832 -0.1651,-0.18878 0.0467,-0.1458 0.22635,-0.20079 0.32647,-0.31446 0.1863,-0.2115 0.35415,-0.43952 0.53122,-0.65927 1.39435,-2.1421 2.07097,-4.6444 2.56567,-7.14406 0.25413,-0.91851 0.2011,-1.78404 -0.0666,-2.66924 -0.36798,-0.98413 0.53821,0.72905 -0.44539,-0.57424 -0.31265,-0.40518 -0.40766,-0.90593 -0.45688,-1.40752 -0.003,-0.0436 -0.0516,-0.12994 -0.009,-0.13067 1.98521,-0.0344 1.8687,-0.50241 2.13391,0.58034 0.24329,0.99326 0.13706,0.59793 0.52591,1.70071 1.56625,3.89154 2.29255,8.00061 2.77004,12.16044 0.53621,4.57792 0.30192,9.04119 -1.04015,13.44023 -0.94725,2.09897 -2.39061,5.07241 -5.01585,5.22013 -0.4306,0.0243 -0.8535,-0.12801 -1.28025,-0.19201 -2.90338,-1.43477 -3.66787,-4.70413 -4.24655,-7.70001 -0.27068,-1.41656 1.67186,-1.81135 1.94255,-0.39479 l 0,0 c 0.41184,2.18162 0.85975,4.71121 2.7181,6.0981 2.00805,0.84049 3.3197,-2.23647 3.99544,-3.65096 1.2745,-4.0723 1.4517,-8.34074 0.96043,-12.58157 -0.45633,-4.00721 -1.15284,-7.96293 -2.66718,-11.70955 -0.35116,-1.01959 -2.02988,-4.72739 1.18342,-3.03865 0.029,0.32723 -0.0444,0.17364 0.0729,0.38426 0.1183,0.19265 0.71594,0.66563 0.74905,1.1881 0.36638,1.21272 0.4233,2.44011 0.11587,3.6875 -0.56952,2.84592 -1.3641,5.6875 -3.02026,8.08409 -1.85547,2.08695 -3.34083,2.72656 -4.61551,-0.30033 -0.65421,-2.17565 -1.01618,-4.40879 -1.3218,-6.6619 -0.27897,-1.57805 -0.48238,-3.16919 -1.11264,-4.65364 -0.33955,-1.4007 1.58124,-1.89592 1.92079,-0.49522 z"
       inkscape:connector-curvature="0" />
    <path
       style="fill:#000000;fill-opacity:1;fill-rule:nonzero;stroke:none"
       id="path4701"
       d="m 399.23092,198.0272 c -0.66549,-0.19201 -1.55975,-1.01868 -2.28193,-0.85658 -0.61877,0.1072 -1.07269,0.7273 -1.41018,1.23369 -0.32042,0.66454 -0.43649,1.40612 -0.49578,2.13875 -0.0582,0.37151 0.0273,0.97189 -0.0188,0.27702 1.14088,0.19762 2.30082,0.15279 3.44801,0.29288 1.50118,0.17143 2.66426,0.90204 3.40146,2.24735 0.60962,1.46601 -0.0161,2.79106 -0.75835,4.04494 -0.84941,1.30781 -1.73337,2.0016 -3.27737,2.09767 -0.67721,-0.0621 -1.32088,-0.27902 -1.96581,-0.484 -1.33749,-0.42662 -0.75246,-2.37729 0.58503,-1.95067 l 0,0 c 0.43571,0.13955 0.87312,0.27079 1.31347,0.394 0.87294,0.0217 1.13934,-0.4146 1.65786,-1.12609 0.3619,-0.60233 0.88991,-1.30457 0.68573,-2.03947 -0.29615,-0.79632 -1.12792,-1.05193 -1.88596,-1.15744 -1.34377,-0.18244 -2.73868,-0.02 -4.04227,-0.46933 -0.91914,-0.53588 -1.26652,-1.23931 -1.11555,-2.30245 0.0947,-1.10272 0.30506,-2.20404 0.86763,-3.16481 0.76997,-1.05636 1.71037,-2.03188 3.07365,-2.07286 1.10397,0.0938 2.1192,0.56325 3.10462,1.07111 1.2522,0.64569 0.36676,2.47197 -0.88544,1.82629 z"
       inkscape:connector-curvature="0" />
    <path
       style="fill:#000000;fill-opacity:1;fill-rule:nonzero;stroke:none"
       id="path4703"
       d="m 408.89898,184.07163 c -0.0818,2.90047 0.12867,5.79083 0.29709,8.68363 0.34011,3.41727 0.67449,6.83409 0.87957,10.26317 0.0833,1.53705 0.13481,3.07579 0.15024,4.61513 0.002,0.20829 0.002,0.41659 -0.005,0.62474 -0.0758,1.44168 -2.05286,1.33105 -1.977,-0.11063 l 0,0 c 0.002,-0.14021 0.004,-0.34188 0.002,-0.49311 -0.0149,-1.50446 -0.0655,-3.00833 -0.14661,-4.51055 -0.20473,-3.43021 -0.54321,-6.84767 -0.87974,-10.26637 -0.17079,-2.93347 -0.38195,-5.8648 -0.30065,-8.80601 0,-1.4438 1.97991,-1.4438 1.97991,0 z"
       inkscape:connector-curvature="0" />
    <path
       style="fill:#000000;fill-opacity:1;fill-rule:nonzero;stroke:none"
       id="path4705"
       d="m 403.68397,194.89473 c 1.92283,-0.0539 3.83639,-0.33344 5.75523,-0.49005 1.28493,-0.0977 2.57213,-0.15793 3.8601,-0.18908 0.21651,-0.003 0.43313,-0.0105 0.64956,-0.002 1.39669,0.0995 1.2603,2.13646 -0.13638,2.037 l 0,0 c -0.15563,8.7e-4 -0.31126,0.003 -0.46687,0.006 -1.25135,0.0301 -2.50194,0.0886 -3.75035,0.18328 -1.9707,0.16055 -3.93561,0.44979 -5.91129,0.4964 -1.4,0 -1.4,-2.04184 0,-2.04184 z"
       inkscape:connector-curvature="0" />
    <path
       style="fill:#000000;fill-opacity:1;fill-rule:nonzero;stroke:none"
       id="path4707"
       d="m 420.54696,200.61026 c 1.19639,0.57146 2.4421,0.85592 3.75035,0.66915 1.1494,-0.32205 1.81241,-1.09417 2.13951,-2.23674 0.15327,-1.09755 -0.82594,-1.47366 -1.67042,-1.75429 -1.44674,-0.48816 -2.29605,0.2912 -3.19156,1.36356 -1.12355,1.68738 -1.1969,3.58131 -0.83284,5.52311 0.49331,2.11855 1.4843,3.93058 3.12044,5.30519 1.45174,0.89616 3.05377,1.07006 4.64948,0.54482 1.34294,-0.408 1.90243,1.55064 0.55948,1.95863 l 0,0 c -2.26359,0.6497 -4.48118,0.42769 -6.47686,-0.9352 -1.96529,-1.71957 -3.22615,-3.89715 -3.79989,-6.5047 -0.43909,-2.57348 -0.25568,-5.06406 1.29307,-7.23982 1.53656,-1.77535 2.98042,-2.66386 5.32692,-1.94489 2.00989,0.75151 3.33294,1.92831 2.90088,4.32807 -0.64884,1.88485 -1.83292,3.17916 -3.78865,3.62034 -1.69994,0.17939 -3.31764,-0.0979 -4.86535,-0.87095 -1.25221,-0.64569 -0.36676,-2.47197 0.88544,-1.82628 z"
       inkscape:connector-curvature="0" />
    <path
       style="fill:#000000;fill-opacity:1;fill-rule:nonzero;stroke:none"
       id="path4709"
       d="m 433.92467,197.47983 c 1.29803,1.24381 2.11391,2.87479 2.84583,4.51156 0.65007,1.74956 1.17934,3.53579 1.58487,5.36114 0.11769,0.51232 0.22324,1.48509 0.24377,1.82159 -0.62875,0.19662 -1.23116,0.53804 -1.88625,0.58984 -0.15121,0.012 -0.13039,-0.28245 -0.19165,-0.42553 -0.40231,-0.93968 -0.6855,-1.95315 -0.98083,-2.93276 -0.52015,-2.08439 -0.83662,-4.23926 -0.77429,-6.39352 0.11406,-2.05423 0.88101,-3.12999 2.69811,-3.92597 1.66076,-0.48319 3.3783,-0.59141 5.07919,-0.32899 1.13702,0.26465 1.96308,0.92947 2.4807,1.99072 0.0305,0.0798 0.061,0.15954 0.0915,0.23933 0.49204,1.35168 -1.36155,2.06931 -1.8536,0.71762 l 0,0 c -0.007,-0.0231 -0.0139,-0.0462 -0.0209,-0.0692 -0.19879,-0.47802 -0.49782,-0.7183 -0.99771,-0.86015 -1.35105,-0.22003 -2.71051,-0.12574 -4.04256,0.20598 -1.09469,0.40615 -1.38538,0.86451 -1.45615,2.10523 -0.0844,1.92217 0.25315,3.85183 0.68696,5.7148 0.22723,0.75953 0.46009,1.52349 0.72113,2.27126 0.0877,0.25132 0.24753,0.56258 0.21986,0.57801 -0.56038,0.31244 -1.15318,0.55865 -1.72977,0.83798 -0.0672,-0.56066 -0.0893,-1.12844 -0.21754,-1.68079 -0.3743,-1.68962 -0.8639,-3.34133 -1.45424,-4.96474 -0.62837,-1.41926 -1.31929,-2.84503 -2.44644,-3.91956 -0.98995,-1.02092 0.41005,-2.46472 1.4,-1.4438 z"
       inkscape:connector-curvature="0" />
    <path
       style="fill:#000000;fill-opacity:1;fill-rule:nonzero;stroke:none"
       id="path4713"
       d="m 452.02282,202.4934 c 0.92552,0.11846 1.8993,0.5547 2.83932,0.41355 0.81611,-0.46458 1.45024,-1.20976 2.04455,-1.93635 0.5497,-0.79486 0.71246,-1.7551 0.80106,-2.70566 0.10555,-0.64388 -0.0935,-0.92526 -0.6524,-1.13437 -0.96314,-0.15565 -1.96458,-0.33765 -2.8995,0.015 -1.16471,0.64373 -1.51601,2.16494 -1.82648,3.38944 -0.46662,2.16131 -0.46218,4.37301 0.0971,6.50835 0.57779,1.62394 1.33911,2.82886 2.8536,3.60428 1.26361,0.53339 2.46455,0.45166 3.73872,0.0506 1.34516,-0.40018 1.89391,1.56169 0.54876,1.96185 l 0,0 c -1.77835,0.50717 -3.47494,0.58558 -5.20357,-0.20233 -2.01198,-1.11914 -3.11278,-2.66991 -3.85286,-4.89728 -0.61565,-2.4876 -0.66374,-5.04243 -0.0943,-7.55347 0.5147,-1.94585 1.20416,-3.96681 3.14699,-4.80987 1.43504,-0.42481 2.92577,-0.35454 4.35588,0.0965 1.21243,0.6616 1.96702,1.69304 1.75804,3.17571 -0.138,1.36752 -0.4326,2.71356 -1.26513,3.82696 -0.93961,1.12488 -1.94463,2.29678 -3.40346,2.64694 -1.17386,0.0552 -2.32234,-0.2157 -3.46651,-0.46889 -1.3582,-0.35017 -0.87801,-2.33105 0.4802,-1.98088 z"
       inkscape:connector-curvature="0" />
    <path
       style="fill:#000000;fill-opacity:1;fill-rule:nonzero;stroke:none"
       id="path4721"
       d="m 471.19032,195.62627 c -0.81752,0.22156 -1.64833,0.29566 -2.41632,0.65614 -0.46995,0.18876 -0.85762,0.50385 -1.22859,0.84806 -0.36965,0.39972 -0.67237,0.91294 -0.90619,1.41412 -0.23191,0.48687 -0.2743,1.03137 -0.31384,1.56404 -0.01,0.52559 -0.0331,-0.12696 0.079,-0.0763 1.3361,0.60379 -0.69026,-0.18636 0.79593,0.37334 1.48835,0.34929 2.95704,0.59672 4.39707,1.14426 1.47097,0.5917 2.50012,1.57916 3.03823,3.09979 0.46147,1.54619 0.0977,2.96785 -0.60387,4.35628 -0.98532,1.55656 -2.5242,2.00084 -4.23124,2.05579 -1.68462,0.0358 -3.19425,-0.66773 -4.66495,-1.42695 -0.44222,-0.24142 -0.23872,-0.12702 -0.61158,-0.34109 -1.22269,-0.70326 -0.25831,-2.48651 0.96439,-1.78325 l 0,0 c 0.32269,0.18599 0.14485,0.0856 0.53463,0.2991 1.18692,0.6149 2.3872,1.23258 3.7506,1.21054 0.95599,0.0143 1.90037,-0.14419 2.51231,-0.97721 0.47362,-0.87837 0.75196,-1.73283 0.47514,-2.73608 -0.26736,-0.94814 -0.97653,-1.47376 -1.85023,-1.84176 -1.44952,-0.55437 -2.94412,-0.73649 -4.42958,-1.157 -1.01843,-0.42572 -2.26419,-0.99252 -2.12975,-2.35852 0.0617,-0.80148 0.16599,-1.60661 0.52427,-2.33326 0.36614,-0.71703 0.78138,-1.45201 1.35404,-2.01171 0.52227,-0.47495 1.077,-0.91049 1.72804,-1.18248 0.88383,-0.41041 1.81186,-0.55608 2.75228,-0.77672 1.35821,-0.35017 1.8384,1.63071 0.4802,1.98089 z"
       inkscape:connector-curvature="0" />
    <path
       style="fill:#000000;fill-opacity:1;fill-rule:nonzero;stroke:none"
       id="path4723"
       d="m 480.92262,195.94355 c 0.62513,1.64312 0.90243,3.37923 1.07909,5.12486 0.0571,1.55748 0.17234,3.08828 0.44519,4.62122 0.12225,0.72105 0.23742,1.44345 0.33936,2.16788 0.004,0.0316 0.009,0.0632 0.0128,0.0948 0.19355,1.42993 -1.76735,1.71222 -1.9609,0.28228 l 0,0 c -0.004,-0.028 -0.007,-0.056 -0.0113,-0.084 -0.0983,-0.69941 -0.20972,-1.39683 -0.32746,-2.09303 -0.28093,-1.58459 -0.41302,-3.16922 -0.46707,-4.77887 -0.15506,-1.55804 -0.39352,-3.10873 -0.94801,-4.57681 -0.51994,-1.34054 1.31835,-2.09887 1.8383,-0.75832 z"
       inkscape:connector-curvature="0" />
    <path
       style="fill:#000000;fill-opacity:1;fill-rule:nonzero;stroke:none"
       id="path4725"
       d="m 477.48632,189.03145 c -0.16893,-0.69684 -0.33786,-1.39368 -0.50679,-2.09052 -0.0262,-0.10812 -0.0524,-0.21625 -0.0787,-0.32437 -10e-5,-4e-4 -2e-4,-8.7e-4 -2.9e-4,-8.7e-4 0.55024,0.18166 1.10047,0.36332 1.65072,0.54498 -0.73065,1.23159 -2.41954,0.16598 -1.6889,-1.06562 l 0,0 c 0.65299,0.009 1.30598,0.017 1.95897,0.0254 1e-4,4e-4 1.9e-4,8.7e-4 2.9e-4,8.7e-4 0.0262,0.10812 0.0524,0.21624 0.0787,0.32437 0.16893,0.69684 0.33786,1.39367 0.50678,2.09052 0.33955,1.40069 -1.58124,1.89591 -1.92078,0.49521 z"
       inkscape:connector-curvature="0" />
    <path
       style="fill:#000000;fill-opacity:1;fill-rule:nonzero;stroke:none"
       id="path4727"
       d="m 492.30931,194.26504 c -0.85635,0.21089 -1.84893,0.33503 -2.57934,0.88775 -0.28033,0.22542 -0.33258,0.62313 -0.24012,0.96794 0.17909,0.70995 0.54452,1.37463 1.01068,1.92657 0.90528,0.9691 2.03486,1.67697 3.05141,2.51223 1.32083,0.89397 2.24372,2.10608 2.80844,3.61259 0.50782,1.62492 0.19724,2.6439 -0.87735,3.90634 -0.94533,1.10538 -2.10653,1.76589 -3.46558,2.16109 -1.62143,0.39904 -3.15029,0.0386 -4.47026,-0.97187 -0.15461,-0.16231 -0.30921,-0.32462 -0.46382,-0.48693 -0.9666,-1.04446 0.46566,-2.4542 1.43227,-1.40975 l 0,0 c 0.0869,0.0987 0.17389,0.19738 0.26083,0.29607 0.7378,0.69265 1.76609,0.80602 2.71923,0.6028 1.00407,-0.26997 1.82351,-0.74598 2.51851,-1.56056 0.55644,-0.60511 0.77337,-0.97406 0.49079,-1.8245 -0.40184,-1.18477 -1.17853,-2.0436 -2.19212,-2.7327 -1.10901,-0.9255 -2.36537,-1.6836 -3.32549,-2.78798 -0.70174,-0.87519 -1.26325,-1.89527 -1.46595,-3.02365 -0.0701,-1.16503 0.16767,-2.2127 1.15435,-2.91604 0.96862,-0.58972 2.04477,-0.94736 3.15332,-1.14028 1.35821,-0.35018 1.83841,1.63071 0.4802,1.98088 z"
       inkscape:connector-curvature="0" />
    <path
       style="fill:#000000;fill-opacity:1;fill-rule:nonzero;stroke:none"
       id="path4731"
       d="m 418.98713,214.94418 c 0.89255,1.68237 1.73361,3.36975 2.19362,5.22388 0.36577,2.12973 0.888,4.21485 1.1848,6.36213 0.51538,4.66024 1.068,9.32499 2.08636,13.90527 1.19832,5.75553 2.604,11.4656 4.17633,17.13003 1.48238,5.01336 3.15459,9.9457 5.55748,14.59574 1.85798,3.74495 3.62353,7.60225 6.05753,11.0164 1.56957,2.07747 3.44555,3.803 5.63239,5.19793 0.85985,0.63812 1.36971,1.54319 2.33889,2.01324 1.07522,0.66498 2.10679,1.38111 3.19046,2.03703 0.97721,0.58013 2.04817,0.65017 2.88081,1.46648 0.27113,0.44794 0.75728,0.61707 1.23398,0.78143 0.51084,0.077 0.80446,0.61499 0.83547,1.1045 0.0776,0.70848 -0.27017,0.0816 0.35473,0.27133 0.37595,0.0942 0.77396,0.0644 1.15963,0.0653 0.17775,10e-4 0.35544,-0.003 0.53311,-0.007 0.0139,-8.5e-4 -0.004,1.8e-4 -0.006,2.7e-4 0.98244,-0.0751 1.08862,1.3143 0.10618,1.38938 l 0,0 c -0.0159,9.3e-4 -0.0318,0.002 -0.0478,0.003 -0.19639,0.005 -0.39283,0.009 -0.58931,0.008 -0.52725,-10e-4 -1.06891,0.0245 -1.57872,-0.13082 -0.72566,-0.23716 -1.39834,-0.65066 -1.32368,-1.52304 -0.0163,-0.40579 0.99066,0.52249 0.0961,0.13473 -0.65902,-0.23263 -1.37295,-0.5302 -1.77689,-1.12919 -0.64068,-0.74838 -1.85854,-0.55288 -2.60021,-1.24237 -1.04991,-0.63677 -2.05059,-1.32934 -3.08816,-1.98075 -1.00916,-0.50943 -1.65754,-1.32679 -2.46953,-2.08715 -2.33508,-1.4952 -4.34485,-3.3417 -6.01818,-5.5654 -2.45929,-3.47754 -4.28541,-7.3712 -6.15962,-11.18407 -2.44137,-4.73773 -4.158,-9.75472 -5.66187,-14.86211 -1.57807,-5.68805 -2.99087,-11.42143 -4.194,-17.20081 -1.02253,-4.61825 -1.59024,-9.31854 -2.10643,-14.01716 -0.28747,-2.09961 -0.80105,-4.13883 -1.158,-6.22137 -0.42122,-1.75642 -1.25715,-3.33621 -2.08632,-4.93141 -0.44064,-0.88128 0.80569,-1.50445 1.24633,-0.62316 z"
       inkscape:connector-curvature="0" />
  </g>
</svg>
