<?xml version="1.0" encoding="UTF-8" standalone="no"?>
<!-- Created with Inkscape (http://www.inkscape.org/) -->

<svg
   xmlns:dc="http://purl.org/dc/elements/1.1/"
   xmlns:cc="http://creativecommons.org/ns#"
   xmlns:rdf="http://www.w3.org/1999/02/22-rdf-syntax-ns#"
   xmlns:svg="http://www.w3.org/2000/svg"
   xmlns="http://www.w3.org/2000/svg"
   xmlns:sodipodi="http://sodipodi.sourceforge.net/DTD/sodipodi-0.dtd"
   xmlns:inkscape="http://www.inkscape.org/namespaces/inkscape"
   width="408.29947"
   height="348.91791"
   id="svg6332"
   version="1.1"
   inkscape:version="0.48.0 r9654"
   sodipodi:docname="New document 16">
  <defs
     id="defs6334" />
  <sodipodi:namedview
     inkscape:document-units="mm"
     pagecolor="#ffffff"
     bordercolor="#666666"
     borderopacity="1.0"
     inkscape:pageopacity="0.0"
     inkscape:pageshadow="2"
     inkscape:zoom="0.7176508"
     inkscape:cx="268.40276"
     inkscape:cy="43.133844"
     inkscape:current-layer="layer1"
     id="namedview6336"
     showgrid="false"
     fit-margin-top="0"
     fit-margin-left="0"
     fit-margin-right="0"
     fit-margin-bottom="0"
     inkscape:window-width="1280"
     inkscape:window-height="752"
     inkscape:window-x="0"
     inkscape:window-y="0"
     inkscape:window-maximized="0" />
  <metadata
     id="metadata6338">
    <rdf:RDF>
      <cc:Work
         rdf:about="">
        <dc:format>image/svg+xml</dc:format>
        <dc:type
           rdf:resource="http://purl.org/dc/dcmitype/StillImage" />
        <dc:title></dc:title>
      </cc:Work>
    </rdf:RDF>
  </metadata>
  <g
     inkscape:label="Layer 1"
     inkscape:groupmode="layer"
     id="layer1"
     transform="translate(-257.77833,-66.263165)">
    <path
       style="fill:#000000;fill-opacity:1;fill-rule:nonzero;stroke:none"
       id="path6849"
       d="m 260.74303,409.19173 c 6.7168,1.66215 13.74525,1.56405 20.62,1.70572 17.40296,0.13296 34.80623,-0.16309 52.20724,-0.39381 28.82892,-0.56572 57.66368,-0.33426 86.49614,-0.3734 33.86032,0.28612 67.72047,0.40103 101.58166,0.26069 25.63835,-0.13795 51.27532,-0.44586 76.91167,-0.78348 6.46328,-0.0867 12.9265,-0.17742 19.3897,-0.27012 2.40864,-0.0344 4.6892,-0.0375 7.05259,-0.47433 0.0427,-0.037 0.13935,-0.16652 0.1282,-0.11108 -0.22401,1.11476 -0.57464,2.20276 -0.7735,3.32228 -0.0184,0.10328 0.23451,0.26014 0.13268,0.28537 -0.69239,0.17165 -2.6546,-0.1731 -3.43766,-0.20274 -0.41089,-0.009 -0.82178,-0.017 -1.23267,-0.0256 -2.95526,-0.062 -2.86753,-4.24142 0.0877,-4.17939 l 0,0 c 0.43477,0.009 0.86955,0.0184 1.30432,0.0277 0.86836,0.0333 5.4774,-0.16534 5.82756,0.88806 0.39378,1.18464 0.0974,2.54483 -0.28055,3.7346 -0.11028,0.34711 -0.68375,0.25116 -1.02562,0.37675 -2.59271,0.44557 -5.08849,0.50021 -7.72326,0.53823 -6.46477,0.0937 -12.92961,0.18346 -19.39448,0.27019 -25.64893,0.3378 -51.29847,0.64581 -76.94939,0.78381 -33.86508,0.14031 -67.72912,0.0258 -101.59332,-0.26065 -28.81587,0.0391 -57.63405,-0.19242 -86.44639,0.37303 -17.4483,0.23138 -34.89889,0.5284 -52.34913,0.39328 -7.34978,-0.15268 -14.88399,-0.043 -22.03203,-1.98264 -2.75948,-1.05961 -1.26097,-4.9621 1.4985,-3.90249 z"
       inkscape:connector-curvature="0" />
    <path
       style="fill:#000000;fill-opacity:1;fill-rule:nonzero;stroke:none"
       id="path6853"
       d="m 297.06976,390.97132 c -2.17333,1.30295 -3.3606,3.43301 -4.29898,5.7107 -0.37031,1.77641 0.59935,2.66372 2.11047,3.27864 1.7211,0.19605 2.64068,-0.8981 3.27253,-2.3313 0.6721,-2.02468 0.32718,-2.54366 -1.4468,-3.21864 -1.90972,-0.56276 -3.91001,-0.74323 -5.89264,-0.81554 -2.95383,-0.11109 -2.79674,-4.28844 0.15709,-4.17736 l 0,0 c 2.53591,0.0978 5.09627,0.3482 7.5019,1.2041 3.93448,1.99561 4.99387,4.72869 3.41242,8.89089 -1.84194,3.42646 -4.81525,5.3849 -8.79793,4.2239 -3.69769,-1.88155 -5.25001,-4.4978 -4.16804,-8.68096 1.36599,-3.17673 3.17242,-6.09282 6.28049,-7.82341 2.64386,-1.32193 4.51335,2.41705 1.86949,3.73898 z"
       inkscape:connector-curvature="0" />
    <path
       inkscape:connector-curvature="0"
       d="m 546.49469,301.79145 c -2.17333,1.30295 -3.3606,3.43301 -4.29898,5.7107 -0.37031,1.77641 0.59935,2.66372 2.11047,3.27864 1.7211,0.19605 2.64068,-0.8981 3.27253,-2.3313 0.6721,-2.02468 0.32718,-2.54366 -1.4468,-3.21864 -1.90972,-0.56276 -3.91001,-0.74323 -5.89264,-0.81554 -2.95383,-0.11109 -2.79674,-4.28844 0.15709,-4.17736 l 0,0 c 2.53591,0.0978 5.09627,0.3482 7.5019,1.2041 3.93448,1.99561 4.99387,4.72869 3.41242,8.89089 -1.84194,3.42646 -4.81525,5.3849 -8.79793,4.2239 -3.69769,-1.88155 -5.25001,-4.4978 -4.16804,-8.68096 1.36599,-3.17673 3.17242,-6.09282 6.28049,-7.82341 2.64386,-1.32193 4.51335,2.41705 1.86949,3.73898 z"
       id="path6855"
       style="fill:#000000;fill-opacity:1;fill-rule:nonzero;stroke:none" />
    <path
       style="fill:#000000;fill-opacity:1;fill-rule:nonzero;stroke:none"
       id="path6863"
       d="m 545.18136,293.20051 c -7.769,2.1611 -15.5372,4.31232 -23.25851,6.64272 -21.59024,6.42742 -42.85017,13.88179 -64.1297,21.25425 -27.86554,9.69085 -55.43376,20.20209 -83.13533,30.34602 -19.70453,7.18354 -39.3233,14.59825 -58.88838,22.15243 -7.88874,3.05845 -15.76544,6.14797 -23.62988,9.26837 -1.40405,0.55894 -0.7742,0.30753 -1.88989,0.75338 -2.7449,1.09682 -4.29607,-2.78499 -1.55118,-3.88185 l 0,0 c 1.12231,-0.44841 0.48922,-0.19596 1.89936,-0.75717 7.87642,-3.12516 15.76513,-6.21939 23.6659,-9.28247 19.58777,-7.56289 39.22929,-14.98621 58.95664,-22.17811 27.72449,-10.15231 55.3155,-20.67227 83.20428,-30.37058 21.33279,-7.39091 42.64628,-14.86283 64.29056,-21.30636 7.60942,-2.29567 15.25718,-4.44732 22.92749,-6.52749 2.74841,-1.08798 4.28705,2.79886 1.53865,3.88685 z"
       inkscape:connector-curvature="0" />
    <path
       style="fill:#000000;fill-opacity:1;fill-rule:nonzero;stroke:none"
       id="path6865"
       d="m 290.24212,383.63015 c -2.12773,1.12203 -4.00213,2.55219 -5.83159,4.09718 -1.34278,0.97756 -2.43659,2.26523 -3.13204,3.77623 -0.80677,1.75849 -1.02302,3.70707 -1.04145,5.63132 0.17992,2.48385 0.91675,4.91323 2.02592,7.13289 1.51082,2.16071 3.31406,4.17909 5.4155,5.78187 1.74195,1.34241 3.34596,1.11863 5.37618,0.65233 1.72408,-0.46838 3.39761,-1.09528 5.07328,-1.70887 2.77604,-1.01546 4.21213,2.91039 1.43609,3.92589 l 0,0 c -1.85475,0.67777 -3.70757,1.37025 -5.62153,1.86793 -3.21523,0.67054 -6.14081,0.66392 -8.84693,-1.45036 -2.55747,-2.04981 -4.8591,-4.45163 -6.59442,-7.24563 -1.34547,-2.83914 -2.32192,-5.87097 -2.44368,-9.0353 0.0652,-2.53745 0.3758,-5.10909 1.48237,-7.4222 1.02858,-1.97207 2.34849,-3.78669 4.17442,-5.10063 2.17212,-1.83232 4.43069,-3.52133 6.98921,-4.78947 2.74842,-1.08798 4.28705,2.79886 1.53864,3.88684 z"
       inkscape:connector-curvature="0" />
    <path
       inkscape:connector-curvature="0"
       d="m 293.94857,409.55368 c 7.78389,-2.10686 15.56691,-4.2039 23.30425,-6.4804 21.63453,-6.27675 42.94591,-13.58272 64.27633,-20.80665 27.93242,-9.49635 55.57324,-19.81516 83.34487,-29.76569 19.75413,-7.04601 39.42413,-14.32377 59.04139,-21.74136 7.90987,-3.00336 15.80791,-6.03791 23.69391,-9.10343 1.40767,-0.54972 0.7764,-0.30195 1.89499,-0.74045 2.7527,-1.0771 4.27655,2.81489 1.52404,3.89258 l 0,0 c -1.12519,0.44116 -0.49074,0.19216 -1.90447,0.74424 -7.89793,3.07044 -15.80811,6.10933 -23.73004,9.11725 -19.64002,7.42615 -39.33281,14.71236 -59.10984,21.76655 -27.79459,9.95874 -55.45826,20.28612 -83.41398,29.78977 -21.3838,7.242 -42.74887,14.56514 -64.43753,20.85763 -7.62524,2.24257 -15.28784,4.34085 -22.97245,6.36749 -2.75597,1.06871 -4.26744,-2.82869 -1.51155,-3.89746 z"
       id="path6871"
       style="fill:#000000;fill-opacity:1;fill-rule:nonzero;stroke:none" />
    <path
       inkscape:connector-curvature="0"
       d="m 549.51206,320.90358 c 2.13551,-1.10717 4.01982,-2.52422 5.86002,-4.05643 1.34955,-0.96817 2.45233,-2.24818 3.15829,-3.7543 0.819,-1.75284 1.04883,-3.69983 1.08068,-5.62394 -0.1626,-2.48501 -0.88248,-4.91949 -1.97614,-7.14682 -1.49573,-2.17118 -3.28487,-4.20209 -5.37507,-5.81948 -1.73254,-1.35453 -3.33807,-1.14194 -5.3715,-0.6898 -1.72729,0.45635 -3.40515,1.07157 -5.08507,1.67348 -2.7829,0.99646 -4.19174,-2.93969 -1.40863,-3.93582 l 0,0 c 1.85922,-0.66536 3.71704,-1.34433 5.63441,-1.82871 3.21981,-0.6481 6.14528,-0.62108 8.8366,1.51201 2.54311,2.0676 4.82794,4.4854 6.54373,7.29143 1.32567,2.84845 2.28095,5.887 2.38063,9.05212 -0.0829,2.53692 -0.41141,5.10633 -1.53407,7.41168 -1.0423,1.96485 -2.37483,3.77022 -4.20987,5.07139 -2.18485,1.81715 -4.45513,3.49035 -7.02243,4.74063 -2.75593,1.0688 -4.26743,-2.82867 -1.51146,-3.89748 z"
       id="path6873"
       style="fill:#000000;fill-opacity:1;fill-rule:nonzero;stroke:none" />
    <path
       style="fill:#000000;fill-opacity:1;fill-rule:nonzero;stroke:none"
       id="path6875"
       d="m 400.12397,377.47829 c 2.91202,1.55808 4.94372,3.71397 6.57318,6.55567 2.28732,3.79946 3.0471,8.15848 3.19396,12.52516 -0.15734,4.2229 -1.7589,7.99744 -4.02261,11.48803 -1.62724,2.46771 -5.1171,0.16645 -3.48987,-2.30126 l 0,0 c 1.84196,-2.73371 3.12495,-5.74129 3.33372,-9.07305 -0.0705,-3.68812 -0.73359,-7.38499 -2.65805,-10.58837 -1.18348,-2.15704 -2.61993,-3.67136 -4.79982,-4.8672 -2.64385,-1.32193 -0.77436,-5.06091 1.86949,-3.73898 z"
       inkscape:connector-curvature="0" />
    <path
       style="fill:#000000;fill-opacity:1;fill-rule:nonzero;stroke:none"
       id="path6877"
       d="m 457.18949,384.79618 c -1.1157,2.55955 -2.4445,5.00931 -3.83448,7.43059 -1.82854,3.20206 -4.47405,5.55214 -7.77909,7.11204 -2.70386,1.04796 -5.60472,1.23622 -8.47225,1.31404 -2.65885,0.22273 -4.66582,-0.85293 -6.45569,-2.70842 -1.44158,-1.78633 -1.8916,-3.99221 -2.10918,-6.21652 -0.17518,-1.73372 -0.16618,-3.36159 0.4786,-4.99608 1.05103,-1.68572 2.8547,-2.54435 4.63853,-3.2677 2.09675,-0.66835 4.30269,-0.83882 6.48816,-0.93846 1.21758,-0.0467 2.4362,-0.0465 3.65443,-0.0389 2.12272,0.42547 2.9523,2.12576 3.94367,3.8396 1.20012,1.7639 2.23252,3.66779 3.62099,5.29174 1.50579,2.03963 3.02323,3.97169 5.30206,5.15253 1.12637,0.51578 2.16183,0.42611 3.34025,0.24819 2.93928,-0.31321 3.38222,3.84357 0.44294,4.15677 l 0,0 c -2.03885,0.16723 -3.88849,0.22033 -5.7802,-0.73251 -2.70257,-1.51488 -4.74337,-3.62117 -6.51926,-6.15219 -1.50518,-1.84477 -2.74068,-3.89063 -4.03449,-5.88735 -0.2797,-0.49544 -0.61437,-0.95876 -0.88876,-1.45715 -0.0357,-0.0648 0.10001,-0.16517 0.0471,-0.21694 -0.0905,-0.0886 -0.4435,-0.19209 -0.31788,-0.2078 0.2745,-0.0344 0.54473,0.0969 0.8171,0.14533 -1.14708,-0.007 -2.29451,-0.008 -3.441,0.0348 -1.7307,0.0759 -3.47661,0.19578 -5.15425,0.65616 -0.73275,0.26696 -1.70028,1.00655 -2.30128,0.9831 -0.43171,0.90614 -0.2012,1.96853 -0.17464,2.9972 0.11269,1.28233 0.28653,2.61128 0.97708,3.72624 0.9814,1.05597 1.75211,1.59914 3.31515,1.40951 2.30377,-0.0592 4.64381,-0.16925 6.83989,-0.93484 2.54476,-1.11788 4.501,-2.98411 5.89794,-5.39597 1.35324,-2.34989 2.63963,-4.72857 3.71955,-7.2165 1.32192,-2.64385 5.0609,-0.77436 3.73897,1.86949 z"
       inkscape:connector-curvature="0" />
    <path
       style="fill:#000000;fill-opacity:1;fill-rule:nonzero;stroke:none"
       id="path6923"
       d="m 393.02436,212.29737 c 0.56399,0.33672 1.15248,0.63545 1.69199,1.01017 1.76751,1.22761 3.5765,2.8473 5.21545,4.19656 4.17012,3.43305 8.38691,6.80329 12.63586,10.13794 8.34672,6.67641 17.45444,12.32749 25.80322,18.99257 2.13771,1.88547 4.43089,3.67382 6.22781,5.90874 0.0478,0.0692 0.47655,0.66199 0.42423,0.72494 -4.05008,4.87305 -3.1549,2.61401 -2.35694,-1.45834 0.42119,-0.0735 0.84437,-0.13468 1.26854,-0.18803 1.60248,-0.28928 0.94098,2.64469 1.29943,4.07477 -2.18872,3.396 -3.9246,7.06081 -5.48465,10.77952 -2.87614,6.9446 -4.91414,14.1915 -6.62709,21.49854 -1.01879,5.54337 -2.67454,10.94311 -3.72716,16.47606 -0.52752,2.91562 -1.08443,5.82609 -1.21899,8.7905 -0.0871,0.022 0.0731,1.53171 -0.0148,1.00505 -1.01215,-0.46476 -2.21319,-0.64416 -3.03647,-1.39429 -0.27074,-0.2467 0.65166,-0.33896 0.99542,-0.46545 1.60561,-0.59079 3.51702,-0.72185 5.19082,-0.9008 6.41323,-0.62552 12.88088,-0.78873 19.31581,-0.47641 4.30916,0.34192 8.54857,1.09914 12.55508,2.74298 2.49499,1.28691 2.55713,0.69958 -1.62275,2.54628 -0.43883,-2.92316 3.69515,-3.54375 4.13399,-0.62058 l 0,0 c -3.85247,2.74035 -2.09376,2.90464 -4.10749,1.93783 -3.55693,-1.48227 -7.33794,-2.10195 -11.16498,-2.43129 -6.22381,-0.31287 -12.48116,-0.13788 -18.68431,0.4598 -4.59018,0.44293 -2.94909,1.16571 -7.64693,-0.45189 -0.13528,-0.70688 -0.10796,-1.42921 -0.0892,-2.14566 0.15044,-3.16235 0.71415,-6.2715 1.28881,-9.38091 1.07289,-5.58864 2.72214,-11.04821 3.76345,-16.64653 1.77082,-7.53393 3.87358,-15.00605 6.84412,-22.16559 1.7094,-4.04528 3.59024,-8.05161 6.03125,-11.71549 1.88227,-2.13951 0.7859,0.49721 2.50719,2.63379 -0.34166,0.0427 -0.68236,0.0928 -1.02178,0.15074 0.0844,-4.56722 0.81184,-5.52101 -2.25086,-1.05094 -0.0587,0.0856 0.10175,0.18088 0.15263,0.27132 0.003,-9.8e-4 0.006,-0.002 0.008,-0.003 -1.55631,-2.01855 -3.71917,-3.51671 -5.56206,-5.24037 -8.3312,-6.66648 -17.45026,-12.2846 -25.77435,-18.96971 -6.25584,-4.91072 -12.28993,-10.14964 -18.70262,-14.83222 -2.68758,-1.23062 -0.94723,-5.03142 1.74035,-3.80081 z"
       inkscape:connector-curvature="0" />
    <path
       style="fill:#000000;fill-opacity:1;fill-rule:nonzero;stroke:none"
       id="path6925"
       d="m 390.59664,213.4516 c 0.49675,5.70365 0.99041,11.40527 1.50673,17.1093 0.85782,8.32957 1.92551,16.64358 2.49235,25.00016 0.25911,3.77126 0.21624,7.56231 0.63509,11.32179 0.15981,1.31677 0.40204,2.6225 0.68456,3.91806 0.28901,1.20821 0.0607,0.32154 -2.24782,-1.10995 0.44704,-0.1449 0.90611,-0.24277 1.36982,-0.31361 3.3128,-0.0447 2.53423,2.97213 1.49238,4.47013 -2.06165,2.88613 -4.28822,5.64688 -6.37426,8.51869 -3.87629,6.08969 -7.62092,12.25943 -11.60575,18.28012 -2.77075,3.9578 -5.46747,7.95578 -8.07518,12.01874 -1.14327,1.92204 -2.67584,3.54548 -3.89053,5.41569 -0.16845,0.2764 -0.3367,0.55321 -0.49173,0.83734 0.0238,-0.0745 0.13195,-0.17371 0.0716,-0.22348 -7.92071,-6.53342 0.3354,0.28077 -0.75597,1.15533 -2.37697,-5.75864 0.51698,-3.37047 2.73024,-1.66906 2.78748,2.244 5.46393,4.63031 8.03704,7.11693 1.98481,2.06025 3.78875,4.3171 5.85355,6.29718 1.81407,1.27917 3.15463,3.06276 4.82902,4.48933 0.37662,0.31434 0.84664,0.65689 1.24336,0.89117 -1.32422,-0.53969 -0.41259,-0.0672 -3.03806,1.80251 -0.61114,-2.89205 3.47885,-3.75633 4.08999,-0.86425 l 0,0 c -2.00136,2.37581 -1.40253,3.50571 -2.96905,2.77655 -0.7388,-0.39354 -1.40236,-0.91141 -2.05144,-1.43606 -1.72936,-1.49694 -3.15612,-3.30715 -5.01892,-4.66303 -2.03906,-2.00553 -3.89386,-4.20199 -5.84696,-6.2908 -2.46398,-2.3931 -5.04227,-4.67477 -7.71318,-6.83399 -1.95674,-1.59415 -1.76146,-1.31567 -2.75968,-4.87858 0.35565,-0.28499 7.51062,7.65306 -0.68833,1.10463 0.0276,-0.0897 0.0553,-0.17936 0.0828,-0.26902 0.23468,-0.57375 0.56701,-1.1001 0.89343,-1.62503 1.21598,-1.86073 2.71447,-3.49417 3.87606,-5.39332 2.6229,-4.07586 5.3193,-8.09699 8.10638,-12.06659 4.02062,-6.06981 7.78241,-12.30027 11.70944,-18.42954 2.07401,-2.85354 4.28523,-5.59819 6.33578,-8.46484 0.62318,-0.873 -0.15178,0.23222 0.28466,0.72935 0.54225,0.61765 1.37084,0.90716 2.05626,1.36073 0.0421,-0.004 0.0847,-0.004 0.12659,-0.0115 -0.18218,0.0335 -0.39398,0.0718 -0.57907,0.13103 -2.81546,-1.1544 -2.8127,-0.32964 -3.16717,-1.96374 -0.31265,-1.43815 -0.58017,-2.8875 -0.75508,-4.34933 -0.41698,-3.81948 -0.40565,-7.66669 -0.65078,-11.49861 -0.55766,-8.32513 -1.6388,-16.60624 -2.48483,-24.90471 -0.50015,-5.53265 -1.01977,-11.05869 -1.42826,-16.59773 -0.62806,-2.88844 3.45679,-3.77664 4.08485,-0.8882 z"
       inkscape:connector-curvature="0" />
    <path
       style="fill:#000000;fill-opacity:1;fill-rule:nonzero;stroke:none"
       id="path6937"
       d="m 386.60526,213.69151 c -0.0527,-2.84602 -0.35565,-5.66234 -0.36619,-8.51105 -0.12211,-4.42879 -0.0662,-8.86419 0.0742,-13.2925 0.53218,-5.71599 1.06255,-11.43596 1.64411,-17.14814 0.44912,-5.08975 0.75653,-10.19185 1.22792,-15.27888 0.33998,-4.77477 0.69069,-9.54986 1.17231,-14.31275 0.43088,-4.21357 0.99857,-8.41478 1.55199,-12.61429 0.34032,-3.34301 0.74213,-6.67903 1.08806,-10.02219 0.011,-1.81968 0.32509,-3.60719 0.40144,-5.42409 0.30728,-1.91235 0.46679,-3.84893 1.31114,-5.61069 0.33338,-1.03539 0.91511,-1.95527 1.34032,-2.9561 -3.8e-4,-0.40978 0.0242,-0.82094 8.9e-4,-1.23304 -0.009,-0.0451 0.0196,0.0897 0.0287,0.13472 -0.78221,-2.85055 3.24907,-3.95675 4.03129,-1.1062 l 0,0 c 0.0543,0.22596 0.0977,0.45358 0.11064,0.68629 0.0674,1.06474 0.005,2.13683 -0.32666,3.15911 -0.47468,1.10824 -1.08496,2.05732 -1.4532,3.19877 -0.66742,1.16199 -0.49561,2.63117 -0.86664,3.907 -0.0837,1.90267 -0.40145,3.76978 -0.41975,5.67455 -0.35011,3.38236 -0.75706,6.75733 -1.1019,10.13954 -0.55097,4.15705 -1.10913,8.31697 -1.53725,12.48802 -0.48242,4.75139 -0.82699,9.51559 -1.16901,14.27879 -0.4769,5.09883 -0.77602,10.2142 -1.23152,15.31573 -0.57418,5.61537 -1.08553,11.23955 -1.62465,16.85747 -0.14133,4.37893 -0.19319,8.765 -0.0721,13.1444 0.009,2.89585 0.34664,5.75904 0.36423,8.65457 -0.0913,2.95451 -4.26957,2.82547 -4.17833,-0.12904 z"
       inkscape:connector-curvature="0" />
    <path
       style="fill:#000000;fill-opacity:1;fill-rule:nonzero;stroke:none"
       id="path6939"
       d="m 395.4256,105.02431 c 1.95857,1.04126 4.09308,1.65141 6.2421,2.15611 1.85243,0.35914 3.71474,0.13642 5.55341,-0.17118 1.43784,-0.25339 2.86197,-0.57594 4.28574,-0.89729 1.02967,-0.16126 1.90895,-0.42019 2.78643,-0.9291 1.04832,-1.01553 2.0789,-2.03627 2.99056,-3.18479 0.78773,-1.10499 1.38217,-2.369892 1.91134,-3.625986 0.66634,-1.22199 0.86573,-2.560196 0.94241,-3.927141 0.16736,-1.209762 0.54002,-2.378242 1.00294,-3.504585 -0.19814,0.896405 -0.53893,-1.86917 -0.57872,-2.058694 -0.34472,-1.604175 -0.70018,-3.206014 -1.05271,-4.80848 -0.28127,-1.620182 -0.65604,-3.14376 -1.36045,-4.623162 -0.4932,-1.315034 -1.24977,-2.327032 -2.12601,-3.378174 -0.94926,-0.617498 -1.95094,-1.147203 -2.93365,-1.708151 -1.16214,-0.372011 -1.81001,-1.543526 -2.8254,-2.063924 -0.83152,-0.841889 -1.7765,-0.885081 -2.83585,-1.262394 -0.65462,-0.409153 -1.30629,-0.652836 -2.06408,-0.568162 -1.54096,0.325852 -3.04528,0.327783 -4.5963,0.06566 -0.91127,-0.145614 -1.80855,-0.115754 -2.71551,0.02072 -1.09859,0.182386 -2.18606,0.425598 -3.27353,0.664101 -0.66913,0.670124 -1.55074,1.148485 -2.38705,1.607416 -0.64858,0.837957 -1.69142,1.229012 -2.43168,1.953849 -0.77614,0.859676 -1.61488,1.70424 -2.28733,2.646534 -0.48652,0.78871 -1.48081,1.750214 -1.86092,2.259178 -0.68067,0.998237 -1.12388,2.134983 -1.66201,3.216004 -0.17304,1.086126 -0.17881,2.167185 -0.39845,3.258357 -0.24542,1.185821 -0.16876,2.375272 -0.0241,3.565706 0.18517,1.246968 0.45799,2.478152 0.72637,3.709136 0.31174,1.419558 0.62445,2.838912 0.93521,4.258682 0.0785,1.251727 0.78628,2.053942 1.41229,3.07178 0.77279,1.04356 1.547,2.00808 2.58302,2.79536 1.06777,0.81424 2.27979,1.35503 3.44932,1.9878 1.50037,0.69922 3.16618,0.73939 4.73879,1.22478 0.78301,0.29033 0.43726,0.20081 1.02233,0.32088 2.86961,0.70909 1.86679,4.76734 -1.00282,4.05823 l 0,0 c -0.97679,-0.25894 -0.55474,-0.1161 -1.27775,-0.39266 -1.81791,-0.59317 -3.81878,-0.52577 -5.50506,-1.55386 -1.33263,-0.76528 -2.76634,-1.35726 -3.97732,-2.33465 -1.42702,-1.11103 -2.56959,-2.45613 -3.60345,-3.93584 -0.8232,-1.38195 -1.77865,-2.68024 -1.92288,-4.347541 -0.31106,-1.421167 -0.62407,-2.8419 -0.93611,-4.262855 -0.29662,-1.361196 -0.59721,-2.723025 -0.79267,-4.103414 -0.19298,-1.637843 -0.25642,-3.281401 0.0813,-4.908519 0.30663,-1.424126 0.0957,-2.918659 0.74987,-4.274486 0.51283,-1.029919 0.96864,-2.148936 1.5962,-3.077498 0.59968,-1.219346 1.59358,-1.991863 2.35623,-3.084319 0.89553,-1.123459 1.81927,-2.238417 2.84997,-3.245169 1.03094,-0.862193 2.16848,-1.579887 3.17591,-2.473135 1.19062,-0.648285 2.20435,-1.566615 3.49725,-2.023002 1.1875,-0.260253 2.37509,-0.525643 3.57576,-0.718865 1.3416,-0.186033 2.68143,-0.224283 4.02433,-0.0014 1.25785,0.22722 2.38875,0.117899 3.65242,-0.121085 1.34478,-0.04475 2.72169,0.127354 3.88334,0.876438 1.11194,0.303717 2.51172,0.606148 3.35236,1.517903 1.01997,0.621381 1.70547,1.540038 2.7915,2.044351 1.41399,0.808322 2.91658,1.516306 4.08508,2.678079 1.07462,1.323748 2.04323,2.64487 2.68015,4.250912 0.83169,1.768477 1.33569,3.585532 1.66398,5.511555 0.35546,1.615941 0.71415,3.231191 1.0615,4.848906 0.31221,1.489033 0.76884,3.002781 0.35041,4.51477 -0.29125,0.697283 -0.51948,1.419446 -0.69293,2.154923 -0.11396,1.838107 -0.41471,3.659312 -1.26884,5.315941 -0.68468,1.5968 -1.46116,3.20294 -2.493,4.59983 -1.2426,1.54495 -2.61753,2.96592 -4.17476,4.1998 -1.24898,0.71148 -2.53035,1.15284 -3.94681,1.38113 -1.50233,0.33905 -3.00529,0.67823 -4.52283,0.94363 -2.38695,0.39204 -4.8021,0.61874 -7.19694,0.11558 -2.607,-0.61811 -5.19492,-1.38418 -7.54214,-2.70813 -2.48652,-1.59833 -0.22615,-5.11481 2.26039,-3.51649 z"
       inkscape:connector-curvature="0" />
    <path
       style="fill:#000000;fill-opacity:1;fill-rule:nonzero;stroke:none"
       id="path6949"
       d="m 394.59748,120.89032 c 3.93885,3.23571 5.96557,8.27566 8.40823,12.63954 4.22194,7.73488 8.46474,15.46045 12.89258,23.07952 2.05241,3.48574 4.00094,7.03536 5.77529,10.67114 1.13843,2.42851 0.85017,1.4617 -3.32888,2.85214 -0.31161,-2.77256 0.61885,-3.62477 3.0056,-3.48039 0.30267,0.0185 0.59756,0.0785 0.8855,0.1709 -0.26325,-0.0425 -0.53571,-0.0465 -0.78975,-0.12763 -0.26446,-0.0844 0.55153,-0.0865 0.8136,-0.17793 0.79095,-0.27701 1.60597,-0.82356 2.32557,-1.23395 4.90298,-3.00273 9.80765,-5.99255 14.84415,-8.77354 6.04258,-3.41742 12.28245,-6.51428 18.63022,-9.3259 3.80599,-1.67486 7.35155,-3.84892 11.07973,-5.67834 1.3435,-0.62468 2.69071,-1.2504 4.08295,-1.76072 0.93574,-0.39754 -1.13085,0.96125 -1.2323,1.68657 -0.24985,-2.94534 3.91549,-3.29869 4.16535,-0.35335 l 0,0 c -0.003,1.25901 -0.12585,1.47563 -1.50022,2.59386 -1.25559,0.45506 -2.46393,1.03229 -3.67676,1.58771 -3.77906,1.84787 -7.36474,4.06454 -11.22725,5.74707 -6.23792,2.75715 -12.36478,5.80732 -18.30133,9.16276 -5.02557,2.77396 -9.91746,5.75983 -14.81026,8.75461 -1.80194,1.00805 -3.67611,2.15494 -5.81509,1.83388 0.078,0.0245 0.31564,0.0854 0.23658,0.0646 -0.6408,-0.0984 3.86548,-2.14588 0.77091,-2.99529 -4.12482,2.02577 -3.06347,3.06636 -3.91539,1.28599 -1.72872,-3.54564 -3.63206,-7.00494 -5.63268,-10.40383 -4.43735,-7.6394 -8.69484,-15.3823 -12.92581,-23.13778 -2.11477,-3.7782 -3.88698,-8.12019 -7.02085,-11.16484 -2.48653,-1.59832 -0.22615,-5.1148 2.26037,-3.51648 z"
       inkscape:connector-curvature="0" />
    <path
       style="fill:#000000;fill-opacity:1;fill-rule:nonzero;stroke:none"
       id="path6955"
       d="m 392.59061,122.92569 c -2.64221,3.61891 -6.47961,5.98801 -10.05836,8.56142 -5.73537,4.09865 -11.31994,8.41283 -17.12173,12.41658 -4.14533,2.76577 -8.22896,5.62389 -12.11912,8.74026 -0.73361,0.62606 -1.51093,1.20901 -2.19996,1.88602 -6.02763,-9.02521 0.45112,-0.11661 -0.5623,0.42633 -1.64778,-3.28586 -2.71857,-6.93115 -0.23876,0.057 -0.147,0.0469 -0.56282,0.23547 -0.44098,0.14081 0.2264,-0.17595 0.51887,-0.24712 0.79014,-0.34001 0.0573,-0.25224 -0.0302,-0.5638 -0.0805,-0.81824 0.0708,1.63144 -0.29155,2.94919 -0.14207,4.56486 0.5127,3.62585 1.3044,7.2062 2.06522,10.78626 0.58735,3.85489 2.17463,7.26882 4.24109,10.5183 1.60301,2.2865 3.39904,4.41495 5.31012,6.44717 0.22215,0.25139 0.88882,0.90034 1.02746,1.02709 -0.78782,-0.71605 0.75254,1.19061 0.87465,1.81494 0.56714,2.901 -3.53549,3.70307 -4.10262,0.80211 l 0,0 c -0.2924,-1.4963 1.4083,1.48023 0.62164,0.65132 -0.52815,-0.43513 -0.98729,-0.9471 -1.46734,-1.43262 -2.08956,-2.22479 -4.05187,-4.55842 -5.79298,-7.06931 -2.32744,-3.67123 -4.1075,-7.55329 -4.801,-11.89001 -0.79644,-3.74801 -1.62905,-7.49672 -2.14113,-11.29652 -0.0308,-0.37899 0.003,-6.7378 0.56666,-3.05671 -0.26287,-0.75243 -0.44589,-1.24908 -0.24735,-2.01043 0.30206,-1.18711 0.93675,-2.39408 2.23515,-2.74702 4.50471,8.02337 0.82946,1.75313 -0.25156,0.16647 0.25161,-0.13484 6.16137,9.05806 -0.59643,0.49845 0.0476,-0.0539 0.0953,-0.10771 0.14302,-0.16155 0.80049,-0.80614 1.71328,-1.49301 2.57689,-2.22751 3.96908,-3.17731 8.1301,-6.09868 12.3592,-8.91878 5.78235,-3.9833 11.33826,-8.29106 17.05439,-12.36917 3.15493,-2.26795 6.55809,-4.32098 8.98213,-7.42768 1.59832,-2.48653 5.11481,-0.22615 3.51648,2.26038 z"
       inkscape:connector-curvature="0" />
    <path
       style="fill:#000000;fill-opacity:1;fill-rule:nonzero;stroke:none"
       id="path6957"
       d="m 518.12744,354.60794 c 0.0601,4.30879 0.45135,8.61357 0.84125,12.91159 0.4499,4.67738 0.79159,9.36003 1.01322,14.04666 0.0588,1.45046 0.0334,0.78874 0.0777,1.98513 0.0386,1.04148 -1.91154,1.0827 -1.95014,0.0412 l 0,0 c -0.0441,-1.19003 -0.0188,-0.53209 -0.0772,-1.97379 -0.22074,-4.67058 -0.56154,-9.33719 -1.0099,-13.99855 -0.3927,-4.33155 -0.78651,-8.66985 -0.84581,-13.01228 0,-1.04188 1.9509,-1.04188 1.9509,0 z"
       inkscape:connector-curvature="0" />
    <path
       style="fill:#000000;fill-opacity:1;fill-rule:nonzero;stroke:none"
       id="path6959"
       d="m 509.97549,372.0748 c 3.76099,0.10851 7.38993,-0.81369 10.97733,-1.54205 2.7516,-0.59788 1.41545,-0.30783 4.0084,-0.87025 1.3259,-0.28759 1.86441,1.1286 0.53851,1.41619 l 0,0 c -2.6031,0.56463 -1.25628,0.27232 -4.04044,0.87698 -3.85339,0.78235 -7.76209,1.76489 -11.80453,1.57252 -1.36072,-0.17128 -1.03999,-1.62467 0.32073,-1.45339 z"
       inkscape:connector-curvature="0" />
    <path
       style="fill:#000000;fill-opacity:1;fill-rule:nonzero;stroke:none"
       id="path6961"
       d="m 531.84257,373.87431 c 0.65755,1.87885 1.56899,3.69814 2.3476,5.54865 0.66392,1.46777 1.301,2.94245 1.91662,4.42216 0.0308,0.0748 0.1854,0.18989 0.0923,0.22454 -0.59621,0.22201 -1.24247,0.50468 -1.90322,0.44976 -0.30715,-0.0255 -0.2722,-0.42001 -0.37783,-0.63932 -0.50486,-1.04827 -0.77767,-2.16554 -1.079,-3.25289 -0.37344,-1.95253 -0.48271,-3.98091 0.18283,-5.90898 0.37715,-1.09258 0.71067,-1.49762 1.34389,-2.48803 1.32562,-1.63431 2.89905,-2.43015 5.37935,-2.6749 1.37141,-0.11257 1.58221,1.35224 0.21079,1.46481 l 0,0 c -1.69588,0.0937 -2.94279,0.75965 -3.8367,1.85603 -0.53306,0.81592 -0.85957,1.22001 -1.18039,2.11581 -0.62195,1.73667 -0.51307,3.57182 -0.19001,5.33427 0.33183,1.20473 0.28812,1.14075 0.69207,2.26796 0.0857,0.23906 0.17424,0.47769 0.27479,0.71342 0.0554,0.12979 0.31101,0.27941 0.19259,0.38233 -0.41724,0.36262 -0.99779,0.61049 -1.57228,0.81672 -0.0918,0.033 -0.0603,-0.14657 -0.0904,-0.21985 -0.61499,-1.4783 -1.2519,-2.95145 -1.91483,-4.41789 -0.79914,-1.90209 -1.74324,-3.77078 -2.40123,-5.70564 -0.27054,-1.02165 1.64247,-1.31061 1.91302,-0.28896 z"
       inkscape:connector-curvature="0" />
    <path
       style="fill:#000000;fill-opacity:1;fill-rule:nonzero;stroke:none"
       id="path6963"
       d="m 546.68826,375.83608 c 1.24459,0.83561 2.74212,1.3318 4.36188,1.57004 2.16225,0.1406 3.59888,-0.89463 4.64856,-2.2 0.72274,-1.14777 1.26504,-2.68618 -0.0123,-3.75662 -0.19207,-0.16097 -0.45045,-0.26848 -0.67568,-0.40272 -2.82643,-1.19966 -4.33023,0.34769 -5.74829,2.06526 -1.45026,2.5394 -2.21842,5.52 -0.89134,8.19687 0.2232,0.45022 0.57643,0.85727 0.86465,1.2859 0.92111,0.95548 2.06082,1.75694 3.70726,1.84458 0.42407,0.0225 0.84499,-0.0713 1.26748,-0.10692 1.37643,-0.0694 1.50641,1.40075 0.12998,1.47016 l 0,0 c -0.6432,0.0181 -1.29155,0.11831 -1.9296,0.0543 -2.18803,-0.21943 -3.72324,-1.2992 -4.92447,-2.6099 -0.33558,-0.52572 -0.74792,-1.02724 -1.00674,-1.57715 -1.44981,-3.08038 -0.59589,-6.46416 1.1416,-9.35449 0.40553,-0.46524 0.74431,-0.96791 1.21659,-1.39573 2.10126,-1.90343 4.71878,-2.28978 7.46805,-0.97479 0.35661,0.25587 0.76907,0.47364 1.06982,0.7676 1.61493,1.57848 1.05524,3.64617 -0.0275,5.28035 -1.71346,1.99169 -3.40294,3.03607 -6.69193,2.85638 -1.98643,-0.32238 -3.83561,-0.91833 -5.34754,-1.97126 -0.97545,-0.73672 0.40404,-1.7786 1.3795,-1.04188 z"
       inkscape:connector-curvature="0" />
    <path
       style="fill:#000000;fill-opacity:1;fill-rule:nonzero;stroke:none"
       id="path6965"
       d="m 570.21515,369.5503 c 1.16681,0 2.33363,0 3.50045,0 0.80803,0.002 0.55497,-0.0811 -0.50782,1.24861 -0.0359,0.0449 -0.13201,-0.0331 -0.19981,-0.0444 -0.45987,-0.0764 -0.36413,-0.0522 -0.8865,-0.0414 -2.88924,0.5171 -4.67698,2.55987 -6.13976,4.34881 -1.25294,2.12257 -3.1182,4.51348 -2.74114,6.94925 0.0404,0.26069 0.20541,0.50149 0.30811,0.75223 0.16382,0.14193 0.28173,0.32398 0.49145,0.42578 1.4199,0.68925 4.18532,-1.36964 4.98205,-1.94902 2.36957,-2.11734 3.89558,-4.70594 4.57532,-7.42091 0.0602,-0.44975 0.15701,-0.64481 0.0326,-1.04206 -0.0239,-0.0763 -0.0659,0.1959 0.0245,0.23433 0.33458,0.14225 0.76594,0.10962 1.1049,0.24582 0.10924,0.0439 -0.086,0.60521 -0.15896,0.87906 -0.59198,2.14095 0.1009,4.09669 1.52413,5.94854 1.00358,1.04182 2.34083,1.68937 3.95396,2.04195 1.32004,0.30259 0.75344,1.71252 -0.56659,1.40993 l 0,0 c -2.08571,-0.49467 -3.81767,-1.33579 -5.08167,-2.72145 -1.67717,-2.25042 -2.4191,-4.40719 -1.73709,-6.98887 0.083,-0.27783 0.34789,-1.50483 0.80137,-1.69096 2.30243,-0.94503 2.22355,1.01372 2.01828,1.96366 -0.78759,3.01426 -2.45861,5.88059 -5.148,8.20991 -0.52657,0.37255 -1.01447,0.77897 -1.57972,1.11765 -1.71756,1.02912 -4.39103,1.96109 -6.32171,0.63015 -0.35643,-0.2457 -0.53269,-0.60785 -0.79903,-0.91177 -0.12473,-0.38961 -0.3222,-0.76992 -0.37418,-1.16883 -0.35253,-2.70531 1.59372,-5.34202 3.03604,-7.69398 1.8555,-2.22848 4.12354,-4.6144 7.81568,-5.04258 0.76013,0.0184 0.87886,-0.0221 1.56037,0.13778 1.12653,0.26429 0.5531,0.33583 0.26818,1.64615 -0.0138,0.0633 -0.3532,-0.16301 -0.25489,0 -1.16682,0 -2.33363,0 -3.50045,0 -1.37949,0 -1.37949,-1.47344 0,-1.47344 z"
       inkscape:connector-curvature="0" />
    <path
       style="fill:#000000;fill-opacity:1;fill-rule:nonzero;stroke:none"
       id="path6967"
       d="m 590.83342,371.47044 c 1.12915,-0.15869 2.26396,-0.28887 3.40503,-0.38675 1.28892,-0.10262 0.24571,-0.0881 -0.0898,0.36386 -0.57819,-0.40344 -1.34742,-0.58845 -2.15443,-0.56025 -2.67883,0.82926 -3.83177,3.12047 -4.74313,5.026 -0.56306,1.90765 -1.81402,4.49454 -0.64487,6.41352 0.13923,0.22852 0.38679,0.40961 0.58019,0.61441 0.24199,0.0917 0.46132,0.23195 0.72598,0.27497 2.53657,0.41222 5.12482,-3.30821 6.06187,-4.49193 2.83627,-4.36012 4.24546,-9.21016 4.63544,-14.0478 0.0795,-0.98664 0.0478,-1.97661 0.0717,-2.96492 -0.14659,-2.36376 -0.43552,-4.73742 -1.39566,-7.0029 -0.22563,-0.53238 -0.77986,-1.74861 -1.46879,-2.2124 -0.11398,-0.0767 -0.3052,-0.008 -0.4578,-0.0117 -0.002,0.12334 0.0443,0.25304 -0.007,0.37002 -1.10531,2.49489 -0.012,-1.37233 -1.21787,2.56313 -0.86452,2.82132 -1.05876,5.70339 -1.27955,8.5821 0.0212,4.59678 0.18905,9.4313 2.69107,13.71297 0.28074,0.48042 0.64887,0.92892 0.9733,1.39338 1.0926,1.06521 0.49604,0.68471 1.65309,1.25351 1.11873,0.60959 -0.0227,1.80451 -1.14145,1.19492 l 0,0 c -1.63296,-0.94573 -0.86264,-0.37478 -2.24035,-1.76554 -0.35712,-0.51969 -0.76176,-1.02227 -1.07135,-1.55907 -2.58378,-4.48011 -2.81191,-9.50998 -2.8119,-14.31593 0.23231,-2.99037 0.41342,-6.0115 1.36511,-8.936 0.28617,-0.87938 0.97038,-2.70006 2.04608,-3.37302 0.48847,-0.30558 1.19571,-0.31998 1.79357,-0.47997 0.44222,0.18384 0.9614,0.28837 1.32665,0.55151 0.77446,0.55796 1.45868,1.99737 1.7352,2.65966 1.00097,2.39735 1.31533,4.90422 1.45866,7.40352 -0.0272,1.02889 0.003,2.05957 -0.0815,3.08669 -0.4157,5.05414 -1.91093,10.11371 -4.90503,14.65806 -1.6571,2.06412 -4.63636,6.23847 -8.78957,4.9704 -0.49931,-0.15245 -0.87273,-0.47679 -1.3091,-0.71519 -0.275,-0.34386 -0.62076,-0.66067 -0.82501,-1.03159 -1.27622,-2.31762 -0.014,-5.01895 0.69702,-7.30067 1.02971,-2.10512 2.38916,-4.69744 5.30825,-5.71294 0.41273,-0.14357 0.87451,-0.18682 1.31176,-0.28022 1.83165,0.0808 3.31144,0.42779 4.03834,1.81056 0.0254,1.0198 -0.37567,1.26226 -1.6188,1.32292 -1.08656,0.093 -2.16698,0.21709 -3.24233,0.36753 -1.3527,0.20433 -1.7353,-1.2405 -0.3826,-1.44483 z"
       inkscape:connector-curvature="0" />
    <path
       style="fill:#000000;fill-opacity:1;fill-rule:nonzero;stroke:none"
       id="path6969"
       d="m 609.8196,372.6041 c -0.0812,2.54492 0.2337,5.08015 0.57194,7.6087 0.26228,1.8478 0.49204,3.6981 0.67527,5.55133 0.22335,0.26081 -0.23529,-0.27507 -0.24036,-0.27584 -0.40759,-0.0617 -0.82413,0.1428 -1.238,0.11342 -0.0886,-0.006 -0.0105,-0.13456 -0.005,-0.20166 0.0383,-0.45272 0.13859,-0.97953 0.21175,-1.41809 0.26985,-2.59403 1.06195,-5.09751 2.36201,-7.50078 1.31358,-2.12466 3.06675,-4.09486 5.81037,-5.26777 0.36294,-0.0467 0.7235,-0.17451 1.08881,-0.14 2.6077,0.24635 2.69538,2.9963 2.91687,4.461 0.32059,1.5482 0.0876,3.24795 0.74129,4.7536 -0.13254,-0.0369 0.35279,0.32213 0.23075,0.26842 -0.18747,-0.0825 -0.3554,-0.19758 -0.5616,-0.2486 -0.12234,-0.0303 -0.31865,0.0972 -0.38574,0.0142 -0.0653,-0.0808 0.1365,-0.15868 0.20475,-0.23801 1.1528,-1.6789 2.49025,-3.26294 3.9714,-4.78804 0.70471,-0.56049 2.48491,-2.56611 3.79366,-2.29314 0.42141,0.0879 0.73001,0.36347 1.09501,0.5452 1.07146,2.17231 1.16182,4.56056 1.52941,6.84876 0.42096,1.53432 0.46439,3.26767 1.49746,4.67014 0.16186,-0.0267 0.10964,0.005 -0.0279,-0.14927 1.371,0.11541 1.15491,1.57978 -0.21609,1.46437 l 0,0 c -1.17645,-0.25804 -0.69337,-0.0304 -1.48683,-0.63528 -1.05917,-1.60216 -1.3299,-3.42581 -1.70332,-5.1725 -0.32551,-2.02631 -0.57926,-4.06283 -1.07575,-6.06891 0.14815,-0.01 0.30394,0.007 0.44446,-0.0297 0.0506,-0.0133 0.12875,-0.11486 0.0763,-0.1067 -0.8328,0.12951 -1.73194,1.42999 -2.3538,1.79898 -1.48438,1.52575 -2.79299,3.12053 -3.97259,4.78926 -1.22904,1.19093 -2.25369,1.04193 -2.92952,-0.24912 -0.60022,-1.61859 -0.56759,-3.34838 -0.80997,-5.00861 -0.13475,-0.91602 -0.27712,-1.78816 -0.62557,-2.67256 -0.0423,-0.1073 -0.10049,-0.21106 -0.13606,-0.31973 -0.0178,-0.0545 0.0373,-0.13512 -0.0234,-0.16756 -0.0958,-0.0512 -0.23315,-0.0213 -0.34972,-0.0319 -2.39222,0.92318 -3.77659,2.78592 -4.93822,4.53357 -1.24841,2.27921 -1.9711,4.66283 -2.23093,7.12539 -0.0399,0.23783 -0.22277,2.0098 -0.4345,2.14719 -1.27863,0.82965 -1.87419,0.44994 -2.17502,-0.44005 -0.18188,-1.84042 -0.41035,-3.67792 -0.6708,-5.51295 -0.34464,-2.57773 -0.66278,-5.16242 -0.58181,-7.75677 0,-1.04188 1.95089,-1.04188 1.95089,0 z"
       inkscape:connector-curvature="0" />
    <path
       style="fill:#000000;fill-opacity:1;fill-rule:nonzero;stroke:none"
       id="path6971"
       d="m 639.30564,375.03365 c 2.11079,0.55362 2.42186,2.29161 2.72484,3.74955 0.18222,1.47471 0.48295,2.93962 0.78125,4.40306 0.0185,0.0705 0.037,0.141 0.0556,0.21151 0.26474,1.02251 -1.6499,1.30527 -1.91464,0.28276 l 0,0 c -0.023,-0.09 -0.0461,-0.18006 -0.0691,-0.27009 -0.2982,-1.46319 -0.60015,-2.92787 -0.78111,-4.40239 -0.16116,-0.80338 -0.18482,-2.10689 -1.26995,-2.54495 -1.33831,-0.25269 -0.86515,-1.68214 0.47316,-1.42945 z"
       inkscape:connector-curvature="0" />
    <path
       style="fill:#000000;fill-opacity:1;fill-rule:nonzero;stroke:none"
       id="path6973"
       d="m 638.43276,370.48442 c 0.15574,-0.91477 0.30242,-1.83553 0.55397,-2.73893 0.28822,-1.01889 2.19606,-0.71104 1.90784,0.30784 l 0,0 c -0.23156,0.80138 -0.33583,1.62229 -0.51091,2.43109 0,1.04187 -1.9509,1.04187 -1.9509,0 z"
       inkscape:connector-curvature="0" />
    <path
       style="fill:#000000;fill-opacity:1;fill-rule:nonzero;stroke:none"
       id="path6975"
       d="m 655.99083,353.39065 c -0.32081,2.40214 -0.61241,4.80609 -0.82918,7.21502 -0.57195,4.86932 -0.81642,9.75442 -0.98541,14.6396 0.14408,2.87157 -0.14048,5.80238 0.55646,8.64292 0.0614,0.11128 0.12285,0.22255 0.18428,0.33383 0.48824,0.97444 -1.33637,1.49593 -1.82462,0.52149 l 0,0 c -0.0929,-0.19673 -0.18581,-0.39347 -0.27871,-0.59021 -0.70482,-2.94391 -0.46484,-5.97046 -0.58764,-8.94653 0.16983,-4.9057 0.4153,-9.81133 0.98925,-14.70113 0.21426,-2.37541 0.49005,-4.74773 0.82468,-7.11499 0,-1.04188 1.95089,-1.04188 1.95089,0 z"
       inkscape:connector-curvature="0" />
    <path
       style="fill:#000000;fill-opacity:1;fill-rule:nonzero;stroke:none"
       id="path6977"
       d="m 665.80416,353.73731 c 0.54134,3.18689 0.16295,6.42431 -0.13886,9.61474 -0.53852,5.35677 -1.1443,10.70844 -1.56537,16.07162 -0.11758,1.54958 -0.20572,3.10027 -0.28823,4.65109 -0.0554,1.04104 -2.00473,0.98188 -1.94933,-0.0592 l 0,0 c 0.083,-1.56019 0.17176,-3.12022 0.29008,-4.67916 0.42167,-5.36915 1.02746,-10.72683 1.56694,-16.08955 0.29034,-3.05975 0.65435,-6.16204 0.17176,-9.22062 -0.27054,-1.02164 1.64247,-1.3106 1.91301,-0.28896 z"
       inkscape:connector-curvature="0" />
    <path
       style="fill:#000000;fill-opacity:1;fill-rule:nonzero;stroke:none"
       id="path6979"
       d="m 500.80334,372.74396 c -3.71035,0.0953 -7.27751,-0.79018 -10.65353,-2.26288 -3.58491,-1.39003 -6.53394,-3.58753 -9.03444,-6.46668 -2.30179,-3.10295 -4.86314,-5.96336 -7.49958,-8.77611 -0.3787,-0.41085 -0.7574,-0.8217 -1.13609,-1.23254 -0.66779,-0.7245 0.3568,-1.66889 1.02459,-0.94439 l 0,0 c 0.37608,0.40803 0.75217,0.81607 1.12825,1.2241 2.64851,2.8268 5.22541,5.69868 7.53681,8.81747 2.35358,2.73422 5.14986,4.7886 8.53996,6.10198 3.19448,1.40812 6.57897,2.23624 10.09403,2.14561 0.9853,0 0.9853,1.39344 0,1.39344 z"
       inkscape:connector-curvature="0" />
  </g>
</svg>
