<?xml version="1.0" encoding="UTF-8" standalone="no"?>
<!-- Created with Inkscape (http://www.inkscape.org/) -->

<svg
   xmlns:dc="http://purl.org/dc/elements/1.1/"
   xmlns:cc="http://creativecommons.org/ns#"
   xmlns:rdf="http://www.w3.org/1999/02/22-rdf-syntax-ns#"
   xmlns:svg="http://www.w3.org/2000/svg"
   xmlns="http://www.w3.org/2000/svg"
   xmlns:sodipodi="http://sodipodi.sourceforge.net/DTD/sodipodi-0.dtd"
   xmlns:inkscape="http://www.inkscape.org/namespaces/inkscape"
   width="555.66888"
   height="212.34805"
   id="svg35389"
   version="1.1"
   inkscape:version="0.48.0 r9654"
   sodipodi:docname="New document 141">
  <defs
     id="defs35391" />
  <sodipodi:namedview
     inkscape:document-units="mm"
     pagecolor="#ffffff"
     bordercolor="#666666"
     borderopacity="1.0"
     inkscape:pageopacity="0.0"
     inkscape:pageshadow="2"
     inkscape:zoom="0.7176508"
     inkscape:cx="344.19917"
     inkscape:cy="65.513839"
     inkscape:current-layer="layer1"
     id="namedview35393"
     showgrid="false"
     fit-margin-top="0"
     fit-margin-left="0"
     fit-margin-right="0"
     fit-margin-bottom="0"
     inkscape:window-width="1280"
     inkscape:window-height="752"
     inkscape:window-x="0"
     inkscape:window-y="0"
     inkscape:window-maximized="0" />
  <metadata
     id="metadata35395">
    <rdf:RDF>
      <cc:Work
         rdf:about="">
        <dc:format>image/svg+xml</dc:format>
        <dc:type
           rdf:resource="http://purl.org/dc/dcmitype/StillImage" />
        <dc:title></dc:title>
      </cc:Work>
    </rdf:RDF>
  </metadata>
  <g
     inkscape:label="Layer 1"
     inkscape:groupmode="layer"
     id="layer1"
     transform="translate(-181.98192,-225.21303)">
    <path
       style="fill:none;stroke:#000000;stroke-width:3.83385825;stroke-linecap:butt;stroke-linejoin:miter;stroke-miterlimit:4;stroke-opacity:1;stroke-dasharray:none"
       d="m 249.42494,229.91683 0,98.93392 197.86782,0 0,-61.31115 -129.58949,0 0,-40.40964 -68.27833,0 z"
       id="path35914"
       inkscape:connector-curvature="0" />
    <path
       style="fill:#000000;fill-opacity:1;fill-rule:nonzero;stroke:none"
       id="path35916"
       d="m 389.56946,323.43678 c 0.39364,2.42538 -0.11618,4.74716 -1.38746,6.81781 -1.02289,1.64311 -2.62746,2.54688 -4.41228,3.1376 -2.66159,0.37676 -3.74796,-1.57213 -4.01581,-3.88008 -0.30381,-2.1387 0.57705,-3.765 2.09044,-5.19083 1.79408,-1.36834 4.03012,-1.55049 6.20036,-1.70881 2.53234,0.0908 4.22179,1.3665 5.16801,3.66491 0.52217,2.75762 -1.11129,4.63187 -2.99373,6.39112 -1.32277,1.23751 -2.89173,1.98374 -4.64972,2.33846 -3.17998,-0.0267 -4.42887,-2.71125 -5.24124,-5.3684 -0.44886,-1.74533 -0.58067,-3.54378 -0.63558,-5.33808 0.50309,-2.82266 3.05108,-3.23253 5.44224,-2.93342 2.54671,0.48447 4.14704,2.0678 5.12107,4.3888 1.1026,3.20555 -0.66707,5.57218 -3.39169,7.01378 -2.9655,1.08104 -5.10078,1.26487 -7.70038,-0.7312 -2.23216,-2.30558 -2.01178,-5.08234 -0.48317,-7.67153 2.1702,-2.24766 4.24355,-3.23618 7.32583,-2.40403 2.41855,1.20236 3.31558,3.39731 2.95565,5.97651 -0.68689,2.00962 -2.75369,3.98374 -5.05635,3.86582 -0.54004,-0.0277 -1.05212,-0.25032 -1.57819,-0.37547 -2.74124,-1.10591 -1.17725,-4.98262 1.564,-3.87671 l 0,0 c -1.1141,0.25236 0.67866,-0.0377 0.94746,-0.303 0.11568,-0.47232 0.29523,-0.91768 -0.2796,-1.36528 -0.0361,-0.71635 -2.11817,0.5411 -2.38995,0.78496 -0.63493,0.65955 -0.83872,1.51119 -0.23252,2.24071 0.49693,1.14475 2.31597,0.2302 3.17765,0.0626 0.844,-0.19214 1.56137,-0.73292 1.26201,-1.65952 -0.37867,-1.03367 -0.83755,-1.64988 -2.03085,-1.84132 -1.43359,-1.44792 -0.54297,1.61418 -0.47479,-1.29712 0.0419,1.43031 0.13209,2.86462 0.46115,4.26217 0.16966,0.58061 1.15125,2.18804 0.49427,2.45593 1.00671,-0.12332 1.82899,-0.65123 2.57749,-1.31494 0.5223,-0.45558 0.98203,-0.95984 1.47118,-1.4405 0.1364,-0.13403 0.10308,-0.42371 0.2775,-0.50212 0.0659,-0.0296 0.10667,0.0974 0.16001,0.14606 -0.19879,-0.63012 -0.19351,-0.83188 -0.96778,-0.99972 -1.27788,0.0905 -2.68663,0.0828 -3.81843,0.74589 -0.75894,0.26865 -0.66523,0.87385 -0.61657,1.53208 0.13227,1.36981 -0.51952,-0.19301 -1.4273,0.35508 0.94308,-0.29394 1.75416,-0.63333 2.26514,-1.54361 0.87643,-0.59106 0.72948,-2.5201 0.76643,-3.42078 -0.71691,-2.86766 3.33858,-3.88153 4.0555,-1.01387 z"
       inkscape:connector-curvature="0" />
    <path
       style="fill:#000000;fill-opacity:1;fill-rule:nonzero;stroke:none"
       id="path35918"
       d="m 429.89184,424.09297 c -3.56077,-6.79967 -6.22687,-14.01488 -9.12588,-21.10911 -6.09447,-13.85337 -12.9604,-27.3505 -19.74693,-40.87315 -3.4802,-6.83096 -6.55393,-13.85047 -9.58163,-20.88903 -1.1678,-2.71545 2.67243,-4.36697 3.84023,-1.65152 l 0,0 c 2.99402,6.96357 6.0346,13.90785 9.4776,20.66551 6.83469,13.61877 13.7496,27.21193 19.88039,41.1669 2.85786,6.99382 5.48159,14.10928 8.9912,20.81299 1.32757,2.64105 -2.40746,4.51847 -3.73503,1.87738 z"
       inkscape:connector-curvature="0" />
    <path
       style="fill:#000000;fill-opacity:1;fill-rule:nonzero;stroke:none"
       id="path35920"
       d="m 389.41994,357.00288 c -0.17504,-3.10766 -0.30148,-6.22164 -0.32612,-9.33497 0.0588,-2.57544 -0.46922,-5.08484 -0.72788,-7.63197 -0.0868,-1.23377 -0.36097,-2.44629 -0.70648,-3.6312 -0.3411,-1.27323 -1.03268,0.94271 2.57587,-3.10258 2.80017,1.30606 5.0502,3.56399 7.38365,5.54923 3.04849,2.70884 5.71449,5.80227 8.5736,8.70813 0.98267,0.99487 0.52612,0.53357 1.36926,1.38425 2.08085,2.09943 -0.8882,5.04218 -2.96904,2.94274 l 0,0 c -0.8501,-0.85771 -0.38997,-0.39278 -1.38004,-1.39515 -2.77273,-2.81813 -5.36142,-5.81427 -8.30263,-8.45609 -1.35546,-1.15329 -2.67377,-2.40849 -4.09227,-3.48595 -0.51969,-0.39475 -1.19961,-0.61603 -1.59523,-1.13504 -0.0425,-0.0557 0.14017,-0.006 0.21021,-0.01 2.07195,-3.34083 1.61549,-4.04992 2.24165,-2.1638 0.41206,1.42807 0.73753,2.88782 0.85037,4.37273 0.27175,2.67607 0.81977,5.31705 0.74915,8.02433 0.0197,3.11281 0.15843,6.2254 0.32612,9.33294 0.0226,2.95584 -4.15757,2.98782 -4.18018,0.032 z"
       inkscape:connector-curvature="0" />
    <path
       inkscape:connector-curvature="0"
       d="m 414.07406,290.42255 c 2.01766,2.37008 4.0004,4.77456 5.90166,7.24006 1.50969,2.08738 3.44699,3.7675 5.19249,5.64047 0.8148,0.93049 1.76607,1.73078 2.75746,2.46598 1.04126,0.80823 0.25299,-1.37518 -0.17705,4.02862 -3.02025,0.65182 -6.17749,0.2128 -9.23638,0.0414 -4.06588,-0.31569 -8.05949,-1.16895 -12.09356,-1.75606 -1.38417,-0.19871 -0.74165,-0.10713 -1.92751,-0.27528 -2.92665,-0.415 -2.33974,-4.55391 0.58691,-4.1389 l 0,0 c 1.19566,0.16956 0.54808,0.0772 1.94268,0.27745 3.91224,0.56942 7.78544,1.3919 11.72536,1.71904 1.77691,0.0996 3.58582,0.30287 5.36713,0.30398 0.65261,4e-4 1.32804,-0.23423 1.95691,-0.0598 0.0675,0.0187 -0.10787,0.0897 -0.16117,0.13537 0.3684,3.91387 1.16062,4.20292 -0.47817,3.07869 -1.19137,-0.88871 -2.33292,-1.85498 -3.32026,-2.96981 -1.83385,-1.96778 -3.86662,-3.74063 -5.44656,-5.9402 -1.89703,-2.46805 -3.88872,-4.86401 -5.90044,-7.23843 -1.80445,-2.34127 1.50656,-4.89314 3.31103,-2.55187 z"
       id="path35924"
       style="fill:#000000;fill-opacity:1;fill-rule:nonzero;stroke:none"
       inkscape:transform-center-x="-3.824815"
       inkscape:transform-center-y="-33.672715" />
    <path
       style="fill:#000000;fill-opacity:1;fill-rule:nonzero;stroke:none"
       id="path35930"
       d="m 418.89667,306.33443 c -4.04593,-3.12166 -8.71542,-4.85702 -13.5707,-6.26216 -7.28975,-2.02023 -14.90061,-3.09279 -22.44642,-2.02323 -1.59517,0.2261 -3.16015,0.62941 -4.74023,0.94412 -8.44536,2.44106 -15.71405,7.36253 -20.94588,14.4638 -1.13512,1.54072 -2.06349,3.22355 -3.09523,4.83532 -3.71892,7.18766 -5.91849,15.04425 -5.89596,23.17243 0.006,2.03497 0.26669,4.0612 0.40004,6.0918 0.18566,2.95009 -3.98639,3.21266 -4.17206,0.26258 l 0,0 c -0.1333,-2.20627 -0.40663,-4.40852 -0.39991,-6.61879 0.0269,-8.84425 2.45015,-17.37984 6.55446,-25.17314 1.14265,-1.76093 2.17184,-3.60091 3.42796,-5.28278 5.84542,-7.82664 13.95284,-13.21521 23.32098,-15.85317 1.73357,-0.33607 3.45113,-0.76897 5.20069,-1.00821 8.05638,-1.10165 16.17971,0.0141 23.96083,2.17583 5.3297,1.56221 10.46533,3.50423 14.90961,6.93135 2.36474,1.77356 -0.14344,5.1178 -2.50818,3.34425 z"
       inkscape:connector-curvature="0" />
    <path
       style="fill:#000000;fill-opacity:1;fill-rule:nonzero;stroke:none"
       id="path35940"
       d="m 311.90817,323.80437 c -2.23097,2.57183 -4.54943,5.10665 -6.96201,7.51624 -1.5557,1.91126 -3.59688,3.36982 -5.24427,5.18044 -0.12601,0.15794 -0.25202,0.31587 -0.37803,0.47381 -1.86516,2.29318 -5.1082,-0.34456 -3.24303,-2.63774 l 0,0 c 0.19383,-0.2353 0.38766,-0.47061 0.5815,-0.70591 1.73548,-1.79788 3.70376,-3.37029 5.33673,-5.27532 2.28108,-2.255 4.44293,-4.66169 6.56486,-7.0597 1.77356,-2.36474 5.1178,0.14344 3.34425,2.50818 z"
       inkscape:connector-curvature="0" />
    <path
       style="fill:#000000;fill-opacity:1;fill-rule:nonzero;stroke:none"
       id="path35948"
       d="m 298.77972,320.90564 c 1.76133,2.11096 3.74141,4.02359 5.55323,6.09216 1.6125,1.88278 2.91138,4.00016 4.63394,5.78951 0.23183,0.2868 0.46366,0.57359 0.69549,0.86039 1.84027,2.3132 -1.4311,4.91573 -3.27136,2.60253 l 0,0 c -0.14864,-0.19145 -0.29728,-0.38291 -0.44592,-0.57436 -1.75576,-1.84705 -3.14742,-3.96836 -4.76281,-5.93065 -1.73949,-2.0053 -3.66997,-3.83687 -5.35849,-5.88366 -2.09015,-2.09015 0.86577,-5.04607 2.95592,-2.95592 z"
       inkscape:connector-curvature="0" />
    <path
       style="fill:#000000;fill-opacity:1;fill-rule:nonzero;stroke:none"
       id="path35960"
       d="m 428.59407,362.02516 c 1.23994,4.32155 1.11917,8.94148 1.21921,13.40589 0.0799,4.85596 0.0779,9.71276 0.0742,14.56922 -7.4e-4,0.48237 -10e-4,0.96474 -0.002,1.44711 -0.005,2.95592 -4.18483,2.94952 -4.18031,-0.006 l 0,0 c 7.4e-4,-0.48128 10e-4,-0.96256 0.002,-1.44384 0.004,-4.8243 0.006,-9.64892 -0.0732,-14.47272 -0.0863,-3.87726 -0.0814,-7.80421 -0.77892,-11.62977 -1.32193,-2.64386 2.41705,-4.51335 3.73898,-1.86949 z"
       inkscape:connector-curvature="0" />
    <path
       style="fill:#000000;fill-opacity:1;fill-rule:nonzero;stroke:none"
       id="path35966"
       d="m 426.551,360.09876 c 2.86522,-0.7502 5.68674,-1.59621 8.61171,-2.111 1.8999,-0.29872 3.81986,-0.42426 5.73857,-0.52049 2.95227,-0.14675 3.15981,4.0284 0.20753,4.17515 l 0,0 c -1.74728,0.086 -3.49582,0.19769 -5.22677,0.46329 -2.82719,0.48965 -5.54618,1.3325 -8.31717,2.04855 -2.86767,0.71691 -3.88154,-3.33858 -1.01387,-4.0555 z"
       inkscape:connector-curvature="0" />
    <path
       style="fill:#000000;fill-opacity:1;fill-rule:nonzero;stroke:none"
       id="path35968"
       d="m 426.551,371.24625 c 2.86615,-0.47369 5.69017,-1.10067 8.52899,-1.71606 2.41624,-0.2966 4.57955,-1.47489 6.98389,-1.76834 2.94952,-0.19448 3.22455,3.97677 0.27503,4.17125 l 0,0 c -1.24703,-0.31605 -4.84852,2.01404 -6.37415,1.68269 -2.79516,0.60466 -5.57596,1.23206 -8.39989,1.68595 -2.86767,0.71692 -3.88154,-3.33858 -1.01387,-4.05549 z"
       inkscape:connector-curvature="0" />
    <path
       style="fill:#000000;fill-opacity:1;fill-rule:nonzero;stroke:none"
       id="path35972"
       d="m 325.59624,306.77556 c 0.70106,-3.41453 1.96416,-6.66609 3.17648,-9.92284 1.01048,-3.20169 2.21922,-6.3264 3.1263,-9.56196 0.21276,-0.96315 0.41057,-1.93848 0.46437,-2.92588 -0.0867,0.1 1.62096,-2.2266 2.94002,-2.2047 0.18505,0.003 0.37009,0.007 0.55513,0.0106 1.72483,1.84877 1.85478,2.06169 2.34052,3.75847 0.65877,2.50741 0.85044,5.10657 1.00479,7.68528 0.21789,1.15027 0.5517,2.28485 1.05328,3.34463 0.4046,0.18771 -3.14414,-0.67587 -1.3893,-0.87191 -1.56354,0.61991 -0.76887,-0.029 -0.16857,-0.76532 1.10299,-1.08494 1.88311,-2.37115 2.45278,-3.80318 0.99036,-1.98963 1.56368,-4.14139 2.83247,-5.97787 0.37969,-0.60134 0.70406,-1.23457 0.99224,-1.8839 -0.19701,0.31482 4.06866,-0.24826 4.04548,1.63126 0.64757,2.72421 1.01364,5.50814 1.5241,8.26382 0.36033,3.10864 1.0851,6.12621 1.9661,9.12224 0.34144,0.97145 0.61505,1.94276 0.71107,2.96952 0.0368,0.48244 0.0294,0.96694 0.0273,1.45036 -0.0134,2.9559 -4.1937,2.93689 -4.18027,-0.019 l 0,0 c 0.002,-0.35349 0.008,-0.70766 -0.0109,-1.06074 -0.061,-0.75405 -0.33003,-1.43842 -0.55801,-2.16172 -0.91953,-3.13205 -1.68119,-6.29178 -2.06571,-9.53932 -0.56281,-3.03886 -1.05136,-6.08467 -1.59281,-9.12522 0.0979,-3.15158 5.12206,-1.72087 3.97287,0.12262 -0.39981,0.92216 -0.87692,1.81062 -1.42515,2.65326 -1.1416,1.51624 -1.41462,3.5182 -2.37581,5.15223 -0.75685,1.78439 -1.69408,3.47267 -3.07991,4.85217 -0.81198,0.98875 -1.30485,1.98874 -2.72842,2.28534 -1.77804,-0.54259 -2.14443,-0.25667 -2.73927,-1.53022 -0.71034,-1.54086 -1.20521,-3.17717 -1.43649,-4.86026 -0.13507,-2.275 -0.2889,-4.57077 -0.85171,-6.7869 -0.52025,-1.82809 -1.48431,-4.61709 1.58306,-0.72644 -0.17611,-0.004 -0.35221,-0.007 -0.52833,-0.0101 -1.90132,-0.0316 1.71805,-3.66593 1.30211,-1.72279 -0.0818,1.28352 -0.31196,2.55391 -0.61225,3.8032 -0.94007,3.34621 -2.18232,6.58103 -3.23347,9.89086 -1.15832,3.11118 -2.37934,6.21364 -3.03863,9.47826 -0.71692,2.86766 -4.77241,1.85379 -4.05549,-1.01388 z"
       inkscape:connector-curvature="0" />
    <path
       style="fill:#000000;fill-opacity:1;fill-rule:nonzero;stroke:none"
       id="path35974"
       d="m 183.47708,380.27865 c 2.50508,-0.13868 5.01586,-0.11318 7.52237,-0.0295 0.97126,0.0414 1.94304,0.083 2.91206,0.1588 1.84416,0.16887 1.49488,2.15258 1.18714,3.18195 -0.69171,1.9407 -1.92038,3.64808 -2.77235,5.52804 -0.47245,1.20237 -0.88476,2.42839 -1.121,3.69082 0.17759,-0.11422 -0.0811,-0.62853 -0.0167,-0.63543 0.42942,-0.046 1.2233,0.22735 1.63986,0.28878 1.68138,0.19893 3.39678,-0.0356 5.08266,-0.15072 0.92546,-0.0387 0.48293,-0.0245 1.32748,-0.0448 2.12225,-0.0501 2.19846,2.74201 0.0762,2.79216 l 0,0 c -0.75947,0.0176 -0.36478,0.005 -1.184,0.0382 -1.91837,0.13095 -3.86697,0.38172 -5.78062,0.12253 -1.89444,-0.28851 -4.11931,-0.6694 -4.10175,-2.89485 0.2805,-1.46983 0.7492,-2.90092 1.31397,-4.29747 0.82135,-1.79168 1.95242,-3.436 2.66854,-5.26421 0.58299,-1.37138 -0.58293,-1.50429 1.42809,0.42815 -0.92097,-0.0726 -1.84478,-0.11037 -2.76784,-0.15073 -2.40571,-0.0811 -4.81557,-0.10633 -7.22,0.0255 -2.11849,0.12771 -2.31263,-2.6595 -0.19415,-2.78721 z"
       inkscape:connector-curvature="0" />
    <path
       style="fill:#000000;fill-opacity:1;fill-rule:nonzero;stroke:none"
       id="path35976"
       d="m 188.44874,384.71971 c 1.92365,0.64024 3.94849,0.67754 5.96632,0.6929 0.80779,-0.008 0.43393,-6.7e-4 1.12165,-0.0177 2.12221,-0.0514 2.2003,2.74073 0.0781,2.79211 l 0,0 c -0.75508,0.018 -0.34652,0.0109 -1.22572,0.0185 -2.30553,-0.0195 -4.62213,-0.097 -6.82135,-0.81575 -2.02947,-0.57956 -1.14845,-3.24964 0.88101,-2.67009 z"
       inkscape:connector-curvature="0" />
    <path
       style="fill:#000000;fill-opacity:1;fill-rule:nonzero;stroke:none"
       id="path35978"
       d="m 203.91643,383.59551 c 0.88873,0.36283 2.22644,1.65732 3.26699,1.24816 0.88259,-0.58722 1.44952,-1.27218 1.91008,-2.17349 0.33259,-0.68149 0.15101,-1.05694 -0.39488,-1.47613 -0.74854,-0.35706 -1.47537,-0.4443 -2.28218,-0.32988 -0.89865,0.0539 -1.44385,0.24489 -1.73122,1.01278 -0.53194,1.82695 0.41536,3.63512 1.08863,5.31705 0.61951,1.67349 1.67748,2.96843 3.3866,3.74585 0.97059,0.33108 1.94411,0.59369 2.95985,0.37962 2.08316,-0.38044 2.66148,2.3603 0.57832,2.74074 l 0,0 c -1.71048,0.28787 -3.33016,-0.003 -4.92293,-0.64214 -2.32515,-1.16475 -3.95054,-2.89829 -4.8155,-5.24972 -0.96027,-2.40103 -2.01218,-4.89189 -1.01034,-7.44267 0.83955,-1.58543 2.12594,-2.49207 4.06367,-2.62929 1.71522,-0.19978 3.33525,0.0964 4.7491,1.06934 1.44107,1.33715 1.8765,2.95631 1.02896,4.7295 -0.92378,1.72992 -2.22529,3.13518 -4.27449,3.72419 -2.05801,0.0948 -3.51884,-0.62446 -5.2058,-1.66356 -1.79403,-1.05592 -0.18889,-3.41626 1.60514,-2.36035 z"
       inkscape:connector-curvature="0" />
    <path
       style="fill:#000000;fill-opacity:1;fill-rule:nonzero;stroke:none"
       id="path35984"
       d="m 221.84416,380.04208 c 0.0807,2.1741 0.47943,4.31751 0.67939,6.48263 0.10784,1.885 0.43073,3.75214 0.62258,5.63191 -0.27988,0.27711 0.36535,1.38699 0.12026,1.37037 -3.05824,-0.20739 -3.03852,0.51299 -2.89066,-0.67807 0.29145,-1.55453 0.17621,-3.10865 0.0672,-4.67234 -0.13342,-1.91795 -0.16169,-3.84451 0.20485,-5.73877 0.37562,-1.71157 1.0625,-3.16029 2.64584,-4.15466 1.61188,-0.75649 3.19584,-0.30618 4.64563,0.51884 0.64627,0.35547 1.16345,0.92015 1.86827,1.16505 1.96619,0.74479 0.834,3.33163 -1.13218,2.58684 l 0,0 c -0.89938,-0.35296 -1.64185,-0.90763 -2.42441,-1.44232 -0.3778,-0.38129 -0.95456,-0.47849 -1.35005,-0.46931 -0.91681,0.438 -1.03977,1.46986 -1.30518,2.32457 -0.37683,1.64626 -0.22557,3.35847 -0.15677,5.02933 0.12065,1.73822 0.22654,3.47315 -0.0843,5.20126 -0.19614,1.38086 0.0821,0.64963 -3.08329,0.5221 -0.0136,-6e-4 -0.0414,-0.52519 -0.0651,-0.78334 -0.0158,-0.17194 -0.0325,-0.3438 -0.0488,-0.51571 -0.19247,-1.88839 -0.51647,-3.76443 -0.62514,-5.65821 -0.1962,-2.15403 -0.59843,-4.28671 -0.67615,-6.44977 -0.20552,-1.96572 2.78265,-2.2361 2.98816,-0.2704 z"
       inkscape:connector-curvature="0" />
    <path
       style="fill:#000000;fill-opacity:1;fill-rule:nonzero;stroke:none"
       id="path35986"
       d="m 238.20048,382.36659 c -1.40488,1.69084 -2.21334,3.70011 -2.85622,5.72929 -0.31141,1.75573 -0.0249,2.57024 1.63778,3.34752 1.69411,0.71627 2.53352,0.0446 3.6593,-1.16422 1.0531,-1.49826 1.52779,-3.29624 1.29386,-5.06684 -0.18306,-1.48 -0.91215,-2.37795 -2.32761,-2.97773 -0.39907,-0.12612 -2.55787,-0.95769 -2.79399,-0.31855 -0.13335,0.18072 -0.13999,0.47584 -0.21079,0.72176 -0.5891,1.89742 -3.47346,1.12237 -2.88436,-0.77505 l 0,0 c 0.32514,-1.00574 0.73431,-1.92369 1.77976,-2.45742 1.84742,-0.68726 3.64498,-0.43651 5.44227,0.32657 2.30031,1.10985 3.68689,2.76039 3.98327,5.21379 0.21934,2.58212 -0.38081,5.11813 -2.0746,7.22621 -2.053,1.99794 -4.47937,3.06369 -7.33457,1.70816 -2.88724,-1.59224 -3.6907,-3.50899 -3.04842,-6.57911 0.72907,-2.27021 1.63867,-4.52438 3.19716,-6.42765 1.13501,-1.66902 3.67216,-0.17573 2.53716,1.49328 z"
       inkscape:connector-curvature="0" />
    <path
       style="fill:#000000;fill-opacity:1;fill-rule:nonzero;stroke:none"
       id="path35988"
       d="m 264.96428,381.10045 c 0.32011,2.25371 0.20499,4.53157 0.0797,6.79368 -0.23327,1.95218 0.0683,3.90507 0.1969,5.85329 -0.48185,-0.0694 0.42954,1.19155 0.29522,1.0709 -0.17141,-0.15395 -0.26344,-0.44087 -0.49862,-0.47646 -0.51758,-0.0783 -1.04212,0.10961 -1.56319,0.16442 -0.0602,0.043 -0.14873,0.19338 -0.18047,0.12923 -0.012,-0.0242 0.54672,-3.85312 0.57611,-4.10414 0.11664,-2.24911 0.58944,-4.38359 1.69286,-6.38992 0.65367,-1.22084 1.45661,-2.02697 2.92447,-2.28968 1.44921,-0.0668 2.79771,0.62762 3.82586,1.5209 1.14719,1.36374 0.97185,3.0813 0.87083,4.70886 -0.0812,1.06443 -0.20483,2.12546 -0.33124,3.1859 -0.058,0.47531 -0.11241,0.95099 -0.16639,1.42671 0.0658,0.95417 -1.70586,-1.32672 -0.68678,-1.19783 -1.51261,0.24874 -1.07291,0.29502 -0.64206,-0.0333 0.0919,-0.07 0.2651,-0.68788 0.31421,-0.82256 0.38523,-1.2954 1.05948,-2.50567 1.78064,-3.66435 0.50691,-1.05315 1.29706,-1.96006 2.16695,-2.77226 2.22339,-1.33399 3.10085,-0.23441 3.6794,1.78629 0.46565,1.95015 0.42506,3.95767 0.66061,5.9383 0.21757,1.45188 0.31936,2.91314 0.31899,4.37815 0.12502,-0.0813 0.0498,-0.0716 0.0471,-0.15489 1.73851,1.13345 0.0155,3.42074 -1.72302,2.28729 l 0,0 c -0.76219,-0.53722 -1.2168,-1.232 -1.32635,-2.1344 0.002,-1.36195 -0.0972,-2.71981 -0.30082,-4.06937 -0.21888,-1.84492 -0.20071,-3.71077 -0.57952,-5.53285 -0.45036,-1.60175 0.61523,0.43772 1.34372,-0.52091 -0.69331,0.63726 -1.30589,1.35317 -1.68891,2.19422 -0.63685,1.02319 -1.23951,2.0804 -1.56164,3.2304 -0.57509,1.39329 -1.234,2.4013 -2.92572,2.65358 -0.9315,-0.13192 -2.0511,-0.90139 -1.86248,-1.85882 0.0542,-0.4806 0.10918,-0.96114 0.16804,-1.44128 0.1207,-1.01224 0.23899,-2.02501 0.31808,-3.04097 0.0539,-0.8479 0.0861,-1.69538 0.0346,-2.54236 -0.38806,-0.38574 -1.05014,-0.70619 -1.35746,-0.75352 0.27393,-0.64864 -0.56315,0.71687 -0.63581,0.80427 -0.95763,1.6883 -1.26246,3.50882 -1.37361,5.40697 -0.21954,1.87343 -0.23252,3.9006 -1.19855,5.59106 -0.6208,0.15295 -1.22142,0.49577 -1.86239,0.45886 -1.20556,-0.0694 -1.51412,-2.23503 -1.54942,-2.96664 -0.13326,-2.05274 -0.44344,-4.11026 -0.19845,-6.1674 0.11605,-2.07963 0.23209,-4.17411 -0.0524,-6.24711 -0.30579,-1.9544 2.66518,-2.35671 2.97096,-0.40231 z"
       inkscape:connector-curvature="0" />
    <path
       style="fill:#000000;fill-opacity:1;fill-rule:nonzero;stroke:none"
       id="path35992"
       d="m 291.07364,386.38787 c -0.74942,1.36498 -1.68326,2.85234 -1.47739,4.43158 0.3099,0.89167 0.95506,1.16671 1.83129,1.47527 0.64204,-0.17963 1.36103,-0.40701 1.83403,-0.93248 0.71697,-1.13474 0.88522,-2.48116 1.08742,-3.76103 0.009,-0.9141 -0.0235,-1.82189 -0.97607,-2.285 -0.65713,-0.34395 -1.25826,-0.38685 -1.93387,-0.073 -0.92707,0.47032 -1.47226,1.28608 -1.92191,2.14188 -0.94523,1.76841 -3.63348,0.52481 -2.68825,-1.2436 l 0,0 c 0.81209,-1.50148 1.89611,-2.81467 3.58938,-3.52493 1.65274,-0.49118 3.21317,-0.48955 4.70681,0.43161 1.74147,1.26836 2.38865,2.90828 2.19383,4.96192 -0.3018,1.88573 -0.62154,3.82833 -1.96016,5.35081 -1.41406,1.19516 -3.08904,1.89255 -5.03126,1.53264 -1.96953,-0.73896 -3.32896,-1.89099 -3.72866,-3.91532 -0.0632,-2.19826 0.73928,-4.19864 1.93766,-6.08363 1.135,-1.66902 3.67216,-0.17573 2.53715,1.49329 z"
       inkscape:connector-curvature="0" />
    <path
       style="fill:#000000;fill-opacity:1;fill-rule:nonzero;stroke:none"
       id="path35994"
       d="m 303.89746,383.81481 c 0.3021,2.07807 0.22635,4.17653 0.13604,6.26481 -0.15282,1.2895 0.0908,2.57743 0.36779,3.83826 -0.0368,0.0342 0.23523,0.7361 0.0868,0.3906 -0.93755,0.0305 -1.88347,0.21167 -2.81266,0.0915 -0.12271,-0.0162 0.95636,-3.54716 1.03619,-3.85155 0.44451,-1.90687 0.66792,-3.82976 1.30394,-5.69317 0.4192,-1.37321 1.31702,-2.39148 2.68281,-2.98496 1.64107,-0.4448 2.82541,0.35861 3.76015,1.52762 1.18326,1.59392 1.49866,3.46607 1.62531,5.35396 0.0307,1.25235 -0.0175,2.50609 -0.13285,3.75399 0.22618,1.47787 -2.811,-0.0417 -2.33655,-1.15024 0.70271,-1.68998 1.47573,-3.35772 2.36166,-4.97337 0.92115,-1.7051 2.29586,-3.17193 3.86296,-4.39044 3.0886,-1.58616 4.01268,1.2005 4.35562,3.45518 0.32916,2.28012 -0.22174,4.57455 -0.0815,6.85041 0.12352,0.86209 0.27096,1.72124 0.44798,2.57523 -0.92643,-0.15638 -1.85286,-0.31277 -2.7793,-0.46914 0.76163,-1.84351 3.56404,-0.84145 2.8024,1.00205 l 0,0 c -0.99039,-0.001 -1.98079,-0.003 -2.97119,-0.005 -0.20409,-0.98705 -0.37844,-1.98005 -0.49918,-2.97909 -0.0847,-2.20461 0.32159,-4.40786 0.1036,-6.61481 -0.0723,-0.59508 -0.34105,-1.44245 -0.15564,-1.4977 0.10902,-0.0325 0.23086,0.0297 0.3433,0.009 0.85496,-0.15285 0.51356,-0.14945 0.32273,-0.15587 -1.28645,0.9127 -2.32641,2.17414 -3.0802,3.49376 -0.90613,1.63427 -1.64719,3.3371 -2.39747,5.03635 -0.14111,0.22181 -0.14682,0.68108 -0.42336,0.66543 -3.1882,-0.18048 -2.98461,-0.0242 -2.86692,-1.09317 0.10412,-1.11314 0.14631,-2.23152 0.12691,-3.34874 -0.0816,-1.3841 -0.24634,-2.7744 -1.11215,-3.94973 -0.20566,-0.4203 -0.0937,-0.43778 -0.28481,-0.46014 0.044,-0.041 0.12134,-0.0659 0.13191,-0.12296 0.0674,-0.36418 -1.43597,1.74644 -0.94634,1.32164 -0.62186,1.79761 -0.78164,3.67061 -1.24748,5.50675 -0.26595,1.00922 -0.68531,2.01989 -0.91613,3.02981 -0.0358,0.15657 0.10306,0.41179 -0.0539,0.47761 -0.91413,0.38368 -1.9303,0.50684 -2.89544,0.76025 -0.14436,-0.32264 -0.2255,-0.66388 -0.30329,-1.0051 -0.3224,-1.48019 -0.58576,-2.99434 -0.42561,-4.50767 0.0834,-1.91627 0.16297,-3.84204 -0.10718,-5.74987 -0.30578,-1.95439 2.66518,-2.35671 2.97096,-0.40231 z"
       inkscape:connector-curvature="0" />
    <path
       style="fill:#000000;fill-opacity:1;fill-rule:nonzero;stroke:none"
       id="path35996"
       d="m 326.19625,387.57374 c 1.14699,0.71553 2.31283,1.39135 3.69176,0.92352 1.17648,-0.67022 1.50166,-1.94942 1.809,-3.11716 0.14912,-0.61856 0.27029,-1.30626 0.0966,-1.93884 -0.0679,-0.24731 -0.25854,-0.24966 -0.23021,0.005 -0.98149,0.57891 -1.64888,1.4098 -2.33438,2.27537 -1.18431,1.5164 -1.5519,3.07218 -1.10918,4.87971 0.554,1.85494 1.85814,2.75233 3.70907,3.368 1.6024,0.34949 2.68038,-0.28436 3.65014,-1.39299 0.0901,-0.15215 0.18018,-0.30429 0.27027,-0.45643 1.0904,-1.69455 3.66639,-0.25994 2.57597,1.43461 l 0,0 c -0.18543,0.27603 -0.37086,0.55207 -0.55629,0.8281 -1.85561,1.98504 -4.15537,2.9213 -6.98935,2.20363 -2.96969,-1.06112 -4.70646,-2.50924 -5.60332,-5.43501 -0.51348,-2.59973 -0.0724,-4.9255 1.63806,-7.08944 1.47246,-1.84921 3.13591,-3.58541 5.8524,-3.21314 0.38003,0.19566 0.80908,0.32536 1.14007,0.587 1.40916,1.11391 1.11236,3.16226 0.80168,4.62552 -0.60664,2.19722 -1.53183,4.21761 -3.94594,5.13409 -2.26584,0.48063 -4.19052,0.009 -6.07147,-1.26168 -1.79404,-1.05591 -0.1889,-3.41626 1.60515,-2.36034 z"
       inkscape:connector-curvature="0" />
    <path
       style="fill:#000000;fill-opacity:1;fill-rule:nonzero;stroke:none"
       id="path35998"
       d="m 343.13166,383.7502 c 0.30399,2.16251 0.21386,4.34901 0.10872,6.52091 -0.14029,1.67223 -0.3444,3.3046 -0.0175,4.96284 1.12143,1.60228 -2.61129,1.62022 -2.46091,0.31944 0.16345,-2.07132 0.57067,-4.07953 1.29382,-6.04418 0.70346,-2.01194 1.85828,-3.79186 3.47788,-5.26634 1.04968,-0.93594 2.27487,-1.33886 3.70123,-1.40172 1.74965,-0.0781 2.85356,0.59253 3.41494,2.13458 0.10091,1.78984 0.24542,3.58223 0.35695,5.37559 0.0101,1.38879 0.37688,2.74701 0.62104,4.11195 -0.0731,0.075 0.31974,2.1756 0.0907,1.05601 -7.1e-4,-0.005 -10e-4,-0.0106 -0.004,-0.016 1.72042,1.15709 -0.0385,3.42059 -1.75895,2.26351 l 0,0 c -0.0974,-0.0702 -0.19472,-0.14029 -0.29209,-0.21044 -0.78619,-0.75023 -0.98821,-1.61726 -0.99821,-2.63463 -0.26161,-1.46306 -0.6449,-2.92006 -0.65674,-4.40916 -0.10026,-1.61457 -0.28977,-3.22729 -0.26834,-4.84474 0.6836,0.20897 0.0806,-0.14075 -0.39025,-0.0359 -0.71536,0.0155 -1.21339,0.13936 -1.75022,0.63641 -1.32666,1.11096 -2.12975,2.60762 -2.70996,4.1601 -0.69308,1.80839 -0.9915,3.67065 -1.16642,5.57873 -0.5297,2.61205 -3.57483,1.6281 -3.45693,-0.28233 -0.35069,-1.86407 -0.21744,-3.70331 -0.0261,-5.58018 0.0975,-1.99538 0.18912,-4.00457 -0.0805,-5.99237 -0.30578,-1.95438 2.66518,-2.3567 2.97098,-0.40231 z"
       inkscape:connector-curvature="0" />
    <path
       style="fill:#000000;fill-opacity:1;fill-rule:nonzero;stroke:none"
       id="path36002"
       d="m 362.25863,374.3146 c 0.33316,2.3441 0.19061,4.71394 0.0505,7.06566 -0.30999,2.77234 -0.45639,5.52792 -0.33824,8.31181 0.0524,0.95252 0.0979,1.90616 0.19063,2.85626 -0.004,0.0287 0.007,0.0561 0.0103,0.0842 0.26449,1.9596 -2.7144,2.30757 -2.97889,0.34797 l 0,0 c -0.0314,-0.26503 0.0167,0.16577 -0.0214,-0.18083 -0.0964,-0.99727 -0.1469,-1.99793 -0.20047,-2.99777 -0.12101,-2.87174 0.0193,-5.71739 0.34054,-8.57674 0.13,-2.1656 0.27195,-4.34844 -0.0238,-6.5082 -0.3058,-1.9544 2.66517,-2.3567 2.97096,-0.40231 z"
       inkscape:connector-curvature="0" />
    <path
       style="fill:#000000;fill-opacity:1;fill-rule:nonzero;stroke:none"
       id="path36006"
       d="m 355.89342,379.84665 c 2.22949,0.76708 4.5649,0.90101 6.91657,0.80321 1.81867,-0.11579 3.63386,-0.29154 5.43601,-0.54798 -0.0677,0.0119 -0.13541,0.0239 -0.20312,0.0358 1.96783,-0.74104 3.09431,1.84795 1.1265,2.58899 l 0,0 c -0.15678,0.0455 -0.31354,0.0909 -0.47032,0.13634 -1.91259,0.27114 -3.83868,0.45897 -5.76901,0.57773 -2.73675,0.092 -5.46065,-0.0683 -8.05316,-0.96594 -1.99755,-0.6687 -0.98101,-3.29679 1.01652,-2.62809 z"
       inkscape:connector-curvature="0" />
    <path
       style="fill:#000000;fill-opacity:1;fill-rule:nonzero;stroke:none"
       id="path36008"
       d="m 216.9339,413.60378 c 1.29656,-1.37064 2.86493,-2.29128 4.73658,-2.79536 1.86533,-0.47414 3.52059,-0.16093 5.0328,0.93185 1.82261,1.85073 1.06621,4.05828 0.0928,6.11052 -1.10275,2.1292 -2.31484,4.24434 -4.17076,5.88484 -2.16321,1.65619 -3.91794,1.04336 -5.74872,-0.64379 -1.23161,-1.37767 -1.85519,-2.99126 -2.0897,-4.74524 -0.0537,-0.5789 -0.0867,-1.16399 -0.0122,-1.74251 1.80429,-5.44029 2.99782,0.92429 3.12133,1.54617 0.21257,1.92283 0.53263,3.82364 1.01067,5.70557 0.78963,3.15563 1.2864,6.36008 1.88871,9.54865 0.17788,0.94712 0.35408,1.89451 0.52832,2.84222 0.0506,0.27512 0.45014,0.8442 0.15079,0.82552 -0.94833,-0.0592 -1.86641,-0.3355 -2.79961,-0.50325 0.66566,-1.87538 3.51653,-0.99959 2.85086,0.87579 l 0,0 c -1.0038,0.0312 -2.01045,0.1703 -3.01143,0.0935 -0.12604,-0.01 -0.43046,-3.58578 -0.67589,-3.6504 -0.59245,-3.13653 -1.07917,-6.28883 -1.85443,-9.39321 -0.48398,-1.92636 -0.83594,-3.86955 -1.04066,-5.83878 -0.943,-4.78183 1.42266,2.87099 2.80791,-1.68714 -0.0288,0.34752 -0.018,0.69912 0.0168,1.04722 0.13762,1.14434 0.50156,2.19865 1.26188,3.12957 0.64981,0.66708 0.67765,1.17091 1.56715,0.53076 1.62566,-1.29755 2.4712,-3.25989 3.46357,-4.97664 0.44094,-0.87707 1.00178,-1.79737 0.74853,-2.79234 -0.70248,-0.5925 -1.42154,-0.63937 -2.34818,-0.40442 -1.4918,0.33992 -2.59195,1.23055 -3.62776,2.26393 -1.64408,1.24947 -3.54345,-0.9136 -1.89936,-2.16306 z"
       inkscape:connector-curvature="0" />
    <path
       style="fill:#000000;fill-opacity:1;fill-rule:nonzero;stroke:none"
       id="path36010"
       d="m 234.80541,413.94007 c -0.94353,1.69058 -1.88827,3.37984 -2.60059,5.16881 -0.34787,0.89376 -0.74955,2.08963 0.20521,2.7559 0.86834,0.45431 1.97904,0.32734 2.65671,-0.35216 1.18366,-1.481 1.50849,-3.3951 1.84229,-5.17313 0.20135,-1.43433 -0.32792,-2.11141 -1.60749,-2.71969 -0.9796,-0.074 -1.80257,0.24634 -2.59699,0.75264 -0.54168,0.48582 -0.0312,0.0379 0.024,-0.66113 0.83911,1.81417 -1.91869,2.91815 -2.7578,1.10399 l 0,0 c -0.26642,-1.41493 -0.22831,-1.9196 1.08445,-2.77665 1.74946,-1.04401 3.64605,-1.54053 5.67931,-0.87324 2.52681,1.32132 3.43553,2.93786 3.13144,5.65794 -0.46954,2.46768 -1.01082,5.04428 -2.96461,6.9002 -2.34163,1.49781 -4.33152,1.68036 -6.69348,0.0396 -1.52523,-1.69617 -1.70456,-3.57496 -0.81595,-5.63042 0.79294,-1.96583 1.81386,-3.83617 2.87638,-5.68595 1.135,-1.66902 3.67216,-0.17573 2.53715,1.49329 z"
       inkscape:connector-curvature="0" />
    <path
       style="fill:#000000;fill-opacity:1;fill-rule:nonzero;stroke:none"
       id="path36012"
       d="m 245.33677,413.95928 c 0.30059,2.1229 0.2111,4.26912 0.1211,6.40192 -0.0715,1.39368 -0.18944,2.78501 -0.32953,4.17405 -0.13786,1.28597 0.0884,0.41455 -3.00765,-0.10895 0.19677,-1.96648 3.18613,-1.70757 2.98935,0.25891 l 0,0 c -3.17573,-0.0511 -3.10324,0.84767 -2.97083,-0.41103 0.1352,-1.33874 0.24906,-2.67967 0.31872,-4.02285 0.0832,-1.96173 0.17487,-3.93611 -0.0921,-5.88975 -0.30579,-1.95439 2.66517,-2.3567 2.97096,-0.40231 z"
       inkscape:connector-curvature="0" />
    <path
       style="fill:#000000;fill-opacity:1;fill-rule:nonzero;stroke:none"
       id="path36014"
       d="m 241.34616,405.20384 c 0.40231,-1.18744 1.20791,-2.20374 2.06625,-3.14098 3.28643,-1.94957 3.06165,1.75356 2.63391,3.31103 -0.38131,1.12526 -1.26979,1.95794 -2.27758,2.62492 -1.5085,0.54689 -2.59239,-0.2703 -2.70117,-1.62549 -0.0383,-0.64244 0.21764,-0.8136 0.66987,-1.42287 0.69712,-0.55013 1.61238,-0.77213 2.49631,-0.89251 0.77601,-0.0341 1.86349,-0.1821 2.38261,0.58295 0.29017,0.42767 0.1545,1.00122 0.23176,1.50183 -0.59631,1.37272 -1.96814,1.86409 -3.42401,2.10187 -1.98473,0.0792 -2.88318,-1.16482 -3.13541,-2.83969 -0.0588,-0.70678 -0.0672,-0.26968 0.20181,-1.29801 0.85387,-1.8082 3.60259,-0.68479 2.74873,1.1234 l 0,0 c 0.0129,-0.5037 0.001,-0.56501 0.0265,-0.18502 0.068,0.57232 0.13879,0.40921 -0.38914,0.327 -0.0449,-0.007 0.15766,0.0966 0.052,0.11751 0.36289,-0.052 0.93178,-0.12179 1.07283,-0.23518 0.11267,0.40235 0.0636,0.87892 0.33803,1.20705 0.46826,0.55979 1.6593,0.30926 0.23636,0.37111 -0.35915,0.0545 -0.71147,0.0981 -0.8813,0.23554 0.19375,-0.34412 0.37337,-0.51029 0.37067,-0.84636 -0.34614,-0.80929 -1.23719,-0.89152 -2.01989,-0.51033 0.47306,-0.29941 0.95235,-0.64213 1.13203,-1.16147 0.20284,-0.30887 -0.0394,-0.74343 0.14124,-1.01461 0.038,-0.0571 0.0577,0.1403 0.12503,0.16434 1.8635,0.66484 1.3464,0.86124 2.2497,0.17881 -0.6274,0.67824 -1.24458,1.40201 -1.52247,2.2708 -0.7188,1.85833 -3.54374,0.91264 -2.82494,-0.9457 z"
       inkscape:connector-curvature="0" />
    <path
       style="fill:#000000;fill-opacity:1;fill-rule:nonzero;stroke:none"
       id="path36018"
       d="m 253.70385,411.00078 c 0.24,2.23266 0.18928,4.47975 0.0872,6.7178 -0.0625,1.27693 -0.16393,2.55176 -0.29195,3.82435 -0.0236,0.22504 -0.0459,0.45027 -0.0807,0.67406 -0.97977,-0.23681 -1.9984,-0.36299 -2.93928,-0.71043 -0.11089,-0.041 0.4149,-2.73151 0.44639,-2.85213 0.46807,-1.66496 1.2099,-3.25367 2.13629,-4.73996 0.74057,-0.95305 1.11869,-2.07981 1.81431,-3.04862 0.67661,-0.70133 1.44539,-1.04184 2.45692,-1.04622 0.99106,-0.0283 1.85206,0.34323 2.67155,0.82613 1.60441,1.01937 1.74979,2.72477 2.09252,4.34431 0.38346,1.58565 0.27707,3.25758 0.95883,4.77355 -0.38684,0.20061 1.52507,2.1487 1.3454,1.64628 -0.0623,-0.0346 -0.12456,-0.069 -0.18684,-0.10347 2.06119,-0.47285 2.77998,2.23896 0.71881,2.71182 l 0,0 c -0.38911,0.0405 -0.77821,0.081 -1.16732,0.12144 -1.88468,-0.58239 -2.83704,-1.63989 -3.51418,-3.37819 -0.66291,-1.69896 -0.80185,-3.46406 -1.10176,-5.23827 -0.16648,-0.80489 -0.11988,-1.9006 -0.76522,-2.52579 -0.43806,-0.26591 -0.52696,-0.39865 -1.09144,-0.385 -0.031,-0.003 -0.0621,-0.005 -0.0931,-0.007 0.0724,-0.0265 0.14475,-0.053 0.21713,-0.0796 0.0514,-0.0206 -0.21725,0.0451 -0.16135,0.043 -0.47571,0.82147 -0.97412,1.92869 -1.61505,2.77555 -0.8261,1.23578 -1.38801,2.62325 -1.81131,4.01849 -0.85637,2.67033 1.11862,2.51336 -3.37224,2.39267 0.0185,-0.15747 0.0356,-0.31507 0.0526,-0.47267 0.12344,-1.22555 0.22121,-2.45325 0.2816,-3.68299 0.0952,-2.06427 0.14424,-4.13579 -0.0586,-6.19643 -0.30579,-1.95439 2.66518,-2.3567 2.97096,-0.40231 z"
       inkscape:connector-curvature="0" />
    <path
       style="fill:#000000;fill-opacity:1;fill-rule:nonzero;stroke:none"
       id="path36020"
       d="m 273.82654,401.65854 c 0.28301,2.73198 0.12974,5.48204 0.20116,8.22464 0.008,2.81069 0.34978,5.60926 0.5803,8.40968 0.0497,0.62048 0.10117,1.24086 0.14474,1.86175 7e-4,0.0136 10e-4,0.0271 0.002,0.0407 0.11295,1.97219 -2.88507,2.1208 -2.99802,0.14861 l 0,0 c -1.4e-4,-0.005 -3.4e-4,-0.0101 -5.2e-4,-0.0152 -0.0426,-0.60781 -0.0934,-1.21511 -0.14181,-1.82252 -0.23449,-2.8489 -0.58029,-5.69602 -0.58819,-8.55542 -0.0682,-2.63099 0.0664,-5.26774 -0.17073,-7.88985 -0.30578,-1.95439 2.66518,-2.3567 2.97096,-0.40231 z"
       inkscape:connector-curvature="0" />
    <path
       style="fill:#000000;fill-opacity:1;fill-rule:nonzero;stroke:none"
       id="path36022"
       d="m 266.83331,410.72081 c 2.4355,-0.0561 4.86443,-0.0317 7.28415,-0.31455 1.46009,-0.19688 2.92637,-0.33457 4.40037,-0.39088 0.15603,0.001 0.31206,0.002 0.46808,0.003 2.12276,0.0245 2.08549,2.81736 -0.0373,2.79284 l 0,0 c -0.10294,-0.002 -0.20588,-0.004 -0.30882,-0.005 -1.39106,0.0521 -2.77399,0.18605 -4.15181,0.37183 -2.64148,0.30287 -5.29684,0.30035 -7.95574,0.32183 -2.11223,-0.19803 -1.8112,-2.97701 0.30103,-2.77898 z"
       inkscape:connector-curvature="0" />
    <path
       inkscape:connector-curvature="0"
       id="path36024"
       d="m 537.86606,232.7037 0,98.93392 197.86782,0 0,-61.31115 -129.58949,0 0,-40.40964 -68.27833,0 z"
       style="fill:none;stroke:#000000;stroke-width:3.83385825;stroke-linecap:butt;stroke-linejoin:miter;stroke-miterlimit:4;stroke-opacity:1;stroke-dasharray:none" />
    <path
       inkscape:connector-curvature="0"
       d="m 678.01058,326.22365 c 0.39364,2.42538 -0.11618,4.74716 -1.38746,6.81781 -1.02289,1.64311 -2.62746,2.54688 -4.41228,3.1376 -2.66159,0.37676 -3.74796,-1.57213 -4.01581,-3.88008 -0.30381,-2.1387 0.57705,-3.765 2.09044,-5.19083 1.79408,-1.36834 4.03012,-1.55049 6.20036,-1.70881 2.53234,0.0908 4.22179,1.3665 5.16801,3.66491 0.52217,2.75762 -1.11129,4.63187 -2.99373,6.39112 -1.32277,1.23751 -2.89173,1.98374 -4.64972,2.33846 -3.17998,-0.0267 -4.42887,-2.71125 -5.24124,-5.3684 -0.44886,-1.74533 -0.58067,-3.54378 -0.63558,-5.33808 0.50309,-2.82266 3.05108,-3.23253 5.44224,-2.93342 2.54671,0.48447 4.14704,2.0678 5.12107,4.3888 1.1026,3.20555 -0.66707,5.57218 -3.39169,7.01378 -2.9655,1.08104 -5.10078,1.26487 -7.70038,-0.7312 -2.23216,-2.30558 -2.01178,-5.08234 -0.48317,-7.67153 2.1702,-2.24766 4.24355,-3.23618 7.32583,-2.40403 2.41855,1.20236 3.31558,3.39731 2.95565,5.97651 -0.68689,2.00962 -2.75369,3.98374 -5.05635,3.86582 -0.54004,-0.0277 -1.05212,-0.25032 -1.57819,-0.37547 -2.74124,-1.10591 -1.17725,-4.98262 1.564,-3.87671 l 0,0 c -1.1141,0.25236 0.67866,-0.0377 0.94746,-0.303 0.11568,-0.47232 0.29523,-0.91768 -0.2796,-1.36528 -0.0361,-0.71635 -2.11817,0.5411 -2.38995,0.78496 -0.63493,0.65955 -0.83872,1.51119 -0.23252,2.24071 0.49693,1.14475 2.31597,0.2302 3.17765,0.0626 0.844,-0.19214 1.56137,-0.73292 1.26201,-1.65952 -0.37867,-1.03367 -0.83755,-1.64988 -2.03085,-1.84132 -1.43359,-1.44792 -0.54297,1.61418 -0.47479,-1.29712 0.0419,1.43031 0.13209,2.86462 0.46115,4.26217 0.16966,0.58061 1.15125,2.18804 0.49427,2.45593 1.00671,-0.12332 1.82899,-0.65123 2.57749,-1.31494 0.5223,-0.45558 0.98203,-0.95984 1.47118,-1.4405 0.1364,-0.13403 0.10308,-0.42371 0.2775,-0.50212 0.0659,-0.0296 0.10667,0.0974 0.16001,0.14606 -0.19879,-0.63012 -0.19351,-0.83188 -0.96778,-0.99972 -1.27788,0.0905 -2.68663,0.0828 -3.81843,0.74589 -0.75894,0.26865 -0.66523,0.87385 -0.61657,1.53208 0.13227,1.36981 -0.51952,-0.19301 -1.4273,0.35508 0.94308,-0.29394 1.75416,-0.63333 2.26514,-1.54361 0.87643,-0.59106 0.72948,-2.5201 0.76643,-3.42078 -0.71691,-2.86766 3.33858,-3.88153 4.0555,-1.01387 z"
       id="path36026"
       style="fill:#000000;fill-opacity:1;fill-rule:nonzero;stroke:none" />
    <path
       inkscape:connector-curvature="0"
       d="m 633.3334,426.87984 c -3.56077,-6.79967 -6.22687,-14.01488 -9.12588,-21.10911 -6.09447,-13.85337 -12.9604,-27.3505 -19.74693,-40.87315 -3.4802,-6.83096 -6.55393,-13.85047 -9.58163,-20.88903 -1.1678,-2.71545 2.67243,-4.36697 3.84023,-1.65152 l 0,0 c 2.99402,6.96357 6.0346,13.90785 9.4776,20.66551 6.83469,13.61877 13.7496,27.21193 19.88039,41.1669 2.85786,6.99382 5.48159,14.10928 8.9912,20.81299 1.32757,2.64105 -2.40746,4.51847 -3.73503,1.87738 z"
       id="path36028"
       style="fill:#000000;fill-opacity:1;fill-rule:nonzero;stroke:none" />
    <path
       inkscape:connector-curvature="0"
       d="m 592.8615,359.78975 c -0.17504,-3.10766 -0.30148,-6.22164 -0.32612,-9.33497 0.0588,-2.57544 -0.46922,-5.08484 -0.72788,-7.63197 -0.0868,-1.23377 -0.36097,-2.44629 -0.70648,-3.6312 -0.3411,-1.27323 -1.03268,0.94271 2.57587,-3.10258 2.80017,1.30606 5.0502,3.56399 7.38365,5.54923 3.04849,2.70884 5.71449,5.80227 8.5736,8.70813 0.98267,0.99487 0.52612,0.53357 1.36926,1.38425 2.08085,2.09943 -0.8882,5.04218 -2.96904,2.94274 l 0,0 c -0.8501,-0.85771 -0.38997,-0.39278 -1.38004,-1.39515 -2.77273,-2.81813 -5.36142,-5.81427 -8.30263,-8.45609 -1.35546,-1.15329 -2.67377,-2.40849 -4.09227,-3.48595 -0.51969,-0.39475 -1.19961,-0.61603 -1.59523,-1.13504 -0.0425,-0.0557 0.14017,-0.006 0.21021,-0.01 2.07195,-3.34083 1.61549,-4.04992 2.24165,-2.1638 0.41206,1.42807 0.73753,2.88782 0.85037,4.37273 0.27175,2.67607 0.81977,5.31705 0.74915,8.02433 0.0197,3.11281 0.15843,6.2254 0.32612,9.33294 0.0226,2.95584 -4.15757,2.98782 -4.18018,0.032 z"
       id="path36030"
       style="fill:#000000;fill-opacity:1;fill-rule:nonzero;stroke:none" />
    <path
       inkscape:connector-curvature="0"
       d="m 600.34929,326.59124 c -2.23097,2.57183 -4.54943,5.10665 -6.96201,7.51624 -1.5557,1.91126 -3.59688,3.36982 -5.24427,5.18044 -0.12601,0.15794 -0.25202,0.31587 -0.37803,0.47381 -1.86516,2.29318 -5.1082,-0.34456 -3.24303,-2.63774 l 0,0 c 0.19383,-0.2353 0.38766,-0.47061 0.5815,-0.70591 1.73548,-1.79788 3.70376,-3.37029 5.33673,-5.27532 2.28108,-2.255 4.44293,-4.66169 6.56486,-7.0597 1.77356,-2.36474 5.1178,0.14344 3.34425,2.50818 z"
       id="path36036"
       style="fill:#000000;fill-opacity:1;fill-rule:nonzero;stroke:none" />
    <path
       inkscape:connector-curvature="0"
       d="m 587.22084,323.69251 c 1.76133,2.11096 3.74141,4.02359 5.55323,6.09216 1.6125,1.88278 2.91138,4.00016 4.63394,5.78951 0.23183,0.2868 0.46366,0.57359 0.69549,0.86039 1.84027,2.3132 -1.4311,4.91573 -3.27136,2.60253 l 0,0 c -0.14864,-0.19145 -0.29728,-0.38291 -0.44592,-0.57436 -1.75576,-1.84705 -3.14742,-3.96836 -4.76281,-5.93065 -1.73949,-2.0053 -3.66997,-3.83687 -5.35849,-5.88366 -2.09015,-2.09015 0.86577,-5.04607 2.95592,-2.95592 z"
       id="path36038"
       style="fill:#000000;fill-opacity:1;fill-rule:nonzero;stroke:none" />
    <path
       inkscape:connector-curvature="0"
       d="m 632.03563,364.81203 c 1.23994,4.32155 1.11917,8.94148 1.21921,13.40589 0.0799,4.85596 0.0779,9.71276 0.0742,14.56922 -7.4e-4,0.48237 -10e-4,0.96474 -0.002,1.44711 -0.005,2.95592 -4.18483,2.94952 -4.18031,-0.006 l 0,0 c 7.4e-4,-0.48128 10e-4,-0.96256 0.002,-1.44384 0.004,-4.8243 0.006,-9.64892 -0.0732,-14.47272 -0.0863,-3.87726 -0.0814,-7.80421 -0.77892,-11.62977 -1.32193,-2.64386 2.41705,-4.51335 3.73898,-1.86949 z"
       id="path36040"
       style="fill:#000000;fill-opacity:1;fill-rule:nonzero;stroke:none" />
    <path
       inkscape:connector-curvature="0"
       d="m 629.99256,362.88563 c 2.86522,-0.7502 5.68674,-1.59621 8.61171,-2.111 1.8999,-0.29872 3.81986,-0.42426 5.73857,-0.52049 2.95227,-0.14675 3.15981,4.0284 0.20753,4.17515 l 0,0 c -1.74728,0.086 -3.49582,0.19769 -5.22677,0.46329 -2.82719,0.48965 -5.54618,1.3325 -8.31717,2.04855 -2.86767,0.71691 -3.88154,-3.33858 -1.01387,-4.0555 z"
       id="path36042"
       style="fill:#000000;fill-opacity:1;fill-rule:nonzero;stroke:none" />
    <path
       inkscape:connector-curvature="0"
       d="m 629.99256,374.03312 c 2.86615,-0.47369 5.69017,-1.10067 8.52899,-1.71606 2.41624,-0.2966 4.57955,-1.47489 6.98389,-1.76834 2.94952,-0.19448 3.22455,3.97677 0.27503,4.17125 l 0,0 c -1.24703,-0.31605 -4.84852,2.01404 -6.37415,1.68269 -2.79516,0.60466 -5.57596,1.23206 -8.39989,1.68595 -2.86767,0.71692 -3.88154,-3.33858 -1.01387,-4.05549 z"
       id="path36044"
       style="fill:#000000;fill-opacity:1;fill-rule:nonzero;stroke:none" />
    <path
       style="fill:#000000;fill-opacity:1;fill-rule:nonzero;stroke:none"
       id="path36086"
       d="m 292.56408,376.53624 c 2.57854,-3.82769 4.24277,-8.19619 5.89522,-12.48159 1.96736,-5.18354 2.63875,-10.68094 3.03352,-16.17171 0.008,-2.74151 0.68909,-5.62689 -0.29439,-8.25894 -0.32775,-0.9292 0.98634,-1.39271 1.31409,-0.46351 l 0,0 c 0.96336,2.85876 0.48162,5.8555 0.37013,8.8226 -0.40644,5.62805 -1.10397,11.26103 -3.12323,16.57293 -1.69865,4.40438 -3.41619,8.89075 -6.08059,12.81629 -0.59119,0.78824 -1.70593,-0.0478 -1.11475,-0.83607 z"
       inkscape:connector-curvature="0" />
    <path
       style="fill:#000000;fill-opacity:1;fill-rule:nonzero;stroke:none"
       id="path36090"
       d="m 473.54824,283.79318 c 3.64496,0.0195 7.28941,-0.0777 10.9338,-0.13308 3.50863,-0.0516 7.01755,-0.0797 10.52653,-0.0925 1.9032,-0.005 3.80641,-0.005 5.70962,-0.005 2.95593,4.1e-4 2.95535,4.18072 -5.7e-4,4.18031 l 0,0 c -1.89793,-2.6e-4 -3.79586,-2.9e-4 -5.69379,0.005 -3.4929,0.0127 -6.98576,0.0407 -10.47832,0.0921 -4.00082,0.0608 -8.01675,0.26777 -12.01114,0.009 -2.86767,-0.71691 -1.8538,-4.77241 1.01387,-4.05549 z"
       inkscape:connector-curvature="0" />
    <path
       inkscape:connector-curvature="0"
       d="m 473.54824,294.94066 c 3.64496,0.0195 7.28941,-0.0777 10.9338,-0.13308 3.50863,-0.0516 7.01755,-0.0797 10.52653,-0.0925 1.9032,-0.005 3.80641,-0.005 5.70962,-0.005 2.95593,4.1e-4 2.95535,4.18072 -5.7e-4,4.18031 l 0,0 c -1.89793,-2.6e-4 -3.79586,-2.9e-4 -5.69379,0.005 -3.4929,0.0127 -6.98576,0.0407 -10.47832,0.0921 -4.00082,0.0608 -8.01675,0.26777 -12.01114,0.009 -2.86767,-0.71691 -1.8538,-4.77241 1.01387,-4.05549 z"
       id="path36114"
       style="fill:#000000;fill-opacity:1;fill-rule:nonzero;stroke:none" />
  </g>
</svg>
