<?xml version="1.0" encoding="UTF-8" standalone="no"?>
<!-- Created with Inkscape (http://www.inkscape.org/) -->

<svg
   xmlns:dc="http://purl.org/dc/elements/1.1/"
   xmlns:cc="http://creativecommons.org/ns#"
   xmlns:rdf="http://www.w3.org/1999/02/22-rdf-syntax-ns#"
   xmlns:svg="http://www.w3.org/2000/svg"
   xmlns="http://www.w3.org/2000/svg"
   xmlns:sodipodi="http://sodipodi.sourceforge.net/DTD/sodipodi-0.dtd"
   xmlns:inkscape="http://www.inkscape.org/namespaces/inkscape"
   width="189.39827"
   height="423.45959"
   id="svg36154"
   version="1.1"
   inkscape:version="0.48.0 r9654"
   sodipodi:docname="ZMPPerson.pdf">
  <defs
     id="defs36156" />
  <sodipodi:namedview
     inkscape:document-units="mm"
     pagecolor="#ffffff"
     bordercolor="#666666"
     borderopacity="1.0"
     inkscape:pageopacity="0.0"
     inkscape:pageshadow="2"
     inkscape:zoom="0.7176508"
     inkscape:cx="122.82907"
     inkscape:cy="92.361087"
     inkscape:current-layer="layer1"
     id="namedview36158"
     showgrid="false"
     fit-margin-top="0"
     fit-margin-left="0"
     fit-margin-right="0"
     fit-margin-bottom="0"
     inkscape:window-width="1280"
     inkscape:window-height="752"
     inkscape:window-x="0"
     inkscape:window-y="0"
     inkscape:window-maximized="0" />
  <metadata
     id="metadata36160">
    <rdf:RDF>
      <cc:Work
         rdf:about="">
        <dc:format>image/svg+xml</dc:format>
        <dc:type
           rdf:resource="http://purl.org/dc/dcmitype/StillImage" />
        <dc:title></dc:title>
      </cc:Work>
    </rdf:RDF>
  </metadata>
  <g
     inkscape:label="Layer 1"
     inkscape:groupmode="layer"
     id="layer1"
     transform="translate(-403.35202,-40.948714)">
    <path
       style="fill:#000000;fill-opacity:1;fill-rule:nonzero;stroke:none"
       id="path36677"
       d="m 426.60744,426.17735 c 5.99893,1.46805 12.50418,0.24166 18.58211,-0.24865 12.66149,-1.40534 25.37541,-2.15474 38.10104,-2.63742 8.64284,-0.42395 17.29307,0.0626 25.91839,0.60737 1.75875,0.13639 3.52358,0.21675 5.27821,0.40458 0.69892,0.12694 -0.86056,-0.18844 0.41599,0.0755 2.85465,0.76711 1.7698,4.80419 -1.08485,4.03709 l 0,0 c 0.0796,0.0156 0.15918,0.0313 0.23877,0.0469 -0.006,-10e-4 -0.0125,-0.002 -0.0188,-0.003 -1.69251,-0.185 -3.39657,-0.25153 -5.0929,-0.38873 -8.48486,-0.53614 -16.99433,-1.02041 -25.49648,-0.60206 -12.66639,0.47988 -25.3208,1.22773 -37.92326,2.62689 -6.71634,0.54181 -13.88392,1.87196 -20.47077,-0.0368 -2.74451,-1.0978 -1.19198,-4.97912 1.55252,-3.88132 z"
       inkscape:connector-curvature="0" />
    <path
       style="fill:#000000;fill-opacity:1;fill-rule:nonzero;stroke:none"
       id="path36679"
       d="m 422.90764,425.55782 c 0,-4.40301 0,-8.80603 0,-13.20904 0,-5.27456 0,-10.54912 0,-15.82369 0,-2.00932 0,-4.01865 0,-6.02797 6.5e-4,-1.79266 -0.14509,-0.43349 4.1803,-0.13861 0.10746,1.57825 -4.1803,1.17527 -4.1803,-0.40192 6.56948,0.37858 4.58584,0.65156 0,0.17458 -0.064,-0.007 0,-0.12867 0,-0.193 10.98599,0.7551 0.1984,0.28558 0,0.16512 -1.51556,-0.92015 2.03245,-2.23823 2.04199,-2.24258 1.99009,-0.0355 3.98413,0.10299 5.97673,0.14486 3.59059,0.0537 7.1817,0.0597 10.77263,0.066 0.86249,0.016 2.04056,0.092 2.74015,-0.5526 -0.93232,0.83422 -0.31269,1.67327 0.0347,2.76464 1.20691,0.9263 -0.77632,-0.52673 3.38957,-2.04011 0.28406,-0.10319 0.17783,3.91884 0.17683,4.19214 -0.1468,4.16592 0.7686,8.24696 1.55876,12.30875 0.45862,2.25422 0.82993,4.52638 1.11269,6.80929 0.13999,1.75947 0.60019,1.57887 -2.04753,-1.14147 2.18711,-0.14976 4.35037,-0.6344 6.51352,-1.03548 7.12374,-1.16049 14.35275,-1.39892 21.55382,-1.62207 6.21596,-0.16236 12.4343,-0.18625 18.65201,-0.19137 2.94443,-2.6e-4 5.88885,0.008 8.83327,0.0128 1.61467,0.002 3.22934,0.003 4.84401,0.004 0.73283,1.7e-4 1.46565,7e-5 2.19848,4e-5 0.94639,-4e-5 1.89277,-5e-5 2.83916,-6e-5 0.46601,0 0.93202,0 1.39803,0 2.0621,1.24589 2.3441,2.00147 1.81611,3.65769 -0.69762,2.02971 -0.77234,4.23713 -0.90474,6.36424 -0.11544,2.23227 -0.14202,4.46757 -0.14956,6.70237 -0.01,2.95591 -4.19031,2.94173 -4.18028,-0.0142 l 0,0 c 0.008,-2.31738 0.0363,-4.63528 0.15774,-6.94997 0.16238,-2.56873 0.29289,-5.21486 1.19372,-7.65049 0.67834,0.64953 3.19482,2.11285 2.067,2.07064 -0.466,0 -0.932,10e-6 -1.39799,10e-6 -0.94634,1e-5 -1.89268,1e-5 -2.83902,6e-5 -0.73328,2e-5 -1.46657,1.2e-4 -2.19986,-4e-5 -1.61664,-4.7e-4 -3.23328,-10e-4 -4.84992,-0.004 -2.9409,-0.005 -5.8818,-0.013 -8.82271,-0.0128 -6.17575,0.005 -12.35212,0.0285 -18.52614,0.18936 -6.98965,0.21604 -14.00671,0.44073 -20.9231,1.55441 -2.17079,0.40031 -4.36684,0.86995 -6.5621,1.04416 -3.54652,-2.66799 -2.59101,-0.8842 -2.81264,-2.46494 -0.26989,-2.18744 -0.6277,-4.36423 -1.06735,-6.52395 -0.84232,-4.32994 -1.78725,-8.68235 -1.63566,-13.12241 0.004,-0.98103 -0.39686,-7.69324 3.29353,-5.34513 0.73515,1.71348 1.3041,2.46835 -0.10799,3.71219 -1.54775,1.1614 -3.43094,1.57489 -5.35384,1.46458 -3.61782,-0.006 -7.23584,-0.0124 -10.85332,-0.0669 -1.5541,-0.0328 -3.72657,-0.0269 -4.99886,-0.23974 5.0006,-3.03406 -2.23441,-1.57255 -2.93183,-1.52749 -0.0611,0.004 0.19186,-0.32711 0,-0.18367 1.39343,-0.0986 2.78687,-0.19726 4.1803,-0.29588 0,0.0643 0.064,0.18635 0,0.193 -4.58584,0.47698 -6.56948,0.204 0,-0.17458 0,1.57719 -4.28776,1.98017 -4.1803,0.40192 4.32539,-0.29488 4.17965,-1.65405 4.1803,0.13861 0,2.00932 0,4.01865 0,6.02797 0,5.27457 0,10.54913 0,15.82369 0,4.40301 0,8.80603 0,13.20904 0,2.95592 -4.1803,2.95592 -4.1803,0 z"
       inkscape:connector-curvature="0" />
    <path
       style="fill:#000000;fill-opacity:1;fill-rule:nonzero;stroke:none"
       id="path36685"
       d="m 435.55282,398.68229 c 0.46203,1.79238 0.78629,3.6174 1.1018,5.44034 0.30528,1.18065 0.11432,1.94275 -0.28231,3.1316 -1.12847,1.58349 -2.91748,1.70295 -4.55309,0.76653 -2.18787,-1.85253 -1.53819,-4.29405 -0.46466,-6.56042 0.78109,-2.13808 2.26536,-3.59981 4.31067,-4.50219 2.53209,-0.98697 4.55137,-0.0298 5.92718,2.17322 0.95233,2.31043 0.93934,4.45418 -0.37178,6.58145 -1.60148,1.51841 -3.63616,1.764 -5.73672,1.87729 -2.64242,0.2367 -3.77129,-1.71298 -4.11317,-4.01657 -0.34995,-2.21528 0.18433,-4.08317 1.73858,-5.69728 2.00975,-1.50012 4.15111,-1.01109 6.00682,0.40885 0.63826,0.60115 0.34899,0.30665 0.8753,0.8761 1.98841,2.18717 -1.10472,4.99921 -3.09312,2.81204 l 0,0 c -0.24917,-0.28333 -0.11542,-0.13883 -0.40327,-0.43163 -0.36547,-0.34276 -0.66203,-0.40898 -0.46765,-0.67207 -0.69795,0.53578 -0.63853,1.24303 -0.51166,2.16183 0.0721,0.7601 0.1447,0.62485 -0.39652,0.35539 -0.16303,-0.0812 -1.12494,0.18701 0.14687,0.0287 0.82403,-0.0412 1.9769,-0.24928 2.61803,-0.22112 0.18288,0.4926 0.38949,-1.89544 0.0288,-2.07901 -0.0973,-0.44958 0.89193,-0.64198 -0.70087,-0.27359 -1.15364,0.28776 -1.68095,1.40841 -2.09078,2.4316 -0.0649,0.13183 -0.49613,1.37159 -0.62784,1.47846 -0.16268,0.13202 -0.3983,-0.48039 -0.53825,-0.3245 0.60217,0.40113 -1.195,0.0613 -1.13865,0.6289 -0.30109,1.8177 -0.0776,0.31469 -0.28099,-0.22093 -0.29779,-1.72182 -0.60127,-3.44633 -1.03818,-5.13913 -0.71692,-2.86766 3.33858,-3.88154 4.05549,-1.01387 z"
       inkscape:connector-curvature="0" />
    <path
       style="fill:#000000;fill-opacity:1;fill-rule:nonzero;stroke:none"
       id="path36691"
       d="m 435.64367,399.96569 c 2.19154,-7.94442 6.96409,-14.821 11.52831,-21.56025 9.68049,-13.12746 21.2841,-24.63424 33.24439,-35.65776 8.75513,-7.71333 17.56154,-15.37542 26.85837,-22.43311 0.58441,-0.42993 1.1782,-0.84742 1.75325,-1.2898 2.47475,-1.90381 -1.23798,0.31919 1.69273,1.91651 0.27273,0.0492 0.0319,0.0436 0.0544,0.0743 0.8587,-0.11915 -1.72503,0.12105 -2.62575,-0.38494 -2.06801,-2.06475 -4.21423,-4.04533 -6.3846,-6.01662 -6.69474,-6.55287 -13.79893,-12.63643 -21.15934,-18.42415 -11.25348,-8.68553 -22.97967,-16.72698 -34.29894,-25.32549 -6.51493,-5.35436 -13.46055,-10.36591 -19.12564,-16.65617 -1.92116,-2.26461 -3.45712,-4.85534 -4.24515,-7.72799 -0.12089,-0.42906 -0.14394,-0.86255 -0.14478,-1.30406 0.12962,-2.95308 4.30591,-2.76978 4.17629,0.1833 l 0,0 c -0.0257,-0.33797 -0.015,-0.0397 0.008,0.0443 0.5688,2.24849 1.86581,4.24604 3.3221,6.01813 5.4362,6.13129 12.28297,10.88132 18.53818,16.11386 11.33719,8.6137 23.08611,16.66402 34.35467,25.36858 7.43568,5.85133 14.62077,11.9927 21.38543,18.61533 1.92176,1.74557 4.04077,3.41842 5.6214,5.46645 1.42914,0.80287 -2.3938,0.43747 -0.77856,0.0756 0.6832,-0.2241 1.39334,-0.31947 2.11175,-0.22158 4.88892,1.81641 0.54999,5.33147 -1.7279,6.80428 -9.1922,6.97588 -17.89449,14.55543 -26.55296,22.17748 -11.7265,10.80353 -23.10658,22.07628 -32.61661,34.92874 -4.23568,6.24644 -8.66905,12.59363 -10.86543,19.90237 -0.48595,2.9157 -4.60938,2.22846 -4.12343,-0.68724 z"
       inkscape:connector-curvature="0" />
    <path
       style="fill:#000000;fill-opacity:1;fill-rule:nonzero;stroke:none"
       id="path36693"
       d="m 421.74328,246.85784 c 0.63753,-2.26879 0.85286,-4.61821 1.0125,-6.95997 -0.14724,-4.90102 0.73378,-9.61118 1.80328,-14.3728 4.28919,-16.18874 10.38629,-31.80981 16.64047,-47.31886 8.3684,-19.65853 17.28229,-39.07884 25.66277,-58.73268 4.47804,-11.47179 9.23205,-22.847744 14.98789,-33.74314 1.38149,-2.613229 5.07715,-0.659506 3.69566,1.953722 l 0,0 c -5.70809,10.789615 -10.3949,22.069048 -14.83826,33.429138 -8.37037,19.62829 -17.26962,39.025 -25.63119,58.65655 -6.17121,15.29938 -12.18868,30.70774 -16.43895,46.67272 -1.02732,4.55958 -1.86607,9.04671 -1.71121,13.74209 -0.17922,2.58672 -0.42896,5.17992 -1.12747,7.68711 -0.71691,2.86766 -4.7724,1.85379 -4.05549,-1.01388 z"
       inkscape:connector-curvature="0" />
    <path
       style="fill:#000000;fill-opacity:1;fill-rule:nonzero;stroke:none"
       id="path36697"
       d="m 480.57542,85.800547 c -5.21333,0.254483 -7.32842,-4.229385 -8.75501,-8.510503 -1.86019,-6.160063 -0.98722,-11.259116 1.24238,-17.148636 2.93736,-6.272882 6.67443,-11.059641 12.16201,-15.271672 4.75452,-2.942622 10.2955,-4.842829 15.91291,-3.461317 1.07888,0.265334 2.09053,0.75316 3.1358,1.12974 4.80942,2.634411 8.81449,6.748958 10.72342,11.970013 0.38752,1.059892 0.58937,2.178717 0.88406,3.268076 1.04062,7.76034 -0.74119,13.436081 -5.13064,19.758993 -3.71695,4.553462 -8.99837,7.56857 -14.84322,8.441858 -1.22748,0.183399 -2.47744,0.153676 -3.71617,0.230514 -6.48486,-0.169284 -12.49498,-2.515293 -18.24092,-5.324379 -2.65473,-1.299955 -0.81631,-5.054311 1.83842,-3.754356 l 0,0 c 5.1022,2.502769 10.42768,4.657184 16.18376,4.904156 6.10581,-0.245908 11.35248,-2.094544 15.35839,-6.902027 3.60678,-5.053167 5.27445,-10.017819 4.50506,-16.301035 -1.3541,-5.464914 -4.08233,-9.517588 -9.03263,-12.378674 -5.86407,-2.328031 -9.67808,-1.36627 -15.05536,1.751609 -4.71195,3.506076 -8.2645,8.120371 -10.78031,13.431555 -1.92768,4.983606 -2.73445,9.113222 -1.1712,14.363965 0.68911,2.192956 1.36216,4.925675 3.76538,5.746627 2.86766,-0.716916 3.88154,3.338576 1.01387,4.055493 z"
       inkscape:connector-curvature="0" />
    <path
       style="fill:#000000;fill-opacity:1;fill-rule:nonzero;stroke:none"
       id="path36699"
       d="m 470.3247,105.34261 c -6.48436,0.62038 -12.58198,2.92356 -18.68171,5.05302 -10.02164,3.79106 -19.9161,7.90964 -29.99213,11.55905 -4.14614,1.93086 -8.83859,2.82303 -12.88675,4.97985 -2.1544,0.55474 -1.60404,0.74893 -1.92099,-3.90896 -0.0172,-0.25305 1.89349,-1.34729 2.19193,-1.5543 0.29568,-0.20548 0.59364,-0.40761 0.89345,-0.60697 -0.14327,-0.77253 1.56865,-0.18026 1.95842,-0.33945 0.0744,-0.0304 -0.27067,-0.0688 -0.20894,-0.12025 0.60676,-0.53922 1.19797,-1.09448 1.76161,-1.67877 1.07145,-1.13782 -0.0997,-0.37755 3.583,2.34706 -1.39002,5.34942 -2.41931,10.79948 -3.40452,16.23794 -2.54103,14.64488 -4.08619,29.4244 -5.18883,44.23858 -0.38444,6.09055 -0.76156,12.18548 -0.89065,18.28796 -0.0357,1.67867 0.0876,0.28954 -4.18315,-0.0714 0.0265,-2.95581 4.20665,-2.91832 4.18014,0.0375 l 0,0 c -4.27605,0.23173 -4.21205,1.6225 -4.17636,-0.0548 0.13165,-6.17644 0.51048,-12.34532 0.90125,-18.50965 1.11458,-14.96024 2.67644,-29.88555 5.24447,-44.67456 1.03337,-5.68474 2.08265,-11.39554 3.60768,-16.97039 3.84964,1.53817 4.67036,0.60448 3.33323,2.03651 -0.83974,0.86796 -1.71045,1.71632 -2.70372,2.4092 -0.60204,0.31685 -4.06158,1.20983 -1.5324,0.32756 -0.26592,0.17692 -0.52964,0.35713 -0.79225,0.53894 -0.20828,0.14445 -2.03502,1.47372 -2.05321,1.45383 -2.88645,-3.15679 -0.76756,-3.86631 -2.4971,-3.15065 4.27392,-2.12085 8.98418,-3.30928 13.3606,-5.18535 10.09201,-3.65243 19.99775,-7.78654 30.03747,-11.57518 6.32367,-2.20734 12.65327,-4.57294 19.37222,-5.2297 2.9157,-0.48595 3.60294,3.63748 0.68724,4.12343 z"
       inkscape:connector-curvature="0" />
    <path
       style="fill:#000000;fill-opacity:1;fill-rule:nonzero;stroke:none"
       id="path36701"
       d="m 478.77114,97.963957 c 1.16399,8.584213 0.35225,17.324603 -0.29819,25.919653 -1.33154,14.48171 -3.03193,28.92377 -4.73147,43.36553 -0.69611,8.05127 -2.04063,16.1372 -1.81833,24.2403 0.19823,1.84127 0.24604,3.7711 0.85904,5.54161 -0.32018,-1.37242 -3.64295,0.0183 -3.72149,0.0299 1.28563,0.53062 2.59002,1.0179 3.8569,1.59186 0.0567,0.0257 -0.0333,0.22704 -0.0668,0.17453 -0.60344,-0.94522 -1.57062,-1.75319 -1.77979,-2.85493 -0.13296,-0.70032 1.40494,0.36093 2.00321,0.74848 -0.1927,-0.39611 1.46588,1.50576 0.90938,1.04306 -0.67056,-0.55752 -0.91268,-0.71374 -0.22793,-0.66772 5.11969,0.019 10.22666,0.23406 15.34055,0.48261 13.4962,0.58136 27.00594,0.7535 40.51258,0.89755 5.72268,0.0489 11.4455,0.0948 17.16842,0.098 1.83073,0.0298 1.4912,-0.43319 -1.00203,1.99277 -0.34415,-2.93581 3.80772,-3.42253 4.15188,-0.48671 l 0,0 c -2.0549,2.7767 -1.06315,2.6933 -3.15223,2.67424 -5.73699,-0.003 -11.47388,-0.0492 -17.21063,-0.0983 -13.55945,-0.14465 -27.12199,-0.31785 -40.67093,-0.90224 -5.17409,-0.25148 -10.34059,-0.44986 -15.51969,-0.49517 -1.13572,-0.11855 -2.19818,-0.30814 -2.84352,-1.22118 2.44899,0.86925 -0.90031,-1.89944 -1.58614,-2.69756 -0.0436,-0.0507 0.22487,-0.15603 0.0717,-0.18741 1.35653,0.34619 2.71305,0.69239 4.06958,1.03858 -0.60969,1.90166 -3.94076,2.08015 -4.27357,0.14718 -0.69927,-2.17604 -0.89665,-4.47995 -1.06755,-6.74624 -0.18422,-8.30383 1.08398,-16.58247 1.84572,-24.83183 1.69281,-14.38436 3.38651,-28.76899 4.71477,-43.19293 0.62405,-8.21804 1.40746,-16.5699 0.36741,-24.783848 -0.57971,-2.89852 3.51942,-3.718346 4.09913,-0.819825 z"
       inkscape:connector-curvature="0" />
    <path
       style="fill:#000000;fill-opacity:1;fill-rule:nonzero;stroke:none"
       id="path36703"
       d="m 452.81054,144.75117 c -1.90745,-0.6747 -3.90783,0.15042 -5.65917,0.86481 -2.71695,1.4099 -4.45516,3.8414 -5.24434,6.69055 -0.19581,0.70693 -0.26951,1.43996 -0.40427,2.15994 -0.24445,3.2084 0.25219,6.46166 2.15918,9.18307 1.23506,1.76252 1.79147,1.97985 3.49521,3.27253 2.79662,1.58661 5.96228,2.59822 9.22731,1.85276 1.99646,-0.45582 2.5402,-0.97267 4.24005,-2.00227 2.47814,-2.05543 4.19083,-4.78693 4.48918,-7.97214 0.19517,-2.0836 -0.13194,-2.66504 -0.63578,-4.66072 -1.49714,-3.63019 -4.18163,-6.68003 -7.78122,-8.54201 -0.57959,-0.2998 -1.20349,-0.51271 -1.80524,-0.76907 -1.82603,-0.60543 -2.55639,-0.60013 -4.33219,-0.0794 -1.19065,0.31336 -1.65188,-1.30449 -0.46124,-1.61786 l 0,0 c 0.57156,-0.13828 1.12827,-0.35785 1.71468,-0.41483 1.61388,-0.15685 2.25253,0.16883 3.79365,0.58172 0.67525,0.29436 1.37533,0.54098 2.02575,0.88307 3.99178,2.09946 6.937,5.51319 8.54579,9.57637 0.54987,2.33412 0.90613,2.96403 0.64382,5.39008 -0.39403,3.64422 -2.40081,6.73952 -5.27848,9.05119 -2.01763,1.18051 -2.61366,1.74748 -4.97806,2.2443 -3.73245,0.78429 -7.3322,-0.36344 -10.50039,-2.21268 -1.93317,-1.51025 -2.55878,-1.762 -3.9479,-3.80001 -2.08701,-3.06191 -2.6358,-6.68806 -2.33072,-10.26993 0.16061,-0.81061 0.25342,-1.63638 0.48183,-2.43183 0.94663,-3.29682 3.04455,-6.06158 6.20631,-7.659 2.24319,-0.89956 4.72698,-1.77549 7.11701,-0.81901 1.10417,0.53046 0.3234,2.03082 -0.78077,1.50036 z"
       inkscape:connector-curvature="0" />
    <path
       style="fill:#000000;fill-opacity:1;fill-rule:nonzero;stroke:none"
       id="path36715"
       d="m 451.97765,143.18319 c 1.44178,1.80506 1.40314,4.20105 1.66085,6.31947 0.4217,3.54809 0.56508,7.11479 0.65967,10.67946 0.13946,2.39013 0.37557,4.7745 0.53672,7.16346 0.038,0.64502 0.0822,1.28999 0.10276,1.93571 -1.87978,1.36268 -1.76484,-0.22195 -1.66648,-0.85066 0.19304,-1.0808 1.91742,-0.83881 1.72438,0.24198 l 0,0 c -0.19835,0.89498 0.0905,0.7395 -1.80307,0.65194 -0.0197,-0.62936 -0.0638,-1.25796 -0.10033,-1.88664 -0.16227,-2.40761 -0.40177,-4.8105 -0.53935,-7.21944 -0.0933,-3.52139 -0.23398,-7.04484 -0.65009,-10.5499 -0.2169,-1.78294 -0.19002,-3.77254 -1.15956,-5.39112 -0.87293,-0.77376 0.36158,-1.86801 1.2345,-1.09426 z"
       inkscape:connector-curvature="0" />
    <path
       style="fill:#000000;fill-opacity:1;fill-rule:nonzero;stroke:none"
       id="path36723"
       d="m 440.08983,156.37882 c 1.63586,0.67268 3.43517,0.41921 5.12985,0.21237 2.93214,-0.36958 5.86036,-0.77862 8.79461,-1.12815 2.41085,-0.27979 4.83445,-0.36789 7.25696,-0.41447 1.19938,-0.0191 2.39891,-0.0199 3.5984,-0.0177 1.08974,0.002 1.08705,1.67952 -0.003,1.67745 l 0,0 c -1.18952,-0.002 -2.37909,-0.002 -3.56852,0.0174 -2.37562,0.0455 -4.75235,0.13084 -7.11659,0.40478 -2.93358,0.34901 -5.86105,0.75865 -8.79252,1.12791 -1.99248,0.23739 -4.08797,0.48431 -5.9887,-0.37927 -0.97469,-0.53046 -0.28548,-2.03082 0.68922,-1.50036 z"
       inkscape:connector-curvature="0" />
    <path
       style="fill:#a0a0a0;stroke:none"
       d="m 454.17384,155.24697 c -0.10263,-0.17633 -0.36451,-2.20773 -0.58196,-4.51423 -0.21744,-2.30649 -0.53081,-4.63396 -0.69636,-5.17214 -0.22639,-0.73595 0.0373,-0.97852 1.0636,-0.97852 1.59314,0 3.37462,1.06156 6.47399,3.85775 1.97882,1.78526 4.85049,6.05301 4.35592,6.47358 -0.38252,0.32528 -10.43614,0.6412 -10.61519,0.33356 z"
       id="path36725"
       inkscape:connector-curvature="0" />
    <path
       style="fill:#a0a0a0;stroke:none"
       d="m 450.27826,168.41331 c -4.24809,-1.45863 -7.42125,-4.58829 -8.37483,-8.26006 -0.43974,-1.69319 -0.0775,-1.82413 6.84135,-2.47273 l 3.92817,-0.36824 0,1.65822 c 0,0.91203 0.16937,3.58333 0.37637,5.93623 0.21328,2.42433 0.15024,4.26736 -0.14549,4.25345 -0.28702,-0.0135 -1.46853,-0.34959 -2.62557,-0.74687 l 0,0 z"
       id="path36727"
       inkscape:connector-curvature="0" />
    <path
       style="fill:none;stroke:#000000;stroke-width:2.41653538;stroke-linecap:butt;stroke-linejoin:miter;stroke-miterlimit:4;stroke-opacity:1;stroke-dasharray:2.41653543, 4.83307087;stroke-dashoffset:0"
       d="m 454.25992,169.99911 0,257.78555"
       id="path36729"
       inkscape:connector-curvature="0"
       sodipodi:nodetypes="cc" />
    <path
       style="fill:#000000;fill-opacity:1;fill-rule:nonzero;stroke:none"
       id="path36731"
       d="m 457.31483,431.38093 c -2.20203,1.29799 -4.41304,1.85985 -6.85926,0.9632 -1.94069,-1.22493 -2.33971,-3.15634 -2.48049,-5.28455 0.22791,-2.89212 2.4266,-3.89856 5.03723,-3.88646 1.97455,0.23666 3.7013,0.80151 5.1017,2.25061 0.69727,0.7793 1.01833,1.61322 1.05823,2.65961 0.17194,1.57729 -0.40835,2.81317 -1.3996,3.9956 -1.37518,1.35516 -2.82002,1.972 -4.7421,1.34667 -1.63309,-0.80708 -2.49712,-2.43557 -3.11682,-4.06696 -0.84148,-2.12919 0.0444,-3.86849 1.69953,-5.25788 1.03478,-0.82667 2.32935,-1.09422 3.61516,-1.19493 1.94065,-0.20748 3.37582,0.6259 4.45068,2.19761 1.29938,2.17903 0.37961,4.1991 -1.27439,5.80632 -2.00989,1.52992 -4.08453,1.70607 -6.31938,0.64457 -2.36015,-1.97642 -2.43939,-4.68286 -1.165,-7.29372 0.40489,-0.72186 0.92819,-1.35516 1.51241,-1.93552 2.11885,-2.06106 5.03363,0.93544 2.91478,2.9965 l 0,0 c -0.26518,0.26617 -0.52304,0.538 -0.71677,0.86458 -0.34274,0.5697 -0.5711,1.09474 -0.46019,1.74507 0.0875,0.0658 0.18137,0.12382 0.26243,0.19737 0.032,0.029 -0.11281,0.11342 -0.0698,0.10922 0.4581,-0.0448 0.94614,-0.29096 1.33651,-0.51521 0.55574,-0.0863 0.58052,-0.16569 0.44831,-0.38172 -0.10029,-0.25101 0.69143,-0.30332 -0.64685,-0.26367 -0.43331,0.0142 -0.91967,0.0431 -1.24921,0.2658 -0.15099,0.11421 -0.30221,0.45162 -0.45503,0.33988 -0.15119,-0.11056 -0.10218,-0.72807 -0.13904,-0.54443 -0.0102,0.0506 0.19146,0.80496 0.19711,0.82677 0.16193,0.57125 0.49743,1.09688 0.77802,1.59938 -1.23243,0.0821 -0.52453,0.32784 0.1118,-0.3679 0.13432,-0.1671 0.54173,-0.90412 0.23731,0.2114 -0.10602,0.38853 0.17256,-1.57729 0.0115,-1.20817 3.5e-4,-0.50271 0.29245,0.65536 0.0481,0.0585 -0.56955,-0.73563 -1.49385,-0.70613 -2.37806,-0.9196 -0.73505,-0.0575 -0.2144,-0.1913 -0.51647,-0.54203 0.0239,0.40669 0.39273,1.70306 -0.0811,1.68967 1.01151,0.74664 2.43257,-0.44694 3.37932,-0.84454 2.64386,-1.32192 4.51335,2.41705 1.86949,3.73898 z"
       inkscape:connector-curvature="0" />
    <path
       style="fill:#000000;fill-opacity:1;fill-rule:nonzero;stroke:none"
       id="path36733"
       d="m 433.13861,424.53015 c 1.7014,0.42638 3.4051,0.71104 4.95437,1.54014 0.84507,0.69772 1.36938,1.60285 1.55293,2.67213 0.01,1.09695 -0.78212,1.96824 -1.18572,2.91681 -1.1196,1.80644 -2.62366,2.3091 -4.65296,2.10487 -2.11288,-1.0339 -2.94662,-3.09592 -3.56474,-5.22671 -0.50074,-1.57078 -0.39314,-2.74623 0.1269,-4.27482 0.71183,-0.80257 1.49719,-1.43782 2.60267,-2.09394 2.11086,-0.96539 3.92976,0.0746 4.83928,2.0295 0.41528,1.10992 0.42656,2.30788 0.44036,3.47739 0.0734,1.67441 -0.11213,1.53352 -1.35572,3.30592 -0.90934,0.36141 -1.88437,0.31231 -2.84314,0.30496 -1.67491,0.0769 -2.52354,-1.23103 -2.753,-2.63983 -0.19002,-1.75089 1.14841,-3.00509 2.53328,-3.72951 0.54411,-0.24817 1.11403,-0.43082 1.69702,-0.56008 2.89017,-0.62 3.76698,3.46732 0.87681,4.08731 l 0,0 c -0.24944,0.0551 -0.49434,0.12818 -0.73124,0.22507 -0.23261,0.0846 -0.18961,0.10958 -0.055,-0.13862 -0.51969,0.12031 -0.1898,0.82859 -0.18541,-0.49511 -0.16332,-0.18945 -2.63902,-1.10145 -1.34946,-0.9294 0.19855,0.002 1.62966,-0.11539 0.98565,0.11408 -1.56727,2.72714 -0.90021,1.85314 -0.99979,0.50241 -0.007,-0.63467 0.003,-1.28654 -0.1161,-1.90967 0.37119,0.18732 0.54376,0.23037 1.14289,-0.0453 -0.16082,0.0944 -2.3285,1.65995 -1.24363,0.80282 0.40763,-2.2171 0.0881,0.18795 0.40613,0.81492 0.0757,0.2685 0.96387,2.21985 0.89531,2.3374 -0.0356,0.0611 -0.14095,0.0125 -0.21143,0.0187 -1.22185,0.14809 -0.1633,-0.13455 -0.32291,0.26157 0.36527,-0.83874 1.67288,-3.53923 0.8836,-0.68442 0.0514,0.16881 0.0479,0.17265 0.22474,0.20012 0.0971,0.0137 0.38286,0.0764 0.29137,0.041 -1.23932,-0.479 -2.64579,-0.52572 -3.89689,-0.97422 -2.86767,-0.71692 -1.85379,-4.77241 1.01387,-4.0555 z"
       inkscape:connector-curvature="0" />
    <path
       style="fill:#000000;fill-opacity:1;fill-rule:nonzero;stroke:none"
       id="path36737"
       d="m 495.64748,425.58235 c -1.90794,1.67784 -3.95517,2.56268 -6.1527,0.84602 -1.49847,-1.76423 -0.52742,-3.62052 0.72846,-5.0714 1.03587,-0.8756 2.24807,-1.14309 3.56515,-1.22702 1.09139,-0.0396 2.18384,-0.026 3.27569,-0.0195 1.6021,-0.0838 1.74392,0.12563 3.38206,1.09891 0.53899,0.95431 0.51375,1.98076 0.51328,3.03753 0.10295,1.5033 -0.14789,2.72975 -1.40406,3.72875 -0.96055,0.72656 -2.02293,1.21998 -3.16842,1.57618 -1.21714,0.44368 -2.09402,0.27934 -3.33782,-0.0992 -1.38215,-1.22788 -1.66761,-2.74675 -1.82443,-4.48926 -0.0383,-0.46559 -0.0555,-0.93237 -0.048,-1.39932 0.14239,-2.05693 2.39283,-2.06819 3.79357,-2.05889 0.73431,0.004 1.46863,0.006 2.20295,0.008 0.1,3.4e-4 0.19993,4.6e-4 0.2999,6.5e-4 2.29913,2.0217 2.0876,2.30891 2.07727,4.54822 0.0858,1.1436 -0.12654,2.15352 -0.75625,3.13986 -1.10082,1.23335 -2.50993,1.71646 -4.09251,1.96887 -0.47688,0.0718 -0.95726,0.10708 -1.43897,0.1098 -0.8634,0.0276 -1.74818,-0.63646 -2.39599,-1.35784 -1.05386,-1.2143 -1.05258,-2.64845 -0.79312,-4.12503 -0.13989,-0.3607 1.80595,-2.52087 1.03797,-1.66598 1.22225,-2.69139 5.02845,-0.96288 3.80621,1.72852 l 0,0 c -0.27506,0.45805 -0.45563,0.88072 -0.85503,1.18713 -0.018,-0.12953 -0.0203,-0.2622 -0.0539,-0.38857 -0.0428,-0.16106 0.002,0.66636 -0.006,0.49992 0.32662,0.38808 0.16859,0.31585 -0.79358,-0.0682 -0.11822,-0.0472 0.2537,0.0211 0.38054,0.0316 -0.83405,-0.0925 0.17844,0.0156 -0.23952,-0.021 0.11787,-0.005 0.52846,-0.0255 0.71035,-0.0613 0.31596,-0.0469 1.41041,-0.40773 1.26437,-0.17031 0.21919,-0.26367 0.14968,-0.22596 0.0416,0.49002 -0.0655,0.43407 0.0596,-1.75236 0.004,-1.31696 0.009,-1.92313 -0.68286,-3.42018 2.11108,-0.34854 -0.10658,-1.9e-4 -0.21316,-2.6e-4 -0.31975,-6.6e-4 -0.73965,-0.002 -1.4793,-0.005 -2.21894,-0.009 -2.87911,-0.0191 0.0346,0.3522 0.41205,-1.97863 -0.002,0.297 0.0116,0.59415 0.0343,0.89044 0.0493,0.57895 0.61997,2.05069 -0.30036,1.20639 -1.61901,-0.20388 -0.39958,-0.0314 0.0736,-0.24864 0.81795,-0.24494 1.51275,-0.60467 2.19543,-1.13527 -0.61219,0.66324 -0.06,-0.0294 -0.59029,1.40736 -0.32995,0.89402 0.39801,-2.33509 0.0118,-1.5832 1.9e-4,-0.17767 -0.17484,-1.56303 0.1996,-0.69956 2.85522,1.34021 1.26506,0.60368 0.0604,0.7464 -1.00548,-0.006 -2.01142,-0.0183 -3.0166,0.013 -0.43263,0.0184 -0.60815,-0.022 -0.96983,0.13048 0.32041,-0.76109 -0.0883,1.48948 -0.62835,-0.98788 -1.18341,-0.49089 -1.49616,0.48624 0.26722,-0.81988 2.09016,-2.09015 5.04608,0.86577 2.95593,2.95593 z"
       inkscape:connector-curvature="0" />
    <path
       style="fill:#000000;fill-opacity:1;fill-rule:nonzero;stroke:none"
       id="path36739"
       d="m 428.25612,436.80226 c 0,3.47218 0,6.94436 0,10.41655 0,3.65911 0,7.31821 0,10.97733 0,0.90212 0,1.80425 0,2.70638 0,2.70056 -3.98684,2.70056 -3.98684,0 l 0,0 c 0,-0.90213 0,-1.80426 0,-2.70638 0,-3.65912 0,-7.31822 0,-10.97733 0,-3.47219 0,-6.94437 0,-10.41655 0,-2.70056 3.98684,-2.70056 3.98684,0 z"
       inkscape:connector-curvature="0" />
    <path
       style="fill:#000000;fill-opacity:1;fill-rule:nonzero;stroke:none"
       id="path36741"
       d="m 425.33764,435.28914 c 3.63373,-0.76725 7.16252,-0.92711 10.71568,0.18 3.73439,1.78498 5.48548,4.98984 6.36894,8.72765 0.81014,3.98144 -0.57832,7.86812 -1.70624,11.65913 -0.865,3.76299 -2.07562,6.33788 -5.78074,8.07734 -3.43758,1.11324 -6.8278,0.12306 -9.90159,-1.45234 -2.47744,-1.28868 -0.57495,-4.64494 1.9025,-3.35628 l 0,0 c 1.92495,1.02151 4.12413,1.86563 6.34382,1.33419 2.49759,-0.92963 3.03852,-3.32539 3.60189,-5.64981 0.945,-3.17564 2.23443,-6.46231 1.6441,-9.80272 -0.51218,-2.4082 -1.47371,-4.59563 -3.7665,-5.92471 -2.82992,-1.00713 -5.73017,-0.59057 -8.63997,-0.0474 -2.76439,0.52963 -3.54626,-3.21536 -0.78189,-3.74499 z"
       inkscape:connector-curvature="0" />
    <path
       style="fill:#000000;fill-opacity:1;fill-rule:nonzero;stroke:none"
       id="path36743"
       d="m 469.08953,439.2235 c -3.16053,-0.0498 -6.31044,0.39066 -9.1224,1.80816 -2.65885,1.48354 -3.27831,4.17922 -3.72778,6.88976 -0.43225,2.88194 -0.0318,5.84527 1.63553,8.30709 1.22585,1.84165 2.37647,1.10921 3.88836,0.0921 2.14214,-1.74312 3.46245,-4.09949 4.7852,-6.42565 0.64851,-1.10468 1.08078,-2.31449 1.34856,-3.55296 0.0293,-1.17572 1.31023,1.72196 1.33011,1.7521 1.57937,-0.42155 1.45424,-1.44455 1.3657,0.58099 -0.0695,2.4396 -0.0438,4.99942 0.81037,7.32727 0.30928,0.63515 0.41035,1.37638 0.92755,1.89804 0.4226,0.42627 0.69265,0.52783 0.50149,0.42591 -0.19902,-0.10609 -0.38112,-0.23907 -0.57168,-0.3586 2.75731,0.56241 1.92702,4.29783 -0.83029,3.73543 l 0,0 c -2.1164,-0.85645 -3.16588,-2.42937 -3.82128,-4.52797 -0.89419,-2.80097 -1.16027,-5.74605 -0.99914,-8.66814 0.0844,-1.7635 0.17995,-4.26032 2.77305,-4.22917 1.4837,0.0766 2.8702,1.40363 2.41458,2.85482 -0.35851,1.60001 -0.9146,3.16264 -1.75099,4.59457 -1.64553,2.87322 -3.33831,5.7479 -6.10146,7.7899 -3.67808,2.20469 -6.79487,2.42191 -9.46192,-1.28144 -2.07399,-3.3202 -2.8015,-7.091 -2.17738,-10.93609 0.69935,-3.9413 1.98654,-7.61145 5.86161,-9.67584 3.41595,-1.60961 7.10653,-2.31749 10.92221,-2.21949 2.81912,0 2.81912,3.81916 0,3.81916 z"
       inkscape:connector-curvature="0" />
    <path
       style="fill:#000000;fill-opacity:1;fill-rule:nonzero;stroke:none"
       id="path36745"
       d="m 460.73411,445.4935 c 2.19084,-0.56603 4.44549,-0.84743 6.70207,-1.02807 1.76527,-0.17604 3.55376,0.0686 5.25836,-0.44219 1.46862,-0.47916 2.98331,-0.74558 4.52291,-0.89191 2.80572,-0.26306 3.19405,3.53794 0.38833,3.80099 l 0,0 c -1.28935,0.11888 -2.55247,0.34375 -3.78007,0.75315 -1.99156,0.54492 -4.00508,0.49703 -6.06112,0.58614 -2.04169,0.15965 -4.0822,0.41293 -6.06352,0.92702 -2.73496,0.65497 -3.7019,-3.05015 -0.96696,-3.70513 z"
       inkscape:connector-curvature="0" />
    <path
       style="fill:#000000;fill-opacity:1;fill-rule:nonzero;stroke:none"
       id="path36747"
       d="m 503.45466,438.46897 c -1.9926,-0.59826 -3.46132,-0.52858 -5.14753,0.62036 -2.22987,1.96982 -2.94731,4.76102 -3.13643,7.56487 0.12788,2.7569 1.53442,4.66943 3.97011,5.98902 1.95632,0.80144 4.09394,1.45257 6.16404,0.69706 2.69227,-0.80097 3.87476,2.84633 1.1825,3.64731 l 0,0 c -3.25962,0.87284 -6.36936,0.38901 -9.39543,-1.06813 -3.88511,-2.31165 -5.74041,-5.10875 -5.89561,-9.56658 0.37417,-3.99726 1.53818,-7.81621 4.91033,-10.44829 2.66351,-1.61943 5.26693,-2.04412 8.31497,-1.14075 2.73495,0.65498 1.768,4.36012 -0.96695,3.70513 z"
       inkscape:connector-curvature="0" />
    <path
       style="fill:#000000;fill-opacity:1;fill-rule:nonzero;stroke:none"
       id="path36749"
       d="m 513.61757,440.16062 c 2.66964,0.58395 5.4124,0.75855 8.13816,0.92439 1.77389,0.0783 0.89182,0.0457 2.64616,0.0983 2.81773,0.0848 2.69243,3.90214 -0.1253,3.81727 l 0,0 c -1.8365,-0.0556 -0.91167,-0.0211 -2.77451,-0.10413 -2.9661,-0.18176 -5.9492,-0.38197 -8.85146,-1.03069 -2.73496,-0.65498 -1.768,-4.36011 0.96695,-3.70513 z"
       inkscape:connector-curvature="0" />
    <path
       style="fill:#000000;fill-opacity:1;fill-rule:nonzero;stroke:none"
       id="path36753"
       d="m 514.94652,446.52588 c 2.07579,0.5007 4.11467,0.8166 6.24304,0.57017 1.29025,-0.19131 2.57645,-0.39243 3.87337,-0.53824 2.80026,-0.31191 3.26072,3.48169 0.46046,3.7936 l 0,0 c -1.30134,0.14338 -2.5896,0.35784 -3.8855,0.53957 -2.60759,0.26852 -5.12198,-0.0277 -7.65832,-0.65996 -2.73495,-0.65499 -1.76801,-4.36012 0.96695,-3.70514 z"
       inkscape:connector-curvature="0" />
    <path
       style="fill:#000000;fill-opacity:1;fill-rule:nonzero;stroke:none"
       id="path36755"
       d="m 534.83469,434.75616 c 2.03573,-0.9129 4.18407,-1.54187 6.35117,-2.09295 0.53819,-0.13371 1.07836,-0.26106 1.62681,-0.34892 0.76096,0.69615 1.60459,1.31785 2.28288,2.08844 0.36319,0.41263 -0.34005,3.62485 -0.45701,4.07569 -0.96831,2.44082 -2.10815,4.80238 -3.55825,7.01348 -1.1357,1.83763 -2.21455,3.70292 -3.26872,5.58506 -0.30823,0.56309 -0.61411,1.12779 -0.89222,1.70522 -2.07911,-3.11816 -2.03124,-2.60819 0.28368,-2.62418 2.05278,-0.0131 4.10559,-0.0171 6.15839,-0.0204 1.12692,-9.1e-4 2.25382,-0.001 3.38073,-0.001 0.10521,0 0.21041,1e-5 0.31562,1e-5 2.81911,2.1e-4 2.81881,3.81937 -3.1e-4,3.81916 l 0,0 c -0.10509,0 -0.21012,-10e-6 -0.31517,-3e-5 -1.12475,4e-5 -2.24949,7.9e-4 -3.37424,0.001 -2.04543,0.004 -4.09087,0.008 -6.13626,0.0204 -1.4316,0.0104 -5.02446,0.17726 -3.94561,-2.76748 0.31725,-0.65606 0.65985,-1.30048 1.01296,-1.93949 1.10045,-1.96147 2.22485,-3.90676 3.41258,-5.82102 1.24403,-1.86496 2.16472,-3.87343 3.06225,-5.90926 0.1971,-0.72504 0.33287,-1.28265 0.33872,-2.03338 0.002,-0.29563 -0.26997,-1.02585 0.002,-0.88692 0.80182,0.40894 1.49774,0.98504 2.24663,1.47754 -0.22456,0.0408 -0.85186,0.17687 -1.1543,0.25779 -1.90497,0.48304 -3.79542,1.02583 -5.58978,1.81726 -2.5215,1.20772 -4.30446,-2.20824 -1.78298,-3.41595 z"
       inkscape:connector-curvature="0" />
    <path
       style="fill:#000000;fill-opacity:1;fill-rule:nonzero;stroke:none"
       id="path36757"
       d="m 537.37306,439.95133 c 2.57308,0.048 5.12509,-0.43952 7.64598,-0.8902 1.26081,-0.38305 2.2294,-0.13383 3.30791,0.5662 2.01524,1.88844 -0.77267,4.61855 -2.78791,2.73012 l 0,0 c 1.0488,0.49561 2.1579,0.0675 0.21085,0.45812 -2.76192,0.493 -5.55758,1.00583 -8.37683,0.95492 -2.81911,0 -2.81911,-3.81916 0,-3.81916 z"
       inkscape:connector-curvature="0" />
    <path
       style="fill:#000000;fill-opacity:1;fill-rule:nonzero;stroke:none"
       id="path36759"
       d="m 558.14921,436.63153 c -0.66466,3.6445 -1.75048,7.19905 -2.59506,10.8065 -0.73922,2.62346 -1.57757,5.21902 -2.31289,7.8438 0.30235,2.23862 -4.25778,0.90289 -3.71419,-0.89996 1.26802,-2.56657 2.04764,-5.30739 2.88341,-8.02224 0.83716,-3.00063 2.00731,-5.89932 2.82512,-8.90564 0.27553,-1.40345 0.58854,-2.70207 1.49134,-3.86761 0.40908,-0.48773 0.89876,-0.88234 1.4882,-1.14812 1.33207,-0.4945 2.38279,0.57569 3.19827,1.37384 0.48445,0.25491 0.8132,2.03812 0.9095,1.42736 0.9141,2.04399 0.93297,4.29053 1.32638,6.44704 0.44246,2.14212 0.84661,4.29006 1.18053,6.45021 0.22276,1.70507 0.70782,1.88915 -2.92765,-0.46573 -0.13298,-0.0861 0.19631,-0.24425 0.27895,-0.37609 0.10975,-0.17517 0.19802,-0.36193 0.29704,-0.54289 1.08858,-2.25064 1.78061,-4.6326 2.5264,-7.00182 0.54814,-2.01824 1.42576,-3.93863 2.43916,-5.77896 0.67455,-1.26883 0.87287,-1.09825 2.6539,-1.66091 2.02968,0.70334 2.48787,2.32301 2.71454,4.19779 0.52105,2.7053 1.23675,5.3668 1.81202,8.06111 0.83893,2.53512 0.31688,5.37497 1.069,7.90045 -0.0962,0.31324 1.39854,3.02071 0.41807,1.47978 2.03676,1.86714 -0.71972,4.62641 -2.75647,2.75927 l 0,0 c -0.78308,-1.01361 -1.2166,-2.13279 -1.54163,-3.36093 -0.58704,-2.63393 -0.45032,-5.38123 -1.09563,-8.01652 -0.59593,-2.81707 -1.36154,-5.59662 -1.87116,-8.43136 -0.0855,-1.00973 -0.44295,-1.21841 0.68676,-0.80891 1.51101,-0.6211 2.01633,-1.25112 1.4349,-0.33426 -0.89762,1.62072 -1.67282,3.3145 -2.14658,5.09667 -0.83058,2.63544 -1.61282,5.2856 -2.86908,7.77208 -1.3e-4,2.1e-4 -0.99214,1.73106 -1.2135,1.72912 -3.90583,-0.034 -3.58735,0.15189 -3.85294,-1.65877 -0.32931,-2.13292 -0.73162,-4.25302 -1.16691,-6.36835 -0.32193,-1.85134 -0.35929,-3.77343 -1.0449,-5.549 -0.97431,-2.67907 0.75645,0.90521 -0.10999,-0.29504 -1.53219,-1.49975 -0.3936,-0.0551 1.17434,-0.5158 0.14487,-0.069 0.45272,-0.28299 0.14252,-0.0453 -0.62516,0.67094 -0.44093,1.65736 -0.78793,2.49662 -0.83173,3.04445 -2.00103,5.98452 -2.85862,9.02112 -0.86305,2.80209 -1.67458,5.63053 -2.9745,8.283 -1.3279,3.14175 -5.14739,0.5088 -3.86921,-1.43139 0.72131,-2.5739 1.53661,-5.1211 2.27346,-7.69057 0.83981,-3.57788 1.91462,-7.10416 2.57562,-10.71868 0.55287,-2.6481 4.4623,-1.89911 3.90941,0.74899 z"
       inkscape:connector-curvature="0" />
    <path
       style="fill:#000000;fill-opacity:1;fill-rule:nonzero;stroke:none"
       id="path36761"
       d="m 582.36737,433.09552 c 0.72397,3.38267 0.91312,6.83998 1.07791,10.2807 0.11571,2.83381 0.14882,5.66993 0.1604,8.50565 9.6e-4,0.46412 0.002,0.92827 -0.004,1.39238 -0.0283,2.70042 -4.01486,2.6622 -3.98665,-0.0382 l 0,0 c 0.005,-0.44639 0.004,-0.89283 0.002,-1.33925 -0.0117,-2.78249 -0.0434,-5.56539 -0.15628,-8.34604 -0.15178,-3.18793 -0.32077,-6.39005 -0.96302,-9.52894 -0.68375,-2.61993 3.18405,-3.5462 3.86779,-0.92629 z"
       inkscape:connector-curvature="0" />
    <path
       style="fill:#000000;fill-opacity:1;fill-rule:nonzero;stroke:none"
       id="path36763"
       d="m 581.39384,428.70314 c 2.23448,0.46798 4.51205,0.73258 6.78845,0.92828 2.84542,0.40545 4.05809,2.49145 4.5579,4.96653 0.20341,3.63738 -2.69613,5.52028 -5.83597,6.7847 -2.49415,0.81769 -5.13357,1.02354 -7.74906,1.13499 -2.81641,0.11861 -2.99144,-3.69692 -0.17503,-3.81548 l 0,0 c 2.16013,-0.0897 4.34387,-0.23551 6.41957,-0.8563 1.29764,-0.48312 3.15794,-1.08668 3.41491,-2.58096 -0.11728,-0.76113 -0.11128,-1.65086 -0.99118,-1.82982 -2.481,-0.21615 -4.96334,-0.50485 -7.39654,-1.02681 -2.73494,-0.65499 -1.768,-4.36011 0.96695,-3.70513 z"
       inkscape:connector-curvature="0" />
  </g>
</svg>
